<svg style="" viewBox="0 0 497 279" xmlns="http://www.w3.org/2000/svg"><path d="m0 0h497v279h-497z" style="fill:#f2efe9"/><path d="m12.3 244.1h-34.8v34.9h34.8zm0 34.9h-34.8v34.9h34.8zm0-174.4h-34.8v34.9h34.8zm0 34.9h-34.8v34.9h34.8zm0 34.9h-34.8v34.8h34.8zm0 0" style="fill:#aad3df;fill-rule:evenodd"/><path d="m12.3 209.2h-34.8v35h34.8zm0-209.2h-34.8v34.9h34.8zm0 34.9h-34.8v34.9h34.8zm0 34.9h-34.8v34.7h34.8zm0 0" style="fill:#aad3df;fill-rule:evenodd"/><path d="m12.3-34.9h-34.8v35h34.8zm0 0" style="fill:#aad3df;fill-rule:evenodd"/><path d="m0 0h497v279h-497z" style="fill:none"/><path d="m12.3 0h485v279h-485z" style="fill:#f2efe9"/><g style="fill:#aad3df;fill-rule:evenodd"><path d="m396.1 313.9h34.9v-34.9h-35zm0 0" style=""/><path d="m361.2 313.9h34.9v-34.9h-34.9zm0-34.9h34.9v-34.9h-34.9zm0 0" style=""/><path d="m396.1 279h34.9v-34.9h-35zm34.9 0h34.8v-34.9h-34.8zm0 0" style=""/><path d="m465.8 279h35v-34.9h-35.1zm0 34.9h35v-34.9h-35.1zm0 0" style=""/><path d="m431 313.9h34.8v-34.9h-34.8zm34.8-69.8h35v-34.9h-35.1zm0 0" style=""/><path d="m431 244.1h34.8v-34.9h-34.8zm-34.9-34.8h34.9v-35h-35zm0 0" style=""/><path d="m396.1 244.1h34.9v-34.9h-35zm0 0" style=""/><path d="m361.2 244.1h34.9v-34.9h-34.9zm0 0" style=""/><path d="m361.2 209.3h34.9v-35h-34.9zm0 0" style=""/><path d="m361.2 174.4h34.9v-34.9h-34.9zm0 0" style=""/><path d="m396.1 174.4h34.9v-34.9h-35zm-69.8 69.7h35v-34.9h-35zm0 0" style=""/><path d="m326.3 209.3h35v-35h-35zm-34.8 34.8h34.8v-34.9h-34.8zm-34.9 0h34.9v-34.9h-35zm0 0" style=""/><path d="m256.6 209.3h34.9v-35h-35zm0 0" style=""/><path d="m256.6 174.4h34.9v-34.9h-35zm34.9 0h34.8v-34.9h-34.8zm-69.8 69.7h34.9v-34.9h-34.9zm0 0" style=""/><path d="m186.8 244.1h35v-34.9h-35.1zm0 0" style=""/><path d="m152 244.1h34.8v-34.9h-34.8zm0 0" style=""/><path d="m152 209.3h34.8v-35h-34.8zm0 0" style=""/><path d="m152 174.4h34.8v-34.9h-34.8zm-34.9 69.7h34.9v-34.9h-35zm0 0" style=""/><path d="m82.2 244.1h34.9v-34.9h-34.9zm0 0" style=""/><path d="m47.3 244.1h35v-34.9h-35zm-34.8 0h34.8v-34.9h-34.8zm0 0" style=""/><path d="m12.5 209.3h34.8v-35h-34.8zm0 0" style=""/><path d="m12.5 174.4h34.8v-34.9h-34.8zm34.8 139.5h35v-34.9h-35zm-34.8 0h34.8v-34.9h-34.8zm0-34.9h34.8v-34.9h-34.8zm34.8 0h35v-34.9h-35zm0 0" style=""/><path d="m82.2 279h34.9v-34.9h-34.9zm0 0" style=""/><path d="m117.1 279h34.9v-34.9h-35zm0 34.9h34.9v-34.9h-35zm0 0" style=""/><path d="m82.2 313.9h34.9v-34.9h-34.9zm69.8 0h34.8v-34.9h-34.8zm0-34.9h34.8v-34.9h-34.8zm0 0" style=""/><path d="m186.8 279h35v-34.9h-35.1zm0 0" style=""/><path d="m221.7 279h34.9v-34.9h-34.9zm0 34.9h34.9v-34.9h-34.9zm0 0" style=""/><path d="m186.8 313.9h35v-34.9h-35.1zm104.7 0h34.8v-34.9h-34.8zm-34.9 0h34.9v-34.9h-35zm0-34.9h34.9v-34.9h-35zm34.9 0h34.8v-34.9h-34.8zm34.8 0h35v-34.9h-35zm0 34.9h35v-34.9h-35zm-174.3-313.9h34.8v-34.9h-34.8zm0 0" style=""/><path d="m186.8 0h35v-34.9h-35.1zm0 0" style=""/><path d="m221.7 0h34.9v-34.9h-34.9zm0 0" style=""/><path d="m256.6 0h34.9v-34.9h-35zm34.9 0h34.8v-34.9h-34.8zm34.8 0h35v-34.9h-35zm139.5 139.5h35v-34.9h-35.1zm0 0" style=""/><path d="m431 139.5h34.8v-34.9h-34.8zm0 34.9h34.8v-34.9h-34.8zm0 0" style=""/><path d="m465.8 174.4h35v-34.9h-35.1zm0 0" style=""/><path d="m465.8 209.3h35v-35h-35.1zm0 0" style=""/><path d="m431 209.3h34.8v-35h-34.8zm-34.9-69.8h34.9v-34.9h-35zm0 0" style=""/><path d="m361.2 139.5h34.9v-34.9h-34.9zm0-34.9h34.9v-34.9h-34.9zm0 0" style=""/><path d="m396.1 104.6h34.9v-34.9h-35zm69.7 0h35v-34.9h-35.1zm0 0" style=""/><path d="m431 104.6h34.8v-34.9h-34.8zm0 0" style=""/><path d="m431 69.8h34.8v-35h-34.8zm0 0" style=""/><path d="m465.8 69.8h35v-35h-35.1zm0 0" style=""/><path d="m465.8 34.9h35v-34.9h-35.1zm0 0" style=""/><path d="m431 34.9h34.8v-34.9h-34.8zm-34.9 0h34.9v-34.9h-35zm0 0" style=""/><path d="m396.1 69.8h34.9v-35h-35zm0 0" style=""/><path d="m361.2 69.8h34.9v-35h-34.9zm0 0" style=""/><path d="m361.2 34.9h34.9v-34.9h-34.9zm0-34.9h34.9v-34.9h-34.9zm0 0" style=""/><path d="m396.1 0h34.9v-34.9h-35zm34.9 0h34.8v-34.9h-34.8zm0 0" style=""/><path d="m465.8 0h35v-34.9h-35.1zm-139.5 69.8h35v-35h-35zm0 0" style=""/><path d="m326.3 34.9h35v-34.9h-35zm-34.8 0h34.8v-34.9h-34.8zm-34.9 0h34.9v-34.9h-35zm0 0" style=""/><path d="m256.6 69.8h34.9v-35h-35zm34.9 0h34.8v-35h-34.8zm0 0" style=""/><path d="m291.5 104.6h34.8v-34.9h-34.8zm-34.9 0h34.9v-34.9h-35zm69.7 0h35v-34.9h-35zm0 34.9h35v-34.9h-35zm0 34.9h35v-34.9h-35zm-34.8 34.9h34.8v-35h-34.8zm0-69.8h34.8v-34.9h-34.8zm-34.9 0h34.9v-34.9h-35zm0 0" style=""/><path d="m221.7 139.5h34.9v-34.9h-34.9zm0 0" style=""/><path d="m186.8 139.5h35v-34.9h-35.1zm0 34.9h35v-34.9h-35.1zm0 0" style=""/><path d="m221.7 174.4h34.9v-34.9h-34.9zm0 0" style=""/><path d="m221.7 209.3h34.9v-35h-34.9zm0 0" style=""/><path d="m186.8 209.3h35v-35h-35.1zm-34.8-69.8h34.8v-34.9h-34.8zm0-34.9h34.8v-34.9h-34.8zm69.7 0h34.9v-34.9h-34.9zm0 0" style=""/><path d="m186.8 104.6h35v-34.9h-35.1zm0 0" style=""/><path d="m186.8 69.8h35v-35h-35.1zm0 0" style=""/><path d="m221.7 69.8h34.9v-35h-34.9zm0 0" style=""/><path d="m221.7 34.9h34.9v-34.9h-34.9zm0 0" style=""/><path d="m186.8 34.9h35v-34.9h-35.1zm0 0" style=""/><path d="m152 69.8h34.8v-35h-34.8zm0 0" style=""/><path d="m152 34.9h34.8v-34.9h-34.8zm-34.9 0h34.9v-34.9h-35zm0 0" style=""/><path d="m117.1 69.8h34.9v-35h-35zm0 0" style=""/><path d="m82.2 69.8h34.9v-35h-34.9zm0 0" style=""/><path d="m82.2 34.9h34.9v-34.9h-34.9zm0 0" style=""/><path d="m47.3 34.9h35v-34.9h-35zm-34.8 0h34.8v-34.9h-34.8zm0 0" style=""/><path d="m12.5 69.8h34.8v-35h-34.8zm34.8 0h35v-35h-35zm0 0" style=""/><path d="m47.3 104.6h35v-34.9h-35zm-34.8 0h34.8v-34.9h-34.8zm0 0" style=""/><path d="m82.2 104.6h34.9v-34.9h-34.9zm0 0" style=""/><path d="m117.1 104.6h34.9v-34.9h-35zm0 34.9h34.9v-34.9h-35zm0 0" style=""/><path d="m82.2 139.5h34.9v-34.9h-34.9zm0 34.9h34.9v-34.9h-34.9zm0 0" style=""/><path d="m117.1 174.4h34.9v-34.9h-35zm0 0" style=""/><path d="m117.1 209.3h34.9v-35h-35zm0 0" style=""/><path d="m82.2 209.3h34.9v-35h-34.9zm0 0" style=""/><path d="m47.3 209.3h35v-35h-35zm0 0" style=""/><path d="m47.3 174.4h35v-34.9h-35zm0-34.9h35v-34.9h-35zm-34.8 0h34.8v-34.9h-34.8zm0-139.5h34.8v-34.9h-34.8zm34.8 0h35v-34.9h-35zm0 0" style=""/><path d="m82.2 0h34.9v-34.9h-34.9zm0 0" style=""/><path d="m117.1 0h34.9v-34.9h-35zm0 0" style=""/></g><path d="m12.3 0h485v279h-485z" style="fill:none"/></svg>