<svg style="" viewBox="0 0 497 279" xmlns="http://www.w3.org/2000/svg" xmlns:xlink="http://www.w3.org/1999/xlink"><clipPath id="a" style=""><path d="m0 0h497v279h-497z" style=""/></clipPath><filter id="b" height="100%" style="" width="100%" x="0%" y="0%"><feColorMatrix in="SourceGraphic" style="" values="0 0 0 0 1 0 0 0 0 1 0 0 0 0 1 0 0 0 1 0"/></filter><mask id="c" style=""><g style="filter:url(#b)"><path d="m0 0h497v279h-497z" style="fill-opacity:.5"/></g></mask><path d="m0 0h497v279h-497z" style="fill:#f2efe9"/><g style="fill:#aad3df;fill-rule:evenodd"><path d="m-31.3 0h34.9v-34.9h-35zm0 34.9h34.9v-34.9h-35zm34.9 0h34.8v-34.9h-34.8zm0-34.9h34.8v-34.9h-34.8zm0 0" style=""/><path d="m38.4 0h35v-34.9h-35.1zm0 0" style=""/><path d="m73.3 0h34.9v-34.9h-34.9zm0 34.9h34.9v-34.9h-34.9zm0 0" style=""/><path d="m38.4 34.9h35v-34.9h-35.1zm69.8 0h34.8v-34.9h-35zm34.8 0h35v-34.9h-35zm35 0h34.7v-34.9h-34.7zm0-34.9h34.7v-34.9h-34.7zm-35 0h35v-34.9h-35zm-34.8 0h34.8v-34.9h-35zm209.2 0h34.9v-34.9h-34.9zm0 0" style=""/><path d="m282.5 0h35v-34.9h-35.1zm-69.7 0h34.9v-34.9h-34.9zm0 0" style=""/><path d="m247.7 0h34.9v-34.9h-35zm0 34.9h34.9v-34.9h-35zm0 0" style=""/><path d="m212.8 34.9h34.9v-34.9h-34.9zm69.7 0h35v-34.9h-35.1zm0 0" style=""/><path d="m317.4 34.9h34.9v-34.9h-34.9zm0 0" style=""/><path d="m352.3 34.9h34.9v-34.9h-35zm0-34.9h34.9v-34.9h-35zm139.5 104.6h34.9v-34.8h-35zm0 34.9h34.9v-34.9h-35zm0 34.9h23.2v-.2l.8-.7 1-.3 1.2.4.5.6v.2h8.3v-34.9h-35.1zm0 69.7h34.9v-34.9h-4.7v.5l-.2.8-.3-.3-.3-.2h-.2v-.6l.2-.2h-29.4zm0 13.3.1.1.2.1v.2l.3.1h.6l.2-1.1v-.3l.1.1h.1v.1l.2.1v.3l.4.3.1.4.3.1.2.1.3.6.4.5.1.5-.1.1-.2.1v.5l-.1.5h-.3v.2l-.5 1-.1.4-.2.3-.2.4-.3.7v.7l-.4.6v1.1l-.1.2-.5.1-.1-.1h-.1v.8l.3.2-.2.6h.9l.2.3h.3l.1-.5h.6l.3.3v.2l.5.4v.2l-.3.5v.3h.5v.1l.4.2.1.1v.3h.3v-.3l.3-.3v-.1l.1-.4v-.1l.4-.7h.1l.2-.4h.7l.2-.1.2.1h.6l.1-.1.2.2h.7v-.3l.2-.2.1-.2h.3l.2-.3v-.5l.2-.1h.8l.1-.3.3-.1.2-.2.1-.2h.3l.2.4v.5l.2.3v.2l.1.4.2 1.4.3.4.3.6.2.1h.2l.4.2h.7l.2.3.2.3.3.1v.3l1.1.7v.2l.3.2.5 1h.1l.6 1.1v1.1h-.6l-.2.4v.2h-.1l-.2.3-.1.4v.2l-.6.6v.2l-.4.1.1.6h.2v.4l.3-.2v.1h.7l.1-.1h.4v-.4h.4l.2-.4h.6l.5.9v.1h16.6v-10.7l-.3-.7.2-.3v-23.2h-35v11.9l.7-.3v.7l-.2.2h-.2l-.2-.6zm0 0" style=""/><path d="m491.8 209.3h29.2l.2-.3v-.6l-.2-.2-.3-.2-.3-.4v-.9l-.2-.2h-.1l-.2.1-.4-.2h-.2l-.6-.4h-.3l-.2-.1-.2-.3h-.2v-.1l-.2-.2h-.2l-.1-.3h-.3v-.1l-.3.1-.2-.1h-.5v-.6h-.2l-.4-.4v-1.1l.4-.5v-.1l-.2-.2v-.2l-.1-.3v-.5h.1l.4-.3v-.6h-.1v-1l.1-.1.3-.2v-.2l-.2-.1-.3-.5-.2-.4-.2-.3-.2-.2h-.2l-.4-.8-.2-.1h-.4v-.2h-.5v-1h-1l-.1-.2-.2-.2h-.2l-.5-.2-.1.3-.1.2v.2h-.3l-.6.6-.1.1-.3-.2h-.3.3v.2h-1l-.1.2h-1l-1 .2-.2-.3-.3-.2h-.2l-.2-.5-.1-.1-.5-.1-.1-.4.1-.4v-.5l-.2-.3v-.2l-.1-.3v-.3l.2-.6v-.1l.1-.2h.2l-.1-.4v-3l-.1-.9v-1.8l.6-1.6.6-2.3.7-1.6.7-1h.6v-.6l.4-.8.8-.7 1-.5 1-.3 1 .2-.2.6.4.8.4.4.6.2.1.4-.1.4.2.4.8-.1.4-.5h.9l.4-.3h.3l.7-.7.3-.1.4-.4h.3l.5.5h.2l.2.4.1.3h.2v.3l.3.1v.3l.2.2v.4l.2.2.2.3.4.3.6.8.2 1.1v1.8l.2.5.3.4.5 1.9-.2 1 .2.7.4.3v.4l-.2.6-.3.3v.4l.1.6-.2.2-.1.4v1l.3.5v1.9l.6.7.1.3v.8l.2.4.1.4v1.4l.2.8v1.3l.1.2v.1l-.2.3v.9l-.4.3v.2l-.2.5-.2.4.1.5.1.9v.3l-.5.7-.3.6-.2-.3h-.2v1h.2l-.4.8h4.6v-34.7h-8.1l-.6.3-.3-.3h-1.4l-.3.6.4.8-.4.3-.7-.5-.4-.8.2-.4h-23.3zm-69.8-209.3h35v-34.9h-35zm0 34.9h35v-34.9h-35zm0 0" style=""/><path d="m457 34.9h34.7v-34.9h-34.8zm34.8 0h34.9v-34.9h-35zm0-34.9h34.9v-34.9h-35zm-34.8 0h34.7v-34.9h-34.8zm0 0" style=""/><path d="m491.8 69.8h34.9v-35h-35zm-34.8 0h34.7v-35h-34.8zm0 0" style=""/><path d="m422 69.8h35v-35h-35zm-34.8 241.5h.1l.3.2.2.2.2.6.8.5v.8l-.3.3h33.5v-35h-34.8v1.1l.3.2v.1l.5.3v.2l-.5.2v.4l.1-.1h.2l.2.3h.2l.4-.4v-.3l.3.1h1.3v.7l.2.2.2.4v.2l.4.5.3.5v.2l.5.5v.5l.2.5.2.6-.3.2v.3l.1.1v.5l-.2.1v.1h.2l.1.2.2-.1.2-.3.5 1.4v1.5l-.1.6v-.1h-.2l-.1-.3h-.2l-.2-.3v.3l-.2.2v.5h-.2v.7h-.1v.3h.3l.2-.2v-.1l.4-.2-.2.6v-.2l-.3.4-.3-.2-.1.2-.1.1v.1h.4v.9h-.1l-.1.1-.1.2v.4l.1.1v.4l.2.1v1.6l-.5 1-.5 1.3-.3.3-.3.1h-.5l-.3-.3h-.2l-.2.3-.9.2h-.3l-.3.2h-.5zm34.8 2.6h35v-11l-.3-.3v-.1h-.2v-.3l-.2-.1v-.2l-.2-.2h-.2v.3h-.2l-.1-.3h-.2l-.2.3-.1-.5-.1-.1v.1l-.3.1-.4.4-.2-.2h-.6l-.8-.3h-.1l-.2.1-.4-.3v-.3l-.2-.2-.2-.1v-.3l-.1-.2v-.3h-.1l-.1-.2-.3-.1-.3-.4-.1-.2v-.2l-.1-.2-.9-.2-.2-.4h-.3l-.1-.2v-.3h.3l.1-.2h-.7v-.5l.3-.2-.2-.3h-.2v-.6h-.9v-.7h-.2v-1.2l-.2-.2h-.1l-.2-.1v-.6h-.3v-.3l-.2-.4v-.2l-.2-.4-.3-.3-.4-.5-.1-.2v-.2l-.1-.2.2-.7.1-.2v-.3h-.1l-.1-.2-.2-.5-.1-.3-.2-1v-.6l.8-.6v-.8l.3-.2v-.5l.2-.1.3-.4v-.4l1-1v-.2l.4-.1v-.1h.4l.3-.2.2.2h.5l1.2.2h.4l1 .3h.4v-.3h.5l.1.4v.1l.2.2.2.3.3.1 1.3 1 .1.5.3.2v.2l.1.1.5.2h.4l.3.3h.2v-6.8h-34.9zm35-28.1h.2l.2.2h.2l.4-.3v.3h1.7l.3.2-.2-.4h.5l.5-.3h.3l.2.2.1.1v.2l.6.5v.1l.6.1h.9l-.1.3h-.1l-.2.3h.3l.2-.2v-.4l.2-.2.2-.2.3-.1v-.2l-.1-.1v-.6l.8-.5v-.5l-.3-.3v-.1h-.3l-.2-.2v-1.1l.3-.2v-.6h.4l.2-.1h.3v-.5l-.1-.1h-.3l-.2-.4h-.1v-.3h.3v-.2l.4-.3v-.3h-.8l-.2.1-.2-.1h-.8l-.1.1h-.3l-.2.1h-.7l-.1.1h-.4l-.3-.1h-.3v-.1h-.5l-.5-.2h-.2l-.1-.2h-.2l-.7-.2-.2.2h-.2l-.5.3-.2-.1-.2-.2v-.3h-.5zm5.4-4.5.3-.3h.5v.4h.2v.2l-.1.1zm-5.4-176.7h34.7v-34.8h-34.8zm0 34.9h34.7v-34.9h-34.8zm0 34.9h34.7v-34.9h-34.8zm15.4 69.7.2.5-.1.1v1h.5v.2l.2.2v.3l-.2.6v.2h.6l.4.2v.2l.2.2v.2h-.3v.4l.1.2-.1.3h.7v-.1h.2v1.2l-.1.4.3.4v.8l-.3.2-.1.2v1h-.3v.3l.4.2v.6l-.3.6v.3l-.3 1.2v.2l-.7.8v.2h-.2l-.2 1.1-.1.4v.2l.3.1.1-.1.2.1.4-.2v-.2l.5-.5.2-.2h.5l.2.2v1.9l-.5.8v.3l.2.3v1.3h.2l.1.3h.1v.8l.4-.2h.2l-.2-.1v-.4l.2-.3h.3v-.5h.3v-.2l-.1-.3v-.6l.1-.2.2-.2.2-.1.3-.6v-.3h-.2l.4-.4.3-.6v-1l-.2-2.4v-1.4l.4-.4h.2v.4h.6v-.2l.2.3v-.4l.2-.2-.2-.2.1-.2.6-.5h.3v.3l.2.2h.2v-.1l.2-.5.3-.2.3-.3v-.6l.5-.1.1-.2h.2v-.3l.1-.2.2-.5.3-.5.3-.3h.3l.5.1.3-.1h.4l.5.1.4.4.4.2.3.3.5.1.2-.3h.3l.6.2v.5h-.1v.3l.4.7.1-.2.4.6v.5h.3l.2.4.2.2.2.4v.5l.6.2.3.1.1.3v.6l.1.3.6.1.3.5.3.5.1.4v-13.3zm16 7.5.1-.2.4-.1.6.1.6.3.6 1 .2.1.3 1-.4-.4h-.3l-.2-.4-.3-.1-.2-.3-.8-.7zm-17-7.5.3.3h.3v.1h.3v-.2l-.2-.1h-.5zm0 0" style=""/><path d="m457 230.1h.3l1.1-.1.1.3h.4l.1.2.5.3h1.5l.4.2.2.2v.4l.7 1v.4l.5.5.1.1.3.2.4.5.4.4.3.6.5-.6h.2v.8l.3.5.7-.6h.3l.4-.1v-.3l.3.1v.3h.2l.2.6.4.3.5.1h.1v-.1l.2-.1.4.4.2.2.1.7.3.2v.9l.3.2.3.5.4.3.3.4v.6l.4-.3v-.1h.3v-.2l.2-.1v1l-.3-.2h-.2v-.1l-.3.1.2.1v.2h-.2v.7l.1.3.3.6.1.9-.1.2v.4h.6l.5-.1v.1h19.3v-34.9h-34.9zm15 13.4v-.5.2h.3v.2h-.2zm-6.9-8.6v.1zm1.7-.4h.2v.2zm-3.5-1.1h.3v.2h-.3zm7.8 5.5v-.3h.3l.2.1.4.5-.3.2v.1-.2l-.5-.2v-.2zm.7 4.2" style=""/><path d="m457 209.3h34.7v-35h-34.8zm0 0" style=""/><path d="m422 209.3h35v-35h-35zm-34.8 0h34.8v-35h-34.8zm0 0" style=""/><path d="m422 244.1h15.4v-.4l.6-1.4v-1.3l.4-1.2 1-1.5.5-.3-.4-.7.2-.6v-.7l-.5-.4.1-.6.1-.9-.6.2-.3-.7.7-.2.4-.4.8.3.4.7.2-.2 1 .2.5-.2.4-1 .6.5.8.3 1.5.2.8-.4h.7l.5-.4h.6l1.1-1 .7-.2.4-.3h.8l.6-.3.3-.5-.1-.9.5-.3.6.5 1-.4 1.2.8.5-.4.7.1h.2v-20.9h-34.9zm35 21.5.1-.4h.6l.6-.4-.1-.1h-.4l-.2-.3v-.4l.1-.7.3-.1.4-.2.1.4.3-.2.2.1.3-.3v-.4l.5-.2v-.4h.2l-.6-.3v-.3l.2-.3v-.4l-.2-.2h-.2l-.3-.3h-.3v.3l-.5-.2v-.3l-.1-.2h-.3l-.2-.2v-.7l-.3-.3-.1-.3h-.2zm0 13.4h.4l.3-.4v-.1l.3-.1v-.2l.2-.2.9-.8.1-.2v-.2l.4-.2v-.1h.4v-.1.1h.3v-.2l.4-.1h.3l.3.1h.2l.4.2h.9l.3.1h.8l.1.1h.2v-.4l-.3-.3-.1-.2v-.2h.2v-.8l-.1-.2v-.5l.1-.4h.4v-.3l.4-.2v.1h.1v-.3l.2-.2v.2h.4v.3h.5v-.8l.1-.2.2.2v-.3l-.6-.5h-.1v-.3l.1.1.3-.1.1-.2v-.3l-.1-.1-.7-.4-.2-.6-.1-.3v-.2l-.3-.4h-.4l-.3.1-.2.3v.2l-.3.5-.2.3-.1.9-.3.1-.2.3.3-1v-.8l-.4.1v-.1l-.4-.3v.3l-.1.2h-.5l-.2.2v.3l-.2.5-.1-.2v.4l-.1.1v.2l-.3.4-.2.2v-.2h-.3l-.1-.2v-.8l.5-.4v-.3l.3-.4v-.8h.4l.1-.2.1-.6-.2-.3v-.2l-.4.2-.2.1-.1.5v.2h-.8l-.2-1.1h-.3l-.1.1v1l.3.6-.1.3-.4.2h-.2v.3l-.1.2h-.2l-.5.3h-.3l-.4.2h-.3zm3.5-10v-.1l.3-.1v.2zm.1 0" style=""/><path d="m422 279h35v-8.3h-.5l.3-1.1v-.6l-.4.2h-.1l-.3.8-.3.2h-.3l-.3-.5v-1.1l.2-1h.2l.2-.4v-.1l.1-.2.2-.4.2-.2.4-.6h.3v-7.5l-.3.3-.2-.3.2-.2v-.3h.3v-.3l-.1-.3-.4-.2v-.4h-1.5l-.2.1-.2-.1h-.3v2.4h-.4l-.3-.3-.2-.4v-.3l-.3-.1-.2.3v.2h-.5l-.3.4v1.4l-.4.1-.1.3-.1.7-.1.3v.4l-.3.1v.4l-.5.7v1.3l-.3.3v.4l-.5.1-.9.8v.4l-.1.6-.3.3-.8.7-.4.1h-.4l-.3-.1-.1.4-.1-.2h-.1l-.2.2-.2.1-.3-.2-.2-.3-.1-.5h-.2v-.2h.1l.2-.9-.1-.2.3-.2v-.4l-.2-.7.4-.1.2-.2.1-.1v-.3l.6-.3v-.3l.2-.2.3-.2v-.6l-.3-.6.5-.4.3-.2.2-.6v-.4l-.2-.4v-.4h.6l.1-1.5v-.3l.5-1v-.6h.4v-.7l-.1-.1v-.9l.1-.3v-.5l-.2-.3v-.4l-.1-.1h-1l-.8-.1-.8-1.1h-.5v.3l-.3.5-.3.3-1 .7-.4.7v-.4h-.3v.5h-.5v-.3.2l-.5.2-.2-.2-.3.3h-.9l-.1.1h-.7l-.3-.1h-.3l-.2-.2-.3-.1-.8-.3-.5-.5-.2-.4v-.6l.2-.3-.1-.3v-1.2l-.1-1v-.9l-.4-2.2-.1-1.5.2-.9h-15.4zm26-20.5v.2h-.2zm-60.8 20.5h34.8v-34.9h-34.8zm0-34.9h34.8v-34.9h-34.8zm-1.1 34.9.3.5v.2h.5v.3h.2v-1.1zm0 0" style=""/><path d="m352.3 279h14.3v-.6h-.2l-.3-.2v-.1h-.1v-.1h.2v-.6h.4l.4.2.6.1-.1-.7v-.3l.1-.2v-.3h.3v.1h.1l.3-.1.1-.3v-.3h.2v-.4h.2l.2-.3v-.3h.1l.3-.1h.2v-.7l.4.3h.2l.1-.2h.2l.1-.1.1-.1v.3h.3v-.2l.2-.1h.1v-.2h.6l.3-.1h.9l.2-.2v-.4l.1-.1v-.2h.1v-.1l.3-.4h.2v-.3h.3v-.5l.2-.4v-.3l.2.1.1.1v.3h.9l.3-.4h1.3v.1h.3v-.2h.2v.7-.3h.2v-.3l.2-.4.4.2v.1l.1.5.3-.2v.2h-.4l.3.3v.3h.1l.1.6v.4l.2.1v-.3l.3-.1h.1l.3-.3.2.3v-.1h.5v.4l.3.1-.1.1-.1.2-.2-.1.1.3h.1l.2.1v-.4.1h.2v.2h.3v.4l.2.1h-.1l-.2.5v.1h.1l.7.5v-.4h.4v.1h.4l.2.3.3.2v.3h.2l.3.2v.2l.3.1.2.1v-.1l.2.1v.2h.6v.4l-.3.1v1.4h.4l.6.2v.2h.1v.6h1v-34.9h-34.7zm32-3.6-.3-.2h.2l.2.2zm-2.3-1.4.1.2v.2-.1zm-6.5-4.4v.1zm-.3-.6h.1l.1.2-.1.1v.3l-.3.2v-.8l.3.2zm-.7-.6h.2v.5l-.3-.2zm.1-.4h.1v-.2l.3.2v.2h-.4zm0 0" style=""/><path d="m352.3 286.6.1-.3.3-.3.3-.3.5-.1.2-.3.3-.3.2-.3v-.2h.3l.4-.4.4-.2h.5l.2-.3h.3l.2.2h.2l.1-.4h.5v.1h.5l.1-.2h.4v.3l.4-.2h.7v-.4h.6v.2h-.2v.1h.1v.2l.1.2h.1l.1-.1h.4v-.3.4h.1v.3h.3v-.3l.3.1v.1-.1h.2v-.1h.2l.3-.1h.1l.1-.1.3-.5.1-.3h.7v-.4l.2-.3v-.2l.3-.2.2-.1.2-.2.2-.3h.2v-.1h.4l.1.2v-.3h.3v.2h.3v.2l.2-.2h.1l-.1-.3v-.3l.2-.2v-.5l.5-.1v-.6h-14.2zm7.7-3.8h.2v.2h-.2zm-.2-.1v.1h-.2zm-.2-.3v.2zm.2-.2v.1zm-.6-.3.4.1v.1l-.1.1h-.1zm-3.1-.9v-.3l.1-.1h.1l.3-.2v-.1h.6v-.2h.1v.2h-.2.7v.3l-.2.1h-1v.2h-.2zm-3.8-36.9h34.9v-34.9h-35zm0 0" style=""/><path d="m352.3 209.3h34.9v-35h-35zm0 0" style=""/><path d="m352.3 174.4h34.9v-34.9h-35zm0-34.9h34.9v-34.9h-35zm34.9 34.9h34.8v-34.9h-34.8zm34.8 0h35v-34.9h-35zm0-34.9h35v-34.9h-35zm-34.8 0h34.8v-34.9h-34.8zm0-34.9h34.8v-34.8h-34.8zm34.8 0h35v-34.8h-35zm-69.7 0h34.9v-34.8h-35zm0 0" style=""/><path d="m317.4 139.5h34.9v-34.9h-34.9zm0 34.9h34.9v-34.9h-34.9zm0 0" style=""/><path d="m282.5 174.4h35v-34.9h-35.1zm0-34.9h35v-34.9h-35.1zm0 0" style=""/><path d="m247.7 139.5h34.9v-34.9h-35zm0 34.9h34.9v-34.9h-35zm0 0" style=""/><path d="m212.8 174.4h34.9v-34.9h-34.9zm0-34.9h34.9v-34.9h-34.9zm0-34.9h34.9v-34.8h-34.9zm0 0" style=""/><path d="m247.7 104.6h34.9v-34.8h-35zm-69.7 104.7h34.7v-35h-34.7zm0 69.7h34.7v-34.9h-34.7zm0 0" style=""/><path d="m178 244.1h34.7v-34.9h-34.7zm34.8 34.9h34.9v-34.9h-34.9zm0 0" style=""/><path d="m247.7 279h34.9v-34.9h-35zm0-34.9h34.9v-34.9h-35zm0 0" style=""/><path d="m212.8 244.1h34.9v-34.9h-34.9zm0 0" style=""/><path d="m212.8 209.3h34.9v-35h-34.9zm0 0" style=""/><path d="m247.7 209.3h34.9v-35h-35zm0 0" style=""/><path d="m282.5 209.3h35v-35h-35.1zm0 0" style=""/><path d="m317.4 209.3h34.9v-35h-34.9zm0 0" style=""/><path d="m317.4 244.1h34.9v-34.9h-34.9zm0 0" style=""/><path d="m282.5 244.1h35v-34.9h-35.1zm0 34.9h35v-34.9h-35.1zm0 0" style=""/><path d="m317.4 279h34.9v-34.9h-34.9zm0 34.9h10.7l.3-.2v-.1l.3-.2v-.2l.1-.1.6-.3h.4v1.2h22.6v-17.5h-.7l-.4.1h-.4l-.4.3v.2h-.5v.1l-.4.1v.2h.2v.4-.1h-.3l-.3-.3-.2.2h.4l.2.3h.1v.3h-.4v.4l-.1.3.4.6.1.4-.3-.6-.4-.4v-.3l-.4-.8v.8l-.3.3h-.2l-.2.3v.2-.1h-.2l-.1.5h-.8v.1l-.2.2-.1.2h-.1l-.1.1h-.4v.3h-.2l-.3.2v-.2l-.4.2h-.3l-.4.3h-.3v-.1h-.4l.2-.2-.1-.2v-.2l-.1-.2h-.2l-.1-.4h-.1v-.4l-.4-.4v-.5h-.2v-.1l.2-.4h.2v-.2h-.3v-.2.3h-.3v-.4h-.3v-.5h.3v-.1l-.2-.1h-.1v-.3l.2.1h.3v-.5h.3l.1.1h.1v-.3h.3v-.1h.1v-.4h.1v-.4h-.1v-.4h.3v-.3h.1v-.2h-.2v-.9h.1l.3.6h.1l-.1-.4h-.1v-.4h-.3v-.2h-.1v-.5h-.2.4l.2-.2h.2v.5h.3v-.2l.1-.1v-.8l.2-.1v-.2h.4v-.4l.1.3h.2v-.3h.2v-.3l.1.3h.2v-.6l.1.2.2-.4v.4h.3v-.2h.2l.2-.3v-.3h.3l.5-.1v-.3l.5-.2v-.2l.3-.2v.2h.5l.2-.5v-.5h.2l.1.2h.4v-.3l.3-.4.2-.5v.4h.3l.1-.3.1-.3.3-.1.6-.1h.4v-7.6h-34.9zm20.2-15.4.2-.4-.3-.1h-.2l-.3.2v.5h-.2v-.1h-.1l.1-.2v-.1h-.3.3l-.1-.2h-.2l-.1.1v-.3h.2v.1-.3h.2-.3v-.2h-.2v.2l-.6.1-.1.2h-.1v-.3l.2-.1.3-.1v-.1h.5v-.1h.5l-.1.5.1.1h.3v-.2.3h.7v-.4h.2v.4l.2-.2v.2h-.2.2v.2l.1.1v.1l-.1.2h-.4v-.1h-.5zm6-4.3v-.3.1zm-3.9 6.8h.3v.2h.2l.3.5.3.3v-.5h.2l.4 1.1-.3-.2v-.1h-.1v-.3h-.3l-.4-.5.4.9v.3l-.3.1h-.4v-.3l.3-.2h-.5l.2-.3h-.3v-.4h.1v-.2h-.3v-.2h.4-.2zm-.7 0v-.3h.3l-.2-.1h.4l.3.2-.3.4v-.2h-.4v-.2h-.1zm-5.4-2h.1l.3.4v-.2l-.3-.2h.9l.1.3v.1h.2l.1.3h.1l.2.3h-.2v.2l.3.2h-.2v.6l-.1.2.2.1-.1.1-.2.1-.3-.4v-.1h-.2v-.3h.1l.3-.2-.3-.3v-.2h-.6l-.1-.3v-.1l-.2-.1zm8 1.1h.3v.1zm-4.6-.7v-.4h.7-.3v.4zm-.2-.3v-.3h.2v.1zm-3.5-.3.3.1h-.3zm0 0" style=""/><path d="m282.5 313.9h35v-35h-35.1zm0 0" style=""/><path d="m247.7 313.9h34.9v-35h-35zm0 0" style=""/><path d="m212.8 313.9h34.9v-35h-34.9zm-34.8 0h34.7v-35h-34.7zm209.2-313.9h34.8v-34.9h-34.8zm0 34.9h34.8v-34.9h-34.8zm0 0" style=""/><path d="m387.2 69.8h34.8v-35h-34.8zm-34.9 0h34.9v-35h-35zm0 0" style=""/><path d="m317.4 69.8h34.9v-35h-34.9zm0 0" style=""/><path d="m282.5 69.8h35v-35h-35.1zm0 34.8h35v-34.8h-35.1zm0 0" style=""/><path d="m317.4 104.6h34.9v-34.8h-34.9zm-69.7-34.8h34.9v-35h-35zm0 0" style=""/><path d="m212.8 69.8h34.9v-35h-34.9zm-34.8 34.8h34.7v-34.8h-34.7zm0-34.8h34.7v-35h-34.7zm-35 0h35v-35h-35zm-34.8 0h34.8v-35h-35zm0 34.8h34.8v-34.8h-35zm34.8 0h35v-34.8h-35zm0 34.9h35v-34.9h-35zm-34.8 0h34.8v-34.9h-35zm0 34.9h34.8v-34.9h-35zm34.8 0h35v-34.9h-35zm35 0h34.7v-34.9h-34.7zm0-34.9h34.7v-34.9h-34.7zm0 0" style=""/><path d="m73.3 69.8h34.9v-35h-34.9zm0 0" style=""/><path d="m38.4 69.8h35v-35h-35.1zm0 0" style=""/><path d="m3.6 69.8h34.8v-35h-34.8zm-34.9 0h34.9v-35h-35zm0 34.8h34.9v-34.8h-35zm0 34.9h34.9v-34.9h-35zm174.3 69.8h35v-35h-35zm-34.8 0h34.8v-35h-35zm0 0" style=""/><path d="m143 244.1h35v-34.9h-35zm-34.8 0h34.8v-34.9h-35zm0 34.9h34.8v-34.9h-35zm34.8 0h35v-34.9h-35zm0 0" style=""/><path d="m143 313.9h35v-35h-35zm-34.8 0h34.8v-35h-35zm0 0" style=""/><path d="m73.3 313.9h34.9v-35h-34.9zm0 0" style=""/><path d="m38.4 313.9h35v-35h-35.1zm0 0" style=""/><path d="m3.6 313.9h34.8v-35h-34.8zm-34.9 0h34.9v-35h-35zm0-104.6h34.9v-35h-35zm0 0" style=""/><path d="m-31.3 244.1h34.9v-34.9h-35zm0 34.9h34.9v-34.9h-35zm34.9 0h34.8v-34.9h-34.8zm0-34.9h34.8v-34.9h-34.8zm0 0" style=""/><path d="m38.4 279h35v-34.9h-35.1zm0 0" style=""/><path d="m73.3 279h34.9v-34.9h-34.9zm0-34.9h34.9v-34.9h-34.9zm0 0" style=""/><path d="m38.4 244.1h35v-34.9h-35.1zm0 0" style=""/><path d="m73.3 209.3h34.9v-35h-34.9zm0 0" style=""/><path d="m38.4 209.3h35v-35h-35.1zm0 0" style=""/><path d="m3.6 209.3h34.8v-35h-34.8zm0 0" style=""/><path d="m3.6 174.4h34.8v-34.9h-34.8zm0-34.9h34.8v-34.9h-34.8zm0 0" style=""/><path d="m38.4 174.4h35v-34.9h-35.1zm0 0" style=""/><path d="m73.3 174.4h34.9v-34.9h-34.9zm0-34.9h34.9v-34.9h-34.9zm0 0" style=""/><path d="m38.4 139.5h35v-34.9h-35.1zm0-34.9h35v-34.8h-35.1zm0 0" style=""/><path d="m73.3 104.6h34.9v-34.8h-34.9zm-69.7 0h34.8v-34.8h-34.8zm-34.9 69.8h34.9v-34.9h-35zm0 0" style=""/></g><g style="fill:none;stroke-linejoin:bevel;clip-path:url(#a);mask:url(#c)"><g style="stroke-width:.4"><path d="m452.3 201.5h-.1l-.2.4-.3.1-.2.2-.3.2-.2.2-.3.2-.2.2h-.3l-.2.3-.7.7-.3.1-.2.2-1 .8-.2.2-.8.6-.2.1-.6.7-.4.2-.2.1-.5.5-.2.2-.3.2-.2.1-.2.3h-.3l-.1.2" style="stroke:#fff"/><path d="m452.3 201.5h-.1l-.2.4-.3.1-.2.2-.3.2-.2.2-.3.2-.2.2h-.3l-.2.3-.7.7-.3.1-.2.2-1 .8-.2.2-.8.6-.2.1-.6.7-.4.2-.2.1-.5.5-.2.2-.3.2-.2.1-.2.3h-.3l-.1.2" style="stroke:#8d618b"/><path d="m443.6 208.5-.1.1-.3.2-.2.2-.2.2-.3.2-.5.4-.2.2-.2.2-.3.2-.2.2-.3.2-.2.2-.2.2-.4.2-.4.4-.2.2-.2.2-.3.2-.2.2-.2.2-.3.2-.2.2-.3.2-.1.2-.3.2-.3.2-.2.2-.2.2-.3.2-.2.2h-.2l-.3.3-.2.2-.4.2v.1" style="stroke:#fff"/><path d="m443.6 208.5-.1.1-.3.2-.2.2-.2.2-.3.2-.5.4-.2.2-.2.2-.3.2-.2.2-.3.2-.2.2-.2.2-.4.2-.4.4-.2.2-.2.2-.3.2-.2.2-.2.2-.3.2-.2.2-.3.2-.1.2-.3.2-.3.2-.2.2-.2.2-.3.2-.2.2h-.2l-.3.3-.2.2-.4.2v.1" style="stroke:#8d618b"/><path d="m416.1 227.3h-.2l-.3.3-2 1.1-.4.3-.7.3-.3.2-.2.1-.6.4-.2.1-.5.3-.3.1-.4.2v.1l-.4.2h-.2l-.4.3-.2.1-.2.2-.3.1-.2.3h-.3l-.3.2-.2.1-.3.2-.2.1-.3.2" style="stroke:#fff"/><path d="m416.1 227.3h-.2l-.3.3-2 1.1-.4.3-.7.3-.3.2-.2.1-.6.4-.2.1-.5.3-.3.1-.4.2v.1l-.4.2h-.2l-.4.3-.2.1-.2.2-.3.1-.2.3h-.3l-.3.2-.2.1-.3.2-.2.1-.3.2" style="stroke:#8d618b"/><path d="m406.4 232.8-.1.1-.3.2-.3.1-.5.3-.2.2-.3.1-.3.2h-.2l-1 .7-.3.3-.8.3-.1.2-.4.1-.2.2-.4.1-.2.2-.2.1-.3.2-.5.3-.2.2-.3.1-.2.2-.3.1-.5.3-.3.2-1 .6" style="stroke:#fff"/><path d="m406.4 232.8-.1.1-.3.2-.3.1-.5.3-.2.2-.3.1-.3.2h-.2l-1 .7-.3.3-.8.3-.1.2-.4.1-.2.2-.4.1-.2.2-.2.1-.3.2-.5.3-.2.2-.3.1-.2.2-.3.1-.5.3-.3.2-1 .6" style="stroke:#8d618b"/><path d="m396.9 238.5h-.1l-1 .6-.4.2-.2.2-.2.1-.3.2-.5.2-.2.2-.3.2-.2.1-.3.2-.2.1-.3.2h-.2l-.3.3-.2.2-.3.1-.2.2-.3.1-.3.2-.2.1-.3.2-.2.1-.3.2-.2.1-.3.2-.2.2-.3.1-.5.3-.2.2-.5.2-.3.2" style="stroke:#fff"/><path d="m396.9 238.5h-.1l-1 .6-.4.2-.2.2-.2.1-.3.2-.5.2-.2.2-.3.2-.2.1-.3.2-.2.1-.3.2h-.2l-.3.3-.2.2-.3.1-.2.2-.3.1-.3.2-.2.1-.3.2-.2.1-.3.2-.2.1-.3.2-.2.2-.3.1-.5.3-.2.2-.5.2-.3.2" style="stroke:#8d618b"/><path d="m425.8 221.8-.1.2-.3.1-.4.1-.4.3-.3.2-.2.1-.6.3-.2.1-.3.2-.3.1-.2.2-.3.1-.5.3-.3.2-.3.1-.5.3-.2.3h-.4l-.2.2-.2.1-.3.1-.3.2-.2.1-.3.3h-.3l-.2.2-.5.3-.3.1-.3.2-.8.4" style="stroke:#fff"/><path d="m425.8 221.8-.1.2-.3.1-.4.1-.4.3-.3.2-.2.1-.6.3-.2.1-.3.2-.3.1-.2.2-.3.1-.5.3-.3.2-.3.1-.5.3-.2.3h-.4l-.2.2-.2.1-.3.1-.3.2-.2.1-.3.3h-.3l-.2.2-.5.3-.3.1-.3.2-.8.4" style="stroke:#8d618b"/><path d="m387.4 244.3h-.2l-.3.4h-.2l-1 .6-.3.2-.3.1-.9.7-.3.1-.5.3-.1.1v6.4" style="stroke:#fff"/><path d="m387.4 244.3h-.2l-.3.4h-.2l-1 .6-.3.2-.3.1-.9.7-.3.1-.5.3-.1.1v6.4" style="stroke:#8d618b"/><path d="m383.3 253.2v11" style="stroke:#fff"/><path d="m383.3 253.2v11" style="stroke:#8d618b"/><path d="m383.3 264.3v11.1" style="stroke:#fff"/><path d="m383.3 264.3v11.1" style="stroke:#8d618b"/><path d="m506.2 162.2-.1.1-.3.2-.6.3-.3.1-.6.3-.3.1-.3.2-.2.1-.3.2-.2.1-.3.2-.2.1-.3.2-.2.1-.3.2-.3.3-.2.1-.3.2-.3.2-.8.5-.3.2-.5.4-.3.2-1 .7-.4.2-.5.4" style="stroke:#fff"/><path d="m506.2 162.2-.1.1-.3.2-.6.3-.3.1-.6.3-.3.1-.3.2-.2.1-.3.2-.2.1-.3.2-.2.1-.3.2-.2.1-.3.2-.3.3-.2.1-.3.2-.3.2-.8.5-.3.2-.5.4-.3.2-1 .7-.4.2-.5.4" style="stroke:#8d618b"/><path d="m496.8 168.1-.2.2-.3.2-.3.2-.2.2-.3.1-.3.2-.2.2-.3.2-.3.2-.2.2-.3.2-.3.2-.2.2-.4.2h-.2l-.2.3-.3.2-.3.2-.2.2-.3.2-.3.1-.2.3-.3.2-.3.1-.2.2-.3.2-.3.2-.2.2-.6.4-.2.2-.3.2-.2.2-.3.1" style="stroke:#fff"/><path d="m496.8 168.1-.2.2-.3.2-.3.2-.2.2-.3.1-.3.2-.2.2-.3.2-.3.2-.2.2-.3.2-.3.2-.2.2-.4.2h-.2l-.2.3-.3.2-.3.2-.2.2-.3.2-.3.1-.2.3-.3.2-.3.1-.2.2-.3.2-.3.2-.2.2-.6.4-.2.2-.3.2-.2.2-.3.1" style="stroke:#8d618b"/><path d="m487.7 174.6-.2.1-.2.3-.3.1-.3.2-.2.2-.3.2-.2.2-.3.1-.3.3-.2.1-1 .8-.4.2-1.3 1-.2.2-.3.1-.5.4-.3.2-.5.4-.2.2-.3.1-.3.3-.2.2-.3.2-.2.1-.3.2-.2.2" style="stroke:#fff"/><path d="m487.7 174.6-.2.1-.2.3-.3.1-.3.2-.2.2-.3.2-.2.2-.3.1-.3.3-.2.1-1 .8-.4.2-1.3 1-.2.2-.3.1-.5.4-.3.2-.5.4-.2.2-.3.1-.3.3-.2.2-.3.2-.2.1-.3.2-.2.2" style="stroke:#8d618b"/><path d="m478.7 181.2-.4.2-.3.2-.9.8-.3.2-.2.2-.6.4-.2.1-.3.2-.2.2-.8.6-.2.2-.6.4-.2.1-.3.3-.2.2-.3.2-.2.1-.3.2-.2.2-.3.2-.3.2-.2.2-.3.2-.2.2-.3.2-.2.2-.3.2" style="stroke:#fff"/><path d="m478.7 181.2-.4.2-.3.2-.9.8-.3.2-.2.2-.6.4-.2.1-.3.2-.2.2-.8.6-.2.2-.6.4-.2.1-.3.3-.2.2-.3.2-.2.1-.3.2-.2.2-.3.2-.3.2-.2.2-.3.2-.2.2-.3.2-.2.2-.3.2" style="stroke:#8d618b"/><path d="m383.3 275.4v11.2" style="stroke:#fff"/><path d="m383.3 275.4v11.2" style="stroke:#8d618b"/><path d="m383.3 282v-11.3" style="stroke:#fff"/><path d="m383.3 282v-11.3" style="stroke:#8d618b"/><path d="m383.3 270.8v-11.2" style="stroke:#fff"/><path d="m383.3 270.8v-11.2" style="stroke:#8d618b"/><path d="m383.3 259.6v-11.1" style="stroke:#fff"/><path d="m383.3 259.6v-11.1" style="stroke:#8d618b"/><path d="m469.8 187.8-.1.2-.3.2-.2.2-.3.2-.3.1-.2.3-.4.1v.2l-.4.2-.2.2-.4.3v.1l-.4.2-.2.2-.4.2v.2l-.4.1-.2.3-.4.2v.1l-.4.2-.2.2-.4.2-.1.2-.3.2-.5.4-.3.2-.7.6-.3.2-.7.6h-.1" style="stroke:#fff"/><path d="m469.8 187.8-.1.2-.3.2-.2.2-.3.2-.3.1-.2.3-.4.1v.2l-.4.2-.2.2-.4.3v.1l-.4.2-.2.2-.4.2v.2l-.4.1-.2.3-.4.2v.1l-.4.2-.2.2-.4.2-.1.2-.3.2-.5.4-.3.2-.7.6-.3.2-.7.6h-.1" style="stroke:#8d618b"/><path d="m356.5 264-7.5 5h-.3l-.2.3-.2.1-.2.1-.8.7" style="stroke:#fff"/><path d="m356.5 264-7.5 5h-.3l-.2.3-.2.1-.2.1-.8.7" style="stroke:#8d618b"/><path d="m383.3 248.5v-1.7h-.1l-8 5.2" style="stroke:#fff"/><path d="m383.3 248.5v-1.7h-.1l-8 5.2" style="stroke:#8d618b"/><path d="m375.3 252-8.4 5.4-.9.6" style="stroke:#fff"/><path d="m375.3 252-8.4 5.4-.9.6" style="stroke:#8d618b"/><path d="m366 258-9.6 6" style="stroke:#fff"/><path d="m366 258-9.6 6" style="stroke:#8d618b"/><path d="m347.3 270.2-2.8 2.2-.4.3-.1.1-.2.2-4.9 4.6" style="stroke:#fff"/><path d="m347.3 270.2-2.8 2.2-.4.3-.1.1-.2.2-4.9 4.6" style="stroke:#8d618b"/><path d="m339 277.6-1.9 1.6-7.5 4.4" style="stroke:#fff"/><path d="m339 277.6-1.9 1.6-7.5 4.4" style="stroke:#8d618b"/><path d="m461 194.6-.2.2-.2.1-.2.2-.5.4-.3.2-.2.3-.4.1v.2l-.6.4-.4.2v.2l-.6.4-.4.2-.4.3-.2.3-1.5 1.1-.2.2-.3.2-.2.2-1.3 1-.2.2-.3.2-.1.1" style="stroke:#fff"/><path d="m461 194.6-.2.2-.2.1-.2.2-.5.4-.3.2-.2.3-.4.1v.2l-.6.4-.4.2v.2l-.6.4-.4.2-.4.3-.2.3-1.5 1.1-.2.2-.3.2-.2.2-1.3 1-.2.2-.3.2-.1.1" style="stroke:#8d618b"/><path d="m435 215.6v.1l-.4.3-.2.1-.2.2-.2.2-.3.2-.2.3-.2.1-.3.2-.2.2-.5.5-.2.1-.2.2-.3.2-.2.2-.3.3h-.1l-.5.3-.3.1-.3.2-.2.1-.3.3h-.4v.2l-.4.1-.3.2-.2.1-.3.2-.3.1-.2.1-.3.2-.3.1-.2.2-.3.1-.3.2" style="stroke:#fff"/><path d="m435 215.6v.1l-.4.3-.2.1-.2.2-.2.2-.3.2-.2.3-.2.1-.3.2-.2.2-.5.5-.2.1-.2.2-.3.2-.2.2-.3.3h-.1l-.5.3-.3.1-.3.2-.2.1-.3.3h-.4v.2l-.4.1-.3.2-.2.1-.3.2-.3.1-.2.1-.3.2-.3.1-.2.2-.3.1-.3.2" style="stroke:#8d618b"/></g><path d="m468.6 188.8-.2.1-.4.2v.2l-.4.2-.2.2-.4.3v.1l-.4.2-.2.2-.4.2v.2l-.4.1-.2.3-.4.2v.1l-.4.2-.2.2-.4.2-.1.2-.3.2-.5.4-.3.2-.7.6-.3.2-.7.6-.3.2-.2.1-.2.2-.5.4" style="stroke:#fff;stroke-width:1.2"/><path d="m468.6 188.8-.2.1-.4.2v.2l-.4.2-.2.2-.4.3v.1l-.4.2-.2.2-.4.2v.2l-.4.1-.2.3-.4.2v.1l-.4.2-.2.2-.4.2-.1.2-.3.2-.5.4-.3.2-.7.6-.3.2-.7.6-.3.2-.2.1-.2.2-.5.4" style="stroke:#8d618b;stroke-width:1.2"/><path d="m442.4 209.5-.1.1-.3.2-.2.2-.2.2-.3.2-.2.2-.3.2-.2.2-.2.2-.4.2-.4.4-.2.2-.2.2-.3.2-.2.2-.2.2-.3.2-.2.2-.3.2-.1.2-.3.2-.3.2-.2.2-.2.2-.3.2-.2.2h-.2l-.3.3-.2.2-.4.2v.2l-.3.3-.3.1-.2.2-.2.2-.1.1" style="stroke:#fff;stroke-width:1.2"/><path d="m442.4 209.5-.1.1-.3.2-.2.2-.2.2-.3.2-.2.2-.3.2-.2.2-.2.2-.4.2-.4.4-.2.2-.2.2-.3.2-.2.2-.2.2-.3.2-.2.2-.3.2-.1.2-.3.2-.3.2-.2.2-.2.2-.3.2-.2.2h-.2l-.3.3-.2.2-.4.2v.2l-.3.3-.3.1-.2.2-.2.2-.1.1" style="stroke:#8d618b;stroke-width:1.2"/><path d="m433.9 216.6-.2.1-.2.3-.2.1-.3.2-.2.2-.5.5-.2.1-.2.2-.3.2-.2.2-.3.3h-.1l-.5.3-.3.1-.3.2-.2.1-.3.3h-.4v.2l-.4.1-.3.2-.2.1-.3.2-.3.1-.2.1-.3.2-.3.1-.2.2-.3.1-.3.2-.2.1-.3.2-.4.1-.4.3h-.1" style="stroke:#fff;stroke-width:1.2"/><path d="m433.9 216.6-.2.1-.2.3-.2.1-.3.2-.2.2-.5.5-.2.1-.2.2-.3.2-.2.2-.3.3h-.1l-.5.3-.3.1-.3.2-.2.1-.3.3h-.4v.2l-.4.1-.3.2-.2.1-.3.2-.3.1-.2.1-.3.2-.3.1-.2.2-.3.1-.3.2-.2.1-.3.2-.4.1-.4.3h-.1" style="stroke:#8d618b;stroke-width:1.2"/><path d="m459.8 195.6-.2.1-.2.3-.4.1v.2l-.6.4-.4.2v.2l-.6.4-.4.2-.4.3-.2.3-1.5 1.1-.2.2-.3.2-.2.2-1.3 1-.2.2-.7.6-.3.2-.2.2-.3.2h-.1" style="stroke:#fff;stroke-width:1.2"/><path d="m459.8 195.6-.2.1-.2.3-.4.1v.2l-.6.4-.4.2v.2l-.6.4-.4.2-.4.3-.2.3-1.5 1.1-.2.2-.3.2-.2.2-1.3 1-.2.2-.7.6-.3.2-.2.2-.3.2h-.1" style="stroke:#8d618b;stroke-width:1.2"/><path d="m451 202.5-.3.4-.2.1h-.3l-.2.3-.7.7-.3.1-.2.2-1 .8-.2.2-.8.6-.2.1-.6.7-.4.2-.2.1-.5.5-.2.2-.3.2-.2.1-.2.3h-.3l-.2.3-.3.2-.2.2-.2.2-.3.2v.1" style="stroke:#fff;stroke-width:1.2"/><path d="m451 202.5-.3.4-.2.1h-.3l-.2.3-.7.7-.3.1-.2.2-1 .8-.2.2-.8.6-.2.1-.6.7-.4.2-.2.1-.5.5-.2.2-.3.2-.2.1-.2.3h-.3l-.2.3-.3.2-.2.2-.2.2-.3.2v.1" style="stroke:#8d618b;stroke-width:1.2"/><path d="m386 245v.3h-.4l-.2.2-.3.1-.9.7-.3.1-.5.3-.1.1h-.1l-6.5 4.4" style="stroke:#fff;stroke-width:1.2"/><path d="m386 245v.3h-.4l-.2.2-.3.1-.9.7-.3.1-.5.3-.1.1h-.1l-6.5 4.4" style="stroke:#8d618b;stroke-width:1.2"/><path d="m376.7 251-9.4 6.2" style="stroke:#fff;stroke-width:1.2"/><path d="m376.7 251-9.4 6.2" style="stroke:#8d618b;stroke-width:1.2"/><path d="m367.3 257.1-.3.3-9 5.6" style="stroke:#fff;stroke-width:1.2"/><path d="m367.3 257.1-.3.3-9 5.6" style="stroke:#8d618b;stroke-width:1.2"/><path d="m358 263.1-9 5.9-.4.1" style="stroke:#fff;stroke-width:1.2"/><path d="m358 263.1-9 5.9-.4.1" style="stroke:#8d618b;stroke-width:1.2"/><path d="m348.6 269.2-.4.2-.1.1-3.6 2.9-.4.3-.1.1-.2.2-3.6 3.4" style="stroke:#fff;stroke-width:1.2"/><path d="m348.6 269.2-.4.2-.1.1-3.6 2.9-.4.3-.1.1-.2.2-3.6 3.4" style="stroke:#8d618b;stroke-width:1.2"/><path d="m340.2 276.4-3 2.8-6.1 3.6" style="stroke:#fff;stroke-width:1.2"/><path d="m340.2 276.4-3 2.8-6.1 3.6" style="stroke:#8d618b;stroke-width:1.2"/><path d="m424.5 222.6h-.2l-.2.3-.6.2-.2.1-.3.2-.3.1-.2.2-.3.1-.5.3-.3.2-.3.1-.5.3-.2.3h-.4l-.2.2-.2.1-.3.1-.3.2-.2.1-.3.3h-.3l-.2.2-.5.3-.3.1-.3.2-.8.4-.1.2-.4.1-.8.5" style="stroke:#fff;stroke-width:1.2"/><path d="m424.5 222.6h-.2l-.2.3-.6.2-.2.1-.3.2-.3.1-.2.2-.3.1-.5.3-.3.2-.3.1-.5.3-.2.3h-.4l-.2.2-.2.1-.3.1-.3.2-.2.1-.3.3h-.3l-.2.2-.5.3-.3.1-.3.2-.8.4-.1.2-.4.1-.8.5" style="stroke:#8d618b;stroke-width:1.2"/><path d="m414.8 228-.2.1-1 .6-.4.3-.7.3-.3.2-.2.1-.6.4-.2.1-.5.3-.3.1-.4.2v.1l-.4.2h-.2l-.4.3-.2.1-.2.2-.3.1-.2.3h-.3l-.3.2-.2.1-.3.2-.2.1-.3.2-.5.2-.3.2-.5.3" style="stroke:#fff;stroke-width:1.2"/><path d="m414.8 228-.2.1-1 .6-.4.3-.7.3-.3.2-.2.1-.6.4-.2.1-.5.3-.3.1-.4.2v.1l-.4.2h-.2l-.4.3-.2.1-.2.2-.3.1-.2.3h-.3l-.3.2-.2.1-.3.2-.2.1-.3.2-.5.2-.3.2-.5.3" style="stroke:#8d618b;stroke-width:1.2"/><path d="m405.1 233.6h-.1l-.3.3-.3.1h-.2l-1 .7-.3.3-.8.3-.1.2-.4.1-.2.2-.4.1-.2.2-.2.1-.3.2-.5.3-.2.2-.3.1-.2.2-.3.1-.5.3-.3.2-1 .6-.2.1-1 .6-.2.2" style="stroke:#fff;stroke-width:1.2"/><path d="m405.1 233.6h-.1l-.3.3-.3.1h-.2l-1 .7-.3.3-.8.3-.1.2-.4.1-.2.2-.4.1-.2.2-.2.1-.3.2-.5.3-.2.2-.3.1-.2.2-.3.1-.5.3-.3.2-1 .6-.2.1-1 .6-.2.2" style="stroke:#8d618b;stroke-width:1.2"/><path d="m395.6 239.3h-.1l-.3.2-.2.1-.3.2-.5.2-.2.2-.3.2-.2.1-.3.2-.2.1-.3.2h-.2l-.3.3-.2.2-.3.1-.2.2-.3.1-.3.2-.2.1-.3.2-.2.1-.3.2-.2.1-.3.2-.2.2-.3.1-.5.3-.2.2-.5.2-.3.2-.4.4-.3.1-.5.3h-.2" style="stroke:#fff;stroke-width:1.2"/><path d="m395.6 239.3h-.1l-.3.2-.2.1-.3.2-.5.2-.2.2-.3.2-.2.1-.3.2-.2.1-.3.2h-.2l-.3.3-.2.2-.3.1-.2.2-.3.1-.3.2-.2.1-.3.2-.2.1-.3.2-.2.1-.3.2-.2.2-.3.1-.5.3-.2.2-.5.2-.3.2-.4.4-.3.1-.5.3h-.2" style="stroke:#8d618b;stroke-width:1.2"/><path d="m504.9 163h-.3l-.3.3h-.3l-.3.2-.2.1-.3.2-.2.1-.3.2-.2.1-.3.2-.2.1-.3.2-.3.3-.2.1-.3.2-.3.2-.8.5-.3.2-.5.4-.3.2-1 .7-.4.2-.5.4-.2.2-.3.2-.3.2-.2.2-.2.1" style="stroke:#fff;stroke-width:1.2"/><path d="m504.9 163h-.3l-.3.3h-.3l-.3.2-.2.1-.3.2-.2.1-.3.2-.2.1-.3.2-.2.1-.3.2-.3.3-.2.1-.3.2-.3.2-.8.5-.3.2-.5.4-.3.2-1 .7-.4.2-.5.4-.2.2-.3.2-.3.2-.2.2-.2.1" style="stroke:#8d618b;stroke-width:1.2"/><path d="m495.6 169h-.1l-.3.2-.2.2-.3.2-.3.2-.2.2-.3.2-.3.2-.2.2-.4.2h-.2l-.2.3-.3.2-.3.2-.2.2-.3.2-.3.1-.2.3-.3.2-.3.1-.2.2-.3.2-.3.2-.2.2-.6.4-.2.2-.3.2-.2.2-.3.1-.3.2-.2.3-.3.1-.3.2-.2.2" style="stroke:#fff;stroke-width:1.2"/><path d="m495.6 169h-.1l-.3.2-.2.2-.3.2-.3.2-.2.2-.3.2-.3.2-.2.2-.4.2h-.2l-.2.3-.3.2-.3.2-.2.2-.3.2-.3.1-.2.3-.3.2-.3.1-.2.2-.3.2-.3.2-.2.2-.6.4-.2.2-.3.2-.2.2-.3.1-.3.2-.2.3-.3.1-.3.2-.2.2" style="stroke:#8d618b;stroke-width:1.2"/><path d="m486.5 175.5-.3.2-.2.2-.3.1-.3.3-.2.1-1 .8-.4.2-1.3 1-.2.2-.3.1-.5.4-.3.2-.5.4-.2.2-.3.1-.3.3-.2.2-.3.2-.2.1-.6.4-.2.2-.4.2-.4.4" style="stroke:#fff;stroke-width:1.2"/><path d="m486.5 175.5-.3.2-.2.2-.3.1-.3.3-.2.1-1 .8-.4.2-1.3 1-.2.2-.3.1-.5.4-.3.2-.5.4-.2.2-.3.1-.3.3-.2.2-.3.2-.2.1-.6.4-.2.2-.4.2-.4.4" style="stroke:#8d618b;stroke-width:1.2"/><path d="m477.5 182-.1.3-.4.1-.2.2-.2.2-.6.4-.2.1-.3.2-.2.2-.8.6-.2.2-.6.4-.2.1-.3.3-.2.2-.3.2-.2.1-.3.2-.2.2-.3.2-.3.2-.2.2-.3.2-.2.2-.3.2-.2.2-.5.4-.3.2-.2.2-.3.2-.3.1" style="stroke:#fff;stroke-width:1.2"/><path d="m477.5 182-.1.3-.4.1-.2.2-.2.2-.6.4-.2.1-.3.2-.2.2-.8.6-.2.2-.6.4-.2.1-.3.3-.2.2-.3.2-.2.1-.3.2-.2.2-.3.2-.3.2-.2.2-.3.2-.2.2-.3.2-.2.2-.5.4-.3.2-.2.2-.3.2-.3.1" style="stroke:#8d618b;stroke-width:1.2"/></g></svg>