<svg xmlns="http://www.w3.org/2000/svg" xmlns:xlink="http://www.w3.org/1999/xlink" viewBox="0 0 497 279"> <defs>  <path d="M5.6 3A2.6 2.6 0 1 1 .4 3a2.6 2.6 0 0 1 5.2 0zm0 0" style="fill:#f8f8f5;fill-opacity:1;fill-rule:nonzero;stroke:#7d7d68;stroke-width:.8;stroke-linecap:butt;stroke-linejoin:miter;stroke-miterlimit:4;stroke-opacity:1" id="reuse-0"/>  <path d="M3.8 2C3.8 3 3 3.8 2 3.8A1.7 1.7 0 1 1 3.8 2zm0 0" style="fill:#fdfdfa;fill-opacity:1;fill-rule:nonzero;stroke:#575747;stroke-width:.5;stroke-linecap:butt;stroke-linejoin:miter;stroke-miterlimit:4;stroke-opacity:1" id="reuse-1"/>  <path d="M3.7 2A1.7 1.7 0 1 1 .2 2a1.7 1.7 0 0 1 3.5 0zm0 0" style="fill:#fdfdfa;fill-opacity:1;fill-rule:nonzero;stroke:#575747;stroke-width:.5;stroke-linecap:butt;stroke-linejoin:miter;stroke-miterlimit:4;stroke-opacity:1" id="reuse-2"/>  <path d="M3.7 2A1.7 1.7 0 1 1 .3 2a1.7 1.7 0 0 1 3.4 0zm0 0" style="fill:#fdfdfa;fill-opacity:1;fill-rule:nonzero;stroke:#575747;stroke-width:.5;stroke-linecap:butt;stroke-linejoin:miter;stroke-miterlimit:4;stroke-opacity:1" id="reuse-3"/>  <path d="M3.8 2A1.7 1.7 0 1 1 .3 2a1.7 1.7 0 0 1 3.5 0zm0 0" style="fill:#fdfdfa;fill-opacity:1;fill-rule:nonzero;stroke:#575747;stroke-width:.5;stroke-linecap:butt;stroke-linejoin:miter;stroke-miterlimit:4;stroke-opacity:1" id="reuse-4"/> </defs> <defs overflow="visible" style="stroke:none">  <path id="au" d="M3-7.2c-.3-.4-1-.8-1.7-1l-.3.4c.5.3 1.3.8 1.6 1.1Zm1 .7a4 4 0 0 1-1.3 1.4c.3 0 .6.3.7.4.4-.4.9-1 1.2-1.7ZM2.5-4.6c-.3-.4-1-.8-1.7-1l-.4.5A7 7 0 0 1 2.1-4ZM1.3.6 3-2.6 2.3-3A28.6 28.6 0 0 1 .7.2Zm4.5-7.4h.9V-5h-.9l.2.7 1.1-.1c.2-.1.3-.3.3-.6v-1.8h2.1v-.7H6.6v-.9H6v1H3.2v.5h2v.6C5.2-5.7 5-5 4-4.5c.2 0 .4.3.5.4 1.1-.6 1.3-1.5 1.3-2.1ZM4.2-1.6l.2-.6h4.4v-2.1H3.3v.8h4.8v.7H3.8l-.6 2 .7.3L4-1h4.3c-.1.6-.2 1-.3 1-.2.3-.3.3-.5.3L6.3 0l.2.7h1.3c.3.1.5.1.7-.1.2-.3.4-.8.5-1.9v-.3Zm3.5-4.6c.5.5 1 1 1.3 1.5l.6-.3a7.7 7.7 0 0 0-1.3-1.5Zm0 0"/>  <path d="M1.5-6.6h7V-5h.7v-2.3H5.4v-1h-.8v.9H.8V-5h.7Zm7.8 3.4h-4v-1.5h2.6v-.7H2.2v.7h2.4v1.5H.8v.7h3.7v2.3c.1.2.1.2-.2.2H2.7c.1.2.3.5.3.8 1 0 1.5 0 2-.2.2 0 .4-.3.4-.8v-2.3h3.9ZM3.8-6.4H2.5v-1.9h-.7v1.9H.5v.7h3.3Zm-2 4.3c0-.9-.1-2.2-.4-3.2H.8c.3 1.2.4 2.5.4 3.3Zm1-3.3c0 1.1-.3 2.7-.5 3.7l-1.9.4.2.7L4-1.5V-2H2.8l.7-3.3Zm2.5 4v-.9h2.9v.8Zm2.9-2.1v.6h-3v-.6Zm.7-.5H4.6V.8h.7V-1h2.9v1c0 .1 0 .2-.2.2H7l.2.5h1.4c.2-.2.3-.3.3-.7ZM7-5.2v-.7h2.2v-.5H7v-.7h2.3v-.5H7v-.7h-.7v.7H4.1v.5h2.2v.7h-2v.4h2v.8H3.8v.6h5.8v-.6Zm1.3-1.5-2-1.5-.3.5 1.8 1.4ZM6.5-.2C6-.2 6-.3 6-.7v-.5c1.1-1 2-2 2.8-3.3L8-4.8a9.9 9.9 0 0 1-2 2.7v-3.2h3.3V-6H4.2l.2-2.3h-.8L3.5-6h-3v.7h3C3-2.8 2.3-1.1.4 0l.5.6C3-.7 3.8-2.5 4.2-5.3h1v3.8c-.5.5-1.2.9-2 1.2l.4.6 1.7-1C5.3.3 5.5.5 6.5.5h2c.7 0 .9-.5.9-1.6L9-1.4c-.1 1-.2 1.2-.6 1.2Zm3-6.3V-7H4.8l.4-1.2-.8-.2C4.1-7.2 3.5-6 2.8-5.3l.6.4c.4-.4.7-1 1-1.6ZM3-7.2c-.3-.3-1-.8-1.7-1l-.3.4a7 7 0 0 1 1.6 1.2Zm-.5 2.6c-.3-.4-1-.8-1.7-1l-.4.5c.6.3 1.4.7 1.7 1.1ZM1.3.6l1.5-3.2-.6-.4A28.4 28.4 0 0 1 .7.2Zm5-1.9.2-1.5h1.6L8-1.3ZM6-2.8l-.3 1.5H4.3l.2-1.5ZM6.1-5 6-3.5H4.6l.2-1.4Zm.5 1.5.1-1.4h1.5v1.4Zm3 .7v-.7h-.7v-1.7l.1-.3H4.1l-.1 2H2.9v.7h.9L3.4-.3l.6.1v-.5h4l-.4.7-.3.1H6l.3.6h1.2c.3 0 .5 0 .7-.3.2-.2.3-.5.4-1h1v-.8h-1l.3-1.4ZM7.7-8.1c-.9 1-2.3 2-3.7 2.5l.6.6c1.3-.7 2.8-1.7 3.8-2.8Zm1.7 4.4v-.8H3.3v-3.8h-.8v3.8h-2v.8h2.1v3.1c-.1.4-.3.6-.5.6l.3.7c.2-.2.6-.3 3.3-1a3 3 0 0 1 0-.7l-2.4.6v-3.3h1.5C5.6-1.7 7-.2 9.1.5c.1-.2.3-.6.5-.7a6.2 6.2 0 0 1-4-3.5Zm-4 .5v-2.7h2.8v2.7Zm-3.7 0v-2.7h2.9v2.7Zm3.7-3.4v-1.8h-.8v1.8H1v4.7h.7v-.6h2.9V.8h.8v-3.3h2.8v.6H9v-4.7Zm3.3-1.6c-1.1.4-3.2.6-4.9.7L4-7c1.7 0 3.8-.3 5.1-.7ZM8-4.7l1.1-2-.7-.3a14 14 0 0 1-.8 2Zm-.9-.5c-.1-.4-.3-1-.6-1.6l-.5.2.5 1.6ZM5.3-5a7 7 0 0 0-.7-1.6l-.6.2a8 8 0 0 1 .7 1.6ZM1.7-2.8l2.3-3-.6-.5-.6 1.1-1.5.2A16 16 0 0 0 3-8l-.7-.3A15.7 15.7 0 0 1 .9-5.5L.4-5l.2.8c.1-.1.4-.2 1.7-.3l-1 1.4c-.5.4-.7.6-.9.6l.3.7 3-.8v-.6ZM4-1.4.4-.6l.2.7L4-.8Zm3.8-1.7c-.3.8-.6 1.4-1 1.8l-1.5-.6.7-1.2Zm1.8.1v-.7H6.3l.4-1.1L6-5a14 14 0 0 1-.5 1.3H3.8v.6h1.4c-.2.6-.5 1.1-.8 1.5l1.8.8c-.7.5-1.6.8-2.7 1l.3.6C5.1.5 6.1.1 6.8-.4l2 1.1.4-.5L7.4-1a4.8 4.8 0 0 0 1-2.1ZM6.7-4.4c0 .7.3.9 1 .9h.7c.9 0 1.1-.3 1.1-1.3L9-5.1c0 .8 0 1-.5 1h-.8c-.2.1-.3.1-.3-.4v-1c.6-.5 1.4-1 1.9-1.7l-.5-.5-1.4 1.4v-2h-.7v2.6L5.4-5l.4.5.9-.5ZM4.5-3.3h.7v-3.4l.6-1.5-.6-.2c-.4 1.2-1 2.4-1.8 3l.4.7a6 6 0 0 0 .7-.8Zm-.8-.4L2.5-5.3v-.5h1.1v-.7H2.5v-1.9h-.7v2H.5v.6h1.3C1.5-4.5.8-2.9.3-2l.4.7c.3-.6.8-1.5 1.1-2.6V.8h.7v-5.3L3.3-3Zm3.3.4H6v1H3.7v.6H6V.8h1v-2.5h2.5v-.6H7Zm2-3.4H4v.8h5ZM3-8.3a11 11 0 0 1-2.6 4l.4.8c.4-.5.8-.8 1-1.3V.7h.9v-6.5c.3-.8.7-1.6.9-2.3Zm.3 7.6V0h6.2v-.7Zm6.1-7.1H4.1v.7h5.3ZM5.2-3.5h3V-2h-3Zm0-2h3V-4h-3Zm3.7 4V-6H4.5v4.6ZM4-3.4a36.9 36.9 0 0 0-1.4-1.9v-.5h1.1v-.7h-.9v-1.9H2v2H.5v.6H2C1.6-4.5 1-2.9.3-2l.4.7C1.2-1.9 1.7-3 2-4V.8h.7v-5.2L3.4-3ZM3.6-.5v.9h5.9v-.8ZM3.5-3l-1-1.8v-.7h.9v-.7h-1v-2.2h-.7v2.2H.5v.7h1.2C1.5-4.2 1-2.5.3-1.8l.4.6c.4-.6.8-1.6 1-2.6V.7h.8v-4.5l.6 1.3Zm1-3.8 1.9-1.1-.7-.5c-.3.4-.9.8-1.5 1.1l-.4-.1v5.3l-.8.2.3.7 2-.6C5-1 4.4-.2 3.5.3l.5.5C6-.4 6-2.3 6-3.8v-2.8h-.4v2.8l-.2 1.3c-.4 0-.7.2-1 .3Zm4.7-.6H6.8V.8h.7v-7.6h1.1v5l-.1.1h-.8l.2.7c.5 0 .9 0 1.1-.2.2-.1.3-.3.3-.6ZM3.1-2.7l5.6-.2.3.6.6-.4A9 9 0 0 0 8-4.5l-.7.3.8.7H5.7c.7-.5 1.5-1.1 2-1.7l-.5-.3-1.5 1.3-.7-.5 1-1 .8-.2a6 6 0 0 0-.6-1.3l-.7.2.5 1-.5-.1c-.2.3-.6.8-1 1.1l-.4-.2-.4.5c.5.2 1 .6 1.5 1l-.4.3H3.1Zm4.4-4.5c.5.5 1 1.4 1.3 1.9l.6-.4A10 10 0 0 0 8-7.6Zm.8-1.1c-.9.2-2.4.5-3.8.6l-.4-.1a8 8 0 0 1-1.3 2.2l.7.4a8 8 0 0 0 1-2c1.5.1 3.3-.2 4.5-.5ZM3-7.2c-.3-.4-1-.8-1.6-1l-.4.4c.5.3 1.2.8 1.5 1.1Zm-.5 2.6-1.7-1-.4.5L2.1-4ZM2.2-3C1.7-1.9 1.2-.6.7.2l.6.4a34 34 0 0 0 1.5-3.2Zm7.3 1.7v-.6H6.3l.2-.8h-.8c0 .3 0 .6-.2.8H3v.6h2.3C4.9-.6 4 0 2.5.2c.2.1.3.4.5.6 1.8-.4 2.7-1 3.1-2h.1c.6.9 1.6 1.6 3 1.9l.5-.5C8.4 0 7.4-.5 6.9-1.3Zm-.2-4.2v-.8h-4v-2h-.6v1.9H.6v.9h3.7c-1 1.7-2.4 3.3-4 4l.7.8c1.3-1 2.7-2.5 3.6-4.3v3h-2v1h2.1V.8h.7v-1.9h1.9v-.7h-2V-5c1.1 1.8 2.4 3.3 3.9 4l.5-.4c-1.7-.8-3-2.4-3.9-4.1Zm-6.5 4c1.2.1 3 .5 4 .9l.3-.6a23 23 0 0 0-4-.8Zm1-1.3c.8.2 1.8.5 2.2.8l.4-.5a12.6 12.6 0 0 0-2.3-.7Zm0-2.9h2.6c-.3.4-.8.7-1.3 1a5.2 5.2 0 0 1-1.3-.9ZM7-6.3H4.3l.5-.5-.6-.2A6.7 6.7 0 0 1 2-5l.5.5.9-.7 1 .9c-.7.3-1.6.7-2.5.8l.1.6c1.1-.1 2.1-.6 3.1-1l2.7.9a2 2 0 0 1 .4-.6 10.3 10.3 0 0 1-2.5-.7A6 6 0 0 0 7.5-6Zm-5.4 6v-7h6.8v7ZM.9-8V.8h.7V.3h6.8v.5h.7V-8Zm1.5 4.5V-5H5c0 .6 0 1.1.2 1.5Zm5.5-3.7v1.6H2.4v-1.6Zm1.5 4.4v-.7H6L5.8-5h2.9v-2.9h-7v7.7L.5 0l.2.6L5.5 0v-.8l-3.1.4v-2.4h3C5.8-.8 7 .8 8.3.7 9.3.8 9.5.5 9.7-1c-.3 0-.6-.3-.7-.5C9-.4 8.8 0 8.5 0 7.5 0 6.6-1 6-2.8Zm0 0"/>  <path id="ar" d="M1.6-6.7h6.8v1.4h.8v-2H5.7A6.7 6.7 0 0 0 5-8.4l-.7.2.5.9h-4v2h.8Zm1.6 5.5C2.5-.7 1.5-.2.5.2l.7.5L4-.8ZM6-.7C7-.3 8.2.3 8.9.8l.3-.6-2.8-1.4ZM3-3.5h3.2v1.4H2.9Zm4 1.4v-1.4h1.7v-.7H2.9v-.7c1.8-.2 3.7-.4 5.1-.7l-.4-.6c-1.3.3-3.6.6-5.4.7V-2H.7v.5h8.6V-2Zm0 0"/>  <path id="aq" d="M5-7.3H3.2v-1h-.7v1H.7v.6H5ZM4-5.1l.5-1.4-.7-.2-.5 1.5Zm-1.7-.1-.5-1.5-.6.2c.2.4.4 1 .4 1.4Zm2.5 4L3.2-2.5v-.3h1.9v-.6H3.2v-1h2v-.7H.5v.7h2v1h-2v.6h1.8C1.8-1.8 1-1 .3-.5l.5.5a8.2 8.2 0 0 0 1.7-1.9V.7h.7v-2.5L4.3-.7ZM9.6-5H6.2v-1.8a16 16 0 0 0 3.2-.9l-.6-.5a14 14 0 0 1-2.8.7l-.5-.1V-4c0 1.3-.1 3-1.4 4.3.2 0 .4.4.5.5C6-.6 6.2-2.6 6.2-4v-.3h1.5v5h.7v-5h1.2Zm0 0"/>  <path id="ao" d="M3.2-7.1a8.9 8.9 0 0 0-1.9-1.1l-.3.5c.6.3 1.4.8 2 1.2Zm-.5 2.6a9 9 0 0 0-1.9-1L.5-5a9 9 0 0 1 1.8 1.1Zm0 1.5A30.2 30.2 0 0 1 .6.1l.7.5a35 35 0 0 0 1.8-3.2Zm5.4-3.9C8-5 7.3-3.7 6.5-2.6a12.5 12.5 0 0 1-1.8-4.3Zm.6-.7H3.6v.7H4c.5 2 1 3.6 2 5C5-1 4-.4 2.8 0l.5.9a8.7 8.7 0 0 0 3.1-2.3C7.2-.4 8.1.2 9.2.7l.5-.6a6.9 6.9 0 0 1-2.8-2C8-3.4 8.7-5.2 9-7.6Zm-.1 0"/>  <path id="an" d="M5-5.6H3.1v-1h1.6v-.8H3.1v-.9h-.7v1H1v.6h1.4v1h-2v.7H5Zm3.2-.2c-.2 1.2-.5 2.3-.9 3.2l-1-3.2Zm1.4 0v-.7h-3L7-8.2l-.8-.2C6-6.7 5.5-5 4.7-4h.2H3v-.8h-.6v.9h-2v.6h1.5C1.8-1.8 1.5-.5.4.2l.6.6C1.7.2 2-.7 2.3-1.8H4C4-.6 3.8-.1 3.7 0l-.4.1h-1c.3.1.4.4.4.6h.9c.4 0 .6 0 .8-.2.1-.3.2-1 .3-2.6v-.3H2.5v-.9H5v-.5l.3.3.6-1.2c.3 1 .6 2 1.1 2.8-.8.9-1.6 1.5-2.6 2l.5.7a6.7 6.7 0 0 0 2.3-2C7.8-.2 8.4.4 9.3.9c-.2-.3.1-.6.3-.9-.8-.3-1.4-.9-1.9-1.9.6-.9 1-2.2 1.2-3.9Zm0 0"/>  <path id="am" d="M7.3-8c.4 1.4 1.1 3 1.8 4l.6-.6A12 12 0 0 1 8-8.2Zm-1.8-.2c-.3 1.5-1 2.9-1.7 3.8a4 4 0 0 1 .7.4c.7-1 1.3-2.4 1.7-4ZM4-3a60 60 0 0 0-1.2-1.7v-.8H4v-.7H2.7v-2.2H2v2.2H.5v.7H2C1.6-4.2 1-2.6.3-1.8l.4.8c.5-.8 1-1.8 1.3-3V.8h.8v-4.6l.8 1.4Zm3.3.6a19 19 0 0 1 1 1.8l-2.6.1C6-1.5 6.6-3 7-4.3l-.8-.2c-.3 1.2-.9 3-1.4 4l-1 .2.2.7L8.7 0l.3.8.7-.4c-.3-.8-1-2.1-1.7-3Zm0 0"/>  <path id="al" d="m3.6-4-1.2.2v-1.9h1.2v-.7H2.4v-2h-.7v2H.5v.7h1.2v2.2L.3-3l.2.7 1.2-.4v2.5c0 .2 0 .2-.2.2a9 9 0 0 1-1 0c.3.2.4.5.4.7L2 .6c.3-.1.4-.3.4-.8V-3c.4 0 .9-.2 1.3-.4Zm4 3.7c-.3.1-.3.1-.3-.2v-3.7h2.3v-.7H6.4L6.5-7h2.4v-.8H4v.8h1.8c0 .6 0 1.4-.3 2.1H3.6v.7h2C5.2-2.4 4.5-.7 2.7.3c.3 0 .5.3.6.5 2-1.1 2.7-3 3-5h.2v3.7c0 .8.2 1 1 1h1.2c.7 0 .9-.3 1-1.4-.3-.1-.5-.2-.7-.3 0 .9 0 1-.3 1Zm0 .1"/>  <path id="ak" d="M9.2-6.8 7.7-8.2l-.5.4c.5.4 1.2 1 1.5 1.5Zm-4-1H1.4v.8h3.8Zm-1.3 5h1.8v-.7H3.9V-5h-.7v4.4L2-.4v-3.8h-.6v4h-1l.3.9L6-.4V-1L4-.7Zm5.5-2.5V-6H6.7v-2.3H6V-6H.6v.8H6c.3 3.3 1 6 2.5 6 .7 0 1-.5 1.1-2.2L9-1.8C9-.5 8.8 0 8.6 0 7.6 0 7-2 6.8-5.3Zm0 0"/>  <path id="aj" d="M8.5-8.2A8 8 0 0 1 6-6l.6.4c.9-.4 2-1.4 2.6-2.3Zm.3 2.7C8.2-4.6 7-3.8 6-3.3l.7.6c1-.6 2-1.5 2.7-2.5ZM4.3-7c.1.3-.1.7-.3 1h.2-1.9.3c0-.4-.1-.8-.3-1Zm1.8 1H4.6l.5-1h-.3H6v-.6H3.7v-.8H3v.8H.8v.6H2h-.3L2-6H.5v.6H6ZM1.8-3.2h3.1v.6H1.8Zm0-1.3h3.1v.8H1.8ZM6.2-.8v-.6H3.7V-2h2v-2.9H1V-2h2v.6H.4v.6H3V.8h.7V-.9ZM9-2.6C8.3-1.5 7-.4 5.6.2a3 3 0 0 1 .6.6 8.6 8.6 0 0 0 3.5-3.1Zm0 0"/>  <path id="ai" d="M7.2-6.5H2.8v-.9h4.4Zm0 1.5H2.8v-1h4.4ZM8-8H2v3.6h6ZM2-.3v-1h6v.9ZM8-3v1H2v-1Zm-6.8-.6V.8H2V.3h6v.5h.8v-4.4Zm0 0"/>  <path id="ah" d="M6.6-7h1.5v.7H6.6Zm1.5 2H6.6v-.6h1.5ZM5.9-5H3.8v.8h2.1v.6H3.7v.6H6v.8H3.3v.6h2.6v1h.7v-1h2.7v-.6H6.6V-3H9v-.6H6.6v-.7h2.2v-1.4h.8v-.6h-.8v-1.3H6.6v-.7H6v.7H4v.6h1.9v.7H3.2v.6h2.7ZM3-5H1.7l1.4-2.5-.6-.3H.4v.8H2L.6-4l.7.3.2-.5h1.1A9.5 9.5 0 0 1 2-2a5.8 5.8 0 0 1-.6-1.5l-.6.3c.2.8.6 1.4 1 2A4.3 4.3 0 0 1 .3.2l.6.6C1.4.4 2-.1 2.2-.7 3.3.3 4.7.5 6.5.5h2.8l.3-.7h-3c-1.7 0-3-.2-4-1.1.4-1 .6-2.1.8-3.5Zm0 0"/>  <path id="ag" d="M9.5-6.4V-7H5.7v-1.4h-.8V-7H1.2v2.5c0 1.4 0 3.4-.9 4.8l.7.5C1.8-.7 2-3 2-4.5v-1.9ZM6.2-.3v-3H9V-4H6.2v-2h-.8v2H2.8v.7h2.6v3H2.1v.8h7.4v-.8Zm0 0"/>  <path id="af" d="M8.8-8H8v1.6H5.4v-2h-.8v1.9H2v-1.4h-.7V-6h7.5ZM8-.2H3.3V-2H8ZM9.4-4v-.8H.6v.8h2.6A7.5 7.5 0 0 1 .4-1.1l.4.6A8 8 0 0 0 2.5-2V.8h.8V.4H8v.4h.8v-3.5H3.3L4-4Zm0 0"/>  <path id="ae" d="M3.5-1.8h-.7V-8H2v6.2h-.7v-4.5H.8v6.1h.5v-1h2.2v.6h.6v-5.7h-.6ZM7.3-.4v-2.3h1.4v2.3Zm-2-2.3h1.4v2.3H5.4Zm1.4-2.9v2.2H5.4v-2.2Zm1.9 0v2.2H7.4v-2.2Zm-1.2-.7v-2h-.8v2H4.7v7h.7V.3h3.3v.4h.6v-7Zm-.1 0"/>  <path d="M4-4.5v1.2H2.7v-1.2Zm2.2 1.2H4.7v-1.2h1.5ZM4.7-1.5v-1.3h1.5v1.4Zm-2-1.3H4v1.4H2.7Zm.3-4 .7-1.4-.8-.2c-.5 1.6-1.5 3.1-2.6 4l.7.7L2-5v4.8h.7v-.6h4.2v-4.3H2l.7-1.1h5.7c0 4.1-.2 5.7-.6 6-.1.2-.3.2-.5.2H5.6c.2.2.4.5.4.8h1.6c.4 0 .6-.1.9-.5.4-.5.5-2.1.7-6.8V-7Zm-1.5 0h7v1.1h.7v-1.8H5.6a6.3 6.3 0 0 0-.6-1l-.7.3.4.7h-4v1.8h.9ZM8-1.1V-4H2v2.8h.8v-2.2h4.4v2.3Zm.3-4.7H6.7v-.7H6v.7H4v-.7h-.7v.7H1.8v.6h1.5v.7H4v-.7h2v.7h.7v-.7h1.5Zm-4 3.4c.1.8-.1 2-3.9 2.7l.6.6C4.8 0 5.2-1.3 5.2-2.4v-.8h-.8ZM6.6 0C6 0 6 0 6-.3V-2h-.8v1.7c0 .7.3 1 1.3 1h1.8c1-.1 1.2-.5 1.3-2.1-.2.2-.6.2-.7 0C9-.2 8.8 0 8.3 0Zm0 0"/>  <path id="ac" d="m3.3-2.3-1 .3v-3.3h1v-.5h-1v-2.4h-.7V-6h-1v.8h1v3.4l-1.1.5.2.7 2.7-1ZM8.6-5a10 10 0 0 1-.9 2.5l-.3-3.7h2v-.6h-.5l.4-.4A6 6 0 0 0 8-8.3l-.4.3c.4.3.9.8 1.1 1.2H7.4v-1.6h-.7v1.6h-3v3c0 1.3-.1 3-1.1 4.1l.4.5C4.2-.4 4.4-2.3 4.4-3.7v-.5h1.2l-.1 2.6-.3.1h-.8l.2.5h.9c.2 0 .4 0 .5-.2.2-.2.2-1 .3-3.3v-.3h-2v-1.4h2.5c-.1 1.8.1 3.3.4 4.5a6.7 6.7 0 0 1-2 2c.2-.1.4.2.5.3C6.4.3 7-.3 7.4-.8 7.7 0 8.1.7 8.7.7c.6 0 .9-.5 1-2-.2 0-.4-.2-.7-.4C9.1-.5 9 0 8.8 0c-.3 0-.6-.6-.9-1.6.6-1 1.1-2 1.4-3.3Zm0 0"/>  <path d="M7.5-7h-5v-.4h5Zm0 1.3h-5v-.7h5ZM8.3-8H1.8v2.7h6.5Zm-.1 4.5H6.5v-.8h1.7Zm-2.4 0H4v-.8h1.8Zm-2.4 0H1.8v-.8h1.6Zm5.5-1.3H1.1v1.9h7.8Zm-1.7 3C6.6-1.3 5.9-1 5-.7c-.7-.3-1.5-.7-2-1.1Zm.8-.7H.8v.8h1.5c.4.5 1 .9 1.9 1.3C3-.1 1.6 0 .4 0c.3.3.4.6.4.8C2.3.7 3.8.4 5.1 0A16 16 0 0 0 9 .8l.5-.8C8.3.1 7.1 0 6.1-.4c.9-.4 1.8-1 2.3-1.8Zm-5.4.7C2.2-1.1 1.4-.5.7 0l.6.5a8.7 8.7 0 0 0 2-2Zm6-.6V-3H1.4v.6h3.2V0H3.2l.2.8L5 .7c.3-.1.4-.3.4-.7v-2.4ZM2.9-4.8v.6h4.2v-.6Zm3.6 3.3 2 2L9 0a15.6 15.6 0 0 0-2-2Zm2.8-4.9V-7H4.6l.5-1.3h-.8l-.5 1.1H.7v.8h2.6a7.5 7.5 0 0 1-3 2.5c.2-.1.4.3.5.5a8.3 8.3 0 0 0 3.4-3h1.6c.7 1.2 2 2.4 3.2 3l.7-.8a7.3 7.3 0 0 1-3.2-2.2ZM3-7.2c-.3-.3-1-.8-1.7-1l-.3.4 1.5 1.1Zm-.5 2.6c-.3-.4-1-.7-1.7-1l-.4.5L2.1-4ZM2.1-3C1.7-1.9 1.1-.6.6.2l.7.4 1.4-3.2Zm3 .9A6.2 6.2 0 0 1 3.7-.2c.3 0 .6.3.7.4.6-.5 1-1.4 1.3-2.2Zm.2-2h3.1v.8h-3Zm.1-1.4h3v.8h-3ZM9-2.7V-6H7a21 21 0 0 0 .3-1.1v-.2h2.2v-.6H3.4v2.7c0 1.7-.1 4-1.2 5.5l.6.4C4-.9 4-3.4 4-5.2v-2h2.5l-.2 1H4.7v3.6h1.8V0H5.3l.2.8L6.8.7c.3-.2.4-.4.4-.7v-2.7ZM7.9-2 9 0l.7-.1C9.5-.8 9-1.6 8.5-2.2ZM6.7-5.3v1c0 .5.3.7 1 .7h1c.6.1.8-.2.8-1-.2 0-.4-.2-.5-.4 0 .8-.1.8-.3.8h-1c-.2 0-.3 0-.3-.2v-.8h2V-6H6.5v-1h2.3v-.5H6.5v-.9h-.7v1H3.6v.4h2.2v1.1H3v.7h1.8c-.2.7-.6 1.2-1.9 1.4l.4.8c1.4-.5 2-1.1 2.2-2.2Zm-4-.9c-.3-.4-1-1-1.7-1.5l-.5.5c.6.4 1.5 1.1 1.7 1.5Zm-.5 2.5L.4-.7l.6.5c.6-.8 1.2-2 1.7-3Zm3 1.3h2.3c-.3.5-.7 1-1.2 1.4a4.6 4.6 0 0 1-1.2-1.3ZM8-3H5.7l.5-.6-.7-.4C5-3 4-2.1 2.9-1.5c.2 0 .4.3.6.5a8 8 0 0 0 1.1-.8l1 1C5-.3 4 0 2.7.3l.5.5C4.4.5 5.5.2 6.3-.3c.8.5 1.8.9 2.9 1a3 3 0 0 1 .5-.5 9 9 0 0 1-2.8-.9 4.4 4.4 0 0 0 1.6-2Zm0 0"/>  <path id="ad" d="M2.9-3.9h4.4v1.1H2.9Zm4.4-3.3v1H2.9v-1ZM2.9-5.5h4.4v1H2.9Zm6.5 3.4v-.7H8v-5H2.2v4.9H.6v.8h2.8L2-.6l-.8.3a4 4 0 0 1 .2.9C1.8.3 2.4.3 8 0l.5.8.7-.4a17.3 17.3 0 0 0-2.4-2.3l-.8.2L7.3-.5l-4.8.2a14 14 0 0 0 1.9-1.8Zm0 0"/>  <path d="M2-1.8h2.6V0c0 .1 0 .1-.2.1H2.7l.3.7 2-.1c.2-.1.3-.3.3-.8v-1.6h2.8v-.8H2Zm-1.2 0h.6V-3h7.2v1.3h.7v-2H.8Zm6.5-2.9H2.7v-1.1h4.6ZM2-6.3v2h6v-2Zm3.4-1.2v-1h-.8v1.1h-4v.4h8.8v-.5ZM3-7.2c-.3-.4-1-.8-1.7-1l-.3.4c.5.3 1.2.8 1.6 1.1Zm-.5 2.6c-.3-.4-1-.8-1.7-1l-.4.5A7 7 0 0 1 2-4Zm2.2.9.5-1h2c-.1.3.2.7.4 1Zm.5-2.9h2v1.2H5.1Zm4.4 1.9v-.7H7.8v-1.2h1.5v-.6H7.8v-1.1h-.7v1h-2v-.9h-.5v.9H3v.8h1.5v1.1H2.7v.7h1.8a6.1 6.1 0 0 1-1.8 2L2.3-3A28.5 28.5 0 0 1 .7.2l.6.4 1.5-3L3-2c.6-.4 1-1 1.5-1.5v.4h2.6v1h-3v2c-.1.5.3.9 1.4.9h2.2C8.7.7 9 .4 9-.9L8.3-1c0 1-.1 1-.6 1H5.5c-.5 0-.8 0-.8-.2v-1.2h3.1v-2.1c.4.5 1 1 1.4 1.4l.6-.6c-.8-.4-1.5-1.2-2-2ZM3-2.8c.6-.7.9-1.7 1-2.6l-.8-.1c0 .8-.2 1.8-.7 2.3Zm0-4.4-1.8-1-.4.4 1.7 1.1Zm-.6 2.6a11.8 11.8 0 0 0-1.6-1L.4-5c.6.2 1.3.7 1.7 1ZM1.3.6c.4-.9 1-2 1.3-3.1L2-3 .6.2Zm2.8-5.3C4.1-2.9 4-1 2.8.3l.6.5C4.7-.8 4.8-2.7 4.8-4.7V-8h-.7Zm.9-.5c.2.7.4 1.6.5 2.2l.6-.3a9.5 9.5 0 0 0-.7-2Zm3.4-3v4.7a10.2 10.2 0 0 0-1-2H7V-8h-.8V.5H7v-5.7L8-3l.4-.3v4h.7v-8.8Zm0 0"/>  <path id="at" d="M2.6-2.6A7 7 0 0 1 .7-.1a4 4 0 0 1 .7.5 9.2 9.2 0 0 0 2-2.8Zm6.1-.8v-.7H5.8v-1.5h-.7V-4H2.7l1.4-2.3h5V-7H4.5L5-8l-.8-.5L3.6-7H.8v.7h2.4c-.4.7-.7 1.3-1 1.5-.2.4-.3.7-.6.8a8 8 0 0 1 .2.7l1-.1h2.4v3.1C5 0 5 0 4.9 0H3.6l.4.7c.6 0 1 0 1.4-.2.3 0 .4-.3.4-.8v-3.1Zm-2 1A14 14 0 0 1 8.6.3l.8-.3a14.7 14.7 0 0 0-2.2-2.6Zm-.1.1"/>  <path d="M7-3h1v-5.1H7v1.8H5.2v.6h1.9ZM5.9-4c-1.4-.4-2.3-1.5-2.3-2.8v-1h-.8v1.1c0 1.3-.9 2.5-2.3 2.9L1-3c1-.5 1.8-1.3 2.2-2.3.4.9 1.2 1.6 2.1 2ZM5 0C3.6 0 2.8-.2 2.8-1c0-.6.8-1 2.2-1 1.3 0 2 .4 2 1 .1.7-.7 1-2 1Zm0-2.6C3-2.7 2-2 2-1 2 .1 3 .7 5 .7 6.8.7 8 .1 8-1c0-1-1.2-1.7-3-1.7ZM4.4-4.5l.3-.8h.7a6 6 0 0 0 .3.8ZM8-4v-.5H6.3a4.6 4.6 0 0 1-.4-.8H7v-.4c.3.2.4.5.5.6l.5-.2c-.3-.5-.9-1.1-1.4-1.5l-.4.2.7.8H5l.2-1-.6-.2-.3 1.3H3.2l.6-1.1h-.5A4 4 0 0 1 2-5.4l.5.3.6-.6v.4H4c.1.3 0 .5-.2.8H2v.5h1.4C3-3.5 2.5-3 2-2.7l.3.4 1-.7v1.5c0 .5.3.8 1.2.8h1.8c.7 0 .9-.3 1-1.1L6.7-2c0 .7 0 .8-.4.8H4.5c-.5 0-.5 0-.5-.3V-3h1.8l-.1.7h-1l.3.5h.7c.2 0 .3 0 .3-.2.2-.2.3-.5.3-1.2v-.2H3.7L4-4h2c.4.7 1 1.3 1.7 1.6A2 2 0 0 1 8-3a4 4 0 0 1-1.4-1ZM1.6-.3v-7h6.8v7ZM.8-8V.8h.8V.3h6.8v.5h.8V-8ZM6-6.9 5-5.8H2.4l.9-1Zm1.7 3H5.4V-5h2.3Zm0 2H5.4v-1.5h2.3ZM2.4-4v-1h2.3v1Zm2.3.7V-2H2.4v-1.3Zm-3 2h6.8v-4.5H6a9 9 0 0 0 1-1.5l-.5-.3H3.7l.5-.6-.8-.1A8.5 8.5 0 0 1 .6-5.4l.4.6.7-.4Zm-1 1v.5h8.7v-.6ZM9-6.9a9.8 9.8 0 0 0-1.3-1.4l-.5.4 1.3 1.4Zm-5.7 0-.6.9H1.6a7 7 0 0 0 .6-.8ZM3.7-4H3v-1.2h.7Zm0 1.9H3v-1.3h.7Zm-2-1.8v-1.3h.6V-4Zm.6.5V-2h-.7v-1.4ZM1-5v3.5h3.3v-4.3h-1l.9-1.5-.4-.2H2.4c.1-.3.3-.5.3-.8h-.6A8 8 0 0 1 .5-5.6L1-5Zm3.3 4L.6-.3l.2.5 3.5-.7Zm4-2.7a7.9 7.9 0 0 1-.7 2.1 7.5 7.5 0 0 1-1.1-2.2Zm.5-.8H6.1l.2-1h3.2v-.9H6.3v-1.9h-.5v1.9H4.5v.9h1.1c0 2.1-.4 4.3-1.6 5.6.2-.1.4.3.5.4C5.3-.3 5.8-1.6 6-3a8 8 0 0 0 1 2c-.4.5-.9 1-1.4 1.2.1.1.4.4.4.6A6 6 0 0 0 7.5-.5C8 0 8.5.5 9 .8l.6-.8A4.7 4.7 0 0 1 8-1c.5-1 1-2 1.2-3.3ZM8.2-6v5H5.3v-7.1h-.7v7.2H1.8V-6h-.7V.6h.7v-.8h6.4v.8H9V-6ZM3-5h3.6v2.4H3Zm6.5 2.4H7.4V-5H9v-.7H3v-1.2c1.8-.1 3.8-.4 5.3-.8l-.7-.6c-1.1.3-3 .6-4.8.8l-.6-.2v5H.6v.9h8.9Zm-6 1C2.8-1 1.5-.2.5.2l.7.6a15 15 0 0 0 3-2Zm2.3.5c1 .5 2.4 1.4 3 1.9l.8-.6c-.8-.5-2.1-1.3-3.2-1.8ZM3-6.7A10 10 0 0 0 1.7-8l-.7.3c.6.5 1.3 1.1 1.6 1.7Zm2 2.2v.5h3.1v-.5H6.8v-1h1.1v-.6H6.8V-7h-.6v1h-1v.5h.9v1Zm2.1 2v1H5.7v-1.1Zm.7 1.6v-2.3H5.1v2.8h.6v-.4ZM9.2-8H3.8v3.8c0 1 0 2-.3 3l-.2-.3-.7.4v-4.1H.5v.7h1.4v3.4c0 .5-.4 1.1-.6 1.1l.5.6L3.5-1A5 5 0 0 1 2.8.4c.2 0 .5.2.6.4 1-1.4 1.1-3.5 1.1-5v-3h4v6.9c0 .3 0 .5-.2.5H7.2l.3.4h1.4c.1-.2.3-.4.3-.8ZM4.5-2.1c.5.4 1 1.1 1.2 1.6l.6-.5a7.4 7.4 0 0 0-1.2-1.5Zm5-2.6v-.6H7.1v-1.3H9v-.7H7v-1h-.7v.9H4.4v.8h2v1.3H3.7v.6h3.9v1.2H4.2L4-4l-1.1.3v-2H4v-.6H3v-2h-.7v1.9h-.9l.3-1.3-.7-.1C1-6.6.7-5.3.3-4.5l.7.3.3-1.5h1v2.2L.3-3l.4.7 1.5-.5V.8H3V-3l1-.3v.5h3.7v2.6c-.1.2-.1.2-.3.2H6l.3.8c.8 0 1.3 0 1.6-.2.3 0 .4-.3.4-.8v-2.6h1.2v-.7H8.3v-1.2Zm0 1.2h-4v-2.3h3.4v-.7H5.5v-1.9h-.8v1.9h-2L3-8h-.7C2-6.8 1.3-5.5.6-4.7a5 5 0 0 1 .7.5l1-1.6h2.4v2.3H.6v.8h4.1V.8h.8v-3.5h4ZM9-7H5.3v-1.4h-.7V-7H1V.8h.8v-7.1h2.8v2h.7v-2h3v6.1c-.1.2-.2.2-.3.2H6.6l.2.8c.9 0 1.4 0 1.7-.2.3-.1.5-.3.5-.8Zm-5.9-.2c-.4-.4-1.1-.8-1.8-1l-.3.4c.5.3 1.3.8 1.7 1.1Zm-.4 2.6a8.1 8.1 0 0 0-1.9-1L.4-5c.7.2 1.4.7 1.8 1ZM1.3.6A45 45 0 0 0 3-2.6l-.5-.5A34.2 34.2 0 0 1 .7.2Zm3.4-2.2v-.7h3.4v.7Zm3.4-2v.7H4.7v-.7Zm.7-.6H4v5h.7V-1h3.4v1H6.8l.2.8h1.5c.2-.4.3-.6.3-1ZM6.7-5.3V-6H9v-.5H6.7v-.7h2.5v-.5H6.8v-.7h-.9v.7H3.4v.5H6v.7H3.7v.5h2.2v.7H3.1v.6h6.5v-.6Zm0 0"/>  <path id="aa" d="M2-1v-5.7h6V-1Zm-.6-6.4V.5h.7v-.8h5.8v.8h.8v-7.8Zm-.1.1"/>  <path id="Z" d="M2.6-4.5a19.2 19.2 0 0 0-1.8-1L.3-5a17 17 0 0 1 1.9 1.1ZM1.3.6 3-2.6 2.5-3A25.7 25.7 0 0 1 .6.1ZM6.2-5v2.3H4.4V-5Zm.6 3v-3.6H3.7v4.3h.7V-2Zm2.8-5.7H3v.5a27.1 27.1 0 0 0-1.8-1l-.4.5 1.9 1.1.3-.6v.2h5.1v6.7C8-.1 8 0 7.8 0h-2l.3.7L8.3.6c.4-.1.5-.4.5-1V-7h.8Zm0 0"/>  <path id="Y" d="M6.9-1.2 7-2.8h1.3v1.6Zm-.5-1.6-.2 1.6H5l.1-1.6Zm.2-2.1-.1 1.5H5.2L5.4-5ZM7-3.4 7.2-5h1.3l-.1 1.6Zm2.7.6v-.6H9v-2.2H4.9l-.4 2.2h-.7v.4a31 31 0 0 0-1.2-1.8v-.7h1.1l.6.5.9-1.5h4.3V-7h-4l.4-1.2-.7-.2c-.3 1-.8 2.1-1.4 2.8v-.6H2.6v-2.2H2v2.2H.5v.7H2C1.6-4.2.9-2.5.3-1.8a4 4 0 0 1 .4.8c.5-.8 1-1.8 1.3-3V.8h.6V-4a16 16 0 0 1 .8 1.5l.4-.5v.2h.7L4 0h.8v-.6h3.3c0 .4-.1.6-.1.7l-.4.1h-1l.2.5h1c.3 0 .5 0 .7-.3l.3-1h.7v-.6H9v-1.6Zm0 0"/>  <path id="W" d="M8-.3H3.5v-1.9H8ZM6-6.2h-.8v3.3H3V.8h.6V.4H8v.3h.7v-3.6H6v-1.4h3.3V-5H6ZM5.7-7v-1.4h-.8V-7H1.2v2.5c0 1.4 0 3.4-.9 4.8l.7.5C1.8-.7 2-3 2-4.5v-1.9h7.5V-7Zm0 0"/>  <path id="V" d="M4-6.6a8.8 8.8 0 0 0-1.2-1.7L2-8a9 9 0 0 1 1.3 1.8ZM9-6H6.6L8-8.1l-.8-.3L5.8-6H1v.6h8Zm-.7 3.3v-.7H1.5v.7ZM.6-.5v.8h8.8v-.8Zm0 0"/>  <path id="U" d="M7.3-2.8v1H2.8v-1ZM2.8-.2v-1h4.5v1ZM2 .8h.8V.3h4.5v.4H8v-4H2Zm2.3-7.3h1.3v2H4.3Zm2 2v-2.1H9v-.6H7l.5-1-.5-.2-.8 1.1.3.1h-3 .2c0-.5-.4-1-.7-1.3l-.7.5.7.9H1v.5h2.6v2.1h-3v.5h8.8v-.6ZM1.6-6.3c.4.6.7 1.3.8 1.7L3-5a5.2 5.2 0 0 0-.8-1.4Zm5.8 1.6 1-1.5-.7-.3L7-4.8Zm0 0"/>  <path id="X" d="M9.5-.5H1.7V-7h7.5v-.8H1V.8h.7V.2h7.8ZM8.2-1.9a15.2 15.2 0 0 0-1.9-2l1.4-2.6-.6-.2a14 14 0 0 1-1.6 2.3A27.8 27.8 0 0 0 3.2-6l-.4.5c.7.5 1.5 1 2.3 1.7-.9.8-1.8 1.7-2.8 2.3A7 7 0 0 1 3-1c1-.6 1.8-1.4 2.6-2.3.9.7 1.6 1.3 2 2Zm.1 0"/>  <path d="M9.5-4h-4v-1a15.7 15.7 0 0 0 3.1-2.2L8-7.7H1.5v.7h5.7a13 13 0 0 1-2 1.5h-.7V-4H.6v.8h3.9v3c.1.2.1.2-.1.2H2.6a4 4 0 0 1 .4.8l2-.1c.3-.2.4-.4.4-.9v-3h4.1ZM7.4-2.8v2.4H2.6v-2.4ZM1.8.8h.8V.3h4.8v.4h.8v-4.2H1.8Zm4.4-7.6 1.3 1.2a279 279 0 0 1-4.5.2 26 26 0 0 0 1.7-2.7l-.9-.3c-.4 1-1 2.2-1.6 3H.7v.9l7.5-.4.7.9.6-.4c-.5-.8-1.7-2-2.7-2.8ZM4.7-1a17.3 17.3 0 0 0-1.2-2c.5-1.2.8-2.7 1-4.5L4-7.6H.6v.7h3.1c-.1 1.2-.4 2.2-.7 3.2a26.4 26.4 0 0 0-1.7-2.1l-.5.4L2.7-3C2-1.5 1.3-.5.4.1l.5.8a8.4 8.4 0 0 0 2.3-3.1A15 15 0 0 1 4-.5Zm3.6-6C8.1-5.3 7.6-3.9 7-2.8a14.4 14.4 0 0 1-1-4Zm.4-.6H4.9v.7h.3C5.5-5 5.9-3.4 6.5-2A6.5 6.5 0 0 1 4 .1l.5.7A8 8 0 0 0 7-1.3C7.5-.4 8.2.3 9 .8a3 3 0 0 1 .6-.6C8.6-.3 8-1.1 7.4-2 8.3-3.4 9-5.2 9.2-7.5Zm0 0"/>  <path id="T" d="M1.5-5.4C1.5-6.3 2-7 3-7c.8 0 1.5.7 1.5 1.6S3.8-4 3-4c-1 .1-1.5-.5-1.5-1.4ZM7-6.2v1.5H5l.4-.7-.2-.8ZM7-4v2.4h.9v-6.6h-.8v1.4H4.8c-.4-.5-1-.9-1.8-.9-1.3 0-2.3 1-2.3 2.3 0 1.3 1 2.2 2.3 2.2.8 0 1.4-.3 1.8-.8ZM3-.1v-2.2H2V.5h6.2V0Zm0 0"/>  <path id="S" d="M3.7-6.6h2.1v-.7h-5v.7H3v1.1C3-3.9 2-2.2.5-1.6L1-1c1-.5 2-1.6 2.3-3 .5 1.4 1.3 2.4 2.4 2.9l.3-.8c-1.2-.5-2.3-2-2.3-3.6ZM7-8.2v9h1v-9.1Zm0 0"/>  <path id="R" d="M5.7-4c-1.3-.6-2.2-1.8-2.2-3v-.8h-.8v1c0 1.2-.9 2.4-2.2 2.9l.4.7a3.8 3.8 0 0 0 2.3-2.3c.4 1 1.1 1.7 2.1 2Zm-3 2h4v2h-4ZM1.9.7h5.6v-3.3H1.9Zm7-6.7H7.4v-2.2h-.7V-3h.8v-2.3h1.3Zm-.1 0"/>  <path id="ap" d="M6-2.5h2v.8H6ZM8-5v.8H6V-5ZM6-3.7h2v.7H6Zm-1.6 2v.6h5.2v-.6h-1V-5h.8v-.6h-.8v-.7H8v.7H6.1v-.7h-.7v.7h-.9v.6h1v3.3Zm-.4-3H2.3v-1.5H4l.6.6.7-1.1h4.2v-.6H5.7l.3-.9-.7-.2a5.4 5.4 0 0 1-1 2v-.3H2.8v-1.6h-.7v1.6H.5v.5h1.2v1.9C1.7-3 1.5-1.1.3.3a4 4 0 0 1 .5.5C2.1-.7 2.3-2.5 2.3-4.1h1.1c0 2.8-.1 3.8-.3 4.1 0 .2-.1.2-.3.2h-.7l.2.4h.9c.2.1.4.1.5-.2.3-.4.3-1.5.4-4.8ZM5.9-1C5.5-.6 4.7 0 4 .3l.6.5 2-1.6Zm1.6.3L9 .8l.7-.4L8-1Zm0 0"/>  <path d="M8-2.8v2.4H3.8v-2.4ZM3 .8h.8V.2H8v.6h.7v-4.3H3.1Zm-.7-6.4v-1.2C4.5-7 7-7.3 8.8-7.7L8-8.3c-1.2.4-3.6.7-5.7.8h-.8v2.6c0 1.6 0 3.7-1.2 5.1l.7.7C2.1-1 2.3-3.2 2.3-4.8v-.1h7.3v-.7Zm3.2-1.6c.3.2.8.5 1 .8l.5-.4a5 5 0 0 0-1-.7h2.3v1.6h-.1c-.2.2-.4.2-.8.1a2 2 0 0 1 .2.6h1.1c.3-.4.3-.5.3-.8v-2H5v.5h.8Zm2.3.5L5-6l.2.6A442 442 0 0 1 8-6.2Zm-6.6-.5a6 6 0 0 1 1 .8l.4-.4a6.7 6.7 0 0 0-1-.7h2.2v1.6H3l.2.7h1c.3-.4.3-.5.3-.8v-2H.7v.5h.8Zm2.2.5-2.8.8.4.5a106 106 0 0 0 2.5-.8Zm.4 5h2.4v.5H3.8Zm0-1h2.4v.5H3.8Zm-1.5-1h2.3v.4H2.3Zm0-1.1h2.3v.5H2.3Zm5.4.5H5.3v-.5h2.4Zm0 1.1H5.3v-.6h2.4ZM9.4-.6v-.6H7v-.5h2v-.5H7v-.5h1.4v-2.5H1.6v2.5h1.5v.5H1v.5h2v.5H.7v.6h2.7c-.7.3-1.9.6-3 .9.4 0 .6.4.6.5C2 .5 3.3.1 4.1-.4l-.6-.2h2.8l-.5.3a17 17 0 0 1 3 1l.5-.3A21.5 21.5 0 0 0 6.4-.7Zm-3.1.4v-3H9V-4H3.4A19 19 0 0 0 4-5.8h5.3v-.8H4.2l.3-1.7h-.8a20 20 0 0 1-.3 1.6H.7v.9h2.5c-.5 2-1.4 4-2.9 5.4l.5.6C2-1 2.8-2.3 3.4-4v.8h2.2v3H2.3v.7h7.2v-.7Zm-5 .8 1.4-3.2-.6-.4A30 30 0 0 1 .6.2ZM.4-5a7 7 0 0 1 1.7 1l.4-.5c-.3-.5-1-.9-1.7-1.1ZM1-7.7c.5.2 1.3.7 1.6 1l.4-.4c-.3-.5-1-.9-1.7-1.1ZM7.7-5c.6 1.1 1.1 2.4 1.2 3.3l.8-.3a10.3 10.3 0 0 0-1.3-3Zm-4.2.2c0 1.1-.3 2.3-.8 3.1l.7.4c.5-.9.6-2.2.8-3.4Zm1.3-1.4v5.7C4.8.5 5 .7 5.9.7h1.5c.9 0 1-.5 1.2-2l-.7-.5C8-.3 7.8 0 7.4 0H6c-.4 0-.5-.1-.5-.5v-5.7Zm-.1-1.5c.9.4 2 1.1 2.5 1.7l.5-.7C7.2-7.2 6-7.9 5-8.3Zm-2 3.5C2.2-3 1.4-1.9.6-1.2l.6.5C2-1.5 3-2.7 3.4-4Zm5.7-1.7a6.7 6.7 0 0 1-.8 1.5l.6.2c.5-.5 1-1.5 1.3-2.3l-.6-.2H3l.8-1.4-.8-.3c-.6 1.5-1.6 3-2.6 4L1-4l1.6-2h2.1v5.9c0 .1 0 .1-.2.1H2.9c.1.2.3.5.3.8.9 0 1.5 0 1.8-.2.3-.1.5-.3.5-.8v-5.7ZM6.7-3.8c.8 1 1.6 2.3 2 3.1l.7-.4C9-1.9 8.1-3 7.4-4Zm.4-2.5c-.3-.4-1-1-1.6-1.4l-.5.5c.6.4 1.3.9 1.6 1.4ZM7-3.7A9.2 9.2 0 0 0 5-5l-.4.3a9 9 0 0 1 1.8 1.5ZM4.3-3C4-3.2 3.2-4.3 2.9-4.7v-.2h1.4v-.7H3v-1.6l1.2-.4-.5-.6c-.7.2-2 .6-3.1.8l.2.6 1.4-.3v1.5H.5v.7H2C1.7-3.7 1-2.4.3-1.7c.2.1.3.4.4.6.5-.6 1-1.6 1.5-2.6V.8h.7V-4a19 19 0 0 1 1 1.6Zm5.3 1-.1-.9-1.2.4v-5.9h-.7v6L4.2-2l.1.8 3.3-.5V.8h.7V-2Zm0 0"/>  <path id="Q" d="M3.5-6.7h2.2v3H3.5ZM5-1v-2.1h2.9v-.7H6.5v-2.9H8v-.7H1.2v.7h1.4v3H1.3v.5h2.9v2.1H.5v.8h8.2V-1Zm0 0"/>  <path id="P" d="M7.9-8.2H7v6.5h.9Zm-2 4.4c-1.3-.5-2.2-1.7-2.2-3v-1h-.8v1.1c0 1.3-1 2.6-2.3 3.1l.4.7a4 4 0 0 0 2.3-2.4c.4 1 1.2 1.8 2.2 2.2ZM3 0v-2.3h-.9V.5h6V0Zm0-.1"/>  <path d="M2.7-4.5a13.4 13.4 0 0 0-1.8-1L.5-5l1.8 1ZM1.4.6C2-.3 2.7-1.5 3.2-2.6L2.7-3A33 33 0 0 1 .7.1ZM1-7.7a14 14 0 0 1 1.8 1.2l.4-.6a13.3 13.3 0 0 0-1.8-1.1Zm5.7 7v-5.9H9v-.8H3.7v.7H6v6H3.3v.9h6.2v-.8ZM.9-.5h.7v-6.7H.9ZM2.5.7h.8v-9h-.8Zm3.9-3.8v2.6H5V-3Zm2 2.6H7.2V-3h1.3ZM4.4.8H5V.2h3.5v.5h.7v-4.5h-5ZM8-4.7A21 21 0 0 0 6.3-6l-.5.3L7.5-4ZM5.7-7.2l.3-1-.7-.3C4.9-7 4.3-5.7 3.5-5c.2 0 .5.4.5.5a7.7 7.7 0 0 0 1.3-2h4.2v-.7Zm0 0"/>  <path id="O" d="M9.5-6.3V-7H5.4v-1.4h-.8V-7h-4v.7h3.9v1.4H1.6v4.4h.7v-3.7h2.3v5h.7v-5h2.5v2.8c0 .1 0 .2-.2.2H6l.4.7L8-.6c.5-.2.6-.4.6-.8V-5H5.3v-1.3Zm0 0"/>  <path id="N" d="M1.6-6.6h6.8v1.4h.8v-2.1H5.4v-1h-.8v.9H.9v2.2h.7ZM6.8-4C6.5-2.9 6-2 5.3-1.5A31 31 0 0 0 3-2.3l1-1.6Zm2.5.1v-.7H4.2L5-6l-.8-.2-.8 1.6H.6v.7H3c-.4 1-1 1.9-1.3 2.4l.8.2.2-.4 2 .7c-1 .6-2.3 1-3.9 1a3 3 0 0 1 .5.8C3 .5 4.4 0 5.5-.7 6.7-.2 7.7.3 8.4.8l.5-.6c-.7-.5-1.7-1-2.8-1.4C6.8-2 7.3-2.7 7.6-4Zm.1 0"/>  <path id="M" d="M2.5-4.2h2.3v.7H2.5Zm2.3-1.7H2.5v-.7h2.3Zm0 1.2H2.5v-.7h2.3Zm4.6 3v-.6h-4v-.6h3.7v-.6H5.5v-.7h3v-.5H5.4v-.7h3v-.5H5.5v-.7h3.3v-.6H5.5l.5-1-.7-.2-.6 1.2H2.8l.6-1-.7-.2a9 9 0 0 1-2.4 3c.2 0 .4.3.5.4l1-.8V-3h2.8v.7h-4v.6H4C3-.9 1.6-.3.3 0l.5.7a11.6 11.6 0 0 0 3.8-2V.6h.7v-2C6.3-.5 8 .2 9.2.6c0-.2.3-.6.4-.6C8.4-.3 7-1 6-1.7Zm0 0"/>  <path id="L" d="M3.7-7.5h-.8v1.7C3-4.1 2-2.4.5-1.8l.5.7c1-.6 2-1.7 2.3-3 .4 1.3 1.3 2.3 2.3 2.8l.5-.7c-1.3-.5-2.4-2.2-2.4-3.8ZM7-8.2v9h1v-9Zm0 0"/>  <path id="K" d="M5.8-3.7c-1.4-.5-2.3-1.6-2.3-2.9v-1h-.8v.9C2.7-5.2 2-4 .5-3.5l.4.7C2-3.3 2.8-4.1 3.2-5.1c.4 1 1.1 1.7 2.1 2Zm-3 1.5h-.9V.5H8V0H2.7Zm4.7-3.3v-2.7h-.8v6.6h.8v-3.2h1.3v-.7Zm0 0"/>  <path id="J" d="M5.2-3v.8H7v.8h1v-6.8H7V-3ZM3.4-7.2c.9-.1 1.4.3 1.4.9s-.5 1-1.4 1c-.9 0-1.4-.4-1.4-1s.5-1 1.4-1Zm0 2.5c1.3 0 2.2-.6 2.2-1.6S4.7-8 3.4-8c-1.3.1-2.2.8-2.2 1.7 0 1 .8 1.6 2.2 1.6Zm-.3 3h.8v-1.8a31 31 0 0 0 2.4-.3v-.5c-2 .2-4.3.2-5.8.2v.7h2.7ZM2.6-.1v-2h-.8V.5H8V0Zm0 0"/>  <path id="p" d="M5.8-5c-1.5.5-2.8.6-4 .6v-3.4H1v4h.7c1.3 0 2.6-.2 4.2-.4ZM2.6-2h4v2H2.7ZM1.8.6h5.7v-3.3H1.8Zm7-6.8H7.5v-2h-.8v5h.8v-2.3h1.3Zm0 0"/>  <path id="n" d="M5.8-4.3c-1.3.3-2.5.3-4 .3v-1.2h3v-2.5H1v.7h3.1v1.1H1v2.6h.6c1.7 0 2.9 0 4.4-.3ZM4.6.1C3.3 0 2.5-.3 2.5-1s.8-1 2.1-1c1.4 0 2.2.5 2.2 1S6 0 4.6 0Zm0-2.6c-1.8 0-3 .5-3 1.5S2.9.7 4.7.7 7.6.1 7.6-.9s-1.1-1.6-3-1.6Zm4.2-3.7v-.6H7.5v-1.4h-.8v5.4h.8v-1.5h1.3v-.6H7.5v-1.3Zm0 0"/>  <path id="o" d="M1-7.6v.7h3.1C4-5.3 2.7-4.1.5-3.5l.5.7c2.5-.8 4-2.5 4-4.8ZM4.6.1c-1.2-.1-2-.4-2-1.1 0-.7.8-1.1 2-1.1 1.4 0 2.3.4 2.3 1C6.8-.2 6 .2 4.7.2Zm.1-2.9c-1.8 0-3 .8-3 1.8C1.8 0 3 .7 4.8.7S7.6.1 7.6-1c0-1-1.1-1.8-3-1.8Zm2.8-3v-2.4h-.8V-3h.8v-2.2h1.3V-6Zm0-.2"/>  <path d="M3.5-6.6h2v-.7H.7v.7h2v1.1c0 1.5-1 3.2-2.3 3.9l.5.6c1-.5 1.8-1.6 2.3-3 .4 1.3 1.2 2.3 2.2 2.8l.6-.7C4.6-2.5 3.5-4 3.5-5.5Zm5.5 2H7.4v-3.6h-.8v9h.8V-4H9Zm0 0"/>  <path id="m" d="M5-1v-2.5h2.7V-4H2.4v-2.8h5.2v-.7h-6v4.1h2.6V-1H.5v.6h8.2V-1Zm0 0"/>  <path id="l" d="M6.8-5.3H2.4v-1h4.4ZM7.6-8h-.8v1H2.4v-1h-.8v3.3h6Zm1 4.8v-.6h-8v.6h3.5v1H1.4v.8h5.4V.8h.8v-3.1H5v-.8Zm0 0"/>  <path id="k" d="M1.5-5.4c0-.9.7-1.5 1.5-1.5 1 0 1.6.6 1.6 1.5S3.9-3.9 3-3.9c-.8 0-1.5-.6-1.5-1.5Zm3.9 0c0-1.3-1-2.2-2.4-2.2-1.3 0-2.3 1-2.3 2.2C.7-4 1.7-3.2 3-3.2c1.4 0 2.4-.8 2.4-2.2ZM2.7-2.3H2V.5h6V0H2.7Zm4.8-3.2v-2.7h-.8v6.6h.8v-3.2h1.3v-.7Zm0 0"/>  <path id="j" d="M7-2.7h1v-5.5H7v1.6H5.7v.6h1.4v1H5.6v.7h1.5ZM2.6-6.9h1.2v3H2.5ZM5.8-4H4.6v-2.8h1v-.7H.7v.5h1v3.1H.6v.7c1.6 0 3.6 0 5.3-.3ZM5 0C3.6 0 2.8-.3 2.8-1S3.6-2 5-2c1.3.1 2 .5 2 1.1S6.3 0 5 0Zm0-2.5C3-2.5 2-2 2-1S3 .7 5 .7C6.8.7 8 .1 8-.9S6.8-2.5 5-2.5Zm0 0"/>  <path d="M5.4-8.4h-.8V-6h-.2a8 8 0 0 1-1.2.1 2 2 0 0 1 .3.7L5-5.3c.3-.2.4-.3.4-.7Zm-2.7.6C2.2-7.1 1.4-6.4.6-6l.6.6a8.4 8.4 0 0 0 2.2-2.2Zm4.8 5H3.2v-1h4.3ZM3.2-.3V-1h4.3v.8Zm0-2h4.3v.8H3.2ZM7-6.5C5.8-5.1 3.1-4.4.4-4l.6.6 1.4-.3V.8h.8V.4h4.3v.3h.8v-5H4.5c1.4-.4 2.5-1 3.2-2Zm-.3-1c.8.5 1.8 1.3 2.2 2l.6-.5a13.5 13.5 0 0 0-2.2-2Zm0 0"/>  <path id="ab" d="M1.8-6.6h6.5v1.4H9v-2H5.4v-1.3h-.8v1.2H1v2h.8Zm7.5 2H.8v.7h3.8v3.7c0 .1 0 .2-.2.2H2.7c.1.2.3.5.3.8.9 0 1.5 0 1.9-.2.3 0 .5-.3.5-.8v-3.7h3.9Zm0 0"/>  <path id="as" d="M6-1.6c0 .1 0 .2-.2.2H4.5l.2.7 1.7-.1c.3-.2.4-.4.4-.8v-3.6c.9-.6 1.8-1.5 2.4-2.2l-.5-.4H3.4v.8h4.5c-.5.5-1.2 1.2-1.9 1.5ZM3-6.5 1.3-8.2l-.5.4L2.3-6ZM2.5-5h-2v.7h1.3v3.1C1.3-1 .8-.5.4.1l.5.7c.5-.7.9-1.3 1.2-1.3.2 0 .6.3.9.5.8.5 1.6.7 2.9.7L9.5.5c0-.2 0-.5.2-.8L6 0C4.8 0 4 0 3.3-.6L2.5-1Zm0 0"/>  <path d="M1 1.2h8v-10H1Zm4-5.4L1.8-8.3h6.4Zm.3.4 3.2-4v8ZM1.8.7l3.2-4L8.2.6Zm-.3-8.6 3.2 4.1L1.5.3Zm9.9.2v-.9H5.7l.5-1.3-.9-.1c-.3 1.4-1.1 2.8-2 3.6l.8.5a9.7 9.7 0 0 0 1.2-1.8Zm-7.8-1c-.4-.3-1.3-.8-2-1.1l-.6.5 2 1.4ZM3-5.4a8.8 8.8 0 0 0-2-1.4L.5-6c.7.2 1.6.8 2 1.2ZM1.6.8a40.6 40.6 0 0 0 1.7-4l-.6-.3A38 38 0 0 1 .8.3Zm6-2.4.2-1.8h1.9l-.2 1.8Zm-.5-1.8-.2 1.8H5l.4-1.8Zm.2-2.5-.1 1.7H5.5l.2-1.7ZM8-4.2l.1-1.7h1.7v1.7Zm3.6.8v-.8h-1a58 58 0 0 1 0-2v-.6H5l-.3 2.6H3.4v.8h1.1L4-.4l1 .3v-.7h4.5l-.3.8-.5.2H7.3c.2 0 .2.3.2.6h1.6c.3.1.6-.1.8-.3.1-.2.3-.6.4-1.3h1.2v-.8h-1.1l.1-1.8ZM3.9-6h2.9v.8h.8v-1.6H5.7v-1.1h2v-.8H5.6V-10H5v1.3H3v.8h2v1.1H3v1.7h.9ZM3-8.8c-.3-.2-1-.8-1.7-1.1l-.5.6c.7.4 1.4 1 1.7 1.3Zm-.2 3.2L1-6.7l-.5.6 1.8 1.2ZM1.5.8 2.9-3l-.7-.5C1.7-2.2 1.2-.6.7.3Zm6-3V-3l-1.7.3V-3c.4-.4 1-1 1.4-1.7L6.7-5H3.6v.7H6l-.8.9H5v.9c-.8 0-1.5.2-2 .3l.1.6L5-1.8V0c0 .1 0 .2-.3.2H3.5a3 3 0 0 1 .3.7L5.3.8c.3-.1.4-.4.4-.8v-2Zm2.1-5.1V-10h-.9v2.8H7.6v.7h1C8.4-3.4 8-1.1 6.6.3l.6.7C8.9-.7 9.3-3 9.4-6.4h1c.1 4.4.1 6-.2 6.4l-.4.2H8.6c.2 0 .2.4.4.6h1c.4.2.6 0 .8-.3.3-.5.4-2.1.5-7.3v-.5Zm-6-1.3c-.4-.5-1.3-1-2-1.4l-.6.7 2 1.4Zm-.6 3a9.2 9.2 0 0 0-2-1l-.5.5c.7.3 1.5.9 2 1.3Zm-.4 2.1C2-2.2 1.3-.6.7.2l.9.6a59.4 59.4 0 0 0 1.7-4.1Zm3.4.9A7.3 7.3 0 0 1 4.6-.2l.7.4a8.8 8.8 0 0 0 1.6-2.6ZM6.4-5h3.7v1H6.4Zm0-1.7h3.7v1H6.4ZM11-3.2v-4.1H8.4l.4-1.3h2.5v-.9H4v3.3c0 2 0 4.7-1.4 6.6a4 4 0 0 1 .7.5c1.4-2 1.7-5 1.7-7v-2.6h2.8l-.3 1.4H5.6v4h2.2V0l-.2.2H6.3l.3.6h1.6c.4-.1.4-.4.4-.8v-3.2Zm-1.6.9c.6.7 1.2 1.7 1.4 2.3l.8-.3a9.8 9.8 0 0 0-1.4-2.4ZM7.3-2c0 .4 0 .4-.3.4H5.4l.3.6h2c.3-.2.5-.4.5-1v-4.2A17 17 0 0 0 11-8.9l-.5-.4H4v.9h5.5C8.9-7.7 8-7 7.3-6.5ZM3.4-7.7a15.9 15.9 0 0 0-1.8-2.1l-.6.5 1.8 2ZM3-6H.6v.9H2v3.7c-.4.2-.9.8-1.6 1.4l.7 1C1.6 0 2-.6 2.5-.6c.3 0 .7.4 1.2.6.8.6 1.9.8 3.3.8l4.3-.1.3-1-4.5.2C5.7 0 4.7 0 4-.7l-1-.6Zm0 0"/>  <path id="H" d="M2.6-.8v-2.8h6.7v2.8Zm6.7-6.4v2.7H2.6v-2.7Zm-3.6-1 .8-1.6-1.1-.2-.7 2h-3V.9h1.1V0h6.4v1h1.1v-9.1Zm0 .1"/>  <path d="M3.8-2.3H3v-7.6h-.7v7.6h-.7v-5.4H.9v7.3h.7v-1.2h2.2v.8h.7v-6.9h-.7Zm5.6-6L8.2-7A6.1 6.1 0 0 1 7-8.4Zm.6-.9H7.4l.6-.6-1-.2a7.1 7.1 0 0 1-2.4 2.8c.2-.1.5.2.7.4L6.5-8l1 1.4c-.7.7-1.9 1.1-2.9 1.4l.4.7a11 11 0 0 0 3.2-1.6A8 8 0 0 0 11-4.7a4 4 0 0 1 .6-.7c-1-.2-2-.6-2.8-1.2a6.4 6.4 0 0 0 1.7-2.2ZM8.5-2.1h2.1v-.7H8.5v-.8h2.3v-.7H8.5v-1h-.8v1H5.4v.7h2.3v.8H5.6v.7h2v.8H5v.7h2.7V1h.8V-.6h2.8v-.7H8.5Zm0 0"/>  <path id="I" d="M9.8-7.2v6H6.4v-8.5h-.9v8.6H2.2v-6.1h-.9v8h.9v-1h7.6v1h1v-8.1Zm0 0"/>  <path d="M6.4-7.7h4v1.3h1.1v-2H8.7V-10H8v1.5H5.6v2h.8ZM1.6-5.1h1v1.5h-.9Zm2.9 1.5H3.4V-5h1ZM2.2-8.2h1.7v1H2.3Zm3.5 7V-2H3.4v-1h1.9v-2.8H3.4v-.7h1.2v-1.7h1v-.7H4.5V-10h-.7v1H2.3v-1h-.9v1H.5v.9h1.1v1.6h1v.7H1v3h1.6v.8h-2v.8h1.9V.9h.9v-2.1Zm3.9-3.3c-.2 1.1-.6 2-1 2.7a25 25 0 0 0-1.4-.9l.5-1.7Zm2 4.7L9.3-1.4c.6-.8 1-1.8 1.1-3h1.1v-.8H8L8.4-7h-.8l-.5 1.7H5.5v.9H7L6-2l.8.4V-2l1.4.8C7.4-.5 6.4 0 5.1.2l.5.8C7 .6 8 0 8.8-.8L11 1Zm-.1 0"/>  <path id="G" d="M6-8.8H4V-10H2.9v1.2h-2v.8H6ZM4.7-6l.7-1.8-.9-.2A9.5 9.5 0 0 1 4-6.3Zm-2-.3A6.6 6.6 0 0 0 2.2-8l-.7.2.5 1.7Zm3 4.8A41 41 0 0 0 4-3v-.3h2v-.8H3.9v-1.2h2.3v-.8H.6v.8H3v1.2H.6v.8h2.2C2.2-2.3 1.3-1.2.4-.6L1 0a9.5 9.5 0 0 0 2-2.3V1h.9v-3.1L5.2-.9ZM11.6-6H7.5v-2.2a20 20 0 0 0 3.8-1l-.7-.8a15 15 0 0 1-3.3 1h-.7v4.1C6.6-3.2 6.4-1 5 .3l.6.7C7.2-.7 7.5-3 7.5-5v-.2h1.8v6h.7v-6h1.5Zm-.1 0"/>  <path id="F" d="M3-4.8h6v1.2H3Zm5.8-3.4v1H3v-.9Zm2.5 6.3H6.4V-3H10v-2.5H3.1v-.9h6.4v-2.5H5.8l.6-1-1-.3-.6 1.3H2.2v6h3.3v1H.7v.8h4.8V1h1v-2h4.7Zm0-.1"/>  <path d="M3.8-9.9A13.2 13.2 0 0 1 .3-5l.5.9 1.6-1.7V.9h.9v-8c.5-.8 1-1.6 1.3-2.5ZM7.5 0c-.5 0-.8-.2-.8-.9v-3.5C8.2-5.2 9.8-6 11-7l-.7-.8C9.4-7 8.1-6 6.7-5.3v-4.5h-.9v9C5.8.4 6.2.7 7.5.7h2.4c1.3.1 1.5-.5 1.7-2.6-.3 0-.7-.1-.9-.4 0 1.8-.2 2.3-.7 2.3Zm-.3-6.4v1.1h-2v-1Zm3 1.1H8v-1h2.1ZM8-3.5v-1.1h2.1v1Zm-2.8 0v-1.1h2v1Zm0 .5h2v2.1H8V-3h2.1v1.2c0 .2 0 .2-.1.2H8.7l.2.7h1.7c.3-.3.4-.5.4-1V-7H9.5l-1-.5c1-.5 1.8-1 2.5-1.7l-.6-.4h-6v.9h5l-1.7.9a40.2 40.2 0 0 0-1.6-.8l-.6.6 2.3 1H4.4v6h.8ZM3.4-7.9l-2-1.8-.6.5c.6.5 1.6 1.4 2 2ZM3-5.2H.5v.7h1.8v3C1.7-.8 1-.4.3 0l.6.8L2.8-.8C3.5.3 4.6.6 6 .8h5.3l.3-1.1c-1.4.3-4.1.3-5.5.3-1.4-.1-2.4-.6-3-1.5Zm.1-.1"/>  <path id="E" d="M2.5-1.3v-6.6h7v6.6Zm-1-7.5V.6h1.1v-1h6.9v1h1v-9.4Zm.1 0"/>  <path id="D" d="M9.3-1.7v1.4H2.9v-1.3ZM2 1h.9V.5h6.4v.4h.7v-3.4H2.1Zm6.4-5H3.7v-.9h4.7ZM2.9-5.6v2.4h6.3v-2.4Zm-1.8.9H2v-1.6h8.1v1.6h.9v-2.4H1ZM8.5-9v-1h-.8v1H4.3v-1h-.9v1H.8v.8h2.6v.8h.9v-.8h3.4v.8h.8v-.8h2.8V-9Zm0 0"/>  <path id="C" d="M3.1-3.1A8.7 8.7 0 0 1 1-.1a7 7 0 0 1 .7.4C2.5-.4 3.4-1.6 4-2.9Zm7.3-1V-5H7v-1.7H6V-5H3.4a26 26 0 0 0 1.5-2.6H11v-.9H5.4A18 18 0 0 0 6-9.7l-1-.4-.6 1.6H1v.9h2.9a20 20 0 0 1-1.2 1.8c-.3.5-.6.9-.9 1 .2.2.3.7.4.8 0 0 .5-.1 1.3-.1H6v3.8c0 .2 0 .2-.1.2H4.3L4.7 1C5.5.8 6 .7 6.5.5c.4 0 .5-.3.5-.8v-3.8ZM8-2.8c1 1 2 2.3 2.4 3l.8-.3c-.4-.9-1.5-2.1-2.4-3.1Zm0 0"/>  <path id="B" d="m4.5-7.5 2.3 2.2.7-.7A14.5 14.5 0 0 0 5-7.9ZM3.3-4.8v-3.8h5.5v3.8Zm8 0H9.7v-4.6H2.4v4.6H.7v.8h1.7C2.2-2.5 1.8-.9.4.3c.4.1.6.5.8.7 1.4-1.4 1.9-3.3 2-5h5.6v3.7c0 .3 0 .4-.3.4H6.4a3 3 0 0 1 .3.8L9.1.8c.4-.2.6-.5.6-1V-4h1.6Zm0 0"/>  <path d="M9.5-2.8H2.7L3-4.5h6.5ZM2.9-6c2.5 0 5.3-.4 7.1-.8l-.6-.7c-1.6.5-4.4.6-6.7.7L2-7v2.4C2-3.1 1.8-1.1.4.4.6.3.9.7 1 1c1-1 1.3-2 1.6-3h6.9v1h1v-4.3H2.8Zm5.5-3v-1.1h-.9V-9h-3v-1.1H3.4V-9H.8v.7h2.7v1h1v-1h2.9v.9h1.1v-1h2.6V-9ZM4.5-2.8V-1H2v-1.8Zm.8 2.6v-3.4H3.8v-1.6h2V-6h-2v-1.5h-1V-6H.9v.8h1.9v1.6H1.4V.6H2v-.8ZM7.4-3v-1.3H10V-3ZM10-6.4V-5H7.5v-1.4Zm.8-.6H6.6v3C6.6-2.5 6.4-.8 5 .4c.1 0 .5.4.6.6 1-1 1.5-2 1.7-3.2H10v2c0 .2 0 .3-.3.3H8.4l.3.7c.8.1 1.3.1 1.7-.1.3-.1.4-.4.4-.9ZM8.4-9.2v-.8h-.9v.8h-3v-.8H3.4v.8H.7v.8h2.8v.9h1v-1h2.9v1.1h1.1v-1.1h2.7v-.6Zm0 0"/>  <path id="A" d="M4.2-2.3h-.9V-10h-.8v7.7h-.9v-5.5H1v7.4h.6v-1.2h2.6v.9H5v-7h-.8Zm6.6-2.2H5.4v.8h1.8V.9H8v-4.6h2v2.5c0 .2 0 .2-.2.2h-1l.2.7h1.4c.3-.3.4-.6.4-.9Zm-.7-2H6.4v.9h3.7ZM7.8-10A8.5 8.5 0 0 1 5-6.4l.4.7a9.2 9.2 0 0 0 2.8-3.5c.8 1.3 1.8 2.7 3 3.5-.1-.3.2-.6.3-.8-1-.7-2.2-2.1-2.9-3.5Zm0 0"/>  <path id="z" d="M5.2-7.8v-.9H2.6l.4-1-.8-.3A8 8 0 0 1 .4-7.1a5 5 0 0 1 .6.8l1-1.5ZM3.4-.7v-2.6h1.8v-.8H3.4v-1.7H5v-.7H1.3v.8h1.3v1.5H.7v.9h1.9v2.5c0 .5-.4.7-.6.8.2.3.4.6.4.9L5.2-.7 5-1.5Zm8-3.2v-.8H8.7l.1-1.6v-.8h2.3v-.8H8.8v-2h-.9V-8H6.7L7-9.4l-.8-.2C6-8.2 5.7-6.8 5-5.8l.8.4.7-1.6h1.4v2.3H5.4v.8h2.3C7.5-2.4 6.8-.9 5 .3l.5.6a6.6 6.6 0 0 0 2.9-3.7c.5 1.6 1.3 3 2.5 3.7a4 4 0 0 1 .6-.9C10.2-.6 9.3-2 9-3.9Zm0 0"/>  <path id="y" d="M3.1-4.8v-3.3h5.7l-.4 1.9H7l.4.8h1c.3 0 .6 0 .6-.3.3-.2.5-1 .6-2.8V-9H5.9l.5-.9-1-.3-.5 1.3H2.2V-4h7.9c-.2 2.6-.3 3.7-.6 4H8v-3h-.7v2H5.1v-2.6h-.8V-1H2.2v-2h-.8v2.7h6V0h.2l.3.8h1.5c.4.1.6.1.8-.2.4-.6.6-1.8.8-5.1v-.2ZM7-6.4c-.7-.4-1.8-.9-2.6-1.2l-.5.6c.9.3 2.1.9 2.5 1.3Zm-.1 0"/>  <path id="x" d="M9.1-7.2H3v-1h6.1Zm0 1.8H3v-1h6.1Zm1-3.5H6l.6-1.1h-1L5-9H2.1v4.4H10ZM6.4-.2v-1H10V-2H6.5v-1h4v-.8h-9v.8h4v1H2.2v.8h3.4v1H.8v.8h10.4v-.8Zm.1 0"/>  <path id="w" d="M9.8-1.8v-.8H6.4v-1L8.3-4l-.6-.6c-1 .3-2.9.6-4.4.6l.2.7 2-.2v1H2.2v.6h2.6C3.8-1 2.5-.3 1.2 0l.6.8a11.1 11.1 0 0 0 3.7-2.3V.9h1v-2.5C7.4-.6 8.8.3 10.1.7a3 3 0 0 1 .7-.7 10.5 10.5 0 0 1-3.6-1.8Zm-5-4a10 10 0 0 0 .5-.9h1.5l.4.9Zm6.5.7v-.7H8.2a6 6 0 0 1-.6-.9h2.6v-.7H5.6c0-.3.2-.5.3-.8h4.9V-9H6l.3-1h-.9l-.2 1H1.3v.8H5l-.4.8H2v.7h2.3l-.6.9h-3v.7h2.5A9.2 9.2 0 0 1 .4-2.9l.6.7A10.3 10.3 0 0 0 4.3-5h3.4A9 9 0 0 0 11-2.3l.6-.7a8.1 8.1 0 0 1-2.8-2Zm.1.1"/>  <path id="v" d="M1.8-4.6h3v1H1.9Zm0-1.7h3v1H1.9Zm4.3 5.1V-2H3.8v-1h2v-4H3.7v-1H6v-.6H3.8V-10h-1v1.3h-2v.8h2.1v.9H1v4h2v1H.5v.7H3V.8h.8v-1.9Zm1.4-2.6v-2h2.7v2Zm2.6-4.9v2H7.6v-1.9Zm.9-.8H6.7V-5c0 1.7-.1 4-1.7 5.4l.7.6c1.1-1 1.5-2.6 1.7-4h2.7v2.8c0 .2 0 .2-.1.2H8.5a4 4 0 0 1 .3 1c.9 0 1.4 0 1.7-.4.5.1.5-.3.5-.8Zm0 0"/>  <path id="u" d="M2.9-9.8v3.7C2.9-4 2.7-1.6.7.2l.7.8c2.1-2 2.4-4.7 2.4-7v-3.8Zm3.4.2V.1H7v-9.7Zm3.5-.3V.8h.9V-10ZM1.5-7c-.2.9-.5 2.2-1 3l.6.4c.6-.9.9-2.2 1.1-3.4Zm2.5.4c.5 1 .8 2.2 1 3l.6-.3c.1-.8-.4-2.1-.9-3.1Zm3.4 0c.6.8 1.1 2 1.3 2.8l.8-.3C9.2-4.9 8.7-6 8-7Zm0-.1"/>  <path id="t" d="M3.3-5.8h1.3v-.7H1.3v.8h1.2v1.5H.7v.9h1.8V-1c0 .6-.5 1-.7 1.2l.5.6L4.8-1a3 3 0 0 1-.2-.6L3.3-1v-2.3h1.5v-.8H3.3ZM2-10C1.6-9 1-7.8.4-7.1l.6.8c.3-.4.6-1 1-1.5h3v-.9H2.3l.5-1.1Zm4.4 3.5H10v1H6.4Zm0-1.7H10v1H6.4ZM11-3.8H8.6v-1h2.2v-4.1H8.1l.4-1.1-1-.2-.2 1.3H5.6v4.1h2.1v1H5.3v4h.9V-3h1.5v4h1v-4h1.5v2.2c.1.1.1.2-.2.2H9a3 3 0 0 1 .4.6h1.3c.3-.2.4-.4.4-.9Zm.1 0"/>  <path d="M7.5-.4h.9v-2.2h2.8v-.8H8.4v-1.7h2.3v-.8H8.4v-1.5h-1v1.5H5.6c.3-.6.6-1.3.9-2.1H11v-.8H7l.2-1-1-.2L6-8.8H3.9v.8h1.7l-.7 1.5c-.3.4-.4.7-.7.7l.3 1c.1-.2.5-.4 1.1-.4h1.9v1.8H3.8v.8h3.7Zm-4-7.4a17.1 17.1 0 0 0-1.9-2.1l-.6.4c.6.7 1.4 1.6 1.7 2.2ZM3-6H.6v.8H2v3.8c-.4.2-.9.8-1.6 1.4l.7 1C1.6 0 2-.6 2.5-.6c.3 0 .7.4 1.2.6.9.6 1.9.8 3.3.8l4.4-.1.2-1-4.4.2C5.7 0 4.7 0 3.9-.7L3-1.3Zm8.3.3v-1h-5c.2-1.1.2-2.3.2-3.3h-1l-.1 3.4H.8v.9h4.4C4.7-3.4 3.5-1.1.5.2c.3.1.6.5.7.7C4.2-.4 5.4-2.7 6-5c1 2.8 2.5 5 4.8 6 .1-.4.4-.7.7-.9C9-1 7.5-3.1 6.7-5.7Zm0 0"/>  <path id="s" d="M11.4-7.5v-.9h-5V-10h-.9v1.6H.6v.9h5V-6H1.8v5.4h1V-5h2.7v6h1v-6h2.7v3.3c.1.2.1.2-.1.2H7.3l.4.9c1 0 1.6 0 2-.2.6-.1.6-.4.6-.9v-4.2H6.4v-1.6Zm0 0"/>  <path id="r" d="M4.3-9.6H1.1V1h.8v-9.7h1.9A29 29 0 0 1 2.5-6C3.6-5 4-4.3 4-3.6c0 .4-.1.6-.4.8l-.5.1h-.9c.2.2.3.6.3.7h1l.7-.1c.4-.3.6-.9.6-1.4 0-.8-.3-1.7-1.4-2.6l1.5-3.1ZM6.4-.9v-3.5H10V-1ZM10-8.5v3.3H6.4v-3.4Zm-4.4-.8V.8h.8V0H10v.7h.8v-10Zm0 0"/>  <path id="q" d="M3.7-8.7a19.6 19.6 0 0 0-2-1.3l-.7.8L3.2-8Zm-.5 3.3A20.5 20.5 0 0 0 1-6.6L.5-6l2.2 1.3Zm0 1.7L.8.2l.8.6a47.2 47.2 0 0 0 2.1-3.9ZM8.7 0c-.3 0-.3 0-.3-.5v-5h-.8l.1-1.4h2.6v1.7h.9v-2.6H7.8V-10h-.9v2.2H4v2.5h.9v-1.5H7C6.6-4 6-1.3 3.2.3l.8.6C6.2-.4 7-2.5 7.5-4.8v4.3C7.5.5 7.7.8 8.7.8h1.6c.9 0 1.1-.6 1.2-2.4-.3 0-.6-.2-.8-.4 0 1.6-.1 2-.5 2Zm.1 0"/>  <path d="M4.5-9h-1v2c0 2-1.3 4-3 4.9l.8.8C2.5-2 3.5-3.3 4-5c.5 1.6 1.5 3 2.8 3.5l.5-.8C5.7-3.1 4.5-5 4.5-7Zm4-.8V1h1V-9.9ZM1.8-6.7c0-1 .8-1.7 1.8-1.7 1.1 0 1.9.7 1.9 1.7S4.7-5 3.6-5c-1 0-1.8-.7-1.8-1.7Zm4.7 0c0-1.5-1.2-2.5-2.9-2.5C2-9.2.8-8.2.8-6.7S2-4.2 3.6-4.2c1.7 0 2.9-1 2.9-2.5ZM5.5.1C4 0 3-.4 3-1.1 3-2 4-2.4 5.6-2.4S8-1.9 8-1c.1.6-.9 1-2.4 1Zm.1-3.3c-2.1 0-3.6.8-3.6 2C2 .2 3.4.9 5.6.9 7.7.9 9 .2 9-1.1c.1-1.2-1.3-2-3.4-2Zm5-4.3v-.8H9v-1.6H8v6.4h1v-1.7h1.6V-6H9v-1.5ZM8.5-3.2h1V-10h-1v2.1H6.7v.6h1.8V-6H6.7v.8h1.8ZM3-8.2h1.6v3.3H3ZM7-5l-1.4.2v-3.5h1V-9H1v.7h1v3.6H.7v.8c1.9 0 4.3 0 6.3-.3ZM6 .1C4.3.1 3.3-.3 3.3-1c0-.8 1-1.2 2.7-1.2 1.6-.1 2.6.3 2.6 1.1S7.6.1 6 .1ZM6-3c-2.3 0-3.6.7-3.6 2C2.4.1 3.7.8 6 .8 8.2.9 9.5.2 9.5-1.1 9.5-2.3 8.2-3 6-3Zm0 0"/>  <path id="i" d="M10.4-4.7v-.8H9v-4H2v.9h6.2c0 .8 0 1.8-.3 3H.6v1H5v1.9H1.7v.7h6.5v3h1v-3.7H6v-2.1Zm0 0"/>  <path id="h" d="M7.1-8.6H4.4v-1.3h-1v1.3H.7v.8h6.4ZM2.3-5.2c0-.7.7-1.2 1.7-1.2s1.5.5 1.5 1.2c0 .8-.5 1.3-1.5 1.3s-1.7-.5-1.7-1.3Zm2.1 2c1.3-.1 2-.8 2-2 .1-1.2-.9-2-2.4-2s-2.6.8-2.6 2 .8 1.9 2 2V-2H.5l.1.8c2 0 4.5 0 6.8-.4v-.7L4.3-2Zm6.2-2.1H9v-4.6H8V1h1v-5.5h1.6Zm0 0"/>  <path id="g" d="M8.2-8.4c0 .8 0 1.6-.3 2.7l1 .1c.1-1 .1-2 .1-2.8v-1H1.8v1h6.4ZM5.5 0C3.8.1 2.7-.3 2.7-1c0-.9 1-1.3 2.8-1.3 1.7 0 2.7.3 2.7 1.2 0 .8-1 1.2-2.7 1.2Zm0-3c-2.3 0-3.8.7-3.8 2s1.5 2 3.8 2 3.7-1 3.7-2.1S7.8-3 5.5-3Zm.1-1.9v-2h-1V-5h-4v1h9.8v-.9Zm0 0"/>  <path id="f" d="M9.5-9.9h-1V-2h1ZM1.8-6.5c0-1 .8-1.8 1.9-1.8 1 0 1.8.8 1.8 1.8s-.8 1.8-1.8 1.8-1.9-.7-1.9-1.8Zm4.7 0C6.5-8 5.3-9 3.7-9 2-9.1.9-8.1.9-6.5S2-3.8 3.7-3.8c1.6 0 2.8-1.2 2.8-2.7Zm-3 6.3v-2.6h-1V.6h7.3v-.8Zm0 0"/>  <path id="e" d="M4.1-9C2.5-9 1.3-8 1.3-6.6S2.5-4 4-4c1.8 0 3.1-1 3.1-2.5C7-8.1 5.7-9.1 4-9.1Zm0 .7c1.2 0 2 .6 2 1.8C6-5.5 5.2-5 4-5c-.9.1-1.8-.6-1.8-1.5 0-1 .8-1.8 2-1.8ZM8.4-10V1h1V-9.9ZM.8-1.5c2 0 4.6 0 7-.4v-.8c-2.5.4-5.2.4-7.2.4Zm0 0"/>  <path id="d" d="M1.6-4.6c1.7-.4 3.2-1.2 4-2.5.5 1.3 2.1 2.1 3.7 2.5l.5-.8C7.9-5.7 6-7 6-8.4h3.4v-.8H1.6v.8H5c0 1.5-2 2.7-3.8 3Zm8.8.8H.6v.9H5V.9h1V-3h4.4Zm0 0"/>  <path id="c" d="M9.5-9.9h-1V-2h1ZM5.3-4.7H2.2v-3.4h3Zm1-4.3H1.1v5h5.1ZM3.4-.3v-2.6h-.9V.5h7.3v-.8Zm.1 0"/>  <path id="b" d="M8.5-1.8h1v-8h-1v2.4H6.2v.9h2.3ZM7-4.4c-1.6-.5-2.7-2-2.7-3.5v-1.3h-1V-8c0 1.8-1 3.3-2.7 4l.6.6a4.7 4.7 0 0 0 2.6-2.8C4.3-5 5.2-4 6.4-3.6ZM3.6-.2v-2.5h-1V.6h7.2v-.8Zm0 0"/>  <path id="a" d="M1.5-3.5c1.6-.5 3.3-1.5 4-3C6.2-5 8-3.8 9.5-3.4l.5-1.1C8-4.7 6-6 6-7.9V-8h3.6v-.9H1.4v.9H5v.1C5-6 3-4.6 1.1-4.3ZM6-1.3V-4H5v2.7H.6v.8h9.8v-.8Zm0 0"/>  <path d="M1.2 1.4h9.6v-12H1.2ZM6-5l-3.8-5h7.6Zm.4.4 3.8-4.9V.3ZM2.2.8 6-4l3.8 5ZM1.8-9.5l3.8 5L1.8.2Zm0 0"/> </defs> <image xlink:href="svg/7/10_0.jpg" width="497" height="279"/> <path d="M376.4 165.6c1.6-.4 3.3-1.4 4-3 .6 1.7 2.3 2.7 4 3.1l.4-1.1c-1.9-.2-4-1.6-4-3.3v-.3h3.7v-.8h-8.2v.8h3.5v.3c0 1.7-2 3.1-3.8 3.5zm4.5 2.2v-2.6h-1v2.6h-4.4v.8h9.7v-.8zm14-.5h1v-8h-1v2.5h-2.4v.8h2.5zm-1.6-2.6c-1.5-.5-2.6-2-2.6-3.4v-1.5h-1v1.4c0 1.8-1 3.2-2.7 3.8l.5.8a4.7 4.7 0 0 0 2.7-3c.5 1.3 1.4 2.2 2.6 2.7zm-3.4 4.3v-2.6h-.9v3.3h7.2v-.7zm17.5-9.7h-1v7.7h1zm-4.2 5H400V161h3zm1-4h-5v4.9h4.9zm-2.8 8.5v-2.6h-1v3.4h7.4v-.8zm9.6-4.3c1.8-.3 3.4-1.2 4-2.5.6 1.3 2.2 2.2 3.9 2.5l.4-.8c-2-.3-3.8-1.5-3.8-3h3.4v-.8H411v.8h3.4c0 1.6-1.8 2.7-3.7 3.1zm8.9.9h-9.8v.8h4.3v3.8h1v-3.8h4.4zM422.6 164.5c1.7-.3 3.2-1.2 4-2.5.5 1.3 2 2.2 3.7 2.5l.5-.8c-1.9-.3-3.8-1.5-3.8-3h3.4v-.8h-7.8v.8h3.4c0 1.6-2 2.7-3.8 3.1zm8.8.9h-9.8v.8h4.4v3.8h1v-3.8h4.4zM379 176.5c-1.7 0-3 1-3 2.5s1.4 2.6 3 2.6 2.9-1 2.9-2.6c0-1.5-1.2-2.5-3-2.5zm0 .8c1 0 1.9.7 1.9 1.7s-.9 1.7-2 1.7c-.9 0-1.9-.7-1.9-1.7s1-1.7 2-1.7zm4.3-1.6v10.8h1v-10.8zm-7.6 8.4c2 0 4.5 0 7-.4l-.2-.8c-2.3.4-5 .4-6.9.4zm20.1-8.4h-1v7.9h1.1zm-7.6 3.4c0-1.1.8-1.8 1.9-1.8.9 0 1.8.7 1.8 1.8.1.9-.8 1.8-1.8 1.8s-1.9-.7-1.9-1.8zm4.8-.1c-.1-1.5-1.3-2.6-3-2.6-1.5 0-2.7 1.1-2.7 2.7s1.2 2.7 2.7 2.7c1.7 0 2.9-1.1 2.9-2.8zm-3.1 6.4v-2.6h-.9v3.4h7.2v-.8zm17.5-9.7h-1v7.7h1zm-4.2 5.1H400v-3.4h3zm1-4.2h-5v5h4.9zm-2.8 8.7v-2.6h-1v3.4h7.4v-.8zm16.2-8.1c0 .8 0 1.6-.3 2.7l1 .1c.3-1 .3-2 .3-2.8v-1h-7.3v.8h6.3zm-2.6 8.5c-1.8 0-2.8-.5-2.8-1.2 0-.8 1-1.2 2.7-1.2 1.7 0 2.8.4 2.8 1.2 0 .7-1 1.2-2.8 1.2zm0-3.2c-2.4 0-3.8.7-3.8 2 0 1.2 1.4 2 3.7 2 2.3-.1 3.8-.9 3.8-2.1 0-1.2-1.5-1.9-3.8-1.9zm.1-1.8v-2H414v2h-4v.8h9.8v-.8zm13-3.7h-2.7v-1.3h-1v1.3h-2.7v.8h6.4zm-4.8 3.4c0-.7.7-1.2 1.7-1.2s1.5.5 1.5 1.2c0 .8-.5 1.2-1.5 1.2s-1.7-.4-1.7-1.2zm2.1 2c1.3-.2 2-1 2-2 .1-1.2-.9-2-2.4-2s-2.6.8-2.6 2c0 1 .8 1.8 2 2v1.2h-2.9l.1.8c2 0 4.5 0 6.8-.4v-.7l-3.1.2zm6.2-2.1H430v-4.6h-1v10.8h1V181h1.6zm-23.3 17v-.8h-1.5c.2-1.3.2-2.2.2-3v-.8h-7.2v.8h6.3c-.1.8-.1 1.7-.3 3h-7.2v.8h4.3v2h-3.3v.7h6.4v2.9h1.1v-3.6H404v-2zm0 0" style="fill:none;stroke:#fff;stroke-width:3;stroke-linecap:butt;stroke-linejoin:round;stroke-miterlimit:10;stroke-opacity:.6" transform=" rotate(  340 400.804 184.072) "/> <g style="fill:#633d63;fill-opacity:1" transform=" rotate(  340 400.804 184.072) ">  <use xlink:href="#a" x="374.8" y="169.1"/>  <use xlink:href="#b" x="386.4" y="169.1"/>  <use xlink:href="#c" x="397.9" y="169.1"/>  <use xlink:href="#d" x="409.5" y="169.1"/>  <use xlink:href="#d" x="421" y="169.1"/>  <use xlink:href="#e" x="374.8" y="185.6"/>  <use xlink:href="#f" x="386.4" y="185.6"/>  <use xlink:href="#c" x="397.9" y="185.6"/>  <use xlink:href="#g" x="409.5" y="185.6"/>  <use xlink:href="#h" x="421" y="185.6"/>  <use xlink:href="#i" x="397.9" y="202"/> </g> <path d="M304.7 213.5h.8V208h-.8v1.6h-1.5v.6h1.5v1h-1.5v.7h1.5zm-4.7-4.2h1.4v3H300zm3.4 2.8h-1.2v-2.7h.8v-.7h-4.6v.6h.8v3h-1v.7c1.5 0 3.5 0 5.2-.3zm-.9 4.2c-1.3 0-2.1-.4-2.1-1s.8-1 2.1-1c1.5 0 2.2.4 2.2 1s-.8 1-2.2 1zm0-2.6c-1.8 0-3 .6-3 1.6s1.2 1.6 3 1.6c1.9.1 3-.6 3-1.6s-1.1-1.6-3-1.6zm5.8-2.9c0-.8.6-1.5 1.5-1.5s1.5.7 1.5 1.5-.6 1.5-1.5 1.5-1.5-.6-1.5-1.5zm3.7 0c.1-1.3-.9-2.2-2.2-2.2-1.3 0-2.3 1-2.3 2.2 0 1.3 1 2.2 2.3 2.2 1.3 0 2.3-.9 2.3-2.2zm-2.5 3.2h-.8v2.7h6v-.6h-5.3zm4.7-3.3V208h-.8v6.6h.8v-3.2h1.4v-.7zm8.5.2h-4.3v-1h4.3zm.8-2.7h-.8v1h-4.3v-1h-.8v3.3h6zm1.1 4.8v-.6h-8.1v.6h3.5v1h-2.6v.8h5.4v2.2h.8v-2.9h-2.7V213zm5.6 2.1v-2.3h2.7v-.6h-5.4v-2.8h5.3v-.7h-6v4.1h2.4v2.3h-3.5v.7h8.1v-.7zm0 0" style="fill:none;stroke:#fff;stroke-width:3;stroke-linecap:butt;stroke-linejoin:round;stroke-miterlimit:10;stroke-opacity:.6" transform=" rotate(  340 315.958 213.199) "/> <g style="fill:#7d577d;fill-opacity:1" transform=" rotate(  340 315.958 213.199) ">  <use xlink:href="#j" x="297.6" y="216.2"/>  <use xlink:href="#k" x="306.8" y="216.2"/>  <use xlink:href="#l" x="316" y="216.2"/>  <use xlink:href="#m" x="325.2" y="216.2"/> </g> <path d="M448.9 121.3c-1.4.2-2.5.3-4 .3v-1.3h3.1V118h-4v.6h3.2v1.1H444v2.6h.7c1.7 0 2.9 0 4.3-.3zm-1.2 4.4c-1.3 0-2.1-.4-2.1-1s.8-1 2.1-1c1.4 0 2.3.3 2.3 1s-1 1-2.3 1zm0-2.7c-1.7 0-3 .6-3 1.7.1 1 1.3 1.6 3.1 1.6s2.9-.6 2.9-1.6-1.2-1.7-3-1.7zm4.3-3.6v-.6h-1.4v-1.4h-.8v5.4h.8v-1.5h1.3v-.7h-1.3v-1.2zm1.2-1.4v.7h3.3c-.2 1.5-1.5 2.8-3.7 3.3l.4.7c2.6-.7 4.1-2.4 4.1-4.7zm3.8 7.7c-1.3 0-2.2-.4-2.2-1.1 0-.7.9-1.1 2.2-1.1 1.3 0 2 .4 2 1 0 .9-.6 1.3-2 1.3zm0-2.9c-1.8 0-3 .7-3 1.8 0 1 1.3 1.7 3 1.7s2.9-.7 2.9-1.7c0-1.1-1.2-1.8-3-1.8zm2.8-3.1v-2.4h-.8v5.4h.8v-2.4h1.2v-.6zm6.7 4.8v-2.3h2.7v-.6H464v-2.9h5v-.6h-5.9v4.1h2.5v2.3H462v.7h8.2v-.7zm0 0" style="fill:none;stroke:#fff;stroke-width:3;stroke-linecap:butt;stroke-linejoin:round;stroke-miterlimit:10;stroke-opacity:.6" transform=" rotate(  340 456.886 122.582) "/> <g style="fill:#7d577d;fill-opacity:1" transform=" rotate(  340 456.886 122.582) ">  <use xlink:href="#n" x="443.1" y="125.6"/>  <use xlink:href="#o" x="452.3" y="125.6"/>  <use xlink:href="#m" x="461.5" y="125.6"/> </g> <path d="M351.8 228.8h.8v-5.5h-.8v1.6h-1.5v.7h1.5v.9h-1.5v.7h1.5zm-4.6-4.2h1.3v3h-1.3zm3.3 2.8h-1.2v-2.7h.9v-.7h-4.7v.6h.9v3h-1.2l.1.7c1.5 0 3.5 0 5.2-.3zm-.9 4.2c-1.3 0-2.1-.4-2.1-1s.8-1 2.1-1c1.4 0 2.2.4 2.2 1s-.8 1-2.2 1zm0-2.6c-1.8 0-3 .6-3 1.6s1.2 1.6 3 1.6c1.9 0 3-.6 3-1.6s-1.1-1.6-3-1.6zm5.8-2.9c0-.9.6-1.5 1.5-1.5s1.6.6 1.6 1.5-.7 1.5-1.6 1.5c-.9 0-1.5-.6-1.5-1.5zm3.9 0c0-1.3-1-2.1-2.4-2.1-1.3 0-2.3 1-2.3 2.1 0 1.3 1 2.2 2.3 2.2 1.4 0 2.4-.9 2.4-2.2zm-2.7 3.1h-.8v2.9h6v-.7h-5.2zm4.8-3.2v-2.7h-.8v6.6h.8v-3.2h1.3v-.7zm7.4.6c-1.4.3-2.7.4-4 .4v-3.3h-.8v4h.8c1.2 0 2.6-.1 4.1-.4zm-3 2.9h3.9v2h-3.9zm-1 2.5h5.8v-3.2h-5.7zm7.2-6.7h-1.4v-2h-.9v5h.9V226h1.3zM377.3 230.4v-2.3h2.7v-.6h-5.3v-2.8h5.2v-.7H374v4h2.3v2.4h-3.5v.7h8.1v-.7zm0 0" style="fill:none;stroke:#fff;stroke-width:3;stroke-linecap:butt;stroke-linejoin:round;stroke-miterlimit:10;stroke-opacity:.6" transform=" rotate(  340 363.079 228.506) "/> <g style="fill:#7d577d;fill-opacity:1" transform=" rotate(  340 363.079 228.506) ">  <use xlink:href="#j" x="344.7" y="231.5"/>  <use xlink:href="#k" x="353.9" y="231.5"/>  <use xlink:href="#p" x="363.1" y="231.5"/>  <use xlink:href="#m" x="372.3" y="231.5"/> </g> <use style="fill:#f8f8f5;fill-opacity:1;fill-rule:nonzero;stroke:#7d7d68;stroke-width:.8;stroke-linecap:butt;stroke-linejoin:miter;stroke-miterlimit:4;stroke-opacity:1" transform="translate(224.12619,90.591544)" xlink:href="#reuse-0"/> <path d="M212.8 101.4a19.6 19.6 0 0 0-2-1.2l-.6.8c.8.2 1.7.8 2.1 1zm-.5 3.3a20.5 20.5 0 0 0-2.2-1.2l-.4.5 2.1 1.4zm0 1.7c-.8 1.4-1.8 3-2.3 3.9l.7.6a47.2 47.2 0 0 0 2.3-3.9zm5.5 3.6c-.3 0-.3 0-.3-.4v-5h-.8l.1-1.3h2.6v1.6h.9v-2.6h-3.4v-2.2h-.9v2.2h-2.8v2.7h.8v-1.8h2c-.2 3-1 5.6-3.6 7.2.3.1.6.4.7.6 2.2-1.3 3.1-3.4 3.5-5.7v4.3c0 1 .3 1.3 1.2 1.3h1.6c.9 0 1.1-.5 1.2-2.4l-.8-.3c0 1.5-.1 1.8-.5 1.8zM225.4 100.5h-3.2V111h.8v-9.6h2a29 29 0 0 1-1.4 2.6c1.2 1 1.5 1.8 1.5 2.5-.1.4-.1.7-.3.8l-.5.1h-1c.2.2.3.6.3.8h1l.7-.2c.4-.3.7-.8.7-1.4 0-.8-.4-1.6-1.5-2.6l1.5-3zm2.1 8.7v-3.5h3.6v3.5zm3.6-7.6v3.4h-3.6v-3.4zm-4.4-.8v10.1h.8v-.9h3.6v.8h.9v-10zm17.8 1.8v-.9h-5V100h-.8v1.7h-4.9v.9h4.8v1.6H235v5.4h.9V105h2.7v6h1v-6h2.8v3.4c.1.2.1.2-.2.2h-1.7l.3.9c1 0 1.7 0 2-.2.6 0 .7-.3.7-.9v-4.2h-4v-1.6zm0 0" style="fill:none;stroke:#fff;stroke-width:3;stroke-linecap:butt;stroke-linejoin:round;stroke-miterlimit:10;stroke-opacity:.6" transform=" rotate(  340 229.727 93.5898) "/> <g style="fill:#212121;fill-opacity:1" transform=" rotate(  340 229.727 93.5898) ">  <use xlink:href="#q" x="209.1" y="110.1"/>  <use xlink:href="#r" x="221.1" y="110.1"/>  <use xlink:href="#s" x="233.1" y="110.1"/> </g> <use style="fill:#f8f8f5;fill-opacity:1;fill-rule:nonzero;stroke:#7d7d68;stroke-width:.8;stroke-linecap:butt;stroke-linejoin:miter;stroke-miterlimit:4;stroke-opacity:1" transform="translate(108.10668,128.04122)" xlink:href="#reuse-0"/> <path d="M96.4 120.3h1.3v-.8h-3.3v.8h1.2v1.6h-1.8v.8h1.8v2.4c0 .5-.4.9-.7 1.1l.5.6 2.5-1.6a3 3 0 0 1-.2-.8l-1.3.8v-2.5h1.5v-.7h-1.5zM95 116c-.3 1.1-1 2.2-1.5 3 .2 0 .5.5.5.6.4-.3.7-.8 1-1.4h3v-.8h-2.6l.6-1.2zm4.5 3.5h3.6v1h-3.6zm0-1.7h3.6v1h-3.6zm4.7 4.4h-2.5v-1h2.3v-4h-2.8l.4-1.2h-1l-.2 1h-1.7v4.2h2.1v1h-2.4v4h.9v-3h1.5v3.7h1v-3.8h1.5v2.2l-.1.1h-1a3 3 0 0 1 .3.8l1.3-.2c.4-.1.4-.3.4-.7zm3.8-6v3.8c0 2.1-.2 4.5-2.2 6.3l.7.6c2.1-1.9 2.4-4.5 2.4-6.9v-3.8zm3.4.3v9.5h.8v-9.5zm3.5-.3v10.6h1.1v-10.6zm-8.3 2.7c-.2 1.1-.5 2.4-1 3.2l.6.3c.6-.8 1-2.2 1.1-3.2zm2.6.5c.4 1 .7 2.3.8 3l.8-.3c0-.8-.5-2-1-3zm3.3 0c.6 1 1.1 2.2 1.3 3l.8-.6c-.2-.6-.8-1.8-1.4-2.8zm16-.9v-.8h-5v-1.8h-.9v1.8h-4.9v.8h5v1.7H119v5.3h.9V121h2.7v6h1v-6h2.7v3.4c.1.1.1.2-.1.2h-1.8l.4.8 2-.1c.6-.3.7-.4.7-1v-4h-4v-1.8zm0 0" style="fill:none;stroke:#fff;stroke-width:3;stroke-linecap:butt;stroke-linejoin:round;stroke-miterlimit:10;stroke-opacity:.6" transform=" rotate(  340 113.707 131.043) "/> <g style="fill:#212121;fill-opacity:1" transform=" rotate(  340 113.707 131.043) ">  <use xlink:href="#t" x="93.1" y="126"/>  <use xlink:href="#u" x="105.1" y="126"/>  <use xlink:href="#s" x="117.1" y="126"/> </g> <path d="M5.6 3A2.6 2.6 0 0 1 3 5.6 2.6 2.6 0 1 1 3 .4C4.4.4 5.6 1.6 5.6 3zm0 0" style="fill:#f8f8f5;fill-opacity:1;fill-rule:nonzero;stroke:#7d7d68;stroke-width:.8;stroke-linecap:butt;stroke-linejoin:miter;stroke-miterlimit:4;stroke-opacity:1" transform="translate(74.363569,97.194186)"/> <path d="M61.2 90.6h3v1h-2.9zm0-1.7h3V90h-2.9zm4.2 5.1v-.8h-2.3v-1h2v-3.9H63v-1.1h2.4v-.6h-2.3V85h-.9v1.5H60v.8h2.2v1h-1.8v3.9h1.8v1.1H60v.7h2.2v2h1v-2zm1.6-2.6v-2h2.5v2zm2.5-4.9v2h-2.6v-1.9zm.8-.8h-4.2v4.4c-.1 1.9-.2 4-1.7 5.5l.7.5c.9-1 1.5-2.5 1.7-3.9h2.7V95c0 .2 0 .2-.3.2H68a4 4 0 0 1 .2.9c.8 0 1.4 0 1.7-.2.3-.1.4-.4.4-.9zm5.4-.1h-3.2v10.5h.7v-9.6H75a29 29 0 0 1-1 2.5c1 1.1 1.3 2 1.3 2.6 0 .3 0 .6-.3.8l-.5.1h-1c.3.2.4.5.4.8h.9l.8-.3c.4-.2.4-.7.4-1.4s0-1.6-1.3-2.5l1.6-3.1zm2 8.7v-3.5h3.7v3.5zm3.7-7.6V90h-3.6v-3.3zM77 86v10h.8v-.9h3.5v.8h1V86Zm17.7 1.7v-.9h-4.9v-1.7h-1v1.7H84v.9h4.9v1.6h-3.7v5.3h1v-4.5h2.6v6h1v-6h3v3.4c-.1.2-.3.2-.5.2h-1.6l.3.9c1 0 1.7 0 2.1-.2.4-.1.5-.4.5-.9v-4.2h-3.8v-1.6zm0 0" style="fill:none;stroke:#fff;stroke-width:3;stroke-linecap:butt;stroke-linejoin:round;stroke-miterlimit:10;stroke-opacity:.6" transform=" rotate(  340 79.9648 100.195) "/> <g style="fill:#212121;fill-opacity:1" transform=" rotate(  340 79.9648 100.195) ">  <use xlink:href="#v" x="59.4" y="95.2"/>  <use xlink:href="#r" x="71.4" y="95.2"/>  <use xlink:href="#s" x="83.4" y="95.2"/> </g> <use style="fill:#f8f8f5;fill-opacity:1;fill-rule:nonzero;stroke:#7d7d68;stroke-width:.8;stroke-linecap:butt;stroke-linejoin:miter;stroke-miterlimit:4;stroke-opacity:1" transform="translate(32.223075,204.31597)" xlink:href="#reuse-0"/> <path d="M21 222v-.8h-3.4v-1c.7 0 1.4-.2 2-.2l-.8-.7-4.3.6.2.6 2-.2v1h-3.2v.7H16c-1 .8-2.3 1.5-3.6 1.9l.6.7a11.1 11.1 0 0 0 3.8-2.3v2.4h.8v-2.5c1 1 2.5 2 3.9 2.4a3 3 0 0 1 .5-.7 10.5 10.5 0 0 1-3.6-2zm-5-4a10 10 0 0 0 .5-.9H18l.5 1zm6.6.7v-.7h-3.2a6 6 0 0 1-.4-.9h2.4v-.7h-4.6l.2-.8h5v-.6h-4.7l.2-1.1-.9-.1c0 .2 0 .7-.2 1h-3.9v.9h3.7l-.4.7h-2.6v.7h2.3l-.5 1h-3.1v.5h2.5a9.2 9.2 0 0 1-2.8 2.4l.6.6a10.3 10.3 0 0 0 3.3-2.9H19a9 9 0 0 0 3.2 2.8l.6-.7a8.1 8.1 0 0 1-2.8-2zm9.7-2h-6.2v-1h6.2zm0 1.7h-6.2v-1h6.2zm1-3.4h-4l.5-1.1-1-.1-.4 1.1h-3.2v4.3h8zm-3.6 8.7v-1.1h3.5v-.8h-3.5v-1h4v-.7h-8.9v.7h4.1v1h-3.6v.8h3.5v1H24v1h10.5v-.9zm8.6-4.7v-3.2H44c-.1 1.2-.3 1.7-.4 1.8l-.4.1h-.9l.2.8h1.1c.4 0 .5-.1.7-.3.3-.3.4-1 .6-3v-.2H41l.6-1-1-.2-.6 1.1h-2.5v4.9h7.8c-.2 2.7-.3 3.7-.6 4l-.4.1h-1v-3.2h-.7v2.3h-2.3v-2.8h-.8v2.8h-2v-2.2h-1v2.8h6.1v.4h.2l.2.7h1.6c.4 0 .6-.1.9-.4.3-.4.5-1.6.7-4.9v-.4zm3.8-1.5c-.6-.5-1.7-1-2.5-1.2l-.6.5 2.6 1.3zm16.5-1.2v-.9h-5v-1.7h-.8v1.7H48v1h4.7v1.4h-3.6v5.5h.9v-4.5h2.7v6h1v-6h2.8v3.2c.1.3 0 .4-.2.4h-1.7l.3.8 2-.1c.6-.2.7-.4.7-1.1v-4h-4v-1.7zm0 0" style="fill:none;stroke:#fff;stroke-width:3;stroke-linecap:butt;stroke-linejoin:round;stroke-miterlimit:10;stroke-opacity:.6" transform=" rotate(  340 37.8242 207.316) "/> <g style="fill:#212121;fill-opacity:1" transform=" rotate(  340 37.8242 207.316) ">  <use xlink:href="#w" x="11.2" y="223.8"/>  <use xlink:href="#x" x="23.2" y="223.8"/>  <use xlink:href="#y" x="35.2" y="223.8"/>  <use xlink:href="#s" x="47.2" y="223.8"/> </g> <use style="fill:#f8f8f5;fill-opacity:1;fill-rule:nonzero;stroke:#7d7d68;stroke-width:.8;stroke-linecap:butt;stroke-linejoin:miter;stroke-miterlimit:4;stroke-opacity:1" transform="translate(243.01346,49.588996)" xlink:href="#reuse-0"/> <path d="M233.2 61.3v-.9h-2.6l.4-1-.7-.4a8 8 0 0 1-1.9 3 5 5 0 0 1 .6.8l1.1-1.5zm-1.8 7.1v-2.6h1.8V65h-1.8v-1.6h1.6v-.8h-3.6v.8h1.2V65h-1.8v.8h1.8v2.5c0 .5-.4.7-.6.9.2.2.4.5.4.8l2.8-1.6-.2-.8zm8-3.2v-.7h-2.7l.1-1.7V62h2.3v-.8h-2.3v-2h-.8v1.9h-1.3l.3-1.4-.8-.2c-.2 1.5-.5 2.9-1 3.8l.5.4.8-1.7h1.4v2.4h-2.5v.8h2.4c-.3 1.6-1 3.1-2.9 4.3l.6.5a6.6 6.6 0 0 0 2.9-3.7c.5 1.7 1.3 3 2.5 3.7a4 4 0 0 1 .6-.8c-1.3-.7-2.2-2.2-2.5-3.9zm4.8 1.6h-.9v-7.6h-.7v7.6h-1v-5.5h-.6v7.5h.6v-1.3h2.6v.9h.8v-7h-.8zm6.6-2.2h-5.4v.8h1.8V70h.9v-4.6h1.9V68h-1.2l.2.8h1.4c.3-.3.4-.5.4-.8zm-.7-2h-3.7v.9h3.7zm-2.3-3.4a8.5 8.5 0 0 1-2.8 3.5l.4.7a9.2 9.2 0 0 0 2.8-3.4c.8 1.2 1.8 2.6 3 3.4l.4-.8c-1.1-.6-2.3-2.1-3-3.5zm15.6 2.4v-.9h-5V59h-.9v1.7h-4.8v.9h4.8v1.6H254v5.3h.8v-4.4h2.7V70h1v-6h2.8v3.4c.1.2 0 .2-.3.2h-1.6l.3.9c1 0 1.7 0 2-.2.6-.1.7-.3.7-.9v-4.2h-4v-1.6zm0 0" style="fill:none;stroke:#fff;stroke-width:3;stroke-linecap:butt;stroke-linejoin:round;stroke-miterlimit:10;stroke-opacity:.6" transform=" rotate(  340 248.613 52.5898) "/> <g style="fill:#212121;fill-opacity:1" transform=" rotate(  340 248.613 52.5898) ">  <use xlink:href="#z" x="228" y="69.1"/>  <use xlink:href="#A" x="240" y="69.1"/>  <use xlink:href="#s" x="252" y="69.1"/> </g> <use style="fill:#f8f8f5;fill-opacity:1;fill-rule:nonzero;stroke:#7d7d68;stroke-width:.8;stroke-linecap:butt;stroke-linejoin:miter;stroke-miterlimit:4;stroke-opacity:1" transform="translate(270.13551,192.06702)" xlink:href="#reuse-0"/> <path d="M259.6 182.6c.8.6 1.9 1.6 2.4 2.2l.6-.6a14.5 14.5 0 0 0-2.4-2.2zm-1.2 2.6v-3.7h5.6v3.7zm8 0H265v-4.5h-7.5v4.5h-1.7v.9h1.7c-.1 1.5-.6 3-2 4.3.4.1.7.4.8.6 1.4-1.3 1.9-3.2 2.1-4.9h5.5v3.7c.1.3.1.3-.3.3h-2a3 3 0 0 1 .2.9c1.2 0 2.1 0 2.5-.2.4 0 .6-.4.6-1v-3.7h1.6zm3.9 1.8a8.7 8.7 0 0 1-2.3 3 7 7 0 0 1 .8.4c.9-.7 1.8-1.9 2.2-3.2zm7.3-1v-1H274v-1.6h-.8v1.6h-2.8a26 26 0 0 0 1.7-2.5h5.9v-.9h-5.5a18 18 0 0 0 .6-1.2l-.9-.4-.8 1.6h-3.3v.9h2.9a20 20 0 0 1-1.1 1.8c-.4.5-.7.9-1 1 .3.1.4.7.5.8 0-.1.6-.1 1.2-.1h2.6v3.8c0 .1 0 .2-.2.2h-1.5l.3.9c.9 0 1.5 0 1.8-.2.4-.1.5-.4.5-1V186zm-2.6 1.3c1.1 1 2.1 2.2 2.6 3l.8-.3c-.5-.9-1.6-2-2.6-3zm15.5-4.7v-1h-5V180h-.8v1.7h-4.9v.9h4.9v1.6H281v5.3h1V185h2.7v6h.9v-6h2.9v3.4c0 .1 0 .2-.3.2h-1.7l.3.9c1 0 1.7 0 2-.2.6-.1.7-.4.7-1v-4h-3.9v-1.7zm0 0" style="fill:none;stroke:#fff;stroke-width:3;stroke-linecap:butt;stroke-linejoin:round;stroke-miterlimit:10;stroke-opacity:.6" transform=" rotate(  340 275.734 195.066) "/> <g style="fill:#212121;fill-opacity:1" transform=" rotate(  340 275.734 195.066) ">  <use xlink:href="#B" x="255.1" y="190.1"/>  <use xlink:href="#C" x="267.1" y="190.1"/>  <use xlink:href="#s" x="279.1" y="190.1"/> </g> <use style="fill:#f8f8f5;fill-opacity:1;fill-rule:nonzero;stroke:#7d7d68;stroke-width:.8;stroke-linecap:butt;stroke-linejoin:miter;stroke-miterlimit:4;stroke-opacity:1" transform="translate(163.4742,156.50326)" xlink:href="#reuse-0"/> <path d="M157.7 174.4v1.4h-6.3v-1.4zm-7.2 2.6h.9v-.5h6.3v.5h1v-3.4h-8.3zm6.3-4.8h-4.6v-1h4.6zm-5.4-1.7v2.3h6.3v-2.3zm-1.8.8h.8v-1.6h8.2v1.6h.9V169h-10zm7.4-4.3v-1h-.9v1h-3.3v-1h-1v1h-2.4v.8h2.5v.8h.9v-.8h3.2v.8h1v-.8h2.7v-.8zm6 7.7v-6.6h7v6.6zm-1-7.5v9.4h1v-1h7v1h1v-9.4zm21.8 1.3v-.9H179V166h-1v1.6h-4.8v1h4.8v1.4h-3.7v5.5h1V171h2.7v6h.9v-6h3v3.3c-.1.2-.2.2-.4.3h-1.7c.2.1.3.4.3.7h2.1c.4-.3.5-.4.5-1v-4.2H179v-1.6zm0 0" style="fill:none;stroke:#fff;stroke-width:3;stroke-linecap:butt;stroke-linejoin:round;stroke-miterlimit:10;stroke-opacity:.6" transform=" rotate(  340 169.074 159.504) "/> <g style="fill:#212121;fill-opacity:1" transform=" rotate(  340 169.074 159.504) ">  <use xlink:href="#D" x="148.5" y="176"/>  <use xlink:href="#E" x="160.5" y="176"/>  <use xlink:href="#s" x="172.5" y="176"/> </g> <use style="fill:#f8f8f5;fill-opacity:1;fill-rule:nonzero;stroke:#7d7d68;stroke-width:.8;stroke-linecap:butt;stroke-linejoin:miter;stroke-miterlimit:4;stroke-opacity:1" transform="translate(134.18792,67.942929)" xlink:href="#reuse-0"/> <path d="M122.3 61.2h6v1.1h-6.1Zm5.5-3.4v1h-5.6v-1zm2.7 6.2h-4.9v-1h3.5v-2.5h-6.8v-.9h6.4V57H125l.6-1-1-.1-.6 1.1h-2.7v6h3.4v1H120v.7h4.7v2.1h1v-1.9h4.7zm6.7-6.8H135v-1.3h-.8v1.3H132v.7h5.2zm-1.4 2.6c.3-.4.5-1 .7-1.7l-.8-.1a9.5 9.5 0 0 1-.6 1.7zm-1.8-.1a6.6 6.6 0 0 0-.6-1.7h-.7l.5 2zm3 4.8a41 41 0 0 0-2-1.6v-.3h2.3V62H135v-1.4h2.4V60h-5.6v.6h2.4V62h-2.4v.6h2.2c-.6 1-1.6 2.2-2.4 2.7l.6.7a9.5 9.5 0 0 0 2-2.3v3.1h.8v-3l1.4 1.2zm5.7-4.6h-4v-2.1a20 20 0 0 0 3.8-1l-.7-.8a15 15 0 0 1-3.3 1h-.7v4c0 1.7-.2 3.8-1.7 5.3l.7.6c1.5-1.7 1.9-3.9 1.9-5.8v-.3h1.7v6h1v-6h1.2zm11.9-1.5v-.8h-5v-1.8h-1v1.8h-4.7v.8h4.8v1.7h-3.6v5.3h.9v-4.5h2.7v6h1v-6h2.7v3.4c.1.1.1.2-.1.2h-1.8c.2.2.3.5.3.8l2.2-.1c.3-.2.5-.4.5-1v-4h-3.9v-1.8zm0 0" style="fill:none;stroke:#fff;stroke-width:3;stroke-linecap:butt;stroke-linejoin:round;stroke-miterlimit:10;stroke-opacity:.6" transform=" rotate(  340 139.789 70.9414) "/> <g style="fill:#212121;fill-opacity:1" transform=" rotate(  340 139.789 70.9414) ">  <use xlink:href="#F" x="119.2" y="65.9"/>  <use xlink:href="#G" x="131.2" y="65.9"/>  <use xlink:href="#s" x="143.2" y="65.9"/> </g> <path d="M5.6 3A2.6 2.6 0 1 1 .4 3a2.6 2.6 0 1 1 5.2 0zm0 0" style="fill:#f8f8f5;fill-opacity:1;fill-rule:nonzero;stroke:#7d7d68;stroke-width:.8;stroke-linecap:butt;stroke-linejoin:miter;stroke-miterlimit:4;stroke-opacity:1" transform="translate(370.99944,73.515629)"/> <path d="M358.6 70.7v-2.8h6.7v2.8zm6.7-6.4V67h-6.7v-2.7zm-3.6-1 .8-1.6-1.1-.3-.7 2h-3v9h1.1v-.8h6.4v.8h1.1v-9zm16.1 1v6.1h-3.4v-8.7h-.9v8.7h-3.3v-6h-.9v7.8h.9v-.9h7.6v1h1v-8.1zm13.6-.3v-.9h-5v-1.7h-.9v1.7h-4.9v.9h5v1.6h-3.8V71h1v-4.5h2.7v6h1v-6h2.7v3.3c.1.2.1.2-.1.2h-1.8l.4 1c1 0 1.6 0 2-.4.6.1.7-.3.7-.8v-4.2h-4V64Zm0 0" style="fill:none;stroke:#fff;stroke-width:3;stroke-linecap:butt;stroke-linejoin:round;stroke-miterlimit:10;stroke-opacity:.6" transform=" rotate(  340 376.598 76.5156) "/> <g style="fill:#212121;fill-opacity:1" transform=" rotate(  340 376.598 76.5156) ">  <use xlink:href="#H" x="356" y="71.5"/>  <use xlink:href="#I" x="368" y="71.5"/>  <use xlink:href="#s" x="380" y="71.5"/> </g> <use style="fill:#fdfdfa;fill-opacity:1;fill-rule:nonzero;stroke:#575747;stroke-width:.5;stroke-linecap:butt;stroke-linejoin:miter;stroke-miterlimit:4;stroke-opacity:1" transform="translate(423.26011,255.88934)" xlink:href="#reuse-1"/> <path d="M416.7 268v.4h1.8v1.1h.8v-7h-.8v5.5zm-1.8-4.5c.8.1 1.4.5 1.4 1.1 0 .4-.6.8-1.4.8-.9.1-1.5-.3-1.5-.9 0-.5.6-1 1.6-1zm0 2.5c1.3.1 2.1-.5 2.1-1.5 0-.9-1-1.5-2.1-1.5-1.3 0-2.3.6-2.3 1.5 0 1 1 1.6 2.4 1.6zm-.4 3.1h.9v-1.7a31 31 0 0 0 2.4-.4v-.5c-2.1.3-4.3.3-6 .3l.3.6h2.4zm-.5 1.6v-2h-.8v2.8h6.4v-.8zm12.4-3.6c-1.3-.4-2.2-1.6-2.2-2.8v-1.1h-.8v1c0 1.6-.9 2.8-2.4 3.2l.6.6c1-.4 1.9-1.2 2.2-2.3.4 1 1.2 1.7 2.2 2zm-3 1.5h-.8v2.8h6v-.7h-5.3zm4.7-3.2v-2.8h-.8v6.6h.8v-3.1h1.4v-.7zm5.5-2h-.8v1.6c0 1.7-1.1 3.4-2.5 4l.5.8c1.2-.6 2-1.7 2.4-3.1.4 1.3 1.3 2.4 2.3 2.9l.5-.7c-1.4-.6-2.4-2.3-2.4-3.9zm3.3-.8v9h.8v-9zm.1 0" style="fill:none;stroke:#fff;stroke-width:3;stroke-linecap:butt;stroke-linejoin:round;stroke-miterlimit:10;stroke-opacity:.6" transform=" rotate(  340 427.012 257.891) "/> <g style="fill:#212121;fill-opacity:1" transform=" rotate(  340 427.012 257.891) ">  <use xlink:href="#J" x="411.5" y="270.8"/>  <use xlink:href="#K" x="420.7" y="270.8"/>  <use xlink:href="#L" x="429.9" y="270.8"/> </g> <use style="fill:#fdfdfa;fill-opacity:1;fill-rule:nonzero;stroke:#575747;stroke-width:.5;stroke-linecap:butt;stroke-linejoin:miter;stroke-miterlimit:4;stroke-opacity:1" transform="translate(360.25155,128.01556)" xlink:href="#reuse-2"/> <path d="M349.7 121.8h2.3v.7h-2.3zm2.3-1.7h-2.3v-.7h2.3zm0 1.2h-2.3v-.7h2.3zm4.7 3v-.6h-4.1v-.6h3.8v-.6h-3.6v-.7h2.9v-.5h-3v-.7h3.1v-.5h-3.2v-.7h3.4v-.6h-3.3l.6-1-.8-.2c0 .4-.3.9-.5 1.2h-2l.8-1-.9-.2a9 9 0 0 1-2.3 3l.4.4 1-1v3.2h2.8v.5h-3.9v.6h3.2c-.8.8-2.3 1.4-3.5 1.8l.4.6a11.6 11.6 0 0 0 3.9-2v1.9h.7v-1.8c1 .6 2.4 1.3 3.8 1.7l.6-.5c-1.4-.3-2.8-1-3.8-1.7zm2.2-4.9h6.7v1.4h.8v-2.1h-3.8v-1h-.8v.9h-3.7v2.2h.9zm5.1 2.8c-.3 1-.7 1.7-1.4 2.3a31 31 0 0 0-2.3-.8l.8-1.5zm2.7 0v-.7h-5.2l.7-1.5-.7-.2c-.3.5-.6 1-.8 1.7h-2.9v.7h2.5l-1.3 2.3.7.2.3-.4 2 .7c-1 .6-2.4 1-4 1.1a3 3 0 0 1 .6.7c1.7-.3 3.1-.7 4.1-1.5 1.3.5 2.3 1 3 1.5l.4-.6c-.6-.5-1.6-1-2.7-1.4.6-.7 1.1-1.5 1.4-2.6zm10-2.4v-.8h-4v-1.4h-1v1.4h-3.9v.8h4v1.2h-3v4.5h.7v-3.7h2.3v5h.8v-5h2.4v2.8c0 .1 0 .2-.2.2h-1.4l.2.7 1.8-.1c.3-.1.4-.4.4-.8v-3.5h-3.2v-1.3Zm0 0" style="fill:none;stroke:#fff;stroke-width:3;stroke-linecap:butt;stroke-linejoin:round;stroke-miterlimit:10;stroke-opacity:.6" transform=" rotate(  340 364 130.016) "/> <g style="fill:#212121;fill-opacity:1" transform=" rotate(  340 364 130.016) ">  <use xlink:href="#M" x="347.3" y="126"/>  <use xlink:href="#N" x="357.3" y="126"/>  <use xlink:href="#O" x="367.3" y="126"/> </g> <path d="M3.8 2C3.8 3 3 3.8 2 3.8S.3 3 .3 2a1.7 1.7 0 1 1 3.5 0zm0 0" style="fill:#fdfdfa;fill-opacity:1;fill-rule:nonzero;stroke:#575747;stroke-width:.5;stroke-linecap:butt;stroke-linejoin:miter;stroke-miterlimit:4;stroke-opacity:1" transform="translate(459.85912,199.35867)"/> <path d="M456 206h-1v6.8h1zm-2 4.7c-1.3-.7-2.3-1.8-2.3-3.1v-1.1h-.7v1.1c0 1.2-1 2.5-2.3 3l.3.8a4 4 0 0 0 2.4-2.4c.3 1 1.1 1.8 2.2 2.2zm-3 3.5v-2.1h-.8v2.8h6v-.7zm9.7-6.6h2.3v3h-2.3zm1.5 5.7v-2h3v-.8h-1.5v-2.9h1.5v-.6h-6.7v.6h1.5v3h-1.5v.6h3v2h-3.8v.8h8.2v-.7zm8-6.4h-.8v1.6c0 1.7-1.1 3.4-2.5 4l.5.7c1.1-.5 2-1.7 2.4-3 .4 1.3 1.2 2.3 2.2 2.8l.6-.6c-1.4-.6-2.4-2.4-2.4-4zm3.3-.9v9h.8v-9zm0 0" style="fill:none;stroke:#fff;stroke-width:3;stroke-linecap:butt;stroke-linejoin:round;stroke-miterlimit:10;stroke-opacity:.6" transform=" rotate(  340 463.609 201.359) "/> <g style="fill:#212121;fill-opacity:1" transform=" rotate(  340 463.609 201.359) ">  <use xlink:href="#P" x="448.1" y="214.3"/>  <use xlink:href="#Q" x="457.3" y="214.3"/>  <use xlink:href="#L" x="466.5" y="214.3"/> </g> <path d="M3.7 2C3.7 3 3 3.7 2 3.7A1.7 1.7 0 1 1 3.7 2zm0 0" style="fill:#fdfdfa;fill-opacity:1;fill-rule:nonzero;stroke:#575747;stroke-width:.5;stroke-linecap:butt;stroke-linejoin:miter;stroke-miterlimit:4;stroke-opacity:1" transform="translate(466.46996,82.896317)"/> <path d="M455.8 76.8c-1.3-.4-2.2-1.6-2.2-2.8v-.9h-.8v1c0 1.2-.9 2.4-2.2 2.9l.4.7a3.8 3.8 0 0 0 2.2-2.3c.4 1 1.2 1.7 2.2 2zm-3 2.2h3.9v1.8h-3.9zm-1 2.5h5.8v-3.2h-5.7zM459 75h-1.4v-2.3h-.9v5.2h.9v-2.3h1.3zM463 74.3h2.1v-.7h-5v.7h2v1.1c.1 1.6-.9 3.2-2.2 3.9l.4.6c1-.5 1.9-1.6 2.3-2.9.4 1.3 1.3 2.3 2.3 2.8l.5-.8c-1.4-.5-2.4-2-2.4-3.6zm3.3-1.6v9h.8v-9.1zm3.7 2.8c0-.9.5-1.5 1.4-1.5.9 0 1.6.6 1.6 1.5s-.7 1.5-1.5 1.5c-1 0-1.6-.6-1.6-1.5zm5.5-.8v1.5h-1.9l.1-.7v-.8zm.1 2.3v2.3h.8v-6.6h-.8V74h-2.3c-.4-.4-1-.8-1.8-.8-1.5 0-2.5 1-2.5 2.3.1 1.3 1.1 2.2 2.5 2.2.7 0 1.4-.3 1.8-.7zm-4.1 3.8v-2.2h-.8v2.8h6v-.6zm9.9-7.4h-.8v1.7c0 1.7-1.1 3.4-2.4 3.9l.5.8c1-.6 1.9-1.8 2.3-3 .4 1.2 1.3 2.2 2.3 2.8l.5-.7c-1.3-.6-2.4-2.2-2.4-3.8zm3.3-.7v9h.8v-9zm0 0" style="fill:none;stroke:#fff;stroke-width:3;stroke-linecap:butt;stroke-linejoin:round;stroke-miterlimit:10;stroke-opacity:.6" transform=" rotate(  340 470.219 84.8945) "/> <g style="fill:#212121;fill-opacity:1" transform=" rotate(  340 470.219 84.8945) ">  <use xlink:href="#R" x="450.1" y="80.9"/>  <use xlink:href="#S" x="459.3" y="80.9"/>  <use xlink:href="#T" x="468.5" y="80.9"/>  <use xlink:href="#L" x="477.7" y="80.9"/> </g> <use style="fill:#fdfdfa;fill-opacity:1;fill-rule:nonzero;stroke:#575747;stroke-width:.5;stroke-linecap:butt;stroke-linejoin:miter;stroke-miterlimit:4;stroke-opacity:1" transform="translate(151.00829,240.01533)" xlink:href="#reuse-3"/> <path d="M140.3 235.3v1h-4.5v-1.1Zm-4.5 2.5v-1h4.5v1zm-.8 1h.8v-.4h4.5v.3h.7v-4h-6zm2.3-7.3h1.3v2h-1.3zm2 2v-2.1h2.7v-.5h-2l.5-1-.5-.3-.8 1.1.3.3h-3l.2-.3c0-.3-.4-.7-.7-1l-.6.1.6 1.1h-2v.6h2.6v2h-3v.5h8.9v-.6zm-4.7-1.8c.4.6.7 1.3.8 1.7l.7-.4a5.2 5.2 0 0 0-.9-1.4zm5.8 1.7 1-1.6-.6-.2-1 1.6zm6.6-2a8.8 8.8 0 0 0-1.2-1.7l-.8.3a9 9 0 0 1 1.3 1.8zm5 .6h-2.4c.5-.7 1-1.4 1.4-2.1l-.8-.2-1.4 2.2H144v.7h8zm-.6 3.4v-.8h-6.9v.8zm-7.8 2.1v.8h8.8v-.8zm17.4.2h-4.5v-1.9h4.5zm-2-5.7h-.7v3h-2.4v3.8h.7v-.4h4.4v.4h.7V235H159v-1.3h3.4v-.7H159zm-.3-1.1v-1.2h-.8v1.2h-3.7v2.6c0 1.5 0 3.5-.8 4.9l.6.4c.8-1.5 1-3.8 1-5.3v-1.9h7.5v-.6zm13.8 6.6h-7.8V231h7.6v-.7H164v8.5h.7v-.6h7.8zm-1.2-1.4a15.2 15.2 0 0 0-2.3-2l1.8-2.5-.7-.3a14 14 0 0 1-1.5 2.4 27.8 27.8 0 0 0-2.3-1.7l-.6.5c.8.5 1.6 1 2.4 1.7-.9 1-1.8 1.7-2.8 2.3a7 7 0 0 1 .7.6c1-.7 1.8-1.5 2.6-2.4.9.7 1.6 1.3 2 2zm0 0" style="fill:none;stroke:#fff;stroke-width:3;stroke-linecap:butt;stroke-linejoin:round;stroke-miterlimit:10;stroke-opacity:.6" transform=" rotate(  340 154.758 242.016) "/> <g style="fill:#212121;fill-opacity:1" transform=" rotate(  340 154.758 242.016) ">  <use xlink:href="#U" x="133" y="238"/>  <use xlink:href="#V" x="143" y="238"/>  <use xlink:href="#W" x="153" y="238"/>  <use xlink:href="#X" x="163" y="238"/> </g> <use style="fill:#fdfdfa;fill-opacity:1;fill-rule:nonzero;stroke:#575747;stroke-width:.5;stroke-linecap:butt;stroke-linejoin:miter;stroke-miterlimit:4;stroke-opacity:1" transform="translate(335.91827,34.042699)" xlink:href="#reuse-3"/> <path d="m324.8 30.8.1-1.5h1.4l-.3 1.5zm-.5-1.5-.2 1.5H323v-1.5zm.2-2.3-.1 1.6H323l.3-1.5zm.5 1.6.1-1.5h1.3v1.5zm2.6.7v-.7h-.6v-2.1h-4.2l-.3 2.1h-.8v.4a30.9 30.9 0 0 0-1.2-1.7v-.8h1.1l.6.5 1-1.4h4.1v-.7h-3.9l.4-.9-.8-.4c-.2 1.1-.7 2.1-1.3 2.9v-.7h-1.2v-2.1h-.5v2.1h-1.5v.7h1.3c-.3 1.5-1 3-1.5 3.8a4 4 0 0 1 .4.6c.3-.6.8-1.7 1.2-2.8v4.7h.6V28a16 16 0 0 1 .8 1.6l.4-.6v.3h.7l-.4 2.6h.7v-.3h3.3l-.2.4-.3.2h-1l.2.6h1c.3 0 .6-.1.8-.4l.2-1h.8v-.5h-.7l.2-1.6zm2.9-1.8a19.2 19.2 0 0 0-1.8-1l-.4.6a17 17 0 0 1 1.7.9zm-1.3 5.2 1.8-3.2-.6-.5a25.7 25.7 0 0 1-1.8 3.2zM334 27v2.4h-1.7V27zm.8 3v-3.7h-3.2v4.4h.7V30zm2.7-5.8H331v.8a27.1 27.1 0 0 0-1.8-1.1l-.5.4 2 1.1.3-.4h5v6.7c0 .3 0 .3-.3.3h-2l.3.8c1.1 0 1.8 0 2.2-.2.4 0 .5-.3.5-.9V25h.8zM340 31v-5.6h5.9V31zm-.8-6.3v7.9h.8v-.9h5.9v.8h.8v-7.8zm18.2 1.1V25h-4.1v-1.4h-.8v1.5h-4v.7h4V27h-3v4.6h.7v-3.8h2.3v5h.8v-5h2.4v2.8c0 .2 0 .2-.2.2H354l.3.7 1.7-.1c.4-.1.5-.3.5-.8v-3.5h-3.2v-1.3zm0 0" style="fill:none;stroke:#fff;stroke-width:3;stroke-linecap:butt;stroke-linejoin:round;stroke-miterlimit:10;stroke-opacity:.6" transform=" rotate(  340 339.668 36.043) "/> <g style="fill:#212121;fill-opacity:1" transform=" rotate(  340 339.668 36.043) ">  <use xlink:href="#Y" x="317.9" y="32"/>  <use xlink:href="#Z" x="327.9" y="32"/>  <use xlink:href="#aa" x="337.9" y="32"/>  <use xlink:href="#O" x="347.9" y="32"/> </g> <use style="fill:#fdfdfa;fill-opacity:1;fill-rule:nonzero;stroke:#575747;stroke-width:.5;stroke-linecap:butt;stroke-linejoin:miter;stroke-miterlimit:4;stroke-opacity:1" transform="translate(20.601274,96.484765)" xlink:href="#reuse-4"/> <path d="M9.4 88h6.5v1.2h.7v-2H13v-1h-.8v.9H8.7v2.1h.7zm7.5 1.8H8.4v.8h3.8v3.7c0 .1 0 .2-.2.2h-1.7l.3.7h1.9c.4-.2.5-.5.5-1.1v-3.4h3.9zm4 2.4-1 .3v-3.3H21v-.7h-1.1v-2.3h-.7v2.3h-1v.7h1v3.6l-1.1.4.2.7L21 93zm5.3-2.8a10 10 0 0 1-.9 2.6l-.3-3.7h2v-.7h-.5l.4-.3a6 6 0 0 0-1.2-1.1l-.5.3 1.1 1.1H25v-1.5h-.7v1.5h-3v3.1c0 1.3-.1 3-1.1 4.1l.5.5C21.8 94 22 92 22 90.8v-.5h1.2l-.1 2.6H22l.2.8h.9c.2-.1.4-.2.5-.4.2-.3.2-1 .4-3.3v-.3h-2.1v-1.4h2.5c-.1 1.8.1 3.3.4 4.5a6.7 6.7 0 0 1-2 1.9l.5.5c.7-.4 1.2-1 1.7-1.6.3 1 .7 1.5 1.3 1.5.6 0 .9-.4 1-2l-.6-.2c0 1.1-.1 1.5-.3 1.5-.3 0-.6-.4-.9-1.4.6-1 1-2 1.5-3.5zm4.3 1.2h4.4v1h-4.4zm4.4-3.3v1h-4.4v-1Zm-4.4 1.5h4.4V90h-4.4zm6.5 3.6v-.7h-1.4v-5.1h-5.8v5h-1.6v.9H31c-.6.5-1.3 1.2-1.5 1.3-.3.3-.5.4-.7.4a4 4 0 0 1 .2.8c.4-.2 1-.2 6.5-.5l.5.8.8-.5a17.3 17.3 0 0 0-2.4-2.3l-.7.3L35 94l-4.9.1a14 14 0 0 0 1.9-1.7zm0 0" style="fill:none;stroke:#fff;stroke-width:3;stroke-linecap:butt;stroke-linejoin:round;stroke-miterlimit:10;stroke-opacity:.6" transform=" rotate(  340 24.3516 98.4844) "/> <g style="fill:#212121;fill-opacity:1" transform=" rotate(  340 24.3516 98.4844) ">  <use xlink:href="#ab" x="7.6" y="94.5"/>  <use xlink:href="#ac" x="17.6" y="94.5"/>  <use xlink:href="#ad" x="27.6" y="94.5"/> </g> <use style="fill:#fdfdfa;fill-opacity:1;fill-rule:nonzero;stroke:#575747;stroke-width:.5;stroke-linecap:butt;stroke-linejoin:miter;stroke-miterlimit:4;stroke-opacity:1" transform="translate(216.06194,182.73618)" xlink:href="#reuse-4"/> <path d="M206.6 178.9h-.8v-6.2h-.6v6.2h-.8v-4.5h-.6v6.1h.6v-1h2.2v.7h.6v-5.8h-.6zm3.8 1.4V178h1.3v2.3zm-2-2.3h1.3v2.3h-1.3zm1.3-2.8v2.1h-1.3v-2.1zm2 0v2.1h-1.3v-2.1zm-1.3-.7v-2h-.7v1.9h-1.9v7.1h.6v-.5h3.3v.4h.7v-7zm11.4-1.7h-.7v1.4h-2.7v-1.8h-.7v1.8H215v-1.4h-.7v2.2h7.5zm-.8 7.6h-4.7v-1.7h4.7zm1.5-3.7v-.7h-8.8v.7h2.6a7.5 7.5 0 0 1-3 3c.3-.1.5.3.6.4a8 8 0 0 0 1.7-1.2v2.6h.7v-.4h4.7v.4h.8V178h-5.5c.4-.4.7-.9.9-1.3zm3.5.1h4.2v1.2H226Zm4.2-3.3v1H226v-.9Zm-4.2 1.7h4.3v1H226zm6.5 3.4v-.6H231v-5h-5.8v4.8h-1.5v.8h2.8l-1.5 1.5-.7.4a4 4 0 0 1 .2.7l6.5-.4.6.7.6-.3a17.3 17.3 0 0 0-2.4-2.4l-.6.3 1.2.9-4.8.5a14 14 0 0 0 1.8-1.9zm0 0" style="fill:none;stroke:#fff;stroke-width:3;stroke-linecap:butt;stroke-linejoin:round;stroke-miterlimit:10;stroke-opacity:.6" transform=" rotate(  340 219.812 184.734) "/> <g style="fill:#212121;fill-opacity:1" transform=" rotate(  340 219.812 184.734) ">  <use xlink:href="#ae" x="203.1" y="180.7"/>  <use xlink:href="#af" x="213.1" y="180.7"/>  <use xlink:href="#ad" x="223.1" y="180.7"/> </g> <path d="M3.7 2C3.7 3 3 3.7 2 3.7S.2 3 .2 2 1 .2 2 .2 3.7 1 3.7 2zm0 0" style="fill:#fdfdfa;fill-opacity:1;fill-rule:nonzero;stroke:#575747;stroke-width:.5;stroke-linecap:butt;stroke-linejoin:miter;stroke-miterlimit:4;stroke-opacity:1" transform="translate(200.90636,221.01969)"/> <path d="M197.4 212.6v-.6h-3.8v-1.3h-.8v1.2h-3.7v2.6c0 1.5 0 3.5-.8 4.9l.5.4c.9-1.5 1.1-3.8 1.1-5.3v-1.9zm-3.4 6.2v-3h2.9v-.8h-2.8v-2h-.8v2h-2.6v.8h2.6v3H190v.7h7.4v-.7zm6.5-4.3a19.2 19.2 0 0 0-1.8-1l-.4.6a17 17 0 0 1 1.7.9zm-1.3 5.1 1.8-3.1-.6-.5a25.7 25.7 0 0 1-1.9 3zm4.8-5.5v2.2h-1.7v-2.2zm.8 2.9v-3.6h-3.2v4.3h.7v-.7zm2.6-5.7H201v.5a27.1 27.1 0 0 0-1.9-1l-.4.5 1.9 1.2.4-.6v.1h5v6.7c0 .3 0 .3-.3.3h-2c.1.2.3.5.3.8 1 0 1.8 0 2.2-.2.4-.1.5-.3.5-.9V212h.8Zm10 1.5v-.8h-4.1v-1.4h-.8v1.4h-4v.8h4v1.2h-3v4.6h.7v-3.8h2.3v5h.8v-5h2.4v2.8c0 .1 0 .2-.2.2H214l.3.7 1.7-.1c.4-.1.5-.4.5-.8v-3.5h-3.3v-1.3zm0 0" style="fill:none;stroke:#fff;stroke-width:3;stroke-linecap:butt;stroke-linejoin:round;stroke-miterlimit:10;stroke-opacity:.6" transform=" rotate(  340 204.656 223.02) "/> <g style="fill:#212121;fill-opacity:1" transform=" rotate(  340 204.656 223.02) ">  <use xlink:href="#ag" x="187.9" y="219"/>  <use xlink:href="#Z" x="197.9" y="219"/>  <use xlink:href="#O" x="207.9" y="219"/> </g> <use style="fill:#fdfdfa;fill-opacity:1;fill-rule:nonzero;stroke:#575747;stroke-width:.5;stroke-linecap:butt;stroke-linejoin:miter;stroke-miterlimit:4;stroke-opacity:1" transform="translate(43.773582,148.49008)" xlink:href="#reuse-3"/> <path d="M37.4 156.5h1.5v.7h-1.5zm1.5 2h-1.5v-.7h1.5zm-2.2 0h-2.1v.6h2v.9h-1.9v.4h1.8v.8h-2.3v.6h2.5v1h.7v-.9h2.7v-.7h-2.7v-.8h2.3v-.4h-2.3v-1h2.2v-1.2h.7v-.6h-.7v-1.3h-2.2v-.7h-.7v.7h-2v.6h1.9v.7h-2.7v.6h2.8zm-3 0h-1.1c.4-.9 1-2 1.2-2.7l-.5-.1h-2.1v.7h1.5l-1.3 3 .6.2.2-.4h1.2a9.5 9.5 0 0 1-.6 2.3 5.8 5.8 0 0 1-.7-1.5l-.5.2c.2.8.4 1.5 1 2a4.3 4.3 0 0 1-1.6 1.5l.7.5c.5-.2 1-.8 1.3-1.5 1 1 2.5 1.3 4.3 1.3h2.8l.3-.8h-3c-1.8 0-3.1-.2-4.1-1 .3-1.1.7-2.2.8-3.7zM48 157h-4.5v-1H48zm0 1.4h-4.5v-.9H48zm.8-3h-6v3.8h6zm-6 7.8v-1.1h6v.9zm6-2.7v1h-6v-1zm-6.8-.7v4.4h.8v-.4h6v.4h.8v-4.4zm11.6-.2h4.5v1h-4.5zm4.5-3.4v1h-4.5v-.9zm-4.5 1.8h4.5v.9h-4.5zm6.6 3.3v-.6h-1.4v-5.1h-5.9v5h-1.5v.8h2.8l-1.5 1.4-.7.4a4 4 0 0 1 .2.7l6.5-.4.6.7.6-.2a17.3 17.3 0 0 0-2.4-2.5l-.5.3 1.1 1.1-4.8.2a14 14 0 0 0 1.8-1.8zm0 0" style="fill:none;stroke:#fff;stroke-width:3;stroke-linecap:butt;stroke-linejoin:round;stroke-miterlimit:10;stroke-opacity:.6" transform=" rotate(  340 47.5234 150.488) "/> <g style="fill:#212121;fill-opacity:1" transform=" rotate(  340 47.5234 150.488) ">  <use xlink:href="#ah" x="30.8" y="163.5"/>  <use xlink:href="#ai" x="40.8" y="163.5"/>  <use xlink:href="#ad" x="50.8" y="163.5"/> </g> <use style="fill:#fdfdfa;fill-opacity:1;fill-rule:nonzero;stroke:#575747;stroke-width:.5;stroke-linecap:butt;stroke-linejoin:miter;stroke-miterlimit:4;stroke-opacity:1" transform="translate(179.21213,44.511281)" xlink:href="#reuse-2"/> <path d="M174.7 52a8 8 0 0 1-2.4 2l.5.5c1-.5 2-1.4 2.6-2.3zm.3 2.6c-.6.9-1.7 1.7-2.7 2.2l.6.6c1-.6 2-1.5 2.7-2.5zm-4.4-1.6c0 .4-.2.8-.4 1h.2-1.9.3c0-.3-.1-.7-.3-1zm1.7 1h-1.5l.5-1h-.3 1.1v-.5H170v-.8h-.8v.8H167v.5h1.3-.3l.2 1.2h-1.5v.5h5.6zm-4.3 2.9h3v.6h-3zm0-1.1h3v.6h-3zm4.4 3.5v-.6h-2.5V58h2.1v-2.8h-4.7V58h2v.7h-2.7v.6h2.6V61h.8v-1.7Zm2.8-1.8c-.7 1.2-2 2.2-3.4 2.8a3 3 0 0 1 .6.6 8.6 8.6 0 0 0 3.5-3.1zm10.2-4.2L184 52l-.6.3c.5.5 1.2 1 1.5 1.5zm-4-1h-3.8v.7h3.8zm-1.4 5h2v-.7h-2v-1.4h-.6v4.3l-1.1.2V56h-.7v3.9l-1 .1.4.7 5.2-1V59l-2.1.4zm5.6-2.4v-.7H183v-2.4h-.9v2.4h-5.3v.7h5.5c.2 3.4 1 6 2.4 6 .7 0 1-.5 1.1-2.2l-.6-.4c0 1.3-.2 1.9-.4 1.9-1 0-1.6-2.2-1.8-5.3zm3.4 1.3h4.6v1.1H189zm4.6-3.2v.9H189V53Zm-4.6 1.6h4.5v1H189zm6.6 3.4v-.7h-1.4v-5h-5.8v4.9h-1.6v.8h2.8l-1.5 1.5-.7.4a4 4 0 0 1 .2.7c.4-.1 1-.2 6.5-.4l.6.7.7-.4a17.3 17.3 0 0 0-2.4-2.3l-.7.3 1.3 1-4.8.4a14 14 0 0 0 1.8-1.9zm0 0" style="fill:none;stroke:#fff;stroke-width:3;stroke-linecap:butt;stroke-linejoin:round;stroke-miterlimit:10;stroke-opacity:.6" transform=" rotate(  340 182.961 46.5117) "/> <g style="fill:#212121;fill-opacity:1" transform=" rotate(  340 182.961 46.5117) ">  <use xlink:href="#aj" x="166.2" y="60.1"/>  <use xlink:href="#ak" x="176.2" y="60.1"/>  <use xlink:href="#ad" x="186.2" y="60.1"/> </g> <path d="M3.7 2C3.7 3 3 3.8 2 3.8S.2 3 .2 2a1.7 1.7 0 1 1 3.5 0zm0 0" style="fill:#fdfdfa;fill-opacity:1;fill-rule:nonzero;stroke:#575747;stroke-width:.5;stroke-linecap:butt;stroke-linejoin:miter;stroke-miterlimit:4;stroke-opacity:1" transform="translate(422.72271,55.369852)"/> <path d="m413.3 67-1.2.2v-1.9h1.2v-.7h-1.2v-2h-.7v2h-1.2v.7h1.2v2.2l-1.3.4.1.7 1.2-.3v2.5c0 .2 0 .2-.2.2a9 9 0 0 1-1 0c.3.2.4.5.4.7.6 0 .9 0 1.2-.2.2 0 .2-.3.2-.7V68l1.5-.4zm4 3.7c-.3.1-.3.1-.3-.2v-3.7h2.3V66H416l.2-2.1h2.4v-.7h-4.8v.8h1.7c0 .6 0 1.4-.2 2.1h-2v.7h2c-.3 1.8-1 3.4-2.8 4.4l.6.6c1.8-1.2 2.6-3 2.9-5h.2v3.7c.1.8.3 1 1.1 1h1.1c.6 0 .9-.3 1-1.5-.2 0-.5 0-.7-.3 0 1 0 1.1-.3 1.1zM427 63c.5 1.4 1.1 3 1.8 4l.6-.6a12 12 0 0 1-1.7-3.6zm-1.8-.2c-.3 1.5-.9 2.8-1.7 3.7a4 4 0 0 1 .7.5c.8-1 1.4-2.5 1.7-4zm-1.4 5.2a60 60 0 0 0-1.3-1.7v-.9h1.3v-.7h-1.3v-2.1h-.7v2.1h-1.5v.7h1.4c-.4 1.4-1 3-1.7 3.8l.4.7c.6-.7 1-1.9 1.4-2.9v4.7h.7v-4.5l.9 1.4zm3.3.6a19 19 0 0 1 .9 1.7l-2.7.2c.5-1 1-2.6 1.4-3.8l-.7-.2-1.4 4h-1v.9l4.9-.4.2.8.7-.5c-.4-.7-1-2-1.7-3zm5.5-1.6h4.4v1.3h-4.4zm4.4-3.2v1h-4.4v-1zm-4.4 1.6h4.4v1h-4.4zm6.5 3.4v-.6h-1.4V63H432v5h-1.7v.9h2.8l-1.5 1.4-.6.4a4 4 0 0 1 .2.8c.3-.2.8-.2 6.4-.5l.6.7.8-.3a17.3 17.3 0 0 0-2.5-2.4l-.7.3 1.3 1.1-4.8.2a14 14 0 0 0 1.7-1.8zm0 0" style="fill:none;stroke:#fff;stroke-width:3;stroke-linecap:butt;stroke-linejoin:round;stroke-miterlimit:10;stroke-opacity:.6" transform=" rotate(  340 426.473 57.3711) "/> <g style="fill:#212121;fill-opacity:1" transform=" rotate(  340 426.473 57.3711) ">  <use xlink:href="#al" x="409.7" y="71"/>  <use xlink:href="#am" x="419.7" y="71"/>  <use xlink:href="#ad" x="429.7" y="71"/> </g> <use style="fill:#fdfdfa;fill-opacity:1;fill-rule:nonzero;stroke:#575747;stroke-width:.5;stroke-linecap:butt;stroke-linejoin:miter;stroke-miterlimit:4;stroke-opacity:1" transform="translate(48.790416,50.906214)" xlink:href="#reuse-2"/> <path d="M40.8 43.3H39v-1h1.5v-.8h-1.6v-.9h-.7v1h-1.5v.6h1.5v1h-2v.8h4.6zM44 43c-.2 1.3-.5 2.4-1 3.3l-.7-3.3Zm1.4 0v-.6h-3l.4-1.7-.8-.2c-.3 1.7-.8 3.3-1.5 4.5h.2-1.8v-1h-.7v1h-2v.6h1.5c-.1 1.5-.4 2.8-1.5 3.5.2.1.4.4.4.6 1-.7 1.4-1.5 1.5-2.7h1.6c0 1.3-.1 1.8-.2 2h-1.4l.4.6h.9c.4 0 .6 0 .8-.2.1-.4.2-1 .2-2.6v-.3h-2.1v-.9h2.5v-.5l.3.3.6-1.2c.3 1 .5 2 1 2.8-.7 1-1.5 1.5-2.5 2l.5.7a6.7 6.7 0 0 0 2.3-2c.5 1 1.1 1.6 2 2.1l.3-.8c-.7-.4-1.3-1-1.9-2 .8-1 1.1-2.2 1.4-4zm3.6-1.2a8.9 8.9 0 0 0-2-1.1l-.3.5c.7.3 1.5.8 1.9 1.2zm-.5 2.6a9 9 0 0 0-1.9-1l-.4.6a9 9 0 0 1 1.9 1zm0 1.4a30.2 30.2 0 0 1-2.1 3.2l.7.5a35 35 0 0 0 1.8-3.2zM54 42c-.3 1.8-1 3.2-1.7 4.3a12.5 12.5 0 0 1-1.8-4.3zm.4-.7h-5v.7h.4c.4 2 1 3.6 2 5-1 1-2 1.5-3.2 2l.5.8a8.7 8.7 0 0 0 3.1-2.3c.8 1 1.8 1.6 2.8 2.1l.4-.6a6.9 6.9 0 0 1-2.7-2c1-1.4 1.8-3.2 2.1-5.6zm7.5 5.2h1.8v.7H62zm1.8-2.6v.8H62v-.8zM62 45.2h1.7v.7H62zm-2 2v.6h5.4v-.6h-1v-3.3h.8v-.6h-.8v-.7h-.7v.7H62v-.7h-.8v.7h-.9v.7h.9v3.2zm-.1-3H58v-1.5h1.8l.6.6c.3-.3.5-.7.6-1.1h4.3v-.6h-3.8l.3-.9-.8-.2a5.4 5.4 0 0 1-.9 2v-.3h-1.5v-1.6H58v1.6h-1.7v.6h1.1v1.8c0 1.4-.1 3.2-1.3 4.6a4 4 0 0 1 .5.5c1.4-1.5 1.5-3.3 1.5-4.9h1.1c0 2.8-.1 3.8-.3 4 .1.2-.1.2-.3.2H58v.6h.9c.3 0 .5 0 .6-.3.2-.3.3-1.5.5-4.8zm1.8 3.6c-.4.5-1.2 1.1-1.8 1.4l.5.5 1.9-1.5zm1.5.5c.6.3 1.4 1 1.8 1.3l.4-.3c-.3-.3-1-1-1.6-1.3zm0 0" style="fill:none;stroke:#fff;stroke-width:3;stroke-linecap:butt;stroke-linejoin:round;stroke-miterlimit:10;stroke-opacity:.6" transform=" rotate(  340 52.5391 52.9063) "/> <g style="fill:#212121;fill-opacity:1" transform=" rotate(  340 52.5391 52.9063) ">  <use xlink:href="#an" x="35.8" y="48.9"/>  <use xlink:href="#ao" x="45.8" y="48.9"/>  <use xlink:href="#ap" x="55.8" y="48.9"/> </g> <use style="fill:#fdfdfa;fill-opacity:1;fill-rule:nonzero;stroke:#575747;stroke-width:.5;stroke-linecap:butt;stroke-linejoin:miter;stroke-miterlimit:4;stroke-opacity:1" transform="translate(303.13518,87.893118)" xlink:href="#reuse-1"/> <path d="M295.2 96.2h-1.9v-1h-.7v1h-1.8v.6h4.4zm-1.2 2.2.6-1.4-.7-.2c.1.4-.3 1-.5 1.5zm-1.6-.1c0-.4-.2-1-.4-1.5l-.6.2.4 1.4zm2.5 4-1.6-1.3v-.3h1.9v-.6h-1.9v-1h2v-.7h-4.6v.7h2v.9h-2.1v.7h1.9c-.5 1-1.3 1.8-2 2.3l.3.5a8.2 8.2 0 0 0 1.8-1.9v2.6h.7v-2.5l1.2 1.1zm4.8-3.8h-3.3v-1.8a16 16 0 0 0 3.2-1l-.6-.4a14 14 0 0 1-2.8.8l-.5-.2v3.5c0 1.4-.2 3.1-1.5 4.4.2 0 .5.2.6.5 1.4-1.4 1.6-3.4 1.6-4.9v-.2h1.4v5h.8v-5h1.1zm2-1.7h6.9v1.4h.7v-2H306a6.7 6.7 0 0 0-.8-1.2l-.8.3.5.7H301v2.2h.8zm1.7 5.5c-.7.5-1.8 1-2.7 1.4.2 0 .5.3.6.5.9-.4 2-1 2.7-1.6zm2.6.5c1.1.4 2.3 1 3 1.5l.4-.7-2.9-1.4zm-2.9-2.8h3.3v1.4h-3.3zm3.9 1.4V100h1.9v-.7h-5.8v-.7c1.7-.2 3.7-.4 4.9-.7l-.2-.6c-1.4.3-3.6.6-5.5.7v3.4h-1.5v.6h8.7v-.6zm6-1.8h4.4v1.1H313zm4.4-3.3v1H313v-1zm-4.4 1.6h4.4V99H313zm6.6 3.5v-.7h-1.4v-5.1h-6v5.1h-1.4v.7h2.7l-1.5 1.5c-.2.1-.5.3-.7.3a4 4 0 0 1 .3.8c.3-.2.9-.2 6.4-.5l.7.8.6-.4a17.3 17.3 0 0 0-2.4-2.3l-.6.2 1.2 1.2-4.8.1a14 14 0 0 0 1.8-1.7zm0 0" style="fill:none;stroke:#fff;stroke-width:3;stroke-linecap:butt;stroke-linejoin:round;stroke-miterlimit:10;stroke-opacity:.6" transform=" rotate(  340 306.887 89.8945) "/> <g style="fill:#212121;fill-opacity:1" transform=" rotate(  340 306.887 89.8945) ">  <use xlink:href="#aq" x="290.1" y="103.5"/>  <use xlink:href="#ar" x="300.1" y="103.5"/>  <use xlink:href="#ad" x="310.1" y="103.5"/> </g> <path d="M110.3 190.3c0 .1 0 .2-.3.2h-1.3l.2.6c.8.1 1.3.1 1.7-.1.3 0 .4-.3.4-.7v-3.6c1-.7 1.8-1.5 2.4-2.2l-.4-.5h-5.4v1h4.4l-1.7 1.4zm-3.3-4.9c-.2-.5-1-1.2-1.5-1.7l-.5.4 1.5 1.7zm-.3 1.5h-2v.7h1.3v3.1c-.5.3-1 .6-1.4 1.3l.4.7c.6-.7 1-1.4 1.3-1.4.2 0 .6.4 1 .7.7.4 1.5.5 2.7.5h3.7c0-.4 0-.8.2-1l-3.7.3c-1.2 0-2 0-2.7-.5l-.8-.5zm10.1 2.4a7 7 0 0 1-1.8 2.5 4 4 0 0 1 .6.4 9.2 9.2 0 0 0 2-2.7zm6.1-.8v-.7H120v-1.5h-.7v1.5h-2.4l1.4-2.3h5v-.7h-4.6l.5-1-.8-.3-.6 1.3H115v.7h2.4l-1 1.6c-.1.4-.4.7-.6.8a8 8 0 0 1 .2.7l1-.1h2.4v3.1c-.1.2-.1.2-.4.2h-1.2l.3.8c.7 0 1.2 0 1.5-.2.4-.1.4-.3.4-.8v-3.1zm-1.9 1a14 14 0 0 1 1.8 2.7l.8-.4a14.7 14.7 0 0 0-2.1-2.5zM127.3 184.7c-.5-.4-1.3-.8-1.8-1l-.4.4c.6.3 1.4.8 1.7 1.1zm.9.6a4 4 0 0 1-1.2 1.5l.5.4c.5-.4 1-1 1.3-1.7zm-1.4 2c-.4-.4-1.2-.8-1.8-1l-.4.5a7 7 0 0 1 1.7 1zm-1.3 5.2 1.6-3.2-.6-.3a28.6 28.6 0 0 1-1.6 3zm4.5-7.4h1v1.8l-.3.1h-.7l.3.5h1c.2-.2.3-.4.3-.7V185h2.1v-.6h-2.9v-.9h-.7v1h-2.7v.5h2v.6c0 .6-.2 1.4-1.2 1.8.2 0 .4.2.5.3 1.1-.5 1.3-1.4 1.3-2Zm-1.6 5.2.2-.7h4.4v-1.9h-5.5v.6h4.8v.8H128l-.6 1.9.7.4.1-.5h4.3c0 .6-.2 1-.4 1l-.4.1h-1.2l.2.6h1.3c.3 0 .5 0 .7-.2.2-.2.3-.7.6-1.8v-.3zm3.5-4.6c.5.3 1.1 1 1.3 1.5l.6-.3a7.7 7.7 0 0 0-1.3-1.5zm.1 0" style="fill:none;stroke:#fff;stroke-width:2;stroke-linecap:butt;stroke-linejoin:round;stroke-miterlimit:10;stroke-opacity:.6" transform=" rotate(  340 119.202 188.889) "/> <g style="fill:#4c7fb3;fill-opacity:1" transform=" rotate(  340 119.202 188.889) ">  <use xlink:href="#as" x="104.2" y="191.9"/>  <use xlink:href="#at" x="114.2" y="191.9"/>  <use xlink:href="#au" x="124.2" y="191.9"/> </g></svg>