<svg xmlns="http://www.w3.org/2000/svg" xmlns:xlink="http://www.w3.org/1999/xlink" viewBox="0 0 497 279"> <defs>  <path d="M1 0v-7.1h4V0Zm.4-.5h3.1v-6.1h-3Zm.1 0" id="reuse-0"/> </defs> <defs overflow="visible" style="stroke:none">  <path d="m2.8-5.5.8.3a2 2 0 0 1 .8.4l.3-.6h.6V.1c0 .8-.2 1.3-.6 1.7-.4.4-1 .6-1.8.6S1.5 2.3 1 2.1v-.9c.6.4 1.3.6 2 .6.5-.1.9-.3 1-.5.3-.3.4-.7.4-1.1v-.9c-.3.5-.9.8-1.6.8C2 0 1.5-.1 1-.6c-.3-.5-.5-1.2-.5-2 0-1.1.2-1.7.6-2.2.4-.4 1-.7 1.6-.7Zm0 .8c-.3 0-.6.2-.9.5-.3.4-.4.9-.4 1.5 0 .7 0 1.2.3 1.7.3.2.6.4 1 .4.7 0 1.1-.2 1.4-.4.1-.3.2-.8.2-1.5v-.2c0-.7 0-1.2-.3-1.5-.3-.4-.7-.5-1.2-.5ZM7.2-3.6c0 .8-.1 1.4-.4 2-.2.5-.6 1-1 1.2-.7.4-1.3.5-2 .5S2.6-.1 2.1-.4A2.7 2.7 0 0 1 1-1.6a4.9 4.9 0 0 1-.4-2c0-.7.1-1.4.4-1.9.2-.6.6-1 1-1.3.7-.2 1.3-.5 2-.5.5 0 1.1.3 1.6.5s1 .7 1.2 1.3c.3.5.4 1.2.4 2Zm-5.6 0c0 1 .1 1.6.4 2.1.5.6 1.1.8 2 .8s1.3-.2 1.7-.8c.3-.5.5-1.2.5-2 .1-1.1 0-1.8-.4-2.3-.5-.4-1.1-.7-1.9-.7s-1.4.3-1.8.8c-.4.5-.5 1.2-.5 2.1ZM2.8 0C2 0 1.4 0 1-.5.7-1 .5-1.8.5-2.6c0-1.1.3-1.8.7-2.2.4-.5.8-.7 1.6-.7.4 0 .7.1 1 .3a2 2 0 0 1 .6.5v-2.8h.9V0h-.7l-.1-.7a2 2 0 0 1-.8.6l-.9.1Zm0-.5c.8-.1 1.1-.3 1.4-.6.1-.3.2-.8.2-1.4v-.2c0-.6 0-1.1-.3-1.5-.2-.4-.6-.5-1.2-.5-.5 0-.9.2-1 .5-.4.4-.5 1-.5 1.5.1.7.1 1.2.4 1.5.3.4.6.6 1 .6ZM5-2c0 .8-.2 1.3-.7 1.7-.3.2-1 .3-1.8.3H1.4a3 3 0 0 1-.9-.2v-.9a5 5 0 0 0 1 .3l.9.1c.6 0 1.1 0 1.3-.3.3-.2.4-.5.4-.8L4-2.4 3.5-3a7.2 7.2 0 0 0-1-.3c-.8-.2-1.2-.5-1.5-.8C.7-4.4.6-5 .6-5.4s0-.7.3-1a2 2 0 0 1 .8-.6 3 3 0 0 1 1.2-.2h1a5 5 0 0 1 1.1.5l-.5.6a4.5 4.5 0 0 0-.7-.2l-1-.2c-.3 0-.6.1-.9.3-.3.2-.4.5-.4.8 0 .2 0 .4.2.6 0 .2.2.3.3.4l1.1.4.9.5.8.7.2.8ZM0-5.4h1l1 3 .4 1 .2.6.2-.7c0-.3.2-.5.2-.8l1-3h1.2L2.8.6c-.2.6-.4 1.1-.7 1.4-.3.3-.7.4-1.3.4H.1v-.9h.6c.3.2.6.2.7 0L2 .7l.2-.7ZM2.6-.6H3l.4-.2v.7L3 0H1.7l-.6-.5-.1-1v-3.3H.2V-5l.7-.5.4-1h.5v1h1.5v.8H1.8v3.1c0 .3 0 .6.2.7l.6.3ZM1.3-7.4c.1 0 .3 0 .4.2l.1.4-.1.4-.4.2-.4-.3-.1-.3.1-.4.4-.2Zm.4 2V0H.8v-5.4Zm2.6 3.9c0 .5-.2 1-.5 1.2-.4.3-1 .4-1.6.4l-1-.1-.7-.2V-1l.8.3h1.8l.4-.7-.1-.4L3-2a7.5 7.5 0 0 0-.8-.4 7.5 7.5 0 0 1-1-.4l-.4-.5L.5-4c0-.5.2-.8.6-1 .3-.4.8-.6 1.4-.6l1 .2a4 4 0 0 1 .6.4l-.1.6-.8-.2-.7-.1-.9.1c-.2.2-.3.3-.3.6s0 .2.2.3l.4.3.8.3.9.4.4.5c.3.2.3.4.3.7Zm-1.4-4c.6 0 1.1.2 1.4.5.3.3.5.7.5 1.3V0h-.6L4-.8c-.3.3-.5.6-.8.8h-1c-.5 0-1 0-1.3-.3C.6-.5.5-.9.5-1.5c0-.5.2-1 .5-1.2.5-.3 1-.5 2-.5h.8v-.3c.2-.5.2-.8-.2-1l-.8-.2H2l-.7.5L1-5l1-.3.9-.2Zm1 2.9h-.8c-.6 0-1 .1-1.4.3-.1.3-.3.5-.3.8 0 .3 0 .5.2.7l.7.2c.5 0 .9-.1 1.2-.4.3-.2.4-.6.4-1ZM4-6.5c-.7 0-1.3.3-1.8.8-.4.5-.6 1.2-.6 2.1 0 1 .2 1.6.6 2.1.4.6 1 .8 1.8.8h1l.6-.3v.8L5 0H4c-.8 0-1.4 0-2-.2a2.8 2.8 0 0 1-1-1.4c-.3-.6-.4-1.2-.4-2 0-.7.1-1.3.4-1.9a3 3 0 0 1 1.2-1.3c.5-.2 1.1-.4 1.8-.4.8 0 1.5.1 2 .4l-.3.7-.8-.2a3 3 0 0 0-.9-.2Zm0 0"/>  <path id="u" d="M2 0 0-5.4h1l1 3.2.4.5v.5l.1.4.2-.4a16 16 0 0 1 .3-1l1.1-3.2h1L3 0Zm0 0"/>  <path id="t" d="M3.3-5.5H4l-.1 1.1-.3-.3h-.3c-.3 0-.5 0-.8.2l-.5.7-.3 1V0H.8v-5.4h.8v1h.2l.6-.6c.3-.3.6-.5 1-.5Zm0 0"/>  <path id="s" d="M2.9-7.1c.9 0 1.6.1 2 .5.4.4.6.9.6 1.6 0 .4 0 .7-.2 1-.3.5-.5.8-1 1l-1.5.1h-.9V0h-1v-7.1Zm-.1.7h-1v2.9h.9c.6 0 1.1-.2 1.3-.5.4 0 .6-.5.6-1s-.1-.8-.4-1c-.3-.3-.8-.4-1.4-.4Zm0 0"/>  <path id="r" d="M5.5-2.7c0 .9-.2 1.7-.7 2-.4.7-1 .9-1.8.9-.5-.2-.9-.2-1.3-.4-.3-.2-.6-.6-.7-1C.6-1.6.5-2 .5-2.7c0-.9.3-1.6.7-2 .5-.5 1-.8 1.8-.8.5 0 1 .2 1.3.5.4 0 .7.4.9.9.2.2.3.7.3 1.3Zm-4 0c0 .7 0 1.2.3 1.5.3.4.7.6 1.2.6.6 0 1-.2 1.2-.6.3-.3.4-.8.4-1.5s-.1-1.1-.4-1.5c-.2-.3-.6-.5-1.2-.5-.5 0-1 .2-1.2.5-.2.4-.3.9-.3 1.5Zm0 0"/>  <path id="q" d="M3.4-5.5c.7 0 1.2.2 1.6.5.2.3.4.8.4 1.5V0h-.9v-3.4c0-.9-.4-1.3-1.2-1.3-.6 0-1 .1-1.2.5-.3.2-.4.8-.4 1.4V0H.8v-5.4h.8v.8h.2c.2-.4.3-.5.7-.7l1-.2Zm0 0"/>  <path id="p" d="M3-5.5c.3 0 .7.1 1 .3a2 2 0 0 1 1 .9v1.8H1.5c0 .5.1 1 .4 1.4.3.3.7.4 1.3.4H4l.9-.3v.8L4 0a5 5 0 0 1-1 0 3 3 0 0 1-1.2-.1 2.2 2.2 0 0 1-1-1.1c0-.2-.2-.8-.2-1.3-.1-.7 0-1.2.2-1.6.2-.5.5-.9.9-1 .3-.2.7-.4 1.2-.4Zm0 .8c-.6 0-.9.1-1 .4-.4.2-.6.6-.6 1.1h2.8c0-.5-.1-.8-.3-1.1-.2-.3-.5-.4-1-.4Zm0 0"/>  <path id="o" d="M3-7.1c.7 0 1.4.1 2 .5.2.3.4.8.4 1.5.1.4.1.7-.1 1l-.5.5-.7.4 2 3.2H5L3.2-3H1.9v3h-1v-7.1Zm-.2.7h-.9v2.7h1c.6 0 1.1-.1 1.3-.3.3-.3.4-.6.4-1 0-.6-.1-1-.4-1-.3-.4-.7-.5-1.3-.5Zm.1 0"/>  <use xlink:href="#reuse-0"/>  <path id="n" d="M0-6.4h1.1l1.4 3.6.5 1A8 8 0 0 1 3-1l.3-.8.4-1L5-6.4h1L3.3.9c-.2.6-.5 1-.8 1.4-.5.4-.9.7-1.5.7H.5l-.4-.3v-.8h.4l.3.1c.4 0 .7 0 1-.3a2 2 0 0 0 .4-.8l.4-.9Zm0 0"/>  <path id="m" d="m1.6-8.8.4.1.2.5c0 .2 0 .4-.2.5l-.4.2c-.2 0-.4 0-.6-.2v-.5c0-.2 0-.4.1-.5l.5-.1ZM2-6.4V0H1v-6.4Zm0 0"/>  <path id="l" d="M4.8-7.7c-.8 0-1.6.3-2.1.9-.7.6-.8 1.4-.8 2.5 0 1 .1 2 .7 2.5.5.8 1.2 1 2.2 1l1-.2c.5 0 .9-.1 1.1-.2v1l-1 .2-1.1.1C3.8.1 3 0 2.5-.4A3.3 3.3 0 0 1 1.2-2a5.8 5.8 0 0 1-.5-2.3c0-.9.3-1.6.5-2.3A3.6 3.6 0 0 1 2.6-8c.6-.5 1.4-.7 2.2-.7 1 0 1.7.2 2.4.5l-.4 1a5.6 5.6 0 0 0-1-.5h-.9Zm0 0"/>  <path id="k" d="M3.5-6.5c.6 0 1 0 1.4.3l1.1 1c0 .5.1 1 .1 1.6v.6H1.7c.1.7.3 1.3.7 1.7.3.3.8.5 1.4.5h1l1.1-.5v1c-.3.2-.6.3-1 .3l-1 .1A3.4 3.4 0 0 1 2-.2a2.6 2.6 0 0 1-.9-1.2c-.4-.4-.5-1-.5-1.8.1-.7.1-1.3.4-1.8s.6-.9 1-1c.4-.4 1-.5 1.5-.5Zm0 .8c-.5 0-1 .2-1.2.5-.3.3-.5.8-.5 1.3H5c0-.5 0-1-.3-1.3-.3-.3-.7-.5-1.2-.5Zm0 0"/>  <path id="j" d="M2-9.1v5.8l.4-.3.2-.4.2-.3 2-2.1h1.4L3.5-3.7 6.3 0H5L2.8-3l-.7.6V0H1v-9.1Zm0 0"/>  <path id="i" d="M1.2 0v-8.6h1V-1H6v1Zm0 0"/>  <path id="h" d="M3.2-.8H4v.6l-.4.3H3L2 0a1.5 1.5 0 0 1-.6-.7C1.2-.9 1-1.4 1-1.9v-3.7H.1v-.5l1.1-.4.3-1.5h.7v1.6H4v.8H2.2V-2c0 .5 0 .8.2 1 .2.2.6.3.8.3Zm0 0"/>  <path id="g" d="M2 0H1v-9.1h1Zm0 0"/>  <path id="f" d="M3.5-6.5c.7 0 1.3.1 1.7.5.4.3.6.9.6 1.6V0H5l-.2-1c-.4.5-.7.8-1.1 1H2.6C2 .1 1.6 0 1-.3.7-.6.5-1.1.5-1.8c0-.6.3-1.1.8-1.5.5-.3 1.3-.5 2.3-.5h1.1v-.6c0-.4 0-.8-.3-.9-.4-.4-.6-.5-1-.5a3 3 0 0 0-1 .3c-.3 0-.6.2-.8.3L1.3-6l1-.4 1.2-.1Zm1.2 3.4h-1c-.7 0-1.2.1-1.5.4-.4.2-.6.5-.6 1 0 .2.1.5.4.7.2.2.5.3.8.3.6 0 1-.3 1.4-.5.3-.3.5-.7.5-1.4Zm0 0"/>  <path id="e" d="M6-2.3c0 .8-.2 1.4-.8 1.8-.6.4-1.3.5-2.2.5a8 8 0 0 1-1.4.1l-1-.5v-.9A6.5 6.5 0 0 0 3-.8c.6 0 1.1-.2 1.5-.4.3-.2.4-.6.4-1 .1-.3.1-.5-.2-.7.1-.1-.2-.4-.5-.5A7.8 7.8 0 0 0 3-4c-.8-.2-1.3-.6-1.7-1-.4-.2-.6-.7-.6-1.4 0-.6.1-.9.4-1.3.2-.3.5-.5.9-.7.3-.2.8-.3 1.4-.3.5 0 1 0 1.4.2l1 .3-.3 1a6.3 6.3 0 0 0-1-.5 4 4 0 0 0-1 0c-.7 0-1.1 0-1.4.3-.1.2-.3.5-.3 1 0 .1 0 .4.2.5 0 .3.3.5.6.6l1 .5 1.4.6.8.8.2 1.1Zm0 0"/>  <path d="M1.1 0v-8.6h5V0Zm.6-.6h3.8V-8H1.7Zm0 0"/>  <path id="d" d="m.3 0 1.6-7.6h.9l-.5 2-.1.6-.2.6.6-.5.5-.4.9-.2c.3 0 .6.2.9.5.1 0 .3.5.3.9v.8L4.3 0h-.8l.8-3.4V-4l-.1-.5c-.2-.2-.3-.2-.6-.2-.2 0-.4 0-.6.2-.4.2-.6.5-.8.8-.2.3-.4.7-.5 1.4L1.2 0Zm0 0"/>  <path id="c" d="M2 0c-.6 0-.9 0-1.2-.3C.6-.7.5-1 .5-1.7c0-.5 0-1 .2-1.5l.5-1.1c.2-.4.5-.7.8-.9a2 2 0 0 1 1.1-.3c.4 0 .6.1.9.3l.5.7.3-.9h.7L4.4 0h-.7l.1-1c-.3.3-.5.6-.9.8-.3.2-.6.2-.9.2Zm.1-.5c.4-.1.6-.2.9-.5l.6-.6a4 4 0 0 0 .4-1 3 3 0 0 0 .1-.7 4 4 0 0 0 0-.4c.1-.3.1-.5-.1-.7-.3-.2-.5-.3-.8-.3-.3 0-.5 0-.7.2a2 2 0 0 0-.6.7l-.4 1-.1 1.1c0 .4 0 .6.2.8.1.2.3.3.6.3Zm.1-.1"/>  <path id="b" d="M1.8 0c-.3 0-.6 0-.8-.1C.7-.3.6-.6.6-1v-.8l.8-2.9h-1L.5-5l1-.5.5-1h.6l-.3 1h1.3l-.1.8H2.2l-.7 3v.8l.5.3h.3l.4-.3V0h-.9Zm0 0"/>  <path id="a" d="M3 0c-.8 0-1.3 0-1.7-.3C1-.8.8-1.2.8-2a6 6 0 0 1 0-.3l.2-.5 1-4.3h.6l-.8 4.3-.1.5v.4c0 .4.1.7.3.9.3.2.6.3 1 .3.6 0 1-.1 1.4-.3.3-.5.5-1 .6-1.5l1-4.6h.9l-1 4.7-.5 1.3c-.4.4-.6.7-1 .9-.2.2-.7.3-1.4.3Zm0 0"/>  <use xlink:href="#reuse-0"/> </defs> <image xlink:href="svg/7/22_0.jpg" width="497" height="279"/> <path d="M454.5 235.8c-.7 0-1.3-.1-1.5-.5-.5-.3-.7-.8-.7-1.3v-.6l.2-.4.9-4.4h.9l-1 4.3v.9c-.1.4-.1.7.2 1l1.1.2c.6 0 1 0 1.3-.4.3-.3.5-.8.6-1.4l1-4.6h1l-1.1 4.7-.6 1.4c-.1.3-.4.6-.8.8-.4.2-.9.3-1.5.3zm5.7 0c-.4 0-.7 0-1-.2-.2-.2-.2-.6-.2-1v-.6l.7-3h-1l.2-.4.9-.3.5-1.1h.6l-.3 1.2h1.4l-.2.6h-1.3l-.6 3-.1.3v.6c.2.2.4.2.6.2h.2l.4-.1v.7h-.4a2 2 0 0 1-.4.2zm3.4 0c-.6 0-.8-.1-1-.4-.5-.4-.6-.8-.6-1.4.1-.5.1-1 .3-1.4.1-.6.3-.9.6-1.2.1-.4.5-.6.8-.8a2 2 0 0 1 1-.3c.4 0 .7 0 .9.3.2.1.4.3.5.6l.4-.8h.5l-1 5.3h-.7l.1-1-.8.8c-.3.2-.7.3-1 .3zm.3-.7c.1 0 .4 0 .7-.3l.6-.7a4 4 0 0 0 .5-1 3 3 0 0 0 0-.6 4 4 0 0 0 .1-.4c0-.3 0-.6-.2-.8-.2-.2-.5-.3-.8-.3-.2 0-.5.1-.7.3a2 2 0 0 0-.6.6l-.4 1.1v1.8c.3.2.5.3.9.3zm3.7.6 1.6-7.6h.9l-.4 2-.2.6-.2.7.6-.5.5-.5.8-.1c.4 0 .7 0 1 .3.2.4.3.6.3 1v1l-.9 3.1h-.6l.6-3.3v-1.2l-.6-.2c-.3 0-.5 0-.8.2l-.7.8c-.2.4-.5.8-.5 1.4l-.5 2.3zm0 0" style="fill:none;stroke:#fff;stroke-width:3;stroke-linecap:butt;stroke-linejoin:round;stroke-miterlimit:10;stroke-opacity:.6" transform="rotate(  340 371.905 88.5309) translate(-90.908914,-144.20035)"/> <g style="fill:#7d577d;fill-opacity:1" transform=" rotate(  340 371.905 88.5309) ">  <use xlink:href="#a" x="360.6" y="91.5"/>  <use xlink:href="#b" x="367.4" y="91.5"/>  <use xlink:href="#c" x="370.7" y="91.5"/>  <use xlink:href="#d" x="376.4" y="91.5"/> </g> <path d="M5.6 3A2.6 2.6 0 1 1 .4 3a2.6 2.6 0 0 1 5.2 0zm0 0" style="fill:#f8f8f5;fill-opacity:1;fill-rule:nonzero;stroke:#7d7d68;stroke-width:.8;stroke-linecap:butt;stroke-linejoin:miter;stroke-miterlimit:4;stroke-opacity:1" transform="translate(442.59672,150.94743)"/> <path d="M414.5 146.7c0 .7-.3 1.3-.9 1.7-.5.6-1.3.7-2.2.7a8 8 0 0 1-1.3-.1l-1.1-.3v-1a6.5 6.5 0 0 0 2.4.3c.6.1 1.1.1 1.5-.2.3-.3.5-.6.5-1s0-.7-.2-.8l-.6-.5a7.8 7.8 0 0 0-1.2-.5c-.8-.3-1.4-.6-1.7-1-.4-.4-.5-.9-.5-1.6 0-.4 0-.8.3-1.1.2-.3.6-.6 1-.8l1.4-.2 1.3.1c.4 0 .7.2 1 .3l-.2 1a6.3 6.3 0 0 0-1-.3 4 4 0 0 0-1-.2c-.7 0-1.1.1-1.3.4-.3.2-.4.4-.4.9l.1.7.6.5 1.1.5 1.3.6.8.7c.2.3.3.7.3 1.2zm4-4.3c.8 0 1.3.2 1.7.5.4.4.6 1.1.6 1.7v4.3h-.8l-.2-.9c-.3.4-.6.6-1 .8-.1.2-.6.3-1.1.3-.7-.1-1.1-.2-1.5-.5-.4-.3-.6-.8-.6-1.4 0-.7.2-1.2.7-1.5.5-.4 1.3-.7 2.4-.7h1v-.3c.1-.5.1-1-.2-1.1-.3-.2-.7-.3-1.1-.3a3 3 0 0 0-1 .1l-.7.3-.4-.7 1-.4 1.2-.2zm1.2 3.4h-1c-.7 0-1.2.2-1.5.4-.4.2-.5.6-.5 1 0 .3 0 .6.3.8l.8.2c.6 0 1-.1 1.4-.4.4-.3.5-.8.5-1.4zm4.1 3.2h-1v-9.3h1zm4.2-.8h.5l.5-.2v.9l-.6.1H427a1.5 1.5 0 0 1-.8-.7c-.2-.3-.2-.7-.2-1.3v-3.7h-1v-.5l1-.4.4-1.4h.6v1.5h2v.8h-2v3.8c0 .3.1.6.3.8.2.2.4.3.7.3zm5.5.8v-8.7h1v7.7h3.9v1zm8.5-6.6c.8 0 1.4.2 1.8.5.4.4.6 1.1.6 1.7v4.3h-.8l-.2-.9-1.1.8c-.2.2-.6.3-1.1.3-.6-.1-1.2-.2-1.5-.5-.4-.3-.6-.8-.6-1.4 0-.7.3-1.2.9-1.5.4-.4 1.2-.7 2.2-.7h1.1v-.3c0-.5 0-1-.3-1.1-.3-.2-.6-.3-1-.3a3 3 0 0 0-1 .1l-.8.3-.3-.7c.1-.2.6-.3 1-.4l1.1-.2zm1.3 3.4h-1c-.6 0-1.3.2-1.5.4-.4.2-.6.6-.6 1 0 .3.1.6.4.8l.8.2c.6 0 1-.1 1.4-.4.2-.3.5-.8.5-1.4zm4.1-6v5.8l.2-.2.4-.4.2-.3 2-2.2h1.3l-2.7 2.8 2.8 3.6h-1.2L448 146l-.6.6v2.3h-1V140zm7.8 2.6c.6 0 1 .1 1.5.4.3.2.7.5.9 1 .2.4.3 1 .3 1.5v.7h-4.4c0 .7.2 1.2.5 1.6.4.4 1 .6 1.5.6l1.1-.2 1-.3v1l-1 .3h-1.1a3.4 3.4 0 0 1-1.6-.2 2.6 2.6 0 0 1-1.1-1.2c-.3-.6-.4-1.1-.4-1.8s.1-1.3.4-1.8c.2-.5.5-1 1-1.2.3-.3.8-.4 1.3-.4zm0 .9c-.5 0-.9.1-1.2.4-.3.4-.4.8-.5 1.4h3.3c0-.5-.1-1.1-.4-1.3-.2-.4-.6-.5-1.2-.5zm11.3-2.1c-1 0-1.7.3-2.2 1-.5.5-.8 1.3-.8 2.4 0 1.1.2 2 .7 2.6.5.6 1.3 1 2.2 1l1.1-.2 1-.2v1l-1 .2h-1.2c-.9 0-1.6 0-2.3-.4a3.3 3.3 0 0 1-1.2-1.6 5.8 5.8 0 0 1-.4-2.3c0-1 .1-1.7.4-2.3a3.6 3.6 0 0 1 1.4-1.6c.6-.4 1.4-.5 2.3-.5.9 0 1.7.1 2.3.5l-.4.9a5.6 5.6 0 0 0-.9-.3l-1-.2zm4.3-1.1c.1 0 .2 0 .4.2l.2.5c0 .2 0 .4-.2.5l-.4.1-.5-.1-.2-.5.2-.5.5-.3zm.5 2.4v6.5h-1v-6.5zm4.2 5.7h.5l.4-.2v.9l-.5.1h-1.6a1.5 1.5 0 0 1-.6-.7c-.2-.3-.3-.7-.3-1.3v-3.7h-1v-.5l1.1-.4.3-1.4h.7v1.5h1.8v.8h-1.8v3.8c0 .3 0 .6.2.8.3.2.5.3.8.3zm1.1-5.7h1.2l1.4 3.7.3.8a8 8 0 0 1 .2.9l.3-.7c0-.4.2-.7.3-1l1.3-3.7h1.2l-2.8 7.3c-.2.6-.5 1.2-1 1.5-.3.3-.7.5-1.4.5h-.8v-1.1l.2.3h.5c.3 0 .5 0 .9-.2a2 2 0 0 0 .5-1l.3-.8zm0 0" style="fill:none;stroke:#fff;stroke-width:3;stroke-linecap:butt;stroke-linejoin:round;stroke-miterlimit:10;stroke-opacity:.6" transform=" rotate(  340 448.195 153.949) "/> <g style="fill:#212121;fill-opacity:1" transform=" rotate(  340 448.195 153.949) ">  <use xlink:href="#e" x="408.4" y="148.9"/>  <use xlink:href="#f" x="415" y="148.9"/>  <use xlink:href="#g" x="421.8" y="148.9"/>  <use xlink:href="#h" x="424.9" y="148.9"/>  <use xlink:href="#glyph1-5" x="429.2" y="148.9"/>  <use xlink:href="#i" x="432.3" y="148.9"/>  <use xlink:href="#f" x="438.6" y="148.9"/>  <use xlink:href="#j" x="445.3" y="148.9"/>  <use xlink:href="#k" x="451.7" y="148.9"/>  <use xlink:href="#glyph1-5" x="458.5" y="148.9"/>  <use xlink:href="#l" x="461.6" y="148.9"/>  <use xlink:href="#m" x="469.2" y="148.9"/>  <use xlink:href="#h" x="472.3" y="148.9"/>  <use xlink:href="#n" x="476.6" y="148.9"/> </g> <path d="M3.8 2C3.8 3 3 3.7 2 3.7A1.7 1.7 0 1 1 3.8 2zm0 0" style="fill:#fdfdfa;fill-opacity:1;fill-rule:nonzero;stroke:#575747;stroke-width:.5;stroke-linecap:butt;stroke-linejoin:miter;stroke-miterlimit:4;stroke-opacity:1" transform="translate(50.499092,231.98063)"/> <path d="M43.4 222.8c.9 0 1.5.2 2 .6.4.3.6.8.6 1.5 0 .3 0 .7-.2 1l-.5.4-.8.5 2.1 3.2h-1.2l-1.7-3h-1.3v3h-1v-7.2zm0 .8h-1.1v2.7h1c.7 0 1.1-.1 1.4-.4.2-.2.3-.5.3-.9s-.1-.9-.4-1c-.2-.3-.6-.4-1.3-.4zm6.2.9c.5 0 .8.1 1.2.3a2 2 0 0 1 .7.9c.2.3.3.8.3 1.2v.6h-3.7c0 .5.2 1 .5 1.4.3.3.7.4 1.2.4h1l.8-.3v.7l-.8.3a5 5 0 0 1-1 0 3 3 0 0 1-1.3-.1 2.2 2.2 0 0 1-1-1.1c-.1-.3-.2-.8-.2-1.4l.2-1.6.8-1c.4-.1.8-.2 1.3-.2zm0 .7c-.4 0-.8.2-1 .5-.3.2-.4.6-.4 1h2.7c0-.3-.1-.7-.3-.9-.2-.4-.6-.6-1-.6zm6.2-.7c.6 0 1 .2 1.3.5.4.3.6.8.6 1.5v3.5h-.9v-3.5c0-.8-.4-1.2-1.2-1.2-.6 0-1 .1-1.2.5-.2.2-.4.8-.4 1.4v2.8h-.8v-5.4h.7l.1.8.8-.7 1-.2zm8.2 2.8c0 .9-.2 1.6-.7 2-.3.6-1 .9-1.8.9-.5-.2-.9-.2-1.3-.4l-.8-1c-.4-.4-.4-1-.4-1.5 0-.9.3-1.6.7-2 .5-.6 1-.9 1.8-.9.5.1 1 .2 1.3.6.4 0 .7.4.9.8.2.4.3.9.3 1.5zm-4 0c0 .6 0 1.1.2 1.5.4.4.8.6 1.3.6.6 0 1-.2 1.2-.6.3-.4.4-.8.4-1.5s-.1-1.1-.4-1.5c-.2-.4-.6-.5-1.2-.5-.5 0-1 .1-1.2.5-.2.4-.3.9-.3 1.5zm0 0" style="fill:none;stroke:#fff;stroke-width:3;stroke-linecap:butt;stroke-linejoin:round;stroke-miterlimit:10;stroke-opacity:.6" transform=" rotate(  340 54.25 233.98) "/> <g style="fill:#212121;fill-opacity:1" transform=" rotate(  340 54.25 233.98) ">  <use xlink:href="#o" x="40.5" y="230"/>  <use xlink:href="#p" x="46.7" y="230"/>  <use xlink:href="#q" x="52.3" y="230"/>  <use xlink:href="#r" x="58.5" y="230"/> </g> <path d="M3.8 2A1.7 1.7 0 1 1 .3 2a1.7 1.7 0 0 1 3.5 0zm0 0" style="fill:#fdfdfa;fill-opacity:1;fill-rule:nonzero;stroke:#575747;stroke-width:.5;stroke-linecap:butt;stroke-linejoin:miter;stroke-miterlimit:4;stroke-opacity:1" transform="translate(446.97641,213.8255)"/> <path d="M446.3 192.1c1 0 1.6.2 2 .6.5.3.7.9.7 1.5 0 .4-.1.8-.3 1.1-.2.4-.5.7-.9.9-.4.2-1 .3-1.7.3h-.8v2.8h-.9V192zm0 .9h-1.1v2.7h.8c.7 0 1.2 0 1.5-.3.5-.2.5-.6.5-1.1 0-.5 0-.8-.4-1-.3-.3-.6-.5-1.4-.5zm6.5.8h.7l-.1 1h-.6c-.3-.2-.6-.2-.8 0l-.6.7-.2 1v2.7h-.9v-5.3h.8v1.1l.9-.8c0-.3.5-.4.9-.4zm6.2 2.8c0 .9-.4 1.6-.9 2-.3.6-.9.9-1.7.9-.4-.1-.9-.2-1.2-.5l-1-1-.2-1.4c0-.9.2-1.6.6-2 .5-.6 1-.9 1.9-.9.4.1.9.3 1.2.5.4.2.7.5 1 .8l.1 1.6zm-4.2 0c.1.6.2 1.1.4 1.4.3.5.8.7 1.2.7.6 0 1-.2 1.2-.7.4-.3.4-.8.4-1.4s0-1.1-.4-1.6c-.2-.3-.6-.4-1.2-.4-.4 0-.9.1-1.2.4-.2.5-.2 1-.2 1.6zm6.5 2.7-2-5.4h1l.9 3.2.3.5.2.4v.5h.2l.1-.4a16 16 0 0 1 .3-1.1l1.1-3.1h1l-2.1 5.4zm8.6-2.7c0 .9-.3 1.6-.7 2-.5.6-1 .9-1.8.9-.5-.1-1-.2-1.4-.5-.3-.2-.6-.5-.8-1-.2-.3-.2-.9-.2-1.4-.1-.9 0-1.6.6-2 .4-.6 1-.9 1.8-.9.5.1.9.3 1.3.5.3.2.6.5.8.8.3.5.5 1 .5 1.6zm-4.1 0c0 .6.1 1.1.4 1.4.2.5.6.7 1.2.7.5 0 1-.2 1.2-.7.2-.3.3-.8.3-1.4s.1-1.1-.3-1.6c-.3-.3-.7-.4-1.2-.4-.6 0-1 .1-1.2.4-.3.5-.4 1-.4 1.6zm0 0" style="fill:none;stroke:#fff;stroke-width:3;stroke-linecap:butt;stroke-linejoin:round;stroke-miterlimit:10;stroke-opacity:.6" transform="rotate(  340 450.726 215.824) translate(-7.9414683,27.586153)"/> <g style="fill:#212121;fill-opacity:1" transform=" rotate(  340 450.726 215.824) ">  <use xlink:href="#s" x="435.5" y="226.9"/>  <use xlink:href="#t" x="441.5" y="226.9"/>  <use xlink:href="#r" x="445.5" y="226.9"/>  <use xlink:href="#u" x="451.3" y="226.9"/>  <use xlink:href="#r" x="456.4" y="226.9"/> </g></svg>