<svg xmlns="http://www.w3.org/2000/svg" xmlns:xlink="http://www.w3.org/1999/xlink" viewBox="0 0 497 279"> <defs>  <path d="M1.1 0v-8.6h5V0Zm.6-.6h3.8V-8H1.7Zm0 0" id="reuse-0"/> </defs> <defs overflow="visible" style="stroke:none">  <path id="q" d="M2.3.1c-.5 0-1-.1-1.2-.5-.4-.4-.5-1-.5-1.7 0-.6 0-1.1.2-1.7a5 5 0 0 1 .6-1.4l1-1c.4-.2.8-.3 1.3-.3s.8 0 1 .3l.8.8v-.8l.2-.8.3-2.1h1.1L5.3 0h-.9l.1-1.2-1 1a2 2 0 0 1-1.2.2Zm.4-.8.8-.3.7-.8.6-1.2.2-1.4c0-.3 0-.6-.3-.9-.2-.2-.5-.4-.9-.4-.3 0-.6.1-.9.4-.2.2-.5.3-.6.8l-.5 1.1L1.7-2c0 .8.3 1.3 1 1.3Zm0-.1"/>  <path id="p" d="m.3 0 2-9.1h1L1.3 0Zm0 0"/>  <path id="o" d="M1.9.1.9 0C.4 0 .2-.2 0-.3v-1l.8.4a3 3 0 0 0 1 .2c.5-.1.9-.1 1.2-.3.2-.2.3-.5.3-.8 0-.2-.1-.3-.3-.5a4.7 4.7 0 0 0-.8-.7c-.5-.2-.8-.4-1-.7-.3-.3-.4-.6-.4-1 0-.6.2-1 .6-1.3.4-.4 1-.5 1.6-.5h1A5 5 0 0 1 5-6l-.5.7-.5-.2a3 3 0 0 0-1-.2c-.3 0-.6.1-.8.3l-.3.6c0 .2 0 .4.1.6l.9.5.8.5.5.6.2.6c0 .8-.4 1.3-.7 1.6-.5.4-1 .5-1.8.5Zm0 0"/>  <path id="n" d="M-.2 0v-.6L1-.8l1.4-7-1-.2.3-.6h2.9l-.1.6-1 .3L2-.8l.9.2-.1.6Zm0 0"/>  <path id="m" d="m.3 0 1.4-6.5h1l-.3 1.2.6-.6.7-.5a2 2 0 0 1 1-.2c.5 0 .9.2 1.2.4.3.3.4.7.4 1.2v.6l-.1.5L5.3 0H4.2l.9-4v-1c.1-.4-.1-.6-.6-.6s-.7 0-1 .3c-.3.1-.6.3-.9.8L2-2.8 1.4 0Zm0 0"/>  <path id="l" d="m-.3 2.9 2-9.3h.9l-.2 1.2a5 5 0 0 1 1.1-1 2 2 0 0 1 1.1-.3c.5 0 1 .1 1.4.5.2.4.4 1 .4 1.7 0 .5-.1 1.1-.4 1.6 0 .7-.2 1-.5 1.5l-1 1c-.4.2-.8.2-1.3.2-.4.1-.8.1-1-.2a2.3 2.3 0 0 1-.6-.8A12.4 12.4 0 0 1 1.3.1L.8 3ZM3.1-.7c.4-.1.7-.3 1-.4l.5-.8.5-1.1.2-1.4c0-.8-.4-1.3-1-1.3l-.9.3-.7.8L2-3.4V-2c0 .3 0 .7.2.9.2.1.5.4 1 .4Zm0-.1"/>  <path id="k" d="m.3 0 1.4-6.4h.9l-.2 1.2h.1l.5-.6.7-.5a2 2 0 0 1 .9-.2c.4 0 .7 0 1 .3.2.3.4.6.4 1a4 4 0 0 1 .7-.5l.7-.6a2 2 0 0 1 .9-.2c.5 0 .7 0 1.1.4.3.1.4.6.4 1.1v.6l-.1.4-.8 4H7.8l.9-4v-1.4L8-5.7l-1 .3c-.2.2-.4.5-.7 1A5 5 0 0 0 5.7-3l-.6 3h-1l.8-4 .1-.8c0-.3 0-.5-.2-.6 0-.2-.3-.3-.5-.3l-.9.3c-.3.2-.6.5-.8 1-.3.4-.6.9-.6 1.5L1.4 0Zm0 0"/>  <path id="j" d="M2.3.1c-.5 0-1-.1-1.2-.5-.4-.4-.5-1-.5-1.7 0-.6 0-1.1.2-1.7l.7-1.4 1-1c.3-.2.8-.3 1.2-.3.5 0 .8 0 1 .3l.8.8.3-1h.8L5.2 0h-.8l.1-1.2-1 1a2 2 0 0 1-1.2.2Zm.4-.8c.3-.1.5-.3.8-.4.3-.2.6-.5.8-.9l.5-1.2.2-.6v-.6c0-.3-.1-.6-.3-.9-.2-.2-.5-.4-.9-.4-.3 0-.6.1-.8.3l-.7.8-.5 1.2L1.7-2c0 .4 0 .7.2 1 .2 0 .4.2.8.2Zm0-.1"/>  <path id="i" d="m.3 0 2-9.1h1l-.5 2.3-.2.8-.2.8.6-.6.7-.5a2 2 0 0 1 1-.2c.5 0 .9 0 1.1.4.3.1.5.7.5 1.1v.6L6-4l-.7 4h-1L5-4l.2-.8c0-.3 0-.5-.2-.6-.1-.2-.3-.3-.6-.3l-1 .3-.7 1c-.4.4-.6.9-.7 1.5L1.4 0Zm0 0"/>  <path id="h" d="M2.2.1c-.4 0-.8 0-1-.3-.5-.2-.6-.6-.6-1l.2-1.1.7-3.2h-1l.1-.6 1.1-.5.8-1.3H3l-.3 1.5h1.8l-.3.8H2.6l-.8 3.5V-1l.7.3h.3l.4-.3v.9l-.4.1-.6.1Zm0 0"/>  <path id="g" d="M2.3.1C1.8.1 1.3 0 1-.3.8-.6.7-1 .7-1.5V-2l.1-.5.8-4h1.1l-.9 4.2a4 4 0 0 0 0 .7v.6c.3.2.5.3.8.3l.8-.3c.4-.2.7-.5 1-1L5-3.7l.6-2.7h1L5.2 0h-.8l.1-1.2-.7.6-.6.6a2 2 0 0 1-1 .1Zm0 0"/>  <path id="f" d="M3 0c-.8 0-1.4 0-1.8-.5C.8-1 .6-1.6.6-2.4c0-.5 0-1 .2-1.4.1-.5.2-1 .6-1.4.2-.4.6-.7 1-1 .4-.1.9-.2 1.4-.2.7-.1 1.3.1 1.7.6.5.4.7 1 .7 1.8 0 .5 0 1-.2 1.4l-.6 1.4-1 1C4 0 3.5 0 3 0Zm0-.7c.4-.1.8-.2 1-.5.5-.2.7-.6.9-1.1a5.3 5.3 0 0 0 .2-1.9 2 2 0 0 0-.1-.7l-.4-.5c-.2-.2-.6-.2-.8-.2-.4 0-.8.1-1.1.4-.4.3-.7.7-.8 1.2-.2.5-.3 1-.3 1.7 0 .5.2.8.4 1.1.3.3.6.4 1 .4Zm0-.1"/>  <path id="e" d="M2.2.1h-1L.1-.4v-.9l1 .3 1.1.2c.4 0 .8 0 1-.2l.8-.5.2-1c0-.1 0-.5-.2-.6L3-4a5.7 5.7 0 0 1-1-.6 2.2 2.2 0 0 1-.5-.7c-.2-.2-.2-.5-.2-.9 0-.5 0-1 .3-1.3.4-.5.6-.7 1-.9l1.6-.3c.3 0 .7 0 1.1.2l1 .3-.6 1a3.7 3.7 0 0 0-.7-.5 3.1 3.1 0 0 0-1 0c-.3 0-.7.1-1 .4-.4.2-.6.6-.6 1l.1.6.5.5.6.4 1 .6.4.7c.3.3.4.6.4 1 0 .9-.4 1.5-.9 2-.6.4-1.3.5-2.3.5Zm0 0"/>  <use xlink:href="#reuse-0"/>  <path id="d" d="M2.6-4.1v-1.5h-.3c-.6 0-1-.1-1.4-.4-.3-.2-.4-.6-.4-1 0-.6.1-1 .4-1.3.4-.1.8-.3 1.4-.3h1.2v.8H2.4l-.8.3c-.2 0-.2.2-.2.5s0 .3.2.4c0 .2.4.2.8.2h1V-4Zm3.6 0c-.6.1-1 .1-1.3-.3-.3-.6-.4-1-.4-1.6v-2.6h.9V-7l.8-.3c.5 0 1 .1 1.3.3.3.4.5.8.5 1.3l-.3.9-.6.6-.9.2Zm0-.6c.3-.1.5-.1.6-.3.2-.2.3-.4.3-.7-.1-.5-.3-.8-.9-.8-.2 0-.5 0-.6.2-.2.2-.2.3-.2.6s0 .5.2.7l.6.2Zm0-.1"/>  <path id="c" d="M3.7 0c-.6 0-1.1-.1-1.6-.4a2.7 2.7 0 0 1-1-1C.8-2 .7-2.4.7-3 .7-5 1.8-6 4-6h6v.8H4.1c-.8 0-1.4.2-1.8.6-.5.3-.7.8-.7 1.6 0 .6.2 1.2.6 1.5.4.5.9.6 1.5.6h1.2V0Zm0 0"/>  <path id="b" d="M2.5-4.7c-.5 0-1.1-.2-1.5-.5-.4-.4-.5-.9-.5-1.5 0-.5.1-1 .5-1.3.4-.4 1-.6 1.5-.6h.3v.8h-.3c-.3 0-.6.3-.8.3-.2.2-.3.5-.3.8 0 .4 0 .7.3.9.2.2.5.3.8.3h3.3v.8Zm0 0"/>  <path id="a" d="M5.3 0v-.8c0-1.4-.3-2.3-.9-3-.4-.4-1.4-.7-2.7-.7H.8v-4.1h1v3.1H2c1.4 0 2.4.4 3.1 1.2.9.7 1.1 1.8 1.1 3.3v1Zm0 0"/>  <use xlink:href="#reuse-0"/> </defs> <image xlink:href="svg/7/25_7.jpg" width="497" height="279"/> <path d="M283.3 93.6v-.8c0-1.4-.3-2.4-.8-3-.6-.6-1.5-.8-2.7-.8h-1v-4h1v3h.2c1.4 0 2.4.6 3.2 1.3.7.7 1 1.9 1 3.3v1Zm4.2-4.7c-.7 0-1.2-.2-1.5-.5-.4-.4-.6-.9-.6-1.5s.2-1 .6-1.4c.3-.3.8-.5 1.4-.5h.3v.8h-.2c-.5 0-.7.2-.9.3-.2.2-.3.5-.3.9 0 .3.1.6.3.8.2.2.5.2.9.2h3.3v.9Zm7.5 4.7c-.7 0-1.2-.2-1.6-.4a2.7 2.7 0 0 1-1.1-1c-.3-.5-.4-1-.4-1.6.1-2 1.1-3 3.3-3h6v.8h-5.8c-.9 0-1.4.2-1.9.6-.5.3-.6 1-.6 1.6 0 .6.1 1.1.5 1.4.4.5.9.7 1.6.7h1.1v.9Zm9.4-4.1V88h-.3c-.6 0-1-.1-1.3-.4-.3-.2-.5-.6-.5-1.1 0-.5.2-.8.5-1.1.2-.3.7-.4 1.2-.4h1.3v.8h-1c-.6 0-.8 0-1 .2l-.1.5c0 .2 0 .4.2.5l.8.2h1.1v2.3Zm3.6 0c-.5.1-1 0-1.3-.5-.3-.3-.4-.8-.4-1.4V85h.9v1.5c.2-.2.5-.2.9-.2.5 0 .9.1 1.2.4.3.3.5.7.5 1.3 0 .2 0 .5-.2.8l-.7.6-.9.2Zm0-.7c.3-.1.5-.1.7-.3l.2-.5c.1-.7-.3-.9-.9-.9-.2-.1-.4-.1-.6.2l-.2.6c0 .3 0 .5.2.6.2.2.4.2.6.2Zm8 4.9-1-.1c-.5 0-.8-.2-1-.3v-1l1 .3 1 .2c.4 0 .7 0 1-.2l.8-.6.2-1s0-.3-.3-.5c-.2-.5-.6-.6-1-.9a5.7 5.7 0 0 1-1-.6 2.2 2.2 0 0 1-.4-.7c-.3-.2-.3-.6-.3-1s0-.9.4-1.3l1-.8 1.6-.3 1 .1 1 .4-.5 1a3.7 3.7 0 0 0-.7-.4 3.1 3.1 0 0 0-1-.2c-.3 0-.8.2-1 .4-.4.3-.6.6-.6 1l.1.8.4.4.7.4 1 .6.4.7c.3.3.4.6.4 1 0 .8-.3 1.5-.9 1.9-.6.4-1.3.6-2.3.6Zm6.8 0c-.7 0-1.3-.3-1.7-.7-.4-.4-.7-1-.7-1.8l.2-1.5.6-1.3 1-1 1.6-.3c.6-.1 1.2.2 1.6.6.4.5.7 1 .7 1.8l-.3 1.5c0 .5-.3 1-.6 1.3-.2.4-.6.8-1 1-.4.3-.8.4-1.4.4Zm0-1c.6.1.9.1 1.2-.2.3-.4.5-.8.7-1.3a5.3 5.3 0 0 0 .3-1.8 2 2 0 0 0-.2-.7c0-.2-.2-.4-.4-.5-.2-.2-.4-.3-.7-.3-.5.1-.9.2-1.2.5-.3.3-.5.6-.7 1.2-.2.4-.3 1-.3 1.6 0 .5.1 1 .4 1.2.1.3.6.4 1 .4Zm6.1 1c-.5 0-.9-.1-1.2-.4-.3-.3-.4-.7-.4-1.3v-.4l.1-.6.8-4h1.1l-.8 4.1a4 4 0 0 0-.1.9l.1.6c.2.2.5.2.7.2.2 0 .5 0 .8-.3.4-.2.7-.5.9-.9.3-.4.5-1 .7-1.6l.6-2.9h1l-1.2 6.5h-1.1l.3-1.2-.7.6-.7.5a2 2 0 0 1-1 .2Zm6.9 0c-.4 0-.8-.1-1.1-.3-.3-.2-.4-.6-.4-1.1v-.9l.9-3.4h-1.1v-.5l1.3-.5.6-1.3h.6l-.3 1.3h1.7l-.2 1h-1.6l-.8 3.4v.4l-.2.4c.1.2.1.3.3.4 0 .2.2.2.4.2h.5l.4-.1v.8l-.5.1-.5.1Zm2.1-.1 2-9.2h.9l-.4 2.4-.2.8-.2.7.6-.6.7-.5a2 2 0 0 1 1-.2c.3 0 .7.2.9.4.6.3.7.7.7 1.3v.5l-.2.5-.9 3.9h-1l.8-4 .2-1-.2-.5-.7-.1-.9.2c-.3.2-.6.5-.8 1-.3.2-.5.8-.7 1.5l-.5 2.9Zm8.9.1c-.5 0-1-.2-1.2-.6-.4-.3-.6-.9-.6-1.6 0-.6 0-1.2.3-1.7l.7-1.4c.3-.4.6-.8 1-1 .3-.4.8-.4 1.2-.4.5 0 .8.1 1 .4l.8.6.3-.9h.8l-1.4 6.5h-.7v-1.2l-1 1a2 2 0 0 1-1.2.2Zm.4-.9c.3 0 .6 0 .8-.3.3-.2.6-.5.8-.9l.5-1.2.2-.7v-.5c0-.4-.1-.7-.3-1-.2-.2-.5-.2-.9-.2-.3 0-.6 0-.8.2l-.7.8-.5 1.2-.1 1.3c0 .5 0 .8.2 1 .2.2.4.3.8.3Zm4.5.8L353 87h1l-.2 1.3.5-.6.7-.5a2 2 0 0 1 .9-.2c.4 0 .8.2 1 .4.1.3.4.6.4 1a4 4 0 0 1 .7-.6l.7-.6a2 2 0 0 1 .9-.2c.4 0 .9.2 1.1.4.3.3.4.7.4 1.2v1.1l-1.1 3.9h-.8l.8-4v-1.5l-.7-.1c-.3 0-.6 0-.8.2l-.9.9a5 5 0 0 0-.6 1.6l-.6 2.9h-1l.8-4 .1-1-.1-.5-.6-.1-.9.2c-.3.2-.6.5-.7 1-.4.2-.6.8-.7 1.5l-.6 2.9Zm9.8 2.8 2-9.3h.9l-.2 1.2a5 5 0 0 1 1.1-.9 2 2 0 0 1 1.1-.4c.6 0 1 .2 1.3.6.3.4.5.9.5 1.6L368 91l-.7 1.4c-.2.4-.6.6-1 1-.3.1-.8.2-1.3.2-.4.1-.7 0-1-.2a2.3 2.3 0 0 1-.6-.8 12.4 12.4 0 0 1-.3 1l-.5 2.9Zm3.5-3.6c.3 0 .6 0 .8-.3l.7-.8.5-1.2.1-1.3c-.1-.9-.3-1.3-1.1-1.3l-.8.3-.6.8-.7 1.2-.2 1.3c0 .5.1.7.3 1 .2.2.5.3 1 .3Zm6 .9c-.4 0-.8-.1-1.1-.3-.3-.2-.5-.6-.5-1.1 0-.3 0-.6.2-.9l.7-3.4h-1v-.5l1.3-.5.6-1.3h.6l-.3 1.3h1.6l-.1 1h-1.6l-.8 3.4v.4l-.2.4c.1.2.1.3.3.4 0 .2.2.2.3.2h.6l.4-.1v.8l-.5.1-.5.1Zm4.7 0c-.7 0-1.3-.3-1.7-.7-.5-.4-.7-1-.7-1.8 0-.5 0-1 .2-1.5l.6-1.3 1-1c.4-.2 1-.3 1.4-.3.8-.1 1.5.2 1.8.6.4.5.6 1 .6 1.8.1.5.1 1-.2 1.5-.1.5-.3 1-.6 1.3-.1.4-.6.8-1 1-.4.3-.8.4-1.4.4Zm0-1c.6.1.9.1 1.2-.2.2-.4.5-.8.7-1.3a5.3 5.3 0 0 0 .3-1.8 2 2 0 0 0-.2-.7c0-.2-.2-.4-.4-.5-.2-.2-.3-.3-.8-.3s-.8.2-1.1.5c-.3.3-.6.6-.7 1.2-.2.4-.3 1-.3 1.6 0 .5.1 1 .3 1.2.3.3.6.4 1 .4Zm4.1.9 1.4-6.6h1l-.2 1.3.5-.6.7-.5a2 2 0 0 1 1-.2c.5 0 .8 0 1.2.4.3.3.4.7.4 1.2v.6l-.1.5-.9 3.9h-1l.7-4v-1c.2-.4 0-.6-.5-.6l-1 .2c-.3.2-.6.5-.9 1l-.6 1.5-.5 2.9Zm-64.2 14.3v-.6l1.2-.2 1.4-7.1h-1l.3-.7h2.9l-.1.7-1 .2-1.6 6.8 1 .3-.1.7Zm5.9.1h-1c-.3-.1-.5-.3-.8-.4v-1l.9.4a3 3 0 0 0 .9.2c.5 0 .8-.2 1-.3.4-.2.5-.5.5-.7 0-.3-.1-.5-.3-.6a4.7 4.7 0 0 0-.7-.6c-.6-.3-1-.5-1.1-.8-.4-.3-.5-.6-.5-1 .1-.6.3-1 .7-1.3.4-.4.9-.5 1.6-.5l1 .1a5 5 0 0 1 1.1.3l-.6.8-.6-.2a3 3 0 0 0-1-.2c-.2 0-.4.1-.6.3l-.4.6c0 .2 0 .4.2.6l.8.5.7.5.7.6v.7c0 .7-.2 1.2-.6 1.5-.5.5-1.1.5-1.9.5Zm3.7-.1 2-9.1h.9l-1.9 9.1Zm5.1.1c-.5 0-1-.2-1.3-.5-.3-.5-.5-1-.5-1.7 0-.6.1-1.1.3-1.7.1-.5.4-1 .6-1.4l1-1c.4-.2.8-.3 1.3-.3.4 0 .8 0 1 .3.3.2.5.5.6.8l.6-1h.7l-1.4 6.4h-.8l.1-1.2-1 1a2 2 0 0 1-1.2.3Zm.3-.8c.4 0 .6-.2.9-.4l.8-.8.5-1.3.2-.6v-.6c0-.3 0-.7-.3-.9-.3-.2-.5-.4-.9-.4l-.8.3c-.3.2-.6.5-.7.8l-.5 1.2-.2 1.4c0 .4.1.7.4 1 0 .1.3.2.6.2Zm4.4.7 1.6-6.5h.8l-.1 1.2.5-.6.7-.5a2 2 0 0 1 1-.2c.5 0 .8.2 1.1.4.3.3.4.7.4 1.3v1l-1 3.9h-1l.8-4 .2-.5v-.4c0-.5-.2-.7-.7-.7-.4 0-.7 0-1.1.3l-.7.8-.7 1.7-.6 2.9Zm9 .1c-.5 0-.9-.2-1.2-.5-.3-.5-.5-1-.5-1.7 0-.6 0-1.1.2-1.7a5 5 0 0 1 .7-1.4c.2-.4.6-.7 1-1 .3-.2.8-.3 1.3-.3.4 0 .7 0 1 .3.3.2.5.5.6.8l.1-.8.2-.8.5-2.1h1l-2 9.1h-.7v-1.2l-1 1a2 2 0 0 1-1.2.3Zm.4-.8c.3 0 .5-.2.8-.3l.8-.9.5-1.1c.2-.4.2-.9.2-1.4 0-.3 0-.7-.3-.9-.1-.2-.4-.4-.9-.4-.3 0-.5.2-.8.4-.3.2-.5.4-.7.8l-.5 1.1-.1 1.5c0 .7.3 1.2 1 1.2Zm0 0" style="fill:none;stroke-width:2;stroke-linecap:butt;stroke-linejoin:round;stroke:#fff;stroke-opacity:.6;stroke-miterlimit:10" transform=" rotate(  340 331.469 97.7375) "/> <g style="fill:#000;fill-opacity:1" transform=" rotate(  340 331.469 97.7375) ">  <use xlink:href="#a" x="278" y="93.6"/>  <use xlink:href="#b" x="285" y="93.6"/>  <use xlink:href="#c" x="291.2" y="93.6"/>  <use xlink:href="#d" x="301.8" y="93.6"/>  <use xlink:href="#glyph0-5" x="310.3" y="93.6"/>  <use xlink:href="#e" x="313.8" y="93.6"/>  <use xlink:href="#f" x="319.9" y="93.6"/>  <use xlink:href="#g" x="326.6" y="93.6"/>  <use xlink:href="#h" x="333.6" y="93.6"/>  <use xlink:href="#i" x="337.6" y="93.6"/>  <use xlink:href="#j" x="344.5" y="93.6"/>  <use xlink:href="#k" x="351.3" y="93.6"/>  <use xlink:href="#l" x="361.8" y="93.6"/>  <use xlink:href="#h" x="368.8" y="93.6"/>  <use xlink:href="#f" x="372.7" y="93.6"/>  <use xlink:href="#m" x="379.5" y="93.6"/>  <use xlink:href="#n" x="315.8" y="107.9"/>  <use xlink:href="#o" x="319.7" y="107.9"/>  <use xlink:href="#p" x="324.9" y="107.9"/>  <use xlink:href="#j" x="328" y="107.9"/>  <use xlink:href="#m" x="334.8" y="107.9"/>  <use xlink:href="#q" x="341.7" y="107.9"/> </g></svg>