<svg xmlns="http://www.w3.org/2000/svg" xmlns:xlink="http://www.w3.org/1999/xlink" viewBox="0 0 497 279"> <defs>  <path d="M1 0v-7.1h4V0Zm.4-.5h3.1v-6.1h-3Zm.1 0" id="reuse-0"/>  <path d="M3.8 2C3.8 3 3 3.8 2 3.8A1.7 1.7 0 1 1 3.8 2zm0 0" style="fill:#fdfdfa;fill-opacity:1;fill-rule:nonzero;stroke:#575747;stroke-width:.5;stroke-linecap:butt;stroke-linejoin:miter;stroke-miterlimit:4;stroke-opacity:1" id="reuse-1"/> </defs> <defs overflow="visible" style="stroke:none">  <path d="M6-13 1.8 4H.4l4.4-17ZM1.4-1.4V-12h6.2v10.6Zm.8-.8h4.6v-9.1H2.2ZM0 0l.1-1.1a10 10 0 0 0 5.7-1.8 4.3 4.3 0 0 0-1.4-.8A5.4 5.4 0 0 0 1.8-4l-.7.1L1-5c.5-.2 1-.3 1.5-.3s1 0 1.4.3l1.1.4 1 .5 1 .5.7.1h.4l.1 1.1c-.5 0-1 .1-1.4.4a11 11 0 0 0-1.2.5l-1.4.7c-.5.3-1.2.5-1.8.6A10 10 0 0 1 0 .1Zm2.5-6.7c-.2-.1-.4-.1-.5-.3a.7.7 0 0 1-.3-.5c.1-.3.2-.5.3-.6a.7.7 0 0 1 .5-.2c.2 0 .4 0 .5.2.2.2.2.3.2.6 0 .2 0 .3-.2.5l-.5.2ZM0 3.5l-.3-1.2C.6 2 1.3 1.6 2 1.2c.4-.4.9-.9 1-1.4.3-.5.4-1 .4-1.4L3-3.1l-.6-1.4 1-.6.9 1.6.3 1.2c.2.5.4.8.6 1H6l.5.3.2.4c0 .2 0 .3-.2.6h-.6c-.3 0-.7 0-.9-.1a1.9 1.9 0 0 1-.5-.5C4.3 0 4 .4 3.7 1l-1 1.2-1.5.8-1.2.5ZM2.6-6.8c-.4 0-.6 0-.7-.2a.7.7 0 0 1-.2-.5c0-.2 0-.5.2-.6a.7.7 0 0 1 .6-.2c.1 0 .3 0 .5.3l.2.5c0 .2 0 .3-.2.5l-.5.2ZM.5-.7l.6-1 .9.4 1.2.1c.8 0 1.3 0 1.6-.3.3-.2.5-.5.5-1 0 0 0-.3-.3-.6.1-.4 0-.8-.4-1.3a23.2 23.2 0 0 0-1.3-2l1-.6C5.1-6 5.7-5 6-4.2c.3.7.5 1.4.5 1.8l-.3 1.2c-.2.4-.6.7-1 1-.5.2-1.2.2-2 .2-.5 0-1 0-1.5-.1A3.2 3.2 0 0 1 .5-.7ZM0 3.5l-.3-1.2C.6 2 1.4 1.6 2 1.2c.5-.5.9-1 1-1.4.4-.5.5-1 .5-1.4l-.2-.8-.3-.9-.6-1.2 1-.6 1 1.9.1 1.5c0 .6 0 1.2-.3 1.7l-.8 1.4a6 6 0 0 1-1.1 1 7.3 7.3 0 0 1-2.2 1ZM0 0l.2-1.1h1.3c.5-.1.6-.3.7-.5.2-.1.2-.4.2-.8s0-.9-.2-1.6a23.4 23.4 0 0 0-.6-1.6L2.8-6a12.9 12.9 0 0 1 .7 2.3v1c.1 1-.1 1.7-.7 2.2-.6.4-1.5.5-2.8.5Zm2.8 3-.6-.4a.7.7 0 0 1-.2-.4l.2-.6.6-.2c.2 0 .2 0 .5.2l.2.6c0 .2 0 .3-.2.5l-.5.2Zm-2 0c-.4 0-.6-.3-.7-.4-.1-.1-.1-.2-.1-.4s0-.4.2-.6l.5-.2c.3 0 .4 0 .5.2l.3.6c0 .2-.1.3-.3.5l-.5.2Zm3.6-3C3.6 0 3 0 2.5-.1c-.4-.3-.7-.6-.9-.9l-.2-1.5-.4-8.2h1.3L2.6-3l.1 1.2.6.5 1.2.1.5.2v.4c.1.2.1.3 0 .6h-.6ZM.5 0v-1.2l.7-1.4.8.4-.1 1.1L1.7 0c0 .4.1 1 .3 1.2.4.3.8.6 1.3.8a5 5 0 0 0 1.7.3c.7 0 1.3-.2 1.9-.3.5 0 1-.3 1.3-.6.4-.2.6-.4.8-.7l.3-.7c0-.2-.3-.3-.4-.5A7.3 7.3 0 0 0 8-.8l-1-.5a3 3 0 0 1-1-.6c0-.1-.2-.5-.2-1L6-4a4 4 0 0 1 1-1.2c.2-.3.6-.6 1-.8.5-.2 1-.3 1.4-.3.6 0 .8 0 1.1.3l.7.2-.5 1c-.2.1-.4.1-.7-.2a2 2 0 0 0-.6 0h-.9l-.8.6-.5.7c-.2.2-.3.4-.3.7.1.2.1.3.3.5l.7.3.9.4.9.4.6.5a1 1 0 0 1 .3.7c0 .4-.1.8-.4 1.2-.2.4-.6.8-1 1.2l-2 1a7.7 7.7 0 0 1-2.2.2A6.4 6.4 0 0 1 2.6 3 3.5 3.5 0 0 1 1 2C.6 1.4.5.8.5 0Zm.9 0v-10.7h6.2V0Zm.8-.8h4.6v-9.1H2.2ZM.4 0 2-8h1.2l-.1 1.3a7 7 0 0 1 .7-.6c.2-.3.5-.5.9-.7l1.1-.2c.7 0 1.2.1 1.5.5.4.4.7.9.7 1.5v.7l-.4.6L6.7 0H5.2l1.1-5a9 9 0 0 0 .1-.7v-.4c.1-.6-.2-.9-.9-.9-.3 0-.6.2-1 .4s-.9.6-1.1 1c-.4.6-.8 1.3-1 2.1L1.8 0Zm2.3.2C1.9.2 1.3 0 1-.3.6-.7.4-1.1.4-1.7c0-.6.1-1 .5-1.5.3-.4.8-.7 1.5-1C3-4.4 4-4.6 5-4.6h.3V-5c.1-.7.1-1.2-.3-1.6-.4-.3-.8-.4-1.5-.4-.3 0-.7 0-1 .1-.5-.1-.8.2-1.2.4v-1.1L2.5-8l1.3-.2c1 0 1.6.3 2.1.8.5.6.8 1.4.8 2.2 0 .7-.1 1.3-.3 2a6 6 0 0 1-.8 1.6c-.3.6-.8 1-1.3 1.3a3 3 0 0 1-1.6.5Zm0-1.2c.6 0 1.1-.2 1.5-.6.4-.5.8-1 .9-1.9-.8 0-1.3 0-1.8.2-.5 0-.9.2-1.3.5-.2.2-.3.6-.3 1 0 .2 0 .4.2.6.2.2.5.3.9.3ZM-.8 0l4.4-5.7-2-5H3l1.5 4 3.2-3.9H9L5.1-5.7 7 0H5.7L4.2-4.6.7 0Zm4-9.4c-.2 0-.4 0-.5-.2-.2 0-.2-.3-.2-.4s0-.6.2-.8l.7-.2c.4 0 .6.2.6.6 0 .4 0 .6-.2.8l-.6.2ZM.4 0l1.7-8h1.4L1.7 0Zm0 0L2-8h1.2l-.1 1.3a7 7 0 0 1 .7-.6c.2-.3.5-.5.9-.7l1.1-.2c.7 0 1.2.1 1.5.5.4.4.7.9.7 1.5v.7l-.4.6L6.7 0H5.2l1.1-5a9 9 0 0 0 .1-.7v-.4c.1-.6-.2-.9-.9-.9-.3 0-.6.2-1 .4s-.9.6-1.1 1c-.4.6-.8 1.3-1 2.1L1.8 0Zm4.3-9a6.1 6.1 0 0 0-.4-1.4l-.8-.9v-.2h.8l.7.6.5.9a18.6 18.6 0 0 1 1.8-1.5h.9v.2l-.7.6-.8.8L6-9ZM3.6.2C2.7.2 2-.1 1.5-.7 1-1.2.7-1.9.7-2.9a6.6 6.6 0 0 1 1.1-3.6c.3-.5.8-1 1.3-1.2a3 3 0 0 1 1.6-.5c.8 0 1.4.2 1.8.5.3.3.5.8.5 1.4 0 .5 0 1-.5 1.3-.3.5-.8 1-1.5 1.1-.7.3-1.6.4-2.7.4h-.2v.6c-.1.6.1.9.4 1.4.3.5.8.6 1.4.6.4-.1.7-.1 1-.2l1.2-.5v1.2L4.9 0 3.6.2ZM2.3-4.5 4-4.7c.6-.1 1-.3 1.3-.5.3-.3.5-.6.5-1 0-.3-.1-.5-.3-.6-.2-.2-.5-.3-.8-.3-.5.1-1 .2-1.4.7-.5.4-.8 1-1 1.9ZM2.9.2c-.6 0-1.2-.3-1.6-.7C1-1 .7-1.7.7-2.5A8 8 0 0 1 1-4.8a6.4 6.4 0 0 1 .8-1.7c.2-.5.7-1 1.2-1.2a3 3 0 0 1 1.7-.5c.5 0 1 .2 1.3.4l.7 1a150.6 150.6 0 0 0 .5-2l.5-2.6H9L6.5 0h-1l.1-1.5L4.4-.3c-.5.3-1 .5-1.5.5ZM3.3-1c.4 0 .7-.1 1-.3l1-1c.3-.4.5-1 .7-1.5a5.5 5.5 0 0 0 .3-1.7c0-.4-.3-.8-.5-1.1-.1-.4-.5-.5-1.1-.5-.2.1-.7.2-.9.4l-1 1-.5 1.5c-.3.5-.3 1-.3 1.6 0 1.1.5 1.7 1.3 1.7ZM.4 0l1.7-8h1.1L3-6.6h.1l.7-.7c.2-.3.5-.5.8-.7a2 2 0 0 1 1-.2H6l.4.2-.2 1.1h-.8a2 2 0 0 0-1.4.3 4 4 0 0 0-1 1.4l-.4 1.5L1.7 0Zm-.6 0L0-1l5-6H1.5l.2-1h4.9l-.2 1-5 6h4l-.3 1Zm3.1.2c-.6 0-1.2-.3-1.6-.7C1-1 .7-1.7.7-2.5s.1-1.7.3-2.3a6.3 6.3 0 0 1 .8-1.7 4 4 0 0 1 1.3-1.2 3 3 0 0 1 1.6-.5c.5 0 1 .2 1.3.4l.7 1L7.3-8h1L6.5 0h-1l.2-1.5A6 6 0 0 1 4.3-.3C4 0 3.4.2 3 .2ZM3.3-1c.4 0 .8-.1 1.1-.3a4 4 0 0 0 1-1.1 6 6 0 0 0 .8-2.4v-.7c0-.4-.1-.8-.4-1.1-.2-.4-.6-.5-1-.5s-.7.1-1 .4c-.5.2-.8.6-1.1 1l-.4 1.5c-.3.4-.3.9-.3 1.6 0 .6 0 1 .4 1.3.2.2.5.3 1 .3ZM.6 0 3-10.7h1.2l-1 4.5H8l1-4.5h1.2L8 0H6.7l1-5H3L2 0Zm1.7.2L1 0C.6 0 .3-.2 0-.4v-1.2L1-1h1.4C3-1 3.5-1.1 4-1.3c.3-.3.5-.7.5-1.1 0-.4-.1-.7-.3-.9-.2-.2-.6-.3-1.2-.3H1.8l.3-1.1h.7l1-.1.8-.4c.2-.2.4-.5.4-1 0-.1 0-.3-.4-.5-.2-.3-.5-.4-1-.4a4 4 0 0 0-.9.1l-1 .4-.5-1L2.5-8a6 6 0 0 1 1.4-.2c.7 0 1.3.2 1.7.5.4.3.7.8.7 1.4 0 .5-.3 1-.5 1.3-.4.4-.8.6-1.4.8.4.2.6.3 1 .6.2.3.3.7.3 1.1 0 .8-.3 1.5-.7 2-.7.3-1.5.6-2.7.6ZM.4 0l1.7-8h1.4L1.7 0ZM6 2.8 6.6 0h-1l.6-3.6H2.5L1.7 0H.4l1.7-8h1.3l-.6 3.3h3.7L7.3-8h1.3L7-1.1h1.2l-.8 3.9ZM.4 0l1.7-8h1.1L3-6.6h.1l.6-.7c.3-.3.6-.5 1.1-.7 0-.1.4-.2.8-.2.7 0 1.1.2 1.4.5.3.3.5.7.5 1.3l.9-.9.8-.6c.3-.2.7-.3 1.1-.3.7 0 1.1.2 1.5.5.2.4.5.9.5 1.5v.7L12-5l-.9 5H9.8l1-5 .2-.6v-.5c0-.3 0-.5-.2-.7-.2-.2-.5-.3-.8-.3-.4.1-.7.1-1 .4-.4.2-.8.6-1 1.1a6 6 0 0 0-.8 2L6.4 0H5.1L6-5l.4-1c-.1-.4-.2-.6-.4-.8 0-.2-.3-.3-.7-.3-.3.1-.7.1-1 .4-.4.2-.7.6-1 1.1a7.4 7.4 0 0 0-.9 2.1L1.7 0ZM-.7 0l6-10.7h1.3L.6 0Zm0 0"/>  <path id="R" d="M-.3 3.6 2-8h1.2L3-6.5c.5-.5.9-.9 1.4-1.2.3-.3.9-.5 1.4-.5.6 0 1.1.3 1.5.7.5.5.7 1.2.7 2S7.9-4 7.7-3.2a6.3 6.3 0 0 1-.8 1.7C6.6-1 6-.6 5.7-.3A3 3 0 0 1 4 .2C3.5.2 3 0 2.7-.3a2.8 2.8 0 0 1-.7-1A10.7 10.7 0 0 1 1.6.2L1 3.6ZM3.9-1c.4 0 .8-.1 1.1-.3l1-1 .4-1.5.2-1.7c0-1-.4-1.5-1.3-1.5-.3 0-.6 0-1 .3l-1 1a5.4 5.4 0 0 0-.8 3.1c-.1.6 0 1 .3 1.2.2.4.6.5 1.1.5ZM4-1"/>  <path id="Q" d="m.4 0 1.7-8h1.7l.9 6.3L8.2-8h1.9L8.4 0H7.2l1-4.6c0-.4.2-.8.3-1.1l.2-1.1L4.9 0H4L2.9-6.8a56.3 56.3 0 0 1-.4 2.2L1.5 0Zm0 0"/>  <path id="P" d="M3.6.2C2.7.2 2-.1 1.5-.7 1-1.2.7-1.9.7-2.9a6.6 6.6 0 0 1 1.1-3.6c.3-.5.8-1 1.3-1.2a3 3 0 0 1 1.6-.5c.8 0 1.4.2 1.8.5.3.3.5.8.5 1.4 0 .5 0 1-.5 1.3-.3.5-.8 1-1.5 1.1-.7.3-1.6.4-2.7.4h-.2v.6c-.1.6.1.9.4 1.4.3.5.8.6 1.4.6.4-.1.7-.1 1-.2l1.2-.5v1.2L4.9 0 3.6.2ZM2.3-4.5 4-4.7c.6-.1 1-.3 1.3-.5.3-.3.5-.6.5-1 0-.3-.1-.5-.3-.6-.2-.2-.5-.3-.8-.3-.5.1-1 .2-1.4.7-.5.4-.8 1-1 1.9Zm0 0"/>  <path id="O" d="M3.7.1c-1 0-1.6-.1-2.2-.8C1-1.3.7-2 .7-3L1-4.8a5.9 5.9 0 0 1 .7-1.7A4 4 0 0 1 3-7.7C3.5-8 4-8 4.7-8c1-.1 1.7 0 2.3.7.5.5.7 1.3.7 2.3 0 .6 0 1.2-.2 1.8a5.5 5.5 0 0 1-.8 1.7C6.4-1 6-.6 5.5-.3 5 0 4.4 0 3.7 0Zm.1-1c.5-.1 1-.3 1.3-.7.4-.2.7-.7.9-1.3a6.4 6.4 0 0 0 .3-2.3c.1-.3.1-.6-.1-.8a1.5 1.5 0 0 0-.5-.8c-.2-.2-.5-.2-1-.2a2 2 0 0 0-1.3.5C3-6 2.6-5.6 2.3-5a6.2 6.2 0 0 0-.1 2c-.2.8 0 1.3.3 1.6.3.4.7.4 1.3.4Zm0-.1"/>  <path id="N" d="m.4 0 1.7-8h1.3l-.8 3.8L6.3-8H8L4-4l2.7 4H5.1L2.6-4l-.9 4Zm0 0"/>  <path id="M" d="M5.4-9c-.8 0-1.4-.4-1.8-.7-.4-.2-.6-.7-.6-1.2v-.5h1.4l-.2.4c0 .3.1.5.3.7.2.2.5.3 1 .3.4 0 .8-.1 1.1-.3.4-.2.5-.7.7-1.1h1.1c0 .7-.3 1.3-.9 1.7-.3.4-1 .6-1.9.6ZM2.8.1c-.6.1-1-.1-1.4-.5C1-.7.8-1.2.8-1.8v-.7l.2-.6 1-5h1.4L2.3-3a5 5 0 0 0-.1 1c0 .3 0 .6.2.8.2.2.4.2.8.2.3 0 .7-.1 1.1-.3.4-.2.8-.6 1.1-1.2.3-.5.6-1.2.8-2L6.9-8h1.3L6.5 0h-1l.1-1.5a8 8 0 0 1-.8.8L4-.1c-.3.2-.7.3-1.2.3Zm0 .1"/>  <path id="L" d="M2.8.2c-.6 0-1-.2-1.4-.6C1-.7.8-1.2.8-1.8v-.7l.2-.6 1-5h1.4L2.3-3a5 5 0 0 0-.1 1c0 .3 0 .6.2.8.2.2.4.2.8.2.3 0 .7-.1 1.1-.3.4-.2.8-.6 1.1-1.2.3-.5.6-1.2.8-2L6.9-8h1.3L6.5 0h-1l.1-1.5a8 8 0 0 1-.8.8L4-.1c-.3.2-.7.3-1.2.3Zm0 0"/>  <path id="K" d="M.4 0 2-8h1.2l-.1 1.3a7 7 0 0 1 .7-.6c.2-.3.5-.5.9-.7l1.1-.2c.7 0 1.2.1 1.5.5.4.4.7.9.7 1.5v.7l-.4.6L6.7 0H5.2l1.1-5a9 9 0 0 0 .1-.7v-.4c.1-.6-.2-.9-.9-.9-.3 0-.6.2-1 .4s-.9.6-1.1 1c-.4.6-.8 1.3-1 2.1L1.8 0Zm0 0"/>  <path id="J" d="M3.7.2c-.9 0-1.6-.3-2.2-.8C1-1 .7-1.8.7-2.8c0-.8.1-1.5.3-2a5.5 5.5 0 0 1 1-1.9 4 4 0 0 1 1.2-1.1 3.5 3.5 0 0 1 1.7-.4L6-8c.4 0 .7.1 1 .2l-.5 1.1-.7-.3A3 3 0 0 0 5-7c-.6 0-1 0-1.6.4-.4.5-.7 1-1 1.6a5.8 5.8 0 0 0-.3 2.1c-.1.6.1 1.1.4 1.5.5.3.8.4 1.3.4.4 0 .7 0 1-.1l1-.3v1l-1 .4-1.1.2Zm0 0"/>  <path id="I" d="M2.9.2c-.6 0-1.2-.3-1.6-.7C1-1 .7-1.7.7-2.5s.1-1.7.3-2.3a6.3 6.3 0 0 1 .8-1.7 4 4 0 0 1 1.3-1.2 3 3 0 0 1 1.6-.5c.5 0 1 .2 1.3.4l.7 1L7.3-8h1L6.5 0h-1l.2-1.5A6 6 0 0 1 4.3-.3C4 0 3.4.2 3 .2ZM3.3-1c.4 0 .8-.1 1.1-.3a4 4 0 0 0 1-1.1 6 6 0 0 0 .8-2.4v-.7c0-.4-.1-.8-.4-1.1-.2-.4-.6-.5-1-.5s-.7.1-1 .4c-.5.2-.8.6-1.1 1l-.4 1.5c-.3.4-.3.9-.3 1.6 0 .6 0 1 .4 1.3.2.2.5.3 1 .3Zm0 0"/>  <path id="H" d="M.6 0 3-10.7h1.2l-1 5.2 4.9-5.2h1.7L4.5-5.4 7.8 0H6.3L3.1-5.3 2 0Zm0 0"/>  <path d="M1.4 0v-10.7h6.2V0Zm.8-.8h4.6v-9.1H2.2Zm0 0"/>  <path id="G" d="M0-5.4h1l1 3 .4 1 .2.6.2-.7c0-.3.2-.5.2-.8l1-3h1.2L2.8.6c-.2.6-.4 1.1-.7 1.4-.3.3-.7.4-1.3.4H.1v-.9h.6c.3.2.6.2.7 0L2 .7l.2-.7Zm0 0"/>  <path id="F" d="M4.3-1.5c0 .5-.2 1-.5 1.2-.4.3-1 .4-1.6.4l-1-.1-.7-.2V-1l.8.3h1.8l.4-.7-.1-.4L3-2a7.5 7.5 0 0 0-.8-.4 7.5 7.5 0 0 1-1-.4l-.4-.5L.5-4c0-.5.2-.8.6-1 .3-.4.8-.6 1.4-.6l1 .2a4 4 0 0 1 .6.4l-.1.6-.8-.2-.7-.1-.9.1c-.2.2-.3.3-.3.6s0 .2.2.3l.4.3.8.3.9.4.4.5c.3.2.3.4.3.7Zm-.9 2.9c0 .3-.1.6-.4.6-.2.3-.6.4-1 .4h-.7v-.7h1.2l.2-.3c0-.2 0-.3-.3-.4a2 2 0 0 0-.6 0l.4-1h.6l-.3.5c.3 0 .5.2.7.3l.2.6Zm0 0"/>  <path id="D" d="M5.3-5.4V0h-.7l-.1-.7c-.3.3-.5.5-.9.6l-.9.2C2.1 0 1.6-.1 1.3-.4 1-.7.8-1.2.8-1.8v-3.6h.9v3.5c0 .8.3 1.3 1.2 1.3.6 0 1-.2 1.1-.5.3-.4.5-.9.5-1.5v-2.8ZM1.7-6.8l.1-.4.3-.1.4.1.1.4-.1.4h-.7l-.1-.4Zm1.9 0v-.4l.4-.1.3.1.2.4c0 .2 0 .3-.2.4h-.6l-.1-.4Zm0 0"/>  <path id="C" d="M3.2 0h-.9v-6.3H.1v-.8h5.4v.8H3.2Zm0 0"/>  <path id="A" d="M3.3-4.7H2V0H1v-4.7H.3V-5l.7-.4v-.3c0-.7.2-1.2.5-1.5.5-.3.8-.5 1.3-.5l.6.1.6.1-.4.7h-.3L2.8-7c-.2 0-.5 0-.6.4-.2.2-.2.5-.2.9v.3h1.3Zm0 0"/>  <path id="z" d="M6.6 0h-1L1.8-6v6H1v-7.1h1l3.8 5.9v-5.9h.8Zm0 0"/>  <path id="y" d="M2.8 0C2 0 1.4 0 1-.5.7-1 .5-1.8.5-2.6c0-1.1.3-1.8.7-2.2.4-.5.8-.7 1.6-.7.4 0 .7.1 1 .3a2 2 0 0 1 .6.5v-2.8h.9V0h-.7l-.1-.7a2 2 0 0 1-.8.6l-.9.1Zm0-.5c.8-.1 1.1-.3 1.4-.6.1-.3.2-.8.2-1.4v-.2c0-.6 0-1.1-.3-1.5-.2-.4-.6-.5-1.2-.5-.5 0-.9.2-1 .5-.4.4-.5 1-.5 1.5.1.7.1 1.2.4 1.5.3.4.6.6 1 .6Zm.1-.1"/>  <path id="x" d="M3.3-5.5H4l-.1 1.1-.3-.3h-.3c-.3 0-.5 0-.8.2l-.5.7-.3 1V0H.8v-5.4h.8v1h.2l.6-.6c.3-.3.6-.5 1-.5Zm0 0"/>  <path id="w" d="M3-5.5c.3 0 .7.1 1 .3a2 2 0 0 1 1 .9v1.8H1.5c0 .5.1 1 .4 1.4.3.3.7.4 1.3.4H4l.9-.3v.8L4 0a5 5 0 0 1-1 0 3 3 0 0 1-1.2-.1 2.2 2.2 0 0 1-1-1.1c0-.2-.2-.8-.2-1.3-.1-.7 0-1.2.2-1.6.2-.5.5-.9.9-1 .3-.2.7-.4 1.2-.4Zm0 .8c-.6 0-.9.1-1 .4-.4.2-.6.6-.6 1.1h2.8c0-.5-.1-.8-.3-1.1-.2-.3-.5-.4-1-.4Zm0 0"/>  <path id="v" d="M5-2c0 .8-.2 1.3-.7 1.7-.3.2-1 .3-1.8.3H1.4a3 3 0 0 1-.9-.2v-.9a5 5 0 0 0 1 .3l.9.1c.6 0 1.1 0 1.3-.3.3-.2.4-.5.4-.8L4-2.4 3.5-3a7.2 7.2 0 0 0-1-.3c-.8-.2-1.2-.5-1.5-.8C.7-4.4.6-5 .6-5.4s0-.7.3-1a2 2 0 0 1 .8-.6 3 3 0 0 1 1.2-.2h1a5 5 0 0 1 1.1.5l-.5.6a4.5 4.5 0 0 0-.7-.2l-1-.2c-.3 0-.6.1-.9.3-.3.2-.4.5-.4.8 0 .2 0 .4.2.6 0 .2.2.3.3.4l1.1.4.9.5.8.7.2.8Zm0 0"/>  <path id="u" d="M2.6-.6H3l.4-.2v.7L3 0H1.7l-.6-.5-.1-1v-3.3H.2V-5l.7-.5.4-1h.5v1h1.5v.8H1.8v3.1c0 .3 0 .6.2.7l.6.3Zm0 0"/>  <path id="t" d="M1.7-7.6v2.9l.7-.5c.2-.2.6-.3 1-.3.6 0 1.2.3 1.6.8.4.4.6 1.1.6 1.9C5.6-1.7 5.4-1 5-.6c-.4.6-1 .7-1.6.7-.4-.1-.8-.1-1-.2l-.7-.6-.2.7H.8v-7.6Zm1.5 2.9c-.5 0-1 .1-1.1.5-.3.2-.4.8-.4 1.5s.1 1.2.3 1.5c.3.4.7.6 1.3.6.4 0 .7-.2 1-.6.3-.3.4-.8.4-1.5 0-1.3-.5-2-1.5-2Zm0 0"/>  <path id="s" d="M3.4-5.5c.7 0 1.2.2 1.6.5.2.3.4.8.4 1.5V0h-.9v-3.4c0-.9-.4-1.3-1.2-1.3-.6 0-1 .1-1.2.5-.3.2-.4.8-.4 1.4V0H.8v-5.4h.8v.8h.2c.2-.4.3-.5.7-.7l1-.2Zm0 0"/>  <path id="r" d="M1.7-7.6v4.8L2-3v-.3l.4-.2L4-5.4h1L2.9-3l2.4 3H4.2L2.3-2.5l-.6.5v2H.8v-7.6Zm0 0"/>  <path id="q" d="M1.7 0H.8v-7.6h1Zm0 0"/>  <path id="o" d="M1-7.1h2c1 0 1.6.1 2 .4.5.2.7.7.7 1.3 0 .5-.1.8-.3 1-.4.4-.6.6-1 .7l.8.3c.2 0 .4.2.5.5.3.2.3.5.3.9 0 .6-.3 1-.7 1.5-.5.3-1 .5-1.8.5H1Zm.9 3h1.3c.6.1 1 .1 1.3-.3.2-.2.3-.5.3-.9s-.1-.6-.4-.7c-.4-.3-.8-.4-1.4-.4H2Zm0 .8v2.5h1.4c.7 0 1 0 1.3-.2.4-.4.4-.7.4-1.1s-.1-.7-.4-.9c-.2-.2-.6-.3-1.4-.3Zm0 0"/>  <path d="M4.3 0h-4v-.6l3.1-4H.6v-.9h3.6v.8l-2.8 4h3Zm0 0"/>  <path id="p" d="M2.9-5.5c.6 0 1.1.2 1.4.5.3.3.5.7.5 1.3V0h-.6L4-.8c-.3.3-.5.6-.8.8h-1c-.5 0-1 0-1.3-.3C.6-.5.5-.9.5-1.5c0-.5.2-1 .5-1.2.5-.3 1-.5 2-.5h.8v-.3c.2-.5.2-.8-.2-1l-.8-.2H2l-.7.5L1-5l1-.3.9-.2Zm1 2.9h-.8c-.6 0-1 .1-1.4.3-.1.3-.3.5-.3.8 0 .3 0 .5.2.7l.7.2c.5 0 .9-.1 1.2-.4.3-.2.4-.6.4-1Zm.1 0"/>  <path id="E" d="M6.7-5.5c.6 0 1 .2 1.4.5.3.3.4.8.4 1.5V0h-.8v-3.5c0-.8-.4-1.2-1.1-1.2-.6 0-1 .1-1.1.4C5.2-4 5-3.5 5-3v3h-.7v-3.5c0-.8-.4-1.2-1.1-1.2-.6 0-1 .1-1.2.5-.2.2-.3.8-.3 1.4V0H.8v-5.4h.8v.8h.2l.6-.7 1-.2c.7 0 1.2.3 1.6 1 .2-.5.4-.7.7-.8.3-.1.7-.2 1-.2Zm0 0"/>  <path id="B" d="M3 0c-.5 0-.9 0-1.3-.1-.3-.3-.6-.6-.7-.9-.4-.5-.5-1-.5-1.7 0-.6.2-1.1.5-1.5 0-.6.4-.8.8-1.1.2-.1.8-.2 1.2-.2l.8.1.7.2-.3.8-.6-.2H3c-1-.1-1.5.6-1.5 1.9 0 .7 0 1 .3 1.4.3.5.7.6 1.2.6h.8l.6-.3v.8a2 2 0 0 1-.6.2H3Zm.8 1.5c0 .2-.1.5-.3.5-.3.3-.7.4-1.2.4h-.5v-.7H3l.1-.3c0-.2 0-.3-.3-.4a2 2 0 0 0-.6 0l.4-1h.6L3 .5l.6.3.2.6Zm0-.1"/>  <use xlink:href="#reuse-0"/>  <path id="Y" d="M2.5 0C1.9 0 1.4 0 1-.4.7-.8.5-1.3.5-2l.1-1.2a4 4 0 0 1 .5-1.1c.3-.3.5-.7.9-.8.3-.2.7-.3 1.2-.3.6 0 1 .2 1.4.4.4.5.6 1.1.6 1.6L5-2a4 4 0 0 1-.5.9c-.2.5-.5.8-.8 1L2.5 0Zm0-.6c.5-.1.6-.1 1-.4.1-.2.3-.5.5-1 .2-.3.3-.8.3-1.4L4.2-4a1 1 0 0 0-.4-.5l-.6-.2c-.4 0-.7.1-1 .4-.2.2-.5.6-.6 1A4 4 0 0 0 1.4-2c0 .5 0 .8.3 1 .2.2.5.3.8.3Zm1.8-5.7L4-6.4v-.7l.4-.2.3.1.1.3-.1.4-.4.2Zm-1.8 0-.3-.1v-.7l.4-.2.4.1v.7l-.5.2Zm0 0"/>  <path id="X" d="M-.2 0 0-.6l3.3-4.1H1l.1-.7h3.3l-.2.7L1-.7h2.5V0Zm0 0"/>  <path id="W" d="m1.9 2.4-1-.1-.6-.2v-.9c.2.2.5.2.7.4a3 3 0 0 0 .8.1c.4 0 .8-.1 1-.3.3-.2.5-.6.6-1l.1-.4.1-.5.1-.5-.8.8c-.3.2-.6.2-.9.2s-.8-.1-1-.4C.6-.7.5-1 .5-1.7c0-.5 0-1 .2-1.4 0-.5.3-.9.5-1.2.2-.4.5-.7.8-.8a2 2 0 0 1 1.1-.4c.4 0 .7.1.9.3l.5.7.3-.9h.7L4.3.3c-.2.8-.5 1.3-.9 1.7-.4.2-1 .4-1.4.4Zm.3-3c.3 0 .5-.1.8-.4l.5-.5.5-1 .2-1.1c0-.4-.2-.6-.3-.8-.1-.2-.4-.3-.7-.3-.3 0-.5 0-.7.2-.3.2-.5.5-.6.7l-.4 1-.1 1.1c0 .7.3 1 .8 1Zm0 0"/>  <path id="U" d="M2.7 0c-.4 0-.7 0-.9-.1a2 2 0 0 1-.5-.7L.9 0H.3l1.6-7.6h.9l-.4 1.8-.2.7a52.9 52.9 0 0 1-.2.7 5 5 0 0 1 .9-.6c.2-.3.6-.5.9-.5.5 0 .8.2 1 .5.5.3.6.8.6 1.4-.1.5-.1 1-.3 1.4L4.6-1l-.8.8a2 2 0 0 1-1.1.3Zm0-.5.5-.5c.4 0 .6-.3.8-.6a4 4 0 0 0 .3-1 5 5 0 0 0 .1-.9c0-.9-.3-1.2-.9-1.2-.2 0-.4 0-.5.2l-.8.7-.4 1c-.2.3-.2.7-.2 1.1 0 .3 0 .6.2.8.2.2.5.3.8.3Zm-.1-.1"/>  <path id="T" d="m.3 0 1.1-5.4h.7v1l.4-.5.5-.4.7-.2H4l.3.2-.2.7h-.5c-.3-.1-.6-.1-.9.2l-.7.9-.3 1L1.2 0Zm0 0"/>  <path id="S" d="M3.4 0c-.8 0-1.4 0-2-.5C1-1.1.7-1.7.7-2.6A6 6 0 0 1 1-4.4c.2-.6.4-1 .8-1.6.2-.3.7-.6 1.2-.9.5-.1 1-.3 1.6-.3h1.1l1 .5-.5.7a7.8 7.8 0 0 0-.7-.3l-1-.2c-.5 0-.9.2-1.3.5-.6.4-.9.8-1.2 1.4a4.8 4.8 0 0 0-.4 2c.1.2.1.6.3.9 0 .4.3.6.6.7l1 .3h.7l.5-.3.6-1.9H3.8l.2-1h2.3L5.5-.3a8 8 0 0 1-1 .3h-.9Zm0 0"/>  <path id="V" d="M2.5 0C1.9 0 1.4 0 1-.4.7-.8.5-1.3.5-2l.1-1.2a4 4 0 0 1 .5-1.1c.3-.3.5-.7.9-.8.3-.2.7-.3 1.2-.3.6 0 1 .2 1.4.4.4.5.6 1.1.6 1.6L5-2a4 4 0 0 1-.5.9c-.2.5-.5.8-.8 1L2.5 0Zm0-.6c.5-.1.6-.1 1-.4.1-.2.3-.5.5-1 .2-.3.3-.8.3-1.4L4.2-4a1 1 0 0 0-.4-.5l-.6-.2c-.4 0-.7.1-1 .4-.2.2-.5.6-.6 1A4 4 0 0 0 1.4-2c0 .5 0 .8.3 1 .2.2.5.3.8.3Zm0-.1"/>  <path d="M1.5 0H.7L0-.2V-1l.7.3h.8c.5.1.7.1 1-.1l.1-.7c.1-.1.1-.3-.1-.4 0-.2-.3-.3-.7-.5L1-3.1c-.2-.2-.3-.5-.3-.8 0-.5.1-.9.5-1.1.3-.3.7-.5 1.3-.5.3 0 .6 0 .9.2l.6.2-.2.7-.5-.2-.8-.1c-.3 0-.5 0-.7.2-.2.1-.2.3-.2.5l.1.5.7.5c.3 0 .6.2.6.4.2 0 .4.2.5.4l.1.7c0 .5-.2 1-.5 1.2C2.7 0 2 0 1.5 0ZM1 2.5H.4v-.8h.4c.5.2.8.1.8-.3 0-.2 0-.3-.2-.4H1l.4-1H2l-.3.6c.1 0 .3 0 .3.2.3.1.3.3.3.5 0 .3-.1.7-.3.8-.3.2-.6.3-1.1.3ZM.4 0 2-7.1h1.6c.9 0 1.5.1 2 .7.5.4.8 1.1.8 2.1a5 5 0 0 1-.5 2.2A3.7 3.7 0 0 1 4.5-.5C3.8-.2 3 0 2.2 0Zm1-.8h.9C3-.8 3.5-.9 4-1.2a3 3 0 0 0 1-1.3 4.2 4.2 0 0 0 .4-1.8c0-.7-.2-1.3-.4-1.6-.5-.3-1-.5-1.5-.5h-.8Zm.1 0"/>  <path id="n" d="M-.3 2.4h-.3l-.4-.1v-.7h.7c.3.1.5.1.7-.1.2-.2.4-.5.5-.8l.4-.6-.8-5.5h.9l.3 2.7v.7l.2.7v.6A28.4 28.4 0 0 1 2.5-2c-.1 0 .1-.3.2-.4l1.5-3h1L1.7 1c-.1.4-.4.8-.7 1-.4.3-.8.4-1.2.4Zm0 0"/>  <path id="m" d="M1.8 0c-.3 0-.6 0-.8-.1C.7-.3.6-.6.6-1v-.8l.8-2.9h-1L.5-5l1-.5.5-1h.6l-.3 1h1.3l-.1.8H2.2l-.7 3v.8l.5.3h.3l.4-.3V0h-.9Zm0 0"/>  <path id="l" d="M-.3 2.4h-.3l-.4-.1v-.7h.7c.3.1.5.1.7-.1.2-.2.4-.5.5-.8l.4-.6-.8-5.5h.9l.3 2.7v.7l.2.7v.6A28.4 28.4 0 0 1 2.5-2c-.1 0 .1-.3.2-.4l1.5-3h1L1.7 1c-.1.4-.4.8-.7 1-.4.3-.8.4-1.2.4ZM2.4-6l.3-.7.4-.5.4-.5h1v.1L4-7l-.5.5a6 6 0 0 1-.6.4Zm-.1 0"/>  <path id="k" d="M2.4 0c-.6 0-1 0-1.4-.3C.6-.8.5-1.3.5-2c0-.3 0-.8.2-1.2 0-.4.3-.8.5-1.1.2-.4.5-.7.8-.8a2 2 0 0 1 1.2-.4c.5 0 .8.2 1.1.5.3 0 .4.4.4.8 0 .3-.1.7-.3 1-.4.2-.6.4-1 .6-.6.2-1.2.3-1.9.3h-.1v.3c0 .5 0 .8.3 1 .2.3.5.4.9.4l.7-.1A5 5 0 0 0 4-1v.7a6 6 0 0 1-.7.3h-.9Zm-.9-3 1.3-.1.7-.4c.2-.1.3-.4.3-.5l-.1-.6-.7-.1c-.2 0-.5.1-.9.4L1.6-3Zm0 0"/>  <path id="j" d="M.8 0 .6-5.4h.8l.1 2.9v1.7a13.8 13.8 0 0 1 .5-1l.2-.5 1.4-3h1v2.7a25.5 25.5 0 0 1 .2 1.8l.3-.9.4-1 1.2-2.7h1L5 0h-.9l-.2-3v-1.4l-.3.6-.4.8-1.4 3Zm0 0"/>  <path id="i" d="m.2 0 1.2-5.4h.8l-.2 1 .5-.6a2 2 0 0 1 .6-.3l.9-.2c.3 0 .6.1.9.5.1 0 .4.4.4.9v.4l-.2.5L4.4 0h-.9l.7-3.4v-.4l.2-.2c-.1-.5-.3-.7-.8-.7-.2 0-.4 0-.6.2-.3.2-.6.5-.8.8-.2.3-.4.8-.5 1.4L1.2 0Zm0 0"/>  <path id="h" d="m.3 0 1.6-7.6h.9l-.8 3c.1.6 0 1-.2 1.3l-.1.5 2.5-2.6h1L3-3l1.4 3h-1L2.3-2.5l-.7.5-.4 2Zm0 0"/>  <path id="g" d="m.3 0 1.6-7.6h.9L1.2 0Zm0 0"/>  <path id="f" d="M2 0c-.6 0-.9 0-1.2-.3C.6-.7.5-1 .5-1.7c0-.5 0-1 .2-1.5l.5-1.1c.2-.4.5-.7.8-.9a2 2 0 0 1 1.1-.3c.4 0 .6.1.9.3l.5.7.3-.9h.7L4.4 0h-.7l.1-1c-.3.3-.5.6-.9.8-.3.2-.6.2-.9.2Zm.1-.5c.4-.1.6-.2.9-.5l.6-.6a4 4 0 0 0 .4-1 3 3 0 0 0 .1-.7 4 4 0 0 0 0-.4c.1-.3.1-.5-.1-.7-.3-.2-.5-.3-.8-.3-.3 0-.5 0-.7.2a2 2 0 0 0-.6.7l-.4 1-.1 1.1c0 .4 0 .6.2.8.1.2.3.3.6.3Zm.1-.1"/>  <path id="e" d="M.4 0 2-7.1h1.8c.6 0 1.2 0 1.5.3.4.3.7.8.7 1.3-.1.5-.3.9-.5 1.2-.3.3-.7.5-1.2.6l.7.5c.3.3.4.6.4 1 0 .5 0 .9-.3 1.2L4-.2 2.7 0Zm1.8-4h1.1l.9-.3.5-.4c.3-.2.3-.3.3-.7 0-.3-.1-.5-.3-.6-.2-.3-.7-.4-1-.4h-1ZM1.5-.9h1.2c.6.1 1 .1 1.3-.1.3-.4.5-.7.5-1.2 0-.3-.1-.6-.3-.8-.2-.3-.6-.4-1-.4H2Zm0 .1"/>  <use xlink:href="#reuse-0"/>  <path id="d" d="M2 0H1v-6.4h1Zm0 0"/>  <path id="b" d="M3.5-6.5c.7 0 1.3.1 1.7.5.4.3.6.9.6 1.6V0H5l-.2-1c-.4.5-.7.8-1.1 1H2.6C2 .1 1.6 0 1-.3.7-.6.5-1.1.5-1.8c0-.6.3-1.1.8-1.5.5-.3 1.3-.5 2.3-.5h1.1v-.6c0-.4 0-.8-.3-.9-.4-.4-.6-.5-1-.5a3 3 0 0 0-1 .3c-.3 0-.6.2-.8.3L1.3-6l1-.4 1.2-.1Zm1.2 3.4h-1c-.7 0-1.2.1-1.5.4-.4.2-.6.5-.6 1 0 .2.1.5.4.7.2.2.5.3.8.3.6 0 1-.3 1.4-.5.3-.3.5-.7.5-1.4Zm0 0"/>  <path id="a" d="M1.2-8.6h2.4c1 0 1.9.2 2.4.6.6.2 1 .8 1 1.6-.1.4-.3.9-.6 1.2-.2.3-.6.6-1.2.7a3 3 0 0 1 1 .3l.7.7c.1.3.3.5.3 1 0 .9-.3 1.5-.8 2-.6.3-1.4.5-2.2.5h-3Zm1 3.7h1.7c.7-.1 1.2-.1 1.4-.4.3-.2.5-.6.5-1 0-.5-.3-.8-.5-1-.5-.2-1-.3-1.7-.3H2.2Zm.1.9v3H4c.7 0 1.3 0 1.5-.2.3-.4.5-.8.5-1.3s-.2-.8-.5-1C5.2-4 4.7-4 4-4Zm0 0"/>  <path d="m1.6-8.8.4.1.2.5c0 .2 0 .4-.2.5l-.4.2c-.2 0-.4 0-.6-.2v-.5c0-.2 0-.4.1-.5l.5-.1ZM2-6.4V0H1v-6.4Zm2.1-.1c.9 0 1.4.1 1.7.5.4.4.6 1 .6 1.8V0h-1v-4.1c0-1-.4-1.6-1.4-1.6-.8 0-1.2.2-1.5.7-.3.3-.5 1-.5 1.7V0H1v-6.4h.8l.2.8 1-.7c.3-.2.7-.2 1-.2Zm-.6 0c.6 0 1 0 1.4.3l1.1 1c0 .5.1 1 .1 1.6v.6H1.7c.1.7.3 1.3.7 1.7.3.3.8.5 1.4.5h1l1.1-.5v1c-.3.2-.6.3-1 .3l-1 .1A3.4 3.4 0 0 1 2-.2a2.6 2.6 0 0 1-.9-1.2c-.4-.4-.5-1-.5-1.8.1-.7.1-1.3.4-1.8s.6-.9 1-1c.4-.4 1-.5 1.5-.5Zm0 .8c-.5 0-1 .2-1.2.5-.3.3-.5.8-.5 1.3H5c0-.5 0-1-.3-1.3-.3-.3-.7-.5-1.2-.5ZM8-6.5c.9 0 1.4.1 1.8.5.3.4.5 1 .5 1.8V0H9.2v-4.1c0-1-.4-1.6-1.3-1.6-.6 0-1 .2-1.4.7-.2.2-.3.8-.3 1.5V0h-1v-4.1c-.1-1-.6-1.6-1.5-1.6-.6 0-1 .2-1.3.7-.2.3-.3 1-.3 1.7V0H1v-6.4h.8l.2.8 1-.7c.2-.2.6-.2.9-.2 1.1 0 1.8.3 2.1 1 .2-.3.5-.5 1-.8.3-.2.7-.2 1-.2Zm0 0"/>  <path id="c" d="M2-9.1v5.8l.4-.3.2-.4.2-.3 2-2.1h1.4L3.5-3.7 6.3 0H5L2.8-3l-.7.6V0H1v-9.1Zm0 0"/>  <path d="M4-6.5h.8l-.2 1H4c-.4-.1-.7-.1-1 .1a2 2 0 0 0-.7.8l-.2 1.2V0H1v-6.4h.8L2-5.2l.8-1.1L4-6.5Zm2.4.1V0h-.9l-.1-.9c-.4.4-.7.6-1.1.9a3 3 0 0 1-.9 0c-.9.1-1.5 0-1.9-.4-.4-.4-.5-1-.5-1.8v-4.2h1v4.1c0 1 .5 1.5 1.4 1.5.8 0 1.2 0 1.6-.5.2-.4.3-1 .3-1.8v-3.3ZM2-8.2c0-.2 0-.3.2-.4l.4-.2c.1 0 .3 0 .4.2l.2.4-.2.5a.6.6 0 0 1-.4.1l-.4-.1-.2-.5Zm2.3 0 .1-.4.4-.2c.2 0 .3 0 .4.2l.2.4c0 .2 0 .4-.2.5l-.4.1-.4-.1-.1-.5ZM3.9 0H2.8v-7.6H.1v-1h6.4v1H4ZM1.1 0v-8.6h5V0Zm.6-.6h3.8V-8H1.7Zm0 0"/> </defs> <image xlink:href="svg/7/3_0.jpg" width="497" height="279"/> <path d="M5.5 3a2.5 2.5 0 1 1-5 0 2.5 2.5 0 0 1 5 0zm0 0" style="fill:#fdfdfa;fill-opacity:1;fill-rule:nonzero;stroke:#575747;stroke-width:1;stroke-linecap:butt;stroke-linejoin:miter;stroke-miterlimit:4;stroke-opacity:1" transform="translate(51.509396,176.03039)"/> <path d="M55.5 179a1 1 0 0 1-1 1 1 1 0 0 1-1-1 1 1 0 0 1 1-1c.6 0 1 .5 1 1zm0 0" style="fill:#575747;fill-opacity:1;fill-rule:nonzero;stroke:none"/> <path d="M43.6 164.5h2.5c1 0 1.9.1 2.4.4.6.3.9.9.9 1.7 0 .4-.2 1-.5 1.2-.2.4-.6.6-1.2.7a3 3 0 0 1 1 .5c.3 0 .5.2.7.5.2.3.2.6.2 1 0 1-.2 1.5-.6 2.1-.7.1-1.4.4-2.3.4h-3zm1.1 3.5h1.6c.8.1 1.3 0 1.5-.2.3-.3.4-.6.4-1.1 0-.5-.1-.8-.5-1-.3-.2-.7-.3-1.6-.3h-1.4zm0 1.1v2.9h1.8c.7.1 1.2 0 1.5-.3.3-.3.5-.7.5-1.2 0-.4-.2-.8-.5-1-.3-.4-.8-.5-1.6-.5zm9-2.6c.8 0 1.4.2 1.8.5.4.3.5.9.5 1.7v4.3h-.7l-.3-.9-1 .9c-.2.1-.6.2-1 .2-.7 0-1.2-.2-1.6-.5-.4-.3-.6-.8-.6-1.4 0-.7.3-1.3.8-1.5.4-.4 1.3-.6 2.3-.6H55v-.4c0-.6 0-1-.3-1.1-.3-.3-.7-.4-1-.4a3 3 0 0 0-1 .2c-.3 0-.6.2-.7.3l-.4-.8 1-.3c.2-.2.6-.2 1-.2zm1.3 3.4h-1c-.6.1-1.2.2-1.5.4-.5.2-.6.5-.6 1 .1.2.1.5.4.7.2.2.5.3.7.3.7 0 1.1-.1 1.5-.4.3-.3.5-.9.5-1.4zm4-5.9v5.6l.4-.1.2-.5.3-.2 2-2.2h1.2l-2.6 2.7 2.8 3.7h-1.2l-2.3-3-.7.7v2.3H58v-9zm6.5 9h-1v-6.4h.9zm0 0" style="fill:none;stroke:#fff;stroke-width:3;stroke-linecap:butt;stroke-linejoin:round;stroke-miterlimit:10;stroke-opacity:.6" transform=" rotate(  340 57.0078 179.031) "/> <g style="fill:#212121;fill-opacity:1" transform=" rotate(  340 57.0078 179.031) ">  <use xlink:href="#a" x="42.5" y="173"/>  <use xlink:href="#b" x="50.3" y="173"/>  <use xlink:href="#c" x="57" y="173"/>  <use xlink:href="#d" x="63.4" y="173"/> </g> <path d="m265.7 215.9 1.5-7.2h1.9c.7 0 1.2.3 1.6.4.3.3.5.7.5 1.3 0 .5-.1.9-.4 1.2-.3.3-.8.4-1.2.4v.2c.4 0 .6.2.8.5.2.2.4.6.4 1s-.2.8-.4 1.1c-.2.4-.6.7-1 .8-.4.2-.9.4-1.4.4zm1.8-4.1h1.2c.3 0 .5 0 .8-.2.2 0 .4-.2.5-.4l.3-.7c0-.3-.1-.6-.3-.7-.2-.2-.6-.3-1-.3h-1zm-.7 3.2h1.2c.6.1 1 0 1.3-.3.4-.2.5-.6.5-1s-.1-.7-.3-1c-.2-.1-.6-.2-1-.2h-1.3zm6.5 1c-.5 0-.8-.2-1-.5-.5-.3-.6-.8-.6-1.4.1-.5.1-1 .3-1.4l.5-1.2c.3-.3.5-.5.9-.8a2 2 0 0 1 1-.3c.4 0 .7.1.9.3l.5.6.4-.8h.6l-1.1 5.5h-.7v-1.1l-.7.7c-.3.4-.7.4-1 .4zm.2-.8c.3 0 .5 0 .8-.2l.6-.8a4 4 0 0 0 .5-1 3 3 0 0 0 0-.5 4 4 0 0 0 0-.5c.1-.2.1-.6-.1-.8-.3-.1-.5-.3-.8-.3-.2 0-.5.1-.7.3a2 2 0 0 0-.6.7l-.4.9-.1 1c0 .6 0 .9.2 1 .2.2.4.2.6.2zm3.8.7 1.6-7.6h.9l-1.6 7.6zm2.5 0 1.7-7.6h.8l-.6 3-.3 1.2-.2.6 2.7-2.6h.9l-2.3 2.3 1.5 3h-1l-1.1-2.3-.9.4-.3 2.1zm6.7.1c-.5 0-.8-.2-1-.5-.4-.3-.5-.8-.5-1.4 0-.5 0-1 .2-1.4l.6-1.2.8-.8a2 2 0 0 1 1-.3c.4 0 .7.1.9.3l.5.6.5-.8h.5l-1 5.5h-.8l.1-1.1-.8.7c-.3.4-.7.4-1 .4zm.3-.8c.2 0 .4 0 .7-.2l.5-.8a4 4 0 0 0 .6-1 3 3 0 0 0 0-.5 4 4 0 0 0 .1-.5c0-.2 0-.6-.2-.8-.2-.1-.5-.3-.8-.3-.2 0-.5.1-.7.3a2 2 0 0 0-.6.7c-.1.3-.3.6-.3.9l-.2 1c.1.6.1.9.2 1 .2.2.4.2.7.2zm3.6.7 1.2-5.4h.8l-.1 1 .4-.5a2 2 0 0 1 .6-.4c.3-.2.5-.2.8-.2.4 0 .8.1.9.3.4.3.5.6.5 1v.5l-.2.4-.6 3.4h-1l.7-3.5.1-.5v-.2c0-.4-.2-.6-.5-.6-.4 0-.6 0-1 .2 0 .2-.4.4-.6.8-.2.3-.4.8-.4 1.4l-.6 2.3zm9 0-.2-5.4h.8l.1 2.9v1.6a13.8 13.8 0 0 1 .4-.9l.3-.7 1.4-2.9h1v2.9a25 25 0 0 1 .2 1.6l.3-.8.3-1 1.3-2.8h1l-2.7 5.6h-.9l-.2-3.1v-1.4l-.3.5c0 .3-.2.5-.4 1l-1.4 2.9zm8.9.1c-.7 0-1.3-.2-1.5-.6-.3-.3-.5-.8-.5-1.4 0-.5 0-.9.2-1.3l.5-1.2c.3-.3.5-.5 1-.8a2 2 0 0 1 .9-.3c.7 0 1.1.1 1.3.3.2.3.3.6.3 1 0 .3 0 .6-.3 1l-1 .5c-.5.3-1 .4-1.8.4h-.2v.3c0 .4.1.7.3 1.1.2 0 .5.2 1 .2h.5a5 5 0 0 0 1-.5v.9a6 6 0 0 1-1 .3h-.7zm-1-3.2h1.2l.8-.5c.3-.1.4-.3.4-.6l-.2-.4-.6-.2c-.3 0-.6.2-.9.5-.3.3-.5.7-.7 1.2zm3.7 3.1 1.8-7.6h.8l-1.6 7.6zm4.3.1c-.3 0-.7-.2-1-.5-.3-.3-.4-.8-.4-1.4 0-.5 0-1 .1-1.4l.6-1.2.8-.8a2 2 0 0 1 1.1-.3c.5 0 .7.1.9.3l.5.6.3-.8h.8l-1.2 5.5h-.8l.2-1.1-.9.7c-.3.4-.6.4-1 .4zm.3-.8c.4 0 .5 0 .7-.2l.7-.8a4 4 0 0 0 .4-1 3 3 0 0 0 .1-.5 4 4 0 0 0 0-.5c.1-.2.1-.6-.1-.8-.4-.1-.5-.3-.8-.3-.3 0-.5.1-.6.3a2 2 0 0 0-.7.7l-.3.9-.2 1c0 .6 0 .9.2 1 .1.2.3.2.6.2zm3.2 3.1h-.4l-.3-.2v-.6h.7c.2.1.5.1.7-.1l.5-.8.4-.7-.8-5.4h.8l.4 2.7v.7l.2.7v.4a28.6 28.6 0 0 1 .5-.9l.2-.8 1.6-2.8h1l-3.6 6.3c-.1.5-.4.8-.7 1.1-.3.2-.7.4-1.2.4zm2.6-8.5v-.1l.4-.5.4-.5.3-.5h1v.1l-.4.5-.6.6a6 6 0 0 1-.5.4zm4.3 6.2c-.4 0-.8-.2-1-.5-.4-.3-.6-.8-.6-1.4l.3-1.4.6-1.2.8-.8a2 2 0 0 1 1-.3c.5 0 .8.1 1.1.3l.2.6.6-.8h.6L328 216h-.6l.2-1.1h-.1l-.8.7c-.3.4-.7.4-1 .4zm.3-.8c.2 0 .5 0 .7-.2l.6-.8a4 4 0 0 0 .5-1 3 3 0 0 0 0-.5 4 4 0 0 0 .2-.5c0-.2 0-.6-.4-.8l-.6-.3c-.3 0-.5.1-.8.3a2 2 0 0 0-.5.7l-.4.9-.3 1 .3 1c.2.2.4.2.7.2zm5.3.8c-.4 0-.7-.1-1-.3-.1-.2-.3-.5-.3-.9v-.7l.8-3.1h-.9v-.1l1.1-.5.5-1.1h.5l-.3 1.2h1.4l-.2.7h-1.3l-.6 2.8v.4l-.2.3.2.4.4.1h.7v.5l-.4.2a2 2 0 0 1-.4 0zm1.2 2.3h-.4l-.3-.2v-.6h.7c.2.1.5.1.5-.1l.7-.8.3-.7-.8-5.4h1l.2 2.7v1.4l.3.4a28.6 28.6 0 0 1 .4-.9l.3-.8 1.6-2.8h1l-3.6 6.3-.8 1.1c-.2.2-.6.4-1.1.4zm0 0" style="fill:none;stroke:#fff;stroke-width:3;stroke-linecap:butt;stroke-linejoin:round;stroke-miterlimit:10;stroke-opacity:.6" transform="rotate(  340 358.784 141.933) translate(56.745763,-70.932203)"/> <g style="fill:#7d577d;fill-opacity:1" transform=" rotate(  340 358.784 141.933) ">  <use xlink:href="#e" x="322.1" y="144.9"/>  <use xlink:href="#f" x="328.1" y="144.9"/>  <use xlink:href="#g" x="333.7" y="144.9"/>  <use xlink:href="#h" x="336.3" y="144.9"/>  <use xlink:href="#f" x="341.3" y="144.9"/>  <use xlink:href="#i" x="347" y="144.9"/>  <use xlink:href="#glyph1-6" x="352.7" y="144.9"/>  <use xlink:href="#j" x="355.3" y="144.9"/>  <use xlink:href="#k" x="362.6" y="144.9"/>  <use xlink:href="#g" x="367.6" y="144.9"/>  <use xlink:href="#f" x="370.1" y="144.9"/>  <use xlink:href="#l" x="375.8" y="144.9"/>  <use xlink:href="#f" x="380.5" y="144.9"/>  <use xlink:href="#m" x="386.2" y="144.9"/>  <use xlink:href="#n" x="389.5" y="144.9"/> </g> <use style="fill:#fdfdfa;fill-opacity:1;fill-rule:nonzero;stroke:#575747;stroke-width:.5;stroke-linecap:butt;stroke-linejoin:miter;stroke-miterlimit:4;stroke-opacity:1" transform="translate(276.75244,232.91246)" xlink:href="#reuse-1"/> <path d="M253.3 239.5h2c1.1 0 1.7 0 2.1.4.5.1.8.7.8 1.3-.2.4-.3.8-.5 1-.2.5-.6.6-1 .7l.8.3c.3 0 .5.2.6.5l.2.9c0 .6-.2 1.1-.7 1.4-.4.4-1 .6-1.8.6h-2.5zm1 3h1.1c.8 0 1.1-.1 1.4-.3.2-.2.3-.5.3-.9s0-.6-.4-.8c-.3-.2-.7-.3-1.3-.3h-1.2zm-.1.8v2.5h1.4c.7 0 1.1 0 1.4-.3.2-.3.4-.6.4-1s-.2-.7-.4-1c-.3 0-.8-.2-1.4-.2zm7.5-2.2c.7 0 1.3.2 1.5.5.3.3.4.7.4 1.3v3.7h-.6l-.2-.8-.7.7-1.1.2c-.6 0-1-.1-1.3-.4-.2-.2-.4-.6-.4-1.2 0-.5.2-1 .6-1.1.5-.4 1.1-.6 2.1-.6h.8v-.4c0-.4-.1-.7-.3-.9-.2-.1-.5-.1-.8-.1h-.8l-.7.4-.3-.8.8-.3 1-.3zm1 2.9h-.7c-.7 0-1.1.1-1.4.3-.2.2-.4.5-.4.8 0 .3.1.5.3.7l.7.2c.5 0 .8-.1 1.1-.4.3-.2.5-.6.5-1.1zm3.5 2.6h-.9V239h.9zm2.6-7.6v4.8l.1-.2.3-.3.2-.3 1.7-1.8h1l-2.1 2.3 2.3 3h-1l-2.1-2.3-.3.4v2h-1.1V239Zm6.5 2.1c.6 0 1.1.2 1.4.5.3.3.5.7.5 1.3v3.7h-.7l-.1-.8-.9.7-.9.2c-.6 0-1.1-.1-1.4-.4-.2-.2-.4-.6-.4-1.2 0-.5.2-1 .7-1.1.4-.4 1-.6 2-.6h.7v-.4c.1-.4.1-.7-.2-.9-.2-.1-.4-.1-.8-.1h-.8l-.7.4-.3-.8.9-.3 1-.3zm1 2.9h-.8c-.5 0-1.1.1-1.4.3-.1.2-.3.5-.3.8 0 .3 0 .5.2.7l.7.2c.5 0 .9-.1 1.3-.4.2-.2.3-.6.3-1.1zm5.1-2.9c.7 0 1.1.2 1.6.5.2.4.4.8.4 1.5v3.5h-1v-3.4c.1-.9-.2-1.3-1-1.3-.7 0-1.1.1-1.4.5-.2.3-.3.8-.3 1.4v2.8h-.9v-5.4h.8v.8h.2l.6-.7 1-.2zm5.6 0c.7 0 1.2.2 1.5.5.3.3.5.7.5 1.3v3.7h-.7l-.1-.8-.9.7-.9.2c-.7 0-1.1-.1-1.4-.4-.2-.2-.4-.6-.4-1.2 0-.5.2-1 .7-1.1.4-.4 1-.6 1.9-.6h1v-.4c-.1-.4-.2-.7-.5-.9-.1-.1-.3-.1-.7-.1h-.8l-.7.4-.3-.8.8-.3 1-.3zm1.1 2.9h-.8c-.7 0-1.1.1-1.3.3-.3.2-.5.5-.5.8 0 .3.1.5.3.7l.7.2c.5 0 .9-.1 1.2-.4.3-.2.3-.6.3-1.1zm3.4-5v1.8a16.2 16.2 0 0 1 0 1.2l.6-.6c.3-.2.7-.4 1-.4.8.1 1.4.4 1.8.8.3.5.5 1.2.5 2.2 0 1-.2 1.5-.6 2-.4.5-1 .7-1.6.7-.4 0-.8 0-1-.2l-.8-.6-.2.7h-.6V239Zm1.5 2.9c-.5 0-1 .1-1.2.5-.2.3-.3.8-.3 1.5s.1 1.2.3 1.5c.2.4.7.6 1.2.6s1-.2 1.1-.6c.2-.3.4-.8.4-1.4 0-1.4-.5-2-1.5-2zm5.8-.8c.7 0 1.2.2 1.5.5.3.3.4.7.4 1.3v3.7h-.6l-.2-.8c-.3.3-.5.6-.9.7l-.9.2c-.5 0-1.1-.1-1.2-.4-.4-.2-.5-.6-.5-1.2 0-.5.2-1 .6-1.1.4-.4 1-.6 2-.6h.9v-.4c0-.4-.1-.7-.3-.9-.2-.1-.6-.1-.8-.1h-.8l-.8.4-.2-.8.8-.3 1-.3zm1 2.9h-.6c-.8 0-1.3.1-1.5.3-.3.2-.4.5-.4.8 0 .3 0 .5.3.7l.7.2c.4 0 .7-.1 1.1-.4.3-.2.6-.6.6-1.1zM304.2 246h.4l.3-.2v.7l-.4.1h-1.3c-.2-.2-.4-.4-.5-.6-.2-.2-.2-.5-.2-1v-3h-.8v-.6l.8-.3.3-1.1h.5v1.2h1.7v.8h-1.7v3c0 .3.1.6.3.7.1.3.3.3.6.3zm0 0" style="fill:none;stroke:#fff;stroke-width:3;stroke-linecap:butt;stroke-linejoin:round;stroke-miterlimit:10;stroke-opacity:.6" transform=" rotate(  340 280.504 234.914) "/> <g style="fill:#212121;fill-opacity:1" transform=" rotate(  340 280.504 234.914) ">  <use xlink:href="#o" x="252.4" y="246.6"/>  <use xlink:href="#p" x="258.9" y="246.6"/>  <use xlink:href="#q" x="264.5" y="246.6"/>  <use xlink:href="#r" x="267" y="246.6"/>  <use xlink:href="#p" x="272.4" y="246.6"/>  <use xlink:href="#s" x="278" y="246.6"/>  <use xlink:href="#p" x="284.2" y="246.6"/>  <use xlink:href="#t" x="289.8" y="246.6"/>  <use xlink:href="#p" x="295.9" y="246.6"/>  <use xlink:href="#u" x="301.5" y="246.6"/> </g> <path d="M3.7 2A1.7 1.7 0 1 1 .2 2a1.7 1.7 0 0 1 3.5 0zm0 0" style="fill:#fdfdfa;fill-opacity:1;fill-rule:nonzero;stroke:#575747;stroke-width:.5;stroke-linecap:butt;stroke-linejoin:miter;stroke-miterlimit:4;stroke-opacity:1" transform="translate(372.10698,257.83064)"/> <path d="M363.6 263.4c0 .6-.2 1.1-.6 1.5-.5.3-1.1.5-2 .5l-1-.1a3 3 0 0 1-1-.3v-.8a5 5 0 0 0 1.1.3l.9.1c.7 0 1.1-.1 1.4-.3.2-.2.4-.5.4-.8l-.2-.6-.5-.5a7.2 7.2 0 0 0-1.1-.4c-.5-.2-1-.5-1.3-.8-.3-.3-.5-.8-.5-1.3 0-.4.1-.7.3-1a2 2 0 0 1 .8-.6 3 3 0 0 1 1.2-.3h1a5 5 0 0 1 1.1.5l-.4.7a4.5 4.5 0 0 0-.8-.2h-1c-.4-.2-.6-.2-.9 0-.1.3-.3.6-.3 1l.1.5.5.4.9.4 1 .5c.3.2.7.4.8.7.1.2.1.5.1.9zm3.4-3.6c.5 0 1 .2 1.2.3a2 2 0 0 1 .8.9c.2.3.2.8.2 1.2v.6h-3.6c0 .6.2 1 .4 1.4.3.3.8.4 1.3.4h.9l.8-.4v.8c-.3.2-.5.3-.8.3a5 5 0 0 1-1 0 3 3 0 0 1-1.2-.1 2.2 2.2 0 0 1-1-1.2c-.2-.1-.3-.7-.3-1.3 0-.6 0-1.1.3-1.6.2-.4.4-.7.8-1l1.2-.2zm0 .8c-.4 0-.7 0-1 .4-.2.2-.4.6-.4 1h2.7c0-.3 0-.6-.3-1-.2-.3-.5-.4-1-.4zm6.1-.8h.6v1h-.7c-.2-.2-.5-.2-.7 0-.3.2-.5.4-.6.7l-.2 1v2.7h-.9v-5.3h.7l.1 1.1.8-.8c.2-.3.5-.4.9-.4zm3.3 5.6c-.6 0-1.2-.2-1.6-.7-.4-.5-.6-1.2-.6-2 0-1.1.2-1.7.6-2.3.5-.3 1-.6 1.7-.6.4 0 .7.2 1 .3a2 2 0 0 1 .5.5v-2.9h1v7.6h-.7l-.3-.7a2 2 0 0 1-.5.4c-.3.3-.6.4-1 .4zm.2-.7c.4 0 1-.2 1.2-.5.2-.3.2-.8.2-1.4v-.2c.1-.6.1-1.1-.2-1.5-.2-.4-.6-.5-1.2-.5s-.9.1-1.1.4c-.2.5-.4 1.1-.4 1.6 0 .7.2 1.2.4 1.5.2.4.6.6 1 .6zm6.1-4.9c.7 0 1.3.2 1.5.5.3.3.4.7.4 1.3v3.7h-.6l-.2-.8-.8.7-1 .2c-.5 0-.9-.1-1.2-.4-.3-.2-.5-.7-.5-1.2s.2-1 .6-1.2c.4-.3 1.1-.6 2.1-.6h.8v-.3c0-.4-.1-.7-.3-.9-.2-.2-.5-.2-.8-.2h-.8l-.7.4-.3-.7.8-.3 1-.2zm1 2.9h-.7c-.7 0-1.1.1-1.4.3-.3.2-.4.5-.4.8 0 .3.1.5.3.7l.7.2c.4 0 .8-.1 1.1-.4.3-.2.5-.6.5-1.2zm5.1-2.9h.6v1h-.8c0-.2-.3-.2-.6 0s-.5.4-.6.7l-.2 1v2.7h-.9v-5.3h.7l.1 1.1.8-.8c.2-.3.5-.4.9-.4zm0 0" style="fill:none;stroke:#fff;stroke-width:3;stroke-linecap:butt;stroke-linejoin:round;stroke-miterlimit:10;stroke-opacity:.6" transform="rotate(  340 375.855 259.831) translate(0,-9.4576271)"/> <g style="fill:#212121;fill-opacity:1" transform=" rotate(  340 375.855 259.831) ">  <use xlink:href="#v" x="358.6" y="255.8"/>  <use xlink:href="#w" x="364.1" y="255.8"/>  <use xlink:href="#x" x="369.8" y="255.8"/>  <use xlink:href="#y" x="373.7" y="255.8"/>  <use xlink:href="#p" x="379.8" y="255.8"/>  <use xlink:href="#x" x="385.5" y="255.8"/> </g> <path d="M3.8 2A1.7 1.7 0 1 1 .3 2a1.7 1.7 0 0 1 3.5 0zm0 0" style="fill:#fdfdfa;fill-opacity:1;fill-rule:nonzero;stroke:#575747;stroke-width:.5;stroke-linecap:butt;stroke-linejoin:miter;stroke-miterlimit:4;stroke-opacity:1" transform="translate(23.541479,241.42708)"/> <path d="M12.7 239.4h-1l-3.8-6v6.1H7v-7.2h1l4 5.9v-5.9h.7zm3.9-5.4c.5 0 .9 0 1.2.3a2 2 0 0 1 .8.7l.2 1.4v.5h-3.7c0 .6.2 1.1.5 1.4.4.3.7.5 1.4.5l.8-.1.8-.3v.8l-.8.2a5 5 0 0 1-1 .1 3 3 0 0 1-1.3-.3 2.2 2.2 0 0 1-1-.9l-.2-1.5c-.1-.6 0-1.1.2-1.5.2-.4.5-.8.9-1 .3-.2.6-.3 1.2-.3zm0 .7c-.4 0-.7.1-1 .3-.2.4-.4.7-.4 1.2h2.7c0-.4-.1-.8-.3-1-.2-.5-.6-.6-1-.6zm6 0h-1.3v4.7h-.9v-4.7h-1v-.4l1.1-.3v-.3c-.1-.7.1-1.2.5-1.5.2-.2.6-.4 1.2-.4h.6l.4.2-.2.6h-.4l-.4-.1c-.3 0-.5 0-.7.3l-.2 1v.2h1.3zm2.8 4.1h.4l.4-.1v.7h-.4l-.5.2-.8-.2c-.3-.1-.5-.4-.6-.5l-.2-1v-3.2h-.8v-.4l.8-.3.4-1.2h.5v1.3H26v.6h-1.4v3.1c0 .4 0 .6.2.8l.6.2zm4 .7c-.5 0-.9 0-1.4-.3l-.8-.9c-.2-.3-.2-.9-.2-1.5 0-.8 0-1.2.3-1.6.2-.4.5-.7.9-1l1.2-.2h.8l.8.4-.4.6-.6-.2h-.6c-1-.1-1.6.5-1.6 1.9 0 .7.2 1.2.4 1.6.3.3.8.5 1.2.5l.8-.1.6-.2v.7a2 2 0 0 1-.6.2l-.8.1zm.8 1.3c0 .3-.1.6-.4.8l-1 .2h-.7v-.6h1.2l.2-.4c0-.1 0-.3-.3-.3a2 2 0 0 0-.6-.2l.4-.9h.6l-.3.6.7.2.2.6zM34 234c.8 0 1.3 0 1.6.4.2.3.4.7.4 1.4v3.6h-.7l-.1-.7-.9.6-.9.2c-.6 0-1.1-.1-1.4-.4-.2-.1-.4-.6-.4-1.1 0-.6.2-1 .7-1.3.4-.3 1-.4 2-.5h.7v-.3c.1-.5.1-.9-.2-1l-.8-.1h-.8l-.7.3-.3-.7.9-.3.9-.1zm1.2 2.8h-.9c-.6 0-1.1.2-1.3.4-.3.1-.4.4-.4.7 0 .3 0 .6.2.7l.7.2c.5 0 .9-.1 1.2-.4.3-.2.3-.6.3-1.1zm3.3 2.6h-.9v-7.6h1zm3.8-5.4c.6 0 1 0 1.3.4.4.3.6.7.6 1.4v3.6h-.7l-.1-.7-.9.6-.9.2c-.6 0-1.1-.1-1.4-.4-.2-.1-.4-.6-.4-1.1 0-.6.2-1 .7-1.3.4-.3 1-.4 2-.5h.7v-.3c.1-.5.1-.9-.2-1l-.8-.1h-.8l-.7.3-.3-.7.9-.3 1-.1zm1 2.8h-.8c-.7 0-1.1.2-1.4.4-.1.1-.4.4-.4.7.1.3.2.6.3.7l.7.2c.5 0 .9-.1 1.3-.4.2-.2.3-.6.3-1.1zm0 0" style="fill:none;stroke:#fff;stroke-width:3;stroke-linecap:butt;stroke-linejoin:round;stroke-miterlimit:10;stroke-opacity:.6" transform=" rotate(  340 27.293 243.426) "/> <g style="fill:#212121;fill-opacity:1" transform=" rotate(  340 27.293 243.426) ">  <use xlink:href="#z" x="6.1" y="239.4"/>  <use xlink:href="#w" x="13.7" y="239.4"/>  <use xlink:href="#A" x="19.3" y="239.4"/>  <use xlink:href="#u" x="22.8" y="239.4"/>  <use xlink:href="#B" x="26.4" y="239.4"/>  <use xlink:href="#p" x="31.2" y="239.4"/>  <use xlink:href="#q" x="36.8" y="239.4"/>  <use xlink:href="#p" x="39.4" y="239.4"/> </g> <use style="fill:#fdfdfa;fill-opacity:1;fill-rule:nonzero;stroke:#575747;stroke-width:.5;stroke-linecap:butt;stroke-linejoin:miter;stroke-miterlimit:4;stroke-opacity:1" transform="translate(209.24577,201.06112)" xlink:href="#reuse-1"/> <path d="M182.7 199h-.9v-6.2h-2.2v-.8h5.3v.7h-2.2zm7.2-5.3v5.4h-.9v-.7l-.7.6-1 .2c-.7 0-1.3-.2-1.5-.5-.3-.3-.5-.8-.5-1.5v-3.5h1v3.5c-.1.8.2 1.2 1 1.2.7 0 1.1-.1 1.3-.4.4-.4.4-.9.4-1.5v-2.8zm-3.7-1.4c0-.3 0-.3.2-.5h.6l.2.6c0-.1 0 0-.2.2l-.3.2c-.1 0-.3 0-.3-.2l-.2-.3zm1.9 0 .1-.5h.7l.1.6v.2l-.4.2c-.2 0-.3 0-.4-.2l-.1-.3zm5.9 1.3h.8l-.2 1h-.6l-.8-.1-.5.8c-.2.2-.2.5-.2.9v2.9h-1v-5.4h.9v1h.1l.6-.8c.3-.2.6-.3 1-.3zm2.6-2.1v4.8l.1-.2.3-.3.2-.3 1.8-1.8h1l-2.2 2.3 2.2 3h-.9l-2.1-2.3-.3.3v2h-1v-7.5zm10.4 2.1c.4 0 1 .2 1.2.5.4.3.5.8.5 1.5v3.4h-.7v-3.4c-.1-.8-.5-1.3-1.2-1.3-.6 0-1 .2-1.2.5-.2.3-.3.7-.3 1.3v3h-.8v-3.5c0-.8-.5-1.3-1.2-1.3-.5 0-.9.2-1 .5-.3.4-.5.9-.5 1.5v2.7h-.8v-5.3h.8v.7h.2c.1-.2.3-.4.6-.6l.9-.2c.8 0 1.4.4 1.6.9h.1l.8-.7 1-.2zm5.5 0c.4 0 .8.1 1.1.4a2 2 0 0 1 .8.7c.2.5.3.9.3 1.3v.5H211c0 .7.2 1.1.5 1.5.3.2.7.4 1.2.4h1l.6-.4v.8l-.7.3a5 5 0 0 1-1-.1 3 3 0 0 1-1.2 0 2.2 2.2 0 0 1-1-1.1c-.2-.4-.3-.9-.3-1.5s-.1-1 .3-1.4l.8-1c.4-.2.8-.3 1.3-.3zm0 .7c-.5 0-.9.2-1.1.4-.3.3-.4.7-.4 1.3h2.7c0-.6 0-1-.3-1.2-.2-.4-.4-.5-1-.5zM218.6 193.6c.6 0 1.1.2 1.5.5.3.3.5.8.5 1.5v3.4h-1v-3.4c.1-.8-.2-1.3-1-1.3-.7 0-1.1.2-1.4.5-.2.4-.2.9-.2 1.5v2.7h-1v-5.3h.7l.3.7c.1-.2.3-.4.6-.6l1-.2zm4.4-2.1v1.8a16.2 16.2 0 0 1 0 1.1l.8-.6.9-.2c.8 0 1.3.2 1.7.7.4.5.6 1.2.6 2 0 1.1-.2 1.7-.7 2.3-.3.3-.9.6-1.5.6-.5 0-.8-.2-1-.3-.5-.1-.7-.3-.8-.5l-.3.6h-.5v-7.5zm1.7 2.8c-.7 0-1.1.2-1.3.5-.2.4-.3.9-.3 1.6-.1.6.1 1.2.3 1.5.2.4.6.5 1.2.5.5 0 .9-.1 1-.4.4-.4.4-1 .4-1.6 0-1.4-.4-2-1.4-2zm5.7-.7c.6 0 1.1.2 1.4.4.4.3.5.8.5 1.4v3.7h-.6l-.2-.8-.8.7-1 .2c-.5 0-1-.2-1.3-.4-.3-.3-.4-.8-.4-1.2 0-.6.2-1 .6-1.3.4-.2 1-.3 2-.3h.7v-.6c.1-.3.1-.6-.1-.9l-.9-.1c-.2-.1-.5-.1-.8.1l-.7.2-.2-.6c.2-.2.4-.3.8-.3l1-.2zm1 2.8h-.7c-.7.2-1.2.3-1.4.5-.3.1-.4.3-.4.7 0 .3 0 .4.3.6.1.2.4.3.7.3.4 0 .8-.2 1.1-.5.3-.2.4-.6.4-1.1zm6.1 1.2c0 .4-.2.9-.6 1.2-.4.2-1 .4-1.6.4l-1-.2-.6-.2v-.8l.7.3 1 .2c.3 0 .6-.1.9-.3l.2-.5v-.4l-.4-.3a7.6 7.6 0 0 0-.8-.4 7.5 7.5 0 0 1-.9-.4l-.6-.4-.2-.8c0-.4.2-.8.6-1 .4-.3.8-.4 1.4-.4l1 .1a4 4 0 0 1 .8.3l-.4.7-.7-.3h-1.6l-.2.6v.3l.5.4 1 .3.7.4c.3.1.4.3.6.5l.2.7zm-1 2.9c0 .3 0 .5-.3.7-.3.2-.7.3-1.2.3h-.4v-.7h1l.2-.4c0-.1 0-.2-.2-.4a2 2 0 0 0-.7-.1l.5-.8h.5l-.2.5.6.3c.2.1.2.3.2.6zm1.5-6.8h.8l1.2 3 .3.9.2.6.2-.6c0-.3.2-.6.3-.8l1-3.1h1l-2.3 6.1c-.2.5-.4 1-.7 1.2-.3.3-.7.5-1.2.5h-.5l-.3-.2v-.6h.6c.4 0 .6 0 .7-.2l.5-.7.3-.7zm0 0" style="fill:none;stroke:#fff;stroke-width:3;stroke-linecap:butt;stroke-linejoin:round;stroke-miterlimit:10;stroke-opacity:.6" transform=" rotate(  340 212.996 203.062) "/> <g style="fill:#212121;fill-opacity:1" transform=" rotate(  340 212.996 203.062) ">  <use xlink:href="#C" x="179.5" y="199.1"/>  <use xlink:href="#D" x="184.5" y="199.1"/>  <use xlink:href="#x" x="190.7" y="199.1"/>  <use xlink:href="#r" x="194.9" y="199.1"/>  <use xlink:href="#E" x="200.2" y="199.1"/>  <use xlink:href="#w" x="209.5" y="199.1"/>  <use xlink:href="#s" x="215.2" y="199.1"/>  <use xlink:href="#t" x="221.4" y="199.1"/>  <use xlink:href="#p" x="227.5" y="199.1"/>  <use xlink:href="#F" x="233.1" y="199.1"/>  <use xlink:href="#G" x="237.9" y="199.1"/> </g> <path d="M43.9 31.6 46 20.9h1.5L46.4 26l5-5.1h1.7l-5.3 5.3 3.2 5.4h-1.4l-3.3-5.3-1 5.3zm10.7.1c-.6 0-1.2-.2-1.6-.7-.4-.4-.6-1-.6-2 0-.8.1-1.5.3-2.2a6.3 6.3 0 0 1 .8-1.7 4 4 0 0 1 1.3-1.3 3 3 0 0 1 1.6-.4c.5 0 1 .1 1.3.4l.7 1 .6-1.3h1l-1.8 8h-.9l.1-1.3a6 6 0 0 1-1.4 1c-.3.4-.9.5-1.4.5zm.4-1c.4-.1.8-.3 1.1-.6a4 4 0 0 0 1-.9 6 6 0 0 0 .8-2.5V26c.1-.4-.1-.8-.4-1-.2-.4-.5-.5-1-.5s-.7.1-1 .4c-.5.1-.8.5-1.1 1l-.4 1.4c-.2.7-.2 1.1-.2 1.7 0 .6 0 1 .2 1.2.3.3.6.4 1 .4zm9 1c-1 0-1.8-.2-2.3-.7-.5-.5-.8-1.3-.8-2.3.1-.7.1-1.4.3-2a5.5 5.5 0 0 1 .9-1.7 4 4 0 0 1 1.3-1.2 3.5 3.5 0 0 1 1.7-.4l1.1.1 1 .3-.5 1-.7-.1a3 3 0 0 0-1-.2c-.3 0-.8.2-1.2.6-.6.4-.9.9-1.1 1.5a5.8 5.8 0 0 0-.5 2.1c.1.6.2 1 .6 1.4.2.4.7.5 1.2.5l1-.1 1-.5v1.2l-1 .4-1.1.1zm3.4-.1 1.6-8.1h1.3L70 25a7 7 0 0 1 .8-.8l.9-.6c.3-.2.7-.3 1.1-.3.7 0 1.2.2 1.6.7.3.2.5.7.5 1.4v.6l-.3.7-.9 4.9h-1.4l1-5a9 9 0 0 0 .2-.8v-.3c0-.6-.3-1-1-1-.5 0-.7.2-1 .5-.5 0-.9.5-1.3 1-.2.5-.5 1.2-.7 2.1l-.7 3.5zm11.1.1c-.5 0-1-.1-1.4-.5-.4-.2-.6-.8-.6-1.5v-.6l.3-.7.9-4.9h1.4l-1.1 5a5 5 0 0 0-.1 1.1c0 .4 0 .7.1.9l1 .1c.2 0 .6 0 1-.3s.8-.7 1.1-1.3c.4-.4.6-1 .9-2l.6-3.5H84l-1.8 8h-.9v-1.3a8 8 0 0 1-.8.6l-.8.7-1.2.2zm11.3-9.2c-.9 0-1.5-.2-1.8-.5-.4-.4-.6-.8-.6-1.3v-.5h1.3v.4c-.1.3-.1.4.2.7.1.2.5.2 1 .2.4 0 .8 0 1.1-.2.3-.3.5-.6.6-1.1H93c-.2.7-.5 1.2-1.1 1.7-.3.4-1 .6-2 .6zm-2.6 9.2c-.6 0-1-.1-1.4-.5-.4-.2-.6-.8-.6-1.5v-.6l.3-.7.9-4.9h1.4l-1.1 5a5 5 0 0 0-.2 1.1c0 .4.1.7.3.9l.8.1c.3 0 .7 0 1.1-.3.4-.3.8-.7 1.1-1.3.3-.4.6-1 .8-2l.7-3.5h1.3l-1.6 8h-1v-1.3a8 8 0 0 1-.8.6l-.9.7-.9.2zm9.6 0c-1 0-1.6-.2-2.2-.7-.5-.5-.8-1.3-.8-2.3 0-.7 0-1.4.2-2a5.5 5.5 0 0 1 .9-1.7 4 4 0 0 1 1.3-1.2 3.5 3.5 0 0 1 1.8-.4l1 .1c.4 0 .7.2 1 .3l-.4 1-.6-.1a3 3 0 0 0-1-.2c-.6 0-1 .2-1.5.6-.4.4-.8.9-1 1.5a5.8 5.8 0 0 0-.4 2.1c0 .6.2 1 .5 1.4.4.4.8.5 1.4.5l1-.1.9-.5v1.2l-1 .4-1.1.1zm3.5-.1 1.7-8h1.3l-.8 3.7 3.7-3.8h1.8l-4.1 4 2.7 4H105l-2.6-3.9-.8 4zm10.3.1c-1 0-1.7-.3-2.2-.8-.6-.6-.8-1.3-.8-2.3 0-.6 0-1.2.2-1.8a5.9 5.9 0 0 1 .8-1.8 4 4 0 0 1 1.2-1.1c.6-.3 1.2-.5 1.8-.5 1 0 1.7.3 2.2.9.5.5.8 1.3.8 2.2 0 .6 0 1.3-.3 1.9a5.5 5.5 0 0 1-.7 1.6c-.4.5-.8 1-1.3 1.2-.5.4-1 .5-1.7.5zm0-1c.6-.1 1.1-.4 1.4-.7.3-.2.7-.7.9-1.3a6.4 6.4 0 0 0 .3-2.3l-.1-.9a1.5 1.5 0 0 0-.5-.7c-.3-.2-.6-.3-1-.3a2 2 0 0 0-1.4.6c-.4.4-.7.9-1 1.5a6.2 6.2 0 0 0-.2 2c0 .8.1 1.2.4 1.6.3.2.6.4 1.3.4zm8.4 1c-1 0-1.8-.2-2.3-.7-.4-.6-.7-1.4-.7-2.3a6.6 6.6 0 0 1 1.1-3.6c.4-.5.8-1.1 1.3-1.2a3 3 0 0 1 1.6-.5c.8 0 1.4.2 1.8.5.2.3.5.8.5 1.4 0 .5-.1 1-.3 1.4-.5.3-1 .8-1.7 1-.7.3-1.6.4-2.7.4h-.2v.6c0 .6.1 1 .4 1.3.3.5.8.6 1.4.6l1-.1 1.2-.5v1.1l-1.2.5-1.2.1zm-1.5-4.7h1.9l1.2-.6c.3-.4.4-.6.4-1s0-.5-.2-.7l-.8-.2c-.5 0-1 .2-1.4.7-.6.4-.8 1-1 1.8zm.1 0" style="fill:none;stroke:#fff;stroke-width:2;stroke-linecap:butt;stroke-linejoin:round;stroke-miterlimit:10;stroke-opacity:.6" transform="rotate(  340 109.328 100.43) translate(33.019789,61.023915)"/> <path d="m34.4 50.2 1.7-8H38l.7 6.4 3.5-6.4h1.9l-1.7 8h-1.2l1-4.6c0-.4.2-.6.3-1.1l.2-1-3.8 6.6H38l-1.1-6.6a56.3 56.3 0 0 1-.4 2.2l-.9 4.5zm13.8.2c-1 0-1.6-.4-2.2-.9-.5-.5-.8-1.3-.8-2.2 0-.7.1-1.3.3-1.9a5.9 5.9 0 0 1 .7-1.6 4 4 0 0 1 1.3-1.3c.5-.3 1-.4 1.7-.4 1-.1 1.8.3 2.2.8.6.6.8 1.3.8 2.3 0 .6 0 1.2-.2 1.8a5.5 5.5 0 0 1-.8 1.7c-.2.5-.7.9-1.2 1.2-.5.3-1.1.5-1.8.5zm0-1.1c.7 0 1.1-.3 1.5-.5.3-.4.6-.9.9-1.5a6.4 6.4 0 0 0 .2-2.3c.1-.3.1-.5-.1-.8a1.5 1.5 0 0 0-.5-.7c-.2-.2-.5-.3-1-.3a2 2 0 0 0-1.4.5c-.4.4-.7 1.1-1 1.6a6.2 6.2 0 0 0-.1 2.1c-.1.6 0 1 .3 1.4.3.2.7.5 1.3.5zM52.6 53.8l2.5-11.6h.9v1.5l1.2-1.2c.5-.3 1-.4 1.5-.4.7-.1 1.3.2 1.6.6.4.6.6 1.3.6 2.2l-.3 2a6.3 6.3 0 0 1-.8 1.8c-.3.5-.7 1-1.2 1.2a3 3 0 0 1-1.6.5c-.6 0-1-.1-1.3-.4a2.8 2.8 0 0 1-.8-1 10.7 10.7 0 0 1-.4 1.4l-.5 3.4zm4.4-4.5c.3 0 .6-.1.9-.4.5-.2.8-.6 1-.9l.4-1.6c.2-.4.2-1 .2-1.6 0-1.1-.4-1.6-1.2-1.6-.4 0-.7 0-1 .3l-1 1a5.4 5.4 0 0 0-1 3.2c0 .5.2.8.4 1.1.3.3.7.5 1.3.5zm8.3 1.1c-1 0-1.7-.4-2.3-.8-.4-.6-.7-1.3-.7-2.2a6.6 6.6 0 0 1 1.1-3.6c.4-.7.8-1 1.3-1.3a3 3 0 0 1 1.7-.5c.6 0 1.3.2 1.6.5.5.5.7.8.7 1.5 0 .4-.2 1-.5 1.3-.3.5-.9.8-1.6 1-.6.4-1.5.6-2.6.6h-.3v.4c0 .7.1 1.1.3 1.5.4.2 1 .5 1.5.5.4 0 .7 0 1-.2.5 0 .9-.1 1.3-.4v1.1l-1.2.4-1.3.2zm-1.4-4.7h.1c.6 0 1.2 0 1.7-.2.5 0 .9-.2 1.2-.5.3-.2.5-.6.5-1l-.4-.6c0-.2-.3-.4-.7-.4-.5.1-1 .4-1.4.8-.4.5-.9 1-1 1.9zm.1 0" style="fill:none;stroke:#fff;stroke-width:2;stroke-linecap:butt;stroke-linejoin:round;stroke-miterlimit:10;stroke-opacity:.6" transform="rotate(  340 109.328 100.43) translate(63.531746,55.172306)"/> <g style="fill:#4c7fb3;fill-opacity:1" transform=" rotate(  340 109.328 100.43) ">  <use xlink:href="#H" x="76.3" y="92.6"/>  <use xlink:href="#I" x="84.7" y="92.6"/>  <use xlink:href="#J" x="93.2" y="92.6"/>  <use xlink:href="#K" x="100" y="92.6"/>  <use xlink:href="#L" x="108.7" y="92.6"/>  <use xlink:href="#M" x="117.4" y="92.6"/>  <use xlink:href="#J" x="126.1" y="92.6"/>  <use xlink:href="#N" x="132.9" y="92.6"/>  <use xlink:href="#O" x="139.9" y="92.6"/>  <use xlink:href="#P" x="148.3" y="92.6"/>  <use xlink:href="#Q" x="97.5" y="105.4"/>  <use xlink:href="#O" x="108" y="105.4"/>  <use xlink:href="#R" x="116.5" y="105.4"/>  <use xlink:href="#P" x="125.2" y="105.4"/>  <use xlink:href="#glyph3-12" x="102.1" y="111.3"/> </g> <path d="M210.7 116.4c-.9 0-1.7-.2-2-.7-.5-.5-.8-1.1-.8-2a6 6 0 0 1 .3-1.7c.2-.7.5-1 .8-1.6l1.2-1c.5-.2 1-.3 1.6-.3l1.1.1c.4 0 .7.2 1.1.3l-.5.8a7.8 7.8 0 0 0-.8-.3l-1-.1c-.4 0-.9.1-1.3.5-.5.3-.9.6-1.1 1.3a4.8 4.8 0 0 0-.4 2c0 .3 0 .7.2 1 .1.3.3.5.6.7.3.2.6.2 1 .2h.7l.6-.2.4-2H211l.2-.9h2.3l-.8 3.5a8 8 0 0 1-1 .3l-.9.1zm5.3 0c-.6 0-.9-.1-1.2-.4-.2-.4-.3-.8-.3-1.4 0-.6 0-1 .2-1.4l.5-1.2c.2-.4.5-.6.9-.8a2 2 0 0 1 .9-.3c.5 0 .8 0 1 .1l.5.8.3-.8h.7l-1.1 5.3h-.7l.1-1c-.3.3-.5.7-.9.8-.3.2-.6.3-.9.3zm.1-.7c.4 0 .6 0 .9-.3l.6-.7a4 4 0 0 0 .4-1 3 3 0 0 0 .1-.7 4 4 0 0 0 0-.3c.1-.3.1-.7-.1-.8-.3-.2-.5-.3-.8-.3-.2 0-.5 0-.7.3a2 2 0 0 0-.6.6l-.4 1-.1 1.1c0 .4 0 .6.2.8.1.2.3.3.6.3zm3.9.6 1-5.3h.8v1l.4-.7.5-.3H224l-.2.7h-.5c-.4 0-.7 0-1 .3l-.5.8-.4 1-.6 2.6zm5.4.1c-.4 0-.8-.1-1-.4-.4-.4-.5-.8-.5-1.4l.2-1.4.6-1.2c.2-.4.5-.6.8-.8a2 2 0 0 1 1-.3c.5 0 .8 0 1.1.1l.2.8.6-.8h.6l-1.2 5.3h-.7l.2-1-1 .8c-.2.2-.5.3-.9.3zm.3-.7c.2 0 .5 0 .7-.3.2-.2.5-.4.6-.7a4 4 0 0 0 .5-1 3 3 0 0 0 0-.7 4 4 0 0 0 .2-.3c-.1-.3-.1-.7-.3-.8-.2-.2-.4-.3-.7-.3-.3 0-.5 0-.8.3a2 2 0 0 0-.5.6l-.4 1-.2 1.1c0 .4.2.6.3.8.1.2.3.3.6.3zm6.1.7c-.3 0-.6 0-.8-.3a2 2 0 0 1-.5-.6l-.5.8h-.6l1.6-7.6h1l-.6 1.8v.7a53.2 53.2 0 0 1-.2.8 5 5 0 0 1 .8-.8c.3-.2.6-.3 1-.3s.8.1 1 .4c.3.3.4.8.4 1.4l-.1 1.4-.6 1.2-.7.7a2 2 0 0 1-1 .4zm0-.7c.2 0 .5 0 .7-.3l.5-.6a4 4 0 0 0 .4-1 5 5 0 0 0 .2-1.1c0-.7-.3-1.1-1-1.1 0 0-.3 0-.6.3l-.6.6-.5 1-.2 1.1c0 .4.1.6.3.8.2.2.4.3.8.3zm5.6.7c-.6 0-1.1-.2-1.4-.5-.4-.4-.6-1-.6-1.6 0-.3 0-.8.2-1.2a4 4 0 0 1 .4-1c.3-.5.6-.8.9-1l1.2-.2c.6 0 1.1.1 1.5.5.3.4.4 1 .4 1.6 0 .4 0 .8-.1 1.2a4 4 0 0 1-.5 1c-.2.5-.4.8-.8 1-.3.1-.7.2-1.2.2zm0-.7c.5 0 .8-.1 1.1-.4l.5-1 .2-1.3-.1-.7a1 1 0 0 0-.4-.5l-.6-.2c-.4 0-.7.1-1 .4l-.5 1a4 4 0 0 0-.3 1.4c0 .4.1.6.3 1 .2.1.5.2.9.2zm5 3h-.9l-.7-.4v-.7l.7.3a3 3 0 0 0 .9 0c.4.1.6.1 1-.1.3-.3.6-.6.6-1.1v-.4l.3-.5v-.5l-.8.8c-.3.2-.6.3-1 .3s-.8-.1-1-.4c-.3-.4-.5-.8-.5-1.4l.2-1.4.6-1.2.8-.8a2 2 0 0 1 1-.3c.4 0 .8 0 1.1.1l.3.8.5-.8h.6l-1.2 5.6c-.2.8-.5 1.4-1 1.6-.2.4-.7.5-1.4.5zm.4-3c.2 0 .4 0 .7-.3l.5-.6.6-1 .1-1.1c0-.3 0-.7-.2-.8-.2-.2-.5-.3-.7-.3-.3 0-.6 0-.8.3l-.6.7-.3 1-.2.9c.1.8.3 1.2.9 1.2zm5.5.7c-.4 0-.8-.1-1-.4-.3-.4-.6-.8-.6-1.4l.3-1.4c.2-.5.3-.9.6-1.2.2-.4.4-.6.8-.8a2 2 0 0 1 1-.3c.5 0 .8 0 1.1.1l.2.8.6-.8h.6l-1.2 5.3h-.7l.2-1-1.1.8c-.1.2-.3.3-.8.3zm.3-.7c.2 0 .4 0 .7-.3l.6-.7a4 4 0 0 0 .5-1 3 3 0 0 0 0-.7 4 4 0 0 0 .2-.3c-.1-.3-.1-.7-.4-.8-.1-.2-.4-.3-.6-.3-.3 0-.6 0-.8.3a2 2 0 0 0-.5.6l-.4 1-.2 1.1.3.8c.1.2.3.3.6.3zm3.3.6.1-.6 3.3-4H253l.2-.7h3.2l-.1.7-3.3 4h2.6l-.2.6zm4.9 0 1.6-7.6h.9l-.7 3-.3 1.3-.2.6 2.7-2.6h.9l-2.3 2.3 1.6 3h-1.1l-1.1-2.5-.8.6-.4 2zm6.9.1c-.6 0-1.1-.2-1.4-.5-.4-.4-.7-1-.7-1.6.1-.3.1-.8.4-1.2a4 4 0 0 1 .4-1c.2-.5.5-.8.8-1l1.2-.2c.6 0 1.1.1 1.5.5.3.4.5 1 .5 1.6 0 .4 0 .8-.2 1.2a4 4 0 0 1-.5 1c-.2.5-.5.8-.7 1-.4.1-.8.2-1.3.2zm0-.7c.5 0 .8-.1 1.1-.4l.4-1 .3-1.3-.1-.7a1 1 0 0 0-.4-.5l-.6-.2c-.4 0-.7.1-1 .4l-.5 1a4 4 0 0 0-.3 1.4c0 .4.1.6.4 1 .1.1.4.2.8.2zm2-5.7h-.4l-.3-.4c.1-.2.1-.3.3-.4l.4-.2.3.1v.9h-.5zm-1.9 0h-.3l-.2-.4c0-.2 0-.3.2-.4l.4-.2.3.1v.9h-.5zm3.3 6.3 1.7-7.6h.8l-1.6 7.6zm0 0" style="fill:none;stroke:#fff;stroke-width:2;stroke-linecap:butt;stroke-linejoin:round;stroke-miterlimit:10;stroke-opacity:.6" transform=" rotate(  340 240.435 113.322) "/> <g style="fill:#4c7fb3;fill-opacity:1" transform=" rotate(  340 240.435 113.322) ">  <use xlink:href="#S" x="207.2" y="116.3"/>  <use xlink:href="#f" x="214" y="116.3"/>  <use xlink:href="#T" x="219.7" y="116.3"/>  <use xlink:href="#f" x="223.5" y="116.3"/>  <use xlink:href="#U" x="229.1" y="116.3"/>  <use xlink:href="#V" x="234.9" y="116.3"/>  <use xlink:href="#W" x="240.6" y="116.3"/>  <use xlink:href="#f" x="246.4" y="116.3"/>  <use xlink:href="#X" x="252" y="116.3"/>  <use xlink:href="#h" x="256.5" y="116.3"/>  <use xlink:href="#Y" x="261.2" y="116.3"/>  <use xlink:href="#g" x="266.9" y="116.3"/> </g></svg>