<svg xmlns="http://www.w3.org/2000/svg" xmlns:xlink="http://www.w3.org/1999/xlink" viewBox="0 0 497 279"> <defs overflow="visible" style="stroke:none">  <path id="s" d="M0 0h-.4v-.8l.3.1C0-.7.3-.7.4-.9l.6-.7.3-1.2.5-1.1.4-.9.8-.5h1a4.5 4.5 0 0 1 1 .1L4 0h-.9l1-4.6h-1l-.5.8-.5 1.3L1.5-1c-.1.3-.3.6-.5.8C.7 0 .4 0 0 0Zm0 0"/>  <path id="r" d="M.4 0 2-7.1h1L2-3.7 5.4-7h1.1L3-3.6 5.2 0h-1L2-3.5 1.3 0Zm0 0"/>  <path id="q" d="M2.5 0C1.9 0 1.4 0 1-.3.7-.7.5-1.2.5-2c0-.4 0-1 .2-1.3l.5-1c.3-.5.6-.7 1-1 .2-.1.6-.2.9-.2l.9.1.6.2-.2.7-.5-.1-.6-.1c-.4 0-.7.1-1 .4-.3.2-.5.6-.7 1A4 4 0 0 0 1.4-2c0 .5 0 .8.3 1 .2.2.5.3.9.3h.6a7 7 0 0 0 .6-.3v.8l-.6.2h-.7Zm0 0"/>  <path id="p" d="M2 0H1L.5-.5C.3-.7.2-.9.2-1.3c.1-.3.1-.6.4-.7l.6-.7L2-3a6 6 0 0 0 1-.5c.3-.2.4-.5.4-.7l-.1-.4-.7-.1a3 3 0 0 0-.7 0c-.2.3-.5.3-.7.4L1-5l.8-.3 1-.2c.4 0 .8.1 1 .3.4.2.6.6.6 1-.1.3-.1.6-.4.8a2 2 0 0 1-.6.4l-.8.5c-.3 0-.5.2-.8.3l-.5.4-.2.5c0 .2.1.3.3.5l.6.2c.4 0 .6 0 1-.2l.6-.2v.7L3 0a4 4 0 0 1-1.1 0Zm0 0"/>  <path id="o" d="M-.3 2.4h-.3l-.4-.1v-.7h.7c.3.1.5.1.7-.1.2-.2.4-.5.5-.8l.4-.6-.8-5.5h.9l.3 2.7v.7l.2.7v.6A28.4 28.4 0 0 1 2.5-2c-.1 0 .1-.3.2-.4l1.5-3h1L1.7 1c-.1.4-.4.8-.7 1-.4.3-.8.4-1.2.4Zm0 0"/>  <path id="n" d="m-.2 2.4 1.6-7.8h.7v1l.7-.6c.3-.3.7-.5 1-.5.5 0 .8.2 1 .5.5.3.6.8.6 1.4-.1.5-.1 1-.3 1.4L4.6-1l-.8.8a2 2 0 0 1-1.1.3C2.3 0 2 0 1.8-.2a2 2 0 0 1-.5-.6v.4L1 .1.7 2.4Zm2.8-3c.4 0 .5-.1.7-.4.3 0 .5-.3.7-.6a4 4 0 0 0 .3-1 5 5 0 0 0 .1-.9c0-.9-.3-1.2-.9-1.2-.2 0-.4 0-.5.2l-.8.7-.4 1c-.2.3-.2.7-.2 1.1 0 .3 0 .6.2.8.2.2.5.3.8.3Zm0 0"/>  <path id="m" d="M2.4 0c-.6 0-1 0-1.4-.2C.8-.5.6-.9.6-1.4V-2a5 5 0 0 1 .2-.4l.6-3h.9L1.8-3l.5-.1h.5c.6-.1 1-.1 1.2.2.3.4.5.7.5 1.1s-.1.8-.3 1.1c-.1.2-.4.4-.7.5-.3.2-.7.3-1.1.3ZM5 0l1-5.4h1L5.8 0ZM2.4-.6c.4 0 .7-.1.9-.4a1 1 0 0 0 .3-.7l-.3-.6-.7-.1h-1v.6l-.2.3c.1.3.1.5.3.5.1.3.4.4.7.4Zm0 0"/>  <path id="l" d="m.3 0 1.1-5.3h1.2L3-1.1l2.5-4.2h1.2L5.6 0h-.8l.7-3 .1-.9.2-.6L3.3 0h-.7L2-4.5l-.3.7v.8L1 0Zm0 0"/>  <path id="k" d="M2.5 0C1.9 0 1.4 0 1-.4.7-.8.5-1.3.5-2l.1-1.2a4 4 0 0 1 .5-1.1c.3-.3.5-.7.9-.8.3-.2.7-.3 1.2-.3.6 0 1 .2 1.4.4.4.5.6 1.1.6 1.6L5-2a4 4 0 0 1-.5.9c-.2.5-.5.8-.8 1L2.5 0Zm0-.6c.5-.1.6-.1 1-.4.1-.2.3-.5.5-1 .2-.3.3-.8.3-1.4L4.2-4a1 1 0 0 0-.4-.5l-.6-.2c-.4 0-.7.1-1 .4-.2.2-.5.6-.6 1A4 4 0 0 0 1.4-2c0 .5 0 .8.3 1 .2.2.5.3.8.3Zm0-.1"/>  <path id="j" d="m.3 0 1.1-5.4h.7v1l.4-.5.6-.4.7-.2c.4 0 .7.2.9.5.2 0 .3.4.3.7l.5-.5.6-.5.9-.2c.3 0 .6.2.9.5.1 0 .2.4.2.9v.4l-.1.4L7.4 0h-.9l.7-3.4v-.4l.2-.2c-.1-.3-.1-.4-.3-.5 0-.2-.1-.2-.5-.2-.2 0-.4 0-.6.2l-.7.8c-.3.3-.4.7-.5 1.3L4.3 0h-1l.9-3.4v-1.1c-.4-.2-.5-.2-.8-.2-.1 0-.3 0-.6.2l-.6.8c-.3.3-.4.7-.5 1.4L1.2 0Zm0 0"/>  <path id="i" d="M2.6 0C1.9 0 1.3 0 1-.4.6-.9.5-1.5.5-2.1c0-.6 0-1.2.3-1.7.2-.5.6-1 1-1.2.4-.3 1-.5 1.5-.5.7 0 1 .2 1.4.5.3 0 .3.5.3.9s0 .7-.3 1.1l-1 .2c.5.1.7.3.9.5.1.2.2.3.2.8l-.2.7c-.2.3-.4.5-.7.6-.3.2-.9.3-1.3.3ZM1.5-3h1l1-.1.5-.3c.2-.2.2-.4.2-.6 0-.2 0-.4-.2-.5l-.7-.2c-.3 0-.8.1-1.2.4-.3.3-.5.7-.6 1.3ZM2.7-.6c.3 0 .7-.1 1-.4l.1-.6C4-1.8 4-2 3.6-2l-1-.3H1.4v.2c0 .5 0 .9.3 1.1.3.3.6.4 1 .4Zm0 0"/>  <path id="h" d="M2 0c-.6 0-.9 0-1.2-.3C.6-.7.5-1 .5-1.7c0-.5 0-1 .2-1.5l.5-1.1c.2-.4.5-.7.8-.9a2 2 0 0 1 1.1-.3c.4 0 .6.1.9.3l.5.7.3-.9h.7L4.4 0h-.7l.1-1c-.3.3-.5.6-.9.8-.3.2-.6.2-.9.2Zm.1-.5c.4-.1.6-.2.9-.5l.6-.6a4 4 0 0 0 .4-1 3 3 0 0 0 .1-.7 4 4 0 0 0 0-.4c.1-.3.1-.5-.1-.7-.3-.2-.5-.3-.8-.3-.3 0-.5 0-.7.2a2 2 0 0 0-.6.7l-.4 1-.1 1.1c0 .4 0 .6.2.8.1.2.3.3.6.3Zm.1-.1"/>  <path id="g" d="M3.6-6c-.6 0-1-.3-1.2-.5-.4-.1-.4-.4-.4-.8a1 1 0 0 1 0-.3h.9v.3c-.1.2-.1.3.1.3 0 .3.3.3.7.3.3 0 .5 0 .7-.2.2-.1.4-.3.4-.7h.9c-.1.6-.3.8-.7 1.1-.3.3-.8.5-1.4.5ZM1.9 0c-.4 0-.7 0-1-.1C.7-.5.5-.8.5-1.2v-.5L.8-2l.6-3.4h.9L1.4-2v1.2l.8.2c.2 0 .4-.1.8-.4l.6-.6.5-1.4.5-2.4h.9L4.4 0h-.8l.1-1-.5.5-.4.5-.9.1Zm0 0"/>  <path id="f" d="M1.9 0c-.4 0-.7 0-1-.1C.7-.5.5-.8.5-1.2v-.5L.8-2l.6-3.4h.9L1.4-2v1.2l.8.2c.2 0 .4-.1.8-.4l.6-.6.5-1.4.5-2.4h.9L4.4 0h-.8l.1-1-.5.5-.4.5-.9.1Zm0 0"/>  <path id="e" d="m.3 0 1.1-5.4h.9l-.6 2.6 2.5-2.6h1.1L2.7-2.7 4.5 0h-1L1.6-2.7 1.2 0Zm0 0"/>  <path id="d" d="M4 1.9 4.2 0C4.1 0 4-.1 4-.2L3.8-1h-.2l-.3.5a2 2 0 0 1-.6.5 2 2 0 0 1-.8 0c-.4 0-.7 0-.9-.1C.7-.5.5-.8.5-1.2v-.5L.8-2l.6-3.4h.9L1.4-2v1.2l.8.2c.2 0 .4-.1.8-.4l.6-.6.5-1.4.5-2.4h.9l-.8 3.8v.9h.7L4.8 2Zm0 0"/>  <path id="c" d="m.3 0 1.1-5.4h.9L1.8-3h2.5l.5-2.4h.9L4.6 0h-1l.7-2.4H1.7L1.2 0Zm0 0"/>  <path id="b" d="M2.4 0c-.6 0-1 0-1.4-.3C.6-.8.5-1.3.5-2c0-.3 0-.8.2-1.2 0-.4.3-.8.5-1.1.2-.4.5-.7.8-.8a2 2 0 0 1 1.2-.4c.5 0 .8.2 1.1.5.3 0 .4.4.4.8 0 .3-.1.7-.3 1-.4.2-.6.4-1 .6-.6.2-1.2.3-1.9.3h-.1v.3c0 .5 0 .8.3 1 .2.3.5.4.9.4l.7-.1A5 5 0 0 0 4-1v.7a6 6 0 0 1-.7.3h-.9Zm-.9-3 1.3-.1.7-.4c.2-.1.3-.4.3-.5l-.1-.6-.7-.1c-.2 0-.5.1-.9.4L1.6-3Zm0 0"/>  <path id="a" d="M.4 0 2-7.1h1l-.9 3h3.2l.7-3h.8L5.3 0h-.8l.7-3.3H2L1.3 0Zm0 0"/>  <path d="M1 0v-7.1h4V0Zm.4-.5h3.1v-6.1h-3Zm.1 0"/> </defs> <image xlink:href="svg/7/3_9.jpg" width="497" height="279"/> <path d="m412.1 165 1.6-7h.8l-.5 3h3l.7-3h.9l-1.6 7h-.8l.7-3.2h-3.2l-.7 3.3zm8.9.2c-.8 0-1.3-.2-1.6-.6-.2-.3-.4-.8-.4-1.4 0-.5 0-.9.2-1.3l.5-1.2c.3-.3.5-.6.9-.7a2 2 0 0 1 1-.4c.7 0 1.1.1 1.3.4.2.2.3.5.3 1l-.2.9-1.1.5c-.5.3-1 .4-1.9.4h-.1v.2c0 .5 0 1 .3 1.1.2.2.5.3.8.3h.8a5 5 0 0 0 .8-.4v.8a6 6 0 0 1-.8.2h-.8zm-1-3.2h1.2l.8-.5c.2-.1.3-.3.3-.6l-.1-.4-.6-.2c-.3 0-.6.2-1 .5l-.6 1.2zm3.8 3 1.1-5.2h1.1l-.8 2.2h2.8l.3-2.3h1l-1.3 5.4h-.8l.5-2.4h-2.5l-.5 2.3zm8.2.2c-.8 0-1.3-.2-1.6-.6-.2-.3-.4-.8-.4-1.4 0-.5 0-.9.2-1.3l.5-1.2c.3-.3.5-.6.9-.7a2 2 0 0 1 1-.4c.7 0 1.1.1 1.3.4.2.2.3.5.3 1l-.2.9-1.1.5c-.5.3-1 .4-1.9.4h-.1v.2c0 .5 0 1 .3 1.1.2.2.5.3.8.3h.8a5 5 0 0 0 .8-.4v.8a6 6 0 0 1-.8.2h-.8zm-1-3.2h1.2l.8-.5c.2-.1.3-.3.3-.6l-.1-.4-.6-.2c-.3 0-.6.2-1 .5l-.6 1.2zm7.4 5 .4-2c-.2.1-.3 0-.4-.2l-.1-.7-.6.5a2 2 0 0 1-.5.4 2 2 0 0 1-.8.2c-.4 0-.7-.2-1-.4-.2-.2-.3-.5-.3-1v-.8l.9-3.3h.8l-.8 3.4v1.2l.7.1c.2 0 .3 0 .7-.2.2-.1.5-.4.6-.8l.7-1.4.3-2.3h1.1l-1 3.8v.9h.9l-.7 2.5zm2.4-2 1-5.2h1.1l-.7 2.5 2.5-2.6h1.1l-2.6 2.7 1.7 2.6h-.9l-1.8-2.6-.6 2.7zm6.4.2c-.4 0-.7-.2-1-.4-.2-.2-.2-.5-.2-1v-.8l.7-3.3h.9l-.7 3.4-.1.7.1.5.6.1c.2 0 .5 0 .7-.2.3-.1.5-.4.8-.8.2-.3.4-.8.5-1.4l.5-2.3h.8l-1.1 5.4h-.7V164l-.4.6-.6.4-.8.2zm7.5-6.2c-.5 0-1 0-1.2-.3-.2-.2-.4-.5-.4-.9a1 1 0 0 1 0-.3h.9v.7l.8.2c.2 0 .6 0 .8-.2.2-.1.3-.4.4-.7h.8c0 .4-.3.8-.6 1-.3.5-.8.5-1.5.5zm-1.7 6.2c-.4 0-.7-.2-1-.4-.2-.2-.3-.5-.3-1v-.8l.9-3.3h.8l-.7 3.4-.1.7.1.5.6.1c.2 0 .4 0 .7-.2.3-.1.5-.4.7-.8.3-.3.4-.8.6-1.4l.5-2.3h.8l-1.1 5.4h-.7V164l-.4.6-.6.4-.8.2zm-48.3 11.9c-.5 0-.8-.1-1-.4-.5-.4-.6-.8-.6-1.4.1-.5.1-1 .3-1.4l.5-1.2.9-.8a2 2 0 0 1 1-.3c.4 0 .7 0 .9.2l.5.7.4-.8h.6l-1.1 5.3h-.7l.1-1-.8.8c-.3.2-.7.3-1 .3zm.2-.7c.3 0 .5-.1.8-.4l.6-.6a4 4 0 0 0 .5-1 3 3 0 0 0 0-.6 4 4 0 0 0 .1-.4c0-.4 0-.6-.2-.8-.2-.2-.5-.3-.7-.3-.3 0-.6 0-.8.2a2 2 0 0 0-.6.7l-.4 1V176.1l.8.3zm6.1.7c-.7 0-1.3-.1-1.6-.6-.4-.4-.5-1-.5-1.5 0-.7.1-1.3.3-1.8.2-.5.6-.9 1-1.2.4-.3 1-.4 1.5-.4.6 0 1 0 1.4.3.3.2.4.6.4 1.1s-.1.6-.4 1c-.1 0-.5.1-1 .2l.9.5c0 .2.2.4.2.8 0 .2 0 .5-.2.7l-.7.8H411zm-1.1-3.1h1.9l.6-.5c.2-.1.2-.2.2-.5 0-.2 0-.3-.2-.5-.1-.1-.3-.2-.7-.2-.4 0-.7.1-1.1.4-.4.3-.6.7-.7 1.3zm1.1 2.4c.5 0 .8-.1 1-.4l.2-.5c.1-.3.1-.5-.2-.6l-1-.2h-1.2v.2c0 .5.1 1.1.2 1.1.4.3.7.4 1.1.4zm3.1.6 1.1-5.3h.8l-.1 1 .4-.7.7-.3.6-.1c.4 0 .7 0 .9.3.2.1.3.5.3.8l.6-.4.6-.6.7-.1c.4 0 .7 0 1 .3.2.2.3.5.3 1.1v.3l-.1.5-.7 3.2h-.9l.7-3.3.1-.4v-.3l-.1-.5-.6-.2c-.2 0-.4 0-.6.2-.3.2-.5.5-.8.8l-.4 1.3-.5 2.4h-.9l.8-3.3v-1.2l-.6-.2c-.4 0-.5 0-.7.2-.3.2-.5.5-.7.8-.2.4-.4.8-.5 1.4l-.5 2.3zm10.9 0c-.5 0-1 0-1.3-.4-.5-.4-.7-.9-.7-1.6l.2-1.2a4 4 0 0 1 .5-1.1c.3-.3.5-.6.9-.8.3-.2.7-.3 1.1-.3.7 0 1.1.2 1.5.4.3.5.5 1.1.5 1.7l-.1 1.2a4 4 0 0 1-.6 1c-.2.5-.4.8-.8 1-.2.1-.7.2-1.1.2zm.2-.5c.2-.1.5-.2.8-.5l.6-1c.2-.2.2-.8.2-1.3v-.7a1 1 0 0 0-.5-.5l-.6-.2c-.3 0-.6.1-1 .4l-.4 1a4 4 0 0 0-.4 1.3c.1.5.1.8.3 1 .2.2.5.3.9.3zm3.3.5 1.1-5.3h.9l-.5 2.2h2.5l.5-2.2h1l-1.2 5.3h-1l.7-2.4h-2.6l-.5 2.4zm8.2 0c-.6 0-1.1 0-1.5-.4-.2-.4-.5-.9-.5-1.6 0-.4 0-.8.2-1.2a4 4 0 0 1 .5-1.1l.8-.8c.3-.2.7-.3 1.2-.3.6 0 1 .2 1.4.4.4.5.6 1.1.6 1.7 0 .3 0 .8-.2 1.2a4 4 0 0 1-.5 1c-.2.5-.5.8-.8 1l-1.2.2zm0-.5c.4-.1.7-.2 1-.5.1-.2.3-.5.4-1 .3-.2.4-.8.4-1.3l-.1-.7a1 1 0 0 0-.4-.5l-.6-.2c-.4 0-.7.1-1 .4-.2.2-.4.6-.6 1a4 4 0 0 0-.2 1.3c0 .5 0 .8.3 1 .1.2.5.3.8.3zm3.4.5 1.2-5.3h1.1l.6 4.2 2.3-4.2h1.3l-1.2 5.3h-.8l.7-3 .2-.8.2-.7-2.7 4.5h-.6l-.6-4.5-.1.7-.2.8-.5 3zm7 0 1.2-5.3h.7l-.3 2.2h2.5l.5-2.2h.8l-1 5.3h-1.1l.6-2.4h-2.5l-.5 2.4zm8.1.1c-.5 0-1-.1-1.3-.4-.3-.2-.4-.6-.4-1.1v-.6a5 5 0 0 1 0-.4l.8-3h.8l-.5 2.4h.4l.7-.2c.5.1.9.1 1.2.4.3.3.4.6.4 1s0 .8-.3 1.1l-.6.6-1.2.1zm2.6 0 1.2-5.5h1l-1.4 5.4zm-2.6-.8c.5.1.8 0 1-.3a1 1 0 0 0 .1-.6c.1-.4.1-.5-.1-.6-.2-.2-.5-.2-.8-.2h-1v1.6l.8.2zM463.7 171c-.5 0-1-.2-1.2-.4-.2-.2-.4-.5-.4-.8a1 1 0 0 1 0-.5h.9v.4c0 .2 0 .3.1.5l.7.1c.2 0 .5 0 .7-.2.3 0 .5-.3.5-.7h.8c0 .6-.3.9-.6 1.1-.4.3-.8.5-1.5.5zm-1.7 6c-.4.1-.7 0-1-.2-.2-.2-.3-.6-.3-1v-.9l.9-3.2h.8l-.7 3.3-.1.7.1.5.6.2c.2 0 .4 0 .7-.2l.7-.8c.3-.4.4-.8.6-1.4l.4-2.3h1l-1.3 5.3h-.6v-1l-.4.5-.6.5h-.8zm-38 12c-.4 0-1 0-1.3-.5-.4-.5-.6-.9-.6-1.5l.1-1.3a4 4 0 0 1 .5-.9l.9-1.1c.3-.1.7-.2 1.2-.2.6 0 1 .2 1.4.6.4.4.6.9.6 1.5l-.2 1.2a4 4 0 0 1-.6 1.2c-.1.3-.4.5-.7.7l-1.3.3zm.2-.7c.3 0 .5-.1.9-.3l.4-1c.3-.4.5-1 .5-1.5l-.2-.6a1 1 0 0 0-.4-.5l-.6-.2c-.4.1-.8.2-1 .5-.3.3-.5.5-.6.9a4 4 0 0 0-.2 1.4c0 .4 0 .7.3 1 .2.2.5.3.7.3zm3.3.7 1.1-5.4h1l-.6 2.6 2.5-2.6h1l-2.5 2.7 1.7 2.7h-1l-1.8-2.7-.5 2.7zm4.4 2.4 1.6-7.8h.7v1l.7-.8c.3-.2.7-.3 1.1-.3.4 0 .7.2 1 .5.4.3.5.7.5 1.3-.1.5-.1 1-.3 1.4l-.5 1.3c-.2.3-.5.6-.8.7a2 2 0 0 1-1.1.3c-.4 0-.8 0-.9-.2a2 2 0 0 1-.5-.8v.6l-.3.4-.4 2.4zm2.8-3c.3-.1.5-.3.7-.4.3-.1.6-.3.6-.6a4 4 0 0 0 .4-1 5 5 0 0 0 .1-1c0-.9-.3-1.3-.9-1.3l-.6.4c-.3.1-.5.4-.7.5l-.3 1.1c-.3.4-.3.7-.3 1.2 0 .3 0 .5.2.7.2.2.5.3.8.3zm2.8 3h-.4l-.3-.2v-.7l.3.1h.4c.3 0 .5 0 .7-.2l.5-.7.4-.7-.8-5.4h.7l.5 2.7v.7l.2.7v.5a28.7 28.7 0 0 1 .5-1.1l.2-.6 1.6-3h1l-3.6 6.5c-.1.4-.4.7-.7.9-.3.4-.7.6-1.2.6zm6.9-2.4h-.8l-.7-.6-.2-.7c0-.4 0-.7.3-.9l.7-.5.8-.4a6 6 0 0 0 1-.5c.2-.1.4-.3.4-.6l-.2-.4-.6-.2a3 3 0 0 0-.7.1l-.7.3-.3-.7.8-.3 1-.1c.5 0 .8.1 1.1.3.3.2.4.5.4 1 0 .2 0 .5-.2.6a2 2 0 0 1-.6.7l-.9.3-.7.4c-.3 0-.4.2-.5.2-.2.2-.2.4-.2.6s0 .4.2.5c.2.2.4.2.8.2l.7-.1c.3 0 .5-.2.8-.3v.8l-.8.3a4 4 0 0 1-.9 0zm0 0" style="fill:none;stroke:#fff;stroke-width:3;stroke-linecap:butt;stroke-linejoin:round;stroke-miterlimit:10;stroke-opacity:.6" transform=" rotate(  340 434.833 174.014) "/> <g style="fill:#7d577d;fill-opacity:1" transform=" rotate(  340 434.833 174.014) ">  <use xlink:href="#a" x="411.7" y="165.1"/>  <use xlink:href="#b" x="418.5" y="165.1"/>  <use xlink:href="#c" x="423.5" y="165.1"/>  <use xlink:href="#b" x="429.5" y="165.1"/>  <use xlink:href="#d" x="434.5" y="165.1"/>  <use xlink:href="#e" x="440.5" y="165.1"/>  <use xlink:href="#f" x="445.3" y="165.1"/>  <use xlink:href="#g" x="451.1" y="165.1"/>  <use xlink:href="#h" x="402.7" y="177"/>  <use xlink:href="#i" x="408.4" y="177"/>  <use xlink:href="#j" x="413.8" y="177"/>  <use xlink:href="#k" x="422.6" y="177"/>  <use xlink:href="#c" x="428.2" y="177"/>  <use xlink:href="#k" x="434.2" y="177"/>  <use xlink:href="#l" x="439.8" y="177"/>  <use xlink:href="#c" x="446.8" y="177"/>  <use xlink:href="#m" x="452.8" y="177"/>  <use xlink:href="#g" x="460.1" y="177"/>  <use xlink:href="#k" x="421.6" y="189"/>  <use xlink:href="#e" x="427.2" y="189"/>  <use xlink:href="#n" x="432.1" y="189"/>  <use xlink:href="#o" x="437.8" y="189"/>  <use xlink:href="#p" x="442.5" y="189"/> </g> <path d="M5.2 76.3c-.6 0-1.1-.2-1.5-.5-.2-.4-.4-1-.4-1.6-.1-.4-.1-.8.1-1.2a4 4 0 0 1 .5-1c.1-.5.5-.8.8-1l1.3-.2c.5 0 1 .2 1.4.5.3.4.5 1 .5 1.7 0 .3 0 .7-.2 1a4 4 0 0 1-.5 1c-.2.6-.5.9-.8 1-.4.2-.7.3-1.2.3Zm0-.7c.5 0 .8-.1 1.1-.4l.4-1 .3-1.3-.1-.7a1 1 0 0 0-.4-.5l-.5-.2c-.5 0-.8.1-1 .5l-.6.9a4 4 0 0 0-.3 1.4c0 .4.1.7.3 1 .2.1.6.2.9.2zm5.6.7c-.6 0-1-.1-1.4-.5-.4-.3-.6-.8-.6-1.5L9 73l.6-1.2c.2-.3.5-.6.9-.7.3-.2.7-.3 1.1-.3h.7l.7.2-.3.8-.5-.2-.5-.1c-.4 0-.8.1-1 .4-.4.1-.7.6-.7 1a4 4 0 0 0-.3 1.4c0 .4.1.7.4 1 .2.2.5.3.8.3l.7-.1a7 7 0 0 0 .6-.2v.7l-.6.2-.8.1zm2.4-.1 1.1-5.2h.7v.9c0-.3.2-.5.4-.7l.6-.2.7-.2c.4 0 .6 0 .8.2.2.3.5.6.5 1l.4-.6.6-.5.8-.1c.4 0 .7 0 1 .2.2.3.2.7.2 1.1v.9l-.7 3.2h-1l.9-3.2v-.5l.1-.3c-.1-.2-.1-.4-.3-.5 0-.1-.2-.2-.5-.2-.2 0-.4 0-.7.3l-.6.7c-.3.3-.4.8-.5 1.3l-.5 2.4h-1L17 73v-1.3l-.7-.2c-.1 0-.3 0-.6.2l-.7.8-.5 1.4-.5 2.3zm8.2 2.4 1.7-7.6h.7l-.1.9.8-.9c.3-.1.5-.2 1-.2s.8.1 1 .4c.3.3.5.8.5 1.4 0 .5 0 1-.3 1.4 0 .5-.2.9-.5 1.2-.2.4-.5.6-.8.8a2 2 0 0 1-1 .3c-.4 0-.8 0-1.1-.2a2 2 0 0 1-.3-.7l-.2.4v.5l-.5 2.3zm2.9-3c.2 0 .5 0 .7-.3l.6-.6a4 4 0 0 0 .3-1 5 5 0 0 0 .1-1.1c0-.7-.2-1.1-.8-1.1-.2 0-.5 0-.7.3l-.5.6-.6 1-.2 1.1c0 .3.1.6.3.8.1.2.4.3.8.3zm5.7.7c-.8 0-1.3-.2-1.7-.5-.2-.4-.3-1-.3-1.6 0-.4 0-.8.1-1.2a4 4 0 0 1 .5-1c.2-.5.4-.8.8-1l1.2-.2c.6 0 1.1.2 1.4.5.4.4.6 1 .6 1.7 0 .3 0 .7-.2 1a4 4 0 0 1-.4 1c-.3.6-.6.9-.9 1-.3.2-.7.3-1.2.3zm0-.7c.3 0 .6-.1.8-.4.3-.2.5-.5.7-1l.2-1.3-.1-.7a1 1 0 0 0-.4-.5l-.6-.2c-.4 0-.6.1-1 .5l-.6.9a4 4 0 0 0-.2 1.4c0 .4.2.7.3 1 .2.1.5.2.9.2zm5.7.7c-.8 0-1.3-.2-1.7-.6-.3-.4-.5-1-.5-1.6 0-.6.2-1.1.5-1.7s.4-.9.9-1.2c.3-.2.8-.4 1.4-.4s1.1 0 1.4.2c.3.3.5.7.5 1.1s-.2.7-.4 1l-1 .4c.3.1.6.2.7.5.2.1.3.3.3.7 0 .2 0 .5-.2.7-.1.3-.3.6-.6.7l-1.3.2zm-1.2-3.1h1.9l.7-.5.2-.5c0-.2 0-.2-.2-.5l-.7-.2c-.5 0-.9.2-1.2.4-.3.3-.5.8-.7 1.3zm1.2 2.4c.5 0 .8-.1 1-.3l.3-.6c0-.3-.1-.5-.3-.7l-1-.1h-1.3v.2c0 .6.2 1 .4 1.2.2.2.5.3 1 .3zM2.8 88.2 4.3 81h1l-.9 3.5L7.9 81h1l-3.5 3.6 2.2 3.6h-1l-2.1-3.6-.8 3.6zm7.7 0c-.5 0-1-.1-1.4-.5-.4-.4-.6-.9-.6-1.5 0-.4 0-.8.2-1.2a4 4 0 0 1 .5-1.1c.2-.4.5-.7.8-.9l1.2-.3c.6 0 1.1.3 1.5.6.3.4.5.9.5 1.5 0 .4 0 .8-.2 1.2a4 4 0 0 1-.5 1.1c-.2.4-.5.6-.8.9-.3.1-.7.2-1.2.2zm0-.7c.5 0 .8-.1 1.1-.3l.4-1 .3-1.5-.1-.6a1 1 0 0 0-.4-.5l-.6-.1c-.2 0-.7 0-1 .3l-.5 1a4 4 0 0 0-.3 1.4c0 .4.1.8.3 1 .3.2.5.3.9.3zm3.1.7h-.4v-.8h.8l.6-.8.4-1.2.4-1.2.6-.8.6-.5 1-.1a4.5 4.5 0 0 1 1.2.1l-1.1 5.3h-1l1.2-4.7h-.5c-.3 0-.4 0-.7.2-.1.1-.3.3-.4.7l-.5 1.3-.6 1.3c-.1.5-.4.8-.6.9-.2.2-.6.3-1 .3zm7.5.1c-.3 0-.6 0-.9-.3-.2.1-.4 0-.6-.3-.2-.2-.2-.5-.2-.8 0-.4 0-.6.2-.9l.7-.5.9-.5a6 6 0 0 0 1-.4c.1-.1.2-.3.2-.6v-.4l-.6-.2a3 3 0 0 0-.8.2l-.7.2-.2-.8.8-.2h1c.4-.1.8-.1 1 .2.5.2.6.5.6 1-.1.3-.1.5-.3.7a2 2 0 0 1-.7.6l-.8.3-.7.4c-.3 0-.4.2-.6.3l-.1.5c0 .2 0 .4.2.6l.7.1h.8l.8-.5v1l-.8.2a4 4 0 0 1-.9 0zm2.4 2.3H23l-.2-.2v-.6h.6c.3.1.6.1.7-.1l.5-.8.4-.7-.8-5.4h.8l.4 2.7v.7l.2.7v.5a28.4 28.4 0 0 1 .6-1.1l.2-.6 1.5-2.9H29l-3.5 6.3-.9 1.1c-.3.2-.7.4-1.1.4zm7.3-2.3c-.6 0-1.1-.3-1.4-.6-.4-.3-.5-.7-.5-1.5L29 85l.6-1.2.8-.8a2 2 0 0 1 1.1-.3c.5 0 1 .1 1.2.3.2.3.3.6.3 1 0 .3 0 .6-.3 1l-1 .5c-.4.3-1 .4-1.7.4h-.2v.3c0 .4 0 .8.2 1 .2.2.6.3 1 .3h.7a5 5 0 0 0 .7-.5v1a6 6 0 0 1-.7 0l-.9.3zm-1-3.3H31l1-.4c0-.1.2-.3.2-.6 0-.2 0-.3-.2-.4l-.5-.2c-.3 0-.6.2-1 .6-.1.2-.5.6-.5 1zM36 88.3c-.8 0-1.3-.3-1.6-.6-.4-.4-.5-1-.5-1.7 0-.6 0-1.1.3-1.6.2-.5.5-1 1-1.2.3-.3.8-.5 1.4-.5s1.1.1 1.4.4c.3.2.5.5.5.9 0 .5-.1.8-.5 1l-.9.5c.3 0 .6.2.9.4v.7c.1.4.1.5 0 .8-.2.2-.4.4-.8.6-.2.2-.7.3-1.2.3zM34.8 85h1.9l.7-.3.2-.5c0-.2 0-.4-.2-.5-.2-.2-.4-.3-.7-.3-.5 0-.9.2-1.2.6-.3.2-.5.6-.7 1zm1.2 2.5c.5 0 .8 0 1-.2.2-.3.3-.4.3-.7L37 86h-2.3c0 .6.3 1 .4 1.2.2.2.5.3.9.3zm0 0" style="fill:none;stroke:#fff;stroke-width:2;stroke-linecap:butt;stroke-linejoin:round;stroke-miterlimit:10;stroke-opacity:.6" transform="rotate(  340 37.2609 79.1922) translate(16.550847)"/> <g style="fill:#000;fill-opacity:1" transform=" rotate(  340 37.2609 79.1922) ">  <use xlink:href="#k" x="19.3" y="76.2"/>  <use xlink:href="#q" x="24.9" y="76.2"/>  <use xlink:href="#j" x="29.4" y="76.2"/>  <use xlink:href="#n" x="38.2" y="76.2"/>  <use xlink:href="#k" x="44" y="76.2"/>  <use xlink:href="#i" x="49.6" y="76.2"/>  <use xlink:href="#r" x="19" y="88.2"/>  <use xlink:href="#k" x="24.6" y="88.2"/>  <use xlink:href="#s" x="30.2" y="88.2"/>  <use xlink:href="#p" x="35.7" y="88.2"/>  <use xlink:href="#o" x="40.3" y="88.2"/>  <use xlink:href="#b" x="44.9" y="88.2"/>  <use xlink:href="#i" x="49.9" y="88.2"/> </g></svg>