<svg xmlns="http://www.w3.org/2000/svg" xmlns:xlink="http://www.w3.org/1999/xlink" viewBox="0 0 497 279"> <defs overflow="visible" style="stroke:none">  <path d="M4-5.4h1L2.7-2.8 5.2 0h-1L1.7-2.7V0H.8v-5.4h1v2.6ZM3 0c-.5 0-.9 0-1.3-.1-.3-.3-.6-.6-.7-.9-.4-.5-.5-1-.5-1.7 0-.6.2-1.1.5-1.5 0-.6.4-.8.8-1.1.2-.1.8-.2 1.2-.2l.8.1.7.2-.3.8-.6-.2H3c-1-.1-1.5.6-1.5 1.9 0 .7 0 1 .3 1.4.3.5.7.6 1.2.6h.8l.6-.3v.8a2 2 0 0 1-.6.2H3Zm1.8-5.4v4.7h.8v2.6h-.8V0H1v1.9H.2V-.7h.4a6.9 6.9 0 0 0 1-2.3A9.6 9.6 0 0 0 2-5.4Zm-.8.7H2.8l-.2 1.4L2-1.9c0 .5-.2.9-.5 1.2H4Zm-.6-.8c.7 0 1.2.3 1.6.7.4.5.6 1.2.6 2.1 0 1-.2 1.7-.6 2-.4.7-1 .9-1.6.9-.4-.2-.8-.2-1-.3l-.7-.6v3.1H.8v-7.8h.8v.8h.2c.2-.4.3-.5.6-.6.2-.2.6-.3 1-.3Zm-.2.8c-.5 0-.9.1-1.1.5-.2.2-.4.7-.4 1.2v.3c0 .7.1 1.2.3 1.5.3.4.7.6 1.3.6.3 0 .6-.1.7-.4l.5-.6.2-1.1c0-.6-.1-1.1-.4-1.5-.2-.3-.6-.5-1-.5ZM3-5.5c.3 0 .7.1 1 .3a2 2 0 0 1 1 .9v1.8H1.5c0 .5.1 1 .4 1.4.3.3.7.4 1.3.4H4l.9-.3v.8L4 0a5 5 0 0 1-1 0 3 3 0 0 1-1.2-.1 2.2 2.2 0 0 1-1-1.1c0-.2-.2-.8-.2-1.3-.1-.7 0-1.2.2-1.6.2-.5.5-.9.9-1 .3-.2.7-.4 1.2-.4Zm0 .8c-.6 0-.9.1-1 .4-.4.2-.6.6-.6 1.1h2.8c0-.5-.1-.8-.3-1.1-.2-.3-.5-.4-1-.4ZM1 0v-7.1h4.2v.8H1.9v2.2h1c.7 0 1.3 0 1.7.1.4.3.7.6.8 1 .2.2.2.5.2.9 0 .7-.2 1.2-.6 1.6-.4.3-1 .5-2 .5Zm.9-.8h1c.8 0 1.3 0 1.5-.2.2-.3.3-.6.3-1s-.1-.9-.4-1l-1.5-.3h-1ZM1 0v-7.1h4V0Zm.4-.5h3.1v-6.1h-3Zm.1 0"/>  <path id="B" d="M3.5-6.5c.6 0 1 0 1.4.3l1.1 1c0 .5.1 1 .1 1.6v.6H1.7c.1.7.3 1.3.7 1.7.3.3.8.5 1.4.5h1l1.1-.5v1c-.3.2-.6.3-1 .3l-1 .1A3.4 3.4 0 0 1 2-.2a2.6 2.6 0 0 1-.9-1.2c-.4-.4-.5-1-.5-1.8.1-.7.1-1.3.4-1.8s.6-.9 1-1c.4-.4 1-.5 1.5-.5Zm0 .8c-.5 0-1 .2-1.2.5-.3.3-.5.8-.5 1.3H5c0-.5 0-1-.3-1.3-.3-.3-.7-.5-1.2-.5Zm0 0"/>  <path id="A" d="M7.4 0H6.1L2.3-4.3V0H1.1v-8.6h1.1v4.2L6-8.6h1.3L3.5-4.4Zm0 0"/>  <path id="z" d="M8-6.4V0H7v-4.1a7.9 7.9 0 0 1 0-1L4.9 0H4L2-5.2V0H1v-6.4h1.4l2 5.1 2.2-5.1Zm0 0"/>  <path id="y" d="M3.9 0H2.8v-7.6H.1v-1h6.4v1H4Zm0 0"/>  <path id="x" d="M4.8-6.4H6l-2.8 3 3 3.4H5L2-3.3V0H1v-6.4h1v3Zm0 0"/>  <path id="w" d="M4-6.5c1 0 1.6.2 2 .8.5.5.7 1.4.7 2.5 0 1-.2 2-.7 2.5-.5.5-1.1.7-2 .7-.3.1-.7.1-1.1-.2a2.5 2.5 0 0 1-.8-.6H2v3.7H1v-9.3h1v.8l.9-.7 1.2-.2Zm0 .8c-.8 0-1.2.2-1.5.7-.3.3-.4.9-.4 1.6v.2c-.1.8.1 1.4.4 1.8.2.4.7.6 1.4.6.4 0 .7 0 1.1-.2 0-.3.3-.6.4-1a4 4 0 0 0 .2-1.2c0-.8-.1-1.4-.4-1.8-.3-.4-.7-.7-1.3-.7Zm-.1 0"/>  <path id="v" d="M.7-3.9c0-1.4.2-2.5.6-3.3.4-.7 1.1-1.2 2-1.4a36.8 36.8 0 0 1 3.1-.6l.1 1h-1a182.5 182.5 0 0 0-2 .5 2 2 0 0 0-1.1.9C2-6.5 2-6 1.8-5H2a2.7 2.7 0 0 1 1.1-1H4c.7 0 1.4.2 1.8.7.5.7.7 1.4.7 2.3 0 .6 0 1.2-.3 1.7s-.6.8-1 1c-.6.3-1.1.5-1.7.5C2.7.1 2-.2 1.5-.9c-.6-.7-.8-1.7-.8-3Zm3 3.1c.5 0 1 0 1.2-.3.4-.5.5-1.2.5-1.9 0-.6-.1-1.2-.4-1.5-.2-.5-.6-.6-1-.6a2 2 0 0 0-1.1.1l-.7.7c-.2.2-.4.3-.4.5v1.1l.3 1 .6.7c.3.2.6.3 1 .3Zm0 0"/>  <path id="u" d="M2-6.4V-1l3.3-5.4h1.4V0h-1v-5.4L2.4 0H1v-6.4Zm0 0"/>  <path id="t" d="M3.6.1C3 .1 2.6.1 2-.2s-.7-.6-1-1.1C.7-1.8.6-2.4.6-3.2c.1-.8.1-1.4.4-2 .3-.3.7-.8 1.1-.9.5-.3 1-.4 1.6-.4h1a3 3 0 0 1 .6.4l-.3.8a7 7 0 0 0-.6-.2 3 3 0 0 0-.8-.1c-1.2 0-1.9.8-1.9 2.4.1.8.3 1.4.6 1.8.2.4.7.6 1.3.6l1-.1.6-.3v1l-.7.2-1 .1Zm0 0"/>  <path id="s" d="M6.2-4.8c0 .4-.2.7-.4 1l-.8.3c.3.1.7.3 1 .6.3.2.5.5.5.9-.1.7-.3 1.1-.7 1.5-.4.3-1 .5-2 .5H1v-6.4h2.8l1.2.1c.4.1.7.3 1 .5 0 .3.2.6.2 1Zm-1 .1c-.1-.3-.2-.5-.5-.6-.1-.2-.5-.3-.9-.3H2v1.8h1.5c1 0 1.6-.3 1.6-.9Zm0 2.8c.1-.4 0-.6-.3-.8l-1.3-.2H2.1V-1h1.6c.5.1.9.1 1.2 0 .3-.2.4-.5.4-.9Zm.1 0"/>  <path id="r" d="M6.6-3.2c0 1-.3 1.9-.8 2.5-.5.4-1.3.7-2.2.7a3 3 0 0 1-1.5-.3A2.7 2.7 0 0 1 1-1.4C.7-2 .6-2.5.6-3.2c.1-1.1.3-2 .9-2.5.5-.6 1.2-.8 2.1-.8.6 0 1.1 0 1.6.3.4.3.8.7 1 1.2.3.5.4 1 .4 1.8Zm-4.8 0c0 .7.1 1.2.3 1.8.4.4.9.6 1.5.6.7 0 1.2-.2 1.5-.6.3-.6.4-1 .4-1.8S5.4-4.6 5.1-5c-.3-.4-.8-.7-1.5-.7-.6 0-1.1.3-1.4.7-.3.4-.5 1-.5 1.8Zm0 0"/>  <path id="q" d="M7.7 0h-1v-4H2.1v4h-.8v-8.6h.9v3.7h4.5v-3.7h1Zm0 0"/>  <path d="M1.1 0v-8.6h5V0Zm.6-.6h3.8V-8H1.7Zm0 0"/>  <path id="p" d="m.3 0 1.1-5.3h1.2L3-1.1l2.5-4.2h1.2L5.6 0h-.8l.7-3 .1-.9.2-.6L3.3 0h-.7L2-4.5l-.3.7v.8L1 0Zm0 0"/>  <path id="o" d="M2.4 0c-.6 0-1 0-1.4-.3C.6-.8.5-1.3.5-2c0-.3 0-.8.2-1.2 0-.4.3-.8.5-1.1.2-.4.5-.7.8-.8a2 2 0 0 1 1.2-.4c.5 0 .8.2 1.1.5.3 0 .4.4.4.8 0 .3-.1.7-.3 1-.4.2-.6.4-1 .6-.6.2-1.2.3-1.9.3h-.1v.3c0 .5 0 .8.3 1 .2.3.5.4.9.4l.7-.1A5 5 0 0 0 4-1v.7a6 6 0 0 1-.7.3h-.9Zm-.9-3 1.3-.1.7-.4c.2-.1.3-.4.3-.5l-.1-.6-.7-.1c-.2 0-.5.1-.9.4L1.6-3Zm0 0"/>  <path id="n" d="M.4 0 2-7.1h1L2-3.7 5.4-7h1.1L3-3.6 5.2 0h-1L2-3.5 1.3 0Zm0 0"/>  <path id="m" d="M2.4 0c-.6 0-1 0-1.3-.2C.8-.5.6-.9.6-1.5v-.4l.2-.5.6-3h.9L1.6-3A9.8 9.8 0 0 1 3-3.2c.5 0 1 .2 1.2.5.3.2.4.6.4.9 0 .4 0 .7-.2 1-.2.3-.4.5-.8.6-.3.2-.6.3-1.2.3Zm0-.5c.6-.1 1-.2 1.1-.5a1 1 0 0 0 .2-.7c0-.2 0-.3-.2-.5-.1-.2-.4-.2-.8-.2a5.6 5.6 0 0 0-1.1 0v.7l-.2.2c.1.2.1.4.3.5.1.3.3.4.8.4Zm.1-.1"/>  <path id="l" d="m.3 0 1.1-5.4h.7v1l.4-.5.6-.4.7-.2c.4 0 .7.2.9.5.2 0 .3.4.3.7l.5-.5.6-.5.9-.2c.3 0 .6.2.9.5.1 0 .2.4.2.9v.4l-.1.4L7.4 0h-.9l.7-3.4v-.4l.2-.2c-.1-.3-.1-.4-.3-.5 0-.2-.1-.2-.5-.2-.2 0-.4 0-.6.2l-.7.8c-.3.3-.4.7-.5 1.3L4.3 0h-1l.9-3.4v-1.1c-.4-.2-.5-.2-.8-.2-.1 0-.3 0-.6.2l-.6.8c-.3.3-.4.7-.5 1.4L1.2 0Zm0 0"/>  <path id="k" d="M0 0h-.4v-.8l.3.1C0-.7.3-.7.4-.9l.6-.7.3-1.2.5-1.1.4-.9.8-.5h1a4.5 4.5 0 0 1 1 .1L4 0h-.9l1-4.6h-1l-.5.8-.5 1.3L1.5-1c-.1.3-.3.6-.5.8C.7 0 .4 0 0 0Zm0 0"/>  <path id="j" d="M.2 0h-.4v-.7H0l.5-.1.4-.7c0-.2.1-.4.3-.5l.6-.4c-.3-.1-.6-.3-.8-.6a1.4 1.4 0 0 1-.2-.7c0-.3.2-.9.6-1.2.3-.3.9-.5 1.6-.5h2L4 0H3l.5-2.1h-.7c-.3 0-.5 0-.7.1l-.4.8-.4.7-.4.4-.7.2Zm2.5-2.8h1L4-4.6H2.8c-.3 0-.6 0-.8.3-.2.1-.3.3-.3.6s.1.7.3.7h.7Zm0-.1"/>  <path id="i" d="M2 0c-.6 0-.9 0-1.2-.3C.6-.7.5-1 .5-1.7c0-.5 0-1 .2-1.5l.5-1.1c.2-.4.5-.7.8-.9a2 2 0 0 1 1.1-.3c.4 0 .6.1.9.3l.5.7.3-.9h.7L4.4 0h-.7l.1-1c-.3.3-.5.6-.9.8-.3.2-.6.2-.9.2Zm.1-.5c.4-.1.6-.2.9-.5l.6-.6a4 4 0 0 0 .4-1 3 3 0 0 0 .1-.7 4 4 0 0 0 0-.4c.1-.3.1-.5-.1-.7-.3-.2-.5-.3-.8-.3-.3 0-.5 0-.7.2a2 2 0 0 0-.6.7l-.4 1-.1 1.1c0 .4 0 .6.2.8.1.2.3.3.6.3Zm.1-.1"/>  <path id="h" d="m.3 0 1.1-5.4h.9l-.6 2.6 2.5-2.6h1.1L2.7-2.7 4.5 0h-1L1.6-2.7 1.2 0Zm0 0"/>  <path id="g" d="m-.2 2.4 1.6-7.8h.7v1l.7-.6c.3-.3.7-.5 1-.5.5 0 .8.2 1 .5.5.3.6.8.6 1.4-.1.5-.1 1-.3 1.4L4.6-1l-.8.8a2 2 0 0 1-1.1.3C2.3 0 2 0 1.8-.2a2 2 0 0 1-.5-.6v.4L1 .1.7 2.4Zm2.8-3c.4 0 .5-.1.7-.4.3 0 .5-.3.7-.6a4 4 0 0 0 .3-1 5 5 0 0 0 .1-.9c0-.9-.3-1.2-.9-1.2-.2 0-.4 0-.5.2l-.8.7-.4 1c-.2.3-.2.7-.2 1.1 0 .3 0 .6.2.8.2.2.5.3.8.3Zm0 0"/>  <path id="f" d="M2.4 0c-.6 0-1 0-1.4-.4C.6-.9.5-1.5.5-2.2a7.4 7.4 0 0 1 .3-2.2l.5-1.2.7-1L3-7l.6-.3A34 34 0 0 1 5-7.5h.7l.1.5h-.7L4-6.5c0-.1-.3-.1-.5.1-.5.1-.9.4-1.1.8-.4.4-.7.9-.9 1.5a3 3 0 0 1 1-.6c.2-.2.5-.3.9-.3.6 0 1 .2 1.2.5.2.3.4.8.4 1.3L4.8-2c-.1.4-.2.8-.5 1-.2.5-.3.7-.7.9-.4.1-.7.2-1.2.2Zm0-.5c.5-.1.6-.2.9-.5a2 2 0 0 0 .4-.5l.3-.8v-.8c0-.4 0-.7-.2-.9-.1-.2-.3-.3-.6-.3l-.7.3-.6.4a4 4 0 0 0-.4.4v.6l-.2.5c.1.4.1.8.3 1 .2.4.5.6.9.6Zm.1-.1"/>  <path id="e" d="M1.9 0c-.4 0-.7 0-1-.1C.7-.5.5-.8.5-1.2v-.5L.8-2l.6-3.4h.9L1.4-2v1.2l.8.2c.2 0 .4-.1.8-.4l.6-.6.5-1.4.5-2.4h.9L4.4 0h-.8l.1-1-.5.5-.4.5-.9.1Zm0 0"/>  <path id="d" d="M2.5 0C1.9 0 1.4 0 1-.3.7-.7.5-1.2.5-2c0-.4 0-1 .2-1.3l.5-1c.3-.5.6-.7 1-1 .2-.1.6-.2.9-.2l.9.1.6.2-.2.7-.5-.1-.6-.1c-.4 0-.7.1-1 .4-.3.2-.5.6-.7 1A4 4 0 0 0 1.4-2c0 .5 0 .8.3 1 .2.2.5.3.9.3h.6a7 7 0 0 0 .6-.3v.8l-.6.2h-.7Zm0 0"/>  <path id="c" d="M2.6 0C1.9 0 1.3 0 1-.4.6-.9.5-1.5.5-2.1c0-.6 0-1.2.3-1.7.2-.5.6-1 1-1.2.4-.3 1-.5 1.5-.5.7 0 1 .2 1.4.5.3 0 .3.5.3.9s0 .7-.3 1.1l-1 .2c.5.1.7.3.9.5.1.2.2.3.2.8l-.2.7c-.2.3-.4.5-.7.6-.3.2-.9.3-1.3.3ZM1.5-3h1l1-.1.5-.3c.2-.2.2-.4.2-.6 0-.2 0-.4-.2-.5l-.7-.2c-.3 0-.8.1-1.2.4-.3.3-.5.7-.6 1.3ZM2.7-.6c.3 0 .7-.1 1-.4l.1-.6C4-1.8 4-2 3.6-2l-1-.3H1.4v.2c0 .5 0 .9.3 1.1.3.3.6.4 1 .4Zm0 0"/>  <path id="b" d="M2.5 0C1.9 0 1.4 0 1-.4.7-.8.5-1.3.5-2l.1-1.2a4 4 0 0 1 .5-1.1c.3-.3.5-.7.9-.8.3-.2.7-.3 1.2-.3.6 0 1 .2 1.4.4.4.5.6 1.1.6 1.6L5-2a4 4 0 0 1-.5.9c-.2.5-.5.8-.8 1L2.5 0Zm0-.6c.5-.1.6-.1 1-.4.1-.2.3-.5.5-1 .2-.3.3-.8.3-1.4L4.2-4a1 1 0 0 0-.4-.5l-.6-.2c-.4 0-.7.1-1 .4-.2.2-.5.6-.6 1A4 4 0 0 0 1.4-2c0 .5 0 .8.3 1 .2.2.5.3.8.3Zm0-.1"/>  <path id="a" d="M.4 0 2-7.1h1l-.9 3h3.2l.7-3h.8L5.3 0h-.8l.7-3.3H2L1.3 0Zm0 0"/>  <path d="M1 0v-7.1h4V0Zm.4-.5h3.1v-6.1h-3Zm.1 0"/> </defs> <image xlink:href="svg/7/6_4.jpg" width="497" height="279"/> <path d="m27.2 178 1.6-7.2h.8l-.6 3h3.1l.7-2.9h.9l-1.5 7.1h-1l.8-3.3h-3.2l-.7 3.3zm8.9 0c-.6 0-1.1 0-1.5-.4-.3-.5-.5-1-.5-1.6 0-.4 0-.8.2-1.2a4 4 0 0 1 .5-1.1c.2-.4.5-.7.8-.8.4-.2.7-.3 1.2-.3.6 0 1 .1 1.5.4.2.5.5 1 .5 1.6 0 .4 0 .8-.2 1.2a4 4 0 0 1-.5 1.2l-.8.8c-.4.2-.7.2-1.3.2zm0-.6c.5-.1.8-.1 1.1-.4l.4-1 .3-1.4-.1-.6a1 1 0 0 0-.4-.5c-.1-.2-.3-.2-.6-.2-.4 0-.7.1-1 .4l-.6 1a4 4 0 0 0-.2 1.3c0 .5.1.8.3 1 .2.2.5.3.9.3zM41.8 178c-.7 0-1.2 0-1.6-.4-.2-.6-.5-1.1-.5-1.7 0-.6.1-1.2.4-1.7.2-.5.5-1 .9-1.2.4-.3 1-.5 1.5-.5s1.1.2 1.4.5c.3 0 .5.4.5.9 0 .4-.2.7-.4 1l-1 .3c.3.1.6.3.7.5.3.1.3.3.3.7 0 .3 0 .6-.2.8-.1.3-.4.5-.7.6-.3.2-.7.3-1.3.3zm-1-3h.9l.9-.1c.4 0 .5-.2.7-.3l.2-.6c0-.2 0-.4-.2-.5-.3-.2-.4-.2-.7-.2-.6 0-.9.1-1.2.4-.4.3-.6.7-.7 1.3zm1 2.4c.5 0 .9-.1 1.2-.4 0-.1.2-.3.2-.6 0-.2-.2-.4-.3-.4-.2-.3-.6-.3-1-.3h-1.3v.2c0 .5.1.9.4 1.1.2.3.5.4 1 .4zm5.3.6c-.6 0-1 0-1.4-.4-.4-.5-.7-1-.7-1.6l.3-1.2a4 4 0 0 1 .5-1.1c.2-.4.5-.7.8-.8l1.2-.3c.6 0 1.2.1 1.5.4.3.5.5 1 .5 1.6 0 .4 0 .8-.2 1.2a4 4 0 0 1-.5 1.2c-.1.3-.4.6-.8.8-.3.2-.7.2-1.2.2zm.1-.6c.3-.1.6-.1.9-.4l.6-1c.2-.3.2-.8.2-1.4v-.6a1 1 0 0 0-.5-.5c-.1-.2-.4-.2-.6-.2-.3 0-.6.1-1 .4-.1.2-.3.5-.4 1a4 4 0 0 0-.4 1.3c0 .5.1.8.3 1 .2.2.5.3.9.3zm5.6.6c-.6 0-1.1 0-1.5-.3-.3-.4-.5-.9-.5-1.7 0-.4 0-1 .2-1.3l.5-1.1.9-.8c.4-.2.7-.3 1.2-.3l.7.1.6.2-.2.7-.5-.2h-.6c-.4 0-.7.1-1 .4-.3.2-.6.6-.7 1a4 4 0 0 0-.2 1.3c0 .5 0 .8.3 1 .2.2.5.3.9.3h.6a7 7 0 0 0 .6-.3v.8l-.6.2h-.7zm3.9 0c-.4 0-.7 0-1-.1-.2-.4-.3-.7-.3-1.1v-.9l.9-3.3h.7l-.6 3.4-.1.7.1.5.6.2.7-.4c.3 0 .5-.3.7-.7.3-.3.4-.8.6-1.3l.4-2.4h1l-1.3 5.4h-.6v-1l-.4.5-.6.4-.8.2zm6.3 0c-.6 0-1 0-1.4-.4-.3-.5-.5-1.1-.5-1.8a7.4 7.4 0 0 1 .4-2.2c0-.4.2-.8.4-1.2l.8-1 1-.4.5-.3a34 34 0 0 1 1.5-.3h.6l.1.6h-.7l-1 .4-.5.2c-.6 0-.9.4-1.2.7l-.8 1.7a3 3 0 0 1 .8-.7c.3-.2.7-.3 1-.3.7 0 1 .2 1.3.5.1.3.3.7.3 1.3 0 .4 0 .8-.2 1.2 0 .4-.2.7-.4 1-.2.5-.5.7-.8.9-.3.1-.7.2-1.2.2zm.1-.5c.3-.1.5-.2.7-.5a2 2 0 0 0 .5-.5l.3-.8v-.8c.1-.4.1-.7-.1-.9-.2-.2-.4-.3-.7-.3l-.7.3-.6.3a4 4 0 0 0-.4.5v.5l-.1.7c0 .3 0 .7.2.9.2.4.5.6.9.6zm4.9.5c-.5 0-.8 0-1-.1-.3-.4-.4-.7-.4-1.1v-.5l.1-.3.7-3.4h1l-.9 3.4v.7c0 .2 0 .3.2.5l.5.2c.2 0 .5-.1.7-.4.3 0 .5-.3.8-.7.2-.3.3-.8.5-1.3l.5-2.4h.9l-1.2 5.4h-.7l.1-1-.5.5-.6.4-.7.2zm3.6 2.4 1.7-7.8h.7l-.1 1 .8-.6c.3-.4.6-.5 1-.5s.8.2 1 .5c.3.3.5.8.5 1.4l-.2 1.4-.6 1.2c-.2.3-.4.6-.8.8a2 2 0 0 1-1 .2c-.5 0-.8 0-1.1-.2a2 2 0 0 1-.2-.6l-.3.4v.5l-.5 2.3zm2.9-3c.2 0 .5-.1.7-.4l.6-.6a4 4 0 0 0 .2-1 5 5 0 0 0 .3-.9c0-1-.3-1.3-.9-1.3-.2.1-.4.1-.7.3l-.6.7-.5 1-.2.9c0 .6.1.9.3 1.1.2.1.4.2.8.2zm5.6.6c-.6 0-1 0-1.4-.3-.4-.4-.7-.9-.7-1.7.1-.4.1-1 .3-1.3.1-.4.3-.7.7-1.1 0-.3.4-.6.8-.8.2-.2.7-.3 1.1-.3l.7.1.7.2-.3.7-.5-.2H81c-.4 0-.8.1-1 .4-.4.2-.6.6-.7 1a4 4 0 0 0-.3 1.3c0 .5.1.8.3 1 .3.2.5.3 1 .3h.5a7 7 0 0 0 .7-.3v.8l-.6.2H80zm2.4 0 1-5.4h1.1l-.7 2.6 2.5-2.6h1.1l-2.6 2.7 1.7 2.7h-1l-1.7-2.7-.6 2.7zm6.5 0c-.5 0-.8 0-1-.3-.4-.4-.6-.7-.6-1.4.1-.5.1-1 .3-1.5l.6-1.2.7-.8a2 2 0 0 1 1-.3c.5 0 .8.1 1 .3l.5.7.5-.9h.5l-1.1 5.4h-.7l.1-1-.8.8c-.3.2-.7.2-1 .2zm.3-.5.7-.5.6-.6a4 4 0 0 0 .5-1 3 3 0 0 0-.1-.7 4 4 0 0 0 .2-.4c0-.3 0-.5-.2-.7-.2-.2-.5-.3-.8-.3-.2 0-.5 0-.7.2a2 2 0 0 0-.5.7c-.2.3-.4.6-.4 1l-.2 1c0 .5 0 .8.2 1 .2.1.4.2.7.2zm3.7.5h-.6v-.7h.4c.1 0 .2 0 .4-.2l.4-.6.3-.6.6-.3c-.3-.1-.6-.3-.7-.6a1.4 1.4 0 0 1-.2-.7c0-.5.1-.9.4-1.2.4-.3 1-.5 1.7-.5h2l-1.1 5.4h-.9l.5-2.1h-.7c-.3 0-.5 0-.7.1l-.4.8-.4.7-.4.4-.7.2zm2.3-2.8h1.1l.2-1.8h-1.1c-.3 0-.5 0-.8.2-.2.2-.3.4-.3.7 0 .3.1.5.3.7h.7zM44.6 190c-.7 0-1.2-.2-1.6-.5-.3-.5-.4-1-.4-1.6l.1-1.2a4 4 0 0 1 .5-1c.2-.5.5-.7.9-1 .3-.1.7-.2 1.1-.2.8 0 1.1.2 1.5.5.4.4.5.9.5 1.6l-.1 1.2a4 4 0 0 1-.5 1.1c-.3.3-.6.6-.9.8-.3.3-.7.3-1.1.3zm0-.7c.4 0 .6-.1.9-.4l.5-.9c.3-.3.3-.8.3-1.4v-.7a1 1 0 0 0-.5-.5l-.6-.2c-.2 0-.6.2-1 .4l-.4 1a4 4 0 0 0-.4 1.4c0 .4.1.7.3 1 .3.1.5.2 1 .2zm5.5.7c-.6 0-1-.2-1.4-.5-.3-.5-.5-1-.5-1.7a7.4 7.4 0 0 1 .3-2.3l.5-1.1.8-1c.2-.3.6-.5 1-.6l.5-.1a33.9 33.9 0 0 1 1.5-.3l.6-.1.1.7h-.7l-1 .3-.6.2c-.5.1-.9.4-1.1.8-.5.4-.7.9-.9 1.5a3 3 0 0 1 1-.5c.2-.3.5-.3.8-.3.6 0 1.1.1 1.3.4.2.3.4.8.4 1.3l-.2 1.3c0 .3-.2.7-.5 1l-.7.8-1.3.2zm0-.7c.5 0 .7 0 .9-.2a2 2 0 0 0 .4-.7l.3-.8v-.8c.1-.4.1-.7-.1-.8-.2-.2-.4-.3-.6-.3-.3 0-.6 0-.8.2-.2 0-.4.1-.6.4a4 4 0 0 0-.4.4v.6l-.2.5c0 .5 0 .8.3 1.1.2.3.5.4.9.4zm3 .7h-.4v-.9h.3c.2.1.4.1.6-.1l.4-.6.5-1.4.4-1 .5-.8c.2-.3.4-.4.7-.5l.9-.2a4.5 4.5 0 0 1 1.2.2l-1 5.2h-1l1.1-4.6H57c-.4 0-.6 0-.8.2-.2 0-.2.3-.4.5l-.5 1.4-.6 1.4-.6 1-1.1.2zm7.4 0c-.4 0-.7 0-1-.4-.3-.3-.5-.8-.5-1.4 0-.5 0-1 .3-1.4l.5-1.2c.2-.4.5-.6.8-.8a2 2 0 0 1 1.1-.3c.4 0 .6 0 .9.3.2.1.3.2.4.6h.1l.3-.8h.7l-1.1 5.3h-.8l.3-.9-1.1.7c-.2.3-.4.3-.9.3zm.3-.7c.3 0 .5 0 .7-.3.3 0 .5-.4.7-.7a4 4 0 0 0 .4-1 3 3 0 0 0 .1-.6 4 4 0 0 0 0-.4c.1-.3.1-.6-.2-.8-.2-.2-.5-.3-.7-.3-.3 0-.5.1-.7.3a2 2 0 0 0-.6.5l-.4 1.1-.1 1.1c0 .4 0 .8.2.8.1.2.3.3.6.3zm5.9.7c-.6 0-1 0-1.4-.5-.4-.3-.5-.8-.5-1.5l.1-1.3.6-1.2c.2-.3.5-.5.9-.7.3-.2.6-.3 1.2-.3h.6l.8.3-.4.7-.5-.2h-.5c-.4-.1-.8-.1-1 .2-.3.4-.6.7-.7 1.1a4 4 0 0 0-.3 1.4c0 .4.2.7.4 1 .2.2.5.3.8.3h.7a7 7 0 0 0 .5-.3v.7l-.5.3h-.8zm2.3 0 1.3-5.5h.7v1.1l.3-.6.6-.4.7-.1c.4 0 .7 0 .9.3.2.2.3.5.3.9l.6-.7.6-.4.7-.1c.4 0 .7 0 1 .3.1.2.3.6.3 1v.4l-.1.5-.7 3.2h-.9l.7-3.3v-.4l.2-.3c-.1-.2-.1-.4-.2-.5 0-.1-.3-.2-.6-.2l-.7.3-.6.7-.5 1.3-.6 2.5h-.8l.7-3.4v-1.2l-.6-.2c-.3 0-.4 0-.7.2l-.6.8c-.3.4-.4.8-.5 1.4L70 190zm11 0c-.6 0-1 0-1.4-.4-.3-.2-.4-.6-.4-1.1v-.9l.8-3h.8l-.5 2.3a9.8 9.8 0 0 1 1.2-.1c.5 0 1 .1 1.3.4.2.3.4.6.4 1l-.3 1-.7.5-1.2.3zm0-.7c.5 0 .8 0 1-.3a1 1 0 0 0 .3-.7c0-.3 0-.5-.3-.6l-.7-.2a5.6 5.6 0 0 0-1.3.1 28 28 0 0 0 .1.8v.7l.9.2zm0 0" style="fill:none;stroke:#fff;stroke-width:3;stroke-linecap:butt;stroke-linejoin:round;stroke-miterlimit:10;stroke-opacity:.6" transform=" rotate(  340 62.899 180.96) "/> <g style="fill:#7d577d;fill-opacity:1" transform=" rotate(  340 62.899 180.96) ">  <use xlink:href="#a" x="26.8" y="178"/>  <use xlink:href="#b" x="33.6" y="178"/>  <use xlink:href="#c" x="39.3" y="178"/>  <use xlink:href="#b" x="44.7" y="178"/>  <use xlink:href="#d" x="50.3" y="178"/>  <use xlink:href="#e" x="54.8" y="178"/>  <use xlink:href="#f" x="60.6" y="178"/>  <use xlink:href="#e" x="66.1" y="178"/>  <use xlink:href="#g" x="71.9" y="178"/>  <use xlink:href="#d" x="77.6" y="178"/>  <use xlink:href="#h" x="82.2" y="178"/>  <use xlink:href="#i" x="87" y="178"/>  <use xlink:href="#j" x="92.7" y="178"/>  <use xlink:href="#b" x="42.1" y="189.9"/>  <use xlink:href="#f" x="47.7" y="189.9"/>  <use xlink:href="#k" x="53.2" y="189.9"/>  <use xlink:href="#i" x="58.6" y="189.9"/>  <use xlink:href="#d" x="64.3" y="189.9"/>  <use xlink:href="#l" x="68.8" y="189.9"/>  <use xlink:href="#m" x="77.6" y="189.9"/> </g> <path d="m366.4 242.5 1.5-7.1h.9l-.8 3.5 3.4-3.5h1L369 239l2.2 3.5h-1L368 239l-.7 3.5zm7.6.1c-.6 0-1-.2-1.4-.5-.4-.4-.6-.9-.6-1.5l.2-1.3.7-1.1.7-.8a2 2 0 0 1 1.1-.4c.7 0 1.1 0 1.3.4 0 .2.3.5.3 1l-.3.8-1 .8-1.9.2h-.1v.4c0 .4 0 .7.3 1 .2.1.5.2.9.2h.7a5 5 0 0 0 .7-.3v.7a6 6 0 0 1-.6.3l-1 .1zm-.9-3.1 1.3-.1c.2 0 .5-.2.6-.4.3 0 .4-.3.4-.6 0-.2 0-.4-.2-.4 0-.2-.2-.2-.5-.2s-.6.1-1 .4l-.5 1.3zm3.8 3 1.1-5.3h1.1l.6 4.2 2.4-4.2h1.2l-1.1 5.3h-.8l.6-3 .2-.8.2-.7-2.5 4.5h-.7l-.6-4.5-.3.7v.8l-.7 3zm9.1.1c-.6 0-1.1-.2-1.4-.5-.4-.4-.6-.9-.6-1.5l.2-1.3c.2-.3.3-.8.6-1.1l.8-.8a2 2 0 0 1 1.1-.4c.5 0 1 0 1.3.4 0 .2.3.5.3 1 0 .2-.1.6-.4.8-.2.4-.5.6-.9.8l-1.9.2h-.1v.4c0 .4 0 .7.1 1 .3.1.6.2 1.1.2h.7a5 5 0 0 0 .7-.3v.7a6 6 0 0 1-.6.3l-1 .1zm-1-3.1h.3l.9-.1c.5 0 .8-.2 1-.4.1 0 .2-.3.2-.6 0-.2 0-.4-.2-.4 0-.2-.2-.2-.5-.2s-.7.1-1 .4c-.2.3-.5.8-.6 1.3zm3.3 5.5 1.7-7.9h.7l-.1 1.1.8-.8c.3-.2.6-.3 1-.3s.8.1 1 .4c.4.3.6.8.6 1.5l-.3 1.3-.5 1.2c-.3.5-.5.6-.9.8a2 2 0 0 1-1 .3c-.4 0-.7 0-1-.2a2 2 0 0 1-.3-.7l-.3.4v.5l-.6 2.4zm2.9-3.2c.2.1.5.1.7-.2l.6-.6a4 4 0 0 0 .3-1 5 5 0 0 0 .2-1.1c0-.7-.3-1.1-1-1.1 0 0-.3 0-.6.3l-.6.6-.5 1-.1 1.1c0 .3 0 .6.2.8.2.2.4.3.8.3zM396.8 242.6c-.6 0-1-.2-1.4-.5-.4-.4-.6-1.1-.6-1.6 0-.4 0-.8.2-1.2a4 4 0 0 1 .5-1c.2-.5.5-.8.8-1l1.2-.2c.6-.1 1.1.2 1.5.5.3.4.5 1 .5 1.6 0 .4 0 .8-.2 1.2a4 4 0 0 1-.5 1c-.2.5-.5.8-.8 1-.3.1-.7.2-1.2.2zm0-.7c.5 0 .8-.1 1.1-.4l.5-1 .2-1.3v-.7a1 1 0 0 0-.5-.5l-.6-.2c-.3 0-.7.2-1 .4l-.5 1a4 4 0 0 0-.3 1.4c0 .4.1.7.3 1 .2.1.5.2 1 .2zm5.8.7c-.8 0-1.3-.2-1.6-.6-.4-.4-.5-1-.5-1.6 0-.6 0-1.2.3-1.7.2-.5.5-.9 1-1.2.4-.3.9-.4 1.5-.4s1-.1 1.3.3c.4.2.5.6.5 1s-.1.7-.4 1c-.2.2-.6.3-1 .4l.9.4c.1.2.2.4.2.8 0 .2-.2.5-.4.7.1.3-.2.5-.4.7l-1.4.2zm-1.1-3.1h1.9l.6-.5.2-.5c0-.2 0-.3-.2-.5l-.7-.2c-.5 0-.9.2-1.2.4-.3.3-.5.8-.6 1.3zm1.1 2.4c.5 0 .8-.1 1-.3l.3-.6c.1-.3-.1-.5-.3-.6l-1-.2h-1.2v.2c0 .6 0 1 .3 1.2.2.2.5.3 1 .3zm5.3.7c-.6 0-1.1-.1-1.5-.5-.3-.3-.4-.8-.4-1.5-.1-.5-.1-1 0-1.3l.6-1.3c.4-.2.6-.5.9-.6.4-.2.7-.4 1.2-.4h.7l.6.3-.2.8-.5-.2-.6-.1c-.4 0-.7.1-1 .4-.3.2-.5.6-.7 1a4 4 0 0 0-.2 1.4c0 .4 0 .7.2 1 .3.2.6.3 1 .3l.6-.1a7 7 0 0 0 .6-.2v.7l-.6.2-.6.1zm2.3-.1 1.1-5.3h1l-.7 2.5 2.6-2.5h1l-2.5 2.6 1.7 2.7h-1l-1.9-2.5-.4 2.5zm6.5.1c-.4 0-.7-.1-1-.4-.3-.3-.4-.8-.4-1.4 0-.5 0-1 .2-1.4 0-.5.3-.9.5-1.2.2-.4.5-.6.8-.8a2 2 0 0 1 1-.4c.5 0 .8 0 1.1.4.1.1.1.3.3.6h.1l.3-.8h.7l-1.3 5.3h-.6l.2-1-1 .8c-.2.2-.5.3-.9.3zm.3-.6c.3-.1.5-.1.7-.4l.7-.6a4 4 0 0 0 .4-1.1 3 3 0 0 0 .2-.6 4 4 0 0 0 0-.3c0-.4 0-.7-.3-1-.2-.1-.4-.2-.7-.2-.3 0-.5 0-.7.3a2 2 0 0 0-.6.6l-.4 1-.1 1.1c0 .4 0 .6.2.8.1.2.3.4.6.4zm3.7.6h-.4v-.9h.2l.5.1c.1-.2.2-.4.3-.8l.4-.5.5-.5c-.2 0-.5-.1-.7-.4a1.4 1.4 0 0 1-.2-.6c0-.6.2-1.1.5-1.4.4-.3 1-.4 1.6-.4h2l-.9 5.3h-1.2l.7-2h-1.4l-.6.8c.1.3 0 .5-.2.7l-.5.4-.6.2zm2.5-3h.9l.3-1.6h-1.1c-.4 0-.6 0-.8.2-.2.1-.3.4-.3.7 0 .3 0 .5.3.6l.7.2zM378 254.5c-.6 0-1-.1-1.5-.5-.3-.4-.5-.9-.5-1.5 0-.5 0-.8.2-1.2a4 4 0 0 1 .5-1.1c.2-.4.5-.6.8-.9.5-.2.7-.3 1.2-.3.6 0 1 .2 1.3.6.5.4.7.9.7 1.4 0 .5 0 1-.2 1.3a4 4 0 0 1-.5 1.1c-.2.4-.5.6-.8.8-.4.2-.7.3-1.2.3zm0-.7c.5 0 .8-.1 1-.3l.5-1 .3-1.5-.1-.6a1 1 0 0 0-.4-.4l-.6-.2c-.4 0-.7 0-1 .2l-.6 1.1a4 4 0 0 0-.1 1.4c-.1.5 0 .8.2 1 .2.2.5.3.9.3zm5.6.8c-.7 0-1.1-.2-1.6-.6-.2-.4-.4-1-.4-1.7a7.4 7.4 0 0 1 .4-2.2l.5-1.2.7-1 1-.6h.5a34 34 0 0 1 1.5-.5h.6l.2.6-.8.3-.9.1-.7.2c-.4.2-.8.4-1.1.8-.3.4-.5 1-.7 1.6a3 3 0 0 1 .7-.6c.3-.2.7-.3 1-.3.7 0 1.1.1 1.3.5.2.3.3.7.3 1.3l-.1 1.2-.5 1c-.2.5-.5.6-.8.8-.3.2-.7.3-1.1.3zm0-.8c.4 0 .6 0 .8-.2a2 2 0 0 0 .5-.6l.1-.8.2-.8c0-.4 0-.7-.2-.9l-.6-.3c-.4 0-.5 0-.7.2l-.7.4a4 4 0 0 0-.4.5v1c-.1.5-.1.9.1 1.1.2.3.5.4.9.4zm3 .7h-.4v-.8h.8l.5-.8.4-1.2.5-1.2.5-.8.6-.5 1-.1a4.5 4.5 0 0 1 1.2.1l-1 5.3h-1.1l1.1-4.7h-.4c-.2 0-.5 0-.6.2-.2.1-.4.3-.5.7l-.5 1.3-.5 1.4c-.2.4-.4.6-.7.8-.2.2-.5.3-1 .3zm7.4.1c-.4 0-.8-.2-1-.6-.4-.2-.6-.7-.6-1.3.1-.5.1-1 .3-1.4l.6-1.2.7-.8a2 2 0 0 1 1-.3c.6 0 .9.1 1.2.3l.2.6.6-.8h.5l-1.1 5.4h-.7l.1-1-.8.7c-.3.3-.7.4-1 .4zm.3-.8c.2 0 .5 0 .7-.2l.6-.8a4 4 0 0 0 .5-1 3 3 0 0 0-.1-.5 4 4 0 0 0 .3-.5c-.1-.3-.1-.6-.4-.8-.1-.2-.4-.3-.7-.3-.2 0-.5.1-.7.3a2 2 0 0 0-.5.7l-.4 1-.2.9c0 .6 0 .9.2 1.1.2.1.4.1.7.1zm5.9.8c-.6 0-1-.2-1.4-.6-.4-.3-.6-.8-.6-1.4 0-.6 0-1 .2-1.4.1-.4.3-.8.6-1.1.2-.4.5-.6.8-.8l1.2-.3h.7l.6.4-.2.6-.5-.2h-.6c-.4-.1-.7-.1-1 .2l-.7 1.1a4 4 0 0 0-.2 1.6c0 .3.1.6.3.9l.9.1h.6a7 7 0 0 0 .7-.3v.8l-.7.3h-.7zm2.3-.1 1.2-5.5h.7l-.1 1.1.5-.5.5-.4.8-.2c.3 0 .6.1.8.3.2.2.3.5.4.9l.5-.6.6-.4.6-.2c.6 0 1 .1 1.1.4.2.2.3.5.3 1v.7l-.9 3.4h-.7l.7-3.5v-1.1l-.6-.2c-.2 0-.5.1-.7.3l-.7.7-.5 1.3-.5 2.5h-.9l.7-3.5.1-.6-.1-.4-.5-.3c-.2 0-.5.1-.7.3l-.7.7-.4 1.5-.6 2.3zm10.9.1c-.6 0-1-.2-1.3-.4-.3-.3-.5-.7-.5-1.2v-.4l.2-.6.6-3h.9l-.6 2.4a9.8 9.8 0 0 1 1.3 0c.5-.1 1-.1 1.2.2.3.4.4.7.4 1.1s0 .7-.2 1l-.8.6c-.3.2-.6.3-1.2.3zm0-.8c.6 0 1 0 1.1-.3a1 1 0 0 0 .2-.7c0-.2 0-.4-.2-.6l-.8-.2a5.6 5.6 0 0 0-1.1.1v.5l-.2.4c.1.2.1.4.3.6.1.2.3.2.8.2zm.1 0" style="fill:none;stroke:#fff;stroke-width:3;stroke-linecap:butt;stroke-linejoin:round;stroke-miterlimit:10;stroke-opacity:.6" transform="rotate(  340 426.984 103.384) translate(30.929929,-142.11049)"/> <g style="fill:#7d577d;fill-opacity:1" transform=" rotate(  340 426.984 103.384) ">  <use xlink:href="#n" x="396.9" y="100.4"/>  <use xlink:href="#o" x="402.5" y="100.4"/>  <use xlink:href="#p" x="407.5" y="100.4"/>  <use xlink:href="#o" x="414.5" y="100.4"/>  <use xlink:href="#g" x="419.5" y="100.4"/>  <use xlink:href="#b" x="425.3" y="100.4"/>  <use xlink:href="#c" x="430.9" y="100.4"/>  <use xlink:href="#d" x="436.3" y="100.4"/>  <use xlink:href="#h" x="440.9" y="100.4"/>  <use xlink:href="#i" x="445.7" y="100.4"/>  <use xlink:href="#j" x="451.4" y="100.4"/>  <use xlink:href="#b" x="406.5" y="112.4"/>  <use xlink:href="#f" x="412.1" y="112.4"/>  <use xlink:href="#k" x="417.5" y="112.4"/>  <use xlink:href="#i" x="423" y="112.4"/>  <use xlink:href="#d" x="428.7" y="112.4"/>  <use xlink:href="#l" x="433.2" y="112.4"/>  <use xlink:href="#m" x="441.9" y="112.4"/> </g> <path d="M5.6 3A2.6 2.6 0 0 1 3 5.6 2.6 2.6 0 1 1 3 .4C4.4.4 5.6 1.6 5.6 3zm0 0" style="fill:#f8f8f5;fill-opacity:1;fill-rule:nonzero;stroke:#7d7d68;stroke-width:.8;stroke-linecap:butt;stroke-linejoin:miter;stroke-miterlimit:4;stroke-opacity:1" transform="translate(201.70728,201.86958)"/> <path d="M173.3 199.9h-1v-4h-4.5v4h-1v-8.6h1v3.7h4.5v-3.7h1zm7.8-3.3c0 1.1-.3 2-.8 2.5-.5.6-1.3.9-2.2.9a3 3 0 0 1-1.5-.4 2.7 2.7 0 0 1-1-1.1c-.4-.5-.5-1.1-.5-1.9.1-1 .3-1.8.9-2.4.5-.6 1.2-.9 2-.9.7 0 1.3.2 1.7.4.3.3.8.7 1 1.1.3.5.4 1.2.4 1.8zm-4.8 0c0 .8.1 1.4.4 1.8.3.6.8.7 1.4.7.7 0 1.2-.1 1.5-.7.3-.4.4-1 .4-1.8 0-.6 0-1.3-.4-1.6-.3-.6-.8-.8-1.6-.8-.5 0-1 .2-1.3.8-.3.3-.4.9-.4 1.6zM188 195c0 .6-.3.9-.5 1-.2.2-.5.4-.9.4v.1c.6 0 .9.2 1.2.4.2.3.4.6.4 1.1 0 .6-.3 1-.7 1.4-.4.3-1 .6-2 .6h-2.6v-6.6h2.6c.5 0 1 0 1.3.2l.8.4c.2.3.4.7.4 1.1zm-1.2.3c.1-.4 0-.6-.2-.8l-1.1-.2h-1.7v1.8h1.5c1-.1 1.6-.3 1.6-1.1zm.2 2.7c0-.4-.1-.6-.4-.8-.2-.2-.6-.3-1.2-.3h-1.6v2.1h1.6c.6 0 1 0 1.2-.2.4-.2.5-.4.5-.8zm8.3-1.4c0 1.1-.3 2-.8 2.5-.6.6-1.3.9-2.2.9a3 3 0 0 1-1.5-.4 2.7 2.7 0 0 1-1-1.1c-.4-.5-.6-1.1-.6-1.9.1-1 .4-1.8.9-2.4.6-.6 1.3-.9 2.2-.9.7 0 1.1.2 1.7.4.3.3.7.7.9 1.1.3.5.4 1.2.4 1.8zm-4.9 0c0 .8.2 1.4.6 1.8.2.6.7.7 1.3.7.7 0 1.1-.1 1.4-.7.3-.4.5-1 .5-1.8 0-.6-.2-1.3-.5-1.6-.3-.6-.7-.8-1.4-.8s-1.1.2-1.4.8c-.3.3-.5.9-.5 1.6zm9.1 3.4-1.5-.3c-.4-.3-.8-.7-1-1.1-.3-.6-.4-1.2-.4-2 0-.6.1-1.2.4-1.7.2-.6.6-1 1-1.2.6-.3 1-.4 1.7-.4l.9.1a3 3 0 0 1 .6.3l-.2.8-.7-.2a3 3 0 0 0-.7 0c-1.3-.1-2 .7-2 2.3.1.9.3 1.4.6 1.9.2.4.8.5 1.3.5h1l.6-.3v1l-.6.1-1 .2zm4.2-6.6v5.4l3.3-5.4h1.4v6.6h-1v-5.5l-3.4 5.4h-1.3v-6.5zm6.4 2.6c0-1.4.2-2.5.6-3.3.4-.7 1.1-1.3 2-1.5a36.8 36.8 0 0 1 3.1-.5l.1 1h-1a182.5 182.5 0 0 0-1.9.5 2 2 0 0 0-1.2.8c-.4.4-.5 1-.5 2a2.7 2.7 0 0 1 1.2-.9c.3-.2.5-.2 1-.2.7 0 1.3.3 1.7.8.5.5.8 1.2.8 2s-.2 1.5-.4 2c-.3.3-.6.7-1 .9-.6.4-1.1.4-1.6.4-.9 0-1.6-.3-2.1-1s-.9-1.7-.9-3zm3 3.1c.5 0 1-.1 1.2-.5.4-.3.5-.9.5-1.6 0-.8 0-1.3-.3-1.7-.3-.3-.7-.5-1.2-.5a2 2 0 0 0-1 .2l-.7.5-.4.5v1.2l.5 1 .3.7 1.1.1zm5.5-5.7v5.4l3.4-5.4h1.3v6.6h-1v-5.5l-3.3 5.4h-1.4v-6.5zm9.8-.1c.8 0 1.4.3 1.9.9.5.5.7 1.3.7 2.4 0 1.1-.2 2-.7 2.6-.5.5-1.1.8-2 .8-.3 0-.7-.1-1-.3a2.5 2.5 0 0 1-.9-.6v3.6h-1v-9.3h.7l.2 1 .9-.9c.3-.1.8-.2 1.2-.2zm-.2 1c-.6-.1-1.1 0-1.4.4-.3.3-.4 1-.4 1.7v.2c0 .8.1 1.4.4 1.9.2.4.7.5 1.4.5.4.1.8.1 1-.2l.6-.9a4 4 0 0 0 .1-1.3c.1-.6-.1-1.3-.4-1.6-.3-.6-.7-.8-1.3-.8zm7.1 5.7c-.6 0-1-.1-1.5-.3-.5-.3-.8-.7-1-1.1-.4-.6-.5-1.2-.5-2 .1-.6.1-1.2.4-1.7s.7-1 1.1-1.2c.5-.3 1-.4 1.6-.4l.9.1a3 3 0 0 1 .8.3l-.4.8-.6-.2a3 3 0 0 0-.8 0c-1.2-.1-1.9.7-1.9 2.3 0 .9.2 1.4.6 1.9.2.4.7.5 1.3.5h1l.5-.3v1l-.6.1-1 .2zm7-6.6h1.1l-2.7 3.1 3 3.5h-1.3l-2.9-3.4v3.4h-1v-6.6h1v3.2zm0 0" style="fill:none;stroke:#fff;stroke-width:3;stroke-linecap:butt;stroke-linejoin:round;stroke-miterlimit:10;stroke-opacity:.6" transform=" rotate(  340 207.309 204.871) "/> <g style="fill:#212121;fill-opacity:1" transform=" rotate(  340 207.309 204.871) ">  <use xlink:href="#q" x="165.6" y="199.9"/>  <use xlink:href="#r" x="174.5" y="199.9"/>  <use xlink:href="#s" x="181.8" y="199.9"/>  <use xlink:href="#r" x="188.7" y="199.9"/>  <use xlink:href="#t" x="195.9" y="199.9"/>  <use xlink:href="#u" x="201.7" y="199.9"/>  <use xlink:href="#v" x="209.4" y="199.9"/>  <use xlink:href="#u" x="216.6" y="199.9"/>  <use xlink:href="#w" x="224.3" y="199.9"/>  <use xlink:href="#t" x="231.7" y="199.9"/>  <use xlink:href="#x" x="237.5" y="199.9"/> </g> <path d="M5.6 3A2.6 2.6 0 1 1 .4 3a2.6 2.6 0 0 1 5.2 0zm0 0" style="fill:#f8f8f5;fill-opacity:1;fill-rule:nonzero;stroke:#7d7d68;stroke-width:.8;stroke-linecap:butt;stroke-linejoin:miter;stroke-miterlimit:4;stroke-opacity:1" transform="translate(302.33297,73.117891)"/> <path d="M292.1 71.1h-1v-7.6h-2.7v-1h6.4v1.1h-2.7zm8.6-3.2c0 1-.3 1.9-.8 2.5-.6.6-1.3.8-2.2.8a3 3 0 0 1-1.5-.2 2.7 2.7 0 0 1-1-1.3c-.4-.5-.6-1.1-.6-1.7.1-1.1.4-2 .9-2.6.6-.4 1.3-.8 2.2-.8.6 0 1.1.1 1.6.4.4.2.7.6 1 1 .3.7.4 1.3.4 2zm-4.9 0c0 .7.2 1.3.5 1.8.3.4.7.7 1.4.7s1.1-.4 1.5-.7c.3-.5.4-1 .4-1.8s-.1-1.4-.4-1.9c-.4-.3-.8-.5-1.5-.5-.6 0-1.1.2-1.4.5-.3.5-.5 1.1-.5 1.9zm13.5-3.2V71h-1v-3.9a8 8 0 0 1 0-1.3l-2 5.3h-1.1l-1.8-5.1v5.1h-1.1v-6.4h1.6l1.9 5.2 2-5.2zm4.6 6.5c-.6 0-1 0-1.5-.2-.5-.3-.8-.7-1-1.2-.4-.5-.4-1.1-.4-1.9 0-.8 0-1.4.3-1.9s.7-.9 1.1-1c.6-.4 1-.5 1.6-.5h1a3 3 0 0 1 .6.5l-.3.8a7 7 0 0 0-.6-.2 3 3 0 0 0-.8-.1c-1.2 0-1.8.8-1.8 2.4-.1.8.1 1.4.4 1.8.3.4.8.6 1.4.6h1c.1-.3.3-.3.6-.3v.9l-.7.1-1 .2zm7-6.5h1.1l-2.7 3 3 3.5H321l-2.9-3.2v3h-1v-6.3h.9v3.1zm0 0" style="fill:none;stroke:#fff;stroke-width:3;stroke-linecap:butt;stroke-linejoin:round;stroke-miterlimit:10;stroke-opacity:.6" transform=" rotate(  340 307.934 76.1172) "/> <g style="fill:#212121;fill-opacity:1" transform=" rotate(  340 307.934 76.1172) ">  <use xlink:href="#y" x="288.3" y="71.1"/>  <use xlink:href="#r" x="294.1" y="71.1"/>  <use xlink:href="#z" x="301.3" y="71.1"/>  <use xlink:href="#t" x="310.3" y="71.1"/>  <use xlink:href="#x" x="316.1" y="71.1"/> </g> <path d="M5.6 3A2.6 2.6 0 1 1 .4 3a2.6 2.6 0 1 1 5.2 0zm0 0" style="fill:#f8f8f5;fill-opacity:1;fill-rule:nonzero;stroke:#7d7d68;stroke-width:.8;stroke-linecap:butt;stroke-linejoin:miter;stroke-miterlimit:4;stroke-opacity:1" transform="translate(358.61533,173.46897)"/> <path d="M339.7 190.7h-1.3l-3.9-4.4v4.4h-1V182h.9v4.3l3.9-4.3h1.2l-3.7 4.3zm3.5-6.6c.5 0 1 .2 1.4.4.4.2.7.6.9 1 .2.5.3 1 .3 1.5v.7h-4.4c0 .7.2 1.3.6 1.6.3.4.8.7 1.5.7l1-.2c.5 0 .8-.2 1.1-.3v.9l-1.1.3-.9.1a3.4 3.4 0 0 1-1.9-.4 2.6 2.6 0 0 1-.9-1c-.4-.7-.6-1.3-.6-2s.2-1.2.5-1.7c.2-.5.6-.9 1-1.2.3-.2 1-.4 1.5-.4zm0 .9c-.5 0-1 .2-1.2.5-.3.3-.5.8-.5 1.3h3.2c0-.5-.1-1-.4-1.3-.2-.3-.6-.5-1.1-.5zm11.2-.8v6.5h-1v-4.1a8 8 0 0 1 0-1l-2 4.9h-1.1l-1.8-4.8v4.8h-1.1v-6.2h1.6l1.9 5.1 2-5.2zm4.5-.1c.5 0 1 .2 1.4.4.4.2.7.6 1 1l.2 1.5v.7H357c.1.7.4 1.3.7 1.6.4.4.9.7 1.5.7l1-.2c.5 0 .8-.2 1.1-.3v.9l-1 .3-1 .1a3.4 3.4 0 0 1-1.9-.4 2.6 2.6 0 0 1-.9-1c-.4-.7-.5-1.3-.5-2s0-1.2.4-1.7c.2-.5.6-.9 1-1.2.4-.2 1-.4 1.6-.4zm0 .9c-.5 0-1 .2-1.2.5-.3.3-.5.8-.5 1.3h3.2c0-.5 0-1-.3-1.3-.3-.3-.7-.5-1.2-.5zm7.3-.9c.8 0 1.5.3 2 .9.3.5.6 1.3.6 2.4.1 1.2-.2 2-.8 2.6-.3.5-.9.8-1.8.8-.5 0-.9 0-1.2-.3a2.5 2.5 0 0 1-.8-.5v3.6h-1v-9.4h.8v1h.3l.7-.9c.3-.1.7-.2 1.2-.2zm-.1 1c-.7-.1-1.2 0-1.4.4-.3.4-.5 1-.5 1.7v.2c0 .8.2 1.6.4 1.9.4.4.8.6 1.5.6.4.1.7.1.9-.3.2-.2.4-.5.5-.9a4 4 0 0 0 .3-1.3c0-.7-.2-1.3-.4-1.7-.4-.5-.8-.7-1.4-.7zm10.1 2.3c0 1.1-.3 2-.9 2.6-.5.5-1.2 1-2.1 1a3 3 0 0 1-1.6-.7 2.7 2.7 0 0 1-1-1c-.3-.5-.4-1.1-.4-1.9 0-1 .3-1.8.8-2.4.5-.6 1.3-.9 2.2-.9.6 0 1 .2 1.5.4.5.3.8.7 1 1.2.3.3.6 1 .6 1.7zm-5 0c.1.8.3 1.4.6 1.9.2.4.7.6 1.4.6.6.1 1.1-.2 1.4-.6.4-.5.5-1 .5-1.9-.1-.7-.2-1.3-.5-1.7-.3-.5-.8-.7-1.4-.7-.7 0-1.2.2-1.5.7-.3.3-.4 1-.4 1.7zM383 185.9c0 .4-.1.7-.4 1l-.9.3c.4.1.8.3 1 .5.3.3.6.6.6 1-.1.7-.3 1.2-.7 1.6-.4.2-1 .4-2 .4h-2.8v-6.5h2.8l1.2.2c.4.1.7.3.9.5.2.2.3.6.3 1.1zm-1 .1c0-.3-.3-.5-.5-.7l-.9-.2h-1.8v1.9h1.5c1-.1 1.7-.4 1.7-1zm0 2.8c.1-.4 0-.6-.3-.8-.3-.2-.7-.2-1.3-.2H379v2h1.5c.5 0 .9 0 1.2-.2.3-.2.3-.4.3-.8zM390.3 187.4c0 1.1-.2 2-.8 2.6-.5.5-1.3 1-2.2 1a3 3 0 0 1-1.5-.7 2.7 2.7 0 0 1-1-1c-.4-.5-.5-1.1-.5-1.9.1-1 .3-1.8.9-2.4.5-.6 1.2-.9 2.2-.9.5 0 1 .2 1.5.4.4.3.8.7 1 1.2.3.3.4 1 .4 1.7zm-4.8 0c0 .8.1 1.4.4 1.9.3.4.8.6 1.5.6.6.1 1-.2 1.4-.6.2-.5.4-1 .4-1.9 0-.7-.1-1.3-.4-1.7-.3-.5-.8-.7-1.5-.7-.6 0-1.1.2-1.3.7-.4.3-.5 1-.5 1.7zm0 0" style="fill:none;stroke:#fff;stroke-width:3;stroke-linecap:butt;stroke-linejoin:round;stroke-miterlimit:10;stroke-opacity:.6" transform=" rotate(  340 364.215 176.469) "/> <g style="fill:#212121;fill-opacity:1" transform=" rotate(  340 364.215 176.469) ">  <use xlink:href="#A" x="332.3" y="190.7"/>  <use xlink:href="#B" x="339.7" y="190.7"/>  <use xlink:href="#z" x="346.4" y="190.7"/>  <use xlink:href="#B" x="355.4" y="190.7"/>  <use xlink:href="#w" x="362.2" y="190.7"/>  <use xlink:href="#r" x="369.5" y="190.7"/>  <use xlink:href="#s" x="376.8" y="190.7"/>  <use xlink:href="#r" x="383.7" y="190.7"/> </g></svg>