<svg xmlns="http://www.w3.org/2000/svg" xmlns:xlink="http://www.w3.org/1999/xlink" viewBox="0 0 497 279"> <defs overflow="visible" style="stroke:none">  <path id="B" d="M1.7-5.4V-3h3v-2.4h.7V0h-.8v-2.4H1.7V0H.8v-5.4Zm0 0"/>  <path id="A" d="M3 0c-.5 0-.9 0-1.3-.1-.3-.3-.6-.6-.7-.9-.4-.5-.5-1-.5-1.7 0-.6.2-1.1.5-1.5 0-.6.4-.8.8-1.1.2-.1.8-.2 1.2-.2l.8.1.7.2-.3.8-.6-.2H3c-1-.1-1.5.6-1.5 1.9 0 .7 0 1 .3 1.4.3.5.7.6 1.2.6h.8l.6-.3v.8a2 2 0 0 1-.6.2H3Zm0 0"/>  <path id="z" d="M5 0H4v-4.6H2.5L2-2 1.5-.4c-.3.3-.6.4-1 .4H0v-.7h.4c.3.1.6-.3.8-.9.2-1 .4-2.2.5-3.9h3.2Zm0 0"/>  <path id="y" d="M2.9-5.5c.6 0 1.1.2 1.4.5.3.3.5.7.5 1.3V0h-.6L4-.8c-.3.3-.5.6-.8.8h-1c-.5 0-1 0-1.3-.3C.6-.5.5-.9.5-1.5c0-.5.2-1 .5-1.2.5-.3 1-.5 2-.5h.8v-.3c.2-.5.2-.8-.2-1l-.8-.2H2l-.7.5L1-5l1-.3.9-.2Zm1 2.9h-.8c-.6 0-1 .1-1.4.3-.1.3-.3.5-.3.8 0 .3 0 .5.2.7l.7.2c.5 0 .9-.1 1.2-.4.3-.2.4-.6.4-1Zm.1 0"/>  <path id="x" d="M.6-3.2C.6-4.4.7-5.3 1-6c.4-.6 1-1 1.8-1.2l1.3-.3c.4 0 .8 0 1.1-.2l.2.8-.8.2a31.4 31.4 0 0 0-1.6.2c-.4.1-.8.5-1 .7-.3.4-.4 1-.5 1.8l.5-.5c0-.1.3-.3.6-.3a2 2 0 0 1 .7-.2c.7 0 1.3.2 1.7.7.3.3.5 1 .5 1.7C5.5-2 5.3-1.5 5-1l-.7 1H3c-.7 0-1.3-.2-1.8-.7C.8-1.4.6-2.1.6-3.3ZM3-.6c.5 0 .8-.2 1-.4.4-.3.5-.8.5-1.5 0-.5 0-1-.3-1.3-.2-.2-.5-.5-1-.5l-.8.3-.6.4c-.2.1-.3.3-.3.4v1c0 .2.2.4.3.8 0 .2.2.4.5.6l.7.2Zm0 0"/>  <path id="w" d="M5.2-7.6c0 .6-.2.9-.5 1.2-.3.2-.8.3-1.4.3-.7.1-1.1.1-1.4-.3-.3-.3-.4-.7-.4-1.2h.8c0 .4.1.6.3.7.1.2.4.2.7.2.3 0 .7 0 .7-.2.2 0 .3-.3.4-.7ZM1.7-5.4v3.7a18.9 18.9 0 0 0 0 .7l2.7-4.4h1.1V0h-.7v-4.1l.1-.4-3 4.5H1v-5.4Zm0 0"/>  <path id="v" d="M5.5-2.7c0 .9-.2 1.7-.7 2-.4.7-1 .9-1.8.9-.5-.2-.9-.2-1.3-.4-.3-.2-.6-.6-.7-1C.6-1.6.5-2 .5-2.7c0-.9.3-1.6.7-2 .5-.5 1-.8 1.8-.8.5 0 1 .2 1.3.5.4 0 .7.4.9.9.2.2.3.7.3 1.3Zm-4 0c0 .7 0 1.2.3 1.5.3.4.7.6 1.2.6.6 0 1-.2 1.2-.6.3-.3.4-.8.4-1.5s-.1-1.1-.4-1.5c-.2-.3-.6-.5-1.2-.5-.5 0-1 .2-1.2.5-.2.4-.3.9-.3 1.5Zm0 0"/>  <path id="u" d="M6 0h-.9v-3l-1 .5H2.8c-.6 0-1.1-.1-1.5-.4C1-3.3.8-3.7.8-4.3v-2.8h.9v2.7c0 .4.1.7.3.9l1 .2h1l1.1-.5V-7h1Zm0 0"/>  <path d="M1 0v-7.1h4V0Zm.4-.5h3.1v-6.1h-3Zm8.1 0H1.7V-7h7.5v-.8H1V.8h.7V.2h7.8ZM8.2-1.9a15.2 15.2 0 0 0-1.9-2l1.4-2.6-.6-.2a14 14 0 0 1-1.6 2.3A27.8 27.8 0 0 0 3.2-6l-.4.5c.7.5 1.5 1 2.3 1.7-.9.8-1.8 1.7-2.8 2.3A7 7 0 0 1 3-1c1-.6 1.8-1.4 2.6-2.3.9.7 1.6 1.3 2 2ZM4.9-5.7h.7v-1h1.7v1.1H8v-1.1h1.5v-.5H8v-1.1h-.7v1H5.6v-1h-.7v1H3.4v.7H5ZM3-6.7A11 11 0 0 0 1.5-8l-.5.3A11 11 0 0 1 2.5-6ZM2.5-1v-4.2h-2v.7h1.3v3.4c0 .5-.3 1.1-.6 1.1l.6.6L3.7-1a3 3 0 0 1-.4-.5Zm5.7-1v1.6h-3v-1.7Zm1.4-2v-.7H6l.4-1-.7-.1-.4 1.1h-2v.7H5c-.4 1-1 1.7-1.8 2.2l.5.5.9-.7V.8h.7V.4h3v.3H9v-3.5H5c.5-.2.7-.8.9-1.2ZM4.7-2.6C4.4-1 3.7-.2.5.2l.3.6C4.1.3 5.1-.7 5.5-2.6ZM8.3-1v-2.6H1.8v2.8h.8V-3h5v2ZM5-.7 9.1.7l.4-.6c-1-.4-2.7-1-4-1.3Zm4.3-4.7V-6h-2l.7-.8-.8-.3L6.5-6H5.4v-1h3.5v-.7H5.4v-.7h-.8v.7H1.2v.6h3.4V-6H3.4a4.1 4.1 0 0 0-.7-1l-.7.2.6.8H.8v.6h3C2.8-4.8 1.5-4.3.4-4l.4.6c1.3-.4 2.9-1 3.8-1.9v1.5h.8v-1.5c1 .8 2.4 1.5 3.6 1.9a3 3 0 0 1 .6-.6A10 10 0 0 1 6-5.4ZM4.4-4c-.5 0-1 .1-1.4.2v-1.9h1.4v-.7H3v-2h-.7v2H.7v.7h1.6v2.2l-1.7.4.2.7 1.5-.4v2.7L2 0H1a3 3 0 0 1 .2.8C2 .8 2.3.8 2.6.6 3 .6 3 .3 3 0v-3l1.5-.4ZM6.7-.3c-.5.1-.7.1-.7-.5v-7.5h-.6v7.5C5.4.2 5.6.5 6.6.5h1.7c1 0 1.1-.6 1.2-2.2A2 2 0 0 1 9-2C8.8-.5 8.7-.2 8.3-.2Zm-.4.1v-3H9V-4H3.4A19 19 0 0 0 4-5.8h5.3v-.8H4.2l.3-1.7h-.8a20 20 0 0 1-.3 1.6H.7v.9h2.5c-.5 2-1.4 4-2.9 5.4l.5.6C2-1 2.8-2.3 3.4-4v.8h2.2v3H2.3v.7h7.2v-.7Zm0 0"/>  <path id="t" d="M6-2.5h2v.8H6ZM8-5v.8H6V-5ZM6-3.7h2v.7H6Zm-1.6 2v.6h5.2v-.6h-1V-5h.8v-.6h-.8v-.7H8v.7H6.1v-.7h-.7v.7h-.9v.6h1v3.3Zm-.4-3H2.3v-1.5H4l.6.6.7-1.1h4.2v-.6H5.7l.3-.9-.7-.2a5.4 5.4 0 0 1-1 2v-.3H2.8v-1.6h-.7v1.6H.5v.5h1.2v1.9C1.7-3 1.5-1.1.3.3a4 4 0 0 1 .5.5C2.1-.7 2.3-2.5 2.3-4.1h1.1c0 2.8-.1 3.8-.3 4.1 0 .2-.1.2-.3.2h-.7l.2.4h.9c.2.1.4.1.5-.2.3-.4.3-1.5.4-4.8ZM5.9-1C5.5-.6 4.7 0 4 .3l.6.5 2-1.6Zm1.6.3L9 .8l.7-.4L8-1Zm0 0"/>  <path id="s" d="M7.9-3.1v2.6H3.4v-2.6Zm1.4-2.7v-.7H4.4L5-8.2l-.9-.2-.5 1.9h-3v.7h2.9c-.8 1.6-1.7 3-3.1 4l.4.6A8.7 8.7 0 0 0 2.7-3V.8h.7V.2H8v.5h.6v-4.5H3.2l1-2Zm0 0"/>  <path id="r" d="M3.7-2c0 .9-.2 1.8-2 2.4l.6.4c1.7-.7 2-1.8 2-2.7v-.8h-.6ZM6-3.5c-.7-.1-.8-.1-.8-.5v-.3l2.6-.3-.1-.4H5.2v-.7h3.2l-.4.9.7.2c.3-.4.5-1 .7-1.6l-.6-.1H5.3V-7h3.4v-.6H5.3v-.8h-.8v2.1H1.3v2.4c0 1.2 0 2.9-.8 4.3.1 0 .5.2.5.4C1.9-.6 2-2.5 2-4v-1.7h2.4v.9l-1.9.2v.5l2.1-.2v.4c-.1.7.2.9 1.4.9h2c1 0 1.1-.2 1.2-1.1l-.6-.3c0 .7-.1.8-.6.8ZM7.1-.1c-.4.1-.4.1-.4-.3v-2.3H6v2.3c0 .8.2 1 1 1h1.4c.8 0 1-.3 1-1.7l-.6-.2c0 1-.1 1.2-.4 1.2Zm0 .1"/>  <path id="q" d="M2.7-4.2C2.2-3 1.4-1.9.6-1.2l.6.5C2-1.5 3-2.7 3.4-4Zm5.7-1.7a6.7 6.7 0 0 1-.8 1.5l.6.2c.5-.5 1-1.5 1.3-2.3l-.6-.2H3l.8-1.4-.8-.3c-.6 1.5-1.6 3-2.6 4L1-4l1.6-2h2.1v5.9c0 .1 0 .1-.2.1H2.9c.1.2.3.5.3.8.9 0 1.5 0 1.8-.2.3-.1.5-.3.5-.8v-5.7ZM6.7-3.8c.8 1 1.6 2.3 2 3.1l.7-.4C9-1.9 8.1-3 7.4-4Zm0 0"/>  <path id="p" d="M4.6-7v2.6H2v-2.7Zm3.2 2.6H5.3v-2.7h2.5ZM3.4-.2C2.3-.2 2-.3 2-1.2v-2.3h5.8v.5h.8v-4.8H1.3v6.7C1.3.2 1.8.6 3.4.6h4c1.5 0 1.9-.6 2-2.1l-.6-.3C8.5-.5 8.4-.2 7.4-.2Zm0 0"/>  <path id="o" d="M5-7.3H3.2v-1h-.7v1H.7v.6H5ZM4-5.1l.5-1.4-.7-.2-.5 1.5Zm-1.7-.1-.5-1.5-.6.2c.2.4.4 1 .4 1.4Zm2.5 4L3.2-2.5v-.3h1.9v-.6H3.2v-1h2v-.7H.5v.7h2v1h-2v.6h1.8C1.8-1.8 1-1 .3-.5l.5.5a8.2 8.2 0 0 0 1.7-1.9V.7h.7v-2.5L4.3-.7ZM9.6-5H6.2v-1.8a16 16 0 0 0 3.2-.9l-.6-.5a14 14 0 0 1-2.8.7l-.5-.1V-4c0 1.3-.1 3-1.4 4.3.2 0 .4.4.5.5C6-.6 6.2-2.6 6.2-4v-.3h1.5v5h.7v-5h1.2Zm0 0"/>  <path id="n" d="M9.5-6.3V-7H5.4v-1.4h-.8V-7h-4v.7h3.9v1.4H1.6v4.4h.7v-3.7h2.3v5h.7v-5h2.5v2.8c0 .1 0 .2-.2.2H6l.4.7L8-.6c.5-.2.6-.4.6-.8V-5H5.3v-1.3Zm0 0"/>  <path id="m" d="M2.3-5.4h2.4v1.2H2.3Zm0-1.9h2.4v1.2H2.3Zm5.5 1.2H5.4v-1.2h2.4Zm0 2.1H5.4v-1.5h2.4ZM5.4-.3v-1.3H9v-.7H5.4v-1.2h3.2V-8h-7v4.5h3v1.2H1.3v.7h3.2v1.4H.6v.7h8.8v-.7Zm0 .1"/>  <path id="l" d="M3-2.8c.6-.7.9-1.7 1-2.6l-.8-.1c0 .8-.2 1.8-.7 2.3Zm0-4.4-1.8-1-.4.4 1.7 1.1Zm-.6 2.6a11.8 11.8 0 0 0-1.6-1L.4-5c.6.2 1.3.7 1.7 1ZM1.3.6c.4-.9 1-2 1.3-3.1L2-3 .6.2Zm2.8-5.3C4.1-2.9 4-1 2.8.3l.6.5C4.7-.8 4.8-2.7 4.8-4.7V-8h-.7Zm.9-.5c.2.7.4 1.6.5 2.2l.6-.3a9.5 9.5 0 0 0-.7-2Zm3.4-3v4.7a10.2 10.2 0 0 0-1-2H7V-8h-.8V.5H7v-5.7L8-3l.4-.3v4h.7v-8.8Zm0 0"/>  <path id="k" d="M4.7-6.2h.7v-.7H7v.7h.7v-.7h1.7v-.6H7.7v-.8H7v.8H5.4v-.8h-.7v.8H3v.5h1.7ZM2.5-4.5l-1.6-1-.4.7A9 9 0 0 1 2-4ZM1.3.5l1.5-3-.6-.5L.7 0ZM1-7.6l1.4 1L3-7 1.4-8Zm4.7 3.3v-1h1.1v1.1Zm3.8-1v-.4H2.9v.5h2.2v.9H3.2v5h.7v-4.4H5c0 1.2-.4 2-1 2.7l.5.4c.4-.4.7-1 .8-1.4l.5.6.5-.4a6 6 0 0 0-.8-1l.1-.9h1.2c-.1 1.3-.4 2.3-1 3l.3.3c.6-.4.9-1 1.1-1.6l.5 1 .6-.3a8.3 8.3 0 0 0-1-1.7v-.7h1.3V0c-.1.1-.1.2-.3.2h-1l.2.5L8.8.6c.3-.1.4-.2.4-.6v-4.3H7.4v-1Zm0 .1"/>  <path d="M1 1.2h8v-10H1Zm4-5.4L1.8-8.3h6.4Zm.3.4 3.2-4v8ZM1.8.7l3.2-4L8.2.6Zm-.3-8.6 3.2 4.1L1.5.3Zm0 0"/>  <path id="j" d="M3.6-6c-.6 0-1-.3-1.2-.5-.4-.1-.4-.4-.4-.8a1 1 0 0 1 0-.3h.9v.3c-.1.2-.1.3.1.3 0 .3.3.3.7.3.3 0 .5 0 .7-.2.2-.1.4-.3.4-.7h.9c-.1.6-.3.8-.7 1.1-.3.3-.8.5-1.4.5ZM1.9 0c-.4 0-.7 0-1-.1C.7-.5.5-.8.5-1.2v-.5L.8-2l.6-3.4h.9L1.4-2v1.2l.8.2c.2 0 .4-.1.8-.4l.6-.6.5-1.4.5-2.4h.9L4.4 0h-.8l.1-1-.5.5-.4.5-.9.1Zm0 0"/>  <path id="i" d="M1.9 0c-.4 0-.7 0-1-.1C.7-.5.5-.8.5-1.2v-.5L.8-2l.6-3.4h.9L1.4-2v1.2l.8.2c.2 0 .4-.1.8-.4l.6-.6.5-1.4.5-2.4h.9L4.4 0h-.8l.1-1-.5.5-.4.5-.9.1Zm0 0"/>  <path id="h" d="m.3 0 1.1-5.4h.7v1l.4-.5.6-.4.7-.2c.4 0 .7.2.9.5.2 0 .3.4.3.7l.5-.5.6-.5.9-.2c.3 0 .6.2.9.5.1 0 .2.4.2.9v.4l-.1.4L7.4 0h-.9l.7-3.4v-.4l.2-.2c-.1-.3-.1-.4-.3-.5 0-.2-.1-.2-.5-.2-.2 0-.4 0-.6.2l-.7.8c-.3.3-.4.7-.5 1.3L4.3 0h-1l.9-3.4v-1.1c-.4-.2-.5-.2-.8-.2-.1 0-.3 0-.6.2l-.6.8c-.3.3-.4.7-.5 1.4L1.2 0Zm0 0"/>  <path id="g" d="M1.3 0H.1v-1l.6.3h.6c.5.1 1 .1 1.2-.3.3-.4.5-.8.6-1.4H.8L1-3h2.2v-.3c0-.5-.1-.7-.3-1-.2-.4-.5-.5-.9-.5h-.6l-.6.5-.2-.8.7-.2.7-.2c.8 0 1.3.2 1.6.6.4.4.5 1 .5 1.6-.1.4-.1.8-.2 1.3.1.4-.2.7-.4 1-.2.4-.5.6-.9.8-.3.2-.8.3-1.3.3Zm0 0"/>  <path id="f" d="m-.5 0 2.9-3.8L1-7h1.1L3-4.4l2-2.7h1.1L3.4-3.7 4.7 0h-.9l-1-3L.5 0Zm0 0"/>  <path id="e" d="M2.3 0c-.7 0-1 0-1.4-.3-.3-.5-.4-1-.4-1.5L.6-3l.5-1c.2-.5.5-.7.9-.9a2 2 0 0 1 .9-.2c.6 0 .9 0 1.1.1l.4.7v-.3c0-.8-.1-1.4-.3-1.8C3.9-6.8 3.5-7 3-7h-.5l-.5.4-.2-.9.6-.1.8-.1c.7 0 1.2.3 1.6.8.2.5.5 1.3.5 2.3l-.1 1.2c0 .5-.2 1-.4 1.4a5 5 0 0 1-.5 1 3 3 0 0 1-1 .8c-.1.2-.5.3-.9.3Zm0-.5c.4-.1.7-.3 1-.5l.5-1a6 6 0 0 0 .5-1.3 2 2 0 0 0-.5-.8c-.2-.2-.4-.4-.8-.4-.3 0-.5.2-.8.5-.2.1-.5.4-.6 1-.2.1-.2.6-.2 1 0 .5 0 .8.2 1.1.1 0 .4.2.7.2Zm0-.1"/>  <path id="d" d="m.3 0 1.1-5.4h.9L1.8-3h2.5l.5-2.4h.9L4.6 0h-1l.7-2.4H1.7L1.2 0Zm0 0"/>  <path id="c" d="m-.2 2.4 1.6-7.8h.7v1l.7-.6c.3-.3.7-.5 1-.5.5 0 .8.2 1 .5.5.3.6.8.6 1.4-.1.5-.1 1-.3 1.4L4.6-1l-.8.8a2 2 0 0 1-1.1.3C2.3 0 2 0 1.8-.2a2 2 0 0 1-.5-.6v.4L1 .1.7 2.4Zm2.8-3c.4 0 .5-.1.7-.4.3 0 .5-.3.7-.6a4 4 0 0 0 .3-1 5 5 0 0 0 .1-.9c0-.9-.3-1.2-.9-1.2-.2 0-.4 0-.5.2l-.8.7-.4 1c-.2.3-.2.7-.2 1.1 0 .3 0 .6.2.8.2.2.5.3.8.3Zm0 0"/>  <path id="b" d="M2.5 0C1.9 0 1.4 0 1-.4.7-.8.5-1.3.5-2l.1-1.2a4 4 0 0 1 .5-1.1c.3-.3.5-.7.9-.8.3-.2.7-.3 1.2-.3.6 0 1 .2 1.4.4.4.5.6 1.1.6 1.6L5-2a4 4 0 0 1-.5.9c-.2.5-.5.8-.8 1L2.5 0Zm0-.6c.5-.1.6-.1 1-.4.1-.2.3-.5.5-1 .2-.3.3-.8.3-1.4L4.2-4a1 1 0 0 0-.4-.5l-.6-.2c-.4 0-.7.1-1 .4-.2.2-.5.6-.6 1A4 4 0 0 0 1.4-2c0 .5 0 .8.3 1 .2.2.5.3.8.3Zm0-.1"/>  <path id="a" d="m-.8 1.9.5-2.7h.5l1-1.4a24.6 24.6 0 0 0 1.5-3.4L3.3-7h3L4.8-.8h1l-.6 2.7h-.8L4.8 0H.4L0 1.9Zm2-2.7H4l1.2-5.5H4L3.5-5A26 26 0 0 1 2-2L1.2-.8Zm0 0"/>  <path d="M1 0v-7.1h4V0Zm.4-.5h3.1v-6.1h-3Zm.1 0"/> </defs> <image xlink:href="svg/7/9_2.jpg" width="497" height="279"/> <path d="m245 189.6.5-2.6h.5l1-1.4a24.6 24.6 0 0 0 1.5-3.4l.5-1.6h3.1l-1.5 6.4h1l-.6 2.6h-.8l.4-1.8h-4.4l-.4 1.8zm2-2.6h2.8l1.2-5.6h-1.2l-.5 1.3a26 26 0 0 1-1.5 3l-.8 1.3zm7.6.8c-.6 0-1.1-.1-1.6-.5-.2-.4-.4-.9-.4-1.5l.1-1.2a4 4 0 0 1 .5-1.2l.9-.8c.3-.2.7-.3 1.2-.3.6 0 1 .2 1.4.7.4.3.6.8.6 1.4l-.3 1.2a4 4 0 0 1-.4 1.1c-.2.4-.6.6-.8.8l-1.2.3zm0-.7c.4 0 .6-.1 1-.3l.4-1c.3-.4.4-1 .4-1.5l-.1-.6a1 1 0 0 0-.4-.5l-.6-.1c-.4-.1-.7-.1-1 .3-.3.3-.5.6-.6 1a4 4 0 0 0-.2 1.4c0 .4 0 .8.3 1 .2.2.5.2.8.2zm2.9 3.1 1.7-7.8h.7l-.2 1 1-.8c.2-.2.5-.3.9-.3s.8.2 1 .5c.4.2.4.7.4 1.2 0 .6 0 1.1-.2 1.5 0 .5-.2.9-.5 1.2-.2.4-.5.7-.8.9a2 2 0 0 1-1 .3c-.5 0-.8-.1-1.1-.3a2 2 0 0 1-.4-.7v.5l-.2.5-.4 2.3zm2.9-3c.2-.1.5-.2.6-.4l.7-.6a4 4 0 0 0 .3-1 5 5 0 0 0 .1-1c0-.9-.3-1.2-.8-1.2-.3 0-.5.1-.7.3l-.6.6-.5 1.1-.2 1.1c0 .3.1.5.3.7.1.2.4.3.8.3zm3.4.6 1.1-5.4h1.1l-.8 2.2h2.8l.3-2.2h1l-1.3 5.4h-.8l.5-2.4h-2.5l-.5 2.4zm8.2 0c-.6 0-1-.1-1.5-.5-.3-.4-.5-.9-.5-1.5 0-.4 0-.8.2-1.2a4 4 0 0 1 .5-1.2l.8-.8 1.2-.3c.6 0 1.1.2 1.5.7.3.3.5.8.5 1.4 0 .4 0 .8-.2 1.2a4 4 0 0 1-.5 1.1c-.2.4-.5.6-.8.8-.3.2-.7.3-1.2.3zm0-.7c.5 0 .8-.1 1-.3l.5-1 .3-1.5-.1-.6a1 1 0 0 0-.4-.5l-.6-.1c-.4-.1-.7-.1-1 .3l-.5 1a4 4 0 0 0-.2 1.4c0 .4 0 .8.2 1 .2.2.5.2.9.2zm5.4.8c-.6 0-1-.2-1.3-.6-.3-.3-.5-.8-.5-1.3l.2-1.2.5-1.1c.2-.3.4-.6.7-.8a2 2 0 0 1 1-.3c.5 0 .8.1 1.1.4l.3.5v-.3c.2-.8.2-1.4-.1-1.8-.3-.4-.6-.6-1.1-.6h-.5l-.5.2-.2-.6.6-.2.7-.2c.8 0 1.3.3 1.7.9.3.5.5 1.1.5 2.1 0 .5 0 1-.2 1.4 0 .4-.1.9-.3 1.3a5 5 0 0 1-.6 1 3 3 0 0 1-.8 1l-1.2.2zm.1-.9c.3.1.6 0 .9-.3l.6-1a6 6 0 0 0 .4-1.3 2 2 0 0 0-.4-.8c-.2-.2-.5-.3-.8-.3-.2 0-.6.1-.8.4-.4.2-.5.5-.6 1-.2.3-.3.6-.3 1.1l.3 1c.1.2.2.2.7.2zm0 .1" style="fill:none;stroke:#fff;stroke-width:3;stroke-linecap:butt;stroke-linejoin:round;stroke-miterlimit:10;stroke-opacity:.6" transform="rotate(  340 263.631 112.647) translate(0,-72.114407)"/> <g style="fill:#7d577d;fill-opacity:1" transform=" rotate(  340 263.631 112.647) ">  <use xlink:href="#a" x="245.8" y="115.6"/>  <use xlink:href="#b" x="252.1" y="115.6"/>  <use xlink:href="#c" x="257.7" y="115.6"/>  <use xlink:href="#d" x="263.5" y="115.6"/>  <use xlink:href="#b" x="269.5" y="115.6"/>  <use xlink:href="#e" x="275.2" y="115.6"/> </g> <path d="m59.4 230.5 3-3.8-1.4-3.3h.9L63 226l2-2.6h1l-2.7 3.4 1.4 3.7h-1l-1-3-2.3 2.9Zm7.1.1h-.7l-.5-.3v-.7l.6.2h.6c.5.1 1 .1 1.2-.3.3-.4.5-.8.6-1.4H66l.2-.7h2.2v-.2c0-.5-.1-.8-.3-1-.1-.4-.5-.5-.9-.5h-.6l-.6.5-.2-.8.6-.2 1-.2c.6 0 .9.2 1.3.6.4.4.6 1 .6 1.6 0 .4 0 .8-.3 1.3.1.4 0 .7-.3 1-.2.5-.5.6-.9.8-.3.2-.8.3-1.3.3zm3.5-.1 1.3-5.4h.8l-.5 2.3h2.5l.5-2.4h.9l-1.1 5.5h-1l.6-2.4h-2.5l-.6 2.4Zm6 0 1.3-5.4h.7v1l.3-.5.6-.4.7-.2c.4 0 .6.2.8.4.2.2.4.5.4.8l.5-.5.6-.5.8-.2c.3 0 .7.2 1 .4.1.2.3.5.3 1v.4l-.2.4-.6 3.3h-1l.8-3.4v-.3l.2-.5c-.1-.1-.1-.2-.3-.3.1-.2-.2-.2-.5-.2-.2 0-.4 0-.7.2l-.6.8c-.3.2-.4.7-.5 1.2l-.6 2.5h-1l1-3.4V226c-.4-.2-.5-.2-.8-.2-.1 0-.2 0-.6.2l-.6.8-.6 1.4-.4 2.3zm10.4.1c-.4 0-.7-.1-1-.3-.2-.3-.3-.6-.3-1v-.5l.1-.4.7-3.3h.9l-.8 3.4v1.2l.7.2c.2 0 .5-.1.7-.3.3-.1.6-.4.7-.6.3-.5.5-1 .6-1.5l.5-2.5h.8l-1 5.5h-.8v-1c0 .2-.2.3-.4.5l-.6.4-.8.2zm7.6-6.2c-.7 0-1 0-1.4-.3-.1-.1-.3-.5-.3-.9a1 1 0 0 1 0-.2h1v.2l-.1.4c.2.2.5.2.8.2.3 0 .6 0 .8-.2.2-.1.2-.3.4-.6h.8c0 .4-.3.7-.6 1-.4.3-.8.4-1.5.4zm-1.9 6.2c-.3 0-.6-.1-.9-.3-.2-.3-.2-.6-.2-1v-.9l.8-3.3h.8l-.7 3.4-.1.7.1.5.6.2.7-.3c.3-.1.5-.4.8-.6.2-.5.3-1 .5-1.5l.5-2.5h.8l-1.1 5.5H94v-1c0 .2-.2.3-.4.5l-.6.4-.8.2zm.1 0" style="fill:none;stroke:#fff;stroke-width:3;stroke-linecap:butt;stroke-linejoin:round;stroke-miterlimit:10;stroke-opacity:.6" transform=" rotate(  340 77.7653 227.501) "/> <g style="fill:#7d577d;fill-opacity:1" transform=" rotate(  340 77.7653 227.501) ">  <use xlink:href="#f" x="59.9" y="230.5"/>  <use xlink:href="#g" x="65.2" y="230.5"/>  <use xlink:href="#d" x="69.8" y="230.5"/>  <use xlink:href="#h" x="75.8" y="230.5"/>  <use xlink:href="#i" x="84.5" y="230.5"/>  <use xlink:href="#j" x="90.3" y="230.5"/> </g> <path d="M3.7 2A1.7 1.7 0 1 1 .3 2a1.7 1.7 0 0 1 3.4 0zm0 0" style="fill:#fdfdfa;fill-opacity:1;fill-rule:nonzero;stroke:#575747;stroke-width:.5;stroke-linecap:butt;stroke-linejoin:miter;stroke-miterlimit:4;stroke-opacity:1" transform="translate(423.93802,86.668211)"/> <path d="M410.6 78.5h.7v-.7h1.6v.7h.7v-.7h1.8V77h-1.8v-.7h-.6v.8h-1.7v-.8h-.7v.8h-1.7v.7h1.7zm-2.2 1.7-1.6-1-.4.6a9 9 0 0 1 1.5 1zm-1.1 5 1.3-3-.3-.6-1.7 3.1zm-.4-8.2 1.5 1.1.4-.5c-.3-.3-1-.8-1.5-1zm4.7 3.4v-1h1.2v1zm3.8-1v-.6H409v.6h2v1h-1.9v5h.9V81h.9c.1 1.2-.2 2-.9 2.7.1 0 .3.3.4.3.4-.3.7-1 .9-1.5l.5.8.4-.5a6 6 0 0 0-.7-1V81h1.3c-.1 1.2-.5 2.2-1.1 3l.5.2c.4-.4.7-.9.8-1.7l.8 1.2.5-.3a8.3 8.3 0 0 0-1-1.6V81h1.1v3.7l-.1.2h-1.1l.2.5 1.4-.1c.2-.1.2-.3.2-.6v-4.3h-1.6v-1zm3.6 2.4c.5-.6.7-1.7.8-2.5l-.5-.3c-.3 1-.4 2-.8 2.5zm-.2-4.4-1.6-1-.4.5 1.6 1.1zm-.3 2.6a11.8 11.8 0 0 0-1.7-1l-.4.7 1.6.9zm-1.3 5.3c.5-.9 1-2.1 1.3-3.2l-.5-.4-1.4 3.3zm2.9-5.3c-.1 1.8-.2 3.6-1.4 5l.6.4c1.3-1.4 1.5-3.4 1.5-5.4v-3.5h-.8zm.7-.5.7 2.1.5-.2a9.5 9.5 0 0 0-.7-2.1zm3.5-3v4.7a10.2 10.2 0 0 0-1-2h-.3v-2.4h-.8v8.4h.7v-5.8l1 2.3.3-.3v4h.9v-8.9zm3.9 2.7h2.4v1.3h-2.4zm0-1.8h2.4v1.2h-2.4zm5.6 1.2h-2.5v-1.2h2.4Zm0 2h-2.5v-1.5h2.4Zm-2.4 3.7V83h3.4v-.7h-3.4v-1.1h3.1v-4.5h-7v4.5h3v1.1h-3.2v.7h3.3v1.4h-4v.8h8.7v-.8zm14-5.9v-.7h-4.1v-1.4h-.8v1.4h-4v.7h4v1.4h-3v4.4h.7v-3.7h2.3v5h.8v-5h2.4v2.8l-.2.1h-1.4l.2.8c.9 0 1.4 0 1.8-.2.3 0 .4-.3.4-.7v-3.5h-3.2v-1.4zm0 0" style="fill:none;stroke:#fff;stroke-width:3;stroke-linecap:butt;stroke-linejoin:round;stroke-miterlimit:10;stroke-opacity:.6" transform=" rotate(  340 427.688 88.668) "/> <g style="fill:#212121;fill-opacity:1" transform=" rotate(  340 427.688 88.668) ">  <use xlink:href="#k" x="405.9" y="84.7"/>  <use xlink:href="#l" x="415.9" y="84.7"/>  <use xlink:href="#m" x="425.9" y="84.7"/>  <use xlink:href="#n" x="435.9" y="84.7"/> </g> <path d="M3.7 2C3.7 3 3 3.7 2 3.7A1.7 1.7 0 1 1 3.7 2zm0 0" style="fill:#fdfdfa;fill-opacity:1;fill-rule:nonzero;stroke:#575747;stroke-width:.5;stroke-linecap:butt;stroke-linejoin:miter;stroke-miterlimit:4;stroke-opacity:1" transform="translate(392.67636,156.47019)"/> <path d="M379.7 164.8H378v-1h-.8v.9h-1.9v.7h4.4zm-1.1 2.2.4-1.4-.5-.2-.5 1.4zm-1.7-.2c.1-.4-.2-1-.4-1.4l-.6.2c.2.4.4 1 .4 1.4zm2.6 4-1.6-1.2v-.3h1.8v-.6H378v-1h1.9v-.7h-4.8v.6h2.1v1.1h-2v.6h1.8c-.5.9-1.3 1.8-2 2.3l.5.4a8.2 8.2 0 0 0 1.7-1.8v2.6h.7v-2.5l1.1 1zm4.7-3.7H381v-1.8a16 16 0 0 0 3-1l-.5-.4a14 14 0 0 1-2.8.8l-.5-.2v3.5c0 1.4-.2 3-1.4 4.4l.5.5c1.4-1.4 1.6-3.4 1.6-4.9v-.2h1.5v5h.6v-5h1.2zm5-2.1v2.8h-2.5V165zm3.3 2.8H390V165h2.5zm-4.5 4.1c-1 .1-1.3-.2-1.3-.9v-2.4h5.8v.4h.7v-4.7H386v6.6c0 1.4.5 1.7 2 1.7h4.1c1.5 0 1.8-.5 1.9-2l-.6-.5c-.2 1.5-.4 1.9-1.4 1.9zm9.3-3.9c-.3 1-1.2 2.1-2 2.8l.5.6c.9-.8 1.8-2 2.3-3.4zm5.8-1.9a6.7 6.7 0 0 1-.9 1.6l.8.2c.3-.5.9-1.5 1.2-2.3l-.6-.2h-5.9l.7-1.4-.8-.3c-.5 1.5-1.5 3-2.5 4l.7.3 1.5-1.9h2v5.9H397.6l.4.8 1.7-.1c.3-.1.3-.3.3-.8v-5.7zm-1.7 2.1 2 3.3.6-.5c-.3-.8-1.2-2-1.9-3zM408.4 170.1c0 .7-.4 1.7-2 2.3l.5.5c1.9-.9 2.2-1.9 2.2-2.9v-.6h-.7zm2.2-1.6c-.6 0-.7-.1-.7-.5v-.3l2.5-.2v-.6l-2.5.3v-.8h3.1l-.2.8.6.3c.2-.5.6-1 .6-1.6l-.5-.2h-3.6v-.5h3.4v-.7H410v-.8h-.8v2H406v2.5c0 1.2 0 2.9-1 4.2l.8.4c.8-1.3 1-3.3 1-4.7v-1.7h2.3v.9l-1.9.1v.6l2-.2v.3c0 .9.3 1 1.4 1h2.2c.8-.1 1-.3 1.1-1.2l-.6-.2c0 .7-.1.8-.6.8zm1.2 3.5c-.4 0-.4 0-.4-.3v-2.3h-.8v2.3c0 .7.4 1 1.1 1h1.4c.7-.1 1-.5 1-1.7-.1 0-.5 0-.6-.3 0 1.1-.1 1.3-.5 1.3zm-19.3 10.1v2.7h-4.4V182zm1.5-2.6v-.7h-4.9l.5-1.8-.8-.1-.5 1.9h-3v.7h2.7c-.6 1.5-1.6 3-3 4l.5.6a8.7 8.7 0 0 0 1.9-1.8v3.7h.6v-.5h4.5v.5h.8v-4.6h-5.4l1.1-2zm6.8 3.3h1.8v.8h-1.8zm1.8-2.5v.7h-1.8v-.7zm-1.8 1.3h1.8v.7h-1.8zm-1.8 2v.6h5.3v-.6h-1v-3.3h.8v-.6h-.8v-.7h-.7v.7h-1.8v-.7h-.8v.7h-.8v.6h.9v3.3zm-.2-3H397v-1.5h1.7l.6.5.7-1h4.2v-.6h-3.9l.4-1h-.7a5.4 5.4 0 0 1-1 2v-.6h-1.5V177h-.7v1.5h-1.7v.7h1.2v1.8c0 1.4-.1 3-1.3 4.6a4 4 0 0 1 .5.5c1.3-1.5 1.5-3.3 1.5-4.9h1c0 2.8 0 3.8-.1 4-.1.2-.3.2-.4.2h-.8c.3 0 .3.3.3.6h1s.1 0 .3-.3c.3-.4.4-1.5.5-4.8zm1.8 3.6c-.4.5-1.2 1.1-1.8 1.4l.4.4c.8-.3 1.5-.9 2-1.4zm1.4.4 1.8 1.5.5-.4c-.3-.4-1-1-1.6-1.4zm.1 0" style="fill:none;stroke:#fff;stroke-width:3;stroke-linecap:butt;stroke-linejoin:round;stroke-miterlimit:10;stroke-opacity:.6" transform=" rotate(  340 396.426 158.469) "/> <g style="fill:#212121;fill-opacity:1" transform=" rotate(  340 396.426 158.469) ">  <use xlink:href="#o" x="374.7" y="172.1"/>  <use xlink:href="#p" x="384.7" y="172.1"/>  <use xlink:href="#q" x="394.7" y="172.1"/>  <use xlink:href="#r" x="404.7" y="172.1"/>  <use xlink:href="#s" x="384.7" y="185.3"/>  <use xlink:href="#t" x="394.7" y="185.3"/> </g> <path d="M3.7 2A1.7 1.7 0 1 1 .2 2a1.7 1.7 0 0 1 3.5 0zm0 0" style="fill:#fdfdfa;fill-opacity:1;fill-rule:nonzero;stroke:#575747;stroke-width:.5;stroke-linecap:butt;stroke-linejoin:miter;stroke-miterlimit:4;stroke-opacity:1" transform="translate(279.00131,201.39429)"/> <path d="M260.2 215h-.9v-2.8l-1 .3H257c-.6.1-1.1.1-1.5-.3-.3-.4-.5-.8-.5-1.4v-2.9h.9v2.8c0 .3 0 .6.3.8.2.2.5.3 1 .3l1-.1c.4 0 .8-.2 1.1-.3v-3.5h1zm6.5-2.6c0 .9-.2 1.6-.7 2-.4.6-1 .8-1.8.8-.5 0-1-.2-1.3-.3l-.9-1c-.2-.4-.3-1-.3-1.5 0-.9.3-1.6.7-2 .4-.6 1-.9 1.8-.9.5.1 1 .2 1.3.5l.9 1c.2.3.3.8.3 1.4zm-4 0c-.1.6-.1 1.1.3 1.5.3.4.6.5 1.2.5.5 0 1-.1 1.2-.4.2-.5.4-1 .4-1.6s-.2-1.1-.4-1.5c-.4-.4-.7-.5-1.2-.5-.6 0-1 .1-1.2.5-.3.4-.4.9-.4 1.5zM272.4 207.5c0 .5-.2.9-.4 1.1-.4.4-.8.4-1.5.4-.5 0-1.1 0-1.4-.4-.1-.2-.4-.6-.4-1.1h.8c0 .4.1.6.3.7l.7.2c.3 0 .6 0 .8-.2.1-.1.3-.4.3-.7zm-3.4 2.2v4.5l2.6-4.5h1.1v5.4h-.7v-4.5l-2.8 4.4H268v-5.3zm5.2 2.2c0-1.2.2-2.1.5-2.9.4-.6 1-.9 1.8-1l1.2-.4 1.3-.2v.8l-.8.1a31.4 31.4 0 0 0-1.6.3c-.4.1-.6.4-1 .7-.2.3-.4.9-.4 1.6l.4-.3.6-.4a2 2 0 0 1 .8-.1c.7-.1 1.2.2 1.6.7.3.4.4 1 .4 1.7.1.6 0 1-.2 1.5-.2.4-.5.7-.9.9-.3.1-.8.3-1.2.3-.8 0-1.4-.3-1.8-.9-.5-.5-.7-1.3-.7-2.3zm2.5 2.5c.5 0 .8 0 1-.4.3-.3.6-.7.6-1.4-.1-.6-.3-1-.4-1.3-.2-.3-.6-.5-1-.5-.3 0-.6 0-.9.2l-.6.4-.3.6v.9l.4.7.5.6c.1.2.4.2.7.2zm5.8-4.8c.7 0 1.2.2 1.5.5.3.2.4.7.4 1.3v3.7h-.6l-.2-.8-.8.7-1 .2c-.5 0-.9-.2-1.2-.4-.3-.3-.6-.8-.6-1.2s.3-1 .7-1.2c.4-.4 1.1-.5 2-.5h.9v-.5c0-.3-.1-.6-.3-.8-.3-.2-.5-.3-.8-.3-.3 0-.6 0-.8.2l-.7.2-.3-.6c.2-.1.5-.3.8-.3l1-.2zm1 2.8h-.6c-.9.2-1.3.3-1.5.5-.4.1-.4.4-.4.7 0 .3.1.4.3.7l.7.2c.4 0 .8-.2 1-.5.4-.2.6-.5.6-1.1zM290.2 215h-.9v-4.5h-1.6c0 1.1-.2 1.9-.4 2.7-.1.7-.3 1.2-.6 1.5-.2.3-.5.3-1 .3h-.3v-.6h.2c.3 0 .6-.3.9-1l.5-3.8h3.2zm3.8.2c-.4 0-.9-.2-1.2-.3-.4-.2-.8-.5-1-1l-.1-1.4c-.1-.7-.1-1.3.2-1.7.2-.4.5-.7.9-.8.4-.3.8-.4 1.3-.4l.8.1.6.2-.3.7-.5-.1-.7-.1c-1 0-1.5.6-1.5 2 0 .7.1 1.2.4 1.6.1.2.6.4 1.1.4h.8l.6-.4v1a2 2 0 0 1-.6 0h-.8zm4.7-5.6c.7 0 1.1.2 1.5.5.3.2.4.7.4 1.3v3.7h-.6l-.2-.8-.8.7-1 .2c-.5 0-1-.2-1.2-.4-.4-.3-.5-.8-.5-1.2s.2-1 .6-1.2c.4-.4 1.1-.5 2.1-.5h.8v-.5c0-.3-.1-.6-.3-.8-.2-.2-.5-.3-.8-.3-.3 0-.7 0-.8.2l-.9.2v-.6c0-.1.4-.3.7-.3l1-.2zm1 2.8h-.7c-.7.2-1.2.3-1.4.5-.3.1-.4.4-.4.7 0 .3 0 .4.3.7l.7.2c.4 0 .8-.2 1.1-.5.3-.2.5-.5.5-1.1zm3.5-2.7v2.3h2.8v-2.3h1v5.4h-1v-2.4h-2.7v2.3h-1.1v-5.3zm0 0" style="fill:none;stroke:#fff;stroke-width:3;stroke-linecap:butt;stroke-linejoin:round;stroke-miterlimit:10;stroke-opacity:.6" transform=" rotate(  340 282.75 203.395) "/> <g style="fill:#212121;fill-opacity:1" transform=" rotate(  340 282.75 203.395) ">  <use xlink:href="#u" x="254.2" y="215.1"/>  <use xlink:href="#v" x="261.2" y="215.1"/>  <use xlink:href="#w" x="267.2" y="215.1"/>  <use xlink:href="#x" x="273.7" y="215.1"/>  <use xlink:href="#y" x="279.6" y="215.1"/>  <use xlink:href="#z" x="285.3" y="215.1"/>  <use xlink:href="#A" x="291" y="215.1"/>  <use xlink:href="#y" x="295.8" y="215.1"/>  <use xlink:href="#B" x="301.4" y="215.1"/> </g></svg>