<svg xmlns="http://www.w3.org/2000/svg" viewBox="0 0 497 279"  xmlns:v="https://vecta.io/nano"><path fill="#f2efe9" d="M0 0h497v279H0z"/><g fill="#aad3df" fill-rule="evenodd"><path d="M50.4 418.5h114.8l.2-.5.6.4h.4l.4-.4h.3l-.2-.3.3-.5v-.4l.1-.6-.3-.5-.8.1.1-.1-.2-.3-.1.2v-.3h-.4l-.7.1-.2-.1-.3.3h.2l-.6.9v-.3l-.3.2.3-.2-.5-.2h.8v-.4l-.3.2-.5-.1-.2.3v-.2l.1-.1h.4l.2-.3h.4l-1.1-.7-.6.3h.2l.2-.1v.1h-.6v-.1l-.5-.5.5-.3-.4.1-.6-.2.9-.2.2-.2-.1-.4.5-.2-.1-.5-.7-.3.2-.5 1-.7.1-.4-.3-.2.9-.7.6 1.6v.7h.5l-.6.4.2.4h.5v-.3l.5.3 1-.5.2.3h.3l.1.3.2-.2v.2l.4-.5.4.4.3-.2.2.7.1.2.4-.5.1.6.8-.6h.7l.2.4.4.2-.6 1.4 1.5.6 1.5-1.7h.6l1.7.9.7-.8-.5-.4.2-.6-.5-1 .5-.6v-.4l-.4-.2.2-.2-.5-.4-.4.2-.9-1.4.3-.4h.3l1.7.6h.4l-.3 1.1.5.2v.5h.6l.3.8.6.2v.4l.7.2.4.8 1 .4 1.3.9.3 1 .2.2.6-.3.3.7.4.3.7-.9-.7-.6.2-.7-.2-.4.3-.4-.6-.3-.3-.6-.4-1.3.3-.6-.2-.1.8-.4-.4-.5h-.3l.3-.4-.8-.4-.4-.7-.7-.4.6-.8-.3-1.3.8-1.8.4-.3 1-.2-.2-.5-.6-.4-.2-.4 1.6.4.1.2-.3.9.7 1.3-.2 1.7h.6v-.7l.4.2.8.8v.2l-.5-.1-.3.3 1.1 1.5 1.2.4-.2.3.3.4.5-.3-.5-.4 1.2-.1-.2-.5h.3v-.3l-.5-.2-.5-.4.2-.3h.3v-.3h-.1l-.4-.8.1-.1-.7-.3.1-.2-.4-.2.3-.1.7.2.3-.7h.5V279H50.4zm112-2h-.2v.3-.5h.4zm.3-1l.3.3-.3.2h-.5l.3-.4-.1-.1zm0 .1"/><path d="M189.9 405h.3v-.4h.6l.2-.6-.6-.5.6-.5-.5-.7.2-.1.5.4.4-.3.4.3.5 1.4.8.4.5 1h.4l.3-.1.2-.8.8.5.2.2-.1.3-.7.4.4.5-.4.4.2.2h.3l.4-.6.9-.1.5.2-.8 1.5h.5l.6-.6.3.4h-.5l-.5 1.1.4.1-1 .3-.9-.1-.3.3h-.5l.7.2-.2.3-1.4.5-.2.8-.9.5-.2.4 1 .6-.3.4.3.1-.3 1.8.3.2-.1.2h.2l.1-.5.9-.5 1.6-.2.3-.8.2-.1-.5-.4h-.7l-.4.4-.3-.3-.3.2.1-.3-.2-.4h.9l-.2.2.3.2v-.4l.5-.3.4.2v.3h.1v-.6l.8.3.2.3-.2.6 1.8-1.7.3 1.2-.2.2.4 1.1.1 1-.2.8.2 1 .6.7v.6h.2l-.1.3h.7l-.1-.3-.5-.5.4-.4v-.4h.3l.2-1h-.4l-.3.2-.6-1 .2-.2h.7l.3-.7h.3l.4-.6.1-1.1.3-.3.7.1v.6l.2.5h.8l.6-.5h.7v.5l.6-.2.2-.5.5-.1.1-.3-.2-.5h-.8l-.8-.2-.6-1.7-.7-.9v-.4h-.2l-.5-.9-.8-.2.5-.6h.6l.4-.2h.2v-.6l-.8-.1v-.9l1.2-.1v-.4l-1.7.3h-1.1l.1-.4h.5l.7-.6h-.7l-.5-.4.2-.8-.2-.6.5-.2.4-1.1-.3-.3-1.2 1.7-.3-.3h-.4l-.2-.5h-.3v-.5h-.5l.4-.2.1.2v-.5l-.2-.5v-.4l-.5-.4v-.2l.3-.7h.3v-.5l.3.2.1-.3h.3v-.6l.5-.2.4-.2 1 .3v-.2l-.2-.4 1-.7-.1-.2.6.2.3-.3h.4l.3-.4.4-.1.5.3v.8l-.3 1-.5.3-.3 1-.4.1h.7l.4.8-.1 1 .5.3.4-1.1v-.8l.4-.9 1.3 1 .2.6h.3l.4.3-.1.8-1.3 1-.2 1.1.6.2 1-1.5v1h.4l.7-.9h2.4v.7l-.3.3v.2h.4l-.5 1h.2l-.3.6h.3l-.5.4-.7.2.3.6-1.8 1.3v.5l1.2.1 1.2-.5.5.5.2.8-.1.7.1.2h.3l-.2.1v1.1h.5v.6l.3.1.2-.2h.6l1-.4.2 1.2.6.8v-1l-.6-.9h-.1l.3-.2-.3-.9.3-.1-.3-.4.3-.3-.6-.3v-.3h-.4v-.5l.2-.3.3.6.7-.6-.3-.2v-.4l.9.4h.4l.8.3.4-.2-.1-.4-1.4-.7v-.3l.1-.1.2.1.5-.3.2-1.5-.6-1 .4-.7.3-.5h.2l.3-.1v.2l.4-.1.1.2.4-.4.6 1 .7.4v.3l-.3-.2v.2l2.2 1-.5-.8h-.7l-.1-.2h-.4l-.3-.6h.2l-.4-.7-.1-.4.7-.7.3-1.6.5-.2.7.8.4.2.1-.3.5.6h1l.3-.2h-.2l-.2-.3-.6-.7-.8.3h-.5l.3-.2-.4-.2.3-.5-.3-.3-1.4-.5.2-.3-.4-1h.8v.2h.1l.5-.4v-.5l-1.2-.2-.5.3-.7-.1.1-.2.1.2-.4-.8.1-.2-.6-.1v-.6l-.4-.2-.7-.2v-.4l-.1-.4-1.1-.2-.4-.4v-.5l.6-.1.2-.5h1v-.5l.3-.7 2 1.9h.5v-.6l-1-.7.4-.1-.4-1.2-.4-.3h-1l-.1-.4v-.3l.7-.7.7.7 1 .3.4.7h.8l.7.9.2-.3v.4l.4.2.2.7.4.3.2.5 1 1.1h.3l-.5-1.4.6-.2-.4-.8.2-1-.8-1.2v-.2l-.6-1 .3-.2v-.6l.5-.2.4 1 .6.8.4.2.4 1.5.7 1.3v.9l.8-.1 1 2.7h.4l.7.9h.3l-.8-2.6v-.6l.7-.3.8 1 .5-.4.5-.7-.5-.9-1-.3-.3-.3.4-1.5h1l-.1-.2-.5-.1.3-.6-.5-.6v-.6l-.9-.9.9-.1v-.3l.5-.2v-.3l-.6-.4v-.5l-.1-.2v-.8l.7-.4-.3-.8.2-.2v-.4l.1-.2-.5-.9.5-.2.2.2-.1.4.3.2v.7l1 1 .1.6h.7v.5l.6-.3.4.5-.1 1h-.6l-.2.5.4.9h.5l.3-.1h.2l.8-.2.7.2.7-.2v-.2h.5l-1.1 1.6.4.5h.8v.5h.5l.5-.2-.1.7-1.7-.2-.4.3.8.2 1.2 1.2h.7l1 .6-.6 1 .9.7-.3.3.2.4-.2.3h-1l-2.9-1.1-.3-.3v-.6l-.3-.1-.4 1-1 .4-.2-.1v.5l.3.3 1 .2 2.1 1 .5.8v.4l-.3.4h-.6l-1.6-.8-.4.2-.4.9.8.6-.4.8.2 1.6-.6.8-1 .3-.5.8-.2-.4.2-.5-.4-.4-.3-1h-.4l-.7-1.3-.3-.1v1l-.4.1.7 1.5-.2 1.8.3.6v.5l.4.3-.4 1h-.7l-.4-.2-.5-1.2h-.2l-.6.2.2.9-.2 1.3-.5.2-.6-.4h-.8l.4.3-.1.3.2.5 1.1.7.2.5-.2.7-1.2.8h-.4l-.5-1.1-.3-.1-.2.2v.7l-.5.3-1.3-1.4-.5-1.2-.4-.4v-.6h-.3l-.2.8.1 1.5-.4.3-.4-.2-.1.2.5 1h.8l.2.4-1 .6v.4l-.1.4h-.9v.4l.6.5.7-.3.5.1.2-.3 1.2.3-1 .5-.2 1.4-1 1.2.4.6-.4.8-.6-.4h-1.7l-.7.6v-.2l-1.1-.4-.7.6.2.4.6-.3.4.1.1.6.5.2v.4l.7-.6 1 .2-.4 1.3H233l-.7-.8.6-.9.7-.1.5-.7.6.3-.5.2-.2.2.5-.3.8.3h1.3l.8-.4h1.3l.2.2-.5.7.3.7.8.2.4.3 1.8-.8 1-.8v.3l-.6.7v.7h3.8l1.1-1.3h.2l.2-1h-.1v-1l-.3.7h-.5v.4l-.5.3v-.2l1.3-1.4.7.3v-.5.2-.3l-.3-.4.4-.5-.1-.3h-1.6l-.2.2v.3l-.2.4h-.6l.6-.6.3-.9 1-.7 1.1-1.5h.2v.2h.1l.5-.7-.4-.4-.7-.1-.2.3h.1-.5v.5l-.3-.2.4-.7-.4-.1.2.3h-.4l-.2-.8-.4-.2-.6-1.8.2-.8-.4-.6v-.6h.4v-1.3l.4-1.5 1.1-1-.1-.5.3-.9.1-.3-.2-.3.2-.7.6-.5.6.6h.4l.3-.3.3.2.4-.5.4.5.5-.3h2.9l.5.4-.1.4h.2l-.3.7.3.2-.2.3.1.2-.4.4h.5l.3.2-.4.8.4.2-.8.4 1.2.2.2-.1-.2-.2.5-.6h-.2v-.2h1.1v.2l-.5.6h.1l-.2.5-2.5 1.7v.2l.2.2-.6 1.1 1.4-.6-.2 1.1.4-.2.2-.3-.4.2v-.2l.5-.6.5-.2v-.3l.8-1.2.5-.5 1.1.4h1.1l.3.4v.5l.8-.5.3.2v.4h.1l.2-.3-.5-.4h.7l-.1.1.3.3-.2.4.6-.3-.1.3.6.3h1.7l-.5 1 .3.7.4.1 1-.3.5.5 1.3 1.5 1.5 2.9.1.6-2.2 1.3v.1l1.4.1 1.6-.4.3 1h.3l-.1.5-.9 1.3.3.4 1-.3v.7l.2.4-.7.5v.4l.8.2v.3h5.3V417l-.2-1 .4-.7-.5-.5.4-.6.2-1v-1.7l.7-.3 1.5.3.1-.5-.4-.5-.3-1.5.5-.6.9-.2-.2-.2v-.6h.3l.7-.2v.2h.2l-.2.6.3.3.6-.9.4-.2v.2l.2-.4h-.1.2l-.2-.1v-.3l.6-.6h.3-.3.5l-.5.9-.5.9.1.2.7-.3v-.3l.3.2h.6v.4l1.1-.6.1.6-.1.3.2.1.9-.3 1.1.1v-.2h.1-.2.8l.7 1.2-.3.4.1.4-.2.5 1.5.3.2.5h.5l1.3 1.3h.3v.1l.2.3h.2l.5.3.2.6-.2.5.4 1 .6.8h.3l.5.7.3 1.1.4.4h.9l-.2-.2h.2-.2l.3.2.5-.1 1.1-1 .4-.7h.7l.3-.5.1-.7-.7-.6-.1-.4.2-.1-.2-.4.3-.5-.8-1h-.5l-.2-.7.1-.4-.4-.8h-.3l-1-1-.3-1.5-.6-.5-.6-.1v-.4h.3l-.3-.6.9-.1v-.2l.1-.2 1.1.3.2-.2 1.6.4v-.2l-1.8-.6-.3-.7-1.4-.6v-.3l-1-.7-.3.3.2.4v.6l-.5-.2-.6.3-.6-.4v-.7h1l.3-.7-1.3-.3-.9-.3-.3-.8-.6-.4 1.1-.4v-.3l-.4-.4.3-.5-.3-.2.3-.3h.5v-.5l-.2.3h-.4l.6-.7-1-.3-.7.7-.9-.2-1.4.3-2.1-.4-.2-.2h-2.1v-.4l-1.1.2.5-.6-.5-.2.5-.3h-.3l.4-.3h.4l.2-.2-2.2-.6-.4.2.1.2h-.6l.4-.7h-1.4l-1.2-.5-1.1-1 .1-1.2.3-.1-.3-.4.3-.5v-.6l.3-.5v-.4l.8-.9-.2-.7.4-.1-.4-.4-.4-.8v-.2l.3-.2-1.3-1.6-.1-.4.2-.5.6-.9 1.7-1.7.8-.4.2.2.2.5h.5l.2.4 1 .4v-.3l-.5-.4-.7-.1v-.7h-.5v-.6l1.6-2h.6l.4.2.3 1.1h.9l.4.6-.5 1.7.1 1 .4.3.8-.6.1.3.7-.2.2.6.5.2v.4l-1 .5.3.4.4-.3-.3.5v.7l-.3.2.4.5.8.3v.4l.4-.2 1.1.4.9.8h.2v-.3l.5.2.3 1 1.3 1.1.3.3.4.2.1-.4.3.1.2.5h.1l-.3.1.1.5.5.5h.4l.3.4.5-.3.2-.4.9-.8-.3-1.3.3-.8V388l-.7-.7h-.9l-1.2-.6.3-.9.8.1.1-.2-.2-.2v-.6l-.5-.4.2-.8-.4-.3-.2-1.1-.7-1.4.1-.7 1 .1.5-.2v-.4l.2-.4.6.3 1.1-.3.8.5.6-.2.7.4.5.5v.5l.2-.4-.2-.4 1.4-.6-.3-.6-1.6-1v-.3l-.2-.4-2.1-.6-3.8-1.6v-.7l1.1-.5h.5l1.4-.9h-.2l.2-.2-.4-.1h.7l.3-.3h-.7v-.2l-.5-.1-.9.3-.8-.2-.7-.8.3-.6-.4-.4.2-.2-.2-.5v-.5l.4-.7-.4-.5-.2-.2v-.5l.2-.3.2-.1 2-.1 2.9-.8-1.4-.5-1.4.1-.4.4h-.5l-.4-.4v-.3h-1.1l-.4-.6.4-.6.1-.1.5-.4 1-.2.5-.4 1-.3.2-.6.7-.5v-.5l1.1-.1 2.1.2.3.2-1 .8.3.6-.5 1.5.2.4-.2.9h.3l.2-.7.5-.6.8-1.3.4-.5.7.5.3-.5.3-.8.3-.2h1l.1-.1.3.2-.3.8.2.6-.6 1.2.1.8-.1.3.1.4.6.1.6.6-.4.2.1.6-.2.3.7.8 1.1-.3 1.4 2.8-.5.6 1.5.2-1.4.4-1.6-.2.1.2-.3.3h.2l-.3.2.3.5h.8l1-.4.4.2.3-.3 1-.5.1-.4-.3-.1 1.6-1v1l1.1 1.1h.4l.6-.4.4.1.1-.3-.5-.7-1.2-.8.2-.4h-.6l.7-.3-.1.2h.2l.4-.8 1.4-3.3v-.5l-.4-1.1.2-.5 1.1.3.3-.1v-.3h.2l.2.3.9.2 1 1.2v.6l-.6.3v.2l.7-.2.6.7v.8l-.5 1.7-.3 1.1-2.8 3.4h-.4l-.8 2-1 .7-.4 1-1.6.7-.2.2v.4l1-.1.4-.5h.6l.4-.3.5.9v.2h-.5l.4.3.4-.2.4.2.5-.2.6.4h.6l.5-.9.3.2.5 1.5.5-.2v-.6l-.6-1.3.2-1.3 1.3-1.9.1-1.2h.4l.7-.7 1.1-1.4.6.6.4-.8v-1l1.8 2.9.6.6-.3.2-.1.6.2.3.5.3.2-.8 1 .2.1.3.9 2v.7l.8 1.4.3 2.9.3.9-.2 1.2.6 3-.2.2-.6.7-.4 2.2.7.3.2-.7-.1-1 .5-.7.3-.1.4.6h.2l.8-1.7v-.8h.6l.3.1.5.7v-14.4l-.2.2-.5.3-1.4-1 .3-.8 1.3.3v.7l.6.1v-3.4l-.3-.2.2-.3-.7-2.4.2-1.6.5-1V358h-.4l-1.4-.7-.7-1v-.3l-.5-.7.2-.5-.4-.3v-.5l.7-.6 1.2-.1.9-.4-1.4-.2.3-.2-.4-.1-1.3.1-.2-.2.4-.1-.2-.2.7-.1-.3-.2.4-.4-.4-.8h.4l.8-.7h.4l1.2-.3v-1.2l-.2-.1.1-.2-.3-.2-.7.1.2-.4-.3-.4h-.9l.4-.3-.5-.5.4-.3-.4-.7v-.5h.6l1.5.8h.1v-3.7l-.6-.3h.6v-3.2h-.2l-.3-.3.3-.3.2.2v-59H190zm5 8.9l-.3.1-.3-.3.4-.2h.3zm74-27.8l-.1.2.5.8-.8.6h-.3v-.3h-.6v-.1l.4-.3v-.2l.2-.3zm24 3.7l.7-.2.2.7-.5.1zm-20.3 1.2l.2.2.3-.2.2.2-.6.4zm-.2 0h-.5v-.1l.1-.3zm-53.6 5.1l.3-.1v.3h-.1zm73.8-10.1l-.3-.2v-.6l.3.2zm35.3-.3l-.4-.4v-.6l.6-.1.4.6zm-113.2-.5l-.2-.5h-.2l-.3-1.3h-.3l.7-.5.6.5.3-.1.8.7h.2l.1-.6h1.4l.5.8v.4l.1.4-.2.4-1 .4-.4-.4-.4.2-.6-.3zm-5-5.8l.4-.4-.1.8-.8.8.2-.9zm8.5 3.4v.3h-.4l-.3-1.4-.3-.6.4.3h.3l.4.8zm31.2-11.1l.3.2.3 1.1h-1l-.8-.1v-.3h.2v-.3h.2l.4-.7zm24 10l-.1-.4.2-.3 1.3-.7.2-.4 1.5-.4 1.6-.8.9-1 .3-.4.2.3-1 1-.3.4-.9 1-2 1.6-1.6.9-.4-.3zm-22.8-2.8v.3h-.3l-.3-.2-.5-.2.8-.4zm26.1-2.1l.3.2-.6 1.5-.2.3-.6-.1.2-.2-.3-.2.3-.3-.1-.1h.3v-.7l.4-.2v-.3zM199.3 402h-.3l.5.1zm37.7 9h.4l.3 1.1-1.5.5-1.3-.3v-.3l1.1-.7zm-7.4 1.7l.4.4-.3.3-.6.1v-.5zm-17.4-2.9l-.2-.1.4-.4v.5zm32.1-2.1l-.7.7-.1-.6.5-1 .5-.5.8.7zm-45-5v-.5l.7.3v.2l-.8.3-.3-.2.2-.2zm56.5-2h.5l.4.1-.7.5-.5-.2-.1-.3h.2zM213 399v.1l-.4.1.2-.6zm-.8-3.9h.3l.5.9-.5 1.5h.2v.4l-.2-.2-.3.8-.8.3-.4-.6.4-.4-.2-.8.5-.3-.3-1h.4l.2-.5zm81.2-38.1l.6.7 2.2.6 1.4 1.5h.7l-.3-.3h1l.6.6-.3.2-.7-.2-.1.7-.7.1v-.1l-.5.1v-.2l-.5.2-.7-.2h-1.3l-2.5-1.8-.6.1-.6-.5.3-.5-.1-.3.3-.2.2-.6.7-.1zm-29.8-9.3h.2v.3h-.5v-.5zm.7-.2l.3.2-.6.2h.2zm8.9-.7h.4l-.2.5-.8.3.1-.6zm-8.6.5h-.3v-.3h.3zm-1.1 0l-.2-.5.2-.1.5.3-.1.2zm4.2-.5l.3-.2.3.1.3-.2v.3h-.5l.4.4h-.5zm1.8-.4l.5-.4h.2l-.5.5zm-2.3-.4h.6l.2.2.5.1-.4.1-.3-.2zm-4.2 0h.7l-.3.3-.1-.3zm0-.2v-.3h.6v.3zm65.9-4.1l.1.2v.1l-.7-.2zm-3.4 10.7l-.2-.1.5.1-.5.4zm-21.6-.7l-.1-.2h.2v.2zm7.4-.2h-.3v-.2h.4v.1zm2.5 8.7l-1.4.4-.8-.5.2-.6 1.1-.2.2-.3h.5v-.3l-.4-.2h-.3l-.2.3-.8-.3-.5-1.3-.5-.2.1-.5-.9-.4.5-.2.4-1.3-.1-.6.5-.5-.9-.2.3-.2.7.2.1-.3h-.2l.2-.4h.6l.4-.4.2.5-.2.7.7.3h.3v1.1l.1.2 1.2-.5.3-.5h.6l.4-.4-.2.4.7.3-.7.7.1.8-.8.5h.3l-.2.7h.3v.2l-.4-.2-.5.4v.6l-.1.1 1 .7h-.4l-.6-.2h-.4l-.1.4.5.3v-.3l.3.6-.8.1zm-43-9l.2-.4h.6l-.4.4zm32 2.3l-.2.5.4.3-.3.5.3.4-.5.5h-.5l-.5-.4-.5.3-.9-.2-.4-.4-.3-.8-1-.6-.4-.7.2-.3h-.2l-.8.1-1.2-.9-1.4-.4v-.2h.4v-.2l-.9-1h.2v-.4h.2l.8-.8v-.4l.4-.1.3-.7.5-.3-.3-.5.1-.4 1-.4h.7l.7.4.2.4.7.3-.6.7.5.3-.9.3-.2.3v.3h.4l.9-.5.6 1h.3l.1-.4.4-.4-.4-.5.4-.3.2.1v-.3l.4-.7-1.7-1.3-.5-.7-.5-.4v-.2l.4-.1v-.3l-.5-.3-.2-.6v-.3h1l.3-.6 1.4 1.1v.1l.4-.5h.6v.1l-.6.3.4.3v1.1l.2.2.6-.2v.7h.2l.1.2h.2v-.6l.3-.5h1.2l.8-.5.7.2-1 1-.5 1.4h-.8l-.2.4v.4l1.6.4.3.4-.6.2-1.3-.2-.8.8v.4l-1 .4.4.8h.4l.5.9-.2.1.5.4-.2.5-.6.4zm-40.6-2l-.6-.8v-.4l.5.2v-.5h-.5v-.4l-.4-.3 1.3-.5.3.2-.2.4.6-.2v.6h.4l-.2-.2.6-.6v1.1l.5 1.2.5.8.6-.3-1-1.3h.2l.2.1h.4l1.5.7.3-.3h-.4l-.5-.4v-.2h-.3.2v-.6h-.6l.7-.4-1.3-1 .2-.6-.5.3.2-.4h-.3l.2-.7.1.6h.5l.7-.4v-.3l.1-.2h.8v-.2l.4.5-.3.4h.3l.5.9.6-.4h.2l.4-.2 1-.2.2-.3-.6.2.3-.2v-.4l.8-.2.2.2-.4 1 1-.6-.5.8.7.8-.8.4-.5.6-1.8.5-.7.6v1.1l.5.3.6-.4.2.2.4-.2v.5h-.2l-2.5 1.3-.9-.3.1-.4h-.7l.1-.3-.1-.2-.2.2v-.3l-1.8 1-1-.1-.1-.3h-.4l.4-.1-.1-.5-.7-.3zm25 20.5l.5-.3h1.3l.3.6.4.1-.2.3h-.3l-.2-.3v-.1l-.1-.1-.6.4-.2-.4h-.5zm-1.6-1l.3-.1v.5l.3.2v.1h.1l-.3.3v-.2h-.6v-.2l-.4-.2v-.8l.6-.5zm-19.4 2h-1.3l-1.1-.8-.2-.6.4-.6-.4-.3-1.9.5-.4-.5h.3l-.2-.6h-1l.6-.1h-.5l.1-.1v-.2h.7l1.3-.8.1-.1h-.1l.3-.2v-.2l-.3.2-.2-.4-.5.4-.3-.1v-.6h.2v-.4l-1.1.3-.9-.5h-.6l-.4-.1 1-.2-.9-1.1h.9l.1-.3-.2-.1 1.2-.8v-.2h-.2l-.4-.2.7-1.1 2-.5h.8l.4.6.5-.6-.1-.2.3-.5.5-.1v-.2h-.7l-.4.5-2.2-.3-.4.3-2 .1-.2.3-1.2.1.2-.5-.3-.3.3-.4v.3h.1l.2-.3-1.1-.4-.8.1-.6-.8 1.4-.4 1.7.4.4-.4-.3-.2h.5l1 .4.4-.1v-.3l-.1.2h-.5l.2-.5-.7-.3-.3.3-.4-.2h-.4l-.3.7h-.4l.2-.2-.5-.5h.9l-.3-.3.4-.3h-.4l1.7-.3.9-.2-.6-.2h.4l-.3-.3v-.3l-.8-.4h-.5l-1.1.1h.3v-.3h.3l-.4-.3.5-.1-.3-.2.6-.5 1.5-.7h1l.7-.2h.7l.2-.4.2.2v.7l.2.3-.2.2.3.2v.3h.5v.3l.2-.3.2-.1-.3-1.2h.2l.5-.6 1.3.6.4.8h.3l.3.2v.4h-.3v.5h.1v.1l-1.5 1.5.7.6.3-.1v.4l.7-.4-.4.4.1.1.4-.4 1.5-.1.7.2 2.1.3v.5-.5h1.1l.4.5v.2h.5l.8.2-.7.6H273l-.5-.1h-.5l.2-.3-.6-.7-.6.2.4.3v.2l-.4-.2-.2.3-.5-.2v.5l.4.3.1-.3v.4l-.4.1-.4-.4v-.8l-.6.3-.2.5.4-.1-.6.6-.8.2-1-.2v.2l.5 1.2-.9 1.1v.2l-.4.2-.4.7h1l.7-.1v-.3h1.1l.5-.3h1.3l.4-.3h.5l-.1.8.9-.3 2.3.3.4 1 .3-.3.3.4-1 .7-.6-.2-.7.7 1.7.4-.1.7-.9.5h-.6l-1.1.3H271v.4h.7l.3.4h.4l-.8.4v.4l-.5.2-2.1-1.2v.2l-.6.3-.2.3.6.4-.6.7.1.2h-.2l.3.6-.2.2-1.6.5zm0 .1"/><path d="M329.4 363.8l.3-.6 1-.1 1.3 1.2-.1.7.1.2.5-.4 2.9 1 .6 1v1.2l.5.2 1.2 1.3.6.2.8.9v1.1l1.5.4.4.9-1.2 2.6h-.2l-.3-.1v.4l-1.3 1.5-1.5 1.5-.8.4-.4.6-.9.5-.2.3v.4l-.5.4-.2.5 1.2-.7h1.3l-.7 1.7.2.4.5.1v-.2l.3-.5h.4l.5-1.8 1-1v-1.1l.8-.7.1.5-.7 1.8.3 1-.2.1.5.2v-.6h-.3.3l2.6-3.9 1-.7v-.9l.7-.3v-.4l1.1-1 1.5.3 2-.6 1.3.5v1.8l-1.2.4v.4-.4l.3.5h.7l.9.8-.2.3.6.8-.2 1.1-.1.5v.6h.4l.8-1.1-.2-.5.3-.6-.3-.2V377l.7-.3.3-.5 1.5-.8 1.3-.5.7.2.8-.4h.7l-.9 1 .1.1.4.2 1.6-.6-.8.8.2.6-.6.8-.3.6-.4.5-.4.4-.4-.1-.7.4.2.6h1.5l1.3-.6 1.2-.5v.3l-.2 1.2-.8 1-1.2 1.6-1.4.7-.6.5h.4v.7l-.7.1-.4-.2-.2.2.1.2v.3h.2l-.3.4v.2l-1-.2-.7.4-.1.4.4.3-.3.7-.8 1 .3 2.1-.2.9-.5.5-.5.4-.5-.6-.3.8-.4.2-.1-.5-.7-.2-1.3 1-1.2.2-1.5.7-.2.8.2.4-.7.6.2.8-.5.4-.2.8h.5-.2l.8-.6-.4 1.4.2.3h.5l.3-.1 1.3-1.5.4-.2.3.6v1.2l.5-2.1.3-.5.5-.2v.7l-.3 1 .2 1.7-.7 1.3-.5.6-.3-.1v-2l-.6-.4-.5.2-1.9 2.3-1.2 1.1-1.2 1.7-.3.3-.6-.2-.6.1-.4 1.7h-.6l-.5.7-.2 1.1-1.3 1.2-1.2.5h-.6l-.7.2-.6-.4-.3.2-.2.5.8.7.1.3v.4l-.5.9-.6.7-.2.1h-.8v.4l.1.5.5.3-.2.3-.7.3-1.2.8.2.4 1.2-.3-1.6 2.4h32.3l-.4-1.2V416l.8-2.4 1.3-2.2V410l.4-1-.3-.8.2-.7 1.2-1.4-.2-.8-.7-.3.1-1.7.4-.5.2-.8.8-.9 1-.3.6 1-.2.6.2.2.3-.3v.3h.6v-.8l.5-1.3v-.5l.4-1.1.3-1.5.5-.8-.7-1v-.2l.7-.7 1.3-1h1.3l.7-1 1-.9-.3-1 .6-.9.4-1.2.6-.8 1-.2v-1.4l.9-1.3.7-.1.3-1.4.7-.8.4-1 1.8-2.9 1.8-1.8.6.2.3-.2-.2-.6.5-1.5.3-.2h.7v-.6l.5-1.2.7-.4v-.5l1.5-1.8 1.6-1.8.5-.4.7-1v.3l.4-.3v.5l.3.1.8-.8 1.5.2.8-1 1-.2v-.6l.7-.6.3.4.3-.3.3.3.1-.1.5.3-.3.4-.6.2-.2.2.6.4.4 1.4v.2l.2.4h.4l.2.6v1.8l-1 1.2v.5l.7.7.3-.2.4.4v1.6l-.4.2-.2 2.5-.5.6-.4.1-.8 1.7-.3.2v.5h-.5l-.2 1-.5.3h.7l.2.8-.4.5v.8l.5.1v.5l-1 .6.4.6 1.3-.9h.7l1.2-1.1h.4l-.1.9.2 1.8-.2.2h-.8l.1 2.8-1.5 2.3-.3 1.2-.3.4v1.8l.4.3.1 1.2v1.3l-.9 1-.5.3v.6l-.4.1-1.2 1.6-1.4 1-2.1 1.2-.3.6-1.5 1.3-2.1.9-1.3 1h-.1l.2-.3-.1-.1-1.3.6-1 .2v.3l-.5 1.2v-.2l-.4.7-.9 1.1-1.5.4-.3.6.5.9 3.1-1.2.2-.6.4.2 2-1 2.7-.4.3-.4h.9l1.6 1.4h.4l.4-.2.4.5h.2l-.7-1.8-.4-.1-.1.3-.4-.5.8-.2.9.1.8-2 .4-.3.4.2v.8l-.3 1.6-.6.5v-.3l-.3-.2-.8 1 .3.4h.3v.2l.1.2.3.4.6.5.3.7h.6l.1.5-.4 2.3-1 1 .5.5.3.5-.3.4.1.3H415v-.2l-.4-.3-.3-.4 1.1-.6.6.1v.3h.4l.4.1-1 .8v.2h.4l.6-.3.3.3h6.5l-.4-.3-1-.2v-.4l-.2-.4-1.8-1.6-.6-.1-1 .2-.2-.7-1.5-1.3V411l.7-.4.9-.1.5-1 .3-.2 1.3 1.4.4.1.3-.1-.9-.7-.9-1.7h-1.8l-.3-.3v-.5l.4-.3h.7l2 1 .1.9 1.1 1 .9.5h.5v-.4l-1.9-1-.4-.4-.1-.2.3-.6v-.7l-.8-.7-.6-.4-1.8-.6-.6.1-.7-.5-.1-.5.2-.6h.6l.4-2.1.4-.5v-1.3l.6-1.8-.2-.4.2-1 .8.8.6.2 2.3-.1 1.7.1.8-.3 1.2.1 1 1.7.7.2.3 1.3.6-.6h.5l.3-.6v-1.3l-.3-.5.3-.4 1 .2.3-.8-.7-.4-1.4-.2-.3-.5h-1l-.8-.3v-.4l.5-.1v-.7l-.3-2.8.5-.6.4-.2.4-.8-1.1-.6.3-.4-.2-.7.2-2.9.2-.2h1.6l1.8.2h1.2l1.8 1.1.7 1 1 .6h.5l1-.2 1.1 1.5.5-.4.7-.2 1.2.6.6-.2 1.4.4 2 .1-.2.3h2.4l1.5.2h.5l-4.3-1.2-1-.8-1.3-.5-2.2-.1-1.6-1-1.3-.6-.5-1-.8-.5-.3-.5.8-.2-.7-.4h.8l.3-.2h1l.6-.3-.2-.3.1-.2h.4v-1.3l1.1-.4-1.5-.8h-.5l-1.6-.4.1-1.2.7-.6-.1-.5-1 .4h-.4l-.3.4h-.3l.3-.5h-1.2l-.2.5h-.8l-.5-.2-.4.5h-.4l1-1.6 1.8-3.7-.6-.4h-.5l.8-.9v-.3l-.8.4-.8 1.8-1.8 2.2-1.6.8-.7-.2-.5-.7-1 .3-.5.3-.9-.2-.6-1.5-.5.6.1.4h-1.3l-1.8-.8-.5-1.7-2-.5-.2-1.4-.6-.9.4-.5h.1v-.2l.9-.3-.2-.5.2-.8-.4-1 .6-.3.4-1.7.6-.2-.3-1v-.9h.7l.7.3h.5l.3-.2.2.2 1.3 1.4 1 .4.5.9.5.1 1 .9.8 1.1.9.4v-.4h.6l.2-.4.3.3h-.2l.2.4.9-.1-.7-1-1.2-.4-.6-1.8.2-.6-.4-.8.1-.6-.7-1-.4-.5-1-1.4-.7-.5-1.3-.3-1-1.5v-.5h.2l.2-.6h.4l-.1-.9.7-.2v-.4h.3v-.7l.7.3.4-1.2 1.2-.6 1 1 .2.8.6-.3.3.5.4.2.2-.2.8.8 1 .3.3.6-.4.6.3.4h.2l.1-.4h.7l.2-.7.1.6.3-.4.6-.4h.5l1.8.9.4.7h.8l.6.3h.3l.2 1.1-.4 2.2.5 4.4.2.4.3-.2 1.1.6.4-1h.3l.3-.1-.5-.7-.2-.6.6-3v-.7l-.4-.5.3-1.2.5-1-.8-1.7-1-.5.3-.3-1-1-1.3-.7.3-.3-.3-.6v-.7l-.3-.5v-.5l-.2-.8.8-.7-.4-1.3v-.3l.6-.3-.2-.5h.2l-.2-.3v-.2l.4-.5 1.5-.7.3-.6-.2-.2 1-1 .5.2.3-.6 1.1.4 1.1 1.5 1-.4.1-1.3-.2-1-.5-.6.2-.4-.3-1h.4l-.1-.5.1-.2 1-.2.1.9 2.3 2 .4.3.3-.3.5.2.4-.4v.4l.9.3-.8.7.1.4-.2 1-1 1.4.2.8-1 1.8-.7 1-.2.7.3.1.3-.3h.4l.4-.5.5-.2.1.3h-.3v.5l.3.7-.5.7v.4l.5.1.7-.7.2.2.2-.2v.5l.4-.2 1.8-2.6v-.7h.5l-.1.6 1 1.4-.6.4.2.8h-.6l-.7 1.5.6-.1.6-.6.2.1-.2 1.1.4.6v.5l.4.2v-.8h.4v1l.3-1-.5-.5.2-.3h.4l-.4.6.4.3.5-.6-.1-.3-.5-.4-.1-.4h.4l.2.1h.4l-.1-.9.5-.3h.2v1.7l.1.7-.1.4h.3l.5-.5.4-.5-.1-.5 1.2-1v-.5l-.1-.3.1-.2v.2h.7l.4-.4-.2-.4-.4-.2v-.4l.4.1.2-.2-.1-.3.8-.4v-.3h.2v-.2h.5l-.3-.7.3-.1-.1-.8.1.1.5-.3.3.5-.4.7.1.3-.3.2v1l-.5.8.3.5h.2v.3l.5.3.6-.6-.1-.3.8-.4v-.6l.3-.3v-.2l.3-.5-.1-.3v-.3l.3.2.2-.5.4-.1.4-.4-.1-.3v-.2h.6l.1-.2.3.3.3-.1-.3 1.2.2 1-.3.6.3.4-.2.8.3.5h-.3l-.2.7.1.2-.2.3.6.4.5-.1.2-.5.5-.5.2-.7.4-.3v-.8l.5-.3.2-.9.4-.4V279H329.4v59l.3.3.7-.5v-.4l.3-.1h.2v.2l.2.4.2 1.1h-.8l-.8-.4v-.3h-.3v3.4h.1l.1.1h-.2v4h.1l-.1-.4.2-.2.3.1.6-.1-.7.4.4.2 1.4-.4v.2l-.1.2h.7v-.2l.2.1-.1-.4v-.1h-.2l-.5-.2h.3l-.2-.1.3-.1-.7-.4h.7l-.4-.1h.2l-.1-.3h.2l.8.4-.2.2.2.1v.3l.3-.2 1.1.4-1.1-.1-.8.2.4.2h1.4l.7.9h.6l.1-.4.7 1 .4-.3.3-.4-.5-1.3-.3-.4.2-2.6.4.4h.6l-.2.5.6.4.4.9.1-.4.4-.1-.2-.7h.3l.1-.4.6-.1.1.2.4-.4 1 .4.2-.3.8.6v-.2l.2.5.4.2-.5.6.1.3-.2.3.2.1v.4l-.7.4v.3l1.3-.1.1-.5h1l.1-.9h.4l2.3 1.4 2 2.4.5.4v.6l-.2.8.2-.4.5.1.6-.3.4-.6v-.8l-1-.7-.9-1.2-.9-1.6-.7-.7h.3v-.4l-.8-.7-2.4-1.2v-.5l-1.5-1.3.5-.4.9.1v-.1l-.8-.9h-.6l-.5-.6-.8-.2-.3-.6-.5.3-.4-1 .2-.1.2-1 .6-.2h-.3l.2-.7.1.2.3-.2.2.7v.7l.3.3.2.5h.3l.6-.8.7-.5.3-.4h.4l.3-.5h.6l.7-.4h.2l.3-.3.3-1h.2v-.8l.5-.2.1.7-.4 1.7.5.5h.4l-.6 1.3.2 1.4.6-1.1h.4l.3-.6v.5l.4.6.5-.6.7-1.8.4.4h.8v-.6l1.1-.4.3.2.5.4h.5l.2.9-.6.7h-.6l.8 1-.4.6-.6.7.2.8v.5l-.4.1v.7l-.3.7-.8.5-.4 1.1.2.3.7-.8.8.2-.2.9.2.5 1-1.3.9-.8.6-.5h.4l.9-.9-.1.5.5-.2-.6.9-1.2 1.3v.3-.4l-.6.3.2.2h.2l-.3.3.1.6.4-.3.6.2 1.6-.8.5-.7.5-1.5h.1v.2h.1l.6-.2-.2-.8h.5l-.1.3.4.8-.2 1 .4 1h.3l.4-1.2.4-2.4 1-1 .9.1.3.8 1.5 1v1l.4.6v.8h.3v.4l-.4.2-.3 1-1.1 1h-.7l-.2.1.4.7-.8 1.2-.6.3-.9-.4-.6.7-1-.4-.2.1-.3 1h-.6l-1.2-.2-.1.3-1.6.2v.7l.3.1v.5l.3.1.9-.2.2.3-.1.5h1l.3.5-.4.3.2.6-.3.2v.9l-.5.3v.6l.7-.4.2-1.2.7-.5.2.1-.2.3h-.2l.2.1 1.3.7v1.1l.7.4h.2l.6.4-.3.5.2.3h-.2v.3l-.5.3v-.5l-.5.3h-.2v.2h-.3l.2-.4h-.5.4l-.8-.3-.3.3.4.4-.4.2-.5-.3v-.3h-.5l-.3.5v.7l.3.1.2.8h.8l.7-.1.8.2h.9l.2.1h.4v-.2h.9l.5-.2.3.4v-1l.3-.2v-.6l.2-.2.3.5-.2.5h-.4l.2.3h.2l-.3.2h.7l-.1-.4.4-.4v.3h.5v.7l.1.2h.6l.5-.6.3-2 .5-.5.8-1.7.2-.3.6-.2.2-.3h-.3l.5-.5.8.3v-.6l.7-.2.3-.8h.7l.6-.2h.7l.6-.5v.3h.3v-.4.3l.4-.2.1.3-.2.2v2.2l.2.2-.2.3v.4l-.2.4.1.6-1.8 2.9h-.3l-.6 1-1 .2-.8-.2-.7.5v.5h.3l.2.6-.3.5-1.4.6-.6.5-1.9.6-.2.4h-.4l.1.3-.2-.3.2-.4v-1.2l-.7.7v1.7h-.9l-.4.4-.3-.5h-.4v-.2h-.7l-.4-.1h.4l.5-.6v.2h.1l-.1-.5-.1.3-.3-.5.1-.7-.2-.3.4-.4v-.3l-.4-.2-.4.6-.4-.2-.2.2h-.4l-.4.5.6.3v.8l-1.2.6v1.2l-.2.6-1.3-.6-.2-.4h-1.1l-.4-.8-.3.3H354l-.9-.1-.1.2.7.4-.2.2-.7-.3h-.4l-.1-.4-1.4-1.3.1-.2.4.2v-.4l-.6-.5h-.3l-.6.9v.3l-.3.3.1.4-.7.4v.4l.1.2-.4.7-.3.8-.4.2-.5-.2-.2.3 1 .8.4-.6.6.4h.5l.2.2-.5.2v.3l.9.7v.1l-2.3.7-1.5-.8h-1.1l-1.1-.8-.4.3.7 1-.1.4-2.6 1.1h-1v-.2l-1.8-1.8-.6-.4-.5-1.3v-.8l-.8-.5-.3-.4.5-.4v-.6l-1-.4-1.4-1.3-1.3-.6-.5-.5v-.3l.4-.1.3-.6 1-.2 2.4-1.4.2-.2h.6l.5-.8 1-.7.9-.2 1 .5-.1-.4-.7-.4.2-1-.3-.2v-.2l-.4.5-.5.1v-.6l-.8.2v-.4h-.7l-.3.4-.1-.6-.9-.4-.2.7-1 .7-.5-.6-.5-.3.4.6-.2.7-.4.2-.7.5-.4-.3h-.3v.3h-.2l-.7.5h-.9v.4l-.8.3-1.2.3zm21.5 34l-.2.4-.1-.6.2-.5h.2zm74.6-.8l.2.5-.4-.2zm3 0h-.2.3zm-72.5-1.2l.4.2v.2l-1.4 1h-.4l-.3-.2-.3-.2.2-.5 1.4-.9h.4zm43.2-1.6l.3-.2h.5l-.1.2zm-.5-.2l.3-.6h.3l-.3.8zM356 409.5l-1.2 1h-.4l-.5.3-.7-.3v-.5h-.6v-.4l-.3-1.4.3-.6-.2-.6.7-1.2.7-.6h.4l1-1.1 1.5-.6.3.1v.4l-.4 1.3h.3l-.1.5h.2v.2h.5l.2.7-.5 1.4zm-14.3-32.8l.2-.3h.2l-.4.6zm11.9 11.3v-.4l.6-.3v1l.8-.3.8.3-.2.3-.6-.2-.3.2-.4-.3-.7.1zm49-4v1h-.6v.4l-.5-.1.5-1zm20 5.6l.4.1.4.4.2 1.4-.6 2.3-1.6-.4-.4-.6.6-2zM356 367.2h-.6l-.4-1.2 1.5.4.5.6-.1.3zm-1.5-2.5l-.1-.2.5.3h-.2zm103-13.3h-.4l.2-.4.2.3zm-98 1l1.3-.7 1.4.1h.6l-2.2.9zm-.7-.7l.2-.4.5.4-.5.3zm103-5.4l.2.1-.2.3-.2-.3zm-131.2-1h.6l-.6.2zm3.4-.5l.2-.2-.2-.2.4.3.5-.1.6 1-.3.2-1-.7zm.9-.8h-.3v-.2h.4zm-3.7-.6h.5l-.4.5h-.7zm1.2-.4h-.1.7zm2.6 1.2l.2.2-.2.3-.2-.4zm-1.3-.1l.5.1-.2.2-1-.4h.3zm-.9-2.1h-.2l-.1-.2h.3zm3.4-.5l.1.3-.1.1h-.4zm-6 .1v.1h.5l-.6.3zm-.4-1l.1.4h-.2v-.3zm2.7-.6l.5.3-.4.4-.6-.8.1-.1zm-1.3-.5l.8-.5.5.4-1 .3zm137.7 69.2l.7-1 1.3-.7 1.8-2.7 1.5-.7.5-.8 1-.4.7-.2.5.5v1.3l.8 1.7v2.3l-.9 5-1.8 4v.4l-.5 1.1h11.9v-2.4l.6-1.8.9-2.3v-2.1l.1-.7-.2-1.5.3.2.6-.2 1.1.8 1.3.7.3-.4h.2l1.5.5.4-.5h.2-.2v.2h.2v-.5h.3l-.4-.5h-.4l-.4-.6-1.4-.2-1-1-1-1.3-1.2-3.9 1.1-1.4.8-1.6.4-.4h.3l.6-1 1.1-1.3v-.4l2.3-.9.9-.8.3-.5-.7-1.5.7-1.6v-1.1l.5-.4.4-.2.4-1 .4-.4.3-.8.7-.7v-1.2l.5-.2h.4v-.6l.4-.8v-.2l.6-.2 1.1-1h.4l.3-.8.6-.2.1-.4.9-.5v-.3h.5l.3.2.6-.4h.9l.5-.2v-.2l1 .1 1.1-.4.5.2.6-.3h.6l.2.3h.4l.2.1-.2.4.4.6-.6.4.4.5.7-.1.3-.7v.3h.3l1.6-.3 2.2.1 1 1.5h-.3l-.2.3h.3l.2.4-.2-.4-.7.6h.4l.3-.1.1.2-.2.3.5.3.3-.5-.1-.2h.2l-.1-.6.1.4.1.5h.4v.1l.4 1h.8v-.7h.4l-.3.5.9.2.6-.6.2.2.4-.4.6-.2v-.1h.2l.3.6h1l-.3.3.8.5-.2.6.6.5-.2.5.9.8.2.6-.6.5-.1.6.7 1.8-.2.5-.5.3-.5.5.5.1v-.5l.2.9.6.4 1.1.4v-.4l.2.1-.2.6.6-.7 1 .6.1-.2.9.4.7.2.3.3 1.3-.1-.6.1v.3l-.7.2-.1 1.6-1 .7.2.1v.2h.5l-1.7 1.3-.3.4-2.5 1-1 1.1.3.1.2-.2.6.2-.2.3.3.1-.4.5.1.2-.2.1.3.5 1.6-1h.7v.7h.8v.5l.5.2.4-.3-.1-.6.5-.4h.4l-.1.4h.4l1.8-.4.5.1-2 .8-.6.5-.9-.1-.5.5-.4.3-.9.4h.3l-.2-.3.1-.2h-.4l-.8.7v.4l-.5.2.6.8.5-.1v.1l.6.2-.1.2.2.3h.6l1.5-.3.7.3v.4l-.7-.1v.2l-.5.2h-.2v.1l-1.4 1.1v.5l-1.2.6-.4-.2-1.2.7.3.2-.3.4-.8.2v.2h-.2l.6.5.7-.4 1.3.4v.4l-.3.4-1.4.1-.3.5h-.5v.6h.9l-.2-.3v.1-.1.2h-.2v-.4h.2l.8.7h-.4v.3h.4l.1-.8.9.2.3-.2 1-1.6v-.4l1-1v-1h.7v-.5l.7-.1.7-.7.1-.4-.2-.5v-.2l.8 1.1.7.3 2-2h.8l.3.4 1.5-.4.3.2 1.4-.6h.6v-.2l1.3-.2.4-.5 1.6-.7.8-.3.1-.5 1.6-1.3 1-.2.9-.8h1.1l.5.7h1l-.3.3.8.1.7-.4.2.5.5.1v.2h.2l-.4.9v.7h.3l-.2.5.1.4-.3 1.4v.3l.6.6h.4l-.7 1.5.3.1-.4.3v.5l-.3.5.3.6-.4.2-.4 1.1-.5.4.1.2 1 .1-.3.3-1.1.7-.5.8-.4.2-.3.6.2.4-.2.4-.6-.4-.2.4h.3l-.6.3v.3l.5-.5h.3l-.4.8h-.5v.6l-.6-.3v-.3h-.2v.3h-.2l.2.5v.2l-.7.2.2.5h-.3l-.3.3.4.3v-.5l.4-.2h.9l1.5-1.4 1.3-.5h1.3l.3-.6.2.2 1-.8 1.3-1.9v-.5l.6-.6.9-2.2.4-.3.6-1.2.3-.3h.4l1.1-1.3.3-1.5h.5l.1-.2.3.2.2.1.4-.2v-.4h.2l.5.3 1-.1v-.4l.1-.3 1 .5.2-.2.2.2.8-.2.2.3h1.1l.4.1.5 1.3 1.2.4 1.2 1 1.4.5 1 1.3.9.1-.5.6v.5l-.8.6-1.2.7h-.9l-.7.6-1.2.4v.7l.8.2 3.1-.1 1.2.6h.7l1.1.3.4 1 1 .9h.5l.2.9.6.5.5.6.4-.3.5.4.1.4h30V279H469v69.4l.2-.4-.1-.2.1-.5 1-.3-.2-.4h.3l-.5-.1h.6v-.3l.2.1-.2-.3h.3l-.1-.2.7.1v-.2l.7-.4.3.2.2.5 1 .3v.2l.3-.2.2.4h.5l.4.1v.8h-.3l.4.2.2.7-.2.7-.7-.2 1.1.9.4-.1.2.6h-.2v.1h-.3.2v-.2h-1l.3.5h.3-.2.2l-.3.2h.4l-.5.1v.2l1 .4-.3.3h-.3l.7.5-1 .4.4.1v.4h-1l-.1.3h-.3l.1.4-1.5.7-1-.2-.6.2.8.7 1.1.1v.7h.1l-.5.5v.5l.2.3-.5.4-.2.8h.3v.2l-1 1.5-.3 1.3h.3l-.3 1.1.6-.9-.1-.2v.2h-.1v-.2l.2-.3v-.3l.6-.5-.3-.3.1-.4h.5l.5-.3.5-1.3.3 1-.7 2.5-1 1.9-.5 2.4.5.3.5-.1-.2-.6h.4l-.2-.3.1-.4.5.2.1-.3.1.2.4-.1-.8-.8.8-.3v-.9h.6v1l.9-1 .6-.2.6-1.2.4-.1.1-1 .8-1.4.2.2-.4 1.3.5-.2.7-1v.2h.2l.3.3.8-.5h.6l.3.2 1-.2 1.1.3-.1.2.4.4h.6l.2-.4.5.3v.3h.7v.4h.6l1 .3.2-.1.4.4.5-.2.5.4h-.2l.2.8.6.1.4.5-.1.5.3 1.3-.7.3.4 1.4-.5.3v.9l.2.2-.2.5v.4l-.4.5.1.3-.1.2.2.7-.4.3v.3l-.3.5-.7.2.6 1.1-.5.3-.5.6-1-.1-.4.1.1.3 1 .8-.2.3.1.4-.4.4v.4l-1 .4-1.3.4-2.3-.8-.2-.3h-1l-.8.5.3.7 1.5.1 1.6.8 2 .1.5.5-.9.5-.3.7-.6.1v1l-.5.5-.3.6-.6.3h-1.2l-1.8-.7-.5.3.2.3h.6l.3.8.6.2.5.5v.5l-1 1.8-1 .2-1.4-.4-.3-.2v-.4L475 384l-1.6-.2v.4l1.1.6.8 1 .1.4.9.4 1.7 1.8v.4h-.9v.6l-1.3.6v.3l-.7.7v.3l-.6.5-.8.2h-1.3l-.6-.8-.6.3-1.2-.1-.4-.5-.6-.2v7.9l.7 1.5-.7 1.1zm6.1-50v-.3l.3-.4.2.8-.1.4zm1-9.7v.2l-.5-.2h.3v-.2zm50.8 60.6l-.2.4-.2-.3h.2zm10.7-6.4l-.2-.2.1-.1.7-.2v.4l.3-.3-.4.5zm-3 0h-.1l.3-.4 1.3-.2-.5.6zm.1-1.6l.7-.3h.5l-.2.2-1.4.5zm-5.8-2.6h.3l.4.1-.7.3h-.1zm-59.9-120h139.5V139.5H468.9zm0-139.5h139.5V0H468.9zm0-139.5h139.5v-139.5H468.9zM329.4 0h139.5v-139.5H329.4zM189.9 0h139.5v-139.5H190zm139.5 139.5h139.5V0H329.4zm0 139.5h139.5V139.5H329.4zm-139.5 0h139.5V139.5H190zm0-139.5h139.5V0H190zM50.4 279h139.5V139.5H50.4zm0-139.5h139.5V0H50.4zM50.4 0h139.5v-139.5H50.4zM-89.1 0H50.4v-139.5H-89zm0 139.5H50.4V0H-89zm0 139.5H50.4V139.5H-89zm0 139.5H50.4V279H-89zm0 0"/></g></svg>