<svg xmlns="http://www.w3.org/2000/svg" xmlns:xlink="http://www.w3.org/1999/xlink" viewBox="0 0 497 279" xmlns:v="https://vecta.io/nano"><style><![CDATA[.B{stroke:#fff}.C{stroke:#8d618b}.D{stroke-linejoin:bevel}]]></style><filter id="A" width="100%" height="100%" x="0%" y="0%"><feColorMatrix in="SourceGraphic" values="0 0 0 0 1 0 0 0 0 1 0 0 0 0 1 0 0 0 1 0"/></filter><mask id="B"><g filter="url(#A)"><path fill-opacity=".5" d="M0 0h497v279H0z"/></g></mask><clipPath id="C"><path d="M0 0h497v279H0z"/></clipPath><path fill="#f2efe9" d="M0 0h497v279H0z"/><g fill-rule="evenodd"><g fill="#add19e"><path d="M25.5 283.2l3.8 3.8.5 1 .5-3.4h5.3v4l2.1 4.4-3 6-2 5.2-2.1-2.6-3.2 2 3.1 6.1-.2 6.7 3 5.3 2.2 3 2.3 2.5 1.5-1 2.4-.5 3.6-.9.5-3.1-.8-2.9-2.7-1.2 4-.5.2 1.7h2.3l-3.1-4.2 4.4 1.9 5.1.3 3.2 2.4 1.4-3.3h5.8l-4-4.3-.6-1.7-4.7-1.2-.9 2.3-2.6-4.2 2.3-.7-5.4-.8-1.7 1.3-1.8-2.4-2.4.6-1.8-1.2-5-3 1-2.7-.8-1.3 2.1-1.8 4-1 3 .3 1.9 1.9 2.8 1.2.2 1.8-2 3 4.2 2.7 5.4-1-1-2-1.1-2.3 3.8-1.4 2.5 4.3 2.7 1.2.3-3.2 2-1.6-.5-3.4-3.5-4-3.4-4.3-5-1.2-4.9-3.5-.5.6-1.4-.9-1.1-1.4-2 1.4 3.6 2.4-4.5.7-4-2 .1-2.3.8-5.8 1.1-6-5.2.8 2.8 3-3.4-.6-2 1.8-2 2-.4 4.3-3.6 1.2-3.2 1.1zm32.8 31.4h1.9l.6-4.6.1 3.3-2.4 1.4zm0 .6h1.3l-.6 1h-.1l-.3-.7-.2-.1zM165.6 267l4.2 4 3 5.7 2.1 5.2 3.8 4.8 3.1 4 3.6 4.6 2.3 4.1 1.1 4.2 1 2 1-.6.7-2.6-1.4-2.6-1-1.3 2.6 1.5 2.1 1.8.8-.8.1-3 .8 1.4.8 1.3-.3-4.5 1.3-1.4 1.7-3 2-2.7-.7-2.6.2-1-1.8-3.5-1.2-3.1.2-1.1 2.6 3.4-1.3-2.7-2-3.5-3-4.5-2.1-3.7-1.2-4.6-2.1-2.5-1.4-2.1 1.2-.1-2.6.5.5 3.7-3 3.5.5 2v1.8l-1.1 3.9-1.3.4-1.2-4.9.2 4.6-2.2-3.6-4.8-.2-5.4-1.6-2.4-1zm6.8 7.5l.1.2zm1.8-2.2h.2l-.1.3zm2.2 1.2v.4zm.1-.2l.3.1-.2-.2zm7.7-7.2l.8-.1h-.6zm.2 3.4l1.3.5-1.2-.5zm.3 19.2h.3zm.5-14.5h.3-.5zm.1 2.1l.7.1zm0-1.2l.3.4-.2-.2zm.1 2.4l2 .7-1.1-.6h-.8zm.3-18.7l.3.2-.3-.1zm.3 17.8l.4.4-.4-.3zm.4-16.2l.3.1zm.1 32.9l1 .2-.5.3zm.1-6.3h.1zm.1-10h.5-.4zm.2-17h.1zm.2 29.6v.1zm0-12l.2-.2zm.1-15.9h.5-.4zm.1 27h.2zm0-28.6l.6.4-.4-.3zm.2 18.1h.2zm-.1-3.8l.1.2zm.2-13.8v.2zm0 19.3l.5-.3-.4.2zm0-1.5h.2zm.2 20.4l.8-.1-.7.2zm.2-37.8l.3.4zm0 17.7l1-.5-.3-1.2-.1-.5 2 1-1.7 1.7zm0 12.6h.2zm.3-15.4v.1zm-.1 3.7h.2zm.2 9.2l.2-.1zm.1-12.9l.2.3-.1-.3zm.2 4l2-1v.3l-1.8.7zm.1 9.1l.1.1zm0 2.5l1.1-.2zm.1-.8l.1.3zm.1 8.9l.1-.2zm0-9.3l.3-.4zm.2-14.5l.3.3zm.6 17.9h.2-.3zm0-12.9h.2-.1zm0 21.9h.2zm.4-29.1l.8-.7-.9.7zm-.1 17.4h.3zm.2 5h.2zm.2-15l.3-.9-.3 1zm-.1-2.4h.2zm.1 14.1h.3-.2zm.2-.5l1.7.7-1.8-.7zm-.1-18.3h.1zm0 4.9h.2zm.3-1.3h.1zm-.1 17.4v.1zm0-18.2h.2zm0 12l1.1.6v.3l-.9-1zm.1-7.9h.1zm.1 13.8l.7.1h-.7zm.1 2.8v.1zm0-19.4h.1zm0-1.8l.1.1zm0 2.3h.2zm.1-2.5h.1zm.2 1v.1zm0 3.5l.4-.7-.4.8zm0 18.3l.3-.3-.2.5zm.1-3.5h.2zm.2-14.6h.6l-.6.2zm.1 13.7v.2zm0-5.4h.2zm.2.4h.2zm0 9.5h.2zm.5-7.1h.2zm.3 3l.4-1.9 2 1.2-.4 2.3-1.3 1.2-.8-2.6zm0-6.6l.2-.2v.2zm.2 8.9v.3zm0-7.9l.2-.4zm0-19v.1zm.1 2.7l.9-.5-.9.6zm.6.1h.1zm.1 18h.4-.2zm.2 2v.2zm.7-8.8l.6-.2zm.2-8.8l.2.2zm.4 9.5l.4.4-.3-.3zm.1 9.1l.1.2zm.2-8.3l.7.3-.7-.2zm0 9.2v-.4.5zm.7.5h.3zm1.3-7.9l.5.3-.4-.2zm.2 2.8v.1zm.5 1.2l.1.1zm0-.7l1-.2-.9.2zm-188.1-8.7l1 .9 2.1.4.9-.6.6-2.2.8-.4 1.6.6 1 .2v-3l-4.9.9-.7.1-.4.8-2 2zm0 0"/><path d="M43.4 277.8l1.2-.2 2.7-1-3 1.1h-.6zM179 267.6l2-1.3-2 1.2zM30.1 277l1.3.6-1-1.5.2.9zm10.9 3l.3-.9v.5zm-27.5-2.3v-.1zm16.8.2h.2zM.2 275.2h.2zm25.7 1.4l.1-.2zm0 0"/></g><path fill="#cdebb0" d="M181 266.2l.5-.1zm0 0"/><path fill="#add19e" d="M190.6 278v-.1zm0 0"/><g fill="#aad3df"><path d="M5.4 279.2v.1h.2v.1h.1v.2h.2v.2h.4l.1.2h.5l.1-.4h.4v-.2h.4v-.2h-.3.7l.1.1v.2H8v.1h.4v.2H8v.1l.3.1h.1l.2.1.3.1.3.2h.2l.3.1h1v-.2h.1l.2-.1.2-.3v-.2l.3-.2v-.3l.1-.2v-.2l-.1-.2v-.1h.7l.1.3h.4l.3-.4.2-.1v-.3l.2-.1v-.4h-.3v-.2h.4-.4v-.2h-.5l-.1-.1H12l-.2-.2h-.2v-.1h-.2l-.3-.1H11v.2h-.2l-.1.2h.2l.1.2h.4v.1h-1v-.3H9v.3h-.2l-.1-.1h-.3v.3h-.3l-.1-.3-.3.2v.1H7v-.1h-.2v-.3h-.2l-.1-.1h-.9l.1.3h.5l.4.2h.1l.4.4h.4v.4l-.3.1h-.1v.3h-.3.1v-.4h-.6v.3l-.3.1v.2-.3h-.7v.3h.6v.1l-.4.1h-.2zm7-1.2v.3zm-13.2-3.9v.2l.3.2h.1l.3.5h.3l.4.2.4.3.2-.1.2-.2v-.2l.2-.3-.4-.3-.2-.2H.5l-.2-.2H.1v-.2h-.5l-.1.1zm0 0"/><path d="M3 274l.1.2h.3l.3.1.3.2h.1l.5.2h.1l.6.3h.2l.7.4h.3l.2.2H7v.1l.4.1h.2l.6.2h.1l.4.3h.1l.6.1v.2h.3v.1h.3v.1h.2l.2.2h.2l.3-.1v-.1l-.3-.1v-.2h-.8v-.2h-.4l-.3-.3h-.6v-.2h-.4v-.2h-.5v-.1h-.3l-.1-.1h-.6v-.3H6v-.1h-.4l-.1-.2H5l-.2-.2h-.4v-.3h-.6l-.2-.1h-.3zm-3.7 3.4h.1l.2.3h.9v.2h.2v-.4l.3-.5v-.1l-.3-.3H.6l-.4-.3-.4.3-.2.2-.3.4zm85.2 1.6h88.7l-.6-3.4-1.4-3-1-.7-1.2-1.9-1.6-1-1-1.2-.7-.4-.2-.5.2-.4.7-.3 1.2.8.8 1 1.3.6 1.6.5h2l1.7-.1 2.5-1.1 5.5-2.8-.6.6-1 .5.6 1.9h-.6l-.5.3-.6-.7h-.6l-1.2.3-.1-.2h-.2v.3h.2l-.3.3.3.3-.6 2.4.8 1.3.8.4.4-.1.8-.7.2-.6-.6-1-.6-2.1.6-.2.2.3.6.2 1 1.6.4.2.6-.4-.3-.7.8-.5-.3-.2.4-.2.4.2.1-.4-1.4-2.7.3-.3v-.2l1.7-1.2 1.2-1.5.4-1.5-.3-.6-.5-.8.1-1.4 1-.7.4-.5.7-.2 1 .6v1l.5.5-.2 1 1.8 2.7v.4l.9 2.3v1.3l1 1.8 4.2 6-.1.1 1.4 2.7.7.7.7 1.3H224V139.5H84.5zm0-139.5H224V0H84.5zm136.8-56h.3v.4h-.2zM84.5 0H224v-139.5h-79.5l-7.6 12.7h-.4l-.3.3-2 2.7-3 3-.2.6-1.5 1.4-.5.2-2 1.6-2.8 1.9-2.1 1.9-2.6 2-.7 1.1-2.3.4-2.5 1.7-1.3 1.3-1.2.4-.5-.5-.5-.1-3.3 1.9-2.4 1.1-6.4 6.2-4.4 5-.9.5-1.4 1.6-1.9 3.4-1.8 4-1.6 4-1.4 4.4-.3 2.4-.2.6zm0 0"/><path d="M84.5-72l-.5 1.8-.3 1.7-1.1 1.7-1.7 4.2-2.7 9.6-.4 2.2.3.5v1.8l-.3.7-.8.5h-.5l-1 1-.5-.2-.3.2-1 1.7-.7.6-.6.6-1.2.3-.4.3-1.3 2-.8 2-.3-.2v-.8l-.4-.6-.8-.3h-1l-1.8 1.1-1.1.7h-2l-2.1.5-2.6 1.4-2.6 2-2.4 2.6-2 3.2-2 3.8-1.6 3.8-1.3 4.5-.5.4-.5 1.5-.4.5-.3.2-1.6-.7h-1.6l-2.4.9-1.4 1.1-1.8.7-1 1-1 1.7-1 3v.5L30-3.2 28.4-.7h-.7l-.7.3-.3.4h57.8zM45.7-11.4l.4-.2.2.6-.4-.2zm0 0"/><path d="M-55 139.5H84.5V0H26.7l-2.1 2.4-.9-.8h-1l-1.1.7-2.4 2.2h-.3l-.4-.2h-1.2l-2.6.3-.7.5h-1L9 8.7l-2.4 3.5-1.1 3-.2 2.2-.9-.7-.2-1H2.7l-1.1 1.1-.8-.4-.5.4-.2.5.2.7.3.4v.6l-.6.3-.5.5v.9l.7.3.3.4-.5 2.2.4.4-.7.9-.4 2.1-.7.2-1 1.4-2.3-.2-.3-.4.4-.3-.3-.7-.7-.1-.6.2-.5.3-.2.7.4.6h.5v.3h-.3v.6l-1.1-.6h-.5l-.6.8-.9.5-1.2 1.7h-.3l-.4-.9-.4-.1-1 .5-1.1 1-.8.4-.9 1.3-1 3-.7 3.4-.2.1-.2 1.3v1.3l.1 1.1-.1.2v.6l-.4.4v1h.5l.3.5v1.2l.3.3v.8l-.7.6h-.2l-.4-.6-.4-1.4v-1l.4-.7v-1l-.1-1 .5-.6V42v.6l-.6.2-.3-.5-.5.2v1l-1.4.1-.7-.2-1.3.5-.5-.2-.5.4.3 1-.8-.3v.3l.4.3.7.2v.3h-.4l.2.1.2.3.4-.6.2 1-2.5 2.8.2 1h-.5v.6l-.5.9-.5 2-.2.3-.2.4h-.4v.6h-.6l-.5.7-.6-.7-2 1.4-1.1 1.5-.2.8.3.3v.5l-.3.2-.4.2-.3-.1-.2.2v.7h-.1l-.2.1.2 1.4.3.3-.3.1.3.2v.9l.5.3-.5.3-.1-.4-.4-.2-.4-.6-.7.2-.7 1 .1.5-.1.3-.7-.2-.8.2-.3-.2-.5.3-1 .1-.7.4-.4.7-.3 1h-.5v1.4l-.2.1.2.8v3l.2.3h.3l.2 1.1.3.3.2 1 2 2h.9l.4.3.4-.2 1 .6h.3l.3-.7h.7l.1.6v.4l-.5.4-.7.4-.2 1 .1.5-.2.9-1.4-.5-.6.2v-.8l-.4-.2v-.7l-.6-.4.1-.6-.7-.1-.3.2.4 1.1-.3.1v.3h-.7l-.4.2h-.3l-.9-.4-.9.4-.6-.2-.5.1-.5 1 .4.4-.2.7.5 1.6-.3.1-1 1.6-.7-.4-.7.2-.3.3h-.6l-.4.6-1-.3-.7.4v.2l-.7.3-.5-.3-.4.2-.2.7-.4.2-.8 2-.3 1.2-.5.2-.4 3.2-1.4 2v2.2h.2l-.6.5-.9.1zm0 139.5h45.6v-.6l-.6-2.3.8-3 .1-1.3-.5-1.3-.4-.3-.5.2-.7-.1-.8-.8-.7-.4-.3-.7h.7l.3.1h.5l.4-.3-.2-.5.2-.3.7.1.8-.8.4.3h.9v.6l.8.7 3.2 1.3 1 .8 1.9 1.2 5.7 2.6 7.9 2.6 4.2.8 2.6.2 1-.1 1.7-.9 4.1-.5 1.5-.6 2.3-1.7 3.8-1.3 2.4-1.3 1.2-1.6 1.4-1.2.7-.2 1-.6v-.2l2.9.6-.2.4.4 1.2-.2 2 .1.4-.3 1.4-.4.4.7 1.5 1.9 1.4 1.3.5h.2l1-1.4.5.3v.4l-.6.6v.5l1.2 1.2h35.9V139.5H-55v56l1.1.3 2.2.5.7-.3 1-1 .6-.2.3.4.7 1h-.2v.6l.8 1.6 2.1 2 2.6 2.2 1.1.4 1.6-.2.8.6h1l1.4.6.2-.1 1.7.5.3-.2.3 1-1 .6-.3 1.2-.7.8-1.4-.1-1.3-.7-1.6 1.6-1 .4-.5 1v.5l-.4.5v1.4l-.5-.1-.2-.3h-.4l-.3.6-.1.6-1.4 1v2.7l-.2 1.7.5 2-.1.5.5 1.3-.2.2v1.9l-.4 1.3-.8 1.2-1.2.4-.3 1.2-1.7-.8-1.4.2-1 1.4-.4 1-.2 1.3-.7 1-.4.4-.6-.2-.4.1-.2.1v23.5l.6-.6.2-.4-.3-.1.1-.5-.2-.3 1-1.9v-1.3l1.5-.5h1.4l.4-.2.3-.2.3.2 1.7 2.2v.7l-.6.4-1 .1-3.1 1-.3.5v1.8l-.1.1-.5 1.4-.3.2v.6l-.1.5-.8.2-.2.4v1.9h.3v.2l.2.7h-.5zm99-15.7l-.3.3-.9.2-.9.4-.6-.4v-.5l.3-.2-.1-.3.3.2.2-.4h.4l.2-.3.2.5H44zm-97.6-2l.2.3-.4-.1zm68-18.7v-.2H16l1-1 .6-1h.2l-.4 1.3-1.3 1.6h-1.5zm-48-11l.2.6-1.8.7-.4.3-1.1-1 .2-.7 1.5-.5 1 .3zm4-30l.1-1.4.2-.6.5-.3 1.4-.3 2 .2.8.5.2.8-.2 1.5-.4 1-.5.7-1-.7h-1l-.5-.7-.8-.1h-.4l-.5.4zm-16.7 52.1l.3-.2v.4l-.4.1v-.2zM48.4 279l1 1 .6 1 1.2 1 6 3.5 1.6.5.5-.3.2.6 1.2.6 1.7.8.9.3.5.7.4 2-.5 1.8.1.3 1.2 1 1.4 1 .8.4.2-.2.2.4 2.2 1v.9l-.7.3-.3 1.2-1.2.4-.3 1-1 1v2.4l1.1 2.7 1.3 2 .2.7 1.8 2.2 3.3 2.3 3.4 2 1.9 1.3.1.6-.4.4-.4 1.4.6 1.3 1.1 1.5 2.5 2.3 1.7 1.2V279zm151.2 0l.6.9.4.3 1.1 2.8v1.6l.6 1.4-.7 1.8-.4 2-.2.3-1.7 1.5-.3.4-.9 1.1-.9 2-.3 1.9h-.3l-.2.2.4.4v-.4 3.4l.2 2.8-.3-1-.7-.1-.6.3-.2-.1.2-.1v-.7l.4-.1-.3-.2-.5 1.3-1 1 .1.7.9-.4h1.3l.2.1.5-.7.3 2.6 1 3.8-.9-2-1.4 1.4v.3l.6 2.7.9.3 1.2-.2.3.4h-.3l-.3.2-.2 1.6.5.3.7 1 .6.2-.4.5-.2.7-.4-.3v.1l.4.7.6.3.6-.8-2-5.6-.5-1.7 1 2.9 2.1 5.8-.2-.3-.4.1-.8.8.3.5-.3 1.3.1.8.6.5.5-.6.8-.8-.6-1.9v-.3l1.8 4.8-.3-.1-3.1 1.3h.3l.7.6h.4l.2-.5.3.4.3-.4 1.2.2-.3.5.6.3-.3-2.3 2.4 6.1h-.4l-.2-1.1-.5-.5-.3-.6-.3-.2-1.1.6v1l-.9.5h-.7.4l-.2-.7-.2.6-.5-.4v.4l.4.2v.3l.5.7.7 1.3.9.3h1l1.1-.5.2-.9-.4-1h.5l2.1 6.1-.5-.4-.7.1v.2l.5.2.6-.2.2.1 1.1 3-.7-1.6-.5-.5-1.4.4-1.1 1 .5.8h-.5v.2l.7 1 .9.2 1-.2.8-.6.2-.4h.2l1 2-.4.1-.3-.1v-.6l-1 .1-.6 1.3.3.4v.8l-1.1.3-.3.5.6.5h.4v.1l.6.3.5-.4.5-.6h.7l.5-.4-.2-.6-.1.3.2-.3-.2-.2-.9.2v-.3l-.7.1.4-.5 1-.8 3.3 10.1 1.4 6.4 1 5.7 2.8 19.6v2.8l.5 3v.5l-.3.4v-1.5l-.7-1.9.3-1-.3-.8.1-.8-.4-1.7v-2l-.4-.6v-1.9l-.6-.7v-2.7l-.4-.6v-1.3l-1-1.9v-.5l.4-1.6h-.2l-.2 1-.4-1.4.4-3.6-.5-1-1-.2-.4-.8-1.1-1.2-.4-.6-1.7-.6-.4-.8-.5-.3.5-.7-.1-.3h-.4v-.3l.6-1v-1.1l-.1-1.3-.5-.6-.3-.2.3-.6 1-.4 1.3.3v.3h.7v.1h-.3l.1.2.2-.4v-.5l-.5.2-.2-.3v.3l-.5-.2V351l.5-2.1-.2-.4.4-.2-1-.2v-.3l.3-.3-.4.2-.2-.1.7-.6.4-.7-.4.3-.1.4-.4.1-.4-.1.2-.3-.4-.1.2-.8-1 .2-.3-.2-2.3 2 .3 1.6-.7 1.4-.2 1.8-1.4.7v.2l-.3.1-.1 1.1.5.7 1 .2-.4 1.6.1.3v.7l.4.6h.6v-.7l.2.4.1-1.4-.3-.4.3.3v1.3l-.5 2 .4.7.2 1.9.7.6-.5.7-.4 2 .3.8.8.6v1.3l1 1.8-.9 1-.2.7h.1l-.3.7h.3l.1.4h.4l.1.2-.1.3.6.4-.1.3-.3-.2h-.4l.3.4h-.1.1v.3l2.5 1.3-.3.4.2 1.3 1 1.5-.4.3-.7.9.4.5v.4l.2-.1 1 .9.3 1.3h.2l.4-.1.6.3v.3l-.5-.2-.2.3h.2l-.3.5v.7l.5.2.2-.3.2.6-.3-.1-.1-.1.8 1v.3l.3.3-.3.9.7.5v-.5l.3.1-.2-.4v-.8l.4.6.4-.8h-.4V386l.6-1.5.6-.6v-.4l-.9-1.9.5-1.4.5-.4-.3-.2-.2.4v-.4h.6v.1l.2.6v2.5l.5 1-.3 1.1.4.6v1.8l.3 1.2-.3 1.5.4 1.2-.2 5.1.3 3.4.2-.9-.2-.7v-3.8l.3-.7-.2-1.4.3-.8-.5-1.1.4-.4h-.3v-.4l1.1.9-.5.9-.2 1.3-.3 17.7-.5 3.9-.8 4.3h7.3V279zm14.5 88.6l-.2-.2-.1-.3.4-.6-.3.7zm-.6 16.8v.6l-.2-.4zm-129-58.9l.5.4 1.8 1 3 2.5 3 1.4 1.7 1.2 6 2.7 7.9 3.3.7.3.5.7h-.3l-.9-.7-.7-.4-1.2-.3-.7-.6-.8.2-.2-.6-.1.1-.4-.4-.8-.2v.2l-.1-.3-1-.5-2-.5-.5.4-.1-.1-1 2.2-.4.2.4.7-.3 2.3h2.2l.9-1.2.6-.3h.8l-.3 1.2v1.5l3.2 1.1 1 .2 1.1-.3.4.3.3.4-.3.4-.4-.2-.4.7-.3 1h.5l2 1.1 2.8 3.4.2-.1.2.1-.3.2.5-.2 2 .9 1.3-.3.6-.5.5.5 1.4.6h1.3l.9-.3.3.4h.5l1-.3h.3l.5.7-1.2 1.6-.6 1.9-.6.3-.1.1h.3l-.6.5-1.6 1.3h.4l.4.4.4-.2.7.3 1.1-.5h1.3l.2.5-.6.7.2 1.8 1 1.3.1.5.5.4-.4.3v.3l-.7.2-.6.8-.4-.2-.3-.2-1 .8-.7.3v.8l.4.5-1.1 1-.3.3.7 1.1h.3l.2.6h.2l-.6.2-.4.3h-.4l-.3-.7-1.4-.2 1.1.2H117h1l-.9.4-.8-.3-.1.2-1 .1-1.1.9.1.9.9.2.2.8.5.5-.5.2-.1.6-.3.2-1.4.5-.1.6-.5.5v.2l.5.2-.3.3 2 11-.3.5-.7.5-1.6 1.9-.4.7.3.4-.9 1-.3 1.1.8 1.3.3.3h.5l1.2 1.4.4.9.6.2.3.5.2 4.2.5 1.1.5.4.5.1.2.7-.7.5h-.4l-.4.9.3 3.2.4.7-.7.8-.7 2.5-.6 1.4-.4 1.5-.3.6-1.3.3-1.6-.3-.2.2v-.1h-.2l.2.1-.6.2-.4.7h.1l-1 1v.1h33.1l.4-.6v-.5l.8-1.5v-1l1.2-2.4.3-1.5v-1l-.5-.6-.4-.1h-.5v.6h.5-.6l1.5-4.4-.1-1-1-.2.9-1.5.1-1.2.6-1.2-.3-.8-.7-.1-.2-.3 1.6-4.5.1-2-.3-1.9.5-5.1.6-1 1-2.3-.3-2.6 1.4-3.8.4-2.5-.5-1.5.7-.4-.3-.8-.5-.5-1-1.6-.9-2.2-1.3-2.3-.7-1.4.1-1.2-.1-1.8-1.3-3-.7-2.3v-2l.2-2 .5-1.1v-.8l-.4-.5-.6-.5-.1.6-.6-1-.3-1v-1.3l3.3-2.5 1.5-1.6.4-.1-.2-.1-.4.2-.8.9.6-1 1.5-1.1 13.9-6.9 2-.9 2.8-.3.6.3v.2h-.9v-.4l-.3.6-.8-.2-.7.4.5 1.3.9 1.1-.2 1.4-.9.2.4.9.5 2-.5 1.4-.4.3.9 3.2 1.4 1.5.5.3.2-.2h2v-.5l1.2-1.3h.4l2.2 1.3 1.6-.5 2-2.1 1.1-1.3 1.5-3.1 1-2.6 2-2.7.5-.6.7-.1 1.4 1 .7.4.3.1h.3l.2.2v-.2l-.1-.8v-2.2l-.8-.2-.5.5h-.3l-3-3.1-.6-1.7-.6-.3-.7.7.1.3-.6 1.2.5.8v.5l-.9.7.2.1-.1.4h-.3l-.7-1.2-.1-.9.3-1.2-.4-1v-2l-.8-3.3 2.7-1.3 1 .6h1l2.1-1.2 1-.3.4 1.1v1l1.7 3.2.5-.5 1.5-.3.5-.4 2.7-5.9v-1.6l-.7-3.5v-.8l-.2-.3-.4-.9v-1.3l-.7-1v-.7l-2-.6v-.6l-.3-.2-.7 5.5-.3.9v2.8l-.3 1.2-2.3 1.4-1.2 1.7-.6-.6-.3-1 .1-.9 3.3-6.1 1.2-3.4.8-2.5.4-4.4-.2-2.7-.7-1-1-.8-.5-1.3-1.3-1.1-1.6-2-.9-1.3-.4-1-1.1-.8-1.3-2.4-.8-1-3-2.8-1.3-2.6v-.4H84.5zm40 38.5l-.5-.1.2-.5h.4zm0-12.5l.3-.6h.5l-.7.5zm-2.7 65.2v-.4l.9.3-.5.4zm-4.8-.7l.2-.4 1 .2-.4.2zm3.6.2l-.2-.5h.6v.3zm-1.5-69l1-.2h1.5l1.5.7 1.5 1.2-2.4-1.4 3.8 2.7.8.8.2.5h-1.2l.2-.2-.3-.3v-.5.3l-.3-.4h-.4l-.1.1-1.7-1.3h-.6l-.2.1v.2h-.2l-.6-.8-.3-1v.4l-.6.3v.3l.1.2h-1.5v-.9l-.3-.3zm-12.5-7.2l-.1-.3.1-.3.5-.4.2.4v.2l-.2-.3-.5.4zm6.8 4.3l-.6-.3v-.1h.5l.7.3-.5-.1zm24.3-.3l-.1-.3.4-.7 1.7-1 2-.6 1.6-.2h.9l.2.5v.3h-2.1l-2.3 1.1-1.5.9v.6zm-18.4 1.3l-.5-.6-.3.4v-.6l-.5-.5.3.6v.5l-.6-.6h-.7l-1.3-1.5h-.2l-.7-.9-.2.2-.3-.4-.8-.1-.1-.6-.4.3h.3l-.3.1-.2-.5-.2.4h.3-.4l-.5-.9v.2l-.7-.8h-.6l-2-.9 1.1.5h1.3l1.2.5 1.6 1.2 4 2.7 1.1.6zm48.3-12.3h-.2l-.2-.2.2-3 .2-.5.9-.5 1.8-.8 1.9-1 1.1-.5 1 .1.7 1 1.2.7-.7.2-1-.6-.5.2v-.1l-.4-.4v.1l.2.2v.1l.2.2.3-.1-.6.4h.3-.2l-1.2.6h-1l-.6.6h-1.6v.4l-1.7.3v.3l.2.4-.4.4h.2l-.1.2v.3l-.2.1h.4v-.7l.2.4.2.4-.7.5v.3h-.1zM363.5 0H503v-139.5H363.5zm0 279H503V139.5H363.5zm0-139.5H503V0H363.5zm-139.5 0h139.5V0H224zm0 139.5h139.5V139.5H224zm0-279h139.5v-139.5H224zm0 418.5h139.5V279H224zm139.5 0H503V279H363.5zm0 0"/></g></g><g fill="none" clip-path="url(#C)" mask="url(#B)" class="D"><g stroke-width=".6"><use xlink:href="#E" class="B"/><use xlink:href="#E" class="C"/><use xlink:href="#F" class="B"/><use xlink:href="#F" class="C"/><use xlink:href="#G" class="B"/><use xlink:href="#G" class="C"/><use xlink:href="#H" class="B"/><use xlink:href="#H" class="C"/><use xlink:href="#I" class="B"/><use xlink:href="#I" class="C"/><use xlink:href="#J" class="B"/><use xlink:href="#J" class="C"/><use xlink:href="#K" class="B"/><use xlink:href="#K" class="C"/><use xlink:href="#L" class="B"/><use xlink:href="#L" class="C"/><use xlink:href="#M" class="B"/><use xlink:href="#M" class="C"/><use xlink:href="#N" class="B"/><use xlink:href="#N" class="C"/><use xlink:href="#O" class="B"/><use xlink:href="#O" class="C"/><use xlink:href="#P" class="B"/><use xlink:href="#P" class="C"/><use xlink:href="#Q" class="B"/><use xlink:href="#Q" class="C"/><use xlink:href="#R" class="B"/><use xlink:href="#R" class="C"/><use xlink:href="#S" class="B"/><use xlink:href="#S" class="C"/><use xlink:href="#T" class="B"/><use xlink:href="#T" class="C"/></g><use xlink:href="#U" class="B"/><use xlink:href="#U" class="C"/><use xlink:href="#V" class="B"/><use xlink:href="#V" class="C"/><use xlink:href="#W" class="B"/><use xlink:href="#W" class="C"/><use xlink:href="#X" class="B"/><use xlink:href="#X" class="C"/><use xlink:href="#L" class="B"/><use xlink:href="#L" class="C"/><use xlink:href="#H" class="B"/><use xlink:href="#H" class="C"/><use xlink:href="#N" class="B"/><use xlink:href="#N" class="C"/><use xlink:href="#Y" class="B"/><use xlink:href="#Y" class="C"/><use xlink:href="#Z" class="B"/><use xlink:href="#Z" class="C"/><use xlink:href="#a" class="B"/><use xlink:href="#a" class="C"/><use xlink:href="#b" class="B"/><use xlink:href="#b" class="C"/><use xlink:href="#Q" class="B"/><use xlink:href="#Q" class="C"/><use xlink:href="#I" class="B"/><use xlink:href="#I" class="C"/><use xlink:href="#c" class="B"/><use xlink:href="#c" class="C"/><use xlink:href="#M" class="B"/><use xlink:href="#M" class="C"/><use xlink:href="#d" class="B"/><use xlink:href="#d" class="C"/><g stroke-width="1.8"><use xlink:href="#e" class="B"/><use xlink:href="#e" class="C"/><use xlink:href="#I" class="B"/><use xlink:href="#I" class="C"/><use xlink:href="#f" class="B"/><use xlink:href="#f" class="C"/><use xlink:href="#g" class="B"/><use xlink:href="#g" class="C"/><use xlink:href="#H" class="B"/><use xlink:href="#H" class="C"/><use xlink:href="#h" class="B"/><use xlink:href="#h" class="C"/><use xlink:href="#i" class="B"/><use xlink:href="#i" class="C"/><use xlink:href="#L" class="B"/><use xlink:href="#L" class="C"/><use xlink:href="#N" class="B"/><use xlink:href="#N" class="C"/><use xlink:href="#j" class="B"/><use xlink:href="#j" class="C"/><use xlink:href="#k" class="B"/><use xlink:href="#k" class="C"/><use xlink:href="#l" class="B"/><use xlink:href="#l" class="C"/><use xlink:href="#M" class="B"/><use xlink:href="#M" class="C"/><use xlink:href="#m" class="B"/><use xlink:href="#m" class="C"/><use xlink:href="#Q" class="B"/><use xlink:href="#Q" class="C"/></g></g><defs ><path id="E" d="M150 273.9l-.5-1.2v-.3l-.7-1.7-.2-1.8v-3.5l.2-1.5.2-1.5v-.1l.7-1.8.7-1.5 1-1.7v-.3l1.1-1.3 1.2-1.2 1.1-1.2h.2l1.5-1.3 1-.5.3-.1 1.2-.7 1-.3 8.2-3.6 6.4-2.8"/><path id="F" d="M207.8 259.2l1.9 3.7.7 1.1 1 1.6.4.3 1.4 2.8 1.3 1.9.8 1.2.3.7.7 1.2.5 1.3.4 1.2.2.4v.3l.3.4v.5l.4 1.3.2 1.2.5 2.8.2 1.6v1.8l-.1 1.5-.3 1.6v.4l-.4 1-.2.3-.2 1.3-.2.9-.5 1.9-1.7 5.2"/><path id="G" d="M22.4 258l-1.3 1.5-1.8.5-3 .3-.8-.2-1-.3-1.5-.5-.6-.3-1.2-.4-.6-.2-1.3-.4-.7-.4-.4-.2-.5-.2-2.4-1.7-1.3-.7-3.5-2.2-.5-.3-1.5-.8-1.7-.5-1.7-.6-1.8-.4-4.9-8-1.4-2.5"/><path id="H" d="M209 94.9l3.5 3 4.5 2.1 4.7.5 7.3-1.7 5.8-4.7 3.3-6.7v-7.5l-.1-.3"/><path id="I" d="M205.5 79.4l-.9 3.6 1 6.3L209 95"/><path id="J" d="M85 289.2l-.1-.2-.9-1.4-.8-1.3-.6-.8-5-6.5-.3-.5-.3-.1-1-1.5-1.3-1.3-.2-.1-1.4-1.2-1.7-1-.4-.3-.7-.4-1.2-.6-6.3-5.3-2-7.1v-.1l-.6-1.6-.4-1.6-.8-1.5"/><path id="K" d="M59 254.8l-.8-1.5-1-1.3-1.1-1.2-1.3-1.2-1.3-1-1.4-.8-1.6-.8-1.5-.5-1.5-.5-1.5-.4-1.8-.2h-3.4l-1.6.3-1.7.3-1.5.7-1 .5-1.8.8-1.5 1-1.4 1-1.3 1.5-1 1.3-4.3 4-1.3 1.3"/><path id="L" d="M21.8 256l5.6-3.6 3.7-5.9.9-6.7-1.5-6.5-4.2-5.4-4.7-2.9-5-1"/><path id="M" d="M16.6 224l-.3-.1-5.3.6-5 2.3-4.7 5-2.5 6.6.5 7 3.4 5.9 4.3 3.6"/><path id="N" d="M7 254.8l1.2 1 6.7 1.5 6.9-1.3"/><path id="O" d="M12.8 39l.5-.6 1.1-1.4 1-1.7.6-1.7.4-.6 2.6-3.6 8-7.3 2-1.8 2.3-1 1.7-.6 1.5-1 1.5-1 1.4-1.4.2-.1 2.5-2 1.6-1.7 1.4-1.5.7-1 .5-.4"/><path id="P" d="M44.3 8.6l10.4-9 .6-.4L56.6-2l1.1-1.4.3-.3 1.2-1.7.5-.9 1-1.7.7-1.6.6-1.4.5-1.6.2-.8.2-.6.6-2L75-21.3"/><path id="Q" d="M238 79.6l-3.2-6.5-5.8-4.7-7.3-1.7-6.3 1.2-5.5 3.4-3.9 5.3-.5 2.8"/><path id="R" d="M162.8 310.6l2.7-2 2.5-2.8-.6-6-.4-.6-1-1-.7-1.2-.1-.2-1.6-2-.5-.4-1.4-1.6-.3-.3-1.2-1.8-1-1.7-1-1.7-.2-.9-.6-1.3-3.2-5.3-.4-.3-1.2-1.3-.6-.8-1-1.4-.8-1.6-.2-.5"/><path id="S" d="M174.6 244l1.8-.8.1-.1h.1l1.4-1.1 1.4-.7 1.5-.6 1.5-.5 1.6-.3.8-.2h.7l1.9-.3h1.8l1.5.5 1.5.1 1.4.6 1.4.6 1 .4 1.5.8 1.4 1 1.1.9 1.3 1.3 1 1.3 1.1 1.3.6 1.5.5 1.1 2 5.1.5 1.1.3 1.2.5 1"/><path id="T" d="M-14.7 72.5l.2-2.9.7-1.1 5-2.8 1.6-1 1.4-1.1.7-.6 1.1-1 1-1.3 1-1.2.8-1.3.7-1.5 6-8.2 6-8 .5-.7.8-.8"/><path id="U" d="M22.2 26.5l4.8-4.4 2-1.8 2.3-1 1.7-.6 1.5-1 1.5-1 1.4-1.4.2-.1 2.5-2 1.6-1.7 1.4-1.5.7-1 11-9.4.4-.4 1.1-1"/><path id="V" d="M75.7 276.6l-1-1-.2-.1-1.4-1.2-1.7-1-.4-.3-.7-.4-1.2-.6-6.3-5.3-2-7.1v-.1l-.6-1.6-.4-1.6-.8-1.5-.8-1.5-1-1.3-1.1-1.2-1.3-1.2-1.3-1-1.4-.8-1.6-.8-1.5-.5-1.5-.5-.8-.2"/><path id="W" d="M7.9 257.3l-.2-.2-2.4-1.6-1.3-.7-3.5-2.2-.5-.3-1.5-.8-1.7-.5-1.7-.6-1.8-.4-4.9-8-4.8-8.1 2.4-8.2.2-.7"/><path id="X" d="M-4.2 62.1l.2-.1 1-1.2 1-1.3.8-1.3.7-1.5 6-8.2 6-8 .5-.7 1.3-1.4 1.1-1.4 1-1.7.6-1.7.4-.6 2.6-3.6 3.2-2.9"/><path id="Y" d="M218.4 316.9l-.2-.6-.5-1.3-.3-1-.2-.4-.2-.6-.3-1-.5-1.3-.2-.4-.2-.7-.4-.8-.1-.5-.1-.2-.5-1.5-.2-.7-.1-.5-.2-.6 2.8-9.4.7-2 .1-.7.3-1.3.2-.4.2-1v-.3l.5-1.6v-3.4l-.1-1.6-.6-2.8-.2-1.2-.4-1.3-.1-.5-.1-.3-.1-.4-.2-.4-.4-1.2-.4-1"/><path id="Z" d="M216.4 274l-.1-.3-.7-1.2-.3-.7-.8-1.2-1.3-1.9-1.5-2.7-.2-.4-1.1-1.7-.7-1-2.4-4.7-.3-1.2-.5-1.2-2-5-.4-1v-.1l-.8-1.5-1-1.2-.9-1.4-1.3-1.2-1.1-1-1.5-1.1-1.5-.7-1-.4-1.4-.6-1.4-.6-1.4-.2"/><path id="a" d="M151.3 257.4l-.9 1.6-.7 1.5-.6 1.8v.1l-.3 1.6-.2 1.4v3.5l.4 1.8.4 1.7.1.3.7 1.7.9 1.6.9 1.5.6.5 1.2 1.6.4.2 3.2 5.3.5 1.3.3.9 1 1.7 1 1.7 1.2 1.8.3.3 1.3 1.5.6.6 1.4 1.7"/><path id="b" d="M46.7 245.8l-.8-.2-1.7-.2h-3.4l-1.6.3-1.7.3-1.5.7-1 .5-1.8.8-1.5 1-1.4 1-1.3 1.5-1 1.3-4.3 4-2.7 2.6-1.7.6-3 .3-.8-.2-1-.3-1.5-.5-.6-.3-1.2-.4-.6-.2-1.3-.4-.7-.4-.6-.3"/><path id="c" d="M190.8 239.8l-1.7-.2-1.7-.1-1.9.1-.7.1-.8.3-1.6.2-1.5.5-1.5.6-1.5.8-1.3 1-.3.1-8.1 3.6-8.3 3.6-.9.3-1.3.7h-.1l-1 .8-1.8 1.1-1.3 1.2-1 1.2-1 1.4-.1.2-.1.1"/><path id="d" d="M98.3 314.4l-.5-.7-4.6-6-.3-.6-1-1.2-.5-.5-5.2-12.4-.1-.6v-.1l-.6-1.8v-.1l-.6-1.4-.9-1.4-.8-1.3-.6-.8-5-6.5-.3-.5-.3-.1-1-1.5-.3-.3"/><path id="e" d="M219 287.4v-2.7l-.2-1.6-.5-2.8-.2-1.2-.4-1.3-.1-.5-.1-.3-.1-.4-.2-.4-.4-1.2-.5-1.3-.7-1.2-.3-.7-.8-1.2-1.3-1.9-1.5-2.7-.2-.4-1.1-1.7-.7-1-2.4-4.7-.3-1.2-.5-1.2-2-5-.4-1v-.1l-.8-1.5-1-1.2v-.2"/><path id="f" d="M-14.6 70.5v-.9l.9-1.1 4.9-2.8 1.6-1 1.4-1.1.7-.6 1.1-1 1-1.3 1-1.2.8-1.3.7-1.5 6-8.2 6-8 .5-.7 1.3-1.4.8-1"/><path id="g" d="M162.1 249.4l-2.1 1-1 .3-1.3.7h-.1l-1 .8-1.8 1.1-1.3 1.2-1 1.2-1 1.4-.1.2-1 1.6-.7 1.6-.6 1.8v.1l-.3 1.6-.2 1.4v3.5l.4 1.8.4 1.7.1.3.7 1.7.9 1.6.9 1.5.6.5 1.2 1.6.4.2 3.2 5.3v.1"/><path id="h" d="M84 287.5l-.8-1.2-.6-.8-5-6.5-.3-.5-.3-.1-1-1.5-1.3-1.3-.2-.1-1.4-1.2-1.7-1-.4-.3-.7-.4-1.2-.6-6.3-5.3-2-7.1v-.1l-.6-1.6-.4-1.6-.8-1.5-.8-1.5-.2-.2"/><path id="i" d="M21 259.4l-1.7.7-3 .2-.8-.2-1-.3-1.5-.5-.6-.3-1.2-.4-.6-.2-1.3-.4-.7-.4-.4-.2-.5-.2-2.4-1.7-1.3-.7-3.5-2.2-.5-.3-1.5-.8-1.7-.5-1.7-.6-1.8-.4-4.9-8-2.4-4.2"/><path id="j" d="M45.8 7.3l9-7.7.4-.4L56.6-2l1.1-1.4.3-.3 1.2-1.7.5-.9 1-1.7.7-1.6.6-1.4.5-1.6.2-.8.2-.6.6-2 13-6 .2-.3"/><path id="k" d="M202.3 246.8l-1-1.2-1.2-1.2-1.1-1-1.5-1.1-1.5-.7-1-.4-1.4-.6-1.4-.6-1.5-.2-1.5-.2-1.8-.1-1.9.1-.7.1-.8.3-1.6.2-1.5.5-1.5.6-1.5.8-1.3 1-.3.1-8.1 3.6-6 2.6"/><path id="l" d="M14 37.4l.5-.4.9-1.7.6-1.7.4-.6 2.6-3.6 8-7.3 2-1.8 2.3-1 1.7-.6 1.5-1 1.5-1 1.4-1.4.2-.1 2.5-2 1.6-1.7 1.4-1.5.7-1 2-1.7"/><path id="m" d="M58 253l-.8-1-1.1-1.2-1.3-1.2-1.3-1-1.4-.8-1.6-.8-1.5-.5-1.5-.5-1.5-.4-1.8-.2h-3.4l-1.6.3-1.7.3-1.5.7-1 .5-1.8.8-1.5 1-1.4 1-1.3 1.5-1 1.3-4.3 4-2.7 2.6"/></defs></svg>