<svg xmlns="http://www.w3.org/2000/svg" viewBox="0 0 497 279"  xmlns:v="https://vecta.io/nano"><path fill="#f2efe9" d="M0 0h497v279H0z"/><g fill="#aad3df" fill-rule="evenodd"><path d="M-133.5 0H6v-139.5h-49l-.5.5-.2.8h-.2l-.1.3h-.7l-.5.7-.2.6-.9.9v.4l-.4.3-.8 1.5-1.2.4-.6.6-.7.1-.4.6-.2.6h-.4v.4l-.4.4h-.4v-.4l-.3-.2-.6.4-.6-.2h-.7l-1.3.8-2 .4-1.6-.8-1.2-1.2-.2-1.8-1.7-.2-2 .8-1.5 1.9-.5 1.7v.3l.9.7 1.1.2v.5l-1 .5-.8 1.6-.1.6-.7 1v.9l-2.4 2.6h-1.2l-.8.3-.7.8v.9l-.6.3-1.1.2-.5.3v.2l-.3-.1-.3.2-.3.5-.2-.1-.7.2-.6.6v.2l-.7.3-.6.5-.1.3.2.2h-.5v.8l-.3-.3-.7.3v.7l-.4-.4-.3.2-.4.6v.4l-.2.2-.4.4v.4l-.3.2-.4 1h-.3l-.5.6-.8 1.5-.4 1.8-.6.5.2.3h-.5v.5h-.5l-.5.9-.5.2-.2.7-.3-.4-.1.2-.4-.1-2.2.8h-.8l-1-.7-1.5.7-2.7 3-1 1.7-.1.8-.8 1.6v.6l-1.7 1.6-.4.2-.7-.4-1 .1-2-.8-.5-.4v-.8l.6-3 1.1-1.3 1.5-.4 1.3-1.8.1-.4-1-1.8-.2-.6.3-.3-.1-.8.6-1.7.4.3-.1.6.4 1.6.9 1.2.7.2 1.7-1.6.4-1.3-.2-.7.2-.8-1.4-1.1h-.1l.1-.4 1-.2.7.3.3-.1v.4l.8-.1v.5l.3.2.2.5h1l1.9-1.1 1.6-1.9.6-.5.4-.4.8-3v-.9l-.2-.8-.4-.3-1 .1-.3-.3H-90l-.2-.3.2-.3-.7-.2-.6-1.5v-.9l.3-.6 1.2-.5h.4l.3.5h.5l.2.3h.6l1.1 1.5h.9l1.3-.8.5-.2.2-1.5.6-1.2v-1l.4-.6h.4l.2-.5h.5l.1-.2.4.1 1-.6h.5l2.2-1.3 2.1-2.2 1.7-2.4.9-.6h.3l.1-.4h1.2l.2-.3-.3-.3h.6l-.1-.7.3-.3-.3-.2v-.8l.2-.1-.1-.4.4-.3-.1-.4.1-1.6.5-.4v-1.3h-63.8v44.6h.4l.2.4h1.1l-.3.5.3.2 2 .6.4.3.1.3h.4l2.8-.2 1.8.2 1.6-.1 3.3-.9.8-.4.2-.5 1.4-.8-.6.5-.8 1.5-.5 1.4-.4 1v.9l-.6.3h-.2v.7h-.8l-.2.3v.2h-.2v.4l-.5.1v-.3l-1.3-1.4h-1.4l-2.1 1.3-1 1.3v.6l-.2.2.3.4-.2.3-.2-.2h-.7l-.2.8h-.5l-.3.5v.3h-.3l-.4.4-.3.1-.5 1-2.3.2zm4-37.5l-.3-.3-.8.2-.7-.4h-1.2l1.3-.3.7-.6-.1-.7.2-.1.4.4h.4v.4h1.2v.4l-.2.3.4.4v.4zm18.1-7v-.5h-.6l.3-.3.4.3h.3zm5.4-2l-.5.3h-.3l.4-.4h-.3l.2-.7.6.3v.3zm-8.9-.5v-.4.4h-.6l-.3.3v.4h.3v.3l-.1.5h-.3v-.3l-.6.2.2-.6-.5.1.2-.9h.2l.2-.4h.2l.2-.3-.1-.1v-.6l-.4-.4-.7-1.1.3-.6h.4l.8-.9.7.4 1.8-.8.9.1v-.2l.9-.1.4.5.2-.1v-.4l.4-.1 1.1.4.3.7v-1l-.4-.2-1-.2v-.5l1.5-1.1 1.2-1.2.5.3.4.6.4.3v-.2l-.2-.2-.4-1h.2l.6.7.4-.5.2.2-.2.4.4.1h.3v-.5l-.3-.1v-.8l.2-.1h1v.3h.4l-.2.6h.8v.5h.5v.4l.9 1.1.6.1h.5l-.3.2.5.4-.2.4h-.6l.1 1.3h-.2l-.1.4-.4-.4-.6-.3-.7.4v.3l-.8-.1-.1-.3v.2h-.4l-.7.6.2.3h.2v.2h.8v.4h-.2l-.5.3-.5-.2v-.3h-.5l-.2-.1-.2.3.2.2-.5.3-.2-.5-.2.4h-.2v.6h.3l-.5 1-.7-.6v.6h-.1l-.2.4-.3.2v-.4h-.5v.3h-.6v.5l-.4-.2.2.6-.4.2-1-.8-.5.1v.7h-.5l-.1.3v.2l-.1.2h.3l.1.2-.6.4v.6l-.5-.1-.9.4h-.4l.6-.8-.6-.1.1-.3-.4.1-.2-.2v-.5l-.3-.4-.2-.5.2-.3-.2-.2.6-.7.6.1.1-.1v-.2h-.6zM6 0h139.5v-139.5H6zm0 139.5h139.5V0H6zm-139.5 0H6V0h-139.5zm0 139.5H6V139.5h-139.5zM6 279h139.5V139.5H6zm0 139.5h139.5V279H6zm-139.5 0H6V279h-139.5zm279 0H285V279H145.5zm0-279H285V0H145.5zm0 139.5H285V139.5H145.5zm139.5 0h139.5V139.5H285zm0-139.5h139.5V0H285zm0 0"/><path d="M424.4 139.5H564V0H424.4zm0 139.5H564V139.5H424.4zm0 139.5H564V279H424.4zm0 0"/><path d="M285 418.5h139.5V279H285zM424.4 0H564v-139.5H424.4zm0 0"/><path d="M285 0h139.5v-139.5H285zM145.5 0H285v-139.5H145.5zm0 0"/></g></svg>