<svg xmlns="http://www.w3.org/2000/svg" xmlns:xlink="http://www.w3.org/1999/xlink" viewBox="0 0 497 279" xmlns:v="https://vecta.io/nano"><style><![CDATA[.B{stroke:#fff}.C{stroke:#8d618b}.D{stroke-linejoin:bevel}]]></style><filter id="A" width="100%" height="100%" x="0%" y="0%"><feColorMatrix in="SourceGraphic" values="0 0 0 0 1 0 0 0 0 1 0 0 0 0 1 0 0 0 1 0"/></filter><mask id="B"><g filter="url(#A)"><path fill-opacity=".5" d="M0 0h497v279H0z"/></g></mask><clipPath id="C"><path d="M0 0h497v279H0z"/></clipPath><path fill="#f2efe9" d="M0 0h497v279H0z"/><g fill="#aad3df" fill-rule="evenodd"><path d="M33.7-.8v.1l.3.2v.2l.1.1.3.2v.2l.3.2v.4l.2.2.1.4v.1l.2.1h.6l.2-.2h.6l.1.2.3-.3v-.2l-.3-.1H36l-.2.1h-.5V.9l-.2-.2V.6L35 .4l-.1-.2V.1l-.2-.2-.2-.3-.3-.4v-.7l.3-.2v-.9l-.3-.4v-.2l-.2-.3h-.2v.2l.2.1v.2l.2.2v.2l.1.2v.2l-.3.3v.4l-.3.3v.2zM6-86.2h1.5l1.7-.4-.4.2.2.2h1.6v.5h.4v.8l.3.2.2-.2H11v-.3l.2-1 .4-.2-.3-.2-.3.1-1.1-.4-.5.1.4-1.5.5-.7 1.3-1 1.9-.5 5.2-2.3 1.7-.5h1.5l4.3 1.6 6.4 1.7 4.1 2.4 3.6 1.6h-.7l-.6.4-.3.8-.7.3v.3h.5l.5-.4.2.2-.1.3.6.5h.3l.7-.7.1-1 .3-.2h-.7l.6-.1-.2-.1h-.6.6l2.3.7-1-.2 1 .5.3.5H45l8.6 1.2 3.4.4 2.4.5 2 1.1 3.4 2.8 1.6 1.8.8 1.6.8 3.2-.3-.2-1.2-.2-.7.2v.4l.2.8-1.4.6.2 1.1v.9h1l1-1.4 1.9.1 2.1 2.6v1l.4.6 2 1.1 1.2.6 1 1 2.5.9 1.2.4 1.2-.4 1.3-1 2.6-.9-.6.8h-.5l.2.4-1.3.9-1.6.5-.2.8.4-.7h.5l-.7 1.3-1.2.4v.6l-.7.2h1l-.2.2.2.4.5-.8.6.5v-.6h.6l.8-1.1.7.6 1.7-.6.6-.5.4.3.3-1.3L87-62h.7l.7-.8.9-1.9h.6l.3-.9-.2-.2v-.6l-.3.3-1.2-.5-.2-.4.2-.7-1 .4 3-2 1.7-1 2.3-.2 2.2.2 2.1 1.1 1.2 1.4.2 1-2 2.6-1.6 1.2-2 3-2.6 6.1.4 1-.5 1.6-2.5 3.3-1.4 2.4-1.2 1.4-1.3 3-.5 3.5.4.3.3 1 .6.2.2 1.1.4.4-.4 2.5-1.1 3.4-1 7.3-.7 2.3v.7l-.1.3.1.6.5.3-.2.7-2.4.4-1.6-.3-1.4.3-4.2 3h-.8l-.5.4-1.1.2-.3.6-2.4.7-3.1.7-1.5.6-1.7.3-2.5 1-.8-.1-4.5 1-2 1.1-1 1v.3l-1.9.2-1.3.4-1.3.7L45.2-2l-1.2.6h-2l-1.1.4-.5.4-.7.6h105.8v-139.5H6zM84.4-64l.2-.3.4-.2.6-.5-.6.7zm2-1l.4-.6h.1zm0-1.4v-.2h-.2l-1.1 1.1v-.3l.8-.7 1.2-.6.5-.1-.8.2zm-17.6-3.8l-.4-.5v.4l-.2-.1-.3-1h.1l.8 1.3.2.5-.2.4zM39.5-84.4l-.1-.4.5-.4.1.9-.4.1zM65-68.8l-.2-.5.2-.1h.2l.3.7zm-198.5 208.3H6V8.8l-2-.4-2.2.3-.2-.3H.9l-1.3-.6-.9-.1-.5.1-.5-.5-1.3-.6-4.6-.1-.7-1.1.5.4.4-.2.3-.5-.3-.6-.2.8-1-.3-.4.2-.2 1 .8.2-1.5.7h-.9l-1.6-.9h-1.7L-15 6l-.8-.8-.9-.2-.5-.4-.8-.2-.6.3-1-.4-2-.2-.2-.5-1.6-.3-.8-.9-2.6-.7h-1l.1-.7-.6-.6-.6.7-.8.6.2.2h-.2l-1-.5h-.7L-33 .5h-1l-.3-.5h-99.2zM-28.7 2.1l-.3-.3.7-.8.3.6zm-.1 0"/><path d="M6 139.5h139.5V0H39.8l-.3.3-1 .5-.5.6-.6.2-.4-.3-.3.3.8 1.6-.7-.7h-.4l-.1.8.3.7-.4-.3V3l-.4-.1-1.1.7-1.2-.2-1 .2-.3.4v.7l-1 .3-.2.6-.3-1-2.2-.1-1.5.3-1.4.5-1.2.2-.4.8h-2.7l-3.1.6h-.9l-1.5 1h-1l-.1-.6H14l-1.2.6-1.3.9-1.5-.2-.7.1H8.1L7 9l-1-.2zM37.4 4.1v-.5h.1V4zM28 8l-.9.1-.4-.4.3-.1.3-.3-.5-.6.2-.6.8-.1.6.5.1.3-.5.6zm11.8-4l-.5-.4h.3zm-1.2-.1l-.2-.2-.2-.3.4.2.2.4zm0-.4l-.5-.3-.1-.3 1 .4zM6 279h139.5V139.5H6zm-139.5 0H6V139.5h-139.5zm0 133l4.8 2.2 4.2 2.3 2.1 1.5 1 .5H6V279h-139.5zM6 418.5h139.5V279H6zM424.4 279H564V139.5H424.4zm0 0"/><path d="M285 279h139.5V139.5H285zm139.4 139.5H564V279H424.4zm0 0"/><path d="M285 418.5h139.5V279H285zm-139.5 0H285V279H145.5zm0-139.5H285V139.5H145.5zm0-279H285v-139.5H145.5zm0 139.5H285V0H145.5zm139.5 0h139.5V0H285zm0 0"/><path d="M424.4 139.5H564V0H424.4zm0-139.5H564v-139.5H424.4zm0 0"/><path d="M285 0h139.5v-139.5H285zm0 0"/></g><g fill="none" clip-path="url(#C)" mask="url(#B)" class="D"><g stroke-width=".6"><use xlink:href="#E" class="B"/><use xlink:href="#E" class="C"/><use xlink:href="#F" class="B"/><use xlink:href="#F" class="C"/><use xlink:href="#G" class="B"/><use xlink:href="#G" class="C"/><use xlink:href="#H" class="B"/><use xlink:href="#H" class="C"/></g><use xlink:href="#I" class="B"/><use xlink:href="#I" class="C"/><use xlink:href="#J" class="B"/><use xlink:href="#J" class="C"/><path d="M24.5 44.5l.5-.1 4-1.1 2.2-.3h1.2l6.8-.9 6.3-2 2.5-.5 7.5-3.3 5.4-4 3.9-1.9 1-.5" class="B"/><path d="M24.5 44.5l.5-.1 4-1.1 2.2-.3h1.2l6.8-.9 6.3-2 2.5-.5 7.5-3.3 5.4-4 3.9-1.9 1-.5" class="C"/><use xlink:href="#K" class="B"/><use xlink:href="#K" class="C"/><g stroke-width="1.8"><use xlink:href="#L" class="B"/><use xlink:href="#L" class="C"/><use xlink:href="#M" class="B"/><use xlink:href="#M" class="C"/><use xlink:href="#N" class="B"/><use xlink:href="#N" class="C"/><use xlink:href="#O" class="B"/><use xlink:href="#O" class="C"/></g></g><defs ><path id="E" d="M-15.6 44.4l1 .1 2.4.3h3.6l3.9.9 4.5.5h4.7l1.7.4 2.4-.3 3.7.1 2.9-.3 2.3-.2 2.2-.4 1-.3 4.3-.8 3.5-1"/><path id="F" d="M28.5 43.4l.5-.1 2.2-.3h1.2l6.8-.9 6.3-2 2.5-.5 7.5-3.3 5.4-4 3.9-1.9 2.6-1.1 2.2-1.3"/><path id="G" d="M69.6 28.1l.9-.4 4.5-1.3 7.1-2 5.2-2 3.7-1.6 3.6-.9 4.8-1.8 2.4-1.1 3.4-2.1 4.3-3.3.7-.8"/><path id="H" d="M110.2 10.8l2.5-2.5 1.8-2.1 1.7-2.4 1.5-2.4 1.3-2.6 1-2.8 1-2.6.7-2.8.5-2.9.3-5.2.6-3.5.7-2.8 1-4.5.2-1.7"/><path id="I" d="M65.8 29.9l1.6-.6 3-1.6 4.8-1.3 6.9-2 5.2-2 3.7-1.6 3.6-.9 4.8-1.8 2.4-1.1 3.4-2.1 1.8-1.4"/><path id="J" d="M-19.6 43.6h.2l.6.4 2.2.3 2 .2 2.4.3h3.6l3.9.9 4.5.5h4.7l1.7.4 2.4-.3 3.7.1 2.9-.3 2.3-.2 2.2-.4 1-.3 3.9-.7"/><path id="K" d="M107 13.5l2.5-2 3.2-3.1 1.8-2.2 1.7-2.4 1.5-2.4 1.3-2.6 1-2.8 1-2.6.7-2.8.5-2.9.3-5.2.6-3.5 1.2-4.8"/><path id="L" d="M10.9 46.4h1.4l2.9-.3 2.3-.2 2.2-.4 1-.3 4.3-.8 4-1.1 2.2-.3h1.2l6.8-.9 6.3-2 2.5-.5 6-2.6"/><path id="M" d="M54 37l1.6-.8 5.3-3.9 3.9-1.9 2.6-1.1 3-1.6 4.8-1.3 6.9-2 5.2-2 3.7-1.6 3.6-.9.2-.1"/><path id="N" d="M94.8 19.8l4.6-1.7 2.4-1.1 3.4-2.1 4.3-3.3 3.2-3.3 1.8-2.1 1.7-2.4 1.5-2.4 1.3-2.6 1-2.8 1-2.6.7-2.8.5-2.9"/><path id="O" d="M-32.9 39.9l.4.1 3.3.8 1.2.6 3.5 1 3.5 1.1 1.6.2.6.2 2.2.4 2 .2 2.4.3h3.6l3.9.9 4.5.5h4.7l1.7.4 2.4-.3H11"/></defs></svg>