<svg xmlns="http://www.w3.org/2000/svg" xmlns:xlink="http://www.w3.org/1999/xlink" viewBox="0 0 497 279" xmlns:v="https://vecta.io/nano"><style><![CDATA[.B{fill:#add19e}.C{stroke:#fff}.D{stroke:#8d618b}.E{fill:#eee5dc}.F{fill:#eef0d5}.G{fill-rule:evenodd}.H{fill:#cdebb0}.I{stroke:#9cf}.J{fill:#ddecec}.K{stroke-linejoin:bevel}]]></style><filter id="A" width="100%" height="100%" x="0%" y="0%"><feColorMatrix in="SourceGraphic" values="0 0 0 0 1 0 0 0 0 1 0 0 0 0 1 0 0 0 1 0"/></filter><mask id="B"><g filter="url(#A)"><path fill-opacity=".5" d="M0 0h497v279H0z"/></g></mask><clipPath id="C"><path d="M0 0h497v279H0z"/></clipPath><path fill="#f2efe9" d="M0 0h497v279H0z"/><g class="G"><path d="M473.5 257.1l2.9 3.6 2.5 3.5 4-.3.9-1.9.8-.3 1 .8-1-2-1.6-2.8-2.8-3.3 1.5-1.4 1.3-1.2-.4.5 1.5 1 1.8-.8-1.4-.7 2.5-.8v-.9l1-.1.8-2.6 2 .3 1.4-.7-1.8-.2-2.4-2.3 2.7-.5.2-2 1.1-1 .3 1.6 1.5-.3 1.4-.6-2-.3V240l1.1-1 2.2-1 1.4 1.2.1-.9 1.6.7 1 .4 1.1 1.6h1.5v2.4l-.1 1-1.1.4-2.4 2.4 2 1.5 1.1-.3 1.9 1.6 1.6-2h1.5l-1 2.2 2.8-.7 1.2-1-1.3-2.1 1-.9.4-2.5 1.2-1.9 1.8.6-1.4 1-.7 2.3h1.8l1.2-1.9-.3-3 .6-1.2-2.7-.7-2.7.5-3-.4-3.4-.5.9-1.3 1.2-1.5.2-1.4 1 1.4 1-1.6.5 1.5-.3 1.7 1.7-.6 1-2.1 1.9-1.3h2.6l.8 1 1.3 1.2.4 1.2.3 1-.5 1.5h1.8l-.7-1.4 2-.5-1.5-1.1.6-.3-.8-1.2-.3-.3-1.4-1.7-1.7-.4.2-1.5h2.6l-2-1.7-1.4-1.5 2.6-1.9-1-1.3v-.8l2.7-1.2-.8-1-.1-1.5 1-.9.3-.7 3-1.4 2.3 2.3-1.1 1.5 2 .1 2.4-1.6.2 1.3-1 1.8-2 .8-1.7 2.1-1.4 1-1 2.5 2 .7 2.3.6.7 1.4-2.5-.4.8.8-.8.6h2.9l1.5-.6-.5-1.1 1.7-.3-1-1.2-.3-1.4 1.1.2 2.1.5 1.3-.4 1-.8v-1.5l.4-1.5 1.9-.2 1.1.4 1.9 1.2-.3-1.6-.6-2 1.6-.6v-2.4l.2-1.5.1-1.4 2-1.5 2.1-.6.7-2.4 1 .8.9-1 3 1.6 1.5-1.4-2.5-.4 1-2.3.9-.8-3.9-1.5 1-3 2.7.3 2 1.6 1 1.3 1.4-2.2 2.4-.7-2-2 3.4.4-1.2-1.1-3.5.5-2.1-.2 2-.4 3.4-1.7 1.7-1 1.6-1.8 2.8-1.9 1.4-1.1 2.4-2.7-2.1-1.7.3-.3 3.1-1.4-2.9-.9-4.6 2-3 1.1 2.2-1.1 5.3-2.1 1.9-3.9-.3-3.1 1.2-.7 2.2-3.2 2.3-.7 1-.8 1.1-2 2.1.6 2.4-2.6-2.1-2.3-2.2 2-1.5.8 1.4-2.6.2-2.2-1.7 2.5.2-1.3.2-2.4-.4 2.2 2.2-1.9 1.5-1.2h.6l2.7.4 1-1 1.7.2-2.8-1-3-1.6-.9-1.9 1-.8 1.5-2.1 2.7-2.5 1-3.4-.4-.4v-3.3l-1.8.3h-2.6l-1.2-.3-1.1-.3H573l-2.3-2.4h-1.3l-1 2-.1 2-.7 1.6-1.4.4 1.5 2.3-3.7.6-3 .1-1.7 2.5-1.3 3.5.1 1.4-.6 1.4-1.7-1.4-1.8-.4-2.2-1 .4-1H551l-2.3-1.4 2.1-3.8-1.8 1.5-3.2-2.5-3.2-2.5-3.2-2.4-3.5-2.2-1.7.8.2 3.3 1.2 3.4v2.6l-.2 4.2-.7 2-2 2.5v3.5l-1.7 2.6-3.8-.8-2.3.6-2.9 1.6-2.5 1.1-2.3 2.9.3 2.6-1.3 2.4-.4 3.5-1.3 2.5v4.1l-3.3 1.7-2.5 3.1-2.7 1-2 3.1-2.3 1.5-2.4 2.4-.8 3.9-1 3-.9 3.6-2.3 1.8-2.8 3-1.2 4.1v3.1l-1.8 2.1-1.6 4.1-3.5 1.9-2.8 3 .5-.3-1.7 3.1-1 2.4-1.2 2.1-2.1 3.1-.8 4.4v4.7l-.8 2zm2.9 2.5l.9-2 1-1.3.4-1.1 1.4 1.1.5 1.4v1.5l.4 1.8-1 1-2.7-1.6 1.2-.4 1.4-.3-2.7-.2-.8.2zm2.3-16.9l2.4-1.7v.7l-.5 1-.3 1.3.9 1.4-.9.6-1-1.8-.5-1.4zm.8-2h.1zm0 8.1l1.4-2-.9 2.1h-.4zm.5-8.1v-.1zm1 .8l.3-1 1.4-.2 1.4 1.9-1.1.5 1.2.9-2.2-1.2-.9-.9zm1.2-3l.8-.3.7.2-.4 1.3-.6-.7-.5-.4zm.9-1.9l.2-.2 1.3 1.3-.5-.5.1.8-1-1.3zm1.5 1.4l.1-.3 1.3 1.3-1.1.4zm1.5 1.2l.5-.2-.4.2zm.6.4l2.6.3zm8.3-12.2l.7.2-.5-.2zm.3-1.2l2.6-.7zm.7 1.4v.1zm.5-.6l.4-.1zm1.4-1v.3zm.6-.6l.5.3-.5-.2zm1.1-2.4l2.2.9-.6.9-1.5-1.8zm.2 4.3l.5-.5zm1 4.7l1.5-2.6.9-3.8 1.2-.6 2.8-4 1.1 1.8-2.6 1.7-.6 2.7-1.5 1.8.6 2.8-2.4-.5-1 .8zm1-16.5h.8l1.7-1.4-1.9 1.5-.7-.2zm.8 5l2.1-1.3 2.1-3-1.6 2.3 1.2-1.6 1.2 1.1-1.1 1.8-1.3-.3-2.2 1.6-.4-.5zm1.4.9l1.7-1.6v1.5l-1 .7-.4-.6zm4-8.7l1-2.3.8 2.3 1.1-.2 2.5 1.4.1 1.1-1.8-.7zm.6 8.4l.4.2-.1 1-.3-.9zm.1 8.8v.1zm.5-11.1l.6.4-.6-.2zm.8.2h1.9zm.2.7l.3.3h-.3zm.1-13.7l1.7-.7 3.6-2.6-3.4.6 2-1.6-.6-1.7 2 1.7 2-2.7-.2 1.7-3 3.6-1.4 2 2.3-3.3-3.9 3h-1zm.1 15.8l.6.7-.5-.6zm.6 2l1.2 1.4-1.2-1.3zm0-3.5v.7-.4zm4.2-21.7l.4-.5 1.4 1.5zm.4 18.7l1.3-1.3.7-.6-1.5 2h-.5zm2.4-29.4h.2l.4 2.3-.7-2.3zm.4 3.9l1.4-1 2.3 2-.9-2.1-.9-.7h.3l3.6-.3-.9-2.4.4 1.4 1.9-.9-1.3-.8.5-1.7 1.2 2.2-.3 2.8-.2 1.6-.4 2.2.5.5-2.8-.6-4-2h-.3zm1.6-8.2l.4.4-.4-.3zm1 1.8v.1zm1.2 1.1h.1zm10.6 25.2h.8l.4 2-1-2h-.3zm1.2 7v.1zm.2-38.5l1-1.6.8-2.4 1.3-.7.4-.2h3.7l1.2-.3 1.4 1h2.4l-.9 1.2 1.3.9-.8 2.6.9 4.4-2.4-5.4.2 1.3-2 .2-.7-.2h-3.1l.1-2.3-2.5 1.3-2.3.3zm.1 38.1l.2-.3-.2.2zm.5-1.3h.1zm.7-49.7l1-.3-1 .4zm.2-6.3l1.1-2 1.2-2-.3 1-.6 2.5zm0 6h.3zm.8-18l.2 1.3v-1.2zm.1 7.7h.5zm0-3.5l.7-.2.5.7-1.1-.4zm.9 2.5v.3zm.4.7h.5-.6zm.8-2l1 .6-.8-.2zm0 54.6l1.1-.8 1.6.6-2.6.2zm.3-52.2l.5.1h-.4zm.7.9l1.3-.5 1.6 1.3 1 4.5 1.2.4v2l-.4.9-1.4-.5-1.2-1V162l-.2-1.8h-.5l-1.2-1.9zm.3-8.7l2.7 1.6 1 2-.4 1.1-.6 1.2-.3-1.3-1-2.2zm.6 6.7l1.2.9-1.2-1zm.1 47.5l1.3.1h-1.2zm0 2.2v.1zm.8-10.2l.2.2.6 1.2zm.2 5.6l2.6-1 .2 2.3-1.9.3-1-1.6zm2.6-39.3l1.7.5 3.2 3.6 1.5 3-2.4-1.3-2.2-2.2zm.3 34.5l.7.1-.2.7zm1.2 2h.3zm.3-18.7l2-.1 2.5-.2 2.7 1.6 1.3.2 3-1.6 3-1.4 2.4-2.5 1.2.3.5.2.4.8 3.2-2.6-.5 2-2.7 2.1-.3 2.6v1.3l-4.7.6h-2.6l-4.5 3-1-2-2.3 1.4-.9 1.1-.4-1.3-.9-3.5-1.3-2zm.5 18l.6-.3.2.3zm2.2-.6l.5.3-.5-.2zm1 1.6l2-1.3 1.2.2-3.2 1.2zm.4-6.5v-.3l2.3-4-2.3 4.5zm2.9 4.5l.3-.6 2.9-3.2.6 1.3-.4.8.5 2-3 .9-1-1.2zm1.6-10.3l.5-.6 1-.5-1.4 1.1zm.2 2.8l2.1-2.8-2 2.8zm2.4-2.6l1.3-.2zm13.9-12.8l1-2M448 198.7l3.2 2.4 2.9.9 3.6.3 1.2 1.5.3-2.8h2l-3 4.4 1.2 3.9 2.3 7 9.7-5.4 8.7-9.2 3.9-12-9-6-7.3-2.7-2.9-1.8-4.2 4.8-2.1 5.4 1.9 1.8 2.6-2.2 1.6.5 2.8-3.9 5.7 2.2 1.2 2.6-2 5-2.7 1.3-2.4 1.3-.9 4-.8-4-2.9 2-1-3.7-1-.8v-3.2l-3.6 1.5.2 3.4-6-.5-2.2 1.5zm5-1v.2zm2 1.9l2 .1h-1.7zm1.5 2.4v.3zm1-1.2h.5l.3.8zm2-5.6l.3.1zm.1 3.5" class="B"/><path d="M452.5 109.7l.7 1.7 6.1 1.6.4 2.6-5.7.4 5 2.6-4.5 2 7.2 1.2-1 3.2-2.1.7 5.3 1.4 4.8 3.1 5.3.6-3.1-2.7 5.9-.1 5.9-.1-5.7-2.9-5.4-2.6-4-1.5-1.8-.3-2.5-7 3.7-4.9-1.3 3.4 3.2 3.7 1.5-4 2.8 4 2.8-1.6 2 8.3 4.8-1.1-2.1-6 .7-4.9-6-1.1.9-3.2-1.3-4.2-2.5-1.5-2.7-1.1-1.1-2.7-2.7 3.3-3.2-5.4-3 6.6-2.9-1.2-2.7-.7 6.4 4-2.4.6 5 4.4-6.2 2zm-52.7 116.6l11.6-2.3 6.8-2.4-.5 4.8-1.7 2.9 1.5 2 4.3-.3 1.5 3-3 .7.7 2.7-3.4-3.2 1.4 3.4-3 .6h6.4l3.6.7-4.7.9.7 1.5-2.6.9-1.3 1.3-2.1 1.2 3.2 1.7.8-.4 1.9-1.2 1.8 3.3 1.4-1.7.9-4.7 1.8.3 2.4 2.9 2-.8-3.4-3.7-1-2 1.4-3.2.7-2.4-3.9.7 4.4-2.2 5.3-.7-3.3-1.4-3-1.2 9.1 1.5-4.5-4.8-4.1.5 4.3-3.7-1-2 5.3-5.9-2.9-.4-2.2-.8-1.8 1.3-1.6-1-1.3 6.3-.8 6.2-3.5 2.2 2.5-7.9.6-6.2-1.4 5.4-1.1 1.1-3.6-2.2 4-5.8-5.4-1.3-.4 6-2-1.5-1.2-1.9-2.8-.6-.8 1.4 1.1 3 5.5 3.4-6.6-1.3-2-1.3-1.8-.6-3 3.6.9 2-6.7 2.4zm0 0" class="E"/><path d="M392.4 178.9l11 8.7 6.8.4 4.2-3.2 6.6-2.8 2.2-5 .8-6.9-2.6-5.3 1.2 6.4-2.6-3.7.7 5.2-3.4 3.6v-2.9l-3.1-1.9-1.4 1-2.8 1.3-1.7-2.3-12.3 2.8zm13.4 2.5l.8-.2zm.3-1.2h.3zm.3 2l.6-1 .9 1.1-1.1-.1zm4-1.5v.1zm1.1.3h1.7l-1.2.4zm.3-1.4l.4-.3.3.2.1.3-.2.5h-.2l-.4-.1zm0 0" class="B"/><path d="M464 160.6l11.2 4 .6-4.2-1.7-1.8 8.4.1-3.6-6.7-6.2.9.7-4.9 7.2-2 10.1 1.9-3.2-6.8-9.2-.6-5.7.8-2.3 3.2-1.6 3.5-4 9.1zm0 0" class="E"/><path d="M462.6 216.9l12 5.4 7.4 1.6 5.2 1.2.4-4.1 2.6-4.5 3.7-3.6 1.8-2.7-.4-4-5.1-3.4-3.6 2.8 2.7 4-3.1-1.6-10.4 4.3-6.9 4.5zm0 0" class="B"/><path d="M419.8 150.4l7.6 8.2 2-2.6-.8-1.3 4.2.5-.2 2.1 4.5.5 4.9-6.1.3-6.4-3.2-6.3h-6.3l-3.5 3-1.5 6.4-6.7-.5zm5.3-22.1l3.3 7.5 4.9 1.5 5.7 1.7h10.8l-.2-6.6-1.5-2.2.2-4-1.3-1.8V121l-3-.3-1.6 7.7-1.4-3.3-4-3.3 2.9 4.9-5-3.3 1.4 6.9-4.8-.9-.4 3.7 1.9 3-3.9-5.5-3.5-3.6zm0 0" class="E"/><path d="M446 204.6l3 7 4.5 4.8 3.5 1.6 1.6 2 4.1 5.5 4.7.1 2.1 1.4 2.2 1.9 2.2 4.1 4.8-.6-2.5-2.4H473l-1.7-5.2-3.8-3.1-4.7-3.3-5-2.9-4.2-3.5-1.4-5-3.3-4.2-2.2 1zm0 0" class="B"/><path d="M452.4 123l2.2 11.3-.4 8.7 6.2 3.6 4-6.8-5.9-1-.3-4.5 8 2.3 6.8-.6-7.2-5-7.8.2-2.7-5.8zm0 0" class="E"/><path d="M462.2 264.6l3.5 2.6 1.7.4.6.5 1.4.4-.2 1.5 1.6-1.5-.2-2.1 1.3-1.4.1-.6 1 .1.3-1.1-.2-3.4v-3.5l1.6-3.5-.6-5 .3-3.9-1.4-3.8-.4.4-.8 2.1-2.8 1.7.3 1.6 3.7 1.9-3.5 3-1 .5v.7l-.1 1.5-2.2 4.3v3.4l-1.6.3-.4 2.3-1.4-2.9-.4 3.1zm6.4-13l.4.1h-.4zm0-.6v.4zm.4.8h2.2l-2.2.2zm.2-7.2v.3zm0 .3h.5l-.4.3zm.2.4l.2.2h-.2zm-.1.3v.1zm0 .1l1 .1h-.9zm.1.3l.1.2zm.1.2l1.5.3h-1.5zm-.1.4v.4zm.1.4l.2.3zm.2-2.8v.3zm.1-.4v.3zm.2-.2l.5.1h-.5zm.2 7.4v.2zm0 .2v.3zm.3-4.7h.5l-.4.3zm.9 4.2" class="B"/><path d="M403.4 167.4l7.4 1.7-1 6.3 2.4-4.4 4.8-1.7 1-3.4 3.4-4.6 3.4 4.9-1-4.6 2.8-3.7-4.5-5.6-1.7.5-2.8 1.4-3 2.1 3.8 3-1.3 2.4h-6l5.9 1.8-6.7.2 3.3 3-4.7-1-4.5 1zm43.4 15.4l3.2 5.9.7 2.2 1.3 3.1 1.7 2.6 4.6.7-2-4.3 4.9-.3-.7 3.6 1.2 1.2 2.3 4.1 4.5-4.8-3.5-2.8-4.1-5 .8 2.5-2.8-1.2-2.8-.4-.3-1.7-1.9-.8-1.6-.6-1.3-1 1.5-1.1 4.3.5 3.8-1.2-5.3.6-2.4-1.1-3.3-1.1-2.7-.1zm0 0" class="E"/><path d="M444.4 174.5l1.5 4 2.8 4.9 2.3-1.5 3.8.4 2.8 2.3 6.7-6.4-5-3.6v3.2l-3.7-1.2-1.8-2.9-2.4 3.3-1.3-2.1 1.7-2.5v-1.8l-3.6 2.5-2.5.4zm0 0" class="B"/><path d="M423.8 191.5l4.4-.4-.6 2.6h1.4l2.4 2.3-.6 1.7 2 1-.3 1.7 2.2.6 2.5-.6-3.7-4.5 5.2-1.4-1.4-1.3-1.5-1-1.8-.8.3-1.7 2-3 2.1-.7 1.4-2.3-.9.9-2.4-2.3-2 1.5-.5 1.8-1.3 1-2.1-1.1-1.4.7-1.8 2.6-1.3-2.4-1.5-1.3-.6 4.9v1zm25.6-18.1l2.9 3.9 2.3-4.3 2.2 5.1 3.6-1.1-2.1-3.4 2-1 .2-2.3 3.6.2-1.1-2.9-4.7-3.5-1.8 2.4-2.5.7 2.4.8-1.6 2-3.7-.3.2 2.6-1.4 1zm0 0" class="E"/><path d="M420.3 161.8l4.7 6.4-1.8 6.6v2.1l.2 4.1h1.9l7-2 3.3-6.4-2.7-6-5.5.6-4.8-4-.9-.8zm5 17.5l3.7-3.7.8 4.5H426zm1-5.3l.8-2.3 2.3-5.2-1.8 5.4-1.2 2.1zm1.5-.2l1.2-2.7.8-2.9 4-.4v4l-2.3 4.4-1-.8-.5-.4-1.5-.1-.2-.5zm0 0" class="B"/><path d="M400.9 230.1l1.9.3 1.7 3 6.2-2.6-5.5 4 5.2 1.1 2.5-2.9 1.3-2.3-3.7-5.3-2.7.1-2.3 1.7-4.5 2.4zm0 0" class="E"/><path d="M453 211l4.2 4 5.4 3.2 4.7 3.4 4.5 3.5 3 4 4.3 2.4 1 .1 1.6-2.1-.7-1.1v-.2l.9-1.5 1.5 1.9 3.7-3.1-2.9-1.4-3.6 1.9-4 1.4-2.3-2.4-3.8-2.9-4-2.4-3.8-2.3-3.3-2-3.8-3.4zm32.4 13.7h.8" class="B"/><path d="M452 155.6h8.8l-2.1-7.2-5.7 2.6zm-24.6 48.7l6.2 2.2 2.2 1 3 2.2.7.9.7-.8 3.5-.3-4.7-4.2 2.5-2.2 2.7.5-3.6-2.4-4.4 2.8-2.7-.3-4.9.3zm-20.6-7l5.2.9 2 .3-1 2.5 3.6-.6 3.8-4.2-2-1.6v-2l-2.5-1.3-.9-4.5-.3 2-1.6.4 1.9 3.6.6 2-.5 2.4-3.8-2.4-.2 1.3-3.9-.3zm39-34.4l4-.3 2.7.4 3.3-1 3.6 1.1 2.5 1.9-.2-4.3v-2l-2.7-.9-2.7 1.2-2.4 1.2-1.6-1.4-.9.9-3.6 2.2-1.2.3-.6.5zm41.4-30.5l2.5 4.7 2.7 3.4-.2-1.4-1-1-.2-1.9 1.4-4.5 2.6-3.8-5-.3-.6-2.3-1.5 3-.7 3.7zm0 0" class="E"/><path d="M429.2 182.4l1.4 5 2 .6 2-.9-1-4.1 3.1.9 1 .2 1.3-2.2V180l-4.7-1.3-4 3.1zm6.7 9.1l4-.2 2 2.7 2.4.8-2.3 1.2 2.6 2.4.3 3.2 2.6 1.2-.5-4-1.6-.6-.1-1.5-2.8-4.5 2.5 3.7 3.1 5.1-.7-5.2-1.1-2.5-3-2.6-1.8 1-4.9-.4zm0 0" class="B"/><path d="M493 123.2l3.2 2.2v4.4l5 .7-1.7-2.3v-2l.3-2-.8-1.2-.3-2.4.7-1.1-3.1 2.2-2.6-2.1-.5 3.2zm-69.1 37.2l4 4 2.1.1 1.3-3.6 4.4 3.4V162l-3.7-3 .8-3.8-3.6-.5 2.1 4.8-3.3-.3-3.7.8zm19 .4l6.6-.7 1-5.5-2.8.2-3.6 2.6zm-3.9 6.9l3.2.8 4-1.7.7 2.7-3.1 1.5 2-.4 3.5-3.3-2.1-3.5-2.4-.1-1.5.3-2.3 2-.4 1-1.3.9zm0 0" class="E"/><path d="M449.6 184.4l3.6 2.1.8.9 1.8.8-.3 2.2 3-4-4.2-1.7-4.3-.9zm23.2 54.6l.9 3.4 1 1.6 1.3-1 .9-2 .2-.3V239l-.1-1h.8l-.3.5 1.4-1.5h-2.5l-1.5 1.8-2 .2zm.5.9h.2zm1.6-.9v.1zm.4 3.3l.8-.7-.8.8zm.4-2.6l.2-.2v.3h-.2v.1h-.1zM380.3 89.3l.2 1.6v1.3l2.1.4V91l-.8.6.1-1.5-.1-2.8.5-1.7 1.3-1.3-.1-1.2.4-.7 1.4-1.1-.9-1.1-1.4.1-.6 3-.9 2.2-.8 1 .7.8-1 1v.9zm1.5 3.1h.4-.3zm67.6 110.1l4.6 4.3.9-1.6-1.6-4-3.7 1zm16.1 16.1l3.6 3.1 3.9 2.5 2.8 3.2.8-1.9-3.6-2.8-3.8-2.2-3.7-2zM441 172l5 .5 3.4-5.2-3.7 3.3-4.6 1.2zm-3.5 16.9l3.4 1.8.6-2.5-1.5-.7-2.2 1.5zm14.3 17.2l1.9 5 1.7-1.1-2-3.2-1.6-.8zm-20.3-42l2.6 2.5.8-3.2-2.8-.4zm0 0" class="B"/><path d="M462.7 261.2l2.4 2.2.7-2.3h-3zm0 0" class="F"/><path d="M441.9 188.1l3.4-1h-2.8zm0 0" class="E"/><path d="M440 176l5 1-4-2.1-.8 1.1zm-5.4 2l2.3-3.4-1.7 2-.6 1zm-82.9 4v-.2zm0-.3l3.1.8-.4-1.7-.2.7-2-.4-.4.7zm89.9-10l4.2-1.3.4-2.7-4.4 3.6zm0 0" class="B"/><path d="M426.6 179.8l3-2.5-2.3 1-.6 1.2zm5.1-15.1l2-1.5-1.8 1zm0 0" class="E"/><path d="M371.5 163.7l1.5 2.7 1 .7.1-3.3-1.3-1.2-1 .9zm-10.7 19.4l3-.5 1-1.3-.2-.5-1.2 1.8-1.4-.1-1.2.5zm113 54.2l4-1 1.2-1.4-1.2.6-1.5.7-.7.4-1 .4h-.7zm6.1-2.3" class="B"/><path d="M428.4 172.4l3.4.2-2-.6h-1.3zm29.9 26.9h.3zm0 0" class="E"/><path d="M472.1 221.8l3.5 3-3.2-3h-.2zm-41.3-57.6l1.6 1.4-1.1-1.4zm6.2 4.5l1-.9-1 .6zm0 0" class="B"/><path d="M406.4 182.2l1.8-1.2-1.7 1zm14.6-13.8v-1zm0 0" class="E"/><path d="M487.2 225.2l.3-.7-.2.5zM380 186l1.6 1.1-1-1.5zm.4 0" class="B"/><path d="M481.4 231.6l.2-.5zm0 0" class="H"/><path d="M378.9 209.6l1.6.6zm.6.3l.2-.1-.2.2zm-2.4-22.9l1.4.2.9.3-2.4-.5zm.5.4l.1-.1h-.1zm-13-11.2l1-.4zm.1-.2h.1zm.6-.4h.2zm.1 0" class="B"/><path d="M474 235.3l.5-.3zm0 0" class="F"/><path d="M361.2 174.8l.4-1.2zm18 12.3h.2zm60.2-15.1l.1-.4zm-2.4-1v-.1zm-70.7 6l.9 1.6-.3-1zm.4.4v.2zm.5.5" class="B"/><path d="M411.5 181h.5zm0 0" class="E"/><path d="M475.4 235.6l.8-.4zm0 0" class="F"/><path d="M477.3 234.4l.2-.2zm0 0" class="B"/><path d="M453 275h.4zm-.1.3l.2-.3zm0 0" class="F"/><path d="M377 213.1h.7zm0 0" class="B"/><path d="M453.3 274.9h.3zm0 0" class="F"/><path d="M382.3 185h.5zm.5 1" class="B"/><path d="M452.7 275.6l.1-.2zm0 0" class="F"/><path d="M363 180.6l.5-.3zm.3-.2" class="B"/><path d="M449.4 279.8h.1zm0 0" class="H"/><path d="M438 172.3l.3-.2zm-75.6 2.7v-.3zm0 0" class="B"/><path d="M411.8 179.6l.4-.3zm0 0" class="E"/><path d="M376.5 211.6l.3-.2zm.3-1.1" class="B"/><path d="M469 251.8h.2zm2.5-.7h.5zm0 0" class="F"/><path d="M372 165l.2.7-.3-.7zm0 0" class="B"/><path d="M451.7 276.8h.3zm19.7-26.1h.5zm-19 27.6l.2-.1zm16.2-26.8h.4zm.8-5.3h.6zm.4 1.5h.2zm1.5-.1h.1zm-.3 1.6h.5zm.6-1.7h.1zm-.7.1h.1zm-1.6-2.3l.6-.1zm2.7 2.2h.3zm-1.8.2h.3zm.4 0h.2zm.1 1.5h.3zm.8-.1h.3zm-2.2-4.1l.3-.2zm-.6 6h.7zm1-1.7h.3zm.3 0h.3zm.4 0h.3zm-.9-2.3h.5zm3 2h.3zm0 0" class="F"/><path d="M448.6 166.4l.1-.2zm0 0" class="B"/><path d="M472.6 247.5h.4zm-.8 1.6h.3zM452.9 279l.1-.3zm16.5-33l.6-.2zm0 0" class="F"/><path d="M469.1 249.3l.1-.4zm0 0" class="B"/><path d="M462.6 263.9l.5-.5zm0 0" class="F"/><path d="M481.3 233.4v-.1zm0 0" class="B"/><path d="M470.2 251.2h.6zm0-.3l.7-.1zm-.6-6.7h.4zm4.1-9.8l.3.8.4-.2-.6-.7zM453.3 279h.2zm16.5-35.2h.4zm5.4-7.8l.3-.2zm-5.8 9.7h.2zm-.1-.1h.5zm.2 1v.4h.5v-.4zm.5-3h.4zm0 0" class="F"/><path d="M466.1 262l.1-.1zm0 0" class="H"/><path d="M470.5 246.5v.3h.5v-.3zm0 0" class="F"/><path fill="#c8d7ab" d="M471.8 249h.3zm-7.5 13l.1-.2zm0 0"/><path d="M482.6 231.7l.3-.2zm0 0" class="H"/><path d="M362.1 176v-.2zm0 0" class="B"/><path d="M486.5 122l.2-.2zm0 0" class="H"/></g><path fill="none" d="M435 146.1l1.7.4v-3L435 146zm.9-1.7h.1zm.7.4h.2zm0 0" class="I"/><path d="M435 146.1l1.7.4v-3L435 146zm.9-1.7h.1zm.7.4h.2zm0 0" class="G J"/><path fill="none" d="M429 147.5l3.8 1.5 1.6-.8h-2.6zm5.2.2l.2-.2h-.2zm.4.1" class="I"/><path d="M429 147.5l3.8 1.5 1.6-.8h-2.6zm5.2.2l.2-.2h-.2zm.4.1" class="G J"/><path fill="none" d="M430.6 145.5l4.3 1.8-1.3-1.5-3-.4zm0 0" class="I"/><path d="M430.6 145.5l4.3 1.8-1.3-1.5-3-.4zm0 0" class="G J"/><path fill="none" d="M433.8 150.2l1.7-2.2zm0 0" class="I"/><g class="G"><path d="M433.8 150.2l1.7-2.2zm0 0" class="J"/><g fill="#aad3df"><path d="M350.4 70.4h.3v.3h.3l.4.3h.1v.2h.5l.4-.2h.5l.3-.3.1.5v.1h-.3l-.3.4-.2.5-.2.6v1.4l.2.1v.1h.1l.7.4.1.2v.4l.2.3.2.1.2.2.3.1h.2l.5-.1h.1v-.8h-.1l-.1-.2h.5l.1.3.5.4.1.3-.1.2h-.6l-.2.2v.9h1.1v.2h-.5l-.4.5v1l.5.1h.1l.1-.3v-.3l.2-.2h.4v.3h.2l.2.2h.4l.1-.2.2-.1v-.1h.3l.1.1h.2l.2.3v.2-.4l-.2-.1h-.1l-.3-.3h-.2v.3h-.2v.1h-.6l-.1-.1-.1-.1h-.1v-.2h-.6v.7l-.1.1h-.4l-.1-.1V78l.1-.1.6-.3h.2v-.5l-.4-.1h-.7v-.6l.3-.3.2.2h.3l.1-.3v-.2l-.2-.2h-.2l-.1-.3-.2-.2-.1-.1-.4-.1-.2.1v.3l.2.2v.3l-.4.2h-.5l-.2-.2-.3-.1v-.2l-.1-.3v-.8l-.2-.2v-.1h-.6l-.1.3-.3-.4v-.2l.3-.5v-.9l.3-.6.2-.2h.3v-.9h-1.2l-.2.3h-.5v-.1l-.3-.2-.3-.4-.1-.2V70h.2l.6-.7h.3l.2.2.1.3h.1v.3l.3.1h.1l.2.2h.1l.3-.4.1-.1.3-.2v-.1l.7-.6h.2v-.5h-.1v-.1h-.2l-.1-.2-.2-.2-.5-.3h-.1l-.2-.3h-.9l-.2-.2-.1-.2v-.5l.4-.2h.5v-.2h.1v-.7l-.1-.1h-.3l-.1-.3h-.7l-.3-.4-.1-.1v-.1l.2-.2.2-.2v-.1l.4-.5v-.1l.1-.3.2-.3v-.8l.8-.3.2-.2.4-.7-.1-.3-.2-.1-.3-.3-.2-.2-.1-.1v-1l-.3-.2v-.2l-.1-.1-.3-.2h-.3v-.8l.3-.2.2-.2.1-.2.2-.2.2-.4v-.4h.2V55l-.4-.2v-.3l.3-.2.5-.3.1-.3h.7v-.3h.3v-.1l.2-.3.1-.2v-.2l-.7-.6.3-.2.3-.4v-.1l.3-.1V51h.2v-.1l.2-.1h.1l.1-.3h.3l.3-.2v-.1h.1V50h.2v-.7h.1l.3-.1.6-.2-.2-.4-.1-.4h-.5l-.3.3-.5.3-.5.5-.2.1-.4.8v.2l-.2.5h-.1l-.2.3-.1.2-.1.1-.3.5v.2l-.2.4-.5.9-.1.2-.4.3h-.2v.3l-.1.7v1l-.3.2v.1l-.2.2-.1.3v.2l-.1.4v.4l.2.2.4.4.2.4v.8l.2.4.2.3.2.2v.3l-.4.2h-.2l-.2.3-.2.4v1.1l-.4.1-.2.2-.2.4v.2l-.1.2v.6l.2.5.1.1.5.2h.5v.2h.2v.5h-.2l-.3.2h-.3l-.2.2h-.1l-.1.3v.3l.4.2.3.3v.1h.1l.2.2h.8l.4.2.2.2.2.1.3.3v.2l-.5.3-.4.1-.3.8-.3.1h-.2l-.3-.1-.1-.2v-.2l-.3-.2v-.2h-.1V69h-.4l-.1.2-.2.3h-.6v.3l-.3.2zm1-6l.1-.7.1-.2h.2l.3-.1-.1.2-.2.1-.1.3zm.3-1.1v.1l.5-.4-.2.3-.2.2zm.5-6.5l.2-.4v.3zm.1 5.4h.2v.2-.3zm0 4.1h.3l.2-.3.2-.3v.6h-.6zm.2-4.6v-.3l.3-.1.4-.1.2-.1h.2l-.2.3-.2.1h-.1l-.5.3zm.3 12.6h.1l.2-.2h.2l.1.4v.2zm0-14.7v-.7h.2v.6zm.4.4l.3.2.1.2.1.2.1.2h-.3v-.2l-.1-.3h-.1zm.7-6.7l.2-.4v-.1h.2v.6h-.3zm2.3 24.2h.2zM328.3 175v.3h.2v.4-.5h.3v-.2h-.3v-.2h-.1v-.1h-.1v-.2h.4v.3-.4h.1V173h.1v-.2h-.3v-.6h-.1v-.2h.3v-.6h.1v-1.2h.1v-.4h.2v-.4h.1v-1.3.4l.1-.3v-.9h.1v-.3h.2v-.3h.1v-.3h.1v-.1h.1v-.3h-.3v-.3l.3-.1v-1.5h-.3v-.1h.3v-1.3.3-.3h.2v-.2l.1-.1v-.1l.1-.1v-.5h.2v-.1l.1-.1v-.4h.1v-.6h.1v-.5h-.3v-.3h-.1v-.4l-.1-.1v-.2h.3v-1.4h.1v-.8l.1-.1v-1h.1v-1.6h.2v-.8h.1v-.3l.1-.2v-.3h.1v-.1h.1v-.1h.1v-.2h.1v-.3h.1v-1.1h.1v-.6h-.3v-.3h.3l.2-.1v-.4h-.4v-.7h.2v-1.2h.2v-1.3h.1v-.4h-.3v-.7.3h-.2v.3h-.1v.4h-.1v1.2h-.1v.8h-.1v-.6l-.1.3v2.6h-.1v.7h-.1v1.4h-.1v2.2l-.2.1v.7h-.1v.6h-.1v.8h-.1v.8h-.1v.4h-.1v.8h-.1v.1h.3v.1h-.3v.3h-.1v.9h.3v.1h-.3v.2h-.1v1.1h-.2v.6h-.1v.8h-.1v.4h-.1v.5h-.1v.6h-.1v.9h-.1v.9h.3-.4v.2h-.1v1.5h.2v.2h-.2v.6h-.2v.5h-.1v.7l-.1.2v.8h-.1v1h-.1v1.6h-.1v.9h-.1v.5zm.3-1.2h.2zm.4-4.4h.2v.3h-.2zm.1-2.1h.2zm.4-1.5v.2zm2.1-17.6v-1h.2v-.6h.1v.9h-.3v.5h-.1v.4-.3h.3v.4h-.3v-.3zm0 1.1l.2.2zm.1-3v-.2h.2v.4zm0 3.4l.2-.2h.1v.3h-.3zm0-3.7h.2v-.5h.1v-.1.6zm54.4-123.7l.3.2.3.2.3-.4.3-.2h.3l.8 1.3.1.2v.1h.2v.1l.7.3v.2h.1v.1h.2v.1h.1l.3.5.4.8v.2h.3v.2l.2.2h.3v.4h-.5v-.3h-.2v-.1h-.1l-.1-.2h-.6l-.4.2h-.4l-.4.3-.2.2h-.2v.3l-.1.3.3.5.1.2.5.2v.2h.3v.1h.4l.2-.2.6-.4.8.2h.4v.2h.3v.3l.1.2-.1.6v.4h-.3v.1l-.1.2-.3.7.2.6v.4l.2.4v.2l.3.2.2.2h.1l.4.3.2.2v.1h.3v.2h.2v.2h.1v.2h.2l.3.5v.3l-.4.3v.5h.4l.3.2-.1-.2h-.2v-.3h-.2v-.2l.3-.3v-.4l-.3-.5-.2-.4-.3-.1v-.1h-.2v-.2l-.2-.2h-.2l-.2-.3h-.1v-.1h-.4l-.2-.5-.2-.4.2.2-.2-1 .4-.8v-.4l.3-.3.1-.5v-.2l-.4-.3v-.2h-.2l-.1-.1-.5-.4h-.5l-.6.2-.7.3h-.1l-.7-.3-.1-.3.1-.3.1-.1.3-.3h.4v.1h.3l.1-.1.2-.3.1-.2h.2l.2.3h.2l.4.2.2-.1.2-.4v-.2l-.2-.2h-.2l-.1-.3v-.1h-.1v-.1l-.2-.1-.2-.3v-.5l-.1-.5-.3-.2-.2-.1-.6-.3-.1-.2-.2-.3-.3-.2h-.1v-.2l-.3-.3V22l-.2-.2-.2-.2h-1l-.2.1-.1.1h-.2l-.2.4zm2.2 5.2V27l.3-.1v-.1l.2-.2h.6l-.8.4h-.1v.3h-.1l-.1.1zm.1-4.6h.2l.3.4h-.3l-.1-.2V23zm1 4.1l.3-.5h.1v.3l-.1.2h-.2v-.2h-.2zm.2-3.2l.6.5v.1l.3.1v.5h-.2v-.3h-.2l-.1-.2-.2-.1-.1-.1v-.2l-.2-.1zm.9 4.2h.5l.2.2v.1h-.8zm.4-2l.1.3v-.2h-.1zm0 2h.4v.2l-.3-.2zM337 254v1.4h.2v.4h.1v.9h.1v.7h.1v.5h.1v.5h.1v1h.2v.5l.1.1v.7l.2.2v.1h.1v1.2h.1v.5h.1v.6h.1v.4h.1v.5h.1v.4h.1v.4h.1v1h.2v.5h.1v.2l.1.1v.6h.1v.4h.1v.4h.1v.5l.1.1v.2l.1.2v.4l.1.1v.3l-.2-.2v.2h.2v-.1l.2.1v.2h-.2v.3l.2.1v.4h.1v.3h.4-.4v-.3h-.1v-.4h-.1v-1l-.1-.2v-.2.2-.3h-.2v-.5h-.2v-.8l-.2-.4v-.4h-.1v-.4l-.1-.2v-1.6h-.1l-.1-.1v-1.2h-.2v-.1h-.1v-.2h.5v-.2h-.2v-.7h-.2v-.2h.4v-.1h.2-.4v-.9l.2-.3v-.1h-.4v-.9h-.1l-.1-.1h-.1v-.1h-.1v-.4h-.3v-.4h-.1v-.1h-.2v-.2l.2-.1v-.4h-.3v-2.4h-.1v-.1h-.1v-.5h-.2v-1h-.1v-.2h-.1v-.4h-.1v-.4.8-.1zm141.7-18.2v.2h.4l.1.1v.1h.1v.3h.4v-.3h.1v-.7l.2-.2h.3v.3h-.3l-.2.1h.7v-.3h.2v-.5l-.1-.3-.1-.2v-.2h.4v.2h.1v.1h.2v.1h.2v-.4h.1v-.4h-.4v-.3l.5-.1h.2l.2-.3h.2v-.3h1v-.2h.2v-.1l.1-.2v-.5h.4v.2h.2l.2-.3h.3v-.3h.1v-.2h.1l.2-.2h.7l.3-.1.1-.3v-.6h.2l.1.1.2.2v.1h.1v.2h.4l.2-.3h.2l.3-.2v-.4l.2-.1v-.2h.3v-.2h.1v-.4h.1v.2h.2l.1-.3v-.7l.2-.2v-.4l-.2-.2h-.3v-.2l-.2-.1v-.3h.7v.3h.6l.2-.2v-1.2h.2l.1-.1.1-.1v-.4l-.2-.1h-.6v-.1l-.2-.1v-.2l.3-.2h.6l.2.2h.5v-.6l-.2-.2v-.4h.2l.2-.2.2-.3v-.2l-.3-.1h-.3l-.1.1h-.3l-.2-.2v-.3h1v-.5h-.6l-.1-.2h-.1v-.3h.2l.3-.1v-.4l-.2-.1v-.4l.1-.2.1-.1.3-.2v-.9h.5l.2-.1h.3v-.4l-.3-.3-.2-.1v-.2l-.1-.2v-.2h.9l.1-.1v-.1l.2-.1v-.1l-.2-.1h-.2v-.4h.3v.2h.3v.2l.2-.2v-.1h.4v-.2h.2v-.1h.4v-.3l-.1-.1-.1-.2-.2-.2v-.2l.2-.3h.3l.1-.2.1-.1v-.3h.3l.1-.1h.1l.2.2.1.2v.6h.4l.1-.2v-.1l.3-.2v-.1l.1-.2h.3v-.2l.2-.1v-.3l-.3-.1v-.3l.3-.2h.2l.3-.2v-.3h-.3l-.1-.1v-.2h-.2v-.3l.3-.1v-1l.1-.2h.1l.1-.2h.2l.2.3v.2h.2l.1.1h.3l.2-.1v-.1l.2-.1v-.4l-.4-.3v-.1h-.2v-.3h-.1l-.1-.2h-.1v-.5l.3-.2v-.5l.2-.2v-.4h-.1v-.1l-.2-.1v-.4l-.3-.3h-.2v-.1h-.3l-.3-.2v-.2h.2l.2-.2h.2l.2.3h.6l.1-.1.2-.2h.1v-.5l-.1-.1-.3-.1-.2-.3h-.2l-.2-.3-.3-.3v-.4h1.2l.2-.1v-.2l.2-.1v-.4l-.3-.2v-.6l.2-.1h.4v-.3l.3-.1.1-.2v-.1l-.3-.2-.1-.2-.2-.2v-.4l.3-.2.1-.1.3-.1.2-.2h.2l.2.2.2.1h.4v-.1h.1v-.2.1h-.3v.3h-.1l-.2-.2-.2-.2h-.6l-.2.3h-.1l-.3.3v.6l.2.2v.6h-.2v.3h-.4v.3l-.2.1v.3l.4.2v.6h-1.3v.3l-.3.1v.3l.3.2.2.3.3.2.3.2.1.1v.1l.2.1v.3h-.1l-.3.2h-.5l-.1-.2h-.6l-.2.1v.5l.2.1h.4l.1.2h.2l.2.1v.5l.2.1.1.1v.1l-.3.2v.7h-.2v.2l-.1.1v.7h.3l.1.1.1.2h.1l.1.3.1.1v.3l-.1.1-.2.2h-.3v-.2l-.2-.2v-.1h-.8v.4h-.1v1.1l-.2.1v.4h.4l.1.1v.2h-.1l-.2.2h-.2l-.1.2v.5h.2v.4h-.5l-.1.3-.1.1-.1.2-.1.1-.1.1h-.1v-.6l-.3-.2-.1-.1h-.6v.5h-.2l-.1.1-.2.3-.2.1v.5l.4.2v.2l-.2.1h-.3v.2h-.5l-.1.1-.1.1h-.3v-.2h-.3v.4l.3.2v.2h-1v.8l.2.2v.4l-.2.1h-.7v1l-.2.2-.1.1v.2h-.2v.5h.2v.3h-.2l-.1.2h-.2v.3l.2.3h.1v.1h.7v.1l-.2.2h-.8v.5l.3.1h.3v-.2h.4v.4l-.2.2v.1l-.3.1v.2l-.1.2v.1l.2.1v.2h.2v.3h-.5l-.1-.2h-.5l-.1-.1h-.2v.1l-.2.3v.4h.8l.1.2.2.1v.2h-.4v.2h-.3l-.1.1v.7l.3.1v.2h-.2l-.2.2h-.4v-.4h-.7l-.1.4v.2h.2l.2.3.3.2v.2l-.3.2h-.2v.1h-.1v.4h-.1v.1l-.2.1v.4h.3v.2l-.3.2-.1.1h-.5v.1l-.2.1v.3h.2v.2h-.2l-.1.1h-.4v-.3h-.7v.7h-.2v.3h-1.2v.1l-.1.1v.3h-.1v.1h-.1v.1h-.1v.3h-.2l-.2-.1-.1-.2-.2-.1h-.1v.3l-.1.1v.4l-.1.2h-.2v.1h-.5v.2h-.4l-.1.1-.1.1v.1h-.2l-.1.3h-.4v.9h-.2v-.1l-.3-.3h-.2v.4l-.2.3v.7h-.1v-.2h-.3l-.3.5-.1.1v.2h.3v.3h-.5l-.1-.1v-.2h-.1v-.2h-.3zm.8 0v-.2h.2v.3h-.3zm.8-1v-.3h.2v.4h.1v.1h-.3v-.3.3zm0 .6l.2-.3v-.1h.2v.5h-.4zm4.1-3.7v-.2h.1l.1-.1v.3h-.3v.1h-.1zm.2-.3v-.3l.2-.1-.2.3zm1.4-.6v-.2.3zm.3-.8h.3l.1.2v.1h-.4zm.3.3v.2h.6v.1h-.6v-.3h-.1zm0 0h.4zm.4 0h.2l.1-.2h.1v-.5h.1l.2-.2h.3l-.3.3-.1.2v.4h-.4v.1h-.1zm.1.1h.2zm1-1.8v-.2h.2l.1-.1v.5h-.3v-.3zm.2.1v-.2l.2-.1h.2v.5h-.4zm0-.3l.2-.2zm.1-.4l.1-.1h.3v-.1l.1-.2v.4h-.4v.2h-.2zm.1.4h.2v.2h-.2zm-.1 0v-.3h.3v.3zm.2-1.2h.2v.2h.1v.2-.3l-.3-.2zm0 1v-.2h.2zm.2-.8v.4zm.6-3.3h.1v-.1h.3-.3v.2zm2.2-5.6v-.7l.2.2h.2v.5zm1.1-2l.1-.2zm3.9-3.6h.1l.1-.2h.2v-.1.3zm1.1-4.9h.1v.3zm1.1-5.8h.2v-.5l.2-.1h.1v.3l-.2.1-.1.1v.1zm0 0"/><path d="M457.3 261v.2h.2v.2l.1.1v.2-.7h-.3v-.2h.3v.2h.1v-.4l.1-.1h.4l.1-.1v-.1h.1v-.2h.1v-.1h.3-.3v-.3l.3-.1h.2v-1.2h.3v-.4h.5v-.2h.1v-.2h-.3v-.1h.3v-.1h.3v-.1h.1v-.2h.1v-.1h.1l.1-.2v-.2h.4v-.6h.3v.3h.4v-.3h.1v-.2h.2v.4h.2v-.4h.4v-.3h.1v-.1h.1v.3h.5v-.6h-.3v-.1h.9v.2h.3v-.7h.1v.3h.4v-.3h.1v-.3h-.3v-.2h-.1.3v-.2h.6v-.4h.1v-.4h.1-.3v-.7h-.1v-.2h.5l.1.3h.1v-.4h.2v-.3h.2v-.1h-.2v-.3h-.2v-.2h.4v-.1h-.2l-.2-.2h-.1v-.1h-.2l-.1-.1v-.2h.3v-.3h-.7v-.5h.2v.3h.5v-.3h.1l.1-.1.1-.1v-.4h-.5v.2h-.3v-.4h.3v-.1h.1v-.4h-.4l-.1.3h-.1v-.4h.9v-.2h-.5l-.2-.2h-.2v-.1h-.5v-.1h-.1v-.3h1.2v-.3h-.3v-.3h.5l.1.3h.1v-.4l-.2-.1-.1-.1-.1-.1h-.2v-.1h-.1v-.2h.7v-.3h-.3l-.1-.1h-.2v.2h-.2v-.4h.8v-.4h-.3v-.3h.3v-.1h.2v-.2h.1v-.2h-.3l-.2.3h-.1v-.5h-.2v-.2l.3-.1h.4v-.4h.2v-.3h-.3l-.1-.2v-.1l.3-.1h.2v.2h.5l.2-.2v-.2h.1v-.1h.2v-.1h.1v-.5h.6v-.1h.1v-.1h.3v.4h.1v.1h.3v.3h.3v-.3h.1v-.2h.2v.5h.4v.3h.3v-.8h.5v-.2h-.3v-.2h.5v-.3h.3v-.3h.1v.2h.2v-.3h.2v-.1h-.3v-.1h.3l.1-.1h.1v.3h.3l.1-.3h.1v-.4h-.4v-.4h.9v-.1h.2v-.4h-.4v-.1h.6v-.2h.2v-.2l.2-.1h.4l.1-.1h.1v-.2h.2v-.2h.2l.1-.3v-.2h.1v-.2l.2-.1v-.1h.1v-.1h.4v.3l-.3.1v.2h.3v.1h.3v-.6h.2v-.1h.2v-.2h.1l.2-.1h.1v-.2h.1l.1-.1h.4l.2-.1.2-.1v.3h.1l.1.1v.2h-.4.4v-.4h.2v-.3h.1v-.1h.5v-.3h-.3v.3h-.3v.2h-.2.2v.3h-.4v-.3h-.4l-.2.3h-.5v.1h-.2v.2h-.1l-.1.2h-.3v.5l-.2.1h-.2v-.6h-.5v.2h-.1v.3l-.2.1v.3h-.1v.1h-.5v.1h-.1v.4h-.1l-.4.1-.1.1v.1l-.2.1h-.2l-.1.1h-.3v.3h.3v.4h-.9v.1h-.1v.2h.3v.2h.1v.3l-.3.1v.1h-.1v-.3h-.3v-.1h-.4v.5h.3v.2h-.6v.2h.3v.1h-.5v.3h-.3v.2h.3v.2h-.3v-.3h-.4v.8h-.1v-.5h-.4v.3h-.1v-.5h-.3v.3h-.2v-.4h-.4l-.1-.1-.1-.1h-.3v.3h-.1v.1h-.3l-.1-.3h-.1v.7h-.2v.1h-.2v.2l-.1.1h-.7v-.3h-.5l-.1.3v.1h.5v.4h.2v.2h-.4v.2l.2.1v.1h-.6v.1h-.1v.1h.2l.2.2v.3h.1v-.3h.2v.6l-.2.1h-.4v.3h.3v.1h.1v.3h-.8v.4h.3v-.3h.1v-.1h.1l.1.2.1.2v.2h-.6v.2h.3v.1h.2v.1h.1v.2h.1v.2h-.3v-.3h-.2v-.1h-.2v.6l.3.1v.1h-.3v.1h-.8v.4h.7v.1h.5l.1.2v.2l-.3-.2h-.5v.4h.4v-.3h.1v.6l-.3.1h-.1v.3h.6v-.3h.3v.6h-.4v.1l-.2.2h-.3v-.3h-.1v-.1h-.4v.5h.2v-.3h.2v.6h.3v.1h.4v.1h-.3v.4h.4l.1.1h.1v.2h-.3v.2h.3v.5l-.1.1h-.2v.3h-.1v.1h-.1v-.3h-.1l-.1-.1h-.2l-.1.3v.1h.3v.3h.1v.2h-.4v.1h.2v.2h.2v.1h-.4v.1h-.3.6v.6h-.3v-.3h-.5v.3h-.1v.7h-.1v.1h-.1v-.3h-.2v.7h-.3v-.2h-.7v.4h.3v.3h-.5v-.3h-.1v-.1h-.2v.3h-.2v.1h-.2v.1h-.1v.1h-.3v.1h-.1l-.1.2h-.2l-.1.1-.1-.3h-.1v.3h-.3v-.5h-.3v.3h-.2v.5h-.2v.4h-.2v.2h.2v.3h-.3v.1h-.1v.3l-.1.1h-.2v-.3h-.2v.7h-.1v.2h-.2v.1h-.1v.2h-.1v.1h-.1v.4h-.1v.1h-.1v.1h-.1v.1h.3v.1h-.3v.2h-.4v.2l.2.1-.2.1v.1h-.1v.1h-.2v.1h.3-.3v.2h-.1v.1h-.2zm.1.2h.2v.2zm.4-.7h.2v-.5.3l.2.1v.2h-.3zm.2-.5h.3v-.2l.1-.1v-.1h.3v.4h.1-.4l-.1.2v.1l-.1.1h-.1l-.1-.3zm.1.5h.2zm.3-1v-.2h.2v-.1.5h-.3zm.1.2v-.3h.2v-.3h.1v-.3h.1v.2h.1v.6h-.3v.1h-.1v.1h-.1zm.3-.1l.2-.2v.3h-.3zm0-.7v-.3h.2v.4zm.3-.5l.2-.2v.3zm.1-.4v-.2h.3-.4zm0 0h.2zm0 0h.3zm.4 0h.1v-.3h.1v.3h-.4zm.2-.5h.2v-.3h.2v-.1h.1v.4h-.3v.1h-.2zm.2-.5v-.2h.2v.5-.3zm0-.3h.2l.1-.2h.2v.4h-.5zm.1.4v-.3h.3v.2l-.3.2zm.1-.1h.2v-.2h.1v-.2h-.3v-.5h.3v-.1h.1l.1-.2h.1v.5h.1v.2h.1v.2h-.5v.1h-.1v.2h-.1v.2h-.2zm1.7-1v-.3zm.1-.1v-.2h.3v-.1h.2v-.1h.1v.4zm2-1.3v.3zm.5.1v-.3l.2-.1h.1v.3l-.3.1h-.1zm0-5.1h.5-.3v.3l-.1.1h-.1v-.3zm.1-1.9l.2.2h-.3zm.1 2h.3zm.3 3.3v-.2h.4v.4h-.4zm.5-5h.2zm0 2.8h.2zm.4-8.1v-.2h.9v.4h-.3v-.3h-.8zm-.1 4v-.2h.2v.4h-.2v-.3zm5.5-6.2v-.1l.2-.1h.2-.2l-.1.3v.1h.3v.1h-.4v-.2zm-130.6 33.3v.1h.2v.3h.1v.8h.2v.4l.1.1v.3l.2.5v.3l.2.4v.3l.1.3v.6l.2.2v.6l.1.3v.3h.1v-.6h-.2v-1.2h.3v.2h-.3v.4h.4v-.4l.1-.2-.2-.2-.1-.1-.2-.1v-1.9l-.3-.3-.1-.2v-.6h-.1v-.2h-.1v-.5h-.1l-.2-.3v-.3l.3-.1v-.2l-.4-.2v-.2.2l-.2.1v1.2zm1.5 5.8v.6l.2.4v.2-.8l-.2-.2zm-6.1-167.1v.2l.1.3h.3l.2-.2v-.6l.3-.5v-.5l.3-.7v-.4l-.1-.1h-.2v-.6l.1-.3v-.1l.2-.3.1-.2v-1.7l.2-.2v-.3l.1-.3v-.3l.3-.2v-.8l.2-.3v-.7.3l-.4.3v.7h-.1v-.3h-.1v.7l-.1.8-.2.7v.9l-.2.3v.1h-.1v.5l-.2.6-.2 1-.2 1.3-.2.4v.4zM355.7 86h.3l.2.1h.2l.2.2h.3V86h.1v-.2.4h.5V86h.1v-.4h.1v-.5h.1v-.3h.1v-.1h-.7v.3h-.2v-.5h.3v-.3l-.3-.1V84h-.7v.6l-.1.1v.3h-.2v.4h-.3v.3l-.1.2zm139.1 194v.2h.2v1.7h.2v.7h.2v.1h.3l.1-.3.1-.1h.5v-.1h.1v.3l.1.1h.2v.1h.2v.1h.3v.1h.4l.1.1h.6v.3h.2v.1h.1v.2h.3v.1h.4v.1l.2.1.2.1h.4v-.2l.1-.1v-.1h.3l.1.3h.1v.1h.2v-.7h.2v-.1h.1v.3h.2v.2h.1v.2h.1v.4h.3v.2l.1.1h.2v-.3l.2-.1v-.7h.2v.3h.1v.2h.1v.1l.1.1v1.5h-.2l-.1.1v.2l.3.2h.5v.2h-.4v.2h-.1v.3l.2.1h.1v.3h-.3v.1l.3.1h.1l.1.2.1.1v.2h.1v.3h.1v.1h.1l.1.1h-.2v-.3h-.1v-.1h-.1v-.3h-.1v-.2h-.1v-.1h-.1v-.2h-.2v-.5h-.1v-.3l.3-.1v-.1h.2v-.3h-.7l-.1-.1v-.3h.3v-1.5l-.2-.1v-.2h-.1v-.2h-.1l-.1-.1h-.3v1h-.2l-.2-.3h-.1v-.1l-.1-.1v-.2l-.1-.3h-.1v-.2h-.1v-.1h-.3v.6h-.2v.1h-.2l-.1-.3h-.4v.3h-.1v.1h-.4v-.3h-.1l-.1-.1v-.1h-.2v-.1h-.6v-.1l-.1-.1v-.1h-.1v-.1h-.4l-.2-.2h-.3l-.2-.1h-.2v-.1h-.1v-.1h-.5v-.1l-.1-.2h-.7l-.1.3v.1h-.3l-.1-.3v-.5h-.1v-.1l-.1-.2v-1.4l-.2-.1v-.2h.2v-.1h.2l.1-.1v-.4l.1-.2h.2l.1-.2h.1v-.7h-.3v-1h-.1v-.3h-.1v-1h.7l.1-.1v-.5h-.1v-.2h.2l.1-.2v-.4h-.3v-.3h.3v-.1h-.5v-.2h.2v-.5l.2-.1v-.1h.2v-.1h.1v-.7h-.3v-.3h.4v-.2h.2v-.1h.1v-.1h.1v-.3h.2v-.2l.1-.1h.2l.1-.2v-.3l.1-.1.1-.2h.1v-.1h.1l.2-.1h1.1v-.2h.1v-.1h.2v-.1h.1v-.3h.3v-.1l.2.3h.3v-.3h.1v-.1h.1v-1h.1v-.1h.3v.2h.5v-.2l.1-.2.1-.1v-.1h.7l.1-.2h.2v-.6l.1-.1h.1v-.1l.2-.1v-.1l.2-.1h.7v.3h.4v.1h.2v-1h.3v.3h.4v-.6h1v-.2h.5l.1-.1h.2l.1-.1v-.2h.1v-.1h.2v-.1l.1-.1v-.4h.1v-.1h.2v-.2h.2v-.1l.1-.1.1-.1h.1v-.1h-.3v-.1h-.1v-.1h-.1v-.2h.8l.1-.2v-.1h.1v-.7h-.2v.9h-.1v.1h-.7v.4l.2.1h.2v.2h-.3v.1l-.1.1v.1h-.4v.2h-.1v.5h-.1v.1h-.2v.2h-.2v.2h-.2v.1h-.6v.1h-.2v.1h-.3l-.1-.3h-.1l-.2.2v.6h-.3v-.3h-.5v.9h-.5v-.3h-.4v-.1h-.5v.3h-.1v.3h-.3l-.1.1v.6h-.2v.1h-.7l-.1.2-.1.1v.1h-.9v.5l-.1.1v.6h-.1v.1h-.1v.1h-.8v.2l-.1.2h-.1l-.1.1v.1H498l-.3.2-.3.3v.5h-.3l-.1.2v.3l-.2.1h-.1v.2l-.2.1-.2.1h-.1v.3h-.1v.3h.4v.4h-.3v.2h-.1l-.1.1v.5l-.2.2v.2h.4v.1h-.2v.3h.2v.4h-.4v.3l.2.2h.2v.3h-.5l-.2.1h-.1v.1h-.2v1l.3.3v.7l.1.2v.1h.1v.4h.1v.2h-.4v.1l-.2.2v.2l-.1.1v.2h-.1v.2h-.1v.1zm0 0h.2zm.5 2.5h.2v.2h-.3v-.3zm.1-3.6h.2zm0-1.6v.3-.4zm.7-2.9v.2h.2v.1-.2zm.2-2v.2zm0 .7v-.1zm.5 9.5h.2zm.6-12l.2-.2zm1.5-.6h.1zm.2 0h.2-.3zm.1 13.5h.3v.2h-.4zm.4.3h.2v.2h-.3zm2.1-16v-.2zm1.3 17.3v-.4.3h-.2zm0-18.6h.2zm.2 20.5h.1zm1.8-21.2h.2v.2zm.4.2v-.3zm0-.4v-.1h.2v.2zm.8-.3h.2zm1.6-1.3h.2zm1.2-2v.2zm0 .2v.1zm-176.5-37.7v.5l.2.3v.5l.1.2v.2l.2.6v.9l.2.2v1.6l.2.5v1l.1.5v.1l.1.3v.8h.1v.9l.1.2v.6l.1.1v.8l.1.2v1.1h.2v.1h.5v-.4.2h-.3v.2h-.2v-.3h.3v-.1h-.3l-.1-.1h.2v-.4h-.2l-.1-.1v-1.5h-.2v-.5h-.1v-1l-.1-.3v-.4h-.1v-.8l-.1-.1v-.4l.3-.3v-.1l-.1-.1h-.1v-.2h-.2v-.9h-.1v-1.7l-.2-.3V226h.3v-.3h-.5v-.4l-.1-.1v-.7zm0 .2l.2-.2h.1v.7-.3l-.3-.1zm1.1 6v-.2.3zm-.2-.2v-.3h.3v.3zm.1 0h.2zm.6 6v-.2zM402 44.2l.2.8v.6-.2l.4.2v.2h.2v.1l.4.1.2.1.5.1h.6l.1.2h.1v.1h.2v.1h.1l.2.4.2.2h.4v.2l-.2.2h-.1l-.1.3v.5h.1v.2h.3v.2l.2.2v3.2h.2l.1.3h.2v.3l1.5.2h.6l.3-.3h.9-.2.4v.1-.2l-1-.1-.8.2h-1l-.9-.2v-.1l-.3-.5v-.4l.4-.3v-.4l.1-.2-.2.1h-.1v-.4h.1v.1h.1l-.2-.2-.3-.6h.2v-.1h.1v-.4h-.2v-.3l-.4-.4-.1-.3v-.3l.4-.3v-.4l-.2-.1h-.5l-.2-.7h-.1l-.3-.2-1.4-.3h-.2.1-.3v-.2h-.5v-.2l-.1-.2h-.1v-1.1zm.2.5v-.3zm1.1 1.3h.5v.1h-.5V46h-.1zm1.3.3h.4v.3l-.3-.2zm1.4 3.3V49l.1.2.1.2v.2zm0 1.6l.2-.4v.6h-.2zm.5 1.4h.5v.2h-.4zm1.8.2h.1-.2zm.1 0l.6-.3h.4-.2l-.7.4zm-62.5 31.9h.7v-.3.3h-.4v.2h-.1v.1h.3v.3h.1V85h.2v-.2h.1v-.4h.2v-.2l.2-.1v-.3h-.2v-.1l-.2-.1v-.1h.6v-.4l-.3-.1-.1-.2v-.2h-.2v-.1l-.3.4v.1h-.1v.2h-.2v.4h-.1v.2h-.1v.4h-.1v.1l.1.2v.2h-.2zm.9-1.2v-.3l.2-.1V83h.2v.3h-.2l-.2.2h-.1zm0 0"/><path d="M337.1 111.2h.5l.1-.2h.4v.2h.3v.2h.7l.2.3.1.1.6.3h.4v.2h.5l.1-.3h.8l.2.4v.1h.2v.2h.1l.2.3h.2l.1.3h.2v.1h.6v-.7l.2-.2v.7l-.3.1.3-.3h.1v-.4l-.2-.2h-.2v.7h-.2v.2h-.2v.1h-.1l-.1-.4-.2-.2h-.1l-.2-.2h-.2v-.2h-.2v-.4l-.4-.1H340l-.3-.1v-.2h-.3v-.1l-.2-.1-.2-.1-.3-.3-.3-.1-.4-.3h-.3l-.2-.2h-.2zm1.3-.2h.4v.2h-.3zm1.9 1h.5v.2h-.3zm-7.6 16h.2v1.9h.1v.7l-.3.3v.4h.3v-.3h.6v-.4h.2l.2-.2v.2l.3.1v-.3h.2l-.3-.2h-.1l-.1-.2h-.5v-.2h-.3v-.4h-.2V128l-.2-.2zm25.9-34h.2l.1.2h.2l.1.2h.2v.3h.2v.1h.7v-.3l.2-.1V94h-.3v-.2h-.1l-.1-.2h-.2v-.1l-.2-.1h-.3l-.1-.3h-.2v.4h-.2v.2l-.1.1h-.2v.2zM342 90.3v.4h.7l.1-.3.1-.2v-.6h.1v-.3h.2V89h-.2l-.3-.1h-.1l-.2-.2h-.3v1.4zm-1.3 132.1v.6h.2v.2l.1.1v.3l.2.1v.1h.1v.1h.2l.1.1h.3l.1-.2v-.1h.2v-.3h.1v-.1h.3v-.1h.1v-.2h-1.1v.3h-.1v-.3h-.1v-.5h-.4v-.3h-.4zm106.1-145v1.2h.2v.3l.2.1h.5l.1-.3h.1l.1-.2h.2v-.2h.1v-.2h.1V78h.1-.7v.2h-.1V78h-.3v-.2h-.2v-.7h-.2V77h-.2v.4h-.1v.1zM328 182.2v.7h.4v.3h-.3v.1l-.1.1v1.6-.3 3.8h.3v1.5h.1v1.4h.1v.6-1l.1-.2v-.4h-.3v-1.2h-.1v-2.1h-.1v-.9h-.1l.3-.2v-.1h.1v-.9h-.3v-1h.3v-.9l.1-.1v-.5h.1-.3l-.1-.1v-.3l-.1-.1v-.4h.3v-.1l-.3-.1v-.4h-.1v1.4-.3zm.2 3.6v.2zm-.1-.3h.2zm.2-1.7v-.2h.1v.3zM349.8 88h.2l.1-.2v.2h.2l.1.1h.1V88h.1v.2l.2.1h.1v-.2h.1v-.9l-.2-.2v.3h-.2V87h-.1v-.4l-.2-.1h-.2v.2h-.1v.2h-.2v.5l.2.1h.1v-.1h.2v.4h-.3l-.3-.1zM410 52.8h.8v-.2l.2-.2v-.2h.4v.2h.6v-2l.2-.1v-.2h.2v-.4l.3-.2V48h.3v-.3h.2v-.2l.1-.1.3-.1h.4v.2h.8v.2h.7l.4.1v.1l.1.1h.2v.2h.3v.2l.5-.3v-.2h.2v-.5h-.4v-.2l-.1-.2.4-.1h-.3v.5h.2l.1.2v.3l-.1.1h-.1l-.3.2h-.1l-.5-.3-.1-.3h-.2l-.2-.1-1-.2-.5-.2h.2-.9l-.1.3h-.2v.4l-.3.1v.1l-.3 1-.1.3v-.2h.3v-.2l.1.3v.3h-.3v.2-.3h.1l-.2-.1v.2l-.1.7h-.2l-.2.4v1.7h-.5V52h-.3l-.2.3v.1l-.1.3h-.7zm2-.5V52zm1.9-5.1h.2l.5.3h-.6v-.3h-.2zM337 140.7v.5h.1v.4h.8l.1-.2v-.9l-.4-.1h-.5l-.1.1zm81 88v.3h.4v.2h.4v.1h.2v-.3l.2-.2v-.6l-.2-.2h-.1v-.2h-.2l-.1-.1h-.1v.3h-.2v.2l-.3.2v.2zm.6 0h.2v.2zm62.6 23.3v.3h.2l.1.1h1.1v-.2h.3v.3h.1v-.5h.4v-.2h.4v.2h.1v-.2h.1v.2h.3v.2h.2v-.2h-.3v-.3h-.1l-.1-.1h-.6v-.2h-.1v-.1.3h-.1v.2h-.1v.1h-.3v.1h-.3v.2h-.5v-.4h-.7v-.2h-.2v.4zm-7.7 4.6v.2h.2v.2h-.3v.3h.3v.5h.1v-.6h-.3V256h.3l.2-.2v-.1h.3v-.5h.2v-.1l.1-.1h-.3v-.3h.4v-.1h.1v-.7h-.3l-.1-.2v-.5h.3v-.1l.1-.1v-.5h.1l.1-.1v-.2h-.2v-.2l-.1-.2h-.3v-.2h-.1V250h.3v-.2l-.2-.1v-.2h-.1l-.3-.2v-.5h.3v-.1h.1v-.2l-.2-.2v-.1l.1-.1v-.3l.3-.2v-.1h.1v-.2h-.4v-.2h.4v-.1h.2v-.2h.1v-.2l.2-.1v-.2h.1v-.1h-.3v-.2l.2-.2.2-.1v-.2h-.2v-.3h.4v-.2h.3v-.4l-.3-.1.2-.1h.2v-.4h.3v-.2h-.3v-.5h.3v-.4h-.3v-.4h.3v-.1h.1v-.1l.1-.1v-.4h.3v-.1h.1v-.5h.1v-.2h.4v-.5h.3v-.1l.1-.1h.1v-.3h.1v-.5h.8v-.8h.2v-.3h.2v-.6l.1-.1v-.7l.1-.2v-.2h.2v-.2h.1v-.1.3h-.6v.2h.3v.2h-.3v1.2h-.1v.4l-.2.1h-.1v.3h-.1v.2h-.1v.1h-.1v.1l-.1.1h-.1v.1h-.2v.2h-.2v.5h-.1v.1h-.1v.1h-.4v.4h-.1v.1h-.1v.3h-.2l-.1.1v.4h-.1v.1h-.3v.1h-.1v.5h-.1v.1h-.1v.4h.2v.2l.1.1v.2h-.3v.7h-.2v.1h-.1v.2l-.1.1v.3h-.2v.1h-.1v.2h-.1v.1l-.1.1v.5h-.1v.4h.3v.1h-.3v.3h-.2v.1h-.1v.2h-.2v.3h-.2l-.1.1v.2h.3v.2h-.3v.1h-.1v.3h-.1v1.3h.2v.1h.1v.1l.1.1v.1h.1v.4h-.3v.5h.3v1.1h.1v.1h.3v.3h.1v.3h-.3v.2l-.1.1v.3l-.1.2h-.1v.5l.3.1v.8h-.4v.5h-.2v.4l-.1.1h-.2l-.1.2v.2h-.2v.3h-.1v.1zm.5-7.4h.2v.3h-.2zm0 0h.2zm0-.9h.2v.2l.1.1v.2-.4h-.3zm.2-.1v-.2h.1v.3h-.3zm-.1 7.5h.2zm0-7.5v-.2h.2v-.2h.1v.5h-.3zm.1.5h.1zm.1 1.7v-.1.3zm-.1-.9v.2h.2v.1-.3zm0 1.1h.2l.1.1v.1l-.3-.3zm.2-3v-.3h.1zm-.1 2.6v-.1l.2-.1v.4zm0-2.7h.2v-.2h.1v.4h-.3zm.1 4.3h.2zm0-2v.2zm.2 2v.2zm0 2.5v-.3zm.4-7.6v-.2h-.2zm0-.8h.2zm.1 0h.2v-.2zm.1-.4h.2v.3zm0 .3v-.2zm0-.6h.3v-.2h.1v.3h-.4zm.1.6h.1zm.2-.8v-.2zm.2 0v-.2h.2-.3zm0-.3h.2zm.2-.4v-.2.3zm-.1 0v.2zm0 .1h.2zm.1-.2h.1-.2zm.1-.4v-.2.3zm0-1v-.2h.1v-.1.2zm0 1.2l.2-.2h.1v.2zm0-1.4h.2zm.2.4v.2h.1zm.1-.8h.2zm.4-.4h.1zm.3-.6v-.2zm0-.2h.2zm.3-.2h.1v.2h-.3zm.5-.9v-.2zm0 0v-.2h.2v-.1.4zm.1.1h.1v-.2.2zm.1-.3v-.3h.3-.3v.4zm.2-.1v-.2h.3v-.2h.2v-.2h.1v.6h-.5l-.1.1zm.8-1.2v-.2h.2l-.2.3zm.2-1.8h.3-.4zm0 1v-.2zm0-1v.2zM397.1 39.4v.2h.2v.4l.1.1v.3l.4.7.2.1v.4l.4.3v.1-.2h.1v.2h.2v.2l.3.2.2.2-.2.2h.4v.2h.2v.8l.1.2h.7v.2h.4V44h.4v-.2h.2v-.1h.3v-.1h.3l.2.4v.2-.6l-.2-.1h-.6v.3h-.2l-.1.1h-.4v.1h-1.1v-.9l-.3-.5-.3-.4-.2-.2-.2-.3-.2-.2h-.1v-.2h-.2l-.1-.2V41l-.3-.1-.1-.8v-.7h-.2v-.2h-.2v.1h-.2zm0 0h.4v.2h.1v.6l-.3-.3v-.1h.3-.2v-.3l-.2.4v-.5.2zm.5 1h.1v.3h-.3zm0 .1l.1.3v-.1h-.2zm.5.9v.1h.2l.3.3v.1l.2.1h-.3l-.1-.3-.2-.3v.3l.3.1h-.2v-.2h-.2l-.1-.1zm3.3 2.3h.2-.3zm-63.5 186.8v1l.1.4h.4l.1.3.4-.4-.1-.2v-.6h-.3v-.2h-.1v-.2l-.3-.1zm-1.3 1.1l.2.7h.2l.3-.3-.1-.2.1-.2h.1v-.1l-.1-.3v-.1l-.3-.1.1-.2v-.1h-.1v-.2h-.3l-.1.5zM-133.5 0H6v-139.5h-139.5zM6 0h139.5v-139.5H6zm0 139.5h139.5V0H6zM6 279h139.5V139.5H6zm-139.5 0H6V139.5h-139.5zm0-139.5H6V0h-139.5zm0 279H6V279h-139.5zm139.5 0h139.5V279H6zm279 0h81.5l-1-3.3-3.1-10-2.4-6.6-2.6-10-.9-5.3-1.2-15-1-11.1-1.3-9.9-2.2-13-2-17.3-3.5-22.5-1.6-6.8-1.7-8.7h-57.1zM548.5 279l-.1.2-.4-.1.3.3-.3.3.6.8-.7.7-.5-.3.3.8-1 .7.2.3.5.1.1.6.3.3-.5 1.6.2.4.5.2-.5.1-.1.4.2.6h-.3l-.4.8-.1.1v.6l-.2.9v.2l-.7 1.2v.7l-1.5 2.7-1.9 6.5-1.5 6.5-.4 5 .2 4.6.2 2 .7.9.5.8.8.1.4-.1.4-.3v-.2l.3.3v.2h-.4l-.3.5.2 2.3.3.7.3.3.4 2.1 1 .6.2.2-.1.5.3.1.3.7-.1 1.2h-.4l-.3.3.5 1 .2.3-.2 1.4.2.4-.2.6.3 1.4-.3.2-.3 1.5-.4.2-.7-.1v-.4h-.8l-.8-.9h-.4l-.6.6-.7.7-.7 1.1-.2 2.1.3 1.1.3.2-.2 1.4.7 1 .6.2h.3l1.2-.8.3.1.6 1h.4l.2.1-.6.3-.2 1.5-.7.3-.3.6v.6l.5 1 .6.6.6.3 1-.6v-.4l.6-.2h.1l.1.4.4.2-.2.7.3.1-.4.5-.2.3.3.2-.5.5-.8.3-.9 1.2-.1.7-.7.7v.4l-.4.4.6.9h.3l.5-.2-.1.6.5.9.4 1.5h.5l-.3-2.4.6-1 .9-.7 1-.1h.5l.6-.1-.7.7.2.7-.8 1.2.4 1 1-.3.3.3.5.5v.9h.3l-.7.7.3.7-.4.6.2.2-.2.4.4.5.6.2-.3.3v.5l.6.2.2.5-.2.2h-.5l-.4.8-.1.8.5.6-.6.3v1.1l-.7.2-.7-.8-.8-.3-1 .3-.1-.1-.5-1.2-.8-.1-.4-.8-1-.5h-.3l-.7-.5-1-.5v-.5l-.2-.2h-1l-.5-.7-.4-.3-1.2-.2-.3-.8h-.4l-.2-.3h-.6l-.4-.5h-.3l-.4-.6-.6-.4.5-1.5.8-.7v-.6.4l2.1-2.2 1.6-.6.2-.3h.1l-.2-.2h-.2l.2.2-.6-.4-.7.1-.2-.1-.6.2-.3.4-.4-.3-.3.1-1.1 1.6v.7l-.6.3-.7.2-.8 1.5-.5.1-1.3-1.1-.3-.2v-.5l-.4-.6h-.9l-.7-.7h-.9l-2 .2-1.5.8-.8.8-2 .2-.7.3-.3.3.1.3-.3.6-.4-.1-.7.6v.6l-.7.8-.4 1.5-1.1.7-.3 1-.6-.3-.5.1-1.1-1.3-1.2.1-3.6 1.3h-.6l-.1-.2h-.3v.5l.9-.2-5.5 2.3-2.4 1.3-4 2.8-6 4.9-4.4 5.1-1.2 1.8-1.8 2.2-.3.7h-.5l-1 1-.4-.8h.2v-.4l-1-1.1.4-.2-.1-.7.1-.3v-.6l-.4-.4.1-.6-.7-.1-.2.5-.4-.1-.3-.7v-.6h-.2l.3-1 .5.2.2.7.7.1.2.5 1-.8.4.7-.2-.8-.2-.1-.5.1-.3-.2v.3l-.5-.7.3-.6-.2.2-.3-.2v.2-.6h-.5v-.3.3l-.5-.6v-1.3l-.5-.7h.2v-.3l-.2.3v.6l-.2-.1v-1.6l-.7-.7-.6-.7v-.4l-.3-.1h.2l-.6-.2v.3l-.2-.1-.1.3-.6-1.2-1-.1-1.1.2-.3-.2v-.2h-.2l-.3.2-.2.1v.2l-.3.3h.2v.7l-.2-.3.3.4h-.7l-.4.1.3.3v.5l-.3-.3-.3-.2v-.4h-.3.4v.4h.3v.6l-1.3.9-.3-.1v.2h-.6l-.8.4h-1l-.1.9h-.9l.3 1.3-.3-.3v.3h.5l.2 1h.3l-.2.2.7-.5h.7l.4.1.1.9.7.1.2.4-.8.3-.9.7v-.2h-1l-.1 1.1.1 1.1h.2l-.1.1.6 1.2.4.5-.2.1v.7h.2-.4l.4.2.2-.5v.2l.2-.1h.3v.1h.3l.4-.1.2.1h.6l.7.4.6.2.7-.3 1.4.2v-.2l-.2-.3h-.4l-.3-.3.3-.5v-.5l-1.7-.6-.3.3h-.2l-.6-.5-.7-.6 1-.2.4-.2.3.3 1.4.3.6 1 .3.2h1.5l.3-.3-.2-.4 1.2-.1.9.3.2-.1.1.2h.3l-.1.6.3.7.3.2v.2l-.3-.1-.8.3.5 1.8-.5-.2-.2.2h-.8l-.2.4v.8l1 .1.3.6 1 .3-.8.4-.1.4h-.5l-.2.7-.4-.3-.3.1v.8l-.2.2-.4-.2-.3.3-.4.7-.2 1.3v-1.6l-.5-1.3v-.4.2l.4-.3h-.5l-.3-.3-.4.2-.2-.3-.7.3.1.4h.6l.2.8h-1v.3l.3.1.5-.2 1.1.5.2.5-.1.4-.4.4-.4-.4-.1.2v-.4h-.6v-.1h-.5l-.2.1.4.2v.3l.2-.3.2.4.3-.3.9.5h.1v-.2h.1l.4.5-.3 1-.9-.3-1.4.3-.5-.1-.5-.4-.6.4-.4.6.2.5.4.1-.4 1.4.3.8 1 .6.7.2 2.9 1.4.9 1.2-.2 1-1-.1-.1.3-.4.2.1.4.4.4.5.2-.5.3-.2.8h-1l-.3.6.5.3-.3 1.1-.5.4-.5-.2-1 .6-.6-.2v.2l-.2-.5-.2-.4-1.6-.5-1.5-1.4h-.6v-.4l-.2-.1h-.6l-.5.7 2 2 1.5 1-1.6-.6-.6.9-.1.7.9 1 1.7 1.4.3.6 1-.3 1.1.3.3.8-.2.5v.5l.6 1.1-.6 1.6-.8.2-.2.4.2.8h.6l.4.6h89V279h-13.5l-.2.2-2.5 4.3.7-1.8 1.1-1.6.2-.4h-.3l.5-.2.2-.5zM526 358.8l-.3-.1v-.4l-.3-.5.1-.4.2.4h.5l-.2.4.2.3zm-51.2 13.8l-.2.4-.4-.6h.5zm5.1 22.1l-.3-.3.4-.4.3.5h-.4zM469.8 377h-.3v-.2l.2-.1zm-.8-1.1v-.1l.3.1h.5v.1h-.2.4-.4l.3.4h-.2l.1.2h-.4zm.1.1"/><path d="M145.5 418.5H285V279H145.5zm0-139.5H285V139.5H145.5zm139.5 0h56.9l-4.9-22.5-2.8-18.5-1-7.9v.1l-1.3-9.8-2.4-17-.2-.4.1-.4-.2-2.3-1-10.3-.4-4.3.2-10 .8-8.9 1.2-6.4 1.9-16 .3-4.9H285zM145.5 139.5H285V0H145.5zm0-139.5H285v-139.5H145.5zM285 0h111l2.8-6.5.9-3.8v-4.2l-.7-5.7-1.2-4.6-2.6-6.5-1.5-2.9-1.7-1.7-.4-.1-1.6-1.1h-.6l-.4.8h-.3l-.3-.6 3.1-4.4.3.3.6-.4v-1l-.4-.2v-.4l.5-1h.2v.5l.6.1 1.6-.4.8-1.4 1.4-1.2.9-.6v-.3l.6-.1.6-1.2.8-.4.2.2.4 1.4.9.7-.5.7.1.5.8 1.3.8.6 2.8 1.3 3 1 3.4.6h2.9l2.5-.3 4.3-2 2.9-2v-94.5H285zm0 0"/><path d="M285 139.5h47.2l.5-7.5v-9.3l1.3-4.5 2.1-6.2 1.5-7.2 1.6-4.5 2.6-12 2.5-8.1 3.1-14.8 2.2-6.7 3.9-8.2 1-1.5 1.3-1.9 2.2-1.7 1.1-.4.1.4-.6.1v.9l-1.1 1-.1.8.3.8 2.1-.6.6-1.2v-.7l.4-1v-.3l-.2.1.2-.7-.2.2-.1-.2.3-1.2 1.3-1 .2.5h.2l1.2-1.1 2.3-1.6 2-1.2 3.4-3 2.1-2.2 2.1-3.3 1.4-3.8.4-2.5-.5-1.4-.4-.2.5-.9-.3-.3.8-.8.4.2L379 22h.6l1.4 1 1.4.3-.1.4 1 .9h.9l.9-.8.9-.1.6-.7v-.3l-.9-.5.3-1.4 1.4-3 1.6-2.6 1.3-3L392 9l2.1-4.6.7-1.2 1.4-3.2H285zm94-125v-.7l.2-.3v.5zm0-.1"/></g></g><g fill="none" clip-path="url(#C)" mask="url(#B)" class="K"><g stroke-width=".6"><use xlink:href="#E" class="C"/><use xlink:href="#E" class="D"/><use xlink:href="#F" class="C"/><use xlink:href="#F" class="D"/><use xlink:href="#G" class="C"/><use xlink:href="#G" class="D"/><use xlink:href="#H" class="C"/><use xlink:href="#H" class="D"/><path d="M324.3 278.6l-.2-1-.8-3.8-1.6-8.1-1.7-8.2-.1-.8-.1-.4v-.5l-.3-1-2.2-13.8-.9-6.2" class="C"/><path d="M324.3 278.6l-.2-1-.8-3.8-1.6-8.1-1.7-8.2-.1-.8-.1-.4v-.5l-.3-1-2.2-13.8-.9-6.2" class="D"/><path d="M316.4 234.8l-.4-2.8-1.2-8.8-.5-5.6-1-15.2-1.8-11.9" class="C"/><path d="M316.4 234.8l-.4-2.8-1.2-8.8-.5-5.6-1-15.2-1.8-11.9" class="D"/><path d="M311.6 190.5l-.4-3.3.3-14.8.7-5.9.8-6 1.4-11.3.2-3" class="C"/><path d="M311.6 190.5l-.4-3.3.3-14.8.7-5.9.8-6 1.4-11.3.2-3" class="D"/><use xlink:href="#I" class="C"/><use xlink:href="#I" class="D"/></g><use xlink:href="#J" class="C"/><use xlink:href="#J" class="D"/><use xlink:href="#K" class="C"/><use xlink:href="#K" class="D"/><path d="M314.8 143.7l-.4 5.5-1.4 11.3-.8 6-.7 6-.3 14.6v.9" class="C"/><path d="M314.8 143.7l-.4 5.5-1.4 11.3-.8 6-.7 6-.3 14.6v.9" class="D"/><use xlink:href="#L" class="C"/><use xlink:href="#L" class="D"/><use xlink:href="#M" class="C"/><use xlink:href="#M" class="D"/><use xlink:href="#N" class="C"/><use xlink:href="#N" class="D"/><path d="M311.3 188l2 14.5.9 15.1.6 5.6 1.2 9" class="C"/><path d="M311.3 188l2 14.5.9 15.1.6 5.6 1.2 9" class="D"/><path d="M316 232.3l1.4 8.7 2.2 13.8.1 1v.5l.3.4v.8l1.8 8.2 1.5 8 .5 2.6" class="C"/><path d="M316 232.3l1.4 8.7 2.2 13.8.1 1v.5l.3.4v.8l1.8 8.2 1.5 8 .5 2.6" class="D"/><g stroke-width="1.8"><path d="M314.4 218.7l.4 4.5 1.2 9 1.3 8.8 2.3 13.8.1 1v.5l.3.4v.8l1.2 5.2" class="C"/><path d="M314.4 218.7l.4 4.5 1.2 9 1.3 8.8 2.3 13.8.1 1v.5l.3.4v.8l1.2 5.2" class="D"/><path d="M315 130v2.5l.4 3.1-1 13.6-1.4 11.3-.8 6-.7 6v1.7" class="C"/><path d="M315 130v2.5l.4 3.1-1 13.6-1.4 11.3-.8 6-.7 6v1.7" class="D"/><path d="M311.4 174.3l-.2 12.9 2 15.2 1.1 15.2.1 1" class="C"/><path d="M311.4 174.3l-.2 12.9 2 15.2 1.1 15.2.1 1" class="D"/><use xlink:href="#O" class="C"/><use xlink:href="#O" class="D"/><use xlink:href="#P" class="C"/><use xlink:href="#P" class="D"/><use xlink:href="#Q" class="C"/><use xlink:href="#Q" class="D"/><use xlink:href="#R" class="C"/><use xlink:href="#R" class="D"/><use xlink:href="#S" class="C"/><use xlink:href="#S" class="D"/></g></g><defs ><path id="E" d="M314.6 146.2l.7-10.6-.2-3v-10.8l.2-.3v-1.3l.3-1.2.2-1 .2-.9v-.6l.3-.8.1-.7.2-.8.2-.5.4-1.7.2-.4.2-.6.4-1.2.3-.7.3-.8.2-.5.6-2.4.3-1.4.3-1.1.1-.6"/><path id="F" d="M320 102.3l.3-.6.7-2.3.4-2.1.2-.6.1-.3.3-.9v-.3l.5-1.7.3-1.4.2-.9V91l.2-.6.2-1 .1-.7.5-1.6.3-2.3.6-2.4.2-.7.2-.4.3-.9.4-1.4.3-1.1.2-.7.5-1.2v-.3l.1-.9.2-1 .3-1.3.3-1.1.6-2.7v-.4l.5-2.3v-1l1.6-6"/><path id="G" d="M330.6 59l.4-1.7.5-1.3.3-.9.2-.3.4-1.5.2-.6.2-.6.6-1.6.6-1 .6-1.4.5-1.1.7-1 .6-1.4.2-.5.2-.5.2-.6.2-.2.3-.6.4-.8.4-.8.5-.6.6-1 .6-.8.7-1 .3-.4.4-.5.4-.5.3-.3.5-.6.6-.6.3-.2.3-.4.2-.2.5-.5.7-.6.4-.3.2-.2.6-.4.4-.3.6-.5 2.6-2 1.8-1.2.7-.5 1.2-.6 2-1 .3-1"/><path id="H" d="M332.7 322.3l-.2-1.1-.4-2.5-.3-2.1-.4-1.9-.1-1.2-.3-1.3-.4-3.7-.6-2.1v-.4l-.2-1.6v-.2l-.4-1.3v-1.1l-.1-.5-.3-1v-.8l-.3-1.3-.1-.6v-.6l-2.4-10.2-.2-.8v-.5l-.7-3-.3-.9-.4-1.6-.3-1.4"/><path id="I" d="M356 24.4l2.3-5-1.3-8.8v-.2l-.3-2V6.8l.3-1.9.4-1.9.6-1.6.6-1.7.9-1.5 1-1.5 1.2-1.4 1.2-1.3 1.5-1 1.5-1.1 1.6-.8 6-2.8"/><path id="J" d="M323.8 276.2l.3 1.4.5 2.4.5 1.7.2.7.7 3v.6l.4.8 2.1 10.3.1.5.2.6.2 1.3v.5l.2.3.1 1v.5l.3.6v.6l.1 1.2v.2l.5 1.6v.4l.4 2 .4 3.9.2 1.2.2 1.2.4 1.9.3 2 .2 1.4"/><path id="K" d="M357 22l-1.4 3.5-2 .9-.9.6-1 .5-1.7 1.2-2.6 2-.6.5-.4.3-.6.4-.2.2-.4.3-.7.6-.5.5-.2.2-.3.3-.3.3-.6.6-.5.6-.3.3-.4.5-.4.5-.3.4-.8 1-.5.7-.6 1-.5.7-.3.8-.5.8-.3.6-.2.2-.2.6-.2.4-.2.6-.7 1.4-.5 1h-.2l-.4 1.1-.6 1.4-.6 1-.6 1.6-.2.6-.2.6-.5 1.5v.2l-.5.9-.1.8"/><path id="L" d="M375.7-12.7l-8.2 3.8-1.6.8-1.5 1.1-1.5 1-1.2 1.3-1.2 1.4-1 1.5-.9 1.5-.6 1.7-.6 1.7L357 5v5.5l1.3 8.9L357 22"/><path id="M" d="M331.3 56.7l-.3.6-.4 1.7-1.6 6v1l-.5 2.3v.4l-.6 2.7-.3 1-.3 1.5-.3.9-.1 1v.2l-.4 1.2-.2.7-.3 1-.4 1.6-.3.8-.3.4v.7l-.7 2.4-.4 2.2-.4 1.6-.1.9-.4 1v.8l-.2.9-.3 1.2-.5 1.9v.2l-.4.9v.3l-.3.6-.3 2.1-.3.6"/><path id="N" d="M320.7 100l-.5 1.6-.2 1.4-.3.9-.3 1.6-.6 2.3-.2.5-.3.7-.2.8-.5 1.3-.2.5-.2.4-.4 1.7-.2.5-.2.8-.1.7-.2.8-.1.6-.2.9-.2 1-.3 1.2-.1 1.3v7.3l-.2 1.2v2.5l.3 3.1-.5 8.1"/><path id="O" d="M321 262.7l.8 3 1.5 8 .8 4.1.5 2.2.5 1.7.2.7.7 3v.6l.4.8 2.1 10.3.1.5.2.6.2 1.3v.5l.2.3.1 1v.5l.3.6v.6l.1 1.2v.2l.5 1.6v.3"/><path id="P" d="M377.1-21.6l2.6 3.1 1 1.2.4 1.3v.8l-13.5 6.3-1.7.8-1.5 1.1-1.5 1-1.2 1.3-1.2 1.4-1 1.5-.9 1.5-.6 1.7-.6 1.7L357 5v3.6"/><path id="Q" d="M336.6 44v.1l-.2.5-.7 1.4-.5 1h-.2l-.4 1.1-.6 1.4-.6 1-.6 1.6-.2.6-.2.6-.5 1.5v.2l-.5.9-.4 1.4-.4 1.7-1.6 6v1l-.5 2.3v.4l-.6 2.7-.3 1-.3 1.5-.3.9-.1 1v.2l-.4 1.2-.2.7-.3 1-.4 1.6-.3.8-.3.4v.7l-.7 2.4-.3 1.8"/><path id="R" d="M324 86.6l-.1.4-.4 1.6-.1.9-.4 1v.8l-.2.9-.3 1.2-.5 1.9v.2l-.4.9v.3l-.3.6-.3 2.1-.8 2.3-.2 1.3-.3.9-.3 1.6-.6 2.3-.2.5-.3.7-.2.8-.5 1.3-.2.5-.2.4-.4 1.7-.2.5-.2.8-.1.7-.2.8-.1.6-.2.9-.2 1-.3 1.2-.1 1.3v7.3l-.2 1.2"/><path id="S" d="M356.9 8.6l.1 1.8v.2l1.3 8.8-2.7 6-2 1-.9.6-1 .5-1.7 1.2-2.6 2-.6.5-.4.3-.6.4-.2.2-.4.3-.7.6-.5.5-.2.2-.3.3-.3.3-.6.6-.5.6-.3.3-.4.5-.4.5-.3.4-.8 1-.5.7-.6 1-.5.7-.3.8-.5.8-.3.6-.2.2-.2.6-.2.4"/></defs></svg>