<svg xmlns="http://www.w3.org/2000/svg" viewBox="0 0 497 279"  xmlns:v="https://vecta.io/nano"><path fill="#f2efe9" d="M0 0h497v279H0z"/><path fill="#aad3df" fill-rule="evenodd" d="M49.4 139.5H-90.1V279H49.4zm0 139.5H-90.1v139.5H49.4zm0-418.5H-90.1V0H49.4zM49.4 0H-90.1v139.5H49.4zm0 0"/><path fill="#f2efe9" d="M49.4 0h448v279h-448z"/><path fill="#aad3df" fill-rule="evenodd" d="M468.1 139.5h139.5V0H468.1zm-139.5 0h139.5V0H328.6zm-139.5 0h139.5V0H189.1zm-139.5 0h139.5V0H49.6zm139.5 279h139.5V279H189.1zm-139.5 0h139.5V279H49.6zm0-139.5h139.5V139.5H49.6zm139.5 0h139.5V139.5H189.1zm139.5 0h139.5V139.5H328.6zm139.5 0h139.5V139.5H468.1zm0 139.5h139.5V279H468.1zm-139.5 0h139.5V279H328.6zM468.1 0h139.5v-139.5H468.1zM328.6 0h139.5v-139.5H328.6zM189.1 0h139.5v-139.5H189.1zM49.6 0h139.5v-139.5H49.6zm0 0"/></svg>