<svg xmlns="http://www.w3.org/2000/svg" xmlns:xlink="http://www.w3.org/1999/xlink" viewBox="0 0 497 279" xmlns:v="https://vecta.io/nano"><style><![CDATA[.B{stroke:#fff}.C{stroke:#8d618b}.D{stroke-linejoin:bevel}.E{fill-rule:evenodd}]]></style><filter id="A" width="100%" height="100%" x="0%" y="0%"><feColorMatrix in="SourceGraphic" values="0 0 0 0 1 0 0 0 0 1 0 0 0 0 1 0 0 0 1 0"/></filter><clipPath id="B"><path d="M0 0h497v279H0z"/></clipPath><mask id="C"><g filter="url(#A)"><path fill-opacity=".5" d="M0 0h448v279H0z"/></g></mask><path fill="#f2efe9" d="M0 0h497v279H0z"/><g class="E"><path fill="#c8d7ab" d="M-11-.6l7 1.1 1.4 2.2L2.2-.6l1.7-5-4.2 3.3-5.3 1.5h-5zM.7-.6"/><g fill="#aad3df"><path d="M-2.1 42.7l.1.3h.1l.3.2.1.1v.2h.2v.1h.1l.1.1v.1h.1v.2h.2v.4h.2v.1h.1v.2h.1v.3h.2v.2h.5v.2h.3v.2l.1.1.1.2v.1l.1.2v.2l-.2.2H.4l-.2-.3-.1-.1h-.4v.3h-.1v.3h-.2v.2l-.1.2v.8l.3.1h.1v.2l.2.1v.2H0v.1h.3v.3h.2v.3h.2v.1h.1v.2H1v.2h.2v.1h.1v.1h.1v.2h.2v.1h.1v.3H2v.4h.2v.2h.1l.2.1.2.1h.1v.1H3v.1h.2v.2h.1v.1h.1v.1h.2v.3-.3h-.3v.2h.3v.1l.1.1v.1h.1v.1h.1v.1H4v.1h.4l.1-.3v-.8h-.3v-.2l-.1-.1v-.3H4v-.4h-.2v-.3h-.1v-.3H4V50h.4v-.2h.1l.1-.1.1-.1h.1v-.1h.1v-.1H5v-.1h.2v-.2h.1V49h.4v-.2h.1l.1-.1H6v-.1l.3-.2v-.1h.2v-.1h.1V48h.2l.2-.1.1-.1.2-.3.1-.1h.2v-.3h.2V47H8v-.3l.2-.1.1-.1v.3h.3v-.3h.1v-.1h.1v-.1h.1v-.1H9V46h-.5v.2h-.1v.2h-.1v.1h-.1v.1-.4h.3l.1-.2.1-.2v-.2h.1v-.9h-.3v-.1l-.1-.1v-.1h-.1l-.1-.1h-.8v-.1h-.2V44h-.1v-.9L7 43v-.2l-.2-.1v-.1h-.1v-.1h-.1v-.1h-.1v-.2l-.2-.1h-.1V42H6v-.3h-.2l-.1-.1h-.3v.3H4.2v-.3h-.1l-.1-.1h-.2l-.1-.1-.3-.1h-.2l-.2-.1v-.5h-.2v-.1h-.1v-.1h-.1l-.2-.1h-.1v-.1h-.1v-.1h-.1v-.1H2V40h-.9l-.1.3H.9v.2H.7v.1H.6v.1H.2v-.3H0v-.1h-.9v.3H-1v.2h-.7v.5l.3.1h.1v.3h-.4.3v.3h-.2v.3l.2.1H-2v.1h-.2v.3zM13.8 26h.4v.2h.1v.1h-.1v.2H14v.5h.5v.1h.1l.1.2.1.1h.1v.2h.1l.3.1h.1v.2h.2v.1l.2.1v.2h.2v.5h.4v.4h.2v.3h.2v.3h.1v.2h.1v.3h.3l.4.2.1.1h.5v.4h.1l.4.2h.2v.4h.2v.1h.8v.1h.4v.2h.2v.2h.1v.7h.2v.2h.8l.1-.3h.2v-.1h.3v-.1h.2v-.1l.2-.2.2-.1.1-.1.2-.1v-.3.3h.1v-.5H23l.3-.1v-.1h.1l.1-.2V31h.2v-.4h.1v-.2l-.3-.2v-.1l-.1-.1v-.6l-.2-.1H23l-.1-.2h-.1V29h-.3v-.2h-.1v-.2h-.1v-.1h-.1v-.2h-.1v-.2H22v-.4h-.2v-.2h-.5l-.1.2v-.1l-.1.1-.1-.2-.1-.1h-.2v-.1h-.3v-.1h-.2V27l-.2-.1v-.3h-.2l-.1-.1h-.5v-.2H19v-.1h-.2v-.1h-.3l-.1-.1h-.2l-.5-.2h-.8v-.1h-.1l-.2-.1v-.1l-.2-.1h-.2v-.1h-.3v-.2h-.1V25h-.1v-.3h-.3v-.2h-.2v-.1l-.2-.1h-.2v-.2h-.1l-.2.3v.1h-.1v.1l-.1.1h-.1v.3h-.1l-.1.1v.4-.1.1h.3v.4l.1.1h-.7zm9.7.4v.2l.4.2v.1l.3.1.5.2.3-.2.3.3v.1l.4.3.3.3.2-.3h.1l.1.4h.6v.3h.1l.7.2.2.2.3.2.2.2.5.2h.4l.2-.6-.1-.3-.3-.2H29l-.3-.2h-.2l-.5-.4h-.3l-.1-.1h-.1l-.1-.3h-.2l-.2-.1-.4-.1-.2-.2h-.7l-.2-.3-.2-.1h-.1l-.6-.2h-.3l-.1-.2-.2-.1-.1-.3h-.3v.6zm3.4-13.1v1.5h.1v.2h.3v.2h.3v.2h.2v.2h.2l.3.2h.4v.2h.2v.2h.1v.1h.2-.2V16h-.3l-.1-.2v-.2l-.3-.1V15l-.1-.2v-1h-.1v-1h-.9v.2H27v.2h-.1zm0 0"/><path d="M4.4 52.6v.2h.2v.1h.1-.3v.1h.5v-.7l-.3-.1v-.9h.3v-.5H5v-.5h.2v-.2h.1V50h.1v-.2h.1v-.1h.2-.3v.3l-.1.1v.4h-.1v.2l-.1.3v.1l-.1.1v1.2h.2v-.2l.2-.1v-.4h.1v-.1l.1-.2V51l.1-.2v-.1h.1v-.2l.1-.1v-.2H6V50l.2-.1.1-.3h.1v-.1h.1v-.2h.1v-.1l.1-.1.1-.1h.1v-.2H7v-.2h.2v-.1l.1-.1v-.1h.1v-.1h.1v-.1h.1V48h-.3v.3h-.1v.1h-.1v.1H7v.1h-.2v.2h-.1v.1l-.1.1h-.1v.2h-.1l-.1.3-.1.1-.1.1v.1H6v.2h-.2v.3h-.1v.1h-.1v.2l-.1.2-.1.2v.2h-.1v.4h-.2V51h.3v-.5h.1v-.3l.1-.2v-.2l.2-.1v-.3l.1-.1v-.2H6V49h-.3v.2l-.1.1v.1h-.1v.1h-.1v.1h-.1v.1l-.1.1v.1l-.1.1H5v.4h-.2v.4h-.1v.2l-.1.3v.3l-.1.1v.5h-.1v.1h.3v.2h.1v.2h-.4zm.2-.6v-.2zm.5 0v-.2h.2v.4zm44.3 227H-90.1v139.5H49.4zm0-418.5h-74.9l.6 1.4 5.4 12.1 1 1.8.8.6.1 1 .4.3 1.5 4.9 4.7 26.3 1 14.1-.1 1 .7 1.1.6 6.8 1 4.6 1.2 3.6 2.5 6.2 2.3 4.5 4.4 7.7L5.3-38l.7.2 1 1.6 2.1 1.7.7.3.5-.3 1.7.3 1.6 1.7 1 .5 1.4 1.3 2.8 4.1.5 1.2 1.8 1.8.9 1 .1.8h.2l.2 3.8.4 2.3-.2.5h-.3l-.9.5-1.8-1.3-1-.3-.7.2.2-.2-1.3.7-.9 1-1.3 2.4-.7 2.8-.3 1.8.3 3.8.4 1.3 1.3 2.1V0h33.7zm0 0"/><path d="M49.4 0H15.7v1l.3 1 1.8 2 .6.3 1.4-.3 1 .6 2 .4.8.2h1.6l2.6 3.1.8 2-.2 2.2.1 2.5.5.9.5.4.8 1 .7 2.6-.6 2.8.6 1 .2.9-.4 1.1-.1 1.8-.8.7-.3.8-.2 2.3-.3.8-1.1.7-1-.2-.5.2-1.4-.1-2.4 2.5-1 1.5.8 2.2-.5 1.3-.1 1.4-.3.6-1 1v1.4l-.5.7-1.1.5-.1.7-1 1-.6-.5-1.1.4-1.2-.8-1.4.1-1.1-.4-.5-.3-1.6-.3-2.8 2.4-1.2 2-.8 2.1v1.5L8 55.5l.6 1h.5l-1 1.8L7 61l.8 2 1.1 1-.2 1-1 1.2v.8l-.1.7L5.4 69h-.9l-.5-.5v-1.3l-1-.5-.2-.7-.2-1.2-.6-1.4-.3-.7-1.6-1-4.5-1.3-.6-.4h-.6l-.7-.6-3-.7-1.7-1.4-1.1-.1-1.1-.7-3.1-.5-1.6-.7-1.1-.8-2.6-.5-1.9-1-4.5-1.7-2.6-1.3-3.1-.7-2.1-1.3-1.4-.4-1-.6-2.5-.9-.9-.5-.6-1-.8-.5v-.5l-1.1-.7-.3-.4-.9-1-9.7-1-6.5-1.5-8-.5-11.6.4-9 1.1v99.5H49.4zm0 139.5H-90.1V279H49.4zm0 0"/></g></g><g fill="none" clip-path="url(#B)" class="D"><g stroke-width=".6"><use xlink:href="#E" class="B"/><use xlink:href="#E" class="C"/><use xlink:href="#F" class="B"/><use xlink:href="#F" class="C"/><use xlink:href="#G" class="B"/><use xlink:href="#G" class="C"/><path d="M49 3.2l.5 1v35" class="B"/><path d="M49 3.2l.5 1v35" class="C"/></g><use xlink:href="#H" class="B"/><use xlink:href="#H" class="C"/><use xlink:href="#I" class="B"/><use xlink:href="#I" class="C"/><use xlink:href="#J" class="B"/><use xlink:href="#J" class="C"/><use xlink:href="#K" class="B"/><use xlink:href="#K" class="C"/><g stroke-width="1.8"><path d="M49.4 32.8V4.3L49 3l-.2-.7-.4-1.1-.2-.5-.4-.9-1-2-.2-.3-1-8.6" class="B"/><path d="M49.4 32.8V4.3L49 3l-.2-.7-.4-1.1-.2-.5-.4-.9-1-2-.2-.3-1-8.6" class="C"/><use xlink:href="#L" class="B"/><use xlink:href="#L" class="C"/><use xlink:href="#M" class="B"/><use xlink:href="#M" class="C"/></g></g><path fill="#f2efe9" d="M49.4 0h448v279h-448z"/><g class="E"><path fill="#eee5dc" d="M393.8 236.4v-.1zm.2 2v.1zm0 0"/><g fill="#aad3df"><path d="M415.9 265.2l.1.1.4.2.4.3h.4l.2.2.5.3h.5l.3.2h.6v.2h-.3v.2h-.1v.1h-.2v.2h.3l.1-.2h.1v-.2h.1v-.8h.3v-.2l.2-.1.2-.3.1-.2v-.2l-.4-.1-.3-.1-.8-.2-1-.4-.6-.2h-.3l-.3-.4h-.3l-.2.4v.2l.3.2v.6h-.2v.1zM49.6 279h139.5V139.5H49.6zm139.5 0h139.5V139.5H189.1zm0 0"/><path d="M328.6 279h139.5V139.5H328.6zm86-9.8l-1.8-1.2-2.7-1.3-2-2.9-3.3-3.2-.8-1-.6-.4h-.2l-1.4-1.5h-.4v-.5l-1-1.2v-.6l-.5-.4-.7-.3h-.4l-.2.3-.6-.3h-.5l-1.5-1-1.1-.3-.7.1-.3-.5-.2.1-.1-.6h.5l.4-.4v-.7l-.4-.7.3-.6.1-.9-.1-.7-.4-.1v-.2h.5l.4-.2-.2-1.5 1.4-.3.3.2.5-.4v.5h.5l.2-.5-.2-.5h-.4l-.5.8h-.4l.6-.5.3-.6.4-.2.8-.8.8-2h2.1v.1l-.2.5.2 1.2-.3 1.2-.6 1.2.1.9.3.5h.3v.6l.7 1.2.2 1.4.6 1 .3.6 1.1 1 .7.9h.5l1.2 1 1.6 2.3.5.3h-.2l-.2.6v.1l-.4.4.1.3.5-.3v-.4l.3-.1v-.7l3.6 2.6 3.2 1.8 1 .9 3.9 1.4 1 .3 1.3-.4 1.3.1 1-.3.2-.6.3-.1 2.1.8.4 1 1.7 1.9 3.8 3 .5.5 1.3.2.5.6-.7.5-.2.6-.7.4h-.9l-1.2.1-.4-.8-.4-.5.1-.6-.4-1-2.6-.7-1.7-.4-1.7.4-.7-.3-1 .2-.6-.2h-1.2l-1.5 1.1-3 .8-.8-.6-.5-1zm-23-34.3l.6-1.9.9-.8.6 1.5-.5.8v.5l.8.6-.3 2.4.8.9.2.8v.4l-.5.3v-.4l-1.2-.5-.8-1.5h-.5l-.6-.8-.3-.7.3-.9zm76.5 44.1h139.5V139.5H468.1zM328.6 139.5h139.5V0H328.6zm139.5 0h139.5V0H468.1zm0-139.5h139.5v-33l-1.8 4-3 3.2-.8.5-.6.1h-.5l-1.6-.8-1.6-.8-.7-.7-2.4-.7-3.8-.6-5 .1-6.1 1.5-3.3 1.6 2-1.4h.4-.2l.1-.1h.7v-.3l-.2-.1v-.2l.7.3.4-.3.2-.4h.3l-.2-.1-1.2.4 1-.5 1.6.1.7-.4v.4h.2v-.4h1.2l3.1-.6.2.3 1.5-.2-1.4-.3.6-.4-.1-.7h-.4l-.5-.5-.4-.1-1 .3-.3-.2-.4.7-.6-.5-3.2.9-.7.5-.7.2-.1.2h-.3l-.4-.3-.2.3.4.3-.3.5-.6.4-.5.8-1.2.8-.2.4-.2 1.3-.8 1 .3.3-.7.5-.7.2v.8l-.7.8-.6.2-.2.8-.4.2-.6-.3-.8.3-1.7 1.5-1.3 1.6-1.2 2.6-.4 1.6.2.7.3.2v.5l.5.3v1l.5.2v-.2h.2v1.5l.4.6.4.2v.4l-.2.2h-1.2L565-6l-1 1.5-.2 1.3-.6.7-1.8-1-.8-.6-.4.3-.8-.2-1.4-.5-.7-.7.1-.5.8-.6v-1l-1.4-2.7v-.8.6l.6-.2 1.6.2.9-.6.3-2.4-.4-1.2-.3-.1.1-.5.1.4.2-.3h-.3l-.2.1h-.8l-.1-.2-.2.4-.6-.7h-.5l.2-.3h-.3l-.1-.4h.3l-.3-.3.1-1.2-.4-.8-.6-.3v-1l-.3-.4h-.4l-.1-.4-.3.4v-.4l-.3-.2v-.4h-.4l-.4-.5-1.5-.7-.2-1.5-.8-.3-.2-.5-1.2-.5-1 .3-.3-.3-.8.4v.3l1.7 1.7 1.9 1.6h.9l.8.6v1.1l2 3.3.7 1.9.7 1.5.6.7v.5h-.3l.1-.6-.1.5.1.7-1-3.2-1.9-3.7-1.3-1.9-3.2-2.8-2.2-2.4-2-.2-1-.8-.6-1 .2-.2-.2-.6-2.2-1.2-1.8-.6-1.4.1-.2.3.2.4-.4.2v-.3l-.1-.3h-1.1l-.4-.2h-1.3l-.9-.6-.8-.3-2.3.3-.1-.5.6-.4.2-.9-.4-2.2-3.3-6-1.4-1.8-2.9-2.9-3-2.3-3.4-2.1-3.7-1.3-11-4.6-4-1-4.9-.2h-2l-1.4.5-1 .5-1.5 1.6-4 1-.5.4-1.4.7-.5.6v1l.4.5.2.2-2 1.8-.3.6.2.6h-1.8l-.2.4h-.4l-3.5 2.4-.3-.1-.9.3-.4-1.2-1.6-1h-.6l-.2.5-.5-.1-1 .6v-.2h-.4l-.1-1.9zm137-17.8h-.6l-.1-.2.8-.2zm-2.1 1.3l.2-.5.3-.2v.4l-.3.4zM328.6 0h139.5v-46.4l-.7-.3h.3l.2-.1h-.3v-.6l-.5.5.5.2-.4.2v.3l-.2-.2-.3.1h-.5l-.4-.9-.4-.1-.7.2-.1-.5-.9-.1-.6-.8-.7.2-.2-.3-.4.1-.2-.2v-.3h-.2v-.4l-.5-.2h-.7l-.7.1-1.4-3.7-1.4-1-.2-1.1-.6-.9h-.2v-.8l-.6-.3.2-2.3-.3-1h.2l.8-.8-1 .7h-.3v-.9l-.7-1.3.4-.8v-.7l-.2-.2v-.7l.7-.7v-.7l-.1-1v-.6l-.4-.3v-1.7l.2-.4.2-2.5.7-.8v-.7l.5.1.5-.4-.1-1.3.4-.6v-1.3l-.2-.1v-.3l.2-.4.6-.3.2-.5.4.2.5-.4.9-2v-.7l-.5-.7v-1l-.4-.9.2-.4v-1.2l1-1.7.4-1.4-.2-2-.7-3.4.2-.8 2.2.4.5-.5 1 .1.1 1 .9.5v1.2l.5 1.1-.1.7-.8.7.4 1.3-.2.3.1 1-.3.9.8 1.8.7.9 1.2.8 1.7.9v-56.4H328.6zM189.1 0h139.5v-139.5H189.1zm0 139.5h139.5V0H189.1zm-139.5 0h139.5V0H49.6zM49.6 0h139.5v-139.5H49.6zm418.5 418.5h139.5V279H468.1zm-139.5 0h139.5V279H328.6zm79.8-135.1l-.3-.2.3-.5 1.2-1.2-.6 1-.2 1.1zM189.1 418.5h139.5V279H189.1zm-139.5 0h139.5V279H49.6zm0 0"/></g></g><g fill="none" mask="url(#C)" transform="translate(49.4)" class="D"><g stroke-width=".6"><use xlink:href="#N" class="B"/><use xlink:href="#N" class="C"/><path d="M.2 13.3V39" class="B"/><path d="M.2 13.3V39" class="C"/><use xlink:href="#O" class="B"/><use xlink:href="#O" class="C"/><use xlink:href="#P" class="B"/><use xlink:href="#P" class="C"/><use xlink:href="#Q" class="B"/><use xlink:href="#Q" class="C"/><use xlink:href="#R" class="B"/><use xlink:href="#R" class="C"/><use xlink:href="#S" class="B"/><use xlink:href="#S" class="C"/><use xlink:href="#T" class="B"/><use xlink:href="#T" class="C"/></g><path d="M.2 4.3V39l.3-.8 1.3-3.7.6-2.2.3-1.3.2-1.3" class="B"/><path d="M.2 4.3V39l.3-.8 1.3-3.7.6-2.2.3-1.3.2-1.3" class="C"/><use xlink:href="#U" class="B"/><use xlink:href="#U" class="C"/><g stroke-width="1.8"><use xlink:href="#P" class="B"/><use xlink:href="#P" class="C"/><use xlink:href="#Q" class="B"/><use xlink:href="#Q" class="C"/><use xlink:href="#N" class="B"/><use xlink:href="#N" class="C"/><path d="M.2 13.3V39" class="B"/><path d="M.2 13.3V39" class="C"/><use xlink:href="#R" class="B"/><use xlink:href="#R" class="C"/><use xlink:href="#S" class="B"/><use xlink:href="#S" class="C"/><use xlink:href="#O" class="B"/><use xlink:href="#O" class="C"/><use xlink:href="#T" class="B"/><use xlink:href="#T" class="C"/></g></g><defs ><path id="E" d="M26.5 77l-.3.7-1 1.7-1.4 1.6-1.2 1.7-1.6 1.2-1.4 1.2-1.3.9-2 1.3-2.3 1-.7.3-2.3.8-.6.2-2 .4-2.3.3H4.2L2 90l-2.1-.3h-.2l-1.7-.5-2-.7-1.6-.8-1.6-1h-.2l-1.4-1.2-1.4-1.1-1-1"/><path id="F" d="M37.2-39l1.4 2.2.9 1.1.4.7 1.6 2.6.2.4.9 2 .7 2.1.5 2.2.2 1.5.5 4.7.1 1v.5l2 15.5.2.3 1 2 .4 1 .2.3.4 1.2.2.7v.2"/><path id="G" d="M49.4 39l-.5 1.4-.3.5-.6 1.4v.2l-1.8 2.3-5.9 8-.5 1.4-.8 1.3-.8 1.3-.2.4-.5.6-1.5 1.8-1 1.2-1.7 3-5 9.2-.6 1.7-.2.1-.3.8-.2.3-.5 1.1"/><path id="H" d="M36 59.6h.2l1.2-1.8h.1l.5-.6.2-.4.8-1.3.8-1.5.5-1.1 6-8.1 1.5-2.3.2-.2.6-1.4.4-.6.4-1.3V19"/><path id="I" d="M-32.8 72.4h.1l1.9.8 1.5.8h.7l.4.2 3.2 1.3.8.3 1.5.5.7.2 4 1.5 1.2.6.8.3 5.8 5.5 1.4 1.2 1.4 1h.2l1.6 1.1 1.6.9 2 .6 1.7.5H0l1.9.4H2l2.1.2h2.1l.8-.1"/><path id="J" d="M49.4 19V4.4L49 3l-.2-.7-.4-1.1-.2-.5-.4-.9-1-2-.2-.3-2-15.5v-.5l-.1-1-.5-4.7-.1-.5"/><path id="K" d="M6.9 90.2l1.4-.2 2-.4.7-.2 2.3-.8.8-.3 2.2-1 2-1.3 1.3-1 1.4-1 1.6-1.4 1.3-1.6 1.2-1.7 1-1.6 1.1-1.8v-.3l.4-.8.9-1.8 4.9-9.3 1.4-3 1.3-1"/><path id="L" d="M-6.3 87.2l.7.5 1.6.8 2 .7 1.7.5H0l1.9.4H2l2.1.2h2.1l2.1-.3 2-.4.7-.2 2.3-.8.8-.3 2.2-1 2-1.3 1.3-1 1.4-1 1.6-1.4 1.3-1.6 1.2-1.7 1-1.6 1.1-1.8v-.3l.4-.8.9-1.8.7-1.6"/><path id="M" d="M29.2 71.4l4.1-7.7 1.7-3 1.1-1.1 1.3-1.6.1-.2.5-.6.2-.4.8-1.3.8-1.5.5-1.1 6-8.1 1.5-2.3.2-.2.6-1.4.4-.6.4-1.3v-6.2"/><path id="N" d="M.2 39l.3-.7 1.3-3.8.6-2.2.3-1.3.3-2.5.4-2.8v-3L3.2 19 3 16.6l-.2-.8-.2-1.5-.1-.5-.5-1.6-.1-.7L.5 5.3l-.3-1v9"/><path id="O" d="M363.2 222l-.1-.4-.2-.2-.2-.4-.1-.2-.2-.5-.2-.2-.2-.1-.2-.4-.2-.3-.2-.3-.2-.3-.2-.3-.3-.3-.2-.1-.2-.4-.3-.2-.2-.4-.3-.2-.2-.2-.3-.3-.2-.2-.3-.2-.3-.3-.2-.2-.6-.4-.3-.2-.3-.2-.2-.3-.3-.1-.3-.2-.3-.2-.3-.2-.4-.2-.3-.2-.3-.1-.3-.2-.3-.1-.3-.2-.5-.1-.2-.2h-.3l-.3-.3h-.4l-.3-.1-.5-.2h-.2l-.3-.3h-.7l-.4-.1h-.3l-.4-.2-.3-.1H347l-.4-.2h-3.8l-.3.2h-.5l-.2.2h-.4l-.3.1h-.7l-.4.3h-.3l-.3.1-.4.1h-.3l-.4.2h-.3l-.3.3h-.4l-.3.2-.3.1-.3.2-.4.1-.3.2-.3.2h-.3l-.3.3-.3.2-.5.2-.2.2-.3.2-.5.4-.3.2-.3.2-.4.2-.2.2-.2.4h-.3l-.3.3-.2.3-.3.2-.4.4-.1.1-.3.3-.2.2-.2.3-.3.3-.2.2-.2.4-.2.2-.4.3v.3l-.3.2-.2.3-.2.4-.2.3-.1.2-.3.3"/><path id="P" d="M399.3 286l.1-.1.3-.2.2-.3.3-.2.2-.3.2-.2.4-.3v-.3l.3-.1.2-.4.1-.1.1-.2.3-.2.2-.3.2-.3.2-.2.2-.3.2-.3.2-.3.2-.3.2-.3.2-.3.2-.3v-.2l.3-.4.2-.3.2-.5.1-.2.2-.3v-.3l.3-.3v-.4l.3-.3v-.3l.1-.3.1-.4.2-.3v-.3l.1-.4.1-.3.2-.7v-.7l.3-.7v-1l.1-.4v-3.6l-.3-.4v-.2l-.1-.5v-.6l-.2-.4v-.3l-.2-.4-.1-.6-.1-.4-.1-.3-.1-.3-.1-.4-.2-.3-.1-.3-.1-.3-.2-.3-.1-.4-.2-.2-.1-.4-.2-.3-.2-.3-.1-.3-.2-.3-.2-.4-.2-.2-.2-.2-.2-.3-.2-.3-.2-.3-.2-.4-.2-.3-.3-.2-.2-.3-.2-.2-.2-.3-.3-.3-.2-.2-.2-.3-.3-.2-.2-.3-.3-.1-.3-.3-.2-.3-.3-.2-.3-.2-.2-.2-.3-.2-.3-.2-.3-.2-.3-.2-.3-.2-.3-.2-.3-.2h-.3l-.1-.2-.2-.3-.2-.3-.2-.3-.2-.3-.2-.3-.2-.2-.3-.3-.2-.3-.2-.2-.3-.3-.2-.3-.2-.2"/><path id="Q" d="M393.3 248.5l-.2-.3-.1-.2-.4-.2-.3-.3-.2-.2-.3-.2-.3-.2-.3-.3-.2-.2-.3-.2-.3-.2-.4-.2-.2-.2-.3-.1-.3-.2-.2-.3-.4-.1-.6-.3-.3-.1-.4-.2-.3-.1-.2-.2-.3-.2-.3-.2-.3-.1-.3-.2-.3-.2-.3-.1-.4-.1-.3-.2-.3-.1-.3-.2h-.4l-.3-.3h-.3l-.4-.1-.3-.1-.3-.1-.4-.1h-.3l-.4-.3h-.6l-.4-.2h-1l-.4-.1h-1l-.4-.1h-2.1l-.3.3h-1l-.1-.1-.3-.3-.2-.3v-1.2l-.2-.4v-.6l-.1-.3v-.4l-.1-.3v-.4l-.2-.3v-.7l-.2-.4v-.3l-.2-.3v-.4l-.2-.3v-.3l-.1-.4-.2-.3-.1-.3-.1-.4-.2-.3-.1-.3-.2-.3-.1-.3-.2-.4-.3-.2v-.4l-.2-.3-.2-.3-.2-.2-.2-.3-.2-.3-.2-.3-.2-.3-.3-.3-.2-.1-.1-.4-.3-.3-.3-.2-.2-.3h-.2l-.2-.4-.2-.2-.2-.2-.4-.3-.2-.2-.2-.3-.3-.2-.3-.2-.5-.5-.3-.2-.2-.2v-.3l-.2-.3-.1-.3-.1-.4-.4-.6"/><path id="R" d="M339 271.1l.2.1.3.2.3.2.2.2h.1l.3.4.2.2v.2l-.3.4-.1.3v.3l-.2.3-.1.3-.2.4v.3l-.3.3v.4l-.2.3v.5l-.2.3v.4l-.1.6v.7l-.2.4v.2l-.1.5v1l-.1.4v2.4l.3.3v.7l.1.4.1.3v.7l.1.3.1.4v.3l.3.3v.4l.2.3v.3l.1.3.2.4.1.3.1.3.1.3.2.4.1.3.2.3.2.3v.3l.3.3.2.3.3.6.2.2.2.4.2.2.2.3.4.3v.2l.3.3.2.3.3.2.2.3.2.2.3.3.2.2.5.5.5.4.3.3.3.2.3.2.2.2.3.2.3.2.3.2.3.2.3.1.3.2.3.3h.3l.3.2.3.2.2.1.4.1.3.2.3.2h.3l.3.1.3.2h.3l.4.3h.3l.3.2h.4l.3.2h.7l.4.1h.3l.3.3h.6l.4.1h.3l.4.1h.6l.4.1h2"/><path id="S" d="M326.7 221.5l-.1.3-.2.3-.2.3-.2.4v.1l-.2.1-.1.4-.2.3-.1.3-.2.3-.1.3-.2.4-.1.3-.1.3-.1.2-.1.2-.1.3-.2.3-.2.2v.3l-.1.4-.2.3v.2l-.3.4v.4l-.1.2-.1.5-.2.3v.7l-.2.3v.7l-.2.5v.2l-.1.4v.3l-.1.4v1.2l-.1.4v4.1l.3.4v.3l.1.4v.3l.1.3v.5l.2.2v.6l.2.8.1.3.1.4.1.3.1.3.2.4v.3l.2.2.2.4.1.4.2.2.1.4.2.3.2.3v2.4l-.2.4v3.9l.2.4v.3l.2.3v.4l.1.3v.6l.3.5v.3l.2.3v.4l.2.3v.3l.2.4v.3l.1.2.2.4.1.4.2.2.1.4.2.3.1.3.2.3.2.3v.3l.4.2v.3l.2.3.2.3.4.6.2.2"/><path id="T" d="M329 263.8l.2.4.2.2.3.3.2.3.1.2.3.3.3.2.2.3.3.2.2.3.3.2.2.3.3.2.2.2.3.2.4.4h.2l.2.3.3.2.3.2.3.2.7.3.2.2.3.2.3.1.3.3.3.1.3.1.4.2h.3l.3.3.3.1h.4l.3.2h.3"/><path id="U" d="M3 29.7v-1.2l.4-2.8v-3L3.2 19 3 16.6l-.2-.8-.2-1.5-.1-.5-.5-1.6-.1-.7L.5 5.3l-.3-1"/></defs></svg>