<svg xmlns="http://www.w3.org/2000/svg" xmlns:xlink="http://www.w3.org/1999/xlink" viewBox="0 0 497 279" xmlns:v="https://vecta.io/nano"><style><![CDATA[.B{stroke:#fff}.C{stroke:#8d618b}.D{stroke-linejoin:bevel}.E{fill-rule:evenodd}.F{clip-path:url(#C)}]]></style><filter id="A" width="100%" height="100%" x="0%" y="0%"><feColorMatrix in="SourceGraphic" values="0 0 0 0 1 0 0 0 0 1 0 0 0 0 1 0 0 0 1 0"/></filter><mask id="B"><g filter="url(#A)"><path fill-opacity=".5" d="M0 0h497v279H0z"/></g></mask><clipPath id="C"><path d="M0 0h497v279H0z"/></clipPath><mask id="D"><g filter="url(#A)"><path fill-opacity=".5" d="M0 0h448v279H0z"/></g></mask><path fill="#f2efe9" d="M0 0h497v279H0z"/><g class="E"><path fill="#c8d7ab" d="M-11 278.4l7 1.1 1.4 2.2 4.8-3.3 1.7-5-4.2 3.1-5.3 1.7h-5zm11.7-.1"/><path fill="#cdebb0" d="M21.4 264.3h.1zm0 0"/><g fill="#aad3df"><path d="M-17805.5 6.6h.2l.1-.2h.2l.1-.4v-.3l-.3-.2v-.3h-.3V5zm0-2.2l.1-.2h.1V4h.5v-.1h.1l.2.1v.1h.2v.4h-.7l-.1-.2-.2.3v.2h-.1V5l.3.4.1.1.1.3.2.2h.3l.1.2h.1v.3h.3v.2h.2v.1h.1v.1h.1V7h.1l.1.1.3.2h.2v.3h.2l.2.2h.3l.1-.4h.3v.3h.2v.1l.5.2.2.1.5.2h.3l.5.2h.5v-.2l.3-.1V8l.1-.1.1-.2v-.3h-.2v-.2h.3l.3-.2v-.1l.1-.3v-.5h.2v-.9l-.3-.1h-.1v-.3h-.2v-.2l-.2-.1v-.4h-.2l-.2-.1h-1v.1h-.1l-.1.2h-.2v-.7l-.2-.1v-.2l-.2-.4v-.2h-.2v-.3h-.3v-.7l-.3-.2v-.1l-.2-.1V1h-.2l-.7-.1h-.3l-.2-.3V.4l-.1-.2h-.7V0h-.4l-.3.2-.2.2-.2.1-.2.2-.1.1zM44.2 6.8h.2V7l.1.2.2.1h1.4l.2-.3h.2v-.1l.4-.2v-.1h.5l.1.4.7.3.1.1h.5l.2-.2V7h.1l.1-.4h.3V4.9h-.4l-.3.5v-.2L49 5l.3-.3v-.2l.2-.1V.8h-.4L49 .6h-.1V.5h-.8l-.1.2h-.1l-.1.3h-.1l-.1.1h-.2v.2h-.2v.1h-.4v.1l-.2.1-.1.3h-.1l-.1-.2-.3-.2v-.1l-.2.1h-.3v.2l-.3.3v1.6l.3.2h-.4v.7h.5-.3v.2h.3V5h.4v.3h.3v.1h.1l.1.2h-.6l-.2.3-.2.1-.3.3h-.4v.2h-.5v.1zm.8.1v-.3h.7v-.2h.1l.1-.2h.2l.2-.2h.4l.1.2v.2l-.3.3-.5.3h-.3zm-53.3 223v1.2h.3v.7l.6.2v.2h.1v.1l.7.3v.1l.2.3.6.4.2.2.3.2h.1l.2.2v.2l-.3.1-.2.7v.8h.2v.2h.1v.1l.7.3v-.4h-.4.3v-.6.1h-.3v-.3h.4v-.2h.6v-.3h.2v.2h.1v-.4H-4v-.3h-.1v-.2l.3-.2h.3v.2-.2h.1v.5h.2v.3h.2v.2h.2v.2l.1.2h.2l.1-.4h.2v-.2h.7v.7H-2v-.3h-.1v.5h.3v.5h.2l.1.1v.2h.3v.4h-.5v-.2H-2v.5h-.4v.3l-.2.2h-.1v.2h.2v.1h-.3v.2h.3v-.1h.6v-.2l.1-.2h.2l.2-.1v.1h.1v.2h-.2l.1.2.1.4h.3v.2h.3v.2l-.8-.1h-.1v.2l.2.2.2-.2v.2h.4v-.3.2l.3.1.3-.1.2.1-.3.2h1v.1h.1v.1h.1v.2H1v.2l.6.2v.1h.2-.6l1.1.4v-.2l.3-.1v.3-.4h.3v.3-.2h.3v.4h.4v.2h.6v.2h.3v-.2h.1v-.2h.2-.1v-.3h-.2v-.1h-.3v-.3l-.2-.1h-.2v.4h-.3v-1h.2v.1-.2h-.6L3 239v-1l-.2-.3-.4-.1-.2-.1-.2-.2v-.3h-.3.3v-.2l-.4-.3h-.1v-.4h-.2v.5-.9l-.3-.3-.2-.4H.3v-.4H.1v-.4l-.2-.2h-.1v-.3l-.4-.4v.3l.1.2-.1-.1-.1-.2v-1.4h-.2v-.1H-1v-.4l-.3-.2h-.1l-.2-.6h-.3v-.3h-.5l-.3-.1-.4-.2v-.4l-.3-.1v-.3l.3.3.1.1h.3v-.8h-.2v.1H-3v.1h-.2v-.4h.2v-.3.2h-.3v.1h-.2l.1.2h-.3v-.2H-4v-.1h.4l-.3-.3h.2v-.7.1h-.2v.4H-4v-.2h-.1v.1h-.1v.2l-.1-.3.3-.3v-.2h.2l.1-.2v-.3h-.2v.3l-.1.2-.2.2-.1.1h-.1l-.2-.3-.1-.2v-.1H-5v-.1l.2-.2h.3v-.1h.7v-.2H-4l-.3-.2-.7-.2-.2.3h-.4l-1.6.7-.3.3-.5.8zm5 4.4v-.4h.2v-.2.2h.1v.3l.1.2v.2h.4v-.2h.4v-.3h.1v.2h.4l-.4.2-.2.1v.1h-.2l-.3.3H-3v-.5l-.4-.2zm1.3 2.6h.1zm0 .2h.3v-.2l.1.1v.2H-2zm1.5-3.1v-.2zm.1.5h.1v.3h-.1v-.4zm2 3.1v-.2h.2l.3.2-.1.2h-.1l-.2.2.3-.2h-.3l-.2-.3zm.4.4v-.1h.2v-.1l.1-.2h.1l.1.4v.1h.2v.3h-.5v-.2zm2 2.7h.2zM2.7 272v.1H3v.9h.8v-.3H4v-.1h.4v.2h.1v.3h.3v.1h.1v.3H5v-.1h.3v.3H5h.3v.1h.1v.2h.2v-.2h.7v-.1h.1v-.3h.3l.3-.2h2.7v-.1h.1v-.1h.2v-.3h.2v-.1h.1l.1-.2v-.3h.2v-1.4l-.3-.1v-.1l-.1-.1v-.2h-.1v-.2H10v-.7l-.1-.1-.2-.2-.2-.3-.1-.1h-.2v-.1h-.8l-.1.3H8v-.3h.5l.1-.2h.1l.1-.1.1-.2H9v-.2l.2-.3v-.2l.2-.1.1-.2.2-.2.1-.1h.2v-.2h.3v-.1h.2v-.1h.5v-.3h.7v.6l.2.1h.4v-.3h.3l.1-.1h.2v.4h.1v1.3h.1-.1l-.2.1v1.3h.4v.4-.3H13v1.2h.3v.8h.3v.2h.2v.1-.5l-.2.1h-.2v-1.1h.2v-.2h-.3v-.1h.3v-.4l.2-.1v-.4h.1v-.5l-.3-.2h-.1v-.4l-.1-.1-.1-.2v-.1h-.1v-.2h.3v-.2h.1v-.4h-.3v-.7l-.1-.1h-.1l-.1-.2h-.2v-.1h-.3l-.1-.1h-.1v-.1h-1.1v-.1H11v.3h-.2v.3h-.1v-.3h-.3v.3H10v.2l-.2.2h-.2v-.3h-.1v-.1h-.1l-.1-.1h-.1v-.2h-.6l-.3.1-.3.2v.4h-.2.8v-.3.2H8v.3h-.2v.1h-.1v.1h-1l-.2.1v.1h-.2v.1h-.2v.2H6v.1l-.2.2-.1.2h-.1v.2l-.3.1-.1.3v.1H5l-.1.2h-.1v.2l-.3.1h-.3v1.2H4l-.1.1v.1l-.2.1v.2h-.1v.2h-.1v.1h-.1v.2h-.3v-.2h.3l.2-.2v-.1h-.2v-.1h-.3v.2H3v.4h-.3v.2H3v.1-.3h.1v.5H3v.1h-.2v.3h-.1zM42 20v.1l.3.3v.1l.2.3.3.2.1.1.3.1h.2l.2.1h.8v-.1l.3-.3v-1.3l-.2-.2-.2-.2h-.2l-.2-.2h-.5l-.4.3h-.5l-.2.2H42v.3zm-12.9-2.8v.2l.2.3V17l.2-.1h.5l.3.1v.4h.7v-.1l.1-.1.2-.2h.1l.2-.3v-.1h.1v-.1h.1l.2-.3h.3l.2.1v.1h.5v-.2l.3-.2v-.7l.2-.1h.5V15h.5v-.2h.7v.2H35h.2v.1h.2v.2h.6v-.6h.2v.3h.4v.2h.3v-.5h.1l.1-.1h.5v-.1h.2v-.2l.2-.2h.2v-.3h.1v-.1h.3v-.1h.4v-.3l.3-.1V13h.2v-.2h.1v-.3l.4-1.1V11h.2v-.4h-.1l-.4.4v.1l-.2.4-.3-.1H39v-.2h-.5v.3l-.3.1v.2H38v.2h-.1l-.1.8v.2h-.3v.8l-.2.2-.3.7-.2.3h-.3v-.3h-.3l-.2-.2v.2l-.3.4h-.4v-.3H34v.2h-.2v.1h-.7v.3H33v.1l.1.7h-.3v.1h-.6V16l-.5.3v.4h-.4v.2l-.1.1H31v.3l-.2.1h-.4v-.2l-.2-.3-.7-.2-.3.3zm8.1-2.7v-.2h.3v.3zm.2-.1l.3-1.1V13l.2.2.1-1V12h.3v-.3l.4-.3h.2l.4.2h.2v.1h.1v.4h-.1l-.3.6-.1.1-.1.2v.1l-.1.1-.7.5h-.4v.2l-.3.3h.2-.1v.3zm.4-.4v-.1h.2zm0-1.7h.2zm.4 1.4v-.2h.4v.3h-.5v.1zm1.2-1.1v-.1h.2l-.2.4zm0 0"/><path d="M40 10.5l.3.1h.2v.2h.1v.2h-.1v.4-.1h.1l.1-.3v-.5l.7-.2h.6v-.1l.2-.2.1-.2v-.3l.3-.1v-.2h.1l.3.1V9h.4v-.2h.4l.2-.2v-.2h.3l.1-.2v.1l.2.1h.3V8h-.3v-.3h-.2v-.3h.3v-.1l-.2-.2-.1-.1h-.1l-.1.3v.4l-.2-.1V7h.1v-.2h-.3l.2.2v.6l.2.2V8h-.4v.4h-.3l-.3.1-.2.1-.6.2-.6.4h-.2V9l-.2.3h.1l-.3.3h.3v-.2h.1v.2h-.1v.1l-.2.3h-.8l-.2.3h-.1zm1.5-.4l.1-.2v-.1l.2-.3.2-.2.2-.1V9h.1v.4l-.2.2h.1v.2l-.2.1-.2.2zm2.1-1.6h.1zM8.3 244.3v.3h.2v.3l.1.1v.7l.2.2v.6-.3h.1v.3-.3H9v.2h.2v.1H9h.3l.1.2v.2-.7h.1l.1-.1v-.1h.1v-.6h.1v-.7h-.4l-.1-.1H9v-.1h-.2v-.1h-.1v-.1h-.2v-.2h-.1v-.1h-.1v.1h-.1v.2zM30.9 19.6v.4h.1v.2h.2v.1h.1v.1h.1l.1.1.1.1h.1v.1h.6v-.4h.1v-1.1h-.8v-.1h-.1V19h-.3v.3H31v.2l-.2.1zm6 27.1v.2l.1.1h.7v.3h.3V46l.2-.1v-.4h-.4v-.1l-.2-.1V45h-.3l-.1.2v.4h.3v.4l-.4.2-.1.1v.2h-.2zm4.3-5.5v.3l.4.2.2.2.2.1.3-.3.2-.3V41l.1-.2v-.4h-1l-.1.2v.2h-.2v.2zM8.9 268.4v.2h.5v.1h.1v.1h.5v-1.5h-.3v-.3h.3v-.2h-.5v.3l-.1.2v.1h-.1v.2h-.1v.2l-.2.3v.1l-.2.2zM37.3 15v.1l.3.3v.2h.2v.8-.7h.2v.3h.3l.1.6v.4l-.2.3v.5h-.1v-.2l-.5-.3v-.6l.2-.4-.1.2h-.2v1l.5.2v.1l.5.2h.2v.3h.3v.3-.3h.1v.3h-.5v.3h.4v.2h-.3v.3l.3-.3V19l.3-.4v-.2h.4l-.7-.2-.2-.2h-.2l-.1-.4v-1l-.2-.6v-.2H38v-.1l-.2-.2-.2-.5v-.4h-.2zm-14.1 7.4v.6h.2v.2h.1l.1.2h.1v.1h.6v-.3h.1v-.1h.1v-.5h-.4v-.1H24v-.3h-.2v-.1h-.5l-.1.3v.1zm26.2 117.1h-74.9l.6 1.4 5.4 12.1 1 1.7.8.8.1.9.4.3 1.5 4.9 4.7 26.3 1 14-.1 1.1.7 1.2.6 6.7 1 4.6 1.2 3.5 2.5 6.2 2.3 4.6 4.4 7.7 2.7 3.4.7.3 1 1.6 2.1 1.6.7.3.5-.2 1.7.3 1.6 1.6 1 .6 1.4 1.3 2.8 4.1.5 1.2 1.8 1.8.9 1 .1.8h.2l.2 3.7.4 2.4-.2.5-.3-.1-.9.7-1.8-1.4-1-.3-.7.2.2-.3-1.3.8-.9 1-1.3 2.3-.7 2.9-.3 1.7.3 3.9.4 1.3 1.3 2.1v.4h33.7zm0 139.5H15.7v1l.3 1 1.8 2 .6.3 1.4-.5 1 .8 2 .4.8.2h1.6l2.6 3.1.8 2-.2 2.2.1 2.4.5 1.1.5.3.8 1 .7 2.4-.6 3 .6.9.2 1-.4 1.1-.1 1.8-.8.7-.3.8-.2 2.3-.3.8-1.1.7-1-.2-.5.2-1.4-.1-2.4 2.3-1 1.7.8 2-.5 1.6-.1 1.3-.3.6-1 1v1.3l-.5.7-1.1.6-.1.7-1 .9-.6-.4-1.1.4-1.2-.8h-1.4l-1.1-.2-.5-.5-1.6-.2-2.8 2.4-1.2 1.9-.8 2.1v1.6l2.4 1.8.6.9.5.2-1 1.7L7 340l.8 2 1.1 1-.2.9-1 1.3v.6l-.1.9-2.2 1.2-.9.1-.5-.6v-1.2l-1-.5-.2-.7-.2-1.2-.6-1.4-.3-.7-1.6-1.1-4.5-1.1-.6-.5h-.6l-.7-.6-3-.8-1.7-1.3-1.1-.3-1.1-.5-3.1-.5-1.6-.7-1.1-.8-2.6-.5-1.9-1-4.5-1.7-2.6-1.3-3.1-.7-2.1-1.4-1.4-.3-1-.7-2.5-.8-.9-.5-.6-1-.8-.6v-.4l-1.1-.7-.3-.4-.9-1-9.7-1.1-6.5-1.3-8-.6-11.6.4-9 1.1v99.5H49.4zm0 0"/><path d="M49.4 38.8l-2 1.7-1.4.5-.9.1-1.6 1.6-1.1.5-.5.4-3.8 5-1 2.2-.1.8-1.9 2.4-2.2 2.2-4.3 5.4-2.6 4.1-.3 1.1-.5.4h-.6l-.6.4h-.6l-.3-.8h-.7L17 68h-.6l-1.2.1h-1l-4.5 2.6-3 .6-3.3 2.3-1.7 1.5-.7.3-6.4 6.6-5.4 4.6-1.8 1.4-1.7.8L-17 91l-2.6 2-2.8 1.5-1-.2-.4-.3.2-1.3-.4-.8.5.4h.8l.7-.5.3-.5 2.6.7.8-.5.7-.2.3-.5.7-.3 2-1.8h-.2l.2-.3 1.1-.5.2-.4.7-.1.4-.8 1.5-.4.6-1h.8l.3-1.3-.6-.2-.8-1-.2-1-1.1-.7-1.3.3h-1l-.9.3h-1.6l-.6.1-1 .7h-.5l-.6.4-.7.2-1.1 1.1-.5-.1h-1.7l-.8.4-5.3.6-1.7.7h-3.7l-1.8.5-1.5-.4v-.2h.6l.4.1h1l.8-.5-.3.4.1.2.6-.1h1.8l-.9-1 .2.5-.3.4v-1l-.6-.8v.2l-2.1-.8-4.3-.9-1.5.1-.5-.1-1.6.5-3.7 2.6-1 .3.2-.3.7-.5.4-1.9-.8-1.4-1.2-.8-3-.5-5 .6-2.4-.6h-1.1l-.9-.4-1.6-.2-1.8-1-1.7.3-.6-.2v-.2l1.9-1.6-.8.8-.3.7.3.2.4-.3.5.2.1-.6.2.2.2-.6-.4-1-1.4-1-.4-2.4-1-1.4-1.2-.5h-3l.5-.8 1-.9.4-1.1-.4-1-.8-.8-1.6-.4-1.6.6-.9.7-.5-.3v-.8l-.6-.2h-.8V66l-.2-.6-.8-.4 1-.2.5-.4 1 .3 2.1-.3 2-2.7-1-.3-1.3-1 .6-2.1.3-3 .7-1.5-.2-1.2.5-.2.1-.4h-.6l-.6.1-.1.4v1.3l-1.2-.8h-.5l-2.7.6-.5-.4-5 .3-.8-.5h-1l-.9-.5-.5-.7h-.2l-.4-.8.7-.8.3-1.2v-.7l-.3-.3.5-1v-1.8l-.6-.1-.4-.5-.2-.7-.2-1-.4-.5-1-.4-.2-.3-.2-.2v8.8l1.2.9.3 1.8.8.8 1 .4.7-.2.3-.3.2.1-.9 4v.7l.5 1-.5 1.9.2.7v.8l.7.8.7.4.6-.1.6.3.4.7.8.4v.4l-1.4 1.9-.2-.2h-.7l-.1-.1-1 .2-1.5.8-1 1.3-1.8.8v8l1.7-.5 1.7-1.2 2.1-2.3 1.8-1 .4-.9.7-.2 1.7.5 2 .9 3.8-.2.8.6h.5l.2.3-1.8 5.3-.8 2.8-.2 2.7.3.6.6.6-.5.2-.3 1.3h-.3l-1.1 1.1-1 3.7-1.2 6.7.2 2.5.3 1.8.4.5 1.1 3.5.7.7 1 3.5 1.3 1.4.7.6.8.9h.3l1.7 2.8 1.3 1.2.5 1.3.3.2.4-.4h.5l1.3 1.1 1.5 1.9h.3l3.8 5.1 3.7 4.1 3.7 1.6 1.2 1.2 1.2.6h.8l.9-.3.5-1.5 1.6.5.5.3.1.2-.4-.3-.2.5.4 1 2 1.3 1 .3h1l.9-1.1v-.6l-1.1-2.5-.7-.4-.2.3v-1.1l2-1.6.3-.4 2.8-1.6 1.4-1 .2-.6 1-1 1.3-1.5 1.4-2.7-.1-1.8-1.1-1.5-.6-3.4-.5-1.1-.7-.8.2-.2-.5-.4-.1-.4-.9.5.1.5v-.4.2l-.2 1.4v1-.1l-.3-.8.5-1.4-.7-2-.2-2 .2.2 1 1.9 1.2 1.6 3.8 9 6.7 17.8h74.9zm-64.6 50.4l-.4-.4-.4-.8.5.2zm1.8-2.2l.2.2v.2l-.4-.4h-.1zm0 0"/></g></g><g fill="none" mask="url(#B)" class="F D"><g stroke-width=".6"><use xlink:href="#F" class="B"/><use xlink:href="#F" class="C"/><use xlink:href="#G" class="B"/><use xlink:href="#G" class="C"/><use xlink:href="#H" class="B"/><use xlink:href="#H" class="C"/><use xlink:href="#I" class="B"/><use xlink:href="#I" class="C"/><use xlink:href="#J" class="B"/><use xlink:href="#J" class="C"/><path d="M49.4 15.6v44.6" class="B"/><path d="M49.4 15.6v44.6" class="C"/><use xlink:href="#K" class="B"/><use xlink:href="#K" class="C"/><path d="M49.4-29v44.7" class="B"/><path d="M49.4-29v44.7" class="C"/></g><path d="M47.5 75.4l.2-.3 1.7-2.1V31.5" class="B"/><path d="M47.5 75.4l.2-.3 1.7-2.1V31.5" class="C"/><use xlink:href="#L" class="B"/><use xlink:href="#L" class="C"/><use xlink:href="#M" class="B"/><use xlink:href="#M" class="C"/><use xlink:href="#N" class="B"/><use xlink:href="#N" class="C"/><use xlink:href="#O" class="B"/><use xlink:href="#O" class="C"/><use xlink:href="#P" class="B"/><use xlink:href="#P" class="C"/><use xlink:href="#Q" class="B"/><use xlink:href="#Q" class="C"/><path d="M49.4 31.5V-13" class="B"/><path d="M49.4 31.5V-13" class="C"/><g stroke-width="1.8"><use xlink:href="#R" class="B"/><use xlink:href="#R" class="C"/><path d="M49.4 311.8v-28.5L49 282l-.2-.7-.4-1.2-.2-.4-.4-.9-1-2-.2-.4-1-8.5" class="B"/><path d="M49.4 311.8v-28.5L49 282l-.2-.7-.4-1.2-.2-.4-.4-.9-1-2-.2-.4-1-8.5" class="C"/><use xlink:href="#S" class="B"/><use xlink:href="#S" class="C"/><use xlink:href="#T" class="B"/><use xlink:href="#T" class="C"/><use xlink:href="#U" class="B"/><use xlink:href="#U" class="C"/><use xlink:href="#V" class="B"/><use xlink:href="#V" class="C"/><path d="M38.8 86l1-.9 1.5-1.2.7-.7 1.6-1.8 1.5-2 .9-1.8.3-.3.4-.8 1-1.4 1.7-2.1V45.3" class="B"/><path d="M38.8 86l1-.9 1.5-1.2.7-.7 1.6-1.8 1.5-2 .9-1.8.3-.3.4-.8 1-1.4 1.7-2.1V45.3" class="C"/><path d="M49.4 45.3V.8" class="B"/><path d="M49.4 45.3V.8" class="C"/><path d="M49.4.8v-44.6" class="B"/><path d="M49.4.8v-44.6" class="C"/></g></g><path fill="#f2efe9" d="M49.4 0h448v279h-448z"/><g class="E"><path fill="#eee5dc" d="M486.9 223.4l.4-.4zm0 0"/><g fill="#aad3df"><path d="M412.1 16v.6h.3l.1.1h.5l.4.3.4.1h.8l.9-.5h.2v.4l.2.3v.2h.5v.4l.2.7.5.4h.2v.3h1.1v-.2h.3l.2-.1h.5v.6l-.1-.2h-.1v.1h-.2v.2h.4v.1l.5-.3h.3l.2-.2h.2l.2-.3.2-.1h.2v-.1l.2-.1 1.7-.5.3-.2.1.2.2.1.3.1v.1h.4v.1h.1l.6-.3h.1l.2.4h1.3l.3.3h2.5l.1-.1h.6v-.3l1.5-.4h.3l.4-.2v.3h.1l-.1-.3h.2v.1h.6l.4-.1.8-.4v-.2h.3V17h.4v-.2l.3-.2v-.2l.5-.9V15h.3v-.6h.2v-.6l-.5.1v.4l-.2-.2-.2-.3h-.1v-.1h-.3v-.1h-.1v-.3h-1.1v-.1h-.2l-.1-.2h-.4v-.3l-.1-.2H432v-.1h-.7l-.3.1-.3.3h-1.3v.2l-.4-.2h-.5v.2h-.7v-.3h-1.1v-.2h-.2v.3l-.5-.2h-.1l-.3.4h-.4v.5h-.6v.2l-.4.2h-.2l-.6.1h.3v-.5h-.2l-.1-.1h-.4l-.6.4h-.6v.2h-.4l-.4.3-.3.1-.1.2-.2.1-.2.1h-.5v-.6h-.2V14h-.1v-.5l-.3-.2-.3-.1h-.4v.1h-.1V13h-.3v-.2l-.7.2h-.4.1v-.3l-.3-.3-.2-.2h.3V12h-.9v.3h-.9v.1h-.1v.3h-.3l-.2.1-.1.2h-.2v.2h-.2l-.1.1h-.2v.1h-.2l-.2.2v.1h-.2v.2l-.1.1-.3.2v.2h-.1l-.1.1v.1l-.2.2v.2zM298.4 63.8v.2h.2v1.3l.3.1v1.1h.1l.2.2v.2-.3l-.2.2v1.1h.4v-.3l.3-.1v.4h.1v.3-.4l.4-.2h-.2l-.3-.1.1-.2.2-.2v-.5h.3l.1-.3v-.1h.3v.3l.1.1h.8l.1.1h.1v.3h-.3v.2h.7v.1h.2l.2-.3h.5v.2h.3v.2h.2v.2h.1v.1l.2.2v.1l.3.1v.1l.2.2h.6l.1-.2h.6v.2h.2v1l.1.1.1.1.2.1h.1v.1h.2v.1h.2v.1h.4l.1-.3.1-.1h.2v-.2h.3v.3h.1l.2.1.2.2h.3v-.2l.1-.2h.1l.2-.2h.3v.6l-.2.2.2.3h.6l.2.1.2.2.3.2.1.2v.9h.2v.3h-.3v.1h-.1v.5h.3v.3h.2l.3.2.4.1.3.2.3.2.6.2h.6l.4.2h.2V74l.1-.1v-1.4h-.3v.8h.3-.4v.1-1h.3V72h.2v-.2l.2-.1V71h-.2v.3-.7h.1v-1l.3-.3v-.7h.3l.1-.6-.2-.1v-.3l-.4.3-.3.3V68l.1-.2h.2l.2-.5h.2l.2-.1.2-.5.2-.3.2-.1.4-.3h.2l.2-.4.3-.4v-.8l-.1-.2.2-.4v-.2l-.1-.3.1-.3h.4v-.3l.2-.2v-.4l-.2-.3-.1-.1v-.2l-.1-.3-.2-.2-.3-.3-.1-.2-.2-.2V60h.2v-.2h.3v-.2h.1V59h-.2v-.2l-.1-.1v-.9h-.2l-.1-.1h-.1l-.2-.1h-.1l-.2-.2-.3-.2V57h-.1v-1l.1.3h.2V56h.3v-.3h-.4v-.2h-.2v-.1l-.3-.1-.2-.2h-.4V55h-.4l-.1-.2v-.1h-.3.3v-.4h-.3V54h-.3v-.2h-.2v-.1h-.1v-.1h-.3v-.2h-.4v.4h-.4v.2h.3v.3h.1v.2h.2l.1.1.1.1v.1h.1v.1h.1v.1h.2v.4h.2l.2.2h.4v.2h-.3v.1h-.1v.1h-.2v.8h.3v.1h.1v.1h.2-.6v.3h-.1v.1l-.2.1v.1l-.1.2h-.1v.2h-.1v.4l-.1.1v.5h-.1v.6h.3v.4h.1v.3h-.3v1.3h-.1v.2h-.1v.1l-.1.1v1l-.2.2v.5l-.1.1v.9h-.6v.1h-.2l-.2.1-.2.1-.1.2-.1.2v.2h-.1v.2h-.2v.2l-.2.2-.3.2h-.1l-.2.1-.2.1-.2.1h-.1l-.3.3h-.2l-.2-.2h-.2v-.2l-.3-.1h-.2v-.3h-.1v-.1l-.2-.1h-1.3l-.1.3v.1h-.3v.2l-.1.3-.2.1h-.1l-.2.2h-.4l-.1.1h-.2.4V67l-.3-.2h-.1l-.2-.2h-.3v-.1h-.7l-.3-.2-.1-.1h-.4v-.1h-.4v.5h-.5l-.1-.2h-.6V66h-.2v-.2h-.2v.4h-.1v.1h-.2l-.1-.3h-.2v-.2h-.2v.2-.2l.2-.1h.1l.2-.2.5-.2h.2l.2-.1.2-.1.1-.1.1-.1.3-.1.2-.2.1-.2v-.9h-.4v-.2h-.2v-.1h-.2v-.1h-.1V63h-.1v-.4h.3V62l.1-.2V61h-.4.3v-.5h-.3v-.9h-.1V59h-.2l-.4.1h-.2l-.1.2h-.7v.3h-.3v.2l-.2.6-.1.1v.5l-.1.3v.7l.3.3v.7h.1v.2h-.3l-.2.2v.3zM491.3 223h.8l.3-.2h1.3v-.1h.7v-.1h.2v.3h.6l.2.1h.3v-.4h-.3l-.2-.1h.2v.2-.2h.2l.1.2h.2v.1h.1v.2-.2h.4l.3.2h1.7l.2-.1h.1l.3-.2v-.1h.2-.4v.1-.3h.2l.3.3h.1v.1l.1.2.3.2v.1h.5l.5.4h.6l.3.2h.7l.8.3.2.1.3.1.4.1h.2l.1.2h.5l.1.1h.8-.2v.2h-.1.3v.4h.2v.1h.4v-.3.4l.1.1.4.1h.2l.3.2h.3l.3.3h.4l.2.2h.1l.2.1h.2l.3.2h.2l.2.2h.2l.1.1.3.1h.2l.1.2h.4l.3.1v.2l.2.1h.2l.3.2.5.2h.9l.2-.2h.1l.1-.2v.7l.3.2v.1h.2l.5.2.7.2.6.2.7.3.5.3.3.1.3.2h.4l.1-.3h.1l.1-.2v-.1 1l.2.2.3.1.4.3.3.2.3.2.3.3h.3l.3.3.5.4.3.3.3.2.2.2.3.1h.1l.2.2h.4l.1-.4.2-.1v.3l-.3.1v.4l.3.3.1.1.3.2.3.2.2.3.2.3.3.3.4.3.4.4.7.6.3.2.2.1.3.2v.1l.1.2.3.2h.6l-.2.1h-.1l-.1.3v.2l.1.3.5.5.3.3.3.4.2.2v.3h.2v.4l.2.2v.4l.1.3v.2l.1.2.2.3.3.4.3.3.2.3.1.2.3.1v.4h.2v.1l.2.2.3.1.5.2.4.1.2.1h.8v.2h-.4v.1h-.2v.5h-.2v.1h-.5v.2h-.3v-.2h.3v-.2l.2-.1v-.2h-.3v.3h-.2v.1h-.2l-.1-.3h.3v-.1h.3l-.1-.2h.8-.3v-.1h-.1v-.2h-.4l-.2-.2h-.2v-.2h-.3l-.1-.1h-.1l-.1-.1h-.3v.5h.1l.1.1h.3v-.3h.2l.1.3h-.5l-.2.1v1l.2.1v.1l.2.4.1.3v1h-.2v.2l.2.1h.2l.1.2v-.5l.2-.1h.2v-.1l.1-.1h.1v.2h.3v-.6h.3v-.1l.1-.2h.2v-.2h.7v-.7l.2-.3.2-.1v-.6h.4v-.2h-.2l-.1-.2h-.1v-.1h-.2l-.2.1v.2l-.2.2v-.3h.4v-.3h.2v-.3h-.3v-.1l-.1-.5v-.3h-.3v-.1l.3-.2v-.3l-.2-.2v-.3l-.2-.2v-.8.2h.4v-.7l-.3-.3v-.1h-.1v-.3l-.3-.1h.3v.3h.1v.1-.1h.2v-.6h-.4v-.1h-.1v-.2h-.2l-.1-.1h-.1l-.3-.1v-.3h-.3v-.2h-.4l-.2.3v.1h-.7v-.3h-.3v-.1h-.1v-.3h-.1l-.1-.2h-1.5v-.7h-.2v-.1h-.2v.4h-.1l.2-.3v-.3l-.2-.1v-.2l-.2-.2-.1-.2v-.1l-.2-.1-.1-.2h-.4v-1h-.2l-.1-.1v-.1h-.2v-.3h-.3v-.1h-.2v-.1h-.4l-.2-.3h-.5l-.3-.3h-.1v-.1l-.2-.1v-.1h-.1l-.1-.2h.2v-.2h-.5v.3h-.1v-.3l-.1-.1-.1-.1-.1-.1h-.1l-.3-.2h.3v-.1h-.5v.3h-.1v.2-1.2l-.2-.2-.1-.2-.2-.1v-.2l-.4-.1h-.1v-.3l-.2-.2h-.1l-.3-.2h-.4v-.1h-.2v-.1h-.9v-.2h-.4l-.4-.1h-.2l-.2-.4h-.2v-.1h-.4l-.1.3v-.5h-.1v-.2h-.1l-.1-.1v-.1h-.1l-.2-.1-.1-.1-.1-.1v-.3h-.3v-.2h-.1v-.4l-.2-.2-.1-.1v-.1h-.2l-.1-.1v-.3h-.1v-.2h-.1v-.1h-.2v-.1h-.4v.3h-.2v.2h-.1v.1h-.6v.2h-.2v-.3l-.3.3-.2.2-.2.2v.3h-.2v.2h-.1v-.2l-.2-.2v-.2l-.3-.3-.1-.3-.1-.1h-.1v-.1h-.4v-.2l-.1-.1h-.2v-.5l-.4-.1h-.2v-.2h-.6l-.1-.1h-.1v-.1l-.2-.1h-.3v-.1h-.1l-.2-.2h-.4v-.1h-1.3v-.1h-.3v.3h-1.6v-.3h-.2v-.2h-.2v-.1h-.2l-.1-.1v-.2h-.1v-.2h-.3v-.1h-.1v-.1h-.4v-.2h-.1v-.1l-.2-.1v-.5h-.1v-.1h-.1v-.2h-.1l-.2-.2h-.1l-.1-.1h-.2v-.1h-.3l-.1-.2h-.2v-.1h.4v-.1h.1v-.3l-.3-.2v-.1h.4v-.4h.1v-.2h-.3v-.1l-.1-.1v-.1l-.1-.1v-.5h-.2v-.1h-.2l-.1-.1h-.2v.4h.3v.1h-.5v.1l-.1.1h-.2v.2h-.1v.1h-.2v-.3h-.1v.3h-.1v.1h-.1v.1h-.2v.3h-.3v.1h-.1v.3h-.1v-.5h.3v-.3h-.3v-.3l-.1-.1h-.3v.3h-.1v.4h-.2v.3h-.1v.6h-.1v.1h-.2v-.3h-.1l-.1.3h-.1v-.3.3h-.1v.1-.3h-.2v.5h-.1.3v-.3h-.3v-.1h-.1v.4h-.2v-.3h-.1v-.1h-.1v-.1h-.1v-.1h-.4v.3h-.1v.1h-.1v.1h-.2v.1-.3h-.2v.3h-.1v-.3h-.2v.3H496v-.2h-.1l-.1-.1-.1-.1h-.3v.3l-.2.1h-.2v.3h-.3v-.3h-.1v.3h-1.2v-.3h-.7v.3h-.3v.1h-.3l-.1.1h-.2v.1h-.2v.1h-.1v.1h-.1v.1h-.2v.1h.2-.2zM49.6 6.6h.1l.2-.2v-.1l.3-.2v-.3l-.3-.4-.2-.2v-.1l-.2-.1zm0-2.2v-.2l.2-.2h.3v-.1h.3l.3.1v.3h.2v.1h-.2l-.3.2h-.3l-.2-.3h-.1v.2h-.1v.8h.4l.1.5.1.1.2.2h.3v.3h.2l.1.1.2.2.1.1v.1h.1V7h.3v.1l.3.2.1.2.2.1.2.2h.3v-.3h.5v.2h.1l.1.1.3.2.5.1.3.2h.4l.5.2h.3l.3-.2.1-.1.1-.2v-.2h.2v-.6h-.1l.2-.1h.1l.2-.2v-.2l.1-.3V6l.2-.2v-.3l-.3-.2v-.2h-.2v-.4l-.2-.1-.2-.1v-.4h-.1l-.2-.1h-.9l-.2.1-.3.2v-.6l-.3-.2v-.2l-.1-.4-.1-.2-.2-.1v-.1h-.1v-.3l-.3-.2v-.6h-.2v-.2h-.2V1H53l-.6-.1H52l-.1-.4V.4l-.3-.2h-.2l-.2-.2h-.6l-.2.2-.3.2-.1.1h-.1v.3h-.4zm17850.8 2.4h.3v.4l.2.1h1.1l.4-.1V7h.3v-.2l.4-.2h.4l.2.4.7.2v.1h.7l.1-.3h.1l.1-.5h.3V4.9h-.3l-.4.4V5h.2v-.2h.2v-.3l.3-.2V.8l-.3-.2h-.3V.5h-.7l-.1.2h-.2l-.1.3h-.2v.2h-.3v.1h-.4v.2l-.3.1v.2h-.4v-.4h-.4v.2h-.3v.1l-.3.2v1.7l.3.2h-.3v.7h.4l-.4.2h.3V5h.5l.1.3h.1l.1.1.2.1v.1h-.6l-.2.3-.2.1-.3.3h-.5v.2h-.5v.1zm.8.1v-.3h.5v-.2h.4v-.2h.3V6h.5l.1.2v.2l-.3.3-.7.3-.1.1zm.4-2.7V4zM425.4 111.8l.2.3.2.1h.2l.1.2h6.1l.1-.4-.1.3v.2h.3l.2-.3.1-.1.1-.1.1-.4.1-.2v-.4h-.3v-.2h-.7v-.1h.3l.2-.1v-.3l-.3-.3-.5-.8-.2-.2h-.2l-.1-.4-.2-.2-.2-.3-.3-.3-.2-.1-.4-.2h-.4v.3h-.2l-.2.1h-.1v.4h-.2v.3h.3v.1h.2v.3h-.2l-.2-.1v-.2l-.2-.2h-.2v-.9h-.2v-.1h-.2v-.3h-.2v-.2h-.4.1l.1-.2h.5v-.3h-.3v.3h-.2v.1h-.2v-.4h-.1v-.1l-.1-.1h-.3v.2h-.3v.8h-.5v.1h-.3v.5h-.1l-.1.1v.3h-.1v1.1h.3v.4h.2v.7l.2.2v.2h-.3l-.2.1-.1.3h-.2v.2h-.2v.2zm10.5-83.1v.3h.2v.5h.8v-.2h1.2l.3-.2V29l.2-.1.2-.2v-.2h-.2l-.1-.2V28h-.1v-.2h-.2v-.1l-.1-.1v-.1h-.2v-.2h-.5l-.2-.2h.4v-.4h-.2v-.2l-.2-.1h-.1v.4l-.1.1h-.1l-.1.1v.2h.5-.5l-.1.1v.1h-.2v.3h.3v.2h-.6v.1h-.1l-.1.2v.4h-.2zm.7 1.3v.3h.3v.2h.1l.1.1h.1v.2l.1.1.1.1v.3l.2.2v.4h.1v.3h.1v.3h.2v.2h.1v.5-.4h-.2v-.2h-.1v-.1h-.2v.4h.3v.3h.1v.1h-.4v.1h.4v.1-.4h.1v.4h-.5.4v.3-.3h.1l.1.3v-.3h.1l-.3-.2v-.2.4h.3v.1h.1v.1h.2v.1h-.5v.1h-.3v.1h.5v-.3h.1v.7h.2v.2h-.5v.1h-.1v-.3h-.1v.3h.3v.1h-.3v.1h-.1v-.5h-.1v.3l.3.1h-.3v.2h.3-.3.3v.2h.4v.2h.2v.1h.1v.4-.4h.1v-.2h.4l.2-.1V35h.2v-.2h.4v-.3h.2v-.1h.1l.1-.1.3-.1.3-.3.2-.2.2-.3v-.3l.1-.3h.2l.2-.2v-.4h-.1V32h-.2v-.4h-.2v-.5l-.1-.1-.3-.4v.3-.5h-.1v-.1h-.1v-.2h-.1l-.1-.1h-.1v-.3h-.1v-.3h-.2v-.2h-.1v-.1h-.1V29h-.1v-.3l-.2-.1v-.2l-.1-.1h-.1V28h-.1v-.3h-.2v-.2h-.1v-.2h-.1v-.1h-.4v.3h-.1V27h-.5v-.2h-.1l.3.4h.1-.5v.2h.8v.1h-.6v.1l.2.1h.4v.3l.1.2h.1v.1h.3v.2h.2v.4h.6v.4h.1v.1h.1v.2l-.2-.3h-.5v-.2h-2.5v.3h-.1v.1h-.1v.5zm-38.2 93v.1l.1.1v.2h.2v.3l.1.1v.2h.1v.3l.1.2v.2h.1v.2l.1.1h.2v.8h.2v.2h.1v.4h.2v.2h.4v.1h.1v-.3h.1v-.2l.2-.1.1-.1.3-.1v-.1l.2-.2h.1v-.8l.2-.1h.1l.1-.1h.4v-.1h.2v-.3l-.1-.2-.1-.1-.1-.2h-.3v-.3h-.1v-.1l-.2-.3v-.2h-.1v-.2h-.3v-.2h-.1v-.2h-.3v-.5h-.3v-.5h-.2v-.2h-.4v-.8h.3v-.4h.1v-.4h.1v-.4h.1v-1h.2v-.3h.1v-.3h.1v-.1l.1-.3.1-.1v-.9h-.3v-.3h-.1v-.1h-.2v-.2l-.2-.3-.1-.1h-.4.4v-.4h.2v-.2l.1-.1v-.3h.2v-.2h.1l.1-.1h.1v-.6h.1v-.7l-.2-.2h-.3v-.1h-.1v1.2h-.2v.1h-.1v.1h-.1v.1h-.1l-.1.2v.2h-.1v.3h-.2v.3h-.1v.3h-.2v.1l-.2.3v.5h.3v.6l.1.1v1.1l-.3.1v.3h-.1v.4h-.1v.2l-.1.1v.6h.3v.6h-.3v.1l-.1.2v.4l-.1.1v.3h-.1v1.6h-.1v.3zm0 0"/><path d="M51.7.2l.1.2v.2h.2v.2h.4l.3-.5V.2h-.3V0l.4.1.1-.1-.2.2h.3V0h.5v-.2h.3v-.5l.3-.6v-.1h-.4v-.2h.4v.3l.6.1h.5l.4.2.1-.2.2-.1v-.1l.3-.1v-.1l.2-.3.1-.3h.2v-.3l.2-.2V-3h.1l.1-.3h.2l.1-.2v-.1h-.2.2v.2h.1l.1.3h.1v.1l.3.1v.3h.3v.3h.1v.1h.1v.1l.3.1v.2h.3l.3.2.4-.3v-.3h.3v-.1h.3v-.3h.1v-.2h.2L61-3v-.4h-.3.4l.3-.2h.8v-.2h.2l.2-.6v-.3h.2V-5h.6v-.1h.4l.5.3h.1v-.4h.1v-.1l.7.1.2-.3h.6v.1h.1l.1.2.2.1v.1l.2.2.3.2.2.4h.1v.2h.3v.2l.8-.3.1-.2h.2v-.1h.1l.4.1v.1h.1v.2h.1l.2.1v.1h.3v.2h1.3v.2h.1v.2l.6.2.2.1h.9v-.3l.1-.3v-.3l-.2-.1v-.5l.3-.1.2-.3h.1v.3h.2v.1l.2.1h.3v.3h.2v-.8h.4v-.4l.2-.2h.2l.2-.4h.2l.2-.2h-.3v-.2H75v.2h-.3v.1h-.2v.3h-.3v.2l-.1.3h-.3v-.2h-.1l-.3-.1-.8.1v.3h-.4l-.1.2.1.4.2.4h.2v.2-.2h-.2v.7H72v-.2h-.2l-.1-.3h-.2V-4h-.1v-.3h-.2l-.3.3-.6.1v-.3H70v-.3h-.3l-.2-.2h-.1v-.1H69v-.1l-.6.2V-5h-.3l-.2-.2-.2-.1v.3h-.1v.2h-.4l-.2-.6h-.1l-.2-.4-.2-.2h-.1v-.1h-.5l-.3.1v-.2h-1v.2h-.2v.3h-.3l-.2.3v-.3h-.2V-6h-.2v.3l-.9.3v.1h-.2l-.1.3h-.1v.6H62v-.3h-.5v.3h-.8v.3h-.3v.1h.2-.6v.5h-.6v-.1h-.3l.1-.2h-.1v.2h-.2V-4h-.3v-.3l-.1-.1h-.4l-1 .4h-.2v.3h-.3l-.2.2h-.1l-.1 1.7h-.3l-.1-.2H55v-.2l-.4.2h-.3v-.2h-.4v.2h-.2l-.1.2h-.2l-.1.2v.3l-.2.2h-.3v.1h-.1.3l.1.3v.1h-.2v.2h-.3l-.2.1-.2.1h-.3l-.2.2zM354.1 114v.3l.3.1.2.2.1.1.9.5.4.3.1.1.1.3h.2v-.8h.2v-.1h.1v-.5l.2-.2.1-.1v-.3h.3v-.2h.1v-.5h.2v-.2l.2-.3.2-.1v-.3h-.4.3v-.3h.2v-.2h.3v-.3l.3-.1v-.4h.2v-.2l.2-.1v-.2l.1-.2v-.3h.1l.1-.3v-.2h.2v-.5h.1l.3-.3v-.2l.3-.3.1-.2.3-.1v-.4h.1l.2-.2v-.3h.2v-.7h-.4v-.5l.3-.3h.3l-.2-.3v-.2l-.5.2v.1h-.5v.5h-.4l-.1.2v.2l-.3.2v-.4h-.2v1.2l-.1.2v.1h-.1l-.5.4-.1.1h-.6l-.1.2-.2.2v.6l.1 1.2-.2.1v.4h-1v.3l-.3.2h-.1v.3l-.2.2v.3h-.2v.1l-.2.3-.3.2v.1l-.2.3-.1.1h-.1v.2h-.2l-.1.2-.2.3zm6.2-8.2h.1zm19.9 19.3v.2l.2.1h.1l.1.1h.5l.1.2h.5l.2.3h.5v-.2h.2v-.2h.1v-.2h.1v-.1l.2-.2v-.3h.1v-.6h.1v-.4h.1v-.6h-.3v-.2h.3l.1-.2h.3v-.1h.1v-.1l.1-.1v-.5l.1-.2.2-.1h.1v-1l.1-.1v-.2l.2-.1v-.1h.1v-.4h-.3v-.5h.3v-.1h.1v-.2l-.2-.2h-.2v-.5h-.2v-.1h-.1v-.6h.3v-.4h.2v-.1l.1-.1h.2v-.4l-.3-.1-.1-.1h-.1v.3h-.3v-.3h-.3l-.1.3h-.1v.3h-.2v.3l-.2.1v.6h-.1l-.1.2v.2h-.1v.5h-.1v.1h-.1v.6l-.1.2v.2l-.1.2v.1h-.1v.7h-.3v.2h-.2v.2h-.1v.5l-.1.1v.2l-.1.1-.1.1v.2h-.1v.3h-.2v.1h-.1l-.1.2v.1h-.1v.1l-.2.2h-.1v.3h-.1v.1h-.1v.5l-.2.1v.4h-.1zm0 0"/><path d="M380.2 125.1v.2l.2.1h.1l.1.1h.5l.1.2h.5l.2.3h.5v-.2h.2v-.2h.1v-.2h.1v-.1l.2-.2v-.3h.1v-.6h.1v-.4h.1v-.6h-.3v-.2h.3l.1-.2h.3v-.1h.1v-.1l.1-.1v-.5l.1-.2.2-.1h.1v-1l.1-.1v-.2l.2-.1v-.1h.1v-.4h-.3v-.5h.3v-.1h.1v-.2l-.2-.2h-.2v-.5h-.2v-.1h-.1v-.6h.3v-.4h.2v-.1l.1-.1h.2v-.4l-.3-.1-.1-.1h-.1v.3h-.3v-.3h-.3l-.1.3h-.1v.3h-.2v.3l-.2.1v.6h-.1l-.1.2v.2h-.1v.5h-.1v.1h-.1v.6l-.1.2v.2l-.1.2v.1h-.1v.7h-.3v.2h-.2v.2h-.1v.5l-.1.1v.2l-.1.1-.1.1v.2h-.1v.3h-.2v.1h-.1l-.1.2v.1h-.1v.1l-.2.2h-.1v.3h-.1v.1h-.1v.5l-.2.1v.4h-.1zm-50.1-38.6h.7l.6.4h.2l.3.1h.1l.1.2h.2v.1h.1v.1h.3v.1h.2v.1h.2v.1h.2v.1h.2v-.3h.2l-.3.3.3.2h.3v-.7h.1-.4v.3-.3l.2-.1v-.1h.7v.3h.8v-.3h.4l.1-.1h.2v-.2h.1v-.2h.2v-.3h.2l.1-.1v-.4l-.3-.1H335l-.1.3v-.3h.3v-.1h.1v-.3h.1v-.2h.2v-.6h.1l.1-.1V84h-.7v.3h-.1l-.1.1h.5v.1h-.3l-.5.1-.3.2h-.2v.2h-.3l-.1.2-.2.2h-.9l-.2.2-1.3.1-.2.3h-.3l-.1.1v.2h-.1v.2zM410.8 47h.4v.2h.1v.1h.1l.2-.3h.3l.1-.2h.6v-.1h.1-.7.4v-.1h.5v.3-.3h.1v-.1h.4-.3v-.1h.5v.3h.1v.1h.4l.1.1h.3l.2.1h.1l.1.2h.8v.1h.1v.1h.6v.1h.2v.1h.1v.1h.3v.1h.1v.1h-.2l-.3-.3h.4v.3h.2v.1h.6v.2h.2v.1h.1v.1h.2v.1h.1v.8h-.2v.2h-.2l-.1.2h-.2v.1h-.1v.4h.3l.1.1h.1v.1h.1v.5h-1.1v.3h.3v.1h.2v.1h1.7v.1h.4l.2.1v.2h.8l.1.1.2.1v.8h-.6v.2h.3l.2.2.1.1.3.2h.1l.4.1h.2v.2h.1v.2h-.5v.2h-.1v.1h.3V54h.3l.1-.2v-.1h1.1v-.2h.1v-.1h.3l.1-.1h.1V53h-.6v-.2h-.2v-.2h-.2v-.3h-.5V52h-.2l-.1-.2v-.1h-.2v.3h.3-.6l-.1-.3v-.1h-.1v-.1h-.1l-.1-.1h-.2l-.1-.2h-.5V51h-.3v-.2h-.1l-.2-.2v-.1h-.1v-.2l-.1-.1V50l.3-.1v-.2h-.4v.3-.2h-.1v-.1h-.3v-.1h-.1v-.1l-.2-.1h-.1V49h-.1v-.2h.3v-.1.3h-.3v-.6l-.1-.1v-.1h-.1V48l-.2-.2v-.1h-.2l-.1-.1-.2-.2h-.1v-.1h-.8v-.1h-.2l-.2-.1v-.3l-.2-.1h-.2l-.1-.1h-.5v.3l-.2.1h-.5v-.2h-.1l-.2-.3v-.1h-.9l-.1-.2h-.3v-.1h-.1V46h-.5v.3h-.1l-.2.1h-.1v.1h-.2l-.1.1-.1.2h-.1v.1h-.2v.1h-.4v-.2h-.1v.2zm1-.3h.2v-.3h.3v-.1.3l-.3.1zm.4-.1h.1v-.1h.1v.2h-.3zm.2-.2l.3-.3h.3-.6.3v.3zm0 0h.8v-.2h.1l-.2.3h-.6zm.1 0h.2zm.2-.2h.2v-.1h.3v.3h-.5zm-.1.3h.4zm.2-.5h.3-.4zm.1.5h.2-.3zm.3-.3v.2zm1.4.8h.2-.3zm.5 0h.3v-.2h-.2v.2zm.3 0h.2v-.2h.1l.2-.1h.2l.2.3h.1v.2h-.4V47h-.1.3v.2h.2v.1h-1zm.3.2h.7v.2h.2v.1h.1v.1l-.3-.3h-.2v-.1h-.5l-.1-.1zm.2 0v.2h.2-.3zm0 .1h.4v.1h-.4zm.5-.4v.1-.2h-.2zm-.1.3h.1zm.1 0h.3v.2h.1v.1-.3h-.3v.3zm0-.2h.2zm.3.2l.3.2v.1h-.3zm0 .2h1v.2h.1l.2.1v.1h-.6v-.3h-.7zm.7.4h.9v.2l.1.2v.2h.2v.2-.3h-.2l-.2-.1h-.1l-.2-.2h-.2v-.2zm0 3.2h.7v-.4h.1v-.2h.2v.6h.3v.3h.1-.4V51h-.2v-.2h-.8zm.4-1v-.3h.2v-.1h.1v.3l-.3.1h-.1v.2-.4zm0 0h.2v-.2h.1v-.2h.1v.4-.2.2h-.3v.2h-.1zm.2.1h.2v-.4h.1l.1-.1h.1v-.1h.3v.2h.1l.1.3h.2l.1.3v.3l.1.1h-.2v.2h-.1v.3h-.1l-.2-.4h-.2v-.2h-.1v-.1h-.1v-.2h-.2v-.1h-.2zm.3-.4v-.3h.1-.3zm-.1-.1h.2v-.2.3h-.2zm.2-1h.2v.3-.2zm0 1v-.2h.2zm0-.3h.2zm.1 0v-.2h.2v.4h.1-.3v-.3zm.2.3v-.2.3zm0-.1l.3.1h-.3v.2zm.2 0h.1v.2h.1v.1h.1l.1.1h-.4v-.3h-.1v-.1zm.1 1.6h.3v.2h.1-.4zm0-1.3h.2zm.1 0h.1v.2h.1-.3zm0 .1h.2zm.1.1h.2v.2h.2l.1.1v.5h.1-.3v-.2.3h.3v.1l-.3-.2h-.1v-.5.5-.3h-.2v-.4l-.1-.1zm.1 1v-.3h.3v.3h.2v.2l-.2.1h-.3zm-.1-1.3h.4v.3h.1-.3v-.2h-.2zm.2.3h-.2zm0 0h.2v.2zm0 0h.3v.2h-.3zm.3.6v.1h.2v.1h.1-.3v-.3h-.1zm0 .3h.3v.1h-.3v-.2zm.1.5h.1v-.2h.3l.1.3v.1h-.6v-.3zm2 1.6h.1v-.4l.2-.1h.6v.2h-.3v.1h-.3v.1h-.2v.1h-.2v.3zm.3.4v-.3h.2v.2h-.3zm-.1 0"/><path d="M413.1 58.5l.3.2h.2v.1h1v-.3h.4v-.1h.2l.2-.1v-.1l.4-.2h.1l.1-.2.3-.1h.1l.1-.1h.1v-.1h.2v-.1h-.8v.3h-.5.2v-.3h.4l.3-.1.3-.2h.3l.1-.1h.6v-.2l.1-.1h.3v-.2h.1v-.2h.1v-.2h-.3.3V56h.2l.1-.2h.2v-.2h.2v-.1h.1V55l.2-.1h.3l.2-.3h.4l.2-.3h.3v-.1h.1v-.1h.3V54h.3v-.2H420l-.1.2v.2h-.3l-.1.1-.1.1v.2h-.2v.1h-.2v.1h-.1v.2h-.2v.2h-.2v.2h-.1v.1h-.2l-.1.1h-.1v.1l-.1.1v.1h-.1v.1h-.2v.3h.3-.5l-.2.1h-.3v.2l-.2.1h-.3v.1h-.6l-.2.2h-.4l-.1.2-.2.2v.3h-.2v.1h-.2v-.2h-.1v.2h-.3v.1h.5v.1h.2-1v.2h-.2v.1h-.1l-.1.1h-.2zm.3 0h.4-.2l-.1.2h-.1zm.8-.1h.2zm.3-.2l.3-.2h.1l.1-.1v-.2h.1v-.1h.2v.4h-.5l-.2.2-.1.1zm-12.3-31.4h.2v-.5h.4V26h.5v-.2h.3l.2-.2v-.3h.3V25h.1v-.1h.2v-.3l.2-.1v-.1h.3v-.1h.2v.2h.1v-.3h.7v.3-.1h.3v-.3l.2-.1.2-.2v.3l.2-.1v-.1h.2v-.2h.1v-.3h.1v.6-.4h.2v-.1h.2v-.2.1l.2-.2v.1l.2-.1.2-.2h-.2.1v-.2h.1l.2-.3v.3-.1h.2-.2v-.2l.3.2h-.3.6v-.1h.3l.1.2v.1-.3l-.2-.2h.4l.2-.2h.2v.1h-.3.4v-.2.4h-.1v.3l.3-.5.1-.3v-1l-.2.2v.1l.2-.4.1-.1v.2l.1-.2v-.1h.1-.1.4v-.1h.2v-.3l.2-.1v-.3h.1v-.2l.3-.3h.2v-.1l.2-.3h.1l.1-.3.3-.3.1-.1h.1v-.1l.2-.6v-.2l.7-.2-.4-.4-.4-.1v.1l-.3.2-.3.2h-.7v.8l-.3.2v.1h-.2.4l-.2.4v-.1.4l.2.3h-.2v.2l-.2.1v.2l-.6.3v.2l-.2.1v.6h-.4v.2l.4.5v.3h-.4v.2h-.6.2v.1l-.2.1h-.3v.1h-.5v.1h-.7v.3l.1-.3.1.1v-.1.1l-.2.1h.2v.2h-.4v.1h-.3l-.4.2v.1h-.3v.2h-.2l-.3.2-.3.2h-.2l-.3.2h-.9l-.6.5v.3h-.2v.5h-.9.2v.3h.1v.2h-.6l-.2.2.1.5zm.4-.6h.1zm.4-.3h.1v-.2h.4-.2l-.4.3zm.6-.4h.2V25h.1v.4l-.2.1zm.4-1h.4l-.5.1zm0 .5v-.2l.3-.1v-.3.2-.2h.1v.3h-.2v.3h-.1zm.8-.8h.1-.2zm0 0h.5-.4zm.7-.1h.1zm.2.1h.4-.2zm.4-.2h.1zm.1 0l.2-.2h.2v-.1h.1l-.3.2v.1zm.3 0v-.2h.3v-.2.3h-.1v.1zm2.1-1.5h.3-.2v.2zm.4.1v-.2h.3v-.1.3h-.2zm.5-.4h.3l-.3.3zm.9-1.6v-.1h.3l.2-.5h.1v.5h-.3l-.1.2zm.1-.2l.2-.2V20l.1.3zm.5-.3V20h.3v.2h-.3zm.4-.6v.2zm.2-1.1l.3.1v.2h.1-.2l-.1.2v.1h.1v-.3h.3v.2h-.3v.1h-.1v-.1zm0-.2h.2V18l.1-.2v-.4h.5v.2l-.2.2-.1.6h-.1l-.2.2v-.2h-.2zm0 1h.3-.2zm.3.2v-.1h-.1zm.2-.4v-.2l.3-.3.3-.7v-.2h.3v.4h-.3l.2-.1h-.3v.3h-.1l.1.1v.1l-.2.1v.1l-.2.2-.1.1zm.2-1v.2zm0-.5h.3-.2zm.3-.5h.2zm21.8.8v.2l.2.1v.3l.2.2h.1l.1.2v.2h-.3.1v.1h.1v.1l.5.1.1.2h.7l.1.3h.1v-.9l-.4-.8v-.4l-.2-.2h.3v-.2h-.3v.1h-.6v-.1h-.1v-.5h-.2v.4l-.3.2-.1.1v.1h-.1zm.7 1.2h.2zm.6-.5h.2v.2h.2v.5h-.2l-.2-.4zm-22.6 75.1v.1h.3v-.4h.2v-.1h.1l.1-.1h.5l.1.3.2.1h.3l.1.1h.2v.2h-.6v.4h.3l.1.1v.6l-.3.1h-.2v.4h.4v-.3h.1V95h.2v-.2l-.3-.1.3-.1h.2v-.1h.3v-.1.8h.2v.1h.3v.1h.1v.1l.1.1v-.3h.2v-.6l-.4-.1h-.2v-.2h-.3v-.1h-.1v-.1l-.2-.1v-.9h.5v.4h.3v-.3h-.4V93h-.2.2-1.2v-.2h.3v-.2l-.3-.1v-.2h-.1v.3h-.1v.1h-.2v.1h-.1v.1l.3.1h.2v.2h-1.2v.2h-.2v.2zm46.6 90.4v1l.2.1v.5l.1.1v.5l.1.1v.7h.7l.1-.2v-.3h.1v-.4l-.4-.2v-.5l-.1-.1v-1.1h.3v-.2h-.4v-.2h-.8zm37.6 34.3v.2h.3v.1h.3v.1h1.1v-.3h.2v-.1h.2v-.1h.3v-.1h.1v-.3h-.3v-.1h-.1v-.1h-.4v-.1h-.1l-.1-.1h-.2v.4h-.4v-.4h-.3v-.1h-.3l-.1-.1h-.1v.8h-.2v.3zM323.1 55.7v.6h.2v.1l.3.1v-.2l.1-.2v-.3h-.3v-.2l.5-.1h.1v-.3h.2V55h.1l.1-.2v-.7l.2-.1v-.3l.1-.2v-.2l.2-.2V53h-.3v-.2h-.2v.2h-.3v.3h-.1v.5h-.1v.2l-.1.2v.1l-.1.4-.2.3-.1.3-.3.3v.2zm-8.7-21.1v.4h.3l.1.2h.2l.1-.5h.1v-.1h.2v-.1l.2-.2v-.2l.1-.1v-.8h.2v-.5l.1-.1v-.5h.1v-.5h.1v-.2l-.3.3h-.1v.1h-.2v.4l-.2.2v.3h-.1v.5h-.2v.4l-.1.2v.3h-.2v.2l-.1.1h-.3zM431.8-.6v.2h.2v.2h.1V0h.1l.1.2v.1l.1.1v.5h.6V.6h.1V.5h.1l.1-.2V.1h-.3V0h-.1v-.2h-.1v-.3h-.1v-.1h-.1v-.2h-.1V-1h-.5l-.2.3zm-13.4 80.4h.3v.2h.2v-.2h.7v-.2h.2v.2h.3v.3-.3h.3l.2-.4.3-.1-.5-.3h-.9v.3h-.9l-.1.2zm8.1 24.2h.2v.2h.2v.2h.3v.3h.1v.1h.3v.2h.6v-.4l-.2-.1h-.1v-.5h-.1v-.2h-.2l-.2-.1h-.2v-.2h-.3l-.1-.1h-.3v.5zm43.7 94.6v.2h.2v.1h.4v-.4h.2v-.3h.1v-.2h-.3v-.2h.6v.2h.4v-.4h-.4v-.1h-.3v-.1h-.2v-.1h-.2v-.1h-.2l-.1-.1h-.2v.9h.4v.3l-.2.1h-.2zm-2.8 8h.2v.2h.1v.1h.2v.1h.1v.2h.1v.1h.1v.1h.4v.1h.2v-1.1h-.3v-.2h-.1v-.2h-.5v-.2h-.2v.5h-.2v.3zM328.6 418.5h139.5V279H328.6zm139.5 0h139.5V279H468.1zm0-139.5h139.5v-33l-1.8 4-3 3.2-.8.5-.6.1h-.5l-1.6-.8-1.6-.8-.7-.7-2.4-.7-3.8-.6-5 .1-6.1 1.5-3.3 1.6 2-1.4h.4-.2l.1-.1h.7v-.3l-.2-.1v-.2l.7.3.4-.3.2-.4h.3l-.2-.1-1.2.4 1-.5 1.6.1.7-.4v.4h.2v-.4h1.2l3.1-.6.2.3 1.5-.2-1.4-.3.6-.4-.1-.7h-.4l-.5-.5-.4-.1-1 .3-.3-.2-.4.7-.6-.5-3.2.9-.7.5-.7.2-.1.2h-.3l-.4-.3-.2.3.4.3-.3.5-.6.4-.5.8-1.2.8-.2.4-.2 1.3-.8 1 .3.3-.7.5-.7.2v.8l-.7.8-.6.2-.2.8-.4.2-.6-.3-.8.3-1.7 1.5-1.3 1.6-1.2 2.6-.4 1.6.2.7.3.2v.5l.5.3v1l.5.2v-.2h.2v1.5l.4.6.4.2v.4l-.2.2h-1.2l-2.5.8-1 1.5-.2 1.3-.6.7-1.8-1-.8-.6-.4.3-.8-.2-1.4-.5-.7-.7.1-.5.8-.6v-1l-1.4-2.7v-.8.6l.6-.2 1.6.2.9-.6.3-2.4-.4-1.2-.3-.1.1-.5.1.4.2-.3h-.5l-.8.3-.1-.4-.2.4-.6-.7h-.5l.2-.3h-.3l-.1-.4h.3l-.3-.3.1-1.2-.4-.8-.6-.3v-1l-.3-.4h-.4l-.1-.4-.3.4v-.4l-.3-.2v-.4h-.4l-.4-.5-1.5-.7-.2-1.5-.8-.3-.2-.5-1.2-.5-1 .3-.3-.3-.8.4v.3l1.7 1.7 1.9 1.6h.9l.8.6v1.1l2 3.3.7 1.9.7 1.5.6.7v.5h-.3l.1-.6-.1.5.1.7-1-3.2-1.9-3.7-1.3-1.9-3.2-2.8-2.2-2.4-2-.2-1-.8-.6-1 .2-.2-.2-.6-2.2-1.2-1.8-.6-1.4.1-.2.3.2.4-.4.2v-.3l-.1-.3h-1.1l-.4-.2h-1.3l-.9-.6-.8-.3-2.3.3-.1-.5.6-.4.2-.9-.4-2.2-3.3-6-1.4-1.8-2.9-2.9-3-2.3-3.4-2.1-3.7-1.3-11-4.6-4-1-4.9-.2h-2l-1.4.5-1 .5-1.5 1.6-4 1-.5.4-1.4.7-.5.6v1l.4.5.2.2-2 1.8-.3.6.2.6h-1.8l-.2.4h-.4l-3.5 2.4-.3-.1-.9.3-.4-1.2-1.6-1h-.6l-.2.5-.5-.1-1 .6v-.2h-.4l-.1-1.9zm137-17.8h-.6l-.1-.2.8-.2zm-2.1 1.3l.2-.5.3-.2v.4l-.3.4zm-134.9-66.3h-.2v.1l.1.7-.4.3h-.6l-.9 1.7v-.3l-.3-.1-.2.3-.6.3.1.8-.9-.4-.8.5h-.4l-.7 1 .2.4.3.2.3-.2v-.2l.4-.3 1.3.5-.2.5.5.7h.3l-.3.4v.3l.1-.4.4-.3-.2-.5.2-.2.1-.4h.5l.2-.2h-.5l.2-1.1-.3-1.1.9.2.5-.8-.2-.2.6-.4v-.3l.4.3zm0 0"/><path d="M468.1 198h.9v-1.2l1 .2 7.2 3 .2.4-.4.4.2-.2-.2-.5-.6.2-.2-.5-.1.5-.9-1-1.1-.3h.2l-.2-.3h-.7l.3.3h.3-.3.4l-.2.2-.3-.1-.6-.7-.6-.2-.5.2-1.4 1.6h-.6l-.2.6.1.6 1.3 1.3-.2.5.1.4.7.4v.2l.3.4-.6.2-.3.7h.3-.2.2v-.4l.1-.1-.1.2v.2l.2.5h.2l-.4-.7.3.1.1-.3h.3v-.5l-.2-.3.5-.2v-.4l1 .2.8-.4 2.4.3.8-.4 1.8.1.8-.5.1.2.5.1v-.5l-.7.2.2-.3h.8l.5-.5 1.5.3-1-.6-.7.2-.2-.4-.6-.2-.3-.2h-.1l.1.2h-.5l-.2-.4h-.6l-.3.3-.3-.5-.4.1.4.3v.2l-.5.1-.3-.3.2-.5-.5-.5 3.7 1 2.6 1.1.8-.1 3.5 1.4 6 2.2-1.3-.1-.5-.5-2.7-.8-1.4-.6h-.4l-.5.5v.3l.5.2-.9.5-.3.4.3-.5h.4v.2l1-.2-.2-.5.2-.1v.5l.4-.2.3.3.6.1 1.3-.3.8.6.3-.1v.4l-.2.3v-.4l-.2.5.4.5.4.1-.1.3v.6l.1-.2v-.8l-.3-.2.1-.5 1-.2 1 .3h.2l-.3-.2.2-.1 4 .9.1.3v.1h-.2l-.1-.2.2-.2h-.3l-.4.3-.5.1-.5-.3v-.2l-.3-.3h-.1l.2.6.6.7v-.2l.8.3 1-.2v.3l-.2.1h.2v-.2l.5-.6h.3l.2.4.2-.3 1.2-.1-.1-.4-1.6.4-.7-.2h-.2v-.2h1.8l1.2-.1.6-1.2 1.2-.3.6-.4 1.3-1.6 1.2-.4.6-1 1.5-.9 1.8-2.1.8-.6 2-.8.6-1.2.7-.2.1.6 1 .2h1l2.2-.4.6-.6v-1.4l1.6-.8.3-.4 1-.4.8.5 1.1.1 1.1.6.7-.1 2.2.3h.6l.1-1 .9.8.7-.2.5.4.6-.2 1 1.5 1 1.1 1.5.5.5.5.5 2 1.2 1.4 1.1.7 1.6.3h.4l.4.2h.4l.1.1-.3.8.6.8v.5l.5.7v.8l.3 2 .7.5v1.1h-.7l.2.7 1.4 2.3-.2.7-1 .8v.7l1 1.4-.2-.4-.6.1v.6h-.6l-.7.3-.2 1.5h-.7l.6.4v-.2h.2l.3-.2-.1-.4.2-.7.4-.6.8.1.6-.3v.7l-.4.2v.4l.4 1-.3.2.3.6-.8 1.2-.5.3.7 1-.3.6.4-.6-.7-1 .5-.1.7-1.3V218l-.2-.4 1-.6-.4-.8v-.1l.5.8 2.1 1h1v-.3l1 .6.4-.2.3.6.9.4.3.4.8.3.3.8 1 .5 3.7 1h1.2-1.6l-2-.5h-.3l.8.9h1.2v.7l.6-.4h.2l.8-.4.6.4h.9l.6-.5-1.4-.1 5.4.4 1 1.2 1.9 1.6 1 .4v1.7l.7 1.1.7.6 3.8 1.3 2.7.3 1-.3 1.3.4 2.6.2 2 .6.2.4-.6.2 1.4.4.3.3v.3l.5.6v1.6l.8 1.1 3.1.9.1-.2.4.1v-.2l.3.2.3.1.6-.1.3-.9.2.3-.1.5.7-.2.5-.8v-.2l.3-.2.3-.6-1.2-.7-1.2-.4h-1.8l-1.1-1-2 .7-.5-.6h-.5l.3-.2-.1-.5-.3-.2-.3.2v-.5h-.7l-.1-.3 1 .3 1.5.3 4.8.3h2l1.4-.6 1.6.2.8-.2.4.6 2 .3.7-.1v.6l.7.4h.8l1.3-.4 1.5 1.2 3 1.4 2.2.2v-96.7H468.1v56.3l2 1.2-2-.8v.8zm21.2 6.5l.3.1h-.9l-.2-.3.4-.1zM328.6 279h139.5v-46.4l-.7-.3h.3l.2-.1h-.3v-.6l-.5.5.5.2-.4.2v.3l-.2-.2-.3.2-.5-.2-.4-.6-.4-.3-.7.2-.1-.5-.9-.1-.6-.8-.7.2-.2-.3-.4.1-.2-.2v-.3h-.2v-.4l-.5-.2h-.7l-.7.1-1.4-3.7-1.4-1-.2-1.1-.6-.9h-.2v-.8l-.6-.3.2-2.3-.3-1h.2l.8-.8-1 .7h-.3v-.9l-.7-1.3.4-.8v-.7l-.2-.2v-.7l.7-.7v-.7l-.1-1v-.6l-.4-.3v-1.7l.2-.4.2-2.6.7-.7v-.7l.5.1.5-.4-.1-1.3.4-.6v-1.3l-.2-.1v-.3l.2-.4.6-.3.2-.5.4.2.5-.4.9-2v-.7l-.5-.7v-1l-.4-.9.2-.4v-1.2l1-1.7.4-1.4-.2-2-.7-3.4.2-.8 2.2.4.5-.5 1 .1.1 1 .9.5v1.2l.5 1.1-.1.7-.8.7.4 1.3-.2.3.1 1-.3.9.8 1.8.7.9 1.2.8 1.7.9v-56.4H328.6zm-139.5 0h139.5V139.5H189.1zm0 139.5h139.5V279H189.1zm-139.5 0h139.5V279H49.6zm0-139.5h139.5V139.5H49.6zm0-139.5h139.5V0H75.4v.4l-1 1.5-1.1 2.8-.5 4 .2 1.6-1 3.4v.6l.6 1-.6.4-.8 1.3-.2.8-1 1.2-.2.9-1.2 1.1-.7 1.4-1.1 1.4-.5 1.5-.5 1v.7h.4l-1 .4-.1-.2-.5-.2-.2-.4-1-.1-.7.5h-.6l-.6.4-1.1.8-1.2 1.7-.8 1-.5 1.2-.5.3v.6l-.6-.7-1 .7-.6.3.3.4-.3.3v.4l-1.1.7-.2.7-.8.2-.3.5-1.3 1-.3.8h-.7l-.7.6h-.2zM189.1-24.1l-2.6 3-.3 1.2-.5.3-.3.6-.2-.1-.3.4-.7 1.3-.3 1.4h-.1l-.1.1v.2-.3h-.2l-.3.9-.8.7-2 .7-2.2 1-1 .4-.1.3-.7-.3-2.5.4-.3.3h-.3l-.2-.2.5.1-.2-.1h-.5l-.3.2h-.8l-.4.1-2.6-.1-3.4.9h-1.5l-1 .4-.9-.1-.4.2-.4.4-.6.2-1-.5v-.3h-.2v-.3h-.2l-.8-.7-.6-.3h-.5l-.3-.1h-.6l-1 .4-1.1 1-.5-.4-.7-.1-.2.2v-.2h-.3l-.8.3-1.1-.4h-2l-.4.4-1.2-.2-.2-.3-.7-.3h-1.1l-.7.2-.1-.4-.4-.2-2.2-.2-1.2.8-1.1-.5h-1l-1.1 1-1.4.3-1.7-.9-1.2.3-.6.2-.3-.2-1.7-.2-3.2-.8-.8-.7-.2-1.1-.6-.6-1.8-.6-.9-.6-.1-.2.3.2-.4-.5-.4.2.1.5-.5-1.2.1-.9.9-2.1.5-.6 1.4-.9v-1.6l.6-1.2v-.9l-1-2.2.7-.8 1.2-.8v-1.7l.5-2.7-.4-1 .5-1.7 1.3-1.5.4-1 .1-1.9v-.4h-.6l-.1-.5v-1.2l-.3-.8-.7-.5-.6-1.6-1.4-1h-1l-1.2.1-2.6 1.8 1.7-.3.4-.2-.2.2-2 .4h-.4l-.9-.7-1.4-1.7-.5-1.2v-.4l.6 1.7.6.6.4-.1-.2-1.1-1-.4-.7-1.5-.2-.8.1-.5.4 1.7.1-.9.4-.6-.1-1.2.7-.8v-.5h-.6l-1.2.5h-1l-.2.4-.2.5.2.4 1.2.4-1.3-.4-.9-1.6.1-2.9-.8-2.1-2.1-2.4-2.7-2-3.5-3.5.1-.2h.5l1 .8 1-.8.4-1.3v-2.8l-1.3-2.5.2-1.1-.3-.9-.6-1-.8-1-1-2-1.2-3.3v-.4l.3.9 1.1 1.7.8 2.6-.9-2.4-.2-.3v.2l.8 2.6 4.8 2.8 1.4.1-.6.1h1.9l.1-.1-.4-.5.3-.5 1-1.5 1.4-1 .8-.9.8-1.5-.3-.8.3-1-.9-.4.7-1.1-.2-1.2.6-.6v-.8l-.8-1h.4v-.6l1-.7h.5l1.2.3h1.8l.1-.3-.1-.4h-.3l.6-.3 2.7-2.1.3-.7.9-1.2.4-1-.5-1.1v-.6l-1.4-1.5-.5.5v.4l-.2-.2.9-1.6v-.6l.8-1v-.6l.6-1 .6-1.6 1.1-1-.3-.9-1.4-1.1-.2-.6-.4-.2-.4-1 1-1.2 1.4-.8-.1-.4.7-1v-.3l-.3-.3-.2-1.3-.4-.4.3-.7.4-.5v-.5l-1-1.3.8-.7v-.6l.2-.3-.6-1.3.7-.6-.3-.8v-.6l-.5-.2v-.7l-.5-.3-.2-.5.3.3.6-.8-.1-.5-.6-.2-.5-.5-1-.1-2 1.4.2.7-.4 1.1.4.9-.1 1-1.2.6h-.8l-.4-1.3-.7-.3-.5 1.3-.9 1 1 1.5-.1.9-.9 1.1.2 1.6-.3.4v.6l-.5.4.3 1h-.6l-.6 1-1 .3-.2 1.1-1 .6-.3 1.6.2.4-.4.3-.5 1.9-.6.6.5 1.4-.2 1.8-.3.4-.2-.2h.1l.3-.6v-.2h-.5l-.1.3h-.6l-.3.7-1.3.6-3 2.8-1.4.1-.7.4-2.3-.3-1.3-.7-1.7-2.1-1.5-.9-.2-.1v-.6l.1.1v.7l1.1.3.3-.5.2-1h-.5l-.2-1.1-.7-1.1-1-1-.2-.6-2-1.6-.8-1.3-.2-.6.6.5.3.8-.5-.4.3.6.2.2h.7v-.6l-.2-.4.1-1 1.7-1.3v-.2l-.2-.7.2-1.4-.5-1.2.3-1.6-.3-1 .3-1-.2-.6-.5-.1.2-.1v-1l.4-.7-.3-.9v-1.2l-.1-.7h-.9l-.3.3h-.5v.5h.2l-.6.2h.1v.7l-.9.5-.3.9.2 1.5.4.7v.5h.1l-.4.4.3.3h-.3l-.2.6.2 1.1.2.3-.6.3-.4 1 .2 1.2.4.3-1.4.7-.6.7-.4-.2-.6-.8-1.5-1-2.3-.1-1-.3v-.2l1 .4h1l-.2-.5h-.7l-1.8-1.3-.8-.1.3-.3-.8-1v-.3l-.4-.7-.9-.3-1-.7-1.2.6.1.6-.3 2 .4.1.4.7-.3.6v.6l1.8 1.2.2.6 1 .7h.7l.1 1.3.6.6.2.4.3.2 1.3 2.4.6.5 1 3.6.4.1 1-.8-.7 1.5-.6 2.2-3 3.8-.8.8-2.3 1.2-3.2.7-2.7-.2-3.5.4-2.7-.5-2.4.3-.6-.3-.2-.7.4-.1.3.2 1.4.7h1.7l1-.8 1.2-.2.2-.4-1.5-1.9-.1-1.1.3-.6v-.6l-1.7-.9-.2-.4v-.4l-1.5-.3-1.8.7-1 .2v2.1l.2.3.4.1.4-.2v-.5.5l-.4.5-.5 1.3-.9.7-1 1.9-.9 1-.3.6-.4.2-.6 1.7v1.5l.4 4.2-.4 2-1.4 6.3-.3 3.6.8 6.2 2 6.3 2.9 6.6-.3.1-1.4-3.9-.5.2-.1 1.2-.3.3.1.6-.3-.6h-.2l-.4.6v.5l-.2.4.1.2 1.1-.2.2.2v.5l.4.3h.5l.7-.5.6.7 2.3 4 2.5 2.9 3.5 3.3 4.4 3.5h-.2l-.5-.2v.2l-.1.1h-.8l.4.6v.4l-1.1.6v.4l-.3.3v.7l.8 1 .7.3.8-1.9.4-.2.3.1.5-.4v-.2l-.3-.3.1.3-.2.1v-1l.2-.1h-.2v-.1l-.2-.4 3.7 2.2 3.5 1.6-.1.6-1.8 2.6-.7 1.5-.6 2 .1 1.4.5 1.1.5.5 2.1 1.4.1 1.1-4 5.8L75-5.2 74.3-3l.1.8.6.2v.6l.4.7V0h113.7v-18.5l-3.7 3.5-1.4 1-2 1-2.9 1.7-2.9.8-6 1.2-3.5.2h-4.3l-13.2-.2-6.5-.8-10.3.7H128l-7.3-1-8.4-2.3-.7-.5.2-.1 1.6.8 2.5.3h-1l5.7 1.8 8.9 1 6.7-.3 6-.5h2.2l5 .9 16.6.1 4-.2 7.2-1.4 3.3-1.3 2.9-1.7-.1-.2.8-.2 3-2.5v-.2l.9-1.4v-.3l.7-.6-.3-.8-1-.4-.4-.4 1.4.8.7.1zm-75.7-61.3l-.6.2-.3.3.2-.3zm-50.9 35H62l.3-.3h.1v.1h.6zM66-92.1h-.4l.8-.3v.4zm50.3 4.6l-.2.1-.3.1.6-.4v.3l-.3.1zm-.9.1l-.3.4.3-.4 1.2-.6h1.3l.4-.1-.3.1h-1.1zm.1 0"/><path d="M189.1 0h59.1l-.4-.7-1.8-2.5-.2-.6h.6v.4l1.7 1.1.9 1 .3.6-.1.7h4.2v-.2l-.4-.2V-2l-.2-.4v-.3l-.7-2.6-.7-.8-2-1.5-2-1.1-1-.3-.2-.5-1.6-.5-2-.4-9.5-3.3-16.7-8.7-3.8-1.6-3.2-1-5.8-2.6-2.6-.7-3.3.4-2.4.6-3.9 1.4-.9.5.8-.6 2.2-.7.4-.3-.2-.3.3-.4.7-.1v-.3l.3.3 1-.5.4.3.6-.2h-.6l.6-.4 1.1.5.6-.7v-.4l-.5-.3-.9-.3v-.2l2.1.8 1.6.4.7-1.1h1l1.5.6.8.3h.1l-.2.3.3.7 1 .8 1.2.2h.8l.1-.8-.4-1.2-.6-.3h-1.2l-.5-.1-.6.3.5-.6-1.2-.3-.6.1-.3-.4-2 .3-.9-.8-1.3-.5.5.1-.6-1.1.3-.3v-.7l-.7-.1h.7l1.5.7.8-.3.5.3.4-.7-.3-.6h-.3l.2-.4.5-.2 1.1.3.5-.2-.1-.4-1.6-.6v-.5l-.8.6h-.2l-.7.6-.1.5-2 .7-.7.8.3.3v1.1l-1.4.9-.2.5-.7.2-.7.6-.4 1-.3-.1-.3.3-.5-.2-.6.4-.4.5v.6l-2 .8-.5.4v.4l-1.3.9v4.3h.3l.4-.1.2.1v.6l-1 .9zM204-34.6l-.4-.1v-.3h.5zM249.2 0l-.1.3.2 1.4L251 4l.7 1.4.9.6h-.5l-.2-.3-.2.3 1.7 2.6v.5-.4l-.3.1.3 1.4.7.3h.6l.3-.5.1-1.2-.3-1.4-.6-1.2-1.8-1.7V5l-.2-.9.8-1.1.4-2V0zm0 0"/><path d="M189.1 139.5h139.5V85.7l-.2-.5-2-1.1-.5-1.1-10.2-5.3-.8-1-.2-.9-.6-.8-4.7-2.3-.8-1 .1-.1-.4-.8-1.9-.8-1.8-.7-4.3-1.3-1 .3-.5 1.5-1.4.7h-.8l-.2.3h-.8l-.4.3-2.5-.9-3.4-.5h-.9l-.4.9-1.6-.6-.4-.5-3.2-.5h-.7l-.7.5-.5-.4-.5-1.2-1-.2h-1l-.5.3-.2 1-.8.5h-.5v-.2l-.3-1 .1-1-1.2-.6.7-.5.7.2.9-.5.1-.2.3-1 .7-.5h.9l.7-.6v-.7l-.9-1.5-.7-.4-.7-.2-.7 1.2-.6.3h-1.5l-.3-.2-.5.3.3-.6-.3-.1v-.5l-.3-.2.3-1.1-.2-.4V58l-.5-.5-.9-.6-.3.4h-.2l-.5.2-.7-.9.1-.6-.5-.7-2-1.3-2.8-1.1-.2-1-3.3-1.3-3.6-1-.3-.2 1.2-1.8-.2-.7-1.5-1.2-1.6-.8-1.2-.5-.3-.2.2-.2-.2-.2-1.3-.6.5-.8 1-.8h1.1l1.5-.6.8-1.3.5-2.5-.6-2.7v-.7l.6-.8v-1.2l.5-1.2.3-.9.9-1 .3-.3.5-1v-.5l-.4-1.8-.8-1.5-2.4-3.6-2.2-4 .6 1 .3-.5-.6-.4-1-1.3.7 1.2-.2-.2-1.8-3 .1-2.3-.9-2.5-1.5-3.2-2.9-4.8h-59.1zm0 0"/><path d="M328.6 139.5h139.5V0h-31.2l-1 3.5v1.8l.1 1.8.4.7h.4l.6.4.2.7-.6 2.8.5.6v.4l-.1.2-.5-.1-.2.2-.5 3.3V18l.5 3.4 1.1 3.2 4.3 7.7v1.2l-.3 2-1.1 2-1.3 1.1-3 3.2-3.3 5.9-1 .7-1.4.6-1.1.7-2.7 2.7h-.3l-.5.4-1.1.5h-1l-2.1.9-1.1.2-.7.4-3 3-.9.5-.3-.3-1.5 1-1.3-.5-1.1 2-1.8 1.2-.6.3-.2.4-.8.5-.7-.4h.4v-.7l-.7.4-1-1-.7.4-.8-.6-.9.3-.7-.7-2.4-1.2-.4.2-1-.3h-1.1l-.6.7h-.6l-.5 1-1 .1-.8.5-.6 1.2-.5.2h-.6l-.8.2-.2 1 .2.6.5.5h.6l.4 1-.2.7-.8.7-1 1.1-1.2.2-.7-.2-.5.2-.9 1-.2-.4h-1l.2 3.1 1.6-1.5h.8l.6-.3-.4.8.2.1.3-.2.4.1 1.4-1.3 1.4-.3.8-1.1.4-.9 1.5-1.8 1-.9h.8l.9-1.2v-1l.9-.7.7-.1.7 1-.8.8-.3.8h.3l.5-.7h1.6l.3.4.4 1 1 .7 1.8 1.9 1.1 1 1.6.7.3 1.3-.5.9v.7l-.7.7v.4l-.6 1.2-2-.2-.8.6-.3.8.3.4.1 1.4-.5 1.3-.7.3-.3.4-.1-.3-1.6-.4-.5.4-.7-.2-1 .5-.3-.1-.3.4-.3-.2-.4.3-.4-.1-1.3 1h-.4l-.2.2-1.2.8-.3.5v-.2l-.7.2-.5 1v.8l-.1-.7h-.7l.4.9h.4v-.3l.8.8.5-.1 1.2-.6.5-.6v-.1l-.2.2h.3V84l.9-.8 1.1-.2h.2l.4 1h.6l.4-.4v-.9l.8-.7.4-.3.6.1.5 1 1 .5 2 .2-.3.4-.9 1.1-1.3 1.7-.1 1.1.2.8-.9-.5-.6.2v.3l-.3.5v1.2l-.1.7-.9.7h-.4l-1.7 1.4.3.4.5.7.5.1 1.1-.1.3-.4h1.3l.5-.3.1-1.8.2-.4 1-.6-.3-.8h.3l.5-.9 1.3-.4h2.2l1.6 1h.4l1-.3-.3 1.6.6 1.1h2.8l.8.1.6-.1 1 .6v1l.2.8 1.1 1 2.1.4h.8l2 1.2.4-.1 1.1.1.7-.6.7.1.4.8-.1 1.6.3 1.1 2.3 4.7 2.6 3.5 3.1 3.4.9.6v.4l-.6.1-7-.4-2.4.3-.8.2-2 1.7-2.5.7h-1l-1.5 1h-.2l-3.7-1.7-.3-.5-2.6-1v-.3l-.1-.7.3-.4.4-2.6-.9-1.9-.8-.7-.6-.8.2-.2-.2-.7v-1.9l-.1-.5.3-.8-.3-1h-.5l-.7.1-.6 1.2-1.4-.3-1.5.5h-3l-.3.5.2.7.9.5 1.1.1v.2l-.6.2h-.8l-.8-.7-.5-.2v-.2l.6-.1-.4-.6-1.7.1v.5l-.5.5v.8l-1.3.4-1.4 1.6-.1.4.3.7.2.2.5-.2.1.1-.3.7-.3.2-.4-.2v.6l.3-.3.5.5.4-.4h.5v-.3l.6-.5.9.2.8-.3.5.1.5-.4.3-.7.5-.5h.6l-.3.4.5.4 2-1.3-.1.5.5.4.5.2.7-.3.4.6.4 2.6.7.3-1.1 1.7-.3 1.3-.4 3.8.1.1v-.4h.2l.8 1-.6 1.4v.8l-.9 2.1v2.5l-.8.5-2.2.7-1 .8-.5.5v-.5.4h-.3l.2.4.2-.1-.4 1 .1.6-.3.4H398l-1 .3-1.6-.2-2 .8-1 1.1h-.7l-.3.1-.2-.1-.8-.4-2.3-.4-1.8-1.8-5.2-2.7H379l-.7-.8.2-1.3-.2-1.3.5-1.2.4-2.1-.4-1.9.4-1.1h.2l-.3.6v.4l.9.4.4-.4h-.2v-.2l.9-.7.5-.9 1.4-1.5.8-1.4h.4l.2.4h-.1v-.3h-.2l.2.4.3.5h-.2v1.4h.2l.4-.8-.6-.5.8.1.4-.7 1-.6.8-1.6 1-.9.2-1 .5-.1-.3-.4-.9-.1v-.3l-.4.2-.5.5v.2-.1h-.2l-1 1.9-.7.4-.1-.2-.6.3h-.3l.4-3.3-.2-1.6.5-.1 1-2.2-.6-1.2v-1.2l-.3-.2v-.2l.4.1h-.3l.3-.1v-.5l.5-.3.3-1.2-.3-.3-.5-.1-1 1-.6.1-.1.4-.7-1 .3-1.1v-.7l-.3-.1.2-.7-.3-1.2.2-1.8h-.6v-.1l.9-.4-.6-.5-.5.4v.3l-.8.3-1-.6v-.5l-.7-1.4.2-.3v-1.2l-1 .3.5 1-.8.9.4.8.4.2.5 2-.1.7 1 1.3V98l.2.3-.2.3.2 1.8.7.5v.9l.9 1.4.3.8-1.3 3 .3 1.7-1.3 1.7-1 .6-.6.9.1.5-1.4 1.8-1.5 1.2-.4.7-1.3 1.2-.5.4-1.6.5-.8 1 .5-.7-.7.1v.2l-.8-.1-.2.3.2.3-.5.3-.7.8h.4l.8-.9h1l-.3.3-1.1 1.2-.2-.3-1.9-.5-.7.2-.8.4-.6.8h-.6l-.6-.3-.4.2v-.8l-1.6-.8h-.4v-.2l-.4-.7-.8-.6-2.3-1h-.7l-.5-.1-2.3-2.1-2-.9h-1.5l-.2-.7-1.3-.8-.9-.6-.7-.1-1.3-1.1.5-1-1.8-2.6v-.6l-.5-.8v-1l-.7-1.3.4-1.2-.3-1.5.5-.7v-1.4l-.5-.9-1.1-1.2-2.7-2.2-1.3-.9-.5-.6-3.5-2.3v-.6l-.5-1.1-4.1-2.1-2.6-1-.2-.4zm94.1-61l-1 .3-1.3 1.2h-1l-.7.7-1.8.3.4-.4-.3-.8-1.5-.5-.5.3-.6-.4-.4.3h-.2l.4-.3h.4l.1-1.2.4-.2.7-1.4.8-1 .4-2.2 1-2 .7-.7.7-1.4.8-.6.5-.7.7-2.2 1.2-.7h1.1l1.7-1.6h-.4l.7-.2 1.2-.7 1.5.9h.9l1.2.4h2.1l2.8 2.3 1.6 1 1.7 1 1.7 1.2 1.4.4 1.4 2v.4h-1.4l-2 1h-.9l-2.2.5-.7-.2-2 1.1-3 2.7-2 .9h-3.6zM408 64.4v-.5l1 .1v.4l-.4.2zm15.7-.2v-.4l.4-.3.6-.2.1.1v.2h-.5zM382 95h-.1l-.3-.5.5.3zm48-6.2l-.6-.2-.3-.2.7-.2.3.3zm-20-7.1v-.3l.4-.2v.4zm.3 6v.1l-.3-.5.6-1.5.2-.8 1.3-1.3.4.2.1 1 .8.5.9.1.4-.3h.7l1 .5.4.4 1.1-.2.9-.7 1.3-.2.9-.6 1.4.6 1.4 1.4.4 1.2v.8l-.2.7-1.1.4-.6.5-.3 1h-.5l-.4-.3-.5.3h-.4l-.1-.5-.6-.2h-.8l-1.6.2h-1.5l-1.2-.1-.2-.2-1.3-.2-.4-.1.2-.3v-1.7l-.5-.2-1.3.1zm57.8 51.8h139.5V0H468.1zm0-139.5h139.5v-139.5h-107l1.2.8.1.5 1 1.8 3.1 2.4.5.8.7.7 1.7 1 3.5 3.8.2.5.8.9v.3l1.4 1.8.5 1v.7l1.2 1.2.3.8-.1.5.2.6 5.3 2.8 10.9 4.2.5.4 1.4.8 1.4 2.2.7.8.3 1.4.6 1.2.4.9.9.9.6 1-.2.5.1.6 1.8 1.3 4.5 1.8 3.2 1 7 2 .7.1 1.5.6.6-.1v.4l.9 1.3 1.6.9v1.8l.8 1.6v1.2l.4 2-.6.8-.3 2.6-.9 1.2-.5 1v.8l-1 2.5-2.8.4-2.2-.7-1.4-1-1.2-2.6-1-.5v-.4h-.3l-1.8.3-.7-.2-4.6 1.6-1.3.7-.1.4h-.3l-2.4.9-.4.6h-.6l-1.2 1-.5-1.1v.2l-.5-.3.5 1.3.4-.1-.6.6.1.4-.7 1.6-1.7 1.2-.3 1-1.1.6-.4.6-.2.4-.3-.3-1.7.7h-.3l-2.8 1.6-.3-.2-.6.5-.3-.3-1-.4v.2l.9 1 1.2-.8-1.6 1.4-.5 1-2.2 1.8-1.9 2.5-.1.8-.4.2-.4.6-1 .5v.7l.7.6-.2.4-.6-.5-.1-1-.7 1.4h-2l-.2 1v.6l1.2-.4v.1l.7-.3h.5l1.3-.9.4-.5-.3.1.1-.1h.7l.7 1v.3l.8 2.5.1 1.6-.6.9-.9.7-.7 1.2-.5 1.3.4 1.3.4.4-.5.4-.3 1.2v1l.5.3h.2l.4.5.3 1.2-.3 1 .2 1.7-.4.5-.2.7.1.8.3.2h.5l.3.2-.4 1.1-.6.3.5 1.6-.2.1-.4-.1-.6.5-.5 1.2v1.2l-.5.4-1.1 1.8-.8.5-1 .1-.6.4-1.9-.1v-.7.6l-1.2-.6-1.3.3-.6-.3-1.3-.2-2.3-1.3h-2.6l-.7-.8.3-.9h.1l-.1.8h.2l.3-.8v-.4l-2.3-2-5.9-2.5-.6-.6-2-.8-3-.7-1.4-.7-.7-.5-1-.1v-.3l.4.2.4-.6-.8-1.8-.1-.6-.9-.7v-.6l-.8-2.3-1-.9-1-.8-1.2-.1.1-.4-.1-.6-1.4-.6-1.2-1.4h-1l.2-.1-.4-.8-1.1-1-1-1.3-1.1-.3-.1-.9-1.3-.3h-.5l-.7 1.5h.8l.4 1h.8l.6-.1.3.5-.7 1.3v.5l.3.6-.2.8.5.3.6 1 .6 2.3 1.7 1.4.4.1.4.6 2.3.9 1.5 1.3h.4l-.4.7-2.1-1.5-.4.3-.6 1 1.3 1.6-.1.2-.7.1v.6l.6.3h.7l.8.8 1.9 3.4v.7l.7.2.9-.1 1.7.6h1l3.2 1.8h.5l.3.3 1 .7h.3l.5 1.2v.8l.8 2.1.6.3 1-.3.4.2v2.1l.4 2-.5 2.8.2.6-.7 1.3v.4l.3 1.3-.3.8-1.3 1.9-1.5 1.5-1.6-.4-.9-1-1.2-1.1H488l-.1-.3-.9-.4.4-.3-.1-.2-1.2-1.3-.7-.4h-1v-.8l-1-.7-2-.4-3.4.7h-2.2l-3 .9-4.7.1zm131.3-44.7l-.8-.1-.4-.3-.8-1.9 1.2-1 1.3-.4.1.3v1.3l.2 1.6v.3zm-121.5-3.6l-.4-.1-.1-.2.3-.1zm3.5 2.6l-.7.2.2-.8h1.2l-.3.6zm111.9-8l.3-.3v.3h.6l.8.5.3 1-.1.6-.6 1.6-.9.9-.3 1.6-.7 1.5-1 .8h-.6l-1.7-1.8-.2-.5.8-1.5.3-3.4.8-2zm.1 0"/><path d="M468.1-17.4h-1.2l-2.4.4-2.6.8-6.8 2.5-4.3 1.2h-3l-3.7-.7-1.2.2-.2-.3 1-.2 2.9.2 1.7-.2.7.4 2-1.2v.2l-.2.4.2.3 1 .4 1.4-.7 1.2-1.3-.6.8.4.4.7-.4 1.5-.1 2.2-1 .4-.9.1-1.1-.6-.5-1.2-.3h-.6l-.6-.1-.5.2-.4-.3-1.3-.2-.7.1-.5.4-.6-.6h-1.8l-.7.8-.2-.2-1.5-.4-1.7-3-1.4-.9-1-.3h-1l-1.8.5-2.5 2.2-.3-.1h-.7l-.5-.3.2-1.1-.6-.6h-.8l-1.6.5-.3-.1-.5.4-.2-.8 1.9-1.9.6-1.4.1-.8-.8-1.2-1.2-.6-.1-.5-.7-.9-.4.3-.6-1-1.2-.6-.2-.4 1-2v-.6l-.2-.3.3.1v.8h.7l.7-.6.1-.8-.4-.9h-.5l-1.4-1.2-.4.5v-.6l.1.2.3-.3-.2-.2v-.8h-.3v-.3l-.2.5.3.4-.3.1v.7l-.1.3.1.3h.4v.2l-.5.8-1.5-1v-.9l-.4-.3h.3l-.5-.1v-.3l-.1-.3h-.7v-.1l-.2.2-.3-.4-1.5-.3-2 .6h-1l-2 .9.2-1h-.6v-.5h.3l-.4-.4-1 .8-.3 1-.5.1-.5-.2-.6.2 1-.7.8-1.4-.5-.8-.9-.4-.7.5-.1.6-1.2.7-.6 2.7.4 1-1.4 1.7-.2 1 .1.6 1 1.4 1.1.6h.7l-.1-.3 1 .4 1-.3.7-.5h1.3l1.2.9 2.3.9 1.3 1 .2.6.8.3v.2l1.2.9.3.2h1l-1 .6-.8 1.3-.4 3 1.4 1.4.5 1.1.2.2.4.3 2.1 3 .8 2 .7 1-.3.2v.4-.3l-.4.1-.3.7.2-.4.3-.4.1-.6-.5-1.3h-.5l-.7.6-.4-.2-.7-.6-1.6.1-.6-.3-.8-.2-.8.3-.6 1.1-1.2.1-.1.7v-.1l.1-.5h.6l-.5.4.6-.4.9.6.2.3h.6v.3l.4-.3.2.3-.1.4h-.3l-.2-.2v-.2h-.3l-.4-.2-.1.3h.7l.2.6h.4l.3 1.5 1.9 1.7 1.3.5h1.6l3.7-1.5 2.7-1.7 2-2 2-3 .1.2-1.2 3.2-1.7 3-1.6 3.9-1 3.9h31.4zM434.8-14l-.5-.9 1.1-.6.4 1.2-.4.6v.7l-.8.4-.5-.4zm-1.4-14.4l.1-.1-.1.1h-.1l-.3-.6.5.2-.1.2zm-12.7-8.3l-.5.3h-.4.3zm-2.4.7h-.5l-.6.2 1-.4zm1.4-.3h.1l-.8.2h-.8zm-.6-.2l-.2.1h-.2l.3-.3zm0 0"/></g></g><g fill="none" mask="url(#D)" transform="translate(49.4)" class="F D"><g stroke-width=".6"><use xlink:href="#W" class="B"/><use xlink:href="#W" class="C"/><use xlink:href="#X" class="B"/><use xlink:href="#X" class="C"/><use xlink:href="#Y" class="B"/><use xlink:href="#Y" class="C"/><use xlink:href="#Z" class="B"/><use xlink:href="#Z" class="C"/><use xlink:href="#a" class="B"/><use xlink:href="#a" class="C"/><use xlink:href="#b" class="B"/><use xlink:href="#b" class="C"/><use xlink:href="#c" class="B"/><use xlink:href="#c" class="C"/><use xlink:href="#d" class="B"/><use xlink:href="#d" class="C"/><use xlink:href="#e" class="B"/><use xlink:href="#e" class="C"/><use xlink:href="#f" class="B"/><use xlink:href="#f" class="C"/><use xlink:href="#g" class="B"/><use xlink:href="#g" class="C"/><use xlink:href="#h" class="B"/><use xlink:href="#h" class="C"/><use xlink:href="#i" class="B"/><use xlink:href="#i" class="C"/><use xlink:href="#j" class="B"/><use xlink:href="#j" class="C"/><use xlink:href="#k" class="B"/><use xlink:href="#k" class="C"/><use xlink:href="#l" class="B"/><use xlink:href="#l" class="C"/><use xlink:href="#m" class="B"/><use xlink:href="#m" class="C"/><use xlink:href="#n" class="B"/><use xlink:href="#n" class="C"/><use xlink:href="#o" class="B"/><use xlink:href="#o" class="C"/><use xlink:href="#p" class="B"/><use xlink:href="#p" class="C"/><use xlink:href="#q" class="B"/><use xlink:href="#q" class="C"/><path d="M.2 27.2v-44.5" class="B"/><path d="M.2 27.2v-44.5" class="C"/><path d="M.2 71.8V27.2" class="B"/><path d="M.2 71.8V27.2" class="C"/></g><use xlink:href="#o" class="B"/><use xlink:href="#o" class="C"/><use xlink:href="#q" class="B"/><use xlink:href="#q" class="C"/><use xlink:href="#f" class="B"/><use xlink:href="#f" class="C"/><use xlink:href="#k" class="B"/><use xlink:href="#k" class="C"/><use xlink:href="#l" class="B"/><use xlink:href="#l" class="C"/><use xlink:href="#p" class="B"/><use xlink:href="#p" class="C"/><use xlink:href="#e" class="B"/><use xlink:href="#e" class="C"/><path d="M.2 71.8V27.2" class="B"/><path d="M.2 71.8V27.2" class="C"/><use xlink:href="#g" class="B"/><use xlink:href="#g" class="C"/><path d="M.2 27.2v-44.5" class="B"/><path d="M.2 27.2v-44.5" class="C"/><use xlink:href="#n" class="B"/><use xlink:href="#n" class="C"/><use xlink:href="#a" class="B"/><use xlink:href="#a" class="C"/><use xlink:href="#m" class="B"/><use xlink:href="#m" class="C"/><use xlink:href="#W" class="B"/><use xlink:href="#W" class="C"/><use xlink:href="#h" class="B"/><use xlink:href="#h" class="C"/><use xlink:href="#i" class="B"/><use xlink:href="#i" class="C"/><use xlink:href="#j" class="B"/><use xlink:href="#j" class="C"/><use xlink:href="#Z" class="B"/><use xlink:href="#Z" class="C"/><g stroke-width="1.8"><use xlink:href="#r" class="B"/><use xlink:href="#r" class="C"/><path d="M.2 8.3v-44.6" class="B"/><path d="M.2 8.3v-44.6" class="C"/><use xlink:href="#s" class="B"/><use xlink:href="#s" class="C"/><use xlink:href="#t" class="B"/><use xlink:href="#t" class="C"/><use xlink:href="#u" class="B"/><use xlink:href="#u" class="C"/><use xlink:href="#v" class="B"/><use xlink:href="#v" class="C"/><use xlink:href="#w" class="B"/><use xlink:href="#w" class="C"/><use xlink:href="#x" class="B"/><use xlink:href="#x" class="C"/><path d="M.2 52.8V8.3" class="B"/><path d="M.2 52.8V8.3" class="C"/><use xlink:href="#X" class="B"/><use xlink:href="#X" class="C"/><use xlink:href="#Y" class="B"/><use xlink:href="#Y" class="C"/><use xlink:href="#b" class="B"/><use xlink:href="#b" class="C"/><use xlink:href="#c" class="B"/><use xlink:href="#c" class="C"/><use xlink:href="#d" class="B"/><use xlink:href="#d" class="C"/><use xlink:href="#y" class="B"/><use xlink:href="#y" class="C"/><use xlink:href="#z" class="B"/><use xlink:href="#z" class="C"/><path d="M180.8 46.3l-.2-2V42l.2-2.3.2-.7.4-7.4.5-10.6-.2-.4-2.4-7-.3-.3-8-6.7-.4-.2" class="B"/><path d="M180.8 46.3l-.2-2V42l.2-2.3.2-.7.4-7.4.5-10.6-.2-.4-2.4-7-.3-.3-8-6.7-.4-.2" class="C"/><use xlink:href="#AA" class="B"/><use xlink:href="#AA" class="C"/><use xlink:href="#AB" class="B"/><use xlink:href="#AB" class="C"/><path d="M85.4 14.5h-9l-4.4-.7-3.4-.2-2-.4-2.1-.4-1.2-.5-17 6.1L46 20l-.5 2-.1.5" class="B"/><path d="M85.4 14.5h-9l-4.4-.7-3.4-.2-2-.4-2.1-.4-1.2-.5-17 6.1L46 20l-.5 2-.1.5" class="C"/><use xlink:href="#AC" class="B"/><use xlink:href="#AC" class="C"/><use xlink:href="#AD" class="B"/><use xlink:href="#AD" class="C"/><use xlink:href="#AE" class="B"/><use xlink:href="#AE" class="C"/></g></g><defs ><path id="F" d="M25 90.9l-3.4.1-2.2 1-4.7 2.5-.5.5-1 1-1.2 1.4-.8.6-.6.7-.3.3-.5.4-.8.8-.7.5-.8.8-.3.3-.8.6-.8.6-.3.3-.3.2-.6.5-1.3 1-1.1.8-1.1.8-4 3h-.4l-3.3 9.4"/><path id="G" d="M6.9 160.3l.2 1 .2 1.2 1 5.5.3 1.5.1.9 1.4 8 .2 1 .4 2.4.1.7.4 2.5.2 2 .3 4.3.3 4.4.8 8.7"/><path id="H" d="M12.8 204.4l.3 3 .5 2.4.4 1.2.2.6.4 1 1.6 3.8 1.6 3.3 1 1.8 6.7 5.9v.1l.4.1.5.5 2.3 2 .6.4.5.5.6.6.7.7.6.5 2 2.4 1.4 2 2 2.8"/><path id="I" d="M37.2 240l1.4 2.2.9 1.1.4.7 1.6 2.5.2.5.9 2 .7 2.2.5 2.1.2 1.5.5 4.7.1 1v.5l2 15.5.2.3 1 2 .4.9.2.4.4 1.2.2.7v.2"/><path id="J" d="M-6.8 118.9l-1 2.9 1 3 .6 1.3.5 1.6 2.2 5.3.8 1.8.2.5.5.9 1.1 2.7 2.9 5 .4 1 .3.1.9 2 .7 2 .5 2.1.3 1.2.3 1.1.2.7.4 1.9.3 1 .6 3v.4"/><path id="K" d="M49.4 60.2V73l-1.7 2-1 1.5-.4.8-.2.3-1 1.8-1.5 2-1.6 1.8-.7.7-1.5 1.3-1.8 1.2v.1l-1.9 1.1-1.8 1-2 .7-1.1.4-2 .6-1.9.4-1.9.2H25"/><path id="L" d="M9.7 176l-1-5.7-.1-.9-.3-1.4-1-5.4-.3-1.4-.1-1.1-.6-3.1-.3-1-.4-2-.2-.6-.4-1-.2-1.4-.5-1.9-.7-2.1-1-2v-.2l-.6-1-3-4.9-1-2.6-.6-1-.1-.5-.5-1"/><path id="M" d="M11.3 98l.7-.7 1.2-1.3 1-1 .5-.5 4.7-2.6 2.2-.9h3.8l2-.3 1.7-.4 2-.6 1.3-.4 2-.7 1.7-1 1.9-1.1h.1l1.7-1.4 1.5-1.2.7-.7 1.6-1.8 1.5-2 .9-1.8.3-.3.4-.8.8-1"/><path id="N" d="M17.7 219.4l-1.5-3-1.6-3.8-.4-1-.2-.6-.4-1.2-.5-2.4-1.1-11.7-.3-4.4-.3-4.3-.2-2-.4-2.5-.1-.7-.4-2.4-.3-1-.3-2.5"/><path id="O" d="M-3.2 133.7l-.3-.7-2.2-5.3-.5-1.5-.6-1.5-1-2.9 4.4-12.1.2-.2 4-3 1.2-.6 1-.8 1.5-1 .6-.6.2-.2.3-.2.8-.7.8-.6.3-.3.8-.8.7-.4 1-.9.2-.4.4-.3.7-.7"/><path id="P" d="M49.4 298v-14.6L49 282l-.2-.7-.4-1.2-.2-.4-.4-.9-1-2-.2-.4-2-15.4v-.5l-.1-1-.5-4.7-.1-.6"/><path id="Q" d="M43.9 254.3l-.1-1-.5-2.2-.7-2.1-1-2v-.6l-1.7-2.4-.4-.7-1-1.2-3.3-5-1.5-2-2-2.2-.6-.6-.7-.7-.6-.6-.5-.4-.6-.6-2.3-1.9-.6-.5-.2-.1-.1-.1-6.7-5.9-1-1.8-.1-.3"/><path id="R" d="M11.6 189.6l-.2-2.6-.2-2-.4-2.5-.1-.7-.4-2.4-.3-1-1.3-8-.1-1-.3-1.4-1-5.4-.3-1.4-.1-1.1-.6-3.1-.3-1-.4-2-.2-.6-.4-1-.2-1.4-.5-1.9-.7-2.1-.6-1"/><path id="S" d="M45.5 268l-.9-7v-.5l-.1-1-.5-4.7-.2-1.5-.5-2.2-.7-2.1-1-2v-.6l-1.7-2.4-.4-.7-1-1.2-3.3-5-1.5-2-2-2.2-.6-.6-.7-.7-.6-.6-.5-.4-.6-.6-1.3-1"/><path id="T" d="M27.4 229l-1-1-.6-.4-.2-.1-.1-.1-6.7-5.9-1-1.8-1.6-3.3-1.6-3.8-.4-1-.2-.6-.4-1.2-.5-2.4-1.1-11.7-.3-4.4-.1-1.7"/><path id="U" d="M3 146l-.2-1-.3-.2-.5-1-3-4.9-1-2.6-.6-1-.1-.5-.8-1.8-2.2-5.3-.5-1.5-.6-1.5-1-2.9 4.4-12.1.2-.2 4-2.8"/><path id="V" d="M.7 106.7l.3-.1 1-.8 1-.7 1.5-1 .6-.6.2-.2.3-.2.8-.7.8-.6.3-.3.8-.8.7-.4 1-.9.2-.4.4-.3.6-.6.8-.8 1.2-1.3 1-1 .5-.5 4.7-2.6 2.2-.9h3.8l2-.3 1.7-.4 2-.6 1.3-.4 2-.7 1.7-1 1.9-1.1h.1l.7-.7"/><path id="W" d="M374.8 139l-5.3 3.5-3.5 3.1-2.2 1.8-1.8 1.3-2 .9-1.8.6-2 .8-1.4.2-5.8 1.6-1.2.2-2 .5-2.1.3h-2.1l-2.2-.1-2-.4h-.1l-1.3-.3-1.6-.4"/><path id="X" d="M452.2 176.3l-.2.3-.4.2-.1.2-.3.1-.3.2-.3.2-.3.3-.3.1-.3.2-.3.2-.3.2-.3.2-.4.3-.3.2-.3.2-.3.2-.2.2-.2-.1-.4-.2h-.2l-.5-.3-.5-.2-.3-.2-.4-.1-.4-.2h-.2l-.6-.3-.2-.2h-.4l-.4-.2h-.3l-.4-.1-.4-.1-.4-.2h-.3l-.4-.1-.4-.1-.6-.2h-.6l-.4-.3h-.9l-.3-.2h-.4v-.3l-.1-.4-.1-.3-.1-.5-.1-.3-.1-.3-.1-.4-.2-.4-.1-.4-.1-.2-.2-.5-.1-.4-.2-.3-.1-.4-.2-.3-.2-.4-.1-.3-.2-.4-.2-.3-.3-.4-.1-.3-.2-.3-.2-.4-.3-.3-.2-.3-.2-.3-.2-.4-.3-.2-.2-.4-.3-.2-.2-.3-.3-.3-.3-.3-.3-.3-.1-.3-.7-.5-.3-.3-.3-.2-.3-.3-.3-.2-.3-.3-.4-.2-.2-.2-.4-.3-.3-.2-.3-.2-.4-.2-.3-.2-.3-.2-.4-.2-.3-.2-.4-.1-.3-.2-.4-.2-.3-.1-.4-.2h-.4l-.3-.3-.4-.1-.4-.1-.4-.2h-.3l-.4-.3h-.4l-.3-.2h-.5l-.5-.2h-.3l-.4-.1"/><path id="Y" d="M418.3 158.6l-.4-.1h-.3l-.4-.3h-.8l-.4-.1h-.8l-.4-.1H413l-.4-.2h-.4l-.4-.1h-.8l-.4-.1h-3.5l-.4.3h-.4l-.3.1h-.8l-.4.3h-.8l-.4.1-.3.1-.4.2h-.4l-.4.3h-.3l-.4.2-.4.1-.3.2-.4.1-.3.2-.4.2h-.3l-.4.3-.3.2-.4.2-.2.2-.4.2-.4.2-.2.2-.4.3-.4.2-.2.2-.4.3-.3.2-.3.3-.3.2v.1l-.5.2-.1.3-.3.3-.3.2-.3.3-.3.3-.3.3-.2.2-.4.3-.2.3-.2.3-.3.3-.2.4-.2.3-.3.3-.2.3-.2.3-.2.3-.2.5-.2.2-.2.4-.2.3-.2.3-.2.4-.2.3-.1.4-.2.4-.1.3-.2.4v.3l-.3.4v.4l-.3.4v.3l-.1.4-.1.4-.2.4v.3l-.1.5v.3l-.2.5-.1.3v.4l-.1.3v.8l-.1.4v1.1"/><path id="Z" d="M334.4 152.6l-.5-.2-1.5-.4-2-.6-1.6-.8-.8-.3-6.8-3.4-10.9-3.2-1.1-.2-2.3-.8-2.2-1-2-.9-2-1.7-.3-.1-2.9-1.7-.6-.4-3.3-1.7"/><path id="a" d="M293.6 135.2l-1.6-.8-1.2-.7h-.1l-.9-.7-3-1.9-.6-.4-1.2-1-1.9-1.4-1.6-1.6-1.5-1.7-1.3-2-1.1-2-1-2.2-1.6-4.7-4.8-6.7-1.8-1.2-.4-.2-1.7-1-1.6-1.4-.4-.2"/><path id="b" d="M386.4 180.3v1.7l.2.4v.6l.1.5v.5l.1.3v1.6l-.2.4v.4l-.1.4v1.1l-.2.5v1.4l-.2.5-.1.2-.1.4-.1.4-.1.3-.1.4-.2.4v.3l-.3.4v.6l-.1.1v.4l-.3.3-.1.4v.2l-.2.1-.2.7-.1.4-.2.4v.3l-.3.4v.4l-.2.4v.3l-.1.4v.8l-.2.2-.1.4v.8l-.1.3v.4l-.2.3v.6l-.1.4v.4l-.1.2v1.3l-.1.3v1.2l-.1.4v4.4l.3.4v3.1l.1.4v.8l.1.3v.4l.1.4v.4l.1.4v.8l.2.4v.3l.1.5.1.3v.2l.1.3v.4l.3.3v.4l.2.4v.3l.1.4.1.4.1.2v.2"/><path id="c" d="M384.4 224l.1.3v.2l.3.4v.3l.2.4v.4l.2.3v.7l.3.2v.3l.1.5.2.2.1.5.2.3v.2l.1.3.1.5.2.3.1.3.1.4.3.3v.4l.2.3.1.4.2.3v.3l.4.4.1.3.2.3.2.4.2.3.2.3.2.3.2.4.2.3.2.3.2.1v.3l.4.3.1.3.2.4.2.3.3.3.2.3v.1l.2.3.2.3.1.2.3.2v.3l.3.3.2.3.3.4.2.3.2.3.3.2.2.3.3.3.2.3.3.3.3.3.2.2.3.3.3.2.4.3.2.2.3.3.3.2.2.3.4.2.3.2.3.2.3.2.4.2.3.2.3.2.4.3.3.1.3.2.4.1.1.1h.2l.2.3h.2l.3.2.4.2.6.4.4.2.3.1.1.1h.1l.4.2.3.2.4.1.7.3.3.2h.4l.3.4.3.2.3.2.3.2.3.2.3.2h.1l.3.4.3.1.4.2.3.2.3.2.4.2.3.1.3.2.4.2.3.1.4.2.3.1.4.2h.4l.2.2.5.1.3.2h.3"/><path id="d" d="M414 254.3h.3l.3.3h.3l.4.1h.4l.3.1h.4l.4.2h.5l.3.1.3.2h.4l.4.3h.3l.4.1.7.3h.8l.4.3h1.1l.4.2h.7l.5.1h4.7l.4-.3h1.2l.3-.2.4-.1h.7l.4-.3h.4l.3-.2h.4l.4-.1h.1l.3-.3h.4l.4-.1.2-.2h.5l.3-.3.4-.1.3-.1.5-.3.2-.1.3-.2.5-.1.2-.2.8-.4.5-.4.3-.2.3-.4h.4l.2-.4h.4l.3-.2.4-.2.2-.1.4-.2.3-.1.7-.4.3-.2.4-.2.3-.2.3-.2.3-.2.6-.5.4-.2.2-.2.3-.3.6-.5.3-.2.3-.3.2-.3.4-.2.2-.3.5-.6.3-.3.2-.3h.1l.2-.3.4-.3.2-.3h.2l.1-.3.3.3h.2l.5.3.3.1.3.1.4.1.4.2h.4v.2h.3l.4.2h.2"/><path id="e" d="M264.3 103.4l-1-.8-1.1-.8-.6-.3-.7-.5-.4-.1-.6-.3-1.6-.8-1-.5-.6-.3-15.1-4.8-4.1-.2-1.5-.2-.9-.1-1.2-.2-3.5-.6h-5.9l-2.1-.5h-.5"/><path id="f" d="M147.2 6.2l-.4.3-1 .5-1.2.8-.6.4-1.2.7-.6.1-1 .6-.3.4h-.6l-.7.4-.6.3-.4.1-1.7.7-.8.2-.6.3h-.6l-2 .7-1.5.2-.9.3-1 .2-1.5.3-1 .3h-.3l-1.7.4h-.7l-1 .2h-.9l-.9.1h-2.2l-1 .2h-10.2l-1.9-.4h-1.9"/><path id="g" d="M475.4-5.9L464 2l-.5.6-1.3 1.4v.1l-1.6 1.4-1.3 1-1.7 1.5-2 1-1.8 1-2.1.8-2.3.6-2.1.4-2.2.2h-2.7l-1.7-.2-1.7-.3-.6-.1-1.8-.5"/><path id="h" d="M436.6 10.9l-.9-.3-.5-.1-2.9-1.2-1.6-.8-8.7-2-3 .7-3.7 4.7-2.9 4.1.6 4.3 1 1.9.7 2.1.3.6.6 2.2.5 2.2v1.2"/><path id="i" d="M416.2 30.5v3.9l-.2 2.3v.5l-.4 1v.4l-.2 1.3-.5 1.9-.1.2.3 10.5.4 10.7.3 1 .6 2 .4 2v.5l.2 2.2V73l-.2 1.7"/><path id="j" d="M416.8 74.7v.5l-.5 2.2-.6 2-.7 2.1-1.1 2-2 2.8-6.5 8.4 2 11 .1.1.5 2.2.3 2.4v.2l.2 2.2v2.2l-.4.5"/><path id="k" d="M104.3 14.6H99l-2.4-.2-2.7-.4H91l-1.7.2h-.8l-2.5.2h-1l-1.7.3H79l-2.6-.3L72 14l-3.4-.4-2-.4-2.1-.4-1.2-.5-3.1 1.1"/><path id="l" d="M60.2 13.5l-13.9 4.8-.3 1.8-.5 1.9-.5 1.8v.2l-1.1 2.2-1.2 2.1-1 1.7-.9 1.3-3.6 7-1.5 2.3-1.8 2.3-.2.1-1.3 1.4"/><path id="m" d="M408.2 115.5l-.2 1.5-.6 2.2-.7 2-1 2.1-.9 1.9-1.4 1.6-1.5 1.7-1.7 1.7-1.8 1.3-1.9 1.2-2 1-2 .6-2.3.7-2.2.4-10 1.4-3.2 2.2"/><path id="n" d="M221.9 92.4l-1.6-.4-2-.7-2-1.1-2.1-1.2-1.7-1.2-1.5-1.5h-.2l-.1-.3-1.7-1.5-1.2-1.8-1.2-2-.4-.7-13-13.2-.9-1.1-1.5-1.5-1.2-1.5"/><path id="o" d="M189.6 62.7l-3.6-4.6-1.6-2-1.2-2.2-.2-.2-1-2.3-.7-2.5-.5-2.4-.2-2.2V42l.2-2.3.2-.7.4-7.4.5-10.6-.1-.2"/><path id="p" d="M32.4 44.4l-.4.3-1.7 1.3-1.9 1.4-.3.2-6.2 4.1-2.3 2-2.8 2.4-1.4 1.2-1.5 1-1.4.7-7 7.6L4 68.5 2.6 70l-.3.3-.3.4-.4.5L.2 73v-1.2"/><path id="q" d="M181.8 20.8l-.1-.2-2.4-7-.3-.3-8-6.7-2.1-1.1-3.2-1.6-.7-.3-.2-.2-2.3-1.2-1-.5-10.3 1.7-.9.6-.8.6-.7.5-.7.5-.5.4-.4.2"/><path id="r" d="M207 81.4l-.4-.6-.4-.8-13-13.2-.9-1.1-1.5-1.5-4.9-6-1.5-2.2-1.2-2.1-.2-.2-1-2.3-.7-2.5-.5-2.4v-.2"/><path id="s" d="M460.5 5.6l-1.2 1-1.7 1.3-2 1.1-1.8 1-2.1.8-2.3.6-2.1.4-2.2.2h-2.7l-1.7-.2-1.7-.3-.6-.1-2.7-.8-.5-.1-2.9-1.2-1.6-.8-8.7-2-3 .7-.5.4"/><path id="t" d="M408 91.2l-2.6 3.5 2 11 .1.1.5 2.2.3 2.4v.2l.2 2.2v2.2l-.5 2-.6 2.2-.7 2-1 2.1-.9 1.9-1.4 1.6-1.5 1.7-1.7 1.7-1.5 1.1"/><path id="u" d="M398.7 131.3l-.3.2-1.9 1.2-2 1-2 .6-2.3.7-2.2.4-10 1.4-8.5 5.7-3.5 3.1-2.2 1.8-1.8 1.3-2 .9-.7.2"/><path id="v" d="M359.3 149.9l-1.1.4-2 .7-1.4.2-5.8 1.6-1.2.2-2 .5-2.1.3h-2.1l-2.2-.1-2-.4h-.1l-1.3-.3-2-.6-1.7-.4-1.9-.6-1.6-.8-.8-.3-6.8-3.4-4.4-1.3"/><path id="w" d="M316.8 145.6l-6.5-1.9-1.1-.2-2.3-.8-2.2-1-2-.9-2-1.7-.3-.1-2.9-1.7-.6-.4-4.9-2.5-1.2-.7h-.1l-.9-.7-3-1.9-.6-.4-1.2-1-1.9-1.4-1.6-1.6-1.5-1.7-1-1.5"/><path id="x" d="M279 123.5l-.3-.5-1.1-2-1-2.2-1.6-4.7-4.8-6.7-1.8-1.2-.4-.2-1.7-1-1.6-1.4-1.3-.9-1.4-1.1h-.4l-.7-.6-.4-.1-.6-.3-1.6-.8-1-.5-.6-.3-9.7-3.1"/><path id="y" d="M418.6 7.6l-3.2 4.3-3 4.1.6 4.3 1 1.9.7 2.1.3.6.6 2.2.5 2.2.2 2.3v2.8l-.3 2.3v.5l-.4 1v.4l-.2 1.3-.5 1.9-.1.2.2 7.3"/><path id="z" d="M415 49.3l.1 3.2.4 10.7.3 1 .6 2 .4 2v.5l.2 2.2V73l-.2 2.2-.5 2.2-.6 2-.7 2.1-1.1 2-2 2.8-3.7 4.9"/><path id="AA" d="M170.6 6.4l-1.7-.9-3.2-1.6-.7-.3-.2-.2-2.3-1.2-1-.5-10.3 1.7-.9.6-.8.6-.7.5-.7.5-.5.4-.8.5-1 .5-1.2.8-.6.4-1.2.7-.6.1-1 .6-.3.4h-.6l-.7.4-.6.3-.4.1-1.7.7-.8.2-.6.3h-.6l-2 .7-1.5.2-.9.3-.7.2"/><path id="AB" d="M129.8 13.4h-.3l-1.5.3-1 .3h-.3l-1.7.4h-.7l-1 .2h-.9l-.9.1h-2.2l-1 .2h-10.2l-1.9-.4H99l-2.4-.1-2.7-.4H91l-1.7.2h-.8l-2.5.2h-.6"/><path id="AC" d="M45.4 22.5l-.5 1.3v.2l-1 2.2-1.2 2.1-1 1.7-.9 1.3-3.6 7-1.5 2.3-1.8 2.3-.2.1-1.6 1.7-1.8 1.3-1.9 1.4-.3.2-6.2 4.1-2.3 2-2.4 2"/><path id="AD" d="M17.2 55.7l-.4.4-1.4 1.2-1.5 1-1.4.7-7 7.6L4 68.5 2.6 70l-.3.3-.3.4-.4.5L.2 73V52.8"/><path id="AE" d="M247 96l-5.4-1.9-4.1-.1-1.4-.2-1-.1-1.2-.2-3.5-.6h-5.9l-2.1-.5-2-.4-2.1-.7h-.2l-1.8-1.1-2-1.2-1.8-1.2-1.5-1.5h-.2l-.1-.3-1.7-1.5-1.2-1.8-.8-1.3"/></defs></svg>