<svg xmlns="http://www.w3.org/2000/svg" viewBox="0 0 497 279"  xmlns:v="https://vecta.io/nano"><path fill="#f2efe9" d="M0 0h497v279H0z"/><g fill-rule="evenodd"><g fill="#eee5dc"><path d="M227.8-18l4.4 2.7 1.5 3.7 4.7.6-1.8-3.9L240-17l1.4 3.5 1.6.1 1.3-4.6 2.5-2.9-1.1-3.6-1.3-3 5.2 1.9-2-4.6 1-1.6.1-4 2.3-1.5 1.5 5 4.5-3.9.3 1.5-3.6 4.4 3.3 2.1 6.2-2.2 2.5 2-4.5 1.5-6.2 1-3.9 4.3 2.9 2.7 5.1-.3-5.8 2.6-5.1 3.2 5.5-1.3 6.2-.1-4.8 1.3.7 3.5 5.8 1-2 .3-4.3 1.7-5.1-2.1L248-7l-4.8 1.2 2.3 2.4 6.2.8-5.5 1.6 1 3 4 2 2.8 1.2-1.4 3 6-1.6L263 3l1.3.9-3.6 4.3-3.3 2.4-2.8 3.7v5.1l4.3-1 .6 1.6 4.1-1.3-2 4 4.1-.5.6-5 2-1.8-.9-2.4 2.7-1.3 1.9-5 2.2-4 5.6-2.3 3.3-.6 5-2 5.3-2.3-2.7-3.5-4.8 1.1-4.2.3h-1.8L276.5-8h-5.3l.7-.5 2.1-3.2 1.6.4 5 1.3 5.6-1.9v-3.7l-3.1-.4-2-4.7-3.3-2.7-2.3-3.2-2.7-3.4-1.6-5 1.8 2.9 3.4 3.9 3.1 2.6 4.8 2.8 4.3 4 3.8 5.1 4.4 3.1 3.6 3.8-2.1-5-4.5-4-3.8-4.1-3.2-3.9-2.8-4.6-1.2-3.6 1-3.4L280-37l-3.6-2.4 4.8-1.8 1.8-2-6-1 1.5-2.5-2.2-2.6-4.6 1.3-1.8-2.5-5.3 1.4.4-2.9.2-2.5-5-.9-2.1-3.2-4 .8-3.9 4.4-5.9-.5-5.9-.8-5 .3 3.6 1.6-6 .8 2.5 2.6-3.2 2-1.7 4.9 1.2 4.5 4.2-.6 1.2-2.2 5.2-2.2 1.7-1.8 1 2.8-4.2 2.8 1.3 2.8-5.6 2 5.4 2.1-6.2-.3.8 3.6-1.6.7-.2 3.2-1.2.7 2.7 2.8-3.4 1-.9.9-2.2 1.4zm39.6 55.2l4.9.8-3 4 1.4 2.9 4-3.9 3.1-2.9 4.3 1 4.9-4.6 2.5-5.4 1.2 4.4-3 4.9 2.6 2.4 3.8-2.4 1.5-4 1.4 4.4.5 5.3 1.5 1.6 2-5.6 1.7 2.6 2.9 3.4.9-4.8 2.1-1 4.6-1.6-4.4-1.7-.2-3-2.7-1-3.6-1.4 3-5.1-2.9-.3-4.2 3.6-3.5-1 2.3-5.3-4.6 1.8-2-1.9-2-1.6-3.2-2.2 5.8-.6 6.3-.5-6.3-2-3.3-2.5-3.5-2.6 6.8 1.8 1-3-4.2-2.7 5.9-.1 3.9 1 4.7 4.9 1.9-3.1 1.4-4.4-5.5.9-1.5-4.6-4.1.5-3.5.3-4.2.3-3.2-.4-6-1L274 6l-1.7 5.7 4.7.2-4 1.8 1.6 3.7 4 1-6.3 1L270 22l-.6 5h4.8l-5.5 3.3 3.4 1.7-1.7 2.2-2.9 2.2zM35-4.6L36.8.8l.9 2.6 3.7 1 2.3 1.8 3.5-1.1h1.5l-.4 4.3 3.7 3.4 5.7.3 5.3.4 7.2 3.1 4.4 4.2 1.8-5 3.6-4 4.4-.9 4.8-2.7.1-4.2L87.6.2l-5-1.6h-5.9l-5.8.6h-5.4l-3.2-1.6-3.1-2.5-4 .2-5.6-2-3.7-1-1.8 3.9-.8 1.7L40.6-6l-4.3 1.8-.7-.8zm142.7 33.7l3.9 1.9 3-3.5 4.4-2.8 1.5.6-5.2 5.3 1.1 4.6 2.8-4.6 4-3.4-1.4 6.2-2.6 5 3.3 1.9 1.6-5 1.9-2.4 1.7-3-1.3-1.9-.2-2.7 2-1.3-1.2-4.3 2.6 1v-4.4L201 14l3.6-4 2.8-4-1.1 5.5-.2 2.5-1.1 3.8-1.5 4.6.5 4.6-.8 4.4.2 4.5-3.7 4.5.3 3 3.2-4.9 3.2-4.5.6-4.5-.7-2.8-.1-3.2 1.2-2.5 2.6-2.2 1-3.2.2-1.5 1.7-6.3 1 .8.8 1.2 1-5.8-4.2.9 3.1-3.5 4-2.5 3.6-2.2.7-2.7 3.3-2.5-2.7-1.1.3-3.6-3.4 3.8-2.9 5-4.3.7-5 1-5.9 1.7v3.3l-4.7 4 1.5 4-4.8 1.2 1.1 1.2-2.3-.7-2.5.9-3.8 4.5 4.8.3-3.3 3.3-4 1.1-1.7 1.4-2.9 2.8-1.4 1.7zM98-17l.6 7.5 2.6 4.3 1.7 6.2 5.5 1.1 1.2-6 2.2 2.5 2.6 2.7 5.7-4.3-1.4-5 2.6-2.2 8.2-1 6.9-5.1-6.4-4-1.4-4.7-7.6-1.2-3.1-.8-4.5 3.4-6 3.4-8.3 1zm40 99.1l6.4-2.2 1-3.3 5-2.7 2.8-3.4 1-.5 3 2.7 3.2-4.3-.9 5.8 3.1-3.7 3 .5v-3.4l1.4-1.7 2.3-3.3 2.5 2.2 1.5-5 2.7-4.7 2-2.3 4.5-3.1-1.9-1.7 2.4-3-1.5-3-2.1-.2-2-1.5-3 3.7-1.4 1.5-4-.3-.8 3.1 2.4 2-1.1 3.3-2.5 1.8.2 2.9-2.1-2-1.3-3.2-2-2.5-.8-3.2-4.7 1.3 2.2 2.7-.1 3.3-4.4-2.2.7 5.5.8 4.6-1.3-.2-2.7 2.1-2.7 5.5-1-6.1-3.8-.6 2.5 3.1-2.8 4-3.3 4.9 1.9 2.6-3.8 3.9zM34.7 39l4.5 1.4 3-.6 2.8 1.6.5-2 3.3-2.4 5 2.7-3 2.1 2.8 4.2 5.4.9 5-3-.4-1.1-1.9-.8-3.6.6-1.2-2.8 3.6-1.8 4.3.7L66 37l2.9-3.5 1.8 5 6-4.4 4.3-4.2-3.3 2.1-5 2.4.7-6-3.2-1.1-5.7.2-6-1.7-4 1-.4 1.7-3.7 1.5-5.7 1.7v3.7l.7.4-4.6-.7-3.2 2.8-2.8.8zm196.9-15.4l6.2 2.5 1.7.7 3 .5h1.2l.1 2.3 4 2.3 3.3 1.6 4.5.5 3.1-1.6 2.7-.7-1.8-4.5h-5.2l.6-2.4v-3l-4.3-.5-.7-2.6 2.4-2.2-2.8-3.7-1 4.2-4.8 4-1.1-1.8 4.6-4.5 1.3-3.8-4.5 2.1-4.1 2.4 2.5-5.5-3.7 2.7-2 5-2.2.1-3 5.6zm-28.1 29l4.4-2 4.5-3.8v3.7l-1.8 4-1.4 3.4 5-.6 3.4-4.5.3 3 3 2.1-5 2.6-.9 3.1 2.2 2.4 3.3-1.3-3.8 4.7 3.7-1.3 4.3-5.5 1-3-2.5-4.8 3.3 1.5.8-5.5 1.7-5.7-4.5-.5-1.4 2.7-5 .9-1.8-4.4-2.3-.1-3.1 1.5-3.2 1.3-4 5.5zm-87.1-6.2l5.4-1.6 6.1-4.4-.7 3.9-5.7 3.7.8 1.6-1.1 3.7 1.2-1.3 5.2-.5-3-1.8 2-1.5 1.3-1.9 3.3-2.8L134 46l3-1.3 3.4 1.1 2.8.4v-2.3l-5.3-1.4-3.7-3.1 3.4-2h4.3l.1-2.4 3.2 2.9-1-5.3-4.5-3.6-.8-3.1-4.6 4.1-4.1.2-4.3 3.5-.4 5.7-4.3 4.6-4.7 1.8zm46-41.1l4.4 1 5.3 3.5-.7-3.8 2.6-.2 2.7-4L177-1l3.7-5.8 3-5.6 4.3-5.4 3.2-3.2.4-2 2.8-4-3-.4-4.8 3.2-1.2 1.4-3.8 5.2 3 .9-5.4 3 .2 2.1-4.9-.8-1.5 4.1 3.6.9L174-5l-6.1 3.3L170-.5l1 3.3-5-.5-3.5 2.7zm13.4 11.4l2.8 2.3 3.4-4.8.9-2 .9-3 1.8-2.9 1-3.2.7-2.1 2-3.9 1.7-2.6 2-4.2 2.3-4 2.1-5.3 3.2-3.8-5.9 1.2-1.3 6.6-4.4 4-3.6 5.3-1.8 4-3.6 4-.4 3.2-.2 3.5-3.4 4.3-.2 2.5zM173.3 69l4-3.3 3.7-2.2 4.5 3.2 1.4-4.1 1.8 3 3.3.9 4.5-2.3-5.3-.8 1.7-3.2.2-2.8-1.6-1.8-3.5 2-2 .7 4-5.6 1-4.7-6 5-4.8 2.6-3.8 5-2.3 5.7zm0 0"/><path d="M80.7 17.6l4 3.2 5.2 1.4.3-5 3.8 2.3 2.5-.2L99 18l1.9-3.2 4.1-.4-2.4-4-5 1-2.2-2.7-.6-3-3.2 4.9-8 2L81 15zm70.5-2.2l4-1 1.3 1.6 1 3.3 3.2-2.3 3.9-2.5-2.3 5 3.7-1.2 1 4.7 3.6-2-1.6-4.2.6-2.1 1-3.8-4.2-2.2-3.5 1-3.1 1.9-4.5-2.1-3.4 5.1zm61.4 11.8l3.9-2.7 5-.2-4.9 4.2-3.3 3.7 2.2 1-.2 2.8 4-4.4 2.1-3.2 2.4-1 2.8-5.2 1.7-4.9L233 13l-4.3-.3-1.7-2-5.1 1.1-2 1-4.3 4.5 3.2-.5 3.8-3.8 3.7 1 .4 2.7-2 2-3 3.5h-5l-4.1 4.1zm17.8 15.1l3.2.8-.7 2.3-1.5 4.1 4.8-.3 1 1.4-5 3 1 3.4 2.4 1.2 1.3-3 2.3-5.3 2.6-6.9 1.8-4 1-1.4-.1-3.5-7.3 2.1-4.7 3.4-1.8 1.8zM40.5 20.9l5.3 2.8 5.5-.9 5.5-1 5.5 1.3 4.3-1.3-1-2.1-1.4-2-5.6-1.1-6-.4-6.1-.7-3.5 4.3-2.5.4zm107.8 13.6L151 36l2.5-2.2 2.3 4.6 2.9-1.3 1.5-1.9.2 3.4 4.1-1.2 3.8-1.8-2-4.4-3.1 1.4-1.1-1.9-3.3-.7-2.8-1.5-3.3 1.1-3.2 3-1.1.9zM22.9 57l4.3 1 4.5 2.3 2.3-1 2.3 2.3 2.9-1-1.6-4.1 4-1.5-2-1-2.1 1.4-2-2.8-3.7.4-3.2-2-3.1 3.3-2.4 1.7zM190.7 8.3l5-2.7 1.7-4.8 2.6-2.6 5.2-3.4-.2-2.5-5 3.8-4.7 1.2-3.8 4.7-.2 2.8-.4 2.7zm59.7 39l3.4 2.5-1-.1 1.7-5 2.4-2.2 4.4-1.5 1.1-3.4-6 .4-4.5 1.6-1.5 7zM240 60l3.3-4.8 1.9-1.6.8 4.4.3 3.7-3.7 3 3.1.3 4.8-.9-1.2-4.7-1.3-5.7-2.6-4.4-2.8 3.4-1.2 5.3-1.2 1.5zM225 7.6l6-.5 3.1.4 2.4-2 5.9-1.5-1-3.7-3.2-2.6-1.1 3.7-6.1 3.8-4.8.8zm.2 27.1h5.2l.4 2.3 4.5-1 4-2-1.9-4-5.3.1-6.6 3.8zm.7-33.1l4.3-.6 2.8-3.5-1.3-4.7-1.7 4.8-4 3.4zM194 84.3l3.3 1.5 3-1.9 2.6-1.7V80l1-2 5.1.4-2.6-2-5.4 1.2-2.1 1.9-.2.8-1.8 2.4-2.9 1.1zm28.2-12l5.7-2.1 2.6-1.7 2.5-.5-3.7-4-4.3 2.4-2.7 5zm-45.5-.3l5-1 2.8 2.8 3.2-2.2-4.7-1-2.7-3.2-3.6 4.3zm80.2-22.1l6.2-1.7v-3.5l-5.3 1.5-.8 3.4zm-32.2 25.5l1.9 2.2 4-.2-1.8-4.4-4 1.7zm42.5-13.6l5.5 2.5-1.1-2.3-2.3-2-2 1.3zM220 39.6l5.9.4-2.7-1.5-2.6.3zm22.1 9.6l3.4-3.5 2-4.8-3.2 4.2-2.3 3.2zM218.2 7.3l4-3.4-4.1 3zM264 61l4.5-2.6-3.9 1.9zm-9.2-3.7l.7-4-.1 2.9zM230 28.5l3.8.4-3.8-.5zm-3.2 51.9h2.6l-2-.6zM207 58.5l1.7-.5-.7.2zm58.3-4v-.2zM223 77v-.3zm36-23.3v-.2zm0 0"/></g><path fill="#add19e" d="M267 144.4h.2zm-.2 9.5v-.1zm0 0"/><g fill="#aad3df"><path d="M-81.6-28.9h.1v.2l.3-.3h.4l.2-.1h.2v.1l-.1.1h.2v.1h-.2v.5h.3l-.2.3.1.2v.1h.3l-.3.3v-.1l.3-.1v-.2h.3l.1.2v.3h.6v.3h-.4v.4h.4v.1h.3v.1h.2v-.3.4h.4l.1.2v.1h.5l.1.2v.1h.3l.1.3h.4l.6.2.2.3h.3l-.2-.2v-.1l.2.2v.2l.1.1.2.2h.3v.4h.3v.1l-.2.1v-.1h-.2v-.2.4h.5v.2h.3-.3.3l.2.2h.6v.2l.1.2h.3l.2.2h.1l.1.1h.3l.1.2v.2h.4v.6h.1v.2h.2v.1l.2.1v.3l.1.3v1.1h-.1v.3h.2v.2l.1.1.1.4h.3-.4v.2-.2.4h.4v.2h.1v-.3h.1l.1.3v.8h-.2v-.6h-.3v-.2 1.1h.1v.1l.2-.1h.2v-.2l.2.1v.5l-.2-.2h-.1v.4h.1v.1h-.2v.2h-.2v-.2.9l-.3.1.2.3h.2l-.2.3v.1l-.2.1h-.4v-.2l-.1-.1h-.5l.6.3v.2l-.2.2v.9h-.2v.2l.1.2-.1.2v.5h-.2v.7l-.2.3v1.2-.2h.2v.3h-.2v.4l.2.3v.6l-.2-.2v.3h.2v-.2h.5v.9h-.3v.1h-.7l-.3-.1v.3l.2.1h-.1v.2h.3v.1h-.2v.2h.3v.1h-.4l-.3.3-.2.1v.4l-.2.3v.2h-.2v1.5l-.2.5-.2.3h-.2v.1h.2v.3h-.6v.3l-.1.3h-.1v.4h-.2v.3l-.1.1v.6l-.8.9h-.2l-.2.2V.4v.9l-.2.5h-.1l-.2.5h-.1l-.2.5-.3.2-.3.2h-.3v.4h.3V4h-.4v.5l-.4.5-.1.2v.5l-.4.3v.4h-.2l-.1.2V7h-.3v.2l-.1.2-.3.1.2.1.2.1h.2V8l.2.5h1v.8h-.1v.2h.2v-.7.4h.1l.4.2v.3-.2l.2.1v.6h-.3V10h-.2.2l-.3.1v.1-.4.2h-.5v-.2h.3v-.2h-.2v-.2h-.1v-.3l-.2-.1h-.5v.7h.6v.5h.1v-.4l.4.4v.4h.1-.2v.1h-.7v.4h.4v.1h-.1v.1h-.3v.2h.4l-.2.2v.1h.2l.1-.3.1.1h-.3v.2l.2.2v.3l.3.2v-.1.3h-.3l.2.1v.2l.2-.1.1-.2v-.1l.3-.3h.4l.2-.1h-.2V12h.3-.3.5l.2-.1h.2v.8h.1l.2.3.5.6v1l.3.3.2.1v.4l.2.2v.8l.1.2v.3h-.1v.2l-.2.1v.1l-.1.1v.4h-.4v-.3h-.1l-.1.2v.3l.2.2.2.1h.1l.2.2.2.1.6.6v.4h.1v.2l.1.2v.6l.1.3v.1l.3.2.2.1v.3l.4.1.5.1h-.3v.2h.3v.5h.2v.3l.3-.4h.1V22h.2l-.3-.1v-.2h.1l.2.3.2-.1v-.1h.1l.2-.1v-.3l.2-.1v-.6l.2-.1v-.9l.1-.2v-.2l.2-.3v-1h.1v-.3h.3v-1.1l.3-.5.1-.8v-.8h.2v-.4l.1-.1v-.2l.1-.3v-.7h-.2v-.3l.3-.2v-.1l-.1-.2v-.2h-.2v-.1l.5-.3.2-.2V11l.2-.3v-.1h.2v-.3l.2-.1V10l.2-.1.2-.5.3-.1.1-.2V9l.2-.1v-.7l.2-.2.2-.5.2-.2v-.2l.2-.3v-.3l.2-.5.2-.3v-.3l.2-.1v-.6h.2v-.4l.1-.2.2-.5.1-.5.2-.1v-.1l.4-.5v-.1l.1-.1v-.6h.3V2l.2-.6h.2v.4h.3v-.5l.3-.2V.3h.3V0h-.4v-.4h-.2v-.2h-.4l-.1.3v-.5.3h-.2v.2-.3h-.2v-.1l-.2-.1-.1-.2h-.2v-.6h.4l-.3-.3-.2.3v.3h.2l-.2.1h-.1v.2h-.2l-.2.1-.1-.1v-.2l.5-.2.1-.3.6-.4.1-.3.2-.1v-.2l.9-.4h.2l.3-.6h.9l.6.5.2.6.5.2h.4v-.4l.2-.2h.3v.3l.1.2.6-.2V-3h.1l.2.4.6.1v.1l-.3.1v1l-.3.4v.6l.1.4.1.3.7.1V.2l.2-.4.4.5h.5l.7-.6.8.4.6.5h1v.2l-.2.2v.4h-.3v.2l-.2.2.2.3-.5.2h-.4L-55 2h-.3v-.2h-.1v-.1h.6l.2-.1-.1-.3h-.3l.3-.3h-.3l.2-.2h-.5l-.7-.2-.2.2h-.5l.1.4-.3.2h-.3v.2l.2.4h.8l.2-.4h.3l.3.5v.4h-.3l-.7-.1h-.4v.4l-.4.1-.2.4-.3.2-.2.2h-.3l-.2.3v.4l.1.6v.8l.3.2-.1.3h-.4l-.4-.5h-.3l-.2-.2h-.3l-.3.4.1.1.3-.2v.4l-.4.2.4.3v1.4l.2.2v.4l-.4.2-.2.5-.2.1h-1l-.3.1-.5.8h-.3l-.1-.4-.1.3-.2.1-.3.5.2.2v.4l-.2.4v.4l-.3.2-.2.8-.3.7-.1 1.2v.3l.4-.2v.4h.1l.4-.5-.4-.3v-.3l.2-.5.4-.1.1-.4-.2-.4.2-.7.1.2.3-.4v-.2l-.2-.4v-.4h.2l.6.3h.5l.9.3v1.2l.5.5.2-.5-.2-.3v-.4h.4l.2-.5.2-.1.3.8.2-.8v-.4l.5-.2 1 .4-.8-.5.3-.4h.7l.4.5.6.5.4 1 .4.3.3-.1-.4-.2-.2-.2-.2-.3-.1-.5-.2-.2-.4-.4-.4-.6v-.3l.6-.3v.2-.9l.5-.2v-.3l-.1-.5h.3l-.2-.5h-.2l-.6-.5 1-.6v-.5l-.3-.4v-.2h.3v.3h.3v-.5l.5-.2.3-.3-.2-.2.2-.2.2-.3.2.1v.1l.3-.1.1-.3h.3-.5l-.4-.6V3h.2v-.6h.2l.6-.5v-.7h.4v-1l.5-.8.1-.3v-.3h.6-.2l-.2-.3h.2l.2-.5.3-.2.2-.3.4-.3h.3V-3h.2-.1v-.4h-.1v-.1l-.3.2v-.5l-.3.3-.2-.4v.2h-.3l-.1-.5h.2v.2l.1-.1v-.2h.1v-.3h.2V-5h-.2v-.2h.4l.2.4h.9V-5l.1-.2h-.5v-.2h-.5l-.3-.2v-.2h-.5V-6l-.3.4h-.4v-.3h-.3l-.2.4-.4.3h-.3v.2h-.3l.2.3h-.2l-.1.2h-.2v.2-.2h-.2v-.2.3h-.1v-.4h-.2v.2h.2l.1.3h-.3l-.2.2v-.4h-.3v.3h-.1l-.2.1.4.3h-.4v.1h.4l-.1.3v.6l-.6.3-.3-.4-.1-.4h.4l-.3-.3-.2-.1-.2-.3h.7l-.3-.2v-.7l.1-.4.1-.6.4-.1.1.1v-1h-.3l.2-.2v-.2h.5v-.4l-.3.1-.5.3-.2.2v.2h-.3l-.2.5-.2.3-.2.1v.4l-.4.3v.6l-.4.2-.2-.1V-5h-.2v-.3l-.2-.1v-.3L-58-6v-.3l-.1-.2v-.1l-.1-.2v-.5.3h.2v-.4l-.2-.2v-1.2h-.2.4v-.3h-.1l.1-.2v.3h.3l-.1-.3h-.2l.2-.3h-.2.3v-.2h-.5v-.2h.2-.2v-.2l.2-.4h.2v-.4h-.2v-.6h-.1v.4l-.2.1h-.1l-.2-.3-.1-.1-.2-.2-.1-.2-.1.3-.2-.2v-.2l.2-.3.4.3v-.4l-.3-.1.2-.3-.1-.3.1-.3.3.2.2.2v.3h.1v-.3l.7.1.2.3h.2v-.4h.1v-.1l-.6-.3h.6v-.2h.4l.2-.1.1-.3h.3v-.1h-.4l-.1-.2h-.3v-.4h-.5l.2-.2h.2v.1l-.1-.2v-.3h-.3l.2-.3.1.2v.4h.3l.1-.4-.3-.2.2-.4h-.3v-.3h-.2v-.3h-.2l.1-.4.3-.1.1-.6h.3v-.2h.3v.5h-.2v.7l.5.1v.2h.1l.3-.1v.3h.4l-.2-.1v-.2h.4v-.1h.2v.2h.4v.2l.3.2.3.2h.3l.3.1h.4l.3.3h.1l.4.2-.2.2h.1v.4h.1l.2-.4.2.2.2.5-.2.3h-.2l-.1.2.2.2h.1v-.2l.3-.2.3-.3v-.3h.4l.1-.4.1-.1.4-.1h1.8l.2-.4.1.4h.7l.1-.3.3-.2.3-.5.2-.2.6-.2h.4l.1-.6h.3l.1-.3.2.3.6.3v.4l.1.3h.1v-.2l.2-.4h.4v-.2l-.5-.3-.1-.3.5-.3.3-.3.1.4h.4l.2-.2-.1-.4.3-.2h.2l.3-.4.1-.3.6-1.1.2-.3v-.3l.5-.5v-.2l.3-.5.3-.2.1-.2.2-.2.4-.5.4-.3.1-.4.5-.4.3-.6h.2v-.3h-.1v-.3h.3v-.5l.3-.2-.2-.3-.4.2v-.3l.8-.3h.3l.2-.4-.3-.6v-.2l.4-.3.1-.5.4-.3.3-.4-.1-.3.2-.6v-.7l.5-.1.2-.2.2-.1.2-.3.4-.2-.2-.3h.3l-.2-.4v-.5l.2-.7.3-.2.2-.4.1-.1h.3v.2h.2v-.1h.9v-.1l.2-.2h.6v-.3l.3-.4v.2l.2-.5.5-.6v-.1l.5-.5h.2v-.2l.1-.2h.3v.3l.2.1v.2h.3v-.2h.2v-.2l.4-.2v.3h.1l.1-.3.2.2v-.3l-.2-.3-.2-.3v-.1l-.1-.1-.3-.1h-.2l-.1.4-.2-.3v-.2l-.2-.3h-.2l-.3-.2h-.6l-.3-.5v-.4h.4l.6.2h.1l.4-.3h.2v.4h.5v-.4h.3l.3.1.1-.2-.1-.3-.2-.2h-.2v-.2h-.3v-.3l.4-.3.1-.1.3.1h.2v.1h.2v-.2h.2v-.3h.6v.3h.2v-.4h.8v.1h.5v.3h1v-.2l.2-.4.3-.1.3-.2v-.3h.4v-.7h.3l.1-.1v-.2h.2l.1-.1.3-.6.1-.1.2-.3v-.2h.3v-.1l.5-.8h.2l.4-.3v-.2h.5v-.2h.3l.1-.4.2-.2.2-.3h.3v-.3h.1l.4-.2v-.1h.1v-.4h.4-.2v-.1h.2v.3l.2-.4-.4-.1h-.2.3l.1-.2v-.1h.2l.3-.2v-.1h.1v.5l.2-.2v-.2h.2-.3v-.2h.2v-.1l.1-.2.2-.1h.3v-.3h.4v-.2h.3v-.2l.1-.1v-.1h-.3v.2-.2l.3-.2v-.3l.2-.3v-.2l.1-.2.4.2.3-.4v.2l-.3.2h-.6v.4l-.4.1v.1h-.1v.3h-.5.3v-.2h-.3.3l.3-.1v-.2l-.4.2h-.1v-.2h.3l.2-.1.3-.2h-.3v.2h-.4l.2-.2.2-.1.2-.4h.3v-.2h.5l.4-.2h.1v-.2h-.3v-.2l.2-.1h.2l.4-.2v-.1h-.2l-.3.2v-.2l.2-.2v-.4l-.1.4-.3.3v.5h-.1v.3h-.2v.1h-.3l-.5.1v.1l-.2.4-.2-.3-.4.5h-.3.2v-.3h-.3.3v-.2h.2v-.2h.4-.3l-.4.2-.2.1h-.2.3v-.3h.2l.1-.2v-.3l-.4-.3v-.1.3h-.2v-.5l-.2.1v-.1h.4v-.4h.2-.3l-.1.3h-.1v-.3h-.2l-.1.2-.1-.2v.6-.2l-.1-.2v-.4l-.4-.5h.2v.3h.3v.4-.4l.3-.2v-.6l-.3.4v.1-.2h-.8v-.1h.4l-.1-.1h.1v-.2h.1v-.2h.2v-.2h-.1l-.3.2v.2h-.5v-.2.2h-.1v.2h-.5v.1h.2-.2l-.1.1-.2.3h-.2v-.1h-.4v.2h.1v.2h-.2v-.2h-.3l-.2.3v-.4h-.5v.4l-.3-.3h-.1l-.2.1v.4h-.5.3v.2h.1v.1l-.1.1h-.2v.1h.3v.2l.1-.2v.2l.3.2h-.4v.1h.4v.2h-.3l.3.2-.2.1v.4h.1l-.1.4v.5l-.2.3v.4l-.2.2-.3.3v.4l-.2.2-.4.2-.3.4h-.3l-.1-.2v.4h-.2v.6h-.2l-.1.4v.1h.3-.3l-.1.3h-.2v-.3l-.2-.2h-.4v.2h-.4l-.1.2h.1v.1l-.4.2v.1l-.6.3-.1.2-.3.1h-.1v.1h-.3v.2l-.3.4h.3-.6v.4l.4.2-.2.2h-.3v.1h-.2v-.1h-.2v-.2h-.5v.2l-.3.2-.2.3v.1l-.1.2h-.2v.2h-.4v-.6l.3-.2v-.4h-.8v-.1h.2v-.1l.2-.1v-.2h.3v-.5h-.4v-.1l.4-.1h-.4l.2-.3h.2v-.2h-.3v-.2h-.2v-.1h-.2.1v.3l.1.1-.2.2v.1h.1v.3h-.4.2v.3h.2v.1h-.2v-.3l-.2.1v.1l.3.2h-.3v-.1h-.3v.2h.2-.4v-.4h-.2v.5h.2v.1h.3v.2l-.1-.2-.2.2h-.1v.4h-.2v.2h-.2v.1h.1l.3-.1h.2v.2h-.6v.2h-.2v.2h.2v.2-.3h-.5v.9l-.1.1v.2l.3.3.2.1-.1.3h-.3l-.3-.3-.4-.3-.2-.4-.1-.2-.4-.2v-.1l-.1-.1-.3-.1v-.3l-.2.1v-.2h-.1v-.2h.2v.1h.2-.3v-.3h-.1v-.2h-.1.5v.2h.4v-.1h-.2v-.4h-.1v.3h-.6v-.3h.3l-.3-.3.1-.2-.3-.2.2-.3h-.2l-.1.3v-.1h-.1v.3-.5h.1l-.6-.4-.1.3-.3-.2.1-.1-.1-.2v-.3l-.2-.1v.4h-.2v.2h.3v.2l.1.2v.3h.2l-.2.1v-.3l-.3-.1v.4h-.2.5v.2h-.3v.2h.3v.2l-.2.3v.2h.2v.1h-.4v.1h-.3v.3h.2l-.2.3h-.1v.1h-.8.3v.2h.5v.1h.1l.1.1v.2h-.2l-.2.1h.5v.2h-.3v.2h.3v-.3h.3l.2-.2v.3l-.1.1v.2h.3v.1l.1.1v.1h.4l-.3-.1v-.1l-.2-.2v-.1h-.2l.3-.3-.3-.1h.2v.2h.2v-.2.3h.2v-.3h.4v.3h-.2.2v.3h.2v.2h-.5l.3.2h-.2v.2h-.1l-.2.1v.1h.4l.1-.3v-.1l-.2.5h.3v.1h-.3l-.1-.1v.2l.2.1h.1v.6l-.2.1h-.2l.1.3h-.3v.4h-.4l-.2-.2-.1.2v.2l-.1.3v.4l-.6.3-.4.3-.5.2-.4.1.1-.3v-.2l-.5.1v-.2l.3-.2-.3-.1-.3-.4.4-.1v-.2l.1-.2h-.3l-.2.2h-.4.1v.5h-.3l-.1-.3h-.3v-.4h-.3v.3l-.1.1v.4h-.3v.1l.2.1v.2l.1.2v.4l-.2.2v.4l.2.2h-.6l-.2.2h.2l-.2.4h-.2l-.1.3.1.1v.5h-.3l-.1.1h-.3v.2l-.2.1.1.3-.2.2h-.3v.2l-.4.3v1.1l-.3.6-.3.4-.1.2-.2.3-.4.4h-.6v.5l-.1.3h-.3v.4h-.4l-.3-.4h-.3l-.2-.1-.4-.1h-.4l-.3-.1h-.3v.3h-.4l-.1.2v-.2l.2-.1-.1-.4-.2.2h-.4v.2h.4v.1l-.5.3v-.4l-.1-.2h.2l-.2-.4-.2-.1v-.4l-.5-.3h-.8l-.1-.3h-.2l-.3-.3-.2.3v.2h.2l.1-.1v.3l.2.4h-.2v-.2l-.3-.3h-.1l-.1-.1-.4-.1.3-.3-.3-.2v-.3l.3-.2v-.4h-.3v-.3l-.9-.1h.3v-.3h-.3v-.1l.3-.2-.3-.2v-.3l.6-.2.2.1.2.3.2-.1-.2-.4v-.2l.2-.1-.2-.1-.4-.2.1-.1v-.3l-.3-.2.3-.2.2-.5.1-.4.3-.3v-.5l.4.1.3-.2.3-.3h.1l-.1.5h.5v-.2h.5l.1.4h.2v.2h.3l.1.4v.1h-.4v.3l-.1.1h-.1v.2l-.2.2.3.1h.3v.2-.3h.2v-.3h.4-.4v-.3h.2-.1v-.2h.1l.1.2h.2v-.1h-.3v-.3h.3-.1v.2l.2.1v.4h-.2.1-.3v.4h-.2v.2h.3v.3h.4v-.2h.3v-.5h-.3v-.1l.2.2v-.2l.3-.1h-.2v-.2h-.3.3l.1.2v.1h.1l.2.2v.3h.3v.2l.1.2h.2v-1.5h-.4.2v-.2l-.2.1v-.3h-.2v.3h-.3l-.1-.4v-.1l-.1-.2h-.1v-.1h-.3v-.4h-.1l.2-.2h.3l-.2-.2h-.4v-.1h-.1v-.2h.2v-.2h.2l.4-.3.1-.1.2-.2v-.5l.4.3-.2.5h-.2v.4l-.2.1-.1-.1v.1h.1v.2h-.1v.1h.3v.2h.2v-.3l.5-.1v.2h.2l.2-.2-.4-.3.2-.2h.1l.2.2h.2l-.1-.3 1 .2v.3l.3.3v.1l.1.2h.3v-.3l.3-.1.4-.2h-.1l-.3.1v-.1h-.4v.2h-.2l-.3-1.1h-.7l-.2-.3-.4-.3-.2-.3-.2-.3h.2l.1.2.3-.1h.2v-.2l-.4-.3h.6l.2.3h.3l.2-.6-.7-.2h-.6l-.2-.2h-.1v.3h.2-.4l-.2-.1h-.3.4v.4l-.3.1v.2l-.3.1-.2-.3h-.2l-.2-.4-.1-.2v-.3h.2v.2l.3-.3h.4v-.2h.5l.1.1.2-.2h.4v-.1l-.1-.3-.6-.3h-.1v-.5h.2l.1.2.3.3h.8l.1.2.1.4v.2h.4l.1-.4.1.2.3-.3v-.7l.2.1v.6l.4-.2h.1l.2.3v.6h-.2l.2.2v-.2h.5v.3h.1v-.5h.9v-.6h-.4l-.2-.2h-.1l-.5.2-.5-.6h-.1l-.1-.5h.6v-.2h.1v-.4h-.6l-.4-.2h-.1v-.3l-.3-.2h-.5v-.4l.4.1h.6l-.2-.6v-.2l-.1-.1h.3v.3h.4v.3h.1l.3-.3.1-.1-.2.5h-.3v.1l.4.3.1-.3.2-.1v.2l.3-.1v-.1l-.1-.3.1-.1v-.5.3h.4v-.2h.1l.1.3-.2.1-.1.1v.2l.5-.1v.6l.2-.1v-.1l.1-.2.2.4h.2v-.1h.1l.4-.4h-.7l-.3-.2v-1h.4v-.4h-.1.4v.4h.3v-.2l.4-.2v-.1l-.4-.1h-.4v-.1h-.4l-.2.2h-.2v-.2l-.3-.2.3-.3h-.1v-.2l.3-.3v-.2l-.2-.1h-.5v-.2l.3-.1v.3h.2v-.3h.2v-.7h-1v.3h-.7l-.3-.3h-.3v-.2h.3v-.1h-.4v.2h-.6l.1-.3h.4l.2.1h.3v.2l.3.1.2-.2.2.2v-.2h.3v.2h.1-.1v-.4l.2-.2h-.2l-.1-.2.3.2.1-.4v.7h.1l.2-.2v.2l.2.1.1-.2.1-.1.2-.1h.2v-.2.4h-.3v.3h.2v.3-.3h.2l.1.2v-.1.4h.4v-.2l-.1-.2v-.2h.4l.1-.1h.1v.1l.5.2-.2-.4h.2l.1.1h.4v-.3l-.3-.1-.2-.3v-.5l.2.1v-.4h-.4l.4-.2v-.1h.6l-.2-.3.1-.1v-.4h-.3v.2h-.2v-.3h-.2v.3l-.2.2h-.1l-.1-.1-.2-.2-.1.2h-.1l-.2-.2v.2h-.3v-.1h-.5v-.1h-.1v.1h-.3v-.3h-.3v.2l-.2.2h.4l.1.4h-.4l-.6-.4v-.4h-.3v-.2h.5v-.2h.2v.3l.1.1.3-.2v-.3h.3v.3h.3l-.2-.3h.7l-.4-.3v-.2h-.1v.3h-.5l-.1-.3h-1.7v-.1l.4.1v-.2l.2-.1v-.1l-.5-.3-.2-.2h.7l.2.1h.5v.1h.2l.4-.2v-.2h.2v.4-.3h.3l-.1-.2h.1v-.1h-.2l-.3-.1v-.2h-.3v-.2h-.2l-.1-.2v-.3h.4l.1.3h.3v.1h.4v-.1h-.3v-.3h-.1l-.3-.1.3-.3.1.4h.2l.2-.1h.1v-.2l-.2-.2h.1l.1-.2v.2l.2.1h.1v-.1h.1v.4l-.2.1v.2h.3l.2.1v-1.2l-.3-.2h-.9l-.1.4h-.6v-.6h.3v-.2l.2.1h.1v-.3h.8v-.3h.1l.2.3h.1v-.7h-1v-.7l.2.1h.3l.2.2v.1h.5v-.3h.5v.5h-.4.2v.3h.3v.2h.5l-.4-.2v-.2l-.1-.1v-.2h.3l-.1-.1h-.2v-.4h.4l.1-.1h.1v.1h.2v.2l.1.3h.1v.4h.3v.1l.2-.2h.2v-.3h.8-.3v-.2h-.3v-.2l-.1-.1-.2-.2-.3.2-.1.2h-.2l-.1-.2v-.6h-.9v-.1.2l-.4.2h-.1l-.3-.2v-.2h.5l-.3-.2v-.4l-.4-.2-.3-.6h.1l.2-.1.1.1h.1v.4-.1h.8v.6h.3v-.4h.1l.1.1h.1v.3h.2v-.3h.4v.3h.2v-.3h.1l.2-.2h.2v.2-.2h.4-.6l.2-.1h-.3l-.3.3.2-.3v-.1h-1l-.3-.2h-.2l-.3-.4h.3v-.3h-.5v-.2h-.3l-.1-.5.1-.2h.1v.2h.4v-.4l.3-.2v.5l-.3.4h.3v-.3l.1.4v.1h.1v-1l.3.2.1-.1v-.2h.1v.2l-.2.2v.3l.1-.1.2.3v.2-.1h.2v-.4l-.3-.1v-.3h.3v.2l.3.1v.1l.2.1h.1v-.1l-.1-.1v.1-.1h-.2l-.1-.4h.8v-.3l-.6-.1v-.5h.4l.2.3v-.4h.2v.3-.2h.3v-.2h.2l.2.1-.3.2v.1l.4-.1.1-.2.3.3-.1-.3-.2-.1-.2-.1v-.1h.2v-.4l.3-.2h-.3l-.1.4-.2.1-.3-.1h-.1l-.1-.2h-.1v.2h.2v.2l-.7.3-.3-.2-.1.1-.4.2v.1h.5v.3h-.6v-.2l-.4.2-.2-.1h-.2l-.3-.1v.2h-.4v-.6l.5.2.3-.1h.2l.1-.1v-.2h.3v.3-.1h.3v-.2l-.3-.5h.3v.2h.3v.1h.1v-.3l.2.2.2-.2.2-.2h-.4l-.1-.1h-.3v-.4h-.9l-.3-.1v-.3h.5v-.9l.3.3-.3.2v.2l-.2.2v.2h.3l.1-.2.3.3v-.4l.2.3h.1v.2h.1v-.3l.3.4.1.1h.2l.1-.2v.4h.4v.1h.5v-.3l-.3-.1v-.1h.1l.2.1h.5v-.3h.3v-.1l-.6.1h-.2v-.4h.3v-.1h-.3l-.3.3h-.1l-.2.2h-.2l-.6-.3-.1-.2v-.3h.2l.2.2.1.1h.4v-.1l-.2-.2-.7-.6h-.3l-.2-.3-.2-.1h1.3v-.2l.2-.1v.3h-.2l-.1.1v.2h.2v.1h.2v-.3.4h.1v-.5h.3v.2l.1.2h.1v.2-.2h.4v-.3l-.4-.2-.1-.4-.2-.1.1-.2h.1l.2-.1v-.6h.4v.5l-.5.2v.4h.4v-.2l.2-.1v.2h.2v-.4h.5v-.1l-.3-.3v-.4h.2l.2-.1v-.7h.2v1.8h.1v.1l.1.3.2.3v.3h.2v.3h.1v.4l-.3.2-.2.2v.4l.2.2.1-.5v-.3h.1l.1-.2v-.5l.2.2v-.1l-.2-.5v-.1l-.3-.3h.3v-.3h-.2v-.3l-.3-.4h.6v-.4l.1-.1v-.2l.1.2v-.3h.4l.1-.2h.7-.3v-.3h-.7l.3-.1h.1-.2l-.2.2h-.3l-.4.1v-.1l.2-.4v-.4l-.1-.1-.3-.2h.3l.2-.3h.2l.3-.1v.2h.4v-.8h.2v-.1h.3v.2h.2l.1.1h1.2v.4l.2-.2v-.1h.7v-.3l-.2-.3v-.1h-.8l-.2-.2v-.5h.2v-.3l-.2-.2v-.3h.1l-.1.1.2.2h.8v-.4h.2l-.2.4v.1h.7v-.2h.8l-.3-.1.1-.3v-.2h.5v-.1l.2-.2h.2v.2h.5v-.4h-.2v-.1l.5-.2.2-.2v-.1h.1v.2h.4l.1-.4v-.2h.2v-.2h.2l.2.4v-.2l.3-.3h.6v-.3h-.5v-.3l.2-.2h.2v-.2h.1v-.3h.2l.2.3v.1l-.3.2-.1.1v.1l.2.2h.5v-.5h.3v-.1l.3-.1.2-.3.3-.4.3-.2v-.4h.2v-.1l.1-.2h.1l.2-.2-.1-.3v-.2l.1-.3v-.4h.1v-.1h.5l.2-.2v-.2h.2v-.3h.1v-.1l.2-.2v-.5.3h.3l.2-.6-.4.8v.4l.2.2v.2h.1v.1h.3v-.7h.1l.2.1h.2l.1-.1v-.2l-.3-.2h.2v.2h.5l.3-.2v-.1l.5-.2.2-.2.2-.1h.8v.2l.3-.1h.1l.2.2v-.2h.4l.2.2.1.3v.2h.1v.1l.1.2v.1h.2v.3l.1.1v.2l.2.2h.1v.3h.2l.1.3h.2v.2h.2v.3h.2l.2.4h.1v.4h.4v-.5h.2v-.4h.1l.2.2v.3h.1l.3-.3h.1v-.2h.2v-.2l.4-.1v.2-.3h.4v.3h.2v-.1h.1l.2.2v.6h.2v.6h.2v.4l.2-.3.2.2.1.1.3.1.2.3h.6v-.1l.2.1v-.1H-9v-.3l.4-.2.1-.1.1.3v.3h.3v.2h-.2v.3h-.5l-.4.2h-.1v.1l-.2.1-.1.3h-.4v-.2l-.2.1-.4.2h-.1l-.3.2.2.2v.3h-.2v.4h.5l.2.1v.2l.1.1h.2v.2h.2v.2h.4v-.4h.2l.2-.1v.4l-.3.1v.3l.3-.2.2-.3h1l.2-.1h.1l.3.2h.4v.1h.6v.4h.6l.1-.4-.1-.3-.2-.2v-.4H-6v-.5h-.2v-.1l-.1-.1-.1-.5v-.2l-.1-.2v-.1l-.2-.3v-.1H-7v-.2l.3-.1v.3h.4v.4l.5-.3v-.3H-6v-.3h-.2v-.3l.5-.2h.1l.2-.2h.4l.2.2.1-.4h.2v-.3h.1l.2.1v.6h.2v.2l-.2.1-.2.2h-.2l-.1.1H-5v.1l.2.3v-.3.7l.1.1h.1l.2-.2h.2l.2-.2.3.2v-.4h-.1l-.2-.3v-.2l.1.2h.3l.1-.1h.3v-.3l.2-.3v-.9l.2.3h.1l.3.2v.7l-.5.2h.4v.9h.2v-.5l.1-.1.2.2v.2h.2v.1l-.2.3h-.2v.1l-.1.3-.5.1.2.3v.3h-.2v.3h-.6l-.1-.4h-.3l.2.3v.1h-.6v.4h-.3l.2-.1h-.1l-.2.3v.1h.3v-.1.3h.1v.1h.2v.5h.3v-.3l.2.4v-.4l.1.3v.1h.2v-.2.5h.2v.2h.7v.1h.2l.1-.2v-.5l.3-.3.1.1.2.3.3-.2v-.1h.1-.2v.3l.2.2h.1v.2h.2v.4-.2h.1v.1-.3h-.3v-.1l.3-.1-.2-.2h.3v.4h.2l-.1.3H0l.2-.1v.1l.2.2v-.7l.2.3-.1.1-.2.2.3.1.1.1H.4l-.1.2h.2v.1h.1l.2.3H.6l-.1.2v.1h.1v.3h.1v.2H.4l.5.1v.3H1v.9H.8v.3l-.3.3H1v-.3l.2-.3.1-.4-.1-.1v-.7l.2-.1v-.4l.2-.1v-.3h.1v-.1h.2v.4l.1.3h.3l.1-.4h.3v-.5h-.3.4-.3v-.1h-.1v.2h-.2v-.2h.3v-.2.3h.1v-.3h-.4v-.4H2v-.1h.1v.2h.4l-.3-.4H2v-.1h.1v-.2l-.3-.3v-.5h-.5l.3-.2v-.3h.1v-.2h-.2v-.4h.3v.4l.2.2v.3l.5.4h.1l.3.6H3v.3l.3.2H3l.3.3-.2.2h.4v.4h.3l.2.1v-.3h1.2l.2.2.1.3v.7h-.3v.6h.2v-.2h.2v-.4l.3-.4h.2l.1.1.2.3.2.4v.4h-.3v.1l.3-.3h.1v-.2h.1l.2-.3.2-.2h.4l.1-.3h.2l.2.2.2-.2H9l.1.3v.7l.2-.2.1-.1v-.2l.1-.1h.2v-.3l.1-.1.6-.4h.1l.2-.3v-.2l.2.3v-.4h.3v-.2h.1v-.2h-.4l-.3-.1h-.2l-.1.3.4-.3h.3v-.3h.3-.3v-.3l.4-.3h-.1l.1-.2h.3v-.2h.2v-.2h-.3v-.2h.2v-.3h.1v-.7h.3v-.1h.2v-.3H12v-.2h.3v.2-.3h.2v.5h.1v-.8h.1l-.2-.1-.2.3h.2v.1l-.3-.3h-.1v.2l-.1-.4h-.1v-.1h.1v-.1h-.2v-.2h-.1v-.2h-.2l.1-.1-.1-.1h-.1v-.4l-.3-.1v-.3H11l.2-.1v-.2h-.4v.1h-.2v.2h-.3l-.2.2-.1.1v-.1h-.1v-.2l-.2.3v.1h-.2l-.3.2-.2.4-.6.2-.2.3H8v-.2l.2-.1.1-.2h.1v-.3h.3l.1-.1v-.1h-.3.2v-.3l.4-.3v-.1l-.4.1H9v-.4h-.3.6l-.1-.2h-.4v-.3h.4v-.3l-.2.1v-.1l-.2-.2h-.1v.5h-.1v-.5h.2v-.2h.1v.2h.2l-.1-.2v-.1h.5v-.2h.3v-.3h.2v-.2h-.2l.3-.1v-.2l.3-.1v-.2.1l-.3.1-.1.1v.1h-.3v.5h-.2v-.2h-.1l-.1.3v.1h-.1l.1-.2v-.1l-.2.1v-.1l-.1-.2v-.2h-.3v.3H9v.1h-.3v.2h-.1v-.4l-.1-.1h.1v-.3h-.1l-.2.2v.2H8v.5-.2h-.3v-.1.2h-.1v.1l-.1.2v.1h-.1l-.2-.3v-.3.3H7l-.2.3v.1l.2-.2v.3l.1.1h-.2l-.1-.3h-.2v-.1l-.1.2v.1h.3-.3v.2H7v.1h-.4v-.2h-.2v-.3h-.2v.3H6v-.4l-.1-.1v-.4.3l-.2.1v.2l.3.1v-.1h-.4v-.5h.3-.2l-.3.2.3-.4h.1-.4v-.5h-.1v.1l-.1.1h-.5v.1l-.3.1h-.2v-1.3l.1-.3v-.4l.1-.1v-.4l-.4-.3.3-.3v-.4l.1-.1h.2v-.1h.3v-.5H6l.3-.3v.2l.2-.2v-.1h.3v-.2h-.4l-.1.3h-.9l-.3-.4-.1.2h-.4v.2l-.1.3H4l-.1-.1h-.2l-.1-.4h-.9v-.2h-.1v.2h-.1l.2.2h-.3l.2.1-.2.1v-.2l-.1-.3-.3.3v.2h-.3v.1l-.2.1v.1h-.1l.1.2h.2v-.4H2v.7h-.3v.1-.1h-.2l.2.2h-.4v-.2h-.2v-.2H1v-.2l-.2-.2v.5H0v-.2h-.2v-.2h-.2v-.3h.1v-.1H0v-.1h-.3l-.1-.2h-.1v-.2h-.2v-.8h.3v-.1h-.2v-.2H-1v-.5h.2l.2.2v.3l.2-.3.1-.2h-.3l-.2-.1v-.2h-.7l-.2.3H-2v.2l-.2.3v.3l.2.2h-.3v.2h-.1v.1h-.3v-.2h-.1v.3H-3v-.1h-.3v.2h.3v.3h.2l-.4.2h.4v.5l.2-.3v.3H-3v.8h-.3.2-.3v.1l.1.2v.2h-.2v.2h.2v.2l-.2.3-.3.2h-.5v-.2h.1l-.2-.2h-.3l-.2-.2v-.4l-.2-.3h.1l.2-.1v-.4h-.4v-.4h.2v.2h.2v.2h.1v-.4h.2v-.1l-.3-.3.3-.1v-.4l.1-.2v-.1h-.3v-.2h-.2v-.1h-.7l-.2-.3h-.4v.3h-.3l-.2.2v.2l-.2-.1v.4h-.3v.3h.4v.3h.1v.1h.2v.2h.5v-.3h.3v.3h.2v.1l-.4.1-.1.2v.2h.2v.2H-6v.2h.2v.2h.1l-.1.1H-6v-.1h-.2l-.1-.3h-.5v.3h.1v.1l-.1.1h.3v.6l-.2-.2v.2h-.2.2v.4h.1-.4v-.1h-.4v.1l.3.2h-1.1v.2-.2H-9v-.2l-.1-.3h-.2.2v.3h-.5v.4h.3l-.2.1h-.5l-.3-.1v-.4l-.2-.2v-.2h.3v-.1l-.2-.1v-.2h-.2v-.2h-.1v-.3h.2v-.2l-.1-.2h-.1l-.1.1h-.2v.3l.2.3v.3l-.4.1-.3.1v.2h-.1v.2h-.4v.1l-.2-.1v.3l-.1.2-.3.2v.2h-.1v.2h-.3v-.5h.3v-.2h.3v-.1h-.4v-.4h.2v-.2l-.1-.1h-.1l.1-.1v-.2h-.3v-.2l-.3-.2h-.5v.2h-.5v.2h-.5v-.3h-.1l-.4.3.3.2v.2h.2v.2h-.4l-.1.1v.2h-.3v-.1l-.1-.1h-.7l-.1-.1h-.2l-.2-.3.1-.2v-.3h.6v-.3h.2v-.3h.7v-.4h.3l.1.3.4-.1h.1v.3l.3.1v-.6l-.5-.1-.1-.2h-.6l-.2-.2-.3.2h-.2v-.3h.3l.1-.2v.3h.3l.3-.2v.1h.4v.2h.1v.2h.5v-.6h-.4.4v-.2h-.2l-.2-.2h-.3v-.2h.3v-.4h.3l.1.4v-.6h.2v1h.1l.1.1.1.3h.3v-.4l.2-.3v.3h.1v.1h.2v-.4h.3v-.3h-.4v-.1h-.2v.1h-.1v-.4l.1-.1h.3l.1.1h.3v.2h-.2.1v.2l.1.1v-.2h.1v-.1l.2-.2h.1v.3h.4l-.1-.3v-.3h.3v-.2h-1v-.1h-.5v-.2l.2-.1h.2v-.4h.2v.5h.2l.2-.2h.2v-.2h-.4l-.2-.1h-1.3v-.1l.2-.1v-.3h.3v.1h.8v.2h.1v.2l.3.1.5-.1h.4l.1-.1.2-.3v-.1h.4v-.4h.1-.4v.2h-.1v-.4l.4-.1h.2v-.3h-.2v-.2h-.2.4l.3-.1-.3-.2v-.1h.1v-.6h-.3v-.1l-.2-.1-.2-.6h.6v-.2h.2l.3.2v.3h.4v-.4l-.4-.3v-.2h.2l.1.1.2.5h.2l.1-.2.4.3h.1l.1.2v-.3h.2v-.2h.2v-.3h-.5v.1h-.3v-.6h.1l-.1-.2v.1l-.2.2h-.1v-.3l-.2-.4v-.1h.6l.4-.2h.2v.2h.3v.4h.1l.1-.2h.3l.1.2v.1h.3v-.7l-.2-.3.2-.3v.3h.6v.2h.2v-.2h.6l.2.1h.2v-.3h-.5l-.1-.5h-.5v.3H-6l-.2-.3v-.4l.3-.2h.2v.3l.1-.2.3.2-.1-.3v-.2h.3v.2h.1v.3-.9h.6v.3h.1v-.5h-.4l-.5-.2v-.5h-.4l-.1-.4h.7l.2.2v.1l.4.1-.3-.4.1-.1h.3v.1l.2.4.1.2h.8l.1-.2h.2v.2h.3v-.1h.3v-.5l.1-.1.2.2v-.5h-.4l-.1-.2v-.2h.3v-.2H-3v-.3h.3l-.3-.5.3-.3.1.1.2.2-.3.2v.1h.3l.1-.1v-.2h.4v-.3l-.2-.1h-.1v-.3h-.2v-.1H-1h-.3l-.1-.2-.3-.1h-.2v-.3H-2h1v-.3h.5v.2h.3l.2.1h.2v.1h.2v.3h.1v-.5h.1v-.4h-.8v-.3H0l.2-.1h-.4v-.2h-.2v-.1h.3l.2-.1h.3v.4l.1-.2.2.1H1v-.6H.5l-.1-.1v-.2l.2-.1h.2v-.4l.4-.2.3-.3v.3h-.3v.2h.6v.1h.7v-.1H3v.2-.2h.5H3v-.3l-.4-.2-.1.1h-.4v-.4H2l-.2-.4h.3v-.3h.5v-.1h.1v.4h.1v.1H3v-.5h-.3v-.4h-.3v-.2h.3v-.2H3v.1l.2-.2v.3h.2v-.3l.2-.1.1.1v-.2l.3-.1v.1-.1h-.2v-.2h-.2l-.2.2-.2-.4h-.3.3v-.4h.5v-.1h-.3l.4-.3H4v-.6h.3v-.2.6h.1l.3-.3v-.4h.2l.1.1h.1l.2.1-.1-.2h-.3v-.3H5v-.5h.5v.3h.2v-.4H6l.1.2h.1l.2.2v-.2l.2-.2v.2h.2v-.1H7v-.3h.6v.3h.2v.4h.1l.3.2-.2.4h-.1l-.1.2-.1.1h-.4v.2h.3v.4h.1v.3h.1-.2v.3l.3.2.1.2v.3l.2.1v.2h.2v.4-.2l.1-.5v-.2h.3v-.2l.3-.1h.1l.2-.4v-.1h.2v-.4h.2v-.3h.2l-.2-.3h.2v.8l.5.5h.7v-.4H11v-.3l.3.4h.2v-.1h.5v.3h.4l.2.1v-.2h-.4l.2-.3v-.2h.2l.1-.3h.5v-.4h-.5l-.4.4-.3.4h-.4l-.7-.4v-.3h.1v-.3.1-.4.4-.2h.2v-.3h.2v-.7H11v-.6l.7-.1v-1h-.2v-.1l.1-.1v-.2h-.2l-.1.2h-.1v-.2h.1v-.3l-.1-.2h-.3l-.1-.1h-.2v-.2l-.3-.2-.1-.3h.7l.1-.2h.3v-.3l.1.2v-.2h.5v-.2l-.2-.2v-.2h.7v.6l-.1.3v.1h.3v.2h.1v.4h-.2v.5-.2h.3l.2.1v-.4h.3v-.2h.6v.3h.1l.4.2v-.5h-.1v-.2h.3v-.1h-.3v.2l-.2-.2h-.3v-.3h.3v-.2h-.5.2v-.3h.4l-.2.3v.2h.4v-.4h.4v-.2h.1v-.3h.1v-.1h.1v-.1l.3-.2h.2v-.2h.2v-.3h.2l.2-.1v-.2l.5-.2.1-.3h.4v-.2h.3v-.5h.2v-.3l-.2.2v-.2l.1-.2h-.2v-.1h-.1v.5h-.1v.1h-.4v-.3h.2v-.2h.3v-.2h.3l.1.2.2-.2v-.1l.1-.1v-.7h.6v-.4h.1l.1-.3v-.1h.7v.2-.2h.2l.1-.2h.1l.2-.1v-.2l.3-.1v-.5h.2v-.2h.1v-.2h-.1v-.1l.4-.3v-.3l.2-.2.2-.1v-.1l.2-.3v-.2l.2-.1v-.4l.2-.1v-.5h.3v-.2h.2v-.1h.2l.1-.1h.2l.1-.1v-.2l-.1.1-.1-.1v-.8h.3v-.4h.6v-.2l-.3-.1v-.1h2.1v-.4h.1v.4-.2h.2v-.2h-.2l-.1-.2h-.8v-.1h-.2l-.3-.3h-.1v-.2l-.2-.2v-.1h.3v-.6H24v.4h-.4v-.4h.2l.2-.1v-.2h-.3l.3-.2v-.2h-.2v-.2.3h-.3v.1l-.1-.2v-.1h.4v-.2h-.4l.2-.2h.2v.1h.1l.1-.2h-.1v-.3h-.2.3v.1h.2l-.2-.1v-.1h.2l.2-.2h-.3v.2h-.3.3v-.4h.3v-.2l.1-.1v.1h.2l.3.5.2-.2h.3l.7-.3h.3v.3h.1l-.1-.2-.1-.2v-.2h-.2v-.4l-.1-.1v-.2h.2v-.1l-.3-.1v-.2h-.1l-.1-.2h-.2v-.2l.4.3v-.4l-.3.1v-.6h.3v-.6h.1v-.4H26h.2v-.1h-.1l.1-.1v-.3h.2v-.1l.2-.2h.2v.2h.4v.4h.1v-.4h.1v.2l.1.2h.4v-.3l.3-.2-.2-.1v-.5l-.3-.1v.3-.1h-.2l-.1-.1h-.1l-.2.2H27v-.2h-.2v-.2h.2v-.1h-.3v-.1h-.3v.1h-.2v-.2.2H26l-.2.3v.5h-.3l-.1.1v.1h-.1v.1h.2v.2l-.5.2h-.3v-.1l.1-.4-.2-.3.2-.3v-.2h-.2v.3l-.2.3-.3-.3v-.7H24v-.1h-.3v-.2h-.2.1v-.1h-.1v.4h.3l.1.2v.6h.4v.7H24v.1l-.2.3v.3l-.1.2-.2.1v.2l-.2.2h-.1v.3H23v.1h-.8v.4l-.2-.3h-.5v.3h-.1v.4h-.2v.1l-.2.2v.2h.2v.1l-.2.1h.2v-.3h.2v-.2.2l-.1.1v.1h.1l.1-.1.1.1v.2h.3v.3h-.4v.7l-.2.3v-.2.2h-.1v.2l.3.2v.2H21v.1h.3v.1l.1.2v.6h-.2v.4H21v.3l-.4.4v.1l-.2.4-.1.2v.6l-.1.1-.2.3h-.1v-.2h.1v-.2h-.2v.2h-.3v.2h.3v.4h-.2v.4l-.1.3-.1.3v.2l-.3.3-.1.2h-.2v-.5.4-.2h-.2v-.5h-.1l-.1-.1v.3h-.1v-.1h-.2v-.2h-.2v-.2.2h.2v.5l-.1.2v.3l-.3.2v.2h-.2v.2h-.2v.2h-.1v.2l-.5.2-.1.2v.3h-.3v.3h-.2v.2l-.1.1-.2.1h-.1l-.1.1H15v-.1h-.5v-.3l-.1-.1v-.1l-.2.2v-.3.3l.1.3v.5l.5.2-.2.3v.5l-.3.2-.4.2h-.3l-.3.1v.3l-.2-.2-.1.3-.1.3v.3h-.2v.3l-.1.3h-.2v-.3h-.2v-.2l-.1-.1-.1-.2v-.2h-.7v.1h-.1l-.2-.1v-.2h-.2l.1.3v.5h.1l.3.2h.1v-.2h.3v.4l.2.1v.3l-.3.3h-.5l-.1.1h-.3v.1h-.1l-.2-.1h-.1l-.3.1v.5l-.2.2-.3-.2v.2h-.3l-.2-.4v-.4l-.3-.2-.3.5-.1-.3-.1-.2v.4h.1v.2h.5v-.4l.2.2v.2h-.4v.2H9v.6h.3v.2l-.3.2v.6l-.1.3v.8h-.5v.3h-.2l-.4-.2h-.1l-.2-.3h-.3v-.1l-.1-.1v-.3h-.3v-.1l-.2-.1v-.1h.2v-.3l-.2-.2h-.2l-.1-.2v-.3h.3l.2-.1v-.4h.1l.1.2.1-.1h-.3v-.1l.4-.2H7v-.1.1h-.2l-.1-.2v-.1l-.2-.2v-.2h-.1v.7h-.3l-.3-.2-.1.2.1.4h-.3v.5l.1.1v.1h.2v.3h-.4l-.3.1v.2h.2l-.3.1v-.1h-.1v.1h-.2v.2l-.2.1-.1.5H4v-.3h-.1l-.4.2-.2.2H3v-.5h-.6l-.1-.4.2-.2v-.1h.7v-.7h-.1v-.6h.4v-.2l.3-.3v-.1h-.2l-.3.3H3l-.2.1h-.3l-.1-.2-.2.2H2v-.1l-.4-.1h-.1v.2h.1v.2h.3l.3.2h.3v.2h.3v.2l-.2.1-.1.1H2v.6h-.8l-.1.1v.2h.7v.4h-.5v.2h-.2l-.4.1H.5v.3H1v.1l-.5.5H.3v.5h.4l-.2-.2h.3-.2v.6H.4.6v-.4h-1v-.2l-.5.2-.1-.5v-.2l-.1-.3-.2-.1h-.3l.1.2v.3l-.3.1v.4H-2h.4l-.4.1v.6h.2l.1.2h.3v.2l.3.2h.1v.2l-.2.1-.2.2.3.2-.1.1-.3.2-.1.2h-.2v.1l-.2.1h-.2l-.2-.1h-.8v-.5l-.2.2v.1h-.2l-.3-.3v.3l.2.1.1.2-.2.2h-.4v.2h.4v.3h.1l.1.2-.1-.3v-.2h.3v-.3h.2v.3h.6v.5l.2-.2v.1l-.5.3v.3h-.5l-.3.2h.3l.1.3h.2v.1H-4v.1h-.6v-.2h-.6l-.2.1v-.1l-.5-.1H-6l-.2.4h-.3v-.6h-.7v.3l.2.1v.2h-.3l-.1.2h-.4l-.2.2-.3-.2-.1-.2H-9l.6.2.2.1v.2h.5v-.1h.5v-.2h.2l.2-.3.2.3.3-.2v.2h.3v-.2h.6l.1.2v.3h.3v-.3l.2.3v.6h.2v.2l-.4.2v.2l-.4.2h-.2l-.1.2H-6l.2.1v.2H-6v-.4h-.2l-.3.2h-.6v.4h.1l-.1.3h-.2l-.3.2.2.2-.3.2-.2-.1v.4l.2.3-.3.2-.3-.1-.1.3H-9l.2-.6v-.3l-.3-.2-.4.1-.3.3h-.2l-.2.4v.4l.4.1.2.3.2-.2h.4l.2.4h.8l.1-.3h.3l-.2.3-.2.4h-.4l-.3.1-.3-.3h-.2l-.1.2h-.9l-.1.1h-.1l-.3-.3h.4v-.7h-.5v.6h-.6v-.1l.2-.4-.2-.2-.3-.1h-.3v-.1h-.2v.6l-.5-.1v-.7l-.1-.1-.4.2-.5.2h-.5l-.1-.1-.5.1v.3h-.2l-.2.4h-.5v-.4l-.3.3v.2h1v.4h-.4v.2l.1.3h.5l-.3.6v.3l-.1.6v.2h.2l.2-.3v.5h.3v-.2h.2v.5l-.2.1v.2l-.1-.2-.2.1h-.2l-.2-.2h-.1v.2h-.5l.1-.4h.4l-.1-.2v-.1h-.8l-.1-.2-.3.5-.1-.4v-.2h-.1v.3l-.2.3h-.5v.3h.8v.1h.2v.2h-.5l-.2.2h-.8l-.2.2v-.2l-.1-.3-.2-.1v-.8h-.5v.2l.4.1-.2.3v.6h.1l.3.2v.1h-.1v.8h.3v.1h.4l-.2.3h-.5v-.3h-.3l-.2-.4-.3-.1h-.1l-.2-.2h-.2v.3h-.5l-.3.1h-.4l-.2.2h-.3l-.3.1-.2.1h-.2v-.5h.8v-.2h.4v-.4h-.1l-.2.2h-.5v-.2l.2-.1h-.3l-.2.4h-.2v.2h-.3v-.2h-.1v.3h-.2l-.4-.1h-.2l-.2.2v.3h-.5v.3h-.2v.2h-.1v.2h-.5l-.3-.3h-.3v-.4h-.2l-.4.2-.3-.2h-.2v-.4l.1-.1.1-.4v-.2h-.5v-.3h-.1v-.6l-.2-.3v-.2l.3-.2v-1.3l.2-.2h.1l.3-.2.4-.4v-.3l-.3.2-.1.3-.2.2-.4.1-.4.2v.8l-.1.2-.2.1v1.6l.2.2-.2.2v.6h.2v-.4h.4v.3l.1-.2h.1l.1-.2h.2v.4h-.4v.8l.3.1-.1.1-.2.1h-.1l-.2-.2-.2-.3v-.1h-.5v-.3l-.3-.1h-.2l-.2-.2h-.1v.3h-.2v.3h-.2v.3h.6v-.2h-.3.4v.4h.3v.1l.2.1v.2l.1.1h-.8.3v-.1h-.6v.1l-.3.1v.1h-.6v-.1l-.2-.4-.1.1v.2h-.3v-.3l-.1-.1h-.3v.1h-.1v-.3h-.2v.4-.3l-.2-.1h-.1v.1-.1h-.5v.6-.1h-.2l-.1.2-.2-.1v.3h-.1v.3l-.3.1v-.1.2h-.5v.2h-.4v-.6h.3l-.3-.2v-.1h-.2l.4-.3v.5l.2-.3v.3h.3v-.3h-.3v-.4l.4-.1-.3-.2.3-.3v-.2h.1l.1-.1.3-.2v-.5l.2.2h.1v-.2h.2v-.3h.5v-.2h.2v-.5h-.5v-.2h-.1l.3-.2v-.2l-.2-.1v.5h-.2v.2h-.2v.3h-.1l-.2.2h-.3l-.3.3-.1.2-.2.1v-.5h.1l.1-.1h.2v-.4h-.3v-.2h-.2v-.2h-.4v.3l-.1-.2v-.2h-.2v.2h-.2v.2h-.2v.1h.4v.2l-.4.2h-.2v.2l.1.1v.1h-.3l.2.2-.4.2h.2v.6h-.3v-.7h-.2v.3h-.4l-.1.2h-.4l-.3.3h-.3l-.2.3h-.2l-.2.3-.4-.3v.2h-.3l-.1.1-.1.2h-.5v-.1l-.1.3-.5-.2h-.1v.2l-.1.2-.4.1-.2.2v-.3h-.2v-.2.3h-.6v.1l.2.1h-.3l-.1.2-.2-.2-.4.2h-.6v.3h-.3l-.1-.3-.3.3-.2.1-.1-.1h-.4l-.3.1-.4.2v-.3l-.2.1h-.1v.1h-.4l-.1-.2h-.2v.2h.1l.2.1v.5h.6l.1.2v.2h-.3v.1h-.4v.4h-.1v.4h-.5v.3h-.5v-.5l-.2-.1v.2h-.2v.4h-.5v-.4h-.6v.3h.2v.1h.1l.2.1v.2l.2.3v.3h-.4l.2.3v.6l-.2.2-.1.2v.5l-.1.1-.1.3v.3h-.2l-.6.2-.2-.2v.2h.1-.6l-.2-.3h-.6v-.3h-.1v.4h-.2l-.3.1v.3h-.3v.4l-.3.1v.3h-.2l-.1.8v.2h-.2v.2l.2.2h1.3v.2h-.4v.2l-.1-.2-.1.3h-.1.3v.1h-.9l.2.2h.3-.2l-.3.3h-.2.7v.2h-.4v.2h.7v.4h.2v-.3l-.2-.1v-.4h.4v.5h.2v.3h.4-.3v.2h.5v.1h-.3v.1h.3l-.2.3h.4v-.4l.1.4.1-.3v.3h.1v.2h.3v.1h-.3l-.1.3h-.2v-.4.1h-.4l-.2.3v-.3.5h-.4v-.2l-.2-.2v.2h.2v.3l-.3-.3h-.8.4v-.2h-.3.2v-.1h-.2v-.2h.4v.1h.1l-.1-.2.2.1h.1v-.3.2h-.3l.2-.3h-.2l-.1.3-.4-.3.3.3h-.3v.4h-.1v.3l-.2-.2v.1h-.3v-.2h.4v-.1l.1-.1v-.2h-.1l-.2-.1h.3v-.4l.2-.3h-.2v.2l-.2.2h-.1v.2-.2h-.3.2v-.1l.2-.1v-.1h-.3v.5h-.4l.3-.2v-.3h-.6v-.7h.3l-.3-.1h-.3v.2h-.4v.2h-.6v.1l-.3.1v.4h-.2l-.1.1-.1.2v.2h-.2v.2h-.2l.1.2h-.2v.1h-.1v-.3l.2-.1v-.4h-.6v-.1h-.5l-.3-.1h-.6v.3h-.1v.2h-.2v-.5l-.1.3h-.2v-.1h-.1v-.5h-.3v-1.7h.3v-.2l.1-.5h-.5v.2h-.1v.1h-.1l-.3-.2h-.2l-.1-.1h-.1v-.3h-.3v-.3l-.3-.2h-.3l-.2.3h-.6v-.3l-.1-.2v.5l-.3.1v.3h-.4v.3h.5-.3v.2h.2v.2h.2v.4h-.6v.4-.2h-.3v-.3h-.1v.3-.2h-.2l-.1.1v.4h-.1l-.2-.2h-.6v.3h-.2v-.4l-.2.3h-.1v.2h-.9v.3h-.1l-.3.2v.1h-.4v.2h-.2l-.1.1h-.3v-.1h-.3l-.4.4h-.4l-.1.2h-.5v-.3h-.2l-.2.3h-.4l-.1.1h-.5v.2h-.6v.1h-.2v.4h-.1v.1h-.1v.1h-.4l-.1-.3-.1-.2v.4h.3v.1h.3v.1h.2l.2-.3v-.5h.6l.1-.1h.2l.1.3h.3l.1-.4h.3v.2h.2v-.2h.1l.2.2v.3h.1l.1.1h.4v-.2h.3v.3h-.1l-.1.3-.3.2-.2.4-.4.2-.2.2h-.3l-.1-.1-.4.2v.3h.3v.1l-.3-.1h-.3v.3l.3-.2-.1.2v.1h-.1v.2l-.1.2h.1v-.3h.2v.1l-.1.1h.1v.2-.1h-.6v.3h.6v.1h-.2v-.1h-.3v.3h-.5v.2l.5-.2h.1v.4h.2l.2-.2.3-.1h.2l.1.1v-.5h-.2v.4h-.2v-.3h.2v-.4l.2.2v-.1h.4v-.1h.2v.1-.1h.2v.5h-.2l-.2.2v.1h-.4.2l.1.3.2.1.3.3.2.3v.2h-.2v.1l.3.1v.2h.2l.5.4h.2v.1l.2-.1v-.3l.2.3h.1v.1l.1.1.3-.4v-.3.1h.1v-.3h.4v.2h.2l-.2.4v-.4h-.5v.5h.3v.2h.2l.1.3h.4v.2h.5-.3l.3.3h.4v-.4h.4l.2.3h.7l.7-.3.1-.1v.1h.4l.1-.2h.4l.4.3v-.2h.2l.2.2h.2l.1-.1-.2-.2h.4-.2v.3h.5l.2.1h.4v-.4h.2v.3h.2v-.3l.2-.1h.3v.3h-.2v.2h.7l.2-.2h.2v-.2h1.6v-.1h1.7v.2h.3l.4.2h.1l.5.1h.2v.2l.1.2h.1v.1l.3.2v.3h.2v.2l.1.4v.2l.3.2v.6l.1.4v.2h-.1v.4l-.1.1v.5l-.2.3h-.1l-.1.2v.5l.1.3v.7l-.2.1v.4l-.4.3h-.5l-.1.4h-.6v.8l.3.1v.2h.2l.2.3h.2l.3.1.4.3.6-.3.3-.4h.2v.3l.2.2.3.2v1h-.3v.7h.5v-.3.3h-.3v.2h-.1l-.1.1-.2.2v.7l-.1.1v.3l-.1.2-.1.2-.2.3v.1l-.1.2h-.4v-.3l-.2-.2h-.2v.2h.3v.2l-.3.1v.2h.2v.2h.2v.3h-.3v1h.4v.4l-.3.2h-.1v.6l-.2.3-.1.3-.2.4-.2.3v.3l-.3.3v.5h-.2l-.2.2v.1l-.1.3-.5 1.3-.3.3-.2.3v.4l-.2.2v.2h-.2v.2l-.2.3h-.1v.5l-.3.4v.1l-.2.2v.4l-.3.1v.9l-.5.4v.2l-.2.1-.1.3-.1.2h-.2v.3l-.1.1-.5.6-.1.5-.3.4-.2.4-.2.1-.1.4-.2.3v.4l-.5.3-.1.4-.3.6-.3.4-.4.5-.2.2-.5.5-.4.4-.2.7-.3.1v.3l-.4.1v.3l-.4.3-.2.5-.2.2v.2l-.3.1v.2l-.4.3-.2.2-.2.2v.2h-.2l-.3.6-.3.2-.1.2h-.3l-.2.4h-.2v.2h-.3l-.3.3h-.1l-.1.2-.6.1-.3.2-.2.2-.7.3-.4.5h-.2l-.1.4h-.1l-.2.1-.5.2h-.1v.2h-.4l-.1.1h-.4v.2h-.2l-.1.1h-.1l-.2.1h-.2v.1l-.5.2-.3.2-.1.2h-.2v.2h-.2v.2h-.2l-.2-.1h-.2v.3h-.1l-.1.1v.1h-.6v.3h-.8l-.2.1h.4v.1l-.1.1-.1.2v.2-.2h-.2v.1h-.3l.3-.3h.1v-.4h-.3l-.1.4.2.1-.4.1h-.3v.4-.4h-.2l-.4.1h-.4l-.2-.2v.3l.2.1v.4h.4v.3l.1.2v.8h-.1l-.5.1-.2-.2v.1h.1v.2h.8v-.2.4h-.5l-.2.2v.4h-.3.3l.1.1v.5l.3.1v-.1l.1.1.3-.2-.3.5-.3-.3v.3h-.1l-.2-.3h-.5v.2h-.3v.5h-.2v-.1h-.3v-.2h-.7v-.1h.4v-.2h-.3l-.1-.3-.3-.2v-.3l-.1-.2v-.3h-.3v-.1l.3-.1h-.5v.4h-.1l-.3-.3v-.1l-.3.2v-.3h.2v-.2h-.5l-.3-.1h-.2l-.1.1h-.1l.1.3h.2v.1h.2l.1.3h.1v.1h-.8zM-50.3-71h.3v-.3l.2-.1v-.5h-.2v-.1h-.2.4l.1.2v.1l.1.1h.2l.1-.2.1-.1v-.1h.2v-.1h.2v.5h-.2v.2h-.3l-.2.2h-.1v.2h-.1v.3h-.1v.1l-.1.1v.1h-.1v.3l-.2.1v-.3h.2v-.4l-.3-.1v-.1l-.1-.1zm1.2 5h.3v.3h-.4zm.1-17.1l.1-.2v-.1h.3l.1-.3.3-.6.2-.1v-.4l.3-.1h.2v.1h2.4v-.2h.4v.5h.7v.3h.4l.2.2h-.1v1.4h-.5l-.2.1v.2h-.2l-.2.2v.7l-.8.4h-.4v-.2h-.4v.4h.2v.1h.2v.1l-.2.2h-.4v.4h.4l.3-.4h.1l-.3.6v.1h-.3v.2h-.3v-.4l-.2.2-.4-.1v-.2l.1.1.3.1v-.2l-.2-.2v-.3h-.1l-.2-.1v.2l-.2.1h-.6v-.3h.5l-.2-.2v-.2h-.3v-.8h.2l-.2-.3-.2-.3-.2-.3-.3-.2zm1-2.9l.3-.5h.3l.4-.4h.1l.3.2v.1l-.2.3-.2.1-.5.2h-.4zm3.3 6.8v-.4h-.1v-.1l.1-.1.2.4v-.1h.2v-.4h.3v-.2l-.4-.2v-.2h.4v.1l.2-.1v-.1l.1-.1v-.4l.3-.4v-1.3h.2v-.2h.2l.1-.2h.3v-.2h.2v-.1h.4-.2l.2.2.2.2h.2l.1.1h.4v-.2h.4l.2-.1.1-.2h.4v-.3l.3-.2.5-.3v-.3h.4v-.4h.2v-.2l.1-.1v-.2h.2v-.2h.1l.4-.3h.3l.1-.1h.2v-.3l-.2-.2h.5l.1-.3h.3l.2-.3v-.1h.4v.3h-.3v.1l-.1.1v.3l-.5.5-.6.5v.1l-.3.5-.3.3v.2h-.1v.2l-.6.8-.5.7-.5.7h-.3v.3l-.6.7-.2.3-.5.4v.1l-.1.1-.1.2v.2l-.5.2v.2l-.4.3h-.2l-.2.2-.1.1-.8.2v.3h-.8v-.4h-.2v-.4zm.5 22.8h.4l.1.4h.1-.6zm.7-32.3h.3l.2.1-.2.1h-.3zm.5 28.4v-.1l.2-.2v-.2h.2l.2.2h.3l.4.2.2-.3v-.2l.2-.1h.2l-.1.1-.2.3h-.1l-.2.2-.2.1v.3h.1l.5.2v.2l-.1.1-.5.1h-.2v-.1h.1v-.5l-.1-.1h-.7zm.6 11.2v-.1h.4v.2l.2-.2h.2l.2-.3.1-.1v.2h-.2v.4h-.3l.1.4v.2l.2.1h-.3l-.4-.4v-.1l-.1-.2zm18.6-33.1l.3-.1.1-.2v-.2h-.3v-.1h.3v.3h.2v.1h-.2l-.1.4h-.1zm3-11.1v-.3l.4-.2v-.2h.3v-.3l.1-.1.2-.1.5-.1v.2h.2l.1.3v.1l-.4.4v.3h-.1v.1l-.3.5h.5v-.3l.3-.2v.2h-.1v.3l.3-.3v.3l-.2.2h-.2v.3l-.5.2-.3-.4-.4-.2-.2-.4h-.2v-.1zm1.7 6v-.2h.4v.2zm.4-6.3v-.1h.1l.1.4h.7l.3-.2v1h-.5l-.1-.3-.1-.2h-.2zm0 2.3l.3-.2h.1v-.1l.2-.4.1-.1v.3-.2h.2v-.3h.6l.2.1v.5h-.2v.2h-.2v.2h.1v.2l.2.1h-.4l-.3-.2h-.1l-.1.2-.2-.3h-.4zm.7 4v-.2h.5v.3h-.5zm0-1h.4v.3-.2h.2v-.2h.2v-.5l-.2-.1-.3-.3v-.2h.5l.2.3.2.2v.3-.3l-.5.3v.4h-.1v.4l.3.1h-.4l-.3-.2h-.1zm.5-5.7v-.6h.1l.1-.4.2.5-.2.3zm.6 3.8v-.2h.3v.4h.1l.1-.3v-.1.3l.2.1v-.3h.3v.3l.1.1-.3.2v.1h-.2v-.3l-.5-.1v-.2zm0-2.8l.1-.4.3-.1h.1l.2.2v.7h-.1v.3l-.1.2.1.2h.3v.7h-.2l-.1.2-.3-.3.1-.2v-.2h-.2l-.1-.2v-.7zm.4-2.2v-.1h.2l.1.3h.2v.4l.2-.2v.4h-.2l-.3-.1-.1-.2v-.3zm.7 7.5v-.3l.5-.2v.5l-.2.1h-.2zm.3-1l.1-.1h.4-.3v.4zm1.1-4.2h.4v-.5h.2v-.2h.1l.4-.1.3.2h-.4v.1h-.2v.5h-.1l-.5.3v.2-.2zm.1 2.3l.1-.2.3-.2v-.1h.1l.1-.1v-.4h.3l.3.3.3-.2v-.3h.3l-.2-.2-.3.2v-.2h.3v-.4h.1l-.2-.1v-.4.3h.4l.9.1h-.2l-.5.5v.2h.6l.1-.1v-.1h.5v.2l.2-.3h.1v.4l-.3.1-.1.2.1.3.3-.2h.1v.3l-.1.1h-.3l.2.3h.3v.4l-.3.2h-.2v-.2h-.2l-.2.3v-.3h-.2l-.4-.1v.2h-.3v-.5.4h.1-.4v.1h.3v.1h-.6l.6.3-.4-.1-.2-.2-.1-.1-.3-.1v-.4h.3l.4.3h.2v-.2h-.4v-.3h-.3v-.2l-.1-.2h-.4v.8h-.3v-.4h-.2v.3h-.3zm.3-6.9l.2-.1v.1h.5l-.5.5-.2-.3zm1.2 14.8v-.3h.3v.2l.1-.2.1.2.1.2v.3h-.3v-.2h-.2zm.6-17v-.1l.4-.3.2.1.1.2.5-.2h2.2v.5l-.2.1h-.2v.3l-.3.1-.2-.2-.1.1v.4l-.3.2v-.5h-.2l-.4-.2v.5l-.6.1h-.2v.4h.3l-.2.5h-.4l-.2-.5h.2l-.2-.5.2-.3-.2-.2zm.1 10.1l.1-.4h.4l.2.2.1.1-.2.2h-.5zm.2-5.7l.4-.1h.3v.8l.2-.2h.2l.2.2v.2l-.2.2-.2-.1h-.4v-.3l.3-.1h-.2l-.1-.2-.3-.1-.2-.2zm.1-2.2l.2-.1h.5l-.1.5h1.2l-.3.3h-.3v.2l-.3.1v.5l-.1.3h-.3l-.1.2h-.2l-.1-.1.2-.4h.3l.2-.2h-.2l-.3-.1-.3-.2h.7v-.2h-.5v-.3l-.1-.2v-.2zm1.5-.5l.3-.2v.2-.3h.2v.3h.1-.2v.1l.2.1h.2v-.2l-.2-.4v-.1.1h.3v.2h.2v-.3h-.3v-.3h.3v.3h.2v.2l-.2.3v.2l-.3.2h-.2v.2-.2h-.5v-.2h-.1zm2.4-2l.3-.2.2-.1v.1h.4v.2l.2.3.1.1h.2l.2.2v.4l-.5-.3h-.9l-.3-.4zm29.7-29l.2-.5h.3v-.2h.7l.4-.3v-.2h.8l-.3.3h-.3v.3l-.4.6-.2.1v.1l-.2.2-.4.1-.1.3v-.8l-.3.1v.4l-.2-.1v-.2zm.8-1.2h.1v-.1h.3v-.4h.3v-.6h.3v-.2l.2.3v-.2.2h.2v-1.1h.4v-.2l.2-.2h-.2v-.2h.3v.2h.3v.2h.3v.1l-.3.2h.3v.2H25v.1l-.2.2h-.5v.3l-.1.4-.2.2v.2h-.2l-.6.1-.2.1v.2l-.3.2zm.8 1.2v-.3h.1v-.2h.2v-.2l.1-.2v.3l-.2.4h-.1v.1zm220.2 232.8h.1v1.5l.3.4.4.5.2.2.1.2h.1l.1.4h.1l.2.6.1.1.7.2v.1h.2l.1.4h.1l.2.6v.4l.2.2.5.2v.2l.4.5.2.3.3.3.5.8.3.8v.5l.2.3.2.2v.3l.5.8.1.5.2.1v.2l.1.2.3.2.2.4v.6l.6.6.3.3.3.3.4.2.3.6.3.2v.1l.3.3.2.2.4.4.1.1v.3l.6.3.9 1 .7.9 1 1 .2.5h.1l.2.2h.4l-.1.2v.5l.2.2v.4h.2l.2.2h.4v.3l.1.2v.2l-.1.3v.9l.3.6v1.1l.3.4v.6l.4.7h.3l.1.5.2.3.1.2v1.1l.3.1-.1.3v.2l.1.3-.2.3.2.1-.1.3v.3l.3.3h-.3l.1.7.1.7v.8l.1.3v.7h-.2v.4h.3v.3h.1l.1.2v.1l-.3.2h-.2l-.1.2v.1h-.1v.1h.4-.2v.3l.3.2v.1l-.3.2h-.3v.2h-.1v-.3h-.1v.3h.5v-.4h.4v-.3l-.2-.1v-.2l.2-.1h.2v-.3h.1v.2l-.2.1v.2l.1.1v.1l.2.1v.4l-.3.1v.2h-.2v.1h-.1l-.1.1-.1.1h.4v.2h.1v.2h.1v.2h.2v.3l.1.2v-.3h-.3v.5l.3.2h.1v.4-.3h.1l.2.3v.3h.1v.2l.1.1h.1v.3h.3v.1h.2v.1h.1l.2.1v.1l.1.1v.2h.4v.3h.1v.3h-.2v.1h.2v.3h.2v.1h.5v.1h.1v.2l.1.1h.1v.2l.1.2.2.2h.3v.2h-.3v.6h.3v.4h.2v-.4.3h.1v.5h.1v1h.3v.4-.3h-.3v.6h.3v.1-.5.3h.1v.6h.1v.1l.1.1h.1v.2h.1v.2h.1v.2h-.3.4v.4h-.2v.4h-.1v.1h-.1v.1h.4v.7h.2-.4v-.4h-.3v.5l-.2.1v.1-.2h.3v-.1h.1v.5l.3.2.2-.4v-.2h.2v.2l.2.3h.1v-.3h.2v-.2h-.3.4v-.4l.3-.1v-.1l.3-.4v-.1h.1v-.5h.1v-.1h.2v-.1h-.3v-.8h.3-.3v-.2h-.1v-.6h-.1v-1.2h-.1v-.7h-.1l-.1-.1v-.4h.2v-.6h-.3v-.1h-.1v-.6h-.2v-.9h-.1v-.1h-.1v.3-.3l-.2-.1h-.4v-.1l-.3-.1h-.1l-.1-.1v-.1l.3-.2v-.6l.2-.1v-.1h.3l.1-.2v-.2h-.4v.2h-.2v.2h-.4v-.4h-.3v-.3.3h.3v-.3h-.4v-.2h.6l-.3.2h.4v-.4h.1v-.1h.1-.4v.3l-.1.2h-.2v-.4l-.3.2v-.5h-.3v-.2l-.2-.2v-.2h-.3l.3.3h-.4v-.8l-.3-.3v-.2l-.1-.1v-.2l-.2-.2h-.2v-.3h.3v-.1h.1v-.5h.2v-1.7l-.3-.1v-.2h.3v-1.3l.2-.1v-.2h-.3.3v-.1l-.1-.1h-.4v-.2h.3v-.1l-.2-.1h-.4v.2l-.1.1h-.1v-.8l-.2-.1v-.2h.4v-.8l-.2-.2v-.2h.2v-.6l-.4-.2v-.1h-.2v-.1l.3-.2v-.3l-.2-.1v-.3h-.2v-.1h-.1v-.1h.2v-.4h-.4.3l-.3-.1h.4v-.3h-.3v-.5h-.1v-.1l-.1-.1v-.4h-.1v-.6l-.5-.2v-.3l.4-.1v-.1h.1V127h-.2v-.2h-.2.3v.5h-.3v.1h.3v.8h.1v.2l-.3.1-.1-.4v-.1l-.3-.2v-2.2h-.2v.4-.8h.3v-.4h-.3v-.4h-.1l-.3-.2h-.2v-.1h-.1v-.1h-.3v-.3h-.1v-.4l-.2-.1v-.1l-.1-.1h-.2v-.4h.3v-.5h-.3v-.1h-.1l-.2-.1h-.2v-.5l-.2-.1v-.2h-.1v-.1h-.5l-.2-.3h-.3v-.2h-.1v-.2h-.3v-.6h-.2v-.2h-.1v-.3l.3-.4-.3-.5-.4-.4-.1-.2-.3-.2h-.2l-.3-.4h-.4l-.2-.1h-.3l.2-.2-.4-.3-.2-.5v-1l.3-.6.1-.5v-.3l-.3-.6h-.6l-.2-.4h-.3l-.4-.2h-1l-.3-.4h-.7l.4-.2-.1-.3v-.3l-.9-.9-.1-.1-.3-.6-1-.6.2-.3-.4-.4.2-.2v-.4l-1.2-1v-.2l-.2-.2v.2h-.1v-.4h-.2l-.1-.5-.2-.2v-1l.4-.4v-1h.6l.3-.7v-.6l.4-.3v-1.1l.3-.3h.2l.2-.2v-.4l1-1.4.4-.6v-.5l.4-.4.2-.1.4-.4.7-.6v-.9l.4-.1.1-.4v-.1l.2-.2.1-.7.2-1 .2-.4.1-.2-.2-.5-.1-.5.2-.2v-.4l.2-.2.1-.2.2-.4v-1l.2-.8v-.4l-.4-.2-.2-.6-.1-.2-.1-.2-.1-.2.1-.4-.1-.1-.1-.9v-.6l.2-.7.1-1.4-.1-.4.2-.2v-.3l.2-.4.2-.6.6-1 .3-.2V78l-.3-.5v-.3l.1-.5v-.8l.1-.3V75l-.3-.3v-.2l.3-.3v-.3l-.2-1.6v-1l-.1-.3.1-1.2v-.5l-.4-.7v-.2l.6-.4v-1.9l-.4-.6v-.7l-.1-.2-.1-.4V64h-.2v-.3h-.9l-.2.3h-.1l.1.3h.2v.9l-.3.4v2.2l-.2.2v1.2l-.3.4V72l-.1.3v1.5l.3.6v.9l-.4.5v.5l-.3 1-.2 1-.2.2.1.4v.3l-.1.3-.3.5-.3 2-.3.9v1l.3.1v3l-.2 1.2v.2l.1.1v.5h-.2l-.2.4v.4l-.1 1.5v.3l-.4 1-.3.9-.3.4-.2.6v.2l.3.3h-.5v.4l-.2.2-.3.1h-.2l-.2.2v.1l-.4.5-.5.5-.2.7-.3.5v.8l-.4.5-.1.1-.2.4h-.2v.3l-.2.5-.3.3v.2l-.7.4-.1.3-.2.3v.2l-.3.2h-.5v.3l-.1-.2v.2l-.5.3-.2.2zm17.5 37.8h.2zm.3.1v-.2zm5.3 10.3h.2zm.2 0h.1zm-.1 2v-.2h.2zm0-10h.2zm0 7.7h.2zm.2 0h.2v.3h-.2zm-.1-7.3h.1zm.1 8.2v.2zm0-8.2l.2-.3h.1v.3zm0 7.6h.3l-.3.2zm0 .5h.1zm0-8.5h.3zm.3 9.6v-.2h.3-.3v.4-.3h-.1zm0 .2h.2zm.4.3l.1-.1v.2zM-27.6 82l.1.2h.6l.4-.2-.2.3-.1.5.1.2v.2l.1.2-.2.4v.5l.2.1v.1h.2v.1l.1.1h.3v.2h.3v-.3h.7v.4h1.4v.5h.2v-.3h.1V85v.4h.1v.1h.9v-.4h.7v.4h.1v-.8h.7v-.1l.1-.3.2-.2V84h.3v.6l.2.1h.1v.1h.4l.3.4v.4l.2-.2h.3V85h.2v.4h.5l-.5-.3V85h.1v-.2h.1l.1-.1.2-.2h.1l.3.3h.2l.1-.1v.2l.2.1.1.2v-.3l.2-.2.2-.1v-1.1l-.2-.2h-.2l-.3.4h-.4v-.4h.4V83l.3-.3h.1v-.3h.1v-.3h.2l.3.3.2.2.1.1.2.2h.5v-.2h-.1v-.3l-.1.2h-.3v-.3h.5v-.2l.1-.1h.1v-.3h.1v-.2h.2v-.1l.1.1h.2l.1.4h.1l.3.1v.3l-.4.3h-.6v.2l.4.2h.2v.2h.8l.4-.4h1v-.1h.1v-.3h.1-.1.1l.2.1v-.2l-.2-.3v-.3h.7l.1.3v.2h-.1v.1h.5l.3.2h.1l.2-.4.3-.1.1-.1v.2l.1-.1h.4v-.6h-.2v-.1h.3l.2-.2v-.3l.2-.3v-.4h.8V80l-.2-.2h.6l.4-.3h.1l.1.5.2.1h.4v.2-.3h.2v.2h.2V80h.2-.1l.2-.2v-.1h.3v.3h.4l.1-.2h.2l.7.4h.3v.4h.3l.1-.1h.1v-.2l.2-.3v.4h.6l.1-.3-.2-.2h.2-.1v.1h.8v-.6l-.2-.2v.1H-2V79h-.2v-.1h.3l.2-.3h.1l.2-.1.2-.2v-.1l.2-.2h.6v-.2l.2-.1.2-.2h.5v-.2H1l.1.2v.1h.5v.3h-.3l.2.1h.2v.2-.4H2v-.2l-.2-1.5-.2-.3h-.1v-.2h-.4l-.1-.2-.3.1H.3v-.1h-.5v-.3h-.5v.2H-1v.2h-.3v-.3l-.3-.1-.2-.1.1-.3h.1v-.3l.3-.1V74h.3l.2-.1-.2-.2v-.4h.2V73H-1l-.5.3V73h.3v-.5.1h.2l.1-.2.3.1h.1-.2v.1h-.2v-.1H-1l.2.2v.1h.3v-.1l.1.1v-.1H0l.1-.2h.2v.5H0l.2.3.1-.3v.2h.1l.2-.2h.3v-.2H1v-.1h.3l.3-.5.4-.2v-.2l-.4.2v-.2l-.4.1-.5.2H.5L.4 72H0v-.3l.1-.2.4-.4h.2l.3-.4h.1v-.2H.7l.1-.3H1l.2-.2h.2l.4-.2.2.2v-.3.2-.2h.2l.2.3v-.4h.2-.8v-.2H2v-.6h-.7l-.2.2-.2.4H.8v.1H.4v-.3l.3-.2H.4.7l.1-.4h.7l.1.2v-.1l.3-.1v-.1H2v-.9h.3v-.4H2v-.5l.6.1h.6v-.3h-.3v-.1h-.3v-.3.2h-.1v-.5h.2v-.4l.1-.4h.7l-.5-.4v-.3h-.2v.3-.4L3 64h.2v-.4l.7-.2v-.1h-.5v.1l-.6.1-.1.2h-.2l-.3.3h-.4l-.2.2-.2-.4v.4h-.1l-.3.3v-.4h.2v-.3l-.1-.1H.8l-.2-.1-.4-.5v-.3l-.2-.3h.2v-.1l-.2-.1-.2.2v.4h-.3l-.2-.2v-.5h-.1V62h-.5v-.2h-.2v-.3.5l.3.3v.2l.2.1.2.4.2.2.2.3.2.2h.4v.7h.2v.2l-.2.1-.3.5h-.2l-.2.4-.1.4-.1.2-.1.1-.2.2-.3.5v.3h-.6v.1l-.2.1h-.1l-.2.4v.1h-.3v.2h-.6l-.2.3h-.4V68H-4v-.1.1l-.2.2-.3.2v.5l-.3.1h-.5v.3-.1h.5V69v.2l-.4.1v.6h.2-.5v-.5h-.2v.4H-6l-.1.2-.2.1-.4.5v.2h-.2l-.1.4h-.1l-.6.2v.1l-.3.1v.3h-.4v.1l-.4.1v.5H-9v.2h-.3l.1-.4h-.3v.2l-.4.1-.1.2h-.1v.3h-1.3l-.3.5v.1l-.2.2h-.4v.3h-.1V74h-.1v.3l-.1.2h-.3v.1h.5v.3h-.4v-.1h-.5v1h.3v.2l.3.3v.2l-.6.1h-.7l-.3.2-.4.4-1 .2-.5.6-.5.1h-.3v.1h-1.9v-.4l-.2-.2-.3-.4.4-.4h.4v-.2l-.2-.2v-.2l-.2-.2h-.3v-.2h-.2v.4l.2.1v.1h-.4V76h-1.1v-.1h-.4v-.2l-.1-.2v.4l.5.1v.5h-.2l-.2.1h-1.5l-.2-.1h-.3v-.3h-.1v.3l.3.1h-.3l-.1-.3h-.1V76h-.5v-.2h-.3l-.2-.2-.3-.4-.2-.2-.3.3h-.3.1v.4h.5l.3.3-.1.1v.2h.2v.2l.3-.2v.3h.3v.1l.2.3h-.1v.3h1.4l.3.3h1l.2.3v.1l-.2.1-.4.2v.3h-.1v.2h-.2v.1h-.8l-.3.1h-.2l.2.2v.1l-.5.3v.1l-.2.3h-.3v.3l-.2.1h-.6l-.2.2h-1.3l-.2.1h-.2v-.3l-.2.3-.1.1v-.1h-.3v.5l-.2.2v.3zm5.8 1.7l.1-.3.4.3.3-.2v-.1l.2-.4.4-.2.2-.5h.4l.2-.1.2.2v.2h.1v.3h-.6l-.1-.1v.3l-.1.2h.3l.1.1v.4l-.2.1h-.3l-.2-.3v-.4h-.1l-.1.1v.6h-.4l-.4.1-.2.2V84h-.3zm.7-4.9v-.3l.3-.1h.1l.1-.3h.4l-.1.2h-.1v.3l-.3.1h-.3zm.8-.4l.3-.1h.7l-.3.2-.2.1v.1h-.2zm1 3.4v-.1l.5-.2h.2l-.4.2-.2.2-.1.1zm1.7-.3v-.1h1v.4h-.1l-.3-.1-.2-.2h-.3zm6.1-1.2v-.2l.1-.1.2-.4.5-.2h.2v.6l-.3.3h-.2l-.1.1h-.3zm7.2-9.6v-.2l.1-.2h.2v.5h-.2zm1.3.3l.2-.2h.1v.3H-3zm1.5 5l.1-.2.2-.1h.4l-.3.3h-.2zm1.3-6.2v-.1h.4v.1zM190.7 75l.2.2.1-.2v.3l.2.3.2.2.3.1.2.2.2.1.2.2h.1l.3-.2.2-.2h.2l.2-.3.2-.1.2-.2.2-.4v-.4h.2v-.8l.3-.1.1-.2h.2v-.3h.8V73l.2-.2.3-.4.2-.2.1-.2.2-.3.2-.2.3-.2.3-.1.3-.3.4-.3 1.4-.6.6-.3.6-.3.4-.2.4-.2.3-.3.3-.2.3-.2.4-.3.3-.4.5-.2.2-.2h.4V67h-.2v-.3l-.3-.1h.2l.2.1v-.4h.1V66v.1l-.1-.3v.2h-.3v-.2l.3-.1v-.1h.3l.3-.2.2-.1h.1l.4-.3.2-.2h.3v-.2l.2-.2v-.2h.1l.3-.1v-.3l-.2-.2v-.2h-.4v-.5l-.2-.4-.2-.3-.2-.2-.2-.4-.2-.3-.2-.3v-.4l-.3-.3v-2l-.2-.3v-.2h-.3.3l-.1.2h-.2v-.4h-.3v-.4l-.3-.1v-.5l-.2-.1v-.9l-.4-.4-.1-.3v-.3l-.8-1.6v-1.6l-.2-.2V51l.2-.3v-.3l.2-.1.1-.1v-.3l.3-.3.3-.6.3-.4.2-.6.4-.3.2-.1.3-.3.2-.2.2-.5.2-.3.1-.3.3-.2.3-.3.2-.3V45l-.6-.2.6.1v-.3h.2v-.2l.2-.1.2-.4.1-.3.3-.2.4-.4h.5v.2h.1l.1.1.2.1h.1l-.2-.3h-.1l.3-.1v-.1l.1-.1.2-.1.2-.2.4-.2h.3l.2-.3.3-.1h.4v-.2l.2-.1.2-.1.3-.2.2-.4.3-.5.3-.1.5-.3v-.2l.1.2h.3l.4-.1h1.2l.6.1h1.1-.5l.3-.5.3-.1.2-.3.3-.3.2-.4h-.4v.3h-.2l-.1-.2V38h-1.6l-.4.2h-.7l-.7.1-.4-.2v.3l-.2.3h-.1l-.3-.7-.4-.5-.2-.5-.5-.5v-.1h.3V36h.2v-.5l-.3-.2-.1-.3h-.4.3v-1l-.3-.2.4-.2.1-.2.2-.2v-.3l-.2-.2v-.3h.3l-.3-.1V32l-.2-.2v-.2h.5l.2-.4v-.3l-.3-.3-.1-.1v-.2l-.1-.4v-.4l-.2-.1-.2-.4v-.3l.2-.4v-.2l.3-.1.2-.3v-.2l-.1.1v-.1l.3-.2v-.6l.3-.3V25l.2-.2v-.3l.1-.5v-.3l.3-.5.1-.5.1-.7.1-.4.1-.4-.1-.2h-.3v.1l.1.2v.4l-.3.5h-.1l-.4.4v.3h-.4l.2.1-.1.1h-.1l-.1.4-.1.1-.1.4h.3v.7l-.1.5-.1.2-.4.3-.2.3v1.2l-.3.2-.2.2v1.3h.3v.6l-.2.5-.3.3v2.4h.2v.6h-.2v.4l-.1.2v.9l.1.2v.3l-.2.2v.5l.2.5.1.1.3.4-.4.1-.3.2-.2.1-.2.2-.2.2-.1.3-.3.3-.2.3-.4.3-.4.5-.5.4-.5.4-.5.4-.2.3-.3.6v.4l-.4.2-.8.8-.5.4-.3.3-.4.1-.2.4h.2l-.2.4-.2.2-.5.2-.3.1-.3.4-.3.5-.4.3-.2.3-.2.2h-.2l-.3.2-.3.3-.2.3-.4.2-.2.1-.4.2h-.4l-.3-.3-.3-.1h-.6l-.1.3v.2h.7v.1l.2.1v.3l.3.2.1.2.2.1-.1.2v.6l-.4.4-.1.2v.9l-.2.2v1.1l.2.2.2.4.3.3.3.3.1.4.3.2.1.4.2.3.1.2.2.5v.3l.4.1.4.1.1.5.2.2.1.2.1.3v1.5l-.3.2v.3l-.2.2.2.3v.2l.5.5.1.2.2.4v.9h.2l.3.2v.5l.1.1v.8h-.2v.6l-.2.2v.1l-.2.1h-.2l-.3.2h-.6l-.2.1-.5.2-.3.3-.7.5-.1.4h-.2l-.2.3-.2.4v.6h-.3l-.2.1h-.3l-.2.2-.3.1-.2.4-.3.4-.3.4v.3l-.2.1-.5.6-.3.3-.4.5-.4.4-.5.5v.7l-.1.4-.5.3-.3.3-.3.1-.2.1-.1.3-.2.3h-.2l-.2.2zm6-27v-.3h.1l.2.3zm1.8.7l.2-.1.5-.3.5-.3-.1.3v.2l-.2.5-.2.2h-.2l-.2-.1-.2-.2zM327.7-58.2v.7l.1.5.3.2.1.5.2.1v.3l-.4.3.2.5v.3l.3 1.2.4 1.2v1l.3 1 .3.4.4 1.3.5.7.4.5h.4v.5h.4l.1-.3h.6v.8l.1.5.2.2.4.4 1 .8 1.8 1 1 1 .3.1.3.2.6.6.7.4 1.1.7 1.5 1.2 1.2.7.3.2.5.5.2.8.5.6 1 1.1.5.5.2.5.6 1.1 1.3 2.5.8 1.5.3.4.1.7.6 1.1.3.6.1.6.2.8v2l.3.2v.5l-.4.1-.3.4-.2.3.1.3v.5l.2.3.1.3v.3h-.8v.3l.3.3.1.2.3.8.1.3v.3l-.2.1v.8l.4.4v1.9l.3.6v.4l.4.1.3.5v.7l-.1.2v1.1l-.2.2v.5l.3.1v.2h-.3v.3l.2.7.1.2v.4l.2.4.1.5.2.3.2.1.2.6.2.3v.4h.1v.8l.2.3v.4l.2.3.2.6v.4l.2.1v.2l.3.2v.5l.2.2v.2h.1v.3l.1.2v.4h.2v.2l.1.2V0h.1v.4l.2.3V1l.2.3v.1l.2.2v.1l.2.5v.4l.1.2V3l.2.3.1.4.1.3.1.4v.1h.3v1.4h.1v.2l.1.2V7l-.1.1v.2l-.1.2v.3h-.2v1.1l-.2.1h.4l.1-.1v-.3l.1-.4v-.5l.1-.3V7h.3V5.9h-.3v-.5h-.3V5l.2-.1.1-.3h.1l.1-.3h.3V1.9l-.2-.2-.1-.3V1l-.3-.3V.3l-.2-.3v-.8l-.4-.2-.4-.3v-.2l-.3-.2-.1-.3h-.4v-.5l.3-.1v-1l-.4-.4h.2v-1.1l-.3-.5v-.6l-.4-.7-.3-1-.1-.3v-.1L353-9v-.1l-.3-.5-.2-.3v-.6l-.3-.1v-.5l-.1-.2v-1.5l-.1-.4V-16l-.3-.5-.2-.3-.2-.2v-1.5l-.1-1.1v-1.6l.4-1.2.2-1.4-.1-1v-.4l-.2-.4v-1.1l-.3-.8-.5-1h-.5v-.7l-.1-.4-.4-1-.6-1.5-.4-1-.4-.4-.3-.2v-.5l-1.1-1.7-.6-.6-.2-.1-.3-.2-.3-.8-.5-.7-.7-1-.8-.7-1.2-.5v-.5l-.3-.4-.6-.6-.9-.6-.5-.3-.6.1-.1-.1-.3-.6-.8-1-1-.7-.6-.4-1.6-1-1-.4-.4-.4-.6-.1-.4-.5-.5-1.2-.5-.8-.3-.8-.4-1.2v-.4l-.4-.8-.1-.2v-.3l-.4-1.2-.3-1-.3-.6-.2-.9v-.6l-.4-.3.2-.2v-1.4l-.3-.4h-.2l-.1.2-.1.1v.4l-.3.2v.6zM14.2 83.3h.4v.1l.2-.2V83h.2l.2.2.2-.2.2-.3h.2l.2-.2v-.1h.1v-.1h.7l-.4-.3h-.3v-.2h.2l.1-.1h.3v-.1h.2l.3-.3h.3V81h.9l.3-.2h.7l.3-.5h.6v-.1h.2v-.1h.3v.3h.2l.1.2v.1h.2v.3h.1v-.3h.5l.1.3h.2v.2h-.5v.3h.5l.1.2.2.1v.2h.4v.4h.3v.2h.1v.4h.5v.4h.6l.1-.3h.4v.4h-.4l-.2.2H24v.1l.3.2h.2l.3-.3.3.2H25v-.4l.2-.2.3-.2v.2h.3v.3l.2-.2-.3.2h.3v.2l.2-.2v.3l-.4.1v.2h-.2v.4-.3h.4v.4h.2v-.2l-.2-.2V84h.1v.2h.4V84h.5v-.1h-.5.3v-.1h-.2l-.3-.1v-.3h.3v-.2h.4V83h-.3l-.4.1h-.1l.1-.2.2-.2h.3l.5-.3.1-.1h.2l.2-.1.2-.1h.4l.3-.1.2-.2.3-.1h.3v-.1h.1l.1-.2V81h.5l.6-.1v-.2l.2-.2.3.1.2.1h.1l.2-.1.2.1v-.2h.6l.1.2v.1h.2l.1.2v.3h-.2l-.1.1v.2h.6v-.1h.3l.2-.1v-.2h.2V81l.2-.1.2-.3.1-.1.2-.2.3-.1V80h.5l.1-.3.1-.1h.1v-.1l.2-.2v-.6l.2-.1.3.3h.1v-.2h.4l.1.1v.1h.7v.2h.2v.5h.4v.8l.2.2v.3h-.2v.6l.3.1v.3l-.3-.1v.3h.4l.2.3h.1v.1h.3v.6-.4l-.2-.5h-.3l-.1-.2h-.2l.2-.4v-1.9l-.2-.2v-.3h.2v.4h.4l.1-.3h.2v.4l.4-.2-.3.1h.2l.2-.2-.4-.1.1-.3v-.1h.1v-.6h.2l.6-.3v.2h.4v.3-.3h.4l.1-.1h.2l.3-.1h.7v-.2h.1l.2-.1.1-.1h.3v-.1h.3l.2.1h.1l.1.1-.1.3.4.1V78h.2-.1v.1h-.3v.2l.4.2h-.2v.1h.3l.3-.1v.2h.2l.2-.1v-.2l.6-.1.2.2v-.3h.5V78h.3-1l-.2.2h-.2L45 78h-.2v-.6l-.1.2-.2-.2h-.3l-.2-.2h-.3l-.2-.2h-.2l-.3.5h-.2l-.1.1H42l-.1-.1h-.1v-.3h-.2V77h-.9v-.1h.3v-.4h-.1v-.1h-.2v-.3h-.1v-.3.2h-.2v-.3l.1-.3H39v.1h-.3v.4h-.1v.1l-.2.1v.1h-.3l-.4.2-.2.2h-.1l-.1.1-.1.3-.2.3-.4.4-.5.3v.4h-.6v-.2h.4V78h-.5l-.4.2h-.2l-.2.1-.3.2v-.2h.2l.1-.3h.2l.2-.1v-.2h-.2l.1-.1v-.1l-.1-.3-.2-.2h-.3v.2h-.4v.5h-.1v-.2.2l.2.3v.2h-.2l.2.3v.1h-.1l-.1-.2-.1-.2-.2-.2v-.3h-.1l-.4-.1v-.3h-.2V77l-.2-.1.2-.1v-.2h-.6v-.1h.3v-.2h-.8l.3-.2.1-.1.1-.1v-.3H32v.1h-.7v-.1h.3v-.3l-.4.2h-.1v-.2h.3v-.2l.4-.1v-.1l-.1-.2.3-.2-.4-.9-.3.4h-.4l-.1.3h-.7v-.2l-.5-.1v-.5h.3v-.2h-.5v-.2h-.5l-.3.1h.4v.2l.2.2-.5.4-.7.2h-.5v-.1h-.2v.1h-.1L27 74h.2v-.3h.2l.4-.2.3-.1.1-.1h.2V73h-.7l-.5-.1v-.1l-.2-.2v-.1l.5-.1v-.2h-.6l-.5-.1h-1.3L25 72h-1.7l-.3.1h-.5l-.1.2h-.7v-.2h-.1v.6h-.4v.3h.6v-.1h.9v.3h-1.3V73h-.8v-.5H20v-.1h-1.4v-.1h-.3l-.3.1h-.6v.6l-.4.2h-.1l.2.5h.2l.3-.2h.4v.3l.3.5.1.2v.3l.1.1h.7v-.3h.5v.2l.2.2v.1l.8.2h.4l.2.3.2.1.2.1h.3v-.6h.3v.2h.3v-.3h.3l.1-.1.3-.1h.2v.3h1.1l-.1-.2h.3l.2.1h.6l.8.6.4.3h-.1v.2h-.4v.1h-.5l-.5-.2V76h-.1l-.4.2h.1v.3h-.3v-.4H24v.3h-.7v.1l-.1.1.1.2v.2h-.5v.2h.6v.1h-.3l.2.1h1.2l.3.1.2-.1v-.2h.3v.3l-.3.2h-.4v.2h-.3v.3H24l-.2.1-.2.2-.1.1v.5h-.1v.2l-.2.1H23v.4l-.4.1h-.3l-.3-.1h-.5l-.3-.2h-.5v-.2l-.4-.1H20v.2h-.2v.1l-.3.1v.1-.6h-1.2V79h.5v-.3l-.2-.1h-.2v-.2h-.3V78h-.3l-.2.2h-.5l-.4.3h-.3l-.1.1v.2h-.1l-.5.2v.8l-.2.2v.6h.3v.2h-.4v.7l.3.2-.2.1h-.3l-.2.2v.1h-.2v.4l-.1.2v.2h-.1v.3l-.1-.2h-.3zm7.5-8.8h.1l.2-.1v.2h.1-.3zm.6 0h.3v-.1h.2l-.2.2v.1h-.3zm.9.1h.8l-.2.1v.1h-.6zm.6.3l.6-.3h.3v.3l-.3.1h-.6zm.9 4.8v-.2l.5-.2h.3l.4-.3v-.2.1h.3v-.4h.2l.1-.2h.3v-.2l.2-.1h.4v-.2h.2v-.3h-.4v-.2l.3-.2V77h.1v-.2h1.1v-.4.2-.2h.3v-.2h.2l.2-.2h1.1v.1l.2.1v1h-.3v.1h-2.2l-.2.1v.1l.4.3.4.2-.4.4h-.7v.3l.3.2v.1l-.2.2h-.4v.3H27v-.4l-.2-.1h-.3v.2l-.2.3h-.9l-.1.2zm.8-6h.2l.4-.3.2.3H26l-.1.1h-.3zm.7 6.7v-.2l.3-.1h.5l-.2.3h-.4zm1-.4h.2v-.2l.6.2h.7l.3-.4h.4l.1-.1h.3l.2-.4h.6V79h.2l.2-.2v-.1h-.5v-.2l.2-.1h.4l.2.2.2.1.3.1.2.3h.5l.2-.1v-.1h.3v.3h.4l-.3.1v.1H33v.1h-.2l-.2.3-.5.1h-.8l-.1.1h-.4v.1l-.3-.2h-.2l-.3-.1h-.4l-.3.3h-.5l-.5.2h-.7l-.1-.1h-.2zm10.5-1.6l.1-.2h.2l.4-.5.2-.4v-.4h.3l.3-.3.2.3h-.2v.1l.2.3h.6v.4l-.2.5-.1.2h-.2v-.1h-.1l-.2.2v.4l-.4.1v.2h-.1V79l-.3.1V79l-.2-.2h-.1v-.2h-.5zM32.2 64h.7l.1.2h1l.1.1h.4v.2h.3l.1.2h.2v.4H35v.3h-.2l-.1.4-.4.1H34v.1l-.2.2v.1h-.3v.4h.6l.2-.1v-.1h.3v.3h.8l.6-.4h.6l.1-.1H38v-.2h.5v.1l.3.3v.1l.1.1v.6H38v.4h-.2l-.3-.1v.2l-.2.2h.3v.6l.2.1v.3h2.5l.1-.3h.4l.5-.1h1.1l.4-.4H45v.3-.3h.4l.4-.2h1.4v-.4h.8v.8h-.4l-.3.2H47l-.3.2v.2h.3l-.3.2h-.2v.1h.4l1-.5-.2.3v.4h-.3l-.3.2h-.3l-.3.3h-.2l-.2-.3H46l-.3.5h-.1l-.3.1v.3h-.2v.1h.3v-.2h.2v.2l-.5.3.4.1V71h.1v-.4h.1l.1.3h.6l.2.3v.4H46v-.2h-.4v.2l-.2-.2v.2h.3v-.1h.3l.1.3h.4v.2h-.2v.2h-.1v-.3H46l-.4.1v-.4.2l-.2-.1h-.2v.2h.4v.1h.1l.3.1v.3h-.3v.1h-.3v.2h.6v.1h-.4v.2h.2l-.2.1v.1-.2h-.2v.4h.3v.2l.3-.4h.2V73H46v-.3l.3-.1v.4h-.1.2l.1.2v.1h-.3v.2h.5l-.3-.4h.3l-.3-.3h.3v-.2h-.4v-.3h.2V72h.2v-.1h.2v-.3l.1.2h.3v.2h-.6v.2l-.1.3h.2v.6-.3l.2.1v-.4h.5v.3-.3h-.2.4v-.2.2h.1v-.3h.2l.3-.2v-.3H48v.4h-.1v.1-.2h-.2l.2-.3.1-.1h.5l.1.2v-.2h.1v.1-.1h.3v-.4h-.2.4l.1.1h.3v-.1h-.2v-.4h-.2v-.1H49v-.1l.4.2.4-.5h.2V70h.3v.1h.2v.3l.3-.2h.2l.1-.2h-.3.2v-.2h-.3l-.2.2v.2-.3h-.2l-.3-.3-.8.4h-1.1v.2H48v.3h-.3v-.4l-.1-.1h.3v-.2l.2-.4H48v-.1h.2v-.1h.3v.1h-.2v.2l.3-.2v-.7h-.2.3v-.1l.2-.4h.1l.2-.3.1-.1v.1h-.6l-.2.2h-.3v-.4l-.2-.1v-.2l.3-.1h.2V67v.1-.1h.3v-.3l.2-.1v-.1h-.1v-.3h.1v.2h.1v-.3H49V66h.2l.6-.6h.2-.2.2v-.3l.3-.1v-.2.2h.3v-.1h.3v-.3h.1v-.3h-.5l.4-.3.5-.3v-.1l-.3-.1H51l-.1.3-.7.1v-.2H50v-.3h-.2l-.2.2H49v-.2h-.2l-.2-.2V63v.3h-.2v-.4l-1.7-2.7h-.4V60l-.2-.1H46v-.2h-.2l-.1-.1v-.2h.1V59l.2-.2h.2l.2-.1h.3v-.1h.3l.1-.3h.1v-.1l.2-.4v-.1h.5l-.2-.1.1-.2v-.2h.2v-.8l-.3-.1h-.3v.7h-.3l-.1.3h-.1v.3l-.4.4v.2l-.3.3-.2.3v-.2l-.3-.1v-.9H45l-.4.2h-.1l-.1.2-.4.2h-.2l-.1.1-.3.2h-.1l-.2.3v.2h-.3v.4l-.1.2-.3.1v.2h-.2l-.2.1v.1l-.1.1h-.3l-.2.1H41l-.1-.3v.2l-.1.3v.3h-.4v.2h-.2l-.2.2-.4.6-1 .6h-.5v.2H38v.1h-.2v.2h-.9v-.3l-.3-.1h-2.1l-.2-.1h-.4l-.1-.2h-.6v.3l-.4.1-.1.1h-.2zm7.1 4.4v-.2h.3v-.5h.5l.1.3.3-.2v.2h-.4l-.2.3v.1h-.4zm5.3-8.2h.5V60h.3l.1-.2h.2v.5h-.5l-.2.3h-.4v-.1zm252.2 20.7l.2.6.2 1.5.3.5.5.7v.2l.2 1h.1l.2.6v.6l-.1.2-.5.2.2.6.1.4v1.5l-.2.2.2.4v.1l.3.2v1h.2v.4l-.4.7v.3l.3.2.2.4.2 1v2.9l.3.4h.2l.3.3v.2h.6v.1l.2.2.2-.1.2.1.2.3v.2l.4.5v.2l-.3.3.5.4v.3l.5.3v.4l.9 1 .1.4h.4l.3.2.2.5.1.5.1.2v.1l.4.4v.3l.2.3v.2l.2.1.3.2.3.4.5.8v.7h.4l.3.1.3.5.2.1v.5l.1.3.2.3.2.2.2.3.1.6v.4h.1l.2.3.4.1v.2l-.2.4.4.6.3.6.2.2v.3l.1.3v.7l.6.5v.9l.2.2v.3l.3.3v.3l-.2.3v.3l.5.3v1l-.2.3-.1.5v2.1l.7.3.4.2.2.3-.1.2v1l.3.4.1.6.3.3v.3l.2.1v1.2l.2.3h.5l.2.3h.1l.2-.4.7-.3.3-.5v-.3l.7-.5v-.7l-.2-.3h-.3l-.2-.3-.3-.2-.2-.3.1-.3-.3-.7-.2-.7-.3-.2v-.3l-.2-.7v-.2l-.4-.1.3-.2v-.4l.5-.3v-.1l-.2-.2.2-.3.1-.3v-.4l-.3-.3-.5-.1-.1-.1.4-.6v-.3l-.3-.7V113l-.1-.3h-1.1l-.3-.4h-.2l-.1-.3-.3-.2v-1.1l-.3-.7-.3-.6-.3-.4-.5-.7-.1-.3-.7-.3-.2-.3v-.4l-.2-.1h-.2l-.3-.4-.6-.7-.1-.5-.3-.5-.2-.2-.2-.4-.4-.5-.1-.8-.2-.9h-.6l-.3-.3-.1-.4-1-1v-.7l-.6-.6v-.4l-.4-.1v-.4l-.2-.1-.2-.3h-.2l-.4-.4-.1-.1-.2-.2h-.2l-.2-.3-.3-.7.2-.2v-.2h-.4v.2l-.3-.6v-.4l-.3-.3-.1-.3-.3-.3v-.5l-.2-.1v-.6l.4-.3v-2.7l-.2-.7-.1-.2.1-.1.1-.3V86l-.1-.2v-.4l-.4-.4v-.7l-.3-.9-.1-.2-.2-.3v-.3l-.2-.5v-.4l-.2-.2-.2-.8-.4-.2-.2-.2h-.7l-.1.2-.2.3zm-72.5 2.7v.4l.4.6.3.2.2.5h.2l.2.4h.1l.2.5.2.3.2.3.5.8v.6l-.2.4v.4l-.1.3.2.2.3.4.3.1.2.2h.2l.1.5.2.1.1.3.5.3h1v-.2h.4l.3-.2.5-.4.2-.2.5-.4v-.8l-.3-.6.1-.3h.1l.2-.1.2-.5v-.5l.2-.3.2-.3h.2l.2-.3h.3l.5-.3.2-.5.2-.3.2-.2v-.3h.3v-1.5l.1-.2.1-.4.1-.2.4-.1.1-.3v-.2l.2-.4v-1.3l.1-.3v-.4l-.3.3h-.1v-.4.1l.2.1.2-.3.2-.4.2-.8.6-1 .6-.7.6-.7v-.2l.4-.4v-.2h.3v-.3l-.1-.3v-.3l.3-.3h.1l.2-.2.2-1.1-.1-.3-.1-.3v-.2l.2-.2v-1.9l-.2-.4v-.8h-.3l-.2-.2v-.7l-.2-.3-.1-.5h-.4l-.4-.3-.1-.2v-.3l-.9-1.1V64h-.4v-.1h-.3l-.5.3-.3.2h.3l-.1.5-.4.3-.1.2-.1-.2v.4h.3l.1.4.3.4v.4l.3.1v.3l.3.2v.1l.1.4.1.1v.4l.2.1v.5h.2l-.2.2V71l-.2.3v.5l-.1.1v.9h.4l-.2.2-.3.1v-.3h-.2l-.2.3v.2h-.2v.5h-.4l-.6.5v.2l-.3.3h-.6V76h-.4l-.1.5-.1.1-.1.4-.2.7-.2.7v1.3l-.3.2v.6l.1.7v.5h-.2l-.3.7-.2.3v.2l-.3.4h.2V83h.3v.4h-.3l-.2.3-.1.3h-1.3l-.2.1h-.2V84h-.7l-.3-.3-.6-.3h-.7l-.2-.1h-.5V83h-.4l-.2-.3h-.4v-.1h-.3l-.4.4v.4zm-76.8-34.8l.2.2h.3l.7-.5 1.1-.5v-.4l-.4-.1h-.4l.2-.3.3-.4.5-.4 1-.3.6-.1.4.3.2-.3.1-.1h.7l.3.1.2-.2h.2v-.3l.3-.2V45l.3-.2h.7v.4l.2.1.4-.1h1.2l.3-.2h.3l.5-.2 1.2-.1v-.2h.4l.1.1h1.1l.3-.1.3-.2.3.2v-.2h.7l.7-.8h.4l.3-.4h.7l.6.5.5.4.8-.3h.5l.7-.5V43l.5-.2.3.2 1-.5.4-.4.7.1h.3l.2-.5.5-1.5.4-.3.8-.2h1.2l-.1-.4.7-.3.2-.4.4-.2.2-.3.8-.6.8-.2.7-.6.5-.4v-.2h3.4l.2.2h.3l.1.2.7.2h.8l.4.8.6.6.2.1.8 1 .5.8.4.4.2.3h.2l.2.3h.4l.2.2v.2l.4.2.2-.2h.5l.4.1h.2v1.1l.4.1v.3l.8.6.3.2h.2l.3.2.2.1v-.3l-.2-.2-.1-.2v-.2l-.1-.2-.1-.3v-.3l.3-.2v-.1h-.3l-.1-.3h-.2l-.3-.3h-.6l-.1-.1h-.3l-.3-.1-.1-.2-.3-.1-.3-.5-.4-.2v-.2l-.5-.4-.1-.3-.1.1v-.3h-.3l-.1-.1-.3-.1h-.1l-.1-.4-.4-.3-.1-.3h-.1v-.2l-.1-.2v-.2l-.1-.2-.3-.3-.3-.3h-.1V36l-.9-.4-.8-.6-.2-.3-.4-.2-.1.1v-.2l-.5-.2-.2.1-.7.2V34l-.4-.3-.1-.1-.3-.6h-.1l-1-.4H178l-.6-.2h-.2l-.4.6h-.2l.1-.6h-.2l-.2.1v.5h-.2l-.1.4.2.2-.2.2v.7h-.3l-.5.4-.7.2-.4 1.1-1 .8-1.6 1.4-.6.3-.9.5-.9.7-1.9 1-1.2.3-.3.3-.4.1h-.3l-.5.2h-.4l-.3.2h-.4l-.7.4-1.2-.2h-.7l-.1.1-.2.2-.5.2-.3.2h-.4l-.8.1h-.7l-.3-.2-.3.1-.2.2-.4.1h-.6l-.2.5h-.5l-.2.1-.5.4v.3h-.3l-.3.2-.1.1h-.4l-.6.1-.3.3h-.2l-.8.4h-.3l-1.3.6-.6.3-.4.3-.1.6-.3.7-.7.5zm0 0"/><path d="M1.8 76.1l.1 1.5.3.2.3-.3h.1l.1.3h.5l.1-.1H4v-.1l.2-.3V77H4h.3v.3h.1l.1-.3.1-.2h.1v-.4l.1-.4h.5l.2.3v-.4l.5.1.1-.2v.2h.3l.1-.1h.2l-.2.4h-.3l-.2.2v.5h.2l.1.1h.4l.5-.1h.3v-.2l.2-.1h1l.2-.3h.4l.1.2.2.2h.1l.2.2v.2h.1v-.5l-.2-.1v-.2h-.2H11l.1.4h.1v.1h.8v-.5h.1v.2l.4.2-.2.4h.1-.2l-.2.2h.7v-.2h.3l.4.3.4.3v-.3h.2V77h.3v-.5h.3v-.1l.1-.4v-.2h.1l.3.2h1.1v.6l-.2.1v.6l-.6.3h-.6v.5h.2l.1-.3.8-.1h.1l.3-.1h.2v-.1l.2-.5h.2v-.3h.3l-.2.3-.1.3v.2h-.1v.1h-.1v.4h.4l.4-.2.2-.1h.2v.3H20v-.3h.3l.1-.1h.1l.6-.5h.5l.1-.1v-.1h-.3l-.1-.3h-.1l-.2-.2h-.2v-.2h-.3v.2-.3l-.1.2-.4.2v.1h-.1v.2-.3h-.4v-.2H19v.3h-.2v.1H18l-.2-.2.2-.1v-.1l.2-.1v-.4H18l-.1-.3h-.1v.4h-.6v-.8h-.1.3V75h.2v-.3h.4v-.4h-1.2v.3h-.3v-.3h-.1l-.1-.1.3-.1v-.2h.4l.1-.2-.2-.5h-.7v-.4H16v-.3l.3-.2v-.2l-.3.1h.3l.1-.3v.1l.2.1h.4V72h.5v-.2h.5v.2-.1h.3v.3h1l.8-.2-.7-.3h.4l.2-.1h.2v.4l.4-.3h.7v.1l.1.2h.2v-.6h.1V71h.1v-.2h.8v.2h.4v-.2h-.2v-.2h.2v.4l.2.3h.1V71l-.1-.1H23h.3v-.3.2h.2l.1-.1v-.3h-.4v-.1l-.3.3v-.2l-.8-.2h-.3l-.6-.2h-1.4v.1h-.4v.2l.2.1h-.2v.1l.1.1v.2l-.2-.4v.4-.4H19v.5l.1.1H19v.2h-.3v-.4l-.2-.1v-.4h-.2l-.1.2H18l-.4.1v-.3h-.4v.4h-.3v-.3.2h-2.2v-.2h-.2l-.3-.1-.3-.3h-1.1v-.2h-.3v.2h-.3l-.2.1h-.2l-.2.1h-1.3l-.1.3H10v-.4h-.3l-.2-.1h-.2l-.2.4h-.8v.1l-.3-.1v.2h-.7v.2h-.1l-.4.4v.2h-.7l-.3.2H5l-.2.1-.1-.1v.2h-.3v.2l-.2.4-.2.1h-.2v-.7h-.4l-.1.6-.3.1v.2l.2.3h.5v-.2.2h.2-.4v.4h.2v.2l.1.2v.3l-.3.2-.2.3v.2l-.2.2v.3h-.3v.5h-.3v.3H2zM5.2 75v-.2h.4v.1h-.4zm1.8.8h.5-.2zm3-1.9v-.4l.4-.1h.2l.2-.4.2-.3h1l.4.2.3.1h.4v.4h.3v-.1h.3v.2h.1l.1-.1v.3h.6v.3h.1l.4.2.4.2h.5l.3.1-.2.1h-1v.1l-.4.3-.2.3v.3l-.3.2v.2H14l-.3.2v.2l-.2-.2h-.1l-.2.1H13l-.5-.3-.5-.4h-.3l-.2.2-.3-.4-.3-.1h-.2l-.2-.3.2-.2v-.3l-.1-.2h-.4V74h-.4zm5.8-2.3v-.2l.2.1h.2v-.3l.4-.1h.2l-.1.3v.3H16zm2.2 5.6h.2l.6-.5h.4l-.2.3-.1.1v.2h.1v.2h-1zm91.2 189.4l.3.3h.1l.4-.6h.4l.4.2-.1.1h-.3v.4l-.1.4.2.1.4-.3.7-.5.2-.1v-.3l.2-.3h.2v-.6h-.2l.2-.1.2.3.3.3.3.1.3.5.3.1.5.1h.4l.4-.2.3-.5.1-.4h.8-.1l-.2.4h.2l.2.3h-.2v.2l.2.1.2-.1.2-.5h.2l.3.6.2.2.1.2v.2l-.2.5v.7l.6.3h.9l.2-.3v-.4l-.2-.2v-.2l.3-.1.4-.5h.1l-.2.5h.2l.3.3h.2l.1-.3.4-.2.1.1.1.1-.3.3v.5l-.3.3v.4l.4.2.6.2.2.2v.2h1v.2l-.2.3h.4v-.6.3-.5h-.4v-.3h-.7v.2h-.1l-.3-.2v-.9l.2-.1.3-.2h.3v-.2h.2v-.2h.1v-.9l-.3-.2v-.5h-.2l-.1-.4v-.1h.1v-.5l-.3-.1h-.3v-.2l.1.2v-.3h.4v-.2h.2v-.4l.3-.3v-.3h.3l.2-.4h.2l.3-.2v-.3l.2-.3V261h.2v.3h.3l.1.1.2.2.4.2.4.2h.2v.1l.1.2v.1l.2.2v.1h1l.4-.1.1-.1v-.8h-.2v-.4l.4-.2v-.1h.1v-.2h.1l.2-.3.3-.3.4-.2h.1v-.1l.3-.2.2-.2v-.1h.3V258l-.2-.3v-.2h-.1l-.1-.2v-.1h-.2l-.2-.2h-.2l-.2-.3h.3-.6v.3l-.2.2-.5.3-.7.3h-.1l-.1.1h-.5l-.4.3h-.3.1l-.2.1h-.3v.2l-.3.2v.2l-.2.2-.1.4v.1l-.5.4h-.2v.1h-.4l-.1-.1h-.3v-.2h-.7v.2h-.2v.2l-.2.1v.2l-.3.3h-.6l-.1.2v.4h-.1l-.2.2h-.1v.4h-.3l-.2-.2v-1h-.2l-.1-.2h-.2v.2l-.3-.2v.2h-.2l-.2.2v.3h-.2.2v.1l.1.3.2.3v.4l-.1.1v.2h-.2l-.3-.3h-.4v-.2l.1-.2v-.2l.2-.3h-.1l-.3.2v.1h-.2v.2l-.2-.1h-.5l-.3.4v.2l-.4.4-.1.1h-.5l-.2-.1-.3-.3-.3-.1h-.9l-.6.2-.5.6-.2.3-.5.3h-.3.4l.1.5-.3-.4-.7.3-.7.3-.3.4.3.4h-.3v.6zm-32-228.9h.2l.1-.2.2.2v.1l.1.3v.7h.4v-.3h.5l.1.2v.3h.1l.4.2v.3h.1v.3l.4.4h.2l.3-.2h1v-.4l.7-.3v-.2l.3-.3-.3-.1h.4l.1-.3h1.1v-.2l.1-.2.1-.3-.2-.2h-.4l.1-.4h.6v.2h.5V37l-.2-.1h-.5v-.4l.3-.1.5-.4h.1l.6-.1-.2-.2.2-.4.5-.1.3-.3.2-.2h.2l.4-.9h-.1l.3-.2.2-.5.2.2.6-.3h-.6v-.2l.4-.3.2-.3-.2-.2.6-.2-.1-.2-.2.1.2-.2h.2l-.2-.2v-.1l.1-.2v-.3l.4-.1.2-.2h.4l-.1-.2h-.2l-.1-.3-.2-.2.2-.2 1-.5 1-.4v.2l.3.2v.3h.2V29l-.3-.4v-.3h.4l.2-.3.4.4h.2l-.2-.1-.2-.2.3-.2 1-.5h.3l.2-.4h.2v-.2l.1-.2h.1v-.4h.3v.3h.1l-.1-.5h.3v-.2l.2-.3.2.5.3-.2h.2v-.1l-.3-.1.4-.2v-.1l-.5.2H95l.2-.3 1-.2h.3l.7-.3.6-.3-.2-.2.1-.1.3-.2.2.1h.5l1.1.2.3.1h.6l.6.2.2.2 1.3.5 1 .3h1.2v.4h.3v.4l.5.2h.7-.1l-.4-.2h-.5l-.2-.6h.4l.5-.2.8-.2.3-.3.3-.2h.4l-.2-.3h-.4V24l-.2-.5-.2-.5.5-.7.3-.6h.2l-.1-.3.1-.5h.1l-.1-.2-.3-.2.3-.3h.6l.3-.2.3-.1.5-.3.5-.1.8-.1h.6l.7-.2.5-.4h-.6v-.3l.2-.1-.2-.2V18l.2-.2.3-.6h.3l.2-.2v-.6l-.4-.1-.4.4h-.6l-.5.3-.8.7-.5.5-.5.4-.3.3-.2.3-.5.4-.5.2-.5.2v.3l-.2.7v.5l-.2.5-.5.9-.3.6-.3.5h-.3l.3.1-.3.2-.4.3-.5.1h-.5l-.6-.1-.7-.3-.6-.3-.4-.1h-.5l-1.1-.1-.4.2h-.6l-1-.4h-.5l-.5.5-.7.3-.3.2v-.2l-.5-.1h-.5v-.2h1.3V24h-1.6v.2h-.3v.3l-.3.1-.1-.1v-.2H94l-.2.3h-.1l-.2.2.2.2h.2l.3-.3v.3l-.2.3-.2.3-.3.4h-.3l-.1-.2v-.2h-.7l-.1.3v.1l.7.6-.5.3h-.8l-.3.1.3.2-.7.1-.7-.3-.5-.3h-.3l-.5-.1v-.2h-.2l-.2.8h-.4l-.2.1-.3.2h-.3l.1.2-.2.5v.8h-.5l-.2.2H86l-.2.2-.1.6-.1.5.3.3h.1v.9l-.2.2v.1l.1.1v.1h-.3v.2h-.4v.2l-.2.1-.5-.1-.4-.4-.3.3-.1.2-.1.3h-.3l-.1.4h-.3v-.3l.1-.2h.2l-.2-.2h-.2l-.3.7h-.1l-.2-.4v-.1h.3l.2-.3v-.3h-.1l-.1.3h-.2l-.1.1h-.3l.3.7h.5v.4h-.3l.2.3-.3.3-.1.3v.8H82v.4l-.4-.2v-.4l-.4-.5v-.2l-.2.1h-.2v-.3l-.1-.1-.2-.3v.1h-.3v.2h-.3l-.1.2h.1l.2.2v.1h-.3l-.1.5h-.1.3l.1-.3h.4l.3.6v.2l-.1.2v.2l.4.2.2-.3v.3h.4l.1.1v.3l-.3.2-.2.2-.2.2.1.2-.1.2h-.1l-.2.5h-.4L80 38v.3h-.3v.2h-.2l-.4-.2h.1l-.1-.3h-.3l-.2-.3v-.4l.4-.2h.6l.2-.1-.1.2v.1h.3l.1-.3v-.2h.2v-.1l-.3-.4.3-.1V36l-.3-.4-.2.1-.1-.1h-.3l.3.6h-.4l-.2-.3.3-.6h-.1l-.3.2-.1.1-.2.5h-.2l.2.3h-.2l-.2.3-.5.1-.2.2-.1.2-.1.3-.2.1zm34.3-20.2v-.2l.3-.1h.1l.4-.1v.4l-.3.3h-.2zm44.9 61.2h1.1l.3.1.2.2h.3l.2.2h.4l.3-.5h.3l.6-.2h.3l.4-.1.7-.1h2.7l.4-.1h.6l.3-.1.4-.2.3.2h.2l.2.4h1.4l1-.4.2-.1h1.1l.3-.2h.4l.6-.2.4-.2 1-.4h.3l.4-.3h4l.3.2 1 .2 1.6.4h.2l.3-.2h.3v.3l.6.2.4.2h.6l.1.2h.9l.1.1h1.7l.6-.2.3-.2h.4l.2.4h.7l.5-.5h.1l.1-.4V77l.3.3.2-.4v-1l-.2-.1-.3.2h-1.2l-.8.3h-.4l-.4.2h-.7l-.2-.2h-.8l-.2-.2h-1.2l-.4-.1h-.3l-1.6-.6h-1l-.2-.2-.3-.2h-.8l-.4-.3h-1.5l-.9-.2h-.7l-.6-.1h-.2l-.3.6h-.2l-.2.2-.4.1h-.3l-.4-.2-.3-.1h-.4l-.3.2-.6.3-.3.1h-.3l-.3.1-.7.1h-3.1l-.3-.2-.1.2h-1.2l-.2-.3h-1.4l-.2.3h-.7v-.4h-.9l-.3.1h-.5v.2h-.3l-.2.1v.2h-.3v.2l-.2.1-.2.3-.3.1h-.6l-.5-.2h-.2l-.2.7v1.4l-.2-.2-.2-.1v.3zM56 264.8v.6l.1.5.2.5.2.7.3.7.2.4.3.6.1.3-.1.8-.1.3-.2.9v.4l-.2.4v.6l-.1 1-.2 1.4v1.1l-.1 1v.8l-.2 1v1.8l-.2 1.8v.6l.3.3.5 1 .2.4v1.8l.3 2 .1 1.5.6 1.8.6 1.7.4.8v.4l.1.8.2.9v2.6l.1 1 .2.5-.1 1.3v.4l-.5 1-.3.5-.3.4-.5.6-.7 1.1-.7 1-.2.4-.2.8v.5l.2.5.3 1.3.4.2.3.5.5.3.6.3.6.2 1.7.5.5.1 1.7.6h.3l1 .8.5.2h.7l.3.4.9.4.3.3.4.9.3.6.4.8.2.6.3.9.3.6.4.9.3 1 .5.7.9.6.9 1 .5.6.4.8.5 1.1v1.8l-.2 1.4-.1.6v3l-.2.5-.1.5v1l.8 1 .6 1.7 1 1.7 1.5 1.7.4.7 1.1 1.6v.4l.1.4.3 1 .6.8.2.6.8.9.2.3.6.7.2.2.8.2 1 .1v-.5h-1l-.6-.4-.4-.4-.9-1-.4-.4-.6-1.1-.1-.5-.3-1.2-.6-1.5-.4-.5-1.2-1.6L75 338l-1.2-2.3-.5-1v-.7l.1-.3.1-.7v-3.8l.3-1.9v-1.2l-.8-1.6-.4-.7-.6-.6v-.2l-1.4-1.3-.6-.3-.2-.5-.2-.8-.4-.7-.2-1-.8-1.8-.2-.7-.6-.9-.4-.7-.3-.1-.7-.3-.7-.3-.6-.3-.5-.1-.8-.7-.6-.2-1-.4-1.1-.3-1.1-.3-.9-.3-.5-.3-.2-.2-.5-.2-.3-.4-.2-.4v-.5l-.2-.4v-1l.2-.3.3-.6.3-.5.5-.6 1.1-1.6.3-.4.3-.6.3-.8v-1.9l-.2-.5-.1-.6v-1.4l-.1-1v-2.3l-.4-.5-.3-1-.5-1.3-.2-.9-.3-.8v-.8l-.2-.6v-.8l-.1-1.2v-1.9l-.7-1.1v-.3l-.4-.6v-1.1l.1-.7v-1.2l.1-.7.2-1v-1.3l.2-.7.2-1.2v-.8l.2-.5v-.9l.2-1.2v-.4l.4-.4.1-.4v-.6l-.3-.6-.2-.5-.3-.4-.3-.7-.3-1v-.4l-.3-.6v-.9l.4-.5.5-.4.6-.6.4-.3.2-.5.2-.2.1-.1v-.1l.2-.2v-.3h.1v-.3l.1-.1v-.6h.1v-2.2l.1-.1v-.2h.1v-.3h.1v-.3l.1-.2v-.3h.1v-.7l.2-.2v-.2h.1l.1-.2v-.2l.1-.2h.1v-.2h.2l.1-.2.1-.3h.2v-.1h.1v-.2h.3v-.2l.1-.1h.3v-.4h.2v-.3l.1-.1v-.3h.1l.1-.3v-.9l-.3-.3v-.1h-.1l-.1-.1v-.2l-.2-.1-.1-.2-.2-.2-.1-.2h-.2v-.2H61v-.2l-.2-.1v-.3h-.1v-.2h-.1v-.3l-.1-.2v-.1l-.2-.1v-.1l-.1-.2-.2-.3-.3-.2h-.2v-.3h-.2l-.2-.4-.2-.1h-.2l-.1-.2v1h.4v.3h.3v.2l.2.1v.2l.3.1.2.3v.3h.2v.4l.3.2v.4l.1.2.2.2.2.2.2.2.1.2.2.3.2.2v.3l.2.2v.6l-.2.1-.1.3-.1.1h-.2v.2h-.2l-.1.2h-.1l-.1.1h-.1l-.1.2-.1.1v.1l-.3.2v.1h-.1v.3H60v.3l-.2.1v.2l-.2.2v.1h-.1v.1l-.1.1v.3l-.1.1v.3l-.1.1v.5h-.1v.4H59v.6h-.2v.3l-.1.1v.1l-.1.3v2.7l-.3.5-.3.1-.3.4-.5.4-.4.5-.4.4-.4.6zm0 0"/><path d="M46.6 60.2l2 2.7h.2v.3h.2v-.3l-.2-.1v-.5h.2l.1-.1.1-.2v-.2h.4l.1-.4.7-.3h.1l.2-.4h.3l.6-.2h.4l.3-.2h.8l.2-.2.2-.1h.1l.1-.1h.3l.1-.4h.3l.8-.5h.3l.2-.4h.2l.1-.1.2-.1.3-.1h.9l.2.1-.2.3-.4.1v.2h.2l.3-.4h.1v-.1l.6-.2.1-.1.3-.2.1-.2v-.2h.3l.2-.2.5-.4h.3v-.2l.1-.2.5-.1v-.2h.3V56h.1v-.1h-.2v-.2l.2-.2v.4h.2l.1-.4V55h-.1l-.2.2h-.2v-.5l.4-.2.1-.3v-.6l.2-.2.1-.2V53l.2-.1v-.1l.2-.2.3-.2h.3l.4-.4v-.1l.5-.3.3-.5.2-.1h.3v.1h.3l.4-.1.3-.3.2-.1h.5v.2h.1l-.1-.2v-.2l.4-.3-.4-.5v-.2l.2-.5.2-.2v-.2h.3v-.3h-.2.3V48l.5-.2h.6l.4.2v.2h.7l.4-.3.1-.4h.2v.1l.2.4h.1l.3.3-.3.1-.2.2v.4h.2v.2l.7-.1.2-.1.3-.3.1-.2h.1l.1-.3V48l-.4-.3-.4-.1-.2-.4V47h-.1v-.3h-.3v.2H70v-.3l.2-.3.2-.2h.2l.4-.2v-.1l.2-.2v-.3l.1.1.1-.1V45h-.2v-.3l.2-.1.4.4h.4l-.2.3h.4l.3-.1h.5l.1.1h.5v.4h-.1l-.2-.3v.3l-.2.3h.2l.5.2h.2l.2-.4.6-.4.2-.3v-.2H75v-.4h.1l.3.1h.2l-.1-.1h-.2v-.3l.2-.2.7-.4v-.5l.3-.1h.6l.1-.3h.9l.1.1.2.2h.1v-.4l-.3-.3.3-.2.1-.2-.2-.3v-.2h.3v-.3h.3l.1-.2.3-.2.1-.1.2-.4-.2-.5-.1.3-.2.4-.3.2-.3.2h-.2l-.2.4h-.5l.1-.2v-.2h-.1v.2h-.4l-.3.2h-.4l-.3.2h-.2v.6l-.1.3-.2-.1V42h-.3l-.1.2-.2.3h.2v.2h.5l-.3.3-.4.6h-.4l-.2.3H74v-.4h-.2v.1h-.7v.3h.3v.4h-.7v-.1h-.4v-.1h-.5l-.1-.1h-.1l.2-.3h.2l.3-.3v-.1l-.3.2v-.4.3l-.3.2h-.3l.1.2v.4h-.3l-.5.6v.2l-.1.2-.3.1-.2.1-.2.3v.3h-.2v.6l-.1.1h-1l-.1.3h-.1v-.2l-.3-.1-.2-.2.1-.1v-.1h-.4l-.2-.3h.1-.1l-.2.5v.2l-.2.1v.2h-.2v.3h-.2V47l-.6.7-.4.4-.2.6H65l-.5-.2h-.4l-.2.3-.4.3-.4.1-.4.3-.2.2-.1.2H62v.2-.1h-.1v.2h-.3v.2h.2v.3h.2v.1l-.2.2v.3l-.3.1-.1.3h-.3v.3H61v.5h-.2l-.1.3-.2-.1v.3l-.2.4v.1l-.1.3v.1l-.2.3v.1l-.2.1-.1.2h-.1v.4h-.2v.1h-.1l-.3.5h-.1v.3h-.3v.1h-.3.3l-.3-.3-.1.3h-.5v.1h-.6v.2l-.5.1v-.2.3l-.2.2h-.1l-.4.3h-.2l-.1.2h-.2v.2H55l-.2.3h-.1l-.2-.2v.3h-.7v.2h-.1v-.2l-.2-.1-.2-.2-.3-.1v.1l.2.2h.2l.1.3-.2.2h-.1l-.5.1H52l-.2.1h-.1l-.3.1-.3-.1H51l-.5.2h-.1v.2h-.2v.2H50v-.3h-.3v.3h-.3l-.1.1h-.1l-.2.2h-.7v.2H48v.2h-.3v.1h-.2v.1h-.6zM70 48.8v-.1l.2-.4h.1v-.7H70v-.5h.4v.1l.1.2.2.2.2.2v.4l-.2.2v.1h-.3l-.1.2zM13 63.2l.3.2h.4v.1l.1.5v-.3h.5l-.3.2v.1l-.2-.1v.1l-.1.3v.2h.1l.2.3h.6v.2h.6v-.3h.5v.1l.1.2h.2v-.4l-.3-.1v-.1l.3-.3.2-.1h.2v-.3h.3v-.1h-.2v-.1.3h.3v-.2H18h-.2.2l.3.1v-.1l.3-.1h-.2v-.2h.6l.3.3h.2v-.2h.2v.4h.3v-.2l-.2-.1.2.2v-.1.1h.3v.2h-.7v.3h.4l.2.2v.3h.5l.1.3h.4l.2.2h.1V65l-.2-.2v-.2h.3l.3-.2.1-.2-.4-.2v-.2h.7v-.2h.3l.2-.1h.2l.2-.2.3-.3.2-.3h.3v-.3h.6l.4.4v.1l.3.2v.2l.1.1.1.1h.2v.2h.3v.2l.3.2h.1v.2h.5l.4.3h.6l.2.3v.6H28v-.1.6l.1.3v.3H28v.1l-.2.2v.1l-.2.2h-.1l-.2.3h-1l-.8-.3h-.7v.1h-.5v.2H24l.1.2h.9l-.3.1v.2l-.2.2h-.1v.2h.2l.2.1v.3h-.4v.2h.3l-.3-.1v.1H24v-.3.3h-.2v.2h1.6v.2h.4v.3h.3l.3.1v-.2h.5v-.1h.2v-.2h.6v-.1h.6V69h-.2.6v-.2h.1v-.1h.2-.1v.3h.4l.1-.2v-.1h.2v.3h.4v-.3h.3v-.2l.3-.2h-.2V68h.3v-.2h.1v-.1h.2v-.1h.3v-.2l.2-.2h.1v-.1h.2V67l-.1-.3-.2.3h-.3l.3-.4-.2-.2v-.1l-.1-.2-.2-.3v-.5h-.3l-.1-.1v-.3h-.1v-.2h.1v-.2h1.1v-.2l.3-.2h.1V64h.1l.3-1.2-.1-.4-.2-.1V62h-.7l-.2.2v.1h-.2v.2h-.9l-.1-.3v-.4h-.4.2v-.3h-.7l.2.4h-.2l-.2-.2h-.4l-.2-.2v.3h-.2v.2H28v-.3h-.2v.3l-.1.1h-.2v-.3h-.1v-.1h-1.8l-.2-.2v-.1h-.3l-.1-.1h-.1v-.2l-.3-.1h-1v.1h.2v.2h.1v.4l.3.3h.4v.2l-.2-.2H24v.1l-.2-.2h-.1l-.1-.2-.2.2h-.2v-.2H23l-.1.2v-.3h-.3l-.2-.3H22v-.1l-.1.1-.1-.1-.2.3-.2-.2h-.1V61l.1-.5h-.6l-.3-.1-.3.2v.1h-.9v.1H19v.2-.2h-.4v.4l-.2.1h-.1v.5h-.4v.1h-.2v.1h-.1v-.4h-.5l-.1.4h.3v.1H17v.2h-.1v.4h-.6v-.3h-.1v-.3h.3V62H16v.2h-.7l-.3.5h-1.6v.3h-.1v.3l-.2-.3zm4.9-.8v-.1h.1v.2h-.3zm2.7 1.8V64h.3v.3zm6.9-1.2l.1-.2.4.1.3.3v.1h-.6l-.1-.2zM7.7 87.7v.2l.3.1v.2h.2l.1.1h1v-.7h.4l.3.4h.4v-.2l.4-.1.2-.3v-.3l-.1-.1v-.2l.1-.2v-.3l.3-.3h.3l.2.2h.2l.4.2.1.3-.1.3h-.5l-.1.4h-.3l-.4.4H11v.2l.2.1h.1l.1-.1h.2l.3-.2.3-.1h.3l.2-.1h.3l.2.4h.6l.4-.1.2-.3h.5l.3-.1h.1l.7-.3.3-.2.2-.4.1-.1.2-.3V86l.3-.3v-.4L17 85l.2-.2.1-.2.2-.2v-.3l.3-.1v-.2l.5-.4v-.2h-.4l-.3.3h-.3l-.2.2-.3-.1h-.1l-.2-.1h-.2l-.2-.3h-.3l-.3.3-.2.2v.3H15l-.1.2h-.3l.1.2H14l-.5.4-.4.5-.3.1v-.1l.2-.3.2-.2h.2v-.1H13v-.3l.3-.4-.3-.1v-.3h-.2l-.3.6H12v-.5h-.2l-.1-.2.3-.5v-.4l-.1-.2h-.5l-.2.4h-.3l-.1-.4v-.1l.2-.5.4-.4 1-.6.4-.1h.3l.1.4.2.3.2-.2.4-.3h.3l.1-.4h-.1l-.3-.3v-.6l-.4-.2-.2-.1-.4.1-.4.4-.8.4-.4.1h-.3l-.2.1h-.3l-.4.9.2.2v.2l-.4.1-.1.3-.4.2-.2.3v.8h.4l.3-.6h.5l.3.4.2.8-.3.3h-.1v.4h-.4l-.1.3-.1.2-.7.2-.1.1-.5.3v.4h.1v.3l-.4.2v.3l-.2.2h-.1l-.2.3h-.2zm168.5-63.5l.2.1.1.2.3.1h.2v-.2h.7l.2-.4h.4l.9-.3.5-.5.4-.2h.3l.6-.3v-.4l.3-.2h.1l.1-.2h.4l.8-1.1.6-.8v-.4l.3-.2v-1.1l.3-.4h.1l.4-.1v-.2h.1l.1-.2.2-.1V17l.2-.2.2-.1.9-1.1.5-.7.2-.4.8-.5.7-.6.1-.2v-.6l-.3-.1V12l-.5-.2v-.1l-.3-.4h-.1v.2l-.4.2-.3.4h-.3l-.4.7-.5.7-.4.6v.2l-.5.5-.1.2h-.3l-.5.8-.3.4-.2.8-.2.2-.3.2-.5.6-.6.7-.4.7-.6.7-.8.7-.9.6h-.2l-.5.4-.3.3-.4.2h-.3l-.4.2-.1.1v1l-.2.4zm52.5 219.5v.3h.2v.3l.1.1h.2v.2h.1v.4l.4.2.1.4.2.1v.2l.3.1v.4l.2.2.2.5v.1l.1.1.2.3v.1l.3.3.1.2v.1h.2v.3l.1.1v.6h.1v.6l.2.3v.8h1v.2h.3v.1h.3v.1h.4l.4-.4h.1l.3-.2v-.1l.2-.1v-.9h-.2v-.4h-.3v-.1h-.1v-.6h-.1v-.2l-.1-.2v-.6h-.1v-.2h-.1v-.4h-.2v-.6h-.1v-.1h-.1l-.1-.1h-.3V245l.3-.3v-.2l.1-.1v-2h-.4v-.2l-.2-.1h-.5l-.1-.1h-.3v-.2h-.1v-.1h-1.2v.2h-.2v.1h-.4v.2h-.2v.1h-.2v.2h-.1l-.1.1v.1h-.1v.1h-.1v.2l-.2.1h-.1v.2h-.1v.1h-.2v.2h-.1zM3 135.2v.5l.3.5v.7l.2.5v.9l.5 1.5h.3l.2.5h.2l.1.2h.3v.7H6v-.2l.3-.2h.5-.3l-.2.2v.1l.2.2.1.1h-.2l-.4.4v.7l.4-.2h.2v.3h-.1l.1.2h.5l.8-1.6h-.3v-.5l.2-.2.2-.2.2-.6.1-.2v-.7l-.1-1.6-.4-.3v-.6h-.2v-.3h-.2l-.2-.5H7l-.3.2v-.5h-.2l.1-.2-.3.1-.1.2v-.1l-.2.2h-.4l-.2.1v.2H5v-.3l.7-.3v.1-.2h-.4v-.3H5v-.7l-.5-.2h-.3v-.2H4v.4h-.1v.2l-.2-.2h.1v-.5.2h-.3v.1l-.1.3v.6H3v.3zM263.8 36l.1.4v.2l.5.1v.5l.1.3.2.3h.1v.5l.2.1v1.3l.5.1v1l.1.2v.4l-.3.2v.3h.2l.2.2v.9l.3.3v.3l-.4.2.2.2-.1.2v1.4h.3l.1.3.2.1v1l-.3.1.2.5v1.2l-.2.2h-.3l-.3.5v.3h.4l.2.2v.4l.2.1.2.1.4.1.5.3h.7l.7.2h1.3l.5.2h.2l.3-.2V51h-1l.2-.3h-.6v-.6h-.3V50h-.2l-.1-.2h-.3v-.2h-.2l.3-.1h-.4l-.1-.1h-.6l-.2-.4-.1-.2v-1h-.3v-.6l-.1-.3v-.4h-.2l.2-.3V46h-.4l-.2-.3v-1.5h.2-.3v-.4l.4-.3v-.1l.3-.1h-.6V43h.1l.4-.2v-.2l-.3.1h-.2l-.4-.3h.8l.1-.1v-.4l-.3-.1h-.1v-.4l-.2-.1v-.4l.2-.2.1-.1.1-.3h-.2l-.5-.2-.1-.1v-.8l-.1-.4h-.2l.2-.3-.3-.3-.1-.2-.2-.1-.1-.4v-.3h.1v-.9l.3-.1v-.5l.2-.4.1-.6.1-.3-.3-.4-.1-.3.2-.1v-.1l-.1-.2v-.5l.3-.1-.2-.3-.2-.2-.1-.3-.4-.2-.3.3v.2l-.3.3v.5l.2.2.1.1v1.3h-.6v.3l-.1.3v.4l-.3.1zM135.7 5.6v.3h.5v-.3l.1.2h.1V6h.5l.3-.3v-.4h.3V5l.2-.1v-.3h.1v-.1l.2-.2V4h.3v-.2h.2v-.3h.2l.3-.3v-.1l.3-.2v-.2l.4-.3v-.2l.4-.2.1-.2h.1l.1-.1h.2v-.1h.2v-.2h.2v-.1h.2l.3-.5h.3V.6h.4l.2-.2.3-.1.1-.3.5-.2h.3v-.2l.2.2h.3l-.2-.3-.2-.1v-.2l.3-.2h.3l-.3-.1h-.2l.4-.2v-.2.1l-.3.2v-.4l.1-.2h.5l.2-.2v-.4h.3v-.2l-.3.1-.2.1v.4h-.3v.2h-.2v-.5l.2-.2.2-.1.2-.4v-.3l.2-.1v-.1l.4-.1.4-.8-.2-.2h.2l.2-.2v-.3l.2-.1v-.1l.3-.2v-.4h.4v-.5l.1-.1-.4-.4h-.2v-.2h.2v-.1l.2-.2h.1l.3.1h.1v-.2h-.1v-.3h.1l.3-.2h-.3l.2-.4.2-.2v-.2l.2-.2v-.1l-.3-.3h.2v-1.1h.1v-.6h.2v-.4l.1-.3v-.2l.2-.4.1-.4.1-.2v-.1h.1l-.3-.3v.3h-.2v.7l-.2.2-.2.5v.5l-.2.5h-.4l-.4-.2.1.1v.1l.3.3v.4h.1l-.1.3v.3l-.2.4v.2l-.3.1-.1-.3v.2l-.2.3-.2.3h.4l.1-.2v.1h-.1l-.2.3h-.2v.4h.2-.6l-.2-.1v-.1h.2l.2-.2v-.6.2l-.3.2v.2h-.1l-.1.2-.1.2h-.2v.3h-.2v.2h-.2v.1h-.1l.2.2V-7l.3-.1v.1h.1v.3h-.1v.3l.2.2h-.4l-.1.2.3.4h-.1l-.1.2v.3l.2.1-.3.2v.5h-.3v.2h-.1v.3h-.2l-.4.2h-.3v.4h.3v-.2h.2l-.2.3h-.3V-4l.2-.1v-.3.2l-.3.2-.2.2v.7h.3v.1l-.3.2-.1.2h-.2v.1h-.2.3v.8h-.3l-.2-.3-.1.1v.2l-.1.3-.2-.1-.2.2h-.1.5l-.3.3h-.1l-.3.3h.1v.3h.1l.1.3V0h-.1l-.7.6h-.3l-.1.1h.1-.1l-.6.3h-.3l-.3.4v.1l-.1-.2V.9l-.1-.2v.5l-.2.1.3.2v.1l-.4.4h-.5v-.2.5h.4l-.3.2-.1.2h-.1l-.2.3h-.3v-.1.1l.1.1-.3.4v.1h-.3l-.1.3h-.2v-.8.9h.1v.2h-.1l-.2.2h-.3l-.1-.4v-.3.1h-.1v.6h.2v.4h.1v.4h-.2v.2h-.4v-.3h-.2v.5zm227 79.4v.7l.3.3v.2l.2.2.2.2v.4h-.2v1.1l.3.2.1.1v.1h.1v-.1h.1v-.3h.2v.9h.3v.3l.2.2v.1h-.5v.9l.1.2.1.2v1.4h.1v.3l.2.1.2.3v.2h.1v.1h.2v.1l.2.3v.1h.1v.2h.1l.2.1.4.1h-.3l.3.4h.2l.6-.3v-.1l.2-.2v.4l.3.3.2.1h.2l.2-.3v-.3l-.3-.1v-.5l-.3-.6-.3-.4v-.3l-.3-.3-.2-.3h-.2v-.2l-.3.1v.1h-.2l.2-.2h.3-.3V90h-.3v-.3l.3-.4v-1.1l-.2-.2v-1.3h-.3l-.2-.6-.2-.4v-.2l-.1-.2V85l-.2-.2v-.1h-1l-.3.1v.2h-.6zM29.2 70v.1h.2v.2l.1.1v-.2l.2.2h.1v.4h.6v.2h-.2v.3h.2V71h.4v.2h-.4l.3.2h.1l.2-.1.2.1v-.2h.2v.2h.3v-.1h.2V71h.5l.4-.2.2-.1.2-.3h.2v-.2h.3l.1.1-.2.2.3.2.2.3.3.2v.6l-.3.2v.1l-.1.2-.1-.2-.3-.1H33l-.5.1H32l-.3-.1v.5l-.6.1h-.2.1v.2l.4.1h-.2l-.2.1v.2l-.3.2v.1h.9v.3l.4.7h.2l.1-.1h.4v.3l.2.1v.1h.3v-.2H33v-.4l.2-.1-.2-.2.6-.3.1-.1h.1l.2-.2h.2V73h1.6v-.2h-.1v-.3h-.3v-.1h1.1v-.1h.4V72h.1v-.2h.2v-.3h.1l.2-.1.2-.3h.1v-.2h-.2l.3-.2h.1v-.3h.2v-.1l.2-.3v-.2l.1-.2h.2l.2-.1v-.2h.1v-.2h-.3v.3h-.2l.2-.2.3-.2h-1.2v.8l-.2-.3h-.2v.5h-.1v-.2h-.2l-.1-.2h-.3v-.1l-.4-.2v.2h.2l-.2.2h-.2v.3H36l-.1.2-.6.1-.7.1h-.1l-.2-.2-.3-.2h-1.2v.3h-.4V70v.4H32l-.1.1v.1h-.2v-.2h-.4l.2-.2V70v.1h-.2l-.3.3v-.3h-.3l.6-.1h.3v-.6h-.1l-.2-.1-.2-.1h-.4l-.1.3h-.2v.2h-.3v.1H30v-.2h-.8zM81 170v.4l.2.2.1.4h.2l.2.6.4.1.1.2.4.2v-.3h.2l.2.4h.2v-.4l.3.5h.2l.2-.2.1-.2.5-.7v-1.1l-.3-.3v-.2l.4-.1.2-.5.2-.2.3-.2v-1.1l-.3.1h-.1v-.6h-.5l-.1.2H84V166l.2.1.3-.1v-1.3h.3l.2-.1.3-.2.1-.2v-.3l-.1-.4-.5-.2-.3.1v.2l-.2.4.2.4h-.1l-.2-.2-.4-.2h-.5l-.3.3v.5l-.1.6-.3.5v.7l-.2.1v.3h.2v1.2l-.2.2v.2l.1.2.2-.1h.8l.1.3-.6.5h-.5l-.1.1h-.2l-.2-.3h-.1l-.3-.4-.3.1v.4l-.3.3zM302.7-8v1.6l.3.7.2.3.4.4.2.1v.5l.4.4.2.3.1.3.2.3.3.4.5.4.4.4v.3l.7.6v.6l.3.7v1.4l.1.6.3.5.3.5v.2l.4.2v.5l.3.3.3.5.1.2.3.6.1.2.2.1.2.1.2.4v.6l.3.4v.7l.5.4V9l.3.6v.4l-.2.1.2.2.3.4.5.5h.2l.5.3.3.1.4.4.2 1h.3l.2-.4v-.3l-.3-.2v-.5l-.4-.4-.5-.2h-.2l-.1-.4h-.2l-.1-.2-.2-.4v-.3h-.2l-.3-.6v-.6l.1-.5.1-.5V7l-.3-.3-.3-.5h-.3l-.2-.2-.3-.2h-.7l-.2-.3-.3-.5-.2-.3-.2-.2-.1-.3-.1-.2-.2-.4V2l-.4-.6V.8l-.3-1.2-.3-.5v-.2l-.2-.7-.2-.3-.4-.6h-.1l-.3-.4-.2-.3-.3-.3-.4-.5-.3-.2-.1-.6v-.9l-.2-.1v-1.9L304-8l-.2-.4-.1-.6v-.5l-.3-.4-.2.3.1.1.1.3v1l.4.7.2.2v.8l.2.7-.2.4-.2-.1-.4-.4-.3-.3v-2h-.2zm.5 2h.2v.4-.1zm.5-2h.1l.3.1v.3l-.1-.2h-.3zm3.3 9.2V.8l.4.7V2h-.2v-.4zm2.8 5.5v-.3h.2l.2.5.3.1h.1v.4l.2.3v.6l-.3.2v.2l-.2-.1V8l-.1-.2v-.3l-.2-.1v-.5zM310 8v-.4l.3.2v.5h-.3zm0-1.6h.5l.1.3v.1h-.2l-.2-.3zm1.2 2.9l.1.2.2.3v.2h-.1l-.2-.1v-.4zM91 155.5l.4-.1.8-.1.4-.3h.4l.4.3h.6l.6-.5h.9l.4-.2h.3l.1-.1.4-.3-.3.1h.1l.6-.7.7-.6.6-.5.8-.5.4-.3h.4l.5-.1.7-.2h1.1l.7.1.4.1.6.2.7.2.5.2h.8l.3-.2.5-.3.2-.3.1-.4.1-.4v-.3l-.4-.3-.1-.5-.1-.4-.4-.8-.2-.5-.1-.3v.1l-.2-.2v-.4l.3-.7v-.1l.3-.3v-.3l.3-.6.5-.6.5-.6.6-.6.2-.4.2-.3.2-.4.3-.6.3-.8v-1l-.4.5v.1l-.1.3-.3.5-.2.4v.5l-.4.2v.3l-.5.5-.7.8-.4.4-.4.6-.2.8-.4 1-.1.5v.9l.3.5.3.7.4.7.3.6v.9l-.3.1-.3.1-.2.1h-.9l-.5-.1-.4-.4h-.7l-.3-.2h-.2l-.8-.2-.2-.1h-.3l-1.2.3-.9.3-.3.1-.3.1-.5.3-.7.6-.6.6-.4.5-.6.5-.5.2-1 .2-.3.2h-1.6l-.8.1-.8.2zm0 0"/><path d="M313.1 15l.4 1 .3.3.3.4.2.3.2.3v.3l.2.4v.5l-.3.4v.1l.2.4.4.2.3.2.8.2.2.2.4.2.3.2.4.5.1.3.2.2.2.6.1.6.4.2.2.5.1.4.3.3.3.4v.4l-.1.2v1.5l.5.5v.5l.3.6v.4l.4.5.3.2.5.6.1.3.7.8v.2l.1.3v.4l-.3.2h-.1v.8l-.3.2v1.1l.4.6.1.1.4.3.3.2.3.3.2-.1.1-.2-.2-.2-.3-.3h-.1l-.3-1.1v-1.4l.3-.5v-.5l-.4-.2V31l-.1-.3-.1-.2v-.2l-.1-.3v-.2l-.3-.3v-.3l-.1-.2-.3-1-.2-.2h-.4l-.2-.4-.4-.6-.1-.4v-1.2l.1-.5v-.3l-.4-.4v-.4l-.1-.1h-.3v-.2l-.2-.1-.1-.2-.2-.5-.2-.5-.2-.4v-.2l-.3-.4v-.2l-.3-.4-.3-.2V20l-.2-.3-.4-.1-.2-.2h-.2l-.2-.2h-.4l-.2.1h-.6l-.1-.5v-.6l-.2-.3v-.3l-.1-.3-.1-.5-.1-.3-.4-.5-.3-.4-.1-.4.1-.7.3-.8v-.6l-.3-.4-.2.1h-.3l.1.5v1.4zm2.5 4.4h.7l.2.2-.1.3-.7-.4h-.1zm.9.4v-.1h.2v.3h-.1l-.1-.1zm3.5 8v-.3l.3.2.5.4v.4l.2.3.2.5v.1l-.5-.2-.2-.2-.2-.3v-.4h.1l-.2-.3zm1.5 5.7v.3l.3.2.2.7v.3l-.3-.4-.1-.3v-.4zm.1 0v-.3l.2-.1v.3l.2.2v.4l-.4-.2v-.1zM16.2 216.1l1.1.6.7.3 1 .5.6.5.8.6.5.4.3.8.3.4.1.2.2.3.1.4.3.5.3.4.4.6.4.4.2.3.5.7.4.6.5.6.4.4.5.6.2.6.4.4.5.6.5.4.8.8 1 .5.9.7.9.5.8.4 1 .6.5.3h.1l.3.2.4.1.3.1.3.2h1.1v.2h.9l.6.2h.4l.6.3.4.3.4.2.5.2h.4l.2.2v-.5h-.1l-.3-.4-.4-.1-.5-.2h-.3l-.5-.2h-.3l-.5-.3h-.4l-.2-.1h-1.3l-.5-.4h-.3l-.4-.1-.2-.2h-.3l-.6-.5-.4-.2h-.3l-.3-.3-.5-.3h-.2l-.4-.3h-.3l-.3-.3-.2-.1-.1-.1-.3-.2-.3-.2-.6-.4-.6-.5-.3-.1-.1-.1-.2-.2-.3-.3-.2-.1-.5-.5-.2-.3-.2-.3v-.4l-.3-.4-.2-.3-.5-.3-.5-.8-.3-.5-.4-.6-.2-.3v-.1h-.4l-.1-.2-.4-.5-.3-.4-.2-.6-.3-.6-.3-.6-.3-.5-.6-.6-.6-.7-.7-.4-.2-.1-.8-.5-.3-.2-.4-.2-1-.7h-.4l-.2-.1zM86 170.7v.8l.2.1.3.4.5-.3v-.7h.6l.2-.3v.3l.5-.2.2-.2.5-.2.3-.4.1-.3.3-1v-.6l-.1-.1-.3-.2h-.5v-.3l.4-.1.2.1h.2v-.3h.3l.1-.4.2-.4v-.6l-.5-.1h-.9l-.2.2h-.1l-.2.1v.4l-.7.6-.2.6v.2l-.6.4-.2.2-.3.4v.2H86v.7l.6.5.2.4-.3.3-.2-.3h-.2zm27-154.4v.1l.6-.3h.2v-.3h.4l.1-.2.4-.2h.5l.5.1.3.2h.2l.1.1h.7l.2.2.3.1h.5l.3.1.5.6.5.4.7 1 .5.1.2.4v.3l-.4.5v.5l.2.3h.6l.4-.3h1l.3-.2h.2l.2-.4.2-.3.1-.3.3-.1h.2l.4.2.5.6.4.5h.8l.3-.3.3-.4.1-.3v-.4l-.2-.4v-.4l.3-.6.3-.5.6-.6.6-.7.6-.7h.8v-.4l.3-.2v-.3l.3-.4.1-.4.3-.2.4-.2.1-.2.2-.1h1.3l.4-.4.2-.3.2-.2h.1l.1-.3v-.3l-.3-.1v-.5h.6l.2.2h.1l.3.1.1.1.5-.2h.2v-.3l.2-.1.3-.4v-.9h.2l.1.3.1-.3v-.1h-.4V7h.5v-.5l.2-.3.1-.2h-.3l-.2.3-.1.2-.2.1-.1.4h-.3v.3l-.1.5v1.5h-.3v-.1.1l-.1.1h.2v.3l-.3.3h-.8v-.2h-.2l-.5.2h-.2l-.2.5v.3l.4.2v.3l-.3.2-.4.4-.4.1h-1.1l-.3.3-.4.4-.7.6-.1.3-.3.2-.2.2v.2l-.3.1-.4.4-1 1.4-1 .7v.2l-.3.7v.5l.1.4.1.4v.3l-.4.3-.2.1h-.4l-.2-.2-.5-.5v-.4l-.5-.3h-.6l-.4.4-.1.3h-.2l-.2.6h-.3l-.5-.1h-.3l-.1.3-.7.3h-.3l-.1-.3v-.2l.4-.3.1-.2v-.5l-.3-.3-.6-.5-.4-.5-.6-.5-.1-.3-.3-.5-.2-.3-.2-.1h-1.9l-.3-.2-.8-.4h-.2l-.6.1-.5.3-.4.3-.4.1zm16.4-2l.2-.3.4-.1v-.2.4h-.2zm-133 193.9h.1l.6.2.4.2h-.2l.4.2v-.3l.4.2h1.4l.5-.1h1.3l.2.1h1.1l.7.3h.5l.8.1h.7l.4.1h.9l.2-.2H8v.3-.3h.5v.4H9v.2l.5.1h.3v.3h.2l.2.2.3.8.2.3h.2l.1.4v.3h.1l.1.1h.2-.2v-.3h.2l.2.2h.2v.3h.2v.2h.1l.1.5.2.1.1.2.5-.3-.5-.7v-.2h-.2l-.1-.4-.2-.2-.7-.6v-.1l-.3-.6-.2-.2-.3-.4v-.4l-.2-.2h-.5l-.6-.4-.7-.2H8l-.3-.3-.5.4H7l-.1.1h-.3l-.3.2h-1l-1.6-.6H3l-.6-.2-1.4-.2H-.4l-.1.2H-2l-.7-.2H-3l-.4-.3h-.2zm43.8 25.9l.3.2 1.7.5 1 .4.3.5.3.9.2.4v.6l.8 1h.2l.7.5.5.2.3.2.8.5.3.2h.5l.4-.2h.8l.5.6.6.4.7.7.4.3v.6l.1.4.5.2.8.5 1.3.8 1.1.4 1.3.5.8.7.4.5.4.4.5.5v-1l-.6-.2-.6-.8-.6-.4-.6-.3-1.5-.6-1.5-.9-1-.7-.5-.6-.5-.8-.9-.8-.8-.6-.6-.2h-.4l-.3.3h-.8l-.6-.7-.2-.1-.4-.1H46l-.4-.1v-.4l-.3-.2-.2-.3H45l-.3-.5-.2-.3-.3-.9v-.5l-.4-.4-.2-.4-.3-.2-.6-.4-.7-.3-.3-.1H41l-.4-.3h-.4zm0 0"/><path d="M323 35.8l.2.3.3.5.3.4.3.3.3.3h.1l.1.4.2.3.2.1.1.3h.2l.3.4.4.4.3.2h.4l.3.1.3.2.2.2.2.1.2.3.2.4h.2l.1.2v.5h-.2l-.2.3v.4l-.2.4.1.2.2.3h.2l.3.2h.2l.3-.3h.4l.3-.2.2.2.4.2.3.2.2.2v.6l-.1.2h-.1v.7l.1.1.2.3.1.1.4.3.2.2h.3v.3l.4.2h.6l.4-.3h.2l.4-.3h.3l.2.5v.1h.4l.1.5.1.3.1.4v.6l.3.4v.2l.3.3.2.2.4.4.3.3.3.3v-.1l.2-.2-.2-.3h-.3l-.3-.6-.2-.3-.2-.2v-.6l-.3-.7-.2-.2V47l-.3-.2-.4-.2-.3-.3-.3-.2h-.3l-.2-.1h-.2l-.3.4h-.2v.2h-.7l-.2-.3-.2-.3h-.3l-.2-.2v-.2l-.2-.2-.2-.2v-.4l.3-.3v-.7l-.3-.3-.2-.2-.3-.3-.2-.2-.3-.1h-.3l-.2.2h-.5l-.3-.4-.2-.3v-.6l.3-.2v-.2l-.3-.2v-.1l-.2-.1-.2-.2-.1-.3-.4-.2-.3-.4-.3-.1v-.2l-.5-.2-.5-.4-.3-.3-.2-.1-.2-.2-.3-.4-.4-.5V37l-.2-.4-.1-.3-.3-.1-.1-.3h-.3l-.2-.2-.2-.3-.1.3zm.6.4l.2.1.2.2v.2l-.4-.2zm2.1 2.8h.3v.2zm2.3 3.6l.1-.4v-.1h.3v.7h.1v.2h-.5v-.3zm7.4 5.7V48v.4l.4.4v.3l-.3-.1-.1-.3zM231.3 255v.5h.2v1.3l.1.1h.1v.1h.1v.2h.1l.1.3v.2h.2v.2h.1v.1l.2.2v.1h.2v.1h.1v.1l.1.1h.3v.3h.1v.1h.1l.1.2h.1v-.5h.1v-.3h.1v-.8h.1v-.6l.1-.5.2-.3v-.2l-.2-.1h-.1v-.2h-.2l-.1-.2-.2-.1v-.2h-.2v-.2h-.2v-.6l-.2-.1h-.2v-.1h-.3l-.1-.1v-.1h-.5v.4h-.1v.2l-.1.2-.2.2h-.1zm.1 1h.2zm1.8 2.8h.2v.2zM5.5 190.2v1.2l.4.4v.4l.1.5.5.7v.1l.4.1H7l.6-.1h.6v.4l.1.1v.5l-.3.1-.4.5-.2.4-.2.1-.2.4v.6l.2.2.1.4.4.4H8v-.3l.1-.1h.2l.1-.1h.2l.4.3v.1l.2.1v.8h.2v-1.2L9 197l-.3-.2h-.5l-.2.2v.4h-.3l-.1-.4-.2-.3v-.7h.1v-.2l.3-.2.2-.4v-.2h.1l.1-.1.4-.3v-.2l.2-.4v-.5h-.4v-.3l-.4-.1H6.8l-.2-.1-.3-.4-.1-.2v-.6l-.2-.4v-.2h-.2v-.5h-.1v-.5l.3-.1h.2v.4h.1l.2.2.1.1.3.2h.9l.2-.4.3-.4v-.6l-.1-.3v-.2l.2-.5.3-.5v-.7l-.1-.4H6l-.2-.2h-.1v.4l.6.2h1.8l.3.1v.3l-.4.6v.4l-.3.2v.3l.3.4h.2v.3h-.5l-.3.3h-.8l-.3-.5-.3-.1-.5.3zm0 0"/><path d="M337 50.7v.3h.3l.4.3.3.1.2.1h.3l.3.2h.1l.2.3.2.5.1.2h.2l.2.2.2-.3h.3l.2.4.2.2.3.3.2.5.2.4.2.2.1.7v.3l.3.2v.2l.3.5.2.4.1.1h.3l.3.3h.7l.2.1.1.3.4.2.1.3.2.4v1.8h.1l.4.4.2.2.4.2.2.2v.1l.4.1v.1l.4.3v.3l.4.3.1.3.3.1h.2l.2.2h.2v.3l.3.1v.4l-.1.2v.3l.1.2.3.3v.2l.2.2.1.1.2.1h.8l.2.3.2.1v.3l.3.2v.3l.2.2v.4l-.2.4v.4l.2.2v.3l.2.3.1.3.1.1.2.3.2.1.2.2v.2l-.4.2v.6l-.4.4v.3l-.2.1v.6-.2l.3-.3v-.1l.2-.2.1-.2v-.1l.2-.3.1-.2.3-.5V70l-.4-.3v-.1l-.3-.3-.1-.3-.2-.3V67l-.1-.2v-.3l-.2-.1-.1-.4-.2-.1-.3-.4-.2-.1-.1-.1-.1-.3h-.8l-.3-.2-.2-.2-.1-.2v-.1l.2-.3v-.4h-.2l-.2-.3-.1-.1-.4-.2v-.1h-.3l-.1-.3-.2-.2-.2-.3-.2-.1-.2-.3-.4-.3-.1-.1-.3-.3h-.2l-.2-.3v-.3l.2-.1v-.1l-.4-.2-.4-.6v-1.1l-.1-.2-.1-.1-.3-.4-.2-.2-.2-.4-.1-.1h-1l-.2-.4-.2-.2-.2-.3-.4-.2v-1.1l-.2-.2-.1-.3v-.3l-.4-.2-.1-.4-.3-.1-.1-.2-.1-.2-.2-.2-.5-.3v-.2l-.3-.4-.3-.1-.4-.1h-.2l-.2-.3-.3-.2h-.2l-.3-.3-.1-.1h-.3l-.1-.2-.3.2zm2.3 1h.1l.3.2.2.1v.2l-.1.2h-.2l-.2-.1v-.5zm5.7 8.5v-.6h.3l.1.4.1.1.1.1v.3l-.1.1h-.3l-.1-.3zm4 4.8h.8l.2.3v.2h-.3l-.2.1h-.1l-.2-.2v-.2zm100-25.2v.2h.4v.5l.1-.2-.2.4v.1h.1l.2.3h.1l.3-.1v-.4l.3-.2h.3l.1-.1V40h.3v-.1l.5-.2.2-.1h1.3l.4-.2v-.1h-.2l-.2-.2v-.3l-.1-.2-.2-.2V38l.1-.1-.1-.2-.3-.2-.1-.2h-.3l-.2.1-.1.2-.3.1v.2l-.2.1h-.3v.2h-.3v.1l-.2.2v.2h-.1v.2h-.2v.1l-.1.2v.2h-.5v.1h-.5zM120 146.7l.1.3.2.5v.5l.3.7.2.5v.3l.3.2.2.1h.1l.6.2h.4l.3-.3.3-.3.2-.4-.1-.4.1-.3-.2-.3-.5-.4-.5-.2h-.2l-.1-.3-.7-.2-.6-.5zM247.8 37.1l.2.2h.2v-.2h.1l.1.4h.8v.1h1.2v.1h.2v-.4h.2v-.2h.2V37h.2v-.2h.9v-.2h.2v.2h.2l.1-.3h.2v-.4h.5V36h-.5v-.3l-.2-.2h-.3v.2h-.5v-.2h-.5l-.2.4h-.1l-.1.1h-.3l-.1-.3h-.1l-.2-.2-.2-.2h-.2l-.1.2h-.2l-.3.3-.4.1v.1l-.2.1v.3h-.1v.2l-.2.1-.1-.1v-.2.4h-.3zM130.5 5v.4h.3v.2h.2V6l.6-.3h.3l.1-.4.9-1.2V4l.3-.4.3-.4v-.3l-.1-.1-.4-.1h-.2l-.4.1h-.4l-.1-.1v-.4l-.5.4h-.1l-.2.3-.2.4v.3l-.4.6v.4zm-22.9 265l.4.8-.3 1.5.7.6h1.4l.3-.9-1.7-2.1zM279.7 67.1v.2h.3v-.1h.2v.8l.3.2v.6l.1.5v.2h-.4v.4h.2v.1h.1v.2h-.2l.2.1h-.2v.2h.5V70l.2.4-.3.3h.3v.1h.3v.2l.1-.2v-.5h.9v-.4l-.3-.1h-.1v-.1l-.2-.1-.1-.3-.1-.2h-.1V69l-.2-.3v-.1h.2v-.2h.2l.1.2v.4l.1.1h.2l.1-.1.1-.2v-.5l-.2-.2V68h-.1v-.2h-.2l-.2-.2h-.3v.1-.2h-.7v-.7h-.2v-.3h.3v-.1l-.4-.2h-.2v.6l-.2.2v.2zm.3 0V67l.1-.1v-.3.2l.2.3zm.3-.9v.3zm.5 4.3h.2v.2zm71.2 49.7v.3l.3.1.1.4v.2l.3.2h1.6l.4.3.3.1.3.2.3.2v-.4l-.1-.3v-.1l-.4-.1.2-.3h.5-.3l-.3-.1-.1-.2-.3-.2-.2-.2.2-.1h.2l.4-.2h.4v-.1H353l-.3.1h-.5zm-25-45.5v.5l.2.3h.4l.5.3.3.1.5.4.4-.1V76l-.1-.4.3.1v-.1l.4-.4v-.7h-.6l-.2-.2h-.1l-.5-.3h-.2l-.3-.2h-.4l-.3.2-.2.4zm-14 63.8v.2h.5v-.3h.2l.1-.1h.1v.5h-.5v.1h-.2v.1h.6v.2h-.5v.2h.4v-.3h.1v-.1h.1v-.2h.1v-.2h.2v-.1h.1v-.2h.1v-.1h.1v-.6h-.3v-.5h.3v-.3h.2v.2h.1v.2h-.2v-.2l-.1-.3h-.1v-.1h-.1v.3h-.1v.1h-.1v-.3.6h-.1v.2h-.6v-.8h.3v-.2h.1v-.3h.1v-.1h.1v.3h.2v.1l.1.1v.2h.1v-.3h.2v-.1h.2v.3h-.4v.1h.4v-.3h.1v-.3l-.3-.1v-.1h.4v-.3h-.3v.3h-.2v.2h-.1v.1l-.1.1v.1h-.2v-.3h-.1v-.1h-.2v-.1h-.2v-.2h-.1v-.2h.7v-.2h.1v-1h-.3v-.3l-.2-.1v-.3h.4v.3h.1v.2h.5v-.2h.1v-.2h-.3v-.1h-.2l-.1-.1h-.2v-.2.4h-.3v-.4h.2v-.1h-.3v.3h-.2v.1l-.1.1v.2h-.1v.2h-.1v.2l-.1.1v.4h.5v.1h.2v.7h-.3v.5h-.1v.1h-.2v.5h-.1v.1h-.1v.7h.2v.8h-.2v.2zm-5.2 105.8l.2.2.2.2.3.2h.5l.1.1h.2l.7.9h.2l.2.1.2.1.1.1.2.3.3.3v.6l.1.2.1.2h.6l.3.2v.6h-.2v.4l.4.1v.6l-.4.2-.1.1h-.4v.8l.2.2.2.2v.3l.3.1v.4l-.4.2-.1.1v.1l-.2.3v.2l.4.3.2.1.1.1.2.2h.2l.1.1h.3l.2-.1.1-.1h.4l.2.1.3.4v.2h.4l-.3-.5-.3-.2v-.1h-.1l-.1-.2h-.2l-.1-.1h-.4l-.2.3h-.3l-.5-.4h-.1l-.1-.2v-.4l.2-.2h.2v-.2l.3-.2v-.4l.2-.1v-.1l-.2-.3v-.3l-.3-.1v-.3h-.1v-.2l.2-.1v-.3l.2-.1v-.4l-.3-.1v-.1l-.1-.1v-.3l.2-.1.1-.5v-.1l-.3-.2h-.5l-.1-.1h-.2l-.1-.3v-.5l-.1-.5h-.1l-.2-.1-.3-.2-.4-.2-.6-.4-.2-.4-.3-.1-.2-.1h-.6v-.2l-.3-.1-.1-.3zm3.8 5.7h.4v.2h-.4zm.1.2h.3v-.2.4h-.3zm0 .3l.3-.1v-.2h.1v.2l-.2.2v.2h-.2v-.2zm.3.3v-.2h.2v.4zm.2.3v-.6h.2l.1.1.1.6v.7l-.2.1v-.3zm-207.9 17.5h.7l1.4-.1.2-.5-1.1-.2.5-.3.1-.7-.5-.6-.9.2-.3.6zm207.8-124.8v.2h.2v.3h.1v.1h.1v.5h.1v.1h.4v-.3h-.4v-.1l.3-.1v-.4h.1v-.1h-.3v-.2h.3v-.1.3h.3v.4l.1.1v-.3h-.3v-.2.2h.3v.1-.3h.1v-.3h-.3v-.1h-.1v-.3h-.1v-.1h-.2v-.2h-.1v-.2h.3v-.3h-.2v-.1h.2v-.4h-.2v-.2h-.1v-.4h.3v-.4l.2-.2v-.1h.2v-.1h.2v-.1h.1v-.2h.1v-.1h.1v-.1h.1v-.3h-.6v.6h-.1v.1h-.2v.1h-.1v-.3h-.5v-.2h.4v.3h.1v-.3h.2v-.1h-.2v-.4h-.2v-.1h-.1l-.1-.1h-.2v.4h-.1v.5h-.1v1.3h.3v1.7l-.3.1v.2l-.1.1zM8.4 205.4v1l.2.1v.3l.2.2v.2H9v.3l.3.2h.1l.3.3.3.2.6.1v.6l-.4.1.4.2v-.2h.2v-.7l-.9-.7h-.4l-.5-.5v-.1h-.2v-.8l-.3-.6v-1l.5-.3h.5v-.2h.2v-.1l.2-.1v-.9l-.3-.5-.2-.2h-.1v-.8l.2-.3v-.7l-.5-.4.2-.4h.1l.2-.1h.2l.2-.2v-.6l-.5-.2v-.2l-.1-.2H9v.2l.4.5h.1l.1.2v.2h-.2l-.2.2-.4.4v.2l.2.3v.4l.3.2v.7l-.3.3v.3l.2.2h.1v.3l.3.3v.7l-.3.2-.3.2h-.3l-.3.1zM134.1 89.1v.2h.4l.2-.3h.1l.2-.1.5-.4.5-.5.5-.3.7-.4.6-.3.5-.5-1.3.6-.5.3-.3-.1.1-.1h-.3v-.6h-.2l-.2.4h-.2l-.3.4-.2.2-.2.3-.1.3-.3.2-.1.5zm0 0"/><path d="M313.6 127.3v.2h.2v.1l.1.1.1.1v.4h.5v.2h.2v.3h.2v.1h.1v.9l.2.2v.5h.1v3.8l.1.1v.3h.1v.1h.2v.1h.2v.1h.1v.3h.2v.5l-.2.1v.1h-.2l-.1.1v.2h-.1v.2l-.1.1h-.3v.1h-.1.2v.1l-.3.1v.2h-.1l-.1.1-.2.3-.1.2v.1h.2v-.3l.3-.1v-.2l.2-.1.2-.2h.1v-.1h.3v-.2h.1v-.4l.1-.1v-.2h.3v-.1h.1v-.7h-.4v-.4h-.3v-.1h-.1v-.8h-.1v-.6h-.1v-.5h-.1v-.7l.3-.2V130h-.3v-.5h-.1v-.8h-.1v-.1l-.1-.2v-.1h-.2v-.1h-.1v-.1l-.1-.1h-.3l-.2-.2-.1-.1v-.4h-.2zm1.7 6.6v-.3l.2.2v.4h.1v.3-.4h-.3v-.1h-.1v-.2zm.2 2.8h.2zm0 0h.2v-.2zM80 165.4v.2l.3.1.1.1.4.2.2.2v.9h.3l.1.1v.3h.1l.4-.1.3-.5v-.4l.1-.5v-.1l-.3-.7-.2-.3h-.2v.1l-.6.3-.6.1-.2.1v-.1zm204.5-94.6v.6h.5v-.3h.4V71h.1l.1.2.2.1h.1v.2-.2h.1l.2.3h.3v.1h.5v.3h.1l.1.1v.1l.1.1h.3v.1l.2.2h.2v.2h.7l.2-.4-.3-.3h-.2V72h-.7v-.2l-.1-.1-.1-.3h-.7v-.3h-.6l-.2-.2v-.2l-.3-.2h-.4v.1h-.4l-.2-.1v.2h-.2zm-278 78.4v.2h.2v.8h-.3v.1H7v.4h-.2v.1h-.2v.2h-.1v.2h.3v-.2l.2-.2v.2h-.3v.2H7l.3-.2h.1v-.2l.2-.2.2-.1v-.8H8v-.6l.1-.1v-.3l-.1-.3-.2-.1h-.3v.4h-.3v-.3H7v.6h-.5zM443.8 45.7l.2.1v.5h.1v.3h.7v.3h-.4v.8h.2v.3l.2.2v.1l-.3.1v.1h.2v.2h-.1l-.1.2v.6h.1v-.3h.1v.2h.1v.3h.2v.1h.4v-.4h.1v-.1l.1-.1v-.4h-.4v-.2h-.2v-.3l-.2.2v-.3h.2v-.1h.3v-.2l.2-.2v-.4l-.2-.3h-.1v-.3h-.2v-.3h-.2l-.1-.2-.1-.1-.3-.1-.3-.1v-.3h-.1zM103.5 160.1l.1.1v.2l.1-.1h.3v-.3h.1v.4h.3v.4h.6v-.1h.5l.3-.3.2-.4v-.4l-.3-.2-.1-.2h-.2l-.4.1-.3.2h-.2l-.3.3h-.4v.2h-.3zM115.3 21l.1-.2h.2l.4-.1h.6v-.1h.5l.1-.2h.8v-.1h.8-.4l-.1-.2V20h-.1v.1h-.2v-.3l-.2-.1.5.1h.1-.2.4v-.3l.3.1v-.3h.3V19h.2l-.2-.1h-.7l-.4.1h-.1v.3h-.2V19h-.2v.3h.2v.2h-.3.1l.1.2v.3h-.9v.4h-.1v.2h-.4v-.4h-.6v.4h-.1l-.1.2h-.1zM12.5 213.3v.3l.4.4.1.2.3.2.1.2h.1l.1.3.2.1h.3v.3l.2.1.4.2.3.2h.3l.3.2h.4l.2.1.1-.4-.6-.2-.5-.2-.4-.2-.4-.3-.2-.2-.4-.4-.4-.4-.2-.3-.2-.3v-.2zm403-208v.1l.2.4v.1l.1.1h-.1v.2l.2.1v.2l.1.1V7l.4.2h.1l.1.2v.1l-.2.1v.2l.3.1v.2l.3.2v.5h.2V9h.1l.3.1.1.2h.3l.4.2h.6l.2.2h.2v.3h.2v.2h.1V10h.1v-.3l-.4-.1h-.2l-.2-.3-.3-.2-.2-.1h-.4l-.2-.2h-.1l-.1-.2h-.1v-.2h-.3v-.2h-.1v-.4h-.2v-.4l-.3-.2v-.4h-.2v-.3h-.2l-.2-.1-.1-.3-.1-.1h-.2v-.8h-.3zm-133.7 193h.5v-.1l.1-.1h.2v-.3h.7l.4-.3h.8l.2.4h.3l.2.1h.3l.1.2.4.4v.1l-.1.2v.1l-.2.1h-.5l-.1-.1h-.2l-.1.1v.7h.2v.2h.3v.2h.3v.2l-.3.1-.1.1-.2.1v.1h-.2l-.2-.3v-.1h-.1l-.1-.2h-.3v.4h-.1v.1l-.2.1v.5l.4.2v.1h.3v.2h.2l.1.2h.1v-.2l-.3-.1-.2-.3h-.4v-.9l.2-.1.1-.2.1.3.3.1v.2h.1v.2h.2l.2-.2v-.2h.2l.1-.2h.2v-.4h-.4l-.3-.2v-.3l-.2-.3v-.1h.4l.1.1h.5l.1-.2v-.3h.4v.2l.1.1v.1h.4v.2h.2v.2l.2.1v.4h-.2v.4l.3.2.2.3h.1l.3.3v.1l.1.2-.2.3-.2.2h.2l.3-.3v-.5l-.2-.3-.3-.2h-.1l-.2-.3-.1-.1v-.9l-.1-.1-.2-.3h-.2l-.2-.2h-.2l-.1-.3-.2-.1v-.1l-.3-.3h-.2l-.2-.3h-.2l-.1-.1-.4-.1-.1-.1H283l-.2.3-.4.2-.2.2h-.2zm1.3-.7v-.1h.5-.4v.2zM58.9 246.7l.2.2.2-.2v-.1l.2-.1v-.1l.1-.2v-.1l.1-.2.1-.3v-.3l.1-.3.1-.2h.4l.1.2.1.3h.5l.2-.3.3-.3h.1v-.1h.2l.1-.1h.1l.2-.1.2-.1h1.7v.2h.2v.1h.4l.1-.4.1-.2v-.2h.3l.2-.2.1-.1h.1v-.2h.2l.1-.1v-.2l.2-.1.1-.2h.2v-.2h.2l.3-.2v-.1h.2v-.4h.2v-.3h.1v-.2h.2v-.3h.1v-.3l.1-.1h.4v.3h.3v.1h.5l.1-.2h.1v-.1h.2v-.2h-.4v.3h-.8l-.1-.3H68v-.1h-.4v.4h-.1v.2h-.1v.2l-.1.1-.1.1v.1l-.1.1v.1l-.1.1v.4h-.2l-.1.1h-.1l-.1.1h-.1v.1h-.3v.1l-.1.1v.3h-.2v.1h-.1v.2h-.1l-.1.1-.2.2-.2.2H65v.1h-.2v.1h-.1v.4h-.1v.1h-.3v-.4h-.2l-.1-.1h-.6l-.1.3h-.1l-.2.1h-1v.1h-.1l-.2.1h-.1l-.1.1-.2.2-.2.1h-.3v.2h-.2l-.1-.2-.1-.2v-.1h-.2v-.1h-.4l-.1.3v.3h-.1v.6h-.1v.2h-.1l-.1.2-.1.2-.1.1-.1.2v.1zm0 0"/><path d="M5.9 151.8H6v.8h.2v.3h.1v.5h.2v.2h.3l.1.1v.4l-.3.2v.7h-.1v.3h-.1v.4l.2.1.3.1.1.1v.2-1h-.2v-.9h-.1v-.7l.3-.1v-.7h-.2v-.1H7v-.2h.2v-.2h-.4v-.2h-.1v-.1h-.1v-.2h-.1v.2-.3l-.1-.1h-.1v-.2h-.1v-.3h.2v-.1h.2v-.2h.1v-.1h-.3l-.1.3h-.2v.3H6v.4h-.2zm480.7-10l.2.2v.4l.4.3.1.1h.5l.3-.5v-.1h.4v-.2h.5v.2l.3.5.1.6.2.3v.6l.2.3.2.5.1.2.2.1.1-.2v-.4l-.2-.2h-.1l-.2-.2-.1-.2-.1-.3v-.4l-.2-.7v-.4l-.2-.3v-.3l-.3-.3h-.3l-.4-.1-.3-.4v-.3l.2-.2.3-.1.2-.3h-.2l-.1.2h-.4l-.3.4v.1l.3.2v.2l.4.5h.3v.3l-.3.1-.3.1-.3.3-.2.2h-.2l-.2-.2-.2-.1v-.3h-.2l-.1-.3zM112.8 269.5l.3.4h.9v.6l1.3-.6v-.3l-.6-.6h-.4l.2.7h-.5v-.5l-.6-.6-.2.5zM80.2 160.8l.3.6v.1l.3.5h.6l.4-.3.1-.3-.1-.3-.2-.6-.6-.2h-.3l-.2-.1h-.2zM202.3 18.9v.3l.1.1h.2l.1.2h.3v.2h.4v-.3h.2v-.8h-.3v-.1h-.2v-.1l-.1-.1v-.1h-.2l-.1-.1h.5v.3h.2v.1h.2V18h.3v.2h.1v-1.1h-.3v.3h.3v.1h-.3v-.3l-.2-.1V17h-.1v-.2h.5v-.1h.1v-.5h.1v-.1l.3-.1v-.2l.1-.2v-.2h.1v-.1h-.3v-.1.7h-.1v.3h-.1l-.1.2v.4h-.4v.1h-.2v.2l.3.2h.1v.1h-.3l-.1.1v.1h-.2v.4h-.5v.3h-.1v.3h-.2v.2h-.2zm.7.5V19h.2v.1l.1.1v.3h-.3zm-93.4 250.5l.8.9h.7l.1-.8-.2-.7-1.2-.3zm4.9-2.4l.8 1 .5-.3-.1-.4.2-.2.2.4h.4l.1-.4-.8-.8-.8.2zm-13447 2.1h.2v-.2h.1v-.6h-.3v-.3zm17853.7-.3v.2l.2.1v.1l.1.3.1.2v.8h-.1v.2h.5l.2-.4v-.8h.3v-1.5h-.5v.4l.3.1v.2l-.1.2-.2-.2v-.2h-.4l-.2.4v-.3l.2-.2h-.2v-.3h.4l-.3-.1h-.1v.4h-.1v.3zM348.4 116.6v.2h.3l.1.2h.1l.2.3h.5v-.5h.2v-.1l.2-.1v-.1l-.4-.1v-.8l-.2-.2-.2-.1v.2h-.4l-.1.1-.1.2-.1.1v.6zm-233.3 37.6l.1.4v.3l.3.3v.1l.5.1h.2l.2-.3v-.6l-.4-.3v-.2l-.1-.2-.2-.2-.2.2h-.2zM175 9.2h.3V9h.1v-.3l.2-.1v-.3h.2l.2-.1v.3h-.2v.3h.4v-.1h.1v-.2h.2v-.2l.1-.1V8h.1l.2-.2.1-.2.2-.2v-.2l.1-.2h-.3v.2h-.4v-.6.6l.1.1.3.2v.1h-.1v.2h-.2l-.1-.2-.3-.2V7l-.2-.4V7h-.1v.3h-.1v.5l-.2.1V8l-.1.3h-.2l-.1.2V9h-.3zm1.6-1.2h.1-.3zm47.1-3.6v.2l.1.1h.2v-.3h.2V5h.2v.3h.2v-.2h.2v-.4h.1v-.1h.1v-.3h-.3l-.1-.1V4h.3l-.2-.2-.2-.1v-.1l-.2-.1v-.3l.3-.1V3h-.3v.3h-.1l-.1-.3h-.1v.8-.4h-.2v.3h-.1v.5l-.1.2zM209.8 253v.3h.4v.3l.2.1v.3l.2.4h.2v.3l.4.1.1.2v-1h-.3l-.1-.5-.4-.3v-.3l-.1-.3h-.4l-.1.3zM191.5 44.1l.8.4h.2l.7.3h.3l.7.9.1.1.2.2.1.1.2.3.5.5.2.3.3.5v.3l.4.2v-.1l-.2-.1v-.2h-.2v-.3l-.1-.2-.2-.3-.1-.3-.4-.1-.9-1.1-.1-.5v-.5l-.1-.1h-.5l-.2.1h-.5l-.3-.3h-.6l-.1-.3h-.1zm106.1 66.7v.2h.2v.2h.2v.1h.2l.1.1h.7v-.6h.2v-.1h-.2l-.1-.1-.2-.1v-.1h-.1l-.1-.1h-.3v-.1h-.4v.3h-.1v.1h-.1v.1h-.1v.1zm.6.4v-.2.3zM44.4 51.3l.1.2.2.2h.3l.1.1h.2l.2.2h.3v-.3h.2l.1.3v.2l.3.1v.2h.6v.3l.1.1v.9l.2.2v.9h.1v.1l.1.2v1.3h.2l-.1-.5-.2-.3v-.1h.4v-.4l-.3-.2v-.3l-.2-.2v-1.7h-.2l-.1-.4h-.3l-.3-.2-.3-.5h-.4v.1h-.3l-.4-.1-.2-.2h-.3v-.1zM414 13.1v.1h.2v.3l.4.1.1-.1h.3l.2-.1h.2l.2-.1V13h.6v-.2.2l.3-.2v-.3h.4v-.3h-.3l-.4.3v.1h-.4v.3h-.3l-.1.1h-.2v.3h-.4l-.1-.3h-.5zM92.7 160.2l.1.1h.1l.1.3h-.1v.2h.3v-.2h.4v-.1l.2-.1.3-.1h.1v-.3h-.4v-.2h.5v-.4h-.8v.2h-.3v.5H93v-.3l-.2.4zm270.1-70.8v.1h.2v.1h.1l.1.2h.5v-.5h.3v-.7h-.4l-.1.2h-.5l.2-.1-.2-.4v.6h-.2v.3zm0 0"/></g></g></svg>