<svg xmlns="http://www.w3.org/2000/svg" xmlns:xlink="http://www.w3.org/1999/xlink" viewBox="0 0 497 279" xmlns:v="https://vecta.io/nano"><style><![CDATA[.B{stroke:#fff}.C{stroke:#8d618b}.D{stroke-linejoin:bevel}]]></style><filter id="A" width="100%" height="100%" x="0%" y="0%"><feColorMatrix in="SourceGraphic" values="0 0 0 0 1 0 0 0 0 1 0 0 0 0 1 0 0 0 1 0"/></filter><mask id="B"><g filter="url(#A)"><path fill-opacity=".5" d="M0 0h497v279H0z"/></g></mask><clipPath id="C"><path d="M0 0h497v279H0z"/></clipPath><path fill="#f2efe9" d="M0 0h497v279H0z"/><g fill-rule="evenodd"><g fill="#add19e"><path d="M244.5 103.2l17.5.8-2.6-.8 2.2-2.5-1.5-.7-2.4-2.4-3.2-3.2-3.8-2.4-3 2 1 1.9-2.6 2-1.5 3.3v2zm0 0"/><path d="M236.3 100l1.6.3 1 3.2 6.1 1-.4-2.2.4-3-2.9-.9-5.5 1.4h-.3zm-8.3.8l3.8 2.9 7.7.8-3.3-4-1 .7-3-2.7-3.9 2zm6.7-4.3l4 2.3 5.5-1.6-1.6-2.3-3.3-2.6-2.1 2.8h-2zm38.1-17.6l1 2.7 2.8-1 5.1-3.6-2.9-1.3-2.2 1-3.8 1.9zm-6.5 6.7l3.2-1.2 3.1-1.4-3.6-.2-1.9 1.2-.7 1.4zm-14 .7l3.9 1.4-.3-2.8-3.6 1.3zm-2.3 4.3l1.2 1 .5-1.8-1.7.7zm0-2.1l2.4-.5-2.4.4zm-18.3 5.7l1.3 1 1.3-.8zm.3 3.8l2.4-2zm-4.2 2.2l1.1-1.7-1.1 1.4zm6.2-2.7l.1-.3-.2.3zm0 0"/></g><path fill="#f5e9c6" d="M407.4 27.6l1.4.4-1.4-.5zm.7 2.2l.3-.1"/><path fill="#add19e" d="M237.9 99.1l6-1.3-2.5.2-3.4 1zM271.3 82l.2-1-.2.8zm-38.6 14.2l.4-1zm-57.8 75.4l.6-1.4-.5 1.4zm72.3-77l1.1-2.3-1.1 2.2zm-18.1 3.9h.1zm2.3-1.8l.6-.8-.6.7zm-.7.6l.3-.1zm.3-.3h.2zm-56 70.4l.6.3zm98.3-84.1V83zm-22 6.3v-.1zm-21.9 8.7v-.1zm7.4 1h.3zm1.2-.3h.1zm0 0"/><g fill="#aad3df"><path d="M108.4-53.5v.1l.5.4h.1v.6l.3.1-.2.2-.1.1v.4l-.3.4.2.3.2.3.3.2h1.2l.4.4h.2l.2-.2h.2l.4.4 1.4.2.4.1.4.2.5.3.3.3v.3h.4l.4.1.3.3.1.3v.9h-.2v.2l.3.3v.3l.2.2v.6l.4.6.1.2v.4h.3l.7.1.5-.1.5-.2h.3v-.2h1l.3.4v1l.1.7.5.7.3.2v.1l.4.3h.3l.5.2.6-.2.4-.2.4-.2.2-.1h.3v.9l.1.3.3.2.5.2h.8l.2.2 1 .3.5.4.3.1.4.3.6.2.5.4.4.2.6.3.6.2.3.2.4.3v.3l.5.1.4.2.3.2v.2l.4.4v.2l.3.6v.2l.6.4.4.2.7.1.7.1h.6l.5.4.3.1v.4h-.1v.3l.3.2v.3l.3.5v.4l.2.4.6.4.2.1.2-.2h.7v.1h.2l.2-.6.6-.1.3-.2h.6l.4.3v1.7l.4 1 .1 1.1.3.7.7 1 .5.5.3.1.5.4.3.2v.3l.2.2v-.4h.1l.4-.3h.9l.3.3v.8h-.2l-.3-.1h-.3l.2-.5-.5.4-.2-.2-.2.1v.2l.4.3h-.4v1.5l.3.5v1l.5.3.2-.1.5.2.5.2.3.4v1l-.3.4-.2.4-.2.4-.7.5-.4.3-.6.5-.1.6-.1.5.3.4.3.4-.2.5v1l.3.4.2.2 1 .3.9.3h.4l.3.5h.3v.4h-.4l-.3.2h-.2l-.2-.2-.6-.7-1-.2-.4.1v.3l-.4.2-.5.2-.4.4v.5l.3.5.5.5.4.3.1.5v.8l-.1.3-.3.3-.6.3-.3.3-.2.4v.5l.1.5.3.4h.2l.3.2.6.5.1.3v.6l-.3.3-.3.4-.3 1 .2.5.2.5.6.2h.4l.3-.2h.4l.6-.2h1.1l.2.2v.4l.3.2-.5.4V2l-.1.9.2.5.5.3h.8l.6-.4h1l.1.8-.3.4-.4.7v1l.2.5.5.5.5.4h.9l.5.2.2.2v.8l-.4.4-.4.3h-1.3l-.7-.5h-1.6l-.2.7v1.7l.3.5v.3h.3l-.1-.4-.2-.5V9.6l.3-.2.5-.1h.6l.9.7h1.2l.4-.3.3-.1.2-.4.3-.4V8l-.3-.4-.4-.2-.7-.1-.6-.1-.3-.3-.3-.4-.2-.6.2-.5V5l.4-.3.1-.4.1-.5v-.5l-.2-.4-.5-.2h-.5l-.5.3h-.7l-.4-.2-.3-.3V2l.1-.2.1-.2V.7l-.4-.7h-.1l-.3-.4-.3-.1h-.4l-.4.2-.2.3h-.3l-.4.3h-.3l-.3-.3v-.2l.3-.1h.5l.1-.3h-.5l-.1.3-.2-.1v-.1h-.1V-1l.1.2h.3v-.1l-.3-.2v-.4l-.1.2-.2.4-.1.4.1.5-.1-.1-.1-.4v-.7l.3-.3.2-.2.2-.3v-.5l-.3-.7-.4-.4-.4-.3-.4-.4v-.4l.1-.3.4-.3.2-.2.2-.3.3-.3.3-.4.2-.5v-.5l-.5-.6-.4-.5-.3-.4-.2-.3.2-.3v-.4h.4l-.4.5v.2l.4-.3.2-.1.1-.3h-.1v.1l-.2.1.2-.4h.2l.4.3.6.1.5.5 1 .4h.5l.2-.3.3-.5-.2-.9-.3-.3-.5-.4h-.3l-.2-.3h-.5l-.6-.2-.7-.3-.3-.3v-.6l.4-.4.4-.2h1.9l.4-.2v-.6l-.1-.6-.7-.2-.3-.3-.4-.5-.3-.5v-.2l.4-.3.5-.6.1-.4v-.6l-.3-.7-.5-1-.6-.4-.1-.5.1-.8.2-.5.2-.4.3-.3-.1-.4-.4-.7-.4-.5-.6-.3h-.3l-.3.1-.4.5h-.3l-.3-.5h-.2l-.5-1-.3-.5-.5-.5v-1.2l-.3-.7V-31l-.4-.6-.4-.4v-.2l-.2-.2h-.4l-.3.2-.3.2-.5-.2v-.2l-.2-.1h-1.2l-.2.2-.3-.5-.2-.1-.1-.5-.3-.3h-.4l-.3-.3-.7-.3h-1l-.7-.6-.5-.1h-.3l-.3-1-.4-.8-.8-.7-.8-.3-.6-.2-.6-.3-.7-.2-1-.7-.4-.6-.9-.2-.5-.3-.2-.1-.3-.6.3-.2.5-.1.6-.3.1-.4-.3-.5-.4-.3-.6-.2h-.3l-.5.1H125l-.5.4-.5.1-.4.4-.2-.2-.4.2h-.6l-.4-.2-.3-.1-.3-.4.2-.4.1-.6-.4-.5-.3-.4-.2-.8-.5-.2-.5-.2-.5.3-.1.2-.5.4-.2.2h-.3l-.3-.3-.5-.4-.4-.4v-2.3l-.3-.4-.9-.6-.8-.5-.7-.4h-.2l-.4-.4-.3-.1-.7-.2h-.2l-.2-.3h-.1l-.2-.4v-.4l-.1-.2h-.2l-.2-.4-.1-.3-.4-.5-.2-.2-.3-.2-.5-.1-.4-.1-.3-.2-.2-.1.4.4.1.3h-.6zm.6 2.1v-.3l.3-.2.2-.1.1-.2v-.1l.2-.2v-.6l-.6-.2h.8l.4.2.1.1.2.4.2.4-.1.2-.2.2-.2-.1-.1-.1h-.3l.4.2.2.1v.4l-.1.3-.2.2-.2.2h-.6l-.2-.2zm2 0v-.2l.2-.5.2.1.3.2.2.7.1.4h-.4l-.3-.3zm13.5 9.1l.5-.2h1.6l.4-.1.5.3v.4l-.5.3-.3.6-.2.2-.3.4-.8-.2-.2-.4v-.9l-.3-.3zm2.8-.4h.3l.4.3v.6l-.4.2v-.8zm4.7 5.6h.6l.3.5v.2l-.5-.3zm6.3 4.8l.2.1.4.2h1.4l.3-.3.3.5v.4l-.4.2-.6.6-.6-.1-.5-.3v-.2l-.4-.5zm7.6 17.3l.2-.2.3-.5.1-.1.5-.2.5-.3.3-.2v.2l.2.4v.4l.4.3.5.2.4.2.3.4-.2.4h-2l-.4.2-.4.1v-.3l-.3-.3-.3-.3zm.3-7.2v-.5l.1-.2.3-.2h.7l.2.2v.1l-.5.3v.3l-.4.4-.3.4v-.7zm.2 1l.2-.2.2-.4.2-.4.3-.2.3-.2-.2.3-.1.3-.3.3v.4l.2.8.4.3-.1.2h-.8l-.2-.3v-.1l-.2-.3zM148 .3l.4-.2h.4v.3h-.5zm104.2-10.4v.6l.3.3v1l.1.2v.8l-.3.2v.2l.4.6.1.2v.3l.2.3v1.8l.1.9.1.4.2.3.2.5.1.3v.2l.2.5v.4l-.3.3-.2.4v1h.2l.4-.9V.2h.2v-1.3h-.2l-.1-.4v-.2l-.2-.6-.2-.7v-1.1l-.1-.9-.2-.9-.2-.6-.2-.4v-2.3l-.3-.8v-.5l.2-.3.4-.6.3-1 .2-.9.2-1 .2-1.2.4-1.1.6-1v-1.1l.3-1.3.3-1 .3-.8.3-.8.5-1.1.1-.9.2-.2.3-.1.2-.3h.5l.4-.2.3-.6.6-.5.4-.5.3-.6.4-.4.6-.4.3-.6.4-.3v-.4l.1-.7.4-.6.1-.8v-.4l-.3-.5-.4-1.3-.1-.6v-.5l.2-.6.7-.8.7-.3.9-.2 1.7-.2h1.7l1.3-.4 1-.3.3.1h.6v-.5l.3-.5.3-.8-.6-.7-.2.3-.2.2-.2.2-.4.2-.3.4-.2.2h-.2l-.3.1-.3.2h-.4l-.4.2h-1.7l-.5.3-.5.2-.4.1h-1.9l-.5.1-.3.2-.3.2-.5.2-.2.2-.1.4v1.8l.3.4.2.6.2.6.1.4v1l-.1.6-.3.4v.6l-.3.2-.3.5-.4.3-.3.2-.3.2v.2l-.4.1-.3.1h-.5l-.2.4-.4.1-.3.2-.3.2v.5l-.2.1-.1.2h-.1v.7l-.3.1v.6l-.3.3-.2.3-.4.5-.2.5-.2.4v1.5l-.1.2v.4l-.3.8v.6l-.2 1.2v.4l-.3.7-.2.5-.2.6-.2.4v.8l-.1.1-.1.4v.7l-.2.8-.1.3v.5l-.3.5v.1l-.2.2v.2l-.2.2v.2zm5.1-15.5l.1-.4.3-.4.5-.6.5-.3.7-.4.2.1-.1.4-.5.5-.2.3-.3.4h-.5v.1h.4v.2h-.4v.3h-.3zM461.2-3.2v.2l.2.2.1.2h.1v-.1h.2v1.2l.5.5.1.4v.1l.3.3.3.2.1.1h.1l.2.2h.1l.1.1.4.2.3.2h.1l.1.1h1.8l.2-.3h.1V.5h-.6V.3h-.4l.2-.1.3-.3v-.2h.2l.1-.5V-1l.2-.4.1-.6-.2-.3.1-.2V-3l-.4-.4v-.1h.3v.2l.3-.3h-.3l-.1-.1-.1-.2-.4-.1-.5-.6-.2-.1-.2-.3h-.2l-.3-.1h-.9l-.2.1h-.5v-.3h-.3v.3h-.2l-.1.4-.3.2v.4h-.2v.5h-.1v.5h-.2v-.2h-.3zM477.6 284l.5.4h1.2l.5.2.7.2 1.1-.3h.9v-.1l.9-.2.4-.1v-.1l.5-.3.1-.3v-.1h.2v-.3h.4v-.3h.3v-.2l.5-.5.7-.3.9-.7.2-.1.4-.4.3-.3.9-.8.2-.1v-.1l1-.6.8-.4.4-.2v-.1l.4-.2.1-.2.2-.1h.1v-.2l.4-.2.5-.3.2-.4h.1l.4-.3.1-.1.8-.7h.2l.2-.2.2-.3.1-.1h.2l.2-.1v-.1h.1l.1-.1h.1l.1-.1h.4v-.2l.8-.2v-.2h.4l.8-.1h.3v-.2h.6l.6-.3v-.6h-.3l-.7.3-1.7.3-.6.3-.6.1v.1h-.2l-.2.2-.7.3-.3.2v.2l-.6.2v.1h-.1l-.5.5h-.2v.2h-.3v.2h-.3v.2l-.4.2-.1.1-.3.4h-.1l-.4.3-.3.1-.4.1-.7.6-.3.4h-.3l-.5.3v.1l-.2.1h-.1v.2l-.2.1-.3.2-.1.2-.3.2h-.2v.2h-.2l-.9 1-.6.4-.9.5v.3h-.2v.2h-.4v.2l-.1.2-.1.1-.2.2-.2.1v.2l-.4.2-.1.1-.5.2-.8.2h-1.6v-.2h-.4l-.7-.2h-.5l-1.2-.6zM221.7 146.8v.2l.3.4.2.6.4.3.4.5.2.3v1.3l-.5.6v.6l-.1.4v.8l.4.6v.2l.4.4v.2l.6.5.5.6.2.3.3.4v.4l.4.6.2.8v.4l.3.2.1.4.3.2v1.6l-.3.4-.5.6-.5.4v.1l-.2.1-.2.2-.2.2v1l.4.6.2.6v.4l.3 1.1v.5l.1 1 .1.6.1.4.4.9.2.6.1.5.1.5.3.7v.3l.3.3v.9l-.4.2-.2.3h-.9l-.3.2-.5.2-.3.2-.5.7-.2.3-.1.4v1l.4.3.2.3.2.1.3.3.3.2.2.3v.9l-.2.3-.3.1-.3.3-.2.4v.9l.3.7.1.7.3.7.3.6.6.5.4.6.5.3.3.4.7.4.2.3.5.3.6.3.5.3.5.1.2.1.3.3.2.2v.8l-.3.4-.3.6-.2.3v.4l-.2.4v.3l.3.4.3.4.4.5.3.2.7.1.4.3h.5l.4-.1.8-.1h.8l.4.2.5.2.5.5.7.7 1.2 1.3.6.7.5.6.2.4.8.7.4.4.5.3h.5l.5-.1.4-.2.5-.3.6-.1.6-.4h-1l-.4.3-.3.2-.3.2-.6.1-.6-.1-.5-.3-.3-.4-.7-.6-.9-1.1-1.1-1.4-.9-.9-.4-.5-.6-.3-.5-.3h-2.3l-.4-.3h-.7l-.5-.1-.5-.4-.3-.4-.1-.4v-1l.4-.5.3-.4.2-.2v-1l-.3-.3-.1-.2-.3-.2-.6-.3-.8-.4-.5-.4-.1-.2-.4-.2-1.4-1-.7-.7-.5-.7-.3-.4-.2-.7v-.7l-.3-.8v-.7l.2-.2.3-.1.2-.2.3-.2v-1l-.2-.3-.2-.3-.5-.4-.4-.4-.3-.2v-1.1l.1-.4.4-.5.4-.4.3-.2h.4l.4-.2h.5l.4-.1.3-.2.1-.4.1-.5v-.3l-.3-.5-.3-1-.2-.9-.3-.7-.2-.8-.3-.8v-.5l-.2-.7v-.9l-.2-.7v-.5l-.3-.5-.2-.5-.1-.7v-.4h.3v-.3l.5-.2.4-.4.4-.6.3-.4.1-.5v-.7l-.3-.5-.4-.5-.2-.5-.3-1.2-.4-1-.4-.6-.6-.6-.6-.5-.4-.8-.1-.6v-1.4l.4-.9.1-.6v-.5l-.4-.5-.3-.6-.5-.5-.3-.5v-.4zm.2-32.6h.4v-.4l.1-.4v-.6h.2l.1-.6.1-.3.3-.5.1-.1v-.3h.2l.3-.1v-.6l.3-.3v-1l.3-.7.1-.7v-.4l.3-.1.1-.3v-1.1l.1-.4.2-.3.3-.4.3-.3.2-.2.5-.3.6-.4.2-.2.3-.2v-.2l.3-.5v-.5l.2-.5v-.6l-.2-.5v-.8l.2-.2v-.3l.2-.2.3-.3.4-.3.9-.5h.1l.3-.2h.4l.1-.2v-.1l.2-.1h.1l.2-.2v-.1h.2v-.2l.3-.1v-.2h.1v-2.4l-.5-.4v-.6l.4-.3.2-.3.1-.2.2-.3.2-.3.2-.5v-3.2l.2-.3h.2l.3-.3h3l.3-.2.1-.1.3-.3v-.2l.2-.3v-1l-.2-.2v-1l.3-.3.1-.3.2-.2h.2l.2-.3.4-.2 1-.5.6-.4.5-.3.2-.4.3-.4v-.6l.1-.3v-1l.1-.6.1-.3.3-.2.3-.5h.1l.1-.3.1-.1v-.2l.3-.2h-.5l-.2.4-.2.2v.2l-.1.2-.3.2-.2.2v.8l-.3.4V80l-.1.5-.1.3-.3.2-.2.3-.3.2h-.3l-.4.5h-.4l-.3.3-.3.1-.2.1-.2.3h-.2l-.4.4v.2h-.1l-.1.2v.4l-.2.3v.6l.2.3v1l-.2.3-.2.2-.2.1h-.2l-.3.2H234l-.3-.3h-.2l-.5.3-.2.1-.3.1-.2.2v3.1l-.1.3-.2.4v.4l-.3.3-.2.3-.3.3v.2l-.2.4v.5l.1.4.1.1.2.1v.5l.2.3v.9l-.3.3-.3.3-.3.2-.4.3-.5.3-.3.1-.4.3-.7.4-.4.2-.2.4-.2.3v.4l-.1.2v1.1l.2.2v1.1l-.4.4-.3.3-.2.4-.4.4-.4.1v.2l-.4.1-.2.2-.4.4-.3.5-.3.6-.2.6v.6l-.2.7v.5l-.1.7-.2.5-.2.5v.1l-.2.5-.2.3-.4.6-.3.8-.2.5-.2.6v.7zm0 0"/><path d="M244 197.9v.1h1l.3.2.3.3.3.3.1.2.3.3.2.2.3.1.7.2.5.2.4.2.3.2.3.2.2.2v.4l.2.5v1.3l.1.2v.3l.3.2v.5l.2.4.1.4.3.3.2.1.4.1h.6l.2-.2.2-.2v-2.4l.2-.4.2-.2.3-.3h1.1l.2.4h.3v.2h.2l.1.3.2.3.1.6v.3l.1.6.2.5.2.4.2.3.2.1.4.4.5.4.2.2.2.4.2.3v.5l-.3.2-.4.2-.6.2-.5.2-.2.2-.3.2-.2.2-.2.2v.2l-.2.1v.6l.5.5.1.5.2.3.2.2h.2l.4.3h.5l.3.2.4.1.3.1.2.3v.2l.2.3v.3l-.3.2-.3.4-.3.2-.5.4-.1.2-.1.2v.6l.4.5.4.3.2.3.1.3.1.3v.7l-.3.4v.4l-.2.5v.9l.3.4.2.3.3.3.2.2v.4l.3.3v.2l-.3.4-.3.4v.9l.3.2.2.4.3.2.1.3.2.3v1l-.2.6-.3.6-.2.6-.1.2v.5l.2.2.2.4.2.4.2.3v.6l.2.4v.6l-.3.4v2.4l.3.2v.5l.2.5v1.8l-.5 1v1h.2v-.2l.1-.8.2-.8.2-.9v-.6l-.2-.3-.2-1v-3.3l.2-.6v-.5l-.2-.4-.3-.6-.4-.7-.1-.4v-.3l.4-.4.2-.8.2-.4v-1.1l-.2-.6-.4-.6-.4-.4v-.8l.1-.2.2-.1h.2v-1.1l-.4-.4-.2-.3-.3-.4-.3-.5-.1-.3v-.5l.2-.3.1-.4.1-.3.2-.2v-.7l-.2-.6-.2-.2-.4-.7-.5-.6v-.3l.1-.2.2-.2.4-.3.4-.1.2-.3.2-.4v-.8l-.2-.3-.3-.4-.6-.2-.2-.2h-.8l-.3-.2-.4-.4-.2-.4-.2-.6v-.9l.6-.3.2-.2.4-.2.7-.2.6-.2.2-.4v-.4l-.1-.4-.4-.5-.4-.5-.6-.5-.4-.7-.2-.3-.2-.4v-.5l-.2-.7-.1-.4-.2-.4-.3-.3-.4-.3-.6-.1h-.4l-.5.1-.2.3-.3.2-.2.4v2.3l-.1.2-.2.1-.2.1h-.3l-.3-.1-.4-.4-.3-.4v-.5l-.2-.4-.1-.6-.2-.5v-.6l.1-.2v-.4l-.3-.4-.1-.3-.4-.3-.6-.4-1.3-.5-.6-.3-.3-.6-.5-.4-.3-.2h-.8zm-4.8-131.5v.6l.3.2.2.4v.2l.2.2.1.2.5.5.2.3.3.1.3.1.5.2.2.2.2.1.3.3.1.3v1.8l-.2.2-.1.3v.2l-.1.3v2.6l-.2.5h.4l.1-.8v-1.9l-.1-.3.1-.2v-.2l.2-.4.1-.4v-.3l.2-.3v-1.1l-.2-.3-.1-.5h-.3v-.2l-.6-.2-.5-.1-.3-.2-.4-.2-.3-.6-.4-.4-.2-.6-.3-.2V66l.2-.5.4-.3.2-.4.5-.3h.3v-.2l.2-.5.3-.8.1-.2.2-.3.1-.3.2-.4.1-.4.2-.4v-.3l.3-.2V60l.2-.4.1-.3v-.2l.1-.4.2-.5.1-.5.3-.5.3-.4.2-.3.4-.5.4-1.2.3-.6v-.4l-.2-.4-.2-.3-.1-.5v-.2l-.1-.4-.2-.2-.1-.1-.4-.1-.3-.3-.3-.5-.4-.4-.5-.5-.7-.5-.5-.3-.5-.6-.4-.4-.2-.3v-.7l-.2-.1v-.6l.4-.5v-.7l.1-.5.2-.3.3-.4.3-.4.2-.2.2-.2h.5l.2-.2.3-.1.4-.3.2-.3.3-.3.1-.4.1-.4.1-.4.3-.5.1-.2.4-.5v-.2l.3-.2v-.4l.1-.1.2-.4.2-.5.2-.6v-.4l.3-.6v-.6h-.3v.6l-.1.3-.3.6v.4l-.3.6-.3.7-.2.4-.2.4-.4.6v.2l-.3.2v.8l-.3.3-.3.3v.4l-.7.3v.1l-.6.2-.4.1-.3.2-.3.4v.3l-.3.2-.1.3-.1.4-.2.5v.9l-.3.2v1.2l.3.5.2.1.9 1 .4.2.3.3.4.3.3.2.5.3v.3l.3.3.2.3.3.2.2.3h.2l.2.2v.5l.3.3v.1l.1.2v.1h.2v.9l-.1.4-.2.2-.5 1.3-.2.3-.2.2-.3.3-.2.3-.1.4-.2.3v.4l-.3.3v.5l-.1.2v.6h-.2l-.1.6-.3.6-.2.6-.2.5-.3.4v.3l-.3.4v.5l-.3.2v.2h-.2l-.4.4-.1.1-.4.3-.2.3-.1.3-.1.5zm6.1-46v.5l.1.7.2.9.2.7.2.5v.5l.2.2.1.6v.5h.3v-.3l.1.3v.8l.3.5.1.7.1.5v.9l-.2.3v.7l-.3.5-.1.8v.3l-.2.7v.3l-.1.2v.9l-.3.3-.2.5v.6l-.1.2v.4h.3v-.9l.3-.5.1-.5v-1.1l.5-.6v-.8l.2-.6.1-.3v-.2h.1v-.8l.3-.9v-.7l-.3-.2v-.8l-.1-.2-.3-.7v-.4l-.1-.5-.2-.5-.4-1-.2-1.1h-.2V22l-.1-1.3V20l.3-.5.3-.5h.3l.5-.4.2-.2V18h.3l.1-.9v-.4l.2-.2.1-.1V16l.5-.4.3-.5.6-1 .3-.7V13l.5-.6V9.8l.1-.6v-.3h.1l.4-.9.4-.6V7l.4-.5.6-1 .6-1.1.4-.6v-.6l.1-.3.2-.7V2l.3-.4h-.5v.2h-.1l-.2.2v.2l-.1.5-.1.6-.2.5-.1.3-.3.5-.3.4-.2.5-.2.2-.3.5-.2.4v.3l-.4.5-.2.6-.4.5v.3h-.2v.8l-.2.5V12l.2.2v.2l-.2.2v-.2l-.3.6v.2l-.1.4-.4.7-.3.5-.3.5-.5.7-.2.2v.5h-.1l-.1.7v.2l-.3.4v.3l-.2.2-.3.1-.5.3-.4.5-.2.6zm0 0"/><path d="M258.7 240v.4l.3.5.7.7.4.5.5.6.4.6.3.7.3.7.4 1v.6l.3.5.1.3.4.5.2.4.3.3.1.3v.8l-.4.2v.1h-.6l-.5.3-.4.2-.2.3v1.3h.4l.1.5.1.3.1.6v1.1l-.3 1v1.2l.3.5.2.6.4.4.6.1h1.2l.4-.3.4.2.3.3.2.3.3.4.4.4.7.7.3.5.6 1 .3.6.5.9.4.3.3.4.6.5.4.4.5.4v1.9l.2.6 1.1 1.4.9 1.3.4.8.2.7.2.8.2.9.2.5.4.6.7.4.5.6.7.6.7.4.3.2.7.2.3.1.3.2.1.3-.3.4h-.5l-.5.1v.3l.5-.1h.2l.4-.3.3-.1.2-.2v-.3l-.2-.2-.4-.2-.4-.2-.5-.2-.4-.2-1-.8-1.1-.8-.7-.6-.2-.6-.2-.6-.2-.8-.1-.7-.4-.7-.6-1.1-.6-.8-.7-1-.5-.8-.2-.4v-.4l.1-.3v-.8l-.1-.3-.7-.6-.7-.8-.8-.7-.4-.8-.3-.7-.5-.8-.5-.7-.6-.6-.5-.7-.5-.6-.4-.2h-.5l-.4.1h-1l-.5-.2-.3-.2-.2-.3-.1-.5v-3.9l-.1-.7-.3-.7-.2-.6.2-.4.3-.2.5-.1h.4l.4-.3.2-.1.2-.4v-.6l-.2-.5-.5-.7-.3-.4-.2-.6-.1-.4-.2-.3-.2-.4-.2-.5-.3-.9-.1-.4-.5-.7-.5-.7-.7-.8-.5-.6-.2-.4-.1-.3zm2.7 11.3v-.3.4l.2.2h-.3zm.6-5.1h.2v.3h.2l.1.1v.1h-.2v-.3l-.1-.2zm.4.7h.1l.2.3-.2-.2zm198-205.8v.2l.4.2v.4l.6.6h.1l1 .5h.7l.2-.3.2-.7-.1-.4v-.2l.5.2h.7l.3-.4h.5v-1h-.5l-.3-.2v-.4h-.1l-.4-.3h-1.3l-.2.3h-.3v.2l-.4.1-.8.6h-.5l-.3.5zM473 2v.2l.4.4.3.4.3.3h.3l.3.3h.8l.3-.3.3-.2.3-.5.2-.2V2h-.2v-.1h.2V1l-.1-.3-.2-.3-.2-.2h-.2V0h-.2l-.4-.1h-.1l-.1-.2h-.2V0l-.3.1-.1.3-.2.1v.3l-.2.2-.5.3-.2.3zm-8.7 41.2v.3l.5.5.2.3.5.2h.5l.2-.1v-.1l.1-.2.1-.1.1-.2h.1l.2-.2h.6l.2.2.4-.1v-.1l.1-.3.2-.3v-1.1l-.1-.2-.2-.2-.1-.2h-1.6l-.5.4-.1.1h-.3l-.2.2v.3h-.2v.2h.1v.1l-.3.2v.1l-.1-.2-.3.3zm-244.9 92.5v.4l.1.6.2.3.2.4.3.3.4.6.4.2v.4l.2.6.2.6.2.3v.2l.2.1.2.2h.2l.2.4.2.2.1.3.1.2v.8l-.2.6-.3.6-.3.4v.2l-.3.4v.7l-.1.7v.4h.3v-.8l.2-.8.2-.5.2-.7.3-.4.2-.7.1-.3v-.8l-.4-.5-.4-.5-.3-.3-.3-.4-.2-.4-.1-.7-.4-.7-.3-.5-.5-.4-.4-.5-.1-.5v-.8l.1-.3.4-.6.1-.3.2-.4v-.8l-.1-.8-.1-.8v-4l-.3-.6v-1l.2-.5.1-.4.2-1.3v-1.7l.4-.7.3-.8.4-.5.4-.4.8-.5.4-.3.2-.4.1-.5v-.6l-.1-.5-.4-.5v.2l.2.4v.5l.2.4-.2.5-.2.3-.4.4-.6.3-.4.2-.2.4-.4.4-.2.6-.4.7-.1.7v1.7l-.2.6-.1.4v.5l-.1.5v.7l.1.8.1.7v4.1l.3.6v1.1l-.4.4-.3.5-.2.3zm250.1-132V4l.3.2v.5l.2.3v.1l.2.4h.1v.1h.3l.1.1h.5l.6-.6.2-.1.2-.1.1-.2v-.2l.4-.3V4h.1v-.9h-.4V3l-.1-.2-.2-.3h-2.3v.3h-.1v.7l-.3.1zM442.2 27l.1.2v.1h.2v.3h.1v.2h.2v.2l.2.2h.2v.2h.1l.1.1h.3v.1h.6v-.4h.1v-.1h.1V28l.1-.1h.1v-.3h.2l.1.2.3.2h.4l.1-.2.2-.2v-.1l.3-.3V27l.3-.2v-.2l-.3-.1H445l-.3-.2h-.6v-.2h-.6v.4h-.3v.2h-.2l-.2-.3-.2.2v.3h-.3v.1zM140.7 8l.3.2v.2h.4v.3l-.3.2v.6l.6.2.2.2h.4v.1h.7l.4-.3v-.3l.2-.1v-.1l.1-.2v-.2l-.3-.3-.2-.2-.2-.3h-.3l-.2-.2-.2-.1-.2-.3h-.4l-.4-.2-.2.3v.2h-.4zm214.6-.2v.6h.2v.3h.2V9h.3l.2.3v.2h.2l.2-.3v-.1h.1V9h.5v.1h.1v.2l.2-.2v-.3l.2-.3h.2v-.1l.1-.4-.2-.2v-.1h-.3v.6l-.3.2-.2.3h.2l.1.1h-.5v-.4h-.2v-.2h.3l.1-.3h.3v-.2h-.3v-.7h.5V7h-.2.2v-.5h-.5l-.1.1v.2h-.4v-.2h-.2v-.2h-.6l-.3.2V7h-.1v.5l-.1.3zM462.2 48v.8h.2v.2h.1v.2h.1v.5h.1v.3h.1v-.5h.1v.3h.5v-.7l.2-.3h.1l.1-.3.2-.1v-.1l.2-.1V48h.1v-.7l-.3-.3v.3h-.3l-.1-.3h-.9v.2h-.1v.3h-.2l-.1.3v.1l-.2.1zM362.3 8.8l.1.4.3.3h.3l-.2-.3.2-.2.2.3h.1V9l.3-.3v-.3.2l.4-.1-.1-.3.1-.2h.3v.3h.7l-.2.2h-.4V9l1.1-.2.2.2.4.1.4-.1v-.5h-.8v-.3l-.5-.2h-.7l-.2-.2-.3-.2-.2-.2.2-.1-.2-.3h-.3l-.3.3-.2.4V8l-.6.5zm92.9 30.7h.2v.2h.1v.1h.1v.1h.1v.1h.1v.3h.1l.1.1v.1l.2.1h.3v.1h.1l.1.1h1.1v-.2h.1v-.1h.1v-.4h.2v-.6h-.2v-.2l-.2-.1-.1-.1V39h-.3v.3h-.4v-.6h-.5v-.2h-.1v.3h-.1v.1h-.1v.1l-.1.2-.1.1v.1h-.3v.1h-.2v-.3h-.3v.3l-.1.1zm1.5 0h.3v-.3.4h.3v.1h-.6zm-93.5-28.6l.1.2v.3l.3.4.2.1.2.3h.4v-.5l.2-.1h.4v-.7l.4-.3h.2l.2.2v-.6h.3l-.1-.2h-2l-.3-.3-.4.3v.3h.5l-.1.2h-.1l.2.2-.2.1h-.2zm23.2 26.2h.1v.2h.1v.1l.4.2v.3h-.2l-.1.1h-.1v.3h.6v.2h.1v.4h.1v.1h.3v.2h.1v.2l.1.1h.1v.2h-.2v.1h.5v-.3h.5v-.2h.1v-.1h-.3V39h-.1v-.2h-.1v-.1h-.1v-.3h-.1v-.1l-.2-.3h-.5v-.2h-.2v-.1l.4-.1v-.3l.2-.1v-.5l-.4-.1h-.2v-.2l-.1-.1h-.4v.4h-.3v.3zm23.9 7.2h.5l.2.3-.3.2-.1.3-.2.3h.9l.5-.3h.4l.2.2.3-.3v-.2h-.3l-.3-.5h-.1v.2h-.4l-.1-.2v-.1l.2-.2.3.2.3-.3.2-.1v-.3l-.2-.5-.1-.8-.2-.1h-.2l.2.7v.5l.1.2-.4.2-.3-.4-.2.1v.3l-.2.1-.2.3h-.4l-.1.1zM394.6 71v.5l.4.2v.5h.7l.3.3h.4v-.2h.2v-.1h.2V72l.2-.1v-.3h.2v-.1h.1v-.4h-.8V71h-.5l-.2-.2h-.8l-.2.2zm50-54.8v.3h.2v.1h.1v.1h.1v.2h.3v.1h.4v.2h.9V17l.1-.2v-.1l.1-.1v-.9h-.3v-.1l-.2-.2-.1-.1h-.2v-.1h-.4v.3h-.2l-.1.1h-.1l-.1.1h-.1v.1h-.2v.1l-.1.1-.2.1v.2zm-86.3-9.8v.3h.2v.2h.2v.8h-.3V8h.6-.3v.2h.8V8l.1-.1h.2v-.2l.2-.1v.2h.9l.1-.4h.5-.4v-.2h-.1v.3h-.4l-.3-.4h-.2v.3h-.3v-.8h-.1v-.5l.3-.1v-.3h-.6V6h.2v.1h-.2l-.1.2.2.2V7h-.2v-.5h-.5v-.1l.2-.1-.1-.3h-.2l-.1.4zm1 .6h.2v.2h-.3zm-.1 1v-.3zm.3-.8V7h.2v.3zm.6.3h.2zm98.4 44.2l.2.2h.2v.1h.5v.2h.4v-.6h.1v-.1h.1v-.2l.2-.2V51h.1l.1-.2h.2-.3v-.1h-.2v-.2h.3v-.1h.2v-.2h.1v-.4h-.3v-.1h-.7v-.1h-.2v.4h-.1v.3h-.1v.2h-.2v.1h-.1v.4h-.2l-.1.2v.2h-.2zm-58.2 10.9l.1.3v.3l.6.5h.9l.3-.2v-.9h-.2v-.4l-.1-.2-.1-.1-.4.1h-1v.2zm-22.9-41.9l.3.4v.2l.3.4h.5l.2-.3h.5l.2-.2.2-.1h.2v-.8l-.4-.2-.2.2h-1.5l-.3.2zm21.1 14.8h.3l.1.2v.4l.1.2v.1h.4v.1h.3l.3-.3V36h.3v-.2h.1v-.2h-.4v.4h-.4l-.1.2h-.4v-.5h-.1v-.3h.3l.1-.1h.1l.1-.2h.2l.2-.1h.2l.1.3v.1h.4v.2h.1v.1h.2v-.3h.2v-.1h-.2v-.2h-.3v-.5h-.1v-.1h.5v-.1h-.5v.3h-.2l-.1.1h-.1v.1h-.4v-.3h-.1v-.1h-.2v-.4h.3V34h.1l.1-.2v-.3h-.4v-.1h-.1v.3h-.1v.1h-.1v.2h-.3v.4h-.2v.2h.2v.3h-.2v.1h-.2v.2h.4v.1h-.3v.1h-.2zm53.6-14.2v.2l.2.2.1.1v.1h.1l.1.1h.1v.2h.3v.1h.2v.1h.3v-.3h.1v-.8l.1-.1V21h.2v-.4l.1-.1v-.3h-.3l-.2-.1-.1-.1h-.5v.2l-.2.1-.1.1v.4l-.2.2v.3h-.4zm11.9-9.9v.6h.2l.1.2.1.1.2.1v.1h.2v.1h.1l.1.1h.5v-.3h.1v-.1l.1-.1V12h.1v-.6h-.3v-.2h-.1v-.1h-.1V11h-.3v-.2l-.2-.1h-.5v.3h-.1l-.1.1-.1.2zm-69.6 56.2v.3l.1.1.2.2.1.1h.2v.1h.3v.1h.3v-.3h.2v-.1h.1v-.3h-.3v-.4h.3v-.1h.1v-.2l.2-.1h.2v.3h.1V67h-.3v-.2h-.2v-.1h-.3v-.1h-.2v.3h-.1v-.3.3h-.1v.1h-.1v-.3h-.2v.2h.3v.1-.2h-.4v.2h-.2v.3h-.1l-.1.1h-.2v.2zM461 27.4v.3h.2v.1l.1.2v.5h.2v.4h-.1v.1h-.2l.2.1h.5v-.3h-.3v-.1l.3-.1h.1l.2.4h.1v-.4h.2v-.3.3h-.4v.2l-.1-.3v-.2h.3v-1.4h-.3v-.1h-.6v.2h-.2v.4zm0 0"/><path d="M461 27.4v.3h.2v.1l.1.2v.5h.2v.4h-.1v.1h-.2l.2.1h.5v-.3h-.3v-.1l.3-.1h.1l.2.4h.1v-.4h.2v-.3.3h-.4v.2l-.1-.3v-.2h.3v-1.4h-.3v-.1h-.6v.2h-.2v.4zm-82.4 1.9v.9h.2v.1l.2.3v.3h.3v.1h.4v-.2h.1v-.3h.2v-1.2h-.1v-.1h-.5v-.1h-.6l-.1-.1h-.1zm81-15.7l.1.2h.1l.2.2.2.1.2.2v.3h.1v.8l.2.1v.1h.2v1h-.2v.4h.3v-.3h.2v-.4l.1-.2v-.3h.2v-.1h-.3v-.2h-.2v-.9h-.2v-.4l-.3-.1h-.1V14h-.2v-.3l.2.2h.2v-.6h-.3v-.2h-.2l-.1-.1h-.3v.4h-.1v.2h-.1zm-13 16v.4h.2v.2h.7-.3l-.2.2h-.2v.1h.2v.2h.1v.2l.1.1h.1v.2h.6V31h-.4v-.2h.5v-.2l.1-.2v-.7h-.1v-.2h-.2v-.1h-.4v-.1l-.1-.1h-.5v.3h-.2v.2zM388 32.2v.4h.2v.3h.1v.1h.3v.2h.3V33h.1v-.5h.2v-.1h.1v-.2h.2v-.1h.1V32h.2v-.2h.1v-.2h.1v-.1h-.3v-.1h-.1v-.1h.3-.4v.3h-.5v.1h-.4v.1h-.4v.2h-.2zM420.3 49v.4h.3v.1l.1.2h.1v.6l.2.2.3-.3v-.3l.2-.2v-.2l.2-.1h.2V49h-.2v-.2h.3v-.4l-.1-.1h-.2l.1-.1V48h-.3v.4l-.1.2h-.2v.4h-.4l-.1-.3h-.4v.3h-.1zm-23.6.9h.2v.1h.1v.3h.4v.1h.5v-.3h.1V50h.2v-.2l.1-.1.1-.2v.3-.3h.2v-.8h-.2v-.1h-.3v.3l-.1.1h-.6v.2h-.1v.2h-.3v.3h-.3v.1h.3v.1zM136.3 13v.2l.1.1.3.2h.1l.2-.2h1V13h.3v-.4h-.3l-.2-.4h-.7l-.1.4-.8.4zm5.1-8.3V5h.1v.6l.3.2h.3l.1-.2h.6v-.2l.1-.4v-.1l-.6-.5h-.1l-.2-.1h-.5l-.1.1zM143 12v.1l.1.1.1.4h.1l.3.4v.5h.4l.1-.1v-.1h.6l.1.2h.2v-.3l-.3-.3v-.4l-.1-.1-.2-.2V12h-.3v.4h-.1l-.1-.2h-.2l-.1-.2h-.2l-.2-.1h-.1zm317 12.4v.3h.2v.1l.1.1v.1h.1l.1.2v.1h.1v.3l-.3.1v.3l.3.2h.2v.1h.2V26h.2v-.2l.1-.1v-.5h-.3v-.9h-.2V24h-.8zm.5 1h.2zm-56.2 26v.1l.2.2.2.2.3.1.4-.4v-1.2l-.4-.2h-.4l-.2.2v.6zm52.7-8.8v.3h.3v-.3h.2v.4h.2v-.3l.1-.1h.1v-.1h.4v.3h.2l.2-.3v-.2h.2v.2h.1v.2-.4h.2v-.1h-.2V42h-.3.3l-.2-.1v-.2h-.2v-.2h-.4v.3h-.6v.1l-.1.1h-.1v.3-.3l-.3.1v.3h-.1zm0 0h.2v.2zm.8-.7h.1v.1h-.3zm0 .5h.2zm-6.1-19.1l.3.3h.2v.1h.2v.1h.2l.1.2h.2l.1-.3v-.1l.2-.3v-.5l-.2-.1v-.2l-.2-.2h-.1v-.1h-.4v.4h-.3v.1h-.2v.6zm2.6 31.9v.2h.1v.1h.2v.2h.1v.1h.1v.1h.2v-.4h.4v-.2h.1v-.1h.1v-.1h.1v-.3h.3v-.4h-.2l-.2-.1v-.1h-.3v-.4h-.3v.5h.4v.2h-.4v.1h-.2v.3h-.1l-.1.1h-.1l-.1.2-.1.1h-.1zM388.2 15v.2l.2.3.1.1h.2v.2h.1v.1l-.1.1h.2l.1-.3v.3h.3l.2-.2v-.4h.1v-.8l-.4-.1v-.1h-.4l.2.1h-.3v.2h-.5v.2l-.1.1zm4.6 7.9v.1l.2.1v.3-.2h.2v-.3l.2-.2h.2-.2v-.2h-.1v-.1h.3V22h-.3.3v-.3h-.3v.3h.6v.8h-.3v.2h-.1v.3l.2-.3v-.2h.2v.2h.1v-.1l.2-.2v.2h.1v-1.3h-.3l-.1-.1h-.1l-.4-.2h-.1l-.1.3-.2.1v.9h-.2v.4zm.6-1v.1zm.4 1.1v-.2l.2-.2v.3zm-260.3-9.5v.2h.3V15h.9l.3-.3v-.2l-.3-.2v-.2h.5l.1.2h.3V14h-.6l-.2-.1h-.1l-.2-.2-.3-.2h-.2l-.1-.2h-.1v.3h-.3zm333.5-9v.2h.1v.2l.4.3.1.3h.8v-.3h.2v-.5h.1v-.1h-.4v-.1l-.2-.2h-.1V4h-.5l-.3.3h-.2zm-48.2 43.3l.2.5.3.3h.7l.2-.1v-.2l.6-.4-.2-.1-.2-.2H419zm41.3-1.9v.1h.2v.2l.1.1v.1h.2v.2h.2l.2.2h.4v-.3h.1v-.2h.1v-.8h-.3v-.1h-.6v.2h-.5l-.1.2zM360.8 8.7l.2.1v.8h.2l.2-.3h.1v.3l.2.4.3-.2v-.3h.2v-1h-.2v-.6h.2v-.3h-.2l-.3.2V9l.3.2h-.3V9h-.2v-.3h-.1l-.1-.2h-.3v-.3h-.3zM141 11.1l.3.2v.3h.1v-.2h.2v.6h.6v-.8l.3-.2v-.5h-.8l-.2.2v.3h-.5zm247 23.2v.5h.2v.1h.1v.1h.2l.2.2h.1v.1h.1v.1h.4v-.3h.1v-.4h-.2v-.1l-.1-.1v-.2h-.1v-.2h-.3V34h-.1v-.3h-.3v.3h-.3v.2zM449.3 20h.5v.2h.2v.1h.2v.1h.5v-.3h.1v-.3l.1-.1v-.1l-.4-.1h-.1v-.2h-.2v-.2h-.2V19h-.7zm5.5-4.8v.4l.2.4.1.2h.6v-.4l.2-.1v-1h-.3v-.1h-.6v.3l-.2.1v.1zm-85.1 4.4l.3.4v.2l.3.2h.2l.2-.2.1-.4-.2-.3.1-.1h.1l.2-.2-.2-.2h-.7l-.1-.2h-.2v.7zm15.8 12v.4h.2v.2h.3v.2h.2v.1h.5v-.3l.1-.1h.1V32h.1v-.5l-.3-.2h-.6v.3h-.1v-.3l-.1-.1h-.2l-.1-.1h-.2v.4zM160.4 4.4v.1l.2.2V5h.6l.2-.2h.1l.2-.2V4l-.1-.1h-.1l-.1-.2h-.3v-.1h-.4l-.2.4-.1.2zm60.8 112l.2.2.3-.2.3-.3.2-.3.4.4.3.4.1-.2v-.3l-.3-.2-.3-.3-.2-.2v-1.2h-.2v1.3l-.3.5zm170.5-73.7v.2l.1.1h.2v.2h.3l.1.1h.4l.2-.1.2-.2v-.5l-.2-.2h-.2l-.2-.2h-.6l-.1.2-.3.3zm-207.9 77.5l.1.1.3-.3.1-.2.2-.1.4-.3.3-.2h.6l.3.2.1.2.2.3.5 1h.1v-.6l-.3-.5-.2-.3-.2-.3v-.2h.2l-.1-.3-.3.3H185l-.2.3-.6.4-.2.2zM408 10.8l.3.1v.6l.2.1h.6l.2-.3V11l.1-.3-.6-.2-.3-.3h-.1l-.1.2h-.1v.2h-.2zM428 35l.3.1v.4l.2.2h.1l.3.1h.5v-.3l.2-.1V35h-.8v-.2h-.2l-.2-.3h-.1v-.3h-.3v.5zm-42.6 17.4v.2h.3v.4h.3v.3h.2v.3h.1v.1h.4v-.3h.1v-.2h.1V53h-.8.3v-.3h.1v-1.1h-.3v-.1h-.4v.5h.2v.2h-.2v.3h-.2v-.3h-.2zm61.7-25.3v.2h.2v.1h.1v.1l.1.1h.2v-.5h.3v.7h.1v.1h.2l.1-.2.2-.3h-.3v-.2l.3.2v-.3h.2V27l.2-.1v-.2l-.4-.4h-.1v.4h-.3l-.2-.1v-.2.2l-.1.1v.2h-.2v.1h-.1v-.3h-.3l-.1.3h-.1zm1 .4v-.2h.3v.4h-.3zm-91.4-15h.2l.1-.1h.2l.2-.2h.1v.2h.2v.6h.2v.3h.1V13h.1v-.2h.5v-.7l-.1-.1v-.1h-.3l-.1-.2h-.5v.3h-.3v.1l-.1.2h-.3v.1h-.2zm100.5 13.9v.1l.3.3v.7h.1-.3v.2h-.1v.2h-.1v.4h.3v.1h.2v-.3h.2V28h.1v-.2l-.4-.1v-.3l.2-.2h.3v-.1l.1-.1h.3v-.3l-.2-.1h-.2l-.1-.2h-.2v-.2l-.2-.1h-.2l-.2.1zm3 21.4l.1.1.1.1.3.2h.1v.1h.5l.1-.3v-.2l.2-.1v-.5l-.4-.2h-.5v.2h-.2v.1h-.1v.1l-.2.2v.1zM146.6 19.1v.3h.2v.3h.2l.1.1h.1v.2h.3l.2.5h.1l.2-.2-.3-.3v-.1l-.1-.1v-.1h.7v-.2h.1v-.3h-.4V19h-1.5zm.3.3v-.1h.3l-.2.2zm243.5 17.1v.2l.3.2h.1v.1h.7v-.9h.1v-.3h.1v-.1h-.4v-.2h-.3v-.1h-.2l-.1.3v.2h-.2v.6zm.2.2h.2zm55.3-26.3v.3h.1l.2.2h.1v.1h.2-.2v.3h.3v.1h.3-.3.4v-.5h.2v-.2l-.2-.1h-.2v-.3h-.1V10h-.1v-.5h-.3v.7h-.3v.1l-.2.1v.1zm-53.3 26v.4h.2v.1h.4v.1h.3l.2-.2.1-.2h.1v-.8h-.3v-.1h-.5v-.1h-.1v.3h-.2v.1h-.2zm72.6.1v.2h.3v.1h.4l.1.2h.2v.2h.3l.2.2v-.2h-.3v-.4h.3v.2h.1v-.2l-.2-.1h-.2v-.6h-.3V36h-.3v-.2h-.4v.2h-.1v.2h-.1zM445 20.4v.2l.2.1.1.2v.1h.2l.1.2v.3h.6V21l.1-.2v-.4l-.3-.3h-.2l-.1-.1h-.2l-.1.3-.1.1zm-37-3.1h.2l.2-.1h.6l.2-.2.1-.2V16h-.3v-.2h-.3l-.3.3v.9l-.1.3h-.1zm54.9 2.4v.7h.1v.6h.2-.2v.2h.2l.1.1h.3l.1-.3v-.5h.1v-.1l.1-.2V20l-.3-.2v-.2h-.1v-.1h-.2v-.1h-.3v.3l-.2.1zm.3-.2h.2zm-81.7-8.2h.4l.1.1v.2h.2v.4l-.4.1v.3h.4v.2h.3l.1-.6.3-.2v-.6h-.3v-.1h-.1V11h-.5l-.3.3zm-23.3 71.1v.4l.5.2.1.2h.3l.1-.2h.3l-.2-.2v-.4l-.2-.1h-.1l-.2-.2h-.1l-.2-.1v-.2.2l-.3.2zM136.3 11.5l.2.3h.2l.3-.1v-.1h.1l.2-.2h.3v-.8l-.3-.1h-.1l-.2.1v.1l-.2.3h-.5v.2zm265.3 23.4l.2.1v.2l.1.1h.1l-.1.2h.1V35h-.2v-.4.2h.2l.1-.1.2-.2h.2v-.3.4h.2l.1-.3V34l-.1.2v-.8l-.1-.1-.3.1v.2l-.1.2v.1l-.4.4v.2h-.3l.2.4zm40.3-9.6v.3h.3v.1h.4v-.5h.1V25h.3v-.5h-.2v-.2h-.1v-.1l-.1-.1h-.1V24h-.4v.7h-.1v.7zm0 0v.2zm.1.1v-.1zm.2.2h.2zm.1.1h.1zm.2-.4h.2v.1zm-30.9 27l.1.1h.3l.4.4.3.2h.3l.2-.2v-.2l-.4-.4V52h-1.1l-.1.2zm34.9-19.9v.2l.2.1v.3h.2v.2h.1v.1h.6V33h.3v-.2h.1v.2h.2v-.6h-.2v.3h-.3v-.3h-.3v-.1h-.9zm1.4.3h.1zm-1.8 18.4h.2v.2h.3l.3-.2V51l.1-.1v-1.2h-.6v.1l-.1.2-.1.1v1zm0 0"/></g></g><g fill="none" clip-path="url(#C)" mask="url(#B)" class="D"><g stroke-width=".6"><use xlink:href="#E" class="B"/><use xlink:href="#E" class="C"/><path d="M155.8 18.3v-44.5" class="B"/><path d="M155.8 18.3v-44.5" class="C"/><use xlink:href="#F" class="B"/><use xlink:href="#F" class="C"/><use xlink:href="#G" class="B"/><use xlink:href="#G" class="C"/><use xlink:href="#H" class="B"/><use xlink:href="#H" class="C"/><use xlink:href="#I" class="B"/><use xlink:href="#I" class="C"/><use xlink:href="#J" class="B"/><use xlink:href="#J" class="C"/><use xlink:href="#K" class="B"/><use xlink:href="#K" class="C"/><use xlink:href="#L" class="B"/><use xlink:href="#L" class="C"/><use xlink:href="#M" class="B"/><use xlink:href="#M" class="C"/><use xlink:href="#N" class="B"/><use xlink:href="#N" class="C"/><use xlink:href="#O" class="B"/><use xlink:href="#O" class="C"/><use xlink:href="#P" class="B"/><use xlink:href="#P" class="C"/><use xlink:href="#Q" class="B"/><use xlink:href="#Q" class="C"/><use xlink:href="#R" class="B"/><use xlink:href="#R" class="C"/><use xlink:href="#S" class="B"/><use xlink:href="#S" class="C"/><use xlink:href="#T" class="B"/><use xlink:href="#T" class="C"/><use xlink:href="#U" class="B"/><use xlink:href="#U" class="C"/><use xlink:href="#V" class="B"/><use xlink:href="#V" class="C"/><path d="M155.8-28.2v44.6" class="B"/><path d="M155.8-28.2v44.6" class="C"/><use xlink:href="#W" class="B"/><use xlink:href="#W" class="C"/><use xlink:href="#X" class="B"/><use xlink:href="#X" class="C"/><use xlink:href="#Y" class="B"/><use xlink:href="#Y" class="C"/><use xlink:href="#Z" class="B"/><use xlink:href="#Z" class="C"/><use xlink:href="#a" class="B"/><use xlink:href="#a" class="C"/><use xlink:href="#b" class="B"/><use xlink:href="#b" class="C"/></g><use xlink:href="#c" class="B"/><use xlink:href="#c" class="C"/><use xlink:href="#d" class="B"/><use xlink:href="#d" class="C"/><use xlink:href="#e" class="B"/><use xlink:href="#e" class="C"/><use xlink:href="#f" class="B"/><use xlink:href="#f" class="C"/><path d="M155.8-32.4v44.6" class="B"/><path d="M155.8-32.4v44.6" class="C"/><use xlink:href="#g" class="B"/><use xlink:href="#g" class="C"/><use xlink:href="#h" class="B"/><use xlink:href="#h" class="C"/><use xlink:href="#i" class="B"/><use xlink:href="#i" class="C"/><use xlink:href="#j" class="B"/><use xlink:href="#j" class="C"/><use xlink:href="#k" class="B"/><use xlink:href="#k" class="C"/><use xlink:href="#l" class="B"/><use xlink:href="#l" class="C"/><path d="M155.8 8v-44.6" class="B"/><path d="M155.8 8v-44.6" class="C"/><use xlink:href="#m" class="B"/><use xlink:href="#m" class="C"/><use xlink:href="#n" class="B"/><use xlink:href="#n" class="C"/><use xlink:href="#o" class="B"/><use xlink:href="#o" class="C"/><use xlink:href="#p" class="B"/><use xlink:href="#p" class="C"/><use xlink:href="#q" class="B"/><use xlink:href="#q" class="C"/><use xlink:href="#r" class="B"/><use xlink:href="#r" class="C"/><use xlink:href="#s" class="B"/><use xlink:href="#s" class="C"/><use xlink:href="#t" class="B"/><use xlink:href="#t" class="C"/><use xlink:href="#u" class="B"/><use xlink:href="#u" class="C"/><use xlink:href="#v" class="B"/><use xlink:href="#v" class="C"/><use xlink:href="#w" class="B"/><use xlink:href="#w" class="C"/><use xlink:href="#x" class="B"/><use xlink:href="#x" class="C"/><use xlink:href="#y" class="B"/><use xlink:href="#y" class="C"/><use xlink:href="#z" class="B"/><use xlink:href="#z" class="C"/></g><defs ><path id="E" d="M4 261.2v.5l.2.7v.4h.5l.3-.3h.4l.6-.1.7-.4h.1l.3.4h.2l1 .3.7.4.6.1H11l.5-.2h1.8l.4.4.3.1.5.3.5.2.2.2.3.1.2.1.3.2.3.2.2.1.3.1h.2l.4-.2.3-.3.3-.2.4-.3.3-.2.2-.2.4-.3.4-.4.2-.2.1-.2h.9l.4-.1.4-.2.2-.1.4-.3.3-.3.2-.5h.1l.1-.5.2-.4v-.6l.3-.4v-.7l.2-.5v-.7l-.3-.4v-.3l-.3-.3v-.6l.3-.2.1-.1.5-.1h1.6l.5-.2v-.3l-.3-.5v-.4l-.1-.4v-1.1l.3-.4v-.3l.2-.4v-.6l.3-.2V247l.3-.4v-.2l.2-.2v-.3l.2-.3v-.1l.4-.5h-.2l-.6-.5-.4-.1-.5-.5-.2-.4-.1-.3"/><path id="F" d="M155.8 16.4V19l.2.5.2.3.4.4.3.1.3.1h1.5l.3.2h.3l.3.2h.2l.2.2.2.2h.2l.3.2h.5l.3.2.2.1.3.3h.5l.2.1.1.2.2.1v.3l.2.1.3.2h.8l.4-.2.2-.2.3-.3.2-.1h.2l.4.4.4.1.4.3.1.2.2.4.3.4.2.3.2.3.2.4.3.3.2.2h.2l.3.2.3.4.1.3.4.3.2.3.4.2.3.3.3.5h.5l.5.3.2.1.2.1.2.2v.5l.2.2.3.3v1.7h.3l.2.4.2.2.1.1.2.2.2.2v.2l.2.3v.5l.3.2.1.3h.1l.3.1.5.2h1.2l.2.2h.2l.2.2h.2l.2.2.2.1.2.3v.3l.1.3v.3l.1.2.2.6v.8l.2.2v.4l.1.2h1.4l.3.3h.2l.3-.3.3-.1.3-.3.3-.1.3-.2.5-.3.3-.2.4-.4.4-.2.4-.3.5-.3.3-.2"/><path id="G" d="M-30.2 250.7h1.5l.3.2h2.4l.3.1h.3l.3.2h1.6l.3.2h.3l.5.3.2.3h.4l.3.3h.3l.2.3h1l.5-.2h.5l.2-.2h.3l.2-.1h1l.2.3.4.2.4.4.3.3.3.3.3.4h2.4l.5-.2h.4l.1-.2.3-.2.2-.2h.1l.2-.2h.5l.3.2.4.3v.2l.3.1.5.2.2.3h.4l.2.2h1.7l.3-.3h.3l.4-.2h2.5l.3.2h.2l.4-.2.3-.3.4-.1.4-.2.4-.1.4-.2.5-.1.3-.1.6-.2.2-.1.4-.2h.6v.2l.4.3.1.4.3.4.2.2.1.3.2.4.2.4v.5l-.3.3-.1.3-.3.3v1.3l-.2.3v.3l.4.1.2.2.1.1v.3l.2.3v.1l.1.4v.6l.2.7"/><path id="H" d="M25.6 243.2v-.7l.1-.5.3-.2.3-.6v-.2l.4-.3.1-.4.2-.3.2-.4v-.8l-.2-.6v-1.1l-.3-.4v-1l.3-.3v-.4l.3-.4.2-.5.3-.3.4-.4.3-.4.5-.5.4-.3.3-.3.2-.2h.1l.5-.3h.4l.6-.2.6-.2h.7l.2-.1.3-.3.1-.3.1-.3.2-.3v-.2l.1-.4.2-.4V226l.1-.5v-.3l-.2-.2h-.3l-.2-.2-.3-.1-.1-.2-.4-.3-.2-.3-.2-.3v-.2l-.2-.1-.2-.1h-.6l-.5.4-.5.1-.4.3h-.4l-.6-.3-.3-.2-.2-.3-.3-.2-.3-.3-.1-.2-.2-.3-.2-.3v-.6l-.2-.3v-.3l-.3-.4-.3-.2-.1-.2-.3-.2-.2-.1-.3-.3-.3-.3-.3-.3-.1-.3-.2-.2v-.2l-.3-.5v-1l.4-.3.1-.2v-.3l.2-.1v-.9l-.3-.4v-.5l-.1-.2v-.2l-.1-.4v-.3l.3-.2v-.5h.2v-1.5l-.3-.2-.2-.2h-.2"/><path id="I" d="M24.3 210h-.2l-.4-.4-.3-.2-.4-.4h-.3l-.4-.2-.2-.2-.1-.1-.2-.3-.1-.2v-.4l.3-.2v-.2l.2-.2v-.4l-.2-.2-.2-.4v-.3l-.3-.3.2-.3.3-.3v-.3l.3-.4V203l-.3-.3V201l.2-.3v-.7l-.2-.2-.1-.3v-.2l.2-.2.4-.2h.3l.2-.2.4-.2.2-.1.2-.1h.7l.5.1.2.2h.2l.3.2h1l.7-.3.3-.1h.3l.5-.3h.5l.3-.3h.4l.2-.3.3-.3.4-.4.4-.2v-.2l.4-.4.3-.2.4-.3.3-.2.3-.2.2-.3.3-.2.3-.3.2-.3.3-.2.2-.2.4-.2.1-.2.4-.1.2-.1.3-.2.1-.2.1-.3.2-.3v-.5l.1-.3.1-.3.2-.5v-.4l.2-.2.1-.3.2-.3.1-.2.3-.3.1-.2.1-.3.1-.2v-.3l-.3-.2v-2.7l-.3-.2-.2-.8-.2-.3-.3-.4v-.3l-.3-.2v-.4l.3-.3.3-.2v-.2l.2-.1v-.4l-.2-.2-.2-.3-.2-.3-.1-.2-.3-.5-.3-.4-.3-.3-.1-.2"/><path id="J" d="M35.6 177.2l-.2.1-.3.2-.1.2-.2.2v.5l.2.2.2.2.3.2.3.5.3.4.1.3.2.3.2.3.1.2v.5l-.1.2-.3.2-.2.3v.4l.1.2.1.3.3.4.2.3.2.8.3.2v.3l.2.3v2.3l.1.3v.2l-.3.3v.2l-.3.3-.1.3-.2.1-.2.4v.2l-.1.4-.2.5v.3l-.2.3v.5l-.3.3v.3l-.1.2-.3.2h-.2l-.4.3-.1.1-.4.2-.2.2-.3.3-.2.2-.3.3-.2.2-.3.3-.3.2-.4.2-.3.3-.3.3-.3.3-.2.2-.3.2-.4.4-.3.3-.2.3-.4.1-.3.2-.3.1h-.1l-.5.1h-.4l-.3.3-.7.1h-1.3l-.2-.1-.3-.2-.4-.1h-.9l-.2.3-.4.1-.2.2h-.3l-.5.2v.9l.1.5v.8l-.1.2v.9l.2.3v.5l.2.3v.5l-.4.5v.3l-.3.3v.6l.1.3.3.4v.2l.1.2v.4l-.4.2-.1.2v.6l.3.3v.1l.4.2.3.2"/><path id="K" d="M22.7 209h.3l.4.4.3.2.4.3.4.1.2.3.3.2v1.5h-.2v.3l-.1.2-.1.2v.9l.2.2v.5l.2.4v.9l-.3.4-.1.2-.2.3-.1.2v.8l.3.5v.2l.2.2.1.3.3.3.3.3.3.3.2.1.3.3h.1l.3.3.3.4v.3l.2.3v.2l.1.4.1.3.2.3.1.2.3.2.3.3.2.3.3.2.6.2h.4l.4-.2.5-.2.5-.2.2-.1h.6l.1.3.1.1.2.4.2.2.4.3.1.2.3.1.2.2h.4l.1.3v.6l-.1.1v2.7l-.3.4v.6l-.2.3v.3l-.3.3-.1.4h-.3l-.5.2h-.2l-.6.1-.5.1-.5.1-.5.1-.3.4-.3.2-.4.3-.5.5-.3.4-.4.4-.3.2-.3.6-.1.4-.1.4-.1.3v2l.3.6v.9l.1.5-.3.3-.2.3-.2.4-.2.3-.2.4"/><path id="L" d="M4.6 262.7h-.3l-.1-.2-.2-.8v-.6l-.2-.7-.1-.6v-.5l-.2-.3v-.3h-.1l-.4-.4v-.2l-.2-.1v-.7l.2-.4v-.4l.1-.1.2-.4.2-.2.1-.3.1-.3v-.2l-.2-.4-.2-.4-.1-.2-.2-.3-.3-.4-.2-.4-.2-.3-.1-.2h-.6l-.4.2H1l-.6.4H.1l-.5.2-.4.1-.4.1-.4.2-.4.1-.3.3h-1.1l-.3-.2h-1.5l-.5.2-.3.2h-.4l-.3.2H-7l-.4.1h-1.2l-.3-.2-.3-.3-.5-.2-.2-.1-.1-.2-.4-.3-.3-.2h-.7l-.1.2-.2.2-.2.3-.2.1h-.4l-.5.2h-2.4l-.3-.4-.3-.3-.3-.4-.4-.3-.3-.3h-.8l-.2-.2h-.8l-.2.3h-.5l-.5.2h-1l-.2-.2-.3-.1-.3-.3-.4-.1-.2-.2-.6-.3h-.2l-.3-.3-.5-.1h-1.7l-.2-.1-.4-.2H-28l-.2.2"/><path id="M" d="M72.4 167.6l-.2.3-.2.2v1l.1.2v.5l-.1.2h-2.5l-.3-.2h-.8l-.4.2h-.7l-.2-.2-.3-.1h-.3l-.3-.1-.2-.2h-2.3l-.3.3h-.2l-.2.3h-.3l-.2.2-.5.3-.1.2-.3.2-.2.2-.4.1-.2.1h-.3l-.3.3h-.5l-.2-.4-.1-.2h-.2l-.1-.2-.2-.2-.1-.2-.1-.1-.2-.3h-.1l-.4-.3v-.1l-.5-.2-.2-.3H57l-.2.1-.1.2v1.4l-.3.2-.1.4-.3.2-.3.2-.4.1-.2.1-.2.2-.3.1-.3.1-.5.1h-.5l-.3.3h-.4l-.3-.3-.2-.1h-2.8l-.4.1-.3.1-.2.4-.2.2-.2.1-.2.2-.3.2h-1.1l-.2.1-.8.1-.4.2-.5.1-.2.1-.2.3-.3.4h-.2l-.3.3-.3.1h-1l-.3-.2H41l-.3-.1h-1.9l-.2.2-.1.1-.2.2-.3.3-.3.1-.5.4-.2.1-.3.2-.4.2H36l-.2.3h-.2"/><path id="N" d="M156.4 75.3v.1l-.7.2-.1.4-.1.1-.2.4v.8l.3.2v.4l-.4.1v.5l-.2.3v1.3l-.2.4v.5l-.2.3-.1.4-.2.3-.2.2v.3l-.4.4v.1l-.3.7-.4.6v.3l-.2.2-.2.2h-1.2l-.5-.2h-.4l-.4-.1-.6-.1h-.5l-.3.2-.2.3-.6.4-.2.3-.2.2-.5.4-.2.2-.2.2-.3.3-.2.3-.2.1h-.3l-.3-.1-.3-.1-.2-.3h-.1l-.3-.3-.2-.3-.3-.3-.2-.3-.3-.3-.4-.1h-.4l-.2.1-.2.1-.2.4-.3.4-.2.2-.1.2-.4.3-.4.3-.2.3-.2.2-.2.2-.5.2-.3.1-.4.2h-.1l-.2.3-.2.1v.5l-.1.3-.2.2-.2.3-.2.2-.4.1h-.7l-.3-.2-.5-.2-.5-.3h-.6l-.5.1-.4.2-.3.1-.5.3-.2.1-.3.4-.4.3-.3.2-.1.1h-.7l-.5.2h-.4l-.2.1-.2.3v.2l-.3.3v.5l-.3.6v.2l-.2.2v.7l-.2.4v.6l-.2.3-.3.4-.1.2"/><path id="O" d="M26.2 241.4l-.3.4-.2.2-.1.5v.7l.1.3.3.5.4.4.4.2.6.4h.1l-.2.5-.1.1-.2.3v.3l-.2.2-.1.2-.1.4-.3.4v3.8l-.3.4v.3l-.1.4v.6l-.2.1v.8l.3.4v.6l.2.2H26l-.4.2h-.5l-.4.1h-1.2l-.2.2v1l.1.3.2.4v.7l-.1.5v.3l-.2.4v.4l-.1.6-.2.4v.5h-.3l-.1.5-.3.3-.4.2-.2.2-.4.2h-1l-.2.1-.2.2-.2.2-.4.4-.4.3-.2.2-.3.2-.4.3-.3.2-.3.3-.4.2h-.5l-.2-.3-.3-.1-.3-.2h-.2l-.3-.3-.2-.1-.5-.3-.5-.1-.3-.3-.4-.2-.3-.1h-1.2l-.3.2H9.6l-.6-.1-.8-.4-1-.3-.4-.4h-.1l-.7.4-.6.2H5l-.4.1"/><path id="P" d="M35 178.6v-.2l-.3-.2v-.3l.3-.2.1-.2.3-.2.4-.2.3-.1.2-.1.4-.2.3-.2.2-.1.5-.4h.3l.3-.4.2-.2.1-.1.2-.1h2.5l.4.1h.7l.2.2h.7l.3-.5h.2l.3-.4.2-.3.2-.1.5-.1.4-.2.8-.1h.2l.1-.2h1l.3-.1.2-.2.2-.1.2-.2.2-.4h.4l.3-.3H52l.3.3h1.5l.5-.3h.3l.3-.2.1-.1h.3l.4-.3.3-.1.3-.2.2-.4.1-.2v-1.4l.3-.2.1-.1h.4l.2.3.2.2h.2l.1.3.3.1.1.1.2.2.1.1.1.2.2.2.1.2.2.1.1.2.2.1h1.1l.3-.3h.3l.2-.2.4-.2v-.2l.5-.3.2-.1.2-.2.3-.2h.2l.3-.3h.3l.3-.1H66l.2.3h.3l.3.2.2.2h1.7l.3-.2h.5l.3.2h2.1l.3-.2v-.4"/><path id="Q" d="M127.7 98.8v-1.6l.3-.2.1-.3.3-.4.2-.3v-.3l.2-.3v-1.1l.2-.2V94l.3-.7.1-.3v-.2l.1-.3v-.2l.4-.3h.5l.6-.3h.3l.3-.1h.1l.4-.3.3-.3.3-.3.3-.1.4-.3h.3l.3-.3.6-.2h.4l.2.2.5.2.5.2.3.2h.7l.4-.1.2-.2.2-.2.2-.3v-.5l.3-.3v-.2l.2-.1.1-.1.4-.2.3-.1.5-.3.2-.1.2-.2.2-.3.4-.3.4-.3.1-.2.2-.2.2-.4.1-.1.2-.3.2-.1.2-.1h.8l.3.4.2.4.3.2.2.3.3.3h.1l.2.3h.3l.3.3h.4l.1-.2.2-.4.3-.2.2-.2.2-.2.5-.4.2-.2.2-.3.6-.4.2-.3.3-.2h1l.5.3h.5l.4.1h1.2l.2-.2.1-.2.2-.3.3-.6.3-.6.1-.1.2-.5.1-.3.2-.2.2-.3.2-.4.1-.3.2-.2v-1.7l.2-.3v-.3l.1-.5h.1l.1-.3v-.2l-.1-.2-.2-.2v-.3"/><path id="R" d="M72.2 169.4v-.2H72V168l.3-.2.1-.1v-.2l.2-.3v-.2l-.3-.2-.1-.2-.1-.3-.3-.3h-.2l-.3-.3-.3-.1-.3-.2H70l-.3-.3h-1.2l-.2-.1-.3-.1-.4-.1-.3-.2-.5-.3-.2-.2-.2-.4-.4-.5v-.3l-.2-.2-.2-.3-.2-.1-.4-.3h-.2l-.6-.2h-.4l-.3-.3h-.3l-.2-.2-.2-.3-.2-.6-.1-.3-.1-.3v-.2l-.2-.3v-.9l.3-.3v-.6l.1-.5.2-.4v-.6l-.3-.3-.1-.2-.1-.3-.3-.4-.2-.2-.3-.4-.2-.2-.2-.3-.2-.3v-.2l-.2-.4v-1.5l.3-.3v-.1l.3-.2h1.1l.2-.2.4-.1.3-.1.3-.1.2-.2h.2l.2-.2v-.6l-.1-.2-.2-.2-.1-.2-.2-.3-.2-.4-.2-.3-.2-.3v-.3l-.2-.2v-.8l-.1-.4v-.3l-.1-.3-.1-.2-.1-.4v-.3l-.1-.4v-.2l-.3-.2-.1-.3v-.7l.2-.2.2-.3.2-.1.1-.1.2-.3.2-.3.3-.3.3-.2.1-.2.1-.3v-.2l-.1-.3-.3-.3-.1-.2-.3-.4v-1.4l-.3-.2v-1"/><path id="S" d="M62.8 135.8h1l.2-.3h.6l.4-.3.4-.2h.2l.2-.4.2-.3v-.6l.2-.4.2-.4.2-.3.1-.1.3-.2.4-.1h.7l.3-.2h.9l.5-.1.4-.1.4-.2.4-.3.3-.1.4-.2.3-.1v-1.7l-.2-.2v-.4l.2-.1.3-.5.2-.3.3-.1.1-.3.3-.3h.6l.3-.3h1.1l.5-.2.4-.2h.4l.4-.1h.4l.5-.2h.3l.4-.3.3-.1.4-.2h1l.4-.3.2-.1h.3l.6-.3.3-.2v-.2l.2-.4v-.8l-.2-.3v-.2l-.1-.3-.1-.3-.2-.1-.2-.3-.2-.2-.1-.4v-1l.2-.2.2-.1.1-.2.4-.3v-2.1l.1-.1.2-.2h.1l.3-.3h.4l.4-.2h.5l.3-.1.3-.2.4-.3.2-.2.3-.3.5-.2.3-.4.3-.3.2-.3.3-.2.2-.1h.7v.1l.3.1h.2l.3.1h.2l.2-.2.4-.1.2-.2.5-.3.2-.2.4-.1.3-.2.3-.2.5-.2"/><path id="T" d="M91.9 112.3l.3-.1.3-.3.2-.2.2-.1.3-.1.2-.1h.8l.5.1.1.1.2.1.3.3.2.1.5.2v.2l.1.2v.4l.3.1.1.3v.2l.3.3v.2l.2.2h1l.4-.1.2-.3.4-.2.2-.3.4-.5.2-.5.2-.2v-.3h.3l.2-.3.2-.2.3-.2.4-.3h.1l.3-.2.2-.3.4-.2.3-.3.4-.2.2-.1.2-.1.2-.1.3-.2.5-.2h.2l.2-.2.3-.3.2-.2.3-.3.3-.3v-.2l.3-.1.3-.2.3-.3h.1l.3-.1.2-.2v-.1l.2-.6v-.3l.2-.2v-.3l.2-.1.2-.2.2-.1.3-.2h.2l.3-.2h.5l.2.2h.6l.4-.3h.3l.4-.3h.5l.4-.1.4-.2.4-.2.5-.3.3-.2.4-.2.3-.2.4-.2.2-.1.5-.3h.3l.2.3.5.1.3.1h1.5l.4.1h2.2l.4.2h1.2l.3-.1.3-.2.4-.1.4-.2.3-.2.3-.2v-.2l.1-.2.1-.2.1-.2.2-.3.3-.3.4-.2.3-.2.2-.1.5-.2.3-.4.1-.2v-.3"/><path id="U" d="M155.2 76.8l.1-.3.2-.5.4-.4.4-.2.1-.1.3-.4.1-.2v-.2l.2-.3v-.5l.1-.4.2-.3.4-.3h.2l.3-.3h.2l.3-.1h.3l.3-.3h.8l.3-.1.4-.1h.3l.3.5.2.1.2.2.2.4.2.2v.4l.2.4v.2l.2.3v.3l.2.2.2.2.1.1.2.2.3.2.2.2.2.2v.9l-.2.2v.2l.4.3.1.3.3.5.3.5.4.5.2.3.3.2.3.3.2.3.4.3.4.1h.9l.2-.2v-.3l.3-.5v-.4l.2-.4.1-.6.2-.5.1-.5.2-.2.1-.3.2-.4v-2.4l.1-.2.2-.1.4-.4.4-.2.2-.4.4-.2.2-.2.2-.2.3-.4.2-.1.2-.4.3-.4.3-.4.2-.2.1-.1.2-.2.2-.2.4-.1h1.1l.3.1.3.2.4.1.2.1.4.2h.6l.6-.1.5-.2h.3l.3-.3v-.2l.3-.2.2-.4.2-.4v-.4l.2-.4v-.3l.1-.3.3-.2.2-.2.1-.2v-.6l.2-.3.1-.1"/><path id="V" d="M181 65.8v-.3h.5l.2-.2h.7l.2.2.4.3.4.3.3.2.5.2h.3l.2-.4.3-.2.1-.3.2-.2.1-.4.1-.4v-.4l-.3-.2-.1-.1-.1-.2-.3-.3-.2-.2-.2-.3-.3-.3V62l-.2-.3-.1-.3-.2-.3-.3-.1-.2-.5-.3-.2-.2-.3-.3-.4-.1-.3-.2-.3-.2-.4-.1-.3-.1-.3-.1-.3-.1-.3-.1-.4v-.1l-.2-.3v-.4l.4-.2v-.7l-.3-.2v-.2l.3-.5.2-.3.4-.2v-.1l.4-.1.3-.1.4-.1.3-.1h.3l.3-.1.3-.3h.3l.3-.4.1-.2.4-.2.4-.2.2-.2.3-.1h1.7l.4-.1.3-.2.2-.2v-.3l.3-.1v-.3l.1-.2V50l.2-.2v-.2l.1-.3V49l.3-.5v-.3l.2-.3v-.4l.2-.2V47l.2-.1.2-.2.1-.3.1-.2v-.9l.2-.3h.2v-1.1l.3-.1v-.9l.2-.2v-.5l-.3-.2-.2-.2-.3-.1-.2-.1-.2-.1-.1-.1-.2-.4h-.7l-.6-.2-.2-.1-.3-.2-.3-.3-.2-.2-.2-.3v-.5l.2-.2v-.2l-.4-.2-.1-.2-.2-.4v-.4l.2-.2v-.6l-.2-.2-.2-.1"/><path id="W" d="M185.3 36h.7l.2.1.2.2h.3l.4.3h.2l.1.2v1.6l.3.2.3.2v1.1l.2.3.3.3.3.2.2.1h.6l.3.2.4.1.2.3.1.1h.2l.3.3h.2l.2.2.2.2v.5l-.1.3h-.1v.7l-.1.3-.1.1v.8l-.3.1-.1.3v.9l-.1.2-.1.3-.2.3h-.2v.3l-.2.2v.2l-.1.2-.1.3-.1.3-.2.4v.4l-.2.3v.2l-.1.3v.2l-.2.2v.3l-.1.1-.1.3-.2.2-.3.2h-1.8l-.3.1-.3.1-.2.2-.4.2-.4.2-.1.2-.3.3-.3.1-.3.3h-.6l-.3.3h-.4l-.3.2h-.3l-.1.1-.4.2-.2.3-.2.6v.3l.1.2v.5l-.1.2v.2l-.2.2v.5l.4.3v.3l.2.3v.3l.2.3.2.4.1.3.1.3.3.5.2.2.2.2.3.5h.3l.2.4.1.3.2.3v.6l.3.3.2.3.2.2.3.3v.3h.3l.1.3.2.1v.2l-.3.5v.3l-.3.2v.3l-.3.3-.2.2h-.3l-.1.2-.3-.3-.5-.2-.3-.3-.3-.2"/><path id="X" d="M182.7 65.6h-.1l-.2-.3h-1l-.3.2-.3.5v.8l-.3.2-.1.2-.4.2v.5l-.2.5v.4l-.2.4-.3.4-.1.2-.2.3-.2.1-.3.1-.5.2-.6.1h-.6l-.4-.2h-.2l-.4-.3-.3-.1h-.3l-.4-.1h-.7l-.4.1-.2.2-.2.2h-.1l-.2.4-.3.3-.3.4-.2.5h-.2l-.3.4-.2.2-.2.2-.4.2-.2.4-.4.2-.3.4h-.3l-.1.4v2.3l-.2.4-.1.3-.2.2-.1.5-.2.5-.1.6-.2.4-.1.4-.1.5-.1.3-.2.3h-.9l-.4-.2-.4-.3-.2-.3-.3-.2-.3-.3-.2-.3-.4-.5-.3-.5-.3-.5-.3-.3v-.3l-.1-.2v-1.3l-.4-.2-.2-.2-.2-.2-.2-.1-.2-.2v-.3l-.1-.2-.2-.3V74l-.2-.4v-.4l-.2-.2-.2-.4-.2-.2-.2-.2-.4-.3-.2-.1-.4.1h-.3l-.4.1h-.4l-.3.3h-.6l-.2.3h-.2l-.3.2-.4.2-.2.3-.2.4v1l-.3.2-.2.4"/><path id="Y" d="M128 96.9l-.3.3v1.3l-.1.3v.2l-.2.3-.2.4-.5.2-.2.2h-.3l-.4.4-.3.2-.2.3-.1.2v.2l-.2.2v.2l-.3.2-.3.2-.4.2-.4.1-.3.2h-.3l-.6.3h-.4l-.2-.2-.4-.2h-2.6l-.3-.2H117l-.5-.2h-.2l-.3-.2-.5.3h-.2l-.4.4-.3.1-.4.2-.2.2-.6.3-.5.2-.3.3h-.4l-.5.2h-.7v.3h-.4l-.3.2h-.3l-.2-.3h-.8l-.2.2-.3.2-.2.1-.2.2-.2.1-.1.3-.1.2v.3l-.2.6v.1l-.3.3h-.2v.2l-.4.1-.3.2-.3.1v.2l-.3.3-.3.3-.2.2-.3.4h-.4l-.5.3-.3.2h-.2l-.2.3h-.2l-.4.2-.3.3-.3.2-.3.4-.3.1-.1.1-.4.2-.3.2-.2.2-.2.2-.2.1-.1.3-.2.2-.2.5-.4.5-.3.3-.3.2-.2.3h-.6l-.4.2H97l-.2-.3-.1-.2-.1-.3-.1-.2-.2-.3-.1-.1v-.4l-.2-.2v-.2l-.5-.3-.2-.1-.3-.2h-.2l-.2-.3h-.3l-.5-.1h-.3"/><path id="Z" d="M93.5 111.4h-.4l-.2.3h-.2l-.2.3-.3.2-.3.1-.4.2-.3.2-.2.2-.5.1h-.2l-.5.6-.2.1-.4.1-.2.2h-.5l-.2-.1-.3-.1-.5-.1H87l-.2.3-.2.3-.3.3-.3.3-.5.3-.3.3-.2.2-.4.3-.3.2-.3.1-.5.1-.4.1h-.4l-.3.3h-.1l-.3.2v1.2l.2.2v.6l-.3.2-.3.3-.1.2h-.2l-.2.3v1l.1.4.2.2.2.4h.2l.1.3.1.3v.2l.3.3v1.2l-.3.2-.3.2-.6.3h-.3l-.2.3h-1.1l-.3.2-.4.1-.3.2-.5.2h-.2l-.5.2h-.8l-.5.2-.3.1-.5.2H75l-.4.2h-1.2l-.2.1-.3.3-.1.3-.3.2-.2.2-.3.6-.2.4v.5l.2.5v.9l-.4.1h-.3l-.3.4-.4.2-.4.2h-.4l-.5.2h-.9l-.3.2h-.7l-.4.2-.3.1v.1l-.4.4-.1.3-.2.4v.4l-.1.2v.3l-.4.4h-.1l-.4.2-.3.2"/><path id="a" d="M64.7 135.4h-.1l-.6.3h-1.1l-.2.3v.3l.2.4v.2l.1.3v1.4l.4.3v.3l.3.3.1.3v.2l-.1.3-.1.2-.3.2-.3.3-.2.3-.2.3-.4.3-.1.2-.1.2v.8l.1.2.1.2v.2l.3.3v1.1l.3.2v.3l.1.4v.4l.1.4v.5l.2.3.2.4.2.3.2.3.1.2.2.2.1.2v.6l-.2.2h-.4l-.3.4H63l-.4.2h-1.4l-.1.4H61l-.1.3v.2l-.1.5v1.2l.2.2.1.3.2.3.2.2.3.4.2.2.3.4.1.3.2.2.1.3.1.3v.3l-.3.3v.1l-.1.5v.3l-.1.2v.7l-.1.3v.8l.4.3v.3l.3.6.1.3.2.2h.3l.3.3h.4l.6.2.3.1.3.2.2.1.2.3v.2l.2.3.4.5.2.4.2.2.5.3.3.2.4.1.3.2h.2l.3.1h.9l.3.1h.4l.3.1.3.2.3.1.3.3h.2l.3.3.1.3.2.2v.2l.1.2v.3"/><path id="b" d="M187 36.5l-.2-.1-.2-.1h-.2l-.2-.3h-.9l-.4.2-.4.3-.4.3-.4.3-.4.3-.4.2-.4.4h-.3l-.3.2-.3.3-.3.1-.3.2h-.2l-.3-.1-.5-.1h-.9l-.2-.2v-1l-.3-.4v-.6l-.2-.2v-.6l-.1-.3-.1-.3-.2-.2-.2-.1h-.2l-.2-.2h-.1l-.1-.2h-1.4l-.5-.3h-.2l-.2-.2-.2-.1-.1-.2-.1-.2V33l-.2-.3v-.2l-.3-.2V32l-.2-.1-.2-.2-.3-.2-.1-.1v-1.1l-.2-.6-.2-.3-.2-.2v-.5l-.2-.2h-.2l-.3-.3-.4-.1h-.2l-.3-.2-.3-.4-.3-.3-.4-.2-.2-.3-.3-.3-.3-.3-.2-.4-.3-.2h-.2l-.2-.2-.3-.2-.2-.5-.2-.3-.2-.3-.4-.4v-.4l-.2-.2-.4-.3-.4-.2-.4-.2-.2-.1-.2.1-.3.3-.2.2-.4.2h-.8l-.3-.3h-.2v-.3l-.2-.1-.1-.3h-.5l-.2-.1-.3-.2-.2-.2-.3-.1h-.5l-.3-.2h-.2l-.2-.2-.2-.2h-.2l-.3-.3h-2.1l-.2-.3h-.4l-.4-.4-.2-.3-.2-.4v-.8"/><path id="c" d="M96.6 113.7l-.1-.2-.2-.3-.1-.1v-.4l-.2-.2v-.2l-.5-.3-.2-.1-.3-.2h-.2l-.2-.3h-.3l-.5-.1h-.6l-.3.4h-.2l-.2.3-.3.2-.3.1-.4.2-.3.2-.2.2-.5.1h-.2l-.5.6-.2.1-.4.1-.2.2h-.5l-.2-.1-.3-.1-.5-.1H87l-.2.3-.2.3-.3.3-.3.3-.5.3-.3.3-.2.2-.4.3-.3.2-.3.1-.5.1-.4.1h-.4l-.3.3h-.1l-.3.2v1.2l.2.2v.6l-.3.2-.3.3-.1.2h-.2l-.2.3v1l.1.4.2.2.2.4h.2l.1.3.1.3v.2l.3.3v1.2l-.3.2-.3.2-.6.3h-.3l-.2.3h-1.1l-.3.2-.4.1-.3.2-.5.2h-.2l-.5.2h-.8l-.5.2-.3.1-.5.2H75l-.4.2h-1.2l-.2.1-.3.3-.1.3-.3.2-.2.2-.3.6-.2.4v.5l.2.5v.9l-.4.1h-.3l-.3.4-.4.2-.4.2h-.4l-.5.2h-.9l-.3.2h-.7l-.3.2"/><path id="d" d="M22 201.6v-.6l.2-.3v-.7l-.2-.2-.1-.3v-.2l.2-.2.4-.2h.3l.2-.2.4-.2.2-.1.2-.1h.7l.5.1.2.2h.2l.3.2h1l.7-.3.3-.1h.3l.5-.3h.5l.3-.3h.4l.2-.3.3-.3.4-.4.4-.2v-.2l.4-.4.3-.2.4-.3.3-.2.3-.2.2-.3.3-.2.3-.3.2-.3.3-.2.2-.2.4-.2.1-.2.4-.1.2-.1.3-.2.1-.2.1-.3.2-.3v-.5l.1-.3.1-.3.2-.5v-.4l.2-.2.1-.3.2-.3.1-.2.3-.3.1-.2.1-.3.1-.2v-.3l-.3-.2v-2.7l-.3-.2-.2-.8-.2-.3-.3-.4v-.3l-.3-.2v-.4l.3-.3.3-.2v-.2l.2-.1v-.4l-.2-.2-.2-.3-.2-.3-.1-.2-.3-.5-.3-.4-.3-.3-.2-.2v-.2l-.3-.2v-.3l.3-.2.1-.2.3-.2.4-.2.3-.1.2-.1.4-.2.3-.2.2-.1.5-.4h.3l.3-.4.2-.2.1-.1.2-.1h2.5l.4.1h.7l.2.2h.7"/><path id="e" d="M66.2 163.3l-.2-.1v-.3l-.2-.2-.2-.3-.2-.1-.4-.3h-.2l-.6-.2h-.4l-.3-.3h-.3l-.2-.2-.2-.3-.2-.6-.1-.3-.1-.3v-.2l-.2-.3v-.9l.3-.3v-.6l.1-.5.2-.4v-.6l-.3-.3-.1-.2-.1-.3-.3-.4-.2-.2-.3-.4-.2-.2-.2-.3-.2-.3v-.2l-.2-.4v-1.5l.3-.3v-.1l.3-.2h1.1l.2-.2.4-.1.3-.1.3-.1.2-.2h.2l.2-.2v-.6l-.1-.2-.2-.2-.1-.2-.2-.3-.2-.4-.2-.3-.2-.3v-.3l-.2-.2v-.8l-.1-.4v-.3l-.1-.3-.1-.2-.1-.4v-.3l-.1-.4v-.2l-.3-.2-.1-.3v-.7l.2-.2.2-.3.2-.1.1-.1.2-.3.2-.3.3-.3.3-.2.1-.2.1-.3v-.2l-.1-.3-.3-.3-.1-.2-.3-.4v-1.4l-.3-.2v-1.2h1.1l.2-.3h.6l.4-.3.4-.2h.2l.2-.4.2-.3v-.6l.2-.4.2-.4.2-.3.1-.1.3-.2.4-.1h.7l.3-.2h.9l.5-.1.4-.1.4-.2.4-.3h.1"/><path id="f" d="M132.5 91l.2-.3.3-.1.4-.3h.3l.3-.3.6-.2h.4l.2.2.5.2.5.2.3.2h.7l.4-.1.2-.2.2-.2.2-.3v-.5l.3-.3v-.2l.2-.1.1-.1.4-.2.3-.1.5-.3.2-.1.2-.2.2-.3.4-.3.4-.3.1-.2.2-.2.2-.4.1-.1.2-.3.2-.1.2-.1h.8l.3.4.2.4.3.2.2.3.3.3h.1l.2.3h.3l.3.3h.4l.1-.2.2-.4.3-.2.2-.2.2-.2.5-.4.2-.2.2-.3.6-.4.2-.3.3-.2h1l.5.3h.5l.4.1h1.2l.2-.2.1-.2.2-.3.3-.6.3-.6.1-.1.2-.5.1-.3.2-.2.2-.3.2-.4.1-.3.2-.2v-1.7l.2-.3v-.3l.1-.5h.1l.1-.3v-.2l-.1-.2-.2-.2v-.3l.1-.3.2-.5.4-.4.4-.2.1-.1.3-.4.1-.2v-.2l.2-.3v-.5l.1-.4.2-.3.4-.3h.2l.3-.3h.2l.3-.1h.3l.3-.3h.8l.3-.1.4-.1h.3l.3.5.2.1.2.2.2.4.2.2"/><path id="g" d="M155.8 12.2V19l.2.5.2.3.4.4.3.1.3.1h1.5l.3.2h.3l.3.2h.2l.2.2.2.2h.2l.3.2h.5l.3.2.2.1.3.3h.5l.2.1.1.2.2.1v.3l.2.1.3.2h.8l.4-.2.2-.2.3-.3.2-.1h.2l.4.4.4.1.4.3.1.2.2.4.3.4.2.3.2.3.2.4.3.3.2.2h.2l.3.2.3.4.1.3.4.3.2.3.4.2.3.3.3.5h.5l.5.3.2.1.2.1.2.2v.5l.2.2.3.3v1.7h.3l.2.4.2.2.1.1.2.2.2.2v.2l.2.3v.5l.3.2.1.3h.1l.3.1.5.2h1.2l.2.2h.2l.2.2h.2l.2.2.2.1.2.3v.3l.1.3v.3l.1.2.2.6v.8l.2.2v.4l.1.2h1.4l.3.3h.2l.3-.3.3-.1.2-.2"/><path id="h" d="M185.5 64.6l-.1.5-.1.3-.3.2v.3l-.3.3-.2.2h-.3l-.1.2-.3-.3-.5-.2-.3-.3-.4-.3-.2-.1h-1l-.3.1-.3.5v.8l-.3.2-.1.2-.4.2v.5l-.2.5v.4l-.2.4-.3.4-.1.2-.2.3-.2.1-.3.1-.5.2-.6.1h-.6l-.4-.2h-.2l-.4-.3-.3-.1h-.3l-.4-.1h-.7l-.4.1-.2.2-.2.2h-.1l-.2.4-.3.3-.3.4-.2.5h-.2l-.3.4-.2.2-.2.2-.4.2-.2.4-.4.2-.3.4h-.3l-.1.4v2.3l-.2.4-.1.3-.2.2-.1.5-.2.5-.1.6-.2.4-.1.4-.1.5-.1.3-.2.3h-.9l-.4-.2-.4-.3-.2-.3-.3-.2-.3-.3-.2-.3-.4-.5-.3-.5-.3-.5-.3-.3v-.3l-.1-.2v-1.3l-.4-.2-.2-.2-.2-.2-.2-.1-.2-.2v-.3l-.1-.2-.2-.3V74l-.2-.4v-.4l-.2-.2-.2-.4-.2-.2-.2-.2-.4-.3-.2-.1-.4.1h-.3l-.4.1h-.4l-.3.3h-.3"/><path id="i" d="M67.1 132.3H67l-.3.2v.1l-.4.4-.1.3-.2.4v.4l-.1.2v.3l-.4.4h-.1l-.4.2-.4.3H64l-.3.3h-.8l-.2.2v.3l.2.4v.2l.1.3v1.4l.4.3v.3l.3.3.1.3v.2l-.1.3-.1.2-.3.2-.3.3-.2.3-.2.3-.4.3-.1.2-.1.2v.8l.1.2.1.2v.2l.3.3v1.1l.3.2v.3l.1.4v.4l.1.4v.5l.2.3.2.4.2.3.2.3.1.2.2.2.1.2v.6l-.2.2h-.4l-.3.4H63l-.4.2h-1.4l-.1.4H61l-.1.3v.2l-.1.5v1.2l.2.2.1.3.2.3.2.2.3.4.2.2.3.4.1.3.2.2.1.3.1.3v.3l-.3.3v.1l-.1.5v.3l-.1.2v.7l-.1.3v.8l.4.3v.3l.3.6.1.3.2.2h.3l.3.3h.4l.6.2.3.1.3.2.2.1.2.3v.2l.2.3.4.5.2.4.2.2.5.3.3.2.4.1.3.2h.2l.3.1h.8"/><path id="j" d="M39.2 175.1h-.4l-.2.3h-.1l-.2.2-.3.3-.3.1-.5.4-.2.1-.3.2-.4.2H36l-.2.3-.4.1-.3.2-.1.2-.2.2v.5l.2.2.2.2.3.2.3.5.3.4.1.3.2.3.2.3.1.2v.5l-.1.2-.3.2-.2.3v.4l.1.2.1.3.3.4.2.3.2.8.3.2v.3l.2.3v2.3l.1.3v.2l-.3.3v.2l-.3.3-.1.3-.2.1-.2.4v.2l-.1.4-.2.5v.3l-.2.3v.5l-.3.3v.3l-.1.2-.3.2h-.2l-.4.3-.1.1-.4.2-.2.2-.3.3-.2.2-.3.3-.2.2-.3.3-.3.2-.4.2-.3.3-.3.3-.3.3-.2.2-.3.2-.4.4-.3.3-.2.3-.4.1-.3.2-.3.1h-.1l-.5.1h-.4l-.3.3-.7.1h-1.3l-.2-.1-.3-.2-.4-.1h-.9l-.2.3-.4.1-.2.2h-.3l-.5.2v.9l.1.5v.8l-.1.2v.9l.2.3v.5l.2.3v.5l-.4.5v.3l-.3.3v.5"/><path id="k" d="M99.6 112.8l.2-.3.2-.2v-.3h.3l.2-.3.2-.2.3-.2.4-.3h.1l.3-.2.2-.3.4-.2.3-.3.4-.2.2-.1.2-.1.2-.1.3-.2.5-.2h.2l.2-.2.3-.3.2-.2.3-.3.3-.3v-.2l.3-.1.3-.2.3-.3h.1l.3-.1.2-.2v-.1l.2-.6v-.3l.2-.2v-.3l.2-.1.2-.2.2-.1.3-.2h.2l.3-.2h.5l.2.2h.6l.4-.3h.3l.4-.3h.5l.4-.1.4-.2.4-.2.5-.3.3-.2.4-.2.3-.2.4-.2.2-.1.5-.3h.3l.2.3.5.1.3.1h1.5l.4.1h2.2l.4.2h1.2l.3-.1.3-.2.4-.1.4-.2.3-.2.3-.2v-.2l.1-.2.1-.2.1-.2.2-.3.3-.3.4-.2.3-.2.2-.1.5-.2.3-.4.1-.2.1-.3v-1.6l.3-.2.1-.3.3-.4.2-.3v-.3l.2-.3v-1.1l.2-.2V94l.3-.7.1-.3v-.2l.1-.3v-.2l.4-.3h.5l.6-.3h.3l.3-.1h.1l.4-.3.3-.3"/><path id="l" d="M183.5 61.1l-.3-.1-.2-.5-.3-.2-.2-.3-.3-.4-.1-.3-.2-.3-.2-.4-.1-.3-.1-.3-.1-.3-.1-.3-.1-.4v-.1l-.2-.3v-.4l.4-.2v-.7l-.3-.2v-.2l.3-.5.2-.3.4-.2v-.1l.4-.1.3-.1.4-.1.3-.1h.3l.3-.1.3-.3h.3l.3-.4.1-.2.4-.2.4-.2.2-.2.3-.1h1.7l.4-.1.3-.2.2-.2v-.3l.3-.1v-.3l.1-.2V50l.2-.2v-.2l.1-.3V49l.3-.5v-.3l.2-.3v-.4l.2-.2V47l.2-.1.2-.2.1-.3.1-.2v-.9l.2-.3h.2v-1.1l.3-.1v-.9l.2-.2v-.5l-.3-.2-.2-.2-.3-.1-.2-.1-.2-.1-.1-.1-.2-.4h-.7l-.6-.2-.2-.1-.3-.2-.3-.3-.2-.2-.2-.3v-.5l.2-.2v-.2l-.4-.2-.1-.2-.2-.4v-.4l.2-.2v-.6l-.2-.2-.2-.1-.4-.1-.1-.1h-.2l-.2-.3h-.9l-.4.2-.4.3-.4.3-.4.3-.4.3-.4.2-.4.4h-.3l-.3.2-.3.3-.3.1-.3.2h-.2l-.3-.1-.5-.1h-.9l-.2-.2v-1"/><path id="m" d="M181.8 38.3l.5-.3.2-.1.5-.3.3-.2.4-.4.4-.2.4-.3.5-.3.3-.2h.7l.2.1.2.2h.3l.4.3h.2l.1.2v1.6l.3.2.3.2v1.1l.2.3.3.3.3.2.2.1h.6l.3.2.4.1.2.3.1.1h.2l.3.3h.2l.2.2.2.2v.5l-.1.3h-.1v.7l-.1.3-.1.1v.8l-.3.1-.1.3v.9l-.1.2-.1.3-.2.3h-.2v.3l-.2.2v.2l-.1.2-.1.3-.1.3-.2.4v.4l-.2.3v.2l-.1.3v.2l-.2.2v.3l-.1.1-.1.3-.2.2-.3.2h-1.8l-.3.1-.3.1-.2.2-.4.2-.4.2-.1.2-.3.3-.3.1-.3.3h-.6l-.3.3h-.4l-.3.2h-.3l-.1.1-.4.2-.2.3-.2.6v.3l.1.2v.5l-.1.2v.2l-.2.2v.5l.4.3v.3l.2.3v.3l.2.3.2.4.1.3.1.3.3.5.2.2.2.2.3.5h.3l.2.4.1.3.2.3v.6l.3.3.2.3.2.2.3.3v.3h.3l.1.3.2.1v.2"/><path id="n" d="M158.7 72.3h-.3l-.2.3h-.2l-.3.2-.4.2-.2.3-.2.4v1l-.3.2-.2.4v.1l-.7.2-.1.4-.1.1-.2.4v.8l.3.2v.4l-.4.1v.5l-.2.3v1.3l-.2.4v.5l-.2.3-.1.4-.2.3-.2.2v.3l-.4.4v.1l-.3.7-.4.6v.3l-.2.2-.2.2h-1.2l-.5-.2h-.4l-.4-.1-.6-.1h-.5l-.3.2-.2.3-.6.4-.2.3-.2.2-.5.4-.2.2-.2.2-.3.3-.2.3-.2.1h-.3l-.3-.1-.3-.1-.2-.3h-.1l-.3-.3-.2-.3-.3-.3-.2-.3-.3-.3-.4-.1h-.4l-.2.1-.2.1-.2.4-.3.4-.2.2-.1.2-.4.3-.4.3-.2.3-.2.2-.2.2-.5.2-.3.1-.4.2h-.1l-.2.3-.2.1v.5l-.1.3-.2.2-.2.3-.2.2-.4.1h-.7l-.3-.2-.5-.2-.5-.3h-.6l-.5.1-.4.2-.3.1-.5.3-.2.1-.3.4-.4.3-.3.2-.1.1h-.7l-.5.2h-.4l-.2.1-.2.3v.2l-.3.3v.2"/><path id="o" d="M129.4 93v.4l-.4.5v.2l-.2.2v.7l-.2.4v.6l-.2.3-.3.4-.1.2-.2.3v1.3l-.2.3v.2l-.2.3-.2.4-.5.2-.2.2h-.3l-.4.4-.3.2-.2.3-.1.2v.2l-.2.2v.2l-.3.2-.3.2-.4.2-.4.1-.3.2h-.3l-.6.3h-.4l-.2-.2-.4-.2h-2.6l-.3-.2H117l-.5-.2h-.2l-.3-.2-.5.3h-.2l-.4.4-.3.1-.4.2-.2.2-.6.3-.5.2-.3.3h-.4l-.5.2h-.7v.3h-.4l-.3.2h-.3l-.2-.3h-.8l-.2.2-.3.2-.2.1-.2.2-.2.1-.1.3-.1.2v.3l-.2.6v.1l-.3.3h-.2v.2l-.4.1-.3.2-.3.1v.2l-.3.3-.3.3-.2.2-.3.4h-.4l-.5.3-.3.2h-.2l-.2.3h-.2l-.4.2-.3.3-.3.2-.3.4-.3.1-.1.1-.4.2-.3.2-.2.2-.2.2-.2.1-.1.3-.2.2-.2.5-.4.5-.3.3-.3.2-.2.3h-.6l-.4.2H97l-.2-.3-.1-.2-.1-.3"/><path id="p" d="M69.6 165.2h.1l.3.1h.4l.3.1.3.2.3.1.3.3h.2l.3.3.1.3.2.2v.2l.1.2v.3l-.1.2-.2.1-.2.3v1l.1.2v.5l-.1.2h-2.5l-.3-.2h-.8l-.4.2h-.7l-.2-.2-.3-.1h-.3l-.3-.1-.2-.2h-2.3l-.3.3h-.2l-.2.3h-.3l-.2.2-.5.3-.1.2-.3.2-.2.2-.4.1-.2.1h-.3l-.3.3h-.5l-.2-.4-.1-.2h-.2l-.1-.2-.2-.2-.1-.2-.1-.1-.2-.3h-.1l-.4-.3v-.1l-.5-.2-.2-.3H57l-.2.1-.1.2v1.4l-.3.2-.1.4-.3.2-.3.2-.4.1-.2.1-.2.2-.3.1-.3.1-.5.1h-.5l-.3.3h-.4l-.3-.3-.2-.1h-2.8l-.4.1-.3.1-.2.4-.2.2-.2.1-.2.2-.3.2h-1.1l-.2.1-.8.1-.4.2-.5.1-.2.1-.2.3-.3.4h-.2l-.3.3-.3.1h-1l-.3-.2H41l-.3-.1h-1.5"/><path id="q" d="M21.7 205.6v.2l.1.2.3.4v.2l.1.2v.4l-.4.2-.1.2v.6l.3.3v.1l.4.2.3.2h.3l.4.4.3.2.4.3.4.1.2.3.3.2v1.5h-.2v.3l-.1.2-.1.2v.9l.2.2v.5l.2.4v.9l-.3.4-.1.2-.2.3-.1.2v.8l.3.5v.2l.2.2.1.3.3.3.3.3.3.3.2.1.3.3h.1l.3.3.3.4v.3l.2.3v.2l.1.4.1.3.2.3.1.2.3.2.3.3.2.3.3.2.6.2h.4l.4-.2.5-.2.5-.2.2-.1h.6l.1.3.1.1.2.4.2.2.4.3.1.2.3.1.2.2h.4l.1.3v.6l-.1.1v2.7l-.3.4v.6l-.2.3v.3l-.3.3-.1.4h-.3l-.5.2h-.2l-.6.1-.5.1-.5.1-.5.1-.3.4-.3.2-.4.3-.5.5-.3.4-.4.4-.3.2-.3.6-.1.4-.1.4-.1.3v1.8"/><path id="r" d="M8.5 262.8h-.3l-1-.5-.4-.3h-.1l-.7.4-.6.2H5l-.4.1h-.3l-.1-.2-.2-.8v-.6l-.2-.7-.1-.6v-.5l-.2-.3v-.3h-.1l-.4-.4v-.2l-.2-.1v-.7l.2-.4v-.4l.1-.1.2-.4.2-.2.1-.3.1-.3v-.2l-.2-.4-.2-.4-.1-.2-.2-.3-.3-.4-.2-.4-.2-.3-.1-.2h-.6l-.4.2H1l-.6.4H.1l-.5.2-.4.1-.4.1-.4.2-.4.1-.3.3h-1.1l-.3-.2h-1.5l-.5.2-.3.2h-.4l-.3.2H-7l-.4.1h-1.2l-.3-.2-.3-.3-.5-.2-.2-.1-.1-.2-.4-.3-.3-.2h-.7l-.1.2-.2.2-.2.3-.2.1h-.4l-.5.2h-2.4l-.3-.4-.3-.3-.3-.4-.4-.3-.3-.3h-.8l-.2-.2h-.8l-.2.3h-.5l-.5.2h-1l-.2-.2-.3-.1-.3-.3-.4-.1-.2-.2-.6-.3h-.2l-.3-.3-.5-.1h-.2"/><path id="s" d="M-20.3 252.5h.3l.5-.1h.5l.2-.2h.3l.2-.1h1l.2.3.4.2.4.4.3.3.3.3.3.4h2.4l.5-.2h.4l.1-.2.3-.2.2-.2h.1l.2-.2h.5l.3.2.4.3v.2l.3.1.5.2.2.3h.4l.2.2h1.7l.3-.3h.3l.4-.2h2.5l.3.2h.2l.4-.2.3-.3.4-.1.4-.2.4-.1.4-.2.5-.1.3-.1.6-.2.2-.1.4-.2h.6v.2l.4.3.1.4.3.4.2.2.1.3.2.4.2.4v.5l-.3.3-.1.3-.3.3v1.3l-.2.3v.3l.4.1.2.2.1.1v.3l.2.3v.1l.1.4v.6l.2.7v.6l.2.7v.4h.5l.3-.3h.4l.6-.1.7-.4h.1l.3.4h.2l1 .3.7.4.6.1H11l.5-.2h1"/><path id="t" d="M12.6 263h.7l.4.4.3.1.5.3.5.2.2.2.3.1.2.1.3.2.3.2.2.1.3.1h.2l.4-.2.3-.3.3-.2.4-.3.3-.2.2-.2.4-.3.4-.4.2-.2.1-.2h.9l.4-.1.4-.2.2-.1.4-.3.3-.3.2-.5h.1l.1-.5.2-.4v-.6l.3-.4v-.7l.2-.5v-.7l-.3-.4v-.3l-.3-.3v-.6l.3-.2.1-.1.5-.1h1.6l.5-.2v-.3l-.3-.5v-.4l-.1-.4v-1.1l.3-.4v-.3l.2-.4v-.6l.3-.2V247l.3-.4v-.2l.2-.2v-.3l.2-.3v-.1l.4-.5h-.2l-.6-.5-.4-.1-.5-.5-.2-.4-.1-.3v-.7l.1-.5.3-.2.3-.6v-.2l.4-.3.1-.4.2-.3.2-.4v-.8l-.2-.6v-1.1l-.3-.4v-1l.3-.3v-.4l.3-.4.2-.5.3-.3.1-.2"/><path id="u" d="M27 237.5v.8l.2.5v.4l.1.5-.3.3-.2.3-.2.4-.2.3-.1.2-.4.6-.2.2-.1.5v.7l.1.3.3.5.4.4.4.2.6.4h.1l-.2.5-.1.1-.2.3v.3l-.2.2-.1.2-.1.4-.3.4v3.8l-.3.4v.3l-.1.4v.6l-.2.1v.8l.3.4v.6l.2.2H26l-.4.2h-.5l-.4.1h-1.2l-.2.2v1l.1.3.2.4v.7l-.1.5v.3l-.2.4v.4l-.1.6-.2.4v.5h-.3l-.1.5-.3.3-.4.2-.2.2-.4.2h-1l-.2.1-.2.2-.2.2-.4.4-.4.3-.2.2-.3.2-.4.3-.3.2-.3.3-.4.2h-.5l-.2-.3-.3-.1-.3-.2h-.2l-.3-.3-.2-.1-.5-.3-.5-.1-.3-.3-.4-.2-.3-.1h-1.2l-.3.2H9.6l-.6-.1-.5-.3"/><path id="v" d="M43.3 175.3l.3-.3h.2l.3-.4.2-.3.2-.1.5-.1.4-.2.8-.1h.2l.1-.2h1l.3-.1.2-.2.2-.1.2-.2.2-.4h.4l.3-.3H52l.3.3h1.5l.5-.3h.3l.3-.2.1-.1h.3l.4-.3.3-.1.3-.2.2-.4.1-.2v-1.4l.3-.2.1-.1h.4l.2.3.2.2h.2l.1.3.3.1.1.1.2.2.1.1.1.2.2.2.1.2.2.1.1.2.2.1h1.1l.3-.3h.3l.2-.2.4-.2v-.2l.5-.3.2-.1.2-.2.3-.2h.2l.3-.3h.3l.3-.1H66l.2.3h.3l.3.2.2.2h1.7l.3-.2h.5l.3.2h2.1l.3-.2v-.6H72V168l.3-.2.1-.1v-.2l.2-.3v-.2l-.3-.2-.1-.2-.1-.3-.3-.3h-.2l-.3-.3-.3-.1-.3-.2H70l-.3-.3h-1.2l-.2-.1-.3-.1-.4-.1-.3-.2-.5-.3-.2-.2-.4-.8"/><path id="w" d="M71.1 131.2h.2l.4-.2.3-.1v-1.7l-.2-.2v-.4l.2-.1.3-.5.2-.3.3-.1.1-.3.3-.3h.6l.3-.3h1.1l.5-.2.4-.2h.4l.4-.1h.4l.5-.2h.3l.4-.3.3-.1.4-.2h1l.4-.3.2-.1h.3l.6-.3.3-.2v-.2l.2-.4v-.8l-.2-.3v-.2l-.1-.3-.1-.3-.2-.1-.2-.3-.2-.2-.1-.4v-1l.2-.2.2-.1.1-.2.4-.3v-2.1l.1-.1.2-.2h.1l.3-.3h.4l.4-.2h.5l.3-.1.3-.2.4-.3.2-.2.3-.3.5-.2.3-.4.3-.3.2-.3.3-.2.2-.1h.7v.1l.3.1h.2l.3.1h.2l.2-.2.4-.1.2-.2.5-.3.2-.2.4-.1.3-.2.3-.2.5-.2.2-.1.3-.3.2-.2.2-.1.3-.1.2-.1h.8l.5.1.1.1.2.1.3.3.2.1.5.2v.2l.1.2v.4l.3.1.1.3v.2l.3.3v.2l.2.2h1l.4-.1.2-.3.4-.2.2-.3.4-.5v-.2"/><path id="x" d="M162.2 73.2v.4l.2.4v.2l.2.3v.3l.2.2.2.2.1.1.2.2.3.2.2.2.2.2v.9l-.2.2v.2l.4.3.1.3.3.5.3.5.4.5.2.3.3.2.3.3.2.3.4.3.4.1h.9l.2-.2v-.3l.3-.5v-.4l.2-.4.1-.6.2-.5.1-.5.2-.2.1-.3.2-.4v-2.4l.1-.2.2-.1.4-.4.4-.2.2-.4.4-.2.2-.2.2-.2.3-.4.2-.1.2-.4.3-.4.3-.4.2-.2.1-.1.2-.2.2-.2.4-.1h1.1l.3.1.3.2.4.1.2.1.4.2h.6l.6-.1.5-.2h.3l.3-.3v-.2l.3-.2.2-.4.2-.4v-.4l.2-.4v-.3l.1-.3.3-.2.2-.2.1-.2v-.6l.2-.3.2-.4h.3l.3-.2h.7l.2.2.4.3.4.3.3.2.5.2h.3l.2-.4.3-.2.1-.3.2-.2.1-.4.1-.4v-.4l-.3-.2-.1-.1-.1-.2-.3-.3-.2-.2-.2-.3-.3-.3V62l-.2-.3-.1-.3-.2-.3"/><path id="y" d="M178.8 37.4V37l-.2-.6V36l-.3-.4v-.3l-.1-.3-.2-.2-.2-.1h-.2l-.2-.2h-.1l-.1-.2h-1.4l-.5-.3h-.2l-.2-.2-.2-.1-.1-.2-.1-.2V33l-.2-.3v-.2l-.3-.2V32l-.2-.1-.2-.2-.3-.2-.1-.1v-1.1l-.2-.6-.2-.3-.2-.2v-.5l-.2-.2h-.2l-.3-.3-.4-.1h-.2l-.3-.2-.3-.4-.3-.3-.4-.2-.2-.3-.3-.3-.3-.3-.2-.4-.3-.2h-.2l-.2-.2-.3-.2-.2-.5-.2-.3-.2-.3-.4-.4v-.4l-.2-.2-.4-.3-.4-.2-.4-.2-.2-.1-.2.1-.3.3-.2.2-.4.2h-.8l-.3-.3h-.2v-.3l-.2-.1-.1-.3h-.5l-.2-.1-.3-.2-.2-.2-.3-.1h-.5l-.3-.2h-.2l-.2-.2-.2-.2h-.2l-.3-.3h-2.1l-.2-.3h-.4l-.4-.4-.2-.3-.2-.4V8"/><path id="z" d="M28 233.6l.1-.2.4-.4.5-.5.4-.3.3-.3.2-.2h.1l.5-.3h.4l.6-.2.6-.2h.7l.2-.1.3-.3.1-.3.1-.3.2-.3v-.2l.1-.4.2-.4V226l.1-.5v-.3l-.2-.2h-.3l-.2-.2-.3-.1-.1-.2-.4-.3-.2-.3-.2-.3v-.2l-.2-.1-.2-.1h-.6l-.5.4-.5.1-.4.3h-.4l-.6-.3-.3-.2-.2-.3-.3-.2-.3-.3-.1-.2-.2-.3-.2-.3v-.6l-.2-.3v-.3l-.3-.4-.3-.2-.1-.2-.3-.2-.2-.1-.3-.3-.3-.3-.3-.3-.1-.3-.2-.2v-.2l-.3-.5v-1l.4-.3.1-.2v-.3l.2-.1v-.9l-.3-.4v-.5l-.1-.2v-.2l-.1-.4v-.3l.3-.2v-.5h.2v-1.5l-.3-.2-.2-.2-.5-.2-.3-.3-.3-.2-.4-.4h-.3l-.4-.2-.2-.2-.1-.1-.2-.3-.1-.2v-.4l.3-.2v-.2l.2-.2v-.4l-.2-.2-.2-.4v-.3l-.3-.3.2-.3.3-.3v-.3l.3-.4V203l-.3-.3v-1"/></defs></svg>