<svg style="" viewBox="0 0 497 279" xmlns="http://www.w3.org/2000/svg" xmlns:xlink="http://www.w3.org/1999/xlink"><defs style=""><clipPath id="a" style=""><path d="m0 0h32v32h-32z" style=""/></clipPath><g id="b" style="clip-path:url(#a)"><use style="" xlink:href="#b"/></g><pattern id="c" height="32" patternTransform="translate(-27.6 -4)" patternUnits="userSpaceOnUse" style="" width="32"><use style="" xlink:href="#b"/></pattern><clipPath id="d" style=""><path d="m0 0h32v32h-32z" style=""/></clipPath><pattern id="e" height="32" patternTransform="translate(-27.6 -4)" patternUnits="userSpaceOnUse" style="" width="32"><g style="clip-path:url(#d)"><use style="" xlink:href="#f"/></g></pattern><clipPath id="f" style=""><path d="m0 0h32v32h-32z" style=""/></clipPath><pattern id="g" height="32" patternTransform="translate(-27.6 -4)" patternUnits="userSpaceOnUse" style="" width="32"><g style="clip-path:url(#f)"><use style="" xlink:href="#i"/></g></pattern><clipPath id="h" style=""><path d="m0 0h32v32h-32z" style=""/></clipPath><g id="i" style="clip-path:url(#h)"><use style="" xlink:href="#m"/></g><pattern id="j" height="32" patternTransform="translate(-27.6 -4)" patternUnits="userSpaceOnUse" style="" width="32"><use style="" xlink:href="#i"/></pattern><clipPath id="k" style=""><path d="m0 0h32v32h-32z" style=""/></clipPath><pattern id="l" height="32" patternTransform="translate(-27.6 -4)" patternUnits="userSpaceOnUse" style="" width="32"><g style="clip-path:url(#k)"><use style="" xlink:href="#p"/></g></pattern><clipPath id="m" style=""><path d="m0 0h32v32h-32z" style=""/></clipPath><pattern id="n" height="32" patternTransform="translate(-27.6 -4)" patternUnits="userSpaceOnUse" style="" width="32"><g style="clip-path:url(#m)"><use style="" xlink:href="#s"/></g></pattern><clipPath id="o" style=""><path d="m0 0h32v32h-32z" style=""/></clipPath><g id="p" style="clip-path:url(#o)"><use style="" xlink:href="#v"/></g><pattern id="q" height="32" patternTransform="translate(-27.6 -4)" patternUnits="userSpaceOnUse" style="" width="32"><use style="" xlink:href="#p"/></pattern><pattern id="r" height="32" patternTransform="translate(-27.6 -4)" patternUnits="userSpaceOnUse" style="" width="32"/><clipPath id="s" style=""><path d="m0 0h32v32h-32z" style=""/></clipPath><pattern id="t" height="32" patternTransform="translate(-27.6 -4)" patternUnits="userSpaceOnUse" style="" width="32"><g style="clip-path:url(#s)"><use style="" xlink:href="#B"/></g></pattern><clipPath id="u" style=""><path d="m0 0h32v32h-32z" style=""/></clipPath><g id="v" style="clip-path:url(#u)"><use style="" xlink:href="#F"/></g><pattern id="w" height="32" patternTransform="translate(-27.6 -4)" patternUnits="userSpaceOnUse" style="" width="32"><use style="" xlink:href="#v"/></pattern><clipPath id="x" style=""><path d="m0 0h32v32h-32z" style=""/></clipPath><pattern id="y" height="32" patternTransform="translate(-27.6 -4)" patternUnits="userSpaceOnUse" style="" width="32"><g style="clip-path:url(#x)"><use style="" xlink:href="#I"/></g></pattern><pattern id="z" height="32" patternTransform="translate(-27.6 -4)" patternUnits="userSpaceOnUse" style="" width="32"/><clipPath id="A" style=""><path d="m0 0h32v32h-32z" style=""/></clipPath><g id="B" style="clip-path:url(#A)"><use style="" xlink:href="#O"/></g><pattern id="C" height="32" patternTransform="translate(-27.6 -4)" patternUnits="userSpaceOnUse" style="" width="32"><use style="" xlink:href="#B"/></pattern><clipPath id="D" style=""><path d="m0 0h32v32h-32z" style=""/></clipPath><pattern id="E" height="32" patternTransform="translate(-27.6 -4)" patternUnits="userSpaceOnUse" style="" width="32"><g style="clip-path:url(#D)"><use style="" xlink:href="#S"/></g></pattern><clipPath id="F" style=""><path d="m0 0h32v32h-32z" style=""/></clipPath><pattern id="G" height="32" patternTransform="translate(-27.6 -4)" patternUnits="userSpaceOnUse" style="" width="32"><g style="clip-path:url(#F)"><use style="" xlink:href="#V"/></g></pattern><clipPath id="H" style=""><path d="m0 0h32v32h-32z" style=""/></clipPath><g id="I" style="clip-path:url(#H)"><use style="" xlink:href="#Z"/></g><pattern id="J" height="32" patternTransform="translate(-27.6 -4)" patternUnits="userSpaceOnUse" style="" width="32"><use style="" xlink:href="#I"/></pattern><clipPath id="K" style=""><path d="m0 0h32v32h-32z" style=""/></clipPath><pattern id="L" height="32" patternTransform="translate(-27.6 -4)" patternUnits="userSpaceOnUse" style="" width="32"><g style="clip-path:url(#K)"><use style="" xlink:href="#ac"/></g></pattern><pattern id="M" height="32" patternTransform="translate(-27.6 -4)" patternUnits="userSpaceOnUse" style="" width="32"/><clipPath id="N" style=""><path d="m0 0h32v32h-32z" style=""/></clipPath><g id="O" style="clip-path:url(#N)"><use style="" xlink:href="#ah"/></g><pattern id="P" height="32" patternTransform="translate(-27.6 -4)" patternUnits="userSpaceOnUse" style="" width="32"><use style="" xlink:href="#O"/></pattern><clipPath id="Q" style=""><path d="m0 0h32v32h-32z" style=""/></clipPath><pattern id="R" height="32" patternTransform="translate(-27.6 -4)" patternUnits="userSpaceOnUse" style="" width="32"><g style="clip-path:url(#Q)"><use style="" xlink:href="#al"/></g></pattern><clipPath id="S" style=""><path d="m0 0h32v32h-32z" style=""/></clipPath><pattern id="T" height="32" patternTransform="translate(-27.6 -4)" patternUnits="userSpaceOnUse" style="" width="32"><g style="clip-path:url(#S)"><g style="clip-path:url(#an)"><use style="" xlink:href="#E"/></g></g></pattern><clipPath id="U" style=""><path d="m0 0h32v32h-32z" style=""/></clipPath><g id="V" style="clip-path:url(#U)"><use style="" xlink:href="#aq"/></g><pattern id="W" height="32" patternTransform="translate(-27.6 -4)" patternUnits="userSpaceOnUse" style="" width="32"><use style="" xlink:href="#V"/></pattern><clipPath id="X" style=""><path d="m0 0h32v32h-32z" style=""/></clipPath><pattern id="Y" height="32" patternTransform="translate(-27.6 -4)" patternUnits="userSpaceOnUse" style="" width="32"><g style="clip-path:url(#X)"><use style="" xlink:href="#at"/></g></pattern><clipPath id="Z" style=""><path d="m0 0h32v32h-32z" style=""/></clipPath><pattern id="aa" height="32" patternTransform="translate(-27.6 -4)" patternUnits="userSpaceOnUse" style="" width="32"><g style="clip-path:url(#Z)"><use style="" xlink:href="#ax"/></g></pattern><clipPath id="ab" style=""><path d="m0 0h32v32h-32z" style=""/></clipPath><g id="ac" style="clip-path:url(#ab)"><use style="" xlink:href="#aA"/></g><pattern id="ad" height="32" patternTransform="translate(-27.6 -4)" patternUnits="userSpaceOnUse" style="" width="32"><use style="" xlink:href="#ac"/></pattern><clipPath id="ae" style=""><path d="m0 0h32v32h-32z" style=""/></clipPath><pattern id="af" height="32" patternTransform="translate(-27.6 -4)" patternUnits="userSpaceOnUse" style="" width="32"><g style="clip-path:url(#ae)"><use style="" xlink:href="#aE"/></g></pattern><clipPath id="ag" style=""><path d="m0 0h32v32h-32z" style=""/></clipPath><g id="ah" style="clip-path:url(#ag)"><use style="" xlink:href="#l"/></g><pattern id="ai" height="32" patternTransform="translate(-27.6 -4)" patternUnits="userSpaceOnUse" style="" width="32"><use style="" xlink:href="#ah"/></pattern><clipPath id="aj" style=""><path d="m0 0h32v32h-32z" style=""/></clipPath><pattern id="ak" height="32" patternTransform="translate(-27.6 -4)" patternUnits="userSpaceOnUse" style="" width="32"><g style="clip-path:url(#aj)"><use style="" xlink:href="#r"/></g></pattern><clipPath id="al" style=""><path d="m0 0h32v32h-32z" style=""/></clipPath><pattern id="am" height="32" patternTransform="translate(-27.6 -4)" patternUnits="userSpaceOnUse" style="" width="32"><g style="clip-path:url(#al)"><use style="" xlink:href="#y"/></g></pattern><clipPath id="an" style=""><path d="m0 0h32v32h-32z" style=""/></clipPath><clipPath id="ao" style=""><path d="m0 0h32v32h-32z" style=""/></clipPath><pattern id="ap" height="32" patternTransform="translate(-27.6 -4)" patternUnits="userSpaceOnUse" style="" width="32"><g style="clip-path:url(#ao)"><use style="" xlink:href="#L"/></g></pattern><clipPath id="aq" style=""><path d="m0 0h32v32h-32z" style=""/></clipPath><pattern id="ar" height="32" patternTransform="translate(-27.6 -4)" patternUnits="userSpaceOnUse" style="" width="32"><g style="clip-path:url(#aq)"><use style="" xlink:href="#R"/></g></pattern><clipPath id="as" style=""><path d="m0 0h32v32h-32z" style=""/></clipPath><g id="at" style="clip-path:url(#as)"><use style="" xlink:href="#Y"/></g><pattern id="au" height="32" patternTransform="translate(-27.6 -4)" patternUnits="userSpaceOnUse" style="" width="32"><use style="" xlink:href="#at"/></pattern><clipPath id="av" style=""><path d="m0 0h32v32h-32z" style=""/></clipPath><pattern id="aw" height="32" patternTransform="translate(-27.6 -4)" patternUnits="userSpaceOnUse" style="" width="32"><g style="clip-path:url(#av)"><use style="" xlink:href="#af"/></g></pattern><clipPath id="ax" style=""><path d="m0 0h32v32h-32z" style=""/></clipPath><pattern id="ay" height="32" patternTransform="translate(-27.6 -4)" patternUnits="userSpaceOnUse" style="" width="32"><g style="clip-path:url(#ax)"><use style="" xlink:href="#ak"/></g></pattern><clipPath id="az" style=""><path d="m0 0h32v32h-32z" style=""/></clipPath><g id="aA" style="clip-path:url(#az)"><use style="" xlink:href="#ap"/></g><pattern id="aB" height="32" patternTransform="translate(-27.6 -4)" patternUnits="userSpaceOnUse" style="" width="32"><use style="" xlink:href="#aA"/></pattern><clipPath id="aC" style=""><path d="m0 0h32v32h-32z" style=""/></clipPath><pattern id="aD" height="32" patternTransform="translate(-27.6 -4)" patternUnits="userSpaceOnUse" style="" width="32"><g style="clip-path:url(#aC)"><use style="" xlink:href="#aw"/></g></pattern><filter id="aE" height="100%" style="" width="100%" x="0%" y="0%"><feColorMatrix in="SourceGraphic" style="" values="0 0 0 0 1 0 0 0 0 1 0 0 0 0 1 0 0 0 1 0"/></filter><mask id="aF" style=""><g style="filter:url(#aE)"><path d="m0 0h497v279h-497z" style="fill-opacity:.5"/></g></mask><clipPath id="aG" style=""><path d="m0 0h497v279h-497z" style=""/></clipPath></defs><path d="m0 0h497v279h-497z" style="fill:#f2efe9"/><path d="m350.5 29.7 4.7-2 3.1.2.7-1.1h2.8l2.6 2.4-4.8-.9 1.4 2.4-1.6 1.6-2.2 1.7 1.1-2.9-.3-1.1-2.5-1.3-.4 3.8 2.3 4.3 4-2.2 4.5-2.4.1-3 4.4-.5-3 1.7 1 3.3 3-1.7 3.5-.5.1 1.3-1 3.5-4.1.8 2.1.9 2.7.6 3.3-.4 4.6.8.4 1.4-2.3.2.5 4.7 2-2.3 3.2-4.2 1.3 2.7 4.3.1-.5 3.4 1.4 4.6.4 2.4 2-3.9 4.5-3.7 1.3 2.1 1 4 1.8-.8 3.4-2.7 1.1-2.8 2.8 2.8-1 .2-.7 1.4 2.3 2-4.8 2.1 1.8 2.7 4.2-2.1 5.5-.3.7-3.4 2.8-3.6 1.2 4.7 3.5 1.7-1.7 2.6 2.9-1 .1-4.4 5.1-.6-3-2.5-4.9.6-.8-4 .6-.6 5 .5 4 2.4 3.3 1.6 2.7-2.1-4-.3-4.3-2-1-4.8 3.6.2 2.5 1 .4-5 5.5-.5-1.5-.7-3.5-1.1 3.5-2.7-4.4-2.2 3.2-.2v-.5l-2.2-3.2-1.1-1.7-4.6 2.3-.9.5-3.4-3.1-3-.3-2.4-4.2 1.9-5 5.3-2.4h5.5l-4.1-2.6-6 .6-4 3.6-2.3 4.7-1.9 4.9-2.2 2-3 .9 2.4-1.2-.4-2.5.7-5.3-4.3-.9-2.6 4.8h1.7l-.7 1.8 1.2 2.8-2-1.3-2.4-2.2 2.3-3.7 1.6-5.2-3.1-3-5.7 1.3.7-1 3-4.3-.3-1.4-1-4-1.6-4.3 1.8-2.2v-3.6l-2.3-3.3-3.4-.4-.2-3-1.5-1.9-3.7 2.5 2-3.9 3-2.5 1.2 3.4 4.8-2 1.5-1.6-3-1 1.2-3.2-.9 1.8-2.9 1.7 1.3-3.4-5.3-1.6-3.4.7.7 1.9-1.5-1.5-2.2-1-3-.4-4.8 1.3-5.7 1.5-4.5 2.9-2.2 5-1.5 5.6 1 5.7 1.7 5.4 1.7 4.7-4.1 4 .1 4.7 3.5 3.4 5.7.7 5.3.8 3.1 1.9 3.2 4.1 3.2 3.7-2.8 3-3.1.4 1.9-3-1-2.1-3.3 1.8.4 2.3-2.6-.3-2.9-2.7-2.4-1.5-3.2-.3-1.3 2.1-1.7.8 1.2-2.7-.5-3-.5-5.1-3.2 2.5-1.2 5-1.4 1.4.3-2.2-4.2-2-1.8 2.5.9 1-3.4.8-.2 1.2-3 .2-.4 3-1 1.8zm3-5.3.6.6-.4.3-.1-.5zm8 8.2 3-2.1-2.2 2.2h-.7zm.3-7.6.5.3-.5.1zm4.3 1v.1zm1.2-2.7.4-.4-.1.6zm4.8 7.3h1.3l-1.3.2zm2.3-53.2.9.8 4.5 1 4.3 2.5 1 3.9 1.4 3.4 3.5 4.4.8 4.4.3 4.4 4.2 3.6-1.3 2 4.5 2-2.6 4.8-3.9-3-5.6-2-4.7-1.9-1.9-.2 2.8-2.5-1-4.6v-5.1l-1.8-4 .2-5.4.3-5.2h-4.5l-1.4-3.2zm.4-3.5.8-.1-.5.2zm.4.8 1-.7-1 1zm.2 61v-.5l3.6.1-3.5.7zm1.5-2.7 2.4-1.1.2-1.8 2.5 1.7.3-3.4 1 1.6-.7 1.3-2.8 1.2-2.8.5zm.9-4.1.2.2h-.2zm9.2-49.5v-.1.2zm2.7 51.9.8-1.3 2.3-.7 2.1.7-3.5 1.5-.9-.4-.7.2zm.8 4.9.8-1.3-.5 2.2-.1-.3zm1.5 2.2h.1zm.1 5.7.9-1 4.5-.1-2.8 3.2-2.4-1.6zm.5-4.1v.5-.3zm.3-3.4 1.6-.2-1.5.3zm.6 2.4 3.5-.2-1.1.4-1.9.1zm.6-58 1.7-1-1.7 1.2zm0 52.2 1.9.3.7-2.9-.9 4h-1l-.4-1.3zm1.1 4 3.8-.6 1.2 2.2-2-1.4-2.9.1zm1-54.5v.1zm.1 40.5.3-1 .8-4.6 3 4.1-.8 1.4-3 .4zm.2.8 1 .3 2.3.1 2.4-.9 1.5.5-1.1 3.2-2.6-.7-3.4-2.3zm1.3-38.7.7-.1-.6.4zm.3 56.7 1.1.5-1-.3zm.6-8 .6-1.5h1.8l-1.6 2.6-.5-.5zm.4-46.4.9.1h-.8zm1 32 .1.4zm.2 15.9 1.4-.8-1 .9zm.9 7.6 1.2.9-.4.9-.7-1.6zm.9-.1.1.1zm.2-23.9.2.7zm.3 28.3 2-2.1-.8 2.6-1.2-.2zm.2-6.1.9-.1-.8.2zm1.7 5.6.7-.2-.7.3zm1.2-17.3.5-.3 1.2-.3-1.4.4zm.3 6 .2-1.6 2 2.2-1.9-.3zm.2-11.1.9.2h-.9zm1 8.4v.1zm.4 5.5 1.8-.6-1.8.7zm.2-13.6 1.5-.5-1.2.4zm2.8-5.8h.2zm.1 26.2 2.1-1.1 1 3.4-2.5-2.3-.3.2zm.4-7.4 1.5.5-1.5-.3zm1.7 2.6v.2zm.2 9.2 1-1.1 2.1 1.3-3.1-.1zm1-7.1 1-.6 1-.4zm1 4.4 1.1-.1-.9.2zm.2-23.4.3.9-.3-.7zm.1 21.6h.6l-.5.1zm1-4.6.7.5zm1.7-3 1.1-1 4.9 1.1-.5.1-4.3-.7-1.2.7zm0 .7.4.5-.3-.2zm0 5.5.2.2zm.5-18.5.1-.6 1.4-5v4.3l-1.5 1.4zm1.2 15.6 1.3-.2.9 2.6-2.1-2.3zm1.3-1.4.7-.7-.7 1zm.5 1.2.1.4v-.2zm.5-18.4.3 1-.1-.9zm.8 4.9.3.3zm1.2 9.6 1.6-2.1-1 2 3 1-3.4-.8zm.2-7.2.1.1zm.4-3.9 1 1.9-1.1-1.7zm2.5 15.5h2.3l-2 .3zm.8-8.5 2-1.6 2.9-1.6 3.6 2.6-4.4-1.5-2.5 2-1.5.3zm0-6.6.5.2-.3.1zm.6-1h.8-.7zm0 13.6.5.4-.4-.2zm.5-4 .3.6-.3-.4zm.6-.8 1.6 1.4-1.5-1.3zm.8-5.8v.2zm1.5 5h1.7l-1.6.4zm1.2 3 1.2-1.4 1.7.5-2.8.9zm.3-8.5 1 .5-.9-.4zm.7-2.2.3-1 .2.3h.2l.1-.3v.4l.4-.2v-.5h-.5v-.4l-.2-.2-.1-.1-.2-.1v-.8h.3l.1-.2h1l.3-.2.5-.1.2-.1h.3v-.1h.2v.9l-.2.4h-.2l-.2.2v.1l-.3.4v1h-.3l-.2.3h-.6l-.2.1v1.2l-.4-.4-.3-.2.2-.2h-.3zm.9 1.4v-.1l.8.1v.4l.3.6v.3h-.1l-.2-.1v-.2l-.3-.2-.1-.3v-.1l-.1-.3zm.4 2.3.6-.4v-.3l.1-.1v.1l.6.2.1.1.2.1v.1h1.5v.7l-.3.2v.3l-.1.3v.1l-.1.2v.1h-.4v-.4l-.4-.3h-.1l-.1-.2v-.1l-.3-.3h-.9l-.1.5h-.1l-.1-.2v-.2zm0 0" style="fill:none;stroke:#9cf"/><path d="m350.5 29.7 4.7-2 3.1.2.7-1.1h2.8l2.6 2.4-4.8-.9 1.4 2.4-1.6 1.6-2.2 1.7 1.1-2.9-.3-1.1-2.5-1.3-.4 3.8 2.3 4.3 4-2.2 4.5-2.4.1-3 4.4-.5-3 1.7 1 3.3 3-1.7 3.5-.5.1 1.3-1 3.5-4.1.8 2.1.9 2.7.6 3.3-.4 4.6.8.4 1.4-2.3.2.5 4.7 2-2.3 3.2-4.2 1.3 2.7 4.3.1-.5 3.4 1.4 4.6.4 2.4 2-3.9 4.5-3.7 1.3 2.1 1 4 1.8-.8 3.4-2.7 1.1-2.8 2.8 2.8-1 .2-.7 1.4 2.3 2-4.8 2.1 1.8 2.7 4.2-2.1 5.5-.3.7-3.4 2.8-3.6 1.2 4.7 3.5 1.7-1.7 2.6 2.9-1 .1-4.4 5.1-.6-3-2.5-4.9.6-.8-4 .6-.6 5 .5 4 2.4 3.3 1.6 2.7-2.1-4-.3-4.3-2-1-4.8 3.6.2 2.5 1 .4-5 5.5-.5-1.5-.7-3.5-1.1 3.5-2.7-4.4-2.2 3.2-.2v-.5l-2.2-3.2-1.1-1.7-4.6 2.3-.9.5-3.4-3.1-3-.3-2.4-4.2 1.9-5 5.3-2.4h5.5l-4.1-2.6-6 .6-4 3.6-2.3 4.7-1.9 4.9-2.2 2-3 .9 2.4-1.2-.4-2.5.7-5.3-4.3-.9-2.6 4.8h1.7l-.7 1.8 1.2 2.8-2-1.3-2.4-2.2 2.3-3.7 1.6-5.2-3.1-3-5.7 1.3.7-1 3-4.3-.3-1.4-1-4-1.6-4.3 1.8-2.2v-3.6l-2.3-3.3-3.4-.4-.2-3-1.5-1.9-3.7 2.5 2-3.9 3-2.5 1.2 3.4 4.8-2 1.5-1.6-3-1 1.2-3.2-.9 1.8-2.9 1.7 1.3-3.4-5.3-1.6-3.4.7.7 1.9-1.5-1.5-2.2-1-3-.4-4.8 1.3-5.7 1.5-4.5 2.9-2.2 5-1.5 5.6 1 5.7 1.7 5.4 1.7 4.7-4.1 4 .1 4.7 3.5 3.4 5.7.7 5.3.8 3.1 1.9 3.2 4.1 3.2 3.7-2.8 3-3.1.4 1.9-3-1-2.1-3.3 1.8.4 2.3-2.6-.3-2.9-2.7-2.4-1.5-3.2-.3-1.3 2.1-1.7.8 1.2-2.7-.5-3-.5-5.1-3.2 2.5-1.2 5-1.4 1.4.3-2.2-4.2-2-1.8 2.5.9 1-3.4.8-.2 1.2-3 .2-.4 3-1 1.8zm3-5.3.6.6-.4.3-.1-.5zm8 8.2 3-2.1-2.2 2.2h-.7zm.3-7.6.5.3-.5.1zm4.3 1v.1zm1.2-2.7.4-.4-.1.6zm4.8 7.3h1.3l-1.3.2zm2.3-53.2.9.8 4.5 1 4.3 2.5 1 3.9 1.4 3.4 3.5 4.4.8 4.4.3 4.4 4.2 3.6-1.3 2 4.5 2-2.6 4.8-3.9-3-5.6-2-4.7-1.9-1.9-.2 2.8-2.5-1-4.6v-5.1l-1.8-4 .2-5.4.3-5.2h-4.5l-1.4-3.2zm.4-3.5.8-.1-.5.2zm.4.8 1-.7-1 1zm.2 61v-.5l3.6.1-3.5.7zm1.5-2.7 2.4-1.1.2-1.8 2.5 1.7.3-3.4 1 1.6-.7 1.3-2.8 1.2-2.8.5zm.9-4.1.2.2h-.2zm9.2-49.5v-.1.2zm2.7 51.9.8-1.3 2.3-.7 2.1.7-3.5 1.5-.9-.4-.7.2zm.8 4.9.8-1.3-.5 2.2-.1-.3zm1.5 2.2h.1zm.1 5.7.9-1 4.5-.1-2.8 3.2-2.4-1.6zm.5-4.1v.5-.3zm.3-3.4 1.6-.2-1.5.3zm.6 2.4 3.5-.2-1.1.4-1.9.1zm.6-58 1.7-1-1.7 1.2zm0 52.2 1.9.3.7-2.9-.9 4h-1l-.4-1.3zm1.1 4 3.8-.6 1.2 2.2-2-1.4-2.9.1zm1-54.5v.1zm.1 40.5.3-1 .8-4.6 3 4.1-.8 1.4-3 .4zm.2.8 1 .3 2.3.1 2.4-.9 1.5.5-1.1 3.2-2.6-.7-3.4-2.3zm1.3-38.7.7-.1-.6.4zm.3 56.7 1.1.5-1-.3zm.6-8 .6-1.5h1.8l-1.6 2.6-.5-.5zm.4-46.4.9.1h-.8zm1 32 .1.4zm.2 15.9 1.4-.8-1 .9zm.9 7.6 1.2.9-.4.9-.7-1.6zm.9-.1.1.1zm.2-23.9.2.7zm.3 28.3 2-2.1-.8 2.6-1.2-.2zm.2-6.1.9-.1-.8.2zm1.7 5.6.7-.2-.7.3zm1.2-17.3.5-.3 1.2-.3-1.4.4zm.3 6 .2-1.6 2 2.2-1.9-.3zm.2-11.1.9.2h-.9zm1 8.4v.1zm.4 5.5 1.8-.6-1.8.7zm.2-13.6 1.5-.5-1.2.4zm2.8-5.8h.2zm.1 26.2 2.1-1.1 1 3.4-2.5-2.3-.3.2zm.4-7.4 1.5.5-1.5-.3zm1.7 2.6v.2zm.2 9.2 1-1.1 2.1 1.3-3.1-.1zm1-7.1 1-.6 1-.4zm1 4.4 1.1-.1-.9.2zm.2-23.4.3.9-.3-.7zm.1 21.6h.6l-.5.1zm1-4.6.7.5zm1.7-3 1.1-1 4.9 1.1-.5.1-4.3-.7-1.2.7zm0 .7.4.5-.3-.2zm0 5.5.2.2zm.5-18.5.1-.6 1.4-5v4.3l-1.5 1.4zm1.2 15.6 1.3-.2.9 2.6-2.1-2.3zm1.3-1.4.7-.7-.7 1zm.5 1.2.1.4v-.2zm.5-18.4.3 1-.1-.9zm.8 4.9.3.3zm1.2 9.6 1.6-2.1-1 2 3 1-3.4-.8zm.2-7.2.1.1zm.4-3.9 1 1.9-1.1-1.7zm2.5 15.5h2.3l-2 .3zm.8-8.5 2-1.6 2.9-1.6 3.6 2.6-4.4-1.5-2.5 2-1.5.3zm0-6.6.5.2-.3.1zm.6-1h.8-.7zm0 13.6.5.4-.4-.2zm.5-4 .3.6-.3-.4zm.6-.8 1.6 1.4-1.5-1.3zm.8-5.8v.2zm1.5 5h1.7l-1.6.4zm1.2 3 1.2-1.4 1.7.5-2.8.9zm.3-8.5 1 .5-.9-.4zm.7-2.2.3-1 .2.3h.2l.1-.3v.4l.4-.2v-.5h-.5v-.4l-.2-.2-.1-.1-.2-.1v-.8h.3l.1-.2h1l.3-.2.5-.1.2-.1h.3v-.1h.2v.9l-.2.4h-.2l-.2.2v.1l-.3.4v1h-.3l-.2.3h-.6l-.2.1v1.2l-.4-.4-.3-.2.2-.2h-.3zm.9 1.4v-.1l.8.1v.4l.3.6v.3h-.1l-.2-.1v-.2l-.3-.2-.1-.3v-.1l-.1-.3zm.4 2.3.6-.4v-.3l.1-.1v.1l.6.2.1.1.2.1v.1h1.5v.7l-.3.2v.3l-.1.3v.1l-.1.2v.1h-.4v-.4l-.4-.3h-.1l-.1-.2v-.1l-.3-.3h-.9l-.1.5h-.1l-.1-.2v-.2zm0 0" style="fill-rule:evenodd;fill:#ddecec"/><path d="m505.6-26.5-4.5 1.7-1.4 5.4-4-.5v-3.7l-1.6-2.4-1.1 1-3-.4-4.2-3-.1 4.4-1.7 3.5-.8-3-2.4 1.7-1-.2 3.4 2.6 1.2.8 2-.1-2.7 2.6-2.7 1.3-3-1.5 2.7-1.7 1-1-3.3.9-2.4-3.1-2.4 3.3-3.4-1.1.4-3.5.3-1.7 2.3 1.2 1.6-4.4-.6-3.4-3.2 3.4-.9-5-3.4-2-.7 4.4-.4-4.6-3 1.3-.2.4-2.1-.3-2.3-1.6v2.1l2.2.4-1.8 1.6-3.4-1.2 2.4 3.3-1 1.9-4.3 1.4 1.7 2.3 4.2.7 3.1 3.6-.4.3 2.3 1 3.5 1.3-.7-2.1 3.2-.6 2.7 2.3-3.3 2.3-4.3 1-2.4-.1-3.1-4.7-4-4.5-3.2 2.2-1 5.2 2.7 2.3 1.9.2-1.3 4.2 2.1-.4.7-1.7-.1 4 5.2 1.3 2.8-2.1.6-.6 2.2-1.1 1.2 5 1.4 1-3.6 2-.8 1.5.7-.5 2.1 2.1 1.2 1.1 2.1.8 3.9-.9-2.1-1.6 3.1.5 2.4 5 2.2 3.4 3.2-3.8 3.4 2.6.8-2.6.9 3.6-5.4.6h17.1l1.8-.8h6.8l5.5.8 1.4-8.9v-8.3l-1.9.6v-4.2l2-7-5-3.2 2.8.9 2.1-4.6-4.5-2.7-.5-.8-2.8-1-3-4.2-2.7-5.2-1-5.9-.7-5.2-3.5.1.3 6.3 1.8 5.9 2.4 5.3 3.3 4.5zm-48.4 17.7v-.3.5zm.2-1.3v-.5l2.6 3.5zm.3-14.1.8 1.3-.5-1.3zm3 15.7 1.9.8-1.2-.7h-.7zm.9-16.7.3.4-.3-.3zm1.2 5.7v.1zm.2-9.2 1.4-1 2.4 3.6-3.8-2zm.3 7.4 1.7-.3.7.8-2.3-.4zm.5 2.3.6.9-.6-.7zm2.6-8.5h.3zm0 1.7.4.2 1.2.5-1.6-.6zm1.2 19.4 2.3 2.2-2.2-2zm0 5.7 2.4-.3.4.4h-2.8zm.4-19 .3-.3-.3.5zm-.1-9.9.7-.4.9-1.3.5 4-.7-1.4-1.2-.9zm.3 22.2 1.8.1.2-3.7 1 3.6-1.2 1.2-2-1.1zm.8-13.8.2.2zm1.4-4.5.3-.6-.2.7zm1.4 23.3h.2zm.5-8.3.1-.1 1 .7-1-.4zm.2 1.7 1.2.2 1.3-1.9 2.5-1 .5 2-2 2.1-.6-.3-3-1zm.3 9.5h.6zm.6-24 .2.3zm.6 10 2 .4h-1.7l-.4-.5zm3.1 14.2v.1zm1.1 1.5 1-.5zm.8 1.2 3.2-1.6 1 1.7-.4 1.3 1.5.2-3.5 1.5-1.9-3zm2.7-15.6v-.1l3.1 3.7-1.4-2-1.5-1.3zm1.1 5.5.6 2-.4-2zm1 3.9.7.5-.8-.5zm1.2 5.1 1.3 1.3-1.3-1.2zm1.1-18.5 1.2-1.2-1.3 1.3zm.5 3.2.4-.4 4.5 2-2.3-1.1-2.4-.5zm.4 2.8 1.5.4-1.6-.4zm.2-14.8 2 1.4 1.8 3.9-.5 2v.4l-2.3-3.9-1-3.5zm.6 28.8h.3-.2zm.4-4.4 2.8-1.9-1.7 3.3-1-1.3zm.8-15.9h1.4l-.5 1.1-.9-1zm.3 21.1 2-1.5 2.7 1.2.9 4.7-3.8-1.5-1.8-2.7zm0-18.6h.6l-.5.1zm1.9-6.2v.2zm.4 4.7.1.2zm.5 4 .1-.1 2-1.4v.5l-1.7 1.3zm.1 7.4 2-1.9.3 1.2-2.2.9zm0-18.7h.6l1.6 3.1-2-3.1zm1.1 24 1.5-1.4.2 1.4-1.7.2zm1.5-17.2 2.7-2-2.8 2.1zm.2 6.5.2-.1 4.9-1 2.5-1.4-4 2.2-3.6.5zm1.5 12.3 1-.2 3.1-.2-2.2 5v-1.9l-1.8-2.2v-.6zm.3-15.3 1-1zm.4 9.4 1.6-.4.6 1.8-2.2-1.3zm1-8.6.2-.2-.1.2zm0 13.2 1.1-1 .3.2-1.2 1zm1.1 6.1 1.9-2 1-2.1v2.4l-3.1 1.7zm.3-13.6h1-1.1zm.1-1.1v.3zm.5 0 .2-.4-.2.3zm.3-6.1.7.9-.6-.7zm.2 12.2.6.2zm1 1.7 2.5-3.8.7-.2zm.8-20v-.7l3.5-4.2 2.4 4 4.8 3.1-2 2.2-4.4.9-.6 3.5-1.6.9 1-3.4-1.8-3zm.5 11 .8-.4-.8.9v-.3zm1 12.9.5-.9 3.8-.2 2.3-1.2 1.3.9-2.5 2.1-2.2-1.3-2.8 2.7-.4-2zm1.2-8.5 2.1-2 3.7-2.1-.1 1.7-3.5 1.3-2.2 1.2zm.4-22.6.7.2.4.6-1-.8zm1.4 26 1.8-2.5 1.2.4.2 1-3.2 1zm.3 6.9.3-.6-.3.7zm1-5.3.2.2zm.7-10.6.8-2.3 4.4-2.8-.7 2.9-2.9 2.7-1.6-.3zm.6 16.8v.2zm.8-.3.8-.8-.5 1.1-.2-.2zm1.9-9.5 2.9 2.2-2.7-1.6-.2-.5zm.1-1 2.1-.9-.7 1.5-1.2-.4h-.1zm1.4 4.3v-.3l.2-.2.2-.1h.5l.2.4h.3v.1l-.3.3h-.3l-.2.3-.1.2h-.1v-.5h-.2v-.2zm.4 1.4v-.2h.5l.1.1h.2v.2h.6v.1h.1v.6h-.7v-.2h-.6v-.4h-.1v-.2zm1.1 6.8v-.2h1v.2h-.2l-.3.2h-.5zm0 0" style="fill:none;stroke:#9cf"/><path d="m505.6-26.5-4.5 1.7-1.4 5.4-4-.5v-3.7l-1.6-2.4-1.1 1-3-.4-4.2-3-.1 4.4-1.7 3.5-.8-3-2.4 1.7-1-.2 3.4 2.6 1.2.8 2-.1-2.7 2.6-2.7 1.3-3-1.5 2.7-1.7 1-1-3.3.9-2.4-3.1-2.4 3.3-3.4-1.1.4-3.5.3-1.7 2.3 1.2 1.6-4.4-.6-3.4-3.2 3.4-.9-5-3.4-2-.7 4.4-.4-4.6-3 1.3-.2.4-2.1-.3-2.3-1.6v2.1l2.2.4-1.8 1.6-3.4-1.2 2.4 3.3-1 1.9-4.3 1.4 1.7 2.3 4.2.7 3.1 3.6-.4.3 2.3 1 3.5 1.3-.7-2.1 3.2-.6 2.7 2.3-3.3 2.3-4.3 1-2.4-.1-3.1-4.7-4-4.5-3.2 2.2-1 5.2 2.7 2.3 1.9.2-1.3 4.2 2.1-.4.7-1.7-.1 4 5.2 1.3 2.8-2.1.6-.6 2.2-1.1 1.2 5 1.4 1-3.6 2-.8 1.5.7-.5 2.1 2.1 1.2 1.1 2.1.8 3.9-.9-2.1-1.6 3.1.5 2.4 5 2.2 3.4 3.2-3.8 3.4 2.6.8-2.6.9 3.6-5.4.6h17.1l1.8-.8h6.8l5.5.8 1.4-8.9v-8.3l-1.9.6v-4.2l2-7-5-3.2 2.8.9 2.1-4.6-4.5-2.7-.5-.8-2.8-1-3-4.2-2.7-5.2-1-5.9-.7-5.2-3.5.1.3 6.3 1.8 5.9 2.4 5.3 3.3 4.5zm-48.4 17.7v-.3.5zm.2-1.3v-.5l2.6 3.5zm.3-14.1.8 1.3-.5-1.3zm3 15.7 1.9.8-1.2-.7h-.7zm.9-16.7.3.4-.3-.3zm1.2 5.7v.1zm.2-9.2 1.4-1 2.4 3.6-3.8-2zm.3 7.4 1.7-.3.7.8-2.3-.4zm.5 2.3.6.9-.6-.7zm2.6-8.5h.3zm0 1.7.4.2 1.2.5-1.6-.6zm1.2 19.4 2.3 2.2-2.2-2zm0 5.7 2.4-.3.4.4h-2.8zm.4-19 .3-.3-.3.5zm-.1-9.9.7-.4.9-1.3.5 4-.7-1.4-1.2-.9zm.3 22.2 1.8.1.2-3.7 1 3.6-1.2 1.2-2-1.1zm.8-13.8.2.2zm1.4-4.5.3-.6-.2.7zm1.4 23.3h.2zm.5-8.3.1-.1 1 .7-1-.4zm.2 1.7 1.2.2 1.3-1.9 2.5-1 .5 2-2 2.1-.6-.3-3-1zm.3 9.5h.6zm.6-24 .2.3zm.6 10 2 .4h-1.7l-.4-.5zm3.1 14.2v.1zm1.1 1.5 1-.5zm.8 1.2 3.2-1.6 1 1.7-.4 1.3 1.5.2-3.5 1.5-1.9-3zm2.7-15.6v-.1l3.1 3.7-1.4-2-1.5-1.3zm1.1 5.5.6 2-.4-2zm1 3.9.7.5-.8-.5zm1.2 5.1 1.3 1.3-1.3-1.2zm1.1-18.5 1.2-1.2-1.3 1.3zm.5 3.2.4-.4 4.5 2-2.3-1.1-2.4-.5zm.4 2.8 1.5.4-1.6-.4zm.2-14.8 2 1.4 1.8 3.9-.5 2v.4l-2.3-3.9-1-3.5zm.6 28.8h.3-.2zm.4-4.4 2.8-1.9-1.7 3.3-1-1.3zm.8-15.9h1.4l-.5 1.1-.9-1zm.3 21.1 2-1.5 2.7 1.2.9 4.7-3.8-1.5-1.8-2.7zm0-18.6h.6l-.5.1zm1.9-6.2v.2zm.4 4.7.1.2zm.5 4 .1-.1 2-1.4v.5l-1.7 1.3zm.1 7.4 2-1.9.3 1.2-2.2.9zm0-18.7h.6l1.6 3.1-2-3.1zm1.1 24 1.5-1.4.2 1.4-1.7.2zm1.5-17.2 2.7-2-2.8 2.1zm.2 6.5.2-.1 4.9-1 2.5-1.4-4 2.2-3.6.5zm1.5 12.3 1-.2 3.1-.2-2.2 5v-1.9l-1.8-2.2v-.6zm.3-15.3 1-1zm.4 9.4 1.6-.4.6 1.8-2.2-1.3zm1-8.6.2-.2-.1.2zm0 13.2 1.1-1 .3.2-1.2 1zm1.1 6.1 1.9-2 1-2.1v2.4l-3.1 1.7zm.3-13.6h1-1.1zm.1-1.1v.3zm.5 0 .2-.4-.2.3zm.3-6.1.7.9-.6-.7zm.2 12.2.6.2zm1 1.7 2.5-3.8.7-.2zm.8-20v-.7l3.5-4.2 2.4 4 4.8 3.1-2 2.2-4.4.9-.6 3.5-1.6.9 1-3.4-1.8-3zm.5 11 .8-.4-.8.9v-.3zm1 12.9.5-.9 3.8-.2 2.3-1.2 1.3.9-2.5 2.1-2.2-1.3-2.8 2.7-.4-2zm1.2-8.5 2.1-2 3.7-2.1-.1 1.7-3.5 1.3-2.2 1.2zm.4-22.6.7.2.4.6-1-.8zm1.4 26 1.8-2.5 1.2.4.2 1-3.2 1zm.3 6.9.3-.6-.3.7zm1-5.3.2.2zm.7-10.6.8-2.3 4.4-2.8-.7 2.9-2.9 2.7-1.6-.3zm.6 16.8v.2zm.8-.3.8-.8-.5 1.1-.2-.2zm1.9-9.5 2.9 2.2-2.7-1.6-.2-.5zm.1-1 2.1-.9-.7 1.5-1.2-.4h-.1zm1.4 4.3v-.3l.2-.2.2-.1h.5l.2.4h.3v.1l-.3.3h-.3l-.2.3-.1.2h-.1v-.5h-.2v-.2zm.4 1.4v-.2h.5l.1.1h.2v.2h.6v.1h.1v.6h-.7v-.2h-.6v-.4h-.1v-.2zm1.1 6.8v-.2h1v.2h-.2l-.3.2h-.5zm0 0" style="fill-rule:evenodd;fill:#ddecec"/><path d="m467 90.6 3.5-1 2.8-.2 1.8-1.9 3.9-.9-2.8 3.5-3 3.4 2 4.8 7.6 1.7 2.6-2 1 .3 2.8 1.3 3.2-1.2-1.9-1.2 4-.8-.3 2.2 3.8-1-4 2.2 10.6.2 3.3-.2 1.6-2.7 7 2.9-2.5-4-.3-1.3 2.6-3.3-1.6-1.4.9-2 .8-2.2-.6-4.3 4.5-2.3-.5-.7-5 .5.3-2.3 3.1-3.7-1.6 1-.8-4.6-2 1-2 2.1h-4.4v-2l1.8 1 2.8-1.8-.1-1.3-3.3-.2 3.6-2.5-.9-4.7-2.5 1.8v2.5l-4.4-1.7 3.5-4.6-1.3-.2-4.2 4-2.3 4-1.6 3.1-.2-2.1-4.3 2.9-5.7.5 1.7 1-1.6 1-1.8 3.1 2 .7 3.7-1.3-3.5 3.1-4.6-1.5-2.8-1.3-1.6 5.4-5.3-.3-2.5.9-3.7 1 2.3 1.4-3.5 2-.2 2.3zm2.4-3.8 2.6-.6-2.5.8zm4.4-3.6v-.4l.6.2-.6.3zm.3 9.8 3.1.6 3.5 4.4-3.1-1.2-3.3-3.6zm1.1-8.5 4.1-2.5-.9 3.7-2.8-1.2h-.3zm1.6-1 .2-.1zm1 9.2v-.2l4.5 1.2.4 4-3-3.7-1.8-1.1zm5-7 .8-3.7 2 1 .8 2-1.2 1.7 2-.4 2.5-1.3 1.8 1 1.5 2.7-4.8-.2-4.6.1-.6-2.8zm.2 8.9.5-1.1.4 2.5-.9-1.3zm1.3-14.7 3.8.5v2.6l-3.6-2.9v-.1zm1 13.5 5.5.3 5 2-4.5-.3h-3.8l-2.2-1.9zm1.4 2.4 1.6 1.2-1.4-.6-.1-.4zm1.6-15.2.3.3-.4-.2zm1.4-1.2 3.9.8-3.7-.6zm.3-7.9h1.4zm2 0 .7 2.8-.7-2.5zm.1 5.8h1.7l-1.5-.1zm2-4.5v-.9l.5 2.4-.5-1.4zm0 12.6.9 3.3v-3l-.7-.3zm1.4-13.6.3.7-.4-.5zm.9 12.4v.1zm.6.8 2.1 1.5h-1.8l-.4-1.3zm1.4 6.7 1.3-.3 1.8-.7 4.5.3-3.7 1.3-3.3-.3-.5-.2zm.1-19.7h.1zm.2 4 2.2-.5-2.2.4zm.8 8.6.3.4zm.1 1.3v.4-.3zm.5-14.9 1.9 2.2-1.2-1.6-.8-.4zm1.4 7.3h.1zm.5-1.3.3-.3-.2.3zm0 6.6 1 1.6-1-1.5zm0 11.2v-.2l3-1.3 4.5-2.3.7-1 2.8 1-4 3-4.2.7-2.4.4-.2-.2zm1-28 1.3-2.6 2 2.5-2.9 1.9-.4-1.6zm1.1 22 1.7.8-1.6-.6zm.7-16.3 1.4 2.5zm.6-3.8 1.4-1.2 2.8-1.5-3.6 3.2zm.6 21.5h.5zm.7-14.6.6-.4-.7.4zm1.5 6.7.5.1h-.5zm.6-15h.2zm.7-4 1.2-1.3-.4 2-.8-.6zm.5 17.9.1.3v-.2zm2-1h.1zm.4-1.2h.8zm.5 3.6 1.1-.4-1 .4zm0-8.8.9-.5-.8.6zm1.4-1.8.5-.6-.2 2.3-.4-1.3zm.1 13.6" style="fill:none;stroke:#9cf"/><path d="m467 90.6 3.5-1 2.8-.2 1.8-1.9 3.9-.9-2.8 3.5-3 3.4 2 4.8 7.6 1.7 2.6-2 1 .3 2.8 1.3 3.2-1.2-1.9-1.2 4-.8-.3 2.2 3.8-1-4 2.2 10.6.2 3.3-.2 1.6-2.7 7 2.9-2.5-4-.3-1.3 2.6-3.3-1.6-1.4.9-2 .8-2.2-.6-4.3 4.5-2.3-.5-.7-5 .5.3-2.3 3.1-3.7-1.6 1-.8-4.6-2 1-2 2.1h-4.4v-2l1.8 1 2.8-1.8-.1-1.3-3.3-.2 3.6-2.5-.9-4.7-2.5 1.8v2.5l-4.4-1.7 3.5-4.6-1.3-.2-4.2 4-2.3 4-1.6 3.1-.2-2.1-4.3 2.9-5.7.5 1.7 1-1.6 1-1.8 3.1 2 .7 3.7-1.3-3.5 3.1-4.6-1.5-2.8-1.3-1.6 5.4-5.3-.3-2.5.9-3.7 1 2.3 1.4-3.5 2-.2 2.3zm2.4-3.8 2.6-.6-2.5.8zm4.4-3.6v-.4l.6.2-.6.3zm.3 9.8 3.1.6 3.5 4.4-3.1-1.2-3.3-3.6zm1.1-8.5 4.1-2.5-.9 3.7-2.8-1.2h-.3zm1.6-1 .2-.1zm1 9.2v-.2l4.5 1.2.4 4-3-3.7-1.8-1.1zm5-7 .8-3.7 2 1 .8 2-1.2 1.7 2-.4 2.5-1.3 1.8 1 1.5 2.7-4.8-.2-4.6.1-.6-2.8zm.2 8.9.5-1.1.4 2.5-.9-1.3zm1.3-14.7 3.8.5v2.6l-3.6-2.9v-.1zm1 13.5 5.5.3 5 2-4.5-.3h-3.8l-2.2-1.9zm1.4 2.4 1.6 1.2-1.4-.6-.1-.4zm1.6-15.2.3.3-.4-.2zm1.4-1.2 3.9.8-3.7-.6zm.3-7.9h1.4zm2 0 .7 2.8-.7-2.5zm.1 5.8h1.7l-1.5-.1zm2-4.5v-.9l.5 2.4-.5-1.4zm0 12.6.9 3.3v-3l-.7-.3zm1.4-13.6.3.7-.4-.5zm.9 12.4v.1zm.6.8 2.1 1.5h-1.8l-.4-1.3zm1.4 6.7 1.3-.3 1.8-.7 4.5.3-3.7 1.3-3.3-.3-.5-.2zm.1-19.7h.1zm.2 4 2.2-.5-2.2.4zm.8 8.6.3.4zm.1 1.3v.4-.3zm.5-14.9 1.9 2.2-1.2-1.6-.8-.4zm1.4 7.3h.1zm.5-1.3.3-.3-.2.3zm0 6.6 1 1.6-1-1.5zm0 11.2v-.2l3-1.3 4.5-2.3.7-1 2.8 1-4 3-4.2.7-2.4.4-.2-.2zm1-28 1.3-2.6 2 2.5-2.9 1.9-.4-1.6zm1.1 22 1.7.8-1.6-.6zm.7-16.3 1.4 2.5zm.6-3.8 1.4-1.2 2.8-1.5-3.6 3.2zm.6 21.5h.5zm.7-14.6.6-.4-.7.4zm1.5 6.7.5.1h-.5zm.6-15h.2zm.7-4 1.2-1.3-.4 2-.8-.6zm.5 17.9.1.3v-.2zm2-1h.1zm.4-1.2h.8zm.5 3.6 1.1-.4-1 .4zm0-8.8.9-.5-.8.6zm1.4-1.8.5-.6-.2 2.3-.4-1.3zm.1 13.6" style="fill-rule:evenodd;fill:#ddecec"/><path d="m314.3 84.2 1.5 5.2 3.2 1 3.1 1 1.2.6-2.5 3.5 3 3.3 3.6-1 3.2 1.5 1-1.8 3 .6.2-2.1 1.5.1 4 1.9 4.4-1 4.6.5 2.1-4-2.8 1.8-.9-3.6-1.3-4.1.1-3.6 3 .2-1.3-4.9-4.1 3.8-1.1-1.3 2.4-2.4-1.1-2.3-2.8 1.2-3.8 1.8 1-2.1-.4-4.8-.7-1 .6-1.8-.4-2.9-.3-2.1-3.8-1.2-.9 3.3-4.7-.4-2.7 1.2.6 3-3-3-1.6 2-1.5 4.4 1.3 2.7-1.7-1.7-2 2 1.6 5.2-2.6-.4-2.2 1.4zm5.2 1.2 1-2.2 1.4 1.7-2.4.6zm4.4-7.4.9-.6-.8.7zm.1-3.6.2 1v-.7zm.4 11.4 2.6-1.8-1.1 2.3-1.6-.5zm1.6-13.8v.2zm3.3 5.8.2-.5-.2.7zm.7-2.3.6-.8.4-5.3v5.6l-1 .6zm3.1 2 1.2.3zm7.3 4.1 1-.5-.9.6zm2 4.5h1-1.1zm.4-6.8" style="fill:none;stroke:#9cf"/><path d="m314.3 84.2 1.5 5.2 3.2 1 3.1 1 1.2.6-2.5 3.5 3 3.3 3.6-1 3.2 1.5 1-1.8 3 .6.2-2.1 1.5.1 4 1.9 4.4-1 4.6.5 2.1-4-2.8 1.8-.9-3.6-1.3-4.1.1-3.6 3 .2-1.3-4.9-4.1 3.8-1.1-1.3 2.4-2.4-1.1-2.3-2.8 1.2-3.8 1.8 1-2.1-.4-4.8-.7-1 .6-1.8-.4-2.9-.3-2.1-3.8-1.2-.9 3.3-4.7-.4-2.7 1.2.6 3-3-3-1.6 2-1.5 4.4 1.3 2.7-1.7-1.7-2 2 1.6 5.2-2.6-.4-2.2 1.4zm5.2 1.2 1-2.2 1.4 1.7-2.4.6zm4.4-7.4.9-.6-.8.7zm.1-3.6.2 1v-.7zm.4 11.4 2.6-1.8-1.1 2.3-1.6-.5zm1.6-13.8v.2zm3.3 5.8.2-.5-.2.7zm.7-2.3.6-.8.4-5.3v5.6l-1 .6zm3.1 2 1.2.3zm7.3 4.1 1-.5-.9.6zm2 4.5h1-1.1zm.4-6.8" style="fill-rule:evenodd;fill:#ddecec"/><path d="m469.7 13 3 2.5 5-1.5 5.8.3 5.5.1 1.8 3.6 5.8-.5 1 3 1.2 1.5 2.8-1 2.4 1.6 1.5-3 1.5 1.7 1.3 3.5-.3-4.2.9-1.8 3 1-2.2 5-5.3 1.2 3.9.5-4 1.1-5.6 1.9-3.9-.1-.5 4.1 5.5-.5 4.8-.4 6-.3 2.4 4.1-2.9 2.1.7 1.5-3-3.5-1.8-2.3-.9 5 .4 3.6 4.9 1.4.9-1.2 4.7.9.2-1.9-1.2-4.3-2.1-5.3 3.6-7.3-4.8.2 1.7-5.2 2.2-.2.2-.4.4-4.3.3-4.5-5.5.5-4.6-.5-3.7.2h-3l3.3 2.1-1.5-.3-3.2.8-5 .5-1.5-2 5.6-.6-13.9-.4-5.3-.4-5.6-.2-2.8 2.4zm19.2 3.4.1-.5v.7zm.5-1.8.6 2.2-.6-2zm1.5 1.5.4.6-.3-.4zm1.5.5.3.4-.3-.3zm1.3-.2v.2zm2.8-.8.9-.3-.9.4zm3.2 2 .2.4-.1-.3zm1.8 2.3h.4zm.7-2.4 1.2-.5-1 .6zm2.8 24.2v-.2l.2.2zm2.5-2.1 2.2 1.4-2-1zm.3-23.7.2-.5.4.6-.2.2zm1.3-1.9h.6-.5zm.1 4.2.8.4-.7-.5zm1.5-4.8h.9-1zm.7 2.7h2.6l-1.4 1.6-1.2-1.5zm.3 23.4 2-1.2zm2-25.5.7.9-.7-.7zm1 26v1-.3h.3v-.2h-.2l-.2-.2zm.5-28.4h.8v.2l-.1.1h-.3v.3h-.3v-.6zm.1-.1" style="fill:none;stroke:#9cf"/><path d="m469.7 13 3 2.5 5-1.5 5.8.3 5.5.1 1.8 3.6 5.8-.5 1 3 1.2 1.5 2.8-1 2.4 1.6 1.5-3 1.5 1.7 1.3 3.5-.3-4.2.9-1.8 3 1-2.2 5-5.3 1.2 3.9.5-4 1.1-5.6 1.9-3.9-.1-.5 4.1 5.5-.5 4.8-.4 6-.3 2.4 4.1-2.9 2.1.7 1.5-3-3.5-1.8-2.3-.9 5 .4 3.6 4.9 1.4.9-1.2 4.7.9.2-1.9-1.2-4.3-2.1-5.3 3.6-7.3-4.8.2 1.7-5.2 2.2-.2.2-.4.4-4.3.3-4.5-5.5.5-4.6-.5-3.7.2h-3l3.3 2.1-1.5-.3-3.2.8-5 .5-1.5-2 5.6-.6-13.9-.4-5.3-.4-5.6-.2-2.8 2.4zm19.2 3.4.1-.5v.7zm.5-1.8.6 2.2-.6-2zm1.5 1.5.4.6-.3-.4zm1.5.5.3.4-.3-.3zm1.3-.2v.2zm2.8-.8.9-.3-.9.4zm3.2 2 .2.4-.1-.3zm1.8 2.3h.4zm.7-2.4 1.2-.5-1 .6zm2.8 24.2v-.2l.2.2zm2.5-2.1 2.2 1.4-2-1zm.3-23.7.2-.5.4.6-.2.2zm1.3-1.9h.6-.5zm.1 4.2.8.4-.7-.5zm1.5-4.8h.9-1zm.7 2.7h2.6l-1.4 1.6-1.2-1.5zm.3 23.4 2-1.2zm2-25.5.7.9-.7-.7zm1 26v1-.3h.3v-.2h-.2l-.2-.2zm.5-28.4h.8v.2l-.1.1h-.3v.3h-.3v-.6zm.1-.1" style="fill-rule:evenodd;fill:#ddecec"/><path d="m296.5 85.4 4.5 2.4 1 .7 1 2.9.8-.4 1.4 4.5 4.6.3-1.2 2.3 5.2-.7-.2-2.4-.3-5.3 1.6-2-2-4.4-.7-3.7 1.6-3.7-4.3-.7-.4-1.6-4-3.9-2.5 3.6-1 4.5 1.3 4.8-2.9 1.2-3.5 1.5zm5.5.9.2.5zm3.5 5.4.2-1.5v1.4zm1-16.9 1.5.9-1.5-.7zm1 4.5.2-.7.9 2.2-.2-.8-.4-.2-.3-.2h-.3v-.1zm-.1 0" style="fill:none;stroke:#9cf"/><path d="m296.5 85.4 4.5 2.4 1 .7 1 2.9.8-.4 1.4 4.5 4.6.3-1.2 2.3 5.2-.7-.2-2.4-.3-5.3 1.6-2-2-4.4-.7-3.7 1.6-3.7-4.3-.7-.4-1.6-4-3.9-2.5 3.6-1 4.5 1.3 4.8-2.9 1.2-3.5 1.5zm5.5.9.2.5zm3.5 5.4.2-1.5v1.4zm1-16.9 1.5.9-1.5-.7zm1 4.5.2-.7.9 2.2-.2-.8-.4-.2-.3-.2h-.3v-.1zm-.1 0" style="fill-rule:evenodd;fill:#ddecec"/><path d="m438.8 54.4 4.2 1.2 5-2.4 4 2.7 5.3-.2 4-.2-.5-2.1 3.1-3.2-2.6-.2-1-5-2.7 2.2-3.2.5-2.8-3-1 2.9.6 2-3 .7-3.7 3.4h-4.7l-1 .6zm16.4-4.3 1.1.9-1.1-.6zm2.3-1.6 2 .5-1.7-.5h-.2v.2zm0 0" style="fill:none;stroke:#9cf"/><path d="m438.8 54.4 4.2 1.2 5-2.4 4 2.7 5.3-.2 4-.2-.5-2.1 3.1-3.2-2.6-.2-1-5-2.7 2.2-3.2.5-2.8-3-1 2.9.6 2-3 .7-3.7 3.4h-4.7l-1 .6zm16.4-4.3 1.1.9-1.1-.6zm2.3-1.6 2 .5-1.7-.5h-.2v.2zm0 0" style="fill-rule:evenodd;fill:#ddecec"/><path d="m262.4 93.2 1.3 3.1 1 2.5 1.4.4 14.8.8-4.3-3.3-5-1 2.8-4.8-3.4-1.2-2.1-2.5-2.3.7-1.3 4.4-2.3 1.2-.5-.2zm0 0" style="fill:none;stroke:#9cf"/><path d="m262.4 93.2 1.3 3.1 1 2.5 1.4.4 14.8.8-4.3-3.3-5-1 2.8-4.8-3.4-1.2-2.1-2.5-2.3.7-1.3 4.4-2.3 1.2-.5-.2zm0 0" style="fill-rule:evenodd;fill:#ddecec"/><path d="m245.6 90.3 3.3 2 .7 2.3-2.4 3.8 3.3-3.4.5.3-.3 4.6 9.8.1-2-5.3-3.7-3.1v-3l-1.7-1.6-3.1 2.7 1.9-2.7-1.6-.6-1.7 2.1-1 1-2.1.8zm2.6.3 2.2-.2" style="fill:none;stroke:#9cf"/><path d="m245.6 90.3 3.3 2 .7 2.3-2.4 3.8 3.3-3.4.5.3-.3 4.6 9.8.1-2-5.3-3.7-3.1v-3l-1.7-1.6-3.1 2.7 1.9-2.7-1.6-.6-1.7 2.1-1 1-2.1.8zm2.6.3 2.2-.2" style="fill-rule:evenodd;fill:#ddecec"/><path d="m351.3 82.6 2.4 3.8 2.5 3.6 3.8 2.6.2-4.1 3.8 1.7-2.7-4.5-.3-4.5-1.5 1.9-.5-4.7-2.3 4.9-1.5-1-2.2-2.3v4.2l-1.8-1.6zm0 0" style="fill:none;stroke:#9cf"/><path d="m351.3 82.6 2.4 3.8 2.5 3.6 3.8 2.6.2-4.1 3.8 1.7-2.7-4.5-.3-4.5-1.5 1.9-.5-4.7-2.3 4.9-1.5-1-2.2-2.3v4.2l-1.8-1.6zm0 0" style="fill-rule:evenodd;fill:#ddecec"/><path d="m481.4 56.4 4.1 1 1 1.8 2.5-.2 3.7-1.3 2-1.7-1.1-1.2 1.2-1.8-4.8-1.3-3.4-1.7-2.7-3 1.2 4.7.2 1.1 1.5 2.6-5.3.9zm4.4-4.7v-.3" style="fill:none;stroke:#9cf"/><path d="m481.4 56.4 4.1 1 1 1.8 2.5-.2 3.7-1.3 2-1.7-1.1-1.2 1.2-1.8-4.8-1.3-3.4-1.7-2.7-3 1.2 4.7.2 1.1 1.5 2.6-5.3.9zm4.4-4.7v-.3" style="fill-rule:evenodd;fill:#ddecec"/><path d="m369 75.7 1.5 5.6 3.2-.7 2-.9 3.3-.5-1-3-1.5-1.8-3.5-1zm0 0" style="fill:none;stroke:#9cf"/><path d="m369 75.7 1.5 5.6 3.2-.7 2-.9 3.3-.5-1-3-1.5-1.8-3.5-1zm0 0" style="fill-rule:evenodd;fill:#ddecec"/><path d="m385.3 97.2 3.4 2.8h17l-2-1.5.8-2.5-3.1 3.2-.9-5-1.1 3.1-1.6-1.8-1.5 2.5-4.7-1.1-2.5-.1-2.9 2.5.2-1.3-1.1-.9zm13.6 1.6.8-.3-.7.5zm.1 0" style="fill:none;stroke:#9cf"/><path d="m385.3 97.2 3.4 2.8h17l-2-1.5.8-2.5-3.1 3.2-.9-5-1.1 3.1-1.6-1.8-1.5 2.5-4.7-1.1-2.5-.1-2.9 2.5.2-1.3-1.1-.9zm13.6 1.6.8-.3-.7.5zm.1 0" style="fill-rule:evenodd;fill:#ddecec"/><path d="m373.7 269.4 2.3 2 2.9-1.1 2.4-2.9-1.7-1.4 2.5-1.2.3 1.5 3.4-2 1.4-1.5-1-2-4.3-.5.7 2.9-3.9.1-1.5 1.4 1 2.8-2 2-1.5-1.4-.9 1.1zm0 0" style="fill:none;stroke:#9cf"/><path d="m373.7 269.4 2.3 2 2.9-1.1 2.4-2.9-1.7-1.4 2.5-1.2.3 1.5 3.4-2 1.4-1.5-1-2-4.3-.5.7 2.9-3.9.1-1.5 1.4 1 2.8-2 2-1.5-1.4-.9 1.1zm0 0" style="fill-rule:evenodd;fill:#ddecec"/><path d="m349.5 66 3.1 4-1.6 1.4 3.6 2.9-.4-3.3h2.8l2.9-2.3-4.7-1.7v-5.6l-3.2.7-1.5 4.5-1-.5zm0 0" style="fill:none;stroke:#9cf"/><path d="m349.5 66 3.1 4-1.6 1.4 3.6 2.9-.4-3.3h2.8l2.9-2.3-4.7-1.7v-5.6l-3.2.7-1.5 4.5-1-.5zm0 0" style="fill-rule:evenodd;fill:#ddecec"/><path d="m362 62.4 2 5.2 2.1.4 1.9 2.2 2.4-3 3 3.2-.4-4.1-1.4-2.4-2.3-1.4-.3-3.3-2.3 1-.7 4.8zm7 3.3.1-.7" style="fill:none;stroke:#9cf"/><path d="m362 62.4 2 5.2 2.1.4 1.9 2.2 2.4-3 3 3.2-.4-4.1-1.4-2.4-2.3-1.4-.3-3.3-2.3 1-.7 4.8zm7 3.3.1-.7" style="fill-rule:evenodd;fill:#ddecec"/><path d="m424.4 15 2.6 5 1.9.3 3.7.9 2.6-3.5-4.2.7 2.4-3.8-3.1 1.4 1.2-4.5-3.7 3.1-2-2.5.7 4.2-2.1-1.5zm2.6 1.8 1.4.9-1.2-.7zm1.4-.8 1.6 1.8-1.5-1.7zm1.1 3.4.6-.1h.3v.1l-.4.1h-.2zm0 0" style="fill:none;stroke:#9cf"/><path d="m424.4 15 2.6 5 1.9.3 3.7.9 2.6-3.5-4.2.7 2.4-3.8-3.1 1.4 1.2-4.5-3.7 3.1-2-2.5.7 4.2-2.1-1.5zm2.6 1.8 1.4.9-1.2-.7zm1.4-.8 1.6 1.8-1.5-1.7zm1.1 3.4.6-.1h.3v.1l-.4.1h-.2zm0 0" style="fill-rule:evenodd;fill:#ddecec"/><path d="m382.5 70.5 2.8 1.1 3 1.7 2.5-3-1.3-2.9-4.1-2.3-2.4 2.6-.4 2.8zm6.8-2.3.3.3" style="fill:none;stroke:#9cf"/><path d="m382.5 70.5 2.8 1.1 3 1.7 2.5-3-1.3-2.9-4.1-2.3-2.4 2.6-.4 2.8zm6.8-2.3.3.3" style="fill-rule:evenodd;fill:#ddecec"/><path d="m306 54.7 3.4 1-3.2 2.9 4.6 1.9 1.6-4.6-.4-5.3-3.1.9-2.6 1.9-.3.6zm0 0" style="fill:none;stroke:#9cf"/><path d="m306 54.7 3.4 1-3.2 2.9 4.6 1.9 1.6-4.6-.4-5.3-3.1.9-2.6 1.9-.3.6zm0 0" style="fill-rule:evenodd;fill:#ddecec"/><path d="m442.4 10.7 3 1.3.8 2 3.2-1.6-.5 2 2.1-1.6.2-1.4 1.1-1.2-2.3-1.5-3.3.9-4 .8h-.3zm5-.2" style="fill:none;stroke:#9cf"/><path d="m442.4 10.7 3 1.3.8 2 3.2-1.6-.5 2 2.1-1.6.2-1.4 1.1-1.2-2.3-1.5-3.3.9-4 .8h-.3zm5-.2" style="fill-rule:evenodd;fill:#ddecec"/><path d="m384.5 48.3 3.6-2.5 1.3-3.6-1.1.1h-2.3l-.4 4.7-1 1zm0 0" style="fill:none;stroke:#9cf"/><path d="m384.5 48.3 3.6-2.5 1.3-3.6-1.1.1h-2.3l-.4 4.7-1 1zm0 0" style="fill-rule:evenodd;fill:#ddecec"/><path d="m472.1 79.1 3.4 1 2-2.3-2.5 1.4-2.3-1.3-.5 1.2zm3.6-.8" style="fill:none;stroke:#9cf"/><path d="m472.1 79.1 3.4 1 2-2.3-2.5 1.4-2.3-1.3-.5 1.2zm3.6-.8" style="fill-rule:evenodd;fill:#ddecec"/><path d="m403.8 66.6 4.3 1 1.3-1.8-2.7.6h-2.7v.2zm2.3 1" style="fill:none;stroke:#9cf"/><path d="m403.8 66.6 4.3 1 1.3-1.8-2.7.6h-2.7v.2zm2.3 1" style="fill-rule:evenodd;fill:#ddecec"/><path d="m373.6 44.7 3.6-4 1.4-1-.4-.7-4 1.3 1 2.7-1.5 1.5zm0 0" style="fill:none;stroke:#9cf"/><path d="m373.6 44.7 3.6-4 1.4-1-.4-.7-4 1.3 1 2.7-1.5 1.5zm0 0" style="fill-rule:evenodd;fill:#ddecec"/><path d="m264.4 85.6 4-2.3-1-.5-.6-1.8-2 3.6-.2 1zm0 0" style="fill:none;stroke:#9cf"/><path d="m264.4 85.6 4-2.3-1-.5-.6-1.8-2 3.6-.2 1zm0 0" style="fill-rule:evenodd;fill:#ddecec"/><path d="m492.4 67.5 3.2.4 1.8-1.6-1-.7-2.9.4-1 1.2zm0 0" style="fill:none;stroke:#9cf"/><path d="m492.4 67.5 3.2.4 1.8-1.6-1-.7-2.9.4-1 1.2zm0 0" style="fill-rule:evenodd;fill:#ddecec"/><path d="m467 74.6 1.4-3.6-1.4.4zm0 0" style="fill:none;stroke:#9cf"/><path d="m467 74.6 1.4-3.6-1.4.4zm0 0" style="fill-rule:evenodd;fill:#ddecec"/><path d="m474 44.8 4.9-.5-2.3-1.1-1.3.6-1.2.8zm0 0" style="fill:none;stroke:#9cf"/><path d="m474 44.8 4.9-.5-2.3-1.1-1.3.6-1.2.8zm0 0" style="fill-rule:evenodd;fill:#ddecec"/><path d="m429.5 55.8 2.9-.5-2 .2-1 .2zm0 0" style="fill:none;stroke:#9cf"/><path d="m429.5 55.8 2.9-.5-2 .2-1 .2zm0 0" style="fill-rule:evenodd;fill:#ddecec"/><path d="m329.8 53 .5-2-.3 1.8zm0 0" style="fill:none;stroke:#9cf"/><path d="m329.8 53 .5-2-.3 1.8zm0 0" style="fill-rule:evenodd;fill:#ddecec"/><path d="m476.4 95 1-.5-1 .4zm0 0" style="fill:none;stroke:#9cf"/><path d="m476.4 95 1-.5-1 .4zm0 0" style="fill-rule:evenodd;fill:#ddecec"/><path d="m305.8 43 1.3-.5zm0 0" style="fill:none;stroke:#9cf"/><path d="m305.8 43 1.3-.5zm0 0" style="fill-rule:evenodd;fill:#ddecec"/><path d="m476 71 2-3-2 2.6zm0 0" style="fill:none;stroke:#9cf"/><path d="m476 71 2-3-2 2.6zm0 0" style="fill-rule:evenodd;fill:#ddecec"/><path d="m379.8 22.8h2.4l-2.4-.2zm0 0" style="fill:none;stroke:#9cf"/><path d="m379.8 22.8h2.4l-2.4-.2zm0 0" style="fill-rule:evenodd;fill:#ddecec"/><path d="m409 85.7 1.2-2.2-1.2 2.1zm0 0" style="fill:none;stroke:#9cf"/><path d="m409 85.7 1.2-2.2-1.2 2.1zm0 0" style="fill-rule:evenodd;fill:#ddecec"/><path d="m352.8 91.4 2.1.6-2.1-.7zm0 0" style="fill:none;stroke:#9cf"/><path d="m352.8 91.4 2.1.6-2.1-.7zm0 0" style="fill-rule:evenodd;fill:#ddecec"/><path d="m243.8 94.8 1.6-2.3-.4-.3-1.1 2.4zm0 0" style="fill:none;stroke:#9cf"/><path d="m243.8 94.8 1.6-2.3-.4-.3-1.1 2.4zm0 0" style="fill-rule:evenodd;fill:#ddecec"/><path d="m376.4 43.4 3-1.9-3.1 1.8zm0 0" style="fill:none;stroke:#9cf"/><path d="m376.4 43.4 3-1.9-3.1 1.8zm0 0" style="fill-rule:evenodd;fill:#ddecec"/><path d="m364.7 62.6.5-.6-.4.5zm0 0" style="fill:none;stroke:#9cf"/><path d="m364.7 62.6.5-.6-.4.5zm0 0" style="fill-rule:evenodd;fill:#ddecec"/><path d="m303.9 55.7v-.3zm0 0" style="fill:none;stroke:#9cf"/><path d="m303.9 55.7v-.3zm0 0" style="fill-rule:evenodd;fill:#ddecec"/><path d="m483.9 17.3.8-.6-.8.5zm0 0" style="fill:none;stroke:#9cf"/><path d="m483.9 17.3.8-.6-.8.5zm0 0" style="fill-rule:evenodd;fill:#ddecec"/><path d="m383.3 45 2-1.5-1.9 1.4zm0 0" style="fill:none;stroke:#9cf"/><path d="m383.3 45 2-1.5-1.9 1.4zm0 0" style="fill-rule:evenodd;fill:#ddecec"/><path d="m461 35.7.8-.7-.2.5zm0 0" style="fill:none;stroke:#9cf"/><path d="m461 35.7.8-.7-.2.5zm0 0" style="fill-rule:evenodd;fill:#ddecec"/><path d="m369.9 34.6 2-.7-1.9.5zm0 0" style="fill:none;stroke:#9cf"/><path d="m369.9 34.6 2-.7-1.9.5zm0 0" style="fill-rule:evenodd;fill:#ddecec"/><path d="m260.8 88 5-.8-4.8.8zm0 0" style="fill:none;stroke:#9cf"/><path d="m260.8 88 5-.8-4.8.8zm0 0" style="fill-rule:evenodd;fill:#ddecec"/><path d="m467 97.2v-1.5zm0 0" style="fill:none;stroke:#9cf"/><path d="m467 97.2v-1.5zm0 0" style="fill-rule:evenodd;fill:#ddecec"/><path d="m363.7 35 1.6-1.3-1.5 1.1zm0 0" style="fill:none;stroke:#9cf"/><path d="m363.7 35 1.6-1.3-1.5 1.1zm0 0" style="fill-rule:evenodd;fill:#ddecec"/><path d="m314.8 99.4v-.2zm0 0" style="fill:none;stroke:#9cf"/><path d="m314.8 99.4v-.2zm0 0" style="fill-rule:evenodd;fill:#ddecec"/><path d="m396.6 82 1.6-.5-1.5.5zm0 0" style="fill:none;stroke:#9cf"/><path d="m396.6 82 1.6-.5-1.5.5zm0 0" style="fill-rule:evenodd;fill:#ddecec"/><path d="m362 84.5v-.2zm0 0" style="fill:none;stroke:#9cf"/><path d="m362 84.5v-.2zm0 0" style="fill-rule:evenodd;fill:#ddecec"/><path d="m456.3 19.2h.2zm0 0" style="fill:none;stroke:#9cf"/><path d="m456.3 19.2h.2zm0 0" style="fill-rule:evenodd;fill:#ddecec"/><path d="m471.2 79.3.3-.1h-.3zm0 0" style="fill:none;stroke:#9cf"/><path d="m471.2 79.3.3-.1h-.3zm0 0" style="fill-rule:evenodd;fill:#ddecec"/><path d="m315 93.2v-.3zm0 0" style="fill:none;stroke:#9cf"/><path d="m315 93.2v-.3zm0 0" style="fill-rule:evenodd;fill:#ddecec"/><path d="m278.3 95.6 1-.6-.7.4zm0 0" style="fill:none;stroke:#9cf"/><path d="m278.3 95.6 1-.6-.7.4zm0 0" style="fill-rule:evenodd;fill:#ddecec"/><path d="m269.7 82.6.6-.3-.6.2zm0 0" style="fill:none;stroke:#9cf"/><path d="m269.7 82.6.6-.3-.6.2zm0 0" style="fill-rule:evenodd;fill:#ddecec"/><path d="m398.5 85.5v-.1zm0 0" style="fill:none;stroke:#9cf"/><path d="m398.5 85.5v-.1zm0 0" style="fill-rule:evenodd;fill:#ddecec"/><path d="m383.3 21 1-.2zm0 0" style="fill:none;stroke:#9cf"/><path d="m383.3 21 1-.2zm0 0" style="fill-rule:evenodd;fill:#ddecec"/><path d="m438 36.6.3-.3zm0 0" style="fill:none;stroke:#9cf"/><path d="m438 36.6.3-.3zm0 0" style="fill-rule:evenodd;fill:#ddecec"/><path d="m302.2 98.3v-.1zm0 0" style="fill:none;stroke:#9cf"/><path d="m302.2 98.3v-.1zm0 0" style="fill-rule:evenodd;fill:#ddecec"/><path d="m236.3 100v-.2zm0 0" style="fill:none;stroke:#9cf"/><path d="m236.3 100v-.2zm0 0" style="fill-rule:evenodd;fill:#ddecec"/><path d="m390 46.2.4-.3zm0 0" style="fill:none;stroke:#9cf"/><path d="m390 46.2.4-.3zm0 0" style="fill-rule:evenodd;fill:#ddecec"/><path d="m424.9 19.5h.3zm0 0" style="fill:none;stroke:#9cf"/><path d="m424.9 19.5h.3zm0 0" style="fill-rule:evenodd;fill:#ddecec"/><path d="m490 60 .2-.2zm0 0" style="fill:none;stroke:#9cf"/><path d="m490 60 .2-.2zm0 0" style="fill-rule:evenodd;fill:#ddecec"/><path d="m262.5 90.5 1.8 2zm0 0" style="fill:none;stroke:#9cf"/><path d="m262.5 90.5 1.8 2zm0 0" style="fill-rule:evenodd;fill:#ddecec"/><path d="m485.9 15.6.2-.3-.1.3zm0 0" style="fill:none;stroke:#9cf"/><path d="m485.9 15.6.2-.3-.1.3zm0 0" style="fill-rule:evenodd;fill:#ddecec"/><path d="m438.4 24.6.4-.3zm0 0" style="fill:none;stroke:#9cf"/><path d="m438.4 24.6.4-.3zm0 0" style="fill-rule:evenodd;fill:#ddecec"/><path d="m243.3 95.7v-.1zm0 0" style="fill:none;stroke:#9cf"/><path d="m243.3 95.7v-.1zm0 0" style="fill-rule:evenodd;fill:#ddecec"/><path d="m331.7 54.6v-.2zm0 0" style="fill:none;stroke:#9cf"/><path d="m331.7 54.6v-.2zm0 0" style="fill-rule:evenodd;fill:#ddecec"/><path d="m397.3 19.7v-.1zm0 0" style="fill:none;stroke:#9cf"/><g style="fill-rule:evenodd"><path d="m397.3 19.7v-.1zm0 0" style="fill:#ddecec"/><path d="m404.2 74.2 3 2.4 4.8 1 3.4 3.9 2 .8-2.8-3.8-3.4-4 4.5-3-1.6-.1-5.3 2-4.5.8zm0 0" style="fill:url(#c)"/><path d="m381.4 83.9 4.4 3.5 3.5 3.2 5.6 1.7 4.5.3-2.7-.7-5.5-1.6-4.5-3.6-2.6-4.5-2.6 1.6zm0 0" style="fill:url(#e)"/><path d="m407.5 6.4 2.5-5.6 2.3-4.3.7-4.5-1.7-2 .4 4.2-1.6 5.5-2.1 5.3-.5 1.2zm0 0" style="fill:url(#g)"/><path d="m313.4 79.5v.3h.2v.2l.3.1v.2l.1.1v.5l.2.1v.4h.2v1.3l-.2.1v.8l.2.1h.1v-.4h.1v-.1h.1l.1-.2.2-.1h.2l.3-.3h.5v-.2h.6l.1.2.1.1.2.3v-.2l.1-.3v-1.2l.2-.2v.1l-.3-.4v-1.8h-.3v-.3l-.2-.4v-.2h-.2v-.3h-.2l-.1-.2h-.1l-.2-.2h-.2l-.3-.4-.2-.1-.3-.3v1.7l-.2.1v.2h-.2v.4h-.3v.2h-.2v.3h-.3v.1h-.2zm0 0" style="fill:#aad3df"/><path d="m347 85 .2.2v.1h.1v.3h.1v.4h.2v.3h.1v.2l.2.3.1.1v.3h.1l.1.3h.1v.3h.2v.3h.2v.3l.1.2.2.3v.7l.2.4v1.1h.1v.6h.1v.6h.1v.7h.1v-.2l.2-.2v-.2h.4v-.1l.1.3h.1l.1.1h.6v.1l.2.1v.3l.1.2v.1-1.1l-.2-.1v-1l-.2-.3v-1.2l-.2-.1v-.9l-.3-.4v-.4l-.1-.2v-.3l-.1-.1v-.2l-.1-.1-.2-.2v-.5h-.2v-.3l-.1-.1-.3-.3v-.7h-.1v1h-.1l-.2.2h-.2l-.1-.2h-.8l-.1-.2h-.2l-.2-.2-.2-.4v-.2h-.1v-.2h-.1zm0 0" style="fill:#aad3df"/><path d="m481.9 65.4 1.3 5.1-.5 4 2.7-.5-1-4.9-1.1-3.3-1.3-.4zm1.4 2.2" style="fill:url(#j)"/><path d="m291.2 97.6 1.3-.6 3-.7-.5-2.8-1.8-.3-2 4.2zm0 0" style="fill:url(#l)"/><path d="m345.9 100h5.7l-.2-.2-.2-.1v-.4l-.2-.1v-.2l.2-.1.1-.2h.4l.1-.2h.1v-.1h-.5v-.1h-.4v-1.2h-.3l-.2.4h-.2l-.3.2v.1h-.6l-.1-.4-.2-.1v.3l-.1.1v.1h-.2v.2h-.1l-.2.3h-.1l-.1.1v.1h-.3v.2h-.1l-.1.1h-.2l-.2.2h-.4v.2h-.5v.2h-.1l-.1.1h-.1l-.2.1v.4zm0 0" style="fill:#aad3df"/><path d="m467 59 1-2.7 3.7-4-.8-.6-3.5 4.5-.4.9zm0 0" style="fill:url(#n)"/><path d="m348.3 56.6.2.2.1.2v.9h.4v-.1h.4v-.2h.6v-.1h.3l.1-.1h.2l.1-.2h.3v-.2l.3-.1v-.3l-.3-.2v-.4h.8l.2.2h.2v.1l.2.1h.1v-.3h.5v.3l.2-.3v.3h.2v-.1h.1l.1-.1v-.5h-.2v-.1h-.4l-.1-.2h-.3l-.2-.2h-.9v.2h-.7l-.1.3h-.5v-.4h-.2v-.1l-.2-.2v-.1l-.1-.2h-.8l-.1.1-.1.2v.8l-.2.2v.4l-.2.1v.2zm0 0" style="fill:#aad3df"/><path d="m348 78 2.8 1.5-1.3-3.5-1.4 1.8zm0 0" style="fill:url(#q)"/><path d="m373.2 91.8.5 5.5 1.6 2.2-.1-2.8-2-5zm0 0" style="fill:url(#r)"/><path d="m400.1 57.8 4.3-.4 4.9-1.4-2.5.9-5.1.7-1.4-.3zm0 0" style="fill:url(#t)"/><path d="m413.9 95.6 3.4 4.4-2-3.4zm0 0" style="fill:url(#w)"/><path d="m480.2 60.4 1.5 2.8 1 .8-1.7-4-.8.3zm1.9 2" style="fill:url(#y)"/><path d="m316 90.3v.5l.2.2v.2l.1.2v.4h.2v.2h.2v.1l.2.1.1.2v.1h.2v.1h.1v.2h.1l.1.2h.3l.2.1.1.1h.4v.2h.3l.1.3.5.1.1.2.2.2v.1h.3v.2h.1v-.8l-.1-.1v-.2h-.3v-.3l-.2-.3v-.1l-.2-.1v-.1l-.3-.2-.2-.1-.3-.2-.4-.2-.1-.2-.5-.5h-.2v-.4h-.1v.3h-.7l-.2-.3v-.3h-.3v-.3zm0 0" style="fill:#aad3df"/><path d="m291 61.8 1.8.8-.8-2.3-.9 1.4zm0 0" style="fill:url(#z)"/><path d="m434 47.6 2 2.4 3 3.4-2.6-3.9-2-2zm0 0" style="fill:url(#C)"/><path d="m292.7 62.2 4.1-.9.3-.8-2.9 1.5-1.2.2zm0 0" style="fill:url(#E)"/><path d="m322.5 46.2v.4h.2v.2h1.5l.2.2h.2v-.2l.1-.1v-.2l.2-.3v-.5h-.3v-.4h.3l.1-.1.2-.1-.2-.1h-.2l-.1-.2h-.2l-.2-.1h-.8l-.4.2v.4h-.1v.1l-.2.2v.2h-.2v.1l-.1.1-.1.2zm0 0" style="fill:#aad3df"/><path d="m470.5 39.1v.2l.2.1v.3l.3.3h.4l.1-.4h.3l.1-.2.3-.1.2-.3h.1v-.2h.7l.1-.2h1v-.6h-.7l-.1-.1h-.1l-.2-.1h-.2l-.3-.2h-.2l-.2.2h-.1l-.2.2h-.1v.2h-.3l-.1.2-.3.1-.1.1-.1.2-.3.1-.3.1zm0 0" style="fill:#aad3df"/><path d="m474.3 38.5 3.8-2.5zm0 0" style="fill:url(#G)"/><path d="m368.1 85.9 2.9 4.5-2.3-3.4-.5-1.1zm0 0" style="fill:url(#J)"/><path d="m469.8 92.8.2.2.1.1h.1l.2.2.1.1.1.2v.1h.4l.2-.3h1.6l.2-.1v-.3l-.4-.2v-.4l.4-.4v-.1h.1l.1-.2h.5v-.4h-.4v.3h-.2v.2h-.1v.1l-.2.1h-.5v.7h-.7v.1h-.6v-.3h-.3v.3h-.5v-.5h-.2v-.1.5h-.2zm0 0" style="fill:#aad3df"/><path d="m253 82.2 4.6 2.2 1.7 2.2-2.6-3.3-3.6-1.3zm0 0" style="fill:url(#L)"/><path d="m410.8 93.3 3.7 2-3.5-2.2h-.2zm0 0" style="fill:url(#M)"/><path d="m340 73.3v.7l.2.1v.1h.1v.2h.1v.2h.1v.2l.1.2h.1l.1.1v.2l.1.1.1.5v.1h.2v.4l.1.1v.2h.3l.1-.5v-1.5h-.4v-.4l-.2-.1-.1-.2h-.2l-.1-.2-.2-.2v-.3l-.1-.3h-.1l-.2-.1v-.2l-.1.3v.2zm0 0" style="fill:#aad3df"/><path d="m421.5 51.7h.4l.1.2h.2l.2-.2.1-.2.2-.1.1-.1.2-.1v-.1h.1l.1-.1h.1l.1-.2h.3-.4l-.1-.2-.2-.2v-.8h.2v-.2h-.7l-.1.2v.1h-.4v1.2l.2.1-.2.1h-.1v.2h-.2v.1l-.2.1v.1h-.1zm0 0" style="fill:#aad3df"/><path d="m296.2 72 1-.4-.8.2zm0 0" style="fill:url(#P)"/><path d="m429.5 50h.2v.3h.2v.5h.1v.7l-.2.2h.2l.2.3.1.2v.4h-.2v.7-.5h.4l.1-.1h.1v-3h.2v-.2h-.5l-.1-.1h-.5v.5h-.3zm0 0" style="fill:#aad3df"/><path d="m409.2 13v.2h.1l.2.1.1-.2h.1l.2-.1.1.3v-.3l.2-.1v-.1h.3l.3-.3.2-.1h.2v-.1h.3v-.3l-.3-.2h-1.2v-.3h-.5l-.2.3v.6l-.1.4h.2zm0 0" style="fill:#aad3df"/><path d="m310 43.8 2.8-.5-2.9.5zm0 0" style="fill:url(#R)"/><path d="m367.3 78.5v.1h.2v.4l.1.3v.6l.2.1v.3h.1v.2l.1.1.2-.4v-.2h.1v-.1l.1-.2v-1.3l-.3-.2h-.1v-.5h-.6v.3h-.1zm0 0" style="fill:#aad3df"/><path d="m355.5 57.4 1 .2-1.1-.2zm0 0" style="fill:url(#T)"/><path d="m313.1 94.6.2.2h.1l.1.1v.1h.3v.3l.3.2.1.1.1.1h.5l.4.2h.8v-.3h-.1l-.1-.3h-.2l-.4-.1h-.5l-.2-.2h-.1l-.4-.4v-.1l-.4-.6v-.2h-.3v.6h-.1v.2zm0 0" style="fill:#aad3df"/><path d="m294.4 89.8v-.5.4zm0 0" style="fill:url(#W)"/><path d="m489.2 25.8 2.6-1.2-2.4 1zm0 0" style="fill:url(#Y)"/><path d="m470 99h.3l.1-.2.1-.2h.1v-.2h.2v-.7h.1v-.2l-.3-.1v-.1h.4v-.8h-.3v-.3h-.5v-.5l-.2.3v.3h.3v.7h-.3v.8h.3v.7l-.3.1zm0 0" style="fill:#aad3df"/><path d="m479.7 57.8 1.4 1.7-1.4-1.8zm0 0" style="fill:url(#aa)"/><path d="m330.6 53h.8l.2.1.3.1h.5l.3.2h.8v-.3h-.5v-.1h-.1l-.1-.2-.3-.3v-.2l-.2-.1v-.2l-.2-.2v1h-.6v-.4h-.4l-.1-.1h-.2v.4l-.3.3zm0 0" style="fill:#aad3df"/><path d="m406.5 93.9 1.5-1.5-1.5 1.4zm0 0" style="fill:url(#ad)"/><path d="m364 72.5 3.6 2.9-3.4-2.9zm0 0" style="fill:url(#af)"/><path d="m320 47.1v.2h.1l.1.1h.1v.1h.3l.2.2.2-.3h.2l.1-.2.1-.2h.5v-.4l-.2-.1v-.2h-.3v-.2h-.4v-.1h-.2v.5h-.2v.1h-.1v.4h-.3l-.2.2zm0 0" style="fill:#aad3df"/><path d="m352.7 56.2 2.7 1zm0 0" style="fill:url(#ai)"/><path d="m360 70.2h1zm0 0" style="fill:url(#ak)"/><path d="m237.6 99.4v-.1zm0 0" style="fill:url(#am)"/><path d="m375 31.5v.2l.1.3.2-.1v-.1h.1l.1-.3h.1l.3-.2h.1l.3-.2v-.1l.2-.1v-.1l.1-.6v-.2h-.4v.2l-.2.2v.1h-.3v.2l-.2.1v.2l-.4.2v.3zm0 0" style="fill:#aad3df"/><path d="m293 54.2.5-.8zm0 0" style="fill:url(#ap)"/><path d="m286.2 79h.3l.1.2h.6v-.4l.1-.1v-.7h-.7v-.6h-.2l-.1.3v.5h.3v.4l-.4.1v.2zm0 0" style="fill:#aad3df"/><path d="m359.6 66.2.4-.2zm0 0" style="fill:url(#ar)"/><path d="m414.1 13.8.2.2.1.2.1.1.2.1.3.2.2-.4.2-.1v-.1l.3-.1.2-.3v-.1h-1.7v-.1h-.1zm0 0" style="fill:#aad3df"/><path d="m495.9 28v-.2zm0 0" style="fill:url(#au)"/><path d="m269.3 84.4h.3v-.1h.2l.1.3h.1l.3.1h.1v-.4h-.3v-.3h.2v-.2h.4v-.2h-.3v-.1h-.2v-.1l-.2-.3v-.3h-.3v.8h-.1v.1h-.1v.3h-.1l-.1.3zm0 0" style="fill:#aad3df"/><path d="m438 47.4h.7zm0 0" style="fill:url(#aw)"/><path d="m295.1 73.7v-.1zm0 0" style="fill:url(#ay)"/><path d="m486 42.2v-.2zm0 0" style="fill:url(#aB)"/><path d="m405.5 92.2h.3v.2h.9l.1.1h2.4l.1.2h.1l.1.3h.4v.3l.4.2h.7v.1h.3l.2.1v.1h.3l.2.2h.1v.2h.3v.3h.1v.2h.1v.1l.3.1h.3v.1h.1v.2l.2.2h.1l.2.2h.5v-.3h.3v.5h.3l.1.1v.3h.1l.2.1v.5-.2l.1-.1v-.4l-.4-.2v-.3h-.2l-.1-.2h-.2v-.1h-.5l-.2.3h-.1v-.4h-.3v-.1l-.1-.1-.1-.1-.4-.2v-.1l-.5-.2v-.3l-.2-.1h-.1v-.7.7h-.2v-.3h-.1l-.1-.1h-.4l-.2-.2v-.2h-.1.7-1.1v.2h-.5v-.3l-.1-.1h-.1l-.1-.1-.2-.3h-.2v-.2h-.9l-.3-.2h-2.5v-.1zm0 0" style="fill:#aad3df"/><path d="m402.3 92.9 2.3-.7-2.3.6zm0 0" style="fill:url(#aD)"/><g style="fill:#aad3df"><path d="m477.8 314 1.7-.5.7-.4h.8l2.2-.4 2.3-.7h.8l1.5-.6.5-.6h1l2.9-1.4 2.4-.6.9-1.3.5-.4.7.2.5.3h.8l.4-.2.6.4.6-.2.7-.6.4-.7 1.7-.3 1.5.1 1.3.8 1-.1.8.2.7-.2.3-.3h.6l.4-1.5.4-.4.6-.4v-.6l-1.5-.2.7-.4-.1-.4-1.6-.9-.5-.7.7-.2.7-.6.4-.7.7-.8.8-.7.2-.6.5-.6 1.3-.3.4.2 1-.3h2l.9-.2 1.1.2.8-.4.7.2 1.1-.2.5.2 1 .1.5-.2.7-.5.9-.6h1.3l.6.2.5-.3h.7l.6-.3h2.4l2.3-1.5 1.5-.5h2l1.2-.3 3.8.3h2l.9-.4h1.1l2.7-.2v-8.1h-.7l-1.1.5-1.4-.4-1.3-.3h-1.6l-1.1-.5-2 .4-2.9 1-3.6.8-2.4.8-.9-.5-.8-.1-.6.4-.4.6-2.4-.6-.6-.7-.6-.2-1.2-.2h-.6l-.3.3h-1.3l-1-.5h-1.4l-.4-.4v-.3l.5-.4 1-.2.6-.6.6-.8.2-.5.7-.8 1.6-.8.5-.5.7-.1.3-.3h-33.2l-.4.3-1 .7-1.7.9-.7.1-2.3 1.2-1.3.8-2 .8-3.2 1.7zm43.4-28.4h.5l.3.1v.2h-.7zm0 0" style=""/><path d="m540.3 209.2.3.8-.2.4v1.2l-.4.5-1.2.5-1.2.6-1 .8-.1.5-.4.2-.4.5v.5l-.5.9-.2.7-.3.2-.2.7-.1 1-.9 1.6v.6l-.5.6v.6l-.4.6v.5l-.2.3-.3 1.5v.4l.3.6h1.2l1.1-.5h1.4l.6.2.3.5.3 2.4-.3.2-.7 1.7-.5.6-.1.7v.4l-.1.5v.7l-.2.8-.3.5h-.3l.2.3-.3.2-.3.5-.4.2-.5-.4-1.5.1-.6.6-.2 1.1v1l-.5.7v.6l-.3 1 .2.9.2 2.5-.3.7v.8l-.5 1.5-.2.5-1.6 1-.5.6-.2.7-.9.7-.4.4v.6l-.2.7-.4.1-.4.4h-1l-1 .2-.9 1.6-1.6 1v1.6l-.4.4-.8.2h-.7l-.6.8-.2.5v.5h-1l-.6.3-.6.8h-.5l-.1.5-1 .7-.4.6h-.3l-1 .8h-.3l-1.2.9h-.3l-3 1.9-1 .6-.7.6h-.3l-.7.6-1.7 1-.3 1-1.4.1-.9.8-.6 1-.6-.2-3 2.2-.5.8-.7.2-.7.8-.6 1-1.2 1-1.4.5-1 .5h33.2l2.7-2.5.3-.7.8-.5.6-.8 1-.6 1.1-.4 1.1-.8 1-.8.4-.8h.2l.5-.6.3-.5v-.4h.4l.3-.6 5.5-2.2 1-.8h.6l.1-.4h.3l.2-.6.3.1.2-.3.9-.2.5-.6 1.7-.8.8-.2.2-.4h1v-16.2l-1 .6-1.5.3-1.4.1-.7-.2.2-.8-.3-.6v-1.6l-.7-.8v-1.6l1.2-.3.4-.4v-.5l.6-.2.1-.4-.1-.4.1-.6-.2-.6.4-.9-.2-1.1v-1l.3-1.3v-1.4l-.2-2.4-.4-.3-.7-.4-.2-.5.2-.8-.8-.3-.4-1h.5l.4-1.3.5-.7.3-.7.8-.4.8-.6.2-.4.3-.7.3-.2v-.3l.5-.3.4-.7v-.4l.3-.3v-10.8zm-7.3 32.3.4-.3v-.7l.6-.5.8.6-.3.7-.6.3-.6.1zm0 0" style=""/><path d="m-10.4 69.8h69.7v-69.8h-69.7zm0 0" style=""/><path d="m129 69.8h69.9v-69.8h-69.8zm0 0" style=""/><path d="m59.3 69.8h69.8v-69.8h-69.8zm0 0" style=""/><path d="m59.3 0h69.8v-69.7h-69.8zm0 0" style=""/><path d="m129 0h69.9v-69.7h-69.8zm0 0" style=""/><path d="m-10.4 0h69.7v-69.7h-69.7zm0 0" style=""/><path d="m338.3 0h43l-.2-.2v-1.3l-.3-.1v-.9l.4-1 .5-.3-.2-1.4h.5l.4-.3h.6l-.1-.9v-.2l-.5-.4h-1.9l-.3.4-.2.4.2.8h-.4l-.4-.3-.4-.8.3-.7.6-.7-.4-2.6v-1.5l.5-.8-.3-.6v-.2l.3-.6v-1.2l.6-.6.2-.7v-.5l.2-.3-.4-.5v-.8l-.3-.4.2-.5h-.4l-.1-.2-.3.1h-.3l-.4.1h-.6l-.7.3-.2.3v.3l-.7-.1-.6-.5-.3-.4-.3-1.4-.3-.6-.1-.5v-.5l-1 .1-.2-.3-1 .4h-.6l-.1-.4.3-.3 1.1-.7 1-.8.3-.2h.6l.4-.2 1-.8v-.4l.2-.6-.8.2v.1l.3.3v.1l-.6.4-.5.4h-.3v-.3l.4-.7v-.1l-.2-.2-.5.3-.3.5-.7.1-.3-.4-.2-.4.5-1.3.3-.2 2.2-.1 1.5-1 1.8-.4h1.5l.7-.1h.6v.1l-.2.3 1.2-1h.8l1.4-.9 1.2-.3h.7l.3.2-1.2.8.2.2.3.2 1-.3v-.5l.7-1 1.2.7.8.1-.2.4.2.1.1.2v.5l-1.1.7v.3l.7.6.2.4h.2l.6-.3v.1l-.7 1h-.1v.2l.6-.3.5-.8.5-.4.2-.1.3.3h.4l.3-.3-.5-.2-1 .2-.9.2v-.2l.1-.7-.1-.3v-.4l.2-.4.5-1.8h.8l.2.2v.2h1.1l.4.8 1 1h.3l.7.3h.7l1.2.5.2.2.3.3 1-.4.1.1v.2l-.3.4-.8.3-.2.2.5.3v.6l.2.7-.1.1-.7.2-.4.2-.2.9v.8l-1.2-.2.2-.3v-.2l-.6.1-.2-.2-.9.1v-.2h-.2l-.1.1v.9l.2.3-.1.1v.3l-.9.7v.5l.3.6h.8l.1.5.3.2.5-.4v.2l-.3.3v.1h.7v.3l1.1.7h.3v.2l1 .2.3.2.4.6v.4l.8.6.2.1.1-.1.4-.1.4.2h.1v.1h.3l.2.3.8.5.6 1.2.3.5h1.1l.4.2h.3l.3.4 1.3.2.2.1v.4l.5.3v-56.6h-69.7zm0 0" style=""/><path d="m268.5 0h69.8v-69.7h-69.8zm0 0" style=""/><path d="m198.8 0h69.8v-69.7h-69.8zm0 0" style=""/><path d="m198.8 69.8h54.2v-.1l.4-.2.2-.5h.2l.3-.4.4-.4 1.2 1.5h12.9v-69.7h-69.8zm51.2 0-.1-.3h.1zm0-.5v-.1.3zm1 .1h-.2l.2-.3v.2zm1-1v-.1l.2-.2zm2.6-1.5.1.1-.1.3.1.4v.3h-.4.3-.2v-.7l-.2-.1h.1v-.4h.3zm-.8.5v-.2h.2v.3zm-1-.4-.2-.2v-.1l.4.2h-.2v.1h-.1zm.2 0 .3-.3v-.2l.3.2-.2.3-.2.2v-.3zm.6-.2.1-.3v.4zm-.6-.8v-.3l.1-.1v.2zm-.8-.6-.1-.1.2-.1zm9.8-1.4-.2-.1-.1-.2.3.2zm-6.8.7v-.4l.2-.1-.1.6zm0-.7-.2.7v.3h-.2l-.2-.3.1-.4.4-.4h.2zm.3-.3v-.3l.2.1zm-1.9 1.3.2-.3v-.2l-.1.4zm.2-.4v-.2h.2zm0 0" style=""/><path d="m268.5 73.6h1l.1-.2.4.1v.2l.2.3h-.1l.2.4.7.3h.6l.4-.6h.3l.7.3h.2l.6.3h.1v-.6l-.1-.2-.2-.1-.3-.7-.3-.1.2-1.1.2-.5 1.2-.4h.4l.4 1v.8l.3.2h.2l.3-.1.4-.5h.6l.6-.2h.2l.2.3.4.2.4.5v.4l-.3.7-.7.3h-.3l-.7-.3h-.8l-.6-.6-.2.3-.3-.1-.3.3.6.7.6.3h.1l1-.4.3.2.1.7v.7l.3.4.2.2.3.3h.3l.4.7-.3 1.9h.1l.4.5v.4l-.4.2.4.3v.4l.6.3.5.8.8.6.2.6v1l.3.3v.1l.1.2h.6l.3-.2 1-1.1h.4l.3.5.1.2-.3.4v.8l-.4.4v.9l-.1.7.3.5-.1.3.5.3.3-.1.4-.4.5.1.3 1.4.2.2v1l-.2.4v.5l1.1 1.4.7.3v.4l.3-.1v-.4l-.6-1-.3-1 .2-1.3v-.6l-.2-.3-.1-.5.1-.4-.7-.4-.1-.2-.5-.1-.2-.5.4-.9h.3l.5-.3.6-.8v-.5l.3-1.6v-1l.4-.1.4-.5.6-.8.5-.8v-3.1l.1-.7.4-.4.2-1 .3-.2v-.1l.2-.2v-.2l-.1-.1-.4.3-.6.2h-.3v.1l-.3.6h-.3v-.2h-.2v-.1h-.3v-.5h-.5l-.3.3-.4-.2-.6-.3-.6-.3h-.2l-.2-.5.1-.2-.1-.2h-1.1l-.2-.7.2-.6.3-.6-.2-.6.1-.2-.2-1h-15.7zm19.5 5.2v.2l-.4.5.1.5v.6l-.3 1.6-.1.2-.5.2-.8-.2-.6-1-1-1 .1-.4.5-.4v-.2l-1-.4-1.3.2-.3-.6.1-.5.2-.1.3-.2h.5l.2-.8.1-.6.3-.3h.2l1 .2h.5l.4.2.5-.5h.2l.6-.2.5.7-.2.7v.5h.2l.1.3zm2.3-3.6v-.2l.2-.2zm-16-5h.3zm0 0" style=""/><path d="m268.5 75.4.3 1 .8.5.4.6.8.7h.4l.1.3.2-.5-.3-.2-.2-.5v-.3l-.4-1-.2-.7-.1-.2h-.3v.4h-.2v-.2l-.1-.3.1-.3h-.5l-.2.3-.6.3zm0 0" style=""/><path d="m290.6 69.7v.1l.8.2.1.3v.4l-.2.3h-.3l-.6-.1h-.2l-.2.6v.4l.7 1 .3.1h.4l.8.3h.2l.3-.3v-.3l.3-.2.5.1.2.2-.1.6.1.4-.2 1.5-.5.4.3.4-.1.4.3 1.1h.1v.4h.1v.6l.3.4.4.5 2.2 1.2.1.1.1.3-.3 1.5-.8 1.6-.3 1.7v.6l-.4.2-.1.8v.1l.5.4h-.5l-.2.6v.2l.3.3v.3l.5.4v-.4l.1-.3.4-.2.3.2.6-1.8v-.3l-.1-.2v-.6h.5l-.3-.5-.5-.3.5-1.4.8-.2v-.6h.5l.2-.4.2-.5v-1.5l-.1-.4-.2-.2v-.2l-.1-.5-2-1.5-.2-.4-.5-.6.2-.8.5-.4v-.8l.3-.5h-.2v-.2l-1-.7-.4-.8-.7-.8h-.6v.2l-.4.1-.1-.2.1-1v-.5l-.3-.6v-.3zm0 0" style=""/><path d="m338.3 57.3-.3.5-.2.1-.3.5v.3l-.4.5-.1 1-.3.1-.3.7-.2 1.2.3.3v.6l.1.6.5 1v.3l1.3 1.3zm0 0" style=""/><path d="m268.5 69.8h15.8l.3-.8.5-.6.5-.4.3-.2.9-1 .4-.2h.2v.4l.3.4h1.1l.2.2.8.8.3.7.5.7h2.4v-.3l.4-.5.6-.2.1-.3.6-.2v-.3l-.2-.7-.5-.5v-.3l-.3-.5-.2-1.2-.5-.5.4-.3-.1-.5-.4-.5-.3-1-.4-.3-.1-.4v-.5l.2-1 .1-.3h.1v-.3h.2v-.5l.3-.1v-.4l.4-.2.5-1 .3-.3.2-.4.4-.3.2-.4v-.6l.1-.9.5-.3.6-.6.2-.4.1-.6.5-.4h.3l.4-.8.8-.3v-.4l.5-.3v-.2l.1-.1v.1l.4-.6h.3l1.1-.5.4-.7.3-.2v-.2l1.2-.4.2-.6 1-.3-.2-.2.2-.2v.4l.5-.1-.2.2v.2l.1-.4.7-.7-.1-.4.4-.8.4.2h.1l.5-.5h.6l.3-.1.9-.2.6-.7.3.5h.4l.2.2h.3l.7-.2.2-.5 1.1-.1.8.1.4-.1h.4l1-.6h.9l.3-.4.6-.6v.1h.4l.8-.9.2-.5-.2-.3.1-.1-.2-.2v-.4l-.4-.4v-.4l.1-.4.6-.3 1 .4 1.7.2.2.4-.2.2-.1.3.6.5.7.2h1.1l.3.1v.2l-.4.5-.7.3-.3.4v.3l-.5 1h.3l.2.7h.6l.7-.6.3-1.1v-.5l.3-.6v-.4h.4l.2 1.5.4.5-.2 1 1 1 .2.8h.2v.2l.2-.1.2.2h.5l.3.4h.4l.2-.3v-.1l-.3-.8-.7-.8-.6-1.3.1-.3.3-.5.7-.7.5-.2h.9l.7.5.8 1.4.2.2.4.1h1l1.2.4 1.2.6.5.3.7 1 1.7 3.5.3 1.8.2.3-.1.2v.3l.5.9.5 1v-53h-69.8zm5.5-1.5.1-.3.1.2h.3v.3zm13.6-5 .1-.4v-.2h.3v.5l-.4.2zm2-3v-.3h.3zm-.9 2.1v-.3l.6-.4h.2l.3.1.1.3h.2l.1.1-.1.3.3.2v.3l-.4.6h-.3l-.3.4h-.8l-.3-1zm2.6 6.2.2-.3.2-.3.4.4h.2l-.1.3v.2l-.3.3-.3-.2zm-2.9-2.3v-.6l.5-.2.6.5.3.4v.6h-1.4l-.1-.5zm1.4-.9v-.2h.6l.7-.4h.3l.3-.4v.3l-.2.2.4.4v.6l.1.5-.2.3v.1h-.2l-.4.3v.4l-.2-.1-.2.1-.5-.2-.1-.3v-.2l.2-.2.1-.4v-.3zm-5.5.7h-.3l.2-.4.2.2zm-1.7-.2v-.2l.1.1zm-1 .1-.1-.1v-.2l.2.1zm.4-.4v-.4.2zm1-.5v-.1.6zm-1.6.2v-.3h.4l.4-.2h.5l.1.2v.2l-.3-.3-.2.3h-.6v.3h-.2zm.1 0" style=""/><path d="m338.3 66.3.1.2h.4l.2.2 1 .3v.3h.5l.2.2 2.6 1.1.7.5.3.4.1.3h4.1l-.2-.3-.1-.6-.3-.1-.2-.5-.6-.6-1-.7-2.5-1.4-.9-.3-.2-.2-.5-.3-2.5-.8-.6-.3v-.4l.4-.1.4-.4v-.6l.2-1 .6-.2.3-.4v-.2h.4l-.2-.2.3-.2.2-.3.8-.5.5-.8.5-.2.7-.5h.3l.4.1v.5l.2.1v.2l.9.4h.2l.8-.3.2-.5h.3l.2.1.6-.2h-.1v-.4l-.5-.4-1-.6-.7-.1-.2-.3v-.2l.4-.8v-.6l-.4-.5-.9-.6-1.4-1.6.4-.6.2-.6.7-.1 1-.8.3-.6v-.4l.4-1.4v-.3l.7-.2h3l.6.2 1 .3.6-.2h1.8l2 .1h.6l.4.3 1.4.2.6-.1.5-.3.1.2.5.3h1l.6.2.5.1v.2l.8.5.8 1 .7.5.2.9-.1.3-.4.2-.1.4v.3h.8l.3-.8v-.3l.3-.2.5.3.6.6.6.8v.7l.3.6.8.5 1 1.2.4.4.2.4 1.2 2.4.5.3.1.6.4.4.1.3h.2v.4h.1l.1.1v-.1l.4.5.4.2.2 1.4.2.2.2.4v.7l.5.7h.3v.3l.8.5.1.3.4.3.2.5.3.2.2.6.3.4v.3l.1.3.3.8h2.3v-.2l-.4-.6v-.2l-.4-1-.2-.8-.7-1.2-1-1.5-.3-.3-.8-1v-.5l.2-.2v-.3h-.1l-.1-.7-.2-.2v-.5l-.6-.6-.3-1 .1-.7v-1.8l.4-.5h1l1.6-.3v.1l.6.2.4.2.6-.1h.6l.2-.1.3.1h.3l.8.1h1.2l1.4.2h1.8l.4-.4.8-.5.3.2.7.5.3.1.4.7-.3 1 .4 1.3.3.5.2.4-.2.6v.4l1.4 2.8v.4l.4 1.2.2.4-.2.6.3.4.2.2v.2l.2.7.3.4h.1v.3l.4.2v.2l.2.4v.2h2.3v-.2l-.3-.6-1-1.6-.5-1.4.1-.3-.1-.4v-1.1l-.5-1.5-.6-1.3-.4-1-.1-1.8.3-1.8.5-.1h2.7l2 2 1 1.7.3.9.2 1.1v1.7l.1.3v1.6l.2.4-.2 2v1.4h2.6l-.2-.3.2-.6v-1.6l.3-.8-.3-.4.2-.4-.2-.2.2-.5v-1.2l.2-.4v-.4l-.3-1.8-.1-.8-.1-.2-.1-.7-.7-.5-.5-.7v-.5l.1-.7-.1-.5-.8-.9h-.8l-.1-.3v-.7l-.8-1-.2-.3-.7-.4v-.2l-.8-.4-.5-.1h-.5l-.1-.3-.4-.2h-.1l-.2.3h-.4v.2l-.2-.3-.2.1v-.1l-.4.3h.2l-.2.3-.2.1-.4-.1-.2.2.1-.2v-.4l.2-.3v-.2h-.4v-.3l-.6.5h-.1v.3h-.2l.5-1.2-.2-.3h-1.6l-.5-.4-1.4.1-.3-.1-.2-.2h-.5l-.3-.3h-.4l-1-.2h-.6l-.7-.3-.3-.3h-.4l-.2-.2h-.3l-.4-.1h-.4l-.1-.1h-1.1l-.1.4h-.5l-.2-.2-.2-.4h-1.8l-2.6-1.2-.8-.7-.2-.6v-.4l-.4-.3-.6-.2h.4v-.1l-.5-.4-.3-.2v-.2h-.6v-.2l-.6-.5h-.2v-.2l-.6-.4-.4-.6h-.3v-.4l-.5-.1h-.1l-.2-.4-.5-.4h-.6l-.6-.7-.1-.2v-.4l.7-1.1-.2.1-.2-.3v-.3h-.4l-.3-.4-.4.6-.5.2-.5.4-.3.2h-1l-.3-.2-.8-.3h-.3l-.2-.1-.7-.2-1.3-.6-1-.3-1.3-.5v-.1l-.7.3h-.7l-.5-.7h-.7l-.5-.1h-.3l-.1-.2h-.6l-.3-.4h-.3l-.4-.2-1.1-.8h-.6l-.1-.6-.8-.7-.5-.8-.5-.8-.2-.2v-.2l-.6-1-.2-.6-.4-1.6v-.8l-.5-.7v-.5l-.2-1.7-.3-1-.2-.4v-.5l-.3-.7v-.7l-.6-1v-1.7l.3-.7.5-.9 1.7-.7 2 .1 1-.7h.3l.1-.3.1.5.1-.2.9-.3.5.4h.3l.3-.2 1-.4.1.4.6.3 1 .1.3.2 1.4-.3h.5l.2-.5.3-.1.6.1h.3l.3.1 1.2-.3h1.7l2-.6 1.6-.4 1.7-.4h.1l.1-.1h.2l.2.2h.1l1.4-.3h2.5l.9.3h.5l.2.1h1l.7.2h.7-.1v-.2h.4l-.3-1v-.3l.6-1.6.2-.2.5.1.4-.8 1.1-.5-.1-.6-.4-.6.4.1.3-.6.2-.3h-.4l-.3.4h-.5l-.3-.8-.1-.3.1-.2h1.3l.4.3.2.3h.4l.4-.7.5-.5h.6l.6-.1.4.1.5-.2v-1l-.7-.2v-.4h.2v-.3l-.1-.1-.1-.3-.3-.1-.1.2h-.3v.6l-.2.2h-.3l-.1-.7v-1.3l.9.6v-.6l-.2-.6h-.7v-.3l-.3-.2h-.7l-.2-.3-.1-.1v-.5l-.4-.4h-43v53l.2.1.2 1 .4.6v.1l.1.4.3.4h.3l.2-.1h.2v.4l-.5.2-.7.9-.7.3zm0 0" style=""/><path d="m344.4 69.7v.3l.7.5v.3l.8.4v.2h.1l.4.5v.1l.4.5.8.9.4 1 .2 1.6h.5l.9.2.6-.3v-1.3l-.1-1.6-.2-1-.4-.3v-.3l-.2-.2v-.6l-.6-.8h-.2zm0 0" style=""/><path d="m377.5 69.7v.3l.5.1v.9l.2.7.5 1.2v.1h.2v.7l.4.2.2.6.5.5.6.8.8.5v.3l.7.9.6 1.4v3.2l.3.2.5-.2h.3l.3.1v-.7l.4-.4v-2.1l-.5-1.5-.4-1.1-1-1.4h-.5l-.3-.8-.5-.4v-.1l-.5-1-.6-1.3-.4-1.7zm0 0" style=""/><path d="m393 69.7v.3l.5.2.1 1 .6 1h.2v.3l.4 1h1l.4.5.1.3.2.2v.2l-.2.4v.7l.3.2-.1.1.1.2v.1l.5.7.6.5.5.7.5.5.8-.5.2-.1h-.1l.1-.2h.3v-.4l-1.4-1-.4-.8-.9-.9-1-1.9-.3-1.4-.2-.2-.2-.9-.4-.5.1-.3zm0 0" style=""/><path d="m399 69.7v1.3l.3 2.4.4 1.3 1 1.8.8.6 1.9.4h.6l.7-.3v-.1l-.2-1.9-.2-.4.1-.2-.2-.4-1-.2-.8-.7-.4-1.3-.2-.1v-.4l.1-.3-.2-.9v-.2l-.1-.4zm0 0" style=""/><path d="m477.8 35 .5.4v.1l-.3.3.5.7.4.1v-.2h.8l.3.2.7.4.3.3.2.3.8.3v.2l.6.4v.2l.4-.1.3.6h.3v.2l.4.1.7.2.2.2.9.5v.4l-.3.2v.5l.8.3.4-.1.3.3.6 1.2.9 1 .3.5.9.6.6.7.3.5h.4l.4.5h.1l.5.7.3.1h.2l.1.2h.2l.2.2 1 .4.2.4.3.3.5.5.3.2v.7l.2.1v.3l.7.3.5.7h.3v.4l.3.3.3.2v.2h.4v.2l.3.1v.3l.7.8.6-.1.2.1.2.7.4.4.6.2.3.1h.7l1 1.1.7.3.7-.1 1.6-.3.8.3.3.2.4-.1.6.3v.3-.2l.6.2v.1h.2v.1l-.2.1v.3l.5.4h.7l.8-.2.3.3.7.5.6-.4.4-.5h.7v.3l.4.6v.4l.2.2h.4l.8-.2h.2l.6.6-.4 1 .2.7h.1v.3l.5.8v.8l.3.6.3 1 .2.5.6.1.4.2.2.6v.6l.2 1 .4.5v.5h8.5l-.5-.1v-1.1l-.3-.2-.7-.4-1.2-1.1-.1-.3-.4-.2-.1-.5.3-.5-.2-.2v-.4h-.1l-.2-.5h-.3v-.8l-.2-.3-.2-1.2-.5-.3v-.4l-.1-.6-.5-.4v-.3l-.4-.4-1-2-.3-.6h-.4l.3-.6.2-.4.2-.3h.5l.7-.7h.5l.6-.9v-.3l-.1-.2-.2-.4v-.7l.1-.2-1-.3h-.7l-.6-.4h-1.3l-.3-.2v-.2h-.4l-.6-.2h-.7l-.5.2-.6-.2-.3.1-.6-.1h-.7l-.7.3h-.4l-.5-.3-.4-.7-.8-.2h-1l-.6-.3-.2-.2-.4-.2h-.4l-.2.2-.6-.3h-1.1l-.4-.4-.1-.3-1.9-.7h-.2l-.3.1h-.5l-.4-.4v-.8l-.5-.3-.4-.4-.4-.2h-.1l-1.1-.3-.1-.6.1-.3v-.2l-.9-.3-.2-.3-.1-.3h-.2v-.8l-1.1-.6-.8-.6-.4-.6-.8-.7-.3-.3h-.2l-.3-.2-.7-.2-.5-.2.2-.7-.3-.7v-.2l-.4-.7v-.5l-.5-.4v-.7l-.4-.9.2-.2.5-.4 1.2-.3-.1-.3-.2.2-.2-.1h-.3v-1.7l-.2.2h-.2v-.4l.2-.2-.1-.1-.1-.9.2.2.6-1.1.6-.5.1.2.1-.2.2.1.2-.2.3.1 1.4-.6-.4-.4.3-.3-.5-.2-.9.2h-.3l-.2.3h-.7l-.2-.2-1.1.2-1.1-.3h-3.1l-.6.1h-.2l-.1-.2h-.4v-.1l-.4-.1-1.2-.9-.6.1-1-.9-1.2-.3-.6-.5-.6-.3-.6-.7-.3-.1v-.3h-.4l-.5-.6-1.4-.8-.8-1v-.4l-.2-.5-.4-.5zm0 0" style=""/><path d="m477.8 56.4.7.6v.5l.2.3.4.3.5-.1.2-.3h.1l.1-.3v-.8l-.6-.5-.5-1.1-.5-.4-.6-.5zm0 0" style=""/><path d="m430.6 0 .7 1.3.4.4.3 1 .8 1.4.5 1.3.4.4v.1l-.1.3.3.3.1.8.3.2.4.2v.3l.3.6v.6h-.4v.3h-.3l-.1.5-.2.6v1.1l.6 1.4v1.7l.6 2.3 1.3 1.5 1.5.9v1h.2l.1-.4h.2l.2.9.4.5.2.1.7.7.2.1.7 1 .8.6.3.1.7 1.2h.2l.1.5h.3l-.2 1 .3 1.5.6 2.5v.5l.2.4v.4l.4.5.2 1v1.6l-.1.4.1.8-.3.7-.2 1.6-.7 1.6v.4l-1.6 1.9-.4.5h-.3l-1 .9v.4l-.1.2h-.5l-.2.9.2-.5.3-.2v1.7l.3.5h.5l.8-.3 1-.5.4-.5h1v-.3l.5-.2.8-.7 1-1.2v-.4h.5l.5-.9h.5l1 .8 1.2.5h.8l.4.1 2 .1h2.9l.4.1h1.2l.3.1h.3v.1h1l.1.2h.6l.3-.3.7.3v.2h1l.4.2.3-.1.3.2.3-.1.4.2h1l.5.3h.3l1 1.1.3.2.4.4.1.6.4.4.1.3v.3l.6.6h.1l.5.3h.8l1 .2.2.1.7.6.8.4.4.7.1.8v.8h.7l1 1 1.7.8 1 1.5.5.4v-2.3l-.8-1.1-.4-.1-.5-.4-.6-.2-.2-.2-1-.2-.5-.8-.9-.1-1.7-1.6-.1-.5v-.5l-.1-.3-.5-.6-.1-1-.3-.2-.5-1.3-.2-.7.1-.4-.2-.8-.3-.4-.5-.3-1.4-1-1-.6h-.5l-.4-.1h-.3l-.5-.1h-.8l-2.1-.3h-2.1l-.5-.3-.4.2-.4-.2-1 .1-.4-.3-.5.1-.3-.2-.7.1-.2-.1-1 .1-.3-.1-.5.1-.3-.3-1-.2-.5-.2-.2-.4-.3-1-.2-2.7-.2-.9.1-1-.3-1.4-.2-1.6-.5-1.3-.2-1.6-.2-.5-.3-.4-.5-.3v-.4l-.1-.3.2-.3v-1.2l-.9-1-.3-.6h-.4l-.2-.4-.2-.3h-.4l-.2-.3v-.2l-.5-.6-.4-.4-.1-1-.4-.3-.4-.3-.8-.4v-.3l-.7-.7-.1-.6-.3-.2.3-2v-.6l-.2-.3.1-.7v-1.4l-.1-.5v-2.6l.4-1.4v-.6l.3-1.8.4-.2.6-.1h.9l1.5.3.6.2.3-.1.4.2.4-.3h.5l.3.2v.2l.6.3h.9l1.4.1.4 1 .3.2.4.8 1.2.6.5.8.3.2.6.5.3.6.1.3h.6v.5l1 1.4.4.3.3.4 1 .3.2.4.4.2.1.4v1.7l.2.8.3.5.1.3 1 2 .6.7.8 1h.2l.6.7.3.3h.1l1.1 1.7.4.4 1.5 1.4 1 .7.7.7.7.6.6.8.9.7 1.8 2 1.9 1.9 2 1.6.8.3.2.2v-15.3l-.2-.2-.6-.4-.4-.6-.7-.5-.4-.2h-.3l-1.1-1.3-.5-.1-.3-.4-.4-.2.1-.2h-.2v-.2l-.4.7-.2-.3v-.6l-.2-.2h-.6l-.2-.6v-.2l-.2-.1v-.4l-.1-.1-.5-.1h-.1l-.6-.5.4-.6-.2-.7.1-.3h.3v-.5l-.6-.4-.1.2-.3-.2v-.6l-.5-.5-.4-.3-.3-.5-.8-.5v-.3l-.3-.2-.2-.6-.6-.8-1-.8-.6-.2v-.3l-.5-.3-.3-.6-1.8-2.1-.2-.1-.3-.3-.9-.9-.3-.1-.3-.5zm0 0" style=""/><path d="m408-13.1h.8v.8l.2.3-.2 1-.4.4v.3l.2.5-.2.8.2.3.8.2.6-.2.4-.5.2-.5h.3l1.1-.7h.6l.1-.3h.7l.8.2h.2l.1-.3h.2l.4-.4v-.2h.2l.8-.4h1.3v.8l.7.6.5.1.5-.3h.5l.3.1 1.1.5.4.4.6.2.4 1v.6l.3.4v-.2l.3.1 1.2-.6.8.3v.1h.3l.5.3.2.4.5 1 .2.3.3.2.5.8v.3l1.8 1.8.1.7.7.7.6 1.2h29.3-.2l-.2-.5-.8-.6-1.1-1.6-.3-.2h-.2l-.4-.1-.6-.7h-.2l-.2-.1-.4-.6-.1-.3-.3-.2-.5-.9-1-1-.8-.3-.5-1-.3-.8-.2-.7-.2-.4-.1-.6-.4-.4.2-.5-.2-.3-.1-.4v-.8l-.2-.3-.2-1.1.1-.6-.2-.1-.2-.6v-.5l.5-.3-.1-.6.4-.5.2-.4 1-.6.7-.9.6-.2.4-.6.3-.2.3-.3.4-.2.1-.5h.3v-.5l-.8-.5-.3-.2-.6-.1.2-.2.2-.6-.3-.4.3-.3v-.1l-.7-.6-.3-.4v-1.1h-.4v-.2l-.2-.3.3-1.6.2-.4.1-.7v-.7l.3-.1.1-1.5.7-1.3v-.3l-.1-.4.2-.4.4-.8.4-.3 1.7-.5h2.9v-.1l.5-.1h1.6l.3.1h.2l1 .5.4-.1h.1v.3h.7l.2.1 1-.2.1.2.3.3h.3v.6h.4l.1-.3.7-.2-.2-.1.2-1.1.2-.5h.3l.3.4v.4l-.3.3v.5h1l.2.6.3.2.5.2h1l1-.1 1 .1.2.4.5.3.5.1h.4l.2.1.4.1.3-.4.3-.2v.1l.4.2.2-.2.2.1.6-.1.2-.6.4-.4v-2.6l-.6-.2-.2-.3-.5.4h-.3l-.4-.9-.8-.8-.8-.4h-.2v-.2h-.3l-.3-.3-.8-.2h-.3l-.3-.3-.3-.1-.7-.4-.3-.2-.7-.3-.5-.7h-.2l-.5-.5-.2-.2-1.3-1.3-.6-.3-.3-.2-.4-.6v-.7l-.3-.3-1-.3-1.9-1.4-.4-.2v-.4l-.5-.2-.6-.8-.3-.1-.1-.5.3-2-.8-1-.9-1-.4-.2-.1-.4v-.4l-.7-.4-.3-.9v-3.1l.4-1.6v-.6l.1-.7.4-.6 1.1-1.5v-1l.3-1 .3-.2.4-.4.5-.3.3-.4.9-.2.7-.5h1l.9.4h.9l.5.1.3.6 1.1.1 1 .3.5.3 1 .3.9.8.5-.3h.6l1.3.8.8 1.5h.1l.6-.3v.5l.5.2.1-.2h.8l.5.7.4.4h.1v-7.5h-69.8zm1.7 2.8-.1-.2.2-.4v-.4l-.1-.3v-.1l.7.5-.6 1 .2.2h-.2zm61.8-24.7-1.3-.8-.3-.5.1-.5.4-.4.6-.2h.2l.2.7v.3l.2.6-.2.3.2.5zm-19.7 12v-.2l.2.2zm0-.3.2-.2v-.1l.1.2.4.2h.1v-.4l.4.5v.1h-1zm.1 0" style=""/><path d="m302.6 139.5.3-.2 4.4.2 2-.9 6.1-.6.3-1 6-.5-1.2-1.2-6.5.3-3.6-1 1.4-2.2-2.6-1.2-2.6 1.8-3.1 1.7-4.5.6-3.3 1.5-2.9 2-.7.8zm0 0" style=""/><path d="m268.5 131.6.5.6h.6l.5-.6.8.3 1.1-2.9.4-1.8 2-1.7 1.5-1 .1 1.3.5.2.8-1.4.7.9h1.5l.7-1.3.3-.7.2-1-.7-.9-.8.2-1.4.5-.6-.4-.7-1.4-.8.6-2.5.3-1.1-.2-.8.4-1.3 1.4-1.2 1h-.3zm0 0" style=""/><path d="m268.5 121.5 2.2-2.2v-.6l-1.5-.2-.2-1.2h-.2l-.3.3zm0 0" style=""/><path d="m268.6 117.7-1.9.7v-.7l-.2-1.4-.8-1.1v-1.4l-.7-.8.4-.8.6-1.8-1-.7-.5.3h-1.3v-1l-.2-.7-1.2 1.3-1 1.6.2.2.5-.4h.4l.3.7-.2 1.6-.6 2.1.3 1.6v1.2l1.3.6v1.2h-.7l-1-1.3-.3-1-.8-.2-1.4-1-1.1.2-1-.7.3-1h1.4l.3-.6-.6-.7-1-.2-.7.7-.4.8-.8-.5-.5.5-2-.3-.5-1.5-.5-.1.2 2-.5.9.6 1.8-1.7 3.4-2 1-.3 1.3-1-.5-.6-1.5-.5.9.3 1.3.1 3.4-.7 1.7.2 2.6.2 1.8-1.4.8-1 1.5-.3 2-.8-1.4.2-1v-.9l-.9-.5-.1.3-.5.1-.6 1.1-.6.2-.7.8.2.8h-1.2l-1.4 1.1-2.2 1.5h26.7l.4-.3v-.7l.3-1.1 1.3-.2.8-1 .4-1.2.8-1.6 1.6-2h1.5v.1-7.6h-.5l-.4-1 .7-1.2.3-.3zm-15 2.3v-.2h.4v.2zm.8-.7.6-.2 1.2-.4-.2.8-.8.4-.8-.2zm0 0" style=""/><path d="m198.8 139.5h34.7l.8-2.5h1.3l.3-.7-.2-1h-1.2l-.5-2.3.3-1v-1l-.7-1.1.4-1.4.2-1.1-.5-.6-1.2.3-1.5-.1-1.5-.8-1-.8-.4-1.2-1.7-.6-.7.4-1.7-.8h-1.1v.6h-1v-2.2l-.5-2.1 1-1 .6.5.4-.7-.7-.5-.9-1.2v-.8l.4-1 1.4-.4.8 1.3v1.6l.8-2.8-.2-.5v-.4l1-.7.8-.3 1.1-1.2-1.3-.8v-2l.3-1.5.5-.7-.4-.9.3-1.8 1.3-.7 2.9 2 1-1.2-1.5-.8.3-1.6.1-1.2.5-.3.5-.4v-.3l.3-.4.3-1v-.6l.3-.1h.2l.5.2h.2l.3.5-.1.2.4.5.2-.2h.4l.2-.3-.1-.2-.5-.3v-.7l.3-.7.6.4.8.9.7.6.1.3h-.3v.1l.8 1.6h1.2l-.2-.3-.5-.2v-.5l.4-.1h.4l.4.3v.3l.5.1.3-.4.5-1.2h1.3v.6l-.6.5v.2h.3l.6.3.9-.6v-.1l1 .2.3-.2v-.2l-.7-.5v-.4l-.4-.4h-.5l-1-.2.3-.6-.2-.3-.3.1v-.9l-.1-.7-.3-.6-.6-1-.3-.8.3-.1-.2-.2v-1l1.4-1.2.2-.8.1-.7.3-.4.2-.3.4-.8.3-.1.5-.3 1.8.1h.4l.1-.2h.2l1-.8v-.2l.5-.2 1.2-.2.3-.2v-.3h.4l.5.3.4-.3.7.7v.2l.2.2.1.4.1-.4.3-.3h.6v-.1l.3-.4-.6-.8v-.8l.5-.4-.2-.6.3-.6.4-.2h.2l.5-.8v-3.1h.7l.3.2h.2l.4.3h.4l.6-.3.7-.4h1.2l.2-.7h.8l.3.1h.1v-.3l1.7-1.1h.8v-.2l.2-.1h1l.3-.1.2.2h.5v.2h.4l.1.2h.1l.4.2h.8l.3.3.9-.2.2-.5h.4-.2l-.1-.3v-.5l-.3-.5v-.3l.4-.2.2.1v-3.9h-11.6v.3-.3h-1.3l1 1.8-.2.9-.5-.4-.6.2-.2.4-.4 1v1.4h-.1l-.4-.2.1-.4-.1-.2.1-.2v-.3l.1-.6-.3-1v.3l-.4-.6-.2-.2-.6.3-.2-.2-.4.1h-.3v-.1l.4-.3v.1l.3-.3v-.2h.1v-.2h.2v-.2h.2l-.2-.6h.1-.2v-.4h-54.1zm33.1-41 .4-.1v.2zm.8 38.5.3-.1v.3l.3.3-.3.3-.4.4v.2l-.3.1-.2-.3.1-.4.3-.4-.1-.3zm-1.2-8.6.2.3-.7.7-.2 1.3.2 1.2-.8 2.2-1 1.2-1.9.4h-1.2l-1.3-.4-.8-.9v-2.9l-1.2-2.2-.6-.5-.5-1.1v-1l.5-.7.8-.5.3-.7h.8l.7-.5v1l1 .2.6-.5v.7l1.5 1.7 2.2.8zm21.7-51.3v-.4l.1.5zm3.6-.4-.3-.2v-.2l.5.1v.3zm-6.1-2.9h-.1v-.2.2zm-.2-.3v-.2zm15.5-.5v-.4.2zm-2.8-.5-.1-.2-.1-.6v-.2l.3.2.1.3zm-12.7-1.3.1-.2zm0-.8-.1-.2.4-.2v.2zm7.7 4.2h-.2v-.3h.7l.3.2v.3l-.3-.2h-.2zm-6-.5h-.2v-.1h.2zm-1.2-.3v-.3l.2.3zm6.4 3v-.6l.5-.1.3.3-.2-.2h-.3l-.2.3zm-2.4-.7.2-.1v.2zm1.5 0v-.3h.1v.2zm1.7-.1h-.2l.4-.4h.1zm1.6-.4v-.6h.3v.3zm0-.1" style=""/><path d="m129 139.5h69.9v-69.8h-69.8zm0 0" style=""/><path d="m59.3 139.5h69.8v-69.8h-69.8zm0 0" style=""/><path d="m-10.4 139.5h69.7v-69.8h-69.7zm0 0" style=""/><path d="m408 335h1.8l.4.1.9-.4.4.3 3.9.1 1 .7h1.3l3.3 1.5 2.2 1.6 2.3 1.7.7.8.2.5.7.7.7 1.4.6.3v.6l.6.4v1l.8.3.4 1.2.5 1h18.7l-1.6-3.1-.5-1.7-.7-1.4-.6-.6-.8-1.5v-.4l-.5-1.2-1-2.3-.9-1.7-1.3-1.9-1.3-1.1-1.2-.7v-.7l-1.7-3.5 2.3-1.7 1.6-.5 1.4-.2 1.5-.3 1.6-.7.6-.6 1.7-.9.7.2h1.3l1-.4 2-.2.8-.5h1.5l.7-.5h.4l.5-.3 2.4-1.7h1l1-.7 1.2-.3 1.2-.1 1-.8h.6l.5-.4.5-.2h1l1 .6 1.2.4.5-.2.6-.6h.7l.4-.4h1.8l.7-.8.9-.2 2.6-1h.2v-28.5l-.9.4-3.7 1.4v-.3l-1.1.6-.2-.3-.9.4-.3-.1-.8.4-.7.2-.7.6-.8.1-1.1-.3-.7.2-.4.5-.7.3-1 .6-2.3.8-.8.4h-.6l-1 .2-.4.6h-.4l-.2-.2-1.3.5h-2.1l-1.2.5-1 .4-5.1 1.1-.6.4h-.5l-.7.1h-.7l-1.7.2h-1.3l-2.6-.2-.6-.4-.2-.6v-1.2l-.6-1.1.6-2-.1-.7.4-2-.2-.4v-.3l.3-.4.3-1.4-.3-.5.6-.5.1-.7.5-.7v-.5l-.1-.6.1-.5v-.4l.1-.6.7-.3h1.6l.1-.2h-17.5l.2 1.5v1l.6.8-.7 1-.3.3-.2.4-.3 3.5-.7 2.5v.4l-.9 2.6.1 1.1-.4.7-1 .2-.8.7-1.2.5-1 .2-1.1-.4h-.9l-1.1-.8-.6.4-.2.4-.7.3-.1.6-1 1.1-.5.1-.7.2-1 .2-1 .3-1.2.2-.5.3v-.2zm0 0" style=""/><path d="m442.7 279 .7-.7 1-1.3.6-1 .7-.7.3-.7.5-.9.7-.7h.6l1.6.1 1.4-.7.2-.4.3-.3h.5l.4-.5.4-.2.4-.5.9-.4h.4l.2-.6.5-.1.6-.8h.4l.6.2h.4l1.1.2h.4l.7-.4 1.4.2h.4l.5-.7h.3l1-.7.2-.4h.4l.9-1.4 1-.4.1-.4-.1-.7.2-.5.4-.2h.6v-.5l.3-.2h.2l.7-1.1.8-.4-.3-1.1.2-.6.3-.2h1l.3-.3v-1l.3-.2-.3-1 .3-.5h.3l.2-.6h.6l.4-.6 1.2-1 .4-1.4-.1-.1h-.6l-.1-.6-.6-.4h-.5l-.3.4h-.9l-.4-.3v-.7l.3-.3-.6.3-.5-.4-.2-.8-.9.2-.2.5h-.5l-1 1-.5.7-1.6 1.3-.7 1.3-.4.2-.7.6-.5.2-.4.4-.1.5-.8.3-.2.4-.5.2-.6.4-.6.2-1.9 1.3-.4.1-.4.7-1.3 1 .1 1.2-.1.4-.4.1-.3 1-.2.3-.8-.1-.7.2-.9.9h-.4l-.2.1-.4.1-.4.5h-.7l-.3.6h-.8l-.4.4-1 .1-.1.2-1.3.2-.1.3.1.4-.2.4-.4.2-1-.5h-.2l-1.7 1.2-.3.5-1.6 1-.2.3-.6.4-1.2.5h-.4l-1 .4h-.4l-.2.7-2.1.8-.6-.1-1.6-3.1-.9-.3h-.8l-.7-.2-.3-.4v-1l.1-.4.6-.4.3-.4-.5-1-.3-.9-.4-.5h-.5l-.3-.4.2-.6 1-.7 2.6-.6.2-.3h.9l.3-.3h.5l.5-.9h.2l.1-.9.5-.7.5-.4.2-.8h.6l.5-1.3.4-.2.4-.5.3-1.1-.4-.1v-.6l.2-.1.3.1.3-.3.4-.9.4-.1.2-.4.4-.1.3-.8v-1l-.6-.4-.6.4-.8-.1-.5-.4-.3-.7-.2-.2v-.4l-.3-.1-.3.9-.7 1.2-.2.9-.7.4v.9l-1.1.9-.2.6.2.7-.7.8-1.6.6-.3.6v.4l-.5.4h-.5l-.5.6-.5.1-.8 1-.5.5-.7.6-.1 1.4-.3.2h-.7l-.2.4-1.1 1.1-.3.6-1 .3-.4.4v.6l.4 1.4v.4l-.4.3v.4l.3.2v1.7h-.3v.7l.3.9.4.3.5.4v.4l-.5.3-.1.7.4 1.1v.6l.5.4.2.5v.6l.5 1.1zm14.9-15.5.8-1.5.6-.8.8-.5.6-.2 2.4.5-.1.6-.9.4h-.7l-.3.3h-.4l-.7 1.1-.7.1-.7.2zm-15.2 13.2v-.3h.4v.2zm-7.4.7v-.8l.6-.3.4-.3v-.5h.5l.1.2-.3.2v.9l-.6.2zm-8.7-10.2.4-.2v-.2h.4l.1.2-.1.3h-.3l-.2.2zm32.7-2.2v.4l-.2.1v-.2zm-.1 0" style=""/><path d="m429.6 209.3v-.4l.6-.5 1.2-.4h2l1.5-.7 1.9-.5.2-.4.3-.2h.3l.2-.3v-.7l.4-.2.5-.4.7-.2.6.3.3.3h.7l.2-.3.3-.4h.5l.6 1.1h.4l.2-.6h.4l3.1-.4.4-.3.9.1 1.6-.2.2-.6v-.7l-.5-.9-.3-.6.1-.1 1.5-.2.2-.7h.4l.3-.4.3.2.5-.4 1.2 1 .1.4.5.2.5.5h.2l1.6-.4h.7l.2-.1-.4-.5v-.3l-1.9-.2.8-.6.2-.5-1.3.2.3-.3.9-.3.5.3 1.6-.4v-1l.1-.7.6-.8-1.7.1-.4.6h-.3l-.2.5h-.5l-.4-.2-.6.4-.7.2-.3-.3-.3.2-.3-.2h-.3l-1.4-.7-2 .6h-1.9l-.7.2-.7.4v.5l-.3.4-1.7.4-1-.3-.5.1-.5.3-1 .4-.3.4-.5.3-1.8.3-.6.3-.6.2-.5 1.1-.7-.3h-.6l-.5.6-.5.3-.6-.3-.2.2.1.7-.2.5.5.3h.5l.5-.3.2.1-.4.5h-1.1l-.5-.4-.4-.7-.8-.2h-.3l-.3-.3h-.6l-.7 1-.5.1h-1.6l-.6.6-.3.5-.4.3-1.8.2-1.8 1-.4.3-.9.5h-2l-1.2.3-2.9.4-1.5.4-.2.3v.4zm0 0" style=""/><path d="m408 217.3 2.1-.8.6-.1.6-.4.3-.5.6-.3h1.7l.5-.3 1-.5 1.1-.7 1 .6.5.2h1.1l.1-.3h.5l.5-.5.4.3.3-.8 1 .1 1.1-.3h.4l.6-1h.6l.7-.1.2-.4.5-.5.8.2.2-.3h.4l.3.5.3-.5v-.4l.7-.4v.4l.8-.5v-.8h-15.5v.2l-.3.4-.5.2h-1l-.4-.2-.4-.6h-2.7l-.7.3zm5-3.4.2-.9.6.3h.5l.1.6-1 .2zm0 .1" style=""/><path d="m411.4 209.3-.4-.7h-1l-.6.4-.8.3zm0 0" style=""/><path d="m268.5 186.4.8-.2.7-.6.3-.8.3-.6.8.6.4.4 1 .4.5-.4.2-.4.2-.4 1-.1.2.5.5.9.8.8.6 1 .8 1 1.2.7 1.1.3h1.7l1 .6 1-.2 1-.4h.7l1.3-.7 2.2-.4.2-1.6 1.2-.4.8-1 1.2-.4.3-1.4-.8-.3h-.7l-.7.6-2.3 1.1h-.3l-.8 1-1-1.1-.7-.8-1.2-.9-.9-1.7-.1-.2-.4-.5-1.6-1.2-1-.6-1.2-.6-1.2-.4-1.6-1.6-.8.5-.5-.9-1.4-.5h-1l-.5-1.2-.6-1.7-.8-1.1v-.8l.3-.8.5-.5 1.2-.4 3.4-1.5 2.2-.3 1.5-.7h1.2v-.9l1.1-1 .9-1.6 1.7-2.1.3-.9 1-1.1.5-1 .8-.8.6-1.2 1-.5 2.8-2.2 1.6-1.5.6-1.2 1-.9h.4l.7.6 1.1.8h.7l.1.2.6.3 1-.6.4-.9-2.1-.2-1.1-2v-2.6l1.3-1.9 2.3-2.3 2.6-1.5h-10.5l-.5.5-1.4 1-.4.9-.8.1-1 1-3 2.4-.3.6-2 .5-.9.5-.4.7-.8.3-.6 1h-.6l-.4.7-.9.5-.1.6-.6.5-1.6 1-.5.6-.4 1.3-.6.6-.7.4-1.8.6-.6.4-1 .3-.8.6-.7 1.1h-.2zm0 0" style=""/><path d="m370 209.3v-1.3l.6-1.2 5.2-7 .2-.4.4-.2.7-.6.7-.9.3-.6.4-.2.5-.7.3-.2.3-.5.1-.5.6-.7h.6l.6-.7.3-.6 1.3-.4v-.6h.6v-1l.6-.6.5-.4.3-.2.4.2.3-.2.2-.5.7-.1 1.3-1.6h.3l.8-.6.7-.2.9-.8.5-.5.2-.5.8-.2.6-.5.7-.1 2.5-1.5v-.4l.4-.2h.5l.3-.4v-.4l-.2-.3-.2-.8-.4-.6-.8-.6-.8-.4v-.6l.7-.8.3-.7-.2-.5-.7-.2-.5-.8-.7-.3-1 .6-.2.3h-.3l-1.2 1-1.3.6-1.4.6-4.3 1.6-1 .6-1.4 1-2 1.8v.4l-1 .5h-1.5l-.8.9h-.6l-.7.2v.2l-.7.5-.3.6-.2.6-.2.3-1 .4-.2.3-1 .2h-.5l-.6-.2-.9.6.2.1-.2.6h-.6l-.1.3v.2l-.5.8-.8.4v.4l-.4.3-.6.6v.7l-.7.6v.6l-.7.3v.8l-.4.2-.6 1.3-2 2.9v.3l-.2 1-.4.7-.8.9-.3.7-.7.5-.3-.5h-.3l-.4.4-.2.7-.9.7-1.3.6h-.5l-1.9.8h-.6l-.5-.3-.7.3-1-.2-.7.1-.5.1-.2.3h-.3l-.9.5h-.8l-.6.7-.2-.3h-.4l-.2.2h-1.4l-.4.3-.2.5-.2.4-.5.5zm.3-20h-.3l-.1-.3.2-.2h.2v.2zm0 0" style=""/><path d="m408 209.5-1.4.5h-.6l-.5.4-1.4.2-.2.3h-.7l-.5-.2-.6.4-1.1-.2-1 .6-.2-.2-2.1.6-1.7-.1-3.3 1.2-.5.5-2.3 1-.6.4-.3.5-.6.4h-.3v.4h-.4l-.2-.2h-.5v.1l-1 .1-1.3-.5-.8.4h-.3l-.2.6-.8-.4v-.4l.3-.1v-.4l.4-.4-.3-.5-1.7.5-.8.4-3 1.2-1.5.2-.2.4-.4 1.2-.8.8-2 1.6-.3.4-.1.1-.3.7-.3.1h-.5l-.4.5-1 .6-.7.6-.3.5-.3.7-.4.5-.8.6-.1.8-.5.3-.2.3v.7l-.4.3-.5.1-.8.5v.5l-.5.7-.4.2-.5 1-.3 2.7-1-.1v.4l-.7.5-.7 1.7-.3.3-1 2-.6 1.1v.7l.1.2v.4l-.8 1.3-.2.5-.8 1-.3.9-.2.7-.5.5v.7l-1.1 1.9-.9.5v.5l-.6.3v.4l.3 1-.2.6-2.3 1.5-.7.6-.4.7v.8l-.6 1 .1.5.4.4-.1.3-.6.2-.8.8-.9 1.2v.4l-.9 1.3-.1.1-.2.4-.5.2-.7 1-.2.4-.7.4-.3.9-.3.2-.2.5v.5l-1 .5-.5 1-.3 1-.1.6.3.8v.6l.8 1v.8l-.3.4-.6.4-.8 1-.3 1.4.3.6h-.4l-.2.7-.4 1.6v.1h12.2l.7-1.1.1-1.1-.3-1.6.3-1 1-.9.6-.7.1-1 .7-1.2.3-.9-.3-.9.1-.6 1.1-1.5.7-1.5.5-.6v-.4l.8-1 .2-.4 1.2-2.1 1-1.5.8-1v-.4l.5-.3 1.7-2.8v-.5l.3-.4.5-1v-.4l1-1.3v-.5l.5-.1 1.3-3 .4-2.1.6-.1v-.7l.3-.6.6-.2.8-1.1.4-.7-.1-.8-.4-.8v-.5l.2.4h.3l.7-1.1.3-.4-.1-.6.4-1.4.5-.7.3-1 .9-1.6 1-1.6 1-1-.2-.5v-.6l.7-.2.2.2 1.3-.1.4-.5.4-.6.2-.2h.5l2.6-1.7 2.4-1 .6-.5.4-.4.3-.2.2-.6v-.6l1.3.8.4-.5.1-1h.6l.3.4.5-.6.9.3.6-.6h.8l.9-.9h.8l.1-.1.6-.2.1-.5-.6-.9 1-.2v-.6l-.4-.3.4-.3h1.1l.6 1.4-.7.6.3.3h.8l.3-.6.5-.1.9.4h1.6l.8-.7.6-.1.4-.2.5-.4h1l1 .2 1.7-.6.7-.2.5-.2 1.4-.5zm-16.6 11.1-.5-.1-.2-.7v-.4l.4-.4h-.4l.5-.4h.2v.4l.4.5v.7zm-.1 0" style=""/><path d="m338.3 227.1.6.2 1.2-.5 1-.8.7-.6.2-.4.7-.7h1l.7.1.5.4h.7l.8-.2.7-.8.5.2 1.2.5.9-.1h.6l.5-.4.3-.4.4-.3.6-.1 1.4-.8.5-.1.8-.8.4-.1 1-1.5.4-.2.1-.7.7-.7.6.2.2-.1h.5l.3-.6v-.9l.4-.1.2-.7h.3v-.7l.4-.2h.3l.7-.6.9-.1 1-.5.5-.5.7-.2.8-.6.4-.4.2-.4.6-.1.6-.6.8.1h1.2l.6.7.6.2.6.2.3.2h.6l.5-.1.3.3h.3v-.2h.5l.2.4h.3v-.8l-.4-.2-.2-.5-.2-.2-.3-.4-1.4-1h-.5l-.8-.4v-.3h-26.5l-.5.8-.7.5-.8.3-.5-.2h-1.2l-.8.5h-.7zm10.2-13.1-.2.4-1 .6-.1.4-1.3.2-.7-.2v-1.4l.5-.2.3-1.3.2-.4.2-.6.3-.5.4-.2.6-.3.4-.9.3-.2 1.2.4v.5l-1 1-.2.5v1.2l-.2.3v.4zm0 0" style=""/><path d="m338.3 348.7h14.5l.2-.9.5-1.4.5-2.6v-1.6l.4-1.3.1-2v-1.2l.4-.7v-.5l.1-1.3.6-2.7-.2-.7.1-.3 1.2-1.9 1.1-1.1.6-.5h.9v.4h1.8l1-.4.3-.4 3.1-.9 1.1-.6 1.1.6 1.1.2 1.5-.3.6-.3h.5l.6.7.1.1h.3l.4.3h.4l.3-.4.3.2h1l.6 1.2.6.4 1 1.7 1.1.9.5.4.8.6 2.3 1.4.8.6 1.7 1.1h2.3l2 .5h.2l.5-.3h.2l1.6.3 1.6-.4h.8l1.3-1h1l.7.4h7l2.1-.2 1.2.2h1.3v-35.8l-.1-.2h-.8l-.4.5-.4-.3h-.7l-.6.4-.3-.3-1 .1-.5-.3-.5.2-.3-.3-.7-.3-.6-.4-.6-1.3h-.5l-.3.3-.2-.3-.4.1-.5.6-.3.6h-.6l-.5.3-1 .1-1 .5-1.4.3-2.3.1h-1l-1 .1h-.6l-1-.3-1.9-.3h-1l-2.1-.5-1.9-1.1-1.4-.5-3.7-.3-.5-.3-.4-.1h-2l-.2-.3-.2-.9v-.5l.6-.6v-1l.6-.6 1-1.5.8-1v-.4l.4-.5-.3-.5.3-.5.6-.7.6-1v-.3l.3-.6h.4l.4-.4 1.2-.1.7-.9v-.4l-1.2.2-.7-.8-.5.6-2.4 1.5-.4.9-.6.4-.4.6v.3l-.2 1-.6.7-.3.3v.7l-.5.2-.5.9.1.6-.6.3-.3.6-.4.7-.5 2-.4 1.1h-1l-1 .3h-1.1l-3.1-1.3-1.8-1-.8-.4-1.6-1.1-1.3-1.6-3.5-1.6-2.2-1.3-1.8-1.4-.3-.3v-.7l.7-1.7.4-1-.1-.7.2-.6v-.4l.4-.5-.2-1 .3-1.1h-12l-.4 1-.6 1.2-.7.6zm0 0" style=""/><path d="m268.5 295.8.5.3.5.9.1 1 .9 1.1-.2.9.4.7 2 1-.2-1 .5-.2.3 1.1-.4 1.5.2 1.3h.2l.1.5.6.4.7.5.4.5v.4l.3.2v.5l.3.6h.3l-.3-.2.1-.3-.1-.5.2-.5-.1-.7.5-1.2.4-.2-.9-1.4-.3.7-.2-.9-.7-1.7-.3-.4-.5-.2-.8-3v-.5l1.2-.5 2.5-.2h.3l1 1 .7-.3v-1.5l.5-1.1 1-.1.5.1.2.6h.7l.8-.4 1.7.4 1 .9 1.3.5 1 1h.5l1.3 2.8 2.8 3.3.3 1 .4 1.5 1 2.7-.4.6-.5.6-.8 1.7.6.6v.6h-.6l-.6.2h-1l-1.6 1.7-.7.9v.8l-.4.4v.5l.3.3h.3l.2.4h.8l.5-.1.4-.6.5-.2h.7l.6.3.7.5v.8l-.1 1.2-1.1 1.7.5.4v1.3h-.9l.1 1 .6.5.2.7.3.9-.5.8-.4.3-.1.5-.6.3-.3 1-.4.3-.8.3h-.5v.8l-.5 1.5.3.6v.2l.4.7.3.8-.2.8.2.3v.6l.6 1.3.2.7v.8l.6 1.2v.5l-.4.3.3 1.1.7 1.9.5.7.6.5.7 2.2.4.6.6.5.4.2h14.7l.3-.3-.8.3h-.4l-.3-1 .7-.1.4-.1h.7v-.5l.4.4.3-.5.3.4v.5l.1.7v.2h1.9v-.7l-.3-1.4-.5-.4-1-.3v-.4l-.5-.6-.4-.4-1 .4-.3-.5h-1.1l-.5.4h-.4v-1.6l-1.1-1-.9-.8-.6-.7-.1-.5v-1.7l-.6-1.5-.7-1v-1.4l-.7-.4-.4-.5.3-1.3.5-.8 1-.8.7-2.8-.4-1-.6-.8-.9-2.5.1-2.7.4-1 .3-1.2 1.8-2.3 1.6-3h.4l.2-.8h.4l1.5-2.4h1.2l2.9.5h1.8l2.2.8 1 .7 1-.4.9.1.4.4.7 1 .4.1h1l.7.5.9 1 3.9.1v3.7l.5.5.1.3v.5l-.3.9v1.3l-.2 2.5.4 1v1.9l.3.7v.6l.7.8-.4 1v1.3l.7.7-.7.9v1l.5 2v1.7l.5 1.1-.2.8v1.7l-.6 1.3.5 4-.4 1.3h9v-66.9l-.3.5-1.4.4-1.2.1-1-.4-.4.2h-.5l-.3-.4-1.4.6h-1l-.9-.4-1.2-.8-.9-.8-2.5-1.3-.5-.4h-56.3zm0 0" style=""/><path d="m268.5 279h56.3l-1.7-1.2h-.8l-1.1-.8-.2-.3h-.3l-.5-.7.1-1.4-.3-.3h-1l-.8-.8-.2-.2-3 .5h-.4l-.2-.2h-.6l-.2-.2-1.2-1.4-.3.2-1-1-.9-.8-.3-.6-.6-.5-.4-.3-.7-.7-.2-1-.6-.6-.6-.8-.2-.7-.2-.3-.4-.2v-.4l-.7-.4-.4-.5-.2-.1-.4-.8-1.3-1-.2-.7-1-.6-.6-.2-2.4-2h-.4l-.2-.5-3.2-2.8-1.5-1.1-.5-1h-.4l-6.3-5.6-.2-.7-1.6-2.2-.3-1 .1-.8-.2-1.6-1.1-1v-.6l.2-.1v-1l.2-.8h.7l.7-.9h.2l.6-.4h.8l.4-.6h.2l.9-1.3h.3l1.2-1 .3-.8 1.7-.6.6-.5h.5l.9-.3 2.6-1.1 2.5-.7 4.5-2h.5l1.5-.7h.7l1.3-.5 1.4-.2 1.9-.8 2.3-.8.8-.4 2-.4 1.5-.2 1.1-.3.3.3 2.4.8.8.5h.9l.5.3.1.3h.7l.3.6h1l1.2.2.3.3h.5l.6.9h1l.4.4h.6l.4.3 3 .4 1.2-.4.4-.2h1.1l1-.3.9.2.3-.2h.4v-16l-.3.2-1.2.9-.7.4h-.7l-1.4 1.1h-.4l-1.6.6h-.6l-.4-.2-.6-.4h-.4l-.4.3h-.5l-.6.3-.9.1-.2-.3h-.4l-.2.3-1 .1-.6.5h-1l-.4.4-.4-.3-1.4-.2-3-1.2h-.6l-.4-.3h-3.3l-1.2-.4-.4.5h-.8l-1 .5h-1l-.9.6h-.8l-1 .4h-.9l-1.3.5-.8-.2-.1.5-.7.2h-1.2l-1.5.6h-.7l-1-.1-.5-.5h-.6l-.6.7-2 1.3h-.7l-.9.7-.4.3-1.1.3h-.6l-.4.5-.5.3h-.6l-.2.1-.6.2-.7.4h-1.2l-.7.7-2.7.3-.6-.2-1.7.4h-.8l-.7.5h-1.6l-.9.7-2.1-.3-1-1-.7-.1h-1.2l-.7-.3-1.2-1-.4-.2-.6-.6h-.6l-1-1zm0 0" style=""/><path d="m225.4 209.2.3.6v2.3l-1.3-.1-1.2-1h-.6l-.5.5-1.1.8.1 1 .6.3.5-.3 1.1-.3-.3 1.1 2.1 1.7 1.3.7 1.2 2.3.5 1.6.5.4v1.4l1.2 3.4.9.9v.8l.5 1.4v1.2l1 1.1-.3.9 1.1 5.9.4.8.9.8.4 1.6.6 1.2 1.7 1.1.2.8v.6l-.5.8.5 2.5.6.6 1 3 1 .2.2.6h.8l.4.1-.3 3.8-.4 1 .2 1-.1 1.1v.8l.7.2v1l.5.7 2.7 2.4.5 1.2 1.2 1.3 3.7 1.1 1.1.6 1 1.6.7 2.9.5 1 .3 1 .1.5v1.3l.4 1.4.4.6h14.2v-60.3l-.7-.6-1.7-1.7-.9-1.5-.3-1.7-1.1-1.4v-2.6zm0 0" style=""/><path d="m254.4 279 .3.5.3.8-1.3 1.7.3.8-.7.6-.7 1.1-1 1.5-.6.9.5.5-.2 1-.7.9-.4 1.4-.2 1 1.4.8h.6l.4-.7 1-1v1.5l.6.2.8-.4v-1l.2-1.1h.6l1 .3v.7l-.1.7.4.6 1 .4 2.5 1.3 1.4.2.4.5.7-.7.7-.3h1l1 .4.8.7.4.6h1.3l.5.5v-16.9zm0 0" style=""/><path d="m169 209.2-.1.4.4.2h1.7l.4-.4h.8v-.2zm0 0" style=""/><path d="m166.3 209.2.1.4.4.4 1-.1-.2-.4v-.3zm0 0" style=""/><path d="m176.5 209.2.5.4 1.2 1.4 2 1 2.6 2 1 .5-.2.8.4.6h.6v-1l.4-.2v-.7l-.9-.7-.3-.7-.8-.5.5-.8.7.2 1.7.7 1.5 1.2h.8l.2-2.5.9-.5 1.5.6.6-1.8zm0 0" style=""/><path d="m198.8 173.1.5 1.7.6.7 3.1 2 2.6.8 1.2.9 1.2 1 4.2 2.3.7 1 2.1 1.9 2.5 2.4 1.5 2.5.9 2.3 1.5 1 .8 1.2.4 1.2.2.8.6.9.8 1.1.3 2-.2 1.9-.6 1.3.6 1.3.5 1v.7l.7 1.4-.2.6.1.3h38.6v-1.8l-.6-.2.2-.5-1-1.8.2-.7-.1-1.2-.9-2.7.3-1v-2.1l.1-3.8.3-1.2 1.2-.5 2 .2 1.3-.1.5-.9.2-1.7-.9-.6v-.7l1.4-1.4.4-.2v-28.2l-1 .4-.6 1.5-1.1-.4-.7.3-.4 1.4-1.4 1.3-2.2.5-.4.8.2 1-.4.6-1.1.2-1.2-.6-.3-1v-.7l-1.4-1.2v-1l1.2-.6.6-.6-.9-.3-1.1-.2-.5-2.1-1.5-.7h-1.2l-1.9-.4-1.8-.9-1.1-1.5-.1-1.2.4-1.5 1.1-1.3.6-.2 2-3.1 1.7-2 1.8-.7 1.7-1.2 1.1-.8.5-1.5 1.6-.6.7-.4h-26.8l-1 .5-.2-.4v-.1h-34.7zm25.4-29.3.4.5-.5.5v.5l-1.2.3-.9-.4-.6-1.1v-.7l-.8-1-.4-1.2-.6-.8 1.4-.5 1 .2.4.6.6 1.3v.7l.6 1zm4.6-.4 1-.2.2.5v.8l-.2.7-1 .2-.8-.4v-.6zm0 0" style=""/><path d="m129 209.3h32l-.1-.7.3-.6.5-.1.4-.5v-1l.6-.4h1.2l1.5 1.2.6 1 .3.9h5.9v-1.4h1.8l.8.4 1.1.8.6.4h15v-.7l1.1-.6h.7l.7 1 .5-1-.1-1-.9-1.3-1.5-1.3-1.2-1.6.3-.8.9-1.4 1.6-1.1.7-.8-1.6-2.3v-1l1.1-.5-1.1-1.1h-1l-.7-.4h-.5l.3 1.2v.8l-1-.5-.6-1.3-.2-1.3.6-.3.5-.7-.7-1.4h-4.6l-.9-.9h-1.4l-1.5.2-.7 1.4-1.5-.2-2 1-.3.4-2.2-.1-2.3.3-1.2-.3-1.7-.9-5.5-2.6-.7-.9-.3-1.2-2-1.6-.5-3.6.6-1.4.2-2.7.7-.8 1.2-.8.5-1 .5-.2.6-.7.2-.9v-.7l-.3-.7 1-1.3.3-2.2.7-2 1-.5h1.7l1.5.7 2.7 1.4 2.3 2.2 1.6.4h.7l.4.8h.1l1.9 2.5.7 1 .9.7.8-.7v-1.2l1-.7-.3-1.1-.7-1.1-.9-2.1-.5-1.3.4-.8-1-2.5.2-.8.9-.1.8.4 1.7 1.6h2.8l1.3.6.9.7 2 .9 3 3.4 1.6 1.1 2.4 1.3.6.7v-33.5h-69.7zm50.4-39.7.5 1.2.1.4v.4l-.7-.1v-.3l-.3-1-.1-.5v-.1zm-.1 0" style=""/><path d="m59.3 209.3h69.8v-69.8h-69.8zm0 0" style=""/><path d="m-10.4 209.3h69.7v-69.8h-69.7zm0 0" style=""/><path d="m-10.4 279h69.7v-69.8h-69.7zm0 0" style=""/><path d="m-10.4 348.7h46.4l.3-.4 1.3-1.3 2.1-.6 2.3.7 1 1.2.3.4h16v-69.7h-69.7zm0 0" style=""/><path d="m59.3 348.7h68.5l.1-.2 1.2-.8v-7.3l-.2.3h-.2v.7h-.2l-.1.1-.7.3.1.3-.4.5v.8l-1.5.6-.6.8-.5.2-.1.4-.4-.1-.7.5-.2.4h-.6l-.8.4-.5-.3-.4-.7-1.1-.8v-.6l-.5-.4.3-1-.2-.7-.2-.1h-.2l-.3.8h-.3v-.1h-.4v-.2l-.4-.1h-.5l-.3-.1-.5-.4h-.3v-.4h.1l-.1-.5-.6-.2-.3-.6h-.3l-.2-.5-.8-.5-.2-.4h-.4l-.4-.8v-.4l.3-.6h.2v-.2h-.2v-.2l-.3-.3-.2.3v.4l-.3.3v.2h-.2v-.8h-.3l-.2-.5h-.2l-.6.3-.5-.9-.5-.8v-.2l-.8-.3-1 .8-.7.2h-.5v-1.3l.2-.4.3-.2v-.9l-.3-.1v-.4l.2-1.2.6-.2.3-.9h.1l.6-.6v-.2l-.6-.6v-.6l.5-.5v-.2l-.5-.2h-.3l-.5.2v.2l-.6.2-.5-.1v-.3l.2-.5v-.7l.6-.6.1-.6-.1-.1h-.5l-.2.3v.5l-.5.3v.4l.2.4h-.3l-.2-.4-.7-.3-.3.5h-.3l-.2-.2.6-2-.4-.3.1-.7 1-1.2.5.2h.4l.5 1.5.3.2h.5v.2h.2v.2l.5.9.5.5v.8l.3.3.5-.3.2.3h.4v-.3l-.1-.4h-.2l-.7-1.3-.7-1.6v-.3h1l.3.1.3.3.3.9.7 1 .5.7.3-.7.2-.2v-.6l-.1-.2v-.2l.8 1.1 1.3 1.2.5.2h.4v-.3l.4.2h.1v-1l-1.4-1.1v-.4l-.5-.5v-.6l-.3-.1v-1.2l.2-.8.5-.5h.3l1.3-1 .8 1 .6.3h.2l-.3-1.3.1-.3h.5l1.3-.4h.4l.2.4h1l.4-.2.2.2.5.1h.3l1 .2h.2l.6.3.2.3.2.3h.5l.3-.2.1.2.9.2.2.2h.2l.2-.4h.4l.1.3.5.1v.3l.8.4.4.4.2.2v-6.5l-1.1-.9-1.1-1.2-.4-.8-.2-1-.7-2-.4-.8-.8-.6-.6-.3-.1-.3h-.3l-.2-.5h-.3l-1.3-1.7-.8-.5h-.4l-.6-.2-.7-.7-.3-.4v-.5l.3-.1.8-1 .4-.1.5-.7h.3v-.3l.5-.3v.6l.5-.4.5-.2.2-.1h.9v-.5l-.3-.2v-.3l-.3-.4h-.3l-.1-.3v-.4l.4-.4-.3-.6-.2-.6-.4-.6.2-.3.3-.3.6.2.6.4h.3v1h.4l.1 1h.2l-.3.6.1.2.4.2.4-.3v.3h.3v-.4l.1-.1v-.8l-1-.6-.5-1h.3l.1-.3v-.4l-.1-.4-2.1-1.1-.5-.4v-.5l-.8-.8.2-.3-.1-.3-.3-.1-.3-.9-.3-.5v-.8l.2-.3.2-.2 1.3.1h.6l1.2.3h.4l.6-.1v.7l2 .2.4-.4.8-.4h.9v-10h-69.7zm46-16.9h.2l.2.4-.3-.2zm11.6-29.4-1 .1h-.8l-.3-.5h-.4l-.2-.6.3-.4.2-1 .2-.1.2.4.3.4h.4l.6.9.2.4zm-2.3-3.2v.2h-.3l-.3-.4v-3l-.2-.5.2-.1.3-1v-.3l.6.4v.1l.5 2 .2 1h-.2l-.1.3v.1h-.3l-.3.3-.1.4zm0 0" style=""/><path d="m59.3 279h69.8v-1.6l-.8-.1h-.5l-.8.5-.7-.2-.5.1-.5.5h-.3l-.4.2h-.6v-.2l-.9-.2-1.3-.5h-.6l-2.7-1.4-1.2-1.1 1.4-1.7 2.1-1.5 1.6-.5 2.3-.2h4.4v-62h-69.8zm0 0" style=""/><path d="m129 271h4l.6-.5h.4l3.2.6h1.6l1-.6h.5l.7.1.6.4.5.6v-.6h.2l.4.8.6.4 1 1.5.9 1.2h.5v.3l-.5.9v1.2l.2.4.7.3-.1 1h8.7l-.3-1.6.2-1v-1.2l-.4-1.7.2-.4 1.6-.5 1.5-.6 1.3-1.2-.3-2.2-1.6-1.6-.9-.2-2.2.4h-1l-.9-.9-2.1-2.2-1.5-.9-1.3-1-.3-.5.3-1v-.2l-.4-.3-1.2.6-.6-.2-.3-.9.2-.5.6-1.3 1.4-1.6.5-.2h1l.6-.3.5-.5-.3-.5v-.9l-.5.4-1.2-.3-.8.4-1.3 1.2h-.8l-.9.6h-.9l-.6-.2-.4-.3-.3.4v.9h-.8l-.5.2-.5 1.2-2.3.1-.4-.5-.5-.6-.1-.7-.3-.3h-.7l-.7-.9h-.4l-.1.5h-.6v-.7l.5-.3-1.4-1-.1-1 .6-.6-.3-.3.6-.4-.4-.7.6-1.1 2.2-3 .6-.6h.5l.7.4h.6l.8-.4 1.1-1 1.2-.5-.1-.4.6.2.4-.4.3-1.5-.4-.7-.4.4-.7 1.1-.5-.2-.3-.3h-.3l-.5-.5-1-.3-1.9-.2h-3l.2-1.7-.4-1.2 1-1 1-.6.3-1.3 1.2-.2.3-.7.4-1 .2-1.7.5-.8.5-1.2.2-1-.4-.7.4-.3.4-1-.4-1.4.1-.9-.1-2.1 1-.7.4-.7 1.2-1.4.8-.4.7-.8.7.6.9-.2 1.2-.6.4-.8 1.2-.4-.4-1.6.6-.1.3-.4-.2-1.1.6-.1 1.4.9 1.3.4h.8l.2.4-.2.5 1 1 .3-.2.4-.7.8-.8.3.6v.7l-.2.4.1.2-.3.4-.3-.3-.2.6.2.4.4-.2.7-1.5h.6l.5.8h.6l.4.3v.7l.7.9-.2 1 .5 1.2h.4l.2-.6.6-.1.3.3v1.2h-.7l-.3.6-.8 1.2h-.3v.6l.3.8v1.7h.5l.3.3.3 1h.6l1.3.8.5-.6.3-1.2v-.4l-.3-.5v-.5h.4l.1.5 1-.3v-.8h.5l-.2-.7-.3-.7.3-.8v-1l-.5.2-.1.3-.4-.5.4-1 .4-.1.7.1 2.2 1.5 1.3.3h.7l.7-.1.3-.4-1-.1-.4-.3-.2-1.3.1-.4h.8l.2-.2-.5-.7.3-.7.4-.6.7 1.2.7.4 1.2.1-.1.7 1.3-.6.8-.1v-.7l-.6-.4v-1l.3-.2.3-.4-.8-1-1.2-.7-1-1h-2.2l-.4.4-.9-.2-.6-2.5-.9-1-1.2-.3-.3-.7h-.5l-.7-.6-1.3-1.1h-32zm30.9-45.7h.3l.6.5.2.5v.3h-1l-.7.2-.1-.3v-.6l-.2-.5v-.2l.6.2zm-.1 0" style=""/><path d="m129 289 .8.2.4-.4.7-.1.5-.7.5-.1h.4l.2-.3.7-.1 1.3.3h1.3l.4-.4.7.2h.4l.5-.2h.4l.5.3 1 .1h.8l.3-.2 1.3-.2.8-.4.5-.5.8-1h1l.5.3v.2l.8.5v.2l.1.8 1.2 1.3v.2l.8 1 .5.5h.9l.3.7v.5l.7.4 1.4.4.8.4.8.1.7.4.1.2h.3l.5-.3h.3l.1-.5.4.2h.6l.7-.2h.7l1.2.2h1l.4.4h.7l.5-.2h1.1l.4-.2.8.2.2-.1.6.1h1l2 .1h.7l.5.5h.3l.2.1v.4l.3.2h.1l.1-.7.7.2.2.5-.1.5-.3.7-.3.2.7 1.5.2.2.6.9v.2l.6.3 1.3-.6.8.3v-.4l.3-.3-.2-1-.6-1-.1-1.3-.6-.6-.1-1.9-.2-.4-1.4-2-1-.9-.2-.3-.8.1-.6-1.1h-.5l-.1-.3h-.6l-.8-.3-.6-.4h-.8l-.5-.4-1.3-.1-.9.3-.3-.4-.3-.3-.4-.3-.5-.2-1-.2h-.4l-1.3.6-1 .3h-.5l-.6.1h-.5l-.3-.4v-.8l.1-1v-.8l-1-1.2-.6-1.4h-.1v-.4l.2-.2-.1-.8h-8.7v.3l.3.4v1.6l-.5.9h-1.8l-.8.6-.9.5-.3.7-.8.6h-1.8l-.2-.6-.2-.2-.4-.1v-.4h-.2l-1-.9-.7-.1h-.4l-.7-.7-2.2-.9-.4-.4-.7-.2-.5-.4-.5-.7h-2.3zm0 0" style=""/><path d="m129 279h2-.2l-.1-.4-.4-.6-.8-.5h-.5zm0 0" style=""/></g></g><g style="fill:none;stroke-linejoin:bevel;clip-path:url(#aG);mask:url(#aF)"><g style="stroke-width:.5"><path d="m220 52.5-.6.6-.8 1.2-.5.7-.4.6-.5.7-.4.6-.5.7-.5.6-.4.6-.5.7-.4.5-1.9 2.7-.4.6-.5.7-.4.6-.5.7-.4.5-1 1.4-.4.6-1.4 2-.4.5-.2.3" style="stroke:#fff"/><path d="m220 52.5-.6.6-.8 1.2-.5.7-.4.6-.5.7-.4.6-.5.7-.5.6-.4.6-.5.7-.4.5-1.9 2.7-.4.6-.5.7-.4.6-.5.7-.4.5-1 1.4-.4.6-1.4 2-.4.5-.2.3" style="stroke:#8d618b"/><path d="m91.2 257-.2.3-.2.8-.3.6-.2.6-.3.7-.2.6-.3.7-.2.6-.5 1.3-.3.6-.2.6-.3.6-.1.7-.2.6-.2.6-.2.6-.1.6-.2.6v.7l-.3.6v.6l-.5 3.4v.7l-.2.6v.7l-.1.7-.1.6-.1.7v.4" style="stroke:#fff"/><path d="m91.2 257-.2.3-.2.8-.3.6-.2.6-.3.7-.2.6-.3.7-.2.6-.5 1.3-.3.6-.2.6-.3.6-.1.7-.2.6-.2.6-.2.6-.1.6-.2.6v.7l-.3.6v.6l-.5 3.4v.7l-.2.6v.7l-.1.7-.1.6-.1.7v.4" style="stroke:#8d618b"/><path d="m85.6 278.4v.2l-.1.7v.7l-.7 3.3v.7l-.2 1.3v.6l-.1.7-.2 1.4-.1.6v.6l-.4.6v.7l-.2.5-.2.8-.2.6-.1.6-.2.7-.4 1.2-.2.7-.1.6-.4 1.3-.2.5-.1.8-.2.4-.6.2-.3.1" style="stroke:#fff"/><path d="m85.6 278.4v.2l-.1.7v.7l-.7 3.3v.7l-.2 1.3v.6l-.1.7-.2 1.4-.1.6v.6l-.4.6v.7l-.2.5-.2.8-.2.6-.1.6-.2.7-.4 1.2-.2.7-.1.6-.4 1.3-.2.5-.1.8-.2.4-.6.2-.3.1" style="stroke:#8d618b"/><path d="m207 70.6-.3.4-.4.6-.5.7-.8 1.3-1 1.2-.4.7-.6.5-.3.8-.5.6-.9 1.3-.3.6-.5.7-.5.6v.2l-.3.1-1.6 1.7-.6.6-.5.5-.6.6-.4.6-2.3 2.1-.5.7-.2.2" style="stroke:#fff"/><path d="m207 70.6-.3.4-.4.6-.5.7-.8 1.3-1 1.2-.4.7-.6.5-.3.8-.5.6-.9 1.3-.3.6-.5.7-.5.6v.2l-.3.1-1.6 1.7-.6.6-.5.5-.6.6-.4.6-2.3 2.1-.5.7-.2.2" style="stroke:#8d618b"/><path d="m295.1 7.6-.7.3-2.2 1-.8.3-.7.3-.7.3-.8.4-.7.3-.8.3-.7.4-3 1.3-.7.3-1.5.7-.8.3-.7.4-.7.3-.8.3-.7.4-.8.3-2.2 1-.3.2" style="stroke:#fff"/><path d="m295.1 7.6-.7.3-2.2 1-.8.3-.7.3-.7.3-.8.4-.7.3-.8.3-.7.4-3 1.3-.7.3-1.5.7-.8.3-.7.4-.7.3-.8.3-.7.4-.8.3-2.2 1-.3.2" style="stroke:#8d618b"/><path d="m274.8 16.7-.4.1-.7.4-.8.3-.7.5-.8.2-.7.3-.7.5-2.2.9-.8.3-1.4.8-.8.3-.7.3-.7.3-.8.4-.6.3-.8.4-.8.3-.7.3-3 1.4-.5.4-.9.3-.7.3" style="stroke:#fff"/><path d="m274.8 16.7-.4.1-.7.4-.8.3-.7.5-.8.2-.7.3-.7.5-2.2.9-.8.3-1.4.8-.8.3-.7.3-.7.3-.8.4-.6.3-.8.4-.8.3-.7.3-3 1.4-.5.4-.9.3-.7.3" style="stroke:#8d618b"/><path d="m254.6 26-.7.5-.9.2-1.3.7-1.5.7-.7.4-1.4.7-.8.3-.7.4-1.4.6-.8.5-1.4.6-.7.3-.7.4-.8.3-.7.4-.7.3-.7.4-.7.3-.7.4-.7.4-.7.4-.7.4-.6.4" style="stroke:#fff"/><path d="m254.6 26-.7.5-.9.2-1.3.7-1.5.7-.7.4-1.4.7-.8.3-.7.4-1.4.6-.8.5-1.4.6-.7.3-.7.4-.8.3-.7.4-.7.3-.7.4-.7.3-.7.4-.7.4-.7.4-.7.4-.6.4" style="stroke:#8d618b"/><path d="m193 87.9-.4.3-.5.6-.5.5-.6.7-3.2 3.2-.6.6-.5.6-1.6 1.6-.5.6-.6.4-.5.7-1 1.1-.7.6-.4.5-3.8 4.1" style="stroke:#fff"/><path d="m193 87.9-.4.3-.5.6-.5.5-.6.7-3.2 3.2-.6.6-.5.6-1.6 1.6-.5.6-.6.4-.5.7-1 1.1-.7.6-.4.5-3.8 4.1" style="stroke:#8d618b"/><path d="m177.5 104-.4.3-.5.7-.6.5-.5.6-2 2.2-.7.7-.4.4-.6.6-1 1-.5.7-1.6 1.6-.5.7-1 1-.7.6-.4.4-.5.7-1.6 1.7-.5.5-.5.6-.6.5-.1.2" style="stroke:#fff"/><path d="m177.5 104-.4.3-.5.7-.6.5-.5.6-2 2.2-.7.7-.4.4-.6.6-1 1-.5.7-1.6 1.6-.5.7-1 1-.7.6-.4.4-.5.7-1.6 1.7-.5.5-.5.6-.6.5-.1.2" style="stroke:#8d618b"/><path d="m133 153.7v.3l-.5.6-.2.7-.4.6-.2.7-.3.7-.6 1.4-.3.7-.5 1.3-.6 1.4-.4.7-.7 2-.3.7-.3.7-.3.7-.3.7-.1.6-.4.8-.3.6-.3.7-.3.7-.2.6-.3.7-.6 1.4-.2.5" style="stroke:#fff"/><path d="m133 153.7v.3l-.5.6-.2.7-.4.6-.2.7-.3.7-.6 1.4-.3.7-.5 1.3-.6 1.4-.4.7-.7 2-.3.7-.3.7-.3.7-.3.7-.1.6-.4.8-.3.6-.3.7-.3.7-.2.6-.3.7-.6 1.4-.2.5" style="stroke:#8d618b"/><path d="m124.4 174.2v.2l-.4.6-.2.7-.3.7-.3.7-.2.7-.6 1.2-.3.8-.1.7-.4.5-.3.8-.3.7-.8 2-.3.7-.2.7-.3.6-.4.7-.2.8-.2.6-.6 1.3-.3.7-.2.7-.3.5-.3.8-.2.7-.7 1.3v.4" style="stroke:#fff"/><path d="m124.4 174.2v.2l-.4.6-.2.7-.3.7-.3.7-.2.7-.6 1.2-.3.8-.1.7-.4.5-.3.8-.3.7-.8 2-.3.7-.2.7-.3.6-.4.7-.2.8-.2.6-.6 1.3-.3.7-.2.7-.3.5-.3.8-.2.7-.7 1.3v.4" style="stroke:#8d618b"/><path d="m162.3 120.2-.4.4-.5.4-.4.7-1.1 1.1-.6.6-1 1-.5.6-.5.6-.5.6-.5.5-.6.6-.5.5-.5.6-.5.5-.5.6-1 1.1-.5.6-.6.5-.5.6-.5.5-.5.6-.5.6-.5.5-.5.6-.5.5-.5.6-.4.4" style="stroke:#fff"/><path d="m162.3 120.2-.4.4-.5.4-.4.7-1.1 1.1-.6.6-1 1-.5.6-.5.6-.5.6-.5.5-.6.6-.5.5-.5.6-.5.5-.5.6-1 1.1-.5.6-.6.5-.5.6-.5.5-.5.6-.5.6-.5.5-.5.6-.5.5-.5.6-.4.4" style="stroke:#8d618b"/><path d="m147.2 136.6-.1.1-.5.6-.6.6-.4.5-.6.6-.4.5-.6.6-.5.5-.5.6-.5.6-.5.5-.5.7-.5.4-1 1.1-.5.6-1 1.1-.5.6-.5.5-.5.7-.4.4-.6.6-.3.6-.5.6-.4.6-.4.6-.4.6-.4.7-.3.6-.3.4" style="stroke:#fff"/><path d="m147.2 136.6-.1.1-.5.6-.6.6-.4.5-.6.6-.4.5-.6.6-.5.5-.5.6-.5.6-.5.5-.5.7-.5.4-1 1.1-.5.6-1 1.1-.5.6-.5.5-.5.7-.4.4-.6.6-.3.6-.5.6-.4.6-.4.6-.4.6-.4.7-.3.6-.3.4" style="stroke:#8d618b"/><path d="m116 194.9-.2.4-.2.6-.3.7-.3.7-.2.7-.3.6-.3.7-.2.7-.3.6-.3.7-.2.7-.3.6-.3.7-.2.7-.4.6-.4 1.4-.3.6-.3.7-.2.7-.3.6-.8 2-.2.6-.2.5-.3.7-.3.6-.2.7-.3.7-.3.6-.2.5" style="stroke:#fff"/><path d="m116 194.9-.2.4-.2.6-.3.7-.3.7-.2.7-.3.6-.3.7-.2.7-.3.6-.3.7-.2.7-.3.6-.3.7-.2.7-.4.6-.4 1.4-.3.6-.3.7-.2.7-.3.6-.8 2-.2.6-.2.5-.3.7-.3.6-.2.7-.3.7-.3.6-.2.5" style="stroke:#8d618b"/><path d="m107.7 215.5v.2l-.3.6-.4.7v.7l-.4.6-.3.7-.2.6-.3.7-.3.7-.5 1.3-.3.6-.2.7-.6 1.3-.2.7-.3.6-.3.8-.1.5-.4.7-.2.6-.4.7-.2.5-.2.8-.3.6-.3.7-.7 2-.3.6-.3.7-.2.6v.2" style="stroke:#fff"/><path d="m107.7 215.5v.2l-.3.6-.4.7v.7l-.4.6-.3.7-.2.6-.3.7-.3.7-.5 1.3-.3.6-.2.7-.6 1.3-.2.7-.3.6-.3.8-.1.5-.4.7-.2.6-.4.7-.2.5-.2.8-.3.6-.3.7-.7 2-.3.6-.3.7-.2.6v.2" style="stroke:#8d618b"/><path d="m99.4 236.2-.2.5-.2.6-.3.7-.3.6-.2.7-.3.6-.2.7-.3.6-.3.8-.5 1.2-.2.6-.4.7v.5l-1 2.1-.2.6-.2.7-.3.6-.2.7-.3.6-.2.7-.3.6-.5 1.3-.3.6-.2.7-1 2.6v.1" style="stroke:#fff"/><path d="m99.4 236.2-.2.5-.2.6-.3.7-.3.6-.2.7-.3.6-.2.7-.3.6-.3.8-.5 1.2-.2.6-.4.7v.5l-1 2.1-.2.6-.2.7-.3.6-.2.7-.3.6-.2.7-.3.6-.5 1.3-.3.6-.2.7-1 2.6v.1" style="stroke:#8d618b"/><path d="m313.5-4.8-.2.2-2.6 1.9-.7.5-.7.5-1.3 1-.7.3-2 1.5-.5.5-.7.5-.7.5-.7.5-.6.5-.7.4-1.3 1-.6.5-.6.4-.7.3-.8.4-.7.3-.8.3-.7.3h-.2" style="stroke:#fff"/><path d="m313.5-4.8-.2.2-2.6 1.9-.7.5-.7.5-1.3 1-.7.3-2 1.5-.5.5-.7.5-.7.5-.7.5-.6.5-.7.4-1.3 1-.6.5-.6.4-.7.3-.8.4-.7.3-.8.3-.7.3h-.2" style="stroke:#8d618b"/><path d="m234.6 36-.7.5-.6.4-.6.5-.7.6-.6.4-.6.5-.6.5-.4.6-.8.5-.4.6-.6.5-.5.6-.5.6-.5.6-.5.7-.4.6-1 1.3-.9 1.3-.5.6-1.4 2-.4.5-.5.6-.5.8-.4.6v.1" style="stroke:#fff"/><path d="m234.6 36-.7.5-.6.4-.6.5-.7.6-.6.4-.6.5-.6.5-.4.6-.8.5-.4.6-.6.5-.5.6-.5.6-.5.6-.5.7-.4.6-1 1.3-.9 1.3-.5.6-1.4 2-.4.5-.5.6-.5.8-.4.6v.1" style="stroke:#8d618b"/></g><g style="stroke-width:1.5"><path d="m106.6 218.3-.3.7-.2.6-.3.7-.3.7-.5 1.3-.3.6-.2.7-.6 1.3-.2.7-.3.6-.3.8-.1.5-.4.7-.2.6-.4.7-.2.5-.2.8-.3.6-.3.7-.7 2-.3.6-.3.7-.2.6-.3.7-.2.6-.3.7-.3.6-.1.4" style="stroke:#fff"/><path d="m106.6 218.3-.3.7-.2.6-.3.7-.3.7-.5 1.3-.3.6-.2.7-.6 1.3-.2.7-.3.6-.3.8-.1.5-.4.7-.2.6-.4.7-.2.5-.2.8-.3.6-.3.7-.7 2-.3.6-.3.7-.2.6-.3.7-.2.6-.3.7-.3.6-.1.4" style="stroke:#8d618b"/><path d="m311-3-.2.3-.8.5-.7.5-1.3 1-.7.3-2 1.5-.5.5-.7.5-.7.5-.7.5-.6.5-.7.4-1.3 1-.6.5-.6.4-.7.3-.8.4-.7.3-.8.3-2.9 1.3-.7.3" style="stroke:#fff"/><path d="m311-3-.2.3-.8.5-.7.5-1.3 1-.7.3-2 1.5-.5.5-.7.5-.7.5-.7.5-.6.5-.7.4-1.3 1-.6.5-.6.4-.7.3-.8.4-.7.3-.8.3-2.9 1.3-.7.3" style="stroke:#8d618b"/><path d="m98.3 239-.1.3-.3.6-.2.7-.3.6-.3.8-.5 1.2-.2.6-.4.7v.5l-1 2.1-.2.6-.2.7-.3.6-.2.7-.3.6-.2.7-.3.6-.5 1.3-.3.6-.2.7-1.3 3.2-.2.7-.3.6-.2.6-.3.4" style="stroke:#fff"/><path d="m98.3 239-.1.3-.3.6-.2.7-.3.6-.3.8-.5 1.2-.2.6-.4.7v.5l-1 2.1-.2.6-.2.7-.3.6-.2.7-.3.6-.2.7-.3.6-.5 1.3-.3.6-.2.7-1.3 3.2-.2.7-.3.6-.2.6-.3.4" style="stroke:#8d618b"/><path d="m90.1 259.7v.3l-.4.6-.2.7-.2.6-.5 1.3-.3.6-.2.6-.3.6-.1.7-.2.6-.2.6-.2.6-.1.6-.2.6v.7l-.3.6v.6l-.5 3.4v.7l-.2.6v.7l-.1.7-.1.6-.1.7-.2 1.3v.7l-.4 1.3" style="stroke:#fff"/><path d="m90.1 259.7v.3l-.4.6-.2.7-.2.6-.5 1.3-.3.6-.2.6-.3.6-.1.7-.2.6-.2.6-.2.6-.1.6-.2.6v.7l-.3.6v.6l-.5 3.4v.7l-.2.6v.7l-.1.7-.1.6-.1.7-.2 1.3v.7l-.4 1.3" style="stroke:#8d618b"/><path d="m251.8 27.4h-.1l-1.5.7-.7.4-1.4.7-.8.3-.7.4-1.4.6-.8.5-1.4.6-.7.3-.7.4-.8.3-.7.4-.7.3-.7.4-.7.3-.7.4-.7.4-.7.4-.7.4-.6.4-.7.5-.6.4-.6.5-.5.4" style="stroke:#fff"/><path d="m251.8 27.4h-.1l-1.5.7-.7.4-1.4.7-.8.3-.7.4-1.4.6-.8.5-1.4.6-.7.3-.7.4-.8.3-.7.4-.7.3-.7.4-.7.3-.7.4-.7.4-.7.4-.7.4-.6.4-.7.5-.6.4-.6.5-.5.4" style="stroke:#8d618b"/><path d="m232.2 37.8h-.2l-.6.7-.6.4-.6.5-.4.6-.8.5-.4.6-.6.5-.5.6-.5.6-.5.6-.5.7-.4.6-1 1.3-.9 1.3-.5.6-1.4 2-.4.5-.5.6-.5.8-.4.6-.5.7-.9 1.2-.4.7" style="stroke:#fff"/><path d="m232.2 37.8h-.2l-.6.7-.6.4-.6.5-.4.6-.8.5-.4.6-.6.5-.5.6-.5.6-.5.6-.5.7-.4.6-1 1.3-.9 1.3-.5.6-1.4 2-.4.5-.5.6-.5.8-.4.6-.5.7-.9 1.2-.4.7" style="stroke:#8d618b"/><path d="m218.2 55-.6.6-.4.7-.4.6-.5.7-.5.6-.4.6-.5.7-.4.5-1.9 2.7-.4.6-.5.7-.4.6-.5.7-.4.5-1 1.4-.4.6-1.4 2-.4.5-.5.7-.4.6-.5.7-.4.6-.2.2" style="stroke:#fff"/><path d="m218.2 55-.6.6-.4.7-.4.6-.5.7-.5.6-.4.6-.5.7-.4.5-1.9 2.7-.4.6-.5.7-.4.6-.5.7-.4.5-1 1.4-.4.6-1.4 2-.4.5-.5.7-.4.6-.5.7-.4.6-.2.2" style="stroke:#8d618b"/><path d="m205.2 73.1-.2.5-1 1.2-.4.7-.6.5-.3.8-.5.6-.9 1.3-.3.6-.5.7-.5.6v.2l-.3.1-1.6 1.7-.6.6-.5.5-.6.6-.4.6-2.3 2.1-.5.7-.6.5-.5.6-.5.5-.6.7" style="stroke:#fff"/><path d="m205.2 73.1-.2.5-1 1.2-.4.7-.6.5-.3.8-.5.6-.9 1.3-.3.6-.5.7-.5.6v.2l-.3.1-1.6 1.7-.6.6-.5.5-.6.6-.4.6-2.3 2.1-.5.7-.6.5-.5.6-.5.5-.6.7" style="stroke:#8d618b"/><path d="m190.9 90-.4.4-2.7 2.8-.6.6-.5.6-1.6 1.6-.5.6-.6.4-.5.7-1 1.1-.7.6-.4.5-3.8 4.1-.5.4-.5.6-.6.5-.5.6" style="stroke:#fff"/><path d="m190.9 90-.4.4-2.7 2.8-.6.6-.5.6-1.6 1.6-.5.6-.6.4-.5.7-1 1.1-.7.6-.4.5-3.8 4.1-.5.4-.5.6-.6.5-.5.6" style="stroke:#8d618b"/><path d="m175.5 106.1-.5.5-1.6 1.7-.4.7-.6.4-.6.6-1 1-.5.7-1.6 1.6-.5.7-1 1-.7.6-.4.4-.5.7-1.6 1.7-.5.5-.5.6-.6.5-.4.6-.6.4-.4.7-.6.6-.2.1" style="stroke:#fff"/><path d="m175.5 106.1-.5.5-1.6 1.7-.4.7-.6.4-.6.6-1 1-.5.7-1.6 1.6-.5.7-1 1-.7.6-.4.4-.5.7-1.6 1.7-.5.5-.5.6-.6.5-.4.6-.6.4-.4.7-.6.6-.2.1" style="stroke:#8d618b"/><path d="m160.2 122.4-.2.4-.7.6-1 1-.5.6-.5.6-.5.6-.5.5-.6.6-.5.5-.5.6-.5.5-.5.6-1 1.1-.5.6-.6.5-.5.6-.5.5-.5.6-.5.6-.5.5-.5.6-.5.5-.5.6-.6.5-.4.6-.6.6-.4.5-.4.4" style="stroke:#fff"/><path d="m160.2 122.4-.2.4-.7.6-1 1-.5.6-.5.6-.5.6-.5.5-.6.6-.5.5-.5.6-.5.5-.5.6-1 1.1-.5.6-.6.5-.5.6-.5.5-.5.6-.5.6-.5.5-.5.6-.5.5-.5.6-.6.5-.4.6-.6.6-.4.5-.4.4" style="stroke:#8d618b"/><path d="m145.2 138.8-.2.2-.4.5-.6.6-.5.5-.5.6-.5.6-.5.5-.5.7-.5.4-1 1.1-.5.6-1 1.1-.5.6-.5.5-.5.7-.4.4-.6.6-.3.6-.5.6-.4.6-.4.6-.4.6-.4.7-.3.6-.4.7-.3.6-.3.7-.4.6-.2.5" style="stroke:#fff"/><path d="m145.2 138.8-.2.2-.4.5-.6.6-.5.5-.5.6-.5.6-.5.5-.5.7-.5.4-1 1.1-.5.6-1 1.1-.5.6-.5.5-.5.7-.4.4-.6.6-.3.6-.5.6-.4.6-.4.6-.4.6-.4.7-.3.6-.4.7-.3.6-.3.7-.4.6-.2.5" style="stroke:#8d618b"/><path d="m292.3 8.8h-.1l-.8.5-.7.2-.7.3-.8.4-.7.3-.8.3-.7.4-3 1.3-.7.3-1.5.7-.8.3-.7.4-.7.3-.8.3-.7.4-.8.3-3 1.3-.5.4-.9.3-.7.5h-.2" style="stroke:#fff"/><path d="m292.3 8.8h-.1l-.8.5-.7.2-.7.3-.8.4-.7.3-.8.3-.7.4-3 1.3-.7.3-1.5.7-.8.3-.7.4-.7.3-.8.3-.7.4-.8.3-3 1.3-.5.4-.9.3-.7.5h-.2" style="stroke:#8d618b"/><path d="m272 18-.6.1-.7.4-.7.5-2.2.9-.8.3-1.4.8-.8.3-.7.3-.7.3-.8.4-.6.3-.8.4-.8.3-.7.3-3 1.4-.5.4-.9.3-.7.3-.7.4-.9.3-.6.4-.6.3" style="stroke:#fff"/><path d="m272 18-.6.1-.7.4-.7.5-2.2.9-.8.3-1.4.8-.8.3-.7.3-.7.3-.8.4-.6.3-.8.4-.8.3-.7.3-3 1.4-.5.4-.9.3-.7.3-.7.4-.9.3-.6.4-.6.3" style="stroke:#8d618b"/><path d="m131.7 156.4v.2l-.3.7-.6 1.4-.3.7-.5 1.3-.6 1.4-.4.7-.7 2-.3.7-.3.7-.3.7-.3.7-.1.6-.4.8-.3.6-.3.7-.3.7-.2.6-.3.7-.9 2-.2.7-.3.7-.3.7-.2.6" style="stroke:#fff"/><path d="m131.7 156.4v.2l-.3.7-.6 1.4-.3.7-.5 1.3-.6 1.4-.4.7-.7 2-.3.7-.3.7-.3.7-.3.7-.1.6-.4.8-.3.6-.3.7-.3.7-.2.6-.3.7-.9 2-.2.7-.3.7-.3.7-.2.6" style="stroke:#8d618b"/><path d="m123.3 177-.3.9-.6 1.1-.3.8-.1.7-.4.5-.3.8-.3.7-.8 2-.3.7-.2.7-.3.6-.4.7-.2.8-.2.6-.6 1.3-.3.7-.2.7-.3.5-.3.8-.2.7-.7 1.3-.2.7-.2.6-.3.7-.3.7v.4" style="stroke:#fff"/><path d="m123.3 177-.3.9-.6 1.1-.3.8-.1.7-.4.5-.3.8-.3.7-.8 2-.3.7-.2.7-.3.6-.4.7-.2.8-.2.6-.6 1.3-.3.7-.2.7-.3.5-.3.8-.2.7-.7 1.3-.2.7-.2.6-.3.7-.3.7v.4" style="stroke:#8d618b"/><path d="m114.9 197.7-.1.3-.3.6-.3.7-.2.7-.3.6-.3.7-.2.7-.3.6-.3.7-.2.7-.4.6-.4 1.4-.3.6-.3.7-.2.7-.3.6-.8 2-.2.6-.2.5-.3.7-.3.6-.2.7-.3.7-.5 1.3-.3.6-.4.7v.7l-.4.6" style="stroke:#fff"/><path d="m114.9 197.7-.1.3-.3.6-.3.7-.2.7-.3.6-.3.7-.2.7-.3.6-.3.7-.2.7-.4.6-.4 1.4-.3.6-.3.7-.2.7-.3.6-.8 2-.2.6-.2.5-.3.7-.3.6-.2.7-.3.7-.5 1.3-.3.6-.4.7v.7l-.4.6" style="stroke:#8d618b"/></g></g></svg>
