<svg style="" viewBox="0 0 497 279" xmlns="http://www.w3.org/2000/svg"><path d="m0 0h497v279h-497z" style="fill:#f2efe9"/><g style="fill-rule:evenodd;fill:#aad3df"><path d="m-27.5 139.5h69.8v-69.8h-69.8zm0 0" style=""/><path d="m-27.5 209.3h69.8v-69.8h-69.8zm0 0" style=""/><path d="m-27.5 279h69.8v-69.8h-69.8zm0 0" style=""/><path d="m-27.5 348.7h69.8v-69.7h-69.8zm0 0" style=""/><path d="m42.3 348.7h69.7v-69.7h-69.8zm0 0" style=""/><path d="m112 348.7h69.8v-69.7h-69.8zm0 0" style=""/><path d="m112 279h69.8v-69.8h-69.8zm0 0" style=""/><path d="m42.3 279h69.7v-69.8h-69.8zm0 0" style=""/><path d="m42.3 209.3h69.7v-69.8h-69.8zm0 0" style=""/><path d="m42.3 139.5h69.7v-69.8h-69.8zm0 0" style=""/><path d="m112 139.5h69.8v-69.8h-69.8zm0 0" style=""/><path d="m112 209.3h69.8v-69.8h-69.8zm0 0" style=""/><path d="m181.7 209.3h69.8v-69.8h-69.8zm0 0" style=""/><path d="m181.7 139.5h69.8v-69.8h-69.8zm0 0" style=""/><path d="m181.7 279h69.8v-69.8h-69.8zm0 0" style=""/><path d="m181.7 348.7h69.8v-69.7h-69.8zm0 0" style=""/><path d="m181.7 0h69.8v-69.7h-69.8zm0 0" style=""/><path d="m181.7 69.8h69.8v-69.8h-69.8zm0 0" style=""/><path d="m112 69.8h69.8v-69.8h-69.8zm0 0" style=""/><path d="m42.3 69.8h69.7v-69.8h-69.8zm0 0" style=""/><path d="m42.3 0h69.7v-69.7h-69.8zm0 0" style=""/><path d="m112 0h69.8v-69.7h-69.8zm0 0" style=""/><path d="m-27.5 0h69.8v-69.7h-69.8zm0 0" style=""/><path d="m-27.5 69.8h69.8v-69.8h-69.8zm0 0" style=""/><path d="m251.5 139.5h69.8v-69.8h-69.8zm0 0" style=""/><path d="m251.5 209.3h69.8v-69.8h-69.8zm0 0" style=""/><path d="m251.5 279h69.8v-69.8h-69.8zm0 0" style=""/><path d="m251.5 348.7h69.8v-69.7h-69.8zm0 0" style=""/><path d="m321.2 279h69.8v-69.8h-69.8zm0 0" style=""/><path d="m321.2 348.7h69.8v-69.7h-69.8zm0 0" style=""/><path d="m391 348.7h69.7v-69.7h-69.7zm0 0" style=""/><path d="m460.7 348.7h69.8v-69.7h-69.8zm0 0" style=""/><path d="m460.7 279h69.8v-69.8h-69.8zm0 0" style=""/><path d="m391 279h69.7v-69.8h-69.7zm0 0" style=""/><path d="m391 209.3h69.7v-69.8h-69.7zm0 0" style=""/><path d="m460.7 209.3h69.8v-69.8h-69.8zm0 0" style=""/><path d="m460.7 139.5h69.8v-69.8h-69.8zm0 0" style=""/><path d="m391 139.5h69.7v-69.8h-69.7zm0 0" style=""/><path d="m321.2 139.5h69.8v-69.8h-69.8zm0 0" style=""/><path d="m321.2 209.3h69.8v-69.8h-69.8zm0 0" style=""/><path d="m321.2 69.8h69.8v-69.8h-69.8zm0 0" style=""/><path d="m460.7 69.8h69.8v-69.8h-69.8zm0 0" style=""/><path d="m391 69.8h69.7v-69.8h-69.7zm0 0" style=""/><path d="m391 0h69.7v-69.7h-69.7zm0 0" style=""/><path d="m460.7 0h69.8v-69.7h-69.8zm0 0" style=""/><path d="m321.2 0h69.8v-69.7h-69.8zm0 0" style=""/><path d="m251.5 0h69.8v-69.7h-69.8zm0 0" style=""/><path d="m251.5 69.8h69.8v-69.8h-69.8zm0 0" style=""/></g><path d="m0 0h497v279h-497z" style="fill:none"/></svg>
