<svg xmlns="http://www.w3.org/2000/svg" xmlns:xlink="http://www.w3.org/1999/xlink" viewBox="0 0 497 279"> <defs>  <path id="ak" d="M3.2-6c.7 0 1.2.2 1.6.5.2.3.5.8.5 1.5v4h-.7l-.2-.8-1 .7-1 .1c-.6.1-1 0-1.4-.3C.7-.6.5-1 .5-1.6c0-.6.2-1 .7-1.4.5-.3 1.2-.5 2.1-.5h1V-4c0-.4 0-.7-.3-1-.2-.1-.5-.2-.9-.2l-.9.1a7 7 0 0 0-.7.3l-.3-.7a4 4 0 0 1 .8-.3A4 4 0 0 1 3-6Zm1.1 3.1h-.8c-.8.1-1.3.3-1.6.5-.3.1-.4.4-.4.8 0 .3.1.5.3.6.2.3.5.3.8.3.4 0 .9-.1 1.2-.3.4-.4.5-.8.5-1.4Zm0 0"/>  <path id="P" d="m.2 0 1.2-5.4h.8l-.2 1 .5-.6a2 2 0 0 1 .6-.3l.9-.2c.3 0 .6.1.9.5.1 0 .4.4.4.9v.4l-.2.5L4.4 0h-.9l.7-3.4v-.4l.2-.2c-.1-.5-.3-.7-.8-.7-.2 0-.4 0-.6.2-.3.2-.6.5-.8.8-.2.3-.4.8-.5 1.4L1.2 0Zm0 0"/>  <path id="O" d="M2.4 0c-.6 0-1 0-1.4-.3C.6-.8.5-1.3.5-2c0-.3 0-.8.2-1.2 0-.4.3-.8.5-1.1.2-.4.5-.7.8-.8a2 2 0 0 1 1.2-.4c.5 0 .8.2 1.1.5.3 0 .4.4.4.8 0 .3-.1.7-.3 1-.4.2-.6.4-1 .6-.6.2-1.2.3-1.9.3h-.1v.3c0 .5 0 .8.3 1 .2.3.5.4.9.4l.7-.1A5 5 0 0 0 4-1v.7a6 6 0 0 1-.7.3h-.9Zm-.9-3 1.3-.1.7-.4c.2-.1.3-.4.3-.5l-.1-.6-.7-.1c-.2 0-.5.1-.9.4L1.6-3Zm0 0"/>  <path id="M" d="M-.3 2.4h-.3l-.4-.1v-.7h.7c.3.1.5.1.7-.1.2-.2.4-.5.5-.8l.4-.6-.8-5.5h.9l.3 2.7v.7l.2.7v.6A28.4 28.4 0 0 1 2.5-2c-.1 0 .1-.3.2-.4l1.5-3h1L1.7 1c-.1.4-.4.8-.7 1-.4.3-.8.4-1.2.4Zm0 0"/>  <path id="E" d="M2 0c-.6 0-.9 0-1.2-.3C.6-.7.5-1 .5-1.7c0-.5 0-1 .2-1.5l.5-1.1c.2-.4.5-.7.8-.9a2 2 0 0 1 1.1-.3c.4 0 .6.1.9.3l.5.7.3-.9h.7L4.4 0h-.7l.1-1c-.3.3-.5.6-.9.8-.3.2-.6.2-.9.2Zm.1-.5c.4-.1.6-.2.9-.5l.6-.6a4 4 0 0 0 .4-1 3 3 0 0 0 .1-.7 4 4 0 0 0 0-.4c.1-.3.1-.5-.1-.7-.3-.2-.5-.3-.8-.3-.3 0-.5 0-.7.2a2 2 0 0 0-.6.7l-.4 1-.1 1.1c0 .4 0 .6.2.8.1.2.3.3.6.3Zm.1-.1"/>  <path d="M3.8 2A1.7 1.7 0 1 1 .3 2a1.7 1.7 0 0 1 3.5 0zm0 0" style="fill:#fdfdfa;fill-opacity:1;fill-rule:nonzero;stroke:#575747;stroke-width:.5;stroke-linecap:butt;stroke-linejoin:miter;stroke-miterlimit:4;stroke-opacity:1" id="reuse-0"/> </defs> <defs overflow="visible" style="stroke:none">  <path d="m.4-.5.6-.9a3 3 0 0 0 .6.4l1 .1c.6-.1 1-.1 1.2-.3.3-.2.4-.4.4-.7v-.6l-.6-1a16 16 0 0 0-.9-1.6l.7-.5C4-4.8 4.5-4 4.8-3.4c.3.6.4 1.1.4 1.5l-.3 1c-.1.2-.4.4-.8.6-.3.3-.9.4-1.5.4C2 0 1.7 0 1.4-.1a2.8 2.8 0 0 1-1-.4ZM0 0l.1-1h1.1c.3 0 .5 0 .6-.3 0 0 .2-.3.2-.7l-.3-1-.4-1.6 1-.2a8 8 0 0 1 .2.8l.3 1a4 4 0 0 1 0 1c.1.7-.1 1.2-.5 1.6C1.8-.1 1 0 0 0Zm2.2 2.4-.4-.2-.2-.5c0-.1 0-.3.2-.4l.4-.2.4.2.2.4c0 .3 0 .3-.2.5l-.4.1ZM.6 2.3 0 2.2v-.9a.6.6 0 0 1 .6-.2l.4.2.2.4-.2.5-.4.1ZM3.5 0C2.8 0 2.4 0 2-.1c-.3-.2-.6-.4-.7-.7L1.1-2 1-8.6h.9L2-2.4l.2 1 .4.4h1l.4.3V0l-.6.1ZM.4 0v-1L1-2l.7.2-.3 1v.7c-.1.4-.1.8.2 1.1.3.3.6.5 1.1.7l1.3.1c.6 0 1 0 1.5-.2l1-.5c.5-.1.7-.3.8-.6l.1-.5c0-.1 0-.3-.3-.4a4.4 4.4 0 0 0-.7-.3 8.7 8.7 0 0 1-.8-.3 2.5 2.5 0 0 1-.7-.5c-.2-.2-.3-.5-.3-.8 0-.2 0-.6.2-1l.7-.7 1-.8 1-.2h1l.3.4-.3.8-.4-.2H6.8l-.6.5-.5.5a1 1 0 0 0-.2.6l.3.4.5.3.7.3c.3 0 .5.2.7.3l.6.4.2.5c0 .3-.1.7-.3 1l-.9 1a5 5 0 0 1-1.4.7 6 6 0 0 1-2 .3 5.3 5.3 0 0 1-1.8-.3 2.8 2.8 0 0 1-1.3-1C.5 1.3.4.7.4 0ZM0 0l.1-1c.9 0 1.6 0 2.4-.2a8.1 8.1 0 0 0 2.1-1.1A3.3 3.3 0 0 0 3.5-3 4.3 4.3 0 0 0 2-3.2H.9L.7-4 2-4.2l1 .1 1.1.4.6.4.8.4.8.1h.2v1a3 3 0 0 0-.9 0 7 7 0 0 0-1.1.6l-1.2.6A7.8 7.8 0 0 1 0 0Zm2-5.4-.4-.2a.5.5 0 0 1-.2-.4c0-.2 0-.4.2-.5a.5.5 0 0 1 .4-.2l.4.2.2.5-.2.4-.4.1ZM0 2.8l-.3-1c.8-.1 1.4-.4 1.8-.8.5-.4.8-.8 1-1.1l.1-1.2a3 3 0 0 0-.1-1.2l-.6-1.1.9-.5.5 1.3.4 1c.1.3.2.6.4.7L5-1l.2.2.2.3-.2.5-.5.1C4.5 0 4.3 0 4-.1a1.6 1.6 0 0 1-.5-.4A3 3 0 0 1 3 .8l-1 1a5 5 0 0 1-1 .5l-1 .5Zm2-8.3-.5-.1a.5.5 0 0 1-.1-.4l.1-.5a.5.5 0 0 1 .5-.1l.4.1.1.5-.1.4-.4.1ZM0 2.8l-.3-1c.8-.2 1.4-.5 1.9-.8l.9-1 .2-1.4v-.5a4 4 0 0 0-.4-.7l-.4-1 .9-.5.6 1.5.2 1.2c0 .5 0 1-.2 1.4-.2.4-.4.8-.7 1-.3.5-.5.8-.9 1a5 5 0 0 1-1 .4l-.8.4ZM1.1 0v-8.6h5V0Zm.6-.6h3.8V-8H1.7Zm3.2-9.8L1.4 3.2h-1l3.3-13.6ZM1.1-1.1v-8.6h5V-1Zm.6-.6h3.8v-7.4H1.7ZM.3 0l1.4-6.5h1l-.3 1.2.6-.6.7-.5a2 2 0 0 1 1-.2c.5 0 .9.2 1.2.4.3.3.4.7.4 1.2v.6l-.1.5L5.3 0H4.2l.9-4v-1c.1-.4-.1-.6-.6-.6s-.7 0-1 .3c-.3.1-.6.3-.9.8L2-2.8 1.4 0Zm1.8.1c-.6 0-1-.1-1.4-.4-.2-.3-.4-.6-.4-1 0-.6.1-1 .4-1.3.2-.4.7-.5 1.2-.7.6-.2 1.3-.3 2.2-.3h.2v-.5c0-.5-.1-.9-.4-1.2-.2-.2-.6-.4-.9-.4a3 3 0 0 0-1.2.2l-.6.3V-6l.8-.4 1-.1c.8 0 1.3.2 1.8.5.4.5.5 1.1.5 2L5-2.6a5 5 0 0 1-.5 1.4l-1 1C3 0 2.6 0 2 0Zm.1-.8c.4-.1.7-.3 1.1-.7.4-.2.6-.6.8-1.4l-1.5.1-.9.5c-.2.1-.4.3-.4.6s0 .6.2.6c.2.2.5.3.7.3ZM-.6 0l3.5-4.5-1.6-4h1.1l1.2 3.1L6-8.6h1.3L4.1-4.5 5.7 0H4.6L3.3-3.7.5 0Zm3.2-7.5L2-7.6v-.5c0-.2 0-.3.2-.5.1-.2.3-.2.5-.2.3 0 .5.2.5.5s0 .5-.2.6l-.4.2ZM.3 0l1.4-6.4h1L1.5 0Zm0 0 1.4-6.5h1l-.3 1.2.6-.6.7-.5a2 2 0 0 1 1-.2c.5 0 .9.2 1.2.4.3.3.4.7.4 1.2v.6l-.1.5L5.3 0H4.2l.9-4v-1c.1-.4-.1-.6-.6-.6s-.7 0-1 .3c-.3.1-.6.3-.9.8L2-2.8 1.4 0Zm3.5-7.3a4.5 4.5 0 0 0-.5-.9 26 26 0 0 0-.5-.8v-.2h.7l.4.5.5.6A9.6 9.6 0 0 1 5.8-9h.7a12.5 12.5 0 0 0-1.2 1.2l-.5.5ZM3 .1C2.1.1 1.5 0 1.1-.5.8-1 .6-1.5.6-2.3c0-.5 0-1 .2-1.5.1-.5.4-1 .6-1.4l1-1c.5-.2 1-.3 1.5-.3s.9 0 1.3.3c.3.3.4.7.4 1.2 0 .4-.1.8-.4 1-.2.5-.6.8-1.2 1l-2 .1h-.3v.6c-.1.3-.1.8.3 1.1.2.3.6.4 1 .4h1l.8-.5v1c-.3 0-.6.2-.8.3L3 .1ZM1.7-3.6H2c.4 0 1 0 1.2-.2.4 0 .8-.2 1-.4.3-.2.4-.4.4-.8 0-.2 0-.3-.2-.5l-.7-.2c-.4 0-.7.2-1 .7-.5.2-.7.7-1 1.4ZM2.3.1c-.5 0-1-.1-1.2-.5-.4-.4-.5-1-.5-1.7 0-.6 0-1.1.2-1.7a5 5 0 0 1 .6-1.4l1-1c.4-.2.8-.3 1.3-.3s.8 0 1 .3l.8.8v-.8l.2-.8.3-2.1h1.1L5.3 0h-.9l.1-1.2-1 1a2 2 0 0 1-1.2.2Zm.4-.8.8-.3.7-.8.6-1.2.2-1.4c0-.3 0-.6-.3-.9-.2-.2-.5-.4-.9-.4-.3 0-.6.1-.9.4-.2.2-.5.3-.6.8l-.5 1.1L1.7-2c0 .8.3 1.3 1 1.3ZM.3 0l1.4-6.4h.9l-.2 1.2h.1A9 9 0 0 1 3-6l.6-.4.9-.1H5v1h-.7c-.3-.1-.8-.1-1 .2-.5.4-.7.7-.9 1.1-.2.4-.4.8-.4 1.3L1.4 0Zm-.5 0L0-.7l4-5H1.2l.2-.6h3.9l-.3.7L1-.8h3.3l-.2.8Zm2.5.1c-.5 0-1-.1-1.2-.5-.4-.4-.5-1-.5-1.7 0-.6 0-1.1.2-1.7l.7-1.4 1-1c.3-.2.8-.3 1.2-.3.5 0 .8 0 1 .3l.8.8.3-1h.8L5.2 0h-.8l.1-1.2-1 1a2 2 0 0 1-1.2.2Zm.4-.8c.3-.1.5-.3.8-.4.3-.2.6-.5.8-.9l.5-1.2.2-.6v-.6c0-.3-.1-.6-.3-.9-.2-.2-.5-.4-.9-.4-.3 0-.6.1-.8.3l-.7.8-.5 1.2L1.7-2c0 .4 0 .7.2 1 .2 0 .4.2.8.2ZM.5 0l1.8-8.6h1l-.6 3.7h3.7l.8-3.7h1L6.4 0h-1l.7-4H2.4l-.8 4Zm1.3.1L.8 0C.5 0 .2-.2 0-.3v-1a5 5 0 0 0 .8.4l1.1.2C2.4-.8 3-1 3.1-1.1c.3-.2.5-.5.5-.8 0-.3-.1-.5-.3-.7-.1-.2-.5-.4-1-.4h-.7l.1-.8H3l.7-.5c.2 0 .3-.3.3-.6l-.3-.6-.7-.2a3 3 0 0 0-1 .2l-.7.3-.3-1 1-.2 1-.1c.8 0 1.3 0 1.6.3.2.3.4.7.4 1.2 0 .4-.1.8-.4 1-.3.3-.6.5-1.1.6l.8.6c.2.1.3.4.3.9s-.2.9-.7 1.3C3.5 0 2.8.1 2 .1ZM.3 0l1.4-6.4h1L1.5 0Zm4.5 2.2L5.3 0h-.9L5-2.9H2L1.4 0h-1l1.2-6.4h1.1l-.4 2.7h2.9l.6-2.8h1L5.8-1h.8l-.7 3.2ZM.3 0l1.4-6.4h.9l-.2 1.2h.1l.5-.6.7-.5a2 2 0 0 1 .9-.2c.4 0 .7 0 1 .3.2.3.4.6.4 1a4 4 0 0 1 .7-.5l.7-.6a2 2 0 0 1 .9-.2c.5 0 .7 0 1.1.4.3.1.4.6.4 1.1v.6l-.1.4-.8 4H7.8l.9-4v-1.4L8-5.7l-1 .3c-.2.2-.4.5-.7 1A5 5 0 0 0 5.7-3l-.6 3h-1l.8-4 .1-.8c0-.3 0-.5-.2-.6 0-.2-.3-.3-.5-.3l-.9.3c-.3.2-.6.5-.8 1-.3.4-.6.9-.6 1.5L1.4 0Zm-.8 0 4.7-8.6h1.1L.5 0Zm0 0"/>  <path id="aH" d="m-.3 2.9 2-9.3h.9l-.2 1.2a5 5 0 0 1 1.1-1 2 2 0 0 1 1.1-.3c.5 0 1 .1 1.4.5.2.4.4 1 .4 1.7 0 .5-.1 1.1-.4 1.6 0 .7-.2 1-.5 1.5l-1 1c-.4.2-.8.2-1.3.2-.4.1-.8.1-1-.2a2.3 2.3 0 0 1-.6-.8A12.4 12.4 0 0 1 1.3.1L.8 3ZM3.1-.7c.4-.1.7-.3 1-.4l.5-.8.5-1.1.2-1.4c0-.8-.4-1.3-1-1.3l-.9.3-.7.8L2-3.4V-2c0 .3 0 .7.2.9.2.1.5.4 1 .4Zm0-.1"/>  <path id="aG" d="m.3 0 1.4-6.4h1.4l.6 5 3-4.9H8L6.7 0h-1l.9-3.7A27.2 27.2 0 0 1 7-5.4L4 0H3l-.5-5.4-.4.8-.1 1L1.3 0Zm0 0"/>  <path id="aF" d="M3 .1C2.1.1 1.5 0 1.1-.5.8-1 .6-1.5.6-2.3c0-.5 0-1 .2-1.5.1-.5.4-1 .6-1.4l1-1c.5-.2 1-.3 1.5-.3s.9 0 1.3.3c.3.3.4.7.4 1.2 0 .4-.1.8-.4 1-.2.5-.6.8-1.2 1l-2 .1h-.3v.6c-.1.3-.1.8.3 1.1.2.3.6.4 1 .4h1l.8-.5v1c-.3 0-.6.2-.8.3L3 .1ZM1.7-3.6H2c.4 0 1 0 1.2-.2.4 0 .8-.2 1-.4.3-.2.4-.4.4-.8 0-.2 0-.3-.2-.5l-.7-.2c-.4 0-.7.2-1 .7-.5.2-.7.7-1 1.4Zm.1 0"/>  <path id="aE" d="M3 0c-.8 0-1.4 0-1.8-.5C.8-1 .6-1.6.6-2.4c0-.5 0-1 .2-1.4.1-.5.2-1 .6-1.4.2-.4.6-.7 1-1 .4-.1.9-.2 1.4-.2.7-.1 1.3.1 1.7.6.5.4.7 1 .7 1.8 0 .5 0 1-.2 1.4l-.6 1.4-1 1C4 0 3.5 0 3 0Zm0-.7c.4-.1.8-.2 1-.5.5-.2.7-.6.9-1.1a5.3 5.3 0 0 0 .2-1.9 2 2 0 0 0-.1-.7l-.4-.5c-.2-.2-.6-.2-.8-.2-.4 0-.8.1-1.1.4-.4.3-.7.7-.8 1.2-.2.5-.3 1-.3 1.7 0 .5.2.8.4 1.1.3.3.6.4 1 .4Zm0-.1"/>  <path id="aD" d="m.3 0 1.4-6.4h1l-.6 3L5-6.3h1.4L3.2-3.2 5.4 0H4L2.1-3.2 1.4 0Zm0 0"/>  <path id="aC" d="M4.3-7.3c-.7 0-1.2-.1-1.3-.4-.4-.2-.6-.6-.6-1v-.4h1.1v.3c-.1.2-.1.4.1.6l.8.2c.3 0 .6-.1.9-.3.2 0 .4-.4.5-.7h1c-.1.4-.4.9-.7 1.2-.4.4-1.1.5-1.8.5ZM2.3.1C1.8.1 1.3 0 1-.3.8-.6.7-1 .7-1.5V-2l.1-.5.8-4h1.1l-.9 4.2a4 4 0 0 0 0 .7v.6c.3.2.5.3.8.3l.8-.3c.4-.2.7-.5 1-1L5-3.7l.6-2.7h1L5.2 0h-.8l.1-1.2-.7.6-.6.6a2 2 0 0 1-1 .1Zm0 0"/>  <path id="aB" d="M2.3.1C1.8.1 1.3 0 1-.3.8-.6.7-1 .7-1.5V-2l.1-.5.8-4h1.1l-.9 4.2a4 4 0 0 0 0 .7v.6c.3.2.5.3.8.3l.8-.3c.4-.2.7-.5 1-1L5-3.7l.6-2.7h1L5.2 0h-.8l.1-1.2-.7.6-.6.6a2 2 0 0 1-1 .1Zm0 0"/>  <path id="aA" d="m.3 0 1.4-6.5h1l-.3 1.2.6-.6.7-.5a2 2 0 0 1 1-.2c.5 0 .9.2 1.2.4.3.3.4.7.4 1.2v.6l-.1.5L5.3 0H4.2l.9-4v-1c.1-.4-.1-.6-.6-.6s-.7 0-1 .3c-.3.1-.6.3-.9.8L2-2.8 1.4 0Zm0 0"/>  <path id="az" d="M3 .1C2.2.1 1.7 0 1.2-.5.8-.9.6-1.5.6-2.3c0-.6 0-1 .2-1.6l.7-1.4a3 3 0 0 1 1-.9L4-6.5h.8c.2 0 .5.2.7.3l-.3.8-.5-.2H4c-.5-.1-1 0-1.3.3A3 3 0 0 0 2-4l-.3 1.7c0 .5 0 .9.3 1.1.3.3.6.4 1 .4h1a9 9 0 0 0 .6-.5v1.1L4 0 2.9.1Zm0 0"/>  <path id="ay" d="M2.3.1c-.5 0-1-.1-1.2-.5-.4-.4-.5-1-.5-1.7 0-.6 0-1.1.2-1.7l.7-1.4 1-1c.3-.2.8-.3 1.2-.3.5 0 .8 0 1 .3l.8.8.3-1h.8L5.2 0h-.8l.1-1.2-1 1a2 2 0 0 1-1.2.2Zm.4-.8c.3-.1.5-.3.8-.4.3-.2.6-.5.8-.9l.5-1.2.2-.6v-.6c0-.3-.1-.6-.3-.9-.2-.2-.5-.4-.9-.4-.3 0-.6.1-.8.3l-.7.8-.5 1.2L1.7-2c0 .4 0 .7.2 1 .2 0 .4.2.8.2Zm0-.1"/>  <path id="ax" d="m.5 0 1.8-8.6h1l-.7 4.2 3.9-4.2h1.3L3.6-4.3 6.3 0H5L2.5-4.3 1.5 0Zm0 0"/>  <path d="M1.1 0v-8.6h5V0Zm.6-.6h3.8V-8H1.7Zm0 0"/>  <path id="aw" d="M2-3.5h1.6c1.6 0 2.4.6 2.4 1.7 0 .5-.2 1-.6 1.3-.4.3-1 .5-1.8.5H1v-5.9h1Zm3 1.8c0-.4-.1-.7-.4-.8l-1-.2H1.8v2h1.8c.4-.1.7-.3 1-.3.2-.1.4-.4.4-.8Zm0-.1"/>  <path id="av" d="M2-5.9v2.5h3V-6h1.1v6H5v-2.6H2V0H1v-5.9Zm0 0"/>  <path id="au" d="m2.3-3-2-3h1L3-3.7l1.4-2.2h1.1L3.5-3l2.1 3h-1L2.8-2.4 1.3 0H.2Zm0 0"/>  <path id="at" d="M3.7-6c.8 0 1.3.3 1.8.8.4.5.7 1.2.7 2.2 0 1-.3 1.8-.7 2.3-.5.7-1 .8-1.8.8-.4 0-.7 0-1.1-.1a2.2 2.2 0 0 1-.7-.8v3.4H1v-8.5h.7L2-5c.1-.4.3-.6.6-.7.3-.3.7-.3 1.1-.3Zm-.1.8c-.6 0-1 .2-1.3.5-.3.3-.4.9-.4 1.7.1.8.1 1.3.4 1.7.2.4.6.6 1.3.6.3 0 .6 0 .9-.3l.5-.8.2-1.2c0-.6-.2-1.2-.4-1.6-.3-.4-.8-.6-1.2-.6Zm0 0"/>  <path id="as" d="M5-5H3v5h-.8v-5h-2v-1H5Zm0 0"/>  <path id="ar" d="M3.3.1a3 3 0 0 1-1.4-.3 2.3 2.3 0 0 1-.9-1c-.2-.4-.3-1-.3-1.7s0-1.3.3-1.8c.2-.3.5-.8 1-1 .4-.2.8-.3 1.4-.3a4 4 0 0 1 1.5.3l-.3.8A6 6 0 0 0 4-5h-.7c-1.1-.2-1.7.5-1.7 2 0 .8.1 1.3.4 1.7.3.4.7.6 1.3.6L4-.8c.4 0 .6-.2.8-.3v.9a3 3 0 0 1-.6.2l-.9.1Zm0 0"/>  <path id="aq" d="M6 0 5-2.4H2L1 0H0l3-7.9h1L7 0ZM4.7-3.3 4-5.7a13.6 13.6 0 0 1-.5-1.2 9 9 0 0 1-.2.7l-.1.5-1 2.4Zm.1 0"/>  <path id="ap" d="M2.5-6c.7 0 1.2.1 1.5.4.5.3.7.6.7 1.1 0 .5-.1.7-.3 1l-.8.3.6.4c.2 0 .4.2.5.4l.2.8c0 .5-.2.9-.6 1.2-.4.4-1 .5-2 .5L1.4 0C.8 0 .5-.2.2-.3V-1l1.2.2.9.1c.6 0 1 0 1.3-.2.2-.2.3-.4.3-.8.1-.6-.5-1-1.6-1h-.9v-.8H2c.6 0 1 0 1.3-.2.3-.1.5-.3.5-.7 0-.2-.2-.4-.4-.6l-1-.2h-.8l-.8.5-.4-.9a5.2 5.2 0 0 1 2-.4Zm0 0"/>  <path id="ao" d="M5.7-4.4c0 .4-.1.6-.4.9l-.8.4a2 2 0 0 1 1 .4c.2.2.4.5.4 1s-.2.9-.6 1.2c-.4.3-1 .5-1.8.5H.9v-5.9h2.6c.4 0 .8 0 1 .2.5-.1.8.2 1 .4.1.2.2.5.2.9Zm-1 .1c0-.3-.1-.5-.3-.6l-1-.1H2v1.5h1.2c1 0 1.5-.2 1.5-.8Zm.2 2.6c0-.4-.2-.6-.4-.8l-1.2-.2H2v2h1.4c.4-.1.8-.2 1-.3.4 0 .6-.4.6-.7Zm0 0"/>  <path id="an" d="M4.4-5.9h1L3-3l2.7 3H4.6L1.9-3v3H1v-5.9h1V-3Zm0 0"/>  <path id="am" d="M1.8-5.9V-1l3.1-4.9h1.2V0h-.9v-4.9L2.3 0H.8v-5.9Zm0 0"/>  <path id="al" d="M5.3-5.9v5h.9v3.1h-1V0h-4v2H.1V-.8h.6a7.5 7.5 0 0 0 1.1-2.4c.3-.8.4-1.8.4-2.7Zm-1 .9H3.2l-.4 1.4c0 .6-.2 1-.4 1.6L1.7-.8h2.7Zm.1-.1"/>  <use xlink:href="#ak"/>  <path id="aj" d="M5.4 0h-1v-5H2.7c0 1-.2 2-.4 3-.2.6-.3 1.1-.7 1.5-.2.4-.6.5-1 .5H.1v-.7h.3C.8-.7 1-1 1.4-2c.1-.8.3-2 .4-3.9h3.6Zm0 0"/>  <path id="ai" d="M1-7.9h2.4c.9 0 1.6.2 2.1.5s.8.8.8 1.4c0 .6-.1.9-.4 1.3-.3.2-.6.4-1.1.4a3 3 0 0 1 .9.6c.3 0 .5.2.6.5.2.2.3.6.3 1 0 .7-.3 1.2-.8 1.6-.5.4-1.1.6-2 .6H1.1Zm1 3.4h1.6c.6 0 1-.1 1.4-.3 0-.2.3-.6.3-1s-.3-.7-.5-1L3.4-7H2Zm0 .8v2.9h1.7c.6 0 1.1-.2 1.4-.4.3-.4.4-.8.4-1.2 0-.3-.1-.6-.4-.9-.3-.3-.8-.4-1.5-.4Zm0 0"/>  <path id="ah" d="M7.4-6c.7 0 1.2.2 1.6.5.2.5.4.9.4 1.7V0h-1v-3.8c0-1-.4-1.4-1.2-1.4-.5 0-1 .2-1.2.5-.2.3-.4.8-.4 1.5V0h-1v-3.8c.1-1-.2-1.4-1-1.4-.7 0-1.1.2-1.4.6-.2.3-.2.8-.2 1.5V0H1v-5.9h.7L2-5c.1-.4.3-.6.7-.8l1-.2c.9 0 1.5.3 1.8 1l.8-.8L7.4-6Zm0 0"/>  <path id="ag" d="M5.9-5.9V0H5l-.1-.8c-.2.3-.5.6-.9.8a3 3 0 0 1-1 .1C2.2.1 1.7 0 1.3-.4 1.1-.7 1-1.3 1-2v-4h.9v4C1.8-1 2.2-.7 3.1-.7c.7 0 1.1-.2 1.4-.5.3-.4.5-1 .5-1.6v-3Zm0 0"/>  <path id="af" d="M5.5 0H1v-7.9h4.5v1H2v2.3h3.3v.9H2v2.8h3.5Zm0 0"/>  <path id="ae" d="M3.8-6c.7 0 1.2.2 1.6.5.3.5.5.9.5 1.7V0H5v-3.8c0-1-.4-1.4-1.3-1.4-.7 0-1.1.2-1.4.6-.3.3-.4.8-.4 1.5V0H1v-5.9h.7L2-5l.7-.8 1-.2Zm0 0"/>  <path id="ad" d="M6-3c0 1-.1 1.8-.6 2.3-.6.5-1.2.8-2.1.8-.5 0-1-.1-1.3-.3a2.5 2.5 0 0 1-1-1.2C.8-1.8.7-2.3.7-3c-.1-1 .3-1.7.6-2.2.5-.5 1.2-.8 2-.8.7 0 1 .1 1.5.4.4.2.7.5 1 1 0 .4.2 1 .2 1.6ZM1.7-3c-.1.7 0 1.3.3 1.7.3.4.7.6 1.3.6.7 0 1-.2 1.3-.6.4-.4.5-1 .5-1.7-.1-.6-.2-1.2-.5-1.6-.2-.4-.6-.6-1.3-.6-.6 0-1 .2-1.3.6-.3.4-.4 1-.4 1.6Zm-.1 0"/>  <path id="ac" d="M4.7 0H.4v-.6l3.2-4.5h-3V-6h4v.8L1.7-.7h2.9Zm0 0"/>  <path id="ab" d="M2-8.4v2A19.4 19.4 0 0 1 1.7-5H2a2 2 0 0 1 .6-.7c.3-.3.7-.3 1.1-.3.8 0 1.3.3 1.8.8.4.5.7 1.2.7 2.2 0 1-.3 1.8-.7 2.3-.5.7-1 .8-1.8.8-.4 0-.7 0-1.1-.1a2 2 0 0 1-.7-.8l-.4.8H1v-8.4Zm1.5 3.2c-.6 0-1 .2-1.2.6-.3.3-.4.9-.4 1.6.1.9.1 1.5.4 1.8.2.3.6.5 1.3.5.4 0 .9-.2 1.2-.6.2-.4.4-1 .4-1.7 0-1.4-.6-2.2-1.6-2.2Zm.1 0"/>  <use id="aa" xlink:href="#ak"/>  <path id="Z" d="M3.7-6h.7l-.2 1H4a2 2 0 0 0-.4-.2c-.3.1-.6.1-.8.2l-.8.8V0H1v-5.9h.7l.1 1 .9-.6c.3-.5.6-.5.9-.5Zm0 0"/>  <path id="Y" d="M3.5 0h-1v-7H.2v-.9H6v1H3.5Zm0 0"/>  <path d="M1 0v-7.9h4.6V0Zm.6-.6H5v-6.7H1.6Zm0 0"/>  <path id="X" d="m-.8 1.9.5-2.7h.5l1-1.4a24.6 24.6 0 0 0 1.5-3.4L3.3-7h3L4.8-.8h1l-.6 2.7h-.8L4.8 0H.4L0 1.9Zm2-2.7H4l1.2-5.5H4L3.5-5A26 26 0 0 1 2-2L1.2-.8Zm0 0"/>  <path d="M2.5 0C1.9 0 1.4 0 1-.4.7-.8.5-1.3.5-2l.1-1.2a4 4 0 0 1 .5-1.1c.3-.3.5-.7.9-.8.3-.2.7-.3 1.2-.3.6 0 1 .2 1.4.4.4.5.6 1.1.6 1.6L5-2a4 4 0 0 1-.5.9c-.2.5-.5.8-.8 1L2.5 0Zm0-.6c.5-.1.6-.1 1-.4.1-.2.3-.5.5-1 .2-.3.3-.8.3-1.4L4.2-4a1 1 0 0 0-.4-.5l-.6-.2c-.4 0-.7.1-1 .4-.2.2-.5.6-.6 1A4 4 0 0 0 1.4-2c0 .5 0 .8.3 1 .2.2.5.3.8.3Zm-1 .6H.7L0-.2V-1l.7.3h.8c.5.1.7.1 1-.1l.1-.7c.1-.1.1-.3-.1-.4 0-.2-.3-.3-.7-.5L1-3.1c-.2-.2-.3-.5-.3-.8 0-.5.1-.9.5-1.1.3-.3.7-.5 1.3-.5.3 0 .6 0 .9.2l.6.2-.2.7-.5-.2-.8-.1c-.3 0-.5 0-.7.2-.2.1-.2.3-.2.5l.1.5.7.5c.3 0 .6.2.6.4.2 0 .4.2.5.4l.1.7c0 .5-.2 1-.5 1.2C2.7 0 2 0 1.5 0ZM1 2.5H.4v-.8h.4c.5.2.8.1.8-.3 0-.2 0-.3-.2-.4H1l.4-1H2l-.3.6c.1 0 .3 0 .3.2.3.1.3.3.3.5 0 .3-.1.7-.3.8-.3.2-.6.3-1.1.3ZM.4 0 2-7.1h1.6c.9 0 1.5.1 2 .7.5.4.8 1.1.8 2.1a5 5 0 0 1-.5 2.2A3.7 3.7 0 0 1 4.5-.5C3.8-.2 3 0 2.2 0Zm1-.8h.9C3-.8 3.5-.9 4-1.2a3 3 0 0 0 1-1.3 4.2 4.2 0 0 0 .4-1.8c0-.7-.2-1.3-.4-1.6-.5-.3-1-.5-1.5-.5h-.8Zm.1 0"/>  <path id="W" d="M3.6-6c-.6 0-1-.3-1.2-.5-.4-.1-.4-.4-.4-.8a1 1 0 0 1 0-.3h.9v.3c-.1.2-.1.3.1.3 0 .3.3.3.7.3.3 0 .5 0 .7-.2.2-.1.4-.3.4-.7h.9c-.1.6-.3.8-.7 1.1-.3.3-.8.5-1.4.5ZM1.9 0c-.4 0-.7 0-1-.1C.7-.5.5-.8.5-1.2v-.5L.8-2l.6-3.4h.9L1.4-2v1.2l.8.2c.2 0 .4-.1.8-.4l.6-.6.5-1.4.5-2.4h.9L4.4 0h-.8l.1-1-.5.5-.4.5-.9.1Zm0 0"/>  <path id="V" d="m-.2 2.4 1.6-7.8h.7v1l.7-.6c.3-.3.7-.5 1-.5.5 0 .8.2 1 .5.5.3.6.8.6 1.4-.1.5-.1 1-.3 1.4L4.6-1l-.8.8a2 2 0 0 1-1.1.3C2.3 0 2 0 1.8-.2a2 2 0 0 1-.5-.6v.4L1 .1.7 2.4Zm2.8-3c.4 0 .5-.1.7-.4.3 0 .5-.3.7-.6a4 4 0 0 0 .3-1 5 5 0 0 0 .1-.9c0-.9-.3-1.2-.9-1.2-.2 0-.4 0-.5.2l-.8.7-.4 1c-.2.3-.2.7-.2 1.1 0 .3 0 .6.2.8.2.2.5.3.8.3Zm0 0"/>  <path id="U" d="M2.6 0C1.9 0 1.3 0 1-.4.6-.9.5-1.5.5-2.1c0-.6 0-1.2.3-1.7.2-.5.6-1 1-1.2.4-.3 1-.5 1.5-.5.7 0 1 .2 1.4.5.3 0 .3.5.3.9s0 .7-.3 1.1l-1 .2c.5.1.7.3.9.5.1.2.2.3.2.8l-.2.7c-.2.3-.4.5-.7.6-.3.2-.9.3-1.3.3ZM1.5-3h1l1-.1.5-.3c.2-.2.2-.4.2-.6 0-.2 0-.4-.2-.5l-.7-.2c-.3 0-.8.1-1.2.4-.3.3-.5.7-.6 1.3ZM2.7-.6c.3 0 .7-.1 1-.4l.1-.6C4-1.8 4-2 3.6-2l-1-.3H1.4v.2c0 .5 0 .9.3 1.1.3.3.6.4 1 .4Zm0 0"/>  <path id="T" d="M3.3 0c-.8 0-1.5 0-2-.5C1-1.1.8-1.8.8-2.6.7-3.1.7-3.5 1-4c-.1-.4 0-.8.3-1.2l.8-1L3-7l1.7-.2c.5 0 1.1.1 1.6.4l-.3.7a4 4 0 0 0-.7-.2l-.7-.2c-.6 0-1 .2-1.3.5-.4 0-.7.4-1 .8A4 4 0 0 0 1.9-4l-.2 1.3c0 .7.1 1.1.3 1.5.4.3 1 .5 1.4.5h.8L5-1v.8l-.8.2a5 5 0 0 1-1 0Zm0 0"/>  <path id="S" d="M2.4 0c-.6 0-1 0-1.4-.2C.8-.5.6-.9.6-1.4V-2a5 5 0 0 1 .2-.4l.6-3h.9L1.8-3l.5-.1h.5c.6-.1 1-.1 1.2.2.3.4.5.7.5 1.1s-.1.8-.3 1.1c-.1.2-.4.4-.7.5-.3.2-.7.3-1.1.3ZM5 0l1-5.4h1L5.8 0ZM2.4-.6c.4 0 .7-.1.9-.4a1 1 0 0 0 .3-.7l-.3-.6-.7-.1h-1v.6l-.2.3c.1.3.1.5.3.5.1.3.4.4.7.4Zm0 0"/>  <path id="R" d="m.3 0 1.1-5.3h1.2L3-1.1l2.5-4.2h1.2L5.6 0h-.8l.7-3 .1-.9.2-.6L3.3 0h-.7L2-4.5l-.3.7v.8L1 0Zm0 0"/>  <path id="Q" d="M.4 0 2-7.1h1L2-3.7 5.4-7h1.1L3-3.6 5.2 0h-1L2-3.5 1.3 0Zm0 0"/>  <use xlink:href="#P"/>  <use xlink:href="#O"/>  <path id="N" d="M.4 0 2-7.1h1.5c.8 0 1.3.1 1.7.5.3.3.5.8.5 1.3 0 .8-.3 1.5-.8 1.9-.6.4-1.3.6-2.4.6H2L1.3 0ZM2-3.5h.7c.6 0 1.1-.2 1.5-.5.4-.2.6-.7.6-1.3 0-.2-.2-.5-.4-.7-.2-.3-.4-.4-1-.4h-.7Zm0 0"/>  <use xlink:href="#M"/>  <path id="L" d="M1.8 0c-.3 0-.6 0-.8-.1C.7-.3.6-.6.6-1v-.8l.8-2.9h-1L.5-5l1-.5.5-1h.6l-.3 1h1.3l-.1.8H2.2l-.7 3v.8l.5.3h.3l.4-.3V0h-.9Zm0 0"/>  <path id="K" d="M-.3 2.4h-.3l-.4-.1v-.7h.7c.3.1.5.1.7-.1.2-.2.4-.5.5-.8l.4-.6-.8-5.5h.9l.3 2.7v.7l.2.7v.6A28.4 28.4 0 0 1 2.5-2c-.1 0 .1-.3.2-.4l1.5-3h1L1.7 1c-.1.4-.4.8-.7 1-.4.3-.8.4-1.2.4ZM2.4-6l.3-.7.4-.5.4-.5h1v.1L4-7l-.5.5a6 6 0 0 1-.6.4Zm-.1 0"/>  <use id="J" xlink:href="#O"/>  <path id="I" d="M.8 0 .6-5.4h.8l.1 2.9v1.7a13.8 13.8 0 0 1 .5-1l.2-.5 1.4-3h1v2.7a25.5 25.5 0 0 1 .2 1.8l.3-.9.4-1 1.2-2.7h1L5 0h-.9l-.2-3v-1.4l-.3.6-.4.8-1.4 3Zm0 0"/>  <use id="H" xlink:href="#P"/>  <path id="G" d="m.3 0 1.6-7.6h.9l-.8 3c.1.6 0 1-.2 1.3l-.1.5 2.5-2.6h1L3-3l1.4 3h-1L2.3-2.5l-.7.5-.4 2Zm0 0"/>  <path id="F" d="m.3 0 1.6-7.6h.9L1.2 0Zm0 0"/>  <use xlink:href="#E"/>  <path id="D" d="M.4 0 2-7.1h1.8c.6 0 1.2 0 1.5.3.4.3.7.8.7 1.3-.1.5-.3.9-.5 1.2-.3.3-.7.5-1.2.6l.7.5c.3.3.4.6.4 1 0 .5 0 .9-.3 1.2L4-.2 2.7 0Zm1.8-4h1.1l.9-.3.5-.4c.3-.2.3-.3.3-.7 0-.3-.1-.5-.3-.6-.2-.3-.7-.4-1-.4h-1ZM1.5-.9h1.2c.6.1 1 .1 1.3-.1.3-.4.5-.7.5-1.2 0-.3-.1-.6-.3-.8-.2-.3-.6-.4-1-.4H2Zm0 .1"/>  <path id="C" d="M2.4 0c-.6 0-1 0-1.3-.2C.8-.5.6-.9.6-1.5v-.4l.2-.5.6-3h.9L1.6-3A9.8 9.8 0 0 1 3-3.2c.5 0 1 .2 1.2.5.3.2.4.6.4.9 0 .4 0 .7-.2 1-.2.3-.4.5-.8.6-.3.2-.6.3-1.2.3Zm0-.5c.6-.1 1-.2 1.1-.5a1 1 0 0 0 .2-.7c0-.2 0-.3-.2-.5-.1-.2-.4-.2-.8-.2a5.6 5.6 0 0 0-1.1 0v.7l-.2.2c.1.2.1.4.3.5.1.3.3.4.8.4Zm.1-.1"/>  <path id="B" d="M0 0h-.4v-.8l.3.1C0-.7.3-.7.4-.9l.6-.7.3-1.2.5-1.1.4-.9.8-.5h1a4.5 4.5 0 0 1 1 .1L4 0h-.9l1-4.6h-1l-.5.8-.5 1.3L1.5-1c-.1.3-.3.6-.5.8C.7 0 .4 0 0 0Zm0 0"/>  <path id="A" d="M2.4 0c-.6 0-1 0-1.4-.4C.6-.9.5-1.5.5-2.2a7.4 7.4 0 0 1 .3-2.2l.5-1.2.7-1L3-7l.6-.3A34 34 0 0 1 5-7.5h.7l.1.5h-.7L4-6.5c0-.1-.3-.1-.5.1-.5.1-.9.4-1.1.8-.4.4-.7.9-.9 1.5a3 3 0 0 1 1-.6c.2-.2.5-.3.9-.3.6 0 1 .2 1.2.5.2.3.4.8.4 1.3L4.8-2c-.1.4-.2.8-.5 1-.2.5-.3.7-.7.9-.4.1-.7.2-1.2.2Zm0-.5c.5-.1.6-.2.9-.5a2 2 0 0 0 .4-.5l.3-.8v-.8c0-.4 0-.7-.2-.9-.1-.2-.3-.3-.6-.3l-.7.3-.6.4a4 4 0 0 0-.4.4v.6l-.2.5c.1.4.1.8.3 1 .2.4.5.6.9.6Zm.1-.1"/>  <path id="z" d="M2.5 0C1.9 0 1.4 0 1-.4.7-.8.5-1.3.5-2l.1-1.2a4 4 0 0 1 .5-1.1c.3-.3.5-.7.9-.8.3-.2.7-.3 1.2-.3.6 0 1 .2 1.4.4.4.5.6 1.1.6 1.6L5-2a4 4 0 0 1-.5.9c-.2.5-.5.8-.8 1L2.5 0Zm0-.6c.5-.1.6-.1 1-.4.1-.2.3-.5.5-1 .2-.3.3-.8.3-1.4L4.2-4a1 1 0 0 0-.4-.5l-.6-.2c-.4 0-.7.1-1 .4-.2.2-.5.6-.6 1A4 4 0 0 0 1.4-2c0 .5 0 .8.3 1 .2.2.5.3.8.3Zm0-.1"/>  <path id="y" d="M.2 0h-.4v-.7H0l.5-.1.4-.7c0-.2.1-.4.3-.5l.6-.4c-.3-.1-.6-.3-.8-.6a1.4 1.4 0 0 1-.2-.7c0-.3.2-.9.6-1.2.3-.3.9-.5 1.6-.5h2L4 0H3l.5-2.1h-.7c-.3 0-.5 0-.7.1l-.4.8-.4.7-.4.4-.7.2Zm2.5-2.8h1L4-4.6H2.8c-.3 0-.6 0-.8.3-.2.1-.3.3-.3.6s.1.7.3.7h.7Zm0-.1"/>  <path id="x" d="m.3 0 1.1-5.4h.9l-.6 2.6 2.5-2.6h1.1L2.7-2.7 4.5 0h-1L1.6-2.7 1.2 0Zm0 0"/>  <use id="w" xlink:href="#M"/>  <path id="v" d="m.3 0 1.1-5.4h.7v1l.4-.5.6-.4.7-.2c.4 0 .7.2.9.5.2 0 .3.4.3.7l.5-.5.6-.5.9-.2c.3 0 .6.2.9.5.1 0 .2.4.2.9v.4l-.1.4L7.4 0h-.9l.7-3.4v-.4l.2-.2c-.1-.3-.1-.4-.3-.5 0-.2-.1-.2-.5-.2-.2 0-.4 0-.6.2l-.7.8c-.3.3-.4.7-.5 1.3L4.3 0h-1l.9-3.4v-1.1c-.4-.2-.5-.2-.8-.2-.1 0-.3 0-.6.2l-.6.8c-.3.3-.4.7-.5 1.4L1.2 0Zm0 0"/>  <path id="u" d="M2.5 0C1.9 0 1.4 0 1-.3.7-.7.5-1.2.5-2c0-.4 0-1 .2-1.3l.5-1c.3-.5.6-.7 1-1 .2-.1.6-.2.9-.2l.9.1.6.2-.2.7-.5-.1-.6-.1c-.4 0-.7.1-1 .4-.3.2-.5.6-.7 1A4 4 0 0 0 1.4-2c0 .5 0 .8.3 1 .2.2.5.3.9.3h.6a7 7 0 0 0 .6-.3v.8l-.6.2h-.7Zm0 0"/>  <path id="t" d="M1.9 0c-.4 0-.7 0-1-.1C.7-.5.5-.8.5-1.2v-.5L.8-2l.6-3.4h.9L1.4-2v1.2l.8.2c.2 0 .4-.1.8-.4l.6-.6.5-1.4.5-2.4h.9L4.4 0h-.8l.1-1-.5.5-.4.5-.9.1Zm0 0"/>  <path id="s" d="M2 0H1L.5-.5C.3-.7.2-.9.2-1.3c.1-.3.1-.6.4-.7l.6-.7L2-3a6 6 0 0 0 1-.5c.3-.2.4-.5.4-.7l-.1-.4-.7-.1a3 3 0 0 0-.7 0c-.2.3-.5.3-.7.4L1-5l.8-.3 1-.2c.4 0 .8.1 1 .3.4.2.6.6.6 1-.1.3-.1.6-.4.8a2 2 0 0 1-.6.4l-.8.5c-.3 0-.5.2-.8.3l-.5.4-.2.5c0 .2.1.3.3.5l.6.2c.4 0 .6 0 1-.2l.6-.2v.7L3 0a4 4 0 0 1-1.1 0Zm0 0"/>  <path id="r" d="m.3 0 1.1-5.4h.9L1.8-3h2.5l.5-2.4h.9L4.6 0h-1l.7-2.4H1.7L1.2 0Zm0 0"/>  <use id="q" xlink:href="#E"/>  <path id="p" d="M.4 0 2-7.1h1.2l.7 5.8 3.2-5.8h1.3L7 0H6l1-4.2a47.9 47.9 0 0 1 .4-2L4 0h-.7l-.8-6.3-.1.6-.1.7-.1.7-1 4.3Zm0 0"/>  <path d="M1 0v-7.1h4V0Zm.4-.5h3.1v-6.1h-3Zm2 .6C2.6.1 2 0 1.5-.6 1.1-1.1.8-2 .8-2.8v-5.6h1v5.7c0 .6.1.9.4 1.4.2.3.7.5 1.2.5.4.1.7.1 1-.1l.4-.7.2-1v-.6L4.5-4a8.2 8.2 0 0 1-.5-.8l-.2-1h1c0 .1 0 .4.2.8l.4.7.6.8v1c0 .5 0 1-.3 1.4-.2.4-.5.7-.9.9-.4.2-.8.3-1.4.3Zm4.3 2.7a3.3 3.3 0 0 0-1.4-1.4 4.2 4.2 0 0 0-3-.2l-.9.4L2 1l.7-.4.8-.1A5.2 5.2 0 0 1 2-.3a3.4 3.4 0 0 1-1-1.1C.7-1.9.6-2.5.6-3.2c0-.9.2-1.5.6-2 .3-.5.8-.8 1.6-.8.4 0 .7 0 1 .3l.5.7.7-.7c.2-.3.6-.3 1-.3s.8 0 1 .3c.3.2.5.4.6.7l.6-.7c.3-.3.6-.3 1-.3.5 0 .9.1 1.2.4.3.2.6.6.6 1 .3.6.4 1 .4 1.6 0 .4 0 .9-.2 1.3a5 5 0 0 1-.4 1.2l-.9-.3.4-1V-3c.1-.8.1-1.3-.3-1.7-.2-.3-.5-.5-.9-.5-.3 0-.6.1-.8.4l-.2 1V-2H7v-1.8c.2-.4.2-.7 0-1-.3-.3-.6-.4-1.1-.4-.2 0-.5.1-.7.4-.2.2-.4.6-.4 1V-2H4v-1.8c0-.4 0-.7-.3-1-.2-.3-.5-.4-.9-.4-.3 0-.7.2-.8.5-.3.3-.4.7-.4 1.5 0 .5 0 1 .2 1.2a3 3 0 0 0 .7 1.1c.3.2.6.5 1 .6l1.1.4c.5-.1 1 .2 1.5.4l1.4.7c.4.3.7.8 1 1.2ZM1.3 0a8.3 8.3 0 0 1-.5-1.5A7.1 7.1 0 0 1 .6-3c0-1 .2-1.7.7-2.2.3-.5 1-.8 1.8-.8.9 0 1.5.3 1.9.8.5.5.7 1.3.7 2.2 0 .5 0 1-.2 1.5 0 .5-.2 1-.5 1.5H4l.6-1.5.1-1.5c0-.8-.1-1.3-.4-1.7-.3-.3-.7-.5-1.1-.5-.5 0-1 .2-1.2.5-.3.4-.4 1-.4 1.7l.1 1.5.7 1.5ZM4-6c.6.2 1 .5 1.5 1 .4.5.5 1.2.5 2 0 1-.2 1.8-.7 2.3-.5.5-1.1.8-2 .8-.5 0-1-.1-1.3-.3a2.5 2.5 0 0 1-1-1.2C.8-1.8.7-2.3.7-3c-.1-.9.1-1.6.6-2 .3-.6 1-1 1.7-1l.1-.2V-7l-.3-.2a3.4 3.4 0 0 1-.4-.4C2.2-7.8 2-8 2-8.4h1.1l.1.5.3.3a4 4 0 0 1 .5.4l.1.6L4-6ZM3.3-.7c.7 0 1-.2 1.3-.6.4-.4.5-1 .5-1.7-.1-.6-.2-1.2-.5-1.6-.2-.4-.6-.6-1.3-.6-.6 0-1 .2-1.3.6-.3.4-.4 1-.4 1.6 0 .7.1 1.3.4 1.7.3.4.7.6 1.3.6Zm-.2.8c-.5 0-.9-.1-1.3-.3L1-1.4C.7-1.8.6-2.3.6-3c0-1 .2-1.7.7-2.2.5-.5 1-.8 1.8-.8l1.2.3c.3.2.6.5.7 1h.1C5.4-5.7 6-6 7-6c.4 0 .8.1 1 .4.4.2.7.5.8 1 .2.4.3.9.3 1.5S9-2 8.9-1.5L8.4 0h-1c.3-.5.4-1 .6-1.5L8.1-3C8-3.8 8-4.3 7.8-4.7c-.3-.3-.6-.5-1-.5-.2 0-.5.1-.8.4-.3.3-.4.7-.4 1.3v.5c0 1-.2 1.8-.6 2.3-.5.5-1 .8-1.9.8Zm0-.8c.5 0 1-.2 1.1-.6.3-.4.5-1 .5-1.7-.1-.6-.2-1.2-.4-1.6C4-5 3.5-5.2 3-5.2s-.8.2-1 .6c-.3.4-.4 1-.4 1.6 0 .7.1 1.3.4 1.7.2.4.6.6 1 .6ZM1 0v-7.9h4.6V0Zm.6-.6H5v-6.7H1.6Zm0 0"/>  <path id="o" d="M3.3-6.6v.3l-.8 1.5A7 7 0 0 0 2-3.6l-.2 1.1c0 .7.2 1.1.4 1.5.3 0 .8.3 1.2.3s.9-.3 1.2-.7c.3-.3.4-.9.4-1.6v-3h1v6h-.7l-.1-1H5l-.6.8C4 0 3.6 0 3 0c-.6.1-1.2 0-1.6-.5C1-1 .8-1.5.8-2.4v-1a6 6 0 0 1 .6-1.4L2.3-6l-.7-.5c-.5-.3-.8-.7-.8-1.2 0-.2 0-.5.2-.8l.4-.7.8.4-.2.5-.2.5c0 .3.2.5.5.7Zm0 0"/>  <path id="n" d="M8-6c.7 0 1.2.2 1.6.5.4.5.6 1 .6 1.7V0h-1v-3.6c-.1-.4-.2-.9-.5-1.1-.3-.3-.5-.5-.9-.5-.5.1-1 .2-1.2.6-.3.4-.6 1-.6 1.7V0h-.7L5-1c-.1.3-.3.6-.7.8-.3.2-.7.2-1.2.2C2.5.1 2 0 1.5-.4c-.3-.4-.5-1-.5-1.7V-6h1v3.7c0 .5.2.9.4 1.2.2.1.6.4 1 .4.5-.1.9-.3 1.2-.7.3-.3.4-.9.4-1.6v-3h1v1.2l.9-.9c.2-.2.6-.3 1.1-.3Zm0 0"/>  <path id="m" d="M6.1-6v6h-.8L5-1c-.1.3-.3.6-.7.8-.3.2-.7.2-1.2.2C2.5.1 2 0 1.5-.4c-.3-.4-.5-1-.5-1.7V-6h1v3.7c0 .5.2.9.4 1.2.2.1.6.4 1 .4.5-.1.9-.3 1.2-.7.3-.3.4-.9.4-1.6v-3Zm0 0"/>  <path id="l" d="M1-1.7v-4.2h1.1v4.5l.1.6.2.6.1.7.1.5c0 .6-.2 1-.5 1.4-.3.3-.7.5-1.3.5H.5V2h.2c.2 0 .3 0 .6-.2.2-.2.2-.4.2-.8 0-.2 0-.7-.2-1C1-.5 1-1.1 1-1.7Zm0 0"/>  <path id="k" d="M3 .1C2.5.1 2 0 1.6-.4 1.2-.8 1-1.4 1-2v-4h1v3.9c0 .3.2.7.4.8.2.5.6.6 1 .6.3-.1.7-.2 1-.6.4-.3.6-.9.6-1.6v-3h1v3.7c0 .4.1.8.4.9.2.5.5.6.9.6.5-.1.7-.2 1.2-.6.3-.3.4-.9.4-1.6v-3H10V0h-.7L9-1l-.7.8C8 0 7.6 0 7 0c-.4.1-.8.1-1-.2-.4-.1-.7-.4-.8-.8-.2.3-.6.6-1 .8-.2.2-.7.3-1.1.3Zm0 0"/>  <path id="j" d="m.5-1 1-5c.2-.9.5-1.6 1-2 .5-.5 1.2-.7 2-.7.5 0 .9 0 1.1.2a3 3 0 0 1 1 .4l-.6.8a2.6 2.6 0 0 0-.7-.4h-.7c-.6-.1-1-.1-1.4.3-.2.4-.5.9-.7 1.7l-.8 4 2.8.5c.6.1 1 .3 1.3.6.2.3.4.7.4 1.2V1H5V.7c0-.2 0-.4-.1-.7-.2 0-.4-.3-.7-.3L1.6-.8Zm0 0"/>  <path d="M1.1 0v-8.6h5V0Zm.6-.6h3.8V-8H1.7Zm-.3.6a9.6 9.6 0 0 1-.6-1.6 7.6 7.6 0 0 1-.1-1.7C.7-4 .7-4.5.9-5s.5-.9.8-1.1c.4-.3.9-.4 1.4-.4.4 0 .8 0 .9.3.6.2.8.4.9.8.1-.4.3-.6.6-.8.3-.2.5-.3 1-.3.6 0 1 0 1.5.4.3.1.5.6.7 1.1.2.5.3 1 .3 1.7 0 .6 0 1.2-.2 1.7L8.2 0h-.9a8.8 8.8 0 0 0 .4-1.6A8 8 0 0 0 8-3.3c0-.8-.2-1.4-.5-1.8-.2-.4-.5-.6-1-.6s-.7.2-.9.4c-.2.3-.3.7-.3 1.3v1.9h-1v-2.1c0-.4 0-.8-.3-1 0-.3-.4-.5-.8-.5-.5 0-.8.2-1 .7-.4.3-.6 1-.6 1.7.1.6.1 1.2.4 1.7L2.5 0Zm7 3a3.5 3.5 0 0 0-1.5-1.4 4.6 4.6 0 0 0-2-.4l-1.3.1-1 .5-.4-.8.8-.3a4 4 0 0 1 .8-.2 6 6 0 0 1-1.6-.8 4 4 0 0 1-1.1-1.3C.8-2 .7-2.8.7-3.6s.2-1.5.6-2c.4-.7 1-.9 1.7-.9.5 0 .8 0 1.1.3.3.2.5.4.6.8.3-.4.5-.6.8-.8.2-.2.6-.3 1-.3.5 0 .9 0 1.2.3l.6.8c.2-.4.4-.6.7-.8.2-.2.6-.3 1-.3.6 0 1 0 1.3.4.4.1.7.6.8 1.1.2.5.3 1 .3 1.7a5.8 5.8 0 0 1-.7 2.7l-.9-.3.4-1.2.1-1.2c0-.8-.1-1.4-.3-1.8-.3-.4-.6-.6-1-.6s-.7.2-1 .4c0 .3-.2.7-.2 1.3v1.9h-1v-2.1c0-.4-.1-.8-.3-1-.2-.3-.5-.5-1-.5-.4 0-.7.2-1 .4L5.4-4v1.9H4.3v-2.1c0-.4-.1-.8-.3-1-.2-.3-.5-.5-1-.5s-.7.2-.9.7c-.2.2-.4.7-.4 1.5 0 .5.1 1 .3 1.4.2.4.4.8.8 1.1.2.4.6.6 1 .8A6 6 0 0 0 5 0l1.7.6 1.3.7c.6.4 1 .8 1.1 1.3Zm-5 0a3 3 0 0 1-1.5-.4 2.5 2.5 0 0 1-.9-1C.7 1.3.6.8.6.3a3 3 0 0 1 0-.8A5 5 0 0 1 .9-1h.9l-.1.5v.6c0 .5.1.9.3 1.4.4.5.8.6 1.4.6.6 0 1-.1 1.3-.6C5 1.1 5 .5 5 0v-3.8c0-.6 0-1-.3-1.4-.2-.3-.6-.5-1.1-.5-.6 0-.9.2-1.2.4C2.1-5 2-4.6 2-4v.4l.1.4h-1L1-3.6v-.5c0-.5 0-1 .3-1.4.2-.3.6-.5 1-.8a3 3 0 0 1 1.2-.2c.9 0 1.5.2 2 .7.4.4.7 1.1.7 2v3.7c0 1.1-.3 1.8-.8 2.3-.4.5-1.2.8-2 .8Zm.1 0c-.6 0-1.1-.1-1.5-.3a2.5 2.5 0 0 1-1-1C.7 1.3.6 1 .6.4a3 3 0 0 1 0-.7 4 4 0 0 1 .3-.5h.9l-.1.5v.6l.1.9.7.7 1 .1c.4.1.7.1 1-.2.3-.1.5-.4.6-.7l.2-1c0-.5-.3-1-.5-1.3-.3-.4-.8-.6-1.4-.6h-.5v-.7h.6c.5-.1 1-.3 1.2-.6.3-.3.4-.7.4-1.1-.1-.4-.2-.8-.4-1-.3-.3-.7-.5-1.1-.5-.6 0-1 .2-1.2.4-.2.3-.4.6-.4 1v.4l.2.3H1.1a2.6 2.6 0 0 1-.1-.7 2 2 0 0 1 .3-1.2c.2-.3.5-.5 1-.8a3 3 0 0 1 1.2-.2c.5 0 1 0 1.4.3.4 0 .7.4.9.7a2 2 0 0 1 .3 1.2c0 .6-.1 1-.4 1.4-.3.3-.7.6-1.2.7.3 0 .5.2.9.4.3.2.5.4.6.8.3.3.4.7.4 1.2A3 3 0 0 1 6 1.7c-.2.3-.6.7-1 1-.4.1-1 .3-1.5.3ZM3.4.1C2.9.1 2.4 0 2-.3c-.4-.2-.7-.6-1-1.1C.8-2 .7-2.5.7-3.2c0-1.1.2-2 .7-2.5.6-.6 1.2-.8 2-.8.4 0 .9 0 1.3.3.3.2.6.6.8 1 .4-.9 1.1-1.3 2.1-1.3.6 0 1 0 1.4.4.2.1.5.6.6 1 .2.6.4 1.1.4 1.8 0 .5 0 1.2-.3 1.7L9.2 0H8a8.8 8.8 0 0 0 .7-1.6 8 8 0 0 0 .1-1.7c0-.8 0-1.4-.3-1.8-.3-.4-.6-.6-1-.6s-.8.2-1 .5c-.3.2-.4.7-.4 1.2v.8c0 1-.1 1.9-.7 2.5-.5.4-1.2.7-2 .7Zm0-.8c.6-.1 1-.3 1.2-.7.4-.6.4-1 .4-1.8S5-4.6 4.6-5c-.2-.4-.6-.7-1.2-.7s-1 .3-1.4.7c0 .4-.3 1-.3 1.8.1.7.3 1.2.6 1.8.1.4.5.6 1.1.6ZM1.4 0a8.5 8.5 0 0 1-.6-1.6 7.6 7.6 0 0 1-.1-1.7v-.5c0-1.4.2-2.6.8-3.4C2-8 2.8-8.5 3.8-8.7L5.2-9l1.3-.2.2.9-1 .1-.8.2A88 88 0 0 0 4-8l-1 .5-.7.5-.5 1.3c.1-.5.4-.6.6-.8h.7c.4 0 .9 0 1 .3.4.2.6.4.8.8.1-.4.3-.6.6-.8.2-.2.5-.3 1-.3.6 0 1 0 1.5.4.2.1.5.6.7 1.1.2.5.3 1 .3 1.7 0 .6 0 1.2-.2 1.7L8.2 0h-1a9.3 9.3 0 0 0 .5-1.6l.2-1.7c0-.8-.1-1.4-.4-1.8-.2-.4-.5-.6-1-.6s-.8.2-1.1.4v3.2H4.3v-2.1c0-.4-.1-.8-.3-1-.2-.3-.5-.5-.9-.5s-.8.2-1 .7c-.3.3-.4 1-.4 1.7 0 .6 0 1.2.3 1.7L2.5 0Zm2 3a3 3 0 0 1-1.5-.4 2.5 2.5 0 0 1-.9-1C.7 1.3.6.8.6.3a3 3 0 0 1 0-.8A5 5 0 0 1 .9-1h.9l-.1.5v.6c0 .5.1.9.3 1.4.4.5.8.6 1.4.6.6 0 1-.1 1.3-.6C5 1.1 5 .5 5 0v-3.1c0-.9 0-1.6-.3-2.1-.2-.2-.6-.4-1.3-.4-.4-.1-.7.1-1 .3C2.1-5 2-4.6 2-4v.4l.1.4h-1L1-3.6v-.5c0-.5 0-1 .3-1.4.2-.3.5-.5.9-.8.3-.2.7-.2 1.1-.2.4 0 .8 0 1 .2l.8.7a29.6 29.6 0 0 1 .1-1V-9H6v8.9c.2 1.1 0 1.8-.5 2.3-.5.5-1.3.8-2.1.8ZM3.3.1c-.5 0-1 0-1.4-.3A2.3 2.3 0 0 1 1-1C.8-1.3.7-1.8.7-2.3v-.5l.1-.4h1l-.1.4v.5c0 .5.1.9.3 1.2.4.1.8.4 1.3.4S4-1 4.4-1.3c.3-.1.4-.5.4-1.1 0-.4 0-.6-.2-1A4.3 4.3 0 0 0 4-4l-.6-.7a3.4 3.4 0 0 1-.5-.8 2.4 2.4 0 0 1-.2-1h1c.1.5.3.8.5 1.1l.5.6.6.8.4.6c.3.4.3.6.3 1 0 .5-.2 1-.4 1.4l-1 1a3 3 0 0 1-1.3 0Zm.5 0C2.8.1 2 0 1.5-.7 1.1-1.3 1-2.1 1-3.1v-6h1V-3c0 .7.2 1.2.5 1.6.2.4.5.6 1.3.6.2 0 .7 0 1-.2.2-.2.3-.4.4-.8l.3-1a2 2 0 0 0-.2-.8 3.5 3.5 0 0 0-.3-.7 8.8 8.8 0 0 1-.6-1c-.2-.1-.2-.5-.2-1h1c0 .2 0 .5.2.9l.6.6a4 4 0 0 1 .4 1l.2 1c0 .7-.1 1.2-.4 1.7-.2.3-.5.6-1 .9a3 3 0 0 1-1.5.2ZM1.1 0v-8.6h5V0Zm.6-.6h3.8V-8H1.7Zm0 0"/>  <path id="h" d="M3.6.1C3 .1 2.6.1 2-.2s-.7-.6-1-1.1C.7-1.8.6-2.4.6-3.2c.1-.8.1-1.4.4-2 .3-.3.7-.8 1.1-.9.5-.3 1-.4 1.6-.4h1a3 3 0 0 1 .6.4l-.3.8a7 7 0 0 0-.6-.2 3 3 0 0 0-.8-.1c-1.2 0-1.9.8-1.9 2.4.1.8.3 1.4.6 1.8.2.4.7.6 1.3.6l1-.1.6-.3v1l-.7.2-1 .1Zm0 0"/>  <path id="g" d="M0-6.4h1.1l1.4 3.6.5 1A8 8 0 0 1 3-1l.3-.8.4-1L5-6.4h1L3.3.9c-.2.6-.5 1-.8 1.4-.5.4-.9.7-1.5.7H.5l-.4-.3v-.8h.4l.3.1c.4 0 .7 0 1-.3a2 2 0 0 0 .4-.8l.4-.9Zm0 0"/>  <path id="f" d="M3.5-6.5c.7 0 1.3.1 1.7.5.4.3.6.9.6 1.6V0H5l-.2-1c-.4.5-.7.8-1.1 1H2.6C2 .1 1.6 0 1-.3.7-.6.5-1.1.5-1.8c0-.6.3-1.1.8-1.5.5-.3 1.3-.5 2.3-.5h1.1v-.6c0-.4 0-.8-.3-.9-.4-.4-.6-.5-1-.5a3 3 0 0 0-1 .3c-.3 0-.6.2-.8.3L1.3-6l1-.4 1.2-.1Zm1.2 3.4h-1c-.7 0-1.2.1-1.5.4-.4.2-.6.5-.6 1 0 .2.1.5.4.7.2.2.5.3.8.3.6 0 1-.3 1.4-.5.3-.3.5-.7.5-1.4Zm0 0"/>  <path id="e" d="M2-9.1V-7a23.4 23.4 0 0 1 0 1.4l.9-.7c.2-.2.7-.2 1.2-.2.8 0 1.4.2 1.9.8.5.6.7 1.4.7 2.5 0 1-.2 2-.7 2.5-.5.5-1.1.7-2 .7-.3.1-.8.1-1.1-.2a2.6 2.6 0 0 1-.8-.6H2l-.2.8H1v-9.1Zm2 3.4c-.8 0-1.3.2-1.5.7-.3.3-.5 1-.5 1.7v.2c0 .7.2 1.3.5 1.7.2.4.7.6 1.4.6.6 0 1.1-.2 1.3-.6.3-.4.4-1 .4-1.8C5.6-4.8 5-5.7 4-5.7Zm-.1 0"/>  <path id="c" d="M3-6.5c.6 0 1.2 0 1.6.3.5.3.9.6 1.1 1.2.3.4.4 1 .4 1.7S6-2 5.8-1.5c-.3.5-.6 1-1 1.2-.5.3-1 .4-1.5.4-.6 0-1-.1-1.5-.3a2.4 2.4 0 0 1-.8-1C.7-1.8.6-2.3.6-2.9v-.5H5c0-.7-.2-1.3-.5-1.7-.5-.4-.9-.6-1.5-.6-.4 0-.8 0-1.1.2l-1 .3v-1L2-6.3l1-.2Zm2 4H1.7c0 .5.3.9.4 1.2.2.3.6.5 1.2.5.5 0 .9 0 1.2-.3.3-.5.4-.9.5-1.5Zm0-.1"/>  <path id="b" d="M5.2 0H.5v-.7l3.4-5H.7v-.6H5v.7L1.7-.8h3.5Zm0 0"/>  <path id="a" d="m6.5 0-1-2.7H2.1L1.1 0H0l3.3-8.6h1L7.7 0ZM5.2-3.6l-1-2.6-.1-.3-.2-.6v-.4a10.6 10.6 0 0 1-.6 1.3l-.9 2.6Zm0 0"/>  <path id="i" d="M4.1-6.5c.9 0 1.4.1 1.7.5.4.4.6 1 .6 1.8V0h-1v-4.1c0-1-.4-1.6-1.4-1.6-.8 0-1.2.2-1.5.7-.3.3-.5 1-.5 1.7V0H1v-6.4h.8l.2.8 1-.7c.3-.2.7-.2 1-.2Zm0 0"/>  <path d="M3.5-6.5c.6 0 1 0 1.4.3l1.1 1c0 .5.1 1 .1 1.6v.6H1.7c.1.7.3 1.3.7 1.7.3.3.8.5 1.4.5h1l1.1-.5v1c-.3.2-.6.3-1 .3l-1 .1A3.4 3.4 0 0 1 2-.2a2.6 2.6 0 0 1-.9-1.2c-.4-.4-.5-1-.5-1.8.1-.7.1-1.3.4-1.8s.6-.9 1-1c.4-.4 1-.5 1.5-.5Zm0 .8c-.5 0-1 .2-1.2.5-.3.3-.5.8-.5 1.3H5c0-.5 0-1-.3-1.3-.3-.3-.7-.5-1.2-.5ZM8-6.5c.9 0 1.4.1 1.8.5.3.4.5 1 .5 1.8V0H9.2v-4.1c0-1-.4-1.6-1.3-1.6-.6 0-1 .2-1.4.7-.2.2-.3.8-.3 1.5V0h-1v-4.1c-.1-1-.6-1.6-1.5-1.6-.6 0-1 .2-1.3.7-.2.3-.3 1-.3 1.7V0H1v-6.4h.8l.2.8 1-.7c.2-.2.6-.2.9-.2 1.1 0 1.8.3 2.1 1 .2-.3.5-.5 1-.8.3-.2.7-.2 1-.2ZM2-9.1v5.8l.4-.3.2-.4.2-.3 2-2.1h1.4L3.5-3.7 6.3 0H5L2.8-3l-.7.6V0H1v-9.1Zm0 0"/>  <path id="d" d="M4-6.5h.8l-.2 1H4c-.4-.1-.7-.1-1 .1a2 2 0 0 0-.7.8l-.2 1.2V0H1v-6.4h.8L2-5.2l.8-1.1L4-6.5Zm0 0"/>  <path d="M6.4-6.4V0h-.9l-.1-.9c-.4.4-.7.6-1.1.9a3 3 0 0 1-.9 0c-.9.1-1.5 0-1.9-.4-.4-.4-.5-1-.5-1.8v-4.2h1v4.1c0 1 .5 1.5 1.4 1.5.8 0 1.2 0 1.6-.5.2-.4.3-1 .3-1.8v-3.3ZM2-8.2c0-.2 0-.3.2-.4l.4-.2c.1 0 .3 0 .4.2l.2.4-.2.5a.6.6 0 0 1-.4.1l-.4-.1-.2-.5Zm2.3 0 .1-.4.4-.2c.2 0 .3 0 .4.2l.2.4c0 .2 0 .4-.2.5l-.4.1-.4-.1-.1-.5ZM3.9 0H2.8v-7.6H.1v-1h6.4v1H4ZM1.1 0v-8.6h5V0Zm.6-.6h3.8V-8H1.7Zm0 0"/> </defs> <image xlink:href="svg/6/1_0.jpg" width="497" height="279"/> <path d="m213.3 239.4-1-2.6h-3.6l-.9 2.6h-1l3.2-8.6h1l3.3 8.6zm-1.4-3.6-.9-2.6v-.2l-.4-.6-.1-.4a10.6 10.6 0 0 1-.3 1.2l-1 2.6zm8.1 3.6h-4.5v-.7l3.3-4.9h-3.2v-.8h4.4v.8l-3.4 4.8h3.4zm4-6.5c.8 0 1.3.1 1.8.4.2.2.7.6.9 1 .3.7.5 1.3.5 2s-.1 1.2-.4 1.7c-.2.5-.6.9-1 1.2-.4.2-1 .4-1.5.4s-1-.2-1.4-.4a2.4 2.4 0 0 1-1-1c-.1-.4-.2-1-.2-1.5v-.7h4.4c-.1-.7-.3-1.3-.6-1.6-.5-.4-.9-.6-1.5-.6l-1 .1c-.5.1-.8.2-1 .3v-.9l1-.3h1zm2 4h-3.2c0 .5 0 1 .2 1.3.4.3.8.5 1.3.5s1-.2 1.2-.5c.3-.2.5-.8.5-1.2zm6.3-4h.8l-.2 1.1h-.6c-.4-.1-.7-.1-1 0a2 2 0 0 0-.7 1l-.2 1v3.4h-1V233h.7l.2 1.2.9-1 1.1-.2zm3.5-2.6v2.2a24 24 0 0 1 0 1.5l.8-.8c.3-.2.7-.3 1.2-.3.8 0 1.5.3 2 .8.3.6.6 1.4.6 2.5s-.2 2-.7 2.5c-.4.6-1 .9-1.9.9-.5 0-.8-.1-1.2-.3a2.6 2.6 0 0 1-.8-.7l-.4.8h-.6v-9zm1.9 3.5c-.7 0-1.2.2-1.5.6-.2.4-.4 1-.4 1.8s.2 1.4.4 1.9c.3.4.8.6 1.5.6.6 0 1-.2 1.3-.6.2-.5.4-1.1.4-1.9 0-1.6-.6-2.4-1.7-2.4zm7.3-.9c1 0 1.6.2 1.9.5.3.4.5 1 .5 1.7v4.3h-.8l-.2-.9c-.4.5-.6.6-1 .8-.1.2-.5.3-1.1.3s-1.1-.2-1.5-.6c-.4-.2-.6-.7-.6-1.3 0-.7.2-1.2.7-1.5.5-.4 1.3-.6 2.4-.6h1v-.4c.1-.6.1-1-.3-1.2-.2-.1-.5-.2-1-.2a3 3 0 0 0-1 .1l-.7.3-.3-.7 1-.5 1-.1zm1.5 3.4h-1.1c-.8 0-1.4.2-1.7.4-.3.3-.4.6-.4 1 0 .3 0 .6.3.8l.9.2c.5 0 1-.1 1.3-.4.4-.3.6-.8.6-1.4zm2.4-3.3h1.1l1.4 3.7.3.9a8 8 0 0 1 .3.8l.2-.8.3-1 1.5-3.6h1l-2.8 7.3c-.2.7-.5 1.1-.9 1.5-.3.2-.8.5-1.3.5h-1v-1.1l.3.3h.4c.4 0 .7 0 1-.3a2 2 0 0 0 .3-.9l.5-.8zm10.1 6.6c-.4 0-1-.1-1.3-.4-.7-.2-.9-.6-1.1-1-.4-.7-.6-1.2-.6-2.1.1-.5.3-1.2.5-1.7.3-.6.7-.9 1.1-1.1.5-.3 1-.5 1.6-.5l.8.2a3 3 0 0 1 .9.2l-.4 1-.5-.4a3 3 0 0 0-1 .2c-1-.2-1.8.5-1.8 2.2 0 .8.2 1.4.5 1.8.3.4.8.6 1.4.6h.9l.6-.4v1.1l-.6.1h-1zm6.2-6.7c.8 0 1.4.2 1.8.5.3.4.5 1 .5 1.7v4.3h-.8l-.2-.9-.9.8c-.3.2-.7.3-1.3.3-.6 0-1-.2-1.3-.6-.5-.2-.7-.7-.7-1.3 0-.7.3-1.2.8-1.5.5-.4 1.2-.6 2.3-.6h1v-.4c.1-.6.1-1-.2-1.2-.2-.1-.6-.2-1.1-.2a3 3 0 0 0-1 .1l-.7.3-.4-.7 1-.5 1.2-.1zm1.3 3.4h-1c-.8 0-1.3.2-1.7.4-.3.3-.4.6-.4 1 0 .3.1.6.3.8l.9.2c.4 0 1-.1 1.3-.4.4-.3.6-.8.6-1.4zm6.5-3.4c1 0 1.5.2 1.9.6.3.3.5 1 .5 1.8v4.1h-1v-4c0-1.2-.5-1.7-1.5-1.7-.7.1-1.2.3-1.4.7-.3.4-.5 1-.5 1.6v3.4h-1V233h.9l.1 1 1-1h1zm0 0" style="fill:none;stroke:#fff;stroke-width:3;stroke-linecap:butt;stroke-linejoin:round;stroke-miterlimit:10;stroke-opacity:.6" transform=" rotate(  340 241.942 236.446) "/> <g style="fill:#633d63;fill-opacity:1" transform=" rotate(  340 241.942 236.446) ">  <use xlink:href="#a" x="206.7" y="239.4"/>  <use xlink:href="#b" x="214.9" y="239.4"/>  <use xlink:href="#c" x="221" y="239.4"/>  <use xlink:href="#d" x="228.3" y="239.4"/>  <use xlink:href="#e" x="233.8" y="239.4"/>  <use xlink:href="#f" x="241.6" y="239.4"/>  <use xlink:href="#g" x="248.9" y="239.4"/>  <use xlink:href="#h" x="255.5" y="239.4"/>  <use xlink:href="#f" x="261.8" y="239.4"/>  <use xlink:href="#i" x="269" y="239.4"/> </g> <path d="m116.7 242.5 1-5c0-.8.4-1.5.9-1.9.6-.6 1.2-.8 2.1-.8.4 0 .7 0 1 .2a3 3 0 0 1 1 .4l-.7.8a2.6 2.6 0 0 0-.6-.2l-.7-.3c-.6 0-1 .3-1.3.5-.4.3-.6.9-.7 1.6l-.8 4 2.7.5c.6.1 1 .4 1.3.7.3.3.4.6.4 1v.6h-1v-.3c0-.3-.1-.6-.3-.8l-.6-.3-2.7-.5zm9.3 1.1c-.7 0-1.2-.1-1.6-.5-.3-.4-.4-.9-.4-1.6v-3.9h.9v3.7c.1.5.2.7.4 1.1.2.2.5.4 1 .4.3 0 .7-.2.9-.6.6-.2.7-.8.7-1.6v-3h1.1v3.7c0 .5 0 .7.3 1.1.2.2.5.4.9.4s.8-.2 1.1-.6c.4-.2.5-.8.5-1.6v-3h1v6h-.6l-.3-1.1-.8.8c-.2.2-.7.3-1.2.3-.4 0-.8 0-1.1-.2-.4-.2-.6-.5-.8-.9-.1.3-.4.6-.8.8-.2.2-.8.3-1.2.3zm9.5-1.8v-4.2h1v4.5l.2.7.1.5.2.7v.6c0 .4 0 1-.4 1.3-.4.3-.8.5-1.3.5h-.3v-.8c.5 0 .7-.1.8-.3.2-.2.2-.4.2-.7l-.3-1.2-.2-1.6zm5.7 1.8c-.7 0-1.2-.1-1.5-.5-.4-.4-.7-.9-.7-1.6v-3.9h1.1v3.7c.1.5.3.7.5 1.1.2.2.5.4.9.4s.7-.2 1-.6c.5-.2.6-.8.6-1.6v-3h.9v3.7c.1.5.3.7.5 1.1.2.2.5.4.9.4.5 0 .9-.2 1.2-.6.3-.2.4-.8.4-1.6v-3h1.1v6h-.8l-.3-1.1-.6.8c-.4.2-.7.3-1.4.3-.3 0-.7 0-1-.2-.3-.2-.6-.5-.7-.9-.3.3-.6.6-1 .8-.2.2-.6.3-1.1.3zm14.6-6v6h-.9l-.1-1.2-.8.9c-.3.2-.7.3-1.2.3-.8 0-1.2-.1-1.6-.5-.4-.4-.6-1.1-.6-1.7v-3.8h1.1v3.6c0 .5.1 1 .4 1.2.2.2.5.4.9.4s.8-.2 1.1-.6c.4-.4.6-1 .6-1.7v-2.9zm9.6-.1c.6 0 1.1.2 1.5.5.4.4.6 1 .6 1.8v3.7h-1V240c-.1-.6-.3-1-.5-1.2-.2-.3-.5-.4-1-.4-.4 0-.8.2-1.1.5-.3.4-.5 1.1-.5 1.7v3h-.8l-.1-1.2h-.1l-.7.9c-.4.2-.8.3-1.3.3-.6 0-1.2-.1-1.4-.5-.5-.4-.7-1.1-.7-1.7v-3.8h1v3.6c.1.5.3 1 .5 1.2.2.2.5.4.9.4.5 0 .9-.2 1.2-.6.3-.4.5-1 .5-1.7v-2.9h.8l.2 1 .7-.7c.3-.3.9-.4 1.3-.4zm6.6 6.1c-.5 0-1-.1-1.4-.5-.4-.4-.6-.9-.6-1.6v-3.9h1v3.7c0 .5.2.7.4 1.1.2.2.5.4.9.4.5 0 .9-.2 1.2-.6.3-.2.4-.8.4-1.6v-3h1.1v3.7c0 .5.1.7.4 1.1.2.2.5.4.9.4s.7-.2 1.1-.6c.4-.2.6-.8.6-1.6v-3h1v6h-.8v-1.1h-.4l-.5.8c-.3.2-.8.3-1.3.3-.4 0-.8 0-1-.2-.5-.2-.7-.5-.8-.9h-.2c0 .3-.3.6-.7.8-.3.2-.8.3-1.2.3zm11.9-6.6v.1l-1 1.6a7 7 0 0 0-.3 1.2l-.2 1.2c0 .6.1.9.4 1.3.2.2.6.4 1 .4.7 0 1.1-.2 1.4-.6.2-.4.4-1 .4-1.7v-2.9h1v6h-.7l-.2-1.2-.9.9c-.2.2-.6.3-1.1.3-.8 0-1.4-.2-1.8-.6-.4-.4-.6-1-.6-1.9l.1-1 .6-1.2c0-.5.4-1 .9-1.5l-.8-.4c-.5-.3-.8-.7-.8-1.2 0-.2.1-.5.3-.7l.3-.7.9.4-.3.4-.2.5c0 .3.2.5.7.7zm0 0" style="fill:none;stroke:#fff;stroke-width:3;stroke-linecap:butt;stroke-linejoin:round;stroke-miterlimit:10;stroke-opacity:.6" transform=" rotate(  340 151.714 240.523) "/> <g style="fill:#633d63;fill-opacity:1" transform=" rotate(  340 151.714 240.523) ">  <use xlink:href="#j" x="116.2" y="243.5"/>  <use xlink:href="#k" x="122.9" y="243.5"/>  <use xlink:href="#l" x="134.4" y="243.5"/>  <use xlink:href="#k" x="138.1" y="243.5"/>  <use xlink:href="#m" x="149.7" y="243.5"/>  <use xlink:href="#n" x="157.3" y="243.5"/>  <use xlink:href="#k" x="169" y="243.5"/>  <use xlink:href="#o" x="180.5" y="243.5"/> </g> <path d="m327 110.4 1.5-7.1h1.3l.7 5.8 3.2-5.8h1.3l-1.4 7.1h-1l1.1-4.2a47.6 47.6 0 0 1 .3-2l-3.4 6.2h-.7l-.9-6.2v.5l-.1.7-.1.7-1 4.3zm10 .1c-.6 0-.9-.1-1.2-.4-.2-.3-.3-.8-.3-1.4 0-.5 0-1 .2-1.4l.5-1.3c.3-.2.5-.5.9-.7a2 2 0 0 1 .9-.3c.5 0 .8 0 1 .3l.5.6.3-.8h.7l-1.1 5.3h-.7l.1-1c-.3.5-.5.6-.9.9-.3.1-.6.2-.9.2zm.1-.7c.4 0 .6 0 .9-.2l.6-.8a4 4 0 0 0 .4-1 3 3 0 0 0 .1-.5 4 4 0 0 0 0-.5c.1-.3.1-.6-.1-.8-.3-.2-.5-.3-.8-.3-.2 0-.5.1-.7.3a2 2 0 0 0-.6.6l-.4 1-.1 1.1c0 .4 0 .7.2.9l.6.2zm3.9.6 1-5.3h1l-.5 2.2h2.5l.5-2.2h.9l-1.1 5.3h-1l.7-2.4h-2.6l-.6 2.4zm7.7.1-.9-.1c-.2-.1-.5-.2-.6-.4-.2-.2-.3-.5-.3-.8.1-.4.1-.7.3-.9l.8-.5.7-.4a6 6 0 0 0 1-.5c.3-.1.4-.3.4-.6s0-.3-.1-.4c0-.1-.3-.2-.6-.2a3 3 0 0 0-.8.1l-.6.3-.3-.7.8-.4h1c.4 0 .8 0 1 .3.4.2.5.5.5 1 0 .1 0 .4-.3.7a2 2 0 0 1-.6.6l-.8.3-.8.3-.5.4-.2.5c0 .2.2.4.3.5.1.2.4.2.7.2l.8-.1.7-.3v.8l-.7.2a4 4 0 0 1-1 .1zm4.5 0c-.4 0-.8 0-1-.3-.2-.2-.4-.6-.4-1v-.4l.2-.4.6-3.4h1l-.9 3.5v1.1c.3.2.6.2.8.2.2 0 .5 0 .7-.2.2-.2.5-.4.7-.8.2-.3.4-.8.5-1.4l.6-2.3h.8l-1.2 5.3h-.6v-1l-.5.6-.5.4-.8.1zm6.3 0c-.5 0-1-.1-1.4-.5-.4-.3-.5-.8-.5-1.5l.1-1.3.7-1.2c.2-.3.4-.5.8-.7.3-.3.7-.3 1.2-.3h.6l.7.3-.3.7-.4-.2h-.6c-.4-.1-.8-.1-1 .2l-.7 1.1a4 4 0 0 0-.2 1.4c0 .5 0 .8.3 1 .2.2.5.3.8.3h.7a7 7 0 0 0 .6-.4v.8l-.6.2-.8.1zm2.4-.1 1.1-5.3h.8l-.2.9.6-.4.5-.4.7-.2c.4 0 .7 0 .9.3.2.2.3.5.3.9l.6-.6.5-.4.8-.2c.4 0 .7 0 1 .3.2.3.3.7.3 1v.5l-.1.4-.7 3.2h-.9l.7-3.3v-.4l.2-.3c0-.2 0-.4-.3-.5 0-.1-.2-.2-.5-.2l-.7.3-.5.7-.6 1.3-.5 2.4h-.9l.7-3.3.1-.7c0-.2 0-.4-.2-.4l-.4-.3c-.3 0-.5.1-.7.3-.3 0-.5.4-.7.7l-.5 1.4-.5 2.3zm10.4.1c-.4 0-.8-.1-1-.4-.3-.3-.5-.8-.5-1.4l.2-1.4c.2-.5.3-.9.6-1.3l.8-.7a2 2 0 0 1 1-.3c.5 0 .8 0 1.1.3l.2.6.6-.8h.6l-1.2 5.3h-.7l.2-1-1 .9c-.2.1-.5.2-.9.2zm.3-.7c.2 0 .4 0 .7-.2.2-.2.5-.6.6-.8a4 4 0 0 0 .5-1 3 3 0 0 0 0-.5 4 4 0 0 0 .2-.5c-.1-.3-.1-.6-.4-.8-.1-.2-.2-.3-.6-.3s-.6.1-.8.3a2 2 0 0 0-.5.6l-.4 1-.2 1.1c0 .4.1.7.3.9l.6.2zm3.2 3.1h-.4l-.3-.3v-.6l.3.1h.3c.3 0 .5 0 .7-.1l.6-1 .3-.5-.8-5.4h.9l.3 2.6.1.7v1.3h.2a28.7 28.7 0 0 1 .4-1.1l.3-.6 1.5-3h1l-3.4 6.5c-.3.4-.6.7-.9.9-.3.4-.6.6-1.1.6zm7.4-2.4c-.6 0-1-.1-1.5-.5-.3-.3-.5-.8-.5-1.5 0-.4 0-.9.2-1.3l.5-1.2c.3-.3.6-.5 1.1-.7.1-.3.5-.3.8-.3h1l.5.3-.2.7-.5-.2h-.6c-.4-.1-.7-.1-1 .2l-.7 1.1a4 4 0 0 0-.2 1.4c-.1.5-.1.8.3 1 .2.2.5.3.9.3h.6a7 7 0 0 0 .7-.4v.8l-.7.2-.7.1zm2.3-.1 1.1-5.3h1l-.6 2.6 2.5-2.7h1l-2.5 2.7 1.7 2.7h-1l-1.7-2.6-.6 2.6zm6.5.1c-.4 0-.7-.1-1-.4-.3-.3-.4-.8-.4-1.4 0-.5 0-1 .2-1.4l.5-1.3.8-.7a2 2 0 0 1 1.1-.3c.4 0 .8 0 .9.3l.5.6.4-.8h.6l-1.1 5.3h-.7l.1-1c-.3.5-.5.6-.9.9-.3.1-.6.2-1 .2zm.3-.7c.3 0 .5 0 .7-.2l.7-.8a4 4 0 0 0 .3-1 3 3 0 0 0 .2-.5 4 4 0 0 0 0-.5c.1-.3.1-.6-.2-.8-.2-.2-.4-.3-.7-.3-.3 0-.5.1-.7.3a2 2 0 0 0-.6.6l-.4 1-.1 1.1c0 .4 0 .7.2.9l.6.2zm3.7.7h-.4v-.9h.2l.5.1.4-.7.3-.6c.1-.2.3-.3.6-.4-.4 0-.6-.2-.8-.4a1.4 1.4 0 0 1-.2-.8c0-.5.2-1 .6-1.2.3-.3.8-.6 1.6-.6h2l-1.1 5.4h-.9l.4-2h-.6c-.3-.1-.6-.1-.7.1-.1.2-.3.4-.4.8l-.5.6-.4.5-.6.1zm2.5-3h1l.2-1.6h-1.1c-.3-.1-.6.1-.8.2-.2.2-.3.4-.3.7 0 .2.1.5.3.6l.7.2zm-52.5 15c-.6 0-1.1-.2-1.5-.6-.3-.4-.5-.9-.5-1.5v-1.2a4 4 0 0 1 .6-1.2c.4-.3.5-.5.9-.7.3-.3.7-.4 1.2-.4.6.1 1 .2 1.3.6.5.5.7.9.7 1.5l-.2 1.2a4 4 0 0 1-.5 1.2l-.8.8-1.2.3zm0-.8c.3 0 .6 0 1-.3.2-.2.4-.5.5-1 .2-.4.3-.9.3-1.4l-.1-.7a1 1 0 0 0-.4-.3c-.3-.3-.4-.3-.6-.3-.4 0-.7.1-1 .3-.3.3-.5.6-.6 1a4 4 0 0 0-.2 1.4c0 .6 0 .8.3 1 .2.2.5.3.8.3zm5.5.8c-.5 0-1-.2-1.4-.6-.3-.4-.5-.9-.5-1.7a7.4 7.4 0 0 1 .4-2.2c0-.4.3-.8.5-1.2.1-.4.4-.7.7-1l1-.4.5-.4a34 34 0 0 1 1.5-.2h.6l.2.5-.8.3-.9.1-.7.3c-.6.1-.8.4-1.1.7l-.8 1.6a3 3 0 0 1 .9-.6c.2-.2.6-.3.9-.3.7 0 1.1.2 1.3.5.2.3.3.7.3 1.3-.1.4-.1.8-.2 1.2.1.4-.2.7-.4 1-.2.5-.5.6-.8.9-.3.1-.7.2-1.2.2zm.1-.7c.4 0 .5-.1.7-.3a2 2 0 0 0 .5-.5l.3-1v-.7l-.1-.9c-.2-.2-.4-.3-.7-.3l-.7.2-.6.4a4 4 0 0 0-.4.5v.5l-.2.6c.1.4.1.7.4 1 .1.4.4.6.8.6zm2.9.6h-.4v-.8h.9l.4-.8.6-1.2.3-1.2.5-.8.7-.5 1-.1a4.5 4.5 0 0 1 1.1.2l-1 5.2h-1l1.2-4.6h-1.2l-.4.8-.5 1.3-.7 1.4c0 .4-.3.7-.5.9-.2.2-.6.2-1 .2zm7.5.1c-.5 0-.8-.2-1-.5-.5-.3-.6-.7-.6-1.3.1-.5.1-1 .3-1.5l.5-1.2c.3-.3.5-.6.9-.8a2 2 0 0 1 .9-.2c.5 0 .8 0 1 .2l.5.8.3-1h.7l-1.1 5.4h-.7l.1-1-.8.8-1 .3zm.2-.7c.3 0 .5-.1.8-.3l.6-.7a4 4 0 0 0 .4-1 3 3 0 0 0 .1-.7 4 4 0 0 0 0-.4c.1-.3.1-.5-.1-.7-.3-.2-.5-.3-.8-.3-.2 0-.5 0-.7.2a2 2 0 0 0-.6.7l-.4 1-.1 1c0 .4 0 .8.2 1l.6.2zm6 .7c-.6 0-1.2-.2-1.5-.5-.3-.4-.5-1-.5-1.5s0-1 .2-1.5l.5-1 .9-.8c.4-.2.7-.2 1.2-.2h.7l.6.2-.2.7-.5-.2h-.6c-.4 0-.7.1-1 .3-.3.3-.5.6-.7 1a4 4 0 0 0-.2 1.5c-.1.4-.1.7.3 1 .2.1.5.2.9.2h.6a7 7 0 0 0 .6-.3v.8l-.5.2h-.8zm2.3-.1 1.1-5.4h.8l-.1 1 .4-.5.6-.4.7-.1c.4 0 .7 0 1 .2 0 .3.2.5.2 1l.6-.7.6-.5h.6c.5 0 1 .1 1.1.3.2.2.3.5.3 1v.3l-.1.5-.7 3.3h-.9l.7-3.4.1-.4v-.3l-.1-.3c-.1-.3-.4-.3-.5-.3-.3 0-.5 0-.7.2-.3.2-.5.4-.7.8-.2.3-.5.7-.5 1.3l-.5 2.4h-.9l.7-3.4.1-.6-.1-.5c-.1-.2-.3-.2-.5-.2s-.5 0-.8.2c-.2.2-.4.4-.6.8-.2.3-.4.8-.5 1.3l-.5 2.4zm10.9.1c-.6 0-1-.1-1.4-.5-.2 0-.4-.5-.4-1v-.5l.1-.5.6-3h1l-.7 2.4a9.8 9.8 0 0 1 1.4-.2c.5 0 .9.2 1.2.4.3.4.4.6.4 1s-.1.8-.3 1.1c-.1.1-.3.3-.7.5-.3.2-.6.3-1.2.3zm0-.7c.6 0 .9-.1 1.1-.3a1 1 0 0 0 .2-.8c0-.2 0-.4-.2-.5-.2-.2-.5-.3-.8-.3a5.6 5.6 0 0 0-1.1.2l-.1.4v.5s0 .3.2.5c.1.2.3.3.8.3zm.1 0" style="fill:none;stroke:#fff;stroke-width:3;stroke-linecap:butt;stroke-linejoin:round;stroke-miterlimit:10;stroke-opacity:.6" transform=" rotate(  340 364.722 113.416) "/> <g style="fill:#7d577d;fill-opacity:1" transform=" rotate(  340 364.722 113.416) ">  <use xlink:href="#p" x="326.6" y="110.4"/>  <use xlink:href="#q" x="335" y="110.4"/>  <use xlink:href="#r" x="340.7" y="110.4"/>  <use xlink:href="#s" x="346.7" y="110.4"/>  <use xlink:href="#t" x="351.3" y="110.4"/>  <use xlink:href="#u" x="357.1" y="110.4"/>  <use xlink:href="#v" x="361.6" y="110.4"/>  <use xlink:href="#q" x="370.4" y="110.4"/>  <use xlink:href="#w" x="376" y="110.4"/>  <use xlink:href="#u" x="380.7" y="110.4"/>  <use xlink:href="#x" x="385.2" y="110.4"/>  <use xlink:href="#q" x="390.1" y="110.4"/>  <use xlink:href="#y" x="395.8" y="110.4"/>  <use xlink:href="#z" x="343.5" y="122.4"/>  <use xlink:href="#A" x="349.1" y="122.4"/>  <use xlink:href="#B" x="354.6" y="122.4"/>  <use xlink:href="#q" x="360" y="122.4"/>  <use xlink:href="#u" x="365.7" y="122.4"/>  <use xlink:href="#v" x="370.2" y="122.4"/>  <use xlink:href="#C" x="379" y="122.4"/> </g> <path d="m363.5 249.8 1.6-7.1h1.8c.7 0 1.2.1 1.6.3.3.3.5.8.5 1.3s0 1-.4 1.2c-.3.3-.7.5-1.2.6.3.2.6.4.8.7.3.1.4.4.4.9 0 .3-.1.7-.4 1-.2.5-.6.7-1 .9l-1.4.2zm1.8-4h1.2l.8-.3.6-.3.1-.8c0-.3 0-.4-.2-.7-.2-.2-.5-.2-1-.2h-1zm-.7 3.2h1.3c.5 0 1-.1 1.3-.3.3-.3.4-.7.4-1s0-.7-.3-1c-.2-.1-.5-.2-1-.2h-1.1zm6.4 1c-.3 0-.6-.3-1-.6-.2-.2-.4-.7-.4-1.4 0-.4 0-1 .2-1.3.2-.5.3-.9.6-1.2.2-.5.5-.6.8-.8a2 2 0 0 1 1-.3c.4 0 .8 0 1 .3l.3.6.5-.8h.6l-1.1 5.3h-.7l.1-1-.9.8c-.2.2-.6.4-1 .4zm.5-.9c.1.1.3.1.5-.2l.7-.7a4 4 0 0 0 .5-1 3 3 0 0 0 0-.6 4 4 0 0 0 .1-.4c0-.3 0-.6-.3-.8 0-.2-.4-.3-.7-.3-.2 0-.5.1-.7.3a2 2 0 0 0-.6.6c0 .3-.3.6-.3 1l-.2 1.1c0 .4 0 .7.2.9.3.1.4.2.7.2zm3.5.7 1.8-7.6h.8l-1.6 7.6zm2.7 0 1.6-7.6h.9l-.7 3c0 .6-.2 1.1-.3 1.4l-.1.4 2.5-2.5h1l-2.2 2.3 1.4 3h-1l-1.1-2.5-.7.7-.4 1.9zm6.6.2c-.4 0-.8-.3-1-.6-.3-.2-.6-.7-.6-1.4.1-.4.1-1 .3-1.3.2-.5.3-.9.6-1.2.2-.5.4-.6.8-.8a2 2 0 0 1 1-.3c.5 0 .8 0 1.1.3l.2.6.6-.8h.5l-1 5.3h-.8l.1-1-.8.8c-.3.2-.7.4-1 .4zm.3-.9c.2.1.4.1.7-.2l.6-.7a4 4 0 0 0 .5-1 3 3 0 0 0 0-.6 4 4 0 0 0 .2-.4c-.1-.3-.1-.6-.4-.8-.1-.2-.4-.3-.6-.3-.3 0-.6.1-.8.3a2 2 0 0 0-.5.6l-.4 1-.2 1.1c0 .4 0 .7.3.9.1.1.3.2.6.2zm3.7.7 1.1-5.4h.8l-.1 1 .4-.4a2 2 0 0 1 .6-.5l.9-.2c.3 0 .7.2.9.4.3.2.4.6.4 1v.5l-.2.4-.6 3.2h-1l.7-3.3.1-.5v-.2c0-.4-.2-.8-.6-.8-.3.1-.5.2-.8.4l-.7.6c-.2.5-.4 1-.5 1.5l-.5 2.3zm8.9 0-.2-5.3h.9v4.5a13.8 13.8 0 0 1 .5-1l.2-.5 1.4-3h1v2.8a25 25 0 0 1 .1 1.8l.5-1.1.3-.8 1.2-2.7h1l-2.7 5.3h-.9l-.2-2.8v-1.7l-.3.7-.3.8-1.5 3zm8.8.2c-.5 0-1-.4-1.3-.7-.4-.3-.6-.8-.6-1.4 0-.4 0-.8.2-1.3l.5-1.1.9-.8a2 2 0 0 1 1.1-.3c.5 0 .9 0 1.1.3.3.2.4.5.4 1 0 .3 0 .5-.3.8-.2.4-.5.5-1 .8l-1.8.2h-.2v.5c0 .3.1.6.3.9.2.1.5.2 1 .2h.5a5 5 0 0 0 .9-.3v.7a6 6 0 0 1-.8.3l-.8.2zm-.7-3.3h1c.4 0 .7-.2.9-.4.2-.1.3-.3.3-.6 0-.2 0-.3-.2-.4l-.5-.3c-.4 0-.8.2-1 .5-.3.3-.5.8-.6 1.3zm3.6 3.1 1.6-7.6h.9l-1.6 7.6zm4.3.2c-.5 0-.8-.3-1-.6-.5-.2-.6-.7-.6-1.4.1-.4.1-1 .3-1.3l.5-1.2c.3-.5.6-.6.9-.8a2 2 0 0 1 1-.3c.4 0 .7 0 .9.3.2.1.4.3.5.6l.3-.8h.7l-1.1 5.3h-.7l.1-1-.8.8-1 .4zm.2-.9c.3.1.6.1.8-.2l.6-.7a4 4 0 0 0 .4-1 3 3 0 0 0 .1-.6 4 4 0 0 0 0-.4c.1-.3.1-.6-.1-.8-.2-.2-.5-.3-.8-.3-.2 0-.4.1-.7.3a2 2 0 0 0-.6.6l-.4 1-.1 1.1c0 .4 0 .7.2.9l.6.2zm3.2 3.1h-.6v-.9h.3l.3.3c.3-.1.5-.1.7-.3.2-.3.4-.4.5-.8l.4-.5-.8-5.5h.9l.3 2.5v.8l.2.7v.6a28.7 28.7 0 0 1 .6-1.1c-.1-.3.1-.4.2-.6l1.4-3h1.1l-3.5 6.4c-.2.4-.5.9-.8 1.2-.3 0-.8.2-1.2.2zm2.6-8.4v-.2c.2 0 .3-.2.4-.4l.4-.5.4-.5h1l-.5.6-.5.5a6 6 0 0 1-.6.5zm4.3 6.2c-.4 0-.8-.3-1-.6-.3-.2-.5-.7-.5-1.4l.2-1.3.6-1.2c.2-.5.5-.6.8-.8a2 2 0 0 1 1-.3c.4 0 .8 0 1.1.3 0 .1.1.3.3.6l.5-.8h.5l-1.1 5.3h-.7l.2-1-1 .8c-.2.2-.5.4-.9.4zm.3-.9c.2.1.5.1.7-.2.2-.2.5-.4.6-.7a4 4 0 0 0 .5-1 3 3 0 0 0 0-.6 4 4 0 0 0 .2-.4c-.1-.3-.1-.6-.3-.8-.2-.2-.5-.3-.7-.3-.3 0-.5.1-.8.3a2 2 0 0 0-.5.6l-.5 1-.1 1.1c.1.4.1.7.3.9.1.1.3.2.6.2zm5.2.9c-.2 0-.5-.3-.7-.4-.4-.1-.5-.4-.5-.9l.2-.7.5-2.9h-.8v-.4l1.1-.3.5-1.1h.5l-.3 1.1h1.5l-.3.6h-1.3l-.6 3.1v.3l-.2.3.2.3c.2.2.2.2.4.2h.4l.3-.2v.8h-.3a2 2 0 0 1-.6.2zm1.3 2.2h-.7v-.9h.4l.3.3c.2-.1.5-.1.7-.3l.5-.8.4-.5-.9-5.5h.9l.4 2.5v1.5l.2.6a28.7 28.7 0 0 1 .5-1.1l.2-.6 1.6-3h1l-3.6 6.4c-.2.4-.4.9-.7 1.2-.3 0-.7.2-1.2.2zm0 0" style="fill:none;stroke:#fff;stroke-width:3;stroke-linecap:butt;stroke-linejoin:round;stroke-miterlimit:10;stroke-opacity:.6" transform="rotate(  340 399.852 230.527) translate(0,-16.300909)"/> <g style="fill:#7d577d;fill-opacity:1" transform=" rotate(  340 399.852 230.527) ">  <use xlink:href="#D" x="363.1" y="233.5"/>  <use xlink:href="#E" x="369.1" y="233.5"/>  <use xlink:href="#F" x="374.8" y="233.5"/>  <use xlink:href="#G" x="377.4" y="233.5"/>  <use xlink:href="#E" x="382.3" y="233.5"/>  <use xlink:href="#H" x="388" y="233.5"/>  <use xlink:href="#glyph4-20" x="393.8" y="233.5"/>  <use xlink:href="#I" x="396.4" y="233.5"/>  <use xlink:href="#J" x="403.6" y="233.5"/>  <use xlink:href="#F" x="408.6" y="233.5"/>  <use xlink:href="#E" x="411.2" y="233.5"/>  <use xlink:href="#K" x="416.9" y="233.5"/>  <use xlink:href="#E" x="421.6" y="233.5"/>  <use xlink:href="#L" x="427.2" y="233.5"/>  <use xlink:href="#M" x="430.6" y="233.5"/> </g> <path d="m140.8 16.6 1.5-7.2h1.7c.7 0 1.3.2 1.6.6.3.3.4.7.4 1.3 0 .7-.2 1.4-.7 1.7-.6.6-1.3.8-2.4.8h-.6l-.6 2.8zm1.6-3.6h.7c.6 0 1.1 0 1.5-.4.4-.3.6-.6.6-1.3 0-.3-.2-.7-.4-.8-.2-.2-.5-.3-1-.3h-.7zm6.1 3.7c-.6 0-1.1-.2-1.5-.7-.3-.2-.4-.7-.4-1.4l.1-1.2.6-1.2.7-.8a2 2 0 0 1 1.2-.3c.5 0 1 .1 1.2.3.2.3.4.6.4 1 0 .3-.2.6-.4 1l-1 .6c-.4.2-1 .3-1.8.3h-.1v.3c-.1.4-.1.7.1 1 .4.2.6.3 1.1.3h.6a5 5 0 0 0 .7-.5v.9a6 6 0 0 1-.6.3h-1zm-1-3.2h1.3c.4-.2.7-.3.9-.5.1-.1.2-.3.2-.6 0-.1 0-.3-.2-.4l-.5-.2c-.3 0-.7.2-1 .5-.2.3-.5.7-.6 1.2zm6 3.2c-.5 0-1-.2-1.4-.5-.4-.4-.6-.9-.6-1.5l.2-1.4.6-1.1c.2-.4.5-.6.9-.8.3-.2.7-.4 1.1-.4h.7l.7.5-.3.5-.4-.1h-.6c-.4-.1-.8-.1-1 .2-.4.4-.7.7-.8 1.1a4 4 0 0 0-.2 1.6c0 .2.1.6.3.9l1 .1h.5a7 7 0 0 0 .7-.3v.8l-.6.3h-.8zm2.3-.1 1.2-5.4h.8l-.1 1c0-.2.2-.4.3-.5a2 2 0 0 1 .7-.4c.2-.3.5-.3.8-.3.4 0 .7.2 1 .4.2.3.4.6.4 1v.6l-.3.3-.6 3.3h-1l.9-3.4v-.4l.1-.3c-.1-.4-.3-.5-.8-.5-.2-.1-.4-.1-.7 0-.2.3-.5.5-.7 1-.2.2-.4.7-.5 1.3l-.5 2.3zm5.3 2.4h-.4l-.3-.2v-.6h.7c.3.1.5.1.7-.2l.5-.7.4-.7-.8-5.4h.8l.4 2.8v.6l.2.7v.5a28.7 28.7 0 0 1 .5-1l.2-.8 1.6-2.8h1l-3.6 6.3c0 .5-.4.8-.7 1.1-.3.2-.7.4-1.3.4zm7.4-2.3c-.7 0-1.1-.2-1.5-.7-.3-.3-.5-.9-.5-1.6a7.4 7.4 0 0 1 .5-2.2l.4-1.2.6-1 1.1-.6h.5a34 34 0 0 1 1.5-.4h.6l.1.5-.7.3-.9.1-.7.2c-.5.2-.8.4-1.1.9-.4.3-.5 1-.7 1.5a3 3 0 0 1 .7-.6c.3-.2.7-.3 1-.3.6 0 1.1.1 1.3.4.3.4.3.8.3 1.4 0 .4 0 .8-.2 1.2 0 .4-.2.7-.4 1-.2.4-.5.6-.8.8-.3.2-.6.3-1.1.3zm0-.8c.3.1.6.1.8-.2a2 2 0 0 0 .5-.7l.2-.7.1-.8c0-.5 0-.7-.2-.9l-.6-.3c-.3 0-.5 0-.7.2l-.6.4a4 4 0 0 0-.5.5v1c-.1.6-.1.9.1 1.1.2.3.4.5.9.5zm3 .7h-.5v-.8h.9l.5-.8.4-1.2.5-1.2.5-.8c0-.2.2-.4.5-.5l1.1-.1a4.5 4.5 0 0 1 1.2.1l-1.1 5.3h-.9l1-4.7h-.4c-.2 0-.5 0-.6.1-.2.2-.4.4-.6.8l-.4 1.2-.6 1.5c0 .4-.3.7-.6.8-.2.2-.4.3-1 .3zm7.3.1c-.4 0-.7-.1-1-.4-.2-.2-.3-.5-.3-1V15l.1-.5.7-3.3h.9l-.7 3.4-.1.7.1.5.6.1c.2.1.5.1.7-.2l.8-.7c.2-.4.4-.9.4-1.5l.6-2.3h.8l-1.1 5.4h-.7v-1l-.4.4-.6.5-.8.2zm4.2-.1 1.1-5.4h1l-.7 2.6 2.6-2.6h1l-2.5 2.8 1.7 2.6h-1l-1.8-2.7-.4 2.7zm6.5.1c-.4 0-.7-.2-1-.5-.3-.2-.5-.8-.5-1.4 0-.5 0-1 .3-1.4 0-.4.3-.8.5-1.2l.8-.8a2 2 0 0 1 1.1-.3c.4 0 .6.1.9.3l.4.6h.1l.3-.8h.7l-1.2 5.4h-.7l.2-1-1 .7c-.2.3-.4.4-.9.4zm.3-.8c.3.1.5.1.7-.2l.7-.8a4 4 0 0 0 .4-.9 3 3 0 0 0 .1-.6 4 4 0 0 0 0-.5c0-.3 0-.6-.2-.8-.2-.1-.5-.3-.7-.3-.3 0-.5.2-.8.3a2 2 0 0 0-.5.7l-.4 1-.1.9c0 .6 0 .9.2 1.1.1.1.3.1.6.1zm-46 12.6 1.5-7.1h.9l-.8 3.4 3.4-3.4h1l-3.4 3.5 2.2 3.6h-1l-2.3-3.5-.7 3.5zm7.1.1c-.4 0-.8-.1-1-.5-.3-.3-.5-.7-.5-1.3l.2-1.4.6-1.2c.2-.4.5-.6.8-.8a2 2 0 0 1 1-.4c.5 0 .8 0 1 .3l.3.7.6-1h.6l-1.2 5.5h-.7l.2-1-1 .8c-.2.2-.5.3-.9.3zm.3-.7c.2 0 .5-.1.7-.3.2-.2.5-.4.6-.6a4 4 0 0 0 .5-1.1 3 3 0 0 0 0-.6 4 4 0 0 0 .2-.3c-.1-.5-.1-.7-.2-1-.3-.1-.5-.2-.8-.2-.3 0-.5 0-.8.2a2 2 0 0 0-.4.7l-.5 1-.2 1.1c0 .4.1.6.3.8.1.2.3.4.6.4zm3.4.7h-.4v-1l.3.2c.2 0 .5 0 .6-.2l.4-.7.5-1.2.4-1.1.6-.9.6-.4 1-.3a4.5 4.5 0 0 1 1.1.3l-1.1 5.2h-.8l1-4.5h-1.1l-.4.7-.5 1.3-.6 1.4-.6.9c-.3.2-.6.3-1 .3zm5.8-.1 1.1-5.3h1.1l.6 4.2 2.4-4.2h1.2l-1.1 5.3h-.8l.6-3 .2-.9.3-.6-2.6 4.5h-.7L162 24l-.2.7v.8l-.8 3zm9 .1c-.4 0-1-.1-1.2-.4-.3-.2-.5-.6-.5-1.1v-.5a5 5 0 0 1 .1-.5l.6-3h1l-.7 2.4.6-.1h.7c.4 0 .9 0 1 .3.4.3.5.6.5 1s0 .8-.2 1.1l-.7.6-1.2.2zm2.7 0 .9-5.6h1.2l-1.3 5.5zm-2.6-.8c.4.1.7 0 .9-.2a1 1 0 0 0 .3-.7c0-.3-.1-.5-.3-.7l-.8-.1h-.9l-.1.6v.3c0 .3 0 .5.2.6.1.2.4.4.7.4zm5.1.7 1.2-5.4h.8l-.5 2.6 2.5-2.6h1l-2.6 2.7 1.8 2.7h-1l-1.8-2.7-.5 2.7zm6.5.1c-.4 0-.7-.1-1-.3-.1-.3-.3-.6-.3-1v-.9l.9-3.3h.8l-.8 3.4v.7l.1.5.6.2.6-.3.8-.6c.3-.5.4-1 .6-1.5l.4-2.5h1l-1.3 5.5h-.6v-1l-.4.5-.6.4-.9.2zm4.1 0h-.4v-.9h.7l.4-.7c0-.2.1-.4.3-.5l.6-.5c-.3 0-.6-.2-.8-.4a1.4 1.4 0 0 1-.2-.6c0-.6.2-1.1.6-1.4.3-.3.9-.5 1.6-.5h2l-1 5.4h-1l.5-2.1h-.7c-.3 0-.5 0-.7.2l-.4.7-.4.7-.4.4-.7.2zm2.5-3h1l.3-1.6h-1.2c-.3-.1-.6-.1-.8.2-.2.1-.3.4-.3.7 0 .3.1.5.3.6l.7.1zm0 0" style="fill:none;stroke:#fff;stroke-width:3;stroke-linecap:butt;stroke-linejoin:round;stroke-miterlimit:10;stroke-opacity:.6" transform="rotate(  340 159.803 30.8213) translate(-7.1055243,11.285244)"/> <g style="fill:#7d577d;fill-opacity:1" transform=" rotate(  340 159.803 30.8213) ">  <use xlink:href="#N" x="133.3" y="27.9"/>  <use xlink:href="#O" x="139" y="27.9"/>  <use xlink:href="#u" x="144" y="27.9"/>  <use xlink:href="#P" x="148.5" y="27.9"/>  <use xlink:href="#w" x="154.3" y="27.9"/>  <use xlink:href="#A" x="158.9" y="27.9"/>  <use xlink:href="#B" x="164.4" y="27.9"/>  <use xlink:href="#t" x="169.8" y="27.9"/>  <use xlink:href="#x" x="175.6" y="27.9"/>  <use xlink:href="#q" x="180.5" y="27.9"/>  <use xlink:href="#Q" x="136.2" y="39.8"/>  <use xlink:href="#q" x="141.9" y="39.8"/>  <use xlink:href="#B" x="147.5" y="39.8"/>  <use xlink:href="#R" x="153" y="39.8"/>  <use xlink:href="#S" x="160" y="39.8"/>  <use xlink:href="#x" x="167.3" y="39.8"/>  <use xlink:href="#t" x="172.1" y="39.8"/>  <use xlink:href="#y" x="177.9" y="39.8"/> </g> <path d="M86 72.9c-1 0-1.6-.2-2-.7-.3-.5-.5-1.2-.5-2v-1.3l.5-1.3c.2-.4.4-.6.8-1l1-.8 1.4-.2c.8 0 1.3.1 1.8.4l-.4.7a4 4 0 0 0-.6-.2l-.8-.1c-.5 0-.9 0-1.2.3l-1 .9a4 4 0 0 0-.5 1.2l-.2 1.3c0 .7.2 1.2.5 1.5.2.3.7.5 1.2.5h.9l.8-.4v.9l-.8.2a5 5 0 0 1-1 .2zm2.8-.1 1.2-5.4h.7l-.1 1 .4-.4.6-.5.7-.1c.4 0 .7 0 .9.3l.4.8.4-.5c.2-.2.4-.4.7-.5l.7-.1c.4 0 .8 0 1 .3.2.2.3.5.3 1v.8l-.9 3.3H95l.8-3.4v-.7l-.1-.4c-.1-.3-.3-.3-.5-.3-.3 0-.5 0-.7.3-.3.2-.5.4-.7.8-.2.3-.4.7-.5 1.3l-.5 2.4h-.9l.7-3.4.1-.6-.1-.5c-.1-.3-.3-.3-.6-.3s-.4 0-.6.3c-.4.2-.5.4-.7.8-.2.3-.4.8-.5 1.4l-.5 2.3zm10.4.1c-.4 0-.8-.2-1-.5-.3-.3-.4-.7-.4-1.3 0-.5 0-1.1.2-1.5 0-.4.3-.8.5-1.1.2-.5.5-.7.8-.9a2 2 0 0 1 1-.2c.5 0 .7 0 1.1.2l.3.7h.1l.3-.9h.7l-1.2 5.4h-.6l.1-1-1 .8c-.1.2-.5.3-.9.3zm.3-.7c.3 0 .5-.2.7-.3l.8-.7a4 4 0 0 0 .3-1 3 3 0 0 0 .1-.7 4 4 0 0 0 0-.4c0-.3 0-.5-.2-.7-.2-.2-.4-.4-.7-.4-.3 0-.5 0-.7.3a2 2 0 0 0-.6.7l-.4 1-.1 1c0 .5 0 .7.2.9.1.2.3.3.6.3zm6.1.7c-.8 0-1.3-.2-1.7-.6-.3-.4-.5-1-.5-1.6 0-.6.2-1.2.4-1.7s.5-.9 1-1.2c.3-.3.8-.4 1.4-.4s1.1 0 1.4.3c.4.2.5.6.5 1s-.1.7-.4 1l-1 .3c.3.1.6.3.7.5.2.2.3.4.3.8 0 .2 0 .5-.2.7-.1.3-.3.5-.7.6-.3.2-.7.4-1.2.4zm-1.2-3.1h1.1l.8-.1c.3 0 .5-.2.7-.3l.2-.6c0-.2 0-.4-.2-.5l-.7-.2c-.5-.1-.9.1-1.3.4-.2.3-.4.7-.6 1.3zm1.2 2.4c.5 0 .8-.2 1-.3.2-.2.3-.4.3-.7 0-.2-.1-.4-.3-.5l-1-.2h-1.3v.2c0 .5.2 1 .4 1.1.2.3.5.4 1 .4zm2.6 3 1.6-7.8h.7l-.1 1 .8-.7c.3-.2.8-.3 1-.3.5 0 .8.1 1 .4.4.3.6.8.6 1.4-.1.5-.1 1-.3 1.4l-.5 1.2-.8.8a2 2 0 0 1-1.2.3c-.3 0-.6 0-1-.3a2 2 0 0 1-.2-.6l-.3.4v.6l-.5 2.2zm2.8-3c.3 0 .5-.2.7-.3l.6-.7a4 4 0 0 0 .4-1 5 5 0 0 0 0-.9c.1-.9-.1-1.3-.7-1.3-.3 0-.5 0-.8.3l-.5.7-.6 1-.1 1c0 .4 0 .7.2.9.2.1.4.3.8.3zm5.6.7c-.6 0-1-.2-1.4-.6-.4-.3-.6-.8-.6-1.5l.2-1.2a4 4 0 0 1 .5-1.1l.8-.8 1.2-.3c.7 0 1.1.2 1.5.5.2.4.5 1.1.5 1.5s0 .9-.2 1.3a4 4 0 0 1-.5 1c-.2.5-.4.8-.8 1-.3.1-.7.2-1.2.2zm.1-.9c.3.1.6.1.9-.2l.6-1c.2-.3.2-.8.2-1.3v-.7a1 1 0 0 0-.4-.5l-.7-.3c-.3.1-.6.2-1 .5l-.4 1a4 4 0 0 0-.4 1.4c0 .4.1.7.3 1l.9.1zM120 72.8l1.2-5.4h.8l-.1 1c0-.2.1-.3.4-.5a2 2 0 0 1 .7-.4l.7-.2c.3 0 .7.1 1 .4.2.2.3.5.3 1v.3l-.2.6-.6 3.2h-1l.8-3.4v-.3l.2-.3c-.1-.5-.2-.8-.8-.8l-.7.4c-.2.1-.5.3-.7.6-.2.4-.4.9-.5 1.5l-.5 2.3zm8 .1c-.5 0-1-.2-1.3-.6-.5-.3-.6-.8-.6-1.5l.1-1.2a4 4 0 0 1 .5-1.1c.3-.3.5-.6.9-.8.3-.2.7-.3 1.1-.3.7 0 1.3.2 1.5.5.4.4.5 1.1.5 1.5l-.1 1.3a4 4 0 0 1-.6 1c-.2.5-.4.8-.8 1-.2.1-.7.2-1.1.2zm.2-.9c.2.1.5.1.8-.2.2-.2.5-.5.6-1 .2-.3.2-.8.2-1.3v-.7a1 1 0 0 0-.5-.5l-.5-.3c-.4.1-.8.2-1 .5-.3.2-.5.5-.6 1a4 4 0 0 0-.2 1.4c0 .4 0 .7.3 1l.7.1zm3 .9h-.3l-.1-.2V72l.2.1c.3 0 .5 0 .7-.2l.3-.7.6-1.2.4-1c0-.5.3-.7.5-1 .1-.2.4-.3.5-.4l1.1-.2a4.5 4.5 0 0 1 1.2.2l-1 5.2h-1.1l1.1-4.6h-1l-.5.8-.5 1.3-.5 1.4c-.2.4-.4.7-.8.9 0 .2-.4.3-.9.3zm7.8 0c-.4 0-1-.1-1.2-.4-.4-.2-.5-.5-.5-1.1v-1l.7-3h1l-.6 2.4a9.8 9.8 0 0 1 1.2-.2c.6 0 1 .2 1.3.5.1.2.4.6.4.9l-.3 1c0 .3-.4.5-.7.6-.3.2-.7.4-1.3.4zm.2-.7c.4 0 .8-.2.9-.3a1 1 0 0 0 .3-.9s0-.3-.2-.4c-.2-.2-.5-.2-.8-.2a5.6 5.6 0 0 0-1.2 0v1.5c.3.2.6.3.9.3zm5.2.7c-.6 0-1.1-.2-1.5-.5-.4-.3-.5-.8-.5-1.5 0-.5 0-1 .2-1.4 0-.4.3-.8.4-1 .4-.5.6-.8 1-1 .3-.1.7-.1 1.2-.1h.7l.6.2-.3.7-.4-.1-.6-.2c-.4 0-.7.2-1 .5-.3.2-.5.5-.7 1a4 4 0 0 0-.2 1.4c0 .4 0 .7.3 1 .2.1.4.3.8.3l.7-.2a7 7 0 0 0 .6-.1v.7l-.6.2-.7.1zm2.3-.1 1.1-5.4h.9l-.6 2.6 2.5-2.6h1.1l-2.6 2.7 1.8 2.7h-1l-1.9-2.7-.4 2.7zm6.5.1c-.4 0-.8-.1-1-.3-.3-.3-.4-.6-.4-1V71l.2-.3.6-3.3h1l-.9 3.4V72l.8.2c.1 0 .5-.2.6-.3.3-.1.6-.4.9-.7l.4-1.4.6-2.4h.8l-1.2 5.4h-.6v-1l-.5.5c-.1.2-.3.3-.5.4l-.8.3zm7.5-6.2c-.7 0-1 0-1.3-.3-.2-.2-.3-.4-.3-.9a1 1 0 0 1-.1-.3h1v.7c.2.2.4.2.7.2.3 0 .6 0 .8-.1.2-.2.3-.4.4-.8h.8c0 .5-.3.8-.6 1.1-.3.3-.8.4-1.4.4zM159 73c-.5-.1-.8-.2-1-.4-.3-.3-.4-.6-.4-1V71l.1-.3.7-3.3h1l-.9 3.4v.7c0 .2 0 .4.2.5l.5.2c.2 0 .5-.2.7-.3.3-.1.5-.4.8-.7l.5-1.4.5-2.4h.9l-1.2 5.4h-.7l.1-1-.5.5-.6.4-.7.3zM112 84.7l1-5.3h1l-.6 2.6 2.6-2.6h1l-2.6 2.6 1.8 2.7h-1l-1.9-2.6-.3 2.6zm4.3 2.4 1.7-7.7h.7l-.1 1 .8-.8c.3-.2.6-.3 1-.3s.8.1 1 .5c.3.2.6.7.6 1.2l-.3 1.5-.5 1.2c-.3.4-.5.6-.9.8a2 2 0 0 1-1 .3c-.5 0-.8 0-1.1-.2a2 2 0 0 1-.2-.7l-.3.5v.4l-.5 2.3zm2.9-3c.2 0 .5 0 .7-.1l.6-.8a4 4 0 0 0 .3-1 5 5 0 0 0 .2-1.1c0-.7-.3-1-1-1 0-.1-.3-.1-.6.1l-.6.7-.5 1.1-.1 1c0 .4 0 .6.2.8.2.2.4.3.8.3zm5.1.7c-.4 0-.8-.1-1-.4-.3-.4-.6-.8-.6-1.4.1-.5.1-1 .3-1.4.2-.6.3-.9.6-1.2l.8-.8a2 2 0 0 1 1-.3c.5 0 .8 0 1.1.3l.2.6.6-.8h.5l-1 5.3h-.8l.1-1c-.2.5-.5.7-.8.9-.3.1-.7.2-1 .2zm.3-.7c.2 0 .4 0 .7-.1l.6-1a4 4 0 0 0 .5-.9 3 3 0 0 0 0-.5 4 4 0 0 0 .2-.6c-.1-.2-.1-.5-.4-.7-.1-.2-.4-.3-.6-.3-.3 0-.6.1-.8.3a2 2 0 0 0-.5.6l-.4 1.1-.2 1c0 .4 0 .7.3 1h.6zm7-5.4c-.5 0-1-.1-1.2-.3-.2-.4-.4-.6-.4-1a1 1 0 0 1 0-.2h1v.8h.7l.7-.1c.3-.2.4-.4.6-.9h.7c0 .6-.3 1-.6 1.3-.3.2-.8.4-1.5.4zm-1.6 6.1c-.5 0-.8 0-1-.3-.3-.2-.4-.5-.4-1v-.9l.9-3.2h.8l-.7 3.4-.1.6.1.6c.1.1.4.1.6.1.2 0 .4 0 .7-.1.3-.3.5-.5.7-1 .4-.2.4-.7.6-1.3l.5-2.3h.8l-1.1 5.3h-.7v-1c0 .3-.2.5-.4.7l-.6.3-.8.1zm0 0" style="fill:none;stroke:#fff;stroke-width:3;stroke-linecap:butt;stroke-linejoin:round;stroke-miterlimit:10;stroke-opacity:.6" transform="rotate(  340 107.499 70.3401) translate(-15.046992,-5.4336361)"/> <g style="fill:#7d577d;fill-opacity:1" transform=" rotate(  340 107.499 70.3401) ">  <use xlink:href="#T" x="67.6" y="67.4"/>  <use xlink:href="#v" x="73.5" y="67.4"/>  <use xlink:href="#q" x="82.2" y="67.4"/>  <use xlink:href="#U" x="87.9" y="67.4"/>  <use xlink:href="#V" x="93.3" y="67.4"/>  <use xlink:href="#z" x="99.1" y="67.4"/>  <use xlink:href="#P" x="104.7" y="67.4"/>  <use xlink:href="#z" x="110.5" y="67.4"/>  <use xlink:href="#B" x="116.2" y="67.4"/>  <use xlink:href="#C" x="121.6" y="67.4"/>  <use xlink:href="#u" x="126.8" y="67.4"/>  <use xlink:href="#x" x="131.4" y="67.4"/>  <use xlink:href="#t" x="136.2" y="67.4"/>  <use xlink:href="#W" x="142" y="67.4"/>  <use xlink:href="#x" x="96.7" y="79.3"/>  <use xlink:href="#V" x="101.5" y="79.3"/>  <use xlink:href="#q" x="107.3" y="79.3"/>  <use xlink:href="#W" x="113" y="79.3"/> </g> <path d="m184 144.2.6-2.7h.4l1-1.4a24.6 24.6 0 0 0 1.6-3.3l.6-1.6h2.8l-1.3 6.3h1l-.7 2.7h-.8l.4-1.9h-4.4l-.4 1.9zm2-2.7h2.9l1.1-5.5h-1.2l-.5 1.3a26 26 0 0 1-1.3 3l-1 1.2zm7 .9c-.3 0-.6-.1-1-.4-.2-.4-.4-.8-.4-1.4 0-.6 0-1 .2-1.4.2-.5.3-.9.6-1.2.2-.4.5-.6.8-.8a2 2 0 0 1 1-.3c.5 0 .8 0 1.1.1l.2.8.5-.8h.6l-1.1 5.3h-.7l.1-1-.9.8c-.2.2-.6.3-1 .3zm.5-.7.5-.3.7-.7a4 4 0 0 0 .5-1 3 3 0 0 0 0-.7 4 4 0 0 0 .2-.3c-.1-.4-.1-.7-.4-.8 0-.2-.4-.3-.7-.3-.2 0-.5 0-.7.2a2 2 0 0 0-.6.7c0 .3-.3.6-.3 1l-.2 1.1c0 .4 0 .6.2.8.3.2.4.3.7.3zM198.8 142.4l-.9-.1-.6-.5c-.2-.2-.2-.4-.2-.8-.1-.3-.1-.6.2-.8l.7-.6 1-.3a6 6 0 0 0 .9-.5l.2-.6v-.4c-.1-.2-.3-.2-.6-.2a3 3 0 0 0-.8.1l-.7.2-.2-.7.8-.2 1-.1c.4 0 .8 0 1 .3.4.1.6.5.6 1-.1.1-.1.4-.2.6a2 2 0 0 1-.8.6l-.8.4-.8.2-.5.5-.1.5c0 .2 0 .4.2.5l.7.2.8-.1.8-.3v.7l-.8.3a4 4 0 0 1-.9.1zm5 0c-.6 0-1-.2-1.4-.4-.4-.5-.5-1-.5-1.6 0-.4 0-.9.1-1.4 0-.3.4-.7.6-1 .2-.4.5-.6.9-.8a2 2 0 0 1 1-.3c.7 0 1.1 0 1.3.3.2.2.3.5.3 1l-.3.8-1 .8-1.8.2h-.2v.4c0 .4 0 .6.2 1 .3.1.6.2 1 .2h.7a5 5 0 0 0 .8-.3v.7a6 6 0 0 1-.8.3l-.9.1zm-.8-3.1 1.1-.1c.3 0 .6-.2.8-.4.2-.1.3-.4.3-.6l-.1-.4c-.2-.2-.3-.2-.6-.2s-.5.1-1 .4l-.5 1.3zm5.9 3.1c-.6 0-1.1-.2-1.5-.4-.3-.4-.4-.9-.4-1.6-.1-.4-.1-1 0-1.4l.6-1c.4-.5.6-.8 1-1h1.9l.5.1-.2.7-.5-.1-.6-.1c-.4 0-.7.1-1 .4-.3.2-.5.6-.7 1a4 4 0 0 0-.2 1.4c0 .4 0 .7.2 1 .3.2.6.3 1 .3l.6-.1a7 7 0 0 0 .6-.2v.6l-.6.3-.6.1zm2.3-.1 1.2-5.3h.6v1l.4-.7.6-.3h.7c.4-.1.7-.1.9.2.2.2.3.5.3.8l.6-.5.6-.5h.7c.4-.1.8-.1 1 .2.2.2.2.5.2 1v.8l-.8 3.3h-.8l.7-3.3.1-.4v-.3l-.1-.5-.5-.2c-.3 0-.6 0-.7.2-.3.2-.5.4-.7.8l-.5 1.3-.5 2.4h-.9l.7-3.3.1-.7-.1-.5-.5-.2c-.2 0-.5 0-.7.2-.3.2-.5.4-.8.8-.1.3-.3.8-.4 1.4l-.6 2.3zm10.4.1c-.4 0-.8-.1-1-.4-.3-.4-.4-.8-.4-1.4 0-.6 0-1 .2-1.4 0-.5.3-.9.5-1.2.2-.4.5-.6.8-.8a2 2 0 0 1 1-.3c.5 0 .8 0 1.1.1l.2.8h.2l.3-.8h.7l-1.2 5.3h-.7l.2-1-1 .8c-.2.2-.5.3-.9.3zm.4-.7c.1 0 .4-.1.6-.3l.7-.7a4 4 0 0 0 .4-1 3 3 0 0 0 .1-.7 4 4 0 0 0 0-.3c0-.4 0-.7-.2-.8-.2-.2-.4-.3-.7-.3-.3 0-.5 0-.7.2a2 2 0 0 0-.6.7l-.4 1-.1 1.1c-.1.4-.1.6.2.8.1.2.3.3.6.3zm3.6.6 1.2-5.3h.9l-.5 2.2h2.5l.5-2.2h.8l-1.1 5.3h-.9l.5-2.3H227l-.5 2.3zm0 0" style="fill:none;stroke:#fff;stroke-width:3;stroke-linecap:butt;stroke-linejoin:round;stroke-miterlimit:10;stroke-opacity:.6" transform="rotate(  340 202.4 97.935) translate(-5.8516082,-41.379229)"/> <g style="fill:#7d577d;fill-opacity:1" transform=" rotate(  340 202.4 97.935) ">  <use xlink:href="#X" x="179" y="100.9"/>  <use xlink:href="#q" x="185.3" y="100.9"/>  <use xlink:href="#s" x="191" y="100.9"/>  <use xlink:href="#O" x="195.6" y="100.9"/>  <use xlink:href="#u" x="200.6" y="100.9"/>  <use xlink:href="#v" x="205.1" y="100.9"/>  <use xlink:href="#q" x="213.8" y="100.9"/>  <use xlink:href="#r" x="219.5" y="100.9"/> </g> <use style="fill:#fdfdfa;fill-opacity:1;fill-rule:nonzero;stroke:#575747;stroke-width:.5;stroke-linecap:butt;stroke-linejoin:miter;stroke-miterlimit:4;stroke-opacity:1" transform="translate(22.929052,206.39256)" xlink:href="#reuse-0"/> <path d="M7.8 220.8h-1v-7H4.4v-.8h5.9v.9H7.8Zm5.7-6h.5l.2.2-.1.8h-.3a2 2 0 0 0-.4-.1c-.3 0-.4 0-.8.3-.3 0-.6.4-.6.7-.2.3-.3.6-.3 1v3.1h-1V215h1v1h.1l.6-.8c.3-.2.7-.4 1.1-.4zm3.8 0c.7 0 1.3.2 1.7.5.3.3.4.8.4 1.5v4h-.7l-.2-.8c-.3.3-.5.6-.8.7-.3.3-.7.3-1.2.3s-1 0-1.3-.5c-.4-.3-.6-.7-.6-1.3 0-.6.4-1 .7-1.3.5-.4 1.2-.5 2.2-.6h1v-.4c0-.5-.1-.8-.3-.9-.2-.3-.5-.4-1-.4-.2 0-.4 0-.7.2a7 7 0 0 0-.9.2l-.3-.6a4 4 0 0 1 1-.4 4 4 0 0 1 .9-.2zm1.2 3.2h-.9c-.7 0-1.2.1-1.5.3-.3.3-.5.5-.5 1 0 .1.1.4.4.5.2.3.4.4.7.4.5 0 1-.2 1.3-.4.3-.3.5-.8.5-1.3zm3.7-5.5v2a19.3 19.3 0 0 1 0 1.2 2 2 0 0 1 .8-.6c.2-.1.6-.3 1.1-.3.7 0 1.3.3 1.7.8.5.5.7 1.4.7 2.4 0 .9-.2 1.7-.7 2.2-.4.5-1 .7-1.7.7-.5.1-.9.1-1.2-.2a2 2 0 0 1-.7-.6l-.4.7h-.5v-8.3zm1.8 3.2c-.7 0-1.1.1-1.4.5-.3.4-.4 1-.4 1.7s.1 1.3.4 1.7c.2.4.7.6 1.3.6.5 0 1.1-.2 1.2-.6.2-.4.4-1 .4-1.7 0-1.5-.6-2.2-1.6-2.2zm7.7 5.1h-4.3v-.6l3.2-4.5h-3v-.8h4v.8l-3 4.3h3zm6.5-2.9c0 1-.2 1.7-.7 2.3-.5.5-1.2.7-2 .7-.6.1-1 .1-1.5-.3a2.5 2.5 0 0 1-1-1c-.1-.6-.2-1.1-.2-1.8 0-.9.2-1.6.7-2.2.5-.5 1.1-.8 2-.8.5 0 1 .2 1.4.4.4.2.7.6 1 1 .1.5.3 1 .3 1.8zm-4.4 0c0 .7 0 1.1.4 1.6.2.5.7.7 1.3.7.5 0 1-.3 1.3-.7.2-.4.4-1 .4-1.5 0-.8-.1-1.4-.4-1.8-.3-.2-.8-.5-1.3-.5-.6 0-1 .2-1.3.5-.3.4-.4 1-.4 1.8zm8.8-3.1c.7 0 1.2.2 1.6.6.3.3.5.8.5 1.6v3.8h-1v-3.7c.1-1.1-.3-1.4-1.2-1.4-.7 0-1.1.1-1.4.5-.3.4-.4.9-.4 1.6v3h-1V215h.8l.2.7c.3-.3.5-.5.8-.6.3-.2.7-.3 1-.3zm0 0" style="fill:none;stroke:#fff;stroke-width:3;stroke-linecap:butt;stroke-linejoin:round;stroke-miterlimit:10;stroke-opacity:.6" transform=" rotate(  340 26.6797 208.391) "/> <g style="fill:#212121;fill-opacity:1" transform=" rotate(  340 26.6797 208.391) ">  <use xlink:href="#Y" x="4.3" y="220.8"/>  <use xlink:href="#Z" x="9.8" y="220.8"/>  <use xlink:href="#aa" x="14.1" y="220.8"/>  <use xlink:href="#ab" x="20.3" y="220.8"/>  <use xlink:href="#ac" x="27" y="220.8"/>  <use xlink:href="#ad" x="32.1" y="220.8"/>  <use xlink:href="#ae" x="38.8" y="220.8"/> </g> <path d="M3.8 2C3.8 3 3 3.8 2 3.8A1.7 1.7 0 1 1 3.8 2zm0 0" style="fill:#fdfdfa;fill-opacity:1;fill-rule:nonzero;stroke:#575747;stroke-width:.5;stroke-linecap:butt;stroke-linejoin:miter;stroke-miterlimit:4;stroke-opacity:1" transform="translate(61.482436,242.22872)"/> <path d="M46.8 256h-4.4v-8h4.4v1h-3.4v2.4h3.2v.9h-3.2v2.8h3.4zm4.4-6h.6v1l-.5-.2a2 2 0 0 0-.2.1c-.3-.1-.6-.1-.9.1l-.6.8-.2 1v3.2h-1v-6h.8l.1 1.3c.2-.5.5-.7.8-1 .3-.2.6-.3.9-.3zm5.6 6h-4.4v-.7l3.2-4.5h-3v-.7h4v.7l-2.9 4.4h3Zm6.2-6v6h-.7l-.3-.8-.7.7a3 3 0 0 1-1.1.1c-.7 0-1.2-.1-1.6-.4-.4-.4-.6-1-.6-1.7v-3.8h1v3.8c0 1 .4 1.4 1.2 1.4.8 0 1.2-.3 1.5-.6.2-.3.4-.9.4-1.6v-3zm4.7 0h.7l-.2 1-.2-.2a2 2 0 0 0-.4.1c-.3-.1-.6-.1-.8.1l-.8.8v4.2h-1.1v-6h.8l.1 1.3.9-1c.2-.2.6-.3.9-.3zm6.7 0v6h-.8l-.2-.8c-.2.3-.4.5-.8.7a3 3 0 0 1-1 .1c-.9 0-1.4-.1-1.8-.4-.2-.4-.4-1-.4-1.7v-3.8h1v3.8c0 1 .4 1.4 1.3 1.4.6 0 1-.3 1.3-.6.3-.3.4-.9.4-1.6v-3zm8.3 0c.7 0 1.3 0 1.5.5.3.3.5.9.5 1.5v4h-1v-3.8c.1-1-.2-1.4-1-1.4-.7 0-1.1.2-1.4.5-.2.3-.3.7-.3 1.4v3.3h-1v-3.8c0-1-.4-1.4-1.2-1.4-.6 0-1 .2-1.2.5-.3.4-.4 1-.4 1.7v3h-1v-5.8h.8l.2.7c.2-.3.5-.6.8-.7.3-.2.6-.2 1-.2.9 0 1.5.3 1.8 1 .2-.4.5-.6.8-.8l1.1-.2zm0 0" style="fill:none;stroke:#fff;stroke-width:3;stroke-linecap:butt;stroke-linejoin:round;stroke-miterlimit:10;stroke-opacity:.6" transform=" rotate(  340 65.2344 244.23) "/> <g style="fill:#212121;fill-opacity:1" transform=" rotate(  340 65.2344 244.23) ">  <use xlink:href="#af" x="41.4" y="256"/>  <use xlink:href="#Z" x="47.5" y="256"/>  <use xlink:href="#ac" x="52" y="256"/>  <use xlink:href="#ag" x="57.2" y="256"/>  <use xlink:href="#Z" x="64" y="256"/>  <use xlink:href="#ag" x="68.5" y="256"/>  <use xlink:href="#ah" x="75.3" y="256"/> </g> <path d="M3.7 2A1.7 1.7 0 1 1 .2 2a1.7 1.7 0 0 1 3.5 0zm0 0" style="fill:#fdfdfa;fill-opacity:1;fill-rule:nonzero;stroke:#575747;stroke-width:.5;stroke-linecap:butt;stroke-linejoin:miter;stroke-miterlimit:4;stroke-opacity:1" transform="translate(146.02883,139.00307)"/> <path d="M76.2 137h2.3c1 0 1.7.2 2.2.5.5.2.8.8.8 1.5 0 .4-.2.8-.5 1-.2.4-.5.6-1 .7a3 3 0 0 1 .9.3l.6.6c.2.4.2.6.2 1 0 .8-.2 1.4-.7 1.7-.5.4-1 .6-2 .6h-2.8zm1 3.4h1.5c.7 0 1.1-.1 1.4-.4.2-.2.3-.5.3-1 0-.3-.1-.6-.4-.7-.3-.3-.8-.4-1.5-.4h-1.3zm0 .8v2.8h1.6c.7 0 1.2 0 1.5-.4.2-.2.4-.6.4-1s-.2-.8-.4-1c-.3-.3-.8-.4-1.6-.4zm10.6 3.7h-1v-5.1H85c0 1.2-.2 2.2-.4 3-.1.7-.3 1.2-.6 1.6-.3.4-.7.6-1 .6h-.5l-.1-.2v-.6h.3c.4 0 .7-.4 1-1.3.2-.8.3-2.1.5-3.9h3.5Zm4.1-6c.7 0 1.1.1 1.6.5.3.3.5.8.5 1.5v4h-.7l-.3-.9-.9.8-1.1.2c-.5 0-1-.2-1.3-.4-.3-.3-.5-.8-.5-1.4 0-.5.2-1 .7-1.2.4-.4 1.1-.6 2.1-.6h1v-.4c0-.5 0-1-.3-1-.2-.2-.5-.3-.9-.3l-.9.1a7 7 0 0 0-.8.3l-.3-.7a4 4 0 0 1 1-.4 4 4 0 0 1 1 0zM93 142h-.9c-.7 0-1.1.2-1.5.4-.3.2-.4.5-.4.8 0 .4 0 .6.3.8l.8.2c.5 0 .9-.1 1.2-.4.3-.3.5-.7.5-1.3zm7.2-3v5h.8v3h-1v-2.2h-4v2.1h-1v-2.8h.6a7.5 7.5 0 0 0 1.1-2.4c.2-1 .3-1.8.3-2.7zm-1 .7H98c0 .5 0 1-.3 1.6l-.5 1.5c-.2.5-.4 1-.7 1.3h2.7zm3.8-.7v4.9l3.2-4.9h1.2v6h-1v-4.1l.2-.5v-.4l-3.2 4.9h-1.2v-6zm9.7 0h1.1l-2.5 2.8 2.7 3h-1l-2.8-2.9v3h-1V139h1.1v2.8zm4.6-.1c.7 0 1.3.1 1.7.5.2.3.4.8.4 1.5v4h-.7l-.2-.9-.8.8-1.2.2c-.5 0-1-.2-1.3-.4-.4-.3-.6-.8-.6-1.4 0-.5.4-1 .7-1.2.5-.4 1.2-.6 2.2-.6h1v-.4c0-.5-.1-1-.3-1-.3-.2-.6-.3-1-.3l-.8.1a7 7 0 0 0-.8.3l-.3-.7a4 4 0 0 1 .9-.4 4 4 0 0 1 1.1 0zm1.2 3.1h-1c-.5 0-1 .2-1.3.4-.4.2-.6.5-.6.8 0 .4.1.6.4.8l.7.2c.5 0 1-.1 1.3-.4.3-.3.5-.7.5-1.3zm7.5-1.5c0 .3-.1.5-.3.8-.3.2-.5.4-.9.4a2 2 0 0 1 1 .6c.2.1.4.4.4.9 0 .3-.2.8-.6 1.1-.4.4-1 .6-1.8.6h-2.5v-6h2.5l1.1.3.8.4c.2.2.3.4.3.9zm-1 0c0-.1 0-.3-.3-.5l-1-.2h-1.5v1.6h1.3c1 0 1.5-.3 1.5-.8zm.2 2.7c0-.4-.2-.6-.4-.8l-1.1-.2h-1.5v1.9h1.5c.5-.1.8-.1 1-.2.3-.2.6-.4.6-.9zM131 139h1.2l-2.6 2.8 2.7 3h-1l-2.8-2.9v3h-.9V139h1v2.8zm4.6-.1c.8 0 1.4.1 1.6.5.4.3.6.8.6 1.5v4h-.8v-.9l-1 .8-1.2.2c-.5 0-1-.2-1.3-.4-.4-.3-.5-.8-.5-1.4 0-.5.2-1 .7-1.2.3-.4 1.1-.6 2.1-.6h1v-.4c0-.5-.1-1-.3-1-.2-.2-.5-.3-1-.3l-.7.1a7 7 0 0 0-.9.3l-.3-.7a4 4 0 0 1 1-.4 4 4 0 0 1 .9 0zm1.2 3.1h-.9c-.7 0-1.2.2-1.5.4-.4.2-.4.5-.4.8 0 .4 0 .6.3.8l.7.2c.5 0 1-.1 1.3-.4.3-.3.5-.7.5-1.3zm4.3-3.1c.7 0 1.2.1 1.6.4.4.2.6.6.6 1.1 0 .4 0 .7-.3.9l-.8.4.8.3.3.5c.2.2.2.5.2.7 0 .5-.2 1-.5 1.3-.5.3-1 .5-2 .5l-1-.1c-.5 0-.8-.2-1-.3v-.9c.3.3.5.3.9.3l1.1.2c.4 0 .8 0 1.1-.2.3-.2.5-.4.5-.8 0-.7-.6-1-1.7-1h-.9v-.8h.7c.5 0 1 0 1.3-.2.3-.1.4-.4.4-.7 0-.3-.1-.5-.3-.5-.3-.3-.6-.3-1.1-.3h-.8l-.8.3-.3-.7a5.2 5.2 0 0 1 1.9-.4zm0 0" style="fill:none;stroke:#fff;stroke-width:3;stroke-linecap:butt;stroke-linejoin:round;stroke-miterlimit:10;stroke-opacity:.6" transform="rotate(  340 149.777 141.004) translate(41.797202,6.6875519)"/> <g style="fill:#212121;fill-opacity:1" transform=" rotate(  340 149.777 141.004) ">  <use xlink:href="#ai" x="117" y="151.6"/>  <use xlink:href="#aj" x="124.1" y="151.6"/>  <use xlink:href="#ak" x="130.5" y="151.6"/>  <use xlink:href="#al" x="136.7" y="151.6"/>  <use xlink:href="#am" x="143" y="151.6"/>  <use xlink:href="#an" x="150.1" y="151.6"/>  <use xlink:href="#ak" x="155.9" y="151.6"/>  <use xlink:href="#ao" x="162.1" y="151.6"/>  <use xlink:href="#an" x="168.4" y="151.6"/>  <use xlink:href="#ak" x="174.3" y="151.6"/>  <use xlink:href="#ap" x="180.4" y="151.6"/> </g> <use style="fill:#fdfdfa;fill-opacity:1;fill-rule:nonzero;stroke:#575747;stroke-width:.5;stroke-linecap:butt;stroke-linejoin:miter;stroke-miterlimit:4;stroke-opacity:1" transform="translate(232.45997,34.254643)" xlink:href="#reuse-0"/> <path d="m209.1 37.4-1-2.4h-2.9l-1.2 2.4h-.9l3-7.9h1.1l2.8 8zm-1.1-3.3-1.1-2.4a13.7 13.7 0 0 1-.2-1.1 9 9 0 0 1-.3.6l-.1.5-1 2.4zm5.4 3.4a3 3 0 0 1-1.4-.3 2.3 2.3 0 0 1-1-1c0-.4-.2-1-.2-1.7s.2-1.3.4-1.8c.1-.4.5-.7.9-1 .4-.2.9-.3 1.4-.3a4 4 0 0 1 1.6.3l-.3.8a6 6 0 0 0-.8-.1l-.5-.1c-1.2 0-1.7.7-1.7 2.2 0 .7 0 1.3.4 1.6.3.4.7.6 1.2.6h.9c.2-.3.5-.4.7-.4v.9a3 3 0 0 1-.7.2l-.9.1zm7-5.2h-1.9v5.1h-1v-5h-1.9v-1h4.8zm4-.9c.6 0 1.3.3 1.6.8.6.5.8 1.2.8 2.3 0 1-.2 1.7-.7 2.2-.4.6-1 .8-1.7.8-.5 0-.8 0-1.1-.2a2.2 2.2 0 0 1-.7-.6h-.1V40h-.9v-8.5h.9v.8l.8-.6c.2-.2.7-.3 1.1-.3zm-.2.8c-.6 0-1 .2-1.2.5-.3.4-.4.9-.4 1.6v.2c0 .7 0 1.2.3 1.5.3.5.7.7 1.4.7.3 0 .5 0 .7-.3.4-.2.5-.4.6-.8.2-.3.2-.6.2-1.2s-.1-1.2-.4-1.6c-.2-.4-.6-.6-1.2-.6zm6.4-.8c.7 0 1.2.2 1.6.6.3.2.5.7.5 1.4v4h-.7l-.2-.8-.8.7-1.2.2c-.6 0-1-.1-1.3-.4-.5-.3-.6-.7-.6-1.3.1-.6.2-1 .7-1.4.5-.3 1.2-.4 2.1-.4h1v-.5c0-.5 0-.8-.3-1-.2-.2-.4-.3-.9-.3l-.8.1a7 7 0 0 0-.8.4l-.3-.8a4 4 0 0 1 .9-.3 4 4 0 0 1 1-.2zm1.2 3.1h-1c-.6.2-1.1.3-1.4.5-.3.1-.4.4-.4.8 0 .2 0 .6.2.7.2.2.5.2.8.2.5 0 1 0 1.3-.4.3-.2.4-.7.4-1.2zm4.2-.1-2.2-2.9h1.1l1.7 2.2 1.4-2.2h1.1l-2 2.9 2.1 3h-1l-1.8-2.3-1.4 2.3h-1.2zm6.6-3c.7 0 1.2.2 1.6.6.3.2.5.7.5 1.4v4h-.7l-.2-.8-.9.7-1.1.2c-.6 0-1-.1-1.4-.4-.3-.3-.4-.7-.4-1.3 0-.6.1-1 .6-1.4.5-.3 1.2-.4 2.1-.4h1v-.5c0-.5 0-.8-.3-1-.2-.2-.4-.3-.9-.3l-.9.1a7 7 0 0 0-.6.4l-.4-.8a4 4 0 0 1 .9-.3 4 4 0 0 1 1-.2zm1.1 3.1h-.7c-1 .2-1.4.3-1.7.5-.2.1-.3.4-.3.8 0 .2 0 .6.2.7.2.2.5.2.8.2.5 0 .9 0 1.2-.4.4-.2.5-.7.5-1.2zm3.8-3V34h3.2v-2.5h1v6h-1v-2.8h-3.2v2.7h-1v-5.9zm7 2.5h1.7c1.6 0 2.3.4 2.3 1.5 0 .7-.1 1.1-.5 1.5-.4.3-1 .4-1.8.4h-2.7v-5.9h1zm3 1.6c.1-.3.1-.6-.2-.7l-1.1-.2h-1.8v2h1.8c.4-.1.7-.2 1-.4.2 0 .4-.3.4-.6zm.1.1" style="fill:none;stroke:#fff;stroke-width:3;stroke-linecap:butt;stroke-linejoin:round;stroke-miterlimit:10;stroke-opacity:.6" transform="rotate(  340 236.211 36.254) translate(3.3437761,7.5234963)"/> <g style="fill:#212121;fill-opacity:1" transform=" rotate(  340 236.211 36.254) ">  <use xlink:href="#aq" x="206.5" y="44.9"/>  <use xlink:href="#ar" x="213.5" y="44.9"/>  <use xlink:href="#as" x="218.8" y="44.9"/>  <use xlink:href="#at" x="224" y="44.9"/>  <use xlink:href="#ak" x="230.8" y="44.9"/>  <use xlink:href="#au" x="236.9" y="44.9"/>  <use xlink:href="#ak" x="242.8" y="44.9"/>  <use xlink:href="#av" x="248.9" y="44.9"/>  <use xlink:href="#aw" x="255.9" y="44.9"/> </g> <path d="m258.7 136.8 1.8-8.6h1l-.7 4.1 3.9-4.1h1.3l-4.2 4.3 2.7 4.3h-1.2l-2.6-4.3-1 4.3zm8.6.1c-.5 0-1-.2-1.3-.6-.3-.3-.5-1-.5-1.6 0-.7.1-1.2.3-1.7.1-.6.2-1 .6-1.4.3-.6.6-.8 1-1 .4-.3.8-.4 1.3-.4.3 0 .8.1 1 .4.3.2.5.4.6.7l.6-1h.6l-1.3 6.5h-.9l.2-1.2-1 .9a2 2 0 0 1-1.2.4zm.3-.9.9-.3.8-.9.5-1.2.1-.7v-.5c.1-.4.1-.7-.3-1-.2-.1-.5-.2-.8-.2l-.9.2c-.2.2-.5.4-.7.8l-.4 1.1-.2 1.4c0 .4.1.8.4 1 0 .2.3.3.6.3zm7.1.9c-.7 0-1.3-.2-1.7-.6-.4-.4-.7-1-.7-1.8 0-.6.1-1.1.3-1.7.1-.5.4-1 .7-1.3a3 3 0 0 1 1-1c.4-.1.9-.2 1.4-.2h.9l.7.3-.3.8-.6-.2-.7-.2c-.4.1-.7.3-1.2.6a3 3 0 0 0-.8 1.2c-.2.5-.3 1-.3 1.7 0 .4.2.8.4 1.1.3.3.6.4 1 .4l.8-.1a9 9 0 0 0 .8-.3v.9l-.8.3h-.9zm2.8-.1 1.4-6.5h1l-.3 1.2.6-.6.8-.5a2 2 0 0 1 1-.2c.4 0 .8.1 1 .4.4.3.5.7.5 1.2v.6l-.1.4-.9 4h-1l.7-4v-1c.2-.4 0-.8-.5-.8l-1 .4-.9.9-.6 1.7-.6 2.8zm8.9.1c-.4 0-.9-.2-1.2-.4-.2-.3-.4-.7-.4-1.2v-.5l.2-.6.8-3.9h1l-.8 4a4 4 0 0 0-.1 1c0 .1 0 .3.1.5l.7.2c.3 0 .6 0 .9-.3.3-.2.6-.5.9-1 .2-.2.5-.8.5-1.5l.7-2.9h1l-1.3 6.5h-.9l.2-1.2h-.1l-.6.6-.7.5a2 2 0 0 1-.9.2zm9-7.4c-.7 0-1.1-.1-1.4-.5-.3-.2-.5-.5-.5-1v-.5h1.1v.5c-.1.2-.1.4.1.5.2.2.4.2.8.2s.7 0 .9-.2c.2-.1.4-.4.5-.9h1c-.1.6-.4 1-.7 1.4-.4.3-1 .5-1.8.5zm-2 7.4c-.5 0-1-.2-1.2-.4-.3-.3-.4-.7-.4-1.2v-.5l.1-.6.8-3.9h1.1l-.9 4a4 4 0 0 0 .1 1v.5l.7.2c.2 0 .5 0 .8-.3.5-.2.7-.5 1-1l.5-1.5.7-2.9h1l-1.4 6.5h-.8l.1-1.2-.6.6-.7.5a2 2 0 0 1-1 .2zm7.6 0c-.7 0-1.3-.2-1.7-.6-.5-.4-.7-1-.7-1.8 0-.6.1-1.1.4-1.7 0-.5.2-1 .5-1.3a3 3 0 0 1 1.1-1c.4-.1.9-.2 1.4-.2h.8l.8.3-.3.8-.6-.2-.7-.2c-.5.1-.9.3-1.2.6a3 3 0 0 0-.8 1.2c-.2.5-.3 1-.3 1.7 0 .4.1.8.4 1.1.2.3.6.4.9.4l1-.1a9 9 0 0 0 .7-.3v.9l-.8.3h-.9zm2.8-.1 1.4-6.5h1l-.6 3.1 3-3h1.3l-3.2 3 2.1 3.4h-1.2l-2-3.2-.8 3.2zm8.2 0c-.7 0-1.3-.2-1.7-.6-.4-.5-.6-1-.6-1.8 0-.5 0-1 .2-1.5 0-.5.3-.9.6-1.3.2-.4.5-.7 1-1 .4-.2.8-.4 1.4-.4.7 0 1.3.3 1.7.8.5.3.7 1 .7 1.7l-.3 1.5-.5 1.3-1 1c-.5.2-1 .3-1.5.3zm.1-.8c.4 0 .7-.2 1-.4.5-.3.7-.7.9-1.2a5.3 5.3 0 0 0 .2-1.8 2 2 0 0 0-.2-.7l-.4-.6-.6-.2c-.6 0-1 .2-1.3.5-.3.3-.5.7-.7 1.2-.2.5-.3 1-.3 1.6 0 .6.1.9.4 1.2.2.2.6.4.9.4zm6.6.9c-.7 0-1.3-.2-1.7-.7-.4-.4-.6-1-.6-1.7 0-.6 0-1 .2-1.6.2-.5.4-.9.7-1.3.3-.4.6-.8 1-1 .4-.3.7-.4 1.3-.4.6 0 1 .1 1.4.4.3.3.5.6.5 1.1 0 .4-.2.8-.5 1.1-.2.4-.6.7-1.1.9-.6.2-1.3.3-2.2.3h-.2v.4c0 .6 0 .9.3 1.2.3.3.6.4 1.2.4l.8-.1.9-.4v1l-1 .2h-.9zm-1-3.9h1.4c.4 0 .7-.2.9-.4.3-.2.4-.6.4-.8 0-.2 0-.4-.2-.5l-.6-.3c-.4 0-.8.3-1.1.6-.5.4-.7.9-.8 1.5zm-45.1 18.3 1.4-6.4h1.4l.6 5 3-4.9h1.3l-1.3 6.3h-1l.8-3.7a27.2 27.2 0 0 1 .4-1.8l-3 5.5h-.8l-.8-5.4-.1.8-.2 1-.8 3.5zm11 .1c-.6 0-1.3-.2-1.6-.7-.5-.4-.8-1-.8-1.7l.2-1.6.6-1.3 1-1 1.6-.3c.6 0 1.2.2 1.6.6.4.6.8 1 .8 1.8l-.3 1.6c-.2.4-.4.9-.7 1.2-.2.4-.6.8-1 1-.4.3-.8.4-1.4.4zm.1-.9c.4 0 .7-.1 1-.4.4-.3.6-.6.8-1.1a5.3 5.3 0 0 0 .3-2 2 2 0 0 0-.1-.6l-.5-.4c-.2-.3-.4-.4-.7-.4-.5 0-.9.2-1.2.5-.3.3-.5.7-.7 1.2-.2.5-.3 1-.3 1.6 0 .5.1 1.1.4 1.2.2.3.6.4 1 .4zm3.5 3.7 2-9.4h.8l-.2 1.2a5 5 0 0 1 1.1-.9 2 2 0 0 1 1.2-.4c.5 0 .9.3 1.2.6.3.4.5 1 .5 1.6 0 .6 0 1.2-.2 1.7l-.7 1.5c-.2.4-.6.7-.9.9-.3.2-.8.3-1.2.3-.6.1-.9 0-1.2-.2a2.3 2.3 0 0 1-.6-.8 12.3 12.3 0 0 1-.2 1l-.6 3zm3.4-3.7c.3 0 .6 0 .8-.3l.7-.8.5-1.2.1-1.2c0-.9-.3-1.4-1-1.4-.3 0-.7.1-.8.4l-.9.7-.4 1.3c-.2.3-.3.8-.3 1.2s.1.8.3 1c.2.2.5.3 1 .3zm6.7.9c-.8 0-1.4-.2-1.8-.7-.4-.4-.5-.9-.5-1.7l.2-1.5c.1-.5.3-1 .6-1.5l1-1c.4 0 .9-.3 1.4-.3.6 0 1 .3 1.3.4.3.3.5.7.5 1.1 0 .5-.1.8-.4 1.2-.3.3-.6.6-1.2.8-.6.2-1.4.3-2.2.3h-.2v.4c0 .5.1 1.1.4 1.2.2.3.6.4 1 .4h1.1l.6-.5v1l-.8.2-1 .2zm-1.1-3.8h1.5l.9-.6c.2 0 .4-.4.4-.7 0-.2-.1-.3-.3-.5l-.6-.2c-.4 0-.8.2-1.1.5-.4.4-.6.9-.8 1.5zm0 0" style="fill:none;stroke:#fff;stroke-width:2;stroke-linecap:butt;stroke-linejoin:round;stroke-miterlimit:10;stroke-opacity:.6" transform="rotate(  340 278.926 160.661) translate(-10.031328,19.644685)"/> <g style="fill:#4c7fb3;fill-opacity:1" transform=" rotate(  340 278.926 160.661) ">  <use xlink:href="#ax" x="248.2" y="156.4"/>  <use xlink:href="#ay" x="254.9" y="156.4"/>  <use xlink:href="#az" x="261.7" y="156.4"/>  <use xlink:href="#aA" x="267.2" y="156.4"/>  <use xlink:href="#aB" x="274.1" y="156.4"/>  <use xlink:href="#aC" x="281.1" y="156.4"/>  <use xlink:href="#az" x="288" y="156.4"/>  <use xlink:href="#aD" x="293.5" y="156.4"/>  <use xlink:href="#aE" x="299" y="156.4"/>  <use xlink:href="#aF" x="305.8" y="156.4"/>  <use xlink:href="#aG" x="262.2" y="170.9"/>  <use xlink:href="#aE" x="270.6" y="170.9"/>  <use xlink:href="#aH" x="277.4" y="170.9"/>  <use xlink:href="#aF" x="284.3" y="170.9"/> </g></svg>