<svg xmlns:xlink="http://www.w3.org/1999/xlink" viewBox="0 0 497 279" xmlns="http://www.w3.org/2000/svg">
  <defs style="stroke:none" overflow="visible">
    <path d="M2.6-9v3.4c0 2-.2 4.2-2 5.8l.8.6c1.9-1.8 2-4.2 2-6.4V-9Zm3.1.2V.1h.8v-8.9ZM9-9V.7h.8V-9ZM1.4-6.5c-.2 1-.5 2.1-1 2.9l.6.3c.6-.8.9-2 1-3Zm2.3.4.8 2.8.8-.3c-.3-.7-.5-1.8-1-2.7Zm3.1.1c.5.7 1 1.9 1.2 2.6l.7-.4c-.2-.7-.8-1.7-1.3-2.5Zm0-.1" id="K"/>
    <path d="M9.9-9.1H9V-5l-.1.2H7.6l.4.7c.7 0 1 0 1.5-.2.3 0 .4-.2.4-.7Zm-2.4.3h-.8v3.5h.8ZM3-4.2h.7V-6l1.4 1.2.4-.6-1.7-1.3h2.1v-.6H3.7v-1c.7 0 1.4-.2 1.9-.4L5-9.2c-1 .3-2.7.5-4.2.6l.2.5 2-.1v.9H.7v.6h2C2-5.9 1.3-5.2.5-4.8l.5.5c.7-.4 1.4-1 2-1.7Zm7.4 2.6H5.9v-1h3.5v-.8H5.9v-1h-.8v1H3l.4-.6-.7-.2c-.4.8-1 1.6-1.7 2.2l.7.3 1-1H5v1.1H.6v.7h4.5V.8h.8V-.9h4.5Zm0 0" id="J"/>
    <path d="M3-9.2C2.5-7.5 1.5-5.9.3-4.8l.4.8 1.2-1.5V.8h.8v-7.5l1.1-2.2Zm6 5.9H6.6v-1.8H9ZM6.6-7.7H9v1.8H6.7Zm3.9 1.8h-.8v-2.6H4v.8h2v1.8H3.1v.9H6v1.7H3.9v.8h1.7c-.2 1-.9 2-2.4 2.7l.5.8c1.8-1 2.5-2.2 2.8-3.5H9v.5h.7v-3h.8Zm0 0" id="I"/>
    <path d="M2.7-5.8H4v-.8H2.7V-9h-.8v2.4H.5v.8h1.4v3.5l-1.5.6.3.7 3.4-1.4-.2-.7-1.2.5ZM6.4-.1c-.8 0-.9-.2-.9-.9v-3.7L7-5.3v3.7h.8v-4l1.5-.7L9.2-3c0 .2-.2.2-.3.2H8l.3.8h1c.5-.2.7-.4.7-1v-3.9l.2-.3-.7-.2-.1.2-.2.1-1.4.6v-2.7H7v3l-1.5.7v-2.7h-.8v3l-1.2.5.3.7 1-.3V-1C4.7.3 5 .6 6.2.6H9c1.2 0 1.4-.6 1.6-2-.3 0-.6-.2-.8-.3C9.8-.4 9.6-.1 9-.1Zm0 0"/>
    <path d="M3.2-9.2C2.6-7.5 1.5-5.8.4-4.7L1-4l1.1-1.4V.8h.8v-7.5L4-8.9Zm7.3 3.8h-3v-3.7h-.8v3.7h-3v.8h2.9V.8h.9v-5.4h3Zm0 0"/>
    <path d="M4.8-7.5h4.8v1.2h.7v-1.9H7.6v-1h-.8v1H4.1v1.9h.7Zm1 5c.4-.2.9-.5 1.4-1 .6.5 1.1.9 1.7 1.1ZM5.7 0v-1.8h3v1.7Zm.4-5.7h2.3c-.4.5-.7 1-1.2 1.4-.5-.4-.9-.8-1.1-1.3ZM2.9-3H1.5v-4.3H3ZM9-6.4H6.6L7-7l-.8-.2c-.4 1-1.2 1.9-2.4 2.6.2 0 .5.3.5.5.5-.3 1-.6 1.3-1l1 1.3c-.7.6-1.8 1-2.9 1.3V-8H1v6.7h.5v-.9h2.1v-.2l.5.6.9-.3v3h.7V.4h3v.4h.9v-3l.6.2c0-.3.3-.6.5-.7-1.1-.3-2-.7-2.9-1.3.7-.5 1.2-1.2 1.6-2Zm0 0"/>
    <path d="M10.4-6.9v-.8H6v-1.5H5v1.4H.6v.9H5v1.5H1.7v4.9h.8v-4.1H5V.9h1v-5.5h2.6v3c0 .3 0 .3-.3.4H6.7l.3.5h2c.2-.1.3-.4.3-.8v-4H6v-1.3Zm0 0" id="H"/>
    <path d="M2.9-2.6c0 1-.2 2.1-1.9 3 .2-.1.5.2.7.4 1.8-.8 2-2.2 2-3.4v-1.2h-.8ZM7.4.8h.9v-4.6h-.9Zm0-8.3c-.4.8-.9 1.3-1.7 1.8-1-.5-1.7-1-2.2-1.8Zm3.1 0v-.7H5.8v-1H5v1H.7v.7h2c.4 1 1.1 1.6 2 2.2-1.1.6-2.6 1-4.2 1.1l.5.8c1.7-.3 3.3-.8 4.6-1.4 1.3.6 2.8 1 4.4 1.3l.6-.8c-1.6 0-3-.5-4.2-1 .8-.7 1.5-1.3 2-2.2Zm-.2 0" id="G"/>
    <path d="M10.2-5.7v-.8H6v-2.7h-.9v2.7H.8v.8h3.9C3.7-3.8 2-1.9.4-1l.6.7c1.5-1 3-2.7 4-4.5V.8h1v-5.6C7-3 8.4-1.3 10-.4l.6-.6C9-2 7.3-3.8 6.3-5.7Zm0 0" id="F"/>
    <path d="m6.3-8-.7.8H2.8l.7-.7Zm2 2H5.8v-.8h2.5Zm0 1H5.8v-.6h2.5Zm-5.7-.6h2.5v.6H2.6Zm0-1.2h2.5v.8H2.6ZM2-4.3h7v-3H6.6c.4-.3.6-.6.7-1l-.5-.1H4l.4-.7-.8-.1C3-8.4 1.9-7.3.5-6.6L1-6l.9-.6Zm5.9 2v.8H3v-.8ZM3 0v-1h5v1Zm-.8.9H3V.5h5v.3h.8v-3.7H2.2ZM.8-4v.6h9.3v-.5Zm0 0" id="E"/>
    <path d="M8.3-2.2H.7v.8h7.6Zm1.8-2H2.9v-3h5.3C8-6.3 8-6 7.8-5.7H6.1l.2.7h1.5c.2 0 .5 0 .6-.2.4-.3.5-1 .6-2.5v-.4H5c.4-.3.5-.7.7-.9l-.9-.3L4.3-8H2v4.6h7.3C9.2-1.2 9-.4 8.8 0H6.7c.3.2.3.5.3.8h1.6c.4 0 .6-.1.9-.4.3-.4.4-1.4.5-4.2Zm-.1.1" id="D"/>
    <path d="M1 1.3h9v-11H1Zm4.6-6L2-9h7Zm.3.6 3.4-4.6v9ZM2 .8l3.5-4.5L9 .8Zm-.3-9.5L5-4.2 1.7.3Zm0 0"/>
    <path d="M5.4 0h-1v-5H2.7c0 1-.2 2-.4 3-.2.6-.3 1.1-.7 1.5-.2.4-.6.5-1 .5H.1v-.7h.3C.8-.7 1-1 1.4-2l.4-3.9h3.6Zm0 0" id="C"/>
    <path d="M4.4-7c-.8 0-1.4.1-2 .7C2-5.8 1.7-5 1.7-4c0 1 .3 1.8.7 2.4.4.6 1.1.8 2 .8h1l.9-.3v.9l-1 .2-.9.1C3.5.1 2.8 0 2.3-.4c-.6-.3-1-.8-1.3-1.4C.8-2.4.7-3 .7-3.9S.8-5.4 1-6c.4-.6.8-1.1 1.4-1.5.6-.3 1.2-.5 2-.5.9 0 1.6.2 2.2.5l-.4.8-.8-.3h-1Zm0 0" id="B"/>
    <path d="M.4-2.5v-.9h2.7v.9Zm0 0" id="A"/>
    <path d="M5.6-5.9 3.3 0h1.5v.7H3.3v2h-1V.6H.8V0h1.5L0-5.9h1l1.2 3.2.3 1 .3.7.2-.8.4-1 1.2-2.9Zm0 0" id="z"/>
    <path d="M7 0H6v-3.7H2V0H1v-7.9h1v3.4h4V-8h1Zm0 0" id="y"/>
    <path d="M3.2-6c.5 0 1 .1 1.3.3.5.2.7.7.8 1 .2.4.3.7.3 1.4v.5h-4c0 .8.2 1.2.5 1.6.3.2.9.5 1.4.5l1-.1.9-.3v.8c-.4.3-.6.3-1 .3l-.9.1C3 .1 2.4 0 2-.2c-.5-.3-.8-.6-1-1C.7-1.8.6-2.3.6-3s.1-1.1.4-1.6c.1-.4.4-.8 1-1 .1-.4.6-.4 1.1-.4Zm0 .8c-.5 0-.8.1-1 .4-.5.3-.6.8-.7 1.3h3.1c0-.5 0-1-.3-1.3-.3-.2-.6-.4-1.1-.4Zm0 0"/>
    <path d="M9-5.9V0H1v-5.9h1v5h2.3v-4.9h1.1v4.9H8v-4.9Zm0 0"/>
    <path d="M1 0v-7.9h4.8v1H2.1v2.3h1.1c.8.1 1.4.1 1.8.4.5.2.8.4 1 .7l.2 1.2c0 .7-.2 1.3-.7 1.7-.4.4-1.1.6-2.1.6Zm1-.8h1.4c.6 0 1.1-.2 1.4-.4.2-.2.4-.6.4-1.1 0-.5-.2-.9-.5-1-.3-.4-.8-.5-1.6-.5h-1Zm0 0"/>
    <path d="M2-8.4v2.5l-.3.8H2l.7-.7 1-.2c.8 0 1.3.2 1.8.5.2.5.4 1 .4 1.7V0H5v-3.8c0-1-.4-1.4-1.3-1.4-.7 0-1.1.2-1.4.6-.3.3-.4.9-.4 1.6v3H1v-8.4Zm0 0" id="x"/>
    <path d="M3.5 0h-1v-7H.2v-.9H6v1H3.5Zm0 0" id="w"/>
    <path d="M4.4-5.9h1L3-3l2.7 3H4.6L1.9-3v3H1v-5.9h1V-3Zm0 0"/>
    <path d="M1.8-5.9V-1l3.1-4.9h1.2V0h-.9v-4.9L2.3 0H.8v-5.9Zm0 0"/>
    <path d="M5.8-5.9v5h.9v3.1h-1V0h-.9v-2.6l-1 .5-.9.1C2-2 1.5-2 1.2-2.4 1-2.7.8-3.2.8-3.7v-2.2h1v2.2c0 .6.4.9 1.1.9.4.1.7.1 1.1-.2l1-.4v-2.5Zm0 0"/>
    <path d="M6-3c0 1-.1 1.8-.6 2.3-.6.5-1.2.8-2.1.8-.5 0-1-.1-1.3-.3-.5-.4-.8-.6-1-1.2C.8-1.8.7-2.3.7-3c-.1-1 .3-1.7.6-2.2.5-.5 1.2-.8 2-.8.7 0 1 .1 1.5.4.4.2.7.5 1 1L6-3ZM1.7-3c-.1.7 0 1.3.3 1.7.3.4.7.6 1.3.6.7 0 1-.2 1.3-.6.4-.4.5-1 .5-1.7-.1-.6-.2-1.2-.5-1.6-.2-.4-.6-.6-1.3-.6-.6 0-1 .2-1.3.6-.3.4-.4 1-.4 1.6Zm-.1 0"/>
    <path d="M3.5 0h-1v-7H.2v-.9H6v1H3.5Zm0 0"/>
    <path d="M4.5-5.9v.9H2v5H1v-5.9Zm0 0" id="v"/>
    <path d="M3.7-6c.8 0 1.3.3 1.8.8.4.5.7 1.2.7 2.2 0 1-.3 1.8-.7 2.3-.5.7-1 .8-1.8.8L2.6 0l-.7-.8v3.4H1v-8.5h.7L2-5c.1-.4.3-.6.6-.7.3-.3.7-.3 1.1-.3Zm-.1.8c-.6 0-1 .2-1.3.5-.3.3-.4.9-.4 1.7.1.8.1 1.3.4 1.7.2.4.6.6 1.3.6.3 0 .6 0 .9-.3l.5-.8.2-1.2c0-.6-.2-1.2-.4-1.6-.3-.4-.8-.6-1.2-.6Zm0 0" id="u"/>
    <path d="M1 0v-5.9h1v2.4h1.3c.9 0 1.5.2 1.8.5.4.2.6.6.6 1.2 0 .5-.2 1-.7 1.3-.2.3-.9.5-1.6.5Zm5.6 0v-5.9h1.1V0ZM1.9-.8h1.4c.4 0 .8 0 1-.2.3 0 .4-.4.4-.8 0-.2-.1-.5-.3-.7l-1-.2H1.8Zm.1 0" id="t"/>
    <path d="M6.8 0H5.6L2.1-4v4H1v-7.9h1V-4l3.5-4h1.1L3.2-4Zm0 0" id="s"/>
    <path d="M3.8-6c.7 0 1.2.2 1.6.5.3.5.5.9.5 1.7V0H5v-3.8c0-1-.4-1.4-1.3-1.4-.7 0-1.1.2-1.4.6-.3.3-.4.8-.4 1.5V0H1v-5.9h.7L2-5l.7-.8 1-.2Zm0 0" id="r"/>
    <path d="M6-3c0 1-.1 1.8-.6 2.3-.6.5-1.2.8-2.1.8-.5 0-1-.1-1.3-.3-.5-.4-.8-.6-1-1.2C.8-1.8.7-2.3.7-3c-.1-1 .3-1.7.6-2.2.5-.5 1.2-.8 2-.8.7 0 1 .1 1.5.4.4.2.7.5 1 1L6-3ZM1.7-3c-.1.7 0 1.3.3 1.7.3.4.7.6 1.3.6.7 0 1-.2 1.3-.6.4-.4.5-1 .5-1.7-.1-.6-.2-1.2-.5-1.6-.2-.4-.6-.6-1.3-.6-.6 0-1 .2-1.3.6-.3.4-.4 1-.4 1.6Zm-.1 0" id="q"/>
    <path d="M3-.7h.3l.4-.1v.7l-.4.2h-.6L2 0c-.4-.1-.6-.3-.7-.6C1-.9 1-1.2 1-1.7v-3.4H.2v-.5L1-6l.4-1.3H2v1.5h1.7v.8H2v3.3c0 .3 0 .6.2.7l.8.3Zm0 0" id="p"/>
    <path d="M4.8-1.6c0 .5-.2 1-.8 1.3-.3.3-.9.3-1.6.3h-1C1 0 .7-.1.5-.3V-1l.9.2 1 .1c.6 0 .9 0 1.1-.2l.3-.6V-2l-.6-.3-.9-.4-.8-.3-.7-.6c-.2-.2-.2-.5-.2-.8 0-.6.2-1 .6-1.2.4-.3 1-.4 1.6-.4l1 .1.9.3-.4.8-.8-.3-.8-.1c-.4 0-.7 0-.9.2-.2 0-.3.3-.3.5l.1.4.5.3c.2.3.5.3.9.4L4-3l.6.6.2.8Zm0 0" id="o"/>
    <path d="m1.4-8.1.4.1.2.5c0 .2 0 .5-.2.5H1v-1h.4ZM2-6v6H1v-5.9Zm0 .1" id="n"/>
    <path d="M1.9-8.4V-3l.1-.3.4-.3.2-.4 1.9-2h1.1L3.2-3.4 5.8 0H4.6l-2-2.8-.7.7V0h-1v-8.4Zm0 0" id="m"/>
    <path d="M3.2-6c.5 0 1 .1 1.3.3.5.2.7.7.8 1 .2.4.3.7.3 1.4v.5h-4c0 .8.2 1.2.5 1.6.3.2.9.5 1.4.5l1-.1.9-.3v.8c-.4.3-.6.3-1 .3l-.9.1C3 .1 2.4 0 2-.2c-.5-.3-.8-.6-1-1C.7-1.8.6-2.3.6-3s.1-1.1.4-1.6c.1-.4.4-.8 1-1 .1-.4.6-.4 1.1-.4Zm0 .8c-.5 0-.8.1-1 .4-.5.3-.6.8-.7 1.3h3.1c0-.5 0-1-.3-1.3-.3-.2-.6-.4-1.1-.4Zm0 0" id="l"/>
    <path d="M2-8.4v2l-.2.9v.4c.3-.3.5-.5.8-.6.3-.3.7-.3 1.1-.3.8 0 1.3.3 1.8.8.4.5.7 1.2.7 2.2 0 1-.3 1.8-.7 2.3-.5.7-1 .8-1.8.8L2.6 0l-.7-.8-.4.8H1v-8.4Zm1.5 3.2c-.6 0-1 .2-1.2.6-.3.3-.4.9-.4 1.6.1.9.1 1.5.4 1.8.2.3.6.5 1.3.5.4 0 .9-.2 1.2-.6.2-.4.4-1 .4-1.7 0-1.4-.6-2.2-1.6-2.2Zm.1 0" id="k"/>
    <path d="M4.7 0H.4v-.6l3.2-4.5h-3V-6h4v.8L1.7-.7h2.9Zm0 0" id="j"/>
    <path d="M.2-5.2c-.1-.6.1-1 .2-1.5l.7-1.2h.7l-.2 1-.2.9-.1.8Zm0 0" id="i"/>
    <path d="M8-4c0 1-.3 1.7-.6 2.3-.2.5-.6.9-1.1 1.3-.5.4-1.3.5-2 .5s-1.5-.1-2-.5c-.6-.3-1-.8-1.3-1.4C.8-2.4.7-3.1.7-4c0-.8.1-1.5.3-2 .3-.8.7-1.2 1.3-1.6.5-.2 1.2-.4 2-.4s1.5.2 2 .5c.5.5 1 .8 1.2 1.5.3.5.4 1.2.4 2.1ZM1.6-4c.1 1 .4 1.9.7 2.5.5.5 1.1.8 2 .8.9-.1 1.5-.3 2-.9.4-.6.5-1.3.5-2.3.1-1.1-.1-1.8-.6-2.4-.4-.5-.9-.7-1.9-.7-.9-.1-1.5.2-2 .7-.3.6-.6 1.4-.6 2.4Zm.1 0" id="h"/>
    <path d="M2-5.9v2.5h3V-6h1.1v6H5v-2.6H2V0H1v-5.9Zm0 0" id="g"/>
    <path d="M5-5H3v5h-.8v-5h-2v-1H5Zm0 0" id="f"/>
    <path d="M3.3.1c-.5 0-1-.1-1.4-.3-.4-.2-.7-.6-.9-1-.2-.4-.3-1-.3-1.7s0-1.3.3-1.8c.2-.3.5-.8 1-1 .4-.2.8-.3 1.4-.3h.8l.8.4-.4.7L4-5h-.7c-1.1-.2-1.7.5-1.7 2 0 .8.1 1.3.4 1.7.3.4.7.6 1.3.6L4-.8c.4 0 .6-.2.8-.3v.9l-.6.2-.9.1Zm0 0" id="e"/>
    <path d="M5 2V0h-.4L1.9-3v3H1v-5.9h1V-3l2.4-3h1L3-3 5-.8h1V2Zm0 0" id="d"/>
    <path d="M2.5-6c.7 0 1.2.1 1.5.4.5.3.7.6.7 1.1 0 .5-.1.7-.3 1l-.8.3.6.4c.2 0 .4.2.5.4l.2.8c0 .5-.2.9-.6 1.2-.4.4-1 .5-2 .5L1.4 0C.8 0 .5-.2.2-.3V-1l1.2.2.9.1c.6 0 1 0 1.3-.2.2-.2.3-.4.3-.8.1-.6-.5-1-1.6-1h-.9v-.8H2c.6 0 1 0 1.3-.2.3-.1.5-.3.5-.7 0-.2-.2-.4-.4-.6l-1-.2h-.8l-.8.5-.4-.9c.6-.3 1.3-.4 2-.4Zm0 0" id="c"/>
    <path d="M3.2-6c.7 0 1.2.2 1.6.5.2.3.5.8.5 1.5v4h-.7l-.2-.8-1 .7-1 .1c-.6.1-1 0-1.4-.3C.7-.6.5-1 .5-1.6c0-.6.2-1 .7-1.4.5-.3 1.2-.5 2.1-.5h1V-4c0-.4 0-.7-.3-1l-.9-.2-.9.1-.7.3-.3-.7c.2-.1.5-.3.8-.3L3-6Zm1.1 3.1h-.8c-.8.1-1.3.3-1.6.5-.3.1-.4.4-.4.8 0 .3.1.5.3.6.2.3.5.3.8.3.4 0 .9-.1 1.2-.3.4-.4.5-.8.5-1.4Zm0 0" id="b"/>
    <path d="M6.6-7.9 3.2-4 6-1h1.2v3.1h-1V0h-.5L2.1-4v4H1v-7.9h1V-4l3.5-4Zm0 0" id="a"/>
    <path d="M1 0v-7.9h4.6V0Zm.6-.6H5v-6.7H1.6Zm0 0"/>
  </defs>
  <image xlink:href="svg//5//1_0.jpg" height="279" width="497"/>
  <path d="m74.2 108.7-3.4 3.9 2.8 3.1h1.2v3h-1v-2.1h-.6l-3.6-4v4h-1v-7.9h1v3.8l3.5-3.8zm0 0" style="fill:none;stroke:#fff;stroke-width:3;stroke-linecap:butt;stroke-linejoin:round;stroke-miterlimit:10;stroke-opacity:.6" transform="rotate(000 97.4 113.6)"/>
  <path d="M78.6 110.6c.7 0 1.4.2 1.6.4.3.4.5.9.5 1.6v4H80l-.2-.8-.8.7-1.2.2c-.5 0-1-.1-1.3-.4-.5-.3-.6-.7-.6-1.3.1-.6.3-1 .7-1.4.5-.3 1.2-.5 2.2-.5h1v-.5c0-.4-.1-.7-.4-.9-.2-.2-.4-.3-.9-.3l-.8.1-.8.3-.3-.7.9-.3c.3-.2.7-.2 1.1-.2zm1.2 3.1h-1c-.5 0-1.1.3-1.3.4-.5.2-.6.5-.6.9.1.3.1.5.3.7l.8.2c.5.1 1-.1 1.3-.4.3-.3.5-.7.5-1.3zm0 0" style="fill:none;stroke:#fff;stroke-width:3;stroke-linecap:butt;stroke-linejoin:round;stroke-miterlimit:10;stroke-opacity:.6" transform="rotate(000 97.4 113.6)"/>
  <path d="M84.6 110.6c.7 0 1.2.1 1.6.4.4.3.6.6.6 1.1 0 .4 0 .7-.3.9l-.8.5.6.3c.2 0 .4.2.5.4l.2.8c0 .5-.2.9-.6 1.2-.4.3-1 .5-2 .5l-.9-.1c-.5 0-.9-.2-1.2-.3v-.8l1.2.3.9.1c.6.1 1 .1 1.3-.2.2-.2.3-.4.3-.8 0-.7-.5-.9-1.6-.9h-.8v-.9h.6l1.2-.1c.3-.2.6-.4.6-.8-.1-.2-.2-.5-.5-.6l-1-.2h-.8l-.8.5-.4-.9c.7-.3 1.3-.4 2-.4zm0 0" style="fill:none;stroke:#fff;stroke-width:3;stroke-linecap:butt;stroke-linejoin:round;stroke-miterlimit:10;stroke-opacity:.6" transform="rotate(000 97.4 113.6)"/>
  <path d="M91.2 110.6c.7 0 1.2.2 1.6.4.2.4.5.9.5 1.6v4h-.7l-.2-.8-1 .7-1 .2c-.6 0-1-.1-1.4-.4-.3-.3-.5-.7-.5-1.3 0-.6.2-1 .7-1.4.5-.3 1.2-.5 2.1-.5h1v-.5c0-.4 0-.7-.3-.9-.2-.2-.5-.3-.9-.3l-.9.1-.8.3-.2-.7c.2-.1.5-.3.8-.3.4-.3.8-.3 1-.3zm1.1 3.1h-.9c-.7 0-1.2.3-1.4.4-.4.2-.5.5-.5.9 0 .3 0 .5.3.7l.8.2c.4.1.9-.1 1.2-.4.4-.3.5-.7.5-1.3zm0 0" style="fill:none;stroke:#fff;stroke-width:3;stroke-linecap:butt;stroke-linejoin:round;stroke-miterlimit:10;stroke-opacity:.6" transform="rotate(000 97.4 113.6)"/>
  <path d="M99.7 118.6v-2h-.5l-2.6-3v3h-1v-5.9h1v2.9l2.4-2.9h1l-2.4 2.8 2 2.3h1v2.8zm0 0" style="fill:none;stroke:#fff;stroke-width:3;stroke-linecap:butt;stroke-linejoin:round;stroke-miterlimit:10;stroke-opacity:.6" transform="rotate(000 97.4 113.6)"/>
  <path d="m104.5 116.7-1.5-.3-1-1-.2-1.7c0-.7.1-1.3.4-1.8.2-.5.5-.8 1-.9.3-.3.8-.4 1.2-.4h1.1l.5.4-.2.7-.6-.2h-.7c-1.1-.1-1.7.6-1.7 2.1 0 .8.1 1.3.4 1.7.3.4.8.7 1.3.7l.8-.2c.3 0 .5-.2.7-.3v.9l-.7.2-.8.1zm0 0" style="fill:none;stroke:#fff;stroke-width:3;stroke-linecap:butt;stroke-linejoin:round;stroke-miterlimit:10;stroke-opacity:.6" transform="rotate(000 97.4 113.6)"/>
  <path d="M112 111.5h-2v5h-1v-4.9h-1.7v-.9h4.7zm0 0" style="fill:none;stroke:#fff;stroke-width:3;stroke-linecap:butt;stroke-linejoin:round;stroke-miterlimit:10;stroke-opacity:.6" transform="rotate(000 97.4 113.6)"/>
  <path d="M115.9 110.6c.7 0 1.1.2 1.6.4.3.4.5.9.5 1.6v4h-.7l-.3-.8-.9.7-1 .2c-.6 0-1.1-.1-1.4-.4-.3-.3-.5-.7-.5-1.3 0-.6.2-1 .7-1.4.5-.3 1.1-.5 2.1-.5h1v-.5c0-.4 0-.7-.3-.9-.2-.2-.5-.3-.9-.3l-.8.1-.8.3-.3-.7c.1-.1.5-.3.9-.3.2-.2.7-.2 1-.2zm1.1 3.1h-.8c-.8 0-1.3.3-1.6.4-.3.2-.4.5-.4.9 0 .3.1.5.3.7l.8.2c.5.1.9-.1 1.2-.4.5-.3.5-.7.5-1.3zm0 0" style="fill:none;stroke:#fff;stroke-width:3;stroke-linecap:butt;stroke-linejoin:round;stroke-miterlimit:10;stroke-opacity:.6" transform="rotate(000 97.4 113.6)"/>
  <path d="M121.3 110.7v2.5h3.2v-2.5h1v5.9h-1.1V114h-3.1v2.6h-1v-5.9zm0 0" style="fill:none;stroke:#fff;stroke-width:3;stroke-linecap:butt;stroke-linejoin:round;stroke-miterlimit:10;stroke-opacity:.6" transform="rotate(000 97.4 113.6)"/>
  <g style="fill:#633d63;fill-opacity:1" transform="rotate(000 97.4 113.6)">
    <use xlink:href="#a" y="116.6" x="67.6"/>
    <use xlink:href="#b" y="116.6" x="75.4"/>
    <use xlink:href="#c" y="116.6" x="82.1"/>
    <use xlink:href="#b" y="116.6" x="88"/>
    <use xlink:href="#d" y="116.6" x="94.7"/>
    <use xlink:href="#e" y="116.6" x="101.2"/>
    <use xlink:href="#f" y="116.6" x="107"/>
    <use xlink:href="#b" y="116.6" x="112.7"/>
    <use xlink:href="#g" y="116.6" x="119.4"/>
  </g>
  <path d="M32.4 235.4c0 .9-.2 1.6-.5 2.2-.2.6-.6 1-1.2 1.4-.5.3-1.2.5-2 .5s-1.4-.2-2-.5c-.5-.3-1-.8-1.2-1.4-.3-.6-.4-1.4-.4-2.2 0-.8.1-1.4.4-2 .3-.8.7-1.2 1.2-1.6.6-.2 1.3-.4 2-.4s1.6.2 2.1.6c.5.3.9.7 1.2 1.3.2.7.4 1.3.4 2.1zm-6.2 0c0 1 .2 1.8.6 2.4.4.6 1 .8 2 .8.7 0 1.4-.2 1.8-.8.5-.6.7-1.4.7-2.4s-.2-1.7-.6-2.3c-.4-.5-1-.8-2-.8-.7 0-1.4.3-1.9.7-.3.7-.5 1.5-.5 2.4zm0 0" style="fill:none;stroke:#fff;stroke-width:3;stroke-linecap:butt;stroke-linejoin:round;stroke-miterlimit:10;stroke-opacity:.6" transform="rotate(000 58.1 236.4)"/>
  <path d="M33.7 234.2c0-.6.2-1.1.3-1.5l.6-1.2h.7l-.2 1-.1.8-.2.9zm0 0" style="fill:none;stroke:#fff;stroke-width:3;stroke-linecap:butt;stroke-linejoin:round;stroke-miterlimit:10;stroke-opacity:.6" transform="rotate(000 58.1 236.4)"/>
  <path d="M40.7 239.4h-4.3v-.7l3.2-4.5h-3v-.7h4v.7l-3 4.4h3zm0 0" style="fill:none;stroke:#fff;stroke-width:3;stroke-linecap:butt;stroke-linejoin:round;stroke-miterlimit:10;stroke-opacity:.6" transform="rotate(000 58.1 236.4)"/>
  <path d="M43.5 231v3.3l.7-.6c.3-.2.8-.3 1.2-.3.6 0 1.3.2 1.6.8.6.5.8 1.2.8 2.2 0 1-.2 1.8-.8 2.3-.3.5-.9.8-1.6.8-.5 0-.9 0-1.2-.3-.2-.1-.5-.2-.7-.6l-.2.8h-.7V231zm1.7 3.2c-.6 0-1 .2-1.3.5-.2.4-.4 1-.4 1.7 0 .8.2 1.3.5 1.7.1.4.6.6 1.2.6.5 0 1-.2 1.2-.6.3-.4.4-1 .4-1.7 0-1.4-.5-2.2-1.6-2.2zm0 0" style="fill:none;stroke:#fff;stroke-width:3;stroke-linecap:butt;stroke-linejoin:round;stroke-miterlimit:10;stroke-opacity:.6" transform="rotate(000 58.1 236.4)"/>
  <path d="M52.1 233.4c.5 0 1 .1 1.3.3.4.3.7.5.8 1 .2.3.3.8.3 1.3v.6h-4c0 .7.2 1.2.5 1.6.3.3.8.5 1.4.5l1-.1.9-.3v.7l-1 .4-.9.1c-.6 0-1.1-.1-1.4-.3-.6-.3-1-.6-1.1-1-.3-.6-.4-1.1-.4-1.8s.1-1.1.3-1.6c.2-.4.5-.8 1-1 .2-.3.7-.4 1.2-.4zm0 .8c-.5 0-.8.1-1 .4-.5.4-.6.7-.7 1.4h3.1c0-.6 0-1.1-.3-1.4-.2-.3-.6-.4-1-.4zm0 0" style="fill:none;stroke:#fff;stroke-width:3;stroke-linecap:butt;stroke-linejoin:round;stroke-miterlimit:10;stroke-opacity:.6" transform="rotate(000 58.1 236.4)"/>
  <path d="M57.5 231v5.4l.2-.4.3-.2c0-.2 0-.2.2-.3l1.9-2h1.1l-2.4 2.5 2.6 3.4h-1.2l-2-2.8-.7.6v2.2h-1V231zm0 0" style="fill:none;stroke:#fff;stroke-width:3;stroke-linecap:butt;stroke-linejoin:round;stroke-miterlimit:10;stroke-opacity:.6" transform="rotate(000 58.1 236.4)"/>
  <path d="m63.4 231.3.4.1.2.6c0 .1 0 .3-.2.4l-.4.1-.4-.1-.2-.5c0-.2 0-.4.2-.5l.4-.1zm.6 2.2v5.9h-1.1v-5.9zm-.1 0" style="fill:none;stroke:#fff;stroke-width:3;stroke-linecap:butt;stroke-linejoin:round;stroke-miterlimit:10;stroke-opacity:.6" transform="rotate(000 58.1 236.4)"/>
  <path d="M70.1 237.8c0 .5-.2 1-.6 1.2-.5.4-1 .5-1.8.5l-1-.1c-.3 0-.7-.2-.8-.4v-.8l.8.4 1 .1c.6 0 1 0 1.2-.2l.3-.7-.2-.4-.4-.3-.9-.4-1-.4-.6-.6c-.2-.2-.2-.4-.2-.7 0-.6.1-.9.6-1.2.4-.3 1-.4 1.5-.4l1 .1 1 .3-.4.7-.6-.2-1-.1c-.4 0-.7 0-.9.2-.1.1-.3.3-.3.5l.1.4.5.3 1 .4.8.4.7.6.1.8zm0 0" style="fill:none;stroke:#fff;stroke-width:3;stroke-linecap:butt;stroke-linejoin:round;stroke-miterlimit:10;stroke-opacity:.6" transform="rotate(000 58.1 236.4)"/>
  <path d="M74 238.7h.4l.4-.1v.7l-.4.1-.6.1c-.3 0-.6 0-.8-.2-.3 0-.5-.2-.7-.5l-.2-1.1v-3.5h-.8v-.4l.7-.4.5-1.4h.5v1.5h1.8v.7H73v3.5c0 .3 0 .6.3.7.2.2.4.3.7.3zm0 0" style="fill:none;stroke:#fff;stroke-width:3;stroke-linecap:butt;stroke-linejoin:round;stroke-miterlimit:10;stroke-opacity:.6" transform="rotate(000 58.1 236.4)"/>
  <path d="M81.6 236.4c0 1-.2 1.8-.6 2.3-.6.5-1.3.8-2.1.8-.6 0-1-.1-1.4-.4-.5-.1-.8-.5-1-1-.2-.5-.3-1.1-.3-1.7 0-1 .2-1.7.7-2.2.5-.5 1.2-.8 2-.8.5 0 1 .1 1.4.3l1 1c.2.6.3 1.1.3 1.8zm-4.4 0c0 .7.1 1.3.4 1.7.3.4.7.6 1.3.6.6 0 1-.2 1.3-.6.3-.4.4-1.1.4-1.7s-.1-1.2-.4-1.6c-.3-.4-.7-.6-1.3-.6-.6 0-1 .2-1.3.6-.3.4-.4 1-.4 1.6zm0 0" style="fill:none;stroke:#fff;stroke-width:3;stroke-linecap:butt;stroke-linejoin:round;stroke-miterlimit:10;stroke-opacity:.6" transform="rotate(000 58.1 236.4)"/>
  <path d="M86.5 233.4c.7 0 1.2.2 1.5.5.4.3.6.9.6 1.6v3.9h-1v-3.8c.1-1-.3-1.4-1.2-1.4-.7 0-1.1.2-1.4.5-.3.4-.4 1-.4 1.6v3h-1v-5.7h.8l.2.7.8-.7 1-.2zm0 0" style="fill:none;stroke:#fff;stroke-width:3;stroke-linecap:butt;stroke-linejoin:round;stroke-miterlimit:10;stroke-opacity:.6" transform="rotate(000 58.1 236.4)"/>
  <g style="fill:#633d63;fill-opacity:1" transform="rotate(000 58.1 236.4)">
    <use xlink:href="#h" y="239.4" x="24.5"/>
    <use xlink:href="#i" y="239.4" x="33.5"/>
    <use xlink:href="#j" y="239.4" x="36"/>
    <use xlink:href="#k" y="239.4" x="41.6"/>
    <use xlink:href="#l" y="239.4" x="48.9"/>
    <use xlink:href="#m" y="239.4" x="55.6"/>
    <use xlink:href="#n" y="239.4" x="62"/>
    <use xlink:href="#o" y="239.4" x="65.3"/>
    <use xlink:href="#p" y="239.4" x="71.1"/>
    <use xlink:href="#q" y="239.4" x="75.6"/>
    <use xlink:href="#r" y="239.4" x="82.7"/>
  </g>
  <path d="M173.8 243.9h-1.2l-3.5-4v4H168V236h1v3.8l3.5-3.8h1.2l-3.4 3.8zm0 0" style="fill:none;stroke:#fff;stroke-width:3;stroke-linecap:butt;stroke-linejoin:round;stroke-miterlimit:10;stroke-opacity:.6" transform="rotate(000 210.5 224.1)"/>
  <path d="M175.3 243.9v-6h1v2.6h1.4c.8-.1 1.3 0 1.7.3.4.3.6.7.6 1.3 0 .5-.2.9-.6 1.3-.3.3-.9.5-1.7.5zm5.7 0v-6h1v6.1zm-4.8-.9h1.4l1-.1c.4-.2.4-.4.4-.9 0-.2 0-.5-.3-.6l-1-.2h-1.6zm0 0" style="fill:none;stroke:#fff;stroke-width:3;stroke-linecap:butt;stroke-linejoin:round;stroke-miterlimit:10;stroke-opacity:.6" transform="rotate(000 210.5 224.1)"/>
  <path d="M187.1 237.9c.7 0 1.3.1 1.9.7.3.5.5 1.4.5 2.4s-.2 1.7-.5 2.2c-.6.5-1.1.8-2 .8-.3 0-.7-.1-1-.3l-.7-.6v3.4h-1V238h.8l.1.8.8-.8h1zm-.1.8c-.7 0-1 .1-1.3.5-.3.3-.4.8-.4 1.5v.3c0 .6.1 1.2.3 1.6.4.4.7.6 1.4.6l.9-.3.5-.9.1-1.1c0-.7 0-1.2-.4-1.6-.1-.4-.6-.6-1.1-.6zm0 0" style="fill:none;stroke:#fff;stroke-width:3;stroke-linecap:butt;stroke-linejoin:round;stroke-miterlimit:10;stroke-opacity:.6" transform="rotate(000 210.5 224.1)"/>
  <path d="M195.2 238v.8h-2.6v5h-1V238zm0 0" style="fill:none;stroke:#fff;stroke-width:3;stroke-linecap:butt;stroke-linejoin:round;stroke-miterlimit:10;stroke-opacity:.6" transform="rotate(000 210.5 224.1)"/>
  <path d="M196.8 243.9v-6h1v2.6h1.5c.8-.1 1.4 0 1.7.3.4.3.6.7.6 1.3 0 .5-.2.9-.6 1.3-.3.3-.9.5-1.7.5zm5.8 0v-6h1v6.1zm-4.8-.9h1.4l1-.1c.3-.2.4-.4.4-.9 0-.2 0-.5-.3-.6l-1-.2h-1.6zm0 0" style="fill:none;stroke:#fff;stroke-width:3;stroke-linecap:butt;stroke-linejoin:round;stroke-miterlimit:10;stroke-opacity:.6" transform="rotate(000 210.5 224.1)"/>
  <path d="M207.5 237.9c.5 0 1.2.1 1.5.4.5.2.7.6.7 1.1 0 .4-.1.6-.3.9l-.8.4.6.3.5.5.2.7c0 .5-.2 1-.6 1.3-.5.3-1 .5-2 .5l-1.1-.1-.9-.3v-.9l1 .3.9.2 1.3-.2c.3-.2.4-.5.4-.8.1-.7-.6-1-1.7-1h-.8v-.8h.7c.5 0 .9 0 1.2-.2.3-.2.4-.4.4-.7 0-.3 0-.5-.3-.6-.2-.2-.6-.2-1-.2h-.9l-.8.3-.3-.7c.6-.3 1.3-.4 2-.4zm0 0" style="fill:none;stroke:#fff;stroke-width:3;stroke-linecap:butt;stroke-linejoin:round;stroke-miterlimit:10;stroke-opacity:.6" transform="rotate(000 210.5 224.1)"/>
  <path d="M214.2 244c-.6 0-1-.1-1.4-.3l-1-1c-.2-.5-.3-1-.3-1.8 0-.7 0-1.3.3-1.7.3-.5.6-.8 1-1 .4-.2.9-.3 1.4-.3h.9l.7.4-.3.7-.6-.2-.7-.1c-1.2 0-1.7.7-1.7 2.2 0 .7.1 1.3.4 1.7.3.4.7.4 1.1.4h1l.7-.3v1l-.7.2h-.8zm0 0" style="fill:none;stroke:#fff;stroke-width:3;stroke-linecap:butt;stroke-linejoin:round;stroke-miterlimit:10;stroke-opacity:.6" transform="rotate(000 210.5 224.1)"/>
  <path d="M221.6 238.8h-1.9v5h-1v-4.9H217v-.9h4.6zm0 0" style="fill:none;stroke:#fff;stroke-width:3;stroke-linecap:butt;stroke-linejoin:round;stroke-miterlimit:10;stroke-opacity:.6" transform="rotate(000 210.5 224.1)"/>
  <path d="M225.5 237.9c.8 0 1.3.1 1.6.4.4.4.6.9.6 1.5v4h-.7l-.2-.8-1 .7c-.2.3-.6.3-1.1.3s-1-.2-1.3-.5c-.3-.2-.4-.7-.4-1.3-.1-.6 0-1 .6-1.2.4-.4 1.1-.6 2.1-.7h1v-.3c0-.5-.1-1-.3-1-.2-.4-.5-.5-1-.5l-.7.3-.9.2-.3-.6 1-.4h.9zm1.2 3-.9.1c-.7 0-1.2.2-1.5.4-.3.2-.4.5-.4.8 0 .4 0 .6.3.8l.8.2c.5 0 .9-.2 1.2-.4.3-.3.5-.8.5-1.3zm0 .1" style="fill:none;stroke:#fff;stroke-width:3;stroke-linecap:butt;stroke-linejoin:round;stroke-miterlimit:10;stroke-opacity:.6" transform="rotate(000 210.5 224.1)"/>
  <path d="M231 238v2.4h3.2V238h1v5.9h-1.1v-2.7H231v2.8h-1v-6.1zm0 0" style="fill:none;stroke:#fff;stroke-width:3;stroke-linecap:butt;stroke-linejoin:round;stroke-miterlimit:10;stroke-opacity:.6" transform="rotate(000 210.5 224.1)"/>
  <g style="fill:#633d63;fill-opacity:1" transform="rotate(000 210.5 224.1)">
    <use xlink:href="#s" y="227.1" x="175.8"/>
    <use xlink:href="#t" y="227.1" x="183.1"/>
    <use xlink:href="#u" y="227.1" x="192.2"/>
    <use xlink:href="#v" y="227.1" x="199.4"/>
    <use xlink:href="#t" y="227.1" x="204.7"/>
    <use xlink:href="#c" y="227.1" x="213.7"/>
    <use xlink:href="#e" y="227.1" x="219.6"/>
    <use xlink:href="#f" y="227.1" x="225.4"/>
    <use xlink:href="#b" y="227.1" x="231.2"/>
    <use xlink:href="#g" y="227.1" x="237.8"/>
  </g>
  <path d="M5.5 3c0 1.4-1.1 2.5-2.5 2.5S.5 4.4.5 3 1.6.5 3 .5 5.5 1.6 5.5 3zm0 0" style="fill:#fdfdfa;fill-opacity:1;fill-rule:nonzero;stroke:#575747;stroke-width:1;stroke-linecap:butt;stroke-linejoin:miter;stroke-miterlimit:4;stroke-opacity:1" transform="translate(127.5 235.6)"/>
  <path d="M131.5 238.6c0 .6-.5 1-1 1-.6 0-1-.4-1-1 0-.5.4-1 1-1 .5 0 1 .5 1 1zm0 0" style="fill:#575747;fill-opacity:1;fill-rule:nonzero;stroke:none"/>
  <path d="M110.6 232.6h-1v-7h-2.5v-.7h6v.8h-2.6zm0 0" style="fill:none;stroke:#fff;stroke-width:3;stroke-linecap:butt;stroke-linejoin:round;stroke-miterlimit:10;stroke-opacity:.6" transform="rotate(000 133 238.6)"/>
  <path d="M118.4 229.7c0 1-.2 1.7-.7 2.3-.5.5-1.2.8-2 .8-.5 0-1-.2-1.4-.4-.4-.2-.7-.6-1-1-.2-.6-.3-1.1-.3-1.8 0-.9.2-1.6.7-2.2.5-.4 1.3-.8 2-.8.6 0 1 .2 1.4.4.4.2.9.6 1 1 .2.5.3 1 .3 1.7zm-4.4 0c0 .7 0 1.2.4 1.6.3.5.7.7 1.3.7.6 0 1-.2 1.3-.7.3-.3.4-1 .4-1.6 0-.7-.1-1.3-.4-1.7-.3-.3-.7-.5-1.3-.5-.6 0-1 .2-1.3.5-.3.4-.4 1-.4 1.7zm0 0" style="fill:none;stroke:#fff;stroke-width:3;stroke-linecap:butt;stroke-linejoin:round;stroke-miterlimit:10;stroke-opacity:.6" transform="rotate(000 133 238.6)"/>
  <path d="M123.8 231c0 .6-.2 1-.6 1.3-.5.3-1 .5-1.7.5-.5 0-.8 0-1.1-.2l-.8-.2v-.9l.9.3 1 .2c.5 0 .8-.1 1-.3.3-.1.5-.3.5-.6l-.2-.4-.5-.3c-.2-.2-.5-.4-.9-.4l-1-.5-.6-.5-.2-.8c0-.5.2-.9.6-1.1.4-.3 1-.5 1.6-.5.4 0 .7 0 1 .2l.9.2-.3.8-.8-.3h-1.8l-.3.6c0 .1 0 .4.2.5l.3.3 1.1.4.9.4c.3.1.5.3.6.5l.2.8zm0 0" style="fill:none;stroke:#fff;stroke-width:3;stroke-linecap:butt;stroke-linejoin:round;stroke-miterlimit:10;stroke-opacity:.6" transform="rotate(000 133 238.6)"/>
  <path d="M126.2 224.3v3.3c.2-.3.5-.6.8-.7.3-.2.7-.3 1-.3.9 0 1.4.2 1.8.6.2.3.4.8.4 1.6v3.8h-1V229c.1-1.1-.3-1.5-1.2-1.5-.7 0-1 .1-1.4.5-.3.4-.4 1-.4 1.6v3h-1v-8.3zm0 0" style="fill:none;stroke:#fff;stroke-width:3;stroke-linecap:butt;stroke-linejoin:round;stroke-miterlimit:10;stroke-opacity:.6" transform="rotate(000 133 238.6)"/>
  <path d="M133 224.3v5.3l.2-.2c0-.2.2-.4.3-.4l.2-.3 1.9-2h1.1l-2.4 2.7 2.7 3.2h-1.3l-2-2.6-.7.5v2.1h-1v-8.3zm0 0" style="fill:none;stroke:#fff;stroke-width:3;stroke-linecap:butt;stroke-linejoin:round;stroke-miterlimit:10;stroke-opacity:.6" transform="rotate(000 133 238.6)"/>
  <path d="M140.2 226.6c.5 0 1 .2 1.3.4.4.2.5.5.8 1 .2.2.3.7.3 1.2v.7h-4c0 .6.2 1.1.4 1.5.4.4.9.6 1.5.6h1l.9-.6v1l-1 .3h-.9c-.5.1-1.1.1-1.5-.2-.5-.3-.8-.7-1-1.1-.3-.5-.4-1-.4-1.7 0-.6 0-1.2.3-1.6.2-.5.5-.8 1-1.1.2-.3.7-.5 1.2-.5zm0 .8c-.5 0-.8.2-1.2.6-.2.2-.3.6-.4 1h3c0-.4-.1-.8-.3-1-.3-.4-.6-.6-1.1-.6zm0 0" style="fill:none;stroke:#fff;stroke-width:3;stroke-linecap:butt;stroke-linejoin:round;stroke-miterlimit:10;stroke-opacity:.6" transform="rotate(000 133 238.6)"/>
  <path d="M147 226.6c.6 0 1.1.2 1.4.6.6.3.7.8.7 1.6v3.8H148V229c.1-1.1-.3-1.5-1.2-1.5-.6 0-1 .1-1.3.5-.3.4-.5.9-.5 1.6v3h-1v-5.8h1v.8c.4-.4.6-.6 1-.7.2-.2.6-.3.9-.3zm0 0" style="fill:none;stroke:#fff;stroke-width:3;stroke-linecap:butt;stroke-linejoin:round;stroke-miterlimit:10;stroke-opacity:.6" transform="rotate(000 133 238.6)"/>
  <path d="M152.9 232h.4l.4-.3v.9l-.4.1H152l-.8-.6-.2-1.2v-3.4h-.8v-.5l.8-.4.4-1.2h.6v1.4h1.7v.7H152v3.4c0 .4 0 .6.2.8.2.3.4.3.8.3zm0 0" style="fill:none;stroke:#fff;stroke-width:3;stroke-linecap:butt;stroke-linejoin:round;stroke-miterlimit:10;stroke-opacity:.6" transform="rotate(000 133 238.6)"/>
  <g style="fill:#212121;fill-opacity:1" transform="rotate(000 133 238.6)">
    <use xlink:href="#w" y="232.6" x="107"/>
    <use xlink:href="#q" y="232.6" x="112.4"/>
    <use xlink:href="#o" y="232.6" x="119"/>
    <use xlink:href="#x" y="232.6" x="124.3"/>
    <use xlink:href="#m" y="232.6" x="131.1"/>
    <use xlink:href="#l" y="232.6" x="137"/>
    <use xlink:href="#r" y="232.6" x="143.2"/>
    <use xlink:href="#p" y="232.6" x="150"/>
  </g>
  <path d="M5.5 3c0 1.4-1.1 2.5-2.5 2.5S.5 4.4.5 3 1.6.5 3 .5 5.5 1.6 5.5 3zm0 0" style="fill:#fdfdfa;fill-opacity:1;fill-rule:nonzero;stroke:#575747;stroke-width:1;stroke-linecap:butt;stroke-linejoin:miter;stroke-miterlimit:4;stroke-opacity:1" transform="translate(154.2 59)"/>
  <path d="M158.2 62c0 .6-.5 1-1 1-.6 0-1-.4-1-1 0-.5.4-1 1-1 .5 0 1 .5 1 1zm0 0" style="fill:#575747;fill-opacity:1;fill-rule:nonzero;stroke:none"/>
  <path d="M133.6 56h-1v-3.6h-4V56h-1v-7.8h1v3.3h4v-3.3h1zm0 0" style="fill:none;stroke:#fff;stroke-width:3;stroke-linecap:butt;stroke-linejoin:round;stroke-miterlimit:10;stroke-opacity:.6" transform="rotate(000 159.7 62)"/>
  <path d="M140.3 50.2 138 56h1.5v.8H138v1.9h-1v-2h-1.5V56h1.5l-2.3-5.8h1l1.3 3.2.3.9.1.8.4-.8.2-1 1.3-3.1zm0 0" style="fill:none;stroke:#fff;stroke-width:3;stroke-linecap:butt;stroke-linejoin:round;stroke-miterlimit:10;stroke-opacity:.6" transform="rotate(000 159.7 62)"/>
  <path d="M144 50c.7 0 1.3.3 1.8.8.4.5.6 1.3.6 2.3 0 .9-.2 1.8-.6 2.3-.5.5-1 .8-1.8.8-.4 0-.8-.2-1-.3l-.8-.6v3.4h-1v-8.5h.8l.1.8h.1l.7-.7c.3-.2.7-.3 1.1-.3zm0 1c-.8-.1-1.1 0-1.4.4-.3.3-.4.8-.4 1.5v.2c0 .7.1 1.3.4 1.7.2.4.6.6 1.3.6l.9-.4c.2-.1.4-.4.5-.8l.1-1.1c0-.7 0-1.2-.3-1.6-.3-.5-.7-.6-1.2-.6zm-.1-.1" style="fill:none;stroke:#fff;stroke-width:3;stroke-linecap:butt;stroke-linejoin:round;stroke-miterlimit:10;stroke-opacity:.6" transform="rotate(000 159.7 62)"/>
  <path d="M147.5 53.5v-.8h2.7v.8zm0 0" style="fill:none;stroke:#fff;stroke-width:3;stroke-linecap:butt;stroke-linejoin:round;stroke-miterlimit:10;stroke-opacity:.6" transform="rotate(000 159.7 62)"/>
  <path d="M155 49c-.8 0-1.5.2-2 .8-.4.6-.7 1.3-.7 2.3 0 1 .2 1.9.7 2.3.4.6 1 .9 2 .9l1-.1.9-.2v.8l-1 .3h-.9c-1 .1-1.6-.1-2.1-.3-.6-.5-1-.9-1.2-1.5-.3-.6-.4-1.4-.4-2.3 0-.7.1-1.4.4-1.9.3-.8.7-1.3 1.3-1.6.6-.3 1.2-.5 2-.5 1 0 1.6.2 2.2.5l-.4.9-.8-.4h-1Zm0 0" style="fill:none;stroke:#fff;stroke-width:3;stroke-linecap:butt;stroke-linejoin:round;stroke-miterlimit:10;stroke-opacity:.6" transform="rotate(000 159.7 62)"/>
  <path d="m163.1 50.2-2.3 5.8h1.5v.8h-1.5v1.9h-1v-2h-1.4V56h1.4l-2.2-5.8h1l1.2 3.2.2.9.3.8.4-.8.3-1 1-3.1zm0 0" style="fill:none;stroke:#fff;stroke-width:3;stroke-linecap:butt;stroke-linejoin:round;stroke-miterlimit:10;stroke-opacity:.6" transform="rotate(000 159.7 62)"/>
  <path d="M168.4 56h-1v-5h-1.6l-.5 3c-.1.7-.3 1.3-.6 1.6-.3.4-.7.5-1 .5h-.7v-.9h.4c.4.2.7-.2 1-1 .2-1 .4-2.3.5-4.2h3.5zm0 0" style="fill:none;stroke:#fff;stroke-width:3;stroke-linecap:butt;stroke-linejoin:round;stroke-miterlimit:10;stroke-opacity:.6" transform="rotate(000 159.7 62)"/>
  <path d="M174.4 51h-2v5h-.8v-5h-2v-.8h4.8zm0 0" style="fill:none;stroke:#fff;stroke-width:3;stroke-linecap:butt;stroke-linejoin:round;stroke-miterlimit:10;stroke-opacity:.6" transform="rotate(000 159.7 62)"/>
  <path d="M177.8 50c.7 0 1.2.2 1.6.5.3.3.5.8.5 1.5v4h-.7l-.2-.8-.8.7c-.3.2-.7.3-1.2.3-.6 0-1-.2-1.3-.5-.4-.2-.7-.7-.7-1.3.1-.6.3-1 .8-1.3.5-.4 1.2-.5 2.2-.6h1v-.4c0-.4 0-.8-.4-1-.2-.1-.5-.3-.9-.3-.3 0-.6 0-.7.2-.4 0-.7.2-1 .3l-.2-.7c.2-.2.5-.3.9-.4l1-.2zm1.1 3.2h-.8c-.8 0-1.3.1-1.6.3-.2.3-.4.5-.4 1 0 .1.1.5.3.5.2.3.6.4.8.4.5 0 1-.2 1.2-.4.4-.3.6-.7.6-1.3zm.1 0" style="fill:none;stroke:#fff;stroke-width:3;stroke-linecap:butt;stroke-linejoin:round;stroke-miterlimit:10;stroke-opacity:.6" transform="rotate(000 159.7 62)"/>
  <path d="M182.7 50.2v2.4h3.2v-2.4h1V56h-1v-2.6h-3.2V56h-1v-5.8Zm0 0" style="fill:none;stroke:#fff;stroke-width:3;stroke-linecap:butt;stroke-linejoin:round;stroke-miterlimit:10;stroke-opacity:.6" transform="rotate(000 159.7 62)"/>
  <g style="fill:#212121;fill-opacity:1" transform="rotate(000 159.7 62)">
    <use xlink:href="#y" y="56" x="126.6"/>
    <use xlink:href="#z" y="56" x="134.7"/>
    <use xlink:href="#u" y="56" x="140.3"/>
    <use xlink:href="#A" y="56" x="147.1"/>
    <use xlink:href="#B" y="56" x="150.6"/>
    <use xlink:href="#z" y="56" x="157.5"/>
    <use xlink:href="#C" y="56" x="163"/>
    <use xlink:href="#f" y="56" x="169.4"/>
    <use xlink:href="#b" y="56" x="174.6"/>
    <use xlink:href="#g" y="56" x="180.8"/>
  </g>
  <path d="M3.8 2C3.8 3 3 3.8 2 3.8S.3 3 .3 2 1 .3 2 .3 3.8 1 3.8 2zm0 0" style="fill:#fdfdfa;fill-opacity:1;fill-rule:nonzero;stroke:#575747;stroke-width:.5;stroke-linecap:butt;stroke-linejoin:miter;stroke-miterlimit:4;stroke-opacity:1" transform="translate(355.8 194.3)"/>
  <path d="M349.6 175.6H342v.8h7.6zm1.8-2h-7.1v-3h5.2l-.3 1.4h-1.7l.2.8h1.3c.4 0 .6 0 .8-.2.3-.3.4-1 .6-2.6v-.3h-4l.6-1-1-.2-.4 1.2h-2.1v4.7h7.1c-.1 2.2-.2 3-.5 3.3l-.4.1H348l.3.8h1.7c.3 0 .6-.1.8-.4.2-.4.5-1.4.6-4.2zm0 .1" style="fill:none;stroke:#fff;stroke-width:3;stroke-linecap:butt;stroke-linejoin:round;stroke-miterlimit:10;stroke-opacity:.6" transform="rotate(000 359.6 196.3)"/>
  <path d="m358.6 169.9-.6.6h-3l.8-.6zm2 1.8h-2.3v-.7h2.4zm.1 1.1h-2.4v-.6h2.4zm-5.7-.6h2.4v.6H355zm0-1.1h2.4v.6H355zm-.8 2.3h7.3v-2.9H359l.7-1-.7-.1h-2.8l.5-.7-.8-.1c-.6.8-1.7 1.9-3.1 2.6l.5.6 1-.6zm6.1 2.1v.8h-5v-.8zm-5 2.2v-.9h5v.9zm-.8 1h.8v-.4h5v.3h.8V175h-6.6zm-1.3-4.8v.5h9.3v-.4zm0 0" style="fill:none;stroke:#fff;stroke-width:3;stroke-linecap:butt;stroke-linejoin:round;stroke-miterlimit:10;stroke-opacity:.6" transform="rotate(000 359.6 196.3)"/>
  <path d="M373.6 172.1v-.8h-4.3v-2.7h-.9v2.7h-4.3v.8h4c-1.1 1.9-2.8 3.8-4.5 4.7l.7.7c1.6-1 3-2.7 4.1-4.5v5.6h.9V173c1 1.8 2.5 3.5 4 4.4l.7-.7c-1.7-.9-3.4-2.7-4.4-4.6zm0 0" style="fill:none;stroke:#fff;stroke-width:3;stroke-linecap:butt;stroke-linejoin:round;stroke-miterlimit:10;stroke-opacity:.6" transform="rotate(000 359.6 196.3)"/>
  <path d="M349.7 189.7c0 1-.2 2.1-1.9 3 .3.1.6.3.7.6 1.8-1 2-2.3 2-3.6v-1.1h-.8zm4.6 3.5h.7v-4.7h-.7zm0-8.3c-.3.7-1 1.3-1.9 1.8-.8-.5-1.4-1.1-2-1.8zm2.9 0v-.7h-4.5v-1h-.7v.9h-4.5v.8h2c.5.9 1.3 1.6 2.2 2.1-1.3.6-2.8 1-4.4 1.2l.5.7c1.7-.3 3.2-.7 4.6-1.4 1.3.7 2.8 1 4.6 1.3l.4-.7c-1.4-.2-3-.5-4.2-1.1.9-.6 1.6-1.3 2-2.2zm0 0" style="fill:none;stroke:#fff;stroke-width:3;stroke-linecap:butt;stroke-linejoin:round;stroke-miterlimit:10;stroke-opacity:.6" transform="rotate(000 359.6 196.3)"/>
  <path d="M368.3 185.5v-.8h-4.6V183h-.7v1.7h-4.6v.8h4.6v1.4h-3.4v5.1h.8v-4.4h2.5v5.6h.8v-5.5h2.7v3.1c0 .1 0 .2-.2.2h-1.6l.3.8c.9 0 1.5 0 1.9-.2.2-.1.5-.3.5-.8v-3.9h-3.6v-1.4zm0 0" style="fill:none;stroke:#fff;stroke-width:3;stroke-linecap:butt;stroke-linejoin:round;stroke-miterlimit:10;stroke-opacity:.6" transform="rotate(000 359.6 196.3)"/>
  <g style="fill:#212121;fill-opacity:1" transform="rotate(000 359.6 196.3)">
    <use xlink:href="#D" y="177.8" x="341.3"/>
    <use xlink:href="#E" y="177.8" x="352.3"/>
    <use xlink:href="#F" y="177.8" x="363.3"/>
    <use xlink:href="#G" y="192.3" x="346.8"/>
    <use xlink:href="#H" y="192.3" x="357.8"/>
  </g>
  <path d="M3.7 2C3.7 3 3 3.8 2 3.8S.2 3 .2 2 1 .3 2 .3 3.7 1 3.7 2zm0 0" style="fill:#fdfdfa;fill-opacity:1;fill-rule:nonzero;stroke:#575747;stroke-width:.5;stroke-linecap:butt;stroke-linejoin:miter;stroke-miterlimit:4;stroke-opacity:1" transform="translate(277.9 192.8)"/>
  <path d="M266.4 181.6c-.6 1.7-1.7 3.4-2.8 4.4.2 0 .4.6.5.8l1.2-1.5v6.3h.8v-7.5l1.1-2.1zm5.9 6H270l.1-1.5v-.4h2.2zM270 183h2.3v2H270zm3.9 2h-.8v-2.6h-5.7v.6h1.9v2h-2.7v.7h2.7v1.8h-2.1v.8h1.8c-.2 1-1 2-2.4 2.7l.4.7c2-.9 2.6-2.1 3-3.4h2.3v.5h.7v-3.1h.9zm0 0" style="fill:none;stroke:#fff;stroke-width:3;stroke-linecap:butt;stroke-linejoin:round;stroke-miterlimit:10;stroke-opacity:.6" transform="rotate(000 281.6 194.8)"/>
  <path d="M284.2 181.7h-.7v4.1c0 .1 0 .2-.2.2H282l.3.7 1.5-.1c.3-.2.4-.4.4-.8zm-2.2.3h-1v3.5h1zm-4.7 4.6h.8v-1.8l1.3 1.2.6-.6-2-1.3h2.3v-.6h-2.2v-1c.7 0 1.4-.2 1.9-.5l-.6-.4c-1 .4-2.7.5-4.2.6l.2.5 2-.1v.9H275v.5h2c-.4 1-1.2 1.6-2 2l.3.5c.8-.4 1.5-1 2.1-1.7zm7.5 2.6h-4.5v-1h3.5v-.8h-3.5v-1h-.8v1h-2l.3-.5-.8-.3c-.3.8-1 1.6-1.6 2.1l.6.4 1-1h2.4v1.1H275v.8h4.5v1.6h.8V190h4.5zm0 0" style="fill:none;stroke:#fff;stroke-width:3;stroke-linecap:butt;stroke-linejoin:round;stroke-miterlimit:10;stroke-opacity:.6" transform="rotate(000 281.6 194.8)"/>
  <path d="M288 181.8v3.4c0 2-.2 4.2-2 5.8l.7.6c1.9-1.8 2.1-4.2 2.1-6.4v-3.4zm3.1.2v9h.9v-9zm3.3-.2v9.7h.8v-9.7zm-7.6 2.5c-.2 1-.5 2.1-1 2.9l.6.3c.6-.8.9-2 1-3zm2.2.4c.5 1 .8 2 .9 2.8l.7-.3c0-.7-.5-1.8-.8-2.7zm3 0c.8.8 1.2 2 1.5 2.7l.5-.3c-.1-.7-.7-1.9-1.2-2.7zm.2 0" style="fill:none;stroke:#fff;stroke-width:3;stroke-linecap:butt;stroke-linejoin:round;stroke-miterlimit:10;stroke-opacity:.6" transform="rotate(000 281.6 194.8)"/>
  <g style="fill:#212121;fill-opacity:1" transform="rotate(000 281.6 194.8)">
    <use xlink:href="#I" y="190.8" x="263.4"/>
    <use xlink:href="#J" y="190.8" x="274.4"/>
    <use xlink:href="#K" y="190.8" x="285.4"/>
  </g>
</svg>
