<svg xmlns:xlink="http://www.w3.org/1999/xlink" viewBox="0 0 497 279" xmlns="http://www.w3.org/2000/svg">
  <defs style="stroke:none" overflow="visible">
    <path d="M10.4-3.8H6v-3.9h3.8v-.8H1.2v.8H5v3.9H.6v.8h4.5V.8h.8V-3h4.5ZM2-6.8l1 2.3.7-.1c-.1-.7-.6-1.7-1-2.5Zm5.8 2.4C8.2-5 8.8-6 9-7l-.7-.2c-.3.8-.8 2-1.3 2.6Zm0 .1"/>
    <path d="M1.8-1v-6.4h2c.1 2-.2 3.6-1.8 4.4l.5.6c1.7-1 2-2.6 2.2-5H6v3.1c.1.7.2.9.4 1 .2.3.6.3.7.3h1.4l.5-.7v-1l-.6-.5V-4l-.2.2H7v-3.6h2.1V-1ZM1-8.2V.5h.8v-.8h7.4v.7h.8v-8.6Zm0 0"/>
    <path d="M6.8-.4h.9v-2h2.6v-.8H7.7v-1.4h2.1v-.8H7.7v-1.3h-.9v1.2H5l1-1.9h4V-8H6.3l.3-1-.8-.2-.4 1.1H3.6v.8H5L4.5-6l-.6.7c0 .3.1.6.3.8l1-.1h1.5v1.4H3.5v.8h3.3ZM3.1-7c-.3-.7-1-1.5-1.5-2.1l-.6.4 1.5 2Zm-.4 1.5H.5v.8H2v3.4C1.5-1.1 1-.6.4.1l.6.8C1.5 0 2-.6 2.3-.6c.2 0 .7.4 1 .7 1 .5 1.9.6 3.3.6h3.9c-.1-.4-.1-.9.1-1.1l-4 .3c-1.3.1-2.3.1-3-.5l-.9-.6Zm.1 0"/>
    <path d="M10.3-5.2v-.9H5.8L6-9H5v2.8H.6v1h4.1C4.4-3.2 3.3-1 .6.2l.5.6C3.8-.4 5-2.5 5.5-4.6 6.4-2.1 7.8-.2 10 .8l.5-.7C8.4-1 7-3 6.2-5.2Zm0 0"/>
    <path d="M2.9-2.6c0 1-.2 2.1-1.9 3 .2-.1.5.2.7.4 1.8-.8 2-2.2 2-3.4v-1.2h-.8ZM7.4.8h.9v-4.6h-.9Zm0-8.3c-.4.8-.9 1.3-1.7 1.8-1-.5-1.7-1-2.2-1.8Zm3.1 0v-.7H5.8v-1H5v1H.7v.7h2c.4 1 1.1 1.6 2 2.2-1.1.6-2.6 1-4.2 1.1l.5.8c1.7-.3 3.3-.8 4.6-1.4 1.3.6 2.8 1 4.4 1.3l.6-.8c-1.6 0-3-.5-4.2-1 .8-.7 1.5-1.3 2-2.2Zm-.2 0" id="F"/>
    <path d="M5-2.4 6.3-.6 7-1 5.6-2.7ZM10.5-5v-1H7.8v-1.3H10V-8H7.8v-1.2H7V-8H4.8v.7H7v1.4H4.2v.9h4.1v1.2H4.6l-.1-.6-1.3.3v-2.1h1.2V-7H3.2v-2.2h-.7V-7h-.9l.2-1.5-.7-.1C1-7.3.8-6 .4-5l.6.4.5-1.6h1v2.4l-2 .5.1.8L2.5-3V.8h.7v-4l1.2-.5v.7h4v2.8c-.1.2-.1.2-.4.2H6.7l.2.8L8.7.7c.3-.1.5-.4.5-.9V-3h1.2v-.8H9.2v-1.3Zm0-.1" id="E"/>
    <path d="M3.6-7.8 1.6-9l-.6.5 2 1.4ZM2.9-5c-.4-.3-1.3-.8-1.9-1l-.4.4 1.9 1.3ZM1.5.7c.7-1 1.5-2.4 2-3.5L3-3.4C2.3-2 1.5-.7.9.1Zm7.6-3.2v2.1H5v-2ZM4.4.8h.8V.3H9v.5h.9v-4.1H4.4ZM7.5-5v-1.6h2.7v-.7H7.5v-1.8h-.8v1.8H5.2l.4-1.3-.8-.1C4.5-7.6 4-6.4 3.3-5.6l.8.4.8-1.4h1.8V-5H3.4v.8h7.1V-5Zm0 0" id="D"/>
    <path d="M3.5-8c.7 0 1.5-.3 1.9-.5L4.8-9 .7-8l.2.4 1.8-.2V-6H.6v.8h2C2-3.8 1.1-2.3.2-1.5l.6.8c.7-.9 1.4-2.1 2-3.3V.8h.6V-4L5-2.1l.4-.7C5-3.1 4-4.5 3.5-5v-.2h2V-6h-2Zm3.1 6.7v-6.1h2.5v6Zm-.8-6.9V.4h.8v-1h2.5v1h.8v-8.6Zm0 0" id="C"/>
    <path d="M2.8-7.3V-3H1.6v-4.3Zm.7-.8H.9V-1h.7v-1.2h1.9Zm7 4.2h-3v-4c1.1.1 2-.1 2.7-.3L9.5-9c-1.3.4-3.5.7-5.5.8l.3.7 2.5-.3v4H4v.6h2.8v3c0 .2-.1.2-.3.2H5l.3.8L7.1.7c.4-.2.5-.4.5-1V-3h2.9Zm-6-3 .6 2.8.9-.4c-.1-.7-.5-1.8-1-2.6Zm4.3 2.8L10-7l-.7-.2-1 2.7Zm.1-.1" id="B"/>
    <path d="M4.5-7.4h4.9V-6h.8v-2.1H7.5L7-9.2l-.7.2.4 1h-3v1.9h.8Zm1 3.5h1.9v1.6H5.5Zm4.8 1.6H8.2v-1.6h1.5v-.7H5.4v-1l4-.6-.4-.6c-1 .3-2.9.5-4.4.5v4H3.3v.7h7Zm-7-5.5C2.9-8.2 2-8.7 1.4-9l-.4.5c.7.5 1.4 1 1.8 1.5ZM2.8-5c-.4-.4-1.2-.9-2-1.2l-.2.6 1.8 1.3ZM1.4.7c.6-1 1-2.4 1.4-3.7l-.6-.3C1.7-2 1.2-.6.7.2Zm4.2-2.1L3.1.3l.4.5c1-.4 2-1.1 2.8-1.7Zm2.1.4L10 .8l.6-.5-2.3-1.7Zm0 0"/>
    <path d="M3-4.6C2.3-3.3 1.4-2 .5-1.3l.9.5c.9-.8 1.8-2.2 2.4-3.5Zm6.2-1.9-.9 1.7.7.2c.5-.6 1-1.6 1.4-2.4l-.6-.3H3.3L4.1-9l-.8-.2C2.5-7.6 1.6-6 .4-5l.8.6c.6-.5 1.2-1.3 1.7-2.1h2.3v6.3c0 .1 0 .2-.3.2H3.2c.2.2.3.6.3.8l2-.1c.4-.2.5-.4.5-1v-6.1ZM7.3-4.2c1.1 1 2 2.5 2.4 3.4l.7-.4C9.9-2 8.9-3.5 8-4.5Zm.1 0" id="H"/>
    <path d="M9-3v2.6H5.6V-3ZM4.8.8h.8V.3H9v.5h.8v-4.5h-5Zm.6-6.5v.8H9v-.8ZM3.2-3H1.6v-4.3h1.6Zm3.6-6C6.3-8 5-6.5 4-5.7v-2.4H.8V-1h.8v-1.2H4v-3.3l.3.5c1.2-.7 2.3-2 3-3.2C7.8-7 9-5.7 10.1-4.9l.6-.8c-1.2-.7-2.4-2-3.1-3.3Zm0 0" id="G"/>
    <path d="M3.5-.2v-1.2h4v1.2Zm4-1.8h-4v-1h4ZM7-4.6l.6 1h-4l.6-1.1ZM6.1-6l.4.7H4.6L5-6Zm4.3 1.4v-.7h-3L6.9-6h2.5v-.8H5.3l.2-.8h4.3v-.7H5.6l.1-.8-.7-.1v.9H1.1v.7h3.6l-.3.8H1.6v.8h2.6l-.5.7h-3v.8h2.4c-.6.9-1.5 1.7-2.6 2.2l.4.7 1.8-1.2V.8h.8V.5h4v.3h.9V-3c.5.6 1 1 1.6 1.2l.6-.7c-1-.4-2-1.1-2.6-2Zm0 0" id="z"/>
    <path d="M8.4-9c-1 1.2-2.4 2.2-4 3l.6.5c1.5-.7 3.2-1.8 4.3-3.1Zm2 5v-1H3.5v-4.1h-.8V-5H.8v.9h1.9v3.5c.1.4-.2.6-.3.6l.2.8L6.3-.3v-.8l-2.8.7v-3.7h1.8C6.2-1.8 7.8-.2 10 .5l.6-.7c-2.1-.6-3.6-2-4.4-4Zm-.1-.1" id="y"/>
    <path d="M4-8.8H1V.8h.8V-8h1.6L2.3-5.5c1 .8 1.3 1.5 1.3 2.2 0 .3 0 .6-.3.7l-.3.1H2c.2.2.3.5.3.8h.8l.8-.3c.3-.2.5-.7.5-1.3 0-.6-.4-1.4-1.4-2.2l1.5-2.9Zm1.9 8V-4H9v3.2Zm3.1-7v3H6v-3Zm-3.9-.7V.8h.8v-1H9v.9h1v-9.2Zm-.1 0"/>
    <path d="M3.4-8c-.4-.3-1.3-.8-2-1l-.4.4 2 1.3ZM3-5 1-6l-.5.4 2 1.3Zm0 1.6L.8.1l.6.6 2.1-3.5ZM8 0c-.3 0-.3 0-.3-.5V-5h-.8l.2-1.3h2.3v1.5h.8v-2.3h-3v-2.1h-1v2H3.7v2.5h.8v-1.6h1.8C6-3.7 5.5-1.2 3 .2l.6.6c2-1.2 2.9-3 3.4-5.2v3.9C6.9.5 7 .7 7.9.7h1.6c.7 0 .9-.5 1-2.2l-.7-.3c0 1.5-.1 1.7-.5 1.7Zm0 0"/>
    <path d="M10.4-6.9v-.8H6v-1.5H5v1.4H.6v.9H5v1.5H1.7v4.9h.8v-4.1H5V.9h1v-5.5h2.6v3c0 .3 0 .3-.3.4H6.7l.3.5h2c.2-.1.3-.4.3-.8v-4H6v-1.3Zm0 0" id="A"/>
    <path d="M10.3-8H5.9v-1.1H5v1.2H.7v.7h9.6ZM2.5-2.2C2.1-1.5 1.3-.6.5 0l.7.4C2-.2 2.9-1 3.4-2ZM3-5.4h5.2v1.8H2.9ZM9-3v-3.2H2v3.3h3v2.8l-.1.1H3.2l.3.8h2c.2-.3.3-.5.3-1.1v-2.5ZM7.5-2c.8.8 1.7 1.9 2 2.5l1-.4-2.2-2.4Zm0 0"/>
    <path d="M3.6-6.4H.7v.8h2.9v3L.4-1.3l.4.8 2.8-1.2V.7h.8V-9h-.8Zm4 6.2C7.2-.2 7-.3 7-.9v-3.6l3.4-2.1-.6-.7-2.8 2V-9h-.8v8C6.2.4 6.5.7 7.5.7h1.8c1-.1 1.3-.8 1.4-2.8l-.8-.4C10-.7 9.7-.2 9.2-.2Zm0 0"/>
    <path d="M9.5-4.3v-.8H8.1c.3-1.1.3-1.9.3-2.8v-.7H1.7v.7h5.8c0 .9 0 1.7-.3 2.9H.6v.7h4v1.8h-3v.7h5.9V.8h.8v-3.3H5.5v-1.8Zm0 0" id="x"/>
    <path d="M6.5-7.9H4V-9h-.9v1H.6v1h6ZM2.1-4.7c0-.7.6-1.3 1.5-1.3S5-5.4 5-4.7s-.5 1-1.4 1S2-4 2-4.6Zm2 1.7c.9-.1 1.7-.8 1.7-1.7C6-5.8 5-6.6 3.6-6.6c-1.4 0-2.3.8-2.3 1.9C1.3-3.7 2-3.1 3-3v1H.5v1c1.9 0 4.2 0 6.4-.5L6.7-2H4Zm5.5-2H8.2v-4h-1V.8h1.1v-5h1.4Zm.1.1" id="w"/>
    <path d="M7.5-7.7c0 .7 0 1.5-.3 2.5h.9c.3-.9.3-1.6.3-2.4v-.9H1.7v.7h5.8ZM5 0C3.5 0 2.5-.3 2.5-1s1-1.1 2.5-1.1c1.6 0 2.5.4 2.5 1.1 0 .7-1 1-2.5 1Zm0-3c-2 .2-3.4 1-3.4 2C1.6.1 2.9.8 5 .8 7.1.8 8.5.1 8.5-1S7-2.8 5-2.8Zm.1-1.4v-1.9h-.8v1.8H.5v.8h9v-.8Zm0-.1" id="v"/>
    <path d="M8.7-9h-1v7.2h1.1Zm-7 3c0-.8.7-1.5 1.7-1.5S5-6.9 5-5.9s-.6 1.6-1.6 1.6S1.7-5 1.7-5.9ZM6-6c0-1.3-1.2-2.3-2.6-2.3C1.9-8.4.8-7.4.8-5.9.8-4.5 2-3.5 3.4-3.5c1.4 0 2.6-1 2.6-2.4ZM3.2 0v-2.6h-.9V.6H9v-.7Zm0-.1" id="u"/>
    <path d="M3.8-8.3C2.3-8.3 1-7.3 1-6c.1 1.4 1.2 2.3 2.8 2.3 1.5 0 2.6-1 2.6-2.3 0-1.4-1-2.3-2.6-2.3Zm0 .7c1 0 1.7.7 1.7 1.6 0 1-.7 1.5-1.7 1.5S2-5 2-6s.8-1.6 1.8-1.6Zm4-1.4V.8h.7V-9ZM.7-1.3c1.8 0 4.2 0 6.5-.5L7-2.4c-2.1.3-4.6.3-6.3.3Zm.1 0" id="t"/>
    <path d="M1.5-4.3c1.5-.2 3-1 3.5-2.2.6 1.2 2.1 2 3.6 2.3L9-5c-1.8-.2-3.5-1.4-3.5-2.7h3.1v-.7H1.4v.7h3.1c0 1.3-1.7 2.5-3.4 2.7Zm8 .9h-9v.7h4.1V.8h1v-3.5h3.9Zm0 0" id="s"/>
    <path d="M8.7-9h-1v7h1.1ZM4.8-4.3H2v-3.2h2.8Zm.9-3.9H1.1v4.6h4.6Zm-2.5 8v-2.4h-.9v3H9v-.5Zm0 0" id="r"/>
    <path d="M7.8-1.7h1V-9H7.7v2.3H5.6v.7h2.2ZM6.3-4C5-4.5 4-5.8 4-7.2v-1.3H3v1.3C3-5.7 2-4.3.7-3.8l.3.7c1.2-.4 2-1.4 2.5-2.6.5 1.1 1.3 2 2.5 2.4Zm-3 3.9v-2.4h-1v3H9V0Zm0 0" id="q"/>
    <path d="M1.4-3.2C2.9-3.5 4.4-4.5 5-6c.7 1.5 2.3 2.4 3.8 2.7L9-4c-1.6-.3-3.5-1.6-3.5-3.2v-.2h3.3v-.8H1.3v.8h3.3v.2c0 1.6-1.9 3-3.6 3.2Zm4.1 2v-2.4h-.9v2.4h-4v.7h9v-.7Zm0 0" id="p"/>
    <path d="M1 1.3h9v-11H1Zm4.6-6L2-9h7Zm.3.6 3.4-4.6v9ZM2 .8l3.5-4.5L9 .8Zm-.3-9.5L5-4.2 1.7.3Zm0 0"/>
    <path d="M.3-.8.1-2.4 0-4v-.9h.4c0-.5.2-1 .5-1.6l.8-1.6h1C2.6-7 2.6-6 2.8-5.2c.3.9.6 1.8 1.2 2.7l.7-2.4L6-7h1L5.4-4.3l-1 3.1h-.7L3-2.5l-.6-1.3-.3-1.4-.2-1.5c-.5.5-.7 1.2-.8 1.7L1-3c0 1 0 1.7.2 2.2Zm0 0" id="o"/>
    <path d="M.2-1 0-4v-.9h.2c0-.8.2-1.5.5-2.1H-.8l-.9-.6v-.7c.3.2.7.3 1 .3h2.2v.9L1.1-6 1-5h2.5v1H1v3Zm0 0" id="n"/>
    <path d="M7.6-.4C6.9-.4 6.3-.6 6-1c-.4-.4-.6-1-.6-1.7 0-.5 0-1 .2-1.3H5c-.5 0-.8 0-1.1.2l-.3.5-.3.9v1.6h-.9l-.2-4L2-6c-.1-.2-.4-.3-.7-.3-.3 0-.7 0-1.2.3v-1l1.4-.2c.5 0 .7.2 1 .3l.4.8L3-5v1.1C3.4-4.7 4-5 5-5h7v1H9.5c.2.4.3.8.3 1.3 0 .7-.2 1.2-.6 1.6-.4.5-1 .7-1.6.7Zm0-1c.4 0 .7 0 1-.3l.2-1c.1-.6.1-1.1-.1-1.3H6.5l-.2 1.2c0 1 .4 1.4 1.3 1.4Zm0 0" id="m"/>
    <path d="M2.7-.5c-.5 0-.9-.1-1.2-.3l-1-.8c-.3-.3-.5-.7-.6-1L-.4-4v-.9h1v1.3c0 .4.2.8.4 1.1l.8.8c0-2.1.3-3.8.8-5.3H.5l-.7-.5v-.7l.4.2h.4l.5.2h2.7v.6c-.6.9-.8 1.8-1 2.7l-.1 2.8Zm0 0" id="l"/>
    <path d="M.2-1 0-4v-.9h6.6v.9H4.3L4-1h-.7l-.2-3h-2L1-1Zm.3 2.7L0 1.4 1.4-.2l.6.7-.9.7-.6.6Zm3.1.1-.5-.4L4.5-.2l.5.7-.7.7-.7.6Zm0 0" id="k"/>
    <path d="M3.7-.8 3-2.4c-.2-.6-.3-1-.3-1.6H1v3H.2L0-4v-.9h2.7c0-.6.3-1.1.7-1.6.3-.4.8-.5 1.5-.5.5-.1.9 0 1.1.3.4.3.7.7.8 1.1.2.6.3 1 .3 1.6h-.8c0-.7-.2-1.3-.3-1.6-.4-.4-.7-.6-1.1-.6-.5 0-.9.2-1 .5-.3.3-.4.8-.4 1.3 0 .6.1 1.2.3 1.7l.7 1.4Zm0 0" id="j"/>
    <path d="M2.2-.4C1.5-.4.9-.6.5-1 .2-1.5 0-2 0-2.7c0-.5 0-1 .2-1.3H0v-.9h6.6v.9H4.1c.2.4.2.8.2 1.3 0 .7-.1 1.2-.5 1.6-.4.5-1 .7-1.6.7Zm0-1c.4 0 .7 0 1-.3l.2-1c.1-.6 0-1.1-.2-1.3H1.1c-.2.4-.2.8-.2 1.2 0 1 .4 1.4 1.3 1.4Zm0 0" id="i"/>
    <path d="m2.5-.8-.3-4L2-6c-.1-.2-.4-.3-.7-.3-.3 0-.7 0-1.2.3v-1l1.4-.2h.6l-.5-.6v-.7h1.3l1.3-.1.4-.1.3-.3v1l-.7.3H2.5L3-5.8V-4h.2c.2-.7.8-1 1.8-1h.7v1H5c-.5 0-.8 0-1.1.2l-.3.5-.3.9v1.6Zm0 0" id="h"/>
    <path d="M1 0v-7.9h4.6V0Zm.6-.6H5v-6.7H1.6Zm0 0"/>
    <path d="M3.3.1c-.5 0-1-.1-1.4-.3-.4-.2-.7-.6-.9-1-.2-.4-.3-1-.3-1.7s0-1.3.3-1.8c.2-.3.5-.8 1-1 .4-.2.8-.3 1.4-.3h.8l.8.4-.4.7L4-5h-.7c-1.1-.2-1.7.5-1.7 2 0 .8.1 1.3.4 1.7.3.4.7.6 1.3.6L4-.8c.4 0 .6-.2.8-.3v.9l-.6.2-.9.1Zm0 0" id="g"/>
    <path d="M0-5.9h1l1.3 3.4.3.8.2.8.4-.7.2-1 1.2-3.2h1L3.1.8c-.2.6-.5 1-.8 1.3-.4.4-.8.5-1.4.5H.1v-.9h.7c.2.1.6.1.8-.1L2 .8l.4-.8Zm0 0" id="f"/>
    <path d="M5.4 0h-1v-5H2.7c0 1-.2 2-.4 3-.2.6-.3 1.1-.7 1.5-.2.4-.6.5-1 .5H.1v-.7h.3C.8-.7 1-1 1.4-2l.4-3.9h3.6Zm0 0" id="e"/>
    <path d="M4.5-5.9v.9H2v5H1v-5.9Zm0 0" id="d"/>
    <path d="M2-5.9v2.5h3V-6h1.1v6H5v-2.6H2V0H1v-5.9Zm0 0" id="c"/>
    <path d="M6-3c0 1-.1 1.8-.6 2.3-.6.5-1.2.8-2.1.8-.5 0-1-.1-1.3-.3-.5-.4-.8-.6-1-1.2C.8-1.8.7-2.3.7-3c-.1-1 .3-1.7.6-2.2.5-.5 1.2-.8 2-.8.7 0 1 .1 1.5.4.4.2.7.5 1 1L6-3ZM1.7-3c-.1.7 0 1.3.3 1.7.3.4.7.6 1.3.6.7 0 1-.2 1.3-.6.4-.4.5-1 .5-1.7-.1-.6-.2-1.2-.5-1.6-.2-.4-.6-.6-1.3-.6-.6 0-1 .2-1.3.6-.3.4-.4 1-.4 1.6Zm-.1 0" id="b"/>
    <path d="M4.5 0 2-6.9V0H1v-7.9h1.6L5-1.4 7.5-8h1.4v8H8v-6.9L5.3 0Zm0 0" id="a"/>
    <path d="M1 0v-7.9h4.6V0Zm.6-.6H5v-6.7H1.6Zm0 0"/>
  </defs>
  <image xlink:href="2_0.jpg" height="279" width="497"/>
  <path d="m61.6 124.2-2.6-6.9v6.9h-.9v-7.8h1.5l2.4 6.4 2.5-6.4H66v7.8h-1v-6.9l-2.6 7.1zm0 0" style="fill:none;stroke:#fff;stroke-width:3;stroke-linecap:butt;stroke-linejoin:round;stroke-miterlimit:10;stroke-opacity:.6" transform="rotate(330 81.1 138.8)"/>
  <path d="M73.6 121.3c0 1-.3 1.7-.8 2.2-.5.6-1.1.8-2 .8-.5 0-1 0-1.4-.3l-1-1-.2-1.8c-.1-.9.2-1.6.8-2.2.4-.5 1-.8 1.9-.8.5 0 1 .2 1.4.4.4.2.7.6 1 1l.2 1.7zm-4.6 0c.1.7.3 1.2.5 1.6.3.4.8.6 1.5.6.4 0 .9-.2 1.2-.5.2-.5.4-1 .4-1.7s-.2-1.3-.4-1.7c-.3-.4-.8-.6-1.3-.6-.7 0-1 .2-1.4.6-.2.4-.4 1-.4 1.7zm.1 0" style="fill:none;stroke:#fff;stroke-width:3;stroke-linecap:butt;stroke-linejoin:round;stroke-miterlimit:10;stroke-opacity:.6" transform="rotate(330 81.1 138.8)"/>
  <path d="M76.6 118.3v2.5h3.2v-2.5h1v6h-1v-2.8h-3.2v2.7h-1v-5.9zm0 0" style="fill:none;stroke:#fff;stroke-width:3;stroke-linecap:butt;stroke-linejoin:round;stroke-miterlimit:10;stroke-opacity:.6" transform="rotate(330 81.1 138.8)"/>
  <path d="M86.7 118.3v.9h-2.6v5H83v-5.9zm0 0" style="fill:none;stroke:#fff;stroke-width:3;stroke-linecap:butt;stroke-linejoin:round;stroke-miterlimit:10;stroke-opacity:.6" transform="rotate(330 81.1 138.8)"/>
  <path d="M93.4 121.3c0 1-.2 1.7-.7 2.2-.5.6-1.2.8-2 .8-.7 0-1 0-1.4-.3-.4-.3-.8-.6-1-1-.3-.6-.4-1-.4-1.8.1-.9.3-1.6.8-2.2.5-.5 1.1-.8 2-.8.5 0 1 .2 1.3.4.5.2.8.6 1 1 .3.5.4 1 .4 1.7zm-4.5 0c.1.7.2 1.2.5 1.6.2.4.6.6 1.3.6.6 0 1-.2 1.3-.5.3-.5.4-1 .4-1.7s-.1-1.3-.4-1.7c-.3-.4-.7-.6-1.3-.6-.7 0-1 .2-1.3.6-.4.4-.5 1-.5 1.7zm.1 0" style="fill:none;stroke:#fff;stroke-width:3;stroke-linecap:butt;stroke-linejoin:round;stroke-miterlimit:10;stroke-opacity:.6" transform="rotate(330 81.1 138.8)"/>
  <path d="M100 124.2h-1v-5h-1.9c.1 1.1-.1 2.1-.3 2.9-.2.7-.4 1.2-.7 1.6-.1.3-.6.6-1 .6h-.5v-.9h.3c.4.1.7-.3 1-1.1l.4-4h3.6zm0 0" style="fill:none;stroke:#fff;stroke-width:3;stroke-linecap:butt;stroke-linejoin:round;stroke-miterlimit:10;stroke-opacity:.6" transform="rotate(330 81.1 138.8)"/>
  <path d="M49.4 136h1l1.3 3.2c0 .4.2.7.3.8l.2 1 .2-.8.3-1L54 136h1l-2.5 6.6c-.3.6-.5 1-.9 1.4-.3.3-.6.5-1.3.5h-.5l-.3-.2v-.7h.5c.5.1.7.1 1-.1l.4-.9.3-.6zm0 0" style="fill:none;stroke:#fff;stroke-width:3;stroke-linecap:butt;stroke-linejoin:round;stroke-miterlimit:10;stroke-opacity:.6" transform="rotate(330 81.1 138.8)"/>
  <path d="M60.7 141.8h-1v-5H58l-.4 2.9c-.2.7-.4 1.3-.7 1.6-.3.4-.6.6-1 .6h-.7v-.9h.4c.4.1.7-.3 1-1 .2-1 .4-2.3.4-4.1h3.7zm0 0" style="fill:none;stroke:#fff;stroke-width:3;stroke-linecap:butt;stroke-linejoin:round;stroke-miterlimit:10;stroke-opacity:.6" transform="rotate(330 81.1 138.8)"/>
  <path d="M65.4 142c-.5 0-1-.3-1.4-.5-.4-.1-.7-.4-1-.9l-.2-1.6c0-.6 0-1.4.3-1.9.2-.4.5-.7.9-1 .5-.1.9-.3 1.5-.3l.8.2.7.1-.3.9-.6-.2-.7-.1c-1.1 0-1.7.7-1.7 2.2 0 .7.3 1.3.4 1.7.3.3.7.4 1.3.4h.8l.8-.3v.9l-.7.4h-.9zm0 0" style="fill:none;stroke:#fff;stroke-width:3;stroke-linecap:butt;stroke-linejoin:round;stroke-miterlimit:10;stroke-opacity:.6" transform="rotate(330 81.1 138.8)"/>
  <path d="m73.7 141-.3-4c0-.4 0-.8-.2-1 0-.5-.2-.6-.7-.6l-1.1.4v-.8c.5-.2 1-.4 1.4-.4h.2l.3.2c-.1-.4-.3-.7-.5-.8v-.7h2.6l.4-.3h.3v.8l-.6.2-.6.2h-1.1l.4 1.8.1 2c.4-.7 1.1-1.1 1.9-1.1h.8v1.1h-1.8l-.5.6-.1.9-.1 1.5zm0 0" style="fill:none;stroke:#fff;stroke-width:3;stroke-linecap:butt;stroke-linejoin:round;stroke-miterlimit:10;stroke-opacity:.6" transform="rotate(330 81.1 138.8)"/>
  <path d="M79.3 141.4c-.7 0-1.2-.2-1.6-.6-.4-.4-.5-1-.5-1.8 0-.4 0-.9.2-1.2h-.2v-.8h6.6v1h-2.5l.2 1c0 .8-.2 1.3-.6 1.8-.3.4-.9.6-1.6.6zm0-1c.4.1.8.1 1-.2.2-.2.3-.7.3-1.1 0-.5 0-1.1-.2-1.3h-2.1c-.3.4-.3.8-.3 1.3 0 .9.5 1.4 1.3 1.4zm0 .1" style="fill:none;stroke:#fff;stroke-width:3;stroke-linecap:butt;stroke-linejoin:round;stroke-miterlimit:10;stroke-opacity:.6" transform="rotate(330 81.1 138.8)"/>
  <path d="m87.7 141-.8-1.5-.3-1.7h-1.5l-.2 3h-.7l-.2-3v-.8h2.6c.1-.7.4-1.2.7-1.6.4-.5.9-.7 1.7-.7.4 0 .8.3 1 .4.4.3.6.7.8 1.2.2.4.3 1 .3 1.5h-.8c0-.7-.3-1.2-.5-1.6-.2-.4-.6-.6-1-.6s-.6.2-.9.5c-.3.4-.4.9-.4 1.4 0 .5 0 1 .3 1.5.1.6.4 1 .7 1.6zm0 0" style="fill:none;stroke:#fff;stroke-width:3;stroke-linecap:butt;stroke-linejoin:round;stroke-miterlimit:10;stroke-opacity:.6" transform="rotate(330 81.1 138.8)"/>
  <path d="m91 140.8-.2-3v-.8h6.6v1H95l-.2 2.7h-.7l-.1-2.9h-2.1l-.2 3zm.3 2.8-.5-.4 1.2-1.6.8.8-.8.6-.7.6zm3 0-.3-.4 1.2-1.6.8.8-1 .6-.6.6zm.1 0" style="fill:none;stroke:#fff;stroke-width:3;stroke-linecap:butt;stroke-linejoin:round;stroke-miterlimit:10;stroke-opacity:.6" transform="rotate(330 81.1 138.8)"/>
  <path d="M99.7 141.4c-.7 0-1.3-.2-1.6-.6-.4-.4-.6-1-.6-1.8 0-.4 0-.9.2-1.2h-.2v-.8h6.7v1h-2.6c.2.1.4.5.4 1-.1.8-.3 1.3-.7 1.8-.4.4-1 .6-1.6.6zm0-1c.4.1.7.1 1-.2.1-.2.3-.7.3-1.1 0-.5 0-1.1-.2-1.3h-2.2l-.2 1.3c0 .9.4 1.4 1.3 1.4zm0 .1" style="fill:none;stroke:#fff;stroke-width:3;stroke-linecap:butt;stroke-linejoin:round;stroke-miterlimit:10;stroke-opacity:.6" transform="rotate(330 81.1 138.8)"/>
  <path d="M107 141.3c-.4 0-.8 0-1.2-.3l-1-.7c-.2-.4-.5-.7-.6-1.3-.2-.3-.2-.7-.2-1.2v-.8h.9v1.3l.5 1 .7.8c0-2.1.3-3.8.9-5.2h-1.6l-.6-.1-.7-.4v-.8l.4.2.5.1h3.1v.8l-1 2.6-.1 2.8zm0 0" style="fill:none;stroke:#fff;stroke-width:3;stroke-linecap:butt;stroke-linejoin:round;stroke-miterlimit:10;stroke-opacity:.6" transform="rotate(330 81.1 138.8)"/>
  <path d="M71.4 159c-.7 0-1.2-.2-1.6-.6-.3-.4-.5-1-.5-1.7 0-.5 0-.9.2-1.3h-.8l-.9.2-.4.5-.2 1-.2 1.4h-.7l-.2-3.9c-.1-.4-.1-.8-.3-1 0-.4-.3-.6-.6-.6l-1.2.4v-.8l1.4-.3c.4 0 .6 0 1 .2l.2.8.4 1.3v.9c.2-.6.8-1 1.8-1h7v1.1h-2.4l.2 1c0 .8-.2 1.4-.6 1.8-.3.4-.9.6-1.6.6zm0-1c.4 0 .8 0 1-.2.2-.3.3-.7.3-1.1.1-.5.1-.9-.2-1.3h-2.1c-.2.4-.4.8-.4 1.3.1 1 .6 1.3 1.4 1.3zm0 0" style="fill:none;stroke:#fff;stroke-width:3;stroke-linecap:butt;stroke-linejoin:round;stroke-miterlimit:10;stroke-opacity:.6" transform="rotate(330 81.1 138.8)"/>
  <path d="m76.3 158.4-.3-3v-.8h.3c0-.8.2-1.6.5-2.2h-1.6l-.8-.4v-1l1 .5h2.2v.8l-.4 1.1-.2 1.2h2.5v.8h-2.3l-.2 3zm0 0" style="fill:none;stroke:#fff;stroke-width:3;stroke-linecap:butt;stroke-linejoin:round;stroke-miterlimit:10;stroke-opacity:.6" transform="rotate(330 81.1 138.8)"/>
  <path d="M81.9 159c-.7 0-1.3-.2-1.7-.6-.2-.4-.5-1-.5-1.7 0-.5 0-.9.2-1.3h-.2v-.8h6.6v.8h-2.5c.2.4.2.8.2 1.3 0 .7 0 1.3-.5 1.7-.5.4-1 .6-1.6.6zm0-1c.4 0 .7 0 1-.2l.2-1.1c.1-.5-.1-.9-.2-1.3h-2.1c-.2.4-.2.8-.2 1.3 0 1 .4 1.3 1.3 1.3zm0 0" style="fill:none;stroke:#fff;stroke-width:3;stroke-linecap:butt;stroke-linejoin:round;stroke-miterlimit:10;stroke-opacity:.6" transform="rotate(330 81.1 138.8)"/>
  <path d="m86.8 158.6-.2-1.6-.1-1.6v-.8h.4c0-.6.1-1.1.5-1.7l.8-1.5h1c-.1 1-.1 2 .1 2.8l1.1 2.8.8-2.4 1.3-2.2h1c-.5.9-1.1 1.8-1.5 2.8l-1 3h-.8l-.8-1.2-.4-1.4-.4-1.4-.2-1.5c-.4.6-.7 1.3-.8 1.9l-.1 1.8c0 1 0 1.7.2 2.2zm0 0" style="fill:none;stroke:#fff;stroke-width:3;stroke-linecap:butt;stroke-linejoin:round;stroke-miterlimit:10;stroke-opacity:.6" transform="rotate(330 81.1 138.8)"/>
  <g style="fill:#633d63;fill-opacity:1" transform="rotate(330 81.1 138.8)">
    <use xlink:href="#a" y="124.2" x="57"/>
    <use xlink:href="#b" y="124.2" x="67.5"/>
    <use xlink:href="#c" y="124.2" x="74.7"/>
    <use xlink:href="#d" y="124.2" x="82.2"/>
    <use xlink:href="#b" y="124.2" x="87.3"/>
    <use xlink:href="#e" y="124.2" x="94.5"/>
    <use xlink:href="#f" y="141.8" x="49.4"/>
    <use xlink:href="#e" y="141.8" x="55.2"/>
    <use xlink:href="#g" y="141.8" x="62.1"/>
    <use xlink:href="#glyph0-8" y="141.8" x="67.9"/>
    <use xlink:href="#h" y="141.8" x="71.2"/>
    <use xlink:href="#i" y="141.8" x="77.2"/>
    <use xlink:href="#j" y="141.8" x="84"/>
    <use xlink:href="#k" y="141.8" x="90.8"/>
    <use xlink:href="#i" y="141.8" x="97.5"/>
    <use xlink:href="#l" y="141.8" x="104.3"/>
    <use xlink:href="#m" y="159.4" x="63.9"/>
    <use xlink:href="#n" y="159.4" x="76.1"/>
    <use xlink:href="#i" y="159.4" x="79.7"/>
    <use xlink:href="#o" y="159.4" x="86.5"/>
  </g>
  <path d="M329.8 241c1.4-.5 3-1.5 3.6-2.8.7 1.4 2.2 2.4 3.7 2.7l.4-.7c-1.7-.3-3.6-1.7-3.6-3.2v-.2h3.3v-.8h-7.5v.8h3.3v.2c0 1.5-2 3-3.6 3.2zm4 2v-2.4h-.8v2.4h-4v.7h8.8v-.7zm.1 0" style="fill:none;stroke:#fff;stroke-width:3;stroke-linecap:butt;stroke-linejoin:round;stroke-miterlimit:10;stroke-opacity:.6" transform="rotate(-30 323.1 248.9)"/>
  <path d="M346.8 242.5h1v-7.4h-1.1v2.3h-2.1v.8h2.2zm-1.5-2.3c-1.3-.6-2.3-1.9-2.3-3.2v-1.3h-.9v1.3c-.1 1.4-1.1 3-2.5 3.4l.4.6c1.2-.4 2-1.3 2.5-2.5.4 1 1.3 2 2.4 2.5zm-3 3.8v-2.3h-1v3h6.7v-.7zm0 0" style="fill:none;stroke:#fff;stroke-width:3;stroke-linecap:butt;stroke-linejoin:round;stroke-miterlimit:10;stroke-opacity:.6" transform="rotate(-30 323.1 248.9)"/>
  <path d="M358.3 235.1h-1v7.1h1.1zm-3.9 4.7h-2.8v-3.1h2.8zm1-3.8h-4.8v4.6h4.7zm-2.7 8v-2.6h-.7v3.3h6.6v-.8zm.1 0" style="fill:none;stroke:#fff;stroke-width:3;stroke-linecap:butt;stroke-linejoin:round;stroke-miterlimit:10;stroke-opacity:.6" transform="rotate(-30 323.1 248.9)"/>
  <path d="M361.7 240c1.5-.4 3-1.3 3.6-2.4.6 1.2 2 2.1 3.6 2.3l.3-.7c-1.7-.2-3.4-1.4-3.4-2.7h3v-.8h-7v.8h2.9c.1 1.3-1.5 2.5-3.2 2.7zm8 .6h-8.9v.9h4v3.5h1v-3.5h3.9zm0 .1" style="fill:none;stroke:#fff;stroke-width:3;stroke-linecap:butt;stroke-linejoin:round;stroke-miterlimit:10;stroke-opacity:.6" transform="rotate(-30 323.1 248.9)"/>
  <path d="M329.8 254.7c1.6-.3 3-1 3.6-2.3.6 1.2 2 2 3.6 2.3l.4-.7c-1.8-.3-3.5-1.4-3.5-2.7h3.1v-.9h-7.2v.8h3.2v.1c0 1.3-1.8 2.4-3.5 2.7zm8 .8H329v.8h4v3.5h.8v-3.5h4.1zm.1 0" style="fill:none;stroke:#fff;stroke-width:3;stroke-linecap:butt;stroke-linejoin:round;stroke-miterlimit:10;stroke-opacity:.6" transform="rotate(-30 323.1 248.9)"/>
  <path d="M342.8 250.6c-1.6 0-2.8 1-2.8 2.4.1 1.3 1.2 2.3 2.8 2.3 1.5 0 2.6-1 2.6-2.3 0-1.4-1-2.4-2.6-2.4zm0 .8c1 0 1.7.6 1.7 1.6 0 .9-.7 1.5-1.7 1.5s-1.8-.5-1.8-1.5.8-1.6 1.8-1.6zm4-1.5V260h.7v-10.2zm-7.1 7.7c1.8 0 4.2 0 6.3-.4v-.7c-2.1.5-4.6.5-6.4.5zm.1 0" style="fill:none;stroke:#fff;stroke-width:3;stroke-linecap:butt;stroke-linejoin:round;stroke-miterlimit:10;stroke-opacity:.6" transform="rotate(-30 323.1 248.9)"/>
  <path d="M358.3 250h-1v7h1.1zm-7 3c0-1 .7-1.6 1.7-1.6s1.7.6 1.7 1.6-.7 1.7-1.7 1.7-1.7-.7-1.7-1.7zm4.3 0c0-1.4-1.1-2.4-2.6-2.4s-2.6 1-2.6 2.4 1.1 2.5 2.6 2.5 2.6-1 2.6-2.5zm-2.8 5.8v-2.4h-.8v3.2h6.6v-.8zm0 0" style="fill:none;stroke:#fff;stroke-width:3;stroke-linecap:butt;stroke-linejoin:round;stroke-miterlimit:10;stroke-opacity:.6" transform="rotate(-30 323.1 248.9)"/>
  <path d="M368.9 250h-.9v7h1zm-3.8 4.5h-2.9v-3h2.9zm.8-3.7h-4.6v4.6h4.7zm-2.4 8v-2.6h-1v3.2h6.8v-.7zm0-.1" style="fill:none;stroke:#fff;stroke-width:3;stroke-linecap:butt;stroke-linejoin:round;stroke-miterlimit:10;stroke-opacity:.6" transform="rotate(-30 323.1 248.9)"/>
  <path d="M341.2 266c0 .8 0 1.5-.3 2.6h.9c.2-1 .2-1.8.2-2.6v-.8h-6.7v.8h5.9zm-2.5 8c-1.7-.1-2.7-.6-2.7-1.2.1-.8 1.1-1.2 2.7-1.2 1.5 0 2.5.5 2.5 1.2 0 .6-1 1-2.5 1zm0-3.1c-2.1.1-3.4.7-3.4 1.9 0 1 1.3 1.8 3.4 1.8 2 0 3.3-.7 3.3-1.8.1-1.2-1.2-1.9-3.3-1.9zm.1-1.6v-1.9h-.8v1.9h-3.7v.7h8.9v-.7zm0 0" style="fill:none;stroke:#fff;stroke-width:3;stroke-linecap:butt;stroke-linejoin:round;stroke-miterlimit:10;stroke-opacity:.6" transform="rotate(-30 323.1 248.9)"/>
  <path d="M350.8 265.9h-2.5v-1.2h-.9v1.3H345v.6h6zm-4.4 3.1c0-.6.6-1 1.6-1s1.4.4 1.4 1c0 .7-.6 1.1-1.5 1.1s-1.5-.4-1.5-1zm2 1.8c.9-.1 1.7-.8 1.7-1.8s-.9-1.8-2.1-1.8c-1.5 0-2.4.7-2.4 1.8 0 1 .7 1.7 1.8 1.8v1.2h-2.6v.7c1.9 0 4.2 0 6.4-.4l-.2-.7-2.7.4zm5.6-1.8h-1.5v-4.3h-1v9.9h1.1v-5h1.4zm0-.1" style="fill:none;stroke:#fff;stroke-width:3;stroke-linecap:butt;stroke-linejoin:round;stroke-miterlimit:10;stroke-opacity:.6" transform="rotate(-30 323.1 248.9)"/>
  <path d="M364.4 269.4v-.7h-1.3c.2-1.2.2-2 .2-2.8v-.7h-6.6v.7h5.7c0 .7 0 1.6-.2 2.8h-6.7v.7h4v1.8h-3v.8h5.9v2.6h.9v-3.4h-2.9v-1.8zm0 0" style="fill:none;stroke:#fff;stroke-width:3;stroke-linecap:butt;stroke-linejoin:round;stroke-miterlimit:10;stroke-opacity:.6" transform="rotate(-30 323.1 248.9)"/>
  <g style="fill:#633d63;fill-opacity:1" transform="rotate(330 349.6 241.8)">
    <use xlink:href="#p" y="230" x="328.4"/>
    <use xlink:href="#q" y="230" x="339"/>
    <use xlink:href="#r" y="230" x="349.6"/>
    <use xlink:href="#s" y="230" x="360.2"/>
    <use xlink:href="#s" y="244.8" x="328.4"/>
    <use xlink:href="#t" y="244.8" x="339"/>
    <use xlink:href="#u" y="244.8" x="349.6"/>
    <use xlink:href="#r" y="244.8" x="360.2"/>
    <use xlink:href="#v" y="259.6" x="333.7"/>
    <use xlink:href="#w" y="259.6" x="344.3"/>
    <use xlink:href="#x" y="259.6" x="354.9"/>
  </g>
  <path d="M3.7 2C3.7 3 3 3.7 2 3.7S.2 3 .2 2 1 .2 2 .2 3.7 1 3.7 2zm0 0" style="fill:#fdfdfa;fill-opacity:1;fill-rule:nonzero;stroke:#575747;stroke-width:.5;stroke-linecap:butt;stroke-linejoin:miter;stroke-miterlimit:4;stroke-opacity:1" transform="translate(326.3 194.5)"/>
  <path d="M320.3 183.6c-1 1.1-2.6 2.2-4.1 2.8l.6.6c1.5-.7 3.2-2 4.3-3.1zm1.9 4.8v-.8h-6.8v-4.2h-.8v4.2h-2.1v.8h2v3.6c.1.3-.1.5-.3.6l.3.7c.2-.2.5-.3 3.5-1v-1l-2.7.8v-3.7h1.8c1 2.3 2.5 3.9 4.7 4.7l.6-.8c-2-.6-3.6-2-4.4-3.9zm0 0" style="fill:none;stroke:#fff;stroke-width:3;stroke-linecap:butt;stroke-linejoin:round;stroke-miterlimit:10;stroke-opacity:.6" transform="rotate(330 330 196.5)"/>
  <path d="M326.4 192.3v-1.1h4v1.1zm4-1.7h-4.1v-1.1h4.1zm-.8-2.6.8.8h-4c.2-.2.5-.5.6-.8zm-.6-1.6.3.9h-1.9l.4-.9zm4.2 1.6v-.7h-3l-.4-.9h2.5v-.6H328l.3-.9h4.3v-.7h-4.2l.2-.8h-.9v.7H324v.9h3.5l-.3.8h-2.8v.6h2.6l-.5.9h-3v.7h2.5c-.6.9-1.6 1.7-2.8 2.3.2.1.5.4.5.6.7-.3 1.3-.7 1.9-1.2v3.7h.8v-.4h4v.3h.7v-3.6c.6.3 1.1.8 1.8 1l.6-.5c-1.1-.5-2-1.3-2.8-2.2zm0 0" style="fill:none;stroke:#fff;stroke-width:3;stroke-linecap:butt;stroke-linejoin:round;stroke-miterlimit:10;stroke-opacity:.6" transform="rotate(330 330 196.5)"/>
  <path d="M344.2 185.6v-.8h-4.5v-1.5h-.7v1.5h-4.6v.8h4.6v1.5h-3.5v5h.9v-4.3h2.5v5.6h.8V188h2.7v3c0 .2 0 .3-.2.3h-1.6l.2.7c1 0 1.6 0 2-.2.2-.1.4-.3.4-.8v-4h-3.5v-1.4zm0 0" style="fill:none;stroke:#fff;stroke-width:3;stroke-linecap:butt;stroke-linejoin:round;stroke-miterlimit:10;stroke-opacity:.6" transform="rotate(330 330 196.5)"/>
  <g style="fill:#212121;fill-opacity:1" transform="rotate(330 330 196.5)">
    <use xlink:href="#y" y="192.5" x="311.8"/>
    <use xlink:href="#z" y="192.5" x="322.8"/>
    <use xlink:href="#A" y="192.5" x="333.8"/>
  </g>
  <path d="M3.7 2C3.7 3 3 3.8 2 3.8S.2 3 .2 2 1 .3 2 .3 3.7 1 3.7 2zm0 0" style="fill:#fdfdfa;fill-opacity:1;fill-rule:nonzero;stroke:#575747;stroke-width:.5;stroke-linecap:butt;stroke-linejoin:miter;stroke-miterlimit:4;stroke-opacity:1" transform="translate(157.1 244.5)"/>
  <path d="M145.4 253v4.5h-1.2v-4.4zm.7-.6h-2.6v6.8h.7v-1h2zm7 4.1h-2.9v-4l2.5-.5-.5-.6c-1.3.4-3.6.6-5.5.8l.2.7 2.5-.3v3.9h-2.8v.8h2.8v2.9c0 .1 0 .2-.3.2h-1.5l.4.8c.9 0 1.4 0 1.8-.2.2 0 .4-.3.4-.8v-3h3zm-6-3c.3.8.7 1.9.8 2.6l.7-.1c0-.8-.5-2-.9-2.7zm4.4 2.7 1.2-2.8-.8-.4-.9 3zm0 0" style="fill:none;stroke:#fff;stroke-width:3;stroke-linecap:butt;stroke-linejoin:round;stroke-miterlimit:10;stroke-opacity:.6" transform="rotate(330 160.9 246.5)"/>
  <path d="m157.2 252.4 1.8-.4-.5-.7c-1 .4-2.7.7-4.2.9l.3.6 1.8-.2v1.8h-2.2v.8h2c-.5 1.3-1.4 2.8-2.2 3.7l.4.7c.7-.6 1.6-2 2-3.3v4.9h.8v-4.8l1.3 1.8.5-.6-1.8-2.2v-.2h1.9v-.8h-1.9zm3 6.6v-6h2.6v6zm-.6-6.8v8.5h.7v-.9h2.4v.9h.9v-8.5zm-.1 0" style="fill:none;stroke:#fff;stroke-width:3;stroke-linecap:butt;stroke-linejoin:round;stroke-miterlimit:10;stroke-opacity:.6" transform="rotate(330 160.9 246.5)"/>
  <path d="M168.2 252.6c-.4-.4-1.2-1-2-1.3l-.5.6 2 1.4zm-.6 2.8-2-1-.5.4 2 1.2zm-1.4 5.6 2-3.5-.6-.5-2 3.5zm7.5-3.1v2h-3.9V258zm-4.7 3.3h.8v-.5h4v.4h.7v-4H169zm3.2-5.8v-1.6h2.6v-.8h-2.6v-1.8h-.8v1.8h-1.6l.4-1.2-.8-.2c-.3 1.2-.8 2.4-1.4 3.2l.7.4.8-1.4h1.9v1.6H168v.8h7v-.8zm0 0" style="fill:none;stroke:#fff;stroke-width:3;stroke-linecap:butt;stroke-linejoin:round;stroke-miterlimit:10;stroke-opacity:.6" transform="rotate(330 160.9 246.5)"/>
  <path d="M153.1 272.6c.5.4 1.1 1.3 1.3 1.8l.7-.5c-.1-.5-.8-1.2-1.4-1.7zm5.5-2.8v-.8H156v-1.4h2.1v-.6H156v-1.3h-.9v1.3H153v.6h2v1.4h-2.7v.8h4.2v1.3h-3.8v-.6l-1.4.4v-2.2h1.2v-.8h-1.1v-2.2h-.8v2.3h-.8l.2-1.6-.7-.1c-.3 1.3-.4 2.7-.8 3.6l.6.4.5-1.6h1v2.4l-2 .6.2.7 1.8-.4v3.8h.8v-4.2l1.1-.3v.6h4v2.8c0 .3 0 .3-.2.3h-1.5l.3.8c.8 0 1.4 0 1.8-.2.3-.1.4-.4.4-.9V272h1.3v-1h-1.3v-1.2zm0 0" style="fill:none;stroke:#fff;stroke-width:3;stroke-linecap:butt;stroke-linejoin:round;stroke-miterlimit:10;stroke-opacity:.6" transform="rotate(330 160.9 246.5)"/>
  <path d="M169.6 268v-.8H165v-1.5h-.8v1.5h-4.5v.8h4.5v1.5h-3.3v4.9h.8v-4.1h2.5v5.5h.8v-5.5h2.7v3c0 .3 0 .4-.2.4h-1.6l.3.7c.8 0 1.5 0 1.8-.2.5-.1.6-.4.6-.8v-3.9H165V268zm0 0" style="fill:none;stroke:#fff;stroke-width:3;stroke-linecap:butt;stroke-linejoin:round;stroke-miterlimit:10;stroke-opacity:.6" transform="rotate(330 160.9 246.5)"/>
  <g style="fill:#212121;fill-opacity:1" transform="rotate(330 160.9 246.5)">
    <use xlink:href="#B" y="260.4" x="142.6"/>
    <use xlink:href="#C" y="260.4" x="153.6"/>
    <use xlink:href="#D" y="260.4" x="164.6"/>
    <use xlink:href="#E" y="274.9" x="148.1"/>
    <use xlink:href="#A" y="274.9" x="159.1"/>
  </g>
  <path d="M3.7 2C3.7 3 3 3.8 2 3.8S.2 3 .2 2 1 .3 2 .3 3.7 1 3.7 2zm0 0" style="fill:#fdfdfa;fill-opacity:1;fill-rule:nonzero;stroke:#575747;stroke-width:.5;stroke-linecap:butt;stroke-linejoin:miter;stroke-miterlimit:4;stroke-opacity:1" transform="translate(309 131.8)"/>
  <path d="M276.8 129.2c0 1-.2 2.1-1.8 3 .2-.1.5.2.7.4 1.8-.9 2-2.1 2-3.4V128h-.9zm4.6 3.5h.8V128h-.8zm0-8.3c-.4.6-1 1.3-1.8 1.6-1-.3-1.6-.9-2.2-1.6zm2.9 0v-.7h-4.4v-1h-1v.9h-4.2v.8h1.9c.4.8 1.3 1.5 2.2 2.1-1.2.6-2.8 1-4.4 1.2l.6.7c1.6-.4 3.2-.7 4.6-1.4 1.2.6 2.8 1 4.4 1.3l.5-.7c-1.5-.2-3-.6-4.2-1.1.9-.6 1.7-1.2 2.1-2.1zm0 0" style="fill:none;stroke:#fff;stroke-width:3;stroke-linecap:butt;stroke-linejoin:round;stroke-miterlimit:10;stroke-opacity:.6" transform="rotate(330 312.7 133.8)"/>
  <path d="M287.8 129.2c0 1-.2 2.1-1.8 3 .2-.1.5.2.7.4 1.8-.9 2-2.1 2-3.4V128h-.9zm4.6 3.5h.8V128h-.8zm0-8.3c-.4.6-1 1.3-1.8 1.6-1-.3-1.6-.9-2.2-1.6zm2.9 0v-.7h-4.4v-1h-1v.9h-4.2v.8h1.9c.4.8 1.3 1.5 2.2 2.1-1.2.6-2.8 1-4.4 1.2l.6.7c1.6-.4 3.2-.7 4.6-1.4 1.2.6 2.8 1 4.4 1.3l.5-.7c-1.5-.2-3-.6-4.2-1.1.9-.6 1.7-1.2 2.1-2.1zm0 0" style="fill:none;stroke:#fff;stroke-width:3;stroke-linecap:butt;stroke-linejoin:round;stroke-miterlimit:10;stroke-opacity:.6" transform="rotate(330 312.7 133.8)"/>
  <path d="M305 128.9v2.5h-3.5v-2.5zm-4.3 3.8h.8v-.7h3.5v.6h.8v-4.5h-5zm.7-6.7v1h3.6v-1zm-2.4 3h-1.4v-4.5h1.4zm3.7-6.2c-.5 1.1-1.6 2.5-2.7 3.2v-2.2h-3.2v6.9h.8v-1h2.3v-3.4l.3.6c1.3-.8 2.4-2.2 3-3.3.6 1.2 1.8 2.5 3 3.4 0-.4.3-.7.4-1-1.1-.6-2.3-2-3-3.2zm0 0" style="fill:none;stroke:#fff;stroke-width:3;stroke-linecap:butt;stroke-linejoin:round;stroke-miterlimit:10;stroke-opacity:.6" transform="rotate(330 312.7 133.8)"/>
  <path d="M287.9 141.8c-.5 1.2-1.4 2.5-2.3 3.2.2 0 .4.4.7.6 1-.9 1.8-2.2 2.4-3.6zm6.3-2c-.2.8-.6 1.4-1 1.8l.8.2c.5-.6 1-1.8 1.4-2.6l-.6-.2h-6.5l.8-1.5-.9-.5c-.6 1.8-1.7 3.4-2.8 4.4l.8.6 1.6-2.1h2.3v6.1l-.1.4h-1.8l.3.8c1 0 1.5 0 2-.2.3 0 .5-.3.5-.9V140zm-1.9 2.5c.9.9 1.8 2.4 2.2 3.3l.8-.4c-.3-1-1.3-2.3-2.2-3.4zm0-.1" style="fill:none;stroke:#fff;stroke-width:3;stroke-linecap:butt;stroke-linejoin:round;stroke-miterlimit:10;stroke-opacity:.6" transform="rotate(330 312.7 133.8)"/>
  <path d="M306.4 139.5v-.8h-4.6V137h-.8v1.7h-4.4v.8h4.4v1.4h-3.3v5.1h.8v-4.4h2.5v5.6h.8v-5.5h2.7v3.1c0 .2 0 .2-.2.2h-1.6l.3.8 1.9-.1c.4-.2.5-.4.5-.9V141h-3.6v-1.5zm0 0" style="fill:none;stroke:#fff;stroke-width:3;stroke-linecap:butt;stroke-linejoin:round;stroke-miterlimit:10;stroke-opacity:.6" transform="rotate(330 312.7 133.8)"/>
  <g style="fill:#212121;fill-opacity:1" transform="rotate(330 312.7 133.8)">
    <use xlink:href="#F" y="131.8" x="274"/>
    <use xlink:href="#F" y="131.8" x="285"/>
    <use xlink:href="#G" y="131.8" x="296"/>
    <use xlink:href="#H" y="146.4" x="285"/>
    <use xlink:href="#A" y="146.4" x="296"/>
  </g>
</svg>
