<svg xmlns="http://www.w3.org/2000/svg" xmlns:xlink="http://www.w3.org/1999/xlink" viewBox="0 0 497 279"> <defs>  <path d="M1 0v-7.1h4V0Zm.4-.5h3.1v-6.1h-3Zm.1 0" id="reuse-0"/> </defs> <defs overflow="visible" style="stroke:none">  <path id="D" d="M-.2 0 0-.6l3.3-4.1H1l.1-.7h3.3l-.2.7L1-.7h2.5V0Zm0 0"/>  <path id="C" d="M2.7 0c-.4 0-.7 0-.9-.1a2 2 0 0 1-.5-.7L.9 0H.3l1.6-7.6h.9l-.4 1.8-.2.7a52.9 52.9 0 0 1-.2.7 5 5 0 0 1 .9-.6c.2-.3.6-.5.9-.5.5 0 .8.2 1 .5.5.3.6.8.6 1.4-.1.5-.1 1-.3 1.4L4.6-1l-.8.8a2 2 0 0 1-1.1.3Zm0-.5.5-.5c.4 0 .6-.3.8-.6a4 4 0 0 0 .3-1 5 5 0 0 0 .1-.9c0-.9-.3-1.2-.9-1.2-.2 0-.4 0-.5.2l-.8.7-.4 1c-.2.3-.2.7-.2 1.1 0 .3 0 .6.2.8.2.2.5.3.8.3Zm-.1-.1"/>  <path id="B" d="M2.1-6.3h-.3l-.1-.5.1-.4.4-.2c.3 0 .5.2.5.5 0 .2 0 .4-.2.5l-.4.2ZM-.6 2.4l-.7-.1v-.7h.6c.4.1.7-.2.8-.9l1.3-6h.9L1 .8.5 2c-.3.3-.6.4-1.1.4Zm0 0"/>  <path id="A" d="M.4 0 2-7.1h1L2-3.7l.7-.6 2.7-2.8h1.1L3.5-4 5 0H4L2.7-3.5l-.7.7L1.3 0Zm0 0"/>  <path id="z" d="m.3 0 1.1-5.4h.7v1l.4-.5.5-.4.7-.2H4l.3.2-.2.7h-.5c-.3-.1-.6-.1-.9.2l-.7.9-.3 1L1.2 0Zm0 0"/>  <path id="y" d="M.4 0 2-7.1h1.5c.8 0 1.3.1 1.7.5.3.3.5.8.5 1.3 0 .8-.3 1.5-.8 1.9-.6.4-1.3.6-2.4.6H2L1.3 0ZM2-3.5h.7c.6 0 1.1-.2 1.5-.5.4-.2.6-.7.6-1.3 0-.2-.2-.5-.4-.7-.2-.3-.4-.4-1-.4h-.7Zm0 0"/>  <path id="x" d="M.8 0 .6-5.4h.8l.1 2.9v1.7a13.8 13.8 0 0 1 .5-1l.2-.5 1.4-3h1v2.7a25.5 25.5 0 0 1 .2 1.8l.3-.9.4-1 1.2-2.7h1L5 0h-.9l-.2-3v-1.4l-.3.6-.4.8-1.4 3Zm0 0"/>  <path id="w" d="M2 0c-.6 0-.9 0-1.2-.3C.6-.7.5-1 .5-1.7c0-.5 0-1 .2-1.5l.5-1.1c.2-.4.5-.7.8-.9a2 2 0 0 1 1.1-.3c.4 0 .6.1.9.3l.5.7.3-.9h.7L4.4 0h-.7l.1-1c-.3.3-.5.6-.9.8-.3.2-.6.2-.9.2Zm.1-.5c.4-.1.6-.2.9-.5l.6-.6a4 4 0 0 0 .4-1 3 3 0 0 0 .1-.7 4 4 0 0 0 0-.4c.1-.3.1-.5-.1-.7-.3-.2-.5-.3-.8-.3-.3 0-.5 0-.7.2a2 2 0 0 0-.6.7l-.4 1-.1 1.1c0 .4 0 .6.2.8.1.2.3.3.6.3Zm.1-.1"/>  <path id="v" d="M2.5 0C1.9 0 1.4 0 1-.3.7-.7.5-1.2.5-2c0-.4 0-1 .2-1.3l.5-1c.3-.5.6-.7 1-1 .2-.1.6-.2.9-.2l.9.1.6.2-.2.7-.5-.1-.6-.1c-.4 0-.7.1-1 .4-.3.2-.5.6-.7 1A4 4 0 0 0 1.4-2c0 .5 0 .8.3 1 .2.2.5.3.9.3h.6a7 7 0 0 0 .6-.3v.8l-.6.2h-.7Zm0 0"/>  <path id="u" d="m.3 0 .6-2.8-.6.3-.3-.6 1-.6 1-3.9h.8L2-4.3l.7-.3.2.5-.9.6L1.2 0Zm0 0"/>  <path id="t" d="M1.4 0 1-7.1h1v6a25.3 25.3 0 0 1 .9-1.8l1.9-4.2h.9L5.9-3v2l.5-1 .2-.7 1.9-4.4h1L6.1 0h-.9v-4.6A35 35 0 0 1 5-6l-.3.6-.2.8L2.3 0Zm0 0"/>  <path id="s" d="M.3-2.3.4-3h2.4l-.2.7Zm0 0"/>  <path id="r" d="m.3 0 1.6-7.6h.9l-.8 3c.1.6 0 1-.2 1.3l-.1.5 2.5-2.6h1L3-3l1.4 3h-1L2.3-2.5l-.7.5-.4 2Zm0 0"/>  <path id="q" d="m.2 0 1.2-5.4h.8l-.2 1 .5-.6a2 2 0 0 1 .6-.3l.9-.2c.3 0 .6.1.9.5.1 0 .4.4.4.9v.4l-.2.5L4.4 0h-.9l.7-3.4v-.4l.2-.2c-.1-.5-.3-.7-.8-.7-.2 0-.4 0-.6.2-.3.2-.6.5-.8.8-.2.3-.4.8-.5 1.4L1.2 0Zm3-6v-.3l.2-.3a16.8 16.8 0 0 0 .8-1h1c0 .2-.2.3-.4.6l-.6.5a6 6 0 0 1-.5.4Zm-.1 0"/>  <path id="p" d="M2.1-6.3h-.3l-.1-.5.1-.4.4-.2c.3 0 .5.2.5.5 0 .2 0 .4-.2.5l-.4.2ZM.3 0l1.1-5.4h.9L1.2 0Zm0 0"/>  <path id="o" d="m.2 0 1.2-5.4h.8l-.2 1 .5-.6a2 2 0 0 1 .6-.3l.9-.2c.3 0 .6.1.9.5.1 0 .4.4.4.9v.4l-.2.5L4.4 0h-.9l.7-3.4v-.4l.2-.2c-.1-.5-.3-.7-.8-.7-.2 0-.4 0-.6.2-.3.2-.6.5-.8.8-.2.3-.4.8-.5 1.4L1.2 0Zm0 0"/>  <path id="n" d="M-.3 2.4h-.3l-.4-.1v-.7h.7c.3.1.5.1.7-.1.2-.2.4-.5.5-.8l.4-.6-.8-5.5h.9l.3 2.7v.7l.2.7v.6A28.4 28.4 0 0 1 2.5-2c-.1 0 .1-.3.2-.4l1.5-3h1L1.7 1c-.1.4-.4.8-.7 1-.4.3-.8.4-1.2.4Zm0 0"/>  <path id="m" d="M1.8 0c-.3 0-.6 0-.8-.1C.7-.3.6-.6.6-1v-.8l.8-2.9h-1L.5-5l1-.5.5-1h.6l-.3 1h1.3l-.1.8H2.2l-.7 3v.8l.5.3h.3l.4-.3V0h-.9Zm0 0"/>  <path id="l" d="M1.5 0H.7L0-.2V-1l.7.3h.8c.5.1.7.1 1-.1l.1-.7c.1-.1.1-.3-.1-.4 0-.2-.3-.3-.7-.5L1-3.1c-.2-.2-.3-.5-.3-.8 0-.5.1-.9.5-1.1.3-.3.7-.5 1.3-.5.3 0 .6 0 .9.2l.6.2-.2.7-.5-.2-.8-.1c-.3 0-.5 0-.7.2-.2.1-.2.3-.2.5l.1.5.7.5c.3 0 .6.2.6.4.2 0 .4.2.5.4l.1.7c0 .5-.2 1-.5 1.2C2.7 0 2 0 1.5 0Zm0 0"/>  <path id="k" d="M2.5 0C1.9 0 1.4 0 1-.4.7-.8.5-1.3.5-2l.1-1.2a4 4 0 0 1 .5-1.1c.3-.3.5-.7.9-.8.3-.2.7-.3 1.2-.3.6 0 1 .2 1.4.4.4.5.6 1.1.6 1.6L5-2a4 4 0 0 1-.5.9c-.2.5-.5.8-.8 1L2.5 0Zm0-.6c.5-.1.6-.1 1-.4.1-.2.3-.5.5-1 .2-.3.3-.8.3-1.4L4.2-4a1 1 0 0 0-.4-.5l-.6-.2c-.4 0-.7.1-1 .4-.2.2-.5.6-.6 1A4 4 0 0 0 1.4-2c0 .5 0 .8.3 1 .2.2.5.3.8.3Zm0-.1"/>  <path id="j" d="M3.4 0c-.8 0-1.4 0-2-.5C1-1.1.7-1.7.7-2.6A6 6 0 0 1 1-4.4c.2-.6.4-1 .8-1.6.2-.3.7-.6 1.2-.9.5-.1 1-.3 1.6-.3h1.1l1 .5-.5.7a7.8 7.8 0 0 0-.7-.3l-1-.2c-.5 0-.9.2-1.3.5-.6.4-.9.8-1.2 1.4a4.8 4.8 0 0 0-.4 2c.1.2.1.6.3.9 0 .4.3.6.6.7l1 .3h.7l.5-.3.6-1.9H3.8l.2-1h2.3L5.5-.3a8 8 0 0 1-1 .3h-.9Zm0 0"/>  <use xlink:href="#reuse-0"/>  <path id="i" d="M3-5.5c.3 0 .7.1 1 .3a2 2 0 0 1 1 .9v1.8H1.5c0 .5.1 1 .4 1.4.3.3.7.4 1.3.4H4l.9-.3v.8L4 0a5 5 0 0 1-1 0 3 3 0 0 1-1.2-.1 2.2 2.2 0 0 1-1-1.1c0-.2-.2-.8-.2-1.3-.1-.7 0-1.2.2-1.6.2-.5.5-.9.9-1 .3-.2.7-.4 1.2-.4Zm0 .8c-.6 0-.9.1-1 .4-.4.2-.6.6-.6 1.1h2.8c0-.5-.1-.8-.3-1.1-.2-.3-.5-.4-1-.4Zm0 0"/>  <path id="h" d="m5.2 0-.9-3A18 18 0 0 1 4-4.5 34.3 34.3 0 0 1 3.5-3l-1 3h-.9L.2-5.4h.9l.6 2.9A40 40 0 0 1 2-1l.3-.3.1-.5a6 6 0 0 1 .1-.5l1-3h1l.7 2.9.3.8.2.6.3-.6v-1l.8-2.7h1L6.3 0Zm0 0"/>  <path id="g" d="M2.9-5.5c.6 0 1.1.2 1.4.5.3.3.5.7.5 1.3V0h-.6L4-.8c-.3.3-.5.6-.8.8h-1c-.5 0-1 0-1.3-.3C.6-.5.5-.9.5-1.5c0-.5.2-1 .5-1.2.5-.3 1-.5 2-.5h.8v-.3c.2-.5.2-.8-.2-1l-.8-.2H2l-.7.5L1-5l1-.3.9-.2Zm1 2.9h-.8c-.6 0-1 .1-1.4.3-.1.3-.3.5-.3.8 0 .3 0 .5.2.7l.7.2c.5 0 .9-.1 1.2-.4.3-.2.4-.6.4-1Zm.1 0"/>  <path id="f" d="M9.2-7.1 7.2 0h-.7L5-4.7a30.2 30.2 0 0 1-.3-1v-.5l-.3.7-.1.8L2.9 0H2L.1-7.1h1L2-2.8c.4.3.4.6.5 1v.6A10.5 10.5 0 0 1 3-2.8l1.2-4.3H5l1.4 4.3.2 1 .2.6.1-.7.2-.9 1.1-4.3Zm0 0"/>  <path id="e" d="M1.7-7.6v4.8L2-3v-.3l.4-.2L4-5.4h1L2.9-3l2.4 3H4.2L2.3-2.5l-.6.5v2H.8v-7.6Zm0 0"/>  <path id="d" d="M3 0c-.5 0-.9 0-1.3-.1-.3-.3-.6-.6-.7-.9-.4-.5-.5-1-.5-1.7 0-.6.2-1.1.5-1.5 0-.6.4-.8.8-1.1.2-.1.8-.2 1.2-.2l.8.1.7.2-.3.8-.6-.2H3c-1-.1-1.5.6-1.5 1.9 0 .7 0 1 .3 1.4.3.5.7.6 1.2.6h.8l.6-.3v.8a2 2 0 0 1-.6.2H3Zm0 0"/>  <path id="c" d="M5.5-2.7c0 .9-.2 1.7-.7 2-.4.7-1 .9-1.8.9-.5-.2-.9-.2-1.3-.4-.3-.2-.6-.6-.7-1C.6-1.6.5-2 .5-2.7c0-.9.3-1.6.7-2 .5-.5 1-.8 1.8-.8.5 0 1 .2 1.3.5.4 0 .7.4.9.9.2.2.3.7.3 1.3Zm-4 0c0 .7 0 1.2.3 1.5.3.4.7.6 1.2.6.6 0 1-.2 1.2-.6.3-.3.4-.8.4-1.5s-.1-1.1-.4-1.5c-.2-.3-.6-.5-1.2-.5-.5 0-1 .2-1.2.5-.2.4-.3.9-.3 1.5Zm0 0"/>  <path id="b" d="M.8 0v-2.8l-.5.3-.4-.6.9-.6v-3.9h.9v3.3l.6-.4.4.7-1 .6V0Zm0 0"/>  <path id="a" d="M2.9-7.1c.9 0 1.6.1 2 .5.4.4.6.9.6 1.6 0 .4 0 .7-.2 1-.3.5-.5.8-1 1l-1.5.1h-.9V0h-1v-7.1Zm-.1.7h-1v2.9h.9c.6 0 1.1-.2 1.3-.5.4 0 .6-.5.6-1s-.1-.8-.4-1c-.3-.3-.8-.4-1.4-.4Zm0 0"/>  <use xlink:href="#reuse-0"/> </defs> <image xlink:href="svg/9/0_14.jpg" width="497" height="279"/> <path d="M194.7 254.6c1 0 1.6.2 2 .6.6.3.8.8.8 1.5-.1.4-.1.8-.4 1.1-.1.4-.4.6-.9.9-.4.2-1 .3-1.7.3h-.8v2.8h-.9v-7.2zm0 .8h-1.1v2.8h.8c.7 0 1.2-.1 1.6-.2.3-.3.5-.7.5-1.2s-.2-.8-.5-1c-.3-.4-.7-.5-1.4-.5zM198.7 261.8v-2.9l-.5.3-.4-.6.9-.5V254h.9v3.6l.6-.5.4.6-1 .6v3.5zm7.3-2.8c0 1-.2 1.7-.7 2.2-.3.4-1 .6-1.8.6-.5 0-.9 0-1.3-.3-.2-.2-.6-.5-.9-1-.2-.2-.3-.7-.3-1.3 0-1.2.3-1.7.7-2.2.5-.6 1-.8 1.8-.8.5.1 1 .2 1.3.4.4.2.7.6.9 1 .2.4.3.9.3 1.4zm-4 0c0 .8 0 1.3.2 1.7.4.2.8.3 1.3.3.6.1 1 0 1.2-.4.3-.4.4-.9.4-1.6-.1-.6-.1-1.1-.4-1.4-.2-.4-.6-.6-1.2-.6-.5 0-1 .2-1.2.6-.2.3-.3.8-.3 1.4zm7.5 2.8c-.4 0-.9 0-1.2-.2-.4-.2-.7-.6-1-1l-.1-1.4c-.2-.8-.2-1.3.2-1.7.2-.4.6-.7.9-.9.4-.2.8-.3 1.3-.3h.8l.6.4-.3.6-.5-.2h-.6c-1-.1-1.6.6-1.6 1.9 0 .7 0 1.2.4 1.6.2.3.6.4 1.1.4h.8l.6-.2v.8a2 2 0 0 1-.6.2h-.8zm3.5-7.6v4.8l.3-.2.2-.3.2-.3 1.7-1.8h1l-2.1 2.3 2.3 3h-1l-2.1-2.3-.3.4v2H212v-7.6zm0 0" style="fill:none;stroke:#fff;stroke-width:3;stroke-linecap:butt;stroke-linejoin:round;stroke-miterlimit:10;stroke-opacity:.6" transform=" rotate(  340 204.622 258.754) "/> <g style="fill:#212121;fill-opacity:1" transform=" rotate(  340 204.622 258.754) ">  <use xlink:href="#a" x="191.9" y="261.8"/>  <use xlink:href="#b" x="197.9" y="261.8"/>  <use xlink:href="#c" x="200.5" y="261.8"/>  <use xlink:href="#d" x="206.5" y="261.8"/>  <use xlink:href="#e" x="211.3" y="261.8"/> </g> <path d="m63.8 217.3-1.8 7.2h-1l-1.4-4.7-.1-.6-.2-.5v-.3l-.3.5v1.1l-1.4 4.4h-1l-1.7-7.1h.8l1.1 4.4.2 1 .2.6a10.5 10.5 0 0 1 .3-1.6l1.3-4.4h1l1.2 4.4.3.9.1.8.2-.8c0-.3 0-.6.2-1l1-4.2Zm.9 7.2v-2.9l-.5.4-.4-.6 1-.6v-4h.7v3.5l.7-.5.4.6-1 .6v3.5zm7.3-2.7c0 .9-.2 1.6-.7 2-.3.6-1 .9-1.8.9-.4-.1-.9-.2-1.2-.4l-1-1-.1-1.5c-.2-.9.1-1.6.5-2 .5-.6 1-.8 1.9-.8.4 0 .9.1 1.2.4.4.2.7.5 1 .9l.2 1.5zm-4 0c0 .6 0 1.1.3 1.5.3.4.7.7 1.3.7.4-.1.9-.3 1.1-.7.3-.3.4-.9.4-1.5s-.1-1.1-.4-1.5c-.2-.3-.6-.5-1.2-.5-.5 0-.9.1-1.2.5-.2.4-.3.9-.3 1.5zm7.6 2.8c-.6 0-1-.1-1.3-.3-.4-.3-.7-.5-.9-1-.2-.3-.3-.7-.3-1.4s.1-1.3.3-1.7c.3-.4.6-.7 1-.9.2-.2.7-.3 1.1-.3l.9.1.6.2-.2.7h-.6l-.6-.2c-1 0-1.6.7-1.6 2 0 .7.2 1.2.4 1.5.3.4.7.5 1.2.5h.7l.7-.4v.9a2 2 0 0 1-.6.2h-.8zm2.6-.1v-2.9l-.6.4-.3-.6.9-.6v-4h.8v3.5l.7-.5.3.6-1 .6v3.5zm4.6-5.5c.7 0 1.2.2 1.5.5.3.2.4.7.4 1.3v3.7h-.6l-.1-.8-.8.7-1 .2c-.7 0-1.1-.2-1.4-.4-.2-.3-.4-.7-.4-1.2s.2-1 .6-1.2c.5-.3 1.1-.5 2-.5h.9v-.5c0-.3-.1-.6-.3-.8-.2-.2-.6-.3-.8-.3-.3 0-.6 0-.8.3-.3-.1-.5 0-.7.2l-.3-.7.8-.3 1-.2zm1 3h-.6c-.8-.1-1.2 0-1.5.2-.3.2-.4.5-.4.8 0 .3.1.5.3.7l.7.2c.5 0 .7-.2 1.1-.4.3-.3.6-.6.6-1.2zm7 2.5-1-3a18 18 0 0 1-.2-1.5 34.3 34.3 0 0 1-.6 1.5l-.9 3h-1l-1.4-5.5h.9l.7 3 .2.8.2.8.1-.4.1-.6a6 6 0 0 1 .2-.5l.9-3h1l1 3v.9l.3.6.1-.7.3-1 .7-2.7h1l-1.7 5.3zm5.5-5.5c.5 0 .9.1 1.2.3a2 2 0 0 1 .8.9c.2.3.2.8.2 1.2v.6H95c-.1.6 0 1 .3 1.4.3.3.8.4 1.3.4h.9l.8-.4v.8l-.8.3a5 5 0 0 1-1 0 3 3 0 0 1-1.3-.1 2.2 2.2 0 0 1-.9-1.1c-.2-.3-.3-.8-.3-1.4 0-.6 0-1.1.3-1.6.2-.3.4-.7.7-1 .4-.1.9-.3 1.3-.3zm0 .7c-.3 0-.7.3-1 .5-.2.2-.3.6-.3 1h2.6c0-.3 0-.7-.3-.9-.2-.4-.5-.6-1-.6zm4.5-2.8v4.8l.2-.2.2-.3.2-.3 1.7-1.8h1l-2.1 2.3 2.3 3h-1l-2-2.4-.4.5v2h-1v-7.6zm0 0" style="fill:none;stroke:#fff;stroke-width:3;stroke-linecap:butt;stroke-linejoin:round;stroke-miterlimit:10;stroke-opacity:.6" transform=" rotate(  340 81.5011 221.482) "/> <g style="fill:#212121;fill-opacity:1" transform=" rotate(  340 81.5011 221.482) ">  <use xlink:href="#f" x="54.6" y="224.5"/>  <use xlink:href="#b" x="63.9" y="224.5"/>  <use xlink:href="#c" x="66.5" y="224.5"/>  <use xlink:href="#d" x="72.6" y="224.5"/>  <use xlink:href="#b" x="77.4" y="224.5"/>  <use xlink:href="#g" x="80" y="224.5"/>  <use xlink:href="#h" x="85.6" y="224.5"/>  <use xlink:href="#i" x="93.4" y="224.5"/>  <use xlink:href="#e" x="99.1" y="224.5"/> </g> <path d="M117.6 251.2c-.9 0-1.6-.2-2-.7-.6-.4-.7-1.1-.7-2a6 6 0 0 1 .1-1.8l1-1.5 1.2-1c.4-.2 1-.2 1.5-.2h1.3l.8.3-.3.8a7.8 7.8 0 0 0-.8-.3l-1-.1c-.5 0-1 .2-1.5.5-.4.3-.7.8-1 1.3a4.8 4.8 0 0 0-.4 2c0 .4 0 .7.2 1 .1.3.4.5.6.7.4.2.6.2 1 .2h.9l.4-.1.5-2.1H118v-.8h2.4l-.7 3.5a8 8 0 0 1-1 .1l-1.1.2zm5.8 0c-.6 0-1.1-.2-1.4-.5-.4-.4-.6-1-.6-1.5s0-.9.2-1.3a4 4 0 0 1 .4-.9c.3-.6.6-.9.9-1l1.2-.3c.6 0 1.1.2 1.5.6.3.3.4.7.4 1.5 0 .4 0 .8-.1 1.2a4 4 0 0 1-.5 1.1l-.8.9c-.3.1-.7.2-1.2.2zm0-.7c.5 0 .8-.1 1.1-.3l.5-1 .2-1.5-.1-.7a1 1 0 0 0-.4-.4l-.6-.2c-.4 0-.7.2-1 .4l-.5 1a4 4 0 0 0-.3 1.4c0 .4.1.7.3 1 .2.2.5.3.9.3zM128.1 251.2h-.8l-.7-.4v-.7l.7.3.7.1c.5 0 .8 0 1-.2l.3-.6c0-.2 0-.4-.2-.5l-.7-.5c-.4-.2-.7-.4-.9-.7-.2-.2-.2-.5-.2-.8 0-.5.1-.8.4-1 .4-.5.8-.6 1.4-.6h.9c.2.4.5.4.7.4l-.3.7-.6-.2h-1.4c-.2.3-.4.5-.4.7.1.1.1.3.3.4l.7.5.6.4.4.4.2.7c0 .4-.2 1-.6 1.2-.3.3-.9.4-1.5.4zm4.6 0c-.3 0-.6 0-.9-.2-.2-.2-.4-.5-.4-1l.1-.5.7-3.1h-.9l.1-.4 1-.3.4-1.1h.6l-.2 1.2h1.3l-.1.6H133l-.6 3v1l.6.1h.2l.4-.1v.6h-.4a2 2 0 0 1-.5.3zm1.3 2.3h-.7v-.9h.3l.3.3c.3-.1.5-.1.7-.3.2-.2.4-.4.5-.8l.4-.6-.8-5.4h.9l.3 2.6v.7l.1.9v.4a28.7 28.7 0 0 1 .7-1.1l.2-.6 1.5-3h1L136 252c-.3.5-.6 1-1 1.2-.2.2-.6.3-1 .3zm5.1-2.4 1.2-5.4h.7l-.1 1 .5-.5a2 2 0 0 1 .6-.4l.8-.1c.4 0 .7 0 1 .3.2.2.2.6.2 1v.9l-.8 3.1h-.9l.9-3.2v-.8c0-.3-.2-.6-.6-.6l-.8.3-.7.7c-.2.4-.4.8-.5 1.4l-.6 2.3zm7.7-6.2-.4-.1v-.8c.3-.2.4-.2.6-.2.2 0 .4.1.4.4 0 .2 0 .4-.2.5l-.4.3zm-1.9 6.1 1.2-5.2h.9l-1.2 5.2zm2.6.1 1.1-5.4h.8v1l.3-.5a2 2 0 0 1 .7-.4l.6-.1c.6 0 1 0 1.1.3.3.2.4.6.4 1v.5l-.1.4-.7 3.1h-1l.8-3.2v-.8c.1-.3-.1-.6-.5-.6-.3 0-.6.1-.8.3-.3.1-.5.3-.8.7l-.4 1.4-.6 2.3zm2.9-6v-.2l.3-.4.4-.5.4-.5h1l-.5.5-.5.6a6 6 0 0 1-.6.5zM154.6 251.2h-.9l-.6-.4v-.7l.6.3.9.1c.3 0 .6 0 .9-.2l.3-.6-.2-.5-.7-.5c-.4-.2-.7-.4-.9-.7-.2-.2-.3-.5-.3-.8 0-.5.3-.8.5-1 .3-.5.8-.6 1.3-.6h1c.1.4.5.4.6.4l-.2.7-.6-.2H155c-.3.3-.4.5-.4.7 0 .1 0 .3.2.4l.7.5.5.4.5.4.2.7c0 .4-.2 1-.7 1.2-.3.3-.8.4-1.4.4zm3-.1 1.6-7.6h1l-.8 3-.2 1.4-.2.5 2.6-2.6h1l-2.3 2.2 1.4 3h-1l-.9-2.4-1 .6-.3 2zm7 .1c-.6 0-1.1-.2-1.6-.5-.2-.4-.4-1-.4-1.5s0-.9.2-1.3a4 4 0 0 1 .4-.9l1-1c.2-.2.6-.3 1.1-.3.6 0 1 .2 1.4.6.4.3.6.7.6 1.5 0 .4 0 .8-.3 1.2a4 4 0 0 1-.4 1.1l-.8.9-1.2.2zm0-.7c.4 0 .7-.1 1-.3l.4-1c.3-.4.4-1 .4-1.5l-.1-.7a1 1 0 0 0-.4-.4l-.6-.2c-.4 0-.7.2-1 .4-.2.3-.5.6-.6 1a4 4 0 0 0-.2 1.4c0 .4 0 .7.3 1 .2.2.5.3.8.3zm3.4-1.6.2-.9h2.3l-.1.9zM119.6 263l-.3-7h.7l.3 4.2v1.8a25.2 25.2 0 0 1 .7-2l2-4h.9l.1 4.1v1.9l.6-.8.2-1 1.9-4.2h1l-3.4 7.1h-.9v-4.6a35.1 35.1 0 0 1-.1-1.5h-.2l-.2.7-.3.8-2.1 4.6zm7.4 0 .6-2.7-.5.3-.3-.6 1-.6.8-4h1l-.9 3.5.7-.4.3.5-1 .6-.9 3.5zm4.8.2c-.6 0-1.1-.2-1.5-.6-.3-.4-.5-.9-.5-1.5 0-.4 0-.8.2-1.2a4 4 0 0 1 .5-1.1c.2-.4.5-.6.8-.8.4-.3.8-.4 1.2-.4.5 0 1.1.2 1.5.6.3.4.5.9.5 1.5 0 .4 0 .8-.2 1.3a4 4 0 0 1-.5 1c-.2.4-.5.7-.8 1-.3 0-.7.2-1.2.2zm0-.8c.5 0 .8 0 1.1-.3l.4-1.1.3-1.4-.1-.6a1 1 0 0 0-.5-.4c0-.2-.2-.2-.5-.2-.4 0-.7.1-1 .4l-.5 1a4 4 0 0 0-.3 1.2c0 .5.1 1 .3 1.1.2.2.5.3.9.3zm5.6.8c-.6 0-1-.2-1.4-.5-.4-.4-.6-.9-.6-1.5l.2-1.4.6-1.1c.2-.3.5-.7.9-.8.3-.2.7-.3 1.1-.3l.8.1.6.2-.3.7-.5-.2h-.5c-.4 0-.8 0-1 .4-.3.2-.7.5-.8 1a4 4 0 0 0-.2 1.4c0 .4.1.7.3 1 .4 0 .6.2 1 .2h.5a7 7 0 0 0 .7-.4v1h-1.4zm2.4-.2.6-2.7-.6.3-.3-.6 1-.6.9-4h.9l-.7 3.5.4-.4.4.5-1 .6-.8 3.5zm4.2.2c-.4 0-.8-.2-1-.5-.3-.3-.4-.7-.4-1.4l.1-1.3.6-1.3.7-.7a2 2 0 0 1 1.1-.4c.5 0 .8.1 1.1.4l.2.5.6-.8h.6l-1.2 5.4h-.7l.3-1.1-1 .9c-.3.1-.6.3-1 .3zm.3-.7c.2 0 .5-.1.7-.3l.7-.7a4 4 0 0 0 .3-1 3 3 0 0 0 .2-.7 4 4 0 0 0 0-.4c0-.3 0-.4-.2-.7-.2-.2-.4-.3-.7-.3-.3 0-.5 0-.7.2a2 2 0 0 0-.6.7l-.4 1-.2 1c0 .5.1.7.3 1 .1.1.3.2.6.2zm4.3.5-.3-5.2h.9v4.5a13.8 13.8 0 0 1 .6-1l.1-.7 1.4-2.8h1l.1 2.8a25 25 0 0 1 0 1.7c.3-.2.4-.6.5-.9l.4-1 1.1-2.8h1l-2.5 5.5h-1l-.3-3.1v-1.3l-.4.5-.2.9-1.4 2.9zm7.9.2-.8-.2c-.3 0-.5-.1-.7-.2v-.8l.7.3.8.2c.4 0 .7-.1 1-.3l.1-.6c.1-.2.1-.3-.1-.5l-.7-.5-.8-.6c-.2-.2-.3-.5-.3-1s.1-.7.5-.9c.3-.4.7-.6 1.3-.6l.9.2.6.3-.2.7-.6-.2-.7-.1c-.3 0-.5 0-.7.2-.2.1-.3.3-.3.4l.2.5c.1.2.4.3.7.5l.6.4.5.6.1.5c0 .6-.2 1-.6 1.3-.3.2-.8.4-1.5.4zm3.1-.2 1.6-7.4h.8l-.6 2.9c0 .5-.2 1-.3 1.2l-.1.6 2.5-2.6h1l-2.1 2.3 1.3 3h-1l-1.1-2.3-.7.3-.4 2.1zm6.8-6.2-.4-.1v-.8l.6-.2c.2 0 .4.3.4.5l-.2.5-.4.1zm-1.9 6.3 1.2-5.4h.9l-1.2 5.4zM101.3 275l1.5-7h1.6c.8-.1 1.4 0 1.7.4.3.3.5.8.5 1.3 0 .9-.3 1.5-.8 1.9-.6.4-1.3.6-2.4.6h-.6l-.6 2.8zm1.7-3.5h.6c.6 0 1.1-.2 1.4-.5.5-.2.7-.6.7-1.2 0-.4-.1-.8-.4-.9-.2-.2-.5-.3-1-.3h-.7zm5.5 3.6c-.4 0-.8-.1-1-.4-.3-.4-.5-.8-.5-1.4 0-.5 0-1 .3-1.4 0-.5.3-.9.5-1.2.2-.4.5-.7.8-.8a2 2 0 0 1 1-.3c.4 0 .8 0 1.1.2l.3.7h.1l.3-.8h.7l-1.2 5.3h-.7l.2-1-1 .8c-.2.2-.4.3-.9.3zm.3-.7c.3 0 .5 0 .7-.4l.7-.6a4 4 0 0 0 .4-1 3 3 0 0 0 .1-.6 4 4 0 0 0 0-.4c0-.4 0-.6-.2-.8-.2-.2-.5-.3-.7-.3-.3 0-.5 0-.8.3a2 2 0 0 0-.5.6l-.5 1v1.1c0 .4 0 .7.2.8.1.2.3.3.6.3zm3.7.6 1.2-5.3h.7l-.1 1 .5-.7.5-.3.7-.1h.6l-.2.8h-.5c-.4 0-.7 0-1 .3l-.5.8-.4 1-.6 2.5zm4 0 1.6-7.6h1l-.8 3-.3 1.3-.1.6 2.5-2.6h1l-2.1 2.3 1.3 3h-1l-1-2.5-.9.6-.3 1.9zm7.7 0 1.5-7h1l-.9 3.3.7-.6 2.7-2.8h1.1l-3.1 3.1 1.7 4h-1l-1.4-3.4-.8.6-.6 2.8zm5.5 0 1.1-5.3h.8l-.2 1 .6-.7.4-.3.7-.1h.6l-.2.8h-.5c-.3 0-.6 0-.9.3-.1.2-.5.5-.6.8l-.5 1-.4 2.5zm5.4.1c-.4 0-.7-.1-1-.4-.3-.4-.4-.8-.4-1.4 0-.5 0-1 .2-1.4l.5-1.2c.2-.4.6-.7.8-.8a2 2 0 0 1 1.1-.3c.4 0 .6 0 .9.2l.4.7h.1l.3-.8h.7l-1.1 5.3h-.8l.2-1-1 .8c-.2.2-.5.3-.9.3zm.3-.7c.3 0 .6 0 .7-.4l.7-.6a4 4 0 0 0 .4-1 3 3 0 0 0 .1-.6 4 4 0 0 0 0-.4c0-.4 0-.6-.2-.8-.2-.2-.4-.3-.7-.3-.4 0-.5 0-.7.3a2 2 0 0 0-.7.6l-.3 1-.1 1.1c0 .4 0 .7.2.8.1.2.2.3.6.3zm5.6-5.6c-.1 0-.3 0-.3-.2l-.2-.3c0-.2 0-.3.2-.5l.3-.1c.4 0 .6.1.6.3l-.2.6-.4.2zm-2.8 8.6h-.6v-.9h.6c.4.2.7 0 .8-.7l1.3-6.1h.9l-1.3 6c-.2.7-.3 1.1-.6 1.3-.2.3-.6.4-1 .4zm5.8-2.3c-.8 0-1.3-.2-1.6-.5-.4-.4-.5-1-.5-1.6.1-.4.1-.8.2-1.2a4 4 0 0 1 .5-1l.8-1.1h1.2c.6-.1 1.1.1 1.5.3.3.5.5 1.1.5 1.7 0 .3 0 .8-.2 1.2a4 4 0 0 1-.4 1c-.3.5-.6.8-.9 1-.3.1-.7.2-1.1.2zm0-.7c.3 0 .6-.1.9-.4l.6-1 .2-1.3v-.7a1 1 0 0 0-.5-.5l-.6-.2c-.3 0-.6.1-1 .4l-.6 1a4 4 0 0 0-.2 1.3c0 .5.2.8.3 1 .2.2.5.3.9.3zm5.8.7c-.4 0-.8 0-1-.3a2 2 0 0 1-.3-.6l-.5.8h-.6l1.6-7.6h.8l-.3 1.8-.2.8a53.2 53.2 0 0 1-.2.7 5 5 0 0 1 .9-.8c.2-.2.5-.3 1-.3s.7.1 1 .4c.3.3.5.8.5 1.4-.1.5-.1 1-.3 1.4l-.5 1.2-.8.8a2 2 0 0 1-1.1.3zm0-.7c.2 0 .3 0 .5-.4.4 0 .5-.3.7-.5a4 4 0 0 0 .4-1 5 5 0 0 0 0-1.1c.1-.7-.1-1.1-.7-1.1-.3 0-.5 0-.7.3-.3.1-.5.3-.7.6l-.5 1-.1 1.1c0 .3 0 .7.2.8.2.2.5.3.8.3zm3.4.6 1-5.3h.8v1l.4-.7.5-.3.7-.1h.6l-.2.8h-.5c-.5 0-.7 0-1 .3l-.5.8-.4 1-.6 2.5zm5.4.1c-.4 0-.8-.1-1-.4-.4-.4-.6-.8-.6-1.4l.3-1.4c.2-.5.3-.9.7-1.2 0-.4.4-.7.7-.8a2 2 0 0 1 1-.3c.5 0 .8 0 1.1.2l.2.7.6-.8h.6L161 275h-.7l.1-1-.8.8c-.3.2-.6.3-1 .3zm.3-.7c.1 0 .5 0 .7-.4l.6-.6a4 4 0 0 0 .5-1 3 3 0 0 0 0-.6 4 4 0 0 0 .2-.4c-.1-.4-.1-.6-.4-.8-.1-.2-.4-.3-.5-.3-.4 0-.6 0-1 .3a2 2 0 0 0-.4.6l-.4 1-.2 1.1.2.8c.2.2.4.3.8.3zm3.3.6.1-.6 3.3-4h-2.3l.2-.8h3.2l-.1.8-3.3 4h2.7l-.3.6zm7.1.1c-.7 0-1.3-.2-1.5-.5-.4-.4-.5-1-.5-1.6l.1-1.2a4 4 0 0 1 .6-1c.1-.5.4-.8.8-1.1h1.1c.7-.1 1.2.1 1.5.3.4.5.6 1.1.6 1.7l-.2 1.2a4 4 0 0 1-.5 1c-.3.5-.5.8-.9 1-.3.1-.7.2-1.1.2zm0-.7c.3 0 .7-.1.9-.4.2-.2.5-.5.6-1 .2-.2.2-.7.2-1.3v-.7a1 1 0 0 0-.5-.5l-.5-.2c-.4 0-.7.1-1 .4-.3.2-.5.6-.6 1a4 4 0 0 0-.2 1.3c0 .5 0 .8.3 1 .2.2.4.3.8.3zm3.7.6-.2-5.3h.8l.1 2.8v1.8a13.8 13.8 0 0 1 .4-1.1l.3-.5 1.4-3h1v2.8a25 25 0 0 1 .1 1.8l.4-1 .4-1 1.3-2.6h.9l-2.7 5.3h-.9l-.3-2.9v-1.6l-.2.7-.4.8-1.4 3zm6.2 2.4h-.7v-.9h.3l.3.3c.3-.1.5-.1.7-.3l.6-.8.3-.6-.7-5.4h.8l.3 2.6.1.7v1.3h.2a28.7 28.7 0 0 1 .4-1.1l.3-.6 1.5-3h1l-3.4 6.4-.9 1.1c-.3.2-.6.3-1.1.3zm0 0" style="fill:none;stroke:#fff;stroke-width:2;stroke-linecap:butt;stroke-linejoin:round;stroke-miterlimit:10;stroke-opacity:.6" transform="rotate(  340 143.674 151.906) translate(0,-108.17161)"/> <g style="fill:#007f00;fill-opacity:1" transform=" rotate(  340 143.674 151.906) ">  <use xlink:href="#j" x="114.2" y="143"/>  <use xlink:href="#k" x="120.9" y="143"/>  <use xlink:href="#l" x="126.6" y="143"/>  <use xlink:href="#m" x="130.9" y="143"/>  <use xlink:href="#n" x="134.2" y="143"/>  <use xlink:href="#o" x="138.9" y="143"/>  <use xlink:href="#p" x="144.7" y="143"/>  <use xlink:href="#q" x="147.2" y="143"/>  <use xlink:href="#l" x="153" y="143"/>  <use xlink:href="#r" x="157.4" y="143"/>  <use xlink:href="#k" x="162.1" y="143"/>  <use xlink:href="#s" x="167.7" y="143"/>  <use xlink:href="#t" x="118.2" y="154.9"/>  <use xlink:href="#u" x="126.8" y="154.9"/>  <use xlink:href="#k" x="129.3" y="154.9"/>  <use xlink:href="#v" x="135" y="154.9"/>  <use xlink:href="#u" x="139.5" y="154.9"/>  <use xlink:href="#w" x="142.1" y="154.9"/>  <use xlink:href="#x" x="147.8" y="154.9"/>  <use xlink:href="#l" x="155" y="154.9"/>  <use xlink:href="#r" x="159.3" y="154.9"/>  <use xlink:href="#p" x="164.3" y="154.9"/>  <use xlink:href="#y" x="100.9" y="166.8"/>  <use xlink:href="#w" x="106.6" y="166.8"/>  <use xlink:href="#z" x="112.3" y="166.8"/>  <use xlink:href="#r" x="116.2" y="166.8"/>  <use xlink:href="#glyph1-18" x="121.2" y="166.8"/>  <use xlink:href="#A" x="123.8" y="166.8"/>  <use xlink:href="#z" x="129.4" y="166.8"/>  <use xlink:href="#w" x="133.2" y="166.8"/>  <use xlink:href="#B" x="138.9" y="166.8"/>  <use xlink:href="#k" x="141.5" y="166.8"/>  <use xlink:href="#C" x="147.1" y="166.8"/>  <use xlink:href="#z" x="152.9" y="166.8"/>  <use xlink:href="#w" x="156.7" y="166.8"/>  <use xlink:href="#D" x="162.3" y="166.8"/>  <use xlink:href="#k" x="166.8" y="166.8"/>  <use xlink:href="#x" x="172.2" y="166.8"/>  <use xlink:href="#n" x="179.4" y="166.8"/> </g></svg>