<svg xmlns="http://www.w3.org/2000/svg" xmlns:xlink="http://www.w3.org/1999/xlink" viewBox="0 0 497 279"> <defs overflow="visible" style="stroke:none">  <path id="d" d="M1.5 0H.7L0-.2V-1l.7.3h.8c.5.1.7.1 1-.1l.1-.7c.1-.1.1-.3-.1-.4 0-.2-.3-.3-.7-.5L1-3.1c-.2-.2-.3-.5-.3-.8 0-.5.1-.9.5-1.1.3-.3.7-.5 1.3-.5.3 0 .6 0 .9.2l.6.2-.2.7-.5-.2-.8-.1c-.3 0-.5 0-.7.2-.2.1-.2.3-.2.5l.1.5.7.5c.3 0 .6.2.6.4.2 0 .4.2.5.4l.1.7c0 .5-.2 1-.5 1.2C2.7 0 2 0 1.5 0Zm0 0"/>  <path id="c" d="M2 0c-.6 0-.9 0-1.2-.3C.6-.7.5-1 .5-1.7c0-.5 0-1 .2-1.4 0-.5.3-.9.5-1.2.2-.4.5-.7.8-.8a2 2 0 0 1 1.1-.4c.4 0 .7.1.9.3l.5.7a35.3 35.3 0 0 1 .2-1.3l.4-1.8H6L4.4 0h-.8l.1-1-.8.8c-.3.2-.6.2-.9.2Zm.1-.5c.4-.1.6-.2.9-.5l.5-.5.5-1 .2-1.1c0-.4-.2-.6-.3-.8-.1-.2-.4-.3-.7-.3-.3 0-.5 0-.8.2l-.4.7-.5 1-.1 1.1c0 .7.3 1 .8 1Zm.1-.1"/>  <path id="b" d="M1.9 0c-.4 0-.7 0-1-.1C.7-.5.5-.8.5-1.2v-.5L.8-2l.6-3.4h.9L1.4-2v1.2l.8.2c.2 0 .4-.1.8-.4l.6-.6.5-1.4.5-2.4h.9L4.4 0h-.8l.1-1-.5.5-.4.5-.9.1Zm0 0"/>  <path id="a" d="M.4 0 2-7.1h1.2l.7 5.8 3.2-5.8h1.3L7 0H6l1-4.2a47.9 47.9 0 0 1 .4-2L4 0h-.7l-.8-6.3-.1.6-.1.7-.1.7-1 4.3Zm0 0"/>  <path d="M1 0v-7.1h4V0Zm.4-.5h3.1v-6.1h-3Zm.1 0"/> </defs> <image xlink:href="svg/9/0_34.jpg" width="497" height="279"/> <path d="m284.7 87.7 1.5-7.2h1.3l.7 5.9 3.2-5.9h1.3l-1.4 7.2h-1l1.1-4.3a47.9 47.9 0 0 1 .3-2l-3.4 6.3h-.7l-.8-6.3-.1.6-.1.7-.1.7-1 4.3Zm9.9.1c-.4 0-.6-.1-1-.4-.2-.2-.3-.4-.3-1v-.8l.9-3.3h.8l-.8 3.4v.7l.1.5.7.1.6-.2c.2-.1.4-.4.7-.8.3-.3.4-.8.7-1.4l.3-2.3h1l-1.3 5.4h-.6v-1l-.4.5-.6.4-.8.2Zm5.8 0c-.4 0-.7-.2-1-.5-.4-.3-.4-.7-.4-1.3 0-.5 0-1 .2-1.4 0-.6.3-.9.5-1.2.2-.4.5-.7.8-.9a2 2 0 0 1 1.1-.3c.4 0 .7.1.9.3l.5.6a35.3 35.3 0 0 1 .2-1.3l.4-1.7h.9l-1.6 7.6h-.9l.3-1-1 .8c-.2.2-.5.3-.9.3Zm.3-.8c.3 0 .5 0 .7-.2l.6-.7.5-1 .2-.9c0-.6-.1-.8-.3-1-.1-.2-.4-.2-.7-.2-.3 0-.5 0-.8.2l-.5.8-.4 1-.1.9c0 .9.3 1.3.8 1.3Zm5.5.8c-.4 0-.7-.2-1-.5-.3-.3-.4-.7-.4-1.3 0-.5 0-1 .2-1.4 0-.6.3-.9.5-1.2.2-.4.5-.7.8-.9a2 2 0 0 1 1.1-.3c.4 0 .7.1.9.3l.4.6h.2a35.3 35.3 0 0 1 .1-1.3l.4-1.7h.9l-1.6 7.6h-.8l.1-1-.8.8c-.3.2-.6.3-1 .3Zm.3-.8c.3 0 .5 0 .7-.2l.6-.7.5-1 .2-.9c0-.6-.1-.8-.3-1-.1-.2-.4-.2-.7-.2-.3 0-.5 0-.8.2l-.5.8-.4 1-.1.9c0 .9.3 1.3.8 1.3Zm5.5.8c-.4 0-.8-.1-1-.4-.3-.2-.4-.4-.4-1V86l.2-.4.6-3.3h1l-.9 3.4v1.2l.8.1c.2 0 .4 0 .7-.2.2-.1.5-.4.7-.8.2-.3.4-.8.5-1.4l.5-2.3h.9l-1.2 5.4h-.7l.1-1-.5.5c-.1.2-.3.3-.6.4l-.7.2Zm5.4 0-.8-.1c-.3 0-.6-.2-.7-.3v-.8l.7.4.8.1c.4-.1.6-.1.9-.3.2-.1.3-.3.3-.6 0-.2 0-.2-.2-.5l-.7-.5-.9-.6-.2-.9c0-.4.1-.7.4-1 .4-.4.8-.6 1.4-.6l.9.2.7.3-.3.7-.6-.3h-.7c-.4 0-.5 0-.7.2-.2.1-.3.3-.3.5s0 .3.2.3c.1.3.4.4.7.6l.7.4.3.5.2.5c0 .7-.2 1.1-.6 1.4-.3.2-.8.4-1.5.4Zm0 0" style="fill:none;stroke-width:2;stroke-linecap:butt;stroke-linejoin:round;stroke:#fff;stroke-opacity:.6;stroke-miterlimit:10" transform=" rotate(  340 304.295 84.6765) "/> <g style="fill:green;fill-opacity:1" transform=" rotate(  340 304.295 84.6765) ">  <use xlink:href="#a" x="284.3" y="87.7"/>  <use xlink:href="#b" x="292.7" y="87.7"/>  <use xlink:href="#c" x="298.5" y="87.7"/>  <use xlink:href="#c" x="304.3" y="87.7"/>  <use xlink:href="#b" x="310.1" y="87.7"/>  <use xlink:href="#d" x="315.9" y="87.7"/> </g></svg>