<svg xmlns="http://www.w3.org/2000/svg" xmlns:xlink="http://www.w3.org/1999/xlink" viewBox="0 0 497 279"> <defs>  <path d="M1 0v-7.1h4V0Zm.4-.5h3.1v-6.1h-3Zm.1 0" id="reuse-0"/> </defs> <defs overflow="visible" style="stroke:none">  <path id="ai" d="M1.9 0c-.4 0-.7 0-1-.1C.7-.5.5-.8.5-1.2v-.5L.8-2l.6-3.4h.9L1.4-2v1.2l.8.2c.2 0 .4-.1.8-.4l.6-.6.5-1.4.5-2.4h.9L4.4 0h-.8l.1-1-.5.5-.4.5-.9.1Zm2.7-6.2-.3-.2-.1-.3.1-.4.4-.2.3.1v.7l-.5.2Zm-1.8-.1-.3-.1-.1-.3.1-.4.4-.2.3.1v.7l-.5.2Zm0 0"/>  <path id="ah" d="M.4 0 2-7.1h1.8c.6 0 1.2 0 1.5.3.4.3.7.8.7 1.3-.1.5-.3.9-.5 1.2-.3.3-.7.5-1.2.6l.7.5c.3.3.4.6.4 1 0 .5 0 .9-.3 1.2L4-.2 2.7 0Zm1.8-4h1.1l.9-.3.5-.4c.3-.2.3-.3.3-.7 0-.3-.1-.5-.3-.6-.2-.3-.7-.4-1-.4h-1ZM1.5-.9h1.2c.6.1 1 .1 1.3-.1.3-.4.5-.7.5-1.2 0-.3-.1-.6-.3-.8-.2-.3-.6-.4-1-.4H2Zm0 .1"/>  <path id="ag" d="M-.3 2.4h-.3l-.4-.1v-.7h.7c.3.1.5.1.7-.1.2-.2.4-.5.5-.8l.4-.6-.8-5.5h.9l.3 2.7v.7l.2.7v.6A28.4 28.4 0 0 1 2.5-2c-.1 0 .1-.3.2-.4l1.5-3h1L1.7 1c-.1.4-.4.8-.7 1-.4.3-.8.4-1.2.4Zm0 0"/>  <path id="af" d="m.3 0 1.6-7.6h.9l-.5 2-.1.6-.2.6.6-.5.5-.4.9-.2c.3 0 .6.2.9.5.1 0 .3.5.3.9v.8L4.3 0h-.8l.8-3.4V-4l-.1-.5c-.2-.2-.3-.2-.6-.2-.2 0-.4 0-.6.2-.4.2-.6.5-.8.8-.2.3-.4.7-.5 1.4L1.2 0Zm0 0"/>  <path id="ae" d="m.3 0 1.1-5.4h.7v1l.4-.5.5-.4.7-.2H4l.3.2-.2.7h-.5c-.3-.1-.6-.1-.9.2l-.7.9-.3 1L1.2 0Zm0 0"/>  <path id="ad" d="M2.4 0c-.6 0-1 0-1.4-.3C.6-.8.5-1.3.5-2c0-.3 0-.8.2-1.2 0-.4.3-.8.5-1.1.2-.4.5-.7.8-.8a2 2 0 0 1 1.2-.4c.5 0 .8.2 1.1.5.3 0 .4.4.4.8 0 .3-.1.7-.3 1-.4.2-.6.4-1 .6-.6.2-1.2.3-1.9.3h-.1v.3c0 .5 0 .8.3 1 .2.3.5.4.9.4l.7-.1A5 5 0 0 0 4-1v.7a6 6 0 0 1-.7.3h-.9Zm-.9-3 1.3-.1.7-.4c.2-.1.3-.4.3-.5l-.1-.6-.7-.1c-.2 0-.5.1-.9.4L1.6-3Zm1.3-3v-.3l.2-.3a16.8 16.8 0 0 0 1-1h.9l-.4.6-.6.5a6 6 0 0 1-.6.4Zm0 0"/>  <path id="ac" d="m.3 0 1.6-7.6h.9l-.8 3c.1.6 0 1-.2 1.3l-.1.5 2.5-2.6h1L3-3l1.4 3h-1L2.3-2.5l-.7.5-.4 2Zm0 0"/>  <path id="ab" d="M2.5 0C1.9 0 1.4 0 1-.3.7-.7.5-1.2.5-2c0-.4 0-1 .2-1.3l.5-1c.3-.5.6-.7 1-1 .2-.1.6-.2.9-.2l.9.1.6.2-.2.7-.5-.1-.6-.1c-.4 0-.7.1-1 .4-.3.2-.5.6-.7 1A4 4 0 0 0 1.4-2c0 .5 0 .8.3 1 .2.2.5.3.9.3h.6a7 7 0 0 0 .6-.3v.8l-.6.2h-.7Zm0 0"/>  <path id="aa" d="m.2 0 1.2-5.4h.8l-.2 1 .5-.6a2 2 0 0 1 .6-.3l.9-.2c.3 0 .6.1.9.5.1 0 .4.4.4.9v.4l-.2.5L4.4 0h-.9l.7-3.4v-.4l.2-.2c-.1-.5-.3-.7-.8-.7-.2 0-.4 0-.6.2-.3.2-.6.5-.8.8-.2.3-.4.8-.5 1.4L1.2 0Zm0 0"/>  <path id="Z" d="M1 0 .6-5.4h.8l.3 3v1.7h.2l.1-.5a24.4 24.4 0 0 1 .6-1.2l1.6-3h1L2.2 0Zm0 0"/>  <path id="Y" d="M2 0c-.6 0-.9 0-1.2-.3C.6-.7.5-1 .5-1.7c0-.5 0-1 .2-1.5l.5-1.1c.2-.4.5-.7.8-.9a2 2 0 0 1 1.1-.3c.4 0 .6.1.9.3l.5.7.3-.9h.7L4.4 0h-.7l.1-1c-.3.3-.5.6-.9.8-.3.2-.6.2-.9.2Zm.1-.5c.4-.1.6-.2.9-.5l.6-.6a4 4 0 0 0 .4-1 3 3 0 0 0 .1-.7 4 4 0 0 0 0-.4c.1-.3.1-.5-.1-.7-.3-.2-.5-.3-.8-.3-.3 0-.5 0-.7.2a2 2 0 0 0-.6.7l-.4 1-.1 1.1c0 .4 0 .6.2.8.1.2.3.3.6.3Zm.1-.1"/>  <path id="X" d="M2.1-6.3h-.3l-.1-.5.1-.4.4-.2c.3 0 .5.2.5.5 0 .2 0 .4-.2.5l-.4.2ZM.3 0l1.1-5.4h.9L1.2 0Zm0 0"/>  <path id="W" d="M1.8 0c-.3 0-.6 0-.8-.1C.7-.3.6-.6.6-1v-.8l.8-2.9h-1L.5-5l1-.5.5-1h.6l-.3 1h1.3l-.1.8H2.2l-.7 3v.8l.5.3h.3l.4-.3V0h-.9Zm0 0"/>  <path id="V" d="M1.8 0H1L.2-.2v-.9l.7.3 1 .1.8-.1.6-.4c.2-.2.2-.6.2-.8 0-.3 0-.5-.2-.7l-1-.6a4.4 4.4 0 0 1-.6-.5 1.9 1.9 0 0 1-.5-.6L1-5.2c0-.4.1-.8.4-1.1a2 2 0 0 1 .8-.7 3 3 0 0 1 1.2-.2h1l.8.5-.4.6-.6-.2-.8-.2c-.4 0-.7.2-1 .5-.4 0-.4.4-.4.8l.1.5.4.4.5.3.8.5a2 2 0 0 1 .5.6l.2.9c0 .6-.3 1.2-.8 1.5-.3.5-.9.6-1.8.6Zm1.3-7.7-.4-.9-.5-.7v-.1h.6l.4.4.4.5.6-.5.6-.4h.5c0 .3-.2.4-.3.6l-.7.5-.3.5ZM3-7.8"/>  <path id="U" d="M3.4 0c-.9 0-1.5 0-2-.5S.7-1.8.7-2.6.8-4 1-4.5c0-.5.4-.9.7-1.5l1.1-.9a3 3 0 0 1 1.5-.3c.8-.1 1.5.2 2 .7.3.5.5 1.2.5 2 .2.8.2 1.4-.1 1.9L6-1.2l-1.1.9c-.4.3-1 .3-1.5.3Zm0-.6a2 2 0 0 0 1-.4c.5-.2.6-.5 1-.8L5.8-3 6-4.5c0-.5-.2-1-.5-1.4-.3-.4-.7-.6-1.2-.6a2 2 0 0 0-1.1.3l-.8.8-.6 1.2a6 6 0 0 0-.1 1.5c0 .7.1 1.1.3 1.5.4.2 1 .5 1.4.5Zm0-.1"/>  <path id="T" d="M.4 0 2-7.1h1L2-3.7l.7-.6 2.7-2.8h1.1L3.5-4 5 0H4L2.7-3.5l-.7.7L1.3 0Zm0 0"/>  <path id="S" d="M.4 0 2-7.1h1l-.9 3h3.2l.7-3h.8L5.3 0h-.8l.7-3.3H2L1.3 0Zm0 0"/>  <path id="R" d="M3.3 0c-.8 0-1.5 0-2-.5C1-1.1.8-1.8.8-2.6.7-3.1.7-3.5 1-4c-.1-.4 0-.8.3-1.2l.8-1L3-7l1.7-.2c.5 0 1.1.1 1.6.4l-.3.7a4 4 0 0 0-.7-.2l-.7-.2c-.6 0-1 .2-1.3.5-.4 0-.7.4-1 .8A4 4 0 0 0 1.9-4l-.2 1.3c0 .7.1 1.1.3 1.5.4.3 1 .5 1.4.5h.8L5-1v.8l-.8.2a5 5 0 0 1-1 0Zm0 0"/>  <use xlink:href="#reuse-0"/>  <path id="Q" d="M.4-2.3v-.8h2.4v.8Zm0 0"/>  <path id="P" d="M4.3 0h-4v-.6l3.1-4H.6v-.9h3.6v.8l-2.8 4h3Zm0 0"/>  <path id="O" d="M5 0H1v-7.1h4v.8H1.9v2.2h2.9v.8h-3v2.5H5Zm-.5-9.4-.5.6-.5.5-.5.5h-.5V-8A16.2 16.2 0 0 0 3-9l.4-.3Zm0 0"/>  <path id="N" d="m.8-6.8.1-.4.4-.2c.1 0 .3 0 .4.2l.1.4-.1.4-.4.2-.4-.3-.1-.3ZM.2 2.4h-.4l-.3-.1v-.7H.6c.2-.2.2-.6.2-.8v-6.2h1V.8c-.1.5-.3.9-.5 1.2-.3.3-.5.4-1.1.4Zm0 0"/>  <path id="M" d="M5.5-2.7c0 .9-.2 1.7-.7 2-.4.7-1 .9-1.8.9-.5-.2-.9-.2-1.3-.4-.3-.2-.6-.6-.7-1C.6-1.6.5-2 .5-2.7c0-.9.3-1.6.7-2 .5-.5 1-.8 1.8-.8.5 0 1 .2 1.3.5.4 0 .7.4.9.9.2.2.3.7.3 1.3Zm-4 0c0 .7 0 1.2.3 1.5.3.4.7.6 1.2.6.6 0 1-.2 1.2-.6.3-.3.4-.8.4-1.5s-.1-1.1-.4-1.5c-.2-.3-.6-.5-1.2-.5-.5 0-1 .2-1.2.5-.2.4-.3.9-.3 1.5Zm3-5v.1L4-7l-.5.5-.5.4h-.6a16.2 16.2 0 0 0 .7-1.1l.3-.6Zm-.1 0"/>  <path id="L" d="m2.8-5.5.8.3a2 2 0 0 1 .8.4l.3-.6h.6V.1c0 .8-.2 1.3-.6 1.7-.4.4-1 .6-1.8.6S1.5 2.3 1 2.1v-.9c.6.4 1.3.6 2 .6.5-.1.9-.3 1-.5.3-.3.4-.7.4-1.1v-.9c-.3.5-.9.8-1.6.8C2 0 1.5-.1 1-.6c-.3-.5-.5-1.2-.5-2 0-1.1.2-1.7.6-2.2.4-.4 1-.7 1.6-.7Zm0 .8c-.3 0-.6.2-.9.5-.3.4-.4.9-.4 1.5 0 .7 0 1.2.3 1.7.3.2.6.4 1 .4.7 0 1.1-.2 1.4-.4.1-.3.2-.8.2-1.5v-.2c0-.7 0-1.2-.3-1.5-.3-.4-.7-.5-1.2-.5Zm.1 0"/>  <path id="K" d="M5-2c0 .8-.2 1.3-.7 1.7-.3.2-1 .3-1.8.3H1.4a3 3 0 0 1-.9-.2v-.9a5 5 0 0 0 1 .3l.9.1c.6 0 1.1 0 1.3-.3.3-.2.4-.5.4-.8L4-2.4 3.5-3a7.2 7.2 0 0 0-1-.3c-.8-.2-1.2-.5-1.5-.8C.7-4.4.6-5 .6-5.4s0-.7.3-1a2 2 0 0 1 .8-.6 3 3 0 0 1 1.2-.2h1a5 5 0 0 1 1.1.5l-.5.6a4.5 4.5 0 0 0-.7-.2l-1-.2c-.3 0-.6.1-.9.3-.3.2-.4.5-.4.8 0 .2 0 .4.2.6 0 .2.2.3.3.4l1.1.4.9.5.8.7.2.8Zm0 0"/>  <path id="J" d="M1.7 0H.8v-7.6h1Zm0 0"/>  <path id="I" d="M5.5-2.7c0 .9-.2 1.7-.7 2-.4.7-1 .9-1.8.9-.5-.2-.9-.2-1.3-.4-.3-.2-.6-.6-.7-1C.6-1.6.5-2 .5-2.7c0-.9.3-1.6.7-2 .5-.5 1-.8 1.8-.8.5 0 1 .2 1.3.5.4 0 .7.4.9.9.2.2.3.7.3 1.3Zm-4 0c0 .7 0 1.2.3 1.5.3.4.7.6 1.2.6.6 0 1-.2 1.2-.6.3-.3.4-.8.4-1.5s-.1-1.1-.4-1.5c-.2-.3-.6-.5-1.2-.5-.5 0-1 .2-1.2.5-.2.4-.3.9-.3 1.5Zm0 0"/>  <path id="H" d="M4.1 0 1.8-6.3V0H1v-7.1h1.3l2.2 5.8 2.3-5.8H8V0h-.8v-6.2L5 0Zm0 0"/>  <path id="G" d="M3 0c-.5 0-.9 0-1.3-.1-.3-.3-.6-.6-.7-.9-.4-.5-.5-1-.5-1.7 0-.6.2-1.1.5-1.5 0-.6.4-.8.8-1.1.2-.1.8-.2 1.2-.2l.8.1.7.2-.3.8-.6-.2H3c-1-.1-1.5.6-1.5 1.9 0 .7 0 1 .3 1.4.3.5.7.6 1.2.6h.8l.6-.3v.8a2 2 0 0 1-.6.2H3Zm0 0"/>  <path id="F" d="M1.3-7.4c.1 0 .3 0 .4.2l.1.4-.1.4-.4.2-.4-.3-.1-.3.1-.4.4-.2Zm.4 2V0H.8v-5.4Zm0 0"/>  <path id="E" d="M3.3-5.5H4l-.1 1.1-.3-.3h-.3c-.3 0-.5 0-.8.2l-.5.7-.3 1V0H.8v-5.4h.8v1h.2l.6-.6c.3-.3.6-.5 1-.5Zm0 0"/>  <path id="D" d="M2.6-.6H3l.4-.2v.7L3 0H1.7l-.6-.5-.1-1v-3.3H.2V-5l.7-.5.4-1h.5v1h1.5v.8H1.8v3.1c0 .3 0 .6.2.7l.6.3Zm0 0"/>  <path id="C" d="M0-5.4h1l1 3 .4 1 .2.6.2-.7c0-.3.2-.5.2-.8l1-3h1.2L2.8.6c-.2.6-.4 1.1-.7 1.4-.3.3-.7.4-1.3.4H.1v-.9h.6c.3.2.6.2.7 0L2 .7l.2-.7Zm0 0"/>  <path id="B" d="M2.9-5.5c.6 0 1.1.2 1.4.5.3.3.5.7.5 1.3V0h-.6L4-.8c-.3.3-.5.6-.8.8h-1c-.5 0-1 0-1.3-.3C.6-.5.5-.9.5-1.5c0-.5.2-1 .5-1.2.5-.3 1-.5 2-.5h.8v-.3c.2-.5.2-.8-.2-1l-.8-.2H2l-.7.5L1-5l1-.3.9-.2Zm1 2.9h-.8c-.6 0-1 .1-1.4.3-.1.3-.3.5-.3.8 0 .3 0 .5.2.7l.7.2c.5 0 .9-.1 1.2-.4.3-.2.4-.6.4-1Zm.3-5c0 .2-.2.3-.2.6l-.7.5-.5.4h-.6A16.2 16.2 0 0 0 3-7.2l.2-.6Zm0-.1"/>  <path id="A" d="M1.7-7.6v4.8L2-3v-.3l.4-.2L4-5.4h1L2.9-3l2.4 3H4.2L2.3-2.5l-.6.5v2H.8v-7.6Zm0 0"/>  <path id="z" d="M4.3-1.5c0 .5-.2 1-.5 1.2-.4.3-1 .4-1.6.4l-1-.1-.7-.2V-1l.8.3h1.8l.4-.7-.1-.4L3-2a7.5 7.5 0 0 0-.8-.4 7.5 7.5 0 0 1-1-.4l-.4-.5L.5-4c0-.5.2-.8.6-1 .3-.4.8-.6 1.4-.6l1 .2a4 4 0 0 1 .6.4l-.1.6-.8-.2-.7-.1-.9.1c-.2.2-.3.3-.3.6s0 .2.2.3l.4.3.8.3.9.4.4.5c.3.2.3.4.3.7Zm0 0"/>  <path id="y" d="M3.4-5.5c.7 0 1.2.2 1.6.5.2.3.4.8.4 1.5V0h-.9v-3.4c0-.9-.4-1.3-1.2-1.3-.6 0-1 .1-1.2.5-.3.2-.4.8-.4 1.4V0H.8v-5.4h.8v.8h.2c.2-.4.3-.5.7-.7l1-.2Zm0 0"/>  <path id="x" d="M2.9-5.5c.6 0 1.1.2 1.4.5.3.3.5.7.5 1.3V0h-.6L4-.8c-.3.3-.5.6-.8.8h-1c-.5 0-1 0-1.3-.3C.6-.5.5-.9.5-1.5c0-.5.2-1 .5-1.2.5-.3 1-.5 2-.5h.8v-.3c.2-.5.2-.8-.2-1l-.8-.2H2l-.7.5L1-5l1-.3.9-.2Zm1 2.9h-.8c-.6 0-1 .1-1.4.3-.1.3-.3.5-.3.8 0 .3 0 .5.2.7l.7.2c.5 0 .9-.1 1.2-.4.3-.2.4-.6.4-1Zm.1 0"/>  <path id="w" d="M1-7.1h2c1 0 1.6.1 2 .4.5.2.7.7.7 1.3 0 .5-.1.8-.3 1-.4.4-.6.6-1 .7l.8.3c.2 0 .4.2.5.5.3.2.3.5.3.9 0 .6-.3 1-.7 1.5-.5.3-1 .5-1.8.5H1Zm.9 3h1.3c.6.1 1 .1 1.3-.3.2-.2.3-.5.3-.9s-.1-.6-.4-.7c-.4-.3-.8-.4-1.4-.4H2Zm0 .8v2.5h1.4c.7 0 1 0 1.3-.2.4-.4.4-.7.4-1.1s-.1-.7-.4-.9c-.2-.2-.6-.3-1.4-.3Zm0 0"/>  <use xlink:href="#reuse-0"/>  <path id="v" d="M2.3-6.9 2-7l-.2-.4c0-.2 0-.3.2-.5l.5-.1c.3 0 .5.1.5.4 0 .2-.1.4-.3.6.1.1-.2.1-.3.1Zm-3 9.5a2 2 0 0 1-.7 0v-1l.4.2h.3c.4 0 .7-.3.9-1L1.6-6h1L1 .8c0 .6-.2 1-.5 1.4-.3.3-.7.4-1.2.4Zm0 0"/>  <path id="u" d="M-.3 2.6h-.4a4 4 0 0 1-.3 0v-1l.3.3h.4c.3-.1.5-.1.7-.3L1 .8l.4-.8-.9-6h1l.4 3.1v.6A34.2 34.2 0 0 1 2-.8l.4-.5a22.7 22.7 0 0 1 .5-1.4l1.7-3.2h1L2 1c-.4.5-.7 1-1 1.2-.2.3-.7.4-1.2.4Zm2.9-9.3v-.1l.4-.5.4-.6a15 15 0 0 0 .4-.5H5l-.5.7-.7.5-.6.5Zm0 0"/>  <path id="t" d="M2.7.1C2.1.1 1.5 0 1.1-.4.7-.8.5-1.4.5-2.1l.2-1.5c.3-.4.4-.9.7-1.2a3 3 0 0 1 1-.9c.2-.2.6-.3 1.1-.3h.9l.6.4-.2.6a4 4 0 0 0-.5-.1h-.7c-.4-.1-.8-.1-1 .2-.5.4-.6.9-.9 1.3-.1.4-.2 1-.2 1.5 0 .4.1.8.5 1.1 0 .2.4.3.9.3l.5-.1c.4 0 .6-.2.8-.3v.9l-.7.2a3 3 0 0 1-.8.1Zm0 0"/>  <path id="s" d="M2.3-6.9 2-7l-.2-.4c0-.2 0-.3.2-.5l.5-.1c.3 0 .5.1.5.4l-.2.6c-.2.1-.3.1-.5.1ZM.3 0l1.3-5.9h1L1.2 0Zm0 0"/>  <path id="r" d="m.3 0 1.3-5.9h.8l-.2 1 .7-.4.4-.5.8-.2h.6l-.2 1a3 3 0 0 0-.5-.2c-.4.1-.7.2-1 .4a3 3 0 0 0-.8 1l-.3 1.1L1.3 0Zm0 0"/>  <path id="q" d="M2 .1c-.4 0-.7 0-1-.3-.2-.2-.4-.5-.4-1L.7-2l.7-3.2h-1l.3-.4.9-.4.6-1.2h.7L2.5-6H4l-.2.8H2.4L1.7-2v.4l-.2.3.2.4c.1.2.3.2.5.2h.4L3-.8v.7l-.5.1-.5.1Zm0 0"/>  <path id="p" d="M-.3 2.6h-.4a4 4 0 0 1-.3 0v-1l.3.3h.4c.3-.1.5-.1.7-.3L1 .8l.4-.8-.9-6h1l.4 3.1v.6A34.2 34.2 0 0 1 2-.8l.4-.5a22.7 22.7 0 0 1 .5-1.4l1.7-3.2h1L2 1c-.4.5-.7 1-1 1.2-.2.3-.7.4-1.2.4Zm0 0"/>  <path id="o" d="M3 .1c-.4 0-.8 0-1-.3a1.9 1.9 0 0 1-.5-.7h-.1L1 0H.3l1.8-8.4H3l-.5 2v.8l-.2.6v.2l.7-.8c.4-.4.8-.4 1.2-.4.5 0 .9.2 1.2.5.3.5.4.8.4 1.5 0 .5 0 1-.2 1.5L5.1-1A3 3 0 0 1 4-.2c-.1.2-.5.2-1 .2Zm-.1-.8c.3 0 .5 0 .8-.3l.6-.7.4-1.1.1-1.2c0-.8-.3-1.2-.8-1.2-.3 0-.6.2-.8.3a3 3 0 0 0-.7.7c-.3.3-.5.7-.5 1-.2.6-.2 1-.2 1.4s0 .6.2.8c.2.2.5.3 1 .3Zm0 0"/>  <path id="n" d="M2.7 0C2 0 1.5 0 1.1-.4.7-1 .5-1.5.5-2.2a5 5 0 0 1 .2-1.3c.1-.5.3-.9.6-1.3a3 3 0 0 1 .9-.7C2.6-6 3-6 3.5-6c.7 0 1.2.2 1.5.6.5.4.7 1 .7 1.7 0 .4 0 .9-.2 1.3-.1.5-.3.9-.6 1.4a3 3 0 0 1-.9.8c-.4.2-.8.2-1.3.2Zm0-.6c.5-.1.9-.2 1.1-.5.2-.2.5-.6.6-.9.2-.6.3-1.1.3-1.8l-.1-.7-.4-.5-.7-.2c-.5 0-.8.2-1 .5-.5.2-.7.5-.9.9L1.5-2c0 .3.1.7.3.9.3.3.6.4 1 .4Zm.1-.1"/>  <path id="m" d="m.3 0 1.8-8.4H3L2.2-5a20 20 0 0 1-.4 2l2.8-3h1.2L3.3-3.4 4.8 0h-1L2.5-2.8l-.8.8-.4 2Zm0 0"/>  <path id="l" d="M1.7.1.7 0 .2-.3v-.9c0 .2.3.3.6.4a3 3 0 0 0 .9.1c.3 0 .7 0 1-.2.2-.2.3-.4.3-.7 0-.2 0-.4-.2-.5L2-2.7a3.8 3.8 0 0 1-1-.7c0-.2-.2-.6-.2-1s.2-.7.6-1c.3-.4.7-.6 1.3-.6l1.1.1.7.3-.3.8-.6-.3h-.9L2-5l-.3.6c0 .2 0 .4.3.5 0 .2.3.3.7.5l.7.5.4.5.2.7c0 .6-.2 1-.6 1.4-.4.3-1 .3-1.7.3Zm0 0"/>  <path id="k" d="m.3 0 1.2-6h.9l-.1 1.3.5-.7.6-.4c.3-.2.6-.2.9-.2.4 0 .7 0 1 .4.4.2.6.6.6 1v.6l-.3.4L4.9 0h-1l.6-3.7.2-.4a2 2 0 0 0 0-.4c.1-.4-.2-.7-.7-.7l-.8.3-.8.8-.6 1.6L1.3 0Zm0 0"/>  <path id="j" d="M2.1.1C1.7.1 1.3 0 1-.4.7-.7.5-1.2.5-1.9l.2-1.6.6-1.3c.3-.4.7-.7 1-.9.2-.2.7-.3 1.1-.3.4 0 .7.1 1 .3l.5.7.5-.9H6L4.8 0H4l.2-1a4 4 0 0 1-1.1.7c-.1.3-.6.3-.9.3Zm.3-.8c.3 0 .6 0 .8-.3a3 3 0 0 0 .8-.8 5 5 0 0 0 .4-1.1l.1-.6V-4c.1-.4.1-.6-.1-1-.4 0-.6-.2-.9-.2-.3 0-.5.2-.8.3l-.6.7-.4 1-.2 1.4c0 .3 0 .6.3.9l.6.1Zm0 0"/>  <path id="i" d="M.5 0 2-7.9h2.1c.9 0 1.3.2 1.9.5.3.3.5.7.5 1.4 0 .5-.2 1-.5 1.3-.3.2-.8.4-1.3.5.4.4.7.5 1 .8 0 .2.3.5.3.9 0 .7-.2 1.1-.4 1.5-.3.3-.6.5-1 .7C4 0 3.5 0 3 0Zm1.9-4.5h1.3c.3 0 .6 0 .9-.2.2 0 .4-.2.6-.3.2-.3.3-.6.3-1 0-.3-.2-.5-.5-.7C5-7 4.5-7 4.1-7H2.8ZM1.6-.8H3c.6 0 1-.2 1.4-.4.4-.4.6-.8.6-1.3 0-.3 0-.6-.4-.9-.2-.1-.6-.2-1.2-.2H2.2Zm0 0"/>  <path d="M1 0v-7.9h4.6V0Zm.6-.6H5v-6.7H1.6Zm0 0"/>  <path id="h" d="M2.2-9.9v6.3l.3-.3.3-.4.2-.3L5.3-7h1.3L3.8-4l3 4H5.5L3-3.3l-.8.8V0h-1v-9.9Zm0 0"/>  <path id="g" d="M5.6-2c0 .9-.2 1.4-.6 1.7-.6.3-1.3.4-2.1.4L1.6 0c-.4 0-.7-.2-1-.3v-1c.4-.1.8.1 1.1.3L3-.8c.5 0 .9 0 1-.3.4-.2.5-.4.5-.7l-.1-.5-.5-.4a9.6 9.6 0 0 0-1-.5 11 11 0 0 1-1.3-.5 2.2 2.2 0 0 1-.7-.6c-.2-.3-.2-.7-.2-1 0-.5.2-1 .7-1.2.5-.5 1.1-.6 1.9-.6a5.4 5.4 0 0 1 2.2.5l-.4.9a7 7 0 0 0-1-.3 4 4 0 0 0-.8-.2c-.6 0-.9.2-1.1.3-.4.1-.6.3-.6.6l.4.5.5.4c.3 0 .5.2 1 .4l1.2.5.7.7c.2.2.2.5.2.8Zm0 0"/>  <path id="f" d="M4.5-7c.8 0 1.4 0 1.8.4.5.6.7 1.1.7 2.1V0H5.8v-4.5c0-1-.5-1.5-1.5-1.5-.8-.1-1.3 0-1.6.5-.3.5-.5 1-.5 1.9V0h-.9v-7H2l.2 1a2 2 0 0 1 1.1-.8c.3-.2.7-.3 1.2-.3Zm0 0"/>  <path id="e" d="M3.8-7c.6 0 1.1 0 1.5.2.5.4.8.7 1 1.1.3.7.4 1.2.4 1.7v.7H1.9c0 .8.1 1.4.6 1.8.4.5 1 .7 1.6.7.5 0 .9 0 1.2-.2l1-.3v1a5.2 5.2 0 0 1-2.1.3 3.8 3.8 0 0 1-1.9-.3 2.8 2.8 0 0 1-1.2-1.2C1-2 .7-2.7.7-3.5c0-.6.1-1.2.4-1.8.3-.6.6-1.1.9-1.4A3 3 0 0 1 3.9-7Zm0 .7c-.6.1-1 .3-1.3.7-.3.3-.5.8-.6 1.4h3.6c0-.6-.2-1-.5-1.4-.2-.4-.6-.6-1.2-.6Zm0 .1"/>  <path id="d" d="M2.6 0 0-7h1.2l1.5 4.1.2.7.2.7.2.5a9 9 0 0 1 .2-.6l.2-.6.2-.8 1.5-3.9h1.2L4 0Zm0 0"/>  <path id="c" d="M7.2-3.5c0 1.2-.3 2-1 2.7-.4.6-1.2 1-2.2 1a3.2 3.2 0 0 1-1.7-.6A3 3 0 0 1 1-1.5c0-.6-.3-1.2-.3-2 0-1.1.3-2 .9-2.7C2.2-6.8 3-7 4-7c.6 0 1 0 1.6.3a3 3 0 0 1 1.2 1.2c.2.6.4 1.2.4 2Zm-5.3 0c0 .8.1 1.5.5 2 .3.4.8.7 1.5.7s1.2-.3 1.6-.7c.3-.5.5-1.2.5-2s-.2-1.5-.5-2C5-5.8 4.6-6 3.9-6c-.7-.1-1.2 0-1.5.6-.4.4-.5 1-.5 1.9Zm0 0"/>  <path id="b" d="M2.3 0H1v-9.9h1.2Zm0 0"/>  <path id="a" d="M6.5-2.5c0 .8-.3 1.5-.9 2-.6.3-1.4.5-2.4.5a8 8 0 0 1-1.4 0C1.3 0 1-.2.7-.3v-1.1a6.1 6.1 0 0 0 2.6.4c.7.1 1.2 0 1.5-.3.4-.3.6-.6.6-1l-.2-.9-.7-.5a9.8 9.8 0 0 0-1.3-.6c-.8-.3-1.4-.6-1.8-1C1-5.8.8-6.3.8-7c0-.5.1-1 .4-1.3.2-.4.6-.7 1-.8a4 4 0 0 1 1.5-.3 6.4 6.4 0 0 1 2.6.4L6-7.9a7.6 7.6 0 0 0-1-.3 4.5 4.5 0 0 0-1.3-.2c-.6 0-1 .1-1.3.4-.3.2-.4.6-.4 1 0 .3 0 .5.2.8 0 .2.3.2.6.4l1.2.6a8 8 0 0 1 1.4.7l.8.8c.2.3.3.7.3 1.2Zm0 0"/>  <path d="M1.2 0v-9.3h5.4V0ZM2-.7h3.9v-8H2Zm-.1 0"/> </defs> <image xlink:href="svg/9/0_9.jpg" width="497" height="279"/> <path d="M168 75.1c0 .9-.5 1.5-1 2-.6.4-1.4.7-2.4.7a8 8 0 0 1-1.4-.3c-.5.1-.9-.1-1.2-.2v-1.1a6.1 6.1 0 0 0 2.7.5c.6 0 1.2 0 1.5-.4.4-.2.6-.6.6-1s-.1-.6-.4-.8c.1-.2-.2-.5-.4-.6a9.8 9.8 0 0 0-1.4-.6c-.8-.3-1.4-.6-1.8-1-.4-.4-.6-1-.6-1.7 0-.6.1-1 .3-1.3l1-.8a4 4 0 0 1 1.7-.3 6.4 6.4 0 0 1 2.5.5l-.4 1a7.6 7.6 0 0 0-1-.3 4.5 4.5 0 0 0-1.3-.2c-.5 0-.9.2-1.2.4-.3.4-.4.6-.4 1l.1.8.7.5 1.2.6a8 8 0 0 1 1.4.5l.8 1c.2.2.4.7.4 1.1zm3.3 2.5H170v-9.8h1.3zm8.7-3.5c0 1.2-.3 2-.8 2.7-.6.6-1.4 1-2.4 1a3.2 3.2 0 0 1-1.8-.5 3 3 0 0 1-.9-1.2c-.5-.5-.6-1.2-.6-2.1.1-1 .4-1.9 1-2.5.5-.7 1.3-1 2.3-1 .7 0 1.2.2 1.7.5a3 3 0 0 1 1.1 1.2c.4.5.4 1.2.4 2zm-5.2 0c0 .9.1 1.5.5 2 .3.5.7.7 1.5.7s1.2-.2 1.6-.7c.3-.5.5-1.2.5-2.1s-.2-1.3-.5-1.9c-.4-.3-.9-.5-1.6-.5-.7-.1-1.2.1-1.5.6-.4.5-.5 1.1-.5 2zm8.8 3.5-2.6-7h1.2l1.5 4.3.2.5.2.7.2.5a8.9 8.9 0 0 1 .4-1.2l.2-.6 1.5-4.1h1.2l-2.7 7zm8.3-7.1c.6 0 1 .2 1.5.5.6.2.8.5 1 1 .2.5.4 1 .4 1.7v.7H190c0 .8.2 1.4.6 1.8.4.4 1 .6 1.6.6l1.2-.1 1-.4v1a5.2 5.2 0 0 1-2.1.5 3.8 3.8 0 0 1-1.9-.5 2.8 2.8 0 0 1-1.2-1.1c-.2-.6-.4-1.2-.4-2s.2-1.4.4-2c.2-.5.6-1 1-1.2a3 3 0 0 1 1.8-.5zm0 1c-.6 0-1 .1-1.3.5-.3.3-.6.8-.6 1.5h3.6c0-.6-.2-1.1-.6-1.5 0-.3-.5-.5-1-.5zm8.5-1c.8 0 1.4.2 1.9.6.4.4.6 1 .6 2v4.5h-1.1v-4.4c0-1.2-.5-1.7-1.6-1.7-.8 0-1.2.2-1.6.5-.3.6-.4 1.2-.4 2.1v3.4H197v-6.9h1v1.1a2 2 0 0 1 1.2-.9c.3-.2.8-.3 1.2-.3zm9.7 5.2c0 .7-.3 1.2-.8 1.5-.5.4-1.1.5-2 .5h-1.2l-1.1-.5v-.9l1.1.4 1.2.1c.7 0 1 0 1.3-.3.3-.1.4-.4.4-.7 0-.2 0-.3-.2-.5l-.5-.3a9.6 9.6 0 0 0-1-.5 11 11 0 0 1-1.3-.6 2.2 2.2 0 0 1-.6-.6c-.2-.2-.4-.5-.4-1s.4-.9.8-1.3c.5-.3 1.2-.5 2-.5a5.4 5.4 0 0 1 2.2.5l-.4 1a7 7 0 0 0-1-.5 4 4 0 0 0-1 0c-.3 0-.7 0-.9.2-.4.2-.5.4-.5.6 0 .2 0 .4.2.5l.5.4 1.1.4 1.1.5c.3.2.6.4.7.7.2.2.3.5.3.9zm3.3-7.9V74l.3-.3a123.5 123.5 0 0 1 .5-.7l2.3-2.3h1.3l-2.8 3 3 3.9h-1.4l-2.4-3.3-.8.7v2.6h-1.1v-9.8Zm12.4 6.3c0 1.2-.3 2-.9 2.7-.6.6-1.4 1-2.4 1a3.2 3.2 0 0 1-1.5-.5 3 3 0 0 1-1.2-1.2c-.3-.5-.5-1.2-.5-2.1 0-1 .3-1.9 1-2.5.4-.7 1.2-1 2.2-1 .7 0 1.3.2 1.8.5a3 3 0 0 1 1 1.2c.4.5.6 1.2.6 2zm-5.3 0c0 .9.2 1.5.5 2s.9.7 1.6.7c.7 0 1.2-.2 1.4-.7.4-.5.6-1.2.6-2.1s-.2-1.3-.5-1.9c-.3-.3-.8-.5-1.5-.5-.8-.1-1.3.1-1.6.6-.3.5-.5 1.1-.5 2zm0 0" style="fill:none;stroke:#fff;stroke-width:3;stroke-linecap:butt;stroke-linejoin:round;stroke-miterlimit:10;stroke-opacity:.6" transform="rotate(  340 390.693 53.7251) translate(196.86482,-20.898601)"/> <g style="fill:#633d63;fill-opacity:1" transform=" rotate(  340 390.693 53.7251) ">  <use xlink:href="#a" x="358.3" y="56.7"/>  <use xlink:href="#b" x="365.9" y="56.7"/>  <use xlink:href="#c" x="369.7" y="56.7"/>  <use xlink:href="#d" x="377.9" y="56.7"/>  <use xlink:href="#e" x="385" y="56.7"/>  <use xlink:href="#f" x="392.8" y="56.7"/>  <use xlink:href="#g" x="401.3" y="56.7"/>  <use xlink:href="#h" x="408.1" y="56.7"/>  <use xlink:href="#c" x="415.5" y="56.7"/> </g> <path d="m109.7 124.9 1.7-7.9h2c.6 0 1.3.2 1.6.5.5.3.7.7.7 1.4 0 .5-.1 1-.5 1.3-.2.3-.7.5-1.2.6.3.2.6.4 1 .7 0 .2.2.5.2.9 0 .6-.1 1.1-.4 1.5-.2.3-.6.5-1 .7-.5.2-1 .4-1.6.4zm2-4.5h1.1c.4 0 .7 0 1-.2.3 0 .5-.2.6-.4.2-.2.3-.5.3-.8 0-.4-.1-.6-.3-.8-.4-.2-.6-.3-1.1-.3h-1.1zm-.9 3.6h1.4c.8 0 1.1-.1 1.5-.3.3-.3.5-.7.5-1.2s-.2-.7-.4-1c-.2-.1-.6-.2-1.1-.2h-1.2zM118 125c-.5 0-1-.2-1.2-.5-.3-.3-.4-.8-.4-1.5 0-.6 0-1 .2-1.6.1-.4.3-.9.6-1.3.2-.4.5-.7.8-.9.4-.2.8-.2 1.3-.2.3-.1.7 0 .9.2.3.2.4.4.5.8h.1l.4-1h.7l-1.3 6h-.6v-1.1a4 4 0 0 1-1 .7c-.2.3-.5.4-1 .4zm.3-.8c.3 0 .5 0 .7-.2a3 3 0 0 0 .8-.9 5 5 0 0 0 .5-1.1v-.6l.2-.5c-.1-.4-.1-.6-.4-.9-.1-.2-.4-.3-.7-.3-.4 0-.6.1-.8.3l-.7.7-.4 1-.1 1.3c0 .4 0 .7.2 1l.7.1zm4.1.7 1.2-6h.9l-.1 1.3.5-.7c.1-.2.4-.3.6-.4.3-.2.5-.2.9-.2s.8.1 1 .4c.4.2.6.6.6 1v.7l-.3.3-.7 3.7h-1l.6-3.8.2-.4a2 2 0 0 0 0-.4c0-.4-.2-.7-.7-.7-.3 0-.5.1-.8.3l-.8.8-.5 1.6-.6 2.5zm7.8.1h-1c-.2-.1-.5-.2-.7-.4v-.9l.7.4a3 3 0 0 0 1 .1c.3 0 .6 0 .9-.2.1-.2.3-.4.3-.7.1-.3 0-.4-.2-.5 0-.2-.2-.4-.7-.6a3.8 3.8 0 0 1-1-.7c-.2-.2-.3-.5-.3-1s.2-.7.6-1c.2-.5.8-.6 1.4-.6l1 .1.8.3-.3.8-.7-.3h-1.5l-.3.7c0 .2 0 .5.2.5 0 .2.3.3.6.5l.8.5.5.5.2.7c0 .6-.3 1-.7 1.4-.4.3-1 .4-1.6.4zm3.3-.1 1.8-8.4h1l-.8 3.5a20 20 0 0 1-.5 1.9l2.9-2.9h1.1l-2.5 2.5 1.5 3.5h-1l-1.3-2.9-.7.7-.5 2.1zm7.7.1c-.7 0-1.3-.2-1.7-.6-.3-.4-.5-1-.5-1.7a5 5 0 0 1 .2-1.3c0-.5.3-.9.5-1.2a3 3 0 0 1 1-1c.3 0 .6-.2 1.1-.2.8 0 1.3.1 1.7.5.5.5.6 1 .6 1.7 0 .4 0 .9-.1 1.3l-.6 1.3a3 3 0 0 1-1 .9c-.2.2-.6.3-1.1.3zm0-.8c.4 0 .8-.2 1-.4.3-.2.5-.6.7-1l.1-1.8v-.6c0-.2-.2-.3-.4-.4l-.6-.3c-.5 0-.8.3-1 .5-.4.2-.7.6-.8 1-.2.5-.3 1-.3 1.6.1.4.1.8.4 1 .2.3.5.4 1 .4zm6.4.8c-.4 0-.7 0-1-.3a1.9 1.9 0 0 1-.5-.7l-.5.9h-.7l1.8-8.4h1l-.4 2-.3.8-.1.6v.1c.3-.2.5-.5.9-.7.2-.3.6-.4 1-.4.5 0 1 .2 1.2.5.3.4.5.8.5 1.6l-.2 1.4-.6 1.4a3 3 0 0 1-1 .9c-.2.2-.7.3-1 .3zm-.1-.8c.3 0 .6 0 .8-.2.3-.3.5-.5.7-.8l.3-1 .2-1.4c0-.7-.3-1.1-1-1.1-.2 0-.5.1-.7.3a3 3 0 0 0-.8.7l-.4 1-.2 1.3c0 .4 0 .7.3 1 .1 0 .3.2.8.2zm3 3.3h-.4a4 4 0 0 1-.4 0v-.9h.7c.4.1.6.1.8-.1l.6-.8.4-.7-.9-6h1l.4 3v.6a34.3 34.3 0 0 1 .1 1.5l.3-.5a22.7 22.7 0 0 1 .6-1.4l1.7-3.2h1l-3.7 7c-.3.4-.6.9-1 1-.2.4-.7.5-1.1.5zm7.1-2.5h-1l-.6-.4v-.9l.7.4a3 3 0 0 0 .9.1c.4 0 .8 0 1-.2.2-.2.3-.4.3-.7.1-.3.1-.4-.2-.5-.1-.2-.4-.4-.8-.6a3.8 3.8 0 0 1-.9-.7l-.2-1c-.1-.3 0-.7.4-1 .4-.5.9-.6 1.5-.6l1 .1.6.3-.2.8-.6-.3h-1.6l-.3.7.2.5c.2.2.4.3.8.5l.7.5.4.5c.3.2.3.4.3.7 0 .6-.3 1-.7 1.4-.4.3-1 .4-1.7.4zm5.1 0c-.4 0-.7 0-1-.3-.3-.2-.4-.5-.4-1v-.7l.9-3.3H161l.3-.4.9-.3.8-1.3h.5l-.3 1.3h1.5l-.2.7H163l-.6 3.3-.1.3v.3l.1.4c.1.2.2.2.4.2h.4l.4-.2v.8l-.4.2h-.5zm1.9-.1 1.4-5.9h.7l-.1 1 .5-.4.6-.5.7-.2h.6l-.2 1.1a3 3 0 0 0-.5-.3c-.4.1-.7.2-1 .3a3 3 0 0 0-.7 1.1c-.2.3-.4.7-.4 1.1l-.6 2.8zm6.4-6.9h-.4v-1l.7-.2c.2 0 .4.2.4.5l-.2.5c-.2.2-.3.2-.5.2zm-2 7 1.3-6h1l-1.3 6zm5.3 0c-.7 0-1.3-.2-1.6-.5-.4-.5-.7-1-.7-1.7 0-.5 0-1 .3-1.5.1-.5.3-.9.6-1.2a3 3 0 0 1 1-.9c.3-.2.8-.2 1.1-.2h1l.6.3-.3.7a4 4 0 0 0-.5-.2h-.6c-.5-.1-.8-.1-1.2.2-.3.4-.5.8-.7 1.3-.2.4-.2 1-.2 1.5-.1.4-.1.8.3 1 .2.3.5.4 1 .4h.6l.8-.5v1l-.8.2a3 3 0 0 1-.7.1zm2.5-.1 1.8-8.4h1l-.8 3.5a20 20 0 0 1-.5 1.9l2.9-2.9h1.1l-2.5 2.5 1.5 3.5h-1l-1.3-2.9-.8.7-.4 2.1zm4.9 2.6h-.4a4 4 0 0 1-.4 0v-.9h.7c.4.1.6.1.8-.1l.6-.8.4-.7-.9-6h1l.3 3 .2.6a34.3 34.3 0 0 1 0 1.5l.2-.5a22.7 22.7 0 0 1 .8-1.4l1.6-3.2h1l-3.6 7c-.4.4-.7.9-1.1 1-.3.4-.7.5-1.2.5zm2.8-9.3v-.1l.5-.5.4-.6a15 15 0 0 0 .4-.5h1c.1.3-.1.5-.3.7l-.7.5-.6.5zm-45.4 20.1 1.9-8.4h.9l-.7 3.4a20 20 0 0 1-.6 2l3-3.1h1l-2.5 2.8 1.5 3.3h-1l-1.3-2.8-.8.6-.4 2.2zm5.5 0 1.2-6h.8v1.3l.4-.7.6-.4c.2-.2.5-.2.8-.2h.6l-.2 1.1a3 3 0 0 0-.6-.3c-.2.1-.7.1-1 .4a3 3 0 0 0-.7 1l-.4 1-.5 2.8zm6 .1c-.6 0-.9-.2-1.2-.5-.3-.3-.4-.9-.4-1.5s0-1 .2-1.6c.1-.5.3-1 .6-1.3.2-.4.5-.7.9-.9.3-.2.7-.3 1.2-.3.3 0 .6 0 .9.3l.5.7h.1l.3-1h.8l-1.3 6.1h-.7l.1-1.2a4 4 0 0 1-1 .8c-.2.3-.6.4-.9.4zm.3-.8.8-.3a3 3 0 0 0 .7-.8 5 5 0 0 0 .5-1.1v-.6l.1-.5c0-.4 0-.7-.3-.9-.2-.2-.4-.3-.7-.3-.3 0-.6 0-.9.3l-.6.6-.4 1.1-.2 1.4c.1.3.1.6.3.8.1.2.4.3.7.3zm6.1-6.2-.4-.1-.1-.4c0-.2 0-.4.2-.5l.3-.2c.5 0 .6.2.6.5 0 .2 0 .3-.2.5l-.4.2zm-3 9.6a2 2 0 0 1-.7 0v-1h.3l.3.2c.5-.1.8-.4 1.1-1.1l1.1-6.7h1.1l-1.4 6.6-.6 1.4c-.3.4-.7.6-1.2.6zm0 0" style="fill:none;stroke:#fff;stroke-width:3;stroke-linecap:butt;stroke-linejoin:round;stroke-miterlimit:10;stroke-opacity:.6" transform="rotate(  340 234.037 128.593) translate(84.848319)"/> <g style="fill:#7d577d;fill-opacity:1" transform=" rotate(  340 234.037 128.593) ">  <use xlink:href="#i" x="194.1" y="124.9"/>  <use xlink:href="#j" x="200.7" y="124.9"/>  <use xlink:href="#k" x="206.9" y="124.9"/>  <use xlink:href="#l" x="213.3" y="124.9"/>  <use xlink:href="#m" x="218.1" y="124.9"/>  <use xlink:href="#n" x="223.3" y="124.9"/>  <use xlink:href="#o" x="229.5" y="124.9"/>  <use xlink:href="#p" x="235.6" y="124.9"/>  <use xlink:href="#l" x="240.8" y="124.9"/>  <use xlink:href="#q" x="245.5" y="124.9"/>  <use xlink:href="#r" x="249.2" y="124.9"/>  <use xlink:href="#s" x="253.5" y="124.9"/>  <use xlink:href="#t" x="256.4" y="124.9"/>  <use xlink:href="#m" x="261.4" y="124.9"/>  <use xlink:href="#u" x="266.8" y="124.9"/>  <use xlink:href="#m" x="223.7" y="138.3"/>  <use xlink:href="#r" x="229.1" y="138.3"/>  <use xlink:href="#j" x="233.3" y="138.3"/>  <use xlink:href="#v" x="239.5" y="138.3"/> </g> <path d="M60.5 52.2h2c1.1 0 1.7.1 2.2.4.4.3.6.7.6 1.4 0 .4-.1.7-.4 1-.2.3-.5.5-.9.5l.7.4.6.5.2.9c0 .6-.2 1.1-.7 1.5-.4.4-1 .5-1.7.5h-2.6zm1 3h1.2c.7 0 1.1 0 1.3-.2.2-.3.4-.6.4-.9 0-.4-.2-.7-.5-.9-.2-.2-.7-.2-1.3-.2h-1.2zm-.1.8v2.6h1.4c.7 0 1.1-.2 1.4-.4.2-.2.4-.6.4-1 0-.2-.2-.6-.4-.9-.3-.2-.7-.3-1.4-.3zm7.6-2.1c.5 0 1 .1 1.3.4.4.3.6.7.6 1.4v3.6h-.7l-.1-.7-.9.6c-.2.2-.5.2-.9.2-.7 0-1.1-.1-1.3-.4-.3-.2-.5-.6-.5-1.2 0-.5.2-1 .6-1.2.5-.3 1.1-.4 2-.5h.9v-.3c0-.5-.1-.8-.3-1l-.7-.1h-1l-.6.3-.4-.7c.4 0 .6-.2 1-.3h1zm1 2.8h-.8c-.7 0-1.1.3-1.4.4-.2.1-.4.4-.4.7 0 .3.1.6.3.7.3.2.4.2.7.2.6 0 .8-.1 1.2-.4.3-.2.4-.6.4-1.1zm5.1-2.8c.6 0 1.1.1 1.5.4.3.3.4.8.4 1.5v3.5h-1V56c.2-1-.1-1.4-1-1.4-.6 0-1 .2-1.3.5-.2.3-.3.9-.3 1.4v2.8h-.9V54h.7l.2.7c.2-.3.4-.5.7-.6.3-.2.7-.2 1-.2zm7.1 3.9c0 .6-.2 1-.6 1.2-.4.3-.9.4-1.5.4H79l-.6-.4v-.7l.8.3.8.1c.5 0 .8 0 1-.2l.2-.6v-.3l-.5-.4a7.5 7.5 0 0 0-.7-.2 7.5 7.5 0 0 1-.9-.5l-.5-.5c-.2-.2-.2-.4-.2-.7 0-.5.2-.8.5-1 .4-.3.9-.4 1.5-.4h.9a4 4 0 0 1 .7.4l-.2.7-.8-.3-.7-.1c-.3 0-.6 0-.8.2-.2 0-.3.2-.3.4l.1.4.5.4.8.3c.3 0 .6.2.8.4.3 0 .6.2.6.3l.2.8zm2.2-6.1v4.9l.1-.3.3-.3.2-.2 1.7-1.8h1l-2.1 2.3 2.3 3h-1l-2.1-2.5-.3.6v2h-1.1v-7.8zm6.5 2.2c.6 0 1.1.1 1.4.4.3.3.5.7.5 1.4v3.6H92v-.7l-.9.6c-.2.2-.5.2-.9.2-.7 0-1.1-.1-1.4-.4-.2-.2-.4-.6-.4-1.2 0-.5.2-1 .7-1.2.4-.3.9-.4 1.9-.5h.8v-.3c.2-.5.2-.8-.2-1l-.8-.1H90l-.7.3-.3-.7 1-.3h.9zm1 2.8h-.8c-.6 0-1.1.3-1.4.4-.2.1-.3.4-.3.7 0 .3 0 .6.2.7.2.2.4.2.7.2.5 0 .9-.1 1.2-.4.3-.2.4-.6.4-1.1zm.3-5c0 .3-.2.3-.4.6l-.5.5-.5.5h-.6V53a16.2 16.2 0 0 0 .7-.9l.1-.3zm5 .5h2c.9 0 1.6.1 2 .4.5.3.8.7.8 1.4 0 .4-.2.7-.4 1-.3.3-.6.5-1 .5l.8.4.5.5c.2.2.2.5.2.9 0 .6-.1 1.1-.6 1.5-.5.4-1 .5-1.8.5h-2.5zm.8 3h1.4c.6 0 1 0 1.2-.2.4-.3.4-.6.4-.9 0-.4-.1-.7-.4-.9-.3-.2-.8-.2-1.4-.2h-1.1zm0 .8v2.6h1.5c.6 0 1-.2 1.3-.4.3-.2.4-.6.4-1 0-.2-.1-.6-.4-.9-.2-.2-.7-.3-1.4-.3zm4.7-2h1l1 3 .4.8.2.7c0-.2 0-.5.2-.7l.3-.8 1-3h1.1l-2.4 6c-.2.7-.5 1-.7 1.4-.3.2-.8.3-1.3.3h-.7V61h.6c.3 0 .5 0 .7-.3l.5-.6.3-.8zm9.4 3.8c0 .6-.1 1-.5 1.2-.4.3-1 .4-1.6.4h-1l-.7-.4v-.7l.8.3.9.1c.4 0 .7 0 1-.2.2-.1.3-.3.3-.6l-.1-.3-.4-.4a7.5 7.5 0 0 0-.8-.2 7.5 7.5 0 0 1-1-.5l-.4-.5-.3-.7c0-.5.2-.8.7-1 .2-.3.7-.4 1.3-.4h1a4 4 0 0 1 .7.4l-.3.7-.7-.3-.7-.1c-.5 0-.8 0-1 .2-.1 0-.2.2-.2.4s0 .3.2.4l.4.4.8.3c.5 0 .6.2.9.4.2 0 .4.2.5.3.2.3.2.6.2.8zm3.1.9h.4l.4-.1v.7h-.4l-.6.2-.7-.2-.6-.5-.2-1v-3.2h-.8v-.4l.8-.2.5-1.3h.4V54h1.5v.6h-1.5v3.1c0 .4 0 .7.2.8l.6.2zm4.3-4.8h.7l-.2.8h-.5c-.3 0-.6 0-.8.2l-.6.6-.1 1v2.8h-1V54h.8v1h.2l.6-.8c.3-.2.6-.3 1-.3zm2.1-1.9h.4v1l-.4.1c-.1-.1-.3-.1-.4-.2v-.8l.4-.1zm.5 2v5.3H121V54Zm3.9 5.4c-.7 0-1 0-1.5-.3-.2-.1-.5-.5-.7-.9-.2-.4-.3-.9-.3-1.5 0-.7 0-1.2.3-1.7.2-.3.5-.6.9-1h2.1l.5.3-.3.6-.5-.2h-.5c-1.1-.1-1.6.5-1.6 1.9 0 .7 0 1.2.3 1.6.3.3.8.5 1.3.5l.7-.1.6-.2v.6a2 2 0 0 1-.6.3l-.8.1zm4.6-5.5c.6 0 1.1.1 1.4.4.3.3.5.7.5 1.4v3.6h-.6l-.2-.7c-.3.3-.5.4-.8.6-.2.2-.6.2-.9.2-.6 0-1.1-.1-1.4-.4-.3-.2-.4-.6-.4-1.2 0-.5.2-1 .6-1.2.4-.3 1-.4 2-.5h.7v-.3c.1-.5.1-.8-.2-1l-.8-.1h-.8l-.7.3-.2-.7.8-.3h1zm1 2.8h-.8c-.6 0-1 .3-1.3.4-.3.1-.5.4-.5.7 0 .3 0 .6.3.7.2.2.5.2.8.2.4 0 .8-.1.9-.4.6-.2.7-.6.7-1.1zm0 0" style="fill:none;stroke:#fff;stroke-width:3;stroke-linecap:butt;stroke-linejoin:round;stroke-miterlimit:10;stroke-opacity:.6" transform=" rotate(  340 96.8859 56.3298) "/> <g style="fill:#212121;fill-opacity:1" transform=" rotate(  340 96.8859 56.3298) ">  <use xlink:href="#w" x="59.6" y="59.3"/>  <use xlink:href="#x" x="66.1" y="59.3"/>  <use xlink:href="#y" x="71.7" y="59.3"/>  <use xlink:href="#z" x="77.9" y="59.3"/>  <use xlink:href="#A" x="82.6" y="59.3"/>  <use xlink:href="#B" x="88" y="59.3"/>  <use xlink:href="#glyph2-7" x="93.6" y="59.3"/>  <use xlink:href="#w" x="96.2" y="59.3"/>  <use xlink:href="#C" x="102.7" y="59.3"/>  <use xlink:href="#z" x="107.8" y="59.3"/>  <use xlink:href="#D" x="112.6" y="59.3"/>  <use xlink:href="#E" x="116.2" y="59.3"/>  <use xlink:href="#F" x="120.3" y="59.3"/>  <use xlink:href="#G" x="122.9" y="59.3"/>  <use xlink:href="#x" x="127.7" y="59.3"/> </g> <path d="m406.9 249-2.4-6.4v6.3h-.8v-7.1h1.3l2.2 5.8 2.4-5.8h1.2v7.1h-.8v-6.2l-2.4 6.2zm6.2-7.4.4.1.1.4-.1.4-.5.2s-.2 0-.3-.2l-.1-.4.1-.4.4-.1zm.4 2v5.3h-.8v-5.3zm5.2 3.9c0 .5-.2.9-.5 1.1-.4.4-1 .4-1.6.4h-1l-.6-.4v-.7l.7.3 1 .1c.3 0 .6 0 .8-.2.3-.1.4-.3.4-.6l-.1-.3-.4-.3a7.6 7.6 0 0 0-.8-.4 7.5 7.5 0 0 1-1-.4l-.4-.5-.3-.6c.1-.6.2-1 .6-1.1.3-.3.8-.4 1.4-.4h1.1a4 4 0 0 1 .5.4l-.2.6-.7-.2-.8-.1c-.3 0-.6 0-.8.2-.2 0-.3.2-.3.4s0 .3.3.4l.3.3.8.5.9.3c.2 0 .4.3.5.5.2.1.2.4.2.7zm2.2-6.2v4.9l.2-.2.2-.4.2-.2 1.7-1.8h1l-1.9 2.3 2 3h-.9l-1.9-2.5-.5.6v2h-1v-7.8zm9.1 5c0 .7-.2 1.5-.6 2-.5.5-1.1.7-1.9.7-.4 0-.9 0-1.2-.3-.4-.2-.7-.5-1-1l-.1-1.3c-.2-1.1.1-1.7.5-2.2.5-.5 1.1-.7 1.9-.7.4 0 .9 0 1.2.3.4.2.7.5 1 1l.2 1.4zm-4 0c0 .5 0 1 .4 1.5.2.2.6.5 1.2.5.4 0 .9-.2 1.1-.5.3-.4.4-1 .4-1.5 0-.7-.1-1.3-.4-1.5-.2-.4-.6-.6-1.2-.6-.5 0-.9.2-1.1.6-.4.2-.4.8-.4 1.5zm6.3 2.7h-.9v-7.8h.9zm3.9 0c-.5 0-1 0-1.3-.3-.4 0-.7-.4-.9-.9-.2-.4-.3-.8-.3-1.5s.1-1.3.3-1.6c.2-.4.5-.7 1-1l1.1-.1h.9l.6.3-.2.6-.6-.2h-.6c-1 0-1.6.6-1.6 2 0 .6.1 1.1.4 1.5.3.2.6.5 1.1.5l.9-.1.5-.2v.8a2 2 0 0 1-.5.2h-.8zm0 0" style="fill:none;stroke:#fff;stroke-width:3;stroke-linecap:butt;stroke-linejoin:round;stroke-miterlimit:10;stroke-opacity:.6" transform=" rotate(  340 422.482 245.936) "/> <g style="fill:#212121;fill-opacity:1" transform=" rotate(  340 422.482 245.936) ">  <use xlink:href="#H" x="402.7" y="248.9"/>  <use xlink:href="#F" x="411.8" y="248.9"/>  <use xlink:href="#z" x="414.4" y="248.9"/>  <use xlink:href="#A" x="419.2" y="248.9"/>  <use xlink:href="#I" x="424.5" y="248.9"/>  <use xlink:href="#J" x="430.6" y="248.9"/>  <use xlink:href="#G" x="433.2" y="248.9"/> </g> <path d="M202.3 250.4c0 .6-.3 1.1-.7 1.5-.6.3-1.1.5-1.9.5l-1-.1a3 3 0 0 1-1.1-.3v-.8a5 5 0 0 0 1.2.3l.9.1c.7 0 1.1 0 1.3-.3.2-.2.4-.5.4-.8 0-.3 0-.5-.2-.6 0-.2-.2-.3-.5-.5a7.2 7.2 0 0 0-1-.4c-.7-.2-1-.5-1.4-.8-.3-.3-.5-.8-.5-1.3 0-.4.2-.7.3-1a2 2 0 0 1 .9-.6 3 3 0 0 1 1.1-.3h1.1a5 5 0 0 1 .9.5l-.3.7a4.5 4.5 0 0 0-.8-.2h-.9c-.4-.2-.8-.2-1 0-.2.3-.3.6-.3 1l.1.5.5.4 1 .4.9.5c.4.2.6.4.7.7.2.2.3.5.3.9zm3.3-3.6c.7 0 1.2.2 1.5.5.3.3.4.7.4 1.3v3.7h-.5l-.3-.8c-.3.3-.5.6-.8.7l-.9.2c-.6 0-1-.1-1.3-.4-.3-.2-.5-.6-.5-1.2 0-.5.2-1 .6-1.2.4-.3 1-.6 2-.6h.9v-.3c0-.4-.1-.7-.3-.9-.2-.2-.5-.2-.8-.2h-.8l-.8.4-.2-.7.8-.3 1-.2zm1 2.9h-.6c-.8 0-1.3.1-1.5.3-.3.2-.5.5-.5.8.1.3.2.5.4.7l.6.2c.5 0 .9-.1 1.2-.4.3-.2.5-.6.5-1.1zm3.4 2.6h-.7v-7.6h.7zm3.7-5.5 1 .2a2 2 0 0 1 .6.6l.2-.6h.7v5.4c0 .6-.2 1.3-.6 1.6-.4.5-1 .7-1.8.7s-1.4-.1-2-.3v-.9c.7.3 1.4.5 2.1.5.5 0 .9-.2 1.1-.4.2-.3.4-.7.4-1.2v-.8c-.4.4-1.1.8-1.8.8s-1.2-.4-1.6-.7c-.3-.5-.5-1.2-.5-2 0-1.1.2-1.7.5-2.2.4-.5 1-.7 1.7-.7zm.1.8c-.4 0-.8.2-1 .4-.3.5-.4 1-.4 1.6 0 .7.1 1.2.3 1.6.3.3.6.5 1.1.5.6 0 1-.2 1.2-.5.2-.2.4-.7.4-1.4v-.2c0-.6-.2-1.2-.4-1.5-.3-.4-.7-.5-1.2-.5zm8.8 2c0 .9-.2 1.6-.7 2-.4.6-.9.9-1.8.9-.5-.1-1.1-.2-1.3-.5-.4-.1-.6-.5-.8-1-.3-.3-.4-.8-.4-1.4 0-.9.2-1.6.7-2 .4-.6 1-.8 1.8-.8.5 0 1 .2 1.3.4.4.2.6.5.9 1 .2.2.3.8.3 1.3zm-4 0c-.1.6-.1 1.1.2 1.5.4.4.8.6 1.3.6s1-.2 1.2-.7c.2-.3.4-.8.4-1.4s-.2-1.1-.4-1.5c-.3-.3-.7-.5-1.2-.5s-1.1.2-1.2.4c-.2.5-.4 1-.4 1.6zm2.9-5v.1l-.4.5-.5.6-.5.4h-.6a16.3 16.3 0 0 0 .7-1.1c0-.3.2-.4.3-.6zm4.3 7.1h.4l.3-.2v.7l-.4.1h-1.3c-.2-.2-.4-.3-.5-.7-.3-.1-.3-.4-.3-.9v-3h-.7v-.6l.7-.3.4-1.1h.6v1.2h1.5v.7h-1.6v3.1c.1.3.1.6.3.7.1.2.3.3.6.3zm3.8-4.9c.7 0 1.2.2 1.5.5.3.3.4.7.4 1.3v3.7h-.5l-.3-.8c-.3.3-.5.6-.8.7l-.9.2c-.6 0-1-.1-1.3-.4-.3-.2-.5-.6-.5-1.2 0-.5.2-1 .6-1.2.4-.3 1-.6 2-.6h.9v-.3c0-.4-.1-.7-.3-.9-.2-.2-.5-.2-.8-.2h-.8l-.8.4-.2-.7.8-.3 1-.2zm1 2.9h-.6c-.8 0-1.3.1-1.5.3-.3.2-.5.5-.5.8.1.3.2.5.4.7l.6.2c.5 0 .9-.1 1.2-.4.3-.2.5-.6.5-1.1zm5.1-2.9h.6v1h-.8c-.1-.2-.4-.2-.5 0-.4.2-.6.4-.7.7-.3.3-.3.6-.3 1v2.7h-1v-5.3h1v1.1l.8-.8c.2-.3.5-.4.9-.4zm1.6-1.3.1-.5.4-.1c.1.1.2.1.2.2l.3.4c0 .2 0 .3-.3.4l-.2.1h-.4l-.1-.5zm-.6 9.2h-.4l-.4-.1v-.7h1.1l.3-.9v-6h1v6.1c-.1.5-.3.9-.5 1.2-.2.3-.6.4-1.1.4zm5.3-7.9c.5 0 1 .2 1.3.5.4.3.6.7.6 1.3v3.7h-.7l-.2-.8-.7.7-1 .2c-.7 0-1.1-.1-1.3-.4-.3-.2-.5-.6-.5-1.2 0-.5.2-1 .6-1.2.5-.3 1.1-.6 2-.6h.9v-.3c0-.4-.1-.7-.3-.9-.2-.2-.5-.2-.8-.2h-.9l-.6.4-.4-.7.9-.3 1.1-.2zm1 2.9h-.8c-.7 0-1.1.1-1.4.3-.2.2-.4.5-.4.8 0 .3.1.5.3.7l.7.2c.5 0 .8-.1 1.1-.4.3-.2.5-.6.5-1.1zm.3-5-.4.5-.5.6-.5.4h-.6a16.4 16.4 0 0 0 .6-1.1l.3-.6zm4.8 2.1c.6 0 1.1.2 1.4.5.5.3.5.8.5 1.5v3.5h-.8v-3.4c0-.9-.4-1.3-1.2-1.3-.6 0-1 .1-1.3.4-.2.4-.3.9-.3 1.5v2.8h-.9v-5.4h.7l.2.8.7-.7 1-.2zm0 0" style="fill:none;stroke:#fff;stroke-width:3;stroke-linecap:butt;stroke-linejoin:round;stroke-miterlimit:10;stroke-opacity:.6" transform=" rotate(  340 223.702 249.294) "/> <g style="fill:#212121;fill-opacity:1" transform=" rotate(  340 223.702 249.294) ">  <use xlink:href="#K" x="197.2" y="252.3"/>  <use xlink:href="#x" x="202.7" y="252.3"/>  <use xlink:href="#J" x="208.3" y="252.3"/>  <use xlink:href="#L" x="210.9" y="252.3"/>  <use xlink:href="#M" x="217.1" y="252.3"/>  <use xlink:href="#D" x="223.1" y="252.3"/>  <use xlink:href="#x" x="226.7" y="252.3"/>  <use xlink:href="#E" x="232.3" y="252.3"/>  <use xlink:href="#N" x="236.5" y="252.3"/>  <use xlink:href="#B" x="239.1" y="252.3"/>  <use xlink:href="#y" x="244.7" y="252.3"/> </g> <path d="M228.9 278.7h-4v-7.2h4v.8h-3.1v2.3h2.9v.7h-3v2.7h3.3zm-.5-9.5v.1l-.4.5-.5.6-.6.4h-.5a16.3 16.3 0 0 0 .6-1.1l.3-.6zm5.4 8c0 .5-.2 1-.6 1.2-.2.2-.9.4-1.5.4l-1-.1c-.3 0-.5-.1-.7-.3v-.8c.2.2.5.4.8.4l.9.1 1-.2.3-.6-.1-.4-.4-.3a7.6 7.6 0 0 0-.9-.4 7.5 7.5 0 0 1-.8-.4l-.6-.4-.2-.8c0-.4.2-.8.5-1 .5-.2.9-.4 1.5-.4l1 .1a4 4 0 0 1 .6.3l-.2.7-.7-.3h-1.6c-.2.2-.3.4-.3.6l.2.4.4.3.8.3.9.4.5.5.2.7zm4.8 1.5h-4v-.7l3.1-4h-3v-.7h3.8v.7l-2.8 4h2.9zm3.2-5.5c.7 0 1.2.2 1.5.5.3.2.5.7.5 1.3v3.7h-.8v-.8l-.9.7-.9.2c-.7 0-1.1-.2-1.4-.4-.2-.3-.4-.7-.4-1.2s.2-1 .6-1.2c.5-.3 1.1-.5 2-.5h1v-.5c0-.3-.3-.6-.5-.8-.1-.2-.4-.2-.7-.2-.3 0-.5 0-.8.1l-.7.3-.3-.7.8-.3 1-.2zm1.2 2.9h-.9c-.7-.1-1.1.1-1.4.3-.2.2-.4.6-.4.8 0 .3.1.5.3.7l.7.1c.5 0 .8-.1 1.2-.3.3-.3.4-.6.4-1.2zm3.3-5.1v5l.2-.3.2-.3.3-.4 1.6-1.7h1l-1.9 2.3 2 3h-.9l-1.9-2.3-.6.4v2h-.9V271zm4 5.4v-.8h2.4v.8zm7 2.3-2.4-6.3v6.3h-.8v-7.2h1.3l2.2 5.9 2.4-5.9h1.2v7.2h-.9v-5.4l.2-.9-2.5 6.3zm7.7-5.5c.8 0 1.3.2 1.6.5.2.2.4.7.4 1.3v3.7h-.6l-.2-.8-.8.7-1 .2c-.5 0-1-.2-1.4-.4-.2-.3-.3-.7-.3-1.2s.2-1 .6-1.2c.4-.3 1-.5 2-.5h.7v-.5c.1-.3.1-.6-.2-.8-.1-.2-.4-.2-.8-.2-.2 0-.5 0-.8.1l-.7.3-.2-.7.7-.3 1-.2zm1.2 2.9h-.9c-.6-.1-1 .1-1.3.3-.3.2-.4.6-.4.8 0 .3 0 .5.2.7l.8.1c.4 0 .8-.1 1-.3.4-.3.6-.6.6-1.2zm4.4-2.9 1 .2a2 2 0 0 1 .6.6l.2-.7h.7v5.5c0 .7-.1 1.2-.6 1.7-.4.4-1 .5-1.8.5s-1.4 0-2-.3v-.7c.7.2 1.3.4 2.1.4.5 0 .9-.2 1.2-.5 0-.2.3-.6.3-.9v-1c-.5.5-1.1.8-1.8.8s-1.2-.3-1.6-.8c-.3-.4-.5-1.1-.5-2 0-1 .2-1.6.5-2 .4-.5 1.1-.8 1.7-.8zm.1.8c-.5 0-.8 0-1 .5-.4.3-.5.9-.5 1.5.1.7.1 1.2.4 1.5.4.5.6.6 1.1.6.6-.1 1-.2 1.3-.5 0-.3.3-.6.3-1.4v-.2c0-.7-.3-1.2-.4-1.6-.3-.3-.7-.4-1.2-.4zm3.3-.7h1l1 3 .4.9.1.6.3-.6.2-.8 1.1-3h1l-2.3 5.9c-.2.7-.5 1.1-.8 1.3-.3.4-.7.5-1.2.5h-.4l-.4-.1v-.7h.7c.3.1.5.1.7-.1l.6-.8v-.7zm8-.1c.5 0 1 .2 1.3.5.4.2.6.7.6 1.3v3.7h-.7l-.1-.8-.9.7-.9.2c-.7 0-1.1-.2-1.3-.4-.3-.3-.5-.7-.5-1.2s.2-1 .6-1.2c.5-.3 1.1-.5 2-.5h1v-.5c-.1-.3-.3-.6-.5-.8-.1-.2-.3-.2-.6-.2-.4 0-.6 0-.9.1l-.7.3-.4-.7 1-.3 1-.2zm1 2.9h-.8c-.7-.1-1.1.1-1.4.3-.2.2-.4.6-.4.8 0 .3.1.5.3.7l.7.1c.6 0 .9-.1 1.2-.3.3-.3.4-.6.4-1.2zm5-2.9h.7l-.1 1h-.6c-.3-.2-.6-.2-.8 0l-.6.7-.2 1v2.7h-.9v-5.3h.7l.2 1 .6-.7c.3-.3.7-.4 1-.4zm6.1 2.8c0 .9-.1 1.6-.7 2-.4.6-1 .9-1.8.9-.5-.1-.9-.2-1.3-.4l-.8-1c-.2-.4-.3-1-.3-1.5 0-1 .2-1.6.6-2 .5-.6 1-.9 1.9-.9.3.1.9.2 1.2.5.4.2.7.4.9.9.2.4.3.9.3 1.5zm-4 0c-.1.6-.1 1 .3 1.5.3.5.7.6 1.2.6.6-.1 1-.2 1.2-.6.3-.4.4-.9.4-1.5s-.1-1.1-.4-1.5c-.2-.4-.6-.5-1.2-.5-.5 0-1 0-1.2.5-.2.5-.3.9-.3 1.5zm7.9-2.8h.6v1h-.6c-.3-.2-.6-.2-.8 0-.3.2-.5.4-.6.7l-.2 1v2.7h-.9v-5.3h.7l.1 1 .7-.7c.3-.3.6-.4 1-.4zm5.1 4c0 .5-.1 1-.5 1.2-.4.2-1 .4-1.6.4l-1-.1c-.3 0-.5-.1-.7-.3v-.8c.2.2.5.4.8.4l.9.1 1-.2.3-.6-.1-.4-.4-.3a7.6 7.6 0 0 0-.8-.4 7.5 7.5 0 0 1-1-.4l-.4-.4-.3-.8c0-.4.2-.8.6-1 .3-.2.8-.4 1.4-.4l1 .1a4 4 0 0 1 .7.3l-.3.7-.7-.3h-1.6c-.2.2-.3.4-.3.6 0 .1 0 .3.2.4l.4.3.8.3.9.4.5.5c.2.2.2.4.2.7zm4.8 1.5h-4v-.7l3.1-4h-3v-.7h3.8v.7l-2.8 4h2.9zm3.3-5.5c.6 0 1 .2 1.4.5.4.2.5.7.5 1.3v3.7h-.7l-.1-.8-.9.7-.9.2c-.7 0-1.1-.2-1.4-.4-.1-.3-.4-.7-.4-1.2s.3-1 .7-1.2c.4-.3 1-.5 2-.5h.7v-.5c.1-.3.1-.6-.1-.8-.3-.2-.5-.2-.9-.2-.3 0-.5 0-.8.1l-.7.3-.3-.7.9-.3 1-.2zm1 2.9h-.8c-.7-.1-1.1.1-1.4.3-.2.2-.3.6-.3.8 0 .3 0 .5.2.7l.7.1c.5 0 .9-.1 1.2-.3.2-.3.4-.6.4-1.2zm.3-5.1-.4.6-.5.6-.6.4h-.5v-.1a16.3 16.3 0 0 0 .7-1l.2-.5zm4.1 2.2 1 .2a2 2 0 0 1 .7.6l.3-.7h.6v5.5c0 .7-.2 1.2-.6 1.7-.4.4-1 .5-1.8.5s-1.4 0-2-.3v-.7c.7.2 1.2.4 2.1.4.4 0 .8-.2 1.1-.5.2-.2.3-.6.3-.9v-1c-.3.5-1 .8-1.6.8-.7 0-1.3-.3-1.7-.8-.4-.4-.6-1.1-.6-2 0-1 .2-1.6.6-2 .4-.5 1-.8 1.6-.8zm.2.8c-.5 0-.8 0-1 .5-.4.3-.6.9-.6 1.5.1.7.3 1.2.5 1.5.2.5.6.6 1 .6.7-.1 1.1-.2 1.3-.5.2-.3.3-.6.3-1.4v-.2c0-.7-.1-1.2-.3-1.6-.3-.3-.7-.4-1.2-.4zm0 0" style="fill:none;stroke:#fff;stroke-width:3;stroke-linecap:butt;stroke-linejoin:round;stroke-miterlimit:10;stroke-opacity:.6" transform="rotate(  340 414.139 148.591) translate(142.4555,-127.08687)"/> <g style="fill:#976e94;fill-opacity:1" transform=" rotate(  340 414.139 148.591) ">  <use xlink:href="#O" x="366.4" y="151.6"/>  <use xlink:href="#z" x="371.9" y="151.6"/>  <use xlink:href="#P" x="376.7" y="151.6"/>  <use xlink:href="#x" x="381.4" y="151.6"/>  <use xlink:href="#A" x="387" y="151.6"/>  <use xlink:href="#Q" x="392.4" y="151.6"/>  <use xlink:href="#H" x="395.6" y="151.6"/>  <use xlink:href="#x" x="404.7" y="151.6"/>  <use xlink:href="#L" x="410.3" y="151.6"/>  <use xlink:href="#C" x="416.4" y="151.6"/>  <use xlink:href="#x" x="421.5" y="151.6"/>  <use xlink:href="#E" x="427.1" y="151.6"/>  <use xlink:href="#I" x="431.1" y="151.6"/>  <use xlink:href="#E" x="437.1" y="151.6"/>  <use xlink:href="#z" x="441.2" y="151.6"/>  <use xlink:href="#P" x="446" y="151.6"/>  <use xlink:href="#B" x="450.7" y="151.6"/>  <use xlink:href="#L" x="456.3" y="151.6"/> </g> <path d="M7.4 149.9c-.8 0-1.5-.3-2-.9-.4-.4-.5-1-.5-1.9-.1-.4-.1-.8.1-1.3 0-.4.2-.8.4-1.2.2-.4.6-.8.8-1 .3-.5.7-.6 1-.9l1.6-.2c.5 0 1.1.2 1.6.5l-.4.7a4 4 0 0 0-.6-.3h-.7c-.5-.1-1-.1-1.3.2l-1 .9a4 4 0 0 0-.4 1.3l-.2 1.2c0 .7.1 1.2.4 1.6.3.3.8.4 1.3.4h.8l.8-.2v.8l-.8.2a5 5 0 0 1-1 0zm3-.1 1.5-7.2h.9l-.6 3h3l.8-3h1l-1.8 7.2h-.8l.7-3.4H12l-.7 3.4zm6.8 0 1.5-7.2h.9l-.8 3.5.6-.7 2.8-2.8h1l-2.9 3.2 1.6 4h-1l-1.4-3.5-.8.7-.7 2.8zm8.4.1c-.9 0-1.6-.3-2-.9-.6-.4-.7-1-.7-1.9 0-.6 0-1.2.2-1.8.2-.5.4-1 .9-1.3.2-.5.6-1 1-1.1a3 3 0 0 1 1.5-.4c.8 0 1.5.3 1.9.8.5.5.7 1.1.7 2-.1.7-.1 1.2-.2 1.8l-.7 1.4c-.3.5-.7.8-1.2 1-.4.2-1 .4-1.4.4zm0-.9a2 2 0 0 0 1-.2c.4-.2.7-.5.9-.9.2-.3.3-.7.5-1.2.1-.4.1-.9.1-1.4 0-.6-.1-1.1-.4-1.5-.3-.3-.7-.5-1.3-.5a2 2 0 0 0-1 .3c-.4.2-.6.5-.9.8l-.5 1.2a6 6 0 0 0 0 1.5c-.1.6 0 .9.3 1.4.3.5.7.6 1.3.6zm8.2.9-.8-.1-.8-.3v-.8l.7.2 1 .2c.3-.1.5-.1.8-.2.2.1.3-.2.6-.4l.2-.7c0-.3 0-.5-.2-.8l-1-.6a4.4 4.4 0 0 1-.6-.4 1.9 1.9 0 0 1-.5-.6l-.2-.8c0-.4.1-.8.4-1.1a2 2 0 0 1 .8-.7 3 3 0 0 1 1.2-.3l1 .1.8.4-.4.7-.6-.3h-.8c-.4-.1-.7-.1-1 .1-.4.3-.4.6-.4 1.1v.4c.1.2.3.3.4.4l.6.4.8.5a2 2 0 0 1 .5.6l.2.8c0 .7-.3 1.2-.8 1.6-.4.4-1 .7-1.9.7zm1.3-8-.4-.7-.5-.8h.6l.4.2.4.6.6-.5.6-.4h.5v.1l-.3.6-.7.4-.3.6zm3.8 8c-.4 0-.7-.1-1-.3-.1-.2-.2-.5-.2-.9v-.7l.6-3h-.8v-.2l1.1-.5.4-1.1h.6l-.3 1.2h1.4l-.2.7h-1.3l-.6 2.9v.3l-.2.3.2.4h1.1v.6h-.3a2 2 0 0 1-.5.4zm3.6-6.4-.5-.1v-.8l.7-.2c.2 0 .4.2.4.5l-.2.4c-.1.2-.3.2-.4.2zm-1.9 6.3 1.2-5.4h.9l-1.2 5.4zm4.3.1c-.4 0-.9-.2-1-.5-.4-.3-.6-.8-.6-1.4.1-.5.1-1 .3-1.4l.6-1.2.8-.8a2 2 0 0 1 1-.3c.5 0 .8.1 1 .3l.3.6.6-.8h.5l-1.1 5.4h-.7l.1-1-.8.7c-.3.3-.7.5-1 .5zm.3-.9c.2.1.5.1.7 0l.6-1a4 4 0 0 0 .5-.9 3 3 0 0 0 0-.5 4 4 0 0 0 .2-.6c-.1-.2-.1-.5-.4-.7-.1-.2-.4-.3-.7-.3-.1 0-.5.1-.7.3a2 2 0 0 0-.4.7c-.3.2-.4.6-.5 1l-.2 1c0 .5 0 .8.2 1h.7zM49.7 149.8l-.6-5.4h.9l.3 3v1.6h.2l.2-.5.3-.5.2-.6 1.6-3h1l-3 5.4zm3.8 0 1.2-5.4h.8l-.1 1c0-.2.2-.4.4-.5a2 2 0 0 1 .6-.5l.8-.1c.4 0 .7.1 1 .3.2.4.4.6.4 1v.5l-.3.4-.6 3.3h-1l.9-3.4v-.4l.1-.3c-.1-.4-.3-.6-.7-.6-.3-.1-.5-.1-.8.2-.2.2-.5.4-.7.8l-.5 1.3-.5 2.4zm7.7-6.3-.2-.1-.3-.4s0-.3.3-.4l.3-.2c.3 0 .5.2.5.5 0 .1 0 .3-.2.4-.1.2-.2.2-.4.2zm-1.8 6.3 1.1-5.4h.9l-1.2 5.4zm4.7.1c-.6 0-1-.2-1.4-.5-.4-.4-.6-.9-.6-1.5l.2-1.4.7-1.1c.1-.4.4-.6.8-.8.2-.2.7-.3 1.1-.3h.7l.7.4-.3.6-.5-.3H65c-.4 0-.8 0-1 .3-.4.4-.7.7-.8 1.1a4 4 0 0 0-.2 1.6c0 .3.1.6.4.9l.8.1h.8a7 7 0 0 0 .5-.3v.8l-.5.3h-1zm2.4-.1 1.5-7.6h1l-.7 3-.3 1.2v.6l2.4-2.6h1l-2.3 2.3 1.5 3h-1l-1.1-2.4-.7.5-.4 2zm6.9.1c-.7 0-1.1-.2-1.5-.6-.3-.3-.5-.8-.5-1.5 0-.4 0-.8.2-1.2l.5-1.2.9-.8a2 2 0 0 1 1-.3c.6 0 1 .1 1.2.3.3.4.4.6.4 1 0 .3 0 .6-.3 1l-1 .5c-.5.3-1 .3-1.8.3h-.2v.4c0 .4.1.7.3 1 .2.2.5.2 1 .2h.5a5 5 0 0 0 .9-.4v.9a6 6 0 0 1-.8.2l-.8.3zm-1-3.2h1.3l.8-.5c.2-.2.3-.3.3-.6 0-.2 0-.3-.2-.4l-.5-.2c-.4 0-.7.2-1.1.5-.2.3-.4.7-.5 1.2zm1.4-3v-.1l.3-.6.4-.4.3-.6h1v.2l-.4.5-.6.5a6 6 0 0 1-.5.5zm-44.4 18-.6-5.4h.9l.2 3 .1.7v1c.3 0 .3-.3.4-.5a24.4 24.4 0 0 1 .6-1.2l1.5-3h1l-3.1 5.4zm3.8 0 1.2-5.4h.6v1l.5-.5.5-.4.7-.2h.3l.3.2-.3.7h-.4c-.4-.1-.7-.1-1 .2l-.6.9-.3 1-.7 2.6zm6 .1c-.6 0-1-.2-1.4-.5-.4-.3-.6-.8-.6-1.5 0-.5 0-1 .2-1.4.1-.4.3-.8.6-1 .2-.4.5-.8.9-1 .3-.1.7-.2 1.1-.2l.7.1.7.2-.4.7-.4-.1-.6-.1c-.3 0-.7 0-1 .4-.3.2-.5.6-.6 1a4 4 0 0 0-.4 1.4c.1.4.2.7.4 1 .2.2.6.2.9.2h.7a7 7 0 0 0 .6-.2v.7l-.6.2-.8.1zm2.4-.1 1.6-7.6h.8l-.4 2-.1.6-.2.6.5-.5.6-.4.6-.1c.6 0 1 0 1.1.3.3.2.4.6.4 1v.4l-.1.4-.7 3.3h-.9l.7-3.4.1-.6c0-.2 0-.4-.2-.5 0-.2-.2-.2-.4-.2-.3 0-.6 0-.8.2l-.8.8-.4 1.4-.6 2.3zm5.2 2.4h-.4l-.3-.1v-.7h.7c.2.1.5.1.7-.1l.5-.8.4-.6-.9-5.5h1l.2 2.7v1.4l.3.6a28.4 28.4 0 0 1 .4-1.2l.3-.5 1.6-3h1l-3.6 6.3c-.2.5-.4.9-.7 1.1-.3.3-.7.4-1.2.4zm0 0" style="fill:none;stroke:#fff;stroke-width:2;stroke-linecap:butt;stroke-linejoin:round;stroke-miterlimit:10;stroke-opacity:.6" transform=" rotate(  340 40.2336 152.733) "/> <g style="fill:#007f00;fill-opacity:1" transform=" rotate(  340 40.2336 152.733) ">  <use xlink:href="#R" x="4.1" y="149.8"/>  <use xlink:href="#S" x="10" y="149.8"/>  <use xlink:href="#T" x="16.8" y="149.8"/>  <use xlink:href="#U" x="22.2" y="149.8"/>  <use xlink:href="#glyph3-5" x="29.4" y="149.8"/>  <use xlink:href="#V" x="32" y="149.8"/>  <use xlink:href="#W" x="37" y="149.8"/>  <use xlink:href="#X" x="40.4" y="149.8"/>  <use xlink:href="#Y" x="42.9" y="149.8"/>  <use xlink:href="#Z" x="48.6" y="149.8"/>  <use xlink:href="#aa" x="53.3" y="149.8"/>  <use xlink:href="#X" x="59.1" y="149.8"/>  <use xlink:href="#ab" x="61.7" y="149.8"/>  <use xlink:href="#ac" x="66.2" y="149.8"/>  <use xlink:href="#ad" x="70.9" y="149.8"/>  <use xlink:href="#Z" x="28.3" y="161.7"/>  <use xlink:href="#ae" x="33" y="161.7"/>  <use xlink:href="#ab" x="36.7" y="161.7"/>  <use xlink:href="#af" x="41.3" y="161.7"/>  <use xlink:href="#ag" x="47.1" y="161.7"/> </g> <path d="m352.5 269.3 1.5-7.1h1.8c.7 0 1.2 0 1.6.3.4.3.5.7.5 1.3.1.5-.1.9-.4 1.2-.3.3-.7.5-1.2.6l.8.5c.3.3.4.6.4 1 0 .5-.1.9-.5 1.2 0 .3-.4.7-.9.7-.4.2-.8.3-1.4.3zm1.7-4.1h1.2l.8-.1.6-.5.2-.6c0-.4-.1-.6-.3-.8-.2-.2-.5-.3-1-.3h-1zm-.7 3.3h1.3c.5 0 1 0 1.2-.3.4-.3.5-.7.5-1.2 0-.2 0-.5-.3-.7-.2-.3-.5-.4-1-.4H354zm6.5.9c-.6 0-.9-.1-1-.4-.3-.2-.4-.5-.4-1v-.4l.1-.4.7-3.3h.9l-.7 3.4-.1.7.1.5.6.2c.2 0 .5-.1.7-.3.3-.1.5-.4.8-.7l.5-1.4.5-2.4h.8l-1 5.4h-.9l.2-1-.5.5-.6.4-.8.2zm2.5-6.4-.2-.1-.1-.3.1-.4.4-.2.3.1.1.3-.1.4-.4.2zm-1.7 0-.3-.1v-.7l.5-.2.2.1.1.3-.1.4-.4.2zm3.3 6.3 1.6-7.6h.9l-.6 3-.3 1.3-.2.5 2.5-2.5h1l-2.1 2.2 1.3 3.1h-1l-1-2.5-.9.6-.3 1.9zm4.9 0 1.8-7.6h.8l-.7 3-.3 1.3-.2.5 2.6-2.5h1l-2.3 2.2 1.5 3.1h-1l-1.1-2.5-.7.6-.5 1.9zm0 0" style="fill:none;stroke:#fff;stroke-width:2;stroke-linecap:butt;stroke-linejoin:round;stroke-miterlimit:10;stroke-opacity:.6" transform="rotate(  340 363.418 243.837) translate(0,-22.461864)"/> <g style="fill:#45663a;fill-opacity:1" transform=" rotate(  340 363.418 243.837) ">  <use xlink:href="#ah" x="352" y="246.8"/>  <use xlink:href="#ai" x="358" y="246.8"/>  <use xlink:href="#ac" x="363.8" y="246.8"/>  <use xlink:href="#ac" x="368.8" y="246.8"/> </g></svg>