<svg xmlns="http://www.w3.org/2000/svg" xmlns:xlink="http://www.w3.org/1999/xlink" viewBox="0 0 497 279"> <defs overflow="visible" style="stroke:none">  <path id="s" d="M4.4 2.4V-.7l-.6.6-1 .1C2 0 1.5-.1 1.1-.6.8-1 .5-1.8.5-2.6c0-1.1.3-1.8.7-2.2.4-.5 1-.7 1.6-.7.4 0 .7.1 1 .3a2 2 0 0 1 .6.6l.3-.8h.6v7.8ZM3-.6c.5 0 1-.2 1.1-.5.2-.3.3-.8.3-1.4v-.2c0-.6 0-1.2-.3-1.5-.2-.4-.6-.5-1.2-.5-.5 0-.9.2-1.1.5-.2.4-.3 1-.3 1.5 0 .7 0 1.2.3 1.5.3.4.6.6 1.2.6Zm0 0"/>  <path id="r" d="M1.7-7.6v2.9l.7-.5c.2-.2.6-.3 1-.3.6 0 1.2.3 1.6.8.4.4.6 1.1.6 1.9C5.6-1.7 5.4-1 5-.6c-.4.6-1 .7-1.6.7-.4-.1-.8-.1-1-.2l-.7-.6-.2.7H.8v-7.6Zm1.5 2.9c-.5 0-1 .1-1.1.5-.3.2-.4.8-.4 1.5s.1 1.2.3 1.5c.3.4.7.6 1.3.6.4 0 .7-.2 1-.6.3-.3.4-.8.4-1.5 0-1.3-.5-2-1.5-2Zm0 0"/>  <path id="q" d="M5.3-5.4V0h-.7l-.1-.7c-.3.3-.5.5-.9.6l-.9.2C2.1 0 1.6-.1 1.3-.4 1-.7.8-1.2.8-1.8v-3.6h.9v3.5c0 .8.3 1.3 1.2 1.3.6 0 1-.2 1.1-.5.3-.4.5-.9.5-1.5v-2.8Zm0 0"/>  <path id="p" d="M6.7-3.6c0 1.2-.3 2-1 2.6C5-.3 4.1 0 3 0H1v-7.1h2.2c.7 0 1.3.1 1.8.4.6.2 1 .6 1.3 1.1.2.6.4 1.2.4 2Zm-1 0c0-1-.2-1.7-.7-2.1-.4-.4-1-.7-2-.7H2v5.6h.9c1.8 0 2.7-1 2.7-2.8Zm0 0"/>  <path id="o" d="M1.7 0H.8v-7.6h1Zm0 0"/>  <path id="n" d="M1.3-7.4c.1 0 .3 0 .4.2l.1.4-.1.4-.4.2-.4-.3-.1-.3.1-.4.4-.2Zm.4 2V0H.8v-5.4Zm0 0"/>  <path id="m" d="M2 0 0-5.4h1l1 3.2.4.5v.5l.1.4.2-.4a16 16 0 0 1 .3-1l1.1-3.2h1L3 0Zm0 0"/>  <path id="l" d="M4.3-1.5c0 .5-.2 1-.5 1.2-.4.3-1 .4-1.6.4l-1-.1-.7-.2V-1l.8.3h1.8l.4-.7-.1-.4L3-2a7.5 7.5 0 0 0-.8-.4 7.5 7.5 0 0 1-1-.4l-.4-.5L.5-4c0-.5.2-.8.6-1 .3-.4.8-.6 1.4-.6l1 .2a4 4 0 0 1 .6.4l-.1.6-.8-.2-.7-.1-.9.1c-.2.2-.3.3-.3.6s0 .2.2.3l.4.3.8.3.9.4.4.5c.3.2.3.4.3.7Zm0 0"/>  <path id="k" d="M3-5.5c.3 0 .7.1 1 .3a2 2 0 0 1 1 .9v1.8H1.5c0 .5.1 1 .4 1.4.3.3.7.4 1.3.4H4l.9-.3v.8L4 0a5 5 0 0 1-1 0 3 3 0 0 1-1.2-.1 2.2 2.2 0 0 1-1-1.1c0-.2-.2-.8-.2-1.3-.1-.7 0-1.2.2-1.6.2-.5.5-.9.9-1 .3-.2.7-.4 1.2-.4Zm0 .8c-.6 0-.9.1-1 .4-.4.2-.6.6-.6 1.1h2.8c0-.5-.1-.8-.3-1.1-.2-.3-.5-.4-1-.4Zm0 0"/>  <path id="j" d="M3.4-5.5c.7 0 1.2.2 1.6.5.2.3.4.8.4 1.5V0h-.9v-3.4c0-.9-.4-1.3-1.2-1.3-.6 0-1 .1-1.2.5-.3.2-.4.8-.4 1.4V0H.8v-5.4h.8v.8h.2c.2-.4.3-.5.7-.7l1-.2Zm0 0"/>  <path id="i" d="M2.9-5.5c.6 0 1.1.2 1.4.5.3.3.5.7.5 1.3V0h-.6L4-.8c-.3.3-.5.6-.8.8h-1c-.5 0-1 0-1.3-.3C.6-.5.5-.9.5-1.5c0-.5.2-1 .5-1.2.5-.3 1-.5 2-.5h.8v-.3c.2-.5.2-.8-.2-1l-.8-.2H2l-.7.5L1-5l1-.3.9-.2Zm1 2.9h-.8c-.6 0-1 .1-1.4.3-.1.3-.3.5-.3.8 0 .3 0 .5.2.7l.7.2c.5 0 .9-.1 1.2-.4.3-.2.4-.6.4-1Zm.1 0"/>  <path id="h" d="m0 2-.5-.2h-.3V1h.4l.3.2.5-.2C.6 1 .7.8.8.7L.9 0v-7.1H2v7c-.2.7-.5 1.1-.8 1.5C1 1.7.5 2 0 2Zm0 0"/>  <path id="g" d="M2.8 0C2 0 1.4 0 1-.5.7-1 .5-1.8.5-2.6c0-1.1.3-1.8.7-2.2.4-.5.8-.7 1.6-.7.4 0 .7.1 1 .3a2 2 0 0 1 .6.5v-2.8h.9V0h-.7l-.1-.7a2 2 0 0 1-.8.6l-.9.1Zm0-.5c.8-.1 1.1-.3 1.4-.6.1-.3.2-.8.2-1.4v-.2c0-.6 0-1.1-.3-1.5-.2-.4-.6-.5-1.2-.5-.5 0-.9.2-1 .5-.4.4-.5 1-.5 1.5.1.7.1 1.2.4 1.5.3.4.6.6 1 .6Zm.1-.1"/>  <path id="f" d="M3.3-5.5H4l-.1 1.1-.3-.3h-.3c-.3 0-.5 0-.8.2l-.5.7-.3 1V0H.8v-5.4h.8v1h.2l.6-.6c.3-.3.6-.5 1-.5Zm0 0"/>  <path id="e" d="M3.3-4.7H2V0H1v-4.7H.3V-5l.7-.4v-.3c0-.7.2-1.2.5-1.5.5-.3.8-.5 1.3-.5l.6.1.6.1-.4.7h-.3L2.8-7c-.2 0-.5 0-.6.4-.2.2-.2.5-.2.9v.3h1.3Zm0 0"/>  <path id="d" d="M1.7-7.6v4.8L2-3v-.3l.4-.2L4-5.4h1L2.9-3l2.4 3H4.2L2.3-2.5l-.6.5v2H.8v-7.6Zm0 0"/>  <path id="c" d="M3 0c-.5 0-.9 0-1.3-.1-.3-.3-.6-.6-.7-.9-.4-.5-.5-1-.5-1.7 0-.6.2-1.1.5-1.5 0-.6.4-.8.8-1.1.2-.1.8-.2 1.2-.2l.8.1.7.2-.3.8-.6-.2H3c-1-.1-1.5.6-1.5 1.9 0 .7 0 1 .3 1.4.3.5.7.6 1.2.6h.8l.6-.3v.8a2 2 0 0 1-.6.2H3Zm0 0"/>  <path id="b" d="M5.5-2.7c0 .9-.2 1.7-.7 2-.4.7-1 .9-1.8.9-.5-.2-.9-.2-1.3-.4-.3-.2-.6-.6-.7-1C.6-1.6.5-2 .5-2.7c0-.9.3-1.6.7-2 .5-.5 1-.8 1.8-.8.5 0 1 .2 1.3.5.4 0 .7.4.9.9.2.2.3.7.3 1.3Zm-4 0c0 .7 0 1.2.3 1.5.3.4.7.6 1.2.6.6 0 1-.2 1.2-.6.3-.3.4-.8.4-1.5s-.1-1.1-.4-1.5c-.2-.3-.6-.5-1.2-.5-.5 0-1 .2-1.2.5-.2.4-.3.9-.3 1.5Zm0 0"/>  <path id="a" d="M3-7.1c.7 0 1.4.1 2 .5.2.3.4.8.4 1.5.1.4.1.7-.1 1l-.5.5-.7.4 2 3.2H5L3.2-3H1.9v3h-1v-7.1Zm-.2.7h-.9v2.7h1c.6 0 1.1-.1 1.3-.3.3-.3.4-.6.4-1 0-.6-.1-1-.4-1-.3-.4-.7-.5-1.3-.5Zm.1 0"/>  <path d="M1 0v-7.1h4V0Zm.4-.5h3.1v-6.1h-3Zm.1 0"/> </defs> <image xlink:href="svg/9/100_3.jpg" width="497" height="279"/> <path d="M322.1 211.9c1 0 1.6.1 2 .5.4.3.7.8.7 1.6 0 .3-.1.6-.3 1l-.5.5-.7.3 2 3.2h-1l-1.9-3h-1.3v3H320v-7Zm0 .8h-1v2.6h.9c.7 0 1.1 0 1.4-.3.3-.3.4-.6.4-1 0-.5-.1-.8-.4-1-.4-.2-.7-.3-1.4-.3Zm8.9 3.6c0 1-.4 1.7-.8 2.1-.4.6-1 .7-1.8.7-.4 0-.9 0-1.2-.3-.4-.2-.7-.5-1-1l-.2-1.4c0-.9.2-1.6.6-2.1.5-.5 1.1-.7 1.9-.7.4 0 .9 0 1.2.3.4.2.7.5 1 1.1l.1 1.2Zm-4.2 0c.1.7.2 1.2.5 1.7.2.2.6.4 1.2.4.5 0 .9-.2 1.1-.4.4-.5.4-1.1.4-1.7 0-.6 0-1-.4-1.3-.2-.5-.6-.7-1.2-.7-.4 0-.9.2-1.1.7-.3.2-.4.7-.4 1.3ZM334.5 219.1c-.5 0-1 0-1.3-.3-.4-.2-.6-.5-.9-.8-.2-.5-.3-1-.3-1.6 0-.7.1-1.2.4-1.6l.8-1 1.3-.1h.8l.7.3-.3.6-.7-.2h-.5c-1-.1-1.5.6-1.5 1.9 0 .7.1 1.2.3 1.6.3.3.7.5 1.2.5l.7-.1.8-.3v.8a2 2 0 0 1-.7.2l-.8.1Zm3.5-7.7v4.9s0-.3.2-.3l.2-.3.2-.2 1.7-1.8h1l-1.9 2.3 2 3h-.9l-1.9-2.5-.6.6v1.9h-.9v-7.7Zm7 2.9h-1.5v4.7h-.8v-4.7h-1v-.3l1.1-.4v-.3c-.1-.7.2-1.2.4-1.5.3-.3.7-.4 1.2-.4h.6l.5.2-.2.7-.4-.1-.4-.2c-.3 0-.6.2-.7.4l-.2 1v.2h1.3Zm5.6 2c0 1-.3 1.7-.7 2.1-.5.6-1 .7-1.9.7-.4 0-1 0-1.2-.3-.4-.2-.8-.5-.9-1-.2-.3-.3-.8-.3-1.4 0-.9.2-1.6.7-2.1.4-.5 1-.7 1.7-.7.6 0 1 0 1.4.3.3.2.6.5.8 1.1.3.1.4.6.4 1.2Zm-4 0c-.1.7-.1 1.2.2 1.7.2.2.7.4 1.2.4.6 0 1-.2 1.3-.4.2-.5.3-1.1.3-1.7 0-.6 0-1-.3-1.3-.3-.5-.7-.7-1.3-.7-.5 0-1 .2-1.1.7-.3.2-.4.7-.4 1.3ZM354.4 213.6h.7l-.1.8h-.6c-.3 0-.5 0-.8.2l-.6.6-.2 1v2.8h-.8v-5.3h.7v1h.2l.6-.8c.3-.2.5-.3 1-.3Zm3.4 5.5c-.8 0-1.2-.1-1.6-.7-.4-.4-.6-1.1-.6-2 0-1 .2-1.7.6-2.1.4-.5 1-.7 1.6-.7.4 0 .7 0 1 .2a2 2 0 0 1 .7.6v-3h.8v7.6h-.7l-.1-.7a2 2 0 0 1-.7.7h-1Zm.1-.7c.6 0 1.1-.2 1.2-.4.3-.4.4-.8.4-1.5v-.1c0-.7-.1-1.2-.5-1.6 0-.3-.5-.5-1-.5-.6 0-.9.2-1 .6-.5.3-.6.8-.6 1.5.1.6.2 1.1.4 1.5.3.3.6.5 1.2.5Zm.1 0" style="fill:none;stroke-width:3;stroke-linecap:butt;stroke-linejoin:round;stroke:#fff;stroke-opacity:.6;stroke-miterlimit:10" transform=" rotate(  340 340.231 216.03) "/> <g style="fill:#222;fill-opacity:1" transform=" rotate(  340 340.231 216.03) ">  <use xlink:href="#a" x="319.2" y="219"/>  <use xlink:href="#b" x="325.4" y="219"/>  <use xlink:href="#c" x="331.5" y="219"/>  <use xlink:href="#d" x="336.3" y="219"/>  <use xlink:href="#e" x="341.6" y="219"/>  <use xlink:href="#b" x="345.1" y="219"/>  <use xlink:href="#f" x="351.1" y="219"/>  <use xlink:href="#g" x="355" y="219"/> </g> <path d="M332.6 110.9h-.4l-.3-.3v-.6h1.1l.4-.4.2-.6v-7h.8v6.8c0 .7-.1 1.2-.4 1.6-.4.3-.9.5-1.4.5Zm5.6-7.4c.8 0 1.2.2 1.5.5.3.2.5.7.5 1.3v3.7h-.7l-.2-.8-.7.7-1 .1c-.6 0-1.1-.1-1.4-.3-.2-.3-.4-.7-.4-1.2 0-.6.2-1 .6-1.3.6-.2 1.1-.4 2-.4h.9v-.5c0-.3-.1-.6-.3-.9l-.8-.1c-.3-.1-.6-.1-.8.1l-.7.2-.3-.6.8-.4h1Zm1.1 2.8h-.8c-.7.2-1.1.3-1.4.5-.1.1-.4.3-.4.7 0 .3.1.5.3.5.2.3.4.4.7.4.5 0 .8-.2 1.1-.4.3-.3.5-.7.5-1.2Zm5.1-2.8c.6 0 1.1.2 1.4.5.4.3.5.8.5 1.5v3.5h-.8v-3.5c0-.8-.5-1.3-1.2-1.3-.6 0-1 .2-1.3.5-.2.4-.3.9-.3 1.5v2.8h-.9v-5.4h.7l.2.7c.3-.2.4-.5.7-.6l1-.2Zm5.6 0c.6 0 1 .1 1.3.3a2 2 0 0 1 .7.8c.2.4.3.8.3 1.4v.4h-3.7c0 .7.2 1.1.5 1.4.3.3.7.5 1.2.5h1l.7-.5v.9l-.8.3a5 5 0 0 1-1 0 3 3 0 0 1-1.2-.1 2.2 2.2 0 0 1-1-1.1c-.2-.4-.3-.8-.3-1.5s.1-1 .3-1.5l.8-1c.4-.1.8-.2 1.3-.2Zm0 .7c-.3 0-.6.2-1 .4l-.3 1.2h2.7c0-.5-.1-.9-.4-1.2-.2-.2-.5-.4-1-.4Zm7.1 3.3c0 .5-.1.9-.5 1.2-.4.2-1 .3-1.6.3h-1l-.7-.3v-.7l.8.2.9.2c.4 0 .7-.1 1-.4.2 0 .3-.2.3-.4l-.1-.4-.4-.2a7.5 7.5 0 0 0-.8-.5 7.5 7.5 0 0 1-1-.4l-.4-.5-.3-.6c0-.5.2-.9.7-1 .2-.4.7-.5 1.3-.5l1 .1a4 4 0 0 1 .7.3l-.3.7-.7-.3h-1.6c-.2.2-.3.4-.3.6 0 .1 0 .1.2.3l.4.4.8.3.9.4.5.5c.2.2.2.4.2.7Zm2.5 1.5-2-5.4h1l.9 3.2.4.5.1.5v.4l.2-.4a16 16 0 0 1 .4-1l1.1-3.2h1l-2 5.4Zm4.4-7.4.3.1.2.4c0 .2 0 .4-.2.5l-.3.1-.4-.1-.2-.6s0-.2.2-.3l.4-.1Zm.4 2v5.4h-.9v-5.4Zm2.6 5.4h-1v-7.6h1Zm2.6 0h-1v-7.6h1.1Zm3.7-5.5c.5 0 .9.1 1.2.3a2 2 0 0 1 .8.8l.2 1.4v.4H372c-.1.7 0 1.1.3 1.4.3.3.7.5 1.3.5h.9l.8-.5v.9l-.8.3a5 5 0 0 1-1 0 3 3 0 0 1-1.3-.1 2.2 2.2 0 0 1-1-1.1c0-.4-.2-.8-.2-1.5s0-1 .2-1.5c.2-.4.5-.7.9-1 .3-.1.7-.2 1.2-.2Zm0 .7c-.3 0-.7.2-1 .4-.2.4-.3.7-.3 1.2h2.6c0-.5-.1-.9-.3-1.2-.3-.2-.5-.4-1-.4Zm0 0" style="fill:none;stroke-width:3;stroke-linecap:butt;stroke-linejoin:round;stroke:#fff;stroke-opacity:.6;stroke-miterlimit:10" transform=" rotate(  340 352.884 105.961) "/> <g style="fill:#222;fill-opacity:1" transform=" rotate(  340 352.884 105.961) ">  <use xlink:href="#h" x="332.6" y="109"/>  <use xlink:href="#i" x="335.4" y="109"/>  <use xlink:href="#j" x="341" y="109"/>  <use xlink:href="#k" x="347.2" y="109"/>  <use xlink:href="#l" x="352.8" y="109"/>  <use xlink:href="#m" x="357.6" y="109"/>  <use xlink:href="#n" x="362.7" y="109"/>  <use xlink:href="#o" x="365.2" y="109"/>  <use xlink:href="#o" x="367.8" y="109"/>  <use xlink:href="#k" x="370.4" y="109"/> </g> <path d="M13.4 153.8c0 1.2-.4 2.2-1 2.8-.7.6-1.6.9-2.8.9h-2v-7.2h2.2c.8 0 1.4.2 1.9.4.5.3 1 .7 1.2 1.3.3.4.5 1.1.5 1.9Zm-1 0c0-.9-.2-1.5-.7-1.9-.5-.6-1.1-.9-2-.9H8.5v5.7h1c2 0 3-1 3-2.8Zm6.9-1.7v5.4h-.7l-.1-.7-.9.6-.9.2c-.6 0-1.1-.2-1.4-.6-.4-.2-.5-.7-.5-1.4v-3.5h.9v3.5c0 .8.3 1.2 1.1 1.2.6 0 1-.1 1.3-.5.2-.3.3-.8.3-1.3v-2.9Zm2.6-2.2v2.9l.6-.6 1-.2c.7 0 1.2.2 1.6.7.4.5.6 1.3.6 2 0 1.1-.2 1.8-.6 2.3-.4.3-.9.6-1.6.6-.4 0-.7-.1-1-.3-.3-.1-.5-.3-.5-.5l-.5.7H21v-7.6Zm1.5 2.8c-.6 0-1 .3-1.2.5-.2.4-.2.9-.2 1.6-.1.6-.1 1.2.2 1.5.2.4.6.5 1.2.5s.9-.1 1-.5c.4-.3.5-.9.5-1.5-.1-1.4-.5-2-1.5-2Zm8.2-.6v5.4H31l-.2-.7-.8.6-1 .2c-.6 0-1-.2-1.4-.6-.3-.2-.6-.7-.6-1.4v-3.5h1v3.5c0 .8.4 1.2 1.2 1.2.6 0 1-.1 1.2-.5.2-.3.4-.8.4-1.3v-2.9Zm5.4 7.8v-3.2h-.1l-.6.6c-.3.2-.7.3-1 .3-.8 0-1.3-.3-1.8-.7-.3-.5-.5-1.2-.5-2.1 0-1 .2-1.6.6-2 .5-.7 1-.8 1.6-.8.6 0 .8 0 1.1.2a2 2 0 0 1 .7.6l.2-.7h.6v7.8Zm-1.7-3c.6-.1 1.1-.3 1.3-.6.2-.3.3-.7.3-1.3v-.2c.1-.7-.1-1.2-.3-1.5-.3-.4-.7-.6-1.2-.6s-.9.3-1.1.6c-.3.4-.4.9-.4 1.5s.2 1.1.4 1.5c.2.4.6.5 1 .5Zm8.7-4.8v5.4h-.8v-.7H43l-.6.6-1 .2c-.7 0-1.2-.2-1.5-.6-.3-.2-.5-.7-.5-1.4v-3.5h1v3.5c-.1.8.2 1.2 1 1.2.7 0 1.1-.1 1.3-.5.3-.3.4-.8.4-1.3v-2.9Zm3.7-.1c.5 0 .9.1 1.3.3a2 2 0 0 1 .7.8l.2 1.3v.6h-3.6c0 .6.1 1 .4 1.3.3.3.8.5 1.3.5h.9l.8-.5v.9l-.8.3a5 5 0 0 1-1 0 3 3 0 0 1-1.3-.1 2.2 2.2 0 0 1-1-1.1l-.1-1.5c-.1-.6-.1-1 .2-1.5.2-.3.3-.7.8-1 .3-.1.8-.3 1.2-.3Zm0 .7c-.4 0-.7.3-1 .4-.2.3-.4.7-.4 1.2H49c0-.5 0-.9-.3-1.3-.2 0-.5-.3-1-.3Zm0 0" style="fill:none;stroke-width:3;stroke-linecap:butt;stroke-linejoin:round;stroke:#fff;stroke-opacity:.6;stroke-miterlimit:10" transform=" rotate(  340 29.3935 154.462) "/> <g style="fill:#222;fill-opacity:1" transform=" rotate(  340 29.3935 154.462) ">  <use xlink:href="#p" x="6.7" y="157.5"/>  <use xlink:href="#q" x="14" y="157.5"/>  <use xlink:href="#r" x="20.2" y="157.5"/>  <use xlink:href="#q" x="26.3" y="157.5"/>  <use xlink:href="#s" x="32.5" y="157.5"/>  <use xlink:href="#q" x="38.6" y="157.5"/>  <use xlink:href="#k" x="44.8" y="157.5"/> </g></svg>