<svg xmlns="http://www.w3.org/2000/svg" xmlns:xlink="http://www.w3.org/1999/xlink" viewBox="0 0 497 279"> <defs overflow="visible" style="stroke:none">  <path id="K" d="m.5 0 1.8-8.6h4.3l-.1 1H3.2l-.7 3h3.1l-.2 1h-3L1.5 0Zm0 0"/>  <path id="J" d="m.3 0 2-9.1h1L1.3 0Zm0 0"/>  <path id="I" d="m.3 0 1.4-6.5h1l-.3 1.2.6-.6.7-.5a2 2 0 0 1 1-.2c.5 0 .9.2 1.2.4.3.3.4.7.4 1.2v.6l-.1.5L5.3 0H4.2l.9-4v-1c.1-.4-.1-.6-.6-.6s-.7 0-1 .3c-.3.1-.6.3-.9.8L2-2.8 1.4 0Zm0 0"/>  <path id="H" d="M2.2.1c-.4 0-.8 0-1-.3-.5-.2-.6-.6-.6-1l.2-1.1.7-3.2h-1l.1-.6 1.1-.5.8-1.3H3l-.3 1.5h1.8l-.3.8H2.6l-.8 3.5V-1l.7.3h.3l.4-.3v.9l-.4.1-.6.1Zm0 0"/>  <path id="G" d="M2.3.1c-.5 0-1-.1-1.2-.5-.4-.4-.5-1-.5-1.7 0-.6 0-1.1.2-1.7l.7-1.4 1-1c.3-.2.8-.3 1.2-.3.5 0 .8 0 1 .3l.8.8.3-1h.8L5.2 0h-.8l.1-1.2-1 1a2 2 0 0 1-1.2.2Zm.4-.8c.3-.1.5-.3.8-.4.3-.2.6-.5.8-.9l.5-1.2.2-.6v-.6c0-.3-.1-.6-.3-.9-.2-.2-.5-.4-.9-.4-.3 0-.6.1-.8.3l-.7.8-.5 1.2L1.7-2c0 .4 0 .7.2 1 .2 0 .4.2.8.2Zm0-.1"/>  <path id="F" d="m.5 0 1.8-8.6h1.1l2.7 7.1a34.6 34.6 0 0 1 .4-2.4l1-4.7h1L6.7 0H5.6L2.9-7.1v.7a21.3 21.3 0 0 1-.5 1.7L1.5 0Zm0 0"/>  <path id="E" d="m.3 0 1.4-6.4h.9l-.2 1.2h.1A9 9 0 0 1 3-6l.6-.4.9-.1H5v1h-.7c-.3-.1-.8-.1-1 .2-.5.4-.7.7-.9 1.1-.2.4-.4.8-.4 1.3L1.4 0Zm0 0"/>  <path id="D" d="M3 .1C2.1.1 1.5 0 1.1-.5.8-1 .6-1.5.6-2.3c0-.5 0-1 .2-1.5.1-.5.4-1 .6-1.4l1-1c.5-.2 1-.3 1.5-.3s.9 0 1.3.3c.3.3.4.7.4 1.2 0 .4-.1.8-.4 1-.2.5-.6.8-1.2 1l-2 .1h-.3v.6c-.1.3-.1.8.3 1.1.2.3.6.4 1 .4h1l.8-.5v1c-.3 0-.6.2-.8.3L3 .1ZM1.7-3.6H2c.4 0 1 0 1.2-.2.4 0 .8-.2 1-.4.3-.2.4-.4.4-.8 0-.2 0-.3-.2-.5l-.7-.2c-.4 0-.7.2-1 .7-.5.2-.7.7-1 1.4Zm.1 0"/>  <path id="C" d="M2.6-7.5 2-7.6v-.5c0-.2 0-.3.2-.5.1-.2.3-.2.5-.2.3 0 .5.2.5.5s0 .5-.2.6l-.4.2ZM.3 0l1.4-6.4h1L1.5 0Zm0 0"/>  <path id="B" d="M1.9.1.9 0C.4 0 .2-.2 0-.3v-1l.8.4a3 3 0 0 0 1 .2c.5-.1.9-.1 1.2-.3.2-.2.3-.5.3-.8 0-.2-.1-.3-.3-.5a4.7 4.7 0 0 0-.8-.7c-.5-.2-.8-.4-1-.7-.3-.3-.4-.6-.4-1 0-.6.2-1 .6-1.3.4-.4 1-.5 1.6-.5h1A5 5 0 0 1 5-6l-.5.7-.5-.2a3 3 0 0 0-1-.2c-.3 0-.6.1-.8.3l-.3.6c0 .2 0 .4.1.6l.9.5.8.5.5.6.2.6c0 .8-.4 1.3-.7 1.6-.5.4-1 .5-1.8.5Zm0 0"/>  <path id="A" d="M3 0c-.8 0-1.4 0-1.8-.5C.8-1 .6-1.6.6-2.4c0-.5 0-1 .2-1.4.1-.5.2-1 .6-1.4.2-.4.6-.7 1-1 .4-.1.9-.2 1.4-.2.7-.1 1.3.1 1.7.6.5.4.7 1 .7 1.8 0 .5 0 1-.2 1.4l-.6 1.4-1 1C4 0 3.5 0 3 0Zm0-.7c.4-.1.8-.2 1-.5.5-.2.7-.6.9-1.1a5.3 5.3 0 0 0 .2-1.9 2 2 0 0 0-.1-.7l-.4-.5c-.2-.2-.6-.2-.8-.2-.4 0-.8.1-1.1.4-.4.3-.7.7-.8 1.2-.2.5-.3 1-.3 1.7 0 .5.2.8.4 1.1.3.3.6.4 1 .4Zm0-.1"/>  <path id="z" d="m.5 0 1.8-8.6h1l-.6 3.7h3.7l.8-3.7h1L6.4 0h-1l.7-4H2.4l-.8 4Zm0 0"/>  <path d="M1.1 0v-8.6h5V0Zm.6-.6h3.8V-8H1.7Zm0 0"/>  <path id="y" d="M2 0 0-5.4h1l1 3.2.4.5v.5l.1.4.2-.4a16 16 0 0 1 .3-1l1.1-3.2h1L3 0Zm0 0"/>  <path id="x" d="M5-2c0 .8-.2 1.3-.7 1.7-.3.2-1 .3-1.8.3H1.4a3 3 0 0 1-.9-.2v-.9a5 5 0 0 0 1 .3l.9.1c.6 0 1.1 0 1.3-.3.3-.2.4-.5.4-.8L4-2.4 3.5-3a7.2 7.2 0 0 0-1-.3c-.8-.2-1.2-.5-1.5-.8C.7-4.4.6-5 .6-5.4s0-.7.3-1a2 2 0 0 1 .8-.6 3 3 0 0 1 1.2-.2h1a5 5 0 0 1 1.1.5l-.5.6a4.5 4.5 0 0 0-.7-.2l-1-.2c-.3 0-.6.1-.9.3-.3.2-.4.5-.4.8 0 .2 0 .4.2.6 0 .2.2.3.3.4l1.1.4.9.5.8.7.2.8Zm0 0"/>  <path id="w" d="M5.3-5.4V0h-.7l-.1-.7c-.3.3-.5.5-.9.6l-.9.2C2.1 0 1.6-.1 1.3-.4 1-.7.8-1.2.8-1.8v-3.6h.9v3.5c0 .8.3 1.3 1.2 1.3.6 0 1-.2 1.1-.5.3-.4.5-.9.5-1.5v-2.8Zm0 0"/>  <path id="v" d="M2.9-5.5c.6 0 1.1.2 1.4.5.3.3.5.7.5 1.3V0h-.6L4-.8c-.3.3-.5.6-.8.8h-1c-.5 0-1 0-1.3-.3C.6-.5.5-.9.5-1.5c0-.5.2-1 .5-1.2.5-.3 1-.5 2-.5h.8v-.3c.2-.5.2-.8-.2-1l-.8-.2H2l-.7.5L1-5l1-.3.9-.2Zm1 2.9h-.8c-.6 0-1 .1-1.4.3-.1.3-.3.5-.3.8 0 .3 0 .5.2.7l.7.2c.5 0 .9-.1 1.2-.4.3-.2.4-.6.4-1Zm.1 0"/>  <path id="u" d="M6.4 0h-.9v-3.3H2V0H.9v-7.1H2v3h3.5v-3h1Zm0 0"/>  <path id="t" d="M3.3-5.5H4l-.1 1.1-.3-.3h-.3c-.3 0-.5 0-.8.2l-.5.7-.3 1V0H.8v-5.4h.8v1h.2l.6-.6c.3-.3.6-.5 1-.5Zm0 0"/>  <path id="s" d="M3-5.5c.3 0 .7.1 1 .3a2 2 0 0 1 1 .9v1.8H1.5c0 .5.1 1 .4 1.4.3.3.7.4 1.3.4H4l.9-.3v.8L4 0a5 5 0 0 1-1 0 3 3 0 0 1-1.2-.1 2.2 2.2 0 0 1-1-1.1c0-.2-.2-.8-.2-1.3-.1-.7 0-1.2.2-1.6.2-.5.5-.9.9-1 .3-.2.7-.4 1.2-.4Zm0 .8c-.6 0-.9.1-1 .4-.4.2-.6.6-.6 1.1h2.8c0-.5-.1-.8-.3-1.1-.2-.3-.5-.4-1-.4Zm0 0"/>  <path id="r" d="M3.2 0h-.9v-6.3H.1v-.8h5.4v.8H3.2Zm0 0"/>  <path id="q" d="M2.6-.6H3l.4-.2v.7L3 0H1.7l-.6-.5-.1-1v-3.3H.2V-5l.7-.5.4-1h.5v1h1.5v.8H1.8v3.1c0 .3 0 .6.2.7l.6.3Zm0 0"/>  <path id="p" d="m2.8-5.5.8.3a2 2 0 0 1 .8.4l.3-.6h.6V.1c0 .8-.2 1.3-.6 1.7-.4.4-1 .6-1.8.6S1.5 2.3 1 2.1v-.9c.6.4 1.3.6 2 .6.5-.1.9-.3 1-.5.3-.3.4-.7.4-1.1v-.9c-.3.5-.9.8-1.6.8C2 0 1.5-.1 1-.6c-.3-.5-.5-1.2-.5-2 0-1.1.2-1.7.6-2.2.4-.4 1-.7 1.6-.7Zm0 .8c-.3 0-.6.2-.9.5-.3.4-.4.9-.4 1.5 0 .7 0 1.2.3 1.7.3.2.6.4 1 .4.7 0 1.1-.2 1.4-.4.1-.3.2-.8.2-1.5v-.2c0-.7 0-1.2-.3-1.5-.3-.4-.7-.5-1.2-.5Zm.1 0"/>  <path id="o" d="M3.4-5.5c.7 0 1.2.2 1.6.5.2.3.4.8.4 1.5V0h-.9v-3.4c0-.9-.4-1.3-1.2-1.3-.6 0-1 .1-1.2.5-.3.2-.4.8-.4 1.4V0H.8v-5.4h.8v.8h.2c.2-.4.3-.5.7-.7l1-.2Zm0 0"/>  <path id="n" d="M1.3-7.4c.1 0 .3 0 .4.2l.1.4-.1.4-.4.2-.4-.3-.1-.3.1-.4.4-.2Zm.4 2V0H.8v-5.4Zm0 0"/>  <path id="m" d="M6.7-5.5c.6 0 1 .2 1.4.5.3.3.4.8.4 1.5V0h-.8v-3.5c0-.8-.4-1.2-1.1-1.2-.6 0-1 .1-1.1.4C5.2-4 5-3.5 5-3v3h-.7v-3.5c0-.8-.4-1.2-1.1-1.2-.6 0-1 .1-1.2.5-.2.2-.3.8-.3 1.4V0H.8v-5.4h.8v.8h.2l.6-.7 1-.2c.7 0 1.2.3 1.6 1 .2-.5.4-.7.7-.8.3-.1.7-.2 1-.2Zm0 0"/>  <path id="l" d="M5.5-2.7c0 .9-.2 1.7-.7 2-.4.7-1 .9-1.8.9-.5-.2-.9-.2-1.3-.4-.3-.2-.6-.6-.7-1C.6-1.6.5-2 .5-2.7c0-.9.3-1.6.7-2 .5-.5 1-.8 1.8-.8.5 0 1 .2 1.3.5.4 0 .7.4.9.9.2.2.3.7.3 1.3Zm-4 0c0 .7 0 1.2.3 1.5.3.4.7.6 1.2.6.6 0 1-.2 1.2-.6.3-.3.4-.8.4-1.5s-.1-1.1-.4-1.5c-.2-.3-.6-.5-1.2-.5-.5 0-1 .2-1.2.5-.2.4-.3.9-.3 1.5Zm0 0"/>  <path id="k" d="M1.7 0H.8v-7.6h1Zm0 0"/>  <path id="j" d="M1-7.1h2c1 0 1.6.1 2 .4.5.2.7.7.7 1.3 0 .5-.1.8-.3 1-.4.4-.6.6-1 .7l.8.3c.2 0 .4.2.5.5.3.2.3.5.3.9 0 .6-.3 1-.7 1.5-.5.3-1 .5-1.8.5H1Zm.9 3h1.3c.6.1 1 .1 1.3-.3.2-.2.3-.5.3-.9s-.1-.6-.4-.7c-.4-.3-.8-.4-1.4-.4H2Zm0 .8v2.5h1.4c.7 0 1 0 1.3-.2.4-.4.4-.7.4-1.1s-.1-.7-.4-.9c-.2-.2-.6-.3-1.4-.3Zm0 0"/>  <path d="M1 0v-7.1h4V0Zm.4-.5h3.1v-6.1h-3Zm.1 0"/>  <path id="i" d="M5.6-2c0 .9-.2 1.4-.6 1.7-.6.3-1.3.4-2.1.4L1.6 0c-.4 0-.7-.2-1-.3v-1c.4-.1.8.1 1.1.3L3-.8c.5 0 .9 0 1-.3.4-.2.5-.4.5-.7l-.1-.5-.5-.4a9.6 9.6 0 0 0-1-.5 11 11 0 0 1-1.3-.5 2.2 2.2 0 0 1-.7-.6c-.2-.3-.2-.7-.2-1 0-.5.2-1 .7-1.2.5-.5 1.1-.6 1.9-.6a5.4 5.4 0 0 1 2.2.5l-.4.9a7 7 0 0 0-1-.3 4 4 0 0 0-.8-.2c-.6 0-.9.2-1.1.3-.4.1-.6.3-.6.6l.4.5.5.4c.3 0 .5.2 1 .4l1.2.5.7.7c.2.2.2.5.2.8Zm0 0"/>  <path id="h" d="M2.3 0H1v-9.9h1.2Zm0 0"/>  <path id="g" d="M7.2-3.5c0 1.2-.3 2-1 2.7-.4.6-1.2 1-2.2 1a3.2 3.2 0 0 1-1.7-.6A3 3 0 0 1 1-1.5c0-.6-.3-1.2-.3-2 0-1.1.3-2 .9-2.7C2.2-6.8 3-7 4-7c.6 0 1 0 1.6.3a3 3 0 0 1 1.2 1.2c.2.6.4 1.2.4 2Zm-5.3 0c0 .8.1 1.5.5 2 .3.4.8.7 1.5.7s1.2-.3 1.6-.7c.3-.5.5-1.2.5-2s-.2-1.5-.5-2C5-5.8 4.6-6 3.9-6c-.7-.1-1.2 0-1.5.6-.4.4-.5 1-.5 1.9Zm0 0"/>  <path id="f" d="M4.4-7c.9 0 1.6.1 2 .7.6.7 1 1.6 1 2.8-.1 1.2-.4 2-.9 2.7-.5.6-1.2 1-2 1C3.8.1 3.4 0 3-.3a2.7 2.7 0 0 1-.8-.6v4h-.9v-10H2l.2.9c.3-.3.6-.6.9-.8.3-.2.8-.2 1.3-.2Zm-.2.8c-.7.1-1.2.2-1.5.7-.3.4-.4 1-.5 1.8v.2c.1.9.3 1.5.6 2s.7.7 1.4.7c.5 0 .8-.2 1-.4.5-.2.7-.5.8-1v-1.2c0-.9-.1-1.6-.4-2.1C5.3-5.8 5-6 4.2-6Zm0 .1"/>  <path id="e" d="M3.8-7c.7 0 1.4 0 1.7.4.5.5.7 1.1.7 1.9V0h-.8l-.2-1-1.1 1H2.8c-.6.1-1.2 0-1.6-.4C.8-.7.6-1.2.6-1.9s.3-1.3.8-1.6C2-4 2.8-4.1 4-4.2h1.1v-.4c0-.6-.1-1-.3-1.2-.3-.2-.8-.4-1.2-.4l-.9.2-1.1.4-.2-.9A5.2 5.2 0 0 1 3.8-7ZM5-3.5h-.9c-.9.1-1.5.3-1.8.5-.4.3-.5.6-.5 1 0 .6.1.9.2 1l1.1.1c.5.1.9-.1 1.4-.4.5-.3.6-.7.6-1.5Zm.1.1"/>  <path id="d" d="M1.7-9.6c.2 0 .3 0 .5.2l.2.4-.2.7a.7.7 0 0 1-.5.2c-.2 0-.4 0-.5-.2L1-8.9c0-.1 0-.4.2-.5l.5-.2ZM2.3-7v7H1v-7Zm0 0"/>  <path id="c" d="M3.6.1C2.7.1 2-.2 1.5-.8 1-1.4.7-2.3.7-3.5c0-1.2.3-2 .8-2.7.5-.6 1.2-.8 2-.8.7 0 1.1 0 1.5.2l.7.7h.1a21.7 21.7 0 0 1 0-.9v-2.9h1V0H6l-.2-1c-.3.5-.5.7-1 .9-.2.1-.7.2-1.2.2Zm.1-1c.8.1 1.3-.1 1.6-.4.3-.5.5-1.1.5-2v-.2c0-.8-.2-1.5-.5-2-.3-.4-.8-.7-1.5-.7s-1.2.3-1.4.8c-.4.4-.5 1.1-.5 2 0 .8.1 1.4.5 1.9.3.5.6.7 1.4.7Zm.1.1"/>  <path id="b" d="M4.5-7c.8 0 1.4 0 1.8.4.5.6.7 1.1.7 2.1V0H5.8v-4.5c0-1-.5-1.5-1.5-1.5-.8-.1-1.3 0-1.6.5-.3.5-.5 1-.5 1.9V0h-.9v-7H2l.2 1a2 2 0 0 1 1.1-.8c.3-.2.7-.3 1.2-.3Zm0 0"/>  <path id="a" d="M3.9 0H.5v-.7l1.1-.2v-7.4l-1-.3v-.7h3.2v.7l-1 .3V-1l1 .3Zm0 0"/>  <path d="M1.2 0v-9.3h5.4V0ZM2-.7h3.9v-8H2Zm-.1 0"/> </defs> <image xlink:href="svg/9/101_0.jpg" width="497" height="279"/> <path d="M391.9 41.5h-3.4V41l1-.4v-7.4l-.9-.3v-.6h3.3v.6l-1.1.3v7.4l1 .4Zm4.9-7.1c.9 0 1.5.2 2 .7.3.3.5.9.5 1.9v4.5h-1.1v-4.4c0-1.1-.5-1.7-1.5-1.7-.8 0-1.3.2-1.7.6-.2.5-.4 1-.4 1.9v3.6h-1.1v-7h1v1.1h.3a2 2 0 0 1 .8-.9l1.2-.3Zm7.2 7.3c-.9 0-1.6-.3-2-1-.7-.4-1-1.3-1-2.5.1-1.3.4-2.2 1-2.8.4-.6 1.1-1 2-1 .6 0 1 .1 1.3.3.4.3.7.5.9.8a21.7 21.7 0 0 1 .1-1v-2.9h1v9.9h-1v-.9h-.2c-.1.3-.4.5-.8.7-.3.3-.8.4-1.3.4Zm.2-1c.7 0 1.2-.2 1.5-.6.3-.4.5-1 .5-1.8V38c0-.8-.2-1.5-.4-2-.3-.4-.9-.6-1.6-.6-.6 0-1.2.2-1.4.6-.3.6-.5 1.3-.5 2.1s.2 1.5.5 2c.2.3.8.5 1.4.5Zm5.9-8.7h.5l.2.7c0 .2 0 .3-.2.5a.7.7 0 0 1-.6.2s-.2 0-.4-.2l-.2-.5.2-.7h.5Zm.6 2.6v7h-1.2v-7.1Zm4.8-.1c.9 0 1.5.1 1.9.5.4.4.6 1 .6 1.8v4.7h-.8l-.2-1-1 1c-.5.1-.9.2-1.5.2s-1.1-.2-1.5-.5c-.4-.4-.6-.9-.6-1.6 0-.7.2-1.2.8-1.6.5-.4 1.4-.6 2.5-.6h1.3v-.6c-.1-.5-.2-.8-.5-1.1-.2-.2-.5-.3-1-.3l-1.1.1-1 .5-.4-.9a5.2 5.2 0 0 1 2.5-.6ZM417 38h-1.1c-1 .3-1.5.4-1.9.7-.3.1-.4.5-.4.9s0 .7.3.9c.3.2.6.2 1.1.2.3 0 .8-.1 1.2-.4.5-.4.7-.9.7-1.5Zm6.5-3.6c.9 0 1.5.2 2 .7.2.3.5.9.5 1.9v4.5h-1.1v-4.4c.1-1.1-.5-1.7-1.5-1.7-.8 0-1.4.2-1.6.6-.3.5-.5 1-.5 1.9v3.6h-1.1v-7h.8l.3 1.1a2 2 0 0 1 1-.9l1.2-.3Zm7.4.1c.8 0 1.4.1 1.8.5.4.4.6 1 .6 1.8v4.7h-.8l-.2-1-1.1 1c-.3.1-.7.2-1.3.2-.6 0-1.2-.2-1.6-.5-.3-.4-.6-.9-.6-1.6 0-.7.3-1.2.8-1.6.6-.4 1.5-.6 2.5-.6h1.2v-.6c0-.5-.1-.8-.2-1.1-.4-.2-.8-.3-1.2-.3l-1 .1-1.1.5-.2-.9a5.2 5.2 0 0 1 2.4-.6Zm1.3 3.5h-1c-.9.3-1.5.4-1.8.7-.4.1-.5.5-.5.9s.1.7.3.9c.3.2.6.2 1 .2.5 0 1-.1 1.4-.4.4-.4.6-.9.6-1.5Zm6.6-3.6c.9 0 1.6.3 2 1 .7.4 1 1.3 1 2.6-.1 1.2-.4 2.1-.9 2.7-.5.7-1.2 1-2.1 1-.5 0-1-.1-1.3-.3a2.7 2.7 0 0 1-.9-.8v4.1h-1.1V34.6h1v1c.5-.5.6-.6 1-.9.3-.2.8-.3 1.3-.3Zm-.2 1c-.6 0-1.2.2-1.5.6-.3.4-.4 1-.5 1.8v.2c0 1 .2 1.6.5 2 .2.5.8.7 1.5.7.5 0 .8 0 1-.3l.8-1 .1-1.4c0-.8-.2-1.4-.5-1.9s-.8-.7-1.4-.7Zm10.9 2.6c0 1.2-.3 2-.8 2.7-.7.6-1.4 1-2.4 1a3.2 3.2 0 0 1-1.6-.5 3 3 0 0 1-1.2-1.2c-.3-.5-.4-1.2-.4-2 0-1 .3-2 .9-2.6.5-.6 1.3-1 2.3-1 .7 0 1.2.2 1.7.6a3 3 0 0 1 1.1 1c.3.6.4 1.3.4 2Zm-5.2 0c0 1 .1 1.5.5 2 .2.5.8.7 1.5.7s1.2-.2 1.7-.7c.2-.5.4-1.1.4-2 0-.8-.2-1.4-.5-1.9-.4-.5-.9-.7-1.6-.7-.7 0-1.2.2-1.5.6-.4.6-.5 1.2-.5 2.1Zm8.2 3.5h-1.1v-9.8h1.1Zm2.8-9.5h.5l.2.7-.2.5a.7.7 0 0 1-.5.2c-.3 0-.4 0-.5-.2l-.2-.5c0-.3 0-.5.2-.7h.5Zm.6 2.6v7h-1.2v-7.1Zm6.7 5c0 .7-.2 1.2-.7 1.5-.5.4-1.2.6-2 .6-.7 0-1.1 0-1.4-.2-.3 0-.6-.1-.9-.3v-1l1 .4 1.4.1c.4 0 .9 0 1-.2.4-.2.5-.5.5-.8l-.1-.4-.6-.5a9.6 9.6 0 0 0-1-.4 11 11 0 0 1-1.2-.6 2.2 2.2 0 0 1-.6-.6c-.3-.2-.4-.5-.4-1s.4-.9.7-1.2c.5-.4 1.2-.6 2-.6a5.4 5.4 0 0 1 2.1.6l-.4 1a7 7 0 0 0-1-.6 4 4 0 0 0-.9 0c-.3 0-.7 0-.9.2-.4.2-.5.4-.5.6 0 .2 0 .4.3.5l.4.4 1.1.5c.5.1.8.3 1.1.4.4.2.6.4.8.7l.2 1Zm0 0" style="fill:none;stroke-width:3;stroke-linecap:butt;stroke-linejoin:round;stroke:#fff;stroke-opacity:.6;stroke-miterlimit:10" transform=" rotate(  340 424.675 38.535) "/> <g style="fill:#222;fill-opacity:1" transform=" rotate(  340 424.675 38.535) ">  <use xlink:href="#a" x="388" y="41.5"/>  <use xlink:href="#b" x="392.4" y="41.5"/>  <use xlink:href="#c" x="400.4" y="41.5"/>  <use xlink:href="#d" x="408.4" y="41.5"/>  <use xlink:href="#e" x="411.8" y="41.5"/>  <use xlink:href="#b" x="419.1" y="41.5"/>  <use xlink:href="#e" x="427.1" y="41.5"/>  <use xlink:href="#f" x="434.4" y="41.5"/>  <use xlink:href="#g" x="442.4" y="41.5"/>  <use xlink:href="#h" x="450.3" y="41.5"/>  <use xlink:href="#d" x="453.6" y="41.5"/>  <use xlink:href="#i" x="457" y="41.5"/> </g> <path d="M321.3 187.8h2c1.1 0 1.7.1 2.1.4.6.2.8.7.8 1.3-.2.5-.2.8-.5 1-.2.5-.5.5-1 .7l.8.3c.3 0 .5.2.6.5l.2.9c0 .6-.2 1.1-.7 1.5-.4.3-1 .5-1.8.5h-2.5Zm1 3h1.2c.7 0 1.1 0 1.3-.3.2-.2.4-.5.4-.9s-.2-.6-.5-.8c-.2-.2-.7-.3-1.3-.3h-1.2Zm-.1.8v2.4h1.4c.7.1 1.1.1 1.4-.2.2-.3.4-.6.4-1s-.2-.7-.4-.8c-.3-.3-.7-.4-1.4-.4Zm6.4 3.4h-.9v-7.8h.9Zm6.4-2.8c0 1-.3 1.6-.7 2-.5.7-1 .8-1.8.8-.5 0-1-.1-1.3-.3-.4-.2-.7-.5-.9-1-.2-.4-.3-.9-.3-1.5 0-.9.2-1.5.7-2 .3-.5 1-.7 1.8-.7.5 0 .9 0 1.3.3.2.2.6.5.8 1 .4.2.4.7.4 1.3Zm-4.1 0c0 .8.1 1.2.4 1.5.2.4.6.6 1.2.6.5 0 1-.3 1.2-.6.2-.3.3-.7.3-1.5 0-.6 0-1.1-.3-1.5-.3-.3-.7-.5-1.2-.5-.6 0-1 .2-1.2.5-.3.4-.4.9-.4 1.5Zm10.1 0c0 1-.2 1.6-.7 2-.3.7-1 .8-1.8.8-.5 0-.9-.1-1.3-.3-.2-.2-.6-.5-.8-1-.4-.4-.4-.9-.4-1.5 0-.9.3-1.5.7-2 .5-.5 1-.7 1.8-.7.5 0 1 0 1.3.3.4.2.7.5.9 1 .2.2.3.7.3 1.3Zm-4 0c0 .8 0 1.2.2 1.5.4.4.8.6 1.3.6.6 0 1-.3 1.2-.6.3-.3.4-.7.4-1.5-.1-.6-.1-1.1-.4-1.5-.2-.3-.6-.5-1.2-.5-.5 0-1 .2-1.2.5-.2.4-.3.9-.3 1.5Zm11.3-2.7c.6 0 1 .1 1.3.4.4.3.5.8.5 1.5v3.6h-.9v-3.5c0-.9-.4-1.3-1-1.3s-1.1.1-1.2.4c-.2.4-.3.8-.3 1.4v3h-.9v-3.6c0-.8-.4-1.2-1.1-1.2-.5 0-1 .2-1.1.5-.2.3-.3.8-.3 1.3v3h-1v-5.5h.9v.8l.8-.6c.2-.2.5-.2 1-.2.7 0 1.2.3 1.5.8.3-.3.5-.5.9-.6.2-.2.5-.2.9-.2Zm3.9-2 .4.2.1.3-.1.5-.4.2c-.2 0-.3 0-.4-.2l-.1-.4.1-.4.4-.2Zm.4 2v5.5h-.9v-5.5Zm4.4 0c.4 0 1 .1 1.2.4.5.3.6.8.6 1.5v3.6h-.8v-3.5c0-.9-.4-1.3-1.2-1.3-.6 0-1 .2-1.3.5-.2.3-.3.8-.3 1.3v3h-.9v-5.5h.7l.2.8c.2-.3.4-.5.8-.6.2-.2.6-.2 1-.2Zm5.4 0c.4 0 .7 0 1 .2a2 2 0 0 1 .6.6l.2-.9h.8v5.6c0 .8-.2 1.3-.6 1.7-.4.4-1 .6-1.8.6s-1.6-.1-2-.3v-.8c.6.2 1.2.4 2 .4.5 0 .8-.2 1-.4.4-.3.6-.7.6-1.2v-.8c-.5.5-1.2.8-1.8.8s-1.2-.2-1.6-.7c-.4-.5-.6-1.3-.6-2 0-1.1.2-1.7.6-2.2.4-.4 1-.6 1.6-.6Zm.1.7c-.4 0-.8.2-1 .5-.3.4-.5.9-.5 1.6.1.5.2 1 .5 1.5.2.2.5.5 1 .5.6 0 1-.3 1.2-.4.3-.3.4-.9.4-1.4v-.3c-.1-.7-.1-1.2-.4-1.5-.2-.3-.6-.5-1.2-.5Zm5.9 4.1h.6l.2-.1v.6l-.4.2h-.5l-.8-.1-.5-.5-.3-1v-3.3h-.7v-.3l.7-.3.4-1.2h.5v1.2h1.5v.7h-1.5v3.1c0 .4 0 .7.2.7l.6.3Zm6.6-2.1c0 1-.4 1.6-.9 2-.3.7-.9.8-1.7.8-.4 0-.9-.1-1.3-.3-.3-.2-.6-.5-.8-1-.3-.4-.3-.9-.3-1.5 0-.9.2-1.5.6-2 .5-.5 1-.7 1.9-.7.4 0 .9 0 1.2.3.4.2.7.5.9 1 .2.2.3.7.3 1.3Zm-4.2 0c.1.8.1 1.2.4 1.5.3.4.8.6 1.2.6.6 0 1-.3 1.2-.6.4-.3.4-.7.4-1.5 0-.6 0-1.1-.4-1.5-.2-.3-.6-.5-1.2-.5-.4 0-1 .2-1.2.5-.2.4-.2.9-.2 1.5Zm8.1-2.7c.6 0 1.1.1 1.4.4.4.3.5.8.5 1.5v3.6h-.8v-3.5c0-.9-.4-1.3-1.2-1.3-.6 0-1 .2-1.3.5-.2.3-.3.8-.3 1.3v3h-.9v-5.5h.7l.2.8c.2-.3.4-.5.7-.6.3-.2.7-.2 1.1-.2Zm0 0" style="fill:none;stroke-width:3;stroke-linecap:butt;stroke-linejoin:round;stroke:#fff;stroke-opacity:.6;stroke-miterlimit:10" transform=" rotate(  340 351.164 191.907) "/> <g style="fill:#222;fill-opacity:1" transform=" rotate(  340 351.164 191.907) ">  <use xlink:href="#j" x="320.4" y="194.9"/>  <use xlink:href="#k" x="326.9" y="194.9"/>  <use xlink:href="#l" x="329.4" y="194.9"/>  <use xlink:href="#l" x="335.5" y="194.9"/>  <use xlink:href="#m" x="341.5" y="194.9"/>  <use xlink:href="#n" x="350.9" y="194.9"/>  <use xlink:href="#o" x="353.5" y="194.9"/>  <use xlink:href="#p" x="359.7" y="194.9"/>  <use xlink:href="#q" x="365.8" y="194.9"/>  <use xlink:href="#l" x="369.4" y="194.9"/>  <use xlink:href="#o" x="375.5" y="194.9"/> </g> <path d="M152.1 117.7h-.9v-6.3H149v-.8h5.3v.8h-2.2Zm4.6-5.4c.3 0 .8 0 1.1.3a2 2 0 0 1 .8.8c.2.4.3.8.3 1.3v.5h-3.7c0 .6.2 1.1.5 1.4.3.4.7.5 1.2.5l1.1-.1.5-.3v.8l-.7.3a5 5 0 0 1-1 0 3 3 0 0 1-1.2-.3 2.2 2.2 0 0 1-1-.9c-.2-.4-.3-.9-.3-1.5s0-1 .3-1.5l.8-1c.4-.2.8-.3 1.3-.3Zm0 .7c-.6 0-.9.1-1.1.4-.3.3-.4.7-.5 1.1h2.9c0-.4 0-.8-.4-1-.2-.4-.5-.5-1-.5Zm6-.7h.7l-.2.9h-.2l-.3-.2c-.3 0-.7 0-.8.3l-.6.7-.2 1v2.7h-.9v-5.3h.8v1l.8-.8c.2-.2.5-.3.9-.3Zm4.1 0h.7l-.1.9h-.4l-.2-.2c-.3 0-.5 0-.8.3l-.6.7-.2 1v2.7h-.9v-5.3h.8v1h.2l.7-.8c.2-.2.5-.3.9-.3Zm3.6 0c.4 0 .8 0 1.1.3a2 2 0 0 1 .8.8c.2.4.3.8.3 1.3v.5h-3.7c0 .6.1 1.1.5 1.4.3.4.6.5 1.2.5l1-.1.6-.3v.8l-.7.3a5 5 0 0 1-1 0 3 3 0 0 1-1.2-.3 2.2 2.2 0 0 1-1-.9c-.2-.4-.3-.9-.3-1.5s0-1 .3-1.5c.2-.4.4-.6.7-1 .5-.2 1-.3 1.4-.3Zm0 .7c-.6 0-.9.1-1.1.4-.3.3-.3.7-.5 1.1h2.8c0-.4 0-.8-.3-1-.2-.4-.5-.5-1-.5ZM182.1 117.7h-.9v-3.3h-3.7v3.3h-.9v-7h1v2.9h3.5v-3h1.1Zm3.9-5.4c.6 0 1 .1 1.4.4.3.3.6.8.6 1.4v3.6h-.8l-.1-.7-.9.6c-.2.2-.5.2-.9.2-.7 0-1.1 0-1.3-.3-.3-.3-.5-.7-.5-1.2 0-.6.2-1 .7-1.3.4-.3 1-.4 2-.5h.8v-.3c0-.4 0-.8-.3-1l-.7-.2-.9.1-.7.3-.4-.6 1-.4 1-.1Zm1 2.7h-.8c-.6.2-1.1.4-1.4.6-.2.1-.3.3-.3.7 0 .3 0 .5.2.6.3.2.4.2.7.2.6 0 .9 0 1.2-.3.3-.3.4-.8.4-1.2Zm7-2.6v5.3h-.7l-.1-.7-.9.7-.9.1c-.6 0-1.1-.1-1.4-.4-.4-.4-.5-.8-.5-1.5v-3.5h.9v3.4c0 .9.4 1.3 1.2 1.3.6 0 1-.1 1.2-.5.2-.3.3-.8.3-1.4v-2.8Zm3.5 4.7h.8v.5h-.4l-.5.3-.8-.2c-.3 0-.4-.3-.6-.5l-.2-1V113h-.8v-.3l.8-.4.4-1.1h.5v1.2h1.5v.6h-1.5v3c0 .6 0 .8.2 1h.6Zm3.9-4.8c.6 0 .9 0 1.2.3a2 2 0 0 1 .7.8c.2.4.3.8.3 1.3v.5H200c0 .6.1 1.1.4 1.4.3.4.7.5 1.3.5l.9-.1.8-.3v.8l-.8.3a5 5 0 0 1-1 0 3 3 0 0 1-1.3-.3 2.2 2.2 0 0 1-1-.9c-.1-.4-.3-.9-.3-1.5s.1-1 .3-1.5c.2-.4.5-.6.9-1 .3-.2.7-.3 1.2-.3Zm0 .7c-.4 0-.8.1-1 .4-.4.3-.4.7-.4 1.1h2.7c0-.4-.1-.8-.3-1-.2-.4-.6-.5-1-.5Zm0 0" style="fill:none;stroke-width:3;stroke-linecap:butt;stroke-linejoin:round;stroke:#fff;stroke-opacity:.6;stroke-miterlimit:10" transform=" rotate(  340 176.108 114.745) "/> <g style="fill:#222;fill-opacity:1" transform=" rotate(  340 176.108 114.745) ">  <use xlink:href="#r" x="148.9" y="117.7"/>  <use xlink:href="#s" x="153.7" y="117.7"/>  <use xlink:href="#t" x="159.4" y="117.7"/>  <use xlink:href="#t" x="163.5" y="117.7"/>  <use xlink:href="#s" x="167.4" y="117.7"/>  <use xlink:href="#glyph1-12" x="173.1" y="117.7"/>  <use xlink:href="#u" x="175.7" y="117.7"/>  <use xlink:href="#v" x="183.1" y="117.7"/>  <use xlink:href="#w" x="188.7" y="117.7"/>  <use xlink:href="#q" x="194.9" y="117.7"/>  <use xlink:href="#s" x="198.5" y="117.7"/> </g> <path d="M164.6 211.4c0 .6-.2 1-.7 1.4-.5.4-1 .6-1.9.6l-1-.1a3 3 0 0 1-1-.3v-.8a5 5 0 0 0 1 .3h1c.7.1 1 .1 1.4-.1.2-.4.3-.6.3-1 0-.2 0-.4-.2-.6 0-.1-.2-.3-.5-.4a7.2 7.2 0 0 0-1-.4l-1.4-.8c-.3-.4-.4-.8-.4-1.4 0-.3 0-.7.3-1a2 2 0 0 1 .8-.5 3 3 0 0 1 1.1-.3l1.1.1a5 5 0 0 1 1 .3l-.5.8a4.5 4.5 0 0 0-.7-.3h-.9c-.4-.1-.8-.1-1 .1-.2.3-.3.5-.3 1l.1.5.5.4 1 .4.9.5.8.6.2 1Zm5.8-3.4v5.2h-.7l-.2-.6-.7.6-1 .2c-.7 0-1.1-.2-1.5-.5-.3-.3-.3-.8-.3-1.5V208h.7v3.4c.1.8.5 1.2 1.3 1.2.5 0 1-.1 1.2-.5.2-.3.3-.8.3-1.4v-2.8Zm2.6 5.3h-1v-7.6h1Zm2.6 0h-1v-7.6h1.1Zm2.1-7.4.4.1.1.5-.1.4-.4.1h-.4l-.1-.5.1-.5h.4Zm.4 2v5.4h-.9v-5.4ZM181 213.3l-2-5.4h1l1 3.2.3.5.1.4.1.5.1-.5a16 16 0 0 1 .4-1l1-3.1h1.1l-2.1 5.4Zm6-5.5c.5 0 1 .2 1.3.4.4.4.6.8.6 1.5v3.6h-.7l-.2-.8-.7.7-1 .2c-.7 0-1.1-.2-1.3-.4-.3-.3-.5-.7-.5-1.2 0-.6.2-1 .6-1.3.5-.2 1.1-.4 2-.4h.9v-.5c0-.3-.1-.6-.3-.8-.2-.2-.5-.3-.8-.3-.3 0-.6 0-.9.2l-.6.2-.4-.6c.3-.3.6-.3 1-.3l1-.2Zm1 2.8h-.8c-.7.2-1.1.3-1.4.4-.2.2-.4.4-.4.8 0 .2.1.5.3.7l.7.2c.6 0 .8-.2 1.1-.4.3-.3.5-.7.5-1.3Zm5.1-2.8c.6 0 1.1.2 1.4.5.5.3.5.7.5 1.5v3.5h-.8v-3.5c0-.8-.4-1.3-1.2-1.3-.6 0-1 .2-1.3.5-.2.4-.3 1-.3 1.5v2.8h-.9v-5.4h.7l.2.7.7-.6 1-.2Zm0 0" style="fill:none;stroke-width:3;stroke-linecap:butt;stroke-linejoin:round;stroke:#fff;stroke-opacity:.6;stroke-miterlimit:10" transform=" rotate(  340 177.369 210.265) "/> <g style="fill:#222;fill-opacity:1" transform=" rotate(  340 177.369 210.265) ">  <use xlink:href="#x" x="159.6" y="213.3"/>  <use xlink:href="#w" x="165.1" y="213.3"/>  <use xlink:href="#k" x="171.2" y="213.3"/>  <use xlink:href="#k" x="173.8" y="213.3"/>  <use xlink:href="#n" x="176.4" y="213.3"/>  <use xlink:href="#y" x="179" y="213.3"/>  <use xlink:href="#v" x="184.1" y="213.3"/>  <use xlink:href="#o" x="189.7" y="213.3"/> </g> <path d="m381.6 220.2 1.8-8.6h1.1l-.8 3.7h3.8l.8-3.7h1l-1.8 8.6h-1l.8-4h-3.8l-.8 4Zm10.7.1c-.8 0-1.4-.3-1.8-.7-.4-.4-.5-1-.5-1.8-.1-.5-.1-1 0-1.5.2-.3.4-.9.7-1.3.2-.4.6-.7 1-1 .3-.1.9-.2 1.3-.2.8-.1 1.4.1 1.8.5.5.5.7 1 .7 1.9 0 .5 0 1-.2 1.4l-.6 1.4-1 1c-.4.1-.9.2-1.4.2Zm0-.9c.4 0 .8-.1 1-.4.5-.3.7-.6.9-1a5.3 5.3 0 0 0 .2-2 2 2 0 0 0-.1-.7l-.4-.5c-.2-.2-.5-.2-.9-.2s-.7.1-1.1.4c-.3.3-.5.7-.7 1.2-.2.5-.3 1-.3 1.6.1.5.1 1 .4 1.2.2.3.6.4 1 .4Zm6.7.9c-.7 0-1.3-.3-1.7-.7-.5-.4-.7-1-.7-1.8 0-.5 0-1 .2-1.5l.6-1.3 1-1c.4-.1 1-.2 1.4-.2.8-.1 1.4.1 1.8.5.4.5.6 1 .6 1.9 0 .5 0 1-.2 1.4 0 .5-.3 1-.6 1.4-.2.4-.6.7-1 1-.4.1-.8.2-1.4.2Zm0-.9c.6 0 .9-.1 1.2-.4.2-.3.5-.6.8-1a5.3 5.3 0 0 0 .2-2 2 2 0 0 0-.2-.7c0-.2-.2-.3-.4-.5s-.4-.2-.8-.2-.8.1-1.1.4c-.3.3-.6.7-.8 1.2l-.2 1.6c0 .5.1 1 .3 1.2.3.3.6.4 1 .4Zm5.7.9-1-.1c-.5 0-.7-.2-.9-.3v-.9l.8.3a3 3 0 0 0 1 .1c.5 0 .9 0 1.1-.2.3-.2.4-.5.4-.8-.1-.2-.1-.4-.3-.4a4.7 4.7 0 0 0-.8-.7c-.5-.3-.8-.5-1-.8-.3-.3-.4-.6-.4-1 0-.6.2-1 .6-1.5.4-.2 1-.4 1.6-.4.4 0 .8 0 1 .2a5 5 0 0 1 1.1.2l-.6.9-.6-.2a3 3 0 0 0-.9-.2c-.3 0-.6.1-.8.3-.2.1-.3.4-.3.6 0 .2 0 .4.2.6l.8.5.8.5.5.6.2.7c0 .7-.3 1.2-.7 1.5-.5.4-1 .5-1.8.5Zm5.8-7.6-.4-.1-.1-.6s0-.3.2-.4c0-.2.3-.2.5-.2.3 0 .5.1.5.5 0 .1 0 .4-.2.6l-.5.2Zm-2.2 7.5 1.4-6.4h1l-1.3 6.4Zm5.7.1c-.8 0-1.3-.2-1.8-.6-.2-.5-.4-1-.4-1.8-.1-.5-.1-1 .1-1.5.1-.5.3-1 .6-1.4l1-1c.5-.2.9-.4 1.5-.4.5 0 .9.2 1.2.4.3.3.5.7.5 1.1 0 .5-.1.9-.4 1.2-.2.3-.7.6-1.2.7-.6.3-1.3.4-2.1.4h-.3v.4c0 .5.1 1 .4 1.2.2.3.6.4.9.4h1.2l.6-.6v1.2l-.8.1-1 .2Zm-1-3.7c.5 0 1 0 1.3-.2.4 0 .8-.2 1-.4.2-.2.4-.4.4-.8l-.2-.5-.7-.2c-.4 0-.7.2-1.1.6-.4.3-.6.8-.8 1.5Zm4.4 3.6 1.4-6.4h.8l-.1 1.1a9 9 0 0 1 .7-.6l.5-.5.8-.2h.5l.2.2-.2.9-.6-.1c-.4 0-.8.1-1.1.4l-.8 1-.4 1.3-.6 2.9ZM379 234.5l1.8-8.5h1.1l2.7 7a34.6 34.6 0 0 1 .4-2.3l1-4.7h1l-1.8 8.5h-1.1l-2.7-7-.1.5a21.3 21.3 0 0 1-.3 1.9l-1 4.6Zm10.3.1c-.5 0-1-.1-1.3-.5-.3-.4-.4-1.1-.4-1.7 0-.6 0-1.1.2-1.7.1-.5.4-1 .6-1.4l1-1c.4-.2.8-.3 1.3-.3.4 0 .8 0 1 .3.3.2.5.5.6.8l.6-1.1h.7l-1.4 6.5h-.8l.1-1.2-1 1a2 2 0 0 1-1.2.3Zm.3-.8c.4 0 .6-.1.9-.4l.8-.8.5-1.3.2-.6v-.7c0-.2 0-.5-.3-.8-.3-.2-.5-.2-.9-.2-.3-.1-.6-.1-.8.2-.3.1-.6.4-.7.8l-.5 1-.2 1.5c0 .4.1.7.4 1 0 .1.3.2.6.2Zm6.4.8c-.4 0-.8 0-1-.3-.5-.2-.6-.5-.6-1v-1.1l1-3.2h-1.1l.1-.6 1-.4.9-1.4h.7l-.5 1.5h1.7l-.2.8h-1.6l-.8 3.5v1.2l.7.2h.3l.4-.3v.9l-.4.2h-.6Zm4.3-7.6h-.3l-.2-.5.1-.6.6-.2c.3 0 .5.2.5.5s0 .5-.2.6c-.1.2-.3.2-.5.2Zm-2.2 7.5 1.4-6.4h1l-1.3 6.4Zm5.7.1c-.7 0-1.3-.2-1.7-.6-.4-.5-.7-1-.7-2l.2-1.3.6-1.4 1-1 1.6-.3c.6 0 1.2.2 1.6.7.4.3.7 1 .7 1.8l-.2 1.5-.7 1.3c-.2.4-.6.7-1 1-.4.2-.8.3-1.4.3Zm.2-.9c.3 0 .6 0 .9-.4.4-.2.6-.6.8-1.1a5.3 5.3 0 0 0 .3-1.8 2 2 0 0 0-.1-.7c-.1-.3-.3-.5-.5-.7l-.7-.1c-.5 0-.9.1-1.2.4-.3.3-.5.7-.7 1.2-.2.5-.3 1-.3 1.7 0 .5.1.8.5 1.1 0 .3.5.4.9.4ZM408 234.5l1.2-6.4h1.1l-.3 1.1.6-.6.8-.5a2 2 0 0 1 .9-.1c.5 0 1 .1 1.2.4.3.2.4.6.4 1.2v1l-1.1 4h-.8l.6-4.2v-.4l.3-.3c-.1-.5-.4-.8-.9-.8-.3 0-.6 0-.9.3-.3.2-.6.5-.8.8-.3.5-.5 1-.7 1.8l-.6 2.7Zm8.9.1c-.5 0-1-.1-1.3-.5-.3-.4-.5-1.1-.5-1.7 0-.6.1-1.1.3-1.7.1-.5.4-1 .6-1.4l1-1c.4-.2.8-.3 1.3-.3.4 0 .8 0 1 .3.3.2.5.5.7.8l.5-1.1h.7l-1.4 6.5h-.8v-1.2l-1 1a2 2 0 0 1-1.1.3Zm.3-.8c.3 0 .6-.1.9-.4l.8-.8.5-1.3.1-.6v-.7c.1-.2.1-.5-.2-.8-.3-.2-.5-.2-.9-.2-.3-.1-.6-.1-.9.2-.2.1-.5.4-.5.8l-.6 1-.2 1.5c0 .4.1.7.3 1 .2.1.4.2.7.2Zm4.5.7 2-9.1h1l-2 9.1Zm-35.8 14.3 1.8-8.5h4.3v1h-3.4l-.7 2.9h3.1l-.2 1.1h-3l-.8 3.4Zm8.1.2c-.5 0-1.1-.4-1.6-.8-.4-.4-.7-.9-.7-1.7 0-.5 0-1 .2-1.5.1-.5.3-1 .6-1.3.3-.4.6-.8 1-1 .5-.2.9-.4 1.5-.4.7 0 1.3.3 1.7.7.3.4.6 1 .6 1.8 0 .5 0 1-.2 1.5-.1.5-.3 1-.6 1.3l-1 1c-.4.2-.9.3-1.4.3Zm.3-1c.2 0 .6 0 .9-.2.3-.4.6-.8.8-1.3a5.3 5.3 0 0 0 .2-1.8 2 2 0 0 0 0-.7l-.6-.6-.7-.2c-.4 0-.8.2-1.1.5-.3.3-.6.7-.8 1.2l-.2 1.6c0 .5 0 .9.2 1.2.4.2.7.3 1.1.3Zm3.9.8 1.4-6.4h.8v1.2a9 9 0 0 1 .5-.6l.6-.5.8-.2h.7l-.2 1.1h-.6c-.4-.1-.8-.1-1 .3-.5.2-.8.6-1 1l-.2 1.2-.7 3.1Zm7.1.2c-.7 0-1.3-.2-1.7-.7-.4-.3-.6-1-.6-1.7 0-.6 0-1 .2-1.6.2-.5.4-1 .8-1.3 0-.5.5-.8.9-1 .4-.3.8-.4 1.3-.4.6 0 1 .1 1.4.4.3.3.4.6.4 1.1 0 .4 0 .8-.4 1.1-.2.4-.6.7-1.2.9-.4.2-1.2.2-2.1.2h-.3v.5c0 .5 0 .9.4 1.2.3.3.6.3 1.1.3h.9l.9-.4v.9c-.3.1-.6.3-1 .3l-.9.2Zm-1-3.8 1.3-.1c.5-.1.8-.2 1-.4.4-.2.4-.5.4-.8 0-.2 0-.4-.2-.5-.1-.2-.4-.2-.8-.2-.2 0-.6.2-.9.5-.5.4-.8.9-1 1.5Zm6 3.8c-.4 0-.8 0-1-.2l-.9-.2v-1l.8.3a3 3 0 0 0 1 .2c.5 0 .9-.1 1.1-.3.3-.2.4-.4.4-.7 0-.2 0-.4-.3-.6a4.7 4.7 0 0 0-.8-.5c-.5-.3-.8-.6-1-.9-.3-.1-.4-.6-.4-1 0-.5.2-1 .6-1.3.4-.3 1-.5 1.6-.5l1 .1a5 5 0 0 1 1.1.3l-.5.9-.7-.3a3 3 0 0 0-.9-.1c-.3 0-.6 0-.8.2-.2.2-.3.4-.3.7 0 .2 0 .4.2.5.1.2.4.4.8.6l.8.5.5.5.2.8c0 .6-.3 1-.8 1.5-.4.3-1 .5-1.7.5Zm5.5 0c-.4 0-.8-.1-1-.3-.5-.2-.6-.7-.6-1.1v-.9l1-3.5h-1.1l.1-.5 1-.4.8-1.3h.7l-.4 1.4h1.7l-.2.8h-1.6l-.8 3.5v1.3l.6.1h.4l.4-.2v.9h-.4l-.6.2Zm0 0" style="fill:none;stroke-width:2;stroke-linecap:butt;stroke-linejoin:round;stroke:#fff;stroke-opacity:.6;stroke-miterlimit:10" transform=" rotate(  340 402.767 231.518) "/> <g style="fill:green;fill-opacity:1" transform=" rotate(  340 402.767 231.518) ">  <use xlink:href="#z" x="381.1" y="220.2"/>  <use xlink:href="#A" x="389.3" y="220.2"/>  <use xlink:href="#A" x="396" y="220.2"/>  <use xlink:href="#B" x="402.8" y="220.2"/>  <use xlink:href="#C" x="408" y="220.2"/>  <use xlink:href="#D" x="411.1" y="220.2"/>  <use xlink:href="#E" x="417.1" y="220.2"/>  <use xlink:href="#F" x="378.5" y="234.5"/>  <use xlink:href="#G" x="387" y="234.5"/>  <use xlink:href="#H" x="393.8" y="234.5"/>  <use xlink:href="#C" x="397.8" y="234.5"/>  <use xlink:href="#A" x="400.9" y="234.5"/>  <use xlink:href="#I" x="407.6" y="234.5"/>  <use xlink:href="#G" x="414.6" y="234.5"/>  <use xlink:href="#J" x="421.4" y="234.5"/>  <use xlink:href="#K" x="385.4" y="248.8"/>  <use xlink:href="#A" x="391.1" y="248.8"/>  <use xlink:href="#E" x="397.9" y="248.8"/>  <use xlink:href="#D" x="402.4" y="248.8"/>  <use xlink:href="#B" x="408.4" y="248.8"/>  <use xlink:href="#H" x="413.6" y="248.8"/> </g></svg>