<svg xmlns="http://www.w3.org/2000/svg" xmlns:xlink="http://www.w3.org/1999/xlink" viewBox="0 0 497 279"> <defs overflow="visible" style="stroke:none">  <path id="O" d="M1.8 0c-.3 0-.6 0-.8-.1C.7-.3.6-.6.6-1v-.8l.8-2.9h-1L.5-5l1-.5.5-1h.6l-.3 1h1.3l-.1.8H2.2l-.7 3v.8l.5.3h.3l.4-.3V0h-.9Zm0 0"/>  <path id="N" d="M2 0c-.6 0-.9 0-1.2-.3C.6-.7.5-1 .5-1.7c0-.5 0-1 .2-1.5l.5-1.1c.2-.4.5-.7.8-.9a2 2 0 0 1 1.1-.3c.4 0 .6.1.9.3l.5.7.3-.9h.7L4.4 0h-.7l.1-1c-.3.3-.5.6-.9.8-.3.2-.6.2-.9.2Zm.1-.5c.4-.1.6-.2.9-.5l.6-.6a4 4 0 0 0 .4-1 3 3 0 0 0 .1-.7 4 4 0 0 0 0-.4c.1-.3.1-.5-.1-.7-.3-.2-.5-.3-.8-.3-.3 0-.5 0-.7.2a2 2 0 0 0-.6.7l-.4 1-.1 1.1c0 .4 0 .6.2.8.1.2.3.3.6.3Zm.1-.1"/>  <path id="M" d="M.4 0 2-7.1h1l2 5.9a25 25 0 0 1 .5-2l.8-4H7L5.6 0h-1l-2-6-.4.7v.7L2-4l-.8 4Zm0 0"/>  <path id="L" d="m1.9 2.4-1-.1-.6-.2v-.9c.2.2.5.2.7.4a3 3 0 0 0 .8.1c.4 0 .8-.1 1-.3.3-.2.5-.6.6-1l.1-.4.1-.5.1-.5-.8.8c-.3.2-.6.2-.9.2s-.8-.1-1-.4C.6-.7.5-1 .5-1.7c0-.5 0-1 .2-1.4 0-.5.3-.9.5-1.2.2-.4.5-.7.8-.8a2 2 0 0 1 1.1-.4c.4 0 .7.1.9.3l.5.7.3-.9h.7L4.3.3c-.2.8-.5 1.3-.9 1.7-.4.2-1 .4-1.4.4Zm.3-3c.3 0 .5-.1.8-.4l.5-.5.5-1 .2-1.1c0-.4-.2-.6-.3-.8-.1-.2-.4-.3-.7-.3-.3 0-.5 0-.7.2-.3.2-.5.5-.6.7l-.4 1-.1 1.1c0 .7.3 1 .8 1Zm0 0"/>  <path id="K" d="m.2 0 1.2-5.4h.8l-.2 1 .5-.6a2 2 0 0 1 .6-.3l.9-.2c.3 0 .6.1.9.5.1 0 .4.4.4.9v.4l-.2.5L4.4 0h-.9l.7-3.4v-.4l.2-.2c-.1-.5-.3-.7-.8-.7-.2 0-.4 0-.6.2-.3.2-.6.5-.8.8-.2.3-.4.8-.5 1.4L1.2 0Zm0 0"/>  <path id="J" d="M2.5 0C1.9 0 1.4 0 1-.4.7-.8.5-1.3.5-2l.1-1.2a4 4 0 0 1 .5-1.1c.3-.3.5-.7.9-.8.3-.2.7-.3 1.2-.3.6 0 1 .2 1.4.4.4.5.6 1.1.6 1.6L5-2a4 4 0 0 1-.5.9c-.2.5-.5.8-.8 1L2.5 0Zm0-.6c.5-.1.6-.1 1-.4.1-.2.3-.5.5-1 .2-.3.3-.8.3-1.4L4.2-4a1 1 0 0 0-.4-.5l-.6-.2c-.4 0-.7.1-1 .4-.2.2-.5.6-.6 1A4 4 0 0 0 1.4-2c0 .5 0 .8.3 1 .2.2.5.3.8.3Zm0-.1"/>  <path id="I" d="m.3 0 1.1-5.4h.7v1l.4-.5.6-.4.7-.2c.4 0 .7.2.9.5.2 0 .3.4.3.7l.5-.5.6-.5.9-.2c.3 0 .6.2.9.5.1 0 .2.4.2.9v.4l-.1.4L7.4 0h-.9l.7-3.4v-.4l.2-.2c-.1-.3-.1-.4-.3-.5 0-.2-.1-.2-.5-.2-.2 0-.4 0-.6.2l-.7.8c-.3.3-.4.7-.5 1.3L4.3 0h-1l.9-3.4v-1.1c-.4-.2-.5-.2-.8-.2-.1 0-.3 0-.6.2l-.6.8c-.3.3-.4.7-.5 1.4L1.2 0Zm0 0"/>  <path id="H" d="M2.4 0c-.6 0-1 0-1.4-.3C.6-.8.5-1.3.5-2c0-.3 0-.8.2-1.2 0-.4.3-.8.5-1.1.2-.4.5-.7.8-.8a2 2 0 0 1 1.2-.4c.5 0 .8.2 1.1.5.3 0 .4.4.4.8 0 .3-.1.7-.3 1-.4.2-.6.4-1 .6-.6.2-1.2.3-1.9.3h-.1v.3c0 .5 0 .8.3 1 .2.3.5.4.9.4l.7-.1A5 5 0 0 0 4-1v.7a6 6 0 0 1-.7.3h-.9Zm-.9-3 1.3-.1.7-.4c.2-.1.3-.4.3-.5l-.1-.6-.7-.1c-.2 0-.5.1-.9.4L1.6-3Zm0 0"/>  <path id="G" d="M.8 0 .6-5.4h.8l.1 2.9v1.7a13.8 13.8 0 0 1 .5-1l.2-.5 1.4-3h1v2.7a25.5 25.5 0 0 1 .2 1.8l.3-.9.4-1 1.2-2.7h1L5 0h-.9l-.2-3v-1.4l-.3.6-.4.8-1.4 3Zm0 0"/>  <path id="F" d="m.3 0 1.6-7.6h.9l-.8 3c.1.6 0 1-.2 1.3l-.1.5 2.5-2.6h1L3-3l1.4 3h-1L2.3-2.5l-.7.5-.4 2Zm0 0"/>  <path id="E" d="M2.1-6.3h-.3l-.1-.5.1-.4.4-.2c.3 0 .5.2.5.5 0 .2 0 .4-.2.5l-.4.2ZM.3 0l1.1-5.4h.9L1.2 0Zm0 0"/>  <path id="D" d="M1.4 0 1-7.1h1v6a25.3 25.3 0 0 1 .9-1.8l1.9-4.2h.9L5.9-3v2l.5-1 .2-.7 1.9-4.4h1L6.1 0h-.9v-4.6A35 35 0 0 1 5-6l-.3.6-.2.8L2.3 0Zm0 0"/>  <path d="M1 0v-7.1h4V0Zm.4-.5h3.1v-6.1h-3Zm.1 0"/>  <path id="C" d="M2.3.1c-.5 0-1-.1-1.2-.5-.4-.4-.5-1-.5-1.7 0-.6 0-1.1.2-1.7a5 5 0 0 1 .6-1.4l1-1c.4-.2.8-.3 1.3-.3s.8 0 1 .3l.8.8v-.8l.2-.8.3-2.1h1.1L5.3 0h-.9l.1-1.2-1 1a2 2 0 0 1-1.2.2Zm.4-.8.8-.3.7-.8.6-1.2.2-1.4c0-.3 0-.6-.3-.9-.2-.2-.5-.4-.9-.4-.3 0-.6.1-.9.4-.2.2-.5.3-.6.8l-.5 1.1L1.7-2c0 .8.3 1.3 1 1.3Zm0-.1"/>  <path id="B" d="M1.9.1.9 0C.4 0 .2-.2 0-.3v-1l.8.4a3 3 0 0 0 1 .2c.5-.1.9-.1 1.2-.3.2-.2.3-.5.3-.8 0-.2-.1-.3-.3-.5a4.7 4.7 0 0 0-.8-.7c-.5-.2-.8-.4-1-.7-.3-.3-.4-.6-.4-1 0-.6.2-1 .6-1.3.4-.4 1-.5 1.6-.5h1A5 5 0 0 1 5-6l-.5.7-.5-.2a3 3 0 0 0-1-.2c-.3 0-.6.1-.8.3l-.3.6c0 .2 0 .4.1.6l.9.5.8.5.5.6.2.6c0 .8-.4 1.3-.7 1.6-.5.4-1 .5-1.8.5Zm0 0"/>  <path id="A" d="M-.2 0v-.6L1-.8l1.4-7-1-.2.3-.6h2.9l-.1.6-1 .3L2-.8l.9.2-.1.6Zm0 0"/>  <path id="z" d="m.3 0 2-9.1h1L1.3 0Zm0 0"/>  <path id="y" d="M2.3.1C1.8.1 1.3 0 1-.3.8-.6.7-1 .7-1.5V-2l.1-.5.8-4h1.1l-.9 4.2a4 4 0 0 0 0 .7v.6c.3.2.5.3.8.3l.8-.3c.4-.2.7-.5 1-1L5-3.7l.6-2.7h1L5.2 0h-.8l.1-1.2-.7.6-.6.6a2 2 0 0 1-1 .1Zm0 0"/>  <path id="x" d="M3 0c-.8 0-1.4 0-1.8-.5C.8-1 .6-1.6.6-2.4c0-.5 0-1 .2-1.4.1-.5.2-1 .6-1.4.2-.4.6-.7 1-1 .4-.1.9-.2 1.4-.2.7-.1 1.3.1 1.7.6.5.4.7 1 .7 1.8 0 .5 0 1-.2 1.4l-.6 1.4-1 1C4 0 3.5 0 3 0Zm0-.7c.4-.1.8-.2 1-.5.5-.2.7-.6.9-1.1a5.3 5.3 0 0 0 .2-1.9 2 2 0 0 0-.1-.7l-.4-.5c-.2-.2-.6-.2-.8-.2-.4 0-.8.1-1.1.4-.4.3-.7.7-.8 1.2-.2.5-.3 1-.3 1.7 0 .5.2.8.4 1.1.3.3.6.4 1 .4Zm0-.1"/>  <path id="w" d="M2.2.1c-.4 0-.8 0-1-.3-.5-.2-.6-.6-.6-1l.2-1.1.7-3.2h-1l.1-.6 1.1-.5.8-1.3H3l-.3 1.5h1.8l-.3.8H2.6l-.8 3.5V-1l.7.3h.3l.4-.3v.9l-.4.1-.6.1Zm0 0"/>  <path id="v" d="M2.6-7.5 2-7.6v-.5c0-.2 0-.3.2-.5.1-.2.3-.2.5-.2.3 0 .5.2.5.5s0 .5-.2.6l-.4.2ZM.3 0l1.4-6.4h1L1.5 0Zm0 0"/>  <path id="u" d="m.3 0 1.4-6.5h1l-.3 1.2.6-.6.7-.5a2 2 0 0 1 1-.2c.5 0 .9.2 1.2.4.3.3.4.7.4 1.2v.6l-.1.5L5.3 0H4.2l.9-4v-1c.1-.4-.1-.6-.6-.6s-.7 0-1 .3c-.3.1-.6.3-.9.8L2-2.8 1.4 0Zm0 0"/>  <path id="t" d="M2.3.1c-.5 0-1-.1-1.2-.5-.4-.4-.5-1-.5-1.7 0-.6 0-1.1.2-1.7l.7-1.4 1-1c.3-.2.8-.3 1.2-.3.5 0 .8 0 1 .3l.8.8.3-1h.8L5.2 0h-.8l.1-1.2-1 1a2 2 0 0 1-1.2.2Zm.4-.8c.3-.1.5-.3.8-.4.3-.2.6-.5.8-.9l.5-1.2.2-.6v-.6c0-.3-.1-.6-.3-.9-.2-.2-.5-.4-.9-.4-.3 0-.6.1-.8.3l-.7.8-.5 1.2L1.7-2c0 .4 0 .7.2 1 .2 0 .4.2.8.2Zm0-.1"/>  <path id="s" d="m.5 0 1.8-8.6h1.5l.8 7 4-7H10L8.4 0H7.3l1-5A51.5 51.5 0 0 1 9-7.6L4.8 0h-.9L3-7.5A130.9 130.9 0 0 1 2.7-6l-.1.9L1.5 0Zm0 0"/>  <path d="M1.1 0v-8.6h5V0Zm.6-.6h3.8V-8H1.7Zm0 0"/>  <path id="r" d="M3.7.2c-.9 0-1.6-.3-2.2-.8C1-1 .7-1.8.7-2.8c0-.8.1-1.5.3-2a5.5 5.5 0 0 1 1-1.9 4 4 0 0 1 1.2-1.1 3.5 3.5 0 0 1 1.7-.4L6-8c.4 0 .7.1 1 .2l-.5 1.1-.7-.3A3 3 0 0 0 5-7c-.6 0-1 0-1.6.4-.4.5-.7 1-1 1.6a5.8 5.8 0 0 0-.3 2.1c-.1.6.1 1.1.4 1.5.5.3.8.4 1.3.4.4 0 .7 0 1-.1l1-.3v1l-1 .4-1.1.2Zm0 0"/>  <path id="q" d="M2.8.2c-.5 0-1 0-1.4-.2C1 0 .6-.2.3-.3v-1.4l1 .5a5 5 0 0 0 1.6.2c.3 0 .8 0 1.1-.2A2 2 0 0 0 5-2c.2-.2.3-.5.3-1 0-.4-.1-.7-.4-1L3.5-5a8.5 8.5 0 0 1-1-.7 2.8 2.8 0 0 1-.7-.9l-.2-1.2c0-.5.1-1.2.4-1.5a3 3 0 0 1 1.3-1.2 4.3 4.3 0 0 1 1.8-.4l1.5.2 1.2.5-.5 1.1a6.6 6.6 0 0 0-1-.4 3.9 3.9 0 0 0-1.2-.2c-.6 0-1.1.2-1.5.5-.4.3-.6.8-.6 1.4 0 .3 0 .5.2.7 0 .2.2.4.5.6l.8.5 1.2.8c.3.2.5.5.7.9.2.3.3.7.3 1.2 0 1-.4 1.9-1 2.4-.9.7-1.7.9-3.1.9Zm0 0"/>  <path id="p" d="m.6 0 2.3-10.7h1.9l1 8.7 4.8-8.7h2L10.5 0H9.1l1.3-6.4a171.5 171.5 0 0 1 .8-3L6 0H5L3.7-9.4a28.1 28.1 0 0 1-.3 1.9l-.2 1L2 0Zm0 0"/>  <path id="o" d="m.4 0 2.4-11.4h1.4L1.7 0Zm0 0"/>  <path id="n" d="M3.7.1c-1 0-1.6-.1-2.2-.8C1-1.3.7-2 .7-3L1-4.8a5.9 5.9 0 0 1 .7-1.7A4 4 0 0 1 3-7.7C3.5-8 4-8 4.7-8c1-.1 1.7 0 2.3.7.5.5.7 1.3.7 2.3 0 .6 0 1.2-.2 1.8a5.5 5.5 0 0 1-.8 1.7C6.4-1 6-.6 5.5-.3 5 0 4.4 0 3.7 0Zm.1-1c.5-.1 1-.3 1.3-.7.4-.2.7-.7.9-1.3a6.4 6.4 0 0 0 .3-2.3c.1-.3.1-.6-.1-.8a1.5 1.5 0 0 0-.5-.8c-.2-.2-.5-.2-1-.2a2 2 0 0 0-1.3.5C3-6 2.6-5.6 2.3-5a6.2 6.2 0 0 0-.1 2c-.2.8 0 1.3.3 1.6.3.4.7.4 1.3.4Zm0-.1"/>  <path id="m" d="M3.2-9.4c-.2 0-.4 0-.5-.2-.2 0-.2-.3-.2-.4s0-.6.2-.8l.7-.2c.4 0 .6.2.6.6 0 .4 0 .6-.2.8l-.6.2ZM.4 0l1.7-8h1.4L1.7 0Zm0 0"/>  <path id="l" d="M2.8.2c-.6 0-1-.2-1.4-.4C1-.5 1-1 1-1.6a5 5 0 0 1-.1-1L2-7H.7v-.6l1.5-.6.9-1.7h.7L3.4-8h2l-.1 1h-2l-1 4.3v.5l-.2.5c.1.1.1.3.3.4 0 .3.3.4.6.4h.5l.5-.3v1.1l-.5.1a3 3 0 0 1-.7 0Zm0 0"/>  <path id="k" d="m.6 0 2.3-10.7h1.4l3.3 8.8a24.4 24.4 0 0 1 .5-3l1.3-5.7h1.3L8.4 0H7L3.7-8.9a23.6 23.6 0 0 1-.5 2l-.1.9-1.2 6Zm0 0"/>  <path id="j" d="M-.4 3.6H-1l-.4-.2v-1h.4l.5.2c.5-.1.8-.2 1-.5.5-.1.7-.6 1.1-1L1.8 0 .7-8H2l.6 4v1a22 22 0 0 1 .3 2A43.6 43.6 0 0 1 4-3.7L6.3-8h1.4l-5 9.3c-.6.8-1 1.4-1.4 1.7-.4.4-.9.6-1.7.6Zm0 0"/>  <path id="i" d="M2.9.2c-.6 0-1.2-.3-1.6-.7C1-1 .7-1.7.7-2.5s.1-1.7.3-2.3a6.3 6.3 0 0 1 .8-1.7 4 4 0 0 1 1.3-1.2 3 3 0 0 1 1.6-.5c.5 0 1 .2 1.3.4l.7 1L7.3-8h1L6.5 0h-1l.2-1.5A6 6 0 0 1 4.3-.3C4 0 3.4.2 3 .2ZM3.3-1c.4 0 .8-.1 1.1-.3a4 4 0 0 0 1-1.1 6 6 0 0 0 .8-2.4v-.7c0-.4-.1-.8-.4-1.1-.2-.4-.6-.5-1-.5s-.7.1-1 .4c-.5.2-.8.6-1.1 1l-.4 1.5c-.3.4-.3.9-.3 1.6 0 .6 0 1 .4 1.3.2.2.5.3 1 .3Zm0 0"/>  <path id="h" d="M.6 0 3-10.7h2.7c1 0 1.7.2 2.3.6.5.4.8 1 .8 1.8s-.2 1.5-.6 1.8c-.5.5-1 .8-1.8 1 .6.1 1 .4 1.2.7.4.4.5.9.5 1.5 0 .7-.1 1.3-.5 1.8-.3.5-.8.9-1.4 1.1A5.6 5.6 0 0 1 4 0Zm2.6-6.2H5c.5 0 1 0 1.2-.2a2 2 0 0 0 1-.6l.1-1c.1-.7 0-1-.3-1.3-.3-.1-.8-.3-1.5-.3H4Zm-.9 5H4c.9.1 1.6 0 2-.4.4-.5.6-1.1.6-1.7.1-.5 0-1-.3-1.2C6-5 5.4-5 4.7-5H3Zm-.1.1"/>  <path id="g" d="m.4 0 1.7-8h1.1L3-6.6h.1l.7-.7c.2-.3.5-.5.8-.7a2 2 0 0 1 1-.2H6l.4.2-.2 1.1h-.8a2 2 0 0 0-1.4.3 4 4 0 0 0-1 1.4l-.4 1.5L1.7 0Zm0 0"/>  <path id="f" d="M3.6.2C2.7.2 2-.1 1.5-.7 1-1.2.7-1.9.7-2.9a6.6 6.6 0 0 1 1.1-3.6c.3-.5.8-1 1.3-1.2a3 3 0 0 1 1.6-.5c.8 0 1.4.2 1.8.5.3.3.5.8.5 1.4 0 .5 0 1-.5 1.3-.3.5-.8 1-1.5 1.1-.7.3-1.6.4-2.7.4h-.2v.6c-.1.6.1.9.4 1.4.3.5.8.6 1.4.6.4-.1.7-.1 1-.2l1.2-.5v1.2L4.9 0 3.6.2ZM2.3-4.5 4-4.7c.6-.1 1-.3 1.3-.5.3-.3.5-.6.5-1 0-.3-.1-.5-.3-.6-.2-.2-.5-.3-.8-.3-.5.1-1 .2-1.4.7-.5.4-.8 1-1 1.9Zm0 0"/>  <path id="e" d="M2.9.2c-.6 0-1.2-.3-1.6-.7C1-1 .7-1.7.7-2.5A8 8 0 0 1 1-4.8a6.4 6.4 0 0 1 .8-1.7c.2-.5.7-1 1.2-1.2a3 3 0 0 1 1.7-.5c.5 0 1 .2 1.3.4l.7 1a150.6 150.6 0 0 0 .5-2l.5-2.6H9L6.5 0h-1l.1-1.5L4.4-.3c-.5.3-1 .5-1.5.5ZM3.3-1c.4 0 .7-.1 1-.3l1-1c.3-.4.5-1 .7-1.5a5.5 5.5 0 0 0 .3-1.7c0-.4-.3-.8-.5-1.1-.1-.4-.5-.5-1.1-.5-.2.1-.7.2-.9.4l-1 1-.5 1.5c-.3.5-.3 1-.3 1.6 0 1.1.5 1.7 1.3 1.7Zm0 0"/>  <path id="d" d="M.4 0 2-8h1.2l-.1 1.3a7 7 0 0 1 .7-.6c.2-.3.5-.5.9-.7l1.1-.2c.7 0 1.2.1 1.5.5.4.4.7.9.7 1.5v.7l-.4.6L6.7 0H5.2l1.1-5a9 9 0 0 0 .1-.7v-.4c.1-.6-.2-.9-.9-.9-.3 0-.6.2-1 .4s-.9.6-1.1 1c-.4.6-.8 1.3-1 2.1L1.8 0Zm0 0"/>  <path id="c" d="M2.8.2c-.6 0-1-.2-1.4-.6C1-.7.8-1.2.8-1.8v-.7l.2-.6 1-5h1.4L2.3-3a5 5 0 0 0-.1 1c0 .3 0 .6.2.8.2.2.4.2.8.2.3 0 .7-.1 1.1-.3.4-.2.8-.6 1.1-1.2.3-.5.6-1.2.8-2L6.9-8h1.3L6.5 0h-1l.1-1.5a8 8 0 0 1-.8.8L4-.1c-.3.2-.7.3-1.2.3Zm0 0"/>  <path id="b" d="m.4 0 2.4-11.4h1.4l-.7 3-.2.9-.3 1h.1l.7-.8c.2-.2.5-.5.9-.6.3-.2.7-.3 1.1-.3.6 0 1.2.2 1.5.5.4.4.5.9.5 1.7v.5l-.1.5-1 5H5.2l1.1-5 .3-1c-.1-.4-.1-.6-.3-.8-.3-.2-.5-.3-.8-.3-.5.1-.7.1-1.1.4-.4.2-.8.6-1.1 1.1-.4.6-.6 1.3-.8 2.1L1.7 0Zm0 0"/>  <path id="a" d="m2.3 0 2-9.5h-3l.3-1.2h7.2l-.2 1.2h-3L3.7 0Zm0 0"/>  <path d="M1.4 0v-10.7h6.2V0Zm.8-.8h4.6v-9.1H2.2Zm0 0"/> </defs> <image xlink:href="svg/9/103_6.jpg" width="497" height="279"/> <path d="m47.5 233.3 2-9.5h-3l.3-1.2H54l-.2 1.2h-3l-2 9.5Zm5.6 0 2.4-11.3H57l-.8 3-.2.9-.3.8h.1l.7-.7.9-.6c.3-.2.6-.2 1.1-.2.6 0 1.1.1 1.5.5.4.3.5.8.5 1.5v.6l-.1.6-1 5H58l1-5.2.3-.9c-.1-.3-.1-.6-.3-.8-.2-.2-.5-.3-.8-.3-.4 0-.7.2-1.2.4-.3.2-.7.6-1 1.1-.4.6-.6 1.3-.8 2.3l-.8 3.3Zm11.1.2c-.6 0-1-.2-1.4-.5-.4-.4-.6-1-.6-1.5v-.7l.3-.6.9-5h1.4l-1.1 5.2a5 5 0 0 0-.2.9c0 .4.1.7.3.8.2.2.4.3.8.3.3 0 .7-.1 1.1-.4.4-.2.8-.6 1-1 .5-.7.8-1.4 1-2.3l.6-3.4h1.3l-1.6 8h-1v-1.5a8 8 0 0 1-.8.8c-.2.2-.5.4-.9.6-.3.2-.5.3-.9.3Zm6.2-.2 1.7-8h1.2l-.1 1.3a7 7 0 0 1 .6-.6c.3-.3.6-.5 1-.6.2-.2.5-.4.9-.4.9 0 1.3.3 1.8.6.3.4.5.9.5 1.5l-.1.7-.1.6-1 5h-1.6l1.1-5.2a9 9 0 0 0 .3-.5v-.5c0-.6-.3-1-1-1-.4.1-.8.3-1.1.5-.5.3-.8.5-1.1 1.1-.4.5-.6 1.2-.8 2l-.8 3.6Zm11.2.2c-.6 0-1.1-.2-1.5-.7-.4-.5-.6-1.2-.6-2a8 8 0 0 1 .2-2.3 6.4 6.4 0 0 1 .8-1.7c.5-.5.8-.8 1.3-1.2a3 3 0 0 1 1.6-.4c.6 0 1 0 1.3.4.3.2.6.6.7 1h.1a150.5 150.5 0 0 0 .3-2.1l.6-2.7h1.3l-2.4 11.5h-1v-1.5c-.3.5-.7.9-1.2 1.2-.4.3-.9.5-1.5.5Zm.5-1.1c.3 0 .7-.1 1-.4l1-1c.2-.4.5-.9.6-1.4a5.5 5.5 0 0 0 .3-1.7c0-.5-.1-1-.4-1.2-.2-.3-.6-.5-1.1-.5-.4 0-.8.2-1 .4l-1.1 1-.4 1.6-.2 1.6c0 1 .4 1.6 1.3 1.6Zm8.9 1.1c-.8 0-1.5-.3-2-.8-.7-.7-.9-1.3-.9-2.3a6.6 6.6 0 0 1 1.1-3.6c.4-.5.8-.8 1.3-1.2a3 3 0 0 1 1.7-.5c.7 0 1.3.2 1.7.5.4.4.6.8.6 1.4 0 .5-.2 1-.5 1.4-.3.6-1 .8-1.5 1-.7.4-1.6.5-2.7.5h-.3v.5c0 .6.1 1 .4 1.5.3.3.8.5 1.4.5.4 0 .7 0 1-.2l1.3-.4v1c-.5.4-.9.5-1.2.6l-1.4.1Zm-1.2-4.7c.6 0 1.2 0 1.7-.2.5 0 1-.3 1.2-.5.3-.1.5-.6.5-1 0-.1-.2-.5-.3-.6-.2-.2-.4-.3-.8-.3-.5 0-1 .3-1.4.8-.4.3-.8.9-1 1.8Zm5.5 4.5 1.7-8h1.1l-.1 1.5.7-.8c.2-.3.5-.5.8-.6a2 2 0 0 1 1-.4h.4l.5.3-.4 1.1h-.7a2 2 0 0 0-1.3.3 4 4 0 0 0-1 1.4c-.3.5-.4.9-.6 1.6l-.7 3.6Zm-64.6 17.9 2.3-10.7h2.7c1 0 1.8.2 2.4.6.5.4.8 1 .8 1.9.1.7-.2 1.3-.6 1.8-.5.4-1 .7-1.8.9.5.3.9.4 1.2.8.4.3.5.8.5 1.4 0 .7-.2 1.3-.5 1.8-.4.6-.9 1.1-1.5 1.3a5.6 5.6 0 0 1-2 .2Zm2.6-6.1h1.8c.4-.1.8-.1 1.2-.2a2 2 0 0 0 .9-.7c.2-.2.3-.5.3-.9 0-.6-.1-1-.4-1.3-.3-.2-.8-.3-1.5-.3H34Zm-1 4.9h1.9c.8 0 1.5-.1 2-.5.3-.4.5-.9.5-1.5.1-.6 0-1-.4-1.3-.3-.3-.8-.5-1.5-.5H33Zm9.7 1.4c-.7 0-1.2-.2-1.6-.7-.4-.5-.6-1.2-.6-2s0-1.6.3-2.3a6.3 6.3 0 0 1 .8-1.7 4 4 0 0 1 1.3-1.2 3 3 0 0 1 1.5-.5c.7 0 1.1.2 1.3.5.4.3.6.5.8 1l.5-1.4h1l-1.7 8.1h-1l.2-1.4h-.1a6 6 0 0 1-1.2 1c-.5.4-1 .6-1.5.6Zm.4-1.1c.4 0 .7-.1 1.1-.4a4 4 0 0 0 1-1.1 6 6 0 0 0 .8-2.3v-.7c0-.5-.1-.9-.3-1.2-.3-.3-.7-.4-1-.4s-1 0-1.2.3l-.9 1-.6 1.5-.2 1.7c0 .5.1 1 .4 1.2.2.3.5.4 1 .4Zm4.8 4.5h-.6l-.4-.1v-1h.8c.6.1 1 .1 1.1-.3.5-.4.7-.6.9-1.1l.5-1-1.2-8h1.3l.6 3.9v1a22 22 0 0 1 .3 2 43.6 43.6 0 0 1 1.1-2.6l2.3-4.4h1.4l-5 9.4-1.3 1.7c-.5.3-1 .5-1.8.5Zm11.9-3.6 2.3-10.7h1.4l3.3 8.9a24.4 24.4 0 0 1 .5-3l1.4-5.9h1.2l-2.3 10.7h-1.4l-3.3-8.8a23.6 23.6 0 0 1-.5 1.9l-.1 1.1-1.2 5.8Zm12.9.2c-.6 0-1.2-.2-1.6-.7-.4-.5-.6-1.2-.6-2s.2-1.6.3-2.3a6.3 6.3 0 0 1 .9-1.7 4 4 0 0 1 1.2-1.2 3 3 0 0 1 1.6-.5c.5 0 1 .2 1.2.5l.8 1 .7-1.4h.9l-1.7 8.1h-1.1l.2-1.4a6 6 0 0 1-1.4 1c-.3.4-.9.6-1.4.6Zm.4-1.1c.4 0 .8-.1 1.1-.4a4 4 0 0 0 1-1.1 6 6 0 0 0 .8-2.3v-.7c0-.5 0-.9-.3-1.2-.3-.3-.7-.4-1-.4-.6 0-.9 0-1.3.3l-.7 1-.6 1.5c-.2.5-.2 1-.2 1.7 0 .5 0 1 .3 1.2.2.3.5.4 1 .4Zm8 1.1c-.4 0-1-.1-1.4-.4-.3-.3-.5-.7-.5-1.4a5 5 0 0 1 .1-1l1-4.4h-1.4l.2-.6 1.4-.6.9-1.6h.8l-.5 1.8h2l-.1 1h-2l-1 4.4v.4l-.2.5c.1.2.1.4.3.5l.6.3h.5l.6-.3v1.1l-.7.2a3 3 0 0 1-.6 0Zm5.4-9.5-.5-.2c-.3-.2-.3-.3-.3-.5 0-.3 0-.5.3-.7.2-.2.4-.3.7-.3.4 0 .7.2.7.7 0 .3-.1.5-.3.7l-.6.3Zm-2.8 9.3 1.7-8h1.4l-1.8 8Zm7.2.2c-1 0-1.7-.4-2.2-.9-.5-.5-.8-1.3-.8-2.2 0-.7 0-1.3.2-1.9a5.9 5.9 0 0 1 .8-1.7 4 4 0 0 1 1.3-1.1c.5-.4 1-.5 1.7-.5 1-.1 1.8.3 2.2.8.6.6.8 1.3.8 2.3 0 .6 0 1.2-.2 1.8a5.5 5.5 0 0 1-.8 1.7c-.3.5-.8.9-1.3 1.2-.5.3-.9.5-1.7.5Zm0-1.1c.6 0 1.1-.3 1.5-.5.3-.4.6-.9.9-1.5a6.4 6.4 0 0 0 .2-2.3c.1-.3.1-.5-.1-.8a1.5 1.5 0 0 0-.5-.7c-.2-.2-.6-.3-1-.3a2 2 0 0 0-1.4.6c-.4.2-.7.8-1 1.4a6.2 6.2 0 0 0-.2 2.1c-.1.7.1 1.1.4 1.4.3.5.7.6 1.3.6Zm5.1.9 1.7-8h1.2l-.2 1.4a7 7 0 0 1 .7-.6c.2-.4.5-.6.9-.7.3-.3.7-.3 1.1-.3.7 0 1.3.2 1.6.5.3.5.5.9.5 1.5v.7l-.3.7-.9 4.8h-1.4l1-5a9 9 0 0 0 .3-.6v-.4c-.1-.7-.4-1-1.1-1-.4 0-.7.1-1 .3-.6.3-.9.7-1.3 1.2-.1.5-.5 1.2-.7 2l-.7 3.6Zm11.2.2c-.6 0-1.2-.2-1.6-.7-.4-.5-.6-1.2-.6-2s.1-1.6.3-2.3a6.3 6.3 0 0 1 .8-1.7 4 4 0 0 1 1.3-1.2 3 3 0 0 1 1.6-.5c.5 0 1 .2 1.3.5l.7 1 .7-1.4h.9l-1.7 8.1H109l.3-1.4a6 6 0 0 1-1.3 1c-.4.4-1 .6-1.5.6Zm.4-1.1c.4 0 .8-.1 1.1-.4a4 4 0 0 0 1-1.1 6 6 0 0 0 .8-2.3v-.7c0-.5 0-.9-.3-1.2-.3-.3-.7-.4-1-.4-.5 0-.9 0-1.3.3l-.7 1-.6 1.5c-.2.5-.2 1-.2 1.7 0 .5 0 1 .3 1.2.2.3.5.4 1 .4Zm5.6.9 2.5-11.4h1.3l-2.5 11.4ZM50 269.1l2.4-10.7h1.9l.9 8.8 4.9-8.8H62l-2 10.7h-1.4l1.3-6.3a171.5 171.5 0 0 1 .7-3l-5.2 9.2h-1l-1.2-9.2a28.1 28.1 0 0 1-.3 1.8l-.2 1.1-1.4 6.4Zm15 .2c-.7 0-1.2-.2-1.6-.7-.4-.5-.6-1.2-.6-2s.1-1.6.3-2.2a6.3 6.3 0 0 1 .8-1.8 4 4 0 0 1 1.3-1.2 3 3 0 0 1 1.6-.4c.5 0 .9 0 1.2.4.4.3.6.6.8 1l.5-1.4h1l-1.7 8.1h-1l.2-1.4a6 6 0 0 1-1.4 1.1c-.4.3-.9.5-1.4.5Zm.4-1c.4-.1.7-.3 1.1-.6a4 4 0 0 0 1-.9 6 6 0 0 0 .8-2.5v-.6c0-.5-.1-.9-.3-1.2-.3-.3-.7-.4-1-.4s-1-.1-1.2.3l-.9 1-.6 1.6-.2 1.6c0 .4.2 1 .4 1.2.2.3.5.4 1 .4Zm5.6.8 1.7-8h1.1l-.2 1.5h.1l.7-.8.8-.6a2 2 0 0 1 1-.2h.8l-.2 1.3H76a2 2 0 0 0-1.4.4 4 4 0 0 0-1 1.2l-.4 1.6-.9 3.5Zm8.8-9.3c-.3 0-.4 0-.6-.2l-.2-.6c0-.2.1-.4.3-.6.1-.2.3-.4.6-.4.5.1.7.3.7.8 0 .2 0 .5-.2.7l-.6.3ZM77 269l1.7-7.9H80l-1.7 8Zm3.8.1 1.7-8h1.2l-.2 1.5a7 7 0 0 1 .8-.8l.8-.6c.3-.2.7-.3 1.2-.3.6.1 1.1.2 1.5.5.2.4.5.9.5 1.6v.6l-.1.7L87 269h-1.3l1-4.9a9 9 0 0 0 .3-.6v-.4c0-.7-.4-1.1-1-1.1-.4.1-.8.2-1.1.5-.6.2-.9.5-1.2 1-.3.7-.5 1.4-.7 2.3l-.8 3.2Zm12 .2c-1 0-1.8-.3-2.3-.8-.5-.6-.7-1.3-.7-2.2a6.6 6.6 0 0 1 1.2-3.6c.3-.7.7-1 1.2-1.3a3 3 0 0 1 1.7-.4c.7 0 1.3 0 1.7.5.4.3.6.7.6 1.3 0 .6-.2 1-.5 1.5-.4.4-.9.7-1.7 1-.5.2-1.4.4-2.5.4h-.3v.5c0 .6.1 1.1.4 1.5.4.3.8.5 1.4.5.4 0 .7 0 1-.2.5 0 .9-.2 1.3-.4v1.1l-1.3.4-1.2.2Zm-1.5-4.7h.2c.6 0 1.2 0 1.7-.2.5 0 .8-.2 1.2-.4.3-.3.6-.7.6-1l-.4-.7c-.2-.2-.4-.2-.8-.2-.5-.1-1 .2-1.4.6-.4.5-.8 1-1 1.9Zm-48.8 22.6-1.5-.1-1-.4v-1.3l1 .5a5 5 0 0 0 1.5.1c.4 0 .8 0 1.2-.2a2 2 0 0 0 1-.6c.1-.3.3-.7.3-1.2 0-.3-.2-.7-.4-1-.3-.4-.8-.7-1.4-1a8.5 8.5 0 0 1-1-.8 2.8 2.8 0 0 1-.7-.7c-.2-.3-.3-.7-.3-1.2.1-.7.3-1.2.6-1.7a3 3 0 0 1 1.2-1 4.3 4.3 0 0 1 1.8-.4c.5 0 1 0 1.5.2.3 0 .7.2 1.2.4L47 278a6.6 6.6 0 0 0-1-.4 3.9 3.9 0 0 0-1.2-.2c-.6 0-1.1.1-1.5.5-.4.3-.6.7-.6 1.3l.1.8.5.5.9.6 1.1.8c.4.1.7.5.8.8l.3 1.3c0 1-.4 2-1.1 2.4-.7.5-1.7.8-2.8.8Zm7.6 0c-.6 0-1.1-.2-1.5-.7-.4-.5-.6-1.1-.6-2 0-.8 0-1.5.3-2.2a6.3 6.3 0 0 1 .7-1.8 4 4 0 0 1 1.3-1.2 3 3 0 0 1 1.7-.3c.4-.1 1 0 1.2.3.3.3.6.6.7 1h.1l.5-1.3h1l-1.7 8h-1v-1.3a6 6 0 0 1-1.1 1c-.5.4-1 .5-1.7.5Zm.5-1c.3-.1.7-.2 1-.6a4 4 0 0 0 1.1-.9 6 6 0 0 0 .7-2.5v-.6c.1-.6.1-.9-.2-1.2-.4-.3-.7-.4-1.2-.4s-.8 0-1 .4c-.4.2-.7.5-1 1l-.4 1.4-.3 1.7c0 .5.1 1 .3 1.2.4.3.6.4 1 .4Zm5.5.8 1.7-8H59v1.5a7 7 0 0 1 .5-.8l1-.6c.2-.2.5-.3.9-.3.9 0 1.4.2 1.8.6.3.3.5.8.5 1.5l-.1.7-.1.6-1 4.8H61l1-5a9 9 0 0 0 .3-.6v-.4c0-.7-.3-1-1-1-.3 0-.8.1-1.1.4-.4.2-.8.6-1.2 1-.3.6-.5 1.4-.7 2.3l-.8 3.3Zm12.1.2c-1 0-1.7-.2-2.2-.7-.6-.5-.8-1.3-.8-2.3 0-.7 0-1.4.3-2a5.5 5.5 0 0 1 .8-1.7 4 4 0 0 1 1.3-1.2 3.5 3.5 0 0 1 1.8-.4h1l1 .5-.4.9-.7-.1a3 3 0 0 0-1-.2c-.4 0-.9.2-1.3.6-.5.3-1 .9-1.1 1.4a5.8 5.8 0 0 0-.4 2.2c0 .6.2 1 .5 1.4.3.4.7.5 1.3.5l1-.1 1-.4v1.1l-1.1.4-1 .1Zm5.8 0c-.5 0-1-.1-1.3-.4-.4-.2-.7-.7-.7-1.4a5 5 0 0 1 .2-1l1-4.4h-1.3l.1-.6 1.4-.4 1-1.8h.6l-.3 1.8h2l-.2 1h-2l-1 4.4v1.5l.7.1h.5l.6-.1v1.1l-.6.1a3 3 0 0 1-.7.1Zm5 0c-.5 0-1-.2-1.3-.5-.5-.3-.6-.8-.6-1.5v-.6l.1-.7 1-4.9h1.5l-1.1 5a5 5 0 0 0-.3 1c.1.5.1.7.3.9.2.1.5.2.8.2.4 0 .7-.1 1.1-.3.5-.3.8-.8 1.1-1.2.4-.5.6-1.2.8-2.1l.8-3.5h1.3l-1.7 8h-1.1l.2-1.3h-.1a8 8 0 0 1-.8.6c-.1.3-.4.5-.8.7l-1.1.2Zm8.8 0c-.6 0-1.2-.2-1.6-.7-.4-.5-.6-1.1-.6-2 0-.8.1-1.5.4-2.2a6.3 6.3 0 0 1 .7-1.8 4 4 0 0 1 1.3-1.2 3 3 0 0 1 1.6-.3c.4-.1 1 0 1.3.3l.7 1 .7-1.3h.9l-1.7 8h-1.1l.2-1.3a6 6 0 0 1-1.4 1c-.2.4-.9.5-1.4.5Zm.4-1c.4-.1.8-.2 1.1-.6a4 4 0 0 0 1-.9 6 6 0 0 0 .7-2.5v-.6c.1-.6.1-.9-.2-1.2-.3-.3-.8-.4-1-.4-.6 0-.8 0-1.3.4-.2.2-.5.5-.7 1-.3.4-.5.9-.6 1.4-.2.5-.2 1.1-.2 1.7 0 .5 0 1 .3 1.2.2.3.5.4 1 .4Zm5.7.8 1.7-8h1l-.1 1.5.8-.8.7-.6a2 2 0 0 1 1-.1h.9l-.3 1.2h-.8a2 2 0 0 0-1.3.4 4 4 0 0 0-1 1.2c-.3.5-.4 1-.5 1.6l-.8 3.6Zm5.1 3.6h-1v-1.3l.4.2h.6c.4.1.7.1 1-.2l.8-1.2.5-1-1.2-7.9h1.3l.6 3.8v1a22 22 0 0 1 .3 2 43.6 43.6 0 0 1 1.1-2.6l2.3-4.4h1.4l-5 9.4-1.4 1.7c-.4.4-.9.5-1.7.5Zm0 0" style="fill:none;stroke-width:2;stroke-linecap:butt;stroke-linejoin:round;stroke:#fff;stroke-opacity:.6;stroke-miterlimit:10" transform=" rotate(  340 72.0742 257.19) "/> <g style="fill:green;fill-opacity:1" transform=" rotate(  340 72.0742 257.19) ">  <use xlink:href="#a" x="45.2" y="233.3"/>  <use xlink:href="#b" x="52.7" y="233.3"/>  <use xlink:href="#c" x="61.4" y="233.3"/>  <use xlink:href="#d" x="70.1" y="233.3"/>  <use xlink:href="#e" x="78.8" y="233.3"/>  <use xlink:href="#f" x="87.4" y="233.3"/>  <use xlink:href="#g" x="94.9" y="233.3"/>  <use xlink:href="#h" x="30.1" y="251.2"/>  <use xlink:href="#i" x="39.1" y="251.2"/>  <use xlink:href="#j" x="47.6" y="251.2"/>  <use xlink:href="#glyph0-11" x="54.6" y="251.2"/>  <use xlink:href="#k" x="58.5" y="251.2"/>  <use xlink:href="#i" x="69.1" y="251.2"/>  <use xlink:href="#l" x="77.6" y="251.2"/>  <use xlink:href="#m" x="82.6" y="251.2"/>  <use xlink:href="#n" x="86.5" y="251.2"/>  <use xlink:href="#d" x="94.9" y="251.2"/>  <use xlink:href="#i" x="103.6" y="251.2"/>  <use xlink:href="#o" x="112.1" y="251.2"/>  <use xlink:href="#p" x="49.5" y="269.1"/>  <use xlink:href="#i" x="62.1" y="269.1"/>  <use xlink:href="#g" x="70.6" y="269.1"/>  <use xlink:href="#m" x="76.6" y="269.1"/>  <use xlink:href="#d" x="80.4" y="269.1"/>  <use xlink:href="#f" x="89.1" y="269.1"/>  <use xlink:href="#q" x="39.7" y="287.1"/>  <use xlink:href="#i" x="47.2" y="287.1"/>  <use xlink:href="#d" x="55.8" y="287.1"/>  <use xlink:href="#r" x="64.5" y="287.1"/>  <use xlink:href="#l" x="71.2" y="287.1"/>  <use xlink:href="#i" x="84.9" y="287.1"/>  <use xlink:href="#g" x="93.4" y="287.1"/> </g> <path d="m185.4 87.3 1.8-8.6h1.5l.9 7 3.8-7h1.7l-1.8 8.6h-1l.9-5.1a51.5 51.5 0 0 1 .7-2.4l-4.2 7.5h-.7l-1.1-7.5a130.7 130.7 0 0 1-.2 1.5l-.2.7-1 5.3Zm12 .1c-.6 0-1-.2-1.4-.6-.2-.3-.4-.8-.4-1.6 0-.6.1-1.2.4-1.7 0-.5.2-1 .5-1.4.3-.4.6-.8 1-1.1.4-.1.8-.3 1.3-.3.4 0 .7.3 1 .4l.6.7.4-1h.8l-1.3 6.5h-.9l.2-1.3-1.1 1.1a2 2 0 0 1-1.1.2Zm.3-.9c.3 0 .6 0 .9-.3.3-.2.4-.5.7-.9.3-.3.4-.8.7-1.2v-1.2c0-.4 0-.7-.3-.9-.2-.2-.5-.3-.7-.3l-1 .3-.7.7-.3 1.3c-.3.3-.3.8-.3 1.2 0 .5 0 .8.3 1 0 .2.4.3.7.3Zm4.4.8 1.4-6.5h1l-.2 1.2.7-.6.6-.4a2 2 0 0 1 1-.3c.4 0 .7.1 1 .3.4.4.6.8.6 1.3v.7l-.2.4-.8 3.9H206l.9-4 .1-.6v-.3c0-.4-.2-.7-.8-.7-.2 0-.5 0-.8.2-.4.2-.6.5-.9 1.1-.3.1-.5.8-.6 1.4l-.6 2.9Zm9.3-7.5c-.2 0-.4 0-.5-.2l-.1-.4c0-.2 0-.4.2-.5 0-.2.3-.2.5-.2.4 0 .5.1.5.5 0 .2 0 .4-.2.6l-.4.2Zm-2.4 7.5 1.5-6.5h1l-1.2 6.5Zm5.1.1c-.4 0-.8-.1-1-.3-.5-.2-.6-.6-.6-1.1l.2-.9.7-3.4h-1l.1-.5 1.1-.5.8-1.3h.6l-.4 1.4h1.7l-.3.9h-1.5l-.8 3.5v1.1c.3.2.5.2.7.2h.3l.4-.1v.8l-.4.1-.7.1Zm4.8 0c-.9 0-1.4-.2-1.9-.7-.3-.4-.5-1-.5-1.7 0-.6 0-1 .2-1.6.1-.4.3-.9.6-1.3.2-.4.6-.7 1-1 .4-.1.7-.3 1.4-.3s1.3.2 1.7.6c.6.6.7 1 .7 1.9l-.2 1.4-.6 1.4-1 .9c-.4.2-1 .3-1.4.3Zm0-.9c.4 0 .7-.1 1.1-.4.4-.3.6-.6.8-1.1a5.3 5.3 0 0 0 .2-2 2 2 0 0 0-.1-.6l-.5-.4c-.1-.3-.4-.4-.7-.4-.5 0-.8.2-1.2.5-.3.3-.5.7-.7 1.2-.2.5-.3 1-.3 1.6 0 .5.1 1.1.5 1.2 0 .3.5.4.9.4Zm6.1.9c-.7 0-1-.1-1.4-.4-.2-.3-.3-.7-.3-1.2v-.5l.1-.5.9-4h1l-.8 4a4 4 0 0 0-.1 1.1c0 .1 0 .2.2.3.1.3.3.3.6.3s.6 0 .9-.2l.9-1c.2-.3.5-1 .6-1.7l.6-2.8h1l-1.2 6.5h-1l.1-1.3-.6.7-.7.5a2 2 0 0 1-.8.2Zm5-.1 1.8-9.1h1.1l-1.9 9Zm5.2-7.5c-.1 0-.2 0-.4-.2l-.1-.4c0-.2 0-.4.2-.5 0-.2.3-.2.5-.2.3 0 .5.1.5.5.1.2.1.4-.2.6l-.5.2Zm-2.2 7.5 1.4-6.5h1l-1.3 6.5Zm3 0 1.5-6.5h.9l-.2 1.2.7-.6.6-.4a2 2 0 0 1 1-.3c.5 0 .8.1 1.1.3.3.4.4.8.4 1.3v1.1l-1 3.9h-1l.8-4 .2-.6v-.3c0-.4-.2-.7-.7-.7-.4 0-.7 0-1.1.2l-.7 1.1c-.3.1-.5.8-.7 1.4l-.6 2.9Zm-38.8 14.3v-.6l1.2-.2 1.4-7-1-.1.2-.6h3l-.1.5-1 .4-1.6 6.8 1 .2-.1.6Zm5.9.1h-1l-.8-.5v-.9l.8.4a3 3 0 0 0 1 .3c.5-.1.9-.2 1-.4.4-.2.6-.4.6-.7-.1-.3-.2-.5-.4-.6a4.7 4.7 0 0 0-.8-.6c-.5-.3-.8-.5-1-.8-.4-.3-.5-.6-.5-.9.1-.7.3-1.1.7-1.4.3-.4 1-.6 1.6-.6l1 .2a5 5 0 0 1 1.1.3l-.6.8-.6-.2a3 3 0 0 0-1-.1c-.2 0-.4 0-.6.2l-.4.6c0 .2 0 .4.2.6l.8.6.8.4.5.6.1.8c0 .6-.2 1-.6 1.4-.5.4-1.1.5-2 .5Zm3.7-.1 2-9.1h.9l-1.9 9.1Zm5.1.1c-.5 0-1-.1-1.3-.5-.3-.4-.5-1-.5-1.7 0-.5.1-1.1.3-1.7.1-.5.4-1 .6-1.4l1-1c.4-.2.8-.3 1.3-.3.4-.1.8-.1 1 .3.3.2.5.6.7.8l.5-1h.7l-1.4 6.4h-.8v-1.2l-1 1a2 2 0 0 1-1.1.2Zm.3-.7c.3-.1.6-.2.9-.5l.8-.8.5-1.3.1-.6v-.6c.1-.2.1-.6-.2-.9-.3-.2-.5-.3-.9-.3-.3 0-.6 0-.9.3-.2.1-.5.4-.7.7l-.4 1.2-.2 1.4c0 .4.1.7.3 1 .2.1.4.2.7.2Zm4.5.6 1.3-6.5h1l-.1 1.2.5-.6.7-.5a2 2 0 0 1 1-.2c.4 0 .9.2 1.1.5.3.2.5.5.5 1.1v.6l-.2.5-.8 4h-1.1l.8-4.2.1-.5v-.2c.1-.6-.1-.8-.6-.8-.4 0-.7 0-1.1.3-.1.1-.4.4-.8.9l-.6 1.6-.6 2.8Zm8.9.1c-.5 0-.9-.1-1.2-.5-.4-.4-.5-1-.5-1.7.1-.5.1-1.1.2-1.7a5 5 0 0 1 .7-1.4c.2-.4.5-.7 1-1 .2-.2.8-.3 1.2-.3.5-.1.8-.1 1 .3.4.2.6.6.7.8l.1-.8.2-.8.5-2.1h1l-2 9.1h-.7v-1.2l-1 1a2 2 0 0 1-1.2.3Zm.4-.7c.3-.1.5-.2.8-.4l.8-.8.4-1.2c.3-.4.3-.9.3-1.4 0-.2 0-.6-.3-.9 0-.2-.4-.3-.9-.3-.3 0-.6 0-.8.3-.3.2-.5.4-.7.7l-.6 1.3v1.3c0 .8.3 1.3 1 1.3Zm0-.1" style="fill:none;stroke-width:2;stroke-linecap:butt;stroke-linejoin:round;stroke:#fff;stroke-opacity:.6;stroke-miterlimit:10" transform=" rotate(  340 213.858 91.4489) "/> <g style="fill:#000;fill-opacity:1" transform=" rotate(  340 213.858 91.4489) ">  <use xlink:href="#s" x="184.9" y="87.3"/>  <use xlink:href="#t" x="195" y="87.3"/>  <use xlink:href="#u" x="201.9" y="87.3"/>  <use xlink:href="#v" x="208.8" y="87.3"/>  <use xlink:href="#w" x="211.9" y="87.3"/>  <use xlink:href="#x" x="215.9" y="87.3"/>  <use xlink:href="#y" x="222.6" y="87.3"/>  <use xlink:href="#z" x="229.6" y="87.3"/>  <use xlink:href="#v" x="232.7" y="87.3"/>  <use xlink:href="#u" x="235.8" y="87.3"/>  <use xlink:href="#A" x="197.4" y="101.6"/>  <use xlink:href="#B" x="201.3" y="101.6"/>  <use xlink:href="#z" x="206.5" y="101.6"/>  <use xlink:href="#t" x="209.6" y="101.6"/>  <use xlink:href="#u" x="216.4" y="101.6"/>  <use xlink:href="#C" x="223.3" y="101.6"/> </g> <path d="m395.4 14.9-.3-7.2h1v6.1a25.3 25.3 0 0 1 .9-1.9l1.9-4.2h.9l.2 4.3v1.8l.3-.8.4-1 1.9-4.2h1l-3.4 7.2h-.9l-.1-4.7a35 35 0 0 1-.1-1.4l-.3.6-.3.8-2.1 4.7Zm9.4-6.3h-.4l-.1-.5.1-.4.6-.2c.2 0 .3.2.3.5l-.1.5-.4.1Zm-1.9 6.4 1.2-5.5h.8l-1.1 5.5Zm2.6-.1 1.5-7.6h1l-.7 3c0 .5-.2 1-.3 1.2v.6l2.4-2.6h1l-2.1 2.3 1.3 3h-1l-1.1-2.3-.7.4-.4 2.1Zm5.5 0-.3-5.4h1v4.6a13.8 13.8 0 0 1 .3-1l.3-.5 1.4-3h1l.2 2.7a25.5 25.5 0 0 1 0 1.8l.3-.9.5-1 1.2-2.8h.9l-2.5 5.6h-1l-.3-3.1v-1.4c-.2.1-.2.3-.3.5l-.3.9-1.4 3Zm8.8.1c-.6 0-1-.2-1.4-.6-.4-.3-.5-.8-.5-1.4 0-.5 0-1 .1-1.3 0-.4.4-.8.6-1.1.2-.4.4-.7.8-.9a2 2 0 0 1 1.2-.3c.4 0 .8.1 1 .4.4.2.6.5.6.9l-.4 1-1 .5c-.6.3-1.2.4-1.8.4h-.2v.3c0 .4 0 .8.2 1.1.3.1.6.3 1 .3.2 0 .5 0 .7-.3a5 5 0 0 0 .7-.2v.8a6 6 0 0 1-.7.3h-.9Zm-.8-3.1 1.2-.1.7-.4c.2-.2.3-.4.3-.7l-.1-.4-.6-.2c-.3 0-.6.2-1 .5l-.5 1.3Zm3.7 3 1.1-5.4h.7v1c0-.2.2-.3.4-.5l.6-.4.7-.2c.4 0 .6.1.8.3.2.3.4.5.4 1l.6-.7.5-.4.8-.2c.4 0 .7.1 1 .4.1.2.2.5.2 1v.3l-.1.5-.6 3.4h-1l.9-3.5v-.4l.1-.3c-.1-.2-.1-.3-.3-.4 0-.2-.3-.2-.5-.2s-.4 0-.7.2l-.6.7c-.3.4-.4.9-.5 1.4l-.5 2.4h-1l.9-3.4v-1.1c-.4-.2-.5-.2-.8-.2-.1 0-.3 0-.6.2l-.7.8-.5 1.4-.5 2.3Zm10.6-6.3h-.4l-.1-.5.1-.4.5-.2c.3 0 .4.2.4.5l-.1.5-.4.1Zm-1.9 6.4 1.2-5.5h.8l-1.1 5.5Zm2.6-.1 1.6-7.6h.9l-.7 3c0 .5-.2 1-.3 1.2l-.1.6 2.5-2.6h1.1l-2.2 2.3 1.2 3h-1l-1-2.3-.7.4-.4 2.1Zm7 .1c-.8 0-1.3-.2-1.6-.6-.4-.4-.5-.9-.5-1.4l.2-1.3a4 4 0 0 1 .5-1.1c.2-.4.5-.6.8-.8.4-.2.8-.4 1.2-.4.6 0 1.1.2 1.5.6.3.4.5 1 .5 1.5s0 .8-.2 1.2a4 4 0 0 1-.4 1.3c-.3.2-.5.5-.9.7-.3.2-.7.3-1.1.3Zm0-.8c.3 0 .6 0 .9-.2l.6-1.1c.2-.4.2-.9.2-1.5v-.6a1 1 0 0 0-.5-.4c-.2-.2-.3-.2-.6-.2s-.6.1-1 .4c-.1.2-.3.4-.4 1a4 4 0 0 0-.4 1.3c0 .4.2.8.3 1.1.2.1.5.2.9.2Zm3.3.7 1.2-5.4h.8l-.1 1c0-.2.2-.5.4-.5a2 2 0 0 1 .6-.4l.8-.2c.4 0 .7.1 1 .4.2.2.4.5.4 1v.3l-.2.5-.7 3.4h-.9l.7-3.5v-.4l.2-.3c-.1-.4-.3-.6-.8-.6-.2 0-.4 0-.7.2-.2.2-.5.4-.7.8-.2.3-.4.8-.5 1.4l-.5 2.3Zm7.4 2.4-.9-.1-.7-.3v-.8l.7.3a3 3 0 0 0 1 .2c.2 0 .6-.2.9-.4.3-.2.4-.5.5-1V15l.4-.6v-.5l-.8.8c-.3.2-.6.3-1 .3s-.8-.2-1-.5c-.3-.3-.4-.7-.4-1.4l.1-1.3c.2-.5.3-.9.6-1.2.2-.4.5-.7.8-.9a2 2 0 0 1 1.1-.3c.4 0 .7.1.9.3l.5.7.3-.9h.7l-1.2 5.7c-.2.7-.5 1.3-.9 1.6-.3.3-1 .5-1.6.5Zm.4-3c.2 0 .5-.1.7-.3l.6-.7.6-1v-.9c0-.6 0-.8-.2-1-.1-.1-.4-.2-.7-.2-.3 0-.5 0-.8.2l-.5.7-.4 1-.1.9c0 1 .2 1.4.7 1.4Zm-41.9 12.5 1.5-7.1h1l2.2 5.9a25 25 0 0 1 .4-2l.7-4h1l-1.6 7.3h-.9l-2.2-5.9-.1.5-.2.7-.1.7-.8 4.1Zm8.6.2c-.4 0-.7-.3-1-.6-.3-.2-.4-.7-.4-1.4 0-.4 0-1 .2-1.3l.4-1.2c.4-.5.6-.6 1-.8a2 2 0 0 1 1-.3c.4 0 .7 0 1 .3 0 .1.3.3.4.6l.3-.8h.7l-1.1 5.3h-.7l.1-1c-.3.3-.5.6-.9.8-.3.2-.6.4-1 .4Zm.3-.9c.3.1.5.1.7-.2l.7-.7a4 4 0 0 0 .4-1 3 3 0 0 0 .1-.6 4 4 0 0 0 0-.4c0-.3 0-.6-.1-.8-.3-.2-.5-.3-.8-.3-.1 0-.5 0-.7.3a2 2 0 0 0-.6.6l-.4 1-.1 1.1c0 .4 0 .6.2.9.1.1.4.2.6.2Zm5.3.9-.9-.4c-.2-.1-.3-.4-.3-.9V25l.8-2.9h-1l.1-.4 1-.3.4-1.2h.7l-.3 1.3h1.3l-.1.5h-1.4l-.6 3.1v.9l.6.2h.2l.4-.2v.7l-.4.3h-.5Zm3.6-6.4s-.2 0-.3-.2l-.1-.3.1-.4c.1-.2.3-.2.4-.2.4 0 .5.1.5.4 0 .2 0 .4-.2.5l-.4.2Zm-1.8 6.2 1.1-5.3h1l-1.3 5.3Zm4.8.1c-.6 0-1.1-.2-1.5-.5-.3-.4-.5-1-.5-1.6v-1.2a4 4 0 0 1 .6-1c.4-.5.5-.8.9-1 .3-.1.7-.2 1.1-.2.7 0 1.2.2 1.5.5.4.4.5 1.1.5 1.6l-.1 1.2a4 4 0 0 1-.5 1c-.2.5-.5.8-1 1.1h-1Zm0-.7c.3 0 .6-.2 1-.4.2-.2.4-.5.5-1 .2-.2.3-.8.3-1.3 0-.3 0-.5-.2-.7a1 1 0 0 0-.3-.5l-.6-.2c-.4 0-.7.1-1 .4-.3.2-.5.6-.6 1a4 4 0 0 0-.2 1.4c0 .4 0 .7.3 1 .2.1.5.2.8.2Zm3.4.6 1.1-5.4h.8l-.1 1 .4-.4a2 2 0 0 1 .6-.5l.8-.2c.4 0 .8.2 1 .4.3.2.4.6.4 1v.5l-.2.4-.6 3.2h-1l.7-3.4.1-.3v-.3c0-.4-.2-.8-.6-.8-.3.1-.5.2-.8.4l-.7.6c-.2.5-.3 1-.5 1.5l-.5 2.3Zm0 0" style="fill:none;stroke-width:2;stroke-linecap:butt;stroke-linejoin:round;stroke:#fff;stroke-opacity:.6;stroke-miterlimit:10" transform=" rotate(  340 425.889 17.8539) "/> <g style="fill:#82643a;fill-opacity:1" transform=" rotate(  340 425.889 17.8539) ">  <use xlink:href="#D" x="394.1" y="14.9"/>  <use xlink:href="#E" x="402.6" y="14.9"/>  <use xlink:href="#F" x="405.2" y="14.9"/>  <use xlink:href="#G" x="410.2" y="14.9"/>  <use xlink:href="#H" x="417.4" y="14.9"/>  <use xlink:href="#I" x="422.4" y="14.9"/>  <use xlink:href="#E" x="431.1" y="14.9"/>  <use xlink:href="#F" x="433.7" y="14.9"/>  <use xlink:href="#J" x="438.5" y="14.9"/>  <use xlink:href="#K" x="444.1" y="14.9"/>  <use xlink:href="#L" x="449.9" y="14.9"/>  <use xlink:href="#M" x="409.8" y="26.8"/>  <use xlink:href="#N" x="416.9" y="26.8"/>  <use xlink:href="#O" x="422.6" y="26.8"/>  <use xlink:href="#E" x="425.9" y="26.8"/>  <use xlink:href="#J" x="428.5" y="26.8"/>  <use xlink:href="#K" x="434.1" y="26.8"/> </g></svg>