<svg xmlns="http://www.w3.org/2000/svg" xmlns:xlink="http://www.w3.org/1999/xlink" viewBox="0 0 497 279"> <defs overflow="visible" style="stroke:none">  <path id="Q" d="M1 0v-7.1h.9v6.3h3V0Zm0 0"/>  <path id="P" d="M1.7-7.6v3c.3-.4.4-.5.7-.6.3-.2.7-.3 1-.3.7 0 1.2.2 1.6.5.2.3.4.8.4 1.5V0h-.9v-3.4c0-.9-.4-1.3-1.2-1.3-.6 0-1 .2-1.2.5-.3.3-.4.8-.4 1.4V0H.8v-7.6Zm0 0"/>  <path id="O" d="M9.2-7.1 7.2 0h-.7L5-4.7a30.2 30.2 0 0 1-.3-1v-.5l-.3.7-.1.8L2.9 0H2L.1-7.1h1L2-2.8c.4.3.4.6.5 1v.6A10.5 10.5 0 0 1 3-2.8l1.2-4.3H5l1.4 4.3.2 1 .2.6.1-.7.2-.9 1.1-4.3Zm0 0"/>  <path id="N" d="M2.6-.6H3l.4-.2v.7L3 0H1.7l-.6-.5-.1-1v-3.3H.2V-5l.7-.5.4-1h.5v1h1.5v.8H1.8v3.1c0 .3 0 .6.2.7l.6.3Zm0 0"/>  <path id="M" d="M6.4 0h-.9v-3.3H2V0H.9v-7.1H2v3h3.5v-3h1Zm0 0"/>  <path id="L" d="M3.2 0h-.9v-6.3H.1v-.8h5.4v.8H3.2Zm0 0"/>  <path id="K" d="M1.7-7.6v4.8L2-3v-.3l.4-.2L4-5.4h1L2.9-3l2.4 3H4.2L2.3-2.5l-.6.5v2H.8v-7.6Zm0 0"/>  <path id="J" d="M3 0c-.5 0-.9 0-1.3-.1-.3-.3-.6-.6-.7-.9-.4-.5-.5-1-.5-1.7 0-.6.2-1.1.5-1.5 0-.6.4-.8.8-1.1.2-.1.8-.2 1.2-.2l.8.1.7.2-.3.8-.6-.2H3c-1-.1-1.5.6-1.5 1.9 0 .7 0 1 .3 1.4.3.5.7.6 1.2.6h.8l.6-.3v.8a2 2 0 0 1-.6.2H3Zm0 0"/>  <path id="I" d="M2.8 0C2 0 1.4 0 1-.5.7-1 .5-1.8.5-2.6c0-1.1.3-1.8.7-2.2.4-.5.8-.7 1.6-.7.4 0 .7.1 1 .3a2 2 0 0 1 .6.5v-2.8h.9V0h-.7l-.1-.7a2 2 0 0 1-.8.6l-.9.1Zm0-.5c.8-.1 1.1-.3 1.4-.6.1-.3.2-.8.2-1.4v-.2c0-.6 0-1.1-.3-1.5-.2-.4-.6-.5-1.2-.5-.5 0-.9.2-1 .5-.4.4-.5 1-.5 1.5.1.7.1 1.2.4 1.5.3.4.6.6 1 .6Zm.1-.1"/>  <path id="H" d="M1.9 0h-1v-7.1H5v.8H2v2.5h2.8v.8h-3Zm0 0"/>  <path id="G" d="m5.2 0-.9-3A18 18 0 0 1 4-4.5 34.3 34.3 0 0 1 3.5-3l-1 3h-.9L.2-5.4h.9l.6 2.9A40 40 0 0 1 2-1l.3-.3.1-.5a6 6 0 0 1 .1-.5l1-3h1l.7 2.9.3.8.2.6.3-.6v-1l.8-2.7h1L6.3 0Zm0 0"/>  <path id="F" d="M1-7.1h2c1 0 1.6.1 2 .4.5.2.7.7.7 1.3 0 .5-.1.8-.3 1-.4.4-.6.6-1 .7l.8.3c.2 0 .4.2.5.5.3.2.3.5.3.9 0 .6-.3 1-.7 1.5-.5.3-1 .5-1.8.5H1Zm.9 3h1.3c.6.1 1 .1 1.3-.3.2-.2.3-.5.3-.9s-.1-.6-.4-.7c-.4-.3-.8-.4-1.4-.4H2Zm0 .8v2.5h1.4c.7 0 1 0 1.3-.2.4-.4.4-.7.4-1.1s-.1-.7-.4-.9c-.2-.2-.6-.3-1.4-.3Zm0 0"/>  <path id="E" d="m2.8-5.5.8.3a2 2 0 0 1 .8.4l.3-.6h.6V.1c0 .8-.2 1.3-.6 1.7-.4.4-1 .6-1.8.6S1.5 2.3 1 2.1v-.9c.6.4 1.3.6 2 .6.5-.1.9-.3 1-.5.3-.3.4-.7.4-1.1v-.9c-.3.5-.9.8-1.6.8C2 0 1.5-.1 1-.6c-.3-.5-.5-1.2-.5-2 0-1.1.2-1.7.6-2.2.4-.4 1-.7 1.6-.7Zm0 .8c-.3 0-.6.2-.9.5-.3.4-.4.9-.4 1.5 0 .7 0 1.2.3 1.7.3.2.6.4 1 .4.7 0 1.1-.2 1.4-.4.1-.3.2-.8.2-1.5v-.2c0-.7 0-1.2-.3-1.5-.3-.4-.7-.5-1.2-.5Zm.1 0"/>  <path id="D" d="M3.3-5.5H4l-.1 1.1-.3-.3h-.3c-.3 0-.5 0-.8.2l-.5.7-.3 1V0H.8v-5.4h.8v1h.2l.6-.6c.3-.3.6-.5 1-.5Zm0 0"/>  <path id="C" d="M3-5.5c.3 0 .7.1 1 .3a2 2 0 0 1 1 .9v1.8H1.5c0 .5.1 1 .4 1.4.3.3.7.4 1.3.4H4l.9-.3v.8L4 0a5 5 0 0 1-1 0 3 3 0 0 1-1.2-.1 2.2 2.2 0 0 1-1-1.1c0-.2-.2-.8-.2-1.3-.1-.7 0-1.2.2-1.6.2-.5.5-.9.9-1 .3-.2.7-.4 1.2-.4Zm0 .8c-.6 0-.9.1-1 .4-.4.2-.6.6-.6 1.1h2.8c0-.5-.1-.8-.3-1.1-.2-.3-.5-.4-1-.4Zm0 0"/>  <path id="B" d="M2 0 0-5.4h1l1 3.2.4.5v.5l.1.4.2-.4a16 16 0 0 1 .3-1l1.1-3.2h1L3 0Zm0 0"/>  <path id="A" d="M5-2c0 .8-.2 1.3-.7 1.7-.3.2-1 .3-1.8.3H1.4a3 3 0 0 1-.9-.2v-.9a5 5 0 0 0 1 .3l.9.1c.6 0 1.1 0 1.3-.3.3-.2.4-.5.4-.8L4-2.4 3.5-3a7.2 7.2 0 0 0-1-.3c-.8-.2-1.2-.5-1.5-.8C.7-4.4.6-5 .6-5.4s0-.7.3-1a2 2 0 0 1 .8-.6 3 3 0 0 1 1.2-.2h1a5 5 0 0 1 1.1.5l-.5.6a4.5 4.5 0 0 0-.7-.2l-1-.2c-.3 0-.6.1-.9.3-.3.2-.4.5-.4.8 0 .2 0 .4.2.6 0 .2.2.3.3.4l1.1.4.9.5.8.7.2.8Zm0 0"/>  <path id="z" d="M4.3-1.5c0 .5-.2 1-.5 1.2-.4.3-1 .4-1.6.4l-1-.1-.7-.2V-1l.8.3h1.8l.4-.7-.1-.4L3-2a7.5 7.5 0 0 0-.8-.4 7.5 7.5 0 0 1-1-.4l-.4-.5L.5-4c0-.5.2-.8.6-1 .3-.4.8-.6 1.4-.6l1 .2a4 4 0 0 1 .6.4l-.1.6-.8-.2-.7-.1-.9.1c-.2.2-.3.3-.3.6s0 .2.2.3l.4.3.8.3.9.4.4.5c.3.2.3.4.3.7Zm0 0"/>  <path id="y" d="M3.4-5.5c.7 0 1.2.3 1.6.7.4.5.6 1.2.6 2.1 0 1-.2 1.7-.6 2-.4.7-1 .9-1.6.9-.4-.2-.8-.2-1-.3l-.7-.6v3.1H.8v-7.8h.8v.8h.2c.2-.4.3-.5.6-.6.2-.2.6-.3 1-.3Zm-.2.8c-.5 0-.9.1-1.1.5-.2.2-.4.7-.4 1.2v.3c0 .7.1 1.2.3 1.5.3.4.7.6 1.3.6.3 0 .6-.1.7-.4l.5-.6.2-1.1c0-.6-.1-1.1-.4-1.5-.2-.3-.6-.5-1-.5Zm0 0"/>  <path id="x" d="M3.4-5.5c.7 0 1.2.2 1.6.5.2.3.4.8.4 1.5V0h-.9v-3.4c0-.9-.4-1.3-1.2-1.3-.6 0-1 .1-1.2.5-.3.2-.4.8-.4 1.4V0H.8v-5.4h.8v.8h.2c.2-.4.3-.5.7-.7l1-.2Zm0 0"/>  <path id="w" d="m5.5 0-1-2.2H1.9L.9 0H0l2.8-7.2h.8L6.4 0ZM4.3-3l-.8-2.2v-.3l-.3-.4v-.3l-.2.6a8 8 0 0 1 0 .4L2-3Zm0 0"/>  <path id="v" d="M2.9-5.5c.6 0 1.1.2 1.4.5.3.3.5.7.5 1.3V0h-.6L4-.8c-.3.3-.5.6-.8.8h-1c-.5 0-1 0-1.3-.3C.6-.5.5-.9.5-1.5c0-.5.2-1 .5-1.2.5-.3 1-.5 2-.5h.8v-.3c.2-.5.2-.8-.2-1l-.8-.2H2l-.7.5L1-5l1-.3.9-.2Zm1 2.9h-.8c-.6 0-1 .1-1.4.3-.1.3-.3.5-.3.8 0 .3 0 .5.2.7l.7.2c.5 0 .9-.1 1.2-.4.3-.2.4-.6.4-1Zm.1 0"/>  <path id="u" d="M1.3-7.4c.1 0 .3 0 .4.2l.1.4-.1.4-.4.2-.4-.3-.1-.3.1-.4.4-.2Zm.4 2V0H.8v-5.4Zm0 0"/>  <path id="t" d="M1.7-7.6v2.9l.7-.5c.2-.2.6-.3 1-.3.6 0 1.2.3 1.6.8.4.4.6 1.1.6 1.9C5.6-1.7 5.4-1 5-.6c-.4.6-1 .7-1.6.7-.4-.1-.8-.1-1-.2l-.7-.6-.2.7H.8v-7.6Zm1.5 2.9c-.5 0-1 .1-1.1.5-.3.2-.4.8-.4 1.5s.1 1.2.3 1.5c.3.4.7.6 1.3.6.4 0 .7-.2 1-.6.3-.3.4-.8.4-1.5 0-1.3-.5-2-1.5-2Zm0 0"/>  <path id="s" d="M6.7-5.5c.6 0 1 .2 1.4.5.3.3.4.8.4 1.5V0h-.8v-3.5c0-.8-.4-1.2-1.1-1.2-.6 0-1 .1-1.1.4C5.2-4 5-3.5 5-3v3h-.7v-3.5c0-.8-.4-1.2-1.1-1.2-.6 0-1 .1-1.2.5-.2.2-.3.8-.3 1.4V0H.8v-5.4h.8v.8h.2l.6-.7 1-.2c.7 0 1.2.3 1.6 1 .2-.5.4-.7.7-.8.3-.1.7-.2 1-.2Zm0 0"/>  <path id="r" d="M5.3-5.4V0h-.7l-.1-.7c-.3.3-.5.5-.9.6l-.9.2C2.1 0 1.6-.1 1.3-.4 1-.7.8-1.2.8-1.8v-3.6h.9v3.5c0 .8.3 1.3 1.2 1.3.6 0 1-.2 1.1-.5.3-.4.5-.9.5-1.5v-2.8Zm0 0"/>  <path id="q" d="M1.7 0H.8v-7.6h1Zm0 0"/>  <path id="p" d="M5.5-2.7c0 .9-.2 1.7-.7 2-.4.7-1 .9-1.8.9-.5-.2-.9-.2-1.3-.4-.3-.2-.6-.6-.7-1C.6-1.6.5-2 .5-2.7c0-.9.3-1.6.7-2 .5-.5 1-.8 1.8-.8.5 0 1 .2 1.3.5.4 0 .7.4.9.9.2.2.3.7.3 1.3Zm-4 0c0 .7 0 1.2.3 1.5.3.4.7.6 1.2.6.6 0 1-.2 1.2-.6.3-.3.4-.8.4-1.5s-.1-1.1-.4-1.5c-.2-.3-.6-.5-1.2-.5-.5 0-1 .2-1.2.5-.2.4-.3.9-.3 1.5Zm0 0"/>  <path id="o" d="M4-6.5c-.7 0-1.3.3-1.8.8-.4.5-.6 1.2-.6 2.1 0 1 .2 1.6.6 2.1.4.6 1 .8 1.8.8h1l.6-.3v.8L5 0H4c-.8 0-1.4 0-2-.2a2.8 2.8 0 0 1-1-1.4c-.3-.6-.4-1.2-.4-2 0-.7.1-1.3.4-1.9a3 3 0 0 1 1.2-1.3c.5-.2 1.1-.4 1.8-.4.8 0 1.5.1 2 .4l-.3.7-.8-.2a3 3 0 0 0-.9-.2Zm0 0"/>  <path d="M1 0v-7.1h4V0Zm.4-.5h3.1v-6.1h-3Zm.1 0"/>  <path id="n" d="M3.8-7c.6 0 1.1 0 1.5.2.5.4.8.7 1 1.1.3.7.4 1.2.4 1.7v.7H1.9c0 .8.1 1.4.6 1.8.4.5 1 .7 1.6.7.5 0 .9 0 1.2-.2l1-.3v1a5.2 5.2 0 0 1-2.1.3 3.8 3.8 0 0 1-1.9-.3 2.8 2.8 0 0 1-1.2-1.2C1-2 .7-2.7.7-3.5c0-.6.1-1.2.4-1.8.3-.6.6-1.1.9-1.4A3 3 0 0 1 3.9-7Zm0 .7c-.6.1-1 .3-1.3.7-.3.3-.5.8-.6 1.4h3.6c0-.6-.2-1-.5-1.4-.2-.4-.6-.6-1.2-.6Zm0 .1"/>  <path id="m" d="M4.4-7h.8L5-6h-.7c-.4 0-.7 0-1 .1-.3.3-.6.6-.8 1-.2.3-.3.7-.3 1.2V0h-.9v-7H2l.2 1.3c.2-.3.5-.7.9-1 .3-.3.8-.3 1.3-.3Zm0 0"/>  <path id="l" d="M8.8-7c.6 0 1.2 0 1.6.4.6.6.7 1.1.7 2.1V0H10v-4.5c0-1-.5-1.5-1.5-1.5-.5-.1-1.1 0-1.4.5-.3.3-.4 1-.4 1.7V0H5.5v-4.5c0-1-.4-1.5-1.4-1.5-.7-.1-1.1 0-1.4.5-.3.5-.5 1-.5 1.9V0h-.9v-7H2l.2 1a2 2 0 0 1 1.1-.8c.1-.2.5-.3.9-.3 1.2.1 1.9.4 2.3 1.2a2 2 0 0 1 1-1.1 3 3 0 0 1 1.3 0Zm0 0"/>  <path id="k" d="M2.3 0H1v-9.9h1.2Zm0 0"/>  <path id="j" d="M1.3-9.3h2.6c1.2 0 2.1.3 2.6.5.6.4 1 1 1 1.8-.1.6-.3 1-.5 1.4-.3.3-.8.6-1.3.6l1 .5c.3.1.6.4.8.7.2.3.3.7.3 1.2 0 .8-.3 1.5-1 2-.4.3-1.2.6-2.2.6H1.3Zm1.1 4h1.7c.9 0 1.4-.2 1.7-.4.2-.3.4-.6.4-1.1 0-.6-.1-1-.5-1.2-.4-.2-1-.3-1.7-.3H2.4Zm0 1V-1h1.9c.8 0 1.4 0 1.7-.5.3-.3.5-.7.5-1.2S6.3-3.6 6-4c-.3-.2-1-.4-1.8-.4Zm0-.1"/>  <path id="i" d="M7.2-3.5c0 1.2-.3 2-1 2.7-.4.6-1.2 1-2.2 1a3.2 3.2 0 0 1-1.7-.6A3 3 0 0 1 1-1.5c0-.6-.3-1.2-.3-2 0-1.1.3-2 .9-2.7C2.2-6.8 3-7 4-7c.6 0 1 0 1.6.3a3 3 0 0 1 1.2 1.2c.2.6.4 1.2.4 2Zm-5.3 0c0 .8.1 1.5.5 2 .3.4.8.7 1.5.7s1.2-.3 1.6-.7c.3-.5.5-1.2.5-2s-.2-1.5-.5-2C5-5.8 4.6-6 3.9-6c-.7-.1-1.2 0-1.5.6-.4.4-.5 1-.5 1.9Zm0 0"/>  <path id="h" d="M3.4-.8H4l.4-.2v1H4l-.8.2C3 .1 2.5.1 2.2 0c-.2 0-.5-.4-.7-.7-.2-.3-.3-.8-.3-1.3v-4h-1v-.7l1-.4.5-1.5h.6V-7h2v1H2.4v4c-.1.4 0 .7.2.9.2.1.5.3.8.3Zm0 0"/>  <path id="g" d="M3.6-7c.4 0 .8 0 1.2.1.4.2.7.5 1 .9L6-7h.9V.1c0 1-.3 1.9-.9 2.3-.4.5-1.2.6-2.2.6-1 .1-1.9 0-2.5-.3v-1c.6.3 1.5.4 2.5.4.6.1 1.2-.1 1.5-.5.2-.3.5-.8.5-1.4v-.7a4 4 0 0 1 0-.5c-.5.8-1.3 1-2.3 1-.9.1-1.5-.2-2-.9C1-1.3.7-2.2.7-3.4c0-1.1.3-2.1.8-2.6.5-.8 1.2-1.1 2-1.1Zm.1.8c-.6.1-1 .2-1.3.8-.4.4-.5 1-.5 2 0 .7.1 1.4.5 1.9.3.5.6.6 1.4.6S5-1 5.3-1.4c.3-.4.5-1 .5-1.8v-.3c0-1-.2-1.5-.5-2-.4-.5-.9-.6-1.6-.6Zm0 .1"/>  <path id="f" d="M4.5-7c.8 0 1.4 0 1.8.4.5.6.7 1.1.7 2.1V0H5.8v-4.5c0-1-.5-1.5-1.5-1.5-.8-.1-1.3 0-1.6.5-.3.5-.5 1-.5 1.9V0h-.9v-7H2l.2 1a2 2 0 0 1 1.1-.8c.3-.2.7-.3 1.2-.3Zm0 0"/>  <path id="e" d="M1.7-9.6c.2 0 .3 0 .5.2l.2.4-.2.7a.7.7 0 0 1-.5.2c-.2 0-.4 0-.5-.2L1-8.9c0-.1 0-.4.2-.5l.5-.2ZM2.3-7v7H1v-7Zm0 0"/>  <path id="d" d="M2.3-9.9v3l-.2.9a2 2 0 0 1 1.2-.8l1.1-.3c.9.1 1.6.2 2 .6.3.5.6 1 .6 2V0H5.8v-4.5c0-1-.5-1.5-1.5-1.5-.8-.1-1.3 0-1.6.5-.3.5-.5 1-.5 2V0h-.9v-9.9Zm0 0"/>  <path id="c" d="M5.6-2c0 .9-.2 1.4-.6 1.7-.6.3-1.3.4-2.1.4L1.6 0c-.4 0-.7-.2-1-.3v-1c.4-.1.8.1 1.1.3L3-.8c.5 0 .9 0 1-.3.4-.2.5-.4.5-.7l-.1-.5-.5-.4a9.6 9.6 0 0 0-1-.5 11 11 0 0 1-1.3-.5 2.2 2.2 0 0 1-.7-.6c-.2-.3-.2-.7-.2-1 0-.5.2-1 .7-1.2.5-.5 1.1-.6 1.9-.6a5.4 5.4 0 0 1 2.2.5l-.4.9a7 7 0 0 0-1-.3 4 4 0 0 0-.8-.2c-.6 0-.9.2-1.1.3-.4.1-.6.3-.6.6l.4.5.5.4c.3 0 .5.2 1 .4l1.2.5.7.7c.2.2.2.5.2.8Zm0 0"/>  <path id="b" d="M3.8-7c.7 0 1.4 0 1.7.4.5.5.7 1.1.7 1.9V0h-.8l-.2-1-1.1 1H2.8c-.6.1-1.2 0-1.6-.4C.8-.7.6-1.2.6-1.9s.3-1.3.8-1.6C2-4 2.8-4.1 4-4.2h1.1v-.4c0-.6-.1-1-.3-1.2-.3-.2-.8-.4-1.2-.4l-.9.2-1.1.4-.2-.9A5.2 5.2 0 0 1 3.8-7ZM5-3.5h-.9c-.9.1-1.5.3-1.8.5-.4.3-.5.6-.5 1 0 .6.1.9.2 1l1.1.1c.5.1.9-.1 1.4-.4.5-.3.6-.7.6-1.5Zm.1.1"/>  <path id="a" d="M12-9.3 9.4 0H8.3L6.5-6l-.3-.9a34 34 0 0 0 0-.6 4 4 0 0 1-.2-.4l-.1.7L5.5-6 3.8 0H2.6L.2-9.3h1.2l1.4 5.7a22 22 0 0 1 .5 2.2c0-.3 0-.7.2-1.1l.3-1.2 1.5-5.6h1.3l1.7 5.7a19.5 19.5 0 0 1 .5 2.2 14.5 14.5 0 0 1 .5-2.2l1.4-5.7Zm0 0"/>  <path d="M1.2 0v-9.3h5.4V0ZM2-.7h3.9v-8H2Zm-.1 0"/> </defs> <image xlink:href="svg/9/105_0.jpg" width="497" height="279"/> <path d="m222.5 256.2-2.5 9.3h-1.2l-1.8-6-.2-.9a34 34 0 0 0-.2-.6 4 4 0 0 1 0-.4l-.2.7-.3 1.2-1.7 6h-1.2l-2.5-9.3h1.3l1.4 5.8a22 22 0 0 1 .4 2.1l.2-1 .3-1.3 1.7-5.6h1.2l1.7 5.8a19.5 19.5 0 0 1 .5 2 14.5 14.5 0 0 1 .4-2l1.5-5.8Zm3.6 2.2c.9 0 1.5.2 2 .6.2.4.4 1 .4 1.8v4.7h-.7l-.2-1-1.1.9c-.3.2-.7.3-1.3.3-.7 0-1.2-.2-1.6-.5-.4-.4-.6-.9-.6-1.6 0-.7.3-1.2.8-1.6.5-.4 1.4-.6 2.5-.6h1.2v-.6c0-.5-.1-.8-.4-1.1-.1-.2-.6-.3-1-.3l-1.1.1-1 .5-.3-1a5.2 5.2 0 0 1 2.4-.6Zm1.4 3.7h-1c-.9.2-1.5.3-1.8.6-.4.1-.5.5-.5.9s0 .7.3.9l1 .2c.5 0 .9-.1 1.3-.5.5-.2.7-.8.7-1.5Zm7.8 1.5c0 .7-.2 1.2-.7 1.5-.6.4-1.2.6-2 .6-.6 0-1.1 0-1.4-.2-.3 0-.6-.1-.9-.3v-1l1.1.4 1.3.1c.3 0 .9 0 1.1-.3.3-.1.4-.4.4-.7l-.1-.5-.5-.4a9.6 9.6 0 0 0-1-.4 11 11 0 0 1-1.4-.6 2.2 2.2 0 0 1-.6-.6c-.2-.2-.3-.5-.3-1s.3-.9.8-1.2c.4-.4.9-.6 1.9-.6a5.4 5.4 0 0 1 2.2.6l-.4.9a7 7 0 0 0-1-.5 4 4 0 0 0-.9 0c-.4 0-.7 0-1 .2-.3.2-.5.4-.5.6 0 .2 0 .4.2.5l.6.4 1 .4 1.2.5.6.7.3 1Zm2.9-7.9v2.8l-.2 1a2 2 0 0 1 1.2-.8l1.1-.3c.9 0 1.5.3 2 .7.4.4.5.9.5 1.9v4.5h-1.1v-4.4c.1-1.2-.4-1.7-1.4-1.7-.9 0-1.4.2-1.7.6-.3.5-.4 1.1-.4 2v3.4H237v-9.7Zm7.4.3h.5l.2.7c0 .2 0 .3-.2.5a.7.7 0 0 1-.5.2c-.2 0-.3 0-.5-.2l-.1-.5v-.7h.6Zm.6 2.5v7.1H245v-7.1Zm5.6-.1c.8 0 1.4.2 1.8.6.5.4.7 1 .7 2v4.5H253v-4.4c.1-1.2-.4-1.7-1.4-1.7-.8 0-1.3.2-1.6.6-.3.5-.5 1.1-.5 2v3.4h-1v-6.9h.7l.3 1.1a2 2 0 0 1 1.1-.9c.3-.2.7-.3 1.2-.3Zm7.2 0c.3 0 .7.1 1 .3.5.2.8.4 1.1.8l.3-1h.9v7.2c-.1.9-.3 1.7-.9 2.3-.4.4-1.2.7-2.4.7-1 0-1.8-.2-2.4-.5v-1c.7.3 1.4.5 2.6.5.6 0 1-.2 1.4-.5.3-.4.4-.9.4-1.5v-.7a4 4 0 0 1 0-.4c-.4.7-1.1 1-2.1 1-.9.1-1.6-.2-2.1-.8-.5-.7-.8-1.6-.8-2.7 0-1.2.3-2.1.8-2.7.5-.6 1.2-1 2.1-1Zm0 1c-.4 0-1 .2-1.2.6-.4.6-.6 1.2-.6 2 0 .9.2 1.6.5 2 .3.4.8.6 1.3.6.8.1 1.3-.1 1.6-.4.4-.4.5-1 .5-1.9v-.2c-.1-1.1-.2-1.7-.5-2.1-.3-.5-.8-.7-1.6-.7Zm7.8 5.3h.5l.4-.1v.8l-.5.2h-1.6c-.5-.3-.6-.6-.9-.8-.1-.3-.2-.7-.2-1.3v-4h-1v-.7l1-.4.5-1.4h.7v1.6h2v.8h-2v4c0 .6 0 .9.3 1.1.2.1.4.2.8.2Zm8.4-2.7c0 1.2-.3 2-.9 2.7-.6.6-1.4 1-2.4 1a3.2 3.2 0 0 1-1.6-.5 3 3 0 0 1-1.3-1.2c0-.5-.3-1.2-.3-2 0-1 .3-2 .9-2.6.6-.7 1.4-1 2.4-1 .6 0 1.2.2 1.6.6a3 3 0 0 1 1.2 1c.2.6.4 1.3.4 2Zm-5.3 0c.1 1 .2 1.5.5 2s.8.7 1.6.7c.6 0 1.2-.2 1.5-.7.3-.5.5-1.1.5-2 0-.8-.2-1.4-.5-2-.3-.3-.9-.5-1.6-.5-.7-.1-1.2.1-1.5.5-.4.6-.5 1.2-.5 2Zm10.4-3.6c.9 0 1.5.2 2 .6.3.4.5 1 .5 2v4.5h-1.1v-4.4c0-1.2-.5-1.7-1.5-1.7-.8 0-1.3.2-1.6.6-.3.5-.6 1.1-.6 2v3.4h-1v-6.9h1v1.1h.2a2 2 0 0 1 .9-.9l1.2-.3Zm0 0" style="fill:none;stroke-width:3;stroke-linecap:butt;stroke-linejoin:round;stroke:#fff;stroke-opacity:.6;stroke-miterlimit:10" transform=" rotate(  340 249.135 262.526) "/> <g style="fill:#222;fill-opacity:1" transform=" rotate(  340 249.135 262.526) ">  <use xlink:href="#a" x="210.6" y="265.5"/>  <use xlink:href="#b" x="222.4" y="265.5"/>  <use xlink:href="#c" x="229.7" y="265.5"/>  <use xlink:href="#d" x="235.9" y="265.5"/>  <use xlink:href="#e" x="243.9" y="265.5"/>  <use xlink:href="#f" x="247.3" y="265.5"/>  <use xlink:href="#g" x="255.3" y="265.5"/>  <use xlink:href="#h" x="263.3" y="265.5"/>  <use xlink:href="#i" x="268" y="265.5"/>  <use xlink:href="#f" x="275.9" y="265.5"/> </g> <path d="M303.2 154.6h2.6c1.2 0 2 .2 2.7.6.5.3.8.8.8 1.7 0 .6-.1 1.1-.3 1.4-.4.4-1 .7-1.4.7l1 .5.8.6c.2.3.3.7.3 1.2 0 .7-.3 1.5-1 2-.4.3-1.2.5-2.2.5h-3.3Zm1.1 4h1.7c.8 0 1.4-.1 1.7-.4.3-.2.3-.6.3-1.1.1-.5 0-1.1-.4-1.1-.4-.2-1-.4-1.7-.4h-1.6Zm0 1v3.3h1.9c.8.1 1.4-.1 1.7-.4.3-.5.5-.8.5-1.3s-.2-.9-.4-1.2c-.4-.3-1-.4-1.9-.4Zm9.8-2.8c.9 0 1.5.2 1.9.6.4.4.6 1 .6 1.8v4.7h-.8l-.3-.9c-.3.3-.6.6-1 .8-.3.2-.8.2-1.3.2-.7 0-1.2-.1-1.6-.4-.4-.4-.7-.9-.7-1.6.1-.7.3-1.2.9-1.6.5-.4 1.4-.6 2.5-.6h1.2v-.6c0-.5-.1-.9-.5-1.1 0-.1-.5-.3-.9-.3l-1.1.1-1 .4-.2-.9a5.2 5.2 0 0 1 2.3-.6Zm1.4 3.7h-1c-1.1.2-1.5.3-2 .5-.2.2-.4.6-.4 1s.2.7.4.9l1 .1c.5.1.9 0 1.3-.4.5-.3.7-.8.7-1.5Zm4.4 3.5h-1.1v-10h1.1Zm4.5-.9h.6l.4-.1v.8l-.4.2h-1.8l-.7-.8c-.2-.2-.3-.7-.3-1.2v-4.1h-1v-.7l1-.4.5-1.4h.6v1.6h2v.8h-1.9v4c-.1.6 0 .9.2 1.1.2.1.5.2.8.2Zm3-8.8.5.2.1.6-.1.5a.7.7 0 0 1-.5.2c-.2 0-.4 0-.5-.2l-.2-.5c0-.3 0-.5.3-.6l.4-.2Zm.5 2.7v7h-1.1v-7Zm9.9-.2c.8 0 1.4.2 1.8.6.4.4.6 1 .6 2v4.5H339v-4.5c0-1-.5-1.6-1.4-1.6-.7 0-1.2.2-1.4.6-.3.4-.5 1-.5 1.6v3.9h-1.1v-4.5c0-1-.6-1.6-1.4-1.6-.7 0-1.2.2-1.5.6-.3.6-.4 1.1-.4 2v3.4h-1.1V157h.8l.2 1h.2a2 2 0 0 1 .8-.9c.4-.2.7-.3 1.2-.3 1 0 1.8.4 2.1 1.2a2 2 0 0 1 1.1-.9 3 3 0 0 1 1.2-.3Zm10.6 3.6c0 1.2-.4 2-1 2.7-.4.6-1.2 1-2.2 1a3.2 3.2 0 0 1-1.7-.5 3 3 0 0 1-1.2-1.2c-.2-.5-.3-1.2-.3-2 0-1.1.2-2 .8-2.6.6-.8 1.4-1 2.4-1 .6 0 1.1.2 1.6.5a3 3 0 0 1 1.2 1.2c.2.5.4 1.2.4 2Zm-5.4 0c0 .8.3 1.6.6 2s.8.6 1.4.6 1.4 0 1.7-.6c.3-.5.5-1.2.5-2s-.2-1.4-.5-2c-.3-.4-.9-.5-1.7-.5-.6-.1-1 .1-1.4.6-.3.5-.6 1.1-.6 2Zm10.4-3.6h.4l.4.2-.1 1h-.8c-.3-.1-.6-.1-1 .2-.3.2-.5.4-.7.8-.2.3-.3.7-.3 1.2v3.8h-1.1v-7h1v1.3l1.1-1.1c.2-.2.6-.3 1.1-.3Zm4.6 0c.6 0 1 .2 1.5.4.4.3.8.6 1 1.1.2.5.3 1 .3 1.7v.7h-4.7c-.1.8.2 1.3.6 1.8.3.4.9.5 1.6.5h1.2l1-.4v1a5.2 5.2 0 0 1-2.3.5 3.8 3.8 0 0 1-1.7-.4 2.8 2.8 0 0 1-1.2-1.2c-.3-.6-.3-1.2-.3-2s0-1.5.3-2c.2-.5.6-1 1-1.2a3 3 0 0 1 1.7-.5Zm0 1c-.6 0-1 .1-1.3.5-.4.3-.5.8-.7 1.5h3.6c0-.6-.1-1.1-.4-1.5-.2-.3-.7-.5-1.2-.5Zm0 0" style="fill:none;stroke-width:3;stroke-linecap:butt;stroke-linejoin:round;stroke:#fff;stroke-opacity:.6;stroke-miterlimit:10" transform=" rotate(  340 332.266 160.927) "/> <g style="fill:#222;fill-opacity:1" transform=" rotate(  340 332.266 160.927) ">  <use xlink:href="#j" x="301.9" y="163.9"/>  <use xlink:href="#b" x="310.4" y="163.9"/>  <use xlink:href="#k" x="317.6" y="163.9"/>  <use xlink:href="#h" x="321" y="163.9"/>  <use xlink:href="#e" x="325.7" y="163.9"/>  <use xlink:href="#l" x="329" y="163.9"/>  <use xlink:href="#i" x="341.2" y="163.9"/>  <use xlink:href="#m" x="349.1" y="163.9"/>  <use xlink:href="#n" x="354.2" y="163.9"/> </g> <path d="M264.2 176c-.7 0-1.2.3-1.8.8-.4.5-.6 1.2-.6 2.1 0 .9.2 1.6.6 2.1.4.5 1 .8 1.8.8h1l.6-.4v.9l-.7.2h-1c-.7.1-1.3.1-1.8-.3a2.8 2.8 0 0 1-1.1-1.4c-.3-.5-.4-1.2-.4-2 0-.5.2-1.2.4-1.8a3 3 0 0 1 1.2-1.3c.5-.3 1.1-.5 1.9-.5.7 0 1.4.2 2 .5l-.5.7c-.2 0-.4-.2-.8-.3a3 3 0 0 0-.8 0Zm7.8 3.8c0 .9-.2 1.6-.6 2-.5.5-1.1.8-1.9.8-.4 0-.9-.1-1.2-.3l-1-1-.1-1.5c-.2-.9.1-1.6.5-2 .5-.6 1.1-.8 1.9-.8.4 0 .9.1 1.2.3l1 1 .2 1.5Zm-4 0c0 .6 0 1.1.4 1.5.2.4.6.5 1.2.5.4 0 .9-.1 1.1-.5.3-.4.4-.9.4-1.5s-.1-1.1-.4-1.5c-.2-.4-.6-.5-1.2-.5-.5 0-.9.1-1.1.5-.4.4-.4.9-.4 1.5Zm6.3 2.7h-.9v-7.6h1Zm6.2-5.4v5.4h-.7l-.2-.7-.7.6-1 .2c-.7 0-1.1-.2-1.5-.6-.3-.2-.4-.7-.4-1.4v-3.5h.8v3.5c0 .8.4 1.2 1.2 1.2.6 0 1-.1 1.3-.5.2-.3.3-.8.3-1.3v-2.9Zm7.5-.1c.8 0 1.2.2 1.5.5.2.3.5.8.5 1.5v3.5h-1V179c0-.8-.4-1.2-1-1.2s-1 .1-1.3.4c-.1.3-.2.8-.2 1.3v3h-.9V179c0-.8-.4-1.2-1.1-1.2-.6 0-1 .1-1.1.5-.2.3-.4.7-.4 1.4v2.8h-1V177h1v.8l.8-.6.9-.2c.7 0 1.3.3 1.5 1 .4-.5.7-.7 1-.9l.8-.1Zm4.4-2.1v2.9l.6-.5c.3-.3.7-.3 1-.3.8 0 1.4.3 1.8.7.2.5.5 1.3.5 2 0 1.1-.3 1.8-.6 2.3-.4.3-1 .6-1.7.6-.3 0-.7-.1-1-.3l-.7-.5-.2.7h-.6v-7.6Zm1.6 2.9c-.6 0-1 .1-1.2.5-.4.3-.4.7-.4 1.5s.1 1.2.3 1.5c.3.4.7.5 1.3.5.4 0 .8-.1 1-.5.3-.3.4-.8.4-1.5 0-1.4-.5-2-1.5-2Zm4.1-2.7.4.1.1.5-.1.3-.5.2-.2-.1-.2-.4c0-.2 0-.4.2-.5l.2-.1Zm.5 2v5.4h-1V177Zm3.7-.1c.6 0 1.1.2 1.4.5.4.2.5.7.5 1.3v3.7h-.6l-.2-.8-.8.7-1 .2c-.6 0-1-.2-1.2-.4-.4-.3-.5-.7-.5-1.2 0-.6.1-1 .6-1.2.4-.3 1-.5 2-.5h.8v-.5c.1-.3 0-.6-.3-.8-.1-.2-.4-.3-.8-.3-.2 0-.5 0-.8.3h-.7l-.2-.5c.2-.1.5-.3.8-.3l1-.2Zm1 2.8h-.6c-.8.2-1.3.2-1.5.5-.3.1-.4.4-.4.7 0 .3 0 .5.2.7l.8.2c.4 0 .8-.2 1.1-.4.3-.3.5-.6.5-1.2Zm.1 0" style="fill:none;stroke-width:3;stroke-linecap:butt;stroke-linejoin:round;stroke:#fff;stroke-opacity:.6;stroke-miterlimit:10" transform=" rotate(  340 282.972 179.472) "/> <g style="fill:#222;fill-opacity:1" transform=" rotate(  340 282.972 179.472) ">  <use xlink:href="#o" x="260.2" y="182.5"/>  <use xlink:href="#p" x="266.5" y="182.5"/>  <use xlink:href="#q" x="272.6" y="182.5"/>  <use xlink:href="#r" x="275.2" y="182.5"/>  <use xlink:href="#s" x="281.3" y="182.5"/>  <use xlink:href="#t" x="290.7" y="182.5"/>  <use xlink:href="#u" x="296.8" y="182.5"/>  <use xlink:href="#v" x="299.4" y="182.5"/> </g> <path d="m337.3 243-.9-2.1h-2.8l-.8 2.2h-1l3-7.2h.6l2.8 7.1Zm-1.1-3-.8-2-.1-.4-.3-.4v-.4l-.2.6a8 8 0 0 1-.1.6l-.7 2Zm5.5-2.4c.6 0 1.1.2 1.3.5.5.3.6.8.6 1.5v3.4h-.9v-3.4c0-.8-.4-1.3-1.2-1.3-.5 0-1 .2-1.2.5-.2.4-.3.8-.3 1.5v2.7h-1v-5.3h.9l.1.7c.3-.3.5-.4.8-.6l.9-.2Zm6.2 0c.6 0 1 .2 1.4.5.3.3.5.8.5 1.5v3.4h-.9v-3.4c.1-.8-.4-1.3-1.2-1.3-.6 0-1 .2-1.2.5-.2.4-.3.8-.3 1.5v2.7h-1v-5.3h.8v.7c.4-.3.7-.4 1-.6l.9-.2Zm5.6 0c.5 0 1.1.1 1.4.4.3.3.5.8.5 1.4v3.6h-.6l-.2-.7c-.3.3-.6.5-.8.6-.2.2-.6.2-1 .2-.5 0-1 0-1.3-.3-.3-.3-.4-.8-.4-1.2-.1-.6.2-1 .6-1.3.3-.3 1-.3 2-.5h.7v-.3c.1-.4.1-.8-.2-1l-.8-.1h-.8l-.6.3-.3-.6.8-.4 1-.1Zm1 2.8h-.8c-.6.1-1 .3-1.3.5-.4.1-.4.3-.4.7 0 .3 0 .4.2.6.2.2.5.2.8.2.4 0 .8 0 1.1-.3.3-.3.4-.7.4-1.2Zm5.1-2.8c.7 0 1.2.2 1.6.7.4.4.6 1.1.6 2 0 1.1-.2 1.7-.6 2.2-.4.5-1 .6-1.6.6-.4 0-.8 0-1-.1l-.7-.6v3.1h-.8v-7.8h.7l.1.7.7-.6 1-.2Zm-.2.7c-.4 0-.9.2-1.1.5-.3.3-.3.8-.4 1.4v.2c.1.6.2 1.1.4 1.5.2.3.6.5 1.2.5.3 0 .5 0 .8-.2l.4-.8.3-1c-.1-.8-.2-1.3-.5-1.6-.2-.3-.5-.5-1-.5Zm8.5 2.1c0 .8-.2 1.5-.7 2-.5.6-1 .7-1.8.7-.5 0-1 0-1.4-.3-.3-.2-.6-.5-.8-1-.2-.2-.2-.8-.2-1.3 0-1.1.1-1.7.6-2.1.4-.7 1-.9 1.8-.9.6.1 1 .2 1.3.4.3.2.6.5.9 1.1.2.3.3.8.3 1.4Zm-4 0c-.1.6-.1 1.1.2 1.5.3.3.7.5 1.3.5.5 0 1-.2 1.2-.4.2-.5.4-1 .4-1.6 0-.7-.2-1.2-.4-1.5-.3-.4-.7-.6-1.2-.6-.6 0-1 .2-1.2.7-.3.2-.4.7-.4 1.4ZM370.2 243h-1v-7.4h1.1Zm2.1-7.3.4.1.1.4-.1.5-.4.1-.4-.1-.1-.5.1-.4.4-.1Zm.4 2v5.3h-.9v-5.3Zm5.3 3.9c0 .4-.4.9-.8 1.2-.2.2-.8.2-1.4.2h-1l-.7-.2v-.8l.8.3.9.1c.4 0 .8 0 1-.2.2-.1.2-.2.2-.6v-.3l-.4-.3a7.5 7.5 0 0 0-.9-.4 7.5 7.5 0 0 1-.7-.4c-.4-.1-.6-.2-.7-.5l-.3-.7c0-.4.3-.8.6-1 .4-.3.9-.4 1.5-.4h.9a4 4 0 0 1 .7.4l-.2.6-.7-.2h-1.6l-.3.6.1.3.5.3.8.4.9.4.5.5c.3.1.3.4.3.7Zm0 0" style="fill:none;stroke-width:3;stroke-linecap:butt;stroke-linejoin:round;stroke:#fff;stroke-opacity:.6;stroke-miterlimit:10" transform=" rotate(  340 355.911 240.051) "/> <g style="fill:#222;fill-opacity:1" transform=" rotate(  340 355.911 240.051) ">  <use xlink:href="#w" x="331.9" y="243.1"/>  <use xlink:href="#x" x="338.2" y="243.1"/>  <use xlink:href="#x" x="344.4" y="243.1"/>  <use xlink:href="#v" x="350.6" y="243.1"/>  <use xlink:href="#y" x="356.2" y="243.1"/>  <use xlink:href="#p" x="362.4" y="243.1"/>  <use xlink:href="#q" x="368.4" y="243.1"/>  <use xlink:href="#u" x="371" y="243.1"/>  <use xlink:href="#z" x="373.6" y="243.1"/> </g> <path d="M224.6 236.7c0 .7-.2 1.3-.6 1.5-.5.4-1 .5-1.9.5H221a3 3 0 0 1-1-.4v-.8a5 5 0 0 0 1.1.3l.9.2c.7 0 1.1 0 1.3-.4.3-.2.4-.4.4-.8l-.1-.6-.6-.4a7.2 7.2 0 0 0-1-.5c-.6-.2-1-.5-1.3-.8-.3-.3-.5-.7-.5-1.3 0-.4.1-.7.3-1a2 2 0 0 1 .8-.6 3 3 0 0 1 1.2-.2l1 .1a5 5 0 0 1 1.1.3l-.4.8a4.5 4.5 0 0 0-.8-.3l-1-.1c-.4 0-.6 0-.9.3-.2.2-.3.4-.3.7-.1.3-.1.5.1.6 0 .2.2.3.5.5l.9.4 1 .5c.3.1.6.4.7.6.2.2.2.6.2 1Zm1.8-5.4.4.1.1.4-.1.4-.4.2c-.1 0-.3 0-.4-.2v-.8l.4-.1Zm.4 2v5.3h-.8v-5.3Zm2.6 5.3h-.9V231h1Zm2.9 0-2-5.3h.9l1.1 3.1.2.6.2.4v.6h.2l.1-.6a16 16 0 0 1 .3-1l1.1-3.1h1l-2.1 5.3Zm6-5.4c.4 0 .7 0 1.1.3a2 2 0 0 1 .8.8c.2.4.3.8.3 1.3v.4h-3.7c0 .7.2 1.2.5 1.5.3.3.7.5 1.2.5l1-.1.6-.3v.8l-.7.2a5 5 0 0 1-1 .1 3 3 0 0 1-1.2-.3 2.2 2.2 0 0 1-1-.9c-.2-.4-.2-1-.2-1.5-.1-.6-.1-1 .2-1.5.2-.5.5-.8.8-1 .4-.2.8-.3 1.3-.3Zm0 .7c-.5 0-.8.1-1 .4-.3.3-.4.6-.5 1.1h2.8c0-.4-.2-.8-.4-1-.2-.4-.5-.6-1-.6Zm6-.7h.7l-.1.8h-.6c-.3 0-.6 0-.8.2l-.6.6-.2 1v2.8h-.9v-5.3h.7l.2 1 .7-.8c.2-.2.6-.3 1-.3Zm8.4 3.5c0 .7-.2 1.3-.7 1.5-.4.4-1 .5-1.8.5H249a3 3 0 0 1-.8-.4v-.8a5 5 0 0 0 1 .3l.9.2c.7 0 1.1 0 1.3-.4.3-.2.4-.4.4-.8l-.1-.6-.5-.4a7.2 7.2 0 0 0-1-.5c-.7-.2-1.2-.5-1.4-.8-.3-.3-.5-.7-.5-1.3 0-.4.1-.7.3-1a2 2 0 0 1 .8-.6 3 3 0 0 1 1.2-.2l1 .1a5 5 0 0 1 1.1.3l-.4.8a4.5 4.5 0 0 0-.8-.3l-1-.1c-.3 0-.6 0-.9.3-.2.2-.3.4-.3.7-.1.3-.1.5.1.6 0 .2.2.3.5.5l.9.4 1 .5c.3.1.5.4.7.6.2.2.2.6.2 1Zm3.9-3.5c.7 0 1.2.2 1.6.7.4.4.6 1.1.6 2 0 1.1-.2 1.7-.6 2.1-.4.5-1 .7-1.6.7-.4 0-.8 0-1-.2l-.7-.6v3.1h-.8v-7.7h.7v.7h.2l.6-.6 1-.2Zm-.2.7c-.4.1-.9.2-1.1.5-.3.3-.4.6-.4 1.4v.1c.1.7.1 1.2.4 1.6.2.3.6.5 1.2.5.3 0 .5 0 .8-.3.2-.1.3-.4.4-.7l.3-1c-.1-.8-.2-1.3-.5-1.6-.2-.4-.5-.5-1-.5ZM262.7 233.2h.6v.8h-.7c-.2 0-.6 0-.7.2l-.6.6-.3 1v2.8h-.8v-5.3h.7l.1 1 .8-.8c.2-.2.5-.3.9-.3Zm2.1-1.9.2.1.3.4c0 .2 0 .3-.2.4l-.3.2c-.2 0-.3 0-.4-.2l-.1-.4.1-.4.4-.1Zm.4 2v5.3h-.9v-5.3Zm4.3-.1c.6 0 1.1.1 1.4.4.4.4.5.9.5 1.5v3.5h-.8v-3.4c0-.9-.4-1.3-1.2-1.3-.6.1-1 .2-1.4.5 0 .3-.2.8-.2 1.6v2.6h-.9v-5.3h.7l.2.7c.2-.3.4-.5.7-.6.3-.2.7-.2 1-.2Zm5.5 0c.3 0 .7 0 1 .2a2 2 0 0 1 .6.6l.2-.7h.7v5.4c0 .8-.2 1.4-.5 1.7-.4.4-1 .6-1.8.6s-1.5 0-2-.3v-.8c.5.3 1.2.4 2 .4.5 0 .8-.1 1-.4.4-.3.6-.6.6-1.1v-.9c-.5.6-1.1.8-1.8.8s-1.2-.2-1.6-.7c-.4-.5-.6-1.2-.6-2 0-1 .2-1.6.6-2 .4-.7 1-.9 1.6-.9Zm.1.7c-.4.1-.8.2-1 .5-.3.4-.4 1-.4 1.6 0 .6.1 1 .4 1.5.2.3.6.5.9.5.7 0 1.1 0 1.3-.4.3-.3.4-.8.4-1.4v-.2c0-.8-.1-1.3-.4-1.6-.2-.3-.6-.5-1.2-.5Zm0 .1" style="fill:none;stroke-width:3;stroke-linecap:butt;stroke-linejoin:round;stroke:#fff;stroke-opacity:.6;stroke-miterlimit:10" transform=" rotate(  340 248.676 235.634) "/> <g style="fill:#222;fill-opacity:1" transform=" rotate(  340 248.676 235.634) ">  <use xlink:href="#A" x="219.6" y="238.6"/>  <use xlink:href="#u" x="225.1" y="238.6"/>  <use xlink:href="#q" x="227.7" y="238.6"/>  <use xlink:href="#B" x="230.3" y="238.6"/>  <use xlink:href="#C" x="235.3" y="238.6"/>  <use xlink:href="#D" x="241" y="238.6"/>  <use xlink:href="#glyph1-17" x="245.1" y="238.6"/>  <use xlink:href="#A" x="247.7" y="238.6"/>  <use xlink:href="#y" x="253.2" y="238.6"/>  <use xlink:href="#D" x="259.4" y="238.6"/>  <use xlink:href="#u" x="263.5" y="238.6"/>  <use xlink:href="#x" x="266.1" y="238.6"/>  <use xlink:href="#E" x="272.2" y="238.6"/> </g> <path d="M294.8 244.8h2c.9 0 1.6.2 2 .4.5.3.7.8.7 1.4 0 .4-.1.8-.3 1-.3.4-.6.6-1 .7.3-.1.5.1.8.2l.6.5.2 1c0 .5-.3 1-.8 1.3-.4.5-1 .7-1.7.7h-2.5Zm.9 3h1.3c.6.1 1 .1 1.3-.1.2-.3.3-.7.3-1s-.1-.7-.4-.8c-.3-.2-.8-.3-1.4-.3h-1.1Zm0 .9v2.5h1.3c.7 0 1.1-.1 1.4-.4.3-.2.4-.5.4-1 0-.2-.1-.5-.4-.8-.2-.3-.7-.4-1.4-.4Zm10.1.6c0 .9-.2 1.6-.7 2-.4.5-1 .8-1.8.8-.5-.1-.9-.1-1.3-.4-.3-.2-.6-.5-.8-1-.3-.2-.4-.7-.4-1.3 0-1.1.3-1.7.7-2.1.5-.6 1-.9 1.8-.9.5.1 1 .2 1.3.4.4.3.7.6.9 1 .2.4.3.9.3 1.5Zm-4 0c0 .6 0 1.1.2 1.5.4.4.8.5 1.3.5.7 0 1-.1 1.2-.5.3-.4.5-.9.5-1.5-.1-.7-.2-1.3-.5-1.5-.2-.4-.5-.6-1.2-.6-.5 0-1 .2-1.2.6-.1.2-.3.8-.3 1.5Zm9.6 2.7-1-3a18 18 0 0 1-.2-1.6 34.3 34.3 0 0 1-.5 1.6l-1 3h-1l-1.4-5.4h.9l.7 2.8.2 1 .2.6v-.4l.3-.5a6 6 0 0 1 .1-.5l1-3h.8l1 3 .2.8.2.6.1-.6.2-1 .8-2.8h.9l-1.5 5.3Zm3.9-7.4.4.1.1.5-.1.4-.4.1-.3-.1-.2-.4.1-.5.4-.1Zm.4 2v5.4h-.7v-5.4Zm3.8-.1c.5 0 .9.1 1.2.3a2 2 0 0 1 .8.9l.2 1.2v.5H318c0 .7.2 1.1.5 1.4.3.4.7.5 1.3.5h.9l.8-.5v.9l-.8.3a5 5 0 0 1-1 0 3 3 0 0 1-1.3-.1 2.2 2.2 0 0 1-1-1.1c0-.4-.2-.8-.2-1.5s0-1 .2-1.5c.2-.4.6-.7.9-1 .3-.1.7-.2 1.2-.2Zm0 .7c-.4 0-.8.2-1 .4-.2.4-.4.7-.4 1.2h2.7c0-.5-.1-.9-.3-1.1-.2-.3-.6-.5-1-.5Zm0 0" style="fill:none;stroke-width:3;stroke-linecap:butt;stroke-linejoin:round;stroke:#fff;stroke-opacity:.6;stroke-miterlimit:10" transform=" rotate(  340 308.447 248.965) "/> <g style="fill:#222;fill-opacity:1" transform=" rotate(  340 308.447 248.965) ">  <use xlink:href="#F" x="293.8" y="252"/>  <use xlink:href="#p" x="300.3" y="252"/>  <use xlink:href="#G" x="306.2" y="252"/>  <use xlink:href="#u" x="314" y="252"/>  <use xlink:href="#C" x="316.6" y="252"/> </g> <path d="M153.1 131.5h-.9v-7h4v.6h-3v2.6h2.8v.8h-2.9Zm6.7-5.5.3.2h.3v.8h-.4l-.3-.2c-.1.1-.4.1-.7.2-.3.3-.5.5-.6.8l-.2.9v2.8h-.9v-5.3h.7l.1 1 .8-.8c.2-.2.5-.3.9-.3Zm3.5 0c.5 0 .9.3 1.2.5a2 2 0 0 1 .7.7c.2.4.3.8.3 1.3v.5h-3.7c0 .6.2 1.1.5 1.4.3.3.7.6 1.3.6l.9-.2.8-.3v.8l-.8.3a5 5 0 0 1-1 0 3 3 0 0 1-1.3-.3 2.2 2.2 0 0 1-1-.9c-.2-.4-.2-.9-.2-1.4s0-1 .2-1.6c.2-.4.5-.7.9-1 .3-.2.7-.3 1.2-.3Zm0 .9c-.4-.1-.8.1-1 .3-.3.3-.4.8-.4 1.1h2.7c0-.3-.1-.8-.3-1-.3-.3-.6-.6-1-.6Zm5.5 4.7c-.8 0-1.2-.2-1.6-.6-.4-.5-.6-1.2-.6-2.1 0-1 .2-1.6.6-2.1.4-.5 1-.7 1.6-.7.4-.1.7-.1 1 .2a2 2 0 0 1 .6.7h.1v-3h.7v7.5h-.6l-.1-.7a2 2 0 0 1-.8.6c-.2.2-.5.2-.9.2Zm.1-.6c.6 0 1.1-.2 1.2-.5.2-.5.4-.8.4-1.5 0-.8-.2-1.3-.5-1.6 0-.4-.5-.6-1-.6-.6 0-.9.2-1.1.6-.4.4-.5.9-.5 1.5s.1 1.1.4 1.5c.3.3.6.5 1.2.5Zm6.1-5c.7 0 1 .3 1.4.5a2 2 0 0 1 .6.7c.2.4.3.8.3 1.3v.5h-3.7c0 .6.2 1.1.5 1.4.3.3.7.6 1.2.6l1-.2.7-.3v.8l-.7.3a5 5 0 0 1-1 0 3 3 0 0 1-1.3-.3 2.2 2.2 0 0 1-1-.9c-.2-.4-.3-.9-.3-1.4s.1-1 .3-1.6l.8-1c.4-.2.8-.3 1.3-.3Zm0 .9c-.2-.1-.6.1-1 .3-.1.3-.2.8-.2 1.1h2.6c0-.3-.1-.8-.4-1-.1-.3-.5-.6-1-.6Zm6.2-.9.3.2h.3l-.1.8h-.3l-.4-.2c-.2.1-.4.1-.7.2l-.6.8-.1.9v2.8h-.9v-5.3h.7v1h.2l.6-.8c.3-.2.6-.3 1-.3Zm2-1.8.4.1.2.4-.2.5-.4.1-.2-.1-.3-.5c0-.2 0-.3.3-.4l.2-.1Zm.5 2v5.3h-1v-5.3Zm3.8 5.4c-.4 0-.9 0-1.2-.2-.4-.2-.7-.5-1-1l-.1-1.4c-.2-.8-.2-1.3.2-1.7.2-.4.5-.7.9-1l1.3-.1h.8l.6.3-.3.5h-1.1c-1-.1-1.6.5-1.6 1.9 0 .6 0 1.1.4 1.5.2.3.6.5 1.1.5l.8-.1.6-.2v.8a2 2 0 0 1-.6.2h-.8Zm3.5-7.6v4.8l.2-.2.3-.3c0-.3.1-.3.2-.3l1.7-1.8h1l-2.1 2.3 2.3 3h-1l-2.1-2.5-.5.6v2h-.8V124Zm0 0" style="fill:none;stroke-width:3;stroke-linecap:butt;stroke-linejoin:round;stroke:#fff;stroke-opacity:.6;stroke-miterlimit:10" transform=" rotate(  340 172.889 128.547) "/> <g style="fill:#222;fill-opacity:1" transform=" rotate(  340 172.889 128.547) ">  <use xlink:href="#H" x="151.3" y="131.5"/>  <use xlink:href="#D" x="156.5" y="131.5"/>  <use xlink:href="#C" x="160.4" y="131.5"/>  <use xlink:href="#I" x="166" y="131.5"/>  <use xlink:href="#C" x="172.2" y="131.5"/>  <use xlink:href="#D" x="177.8" y="131.5"/>  <use xlink:href="#u" x="181.9" y="131.5"/>  <use xlink:href="#J" x="184.5" y="131.5"/>  <use xlink:href="#K" x="189.3" y="131.5"/> </g> <path d="M318.8 134.4h-.8v-6.3h-2.3v-.8h5.3v.7h-2.2Zm7.2-2.7c0 .9-.4 1.6-.8 2-.4.7-.9.9-1.8.9-.4-.1-.9-.2-1.2-.4-.4-.2-.7-.6-1-1l-.2-1.5c0-.9.2-1.6.7-2 .3-.5 1-.8 1.8-.8.5.1.9.2 1.2.4.4.2.7.5 1 1l.1 1.3Zm-4.2 0c.1.7.2 1.3.5 1.5.2.4.6.6 1.2.6.5 0 .9-.2 1.2-.6.2-.2.3-.8.3-1.5 0-.6 0-1.1-.3-1.5-.3-.2-.7-.5-1.3-.5-.4 0-.9.2-1.1.5-.3.4-.4.9-.4 1.5Zm9.7 2.7-1-3a18 18 0 0 1-.2-1.5 34.3 34.3 0 0 1-.5 1.5l-1 3h-.9l-1.4-5.4h.8l.7 3a40 40 0 0 1 .4 1.5l.1-.4.1-.5a6 6 0 0 1 .2-.6l1-3h.8l1.1 3v.8l.3.7c0-.2 0-.5.2-.7l.2-1 .6-2.8h1.1l-1.7 5.4Zm7-1.4c0 .3-.2.7-.6 1-.4.4-.9.5-1.6.5l-1-.1-.5-.2v-.8l.6.3h2l.1-.7v-.3l-.5-.4a7.5 7.5 0 0 0-.7-.3 7.5 7.5 0 0 1-.9-.4l-.6-.6-.1-.6c0-.5.1-.8.5-1 .4-.4.9-.6 1.5-.6l.9.2a4 4 0 0 1 .8.3l-.4.7-.6-.2-.8-.1-.8.1c-.2.2-.3.3-.3.5l.1.4.4.3 1 .3.7.4.6.5.2.8Zm5.9-1.3c0 .9-.2 1.6-.6 2-.5.7-1 .9-1.9.9-.4-.1-.9-.2-1.2-.4-.4-.2-.7-.6-1-1l-.1-1.5c-.1-.9.1-1.6.6-2 .4-.5 1-.8 1.8-.8.5.1.9.2 1.2.4.4.2.8.5 1 1l.1 1.3Zm-4 0c0 .7.1 1.3.4 1.5.2.4.6.6 1.2.6.5 0 .9-.2 1.2-.6.2-.2.3-.8.3-1.5 0-.6-.1-1.1-.3-1.5-.3-.2-.7-.5-1.3-.5-.5 0-.9.2-1.1.5-.3.4-.4.9-.4 1.5Zm8-2.7c.7 0 1.1 0 1.6.3.2.4.4.9.4 1.7v3.4h-1V131c.1-1-.2-1.3-1-1.3-.7 0-1.1.2-1.4.5-.2.3-.3.8-.3 1.4v2.8h-.9V129h.7l.2.8c.3-.3.4-.5.7-.6l1-.3Zm0 0" style="fill:none;stroke-width:3;stroke-linecap:butt;stroke-linejoin:round;stroke:#fff;stroke-opacity:.6;stroke-miterlimit:10" transform=" rotate(  340 332.708 131.402) "/> <g style="fill:#222;fill-opacity:1" transform=" rotate(  340 332.708 131.402) ">  <use xlink:href="#L" x="315.6" y="134.4"/>  <use xlink:href="#p" x="320.4" y="134.4"/>  <use xlink:href="#G" x="326.3" y="134.4"/>  <use xlink:href="#z" x="334.1" y="134.4"/>  <use xlink:href="#p" x="338.9" y="134.4"/>  <use xlink:href="#x" x="345" y="134.4"/> </g> <path d="M89.4 73h-.9v-3.3H85V73h-1.1v-7.2H85v3h3.5v-2.9h1Zm3.9-5.5c.6 0 1.1.2 1.4.5.3.2.5.7.5 1.3V73h-.7l-.1-.8-.9.8h-.9c-.6 0-1.1-.1-1.4-.3-.2-.3-.4-.7-.4-1.2s.3-1 .7-1.2c.4-.3 1-.5 2-.5h.7v-.5c.1-.3.1-.6-.2-.8-.2-.2-.4-.3-.8-.3-.2 0-.5 0-.8.2l-.7.3-.3-.7.9-.3 1-.2Zm1 2.9h-.8c-.5 0-1.1.1-1.4.3-.1.3-.3.5-.3.8 0 .3 0 .5.2.7l.7.2c.5 0 .9-.2 1.3-.4.2-.3.3-.6.3-1.2Zm4.5-2.9.9.2a2 2 0 0 1 .7.6l.3-.7h.6v5.5c0 .7-.2 1.3-.6 1.7-.4.4-1 .6-1.8.6s-1.4-.1-1.9-.4v-.8c.6.3 1.3.5 2 .5.5 0 .9-.2 1-.5.3-.2.4-.6.4-1v-1c-.3.6-.9.8-1.6.8-.8 0-1.3-.2-1.8-.6-.3-.5-.5-1.2-.5-2 0-1.1.2-1.7.6-2.2.4-.4 1-.7 1.7-.7Zm0 .8c-.3 0-.6.1-.9.5-.3.2-.4.9-.4 1.5 0 .7 0 1.2.3 1.5.3.4.6.6 1 .6.7 0 1.1-.2 1.4-.5.1-.3.2-.7.2-1.4v-.2c0-.7 0-1.2-.3-1.6-.3-.3-.7-.4-1.2-.4ZM105 67.5c.6 0 1 .1 1.3.3a2 2 0 0 1 .7.9c.2.3.3.8.3 1.2v.6h-3.7c0 .5.2 1 .5 1.4.3.3.7.4 1.2.4h1l.7-.3v.7c-.2.3-.5.3-.8.3a5 5 0 0 1-1 0 3 3 0 0 1-1.2-.1 2.2 2.2 0 0 1-1-1.1c-.2-.3-.3-.8-.3-1.4 0-.6 0-1.1.3-1.6l.8-1c.4-.1.8-.2 1.3-.2Zm0 .7c-.3 0-.6.2-1 .5-.1.2-.2.6-.3 1h2.7c0-.3-.2-.7-.4-.9-.2-.4-.5-.6-1-.6Zm6.1-.7h.7l-.1 1h-.7c-.2-.2-.5-.2-.7 0l-.6.7-.2 1V73h-.9v-5.4h.8v1l.9-.6c.1-.4.5-.5.9-.5Zm5.2 4c0 .5-.3 1-.6 1.2-.4.2-1 .3-1.7.3h-.9c-.1 0-.4-.1-.6-.3V72c.2.1.5.2.7.2l1 .2.9-.2.2-.6v-.4l-.4-.2a7.5 7.5 0 0 0-.8-.5 7.5 7.5 0 0 1-.9-.4l-.6-.4-.2-.8c0-.4.2-.8.6-.9.4-.3.8-.5 1.4-.5l1 .1a4 4 0 0 1 .8.4l-.3.6-.9-.3h-1.5l-.2.7v.3c.3 0 .4.2.6.3l.8.3.8.4c.3.1.5.3.6.5l.2.7Zm3.1.9h.4l.2-.3v.9h-1.6c-.2-.3-.4-.4-.4-.7-.3-.1-.4-.3-.4-.9v-3.1h-.6v-.4l.6-.4.4-1.1h.5v1.2h1.6v.7h-1.6v3.1c0 .3 0 .6.2.7.3.2.4.3.7.3Zm6.4-2.1c0 .9-.2 1.6-.7 2-.4.6-1 .9-1.8.9-.3-.2-.9-.2-1.2-.4l-1.1-1v-1.5c-.1-.9 0-1.6.5-2 .5-.6 1-.9 1.9-.9.4.1.9.2 1.2.6.4 0 .7.4 1 .8l.1 1.5Zm-4 0c0 .6.1 1.1.2 1.5.4.4.8.6 1.4.6.5 0 .9-.2 1.1-.6.3-.4.5-.8.5-1.5s-.2-1.1-.5-1.5c-.2-.4-.5-.5-1.2-.5-.5 0-.9.1-1.2.5-.1.4-.3.9-.3 1.5Zm9.6 2.7-1-3a18 18 0 0 1-.2-1.6 34.3 34.3 0 0 1-.5 1.6l-1 3h-.9l-1.5-5.4h.9l.7 2.9.2.8.2.8.1-.4.1-.7a6 6 0 0 1 .2-.4l1-3h.8l1.1 3v.8l.4.6v-.6l.3-1 .7-2.7h1l-1.7 5.3Zm6.1-5.5c.5 0 1 .2 1.4.5.3.3.5.8.5 1.5V73h-.9v-3.5c0-.8-.4-1.2-1.2-1.2-.6 0-1 .1-1.2.5-.2.2-.3.8-.3 1.4V73h-1v-5.4h.9v.8l.9-.7.9-.2Zm0 0" style="fill:none;stroke-width:3;stroke-linecap:butt;stroke-linejoin:round;stroke:#fff;stroke-opacity:.6;stroke-miterlimit:10" transform=" rotate(  340 112.21 69.9802) "/> <g style="fill:#222;fill-opacity:1" transform=" rotate(  340 112.21 69.9802) ">  <use xlink:href="#M" x="83" y="73"/>  <use xlink:href="#v" x="90.4" y="73"/>  <use xlink:href="#E" x="96" y="73"/>  <use xlink:href="#C" x="102.2" y="73"/>  <use xlink:href="#D" x="107.8" y="73"/>  <use xlink:href="#z" x="111.9" y="73"/>  <use xlink:href="#N" x="116.7" y="73"/>  <use xlink:href="#p" x="120.3" y="73"/>  <use xlink:href="#G" x="126.2" y="73"/>  <use xlink:href="#x" x="134" y="73"/> </g> <path d="m6 182.8-1.7 7.1H3.2L2 185.2a30.2 30.2 0 0 1-.4-1l-.1-.4-.1.6-.2.9-1.4 4.6H-1l-2-7.1h1l1 4.4.4.8v.9a10.5 10.5 0 0 1 .4-1.9l1.2-4.2h1l1.3 4.2.2 1.1.2.7.1-.8.2-1 1.1-4.2Zm1.5-.2.3.1.2.4c0 .2 0 .3-.2.4l-.3.2c-.2 0-.3 0-.5-.2v-.8l.5-.1Zm.4 2v5.3H7v-5.3Zm4.3-.1c.6 0 1.1.1 1.4.4.4.4.5.9.5 1.5v3.6h-.8v-3.5c0-.9-.4-1.3-1.3-1.3-.5 0-1 .2-1.2.5-.2.4-.3.8-.3 1.5v2.7h-.9v-5.3h.7l.2.7c.2-.3.5-.5.7-.6l1-.2ZM18 190c-.5 0-1 0-1.3-.3-.4-.1-.7-.5-.9-.9-.2-.4-.3-.8-.3-1.5s.1-1.3.3-1.6c.2-.4.5-.7 1-1l1.2-.1h.8l.6.3-.2.6-.6-.2H18c-1-.1-1.6.5-1.6 1.9 0 .7.1 1.2.4 1.6.3.2.6.5 1.1.5l.8-.1.6-.2v.7a2 2 0 0 1-.6.3H18Zm3.5-7.7v3c.2-.3.4-.5.7-.6l1-.2c.6 0 1.1.1 1.4.4.4.4.5.9.5 1.5v3.6h-.8v-3.5c0-.9-.4-1.3-1.3-1.3-.5 0-1 .2-1.2.5-.2.4-.3.8-.3 1.5v2.7h-.9v-7.6Zm7.4 2.2c.4 0 .8 0 1.1.3a2 2 0 0 1 .8.8c.2.4.2.8.2 1.4v.4h-3.6c0 .6.2 1.1.5 1.4.3.3.7.5 1.1.5l1.1-.1.6-.3v.8l-.7.2a5 5 0 0 1-1 .1 3 3 0 0 1-1.2-.3 2.2 2.2 0 0 1-1-.9c-.2-.4-.3-1-.3-1.5 0-.6 0-1 .3-1.5.2-.4.4-.8.8-1 .4-.2.8-.3 1.4-.3Zm0 .7c-.6 0-.9.1-1.1.4-.3.4-.4.6-.5 1.1h2.8c0-.4 0-.7-.3-1-.2-.5-.5-.6-1-.6ZM36 188.4c0 .6-.4 1-.8 1.2-.2.4-.8.4-1.4.4h-1l-.7-.4v-.7l.8.3.9.1c.4 0 .8 0 1-.2.2-.1.2-.3.2-.6 0-.1 0-.2-.1-.3l-.3-.3a7.5 7.5 0 0 0-.9-.4 7.5 7.5 0 0 1-.7-.4c-.4-.1-.6-.3-.7-.5l-.3-.6c0-.6.3-1 .6-1.1.4-.3.9-.4 1.5-.4h.9a4 4 0 0 1 .7.4l-.2.6-.7-.2-.8-.1c-.3 0-.6 0-.8.2-.2 0-.3.2-.3.4l.1.4.5.3.8.5.9.3c.2 0 .4.3.5.4l.3.7Zm3 .9h.4l.4-.1v.7h-.5l-.5.1h-.7c-.3-.2-.5-.4-.6-.6l-.2-1v-3.2h-.8v-.4l.8-.3.3-1.2h.6v1.3h1.5v.6h-1.5v3.2c0 .3 0 .5.2.6l.6.3Zm3.9-4.8c.5 0 .8 0 1.1.3a2 2 0 0 1 .8.8c.2.4.3.8.3 1.4v.4h-3.7c0 .6.2 1.1.6 1.4.2.3.6.5 1 .5l1.1-.1.8-.3v.8l-.9.2a5 5 0 0 1-1 .1 3 3 0 0 1-1.2-.3 2.2 2.2 0 0 1-1-.9c-.2-.4-.3-1-.3-1.5 0-.6.1-1 .3-1.5.2-.4.5-.8.8-1 .4-.2.8-.3 1.4-.3Zm0 .7c-.4 0-.9.1-1 .4-.3.4-.4.6-.4 1.1h2.7c0-.4-.2-.7-.3-1-.2-.5-.6-.6-1-.6Zm6.1-.7h.6l-.1.8h-.6c-.3 0-.5 0-.8.2l-.5.6c-.2.3-.3.6-.3 1v2.8h-.8v-5.3h.7v1h.2l.6-.8c.3-.2.6-.3 1-.3Zm0 0" style="fill:none;stroke-width:3;stroke-linecap:butt;stroke-linejoin:round;stroke:#fff;stroke-opacity:.6;stroke-miterlimit:10" transform=" rotate(  340 25.9024 186.935) "/> <g style="fill:#222;fill-opacity:1" transform=" rotate(  340 25.9024 186.935) ">  <use xlink:href="#O" x="-3.1" y="189.9"/>  <use xlink:href="#u" x="6.2" y="189.9"/>  <use xlink:href="#x" x="8.8" y="189.9"/>  <use xlink:href="#J" x="15" y="189.9"/>  <use xlink:href="#P" x="19.8" y="189.9"/>  <use xlink:href="#C" x="25.9" y="189.9"/>  <use xlink:href="#z" x="31.6" y="189.9"/>  <use xlink:href="#N" x="36.4" y="189.9"/>  <use xlink:href="#C" x="40" y="189.9"/>  <use xlink:href="#D" x="45.6" y="189.9"/> </g> <path d="M267.3 210.6v-7.1h.9v6.3h3v.8Zm7.1-5.4c.7 0 1.2.1 1.6.4.2.3.3.7.3 1.3v3.7h-.6l-.2-.8c-.3.3-.5.6-.8.7l-1 .2c-.5 0-1-.1-1.2-.4-.5-.2-.5-.6-.5-1.2 0-.5.2-1 .6-1.1.4-.4 1-.6 2-.6h.9v-.4c0-.4-.1-.7-.3-1h-1.6c-.3 0-.6.2-.8.3l-.2-.7.8-.3 1-.1Zm1 2.8h-.6c-.8 0-1.3.2-1.5.3-.3.2-.4.5-.4.8.1.3.1.5.3.7l.7.2c.4 0 .8-.1 1.1-.4.3-.2.5-.6.5-1.1Zm7.1-2.8v5.4h-.7l-.2-.6c-.2.2-.4.4-.7.5l-1 .2c-.7 0-1.1-.1-1.5-.5-.3-.2-.4-.8-.4-1.4v-3.6h1v3.5c-.2.9.1 1.3 1 1.3.6 0 1-.2 1.3-.5.2-.5.3-.8.3-1.5v-2.8Zm4.2 0h.6l-.1.8h-.6c-.3 0-.5 0-.8.1-.2.2-.4.4-.5.7-.3.3-.3.6-.3 1v2.7h-1v-5.3h1v1l.7-.7c.3-.2.6-.3 1-.3Zm3.5 0c.4 0 .8 0 1.2.2a2 2 0 0 1 .6.9c.3.4.4.7.4 1.3v.4h-3.7c0 .7.3 1 .5 1.5.3.3.7.4 1.2.4h1l.6-.3v.8l-.7.2a5 5 0 0 1-1 .1 3 3 0 0 1-1.3-.3 2.2 2.2 0 0 1-.9-1c-.1-.2-.3-.7-.3-1.4 0-.6.1-1.1.3-1.5.2-.5.5-.8.8-1 .4-.2.8-.3 1.3-.3Zm0 .7c-.5 0-.8.1-1 .4-.3.2-.4.6-.5 1.1h2.8c0-.5-.1-.8-.5-1.1 0-.3-.4-.4-.9-.4Zm4.4 4.7h-.9V203h1Zm0 0" style="fill:none;stroke-width:3;stroke-linecap:butt;stroke-linejoin:round;stroke:#fff;stroke-opacity:.6;stroke-miterlimit:10" transform=" rotate(  340 282.217 207.606) "/> <g style="fill:#222;fill-opacity:1" transform=" rotate(  340 282.217 207.606) ">  <use xlink:href="#Q" x="266.3" y="210.6"/>  <use xlink:href="#v" x="271.5" y="210.6"/>  <use xlink:href="#r" x="277.1" y="210.6"/>  <use xlink:href="#D" x="283.3" y="210.6"/>  <use xlink:href="#C" x="287.3" y="210.6"/>  <use xlink:href="#q" x="292.9" y="210.6"/> </g></svg>