<svg xmlns="http://www.w3.org/2000/svg" xmlns:xlink="http://www.w3.org/1999/xlink" viewBox="0 0 497 279"> <defs overflow="visible" style="stroke:none">  <path id="g" d="M1.7-7.6v4.8L2-3v-.3l.4-.2L4-5.4h1L2.9-3l2.4 3H4.2L2.3-2.5l-.6.5v2H.8v-7.6Zm0 0"/>  <path id="f" d="M5.5-2.7c0 .9-.2 1.7-.7 2-.4.7-1 .9-1.8.9-.5-.2-.9-.2-1.3-.4-.3-.2-.6-.6-.7-1C.6-1.6.5-2 .5-2.7c0-.9.3-1.6.7-2 .5-.5 1-.8 1.8-.8.5 0 1 .2 1.3.5.4 0 .7.4.9.9.2.2.3.7.3 1.3Zm-4 0c0 .7 0 1.2.3 1.5.3.4.7.6 1.2.6.6 0 1-.2 1.2-.6.3-.3.4-.8.4-1.5s-.1-1.1-.4-1.5c-.2-.3-.6-.5-1.2-.5-.5 0-1 .2-1.2.5-.2.4-.3.9-.3 1.5Zm0 0"/>  <path id="e" d="M3.3-5.5H4l-.1 1.1-.3-.3h-.3c-.3 0-.5 0-.8.2l-.5.7-.3 1V0H.8v-5.4h.8v1h.2l.6-.6c.3-.3.6-.5 1-.5Zm0 0"/>  <path id="d" d="M1.7-7.6v2.9l.7-.5c.2-.2.6-.3 1-.3.6 0 1.2.3 1.6.8.4.4.6 1.1.6 1.9C5.6-1.7 5.4-1 5-.6c-.4.6-1 .7-1.6.7-.4-.1-.8-.1-1-.2l-.7-.6-.2.7H.8v-7.6Zm1.5 2.9c-.5 0-1 .1-1.1.5-.3.2-.4.8-.4 1.5s.1 1.2.3 1.5c.3.4.7.6 1.3.6.4 0 .7-.2 1-.6.3-.3.4-.8.4-1.5 0-1.3-.5-2-1.5-2Zm0 0"/>  <path id="c" d="M6.7-5.5c.6 0 1 .2 1.4.5.3.3.4.8.4 1.5V0h-.8v-3.5c0-.8-.4-1.2-1.1-1.2-.6 0-1 .1-1.1.4C5.2-4 5-3.5 5-3v3h-.7v-3.5c0-.8-.4-1.2-1.1-1.2-.6 0-1 .1-1.2.5-.2.2-.3.8-.3 1.4V0H.8v-5.4h.8v.8h.2l.6-.7 1-.2c.7 0 1.2.3 1.6 1 .2-.5.4-.7.7-.8.3-.1.7-.2 1-.2Zm0 0"/>  <path id="b" d="M3-5.5c.3 0 .7.1 1 .3a2 2 0 0 1 1 .9v1.8H1.5c0 .5.1 1 .4 1.4.3.3.7.4 1.3.4H4l.9-.3v.8L4 0a5 5 0 0 1-1 0 3 3 0 0 1-1.2-.1 2.2 2.2 0 0 1-1-1.1c0-.2-.2-.8-.2-1.3-.1-.7 0-1.2.2-1.6.2-.5.5-.9.9-1 .3-.2.7-.4 1.2-.4Zm0 .8c-.6 0-.9.1-1 .4-.4.2-.6.6-.6 1.1h2.8c0-.5-.1-.8-.3-1.1-.2-.3-.5-.4-1-.4Zm0 0"/>  <path id="a" d="M2.9-7.1c.9 0 1.6.1 2 .5.4.4.6.9.6 1.6 0 .4 0 .7-.2 1-.3.5-.5.8-1 1l-1.5.1h-.9V0h-1v-7.1Zm-.1.7h-1v2.9h.9c.6 0 1.1-.2 1.3-.5.4 0 .6-.5.6-1s-.1-.8-.4-1c-.3-.3-.8-.4-1.4-.4Zm0 0"/>  <path d="M1 0v-7.1h4V0Zm.4-.5h3.1v-6.1h-3Zm.1 0"/> </defs> <image xlink:href="svg/9/105_6.jpg" width="497" height="279"/> <path d="M210.7 67.2c1 0 1.7.2 2 .6.6.2.8.9.8 1.5-.1.4-.1.8-.3 1.1-.2.4-.5.7-1 .9-.2.2-.9.3-1.5.3h-.9v2.8h-1v-7.2Zm0 .8h-1v2.8h.9c.6 0 1.1 0 1.4-.3.3-.2.5-.6.5-1.1 0-.5-.2-.8-.4-1-.3-.4-.8-.4-1.4-.4Zm6.2 1c.4 0 .8 0 1.1.1a2 2 0 0 1 .8 1c.2.3.3.7.3 1.2v.7h-3.7c0 .5.2.9.5 1.2.3.4.7.5 1.1.5h1.1l.6-.4v.7l-.7.4a5 5 0 0 1-1 0 3 3 0 0 1-1.2-.1 2.2 2.2 0 0 1-1-1.1c-.2-.4-.3-.9-.3-1.5s0-1 .3-1.5l.8-1c.4-.2.8-.2 1.4-.2Zm0 .5c-.6.1-.9.3-1.1.5-.3.3-.4.7-.5 1.2h2.8c0-.5 0-.9-.3-1.2-.2-.2-.5-.4-1-.4Zm9.4-.5c.7 0 1 0 1.4.3.3.4.3.9.3 1.6v3.5h-.7v-3.5c0-.8-.5-1.3-1.1-1.3-.6 0-1 .2-1.2.5-.2.3-.3.7-.3 1.3v3h-.9v-3.5c0-.8-.3-1.3-1-1.3s-1.1.2-1.3.5c-.1.4-.2.9-.2 1.5v2.8h-.9V69h.7l.2.7.7-.6.9-.1c.8 0 1.4.2 1.6.8l.9-.7.9-.1Zm4.4-2.2v1.8a15.8 15.8 0 0 1 0 1.1l.6-.6 1-.1c.7 0 1.2.1 1.7.6.3.5.5 1.2.5 2 0 1.1-.2 1.8-.5 2.3-.5.3-1 .6-1.7.6-.3 0-.7-.1-1-.3-.3-.1-.5-.2-.6-.5h-.1l-.2.7h-.6v-7.6Zm1.5 2.8c-.6 0-1 .2-1.2.5-.2.4-.3.9-.3 1.6 0 .7 0 1.2.3 1.5.2.4.6.5 1.2.5.5 0 .8-.1 1-.5.4-.2.5-.9.5-1.5-.1-1.4-.6-2-1.5-2Zm6.2-.6h.7l-.1.8h-1.4l-.6.8-.2 1v2.7h-.8V69h.6l.2 1 .7-.8c.2-.2.5-.2 1-.2Zm6.1 2.7c0 .9-.2 1.6-.7 2-.4.5-1 .8-1.8.8-.5 0-.9-.1-1.3-.5-.3 0-.6-.4-.7-.8-.3-.4-.4-1-.4-1.5 0-.9.2-1.7.6-2 .5-.6 1-.9 1.9-.9.4.2.9.2 1.2.4.4.3.7.6.9 1 .2.4.3.8.3 1.5Zm-4 0c0 .6 0 1.1.3 1.5.3.4.7.5 1.2.5.6 0 1-.1 1.2-.5.3-.4.4-.9.4-1.5 0-.7-.1-1.1-.4-1.5-.2-.4-.6-.6-1.2-.6-.5 0-1 .2-1.2.6-.2.4-.3.8-.3 1.5Zm6.3-4.9v4.8l.1-.2.3-.4.2-.2 1.7-1.8h1l-2.1 2.3 2.3 3h-1l-2.1-2.3-.3.4v2h-1v-7.6Zm6.5 2.2c.5 0 .9 0 1.2.1a2 2 0 0 1 .8 1l.2 1.2v.7h-3.7c0 .5.2.9.5 1.2.3.4.7.5 1.3.5h.9l.8-.4v.7l-.8.4a5 5 0 0 1-1 0 3 3 0 0 1-1.3-.1 2.2 2.2 0 0 1-1-1.1c0-.4-.2-.9-.2-1.5s0-1 .2-1.5c.2-.4.5-.7.9-1 .3-.2.7-.2 1.2-.2Zm0 .5c-.4.1-.7.3-1 .5-.2.3-.4.7-.4 1.2h2.7c0-.5-.1-.9-.3-1.2-.3-.2-.6-.4-1-.4Zm0 .1" style="fill:none;stroke-width:3;stroke-linecap:butt;stroke-linejoin:round;stroke:#fff;stroke-opacity:.6;stroke-miterlimit:10" transform=" rotate(  340 232.166 71.3656) "/> <g style="fill:#222;fill-opacity:1" transform=" rotate(  340 232.166 71.3656) ">  <use xlink:href="#a" x="207.9" y="74.4"/>  <use xlink:href="#b" x="213.9" y="74.4"/>  <use xlink:href="#c" x="219.6" y="74.4"/>  <use xlink:href="#d" x="228.9" y="74.4"/>  <use xlink:href="#e" x="235.1" y="74.4"/>  <use xlink:href="#f" x="239" y="74.4"/>  <use xlink:href="#g" x="245.1" y="74.4"/>  <use xlink:href="#b" x="250.4" y="74.4"/> </g></svg>