<svg xmlns="http://www.w3.org/2000/svg" xmlns:xlink="http://www.w3.org/1999/xlink" viewBox="0 0 497 279"> <defs>  <path d="M1 0v-7.1h4V0Zm.4-.5h3.1v-6.1h-3Zm.1 0" id="reuse-0"/> </defs> <defs overflow="visible" style="stroke:none">  <path id="ac" d="M.4 0 2-7.1h1.2l.7 5.8 3.2-5.8h1.3L7 0H6l1-4.2a47.9 47.9 0 0 1 .4-2L4 0h-.7l-.8-6.3-.1.6-.1.7-.1.7-1 4.3Zm0 0"/>  <path id="ab" d="M2 0c-.6 0-.9 0-1.2-.3C.6-.7.5-1 .5-1.7c0-.5 0-1 .2-1.4 0-.5.3-.9.5-1.2.2-.4.5-.7.8-.8a2 2 0 0 1 1.1-.4c.4 0 .7.1.9.3l.5.7a35.3 35.3 0 0 1 .2-1.3l.4-1.8H6L4.4 0h-.8l.1-1-.8.8c-.3.2-.6.2-.9.2Zm.1-.5c.4-.1.6-.2.9-.5l.5-.5.5-1 .2-1.1c0-.4-.2-.6-.3-.8-.1-.2-.4-.3-.7-.3-.3 0-.5 0-.8.2l-.4.7-.5 1-.1 1.1c0 .7.3 1 .8 1Zm.1-.1"/>  <path id="aa" d="M2.5 0C1.9 0 1.4 0 1-.4.7-.8.5-1.3.5-2l.1-1.2a4 4 0 0 1 .5-1.1c.3-.3.5-.7.9-.8.3-.2.7-.3 1.2-.3.6 0 1 .2 1.4.4.4.5.6 1.1.6 1.6L5-2a4 4 0 0 1-.5.9c-.2.5-.5.8-.8 1L2.5 0Zm0-.6c.5-.1.6-.1 1-.4.1-.2.3-.5.5-1 .2-.3.3-.8.3-1.4L4.2-4a1 1 0 0 0-.4-.5l-.6-.2c-.4 0-.7.1-1 .4-.2.2-.5.6-.6 1A4 4 0 0 0 1.4-2c0 .5 0 .8.3 1 .2.2.5.3.8.3Zm0-.1"/>  <path id="Z" d="M2.5 0C1.9 0 1.4 0 1-.3.7-.7.5-1.2.5-2c0-.4 0-1 .2-1.3l.5-1c.3-.5.6-.7 1-1 .2-.1.6-.2.9-.2l.9.1.6.2-.2.7-.5-.1-.6-.1c-.4 0-.7.1-1 .4-.3.2-.5.6-.7 1A4 4 0 0 0 1.4-2c0 .5 0 .8.3 1 .2.2.5.3.9.3h.6a7 7 0 0 0 .6-.3v.8l-.6.2h-.7Zm0 0"/>  <path id="Y" d="M.4 0 2-7.1h1.5c.8 0 1.3.1 1.7.5.3.3.5.8.5 1.3 0 .8-.3 1.5-.8 1.9-.6.4-1.3.6-2.4.6H2L1.3 0ZM2-3.5h.7c.6 0 1.1-.2 1.5-.5.4-.2.6-.7.6-1.3 0-.2-.2-.5-.4-.7-.2-.3-.4-.4-1-.4h-.7Zm0 0"/>  <path id="X" d="M-.5 2.4h-.3l-.3-.1v-.7h.5c.3.1.6.1.6-.1l.3-1 1.1-5.2h-1L.7-5l.9-.4v-.5l.6-1c0-.3.2-.5.4-.6a2 2 0 0 1 .9-.2l.5.1.4.1-.2.7h-.3L3.5-7c-.2 0-.4 0-.5.3l-.5.8v.5h.9v.7H2.3L1.2.6C1 1.2.9 1.6.6 2c-.2.2-.6.4-1 .4Zm4-2.4L5-7.6h1L4.3 0Zm0 0"/>  <path id="W" d="M1.5 0H.7L0-.2V-1l.7.3h.8c.5.1.7.1 1-.1l.1-.7c.1-.1.1-.3-.1-.4 0-.2-.3-.3-.7-.5L1-3.1c-.2-.2-.3-.5-.3-.8 0-.5.1-.9.5-1.1.3-.3.7-.5 1.3-.5.3 0 .6 0 .9.2l.6.2-.2.7-.5-.2-.8-.1c-.3 0-.5 0-.7.2-.2.1-.2.3-.2.5l.1.5.7.5c.3 0 .6.2.6.4.2 0 .4.2.5.4l.1.7c0 .5-.2 1-.5 1.2C2.7 0 2 0 1.5 0Zm0 0"/>  <path id="V" d="M.4 0 2-7.1h3.5l-.1.8H2.6l-.4 2.2h2.5l-.1.8H2L1.5-.8h2.7L4 0Zm0 0"/>  <path id="U" d="M-.4 1.3 0 0a26 26 0 0 0 .6-1.2h1v.2L1 0a38 38 0 0 1-.8 1.3Zm0 0"/>  <path id="T" d="m.3 0 1.1-5.4h.7v1l.4-.5.5-.4.7-.2H4l.3.2-.2.7h-.5c-.3-.1-.6-.1-.9.2l-.7.9-.3 1L1.2 0Zm0 0"/>  <path id="S" d="M.4 0 2-7.1h1L1.4-.8h2.8L4 0Zm0 0"/>  <path id="R" d="M.3-2.3.4-3h2.4l-.2.7Zm0 0"/>  <path id="Q" d="M1.8 0c-.3 0-.6 0-.8-.1C.7-.3.6-.6.6-1v-.8l.8-2.9h-1L.5-5l1-.5.5-1h.6l-.3 1h1.3l-.1.8H2.2l-.7 3v.8l.5.3h.3l.4-.3V0h-.9Zm0 0"/>  <path id="P" d="m.2 0 1.2-5.4h.8l-.2 1 .5-.6a2 2 0 0 1 .6-.3l.9-.2c.3 0 .6.1.9.5.1 0 .4.4.4.9v.4l-.2.5L4.4 0h-.9l.7-3.4v-.4l.2-.2c-.1-.5-.3-.7-.8-.7-.2 0-.4 0-.6.2-.3.2-.6.5-.8.8-.2.3-.4.8-.5 1.4L1.2 0Zm0 0"/>  <path id="O" d="M2.1-6.3h-.3l-.1-.5.1-.4.4-.2c.3 0 .5.2.5.5 0 .2 0 .4-.2.5l-.4.2ZM.3 0l1.1-5.4h.9L1.2 0Zm0 0"/>  <path id="N" d="M2 0c-.6 0-.9 0-1.2-.3C.6-.7.5-1 .5-1.7c0-.5 0-1 .2-1.5l.5-1.1c.2-.4.5-.7.8-.9a2 2 0 0 1 1.1-.3c.4 0 .6.1.9.3l.5.7.3-.9h.7L4.4 0h-.7l.1-1c-.3.3-.5.6-.9.8-.3.2-.6.2-.9.2Zm.1-.5c.4-.1.6-.2.9-.5l.6-.6a4 4 0 0 0 .4-1 3 3 0 0 0 .1-.7 4 4 0 0 0 0-.4c.1-.3.1-.5-.1-.7-.3-.2-.5-.3-.8-.3-.3 0-.5 0-.7.2a2 2 0 0 0-.6.7l-.4 1-.1 1.1c0 .4 0 .6.2.8.1.2.3.3.6.3Zm.1-.1"/>  <path id="M" d="M1.8 0H1L.2-.2v-.9l.7.3 1 .1.8-.1.6-.4c.2-.2.2-.6.2-.8 0-.3 0-.5-.2-.7l-1-.6a4.4 4.4 0 0 1-.6-.5 1.9 1.9 0 0 1-.5-.6L1-5.2c0-.4.1-.8.4-1.1a2 2 0 0 1 .8-.7 3 3 0 0 1 1.2-.2h1l.8.5-.4.6-.6-.2-.8-.2c-.4 0-.7.2-1 .5-.4 0-.4.4-.4.8l.1.5.4.4.5.3.8.5a2 2 0 0 1 .5.6l.2.9c0 .6-.3 1.2-.8 1.5-.3.5-.9.6-1.8.6Zm0 0"/>  <path id="L" d="M1 0 .6-5.4h.8l.3 3v1.7h.2l.1-.5a24.4 24.4 0 0 1 .6-1.2l1.6-3h1L2.2 0Zm0 0"/>  <path id="K" d="M1.9 0c-.4 0-.7 0-1-.1C.7-.5.5-.8.5-1.2v-.5L.8-2l.6-3.4h.9L1.4-2v1.2l.8.2c.2 0 .4-.1.8-.4l.6-.6.5-1.4.5-2.4h.9L4.4 0h-.8l.1-1-.5.5-.4.5-.9.1Zm0 0"/>  <path id="J" d="M2.4 0c-.6 0-1 0-1.4-.3C.6-.8.5-1.3.5-2c0-.3 0-.8.2-1.2 0-.4.3-.8.5-1.1.2-.4.5-.7.8-.8a2 2 0 0 1 1.2-.4c.5 0 .8.2 1.1.5.3 0 .4.4.4.8 0 .3-.1.7-.3 1-.4.2-.6.4-1 .6-.6.2-1.2.3-1.9.3h-.1v.3c0 .5 0 .8.3 1 .2.3.5.4.9.4l.7-.1A5 5 0 0 0 4-1v.7a6 6 0 0 1-.7.3h-.9Zm-.9-3 1.3-.1.7-.4c.2-.1.3-.4.3-.5l-.1-.6-.7-.1c-.2 0-.5.1-.9.4L1.6-3Zm0 0"/>  <path id="I" d="m.3 0 1.6-7.6h.9L1.2 0Zm0 0"/>  <path id="H" d="M.4 0 2-7.1h3.5l-.1.8H2.6l-.5 2.5h2.6l-.2.8H1.9l-.6 3Zm0 0"/>  <use xlink:href="#reuse-0"/>  <path id="G" d="M1.7-7.6v2.9l.7-.5c.2-.2.6-.3 1-.3.6 0 1.2.3 1.6.8.4.4.6 1.1.6 1.9C5.6-1.7 5.4-1 5-.6c-.4.6-1 .7-1.6.7-.4-.1-.8-.1-1-.2l-.7-.6-.2.7H.8v-7.6Zm1.5 2.9c-.5 0-1 .1-1.1.5-.3.2-.4.8-.4 1.5s.1 1.2.3 1.5c.3.4.7.6 1.3.6.4 0 .7-.2 1-.6.3-.3.4-.8.4-1.5 0-1.3-.5-2-1.5-2Zm0 0"/>  <path id="F" d="M3-5.5c.3 0 .7.1 1 .3a2 2 0 0 1 1 .9v1.8H1.5c0 .5.1 1 .4 1.4.3.3.7.4 1.3.4H4l.9-.3v.8L4 0a5 5 0 0 1-1 0 3 3 0 0 1-1.2-.1 2.2 2.2 0 0 1-1-1.1c0-.2-.2-.8-.2-1.3-.1-.7 0-1.2.2-1.6.2-.5.5-.9.9-1 .3-.2.7-.4 1.2-.4Zm0 .8c-.6 0-.9.1-1 .4-.4.2-.6.6-.6 1.1h2.8c0-.5-.1-.8-.3-1.1-.2-.3-.5-.4-1-.4Zm1.2-3v.1l-.3.6-.6.5-.5.4h-.5a16.2 16.2 0 0 0 .6-1.1l.3-.6Zm.1 0"/>  <path id="E" d="M7.2-3.6c0 .9-.2 1.6-.5 2.3-.4.6-.9 1-1.7 1.2l1.8 1.8H5.5L4.2.1H4C3.1 0 2.5-.1 2-.4a2.7 2.7 0 0 1-1-1.2 4.9 4.9 0 0 1-.4-2c0-.7.1-1.4.4-1.9.2-.6.6-1 1-1.3.7-.2 1.3-.5 2-.5.5 0 1.1.3 1.6.5s1 .7 1.2 1.3c.3.5.4 1.2.4 2Zm-5.6 0c0 1 .1 1.6.4 2.1.5.6 1.1.8 2 .8s1.3-.2 1.7-.8c.3-.5.5-1.2.5-2 .1-1.1 0-1.8-.4-2.3-.5-.4-1.1-.7-1.9-.7s-1.4.3-1.8.8c-.4.5-.5 1.2-.5 2.1Zm0 0"/>  <path id="D" d="M2.6-.6H3l.4-.2v.7L3 0H1.7l-.6-.5-.1-1v-3.3H.2V-5l.7-.5.4-1h.5v1h1.5v.8H1.8v3.1c0 .3 0 .6.2.7l.6.3Zm0 0"/>  <path id="C" d="M3 0c-.5 0-.9 0-1.3-.1-.3-.3-.6-.6-.7-.9-.4-.5-.5-1-.5-1.7 0-.6.2-1.1.5-1.5 0-.6.4-.8.8-1.1.2-.1.8-.2 1.2-.2l.8.1.7.2-.3.8-.6-.2H3c-1-.1-1.5.6-1.5 1.9 0 .7 0 1 .3 1.4.3.5.7.6 1.2.6h.8l.6-.3v.8a2 2 0 0 1-.6.2H3Zm0 0"/>  <path id="B" d="M1.7 0H.8v-7.6h1Zm0 0"/>  <path id="A" d="M3.4-5.5c.7 0 1.2.3 1.6.7.4.5.6 1.2.6 2.1 0 1-.2 1.7-.6 2-.4.7-1 .9-1.6.9-.4-.2-.8-.2-1-.3l-.7-.6v3.1H.8v-7.8h.8v.8h.2c.2-.4.3-.5.6-.6.2-.2.6-.3 1-.3Zm-.2.8c-.5 0-.9.1-1.1.5-.2.2-.4.7-.4 1.2v.3c0 .7.1 1.2.3 1.5.3.4.7.6 1.3.6.3 0 .6-.1.7-.4l.5-.6.2-1.1c0-.6-.1-1.1-.4-1.5-.2-.3-.6-.5-1-.5Zm0 0"/>  <path id="z" d="m5.5 0-1-2.2H1.9L.9 0H0l2.8-7.2h.8L6.4 0ZM4.3-3l-.8-2.2v-.3l-.3-.4v-.3l-.2.6a8 8 0 0 1 0 .4L2-3Zm0 0"/>  <path id="y" d="M2.8 0C2 0 1.4 0 1-.5.7-1 .5-1.8.5-2.6c0-1.1.3-1.8.7-2.2.4-.5.8-.7 1.6-.7.4 0 .7.1 1 .3a2 2 0 0 1 .6.5v-2.8h.9V0h-.7l-.1-.7a2 2 0 0 1-.8.6l-.9.1Zm0-.5c.8-.1 1.1-.3 1.4-.6.1-.3.2-.8.2-1.4v-.2c0-.6 0-1.1-.3-1.5-.2-.4-.6-.5-1.2-.5-.5 0-.9.2-1 .5-.4.4-.5 1-.5 1.5.1.7.1 1.2.4 1.5.3.4.6.6 1 .6Zm.1-.1"/>  <path id="x" d="M5.3-5.4V0h-.7l-.1-.7c-.3.3-.5.5-.9.6l-.9.2C2.1 0 1.6-.1 1.3-.4 1-.7.8-1.2.8-1.8v-3.6h.9v3.5c0 .8.3 1.3 1.2 1.3.6 0 1-.2 1.1-.5.3-.4.5-.9.5-1.5v-2.8Zm0 0"/>  <path id="w" d="M4-6.5c-.7 0-1.3.3-1.8.8-.4.5-.6 1.2-.6 2.1 0 1 .2 1.6.6 2.1.4.6 1 .8 1.8.8h1l.6-.3v.8L5 0H4c-.8 0-1.4 0-2-.2a2.8 2.8 0 0 1-1-1.4c-.3-.6-.4-1.2-.4-2 0-.7.1-1.3.4-1.9a3 3 0 0 1 1.2-1.3c.5-.2 1.1-.4 1.8-.4.8 0 1.5.1 2 .4l-.3.7-.8-.2a3 3 0 0 0-.9-.2Zm0 0"/>  <path id="v" d="m2.8-5.5.8.3a2 2 0 0 1 .8.4l.3-.6h.6V.1c0 .8-.2 1.3-.6 1.7-.4.4-1 .6-1.8.6S1.5 2.3 1 2.1v-.9c.6.4 1.3.6 2 .6.5-.1.9-.3 1-.5.3-.3.4-.7.4-1.1v-.9c-.3.5-.9.8-1.6.8C2 0 1.5-.1 1-.6c-.3-.5-.5-1.2-.5-2 0-1.1.2-1.7.6-2.2.4-.4 1-.7 1.6-.7Zm0 .8c-.3 0-.6.2-.9.5-.3.4-.4.9-.4 1.5 0 .7 0 1.2.3 1.7.3.2.6.4 1 .4.7 0 1.1-.2 1.4-.4.1-.3.2-.8.2-1.5v-.2c0-.7 0-1.2-.3-1.5-.3-.4-.7-.5-1.2-.5Zm.1 0"/>  <path id="u" d="M3.4-5.5c.7 0 1.2.2 1.6.5.2.3.4.8.4 1.5V0h-.9v-3.4c0-.9-.4-1.3-1.2-1.3-.6 0-1 .1-1.2.5-.3.2-.4.8-.4 1.4V0H.8v-5.4h.8v.8h.2c.2-.4.3-.5.7-.7l1-.2Zm0 0"/>  <path id="t" d="m5.2 0-.9-3A18 18 0 0 1 4-4.5 34.3 34.3 0 0 1 3.5-3l-1 3h-.9L.2-5.4h.9l.6 2.9A40 40 0 0 1 2-1l.3-.3.1-.5a6 6 0 0 1 .1-.5l1-3h1l.7 2.9.3.8.2.6.3-.6v-1l.8-2.7h1L6.3 0Zm0 0"/>  <path id="s" d="M2.9-5.5c.6 0 1.1.2 1.4.5.3.3.5.7.5 1.3V0h-.6L4-.8c-.3.3-.5.6-.8.8h-1c-.5 0-1 0-1.3-.3C.6-.5.5-.9.5-1.5c0-.5.2-1 .5-1.2.5-.3 1-.5 2-.5h.8v-.3c.2-.5.2-.8-.2-1l-.8-.2H2l-.7.5L1-5l1-.3.9-.2Zm1 2.9h-.8c-.6 0-1 .1-1.4.3-.1.3-.3.5-.3.8 0 .3 0 .5.2.7l.7.2c.5 0 .9-.1 1.2-.4.3-.2.4-.6.4-1Zm.1 0"/>  <path id="r" d="M1.7-7.6v3c.3-.4.4-.5.7-.6.3-.2.7-.3 1-.3.7 0 1.2.2 1.6.5.2.3.4.8.4 1.5V0h-.9v-3.4c0-.9-.4-1.3-1.2-1.3-.6 0-1 .2-1.2.5-.3.3-.4.8-.4 1.4V0H.8v-7.6Zm0 0"/>  <path id="q" d="M5-2c0 .8-.2 1.3-.7 1.7-.3.2-1 .3-1.8.3H1.4a3 3 0 0 1-.9-.2v-.9a5 5 0 0 0 1 .3l.9.1c.6 0 1.1 0 1.3-.3.3-.2.4-.5.4-.8L4-2.4 3.5-3a7.2 7.2 0 0 0-1-.3c-.8-.2-1.2-.5-1.5-.8C.7-4.4.6-5 .6-5.4s0-.7.3-1a2 2 0 0 1 .8-.6 3 3 0 0 1 1.2-.2h1a5 5 0 0 1 1.1.5l-.5.6a4.5 4.5 0 0 0-.7-.2l-1-.2c-.3 0-.6.1-.9.3-.3.2-.4.5-.4.8 0 .2 0 .4.2.6 0 .2.2.3.3.4l1.1.4.9.5.8.7.2.8Zm0 0"/>  <path id="p" d="M3-5.5c.3 0 .7.1 1 .3a2 2 0 0 1 1 .9v1.8H1.5c0 .5.1 1 .4 1.4.3.3.7.4 1.3.4H4l.9-.3v.8L4 0a5 5 0 0 1-1 0 3 3 0 0 1-1.2-.1 2.2 2.2 0 0 1-1-1.1c0-.2-.2-.8-.2-1.3-.1-.7 0-1.2.2-1.6.2-.5.5-.9.9-1 .3-.2.7-.4 1.2-.4Zm0 .8c-.6 0-.9.1-1 .4-.4.2-.6.6-.6 1.1h2.8c0-.5-.1-.8-.3-1.1-.2-.3-.5-.4-1-.4Zm0 0"/>  <path id="o" d="M3-5.5c.3 0 .7.1 1 .3a2 2 0 0 1 1 .9v1.8H1.5c0 .5.1 1 .4 1.4.3.3.7.4 1.3.4H4l.9-.3v.8L4 0a5 5 0 0 1-1 0 3 3 0 0 1-1.2-.1 2.2 2.2 0 0 1-1-1.1c0-.2-.2-.8-.2-1.3-.1-.7 0-1.2.2-1.6.2-.5.5-.9.9-1 .3-.2.7-.4 1.2-.4Zm0 .8c-.6 0-.9.1-1 .4-.4.2-.6.6-.6 1.1h2.8c0-.5-.1-.8-.3-1.1-.2-.3-.5-.4-1-.4Zm-.5-3c.1.2.3.4.4.5l.3.6.3.4v.2H3a6.3 6.3 0 0 1-.6-.5L2-7.1a2.9 2.9 0 0 1-.5-.5Zm.1 0"/>  <path id="n" d="M2 0 0-5.4h1l1 3.2.4.5v.5l.1.4.2-.4a16 16 0 0 1 .3-1l1.1-3.2h1L3 0Zm0 0"/>  <path id="m" d="M3-7.1c.7 0 1.4.1 2 .5.2.3.4.8.4 1.5.1.4.1.7-.1 1l-.5.5-.7.4 2 3.2H5L3.2-3H1.9v3h-1v-7.1Zm-.2.7h-.9v2.7h1c.6 0 1.1-.1 1.3-.3.3-.3.4-.6.4-1 0-.6-.1-1-.4-1-.3-.4-.7-.5-1.3-.5Zm.1 0"/>  <path id="l" d="M.4-2.3v-.8h2.4v.8Zm0 0"/>  <path id="k" d="M4.3-1.5c0 .5-.2 1-.5 1.2-.4.3-1 .4-1.6.4l-1-.1-.7-.2V-1l.8.3h1.8l.4-.7-.1-.4L3-2a7.5 7.5 0 0 0-.8-.4 7.5 7.5 0 0 1-1-.4l-.4-.5L.5-4c0-.5.2-.8.6-1 .3-.4.8-.6 1.4-.6l1 .2a4 4 0 0 1 .6.4l-.1.6-.8-.2-.7-.1-.9.1c-.2.2-.3.3-.3.6s0 .2.2.3l.4.3.8.3.9.4.4.5c.3.2.3.4.3.7Zm0 0"/>  <path id="j" d="M1.3-7.4c.1 0 .3 0 .4.2l.1.4-.1.4-.4.2-.4-.3-.1-.3.1-.4.4-.2Zm.4 2V0H.8v-5.4Zm0 0"/>  <path id="i" d="M5.5-2.7c0 .9-.2 1.7-.7 2-.4.7-1 .9-1.8.9-.5-.2-.9-.2-1.3-.4-.3-.2-.6-.6-.7-1C.6-1.6.5-2 .5-2.7c0-.9.3-1.6.7-2 .5-.5 1-.8 1.8-.8.5 0 1 .2 1.3.5.4 0 .7.4.9.9.2.2.3.7.3 1.3Zm-4 0c0 .7 0 1.2.3 1.5.3.4.7.6 1.2.6.6 0 1-.2 1.2-.6.3-.3.4-.8.4-1.5s-.1-1.1-.4-1.5c-.2-.3-.6-.5-1.2-.5-.5 0-1 .2-1.2.5-.2.4-.3.9-.3 1.5Zm0 0"/>  <path id="h" d="M3.3-5.5H4l-.1 1.1-.3-.3h-.3c-.3 0-.5 0-.8.2l-.5.7-.3 1V0H.8v-5.4h.8v1h.2l.6-.6c.3-.3.6-.5 1-.5Zm0 0"/>  <path id="g" d="M3.2 0h-.9v-6.3H.1v-.8h5.4v.8H3.2Zm0 0"/>  <use xlink:href="#reuse-0"/>  <path id="f" d="M4 .1a3.6 3.6 0 0 1-1.9-.3 2.6 2.6 0 0 1-.8-1.2C.8-2 .6-2.6.6-3.4c.1-.9.4-1.6.5-2.1.3-.6.7-1 1.2-1.2.5-.3 1-.4 1.7-.4L5-7c.3 0 .6.2.8.3l-.3 1a5 5 0 0 0-.8-.3A3 3 0 0 0 4-6c-1.4 0-2.1.7-2.1 2.4 0 1 .1 1.6.5 2.1.3.4.8.5 1.5.5h1l.8-.4v1.1a3 3 0 0 1-.8.3L4 .1Zm0 0"/>  <path id="e" d="M3.8-7c.6 0 1.1 0 1.5.2.5.4.8.7 1 1.1.3.7.4 1.2.4 1.7v.7H1.9c0 .8.1 1.4.6 1.8.4.5 1 .7 1.6.7.5 0 .9 0 1.2-.2l1-.3v1a5.2 5.2 0 0 1-2.1.3 3.8 3.8 0 0 1-1.9-.3 2.8 2.8 0 0 1-1.2-1.2C1-2 .7-2.7.7-3.5c0-.6.1-1.2.4-1.8.3-.6.6-1.1.9-1.4A3 3 0 0 1 3.9-7Zm0 .7c-.6.1-1 .3-1.3.7-.3.3-.5.8-.6 1.4h3.6c0-.6-.2-1-.5-1.4-.2-.4-.6-.6-1.2-.6Zm0 .1"/>  <path id="d" d="M2.3-9.9v3.3l-.2.6c.4-.3.7-.6 1-.8.3-.2.8-.2 1.3-.2.9 0 1.6.2 2 1 .6.3 1 1.2 1 2.4-.1 1.3-.4 2.2-.9 2.8-.5.6-1.2 1-2 1C3.8.1 3.4 0 3-.3a2.4 2.4 0 0 1-.8-.6l-.3.9h-.8v-9.9Zm2 3.9c-.9-.1-1.3 0-1.7.5-.2.4-.4 1-.4 2 .1.9.3 1.5.6 2s.7.7 1.4.7 1.1-.2 1.4-.7c.4-.5.5-1.1.5-2-.1-1.8-.6-2.6-1.9-2.6Zm-.1-.1"/>  <path id="c" d="M3.8-7c.6 0 1.1 0 1.5.2.5.4.8.7 1 1.1.3.7.4 1.2.4 1.7v.7H1.9c0 .8.1 1.4.6 1.8.4.5 1 .7 1.6.7.5 0 .9 0 1.2-.2l1-.3v1a5.2 5.2 0 0 1-2.1.3 3.8 3.8 0 0 1-1.9-.3 2.8 2.8 0 0 1-1.2-1.2C1-2 .7-2.7.7-3.5c0-.6.1-1.2.4-1.8.3-.6.6-1.1.9-1.4A3 3 0 0 1 3.9-7Zm0 .7c-.6.1-1 .3-1.3.7-.3.3-.5.8-.6 1.4h3.6c0-.6-.2-1-.5-1.4-.2-.4-.6-.6-1.2-.6ZM5.5-10v.2l-.4.6a20 20 0 0 1-.7.7 6 6 0 0 1-.7.6h-.8V-8l.4-.6a15.5 15.5 0 0 0 .9-1.4Zm0 0"/>  <path id="b" d="M7-7v7H6l-.2-1c-.3.5-.6.8-1 1H3.6c-.9.1-1.6 0-2-.5-.3-.4-.6-1-.6-2V-7h1.2v4.5c0 1.1.5 1.7 1.5 1.7.8 0 1.3-.2 1.6-.7.3-.4.5-1 .5-1.8V-7Zm0 0"/>  <path id="a" d="M9.4-4.7c0 1.2-.4 2.1-.7 3a3.5 3.5 0 0 1-2 1.6l2.2 2.3H7.2L5.4.2h-.3C4 .1 3.3-.2 2.7-.6A3.6 3.6 0 0 1 1.3-2a6.3 6.3 0 0 1-.5-2.7c0-1 .2-1.7.5-2.5a3.6 3.6 0 0 1 1.4-1.6c.6-.4 1.3-.6 2.3-.6s1.8.2 2.4.6c.7.4 1.2 1 1.6 1.6a6 6 0 0 1 .4 2.5ZM2-4.7c0 1.2.3 2.1.8 2.8.5.7 1.2 1 2.2 1 1 0 1.9-.3 2.4-1S8-3.5 8-4.7c.1-1.1 0-2-.6-2.7-.5-.6-1.4-1-2.4-1s-1.7.4-2.2 1c-.5.7-.8 1.6-.8 2.7Zm0 0"/>  <path d="M1.2 0v-9.3h5.4V0ZM2-.7h3.9v-8H2Zm-.1 0"/> </defs> <image xlink:href="svg/9/107_7.jpg" width="497" height="279"/> <path d="M390 63.4c0 1.2-.3 2.1-.7 3a3.5 3.5 0 0 1-2 1.6l2.2 2.3h-1.7l-1.8-2.1h-.3c-1 0-1.8-.2-2.4-.6a3.6 3.6 0 0 1-1.4-1.7 6.3 6.3 0 0 1-.5-2.5c0-1 .2-1.8.5-2.5a3.6 3.6 0 0 1 1.4-1.7c.6-.4 1.4-.6 2.4-.6s1.7.2 2.3.6c.7.4 1.2 1 1.5 1.8a6 6 0 0 1 .5 2.4Zm-7.4 0c0 1.2.4 2.1.8 2.8.5.6 1.2 1 2.3 1 1 0 1.8-.4 2.3-1 .5-.7.7-1.6.7-2.8 0-1.1-.2-2-.7-2.7-.5-.7-1.3-1-2.3-1-1 0-1.8.3-2.3 1-.5.6-.8 1.5-.8 2.7Zm15.1-2.3v7h-1V67c-.5.5-.7.8-1.2 1-.3.1-.7.2-1.2.2-.8 0-1.5-.2-1.9-.6-.4-.4-.6-1-.6-2v-4.4h1.1v4.4c.1 1.1.6 1.7 1.6 1.7.8 0 1.3-.3 1.5-.7.4-.4.5-1 .5-1.9v-3.6Zm4.9-.1c.6 0 1 0 1.4.4.6.2 1 .6 1.1 1 .2.6.4 1.1.4 1.8v.6h-4.8c0 .8.2 1.4.6 1.8.4.4 1 .6 1.6.6l1.2-.1c.3 0 .7-.2.9-.4v1a5.2 5.2 0 0 1-2 .5 3.8 3.8 0 0 1-2-.4 2.8 2.8 0 0 1-1.1-1.2c-.3-.5-.4-1.2-.4-2 0-.6.1-1.4.5-2 0-.4.5-.8.9-1.1a3 3 0 0 1 1.8-.5Zm0 1c-.6 0-1 0-1.3.3-.3.5-.5 1-.6 1.7h3.6c0-.7-.3-1.1-.5-1.5-.2-.5-.6-.6-1.2-.6Zm1.7-4v.2l-.3.8a20 20 0 0 1-1 .6 6 6 0 0 1-.5.6h-.8V60l.4-.5a15.5 15.5 0 0 0 .9-1.5Zm4.1.2V62c.2-.3.4-.5.8-.7.3-.3.8-.3 1.3-.3.9 0 1.6.3 2.1.9.5.6.8 1.5.8 2.7 0 1.2-.3 2-.8 2.7-.5.6-1.2.9-2 .9-.6 0-1.1-.1-1.5-.3a2.4 2.4 0 0 1-.7-.7h-.1l-.3.8h-.8v-9.8Zm2 3.7c-.9.1-1.4.2-1.7.7-.2.4-.3 1-.3 2 0 .9.1 1.5.4 2 .2.4.8.7 1.6.7.6 0 1-.3 1.3-.7.4-.6.5-1.2.5-2 0-1.8-.6-2.7-1.9-2.7ZM418 61c.4 0 1 0 1.3.4.7.2.9.6 1.1 1 .3.6.4 1.1.4 1.8v.6H416c0 .8.2 1.4.6 1.8.4.4 1 .6 1.6.6l1.2-.1c.4 0 .7-.2 1-.4v1a5.2 5.2 0 0 1-2.1.5 3.8 3.8 0 0 1-1.9-.4 2.8 2.8 0 0 1-1.1-1.2c-.3-.5-.5-1.2-.5-2 0-.6.2-1.4.4-2 .3-.4.6-.8 1-1.1a3 3 0 0 1 1.8-.5Zm-.2 1c-.4 0-.9 0-1.2.3-.3.5-.5 1-.6 1.7h3.6c0-.7-.2-1.1-.4-1.5-.3-.5-.7-.6-1.3-.6Zm7.6 6.2a3.6 3.6 0 0 1-1.7-.4 2.6 2.6 0 0 1-1.1-1.1c-.3-.7-.4-1.2-.4-2 0-1.1.1-1.7.4-2.3.3-.4.7-.8 1.2-1 .4-.4 1-.4 1.6-.4h1l.9.5-.4.8a5 5 0 0 0-.7-.2 3 3 0 0 0-.8-.1c-1.4 0-2 .9-2 2.6-.1.9 0 1.5.3 2 .5.4 1 .5 1.6.5h1c.3 0 .7-.2.8-.3v1a3 3 0 0 1-.7.3l-1 .1Zm0 0" style="fill:none;stroke-width:3;stroke-linecap:butt;stroke-linejoin:round;stroke:#fff;stroke-opacity:.6;stroke-miterlimit:10" transform=" rotate(  340 406.102 65.0704) "/> <g style="fill:#222;fill-opacity:1" transform=" rotate(  340 406.102 65.0704) ">  <use xlink:href="#a" x="380.6" y="68.1"/>  <use xlink:href="#b" x="390.8" y="68.1"/>  <use xlink:href="#c" x="398.8" y="68.1"/>  <use xlink:href="#d" x="406.1" y="68.1"/>  <use xlink:href="#e" x="414.1" y="68.1"/>  <use xlink:href="#f" x="421.4" y="68.1"/> </g> <path d="M114.2 208.5h-.9V202h-2.2v-.7h5.3v.8h-2.2Zm5.2-5.5h.6v1h-.5l-.2-.3c-.2.1-.5.1-.7.3-.3.2-.6.4-.6.7-.2.2-.2.5-.2.9v2.9h-1V203h.9v1l.7-.7c.3-.2.6-.3 1-.3Zm6.1 2.8c0 .9-.2 1.5-.7 2-.4.5-1 .7-1.8.7-.5 0-1 0-1.3-.3-.4-.2-.6-.5-.9-1-.2-.2-.3-.7-.3-1.3 0-1.1.2-1.7.7-2.1.4-.7 1-.8 1.8-.8.5 0 1 .1 1.3.3.4.2.6.7.9 1 .2.4.3.9.3 1.5Zm-4 0c-.1.6-.1 1.1.2 1.5.4.3.7.5 1.3.5.5 0 1-.2 1.2-.5.2-.4.4-.9.4-1.5 0-.8-.2-1.2-.4-1.5-.3-.4-.7-.6-1.2-.6-.6 0-1 .3-1.2.6-.2.3-.4.7-.4 1.5ZM127.3 201l.4.3.1.3-.1.5-.4.1-.3-.1-.2-.5.1-.4.4-.1Zm.5 2v5.6h-1V203Zm5.2 4c0 .5-.3.9-.7 1.2-.3.2-.9.3-1.5.3h-1l-.7-.3v-.8l.9.3.9.1c.3 0 .6 0 .8-.2.3-.1.3-.3.3-.6v-.3l-.4-.3a7.5 7.5 0 0 0-.8-.4 7.5 7.5 0 0 1-1-.4l-.4-.5-.3-.7c0-.4.2-.8.6-1 .3-.4.8-.4 1.3-.4h1.1a4 4 0 0 1 .6.5l-.2.5-.7-.2h-1.6l-.2.7s0 .1.1.2l.4.3.8.4c.4.1.7.2.9.4l.5.5c.3.2.3.4.3.7Zm.8-.8v-.8h2.4v.8Zm5.8-4.9c.8 0 1.4.2 2 .5.2.4.5.9.5 1.5.1.4-.1.7-.2 1l-.5.6c-.2.2-.4.3-.7.3l2 3.4h-1l-1.9-3.1h-1.3v3h-1v-7.2Zm-.1.8h-1v2.7h1c.7 0 1.1-.2 1.4-.5.2-.1.3-.5.3-.9 0-.5-.1-.8-.4-1-.3-.2-.7-.4-1.3-.4Zm4.6-1.1.4.3.1.3-.1.5-.5.1-.2-.1-.2-.5c0-.1 0-.3.2-.4l.2-.1Zm.5 2v5.6h-1V203Zm2.8 5.5-2-5.5h1l1 3.3.4.4v.6l.2.4.2-.4a16 16 0 0 1 .2-1l1.2-3.3h.9l-2 5.5Zm4.4-7.5.2.3c.3 0 .3.2.3.3 0 .2 0 .4-.2.5l-.3.1-.4-.1-.1-.5.1-.4.4-.1Zm.4 2v5.6h-.9V203Zm3.8 0c.5 0 .8.1 1.2.3a2 2 0 0 1 .7.8c.2.4.3.9.3 1.3v.6h-3.7c0 .6.2 1 .5 1.3.3.3.7.5 1.2.5l1-.1.8-.3v.8l-.8.3a5 5 0 0 1-1 0 3 3 0 0 1-1.3-.3 2.2 2.2 0 0 1-1-.9c-.2-.3-.3-.9-.3-1.5s.1-1 .4-1.5l.7-1c.4-.2.8-.3 1.3-.3Zm0 .7c-.4 0-.8.3-1 .4-.3.3-.4.7-.4 1.2h2.7c0-.5-.1-1-.3-1.3-.2 0-.6-.3-1-.3Zm-.3-2.9.2.5.4.5.3.5h-.6a6.3 6.3 0 0 1-.5-.3l-.5-.6a2.9 2.9 0 0 1-.4-.5v-.1Zm6.3 2.2h.8l-.2 1h-.3l-.3-.3c-.3.1-.5.1-.8.3l-.5.7c-.2.2-.3.5-.3.9v2.9h-.8V203h.7v1h.2l.6-.7c.3-.2.6-.3.9-.3Zm3.6 0c.4 0 .8.1 1.1.3a2 2 0 0 1 .8.8c.2.4.3.9.3 1.3v.6H164c.1.6.3 1 .6 1.3.3.3.7.5 1.2.5l1-.1c.2 0 .4-.1.6-.3v.8l-.7.3a5 5 0 0 1-1 0 3 3 0 0 1-1.2-.3 2.2 2.2 0 0 1-1-.9c-.2-.3-.3-.9-.3-1.5s0-1 .3-1.5l.8-1c.4-.2.8-.3 1.3-.3Zm0 .7c-.6 0-.8.3-1 .4-.3.3-.4.7-.6 1.2h2.8c0-.5 0-1-.3-1.3-.2 0-.5-.3-1-.3Zm7 3.3c0 .5-.2.9-.5 1.2-.4.2-1.1.3-1.6.3h-1l-.7-.3v-.8l.8.3.9.1c.4 0 .8 0 1-.2.2-.1.3-.3.3-.6l-.1-.3-.4-.3a7.5 7.5 0 0 0-.8-.4 7.5 7.5 0 0 1-1-.4l-.5-.5-.2-.7c0-.4.2-.8.5-1 .4-.4 1-.4 1.5-.4h1a4 4 0 0 1 .6.5l-.2.5-.7-.2h-1.6l-.3.7s0 .1.2.2l.4.3.8.4 1 .4.4.5c.2.2.2.4.2.7Zm0 0" style="fill:none;stroke-width:3;stroke-linecap:butt;stroke-linejoin:round;stroke:#fff;stroke-opacity:.6;stroke-miterlimit:10" transform=" rotate(  340 142.164 205.454) "/> <g style="fill:#222;fill-opacity:1" transform=" rotate(  340 142.164 205.454) ">  <use xlink:href="#g" x="111" y="208.5"/>  <use xlink:href="#h" x="116" y="208.5"/>  <use xlink:href="#i" x="120" y="208.5"/>  <use xlink:href="#j" x="126" y="208.5"/>  <use xlink:href="#k" x="128.6" y="208.5"/>  <use xlink:href="#l" x="133.4" y="208.5"/>  <use xlink:href="#m" x="136.6" y="208.5"/>  <use xlink:href="#j" x="142.8" y="208.5"/>  <use xlink:href="#n" x="145.4" y="208.5"/>  <use xlink:href="#j" x="150.5" y="208.5"/>  <use xlink:href="#o" x="153.1" y="208.5"/>  <use xlink:href="#h" x="158.7" y="208.5"/>  <use xlink:href="#p" x="162.6" y="208.5"/>  <use xlink:href="#k" x="168.3" y="208.5"/> </g> <path d="M82 147.2c0 .6 0 1.1-.5 1.5-.6.3-1.1.5-2 .5l-1-.2a3 3 0 0 1-1.1-.2v-.8a5 5 0 0 0 1.2.3h.9c.7.1 1.1.1 1.4-.1.1-.3.3-.6.3-.9 0-.3 0-.5-.2-.6 0-.2-.2-.3-.5-.5a7.2 7.2 0 0 0-1-.4c-.6-.2-1-.5-1.4-.8-.3-.3-.4-.8-.4-1.3 0-.4 0-.7.3-1a2 2 0 0 1 .8-.7 3 3 0 0 1 1.1-.2c.4 0 .8 0 1.1.2a5 5 0 0 1 1 .2l-.5.8a4.5 4.5 0 0 0-.7-.3H80c-.5-.1-.9-.1-1 .1-.3.3-.4.6-.4.9l.1.6.5.4 1 .4.9.5c.4.2.6.4.7.7.2.2.3.5.3.9Zm2.3-5.7v3l.7-.7 1-.2c.6 0 1 .2 1.4.5.4.3.6.8.6 1.5v3.5h-.9v-3.5c-.1-.8-.4-1.2-1.2-1.2-.6 0-1 .1-1.3.5-.2.3-.3.8-.3 1.4v2.8h-.9v-7.6Zm7.3 2.1c.7 0 1.2.2 1.5.5.3.2.4.7.4 1.3v3.7H93l-.3-.8-.8.7-.9.2c-.6 0-1.1-.2-1.3-.4-.4-.3-.5-.7-.5-1.2s.2-1 .6-1.2c.4-.4 1-.5 2-.5h.9v-.5c0-.3-.1-.6-.3-.8-.2-.2-.5-.3-.8-.3-.3 0-.6 0-.8.2-.3 0-.5.2-.8.3l-.2-.8.8-.2 1-.2Zm1 2.9H92c-.8 0-1.3.1-1.5.3-.3.2-.5.5-.5.8.1.3.2.5.4.7l.6.2c.5 0 .9-.2 1.2-.5.3-.2.5-.5.5-1.1Zm7 2.5-1-3a18 18 0 0 1-.2-1.3 34.3 34.3 0 0 1-.6 1.4l-.9 2.9H96l-1.5-5.3h.9l.6 2.9a40 40 0 0 1 .5 1.6v-.4l.3-.6a6 6 0 0 1 .1-.5l.9-3h1l.9 3 .2.8.1.7.3-.7.1-1 .8-2.7h.8l-1.4 5.3Zm3.9-7.3.4.1.1.5v.4l-.5.1-.4-.1-.1-.4v-.5h.5Zm.4 2v5.4h-.9v-5.4Zm4.3-.1c.8 0 1.1.2 1.5.5.3.3.5.8.5 1.5v3.5h-1v-3.5c.1-.8-.2-1.2-1-1.2-.7 0-1.2.1-1.4.5-.2.3-.3.8-.3 1.4v2.8h-.9v-5.4h.7l.2.8.7-.7 1-.2Zm4.1-1.9.3.1.2.5c0 .2 0 .3-.2.4l-.3.1-.4-.1-.2-.4c0-.3 0-.4.3-.5h.3Zm.4 2v5.4h-.9v-5.4Zm3.6-.1 1 .2a2 2 0 0 1 .7.6l.1-.7h.7v5.5c0 .7-.2 1.3-.5 1.7-.5.4-1 .6-1.8.6s-1.5-.1-2-.5v-.7c.5.3 1.2.5 2 .5.5 0 .8-.2 1-.5.4-.2.5-.6.5-1v-1c-.4.6-1 .9-1.7.9s-1.2-.3-1.6-.7c-.4-.5-.7-1.2-.7-2 0-1.1.3-1.7.7-2.2.3-.4 1-.7 1.6-.7Zm.1.8c-.4 0-.8.1-1 .5-.4.3-.4.9-.4 1.5 0 .7.1 1.2.4 1.6.2.3.6.5 1 .5.6 0 1-.2 1.2-.5.4-.3.4-.7.4-1.4v-.2c0-.7-.1-1.2-.4-1.6-.2-.3-.6-.4-1.2-.4Zm6.2-.8c.6 0 1.1.2 1.4.5.3.2.5.7.5 1.3v3.7h-.6l-.2-.8-.9.7-.9.2c-.5 0-1-.2-1.3-.4-.3-.3-.5-.7-.5-1.2s.3-1 .7-1.2c.4-.4 1-.5 2-.5h.7v-.5c.1-.3.1-.6-.2-.8-.2-.2-.3-.3-.8-.3-.3 0-.5 0-.8.2l-.7.3-.3-.8.9-.2 1-.2Zm1 2.9h-.8c-.6 0-1.1.1-1.4.3-.2.2-.3.5-.3.8-.1.3-.1.5.2.7l.7.2c.5 0 1-.2 1.2-.5.3-.2.4-.5.4-1.1Zm5.1-2.9c.7 0 1.3.2 1.5.5.3.3.5.8.5 1.5v3.5h-.9v-3.5c0-.8-.4-1.2-1.2-1.2-.6 0-1 .1-1.2.5-.4.3-.4.8-.4 1.4v2.8h-.9v-5.4h.9v.8l.8-.7 1-.2Zm0 0" style="fill:none;stroke-width:3;stroke-linecap:butt;stroke-linejoin:round;stroke:#fff;stroke-opacity:.6;stroke-miterlimit:10" transform=" rotate(  340 103.93 146.08) "/> <g style="fill:#222;fill-opacity:1" transform=" rotate(  340 103.93 146.08) ">  <use xlink:href="#q" x="77.1" y="149.1"/>  <use xlink:href="#r" x="82.6" y="149.1"/>  <use xlink:href="#s" x="88.7" y="149.1"/>  <use xlink:href="#t" x="94.3" y="149.1"/>  <use xlink:href="#j" x="102.2" y="149.1"/>  <use xlink:href="#u" x="104.8" y="149.1"/>  <use xlink:href="#j" x="111" y="149.1"/>  <use xlink:href="#v" x="113.5" y="149.1"/>  <use xlink:href="#s" x="119.7" y="149.1"/>  <use xlink:href="#u" x="125.3" y="149.1"/> </g> <path d="M427.4 120.1c-.8 0-1.4.3-1.8.9-.4.4-.6 1.1-.6 2 0 1 .2 1.6.6 2.1.4.5 1 .9 1.8.9h.9l.8-.5v.9l-.8.2h-1c-.7.1-1.4.1-1.8-.3a2.8 2.8 0 0 1-1.1-1.3c-.4-.6-.4-1.2-.4-2 0-.7.1-1.3.4-1.9a3 3 0 0 1 1.2-1.3c.4-.3 1.1-.4 1.8-.4.8 0 1.4 0 2 .4l-.4.7-.7-.2a3 3 0 0 0-.9-.3Zm4-1.1v3l.7-.6c.3-.2.7-.4 1-.4.7.1 1.2.3 1.5.6.3.3.4.8.4 1.5v3.5h-.8V123c0-.7-.4-1-1.2-1-.6-.1-1 0-1.2.4-.2.3-.4.8-.4 1.4v2.8h-.8V119Zm7.4 2.1c.6 0 1.1.2 1.4.5.3.3.5.7.5 1.3v3.7h-.7v-.8l-1 .7-1 .2c-.5 0-1-.1-1.3-.4-.2-.3-.4-.7-.4-1.2s.3-1 .7-1.2c.4-.3 1-.5 2-.5h.7v-.4c.1-.4.1-.7-.2-.9-.2-.1-.4-.1-.8-.1h-.7l-.8.4-.3-.8.9-.3 1-.3Zm1 2.9h-.8c-.6 0-1 0-1.4.3-.2.2-.3.5-.3.8 0 .3 0 .5.2.7l.7.2c.5 0 .9-.1 1.2-.4.3-.2.4-.6.4-1.2Zm7-2.8v5.4h-.7l-.1-.7c-.3.3-.6.5-.9.6l-.9.2c-.6 0-1.1-.2-1.4-.5-.3-.2-.5-.8-.5-1.5v-3.5h.9v3.5c0 .8.4 1.3 1.2 1.3.6 0 1-.2 1.2-.5.2-.5.4-.9.4-1.5v-2.8Zm3.6 5.5c-.6 0-1.2-.2-1.6-.7-.4-.5-.6-1.2-.6-2 0-1 .2-1.8.6-2.3.4-.3 1-.6 1.6-.6.6 0 .8.1 1 .3a2 2 0 0 1 .7.5V119h.9v7.6h-.7l-.3-.7a2 2 0 0 1-.5.5c-.3.2-.7.3-1 .3Zm.2-.7c.4 0 1-.2 1.2-.5.2-.3.2-.8.2-1.5v-.1c.1-.6 0-1.1-.2-1.5-.2-.4-.8-.5-1.2-.5s-.9.1-1.1.5c-.3.4-.5.9-.5 1.6.1.6.2 1.1.5 1.4.2.4.5.6 1 .6Zm4.5-6.8c.2 0 .3 0 .4.2l.1.4-.1.4-.5.1-.2-.1-.2-.4c0-.2 0-.4.2-.4l.2-.2Zm.5 2v5.4h-1v-5.4Zm3.7-.1c.5 0 .9.1 1.2.3a2 2 0 0 1 .8.9l.2 1.2v.6H458c-.1.6 0 .9.3 1.4.3.3.8.4 1.3.4h.9l.8-.4v.8c-.3.2-.5.3-.8.3a5 5 0 0 1-1 0 3 3 0 0 1-1.3-.1 2.2 2.2 0 0 1-1-1.1l-.2-1.4c0-.6 0-1 .3-1.6.1-.4.4-.7.7-1 .4-.1.9-.2 1.3-.2Zm0 .9c-.3-.1-.7-.1-1 .3-.2.2-.3.6-.3 1h2.6c0-.3 0-.6-.3-.9-.2-.4-.5-.5-1-.5Zm-.3-3.1c0 .2.2.3.3.5l.3.6.4.4v.1h-.6a6.3 6.3 0 0 1-.6-.4l-.5-.6a2.9 2.9 0 0 1-.3-.5Zm6.4 2.2h.6v.9h-.8c-.1 0-.4 0-.6.1-.3.2-.6.4-.6.7l-.2 1v2.7h-1v-5.3h.9v1l.8-.7c.2-.3.5-.5.9-.5Zm3.5 0c.5 0 .9.1 1.2.3a2 2 0 0 1 .7.9c.2.3.3.7.3 1.2v.6h-3.7c0 .6.2.9.6 1.4.2.3.6.4 1.2.4h.8l.9-.4v.8l-.9.3a5 5 0 0 1-1 0 3 3 0 0 1-1.2-.1 2.2 2.2 0 0 1-1-1.1c-.1-.4-.2-.8-.2-1.4l.2-1.6c.2-.4.5-.7.9-1 .3-.1.7-.2 1.2-.2Zm0 .9c-.4-.1-.9-.1-1 .3-.3.2-.4.6-.4 1h2.7c0-.3-.2-.6-.3-.9-.2-.4-.6-.5-1-.5Zm3.1 2.3v-.8h2.4v.8Zm-44.4 14.2-.8-2.2h-2.9l-.8 2.2H422l3-7.1h.8l2.7 7.1Zm-1.1-3-.8-2.1-.1-.4-.2-.4v-.3l-.2.6a8 8 0 0 1-.2.5l-.8 2.1Zm5.5-2.5c.6 0 1 .4 1.5.9.5.3.6 1 .6 1.9 0 1-.1 1.6-.6 2.2-.4.4-.9.6-1.5.6-.5 0-.8 0-1-.2l-.7-.6v3.2h-.9v-7.8h.7l.1.7.8-.6c.2-.2.5-.2 1-.2Zm-.2.9c-.6-.1-1 .1-1.2.4-.2.3-.3.7-.3 1.4v.1c0 .7 0 1.2.3 1.6.2.3.6.5 1.2.5.3 0 .6 0 .8-.3l.5-.6.1-1.1c0-.8 0-1.3-.2-1.6-.3-.3-.7-.5-1.2-.5Zm6.3-.9c.7 0 1.2.4 1.6.9.3.3.6 1 .6 1.9 0 1-.2 1.6-.6 2.2-.4.4-1 .6-1.7.6-.3 0-.7 0-.9-.2l-.7-.6v3.2h-.8v-7.8h.7v.7h.2l.6-.6c.2-.2.6-.2.9-.2Zm-.1.9c-.6-.1-1 .1-1.2.4-.2.3-.4.7-.4 1.4v.1c0 .7.1 1.2.4 1.6.2.3.6.5 1.2.5.3 0 .6 0 .8-.3l.4-.6.2-1.1c0-.8-.1-1.3-.4-1.6-.2-.3-.6-.5-1-.5Zm5.7-.9c.7 0 1.3.3 1.5.6.3.2.5.6.5 1.4v3.5h-.7l-.2-.7-.7.6-1.1.2c-.6 0-1-.1-1.3-.4-.2-.2-.4-.6-.4-1.2 0-.5.2-1 .7-1.2.4-.3 1-.4 2-.5h.8v-.3c0-.5-.1-.8-.3-1l-.8-.1h-.8l-.7.3-.3-.7.8-.3 1-.1Zm1 3h-.7c-.7 0-1.1.1-1.4.3-.2.1-.4.4-.4.7 0 .3.1.6.3.7l.7.3c.5 0 .8-.2 1.1-.5.3-.2.5-.5.5-1.1Zm3.5 2.5h-.9V131h.9Zm3.8-5.5c.5 0 1 .3 1.3.6.4.2.5.6.5 1.4v3.5h-.6l-.2-.7c-.2.2-.5.5-.8.6l-.9.2c-.6 0-1-.1-1.3-.4-.3-.2-.5-.6-.5-1.2 0-.5.2-1 .6-1.2.5-.3 1.1-.4 2-.5h.9v-.3c0-.5-.1-.8-.3-1l-.8-.1h-.9l-.6.3-.4-.7.9-.3 1.1-.1Zm1 3h-.8c-.7 0-1.2.1-1.4.3-.3.1-.4.4-.4.7 0 .3.1.6.3.7l.7.3c.4 0 .8-.2 1.1-.5.3-.2.5-.5.5-1.1Zm4.7 2.6c-.5 0-1 0-1.3-.3-.4-.2-.7-.5-.9-.9-.2-.4-.3-.9-.3-1.4 0-.8.1-1.3.3-1.7.3-.4.5-.7 1-1l1.1-.1h.9l.6.2-.1.6-.7-.1h-.6c-1-.1-1.6.5-1.6 1.9 0 .7.1 1.2.4 1.6.3.3.6.5 1.1.5l.8-.1.6-.2v.7a2 2 0 0 1-.6.2l-.7.1Zm3.5-7.6v2.8c.2-.2.4-.4.7-.5.3-.3.6-.3 1-.3.6 0 1.1.2 1.4.5.4.5.5.9.5 1.5v3.5h-.8v-3.4c0-.9-.4-1.3-1.2-1.3-.6 0-1 .2-1.3.5-.2.4-.3.8-.3 1.5v2.7h-.9V131Zm7.4 2c.4 0 .8.3 1.1.5a2 2 0 0 1 .8.7c.2.4.3.8.3 1.3v.5H467c0 .6.3 1 .6 1.4.3.3.7.5 1.2.5l1-.1.6-.3v.8l-.7.2a5 5 0 0 1-1 .1 3 3 0 0 1-1.2-.3 2.2 2.2 0 0 1-1-.9c-.2-.4-.3-1-.3-1.5 0-.6 0-1.1.3-1.5.2-.4.5-.8.8-1 .4-.2.8-.3 1.3-.3Zm0 .9c-.6-.1-.9 0-1.1.3-.3.3-.4.6-.5 1.1h2.8c0-.3 0-.8-.3-1-.2-.5-.5-.6-1-.6Zm7 3.1c0 .6-.2 1-.6 1.2-.3.3-.9.4-1.5.4h-1l-.7-.4v-.7l.8.3.9.1c.4.1.8.1 1-.2.2-.1.3-.3.3-.6l-.1-.3-.4-.4a7.5 7.5 0 0 0-.9-.3 7.5 7.5 0 0 1-.8-.4l-.6-.5-.2-.7c0-.5.2-.8.5-1 .4-.4.9-.5 1.5-.5h1a4 4 0 0 1 .6.5l-.2.6-.7-.1-.8-.2c-.3 0-.6 0-.7.2-.3 0-.4.2-.4.4l.1.4.5.3.8.4c.3 0 .6.2 1 .4 0 0 .3.1.4.4.2.2.2.5.2.7Zm0 0" style="fill:none;stroke-width:3;stroke-linecap:butt;stroke-linejoin:round;stroke:#fff;stroke-opacity:.6;stroke-miterlimit:10" transform=" rotate(  340 450.291 129.554) "/> <g style="fill:#986e96;fill-opacity:1" transform=" rotate(  340 450.291 129.554) ">  <use xlink:href="#w" x="423.4" y="126.6"/>  <use xlink:href="#r" x="429.7" y="126.6"/>  <use xlink:href="#s" x="435.9" y="126.6"/>  <use xlink:href="#x" x="441.5" y="126.6"/>  <use xlink:href="#y" x="447.7" y="126.6"/>  <use xlink:href="#j" x="453.8" y="126.6"/>  <use xlink:href="#o" x="456.4" y="126.6"/>  <use xlink:href="#h" x="462.1" y="126.6"/>  <use xlink:href="#p" x="466" y="126.6"/>  <use xlink:href="#l" x="471.6" y="126.6"/>  <use xlink:href="#z" x="422.2" y="138.5"/>  <use xlink:href="#A" x="428.6" y="138.5"/>  <use xlink:href="#A" x="434.7" y="138.5"/>  <use xlink:href="#s" x="440.9" y="138.5"/>  <use xlink:href="#B" x="446.5" y="138.5"/>  <use xlink:href="#s" x="449" y="138.5"/>  <use xlink:href="#C" x="454.7" y="138.5"/>  <use xlink:href="#r" x="459.5" y="138.5"/>  <use xlink:href="#p" x="465.6" y="138.5"/>  <use xlink:href="#k" x="471.3" y="138.5"/> </g> <path d="M188.7 267.6c-.7 0-1.3.2-1.7.8-.5.5-.7 1.2-.7 2 0 1.1.2 1.8.6 2.3.4.3 1 .6 1.8.6h1l.6-.3v.8l-.7.2-1 .1c-.7 0-1.3-.1-1.8-.4a2.8 2.8 0 0 1-1.1-1.3c-.3-.6-.4-1.2-.4-2 0-.7.1-1.3.4-1.9a3 3 0 0 1 1.3-1.2c.4-.4 1-.5 1.8-.5.7 0 1.4.1 2 .4l-.5.8-.7-.3a3 3 0 0 0-.9-.1Zm5.3 1c.3 0 .7 0 1 .3a2 2 0 0 1 1 .8c0 .4.2.8.2 1.3v.5h-3.7c0 .6.2 1 .4 1.5.3.2.8.4 1.3.4l1-.1.6-.3v.8l-.7.2a5 5 0 0 1-1 .1 3 3 0 0 1-1.2-.3 2.2 2.2 0 0 1-.9-.8c-.3-.5-.4-1.1-.4-1.6 0-.6 0-1.1.3-1.5.1-.4.4-.9.8-1l1.2-.3Zm0 .7c-.6 0-.9.1-1 .4-.4.3-.5.6-.6 1.1h2.8c0-.4 0-.8-.2-1-.3-.5-.6-.6-1-.6Zm6.1-.7c.6 0 1.1.1 1.4.4.5.3.5.8.5 1.5v3.5h-.8v-3.4c0-.9-.4-1.3-1.2-1.3-.6 0-1 .2-1.3.5-.2.3-.3.8-.3 1.4v2.8h-.9v-5.3h.7l.2.7c.2-.3.4-.5.7-.6.3-.2.7-.2 1-.2Zm5.4 4.8h.4l.3-.1v.7h-.4l-.5.2-.7-.2c-.3-.1-.6-.3-.6-.5-.2-.3-.2-.6-.2-1v-3.2h-.8v-.3l.8-.4.2-1.2h.6v1.3h1.6v.6h-1.6v3.1c0 .4.1.6.4.8l.5.2Zm4.3-4.8h.6v.8h-.7c-.2 0-.5 0-.7.2-.3.1-.5.4-.6.6l-.2 1v2.8h-.9v-5.3h.7l.1 1 .8-.9c.2-.1.5-.2.9-.2Zm3.5 0c.5 0 .9 0 1.2.3a2 2 0 0 1 .7.8c.2.4.3.8.3 1.3v.5h-3.7c0 .6.2 1 .5 1.5.3.2.7.4 1.3.4l.9-.1.8-.3v.8l-.8.2a5 5 0 0 1-1 .1 3 3 0 0 1-1.3-.3 2.2 2.2 0 0 1-1-.8c-.2-.5-.2-1.1-.2-1.6 0-.6 0-1.1.2-1.5.2-.4.5-.9.9-1 .3-.2.7-.3 1.2-.3Zm0 .7c-.4 0-.8.1-1 .4-.3.3-.4.6-.4 1.1h2.7c0-.4-.1-.8-.3-1-.3-.5-.6-.6-1-.6Zm3.1 2.4v-.7h2.4v.7ZM178.8 286c-.6 0-1.2-.1-1.6-.5-.4-.6-.6-1.3-.6-2.2 0-1 .2-1.6.6-2 .5-.7 1-.9 1.8-.9.3.1.6.1.9.3a2 2 0 0 1 .6.6v-2.9h.9v7.6h-.7l-.2-.8a2 2 0 0 1-.5.6c-.4.2-.7.3-1.1.3Zm.2-.6c.5-.1 1-.2 1.2-.4.2-.4.3-1 .3-1.5v-.2c0-.7 0-1.2-.3-1.5-.2-.4-.6-.6-1.2-.6-.5 0-1 .2-1.1.6-.2.4-.4.9-.4 1.5 0 .7.2 1.2.5 1.5.1.4.5.5.9.5Zm19.8-3c0 .9-.1 1.6-.5 2.2-.3.6-.8 1-1.5 1.4l1.7 1.7h-1.3l-1.4-1.7h-.3c-.7 0-1.3-.1-1.8-.4a2.7 2.7 0 0 1-1-1.3 4.9 4.9 0 0 1-.5-2c.1-.6.1-1.3.4-1.7.2-.7.6-1.1 1.1-1.4.5-.3 1.1-.5 1.9-.5.7 0 1.3.3 1.8.5.4.3.8.7 1 1.2.4.6.5 1.2.5 2Zm-5.6 0c0 .9.2 1.6.6 2.1.2.5 1 .8 1.7.8.9 0 1.5-.3 1.8-.8.4-.5.7-1.2.7-2.1-.1-1-.3-1.6-.7-2.1-.3-.5-1-.8-1.7-.8-.8 0-1.6.3-1.8.8-.4.5-.6 1.2-.6 2Zm15.4-1.9c.4 0 .8.1 1.1.3a2 2 0 0 1 .8.9c.2.3.3.7.3 1.2v.5H207c0 .7.3 1.1.6 1.4.3.4.7.5 1.2.5h1l.6-.5v.9l-.7.3a5 5 0 0 1-1 0 3 3 0 0 1-1.2-.1 2.2 2.2 0 0 1-1-1.1c-.2-.4-.3-.8-.3-1.5s0-1 .3-1.5c.2-.4.4-.7.8-1 .4-.1.8-.2 1.3-.2Zm0 .7c-.6 0-.9.2-1.1.4-.3.4-.4.7-.5 1.2h2.8c0-.5 0-.9-.3-1.1-.2-.3-.5-.5-1-.5Zm1.2-2.9v.1l-.3.5-.5.5-.5.6h-.6v-.2a16.2 16.2 0 0 0 .6-1l.3-.5Zm3.2.1v1.8a15.8 15.8 0 0 1 0 1.1l.6-.6 1-.2c.8 0 1.4.2 1.8.7.3.5.5 1.2.5 2 0 1.1-.2 1.8-.6 2.3-.5.3-1 .5-1.6.5-.5 0-.8 0-1-.2-.4-.1-.7-.3-.7-.5l-.3.7h-.7v-7.6Zm1.5 2.8c-.6 0-1 .2-1.2.5-.2.4-.3.9-.3 1.6 0 .6.1 1.2.3 1.5.2.4.7.5 1.2.5s.9-.1 1.1-.5c.2-.3.4-.8.4-1.5 0-1.4-.5-2-1.5-2Zm0 0" style="fill:none;stroke-width:3;stroke-linecap:butt;stroke-linejoin:round;stroke:#fff;stroke-opacity:.6;stroke-miterlimit:10" transform=" rotate(  340 203.526 271.025) "/> <g style="fill:#986e96;fill-opacity:1" transform=" rotate(  340 203.526 271.025) ">  <use xlink:href="#w" x="184.7" y="274"/>  <use xlink:href="#p" x="191" y="274"/>  <use xlink:href="#u" x="196.7" y="274"/>  <use xlink:href="#D" x="202.8" y="274"/>  <use xlink:href="#h" x="206.5" y="274"/>  <use xlink:href="#p" x="210.4" y="274"/>  <use xlink:href="#l" x="216" y="274"/>  <use xlink:href="#y" x="176.1" y="286"/>  <use xlink:href="#E" x="191.6" y="286"/>  <use xlink:href="#F" x="205.6" y="286"/>  <use xlink:href="#G" x="211.3" y="286"/> </g> <path d="m314.3 87.1 1.5-7.1h3.6l-.1.8h-2.8l-.5 2.5h2.6l-.2.8h-2.6l-.6 3Zm4.7 0 1.5-7.6h.9l-1.6 7.6Zm4.7.1c-.7 0-1.1-.2-1.5-.5-.2-.4-.5-.9-.5-1.5 0-.4 0-.8.3-1.3l.4-1.1.9-.8a2 2 0 0 1 1.1-.3c.6 0 .9 0 1.1.3.3.2.5.5.5 1 0 .2 0 .5-.4.8-.2.4-.5.6-1 .8l-1.8.2h-.2v.4c0 .4.1.7.4 1 .1.1.4.2 1 .2h.4a5 5 0 0 0 .9-.4v.8a6 6 0 0 1-.8.3l-.8.1Zm-1-3.1h.2l1.1-.1c.3 0 .6-.2.8-.4.2-.1.2-.3.2-.6 0-.2 0-.3-.1-.4-.1-.2-.3-.2-.5-.2-.4 0-.7.1-1 .4-.3.3-.4.8-.6 1.3ZM328.1 87.2c-.4 0-.7 0-1-.2-.1-.3-.3-.7-.3-1.1v-.4l.2-.5.6-3.2h.9l-.7 3.2-.1.8.1.5.6.2c.2 0 .5 0 .6-.2l1-.8c0-.5.3-.8.4-1.5l.5-2.2h.8l-1.1 5.2h-.7v-.9c.1.2-.2.4-.4.5l-.6.5-.8.1Zm5-.1-.6-5.3h.9l.3 3V86l.2.4.2-.4a24.4 24.4 0 0 1 .6-1.3l1.5-3h1l-3 5.5Zm6 .1c-.6 0-1-.2-1.4-.5-.3-.4-.5-.9-.5-1.5 0-.4 0-.8.2-1.3 0-.4.3-.8.5-1.1.1-.4.5-.6.9-.8a2 2 0 0 1 1-.3c.7 0 1.1 0 1.2.3.3.2.4.5.4 1l-.4.8c-.1.4-.5.6-1 .8l-1.8.2h-.2v.4c0 .4 0 .7.4 1 .2.1.5.2.9.2h.7a5 5 0 0 0 .8-.4v.8a6 6 0 0 1-.8.3l-.9.1Zm-.9-3.1h.1l1-.1c.5 0 .7-.2 1.1-.4v-1c-.2-.2-.4-.2-.6-.2s-.6.1-1 .4l-.5 1.3Zm-21.3 15.1-1-.2-.6-.2V98l.7.3h1.7c.3-.1.5-.3.6-.5.2-.2.3-.4.3-.7 0-.3-.1-.5-.3-.7l-1-.7a4.4 4.4 0 0 1-.5-.5 1.9 1.9 0 0 1-.6-.4l-.1-.9c-.1-.4-.1-.9.3-1.1a2 2 0 0 1 .8-.8 3 3 0 0 1 1.2-.2l1 .2.8.2-.2.8-.8-.3h-.8c-.4-.1-.7-.1-1 .1-.3.3-.4.6-.4 1.2l.1.2.4.5.5.4.8.5a2 2 0 0 1 .5.6l.2.8c0 .7-.3 1.2-.7 1.6-.5.4-1.1.6-2 .6Zm5.1 0c-.4 0-.8-.2-1-.5-.3-.3-.4-.8-.4-1.4l.1-1.3.6-1.3.7-.7a2 2 0 0 1 1.1-.4c.5 0 .8.1 1.1.4l.2.5.6-.8h.6l-1.2 5.4h-.7l.3-1.1-1 .8c-.3.3-.6.4-1 .4Zm.3-.8c.2 0 .5 0 .7-.2.2-.2.5-.5.6-.8a4 4 0 0 0 .5-1 3 3 0 0 0 .1-.4 4 4 0 0 0 0-.6c0-.3 0-.6-.2-.8-.2-.2-.4-.3-.7-.3-.3 0-.5.1-.7.3a2 2 0 0 0-.6.7c-.2.2-.3.6-.4 1l-.2.9c0 .6.1.8.3 1.1.1.1.3.1.6.1Zm5.6-5.6-.4-.1v-.8l.5-.2c.3 0 .5.2.5.5l-.2.4-.4.2Zm-1.9 6.3 1.2-5.4h.8l-1 5.4Zm2.6-.1 1.1-5.2h.8l-.1.9.4-.5a2 2 0 0 1 .6-.5h.8c.4-.1.8 0 1 .2.3.3.4.6.4 1.1v.4l-.1.4-.7 3.3h-1l.8-3.4V95c0-.4-.2-.6-.6-.6-.2 0-.5 0-.7.2l-.8.8-.5 1.3-.5 2.5Zm7.4.2c-.4 0-.7-.2-1-.3-.1-.2-.2-.5-.2-.9v-.7l.7-3h-.9V94l1-.4.5-1.1h.6l-.3 1.2h1.4l-.2.7h-1.3l-.6 2.9v.3l-.2.3.2.4.4.1h.7v.6h-.4l-.4.3Zm1.7-2.4.3-.8h2.2l-.1.8ZM309.9 111l1.5-7.1h.9l-1.4 6.3h2.8l-.2.8Zm6.3.1c-.5 0-.8-.2-1-.5-.5-.3-.6-.6-.6-1.3.1-.5.1-1 .4-1.5l.4-1.1.9-.9a2 2 0 0 1 1-.2c.4 0 .7 0 .9.2l.5.7.4-.9h.6l-1.1 5.4h-.7l.1-1-.8.8c-.3.2-.7.2-1 .2Zm.2-.7c.3 0 .6-.1.8-.4l.6-.6a4 4 0 0 0 .5-1 3 3 0 0 0 0-.7 4 4 0 0 0 .1-.4c0-.3 0-.5-.2-.7-.2-.2-.5-.3-.8-.3-.2 0-.4 0-.7.2a2 2 0 0 0-.6.7l-.4 1V110.1l.7.3Zm5.4.7c-.4 0-.7-.1-1-.3-.2-.3-.3-.6-.3-1v-.9l.9-3.3h.8l-.8 3.4v1.2l.7.2.7-.4.7-.6.6-1.4.4-2.4h1l-1.3 5.4h-.6v-1l-.4.5-.6.5-.8.1Zm4.2-.1 1-5.4h.8v1l.4-.5.5-.4.7-.1h.6l-.2.8h-.5c-.3-.1-.6-.1-.9.2-.3.3-.4.6-.6.9l-.4 1-.5 2.5Zm5.9.1c-.6 0-1.1-.2-1.4-.5-.5-.4-.5-.9-.5-1.6v-1.2c.3-.4.4-.8.7-1.1.2-.4.5-.7.8-.8a2 2 0 0 1 1.1-.3c.5 0 1 0 1.2.3.2.1.4.5.4.9 0 .3-.2.7-.4 1-.2.2-.5.5-1 .6-.4.2-1 .3-1.8.3v.3c-.1.5-.1.8.2 1 .1.2.5.3.8.3h.8a5 5 0 0 0 .7-.3v.7a6 6 0 0 1-.7.3h-.9Zm-.9-3.1 1.3-.1c.2 0 .5-.2.7-.4.2-.1.3-.4.3-.5 0-.3 0-.5-.2-.6l-.5-.1c-.3 0-.6.1-1 .4-.1.3-.4.7-.6 1.3Zm3.7 3 1.3-5.4h.6v1c-.1-.2.1-.3.4-.5a2 2 0 0 1 .6-.4l.7-.2c.5 0 .8.1 1 .5.4 0 .5.4.5.9v.9l-1 3.2h-.8l.8-3.4v-.6c0-.5-.1-.7-.6-.7-.2 0-.5 0-.8.3-.4.1-.5.3-.7.7-.2.3-.4.8-.5 1.4l-.5 2.3Zm7.4.1c-.4 0-.7 0-.9-.3-.3-.1-.4-.4-.4-.8l.2-.8.5-2.9h-.8v-.3l1.1-.5.5-1h.5l-.2 1h1.3l-.1.8h-1.4l-.6 3v.8l.4.3h.4l.3-.2v.7l-.3.1-.6.1Zm1 1.2.6-1.3a26 26 0 0 0 .3-1.2h1.1v.2l-.6 1a38 38 0 0 1-.7 1.3ZM310.4 123l1.5-7.3h3.6l-.1.9h-2.8l-.4 2.2h2.5l-.1.8H312l-.6 2.5h2.8l-.2.9Zm6.3 0h-.9l-.6-.4v-.6l.6.2.9.1c.3 0 .6 0 .9-.2l.3-.6-.2-.5-.7-.5c-.4-.2-.7-.4-1-.7 0-.2-.2-.5-.2-.8 0-.5.2-.8.5-1 .3-.5.8-.6 1.3-.6l1 .2.6.2-.2.8-.6-.3H317l-.3.7s0 .3.2.4l.7.6.6.3.4.5.2.6c0 .5-.2 1-.6 1.2-.4.4-.9.4-1.5.4Zm4.6 0c-.4 0-.7 0-1-.2-.1-.2-.3-.5-.3-1l.1-.5.6-3.1h-.7v-.3l1-.4.5-1.1h.5l-.2 1.2h1.2v.7h-1.4l-.6 2.9v1l.4.1h.4l.2-.1v.7h-.2l-.5.1Zm3.4 0c-.4 0-.8 0-1-.3-.3-.2-.4-.6-.4-1v-.4l.2-.5.6-3.2h1l-.9 3.4v1c.4.3.6.3.8.3.1 0 .4 0 .7-.2.2-.2.5-.4.7-.8.2-.4.4-.8.5-1.4l.5-2.3h.9l-1.3 5.3h-.6l.1-.9-.5.6-.6.3-.7.1Zm5.8 0c-.4 0-.8 0-1-.4-.3-.3-.5-.8-.5-1.4l.2-1.4.6-1.2.8-.8a2 2 0 0 1 1-.3c.4 0 .8 0 1.1.3 0 .1.1.4.3.6l.5-.8h.5l-1.1 5.3h-.7l.2-.9-1 .8c-.2.2-.5.2-.9.2Zm.3-.7c.2 0 .5 0 .7-.2.2-.2.5-.5.6-.8a4 4 0 0 0 .5-1 3 3 0 0 0 0-.5 4 4 0 0 0 .2-.5c-.1-.3-.1-.6-.3-.8-.2-.2-.5-.3-.7-.3-.3 0-.5.1-.8.3a2 2 0 0 0-.5.5l-.5 1.1-.1 1.1c.1.4.1.8.3.9l.6.2Zm5.6-5.6-.4-.1v-.8c.1-.2.3-.2.5-.2.3 0 .4.1.4.4l-.1.5-.4.2Zm-1.9 6.2 1.2-5.3h.8l-1.1 5.3Zm2.6.1 1.1-5.5h.8l-.1 1.1.4-.6.7-.4.5-.1h.6l-.1.9h-.6c-.3-.1-.6-.1-.9.2l-.5.9-.5 1-.5 2.4Zm5.9 0c-.6 0-1 0-1.4-.5-.3-.4-.6-.9-.6-1.5 0-.4 0-.8.3-1.2 0-.5.3-.8.5-1.2.2-.3.5-.6.9-.8a2 2 0 0 1 1-.3c.7 0 1.1.1 1.3.3.2.2.3.5.3 1l-.3.8c-.2.4-.6.6-1 .8l-1.9.2h-.1v.4c0 .4 0 .7.3 1 .2.2.5.3.9.3h.7a5 5 0 0 0 .8-.5v.8a6 6 0 0 1-.8.4h-.9Zm-.9-3h.1l1-.3c.5.1.8-.1 1.1-.2v-1.1l-.6-.2c-.3 0-.6.2-1 .5l-.5 1.2Zm-28.3 17.3h-.4l-.3-.1v-.8l.3.1h.3c.2.1.4.1.6-.1l.3-1 1-5.2h-.8l.1-.4.9-.3.2-.5.3-1 .7-.7a2 2 0 0 1 .8-.1h.5l.4.3-.2.6-.3-.1h-.4c-.3 0-.5 0-.6.1-.2.2-.3.5-.4.9l-.1.5h1.1v.7h-1.3l-1 5.3-.6 1.3c-.3.3-.6.5-1.1.5Zm4-2.4 1.4-7.6h1.1l-1.8 7.6Zm4.2.1c-.6 0-.9-.1-1-.4-.4-.2-.5-.5-.5-1v-.8l1-3.3h.8l-.7 3.5-.1.6.1.4.6.3.7-.3c.3 0 .5-.4.7-.8.4-.2.4-.8.6-1.4l.5-2.3h.8l-1.1 5.5h-.7v-1.1c0 .2-.2.3-.4.5l-.6.4-.8.2Zm5-.1-.8-5.4h1l.3 3v1.7h.2l.3-.6a24.4 24.4 0 0 1 .4-1.1l1.6-3h1l-3 5.5Zm5.6-6.3h-.3l-.3-.5c.1-.1.1-.3.3-.4l.4-.2c.3 0 .5.2.5.5 0 .2 0 .3-.2.5l-.4.1Zm-1.8 6.4 1.1-5.5h.9l-1.2 5.5Zm4.2 0c-.4 0-.8-.2-1-.5-.3-.3-.4-.7-.4-1.4l.1-1.4.6-1.2.7-.8a2 2 0 0 1 1.1-.3c.5 0 .8.1 1.1.3l.2.7.6-.9h.6l-1.2 5.5h-.7l.3-1.1-1 .8c-.3.2-.6.3-1 .3Zm.3-.7c.2 0 .5-.1.7-.3.2-.2.5-.4.6-.7a4 4 0 0 0 .5-1 3 3 0 0 0 0-.7 4 4 0 0 0 .2-.4c-.1-.2-.1-.5-.3-.7-.2-.2-.4-.3-.7-.3-.3 0-.5 0-.7.2a2 2 0 0 0-.6.7l-.4.9-.2 1c0 .6.1.9.3 1 .1.2.3.3.6.3Zm3.7.6 1.6-7.6h1l-1.8 7.6Zm0 0" style="fill:none;stroke-width:2;stroke-linecap:butt;stroke-linejoin:round;stroke:#fff;stroke-opacity:.6;stroke-miterlimit:10" transform=" rotate(  340 328.536 108.002) "/> <g style="fill:#4d80b3;fill-opacity:1" transform=" rotate(  340 328.536 108.002) ">  <use xlink:href="#H" x="313.9" y="87.1"/>  <use xlink:href="#I" x="318.7" y="87.1"/>  <use xlink:href="#J" x="321.3" y="87.1"/>  <use xlink:href="#K" x="326.2" y="87.1"/>  <use xlink:href="#L" x="332" y="87.1"/>  <use xlink:href="#J" x="336.7" y="87.1"/>  <use xlink:href="#M" x="315" y="99.1"/>  <use xlink:href="#N" x="320.1" y="99.1"/>  <use xlink:href="#O" x="325.8" y="99.1"/>  <use xlink:href="#P" x="328.3" y="99.1"/>  <use xlink:href="#Q" x="334.1" y="99.1"/>  <use xlink:href="#R" x="337.4" y="99.1"/>  <use xlink:href="#S" x="309.5" y="111"/>  <use xlink:href="#N" x="314.2" y="111"/>  <use xlink:href="#K" x="319.9" y="111"/>  <use xlink:href="#T" x="325.7" y="111"/>  <use xlink:href="#J" x="329.5" y="111"/>  <use xlink:href="#P" x="334.5" y="111"/>  <use xlink:href="#Q" x="340.3" y="111"/>  <use xlink:href="#U" x="343.6" y="111"/>  <use xlink:href="#V" x="310" y="122.9"/>  <use xlink:href="#W" x="315.1" y="122.9"/>  <use xlink:href="#Q" x="319.5" y="122.9"/>  <use xlink:href="#K" x="322.8" y="122.9"/>  <use xlink:href="#N" x="328.6" y="122.9"/>  <use xlink:href="#O" x="334.2" y="122.9"/>  <use xlink:href="#T" x="336.8" y="122.9"/>  <use xlink:href="#J" x="340.6" y="122.9"/>  <use xlink:href="#X" x="314.3" y="134.9"/>  <use xlink:href="#K" x="320" y="134.9"/>  <use xlink:href="#L" x="325.8" y="134.9"/>  <use xlink:href="#O" x="330.5" y="134.9"/>  <use xlink:href="#N" x="333.1" y="134.9"/>  <use xlink:href="#I" x="338.7" y="134.9"/> </g> <path d="m31.8 72.2 1.5-7.2H35c.7 0 1.3.2 1.6.6.3.3.4.8.4 1.3 0 .8-.2 1.4-.7 1.9-.5.4-1.3.6-2.3.6h-.7l-.6 2.8Zm1.7-3.6h.5c.7 0 1.2 0 1.6-.4.4-.2.6-.7.6-1.2s-.2-.7-.4-.9c-.2-.2-.5-.3-1-.3h-.7Zm5.5 3.7c-.4 0-.8-.3-1-.5-.3-.3-.4-.7-.4-1.3 0-.5 0-1 .2-1.5 0-.4.2-.8.5-1.2l.8-.8a2 2 0 0 1 1.1-.3c.4 0 .6.1.9.3l.4.7h.1l.4-.9h.6l-1.2 5.4h-.7l.3-1-1 .8c-.3.2-.6.3-1 .3Zm.3-.7c.3 0 .5-.1.7-.3l.7-.7a4 4 0 0 0 .3-1 3 3 0 0 0 .2-.6 4 4 0 0 0 0-.5c0-.3 0-.5-.2-.7-.2-.2-.4-.3-.7-.3-.3 0-.5 0-.7.2a2 2 0 0 0-.6.7l-.4 1-.1 1c0 .5 0 .8.2 1 .1.1.3.2.6.2Zm3.7.6 1.3-5.4h.6l-.1 1 .5-.5.5-.4.7-.2h.3l.2.2-.1.7h-.5c-.4-.1-.7-.1-1 .2l-.5.9c-.3.3-.4.7-.4 1l-.6 2.5Zm6 .1c-.6 0-1-.3-1.4-.5-.4-.3-.6-.8-.6-1.5l.2-1.4c.2-.4.3-.8.6-1.1.2-.3.5-.6.9-.8.3-.2.7-.3 1.1-.3l.7.1.7.2-.3.7-.5-.1-.6-.1c-.3 0-.7.1-1 .4-.2.1-.5.6-.6 1a4 4 0 0 0-.3 1.4c.1.4.1.7.3 1 .3.1.5.2 1 .2h.5a7 7 0 0 0 .7-.3v.8l-.6.2H49Zm5-.1 1-5.4h1l-.3 1 .5-.5a2 2 0 0 1 .6-.4l.8-.2c.4 0 .7.1 1 .4.2.2.3.5.3.9v.9l-.9 3.3h-.9l.9-3.4v-.7c0-.4-.1-.6-.6-.6-.3 0-.4 0-.8.2-.2.3-.5.4-.7.8-.2.3-.4.8-.5 1.4l-.5 2.3Zm7.4.1c-.4 0-.8-.3-1-.5-.4-.3-.4-.7-.4-1.3V69l.7-1.2.8-.8a2 2 0 0 1 1-.3c.5 0 .8.1 1.1.3l.2.7.6-.9h.6l-1.2 5.4h-.7l.2-1-1 .8c-.2.2-.5.3-.9.3Zm.3-.7c.2 0 .5-.1.7-.3.2-.2.6-.4.6-.7a4 4 0 0 0 .5-1 3 3 0 0 0 0-.6 4 4 0 0 0 .2-.5c-.1-.3-.1-.5-.3-.7-.2-.2-.4-.3-.7-.3-.3 0-.5 0-.7.2a2 2 0 0 0-.6.7l-.4 1-.2 1c0 .5.2.8.3 1 .1.1.3.2.6.2Zm5.3.7c-.4 0-.7-.1-1-.3-.1 0-.2-.4-.2-.9v-.7l.6-2.9h-.8v-.4l1.1-.4.5-1h.5l-.3 1h1.4l-.1.8h-1.4l-.6 3v.8l.4.3h.4l.3-.3v.8l-.3.1H67Zm3.6-6.3-.3-.3-.3-.2c.1-.2.1-.5.3-.5l.4-.2c.3 0 .5.2.5.5 0 .2 0 .4-.2.5l-.4.1Zm-1.8 6.1 1-5.3h1.1l-1.3 5.4Zm4.7.2c-.5 0-1-.3-1.4-.6-.4-.4-.6-.9-.6-1.5 0-.4 0-.8.2-1.2a4 4 0 0 1 .5-1.1c.2-.4.5-.6.8-.9l1.2-.2c.6 0 1.1.1 1.5.5.3.4.5.9.5 1.5 0 .4 0 .8-.2 1.3a4 4 0 0 1-.5.9c-.2.6-.5.9-.8 1-.3.2-.7.3-1.2.3Zm0-.8c.5 0 .8 0 1.1-.3l.4-1 .3-1.4v-.7a1 1 0 0 0-.6-.4l-.5-.2c-.2 0-.7.1-1 .4l-.5 1a4 4 0 0 0-.3 1.3c0 .5.1.8.3 1 .3.2.5.3.9.3Zm3.5.7 1-5.4h1l-.3 1 .5-.5a2 2 0 0 1 .6-.4l.8-.2c.4 0 .7.1 1 .4.2.2.3.5.3.9v.9l-.9 3.3h-.9l.9-3.4v-.7c0-.4-.1-.6-.6-.6-.3 0-.4 0-.8.2-.2.3-.5.4-.7.8-.2.3-.4.8-.5 1.4l-.5 2.3Zm7.4.1c-.4 0-.8-.3-1-.5-.4-.3-.4-.7-.4-1.3V69l.7-1.2.8-.8a2 2 0 0 1 1-.3c.5 0 .8.1 1.1.3l.2.7.6-.9h.6l-1.2 5.4h-.7l.2-1-1 .8c-.2.2-.5.3-.9.3Zm.3-.7c.2 0 .5-.1.7-.3.2-.2.6-.4.6-.7a4 4 0 0 0 .5-1 3 3 0 0 0 0-.6 4 4 0 0 0 .2-.5c-.1-.3-.1-.5-.3-.7-.2-.2-.4-.3-.7-.3-.3 0-.5 0-.7.2a2 2 0 0 0-.6.7l-.4 1-.2 1c0 .5.2.8.3 1 .1.1.3.2.6.2Zm3.7.6 1.6-7.6h1l-1.8 7.6Zm-56.8 12c-.4 0-.8-.1-1-.4-.3-.3-.4-.8-.4-1.4l.1-1.4.7-1.2.7-.8a2 2 0 0 1 1.1-.3c.4 0 .6 0 .9.3.2 0 .3.4.3.6h.2a35.3 35.3 0 0 1 .2-1.3l.4-1.8h.9L34 84.1h-.7l.1-1-.8.9c-.3.1-.6.2-1 .2Zm.4-.7c.1 0 .4 0 .6-.2l.6-.7.5-1 .2-1.1c0-.3-.1-.6-.3-.8-.1-.2-.4-.3-.6-.3-.4 0-.7.1-1 .3 0 .1-.3.3-.4.7-.2.2-.3.6-.4 1l-.2.9c0 .8.3 1.2.9 1.2Zm5.9.7c-.6 0-1.1-.1-1.4-.5-.5-.4-.5-.9-.5-1.5V81c.3-.5.4-.9.7-1.2l.8-.8a2 2 0 0 1 1.1-.3c.5 0 1 0 1.2.3.2.2.4.5.4 1 0 .2-.2.5-.4.8-.2.4-.5.6-1 .8l-1.8.2v.4c-.1.4-.1.7 0 1 .3.1.6.2 1.1.2h.7a5 5 0 0 0 .7-.3v.7a6 6 0 0 1-.7.3l-.9.1Zm-1-3.1h1.3l.8-.6c.2 0 .3-.2.3-.5 0-.2 0-.3-.2-.4l-.5-.2c-.3 0-.7.2-1 .5-.2.1-.5.7-.6 1.1ZM43.3 84.1l1.7-7.6h.8l-1.6 7.6Zm4.3.1c-.4 0-.8-.1-1-.4-.4-.3-.6-.8-.6-1.4.1-.5.1-1 .3-1.4.1-.5.3-1 .7-1.2 0-.4.4-.6.7-.8a2 2 0 0 1 1-.3c.5 0 .8 0 1.1.3l.2.6.6-.8h.4L50 84h-.7l.1-.9-.8.9c-.3.1-.7.2-1 .2Zm.3-.7c.1 0 .5 0 .7-.3l.6-.7a4 4 0 0 0 .5-1 3 3 0 0 0 0-.6 4 4 0 0 0 .2-.4c-.1-.3-.1-.6-.4-.8-.1-.2-.4-.3-.7-.3-.2 0-.5.1-.7.3a2 2 0 0 0-.5.6l-.4 1-.2 1.1c0 .4 0 .7.2.8.2.2.4.3.8.3Zm6.4.6 1.5-7.1h1.3l.7 5.8L61 77h1.4l-1.5 7h-1l1.1-4a47.9 47.9 0 0 1 .4-2.1L57.8 84h-.6l-.8-6v.4l-.3.7v.7L55 84.1Zm10 .1c-.5 0-.8-.1-1-.4-.3-.3-.6-.8-.6-1.4.1-.5.1-1 .3-1.4.1-.5.3-1 .6-1.2.2-.4.4-.6.8-.8a2 2 0 0 1 1-.3c.4 0 .7 0 .9.3l.5.6.5-.8h.5L66.7 84H66v-.9l-.7.9c-.3.1-.7.2-1 .2Zm.3-.7c.2 0 .4 0 .7-.3l.6-.7a4 4 0 0 0 .5-1 3 3 0 0 0 0-.6 4 4 0 0 0 .1-.4c0-.3 0-.6-.2-.8-.2-.2-.5-.3-.8-.3-.2 0-.5.1-.7.3a2 2 0 0 0-.6.6c-.1.3-.2.7-.2 1l-.3 1.1c0 .4 0 .7.3.8.1.2.3.3.6.3Zm5.4.7c-.6 0-.9 0-1-.2-.4-.3-.5-.7-.5-1.1V82l1-3.2h.8l-.8 3.2v.8l.1.5.6.2c.2 0 .4 0 .7-.2l.7-.8c.4-.5.4-.8.6-1.5l.4-2.2h1L72.3 84h-.6v-.9l-.4.5-.6.5-.8.1Zm4-.1 1.3-5.3h.7v1l.3-.6.5-.4.7-.1h.6l-.2.8h-.5c-.3 0-.6 0-.9.3-.3.2-.5.5-.5.8l-.5 1-.5 2.6Zm6-6.2-.5-.1-.1-.4c0-.2 0-.3.2-.4 0-.2.2-.2.4-.2.3 0 .5.1.5.4 0 .2 0 .4-.2.5l-.4.3ZM78 84l1.3-5.2h.8L78.9 84Zm4.8.2c-.6 0-1-.1-1.4-.5-.4-.3-.5-.7-.5-1.5L81 81l.6-1.3c.2-.3.5-.6.9-.7.3-.2.7-.3 1.1-.3h.7l.7.3-.3.7-.5-.2h-.5c-.4-.1-.8-.1-1 .2-.4.4-.7.7-.7 1.1a4 4 0 0 0-.3 1.4c0 .4.1.8.4 1 .2.2.5.3.8.3h.7a7 7 0 0 0 .6-.4v.8l-.6.2-.8.1Zm4.2-6.3-.3-.1-.1-.4V77c.3-.2.4-.2.6-.2.2 0 .4.1.4.4 0 .2 0 .4-.2.5l-.4.3ZM85.2 84l1.1-5.2h.9L86 84Zm4.7.2c-.6 0-1.1-.1-1.4-.5-.5-.4-.5-.9-.5-1.5V81c.3-.5.4-.9.7-1.2l.8-.8a2 2 0 0 1 1.1-.3c.5 0 1 0 1.2.3.2.2.4.5.4 1 0 .2-.2.5-.4.8-.2.4-.5.6-1 .8l-1.8.2v.4c-.1.4-.1.7 0 1 .3.1.6.2 1.1.2h.7a5 5 0 0 0 .7-.3v.7a6 6 0 0 1-.7.3l-.9.1Zm-1-3.1h1.3l.8-.6c.2 0 .3-.2.3-.5 0-.2 0-.3-.2-.4l-.5-.2c-.3 0-.7.2-1 .5-.2.1-.5.7-.6 1.1Zm.1 0" style="fill:none;stroke-width:2;stroke-linecap:butt;stroke-linejoin:round;stroke:#fff;stroke-opacity:.6;stroke-miterlimit:10" transform=" rotate(  340 62.0481 75.1616) "/> <g style="fill:green;fill-opacity:1" transform=" rotate(  340 62.0481 75.1616) ">  <use xlink:href="#Y" x="31.4" y="72.2"/>  <use xlink:href="#N" x="37.1" y="72.2"/>  <use xlink:href="#T" x="42.8" y="72.2"/>  <use xlink:href="#Z" x="46.6" y="72.2"/>  <use xlink:href="#glyph2-20" x="51.1" y="72.2"/>  <use xlink:href="#P" x="53.7" y="72.2"/>  <use xlink:href="#N" x="59.5" y="72.2"/>  <use xlink:href="#Q" x="65.2" y="72.2"/>  <use xlink:href="#O" x="68.5" y="72.2"/>  <use xlink:href="#aa" x="71.1" y="72.2"/>  <use xlink:href="#P" x="76.7" y="72.2"/>  <use xlink:href="#N" x="82.5" y="72.2"/>  <use xlink:href="#I" x="88.2" y="72.2"/>  <use xlink:href="#ab" x="29.7" y="84.1"/>  <use xlink:href="#J" x="35.5" y="84.1"/>  <use xlink:href="#glyph2-20" x="40.5" y="84.1"/>  <use xlink:href="#I" x="43.1" y="84.1"/>  <use xlink:href="#N" x="45.6" y="84.1"/>  <use xlink:href="#glyph2-20" x="51.3" y="84.1"/>  <use xlink:href="#ac" x="53.9" y="84.1"/>  <use xlink:href="#N" x="62.3" y="84.1"/>  <use xlink:href="#K" x="68" y="84.1"/>  <use xlink:href="#T" x="73.8" y="84.1"/>  <use xlink:href="#O" x="77.8" y="84.1"/>  <use xlink:href="#Z" x="80.4" y="84.1"/>  <use xlink:href="#O" x="84.9" y="84.1"/>  <use xlink:href="#J" x="87.5" y="84.1"/> </g></svg>