<svg xmlns="http://www.w3.org/2000/svg" xmlns:xlink="http://www.w3.org/1999/xlink" viewBox="0 0 497 279"> <defs overflow="visible" style="stroke:none">  <path id="n" d="M2.3.1C1.8.1 1.3 0 1-.3.8-.6.7-1 .7-1.5V-2l.1-.5.8-4h1.1l-.9 4.2a4 4 0 0 0 0 .7v.6c.3.2.5.3.8.3l.8-.3c.4-.2.7-.5 1-1L5-3.7l.6-2.7h1L5.2 0h-.8l.1-1.2-.7.6-.6.6a2 2 0 0 1-1 .1Zm0 0"/>  <path id="m" d="M3 .1C2.2.1 1.7 0 1.2-.5.8-.9.6-1.5.6-2.3c0-.6 0-1 .2-1.6l.7-1.4a3 3 0 0 1 1-.9L4-6.5h.8c.2 0 .5.2.7.3l-.3.8-.5-.2H4c-.5-.1-1 0-1.3.3A3 3 0 0 0 2-4l-.3 1.7c0 .5 0 .9.3 1.1.3.3.6.4 1 .4h1a9 9 0 0 0 .6-.5v1.1L4 0 2.9.1Zm0 0"/>  <path id="l" d="m-.3 2.9 2-9.3h.9l-.2 1.2a5 5 0 0 1 1.1-1 2 2 0 0 1 1.1-.3c.5 0 1 .1 1.4.5.2.4.4 1 .4 1.7 0 .5-.1 1.1-.4 1.6 0 .7-.2 1-.5 1.5l-1 1c-.4.2-.8.2-1.3.2-.4.1-.8.1-1-.2a2.3 2.3 0 0 1-.6-.8A12.4 12.4 0 0 1 1.3.1L.8 3ZM3.1-.7c.4-.1.7-.3 1-.4l.5-.8.5-1.1.2-1.4c0-.8-.4-1.3-1-1.3l-.9.3-.7.8L2-3.4V-2c0 .3 0 .7.2.9.2.1.5.4 1 .4Zm0-.1"/>  <path id="k" d="m.3 0 1.4-6.5h1l-.3 1.2.6-.6.7-.5a2 2 0 0 1 1-.2c.5 0 .9.2 1.2.4.3.3.4.7.4 1.2v.6l-.1.5L5.3 0H4.2l.9-4v-1c.1-.4-.1-.6-.6-.6s-.7 0-1 .3c-.3.1-.6.3-.9.8L2-2.8 1.4 0Zm0 0"/>  <path id="j" d="M2.3.1c-.5 0-1-.1-1.2-.5-.4-.4-.5-1-.5-1.7 0-.6 0-1.1.2-1.7l.7-1.4 1-1c.3-.2.8-.3 1.2-.3.5 0 .8 0 1 .3l.8.8.3-1h.8L5.2 0h-.8l.1-1.2-1 1a2 2 0 0 1-1.2.2Zm.4-.8c.3-.1.5-.3.8-.4.3-.2.6-.5.8-.9l.5-1.2.2-.6v-.6c0-.3-.1-.6-.3-.9-.2-.2-.5-.4-.9-.4-.3 0-.6.1-.8.3l-.7.8-.5 1.2L1.7-2c0 .4 0 .7.2 1 .2 0 .4.2.8.2Zm0-.1"/>  <path id="i" d="M4 .1c-1 0-1.9-.3-2.4-.8C1-1.4.9-2.1.9-3.3L1-4.7l.6-1.5c.2-.5.4-1 1-1.3a4 4 0 0 1 1.1-.9c.6-.2 1.1-.3 1.8-.3.8 0 1.5.2 2 .5l-.2.9a4.7 4.7 0 0 0-.9-.3l-.9-.1c-.6 0-1.1.1-1.6.4-.4.2-.8.6-.9 1-.5.5-.8 1-.9 1.5L2-3.2c0 .7.2 1.3.6 1.7.3.5.9.7 1.4.7L5.1-1l.9-.2v1L5 0 4 .1Zm0 0"/>  <path id="h" d="M2.6-7.5 2-7.6v-.5c0-.2 0-.3.2-.5.1-.2.3-.2.5-.2.3 0 .5.2.5.5s0 .5-.2.6l-.4.2ZM.3 0l1.4-6.4h1L1.5 0Zm0 0"/>  <path id="g" d="M3 0c-.8 0-1.4 0-1.8-.5C.8-1 .6-1.6.6-2.4c0-.5 0-1 .2-1.4.1-.5.2-1 .6-1.4.2-.4.6-.7 1-1 .4-.1.9-.2 1.4-.2.7-.1 1.3.1 1.7.6.5.4.7 1 .7 1.8 0 .5 0 1-.2 1.4l-.6 1.4-1 1C4 0 3.5 0 3 0Zm0-.7c.4-.1.8-.2 1-.5.5-.2.7-.6.9-1.1a5.3 5.3 0 0 0 .2-1.9 2 2 0 0 0-.1-.7l-.4-.5c-.2-.2-.6-.2-.8-.2-.4 0-.8.1-1.1.4-.4.3-.7.7-.8 1.2-.2.5-.3 1-.3 1.7 0 .5.2.8.4 1.1.3.3.6.4 1 .4Zm0-.1"/>  <path id="f" d="M1.3 0 .6-6.4h1L2-3v1l.2.7v.5l.4-.7.2-.8.4-.6L5-6.4h1.2L2.7 0Zm0 0"/>  <path id="e" d="m.3 0 1.4-6.4h.9l-.2 1.2h.1A9 9 0 0 1 3-6l.6-.4.9-.1H5v1h-.7c-.3-.1-.8-.1-1 .2-.5.4-.7.7-.9 1.1-.2.4-.4.8-.4 1.3L1.4 0Zm0 0"/>  <path id="d" d="M3 .1C2.1.1 1.5 0 1.1-.5.8-1 .6-1.5.6-2.3c0-.5 0-1 .2-1.5.1-.5.4-1 .6-1.4l1-1c.5-.2 1-.3 1.5-.3s.9 0 1.3.3c.3.3.4.7.4 1.2 0 .4-.1.8-.4 1-.2.5-.6.8-1.2 1l-2 .1h-.3v.6c-.1.3-.1.8.3 1.1.2.3.6.4 1 .4h1l.8-.5v1c-.3 0-.6.2-.8.3L3 .1ZM1.7-3.6H2c.4 0 1 0 1.2-.2.4 0 .8-.2 1-.4.3-.2.4-.4.4-.8 0-.2 0-.3-.2-.5l-.7-.2c-.4 0-.7.2-1 .7-.5.2-.7.7-1 1.4Zm.1 0"/>  <path id="c" d="M1.9.1.9 0C.4 0 .2-.2 0-.3v-1l.8.4a3 3 0 0 0 1 .2c.5-.1.9-.1 1.2-.3.2-.2.3-.5.3-.8 0-.2-.1-.3-.3-.5a4.7 4.7 0 0 0-.8-.7c-.5-.2-.8-.4-1-.7-.3-.3-.4-.6-.4-1 0-.6.2-1 .6-1.3.4-.4 1-.5 1.6-.5h1A5 5 0 0 1 5-6l-.5.7-.5-.2a3 3 0 0 0-1-.2c-.3 0-.6.1-.8.3l-.3.6c0 .2 0 .4.1.6l.9.5.8.5.5.6.2.6c0 .8-.4 1.3-.7 1.6-.5.4-1 .5-1.8.5Zm0 0"/>  <path id="b" d="M3 .1C2.1.1 1.5 0 1.1-.5.8-1 .6-1.5.6-2.3c0-.5 0-1 .2-1.5.1-.5.4-1 .6-1.4l1-1c.5-.2 1-.3 1.5-.3s.9 0 1.3.3c.3.3.4.7.4 1.2 0 .4-.1.8-.4 1-.2.5-.6.8-1.2 1l-2 .1h-.3v.6c-.1.3-.1.8.3 1.1.2.3.6.4 1 .4h1l.8-.5v1c-.3 0-.6.2-.8.3L3 .1ZM1.7-3.6H2c.4 0 1 0 1.2-.2.4 0 .8-.2 1-.4.3-.2.4-.4.4-.8 0-.2 0-.3-.2-.5l-.7-.2c-.4 0-.7.2-1 .7-.5.2-.7.7-1 1.4Zm1.6-3.7v-.1l.5-.6.5-.6a8 8 0 0 0 .4-.6h1.2v.2A13 13 0 0 1 4-7.3Zm0 0"/>  <path id="a" d="m.5 0 1.8-8.6h1.9c1.7 0 2.6.8 2.6 2.2 0 .6-.1 1.2-.5 1.6-.3.5-.8.8-1.6 1L6 0H5L3.7-3.5H2.3L1.6 0Zm2-4.5h1c.6 0 1.2-.1 1.6-.5.4-.3.6-.8.6-1.3s-.1-.9-.4-1c-.3-.2-.7-.3-1.2-.3H3Zm0 0"/>  <path d="M1.1 0v-8.6h5V0Zm.6-.6h3.8V-8H1.7Zm0 0"/> </defs> <image xlink:href="svg/9/108_16.jpg" width="497" height="279"/> <path d="m65.8 190.7 1.8-8.5h2c1.6 0 2.5.7 2.5 2.1.1.7-.1 1.2-.4 1.7-.4.4-1 .7-1.7 1l1.4 3.7h-1.1l-1.3-3.5h-1.4l-.6 3.5Zm2-4.4h1c.8 0 1.2-.3 1.7-.5.4-.4.5-.8.5-1.4 0-.5 0-.8-.4-1-.2-.2-.6-.4-1.2-.4h-.9Zm7.3 4.6c-.7 0-1.3-.3-1.7-.7-.4-.4-.6-1-.6-1.8 0-.4 0-1 .2-1.4.1-.6.4-1.1.6-1.5l1-1c.4-.1 1-.2 1.4-.2.6-.1 1 0 1.4.3.3.2.4.6.4 1 0 .6-.1 1-.4 1.3-.2.3-.6.5-1.2.8-.5.2-1.2.2-2.1.2h-.2v.5c-.1.5-.1.9.2 1.2.3.2.7.4 1.1.4l1.1-.1.7-.4v.9l-.8.3-1 .3Zm-1-3.9h1.3l1-.4c.3-.2.4-.6.4-.8 0-.2 0-.4-.2-.5-.2-.3-.4-.3-.7-.3-.4 0-.7.2-.9.6-.6.3-.9.8-1 1.4Zm1.3-3.5v-.2l.6-.5.5-.8a8 8 0 0 0 .4-.5H78v.2a13 13 0 0 1-1.8 1.8Zm4.6 7.4c-.4 0-.7 0-1-.2-.3 0-.5-.1-.8-.3v-1l.8.5a3 3 0 0 0 1 .1c.5 0 .8-.1 1-.3.4-.2.6-.4.6-.7l-.4-.6a4.7 4.7 0 0 0-.8-.6c-.5-.2-.8-.5-1-.8-.4-.2-.4-.6-.4-1 0-.5.2-1 .6-1.3.4-.3 1-.5 1.6-.5l1 .1a5 5 0 0 1 1.1.3l-.6.9-.6-.3a3 3 0 0 0-1.1-.1c-.1-.1-.3-.1-.5.2l-.5.7c0 .2 0 .3.3.5l.7.6.8.5c.3.1.4.3.6.4l.1 1c0 .5-.2 1-.5 1.4-.6.3-1.2.5-2 .5Zm6.3 0c-.8 0-1.4-.3-1.8-.7-.4-.4-.5-1-.5-1.8l.2-1.4c.1-.6.3-1.1.6-1.5l1-1c.4-.1.9-.2 1.4-.2.6-.1 1 0 1.3.3.3.2.5.6.5 1 0 .6-.1 1-.4 1.3-.3.3-.6.5-1.2.8-.6.2-1.4.2-2.2.2H85v.5c0 .5.1.9.4 1.2.2.2.6.4 1 .4l1.1-.1.6-.4v.9l-.8.3-1 .3Zm-1.1-3.9h1.5l.9-.4c.2-.2.4-.6.4-.8 0-.2-.1-.4-.3-.5 0-.3-.3-.3-.6-.3-.4 0-.8.2-1.1.6-.4.3-.6.8-.8 1.4Zm4.5 3.7 1.4-6.4h.8l-.1 1.2a9 9 0 0 1 .7-.6l.5-.5c.2-.2.5-.2.8-.2h.7l-.2 1.1h-.6c-.4-.2-.8-.2-1.1.1l-.8 1.1-.4 1.3-.7 3Zm5.7 0-.7-6.4h1l.5 3.6V190l.5-.8.3-.7.3-.7 1.9-3.5h1.1l-3.5 6.4Zm7.3.1c-.7 0-1.3-.2-1.7-.6-.5-.5-.7-1-.7-1.8 0-.5 0-1 .2-1.5l.6-1.3c.3-.4.6-.8 1-1 .4-.3.9-.4 1.4-.4.8 0 1.5.2 1.8.8.4.3.6.9.6 1.7.1.5.1 1-.2 1.5-.1.4-.3.8-.6 1.3-.1.4-.6.7-1 1-.4.2-.9.3-1.4.3Zm0-.8c.6 0 .9 0 1.2-.4.2-.3.5-.7.7-1.2a5.3 5.3 0 0 0 .2-1.8 2 2 0 0 0 0-.7l-.6-.6-.7-.2c-.4-.1-.8.1-1.1.4-.4.3-.6.7-.8 1.2l-.2 1.7c0 .5.1.9.3 1.1.3.3.6.5 1 .5Zm6.3-6.8-.3-.1-.2-.4c0-.2 0-.4.2-.7h.5c.3-.1.5.1.5.4s0 .6-.2.6c-.1.2-.3.2-.4.2Zm-2.1 7.5 1.3-6.4h1l-1.2 6.4Zm3.1 0 1.2-6.4h1l-.2 1.2a9 9 0 0 1 .7-.6l.5-.5c.3-.2.5-.2.8-.2h.7l-.2 1.1h-.5c-.5-.2-.9-.2-1.1.1-.5.4-.8.7-.9 1.1l-.4 1.3-.6 3Zm-48.8 14.7c-1 0-1.7-.4-2.3-.9-.5-.5-.8-1.4-.8-2.4 0-.5 0-1 .2-1.6l.5-1.5c.3-.4.6-.9 1-1.2a4 4 0 0 1 1.2-.9c.6-.2 1-.3 1.8-.3s1.5.1 2 .4l-.4.9a4.7 4.7 0 0 0-.7-.3h-1c-.4-.1-.9-.1-1.4.2-.5.4-.9.7-1.1 1.2-.5.5-.7 1-.8 1.6-.1.4-.1.9-.1 1.4 0 .8.2 1.4.5 1.8.4.4 1 .6 1.6.6h1l.8-.4v1l-.9.2h-1.1Zm5.4 0c-.5 0-.9-.2-1.2-.6-.4-.4-.5-.8-.5-1.6 0-.6 0-1.2.1-1.7l.8-1.5c.2-.4.6-.7 1-1 .4-.2.8-.3 1.2-.3.5 0 .8.1 1 .4l.7.7.4-1h.9l-1.4 6.5h-.9l.3-1.3-1.2 1a2 2 0 0 1-1.3.4Zm.4-.9c.3 0 .6-.1.8-.3.3-.2.6-.5.8-.9l.6-1.2v-.7l.2-.4c-.1-.5-.2-.8-.4-1.1-.2-.1-.5-.2-.8-.2-.4-.1-.6 0-1 .2l-.5.8-.6 1.2-.1 1.3c0 .4 0 .8.2 1 .2.2.5.3.8.3Zm4.4.8 1.4-6.5h1l-.3 1.2.6-.6.9-.5a2 2 0 0 1 .8-.2c.5 0 1 .1 1.2.3.3.4.4.8.4 1.3v1.1l-1.1 3.9h-.8l.6-4v-.6l.3-.3c-.1-.5-.4-.8-.9-.8l-.9.4c-.3.1-.6.4-.8.8-.3.4-.5 1-.8 1.7l-.4 2.8Zm9.2-7.5c-.1 0-.3 0-.4-.2l-.1-.4c-.1-.2-.1-.4.2-.5 0-.2.2-.3.5-.3s.5.2.5.6c0 .2 0 .4-.2.6l-.5.2Zm-2.2 7.5 1.4-6.5h1l-1.3 6.5Zm5.1.1c-.5 0-1-.2-1.3-.6-.2-.4-.4-.8-.4-1.6 0-.6 0-1.2.2-1.7 0-.6.4-1 .6-1.5l1-1c.4-.2.8-.3 1.4-.3.3 0 .7.1 1 .4.2.2.4.4.5.7l.5-1h.8l-1.4 6.5h-.8l.1-1.3-1 1a2 2 0 0 1-1.2.4Zm.3-.9 1-.3.6-.9.6-1.2.1-.7v-.4c.1-.5.1-.8-.2-1.1-.3-.1-.5-.2-.9-.2l-.9.2-.6.8-.5 1.2-.2 1.3c0 .4.2.8.3 1 .2.2.4.3.7.3Zm3.9 3.6 2-9.3h.9l-.2 1.2a5 5 0 0 1 1.1-.9 2 2 0 0 1 1.1-.4c.5 0 1 .3 1.4.6.2.3.4.9.4 1.6 0 .6-.1 1.2-.4 1.7 0 .5-.2 1-.5 1.4-.3.5-.5.8-1 1-.4.3-.8.4-1.3.4-.4 0-.8-.1-1-.4a2.3 2.3 0 0 1-.6-.7 12.4 12.4 0 0 1-.3 1l-.5 2.9Zm3.4-3.6c.4 0 .6 0 1-.3l.5-.8.5-1.2.2-1.2c0-1-.4-1.4-1-1.4l-.9.3-.7.8c-.3.3-.4.7-.7 1.2v1.3c0 .4 0 .8.2 1 .2.1.5.2 1 .2Zm6.4-6.7c-.2 0-.3 0-.4-.2l-.2-.4c.1-.2.1-.4.2-.5.1-.2.3-.3.5-.3.4 0 .6.2.6.6l-.2.6-.5.2Zm-2.2 7.5 1.3-6.5h1.1l-1.4 6.5Zm4.6.1-1-.1-.9-.3v-1l.9.4a3 3 0 0 0 1 .1c.4 0 .8 0 1-.3.3-.2.4-.4.4-.7 0-.2 0-.4-.2-.5a4.7 4.7 0 0 0-.9-.7l-1-.7c-.2-.3-.4-.7-.4-1 0-.6.2-1.1.6-1.5.4-.1 1-.4 1.6-.4.4 0 .8 0 1.1.3a5 5 0 0 1 .9 0l-.4 1-.6-.3a3 3 0 0 0-1-.1c-.3 0-.6 0-.8.3-.2.1-.2.3-.2.6 0 .2 0 .4.1.5.2.2.4.4.9.6l.7.5.5.5.2.8c0 .6-.2 1.1-.7 1.5-.4.3-1 .5-1.7.5Zm6.3 0c-.7 0-1.3-.2-1.7-.6-.5-.4-.7-1-.7-1.8 0-.6 0-1.1.2-1.6l.7-1.4a3 3 0 0 1 1-1l1.6-.2h.7l.8.2-.3 1-.6-.3-.7-.1c-.5 0-.9.2-1.2.5a3 3 0 0 0-.8 1.2c-.2.5-.3 1-.3 1.7 0 .5.1.8.3 1 .3.4.6.5 1.1.5l.8-.1a9 9 0 0 0 .7-.4v1l-.7.3H106Zm4.8 0c-.5 0-1-.2-1.3-.6-.3-.4-.5-.8-.5-1.6 0-.6.1-1.2.3-1.7.1-.6.3-1 .5-1.5.4-.4.7-.7 1.1-1 .4-.2.9-.3 1.3-.3s.8.1 1 .4c.3.2.6.4.6.7l.6-1h.7l-1.5 6.5h-.8l.2-1.3-1 1a2 2 0 0 1-1.2.4Zm.3-.9.9-.3.8-.9.5-1.2.1-.7v-.4c0-.5 0-.8-.3-1.1-.2-.1-.3-.2-.8-.2l-.9.2-.6.8-.5 1.2-.2 1.3c0 .4.1.8.3 1 .2.2.4.3.7.3Zm6.4.9c-.5 0-.7-.2-1.1-.4-.3-.3-.6-.7-.6-1.2v-.5l.4-.6.6-3.9h1.1l-.7 4a4 4 0 0 0-.1 1v.5l.7.2c.3 0 .6 0 1-.3l.7-1c.4-.2.6-.8.7-1.5l.6-2.9h1l-1.2 6.5h-1l.2-1.3-.7.7-.6.5a2 2 0 0 1-1 .2Zm0 0" style="fill:none;stroke-width:2;stroke-linecap:butt;stroke-linejoin:round;stroke:#fff;stroke-opacity:.6;stroke-miterlimit:10" transform=" rotate(  340 90.3944 194.993) "/> <g style="fill:#4d80b3;fill-opacity:1" transform=" rotate(  340 90.3944 194.993) ">  <use xlink:href="#a" x="65.3" y="190.7"/>  <use xlink:href="#b" x="72.2" y="190.7"/>  <use xlink:href="#c" x="78.2" y="190.7"/>  <use xlink:href="#d" x="83.4" y="190.7"/>  <use xlink:href="#e" x="89.4" y="190.7"/>  <use xlink:href="#f" x="94.1" y="190.7"/>  <use xlink:href="#g" x="99.7" y="190.7"/>  <use xlink:href="#h" x="106.5" y="190.7"/>  <use xlink:href="#e" x="109.6" y="190.7"/>  <use xlink:href="#i" x="57.3" y="205.3"/>  <use xlink:href="#j" x="64.3" y="205.3"/>  <use xlink:href="#k" x="71.1" y="205.3"/>  <use xlink:href="#h" x="78.1" y="205.3"/>  <use xlink:href="#j" x="81.2" y="205.3"/>  <use xlink:href="#l" x="88" y="205.3"/>  <use xlink:href="#h" x="94.9" y="205.3"/>  <use xlink:href="#c" x="98" y="205.3"/>  <use xlink:href="#m" x="103.2" y="205.3"/>  <use xlink:href="#j" x="108.7" y="205.3"/>  <use xlink:href="#n" x="115.5" y="205.3"/> </g></svg>