<svg xmlns="http://www.w3.org/2000/svg" xmlns:xlink="http://www.w3.org/1999/xlink" viewBox="0 0 497 279"> <defs overflow="visible" style="stroke:none">  <path id="t" d="M1.7-7.6v4.8L2-3v-.3l.4-.2L4-5.4h1L2.9-3l2.4 3H4.2L2.3-2.5l-.6.5v2H.8v-7.6Zm0 0"/>  <path id="s" d="m5.2 0-.9-3A18 18 0 0 1 4-4.5 34.3 34.3 0 0 1 3.5-3l-1 3h-.9L.2-5.4h.9l.6 2.9A40 40 0 0 1 2-1l.3-.3.1-.5a6 6 0 0 1 .1-.5l1-3h1l.7 2.9.3.8.2.6.3-.6v-1l.8-2.7h1L6.3 0Zm0 0"/>  <path id="r" d="M2.8 0C2 0 1.4 0 1-.5.7-1 .5-1.8.5-2.6c0-1.1.3-1.8.7-2.2.4-.5.8-.7 1.6-.7.4 0 .7.1 1 .3a2 2 0 0 1 .6.5v-2.8h.9V0h-.7l-.1-.7a2 2 0 0 1-.8.6l-.9.1Zm0-.5c.8-.1 1.1-.3 1.4-.6.1-.3.2-.8.2-1.4v-.2c0-.6 0-1.1-.3-1.5-.2-.4-.6-.5-1.2-.5-.5 0-.9.2-1 .5-.4.4-.5 1-.5 1.5.1.7.1 1.2.4 1.5.3.4.6.6 1 .6Zm.1-.1"/>  <path id="q" d="M4.1 0 1.8-6.3V0H1v-7.1h1.3l2.2 5.8 2.3-5.8H8V0h-.8v-6.2L5 0Zm0 0"/>  <path id="p" d="M2.9-5.5c.6 0 1.1.2 1.4.5.3.3.5.7.5 1.3V0h-.6L4-.8c-.3.3-.5.6-.8.8h-1c-.5 0-1 0-1.3-.3C.6-.5.5-.9.5-1.5c0-.5.2-1 .5-1.2.5-.3 1-.5 2-.5h.8v-.3c.2-.5.2-.8-.2-1l-.8-.2H2l-.7.5L1-5l1-.3.9-.2Zm1 2.9h-.8c-.6 0-1 .1-1.4.3-.1.3-.3.5-.3.8 0 .3 0 .5.2.7l.7.2c.5 0 .9-.1 1.2-.4.3-.2.4-.6.4-1Zm.1 0"/>  <path id="o" d="M3.3-5.5H4l-.1 1.1-.3-.3h-.3c-.3 0-.5 0-.8.2l-.5.7-.3 1V0H.8v-5.4h.8v1h.2l.6-.6c.3-.3.6-.5 1-.5Zm0 0"/>  <path id="n" d="M6-7.1 3.5 0h-1L0-7.1h1l1.4 4.5A16.5 16.5 0 0 1 3-1l.2-.7.3-.9L5-7Zm0 0"/>  <path id="m" d="M0-5.4h1l1 3 .4 1 .2.6.2-.7c0-.3.2-.5.2-.8l1-3h1.2L2.8.6c-.2.6-.4 1.1-.7 1.4-.3.3-.7.4-1.3.4H.1v-.9h.6c.3.2.6.2.7 0L2 .7l.2-.7Zm0 0"/>  <path id="l" d="M3.4-5.5c.7 0 1.2.2 1.6.5.2.3.4.8.4 1.5V0h-.9v-3.4c0-.9-.4-1.3-1.2-1.3-.6 0-1 .1-1.2.5-.3.2-.4.8-.4 1.4V0H.8v-5.4h.8v.8h.2c.2-.4.3-.5.7-.7l1-.2Zm0 0"/>  <path id="k" d="M4-6.5c-.7 0-1.3.3-1.8.8-.4.5-.6 1.2-.6 2.1 0 1 .2 1.6.6 2.1.4.6 1 .8 1.8.8h1l.6-.3v.8L5 0H4c-.8 0-1.4 0-2-.2a2.8 2.8 0 0 1-1-1.4c-.3-.6-.4-1.2-.4-2 0-.7.1-1.3.4-1.9a3 3 0 0 1 1.2-1.3c.5-.2 1.1-.4 1.8-.4.8 0 1.5.1 2 .4l-.3.7-.8-.2a3 3 0 0 0-.9-.2Zm0 0"/>  <path id="j" d="M1.7-7.6v3c.3-.4.4-.5.7-.6.3-.2.7-.3 1-.3.7 0 1.2.2 1.6.5.2.3.4.8.4 1.5V0h-.9v-3.4c0-.9-.4-1.3-1.2-1.3-.6 0-1 .2-1.2.5-.3.3-.4.8-.4 1.4V0H.8v-7.6Zm0 0"/>  <path id="i" d="M3 0c-.5 0-.9 0-1.3-.1-.3-.3-.6-.6-.7-.9-.4-.5-.5-1-.5-1.7 0-.6.2-1.1.5-1.5 0-.6.4-.8.8-1.1.2-.1.8-.2 1.2-.2l.8.1.7.2-.3.8-.6-.2H3c-1-.1-1.5.6-1.5 1.9 0 .7 0 1 .3 1.4.3.5.7.6 1.2.6h.8l.6-.3v.8a2 2 0 0 1-.6.2H3Zm0 0"/>  <path id="h" d="M5.3-5.4V0h-.7l-.1-.7c-.3.3-.5.5-.9.6l-.9.2C2.1 0 1.6-.1 1.3-.4 1-.7.8-1.2.8-1.8v-3.6h.9v3.5c0 .8.3 1.3 1.2 1.3.6 0 1-.2 1.1-.5.3-.4.5-.9.5-1.5v-2.8Zm0 0"/>  <path id="g" d="M5.5-2.7c0 .9-.2 1.7-.7 2-.4.7-1 .9-1.8.9-.5-.2-.9-.2-1.3-.4-.3-.2-.6-.6-.7-1C.6-1.6.5-2 .5-2.7c0-.9.3-1.6.7-2 .5-.5 1-.8 1.8-.8.5 0 1 .2 1.3.5.4 0 .7.4.9.9.2.2.3.7.3 1.3Zm-4 0c0 .7 0 1.2.3 1.5.3.4.7.6 1.2.6.6 0 1-.2 1.2-.6.3-.3.4-.8.4-1.5s-.1-1.1-.4-1.5c-.2-.3-.6-.5-1.2-.5-.5 0-1 .2-1.2.5-.2.4-.3.9-.3 1.5Zm0 0"/>  <path id="f" d="m2.8-5.5.8.3a2 2 0 0 1 .8.4l.3-.6h.6V.1c0 .8-.2 1.3-.6 1.7-.4.4-1 .6-1.8.6S1.5 2.3 1 2.1v-.9c.6.4 1.3.6 2 .6.5-.1.9-.3 1-.5.3-.3.4-.7.4-1.1v-.9c-.3.5-.9.8-1.6.8C2 0 1.5-.1 1-.6c-.3-.5-.5-1.2-.5-2 0-1.1.2-1.7.6-2.2.4-.4 1-.7 1.6-.7Zm0 .8c-.3 0-.6.2-.9.5-.3.4-.4.9-.4 1.5 0 .7 0 1.2.3 1.7.3.2.6.4 1 .4.7 0 1.1-.2 1.4-.4.1-.3.2-.8.2-1.5v-.2c0-.7 0-1.2-.3-1.5-.3-.4-.7-.5-1.2-.5Zm.1 0"/>  <path id="e" d="M1.3-7.4c.1 0 .3 0 .4.2l.1.4-.1.4-.4.2-.4-.3-.1-.3.1-.4.4-.2Zm.4 2V0H.8v-5.4Zm0 0"/>  <path id="d" d="M2.6-.6H3l.4-.2v.7L3 0H1.7l-.6-.5-.1-1v-3.3H.2V-5l.7-.5.4-1h.5v1h1.5v.8H1.8v3.1c0 .3 0 .6.2.7l.6.3Zm0 0"/>  <path id="c" d="M4.3-1.5c0 .5-.2 1-.5 1.2-.4.3-1 .4-1.6.4l-1-.1-.7-.2V-1l.8.3h1.8l.4-.7-.1-.4L3-2a7.5 7.5 0 0 0-.8-.4 7.5 7.5 0 0 1-1-.4l-.4-.5L.5-4c0-.5.2-.8.6-1 .3-.4.8-.6 1.4-.6l1 .2a4 4 0 0 1 .6.4l-.1.6-.8-.2-.7-.1-.9.1c-.2.2-.3.3-.3.6s0 .2.2.3l.4.3.8.3.9.4.4.5c.3.2.3.4.3.7Zm0 0"/>  <path id="b" d="M3-5.5c.3 0 .7.1 1 .3a2 2 0 0 1 1 .9v1.8H1.5c0 .5.1 1 .4 1.4.3.3.7.4 1.3.4H4l.9-.3v.8L4 0a5 5 0 0 1-1 0 3 3 0 0 1-1.2-.1 2.2 2.2 0 0 1-1-1.1c0-.2-.2-.8-.2-1.3-.1-.7 0-1.2.2-1.6.2-.5.5-.9.9-1 .3-.2.7-.4 1.2-.4Zm0 .8c-.6 0-.9.1-1 .4-.4.2-.6.6-.6 1.1h2.8c0-.5-.1-.8-.3-1.1-.2-.3-.5-.4-1-.4Zm0 0"/>  <path id="a" d="M3-7.1c.7 0 1.4.1 2 .5.2.3.4.8.4 1.5.1.4.1.7-.1 1l-.5.5-.7.4 2 3.2H5L3.2-3H1.9v3h-1v-7.1Zm-.2.7h-.9v2.7h1c.6 0 1.1-.1 1.3-.3.3-.3.4-.6.4-1 0-.6-.1-1-.4-1-.3-.4-.7-.5-1.3-.5Zm.1 0"/>  <path d="M1 0v-7.1h4V0Zm.4-.5h3.1v-6.1h-3Zm.1 0"/> </defs> <image xlink:href="svg/9/109_8.jpg" width="497" height="279"/> <path d="M207.5 69c.9 0 1.5.2 2 .6.4.3.5.8.5 1.4 0 .4 0 .8-.1 1-.2.2-.3.4-.6.5l-.6.5 2 3.2h-1.2l-1.7-3h-1.4v3h-.9V69Zm0 .8h-1.1v2.7h1c.6 0 1.1-.1 1.4-.5.2 0 .4-.4.4-.9 0-.4-.2-.8-.5-1-.2-.1-.7-.3-1.3-.3Zm6.2.9 1.2.3a2 2 0 0 1 .7 1c.2.2.4.7.4 1v.7h-3.8c0 .6.2 1 .5 1.3.3.4.7.5 1.2.5h1.1l.6-.4v.8l-.8.3a5 5 0 0 1-1 0 3 3 0 0 1-1.1-.2 2.2 2.2 0 0 1-1.1-1c-.2-.3-.3-.8-.3-1.4l.3-1.6.8-1c.4-.1.8-.2 1.3-.2Zm0 .7c-.4 0-.8.2-1 .6-.3 0-.4.5-.4.9h2.7c0-.3-.1-.6-.3-.9-.3-.4-.7-.6-1-.6Zm7.1 3.3c0 .5-.2 1-.6 1.2-.4.1-1 .4-1.6.4l-1-.1c-.2 0-.5-.2-.6-.3v-.8c.1.2.4.3.7.3l1 .2.8-.2.4-.6-.1-.4-.4-.3a7.5 7.5 0 0 0-.8-.4 7.5 7.5 0 0 1-1-.4c-.1 0-.3-.2-.4-.3l-.2-1c0-.3.1-.7.5-.9.3-.1.8-.4 1.4-.4l1.1.1a4 4 0 0 1 .5.3l-.2.7-.7-.3H218c-.2.2-.2.5-.2.6v.4c.2 0 .4.2.6.3l.7.2.9.5.6.5.2.7Zm3 .9h.4l.4-.3v.8l-.4.1h-1.3l-.6-.7-.2-.9v-3.1h-.7v-.4l.6-.4.5-1.1h.5v1.2h1.5v.7H223v3.1c0 .4 0 .6.2.7l.6.3Zm2.3-6.8.4.2.1.4-.1.4-.5.1-.3-.1-.1-.4.1-.5h.4Zm.4 2v5.4h-.8v-5.4Zm3.6-.1 1 .3a2 2 0 0 1 .7.5l.2-.7h.7v5.5c0 .7-.2 1.3-.7 1.7-.3.4-1 .6-1.7.6s-1.4-.1-2-.4v-.8c.7.3 1.3.6 2.1.6.4-.1.8-.3 1-.6.3-.2.4-.6.4-1v-1c-.4.6-1 .9-1.6.9-.7 0-1.3-.3-1.7-.7-.4-.6-.5-1.2-.5-2 0-1.1.1-1.6.5-2.2.5-.4 1-.7 1.6-.7Zm.2.8c-.5 0-.8.1-1 .5-.3.4-.6.9-.6 1.5.1.7.3 1.2.5 1.5.2.4.6.6 1 .6.7 0 1.1-.2 1.3-.6.2-.2.3-.6.3-1.3v-.2c0-.7-.1-1.2-.4-1.5-.2-.4-.6-.5-1.1-.5Zm8.7 2c0 .9-.1 1.6-.5 2-.6.5-1.1.9-1.9.9-.6-.1-1-.2-1.3-.4-.4-.3-.7-.6-.9-1-.2-.4-.3-1-.3-1.5-.1-.9.2-1.6.7-2 .4-.5 1-.9 1.8-.9.4.1.9.2 1.3.5.3.2.6.5.8.9.3.4.4.9.4 1.5Zm-4 0c0 .6 0 1.1.4 1.5.2.4.6.6 1.2.6.4 0 1-.2 1.2-.6.2-.4.2-.9.2-1.5s.1-1.1-.2-1.5c-.3-.4-.8-.5-1.2-.5-.6 0-1 .1-1.2.5-.4.4-.4 1-.4 1.5Zm10-2.7v5.4h-.9v-.7c-.3.3-.6.5-.9.5l-.9.3c-.6 0-1.1-.3-1.3-.5-.5-.3-.6-.8-.6-1.5v-3.5h.9v3.5c0 .7.4 1.3 1.2 1.3.5 0 1-.2 1.2-.6.2-.3.3-.8.3-1.4v-2.8Zm3.8 5.5c-.5 0-1-.1-1.3-.3-.4-.2-.7-.5-.9-1-.2-.2-.3-.7-.3-1.4 0-.6.1-1.3.3-1.6.4-.5.6-.8 1-1 .2-.2.7-.3 1.1-.3l.9.1.6.2-.2.7-.6-.1-.6-.1c-1 0-1.6.7-1.6 2 0 .7.2 1.2.4 1.5.4.4.7.5 1.2.5h.7l.6-.4v.9a2 2 0 0 1-.5.2h-.8Zm3.5-7.7v3l.7-.7 1-.2c.6 0 1 .3 1.4.5.4.3.6.8.6 1.5v3.5h-.9v-3.5c-.1-.7-.4-1.2-1.2-1.2-.6 0-1 .1-1.3.5-.2.3-.3.8-.3 1.4v2.8h-.9v-7.6Zm7.4 2.1c.3 0 .8.1 1.1.3a2 2 0 0 1 .8 1c.2.2.4.7.4 1v.7h-3.8c0 .6.2 1 .5 1.3.3.4.7.5 1.2.5h1.1l.5-.4v.8c-.1.2-.4.2-.7.3a5 5 0 0 1-1 0 3 3 0 0 1-1.2-.2 2.2 2.2 0 0 1-1-1c-.2-.3-.3-.8-.3-1.4 0-.6 0-1.1.3-1.6l.8-1c.4-.1.8-.2 1.3-.2Zm0 .7c-.5 0-.8.2-1 .6-.3 0-.4.5-.5.9h2.8c0-.3-.2-.6-.4-.9-.2-.4-.5-.6-1-.6Zm-38.9 10.3c-.8 0-1.4.2-1.8.8-.5.5-.7 1.2-.7 2 0 1.1.2 1.8.7 2.3.3.4 1 .6 1.8.6h.9l.8-.2v.7l-.8.2-1 .1c-.9 0-1.5-.1-2-.4a2.8 2.8 0 0 1-.9-1.3c-.4-.6-.5-1.2-.5-2 .1-.7.1-1.3.4-1.9a3 3 0 0 1 1.3-1.2c.4-.4 1.1-.5 1.8-.5s1.4.1 2 .4l-.4.8-.7-.3a3 3 0 0 0-1-.1Zm7.8 3.7c0 1-.2 1.6-.7 2.1-.5.5-1 .7-1.8.7-.5 0-1.1 0-1.3-.2-.4-.3-.7-.6-.9-1-.2-.4-.3-1-.3-1.5 0-.9.2-1.5.7-2.1.4-.5 1-.7 1.7-.7.6 0 1.1 0 1.4.3.4.2.6.5.9 1 .2.2.3.7.3 1.3Zm-4 0c-.1.7-.1 1.2.2 1.6.3.3.7.5 1.3.5.5 0 1-.2 1.2-.5.2-.4.4-1 .4-1.6 0-.6-.2-1-.4-1.4-.3-.4-.7-.6-1.3-.6-.5 0-1 .2-1.1.6-.3.3-.4.8-.4 1.4Zm9.8-2.6V88h-.7l-.1-.6c-.2.3-.6.6-.8.6-.3.2-.6.2-1 .2-.5 0-.9-.1-1.3-.4-.4-.3-.6-.8-.6-1.5v-3.5h.9v3.4c0 .9.4 1.3 1.2 1.3.6 0 1-.2 1.2-.5.3-.3.4-.8.4-1.4v-2.8Zm4.3-.1c.7 0 1.1.1 1.5.3.3.4.5 1 .5 1.6v3.5h-.9v-3.4c0-.9-.4-1.3-1.2-1.3-.6 0-1 .2-1.2.6-.4.2-.4.7-.4 1.3v2.8h-.9v-5.3h.9v.7c.2-.3.4-.5.8-.6.2-.2.5-.2 1-.2Zm5.4 4.8h.4l.5-.1v.6h-.5l-.5.3-.8-.2c-.3-.1-.4-.3-.6-.5l-.2-1v-3.2h-.8V83l.8-.3.4-1.2h.5v1.3h1.5v.6h-1.5v3.1c0 .5 0 .6.2.8l.6.2Zm1-4.7h1l1 3 .4.8.2.7c0-.3 0-.4.2-.7l.3-.8 1-3h1l-2.3 6c-.2.7-.4 1.1-.7 1.4-.3.2-.7.3-1.3.3h-.7v-.9h.3l.3.3c.2-.1.5-.1.7-.4l.5-.5.3-1Zm0 0" style="fill:none;stroke-width:3;stroke-linecap:butt;stroke-linejoin:round;stroke:#fff;stroke-opacity:.6;stroke-miterlimit:10" transform=" rotate(  340 233.918 79.1545) "/> <g style="fill:#986e96;fill-opacity:1" transform=" rotate(  340 233.918 79.1545) ">  <use xlink:href="#a" x="204.5" y="76.2"/>  <use xlink:href="#b" x="210.8" y="76.2"/>  <use xlink:href="#c" x="216.4" y="76.2"/>  <use xlink:href="#d" x="221.2" y="76.2"/>  <use xlink:href="#e" x="224.8" y="76.2"/>  <use xlink:href="#f" x="227.4" y="76.2"/>  <use xlink:href="#g" x="233.5" y="76.2"/>  <use xlink:href="#h" x="239.6" y="76.2"/>  <use xlink:href="#i" x="245.8" y="76.2"/>  <use xlink:href="#j" x="250.6" y="76.2"/>  <use xlink:href="#b" x="256.7" y="76.2"/>  <use xlink:href="#k" x="216.7" y="88.1"/>  <use xlink:href="#g" x="223.1" y="88.1"/>  <use xlink:href="#h" x="229.1" y="88.1"/>  <use xlink:href="#l" x="235.3" y="88.1"/>  <use xlink:href="#d" x="241.5" y="88.1"/>  <use xlink:href="#m" x="245.1" y="88.1"/> </g> <path d="m183 257.2-2.5 7.2h-1l-2.5-7.2h1l1.6 4.6a16.5 16.5 0 0 1 .4 1.6l.2-.8.3-.8 1.5-4.6Zm1.3-.2.4.1.2.5-.2.4h-.7l-.2-.4c0-.2 0-.4.2-.6h.3Zm.5 2v5.4h-1V259Zm3.8 5.5c-.5 0-.9-.1-1.2-.3-.4-.2-.7-.5-1-1l-.1-1.4c-.1-.7-.1-1.3.2-1.7.2-.4.5-.7.9-.9.4-.2.8-.2 1.3-.2h.8l.5.2-.2.7-.6-.1-.5-.1c-1.1 0-1.7.7-1.7 2 0 .7.2 1.3.5 1.5.2.3.5.5 1.1.5h.8l.6-.4v.9a2 2 0 0 1-.6.2h-.8Zm4.4-.7h.6l.2-.3v.8l-.4.1h-1.3c-.1-.3-.4-.4-.5-.7-.2-.1-.3-.5-.3-.9v-3.1h-.7v-.4l.8-.4.3-1.1h.5v1.2h1.6v.7h-1.6v3.1c0 .3 0 .6.2.7.2.2.4.3.7.3Zm6.5-2.1c0 .9-.2 1.6-.5 2-.6.6-1.2.9-2 .9-.4-.1-.9-.2-1.2-.4l-1-1-.1-1.5c-.1-.9.1-1.7.5-2 .5-.6 1.1-.9 1.9-.9.5.2.9.2 1.2.5.4.1.7.5 1 .8l.1 1.6Zm-4 0c0 .6.1 1.1.4 1.5.1.4.6.6 1.1.6.6 0 1-.2 1.2-.7.3-.3.4-.8.4-1.4s-.1-1.1-.4-1.5c-.2-.4-.6-.5-1.2-.5-.5 0-.9.1-1 .5-.4.4-.5.9-.5 1.5Zm7.9-2.7h.7l-.1.8h-.6c-.4-.1-.6-.1-.8.2l-.6.6-.2 1v2.7h-.8V259h.6l.2 1 .7-.8c.2-.2.5-.2 1-.2Zm2.1-2 .4.1.1.5v.4h-.9l-.1-.4v-.6h.5Zm.4 2v5.4h-.8V259ZM209.7 259c.6 0 1.1 0 1.3.3.4.3.6.7.6 1.4v3.7h-.7l-.1-.8-.8.7-1 .2c-.6 0-1-.2-1.4-.5-.2-.2-.4-.6-.4-1.1s.2-1 .8-1.2c.3-.3.9-.5 1.9-.5h.7v-.5c.1-.3.1-.6-.2-.7-.2-.3-.4-.4-.8-.4-.3 0-.5 0-.8.2l-.7.2-.3-.6.9-.4 1-.1Zm1 2.7h-.7c-.7.1-1.2.2-1.5.3-.2.3-.3.6-.3 1 0 .2 0 .4.2.6l.7.2c.5 0 .9-.2 1.2-.4.3-.4.4-.6.4-1.2Zm-28.7 8.2c-.7 0-1.3.1-1.8.7-.4.6-.6 1.4-.6 2.1 0 1.1.2 1.7.6 2.3.4.4 1 .6 1.8.6h1l.7-.4v.9l-.7.2-1.1.1c-.7 0-1.4-.1-1.9-.4a2.8 2.8 0 0 1-1-1.3c-.3-.7-.4-1.2-.4-2 0-.7.1-1.3.4-1.9a3 3 0 0 1 1.2-1.3c.5-.3 1.1-.4 1.8-.4.8-.1 1.4.1 2 .4l-.3.8-.8-.3a3 3 0 0 0-.9-.1Zm7.8 3.7c0 1-.2 1.6-.7 2-.4.7-1 .9-1.8.9-.3-.1-.9-.2-1.2-.4-.4-.2-.7-.5-1.1-1.1v-1.4c-.1-.9 0-1.5.5-2 .5-.6 1-.7 1.9-.7.4 0 .9 0 1.2.3.4.2.7.5.9 1 .2.2.3.8.3 1.3Zm-4 0c0 .7 0 1.2.2 1.5.4.4.8.6 1.3.6.7 0 1-.2 1.2-.7.3-.2.5-.7.5-1.4 0-.6-.2-1.1-.5-1.5-.2-.3-.5-.5-1.2-.5-.5 0-1 .2-1.2.4-.1.5-.3 1-.3 1.6Zm9.9-2.6v5.3h-.7l-.1-.7h-.1c-.2.4-.4.5-.7.6l-1.1.2c-.5 0-1-.1-1.4-.4-.3-.4-.4-1-.4-1.5V271h.8v3.4c0 .9.4 1.3 1.2 1.3.6 0 1-.2 1.3-.5.2-.3.3-.8.3-1.4V271Zm4.3-.1c.6 0 1 .1 1.4.4.4.3.6.8.6 1.5v3.5h-1V273c0-1-.4-1.4-1.2-1.4-.6 0-1 .2-1.2.4-.2.4-.3.9-.3 1.5v2.8h-1V271h.9v.7c.4-.3.6-.5.8-.7.3-.1.6-.1 1-.1Zm5.4 4.8h.4l.2-.1v.6l-.3.2h-.5l-.8-.1-.4-.5c-.3-.3-.4-.6-.4-1v-3.2h-.6v-.4l.7-.2.3-1.3h.5v1.3h1.6v.6h-1.6v3.1c0 .4.1.6.3.8l.6.2Zm1-4.7h.9l1.1 3 .3.8.3.7.1-.7.3-.8 1-3h1.1l-2.4 6c-.1.6-.4 1-.7 1.3-.3.3-.7.4-1.2.4h-.8v-.9h.3l.3.2c.3 0 .6 0 .8-.3.2-.1.2-.4.4-.7l.3-.7Zm0 0" style="fill:none;stroke-width:3;stroke-linecap:butt;stroke-linejoin:round;stroke:#fff;stroke-opacity:.6;stroke-miterlimit:10" transform=" rotate(  340 195.12 267.343) "/> <g style="fill:#986e96;fill-opacity:1" transform=" rotate(  340 195.12 267.343) ">  <use xlink:href="#n" x="177" y="264.4"/>  <use xlink:href="#e" x="183" y="264.4"/>  <use xlink:href="#i" x="185.6" y="264.4"/>  <use xlink:href="#d" x="190.4" y="264.4"/>  <use xlink:href="#g" x="194" y="264.4"/>  <use xlink:href="#o" x="200.1" y="264.4"/>  <use xlink:href="#e" x="204.2" y="264.4"/>  <use xlink:href="#p" x="206.8" y="264.4"/>  <use xlink:href="#k" x="178" y="276.3"/>  <use xlink:href="#g" x="184.3" y="276.3"/>  <use xlink:href="#h" x="190.4" y="276.3"/>  <use xlink:href="#l" x="196.5" y="276.3"/>  <use xlink:href="#d" x="202.7" y="276.3"/>  <use xlink:href="#m" x="206.3" y="276.3"/> </g> <path d="m0 166.4-2.4-6.2v6.2h-.7v-7h1.3l2.2 5.7 2.3-5.8H4v7.1H3v-4.3l.2-1.1v-.9l-2.5 6.3Zm7.8-5.4c.7 0 1.2.1 1.5.4.3.3.4.8.4 1.4v3.6h-.6l-.1-.7-.8.6c-.3.2-.6.2-1 .2-.7 0-1.1 0-1.4-.3-.2-.3-.4-.7-.4-1.2 0-.6.2-1 .6-1.3.5-.3 1.1-.4 2-.5h.9v-.2c0-.5-.1-.9-.3-1.1l-.8-.1H7l-.7.3-.3-.6.8-.5h1Zm1 2.8h-.6c-.8.1-1.2.2-1.5.5-.3.1-.4.3-.4.7 0 .3.1.5.3.6.2.2.4.2.7.2.5 0 .7 0 1.1-.3.3-.3.6-.7.6-1.2Zm4.5 2.7c-.7 0-1.2-.2-1.6-.5-.4-.6-.6-1.3-.6-2.2 0-1 .2-1.6.6-2.1.4-.5 1-.7 1.6-.7.4 0 .8 0 1 .2a2 2 0 0 1 .7.6v-2.9h.9v7.5h-.7l-.2-.7a2 2 0 0 1-.7.6c-.2.2-.6.2-1 .2Zm.1-.7c.6 0 1-.1 1.2-.4.4-.4.4-.8.4-1.5v-.1c0-.8-.1-1.2-.3-1.5-.3-.4-.7-.6-1.3-.6-.4 0-.8.3-1 .6-.4.4-.4.9-.4 1.5s.1 1.1.4 1.5c.2.3.6.5 1 .5Zm6.2-4.8c.6 0 1.1.1 1.4.4.3.3.5.8.5 1.4v3.6h-.6l-.2-.7c-.3.3-.5.5-.8.6-.2.2-.6.2-.9.2-.6 0-1.1 0-1.4-.3-.3-.3-.4-.7-.4-1.2 0-.6.2-1 .6-1.3.4-.3 1-.4 2-.5h.7v-.2c.1-.5.1-.9-.2-1.1l-.8-.1h-.8l-.7.3-.2-.6.8-.5h1Zm1 2.8h-.8c-.6.1-1 .2-1.3.5-.3.1-.5.3-.5.7 0 .3 0 .5.3.6.2.2.5.2.8.2.4 0 .8 0 .9-.3.6-.3.7-.7.7-1.2Zm7 2.6-1-3a18 18 0 0 1-.3-1.4 34.3 34.3 0 0 1-.5 1.4l-.9 3h-1l-1.5-5.3h1l.6 2.8a40 40 0 0 1 .4 1.6l.3-.4v-.5a6 6 0 0 1 .2-.5l.9-3h1l.8 2.9.3.8.1.7.3-.7.1-.8.8-2.9h.8l-1.4 5.3ZM33 161c.8 0 1.3.1 1.6.4.2.3.4.8.4 1.4v3.6h-.7l-.1-.7-.9.6c-.3.2-.5.2-.9.2-.7 0-1.1 0-1.4-.3-.2-.3-.4-.7-.4-1.2 0-.6.2-1 .7-1.3.4-.3 1-.4 2-.5h.7v-.2c.1-.5.1-.9-.2-1.1l-.8-.1h-.8l-.7.3-.3-.6.9-.5h.9Zm1.2 2.8h-.9c-.6.1-1.1.2-1.3.5-.3.1-.4.3-.4.7 0 .3 0 .5.2.6.2.2.4.2.7.2.5 0 .9 0 1.2-.3.3-.3.3-.7.3-1.2Zm5.9 1.2c0 .5-.1.9-.5 1.2-.4.2-1 .3-1.6.3h-1l-.7-.4v-.7l.8.3.9.1c.4 0 .7 0 1-.2.2-.1.3-.3.3-.6l-.1-.3-.4-.3a7.5 7.5 0 0 0-.8-.4 7.5 7.5 0 0 1-1-.4l-.4-.5-.3-.7c0-.4.2-.8.6-1 .3-.4.8-.4 1.4-.4h1a4 4 0 0 1 .7.5l-.3.5-.7-.2h-1.6l-.3.7s0 .1.2.2l.4.3.8.4.9.4.5.5c.2.1.2.4.2.7Zm2.2-6.1v4.8l.2-.2.2-.3.3-.3 1.6-1.8h1l-1.9 2.3 2 3h-.9l-1.9-2.4-.6.5v2h-.9v-7.7Zm6.5 2.1c.6 0 1.1.1 1.4.4.4.3.5.8.5 1.4v3.6h-.6l-.2-.7c-.3.3-.5.5-.9.6 0 .2-.5.2-.9.2-.5 0-1.1 0-1.2-.3-.4-.3-.5-.7-.5-1.2 0-.6.2-1 .6-1.3.4-.3 1-.4 2-.5h.8v-.2c.1-.5 0-.9-.2-1.1l-.9-.1H48l-.8.3-.2-.6.8-.5h1Zm1 2.8h-.6c-.8.1-1.3.2-1.5.5-.3.1-.4.3-.4.7 0 .3 0 .5.3.6.1.2.4.2.7.2.4 0 .7 0 1.1-.3.3-.3.5-.7.5-1.2ZM11 172c-.8 0-1.4.1-1.8.6-.4.6-.7 1.4-.7 2.2 0 1 .3 1.6.7 2.2.4.4 1 .7 1.8.7h.9l.8-.4v.9l-.7.2h-1.1c-.9.1-1.4.1-1.9-.4a2.8 2.8 0 0 1-1-1.2c-.3-.6-.4-1.2-.4-2 0-.7.1-1.3.4-1.8a3 3 0 0 1 1.2-1.4c.5-.3 1-.4 1.8-.4s1.4 0 2 .4l-.4.7-.6-.2a3 3 0 0 0-1-.2Zm7.8 3.7c0 .9-.2 1.6-.7 2-.4.6-1 .9-1.8.9-.5-.1-.9-.2-1.3-.4l-.8-1c-.2-.4-.3-1-.3-1.5 0-.9.1-1.6.6-2 .5-.5 1-.8 1.9-.8.4.1.9.1 1.2.4.4.2.7.5.9.9.2.4.3 1 .3 1.5Zm-4 0c0 .6 0 1.1.2 1.5.4.4.8.6 1.3.6.7 0 1-.2 1.2-.6.3-.4.5-.9.5-1.5s-.2-1.1-.5-1.5c-.2-.2-.5-.5-1.2-.5-.5 0-1 .2-1.2.5-.1.4-.3.9-.3 1.5Zm9.9-2.7v5.4H24l-.2-.7c-.2.3-.4.5-.8.6l-1 .2c-.6 0-1-.2-1.4-.5-.3-.3-.5-.8-.5-1.5V173h1v3.5c-.1.8.2 1.3 1 1.3.7 0 1.1-.2 1.4-.5.2-.4.3-.9.3-1.5V173Zm4.3 0c.6 0 1 0 1.4.3.3.4.6.9.6 1.6v3.5h-1v-3.5c0-.8-.4-1.2-1.2-1.2-.6 0-1 .1-1.2.5-.2.3-.3.8-.3 1.4v2.8h-1V173h.9v.8l.8-.8h1Zm5.4 4.8h.4l.2-.2v.7l-.3.1h-1.3c-.2-.3-.4-.4-.4-.7-.3-.1-.4-.4-.4-.9v-3.1H32v-.4l.7-.4.3-1.1h.5v1.2h1.6v.7h-1.6v3.1c0 .3 0 .6.2.7.3.2.4.3.7.3Zm.9-4.8h1l1.1 3 .3.9.2.6.2-.5.3-1 1-3h1.1l-2.4 6c-.1.6-.4 1.1-.7 1.3-.4.3-.7.5-1.2.5h-.5l-.3-.1v-.7h.6c.3 0 .6 0 .8-.1l.4-.8.3-.7Zm0 0" style="fill:none;stroke-width:3;stroke-linecap:butt;stroke-linejoin:round;stroke:#fff;stroke-opacity:.6;stroke-miterlimit:10" transform=" rotate(  340 24.8733 169.418) "/> <g style="fill:#986e96;fill-opacity:1" transform=" rotate(  340 24.8733 169.418) ">  <use xlink:href="#q" x="-4.1" y="166.4"/>  <use xlink:href="#p" x="4.9" y="166.4"/>  <use xlink:href="#r" x="10.6" y="166.4"/>  <use xlink:href="#p" x="16.7" y="166.4"/>  <use xlink:href="#s" x="22.3" y="166.4"/>  <use xlink:href="#p" x="30.2" y="166.4"/>  <use xlink:href="#c" x="35.8" y="166.4"/>  <use xlink:href="#t" x="40.6" y="166.4"/>  <use xlink:href="#p" x="45.9" y="166.4"/>  <use xlink:href="#k" x="7" y="178.4"/>  <use xlink:href="#g" x="13.3" y="178.4"/>  <use xlink:href="#h" x="19.4" y="178.4"/>  <use xlink:href="#l" x="25.5" y="178.4"/>  <use xlink:href="#d" x="31.7" y="178.4"/>  <use xlink:href="#m" x="35.3" y="178.4"/> </g></svg>