<svg xmlns="http://www.w3.org/2000/svg" xmlns:xlink="http://www.w3.org/1999/xlink" viewBox="0 0 497 279"> <defs>  <path d="M1 0v-7.1h4V0Zm.4-.5h3.1v-6.1h-3Zm.1 0" id="reuse-0"/> </defs> <defs overflow="visible" style="stroke:none">  <path id="N" d="M2.4 0c-.6 0-1 0-1.4-.3C.6-.8.5-1.3.5-2c0-.3 0-.8.2-1.2 0-.4.3-.8.5-1.1.2-.4.5-.7.8-.8a2 2 0 0 1 1.2-.4c.5 0 .8.2 1.1.5.3 0 .4.4.4.8 0 .3-.1.7-.3 1-.4.2-.6.4-1 .6-.6.2-1.2.3-1.9.3h-.1v.3c0 .5 0 .8.3 1 .2.3.5.4.9.4l.7-.1A5 5 0 0 0 4-1v.7a6 6 0 0 1-.7.3h-.9Zm-.9-3 1.3-.1.7-.4c.2-.1.3-.4.3-.5l-.1-.6-.7-.1c-.2 0-.5.1-.9.4L1.6-3Zm1.8-3a5.6 5.6 0 0 1-.3-.6 11 11 0 0 1-.5-.5 4.1 4.1 0 0 1-.3-.5h1l.3.6.4.8v.2Zm0 0"/>  <path id="M" d="M.4 0 2-7.1h1.6c.9 0 1.5.1 2 .7.5.4.8 1.1.8 2.1a5 5 0 0 1-.5 2.2A3.7 3.7 0 0 1 4.5-.5C3.8-.2 3 0 2.2 0Zm1-.8h.9C3-.8 3.5-.9 4-1.2a3 3 0 0 0 1-1.3 4.2 4.2 0 0 0 .4-1.8c0-.7-.2-1.3-.4-1.6-.5-.3-1-.5-1.5-.5h-.8Zm.1 0"/>  <path id="L" d="m.3 0 1.6-7.6h.9l-.8 3c.1.6 0 1-.2 1.3l-.1.5 2.5-2.6h1L3-3l1.4 3h-1L2.3-2.5l-.7.5-.4 2Zm0 0"/>  <path id="K" d="M2.5 0C1.9 0 1.4 0 1-.4.7-.8.5-1.3.5-2l.1-1.2a4 4 0 0 1 .5-1.1c.3-.3.5-.7.9-.8.3-.2.7-.3 1.2-.3.6 0 1 .2 1.4.4.4.5.6 1.1.6 1.6L5-2a4 4 0 0 1-.5.9c-.2.5-.5.8-.8 1L2.5 0Zm0-.6c.5-.1.6-.1 1-.4.1-.2.3-.5.5-1 .2-.3.3-.8.3-1.4L4.2-4a1 1 0 0 0-.4-.5l-.6-.2c-.4 0-.7.1-1 .4-.2.2-.5.6-.6 1A4 4 0 0 0 1.4-2c0 .5 0 .8.3 1 .2.2.5.3.8.3Zm0-.1"/>  <path id="J" d="m.3 0 1.1-5.4h.7v1l.4-.5.6-.4.7-.2c.4 0 .7.2.9.5.2 0 .3.4.3.7l.5-.5.6-.5.9-.2c.3 0 .6.2.9.5.1 0 .2.4.2.9v.4l-.1.4L7.4 0h-.9l.7-3.4v-.4l.2-.2c-.1-.3-.1-.4-.3-.5 0-.2-.1-.2-.5-.2-.2 0-.4 0-.6.2l-.7.8c-.3.3-.4.7-.5 1.3L4.3 0h-1l.9-3.4v-1.1c-.4-.2-.5-.2-.8-.2-.1 0-.3 0-.6.2l-.6.8c-.3.3-.4.7-.5 1.4L1.2 0Zm0 0"/>  <path id="I" d="m.3 0 1.6-7.6h.9L1.2 0Zm0 0"/>  <path id="H" d="M2.5 0C1.9 0 1.4 0 1-.3.7-.7.5-1.2.5-2c0-.4 0-1 .2-1.3l.5-1c.3-.5.6-.7 1-1 .2-.1.6-.2.9-.2l.9.1.6.2-.2.7-.5-.1-.6-.1c-.4 0-.7.1-1 .4-.3.2-.5.6-.7 1A4 4 0 0 0 1.4-2c0 .5 0 .8.3 1 .2.2.5.3.9.3h.6a7 7 0 0 0 .6-.3v.8l-.6.2h-.7Zm0 0"/>  <path id="G" d="M.4 0 2-7.1h1L1.4-.8h2.8L4 0Zm0 0"/>  <path id="F" d="M1.8 0H1L.2-.2v-.9l.7.3 1 .1.8-.1.6-.4c.2-.2.2-.6.2-.8 0-.3 0-.5-.2-.7l-1-.6a4.4 4.4 0 0 1-.6-.5 1.9 1.9 0 0 1-.5-.6L1-5.2c0-.4.1-.8.4-1.1a2 2 0 0 1 .8-.7 3 3 0 0 1 1.2-.2h1l.8.5-.4.6-.6-.2-.8-.2c-.4 0-.7.2-1 .5-.4 0-.4.4-.4.8l.1.5.4.4.5.3.8.5a2 2 0 0 1 .5.6l.2.9c0 .6-.3 1.2-.8 1.5-.3.5-.9.6-1.8.6Zm0 0"/>  <path id="E" d="M.3-2.3.4-3h2.4l-.2.7Zm0 0"/>  <path id="D" d="M.4 0 2-7.1h1.8c.6 0 1.2 0 1.5.3.4.3.7.8.7 1.3-.1.5-.3.9-.5 1.2-.3.3-.7.5-1.2.6l.7.5c.3.3.4.6.4 1 0 .5 0 .9-.3 1.2L4-.2 2.7 0Zm1.8-4h1.1l.9-.3.5-.4c.3-.2.3-.3.3-.7 0-.3-.1-.5-.3-.6-.2-.3-.7-.4-1-.4h-1ZM1.5-.9h1.2c.6.1 1 .1 1.3-.1.3-.4.5-.7.5-1.2 0-.3-.1-.6-.3-.8-.2-.3-.6-.4-1-.4H2Zm0 .1"/>  <path id="C" d="M3.3 0c-.8 0-1.5 0-2-.5C1-1.1.8-1.8.8-2.6.7-3.1.7-3.5 1-4c-.1-.4 0-.8.3-1.2l.8-1L3-7l1.7-.2c.5 0 1.1.1 1.6.4l-.3.7a4 4 0 0 0-.7-.2l-.7-.2c-.6 0-1 .2-1.3.5-.4 0-.7.4-1 .8A4 4 0 0 0 1.9-4l-.2 1.3c0 .7.1 1.1.3 1.5.4.3 1 .5 1.4.5h.8L5-1v.8l-.8.2a5 5 0 0 1-1 0Zm0 0"/>  <path id="B" d="M.4 0 2-7.1h3.5l-.1.8H2.6l-.4 2.2h2.5l-.1.8H2L1.5-.8h2.7L4 0Zm0 0"/>  <path id="A" d="M0 0v-.7l4.5-5.6H1.3l.2-.8h4.2l-.1.7L1.2-.8h3.3l-.2.8Zm0 0"/>  <path id="z" d="M1.8 0c-.3 0-.6 0-.8-.1C.7-.3.6-.6.6-1v-.8l.8-2.9h-1L.5-5l1-.5.5-1h.6l-.3 1h1.3l-.1.8H2.2l-.7 3v.8l.5.3h.3l.4-.3V0h-.9Zm0 0"/>  <path id="y" d="M.4 0 2-7.1h1.2l.7 5.8 3.2-5.8h1.3L7 0H6l1-4.2a47.9 47.9 0 0 1 .4-2L4 0h-.7l-.8-6.3-.1.6-.1.7-.1.7-1 4.3Zm0 0"/>  <path id="x" d="M2 0c-.6 0-.9 0-1.2-.3C.6-.7.5-1 .5-1.7c0-.5 0-1 .2-1.4 0-.5.3-.9.5-1.2.2-.4.5-.7.8-.8a2 2 0 0 1 1.1-.4c.4 0 .7.1.9.3l.5.7a35.3 35.3 0 0 1 .2-1.3l.4-1.8H6L4.4 0h-.8l.1-1-.8.8c-.3.2-.6.2-.9.2Zm.1-.5c.4-.1.6-.2.9-.5l.5-.5.5-1 .2-1.1c0-.4-.2-.6-.3-.8-.1-.2-.4-.3-.7-.3-.3 0-.5 0-.8.2l-.4.7-.5 1-.1 1.1c0 .7.3 1 .8 1Zm.1-.1"/>  <path id="w" d="M3 2.4 3.5.1v-.5l.4-.6h-.3l-.7.8c-.3.2-.6.2-.9.2s-.8-.1-1-.4C.6-.7.5-1 .5-1.7c0-.5 0-1 .2-1.4 0-.5.3-.9.5-1.2.2-.4.5-.7.8-.8a2 2 0 0 1 1.1-.4c.4 0 .7.1.9.3l.5.7.3-.9h.7L3.8 2.4Zm-.8-3c.3 0 .5-.1.8-.4l.5-.5a3.8 3.8 0 0 0 .6-2c.1-.5.1-.8-.1-1-.2-.1-.5-.2-.8-.2-.3 0-.5 0-.7.2-.3.2-.5.5-.6.7l-.4 1-.1 1.1c0 .7.3 1 .8 1Zm0 0"/>  <path id="v" d="M2.1-6.3h-.3l-.1-.5.1-.4.4-.2c.3 0 .5.2.5.5 0 .2 0 .4-.2.5l-.4.2ZM.3 0l1.1-5.4h.9L1.2 0Zm0 0"/>  <path id="u" d="m.2 0 1.2-5.4h.8l-.2 1 .5-.6a2 2 0 0 1 .6-.3l.9-.2c.3 0 .6.1.9.5.1 0 .4.4.4.9v.4l-.2.5L4.4 0h-.9l.7-3.4v-.4l.2-.2c-.1-.5-.3-.7-.8-.7-.2 0-.4 0-.6.2-.3.2-.6.5-.8.8-.2.3-.4.8-.5 1.4L1.2 0Zm0 0"/>  <path id="t" d="M1.9 0c-.4 0-.7 0-1-.1C.7-.5.5-.8.5-1.2v-.5L.8-2l.6-3.4h.9L1.4-2v1.2l.8.2c.2 0 .4-.1.8-.4l.6-.6.5-1.4.5-2.4h.9L4.4 0h-.8l.1-1-.5.5-.4.5-.9.1Zm0 0"/>  <path id="s" d="M2 0c-.6 0-.9 0-1.2-.3C.6-.7.5-1 .5-1.7c0-.5 0-1 .2-1.5l.5-1.1c.2-.4.5-.7.8-.9a2 2 0 0 1 1.1-.3c.4 0 .6.1.9.3l.5.7.3-.9h.7L4.4 0h-.7l.1-1c-.3.3-.5.6-.9.8-.3.2-.6.2-.9.2Zm.1-.5c.4-.1.6-.2.9-.5l.6-.6a4 4 0 0 0 .4-1 3 3 0 0 0 .1-.7 4 4 0 0 0 0-.4c.1-.3.1-.5-.1-.7-.3-.2-.5-.3-.8-.3-.3 0-.5 0-.7.2a2 2 0 0 0-.6.7l-.4 1-.1 1.1c0 .4 0 .6.2.8.1.2.3.3.6.3Zm.1-.1"/>  <path id="r" d="M-.5 2.4h-.3l-.3-.1v-.7h.5c.3.1.6.1.6-.1l.3-1 1.1-5.2h-1L.7-5l.9-.4v-.5l.6-1c0-.3.2-.5.4-.6a2 2 0 0 1 .9-.2l.5.1.4.1-.2.7h-.3L3.5-7c-.2 0-.4 0-.5.3l-.5.8v.5h.9v.7H2.3L1.2.6C1 1.2.9 1.6.6 2c-.2.2-.6.4-1 .4Zm0 0"/>  <path id="q" d="M1 0 .6-5.4h.8l.3 3v1.7h.2l.1-.5a24.4 24.4 0 0 1 .6-1.2l1.6-3h1L2.2 0Zm0 0"/>  <path id="p" d="m.3 0 1.1-5.4h.7v1l.4-.5.5-.4.7-.2H4l.3.2-.2.7h-.5c-.3-.1-.6-.1-.9.2l-.7.9-.3 1L1.2 0Zm0 0"/>  <path id="o" d="M2.4 0c-.6 0-1 0-1.4-.3C.6-.8.5-1.3.5-2c0-.3 0-.8.2-1.2 0-.4.3-.8.5-1.1.2-.4.5-.7.8-.8a2 2 0 0 1 1.2-.4c.5 0 .8.2 1.1.5.3 0 .4.4.4.8 0 .3-.1.7-.3 1-.4.2-.6.4-1 .6-.6.2-1.2.3-1.9.3h-.1v.3c0 .5 0 .8.3 1 .2.3.5.4.9.4l.7-.1A5 5 0 0 0 4-1v.7a6 6 0 0 1-.7.3h-.9Zm-.9-3 1.3-.1.7-.4c.2-.1.3-.4.3-.5l-.1-.6-.7-.1c-.2 0-.5.1-.9.4L1.6-3Zm0 0"/>  <path id="n" d="M1.5 0H.7L0-.2V-1l.7.3h.8c.5.1.7.1 1-.1l.1-.7c.1-.1.1-.3-.1-.4 0-.2-.3-.3-.7-.5L1-3.1c-.2-.2-.3-.5-.3-.8 0-.5.1-.9.5-1.1.3-.3.7-.5 1.3-.5.3 0 .6 0 .9.2l.6.2-.2.7-.5-.2-.8-.1c-.3 0-.5 0-.7.2-.2.1-.2.3-.2.5l.1.5.7.5c.3 0 .6.2.6.4.2 0 .4.2.5.4l.1.7c0 .5-.2 1-.5 1.2C2.7 0 2 0 1.5 0Zm0 0"/>  <path id="m" d="M2.4 0c-.6 0-1 0-1.4-.3C.6-.8.5-1.3.5-2c0-.3 0-.8.2-1.2 0-.4.3-.8.5-1.1.2-.4.5-.7.8-.8a2 2 0 0 1 1.2-.4c.5 0 .8.2 1.1.5.3 0 .4.4.4.8 0 .3-.1.7-.3 1-.4.2-.6.4-1 .6-.6.2-1.2.3-1.9.3h-.1v.3c0 .5 0 .8.3 1 .2.3.5.4.9.4l.7-.1A5 5 0 0 0 4-1v.7a6 6 0 0 1-.7.3h-.9Zm-.9-3 1.3-.1.7-.4c.2-.1.3-.4.3-.5l-.1-.6-.7-.1c-.2 0-.5.1-.9.4L1.6-3Zm1.3-3v-.3l.2-.3a16.8 16.8 0 0 0 1-1h.9l-.4.6-.6.5a6 6 0 0 1-.6.4Zm0 0"/>  <path id="l" d="M.4 0 2-7.1h1.5c1.5 0 2.2.6 2.2 1.8 0 .5-.1 1-.4 1.3-.3.4-.7.7-1.4.8L5.1 0H4l-.9-3H1.9l-.6 3Zm1.7-3.7h.8c.6 0 1.1-.1 1.4-.4.3-.3.5-.7.5-1.2 0-.4-.2-.7-.4-.7-.2-.3-.4-.4-1-.4h-.7Zm-.1 0"/>  <use xlink:href="#reuse-0"/>  <path id="k" d="M4.1 0 1.8-6.3V0H1v-7.1h1.3l2.2 5.8 2.3-5.8H8V0h-.8v-6.2L5 0Zm0 0"/>  <path id="j" d="M3.4-5.5c.7 0 1.2.2 1.6.5.2.3.4.8.4 1.5V0h-.9v-3.4c0-.9-.4-1.3-1.2-1.3-.6 0-1 .1-1.2.5-.3.2-.4.8-.4 1.4V0H.8v-5.4h.8v.8h.2c.2-.4.3-.5.7-.7l1-.2Zm0 0"/>  <path id="i" d="M5.5-2.7c0 .9-.2 1.7-.7 2-.4.7-1 .9-1.8.9-.5-.2-.9-.2-1.3-.4-.3-.2-.6-.6-.7-1C.6-1.6.5-2 .5-2.7c0-.9.3-1.6.7-2 .5-.5 1-.8 1.8-.8.5 0 1 .2 1.3.5.4 0 .7.4.9.9.2.2.3.7.3 1.3Zm-4 0c0 .7 0 1.2.3 1.5.3.4.7.6 1.2.6.6 0 1-.2 1.2-.6.3-.3.4-.8.4-1.5s-.1-1.1-.4-1.5c-.2-.3-.6-.5-1.2-.5-.5 0-1 .2-1.2.5-.2.4-.3.9-.3 1.5Zm0 0"/>  <path id="h" d="M2.6-.6H3l.4-.2v.7L3 0H1.7l-.6-.5-.1-1v-3.3H.2V-5l.7-.5.4-1h.5v1h1.5v.8H1.8v3.1c0 .3 0 .6.2.7l.6.3Zm0 0"/>  <path id="g" d="M1.7 0H.8v-7.6h1Zm0 0"/>  <path id="f" d="M3-5.5c.3 0 .7.1 1 .3a2 2 0 0 1 1 .9v1.8H1.5c0 .5.1 1 .4 1.4.3.3.7.4 1.3.4H4l.9-.3v.8L4 0a5 5 0 0 1-1 0 3 3 0 0 1-1.2-.1 2.2 2.2 0 0 1-1-1.1c0-.2-.2-.8-.2-1.3-.1-.7 0-1.2.2-1.6.2-.5.5-.9.9-1 .3-.2.7-.4 1.2-.4Zm0 .8c-.6 0-.9.1-1 .4-.4.2-.6.6-.6 1.1h2.8c0-.5-.1-.8-.3-1.1-.2-.3-.5-.4-1-.4Zm0 0"/>  <path id="e" d="M1.7-7.6v2.9l.7-.5c.2-.2.6-.3 1-.3.6 0 1.2.3 1.6.8.4.4.6 1.1.6 1.9C5.6-1.7 5.4-1 5-.6c-.4.6-1 .7-1.6.7-.4-.1-.8-.1-1-.2l-.7-.6-.2.7H.8v-7.6Zm1.5 2.9c-.5 0-1 .1-1.1.5-.3.2-.4.8-.4 1.5s.1 1.2.3 1.5c.3.4.7.6 1.3.6.4 0 .7-.2 1-.6.3-.3.4-.8.4-1.5 0-1.3-.5-2-1.5-2Zm0 0"/>  <path id="d" d="M3.4-5.5c.7 0 1.2.3 1.6.7.4.5.6 1.2.6 2.1 0 1-.2 1.7-.6 2-.4.7-1 .9-1.6.9-.4-.2-.8-.2-1-.3l-.7-.6v3.1H.8v-7.8h.8v.8h.2c.2-.4.3-.5.6-.6.2-.2.6-.3 1-.3Zm-.2.8c-.5 0-.9.1-1.1.5-.2.2-.4.7-.4 1.2v.3c0 .7.1 1.2.3 1.5.3.4.7.6 1.3.6.3 0 .6-.1.7-.4l.5-.6.2-1.1c0-.6-.1-1.1-.4-1.5-.2-.3-.6-.5-1-.5Zm0 0"/>  <path id="c" d="M6.7-5.5c.6 0 1 .2 1.4.5.3.3.4.8.4 1.5V0h-.8v-3.5c0-.8-.4-1.2-1.1-1.2-.6 0-1 .1-1.1.4C5.2-4 5-3.5 5-3v3h-.7v-3.5c0-.8-.4-1.2-1.1-1.2-.6 0-1 .1-1.2.5-.2.2-.3.8-.3 1.4V0H.8v-5.4h.8v.8h.2l.6-.7 1-.2c.7 0 1.2.3 1.6 1 .2-.5.4-.7.7-.8.3-.1.7-.2 1-.2Zm0 0"/>  <path id="b" d="M2.9-5.5c.6 0 1.1.2 1.4.5.3.3.5.7.5 1.3V0h-.6L4-.8c-.3.3-.5.6-.8.8h-1c-.5 0-1 0-1.3-.3C.6-.5.5-.9.5-1.5c0-.5.2-1 .5-1.2.5-.3 1-.5 2-.5h.8v-.3c.2-.5.2-.8-.2-1l-.8-.2H2l-.7.5L1-5l1-.3.9-.2Zm1 2.9h-.8c-.6 0-1 .1-1.4.3-.1.3-.3.5-.3.8 0 .3 0 .5.2.7l.7.2c.5 0 .9-.1 1.2-.4.3-.2.4-.6.4-1Zm.1 0"/>  <path id="a" d="M4-6.5c-.7 0-1.3.3-1.8.8-.4.5-.6 1.2-.6 2.1 0 1 .2 1.6.6 2.1.4.6 1 .8 1.8.8h1l.6-.3v.8L5 0H4c-.8 0-1.4 0-2-.2a2.8 2.8 0 0 1-1-1.4c-.3-.6-.4-1.2-.4-2 0-.7.1-1.3.4-1.9a3 3 0 0 1 1.2-1.3c.5-.2 1.1-.4 1.8-.4.8 0 1.5.1 2 .4l-.3.7-.8-.2a3 3 0 0 0-.9-.2Zm0 0"/>  <use xlink:href="#reuse-0"/> </defs> <image xlink:href="svg/9/109_9.jpg" width="497" height="279"/> <path d="M288.4 272c-.8 0-1.4.3-1.8.8-.6.5-.7 1.2-.7 2 .1 1.1.2 1.8.6 2.2.5.5 1 .8 1.9.8l.9-.1.7-.2v.8l-.7.2h-1c-.9 0-1.5-.1-2-.4a2.8 2.8 0 0 1-.9-1.3c-.4-.5-.4-1.2-.4-2 0-.5 0-1.2.4-1.8a3 3 0 0 1 1.1-1.3c.5-.3 1.2-.5 1.9-.5.8 0 1.4.2 2 .4l-.4.8-.7-.4a3 3 0 0 0-1 0Zm5.2 1c.6 0 1 .1 1.4.4.3.3.5.8.5 1.4v3.6h-.7l-.1-.7-.9.6c-.2.2-.5.2-.9.2-.7 0-1.1 0-1.4-.3-.2-.3-.4-.7-.4-1.2 0-.6.2-1 .7-1.3.4-.3 1-.4 2-.5h.7v-.2c.1-.5.1-.9-.2-1.1l-.8-.1h-.8l-.7.3-.3-.6.9-.5h1Zm1 2.8h-.8c-.7.1-1.1.2-1.4.5-.2.1-.3.3-.3.7-.1.3-.1.5.2.6.2.2.4.2.7.2.5 0 1 0 1.2-.3.3-.3.4-.7.4-1.2Zm8.4-2.8c.6 0 1 .2 1.4.5.3.3.4.8.4 1.5v3.4h-.8V275c0-.8-.4-1.3-1.1-1.3-.6 0-1 .3-1.2.5-.2.3-.3.7-.3 1.3v3h-.8V275c0-.8-.4-1.3-1.2-1.3-.4 0-.9.3-1 .5-.4.4-.4.8-.4 1.5v2.7h-.9v-5.3h.7l.2.7c.2-.3.4-.5.7-.6l.9-.2c.8 0 1.4.3 1.6.9h.1l.7-.7 1-.2Zm6 0c.7 0 1.2.2 1.6.7.4.3.6 1.1.6 2 0 1.1-.2 1.8-.6 2.2-.4.4-1 .6-1.6.6-.4 0-.7 0-1-.2-.3-.1-.5-.3-.6-.5v3.1h-1V273h.9v.8l.7-.6 1-.2Zm0 .7c-.7 0-1.1.3-1.3.5-.2.3-.3.8-.3 1.4v.2c0 .6 0 1.1.3 1.5.2.3.6.5 1.2.5.3 0 .6 0 .8-.2l.5-.8.1-1c0-.8-.1-1.3-.3-1.6-.3-.3-.6-.5-1.1-.5Zm4.5-2.8v1.8a15.8 15.8 0 0 1 0 1l.6-.4 1-.3c.8 0 1.4.2 1.8.7.3.5.5 1.1.5 2 0 1.1-.2 1.8-.6 2.3-.4.3-1 .5-1.6.5-.4 0-.8 0-1-.2l-.8-.5-.2.6h-.6V271Zm1.5 2.8c-.5 0-1 .3-1.2.5-.2.4-.3.9-.3 1.5 0 .8.1 1.3.3 1.7.3.2.7.4 1.3.4.4 0 .8-.2.9-.5.4-.4.5-.9.5-1.5 0-1.4-.5-2-1.5-2Zm5.9-.7c.4 0 .8.1 1.1.3a2 2 0 0 1 .8.7c.2.5.3 1 .3 1.4v.5h-3.7c0 .7.2 1.1.5 1.4.3.3.7.5 1.1.5l1.1-.1.6-.3v.8l-.7.3a5 5 0 0 1-1 0 3 3 0 0 1-1.2-.3 2.2 2.2 0 0 1-1-.9c-.2-.3-.3-.9-.3-1.5s0-1 .3-1.5l.8-1c.4-.2.8-.3 1.4-.3Zm0 .7c-.6 0-.9.3-1.1.4-.3.3-.4.7-.5 1.1h2.8c0-.4 0-.8-.3-1-.2-.4-.5-.6-1-.6Zm4.4 4.7h-.9V271h1Zm2.6 0h-.9V271h.9Zm3.5-.6h.6v.5l-.3.2h-.5l-.8-.1c-.2 0-.4-.3-.4-.5-.3-.2-.3-.6-.3-1v-3.1h-.8v-.4l.8-.4.3-1.1h.5v1.1h1.6v.8h-1.6v3c0 .5.1.7.3.9l.6.1Zm6.5-2c0 .8-.3 1.5-.7 2-.5.5-1 .7-1.8.7-.5 0-1 0-1.4-.3-.3-.2-.6-.5-.8-1-.2-.2-.2-.7-.2-1.3-.1-1.1 0-1.7.6-2.1.4-.7 1-.8 1.8-.8.5 0 .9.1 1.3.3.3.2.6.5.8 1 .3.4.5.9.5 1.5Zm-4.1 0c0 .6.1 1.1.4 1.5.2.3.6.5 1.2.5.5 0 1-.2 1.2-.5.2-.4.3-.9.3-1.5.1-.8.1-1.2-.3-1.5-.3-.4-.7-.6-1.2-.6-.6 0-1 .3-1.2.6-.3.3-.4.7-.4 1.5Zm8-2.8c.7 0 1.2.2 1.5.5.3.3.5.8.5 1.5v3.4h-1V275c.1-.8-.2-1.3-1-1.3s-1.1.3-1.3.5c-.3.4-.5.8-.5 1.5v2.7h-.8v-5.3h.8v.7h.2c.1-.3.3-.5.6-.6l1-.2Zm0 0" style="fill:none;stroke-width:3;stroke-linecap:butt;stroke-linejoin:round;stroke:#fff;stroke-opacity:.6;stroke-miterlimit:10" transform=" rotate(  340 314.536 275.45) "/> <g style="fill:#222;fill-opacity:1" transform=" rotate(  340 314.536 275.45) ">  <use xlink:href="#a" x="284.4" y="278.4"/>  <use xlink:href="#b" x="290.7" y="278.4"/>  <use xlink:href="#c" x="296.3" y="278.4"/>  <use xlink:href="#d" x="305.6" y="278.4"/>  <use xlink:href="#e" x="311.8" y="278.4"/>  <use xlink:href="#f" x="317.9" y="278.4"/>  <use xlink:href="#g" x="323.6" y="278.4"/>  <use xlink:href="#g" x="326.2" y="278.4"/>  <use xlink:href="#h" x="328.7" y="278.4"/>  <use xlink:href="#i" x="332.3" y="278.4"/>  <use xlink:href="#j" x="338.4" y="278.4"/> </g> <path d="m131.6 26.3-2.4-6.2v6.2h-.8v-7h1.3L132 25l2.3-5.8h1.2v7.1h-.9V21l.2-1-2.5 6.3Zm7.8-5.4c.6 0 1.1.1 1.4.4.3.3.5.8.5 1.4v3.6h-.6l-.2-.7c-.3.3-.5.4-.8.6-.2.2-.6.2-1 .2-.5 0-1 0-1.3-.3-.3-.3-.4-.7-.4-1.2 0-.6.2-1 .6-1.3.4-.3 1-.4 2-.5h.7v-.3c.1-.4.1-.8-.2-1l-.8-.1h-.8l-.7.3-.2-.6.8-.4h1Zm1 2.8h-.8c-.6.1-1 .3-1.3.5-.3.1-.4.3-.4.7 0 .3 0 .5.1.6.3.2.6.2.8.2.5 0 .9 0 1.2-.3.3-.4.4-.7.4-1.2Zm4.4 2h.7v.5h-.4l-.5.3-.8-.2c-.2 0-.4-.3-.5-.5-.3-.2-.3-.6-.3-1v-3.1h-.7v-.4l.7-.4.4-1.1h.5V21h1.6v.7h-1.6v3c.1.5.1.7.2.9l.7.1Zm3.8-4.8c.7 0 1.1.1 1.5.4.3.3.4.8.4 1.4v3.6h-.5l-.3-.7c-.3.3-.5.4-.8.6-.2.2-.6.2-.9.2-.6 0-1.1 0-1.3-.3-.4-.3-.5-.7-.5-1.2 0-.6.2-1 .6-1.3.4-.3 1-.4 2-.5h.9v-.3c0-.4-.1-.8-.3-1l-.8-.1h-.8l-.8.3-.2-.6.8-.4h1Zm1 2.8h-.6c-.8.1-1.3.3-1.5.5-.3.1-.5.3-.5.7.1.3.1.5.4.6.2.2.4.2.6.2.5 0 .9 0 1.2-.3.3-.4.5-.7.5-1.2ZM154.8 20.9c.6 0 1 .1 1.4.5.3.3.5.8.5 1.5v3.4h-.9V23c0-.9-.4-1.4-1.2-1.4-.6 0-1 .2-1.2.5-.2.4-.3.9-.3 1.5v2.7H152V21h1v.7c.3-.3.6-.5.9-.6l.9-.2Zm5.6 0c.6 0 .9.1 1.2.3a2 2 0 0 1 .8.8c.2.4.2.8.2 1.3v.5H159c0 .6 0 1.2.4 1.4.3.3.8.5 1.3.5l.9-.1c.3 0 .4-.2.8-.3v.8l-.8.3a5 5 0 0 1-1 0 3 3 0 0 1-1.3-.3 2.2 2.2 0 0 1-1-.9l-.1-1.5c-.2-.6-.2-1 .2-1.5.2-.4.4-.7.8-1 .3-.2.8-.2 1.2-.2Zm0 .7c-.4 0-.7.1-1 .4-.2.3-.4.7-.4 1.1h2.7c0-.4 0-.8-.3-1-.2-.4-.4-.6-1-.6Zm0 0" style="fill:none;stroke-width:3;stroke-linecap:butt;stroke-linejoin:round;stroke:#fff;stroke-opacity:.6;stroke-miterlimit:10" transform=" rotate(  340 147.009 23.3479) "/> <g style="fill:#222;fill-opacity:1" transform=" rotate(  340 147.009 23.3479) ">  <use xlink:href="#k" x="127.4" y="26.3"/>  <use xlink:href="#b" x="136.5" y="26.3"/>  <use xlink:href="#h" x="142.1" y="26.3"/>  <use xlink:href="#b" x="145.7" y="26.3"/>  <use xlink:href="#j" x="151.3" y="26.3"/>  <use xlink:href="#f" x="157.5" y="26.3"/> </g> <path d="m248.7 51 1.5-7h1.5c1.5 0 2.3.4 2.3 1.6 0 .6-.2 1.1-.5 1.5-.2.3-.7.6-1.3.8l1.1 3.2h-1l-.9-3.1h-1.2l-.7 3.1Zm1.6-3.5h.8c.7-.1 1.2-.3 1.5-.6.3-.3.4-.6.4-1.1 0-.4 0-.8-.3-.9l-1-.2h-.8Zm6.1 3.6c-.6 0-1.1-.1-1.4-.5-.4-.3-.5-.8-.5-1.5l.1-1.1.6-1.3.8-.7a2 2 0 0 1 1.1-.4c.5 0 1 .1 1.2.3.2.2.4.6.4 1.1 0 .2-.1.5-.4.8-.2.3-.5.5-1 .7-.3.2-1 .2-1.8.2h-.1v.4c0 .4 0 .7.3 1 .1.2.5.3.9.3h.7a5 5 0 0 0 .7-.4v.8a6 6 0 0 1-.7.2l-.9.1Zm-.9-3 1.3-.3c.2.2.5-.1.7-.2.2-.2.3-.4.3-.7 0-.2 0-.3-.2-.4l-.5-.2c-.3 0-.6.2-1.1.5 0 .2-.3.7-.4 1.2Zm1.2-3.1v-.1l.4-.5.4-.4.5-.6h.9l-.5.6-.4.5a6 6 0 0 1-.7.5Zm3.8 6.1h-.8l-.7-.3V50l.7.3.8.1c.4 0 .7 0 .9-.2l.3-.6c0-.2 0-.4-.2-.5l-.7-.5-.9-.6-.2-1c0-.3.1-.7.3-.9.5-.5 1-.6 1.5-.6l.9.2.6.3-.2.7-.6-.3h-1.4l-.3.7c0 .1 0 .3.2.4l.7.5.6.4.4.6.2.5c0 .6-.2 1-.6 1.2-.3.3-.9.4-1.5.4Zm5.2 0c-.6 0-1-.1-1.4-.5-.4-.3-.5-.8-.5-1.5l.1-1.1.6-1.3.8-.7a2 2 0 0 1 1.1-.4c.6 0 1 .1 1.2.3.2.2.4.6.4 1.1 0 .2-.1.5-.4.8-.2.3-.5.5-1 .7-.4.2-1 .2-1.6.2h-.3v.4c0 .4 0 .7.3 1 .2.2.5.3.9.3h.7a5 5 0 0 0 .7-.4v.8a6 6 0 0 1-.7.2l-.9.1Zm-.9-3 1.2-.3c.3.2.6-.1.8-.2.2-.2.3-.4.3-.7 0-.2 0-.3-.1-.4l-.6-.2c-.3 0-.6.2-1 .5-.1.2-.4.7-.5 1.2Zm3.8 2.9 1.1-5.2h.7v.9l.4-.5.5-.4.7-.2h.6l-.2 1-.5-.2c-.4 0-.7.1-1 .3l-.5.9c-.2.3-.4.6-.4 1l-.6 2.5Zm4.8 0-.7-5.2h1l.1 2.9v.6l.2.6v.5l.4-.6.2-.6.4-.6 1.5-2.9h1l-3.1 5.4Zm6 .1c-.7 0-1.2-.1-1.5-.5-.3-.3-.5-.8-.5-1.5 0-.4 0-.8.2-1.1l.4-1.3c.4-.3.6-.6 1-.7a2 2 0 0 1 1-.4c.7 0 1 .1 1.3.3.2.2.3.6.3 1.1 0 .2 0 .5-.3.8-.3.3-.6.5-1 .7-.5.2-1 .2-1.8.2h-.2v.4c0 .4.1.7.3 1 .2.2.5.3 1 .3h.5a5 5 0 0 0 .9-.4v.8a6 6 0 0 1-.8.2l-.8.1Zm-1-3h.1l1.1-.3c.4.2.6-.1.8-.2.3-.2.4-.4.4-.7l-.2-.4-.6-.2c-.3 0-.6.2-.9.5-.3.2-.5.7-.7 1.2ZM244.8 65.4h-.3l-.3-.1v-.7h.5c.3.1.5.1.6-.1l.3-1 1.1-5.2h-1l.3-.4.9-.3v-.5l.6-1c0-.3.2-.5.4-.6a2 2 0 0 1 .9-.2l.5.1.4.1-.2.7-.3-.1h-.4c-.2-.1-.4-.1-.6.2-.2.1-.3.4-.4.7v.6h.9v.7h-1.2l-1 5.3c-.1.6-.3 1-.6 1.4-.3.2-.6.4-1.1.4Zm5.6-2.4c-.4 0-.8 0-1-.3-.4-.4-.4-.7-.4-1.4v-1.5l.7-1.2.8-.8a2 2 0 0 1 1-.3c.5 0 .8.1 1.1.3l.2.7.6-.9h.6l-1.2 5.4h-.7l.2-1-1 .8c-.2.2-.5.2-.9.2Zm.3-.5c.2-.1.5-.2.7-.5.2-.1.6-.3.6-.6a4 4 0 0 0 .5-1 3 3 0 0 0 0-.7 4 4 0 0 0 .2-.4c-.1-.3-.1-.5-.3-.7-.2-.2-.4-.3-.7-.3-.3 0-.5 0-.7.2a2 2 0 0 0-.6.7l-.4 1-.2 1c0 .5.2.8.3 1 .1.1.3.2.6.2Zm5.3.5c-.4 0-.7 0-1-.1-.1-.4-.2-.7-.2-1.1V61l.7-3.4h.9l-.7 3.4-.1.7.1.5.6.2c.2 0 .5-.1.7-.4.3 0 .5-.3.8-.6l.5-1.5.5-2.3h.8l-1 5.4h-.9l.2-1-.5.5-.6.5-.8.1Zm4.2 0 1.1-5.4h.8l-.1 1 .5-.6a2 2 0 0 1 .5-.3l.8-.2c.4 0 .8.1 1 .5.3 0 .4.4.4.9v.4l-.2.4-.6 3.3h-1l.8-3.4V59c.1-.5-.2-.7-.6-.7-.2 0-.6 0-.7.2l-.9.8c0 .3-.3.7-.4 1.4l-.5 2.3Zm7.7-6.3h-.4l-.1-.5.1-.4.5-.2c.3 0 .4.2.4.5 0 .2 0 .4-.2.5l-.2.1ZM266 63l1.2-5.4h.8l-1 5.4Zm5.3 2.4.5-2.3.1-.5.2-.6-1 .8c-.1.2-.5.2-.9.2s-.7-.1-1-.4c-.3-.3-.4-.6-.4-1.3 0-.5 0-1 .2-1.4 0-.5.3-.9.5-1.2.2-.4.5-.7.8-.8a2 2 0 0 1 1.1-.4c.4 0 .7.1.9.3l.5.7.4-.9h.6l-1.6 7.8Zm-.8-3c.3 0 .5-.1.7-.4l.6-.6a3.8 3.8 0 0 0 .6-2c.1-.4.1-.6-.1-.8-.2-.2-.5-.3-.8-.3-.3 0-.5 0-.7.2-.3.2-.5.5-.6.7l-.4 1-.1 1c0 .8.3 1.3.8 1.3Zm5.5.6c-.4 0-.7 0-1-.1-.2-.4-.4-.7-.4-1.1v-.5l.3-.3.6-3.4h.8l-.7 3.4v1.2l.7.2c.2 0 .4-.1.7-.4l.7-.6.5-1.5.5-2.3h.9l-1.1 5.4h-.8l.1-1-.5.5-.5.5-.8.1Zm6.3 0c-.6 0-1 0-1.3-.3-.5-.5-.6-1-.6-1.7l.1-1.2c.2-.4.3-.8.6-1.1.2-.4.5-.7.8-.8a2 2 0 0 1 1.1-.4c.6 0 1 .1 1.2.5.2 0 .4.4.4.8 0 .2-.1.7-.4 1-.2.2-.4.4-.9.5-.5.3-1.1.4-1.8.4h-.2v.3c0 .4 0 .8.3 1 .2.3.4.4.9.4l.7-.1a5 5 0 0 0 .7-.4v.8a6 6 0 0 1-.7.3h-.9Zm-.9-3 1.3-.1.7-.4.3-.5c0-.3 0-.5-.2-.6l-.5-.1c-.3 0-.6.1-1 .4l-.5 1.3Zm-38 15c-.4 0-.8 0-1-.4-.4-.3-.6-.8-.6-1.4l.3-1.4.5-1.2c.4-.3.5-.6.9-.8a2 2 0 0 1 1-.3c.5 0 .8 0 1.1.3l.2.6a35.3 35.3 0 0 1 .5-1.3l.3-1.8h.8l-1.6 7.7h-.7l.1-1-.8.7c-.4.3-.6.3-1 .3Zm.3-.7c.2 0 .3 0 .6-.2l.7-.7.4-1c.2-.3.2-.7.2-1.1 0-.3 0-.6-.2-.8-.2-.2-.4-.3-.8-.3-.2 0-.5.1-.6.3l-.7.7-.3 1-.2.9c0 .9.3 1.2.9 1.2Zm6 .7c-.7 0-1.1 0-1.5-.5-.2-.4-.5-.9-.5-1.5 0-.4 0-.8.3-1.3l.4-1 .9-1.1a2 2 0 0 1 1.1 0c.6-.1.9-.1 1.1.2.3.2.5.5.5 1 0 .2 0 .5-.4.8-.2.4-.5.6-1 .8l-1.8.2h-.2v.4c0 .4.1.7.4 1 .1.1.4.2 1 .2h.4a5 5 0 0 0 .9-.3v.7a6 6 0 0 1-.8.4h-.8Zm-1-3h1.3l.8-.7c.2 0 .2-.2.2-.5 0-.2 0-.3-.1-.4l-.5-.2c-.4 0-.7.2-1 .5-.3.2-.4.7-.6 1.2Zm6.5 3 1.5-7.3h1.3l.7 5.9 3.3-5.8h1.3l-1.5 7.1h-.9l.9-4.2a47.9 47.9 0 0 1 .5-2l-3.5 6.2h-.7l-.7-6.2-.3.5v.8l-.1.6-1 4.4Zm10 0c-.4 0-.8 0-1-.4-.4-.3-.6-.8-.6-1.4l.4-1.4c.1-.5.2-.9.5-1.2.2-.4.5-.6.8-.8a2 2 0 0 1 1-.3c.5 0 .7 0 1.1.3l.2.6.6-.8h.5l-.9 5.3h-1l.2-.9-.8.7c-.3.3-.6.3-1 .3Zm.3-.7c.2 0 .5 0 .7-.3l.6-.7a4 4 0 0 0 .5-1 3 3 0 0 0 0-.6 4 4 0 0 0 .2-.4c-.1-.3-.1-.6-.4-.8-.1-.2-.4-.3-.6-.3-.3 0-.5.1-.8.3a2 2 0 0 0-.5.5l-.4 1.1-.2 1.1.2.8c.2.2.4.3.7.3Zm5.3.7c-.4 0-.8 0-1-.2-.1-.2-.2-.5-.2-1v-.5l.7-3.1h-.9v-.4l1-.3.6-1.1h.5l-.3 1.2h1.4l-.2.6h-1.3l-.6 3v.3l-.2.3.2.4.5.1h.3l.3-.1v.7h-.4l-.4.1Zm3.4 0c-.4 0-.8 0-1-.4-.4-.3-.6-.8-.6-1.4l.4-1.4c.1-.5.2-.9.5-1.2.2-.4.5-.6.8-.8a2 2 0 0 1 1-.3c.5 0 .7 0 1.1.3l.2.6.6-.8h.5l-.9 5.3h-1l.2-.9-.8.7c-.3.3-.6.3-1 .3Zm.3-.7c.2 0 .5 0 .7-.3l.6-.7a4 4 0 0 0 .5-1 3 3 0 0 0 0-.6 4 4 0 0 0 .2-.4c-.1-.3-.1-.6-.4-.8-.1-.2-.4-.3-.6-.3-.3 0-.5.1-.8.3a2 2 0 0 0-.5.5l-.4 1.1-.2 1.1.2.8c.2.2.4.3.7.3Zm3.7.7 1.1-5.6h.8l-.1 1.1.4-.5a2 2 0 0 1 .6-.4l.8-.2c.4 0 .8.2 1 .4.3.2.4.6.4 1v.5l-.2.4-.6 3.2h-1l.7-3.3.1-.4v-.3c0-.4-.2-.7-.6-.7-.2 0-.6.1-.7.3-.3.1-.5.4-.9.7 0 .4-.3.8-.4 1.4l-.5 2.4Zm7.9 0c-.6 0-1 0-1.4-.5-.3-.4-.5-.9-.5-1.5 0-.4 0-.8.2-1.3l.5-1c.2-.5.5-.7.9-1.1a2 2 0 0 1 1 0c.7-.1 1.1-.1 1.2.2.3.2.4.5.4 1l-.3.8c-.2.4-.6.6-1.1.8l-1.7.2h-.3v.4c0 .4 0 .7.4 1 .2.1.5.2.9.2h.7a5 5 0 0 0 .8-.3v.7a6 6 0 0 1-.8.4h-.9Zm-.9-3h1.2l.8-.7c.2 0 .3-.2.3-.5l-.1-.4-.6-.2c-.3 0-.6.2-1 .5l-.5 1.2Zm0-.1" style="fill:none;stroke-width:2;stroke-linecap:butt;stroke-linejoin:round;stroke:#fff;stroke-opacity:.6;stroke-miterlimit:10" transform=" rotate(  340 265.469 59.993) "/> <g style="fill:green;fill-opacity:1" transform=" rotate(  340 265.469 59.993) ">  <use xlink:href="#l" x="248.2" y="51.1"/>  <use xlink:href="#m" x="254" y="51.1"/>  <use xlink:href="#n" x="259" y="51.1"/>  <use xlink:href="#o" x="263.3" y="51.1"/>  <use xlink:href="#p" x="268.3" y="51.1"/>  <use xlink:href="#q" x="272.3" y="51.1"/>  <use xlink:href="#o" x="276.9" y="51.1"/>  <use xlink:href="#r" x="245.3" y="63"/>  <use xlink:href="#s" x="248.5" y="63"/>  <use xlink:href="#t" x="254.1" y="63"/>  <use xlink:href="#u" x="259.9" y="63"/>  <use xlink:href="#v" x="265.7" y="63"/>  <use xlink:href="#w" x="268.3" y="63"/>  <use xlink:href="#t" x="274.1" y="63"/>  <use xlink:href="#o" x="279.9" y="63"/>  <use xlink:href="#x" x="241.5" y="74.9"/>  <use xlink:href="#o" x="247.2" y="74.9"/>  <use xlink:href="#glyph1-14" x="252.2" y="74.9"/>  <use xlink:href="#y" x="254.8" y="74.9"/>  <use xlink:href="#s" x="263.2" y="74.9"/>  <use xlink:href="#z" x="268.9" y="74.9"/>  <use xlink:href="#s" x="272.2" y="74.9"/>  <use xlink:href="#u" x="277.9" y="74.9"/>  <use xlink:href="#o" x="283.7" y="74.9"/> </g> <path d="m60 219.3.1-.7 4.5-5.7h-3.2l.2-.8h4.2l-.1.9-4.4 5.5h3.3l-.2.8Zm5.8 0 1.5-7.3H71l-.2 1H68l-.4 2.2H70v.7h-2.6l-.4 2.6h2.6l-.2.8Zm8 .1c-.8 0-1.4-.4-1.8-.7-.5-.5-.7-1.2-.7-2l.1-1.3.6-1.4.6-.9 1.1-.8c.4-.2.9-.2 1.4-.2.7-.1 1.3-.1 1.9.3l-.5.8a4 4 0 0 0-.6-.3H75c-.4-.1-.9-.1-1.2.2l-.8.9a4 4 0 0 0-.6 1.3l-.2 1.3c0 .7.2 1.1.5 1.5.3.3.7.5 1.3.5h.8l.7-.4v.9l-.8.2a5 5 0 0 1-.9 0Zm7.2 0c-.5 0-.8-.2-1-.5-.5-.3-.6-.7-.6-1.3.1-.6.1-1 .3-1.4l.5-1.2c.2-.4.5-.7.8-1a2 2 0 0 1 1.1-.2c.4 0 .7.2.9.3l.5.7a35.3 35.3 0 0 1 .3-1.4l.2-1.7h1l-1.6 7.6h-.7v-1l-.7.8c-.4.2-.7.3-1 .3Zm.3-.7.5-.3.7-.6.5-1 .2-1.2c0-.3 0-.5-.2-.6-.2-.3-.5-.4-.8-.4-.3 0-.5 0-.7.2l-.6.7-.4 1-.1 1c0 .9.3 1.3.8 1.3Zm5.4.7c-.4 0-.7-.1-1-.4-.2-.2-.3-.5-.3-1v-.8l.9-3.3h.7l-.7 3.4v1.2l.6.2c.3 0 .5-.1.8-.3.2-.1.5-.4.7-.8.2-.3.4-.8.6-1.4l.4-2.2h1l-1.3 5.3h-.7l.2-1-.6.5-.5.4-.8.2Zm-33.3 11.8 1.6-7.1h1.8c.6-.1 1.2.1 1.5.4.4.2.7.7.7 1.2s-.2 1-.5 1.3c-.3.2-.7.4-1.2.5.3.2.6.4.7.7.3.1.4.4.4.8s0 .8-.3 1.1c-.3.5-.6.7-1.1.9l-1.3.2Zm1.8-4h1.2l.8-.2.5-.4c.3-.2.3-.6.3-.8 0-.3-.1-.5-.3-.7-.2-.1-.7-.1-1-.1h-1Zm-.7 3.2h1.2c.6.1 1-.1 1.3-.4.3-.2.5-.5.5-1s-.1-.7-.3-.9c-.2-.1-.6-.2-1-.2H55Zm6.5.9c-.6 0-.9-.1-1.2-.3-.2-.4-.3-1-.3-1.5s0-1 .2-1.5l.5-1.1c.3-.4.5-.6.9-.9a2 2 0 0 1 .9-.2c.5 0 .8 0 1 .2.2.2.4.4.5.7l.3-.8h.7l-1.1 5.3h-.7l.1-1c-.3.3-.5.6-.9.8-.3.2-.6.3-.9.3Zm.1-.7c.4 0 .6 0 .9-.3l.6-.7a4 4 0 0 0 .4-1 3 3 0 0 0 .1-.6 4 4 0 0 0 0-.4c.1-.3.1-.6-.1-.8-.3-.2-.5-.3-.8-.3-.2 0-.5 0-.7.3a2 2 0 0 0-.6.6l-.4 1-.1 1.1c0 .5 0 .6.2.8.1.2.4.3.6.3Zm5.1.7h-.8l-.7-.3v-.8l.7.3.8.1c.4 0 .7 0 1-.2l.1-.6c.1-.2.1-.4-.1-.5l-.7-.5c-.4-.2-.5-.4-.8-.8-.2 0-.3-.4-.3-.7 0-.5.1-.8.5-1.1.3-.3.7-.4 1.3-.4h.8l.8.4-.3.6-.5-.2h-1.5c-.2.2-.3.4-.3.6l.3.5.6.5.6.4.5.4.1.7c0 .5-.2 1-.5 1.2-.5.3-1 .4-1.6.4Zm3.1-2.3.1-1h2.4l-.2 1Zm4.7 2.3h-1l-.6-.3v-.9l.6.3 1 .1h.8l.6-.5c.2-.2.3-.5.3-.8 0-.2-.1-.5-.3-.7l-1-.5a4.4 4.4 0 0 1-.5-.6 1.9 1.9 0 0 1-.6-.4l-.1-1c0-.4 0-.8.3-1.1a2 2 0 0 1 .9-.7 3 3 0 0 1 1.1-.2h1c.3.1.6.3.8.4l-.3.8-.7-.3-.8-.1c-.4 0-.7 0-1 .2-.2.3-.4.6-.4 1l.1.5.4.5.6.2.7.6a2 2 0 0 1 .5.5l.2.9c0 .7-.2 1.2-.6 1.6-.6.2-1.2.5-2.1.5Zm5.1 0c-.4 0-.8-.1-1-.3-.3-.4-.4-1-.4-1.5s0-1 .2-1.5c0-.4.3-.8.5-1.1.2-.4.6-.6.8-.9a2 2 0 0 1 1.1-.2c.3 0 .6 0 .9.2.2.2.3.4.4.7h.1l.3-.8h.7l-1.2 5.3h-.7l.2-1-1 .8c-.2.2-.5.3-.9.3Zm.3-.7c.3 0 .6 0 .7-.3l.7-.7a4 4 0 0 0 .4-1 3 3 0 0 0 .1-.6 4 4 0 0 0 0-.4c0-.3 0-.6-.2-.8-.2-.2-.4-.3-.7-.3-.4 0-.5 0-.7.3a2 2 0 0 0-.7.6l-.3 1-.1 1.1c0 .5 0 .6.2.8.1.2.2.3.6.3ZM85 225l-.4-.1v-.9c.3-.1.4-.1.6-.1.2 0 .4.1.4.4 0 .2 0 .4-.2.5l-.4.2Zm-2 6.2 1.3-5.2h.9l-1.2 5.2Zm2.7 0 1.1-5.4h.8v1l.4-.5a2 2 0 0 1 .6-.3l.7-.3c.5 0 .8.3 1 .4.3.2.4.6.4 1v.5l-.1.4-.7 3.2h-1l.8-3.2v-.8c.1-.4-.1-.7-.5-.7-.3 0-.6.1-.8.3-.4.1-.5.4-.8.7l-.5 1.5-.5 2.2Zm7.3.1c-.2 0-.5 0-.7-.2-.4-.2-.5-.5-.5-1.1v-.5l.8-3h-.9v-.4l1.1-.3.5-1.2h.5l-.3 1.4H95l-.3.5h-1.3l-.6 3v.3l-.2.2.2.4c.2.2.2.2.4.2h.4l.3-.1v.5l-.3.3H93Zm1.8-2.3.2-1h2.4l-.2 1Zm-36.1 14.2 1.5-7.2h.9l-1.4 6.4h2.8l-.2.8Zm6.3.1c-.4 0-.8-.3-1-.5-.3-.3-.5-.8-.5-1.4l.2-1.4.6-1.2.7-.8a2 2 0 0 1 1.1-.3c.5 0 .8.1 1.1.3l.2.6.6-.8h.6l-1.2 5.4h-.7l.3-1-1 .7c-.3.3-.6.4-1 .4Zm.3-.8c.2 0 .5 0 .7-.2.2-.3.5-.5.6-.8a4 4 0 0 0 .5-1 3 3 0 0 0-.1-.5 4 4 0 0 0 .3-.5c-.1-.3-.1-.5-.3-.8-.2-.1-.4-.3-.7-.3-.3 0-.5.1-.8.3a2 2 0 0 0-.5.7l-.4 1-.2.9c0 .6.1.9.3 1.1.1.1.3.1.6.1Zm5.3.8c-.4 0-.6-.1-1-.4-.2-.2-.3-.5-.3-.9v-.5l.1-.4.7-3.3h.9l-.7 3.4-.1.7.1.5.7.1s.4 0 .6-.2l.8-.8c.2-.3.4-.8.5-1.4l.5-2.3h.8l-1.1 5.4h-.7v-1l-.4.5-.6.3-.8.3Zm4.2-.1 1.2-5.4h.7l-.1 1 .4-.5.6-.4.6-.2h.6l-.2 1h-.5c-.3-.2-.6-.2-.9 0l-.6 1-.4 1-.5 2.5Zm5.9.1c-.6 0-1-.3-1.4-.6-.3-.3-.5-.7-.5-1.5 0-.4 0-.8.2-1.2 0-.4.3-.8.5-1.2.2-.3.5-.6.9-.8a2 2 0 0 1 1-.3c.6 0 1.1.1 1.3.3.3.3.3.6.3 1l-.3 1-1 .5c-.5.3-1.1.5-1.8.5h-.2v.2c0 .4 0 .8.3 1 .2.2.5.3.9.3h.7a5 5 0 0 0 .8-.5v1a6 6 0 0 1-.8.2h-.9Zm-.9-3.3H81l.8-.4c.2-.1.3-.3.3-.6l-.1-.4-.6-.2c-.3 0-.6.2-1 .6l-.5 1Zm3.7 3.2 1.2-5.4h.8l-.1 1 .4-.5a2 2 0 0 1 .6-.4c.2-.2.6-.2.8-.2.4 0 .7.1 1 .3.2.3.4.6.4 1v.5l-.2.4-.7 3.3h-.9l.7-3.4v-.4l.2-.3c-.1-.4-.3-.6-.7-.6-.3 0-.5 0-.8.2-.2.3-.5.4-.7.8-.2.3-.4.8-.5 1.4l-.5 2.3Zm7.5.1c-.5 0-.8-.1-1-.3-.2-.2-.3-.5-.3-.9v-.7l.8-3h-1l.1-.2 1-.5.4-1.1h.7l-.3 1.2h1.3l-.1.7h-1.3l-.8 2.9v1l.7.1h.6v.5l-.4.2H91Zm0 0" style="fill:none;stroke-width:2;stroke-linecap:butt;stroke-linejoin:round;stroke:#fff;stroke-opacity:.6;stroke-miterlimit:10" transform=" rotate(  340 75.592 228.228) "/> <g style="fill:green;fill-opacity:1" transform=" rotate(  340 75.592 228.228) ">  <use xlink:href="#A" x="60.1" y="219.3"/>  <use xlink:href="#B" x="65.4" y="219.3"/>  <use xlink:href="#C" x="70.5" y="219.3"/>  <use xlink:href="#glyph1-14" x="76.4" y="219.3"/>  <use xlink:href="#x" x="79" y="219.3"/>  <use xlink:href="#t" x="84.8" y="219.3"/>  <use xlink:href="#D" x="53" y="231.2"/>  <use xlink:href="#s" x="59" y="231.2"/>  <use xlink:href="#n" x="64.7" y="231.2"/>  <use xlink:href="#E" x="69" y="231.2"/>  <use xlink:href="#F" x="72.1" y="231.2"/>  <use xlink:href="#s" x="77.2" y="231.2"/>  <use xlink:href="#v" x="82.9" y="231.2"/>  <use xlink:href="#u" x="85.4" y="231.2"/>  <use xlink:href="#z" x="91.2" y="231.2"/>  <use xlink:href="#E" x="94.6" y="231.2"/>  <use xlink:href="#G" x="58.3" y="243.2"/>  <use xlink:href="#s" x="63.1" y="243.2"/>  <use xlink:href="#t" x="68.7" y="243.2"/>  <use xlink:href="#p" x="74.5" y="243.2"/>  <use xlink:href="#o" x="78.3" y="243.2"/>  <use xlink:href="#u" x="83.3" y="243.2"/>  <use xlink:href="#z" x="89.1" y="243.2"/> </g> <path d="m243 177.3.3-.7 4.4-5.7h-3.2l.2-.8h4.2l-.1.7-4.5 5.7h3.4l-.2.8Zm8 .1c-.8 0-1.3-.2-1.6-.6-.4-.3-.4-.8-.4-1.5v-1.2l.7-1.2.8-.8a2 2 0 0 1 1.1-.3c.5 0 1 .2 1.2.3.2.3.4.6.4 1 0 .3-.2.6-.4.9l-1 .6c-.4.3-1 .3-1.8.3v.4c-.1.4-.1.7.2 1 .2.2.5.3.8.3h.8a5 5 0 0 0 .7-.5v.9a6 6 0 0 1-.7.2l-.9.2Zm-1-3.2h1.3l.7-.5c.2-.1.3-.3.3-.7 0 0 0-.2-.2-.3l-.5-.2c-.3 0-.6.2-1 .5-.1.3-.4.7-.6 1.2Zm6 3.2c-.8 0-1.2-.2-1.6-.5-.3-.4-.4-.9-.4-1.5V174l.7-1.1c.3-.4.5-.6.9-.9.3-.1.7-.2 1.2-.2h.6l.7.4-.3.6-.5-.2h-.5c-.4-.1-.8-.1-1 .2-.3.4-.6.7-.8 1.2a4 4 0 0 0-.2 1.4c0 .4.2.6.4 1l.8.1h.7a7 7 0 0 0 .6-.3v.8l-.6.3h-.8Zm7.9 0c-.9 0-1.5-.4-2-.8-.3-.5-.5-1.1-.5-2-.1-.4-.1-.8.1-1.3 0-.3.2-.8.4-1.2.2-.4.5-.8.8-1.1.3-.4.7-.6 1-.8l1.6-.2c.5 0 1.1.2 1.6.4l-.3.8a4 4 0 0 0-.7-.3h-.7c-.5-.1-1-.1-1.3.2l-1 .9a4 4 0 0 0-.4 1.3l-.2 1.3c0 .6.1 1.1.4 1.5.3.3.8.5 1.3.5l.8-.1.8-.2v.7l-.8.3a5 5 0 0 1-1 0Zm4.5 0c-.4 0-.8-.2-1-.5-.4-.3-.4-.8-.4-1.4v-1.4l.7-1.1.8-.9a2 2 0 0 1 1-.3c.5 0 .8.2 1.1.3l.2.6.6-.7h.6l-1.2 5.3h-.7l.2-1-1 .7c-.2.3-.5.4-.9.4Zm.3-.8c.2 0 .5 0 .7-.2l.7-.8a4 4 0 0 0 .4-1 3 3 0 0 0 .1-.5 4 4 0 0 0 0-.5c0-.3 0-.6-.2-.8-.2-.2-.4-.3-.7-.3-.3 0-.5.1-.7.3a2 2 0 0 0-.6.7c-.2.2-.4.5-.4 1l-.2.9c0 .6.2.9.3 1.1.1.1.3.1.6.1Zm5 .8-.9-.1-.6-.3v-.8l.7.3.8.1c.3 0 .7 0 .9-.2.2-.2.3-.3.3-.6 0-.2 0-.4-.2-.5l-.7-.5-1-.6c0-.3-.2-.5-.2-.9s.2-.8.5-1c.4-.5.8-.6 1.4-.6l.8.3c.3 0 .6.1.8.2l-.3.7-.6-.2-.7-.2-.7.2-.3.6c0 .1 0 .3.3.4 0 .3.2.3.6.5l.6.4.4.5.2.6c0 .6-.2 1-.6 1.3-.4.2-.9.4-1.5.4Zm4.7 0c-.4 0-.8-.2-1-.5-.4-.3-.4-.8-.4-1.4v-1.4l.7-1.1.8-.9a2 2 0 0 1 1-.3c.5 0 .8.2 1.1.3l.2.6.6-.7h.6l-1.2 5.3h-.7l.2-1-1 .7c-.2.3-.5.4-.9.4Zm.3-.8c.2 0 .5 0 .7-.2l.7-.8a4 4 0 0 0 .4-1 3 3 0 0 0 .1-.5 4 4 0 0 0 0-.5c0-.3 0-.6-.2-.8-.2-.2-.4-.3-.7-.3-.3 0-.5.1-.7.3a2 2 0 0 0-.6.7c-.2.2-.4.5-.4 1l-.2.9c0 .6.2.9.3 1.1.1.1.3.1.6.1Zm5.3.8c-.4 0-.7-.2-1-.4-.1-.2-.2-.5-.2-1v-.8l.7-3.3h.9l-.7 3.4-.1.6.1.5c.3.2.3.2.6.2.2 0 .5 0 .7-.2l.8-.8c.2-.3.4-.8.5-1.4l.5-2.2h.9l-1.2 5.3h-.7l.1-1-.5.5-.6.4-.8.2Zm4.2-.1 1.6-7.6h1l-1.8 7.6Zm4.2.1c-.4 0-.7-.1-1-.4-.1 0-.2-.4-.2-.8v-.7l.7-3h-.9v-.2l1-.5.5-1.1h.5l-.2 1.2h1.4l-.2.7h-1.3l-.7 2.9v1l.5.1h.7v.5h-.4l-.4.4Zm0 0" style="fill:none;stroke-width:2;stroke-linecap:butt;stroke-linejoin:round;stroke:#fff;stroke-opacity:.6;stroke-miterlimit:10" transform=" rotate(  340 269.502 174.262) "/> <g style="fill:green;fill-opacity:1" transform=" rotate(  340 269.502 174.262) ">  <use xlink:href="#A" x="243.2" y="177.3"/>  <use xlink:href="#o" x="248.5" y="177.3"/>  <use xlink:href="#H" x="253.5" y="177.3"/>  <use xlink:href="#glyph1-14" x="258" y="177.3"/>  <use xlink:href="#C" x="260.6" y="177.3"/>  <use xlink:href="#s" x="266.5" y="177.3"/>  <use xlink:href="#n" x="272.2" y="177.3"/>  <use xlink:href="#s" x="276.5" y="177.3"/>  <use xlink:href="#t" x="282.2" y="177.3"/>  <use xlink:href="#I" x="287.9" y="177.3"/>  <use xlink:href="#z" x="290.5" y="177.3"/> </g> <path d="M-.1 250.1c-.7 0-1.1-.2-1.5-.5-.3-.4-.4-.9-.4-1.6 0-.3 0-.8.1-1.2l.5-1.1c.4-.4.5-.7.9-.8a2 2 0 0 1 1-.3c.7 0 1.1 0 1.3.3.2.1.3.5.3.9 0 .3 0 .7-.3 1-.2.2-.6.5-1 .6-.5.2-1 .3-1.8.3h-.2v.3c0 .5.2.8.3 1 .2.2.5.3 1 .3h.5a5 5 0 0 0 .9-.3v.7a6 6 0 0 1-.8.3H0Zm-1-3.1h.1l1.1-.1c.4 0 .6-.2.9-.4.2-.1.3-.4.3-.5 0-.3 0-.5-.3-.6l-.5-.1c-.3 0-.5.1-.9.4-.3.3-.5.7-.6 1.3Zm1.4-3v-.3l.3-.3a16.8 16.8 0 0 0 .7-1h1c0 .2-.2.3-.3.6l-.7.5a6 6 0 0 1-.6.4ZM4 250.1l-1-.1-.5-.2v-.8l.5.3h1c.3.1.6.1 1-.1 0-.2.1-.4.1-.6L5 248l-.7-.4-1-.7-.1-.8c-.1-.5.1-.9.4-1.1.3-.3.8-.4 1.3-.4H6l.5.4-.2.6-.6-.2-.8-.1c-.3 0-.5 0-.7.2l-.2.5c0 .2 0 .3.2.5l.7.5c.1 0 .4.2.6.4l.4.4.1.7c0 .5-.1 1-.5 1.2-.5.3-.9.3-1.5.3Zm5.2 0c-.7 0-1.2-.2-1.5-.5-.3-.4-.5-.9-.5-1.6 0-.3 0-.8.2-1.2l.5-1.1.9-.8a2 2 0 0 1 1.1-.3c.5 0 .9 0 1.1.3.3.1.4.5.4.9 0 .3 0 .7-.3 1-.1.2-.5.5-1 .6-.5.2-1.1.3-1.8.3h-.2v.3c0 .5.1.8.3 1 .2.2.6.3 1 .3h.6a5 5 0 0 0 .8-.3v.7a6 6 0 0 1-.8.3h-.8Zm-1-3.1h.2l1-.1c.4 0 .7-.2.9-.4.2-.1.3-.4.3-.5 0-.3 0-.5-.2-.6l-.5-.1c-.4 0-.7.1-1 .4-.3.3-.5.7-.6 1.3ZM12 250l1.2-5.4h.7l-.1 1 .5-.5.5-.4.6-.1h.6l-.2.8h-.5c-.3-.1-.6-.1-.9.2l-.6.9-.4 1-.4 2.5Zm4.8 0-.6-5.4h.9l.3 3v1.7h.2l.2-.5.2-.8.3-.4 1.7-3h1l-3.1 5.4Zm6 .1c-.6 0-1.1-.2-1.4-.5-.4-.4-.5-.9-.5-1.6l.1-1.2c.2-.4.3-.8.6-1.1.2-.4.4-.7.8-.8a2 2 0 0 1 1.1-.3c.6 0 1 0 1.2.3.2.1.3.5.3.9 0 .3 0 .7-.3 1-.2.2-.5.5-1 .6-.4.2-1 .3-1.7.3h-.2v.3c0 .5 0 .8.2 1 .3.2.6.3 1 .3h.7a5 5 0 0 0 .7-.3v.7a6 6 0 0 1-.7.3h-.9ZM22 247l1.2-.1c.2 0 .5-.2.7-.4.2-.1.3-.4.3-.5 0-.3 0-.5-.2-.6l-.5-.1c-.3 0-.6.1-1 .4-.1.3-.5.7-.5 1.3ZM-.5 262c-.4 0-.7 0-1-.3-.2-.2-.3-.6-.3-1v-.7l.8-3.4h.9L-1 260v.6l.1.5c.2.2.4.2.6.2.3 0 .5 0 .8-.2.2-.2.5-.4.7-.8.2-.3.4-.8.5-1.4l.5-2.3h1L2 261.9h-.8l.2-.9-.6.6-.5.3-.8.1Zm4.1 0 1.2-5.5h.8l-.1 1.1c0-.3.2-.5.4-.6a2 2 0 0 1 .6-.4l.8-.1c.4 0 .7 0 1 .3.2.3.4.6.4 1v.5l-.2.4-.7 3.2h-1l.9-3.3v-.4l.1-.3c-.1-.4-.3-.6-.8-.6-.2 0-.4 0-.7.2l-.7.7-.5 1.4-.5 2.4Zm7.7-6.3-.3-.1-.2-.4c0-.1 0-.2.2-.4 0-.2.2-.2.4-.2.3 0 .6.1.6.4-.1.3-.1.4-.3.5l-.4.2Zm-1.8 6.2 1.1-5.3h.9l-1.2 5.3Zm5.3 2.5.4-2.4.2-.4.1-.6-.8.7c-.3.3-.6.3-1 .3s-.8 0-1-.4c-.3-.3-.4-.8-.4-1.4v-1.4l.7-1.2.8-.8a2 2 0 0 1 1-.3c.5 0 .8 0 1.1.3l.2.6.6-.8h.6l-1.7 7.8Zm-.8-3 .7-.4.6-.6a3.8 3.8 0 0 0 .6-2c.1-.5.1-.7-.2-.9-.2-.2-.4-.3-.7-.3-.3 0-.6.1-.8.3l-.6.7-.3 1-.3.9c.1.9.4 1.2 1 1.2Zm5.4.6c-.4 0-.7 0-1-.3-.1-.2-.2-.6-.2-1v-.8l.8-3.3h.8l-.7 3.4-.1.6v.5c.3.2.4.2.7.2.2 0 .5 0 .7-.2l.8-.8c.2-.3.4-.8.5-1.4l.5-2.3h.8l-1.1 5.3h-.7l.1-.9-.5.6-.6.3-.8.1Zm6.4 0c-.8 0-1.1 0-1.5-.5-.3-.4-.5-.9-.5-1.5 0-.4 0-.8.2-1.2l.5-1.2.9-.8a2 2 0 0 1 1.1-.3c.5 0 .9.1 1.1.3.4.2.4.5.4 1 0 .2 0 .5-.3.8-.2.4-.5.6-1 .8-.5.2-1 .2-1.8.2h-.2v.4c0 .4.1.7.3 1 .2.2.5.3 1 .3h.5a5 5 0 0 0 .9-.5v.8a6 6 0 0 1-.8.4h-.8Zm-1-3h.2l1-.3c.4.1.7-.1 1-.2 0-.2.2-.5.2-.7 0-.2 0-.3-.2-.4l-.5-.2c-.5 0-.7.2-1 .5-.3.3-.5.7-.5 1.2ZM-4.5 273.9l1.5-7.2h1.6c1.4 0 2.2.7 2.2 1.9 0 .4-.2 1-.5 1.3-.2.4-.7.7-1.3.8L.2 274h-1l-1-3.1H-3l-.6 3.1Zm1.5-3.7h1c.6 0 1.1-.2 1.4-.5.3-.2.4-.6.4-1 0-.6 0-.9-.3-1.1h-1.8Zm6-2.6h-.5v-.9l.5-.2c.3 0 .5.2.5.5 0 .2 0 .4-.2.5l-.3.1ZM1 274l1.3-5.5h.8L2 274Zm2.7-.1 1.1-5.4h.7v1c0-.2.2-.3.4-.5.1-.2.3-.3.6-.4l.7-.2c.4 0 .6.1.8.3l.4 1 .6-.7.5-.4.8-.2c.4 0 .7.2 1 .4 0 .2.2.5.2 1v.3l-.1.5-.6 3.4h-1l.9-3.5v-1.1c-.4-.2-.6-.2-.7-.2-.2 0-.4 0-.7.2-.2.2-.5.4-.7.8-.2.3-.3.7-.4 1.3l-.6 2.4h-.8l.7-3.4v-1.1c-.3-.2-.5-.2-.7-.2-.1 0-.3 0-.6.2-.2.2-.5.4-.7.8l-.5 1.4-.5 2.3Zm10.9.1c-.6 0-1.1-.2-1.5-.6-.3-.4-.5-.9-.5-1.4 0-.5 0-.9.2-1.3a4 4 0 0 1 .5-1.1c.2-.4.5-.6.7-.8.5-.2.8-.4 1.3-.4.6 0 1 .2 1.4.6.4.4.7 1 .7 1.5-.1.5-.1.8-.4 1.2a4 4 0 0 1-.4 1.3l-.8.7c-.4.2-.8.3-1.2.3Zm0-.8c.4 0 .8 0 1.1-.2l.4-1.1.3-1.5-.1-.6a1 1 0 0 0-.4-.4c-.1-.2-.3-.2-.6-.2-.4 0-.7.1-1 .4l-.6 1a4 4 0 0 0-.2 1.3c0 .5.1.8.3 1.1.2.1.5.2.9.2Zm5 .8c-.4 0-.6-.1-1-.3-.1-.3-.2-.7-.2-1v-.9l.7-3.3h1l-.9 3.5v.6c0 .2 0 .3.2.4 0 .2.2.3.5.3.2 0 .5-.1.7-.3.4 0 .5-.4.8-.8.2-.2.4-.8.5-1.4l.5-2.3h.9L22 274h-.6l.1-1.1-.5.5-.6.4-.8.2Zm5.4 0-.7-.1-.7-.2v-.9l.6.3.9.2c.4 0 .7-.1.9-.3.2 0 .3-.3.3-.6 0-.2 0-.3-.3-.4l-.6-.6-.9-.6c-.2-.2-.3-.5-.3-.9s.2-.8.5-.9c.4-.4.8-.6 1.3-.6l1 .1.6.3-.2.7-.6-.2-.8-.1c-.2 0-.5 0-.6.2-.2.1-.4.3-.4.5s.1.3.3.5l.7.4.6.4.4.5.2.6c0 .7-.2 1-.6 1.3-.4.2-.9.4-1.5.4Zm3.1-.1 1.6-7.6h1l-.7 3-.3 1.2-.2.6 2.6-2.6h.9l-2.2 2.3 1.4 3h-1l-.9-2.3-1 .4-.3 2.1Zm6.9-6.3h-.5v-.5l.1-.4.5-.2c.3 0 .4.2.4.5 0 .2 0 .4-.2.5l-.3.1Zm-2 6.4 1.2-5.5h1L34 274Zm.1-.1" style="fill:none;stroke-width:2;stroke-linecap:butt;stroke-linejoin:round;stroke:#fff;stroke-opacity:.6;stroke-miterlimit:10" transform=" rotate(  340 14.1064 258.945) "/> <g style="fill:green;fill-opacity:1" transform=" rotate(  340 14.1064 258.945) ">  <use xlink:href="#m" x="-2.6" y="250"/>  <use xlink:href="#n" x="2.4" y="250"/>  <use xlink:href="#o" x="6.7" y="250"/>  <use xlink:href="#p" x="11.7" y="250"/>  <use xlink:href="#q" x="15.7" y="250"/>  <use xlink:href="#o" x="20.4" y="250"/>  <use xlink:href="#t" x="-2.4" y="261.9"/>  <use xlink:href="#u" x="3.4" y="261.9"/>  <use xlink:href="#v" x="9.2" y="261.9"/>  <use xlink:href="#w" x="11.8" y="261.9"/>  <use xlink:href="#t" x="17.6" y="261.9"/>  <use xlink:href="#o" x="23.3" y="261.9"/>  <use xlink:href="#l" x="-4.9" y="273.9"/>  <use xlink:href="#v" x=".8" y="273.9"/>  <use xlink:href="#J" x="3.4" y="273.9"/>  <use xlink:href="#K" x="12.1" y="273.9"/>  <use xlink:href="#t" x="17.8" y="273.9"/>  <use xlink:href="#n" x="23.5" y="273.9"/>  <use xlink:href="#L" x="27.9" y="273.9"/>  <use xlink:href="#v" x="32.8" y="273.9"/> </g> <path d="M265.4 91.3 267 84h1.5c1.5.1 2.2.7 2.2 2 0 .5-.1 1-.4 1.3-.3.4-.7.6-1.4.8l1.2 3.2H269l-.9-3h-1.2l-.6 3Zm1.7-3.7h.8c.6 0 1.1-.2 1.4-.6.3 0 .5-.5.5-.9 0-.6-.2-.9-.4-1.1h-1.7Zm6 3.8c-.6 0-1-.2-1.4-.6-.3-.3-.5-.8-.5-1.4 0-.5 0-.9.2-1.4l.5-1c.3-.4.5-.7.9-1a2 2 0 0 1 1-.2c.7 0 1.1.2 1.2.4.3.2.4.5.4.8l-.3 1-1.1.6c-.4.4-1 .4-1.7.4h-.3v.3c.1.4.2.8.4 1 .2.2.5.4.9.4.3 0 .5 0 .7-.2a5 5 0 0 0 .8-.3v.8a6 6 0 0 1-.8.3h-.9Zm-.9-3.2h1.2l.8-.4c.2-.2.4-.4.4-.7l-.2-.4-.6-.2c-.3 0-.6.2-.8.5-.4.3-.6.7-.8 1.3Zm1.3-2.9v-.2l.4-.5a16.8 16.8 0 0 0 .7-1h1v.1l-.4.5-.6.6a6 6 0 0 1-.6.4ZM277.3 91.4l-.9-.1-.6-.3v-.8l.6.3.8.2c.4 0 .8-.1 1-.3 0-.1.2-.3.2-.6.1-.2 0-.3-.2-.5l-.6-.5-.9-.6c-.2-.2-.3-.5-.3-.9s.2-.8.6-1c.2-.3.7-.5 1.2-.5l1 .2.5.2-.1.7-.6-.2-.8-.1c-.2 0-.5 0-.7.2l-.2.5c0 .2 0 .3.2.5l.7.4.6.4.4.5.1.6c0 .6-.1 1-.5 1.3-.4.2-.9.4-1.5.4Zm5.2 0c-.7 0-1.1-.2-1.5-.6-.3-.3-.5-.8-.5-1.4 0-.5 0-.9.2-1.4l.5-1 .9-1a2 2 0 0 1 1.1-.2c.5 0 .9.2 1.1.4.3.2.4.5.4.8 0 .4 0 .7-.3 1l-1 .6c-.5.4-1 .4-1.8.4h-.2v.3c0 .4.1.8.3 1 .3.2.5.4 1 .4.1 0 .3 0 .5-.2a5 5 0 0 0 .9-.3v.8a6 6 0 0 1-.8.3h-.8Zm-1-3.2h1.3l.8-.4c.2-.2.3-.4.3-.7 0-.1 0-.3-.2-.4l-.6-.2c-.3 0-.6.2-.9.5-.2.3-.5.7-.6 1.3ZM285.3 91.3l1.1-5.4h.8L287 87l.5-.6.6-.4.6-.2h.6l-.2 1h-.5c-.3-.2-.6-.2-.9.2l-.6.8-.4 1-.5 2.5Zm4.8 0-.6-5.4h.9l.3 3.1v1.6h.2l.2-.6.3-.6.2-.4 1.6-3.1h1l-3 5.4Zm6 .1c-.6 0-1.1-.2-1.4-.6-.4-.3-.5-.8-.5-1.4l.1-1.4c.2-.3.3-.7.7-1 0-.4.4-.7.7-1a2 2 0 0 1 1.1-.2c.5 0 1 .2 1.2.4.2.2.4.5.4.8 0 .4-.1.7-.4 1l-1 .6c-.4.4-1 .4-1.8.4h-.1v.3c-.1.4-.1.8.3 1 .1.2.5.4.9.4.2 0 .4 0 .7-.2a5 5 0 0 0 .7-.3v.8a6 6 0 0 1-.7.3h-1Zm-.9-3.2h1.3l.7-.4c.2-.2.3-.4.3-.7 0-.1 0-.3-.2-.4l-.5-.2c-.3 0-.6.2-1 .5-.1.3-.4.7-.5 1.3ZM261.6 105.6h-.7v-.9h.6c.2.2.4.2.5 0l.4-.9 1-5.3h-.8v-.3l1-.4.1-.5c.1-.3.3-.8.4-1 .2-.3.3-.5.6-.6a2 2 0 0 1 .8-.1h.5l.5.2-.3.6h-.2l-.4-.2c-.3.1-.6.1-.7.3l-.3.8-.1.7h1.1l-.1.5h-1.2l-1 5.3c-.3.6-.5 1-.8 1.3-.1.4-.5.5-.9.5Zm5.6-2.3c-.5 0-.8-.1-1-.3-.5-.4-.6-1-.6-1.5.1-.5.1-1 .3-1.5l.5-1.1c.3-.4.6-.6.9-.9a2 2 0 0 1 1-.2c.4 0 .7 0 .9.2.2.2.4.4.5.7l.3-.8h.7l-1.1 5.3h-.7l.1-1-.8.8c-.3.2-.7.3-1 .3Zm.2-.7c.3 0 .6 0 .8-.3l.6-.7a4 4 0 0 0 .4-1 3 3 0 0 0 .2-.6 4 4 0 0 0-.1-.4c.1-.3.1-.6-.1-.8-.2-.2-.5-.3-.8-.3-.2 0-.4 0-.7.3a2 2 0 0 0-.6.6l-.4 1-.1 1.1c0 .5 0 .6.2.8l.6.3Zm5.4.7c-.4 0-.8 0-1-.3-.2-.2-.4-.6-.4-1v-.4l.3-.6.6-3h.7l-.6 3.2v1.2l.6.2c.3 0 .5 0 .8-.2l.7-.8c.2-.4.5-.8.5-1.4l.5-2.3h.9l-1.1 5.3h-.8l.1-1-.5.5-.5.5-.8.1Zm4.2-.1 1-5.4h1l-.2 1 .3-.5a2 2 0 0 1 .7-.3l.8-.3c.4 0 .7.3 1 .4.2.2.4.6.4 1v.5l-.3.4-.6 3.2h-1l.9-3.4v-.6c0-.5-.2-.7-.7-.7l-.7.3-.6.7c-.3.5-.5.8-.6 1.5l-.5 2.2Zm7.6-6.2c-.1 0-.2 0-.3-.2-.1 0-.3-.1-.3-.3.1-.2.1-.3.3-.4 0-.2.2-.2.4-.2.3 0 .5.1.5.4 0 .2 0 .4-.2.5l-.4.2Zm-1.8 6.2 1.1-5.2h.9l-1.2 5.2Zm5.2 2.4.5-2.3.2-.5.1-.6-.8.8c-.3.2-.6.3-1 .3s-.8-.1-1-.3c-.4-.4-.6-1-.6-1.5l.3-1.5.5-1.1.9-.8a2 2 0 0 1 .9-.3c.6 0 .9 0 1.2.2l.2.7.6-.8h.6l-1.7 7.7Zm-.7-3c.2 0 .4 0 .6-.3.3-.1.5-.3.7-.6a3.8 3.8 0 0 0 .6-2c0-.5 0-.8-.2-1-.2-.1-.4-.2-.8-.2-.2 0-.5 0-.7.3l-.5.7-.4 1-.2.9c0 .8.3 1.2.9 1.2Zm5.4.7c-.4 0-.7 0-1-.3-.1-.2-.2-.6-.2-1v-1l.7-3h.9l-.7 3.2-.1.8.1.4.6.2c.2 0 .5 0 .7-.2l.8-.8c.2-.4.4-.8.5-1.4l.5-2.3h.8l-1 5.3h-.9l.2-1-.6.5-.5.5-.8.1Zm6.3 0c-.5 0-1-.2-1.3-.5-.4-.4-.6-.9-.6-1.5 0-.4 0-.8.2-1.3l.5-1c.3-.4.5-.7.9-1a2 2 0 0 1 1-.2c.7 0 1.1 0 1.3.2.2.3.3.6.3 1.1 0 .2 0 .5-.3.9-.2.3-.6.5-1 .7l-1.8.2h-.2v.4c0 .4.1.7.3 1 .2.1.5.2 1 .2h.5a5 5 0 0 0 .9-.3v.7a6 6 0 0 1-.8.3l-.8.1Zm-.7-3.1 1-.2c.4.1.7-.1.9-.3.2-.1.3-.3.3-.6 0-.2 0-.3-.2-.4-.1-.2-.3-.2-.6-.2s-.6.1-.9.4c-.3.3-.5.8-.6 1.3Zm-38.5 15.1c-.4 0-.8-.3-1-.5-.4-.3-.6-.8-.6-1.4.1-.4.1-1 .3-1.4l.5-1.2c.3-.3.5-.6 1-.8a2 2 0 0 1 .9-.3c.5 0 .8.1 1.1.3l.2.6a35.3 35.3 0 0 1 .5-1.3l.2-1.7h1.1l-1.9 7.6h-.6l.1-1-.8.7c-.3.3-.8.4-1 .4Zm.2-.8c.3 0 .5 0 .7-.2l.7-.7.4-1c.2-.2.2-.6.2-.9 0-.6 0-.9-.2-1.1-.2-.1-.4-.2-.8-.2-.3 0-.5.1-.7.3l-.6.7-.4 1v1c-.1.9.1 1.2.7 1.2Zm6 .8c-.5 0-1-.3-1.3-.6-.4-.3-.6-.7-.6-1.5 0-.4 0-.8.2-1.2l.5-1.2c.3-.3.5-.6.9-.8a2 2 0 0 1 1-.3c.7 0 1.1.1 1.3.3.2.3.3.6.3 1 0 .3 0 .6-.3 1l-1 .5c-.5.3-1 .3-1.8.3h-.2v.4c0 .4.1.8.3 1 .2.2.5.3 1 .3h.5a5 5 0 0 0 .9-.5v1a6 6 0 0 1-.8 0l-.8.3Zm-.7-3.3h1l.9-.4c.2-.1.3-.3.3-.6 0-.2 0-.3-.2-.4l-.6-.2c-.3 0-.6.2-.9.6-.3.2-.5.6-.6 1ZM271.6 115.2l1.5-7.2h1.7c.9 0 1.6.3 2 .7.6.5.9 1.3.9 2.3a5 5 0 0 1-.7 2 3.7 3.7 0 0 1-1.3 1.6c-.7.4-1.4.6-2.3.6Zm1-.8h.9c.6 0 1.2-.2 1.7-.5a3 3 0 0 0 1-1.2 4.2 4.2 0 0 0 .5-1.8c-.1-.9-.2-1.3-.6-1.6-.3-.4-.8-.5-1.4-.5h-.7ZM279.8 115.3c-.4 0-.8-.3-1-.4-.2-.2-.4-.5-.4-.9v-.5l.3-.4.6-3.3h.7l-.6 3.4v1.1c.3.2.5.2.6.2.3 0 .5 0 .8-.2.2-.2.5-.4.7-.8.2-.3.5-.8.5-1.4l.5-2.3h.9l-1.1 5.4h-.8l.1-1-.5.5-.5.3-.8.3Zm4.2-.1 1-5.4h1l-.2 1c0-.2.2-.4.3-.5a2 2 0 0 1 .7-.5l.8-.1c.4 0 .7.1 1 .3.2.3.4.6.4 1v.5l-.3.4-.6 3.3h-1l.9-3.4v-.7c0-.4-.2-.6-.7-.6-.2 0-.3 0-.7.2-.2.3-.5.4-.6.8l-.6 1.3-.5 2.4Zm7.6-6.2-.3-.3-.3-.3c.1-.1.1-.3.3-.4l.4-.2c.3 0 .5.2.5.5 0 .2 0 .3-.2.4-.1.3-.3.3-.4.3Zm-1.8 6.1 1.1-5.3h.9l-1.2 5.4Zm4.7.2c-.6 0-1.1-.3-1.5-.6-.3-.3-.5-.7-.5-1.5l.2-1.2.5-1.2 1-.8a2 2 0 0 1 .9-.3c.6 0 1.1.1 1.3.3.2.3.3.6.3 1 0 .3 0 .6-.3 1l-1 .5c-.5.3-1 .3-1.8.3h-.2v.4c0 .4.1.8.3 1 .3.2.5.3 1 .3h.6a5 5 0 0 0 .7-.5v1a6 6 0 0 1-.6 0l-1 .3Zm-1-3.3h1.3l.8-.4c.2-.1.3-.3.3-.6 0-.2 0-.3-.2-.4l-.5-.2c-.4 0-.7.2-1 .6-.2.2-.5.6-.6 1Zm2-2.9a5.6 5.6 0 0 1-.5-.5 11 11 0 0 1-.4-.5 4.1 4.1 0 0 1-.3-.5v-.1h1l.1.8.6.7ZM297.3 115.2l1.2-5.4h.7l-.2 1 .6-.5.4-.4.7-.2h.7l-.3 1-.5-.2-.9.3-.6.9-.4 1-.5 2.5Zm6 .1c-.7 0-1.3-.3-1.5-.6-.3-.3-.5-.7-.5-1.5 0-.4 0-.8.2-1.2l.5-1.2c.3-.3.5-.6 1-.8a2 2 0 0 1 .9-.3c.7 0 1.1.1 1.3.3.2.3.3.6.3 1 0 .3 0 .6-.3 1l-1 .5c-.5.3-1 .3-1.8.3h-.2v.4c0 .4.1.8.3 1 .2.2.5.3 1 .3h.5a5 5 0 0 0 1-.5v1a6 6 0 0 1-1 0l-.8.3Zm-1-3.3h1.2l.8-.4c.3-.1.4-.3.4-.6l-.2-.4-.6-.2c-.3 0-.6.2-.9.6-.3.2-.5.6-.7 1Zm0 .1" style="fill:none;stroke-width:2;stroke-linecap:butt;stroke-linejoin:round;stroke:#fff;stroke-opacity:.6;stroke-miterlimit:10" transform=" rotate(  340 282.218 100.221) "/> <g style="fill:green;fill-opacity:1" transform=" rotate(  340 282.218 100.221) ">  <use xlink:href="#l" x="265" y="91.3"/>  <use xlink:href="#m" x="270.7" y="91.3"/>  <use xlink:href="#n" x="275.7" y="91.3"/>  <use xlink:href="#o" x="280" y="91.3"/>  <use xlink:href="#p" x="285" y="91.3"/>  <use xlink:href="#q" x="289" y="91.3"/>  <use xlink:href="#o" x="293.7" y="91.3"/>  <use xlink:href="#r" x="262" y="103.2"/>  <use xlink:href="#s" x="265.2" y="103.2"/>  <use xlink:href="#t" x="270.9" y="103.2"/>  <use xlink:href="#u" x="276.7" y="103.2"/>  <use xlink:href="#v" x="282.5" y="103.2"/>  <use xlink:href="#w" x="285.1" y="103.2"/>  <use xlink:href="#t" x="290.8" y="103.2"/>  <use xlink:href="#o" x="296.6" y="103.2"/>  <use xlink:href="#x" x="257.8" y="115.2"/>  <use xlink:href="#o" x="263.6" y="115.2"/>  <use xlink:href="#glyph1-14" x="268.6" y="115.2"/>  <use xlink:href="#M" x="271.2" y="115.2"/>  <use xlink:href="#t" x="277.9" y="115.2"/>  <use xlink:href="#u" x="283.7" y="115.2"/>  <use xlink:href="#v" x="289.5" y="115.2"/>  <use xlink:href="#N" x="292.1" y="115.2"/>  <use xlink:href="#p" x="297" y="115.2"/>  <use xlink:href="#o" x="300.8" y="115.2"/> </g></svg>