<svg xmlns="http://www.w3.org/2000/svg" xmlns:xlink="http://www.w3.org/1999/xlink" viewBox="0 0 497 279"> <defs>  <path d="M1 0v-7.1h4V0Zm.4-.5h3.1v-6.1h-3Zm.1 0" id="reuse-0"/> </defs> <defs overflow="visible" style="stroke:none">  <path id="N" d="M2.4 0c-.6 0-1 0-1.4-.3C.6-.8.5-1.3.5-2c0-.3 0-.8.2-1.2 0-.4.3-.8.5-1.1.2-.4.5-.7.8-.8a2 2 0 0 1 1.2-.4c.5 0 .8.2 1.1.5.3 0 .4.4.4.8 0 .3-.1.7-.3 1-.4.2-.6.4-1 .6-.6.2-1.2.3-1.9.3h-.1v.3c0 .5 0 .8.3 1 .2.3.5.4.9.4l.7-.1A5 5 0 0 0 4-1v.7a6 6 0 0 1-.7.3h-.9Zm-.9-3 1.3-.1.7-.4c.2-.1.3-.4.3-.5l-.1-.6-.7-.1c-.2 0-.5.1-.9.4L1.6-3Zm1.3-3v-.3l.2-.3a16.8 16.8 0 0 0 1-1h.9l-.4.6-.6.5a6 6 0 0 1-.6.4Zm0 0"/>  <path id="M" d="m-.2 2.4 1.6-7.8h.7v1l.7-.6c.3-.3.7-.5 1-.5.5 0 .8.2 1 .5.5.3.6.8.6 1.4-.1.5-.1 1-.3 1.4L4.6-1l-.8.8a2 2 0 0 1-1.1.3C2.3 0 2 0 1.8-.2a2 2 0 0 1-.5-.6v.4L1 .1.7 2.4Zm2.8-3c.4 0 .5-.1.7-.4.3 0 .5-.3.7-.6a4 4 0 0 0 .3-1 5 5 0 0 0 .1-.9c0-.9-.3-1.2-.9-1.2-.2 0-.4 0-.5.2l-.8.7-.4 1c-.2.3-.2.7-.2 1.1 0 .3 0 .6.2.8.2.2.5.3.8.3Zm0 0"/>  <path id="L" d="M1.5 0H.7L0-.2V-1l.7.3h.8c.5.1.7.1 1-.1l.1-.7c.1-.1.1-.3-.1-.4 0-.2-.3-.3-.7-.5L1-3.1c-.2-.2-.3-.5-.3-.8 0-.5.1-.9.5-1.1.3-.3.7-.5 1.3-.5.3 0 .6 0 .9.2l.6.2-.2.7-.5-.2-.8-.1c-.3 0-.5 0-.7.2-.2.1-.2.3-.2.5l.1.5.7.5c.3 0 .6.2.6.4.2 0 .4.2.5.4l.1.7c0 .5-.2 1-.5 1.2C2.7 0 2 0 1.5 0Zm0 0"/>  <path id="K" d="M3.4 0c-.8 0-1.4 0-2-.5C1-1.1.7-1.7.7-2.6A6 6 0 0 1 1-4.4c.2-.6.4-1 .8-1.6.2-.3.7-.6 1.2-.9.5-.1 1-.3 1.6-.3h1.1l1 .5-.5.7a7.8 7.8 0 0 0-.7-.3l-1-.2c-.5 0-.9.2-1.3.5-.6.4-.9.8-1.2 1.4a4.8 4.8 0 0 0-.4 2c.1.2.1.6.3.9 0 .4.3.6.6.7l1 .3h.7l.5-.3.6-1.9H3.8l.2-1h2.3L5.5-.3a8 8 0 0 1-1 .3h-.9Zm0 0"/>  <path id="J" d="M2.4 0c-.6 0-1 0-1.4-.3C.6-.8.5-1.3.5-2c0-.3 0-.8.2-1.2 0-.4.3-.8.5-1.1.2-.4.5-.7.8-.8a2 2 0 0 1 1.2-.4c.5 0 .8.2 1.1.5.3 0 .4.4.4.8 0 .3-.1.7-.3 1-.4.2-.6.4-1 .6-.6.2-1.2.3-1.9.3h-.1v.3c0 .5 0 .8.3 1 .2.3.5.4.9.4l.7-.1A5 5 0 0 0 4-1v.7a6 6 0 0 1-.7.3h-.9Zm-.9-3 1.3-.1.7-.4c.2-.1.3-.4.3-.5l-.1-.6-.7-.1c-.2 0-.5.1-.9.4L1.6-3Zm0 0"/>  <path id="I" d="M2 0c-.6 0-.9 0-1.2-.3C.6-.7.5-1 .5-1.7c0-.5 0-1 .2-1.4 0-.5.3-.9.5-1.2.2-.4.5-.7.8-.8a2 2 0 0 1 1.1-.4c.4 0 .7.1.9.3l.5.7a35.3 35.3 0 0 1 .2-1.3l.4-1.8H6L4.4 0h-.8l.1-1-.8.8c-.3.2-.6.2-.9.2Zm.1-.5c.4-.1.6-.2.9-.5l.5-.5.5-1 .2-1.1c0-.4-.2-.6-.3-.8-.1-.2-.4-.3-.7-.3-.3 0-.5 0-.8.2l-.4.7-.5 1-.1 1.1c0 .7.3 1 .8 1Zm.1-.1"/>  <path id="H" d="m.3 0 1.6-7.6h.9L1.2 0Zm0 0"/>  <path id="G" d="M2.5 0C1.9 0 1.4 0 1-.4.7-.8.5-1.3.5-2l.1-1.2a4 4 0 0 1 .5-1.1c.3-.3.5-.7.9-.8.3-.2.7-.3 1.2-.3.6 0 1 .2 1.4.4.4.5.6 1.1.6 1.6L5-2a4 4 0 0 1-.5.9c-.2.5-.5.8-.8 1L2.5 0Zm0-.6c.5-.1.6-.1 1-.4.1-.2.3-.5.5-1 .2-.3.3-.8.3-1.4L4.2-4a1 1 0 0 0-.4-.5l-.6-.2c-.4 0-.7.1-1 .4-.2.2-.5.6-.6 1A4 4 0 0 0 1.4-2c0 .5 0 .8.3 1 .2.2.5.3.8.3Zm0-.1"/>  <path id="F" d="M2.1-6.3h-.3l-.1-.5.1-.4.4-.2c.3 0 .5.2.5.5 0 .2 0 .4-.2.5l-.4.2ZM.3 0l1.1-5.4h.9L1.2 0Zm0 0"/>  <path id="E" d="M1.8 0c-.3 0-.6 0-.8-.1C.7-.3.6-.6.6-1v-.8l.8-2.9h-1L.5-5l1-.5.5-1h.6l-.3 1h1.3l-.1.8H2.2l-.7 3v.8l.5.3h.3l.4-.3V0h-.9Zm0 0"/>  <path id="D" d="m.2 0 1.2-5.4h.8l-.2 1 .5-.6a2 2 0 0 1 .6-.3l.9-.2c.3 0 .6.1.9.5.1 0 .4.4.4.9v.4l-.2.5L4.4 0h-.9l.7-3.4v-.4l.2-.2c-.1-.5-.3-.7-.8-.7-.2 0-.4 0-.6.2-.3.2-.6.5-.8.8-.2.3-.4.8-.5 1.4L1.2 0Zm0 0"/>  <path id="C" d="M2.5 0C1.9 0 1.4 0 1-.3.7-.7.5-1.2.5-2c0-.4 0-1 .2-1.3l.5-1c.3-.5.6-.7 1-1 .2-.1.6-.2.9-.2l.9.1.6.2-.2.7-.5-.1-.6-.1c-.4 0-.7.1-1 .4-.3.2-.5.6-.7 1A4 4 0 0 0 1.4-2c0 .5 0 .8.3 1 .2.2.5.3.9.3h.6a7 7 0 0 0 .6-.3v.8l-.6.2h-.7Zm0 0"/>  <path id="B" d="m.3 0 1.1-5.4h.7v1l.4-.5.5-.4.7-.2H4l.3.2-.2.7h-.5c-.3-.1-.6-.1-.9.2l-.7.9-.3 1L1.2 0Zm0 0"/>  <path id="A" d="M2 0c-.6 0-.9 0-1.2-.3C.6-.7.5-1 .5-1.7c0-.5 0-1 .2-1.5l.5-1.1c.2-.4.5-.7.8-.9a2 2 0 0 1 1.1-.3c.4 0 .6.1.9.3l.5.7.3-.9h.7L4.4 0h-.7l.1-1c-.3.3-.5.6-.9.8-.3.2-.6.2-.9.2Zm.1-.5c.4-.1.6-.2.9-.5l.6-.6a4 4 0 0 0 .4-1 3 3 0 0 0 .1-.7 4 4 0 0 0 0-.4c.1-.3.1-.5-.1-.7-.3-.2-.5-.3-.8-.3-.3 0-.5 0-.7.2a2 2 0 0 0-.6.7l-.4 1-.1 1.1c0 .4 0 .6.2.8.1.2.3.3.6.3Zm.1-.1"/>  <path id="z" d="M.4 0 2-7.1h1.5c.8 0 1.3.1 1.7.5.3.3.5.8.5 1.3 0 .8-.3 1.5-.8 1.9-.6.4-1.3.6-2.4.6H2L1.3 0ZM2-3.5h.7c.6 0 1.1-.2 1.5-.5.4-.2.6-.7.6-1.3 0-.2-.2-.5-.4-.7-.2-.3-.4-.4-1-.4h-.7Zm0 0"/>  <use xlink:href="#reuse-0"/>  <path id="y" d="m.5 0 2.2-10.2h1.4l-.2 1.9a8 8 0 0 1 1-1l.9-.7a3 3 0 0 1 1.4-.4c.8 0 1.3.2 1.6.6.4.4.6 1 .7 1.8.4-.5.7-1 1.1-1.1.2-.5.6-.8 1.1-1.1a3 3 0 0 1 1.3-.1c.9-.1 1.5.1 1.9.6.4.4.7 1 .7 1.7l-.1 1-.1.8L14 0h-1.7l1.4-6.4a7.8 7.8 0 0 0 .3-1.3c-.1-.4-.2-.7-.4-1-.2-.1-.6-.3-1-.3s-.8.2-1.3.5-.9.8-1.3 1.4c-.4.6-.7 1.5-1 2.5L8.2 0H6.4l1.4-6.4A7 7 0 0 0 8-7.6c0-.5-.1-.8-.3-1-.2-.2-.5-.4-1-.4-.4 0-.7.2-1.3.5-.4.3-.9.8-1.3 1.4a8.7 8.7 0 0 0-1 2.7L2.2 0Zm0 0"/>  <path id="x" d="M3 .2C2.2.2 1.7.2 1.2 0A5.2 5.2 0 0 1 .1-.5V-2l1.2.6 1.7.2c.6 0 1.2-.1 1.6-.4.4-.4.6-.7.6-1.2 0-.2-.2-.6-.4-.9l-1.3-1c-.7-.3-1.3-.6-1.7-1.1-.3-.5-.5-1.1-.5-1.7 0-.8.3-1.5 1-2 .5-.7 1.3-1 2.4-1l1.8.3 1.3.5-.5 1.4-1.1-.5A4.6 4.6 0 0 0 4.7-9c-.4 0-.9.2-1.2.4-.5.3-.5.6-.5 1 0 .3 0 .6.3.9l1.3.9 1.2.8.8.8c.2.4.3.8.3 1.3 0 .9-.4 1.8-1 2.3C5-.1 4 .2 2.8.2Zm0 0"/>  <path id="w" d="m.8 0 2.8-13.6h7l-.5 1.6H5l-.9 4.2H9l-.3 1.5H3.8l-1 4.8H8L7.7 0Zm0 0"/>  <path id="v" d="M-.8 2.5A108 108 0 0 0 1-2.2h1.9v.2L1.9.2A47 47 0 0 1 .5 2.5Zm0 0"/>  <path id="u" d="m.5 0 2.2-10.2h1.4l-.2 1.9 1-1 .9-.8c.2-.2.8-.3 1.2-.3h.6l.6.3-.4 1.4-1-.3c-.6.1-1.2.4-1.7.8s-.9 1-1.1 1.6a8.4 8.4 0 0 0-.8 2L2.2 0Zm0 0"/>  <path id="t" d="m.8 0 2.8-13.6h1.7l-2.5 12H8L7.7 0Zm0 0"/>  <path id="s" d="M.5-4.3.8-6h4.5L5-4.3Zm0 0"/>  <path id="r" d="M3.5.2C2.8.2 2.2 0 1.8-.3 1.3-.6 1-1.3 1-2l.2-1.4 1.3-5.5H.8l.2-.8 1.7-.7 1.2-2.1h1l-.6 2.3H7l-.3 1.3H4L3-3.4v.6l-.3.6c.1.2.1.5.3.7 0 .2.4.3.8.3h.6l.7-.2v1.2l-.7.3a4 4 0 0 1-.9-.1Zm0 0"/>  <path id="q" d="m.5 0 2.1-10.2h1.5L4-8.4l.8-.9 1.1-.8c.4-.2 1.1-.3 1.5-.3.8 0 1.4.2 1.9.7.5.4.7.9.7 1.7v1.1l-.3.6L8.4 0H6.7L8-6.4l.2-.7v-.6c0-.8-.4-1.2-1.3-1.2-.4-.1-.9.1-1.4.4-.4.3-.9.8-1.3 1.5-.4.6-.8 1.5-1 2.6L2.2 0Zm0 0"/>  <path id="p" d="M4-11.9c-.2 0-.4 0-.6-.1-.2-.3-.4-.5-.4-.8.1-.2.2-.6.4-.8.2-.4.6-.4.9-.4.5 0 .7.3.7 1 .1.3.1.6-.2.8-.2.2-.5.3-.8.3ZM.5 0l2.2-10.2h1.7L2.2 0Zm0 0"/>  <path id="o" d="M3.7.2c-.8 0-1.5-.3-2-.9C1.2-1.3.9-2 .9-3.3 1-4.3 1-5 1.3-6a8 8 0 0 1 1-2.3c.5-.5 1-1 1.7-1.5a3.7 3.7 0 0 1 1.9-.6c.7 0 1.2.2 1.6.6.5.3.8.7 1 1.2l.8-1.6h1.2L8.3 0H7l.2-1.9L5.5-.4a3.3 3.3 0 0 1-1.9.6Zm.5-1.4c.5 0 1-.2 1.4-.5.4-.3.8-.8 1.2-1.4A7.4 7.4 0 0 0 8-6.9c0-.6-.3-1.1-.6-1.5-.3-.4-.8-.6-1.3-.6s-1.1.2-1.4.5c-.4.3-.8.7-1 1.3a7 7 0 0 0-.9 1.8 8.9 8.9 0 0 0-.2 2.2c0 .6.2 1.2.4 1.4.3.4.7.6 1.2.6Zm0 0"/>  <path id="n" d="M3.5.2C3 .2 2.3.2 1.8 0 1.3 0 .8-.2.4-.4v-1.7l1.3.6 1.8.2c.6 0 1.1 0 1.6-.3.5-.1.9-.4 1.2-.8.3-.3.4-.8.4-1.4 0-.5-.2-1-.5-1.3-.3-.4-1-.8-1.7-1.2-.5-.3-1-.7-1.3-1a3.4 3.4 0 0 1-.9-1c-.2-.4-.3-1-.3-1.5 0-.9.2-1.6.6-2.2.4-.5 1-1 1.6-1.3a5.4 5.4 0 0 1 2.3-.4c.7-.1 1.3-.1 1.8.1.7.1 1 .4 1.7.6l-.8 1.5A7.6 7.6 0 0 0 8-12a5 5 0 0 0-1.5-.3c-.8 0-1.5.3-2 .7-.5.4-.7 1-.7 1.6 0 .4 0 .8.2 1l.7.6 1 .8 1.5 1 1 1.1c.1.5.2 1 .2 1.6C8.5-2.6 8-1.6 7.1-1 6.2-.2 5.1.1 3.5.1Zm0 0"/>  <path id="m" d="M2 0 1-10.2h1.5l.7 5.7a23.3 23.3 0 0 1 .1 2.4v.8h.2l.5-1 .5-1.4a17 17 0 0 1 .5-.9l3-5.6h1.8L4.3 0Zm0 0"/>  <path id="l" d="M3.6.2C2.8.2 2.2 0 1.7-.5c-.4-.4-.7-1-.7-1.8l.1-.9.1-.8 1.4-6.2h1.7L2.9-3.8l-.2 1.3c0 .4.1.7.3 1 .3.2.6.3 1 .3.6 0 1-.2 1.6-.5s.9-.7 1.3-1.3c.4-.8.7-1.7 1-2.8l.9-4.4h1.7L8.3 0H6.9l.2-1.9L6-.9c0 .3-.4.6-.8.8L3.6.2Zm0 0"/>  <path id="k" d="M4.6.2c-1.2 0-2.1-.4-2.7-1-.7-.7-1-1.7-1-2.8.1-.9.1-1.7.3-2.4a8.1 8.1 0 0 1 1.1-2.2c.5-.8 1-1.2 1.7-1.6a4 4 0 0 1 2-.6c1 0 1.7.2 2.2.7.5.4.7.9.7 1.7a3 3 0 0 1-.6 1.8c-.4.6-1 1-2 1.3-.7.3-1.9.5-3.3.5h-.4v.7c0 .8.2 1.4.6 1.8.4.5 1 .7 1.7.7.5 0 1.1 0 1.4-.2L7.7-2v1.5L6.2 0a6 6 0 0 1-1.5.2Zm-1.7-6H3c.8 0 1.5 0 2.1-.2.7 0 1.2-.3 1.6-.6.3-.4.6-.7.6-1.4 0-.2-.1-.5-.4-.7-.2-.2-.5-.3-.9-.3-.7 0-1.3.3-1.8 1-.6.4-1 1.2-1.3 2.2Zm0 0"/>  <path id="j" d="m.5 0 3-14.4h1.9L2.2 0Zm0 0"/>  <path id="i" d="m.8 0 2.8-13.6h7l-.5 1.6H5L4-7.2h5l-.5 1.5H3.7L2.5 0Zm0 0"/>  <path d="M1.8 0v-13.6h7.8V0Zm1-1h5.8v-11.6H2.8Zm0 0"/>  <path id="h" d="M5.3-5.4V0h-.7l-.1-.7c-.3.3-.5.5-.9.6l-.9.2C2.1 0 1.6-.1 1.3-.4 1-.7.8-1.2.8-1.8v-3.6h.9v3.5c0 .8.3 1.3 1.2 1.3.6 0 1-.2 1.1-.5.3-.4.5-.9.5-1.5v-2.8Zm0 0"/>  <path id="g" d="M6.7-5.5c.6 0 1 .2 1.4.5.3.3.4.8.4 1.5V0h-.8v-3.5c0-.8-.4-1.2-1.1-1.2-.6 0-1 .1-1.1.4C5.2-4 5-3.5 5-3v3h-.7v-3.5c0-.8-.4-1.2-1.1-1.2-.6 0-1 .1-1.2.5-.2.2-.3.8-.3 1.4V0H.8v-5.4h.8v.8h.2l.6-.7 1-.2c.7 0 1.2.3 1.6 1 .2-.5.4-.7.7-.8.3-.1.7-.2 1-.2Zm0 0"/>  <path id="f" d="M5.5-2.7c0 .9-.2 1.7-.7 2-.4.7-1 .9-1.8.9-.5-.2-.9-.2-1.3-.4-.3-.2-.6-.6-.7-1C.6-1.6.5-2 .5-2.7c0-.9.3-1.6.7-2 .5-.5 1-.8 1.8-.8.5 0 1 .2 1.3.5.4 0 .7.4.9.9.2.2.3.7.3 1.3Zm-4 0c0 .7 0 1.2.3 1.5.3.4.7.6 1.2.6.6 0 1-.2 1.2-.6.3-.3.4-.8.4-1.5s-.1-1.1-.4-1.5c-.2-.3-.6-.5-1.2-.5-.5 0-1 .2-1.2.5-.2.4-.3.9-.3 1.5Zm0 0"/>  <path id="e" d="M4-6.5c-.7 0-1.3.3-1.8.8-.4.5-.6 1.2-.6 2.1 0 1 .2 1.6.6 2.1.4.6 1 .8 1.8.8h1l.6-.3v.8L5 0H4c-.8 0-1.4 0-2-.2a2.8 2.8 0 0 1-1-1.4c-.3-.6-.4-1.2-.4-2 0-.7.1-1.3.4-1.9a3 3 0 0 1 1.2-1.3c.5-.2 1.1-.4 1.8-.4.8 0 1.5.1 2 .4l-.3.7-.8-.2a3 3 0 0 0-.9-.2Zm0 0"/>  <path id="d" d="M.4-2.3v-.8h2.4v.8Zm0 0"/>  <path id="c" d="M3-5.5c.3 0 .7.1 1 .3a2 2 0 0 1 1 .9v1.8H1.5c0 .5.1 1 .4 1.4.3.3.7.4 1.3.4H4l.9-.3v.8L4 0a5 5 0 0 1-1 0 3 3 0 0 1-1.2-.1 2.2 2.2 0 0 1-1-1.1c0-.2-.2-.8-.2-1.3-.1-.7 0-1.2.2-1.6.2-.5.5-.9.9-1 .3-.2.7-.4 1.2-.4Zm0 .8c-.6 0-.9.1-1 .4-.4.2-.6.6-.6 1.1h2.8c0-.5-.1-.8-.3-1.1-.2-.3-.5-.4-1-.4Zm0 0"/>  <path id="b" d="M1.3-7.4c.1 0 .3 0 .4.2l.1.4-.1.4-.4.2-.4-.3-.1-.3.1-.4.4-.2Zm.4 2V0H.8v-5.4Zm0 0"/>  <path id="a" d="M2.9-5.5c.6 0 1.1.2 1.4.5.3.3.5.7.5 1.3V0h-.6L4-.8c-.3.3-.5.6-.8.8h-1c-.5 0-1 0-1.3-.3C.6-.5.5-.9.5-1.5c0-.5.2-1 .5-1.2.5-.3 1-.5 2-.5h.8v-.3c.2-.5.2-.8-.2-1l-.8-.2H2l-.7.5L1-5l1-.3.9-.2Zm1 2.9h-.8c-.6 0-1 .1-1.4.3-.1.3-.3.5-.3.8 0 .3 0 .5.2.7l.7.2c.5 0 .9-.1 1.2-.4.3-.2.4-.6.4-1Zm.1 0"/>  <use xlink:href="#reuse-0"/> </defs> <image xlink:href="svg/9/109_10.jpg" width="497" height="279"/> <path d="M-.2 188c.6 0 1.1.2 1.4.5.3.2.5.7.5 1.3v3.7h-.6l-.2-.8-.9.7-.9.2c-.5 0-1.1-.2-1.3-.4-.3-.3-.4-.7-.4-1.2 0-.6.2-1 .6-1.3.4-.1 1-.4 2-.4h.7v-.5c.1-.3.1-.6-.2-.8-.1-.2-.4-.3-.8-.3-.2 0-.5 0-.7.3h-.8l-.2-.5c.2-.1.5-.3.8-.3l1-.2Zm1 2.8H0c-.6.2-1 .2-1.3.5-.3.1-.4.4-.4.7 0 .3 0 .5.2.7l.8.2c.4 0 .7-.2 1-.4.5-.3.6-.6.6-1.2Zm3-4.8.4.3.1.4-.1.3-.4.2-.4-.1-.1-.4.1-.5.4-.1Zm.5 2.2v5.3h-1V188ZM8 188c.5 0 1 .1 1.2.3a2 2 0 0 1 .8.9l.2 1.2v.6H6.5c0 .6.2 1 .5 1.3.3.4.7.5 1.3.5h.9l.8-.4v.8l-.8.3a5 5 0 0 1-1 0 3 3 0 0 1-1.2-.1 2.2 2.2 0 0 1-1.1-1.1c-.1-.3-.2-.9-.2-1.5s0-1 .3-1.5c.1-.3.4-.7.8-1 .2-.1.7-.3 1.2-.3Zm0 .7c-.4 0-.8.3-1 .4-.2.3-.4.7-.4 1.2h2.7c0-.5-.1-.9-.3-1.1-.2-.3-.6-.5-1-.5Zm3.1 2.5v-.8h2.4v.8ZM18 187c-.8 0-1.4.3-1.8.8-.5.5-.7 1.2-.7 2.1 0 .9.2 1.6.6 2.1.4.5 1 .8 1.9.8l.9-.1.8-.2v.8l-.8.2h-1c-.9.1-1.5.1-1.9-.3a2.8 2.8 0 0 1-1-1.4c-.4-.5-.5-1.2-.5-2 .1-.5.2-1.2.5-1.8a3 3 0 0 1 1-1.3c.6-.3 1.3-.5 2-.5.8 0 1.4.2 2 .5l-.4.7-.6-.3a3 3 0 0 0-1.1 0Zm7.8 3.8c0 .9-.2 1.6-.8 2-.3.5-.9.8-1.7.8-.5 0-1-.1-1.3-.3l-.9-1c-.1-.4-.3-1-.3-1.5 0-.9.2-1.6.7-2 .4-.6 1-.8 1.8-.8.5 0 1 .1 1.3.3.4.3.7.7.9 1 .2.4.3.9.3 1.5Zm-4 0c-.1.6-.1 1.1.2 1.5.4.4.8.5 1.3.5s1-.1 1.2-.5c.2-.4.4-.9.4-1.5 0-.8-.2-1.1-.4-1.5-.3-.4-.7-.6-1.2-.6-.6.1-1 .3-1.3.6 0 .4-.3.8-.3 1.5ZM33 188c.8 0 1.2.2 1.5.5.2.3.5.8.5 1.5v3.5h-1V190c0-.8-.4-1.3-1.1-1.3-.5.1-.9.3-1.1.6-.2.2-.4.6-.4 1.2v3h-.8V190c0-.8-.4-1.3-1.1-1.3-.6.1-1 .3-1.1.6-.2.3-.4.7-.4 1.4v2.8h-1V188h1v.8l.8-.6.9-.2c.7 0 1.3.3 1.5 1 .3-.5.6-.7.9-.9l.9-.1Zm5.6 0c.5 0 .8.1 1.2.3a2 2 0 0 1 .7.9c.2.3.3.7.3 1.2v.6h-3.7c0 .6.2 1 .5 1.3.3.4.7.5 1.2.5h1l.8-.4v.8l-.8.3a5 5 0 0 1-1 0 3 3 0 0 1-1.3-.1 2.2 2.2 0 0 1-1-1.1c-.1-.3-.2-.9-.2-1.5s0-1 .2-1.5l.8-1c.4-.1.8-.3 1.3-.3Zm0 .7c-.4 0-.8.3-1 .4-.3.3-.4.7-.4 1.2h2.7c0-.5-.1-.9-.3-1.1-.2-.3-.6-.5-1-.5Zm5.6-.7c.6 0 1.1.2 1.4.5.4.2.5.7.5 1.3v3.7h-.6l-.2-.8-.8.7-1 .2c-.5 0-1-.2-1.2-.4-.4-.3-.5-.7-.5-1.2 0-.6.2-1 .6-1.3.4-.1 1-.4 2-.4h.8v-.5c.1-.3 0-.6-.2-.8-.2-.2-.5-.3-1-.3 0 0-.4 0-.7.3h-.7l-.2-.5c.2-.1.5-.3.8-.3l1-.2Zm1 2.8h-.6c-.8.2-1.3.2-1.6.5-.2.1-.3.4-.3.7 0 .3 0 .5.3.7l.7.2c.3 0 .8-.2 1.1-.4.3-.3.5-.6.5-1.2Zm7.1-2.7v5.4h-.8v-.7h-.2l-.7.6-1 .2c-.6 0-.9-.2-1.3-.6-.3-.2-.6-.7-.6-1.4v-3.5h1v3.5c-.1.8.3 1.2 1 1.2s1.1-.1 1.3-.5c.3-.3.4-.8.4-1.3v-2.9Zm0 0" style="fill:none;stroke-width:3;stroke-linecap:butt;stroke-linejoin:round;stroke:#fff;stroke-opacity:.6;stroke-miterlimit:10" transform=" rotate(  340 24.7206 190.47) "/> <g style="fill:#222;fill-opacity:1" transform=" rotate(  340 24.7206 190.47) ">  <use xlink:href="#a" x="-3.1" y="193.5"/>  <use xlink:href="#b" x="2.5" y="193.5"/>  <use xlink:href="#c" x="5.1" y="193.5"/>  <use xlink:href="#d" x="10.7" y="193.5"/>  <use xlink:href="#e" x="14" y="193.5"/>  <use xlink:href="#f" x="20.3" y="193.5"/>  <use xlink:href="#g" x="26.3" y="193.5"/>  <use xlink:href="#c" x="35.7" y="193.5"/>  <use xlink:href="#a" x="41.3" y="193.5"/>  <use xlink:href="#h" x="46.9" y="193.5"/> </g> <path d="m137 184.5 3-13.6h6.8l-.3 1.5h-5.2l-1 4.8h4.7l-.2 1.5h-4.9l-1.2 5.8Zm8.8 0L149 170h1.6l-3.1 14.5Zm9 .2c-1.2 0-2-.4-2.7-1-.7-.9-1.1-1.7-1.1-3 .1-.7.2-1.5.5-2.3a8.1 8.1 0 0 1 1-2.2c.4-.5 1-1 1.5-1.4a4 4 0 0 1 2.2-.8c1 0 1.8.3 2.2.7.5.4.6 1 .6 1.8a3 3 0 0 1-.5 1.8c-.4.5-1 1-2 1.3-.7.3-1.9.4-3.2.4h-.4v.8c-.1.7.1 1.2.4 1.8.5.4 1.1.7 1.7.7l1.5-.3 1.4-.5v1.4l-1.4.6a6 6 0 0 1-1.7.2Zm-1.7-6h.1c.8 0 1.5 0 2.1-.2.7-.1 1.2-.3 1.7-.7.3-.3.5-.7.5-1.2 0-.3-.1-.6-.3-.8-.3-.2-.6-.3-1-.3-.8 0-1.4.3-1.9.8-.5.7-.9 1.4-1.3 2.4Zm10.2 6c-.8 0-1.4-.3-1.9-.7-.4-.4-.7-1-.7-1.9l.1-.8.2-.8 1.3-6.2h1.7l-1.4 6.4-.2 1.3c0 .4.1.7.3 1 .3.1.6.2 1 .2.6.1 1.1-.2 1.6-.4s.9-.8 1.3-1.4c.4-.7.7-1.6 1-2.7l.9-4.4h1.7l-2.2 10.2h-1.4l.2-2-1.1 1.1c0 .4-.4.5-.8.7-.6.3-1.1.4-1.6.4Zm9.5-.2-1.2-10.2h1.7l.6 5.7a23.3 23.3 0 0 1 .1 2.4v.8h.2l.4-1 .6-1.4a17 17 0 0 1 .5-.9l3-5.6h1.8l-5.5 10.2Zm11.4.2c-1.2 0-2.2-.4-2.8-1-.6-.9-1-1.7-1-3 .1-.7.3-1.5.5-2.3a8.1 8.1 0 0 1 .9-2.2c.5-.5 1-1 1.6-1.4a4 4 0 0 1 2.2-.8c1 0 1.7.3 2.1.7.5.4.8 1 .8 1.8a3 3 0 0 1-.6 1.8c-.5.5-1 1-2 1.3-.8.3-1.9.4-3.4.4h-.3v.8c0 .7.2 1.2.5 1.8.4.4 1 .7 1.8.7l1.3-.3 1.4-.5v1.4l-1.4.6a6 6 0 0 1-1.6.2Zm-1.7-6c.9 0 1.7 0 2.3-.2.5-.1 1.1-.3 1.5-.7.4-.3.6-.7.6-1.2 0-.3-.2-.6-.4-.8-.2-.2-.5-.3-1-.3-.6 0-1.2.3-1.8.8-.5.7-1 1.4-1.2 2.4Zm15 6-1.7-.2c-.5 0-1-.2-1.4-.5v-1.6l1.3.5c.5.2 1.1.3 1.8.3.6 0 1.1-.2 1.6-.3.5-.2.9-.4 1.2-.8.2-.4.4-.8.4-1.4 0-.5-.2-1-.5-1.3-.3-.4-1-.8-1.7-1.4l-1.3-.8a3.4 3.4 0 0 1-.9-1c-.2-.6-.3-1.1-.3-1.7 0-.7.2-1.4.6-1.9.4-.8 1-1.2 1.6-1.5a5.4 5.4 0 0 1 2.2-.4c.8 0 1.4 0 2 .3l1.4.5-.6 1.5a7.6 7.6 0 0 0-1.2-.5 5 5 0 0 0-1.6-.3c-.7 0-1.4.2-1.9.6-.5.4-.7 1-.7 1.7 0 .5 0 .7.2 1 0 .3.4.5.6.7l1.1.7 1.5 1.1 1 .9c.1.6.2 1.1.2 1.7.1 1.4-.4 2.4-1.4 3-.8.7-1.9 1-3.5 1Zm9.8 0c-.9 0-1.5-.3-2-1-.6-.4-.8-1.3-.8-2.4 0-1.1.1-2 .4-2.8a8 8 0 0 1 1-2.3c.4-.6 1-1.2 1.6-1.5a3.7 3.7 0 0 1 2-.7c.7 0 1.2.3 1.6.6.5.4.9.8 1 1.4l.8-1.7h1.1l-2 10.2h-1.5l.3-2c-.6.7-1.1 1.2-1.7 1.5a3.3 3.3 0 0 1-1.9.7Zm.5-1.4c.5 0 1-.3 1.4-.5l1.2-1.4a7.4 7.4 0 0 0 1.1-3.9c0-.5-.2-1-.5-1.4-.3-.4-.8-.6-1.3-.6s-1 .2-1.4.5c-.4.3-.8.7-1.1 1.3a7 7 0 0 0-.7 1.7 8.9 8.9 0 0 0-.3 2.2c0 .8.1 1.2.4 1.6.4.2.7.5 1.2.5Zm10.6-10.7c-.2 0-.4 0-.6-.2-.2-.2-.3-.4-.3-.7l.3-.9c.2-.2.5-.3.8-.3.6 0 .9.3.9.8 0 .4-.1.7-.3 1-.3.2-.5.3-.8.3Zm-3.4 11.9 2.1-10.2h1.7l-2.2 10.2Zm4.7 0 2.3-10.3h1.4l-.2 2 .9-1.1.9-.7c.7-.4 1.2-.4 1.8-.4.7 0 1.2.3 1.8.7.4.5.7 1.1.7 2l-.1.7-.1.9-1.4 6.2H226l1.3-6.5.1-.7v-.5c.1-.8-.2-1.2-1.1-1.2-.5 0-1 .1-1.5.4-.5.3-1 .8-1.3 1.4-.5.7-.8 1.6-1 2.7l-1 4.4Zm14.1.2c-.7 0-1.3-.2-1.7-.5-.5-.4-.7-1-.7-1.8l.1-1.3 1.2-5.5H231l.3-.8 1.7-.7 1.2-2.1h1l-.7 2.3h2.7l-.2 1.3h-2.6l-1.2 5.4-.1.7v.6c-.1.1-.1.5.1.7.2.2.5.3.8.3h.7l.7-.3v1.3l-.7.2a4 4 0 0 1-.9.2Zm3.2-4.5.5-1.6h4.5l-.4 1.6ZM119 209l3-13.4h1.6l-2.6 11.9h5.2l-.2 1.6Zm12 .2c-.8 0-1.5-.2-2-.8-.5-.6-.8-1.5-.8-2.6 0-1 .2-1.9.4-2.8a8 8 0 0 1 1-2.2c.5-.7 1-1.2 1.6-1.5a3.7 3.7 0 0 1 2-.6c.8 0 1.3.2 1.8.5l.8 1.2.8-1.4h1.2l-2.2 10h-1.3l.2-2c-.5.8-1 1.3-1.6 1.7a3.3 3.3 0 0 1-1.9.5Zm.6-1.2c.4-.1.9-.3 1.3-.6.5-.4.9-.9 1.2-1.4a7.4 7.4 0 0 0 1.1-4c0-.5-.1-.9-.5-1.3-.3-.4-.7-.7-1.3-.7-.4 0-1 .2-1.4.6-.4.3-.7.7-1 1.2a7 7 0 0 0-.9 1.9 8.9 8.9 0 0 0-.1 2.1c0 .7 0 1.2.4 1.6.2.3.6.5 1.2.5Zm10.1 1.2c-.7 0-1.4-.2-1.7-.6-.6-.4-.8-1-.8-1.9v-.7l.2-.9 1.3-6.2h1.7l-1.4 6.4v1.2c-.1.5-.1.8.2 1 .2.2.5.5 1 .5.4-.1.8-.3 1.4-.6.4-.3 1-.8 1.4-1.5.4-.6.7-1.5 1-2.6l1-4.4h1.5l-2.1 10.1H145l.3-2h-.1l-.9 1.2-1.1.8c-.4.1-1 .2-1.5.2Zm8-.2 2.1-10h1.4l-.2 1.8 1-1c.1-.4.4-.6.8-.8.5-.2.9-.3 1.4-.3h.5l.6.1-.4 1.5-.9-.1c-.6 0-1.2.2-1.7.6-.5.5-1 1-1.3 1.6a8.4 8.4 0 0 0-.7 2l-1 4.7Zm11.2.2c-1.2 0-2-.2-2.7-1-.7-.7-1-1.6-1-2.8 0-.8.1-1.6.4-2.4a8.1 8.1 0 0 1 1-2.2c.4-.6 1-1.1 1.6-1.5a4 4 0 0 1 2.1-.6c1 0 1.7.2 2.2.6.5.4.7 1 .7 1.8a3 3 0 0 1-.6 1.8c-.4.5-1 1-2 1.3-.7.3-1.9.4-3.2.4h-.5v.8c.1.6.2 1.3.6 1.8.4.4 1 .7 1.7.7.5 0 1-.1 1.4-.3.4 0 .9-.3 1.4-.5v1.4l-1.4.5a6 6 0 0 1-1.7.2Zm-1.7-5.9h.1c.8 0 1.5 0 2.1-.2.7-.1 1.2-.4 1.6-.7.4-.3.6-.7.6-1.2 0-.3-.1-.6-.4-.8-.2-.2-.5-.4-1-.4-.6 0-1.2.4-1.7.9-.6.6-1 1.4-1.3 2.4Zm7 5.7 2.2-10.1h1.6l-.3 1.8.9-1 1.1-.7c.4-.3 1-.4 1.5-.4.8 0 1.4.2 1.8.7.6.5.8 1 .8 1.9v.9l-.3.8-1.3 6.1h-1.8l1.4-6.4.1-.6v-.6c.1-.8-.2-1.4-1.1-1.4-.5.1-1 .3-1.5.6-.3.3-.9.8-1.3 1.4-.5.7-.8 1.6-1 2.7l-1 4.3Zm14.1.2c-.7 0-1.3-.1-1.7-.4-.6-.4-.7-1-.7-1.8l.1-1.3 1.2-5.7h-1.6l.2-.6 1.7-.7 1.2-2.1h1l-.7 2.3h2.7l-.3 1.1H181l-1.3 5.7-.1.6v.5c-.1.3-.1.6.1.8.2.2.5.3.9.3h.6l.8-.4v1.5l-.8.1a4 4 0 0 1-.9.1Zm2 2.3a108 108 0 0 0 1.9-4.5h1.8l-1 2.3a47 47 0 0 1-1.4 2.2Zm11.4-2.5 2.8-13.4h7l-.5 1.4h-5l-1 4.2h5l-.4 1.5h-4.9l-1 4.9h5.2l-.3 1.4Zm11.9.2-1.6-.1a5.2 5.2 0 0 1-1.2-.5v-1.5l1.2.5c.5.2 1 .4 1.6.4.7-.1 1.3-.3 1.7-.6.4-.3.6-.7.6-1.1 0-.4-.2-.7-.4-1l-1.3-.8c-.8-.5-1.3-.9-1.7-1.3-.4-.4-.5-1-.5-1.6 0-.9.3-1.6.9-2.1.6-.6 1.5-.8 2.5-.8.6 0 1.2 0 1.7.2.6.1 1 .3 1.4.5l-.5 1.3-1.1-.4a4.6 4.6 0 0 0-1.5-.3c-.4 0-1 .2-1.3.5-.3.2-.5.5-.5 1 0 .3.1.5.4.8.2.3.6.7 1.3 1l1.2.7.8 1c.2.2.3.6.3 1.1 0 1-.4 1.9-1.1 2.3-.7.6-1.7.8-2.9.8Zm8.8 0c-.7 0-1.4-.1-1.7-.4-.5-.4-.7-1-.7-1.8v-1.3l1.3-5.7h-1.6l.3-.6 1.6-.7 1.2-2.1h1l-.7 2.3h2.7l-.3 1.1H215l-1.2 5.7-.1.6v.5c-.1.3-.1.6.1.8.2.2.5.3.8.3h.7l.7-.4v1.5l-.7.1a4 4 0 0 1-1 .1Zm6.4 0c-.8 0-1.4-.2-1.9-.6-.4-.4-.7-1-.7-1.9v-.7l.3-.9 1.3-6.2h1.7l-1.5 6.4-.1 1.2c.1.5.1.8.3 1 .2.2.6.5 1 .5.5-.1 1-.3 1.5-.6s1-.8 1.3-1.5c.5-.6.8-1.5 1-2.6l1-4.4h1.6l-2.1 10.1H224l.3-2-1.1 1.2-.8.8-1.7.2Zm11.1 0c-.9 0-1.5-.2-2-.8-.6-.6-.9-1.5-.9-2.6 0-1 .2-1.9.5-2.8a8 8 0 0 1 1-2.2c.4-.7 1-1.2 1.6-1.5a3.7 3.7 0 0 1 1.9-.6c.8 0 1.3.2 1.7.5.4.4.8.8 1 1.2l.7-1.4h1.2l-2.1 10H235l.4-2c-.6.8-1.1 1.3-1.7 1.7a3.3 3.3 0 0 1-1.9.5Zm.5-1.2c.5-.1 1-.3 1.4-.6l1.2-1.4a7.4 7.4 0 0 0 1-4c0-.5 0-.9-.3-1.3-.4-.4-.9-.7-1.4-.7s-1 .2-1.4.6c-.4.3-.9.7-1.1 1.2a7 7 0 0 0-.8 1.9 8.9 8.9 0 0 0-.2 2.1c0 .7.2 1.2.4 1.6.3.3.8.5 1.2.5ZM243 197.2c-.3 0-.5-.2-.6-.3-.2-.1-.4-.3-.4-.6l.4-.9c.2-.2.5-.3.8-.3.6-.1.9.3.9.8 0 .4-.1.7-.3 1.1-.3 0-.5.2-.8.2Zm-3.5 11.8 2.2-10.1h1.7l-2.2 10.1Zm4.9 0 2.2-10h1.3l-.2 1.8h.1l.9-1c.2-.4.6-.6 1-.8.3-.2.6-.3 1.1-.3h.7l.5.1-.3 1.5-1-.1c-.6 0-1.2.2-1.7.6-.5.5-.9 1-1.2 1.6a8.4 8.4 0 0 0-.8 2l-1 4.7Zm11.3.2c-1.2 0-2.1-.2-2.8-1-.6-.7-.9-1.6-.9-2.8 0-.8.2-1.6.4-2.4a8.1 8.1 0 0 1 .9-2.2c.5-.6 1-1.1 1.7-1.5a4 4 0 0 1 2.1-.6c.9 0 1.6.2 2.1.6.5.4.8 1 .8 1.8a3 3 0 0 1-.7 1.8c-.3.5-1 1-1.9 1.3-.9.3-2 .4-3.4.4h-.3v.8c0 .6.2 1.3.5 1.8.4.4 1 .7 1.8.7.4 0 .9-.1 1.3-.3.5 0 1-.3 1.4-.5v1.4l-1.4.5a6 6 0 0 1-1.6.2Zm-1.8-5.9h.2c.7 0 1.4 0 1.9-.2.9-.1 1.4-.4 1.8-.7.3-.3.5-.7.5-1.2 0-.3 0-.6-.3-.8-.2-.2-.6-.4-1-.4-.6 0-1.2.4-1.8.9-.5.6-1 1.4-1.2 2.4ZM151.3 233.6l2.2-10.1h1.4l-.2 1.8a8 8 0 0 1 .9-1l1-.6a3 3 0 0 1 1.4-.4c.7 0 1.3.2 1.6.6.4.4.6 1 .7 1.6l1.1-1c.2-.5.6-.7 1.1-.9a3 3 0 0 1 1.4-.3c.8 0 1.4.2 1.8.6.4.5.7 1.1.7 1.9l-.1.8-.1.9-1.4 6.1h-1.7l1.4-6.3a7.8 7.8 0 0 0 .2-1.5c0-.3-.1-.6-.3-.8-.2-.2-.6-.3-1-.3s-.8.1-1.4.3c-.4.4-.8 1-1.2 1.5-.4.7-.7 1.5-1 2.5l-.8 4.6h-1.8l1.4-6.3a7 7 0 0 0 .2-1.3c0-.4-.1-.7-.3-1-.2-.2-.5-.3-1-.3-.4 0-.8.1-1.3.3-.4.4-.9 1-1.2 1.6a8.7 8.7 0 0 0-1 2.7l-1 4.3Zm19.7.2c-.6 0-1.3-.3-2-.8-.3-.6-.6-1.5-.6-2.6-.1-1 .1-1.9.3-2.8a8 8 0 0 1 1-2.2c.5-.7 1-1.2 1.6-1.6a3.7 3.7 0 0 1 2-.5c.7 0 1.3.1 1.7.5l.9 1.2.8-1.5h1.2l-2.2 10.1h-1.3l.2-1.8-1.6 1.4a3.3 3.3 0 0 1-2 .6Zm.7-1.4c.4 0 .9-.1 1.3-.4.5-.4 1-.9 1.2-1.5a7.4 7.4 0 0 0 1.1-3.8c0-.6-.1-1-.5-1.4-.3-.5-.7-.6-1.3-.6-.5 0-1 .1-1.4.3-.4.5-.8 1-1 1.4a7 7 0 0 0-.9 1.8 8.9 8.9 0 0 0-.2 2.2c0 .6.2 1.2.5 1.5.2.4.5.5 1.1.5Zm7 1.2 2.3-10.1h1.3l-.3 1.8 1-1 1-.7c.4-.2.8-.3 1.3-.3h.5l.6.1-.4 1.6-1-.2c-.6 0-1.2.2-1.7.6-.5.4-.9 1-1.2 1.6a8.4 8.4 0 0 0-.7 2l-1 4.6Zm11.1-11.8c-.2 0-.5-.1-.6-.3-.2-.1-.3-.3-.3-.5.1-.5.1-.7.3-1 .2-.2.5-.3.8-.3.6 0 1 .2 1 .8-.1.5-.2.7-.4 1-.3.1-.6.2-.8.2Zm-3.5 11.8 2.2-10.1h1.7l-2.2 10.1Zm7.9.2c-.7 0-1.3-.1-1.7-.5-.5-.3-.7-.9-.7-1.7l.1-1.3 1.2-5.6h-1.6l.2-.7 1.7-.8 1.2-1.9h1l-.6 2.1h2.6l-.3 1.3h-2.5l-1.2 5.6-.1.5v.6c-.1.3-.1.6.1.8.2.2.4.3.8.3h.7l.7-.4v1.4l-.8.2a4 4 0 0 1-.8.1Zm6.8-12c-.2 0-.5-.1-.6-.3-.2-.1-.4-.3-.4-.5.1-.5.2-.7.4-1 .2-.2.6-.3.8-.3.6 0 1 .2 1 .8-.1.5-.2.7-.5 1-.2.1-.4.2-.7.2Zm-3.5 11.8 2.2-10.1h1.7l-2.2 10.1Zm4.9 0 2.2-10.1h1.3l-.2 1.8h.1a8 8 0 0 1 .8-1l1.1-.6a3 3 0 0 1 1.4-.4c.7 0 1.3.2 1.6.6.4.4.6 1 .7 1.6l1.1-1c.2-.5.5-.7 1-.9a3 3 0 0 1 1.5-.3c.8 0 1.4.2 1.8.6.4.5.6 1.1.6 1.9v.8c0 .4 0 .6-.2.9l-1.2 6.1h-1.8l1.4-6.3a7.8 7.8 0 0 0 .2-1.5c0-.3-.1-.6-.3-.8-.2-.2-.6-.3-1-.3s-.9.1-1.3.3c-.5.4-1 1-1.3 1.5-.4.7-.7 1.5-1 2.5l-.9 4.6h-1.7l1.4-6.3a7 7 0 0 0 .2-1.3c0-.4-.1-.7-.3-1-.2-.2-.6-.3-1-.3s-.8.1-1.3.3c-.5.4-.9 1-1.3 1.6a8.7 8.7 0 0 0-1 2.7l-1 4.3Zm20.7.2c-1.1 0-2-.3-2.7-1-.7-.7-1-1.6-1-2.8 0-.8.1-1.6.4-2.4a8.1 8.1 0 0 1 1-2.2c.4-.6 1-1.2 1.6-1.4a4 4 0 0 1 2.1-.7c1 0 1.7.2 2.2.6.5.4.7 1 .7 1.7a3 3 0 0 1-.6 1.9c-.4.5-1 1-2 1.3-.8.2-1.9.4-3.2.4h-.4v.8c-.1.7 0 1.3.4 1.8.4.4 1.1.6 1.8.6.6 0 1 0 1.4-.2l1.4-.5v1.3l-1.4.6a6 6 0 0 1-1.8.2Zm-1.7-6h2.2c.7-.2 1.2-.5 1.6-.8.4-.3.6-.7.6-1.2 0-.4-.1-.6-.4-.8-.2-.2-.4-.3-1-.3s-1.2.2-1.7.8c-.7.6-1 1.4-1.3 2.4Zm0 .1" style="fill:none;stroke-width:2;stroke-linecap:butt;stroke-linejoin:round;stroke:#fff;stroke-opacity:.6;stroke-miterlimit:10" transform=" rotate(  340 190.075 193.763) "/> <g style="fill:#4d80b3;fill-opacity:1" transform=" rotate(  340 190.075 193.763) ">  <use xlink:href="#i" x="136.3" y="184.5"/>  <use xlink:href="#j" x="145.3" y="184.5"/>  <use xlink:href="#k" x="150.2" y="184.5"/>  <use xlink:href="#l" x="159.7" y="184.5"/>  <use xlink:href="#m" x="170.7" y="184.5"/>  <use xlink:href="#k" x="179.6" y="184.5"/>  <use xlink:href="#glyph1-6" x="189.1" y="184.5"/>  <use xlink:href="#n" x="194" y="184.5"/>  <use xlink:href="#o" x="203.6" y="184.5"/>  <use xlink:href="#p" x="214.4" y="184.5"/>  <use xlink:href="#q" x="219.3" y="184.5"/>  <use xlink:href="#r" x="230.3" y="184.5"/>  <use xlink:href="#s" x="236.6" y="184.5"/>  <use xlink:href="#t" x="118.2" y="209.1"/>  <use xlink:href="#o" x="127.3" y="209.1"/>  <use xlink:href="#l" x="138.1" y="209.1"/>  <use xlink:href="#u" x="149.1" y="209.1"/>  <use xlink:href="#k" x="156.3" y="209.1"/>  <use xlink:href="#q" x="165.8" y="209.1"/>  <use xlink:href="#r" x="176.8" y="209.1"/>  <use xlink:href="#v" x="183.1" y="209.1"/>  <use xlink:href="#glyph1-6" x="188" y="209.1"/>  <use xlink:href="#w" x="192.9" y="209.1"/>  <use xlink:href="#x" x="202.7" y="209.1"/>  <use xlink:href="#r" x="210.9" y="209.1"/>  <use xlink:href="#l" x="217.2" y="209.1"/>  <use xlink:href="#o" x="228.2" y="209.1"/>  <use xlink:href="#p" x="239" y="209.1"/>  <use xlink:href="#u" x="243.9" y="209.1"/>  <use xlink:href="#k" x="251.1" y="209.1"/>  <use xlink:href="#y" x="150.8" y="233.6"/>  <use xlink:href="#o" x="167.4" y="233.6"/>  <use xlink:href="#u" x="178.2" y="233.6"/>  <use xlink:href="#p" x="185.8" y="233.6"/>  <use xlink:href="#r" x="190.7" y="233.6"/>  <use xlink:href="#p" x="197" y="233.6"/>  <use xlink:href="#y" x="201.9" y="233.6"/>  <use xlink:href="#k" x="218.5" y="233.6"/> </g> <path d="m362.5 261.6 1.5-7.2h1.6c.8 0 1.3.2 1.6.6.4.3.5.7.5 1.3 0 .7-.2 1.4-.7 1.7-.6.6-1.4.8-2.4.8h-.6l-.6 2.8Zm1.5-3.6h.7c.7 0 1.3 0 1.6-.4.3-.3.5-.7.5-1.3 0-.4 0-.7-.3-.9l-1-.2h-.8ZM369.7 261.6c-.4 0-.8-.1-1-.4-.4-.3-.6-.8-.6-1.4.1-.5.1-1 .3-1.4l.6-1.2.8-.8a2 2 0 0 1 1-.3c.5 0 .8.1 1.1.3l.2.6.6-.8h.5l-1.1 5.4h-.7l.1-1-.8.7c-.3.2-.7.3-1 .3Zm.3-.6c.2 0 .4 0 .7-.3l.6-.8a4 4 0 0 0 .5-.9 3 3 0 0 0 0-.6 4 4 0 0 0 .2-.5c-.1-.3-.1-.6-.4-.8-.1-.1-.4-.3-.6-.3-.3 0-.6.2-.8.3a2 2 0 0 0-.6.7l-.3 1-.3.9c.1.6.1.9.3 1.1l.7.1Zm3.7.6 1.1-5.4h.8l-.1 1 .4-.5.6-.4.5-.3h.7l-.2 1-.5-.1-.9.3c-.1.2-.5.5-.6.9l-.5.9-.4 2.6Zm6 0c-.7 0-1.1-.1-1.5-.5-.2-.3-.5-.8-.5-1.5 0-.4 0-.9.2-1.3l.5-1.1c.3-.4.6-.6 1-.8.2-.2.6-.4.9-.4h1l.5.5-.2.5-.6-.1h-.5c-.4-.1-.7-.1-1 .2l-.7 1.1a4 4 0 0 0-.2 1.4c0 .5 0 .8.3 1 .1.2.5.3.9.3h.6a7 7 0 0 0 .6-.4v.8l-.6.3h-.7Zm4.9 0 1.1-5.4h.8l-.1 1 .4-.7a2 2 0 0 1 .6-.3l.8-.1c.4-.1.8-.1 1 .3.3.3.4.6.4 1v.6l-.1.3-.7 3.3h-1l.8-3.4v-.7c0-.4-.2-.5-.6-.5-.2-.1-.5-.1-.7 0-.3.2-.5.5-.8.9l-.5 1.3-.5 2.4Zm7.4 0c-.3 0-.6-.1-1-.4-.3-.3-.4-.8-.4-1.4 0-.5 0-1 .2-1.4l.5-1.2c.3-.2.5-.6.9-.8a2 2 0 0 1 1-.3c.4 0 .8.1.9.3l.5.6.4-.8h.6l-1.1 5.4h-.7l.1-1-.9.7c-.2.2-.6.3-1 .3Zm.4-.6c.2 0 .4 0 .7-.3l.6-.8a4 4 0 0 0 .5-.9 3 3 0 0 0 0-.6 4 4 0 0 0 0-.5c.1-.3.1-.6-.2-.8-.2-.1-.4-.3-.7-.3-.2 0-.5.2-.7.3a2 2 0 0 0-.6.7l-.4 1-.1.9c0 .6 0 .9.2 1.1l.6.1Zm5.2.6c-.3 0-.6 0-.9-.2-.2-.2-.3-.5-.3-1v-.5l.8-3.1h-1l.1-.2 1-.6.4-1h.7l-.4 1.2h1.4l-.1.7H398l-.7 2.9v1l.6.1h.1l.5-.1v.7h-.5l-.4.2Zm3.6-6.3-.2-.1-.2-.4.1-.4.5-.2c.3 0 .4.1.4.4 0 .4 0 .4-.2.5 0 .2-.2.2-.4.2Zm-1.8 6.3 1.1-5.4h1l-1.3 5.4Zm4.8 0c-.6 0-1.2-.1-1.5-.5-.3-.4-.5-.9-.5-1.5l.1-1.2a4 4 0 0 1 .5-1.2l.9-.8c.3-.2.7-.3 1.2-.3.6 0 1 .2 1.4.6.4.3.7.9.7 1.5l-.3 1.2a4 4 0 0 1-.5 1.1c-.2.5-.5.6-.8.8l-1.2.3Zm0-.6c.4-.1.6-.2 1-.4l.4-1c.4-.4.4-1 .4-1.5l-.1-.6a1 1 0 0 0-.4-.5h-.6c-.4-.1-.7-.1-1 .2-.3.3-.5.6-.6 1a4 4 0 0 0-.2 1.4c-.1.4-.1.7.3 1 .2.2.5.3.8.3Zm3.4.6 1.1-5.4h.8l-.1 1 .4-.7a2 2 0 0 1 .6-.3l.8-.1c.4-.1.8-.1 1 .3.3.3.4.6.4 1v.6l-.1.3-.7 3.3h-1l.8-3.4v-.7c0-.4-.2-.5-.6-.5-.2-.1-.5-.1-.7 0-.3.2-.5.5-.8.9l-.5 1.3-.5 2.4Zm7.4 0c-.3 0-.6-.1-1-.4-.3-.3-.4-.8-.4-1.4 0-.5 0-1 .2-1.4l.5-1.2c.3-.2.5-.6.9-.8a2 2 0 0 1 1-.3c.4 0 .8.1.9.3l.5.6.4-.8h.6l-1.1 5.4h-.7l.1-1-.9.7c-.2.2-.6.3-1 .3Zm.4-.6c.2 0 .4 0 .7-.3l.6-.8a4 4 0 0 0 .5-.9 3 3 0 0 0 0-.6 4 4 0 0 0 0-.5c.1-.3.1-.6-.2-.8-.2-.1-.4-.3-.7-.3-.2 0-.5.2-.7.3a2 2 0 0 0-.6.7l-.4 1-.1.9c0 .6 0 .9.2 1.1l.6.1Zm3.6.6 1.8-7.6h.8l-1.6 7.6Zm-57.2 12c-.4 0-.8-.2-1-.6-.3-.2-.4-.6-.4-1.2l.1-1.4c.2-.5.3-.9.6-1.2.2-.4.5-.6.8-.8a2 2 0 0 1 1-.4c.6 0 .8.1 1.1.3l.3.7h.1a35.3 35.3 0 0 1 .2-1.3l.4-1.8h.9l-1.7 7.6h-.7l.1-1-.8.8c-.3.2-.6.3-1 .3Zm.3-.7c.2 0 .5-.1.7-.3l.6-.6.5-1 .1-1.1c0-.4 0-.6-.2-.9-.1-.1-.4-.2-.7-.2-.3 0-.6 0-.8.2l-.5.7-.4 1-.1 1c0 .9.2 1.3.7 1.3Zm5.9.7c-.4 0-1-.2-1.2-.6-.5-.3-.6-.8-.6-1.4l.1-1.3c.2-.3.3-.8.7-1.1 0-.4.4-.6.7-.8a2 2 0 0 1 1.1-.4c.5 0 1 .2 1.2.4.2.2.4.5.4.9 0 .3-.1.7-.4 1-.2.1-.5.4-1 .5-.4.3-1 .4-1.8.4h-.1v.3c-.1.5-.1.8.1 1 .3.3.6.5 1.1.5l.7-.2a5 5 0 0 0 .7-.4v.8a6 6 0 0 1-.7.3h-1Zm-.7-3.1 1.2-.1.7-.4.3-.6c0-.2 0-.4-.2-.5l-.5-.1c-.3 0-.8.1-1 .4-.2.3-.5.8-.6 1.3Zm6.2 3 1.7-7.6h.8l-1.6 7.6Zm4.3.1c-.4 0-.8-.2-1-.6-.4-.2-.6-.6-.6-1.2.1-.5.1-1 .3-1.5.1-.3.3-.8.6-1.1.2-.4.5-.7.8-.9a2 2 0 0 1 1-.3c.5 0 .8.1 1.1.3l.2.7.6-1h.5l-1.1 5.5h-.7l.1-1-.8.8c-.3.2-.8.3-1 .3Zm.2-.7c.3 0 .6-.1.8-.3l.6-.6a4 4 0 0 0 .6-1.1 3 3 0 0 0-.1-.7 4 4 0 0 0 .1-.4c0-.3 0-.5-.3-.7-.1-.2-.4-.3-.7-.3-.2 0-.5 0-.7.2a2 2 0 0 0-.6.7l-.3 1-.2 1c0 .5 0 .8.2 1.1h.7Zm9.6.7c-.9 0-1.6-.2-2-.7-.6-.5-.8-1.1-.8-2a6 6 0 0 1 .3-1.8c.2-.6.5-1.1.9-1.5.2-.4.7-.6 1.1-1 .5-.2 1-.3 1.6-.3h1.1l1 .5-.4.6a7.8 7.8 0 0 0-.8-.2l-1-.2c-.4 0-.9.2-1.3.5-.5.5-.9.8-1.1 1.5a4.8 4.8 0 0 0-.4 1.9c0 .2 0 .6.2.9l.6.8 1 .2h.7l.7-.2.3-2H388l.1-1h2.3l-.8 3.6a8 8 0 0 1-1 .3h-.9Zm5.2 0c-.4 0-.7-.2-1-.6-.3-.2-.4-.6-.4-1.2 0-.5 0-1 .2-1.5l.4-1.1c.3-.4.6-.7 1-.9a2 2 0 0 1 1-.3c.4 0 .7.1 1 .3l.4.7.3-1h.7l-1.1 5.5h-.7l.1-1c-.3.3-.5.6-.9.8-.3.2-.6.3-1 .3Zm.3-.7c.3 0 .5-.1.7-.3l.7-.6a4 4 0 0 0 .4-1.1 3 3 0 0 0 .1-.7 4 4 0 0 0 0-.4c0-.3 0-.5-.1-.7-.3-.2-.5-.3-.9-.3-.2 0-.4 0-.6.2a2 2 0 0 0-.6.7l-.4 1-.1 1c0 .5 0 .8.2 1.1h.6Zm5 .7-.8-.1-.7-.2v-.9c.2.2.4.3.7.3l.7.3c.5-.1.8-.2 1-.4.2-.1.3-.3.3-.6 0-.2 0-.3-.2-.4-.1-.2-.3-.3-.7-.6-.4-.1-.7-.4-.8-.6-.2-.2-.3-.5-.3-.8 0-.6.1-.9.5-1.1.2-.3.7-.5 1.2-.5.4 0 .7 0 1 .2l.7.2-.3.7-.6-.1-.7-.2c-.3 0-.5 0-.7.2-.2 0-.4.3-.4.5l.3.5.7.4.6.6c.2-.1.4 0 .5.3l.1.7c0 .5-.2 1-.6 1.2-.3.3-.8.4-1.5.4Zm2.6 2.3 1.6-7.8h.7v1l.7-.7c.3-.2.7-.4 1-.4.5 0 .8.2 1 .5.5.3.6.8.6 1.5-.1.4-.1.9-.3 1.3l-.5 1.2-.8.8a2 2 0 0 1-1.1.3c-.4 0-.7-.1-.9-.3a2 2 0 0 1-.5-.6v.3l-.2.6-.4 2.3Zm2.8-3c.3 0 .5-.1.7-.3.3-.2.5-.4.6-.6a4 4 0 0 0 .4-1 5 5 0 0 0 .1-1c0-1-.3-1.2-.9-1.2-.2 0-.4 0-.6.2l-.8.7-.3 1-.2 1c0 .5 0 .8.2 1 .3.1.5.2.8.2Zm5.6.7c-.6 0-1-.2-1.4-.6-.4-.3-.5-.8-.5-1.4l.1-1.3c.2-.3.3-.8.7-1.1 0-.4.4-.6.7-.8a2 2 0 0 1 1.1-.4c.6 0 1 .2 1.2.4.2.2.4.5.4.9 0 .3-.1.7-.4 1-.2.1-.5.4-1 .5-.5.3-1 .4-1.8.4h-.2v.3c0 .5 0 .8.4 1 .2.3.5.5.9.5l.7-.2a5 5 0 0 0 .7-.4v.8a6 6 0 0 1-.7.3h-1Zm-.9-3.1 1.3-.1.7-.4.3-.6c0-.2 0-.4-.2-.5l-.5-.1c-.3 0-.6.1-1 .4l-.5 1.3Zm1.3-3v-.3l.3-.2a16.8 16.8 0 0 0 .8-1.1h1l-.6.5-.4.6a6 6 0 0 1-.6.4ZM413.2 273.6l-.8-.1-.7-.2v-.9c.3.2.4.3.7.3l.8.3c.4-.1.7-.2 1-.4l.1-.6c.1-.2.1-.3-.1-.4-.1-.2-.2-.3-.7-.6-.4-.1-.7-.4-.8-.6-.2-.2-.3-.5-.3-.8 0-.6.1-.9.5-1.1.3-.3.7-.5 1.3-.5.3 0 .6 0 .8.2l.8.2-.3.7-.5-.1-.8-.2c-.3 0-.5 0-.7.2-.2 0-.3.3-.3.5l.2.5.7.4.6.6c.3-.1.3 0 .5.3l.1.7c0 .5-.2 1-.6 1.2-.3.3-.7.4-1.5.4Zm4.9-6.4h-.3l-.1-.5.1-.4.4-.2c.4 0 .5.2.5.5 0 .2 0 .4-.2.4l-.4.2Zm-1.8 6.3 1.1-5.4h.9l-1.1 5.4Zm4.7.1c-.6 0-1.1-.2-1.4-.6-.4-.3-.6-.8-.6-1.4l.2-1.3c.2-.3.3-.8.6-1.1.2-.4.5-.6.8-.8a2 2 0 0 1 1.1-.4c.5 0 1 .2 1.3.4 0 .2.3.5.3.9 0 .3-.1.7-.4 1-.2.1-.5.4-.9.5-.5.3-1 .4-1.9.4h-.1v.3c0 .5 0 .8.3 1 .1.3.5.5.9.5l.7-.2a5 5 0 0 0 .7-.4v.8a6 6 0 0 1-.6.3h-1Zm-.9-3.1 1.3-.1.6-.4.4-.6c0-.2 0-.4-.2-.5l-.5-.1c-.3 0-.7.1-1 .4-.1.3-.4.8-.5 1.3Zm0 0" style="fill:none;stroke-width:2;stroke-linecap:butt;stroke-linejoin:round;stroke:#fff;stroke-opacity:.6;stroke-miterlimit:10" transform=" rotate(  340 392.7 264.525) "/> <g style="fill:green;fill-opacity:1" transform=" rotate(  340 392.7 264.525) ">  <use xlink:href="#z" x="362.1" y="261.6"/>  <use xlink:href="#A" x="367.7" y="261.6"/>  <use xlink:href="#B" x="373.4" y="261.6"/>  <use xlink:href="#C" x="377.2" y="261.6"/>  <use xlink:href="#glyph2-5" x="381.7" y="261.6"/>  <use xlink:href="#D" x="384.3" y="261.6"/>  <use xlink:href="#A" x="390.1" y="261.6"/>  <use xlink:href="#E" x="395.8" y="261.6"/>  <use xlink:href="#F" x="399.1" y="261.6"/>  <use xlink:href="#G" x="401.7" y="261.6"/>  <use xlink:href="#D" x="407.3" y="261.6"/>  <use xlink:href="#A" x="413.1" y="261.6"/>  <use xlink:href="#H" x="418.8" y="261.6"/>  <use xlink:href="#I" x="359.9" y="273.5"/>  <use xlink:href="#J" x="365.7" y="273.5"/>  <use xlink:href="#glyph2-5" x="370.7" y="273.5"/>  <use xlink:href="#H" x="373.3" y="273.5"/>  <use xlink:href="#A" x="375.8" y="273.5"/>  <use xlink:href="#glyph2-5" x="381.5" y="273.5"/>  <use xlink:href="#K" x="384.1" y="273.5"/>  <use xlink:href="#A" x="390.9" y="273.5"/>  <use xlink:href="#L" x="396.6" y="273.5"/>  <use xlink:href="#M" x="400.9" y="273.5"/>  <use xlink:href="#N" x="406.7" y="273.5"/>  <use xlink:href="#L" x="411.7" y="273.5"/>  <use xlink:href="#F" x="416" y="273.5"/>  <use xlink:href="#J" x="418.6" y="273.5"/> </g></svg>