<svg xmlns="http://www.w3.org/2000/svg" xmlns:xlink="http://www.w3.org/1999/xlink" viewBox="0 0 497 279"> <defs overflow="visible" style="stroke:none">  <path id="r" d="m.4 0 2.4-11.4h1.4L1.7 0Zm0 0"/>  <path id="q" d="M3.2-9.4c-.2 0-.4 0-.5-.2-.2 0-.2-.3-.2-.4s0-.6.2-.8l.7-.2c.4 0 .6.2.6.6 0 .4 0 .6-.2.8l-.6.2ZM.4 0l1.7-8h1.4L1.7 0Zm0 0"/>  <path id="p" d="m.6 0 2.3-10.7h1.9l1 8.7 4.8-8.7h2L10.5 0H9.1l1.3-6.4a171.5 171.5 0 0 1 .8-3L6 0H5L3.7-9.4a28.1 28.1 0 0 1-.3 1.9l-.2 1L2 0Zm0 0"/>  <path id="o" d="M2.8.2c-.6 0-1-.2-1.4-.6C1-.7.8-1.2.8-1.8v-.7l.2-.6 1-5h1.4L2.3-3a5 5 0 0 0-.1 1c0 .3 0 .6.2.8.2.2.4.2.8.2.3 0 .7-.1 1.1-.3.4-.2.8-.6 1.1-1.2.3-.5.6-1.2.8-2L6.9-8h1.3L6.5 0h-1l.1-1.5a8 8 0 0 1-.8.8L4-.1c-.3.2-.7.3-1.2.3Zm0 0"/>  <path id="n" d="m.4 0 1.7-8h1.1L3-6.6h.1l.6-.7c.3-.3.6-.5 1.1-.7 0-.1.4-.2.8-.2.7 0 1.1.2 1.4.5.3.3.5.7.5 1.3l.9-.9.8-.6c.3-.2.7-.3 1.1-.3.7 0 1.1.2 1.5.5.2.4.5.9.5 1.5v.7L12-5l-.9 5H9.8l1-5 .2-.6v-.5c0-.3 0-.5-.2-.7-.2-.2-.5-.3-.8-.3-.4.1-.7.1-1 .4-.4.2-.8.6-1 1.1a6 6 0 0 0-.8 2L6.4 0H5.1L6-5l.4-1c-.1-.4-.2-.6-.4-.8 0-.2-.3-.3-.7-.3-.3.1-.7.1-1 .4-.4.2-.7.6-1 1.1a7.4 7.4 0 0 0-.9 2.1L1.7 0Zm0 0"/>  <path id="m" d="M2.8.2c-.5 0-1 0-1.4-.2C1 0 .6-.2.3-.3v-1.4l1 .5a5 5 0 0 0 1.6.2c.3 0 .8 0 1.1-.2A2 2 0 0 0 5-2c.2-.2.3-.5.3-1 0-.4-.1-.7-.4-1L3.5-5a8.5 8.5 0 0 1-1-.7 2.8 2.8 0 0 1-.7-.9l-.2-1.2c0-.5.1-1.2.4-1.5a3 3 0 0 1 1.3-1.2 4.3 4.3 0 0 1 1.8-.4l1.5.2 1.2.5-.5 1.1a6.6 6.6 0 0 0-1-.4 3.9 3.9 0 0 0-1.2-.2c-.6 0-1.1.2-1.5.5-.4.3-.6.8-.6 1.4 0 .3 0 .5.2.7 0 .2.2.4.5.6l.8.5 1.2.8c.3.2.5.5.7.9.2.3.3.7.3 1.2 0 1-.4 1.9-1 2.4-.9.7-1.7.9-3.1.9Zm0 0"/>  <path id="l" d="M2.9.2c-.6 0-1.2-.3-1.6-.7C1-1 .7-1.7.7-2.5A8 8 0 0 1 1-4.8a6.4 6.4 0 0 1 .8-1.7c.2-.5.7-1 1.2-1.2a3 3 0 0 1 1.7-.5c.5 0 1 .2 1.3.4l.7 1a150.6 150.6 0 0 0 .5-2l.5-2.6H9L6.5 0h-1l.1-1.5L4.4-.3c-.5.3-1 .5-1.5.5ZM3.3-1c.4 0 .7-.1 1-.3l1-1c.3-.4.5-1 .7-1.5a5.5 5.5 0 0 0 .3-1.7c0-.4-.3-.8-.5-1.1-.1-.4-.5-.5-1.1-.5-.2.1-.7.2-.9.4l-1 1-.5 1.5c-.3.5-.3 1-.3 1.6 0 1.1.5 1.7 1.3 1.7Zm0 0"/>  <path id="k" d="M-.4 3.6H-1l-.4-.2v-1h.4l.5.2c.5-.1.8-.2 1-.5.5-.1.7-.6 1.1-1L1.8 0 .7-8H2l.6 4v1a22 22 0 0 1 .3 2A43.6 43.6 0 0 1 4-3.7L6.3-8h1.4l-5 9.3c-.6.8-1 1.4-1.4 1.7-.4.4-.9.6-1.7.6Zm0 0"/>  <path id="j" d="M.4 0 2-8h1.2l-.1 1.3a7 7 0 0 1 .7-.6c.2-.3.5-.5.9-.7l1.1-.2c.7 0 1.2.1 1.5.5.4.4.7.9.7 1.5v.7l-.4.6L6.7 0H5.2l1.1-5a9 9 0 0 0 .1-.7v-.4c.1-.6-.2-.9-.9-.9-.3 0-.6.2-1 .4s-.9.6-1.1 1c-.4.6-.8 1.3-1 2.1L1.8 0Zm0 0"/>  <path id="i" d="M4.9.2C3.7.2 2.8-.2 2-1c-.6-.7-1-1.7-1-3 0-.6 0-1.2.3-2A8 8 0 0 1 2-7.8a6 6 0 0 1 1-1.5c.6-.5 1.1-.9 1.8-1.2a5.3 5.3 0 0 1 2-.4c1.1 0 2.1.2 2.8.6l-.7 1.1a6.7 6.7 0 0 0-.9-.3 4 4 0 0 0-1-.2c-1 0-1.5.2-2.1.5-.5.4-.9.8-1.3 1.4A6.4 6.4 0 0 0 2.8-6a7.8 7.8 0 0 0-.3 2c0 1 .2 1.7.7 2.2.5.5 1.1.8 2 .8.2 0 .6 0 1-.2l1.3-.3v1.2a7.2 7.2 0 0 1-2.6.5Zm0 0"/>  <path id="h" d="M2.3.2 1 0C.7 0 .4-.2 0-.4v-1.2L1-1a4 4 0 0 0 1.4 0c.5 0 .9-.1 1.2-.3.4-.2.5-.5.5-.9-.1-.3-.1-.5-.3-.7l-1-.7-1.4-1C1.2-5 1-5.4 1-6c0-.6.3-1.1.8-1.6.3-.4 1.1-.6 2-.6.4 0 .9 0 1.2.2.5 0 1 .2 1.1.4l-.2 1a7.4 7.4 0 0 0-1.1-.3 3.8 3.8 0 0 0-.9-.2c-.6.1-.9.1-1.1.3-.4.2-.6.5-.6.8.1.3.2.5.4.7l1 .7a9 9 0 0 1 1.1.6l.5.7c.2.3.2.6.2 1 0 .8-.2 1.3-.8 1.8C4 0 3.3.2 2.3.2Zm0 0"/>  <path id="g" d="M2.9.2c-.6 0-1.2-.3-1.6-.7C1-1 .7-1.7.7-2.5s.1-1.7.3-2.3a6.3 6.3 0 0 1 .8-1.7 4 4 0 0 1 1.3-1.2 3 3 0 0 1 1.6-.5c.5 0 1 .2 1.3.4l.7 1L7.3-8h1L6.5 0h-1l.2-1.5A6 6 0 0 1 4.3-.3C4 0 3.4.2 3 .2ZM3.3-1c.4 0 .8-.1 1.1-.3a4 4 0 0 0 1-1.1 6 6 0 0 0 .8-2.4v-.7c0-.4-.1-.8-.4-1.1-.2-.4-.6-.5-1-.5s-.7.1-1 .4c-.5.2-.8.6-1.1 1l-.4 1.5c-.3.4-.3.9-.3 1.6 0 .6 0 1 .4 1.3.2.2.5.3 1 .3Zm0 0"/>  <path id="f" d="M3.6.2C2.7.2 2-.1 1.5-.7 1-1.2.7-1.9.7-2.9a6.6 6.6 0 0 1 1.1-3.6c.3-.5.8-1 1.3-1.2a3 3 0 0 1 1.6-.5c.8 0 1.4.2 1.8.5.3.3.5.8.5 1.4 0 .5 0 1-.5 1.3-.3.5-.8 1-1.5 1.1-.7.3-1.6.4-2.7.4h-.2v.6c-.1.6.1.9.4 1.4.3.5.8.6 1.4.6.4-.1.7-.1 1-.2l1.2-.5v1.2L4.9 0 3.6.2ZM2.3-4.5 4-4.7c.6-.1 1-.3 1.3-.5.3-.3.5-.6.5-1 0-.3-.1-.5-.3-.6-.2-.2-.5-.3-.8-.3-.5.1-1 .2-1.4.7-.5.4-.8 1-1 1.9Zm0 0"/>  <path id="e" d="m.4 0 2.4-11.4h1.4l-.7 3-.2.9-.3 1h.1l.7-.8c.2-.2.5-.5.9-.6.3-.2.7-.3 1.1-.3.6 0 1.2.2 1.5.5.4.4.5.9.5 1.7v.5l-.1.5-1 5H5.2l1.1-5 .3-1c-.1-.4-.1-.6-.3-.8-.3-.2-.5-.3-.8-.3-.5.1-.7.1-1.1.4-.4.2-.8.6-1.1 1.1-.4.6-.6 1.3-.8 2.1L1.7 0Zm0 0"/>  <path id="d" d="M2.8.2c-.6 0-1-.2-1.4-.4C1-.5 1-1 1-1.6a5 5 0 0 1-.1-1L2-7H.7v-.6l1.5-.6.9-1.7h.7L3.4-8h2l-.1 1h-2l-1 4.3v.5l-.2.5c.1.1.1.3.3.4 0 .3.3.4.6.4h.5l.5-.3v1.1l-.5.1a3 3 0 0 1-.7 0Zm0 0"/>  <path id="c" d="m.4 0 1.7-8h1.1L3-6.6h.1l.7-.7c.2-.3.5-.5.8-.7a2 2 0 0 1 1-.2H6l.4.2-.2 1.1h-.8a2 2 0 0 0-1.4.3 4 4 0 0 0-1 1.4l-.4 1.5L1.7 0Zm0 0"/>  <path id="b" d="M3.7.1c-1 0-1.6-.1-2.2-.8C1-1.3.7-2 .7-3L1-4.8a5.9 5.9 0 0 1 .7-1.7A4 4 0 0 1 3-7.7C3.5-8 4-8 4.7-8c1-.1 1.7 0 2.3.7.5.5.7 1.3.7 2.3 0 .6 0 1.2-.2 1.8a5.5 5.5 0 0 1-.8 1.7C6.4-1 6-.6 5.5-.3 5 0 4.4 0 3.7 0Zm.1-1c.5-.1 1-.3 1.3-.7.4-.2.7-.7.9-1.3a6.4 6.4 0 0 0 .3-2.3c.1-.3.1-.6-.1-.8a1.5 1.5 0 0 0-.5-.8c-.2-.2-.5-.2-1-.2a2 2 0 0 0-1.3.5C3-6 2.6-5.6 2.3-5a6.2 6.2 0 0 0-.1 2c-.2.8 0 1.3.3 1.6.3.4.7.4 1.3.4Zm0-.1"/>  <path id="a" d="m.6 0 2.3-10.7h1.4l3.3 8.8a24.4 24.4 0 0 1 .5-3l1.3-5.7h1.3L8.4 0H7L3.7-8.9a23.6 23.6 0 0 1-.5 2l-.1.9-1.2 6Zm0 0"/>  <path d="M1.4 0v-10.7h6.2V0Zm.8-.8h4.6v-9.1H2.2Zm0 0"/> </defs> <image xlink:href="svg/9/109_0.jpg" width="497" height="279"/> <path d="m244.9 90.8 2.1-10.7h1.6l3.2 8.9a24.4 24.4 0 0 1 .7-3l1.2-5.9h1.3l-2.3 10.7h-1.4l-3.5-8.8a23.6 23.6 0 0 1-.2 2l-.2 1-1.4 5.8Zm13.7.2c-1 0-1.7-.4-2.2-1-.5-.4-.8-1.2-.8-2s0-1.4.2-2a5.9 5.9 0 0 1 .8-1.7 4 4 0 0 1 1.4-1.2c.4-.3.9-.4 1.6-.4 1 0 1.7.3 2.2.8.5.6.8 1.3.8 2.3 0 .6 0 1.2-.2 1.8a5.5 5.5 0 0 1-.8 1.7c-.3.5-.8.9-1.3 1.2-.5.3-1 .4-1.7.4Zm0-1.2c.6.1 1.1-.1 1.4-.4.4-.4.7-.9.9-1.5a6.4 6.4 0 0 0 .4-2.3c0-.3 0-.6-.3-.8a1.5 1.5 0 0 0-.4-.8c-.3-.1-.6-.2-1-.2a2 2 0 0 0-1.4.5c-.4.4-.7 1-1 1.5a6.2 6.2 0 0 0-.2 2.2c0 .5.1.9.4 1.3.3.4.6.7 1.3.7Zm5.1 1 1.7-8h1.1l-.1 1.5.7-.8c.2-.3.5-.5.8-.6a2 2 0 0 1 1-.3h.4l.5.2-.3 1.2h-.8a2 2 0 0 0-1.3.2 4 4 0 0 0-1 1.4l-.6 1.4-.7 3.8Zm8.3.2c-.4 0-1-.2-1.2-.4-.5-.3-.8-.7-.8-1.4a5 5 0 0 1 .3-1l.9-4.5h-1.3l.2-.5 1.3-.6 1-1.6h.6l-.3 1.8h2l-.2 1h-2l-.9 4.4-.1.4v.5l.1.5c.2.2.4.4.7.4h.5l.5-.4v1.1l-.5.2a3 3 0 0 1-.8 0Zm2.7-.2 2.3-11.4h1.4l-.6 3-.3 1-.2.8.7-.7 1-.5c.2-.3.5-.4 1-.4.8 0 1.3.2 1.7.6.2.3.3.8.3 1.5v1.2l-1.1 5.1h-1.3l1-5.3.2-.9c0-.3-.1-.6-.3-.8-.1-.2-.4-.3-.8-.3-.3 0-.7.3-1 .4-.6.2-.9.6-1.3 1.1-.2.6-.4 1.3-.7 2.2l-.7 3.4Zm11.9.2c-1 0-1.7-.3-2.2-.8-.4-.6-.7-1.3-.7-2.3a6.6 6.6 0 0 1 1-3.6c.4-.5.8-.9 1.3-1.2a3 3 0 0 1 1.7-.5c.7 0 1.3.2 1.7.5.4.4.6.9.6 1.4 0 .5-.2 1-.5 1.5-.3.4-.8.7-1.5 1-.7.3-1.6.4-2.7.4h-.3v.6c0 .5.2.9.4 1.4.4.3.8.5 1.4.5.4 0 .8 0 1-.2l1.2-.4v1c-.4.4-.8.5-1 .6l-1.4.1Zm-1.4-4.7h.1c.7 0 1.2 0 1.7-.3.5.1 1-.2 1.2-.4.3-.2.5-.6.5-1 0-.2 0-.5-.3-.6-.1-.2-.4-.3-.8-.3-.5 0-1 .3-1.4.7-.4.4-.8 1-1 1.9Zm8.1 4.7c-.6 0-1.1-.3-1.5-.7-.4-.5-.6-1.3-.6-2s0-1.6.2-2.3a6.3 6.3 0 0 1 .9-1.7 4 4 0 0 1 1.2-1.2 3 3 0 0 1 1.6-.5c.5 0 1 .2 1.3.5.3.2.6.6.6.9h.2l.5-1.3h1l-1.7 8.1h-1v-1.5a6 6 0 0 1-1.1 1.2c-.5.3-1 .5-1.6.5Zm.5-1.1c.2 0 .7-.2 1-.4a4 4 0 0 0 1.1-1.1 6 6 0 0 0 .7-2.4v-.6c.1-.5.1-1-.2-1.2-.4-.3-.7-.5-1.1-.5-.6 0-.9.3-1.2.4l-.9 1-.4 1.5-.3 1.7c0 .5.1 1 .3 1.2.3.3.6.4 1 .4Zm7.5 1.1c-.5 0-1 0-1.3-.2-.4 0-.7-.2-1-.3v-1.3l1 .5a4 4 0 0 0 1.2.2c.6 0 1-.1 1.4-.4.3-.2.4-.5.4-.9 0-.3 0-.5-.2-.6l-1-.8c-.8-.3-1.2-.7-1.5-1-.2-.3-.3-.8-.3-1.3 0-.7.2-1.2.7-1.6.5-.5 1.3-.7 2-.7.5 0 1 0 1.4.2l.9.4-.3 1a7.4 7.4 0 0 0-.9-.2 3.8 3.8 0 0 0-1-.3c-.6 0-1 .1-1.2.4-.2.2-.3.4-.3.7 0 .3 0 .5.3.7.1.2.4.5 1 .7a9 9 0 0 1 1 .8l.5.5.3 1c0 .8-.4 1.4-.8 1.9-.6.4-1.4.6-2.3.6Zm6.9 0c-.5 0-1-.2-1.4-.4-.3-.3-.5-.7-.5-1.4a5 5 0 0 1 .1-1l1-4.5H306l.2-.5 1.4-.6.9-1.6h.8l-.4 1.8h2l-.2 1h-2l-1 4.4v1.4c.3.2.5.4.8.4h.4l.6-.4v1.1l-.6.2a3 3 0 0 1-.7 0ZM254 108.9c-1.4 0-2.3-.4-3-1.1-.6-.8-.9-1.8-.9-3 0-.8 0-1.3.2-2a8 8 0 0 1 .7-1.8 6 6 0 0 1 1.2-1.6c.4-.5 1-.8 1.6-1.1a5.3 5.3 0 0 1 2.1-.4c1 0 1.9.1 2.6.6l-.5 1a6.7 6.7 0 0 0-1-.2 4 4 0 0 0-1-.2c-.8-.1-1.5.1-2.1.5-.5.3-.9.7-1.3 1.3a6.4 6.4 0 0 0-.8 1.8 7.8 7.8 0 0 0-.3 2c0 1.1.3 1.8.7 2.3.5.4 1.1.7 2 .7l1.2-.1 1.1-.3v1.1a7.2 7.2 0 0 1-2.5.6Zm6.7 0c-.6 0-1.1-.2-1.5-.7-.4-.5-.6-1.2-.6-2s0-1.6.2-2.2a6.3 6.3 0 0 1 .9-1.8 4 4 0 0 1 1.2-1.2 3 3 0 0 1 1.6-.5c.5 0 1 .2 1.3.5.2.2.6.6.7 1h.1l.5-1.4h.9l-1.6 8.1h-1v-1.5a6 6 0 0 1-1.1 1.2c-.5.3-1 .5-1.6.5Zm.5-1.1c.3 0 .7-.1 1-.4a4 4 0 0 0 1.1-1.1 6 6 0 0 0 .7-2.4v-.6c0-.5 0-.9-.2-1.3-.4-.2-.8-.3-1.1-.3-.6 0-.9 0-1.2.3l-.9 1-.4 1.5-.3 1.7c0 .5.1 1 .3 1.2.2.3.6.4 1 .4Zm5.5.9 1.7-8h1.2l-.2 1.3a7 7 0 0 1 .8-.6c.2-.4.5-.5.9-.6.2-.2.5-.3.9-.3.9 0 1.4.2 1.8.5.3.4.4 1 .4 1.5v.7l-.2.8-1 4.7h-1.5l1.1-5a9 9 0 0 0 .3-.7v-.3c-.1-.7-.4-1-1.1-1-.3 0-.7.1-1 .3-.5.3-.8.6-1.2 1.2-.3.5-.6 1.2-.7 2l-.9 3.6Zm8 3.6h-.7l-.4-.1v-1h1c.4 0 .8 0 1-.2.4-.4.6-.7.8-1.2l.6-1-1.2-8h1.2l.6 3.9.1 1a22 22 0 0 1 .1 2 43.6 43.6 0 0 1 1.2-2.7l2.4-4.3h1.4l-5.1 9.3c-.4.8-.9 1.4-1.3 1.8-.5.2-1 .5-1.7.5Zm11.1-3.4c-1 0-1.8-.3-2.2-.9-.6-.5-.8-1.3-.8-2.2 0-.8 0-1.3.2-1.9a5.9 5.9 0 0 1 .8-1.7 4 4 0 0 1 1.2-1.2c.5-.3 1.1-.4 1.8-.4 1 0 1.7.3 2.2.8.5.6.8 1.3.8 2.3l-.3 1.8a5.5 5.5 0 0 1-.7 1.7c-.4.5-.8.8-1.3 1.2-.5.3-1 .5-1.7.5Zm0-1.1c.5 0 1-.2 1.3-.5.4-.4.7-.9 1-1.5a6.4 6.4 0 0 0 .3-2.3l-.1-.8a1.5 1.5 0 0 0-.5-.7c-.3-.2-.6-.3-1-.3a2 2 0 0 0-1.4.5c-.4.4-.7 1-1 1.5a6.2 6.2 0 0 0-.3 2.1c0 .6.2 1.2.5 1.4.3.4.7.6 1.2.6Zm5 .9 1.8-8h1.1l-.1 1.3a7 7 0 0 1 .7-.6c.2-.4.5-.5.7-.6l1.3-.3c.7 0 1.2.2 1.5.5.4.4.6 1 .6 1.5v.7l-.3.8-.9 4.7h-1.6l1.2-5a9 9 0 0 0 .2-.7v-.3c0-.7-.3-1-1-1l-1 .3c-.5.3-1 .6-1.2 1.2-.3.5-.6 1.2-.8 2l-.7 3.6Zm10.7.2c-.5 0-1 0-1.3-.2l-1-.3v-1.2l1.1.4a4 4 0 0 0 1.2.2c.5 0 1-.1 1.3-.4.3-.2.5-.4.5-.9 0-.2-.1-.5-.3-.7l-1-.7c-.8-.3-1-.7-1.5-1.1-.2-.2-.3-.7-.3-1.2 0-.7.2-1.2.7-1.6.5-.4 1.2-.7 2.1-.7l1.3.2 1 .4-.3.9a7.4 7.4 0 0 0-.9-.1 3.8 3.8 0 0 0-1.2-.2c-.4 0-.8 0-.9.3-.4.2-.5.4-.5.7 0 .3.1.5.3.7l1 .8a9 9 0 0 1 1 .6l.6.6.2 1c0 .8-.3 1.4-.8 1.9-.6.4-1.4.6-2.3.6Zm-73.2 17.9c-.6 0-1.1-.2-1.5-.7-.4-.5-.6-1.2-.6-2.1s0-1.5.3-2.2a6.3 6.3 0 0 1 .8-1.7 4 4 0 0 1 1.2-1.1 3 3 0 0 1 1.6-.5c.5 0 1 0 1.3.4.3.3.6.6.7 1h.1l.5-1.4h1l-1.7 8.1h-1v-1.4a6 6 0 0 1-1.1 1.1c-.5.3-1 .5-1.6.5Zm.5-1.1c.4 0 .7-.1 1-.4a4 4 0 0 0 1.1-1.1 6 6 0 0 0 .8-2.3v-.7c0-.5-.1-.9-.4-1.2-.3-.3-.6-.4-1-.4s-.8 0-1.1.3l-.9 1.1-.6 1.4-.2 1.6c0 .6.1 1 .3 1.3.3.3.6.4 1 .4Zm5.5.9 1.8-8h1.1l-.1 1.4a7 7 0 0 1 .6-.7c.3-.3.6-.5 1-.6.3-.2.6-.3.9-.3.9 0 1.4.2 1.8.6.3.3.6.8.6 1.4l-.2.7-.1.7-1 4.8h-1.6l1.2-5a9 9 0 0 0 .1-.6v-.4c.1-.7-.2-1-.9-1-.4 0-.8.1-1.1.4-.4.2-.8.6-1.1 1-.3.7-.6 1.4-.8 2.3l-.8 3.3Zm11.3.2c-.7 0-1.2-.2-1.6-.7-.4-.5-.6-1.1-.6-2a8 8 0 0 1 .2-2.3 6.4 6.4 0 0 1 .8-1.6c.4-.6.8-1 1.3-1.3a3 3 0 0 1 1.6-.4c.7 0 1 .1 1.3.4.4.3.6.6.7 1h.1a150.5 150.5 0 0 0 .4-2.1l.5-2.6h1.3l-2.4 11.4h-1v-1.4c-.2.4-.7.8-1.2 1.1-.4.3-.9.5-1.4.5Zm.4-1.1c.3 0 .7-.1 1-.4l1-1c.2-.3.5-.9.6-1.3a5.5 5.5 0 0 0 .4-1.8c0-.5-.2-.9-.4-1.2-.3-.3-.7-.4-1.2-.4-.4 0-.7.1-1 .4-.4.2-.8.5-1.1 1l-.3 1.4-.3 1.7c0 .9.4 1.6 1.3 1.6Zm12 1.1-1.3-.1-1.2-.4V125l1.1.4a5 5 0 0 0 1.4.2c.5 0 1 0 1.3-.2a2 2 0 0 0 .9-.6c.2-.3.3-.8.3-1.2 0-.4 0-.6-.4-1-.1-.3-.7-.6-1.3-1a8.5 8.5 0 0 1-1-.6 2.8 2.8 0 0 1-.8-.9c-.1-.4-.2-.7-.2-1.2 0-.7.2-1.2.5-1.7a3 3 0 0 1 1.3-1 4.3 4.3 0 0 1 1.7-.5c.7.1 1 .1 1.5.3.4 0 .9.2 1.2.4l-.5 1.1a6.6 6.6 0 0 0-1-.3 3.9 3.9 0 0 0-1.2-.2c-.6 0-1 0-1.5.5-.4.3-.6.7-.6 1.3l.2.8.5.4.9.7 1.1.7.8 1c.2.1.2.6.2 1 .1 1.2-.3 2.1-.9 2.6s-1.8.8-3 .8Zm8.4 0c-.9 0-1.6-.3-2.1-.8-.5-.6-.8-1.3-.8-2.2a6.6 6.6 0 0 1 1.1-3.6c.4-.6.8-1 1.4-1.3a3 3 0 0 1 1.6-.4c.7 0 1.3.1 1.7.5.4.3.6.7.6 1.3 0 .7-.2 1-.5 1.5-.4.4-.9.7-1.6 1-.7.2-1.5.4-2.6.4h-.3v.5c0 .6.1 1.1.4 1.5.3.3.8.5 1.4.5.4 0 .7 0 1-.2.5 0 .9-.2 1.3-.4v1.1l-1.2.4-1.4.2Zm-1.3-4.7h.1c.6-.1 1.2-.1 1.8-.2.4.1.8-.2 1-.5.4-.2.6-.6.6-1l-.3-.6c-.2-.2-.4-.3-.8-.3-.5 0-1 .3-1.5.7-.4.5-.7 1-1 1.9Zm8.1 4.7c-.6 0-1.2-.2-1.6-.7-.4-.5-.6-1.2-.6-2.1s.1-1.5.3-2.2a6.3 6.3 0 0 1 .8-1.7 4 4 0 0 1 1.3-1.1 3 3 0 0 1 1.6-.5c.5 0 1 0 1.3.4l.7 1 .7-1.4h.9l-1.7 8.1h-1.1l.2-1.4a6 6 0 0 1-1.4 1.1c-.3.3-.9.5-1.4.5Zm.4-1.1c.4 0 .8-.1 1.1-.4a4 4 0 0 0 1-1.1 6 6 0 0 0 .8-2.3v-.7c0-.5 0-.9-.4-1.2-.1-.3-.6-.4-1-.4s-.7 0-1 .3L273 121l-.4 1.4c-.2.5-.2 1-.2 1.6 0 .6 0 1 .3 1.3.2.3.5.4 1 .4Zm5.6.9 1.8-8h1v1.4l.6-.7.8-.6c.4-.2.7-.2 1.1-.2.6 0 1 .1 1.3.4.3.3.5.8.5 1.3h.1l.7-.8 1-.7c.2-.2.5-.2.9-.2.9 0 1.4.1 1.7.5.2.3.3.8.3 1.4v.7l-.1.7-.9 4.7h-1.4l1-4.9.3-.6v-.5c-.1-.3-.1-.5-.4-.7l-.7-.2c-.4 0-.8 0-1 .3-.5.3-.8.6-1.1 1.1a6 6 0 0 0-.7 2l-.8 3.6H284l.9-5 .3-1c-.1-.3-.1-.6-.2-.8l-1-.2c-.2 0-.5 0-.9.3s-.7.6-1.1 1.2a7.4 7.4 0 0 0-.7 1.9l-.7 3.7Zm16.5.2c-1 0-1.7-.3-2.2-.9-.6-.5-.8-1.3-.8-2.2 0-.7 0-1.3.2-1.9a5.9 5.9 0 0 1 .8-1.6 4 4 0 0 1 1.2-1.2c.5-.3 1.1-.5 1.8-.5 1 0 1.7.3 2.2.8.5.7.8 1.3.8 2.3l-.3 1.8a5.5 5.5 0 0 1-.7 1.7c-.4.5-.8.9-1.3 1.2-.4.3-1 .5-1.7.5Zm0-1.1c.5 0 1-.2 1.3-.5.4-.4.8-.9 1-1.5a6.4 6.4 0 0 0 .3-2.2l-.1-1a1.5 1.5 0 0 0-.5-.5c-.3-.3-.7-.4-1-.4a2 2 0 0 0-1.4.6c-.4.3-.7.8-1 1.5a6.2 6.2 0 0 0-.3 2c0 .6.2 1.1.5 1.5.3.3.7.5 1.2.5Zm7.5 1.1c-.6 0-1-.2-1.4-.5-.4-.4-.6-.9-.6-1.5v-.7l.3-.6.9-5h1.4l-1.1 5.3a5 5 0 0 0-.1.9c0 .3 0 .5.2.7.2.2.4.3.8.3.3 0 .7-.1 1.1-.4.4-.2.8-.6 1.1-1.1.3-.5.6-1.3.8-2.2l.7-3.4h1.3l-1.6 8h-1v-1.4a8 8 0 0 1-.8.7c-.2.3-.5.5-.9.6-.1.2-.5.3-.9.3Zm6.2-.2 1.8-8h1.1l-.1 1.4a7 7 0 0 1 .6-.7c.3-.3.6-.5 1-.6.2-.2.6-.3.9-.3 1 0 1.5.2 1.8.6.3.3.5.8.5 1.4v.7l-.3.7-.9 4.8h-1.6l1.2-5a9 9 0 0 0 .1-.6v-.4c.1-.7-.2-1-.9-1-.4 0-.6.1-1.1.4-.5.2-.8.6-1.1 1-.4.7-.6 1.4-.8 2.3l-.8 3.3Zm11.1.2c-.5 0-1-.1-1.3-.4-.4-.3-.6-.7-.6-1.4a5 5 0 0 1 .1-1l1.1-4.4h-1.4l.1-.6 1.5-.6.9-1.6h.6l-.3 1.8h2l-.2 1h-2l-1 4.4v1.5l.7.2h.6l.5-.2v1l-.6.2a3 3 0 0 1-.6.1Zm4.5 0c-.3 0-.7 0-1.1-.2-.5 0-.9-.2-1.1-.3V125l1 .5a4 4 0 0 0 1.2.2c.6 0 1-.1 1.4-.3.3-.4.4-.6.4-1 0-.1 0-.4-.2-.6l-1.1-.8c-.6-.3-1-.6-1.3-1-.3-.3-.4-.8-.4-1.3 0-.7.2-1.2.7-1.6.5-.4 1.2-.6 2-.6l1.4.1 1 .4-.4 1a7.4 7.4 0 0 0-.9-.2 3.8 3.8 0 0 0-1.1-.2c-.4 0-.8 0-1 .3-.3.1-.5.4-.5.8 0 .2 0 .3.3.6l1.1.8a9 9 0 0 1 1 .6l.4.7c.3.2.4.5.4 1 0 .6-.3 1.2-.9 1.7-.5.5-1.3.7-2.2.7Zm-70.6 17.7 2.2-10.7h2l.9 8.8 4.9-8.8h2l-2.2 10.7H263l1.2-6.3a171.5 171.5 0 0 1 .8-3l-5.3 9.2h-1l-1.2-9.2a28.1 28.1 0 0 1-.3 1.8l-.2 1.1-1.4 6.4Zm14.9.2c-.7 0-1.3-.2-1.6-.7-.4-.5-.6-1.1-.6-2 0-.8.1-1.5.3-2.2a6.3 6.3 0 0 1 .8-1.8 4 4 0 0 1 1.3-1.2 3 3 0 0 1 1.5-.4c.6 0 1 .1 1.3.4.4.2.7.6.8 1l.5-1.4h1l-1.6 8.1h-1v-1.4a6 6 0 0 1-1.3 1.1c-.4.3-.9.5-1.4.5Zm.4-1c.4-.1.7-.3 1.1-.6a4 4 0 0 0 1-.9 6 6 0 0 0 .8-2.5v-.7c0-.4-.1-.8-.4-1.1-.2-.3-.6-.4-1-.4s-.8 0-1.2.3l-.8 1-.6 1.5-.2 1.7c0 .5.2 1 .4 1.2.2.3.5.4 1 .4Zm5.6.8 1.7-8h1.1l-.1 1.5.7-.8.8-.6a2 2 0 0 1 1-.2h.8l-.2 1.3h-.8a2 2 0 0 0-1.4.3 4 4 0 0 0-.9 1.3l-.5 1.7-.9 3.5Zm8.7-9.3c-.1 0-.2 0-.4-.2l-.3-.5c0-.3.1-.5.3-.7.1-.2.3-.3.6-.3.5 0 .8.2.8.7 0 .3 0 .5-.3.7l-.7.3Zm-2.6 9.3 1.6-8h1.3l-1.7 8ZM285.1 144.5l1.7-8h1.2l-.2 1.5a7 7 0 0 1 .8-.8l.8-.6c.3-.2.7-.3 1.2-.3.6 0 1.1.2 1.4.5.4.4.6.9.6 1.5v.7l-.1.7-1.1 4.8H290l1-5a9 9 0 0 0 .3-.6v-.4c-.1-.7-.3-1-1.1-1-.3 0-.7.1-1 .5-.6 0-.9.5-1.2.9-.3.7-.5 1.4-.7 2.3l-.8 3.3Zm11.9.2c-.8 0-1.5-.3-2-.8-.6-.6-.9-1.3-.9-2.2a6.6 6.6 0 0 1 1.1-3.7c.4-.5.8-1 1.3-1.2a3 3 0 0 1 1.7-.4c.7 0 1.3.1 1.7.5.4.3.6.7.6 1.3 0 .6-.2 1-.5 1.5-.3.3-1 .7-1.6 1-.6.2-1.4.3-2.6.3h-.3v.6c0 .6.1 1.1.4 1.5.3.3.8.5 1.4.5.4 0 .7 0 1-.2.5 0 .9-.2 1.3-.4v1l-1.2.5-1.4.2Zm-1.2-4.7c.6 0 1.2 0 1.7-.2.5 0 .9-.2 1.2-.5.3-.2.5-.6.5-1l-.3-.6c-.2-.2-.4-.2-.8-.2-.5 0-1 .2-1.4.5-.4.6-.8 1.1-1 2Zm-46.6 22.5 2.3-10.7h1.4l3.3 8.8a24.4 24.4 0 0 1 .5-3l1.3-5.8h1.3l-2.3 10.7h-1.4l-3.3-9a23.6 23.6 0 0 1-.5 2.1l-.1 1-1.2 5.9Zm12.8.1c-.4 0-1-.2-1.4-.6-.5-.6-.6-1.2-.6-2 0-1 0-1.6.2-2.3a6.3 6.3 0 0 1 .8-1.7 4 4 0 0 1 1.3-1.3 3 3 0 0 1 1.6-.4c.5 0 1 .1 1.3.4l.7 1 .6-1.3h.9l-1.7 8h-1l.2-1.4a6 6 0 0 1-1.4 1c-.3.5-.9.6-1.4.6Zm.6-1c.4-.1.7-.3 1-.6a4 4 0 0 0 1-.9 6 6 0 0 0 .8-2.5v-.6c0-.5-.1-1-.4-1.2-.2-.3-.6-.4-1-.4s-.8.1-1 .4c-.5.2-.8.5-1 1l-.5 1.4c-.2.5-.2 1.1-.2 1.8 0 .4 0 .9.3 1 .2.4.4.5 1 .5Zm7.9 1c-.5 0-1-.1-1.4-.4-.3-.2-.5-.7-.5-1.4a5 5 0 0 1 .1-1l1-4.4h-1.4l.2-.6 1.3-.5 1-1.7h.8l-.4 1.8h2l-.2 1h-2l-1 4.4v.5l-.2.4c.1.3.1.4.2.6l.7.2h.5l.6-.2v1l-.7.2a3 3 0 0 1-.6.1Zm5.4-9.6h-.5c-.2-.2-.2-.4-.2-.6 0-.4 0-.5.2-.7.2-.2.4-.3.7-.3.4 0 .6.2.6.7 0 .3 0 .5-.2.7l-.6.3Zm-2.9 9.6 1.8-8.1h1.4l-1.8 7.9Zm7.3 0c-1 0-1.7-.3-2.3-.8-.4-.6-.7-1.4-.7-2.3 0-.6 0-1.3.2-1.9a5.9 5.9 0 0 1 .8-1.6 4 4 0 0 1 1.3-1.2c.4-.3 1-.5 1.7-.5 1 0 1.7.3 2.2.8.5.6.8 1.4.8 2.3 0 .6 0 1.2-.2 1.9a5.5 5.5 0 0 1-.8 1.6c-.4.5-.8 1.1-1.3 1.2-.5.3-1 .5-1.7.5Zm0-1.1c.6 0 1.1-.2 1.5-.5.2-.4.6-.8.8-1.5a6.4 6.4 0 0 0 .4-2.2l-.2-1a1.5 1.5 0 0 0-.5-.5c-.3-.3-.6-.4-1-.4a2 2 0 0 0-1.3.6c-.5.3-.8.8-1.1 1.5a6.2 6.2 0 0 0-.2 2c-.1.7.1 1.1.4 1.5.3.3.7.5 1.3.5Zm5.1 1 1.6-8.1h1.3l-.3 1.5a7 7 0 0 1 .8-.9l.9-.5c.3-.2.7-.3 1.1-.3.7 0 1.2.2 1.6.6.3.2.5.8.5 1.5v.7l-.3.6-.9 4.9h-1.4l1-5.1a9 9 0 0 0 .1-.6l.1-.4c0-.7-.3-1-1-1-.5 0-.7.1-1.1.4-.4.2-.7.6-1 1-.4.7-.8 1.4-1 2.2l-.6 3.5Zm11.2.1c-.6 0-1.2-.2-1.6-.6-.4-.6-.6-1.2-.6-2 0-1 .1-1.6.3-2.3a6.3 6.3 0 0 1 .8-1.7 4 4 0 0 1 1.3-1.3 3 3 0 0 1 1.6-.4c.5 0 1 .1 1.3.4l.7 1 .6-1.3h1l-1.8 8h-1l.2-1.4a6 6 0 0 1-1.4 1c-.3.5-.9.6-1.4.6Zm.4-1c.4-.1.8-.3 1.1-.6a4 4 0 0 0 1-.9 6 6 0 0 0 .8-2.5v-.6c.1-.5-.1-1-.4-1.2-.2-.3-.5-.4-1-.4s-.8.1-1 .4c-.5.2-.8.5-1.1 1l-.4 1.4c-.2.5-.2 1.1-.2 1.8 0 .4 0 .9.2 1 .3.4.6.5 1 .5Zm5.6.9L305 151h1.4l-2.5 11.5Zm-61 17.9 2.2-10.7h2l.9 8.7 4.9-8.7h2l-2.2 10.7h-1.3l1.3-6.4a171.5 171.5 0 0 1 .7-3l-5.1 9.4h-1.1l-1.1-9.4h-.1a28.1 28.1 0 0 1-.3 1.9l-.2 1-1.4 6.5Zm15.7.1c-1 0-1.6-.3-2.2-.8-.5-.7-.8-1.4-.8-2.3l.3-1.8a5.9 5.9 0 0 1 .7-1.7 4 4 0 0 1 1.3-1.2c.4-.3 1-.5 1.7-.5 1 0 1.7.3 2.2.9.6.5.8 1.3.8 2.2 0 .7 0 1.3-.2 1.9a5.5 5.5 0 0 1-.8 1.6c-.3.5-.7 1-1.2 1.2-.5.3-1.1.5-1.8.5Zm.1-1.1c.5 0 1-.2 1.3-.5.4-.3.7-.8 1-1.5a6.4 6.4 0 0 0 .3-2.2c0-.3 0-.6-.2-.9a1.5 1.5 0 0 0-.5-.7c-.2-.2-.5-.3-1-.3a2 2 0 0 0-1.3.7c-.5.3-.8.8-1 1.4a6.2 6.2 0 0 0-.2 2c-.1.7 0 1.1.2 1.6.4.2.8.4 1.4.4Zm5 1 1.7-8.1h1.2l-.2 1.5a7 7 0 0 1 .8-.8l.8-.6c.3-.2.7-.3 1.2-.3.6 0 1.1.2 1.5.6.4.3.5.8.5 1.5v.7l-.1.6-1.1 4.9h-1.4l1-5.1a9 9 0 0 0 .3-.6v-.4c-.1-.6-.4-1-1.1-1-.3 0-.7.2-1 .4-.5.2-.9.6-1.2 1.1-.3.5-.5 1.2-.7 2.1l-.8 3.5Zm11.2.1c-.6 0-1.1-.1-1.6-.5-.3-.3-.4-.8-.4-1.5v-.5l.1-.8 1-4.9h1.5l-1.1 5a5 5 0 0 0-.3 1.1c.1.4.1.6.2.8.3.1.6.2 1 .2.3 0 .6 0 1-.3s.8-.7 1.1-1.2c.4-.5.6-1.2.9-2.1l.7-3.5h1.3l-1.7 8h-1.1l.2-1.3h-.1a8 8 0 0 1-.7.6c-.2.4-.5.5-.9.7l-1.1.2Zm6.2-.1 1.7-8h1.1l-.1 1.3.7-.6.8-.7 1.1-.2c.6 0 1 .1 1.3.4.3.4.5.8.5 1.4h.1l.7-1 1-.6.9-.2c.8 0 1.2.2 1.6.5.3.3.5.8.5 1.5v.6l-.2.7-1 4.9h-1.3l1-5 .2-.8v-.3c0-.3-.1-.6-.4-.7 0-.2-.3-.3-.6-.3-.4 0-.7.1-1 .3-.4.4-.9.7-1.1 1.2a6 6 0 0 0-.8 2l-.7 3.5h-1.3l1-4.9.3-1.1c-.1-.3-.1-.7-.3-.8-.2-.1-.5-.2-.8-.2l-1 .3c-.4.4-.7.7-1 1.2a7.4 7.4 0 0 0-.8 2.1l-.7 3.5Zm16.4.1c-1 0-1.7-.2-2.2-.8-.5-.5-.7-1.3-.7-2.2a6.6 6.6 0 0 1 1-3.6c.4-.5.8-1 1.3-1.3a3 3 0 0 1 1.7-.4c.7 0 1.3.1 1.7.5.4.3.6.8.6 1.3 0 .6-.2 1-.6 1.5-.2.4-.7.8-1.4 1-.7.3-1.6.5-2.7.5h-.3v.4c0 .7.1 1.1.4 1.6.3.3.8.4 1.4.4l1-.1 1.3-.5v1.1l-1.2.5-1.3.1Zm-1.4-4.7h.2l1.6-.1c.4-.1 1-.3 1.2-.7.3 0 .5-.4.5-.9l-.3-.5-.8-.3c-.5 0-1 .2-1.4.6-.4.5-.8 1.1-1 2.1Zm5.6 4.6 1.6-8.1h1.3l-.3 1.5a7 7 0 0 1 .8-.8l.9-.6c.3-.2.7-.3 1.1-.3.7 0 1.2.2 1.6.6.3.3.5.8.5 1.5v.7l-.2.6-1 4.9h-1.4l1-5.1a9 9 0 0 0 .3-.6v-.4c-.1-.6-.4-1-1.1-1-.3 0-.7.2-1 .4-.5.2-.9.6-1.3 1.1-.2.5-.5 1.2-.7 2.1l-.7 3.5Zm11.1.1c-.6 0-1-.1-1.5-.4-.3-.1-.4-.7-.4-1.3a5 5 0 0 1 .1-1.1l1-4.4h-1.4v-.6l1.6-.5.9-1.7h.8l-.6 1.8h2.1l-.1 1h-2l-1 4.4v.5l-.2.4c.1.2.1.4.2.6.2.2.4.2.7.2h.5l.5-.2v1l-.5.2a3 3 0 0 1-.7.1Zm0 0" style="fill:none;stroke-width:2;stroke-linecap:butt;stroke-linejoin:round;stroke:#fff;stroke-opacity:.6;stroke-miterlimit:10" transform=" rotate(  340 280.655 132.594) "/> <g style="fill:green;fill-opacity:1" transform=" rotate(  340 280.655 132.594) ">  <use xlink:href="#a" x="244.3" y="90.8"/>  <use xlink:href="#b" x="254.9" y="90.8"/>  <use xlink:href="#c" x="263.3" y="90.8"/>  <use xlink:href="#d" x="269.3" y="90.8"/>  <use xlink:href="#e" x="274.3" y="90.8"/>  <use xlink:href="#f" x="283" y="90.8"/>  <use xlink:href="#g" x="290.4" y="90.8"/>  <use xlink:href="#h" x="299" y="90.8"/>  <use xlink:href="#d" x="305.4" y="90.8"/>  <use xlink:href="#i" x="249" y="108.7"/>  <use xlink:href="#g" x="257.8" y="108.7"/>  <use xlink:href="#j" x="266.4" y="108.7"/>  <use xlink:href="#k" x="275" y="108.7"/>  <use xlink:href="#b" x="282" y="108.7"/>  <use xlink:href="#j" x="290.5" y="108.7"/>  <use xlink:href="#h" x="299.2" y="108.7"/>  <use xlink:href="#g" x="225.5" y="126.6"/>  <use xlink:href="#j" x="234" y="126.6"/>  <use xlink:href="#l" x="242.7" y="126.6"/>  <use xlink:href="#glyph0-13" x="251.3" y="126.6"/>  <use xlink:href="#m" x="255.2" y="126.6"/>  <use xlink:href="#f" x="262.8" y="126.6"/>  <use xlink:href="#g" x="270.3" y="126.6"/>  <use xlink:href="#n" x="278.8" y="126.6"/>  <use xlink:href="#b" x="292" y="126.6"/>  <use xlink:href="#o" x="300.4" y="126.6"/>  <use xlink:href="#j" x="309.1" y="126.6"/>  <use xlink:href="#d" x="317.8" y="126.6"/>  <use xlink:href="#h" x="322.7" y="126.6"/>  <use xlink:href="#p" x="253.8" y="144.5"/>  <use xlink:href="#g" x="266.4" y="144.5"/>  <use xlink:href="#c" x="274.9" y="144.5"/>  <use xlink:href="#q" x="280.9" y="144.5"/>  <use xlink:href="#j" x="284.7" y="144.5"/>  <use xlink:href="#f" x="293.4" y="144.5"/>  <use xlink:href="#a" x="248.6" y="162.5"/>  <use xlink:href="#g" x="259.2" y="162.5"/>  <use xlink:href="#d" x="267.7" y="162.5"/>  <use xlink:href="#q" x="272.7" y="162.5"/>  <use xlink:href="#b" x="276.6" y="162.5"/>  <use xlink:href="#j" x="285" y="162.5"/>  <use xlink:href="#g" x="293.7" y="162.5"/>  <use xlink:href="#r" x="302.2" y="162.5"/>  <use xlink:href="#p" x="241" y="180.4"/>  <use xlink:href="#b" x="253.6" y="180.4"/>  <use xlink:href="#j" x="262" y="180.4"/>  <use xlink:href="#o" x="270.7" y="180.4"/>  <use xlink:href="#n" x="279.4" y="180.4"/>  <use xlink:href="#f" x="292.5" y="180.4"/>  <use xlink:href="#j" x="300" y="180.4"/>  <use xlink:href="#d" x="308.7" y="180.4"/> </g></svg>