<svg xmlns="http://www.w3.org/2000/svg" xmlns:xlink="http://www.w3.org/1999/xlink" viewBox="0 0 497 279"> <defs overflow="visible" style="stroke:none">  <path id="k" d="M0-5.4h1l1 3 .4 1 .2.6.2-.7c0-.3.2-.5.2-.8l1-3h1.2L2.8.6c-.2.6-.4 1.1-.7 1.4-.3.3-.7.4-1.3.4H.1v-.9h.6c.3.2.6.2.7 0L2 .7l.2-.7Zm0 0"/>  <path id="j" d="M3.4-5.5c.7 0 1.2.2 1.6.5.2.3.4.8.4 1.5V0h-.9v-3.4c0-.9-.4-1.3-1.2-1.3-.6 0-1 .1-1.2.5-.3.2-.4.8-.4 1.4V0H.8v-5.4h.8v.8h.2c.2-.4.3-.5.7-.7l1-.2Zm0 0"/>  <path id="i" d="M4-6.5c-.7 0-1.3.3-1.8.8-.4.5-.6 1.2-.6 2.1 0 1 .2 1.6.6 2.1.4.6 1 .8 1.8.8h1l.6-.3v.8L5 0H4c-.8 0-1.4 0-2-.2a2.8 2.8 0 0 1-1-1.4c-.3-.6-.4-1.2-.4-2 0-.7.1-1.3.4-1.9a3 3 0 0 1 1.2-1.3c.5-.2 1.1-.4 1.8-.4.8 0 1.5.1 2 .4l-.3.7-.8-.2a3 3 0 0 0-.9-.2Zm0 0"/>  <path id="h" d="M1.7-7.6v3c.3-.4.4-.5.7-.6.3-.2.7-.3 1-.3.7 0 1.2.2 1.6.5.2.3.4.8.4 1.5V0h-.9v-3.4c0-.9-.4-1.3-1.2-1.3-.6 0-1 .2-1.2.5-.3.3-.4.8-.4 1.4V0H.8v-7.6Zm0 0"/>  <path id="g" d="M2.6-.6H3l.4-.2v.7L3 0H1.7l-.6-.5-.1-1v-3.3H.2V-5l.7-.5.4-1h.5v1h1.5v.8H1.8v3.1c0 .3 0 .6.2.7l.6.3Zm0 0"/>  <path id="f" d="M5.3-5.4V0h-.7l-.1-.7c-.3.3-.5.5-.9.6l-.9.2C2.1 0 1.6-.1 1.3-.4 1-.7.8-1.2.8-1.8v-3.6h.9v3.5c0 .8.3 1.3 1.2 1.3.6 0 1-.2 1.1-.5.3-.4.5-.9.5-1.5v-2.8Zm0 0"/>  <path id="e" d="M5.5-2.7c0 .9-.2 1.7-.7 2-.4.7-1 .9-1.8.9-.5-.2-.9-.2-1.3-.4-.3-.2-.6-.6-.7-1C.6-1.6.5-2 .5-2.7c0-.9.3-1.6.7-2 .5-.5 1-.8 1.8-.8.5 0 1 .2 1.3.5.4 0 .7.4.9.9.2.2.3.7.3 1.3Zm-4 0c0 .7 0 1.2.3 1.5.3.4.7.6 1.2.6.6 0 1-.2 1.2-.6.3-.3.4-.8.4-1.5s-.1-1.1-.4-1.5c-.2-.3-.6-.5-1.2-.5-.5 0-1 .2-1.2.5-.2.4-.3.9-.3 1.5Zm0 0"/>  <path id="d" d="M6.7-5.5c.6 0 1 .2 1.4.5.3.3.4.8.4 1.5V0h-.8v-3.5c0-.8-.4-1.2-1.1-1.2-.6 0-1 .1-1.1.4C5.2-4 5-3.5 5-3v3h-.7v-3.5c0-.8-.4-1.2-1.1-1.2-.6 0-1 .1-1.2.5-.2.2-.3.8-.3 1.4V0H.8v-5.4h.8v.8h.2l.6-.7 1-.2c.7 0 1.2.3 1.6 1 .2-.5.4-.7.7-.8.3-.1.7-.2 1-.2Zm0 0"/>  <path id="c" d="M3.3-5.5H4l-.1 1.1-.3-.3h-.3c-.3 0-.5 0-.8.2l-.5.7-.3 1V0H.8v-5.4h.8v1h.2l.6-.6c.3-.3.6-.5 1-.5Zm0 0"/>  <path id="b" d="M2.9-5.5c.6 0 1.1.2 1.4.5.3.3.5.7.5 1.3V0h-.6L4-.8c-.3.3-.5.6-.8.8h-1c-.5 0-1 0-1.3-.3C.6-.5.5-.9.5-1.5c0-.5.2-1 .5-1.2.5-.3 1-.5 2-.5h.8v-.3c.2-.5.2-.8-.2-1l-.8-.2H2l-.7.5L1-5l1-.3.9-.2Zm1 2.9h-.8c-.6 0-1 .1-1.4.3-.1.3-.3.5-.3.8 0 .3 0 .5.2.7l.7.2c.5 0 .9-.1 1.2-.4.3-.2.4-.6.4-1Zm.1 0"/>  <path id="a" d="m2.8-3.6 1.9-3.5h1L3.3-2.8V0h-1v-2.7L0-7.1h1Zm0 0"/>  <path d="M1 0v-7.1h4V0Zm.4-.5h3.1v-6.1h-3Zm.1 0"/> </defs> <image xlink:href="svg/9/109_4.jpg" width="497" height="279"/> <path d="m420 85.3 1.8-3.6h1l-2.4 4.4V89h-.9v-2.8l-2.4-4.5h1Zm5.2-1.9c.6 0 1.1.2 1.4.6.4.2.5.6.5 1.2V89h-.7l-.1-1-.9.8-.9.2c-.5 0-1.1-.1-1.4-.4-.1-.3-.4-.6-.4-1.2s.3-1 .7-1.2c.4-.3 1-.5 2-.5h.7v-.4c.1-.3.1-.7-.1-.9-.3-.2-.5-.2-.9-.2h-.8l-.7.5-.3-.8.9-.3 1-.2Zm1 2.9h-.8c-.6 0-1.1.1-1.4.3-.2.2-.3.5-.3.8 0 .3 0 .5.2.7l.7.2c.5 0 .9-.1 1.2-.4.2-.2.4-.6.4-1.2Zm5-2.9h.8l-.2 1h-.6c-.3-.2-.5-.2-.8 0l-.6.6-.2 1v2.8h-.9v-5.3h.8v1h.2l.6-.7c.3-.3.6-.4 1-.4Zm7.6 0c.6 0 1 .2 1.2.6.4.2.6.7.6 1.4v3.5h-.9v-3.5c0-.8-.4-1.2-1-1.2s-1.1.1-1.3.4c-.1.4-.2.8-.2 1.4v3h-1v-3.6c.1-.8-.2-1.2-.9-1.2s-1.1.1-1.3.5c-.1.3-.2.8-.2 1.3v3h-1v-5.5h.9v.8l.8-.7.9-.2c.7 0 1.2.3 1.6 1 .2-.4.5-.7.8-.8.2-.1.6-.2 1-.2Zm8.1 2.8c0 .9-.2 1.6-.7 2-.4.6-1 .8-1.8.8-.5 0-1-.1-1.4-.3l-.8-1c-.2-.4-.2-1-.2-1.5 0-.9.1-1.6.6-2 .4-.5 1-.8 1.8-.8.6 0 1 .1 1.3.4.3.2.7.5.9.9.2.4.3 1 .3 1.5Zm-4 0c-.1.6-.1 1.1.2 1.5.4.4.9.6 1.3.6s1-.3 1.2-.6c.2-.4.4-.9.4-1.5s-.2-1.1-.4-1.5c-.3-.3-.7-.5-1.2-.5s-1 .2-1.2.5c-.2.4-.4.9-.4 1.5Zm9.9-2.7V89h-.8v-.8h-.2c-.1.3-.3.5-.8.6l-.9.2c-.5 0-.9-.2-1.3-.5s-.6-.8-.6-1.5v-3.5h1V87c-.1.8.2 1.3 1 1.3.7 0 1.1-.3 1.3-.5.3-.4.5-.9.5-1.5v-2.8Zm3.5 4.8h.3l.4-.2v.7l-.4.2h-1.3l-.6-.8-.1-.9v-3.1h-.8v-.4l.7-.4.5-1.1h.4v1.2h1.6v.7h-1.6v3.1c0 .3 0 .7.2.7l.6.3Zm2.7-7v3c0-.3.4-.5.7-.6.3-.2.6-.3 1-.3.5 0 .9.2 1.3.6.4.2.6.7.6 1.4v3.5h-.9v-3.5c0-.8-.4-1.2-1.2-1.2-.5 0-1 .1-1.2.5-.3.3-.3.8-.3 1.3v3h-1v-7.7Zm-31.4 13.1c-.8 0-1.4.2-1.8.8-.5.5-.8 1.2-.8 2 .1 1.1.3 1.8.7 2.3.4.4 1 .5 1.9.5h.8l.9-.1v.7l-.9.2-1 .2c-.7 0-1.3-.2-1.8-.5a2.8 2.8 0 0 1-1-1.3c-.4-.5-.5-1.2-.5-2 .1-.7.1-1.2.4-1.9a3 3 0 0 1 1.2-1.2c.5-.3 1.1-.5 1.9-.5.7 0 1.4.1 2 .4l-.4.8-.8-.3a3 3 0 0 0-.8-.1Zm7.8 3.7c0 1-.4 1.6-.7 2.1-.5.5-1 .7-1.8.7-.5.1-1 .1-1.3-.3-.4-.2-.7-.5-.9-1-.2-.3-.3-.8-.3-1.4 0-.9.2-1.6.7-2.1.4-.5.9-.7 1.8-.7.5 0 1.1 0 1.3.3.4.2.6.5.8 1 .3.3.4.7.4 1.3Zm-4 0c-.1.7-.1 1.2.2 1.6.3.3.7.5 1.3.5.5 0 1-.2 1.1-.5.3-.4.5-1 .5-1.7 0-.5-.2-.9-.5-1.3-.2-.4-.6-.7-1.1-.7-.6.1-1 .3-1.2.7-.3.3-.4.8-.4 1.3Zm9.8-2.6v5.3h-.7l-.1-.7c-.2.3-.5.5-.8.6-.3.3-.6.3-1 .3-.6 0-1-.2-1.4-.5-.3-.3-.5-.8-.5-1.5v-3.5h.9v3.4c0 .9.4 1.3 1.2 1.3.6 0 1-.2 1.2-.5.3-.3.4-.8.4-1.4v-2.8Zm4.3-.1c.7 0 1.1.1 1.5.4.3.3.5.8.5 1.5v3.5h-1v-3.4c.1-.9-.2-1.4-1-1.4-.7.1-1.1.3-1.3.6-.3.4-.4.8-.4 1.4v2.8h-.8v-5.3h.7v.7h.2c.1-.3.3-.5.6-.6.5-.2.7-.2 1-.2Zm5.5 4.8h.2l.5-.2v.8h-.4l-.5.2-.8-.2c-.3-.1-.4-.3-.6-.5l-.2-1V96h-.8v-.3l.8-.3.4-1.2h.4v1.3h1.6v.5h-1.5v3.3c-.1.2-.1.5.2.7l.6.2Zm.9-4.7h1l.9 3 .6.8v.7l.4-.7.1-.8 1.1-3h1l-2.3 6c-.2.7-.5 1.1-.8 1.4-.2.1-.7.3-1.2.3h-.7v-.8h.6c.3.1.4.1.7-.2l.5-.5.2-.9Zm0 0" style="fill:none;stroke-width:3;stroke-linecap:butt;stroke-linejoin:round;stroke:#fff;stroke-opacity:.6;stroke-miterlimit:10" transform=" rotate(  340 440.314 91.8571) "/> <g style="fill:#986e96;fill-opacity:1" transform=" rotate(  340 440.314 91.8571) ">  <use xlink:href="#a" x="417.1" y="88.9"/>  <use xlink:href="#b" x="422.3" y="88.9"/>  <use xlink:href="#c" x="427.9" y="88.9"/>  <use xlink:href="#d" x="432" y="88.9"/>  <use xlink:href="#e" x="441.4" y="88.9"/>  <use xlink:href="#f" x="447.4" y="88.9"/>  <use xlink:href="#g" x="453.6" y="88.9"/>  <use xlink:href="#h" x="457.2" y="88.9"/>  <use xlink:href="#i" x="423.5" y="100.8"/>  <use xlink:href="#e" x="429.9" y="100.8"/>  <use xlink:href="#f" x="435.9" y="100.8"/>  <use xlink:href="#j" x="442.1" y="100.8"/>  <use xlink:href="#g" x="448.3" y="100.8"/>  <use xlink:href="#k" x="451.9" y="100.8"/> </g></svg>