<svg xmlns="http://www.w3.org/2000/svg" xmlns:xlink="http://www.w3.org/1999/xlink" viewBox="0 0 497 279"> <defs>  <path d="M1 0v-7.1h4V0Zm.4-.5h3.1v-6.1h-3Zm.1 0" id="reuse-0"/> </defs> <defs overflow="visible" style="stroke:none">  <path id="u" d="m.3 0 1.1-5.3h1.2L3-1.1l2.5-4.2h1.2L5.6 0h-.8l.7-3 .1-.9.2-.6L3.3 0h-.7L2-4.5l-.3.7v.8L1 0Zm0 0"/>  <path id="t" d="M3.3 0c-.8 0-1.5 0-2-.5C1-1.1.8-1.8.8-2.6.7-3.1.7-3.5 1-4c-.1-.4 0-.8.3-1.2l.8-1L3-7l1.7-.2c.5 0 1.1.1 1.6.4l-.3.7a4 4 0 0 0-.7-.2l-.7-.2c-.6 0-1 .2-1.3.5-.4 0-.7.4-1 .8A4 4 0 0 0 1.9-4l-.2 1.3c0 .7.1 1.1.3 1.5.4.3 1 .5 1.4.5h.8L5-1v.8l-.8.2a5 5 0 0 1-1 0Zm0 0"/>  <path id="s" d="m.3 0 1.1-5.4h.9l-.6 2.6 2.5-2.6h1.1L2.7-2.7 4.5 0h-1L1.6-2.7 1.2 0Zm0 0"/>  <path id="r" d="m-.2 2.4 1.6-7.8h.7v1l.7-.6c.3-.3.7-.5 1-.5.5 0 .8.2 1 .5.5.3.6.8.6 1.4-.1.5-.1 1-.3 1.4L4.6-1l-.8.8a2 2 0 0 1-1.1.3C2.3 0 2 0 1.8-.2a2 2 0 0 1-.5-.6v.4L1 .1.7 2.4Zm2.8-3c.4 0 .5-.1.7-.4.3 0 .5-.3.7-.6a4 4 0 0 0 .3-1 5 5 0 0 0 .1-.9c0-.9-.3-1.2-.9-1.2-.2 0-.4 0-.5.2l-.8.7-.4 1c-.2.3-.2.7-.2 1.1 0 .3 0 .6.2.8.2.2.5.3.8.3Zm0 0"/>  <path id="q" d="m.2 0 1.2-5.4h.8l-.2 1 .5-.6a2 2 0 0 1 .6-.3l.9-.2c.3 0 .6.1.9.5.1 0 .4.4.4.9v.4l-.2.5L4.4 0h-.9l.7-3.4v-.4l.2-.2c-.1-.5-.3-.7-.8-.7-.2 0-.4 0-.6.2-.3.2-.6.5-.8.8-.2.3-.4.8-.5 1.4L1.2 0Zm0 0"/>  <path id="p" d="M3.6-6c-.6 0-1-.3-1.2-.5-.4-.1-.4-.4-.4-.8a1 1 0 0 1 0-.3h.9v.3c-.1.2-.1.3.1.3 0 .3.3.3.7.3.3 0 .5 0 .7-.2.2-.1.4-.3.4-.7h.9c-.1.6-.3.8-.7 1.1-.3.3-.8.5-1.4.5ZM1.9 0c-.4 0-.7 0-1-.1C.7-.5.5-.8.5-1.2v-.5L.8-2l.6-3.4h.9L1.4-2v1.2l.8.2c.2 0 .4-.1.8-.4l.6-.6.5-1.4.5-2.4h.9L4.4 0h-.8l.1-1-.5.5-.4.5-.9.1Zm0 0"/>  <path id="o" d="M2.4 0c-.6 0-1 0-1.4-.2C.8-.5.6-.9.6-1.4V-2a5 5 0 0 1 .2-.4l.6-3h.9L1.8-3l.5-.1h.5c.6-.1 1-.1 1.2.2.3.4.5.7.5 1.1s-.1.8-.3 1.1c-.1.2-.4.4-.7.5-.3.2-.7.3-1.1.3ZM5 0l1-5.4h1L5.8 0ZM2.4-.6c.4 0 .7-.1.9-.4a1 1 0 0 0 .3-.7l-.3-.6-.7-.1h-1v.6l-.2.3c.1.3.1.5.3.5.1.3.4.4.7.4Zm0 0"/>  <path id="n" d="M2.4 0c-.6 0-1 0-1.3-.2C.8-.5.6-.9.6-1.5v-.4l.2-.5.6-3h.9L1.6-3A9.8 9.8 0 0 1 3-3.2c.5 0 1 .2 1.2.5.3.2.4.6.4.9 0 .4 0 .7-.2 1-.2.3-.4.5-.8.6-.3.2-.6.3-1.2.3Zm0-.5c.6-.1 1-.2 1.1-.5a1 1 0 0 0 .2-.7c0-.2 0-.3-.2-.5-.1-.2-.4-.2-.8-.2a5.6 5.6 0 0 0-1.1 0v.7l-.2.2c.1.2.1.4.3.5.1.3.3.4.8.4Zm.1-.1"/>  <path id="m" d="M0 0h-.4v-.8l.3.1C0-.7.3-.7.4-.9l.6-.7.3-1.2.5-1.1.4-.9.8-.5h1a4.5 4.5 0 0 1 1 .1L4 0h-.9l1-4.6h-1l-.5.8-.5 1.3L1.5-1c-.1.3-.3.6-.5.8C.7 0 .4 0 0 0Zm0 0"/>  <path id="l" d="m.3 0 1.1-5.4h.9L1.8-3h2.5l.5-2.4h.9L4.6 0h-1l.7-2.4H1.7L1.2 0Zm0 0"/>  <path id="k" d="M2.5 0C1.9 0 1.4 0 1-.4.7-.8.5-1.3.5-2l.1-1.2a4 4 0 0 1 .5-1.1c.3-.3.5-.7.9-.8.3-.2.7-.3 1.2-.3.6 0 1 .2 1.4.4.4.5.6 1.1.6 1.6L5-2a4 4 0 0 1-.5.9c-.2.5-.5.8-.8 1L2.5 0Zm0-.6c.5-.1.6-.1 1-.4.1-.2.3-.5.5-1 .2-.3.3-.8.3-1.4L4.2-4a1 1 0 0 0-.4-.5l-.6-.2c-.4 0-.7.1-1 .4-.2.2-.5.6-.6 1A4 4 0 0 0 1.4-2c0 .5 0 .8.3 1 .2.2.5.3.8.3Zm0-.1"/>  <path id="j" d="M1.9 0c-.4 0-.7 0-1-.1C.7-.5.5-.8.5-1.2v-.5L.8-2l.6-3.4h.9L1.4-2v1.2l.8.2c.2 0 .4-.1.8-.4l.6-.6.5-1.4.5-2.4h.9L4.4 0h-.8l.1-1-.5.5-.4.5-.9.1Zm0 0"/>  <path id="i" d="M4 1.9 4.2 0C4.1 0 4-.1 4-.2L3.8-1h-.2l-.3.5a2 2 0 0 1-.6.5 2 2 0 0 1-.8 0c-.4 0-.7 0-.9-.1C.7-.5.5-.8.5-1.2v-.5L.8-2l.6-3.4h.9L1.4-2v1.2l.8.2c.2 0 .4-.1.8-.4l.6-.6.5-1.4.5-2.4h.9l-.8 3.8v.9h.7L4.8 2Zm0 0"/>  <path id="h" d="M2 0c-.6 0-.9 0-1.2-.3C.6-.7.5-1 .5-1.7c0-.5 0-1 .2-1.5l.5-1.1c.2-.4.5-.7.8-.9a2 2 0 0 1 1.1-.3c.4 0 .6.1.9.3l.5.7.3-.9h.7L4.4 0h-.7l.1-1c-.3.3-.5.6-.9.8-.3.2-.6.2-.9.2Zm.1-.5c.4-.1.6-.2.9-.5l.6-.6a4 4 0 0 0 .4-1 3 3 0 0 0 .1-.7 4 4 0 0 0 0-.4c.1-.3.1-.5-.1-.7-.3-.2-.5-.3-.8-.3-.3 0-.5 0-.7.2a2 2 0 0 0-.6.7l-.4 1-.1 1.1c0 .4 0 .6.2.8.1.2.3.3.6.3Zm.1-.1"/>  <path id="g" d="M.4 0 2-7.1h1l-.9 3h3.2l.7-3h.8L5.3 0h-.8l.7-3.3H2L1.3 0Zm0 0"/>  <use xlink:href="#reuse-0"/>  <path id="f" d="M4-5.4h1L2.7-2.8 5.2 0h-1L1.7-2.7V0H.8v-5.4h1v2.6Zm0 0"/>  <path id="e" d="M3 0c-.5 0-.9 0-1.3-.1-.3-.3-.6-.6-.7-.9-.4-.5-.5-1-.5-1.7 0-.6.2-1.1.5-1.5 0-.6.4-.8.8-1.1.2-.1.8-.2 1.2-.2l.8.1.7.2-.3.8-.6-.2H3c-1-.1-1.5.6-1.5 1.9 0 .7 0 1 .3 1.4.3.5.7.6 1.2.6h.8l.6-.3v.8a2 2 0 0 1-.6.2H3Zm0 0"/>  <path id="d" d="M1.7-5.4V-3h3v-2.4h.7V0h-.8v-2.4H1.7V0H.8v-5.4Zm0 0"/>  <path id="c" d="M3.4-5.5c.7 0 1.2.3 1.6.7.4.5.6 1.2.6 2.1 0 1-.2 1.7-.6 2-.4.7-1 .9-1.6.9-.4-.2-.8-.2-1-.3l-.7-.6v3.1H.8v-7.8h.8v.8h.2c.2-.4.3-.5.6-.6.2-.2.6-.3 1-.3Zm-.2.8c-.5 0-.9.1-1.1.5-.2.2-.4.7-.4 1.2v.3c0 .7.1 1.2.3 1.5.3.4.7.6 1.3.6.3 0 .6-.1.7-.4l.5-.6.2-1.1c0-.6-.1-1.1-.4-1.5-.2-.3-.6-.5-1-.5Zm0 0"/>  <path id="b" d="M2.9-5.5c.6 0 1.1.2 1.4.5.3.3.5.7.5 1.3V0h-.6L4-.8c-.3.3-.5.6-.8.8h-1c-.5 0-1 0-1.3-.3C.6-.5.5-.9.5-1.5c0-.5.2-1 .5-1.2.5-.3 1-.5 2-.5h.8v-.3c.2-.5.2-.8-.2-1l-.8-.2H2l-.7.5L1-5l1-.3.9-.2Zm1 2.9h-.8c-.6 0-1 .1-1.4.3-.1.3-.3.5-.3.8 0 .3 0 .5.2.7l.7.2c.5 0 .9-.1 1.2-.4.3-.2.4-.6.4-1Zm.1 0"/>  <path id="a" d="M4-6.5c-.7 0-1.3.3-1.8.8-.4.5-.6 1.2-.6 2.1 0 1 .2 1.6.6 2.1.4.6 1 .8 1.8.8h1l.6-.3v.8L5 0H4c-.8 0-1.4 0-2-.2a2.8 2.8 0 0 1-1-1.4c-.3-.6-.4-1.2-.4-2 0-.7.1-1.3.4-1.9a3 3 0 0 1 1.2-1.3c.5-.2 1.1-.4 1.8-.4.8 0 1.5.1 2 .4l-.3.7-.8-.2a3 3 0 0 0-.9-.2Zm0 0"/>  <use xlink:href="#reuse-0"/> </defs> <image xlink:href="svg/9/10_16.jpg" width="497" height="279"/> <path d="M273.7 268.1c-.7 0-1.4.3-1.7.9-.5.4-.7 1.1-.7 2 0 1 .2 1.6.6 2.1.4.6 1 .9 1.8.9h.9l.8-.5v.9l-.8.2-1 .1c-.7 0-1.4-.1-1.8-.4a2.8 2.8 0 0 1-1.1-1.3c-.3-.6-.4-1.2-.4-2 0-.7.1-1.3.4-1.9a3 3 0 0 1 1.2-1.3c.5-.3 1.1-.4 1.8-.4.8 0 1.4.1 2 .4l-.4.7-.7-.2a3 3 0 0 0-.9-.3zm5.2 1c.6 0 1.1.2 1.4.5.4.3.5.7.5 1.3v3.7h-.6l-.2-.8c-.3.3-.5.6-.8.7l-1 .2c-.5 0-1-.1-1.3-.4-.3-.2-.4-.6-.4-1.2 0-.5.2-1 .5-1.1.5-.4 1-.6 2-.6h.8v-.4c.2-.4.2-.7-.1-1H278l-.7.4-.2-.8.8-.3 1-.3zm1 2.9h-.7c-.7 0-1.2.1-1.4.3-.3.2-.4.5-.4.8 0 .3 0 .5.3.7l.7.2c.4 0 .8-.1 1.1-.4.3-.2.4-.6.4-1.1zm5.1-2.9c.7 0 1.2.3 1.6.7.4.5.6 1.2.6 2.2 0 1-.2 1.5-.6 2-.4.6-1 .8-1.6.8-.4-.1-.8-.1-1-.3l-.6-.6h-.1v3.1h-.7v-7.8h.6l.1.8c.3-.3.5-.5.7-.6.2-.2.6-.4 1-.4zm0 .9c-.7-.1-1.1 0-1.3.4-.2.3-.3.6-.3 1.3v.3c0 .6 0 1.1.3 1.4.2.4.6.6 1.2.6.3 0 .6-.1.8-.3l.5-.7.1-1.1c0-.6-.1-1.1-.3-1.5-.3-.3-.6-.4-1-.4zM290.6 269.1c.7 0 1.2.2 1.5.5.3.3.5.7.5 1.3v3.7h-.7l-.1-.8-.8.7-1 .2c-.7 0-1-.1-1.4-.4-.2-.2-.4-.6-.4-1.2 0-.5.2-1 .6-1.1.5-.4 1.2-.6 2-.6h1v-.4c-.1-.4-.3-.7-.5-1h-1.5l-.7.4-.3-.8.8-.3 1-.3zm1.1 2.9h-.7c-.8 0-1.2.1-1.5.3-.2.2-.4.5-.4.8 0 .3.1.5.3.7l.7.2c.5 0 .9-.1 1.2-.4.3-.2.4-.6.4-1.1zm3.4-2.8v2.3h3v-2.3h.7v5.4h-.8v-2.4h-2.9v2.4h-.9v-5.4zm7.7 5.5c-.5 0-1-.1-1.4-.3-.4-.2-.6-.4-.8-.9-.2-.4-.3-1-.3-1.5 0-.7.1-1.2.3-1.6.2-.5.5-.8 1-1 .2-.1.6-.3 1.1-.3l.9.1.6.2-.2.8-.6-.2h-.6c-1 0-1.6.5-1.6 2 0 .5.1 1 .4 1.3.3.5.6.7 1.1.7h.8l.6-.4v.8a2 2 0 0 1-.6.2l-.8.1zm5.8-5.5h1l-2.5 2.6 2.6 2.8h-1l-2.4-2.7v2.7h-1v-5.4h1.1v2.6zm0 0" style="fill:none;stroke:#fff;stroke-width:3;stroke-linecap:butt;stroke-linejoin:round;stroke-miterlimit:10;stroke-opacity:.6" transform="rotate(  340 296.783 249.141) translate(6.5021186,-22.461864)"/> <g style="fill:#212121;fill-opacity:1" transform=" rotate(  340 296.783 249.141) ">  <use xlink:href="#a" x="276.2" y="252.1"/>  <use xlink:href="#b" x="282.5" y="252.1"/>  <use xlink:href="#c" x="288.1" y="252.1"/>  <use xlink:href="#b" x="294.3" y="252.1"/>  <use xlink:href="#d" x="299.9" y="252.1"/>  <use xlink:href="#e" x="306.3" y="252.1"/>  <use xlink:href="#f" x="311.1" y="252.1"/> </g> <path d="m315.7 57.8 1.5-7.2h1l-.8 3h3.2l.7-3h.7l-1.4 7.2h-.8l.7-3.4h-3.2l-.7 3.4Zm8.3.1c-.4 0-.7-.2-1-.5-.3-.3-.4-.8-.4-1.4 0-.5 0-1 .2-1.4l.5-1.2.8-.8a2 2 0 0 1 1.1-.3c.4 0 .8.1.9.3l.5.6.4-.8h.6l-1.1 5.4h-.7l.1-1-.9.7c-.3.3-.6.5-1 .5Zm.3-.9c.3.1.5.1.7 0l.7-1a4 4 0 0 0 .3-.9 3 3 0 0 0 .2-.5 4 4 0 0 0 0-.6c.1-.2.1-.5-.2-.7-.2-.2-.4-.3-.7-.3-.3 0-.5.1-.7.3a2 2 0 0 0-.6.7l-.4 1-.1 1c0 .5 0 .8.2 1h.6Zm7.4 2.6.4-1.8c-.1 0-.3-.1-.4-.3l-.2-.7-.5.5a2 2 0 0 1-.5.4 2 2 0 0 1-.8.3c-.4-.1-.7-.2-1-.5-.2-.2-.4-.5-.4-1v-.4l.2-.4.6-3.3h1l-.9 3.4V57h.8c.1.1.4.1.7 0 .2-.3.5-.5.7-.9.2-.3.4-.8.5-1.4l.5-2.3h.9l-.8 3.8v.8h.7l-.6 2.6Zm3.9-1.7c-.4 0-.6-.1-1-.4-.1-.2-.2-.5-.2-1v-.8l.7-3.3h.9l-.7 3.4-.1.7.1.5h.7c0 .1.4.1.6 0l.8-.9c.2-.3.4-.8.5-1.4l.5-2.3h.9l-1.3 5.4h-.6l.1-1-.5.5-.6.4-.8.2Zm6.4-.1c-.6 0-1-.1-1.4-.5-.4-.4-.6-.9-.6-1.5 0-.4 0-.8.2-1.2a4 4 0 0 1 .5-1.1c.2-.5.5-.6.8-.9l1.2-.3c.6 0 1.1.2 1.5.7.3.3.5.8.5 1.4 0 .4 0 .8-.2 1.2a4 4 0 0 1-.5 1.1c-.2.4-.5.6-.8.8-.3.2-.7.3-1.2.3Zm0-.7c.5 0 .8-.1 1-.3l.5-1 .3-1.5-.1-.6a1 1 0 0 0-.4-.5l-.6-.1c-.4-.1-.7-.1-1 .3l-.5 1a4 4 0 0 0-.2 1.4c0 .4 0 .8.2 1 .2.2.5.2.9.2Zm3.5.7 1-5.4h1.1l-.6 2.2h2.5l.5-2.2h.9l-1.1 5.4h-1l.7-2.4h-2.7l-.5 2.4Zm7.6.1c-.4 0-.8-.2-1-.5-.3-.3-.4-.8-.4-1.4 0-.5 0-1 .2-1.4 0-.4.3-.8.5-1.2l.8-.8a2 2 0 0 1 1-.3c.5 0 .8.1 1.1.3l.2.6h.2l.3-.8h.7l-1.2 5.4h-.7l.2-1-1 .7c-.2.3-.5.5-.9.5Zm.3-.9c.2.1.5.1.7 0l.7-1a4 4 0 0 0 .4-.9 3 3 0 0 0 .1-.5 4 4 0 0 0 0-.6c0-.2 0-.5-.2-.7-.2-.2-.4-.3-.7-.3-.4 0-.5.1-.7.3a2 2 0 0 0-.7.7l-.3 1-.1 1c0 .5 0 .8.2 1h.6ZM356.8 57.8h-.4V57h.9l.4-.8.5-1.2.4-1.2.5-.8.7-.5 1-.1a4.5 4.5 0 0 1 1.2.1l-1.1 5.3h-1L361 53h-.3c-.4 0-.7 0-.8.3-.1.1-.3.3-.4.7l-.5 1.3-.6 1.4-.6.8c-.3.2-.6.3-1 .3Zm7.9.1c-.6 0-1-.2-1.3-.4-.4-.3-.5-.7-.5-1.2V56l.1-.6.7-3h.9l-.6 2.3a9.8 9.8 0 0 1 1.2 0c.6-.1 1-.1 1.3.3.3.3.5.6.5 1s0 .7-.3 1l-.8.6c-.3.2-.7.4-1.2.4Zm0-.9c.6.1 1 .1 1.1-.2a1 1 0 0 0 .2-.7c0-.1 0-.4-.2-.6l-.8-.2a5.6 5.6 0 0 0-1.1.1 27.8 27.8 0 0 0-.1.9c0 .2 0 .3.2.6 0 .1.4.1.8.1ZM367.8 57.8l1.2-5.4h.8l-.4 2.2h2.5l.5-2.2h.8l-1 5.4h-1.1l.6-2.4h-2.5l-.5 2.4Zm8.1.1c-.5 0-1-.2-1.3-.4-.3-.3-.4-.6-.4-1.2V56a5 5 0 0 1 0-.6l.8-3h.8l-.5 2.3h1.1c.5-.1.9-.1 1.2.3.3.2.4.6.4 1s0 .7-.2 1l-.8.6c-.2.2-.6.4-1.1.4Zm2.6-.1 1.2-5.4h.8l-1.1 5.4ZM376 57c.4.1.7.1 1-.2a1 1 0 0 0 0-.7c.1-.3.1-.5 0-.6l-1-.2h-.4l-.5.2v1.4c.3.2.5.2.9.2ZM384.4 51.7c-.4 0-1-.1-1.2-.3-.2-.4-.4-.5-.4-.9a1 1 0 0 1 0-.3h.9v.3c-.1.1-.1.3.1.4l.7.2c.3-.1.5-.1.7-.2.2-.1.4-.4.4-.7h.9c0 .4-.3.8-.6 1-.4.5-.9.6-1.5.6Zm-1.7 6.2c-.4 0-.7-.1-1-.4-.2-.2-.3-.5-.3-1v-.8l.9-3.3h.7l-.6 3.4-.1.7.1.5h.6c.2.1.4.1.7 0 .3-.3.5-.5.7-.9.3-.3.4-.8.6-1.4l.4-2.3h1l-1.3 5.4h-.6v-1l-.4.5-.6.4-.8.2Zm-68 11.8 1.3-5.4h.6v1c-.1-.2.1-.3.4-.5a2 2 0 0 1 .6-.4l.8-.2c.4 0 .6.1 1 .4.2.2.3.4.3 1v.9l-.9 3.2h-.8l.8-3.4v-.6c0-.5-.1-.7-.6-.7l-.8.3c-.3.1-.5.4-.7.7-.2.3-.4.8-.5 1.4l-.5 2.3Zm7.5.1c-.4 0-.8-.1-1-.5-.3-.3-.4-.7-.4-1.3l.1-1.4.6-1.2c.2-.4.5-.7.8-.8a2 2 0 0 1 1-.3c.5 0 .7 0 1.1.2l.2.7.6-.9h.6l-1.2 5.4h-.6l.1-1-1 .8c-.2.2-.5.3-.9.3Zm.3-.7c.2-.1.5-.1.7-.3.2-.2.5-.4.6-.7a4 4 0 0 0 .5-1.1 3 3 0 0 0 0-.5 4 4 0 0 0 .2-.4c-.1-.4-.1-.6-.3-.8-.2-.3-.4-.3-.7-.3-.3 0-.5 0-.8.2a2 2 0 0 0-.4.8l-.5 1-.2 1c0 .4.1.6.4.8 0 .2.2.3.5.3Zm3.2 3 1.7-7.8h.6v1l.8-.7c.2-.2.6-.3 1-.3s.8.1 1 .4c.3.3.4.8.4 1.4l-.1 1.4-.6 1.2-.8.8a2 2 0 0 1-1 .3c-.5 0-.7 0-1.1-.3a2 2 0 0 1-.2-.5l-.3.3-.1.5-.4 2.3Zm2.9-3c.2-.1.4-.1.7-.3l.6-.7a4 4 0 0 0 .3-1 5 5 0 0 0 .2-.9c0-.9-.4-1.2-1-1.2 0 0-.4 0-.5.2l-.7.8-.5.9-.2 1.1c0 .3.1.6.3.8.2.2.4.2.8.2Zm3.4.6 1.1-5.4h1l-.7 2.7 2.6-2.7h1l-2.5 2.7 1.7 2.7h-1l-1.7-2.7-.6 2.7Zm10.5.1c-.8 0-1.5-.2-2-.7-.3-.5-.5-1.2-.5-2.1 0-.3 0-.8.1-1.2-.1-.5.2-.9.4-1.3l.8-1 1-.8 1.6-.2c.5 0 1.1.1 1.6.4l-.4.7a4 4 0 0 0-.6-.2l-.7-.1c-.5 0-1 0-1.3.3-.5.2-.7.5-1 .9a4 4 0 0 0-.5 1.2v1.4c-.1.6 0 .9.3 1.4.3.3.8.5 1.3.5h.8l.8-.4v.9l-.8.2a5 5 0 0 1-1 .1Zm2.9-.1 1-5.3h1.3l.5 4.2 2.4-4.2h1.2l-1.1 5.3h-.8l.6-3 .2-.9.3-.6-2.7 4.5h-.7l-.6-4.5-.1.7-.1.8-.8 3Zm9.1.1c-.5 0-1-.2-1.4-.6-.4-.2-.6-.8-.6-1.5 0-.4 0-.7.2-1.2a4 4 0 0 1 .5-1.1l.8-.8 1.2-.3c.6 0 1.1.2 1.5.5.3.4.5 1 .5 1.5s0 .9-.2 1.3a4 4 0 0 1-.5 1c-.2.4-.5.8-.8 1-.3.1-.7.2-1.2.2Zm0-.8c.5 0 .8-.1 1.1-.3l.4-1 .3-1.3v-.7a1 1 0 0 0-.5-.5l-.6-.2c-.2 0-.7.1-1 .4l-.5 1a4 4 0 0 0-.3 1.4c0 .4.1.7.3 1 .3 0 .5.2.9.2Zm3.2.8h-.4v-1l.3.2c.2 0 .4 0 .4-.2.3-.1.4-.4.6-.7l.4-1.1.5-1.2.4-.9.7-.4 1-.2a4.5 4.5 0 0 1 1.2.2l-1.1 5.2h-.9l1-4.6h-1l-.5.9-.5 1.2-.6 1.4c-.1.4-.2.7-.6.9-.2.2-.5.3-1 .3Zm7.8 0c-.5 0-1-.1-1.3-.4-.2-.2-.4-.6-.4-1.1v-1l.8-3h.8l-.5 2.4a9.8 9.8 0 0 1 1.1-.1c.6 0 1 0 1.3.4.3.2.4.6.4 1 0 .3 0 .6-.2.9l-.7.7-1.3.2Zm.1-.7c.5-.1.8-.1 1-.3a1 1 0 0 0 .3-.8c0-.2-.1-.4-.3-.5-.1-.2-.4-.2-.8-.2a5.6 5.6 0 0 0-1 0l-.3.7v.2c.1.2.1.5.3.6.2.2.4.3.8.3Zm3 .6 1.2-5.4h.9l-.5 2.3h2.5l.5-2.3h.8l-1.1 5.4h-.9l.5-2.4H370l-.5 2.4Zm8.1.1c-.5 0-1-.1-1.2-.4-.5-.2-.5-.6-.5-1.1v-.5a5 5 0 0 1 .1-.5l.6-3h1l-.7 2.4.6-.1h.6c.5 0 1 0 1.2.3.3.3.4.6.4 1.1s0 .7-.2 1l-.7.6-1.2.2Zm2.7 0 1-5.6h1.1l-1.3 5.5Zm-2.6-.8c.4 0 .7 0 .9-.2a1 1 0 0 0 .2-.8c.1-.2.1-.4-.2-.6l-.8-.1h-.9l-.1.6v.3c0 .3 0 .5.1.6.2.2.4.3.8.3Zm8.4-5.4c-.5 0-1 0-1.2-.3-.2-.2-.3-.5-.3-.9a1 1 0 0 1 0-.3h.8v.7c.3.2.5.2.8.2.3 0 .6 0 .8-.2.2 0 .3-.3.4-.7h.8c0 .5-.3.9-.6 1.1-.3.3-.8.4-1.5.4Zm-1.7 6.2c-.4 0-.7-.1-1-.3-.1-.3-.2-.6-.2-1v-.9l.7-3.3h.9l-.7 3.4-.2.7.2.5.6.1c.2 0 .5 0 .7-.2.3-.1.5-.4.8-.7l.5-1.4.5-2.4h.7l-1 5.4h-.7v-1c0 .3-.2.3-.3.5l-.7.4-.8.2Zm0 0" style="fill:none;stroke-width:2;stroke-linecap:butt;stroke-linejoin:round;stroke:#fff;stroke-opacity:.6;stroke-miterlimit:10" transform=" rotate(  340 351.209 60.7372) "/> <g style="fill:green;fill-opacity:1" transform=" rotate(  340 351.209 60.7372) ">  <use xlink:href="#g" x="315.3" y="57.8"/>  <use xlink:href="#h" x="322.1" y="57.8"/>  <use xlink:href="#i" x="327.8" y="57.8"/>  <use xlink:href="#j" x="333.8" y="57.8"/>  <use xlink:href="#k" x="339.5" y="57.8"/>  <use xlink:href="#l" x="345.2" y="57.8"/>  <use xlink:href="#h" x="351.2" y="57.8"/>  <use xlink:href="#m" x="356.9" y="57.8"/>  <use xlink:href="#n" x="362.3" y="57.8"/>  <use xlink:href="#l" x="367.5" y="57.8"/>  <use xlink:href="#o" x="373.5" y="57.8"/>  <use xlink:href="#p" x="380.8" y="57.8"/>  <use xlink:href="#q" x="314.5" y="69.7"/>  <use xlink:href="#h" x="320.3" y="69.7"/>  <use xlink:href="#r" x="325.9" y="69.7"/>  <use xlink:href="#s" x="331.7" y="69.7"/>  <use xlink:href="#glyph1-14" x="336.6" y="69.7"/>  <use xlink:href="#t" x="339.2" y="69.7"/>  <use xlink:href="#u" x="345.1" y="69.7"/>  <use xlink:href="#k" x="352.1" y="69.7"/>  <use xlink:href="#m" x="357.7" y="69.7"/>  <use xlink:href="#n" x="363.1" y="69.7"/>  <use xlink:href="#l" x="368.4" y="69.7"/>  <use xlink:href="#o" x="374.4" y="69.7"/>  <use xlink:href="#p" x="381.6" y="69.7"/> </g></svg>