<svg xmlns="http://www.w3.org/2000/svg" xmlns:xlink="http://www.w3.org/1999/xlink" viewBox="0 0 497 279"> <defs overflow="visible" style="stroke:none">  <path id="g" d="M1.7-5.4V-3h3v-2.4h.7V0h-.8v-2.4H1.7V0H.8v-5.4Zm0 0"/>  <path id="f" d="M1.7-5.4v3.7a18.9 18.9 0 0 0 0 .7l2.7-4.4h1.1V0h-.7v-4.1l.1-.4-3 4.5H1v-5.4Zm0 0"/>  <path id="e" d="M8.1-5.4V0H.8v-5.4h1v4.7H4v-4.7h1v4.7h2.1v-4.7Zm0 0"/>  <path id="d" d="M.8 0v-5.4h1v2.2H3c.8 0 1.3.2 1.7.4.3.3.5.8.5 1.2S5-.7 4.7-.4c-.4.3-.9.4-1.7.4ZM6 0v-5.4h1V0ZM1.7-.7H3c.4 0 .7 0 1-.2.1-.1.2-.4.2-.7.1-.3 0-.4-.2-.6-.3-.3-.6-.3-1-.3H1.7Zm0 0"/>  <path id="c" d="M6.6-5.4V0h-.8v-4.3L4.1 0h-.8L1.6-4.3V0H.8v-5.4H2L3.7-1l1.7-4.4Zm0 0"/>  <path id="b" d="M2.9-5.5c.6 0 1.1.2 1.4.5.3.3.5.7.5 1.3V0h-.6L4-.8c-.3.3-.5.6-.8.8h-1c-.5 0-1 0-1.3-.3C.6-.5.5-.9.5-1.5c0-.5.2-1 .5-1.2.5-.3 1-.5 2-.5h.8v-.3c.2-.5.2-.8-.2-1l-.8-.2H2l-.7.5L1-5l1-.3.9-.2Zm1 2.9h-.8c-.6 0-1 .1-1.4.3-.1.3-.3.5-.3.8 0 .3 0 .5.2.7l.7.2c.5 0 .9-.1 1.2-.4.3-.2.4-.6.4-1Zm.1 0"/>  <path id="a" d="M6.2 0H5L1.9-3.6V0h-1v-7.1H2v3.4L5-7h1L3-3.7Zm0 0"/>  <path d="M1 0v-7.1h4V0Zm.4-.5h3.1v-6.1h-3Zm.1 0"/> </defs> <image xlink:href="svg/9/10_11.jpg" width="497" height="279"/> <path d="M315.4 207.6h-1.1L311 204v3.6h-1v-7.1h1.2v3.4l3-3.4h1l-3 3.4Zm2.9-5.4c.6 0 1 .1 1.4.4.3.3.5.7.5 1.4v3.6h-.7l-.1-.6-.9.5-.9.2c-.6 0-1.1-.1-1.4-.4-.2-.2-.4-.6-.4-1.2 0-.5.2-1 .7-1.1.4-.4 1-.6 2-.6h.7v-.4c.1-.4.1-.7-.2-1h-1.6l-.7.3-.3-.7.9-.3 1-.1Zm1 2.8h-.8c-.5 0-1.1.2-1.4.4-.1.1-.3.4-.3.6 0 .4 0 .7.2.8l.7.2c.5 0 .9 0 1.3-.4.2-.2.3-.6.3-1.1Zm8.3-2.7v5.3h-.8v-4.3l-1.7 4.3h-.8l-1.7-4.3v4.3h-.8v-5.3h1.2l1.7 4.3 1.7-4.3Zm1.7 5.3v-5.3h.9v2.2h1.4c.7 0 1.2 0 1.4.3.4.3.6.7.6 1.2s-.2.9-.5 1.2c-.3.3-.8.4-1.6.4Zm5.2 0v-5.3h.9v5.3Zm-4.3-.6h1.2c.4 0 .7 0 1-.3.2-.1.3-.3.3-.7 0-.3 0-.5-.3-.6-.2-.2-.5-.2-1-.2h-1.1Zm14.2-4.7v5.3H337v-5.3h1v4.6h2.3v-4.6h.7v4.6h2.5v-4.6Zm2.5 0v4.4l2.7-4.4h1.1v5.3h-.7v-4.5l-2.9 4.5h-1v-5.3Zm6.5 0v2.2h2.9v-2.2h.9v5.3h-1v-2.4h-2.7v2.4h-1.1v-5.3Zm0 0" style="fill:none;stroke-width:3;stroke-linecap:butt;stroke-linejoin:round;stroke:#fff;stroke-opacity:.6;stroke-miterlimit:10" transform=" rotate(  340 333.508 204.619) "/> <g style="fill:#222;fill-opacity:1" transform=" rotate(  340 333.508 204.619) ">  <use xlink:href="#a" x="309.2" y="207.6"/>  <use xlink:href="#b" x="315.4" y="207.6"/>  <use xlink:href="#c" x="321" y="207.6"/>  <use xlink:href="#d" x="328.4" y="207.6"/>  <use xlink:href="#e" x="336.2" y="207.6"/>  <use xlink:href="#f" x="345.2" y="207.6"/>  <use xlink:href="#g" x="351.6" y="207.6"/> </g></svg>