<svg xmlns="http://www.w3.org/2000/svg" xmlns:xlink="http://www.w3.org/1999/xlink" viewBox="0 0 497 279"> <defs overflow="visible" style="stroke:none">  <path id="f" d="M5.2-4c0 .3-.2.6-.3.8l-.9.4 1 .3c.2.2.3.5.3 1 0 .3-.1.7-.5.9-.3.6-.8.6-1.6.6H.8v-5.4h2.4c.3 0 .7 0 1 .2.3 0 .5.2.7.4.1.2.3.5.3.8Zm-1 0c.1-.1.1-.2-.2-.4l-1-.2H1.8v1.4H3c1 0 1.3-.2 1.3-.7Zm.3 2.5c-.1-.4-.2-.5-.4-.7-.3-.2-.6-.2-1.1-.2H1.6v1.7h1.5c.4 0 .7 0 .9-.2.3-.1.4-.3.4-.7Zm-.1-.1"/>  <path id="e" d="M5.5-2.7c0 .9-.2 1.7-.7 2-.4.7-1 .9-1.8.9-.5-.2-.9-.2-1.3-.4-.3-.2-.6-.6-.7-1C.6-1.6.5-2 .5-2.7c0-.9.3-1.6.7-2 .5-.5 1-.8 1.8-.8.5 0 1 .2 1.3.5.4 0 .7.4.9.9.2.2.3.7.3 1.3Zm-4 0c0 .7 0 1.2.3 1.5.3.4.7.6 1.2.6.6 0 1-.2 1.2-.6.3-.3.4-.8.4-1.5s-.1-1.1-.4-1.5c-.2-.3-.6-.5-1.2-.5-.5 0-1 .2-1.2.5-.2.4-.3.9-.3 1.5Zm0 0"/>  <path id="d" d="M4-5.4h1L2.7-2.8 5.2 0h-1L1.7-2.7V0H.8v-5.4h1v2.6Zm0 0"/>  <path id="c" d="M5 0H4v-4.6H2.5L2-2 1.5-.4c-.3.3-.6.4-1 .4H0v-.7h.4c.3.1.6-.3.8-.9.2-1 .4-2.2.5-3.9h3.2Zm0 0"/>  <path id="b" d="M2.9-5.5c.6 0 1.1.2 1.4.5.3.3.5.7.5 1.3V0h-.6L4-.8c-.3.3-.5.6-.8.8h-1c-.5 0-1 0-1.3-.3C.6-.5.5-.9.5-1.5c0-.5.2-1 .5-1.2.5-.3 1-.5 2-.5h.8v-.3c.2-.5.2-.8-.2-1l-.8-.2H2l-.7.5L1-5l1-.3.9-.2Zm1 2.9h-.8c-.6 0-1 .1-1.4.3-.1.3-.3.5-.3.8 0 .3 0 .5.2.7l.7.2c.5 0 .9-.1 1.2-.4.3-.2.4-.6.4-1Zm.1 0"/>  <path id="a" d="M1 0v-7.1h4.2v.8H1.9v2.2h1c.7 0 1.3 0 1.7.1.4.3.7.6.8 1 .2.2.2.5.2.9 0 .7-.2 1.2-.6 1.6-.4.3-1 .5-2 .5Zm.9-.8h1c.8 0 1.3 0 1.5-.2.2-.3.3-.6.3-1s-.1-.9-.4-1l-1.5-.3h-1Zm0 0"/>  <path d="M1 0v-7.1h4V0Zm.4-.5h3.1v-6.1h-3Zm.1 0"/> </defs> <image xlink:href="svg/9/11_13.jpg" width="497" height="279"/> <path d="M293.5 154.1V147h4.2v.8h-3.3v2.2h1c.9 0 1.4 0 1.8.2.3.2.6.5.8.8.1.3.2.6.2 1 0 .7-.2 1.2-.6 1.6-.4.3-1 .4-2 .4Zm.9-.8h1.1c.6 0 1 0 1.3-.3.3-.2.4-.5.4-1 0-.4-.1-.8-.4-1l-1.5-.2h-.9Zm7.2-4.6c.6 0 1.1.1 1.4.3.3.4.5.8.5 1.4v3.7h-.7l-.1-.8-.9.7-.9.2c-.7 0-1.1-.1-1.4-.4-.2-.2-.4-.6-.4-1.2 0-.5.2-1 .7-1.2.4-.4 1-.5 2-.5h.7v-.3c.1-.6.1-.8-.2-1l-.8-.2-.8.1-.7.3-.3-.8.9-.2 1-.1Zm1 2.8h-.8c-.6 0-1.1.2-1.4.3-.2.2-.3.5-.3.8-.1.4-.1.5.2.7l.7.2c.5 0 1-.1 1.2-.4.3-.1.4-.6.4-1.1Zm6.6 2.6h-.9v-4.6h-1.6c0 1.1-.2 2-.3 2.7l-.6 1.5c-.3.3-.6.5-1 .5h-.4v-.9h.3c.3.2.6-.1.8-.8.2-1 .4-2.2.5-3.9h3.2Zm3.8-5.4c.5 0 1 .1 1.3.3.4.4.6.8.6 1.4v3.7h-.7l-.1-.8-.9.7-.9.2c-.7 0-1.1-.1-1.3-.4-.3-.2-.5-.6-.5-1.2 0-.5.2-1 .6-1.2.5-.4 1.1-.5 2-.5h.9v-.3c0-.6-.1-.8-.3-1l-.7-.2-1 .1c-.2 0-.4.2-.6.3l-.4-.8 1-.2 1-.1Zm1 2.8h-.8c-.7 0-1.1.2-1.4.3-.2.2-.4.5-.4.8 0 .4.1.5.3.7l.7.2c.6 0 .8-.1 1.2-.4.3-.1.4-.6.4-1.1Zm5.7-2.8h1l-2.3 2.6 2.5 2.8h-1l-2.6-2.7v2.6h-.8v-5.3h1v2.6Zm6.6 2.7c0 .9-.3 1.6-.7 2-.5.6-1 .9-1.8.9-.5-.1-1-.2-1.3-.4-.4-.2-.7-.5-.9-1-.2-.4-.3-.9-.3-1.5 0-.9.2-1.4.7-2 .4-.5 1-.7 1.8-.7.5 0 1 0 1.3.3.4.2.6.5.9 1 .2.2.3.7.3 1.3Zm-4 0c-.1.7-.1 1.2.2 1.6.3.3.7.5 1.3.5.5 0 1-.2 1.2-.6.2-.3.4-.8.4-1.5 0-.6-.2-1.1-.4-1.4-.3-.4-.7-.6-1.2-.6-.6 0-1 .2-1.2.5-.3.4-.4.9-.4 1.5ZM332 150c0 .5-.1.8-.3 1l-.8.3c.3 0 .6.2.9.4.2.1.2.3.2.8.1.5 0 .9-.4 1.2-.3.3-.9.3-1.6.3h-2.3v-5.3h2.3c.3 0 .7 0 1 .3.3-.1.5 0 .7.3.3.2.3.5.3.7Zm-1 .3c0-.4 0-.5-.1-.6-.3-.2-.6-.2-1-.2h-1.3v1.4h1.2c.8.1 1.2-.2 1.2-.7Zm.3 2.2c-.1-.3-.1-.5-.3-.5-.4-.3-.7-.3-1.1-.3h-1.3v1.7h1.3c.4 0 .7 0 1-.2.1-.1.3-.2.3-.7Zm6.7-1.1c0 .9 0 1.6-.5 2-.5.6-1.1.9-1.9.9-.6-.1-1-.2-1.3-.4-.3-.2-.6-.5-.9-1-.2-.4-.3-.9-.3-1.5 0-.9.2-1.4.7-2 .4-.5 1-.7 1.8-.7.5 0 1 0 1.4.3.3.2.6.5.8 1 .2.2.2.7.2 1.3Zm-4 0c0 .7.2 1.2.4 1.6.3.3.7.5 1.2.5s1-.2 1.2-.6c.2-.3.4-.8.4-1.5 0-.6-.2-1.1-.4-1.4-.3-.4-.7-.6-1.2-.6s-1 .2-1.2.5c-.2.4-.4.9-.4 1.5Zm0 0" style="fill:none;stroke-width:3;stroke-linecap:butt;stroke-linejoin:round;stroke:#fff;stroke-opacity:.6;stroke-miterlimit:10" transform=" rotate(  340 315.628 151.104) "/> <g style="fill:#222;fill-opacity:1" transform=" rotate(  340 315.628 151.104) ">  <use xlink:href="#a" x="292.5" y="154.1"/>  <use xlink:href="#b" x="298.7" y="154.1"/>  <use xlink:href="#c" x="304.3" y="154.1"/>  <use xlink:href="#b" x="310.1" y="154.1"/>  <use xlink:href="#d" x="315.7" y="154.1"/>  <use xlink:href="#e" x="320.8" y="154.1"/>  <use xlink:href="#f" x="326.8" y="154.1"/>  <use xlink:href="#e" x="332.6" y="154.1"/> </g></svg>