<svg xmlns="http://www.w3.org/2000/svg" xmlns:xlink="http://www.w3.org/1999/xlink" viewBox="0 0 497 279"> <defs overflow="visible" style="stroke:none">  <path id="i" d="M5 0H4v-4.6H2.5L2-2 1.5-.4c-.3.3-.6.4-1 .4H0v-.7h.4c.3.1.6-.3.8-.9.2-1 .4-2.2.5-3.9h3.2Zm0 0"/>  <path id="h" d="M7.2-3.6c0 .8-.1 1.4-.4 2-.2.5-.6 1-1 1.2-.7.4-1.3.5-2 .5S2.6-.1 2.1-.4A2.7 2.7 0 0 1 1-1.6a4.9 4.9 0 0 1-.4-2c0-.7.1-1.4.4-1.9.2-.6.6-1 1-1.3.7-.2 1.3-.5 2-.5.5 0 1.1.3 1.6.5s1 .7 1.2 1.3c.3.5.4 1.2.4 2Zm-5.6 0c0 1 .1 1.6.4 2.1.5.6 1.1.8 2 .8s1.3-.2 1.7-.8c.3-.5.5-1.2.5-2 .1-1.1 0-1.8-.4-2.3-.5-.4-1.1-.7-1.9-.7s-1.4.3-1.8.8c-.4.5-.5 1.2-.5 2.1Zm0 0"/>  <path id="g" d="M.4-2.3v-.8h2.4v.8Zm0 0"/>  <path id="f" d="M3.4-5.5c.7 0 1.2.3 1.6.7.4.5.6 1.2.6 2.1 0 1-.2 1.7-.6 2-.4.7-1 .9-1.6.9-.4-.2-.8-.2-1-.3l-.7-.6v3.1H.8v-7.8h.8v.8h.2c.2-.4.3-.5.6-.6.2-.2.6-.3 1-.3Zm-.2.8c-.5 0-.9.1-1.1.5-.2.2-.4.7-.4 1.2v.3c0 .7.1 1.2.3 1.5.3.4.7.6 1.3.6.3 0 .6-.1.7-.4l.5-.6.2-1.1c0-.6-.1-1.1-.4-1.5-.2-.3-.6-.5-1-.5Zm0 0"/>  <path id="e" d="M2.9-5.5c.6 0 1.1.2 1.4.5.3.3.5.7.5 1.3V0h-.6L4-.8c-.3.3-.5.6-.8.8h-1c-.5 0-1 0-1.3-.3C.6-.5.5-.9.5-1.5c0-.5.2-1 .5-1.2.5-.3 1-.5 2-.5h.8v-.3c.2-.5.2-.8-.2-1l-.8-.2H2l-.7.5L1-5l1-.3.9-.2Zm1 2.9h-.8c-.6 0-1 .1-1.4.3-.1.3-.3.5-.3.8 0 .3 0 .5.2.7l.7.2c.5 0 .9-.1 1.2-.4.3-.2.4-.6.4-1Zm.1 0"/>  <path id="d" d="M4-5.4h1L2.7-2.8 5.2 0h-1L1.7-2.7V0H.8v-5.4h1v2.6Zm0 0"/>  <path id="c" d="M8.1-5.4V0H.8v-5.4h1v4.7H4v-4.7h1v4.7h2.1v-4.7Zm0 0"/>  <path id="b" d="M5.5-2.7c0 .9-.2 1.7-.7 2-.4.7-1 .9-1.8.9-.5-.2-.9-.2-1.3-.4-.3-.2-.6-.6-.7-1C.6-1.6.5-2 .5-2.7c0-.9.3-1.6.7-2 .5-.5 1-.8 1.8-.8.5 0 1 .2 1.3.5.4 0 .7.4.9.9.2.2.3.7.3 1.3Zm-4 0c0 .7 0 1.2.3 1.5.3.4.7.6 1.2.6.6 0 1-.2 1.2-.6.3-.3.4-.8.4-1.5s-.1-1.1-.4-1.5c-.2-.3-.6-.5-1.2-.5-.5 0-1 .2-1.2.5-.2.4-.3.9-.3 1.5Zm0 0"/>  <path id="a" d="M5.8-9.4c0 .5-.2 1-.5 1.2-.3.2-.7.4-1.3.4-.7 0-1.2-.2-1.4-.4-.3-.3-.6-.6-.6-1.2h1c0 .4.1.7.2.8l.8.1.7-.1c.2-.2.3-.4.3-.8ZM1-7h.8v4.5a21.3 21.3 0 0 1 0 1.3l4-6h.9V0h-1v-3.9A19 19 0 0 1 6-5.4V-6L2 0H1Zm0-.1"/>  <path d="M1 0v-7.1h4V0Zm.4-.5h3.1v-6.1h-3Zm.1 0"/> </defs> <image xlink:href="svg/9/11_19.jpg" width="497" height="279"/> <path d="M315.4 241.5c0 .5-.2.8-.4 1.1-.4.3-.8.4-1.5.4-.5 0-1-.1-1.4-.4-.1-.2-.4-.6-.4-1.1h.8c0 .3.1.5.3.7l.8.2.7-.2c.1-.2.3-.4.3-.7zm-4.8 2.2h.8v4.7a21.8 21.8 0 0 1 0 1.2l3.9-6h1v7.3h-.8V247a19.3 19.3 0 0 1 0-1.6v-.5l-4 6h-.9zm12.2 4.4c0 1-.3 1.6-.8 2.1-.4.5-1 .7-1.7.7-.5.1-1 .1-1.3-.3-.4-.2-.7-.5-.9-1-.1-.4-.3-.9-.3-1.5 0-.8.2-1.5.7-2 .4-.5 1-.7 1.8-.7.5 0 1 0 1.3.3.3.2.6.5.8 1 .3.3.4.7.4 1.3zm-4 0c-.1.7-.1 1.2.2 1.5.3.4.7.6 1.3.6.5 0 1-.2 1.2-.6.2-.3.4-.8.4-1.5 0-.6-.2-1.1-.4-1.5-.3-.3-.7-.5-1.2-.5-.6 0-1 .2-1.3.5-.2.4-.3.9-.3 1.5zm12.6-2.6v5.3h-7.2v-5.3h.8v4.5h2.4v-4.5h.8v4.5h2.3v-4.5zm4.9 0h1L335 248l2.5 2.8h-1l-2.5-2.7v2.7h-.9v-5.3h1v2.5zm4.2-.1c.5 0 1.1.1 1.4.4.3.3.5.7.5 1.4v3.6h-.7l-.1-.7-.9.6-.9.3c-.7 0-1.1-.2-1.4-.5-.2-.2-.4-.5-.4-1.2 0-.5.2-1 .7-1.2.3-.3 1-.5 2-.5h.7v-.3c.1-.5.1-.8-.2-1l-.8-.1h-.8l-.6.3-.4-.7.9-.3 1-.1zm1 2.8h-.8c-.6 0-1.1.2-1.4.4-.2.1-.3.4-.3.7 0 .3 0 .7.2.7l.8.2c.4 0 .8-.1 1.1-.4.3-.2.4-.6.4-1.1zm5.1-2.8c.7 0 1.2.2 1.6.6.4.5.6 1.2.6 2 0 1.1-.2 1.7-.6 2.2-.4.5-1 .8-1.6.8-.4 0-.8 0-1-.3l-.7-.7v3.2h-.9v-7.7h.8v.7h.2l.6-.6c.2-.2.6-.2 1-.2zm-.2.6c-.4.1-.9.3-1.1.6-.3.3-.4.7-.4 1.4.1.8.1 1.3.3 1.7.3.3.8.5 1.3.5.3 0 .5 0 .8-.3l.4-.7.3-1c-.1-.8-.2-1.2-.5-1.7-.2-.2-.5-.4-1-.4zm3.4 2.5v-.7h2.3v.7zm-21.1 11.2c0 .7-.1 1.3-.3 2-.4.4-.7.8-1.2 1.1-.4.4-1 .6-1.8.6-.7 0-1.3-.2-1.8-.5a2.7 2.7 0 0 1-1.1-1.3 4.9 4.9 0 0 1-.5-2c.1-.6.2-1.2.5-1.7.2-.7.5-1.1 1-1.4.7-.3 1.3-.5 2.1-.5.5 0 1.1.2 1.5.5.6.3 1 .7 1.3 1.2.2.6.3 1.3.3 2zm-5.6 0c-.1.9.2 1.6.5 2.1.4.5 1 .8 1.8.8s1.4-.3 1.8-.8c.4-.5.6-1.2.6-2.1 0-1-.2-1.7-.6-2.1-.4-.6-1-.8-1.8-.8s-1.4.3-1.8.8c-.3.4-.5 1.2-.5 2zm11.1 3.6h-1v-4.7h-1.4l-.5 2.8c-.1.6-.3 1.1-.6 1.5-.2.3-.6.4-1 .4h-.3v-.7h.2c.3 0 .6-.3.8-1.1.3-.8.4-2 .6-3.6h3.2zm3.7-5.5c.6 0 1.1.2 1.4.4.4.3.5.8.5 1.4v3.7h-.6l-.2-.8-.8.7-1 .2c-.5 0-1-.2-1.3-.4-.3-.3-.4-.7-.4-1.2 0-.6.2-1 .5-1.3.5-.2 1-.4 2-.4h.8v-.5c.2-.3.2-.6-.1-.9l-.9-.1c-.2-.1-.5-.1-.8.1l-.7.2-.2-.6.8-.4h1zm1 2.8h-.7c-.7.2-1.2.3-1.4.4-.3.2-.4.4-.4.8 0 .2 0 .5.3.6.1.2.3.3.7.3.4 0 .8-.2 1.1-.4.3-.3.4-.7.4-1.3zm.1 0" style="fill:none;stroke:#fff;stroke-width:3;stroke-linecap:butt;stroke-linejoin:round;stroke-miterlimit:10;stroke-opacity:.6" transform="rotate(  340 337.729 234.815) translate(5.0156642,-19.226713)"/> <g style="fill:#212121;fill-opacity:1" transform=" rotate(  340 337.729 234.815) ">  <use xlink:href="#a" x="314.6" y="231.6"/>  <use xlink:href="#b" x="322.3" y="231.6"/>  <use xlink:href="#c" x="328.3" y="231.6"/>  <use xlink:href="#d" x="337.3" y="231.6"/>  <use xlink:href="#e" x="342.6" y="231.6"/>  <use xlink:href="#f" x="348.2" y="231.6"/>  <use xlink:href="#g" x="354.4" y="231.6"/>  <use xlink:href="#h" x="326.5" y="244"/>  <use xlink:href="#i" x="334.2" y="244"/>  <use xlink:href="#e" x="340" y="244"/> </g></svg>