<svg xmlns="http://www.w3.org/2000/svg" xmlns:xlink="http://www.w3.org/1999/xlink" viewBox="0 0 497 279"> <defs overflow="visible" style="stroke:none">  <path id="e" d="M0-5.4h1l1 3 .4 1 .2.6.2-.7c0-.3.2-.5.2-.8l1-3h1.2L2.8.6c-.2.6-.4 1.1-.7 1.4-.3.3-.7.4-1.3.4H.1v-.9h.6c.3.2.6.2.7 0L2 .7l.2-.7Zm0 0"/>  <path id="d" d="M2.9-5.5c.6 0 1.1.2 1.4.5.3.3.5.7.5 1.3V0h-.6L4-.8c-.3.3-.5.6-.8.8h-1c-.5 0-1 0-1.3-.3C.6-.5.5-.9.5-1.5c0-.5.2-1 .5-1.2.5-.3 1-.5 2-.5h.8v-.3c.2-.5.2-.8-.2-1l-.8-.2H2l-.7.5L1-5l1-.3.9-.2Zm1 2.9h-.8c-.6 0-1 .1-1.4.3-.1.3-.3.5-.3.8 0 .3 0 .5.2.7l.7.2c.5 0 .9-.1 1.2-.4.3-.2.4-.6.4-1Zm.1 0"/>  <path id="c" d="M4.5-4.6H2.8V0h-.9v-4.6H.2v-.8h4.3Zm0 0"/>  <path id="b" d="M4-5.4h1L2.7-2.8 5.2 0h-1L1.7-2.7V0H.8v-5.4h1v2.6Zm0 0"/>  <path id="a" d="m5.5 0-1-2.2H1.9L.9 0H0l2.8-7.2h.8L6.4 0ZM4.3-3l-.8-2.2v-.3l-.3-.4v-.3l-.2.6a8 8 0 0 1 0 .4L2-3Zm0 0"/>  <path d="M1 0v-7.1h4V0Zm.4-.5h3.1v-6.1h-3Zm.1 0"/> </defs> <image xlink:href="svg/9/12_4.jpg" width="497" height="279"/> <path d="m472.8 123.7-.8-2.2h-2.8l-.9 2.2h-1l3-7.2h.7l2.8 7.2zm-1.1-3-.8-2.2-.1-.3-.1-.4-.1-.3-.2.5a8 8 0 0 1-.1.5l-.8 2.2zm6.1-2.4h1l-2.3 2.7 2.5 2.7h-1l-2.6-2.7v2.7h-.8v-5.4h1v2.7zm5.8.7H482v4.8h-1v-4.7h-1.7v-.8h4.3zm3.1-.7c.7 0 1.1 0 1.5.4.3.3.4.7.4 1.3v3.7h-.6l-.2-.8c-.3.3-.5.6-.8.7l-1 .2c-.5 0-1-.1-1.2-.4-.4-.2-.5-.6-.5-1.2 0-.5.2-1 .6-1.2.4-.3 1.1-.5 2.1-.5h.8v-.3c0-.5-.1-.8-.3-1l-.8-.2h-.8l-.9.5v-.8l.7-.3 1-.1zm1 2.7h-.7c-.7.1-1.2.2-1.4.4-.3.2-.4.6-.4.8 0 .3 0 .5.3.8h.7c.4 0 .8 0 1.1-.3.3-.2.5-.6.5-1.1zm1.8-2.7h.9l1.2 3 .2 1 .2.6.2-.7.3-.8 1.1-3h1l-2.5 5.9c0 .7-.3 1.1-.6 1.4-.3.3-.7.3-1.2.3h-.7v-.8h.4c.4.2.7.2 1 0l.3-.8.3-.7zm0 0" style="fill:none;stroke:#fff;stroke-width:3;stroke-linecap:butt;stroke-linejoin:round;stroke-miterlimit:10;stroke-opacity:.6" transform="rotate(  340 456.192 73.4133) translate(-25.417373,-47.288136)"/> <g style="fill:#212121;fill-opacity:1" transform=" rotate(  340 456.192 73.4133) ">  <use xlink:href="#a" x="442" y="76.4"/>  <use xlink:href="#b" x="448.4" y="76.4"/>  <use xlink:href="#c" x="453.7" y="76.4"/>  <use xlink:href="#d" x="458.4" y="76.4"/>  <use xlink:href="#e" x="464" y="76.4"/> </g></svg>