<svg xmlns="http://www.w3.org/2000/svg" xmlns:xlink="http://www.w3.org/1999/xlink" viewBox="0 0 497 279"> <defs overflow="visible" style="stroke:none">  <path id="x" d="M0 0h-.4v-.8l.3.1C0-.7.3-.7.4-.9l.6-.7.3-1.2.5-1.1.4-.9.8-.5h1a4.5 4.5 0 0 1 1 .1L4 0h-.9l1-4.6h-1l-.5.8-.5 1.3L1.5-1c-.1.3-.3.6-.5.8C.7 0 .4 0 0 0Zm0 0"/>  <path id="w" d="M2.4 0c-.6 0-1 0-1.4-.4C.6-.9.5-1.5.5-2.2a7.4 7.4 0 0 1 .3-2.2l.5-1.2.7-1L3-7l.6-.3A34 34 0 0 1 5-7.5h.7l.1.5h-.7L4-6.5c0-.1-.3-.1-.5.1-.5.1-.9.4-1.1.8-.4.4-.7.9-.9 1.5a3 3 0 0 1 1-.6c.2-.2.5-.3.9-.3.6 0 1 .2 1.2.5.2.3.4.8.4 1.3L4.8-2c-.1.4-.2.8-.5 1-.2.5-.3.7-.7.9-.4.1-.7.2-1.2.2Zm0-.5c.5-.1.6-.2.9-.5a2 2 0 0 0 .4-.5l.3-.8v-.8c0-.4 0-.7-.2-.9-.1-.2-.3-.3-.6-.3l-.7.3-.6.4a4 4 0 0 0-.4.4v.6l-.2.5c.1.4.1.8.3 1 .2.4.5.6.9.6Zm.1-.1"/>  <path id="v" d="M3.6-6c-.6 0-1-.3-1.2-.5-.4-.1-.4-.4-.4-.8a1 1 0 0 1 0-.3h.9v.3c-.1.2-.1.3.1.3 0 .3.3.3.7.3.3 0 .5 0 .7-.2.2-.1.4-.3.4-.7h.9c-.1.6-.3.8-.7 1.1-.3.3-.8.5-1.4.5ZM1.9 0c-.4 0-.7 0-1-.1C.7-.5.5-.8.5-1.2v-.5L.8-2l.6-3.4h.9L1.4-2v1.2l.8.2c.2 0 .4-.1.8-.4l.6-.6.5-1.4.5-2.4h.9L4.4 0h-.8l.1-1-.5.5-.4.5-.9.1Zm0 0"/>  <path id="u" d="M2.4 0c-.6 0-1 0-1.4-.3C.6-.8.5-1.3.5-2c0-.3 0-.8.2-1.2 0-.4.3-.8.5-1.1.2-.4.5-.7.8-.8a2 2 0 0 1 1.2-.4c.5 0 .8.2 1.1.5.3 0 .4.4.4.8 0 .3-.1.7-.3 1-.4.2-.6.4-1 .6-.6.2-1.2.3-1.9.3h-.1v.3c0 .5 0 .8.3 1 .2.3.5.4.9.4l.7-.1A5 5 0 0 0 4-1v.7a6 6 0 0 1-.7.3h-.9Zm-.9-3 1.3-.1.7-.4c.2-.1.3-.4.3-.5l-.1-.6-.7-.1c-.2 0-.5.1-.9.4L1.6-3Zm0 0"/>  <path id="t" d="M.4 0 2-7.1h1.2l.7 5.8 3.2-5.8h1.3L7 0H6l1-4.2a47.9 47.9 0 0 1 .4-2L4 0h-.7l-.8-6.3-.1.6-.1.7-.1.7-1 4.3Zm0 0"/>  <path id="s" d="M2.6 0C1.9 0 1.3 0 1-.4.6-.9.5-1.5.5-2.1c0-.6 0-1.2.3-1.7.2-.5.6-1 1-1.2.4-.3 1-.5 1.5-.5.7 0 1 .2 1.4.5.3 0 .3.5.3.9s0 .7-.3 1.1l-1 .2c.5.1.7.3.9.5.1.2.2.3.2.8l-.2.7c-.2.3-.4.5-.7.6-.3.2-.9.3-1.3.3ZM1.5-3h1l1-.1.5-.3c.2-.2.2-.4.2-.6 0-.2 0-.4-.2-.5l-.7-.2c-.3 0-.8.1-1.2.4-.3.3-.5.7-.6 1.3ZM2.7-.6c.3 0 .7-.1 1-.4l.1-.6C4-1.8 4-2 3.6-2l-1-.3H1.4v.2c0 .5 0 .9.3 1.1.3.3.6.4 1 .4Zm0 0"/>  <path id="r" d="M2.5 0C1.9 0 1.4 0 1-.4.7-.8.5-1.3.5-2l.1-1.2a4 4 0 0 1 .5-1.1c.3-.3.5-.7.9-.8.3-.2.7-.3 1.2-.3.6 0 1 .2 1.4.4.4.5.6 1.1.6 1.6L5-2a4 4 0 0 1-.5.9c-.2.5-.5.8-.8 1L2.5 0Zm0-.6c.5-.1.6-.1 1-.4.1-.2.3-.5.5-1 .2-.3.3-.8.3-1.4L4.2-4a1 1 0 0 0-.4-.5l-.6-.2c-.4 0-.7.1-1 .4-.2.2-.5.6-.6 1A4 4 0 0 0 1.4-2c0 .5 0 .8.3 1 .2.2.5.3.8.3Zm0-.1"/>  <path id="q" d="m-.2 2.4 1.6-7.8h.7v1l.7-.6c.3-.3.7-.5 1-.5.5 0 .8.2 1 .5.5.3.6.8.6 1.4-.1.5-.1 1-.3 1.4L4.6-1l-.8.8a2 2 0 0 1-1.1.3C2.3 0 2 0 1.8-.2a2 2 0 0 1-.5-.6v.4L1 .1.7 2.4Zm2.8-3c.4 0 .5-.1.7-.4.3 0 .5-.3.7-.6a4 4 0 0 0 .3-1 5 5 0 0 0 .1-.9c0-.9-.3-1.2-.9-1.2-.2 0-.4 0-.5.2l-.8.7-.4 1c-.2.3-.2.7-.2 1.1 0 .3 0 .6.2.8.2.2.5.3.8.3Zm0 0"/>  <path id="p" d="m.3 0 1.1-5.4h.7v1l.4-.5.6-.4.7-.2c.4 0 .7.2.9.5.2 0 .3.4.3.7l.5-.5.6-.5.9-.2c.3 0 .6.2.9.5.1 0 .2.4.2.9v.4l-.1.4L7.4 0h-.9l.7-3.4v-.4l.2-.2c-.1-.3-.1-.4-.3-.5 0-.2-.1-.2-.5-.2-.2 0-.4 0-.6.2l-.7.8c-.3.3-.4.7-.5 1.3L4.3 0h-1l.9-3.4v-1.1c-.4-.2-.5-.2-.8-.2-.1 0-.3 0-.6.2l-.6.8c-.3.3-.4.7-.5 1.4L1.2 0Zm0 0"/>  <path id="o" d="M2.5 0C1.9 0 1.4 0 1-.3.7-.7.5-1.2.5-2c0-.4 0-1 .2-1.3l.5-1c.3-.5.6-.7 1-1 .2-.1.6-.2.9-.2l.9.1.6.2-.2.7-.5-.1-.6-.1c-.4 0-.7.1-1 .4-.3.2-.5.6-.7 1A4 4 0 0 0 1.4-2c0 .5 0 .8.3 1 .2.2.5.3.9.3h.6a7 7 0 0 0 .6-.3v.8l-.6.2h-.7Zm0 0"/>  <path id="n" d="M3.4 0c-.9 0-1.5 0-2-.5S.7-1.8.7-2.6.8-4 1-4.5c0-.5.4-.9.7-1.5l1.1-.9a3 3 0 0 1 1.5-.3c.8-.1 1.5.2 2 .7.3.5.5 1.2.5 2 .2.8.2 1.4-.1 1.9L6-1.2l-1.1.9c-.4.3-1 .3-1.5.3Zm0-.6a2 2 0 0 0 1-.4c.5-.2.6-.5 1-.8L5.8-3 6-4.5c0-.5-.2-1-.5-1.4-.3-.4-.7-.6-1.2-.6a2 2 0 0 0-1.1.3l-.8.8-.6 1.2a6 6 0 0 0-.1 1.5c0 .7.1 1.1.3 1.5.4.2 1 .5 1.4.5Zm0-.1"/>  <path d="M1 0v-7.1h4V0Zm.4-.5h3.1v-6.1h-3Zm.1 0"/>  <path id="m" d="M2.3.1c-.5 0-1-.1-1.2-.5-.4-.4-.5-1-.5-1.7 0-.6 0-1.1.2-1.7l.7-1.4 1-1c.3-.2.8-.3 1.2-.3.5 0 .8 0 1 .3l.8.8.3-1h.8L5.2 0h-.8l.1-1.2-1 1a2 2 0 0 1-1.2.2Zm.4-.8c.3-.1.5-.3.8-.4.3-.2.6-.5.8-.9l.5-1.2.2-.6v-.6c0-.3-.1-.6-.3-.9-.2-.2-.5-.4-.9-.4-.3 0-.6.1-.8.3l-.7.8-.5 1.2L1.7-2c0 .4 0 .7.2 1 .2 0 .4.2.8.2Zm0-.1"/>  <path id="l" d="M5.8 0C5 0 4.4 0 4-.5c-.3-.5-.5-1.1-.5-1.9v-.5H2L1.4 0h-1l1.2-6.4h1.1l-.4 2.7h1.3c.4-1.1.7-1.8 1.2-2.1.5-.5 1-.7 1.7-.7.8 0 1.5.2 1.8.7.3.4.5 1 .5 1.8 0 .5 0 1-.2 1.5 0 .5-.3 1-.5 1.3A3 3 0 0 1 7-.2c-.3.2-.7.2-1.2.2Zm0-.7c.4-.1.7-.2 1-.5.3-.3.5-.7.7-1.2.2-.5.3-1 .3-1.8 0-.4-.1-.8-.4-1-.2-.3-.4-.4-.9-.4-.3 0-.5 0-.8.3l-.7.7a4 4 0 0 0-.3 1.1l-.2 1.2c0 .3.1.8.3 1.1.3.3.6.4 1 .4Zm0-.1"/>  <path id="k" d="m.5 0 1.8-8.6h4.3l-.2 1H3.2L2.6-5h.9C4-5 4.7-5 5-4.7c.4.2.7.5.8.8.2.3.3.7.3 1-.1.8-.2 1.4-.5 1.8-.3.3-.6.6-1.2.8-.4.2-1 .3-1.7.3Zm1.3-1h1C4.3-1 5-1.4 5-2.6c0-.6-.2-.9-.4-1.1C4.3-4 3.9-4 3.5-4h-1Zm0 0"/>  <path id="j" d="m.3 0 1.4-6.4h1l-.6 3L5-6.3h1.4L3.2-3.2 5.4 0H4L2.1-3.2 1.4 0Zm0 0"/>  <path id="i" d="M-.3 2.9a3 3 0 0 1-.5 0l-.2-.2v-.8h.2l.4.1c.4 0 .6 0 .9-.3L1 .8l.5-.7-1-6.5h1.2L2-3.2l.1.7v1l.2.5a19 19 0 0 1 1-1.9L5-6.4h1.2L2 1c-.2.7-.6 1-1 1.4-.3.3-.7.6-1.3.6Zm0 0"/>  <path id="h" d="M2.9.1C2 .1 1.6 0 1.2-.6.8-1 .6-1.7.6-2.6a9.5 9.5 0 0 1 1-4c.2-.6.4-1.1.9-1.3.3-.3.7-.5 1.1-.6A15.9 15.9 0 0 1 5.2-9h1.5l.3.6a22.2 22.2 0 0 0-3 .7c-.4.1-.9.5-1.2 1A5.6 5.6 0 0 0 2-5l.9-.6C3.2-6 3.7-6 4-6c.7 0 1.1.2 1.5.6.3.4.4.9.4 1.6l-.1 1.4c-.2.5-.3 1-.6 1.4-.2.3-.5.6-1 .8C4 0 3.5.1 3 .1Zm0-.8c.5-.1.8-.1 1.1-.3l.4-.8.4-1v-.9c.1-.5.1-.8-.1-1-.3-.3-.5-.5-.7-.5-.4.2-.7.2-1 .3l-.7.5-.5.6-.1.6v.6c0 .6 0 1 .3 1.4 0 .2.5.4 1 .4ZM3-.8"/>  <path id="g" d="m.5 0 1.8-8.6h1l-.6 3.7h3.7l.8-3.7h1L6.4 0h-1l.7-4H2.4l-.8 4Zm0 0"/>  <path id="f" d="M3.1.1c-.9 0-1.5-.1-2-.7-.2-.4-.4-1.1-.4-2A5 5 0 0 1 1-4.5c.2-.7.6-1.1 1-1.5.6-.4 1.3-.5 2-.5s1.2 0 1.6.4C6-6 6-5.4 6-5s0 .9-.3 1.2c-.3.3-.7.4-1.2.5l.9.6c.2.1.3.4.3.9 0 .1 0 .4-.2.8s-.5.6-.8.8c-.4.2-1 .3-1.7.3ZM1.8-3.6H3l1-.1.8-.5c.2-.1.3-.3.3-.6l-.3-.6c-.1-.2-.4-.3-.8-.3-.6 0-1 .2-1.4.7-.4.2-.7.7-.8 1.4ZM3.2-.7c.5-.1.8-.3 1.1-.4.3-.2.4-.5.4-.8 0-.3-.1-.5-.4-.6-.2-.2-.6-.3-1.1-.3H1.6v.3c0 .6.2 1 .5 1.3.2.3.6.4.9.4Zm0-.1"/>  <path id="e" d="M3 0c-.8 0-1.4 0-1.8-.5C.8-1 .6-1.6.6-2.4c0-.5 0-1 .2-1.4.1-.5.2-1 .6-1.4.2-.4.6-.7 1-1 .4-.1.9-.2 1.4-.2.7-.1 1.3.1 1.7.6.5.4.7 1 .7 1.8 0 .5 0 1-.2 1.4l-.6 1.4-1 1C4 0 3.5 0 3 0Zm0-.7c.4-.1.8-.2 1-.5.5-.2.7-.6.9-1.1a5.3 5.3 0 0 0 .2-1.9 2 2 0 0 0-.1-.7l-.4-.5c-.2-.2-.6-.2-.8-.2-.4 0-.8.1-1.1.4-.4.3-.7.7-.8 1.2-.2.5-.3 1-.3 1.7 0 .5.2.8.4 1.1.3.3.6.4 1 .4Zm0-.1"/>  <path id="d" d="m-.3 2.9 2-9.3h.9l-.2 1.2a5 5 0 0 1 1.1-1 2 2 0 0 1 1.1-.3c.5 0 1 .1 1.4.5.2.4.4 1 .4 1.7 0 .5-.1 1.1-.4 1.6 0 .7-.2 1-.5 1.5l-1 1c-.4.2-.8.2-1.3.2-.4.1-.8.1-1-.2a2.3 2.3 0 0 1-.6-.8A12.4 12.4 0 0 1 1.3.1L.8 3ZM3.1-.7c.4-.1.7-.3 1-.4l.5-.8.5-1.1.2-1.4c0-.8-.4-1.3-1-1.3l-.9.3-.7.8L2-3.4V-2c0 .3 0 .7.2.9.2.1.5.4 1 .4Zm0-.1"/>  <path id="c" d="m.3 0 1.4-6.4h.9l-.2 1.2h.1l.5-.6.7-.5a2 2 0 0 1 .9-.2c.4 0 .7 0 1 .3.2.3.4.6.4 1a4 4 0 0 1 .7-.5l.7-.6a2 2 0 0 1 .9-.2c.5 0 .7 0 1.1.4.3.1.4.6.4 1.1v.6l-.1.4-.8 4H7.8l.9-4v-1.4L8-5.7l-1 .3c-.2.2-.4.5-.7 1A5 5 0 0 0 5.7-3l-.6 3h-1l.8-4 .1-.8c0-.3 0-.5-.2-.6 0-.2-.3-.3-.5-.3l-.9.3c-.3.2-.6.5-.8 1-.3.4-.6.9-.6 1.5L1.4 0Zm0 0"/>  <path id="b" d="M3 .1C2.2.1 1.7 0 1.2-.5.8-.9.6-1.5.6-2.3c0-.6 0-1 .2-1.6l.7-1.4a3 3 0 0 1 1-.9L4-6.5h.8c.2 0 .5.2.7.3l-.3.8-.5-.2H4c-.5-.1-1 0-1.3.3A3 3 0 0 0 2-4l-.3 1.7c0 .5 0 .9.3 1.1.3.3.6.4 1 .4h1a9 9 0 0 0 .6-.5v1.1L4 0 2.9.1Zm0 0"/>  <path id="a" d="M4 .1c-1 0-1.8-.3-2.3-.9C1-1.4.9-2.2.9-3.2c0-.7 0-1.4.3-2.1A5.7 5.7 0 0 1 2-7.1c.4-.5.8-.9 1.4-1.2a3.8 3.8 0 0 1 1.8-.4c1 0 1.7.3 2.3.9.5.6.8 1.4.8 2.5 0 .7-.1 1.3-.3 2a5.5 5.5 0 0 1-.8 1.9A4 4 0 0 1 5.9-.3C5.4 0 4.7 0 4 0Zm0-1c.7.1 1 .1 1.5-.2a3 3 0 0 0 .9-1.1 5 5 0 0 0 .4-1.4 6.7 6.7 0 0 0 .3-1.8C7.1-6 7-6.7 6.6-7c-.4-.5-.8-.8-1.6-.8-.4 0-.8.3-1.2.5a3 3 0 0 0-1 .9L2.2-5A6.7 6.7 0 0 0 2-3.2c0 .7.2 1.2.5 1.7.5.5 1 .7 1.6.7Zm0 .1"/>  <path d="M1.1 0v-8.6h5V0Zm.6-.6h3.8V-8H1.7Zm0 0"/> </defs> <image xlink:href="svg/9/12_69.jpg" width="497" height="279"/> <path d="M408.6 197c-1 0-1.8-.5-2.3-1-.6-.6-.8-1.4-.8-2.4 0-.6 0-1.4.3-2a5.7 5.7 0 0 1 .8-1.9c.4-.5.8-.9 1.4-1.3a3.8 3.8 0 0 1 1.8-.3c1 0 1.7.3 2.3 1 .5.4.8 1.2.8 2.3 0 .8-.1 1.5-.3 2.1a5.5 5.5 0 0 1-.8 1.9 4 4 0 0 1-1.3 1.1c-.6.3-1.2.4-1.9.4Zm0-1c.6 0 1.1-.1 1.4-.4a3 3 0 0 0 1-1 5 5 0 0 0 .4-1.4 6.7 6.7 0 0 0 .3-1.7c0-.8-.1-1.5-.5-1.8-.4-.4-.9-.6-1.5-.6-.5-.1-.9-.1-1.3.3a3 3 0 0 0-1 1l-.6 1.4a6.7 6.7 0 0 0-.2 1.8c0 .7.2 1.3.4 1.8.5.4 1.1.6 1.7.6Zm7.6 1c-.7 0-1.2-.4-1.7-.8-.5-.2-.7-.9-.7-1.7l.3-1.5c.1-.6.3-1 .6-1.5a3 3 0 0 1 1-.9l1.6-.3h.7l.8.3-.3.9-.6-.3h-.7c-.5 0-.9.1-1.2.4a3 3 0 0 0-.8 1.2c-.2.6-.3 1.2-.3 1.7s.1.9.4 1.2c.2.2.6.3 1 .3.3 0 .7 0 .8-.1a9 9 0 0 0 .9-.2v.8c-.4.2-.6.3-1 .3l-.8.2Zm2.8-.2 1.4-6.4h.8v1.2l.5-.6.7-.5a2 2 0 0 1 .9-.2c.4 0 .7 0 1 .3l.4 1a4 4 0 0 1 .6-.6l.7-.5a2 2 0 0 1 1-.2c.3 0 .7.1 1 .4.4.2.5.6.5 1.1v.6l-.1.5-.8 4.1h-1.1l.8-4.3.1-.4v-.3c0-.3 0-.5-.2-.6 0-.2-.2-.2-.6-.2-.2 0-.5 0-.8.2-.3.2-.5.6-.8 1a5 5 0 0 0-.6 1.4l-.6 3.2h-1l.7-4.3.2-.7c0-.3 0-.5-.2-.6 0-.2-.3-.2-.5-.2-.3 0-.6 0-.9.2-.3.2-.6.6-.8 1-.3.4-.5 1-.6 1.6l-.7 2.8Zm10 2.9 1.8-9.3h.9v1.2a5 5 0 0 1 1-1 2 2 0 0 1 1-.2c.6-.1 1.1.1 1.4.4.3.4.4 1 .4 1.7 0 .5 0 1.1-.2 1.7-.1.5-.3 1-.6 1.4l-1 1c-.4.2-.7.3-1.3.3-.4.1-.8.1-1-.3a2.3 2.3 0 0 1-.6-.8 12.4 12.4 0 0 1-.3 1.2l-.5 2.7Zm3.2-3.7 1-.2.7-1 .4-1 .2-1.4c0-.8-.5-1.2-1-1.2-.4 0-.7 0-1 .3-.2.1-.4.4-.5.8-.4.3-.5.7-.7 1l-.2 1.5c0 .4.1.7.3.9.2.2.5.4 1 .4ZM439.1 197c-.7 0-1.3-.4-1.7-.9-.5-.3-.7-.8-.7-1.7 0-.4 0-1 .3-1.4 0-.5.2-1 .5-1.4l1-1c.5-.1.9-.2 1.5-.2.7-.1 1.3.1 1.7.6.3.4.6 1 .6 1.8 0 .5 0 1-.2 1.4-.1.6-.3 1.1-.6 1.5l-1 .9c-.4.1-.9.2-1.4.2Zm0-1c.5 0 .9 0 1.2-.4.2-.2.5-.6.7-1.1a5.3 5.3 0 0 0 .2-1.8 2 2 0 0 0 0-.7l-.6-.6c-.1-.2-.3-.2-.7-.2s-.8.1-1.1.4c-.3.4-.6.7-.8 1.2l-.2 1.7c0 .5 0 .9.2 1.1.4.4.7.4 1.1.4ZM446 197c-.9 0-1.5-.4-2-.9-.2-.4-.4-1-.4-1.9a5 5 0 0 1 .3-1.9c.1-.6.6-1 1.1-1.5.5-.4 1.2-.5 2-.5s1 .1 1.5.4c.3.3.5.7.5 1.2s0 .8-.4 1.1c-.3.3-.7.5-1.2.6.4 0 .6.2.9.4.2.2.3.5.3 1 0 .2 0 .5-.2.9-.2.3-.5.5-.9.7-.3.2-.9.4-1.5.4Zm-1.3-3.9h1.3l1-.1.6-.3c.3-.2.4-.4.4-.7l-.3-.6c-.2-.2-.4-.2-.7-.2-.7 0-1.1.1-1.6.5-.3.3-.6.8-.7 1.5Zm1.3 2.9c.6 0 1 0 1.2-.3.3-.2.4-.5.4-.7 0-.4-.1-.6-.4-.7-.2-.3-.6-.3-1.2-.3h-1.5v.3c0 .7.2 1 .5 1.4.2.2.6.3 1.1.3Zm-47.1 15.1 1.8-8.5h1l-.7 3.6h3.8l.8-3.6h1l-1.8 8.4h-1l.7-3.9h-3.7l-.8 4Zm10.6.1c-.7 0-1.3-.2-1.7-.6-.4-.6-.8-1-.8-1.8l.3-1.5.7-1.3c.2-.4.5-.8 1-1 .5-.3 1-.4 1.5-.4s1.2.4 1.5.7c.5.4.7 1 .7 1.8.1.5.1 1-.1 1.5-.1.4-.4.9-.6 1.3-.3.4-.7.7-1 1.1-.5 0-.9.2-1.5.2Zm0-.8c.5 0 .9-.2 1.2-.4.3-.3.5-.7.7-1.2a5.3 5.3 0 0 0 .3-1.8 2 2 0 0 0-.2-.7c0-.3-.2-.4-.4-.6l-.7-.2c-.5 0-.9.2-1.2.5-.2.3-.6.7-.7 1.2-.2.5-.3 1-.3 1.6 0 .5.1.9.4 1.2.2.2.6.4 1 .4Zm3.5 3.6 2-9.3h1l-.3 1.2a5 5 0 0 1 1.1-.9 2 2 0 0 1 1.2-.3c.5-.1 1 .1 1.2.5.3.3.5.8.5 1.6 0 .6 0 1.1-.2 1.7l-.7 1.4c-.2.4-.6.8-1 1.1-.2.1-.8.3-1.1.3-.7 0-.9-.1-1.2-.4a2.3 2.3 0 0 1-.6-.7 12.4 12.4 0 0 1-.2 1l-.6 2.8Zm3.6-3.6c.2 0 .4-.1.7-.4l.7-.7c.2-.5.4-.9.4-1.3l.2-1.2c0-.9-.3-1.3-1-1.3-.3 0-.6 0-.8.3-.3.2-.6.4-.8.8l-.6 1.1-.2 1.4c0 .4.1.7.3.9.2.2.5.3 1 .3ZM420.6 211.1l1.4-6.4h.8l-.1 1.2.7-.6.6-.5a2 2 0 0 1 .8-.2c.5 0 .8.1 1 .4.3.2.4.6.5 1a4 4 0 0 1 .7-.7l.6-.5a2 2 0 0 1 1-.2c.4 0 .7.1.9.4.5.3.7.7.7 1.2v.5l-.2.5-1 4h-.9l.8-4.1.1-.6v-.2c0-.3 0-.5-.2-.6l-.6-.2c-.2 0-.5 0-.8.3-.3.2-.6.4-.8.9a5 5 0 0 0-.6 1.5l-.6 3h-1l.7-4.1.2-.9c0-.1 0-.2-.2-.5l-.6-.2c-.2 0-.5 0-.8.3l-.9.9-.6 1.7-.4 2.6Zm13 .2c-.6 0-1.3-.3-1.6-.7-.4-.6-.6-1.2-.6-2a9.5 9.5 0 0 1 1-4.2c.1-.4.4-.8.7-1.1.5-.3.9-.6 1.3-.7a15.9 15.9 0 0 1 1.6-.3l1-.3h.6l.1.8a22.2 22.2 0 0 0-2.7.6c-.6.2-1.1.6-1.4 1a5.6 5.6 0 0 0-.9 1.8l1.1-.6c.2-.3.5-.4 1-.4.7 0 1.1.2 1.5.5.3.4.3 1 .3 1.6.1.5.1 1-.1 1.5 0 .4-.3.8-.5 1.2l-1 1c-.3.1-.8.2-1.4.2Zm.1-1c.4.1.7.1 1-.1l.4-.9c.3-.3.4-.6.4-1l.1-.8c0-.5 0-.9-.2-1.1-.2-.2-.4-.4-.8-.4-.3 0-.6.1-.8.3l-.8.5-.5.5v1.3c-.1.4-.1 1 .1 1.3.4.3.7.5 1.1.5Zm3.3 3.7 2-9.3h1l-.3 1.2a5 5 0 0 1 1.1-.9 2 2 0 0 1 1.2-.3c.5-.1 1 .1 1.2.5.3.3.5.8.5 1.6 0 .6-.1 1.1-.3 1.7-.1.5-.3 1-.6 1.4-.2.4-.6.8-1 1.1-.3.1-.8.3-1.3.3-.4 0-.8-.1-1-.4a2.3 2.3 0 0 1-.6-.7 12.4 12.4 0 0 1-.3 1l-.6 2.8Zm3.4-3.6c.4 0 .7-.1 1-.4l.6-.7.4-1.3.2-1.2c0-.9-.4-1.3-1-1.3-.3 0-.6 0-.9.3-.2.2-.5.4-.7.8l-.6 1.1-.2 1.4c0 .4.1.7.3.9.2.2.5.3 1 .3Zm3.4 3.6a3 3 0 0 1-.4 0h-.4v-1l.4.1h.4c.2.1.6.1.8-.1.2-.3.5-.6.7-1.1l.4-.6-1-6.6h1l.6 3.2v.8l.1 1v.5a19 19 0 0 1 1-1.9l1.8-3.7h1.1l-4 7.6-1.1 1.4c-.4.3-.9.4-1.5.4Zm6.2-2.9 1.5-6.4h.9l-.5 3.1 2.9-3.1h1.3l-3.1 3.2 2 3.1h-1.2l-2-3-.7 3.1Zm0 0" style="fill:none;stroke-width:2;stroke-linecap:butt;stroke-linejoin:round;stroke:#fff;stroke-opacity:.6;stroke-miterlimit:10" transform=" rotate(  340 428.109 200.978) "/> <g style="fill:#000;fill-opacity:1" transform=" rotate(  340 428.109 200.978) ">  <use xlink:href="#a" x="404.6" y="196.8"/>  <use xlink:href="#b" x="413.2" y="196.8"/>  <use xlink:href="#c" x="418.7" y="196.8"/>  <use xlink:href="#d" x="429.2" y="196.8"/>  <use xlink:href="#e" x="436.1" y="196.8"/>  <use xlink:href="#f" x="442.9" y="196.8"/>  <use xlink:href="#g" x="398.4" y="211.1"/>  <use xlink:href="#e" x="406.6" y="211.1"/>  <use xlink:href="#d" x="413.3" y="211.1"/>  <use xlink:href="#c" x="420.3" y="211.1"/>  <use xlink:href="#h" x="430.8" y="211.1"/>  <use xlink:href="#d" x="437.3" y="211.1"/>  <use xlink:href="#i" x="444.1" y="211.1"/>  <use xlink:href="#j" x="449.7" y="211.1"/> </g> <path d="M212.5 53.4c-1 0-1.8-.3-2.4-.8-.5-.7-.8-1.6-.8-2.6 0-.6.1-1.3.3-1.9a5.7 5.7 0 0 1 .9-1.9c.4-.5.8-.9 1.3-1.2a3.8 3.8 0 0 1 1.9-.4c1 0 1.7.4 2.2 1 .6.4.8 1.2.8 2.4 0 .7 0 1.4-.2 2a5.5 5.5 0 0 1-.8 1.9 4 4 0 0 1-1.4 1.1c-.5.3-1.1.4-1.8.4Zm0-1c.5.1 1 .1 1.3-.2a3 3 0 0 0 1-1.1 5 5 0 0 0 .6-1.4 6.7 6.7 0 0 0 .2-1.7c0-.8-.2-1.4-.5-1.8-.4-.4-.9-.6-1.5-.6s-1 0-1.3.3a3 3 0 0 0-1 1.1c-.3.3-.5.8-.6 1.3a6.7 6.7 0 0 0-.2 1.8c0 .7.1 1.3.5 1.8.4.4 1 .6 1.5.6Zm7.5 1c-.5 0-1.1-.2-1.6-.6-.4-.4-.7-1-.7-1.8 0-.5 0-1 .2-1.6l.7-1.4a3 3 0 0 1 1-.9l1.4-.3h1l.6.3-.3.9-.5-.2-.8-.1c-.4 0-.8.1-1.1.3a3 3 0 0 0-.9 1.3l-.2 1.7c0 .5 0 1 .2 1.2.4.2.7.4 1.1.4s.7 0 .9-.2a9 9 0 0 0 .7-.2v.8l-.7.3-1 .1Zm2.9-.1 1.3-6.3h1.1l-.3 1 .5-.5.7-.5a2 2 0 0 1 1-.2c.3 0 .6 0 .9.2l.4 1.1a4 4 0 0 1 .7-.5l.7-.6a2 2 0 0 1 1.1-.2c.2 0 .6.1.8.4.5.2.7.6.7 1.1v.7l-.4.4-.7 4h-1l.7-4.2v-.4l.3-.4c-.1-.2-.1-.4-.3-.4-.1-.3-.3-.3-.6-.3s-.5 0-.8.2c-.3.2-.7.5-.8 1.1a5 5 0 0 0-.6 1.3l-.6 3.1h-1l.7-4.2v-.7l.1-.6c-.2-.2-.5-.2-.7-.2s-.5 0-.8.2c-.3.2-.6.5-1 1.1l-.5 1.6-.5 2.7Zm9.9 2.9 2-9.3h.8l-.1 1.1a5 5 0 0 1 1-1 2 2 0 0 1 1.2-.1c.5-.1 1 .1 1.2.4.3.4.5 1 .5 1.7 0 .6 0 1-.2 1.7l-.6 1.3-1 1.1c-.4.2-.8.3-1.3.3s-.8 0-1-.3a2.3 2.3 0 0 1-.8-.8 12.4 12.4 0 0 1-.1 1.1l-.6 2.8Zm3.4-3.6.8-.3.8-.9.4-1.1.1-1.4c0-.8-.3-1.2-1-1.2-.3 0-.5 0-.8.3-.3 0-.5.4-.8.8l-.5 1.1c-.2.4-.2.9-.2 1.4 0 .4 0 .7.3 1 .2 0 .5.2.9.2Zm6.8.8c-.8 0-1.4-.2-1.8-.6-.4-.5-.6-1.1-.6-1.9 0-.5 0-.9.2-1.4.1-.5.2-1 .6-1.5.2-.3.6-.6 1-.9.4-.1.9-.2 1.4-.2.7-.1 1.2.1 1.7.6.5.4.7 1 .7 1.8 0 .5 0 1-.2 1.5l-.6 1.2-1 1c-.4.3-.9.4-1.4.4Zm0-.9c.4 0 .8 0 1-.4.5-.1.7-.6.9-1.1a5.3 5.3 0 0 0 .2-1.8 2 2 0 0 0-.1-.7c-.1-.3-.2-.5-.4-.6l-.8-.2c-.4 0-.8.1-1.1.3-.4.4-.7.8-.8 1.3-.2.5-.3 1-.3 1.7 0 .5.2.9.4 1 .2.4.6.5 1 .5Zm6.9.9c-1 0-1.6-.2-2-.7-.4-.5-.6-1.1-.6-2a5 5 0 0 1 .4-1.9c.3-.5.7-1 1.3-1.4.4-.4 1-.6 1.7-.6s1.3.1 1.6.4c.4.3.7.7.7 1.2s-.3.9-.6 1.1c-.3.3-.7.5-1.1.6.3-.1.6.2.7.4.4.2.5.5.5 1l-.3.9c-.1.3-.4.5-.8.6-.4.3-.9.4-1.4.4Zm-1.4-3.7h1.3l1-.1.8-.4c.2-.2.2-.4.2-.7 0-.2 0-.4-.2-.5-.2-.3-.6-.3-.8-.3-.6 0-1 .1-1.5.5-.3.3-.6.8-.8 1.5Zm1.5 2.9c.5 0 1-.1 1.1-.4.2-.2.4-.5.4-.8 0-.3-.2-.4-.5-.6-.2-.2-.6-.3-1.1-.3h-1.5v.3c0 .6.1 1 .4 1.4.3.2.7.4 1.2.4Zm-36.4 15 1.8-8.5h4.4l-.2.9h-3.3l-.5 2.6h.8c.7.1 1.2.2 1.6.4.3.2.6.4.8.8l.2 1c0 .7-.1 1.2-.4 1.6-.3.4-.8.8-1.2 1l-1.8.1Zm1.4-.9h.9c1.6 0 2.3-.6 2.3-1.7-.1-.6-.2-.9-.5-1-.3-.3-.6-.4-1.1-.4h-1Zm4.7 3.8 2-9.3h.7v1.2a5 5 0 0 1 1-1 2 2 0 0 1 1.2-.2c.4-.1.9.1 1.2.5.3.3.5.9.5 1.6 0 .6 0 1.1-.2 1.7l-.6 1.4c-.3.4-.6.8-1 1-.5.2-.9.4-1.3.4-.5 0-.8-.1-1-.4a2.3 2.3 0 0 1-.8-.7 12.4 12.4 0 0 1-.1 1l-.6 2.9ZM223 67l1-.4c.2-.2.5-.6.6-.8l.5-1.2.1-1.3c0-.9-.2-1.3-1-1.3-.3 0-.5 0-.8.3l-.8.7-.5 1.2c-.2.5-.2 1-.2 1.4 0 .4 0 .7.3 1 .2.1.5.2.8.2ZM232.7 67.7c-.8 0-1.4-.2-1.8-.6-.4-.5-.5-1.1-.5-1.8v-.5h-1.5l-.6 2.8h-1l1.2-6.4h1.1l-.5 2.8h1.4c.3-1.1.7-1.7 1.2-2.1.5-.6 1-.9 1.7-.9.8.1 1.4.4 1.8.8.3.5.5 1 .5 1.8 0 .5 0 1-.2 1.5-.1.5-.3 1-.5 1.4a3 3 0 0 1-1 .9c-.3.2-.7.3-1.2.3Zm0-.7c.4-.1.7-.3 1-.6.3-.2.5-.6.7-1.1.2-.5.3-1.1.3-1.8 0-.5-.2-.8-.4-1-.2-.5-.5-.5-.9-.5l-.9.3-.5.8a4 4 0 0 0-.5.9v1.3c-.1.5-.1.9.1 1.1.4.3.7.6 1.1.6Zm6.6.8c-.7 0-1.3-.2-1.7-.6-.6-.4-.7-1-.7-1.8 0-.6 0-1.2.1-1.7s.5-1 .8-1.3a3 3 0 0 1 1-1l1.6-.3h.6l.8.4-.2.8-.6-.3h-.7c-.5 0-.9 0-1.3.5a3 3 0 0 0-.7 1.2c-.3.5-.3 1-.3 1.6 0 .5 0 1 .3 1.2.3.3.7.4 1 .4l1-.1a9 9 0 0 0 .6-.3v.9l-.7.3h-1Zm4.7 0c-.3 0-.8-.2-1.1-.6-.4-.4-.6-1-.6-1.6 0-.6.1-1.2.3-1.7.1-.6.3-1 .6-1.5l1-1c.4-.1.8-.2 1.3-.2.4-.1.8 0 1 .2.3.3.5.6.6.8l.6-1h.6l-1.3 6.4h-1l.3-1.1-1 .9a2 2 0 0 1-1.3.4Zm.5-1c.2.1.5.1.8-.1l.7-1.1.6-1 .1-.8v-.5c0-.4 0-.7-.3-1-.2-.2-.4-.3-.8-.3-.3 0-.6 0-.9.3-.2.2-.5.4-.7.7l-.4 1.2-.2 1.4c0 .4.1.7.3 1 .2.2.3.3.7.3Zm-.1.1" style="fill:none;stroke-width:2;stroke-linecap:butt;stroke-linejoin:round;stroke:#fff;stroke-opacity:.6;stroke-miterlimit:10" transform=" rotate(  340 231.388 57.4817) "/> <g style="fill:#000;fill-opacity:1" transform=" rotate(  340 231.388 57.4817) ">  <use xlink:href="#a" x="208.5" y="53.3"/>  <use xlink:href="#b" x="217.1" y="53.3"/>  <use xlink:href="#c" x="222.5" y="53.3"/>  <use xlink:href="#d" x="233" y="53.3"/>  <use xlink:href="#e" x="240" y="53.3"/>  <use xlink:href="#f" x="246.8" y="53.3"/>  <use xlink:href="#k" x="213.1" y="67.6"/>  <use xlink:href="#d" x="219.9" y="67.6"/>  <use xlink:href="#l" x="226.9" y="67.6"/>  <use xlink:href="#b" x="236.3" y="67.6"/>  <use xlink:href="#m" x="241.8" y="67.6"/> </g> <path d="M137 152.8c-1 0-1.7-.3-2-.8-.6-.5-.8-1.2-.8-2 .1-.6.1-1.2.3-1.8l.7-1.4c.3-.4.8-.8 1.2-1a3 3 0 0 1 1.5-.4c.8 0 1.4.3 1.9.8.4.5.6 1.1.6 2 0 .6 0 1.2-.2 1.8-.1.5-.4 1-.7 1.4-.3.4-.5.8-1 1-.5.2-1.1.4-1.7.4Zm0-.8a2 2 0 0 0 1-.3c.3-.2.6-.5.8-.9l.5-1.2.2-1.4c0-.6-.2-1.1-.5-1.5-.3-.3-.7-.5-1.2-.5a2 2 0 0 0-1 .3c-.5.2-.8.5-1 .8l-.4 1.2a6 6 0 0 0-.2 1.5c0 .6.2 1 .5 1.4.3.4.7.6 1.2.6Zm6.2.8c-.6 0-1-.2-1.4-.5-.4-.4-.6-.9-.6-1.5l.2-1.4c.2-.4.3-.8.6-1.1.2-.4.5-.6.9-.8.3-.2.7-.3 1.1-.3h.7l.7.4-.4.6-.4-.2h-.6c-.3 0-.7 0-1 .2-.3.4-.5.8-.6 1.1a4 4 0 0 0-.4 1.5c.1.4.2.7.4 1l1 .2h.6a7 7 0 0 0 .6-.4v.8l-.6.3h-.8Zm2.4-.1 1.1-5.4h.7v1c0-.3.2-.3.4-.5.1-.2.2-.3.6-.4l.6-.2c.5 0 .7.1.9.3.2.2.3.5.4.9l.5-.6.6-.4.8-.2c.4 0 .7.1 1 .4 0 .2.2.4.2 1v.4l-.1.4-.6 3.3h-1l.9-3.4v-1.2l-.8-.1-.6.2-.7.7-.4 1.3-.6 2.5h-.8l.7-3.4v-1.2l-.7-.1-.6.2-.7.7-.4 1.4-.6 2.4Zm8.2 2.3 1.6-7.6h.8l-.2.9 1-.8c.2-.2.5-.3.9-.3s.8.2 1 .5c.3.3.4.7.4 1.3 0 .5 0 1-.2 1.4 0 .6-.3.9-.5 1.2-.2.4-.5.7-.8.9a2 2 0 0 1-1 .3c-.5 0-.8-.1-1.1-.3a2 2 0 0 1-.4-.7v.5l-.2.5-.4 2.2Zm2.9-3c.2 0 .5 0 .7-.2l.5-.8a4 4 0 0 0 .4-.9 5 5 0 0 0 .1-1c0-.9-.3-1.3-.8-1.3-.2.2-.6.2-.7.4l-.6.6-.5 1-.2 1.2c0 .3.1.5.4.7 0 .3.3.3.7.3Zm5.6.7c-.6 0-1.1-.1-1.5-.5-.3-.4-.5-.9-.5-1.5 0-.4 0-.8.2-1.2a4 4 0 0 1 .5-1.2l.8-.8c.3-.2.7-.3 1.2-.3.6 0 1 .2 1.4.6.4.4.6.9.6 1.5 0 .4 0 .8-.2 1.2a4 4 0 0 1-.5 1.1c-.2.4-.5.6-.8.8l-1.2.3Zm0-.7c.4 0 .7-.1 1-.3l.4-1c.3-.4.4-1 .4-1.5l-.1-.6a1 1 0 0 0-.4-.5l-.6-.1c-.4 0-.7 0-1 .3l-.6 1a4 4 0 0 0-.2 1.4c0 .4 0 .7.3 1 .2.2.5.3.8.3Zm5.7.8c-.7 0-1.2-.2-1.6-.6-.3-.4-.4-1-.4-1.6 0-.7 0-1.2.3-1.7.2-.5.5-1 1-1.2.3-.3.8-.5 1.4-.5.6 0 1.1.1 1.3.4.4.2.6.4.6 1 0 .4-.2.7-.4.9l-1 .5c.3 0 .5.2.8.3.1.2.2.5.2.8 0 .3 0 .5-.2.9l-.7.5c-.3.2-.7.3-1.3.3Zm-1-3.2h1.7c.4-.1.6-.2.7-.4.2-.1.3-.2.3-.5s0-.4-.2-.5c-.2-.2-.5-.3-.7-.3-.5.1-.9.2-1.2.5-.3.3-.6.6-.7 1.2Zm1 2.4c.5 0 1 0 1.1-.2.2-.2.3-.5.3-.8 0-.2-.1-.3-.4-.5l-1-.2h-1.2v.3c0 .4.2.9.4 1 .2.4.5.4 1 .4Zm-33 12.6 1.7-7.1h1.1l.7 5.8 3.3-5.8h1.3l-1.5 7.1h-.9l1-4.2a47.9 47.9 0 0 1 .3-2l-3.4 6.1h-.6l-.8-6.2-.2.7-.1.6v.7l-1.1 4.3Zm10.5.1c-.6 0-1.1-.2-1.4-.5-.4-.4-.5-.9-.5-1.5l.1-1.3c.3-.4.3-.8.6-1.1.2-.4.5-.6.7-.8a2 2 0 0 1 1.2-.5c.5.1 1 .3 1.2.5.2.2.4.5.4.9 0 .3-.1.6-.4 1-.2.1-.4.4-1 .6-.4.2-1 .3-1.8.3h-.1v.3c-.1.5-.1.8.1 1 .4.4.6.4 1.1.4l.7-.1a5 5 0 0 0 .6-.3v.7a6 6 0 0 1-.6.3h-.9Zm-1-3.1h.3l.9-.1c.5-.1.8-.2 1-.5l.2-.5c0-.2 0-.5-.2-.5h-.5c-.3-.1-.7 0-1 .3-.2.3-.5.7-.6 1.3ZM151.7 158.5c-.7 0-1 0-1.3-.3-.2-.2-.3-.5-.3-.9a1 1 0 0 1-.1-.3h1v.7c.2.3.4.3.7.3.3 0 .6 0 .8-.3.2-.1.3-.3.4-.7h.8c0 .5-.3.8-.6 1.1-.3.3-.8.4-1.4.4Zm-1.7 6.2c-.5 0-.8-.1-1-.3-.3-.4-.4-.6-.4-1v-.5l.1-.4.7-3.3h1l-.9 3.4v.7c0 .2 0 .4.2.5l.5.2c.2 0 .5-.1.7-.3.3-.1.5-.4.8-.7l.5-1.4.5-2.4h.9l-1.2 5.4h-.7l.1-1-.5.5-.6.4-.7.2Zm6.3 0c-.7 0-1.1-.2-1.5-.7-.3-.3-.5-.9-.5-1.6a7.4 7.4 0 0 1 .4-2.2l.5-1.2.7-1 1-.4.5-.3a34 34 0 0 1 1.6-.3h.5l.1.6h-.6l-1 .4c-.3 0-.5 0-.7.2-.4.1-.8.4-1.1.8-.3.4-.5.9-.7 1.5a3 3 0 0 1 .7-.5c.3-.3.8-.4 1-.4.7 0 1.1.2 1.3.5.2.3.3.7.3 1.3 0 .4 0 .8-.2 1.2 0 .4-.2.8-.4 1-.2.4-.5.7-.8.9-.3.1-.7.2-1.1.2Zm0-.7c.3 0 .7-.1.8-.3a2 2 0 0 0 .5-.6l.2-.8.2-.8c-.1-.4-.1-.7-.3-.9l-.7-.3-.6.2-.6.5a4 4 0 0 0-.5.4v1.1c-.1.4-.1.8.1 1 .2.4.5.5.9.5Zm5.4.7c-.6 0-1-.2-1.4-.5-.3-.4-.5-.9-.5-1.5 0-.4 0-.9.2-1.3 0-.4.3-.8.5-1.1.2-.4.5-.6.9-.8a2 2 0 0 1 1-.5c.6.1 1.1.3 1.3.5.2.2.3.5.3.9 0 .3-.1.6-.3 1-.2.1-.7.4-1 .6-.6.2-1.2.3-1.9.3h-.1v.3c0 .5 0 .8.3 1 .2.4.5.4.9.4l.7-.1a5 5 0 0 0 .8-.3v.7a6 6 0 0 1-.8.3h-.9Zm-.9-3.1h.2l.9-.1 1.1-.5v-1h-.6c-.3-.1-.6 0-1 .3l-.5 1.3Zm3.5 3.1h-.3V163.8h.7l.5-.8.4-1.2.5-1.1.4-.9.7-.5 1-.1a4.5 4.5 0 0 1 1.2.2l-1.1 5.2h-.9l1-4.6h-1l-.5.8-.5 1.2-.6 1.5c-.1.4-.3.7-.6.9-.2.2-.5.3-1 .3Zm0 0" style="fill:none;stroke-width:2;stroke-linecap:butt;stroke-linejoin:round;stroke:#fff;stroke-opacity:.6;stroke-miterlimit:10" transform=" rotate(  340 153.391 155.628) "/> <g style="fill:#000;fill-opacity:1" transform=" rotate(  340 153.391 155.628) ">  <use xlink:href="#n" x="133.5" y="152.7"/>  <use xlink:href="#o" x="140.7" y="152.7"/>  <use xlink:href="#p" x="145.3" y="152.7"/>  <use xlink:href="#q" x="154" y="152.7"/>  <use xlink:href="#r" x="159.8" y="152.7"/>  <use xlink:href="#s" x="165.4" y="152.7"/>  <use xlink:href="#t" x="134.7" y="164.6"/>  <use xlink:href="#u" x="143.1" y="164.6"/>  <use xlink:href="#v" x="148.1" y="164.6"/>  <use xlink:href="#w" x="153.9" y="164.6"/>  <use xlink:href="#u" x="159.3" y="164.6"/>  <use xlink:href="#x" x="164.3" y="164.6"/> </g></svg>