<svg xmlns="http://www.w3.org/2000/svg" xmlns:xlink="http://www.w3.org/1999/xlink" viewBox="0 0 497 279"> <defs overflow="visible" style="stroke:none">  <path id="f" d="M5.2-7h1.3l-3 3.4L6.7 0H5.4L2.2-3.5V0h-.9v-7h.8v3.4Zm0 0"/>  <path id="e" d="M4 .1a3.6 3.6 0 0 1-1.9-.3 2.6 2.6 0 0 1-.8-1.2C.8-2 .6-2.6.6-3.4c.1-.9.4-1.6.5-2.1.3-.6.7-1 1.2-1.2.5-.3 1-.4 1.7-.4L5-7c.3 0 .6.2.8.3l-.3 1a5 5 0 0 0-.8-.3A3 3 0 0 0 4-6c-1.4 0-2.1.7-2.1 2.4 0 1 .1 1.6.5 2.1.3.4.8.5 1.5.5h1l.8-.4v1.1a3 3 0 0 1-.8.3L4 .1Zm0 0"/>  <path id="d" d="M6.7-5.2c0 .4-.1.8-.4 1-.2.3-.6.4-1 .5.5.1.8.3 1.1.5.4.3.6.6.6 1.2 0 .5-.3 1-.7 1.4C5.8-.2 5 0 4 0H1.1v-7h3c.5 0 .9 0 1.3.2l1 .5c.2.3.3.6.3 1Zm-1.2.1c0-.3 0-.5-.3-.7L4-6H2.2v1.9h1.7c1.1 0 1.6-.3 1.6-1ZM5.8-2c0-.3-.3-.6-.5-.8C5-3 4.5-3.2 4-3.2H2.2v2.3H4c.6-.1 1-.1 1.3-.3.3-.1.5-.4.5-.8Zm0 0"/>  <path id="c" d="M3.8-7c.6 0 1.1 0 1.5.2.5.4.8.7 1 1.1.3.7.4 1.2.4 1.7v.7H1.9c0 .8.1 1.4.6 1.8.4.5 1 .7 1.6.7.5 0 .9 0 1.2-.2l1-.3v1a5.2 5.2 0 0 1-2.1.3 3.8 3.8 0 0 1-1.9-.3 2.8 2.8 0 0 1-1.2-1.2C1-2 .7-2.7.7-3.5c0-.6.1-1.2.4-1.8.3-.6.6-1.1.9-1.4A3 3 0 0 1 3.9-7Zm0 .7c-.6.1-1 .3-1.3.7-.3.3-.5.8-.6 1.4h3.6c0-.6-.2-1-.5-1.4-.2-.4-.6-.6-1.2-.6Zm0 .1"/>  <path id="b" d="m9.5-7-3 3.4L9.8 0H8.4l-3-3.5V0h-1v-3.5L1.3 0H0l3.1-3.6L.3-7h1.2l2.8 3.4V-7h1v3.4L8.4-7Zm0 0"/>  <path id="a" d="M1.3-9.3h1v7.7l5.1-7.7h1.3V0h-1v-5a30.8 30.8 0 0 1-.1-2.7L2.6 0H1.3Zm0 0"/>  <path d="M1.2 0v-9.3h5.4V0ZM2-.7h3.9v-8H2Zm-.1 0"/> </defs> <image xlink:href="svg/9/13_19.jpg" width="497" height="279"/> <path d="M368.5 163.3h1v7.7l5.3-7.7h1.2v9.3h-1.1v-5a30.8 30.8 0 0 1 0-2.9l-4.9 7.9h-1.6Zm18.2 2.3-2.9 3.4 3.2 3.6h-1.4l-3-3.6v3.6h-1V169l-3.1 3.6h-1.4l3.3-3.6-3-3.4h1.4l2.7 3.4v-3.4h1.1v3.4l2.9-3.4Zm3.8-.1c.6 0 1.1.1 1.5.4.5.1.8.6 1 1 .3.6.4 1.1.4 1.8v.6h-4.8c0 .8.2 1.4.6 1.8.4.4 1 .6 1.6.6l1.2-.1c.3 0 .7-.2 1-.4v1a5.2 5.2 0 0 1-2.1.5 3.8 3.8 0 0 1-1.9-.4 2.8 2.8 0 0 1-1.2-1.2c-.2-.5-.4-1.2-.4-2 0-.7.2-1.4.4-2 .3-.4.6-.8 1-1.1a3 3 0 0 1 1.8-.5Zm0 1c-.6-.1-1-.1-1.3.3-.3.5-.5 1-.6 1.6h3.6c0-.6-.2-1-.4-1.4-.3-.4-.8-.6-1.3-.6Zm10.2.8c0 .5 0 .8-.3 1-.4.4-.6.6-1 .7.4 0 .8.1 1 .4.5.2.6.6.6 1.1 0 .6-.3 1.1-.7 1.5-.4.4-1.2.6-2.2.6h-3v-7h3c.5 0 1 0 1.4.2.4 0 .7.2.9.5.2.3.3.7.3 1Zm-1.1.2c0-.3-.1-.6-.4-.7-.2-.2-.6-.2-1.1-.2h-1.8v1.9h1.6c1.1 0 1.7-.5 1.7-1Zm.2 3c0-.4-.2-.7-.5-.8-.3-.2-.7-.3-1.3-.3h-1.7v2.2h1.7c.6 0 1 0 1.3-.2.3-.2.5-.5.5-.9Zm5.6 2.2a3.6 3.6 0 0 1-1.6-.4 2.6 2.6 0 0 1-1.1-1.1c-.3-.6-.5-1.2-.5-2 0-1.1.2-1.7.5-2.2.3-.5.6-.9 1.1-1.2.5-.2 1-.3 1.7-.3h1l.8.4-.3.9a5 5 0 0 0-.8-.2 3 3 0 0 0-.7-.1c-1.5 0-2 .9-2 2.5-.1 1-.1 1.6.3 2.1.5.3 1 .5 1.6.5h1c.3 0 .6-.2.8-.3v1a3 3 0 0 1-.8.3h-1Zm7.6-7.1h1.2l-3 3.4 3.4 3.6h-1.4L410 169v3.6h-1v-7h1v3.4Zm0 0" style="fill:none;stroke-width:3;stroke-linecap:butt;stroke-linejoin:round;stroke:#fff;stroke-opacity:.6;stroke-miterlimit:10" transform=" rotate(  340 392.494 169.568) "/> <g style="fill:#222;fill-opacity:1" transform=" rotate(  340 392.494 169.568) ">  <use xlink:href="#a" x="367.2" y="172.6"/>  <use xlink:href="#b" x="377.2" y="172.6"/>  <use xlink:href="#c" x="386.7" y="172.6"/>  <use xlink:href="#d" x="394" y="172.6"/>  <use xlink:href="#e" x="401.5" y="172.6"/>  <use xlink:href="#f" x="407.8" y="172.6"/> </g></svg>