<svg xmlns="http://www.w3.org/2000/svg" xmlns:xlink="http://www.w3.org/1999/xlink" viewBox="0 0 497 279"> <defs overflow="visible" style="stroke:none">  <path id="g" d="M4-5.4h1L2.7-2.8 5.2 0h-1L1.7-2.7V0H.8v-5.4h1v2.6Zm0 0"/>  <path id="f" d="M3 0c-.5 0-.9 0-1.3-.1-.3-.3-.6-.6-.7-.9-.4-.5-.5-1-.5-1.7 0-.6.2-1.1.5-1.5 0-.6.4-.8.8-1.1.2-.1.8-.2 1.2-.2l.8.1.7.2-.3.8-.6-.2H3c-1-.1-1.5.6-1.5 1.9 0 .7 0 1 .3 1.4.3.5.7.6 1.2.6h.8l.6-.3v.8a2 2 0 0 1-.6.2H3Zm0 0"/>  <path id="e" d="M1.7-3.2h1.6c1.4 0 2.1.6 2.1 1.6 0 .5-.2.9-.4 1.2-.4.3-1 .4-1.7.4H.8v-5.4h1Zm2.8 1.6c0-.3 0-.4-.3-.6-.2-.3-.6-.3-1-.3H1.7v1.8h1.5c.4 0 .8 0 1-.2.2-.1.3-.4.3-.7Zm0 0"/>  <path id="d" d="M5 0H4v-4.6H2.5L2-2 1.5-.4c-.3.3-.6.4-1 .4H0v-.7h.4c.3.1.6-.3.8-.9.2-1 .4-2.2.5-3.9h3.2Zm0 0"/>  <path id="c" d="M2.9-5.5c.6 0 1.1.2 1.4.5.3.3.5.7.5 1.3V0h-.6L4-.8c-.3.3-.5.6-.8.8h-1c-.5 0-1 0-1.3-.3C.6-.5.5-.9.5-1.5c0-.5.2-1 .5-1.2.5-.3 1-.5 2-.5h.8v-.3c.2-.5.2-.8-.2-1l-.8-.2H2l-.7.5L1-5l1-.3.9-.2Zm1 2.9h-.8c-.6 0-1 .1-1.4.3-.1.3-.3.5-.3.8 0 .3 0 .5.2.7l.7.2c.5 0 .9-.1 1.2-.4.3-.2.4-.6.4-1Zm.1 0"/>  <path id="b" d="M3.4-5.5c.7 0 1.2.3 1.6.7.4.5.6 1.2.6 2.1 0 1-.2 1.7-.6 2-.4.7-1 .9-1.6.9-.4-.2-.8-.2-1-.3l-.7-.6v3.1H.8v-7.8h.8v.8h.2c.2-.4.3-.5.6-.6.2-.2.6-.3 1-.3Zm-.2.8c-.5 0-.9.1-1.1.5-.2.2-.4.7-.4 1.2v.3c0 .7.1 1.2.3 1.5.3.4.7.6 1.3.6.3 0 .6-.1.7-.4l.5-.6.2-1.1c0-.6-.1-1.1-.4-1.5-.2-.3-.6-.5-1-.5Zm0 0"/>  <path id="a" d="M6.2-7.1 4-2.1a7 7 0 0 1-.7 1.4l-.8.6-1 .1h-1v-1l.4.3h.5c.4 0 .6 0 .9-.3.2 0 .3-.4.6-.8L0-7.1h1.1L3-3.2l.2.2.1.3.3-.2v-.3l1.8-4Zm0 0"/>  <path d="M1 0v-7.1h4V0Zm.4-.5h3.1v-6.1h-3Zm.1 0"/> </defs> <image xlink:href="svg/9/13_12.jpg" width="497" height="279"/> <path d="m13 122.6-2.3 5a7 7 0 0 1-.5 1.4l-.9.6-1 .2h-.7l-.4-.1v-1l.6.3h.4c.3 0 .6 0 .8-.2.3-.2.5-.5.7-.8l-2.8-5.4H8l1.9 4 .1.1.1.3.3-.2v-.3l1.8-4zm3.4 1.7c.7 0 1.2.2 1.6.6.4.5.6 1.2.6 2.1 0 1-.2 1.6-.6 2.1-.4.5-1 .7-1.6.7-.4 0-.7 0-1-.2l-.6-.6v3.1h-1v-7.7h.9v.6l.8-.5c.2-.2.5-.2.9-.2zm-.1.7c-.6 0-1 .2-1.3.5 0 .3-.2.7-.2 1.4v.1c0 .7 0 1.2.2 1.6.3.3.7.4 1.3.4.3 0 .6 0 .8-.2l.5-.7.1-1.1c0-.7 0-1.2-.3-1.6-.4-.2-.6-.4-1.1-.4zm5.7-.7c.8 0 1.3.1 1.6.4.2.3.4.7.4 1.4v3.6h-.7l-.1-.7c-.4.3-.7.5-.9.6l-.9.2c-.6 0-1.1-.1-1.4-.4-.2-.2-.4-.6-.4-1.2 0-.5.2-1 .7-1.2.4-.3 1-.5 2-.5h.7v-.3c.1-.5.1-.8-.2-1l-.8-.2h-.8l-.7.4-.3-.7.9-.3.9-.1zm1.2 2.7h-.9c-.6.1-1.1.3-1.3.4-.3.2-.4.6-.4.8 0 .3 0 .6.2.8l.7.1c.5 0 .9-.1 1.2-.4.3-.2.3-.6.3-1.1zm6.5 2.7h-.9v-4.6h-1.6c.1 1.1-.2 1.9-.2 2.7l-.7 1.5c-.3.3-.6.5-1 .5H25v-.8h.2c.3 0 .6-.3.8-1.1.2-.7.4-1.9.5-3.5h3.2zm2.6-3.1H34c1.3 0 1.9.4 1.9 1.4.1.6.1 1-.3 1.3-.6.3-1 .4-1.7.4h-2.5v-5.3h1Zm2.8 1.4c0-.2-.1-.4-.3-.5-.3-.2-.6-.2-1-.2h-1.5v1.7h1.5c.4 0 .7 0 1-.2.2-.1.2-.4.2-.7zm4.4 1.8c-.5 0-.9 0-1.3-.3-.2-.2-.6-.5-.7-.9-.3-.4-.5-.9-.5-1.5 0-.7 0-1.2.4-1.6.2-.5.5-.8.9-1l1.3-.1h.8l.6.1-.3.8-.6-.3h-.5c-1.1 0-1.6.6-1.6 2 0 .7 0 1.2.4 1.5.2.5.6.6 1.1.6l.8-.1.6-.3v.8a2 2 0 0 1-.6.2l-.8.1zm5.8-5.4h1l-2.3 2.5 2.5 2.8h-1L43 127v2.7h-1v-5.3h1.2v2.5zm0 0" style="fill:none;stroke:#fff;stroke-width:3;stroke-linecap:butt;stroke-linejoin:round;stroke-miterlimit:10;stroke-opacity:.6" transform="rotate(  340 39.2983 120.862) translate(12.121189,-5.8516082)"/> <g style="fill:#212121;fill-opacity:1" transform=" rotate(  340 39.2983 120.862) ">  <use xlink:href="#a" x="18.9" y="123.9"/>  <use xlink:href="#b" x="25.2" y="123.9"/>  <use xlink:href="#c" x="31.3" y="123.9"/>  <use xlink:href="#d" x="36.9" y="123.9"/>  <use xlink:href="#e" x="42.7" y="123.9"/>  <use xlink:href="#f" x="48.6" y="123.9"/>  <use xlink:href="#g" x="53.4" y="123.9"/> </g></svg>