<svg xmlns="http://www.w3.org/2000/svg" xmlns:xlink="http://www.w3.org/1999/xlink" viewBox="0 0 497 279"> <defs overflow="visible" style="stroke:none">  <path id="n" d="M2.7.1C2 .1 1.5 0 1.1-.5.8-1 .6-1.5.6-2.2c0-.5 0-1 .2-1.4 0-.4.2-.9.5-1.3s.7-.7 1-.9c.3-.2.7-.4 1.3-.4.4 0 .8.2 1 .3a2 2 0 0 1 .8.9v-.5c-.1-1-.2-1.7-.5-2.2-.3-.3-.7-.7-1.2-.7a3 3 0 0 0-.7.1l-.6.3-.2-.9a3 3 0 0 1 .7-.1A4 4 0 0 1 4-9.2c.6 0 1.2.2 1.7 1 .5.4.6 1.4.6 2.6.1.5.1 1.1-.1 1.6 0 .5-.2 1-.4 1.5s-.4 1-.7 1.3L4-.2c-.3.2-.8.2-1.3.2Zm.1-.9c.4 0 .8-.1 1-.4a4 4 0 0 0 .9-1.2L5.1-4a2.3 2.3 0 0 0-.5-1c-.3-.2-.6-.3-1-.3-.2 0-.6.1-.9.3L2-3.8c-.3.5-.4 1-.4 1.6 0 .4.1.7.4 1 .1.3.4.4 1 .4Zm0 0"/>  <path id="m" d="m.3 0 1.4-6.4h1l-.4 2.7h2.9l.6-2.8h1L5.6 0H4.5L5-2.9H2L1.4 0Zm0 0"/>  <path id="l" d="m.3 0 1.4-6.4h1l-.6 3L5-6.3h1.4L3.2-3.2 5.4 0H4L2.1-3.2 1.4 0Zm0 0"/>  <path id="k" d="M3 .1C2.1.1 1.5 0 1.1-.5.8-1 .6-1.5.6-2.3c0-.5 0-1 .2-1.5.1-.5.4-1 .6-1.4l1-1c.5-.2 1-.3 1.5-.3s.9 0 1.3.3c.3.3.4.7.4 1.2 0 .4-.1.8-.4 1-.2.5-.6.8-1.2 1l-2 .1h-.3v.6c-.1.3-.1.8.3 1.1.2.3.6.4 1 .4h1l.8-.5v1c-.3 0-.6.2-.8.3L3 .1ZM1.7-3.6H2c.4 0 1 0 1.2-.2.4 0 .8-.2 1-.4.3-.2.4-.4.4-.8 0-.2 0-.3-.2-.5l-.7-.2c-.4 0-.7.2-1 .7-.5.2-.7.7-1 1.4Zm.1 0"/>  <path id="j" d="M-.7 0 4-8.6h1L6.3 0H5l-.2-2.7h-3L.6 0Zm3.1-3.6h2.3l-.2-1.8a54.1 54.1 0 0 1-.2-2l-.5 1-.5 1Zm0 0"/>  <path id="i" d="m.3-2.7.2-1h2.9l-.4 1Zm0 0"/>  <path id="h" d="M0 0h-.5v-1l.4.3.6-.4c.2-.2.5-.4.5-.8a14 14 0 0 0 .6-1.4l.5-1.4a4 4 0 0 1 .6-1 2 2 0 0 1 .8-.6l1.2-.2h.7l.7.3L4.8 0h-1l1-5.6h-.3c-.3 0-.6 0-.8.2l-.7.8L2.5-3A17 17 0 0 1 2-1.3c-.4.3-.6.8-1 1-.2.3-.6.4-1 .4Zm0 0"/>  <path id="g" d="M2.3.1c-.5 0-1-.1-1.2-.5-.4-.4-.5-1-.5-1.7 0-.6 0-1.1.2-1.7l.7-1.4 1-1c.3-.2.8-.3 1.2-.3.5 0 .8 0 1 .3l.8.8.3-1h.8L5.2 0h-.8l.1-1.2-1 1a2 2 0 0 1-1.2.2Zm.4-.8c.3-.1.5-.3.8-.4.3-.2.6-.5.8-.9l.5-1.2.2-.6v-.6c0-.3-.1-.6-.3-.9-.2-.2-.5-.4-.9-.4-.3 0-.6.1-.8.3l-.7.8-.5 1.2L1.7-2c0 .4 0 .7.2 1 .2 0 .4.2.8.2Zm0-.1"/>  <path id="f" d="m.5 0 1.8-8.6h1l-.7 4.2 3.9-4.2h1.3L3.6-4.3 6.3 0H5L2.5-4.3 1.5 0Zm0 0"/>  <path id="e" d="M3.1.1c-.9 0-1.5-.1-2-.7-.2-.4-.4-1.1-.4-2A5 5 0 0 1 1-4.5c.2-.7.6-1.1 1-1.5.6-.4 1.3-.5 2-.5s1.2 0 1.6.4C6-6 6-5.4 6-5s0 .9-.3 1.2c-.3.3-.7.4-1.2.5l.9.6c.2.1.3.4.3.9 0 .1 0 .4-.2.8s-.5.6-.8.8c-.4.2-1 .3-1.7.3ZM1.8-3.6H3l1-.1.8-.5c.2-.1.3-.3.3-.6l-.3-.6c-.1-.2-.4-.3-.8-.3-.6 0-1 .2-1.4.7-.4.2-.7.7-.8 1.4ZM3.2-.7c.5-.1.8-.3 1.1-.4.3-.2.4-.5.4-.8 0-.3-.1-.5-.4-.6-.2-.2-.6-.3-1.1-.3H1.6v.3c0 .6.2 1 .5 1.3.2.3.6.4.9.4Zm0-.1"/>  <path id="d" d="m-.3 2.9 2-9.3h.9l-.2 1.2a5 5 0 0 1 1.1-1 2 2 0 0 1 1.1-.3c.5 0 1 .1 1.4.5.2.4.4 1 .4 1.7 0 .5-.1 1.1-.4 1.6 0 .7-.2 1-.5 1.5l-1 1c-.4.2-.8.2-1.3.2-.4.1-.8.1-1-.2a2.3 2.3 0 0 1-.6-.8A12.4 12.4 0 0 1 1.3.1L.8 3ZM3.1-.7c.4-.1.7-.3 1-.4l.5-.8.5-1.1.2-1.4c0-.8-.4-1.3-1-1.3l-.9.3-.7.8L2-3.4V-2c0 .3 0 .7.2.9.2.1.5.4 1 .4Zm0-.1"/>  <path id="c" d="m.3 0 1.4-6.4h.9l-.2 1.2h.1l.5-.6.7-.5a2 2 0 0 1 .9-.2c.4 0 .7 0 1 .3.2.3.4.6.4 1a4 4 0 0 1 .7-.5l.7-.6a2 2 0 0 1 .9-.2c.5 0 .7 0 1.1.4.3.1.4.6.4 1.1v.6l-.1.4-.8 4H7.8l.9-4v-1.4L8-5.7l-1 .3c-.2.2-.4.5-.7 1A5 5 0 0 0 5.7-3l-.6 3h-1l.8-4 .1-.8c0-.3 0-.5-.2-.6 0-.2-.3-.3-.5-.3l-.9.3c-.3.2-.6.5-.8 1-.3.4-.6.9-.6 1.5L1.4 0Zm0 0"/>  <path id="b" d="M3 .1C2.2.1 1.7 0 1.2-.5.8-.9.6-1.5.6-2.3c0-.6 0-1 .2-1.6l.7-1.4a3 3 0 0 1 1-.9L4-6.5h.8c.2 0 .5.2.7.3l-.3.8-.5-.2H4c-.5-.1-1 0-1.3.3A3 3 0 0 0 2-4l-.3 1.7c0 .5 0 .9.3 1.1.3.3.6.4 1 .4h1a9 9 0 0 0 .6-.5v1.1L4 0 2.9.1Zm0 0"/>  <path id="a" d="M3 0c-.8 0-1.4 0-1.8-.5C.8-1 .6-1.6.6-2.4c0-.5 0-1 .2-1.4.1-.5.2-1 .6-1.4.2-.4.6-.7 1-1 .4-.1.9-.2 1.4-.2.7-.1 1.3.1 1.7.6.5.4.7 1 .7 1.8 0 .5 0 1-.2 1.4l-.6 1.4-1 1C4 0 3.5 0 3 0Zm0-.7c.4-.1.8-.2 1-.5.5-.2.7-.6.9-1.1a5.3 5.3 0 0 0 .2-1.9 2 2 0 0 0-.1-.7l-.4-.5c-.2-.2-.6-.2-.8-.2-.4 0-.8.1-1.1.4-.4.3-.7.7-.8 1.2-.2.5-.3 1-.3 1.7 0 .5.2.8.4 1.1.3.3.6.4 1 .4Zm0-.1"/>  <path d="M1.1 0v-8.6h5V0Zm.6-.6h3.8V-8H1.7Zm0 0"/> </defs> <image xlink:href="svg/9/15_75.jpg" width="497" height="279"/> <path d="M251.9 58.2c-.9 0-1.4-.3-1.9-.7-.3-.4-.5-1-.5-1.8 0-.5 0-1 .2-1.5.1-.5.3-.9.6-1.2.2-.5.6-.8 1-1.1.4-.2.9-.3 1.4-.3.7 0 1.3.2 1.7.6.6.5.7 1 .7 1.8-.1.5-.1 1-.2 1.5l-.6 1.3c-.3.4-.6.8-1 1-.4.2-.9.4-1.4.4Zm0-1c.4.1.8.1 1.1-.2.4-.4.6-.8.8-1.3a5.3 5.3 0 0 0 .2-1.7 2 2 0 0 0-.1-.8l-.4-.6-.8-.2c-.4 0-.8.2-1.2.6-.3.2-.5.6-.7 1-.2.6-.3 1-.3 1.7 0 .5.1 1 .5 1.3 0 .2.5.3.9.3ZM258.6 58.2c-.6 0-1.3-.2-1.6-.6-.6-.4-.8-1-.8-1.8 0-.6.1-1.1.3-1.6.1-.6.3-1 .5-1.4a3 3 0 0 1 1.1-1l1.6-.2h.7l.8.2-.3 1-.6-.4h-.7c-.5 0-.9 0-1.2.4a3 3 0 0 0-.8 1.2c-.2.6-.3 1.1-.3 1.8 0 .5.1.8.4 1.1.2.3.6.4 1 .4l.8-.1a9 9 0 0 0 .8-.3v.9l-.8.3-.9.1Zm2.8-.2 1.4-6.3h.8v1.1l.4-.6.8-.5a2 2 0 0 1 .9-.2c.3 0 .7.1 1 .5.2.1.3.5.3.9a4 4 0 0 1 .7-.6l.7-.6a2 2 0 0 1 1-.2c.3 0 .7.2 1 .5.4.2.5.6.5 1.1v.5l-.1.6-.8 3.8h-1.1l.8-4 .1-.5v-.3c0-.2 0-.4-.2-.6l-.6-.2-.8.3-.8.9a5 5 0 0 0-.6 1.6l-.6 2.8h-1l.8-4 .1-.9c0-.1 0-.3-.1-.5l-.7-.2-.8.3c-.3.2-.6.5-.8 1-.3.3-.5.8-.7 1.5l-.5 2.9Zm9.9 3 2-9.5h.7v1.3a5 5 0 0 1 1-.8 2 2 0 0 1 1.2-.5c.5 0 1 .2 1.3.6.3.4.4.9.4 1.6.1.6.1 1.3-.2 1.7l-.6 1.6-1 .9c-.4.1-.8.2-1.3.2-.4.1-.8 0-1-.2a2.3 2.3 0 0 1-.6-.9 12.4 12.4 0 0 1-.2 1l-.6 3Zm3.4-3.8c.3.1.6.1.9-.2l.7-.8.4-1.2.3-1.3c-.1-.9-.5-1.3-1.1-1.3l-.9.3-.7.8c-.3.3-.4.7-.6 1.2l-.2 1.3c0 .4.1.7.3 1 .2.2.5.3 1 .3Zm6.8 1c-.7 0-1.3-.3-1.8-.7-.3-.4-.6-1-.6-1.8 0-.5 0-1 .2-1.5.1-.5.3-.9.7-1.2l1-1.1c.3-.2.8-.3 1.3-.3.8 0 1.4.2 1.8.6.4.5.6 1 .6 1.8 0 .5 0 1-.2 1.5-.1.5-.3 1-.5 1.3-.4.4-.7.8-1 1-.5.2-1 .4-1.5.4Zm0-1c.5.1.9.1 1.2-.2.3-.4.5-.8.7-1.3a5.3 5.3 0 0 0 .2-1.7 2 2 0 0 0 0-.8l-.6-.6-.7-.2c-.3 0-.8.2-1.1.6-.3.2-.6.6-.8 1l-.2 1.7c0 .5 0 1 .3 1.3.3.2.6.3 1 .3ZM288.4 58.2c-.9 0-1.5-.2-2-.7-.2-.5-.4-1.2-.4-2a5 5 0 0 1 .3-2c.2-.5.6-1 1.1-1.4.6-.4 1.2-.6 1.9-.6s1.2.2 1.6.5c.3.2.5.6.5 1.2 0 .4-.1.8-.4 1-.3.4-.7.6-1.2.7.4.1.6.2.9.4.2.2.3.5.3 1 0 .1 0 .4-.2.7-.2.4-.5.7-.9 1-.3.1-.9.2-1.5.2Zm-1.4-3.8h2.4l.6-.4c.3-.2.4-.4.4-.7 0-.3-.1-.5-.4-.6 0-.2-.3-.3-.7-.3-.6 0-1 .2-1.5.6-.3.3-.6.8-.7 1.4Zm1.5 3c.5-.1.9-.3 1.1-.4.4-.2.4-.5.4-.8 0-.3-.1-.5-.4-.7l-1.2-.2H287v.3c0 .6.1 1 .3 1.3.3.3.7.4 1.2.4Zm-36.5 15 1.8-8.6h1.2l-1 4.2 4-4.2h1.5l-4.5 4.3 2.8 4.3h-1.2l-2.6-4.3-1 4.3Zm8.6.1c-.6 0-1-.2-1.3-.5-.3-.4-.3-1-.3-1.7-.1-.6-.1-1.1 0-1.7.2-.5.5-1 .7-1.4l1-1c.4-.2.8-.2 1.3-.2.4-.1.8-.1 1 .2.3.2.5.5.6.8l.6-1h.7l-1.4 6.4h-.8l.1-1.2-1 1a2 2 0 0 1-1.2.2Zm.3-.9c.3 0 .6 0 .9-.3l.8-.9.4-1.2.2-.6V68c.1-.4.1-.7-.2-.9-.3-.2-.5-.4-.9-.4l-.9.3-.6.8-.6 1.2-.1 1.4c.1.4.1.6.3 1l.7.1Zm3.9 3.7 2-9.3h.9l-.2 1.2a5 5 0 0 1 1.1-1 2 2 0 0 1 1.1-.2c.5-.1 1 0 1.3.4.3.4.4 1 .4 1.7 0 .5 0 1.1-.2 1.6-.1.6-.2 1-.6 1.5l-1 1c-.4.2-.8.3-1.3.3-.3 0-.8 0-1-.3a2.3 2.3 0 0 1-.6-.8 12.4 12.4 0 0 1-.3 1.1l-.5 2.8Zm3.4-3.7c.4 0 .6 0 1-.3l.5-.8.5-1.1.2-1.4c0-.8-.4-1.3-1-1.3l-.9.3-.7.8-.6 1.2-.2 1.4c0 .3.1.6.3.9.2.2.5.3 1 .3Zm3.8.9h-.3l-.2-.2v-.9l.5.3c.2-.1.4-.2.6-.4l.4-.8a14 14 0 0 0 .6-1.4l.6-1.4a4 4 0 0 1 .5-1 2 2 0 0 1 .8-.7l1.2-.1h.8l.7.3-1.4 6.2h-1l1.2-5.6h-.5c-.3 0-.5 0-.8.2-.2.2-.4.4-.5.8l-.6 1.6a17 17 0 0 1-.7 1.7c-.2.4-.5.8-.8.9-.1.4-.6.5-1 .5Zm8.9 0c-.5 0-1-.2-1.3-.5-.3-.4-.5-1-.5-1.7 0-.6.1-1.1.3-1.7.1-.5.4-1 .6-1.4l1-1c.4-.2.8-.2 1.3-.2.4-.1.8-.1 1 .2.3.2.5.5.7.8l.5-1h.7l-1.4 6.4h-.8v-1.2l-1 1a2 2 0 0 1-1.1.2Zm.3-.9c.3 0 .6 0 .9-.3l.8-.9.5-1.2.1-.6V68c.1-.4.1-.7-.2-.9-.3-.2-.5-.4-.9-.4l-.9.3-.7.8-.4 1.2-.2 1.4c0 .4.1.6.3 1l.7.1Zm4.5-1.9.2-1h2.8l-.2 1Zm-48.5 17 4.8-8.5h.9l1.3 8.5H243l-.3-2.6h-3l-1.2 2.6Zm3.1-3.6h2.3l-.2-1.8a54.1 54.1 0 0 1-.2-2l-.5 1-.5 1Zm4.3 3.7h-.5v-1.1h.4c.3.2.5.2.7 0l.5-.9a14 14 0 0 0 .6-1.4c0-.6.3-1 .5-1.4a4 4 0 0 1 .5-1 2 2 0 0 1 .8-.6l1.2-.2h.8l.7.3-1.4 6.2h-1l1.2-5.5h-.6c-.2-.1-.5-.1-.7.1-.2.2-.3.5-.5.7l-.6 1.7a17 17 0 0 1-.7 1.7c-.2.6-.5.8-.8 1-.1.4-.5.5-.9.5Zm9.4.1c-.6 0-1.2-.3-1.6-.7-.4-.4-.7-1-.7-1.8l.3-1.4c0-.6.3-1.1.6-1.5l1-1c.4-.1.9-.2 1.4-.2.6-.1 1 0 1.3.3.3.2.5.6.5 1 0 .6-.1 1-.4 1.3-.3.3-.7.5-1.2.7-.6.2-1.3.4-2.2.4h-.2v.4c0 .5.2.9.4 1.2.2.2.6.4 1 .4l1.1-.1.7-.4v.9l-.9.3-1 .3Zm-1-3.9h1.5l.9-.4c.2-.2.4-.6.4-.8 0-.2-.1-.4-.3-.5 0-.3-.3-.3-.5-.3-.5 0-.9.2-1.2.6-.4.3-.6.8-.8 1.4Zm4.5 3.7 1.3-6.4h1l-.5 3 2.9-2.9h1.3l-3.1 3.1 2.1 3.2h-1.2l-2-3.2-.9 3.2Zm8.2.2c-.7 0-1.3-.2-1.7-.6-.5-.4-.7-1-.7-1.9l.3-1.6c.1-.5.3-1 .6-1.4a3 3 0 0 1 1.1-.9c.4-.2.9-.3 1.4-.3h.8l.8.4-.3.8-.6-.2-.7-.2c-.5 0-.9.2-1.2.5a3 3 0 0 0-.8 1.3c-.2.5-.3 1-.3 1.6 0 .6.1.9.4 1.2.2.2.6.4 1 .4l.8-.1a9 9 0 0 0 .8-.3v.9l-.8.2-.9.3Zm4.8 0c-.5 0-1-.2-1.3-.6-.2-.4-.3-1-.3-1.7-.1-.5-.1-1.1.1-1.6l.7-1.5c.2-.4.6-.7 1-1 .3-.2.7-.3 1.1-.3.5 0 .9.1 1.2.3.3.2.5.5.6.8l.4-1h.8l-1.4 6.4h-.8l.1-1.2-1 1a2 2 0 0 1-1.2.4Zm.3-1c.3.1.6.1 1-.2l.6-.9.6-1.3.1-.5v-.6c.1-.4.1-.7-.1-1-.3-.2-.6-.3-1-.3-.3-.1-.6-.1-.8.3-.3.2-.5.4-.7.8l-.5 1.1-.2 1.4c0 .3.2.7.3 1 .2.1.4.3.7.3ZM275.3 86.7l1.4-6.4h1l-.4 2.7h2.9l.6-2.7h1l-1.2 6.4h-1.1l.5-2.7h-3l-.6 2.7Zm9.7.2c-.9 0-1.4-.3-1.8-.7-.2-.4-.4-1-.4-1.7 0-.4 0-1 .2-1.4l.5-1.1 1-1.1c.4-.2.8-.3 1.3-.3.4 0 .8 0 1 .3a2 2 0 0 1 .8.7v-.3c-.1-1-.2-1.8-.5-2.3-.3-.4-.7-.6-1.1-.6a3 3 0 0 0-.7 0l-.7.2-.2-.6a3 3 0 0 1 .6-.4 4 4 0 0 1 1.1-.1c.7 0 1.4.3 1.9 1 .4.5.6 1.5.6 2.6 0 .6 0 1.1-.2 1.6 0 .5-.2 1-.4 1.5l-.7 1.4-1 1c-.4 0-.9.2-1.4.2Zm0-1c.4.1.8.1 1-.3a4 4 0 0 0 .9-1.3l.4-1.6a2.3 2.3 0 0 0-.5-1c-.2-.1-.6-.2-1-.2-.2-.1-.5 0-.9.3l-.7 1.1c-.2.5-.2 1.1-.2 1.6-.1.4-.1.8 0 1 .3.3.6.5 1.1.5Zm3.7 3.7 2-9.3h.9l-.2 1.2a5 5 0 0 1 1.1-1 2 2 0 0 1 1.1-.2c.6-.1 1 .1 1.4.4.2.4.4 1 .4 1.7 0 .6-.1 1.1-.4 1.6 0 .6-.2 1-.5 1.5s-.5.8-1 1c-.3.2-.8.4-1.3.4-.4 0-.8-.2-1-.4a2.3 2.3 0 0 1-.6-.8 12.4 12.4 0 0 1-.3 1.1l-.5 2.8Zm3.4-3.6c.4 0 .7-.1 1-.3l.5-.9.5-1.1.2-1.3c0-.9-.4-1.4-1-1.4-.3 0-.6 0-.9.4-.2.2-.4.4-.7.8l-.6 1.1-.1 1.4c0 .3 0 .7.2 1 .2.1.5.3 1 .3Zm6.2.9c-.5 0-1-.2-1.3-.6-.3-.4-.5-1-.5-1.7l.3-1.6c.1-.6.2-1 .6-1.5l1-1c.4-.2.8-.3 1.3-.3.3 0 .8.1 1 .3.3.2.5.5.6.8l.5-1h.8l-1.4 6.4h-.9l.2-1.2-1 1a2 2 0 0 1-1.2.4Zm.3-1c.4.1.6.1.9-.2l.8-.9.5-1.3.1-.5v-.6c.1-.4.1-.7-.3-1-.2-.2-.5-.3-.8-.3-.3-.1-.6-.1-.9.3-.2.2-.5.4-.7.8l-.4 1.1-.2 1.4c0 .3.1.7.4 1 0 .1.3.3.6.3Zm0 .1" style="fill:none;stroke-width:2;stroke-linecap:butt;stroke-linejoin:round;stroke:#fff;stroke-opacity:.6;stroke-miterlimit:10" transform=" rotate(  340 270.382 69.398) "/> <g style="fill:#000;fill-opacity:1" transform=" rotate(  340 270.382 69.398) ">  <use xlink:href="#a" x="248.9" y="58.1"/>  <use xlink:href="#b" x="255.6" y="58.1"/>  <use xlink:href="#c" x="261.1" y="58.1"/>  <use xlink:href="#d" x="271.6" y="58.1"/>  <use xlink:href="#a" x="278.5" y="58.1"/>  <use xlink:href="#e" x="285.3" y="58.1"/>  <use xlink:href="#f" x="251.5" y="72.4"/>  <use xlink:href="#g" x="258.3" y="72.4"/>  <use xlink:href="#d" x="265.1" y="72.4"/>  <use xlink:href="#h" x="272" y="72.4"/>  <use xlink:href="#g" x="278.6" y="72.4"/>  <use xlink:href="#i" x="285.4" y="72.4"/>  <use xlink:href="#j" x="237.9" y="86.7"/>  <use xlink:href="#h" x="244.6" y="86.7"/>  <use xlink:href="#k" x="251.2" y="86.7"/>  <use xlink:href="#l" x="257.2" y="86.7"/>  <use xlink:href="#b" x="262.8" y="86.7"/>  <use xlink:href="#g" x="268.2" y="86.7"/>  <use xlink:href="#m" x="275" y="86.7"/>  <use xlink:href="#n" x="282.2" y="86.7"/>  <use xlink:href="#d" x="289" y="86.7"/>  <use xlink:href="#g" x="296" y="86.7"/> </g></svg>