<svg xmlns="http://www.w3.org/2000/svg" xmlns:xlink="http://www.w3.org/1999/xlink" viewBox="0 0 497 279"> <defs overflow="visible" style="stroke:none">  <path id="f" d="M1.7-7.6v4.8L2-3v-.3l.4-.2L4-5.4h1L2.9-3l2.4 3H4.2L2.3-2.5l-.6.5v2H.8v-7.6Zm0 0"/>  <path id="e" d="m.8-6.8.1-.4.4-.2c.1 0 .3 0 .4.2l.1.4-.1.4-.4.2-.4-.3-.1-.3ZM.2 2.4h-.4l-.3-.1v-.7H.6c.2-.2.2-.6.2-.8v-6.2h1V.8c-.1.5-.3.9-.5 1.2-.3.3-.5.4-1.1.4Zm0 0"/>  <path id="d" d="M5.5-2.7c0 .9-.2 1.7-.7 2-.4.7-1 .9-1.8.9-.5-.2-.9-.2-1.3-.4-.3-.2-.6-.6-.7-1C.6-1.6.5-2 .5-2.7c0-.9.3-1.6.7-2 .5-.5 1-.8 1.8-.8.5 0 1 .2 1.3.5.4 0 .7.4.9.9.2.2.3.7.3 1.3Zm-4 0c0 .7 0 1.2.3 1.5.3.4.7.6 1.2.6.6 0 1-.2 1.2-.6.3-.3.4-.8.4-1.5s-.1-1.1-.4-1.5c-.2-.3-.6-.5-1.2-.5-.5 0-1 .2-1.2.5-.2.4-.3.9-.3 1.5Zm0 0"/>  <path id="c" d="M4.3 0h-4v-.6l3.1-4H.6v-.9h3.6v.8l-2.8 4h3Zm0 0"/>  <path id="b" d="M2.9-5.5c.6 0 1.1.2 1.4.5.3.3.5.7.5 1.3V0h-.6L4-.8c-.3.3-.5.6-.8.8h-1c-.5 0-1 0-1.3-.3C.6-.5.5-.9.5-1.5c0-.5.2-1 .5-1.2.5-.3 1-.5 2-.5h.8v-.3c.2-.5.2-.8-.2-1l-.8-.2H2l-.7.5L1-5l1-.3.9-.2Zm1 2.9h-.8c-.6 0-1 .1-1.4.3-.1.3-.3.5-.3.8 0 .3 0 .5.2.7l.7.2c.5 0 .9-.1 1.2-.4.3-.2.4-.6.4-1Zm.1 0"/>  <path id="a" d="M4-3.8h2.6v3.5A8.4 8.4 0 0 1 4 .1C3.3 0 2.7-.1 2.2-.3A3 3 0 0 1 1-1.6c-.3-.6-.4-1.2-.4-2 0-.7.2-1.4.4-1.9a3 3 0 0 1 1.3-1.3c.7-.2 1.2-.4 2-.4h1.1a5 5 0 0 1 1 .5l-.3.7a7.4 7.4 0 0 0-.9-.3l-1-.2c-.7 0-1.4.3-1.9.8-.4.5-.7 1.2-.7 2.1-.1.6 0 1.1.2 1.6.2.4.5.7.9 1 .3.3.9.4 1.5.4a5.8 5.8 0 0 0 1.4-.2V-3H4.1Zm0 0"/>  <path d="M1 0v-7.1h4V0Zm.4-.5h3.1v-6.1h-3Zm.1 0"/> </defs> <image xlink:href="svg/9/17_2.jpg" width="497" height="279"/> <path d="M14.5 225H17v3.5a8.4 8.4 0 0 1-2.5.5c-.7-.1-1.4-.2-1.9-.5a3 3 0 0 1-1.1-1.3c-.3-.6-.5-1.2-.5-2 0-.7.2-1.2.5-1.9a3 3 0 0 1 1.3-1.3c.5-.3 1.2-.4 2-.4h1.1a5 5 0 0 1 1.1.4l-.4.8a7.4 7.4 0 0 0-.9-.3l-1-.1c-.7 0-1.5.2-2 .6-.4.6-.7 1.4-.7 2.2 0 .6.1 1.1.3 1.5.2.5.5.8.9 1 .4.3.8.5 1.5.5a5.8 5.8 0 0 0 1.4-.2v-2.2h-1.6Zm6.1-1.6c.7 0 1.2.1 1.5.4.3.2.4.7.4 1.4v3.6H22l-.3-.8-.7.7-1 .2c-.7 0-1-.1-1.4-.4-.2-.2-.4-.5-.4-1.2 0-.5.2-1 .6-1.2.5-.3 1.2-.5 2-.5h.9v-.3c0-.5-.1-.8-.3-1l-.8-.2-.8.1c-.3 0-.5.2-.8.3l-.2-.7.8-.3 1-.1Zm1 2.8H21c-.8 0-1.2.2-1.5.3-.3.2-.4.5-.4.8 0 .3.1.7.3.7l.6.2c.6 0 .9-.1 1.2-.4.3-.2.5-.6.5-1.1Zm6.1 2.6h-4v-.6l3.1-4h-3v-.9h3.8v.8l-2.8 4h2.9Zm5.9-2.7c0 1-.3 1.6-.7 2-.5.7-1 .9-1.9.9-.4-.1-1-.2-1.2-.4-.4-.2-.8-.6-.9-1-.2-.4-.3-.9-.3-1.5 0-.9.2-1.5.7-2 .4-.5 1-.7 1.7-.7.6 0 1 0 1.4.3.3.2.6.5.8 1 .3.3.4.7.4 1.3Zm-4 0c-.1.7-.1 1.2.2 1.5.2.4.7.6 1.2.6.6 0 1-.2 1.3-.6.2-.3.4-.8.4-1.5 0-.6-.2-1.1-.4-1.5-.3-.3-.7-.5-1.3-.5-.5-.1-1 .2-1.1.5-.3.4-.4.9-.4 1.5ZM34.9 222l.1-.4.4-.2c.1 0 .3 0 .4.2l.1.4-.1.4-.4.2c-.1 0-.3 0-.4-.2v-.4Zm-.6 9.2H34l-.4-.2v-.6h1.1c.3-.2.3-.4.3-.8v-6.2h.8v6.2c0 .5 0 .9-.3 1.2-.3.2-.6.4-1.2.4Zm5.3-7.8c.6 0 1.1.1 1.4.4.3.2.5.7.5 1.4v3.6h-.7l-.1-.8c-.4.3-.6.6-.9.7l-.9.2c-.6 0-1.1-.1-1.4-.4-.2-.2-.4-.5-.4-1.2 0-.5.3-1 .7-1.2.4-.3 1-.5 2-.5h.7v-.3c.1-.5.1-.8-.2-1l-.8-.2-.8.1-.7.3-.3-.7.9-.3 1-.1Zm1 2.8h-.8c-.6 0-1.1.2-1.4.3-.2.2-.3.5-.3.8-.1.3-.1.7.2.7l.7.2c.5 0 1-.1 1.2-.4.3-.2.4-.6.4-1.1Zm3.4-5v4.8l.2-.2.2-.3.3-.2 1.7-1.9h1l-2.2 2.3 2.4 3.1h-1.1l-1.9-2.5-.6.5v2h-.9v-7.6Zm0 0" style="fill:none;stroke-width:3;stroke-linecap:butt;stroke-linejoin:round;stroke:#fff;stroke-opacity:.6;stroke-miterlimit:10" transform=" rotate(  340 30.0255 225.807) "/> <g style="fill:#222;fill-opacity:1" transform=" rotate(  340 30.0255 225.807) ">  <use xlink:href="#a" x="10.5" y="228.8"/>  <use xlink:href="#b" x="17.8" y="228.8"/>  <use xlink:href="#c" x="23.4" y="228.8"/>  <use xlink:href="#d" x="28.1" y="228.8"/>  <use xlink:href="#e" x="34.1" y="228.8"/>  <use xlink:href="#b" x="36.7" y="228.8"/>  <use xlink:href="#f" x="42.3" y="228.8"/> </g></svg>