<svg xmlns="http://www.w3.org/2000/svg" xmlns:xlink="http://www.w3.org/1999/xlink" viewBox="0 0 497 279"> <defs>  <path d="M1 0v-7.1h4V0Zm.4-.5h3.1v-6.1h-3Zm.1 0" id="reuse-0"/> </defs> <defs overflow="visible" style="stroke:none">  <path id="z" d="m.2 0 1.2-5.4h.8l-.2 1 .5-.6a2 2 0 0 1 .6-.3l.9-.2c.3 0 .6.1.9.5.1 0 .4.4.4.9v.4l-.2.5L4.4 0h-.9l.7-3.4v-.4l.2-.2c-.1-.5-.3-.7-.8-.7-.2 0-.4 0-.6.2-.3.2-.6.5-.8.8-.2.3-.4.8-.5 1.4L1.2 0Zm0 0"/>  <path id="y" d="M-.4 0 2-2.8.8-5.4h.9l.8 2 1.6-2H5L2.9-2.7 4 0h-.8l-.9-2L.7 0Zm0 0"/>  <path id="x" d="M.6-4.7v-.1L1.2-6l.7-1h.7L2-6l-.4 1.3Zm0 0"/>  <path id="w" d="M3 2.4 3.5.1v-.5l.4-.6h-.3l-.7.8c-.3.2-.6.2-.9.2s-.8-.1-1-.4C.6-.7.5-1 .5-1.7c0-.5 0-1 .2-1.4 0-.5.3-.9.5-1.2.2-.4.5-.7.8-.8a2 2 0 0 1 1.1-.4c.4 0 .7.1.9.3l.5.7.3-.9h.7L3.8 2.4Zm-.8-3c.3 0 .5-.1.8-.4l.5-.5a3.8 3.8 0 0 0 .6-2c.1-.5.1-.8-.1-1-.2-.1-.5-.2-.8-.2-.3 0-.5 0-.7.2-.3.2-.5.5-.6.7l-.4 1-.1 1.1c0 .7.3 1 .8 1Zm0 0"/>  <path id="v" d="M1.8 0c-.3 0-.6 0-.8-.1C.7-.3.6-.6.6-1v-.8l.8-2.9h-1L.5-5l1-.5.5-1h.6l-.3 1h1.3l-.1.8H2.2l-.7 3v.8l.5.3h.3l.4-.3V0h-.9Zm0 0"/>  <path id="u" d="m.3 0 1.6-7.6h.9L1.2 0Zm0 0"/>  <path id="t" d="M1 0 .6-5.4h.8l.3 3v1.7h.2l.1-.5a24.4 24.4 0 0 1 .6-1.2l1.6-3h1L2.2 0Zm0 0"/>  <path id="s" d="M2 0c-.6 0-.9 0-1.2-.3C.6-.7.5-1 .5-1.7c0-.5 0-1 .2-1.5l.5-1.1c.2-.4.5-.7.8-.9a2 2 0 0 1 1.1-.3c.4 0 .6.1.9.3l.5.7.3-.9h.7L4.4 0h-.7l.1-1c-.3.3-.5.6-.9.8-.3.2-.6.2-.9.2Zm.1-.5c.4-.1.6-.2.9-.5l.6-.6a4 4 0 0 0 .4-1 3 3 0 0 0 .1-.7 4 4 0 0 0 0-.4c.1-.3.1-.5-.1-.7-.3-.2-.5-.3-.8-.3-.3 0-.5 0-.7.2a2 2 0 0 0-.6.7l-.4 1-.1 1.1c0 .4 0 .6.2.8.1.2.3.3.6.3Zm.1-.1"/>  <path id="r" d="M2 0c-.6 0-.9 0-1.2-.3C.6-.7.5-1 .5-1.7c0-.5 0-1 .2-1.4 0-.5.3-.9.5-1.2.2-.4.5-.7.8-.8a2 2 0 0 1 1.1-.4c.4 0 .7.1.9.3l.5.7a35.3 35.3 0 0 1 .2-1.3l.4-1.8H6L4.4 0h-.8l.1-1-.8.8c-.3.2-.6.2-.9.2Zm.1-.5c.4-.1.6-.2.9-.5l.5-.5.5-1 .2-1.1c0-.4-.2-.6-.3-.8-.1-.2-.4-.3-.7-.3-.3 0-.5 0-.8.2l-.4.7-.5 1-.1 1.1c0 .7.3 1 .8 1Zm.1-.1"/>  <path id="q" d="m.3 0 1.1-5.4h.7v1l.4-.5.5-.4.7-.2H4l.3.2-.2.7h-.5c-.3-.1-.6-.1-.9.2l-.7.9-.3 1L1.2 0Zm0 0"/>  <path id="p" d="M2.5 0C1.9 0 1.4 0 1-.4.7-.8.5-1.3.5-2l.1-1.2a4 4 0 0 1 .5-1.1c.3-.3.5-.7.9-.8.3-.2.7-.3 1.2-.3.6 0 1 .2 1.4.4.4.5.6 1.1.6 1.6L5-2a4 4 0 0 1-.5.9c-.2.5-.5.8-.8 1L2.5 0Zm0-.6c.5-.1.6-.1 1-.4.1-.2.3-.5.5-1 .2-.3.3-.8.3-1.4L4.2-4a1 1 0 0 0-.4-.5l-.6-.2c-.4 0-.7.1-1 .4-.2.2-.5.6-.6 1A4 4 0 0 0 1.4-2c0 .5 0 .8.3 1 .2.2.5.3.8.3Zm0-.1"/>  <path id="o" d="M1.5 0H.7L0-.2V-1l.7.3h.8c.5.1.7.1 1-.1l.1-.7c.1-.1.1-.3-.1-.4 0-.2-.3-.3-.7-.5L1-3.1c-.2-.2-.3-.5-.3-.8 0-.5.1-.9.5-1.1.3-.3.7-.5 1.3-.5.3 0 .6 0 .9.2l.6.2-.2.7-.5-.2-.8-.1c-.3 0-.5 0-.7.2-.2.1-.2.3-.2.5l.1.5.7.5c.3 0 .6.2.6.4.2 0 .4.2.5.4l.1.7c0 .5-.2 1-.5 1.2C2.7 0 2 0 1.5 0Zm0 0"/>  <path id="n" d="M2.1-6.3h-.3l-.1-.5.1-.4.4-.2c.3 0 .5.2.5.5 0 .2 0 .4-.2.5l-.4.2ZM.3 0l1.1-5.4h.9L1.2 0Zm0 0"/>  <path id="m" d="M.4 0 2-7.1h1l-.9 3h3.2l.7-3h.8L5.3 0h-.8l.7-3.3H2L1.3 0Zm0 0"/>  <use xlink:href="#reuse-0"/>  <path id="l" d="M4.3 0h-4v-.6l3.1-4H.6v-.9h3.6v.8l-2.8 4h3Zm0 0"/>  <path id="k" d="M1.7-7.6v2.9l.7-.5c.2-.2.6-.3 1-.3.6 0 1.2.3 1.6.8.4.4.6 1.1.6 1.9C5.6-1.7 5.4-1 5-.6c-.4.6-1 .7-1.6.7-.4-.1-.8-.1-1-.2l-.7-.6-.2.7H.8v-7.6Zm1.5 2.9c-.5 0-1 .1-1.1.5-.3.2-.4.8-.4 1.5s.1 1.2.3 1.5c.3.4.7.6 1.3.6.4 0 .7-.2 1-.6.3-.3.4-.8.4-1.5 0-1.3-.5-2-1.5-2Zm0 0"/>  <path id="j" d="M4.3-1.5c0 .5-.2 1-.5 1.2-.4.3-1 .4-1.6.4l-1-.1-.7-.2V-1l.8.3h1.8l.4-.7-.1-.4L3-2a7.5 7.5 0 0 0-.8-.4 7.5 7.5 0 0 1-1-.4l-.4-.5L.5-4c0-.5.2-.8.6-1 .3-.4.8-.6 1.4-.6l1 .2a4 4 0 0 1 .6.4l-.1.6-.8-.2-.7-.1-.9.1c-.2.2-.3.3-.3.6s0 .2.2.3l.4.3.8.3.9.4.4.5c.3.2.3.4.3.7Zm0 0"/>  <path id="i" d="M1.3-7.4c.1 0 .3 0 .4.2l.1.4-.1.4-.4.2-.4-.3-.1-.3.1-.4.4-.2Zm.4 2V0H.8v-5.4Zm0 0"/>  <path id="h" d="M1.7-7.6v3c.3-.4.4-.5.7-.6.3-.2.7-.3 1-.3.7 0 1.2.2 1.6.5.2.3.4.8.4 1.5V0h-.9v-3.4c0-.9-.4-1.3-1.2-1.3-.6 0-1 .2-1.2.5-.3.3-.4.8-.4 1.4V0H.8v-7.6Zm0 0"/>  <path id="g" d="M2.8 0C2 0 1.4 0 1-.5.7-1 .5-1.8.5-2.6c0-1.1.3-1.8.7-2.2.4-.5.8-.7 1.6-.7.4 0 .7.1 1 .3a2 2 0 0 1 .6.5v-2.8h.9V0h-.7l-.1-.7a2 2 0 0 1-.8.6l-.9.1Zm0-.5c.8-.1 1.1-.3 1.4-.6.1-.3.2-.8.2-1.4v-.2c0-.6 0-1.1-.3-1.5-.2-.4-.6-.5-1.2-.5-.5 0-.9.2-1 .5-.4.4-.5 1-.5 1.5.1.7.1 1.2.4 1.5.3.4.6.6 1 .6Zm.1-.1"/>  <path id="f" d="M3.4-5.5c.7 0 1.2.2 1.6.5.2.3.4.8.4 1.5V0h-.9v-3.4c0-.9-.4-1.3-1.2-1.3-.6 0-1 .1-1.2.5-.3.2-.4.8-.4 1.4V0H.8v-5.4h.8v.8h.2c.2-.4.3-.5.7-.7l1-.2Zm0 0"/>  <path id="e" d="M4.4 2.4V-.7l-.6.6-1 .1C2 0 1.5-.1 1.1-.6.8-1 .5-1.8.5-2.6c0-1.1.3-1.8.7-2.2.4-.5 1-.7 1.6-.7.4 0 .7.1 1 .3a2 2 0 0 1 .6.6l.3-.8h.6v7.8ZM3-.6c.5 0 1-.2 1.1-.5.2-.3.3-.8.3-1.4v-.2c0-.6 0-1.2-.3-1.5-.2-.4-.6-.5-1.2-.5-.5 0-.9.2-1.1.5-.2.4-.3 1-.3 1.5 0 .7 0 1.2.3 1.5.3.4.6.6 1.2.6Zm0 0"/>  <path id="d" d="M3.3-5.5H4l-.1 1.1-.3-.3h-.3c-.3 0-.5 0-.8.2l-.5.7-.3 1V0H.8v-5.4h.8v1h.2l.6-.6c.3-.3.6-.5 1-.5Zm0 0"/>  <path id="c" d="M6.7-5.5c.6 0 1 .2 1.4.5.3.3.4.8.4 1.5V0h-.8v-3.5c0-.8-.4-1.2-1.1-1.2-.6 0-1 .1-1.1.4C5.2-4 5-3.5 5-3v3h-.7v-3.5c0-.8-.4-1.2-1.1-1.2-.6 0-1 .1-1.2.5-.2.2-.3.8-.3 1.4V0H.8v-5.4h.8v.8h.2l.6-.7 1-.2c.7 0 1.2.3 1.6 1 .2-.5.4-.7.7-.8.3-.1.7-.2 1-.2Zm0 0"/>  <path id="b" d="M2.9-5.5c.6 0 1.1.2 1.4.5.3.3.5.7.5 1.3V0h-.6L4-.8c-.3.3-.5.6-.8.8h-1c-.5 0-1 0-1.3-.3C.6-.5.5-.9.5-1.5c0-.5.2-1 .5-1.2.5-.3 1-.5 2-.5h.8v-.3c.2-.5.2-.8-.2-1l-.8-.2H2l-.7.5L1-5l1-.3.9-.2Zm1 2.9h-.8c-.6 0-1 .1-1.4.3-.1.3-.3.5-.3.8 0 .3 0 .5.2.7l.7.2c.5 0 .9-.1 1.2-.4.3-.2.4-.6.4-1Zm.1 0"/>  <path id="a" d="M5-2c0 .8-.2 1.3-.7 1.7-.3.2-1 .3-1.8.3H1.4a3 3 0 0 1-.9-.2v-.9a5 5 0 0 0 1 .3l.9.1c.6 0 1.1 0 1.3-.3.3-.2.4-.5.4-.8L4-2.4 3.5-3a7.2 7.2 0 0 0-1-.3c-.8-.2-1.2-.5-1.5-.8C.7-4.4.6-5 .6-5.4s0-.7.3-1a2 2 0 0 1 .8-.6 3 3 0 0 1 1.2-.2h1a5 5 0 0 1 1.1.5l-.5.6a4.5 4.5 0 0 0-.7-.2l-1-.2c-.3 0-.6.1-.9.3-.3.2-.4.5-.4.8 0 .2 0 .4.2.6 0 .2.2.3.3.4l1.1.4.9.5.8.7.2.8Zm0 0"/>  <use xlink:href="#reuse-0"/> </defs> <image xlink:href="svg/9/19_0.jpg" width="497" height="279"/> <path d="M118 67.7c0 .6-.3 1.1-.7 1.5-.5.3-1 .5-1.9.5h-1a3 3 0 0 1-1.1-.4v-.8a5 5 0 0 0 1.2.3l.9.1c.6.1 1.1.1 1.4-.3.1-.2.2-.5.2-.8 0-.3 0-.5-.1-.6.1-.2-.3-.3-.5-.5a7.2 7.2 0 0 0-1-.4c-.6-.2-1-.5-1.4-.8-.3-.3-.4-.8-.4-1.3 0-.4 0-.7.2-1a2 2 0 0 1 .8-.6 3 3 0 0 1 1.2-.2h1.2a5 5 0 0 1 .8.5l-.3.6a4.5 4.5 0 0 0-.8-.2l-.9-.1c-.4 0-.8 0-1 .3-.2.1-.3.4-.3.7l.1.6.5.4c.2.2.5.3 1 .4l.9.5c.4.2.6.4.7.7.3.2.3.5.3.9zm3.3-3.5c.7 0 1.2.1 1.5.4.2.3.4.7.4 1.4v3.6h-.6l-.2-.8c-.2.3-.5.6-.8.7l-1 .2c-.5 0-.9-.1-1.2-.4-.4-.2-.5-.6-.5-1.2 0-.5.2-1 .6-1.1.5-.4 1.1-.6 2-.6h.9V66c0-.4-.1-.7-.4-1h-1.5c-.3 0-.5.2-.7.3l-.3-.7.8-.3 1-.1zm1 2.8h-.6c-.8 0-1.2.2-1.5.3-.3.2-.4.5-.4.8 0 .3.2.6.3.7l.7.2c.4 0 .8-.1 1.1-.4.3-.2.5-.6.5-1.1zm8.5-2.8c.6 0 1 .1 1.2.4.4.4.6.8.6 1.5v3.5h-.9v-3.4c0-.9-.3-1.3-1-1.3s-1.1.1-1.3.4c-.1.3-.2.8-.2 1.4v3h-.9v-3.6c0-.8-.3-1.2-1-1.2s-1.1.1-1.3.5c-.1.3-.2.8-.2 1.4v2.8h-.9v-5.3h.7l.1.7c.3-.3.6-.5.9-.6.2-.2.4-.2.8-.2.8 0 1.4.3 1.6.8.3-.3.6-.5.9-.6.1-.2.5-.2.9-.2zm5.5 0c.6 0 1.1.1 1.4.4.3.3.5.7.5 1.4v3.6h-.6l-.2-.8c-.4.3-.5.6-.8.7l-1 .2c-.6 0-1-.1-1.3-.4-.3-.2-.3-.6-.3-1.2-.1-.5 0-1 .5-1.1.4-.4 1-.6 2-.6h.7V66c.1-.4.1-.7-.2-1h-1.6l-.7.3-.2-.7.8-.3 1-.1zm1 2.8h-.8c-.5 0-1 .2-1.3.3-.3.2-.4.5-.4.8 0 .3 0 .6.2.7l.8.2c.4 0 .8-.1 1-.4.5-.2.6-.6.6-1.1zm5.1-2.8h.6l-.1.8h-.6c-.3 0-.5 0-.8.2-.2.1-.4.3-.5.6-.2.3-.2.6-.2 1v2.8h-1v-5.3h.9v1h.1c.2-.5.3-.7.6-.9.3-.1.6-.2 1-.2zm5 7.8v-3l-.7.5-1 .2c-.7 0-1.2-.2-1.7-.7-.3-.5-.5-1-.5-2s.2-1.8.5-2.2c.5-.4 1.1-.6 1.7-.6.4 0 .8 0 1 .2a2 2 0 0 1 .7.6l.1-.8h.7V72zm-1.5-3c.5 0 .9-.2 1.1-.5.2-.3.4-.8.4-1.4V67c0-.7-.1-1.3-.4-1.6-.2-.3-.6-.4-1.2-.4-.5-.1-.8 0-1 .5-.4.3-.5.8-.5 1.5.1.6.2 1 .5 1.5.2.3.6.5 1 .5zm6.1-4.8c.6 0 1 .1 1.4.4.3.3.6.7.6 1.4v3.6h-.7l-.3-.8c-.2.3-.4.6-.7.7l-1 .2c-.5 0-1-.1-1.3-.4-.3-.2-.4-.6-.4-1.2 0-.5.2-1 .6-1.1.4-.4 1-.6 2-.6h.8V66c0-.4 0-.7-.3-1h-1.6l-.7.3-.3-.7.9-.3 1-.1zm1 2.8h-.8c-.6 0-1 .2-1.4.3-.2.2-.3.5-.3.8 0 .3 0 .6.2.7l.7.2c.6 0 .9-.1 1.2-.4.3-.2.4-.6.4-1.1zm5.1-2.8c.7 0 1.2.1 1.5.4.3.4.4.8.4 1.5v3.5h-.8v-3.4c0-.9-.4-1.3-1.2-1.3-.6 0-1 .1-1.2.5-.2.3-.4.8-.4 1.4v2.8h-.8v-5.3h.7v.7h.2c.1-.3.5-.5.7-.6.3-.2.6-.2 1-.2zm5.5 5.5c-.6 0-1.2-.2-1.6-.7-.4-.5-.6-1-.6-2s.2-1.8.6-2.2c.4-.4 1-.6 1.7-.6.3 0 .7 0 1 .2a2 2 0 0 1 .6.5V62h.9v7.6h-.7l-.2-.6a2 2 0 0 1-.6.5l-1 .2zm.2-.7c.5 0 1-.2 1.2-.5.2-.3.3-.8.3-1.4V67c0-.7 0-1.2-.3-1.6-.2-.3-.6-.4-1.2-.4-.5-.1-.9 0-1.1.5-.2.3-.4.8-.4 1.5 0 .6.2 1 .4 1.5.2.3.6.5 1 .5zm0 0" style="fill:none;stroke:#fff;stroke-width:3;stroke-linecap:butt;stroke-linejoin:round;stroke-miterlimit:10;stroke-opacity:.6" transform=" rotate(  340 139.666 66.6101) "/> <g style="fill:#212121;fill-opacity:1" transform=" rotate(  340 139.666 66.6101) ">  <use xlink:href="#a" x="113" y="69.6"/>  <use xlink:href="#b" x="118.4" y="69.6"/>  <use xlink:href="#c" x="124.1" y="69.6"/>  <use xlink:href="#b" x="133.4" y="69.6"/>  <use xlink:href="#d" x="139" y="69.6"/>  <use xlink:href="#e" x="142.9" y="69.6"/>  <use xlink:href="#b" x="149.1" y="69.6"/>  <use xlink:href="#f" x="154.7" y="69.6"/>  <use xlink:href="#g" x="160.9" y="69.6"/> </g> <path d="M90.8 221.3c0 .6-.3 1-.8 1.4-.4.4-1 .6-1.8.6l-1.1-.1a3 3 0 0 1-.8-.3v-.8a5 5 0 0 0 .7.2l1.3.2c.5 0 .9-.1 1.2-.3.2-.2.4-.5.4-.9l-.2-.6-.5-.4a7.2 7.2 0 0 0-1-.4l-1.4-.9c-.3-.3-.5-.7-.5-1.3 0-.3.1-.7.3-1a2 2 0 0 1 .8-.5 3 3 0 0 1 1.2-.2h1a5 5 0 0 1 1.1.3l-.4.8a4.5 4.5 0 0 0-.8-.3h-1c-.3-.1-.6-.1-.9.2-.1.2-.3.4-.3.8l.2.6.4.4.9.4 1 .5.8.6c.1.3.2.7.2 1zm2.2-5.7v2.9l.7-.5 1-.3c.5 0 .9.3 1.3.5.4.3.6.8.6 1.5v3.5h-.9v-3.5c0-.7-.4-1.3-1.2-1.3-.5 0-1 .2-1.2.6-.3.3-.3.8-.3 1.4v2.8h-1v-7.6zm7.3 2.1c.6 0 1.1.3 1.4.4.3.3.5.9.5 1.4v3.7h-.6l-.2-.8-.8.6-1 .3c-.6 0-1-.3-1.3-.4-.3-.3-.3-.7-.3-1.2-.1-.7 0-1 .5-1.3.4-.2 1-.4 2-.4h.7v-.5c.1-.3.1-.5-.2-.9l-.8-.1c-.2-.1-.5-.1-.8.1l-.7.2-.2-.6.8-.4h1zm1 2.8h-.8c-.5.2-1 .3-1.3.5-.3 0-.4.3-.4.7 0 .3 0 .5.2.6.2.2.5.3.8.3.4 0 .7-.2 1-.4.5-.3.6-.7.6-1.2zm3.5-4.9v2.2l-.1.7.8-.5 1-.3c.5 0 .9.3 1.3.5.4.3.6.8.6 1.5v3.5h-.9v-3.5c0-.7-.4-1.3-1.2-1.3-.6 0-1 .2-1.2.6-.2.3-.3.8-.3 1.4v2.8h-1v-7.6zm7.7 2.1h.7l-.2 1h-.2l-.3-.3c-.3.1-.6.1-.8.3l-.6.7-.1.9v2.9h-1v-5.4h.8v1h.2l.6-.8c.3-.2.6-.3 1-.3zm2.1-1.9.4.1v.9l-.4.1-.4-.1v-.9l.4-.1zm.5 2v5.4H114v-5.4zm5.2 3.9c0 .5-.3.9-.6 1.2-.4.1-1 .4-1.7.4l-.9-.1-.7-.3v-.8l.8.3 1 .2c.3 0 .6-.1.8-.3.3-.1.4-.3.4-.5l-.1-.4-.4-.3a7.5 7.5 0 0 0-.9-.4 7.5 7.5 0 0 1-1-.4l-.3-.5-.3-.7c0-.4.2-.8.6-1 .3-.3.8-.4 1.4-.4l1 .1a4 4 0 0 1 .6.3l-.2.7-.7-.3h-1.6c-.2.2-.3.4-.3.6.1.1.1.2.3.3l.3.4.8.2.9.5.5.5c.2.2.3.4.3.7zm3.3-4c.6 0 1.1.3 1.4.4.3.3.5.9.5 1.4v3.7h-.6l-.2-.8-.9.6-.9.3c-.5 0-1-.3-1.3-.4-.3-.3-.5-.7-.5-1.2 0-.7.3-1 .7-1.3.4-.2 1-.4 2-.4h.7v-.5c.1-.3.1-.5-.2-.9l-.8-.1c-.3-.1-.5-.1-.8.1l-.7.2-.3-.6.9-.4h1zm1 2.8h-.8c-.6.2-1.1.3-1.4.5-.2 0-.3.3-.3.7-.1.3-.1.5.2.6.2.2.5.3.7.3.5 0 1-.2 1.2-.4.3-.3.4-.7.4-1.2zm3.4-4.9v2.9l.7-.6 1-.2c.7 0 1.2.3 1.6.7.4.6.6 1.2.6 2 0 1.1-.2 1.8-.6 2.3-.4.3-1 .6-1.6.6-.4 0-.8-.1-1-.3l-.7-.5-.2.7h-.8v-7.6zm1.5 2.8c-.5 0-1 .2-1.1.6-.4.3-.4.8-.4 1.5 0 .5.1 1.2.4 1.5.2.4.6.5 1.2.5.4 0 .8-.1 1-.5.4-.3.4-.9.4-1.5 0-1.5-.5-2-1.5-2zm7.2 4.8h-4v-.6l3-4.1h-2.9v-.7h3.8v.7l-2.8 4h2.9zm0 0" style="fill:none;stroke:#fff;stroke-width:3;stroke-linecap:butt;stroke-linejoin:round;stroke-miterlimit:10;stroke-opacity:.6" transform=" rotate(  340 111.79 220.16) "/> <g style="fill:#212121;fill-opacity:1" transform=" rotate(  340 111.79 220.16) ">  <use xlink:href="#a" x="85.7" y="223.2"/>  <use xlink:href="#h" x="91.2" y="223.2"/>  <use xlink:href="#b" x="97.4" y="223.2"/>  <use xlink:href="#h" x="103" y="223.2"/>  <use xlink:href="#d" x="109.2" y="223.2"/>  <use xlink:href="#i" x="113.3" y="223.2"/>  <use xlink:href="#j" x="115.9" y="223.2"/>  <use xlink:href="#b" x="120.7" y="223.2"/>  <use xlink:href="#k" x="126.3" y="223.2"/>  <use xlink:href="#l" x="132.4" y="223.2"/> </g> <path d="m197.7 253.3 1.5-7.1h.8l-.6 3h3.2l.6-3h.8l-1.4 7.1h-1l.9-3.3h-3.2l-.7 3.3zm8.5-6.3h-.4l-.1-.5.1-.5h.5c.3 0 .4.1.4.4l-.1.5-.4.1zm-1.9 6.3 1.2-5.4h.8l-1.1 5.4zm3.9.1-.9-.1-.6-.2v-.8l.6.1.8.3c.4 0 .7-.1 1-.3.1-.1.2-.3.2-.6l-.1-.4-.8-.5-.8-.7c-.2-.2-.3-.5-.3-.8 0-.5.2-.9.5-1.1.2-.3.8-.5 1.2-.5.4 0 .7 0 1.1.2l.5.2-.1.7-.6-.2-.9-.1c-.2 0-.4 0-.6.2l-.2.5c0 .2 0 .3.2.5l.6.5c.3 0 .5.1.7.4l.3.3.2.8c0 .5-.1.9-.5 1.2-.4.3-.9.4-1.5.4zm5.2 0c-.6 0-1-.2-1.4-.6-.4-.3-.6-.8-.6-1.5 0-.3 0-.8.2-1.2a4 4 0 0 1 .4-1.1l.9-.8 1.2-.3c.6 0 1.1.1 1.5.5.3.4.4.9.4 1.6.1.3.1.7-.1 1.2a4 4 0 0 1-.5 1c-.2.5-.4.8-.8 1-.3.1-.7.2-1.2.2zm0-.8c.5 0 .8 0 1.1-.3l.5-1 .2-1.4-.1-.7a1 1 0 0 0-.4-.4l-.6-.2c-.4 0-.7.1-1 .4l-.5 1a4 4 0 0 0-.3 1.3c0 .5.1.8.3 1 .2.2.5.3.9.3zm3.5.7 1-5.4h.9l-.2 1.1.5-.6.5-.4.7-.2h.3l.3.2-.2.7h-.5c-.4-.1-.7-.1-1 .3l-.5.8c-.3.3-.4.7-.4 1l-.6 2.5zm8.1.1c-.2 0-.6-.2-1-.5-.2-.3-.4-.7-.4-1.3 0-.6 0-1 .2-1.4l.5-1.2c.3-.4.5-.6.9-.8a2 2 0 0 1 1-.4c.5 0 .8.2 1.1.3l.2.7a35.3 35.3 0 0 1 .5-1.3l.2-1.8h1l-1.8 7.6h-.6l.1-1-.9.8c-.2.2-.6.3-1 .3zm.5-.7.5-.3c.3-.1.5-.4.7-.6l.3-1c.3-.4.3-.7.3-1.1 0-.4 0-.7-.2-.8-.2-.2-.4-.3-.8-.3-.3 0-.5 0-.7.2l-.6.7-.4 1v1c-.1.9.1 1.3.7 1.3zm5.4.7c-.5 0-.9-.2-1-.5-.4-.3-.6-.7-.6-1.3.1-.6.1-1 .3-1.6.1-.3.4-.7.6-1 .2-.4.5-.7.8-1a2 2 0 0 1 1-.2c.5 0 .8.2 1 .3l.3.7.6-.9h.5l-1.1 5.4h-.7l.1-1-.8.8c-.3.2-.7.3-1 .3zm.3-.7.7-.3.6-.7a4 4 0 0 0 .5-1 3 3 0 0 0 0-.7 4 4 0 0 0 .2-.4c-.1-.3-.1-.5-.4-.6-.1-.3-.4-.4-.7-.4-.1 0-.5 0-.7.2a2 2 0 0 0-.6.7l-.3 1-.2 1c0 .5 0 .8.2 1.1h.7zm4.5.6-.6-5.4h.9l.3 3.1v1.6h.2l.2-.5c0-.3.2-.5.3-.7l.2-.4 1.6-3.1h1l-3 5.4zm3.9 0 1.6-7.6h.8l-1.6 7.6zm4.2.1c-.4 0-.8-.2-1-.5-.3-.3-.4-.7-.4-1.3l.1-1.6.6-1c.2-.4.5-.7.8-1a2 2 0 0 1 1.1-.2c.4 0 .7.2 1 .3l.2.7.6-.9h.6l-1.2 5.4h-.7l.2-1-1 .8c-.2.2-.5.3-.9.3zm.3-.7c.2 0 .5-.1.7-.3.2-.2.5-.4.6-.7a4 4 0 0 0 .6-1 3 3 0 0 0 0-.7 4 4 0 0 0 0-.4c0-.3 0-.5-.2-.6-.2-.3-.4-.4-.8-.4-.2 0-.4 0-.6.2a2 2 0 0 0-.6.7l-.4 1-.2 1c0 .5.1.8.3 1.1h.5zM249.4 253.4c-.4 0-.7-.1-1-.4-.1 0-.2-.3-.2-.8v-.7l.6-2.9h-.8v-.4l1-.4.6-1h.5l-.3 1h1.4l-.2.8h-1.3l-.6 3v.1l-.1.4.1.4.4.2h.5l.2-.3v.8l-.2.1a2 2 0 0 1-.6 0zm-49.3 14.2.5-2.2.1-.6.3-.5-1 .7c-.2.2-.6.3-1 .3s-.7-.1-1-.3c-.3-.4-.5-1-.5-1.5.1-.5.1-1 .3-1.4l.5-1.1c.3-.4.5-.7.9-.9a2 2 0 0 1 1-.3c.5 0 .8 0 1.1.2l.2.7.5-.7h.6l-1.6 7.6zm-.7-3c.2 0 .4 0 .6-.2l.7-.7a3.8 3.8 0 0 0 .6-2c0-.5 0-.7-.3-1-.1-.1-.3-.2-.7-.2-.2 0-.5.1-.7.3l-.6.7-.4 1v.9c-.1.9.1 1.2.7 1.2zm6 .7c-.6 0-1.1-.2-1.4-.5-.4-.4-.6-1-.6-1.5s0-.9.2-1.3a4 4 0 0 1 .4-1c.3-.5.6-.8.9-1 .4 0 .7-.2 1.2-.2.6 0 1.1.2 1.5.6.3.3.4.8.4 1.5 0 .4 0 .8-.1 1.1a4 4 0 0 1-.5 1.2l-.8.8c-.4.2-.7.3-1.2.3zm0-.7c.5 0 .8-.1 1.1-.3l.5-1 .2-1.5-.2-.6a1 1 0 0 0-.3-.5l-.6-.2c-.4 0-.7.2-1 .5l-.6 1a4 4 0 0 0-.2 1.3c0 .4.1.7.3 1 .2.2.5.3.9.3zM209.2 260.6v-.2l.5-1.1.8-1.3h.5l-.4 1.4-.5 1.2zm1.1 4.6 1.1-5.2h.7v.9l.4-.6.5-.3.7-.2h.6l-.3.8h-.4c-.3 0-.6 0-.9.3-.3.2-.5.5-.7.9l-.3 1-.5 2.4zm5.8-6.2-.3-.1-.2-.4c0-.2 0-.3.2-.4 0-.2.2-.2.4-.2.3 0 .5.1.5.4 0 .2 0 .4-.2.5l-.5.2zm-1.8 6.2 1.1-5.2h.9l-1.3 5.2zm5.2 2.4.5-2.2.1-.6.2-.5-.8.7c-.3.2-.6.3-1 .3s-.8-.1-1-.3c-.4-.4-.5-1-.5-1.5s0-1 .2-1.4l.5-1.1c.3-.4.5-.7.9-.9a2 2 0 0 1 1-.3c.4 0 .8 0 1.1.2l.3.7.5-.7h.6l-1.7 7.6zm-.7-3c.2 0 .4 0 .6-.2l.7-.7a3.8 3.8 0 0 0 .6-2c0-.5 0-.7-.2-1-.2-.1-.5-.2-.8-.2-.2 0-.5.1-.7.3l-.6.7c-.1.3-.3.5-.3 1l-.2.9c.1.9.3 1.2.9 1.2zm3.2.6 2.3-2.7-1.2-2.6h1l.7 2 1.6-2h1l-2.2 2.6 1.2 2.7h-.9l-.9-2-1.6 2Zm7.5.1c-.7 0-1.2-.2-1.5-.5-.4-.4-.5-1-.5-1.5l.1-1.3a4 4 0 0 1 .5-1c.2-.5.5-.8.9-1 .3 0 .7-.2 1-.2.8 0 1.2.2 1.6.6.4.3.5.8.5 1.5l-.1 1.1a4 4 0 0 1-.5 1.2c-.3.3-.5.6-.9.8-.3.2-.6.3-1.1.3zm0-.7.9-.3c.2-.3.5-.6.6-1 .2-.4.2-1 .2-1.5v-.6a1 1 0 0 0-.5-.5l-.7-.2c-.2 0-.5.2-.8.5-.3.2-.5.5-.6 1a4 4 0 0 0-.2 1.3c0 .4 0 .7.2 1 .4.2.5.3 1 .3zm3.3.6 1.2-5.4h.8l-.1 1 .3-.5a2 2 0 0 1 .7-.3l.8-.2c.4 0 .8 0 1 .2.2.3.4.7.4 1.1v.5l-.2.4-.7 3.2h-.9l.7-3.2v-.5l.2-.3c0-.4-.3-.6-.8-.6-.2 0-.4 0-.7.2l-.7.7c-.2.5-.4.8-.5 1.5l-.5 2.2zm7.5.1c-.3 0-.7-.1-1-.3-.3-.4-.4-1-.4-1.5s0-1 .1-1.4l.6-1.2.8-.9a2 2 0 0 1 1.1-.2c.4 0 .6 0 .9.2.2.2.3.5.4.7h.2l.2-.7h.8l-1.2 5.2h-.8v-1l-.7.8c-.3.2-.6.3-1 .3zm.3-.7c.4 0 .5 0 .7-.3.3-.1.5-.3.7-.7a4 4 0 0 0 .4-1 3 3 0 0 0 .1-.6 4 4 0 0 0 0-.4c.1-.3.1-.6-.1-.8-.4-.2-.5-.3-.8-.3-.3 0-.5.1-.7.3a2 2 0 0 0-.6.6l-.4 1-.1 1.1c0 .5 0 .7.2.8 0 .2.3.3.6.3zm5 .7h-.8l-.8-.3v-.8l.8.3.8.1c.4 0 .7 0 .9-.2l.3-.6c0-.2 0-.4-.2-.5l-.6-.5c-.5-.2-.8-.4-1-.7l-.2-.8c0-.5.1-.8.4-1 .4-.5.8-.6 1.4-.6h.9c.2.3.5.5.7.5l-.3.6-.6-.2h-1.4c-.2.4-.3.4-.3.7 0 .1 0 .3.2.4l.7.5.6.4.4.5.2.6c0 .5-.2 1-.6 1.2-.3.3-.8.4-1.5.4zm4.9-6.3-.3-.1-.2-.4v-.4c.4-.2.5-.2.7-.2.3 0 .4.1.4.4 0 .2 0 .4-.2.5l-.4.2zm-1.8 6.2 1.1-5.2h.9l-1.1 5.2zm0 0" style="fill:none;stroke:#fff;stroke-width:2;stroke-linecap:butt;stroke-linejoin:round;stroke-miterlimit:10;stroke-opacity:.6" transform="rotate(  340 225.728 232.032) translate(0,-24.23517)"/> <g style="fill:#007f00;fill-opacity:1" transform=" rotate(  340 225.728 232.032) ">  <use xlink:href="#m" x="197.2" y="229.1"/>  <use xlink:href="#n" x="204" y="229.1"/>  <use xlink:href="#o" x="206.6" y="229.1"/>  <use xlink:href="#p" x="210.9" y="229.1"/>  <use xlink:href="#q" x="216.6" y="229.1"/>  <use xlink:href="#glyph1-6" x="220.6" y="229.1"/>  <use xlink:href="#r" x="223.2" y="229.1"/>  <use xlink:href="#s" x="228.9" y="229.1"/>  <use xlink:href="#t" x="234.6" y="229.1"/>  <use xlink:href="#u" x="239.3" y="229.1"/>  <use xlink:href="#s" x="241.9" y="229.1"/>  <use xlink:href="#v" x="247.6" y="229.1"/>  <use xlink:href="#w" x="197.1" y="241"/>  <use xlink:href="#p" x="202.9" y="241"/>  <use xlink:href="#x" x="208.6" y="241"/>  <use xlink:href="#q" x="210" y="241"/>  <use xlink:href="#n" x="214" y="241"/>  <use xlink:href="#w" x="216.6" y="241"/>  <use xlink:href="#y" x="222.3" y="241"/>  <use xlink:href="#p" x="227" y="241"/>  <use xlink:href="#z" x="232.6" y="241"/>  <use xlink:href="#s" x="238.4" y="241"/>  <use xlink:href="#o" x="244.1" y="241"/>  <use xlink:href="#n" x="248.4" y="241"/> </g></svg>