<svg xmlns="http://www.w3.org/2000/svg" xmlns:xlink="http://www.w3.org/1999/xlink" viewBox="0 0 497 279"> <defs overflow="visible" style="stroke:none">  <path id="g" d="M4-5.4h1L2.7-2.8 5.2 0h-1L1.7-2.7V0H.8v-5.4h1v2.6Zm0 0"/>  <path id="f" d="M3 0c-.5 0-.9 0-1.3-.1-.3-.3-.6-.6-.7-.9-.4-.5-.5-1-.5-1.7 0-.6.2-1.1.5-1.5 0-.6.4-.8.8-1.1.2-.1.8-.2 1.2-.2l.8.1.7.2-.3.8-.6-.2H3c-1-.1-1.5.6-1.5 1.9 0 .7 0 1 .3 1.4.3.5.7.6 1.2.6h.8l.6-.3v.8a2 2 0 0 1-.6.2H3Zm0 0"/>  <path id="e" d="M1.7-3.2h1.6c1.4 0 2.1.6 2.1 1.6 0 .5-.2.9-.4 1.2-.4.3-1 .4-1.7.4H.8v-5.4h1Zm2.8 1.6c0-.3 0-.4-.3-.6-.2-.3-.6-.3-1-.3H1.7v1.8h1.5c.4 0 .8 0 1-.2.2-.1.3-.4.3-.7Zm0 0"/>  <path id="d" d="M5 0H4v-4.6H2.5L2-2 1.5-.4c-.3.3-.6.4-1 .4H0v-.7h.4c.3.1.6-.3.8-.9.2-1 .4-2.2.5-3.9h3.2Zm0 0"/>  <path id="c" d="M.6-3.2C.6-4.4.7-5.3 1-6c.4-.6 1-1 1.8-1.2l1.3-.3c.4 0 .8 0 1.1-.2l.2.8-.8.2a31.4 31.4 0 0 0-1.6.2c-.4.1-.8.5-1 .7-.3.4-.4 1-.5 1.8l.5-.5c0-.1.3-.3.6-.3a2 2 0 0 1 .7-.2c.7 0 1.3.2 1.7.7.3.3.5 1 .5 1.7C5.5-2 5.3-1.5 5-1l-.7 1H3c-.7 0-1.3-.2-1.8-.7C.8-1.4.6-2.1.6-3.3ZM3-.6c.5 0 .8-.2 1-.4.4-.3.5-.8.5-1.5 0-.5 0-1-.3-1.3-.2-.2-.5-.5-1-.5l-.8.3-.6.4c-.2.1-.3.3-.3.4v1c0 .2.2.4.3.8 0 .2.2.4.5.6l.7.2Zm0 0"/>  <path id="b" d="M5.5-2.7c0 .9-.2 1.7-.7 2-.4.7-1 .9-1.8.9-.5-.2-.9-.2-1.3-.4-.3-.2-.6-.6-.7-1C.6-1.6.5-2 .5-2.7c0-.9.3-1.6.7-2 .5-.5 1-.8 1.8-.8.5 0 1 .2 1.3.5.4 0 .7.4.9.9.2.2.3.7.3 1.3Zm-4 0c0 .7 0 1.2.3 1.5.3.4.7.6 1.2.6.6 0 1-.2 1.2-.6.3-.3.4-.8.4-1.5s-.1-1.1-.4-1.5c-.2-.3-.6-.5-1.2-.5-.5 0-1 .2-1.2.5-.2.4-.3.9-.3 1.5Zm0 0"/>  <path id="a" d="M3.2 0h-.9v-6.3H.1v-.8h5.4v.8H3.2Zm0 0"/>  <path d="M1 0v-7.1h4V0Zm.4-.5h3.1v-6.1h-3Zm.1 0"/> </defs> <image xlink:href="svg/9/19_21.jpg" width="497" height="279"/> <path d="M374 237h-1v-6.3h-2.2v-.8h5.2v.8h-2Zm7-2.7c0 1-.1 1.7-.5 2-.6.7-1.1.9-1.9.9-.6-.1-1-.2-1.3-.4-.4-.2-.7-.5-.9-1-.2-.4-.3-.8-.3-1.5-.1-.9.2-1.5.7-2 .4-.5 1-.7 1.8-.7.4 0 .9 0 1.3.3.3.1.6.5.8 1 .3.2.4.7.4 1.3Zm-4 0c0 .7 0 1.2.4 1.5.2.4.6.6 1.2.6.4 0 1-.2 1.2-.6.2-.3.2-.8.2-1.5.1-.6.1-1.1-.2-1.5-.3-.3-.8-.5-1.2-.5-.6 0-1 .2-1.2.5-.4.4-.4.9-.4 1.5Zm5.2-.5c0-1.2.1-2.1.5-2.8.3-.6 1-1 1.7-1.2l1.3-.2 1.1-.2.2.6-.8.3a31.4 31.4 0 0 0-1.6.3c-.6 0-.8.3-1 .6-.4.4-.5 1-.6 1.8l.7-.5.5-.3a2 2 0 0 1 .7-.2c.7 0 1.3.3 1.6.7.5.4.5 1 .5 1.7 0 .6 0 1.1-.3 1.6l-.7 1h-1.4c-.8.1-1.3-.2-1.8-.7-.4-.6-.6-1.4-.6-2.5Zm2.5 2.6c.3 0 .7-.2 1-.4.3-.3.4-.8.4-1.5 0-.5-.1-1-.3-1.3-.2-.2-.5-.5-1-.5l-.8.3-.6.4-.4.4v1c.1.2.3.5.4.8 0 .2.2.4.5.6l.8.2Zm8.3-2.1c0 1 0 1.7-.5 2-.5.7-1.1.9-1.9.9-.6-.1-1-.2-1.3-.4-.3-.2-.6-.5-.9-1-.2-.4-.3-.8-.3-1.5 0-.9.2-1.5.7-2 .4-.5 1-.7 1.8-.7.5 0 1 0 1.4.3.3.1.6.5.8 1 .2.2.2.7.2 1.3Zm-4 0c0 .7.2 1.2.4 1.5.3.4.7.6 1.2.6s1-.2 1.2-.6c.2-.3.4-.8.4-1.5 0-.6-.2-1.1-.4-1.5-.3-.3-.7-.5-1.2-.5s-1 .2-1.2.5c-.2.4-.4.9-.4 1.5Zm9.6 2.7h-1v-4.6h-1.4l-.5 2.6c-.1.8-.3 1.3-.6 1.6-.1.3-.6.5-1 .5h-.3v-.8h.2c.3.1.6-.3.8-1.1.3-.7.4-2 .5-3.6h3.3Zm2.5-3.1h1.6c1.4 0 2.1.5 2.1 1.5 0 .5-.2.9-.5 1.2-.3.3-.9.4-1.6.4h-2.4v-5.4h.7Zm2.9 1.5c0-.3 0-.4-.4-.6-.2-.2-.6-.2-1-.2h-1.5v1.7h1.5c.4 0 .7 0 1-.2.2-.1.3-.4.3-.7Zm4.3 1.7c-.3 0-.8 0-1.2-.3-.4-.2-.7-.5-.9-.8-.2-.5-.2-1-.2-1.6-.1-.7 0-1.2.2-1.6.2-.5.5-.8 1-1l1.1-.1h.9l.6.1-.2.8-.6-.2h-.6c-1-.1-1.6.6-1.6 1.9 0 .7.1 1.1.4 1.5.2.4.6.6 1.1.6l.8-.1.6-.3v.8a2 2 0 0 1-.6.2l-.8.1Zm5.9-5.5h1l-2.5 2.6 2.6 2.8h-1l-2.4-2.7v2.7h-1v-5.4h1.1v2.6Zm0 0" style="fill:none;stroke-width:3;stroke-linecap:butt;stroke-linejoin:round;stroke:#fff;stroke-opacity:.6;stroke-miterlimit:10" transform=" rotate(  340 392.843 234.006) "/> <g style="fill:#222;fill-opacity:1" transform=" rotate(  340 392.843 234.006) ">  <use xlink:href="#a" x="370.7" y="237"/>  <use xlink:href="#b" x="375.5" y="237"/>  <use xlink:href="#c" x="381.6" y="237"/>  <use xlink:href="#b" x="387.6" y="237"/>  <use xlink:href="#d" x="393.6" y="237"/>  <use xlink:href="#e" x="399.4" y="237"/>  <use xlink:href="#f" x="405.3" y="237"/>  <use xlink:href="#g" x="410.1" y="237"/> </g></svg>