<svg xmlns="http://www.w3.org/2000/svg" xmlns:xlink="http://www.w3.org/1999/xlink" viewBox="0 0 497 279"> <defs overflow="visible" style="stroke:none">  <path id="R" d="m.3 0 1.6-7.6h.9L1.2 0Zm0 0"/>  <path id="Q" d="M1.8 0c-.3 0-.6 0-.8-.1C.7-.3.6-.6.6-1v-.8l.8-2.9h-1L.5-5l1-.5.5-1h.6l-.3 1h1.3l-.1.8H2.2l-.7 3v.8l.5.3h.3l.4-.3V0h-.9Zm0 0"/>  <path id="P" d="M1.4 0 1-7.1h1v6a25.3 25.3 0 0 1 .9-1.8l1.9-4.2h.9L5.9-3v2l.5-1 .2-.7 1.9-4.4h1L6.1 0h-.9v-4.6A35 35 0 0 1 5-6l-.3.6-.2.8L2.3 0Zm0 0"/>  <path id="O" d="M.3-2.3.4-3h2.4l-.2.7Zm0 0"/>  <path id="N" d="m.2 0 1.2-5.4h.8l-.2 1 .5-.6a2 2 0 0 1 .6-.3l.9-.2c.3 0 .6.1.9.5.1 0 .4.4.4.9v.4l-.2.5L4.4 0h-.9l.7-3.4v-.4l.2-.2c-.1-.5-.3-.7-.8-.7-.2 0-.4 0-.6.2-.3.2-.6.5-.8.8-.2.3-.4.8-.5 1.4L1.2 0Zm3-6v-.3l.2-.3a16.8 16.8 0 0 0 .8-1h1c0 .2-.2.3-.4.6l-.6.5a6 6 0 0 1-.5.4Zm-.1 0"/>  <path id="M" d="M1.5 0H.7L0-.2V-1l.7.3h.8c.5.1.7.1 1-.1l.1-.7c.1-.1.1-.3-.1-.4 0-.2-.3-.3-.7-.5L1-3.1c-.2-.2-.3-.5-.3-.8 0-.5.1-.9.5-1.1.3-.3.7-.5 1.3-.5.3 0 .6 0 .9.2l.6.2-.2.7-.5-.2-.8-.1c-.3 0-.5 0-.7.2-.2.1-.2.3-.2.5l.1.5.7.5c.3 0 .6.2.6.4.2 0 .4.2.5.4l.1.7c0 .5-.2 1-.5 1.2C2.7 0 2 0 1.5 0Zm.8-6v-.3l.2-.3.5-.6.4-.5h1v.1l-.5.6-.5.5a6 6 0 0 1-.6.4Zm0 0"/>  <path id="L" d="M3.3 0c-.8 0-1.5 0-2-.5C1-1.1.8-1.8.8-2.6.7-3.1.7-3.5 1-4c-.1-.4 0-.8.3-1.2l.8-1L3-7l1.7-.2c.5 0 1.1.1 1.6.4l-.3.7a4 4 0 0 0-.7-.2l-.7-.2c-.6 0-1 .2-1.3.5-.4 0-.7.4-1 .8A4 4 0 0 0 1.9-4l-.2 1.3c0 .7.1 1.1.3 1.5.4.3 1 .5 1.4.5h.8L5-1v.8l-.8.2a5 5 0 0 1-1 0Zm0 0"/>  <path id="K" d="m.3 0 1.6-7.6h.9l-.5 2-.1.6-.2.6.6-.5.5-.4.9-.2c.3 0 .6.2.9.5.1 0 .3.5.3.9v.8L4.3 0h-.8l.8-3.4V-4l-.1-.5c-.2-.2-.3-.2-.6-.2-.2 0-.4 0-.6.2-.4.2-.6.5-.8.8-.2.3-.4.7-.5 1.4L1.2 0Zm0 0"/>  <path id="J" d="M2.5 0C1.9 0 1.4 0 1-.3.7-.7.5-1.2.5-2c0-.4 0-1 .2-1.3l.5-1c.3-.5.6-.7 1-1 .2-.1.6-.2.9-.2l.9.1.6.2-.2.7-.5-.1-.6-.1c-.4 0-.7.1-1 .4-.3.2-.5.6-.7 1A4 4 0 0 0 1.4-2c0 .5 0 .8.3 1 .2.2.5.3.9.3h.6a7 7 0 0 0 .6-.3v.8l-.6.2h-.7Zm0 0"/>  <path id="I" d="m.2 0 1.2-5.4h.8l-.2 1 .5-.6a2 2 0 0 1 .6-.3l.9-.2c.3 0 .6.1.9.5.1 0 .4.4.4.9v.4l-.2.5L4.4 0h-.9l.7-3.4v-.4l.2-.2c-.1-.5-.3-.7-.8-.7-.2 0-.4 0-.6.2-.3.2-.6.5-.8.8-.2.3-.4.8-.5 1.4L1.2 0Zm0 0"/>  <path id="H" d="m.3 0 .6-2.8-.6.3-.3-.6 1-.6 1-3.9h.8L2-4.3l.7-.3.2.5-.9.6L1.2 0Zm0 0"/>  <path id="G" d="M1.8 0H1L.2-.2v-.9l.7.3 1 .1.8-.1.6-.4c.2-.2.2-.6.2-.8 0-.3 0-.5-.2-.7l-1-.6a4.4 4.4 0 0 1-.6-.5 1.9 1.9 0 0 1-.5-.6L1-5.2c0-.4.1-.8.4-1.1a2 2 0 0 1 .8-.7 3 3 0 0 1 1.2-.2h1l.8.5-.4.6-.6-.2-.8-.2c-.4 0-.7.2-1 .5-.4 0-.4.4-.4.8l.1.5.4.4.5.3.8.5a2 2 0 0 1 .5.6l.2.9c0 .6-.3 1.2-.8 1.5-.3.5-.9.6-1.8.6Zm0 0"/>  <path id="F" d="M3.4 0c-.8 0-1.4 0-2-.5C1-1.1.7-1.7.7-2.6A6 6 0 0 1 1-4.4c.2-.6.4-1 .8-1.6.2-.3.7-.6 1.2-.9.5-.1 1-.3 1.6-.3h1.1l1 .5-.5.7a7.8 7.8 0 0 0-.7-.3l-1-.2c-.5 0-.9.2-1.3.5-.6.4-.9.8-1.2 1.4a4.8 4.8 0 0 0-.4 2c.1.2.1.6.3.9 0 .4.3.6.6.7l1 .3h.7l.5-.3.6-1.9H3.8l.2-1h2.3L5.5-.3a8 8 0 0 1-1 .3h-.9Zm0 0"/>  <path id="E" d="M2.1-6.3h-.3l-.1-.5.1-.4.4-.2c.3 0 .5.2.5.5 0 .2 0 .4-.2.5l-.4.2ZM.3 0l1.1-5.4h.9L1.2 0Zm0 0"/>  <path id="D" d="M1.5 0H.7L0-.2V-1l.7.3h.8c.5.1.7.1 1-.1l.1-.7c.1-.1.1-.3-.1-.4 0-.2-.3-.3-.7-.5L1-3.1c-.2-.2-.3-.5-.3-.8 0-.5.1-.9.5-1.1.3-.3.7-.5 1.3-.5.3 0 .6 0 .9.2l.6.2-.2.7-.5-.2-.8-.1c-.3 0-.5 0-.7.2-.2.1-.2.3-.2.5l.1.5.7.5c.3 0 .6.2.6.4.2 0 .4.2.5.4l.1.7c0 .5-.2 1-.5 1.2C2.7 0 2 0 1.5 0Zm0 0"/>  <path id="C" d="m.3 0 1.1-5.4h.7v1l.4-.5.6-.4.7-.2c.4 0 .7.2.9.5.2 0 .3.4.3.7l.5-.5.6-.5.9-.2c.3 0 .6.2.9.5.1 0 .2.4.2.9v.4l-.1.4L7.4 0h-.9l.7-3.4v-.4l.2-.2c-.1-.3-.1-.4-.3-.5 0-.2-.1-.2-.5-.2-.2 0-.4 0-.6.2l-.7.8c-.3.3-.4.7-.5 1.3L4.3 0h-1l.9-3.4v-1.1c-.4-.2-.5-.2-.8-.2-.1 0-.3 0-.6.2l-.6.8c-.3.3-.4.7-.5 1.4L1.2 0Zm0 0"/>  <path id="B" d="M2.4 0c-.6 0-1 0-1.4-.3C.6-.8.5-1.3.5-2c0-.3 0-.8.2-1.2 0-.4.3-.8.5-1.1.2-.4.5-.7.8-.8a2 2 0 0 1 1.2-.4c.5 0 .8.2 1.1.5.3 0 .4.4.4.8 0 .3-.1.7-.3 1-.4.2-.6.4-1 .6-.6.2-1.2.3-1.9.3h-.1v.3c0 .5 0 .8.3 1 .2.3.5.4.9.4l.7-.1A5 5 0 0 0 4-1v.7a6 6 0 0 1-.7.3h-.9Zm-.9-3 1.3-.1.7-.4c.2-.1.3-.4.3-.5l-.1-.6-.7-.1c-.2 0-.5.1-.9.4L1.6-3Zm0 0"/>  <path id="A" d="M2.5 0C1.9 0 1.4 0 1-.4.7-.8.5-1.3.5-2l.1-1.2a4 4 0 0 1 .5-1.1c.3-.3.5-.7.9-.8.3-.2.7-.3 1.2-.3.6 0 1 .2 1.4.4.4.5.6 1.1.6 1.6L5-2a4 4 0 0 1-.5.9c-.2.5-.5.8-.8 1L2.5 0Zm0-.6c.5-.1.6-.1 1-.4.1-.2.3-.5.5-1 .2-.3.3-.8.3-1.4L4.2-4a1 1 0 0 0-.4-.5l-.6-.2c-.4 0-.7.1-1 .4-.2.2-.5.6-.6 1A4 4 0 0 0 1.4-2c0 .5 0 .8.3 1 .2.2.5.3.8.3ZM2.8-6l.4-.7.4-.5.4-.5h1v.1l-.5.6-.5.5a6 6 0 0 1-.6.4Zm0 0"/>  <path id="z" d="m1.9 2.4-1-.1-.6-.2v-.9c.2.2.5.2.7.4a3 3 0 0 0 .8.1c.4 0 .8-.1 1-.3.3-.2.5-.6.6-1l.1-.4.1-.5.1-.5-.8.8c-.3.2-.6.2-.9.2s-.8-.1-1-.4C.6-.7.5-1 .5-1.7c0-.5 0-1 .2-1.4 0-.5.3-.9.5-1.2.2-.4.5-.7.8-.8a2 2 0 0 1 1.1-.4c.4 0 .7.1.9.3l.5.7.3-.9h.7L4.3.3c-.2.8-.5 1.3-.9 1.7-.4.2-1 .4-1.4.4Zm.3-3c.3 0 .5-.1.8-.4l.5-.5.5-1 .2-1.1c0-.4-.2-.6-.3-.8-.1-.2-.4-.3-.7-.3-.3 0-.5 0-.7.2-.3.2-.5.5-.6.7l-.4 1-.1 1.1c0 .7.3 1 .8 1Zm0 0"/>  <path id="y" d="M-.3 2.4h-.3l-.4-.1v-.7h.7c.3.1.5.1.7-.1.2-.2.4-.5.5-.8l.4-.6-.8-5.5h.9l.3 2.7v.7l.2.7v.6A28.4 28.4 0 0 1 2.5-2c-.1 0 .1-.3.2-.4l1.5-3h1L1.7 1c-.1.4-.4.8-.7 1-.4.3-.8.4-1.2.4Zm0 0"/>  <path id="x" d="M.8 0 .6-5.4h.8l.1 2.9v1.7a13.8 13.8 0 0 1 .5-1l.2-.5 1.4-3h1v2.7a25.5 25.5 0 0 1 .2 1.8l.3-.9.4-1 1.2-2.7h1L5 0h-.9l-.2-3v-1.4l-.3.6-.4.8-1.4 3Zm0 0"/>  <path id="w" d="M-.2 0 0-.6l3.3-4.1H1l.1-.7h3.3l-.2.7L1-.7h2.5V0Zm0 0"/>  <path id="v" d="M2.7 0c-.4 0-.7 0-.9-.1a2 2 0 0 1-.5-.7L.9 0H.3l1.6-7.6h.9l-.4 1.8-.2.7a52.9 52.9 0 0 1-.2.7 5 5 0 0 1 .9-.6c.2-.3.6-.5.9-.5.5 0 .8.2 1 .5.5.3.6.8.6 1.4-.1.5-.1 1-.3 1.4L4.6-1l-.8.8a2 2 0 0 1-1.1.3Zm0-.5.5-.5c.4 0 .6-.3.8-.6a4 4 0 0 0 .3-1 5 5 0 0 0 .1-.9c0-.9-.3-1.2-.9-1.2-.2 0-.4 0-.5.2l-.8.7-.4 1c-.2.3-.2.7-.2 1.1 0 .3 0 .6.2.8.2.2.5.3.8.3Zm-.1-.1"/>  <path id="u" d="M2.5 0C1.9 0 1.4 0 1-.4.7-.8.5-1.3.5-2l.1-1.2a4 4 0 0 1 .5-1.1c.3-.3.5-.7.9-.8.3-.2.7-.3 1.2-.3.6 0 1 .2 1.4.4.4.5.6 1.1.6 1.6L5-2a4 4 0 0 1-.5.9c-.2.5-.5.8-.8 1L2.5 0Zm0-.6c.5-.1.6-.1 1-.4.1-.2.3-.5.5-1 .2-.3.3-.8.3-1.4L4.2-4a1 1 0 0 0-.4-.5l-.6-.2c-.4 0-.7.1-1 .4-.2.2-.5.6-.6 1A4 4 0 0 0 1.4-2c0 .5 0 .8.3 1 .2.2.5.3.8.3Zm0-.1"/>  <path id="t" d="M2.1-6.3h-.3l-.1-.5.1-.4.4-.2c.3 0 .5.2.5.5 0 .2 0 .4-.2.5l-.4.2ZM-.6 2.4l-.7-.1v-.7h.6c.4.1.7-.2.8-.9l1.3-6h.9L1 .8.5 2c-.3.3-.6.4-1.1.4Zm0 0"/>  <path id="s" d="M.4 0 2-7.1h1L2-3.7l.7-.6 2.7-2.8h1.1L3.5-4 5 0H4L2.7-3.5l-.7.7L1.3 0Zm0 0"/>  <path id="r" d="m.3 0 1.6-7.6h.9l-.8 3c.1.6 0 1-.2 1.3l-.1.5 2.5-2.6h1L3-3l1.4 3h-1L2.3-2.5l-.7.5-.4 2Zm0 0"/>  <path id="q" d="m.3 0 1.1-5.4h.7v1l.4-.5.5-.4.7-.2H4l.3.2-.2.7h-.5c-.3-.1-.6-.1-.9.2l-.7.9-.3 1L1.2 0Zm0 0"/>  <path id="p" d="M2 0c-.6 0-.9 0-1.2-.3C.6-.7.5-1 .5-1.7c0-.5 0-1 .2-1.5l.5-1.1c.2-.4.5-.7.8-.9a2 2 0 0 1 1.1-.3c.4 0 .6.1.9.3l.5.7.3-.9h.7L4.4 0h-.7l.1-1c-.3.3-.5.6-.9.8-.3.2-.6.2-.9.2Zm.1-.5c.4-.1.6-.2.9-.5l.6-.6a4 4 0 0 0 .4-1 3 3 0 0 0 .1-.7 4 4 0 0 0 0-.4c.1-.3.1-.5-.1-.7-.3-.2-.5-.3-.8-.3-.3 0-.5 0-.7.2a2 2 0 0 0-.6.7l-.4 1-.1 1.1c0 .4 0 .6.2.8.1.2.3.3.6.3Zm.1-.1"/>  <path id="o" d="M.4 0 2-7.1h1.5c.8 0 1.3.1 1.7.5.3.3.5.8.5 1.3 0 .8-.3 1.5-.8 1.9-.6.4-1.3.6-2.4.6H2L1.3 0ZM2-3.5h.7c.6 0 1.1-.2 1.5-.5.4-.2.6-.7.6-1.3 0-.2-.2-.5-.4-.7-.2-.3-.4-.4-1-.4h-.7Zm0 0"/>  <path d="M1 0v-7.1h4V0Zm.4-.5h3.1v-6.1h-3Zm.1 0"/>  <path id="n" d="M3.4-5.5c.7 0 1.2.2 1.6.5.2.3.4.8.4 1.5V0h-.9v-3.4c0-.9-.4-1.3-1.2-1.3-.6 0-1 .1-1.2.5-.3.2-.4.8-.4 1.4V0H.8v-5.4h.8v.8h.2c.2-.4.3-.5.7-.7l1-.2Zm0 0"/>  <path id="m" d="M4.3-1.5c0 .5-.2 1-.5 1.2-.4.3-1 .4-1.6.4l-1-.1-.7-.2V-1l.8.3h1.8l.4-.7-.1-.4L3-2a7.5 7.5 0 0 0-.8-.4 7.5 7.5 0 0 1-1-.4l-.4-.5L.5-4c0-.5.2-.8.6-1 .3-.4.8-.6 1.4-.6l1 .2a4 4 0 0 1 .6.4l-.1.6-.8-.2-.7-.1-.9.1c-.2.2-.3.3-.3.6s0 .2.2.3l.4.3.8.3.9.4.4.5c.3.2.3.4.3.7Zm0 0"/>  <path id="l" d="M6.2 0h-1L2.5-3.4l-.6.6V0h-1v-7.1H2v3.5A74 74 0 0 1 3-5l2-2h1L3.3-4.1Zm0 0"/>  <path id="k" d="M1.7 0H.8v-7.6h1Zm0 0"/>  <path id="j" d="M4.3-1.5c0 .5-.2 1-.5 1.2-.4.3-1 .4-1.6.4l-1-.1-.7-.2V-1l.8.3h1.8l.4-.7-.1-.4L3-2a7.5 7.5 0 0 0-.8-.4 7.5 7.5 0 0 1-1-.4l-.4-.5L.5-4c0-.5.2-.8.6-1 .3-.4.8-.6 1.4-.6l1 .2a4 4 0 0 1 .6.4l-.1.6-.8-.2-.7-.1-.9.1c-.2.2-.3.3-.3.6s0 .2.2.3l.4.3.8.3.9.4.4.5c.3.2.3.4.3.7Zm-.5-6.2v.1c0 .2-.2.3-.3.6l-.6.5-.5.4h-.6a16.2 16.2 0 0 0 .7-1.1l.3-.6Zm0 0"/>  <path id="i" d="M0-5.4h1l1 3 .4 1 .2.6.2-.7c0-.3.2-.5.2-.8l1-3h1.2L2.8.6c-.2.6-.4 1.1-.7 1.4-.3.3-.7.4-1.3.4H.1v-.9h.6c.3.2.6.2.7 0L2 .7l.2-.7Zm0 0"/>  <path id="h" d="M6.7-5.5c.6 0 1 .2 1.4.5.3.3.4.8.4 1.5V0h-.8v-3.5c0-.8-.4-1.2-1.1-1.2-.6 0-1 .1-1.1.4C5.2-4 5-3.5 5-3v3h-.7v-3.5c0-.8-.4-1.2-1.1-1.2-.6 0-1 .1-1.2.5-.2.2-.3.8-.3 1.4V0H.8v-5.4h.8v.8h.2l.6-.7 1-.2c.7 0 1.2.3 1.6 1 .2-.5.4-.7.7-.8.3-.1.7-.2 1-.2Zm0 0"/>  <path id="g" d="M4.3 0h-4v-.6l3.1-4H.6v-.9h3.6v.8l-2.8 4h3Zm0 0"/>  <path id="f" d="M2 0 0-5.4h1l1 3.2.4.5v.5l.1.4.2-.4a16 16 0 0 1 .3-1l1.1-3.2h1L3 0Zm0 0"/>  <path id="e" d="M5.5-2.7c0 .9-.2 1.7-.7 2-.4.7-1 .9-1.8.9-.5-.2-.9-.2-1.3-.4-.3-.2-.6-.6-.7-1C.6-1.6.5-2 .5-2.7c0-.9.3-1.6.7-2 .5-.5 1-.8 1.8-.8.5 0 1 .2 1.3.5.4 0 .7.4.9.9.2.2.3.7.3 1.3Zm-4 0c0 .7 0 1.2.3 1.5.3.4.7.6 1.2.6.6 0 1-.2 1.2-.6.3-.3.4-.8.4-1.5s-.1-1.1-.4-1.5c-.2-.3-.6-.5-1.2-.5-.5 0-1 .2-1.2.5-.2.4-.3.9-.3 1.5Zm0 0"/>  <path id="d" d="M4.3-1.5c0 .5-.2 1-.5 1.2-.4.3-1 .4-1.6.4l-1-.1-.7-.2V-1l.8.3h1.8l.4-.7-.1-.4L3-2a7.5 7.5 0 0 0-.8-.4 7.5 7.5 0 0 1-1-.4l-.4-.5L.5-4c0-.5.2-.8.6-1 .3-.4.8-.6 1.4-.6l1 .2a4 4 0 0 1 .6.4l-.1.6-.8-.2-.7-.1-.9.1c-.2.2-.3.3-.3.6s0 .2.2.3l.4.3.8.3.9.4.4.5c.3.2.3.4.3.7ZM2-6l-.4-.5a18.3 18.3 0 0 0-.9-1v-.2h.6l.5.5a5 5 0 0 1 .6.4 8.4 8.4 0 0 1 1-.9h.8v.2a18.3 18.3 0 0 0-1.2 1l-.1.4Zm0 0"/>  <path id="c" d="M3-5.5c.3 0 .7.1 1 .3a2 2 0 0 1 1 .9v1.8H1.5c0 .5.1 1 .4 1.4.3.3.7.4 1.3.4H4l.9-.3v.8L4 0a5 5 0 0 1-1 0 3 3 0 0 1-1.2-.1 2.2 2.2 0 0 1-1-1.1c0-.2-.2-.8-.2-1.3-.1-.7 0-1.2.2-1.6.2-.5.5-.9.9-1 .3-.2.7-.4 1.2-.4Zm0 .8c-.6 0-.9.1-1 .4-.4.2-.6.6-.6 1.1h2.8c0-.5-.1-.8-.3-1.1-.2-.3-.5-.4-1-.4Zm0 0"/>  <path id="b" d="M3.3-5.5H4l-.1 1.1-.3-.3h-.3c-.3 0-.5 0-.8.2l-.5.7-.3 1V0H.8v-5.4h.8v1h.2l.6-.6c.3-.3.6-.5 1-.5Zm0 0"/>  <path id="a" d="M2.9-7.1c.9 0 1.6.1 2 .5.4.4.6.9.6 1.6 0 .4 0 .7-.2 1-.3.5-.5.8-1 1l-1.5.1h-.9V0h-1v-7.1Zm-.1.7h-1v2.9h.9c.6 0 1.1-.2 1.3-.5.4 0 .6-.5.6-1s-.1-.8-.4-1c-.3-.3-.8-.4-1.4-.4Zm0 0"/>  <path d="M1 0v-7.1h4V0Zm.4-.5h3.1v-6.1h-3Zm.9-6.4L2-7l-.2-.4c0-.2 0-.3.2-.5l.5-.1c.3 0 .5.1.5.4 0 .2-.1.4-.3.6.1.1-.2.1-.3.1Zm-3 9.5a2 2 0 0 1-.7 0v-1l.4.2h.3c.4 0 .7-.3.9-1L1.6-6h1L1 .8c0 .6-.2 1-.5 1.4-.3.3-.7.4-1.2.4ZM2.1.1C1.7.1 1.3 0 1-.4.7-.7.5-1.2.5-1.9l.2-1.6.6-1.3c.3-.4.7-.7 1-.9.2-.2.7-.3 1.1-.3.4 0 .7.1 1 .3l.5.7.5-.9H6L4.8 0H4l.2-1a4 4 0 0 1-1.1.7c-.1.3-.6.3-.9.3Zm.3-.8c.3 0 .6 0 .8-.3a3 3 0 0 0 .8-.8 5 5 0 0 0 .4-1.1l.1-.6V-4c.1-.4.1-.6-.1-1-.4 0-.6-.2-.9-.2-.3 0-.5.2-.8.3l-.6.7-.4 1-.2 1.4c0 .3 0 .6.3.9l.6.1ZM.3 0l1.3-5.9h.8l-.2 1 .7-.4.4-.5.8-.2h.6l-.2 1a3 3 0 0 0-.5-.2c-.4.1-.7.2-1 .4a3 3 0 0 0-.8 1l-.3 1.1L1.3 0Zm-.6 2.6h-.4a4 4 0 0 1-.3 0v-1l.3.3h.4c.3-.1.5-.1.7-.3L1 .8l.4-.8-.9-6h1l.4 3.1v.6A34.2 34.2 0 0 1 2-.8l.4-.5a22.7 22.7 0 0 1 .5-1.4l1.7-3.2h1L2 1c-.4.5-.7 1-1 1.2-.2.3-.7.4-1.2.4Zm2.9-9.3v-.1l.4-.5.4-.6a15 15 0 0 0 .4-.5H5l-.5.7-.7.5-.6.5ZM.3 0l1.8-8.4H3L2.2-5a20 20 0 0 1-.4 2l2.8-3h1.2L3.3-3.4 4.8 0h-1L2.5-2.8l-.8.8-.4 2Zm1.4.1L.7 0 .2-.3v-.9c0 .2.3.3.6.4a3 3 0 0 0 .9.1c.3 0 .7 0 1-.2.2-.2.3-.4.3-.7 0-.2 0-.4-.2-.5L2-2.7a3.8 3.8 0 0 1-1-.7c0-.2-.2-.6-.2-1s.2-.7.6-1c.3-.4.7-.6 1.3-.6l1.1.1.7.3-.3.8-.6-.3h-.9L2-5l-.3.6c0 .2 0 .4.3.5 0 .2.3.3.7.5l.7.5.4.5.2.7c0 .6-.2 1-.6 1.4-.4.3-1 .3-1.7.3ZM1.2 0 .5-5.9h1l.3 3.3v.6A27.6 27.6 0 0 1 2-.7l.3-.7a53.1 53.1 0 0 0 .6-1.3l1.7-3.2h1L2.6 0Zm1.5 0C2 0 1.5 0 1.1-.4.7-1 .5-1.5.5-2.2a5 5 0 0 1 .2-1.3c.1-.5.3-.9.6-1.3a3 3 0 0 1 .9-.7C2.6-6 3-6 3.5-6c.7 0 1.2.2 1.5.6.5.4.7 1 .7 1.7 0 .4 0 .9-.2 1.3-.1.5-.3.9-.6 1.4a3 3 0 0 1-.9.8c-.4.2-.8.2-1.3.2Zm0-.6c.5-.1.9-.2 1.1-.5.2-.2.5-.6.6-.9.2-.6.3-1.1.3-1.8l-.1-.7-.4-.5-.7-.2c-.5 0-.8.2-1 .5-.5.2-.7.5-.9.9L1.5-2c0 .3.1.7.3.9.3.3.6.4 1 .4ZM1 0v-7.9h4.6V0Zm.6-.6H5v-6.7H1.6Zm0 0"/> </defs> <image xlink:href="svg/9/1_10.jpg" width="497" height="279"/> <path d="M-.2 253c1 0 1.7.2 2 .6.6.3.8.8.8 1.4-.1.5-.1.9-.3 1.2-.3.4-.5.6-1 .9-.3.2-.9.3-1.5.3h-.9v2.6h-1v-6.9zm0 .8h-1v2.8h.9c.5 0 1-.1 1.3-.3.4-.3.6-.6.6-1.3 0-.3-.2-.7-.6-.9 0-.1-.6-.3-1.2-.3zm6.6.9H7v.9h-.4l-.3-.2c-.3.1-.5.1-.8.3l-.5.7c-.2.2-.2.5-.2.9v2.7h-1v-5.2h.9v1l.7-.8c.3-.2.6-.3 1-.3zm3.5 0 1.1.3a2 2 0 0 1 .8.8c.2.4.3.8.3 1.3v.5H8.4c0 .6.2 1.1.6 1.4.2.3.6.5 1 .5l1.1-.1c.1 0 .4-.1.6-.3v.9l-.7.2a5 5 0 0 1-1 0 3 3 0 0 1-1.2-.2 2.2 2.2 0 0 1-1-1c-.2-.4-.3-.9-.3-1.5s.1-1 .3-1.5l.8-1c.4-.2.8-.3 1.4-.3zm0 .7c-.5 0-.9.2-1 .4-.3.3-.4.7-.5 1.2h2.8c0-.5-.2-.9-.4-1-.2-.5-.5-.7-1-.7zm7.1 3.3c0 .5-.4.9-.7 1.2-.3.1-.9.3-1.5.3h-1l-.7-.4v-.7l.9.3.9.1c.3 0 .6 0 .8-.2.3-.1.3-.3.3-.6v-.3l-.4-.3a7.5 7.5 0 0 0-.8-.4 7.5 7.5 0 0 1-1-.4l-.4-.5-.3-.7c0-.4.2-.8.6-1 .3-.3.8-.4 1.3-.4h1.1a4 4 0 0 1 .6.5l-.2.5-.7-.2h-1.6l-.2.7s0 .1.1.2l.4.3.8.4.9.4.5.5c.3 0 .3.4.3.7zm-2.6-4.7c.1-.1-.1-.2-.2-.4a18.3 18.3 0 0 0-.9-1v-.1h.7l.4.4a5 5 0 0 1 .6.5 8.4 8.4 0 0 1 1-1h.8v.3a18.3 18.3 0 0 0-1.1.9c.1.2-.1.3-.2.5zm8.5 3.5c0 .8-.2 1.5-.7 2-.4.5-1 .7-1.8.7-.5 0-.9 0-1.3-.2-.3-.3-.6-.6-.9-1-.2-.3-.2-.8-.2-1.4 0-1.1.2-1.7.6-2.1.5-.7 1-.9 1.8-.9.6.1 1 .2 1.3.4.4.2.7.5.9 1 .2.4.3.9.3 1.5zm-4 0c-.1.5-.1 1.1.2 1.5.4.3.9.5 1.3.5.6 0 1-.2 1.2-.5.4-.4.4-1 .4-1.5 0-.7-.1-1.2-.4-1.5-.2-.4-.6-.6-1.2-.6-.5 0-1 .2-1.2.6-.2.3-.4.8-.4 1.5zm6.4 2.6-2-5.3h.8l1.2 3.1.2.5.1.6.2.4v-.5a16 16 0 0 1 .5-.9l1.1-3.2h1l-2.2 5.2zm0 0" style="fill:none;stroke:#fff;stroke-width:3;stroke-linecap:butt;stroke-linejoin:round;stroke-miterlimit:10;stroke-opacity:.6" transform="rotate(  340 29.0931 257.148) translate(15.959746)"/> <g style="fill:#212121;fill-opacity:1" transform=" rotate(  340 29.0931 257.148) ">  <use xlink:href="#a" x="12.9" y="260.1"/>  <use xlink:href="#b" x="19" y="260.1"/>  <use xlink:href="#c" x="22.9" y="260.1"/>  <use xlink:href="#d" x="28.6" y="260.1"/>  <use xlink:href="#e" x="33.3" y="260.1"/>  <use xlink:href="#f" x="39.2" y="260.1"/> </g> <path d="M297.7 13.9c1 0 1.6.1 2 .5.5.4.7.9.7 1.6 0 .4-.1.7-.4 1 0 .5-.4.8-.8 1l-1.7.1h-.8V21h-.9v-7zm0 .7h-1.1v2.9h.8c.7 0 1.2-.1 1.6-.5.3 0 .4-.5.4-.9 0-.6-.1-1-.4-1.1-.3-.2-.8-.4-1.4-.4zm6.5 1h.8l-.2.8h-.6c-.3 0-.6 0-.8.2l-.6.6-.2 1V21h-.9v-5.3h.7l.2 1c.2-.5.4-.7.7-.9.2-.1.6-.2 1-.2zm5.1 5.4h-3.9v-.6l2.9-4h-2.7v-.8h3.6v.7l-2.8 4h3zm3.3-5.4c.5 0 .9 0 1.2.3a2 2 0 0 1 .8.8l.2 1.3v.5h-3.6c0 .6.1 1 .4 1.4.4.3.8.5 1.4.5l.8-.1.8-.3v.8l-.8.2a5 5 0 0 1-1 .1 3 3 0 0 1-1.3-.3 2.2 2.2 0 0 1-1-1l-.1-1.3c-.1-.7-.1-1.2.2-1.6.1-.5.4-.9.8-1 .3-.2.8-.3 1.2-.3zm0 .7c-.4 0-.6.1-1 .4-.2.2-.4.6-.4 1.1h2.7c.1-.4.1-.8-.3-1.1-.2-.3-.5-.4-1-.4zm9.4-.7c.8 0 1.2.1 1.5.4.2.3.5.8.5 1.5V21h-1v-3.4c0-.9-.3-1.3-1-1.3s-1 .1-1.3.4c-.1.4-.2.8-.2 1.4V21h-.9v-3.5c0-.8-.4-1.2-1.1-1.2-.5 0-1 .2-1.1.5-.2.2-.4.8-.4 1.4V21h-1v-5.3h1v.7c.3-.4.6-.5.9-.6.1-.2.4-.2.8-.2.8 0 1.3.3 1.6.8.3-.3.6-.4.9-.6.2-.2.5-.2.8-.2zm2.7.1h1l1.1 3 .3.8.2.7c0-.2 0-.4.2-.7 0-.3.2-.5.3-.8l1-3h1.1l-2.4 6c-.2.6-.4 1-.7 1.3-.3.3-.8.4-1.3.4h-.7v-.9h.3l.3.3c.3-.1.5-.1.7-.4.2-.1.4-.4.5-.7l.3-.7zm9.4 3.8c0 .6-.1 1-.5 1.2-.4.3-1 .4-1.6.4h-1l-.7-.4V20l.8.3 1 .1c.3 0 .6 0 .9-.2l.3-.6-.1-.3-.4-.4a7.5 7.5 0 0 0-.8-.3 7.5 7.5 0 0 1-1-.4l-.4-.5-.3-.7c0-.5.2-.8.7-1 .2-.4.7-.5 1.3-.5h1a4 4 0 0 1 .7.5l-.3.6-.7-.2-.7-.1-.9.1c-.2.2-.3.3-.3.6s0 .2.2.3l.4.3.8.4.9.3.5.5c.2.2.2.4.2.7zm-.5-6.1c0 .2-.2.3-.3.6l-.6.5-.5.4h-.6a16.4 16.4 0 0 0 .7-1.1c0-.1.2-.3.3-.4zm2.7 7.6h-.9v-7.6h1zm0 0" style="fill:none;stroke:#fff;stroke-width:3;stroke-linecap:butt;stroke-linejoin:round;stroke-miterlimit:10;stroke-opacity:.6" transform="rotate(  340 362.408 28.4185) translate(44.67379,10.407292)"/> <g style="fill:#212121;fill-opacity:1" transform=" rotate(  340 362.408 28.4185) ">  <use xlink:href="#a" x="339.5" y="31.4"/>  <use xlink:href="#b" x="345.6" y="31.4"/>  <use xlink:href="#g" x="349.7" y="31.4"/>  <use xlink:href="#c" x="354.4" y="31.4"/>  <use xlink:href="#h" x="360" y="31.4"/>  <use xlink:href="#i" x="369.4" y="31.4"/>  <use xlink:href="#j" x="374.5" y="31.4"/>  <use xlink:href="#k" x="379.3" y="31.4"/> </g> <path d="M106.4 47.8h-1l-2.7-3.4-.7.6v2.8h-1v-7.1h1.2v3.5a74.2 74.2 0 0 1 1.1-1.4l2-2.1h.9l-2.8 3zm3.3-5.4h.7l-.1.8h-.6c-.3 0-.7 0-.8.2l-.6.6-.2 1v2.8h-.9v-5.3h.8v1l.9-.9c.1-.1.5-.2.9-.2zm6.1 2.7c0 1-.2 1.6-.7 2-.4.7-1 .9-1.8.9-.3 0-.9-.2-1.2-.4-.4-.2-.7-.6-1.1-1v-1.5c-.1-.9 0-1.5.5-2s1-.7 1.9-.7c.4 0 .9 0 1.2.3.4.2.7.5 1 1l.1 1.3zm-4 0c0 .7.1 1.2.2 1.5.4.4.8.6 1.4.6.5 0 .9-.2 1.1-.6.3-.3.5-.8.5-1.5 0-.6-.2-1.1-.5-1.5-.2-.3-.5-.5-1.2-.5-.5-.1-.9.2-1.2.5-.1.4-.3.9-.3 1.5zm8.9 1.2c0 .7-.2 1-.6 1.2-.3.3-.9.5-1.5.5h-1l-.6-.5v-.7l.7.2.9.2c.4 0 .8 0 1-.2l.3-.6c0-.1 0-.2-.2-.3 0-.2-.2-.3-.3-.4a7.5 7.5 0 0 0-.9-.3 7.5 7.5 0 0 1-.8-.4l-.7-.5c-.1-.2-.1-.4-.1-.7 0-.5.1-.8.5-1 .4-.4.9-.5 1.6-.5h.9a4 4 0 0 1 .6.5l-.2.6-.7-.2-.8-.2-.8.2c-.2.3-.3.3-.3.6l.1.3.5.3.7.4 1 .2.5.6.2.7zm3.9-3.9c.6 0 1.1.1 1.4.4.4.3.5.8.5 1.5v3.5h-.8v-3.4c0-.9-.4-1.4-1.2-1.4-.6 0-1 .3-1.3.6-.2.3-.2.8-.2 1.4v2.8h-1v-5.3h.7l.1.7c.4-.3.6-.5.9-.6.3-.2.6-.2.9-.2zm8.3 2.7c0 1-.3 1.6-.7 2-.5.7-1 .9-1.8.9-.5 0-1-.2-1.4-.4-.3-.2-.6-.6-.8-1-.2-.4-.3-.9-.3-1.5 0-.9.1-1.5.7-2 .4-.5 1-.7 1.8-.7.5 0 .9 0 1.3.3.3.2.6.5.8 1 .2.3.5.7.5 1.3zm-4.1 0c0 .7.1 1.2.4 1.5.2.4.6.6 1.2.6.5 0 1-.2 1.2-.6.2-.3.3-.8.3-1.5.1-.6.1-1.1-.3-1.5-.3-.3-.7-.5-1.2-.5-.6-.1-1 .2-1.2.5-.3.4-.4.9-.4 1.5zm0 0" style="fill:none;stroke:#fff;stroke-width:3;stroke-linecap:butt;stroke-linejoin:round;stroke-miterlimit:10;stroke-opacity:.6" transform=" rotate(  340 116.865 44.8122) "/> <g style="fill:#212121;fill-opacity:1" transform=" rotate(  340 116.865 44.8122) ">  <use xlink:href="#l" x="100.2" y="47.8"/>  <use xlink:href="#b" x="106.4" y="47.8"/>  <use xlink:href="#e" x="110.3" y="47.8"/>  <use xlink:href="#m" x="116.4" y="47.8"/>  <use xlink:href="#n" x="121.2" y="47.8"/>  <use xlink:href="#e" x="127.3" y="47.8"/> </g> <path d="m242.5 33.5 1.5-7.1h1.6c.7 0 1.3.2 1.6.5.4.4.5.8.5 1.4 0 .7-.3 1.4-.7 1.7-.6.5-1.4.7-2.4.7h-.7l-.6 2.8zM244 30h.7c.7 0 1.3-.1 1.5-.4.4-.3.6-.7.6-1.3 0-.4-.1-.7-.3-.9l-1-.2h-.8zm5.7 3.6c-.5 0-.8-.1-1-.4-.5-.3-.6-.8-.6-1.4.1-.5.1-1 .3-1.4l.5-1.2c.3-.3.5-.6.9-.8a2 2 0 0 1 1-.4c.4 0 .7 0 .9.4l.5.6.3-.8h.7l-1.1 5.3h-.7l.1-1-.8.9-1 .2zm.2-.6c.3 0 .5 0 .8-.3l.6-.8a4 4 0 0 0 .4-.9 3 3 0 0 0 .1-.6 4 4 0 0 0 0-.5c.1-.3.1-.6-.1-.9-.3 0-.5-.2-.7-.2-.3 0-.6.2-.8.3a2 2 0 0 0-.6.6l-.4 1-.1 1.1c-.1.4-.1.7.2.9l.7.2zM253.7 33.5l1.1-5.3h.7v1l.4-.5.5-.5.7-.1h.6l-.2.9h-.5l-1 .2c-.2.2-.4.5-.6.9l-.3.9-.5 2.5zm3.9 0 1.6-7.5h1.1l-.9 3-.2 1.3-.2.5 2.6-2.6h1l-2.3 2.3 1.4 3h-1l-.9-2.5-.9.6-.4 2zm7.7 0 1.5-7.1h1l-.8 3.5.6-.7 2.8-2.8h1l-3 3.1 1.6 4h-1l-1.2-3.4-1 .6-.6 2.8zm5.5 0 1.2-5.3h.7l-.1 1 .5-.5.5-.5.7-.1h.5l-.2.9h-.5c-.3-.1-.6 0-.8.2-.3.2-.5.5-.7.9l-.4.9-.5 2.5zm5.5.1c-.5 0-.8-.1-1-.4-.5-.3-.6-.8-.6-1.4.1-.5.1-1 .3-1.4l.5-1.2c.3-.3.5-.6.9-.8a2 2 0 0 1 1-.4c.4 0 .7 0 .9.4l.5.6.4-.8h.6l-1.1 5.3h-.7v-1l-.7.9c-.3.1-.7.2-1 .2zm.2-.6c.3 0 .5 0 .8-.3l.6-.8a4 4 0 0 0 .5-.9 3 3 0 0 0 0-.6 4 4 0 0 0 0-.5c.1-.3.1-.6-.1-.9-.3 0-.5-.2-.8-.2-.2 0-.5.2-.7.3a2 2 0 0 0-.6.6l-.4 1-.1 1.1c0 .4 0 .7.2.9l.6.2zm5.6-5.7-.3-.1-.1-.4.1-.4c.1-.2.3-.2.4-.2.3 0 .5.1.5.4 0 .2 0 .4-.2.5l-.4.2zm-2.7 8.6h-.7V35h.3l.3.3c.4-.1.7-.3.8-1.1l1.3-6h.9l-1.3 6.1-.5 1.2c-.3.3-.6.4-1.1.4zm5.6-2.3c-.5 0-1-.2-1.3-.5-.5-.4-.6-.9-.6-1.5l.1-1.3a4 4 0 0 1 .5-1c.3-.5.5-.8.9-1 .3-.1.7-.2 1.1-.2.7 0 1.3.2 1.5.6.4.3.5.9.5 1.5l-.1 1.2a4 4 0 0 1-.6 1.1c-.1.3-.4.6-.8.8-.2.2-.7.3-1.1.3zm.2-.6.8-.4c.3-.3.5-.6.6-1 .2-.4.4-1 .4-1.5-.1-.2-.1-.4-.3-.6a1 1 0 0 0-.3-.5l-.6-.2c-.4 0-.8.2-1 .4-.3.3-.5.6-.6 1a4 4 0 0 0-.2 1.4c0 .4 0 .7.3 1 .2.2.5.3.7.3zm5.7.6c-.4 0-.6 0-.9-.2a2 2 0 0 1-.5-.7l-.3.8h-.7l1.6-7.5h.9l-.4 1.7-.2.7a53 53 0 0 1-.2.8 5 5 0 0 1 1-.8c.1-.2.5-.3.8-.3s.7.1 1 .5c.4.3.5.7.5 1.3 0 .5 0 1.1-.2 1.4 0 .5-.3.9-.5 1.2-.2.5-.5.6-.8.8a2 2 0 0 1-1.1.3zm0-.6c.1 0 .3 0 .6-.3l.5-.7a4 4 0 0 0 .5-1 5 5 0 0 0 .1-1c0-.8-.3-1.1-.8-1.1-.3-.1-.5-.1-.8.1l-.6.7-.4 1-.2 1.1c0 .4 0 .6.3.8.1.2.4.4.7.4zm3.4.5 1.1-5.3h.7v1l.4-.5.5-.5.7-.1h.6l-.2.9h-.5l-.9.2c-.3.2-.5.5-.6.9l-.4.9-.5 2.5zm5.4.1c-.4 0-.7-.1-1-.4-.3-.3-.4-.8-.4-1.4 0-.5 0-1 .2-1.4 0-.5.3-.9.5-1.2l.8-.8a2 2 0 0 1 1-.4c.5 0 .8 0 1.1.4l.3.6h.1l.3-.8h.7l-1.3 5.3h-.6l.2-1-1 .9c-.2.1-.5.2-.9.2zm.3-.6c.3 0 .5 0 .7-.3l.7-.8a4 4 0 0 0 .4-.9 3 3 0 0 0 .2-.6 4 4 0 0 0 0-.5c0-.3 0-.6-.3-.9-.2 0-.4-.2-.7-.2-.3 0-.5.2-.7.3a2 2 0 0 0-.6.6l-.4 1-.1 1.1c0 .4 0 .7.2.9l.6.2zm3.3.5.1-.5 3.4-4h-2.3l.1-.9h3.4l-.3.8-3.3 4h2.6l-.1.6zm7.1.1c-.6 0-1.1-.2-1.5-.5-.3-.4-.5-.9-.5-1.5 0-.4 0-.9.2-1.3a4 4 0 0 1 .4-1c.3-.5.6-.8.9-1 .3-.1.7-.2 1.2-.2.6 0 .9.2 1.4.6.5.3.6.9.6 1.5-.1.4-.1.8-.2 1.2a4 4 0 0 1-.5 1.1l-.8.8-1.2.3zm0-.6c.4-.1.7-.2 1-.4l.4-1c.3-.4.4-1 .4-1.5l-.2-.6a1 1 0 0 0-.3-.5l-.6-.2c-.4 0-.7.2-1.1.4l-.5 1a4 4 0 0 0-.2 1.4c0 .4 0 .7.3 1 .2.2.4.3.8.3zm3.7.5-.1-5.3h.8v4.6a13.8 13.8 0 0 1 .6-1l.1-.7 1.4-2.9h1.1V31a25 25 0 0 1 0 1.8l.5-1 .5-.9 1-2.7h1l-2.5 5.3h-1l-.3-2.9V29l-.4.7-.2.8-1.4 3zm6.2 2.5h-.3l-.4-.3v-.6l.4.1h.3c.3 0 .5 0 .7-.2l.5-.8.5-.6-1-5.4h.9l.4 2.6v.7l.2.8v.5a28.7 28.7 0 0 1 .5-1.1l.2-.7 1.6-2.9h1l-3.6 6.4c-.1.5-.4.9-.7 1.1-.3.2-.7.3-1.2.3zm-54.7 9.5 1.6-7.2h1.6c.7 0 1.2.2 1.6.7.3.2.5.6.5 1.2 0 .8-.3 1.4-.8 1.9-.5.4-1.3.6-2.3.6h-.8l-.5 2.8zm1.7-3.6h.6c.6.1 1.1-.1 1.5-.4.4-.3.6-.7.6-1.3 0-.4-.1-.6-.3-.8-.3-.2-.7-.4-1-.4h-.9zm6.1 3.7c-.6 0-1.1-.2-1.5-.6-.3-.4-.5-.9-.5-1.5l.1-1.2a4 4 0 0 1 .5-1.1c.3-.4.5-.6 1-.8.2-.4.6-.4 1-.4.7 0 1 .2 1.5.6.5.4.6.9.6 1.5l-.2 1.2a4 4 0 0 1-.5 1.1c-.2.4-.5.7-.8.9l-1.2.3zm0-.8c.4 0 .6 0 .9-.3.3-.2.5-.5.6-1 .2-.4.3-.9.3-1.5l-.2-.6a1 1 0 0 0-.3-.4c-.2-.2-.4-.2-.6-.2-.4 0-.7.1-1.1.4-.2.2-.4.5-.5 1a4 4 0 0 0-.2 1.3c0 .5 0 .8.3 1 .2.2.4.3.8.3zm5 3.1-1-.1-.5-.3v-.8l.6.3a3 3 0 0 0 .9.2c.4 0 .6-.2 1-.4.2-.2.4-.5.5-1l.1-.2.2-.6v-.5l-.7.8c-.3.2-.7.3-1 .3-.5 0-.8-.2-1-.6-.5-.2-.5-.6-.5-1.3 0-.4 0-.9.2-1.3l.5-1.2c.3-.4.5-.7.8-.9a2 2 0 0 1 1.1-.3c.4 0 .7.1 1 .3l.4.7.4-.9h.6l-1.2 5.7c-.1.7-.4 1.2-.8 1.6-.5.3-1 .5-1.6.5zm.4-3 .6-.3.7-.6.4-1 .2-1c0-.6 0-.8-.2-1-.2-.1-.5-.2-.8-.2-.3 0-.5 0-.7.2l-.6.7-.4 1v1c0 .9.1 1.3.7 1.3zm6 .7c-.6 0-1.1-.2-1.5-.6-.3-.4-.5-.9-.5-1.5 0-.4 0-.8.2-1.2a4 4 0 0 1 .5-1.1c.2-.4.5-.6.8-.8.3-.4.7-.4 1.2-.4s1 .2 1.4.6c.4.4.6.9.6 1.5 0 .4 0 .9-.2 1.2a4 4 0 0 1-.5 1.1c-.2.4-.5.7-.8.9-.4.2-.7.3-1.2.3zm0-.8c.5 0 .8 0 1.1-.3l.4-1 .3-1.5-.1-.6a1 1 0 0 0-.5-.4c0-.2-.2-.2-.5-.2-.5 0-.7.1-1 .4l-.5 1a4 4 0 0 0-.3 1.3c0 .5 0 .8.3 1 .2.2.5.3.9.3zm.5-5.4v-.1l.2-.5.5-.5.3-.5h1v.2l-.4.4-.6.6a6 6 0 0 1-.6.4zm2.9 6.1 1.2-5.5h.6v1.1l.5-.5.5-.4.7-.2h.5l-.2 1h-.5c-.3-.2-.5-.2-.8.1l-.7.9-.4 1-.5 2.5zm3.6 0 .1-.6 3.3-4.1H293l.1-.8h3.2l-.1.8-3.3 4h2.6l-.2.7zm6.5.1c-.3 0-.8-.2-1-.6-.3-.2-.4-.6-.4-1.3 0-.5 0-1 .1-1.4 0-.3.4-.8.6-1.2l.8-.8a2 2 0 0 1 1-.3c.5 0 .8.1 1.1.3l.2.7.6-.9h.7l-1.3 5.4h-.7l.2-1-1 .8c-.2.2-.5.3-.9.3zm.3-.7c.2 0 .5-.1.7-.3l.7-.7a4 4 0 0 0 .4-1 3 3 0 0 0 .1-.7 4 4 0 0 0 0-.4c0-.3 0-.5-.2-.7-.3-.2-.4-.3-.7-.3-.3 0-.6 0-.7.2a2 2 0 0 0-.6.7l-.4 1-.1 1c0 .5 0 .8.2 1 0 .1.3.2.6.2zm-44.9 12.5 1.5-7.1h1.6c.8 0 1.2.2 1.6.5.4.3.6.8.6 1.3 0 .9-.3 1.5-.9 1.9-.5.4-1.3.6-2.3.6h-.6l-.6 2.8zm1.6-3.4h.7c.6-.1 1.1-.3 1.4-.5.4-.3.6-.7.6-1.3 0-.4 0-.7-.3-.9-.2-.2-.7-.3-1-.3h-.8zm3.9 3.4 1.2-5.3h.6v.9l.4-.6.6-.3.6-.1h.6l-.2.8h-.5c-.3 0-.5 0-.9.2l-.6.9-.4 1.1-.5 2.5zm3.6 0v-.6l3.5-4H264l.1-.8h3.2l-.1.8-3.3 4h2.5v.6zm7 .1c-.6 0-1.1-.2-1.5-.5-.3-.4-.5-1-.5-1.5l.2-1.3.5-1.1c.3-.4.6-.6 1-.8a2 2 0 0 1 .9-.3c.6 0 1.1 0 1.3.3.2.2.3.5.3 1 0 .2 0 .5-.3.8-.2.4-.5.6-1 .8l-1.8.1h-.1v.5c-.1.4-.1.7.2 1 .2.1.5.2 1 .2h.6a5 5 0 0 0 .8-.3v.6a6 6 0 0 1-.7.4l-1 .1zm-1-3.1h.2l1-.1c.4 0 .7-.2 1-.4 0-.1.2-.3.2-.6s0-.3-.2-.4c0-.2-.3-.2-.5-.2-.5 0-.7.1-1 .3-.3.4-.5 1-.5 1.4zM272.6 57.4l1.2-5.3h.7l-.1.9.6-.6.4-.3.8-.1c.3 0 .6 0 .8.3.2.2.3.5.4.9l.5-.6.6-.6h.7c.5 0 .8 0 1 .3.2.2.3.7.3 1v.9l-.9 3.2h-.6l.6-3.3v-1.2l-.6-.2c-.2 0-.5 0-.7.3-.3 0-.5.4-.7.7l-.5 1.3-.5 2.4h-.9l.7-3.3.1-.7-.1-.4-.5-.3c-.2 0-.5 0-.7.2l-.7.8c-.2.4-.4.8-.5 1.4l-.5 2.3zm8.3 2.4h-.7V59h.3l.3.2c.3-.1.5-.1.7-.2l.5-1 .4-.5-.8-5.4h.9l.3 2.6v.7l.2.7v.6a28.7 28.7 0 0 1 .6-1.1c-.1-.3.1-.6.2-.6l1.5-3h1l-3.4 6.4c-.3.4-.6.8-1 1.1-.1.2-.5.3-.9.3zm6.4-2.3h-.8l-.7-.4v-.7l.7.3.8.1c.4 0 .7 0 .9-.2l.3-.6c0-.2 0-.4-.2-.5l-.7-.5c-.4-.2-.7-.4-.9-.7l-.2-.8c0-.5.1-.8.4-1.1.4-.4.8-.4 1.4-.4h.9c.2.3.5.3.7.4l-.3.6-.6-.2-.7-.1c-.3 0-.6 0-.7.2-.2.1-.3.3-.3.5s0 .4.2.6l.7.4.6.4.4.4.2.8c0 .4-.2.9-.6 1-.3.4-.8.5-1.5.5zm3.1-.1 1.6-7.6h.9l-.7 3-.2 1.3-.3.6 2.7-2.7h.9l-2.3 2.4 1.5 3h-1l-1.1-2.4-.7.5-.5 2zm6.8-6.2c-.2 0-.3 0-.4-.2l-.1-.3.1-.5.5-.1c.3-.1.4.1.4.4l-.1.5-.4.2zm-1.9 6.2 1.2-5.3h.8l-1.1 5.3zm4.7.1c-.6 0-1-.2-1.4-.5-.3-.4-.5-1-.5-1.5 0-.4 0-.8.2-1.3l.5-1.1c.2-.4.5-.6.9-.8a2 2 0 0 1 1-.3c.7 0 1.1 0 1.3.3.2.2.3.5.3 1l-.3.8c-.2.4-.6.6-1 .8l-1.8.1h-.2v.5c0 .4 0 .7.3 1 .2.1.5.2.9.2h.7a5 5 0 0 0 .8-.3v.6a6 6 0 0 1-.8.4l-.9.1zm-.9-3.1h.1l1.1-.1c.4 0 .7-.2.8-.4.2-.1.3-.3.3-.6l-.1-.4c-.1-.2-.3-.2-.6-.2s-.6.1-1 .3l-.5 1.4zm5.4 5.4h-1l-.5-.4v-.7l.6.3a3 3 0 0 0 .8 0c.6 0 .8 0 1-.1.4-.3.6-.6.6-1.1l.1-.4.1-.4.2-.6-1 .8c-.1.2-.4.3-.9.3s-.7-.1-1-.4c-.3-.4-.4-.8-.4-1.4-.1-.5-.1-1 .2-1.4 0-.4.3-.8.5-1.2l.8-.8a2 2 0 0 1 1.1-.3c.4 0 .7 0 .9.3.2.1.4.2.4.6l.5-.9h.5l-1 5.7c-.3.8-.6 1.3-1 1.6-.4.4-.9.5-1.5.5zm.3-3c.3 0 .5 0 .7-.3.2-.1.5-.3.6-.5l.5-1.1.2-1.1c0-.3-.1-.6-.3-.8-.1-.2-.4-.3-.7-.3-.3 0-.5 0-.7.3-.3 0-.5.4-.6.7-.2.2-.3.6-.5 1v.9c0 .8.3 1.2.8 1.2zm6.1.7c-.6 0-1.1-.2-1.5-.5-.3-.4-.4-1-.4-1.6v-1.2a4 4 0 0 1 .5-1c.3-.5.5-.8.9-1 .3-.1.6-.2 1.2-.2s1 .2 1.4.5c.4.5.6 1 .6 1.6l-.2 1.2a4 4 0 0 1-.5 1c-.2.5-.5.7-.9 1l-1.1.2Zm0-.7c.4 0 .6-.1.9-.4.3-.2.5-.4.6-1 .2-.2.3-.7.3-1.4l-.1-.6a1 1 0 0 0-.4-.5l-.6-.2c-.4 0-.7.1-1 .4-.3.2-.5.6-.6.9a4 4 0 0 0-.2 1.5c0 .4 0 .7.2 1 .3.1.6.2.9.2zm.1 0" style="fill:none;stroke:#fff;stroke-width:2;stroke-linecap:butt;stroke-linejoin:round;stroke-miterlimit:10;stroke-opacity:.6" transform="rotate(  340 269.719 72.6277) translate(-14.18644,30.146186)"/> <g style="fill:#007f00;fill-opacity:1" transform=" rotate(  340 269.719 72.6277) ">  <use xlink:href="#o" x="227.9" y="63.7"/>  <use xlink:href="#p" x="233.5" y="63.7"/>  <use xlink:href="#q" x="239.2" y="63.7"/>  <use xlink:href="#r" x="243.2" y="63.7"/>  <use xlink:href="#glyph2-5" x="248.1" y="63.7"/>  <use xlink:href="#s" x="250.7" y="63.7"/>  <use xlink:href="#q" x="256.4" y="63.7"/>  <use xlink:href="#p" x="260.1" y="63.7"/>  <use xlink:href="#t" x="265.8" y="63.7"/>  <use xlink:href="#u" x="268.4" y="63.7"/>  <use xlink:href="#v" x="274" y="63.7"/>  <use xlink:href="#q" x="279.8" y="63.7"/>  <use xlink:href="#p" x="283.6" y="63.7"/>  <use xlink:href="#w" x="289.3" y="63.7"/>  <use xlink:href="#u" x="293.7" y="63.7"/>  <use xlink:href="#x" x="299.2" y="63.7"/>  <use xlink:href="#y" x="306.4" y="63.7"/>  <use xlink:href="#o" x="251" y="75.6"/>  <use xlink:href="#u" x="256.7" y="75.6"/>  <use xlink:href="#z" x="262.3" y="75.6"/>  <use xlink:href="#A" x="268.1" y="75.6"/>  <use xlink:href="#q" x="273.8" y="75.6"/>  <use xlink:href="#w" x="277.7" y="75.6"/>  <use xlink:href="#p" x="282.2" y="75.6"/>  <use xlink:href="#o" x="239.1" y="87.6"/>  <use xlink:href="#q" x="244.7" y="87.6"/>  <use xlink:href="#w" x="248.7" y="87.6"/>  <use xlink:href="#B" x="253.2" y="87.6"/>  <use xlink:href="#C" x="258.2" y="87.6"/>  <use xlink:href="#y" x="266.9" y="87.6"/>  <use xlink:href="#D" x="271.6" y="87.6"/>  <use xlink:href="#r" x="275.9" y="87.6"/>  <use xlink:href="#E" x="280.9" y="87.6"/>  <use xlink:href="#B" x="283.4" y="87.6"/>  <use xlink:href="#z" x="288.4" y="87.6"/>  <use xlink:href="#u" x="294.2" y="87.6"/> </g> <path d="m219 94.5 1.6-7.2h1.6c.7 0 1.3.2 1.6.5.3.4.5.8.5 1.4 0 .8-.3 1.4-.8 1.8-.5.5-1.3.7-2.3.7h-.7l-.5 2.8zm1.7-3.6h.6c.6.1 1.1-.1 1.5-.4.4-.3.6-.7.6-1.3 0-.4-.1-.7-.3-.8-.3-.2-.6-.4-1.1-.4h-.8zm5.5 3.7c-.4 0-.7-.2-1-.6-.3-.2-.4-.7-.4-1.3 0-.5 0-1 .2-1.4l.5-1.2.8-.8a2 2 0 0 1 1.1-.3c.4 0 .7.1.9.3l.5.6.3-.8h.7l-1.1 5.4h-.7v-1l-.8.7c-.2.3-.6.4-1 .4zm.3-.8c.3 0 .5 0 .7-.2l.8-.8a4 4 0 0 0 .3-1 3 3 0 0 0 .1-.5 4 4 0 0 0 0-.5c.1-.3.1-.6-.1-.8-.3-.2-.5-.3-.8-.3-.3 0-.5.1-.7.3a2 2 0 0 0-.6.7c-.2.2-.2.6-.4 1l-.1.9c0 .6 0 .9.2 1.1.1.1.3.1.6.1zm3.8.7 1.1-5.5h.7v1.1l.4-.5.5-.4.7-.2h.6l-.3 1h-.4c-.4-.2-.7-.2-1 0l-.6 1-.3 1-.7 2.5zm3.9 0 1.6-7.6h1l-.8 3-.2 1.1-.2.7 2.6-2.6h1l-2.2 2.3 1.3 3h-1l-.9-2.4-1 .5-.3 2zm7.8 0 1.3-7.2h1.1l-.9 3.5.7-.8 2.7-2.7h1.1l-3 3.2 1.5 4h-.9l-1.4-3.5-.8.6-.6 2.9zm5.4 0 1.2-5.5h.7l-.1 1.1.4-.5.6-.4.6-.2h.6l-.2 1h-.5c-.3-.2-.6-.2-.9 0l-.6 1-.4 1-.5 2.5zm5.5.1c-.5 0-.9-.2-1.1-.6-.3-.2-.4-.7-.4-1.3 0-.5 0-1 .2-1.4l.4-1.2c.4-.3.6-.6 1-.8a2 2 0 0 1 1-.3c.4 0 .7.1 1 .3l.4.6.3-.8h.7l-1.1 5.4h-.7l.1-1-.8.7c-.4.3-.7.4-1 .4zm.1-.8c.4 0 .6 0 1-.2l.5-.8a4 4 0 0 0 .4-1 3 3 0 0 0 .1-.5 4 4 0 0 0 0-.5c0-.3 0-.6-.1-.8-.3-.2-.5-.3-.8-.3-.1 0-.5.1-.7.3a2 2 0 0 0-.6.7l-.4 1-.1.9c0 .6 0 .9.2 1.1.2.1.5.1.6.1zM258.7 88.2l-.3-.1-.1-.4v-.4l.6-.3c.2.1.4.3.4.6 0 .2 0 .3-.3.4 0 .2-.1.2-.3.2zM256 97l-.7-.2V96h.3l.4.2c.3-.1.6-.4.7-1.1l1.3-5.9h1l-1.4 6c-.1.5-.3 1-.6 1.2-.2.3-.6.6-1 .6zm5.7-2.5c-.7 0-1.2-.1-1.5-.5-.4-.4-.5-.9-.5-1.5l.1-1.2a4 4 0 0 1 .5-1.1c.2-.4.5-.6.9-.9.3-.2.7-.3 1.1-.3.7 0 1.1.2 1.5.6.3.4.5.9.5 1.4l-.1 1.3a4 4 0 0 1-.5 1.1c-.3.4-.5.6-.9.8-.3.2-.7.3-1.1.3zm0-.7.9-.3.6-1c.2-.4.2-.9.2-1.5v-.6a1 1 0 0 0-.4-.4l-.7-.2c-.3 0-.6 0-1 .2l-.4 1.1a4 4 0 0 0-.4 1.4c0 .5.1.8.3 1 .3.2.5.3.9.3zm5.8.8c-.5 0-.7-.1-.9-.3a2 2 0 0 1-.5-.6l-.4.8h-.6l1.6-7.6h.9l-.4 1.8-.2.6a53.3 53.3 0 0 1-.2.8 5 5 0 0 1 .9-.8c.3-.2.6-.3.9-.3.5 0 .8.2 1 .5.4.3.6.7.6 1.3-.1.5-.1 1-.3 1.4l-.5 1.2c-.2.4-.5.7-.8.9a2 2 0 0 1-1.1.3zm0-.8c.1 0 .3 0 .5-.2.4-.2.6-.4.7-.7a4 4 0 0 0 .4-1 5 5 0 0 0 .1-.9c0-1-.2-1.4-.9-1.4l-.6.4-.7.7c-.2.2-.3.6-.4 1-.2.3-.2.6-.2.9 0 .6 0 .8.2 1 .2.1.5.2.8.2zm3.4.7L272 89h.7v1.1l.3-.5.6-.4.7-.2h.6l-.2 1h-.5c-.3-.2-.6-.2-.9 0l-.7 1-.3 1-.6 2.5Zm5.4.1c-.3 0-.8-.2-1-.6-.3-.2-.4-.7-.4-1.3l.1-1.4.6-1.2.8-.8a2 2 0 0 1 1-.3c.5 0 .8.1 1.1.3l.2.6.6-.8h.6l-1.2 5.4h-.7l.2-1-1 .7c-.2.3-.5.4-.9.4zm.3-.8c.2 0 .4 0 .7-.2.2-.2.5-.6.7-.8a4 4 0 0 0 .4-1 3 3 0 0 0 .1-.5 4 4 0 0 0 0-.5c0-.3 0-.6-.2-.8-.3-.2-.4-.3-.7-.3-.3 0-.6.1-.7.3a2 2 0 0 0-.6.7c-.3.2-.3.6-.4 1l-.2.9c0 .6.1.9.3 1.1 0 .1.3.1.6.1zm3.3.7.1-.6 3.3-4.1h-2.2V89h3.4l-.2.8-3.3 4h2.6l-.1.7zm7.1 0c-.6 0-1.1-.1-1.5-.5-.3-.4-.5-.9-.5-1.5v-1.2a4 4 0 0 1 .6-1.1l.9-.9c.3-.2.7-.3 1.2-.3.6 0 1 .2 1.3.6.5.4.7.9.7 1.4l-.2 1.3a4 4 0 0 1-.5 1.1c-.2.4-.5.6-.8.8l-1.2.3zm0-.7c.4 0 .6-.1 1-.3l.4-1c.3-.4.4-.9.4-1.5l-.1-.6a1 1 0 0 0-.4-.4l-.6-.2c-.4 0-.7 0-1 .2-.3.4-.5.7-.6 1.1a4 4 0 0 0-.2 1.4c0 .5 0 .8.3 1 .2.2.5.3.8.3zm3.7.7-.2-5.5h.9v4.7a13.8 13.8 0 0 1 .6-1V92l1.5-2.9h1V92a25 25 0 0 1 .1 1.7l.4-1 .4-.9 1.2-2.7h1l-2.6 5.4h-1l-.1-3V90l-.5.6-.2.9-1.4 3zm6.3 2.4h-.6l-.2-.2V96h.8c0 .2.4.2.6 0l.4-.8.5-.7-.9-5.4h1l.2 2.7v1.4l.2.5a28.7 28.7 0 0 1 .5-1l.3-.7 1.6-2.9h1l-3.6 6.3-.7 1.1c-.3.2-.7.4-1.2.4zm-62.7 9.6c-.9 0-1.6-.2-2-.7-.5-.5-.8-1.1-.8-2a6 6 0 0 1 .3-1.8c.2-.6.5-1 .8-1.5.4-.4.8-.7 1.2-1 .5-.2 1-.3 1.6-.3h1.1l1 .5-.5.7a7.8 7.8 0 0 0-.7-.4l-1-.1c-.4.1-.9.2-1.3.5-.5.4-.9.8-1.1 1.4a4.8 4.8 0 0 0-.4 2c0 .2 0 .6.2.9.1.3.3.6.6.8l1 .2h.7l.6-.2.4-2h-1.4l.2-1h2.3l-.8 3.6a8 8 0 0 1-1 .3l-.9.1zm5.7 0c-.4 0-1-.2-1.3-.6-.4-.3-.6-.8-.6-1.5l.1-1.2a4 4 0 0 1 .5-1.1l.9-.8c.3-.3.7-.3 1.2-.3.6 0 1 .2 1.4.5.4.5.6 1 .6 1.5l-.2 1.3a4 4 0 0 1-.6 1c-.1.5-.4.7-.7 1l-1.3.2zm.2-.8c.3 0 .5 0 .9-.3.1-.2.3-.4.4-1 .3-.4.5-.8.5-1.4l-.2-.6a1 1 0 0 0-.4-.5l-.6-.2c-.4 0-.8.1-1 .4-.3.2-.5.6-.6.9a4 4 0 0 0-.2 1.4c0 .6 0 .8.3 1 .2.2.5.3.7.3zm.2-5.4.4-.6.4-.5.4-.5h1v.1l-.6.5-.4.7a6 6 0 0 1-.6.3zm3.1 6.1 1.2-5.4h.7l-.1 1 .5-.5.5-.4.6-.1h.6l-.2.8h-.5c-.3-.1-.6-.1-.8.2l-.7.9-.4 1.1-.5 2.4zm8.2.1h-1l-.7-.4v-.8l.7.3 1 .1.8-.1c.3-.1.5-.2.6-.4.2-.2.2-.5.2-.8 0-.3 0-.5-.2-.7l-1.1-.6a4.4 4.4 0 0 1-.4-.5 1.9 1.9 0 0 1-.6-.6v-.8c-.1-.4-.1-.8.2-1a2 2 0 0 1 .8-.9 3 3 0 0 1 1.2-.1h1l.8.5-.3.6-.7-.2-.8-.2c-.4.1-.7.2-1 .4-.3.2-.4.5-.4.9l.2.5.3.3.5.4.8.6a2 2 0 0 1 .4.5l.3.8c0 .8-.3 1.3-.7 1.7-.6.3-1.1.5-2 .5zm3.4-.1.6-2.8-.5.3-.3-.6 1-.6.9-3.9h.8l-.6 3.3.5-.3.3.5-1 .7-.8 3.4zm4.9.1c-.8 0-1.3-.2-1.6-.6-.4-.3-.5-.8-.5-1.5.1-.4.1-.8.2-1.2a4 4 0 0 1 .5-1.1l.8-.8 1.2-.3c.6 0 1.1.2 1.5.5.3.5.5 1 .5 1.5 0 .4 0 1-.2 1.3a4 4 0 0 1-.4 1c-.3.5-.6.7-.9 1-.3.1-.7.2-1.2.2zm0-.8c.3 0 .6 0 .8-.3.3-.2.5-.4.7-1l.2-1.4-.1-.6a1 1 0 0 0-.4-.5l-.6-.2c-.4 0-.6.1-1 .4l-.6.9a4 4 0 0 0-.2 1.4c0 .6.2.8.3 1 .2.2.5.3.9.3zm3.3.7 1.2-5.4h.7v1c-.1-.2.1-.3.3-.5a2 2 0 0 1 .7-.4l.7-.2c.5.1.8.1 1.1.4.3.2.4.5.4 1v.9l-1 3.2h-.9l.9-3.4v-.6c0-.5-.1-.7-.6-.7-.3 0-.5 0-.8.3-.3.1-.5.3-.7.7-.3.3-.4.8-.5 1.4l-.5 2.3zm5.8 0 1.2-5.4h.7v1c0-.2.1-.3.3-.5a2 2 0 0 1 .7-.4l.7-.2c.5.1.8.1 1 .4.3.2.5.5.5 1v.9l-1 3.2h-.9l.9-3.4v-.6c0-.5-.2-.7-.6-.7-.3 0-.6 0-.8.3-.3.1-.5.3-.8.7-.2.3-.3.8-.4 1.4l-.6 2.3zm5.3 2.4h-.4l-.3-.1v-.7h.7c.2 0 .5 0 .6-.1l.6-.8.3-.6-.8-5.5h1l.2 2.7v1.4l.3.6a28.8 28.8 0 0 1 .4-1.2l.3-.5 1.7-3h.9l-3.6 6.3c-.2.5-.5.9-.8 1.1-.3.3-.5.4-1.1.4zm7.4-2.3c-.6 0-1-.2-1.4-.5-.4-.3-.6-.8-.6-1.5 0-.5 0-1 .2-1.4.1-.4.3-.8.6-1 .2-.5.4-.8.8-1l1.2-.1h.7l.6.2-.2.7-.5-.1-.6-.1c-.4 0-.6.1-1 .3-.3.3-.5.7-.6 1a4 4 0 0 0-.3 1.5c0 .4.1.7.3 1 .2.1.5.2 1 .2h.5a7 7 0 0 0 .7-.3v.8l-.7.2-.7.1zm2.3-.1 1.6-7.6h1l-.6 2-.1.6v.6l.4-.5.6-.4.7-.1c.4 0 .8.1 1 .3.3.2.4.6.4 1v.4l-.1.4-.7 3.3h-.9l.7-3.4.1-.6c0-.2 0-.4-.2-.5 0-.2-.3-.2-.5-.2s-.5 0-.7.2l-.8.8c-.2.3-.4.8-.5 1.3l-.5 2.4zm0 0" style="fill:none;stroke:#fff;stroke-width:2;stroke-linecap:butt;stroke-linejoin:round;stroke-miterlimit:10;stroke-opacity:.6" transform="rotate(  340 186.842 117.532) translate(-73.887711,20.097458)"/> <g style="fill:#007f00;fill-opacity:1" transform=" rotate(  340 186.842 117.532) ">  <use xlink:href="#o" x="144.7" y="114.6"/>  <use xlink:href="#p" x="150.4" y="114.6"/>  <use xlink:href="#q" x="156.1" y="114.6"/>  <use xlink:href="#r" x="160.1" y="114.6"/>  <use xlink:href="#glyph2-5" x="165" y="114.6"/>  <use xlink:href="#s" x="167.6" y="114.6"/>  <use xlink:href="#q" x="173.2" y="114.6"/>  <use xlink:href="#p" x="177" y="114.6"/>  <use xlink:href="#t" x="182.7" y="114.6"/>  <use xlink:href="#u" x="185.3" y="114.6"/>  <use xlink:href="#v" x="190.9" y="114.6"/>  <use xlink:href="#q" x="196.7" y="114.6"/>  <use xlink:href="#p" x="200.5" y="114.6"/>  <use xlink:href="#w" x="206.2" y="114.6"/>  <use xlink:href="#u" x="210.6" y="114.6"/>  <use xlink:href="#x" x="216" y="114.6"/>  <use xlink:href="#y" x="223.3" y="114.6"/>  <use xlink:href="#F" x="156.9" y="126.5"/>  <use xlink:href="#A" x="163.7" y="126.5"/>  <use xlink:href="#q" x="169.3" y="126.5"/>  <use xlink:href="#glyph2-5" x="173.3" y="126.5"/>  <use xlink:href="#G" x="175.9" y="126.5"/>  <use xlink:href="#H" x="181" y="126.5"/>  <use xlink:href="#u" x="183.6" y="126.5"/>  <use xlink:href="#I" x="189.2" y="126.5"/>  <use xlink:href="#I" x="195" y="126.5"/>  <use xlink:href="#y" x="200.8" y="126.5"/>  <use xlink:href="#J" x="205.4" y="126.5"/>  <use xlink:href="#K" x="210" y="126.5"/> </g> <path d="M197 176.6c-.8 0-1.4-.2-2-.7-.3-.5-.6-1.2-.6-2 0-.4 0-.9.2-1.3 0-.6.2-.9.4-1.3l.8-1 1-.8 1.6-.2c.6 0 1.1.1 1.6.4l-.3.7a4 4 0 0 0-.7-.2l-.7-.2c-.5 0-1 0-1.3.4-.4.2-.7.5-.9.9a4 4 0 0 0-.5 1.2c-.2.5-.2.9-.2 1.3 0 .7.1 1.2.4 1.5.4.3.8.5 1.3.5h.9l.7-.4v.9l-.7.2a5 5 0 0 1-1 .1zm4.7-6.3c-.1 0-.2 0-.3-.3l-.2-.2.2-.5.4-.2c.3 0 .5.2.5.5 0 .2 0 .4-.2.5l-.4.2zm-1.7 6.2 1-5.4h1l-1.2 5.4zM203.7 176.6l-.7-.1-.8-.2v-.8l.8.3h.7c.3.1.7.1.9-.1.2-.2.3-.4.3-.6s.1-.4-.2-.5c-.1-.2-.4-.3-.7-.6l-.9-.6-.1-.8c-.1-.6 0-.9.3-1.1.4-.3.8-.5 1.4-.5h.9l.7.5-.3.6-.6-.1-.7-.2c-.3 0-.7 0-.7.2-.2 0-.3.3-.3.5s0 .3.3.5l.6.5c.2 0 .4.2.6.4.2 0 .3.1.4.4l.2.7c0 .5-.2 1-.6 1.2-.2.3-.8.4-1.5.4zm.7-6.2.4-.6a16.8 16.8 0 0 0 .7-.9h1c0 .2-.2.3-.4.5l-.6.6a6 6 0 0 1-.5.4zm2.3 6.1 1.3-5.4h.7l-.1 1c0-.2.2-.3.4-.5a2 2 0 0 1 .6-.4l.8-.2c.4 0 .6.1 1 .4.2.2.4.5.4 1v.4l-.3.5-.5 3.2h-1l.8-3.4v-.3l.1-.3c-.1-.5-.3-.7-.8-.7-.1 0-.4 0-.7.3-.2.1-.4.3-.7.7-.2.3-.4.8-.5 1.4l-.5 2.3zm7.7-6.2c-.1 0-.2 0-.3-.3l-.2-.2c.1-.2.1-.3.2-.5l.4-.2c.3 0 .5.2.5.5 0 .2 0 .4-.2.5l-.4.2zm-1.8 6.2 1.1-5.4h.9l-1.2 5.4zm4.2.1c-.4 0-.8-.2-1-.5-.3-.3-.5-.7-.5-1.3l.2-1.5.6-1.1c.2-.4.5-.7.8-.9a2 2 0 0 1 1.1-.2c.4-.1.7-.1 1 .2l.2.7.6-1h.6l-1.2 5.5h-.7l.2-1-1 .8c-.2.2-.5.3-.9.3zm.3-.7c.2 0 .5-.1.7-.3.2-.2.5-.4.6-.6a4 4 0 0 0 .6-1.1 3 3 0 0 0-.1-.7 4 4 0 0 0 .1-.4c0-.3 0-.5-.2-.7-.2-.2-.4-.3-.8-.3-.2 0-.4 0-.7.2a2 2 0 0 0-.5.7l-.4 1-.2 1.1c0 .4.1.6.3.8.1.2.3.4.5.4zM220.8 176.5l1.1-5.4h.8v1c-.1-.2.1-.3.3-.5a2 2 0 0 1 .7-.4l.7-.2c.6 0 .8.1 1 .4.3.2.4.5.4 1v.4l-.1.5-.7 3.2h-1l.8-3.4v-.6c.1-.5-.1-.7-.5-.7-.3 0-.6 0-.8.3-.3.1-.5.3-.8.7l-.5 1.4-.5 2.3zm2.9-6v-.3l.3-.2a16.8 16.8 0 0 0 .8-1.1h1l-.5.5-.5.6a6 6 0 0 1-.6.4zM227.9 176.6l-.9-.1-.6-.2v-.8l.6.3h.8c.4.1.7.1 1-.1.2-.2.2-.4.2-.6l-.1-.5-.7-.6-.9-.6c-.2-.2-.3-.4-.3-.8 0-.6.2-.9.5-1.1.3-.3.8-.5 1.3-.5h1l.6.5-.2.6-.6-.1-.8-.2c-.3 0-.5 0-.7.2l-.1.5c-.1.2-.1.3 0 .5l.8.5c.2 0 .4.2.6.4.2 0 .3.1.4.4l.2.7c0 .5-.2 1-.6 1.2-.4.3-.9.4-1.5.4zm3.1-.1 1.4-7.6h1.1l-.8 3.1-.2 1.2-.2.5 2.7-2.6h.9l-2.3 2.3 1.4 3.1h-1l-1-2.5-.9.6-.3 1.9zm6.9.1c-.6 0-1.1-.2-1.5-.6-.3-.3-.4-.8-.4-1.5v-1.2a4 4 0 0 1 .5-1.1l.9-.8c.3-.2.6-.4 1.2-.4s1 .3 1.4.6c.4.4.6 1 .6 1.5l-.2 1.3a4 4 0 0 1-.5 1c-.2.5-.5.8-.9 1l-1.1.2zm0-.8c.4 0 .6 0 1.1-.3 0-.2.2-.5.3-1 .3-.3.4-.8.4-1.3l-.1-.7a1 1 0 0 0-.4-.5l-.6-.2c-.4 0-.7.1-1 .4-.3.2-.5.6-.6 1a4 4 0 0 0-.2 1.4c0 .4 0 .7.2 1l.9.1zm3.4-1.6.2-.8h2.3l-.1.8zm-40.7 14.2-.3-7.1h.9l.1 4.3v1.8a25.2 25.2 0 0 1 .7-1.9l2-4.2h1v6.1l.6-.9.2-.9 1.9-4.3h1l-3.4 7.1h-.9V184a35.1 35.1 0 0 1-.1-1.5h-.2l-.1.5-.4.9-2.1 4.5zm9.4.1c-.6 0-1.1-.1-1.4-.5-.4-.4-.6-.9-.6-1.5l.2-1.2.6-1.3.8-.7a2 2 0 0 1 1.1-.3c.5 0 1 0 1.3.3 0 .2.3.5.3 1 0 .2-.3.5-.4.8-.2.4-.5.6-.9.8-.5.1-1 .1-1.9.1h-.1v.5c0 .4 0 .7.1 1 .3.2.6.3 1.1.3h.6a5 5 0 0 0 .8-.5v.8a6 6 0 0 1-.6.3l-1.1.1zm-1-3h.3l.9-.3c.5.1.8-.1 1-.2.1-.2.2-.4.2-.7 0-.2 0-.3-.2-.4l-.5-.2c-.3 0-.7.3-1 .5-.3.3-.5.7-.6 1.2zm5.4 3c-.4 0-.7 0-.9-.2-.3-.3-.4-.5-.4-1l.1-.5.6-3.1h-.8v-.2l1-.5.6-1.1h.5l-.1 1.1h1.2l-.1.8h-1.4l-.6 2.9v1l.4.1h.5l.2-.1v.7h-.2a2 2 0 0 1-.6.2zm1.7-.1 1.7-7.4h.8l-1.6 7.4zm4.5-6.2-.4-.1v-.8c.3-.3.4-.3.6-.3.2 0 .4.2.4.5s-.2.5-.2.5l-.4.2zm-1.9 6.2 1.3-5.3h.8l-1.2 5.3zm2.6 0 1.1-5.3h.8l-.1.9.5-.6a2 2 0 0 1 .4-.3l1-.1c.4 0 .7 0 1 .3.2.3.3.7.3 1v.5l-.1.4-.7 3.2h-1l.8-3.3v-.7c.1-.4-.1-.6-.5-.6-.3 0-.6 0-.8.2-.3 0-.5.4-.8.7l-.5 1.4-.5 2.3zm2.7-6v-.1l.5-.5a16.8 16.8 0 0 0 .8-1h1l-.5.7-.5.4a6 6 0 0 1-.6.5zM228.4 188.5h-.9l-.5-.4v-.7l.5.3.8.1c.4 0 .7 0 1-.2l.3-.6-.2-.5-.7-.5-.9-.6-.3-.9c0-.4.2-.8.5-1 .3-.5.8-.5 1.3-.5h1l.7.4-.3.6-.7-.2h-1.4l-.2.7c0 .1 0 .3.2.4l.7.5.6.4.4.5.2.6c0 .5-.2 1-.6 1.2-.4.3-.9.4-1.5.4zm3-.1 1.6-7.4h1l-.8 2.9-.2 1.1-.2.7 2.6-2.7h1l-2.3 2.4 1.4 3h-1l-.9-2.4-1 .5-.3 2zm6.8-6.2-.2-.1-.2-.4v-.4c.2-.3.4-.3.6-.3.2 0 .4.2.4.5s0 .5-.2.5l-.4.2zm-1.8 6.2 1.1-5.3h.9l-1.1 5.3zm-58.6 12 1.5-7.2h1.6c.7 0 1.3.2 1.6.6.3.2.5.8.5 1.2 0 .9-.3 1.5-.8 2-.5.4-1.3.6-2.3.6h-.7l-.6 2.8zm1.5-3.6h.7c.6 0 1.2-.1 1.5-.4.5-.3.6-.7.6-1.3 0-.4-.1-.6-.3-.8-.3-.3-.6-.3-1-.3h-.8ZM185 200.5c-.6 0-.9-.2-1.2-.5-.2-.3-.3-.7-.3-1.4 0-.5 0-1 .2-1.4l.5-1.2c.3-.3.5-.6.9-.8a2 2 0 0 1 .9-.2c.5 0 .8 0 1 .2l.5.8.3-1h.7l-1.1 5.4h-.7l.1-1-.9.8c-.3.2-.6.3-.9.3zm.1-.7c.4 0 .6-.1.9-.3l.6-.7a4 4 0 0 0 .4-1 3 3 0 0 0 .1-.7 4 4 0 0 0 0-.4c.1-.3.1-.5-.1-.7-.3-.2-.5-.3-.8-.3-.2 0-.5 0-.7.2a2 2 0 0 0-.6.7l-.4 1-.1 1c0 .4 0 .8.2 1 .1.1.4.2.6.2zm3.9.6 1-5.4h.8v1l.4-.5.5-.5.7-.1h.6l-.2 1h-.5c-.3-.2-.6-.2-.9.1l-.7.9-.3 1-.5 2.5zm4 0 1.4-7.6h1.1l-.8 3-.2 1.2-.2.6 2.7-2.6h.9l-2.3 2.3 1.4 3h-1l-1-2.3-.8.4-.4 2zm7.6 0 1.5-7.2h1l-.9 3.5.7-.6 2.8-2.9h1l-3 3.2 1.5 4h-.9l-1.3-3.5-1 .6-.5 2.9zm5.5 0 1.2-5.4h.7l-.1 1 .5-.5.5-.5.6-.1h.6l-.1 1h-.6c-.3-.2-.6-.2-.9.1l-.5.9-.5 1-.5 2.5Zm5.5.1c-.6 0-.8-.2-1-.5-.5-.3-.6-.7-.6-1.4.1-.5.1-1 .3-1.4l.5-1.2c.3-.3.5-.6.9-.8a2 2 0 0 1 1-.2c.4 0 .7 0 .9.2l.4.8.5-1h.5l-1 5.4h-.7l.1-1-.8.8c-.3.2-.7.3-1 .3zm.2-.7c.3 0 .5-.1.8-.3l.6-.7a4 4 0 0 0 .5-1 3 3 0 0 0 0-.7 4 4 0 0 0 0-.4c.1-.3.1-.5-.1-.7-.3-.2-.5-.3-.8-.3-.2 0-.5 0-.7.2a2 2 0 0 0-.6.7l-.4 1-.1 1c0 .4 0 .8.2 1l.6.2zm5.6-5.7h-.3l-.1-.5v-.4l.5-.2c.3 0 .5.2.5.5 0 .2 0 .3-.2.5h-.4zm-2.7 8.7-.7-.1v-.8l.3.1h.3c.4 0 .7-.2.8-1l1.3-6h.9l-1.3 6.1c-.1.5-.3 1-.5 1.2-.3.3-.6.5-1.1.5zm5.7-2.3c-.7 0-1.2-.2-1.5-.6-.4-.4-.5-.9-.5-1.5l.1-1.2a4 4 0 0 1 .5-1.2c.2-.3.5-.5 1-.7.2-.3.6-.4 1-.4.7.1 1.2.2 1.5.6.5.5.5.9.5 1.5v1.2a4 4 0 0 1-.6 1.2c-.4.3-.5.6-.9.8-.3.2-.7.3-1.1.3zm0-.8c.3 0 .6 0 .9-.3.2-.2.5-.5.6-1 .2-.4.2-.9.2-1.4v-.7a1 1 0 0 0-.5-.3c-.1-.3-.3-.3-.6-.3s-.6.1-1 .3c-.2.3-.4.6-.5 1a4 4 0 0 0-.2 1.4c0 .4 0 .8.3 1 .2.2.4.3.8.3zm5.8.8c-.4 0-.6-.1-.9-.3a2 2 0 0 1-.5-.6l-.4.8h-.6l1.6-7.6h.9l-.4 1.8-.2.7a53.3 53.3 0 0 1-.2.7 5 5 0 0 1 1-.7c.1-.3.5-.4.9-.4s.6.2.9.5c.4.3.5.8.5 1.4 0 .4 0 .9-.2 1.2l-.5 1.4-.8.8a2 2 0 0 1-1.1.3zm0-.7.6-.3.6-.7a4 4 0 0 0 .4-1 5 5 0 0 0 .1-.9c.1-.9-.3-1.3-.8-1.3-.3.1-.5.1-.7.3l-.7.7-.4 1-.3 1c.1.4.1.8.4 1 .1.1.4.2.6.2zm3.4.6 1.1-5.4h.7v1l.4-.5.5-.5.7-.1h.6l-.2 1h-.5c-.3-.2-.6-.2-.9.1-.3.3-.5.6-.6.9l-.4 1-.5 2.5zm5.4.1c-.4 0-.8-.2-1-.5-.3-.3-.4-.7-.4-1.4 0-.5 0-1 .2-1.4 0-.4.2-.8.5-1.2l.8-.8a2 2 0 0 1 1-.2c.5 0 .8 0 1.1.2l.3.8h.1l.3-1h.7l-1.2 5.4h-.7l.3-1-1 .8c-.3.2-.6.3-1 .3zm.3-.7c.3 0 .5-.1.7-.3l.7-.7a4 4 0 0 0 .3-1 3 3 0 0 0 .2-.7 4 4 0 0 0 0-.4c0-.3 0-.5-.2-.7-.2-.2-.4-.3-.7-.3-.3 0-.5 0-.7.2a2 2 0 0 0-.6.7l-.4 1-.1 1c0 .4 0 .8.2 1 .1.1.3.2.6.2zm3.3.6.1-.6 3.4-4.1h-2.3l.1-.7h3.3l-.2.7-3.3 4h2.6l-.1.7zm7.1.1c-.6 0-1.1-.2-1.5-.6-.2-.4-.5-.9-.5-1.5 0-.4 0-.8.2-1.2a4 4 0 0 1 .5-1.2c.2-.3.5-.5.8-.7.3-.3.7-.4 1.2-.4.6.1 1 .2 1.4.6.4.5.6.9.6 1.5 0 .4 0 .8-.2 1.2a4 4 0 0 1-.5 1.2l-.8.8-1.2.3zm0-.8c.4 0 .7 0 1-.3.1-.2.3-.5.4-1 .3-.4.4-.9.4-1.4l-.1-.7a1 1 0 0 0-.4-.3c0-.3-.4-.3-.6-.3-.4 0-.7.1-1 .3l-.6 1a4 4 0 0 0-.2 1.4c0 .4 0 .8.3 1 .1.2.5.3.8.3zm3.7.7-.2-5.4h.9v4.6a13.8 13.8 0 0 1 .6-1l.1-.6 1.4-3h1l.1 2.8a25 25 0 0 1 0 1.8c.3-.2.4-.5.5-.9l.4-1 1.1-2.7h1l-2.5 5.4h-1l-.3-3V196l-.4.6-.1.8-1.5 3zm6.2 2.4h-.4l-.2-.1v-.7h.6c.3 0 .4 0 .7-.1.2-.2.3-.5.5-.8l.4-.6-.8-5.5h.8l.4 2.7v.7l.2.6v.7a28.7 28.7 0 0 1 .4-1.2l.3-.5 1.6-3h.9l-3.5 6.3c-.1.5-.4.9-.7 1.1-.3.3-.8.4-1.2.4zm0 0" style="fill:none;stroke:#fff;stroke-width:2;stroke-linecap:butt;stroke-linejoin:round;stroke-miterlimit:10;stroke-opacity:.6" transform="rotate(  340 257.709 205.541) translate(37.830508,20.097458)"/> <g style="fill:#007f00;fill-opacity:1" transform=" rotate(  340 257.709 205.541) ">  <use xlink:href="#L" x="231.6" y="196.6"/>  <use xlink:href="#E" x="237.4" y="196.6"/>  <use xlink:href="#M" x="240" y="196.6"/>  <use xlink:href="#I" x="244.3" y="196.6"/>  <use xlink:href="#E" x="250.1" y="196.6"/>  <use xlink:href="#p" x="252.7" y="196.6"/>  <use xlink:href="#N" x="258.4" y="196.6"/>  <use xlink:href="#D" x="264.2" y="196.6"/>  <use xlink:href="#r" x="268.5" y="196.6"/>  <use xlink:href="#u" x="273.2" y="196.6"/>  <use xlink:href="#O" x="278.9" y="196.6"/>  <use xlink:href="#P" x="237" y="208.5"/>  <use xlink:href="#B" x="245.4" y="208.5"/>  <use xlink:href="#Q" x="250.4" y="208.5"/>  <use xlink:href="#R" x="253.7" y="208.5"/>  <use xlink:href="#E" x="256.3" y="208.5"/>  <use xlink:href="#N" x="258.9" y="208.5"/>  <use xlink:href="#D" x="264.7" y="208.5"/>  <use xlink:href="#r" x="269" y="208.5"/>  <use xlink:href="#E" x="273.9" y="208.5"/>  <use xlink:href="#o" x="215.2" y="220.5"/>  <use xlink:href="#p" x="220.8" y="220.5"/>  <use xlink:href="#q" x="226.5" y="220.5"/>  <use xlink:href="#r" x="230.5" y="220.5"/>  <use xlink:href="#glyph2-5" x="235.5" y="220.5"/>  <use xlink:href="#s" x="238.1" y="220.5"/>  <use xlink:href="#q" x="243.7" y="220.5"/>  <use xlink:href="#p" x="247.5" y="220.5"/>  <use xlink:href="#t" x="253.1" y="220.5"/>  <use xlink:href="#u" x="255.7" y="220.5"/>  <use xlink:href="#v" x="261.3" y="220.5"/>  <use xlink:href="#q" x="267.1" y="220.5"/>  <use xlink:href="#p" x="270.9" y="220.5"/>  <use xlink:href="#w" x="276.6" y="220.5"/>  <use xlink:href="#u" x="281" y="220.5"/>  <use xlink:href="#x" x="286.5" y="220.5"/>  <use xlink:href="#y" x="293.7" y="220.5"/> </g></svg>