<svg xmlns="http://www.w3.org/2000/svg" xmlns:xlink="http://www.w3.org/1999/xlink" viewBox="0 0 497 279"> <defs overflow="visible" style="stroke:none">  <path id="x" d="M2.8.2c-.6 0-1-.2-1.4-.4C1-.5 1-1 1-1.6a5 5 0 0 1-.1-1L2-7H.7v-.6l1.5-.6.9-1.7h.7L3.4-8h2l-.1 1h-2l-1 4.3v.5l-.2.5c.1.1.1.3.3.4 0 .3.3.4.6.4h.5l.5-.3v1.1l-.5.1a3 3 0 0 1-.7 0Zm0 0"/>  <path id="w" d="m.4 0 2.4-11.4h1.4l-.7 3-.2.9-.3 1h.1l.7-.8c.2-.2.5-.5.9-.6.3-.2.7-.3 1.1-.3.6 0 1.2.2 1.5.5.4.4.5.9.5 1.7v.5l-.1.5-1 5H5.2l1.1-5 .3-1c-.1-.4-.1-.6-.3-.8-.3-.2-.5-.3-.8-.3-.5.1-.7.1-1.1.4-.4.2-.8.6-1.1 1.1-.4.6-.6 1.3-.8 2.1L1.7 0Zm0 0"/>  <path id="v" d="m1.7 0-1-8H2l.5 4.4v1A20.2 20.2 0 0 1 2.8-1a22 22 0 0 1 .7-1.8l.5-.8L6.3-8h1.4L3.4 0Zm0 0"/>  <path id="u" d="M.6 0 3-10.7h1.2l-2 9.5h4.1L6 0Zm0 0"/>  <path id="t" d="m.4-3.4.3-1.2h3.5l-.3 1.2Zm0 0"/>  <path id="s" d="M3.2-9.4c-.2 0-.4 0-.5-.2-.2 0-.2-.3-.2-.4s0-.6.2-.8l.7-.2c.4 0 .6.2.6.6 0 .4 0 .6-.2.8l-.6.2ZM.4 0l1.7-8h1.4L1.7 0Zm0 0"/>  <path id="r" d="M3.7.2c-.9 0-1.6-.3-2.2-.8C1-1 .7-1.8.7-2.8c0-.8.1-1.5.3-2a5.5 5.5 0 0 1 1-1.9 4 4 0 0 1 1.2-1.1 3.5 3.5 0 0 1 1.7-.4L6-8c.4 0 .7.1 1 .2l-.5 1.1-.7-.3A3 3 0 0 0 5-7c-.6 0-1 0-1.6.4-.4.5-.7 1-1 1.6a5.8 5.8 0 0 0-.3 2.1c-.1.6.1 1.1.4 1.5.5.3.8.4 1.3.4.4 0 .7 0 1-.1l1-.3v1l-1 .4-1.1.2Zm0 0"/>  <path id="q" d="m.4 0 2.4-11.4h1.4L1.7 0Zm0 0"/>  <path id="p" d="m.4 0 1.7-8h1.1L3-6.6h.1l.7-.7c.2-.3.5-.5.8-.7a2 2 0 0 1 1-.2H6l.4.2-.2 1.1h-.8a2 2 0 0 0-1.4.3 4 4 0 0 0-1 1.4l-.4 1.5L1.7 0Zm0 0"/>  <path id="o" d="M2.8.2c-.6 0-1-.2-1.4-.6C1-.7.8-1.2.8-1.8v-.7l.2-.6 1-5h1.4L2.3-3a5 5 0 0 0-.1 1c0 .3 0 .6.2.8.2.2.4.2.8.2.3 0 .7-.1 1.1-.3.4-.2.8-.6 1.1-1.2.3-.5.6-1.2.8-2L6.9-8h1.3L6.5 0h-1l.1-1.5a8 8 0 0 1-.8.8L4-.1c-.3.2-.7.3-1.2.3Zm.6-9.3.2-.9h4l-.2.8Zm0 .1"/>  <path id="n" d="M3.2-9.4c-.2 0-.4 0-.5-.2-.2 0-.2-.3-.2-.4s0-.6.2-.8l.7-.2c.4 0 .6.2.6.6 0 .4 0 .6-.2.8l-.6.2ZM-1 3.6l-.9-.1V2.3l.4.2h.5C-.4 2.5 0 2 .2 1l2-9h1.1L1.4 1.2c.1.7-.2 1.3-.6 1.7-.5.5-1.1.7-1.8.7Zm0 0"/>  <path id="m" d="M2.3.2 1 0C.7 0 .4-.2 0-.4v-1.2L1-1a4 4 0 0 0 1.4 0c.5 0 .9-.1 1.2-.3.4-.2.5-.5.5-.9-.1-.3-.1-.5-.3-.7l-1-.7-1.4-1C1.2-5 1-5.4 1-6c0-.6.3-1.1.8-1.6.3-.4 1.1-.6 2-.6.4 0 .9 0 1.2.2.5 0 1 .2 1.1.4l-.2 1a7.4 7.4 0 0 0-1.1-.3 3.8 3.8 0 0 0-.9-.2c-.6.1-.9.1-1.1.3-.4.2-.6.5-.6.8.1.3.2.5.4.7l1 .7a9 9 0 0 1 1.1.6l.5.7c.2.3.2.6.2 1 0 .8-.2 1.3-.8 1.8C4 0 3.3.2 2.3.2Zm0 0"/>  <path id="l" d="M2.9.2c-.6 0-1.2-.3-1.6-.7C1-1 .7-1.7.7-2.5s.1-1.7.3-2.3a6.3 6.3 0 0 1 .8-1.7 4 4 0 0 1 1.3-1.2 3 3 0 0 1 1.6-.5c.5 0 1 .2 1.3.4l.7 1L7.3-8h1L6.5 0h-1l.2-1.5A6 6 0 0 1 4.3-.3C4 0 3.4.2 3 .2ZM3.3-1c.4 0 .8-.1 1.1-.3a4 4 0 0 0 1-1.1 6 6 0 0 0 .8-2.4v-.7c0-.4-.1-.8-.4-1.1-.2-.4-.6-.5-1-.5s-.7.1-1 .4c-.5.2-.8.6-1.1 1l-.4 1.5c-.3.4-.3.9-.3 1.6 0 .6 0 1 .4 1.3.2.2.5.3 1 .3Zm0 0"/>  <path id="k" d="m2.8 3.6-1.4-.1-1-.5V1.9l1 .4 1.4.2c.6 0 1-.2 1.5-.5.4-.2.7-.7.7-1.4l.3-.6a21.2 21.2 0 0 1 .2-1.5L4.4-.3C4 0 3.4.2 3 .2c-.7 0-1.3-.3-1.7-.7C1-1 .7-1.7.7-2.5A8 8 0 0 1 1-4.8a6.3 6.3 0 0 1 .8-1.7A4 4 0 0 1 3-7.7a3 3 0 0 1 1.7-.5c.5 0 1 .2 1.3.4l.7 1L7.4-8h.9L6.4.5c-.2 1-.6 1.9-1.2 2.4-.7.5-1.4.7-2.4.7ZM3.3-1c.4 0 .7-.1 1-.3l1.1-1L6-3.8a5.7 5.7 0 0 0 .2-1.7c0-.4 0-.8-.2-1.1-.3-.4-.7-.5-1.2-.5-.4.1-.8.2-1.1.4l-.9 1-.5 1.5c-.3.5-.3 1-.3 1.6 0 1.1.5 1.7 1.3 1.7Zm0 0"/>  <path id="j" d="m.4 0 1.7-8h1.4L1.7 0ZM1-9l.2-1.3h4L5-9Zm0 0"/>  <path id="i" d="M.6 0 3-10.7h2.2c2.2 0 3.3.9 3.3 2.7 0 .8-.2 1.4-.5 2-.5.6-1 1-2 1.3L7.6 0H6.2L4.6-4.4H3L1.9 0Zm2.5-5.6h1.2c1 0 1.7-.2 2.2-.6.4-.5.7-1 .7-1.8 0-.5-.2-1-.6-1.2-.3-.2-.8-.3-1.5-.3H4Zm0 0"/>  <path d="M1.4 0v-10.7h6.2V0Zm.8-.8h4.6v-9.1H2.2Zm0 0"/>  <path id="h" d="M1.7 0H.8v-7.6h1Zm0 0"/>  <path id="g" d="M1.3-7.4c.1 0 .3 0 .4.2l.1.4-.1.4-.4.2-.4-.3-.1-.3.1-.4.4-.2Zm.4 2V0H.8v-5.4Zm0 0"/>  <path id="f" d="M3.4-5.5c.7 0 1.2.3 1.6.7.4.5.6 1.2.6 2.1 0 1-.2 1.7-.6 2-.4.7-1 .9-1.6.9-.4-.2-.8-.2-1-.3l-.7-.6v3.1H.8v-7.8h.8v.8h.2c.2-.4.3-.5.6-.6.2-.2.6-.3 1-.3Zm-.2.8c-.5 0-.9.1-1.1.5-.2.2-.4.7-.4 1.2v.3c0 .7.1 1.2.3 1.5.3.4.7.6 1.3.6.3 0 .6-.1.7-.4l.5-.6.2-1.1c0-.6-.1-1.1-.4-1.5-.2-.3-.6-.5-1-.5Zm0 0"/>  <path id="e" d="M4.3-1.5c0 .5-.2 1-.5 1.2-.4.3-1 .4-1.6.4l-1-.1-.7-.2V-1l.8.3h1.8l.4-.7-.1-.4L3-2a7.5 7.5 0 0 0-.8-.4 7.5 7.5 0 0 1-1-.4l-.4-.5L.5-4c0-.5.2-.8.6-1 .3-.4.8-.6 1.4-.6l1 .2a4 4 0 0 1 .6.4l-.1.6-.8-.2-.7-.1-.9.1c-.2.2-.3.3-.3.6s0 .2.2.3l.4.3.8.3.9.4.4.5c.3.2.3.4.3.7Zm0 0"/>  <path id="d" d="M2.6-.6H3l.4-.2v.7L3 0H1.7l-.6-.5-.1-1v-3.3H.2V-5l.7-.5.4-1h.5v1h1.5v.8H1.8v3.1c0 .3 0 .6.2.7l.6.3Zm0 0"/>  <path id="c" d="M3.4-5.5c.7 0 1.2.2 1.6.5.2.3.4.8.4 1.5V0h-.9v-3.4c0-.9-.4-1.3-1.2-1.3-.6 0-1 .1-1.2.5-.3.2-.4.8-.4 1.4V0H.8v-5.4h.8v.8h.2c.2-.4.3-.5.7-.7l1-.2Zm0 0"/>  <path id="b" d="M3-5.5c.3 0 .7.1 1 .3a2 2 0 0 1 1 .9v1.8H1.5c0 .5.1 1 .4 1.4.3.3.7.4 1.3.4H4l.9-.3v.8L4 0a5 5 0 0 1-1 0 3 3 0 0 1-1.2-.1 2.2 2.2 0 0 1-1-1.1c0-.2-.2-.8-.2-1.3-.1-.7 0-1.2.2-1.6.2-.5.5-.9.9-1 .3-.2.7-.4 1.2-.4Zm0 .8c-.6 0-.9.1-1 .4-.4.2-.6.6-.6 1.1h2.8c0-.5-.1-.8-.3-1.1-.2-.3-.5-.4-1-.4Zm0 0"/>  <path id="a" d="M6-7.1 3.5 0h-1L0-7.1h1l1.4 4.5A16.5 16.5 0 0 1 3-1l.2-.7.3-.9L5-7Zm0 0"/>  <path d="M1 0v-7.1h4V0Zm.4-.5h3.1v-6.1h-3Zm.1 0"/> </defs> <image xlink:href="svg/9/1_20.jpg" width="497" height="279"/> <path d="m61.8 252.2-2.7 7.1h-.8l-2.5-7.1h.8l1.7 4.6a16.5 16.5 0 0 1 .5 1.5l.1-.7.3-.8 1.6-4.6Zm2.7 1.7c.4 0 .8 0 1.1.3a2 2 0 0 1 .8.8c.2.4.3.8.3 1.3v.5H63c0 .6.2 1.2.5 1.4.3.3.7.5 1.2.5l1-.1.6-.3v.8l-.7.3a5 5 0 0 1-1 0 3 3 0 0 1-1.2-.3 2.2 2.2 0 0 1-1-.9c-.2-.4-.3-1-.3-1.5 0-.6.1-1 .3-1.5.2-.4.5-.8.8-1 .4-.2.8-.2 1.3-.2Zm0 .7c-.5 0-.8.1-1 .4-.3.3-.5.6-.5 1.1h2.8c0-.4-.2-.8-.4-1-.2-.5-.4-.6-1-.6Zm6.1-.7c.7 0 1.1.1 1.5.5.3.3.5.8.5 1.5v3.4h-1V256c.1-.9-.2-1.4-1-1.4-.7 0-1.1.2-1.3.5-.3.4-.4.9-.4 1.5v2.7H68V254h.8v.7h.2c.1-.3.3-.5.6-.6l1-.2Zm5.4 4.8h.8v.5h-.4l-.5.3-.9-.2c-.2-.1-.3-.3-.5-.5l-.2-1v-3.1h-.8v-.5l.8-.2.4-1.3h.5v1.3h1.5v.7h-1.5v3c0 .5 0 .7.2.9l.6.1Zm5.3-.8c0 .5-.2.9-.6 1.1-.3.3-.9.4-1.5.4h-1l-.7-.4v-.7l.8.3.9.1c.4 0 .8 0 1-.2.2-.1.3-.3.3-.5l-.1-.4-.4-.3a7.5 7.5 0 0 0-.8-.4 7.5 7.5 0 0 1-1-.4l-.4-.5-.3-.7c0-.5.2-.8.5-1 .4-.3 1-.4 1.5-.4h1a4 4 0 0 1 .6.4l-.1.7-.8-.3h-1.6l-.3.6.1.3.6.4.7.3.9.4c.2 0 .4.3.4.5.3.1.3.4.3.7Zm3.9-4c.6 0 1.2.1 1.6.7.4.4.6 1.1.6 2 0 1.1-.2 1.8-.6 2.2-.4.4-1 .6-1.6.6-.5 0-.8 0-1-.2-.4-.2-.7-.3-.8-.5v3h-.8V254h.7l.2.7.6-.6 1-.1Zm-.2.7c-.5 0-1 .2-1.2.5-.2.3-.3.8-.3 1.4v.2c0 .6.1 1.1.3 1.5.2.3.6.5 1.2.5.4 0 .6 0 .8-.3.2-.1.4-.4.5-.7l.2-1c0-.7-.2-1.3-.5-1.6-.1-.3-.5-.5-1-.5Zm4.2-2.6h.4l.1.5-.1.5-.4.1c-.1-.1-.2-.1-.4-.2l-.1-.4.1-.4.4-.1Zm.5 2v5.3h-1V254Zm2.5 5.3h-.9v-7.6h1Zm5.2-1.4c0 .5-.2.9-.6 1.1-.3.3-.8.4-1.5.4h-1l-.7-.4v-.7l.8.3.9.1c.4 0 .8 0 1-.2.2-.1.3-.3.3-.5l-.1-.4-.5-.3a7.5 7.5 0 0 0-.7-.4 7.5 7.5 0 0 1-1-.4l-.4-.5-.3-.7c0-.5.2-.8.5-1 .4-.3.9-.4 1.5-.4h1a4 4 0 0 1 .6.4l-.2.7-.7-.3h-1.6l-.3.6c0 .1 0 .2.2.3l.4.4.8.3.9.4c.2 0 .3.3.5.5.2.1.2.4.2.7Zm0 0" style="fill:none;stroke-width:3;stroke-linecap:butt;stroke-linejoin:round;stroke:#fff;stroke-opacity:.6;stroke-miterlimit:10" transform=" rotate(  340 77.3154 256.339) "/> <g style="fill:#222;fill-opacity:1" transform=" rotate(  340 77.3154 256.339) ">  <use xlink:href="#a" x="55.8" y="259.3"/>  <use xlink:href="#b" x="61.6" y="259.3"/>  <use xlink:href="#c" x="67.2" y="259.3"/>  <use xlink:href="#d" x="73.4" y="259.3"/>  <use xlink:href="#e" x="77" y="259.3"/>  <use xlink:href="#f" x="81.8" y="259.3"/>  <use xlink:href="#g" x="87.9" y="259.3"/>  <use xlink:href="#h" x="90.5" y="259.3"/>  <use xlink:href="#e" x="93.1" y="259.3"/> </g> <path d="m372.5 99.2 2.3-10.7h2.2c2.3 0 3.4 1 3.4 2.7 0 .8-.2 1.5-.6 2-.4.6-1 1-2 1.3l1.7 4.7h-1.4l-1.6-4.4h-1.7l-1 4.4Zm2.5-5.5h1.2c1 0 1.7-.3 2.2-.7.4-.4.6-1 .6-1.7 0-.6-.1-1-.5-1.2-.3-.3-.8-.4-1.5-.4h-1Zm6 5.5 1.5-8h1.5l-1.8 8Zm.3-9 .4-1.2h4l-.2 1ZM387.2 102.8l-1.4-.1c-.4-.1-.8-.2-1-.4v-1.2c.2.2.5.3.9.4.5.2 1 .2 1.3.2.7 0 1.2-.1 1.6-.4.4-.3.7-.8.9-1.5l.1-.6a21.2 21.2 0 0 1 .4-1.5l-1.3 1.3c-.4.2-.9.4-1.4.4-.7 0-1.3-.4-1.6-.7-.4-.5-.6-1.2-.6-2a8 8 0 0 1 .3-2.3 6.3 6.3 0 0 1 .8-1.7 4 4 0 0 1 1.2-1.2 3 3 0 0 1 1.6-.5c.6 0 1 .2 1.3.5.4.2.7.5.8 1l.5-1.4h1l-1.8 8.6c-.2 1.1-.7 2-1.3 2.3-.5.6-1.4.8-2.3.8Zm.5-4.5c.4 0 .7-.1 1-.4.4-.2.7-.6 1-.9.3-.5.5-1.1.7-1.6a5.7 5.7 0 0 0 .2-1.6c0-.5-.1-1-.3-1.2-.3-.3-.6-.5-1.3-.5-.3 0-.6.2-.9.4l-1.1 1-.3 1.5-.3 1.7c0 1 .6 1.6 1.3 1.6Zm8.3 1.1c-.8 0-1.3-.4-1.7-.7-.3-.5-.5-1.2-.5-2s0-1.6.2-2.3a6.3 6.3 0 0 1 .9-1.7 4 4 0 0 1 1.1-1.2 3 3 0 0 1 1.7-.5c.6 0 1 .2 1.3.5.3.2.6.5.7 1h.1l.5-1.4h1l-1.7 8.1h-1v-1.5a6 6 0 0 1-1.1 1.3c-.5.2-1 .4-1.6.4Zm.3-1.1c.5 0 .7-.1 1.1-.4a4 4 0 0 0 1.1-1.1 6 6 0 0 0 .8-2.4v-.6c0-.5-.1-1-.4-1.2-.3-.3-.6-.5-1-.5s-.9.2-1.1.4l-.9 1-.6 1.5-.2 1.7c0 .5.1 1 .3 1.2.3.3.6.4 1 .4ZM404 99.4c-.7 0-1 0-1.5-.2l-.9-.2v-1.4l1.1.5a4 4 0 0 0 1.3.2c.5 0 .9-.1 1.2-.4.3-.2.5-.5.5-.9 0-.3-.1-.5-.3-.7l-1-.7c-.7-.3-1.1-.7-1.4-1-.3-.3-.4-.8-.4-1.3 0-.7.2-1.2.7-1.6.5-.5 1.2-.7 2-.7.5 0 1 0 1.4.2.3.1.8.2 1 .4l-.3 1a7.4 7.4 0 0 0-.9-.3 3.8 3.8 0 0 0-1.2-.2c-.3 0-.7.2-1 .4-.3.2-.4.4-.4.7.1.3.1.5.3.8.1.1.5.4 1 .6a9 9 0 0 1 1 .7l.6.6.2 1.1c0 .7-.3 1.3-.8 1.8-.6.4-1.3.6-2.3.6Zm11.1-9.6-.5-.1-.2-.7.3-.5c.1-.2.3-.3.6-.3.5 0 .7.2.7.7 0 .3-.1.5-.3.7-.2.2-.3.2-.6.2Zm-4.1 13-1-.1v-1.1h.6l.3.2c.6-.1 1.1-.6 1.3-1.5l1.8-9.1h1.4l-2 9.2c-.1.6-.4 1.3-.7 1.8-.4.4-1 .6-1.7.6Zm7.7-3.4c-.7 0-1.1-.2-1.5-.5-.4-.4-.5-.9-.5-1.5v-.7l.1-.6 1-5.1h1.5l-1.1 5.3a5 5 0 0 0-.2.9c0 .4 0 .6.2.8.2.2.5.3.8.3.4 0 .7-.1 1.1-.4.4-.2.9-.6 1.1-1.1.4-.6.6-1.3.8-2.2l.8-3.4h1.2l-1.6 8h-1.1l.2-1.5h-.1a8 8 0 0 1-.7.8c-.2.2-.5.5-.9.5-.3.3-.7.4-1.1.4Zm.5-9.4.2-.9h4l-.2.9Zm5.8 9.2 1.5-8h1.2l-.1 1.5.7-.8c.2-.3.5-.5.7-.6a2 2 0 0 1 1-.3h.5l.5.2-.3 1.1h-.8a2 2 0 0 0-1.3.3 4 4 0 0 0-1 1.4c-.3.5-.6 1-.6 1.6l-.8 3.6Zm8 .2c-.5 0-1-.4-1.4-.7-.5-.5-.6-1.2-.6-2s0-1.6.2-2.3a6.3 6.3 0 0 1 .8-1.7 4 4 0 0 1 1.3-1.2 3 3 0 0 1 1.6-.5c.5 0 .9.2 1.1.5.5.2.7.5 1 1l.4-1.4h1l-1.7 8.1h-1l.2-1.5a6 6 0 0 1-1.4 1.3c-.4.2-.9.4-1.4.4Zm.6-1.1c.4 0 .7-.1 1-.4a4 4 0 0 0 1-1.1 6 6 0 0 0 .8-2.4v-.6c0-.5-.1-1-.4-1.2-.2-.3-.6-.5-1-.5s-.8.2-1.1.4l-.9 1-.6 1.5-.2 1.7c0 .5.2 1 .4 1.2.2.3.4.4 1 .4Zm7.4 1.1c-.5 0-.9 0-1.3-.2l-.9-.2v-1.4l1 .5a4 4 0 0 0 1.2.2c.6 0 1-.1 1.3-.4.3-.2.5-.5.5-.9 0-.3-.1-.5-.3-.7l-1-.7c-.6-.3-1-.7-1.3-1-.3-.3-.5-.8-.5-1.3 0-.7.3-1.2.8-1.6.5-.5 1.1-.7 2-.7.4 0 .9 0 1.3.2.4.1.8.2 1 .4l-.2 1a7.4 7.4 0 0 0-1.1-.3 3.8 3.8 0 0 0-.9-.2c-.6 0-.9.2-1.1.4-.4.2-.5.4-.5.7 0 .3.1.5.3.8.2.1.5.4 1 .6a9 9 0 0 1 1.1.7l.5.6c.2.3.2.6.2 1.1 0 .7-.1 1.3-.8 1.8-.6.4-1.3.6-2.3.6Zm-63.6 18.5 2.4-11.4h1.2l-2.3 11.4Zm3.9 0 1.7-8h1.3l-1.7 7.9Zm.5-9.1.2-1h4l-.2.9Zm6.6 9.2c-.9 0-1.6-.2-2.1-.7-.7-.5-.9-1.3-.9-2.3 0-.7.1-1.4.3-2a5.5 5.5 0 0 1 .9-1.7 4 4 0 0 1 1.3-1.3 3.5 3.5 0 0 1 1.7-.3l1 .1c.4 0 .8.2 1.1.3l-.5.9h-.6a3 3 0 0 0-1-.2c-.5 0-1 .2-1.5.6-.4.4-.7.9-1 1.5a5.8 5.8 0 0 0-.3 2.1c0 .6.1 1.1.4 1.4.4.4.8.6 1.3.6l1-.2 1-.4v1.2l-1 .3-1 .1Zm6.3-9.5c-.2 0-.4 0-.5-.2-.2-.1-.2-.3-.2-.5 0-.3 0-.5.2-.7.2-.1.4-.3.7-.3.4 0 .6.3.6.7 0 .3 0 .6-.2.7l-.6.3Zm-2.8 9.5 1.7-8.1h1.4l-1.8 7.9Zm5.8 0h-1.3l-1-.5v-1.2l1 .5a4 4 0 0 0 1.2.1c.6.1 1 .1 1.4-.3.3-.2.5-.5.5-.9 0-.3-.1-.5-.3-.7l-1-.8c-.8-.2-1.1-.6-1.5-1-.2-.2-.3-.6-.3-1.2 0-.7.2-1.3.6-1.7.6-.3 1.3-.6 2.1-.6.5 0 1 0 1.4.2.4 0 .8.1 1 .3l-.3 1.1a7.4 7.4 0 0 0-.9-.3 3.8 3.8 0 0 0-1.3-.2c-.3 0-.7.1-.9.3-.3.2-.4.5-.4.9 0 .2 0 .4.3.6 0 .2.5.4 1 .7a9 9 0 0 1 1 .6l.5.7.3 1c0 .8-.3 1.4-.8 1.8-.6.4-1.4.6-2.3.6Zm8.4-3.5.3-1.2h3.5l-.2 1.2Zm8.9 3.4 2.1-10.7h1.5l-2 9.5h3.9l-.1 1.2Zm9.7-9.4c-.2 0-.4 0-.5-.2-.2-.1-.2-.3-.2-.5 0-.3 0-.5.2-.7.2-.1.4-.3.8-.3.3 0 .6.3.6.7 0 .3-.1.6-.3.7l-.6.3Zm-2.8 9.5 1.7-8.1h1.4l-1.8 7.9ZM428.6 108.5c-.2 0-.4 0-.6-.2-.1-.1-.1-.3-.1-.5 0-.3 0-.5.1-.7.2-.1.5-.3.7-.3.5 0 .7.3.7.7 0 .3 0 .6-.2.7l-.6.3Zm-2.8 9.5 1.7-8.1h1.3l-1.7 7.9Zm5.2-.1-1-8h1.3l.4 4.3.1 1.1a20.2 20.2 0 0 1 .2 1.5 22 22 0 0 1 .4-.8l.4-1 .4-.6 2.4-4.6h1.4l-4.4 8Zm8.4-9.4c-.2 0-.3 0-.4-.2l-.3-.5c0-.3.1-.5.3-.7 0-.1.3-.3.6-.3.5 0 .7.3.7.7 0 .3 0 .6-.3.7 0 .2-.3.3-.6.3Zm-2.7 9.5 1.7-8.1h1.3l-1.7 7.9ZM396 136.5l2.2-11.4h1.5l-2.5 11.4Zm6.3.2c-.7 0-1.3-.2-1.6-.7-.4-.5-.6-1.2-.6-2s.1-1.6.3-2.3a6.3 6.3 0 0 1 .8-1.7 4 4 0 0 1 1.3-1.2 3 3 0 0 1 1.5-.4c.6 0 1 .1 1.3.4.4.2.7.6.8 1l.6-1.4h.9l-1.6 8.1h-1v-1.4a6 6 0 0 1-1.3 1.1c-.4.3-.9.5-1.4.5Zm.4-1c.4-.1.8-.3 1.1-.6a4 4 0 0 0 1-.9 6 6 0 0 0 .8-2.5v-.7c0-.4-.1-.8-.4-1.1-.2-.3-.6-.4-1-.4s-.8 0-1 .3l-1.1 1-.4 1.5c-.2.5-.3 1-.3 1.7 0 .5.2 1 .4 1.2.2.3.5.4 1 .4Zm5.6.8 2.4-11.4h1.4l-.7 3-.2 1-.3.9h.1l.7-.8.9-.6 1.1-.2c.6 0 1.1.1 1.5.5.4.3.6.8.6 1.5l-.2.6v.7l-1 4.8h-1.5l1.1-5c.3-.4.3-.8.3-1-.1-.3-.1-.5-.3-.8l-.8-.2c-.4 0-.7 0-1.1.3-.4.3-.8.6-1.1 1.2-.4.5-.6 1.2-.8 2l-.8 3.6Zm11.1.2c-.6 0-1-.1-1.4-.4-.4-.2-.6-.7-.6-1.3a5 5 0 0 1 .2-1l.9-4.5h-1.3l.2-.5 1.3-.7 1-1.6h.7l-.4 1.8h2l-.2 1h-2l-.8 4.5v.3l-.3.5.2.6.7.2h.4l.6-.2v1l-.5.2a3 3 0 0 1-.7.1Zm0 0" style="fill:none;stroke-width:2;stroke-linecap:butt;stroke-linejoin:round;stroke:#fff;stroke-opacity:.6;stroke-miterlimit:10" transform=" rotate(  340 408.795 114.881) "/> <g style="fill:#4d80b3;fill-opacity:1" transform=" rotate(  340 408.795 114.881) ">  <use xlink:href="#i" x="371.9" y="99.2"/>  <use xlink:href="#j" x="380.5" y="99.2"/>  <use xlink:href="#k" x="384.4" y="99.2"/>  <use xlink:href="#l" x="393.1" y="99.2"/>  <use xlink:href="#m" x="401.6" y="99.2"/>  <use xlink:href="#glyph1-6" x="408.1" y="99.2"/>  <use xlink:href="#n" x="412" y="99.2"/>  <use xlink:href="#o" x="415.8" y="99.2"/>  <use xlink:href="#p" x="424.5" y="99.2"/>  <use xlink:href="#l" x="430.2" y="99.2"/>  <use xlink:href="#m" x="438.7" y="99.2"/>  <use xlink:href="#q" x="377" y="117.9"/>  <use xlink:href="#j" x="380.8" y="117.9"/>  <use xlink:href="#r" x="384.7" y="117.9"/>  <use xlink:href="#s" x="391.5" y="117.9"/>  <use xlink:href="#m" x="395.4" y="117.9"/>  <use xlink:href="#glyph1-6" x="401.8" y="117.9"/>  <use xlink:href="#t" x="405.7" y="117.9"/>  <use xlink:href="#glyph1-6" x="410.4" y="117.9"/>  <use xlink:href="#u" x="414.3" y="117.9"/>  <use xlink:href="#s" x="421.5" y="117.9"/>  <use xlink:href="#s" x="425.4" y="117.9"/>  <use xlink:href="#v" x="429.3" y="117.9"/>  <use xlink:href="#s" x="436.3" y="117.9"/>  <use xlink:href="#q" x="395.5" y="136.5"/>  <use xlink:href="#l" x="399.4" y="136.5"/>  <use xlink:href="#w" x="407.9" y="136.5"/>  <use xlink:href="#x" x="416.6" y="136.5"/> </g></svg>