<svg xmlns="http://www.w3.org/2000/svg" xmlns:xlink="http://www.w3.org/1999/xlink" viewBox="0 0 497 279"> <defs overflow="visible" style="stroke:none">  <path id="h" d="M5.5-2.7c0 .9-.2 1.7-.7 2-.4.7-1 .9-1.8.9-.5-.2-.9-.2-1.3-.4-.3-.2-.6-.6-.7-1C.6-1.6.5-2 .5-2.7c0-.9.3-1.6.7-2 .5-.5 1-.8 1.8-.8.5 0 1 .2 1.3.5.4 0 .7.4.9.9.2.2.3.7.3 1.3Zm-4 0c0 .7 0 1.2.3 1.5.3.4.7.6 1.2.6.6 0 1-.2 1.2-.6.3-.3.4-.8.4-1.5s-.1-1.1-.4-1.5c-.2-.3-.6-.5-1.2-.5-.5 0-1 .2-1.2.5-.2.4-.3.9-.3 1.5Zm0 0"/>  <path id="g" d="M1.7 0H.8v-7.6h1Zm0 0"/>  <path id="f" d="M2.9-5.5c.6 0 1.1.2 1.4.5.3.3.5.7.5 1.3V0h-.6L4-.8c-.3.3-.5.6-.8.8h-1c-.5 0-1 0-1.3-.3C.6-.5.5-.9.5-1.5c0-.5.2-1 .5-1.2.5-.3 1-.5 2-.5h.8v-.3c.2-.5.2-.8-.2-1l-.8-.2H2l-.7.5L1-5l1-.3.9-.2Zm1 2.9h-.8c-.6 0-1 .1-1.4.3-.1.3-.3.5-.3.8 0 .3 0 .5.2.7l.7.2c.5 0 .9-.1 1.2-.4.3-.2.4-.6.4-1Zm.1 0"/>  <path id="e" d="M5-2c0 .8-.2 1.3-.7 1.7-.3.2-1 .3-1.8.3H1.4a3 3 0 0 1-.9-.2v-.9a5 5 0 0 0 1 .3l.9.1c.6 0 1.1 0 1.3-.3.3-.2.4-.5.4-.8L4-2.4 3.5-3a7.2 7.2 0 0 0-1-.3c-.8-.2-1.2-.5-1.5-.8C.7-4.4.6-5 .6-5.4s0-.7.3-1a2 2 0 0 1 .8-.6 3 3 0 0 1 1.2-.2h1a5 5 0 0 1 1.1.5l-.5.6a4.5 4.5 0 0 0-.7-.2l-1-.2c-.3 0-.6.1-.9.3-.3.2-.4.5-.4.8 0 .2 0 .4.2.6 0 .2.2.3.3.4l1.1.4.9.5.8.7.2.8Zm0 0"/>  <path id="d" d="M1.7-7.6v4.8L2-3v-.3l.4-.2L4-5.4h1L2.9-3l2.4 3H4.2L2.3-2.5l-.6.5v2H.8v-7.6Zm0 0"/>  <path id="c" d="M3.3-5.5H4l-.1 1.1-.3-.3h-.3c-.3 0-.5 0-.8.2l-.5.7-.3 1V0H.8v-5.4h.8v1h.2l.6-.6c.3-.3.6-.5 1-.5Zm0 0"/>  <path id="b" d="M5.3-5.4V0h-.7l-.1-.7c-.3.3-.5.5-.9.6l-.9.2C2.1 0 1.6-.1 1.3-.4 1-.7.8-1.2.8-1.8v-3.6h.9v3.5c0 .8.3 1.3 1.2 1.3.6 0 1-.2 1.1-.5.3-.4.5-.9.5-1.5v-2.8Zm0 0"/>  <path id="a" d="M3.2 0h-.9v-6.3H.1v-.8h5.4v.8H3.2Zm0 0"/>  <path d="M1 0v-7.1h4V0Zm.4-.5h3.1v-6.1h-3Zm.1 0"/> </defs> <image xlink:href="svg/9/1_24.jpg" width="497" height="279"/> <path d="M206.2 197.5h-1v-6.3H203v-.8h5.4v.8h-2.2Zm7.1-5.3v5.3h-.7l-.1-.7c-.4.3-.5.5-.9.6-.2.2-.5.2-.9.2-.6 0-1.1-.1-1.4-.4-.4-.3-.5-.8-.5-1.5v-3.5h.9v3.4c0 .9.3 1.4 1.2 1.4.5-.1 1-.3 1.1-.6.3-.3.4-.8.4-1.4v-2.8Zm4.2-.2h.3l.3.2v.8h-.7c-.2-.1-.5-.1-.7 0l-.7.7-.1 1v2.8h-.9v-5.3h.7l.1 1 .8-.8c.2-.2.5-.3.9-.3Zm2.5-2v4.7l.2-.2.2-.3.3-.2 1.7-1.8h1l-2.2 2.3 2.3 3h-1l-1.9-2.5-.6.6v2h-.9v-7.8Zm9 2.2v5.3h-.8v-.7h-.2c-.1.3-.3.5-.6.6-.4.2-.7.2-1 .2-.7 0-1.2-.1-1.5-.4-.3-.3-.5-.8-.5-1.5v-3.5h1v3.4c-.1.9.2 1.4 1 1.4.7-.1 1.1-.3 1.3-.6.3-.3.4-.8.4-1.4v-2.8Zm0 0" style="fill:none;stroke-width:3;stroke-linecap:butt;stroke-linejoin:round;stroke:#fff;stroke-opacity:.6;stroke-miterlimit:10" transform=" rotate(  340 215.807 194.528) "/> <g style="fill:#222;fill-opacity:1" transform=" rotate(  340 215.807 194.528) ">  <use xlink:href="#a" x="202.9" y="197.5"/>  <use xlink:href="#b" x="208" y="197.5"/>  <use xlink:href="#c" x="214.2" y="197.5"/>  <use xlink:href="#d" x="218.3" y="197.5"/>  <use xlink:href="#b" x="223.6" y="197.5"/> </g> <path d="M382.4 222.9c0 .6-.2 1.1-.6 1.5-.5.3-1.1.5-1.9.5l-1.1-.1a3 3 0 0 1-.9-.2v-.9a5 5 0 0 0 1.1.3h.8c.7.1 1.2.1 1.3-.2.3-.2.5-.5.5-.8l-.2-.6-.5-.5a7.2 7.2 0 0 0-1-.4c-.6-.2-1.1-.5-1.4-.8-.3-.3-.5-.8-.5-1.3 0-.4.1-.7.3-1a2 2 0 0 1 .8-.6 3 3 0 0 1 1.2-.2h1a5 5 0 0 1 1.1.4l-.4.7a4.5 4.5 0 0 0-.8-.2l-1-.1c-.3 0-.6 0-.9.2-.1.2-.3.5-.3.8 0 .2 0 .4.1.6-.1.2.3.3.5.4.2.2.4.3.9.4l1 .5c.4.2.7.4.8.7.1.2.1.5.1.9Zm3.4-3.5c.6 0 1.1.1 1.4.4.4.2.5.7.5 1.2v3.8h-.6l-.2-.8c-.3.3-.5.6-.9.7l-.9.2c-.5 0-1.1-.1-1.2-.4-.4-.2-.5-.5-.5-1.2 0-.5.2-1 .6-1.2.4-.3 1-.5 2-.5h.8v-.3c.1-.5 0-.8-.2-1l-.9-.2-.7.1-.8.3-.2-.7.8-.3 1-.1Zm1 2.8h-.6c-.8 0-1.3.2-1.5.3-.3.2-.4.5-.4.8 0 .3 0 .5.3.7l.7.2c.4 0 .7-.1 1.1-.4.3-.2.5-.6.5-1.1Zm3.5 2.6h-1v-7.6h1.1Zm6.3-2.7c0 .9-.2 1.6-.6 2-.5.7-1 .9-1.9.9-.5-.1-.9-.2-1.3-.4-.3-.2-.6-.6-.8-1-.2-.4-.3-.9-.3-1.5 0-.9.2-1.5.6-2 .5-.5 1-.7 1.9-.7.4 0 .8 0 1.2.3.4.2.7.5.9 1 .2.3.3.7.3 1.3Zm-4 0c0 .7 0 1.2.3 1.5.3.4.7.6 1.2.6.6 0 1-.2 1.2-.6.3-.3.4-.8.4-1.5 0-.6-.1-1.1-.4-1.5-.2-.3-.6-.5-1.2-.5-.5-.1-1 .2-1.1.5-.3.4-.4.9-.4 1.5Zm0 0" style="fill:none;stroke-width:3;stroke-linecap:butt;stroke-linejoin:round;stroke:#fff;stroke-opacity:.6;stroke-miterlimit:10" transform=" rotate(  340 387.014 221.805) "/> <g style="fill:#222;fill-opacity:1" transform=" rotate(  340 387.014 221.805) ">  <use xlink:href="#e" x="377.4" y="224.8"/>  <use xlink:href="#f" x="382.9" y="224.8"/>  <use xlink:href="#g" x="388.5" y="224.8"/>  <use xlink:href="#h" x="391.1" y="224.8"/> </g></svg>