<svg xmlns="http://www.w3.org/2000/svg" xmlns:xlink="http://www.w3.org/1999/xlink" viewBox="0 0 497 279"> <defs overflow="visible" style="stroke:none">  <path id="F" d="M4.6-5.4v2.2h1.2c.7 0 1.2.2 1.6.4.3.3.5.8.5 1.2s-.2.9-.5 1.2c-.4.3-.9.4-1.7.4h-2v-4.6H2.5L2-2 1.5-.4c-.3.3-.6.4-1 .4H.1v-.7h.3c.3.1.6-.3.8-.9.2-1 .4-2.2.5-3.9Zm1 3h-.9v1.7h1c.4 0 .7 0 1-.2.1-.1.3-.4.3-.7 0-.3 0-.4-.3-.6-.3-.2-.7-.2-1-.2Zm.1 0"/>  <path id="E" d="M5.4-5.4V0h-.9v-4.6H1.7V0H.8v-5.4Zm0 0"/>  <path id="D" d="M4-5.4h1L2.7-2.8 5.2 0h-1L1.7-2.7V0H.8v-5.4h1v2.6Zm0 0"/>  <path id="C" d="M1 0v-7.1h4.2v.8H1.9v2.2h1c.7 0 1.3 0 1.7.1.4.3.7.6.8 1 .2.2.2.5.2.9 0 .7-.2 1.2-.6 1.6-.4.3-1 .5-2 .5Zm.9-.8h1c.8 0 1.3 0 1.5-.2.2-.3.3-.6.3-1s-.1-.9-.4-1l-1.5-.3h-1Zm0 0"/>  <path d="M4.1-5.4v.8H1.7V0H.8v-5.4Zm0 0"/>  <path id="B" d="M1 0v-7.1h5.3V0h-.9v-6.3H2V0Zm0 0"/>  <path id="A" d="M1.6-5.4v2c0 .6.4 1 1 1l1.1-.3a5 5 0 0 0 .7-.4v-2.3h.9V0h-.9v-2.4a5 5 0 0 1-.9.5 3 3 0 0 1-1 .1c-.6 0-1-.1-1.3-.4-.3-.3-.5-.7-.5-1.1v-2Zm0 0"/>  <path id="z" d="M.2 2.4h-.4l-.3-.1v-.7H.6c.2-.2.2-.6.2-.8v-6.2h1V.8c-.1.5-.3.9-.5 1.2-.3.3-.5.4-1.1.4Zm0 0"/>  <path id="y" d="M5.2-5.5c0 .5-.2 1-.5 1.2-.3.3-.7.5-1.2.5.6.3 1 .4 1.4.7.3.2.4.6.4 1.1 0 .6-.2 1-.7 1.5-.5.5-1.2.6-2.1.6H1.3a3 3 0 0 1-1-.5v-.7l1.1.3 1.2.2c.4 0 .9-.2 1.3-.4.3-.2.5-.6.5-1 0-.5-.2-.8-.6-1-.4-.2-1-.3-1.6-.3h-1v-.8h1c.7.1 1.2.1 1.5-.3.4-.3.6-.6.6-1 0-.3-.3-.6-.4-.8-.3-.2-.7-.3-1-.3-.6 0-.9 0-1.3.2-.2 0-.5.2-.8.3l-.4-.5 1-.5c.6-.2 1-.2 1.4-.2.8 0 1.4.1 1.8.5.4.3.6.7.6 1.2Zm0 0"/>  <path id="x" d="M5.2-4c0 .3-.2.6-.3.8l-.9.4 1 .3c.2.2.3.5.3 1 0 .3-.1.7-.5.9-.3.6-.8.6-1.6.6H.8v-5.4h2.4c.3 0 .7 0 1 .2.3 0 .5.2.7.4.1.2.3.5.3.8Zm-1 0c.1-.1.1-.2-.2-.4l-1-.2H1.8v1.4H3c1 0 1.3-.2 1.3-.7Zm.3 2.5c-.1-.4-.2-.5-.4-.7-.3-.2-.6-.2-1.1-.2H1.6v1.7h1.5c.4 0 .7 0 .9-.2.3-.1.4-.3.4-.7Zm-.1-.1"/>  <path id="w" d="M3-5.5c.3 0 .7.1 1 .3a2 2 0 0 1 1 .9v1.8H1.5c0 .5.1 1 .4 1.4.3.3.7.4 1.3.4H4l.9-.3v.8L4 0a5 5 0 0 1-1 0 3 3 0 0 1-1.2-.1 2.2 2.2 0 0 1-1-1.1c0-.2-.2-.8-.2-1.3-.1-.7 0-1.2.2-1.6.2-.5.5-.9.9-1 .3-.2.7-.4 1.2-.4Zm0 .8c-.6 0-.9.1-1 .4-.4.2-.6.6-.6 1.1h2.8c0-.5-.1-.8-.3-1.1-.2-.3-.5-.4-1-.4Zm0 0"/>  <path id="v" d="M0-5.4h1l1 3 .4 1 .2.6.2-.7c0-.3.2-.5.2-.8l1-3h1.2L2.8.6c-.2.6-.4 1.1-.7 1.4-.3.3-.7.4-1.3.4H.1v-.9h.6c.3.2.6.2.7 0L2 .7l.2-.7Zm0 0"/>  <path id="u" d="M6.2 0H5L1.9-3.6V0h-1v-7.1H2v3.4L5-7h1L3-3.7Zm0 0"/>  <path id="t" d="M4.5-4.6H2.8V0h-.9v-4.6H.2v-.8h4.3Zm0 0"/>  <path id="s" d="M5.5-2.7c0 .9-.2 1.7-.7 2-.4.7-1 .9-1.8.9-.5-.2-.9-.2-1.3-.4-.3-.2-.6-.6-.7-1C.6-1.6.5-2 .5-2.7c0-.9.3-1.6.7-2 .5-.5 1-.8 1.8-.8.5 0 1 .2 1.3.5.4 0 .7.4.9.9.2.2.3.7.3 1.3Zm-4 0c0 .7 0 1.2.3 1.5.3.4.7.6 1.2.6.6 0 1-.2 1.2-.6.3-.3.4-.8.4-1.5s-.1-1.1-.4-1.5c-.2-.3-.6-.5-1.2-.5-.5 0-1 .2-1.2.5-.2.4-.3.9-.3 1.5Zm0 0"/>  <path id="r" d="M4.1 0 1.8-6.3V0H1v-7.1h1.3l2.2 5.8 2.3-5.8H8V0h-.8v-6.2L5 0Zm0 0"/>  <path id="q" d="M1.7-5.4V-3h3v-2.4h.7V0h-.8v-2.4H1.7V0H.8v-5.4Zm0 0"/>  <path id="p" d="M4.8-5.4v4.7h.8v2.6h-.8V0H1v1.9H.2V-.7h.4a6.9 6.9 0 0 0 1-2.3A9.6 9.6 0 0 0 2-5.4Zm-.8.7H2.8l-.2 1.4L2-1.9c0 .5-.2.9-.5 1.2H4Zm0 0"/>  <path id="o" d="M6.1 1.9h-.8V0H.8v-5.4h1v4.7h2.6v-4.7h1v4.7H6Zm0 0"/>  <path id="n" d="M2.9-5.5c.6 0 1.1.2 1.4.5.3.3.5.7.5 1.3V0h-.6L4-.8c-.3.3-.5.6-.8.8h-1c-.5 0-1 0-1.3-.3C.6-.5.5-.9.5-1.5c0-.5.2-1 .5-1.2.5-.3 1-.5 2-.5h.8v-.3c.2-.5.2-.8-.2-1l-.8-.2H2l-.7.5L1-5l1-.3.9-.2Zm1 2.9h-.8c-.6 0-1 .1-1.4.3-.1.3-.3.5-.3.8 0 .3 0 .5.2.7l.7.2c.5 0 .9-.1 1.2-.4.3-.2.4-.6.4-1Zm.1 0"/>  <path id="m" d="M3.4-5.5c.7 0 1.2.3 1.6.7.4.5.6 1.2.6 2.1 0 1-.2 1.7-.6 2-.4.7-1 .9-1.6.9-.4-.2-.8-.2-1-.3l-.7-.6v3.1H.8v-7.8h.8v.8h.2c.2-.4.3-.5.6-.6.2-.2.6-.3 1-.3Zm-.2.8c-.5 0-.9.1-1.1.5-.2.2-.4.7-.4 1.2v.3c0 .7.1 1.2.3 1.5.3.4.7.6 1.3.6.3 0 .6-.1.7-.4l.5-.6.2-1.1c0-.6-.1-1.1-.4-1.5-.2-.3-.6-.5-1-.5Zm0 0"/>  <path id="l" d="M1-7.1h2c1 0 1.6.1 2 .4.5.2.7.7.7 1.3 0 .5-.1.8-.3 1-.4.4-.6.6-1 .7l.8.3c.2 0 .4.2.5.5.3.2.3.5.3.9 0 .6-.3 1-.7 1.5-.5.3-1 .5-1.8.5H1Zm.9 3h1.3c.6.1 1 .1 1.3-.3.2-.2.3-.5.3-.9s-.1-.6-.4-.7c-.4-.3-.8-.4-1.4-.4H2Zm0 .8v2.5h1.4c.7 0 1 0 1.3-.2.4-.4.4-.7.4-1.1s-.1-.7-.4-.9c-.2-.2-.6-.3-1.4-.3Zm0 0"/>  <path id="k" d="M8.1-5.4V0H.8v-5.4h1v4.7H4v-4.7h1v4.7h2.1v-4.7Zm0 0"/>  <path id="j" d="M1.7-5.4v3.7a18.9 18.9 0 0 0 0 .7l2.7-4.4h1.1V0h-.7v-4.1l.1-.4-3 4.5H1v-5.4Zm0 0"/>  <path id="i" d="M6.4 0h-.9v-3.3H2V0H.9v-7.1H2v3h3.5v-3h1Zm0 0"/>  <path d="M1 0v-7.1h4V0Zm.4-.5h3.1v-6.1h-3Zm.1 0"/>  <path id="h" d="M2.5.1C1.8.1 1.3 0 1-.5.7-.9.5-1.4.5-2c0-.4 0-1 .2-1.3a4 4 0 0 1 .5-1.2c.3-.3.5-.5.9-.8.3-.2.7-.3 1.2-.3.4 0 .7 0 1 .2l.5.7V-5c0-1 0-1.6-.3-2-.3-.5-.6-.7-1.1-.7l-.6.1-.6.2-.2-.7.7-.3h.8c.8-.1 1.4.1 1.8.7.3.7.5 1.5.5 2.7l-.1 1.3c0 .5-.2 1-.4 1.4A5 5 0 0 1 4.7-1c-.3.3-.7.6-1 .8-.3.2-.7.3-1.2.3Zm0-.8c.5 0 .9-.1 1.1-.4l.6-1.1.5-1.5a2.1 2.1 0 0 0-.5-.8C4-4.8 3.7-5 3.4-5c-.4.1-.7.2-1 .5-.2.3-.4.6-.6 1A4 4 0 0 0 1.4-2c.1.3.1.7.4 1 .1.1.3.2.7.2Zm.1 0"/>  <path id="g" d="M2 .1c-.3 0-.6-.1-1-.4-.3-.2-.4-.6-.4-1a3 3 0 0 1 0-.6l.1-.4.8-3.6h1l-.8 3.7-.1.7c0 .3 0 .5.2.6l.6.2c.2 0 .5 0 .8-.3l.8-.8.5-1.6.6-2.5H6L4.7 0H4l.1-1c-.2 0-.3.2-.5.4l-.7.5-.8.2Zm0 0"/>  <path id="f" d="M.5 0 2-7.9h2.1c.9 0 1.3.2 1.9.5.3.3.5.7.5 1.4 0 .5-.2 1-.5 1.3-.3.2-.8.4-1.3.5.4.4.7.5 1 .8 0 .2.3.5.3.9 0 .7-.2 1.1-.4 1.5-.3.3-.6.5-1 .7C4 0 3.5 0 3 0Zm1.9-4.5h1.3c.3 0 .6 0 .9-.2.2 0 .4-.2.6-.3.2-.3.3-.6.3-1 0-.3-.2-.5-.5-.7C5-7 4.5-7 4.1-7H2.8ZM1.6-.8H3c.6 0 1-.2 1.4-.4.4-.4.6-.8.6-1.3 0-.3 0-.6-.4-.9-.2-.1-.6-.2-1.2-.2H2.2Zm0 0"/>  <path id="e" d="M2.1.1C1.7.1 1.3 0 1-.4.7-.7.5-1.2.5-1.9l.2-1.6.6-1.3c.3-.4.7-.7 1-.9.2-.2.7-.3 1.1-.3.4 0 .7.1 1 .3l.5.7.5-.9H6L4.8 0H4l.2-1a4 4 0 0 1-1.1.7c-.1.3-.6.3-.9.3Zm.3-.8c.3 0 .6 0 .8-.3a3 3 0 0 0 .8-.8 5 5 0 0 0 .4-1.1l.1-.6V-4c.1-.4.1-.6-.1-1-.4 0-.6-.2-.9-.2-.3 0-.5.2-.8.3l-.6.7-.4 1-.2 1.4c0 .3 0 .6.3.9l.6.1Zm0 0"/>  <path id="d" d="m.3 0 1.3-5.9h.8l-.2 1c.3.1.5-.2.6-.3l.7-.6.7-.2c.4 0 .7.1 1 .3 0 .3.2.7.2 1a4 4 0 0 1 .8-.6l.6-.5.7-.2c.5 0 .9.1 1.1.4.4.2.4.6.4 1v.6l-.1.4L8 0h-.9L8-3.7v-.4a2 2 0 0 0 0-.4V-5l-.7-.2-.8.3c-.2.2-.5.4-.7.8-.2.4-.4.8-.5 1.4L4.7 0h-1l.8-3.7.1-.7c0-.3 0-.4-.2-.6L4-5.2l-1 .3c0 .1-.4.4-.6.8C2-3.7 2-3 1.8-2.5L1.3 0Zm0 0"/>  <path id="c" d="m.3 0 1.3-5.9h1L2-3.4h2.8L5.3-6h1L5 0H4l.7-2.6H1.8L1.3 0Zm0 0"/>  <path id="b" d="M2.7 0C2 0 1.5 0 1.1-.4.7-1 .5-1.5.5-2.2a5 5 0 0 1 .2-1.3c.1-.5.3-.9.6-1.3a3 3 0 0 1 .9-.7C2.6-6 3-6 3.5-6c.7 0 1.2.2 1.5.6.5.4.7 1 .7 1.7 0 .4 0 .9-.2 1.3-.1.5-.3.9-.6 1.4a3 3 0 0 1-.9.8c-.4.2-.8.2-1.3.2Zm0-.6c.5-.1.9-.2 1.1-.5.2-.2.5-.6.6-.9.2-.6.3-1.1.3-1.8l-.1-.7-.4-.5-.7-.2c-.5 0-.8.2-1 .5-.5.2-.7.5-.9.9L1.5-2c0 .3.1.7.3.9.3.3.6.4 1 .4Zm.1-.1"/>  <path id="a" d="m.4 0 1.7-7.9h1.4l.8 6.5L7.8-8h1.5L7.7 0h-1l1-4.7a155.2 155.2 0 0 1 .5-2.2L4.4 0h-.8l-.8-6.9-.3.6v.8l-.1.8-1 4.7Zm0 0"/>  <path d="M1 0v-7.9h4.6V0Zm.6-.6H5v-6.7H1.6Zm0 0"/> </defs> <image xlink:href="svg/9/1_4.jpg" width="497" height="279"/> <path d="m359.8 170.5 1.7-7.9h1.4l.7 6.4 3.7-6.4h1.4l-1.7 7.9h-1l1-4.7a155 155 0 0 1 .6-2.2l-3.9 6.9h-.7l-.8-7-.2.8v.6l-.3.8-1 4.8zm11.6.1c-.7 0-1.4-.3-1.6-.7-.4-.4-.7-.9-.7-1.6a5 5 0 0 1 .3-1.4c0-.4.3-.8.5-1.2a3 3 0 0 1 1.1-.9c.1-.2.5-.3 1-.3.8 0 1.3.2 1.7.5.4.5.6 1.1.6 1.8 0 .4 0 .9-.2 1.2l-.5 1.3a3 3 0 0 1-1 1c-.2 0-.6.2-1.1.2zm0-.9c.4 0 .7 0 1-.3l.6-1 .3-1.9-.1-.5c0-.2-.2-.4-.4-.5l-.7-.2c-.4 0-.7.1-1 .4-.3.3-.6.6-.7 1.1l-.4 1.5c.1.5.3.8.5 1 .2.4.5.5 1 .5zm3.7.8 1.3-6h1l-.7 2.5h2.9l.5-2.4h1l-1.1 5.9h-1.1l.5-2.7h-2.7l-.7 2.7zm6.7 0 1.2-6h.8l-.1 1.2.5-.6.6-.5.8-.1c.4 0 .7 0 1 .3.2.2.3.5.4 1a4 4 0 0 1 .5-.8l.7-.4.8-.1c.5 0 .8 0 1 .3.4.3.6.6.6 1.2v.4l-.4.5-.6 3.6h-1l.8-3.7v-.5a2 2 0 0 0 .1-.3l-.1-.5c-.2-.2-.4-.2-.7-.2-.2 0-.5 0-.7.2l-.8.9c-.2.3-.4.8-.5 1.4l-.6 2.7h-1l.9-3.7v-1.3c-.2-.2-.4-.2-.7-.2-.2 0-.3 0-.7.2l-.8.9-.5 1.5-.6 2.6zm11.4.1c-.5 0-.9-.2-1.2-.6-.3-.3-.4-.8-.4-1.4s0-1.1.2-1.6c.1-.5.4-1 .6-1.3l1-1 .9-.1c.7-.1 1-.1 1.2.2.2.2.5.4.5.7l.4-1h.6l-1 6.1h-1l.2-1.2a4 4 0 0 1-.9.8c-.3.2-.7.4-1.1.4zm.3-.8c.3 0 .5-.1.8-.3a3 3 0 0 0 .7-.8 5 5 0 0 0 .5-1.2l.1-.5v-.6c0-.3 0-.6-.2-.8-.2-.2-.5-.3-.8-.3-.3 0-.6 0-.8.2l-.8.8-.3 1-.1 1.3c0 .4 0 .7.2.9.2.2.4.3.7.3zm4.1.7 1.4-6h.9l-.7 2.5h2.9l.5-2.4h1l-1.3 5.9h-1l.7-2.7h-2.8l-.6 2.7zm8.4.1c-.3 0-.7-.2-1-.6-.4-.3-.5-.8-.5-1.4s0-1.1.2-1.6c.1-.5.3-1 .6-1.3.2-.4.5-.7.9-1l1.1-.1c.4-.1.7-.1 1 .2l.5.7.5-1h.7l-1.3 6.1h-.7v-1.2a4 4 0 0 1-1 .8c-.1.2-.4.4-.8.4zm.5-.8.7-.3a3 3 0 0 0 .7-.8 5 5 0 0 0 .5-1.2v-.5l.2-.6c-.1-.3-.2-.6-.4-.8-.2-.2-.4-.3-.8-.3-.2 0-.4 0-.8.2l-.6.8-.4 1-.2 1.3c0 .4.1.7.3.9.1.2.3.3.7.3zm-.1 0" style="fill:none;stroke:#fff;stroke-width:3;stroke-linecap:butt;stroke-linejoin:round;stroke-miterlimit:10;stroke-opacity:.6" transform="rotate(  340 422.229 97.24) translate(35.945593,-70.219299)"/> <g style="fill:#7d577d;fill-opacity:1" transform=" rotate(  340 422.229 97.24) ">  <use xlink:href="#a" x="395.3" y="100.2"/>  <use xlink:href="#b" x="404.6" y="100.2"/>  <use xlink:href="#c" x="410.8" y="100.2"/>  <use xlink:href="#d" x="417.4" y="100.2"/>  <use xlink:href="#e" x="427" y="100.2"/>  <use xlink:href="#c" x="433.3" y="100.2"/>  <use xlink:href="#e" x="439.9" y="100.2"/> </g> <path d="m285.9 83.1 1.6-7.9h2c.9 0 1.5.2 1.9.5.3.3.5.7.5 1.3.1.6-.1 1-.5 1.4-.3.3-.7.5-1.3.6.4.3.7.4 1 .7.1.2.2.5.2.9.1.7 0 1.1-.3 1.4-.2.4-.6.6-1 .8-.6.2-1 .3-1.7.3zm2-4.5h1.1c.4 0 .7 0 1-.2.3 0 .5-.2.6-.4.2-.2.4-.5.4-.8-.1-.4-.2-.6-.4-.8-.3-.2-.6-.4-1.1-.4h-1.1zm-.9 3.7h1.4c.6 0 1.1-.3 1.6-.4.2-.3.4-.7.4-1.2 0-.4-.1-.7-.4-1-.2-.1-.6-.2-1-.2h-1.3zm7.1.9c-.4 0-.8-.1-1-.4-.4-.2-.6-.6-.6-1a3 3 0 0 1 .1-.6l.3-.4.6-3.6h1l-.8 3.8v1.2l.7.2c.2 0 .5 0 .8-.3.3-.1.6-.4.8-.8.3-.4.4-1 .6-1.6l.4-2.5h1.1l-1.3 5.9h-.8l.2-1h-.2l-.4.4-.6.5-1 .2zm6.8 0c-.7 0-1.1-.2-1.5-.6-.3-.4-.4-.9-.4-1.5 0-.4 0-.9.1-1.3a4 4 0 0 1 .5-1.2c.4-.3.5-.6.9-.8.3-.2.7-.3 1.2-.3.3 0 .7 0 1 .2l.5.7v-.3c0-1.1 0-1.6-.2-2.1-.4-.4-.7-.6-1.2-.6l-.6.1-.6.2-.2-.7.6-.3h.9c.8-.1 1.4.1 1.8.7.3.7.5 1.6.5 2.6v1.4l-.6 1.4a5 5 0 0 1-.5 1.2c-.3.4-.6.7-1.1 1-.2.1-.7.2-1 .2zm0-.8c.5 0 .9-.1 1.1-.4l.6-1.1.5-1.5a2.1 2.1 0 0 0-.5-.8c-.2-.3-.6-.4-.8-.4-.4 0-.8.1-1 .4-.2.3-.5.6-.6 1a4 4 0 0 0-.3 1.5c0 .3 0 .7.3.9.1.2.4.3.8.3zm5.8.8c-.4 0-.7-.1-1-.4-.4-.2-.6-.6-.6-1a3 3 0 0 1 .1-.6l.2-.4.7-3.6h1l-.8 3.8v1.2l.7.2c.2 0 .5 0 .8-.3.2-.1.5-.4.8-.8l.6-1.6.5-2.5h1l-1.3 5.9h-.8l.2-1h-.1l-.5.4-.6.5-.9.2zm4.6-.1 1.3-5.9h1l-.6 2.5h2.8l.5-2.5h1l-1.3 5.9h-1l.7-2.6h-2.9l-.5 2.5zm0 0" style="fill:none;stroke:#fff;stroke-width:3;stroke-linecap:butt;stroke-linejoin:round;stroke-miterlimit:10;stroke-opacity:.6" transform=" rotate(  340 301.516 80.1017) "/> <g style="fill:#7d577d;fill-opacity:1" transform=" rotate(  340 301.516 80.1017) ">  <use xlink:href="#f" x="285.4" y="83.1"/>  <use xlink:href="#g" x="292" y="83.1"/>  <use xlink:href="#h" x="298.4" y="83.1"/>  <use xlink:href="#g" x="304.6" y="83.1"/>  <use xlink:href="#c" x="311" y="83.1"/> </g> <path d="M137.8 213.9h-1v-3.4h-3.5v3.5h-1v-7.3h.9v3h3.7v-3h.9zm2.6-5.4v4.5l2.8-4.5h1.1v5.5h-.8v-4.6l-2.8 4.5h-1.1v-5.4zm12.9 0v5.5H146v-5.5h1v4.6h2.2v-4.6h.9v4.6h2.3v-4.6zm0 0" style="fill:none;stroke:#fff;stroke-width:3;stroke-linecap:butt;stroke-linejoin:round;stroke-miterlimit:10;stroke-opacity:.6" transform=" rotate(  340 141.954 210.869) "/> <g style="fill:#212121;fill-opacity:1" transform=" rotate(  340 141.954 210.869) ">  <use xlink:href="#i" x="131.3" y="213.9"/>  <use xlink:href="#j" x="138.7" y="213.9"/>  <use xlink:href="#k" x="145.2" y="213.9"/> </g> <path d="M456.4 239.3h2c.9 0 1.6.1 2 .4.6.2.7.7.7 1.3 0 .5-.1.8-.3 1.1-.3.3-.6.5-1 .5l.8.4.6.5.2.9c0 .6-.4 1.1-.7 1.5-.5.3-1 .5-1.8.5h-2.5zm.9 3h1.3c.6 0 1 0 1.3-.3.1-.2.3-.5.3-.8 0-.4-.1-.7-.4-.9-.3-.2-.8-.3-1.4-.3h-1.1zm0 .8v2.6h1.4c.6 0 1-.2 1.3-.4.3-.3.4-.6.4-1s-.1-.7-.4-.9c-.2-.2-.7-.3-1.4-.3zm8-2.1c.7 0 1.2.2 1.7.7.3.3.5 1.1.5 2 0 1-.2 1.6-.6 2.1-.4.5-1 .7-1.6.7-.4 0-.8 0-1-.2l-.7-.6v3.1h-.9v-7.7h.8v.7h.2l.6-.6c.2-.2.6-.2 1-.2zm-.2.7c-.5 0-.9.2-1.1.5-.2.3-.4.7-.4 1.4v.1c0 .7.1 1.3.4 1.6.2.3.6.5 1.2.5.3 0 .6 0 .8-.3l.4-.7.2-1c0-.8-.1-1.3-.4-1.7-.2-.1-.6-.4-1-.4zm5.9-.7c.5 0 1 0 1.3.4.4.3.5.7.5 1.4v3.6h-.6l-.2-.7-.7.6-1 .2c-.7 0-1.1-.1-1.3-.4-.3-.1-.5-.6-.5-1.1 0-.6.2-1 .6-1.3.5-.3 1.1-.5 2-.5h.9v-.3c0-.5-.1-.9-.3-1l-.8-.2-.9.1c-.2 0-.4.2-.6.3l-.4-.7.9-.3 1.1-.1zm1 2.8h-.8c-.7 0-1.2.2-1.4.4-.2.1-.4.4-.4.7 0 .3.1.6.3.7l.7.2c.5 0 .8-.1 1.1-.4.3-.2.5-.6.5-1.1zm7.8 4.5h-.9v-1.9h-4.4v-5.3h.9v4.6h2.8V241h.8v4.7h.8zm3.1-7.3c.6 0 1.1 0 1.4.4.3.3.5.7.5 1.4v3.6h-.8v-.7l-.9.6-.9.2c-.7 0-1.1-.1-1.4-.4-.2-.1-.4-.6-.4-1.1 0-.6.2-1 .7-1.3.4-.3.9-.5 1.9-.5h.8v-.3c.2-.5.2-.9-.2-1l-.8-.2-.8.1-.7.3-.3-.7 1-.3.9-.1zm1 2.8h-.8c-.6 0-1.1.2-1.4.4-.2.1-.3.4-.3.7 0 .3 0 .6.2.7l.7.2c.5 0 .9-.1 1.2-.4.3-.2.4-.6.4-1.1zm.1 0" style="fill:none;stroke:#fff;stroke-width:3;stroke-linecap:butt;stroke-linejoin:round;stroke-miterlimit:10;stroke-opacity:.6" transform=" rotate(  340 470.941 243.42) "/> <g style="fill:#212121;fill-opacity:1" transform=" rotate(  340 470.941 243.42) ">  <use xlink:href="#l" x="455.4" y="246.4"/>  <use xlink:href="#m" x="461.9" y="246.4"/>  <use xlink:href="#n" x="468.1" y="246.4"/>  <use xlink:href="#o" x="473.7" y="246.4"/>  <use xlink:href="#n" x="480" y="246.4"/> </g> <path d="M322.6 24.5h2c1.1 0 1.7 0 2.2.4.4.1.6.7.6 1.3 0 .4-.1.8-.4 1-.2.5-.5.6-1 .7l.8.3c.3 0 .5.2.6.5l.2.9c0 .6-.2 1.1-.6 1.4-.5.4-1 .6-1.9.6h-2.5zm1 3h1.2c.7 0 1.1-.1 1.2-.3.3-.2.5-.5.5-.9s-.2-.6-.5-.8c-.2-.2-.7-.3-1.3-.3h-1.2zm-.1.8v2.5h1.5c.6 0 1 0 1.3-.3.2-.3.4-.6.4-1s-.2-.7-.4-1c-.3 0-.7-.2-1.4-.2zm6.4-2.1V30l-.2.3v.4l2.9-4.5h1.1v5.4h-.7V27l-2.8 4.6h-1.1v-5.4zm9.5 0V31h.8v2.5h-.8v-2h-3.8v2.1h-.8v-2.7h.4a6.9 6.9 0 0 0 1-2.2 9.6 9.6 0 0 0 .4-2.5zm-.8.8h-1.2l-.2 1.3-.5 1.4c-.1.5-.3.8-.6 1.3h2.5zm3.4-.8v4.5l3-4.5h.9v5.4h-.6V27l-3 4.6h-1v-5.4zm6.6 0v2.3h2.9v-2.3h.9v5.4h-1v-2.4h-2.7v2.4h-1.1v-5.4zm0 0" style="fill:none;stroke:#fff;stroke-width:3;stroke-linecap:butt;stroke-linejoin:round;stroke-miterlimit:10;stroke-opacity:.6" transform=" rotate(  340 337.499 28.5954) "/> <g style="fill:#212121;fill-opacity:1" transform=" rotate(  340 337.499 28.5954) ">  <use xlink:href="#l" x="321.7" y="31.6"/>  <use xlink:href="#j" x="328.2" y="31.6"/>  <use xlink:href="#p" x="334.6" y="31.6"/>  <use xlink:href="#j" x="340.4" y="31.6"/>  <use xlink:href="#q" x="346.8" y="31.6"/> </g> <path d="m387.7 190-2.4-6.4v6.3h-.7v-7.1h1.4l2 5.8 2.3-5.8h1.4v7.1h-1v-4.4l.2-1v-.8l-2.5 6.2zm10.4-2.8c0 1-.1 1.6-.6 2-.5.7-1 .8-1.9.8-.4 0-.9 0-1.2-.3-.4-.2-.7-.5-1-1l-.1-1.5c-.1-.9.1-1.5.6-2 .4-.5 1-.7 1.8-.7.5 0 .9 0 1.2.3.4.2.7.5 1.1 1v1.3zm-4 0c-.1.8.1 1.2.4 1.5.2.4.5.6 1.2.6.5 0 .9-.3 1.2-.6.1-.3.3-.7.3-1.5 0-.6-.1-1.1-.2-1.5-.4-.3-.8-.5-1.4-.5-.5 0-.9.2-1.1.5-.3.4-.5.9-.5 1.5zM400.4 184.6v2.2h3v-2.2h.7v5.3h-.8v-2.4h-2.9v2.5h-.9v-5.4zm9.2.7h-1.7v4.6h-1v-4.6h-1.5v-.7h4.2zm3.1-.8c.6 0 1.1.1 1.3.4.5.3.6.7.6 1.4v3.6h-.6l-.2-.7c-.3.3-.5.5-.8.6l-1 .2c-.5 0-1 0-1.2-.4-.4-.2-.5-.6-.5-1.2 0-.4.2-1 .6-1.2.4-.3 1-.5 2-.5h.8v-.3c.1-.5-.1-.8-.2-1l-.9-.2-.8.1-.7.3-.1-.7.7-.3 1-.1zm1 2.8h-.7c-.7 0-1.2.2-1.4.4-.3.1-.4.3-.4.7 0 .3 0 .6.3.7l.7.2c.4 0 .8-.1 1.1-.3.3-.3.5-.7.5-1.2zm3.5-2.7v2.2h2.8v-2.2h.9v5.3h-.8v-2.4H417v2.5h-.6v-5.4zm7.5-.1c.6 0 1.1.1 1.3.4.4.3.6.7.6 1.4v3.6h-.7l-.1-.7c-.4.3-.6.5-.8.6l-1 .2c-.6 0-1 0-1.4-.4-.2-.2-.4-.6-.4-1.2 0-.4.3-1 .8-1.2.3-.3.9-.5 1.9-.5h.7v-.3c.1-.5.1-.8-.2-1l-.8-.2-.8.1-.7.3-.3-.7.9-.3 1-.1zm1 2.8h-.7c-.7 0-1.2.2-1.5.4-.2.1-.3.3-.3.7 0 .3 0 .6.2.7l.7.2c.5 0 .9-.1 1.2-.3.3-.3.4-.7.4-1.2zm0 0" style="fill:none;stroke:#fff;stroke-width:3;stroke-linecap:butt;stroke-linejoin:round;stroke-miterlimit:10;stroke-opacity:.6" transform=" rotate(  340 407.213 186.918) "/> <g style="fill:#212121;fill-opacity:1" transform=" rotate(  340 407.213 186.918) ">  <use xlink:href="#r" x="383.6" y="189.9"/>  <use xlink:href="#s" x="392.6" y="189.9"/>  <use xlink:href="#q" x="398.7" y="189.9"/>  <use xlink:href="#t" x="405.1" y="189.9"/>  <use xlink:href="#n" x="409.8" y="189.9"/>  <use xlink:href="#q" x="415.4" y="189.9"/>  <use xlink:href="#n" x="421.8" y="189.9"/> </g> <path d="M11.1 142.7h-1l-3.4-3.6v3.6H6v-7.1h1v3.4l2.8-3.4H11L7.9 139zm3.4-5.4c.7 0 1.2.2 1.6.7.4.4.6 1 .6 2s-.2 1.6-.6 2.1c-.4.5-1 .7-1.6.7-.4 0-.7 0-1-.2l-.6-.6h-.1v3.1H12v-7.7h.7l.1.6.8-.5c.1-.2.4-.2.9-.2zm-.1.7c-.6 0-1 .2-1.2.5-.2.3-.2.7-.2 1.4v.1c-.1.7-.1 1.2.2 1.6.2.3.6.4 1.2.4.3 0 .6 0 .8-.2l.5-.7.1-1.1c0-.7-.1-1.2-.3-1.6-.3-.2-.6-.4-1.1-.4Zm2.8-.6h1l.9 3 .6.8v.7l.3-.7.2-.8 1.1-3h1l-2.3 6c-.2.6-.5 1.1-.8 1.4-.2.2-.7.2-1.2.2h-.7v-.8h.3l.3.3c.3-.1.5-.1.7-.4l.5-.6.3-.8zm13.2 0v5.3h-7.3v-5.3h1v4.6h2.1v-4.6h1v4.6h2.3v-4.6zm3.8-.1c.4 0 .8 0 1.2.3a2 2 0 0 1 .6.8c.3.4.4.8.4 1.3v.5h-3.7c0 .6.3 1 .5 1.4.3.3.7.4 1.2.4h1l.6-.3v.8l-.7.2a5 5 0 0 1-1 .1 3 3 0 0 1-1.3-.3 2.2 2.2 0 0 1-.9-1c-.1-.2-.3-.7-.3-1.3 0-.7.1-1.2.3-1.6.2-.4.5-.8.8-1 .4-.2.8-.3 1.3-.3zm0 .7c-.5 0-.8 0-1 .4-.3.3-.4.6-.5 1.1h2.8c0-.4-.1-.8-.5-1 0-.5-.4-.5-.9-.5zm7.8.7c0 .3 0 .6-.1.8l-.9.4c.3.1.6.2.9.4.1.2.3.4.3.9 0 .4-.1.8-.5 1-.3.5-.9.6-1.6.6h-2.4v-5.4h3.4l.7.6c.2.1.2.4.2.7zm-.7.1c-.1-.2-.3-.4-.4-.5l-1-.3h-1.2v1.6h1.1c1 0 1.4-.3 1.4-.8zm0 2.4c0-.4-.1-.6-.3-.7l-1-.2h-1.5v1.7H40c.4 0 .7 0 1-.2.2-.1.3-.3.3-.6zm4.2-3.9c.7 0 1.2.1 1.5.4.3.3.5.7.5 1.4v3.6h-.7l-.2-.7-.6.6-1.1.2c-.7 0-1.1-.1-1.4-.4-.2-.2-.5-.6-.5-1.2.1-.5.3-1 .7-1.2.5-.3 1.1-.5 2-.5h.9v-.3c0-.5-.1-.8-.3-1l-.8-.2h-.8l-.7.4-.3-.7.8-.3 1-.1zm1 2.7h-.6c-.8.1-1.2.3-1.5.5-.2.1-.4.4-.4.7 0 .3.1.6.3.8l.7.1c.5 0 .8-.1 1.1-.4.3-.2.5-.6.5-1.1zM54.4 144.6h-.8v-1.9H49v-5.3h1v4.6h2.8v-4.6h.8v4.6h.8zm0 0" style="fill:none;stroke:#fff;stroke-width:3;stroke-linecap:butt;stroke-linejoin:round;stroke-miterlimit:10;stroke-opacity:.6" transform=" rotate(  340 29.6982 139.719) "/> <g style="fill:#212121;fill-opacity:1" transform=" rotate(  340 29.6982 139.719) ">  <use xlink:href="#u" x="4.9" y="142.7"/>  <use xlink:href="#m" x="11.1" y="142.7"/>  <use xlink:href="#v" x="17.2" y="142.7"/>  <use xlink:href="#k" x="22.3" y="142.7"/>  <use xlink:href="#w" x="31.3" y="142.7"/>  <use xlink:href="#x" x="36.9" y="142.7"/>  <use xlink:href="#n" x="42.7" y="142.7"/>  <use xlink:href="#o" x="48.3" y="142.7"/> </g> <path d="M205 49.3c0 .3 0 .7-.4 1.1-.3.3-.7.6-1.3.6.7 0 1.1.3 1.4.5.3.3.5.7.5 1.2 0 .6-.3 1.1-.7 1.5-.5.4-1.2.6-2.2.6h-1.1a3 3 0 0 1-1-.5v-.7l1 .4h1.1c.6 0 1.1 0 1.5-.2.2-.3.5-.7.5-1.1 0-.5-.3-.8-.6-1-.4-.2-1-.3-1.7-.3h-1v-.7h1c.7 0 1.2-.2 1.6-.4.3-.2.4-.6.4-1 .1-.3 0-.6-.3-.8-.3-.2-.6-.3-1-.3-.5 0-.8 0-1.1.2l-1 .4-.2-.6.9-.5 1.4-.2c.7 0 1.3.2 1.7.5.4.3.6.7.6 1.2zm3.6 0c.7 0 1.1.1 1.5.4.3.3.4.7.4 1.4v3.6h-.5l-.3-.7c-.3.3-.5.5-.8.6l-.9.2c-.6 0-1.1-.1-1.3-.4-.4-.2-.5-.6-.5-1.2 0-.5.2-1 .6-1.2.4-.3 1-.5 2-.5h.9v-.3c0-.5-.1-.8-.3-1l-.8-.2h-.8l-.8.4-.2-.7.8-.3 1-.1zm1 2.7h-.6c-.8.1-1.3.3-1.5.5-.3.1-.5.4-.5.7.1.3.1.6.4.8l.6.1c.5 0 .9-.1 1.2-.4.3-.2.5-.6.5-1.1zm2 5.1h-.6l-.2-.1v-.7h1.2c0-.2.2-.4.2-.8v-6.1h.8v6.1c0 .5 0 1-.3 1.2-.2.3-.6.3-1.1.3zm5.2-7.8c.5 0 .9 0 1.2.3a2 2 0 0 1 .8.8c.2.4.2.8.2 1.3v.5h-3.6c0 .6.1 1 .4 1.4.3.3.8.4 1.3.4h.9c.3 0 .5-.2.8-.3v.8l-.8.2a5 5 0 0 1-1 .1 3 3 0 0 1-1.3-.3 2.2 2.2 0 0 1-1-1l-.1-1.3c-.1-.7-.1-1.2.2-1.6.2-.4.4-.8.8-1 .3-.2.8-.3 1.2-.3zm0 .7c-.4 0-.7 0-1 .4-.2.3-.4.6-.4 1.1h2.7c0-.4 0-.8-.3-1-.2-.5-.5-.5-1-.5zm4.4-.6v2c0 .4.3.7 1 .7h1a5 5 0 0 0 .8-.4v-2.3h.8v5.3h-.8v-2.4a5 5 0 0 1-1 .5 3 3 0 0 1-1 .2c-.5 0-1-.2-1.3-.5-.3-.3-.4-.5-.4-1.1v-2zm7.4-.1c.6 0 1.1.1 1.4.4.3.3.5.7.5 1.4v3.6h-.7l-.1-.7-.9.6-.9.2c-.6 0-1.1-.1-1.4-.4-.2-.2-.4-.6-.4-1.2 0-.5.2-1 .7-1.2.4-.3 1-.5 2-.5h.7v-.3c.1-.5.1-.8-.2-1l-.8-.2h-.8l-.7.4-.3-.7.9-.3 1-.1zm1 2.7h-.8c-.6.1-1.1.3-1.4.5-.2.1-.3.4-.3.7-.1.3-.1.6.2.8l.7.1c.5 0 1-.1 1.2-.4.3-.2.4-.6.4-1.1zm5.1-2.7c.7 0 1.2.2 1.6.7.4.4.6 1 .6 2s-.2 1.6-.6 2.1c-.4.5-1 .7-1.6.7-.4 0-.8 0-1-.2l-.7-.6v3.1h-.9v-7.7h.9v.6l.7-.5c.2-.2.6-.2 1-.2zm-.2.7c-.5 0-.9.2-1.1.5-.2.3-.4.7-.4 1.4v.1c0 .7.1 1.2.3 1.6.3.3.7.4 1.3.4.3 0 .4 0 .8-.2l.4-.7.2-1.1c0-.7-.1-1.2-.4-1.6-.2-.2-.6-.4-1-.4Zm0 0" style="fill:none;stroke:#fff;stroke-width:3;stroke-linecap:butt;stroke-linejoin:round;stroke-miterlimit:10;stroke-opacity:.6" transform=" rotate(  340 218.513 51.7178) "/> <g style="fill:#212121;fill-opacity:1" transform=" rotate(  340 218.513 51.7178) ">  <use xlink:href="#y" x="199.8" y="54.7"/>  <use xlink:href="#n" x="205.7" y="54.7"/>  <use xlink:href="#z" x="211.3" y="54.7"/>  <use xlink:href="#w" x="213.9" y="54.7"/>  <use xlink:href="#A" x="219.6" y="54.7"/>  <use xlink:href="#n" x="225.7" y="54.7"/>  <use xlink:href="#m" x="231.3" y="54.7"/> </g> <path d="M265.4 259.5v-7.1h5.4v7.1h-1v-6.3h-3.4v6.3Zm8-5.4v4.5l2.8-4.5h1.1v5.4h-.8V255l-2.8 4.5h-1.1v-5.4zm8.2-.1c.6 0 1.2.3 1.6.7.4.5.6 1.3.6 2.1 0 1-.2 1.6-.6 2-.4.7-1 .9-1.6.9-.4-.1-.8-.1-1-.3l-.8-.6v3.2h-.8v-7.9h.7l.3.9.5-.7c.3-.3.7-.3 1-.3zm-.2.8c-.4 0-1 .1-1.1.4-.3.5-.4.8-.4 1.4v.2c.1.7.1 1.2.3 1.5.2.4.8.7 1.2.7.4-.1.6-.2.8-.4.3-.2.4-.4.5-.6l.3-1.2c-.1-.6-.2-1.1-.5-1.5-.2-.3-.5-.5-1-.5zm8.4 2c0 .9-.2 1.6-.6 2-.5.7-1 .9-1.9.9-.3-.1-.9-.2-1.2-.4-.4-.3-.7-.6-1.1-1v-1.5c-.1-.8 0-1.6.6-2 .4-.5 1-.8 1.8-.8.5 0 .9.2 1.2.4.4.2.7.5 1 1l.1 1.3zm-4 0c0 .6.1 1.2.4 1.5.2.4.6.7 1.2.7.5-.1.9-.3 1.2-.7.2-.3.3-.9.3-1.5s-.1-1.1-.3-1.5c-.3-.3-.7-.5-1.3-.5-.5 0-.9.2-1.1.5-.3.4-.4.9-.4 1.5zm9-1.9h-1.7v4.6h-.9v-4.6h-1.7v-.9h4.3zm0 0" style="fill:none;stroke:#fff;stroke-width:3;stroke-linecap:butt;stroke-linejoin:round;stroke-miterlimit:10;stroke-opacity:.6" transform=" rotate(  340 281.017 256.502) "/> <g style="fill:#212121;fill-opacity:1" transform=" rotate(  340 281.017 256.502) ">  <use xlink:href="#B" x="264.4" y="259.5"/>  <use xlink:href="#j" x="271.8" y="259.5"/>  <use xlink:href="#m" x="278.2" y="259.5"/>  <use xlink:href="#s" x="284.3" y="259.5"/>  <use xlink:href="#t" x="290.3" y="259.5"/> </g> <path d="M174.9 6.5V-.6h4.1v.8h-3.2v2.2h1c.7 0 1.3.1 1.7.3.4.2.5.3.8.7l.2 1c0 .7-.2 1.2-.5 1.6-.5.4-1 .5-2 .5zm.9-.7h1c.8 0 1.2-.1 1.5-.4.2-.2.3-.4.3-1 0-.4-.2-.7-.4-1l-1.5-.1h-1zm9.8-2c0 1-.3 1.6-.7 2.2-.5.4-1 .6-1.9.6-.4 0-1 0-1.2-.3-.4-.2-.8-.5-1-1l-.1-1.4c-.1-.9.1-1.6.6-2.1.4-.5 1-.7 1.7-.7.6-.1 1-.1 1.3.3.4.2.7.6 1 1 0 .3.2.8.2 1.3zm-4.1 0c0 .7.1 1.2.4 1.6.1.3.6.5 1.1.5.6.1 1-.2 1.3-.5.2-.4.3-1 .3-1.6 0-.6-.1-1-.3-1.4-.3-.4-.7-.6-1.3-.6-.5 0-1 .2-1.1.6-.3.3-.4.8-.4 1.4zm8-2.8c.5 0 1.2.4 1.5.9.5.3.7 1 .7 1.9 0 1-.2 1.7-.7 2.2-.3.4-1 .6-1.5.6s-.8 0-1-.2l-.8-.6V9h-.7V1.2h.6l.2.7.6-.6 1-.2zm-.2.9c-.5-.1-1 .1-1.1.4-.3.3-.4.7-.4 1.4v.1c0 .7.2 1.2.3 1.6.3.3.7.5 1.3.5.3.1.5.1.6-.3.4-.1.5-.4.6-.6l.2-1c0-.9-.1-1.4-.4-1.7-.2-.3-.6-.5-1-.5Zm0-.1" style="fill:none;stroke:#fff;stroke-width:3;stroke-linecap:butt;stroke-linejoin:round;stroke-miterlimit:10;stroke-opacity:.6" transform="rotate(  340 177.21 15.6533) translate(-5.8516082,12.121188)"/> <g style="fill:#212121;fill-opacity:1" transform=" rotate(  340 177.21 15.6533) ">  <use xlink:href="#C" x="168" y="18.7"/>  <use xlink:href="#s" x="174.2" y="18.7"/>  <use xlink:href="#m" x="180.2" y="18.7"/> </g> <path d="M57.8 238v-7.2h5.4v7.2h-1v-6.4h-3.4v6.4zm9.8-5.5c.6 0 1.1.3 1.4.7.5.5.8 1.2.8 2 0 1.1-.3 1.8-.8 2.3-.3.3-.8.5-1.5.5-.4 0-.7 0-1-.2-.3-.1-.5-.3-.5-.5v3.1h-1v-7.8h.7l.1.8.8-.6c.2-.2.5-.3.9-.3zm-.2.8c-.6 0-1 .1-1.2.4-.2.3-.2.8-.2 1.4v.2c-.1.6-.1 1.2.2 1.5.2.4.6.6 1.2.6.3 0 .6-.1.8-.4l.5-.6.1-1.1c0-.6 0-1.1-.3-1.5-.2-.4-.6-.5-1.1-.5zm8.4 2c0 .9-.2 1.6-.7 2-.4.6-1 .9-1.8.9-.5-.2-.9-.2-1.3-.4l-.8-1c-.2-.4-.3-1-.3-1.5 0-.9.1-1.6.6-2 .5-.6 1-.9 1.9-.9.4.1.8.2 1.2.6.4 0 .7.4.9.8.2.4.3.9.3 1.5zm-4 0c0 .6 0 1.1.2 1.5.4.4.8.6 1.3.6.7 0 1-.2 1.2-.6.3-.4.5-.9.5-1.5s-.2-1.1-.5-1.5c-.2-.4-.5-.5-1.2-.5-.5 0-1 .1-1.2.5-.1.4-.3.9-.3 1.5zm8.6-2.7h1l-2.4 2.6 2.5 2.8h-1l-2.4-2.7v2.7h-.9v-5.4h.9v2.6zm1.3 0h.9l1.2 3 .2.9.2.6.2-.6.3-.8 1.1-3h1l-2.5 5.9c0 .6-.3 1.1-.6 1.4-.3.2-.7.4-1.2.4H82l-.2-.1v-.7h.5c.3.1.7.1.8-.1l.4-.8.3-.7zm10.4 0v5.4h-.9v-4.6h-2.7v4.6h-1v-5.4zm5.5 0v2.2h1.2c.7 0 1.2.2 1.6.4.3.3.5.6.5 1.1 0 .5-.2 1-.5 1.2-.4.3-1 .5-1.7.5h-2v-4.6h-1.3c0 1-.2 2-.3 2.6l-.6 1.6c-.3.3-.6.4-1 .4H93v-.7h.3c.4.1.7-.3.9-.9.2-1.1.4-2.2.5-3.9zm1 3h-.9v1.7h.9c.6 0 .9 0 1.1-.3.3-.1.3-.3.3-.6 0-.4-.1-.5-.4-.7l-1-.1zM104.3 232.5c.5 0 .9.1 1.2.3a2 2 0 0 1 .8.9l.2 1.2v.6H103c-.1.5 0 1 .3 1.4.3.3.7.4 1.3.4h.9l.8-.3v.7l-.8.3a5 5 0 0 1-1 0 3 3 0 0 1-1.3-.1 2.2 2.2 0 0 1-1-1.1l-.2-1.4c0-.6 0-1.1.3-1.6 0-.4.4-.7.7-1 .4-.1.8-.2 1.3-.2zm0 .7c-.3 0-.7.2-1 .4-.2.4-.3.7-.3 1.2h2.6c0-.5-.1-.9-.3-1.1-.2-.3-.5-.5-1-.5zm0 0" style="fill:none;stroke:#fff;stroke-width:3;stroke-linecap:butt;stroke-linejoin:round;stroke-miterlimit:10;stroke-opacity:.6" transform=" rotate(  340 82.7805 234.976) "/> <g style="fill:#212121;fill-opacity:1" transform=" rotate(  340 82.7805 234.976) ">  <use xlink:href="#B" x="56.8" y="238"/>  <use xlink:href="#m" x="64.2" y="238"/>  <use xlink:href="#s" x="70.3" y="238"/>  <use xlink:href="#D" x="76.4" y="238"/>  <use xlink:href="#v" x="81.6" y="238"/>  <use xlink:href="#E" x="86.7" y="238"/>  <use xlink:href="#F" x="93" y="238"/>  <use xlink:href="#w" x="101.4" y="238"/> </g></svg>