<svg xmlns="http://www.w3.org/2000/svg" xmlns:xlink="http://www.w3.org/1999/xlink" viewBox="0 0 497 279"> <defs overflow="visible" style="stroke:none">  <path id="g" d="M2.9.2c-.6 0-1.2-.3-1.6-.7C1-1 .7-1.7.7-2.5s.1-1.7.3-2.3a6.3 6.3 0 0 1 .8-1.7 4 4 0 0 1 1.3-1.2 3 3 0 0 1 1.6-.5c.5 0 1 .2 1.3.4l.7 1L7.3-8h1L6.5 0h-1l.2-1.5A6 6 0 0 1 4.3-.3C4 0 3.4.2 3 .2ZM3.3-1c.4 0 .8-.1 1.1-.3a4 4 0 0 0 1-1.1 6 6 0 0 0 .8-2.4v-.7c0-.4-.1-.8-.4-1.1-.2-.4-.6-.5-1-.5s-.7.1-1 .4c-.5.2-.8.6-1.1 1l-.4 1.5c-.3.4-.3.9-.3 1.6 0 .6 0 1 .4 1.3.2.2.5.3 1 .3Zm0 0"/>  <path id="f" d="M-.4 3.6H-1l-.4-.2v-1h.4l.5.2c.5-.1.8-.2 1-.5.5-.1.7-.6 1.1-1L1.8 0 .7-8H2l.6 4v1a22 22 0 0 1 .3 2A43.6 43.6 0 0 1 4-3.7L6.3-8h1.4l-5 9.3c-.6.8-1 1.4-1.4 1.7-.4.4-.9.6-1.7.6Zm0 0"/>  <path id="e" d="M1.2.6.4 0l.8-1C1-1.5.8-2.2.8-3L1-4.8a5.9 5.9 0 0 1 .8-1.7A4 4 0 0 1 3-7.7C3.5-8 4-8 4.7-8c.8-.1 1.4 0 1.9.3l.7-.9.8.6-.8 1 .3.8a5 5 0 0 1 .1 1c0 .6 0 1.3-.2 1.9a5.8 5.8 0 0 1-.8 1.7C6.4-1 6-.6 5.5-.3 5 0 4.4 0 3.7 0S2.5 0 2-.3Zm1-2.7 3.5-4.6-.3-.3h-.7a2 2 0 0 0-1.3.4c-.4.5-.8 1-1.1 1.6A5.8 5.8 0 0 0 2-3l.1.8ZM3.7-1c.6 0 1.1-.1 1.4-.4.4-.4.7-.8 1-1.4a6 6 0 0 0 .3-2.7v-.3L2.6-1.3l.6.3h.6Zm.1 0"/>  <path id="d" d="M3.6.2C2.7.2 2-.1 1.5-.7 1-1.2.7-1.9.7-2.9a6.6 6.6 0 0 1 1.1-3.6c.3-.5.8-1 1.3-1.2a3 3 0 0 1 1.6-.5c.8 0 1.4.2 1.8.5.3.3.5.8.5 1.4 0 .5 0 1-.5 1.3-.3.5-.8 1-1.5 1.1-.7.3-1.6.4-2.7.4h-.2v.6c-.1.6.1.9.4 1.4.3.5.8.6 1.4.6.4-.1.7-.1 1-.2l1.2-.5v1.2L4.9 0 3.6.2ZM2.3-4.5 4-4.7c.6-.1 1-.3 1.3-.5.3-.3.5-.6.5-1 0-.3-.1-.5-.3-.6-.2-.2-.5-.3-.8-.3-.5.1-1 .2-1.4.7-.5.4-.8 1-1 1.9Zm0 0"/>  <path id="c" d="m2.8 3.6-1.4-.1-1-.5V1.9l1 .4 1.4.2c.6 0 1-.2 1.5-.5.4-.2.7-.7.7-1.4l.3-.6a21.2 21.2 0 0 1 .2-1.5L4.4-.3C4 0 3.4.2 3 .2c-.7 0-1.3-.3-1.7-.7C1-1 .7-1.7.7-2.5A8 8 0 0 1 1-4.8a6.3 6.3 0 0 1 .8-1.7A4 4 0 0 1 3-7.7a3 3 0 0 1 1.7-.5c.5 0 1 .2 1.3.4l.7 1L7.4-8h.9L6.4.5c-.2 1-.6 1.9-1.2 2.4-.7.5-1.4.7-2.4.7ZM3.3-1c.4 0 .7-.1 1-.3l1.1-1L6-3.8a5.7 5.7 0 0 0 .2-1.7c0-.4 0-.8-.2-1.1-.3-.4-.7-.5-1.2-.5-.4.1-.8.2-1.1.4l-.9 1-.5 1.5c-.3.5-.3 1-.3 1.6 0 1.1.5 1.7 1.3 1.7Zm0 0"/>  <path id="b" d="M2.9.2c-.6 0-1.2-.3-1.6-.7C1-1 .7-1.7.7-2.5A8 8 0 0 1 1-4.8a6.4 6.4 0 0 1 .8-1.7c.2-.5.7-1 1.2-1.2a3 3 0 0 1 1.7-.5c.5 0 1 .2 1.3.4l.7 1a150.6 150.6 0 0 0 .5-2l.5-2.6H9L6.5 0h-1l.1-1.5L4.4-.3c-.5.3-1 .5-1.5.5ZM3.3-1c.4 0 .7-.1 1-.3l1-1c.3-.4.5-1 .7-1.5a5.5 5.5 0 0 0 .3-1.7c0-.4-.3-.8-.5-1.1-.1-.4-.5-.5-1.1-.5-.2.1-.7.2-.9.4l-1 1-.5 1.5c-.3.5-.3 1-.3 1.6 0 1.1.5 1.7 1.3 1.7Zm0 0"/>  <path id="a" d="M.6 0 3-10.7h5.3l-.2 1.2H4l-.8 3.3h4L6.9-5H3l-.8 3.8h4.1L6 0Zm0 0"/>  <path d="M1.4 0v-10.7h6.2V0Zm.8-.8h4.6v-9.1H2.2Zm0 0"/> </defs> <image xlink:href="svg/9/1_60.jpg" width="497" height="279"/> <path d="m279.5 13 2.3-10.6h5.3l-.2 1.1H283L282 7h4l-.3 1H282l-1 4h4v1zm10 .2c-.7 0-1.2-.2-1.6-.7-.4-.4-.6-1.1-.6-2a8 8 0 0 1 .3-2.2 6.4 6.4 0 0 1 .8-1.7c.3-.6.6-1 1.2-1.3a3 3 0 0 1 1.7-.3c.5-.1 1 0 1.2.3.5.3.6.6.8 1a152.8 152.8 0 0 0 .4-2l.5-2.7h1.3l-2.4 11.5h-1v-1.5l-1.1 1.1c-.5.3-1 .5-1.5.5zm.4-1c.4-.1.7-.2 1.1-.6.3-.1.6-.4 1-.9l.6-1.4a5.5 5.5 0 0 0 .2-1.7c0-.5 0-.9-.3-1.2-.3-.3-.6-.4-1.2-.4-.3 0-.7 0-1 .4-.4.2-.7.6-1 1l-.4 1.4-.3 1.7c0 1 .5 1.5 1.4 1.5zm8.1 4.4-1.2-.1c-.5 0-.8-.2-1.1-.4V15c.1.1.5.2.9.3.4.2 1 .3 1.4.3.6 0 1.1-.2 1.5-.6.5-.2.7-.7.9-1.4l.1-.6a21.2 21.2 0 0 1 .5-1.4l-1.4 1.1c-.4.3-.9.5-1.4.5-.7 0-1.2-.2-1.6-.7-.4-.5-.6-1.1-.6-2a8 8 0 0 1 .3-2.1 6.3 6.3 0 0 1 .7-1.8 4 4 0 0 1 1.3-1.3 3 3 0 0 1 1.6-.3c.6-.1 1.1 0 1.3.3.4.3.6.6.8 1l.5-1.3h1l-1.8 8.5c-.2 1.1-.7 2-1.3 2.5-.6.4-1.4.6-2.3.6zm.7-4.5c.3 0 .6-.1.9-.4.4-.2.7-.5 1-1l.7-1.4a5.7 5.7 0 0 0 .2-1.7c0-.5-.1-.9-.3-1.2-.3-.3-.6-.4-1.2-.4-.4 0-.7 0-1 .4-.5.2-.8.6-1 1l-.4 1.4-.3 1.7c0 1 .5 1.5 1.3 1.5zm8.9 1.1c-1 0-1.7-.2-2.2-.8-.4-.6-.7-1.4-.7-2.2a6.6 6.6 0 0 1 1-3.6c.4-.6.9-1 1.3-1.3a3 3 0 0 1 1.7-.3c.7-.1 1.3 0 1.7.4.4.3.6.6.6 1.3 0 .6-.2 1-.5 1.5-.3.4-.8.7-1.5 1-.7.2-1.6.4-2.7.4h-.3v.4c0 .7.2 1.2.5 1.6.3.3.7.4 1.3.4.4.1.8.1 1 0 .5 0 .9-.3 1.2-.5v1.1l-1 .4-1.4.2zm-1.4-4.7h.1c.7 0 1.2 0 1.7-.2.5 0 1-.2 1.2-.5.3-.2.5-.5.5-1 0-.2 0-.4-.3-.6-.1-.2-.4-.2-.8-.2-.5 0-1 .2-1.4.6-.4.5-.7 1-1 1.9zm6.5 5.1-.8-.6.8-1c-.4-.5-.5-1.1-.5-2 0-.4 0-1.1.2-1.7a5.9 5.9 0 0 1 .8-1.7 4 4 0 0 1 1.2-1.2c.6-.4 1.1-.5 1.8-.5s1.3.2 1.8.5l.8-1 .6.8-.7.8c.2.2.3.5.3.9a5 5 0 0 1 .1 1c0 .6 0 1.1-.1 1.8a5.8 5.8 0 0 1-.8 1.8c-.4.5-.8.9-1.3 1.2-.5.3-.9.5-1.7.5s-1.3-.2-1.8-.5zm.9-2.6 3.6-4.7-.3-.2-.7-.1a2 2 0 0 0-1.4.6c-.5.3-.8.8-1 1.4a5.8 5.8 0 0 0-.3 2v1zm1.6 1.1c.5 0 1-.1 1.3-.5.5-.3.8-.8 1-1.4a6 6 0 0 0 .3-2.6v-.4l-3.8 4.6.6.2.6.1zm4 4.5h-.6l-.4-.1v-1h.8c.5.1 1 .1 1.1-.2.5-.4.7-.7.9-1.3l.5-.9-1.2-8.1h1.3l.5 4 .2 1a22 22 0 0 1 0 2 43.6 43.6 0 0 1 1.4-2.6l2.2-4.4h1.4l-5 9.4-1.5 1.6c-.3.5-.8.6-1.6.6zm10.3-3.4c-.7 0-1.2-.2-1.6-.7-.4-.5-.6-1.1-.6-2 0-.8.1-1.5.3-2.2a6.3 6.3 0 0 1 .8-1.8 4 4 0 0 1 1.3-1.2 3 3 0 0 1 1.6-.3c.5-.1 1 0 1.2.3.5.3.6.6.8 1l.6-1.3h.9l-1.7 8h-1l.2-1.3a6 6 0 0 1-1.3 1c-.4.3-1 .5-1.5.5zm.4-1c.4-.1.8-.2 1.1-.6a4 4 0 0 0 1-.9 6 6 0 0 0 .8-2.5v-.6c0-.6-.1-.9-.4-1.2-.2-.3-.6-.4-1-.4s-.8 0-1 .3l-1.1 1-.3 1.5c-.3.5-.3 1-.3 1.7 0 .5 0 1 .3 1.2.2.3.5.4 1 .4zm.1-.1" style="fill:none;stroke:#fff;stroke-width:2;stroke-linecap:butt;stroke-linejoin:round;stroke-miterlimit:10;stroke-opacity:.6" transform="rotate(  340 326.649 111.201) translate(20.062657,101.14923)"/> <g style="fill:#000;fill-opacity:1" transform=" rotate(  340 326.649 111.201) ">  <use xlink:href="#a" x="298.9" y="114.2"/>  <use xlink:href="#b" x="306.6" y="114.2"/>  <use xlink:href="#c" x="315.3" y="114.2"/>  <use xlink:href="#d" x="324" y="114.2"/>  <use xlink:href="#e" x="331.5" y="114.2"/>  <use xlink:href="#f" x="339.6" y="114.2"/>  <use xlink:href="#g" x="346.7" y="114.2"/> </g></svg>