<svg xmlns="http://www.w3.org/2000/svg" xmlns:xlink="http://www.w3.org/1999/xlink" viewBox="0 0 497 279"> <defs>  <path id="P" d="M2.9-5.5c.6 0 1.1.2 1.4.5.3.3.5.7.5 1.3V0h-.6L4-.8c-.3.3-.5.6-.8.8h-1c-.5 0-1 0-1.3-.3C.6-.5.5-.9.5-1.5c0-.5.2-1 .5-1.2.5-.3 1-.5 2-.5h.8v-.3c.2-.5.2-.8-.2-1l-.8-.2H2l-.7.5L1-5l1-.3.9-.2Zm1 2.9h-.8c-.6 0-1 .1-1.4.3-.1.3-.3.5-.3.8 0 .3 0 .5.2.7l.7.2c.5 0 .9-.1 1.2-.4.3-.2.4-.6.4-1Zm.1 0"/>  <path id="u" d="M2.1.1C1.7.1 1.3 0 1-.4.7-.7.5-1.2.5-1.9l.2-1.6.6-1.3c.3-.4.7-.7 1-.9.2-.2.7-.3 1.1-.3.4 0 .7.1 1 .3l.5.7.5-.9H6L4.8 0H4l.2-1a4 4 0 0 1-1.1.7c-.1.3-.6.3-.9.3Zm.3-.8c.3 0 .6 0 .8-.3a3 3 0 0 0 .8-.8 5 5 0 0 0 .4-1.1l.1-.6V-4c.1-.4.1-.6-.1-1-.4 0-.6-.2-.9-.2-.3 0-.5.2-.8.3l-.6.7-.4 1-.2 1.4c0 .3 0 .6.3.9l.6.1Zm0 0"/>  <path id="q" d="M2.7 0C2 0 1.5 0 1.1-.4.7-1 .5-1.5.5-2.2a5 5 0 0 1 .2-1.3c.1-.5.3-.9.6-1.3a3 3 0 0 1 .9-.7C2.6-6 3-6 3.5-6c.7 0 1.2.2 1.5.6.5.4.7 1 .7 1.7 0 .4 0 .9-.2 1.3-.1.5-.3.9-.6 1.4a3 3 0 0 1-.9.8c-.4.2-.8.2-1.3.2Zm0-.6c.5-.1.9-.2 1.1-.5.2-.2.5-.6.6-.9.2-.6.3-1.1.3-1.8l-.1-.7-.4-.5-.7-.2c-.5 0-.8.2-1 .5-.5.2-.7.5-.9.9L1.5-2c0 .3.1.7.3.9.3.3.6.4 1 .4Zm.1-.1"/> </defs> <defs overflow="visible" style="stroke:none">  <path id="U" d="M4.8-5.4v4.7h.8v2.6h-.8V0H1v1.9H.2V-.7h.4a6.9 6.9 0 0 0 1-2.3A9.6 9.6 0 0 0 2-5.4Zm-.8.7H2.8l-.2 1.4L2-1.9c0 .5-.2.9-.5 1.2H4Zm0 0"/>  <path id="T" d="M.6-3.2C.6-4.4.7-5.3 1-6c.4-.6 1-1 1.8-1.2l1.3-.3c.4 0 .8 0 1.1-.2l.2.8-.8.2a31.4 31.4 0 0 0-1.6.2c-.4.1-.8.5-1 .7-.3.4-.4 1-.5 1.8l.5-.5c0-.1.3-.3.6-.3a2 2 0 0 1 .7-.2c.7 0 1.3.2 1.7.7.3.3.5 1 .5 1.7C5.5-2 5.3-1.5 5-1l-.7 1H3c-.7 0-1.3-.2-1.8-.7C.8-1.4.6-2.1.6-3.3ZM3-.6c.5 0 .8-.2 1-.4.4-.3.5-.8.5-1.5 0-.5 0-1-.3-1.3-.2-.2-.5-.5-1-.5l-.8.3-.6.4c-.2.1-.3.3-.3.4v1c0 .2.2.4.3.8 0 .2.2.4.5.6l.7.2Zm0 0"/>  <path id="S" d="m5.5 0-1-2.2H1.9L.9 0H0l2.8-7.2h.8L6.4 0ZM4.3-3l-.8-2.2v-.3l-.3-.4v-.3l-.2.6a8 8 0 0 1 0 .4L2-3Zm0 0"/>  <path id="R" d="M.4-2.3v-.8h2.4v.8Zm0 0"/>  <path id="Q" d="M5 0H4v-4.6H2.5L2-2 1.5-.4c-.3.3-.6.4-1 .4H0v-.7h.4c.3.1.6-.3.8-.9.2-1 .4-2.2.5-3.9h3.2Zm0 0"/>  <use xlink:href="#P"/>  <path id="O" d="M7.3-5.4 5-2.8 7.5 0h-1L4.2-2.7V0h-.9v-2.7L1 0H0l2.4-2.8L.2-5.4h1l2.1 2.6v-2.6h.9v2.6l2.1-2.6Zm0 0"/>  <path id="N" d="M5.8-7.1v6.3h.9v2.7h-.9V0H1v1.9H.1V-.8h.5l.7-1.4a14.7 14.7 0 0 0 1-3.3l.2-1.6Zm-1 .8H3.4L3-5a18.6 18.6 0 0 1-1 3L1.7-.8h3.2Zm.1 0"/>  <path id="M" d="M3.4-5.5c.7 0 1.2.2 1.6.5.2.3.4.8.4 1.5V0h-.9v-3.4c0-.9-.4-1.3-1.2-1.3-.6 0-1 .1-1.2.5-.3.2-.4.8-.4 1.4V0H.8v-5.4h.8v.8h.2c.2-.4.3-.5.7-.7l1-.2Zm0 0"/>  <path id="L" d="M5.5-2.7c0 .9-.2 1.7-.7 2-.4.7-1 .9-1.8.9-.5-.2-.9-.2-1.3-.4-.3-.2-.6-.6-.7-1C.6-1.6.5-2 .5-2.7c0-.9.3-1.6.7-2 .5-.5 1-.8 1.8-.8.5 0 1 .2 1.3.5.4 0 .7.4.9.9.2.2.3.7.3 1.3Zm-4 0c0 .7 0 1.2.3 1.5.3.4.7.6 1.2.6.6 0 1-.2 1.2-.6.3-.3.4-.8.4-1.5s-.1-1.1-.4-1.5c-.2-.3-.6-.5-1.2-.5-.5 0-1 .2-1.2.5-.2.4-.3.9-.3 1.5Zm0 0"/>  <path id="K" d="M1.7 0H.8v-7.6h1Zm0 0"/>  <path id="J" d="M1.3-7.4c.1 0 .3 0 .4.2l.1.4-.1.4-.4.2-.4-.3-.1-.3.1-.4.4-.2Zm.4 2V0H.8v-5.4Zm0 0"/>  <path id="I" d="m2.8-5.5.8.3a2 2 0 0 1 .8.4l.3-.6h.6V.1c0 .8-.2 1.3-.6 1.7-.4.4-1 .6-1.8.6S1.5 2.3 1 2.1v-.9c.6.4 1.3.6 2 .6.5-.1.9-.3 1-.5.3-.3.4-.7.4-1.1v-.9c-.3.5-.9.8-1.6.8C2 0 1.5-.1 1-.6c-.3-.5-.5-1.2-.5-2 0-1.1.2-1.7.6-2.2.4-.4 1-.7 1.6-.7Zm0 .8c-.3 0-.6.2-.9.5-.3.4-.4.9-.4 1.5 0 .7 0 1.2.3 1.7.3.2.6.4 1 .4.7 0 1.1-.2 1.4-.4.1-.3.2-.8.2-1.5v-.2c0-.7 0-1.2-.3-1.5-.3-.4-.7-.5-1.2-.5Zm.1 0"/>  <path id="H" d="M3.3-5.5H4l-.1 1.1-.3-.3h-.3c-.3 0-.5 0-.8.2l-.5.7-.3 1V0H.8v-5.4h.8v1h.2l.6-.6c.3-.3.6-.5 1-.5Zm0 0"/>  <use id="G" xlink:href="#P"/>  <path id="F" d="M4.1 0 1.8-6.3V0H1v-7.1h1.3l2.2 5.8 2.3-5.8H8V0h-.8v-6.2L5 0Zm0 0"/>  <path id="E" d="M8.1-5.4V0H.8v-5.4h1v4.7H4v-4.7h1v4.7h2.1v-4.7Zm0 0"/>  <path id="D" d="M7.2-3.6c0 .8-.1 1.4-.4 2-.2.5-.6 1-1 1.2-.7.4-1.3.5-2 .5S2.6-.1 2.1-.4A2.7 2.7 0 0 1 1-1.6a4.9 4.9 0 0 1-.4-2c0-.7.1-1.4.4-1.9.2-.6.6-1 1-1.3.7-.2 1.3-.5 2-.5.5 0 1.1.3 1.6.5s1 .7 1.2 1.3c.3.5.4 1.2.4 2Zm-5.6 0c0 1 .1 1.6.4 2.1.5.6 1.1.8 2 .8s1.3-.2 1.7-.8c.3-.5.5-1.2.5-2 .1-1.1 0-1.8-.4-2.3-.5-.4-1.1-.7-1.9-.7s-1.4.3-1.8.8c-.4.5-.5 1.2-.5 2.1Zm0 0"/>  <path d="M1 0v-7.1h4V0Zm.4-.5h3.1v-6.1h-3Zm.1 0"/>  <path id="C" d="M4.5-7c.8 0 1.4 0 1.8.4.5.6.7 1.1.7 2.1V0H5.8v-4.5c0-1-.5-1.5-1.5-1.5-.8-.1-1.3 0-1.6.5-.3.5-.5 1-.5 1.9V0h-.9v-7H2l.2 1a2 2 0 0 1 1.1-.8c.3-.2.7-.3 1.2-.3Zm0 0"/>  <path id="B" d="M7.2-3.5c0 1.2-.3 2-1 2.7-.4.6-1.2 1-2.2 1a3.2 3.2 0 0 1-1.7-.6A3 3 0 0 1 1-1.5c0-.6-.3-1.2-.3-2 0-1.1.3-2 .9-2.7C2.2-6.8 3-7 4-7c.6 0 1 0 1.6.3a3 3 0 0 1 1.2 1.2c.2.6.4 1.2.4 2Zm-5.3 0c0 .8.1 1.5.5 2 .3.4.8.7 1.5.7s1.2-.3 1.6-.7c.3-.5.5-1.2.5-2s-.2-1.5-.5-2C5-5.8 4.6-6 3.9-6c-.7-.1-1.2 0-1.5.6-.4.4-.5 1-.5 1.9Zm0 0"/>  <path id="A" d="m2-9.3-.1 3.4h-.8L.8-9.3Zm0 0"/>  <path id="z" d="M3.6-7c.4 0 .8 0 1.2.1.4.2.7.5 1 .9L6-7h.9V.1c0 1-.3 1.9-.9 2.3-.4.5-1.2.6-2.2.6-1 .1-1.9 0-2.5-.3v-1c.6.3 1.5.4 2.5.4.6.1 1.2-.1 1.5-.5.2-.3.5-.8.5-1.4v-.7a4 4 0 0 1 0-.5c-.5.8-1.3 1-2.3 1-.9.1-1.5-.2-2-.9C1-1.3.7-2.2.7-3.4c0-1.1.3-2.1.8-2.6.5-.8 1.2-1.1 2-1.1Zm.1.8c-.6.1-1 .2-1.3.8-.4.4-.5 1-.5 2 0 .7.1 1.4.5 1.9.3.5.6.6 1.4.6S5-1 5.3-1.4c.3-.4.5-1 .5-1.8v-.3c0-1-.2-1.5-.5-2-.4-.5-.9-.6-1.6-.6Zm0 .1"/>  <path id="y" d="M4.4-7h.8L5-6h-.7c-.4 0-.7 0-1 .1-.3.3-.6.6-.8 1-.2.3-.3.7-.3 1.2V0h-.9v-7H2l.2 1.3c.2-.3.5-.7.9-1 .3-.3.8-.3 1.3-.3Zm0 0"/>  <path id="x" d="M3.8-7c.7 0 1.4 0 1.7.4.5.5.7 1.1.7 1.9V0h-.8l-.2-1-1.1 1H2.8c-.6.1-1.2 0-1.6-.4C.8-.7.6-1.2.6-1.9s.3-1.3.8-1.6C2-4 2.8-4.1 4-4.2h1.1v-.4c0-.6-.1-1-.3-1.2-.3-.2-.8-.4-1.2-.4l-.9.2-1.1.4-.2-.9A5.2 5.2 0 0 1 3.8-7ZM5-3.5h-.9c-.9.1-1.5.3-1.8.5-.4.3-.5.6-.5 1 0 .6.1.9.2 1l1.1.1c.5.1.9-.1 1.4-.4.5-.3.6-.7.6-1.5Zm.1.1"/>  <path id="w" d="M2.4 0H1.3v-9.3h5.2v1h-4V-5h3.6v1H2.4Zm0 0"/>  <path d="M1.2 0v-9.3h5.4V0ZM2-.7h3.9v-8H2Zm-.1 0"/>  <path id="v" d="M2 .1c-.4 0-.7 0-1-.3-.2-.2-.4-.5-.4-1L.7-2l.7-3.2h-1l.3-.4.9-.4.6-1.2h.7L2.5-6H4l-.2.8H2.4L1.7-2v.4l-.2.3.2.4c.1.2.3.2.5.2h.4L3-.8v.7l-.5.1-.5.1Zm0 0"/>  <use xlink:href="#u"/>  <path id="t" d="M-.3 2.6h-.4a4 4 0 0 1-.3 0v-1l.3.3h.4c.3-.1.5-.1.7-.3L1 .8l.4-.8-.9-6h1l.4 3.1v.6A34.2 34.2 0 0 1 2-.8l.4-.5a22.7 22.7 0 0 1 .5-1.4l1.7-3.2h1L2 1c-.4.5-.7 1-1 1.2-.2.3-.7.4-1.2.4Zm0 0"/>  <path id="s" d="m.3 0 1.8-8.4H3L1.2 0Zm0 0"/>  <path id="r" d="M1.9 0 1-7.9h1l.5 5V-1a40.2 40.2 0 0 1 1.1-2L6-7.9h1L3 0Zm0 0"/>  <use xlink:href="#q"/>  <path id="p" d="M2.3-6.9 2-7l-.2-.4c0-.2 0-.3.2-.5l.5-.1c.3 0 .5.1.5.4 0 .2-.1.4-.3.6.1.1-.2.1-.3.1Zm-3 9.5a2 2 0 0 1-.7 0v-1l.4.2h.3c.4 0 .7-.3.9-1L1.6-6h1L1 .8c0 .6-.2 1-.5 1.4-.3.3-.7.4-1.2.4Zm0 0"/>  <path id="o" d="M2.3-6.9 2-7l-.2-.4c0-.2 0-.3.2-.5l.5-.1c.3 0 .5.1.5.4l-.2.6c-.2.1-.3.1-.5.1ZM.3 0l1.3-5.9h1L1.2 0Zm0 0"/>  <path id="n" d="M2.1.1C1.7.1 1.3 0 1-.4.7-.7.5-1.2.5-1.9c0-.5 0-1.1.2-1.6.3-.4.3-.9.6-1.3a3 3 0 0 1 1-.9c.2-.2.7-.3 1-.3.5 0 .8.1 1.1.3l.5.7a40.6 40.6 0 0 1 .4-1.4l.3-2h1L4.8 0H4l.1-1-.9.7c-.3.3-.7.3-1 .3Zm.4-.8c.2 0 .4 0 .7-.3l.7-.7.5-1L4.6-4c0-.4-.1-.6-.3-.9-.2-.1-.3-.3-.8-.3-.3 0-.6.2-.8.3-.3.2-.5.4-.7.7A4 4 0 0 0 1.7-3l-.2 1.1c0 .9.3 1.2 1 1.2Zm0 0"/>  <path id="m" d="m.3 0 1.2-6h.9l-.1 1.3.5-.7.6-.4c.3-.2.6-.2.9-.2.4 0 .7 0 1 .4.4.2.6.6.6 1v.6l-.3.4L4.9 0h-1l.6-3.7.2-.4a2 2 0 0 0 0-.4c.1-.4-.2-.7-.7-.7l-.8.3-.8.8-.6 1.6L1.3 0Zm0 0"/>  <path id="l" d="m-.6 0 4.2-7.9h1L5.7 0H4.6l-.1-2.4H1.7L.5 0Zm2.8-3.3h2V-5A51.6 51.6 0 0 1 4-6.8a19.8 19.8 0 0 1-1 1.9Zm0 0"/>  <path id="k" d="M2.7.1C2 .1 1.5 0 1.2-.3.9-.6.7-1 .7-1.6a4 4 0 0 1 0-.4l.1-.6.7-3.4h1l-.6 2.7.6-.1h.7c.8-.1 1.2-.1 1.4.4.4.3.5.6.5 1-.1.6-.1.9-.3 1-.2.5-.4.7-.8.9-.4.1-.8.2-1.3.2Zm0-.8c.5 0 .9-.1 1-.3.3-.2.5-.5.5-.8-.1-.3-.1-.5-.2-.6-.3-.2-.6-.3-1.1-.3a7 7 0 0 0-1 .1l-.2.6v.3c-.1.3-.1.5.1.7.2.2.5.3.9.3Zm0 0"/>  <path id="j" d="m.3 0 1.3-5.9h.8l-.2 1c.3.1.5-.2.6-.3l.7-.6.7-.2c.4 0 .7.1 1 .3 0 .3.2.7.2 1a4 4 0 0 1 .8-.6l.6-.5.7-.2c.5 0 .9.1 1.1.4.4.2.4.6.4 1v.6l-.1.4L8 0h-.9L8-3.7v-.4a2 2 0 0 0 0-.4V-5l-.7-.2-.8.3c-.2.2-.5.4-.7.8-.2.4-.4.8-.5 1.4L4.7 0h-1l.8-3.7.1-.7c0-.3 0-.4-.2-.6L4-5.2l-1 .3c0 .1-.4.4-.6.8C2-3.7 2-3 1.8-2.5L1.3 0Zm0 0"/>  <path id="i" d="M0 0h-.5v-.8H0S.3-.8.5-1l.5-.7.5-1.4.5-1.2.5-1 .7-.4 1-.3H5l.6.3L4.4 0h-1l1.1-5-.2-.2h-.2c-.3.1-.5.1-.7.2-.2.2-.4.5-.5.8l-.6 1.5-.6 1.5-.7 1C.7 0 .4 0 0 0Zm0 0"/>  <path id="h" d="M2.6.1C2 .1 1.5 0 1.1-.5.7-1 .5-1.5.5-2.4A9 9 0 0 1 1-4.9L1.5-6a4 4 0 0 1 .8-1.1c.2-.5.6-.7 1-.8L4-8a19.9 19.9 0 0 1 2.3-.4v.8l-.6.1-1.1.2-.8.2c-.5.2-1 .5-1.2.9-.4.4-.6 1-.8 1.7l.8-.7 1.2-.3c.5 0 1 .2 1.2.5.3.4.4 1 .4 1.5l-.1 1.3L4.8-1c-.2.3-.5.6-.9.8-.3.2-.8.3-1.3.3Zm.1-.8c.4 0 .6 0 .8-.3.3 0 .5-.4.6-.7l.3-.8v-1c.1-.2.1-.6-.1-.8-.2-.3-.5-.4-.8-.4l-.8.2-.6.5-.5.5v1.2c-.1.3-.1.8.1 1.2.3.3.6.4 1.1.4Zm0 0"/>  <use id="g" xlink:href="#q"/>  <path id="f" d="M.2 0h-.4v-.8h.7l.5-.8a3 3 0 0 1 .3-.6l.7-.6c-.4.1-.6-.1-.8-.4C1-3.4.9-3.7.9-4c.1-.6.2-1 .6-1.4.5-.3 1-.5 1.8-.5h2.2L4.3 0h-1l.5-2.3h-.7c-.4 0-.6 0-.8.2l-.5.8-.4.7L1 0 .2.1ZM3-3h1l.4-2.1H3c-.3.1-.6.1-.8.3-.2.2-.3.4-.3.8 0 .3.1.5.3.7l.8.2Zm0-.1"/>  <use id="e" xlink:href="#u"/>  <path id="d" d="m.3 0 1.2-5.9h1L2-3l2.7-2.9h1.2l-3 3L5 0H3.8l-2-3-.4 3Zm0 0"/>  <path id="c" d="M2.7.1C2.1.1 1.5 0 1.1-.4.7-.8.5-1.4.5-2.1l.2-1.5c.3-.4.4-.9.7-1.2a3 3 0 0 1 1-.9c.2-.2.6-.3 1.1-.3h.9l.6.4-.2.6a4 4 0 0 0-.5-.1h-.7c-.4-.1-.8-.1-1 .2-.5.4-.6.9-.9 1.3-.1.4-.2 1-.2 1.5 0 .4.1.8.5 1.1 0 .2.4.3.9.3l.5-.1c.4 0 .6-.2.8-.3v.9l-.7.2a3 3 0 0 1-.8.1Zm0 0"/>  <path id="b" d="M2 .1c-.4 0-.8-.1-1-.4-.3-.2-.4-.6-.4-1v-.5l.1-.5.8-3.7h1l-.8 3.8v.4l-.2.4.2.4.7.3c.2 0 .4 0 .7-.3.2 0 .5-.4.7-.8.3-.4.4-.8.6-1.4L4.9-6H6L5-2.2v.7c0 .3 0 .5.2.6l.5.2c.3 0 .5 0 .8-.3.3 0 .5-.4.7-.8a5 5 0 0 0 .6-1.6l.5-2.5h1L8 0h-.7v-1a7 7 0 0 1-.3.4l-.8.5-.8.2c-.4 0-.7-.1-.9-.3-.2-.3-.4-.6-.4-1l-.6.6L3 0 2 .1Zm0 0"/>  <path id="a" d="M3.7.1C2.7.1 2-.2 1.5-.7 1-1.3.8-2 .8-2.9c0-.7 0-1.4.3-2.1a5 5 0 0 1 .7-1.5c.4-.4.8-.8 1.3-1 .5-.4.9-.5 1.7-.5.9 0 1.6.3 2 1 .5.4.8 1.2.8 2s0 1.4-.3 2.1a5 5 0 0 1-.7 1.4c-.3.6-.7.9-1.2 1.2-.5.3-1 .4-1.7.4Zm0-.9c.5 0 .9 0 1.3-.2.3-.3.6-.6.8-1l.5-1.3c.2-.5.2-1 .2-1.7 0-.6-.1-1.1-.5-1.5-.3-.5-.7-.6-1.3-.6l-1.2.3a3 3 0 0 0-.9 1L2-4.7 1.8-3c0 .7.2 1.3.5 1.7.4.3.8.5 1.4.5Zm0 0"/>  <path d="M1 0v-7.9h4.6V0Zm.6-.6H5v-6.7H1.6Zm0 0"/> </defs> <image xlink:href="svg/9/21_1.jpg" width="497" height="279"/> <path d="M391.7 211.4c-1 0-1.7-.3-2.2-.8-.5-.5-.7-1.3-.7-2.2 0-.7 0-1.4.2-2a5 5 0 0 1 .8-1.6c.4-.4.8-.8 1.3-1 .5-.4.9-.6 1.6-.6 1 .1 1.6.4 2.1 1 .5.5.8 1.3.8 2.2 0 .7-.1 1.4-.3 2a5 5 0 0 1-.7 1.5c-.4.5-.8.9-1.3 1.1-.3.3-1 .4-1.6.4zm0-.9c.4 0 .8 0 1.2-.3l.9-.9.5-1.3.2-1.6c0-.7-.2-1.2-.5-1.6-.3-.4-.8-.6-1.3-.6s-.9.1-1.2.3a3 3 0 0 0-1 1l-.5 1.1-.2 1.8c0 .6.2 1.2.5 1.6.3.4.8.5 1.4.5zm6.3.9c-.6 0-1-.1-1.2-.4-.2-.2-.3-.6-.3-1v-.5l.1-.5.8-3.6h1l-.8 3.7v.4l-.2.5.2.4.6.2c.3 0 .5 0 .8-.3.2-.1.5-.3.7-.8l.6-1.4.5-2.7h1l-.8 3.7v.7c-.1.3-.1.5.1.6l.5.2c.4 0 .5 0 .8-.2.3-.2.5-.5.6-.9a5 5 0 0 0 .7-1.5l.5-2.6h1l-1.2 6h-.8v-1.3a7 7 0 0 1-.4.7l-.8.4c0 .2-.4.2-.7.2-.3 0-.7-.1-.9-.3-.2-.3-.4-.6-.4-1.1l-.6.7-.6.5c-.3.2-.6.2-.9.2zm10.2 0c-.6 0-1.1-.2-1.6-.4-.4-.5-.5-1.1-.5-1.8-.1-.5-.1-1 .2-1.5.1-.4.3-.9.6-1.2a3 3 0 0 1 1-.9c.3-.2.8-.3 1.1-.3h1l.6.4-.3.7a4 4 0 0 0-.5-.2h-.8c-.3-.1-.6-.1-.9.2-.5.4-.7.8-.9 1.3-.1.3-.2 1-.2 1.5s.2.8.4 1c.2.3.5.4 1 .4h.6l.8-.5v1l-.8.2a3 3 0 0 1-.8.1zm2.6-.1 1.3-5.9h.9l-.7 2.8 2.9-2.8h1.2l-3 3 2.1 2.9h-1.2l-2-3-.4 3.1zm7.2.1c-.5 0-1-.1-1.2-.4-.3-.4-.4-.9-.4-1.6 0-.5 0-1 .2-1.6.1-.5.3-.8.6-1.3l.9-.9c.4-.2.7-.3 1.2-.3.4 0 .7.1 1 .3l.4.7.5-.9h.7l-1.3 6h-.6v-1.3a4 4 0 0 1-1 1c-.2.2-.5.3-1 .3zm.3-.8c.3 0 .5 0 .7-.3a3 3 0 0 0 .8-.8 5 5 0 0 0 .5-1.1l.1-.6v-.5c0-.4 0-.6-.3-.9-.1-.2-.4-.3-.7-.3-.4 0-.6.1-.8.3l-.7.6-.4 1.1-.1 1.4c0 .3 0 .6.2.9l.7.1zm4 .8h-.3v-1h.2l.4.1c.2-.2.4-.5.5-.8a3 3 0 0 1 .3-.7l.7-.4c-.4 0-.7-.2-.8-.5-.3-.1-.3-.5-.3-.8 0-.6.2-1 .6-1.4.4-.3 1-.5 1.8-.5h2.2l-1.2 6h-1l.6-2.4h-.8c-.4 0-.6 0-.8.2l-.4.8-.5.7c-.1.3-.3.4-.5.5l-.7.2zm2.8-3.2h1l.4-2h-1.3c-.4 0-.7.1-.9.3-.2.2-.3.5-.3.8 0 .3 0 .5.3.7l.8.2zm-36.8 16.6c-.7 0-1.2-.2-1.6-.6-.4-.4-.7-1-.7-1.7a5 5 0 0 1 .3-1.3l.5-1.3a3 3 0 0 1 1-.8c.2-.3.8-.4 1.2-.4.7 0 1.3.3 1.7.6.3.4.5 1 .5 1.7l-.1 1.3-.6 1.3a3 3 0 0 1-1 .9c-.2.2-.6.3-1.1.3zm0-.8c.4 0 .7-.1 1-.4.3-.2.5-.6.7-1 .2-.6.3-1 .3-1.7 0-.2 0-.4-.3-.7.1-.2 0-.2-.2-.5l-.8-.2c-.4 0-.7.2-1 .5l-.7 1c-.2.5-.2 1-.2 1.6-.1.4-.1.8.3 1 .2.3.5.4 1 .4zm6.1.8c-.7 0-1.2-.2-1.6-.6-.3-.4-.5-1-.5-1.9a9 9 0 0 1 .4-2.5l.5-1.1a4 4 0 0 1 .8-1.1c.3-.5.7-.6 1.1-.8l.6-.1a19.9 19.9 0 0 1 2.3-.4l.1.7-.8.2-1 .2-.7.2-1.3.9c-.3.4-.6 1-.7 1.7l.8-.7c.3-.2.6-.3 1.1-.3.6 0 1 .2 1.3.5.2.4.4.9.4 1.5 0 .4 0 .9-.2 1.3 0 .5-.2.8-.5 1.2l-.8.8c-.4.2-.8.3-1.3.3zm.1-.8c.3 0 .6 0 .8-.3.2-.1.4-.4.5-.7.2-.2.3-.5.3-.9l.1-.8c0-.4 0-.8-.2-1-.2-.2-.4-.3-.7-.3-.3 0-.5 0-.8.2l-.5.5-.6.5v.6l-.2.6c.1.4.1.8.3 1.2.2.3.5.4 1 .4zm3.2.8h-.2l-.2-.2v-.7h.3c.4.1.5.1.6-.2l.5-.7.5-1.4.5-1.2.5-1 .8-.4 1-.3h.7l.7.3-1.2 5.7h-1l1-5.1h-.2c-.4 0-.7 0-1 .2l-.4.7-.5 1.5-.6 1.5-.7 1c-.3.1-.6.2-1 .2zm8.2 0c-.5 0-.9-.2-1.2-.5-.3-.3-.4-.8-.4-1.5 0-.6 0-1 .2-1.6.1-.5.3-1 .5-1.2.3-.5.6-.8 1-1 .3-.2.7-.3 1.2-.3.3 0 .7.1.8.3l.6.7h.1l.4-.9h.7l-1.3 5.9h-.7l.1-1.1a4 4 0 0 1-1 .8c-.2.3-.5.4-.9.4zm.3-.8c.2 0 .5 0 .8-.3a3 3 0 0 0 .7-.7 5 5 0 0 0 .5-1.2v-.6l.2-.5c-.1-.4-.1-.7-.4-.9-.2-.2-.4-.3-.7-.3-.3 0-.6.1-.8.3l-.7.7-.4 1-.1 1.4c0 .3 0 .6.2.9l.7.2zm6.5.8c-.6 0-1.2-.2-1.6-.5-.4-.4-.6-1-.6-1.7 0-.5 0-1 .2-1.5l.6-1.1a3 3 0 0 1 1-1c.4-.2.8-.3 1.3-.3h.8l.6.3-.2.8a4 4 0 0 0-.5-.2h-.7c-.4-.1-.8-.1-1.1.2-.3.4-.6.8-.7 1.3-.2.4-.3.9-.3 1.5 0 .4.1.8.3 1 .3.4.6.4 1 .4h.7c.3-.1.5-.3.7-.4v.9l-.7.2a3 3 0 0 1-.8.1zm2.6-.1 1.2-5.9h.8v1l.4-.3.6-.6.9-.2c.4 0 .7.1.8.3l.5 1a4 4 0 0 1 .6-.6l.6-.5.9-.2c.4 0 .8.1 1 .4.4.2.4.6.4.9v.6l-.2.5-.8 3.6h-.9l.9-3.7v-.4a2 2 0 0 0 0-.4c0-.2 0-.4-.2-.5l-.5-.2c-.3 0-.5.1-.8.3-.3.2-.5.4-.7.8-.3.4-.4.8-.6 1.4l-.5 2.7h-1l.8-3.7v-1.3l-.7-.2c-.2 0-.4.1-.8.3-.2.1-.4.4-.7.8l-.5 1.5-.5 2.6zm12 .1c-.7 0-1.3-.1-1.5-.4-.3-.3-.5-.7-.5-1.3a4 4 0 0 1 0-.5v-.5l.9-3.3h.9l-.6 2.6.6-.1h.7c.7-.1 1.2-.1 1.4.3.3.4.5.7.5 1.1 0 .6-.1.9-.3 1.1-.2.4-.5.6-.8.8-.4.1-.8.2-1.3.2zm0-.8c.5 0 .9 0 1-.3.4-.2.5-.5.5-.8-.1-.3-.1-.5-.3-.6-.2-.3-.5-.3-1-.3a7 7 0 0 0-1 .1l-.2.6v.3c-.1.3-.1.5.1.7.2.3.5.3.9.3zm0 0" style="fill:none;stroke:#fff;stroke-width:3;stroke-linecap:butt;stroke-linejoin:round;stroke-miterlimit:10;stroke-opacity:.6" transform=" rotate(  340 408.588 215.003) "/> <g style="fill:#7d577d;fill-opacity:1" transform=" rotate(  340 408.588 215.003) ">  <use xlink:href="#a" x="388" y="211.3"/>  <use xlink:href="#b" x="395.9" y="211.3"/>  <use xlink:href="#c" x="405.5" y="211.3"/>  <use xlink:href="#d" x="410.5" y="211.3"/>  <use xlink:href="#e" x="415.9" y="211.3"/>  <use xlink:href="#f" x="422.1" y="211.3"/>  <use xlink:href="#g" x="385.6" y="224.7"/>  <use xlink:href="#h" x="391.8" y="224.7"/>  <use xlink:href="#i" x="397.8" y="224.7"/>  <use xlink:href="#e" x="403.7" y="224.7"/>  <use xlink:href="#c" x="410" y="224.7"/>  <use xlink:href="#j" x="415" y="224.7"/>  <use xlink:href="#k" x="424.6" y="224.7"/> </g> <path d="m184.1 63.7 4.3-7.7h1l1 7.7h-1l-.3-2.4h-2.6l-1.3 2.4zm2.9-3.3h2v-1.6a51.7 51.7 0 0 1-.3-1.9 19.8 19.8 0 0 1-.9 2.1zm4.2 3.3 1.3-5.9h.8v1l.3-.4.8-.4.8-.3c.5 0 .9.1 1.1.4.3.2.4.6.4.9v1.3l-1 3.4h-.9l.8-3.7v-.4a2 2 0 0 0 .2-.3c-.1-.5-.4-.7-.9-.7-.2 0-.5 0-.7.2-.3.2-.6.5-.8.9-.4.3-.5.8-.6 1.5l-.6 2.5zm8.2.1c-.4 0-.8-.1-1.1-.5-.3-.3-.5-.8-.5-1.5l.2-1.5.6-1.3a3 3 0 0 1 1-1c.2-.1.6-.2 1-.2.5-.1.8 0 1.1.2l.5.7a40.6 40.6 0 0 1 .4-1.4l.4-2h1l-2 8.5h-.7l.1-1.1-.9.7c-.3.3-.7.4-1 .4zm.4-.8c.2 0 .5 0 .7-.2l.7-.8.5-1 .2-1.3c.1-.3.1-.6-.3-.7-.1-.3-.4-.5-.8-.5-.3 0-.6.1-.8.3l-.6.8a4 4 0 0 0-.4 1l-.2 1.4c0 .6.3 1 1 1zm6.2-6.1s-.3 0-.4-.2l-.1-.4c0-.1 0-.3.2-.3 0-.3.2-.4.5-.4s.5.2.5.5-.1.4-.3.6l-.4.2zm-2 6.8 1.2-5.9h1l-1.2 6zm4.8-6.8c-.1 0-.2 0-.3-.2l-.2-.4c0-.1 0-.3.2-.3.1-.3.3-.4.5-.4.3 0 .5.2.5.5l-.2.6-.5.2zm-3 9.5a2 2 0 0 1-.7-.1v-.9l.3.1h.4c.4.1.7-.2.9-.9l1.3-6.8h1l-1.5 6.8c0 .4-.2 1-.5 1.3-.2.3-.6.5-1.2.5zm6.2-2.6c-.5 0-1-.2-1.4-.6-.6-.4-.7-1-.7-1.6a5 5 0 0 1 .1-1.4l.6-1.2a3 3 0 0 1 1-1c.2 0 .6-.2 1.1-.2.8 0 1.4.2 1.8.6.3.4.5 1 .5 1.6 0 .5 0 1-.2 1.4 0 .4-.3.8-.5 1.2a3 3 0 0 1-1 .9c-.3.2-.6.3-1.1.3zm.2-.8c.3 0 .6 0 .9-.3l.7-1.1c.2-.6.2-1 .2-1.7v-.6l-.6-.5c0-.2-.3-.2-.6-.2-.4 0-.7.1-1 .4l-.8 1c-.1.6-.1 1-.1 1.7 0 .3 0 .7.3.9.2.4.5.4 1 .4zm3.6.7 1.3-5.9h.8v1l.3-.4.8-.4.8-.3c.5 0 .9.1 1.2.4.2.2.3.6.3.9v1.3l-1 3.4h-.9l.8-3.7v-.4a2 2 0 0 0 .2-.3c-.1-.5-.3-.7-.8-.7-.3 0-.6 0-.8.2-.3.2-.6.5-.8.9-.3.3-.5.8-.6 1.5l-.6 2.5zm-28.4 13.4-.8-7.8h1l.4 5v.7l.2 1a40.2 40.2 0 0 1 .8-1.8l2.5-5h1.1l-4.2 8.1zm6.6-6.9-.4-.1-.2-.4c0-.2 0-.3.2-.5l.5-.2c.3 0 .5.2.5.5 0 .2 0 .5-.2.6l-.4.1zm-2 7 1.1-6.1h1.1l-1.4 6.1zm2.8-.1 1.6-8.3h1.1l-1.8 8.2zm5.2.1c-.7 0-1.2-.2-1.6-.6-.4-.4-.6-1-.6-1.7a5 5 0 0 1 .2-1.3c.1-.6.3-.9.6-1.2a3 3 0 0 1 .9-1c.4 0 .8-.2 1.3-.2.7-.1 1.2.1 1.6.6.4.4.6 1 .6 1.6l-.2 1.4-.6 1.2a3 3 0 0 1-.9.9c-.3.1-.8.3-1.3.3zm0-.8c.5 0 .8-.1 1-.4.3-.2.5-.6.7-1 .3-.5.3-1 .3-1.7l-.1-.6-.4-.7h-.7c-.4 0-.8.1-1 .4-.5.2-.7.6-.8 1l-.2 1.6c0 .4.1.8.2 1 .3.3.7.4 1.1.4zm3 3.4h-.4a4 4 0 0 1-.4-.3V79h.8c.2 0 .5 0 .7-.2l.6-.9.4-.7-.9-6h1l.2 3 .2.6a34.3 34.3 0 0 1 .1 1.5l.2-.5a22.7 22.7 0 0 1 .7-1.3l1.7-3.3h1l-3.7 6.9c-.3.5-.6 1-1 1.2-.2.3-.7.5-1.2.5zm7.5-2.6c-.4 0-.8-.1-1.1-.5-.4-.3-.5-.7-.5-1.5l.2-1.6.6-1.3 1-.9c.3-.2.7-.3 1.1-.3.4 0 .7.1 1 .3l.5.7.5-.9h.6l-1.2 6h-.8l.2-1.2a4 4 0 0 1-1.1 1c-.2 0-.5.2-.9.2zm.3-.8c.3 0 .6 0 .8-.3a3 3 0 0 0 .7-.8 5 5 0 0 0 .5-1.1l.2-.6v-.5c0-.3 0-.6-.2-.8-.3-.3-.6-.4-.9-.4-.3.1-.5.1-.8.3l-.6.7-.5 1.1-.1 1.3c.1.3.1.7.3.9l.6.1zm5.9.8c-.4 0-.8 0-1-.2-.3-.3-.4-.6-.4-1v-.8l.7-3.2h-.9l.1-.5 1-.4.8-1.2h.5l-.3 1.3h1.4l-.1.8H217l-.7 3.2v1.1l.6.1h.3l.4-.1v.7l-.4.2h-.5zm3.9-7-.3-.1-.3-.4c.1-.2.1-.3.3-.5l.5-.2c.2 0 .5.2.5.5l-.3.6-.4.1zm-2 7 1.4-6.1h.9l-1.4 6.1zm0-.1" style="fill:none;stroke:#fff;stroke-width:3;stroke-linecap:butt;stroke-linejoin:round;stroke-miterlimit:10;stroke-opacity:.6" transform=" rotate(  340 204.103 67.4216) "/> <g style="fill:#7d577d;fill-opacity:1" transform=" rotate(  340 204.103 67.4216) ">  <use xlink:href="#l" x="184.8" y="63.7"/>  <use xlink:href="#m" x="190.9" y="63.7"/>  <use xlink:href="#n" x="197.3" y="63.7"/>  <use xlink:href="#o" x="203.7" y="63.7"/>  <use xlink:href="#p" x="206.5" y="63.7"/>  <use xlink:href="#q" x="209.4" y="63.7"/>  <use xlink:href="#m" x="215.6" y="63.7"/>  <use xlink:href="#r" x="185.5" y="77.1"/>  <use xlink:href="#o" x="191.6" y="77.1"/>  <use xlink:href="#s" x="194.5" y="77.1"/>  <use xlink:href="#q" x="197.3" y="77.1"/>  <use xlink:href="#t" x="203.3" y="77.1"/>  <use xlink:href="#u" x="208.4" y="77.1"/>  <use xlink:href="#v" x="214.6" y="77.1"/>  <use xlink:href="#o" x="218.3" y="77.1"/> </g> <path d="M77.6 162.7h-1.2v-9.3h5.2v1h-4v3.3h3.8v1h-3.8Zm8.1-7.1c.8 0 1.3.2 1.8.6.5.3.6 1 .6 1.7v4.8h-.8l-.2-1-1.1.9-1.3.2c-.6 0-1.2-.1-1.6-.5-.4-.3-.6-.8-.6-1.5s.3-1.3.8-1.8c.7-.2 1.4-.4 2.5-.5H87v-.5c0-.5 0-1-.3-1.1-.3-.2-.7-.4-1.1-.4-.4 0-.7 0-1 .2l-1.1.4-.2-.9a5.2 5.2 0 0 1 2.4-.6zm1.3 3.7h-1c-1 0-1.5.2-1.8.4-.4.3-.5.6-.5 1 0 .6.1.8.3 1.1h1c.5.1 1-.1 1.4-.4.4-.3.6-.8.6-1.4zm6.6-3.7h.8l-.2 1.2h-.7c-.5-.2-.7-.2-1 0-.3.3-.6.6-.8 1-.2.2-.3.7-.3 1.2v3.7h-1.1v-7h1v1.3h.2c.1-.4.5-.7.8-1 .3-.3.7-.4 1.3-.4zm4.4 0c.5 0 1 0 1.2.3.4.1.8.4 1 .7l.3-.9h.9v7.1c-.1 1-.4 1.8-.9 2.3-.5.5-1.2.7-2.3.7-1 0-1.9-.1-2.5-.4v-1c.7.2 1.5.4 2.6.4.6.1 1-.1 1.4-.5.3-.3.5-.8.5-1.3v-.8a4 4 0 0 1 0-.4c-.5.7-1.2 1-2.2 1-.9 0-1.6-.3-2-1-.6-.5-.8-1.3-.8-2.5 0-1.1.2-2.1.7-2.7.5-.7 1.2-1 2.1-1zm.2 1c-.6 0-1 .2-1.4.7-.3.4-.5 1-.5 2 0 .7.2 1.4.5 1.9.2.4.8.6 1.4.6.7.1 1.2-.1 1.5-.5.3-.3.5-1 .5-1.8v-.3c0-1-.2-1.6-.5-2-.3-.4-.8-.6-1.5-.6zm6.3-3.2-.3 3.4h-.7l-.2-3.4zm7.2 5.8c0 1.2-.3 2-.7 2.7-.7.6-1.5 1-2.5 1a3.2 3.2 0 0 1-1.7-.6 3 3 0 0 1-1.1-1.1c-.3-.6-.4-1.2-.4-2 0-1.1.3-2 .9-2.7.5-.5 1.3-.9 2.3-.9.7 0 1.2.1 1.7.4a3 3 0 0 1 1.1 1.2c.3.6.4 1.2.4 2zm-5.2 0c0 .8.1 1.5.4 2 .4.4.9.7 1.6.7.7 0 1.2-.3 1.6-.7.3-.5.5-1.2.5-2s-.2-1.5-.6-2c-.3-.3-.8-.5-1.5-.5-.7-.1-1.2.1-1.6.6-.3.4-.4 1-.4 1.9zm10.4-3.6c.8 0 1.5.2 1.9.6.4.4.6 1 .6 2v4.5h-1.1v-4.5c0-1-.5-1.6-1.6-1.6-.7 0-1.3.2-1.6.6-.3.4-.4 1-.4 1.9v3.6h-1.2v-7h1l.1 1h.1a2 2 0 0 1 1-.8c.3-.2.7-.3 1.1-.3zm7.3 0c.9 0 1.5.2 1.9.6.4.3.6 1 .6 1.7v4.8h-.7l-.3-1-1.1.9-1.4.2c-.6 0-1.2-.1-1.5-.5-.4-.3-.7-.8-.7-1.5s.3-1.3.9-1.8c.5-.2 1.4-.4 2.5-.5h1.2v-.5c0-.5-.1-1-.4-1.1-.2-.2-.6-.4-1-.4s-.9 0-1.1.2l-1 .4-.3-.9a5.2 5.2 0 0 1 2.4-.6zm1.4 3.7h-1c-1 0-1.6.2-1.8.4-.4.3-.5.6-.5 1 0 .6 0 .8.3 1.1h1c.4.1.9-.1 1.4-.4.4-.3.6-.8.6-1.4zm0 0" style="fill:none;stroke:#fff;stroke-width:3;stroke-linecap:butt;stroke-linejoin:round;stroke-miterlimit:10;stroke-opacity:.6" transform="rotate(  340 95.3355 133.363) translate(-5.8516082,-26.332237)"/> <g style="fill:#212121;fill-opacity:1" transform=" rotate(  340 95.3355 133.363) ">  <use xlink:href="#w" x="69.3" y="136.4"/>  <use xlink:href="#x" x="76" y="136.4"/>  <use xlink:href="#y" x="83.3" y="136.4"/>  <use xlink:href="#z" x="88.6" y="136.4"/>  <use xlink:href="#A" x="96.6" y="136.4"/>  <use xlink:href="#B" x="98.7" y="136.4"/>  <use xlink:href="#C" x="106.6" y="136.4"/>  <use xlink:href="#x" x="114.6" y="136.4"/> </g> <path d="M301 116.5c0 .7-.3 1.4-.5 2-.2.5-.6.8-1 1.1-.5.4-1.1.6-1.9.6-.6 0-1.3-.2-1.8-.5a2.7 2.7 0 0 1-1-1.3 4.9 4.9 0 0 1-.6-2c.1-.6.3-1.2.5-1.7.3-.7.6-1.1 1.1-1.4.5-.3 1.1-.5 1.9-.5.7 0 1.3.2 1.8.5.4.3.8.7 1 1.2.4.6.5 1.2.5 2zm-5.8 0c.1.9.3 1.5.7 2.1.3.5 1 .8 1.7.8.9 0 1.5-.4 1.8-.8.4-.5.6-1.2.6-2.1 0-1-.2-1.6-.6-2.1-.3-.5-1-.8-1.7-.8-.9 0-1.5.4-1.8.8-.4.5-.6 1.2-.6 2zm14.5-1.8v5.4h-7.3v-5.4h.9v4.6h2.3v-4.6h.9v4.6h2.3v-4.6zm0 0" style="fill:none;stroke:#fff;stroke-width:3;stroke-linecap:butt;stroke-linejoin:round;stroke-miterlimit:10;stroke-opacity:.6" transform=" rotate(  340 301.546 117.06) "/> <g style="fill:#212121;fill-opacity:1" transform=" rotate(  340 301.546 117.06) ">  <use xlink:href="#D" x="293.7" y="120.1"/>  <use xlink:href="#E" x="301.5" y="120.1"/> </g> <path d="m70.3 137.4-2.3-6.2v6.2h-.7v-7.1h1.2l2.2 5.7 2.3-5.7h1.3v7.1h-1V133l.2-1v-.8l-2.5 6.2zm7.8-5.4c.7 0 1.2 0 1.5.4.3.3.4.7.4 1.4v3.6h-.6l-.2-.7-.7.6-1 .2c-.7 0-1.1-.1-1.4-.4-.2-.1-.4-.6-.4-1.1 0-.6.3-1 .6-1.3.5-.3 1.1-.4 2-.5h.9v-.3c0-.5-.2-.9-.3-1l-.9-.1h-.7l-.7.3-.3-.7.8-.3 1-.1zm1 2.8h-.6c-.8 0-1.2.2-1.5.4-.2.1-.4.4-.4.7 0 .3.1.6.4.7l.6.2c.5 0 .8-.1 1.1-.4.3-.2.5-.6.5-1.1zm5.1-2.8h.6v.8h-.7c-.2 0-.5 0-.7.2l-.6.6-.2 1v2.8h-.9v-5.3h.7l.1.9.8-.7c.2-.2.5-.3.9-.3zm3.4 0c.4 0 .7 0 1 .2a2 2 0 0 1 .7.6l.3-.8h.6v5.5c0 .8-.2 1.5-.6 1.7-.4.4-1 .6-1.8.6s-1.4 0-2-.3v-.8c.7.3 1.4.3 2.1.3.4.1.8 0 1.1-.3.2-.3.3-.7.3-1.1v-.9c-.3.6-.9.8-1.6.8-.7 0-1.3-.2-1.7-.7-.4-.5-.6-1.2-.6-2 0-.9.2-1.6.6-2 .4-.7 1-.8 1.6-.8zm.2.7c-.5 0-.8.3-1 .5-.4.4-.6 1-.6 1.6.1.6.3 1.1.5 1.5.3.3.6.5 1 .5.7 0 1.1-.1 1.3-.4.2-.4.3-.8.3-1.4v-.2c0-.8 0-1.3-.3-1.6-.3-.3-.7-.5-1.2-.5zm4.5-2.7.4.3.2.3-.2.4-.4.2c-.1 0-.2 0-.3-.2l-.2-.4c0-.2 0-.3.2-.4l.3-.2zm.5 2v5.5h-1v-5.4zm2.6 5.4h-1v-7.6h1.1zm6.3-2.7c0 1-.2 1.6-.7 2.1-.4.5-1 .7-1.8.7-.5 0-.9 0-1.2-.3-.4-.2-.7-.5-.9-1-.2-.3-.3-.8-.3-1.4 0-.8.2-1.6.5-2.1.7-.5 1.1-.7 1.9-.7.6 0 1.1 0 1.3.3.5.2.7.5.9 1 .2.2.3.7.3 1.3zm-4 0c0 .7 0 1.3.3 1.6.3.3.7.5 1.2.5.6 0 1-.2 1.2-.5.3-.4.4-1 .4-1.6 0-.6-.1-1-.4-1.4-.2-.4-.6-.6-1.2-.6-.5 0-1 .3-1.2.6-.2.3-.3.7-.3 1.4zm8-2.7c.6 0 1.1 0 1.3.4.5.3.6.8.6 1.6v3.4h-.8V134c0-1-.4-1.3-1.2-1.3-.6 0-1 .3-1.3.5-.2.3-.3.8-.3 1.4v2.8h-1v-5.3h.8l.2.7c.3-.3.5-.5.8-.6.2-.2.5-.2.9-.2zm0 0" style="fill:none;stroke:#fff;stroke-width:3;stroke-linecap:butt;stroke-linejoin:round;stroke-miterlimit:10;stroke-opacity:.6" transform="rotate(  340 41.1047 149.892) translate(-47.64881,15.464965)"/> <g style="fill:#212121;fill-opacity:1" transform=" rotate(  340 41.1047 149.892) ">  <use xlink:href="#F" x="18.5" y="152.9"/>  <use xlink:href="#G" x="27.6" y="152.9"/>  <use xlink:href="#H" x="33.2" y="152.9"/>  <use xlink:href="#I" x="37.2" y="152.9"/>  <use xlink:href="#J" x="43.4" y="152.9"/>  <use xlink:href="#K" x="46" y="152.9"/>  <use xlink:href="#L" x="48.6" y="152.9"/>  <use xlink:href="#M" x="54.6" y="152.9"/> </g> <path d="M326.3 3.5V10h1v2.5h-1v-1.8h-4.7v1.8h-1V10h.6l.7-1.5a14.7 14.7 0 0 0 1-3.3l.1-1.7zm-.8.8h-1.7c0 .4 0 .9-.2 1.4a18.6 18.6 0 0 1-.9 3l-.6 1.1h3.4zm9.3 1L332.5 8l2.5 2.7h-1L331.6 8v2.7h-.8V8l-2.3 2.7h-1l2.4-2.8-2.2-2.6h1l2 2.7V5.3h.9V8l2.2-2.7zm3-.1c.7 0 1.2.2 1.5.5.3.2.5.7.5 1.3v3.7h-.8v-.8l-.9.7-.9.2c-.7 0-1.1-.2-1.4-.4-.2-.4-.4-.7-.4-1.2 0-.6.2-1 .7-1.2.4-.3.9-.5 1.9-.5h1V7c0-.3-.3-.6-.5-.8-.1-.2-.3-.3-.7-.3-.3.1-.5.1-.8.2l-.7.2-.3-.6c.3-.1.5-.3.8-.3l1-.2zM339 8h-.9c-.7.2-1.1.3-1.4.5-.2.1-.4.5-.4.7 0 .3.1.5.3.7l.7.1c.5 0 .9-.1 1.2-.3.3-.3.4-.7.4-1.2zm6.5 2.7h-.9V6H343c0 1.2-.2 2-.3 2.8l-.7 1.5c-.2.3-.5.4-1 .4h-.4V10h.4c.3 0 .6-.3.8-1 .2-1 .4-2 .5-3.8h3.2zm3.7-5.5c.8 0 1.2.2 1.5.5.3.2.5.7.5 1.3v3.7h-.7l-.2-.8-.7.7-1 .2c-.6 0-1.1-.2-1.4-.4-.2-.4-.4-.7-.4-1.2 0-.6.2-1 .6-1.2.6-.3 1.1-.5 2-.5h.9V7c0-.3-.1-.6-.3-.8-.2-.2-.5-.3-.8-.3-.3.1-.6.1-.8.2l-.7.2-.3-.6c.2-.1.6-.3.8-.3l1-.2zm1.1 2.8h-.8c-.7.2-1.1.3-1.4.5-.1.1-.4.5-.4.7 0 .3.1.5.3.7l.7.1c.5 0 .8-.1 1.1-.3.3-.3.5-.7.5-1.2zm6.7 2.7h-1V6h-1.6c0 1.2-.2 2-.3 2.8l-.6 1.5c-.3.3-.6.4-1 .4h-.5V10h.3c.4 0 .7-.3.9-1 .2-1 .4-2 .5-3.8h3.2zm1.2-2.3v-.8h2.4v.8Zm-23.9 14.7-.8-2.1h-2.9l-.8 2.1h-1l3-7.1h.7l2.7 7.1zm-1.1-3-.8-2.2-.1-.2-.3-.5V17l-.1.5a8 8 0 0 1-.2.4l-.7 2.2zm2.6-.2c0-1.2.2-2.1.6-2.9.3-.5.9-.9 1.6-1l1.3-.3 1.2-.2.1.7-.6.2a31.4 31.4 0 0 0-1.8.3c-.4 0-.7.3-1 .6-.2.4-.4 1-.4 1.7l.5-.4.5-.3a2 2 0 0 1 .8-.3c.7.1 1.2.4 1.6.8.3.4.5 1 .5 1.7 0 .6 0 1.1-.3 1.5-.2.4-.5.7-.9 1l-1.2.1c-.8.1-1.4-.1-1.8-.7-.5-.6-.7-1.4-.7-2.5zm2.5 2.6c.5 0 .8-.2 1-.5.4-.2.6-.7.6-1.4-.1-.5-.2-1-.4-1.3-.2-.3-.6-.5-1-.5-.3 0-.6.2-.8.3-.3-.1-.5.2-.7.4l-.3.4V21l.3.7.5.6.8.2zm5.8-4.8c.7 0 1.2.1 1.5.3.3.4.4.8.4 1.5V23h-.6l-.2-.7c-.2.4-.5.7-.8.7l-1 .2c-.5 0-.9-.1-1.2-.4-.3-.2-.5-.6-.5-1.2 0-.5.2-1 .6-1.2.5-.4 1.1-.5 2-.5h.9v-.3c0-.6-.2-.8-.3-1l-.9-.2-.7.1c-.3 0-.5.2-.7.3l-.3-.8.7-.2 1.1-.1zm1 2.8h-.6c-.8 0-1.2.2-1.5.3-.3.2-.4.5-.4.8 0 .4.1.6.4.7l.6.2c.4 0 .8-.1 1.1-.4.3-.1.5-.6.5-1.1zm6.6-2.7v4.6h.8V25h-.9v-2H348v2h-1v-2.6h.5a6.9 6.9 0 0 0 1-2.2 9.6 9.6 0 0 0 .5-2.4zm-.9.6h-1.1c0 .6-.2 1-.3 1.4 0 .5-.2 1-.4 1.4l-.6 1.2h2.4zm0 0" style="fill:none;stroke:#fff;stroke-width:3;stroke-linecap:butt;stroke-linejoin:round;stroke-miterlimit:10;stroke-opacity:.6" transform="rotate(  340 333.476 31.8642) translate(-8.3594403,17.972797)"/> <g style="fill:#212121;fill-opacity:1" transform=" rotate(  340 333.476 31.8642) ">  <use xlink:href="#N" x="312.2" y="28.6"/>  <use xlink:href="#O" x="319.1" y="28.6"/>  <use xlink:href="#P" x="326.6" y="28.6"/>  <use xlink:href="#Q" x="332.2" y="28.6"/>  <use xlink:href="#P" x="338" y="28.6"/>  <use xlink:href="#Q" x="343.6" y="28.6"/>  <use xlink:href="#R" x="349.4" y="28.6"/>  <use xlink:href="#S" x="320.5" y="41.1"/>  <use xlink:href="#T" x="326.9" y="41.1"/>  <use xlink:href="#P" x="332.9" y="41.1"/>  <use xlink:href="#U" x="338.5" y="41.1"/> </g></svg>