<svg xmlns="http://www.w3.org/2000/svg" xmlns:xlink="http://www.w3.org/1999/xlink" viewBox="0 0 497 279"> <defs overflow="visible" style="stroke:none">  <path id="n" d="M2.3-5.5c.6 0 1 .2 1.4.5.4.1.6.5.6 1s-.1.6-.3.8c-.2.2-.4.3-.7.3a2 2 0 0 1 .5.4l.5.5.2.5c0 .5-.2.8-.6 1.1-.4.4-1 .5-1.7.5l-1-.1a3 3 0 0 1-1-.3V-1a4 4 0 0 0 2 .4c.4 0 .7 0 1-.2.2-.2.4-.4.4-.7 0-.6-.6-1-1.6-1h-.7v-.6H2l1-.2c.3-.2.4-.4.4-.7 0-.2 0-.4-.3-.5-.1-.2-.5-.2-.9-.2a3 3 0 0 0-.8 0l-.7.4L.4-5a4.8 4.8 0 0 1 1.9-.5Zm0 0"/>  <path id="m" d="M3.4-5.5c.7 0 1.2.3 1.6.7.4.5.6 1.2.6 2.1 0 1-.2 1.7-.6 2-.4.7-1 .9-1.6.9-.4-.2-.8-.2-1-.3l-.7-.6v3.1H.8v-7.8h.8v.8h.2c.2-.4.3-.5.6-.6.2-.2.6-.3 1-.3Zm-.2.8c-.5 0-.9.1-1.1.5-.2.2-.4.7-.4 1.2v.3c0 .7.1 1.2.3 1.5.3.4.7.6 1.3.6.3 0 .6-.1.7-.4l.5-.6.2-1.1c0-.6-.1-1.1-.4-1.5-.2-.3-.6-.5-1-.5Zm0 0"/>  <path id="l" d="M2.9-5.5c.6 0 1.1.2 1.4.5.3.3.5.7.5 1.3V0h-.6L4-.8c-.3.3-.5.6-.8.8h-1c-.5 0-1 0-1.3-.3C.6-.5.5-.9.5-1.5c0-.5.2-1 .5-1.2.5-.3 1-.5 2-.5h.8v-.3c.2-.5.2-.8-.2-1l-.8-.2H2l-.7.5L1-5l1-.3.9-.2Zm1 2.9h-.8c-.6 0-1 .1-1.4.3-.1.3-.3.5-.3.8 0 .3 0 .5.2.7l.7.2c.5 0 .9-.1 1.2-.4.3-.2.4-.6.4-1Zm.1 0"/>  <path id="k" d="M3.2 0h-.9v-6.3H.1v-.8h5.4v.8H3.2Zm0 0"/>  <path d="M1 0v-7.1h4V0Zm.4-.5h3.1v-6.1h-3Zm.1 0"/>  <path id="j" d="M2.7.1C2 .1 1.5 0 1.2-.3.9-.6.7-1 .7-1.6a4 4 0 0 1 0-.4l.1-.6.7-3.4h1l-.6 2.7.6-.1h.7c.8-.1 1.2-.1 1.4.4.4.3.5.6.5 1-.1.6-.1.9-.3 1-.2.5-.4.7-.8.9-.4.1-.8.2-1.3.2Zm0-.8c.5 0 .9-.1 1-.3.3-.2.5-.5.5-.8-.1-.3-.1-.5-.2-.6-.3-.2-.6-.3-1.1-.3a7 7 0 0 0-1 .1l-.2.6v.3c-.1.3-.1.5.1.7.2.2.5.3.9.3Zm0 0"/>  <path id="i" d="m.3 0 1.3-5.9h.8l-.2 1c.3.1.5-.2.6-.3l.7-.6.7-.2c.4 0 .7.1 1 .3 0 .3.2.7.2 1a4 4 0 0 1 .8-.6l.6-.5.7-.2c.5 0 .9.1 1.1.4.4.2.4.6.4 1v.6l-.1.4L8 0h-.9L8-3.7v-.4a2 2 0 0 0 0-.4V-5l-.7-.2-.8.3c-.2.2-.5.4-.7.8-.2.4-.4.8-.5 1.4L4.7 0h-1l.8-3.7.1-.7c0-.3 0-.4-.2-.6L4-5.2l-1 .3c0 .1-.4.4-.6.8C2-3.7 2-3 1.8-2.5L1.3 0Zm0 0"/>  <path id="h" d="M2.6.1C2 .1 1.5 0 1.1-.5.7-1 .5-1.5.5-2.4A9 9 0 0 1 1-4.9L1.5-6a4 4 0 0 1 .8-1.1c.2-.5.6-.7 1-.8L4-8a19.9 19.9 0 0 1 2.3-.4v.8l-.6.1-1.1.2-.8.2c-.5.2-1 .5-1.2.9-.4.4-.6 1-.8 1.7l.8-.7 1.2-.3c.5 0 1 .2 1.2.5.3.4.4 1 .4 1.5l-.1 1.3L4.8-1c-.2.3-.5.6-.9.8-.3.2-.8.3-1.3.3Zm.1-.8c.4 0 .6 0 .8-.3.3 0 .5-.4.6-.7l.3-.8v-1c.1-.2.1-.6-.1-.8-.2-.3-.5-.4-.8-.4l-.8.2-.6.5-.5.5v1.2c-.1.3-.1.8.1 1.2.3.3.6.4 1.1.4Zm0 0"/>  <path id="g" d="M2.7 0C2 0 1.5 0 1.1-.4.7-1 .5-1.5.5-2.2a5 5 0 0 1 .2-1.3c.1-.5.3-.9.6-1.3a3 3 0 0 1 .9-.7C2.6-6 3-6 3.5-6c.7 0 1.2.2 1.5.6.5.4.7 1 .7 1.7 0 .4 0 .9-.2 1.3-.1.5-.3.9-.6 1.4a3 3 0 0 1-.9.8c-.4.2-.8.2-1.3.2Zm0-.6c.5-.1.9-.2 1.1-.5.2-.2.5-.6.6-.9.2-.6.3-1.1.3-1.8l-.1-.7-.4-.5-.7-.2c-.5 0-.8.2-1 .5-.5.2-.7.5-.9.9L1.5-2c0 .3.1.7.3.9.3.3.6.4 1 .4Zm.1-.1"/>  <path id="f" d="M.2 0h-.4v-.8h.7l.5-.8a3 3 0 0 1 .3-.6l.7-.6c-.4.1-.6-.1-.8-.4C1-3.4.9-3.7.9-4c.1-.6.2-1 .6-1.4.5-.3 1-.5 1.8-.5h2.2L4.3 0h-1l.5-2.3h-.7c-.4 0-.6 0-.8.2l-.5.8-.4.7L1 0 .2.1ZM3-3h1l.4-2.1H3c-.3.1-.6.1-.8.3-.2.2-.3.4-.3.8 0 .3.1.5.3.7l.8.2Zm0-.1"/>  <path id="e" d="m.3 0 1.2-5.9h1L2-3l2.7-2.9h1.2l-3 3L5 0H3.8l-2-3-.4 3Zm0 0"/>  <path id="d" d="M2.7.1C2.1.1 1.5 0 1.1-.4.7-.8.5-1.4.5-2.1l.2-1.5c.3-.4.4-.9.7-1.2a3 3 0 0 1 1-.9c.2-.2.6-.3 1.1-.3h.9l.6.4-.2.6a4 4 0 0 0-.5-.1h-.7c-.4-.1-.8-.1-1 .2-.5.4-.6.9-.9 1.3-.1.4-.2 1-.2 1.5 0 .4.1.8.5 1.1 0 .2.4.3.9.3l.5-.1c.4 0 .6-.2.8-.3v.9l-.7.2a3 3 0 0 1-.8.1Zm0 0"/>  <path id="c" d="M0 0h-.5v-.8H0S.3-.8.5-1l.5-.7.5-1.4.5-1.2.5-1 .7-.4 1-.3H5l.6.3L4.4 0h-1l1.1-5-.2-.2h-.2c-.3.1-.5.1-.7.2-.2.2-.4.5-.5.8l-.6 1.5-.6 1.5-.7 1C.7 0 .4 0 0 0Zm0 0"/>  <path id="b" d="M2.1.1C1.7.1 1.3 0 1-.4.7-.7.5-1.2.5-1.9l.2-1.6.6-1.3c.3-.4.7-.7 1-.9.2-.2.7-.3 1.1-.3.4 0 .7.1 1 .3l.5.7.5-.9H6L4.8 0H4l.2-1a4 4 0 0 1-1.1.7c-.1.3-.6.3-.9.3Zm.3-.8c.3 0 .6 0 .8-.3a3 3 0 0 0 .8-.8 5 5 0 0 0 .4-1.1l.1-.6V-4c.1-.4.1-.6-.1-1-.4 0-.6-.2-.9-.2-.3 0-.5.2-.8.3l-.6.7-.4 1-.2 1.4c0 .3 0 .6.3.9l.6.1Zm0 0"/>  <path id="a" d="M1.7 0 3-7H1l.2-.9h5.3l-.2 1H4.1L2.7 0Zm0 0"/>  <path d="M1 0v-7.9h4.6V0Zm.6-.6H5v-6.7H1.6Zm0 0"/> </defs> <image xlink:href="svg/9/21_3.jpg" width="497" height="279"/> <path d="m147.1 165.7 1.5-7h-2.2l.2-.7h5.4l-.3.7h-2.1l-1.6 7Zm5.9.1c-.3 0-.7-.1-1-.5-.5-.3-.6-.8-.6-1.5.1-.5.1-1 .3-1.6.1-.5.3-.9.6-1.2l.9-1c.4-.2.7-.3 1.2-.3.4 0 .6.1 1 .3l.4.7.5-.9h.7l-1.3 6h-.7v-1.3a4 4 0 0 1-1 1c0 .2-.4.3-.8.3Zm.5-.8c.2 0 .4 0 .7-.3a3 3 0 0 0 .7-.7 5 5 0 0 0 .5-1.2l.1-.6v-.5c0-.3 0-.6-.3-.8-.2-.3-.4-.4-.7-.4-.3 0-.6.1-.8.3l-.7.7-.4 1-.1 1.4c0 .3 0 .6.2.9l.7.2ZM157.2 165.8h-.5v-1.1l.4.3c.2 0 .4 0 .6-.3.2-.1.3-.4.5-.7l.5-1.4.5-1.2.5-1 .7-.4 1-.2h.9l.5.1-1.2 5.8h-1l1.1-5-.2-.2h-.2c-.3.1-.5.1-.7.3-.2.1-.4.4-.6.7l-.5 1.5-.5 1.5-.8 1c-.2.2-.6.3-1 .3Zm8.1 0c-.5 0-.8-.1-1.1-.5-.3-.3-.5-.8-.5-1.5 0-.5 0-1 .3-1.6l.5-1.2 1-1c.2-.2.6-.3 1-.3.5 0 .8.1 1.1.3l.4.7.6-.9h.6l-1.2 6h-.8l.2-1.3a4 4 0 0 1-1.1 1c-.2.2-.6.3-.9.3Zm.3-.8c.4 0 .6 0 .8-.3a3 3 0 0 0 .7-.7 5 5 0 0 0 .5-1.2l.1-.6v-.5c.1-.3.1-.6-.1-.8-.3-.3-.6-.4-.9-.4-.3 0-.5.1-.8.3l-.6.7-.5 1-.1 1.4c0 .3 0 .6.2.9l.7.2Zm6.6.8c-.7 0-1.2-.2-1.6-.5-.4-.4-.6-1-.6-1.7 0-.5 0-1 .2-1.5.1-.4.3-.9.6-1.1a3 3 0 0 1 1-1c.2-.2.8-.3 1.2-.3h.8l.7.3-.3.8a4 4 0 0 0-.5-.2h-.6c-.5-.1-.8-.1-1.2.2-.3.4-.5.8-.7 1.3-.2.4-.2.9-.2 1.5s.1.8.3 1c.2.4.5.4 1 .4h.7l.7-.5v1l-.7.2a3 3 0 0 1-.8.1Zm4.9 0c-.6 0-1.1-.2-1.6-.5-.4-.4-.5-1-.5-1.7l.2-1.5c.1-.4.3-.9.6-1.1a3 3 0 0 1 1-1c.2-.2.7-.3 1.2-.3h.8l.7.3-.3.8a4 4 0 0 0-.5-.2h-.7c-.4-.1-.8-.1-1 .2-.5.4-.7.8-.9 1.3-.1.4-.2.9-.2 1.5s.1.8.4 1c.2.4.5.4 1 .4h.7l.7-.5v1l-.7.2a3 3 0 0 1-1 .1Zm2.6-.1 1.3-5.9h1l-.7 2.8 2.8-2.8h1.2l-3 3 2.1 2.9h-1.2l-2-3-.4 3.1Zm7.2.1c-.5 0-.9-.1-1.2-.5-.3-.3-.4-.8-.4-1.5 0-.5 0-1 .2-1.6.1-.5.3-.9.5-1.2l1-1c.3-.2.7-.3 1.2-.3.4 0 .7.1 1 .3l.4.7.5-.9h.7l-1.3 6h-.7l.1-1.3a4 4 0 0 1-1 1c-.2.2-.5.3-.9.3Zm.3-.8c.3 0 .5 0 .8-.3a3 3 0 0 0 .7-.7 5 5 0 0 0 .5-1.2v-.6l.2-.5c-.1-.3-.1-.6-.4-.8-.2-.3-.4-.4-.7-.4-.3 0-.6.1-.8.3l-.7.7-.4 1-.1 1.4c0 .3 0 .6.2.9l.7.2Zm4 .8h-.4v-1h.2l.5.1c.2-.2.3-.5.5-.9a3 3 0 0 1 .3-.5l.7-.5c-.4 0-.7-.2-.8-.5-.2-.2-.3-.5-.3-.8.1-.7.2-1 .6-1.3.5-.4 1-.6 1.8-.6h2.2l-1.2 6h-1l.5-2.5h-.7c-.4.1-.6.1-.8.3l-.5.8-.4.7c-.1.3-.3.4-.4.5l-.8.2Zm2.8-3.2h1l.4-2H194c-.3 0-.6.1-.8.4-.2.1-.3.4-.3.7 0 .3.1.6.3.7l.8.2Zm-42.5 16.6c-.7 0-1.2-.2-1.6-.6-.4-.4-.6-1-.6-1.7a5 5 0 0 1 .2-1.3l.5-1.3a3 3 0 0 1 1-.8c.2-.3.6-.5 1.1-.5.9.1 1.4.3 1.7.7.4.4.6 1 .6 1.7 0 .4 0 .9-.2 1.3 0 .5-.2.9-.5 1.3a3 3 0 0 1-1 .9c-.2.1-.7.3-1.1.3Zm0-.8c.5 0 .7-.1 1-.4.3-.2.5-.6.7-1 .2-.5.2-1 .2-1.7v-.7l-.6-.5-.6-.1c-.4 0-.7.1-1 .3l-.7 1.1c-.2.6-.2 1-.2 1.6 0 .4 0 .8.3 1 .2.3.4.4 1 .4Zm6.1.8c-.7 0-1.2-.2-1.6-.6-.3-.4-.5-1-.5-1.9a9 9 0 0 1 .4-2.5l.5-1.2a4 4 0 0 1 .8-1c.3-.5.7-.7 1-.8l.8-.2a19.9 19.9 0 0 1 2.2-.3l.1.8-.8.1-1 .2-.8.2c-.5.2-.9.5-1.2 1-.3.3-.5.9-.8 1.6l1-.6c.2-.3.6-.4 1-.4.6 0 1 .2 1.3.5.3.4.4.9.4 1.5 0 .4 0 .9-.2 1.3 0 .4-.2.8-.5 1.2l-.7.8c-.5.2-1 .3-1.4.3Zm0-.8c.4 0 .8 0 1-.3.1-.1.3-.4.4-.7.2-.2.3-.4.3-.8l.1-1c0-.2 0-.6-.2-.8-.2-.3-.4-.4-.7-.4l-.8.2-.7.5-.4.5-.1.6v.6c0 .4 0 .8.2 1.2.3.3.5.4 1 .4Zm3.4.8h-.5V178.3h.3c.3 0 .5 0 .6-.2l.6-.7.4-1.4.6-1.2.4-1 .7-.4 1.1-.3h.8l.6.3-1.3 5.7h-1l1.3-5.1h-.6c-.3 0-.5 0-.7.2-.2.1-.3.4-.5.7l-.5 1.5-.7 1.5c-.1.4-.4.7-.6 1-.3.1-.7.2-1 .2Zm8 0c-.3 0-.7-.2-1-.5-.4-.3-.5-.7-.5-1.5 0-.6 0-1 .2-1.6.1-.5.3-1 .6-1.3.2-.3.5-.7.9-.9.3-.2.7-.3 1.1-.3.4 0 .7.1 1 .3l.5.7.5-.9h.7l-1.3 5.9h-.7V178a4 4 0 0 1-1 .8c-.1.3-.4.4-.8.4Zm.5-.8c.1 0 .4 0 .7-.3a3 3 0 0 0 .7-.8 5 5 0 0 0 .5-1.1v-.6l.2-.6c-.1-.3-.2-.5-.4-.8-.2-.2-.4-.2-.8-.2l-.8.2-.6.7-.4 1.1-.2 1.3c0 .3.1.7.3.9l.7.1Zm6.4.8c-.7 0-1.2-.2-1.6-.5-.4-.4-.6-1-.6-1.7 0-.5 0-1 .3-1.5l.5-1.2a3 3 0 0 1 1-.9c.4-.2.8-.3 1.3-.3h.8l.7.4-.3.7a4 4 0 0 0-.6-.2h-.6c-.4 0-.8 0-1.1.2-.3.4-.7.8-.7 1.3-.2.4-.3 1-.3 1.5 0 .4.1.8.3 1 .3.3.6.4 1 .4l.7-.1.7-.3v1h-.7a3 3 0 0 1-.7.2Zm2.6-.1 1.2-5.9h.8l-.1 1c.2.1.3-.2.6-.3l.5-.6.8-.3c.4.1.8.2 1 .4l.4 1a4 4 0 0 1 .5-.6l.8-.5.7-.3c.5.1.8.2 1.1.5.2.2.4.5.4 1v.5l-.2.5-.7 3.6h-1l.8-3.7v-.4a2 2 0 0 0 .2-.4c-.1-.2-.1-.4-.3-.5l-.5-.1c-.3 0-.5 0-.8.2l-.8.8c-.2.4-.4.8-.5 1.4l-.4 2.7h-1.1l.8-3.7V174h-.7l-.7.2c-.3.1-.5.4-.8.8l-.5 1.6-.6 2.4Zm11.9.1c-.6 0-1-.1-1.4-.4-.4-.3-.5-.7-.5-1.3a4 4 0 0 1 0-.5v-.5l.9-3.3h.9l-.6 2.6.6-.1h.7c.7-.1 1.1-.1 1.4.3.3.4.6.7.6 1-.1.7-.2 1-.4 1.2-.2.4-.6.6-.8.8-.4.1-.8.2-1.4.2Zm.1-.8c.5 0 .9-.1 1-.3.4-.2.5-.5.5-.8-.1-.3-.2-.5-.4-.6-.1-.2-.4-.3-.8-.3a7 7 0 0 0-1.3.1v1.6c.3.2.6.3 1.1.3Zm0 0" style="fill:none;stroke-width:3;stroke-linecap:butt;stroke-linejoin:round;stroke:#fff;stroke-opacity:.6;stroke-miterlimit:10" transform=" rotate(  340 171.17 169.404) "/> <g style="fill:#7f577e;fill-opacity:1" transform=" rotate(  340 171.17 169.404) ">  <use xlink:href="#a" x="145.4" y="165.7"/>  <use xlink:href="#b" x="151" y="165.7"/>  <use xlink:href="#c" x="157.2" y="165.7"/>  <use xlink:href="#b" x="163.2" y="165.7"/>  <use xlink:href="#d" x="169.4" y="165.7"/>  <use xlink:href="#d" x="174.4" y="165.7"/>  <use xlink:href="#e" x="179.4" y="165.7"/>  <use xlink:href="#b" x="184.7" y="165.7"/>  <use xlink:href="#f" x="191" y="165.7"/>  <use xlink:href="#g" x="148.8" y="179.1"/>  <use xlink:href="#h" x="154.9" y="179.1"/>  <use xlink:href="#c" x="160.9" y="179.1"/>  <use xlink:href="#b" x="166.9" y="179.1"/>  <use xlink:href="#d" x="173.2" y="179.1"/>  <use xlink:href="#i" x="178.2" y="179.1"/>  <use xlink:href="#j" x="187.8" y="179.1"/> </g> <path d="M8.9 49.2h-1V43H5.8v-1h5.3v.9H8.9Zm4.4-5.4c.6 0 1.1.1 1.4.4.3.3.5.7.5 1.4v3.6h-.7l-.1-.7c-.4.3-.6.5-.9.5l-.9.3c-.6 0-1.1-.1-1.4-.3-.2-.3-.4-.7-.4-1.3 0-.5.3-1 .7-1.2.4-.3 1-.5 2-.5h.7v-.3c.1-.5.1-.8-.2-1l-.8-.2-.8.1-.7.4-.3-.8.9-.2 1-.2Zm1 2.8h-.8c-.5 0-1.1.2-1.4.4-.1 0-.3.4-.3.7 0 .3 0 .6.2.7l.7.2c.5 0 .9-.1 1.3-.4.2-.2.3-.6.3-1.1Zm5.1-2.8c.7 0 1.2.2 1.6.7.4.4.6 1.1.6 2 0 1-.2 1.6-.6 2.1-.4.5-1 .7-1.6.7-.4 0-.8 0-1-.2l-.7-.6v3.1h-.9V44h.8v.6h.2l.6-.6c.2-.2.6-.2 1-.2Zm-.2.7c-.5 0-.9.2-1.1.5-.2.3-.4.7-.4 1.4v.1c0 .7.1 1.2.3 1.6.3.3.7.5 1.3.5.3 0 .6 0 .7-.3l.5-.7.2-1c0-.8-.1-1.3-.4-1.6-.2-.3-.6-.5-1-.5Zm5.8-.7c.7 0 1.2.1 1.5.4.3.3.4.7.4 1.4v3.6h-.6l-.2-.7-.7.5-1 .3c-.7 0-1.1-.1-1.4-.3-.2-.3-.4-.7-.4-1.3 0-.5.2-1 .6-1.2.5-.3 1.1-.5 2-.5h.8v-.3c0-.5 0-.8-.2-1l-.8-.2-.8.1-.7.4-.3-.8.8-.2 1-.2Zm1 2.8h-.6c-.8 0-1.2.2-1.5.4-.2 0-.4.4-.4.7 0 .3.1.6.3.7l.7.2c.5 0 .8-.1 1.1-.4.4-.2.5-.6.5-1.1Zm4-2.8c.6 0 1.1 0 1.5.2.3.4.5.7.5 1.1s0 .8-.2.9l-.8.4a2 2 0 0 1 .6.3c.2 0 .4.2.4.3.2.2.2.5.2.7 0 .5-.2.9-.5 1.3-.4.2-1 .3-1.8.3H29a3 3 0 0 1-1-.3v-.8a4 4 0 0 0 1.9.4c.4 0 .7 0 1.1-.2.2-.1.3-.4.3-.7 0-.7-.5-1-1.5-1h-.7v-.5h.6c.3-.2.8-.2 1-.3.5-.1.6-.3.6-.6s-.2-.5-.4-.7l-1-.1a3 3 0 0 0-.6 0l-.8.4-.3-.8a4.8 4.8 0 0 1 1.8-.3Zm0 0" style="fill:none;stroke-width:3;stroke-linecap:butt;stroke-linejoin:round;stroke:#fff;stroke-opacity:.6;stroke-miterlimit:10" transform=" rotate(  340 19.0754 46.2182) "/> <g style="fill:#222;fill-opacity:1" transform=" rotate(  340 19.0754 46.2182) ">  <use xlink:href="#k" x="5.6" y="49.2"/>  <use xlink:href="#l" x="10.4" y="49.2"/>  <use xlink:href="#m" x="16" y="49.2"/>  <use xlink:href="#l" x="22.2" y="49.2"/>  <use xlink:href="#n" x="27.8" y="49.2"/> </g></svg>