<svg xmlns="http://www.w3.org/2000/svg" xmlns:xlink="http://www.w3.org/1999/xlink" viewBox="0 0 497 279"> <defs overflow="visible" style="stroke:none">  <path id="h" d="m.3 0 1.1-5.4h.9l-.6 2.6 2.5-2.6h1.1L2.7-2.7 4.5 0h-1L1.6-2.7 1.2 0Zm0 0"/>  <path id="g" d="m-.2 2.4 1.6-7.8h.7v1l.7-.6c.3-.3.7-.5 1-.5.5 0 .8.2 1 .5.5.3.6.8.6 1.4-.1.5-.1 1-.3 1.4L4.6-1l-.8.8a2 2 0 0 1-1.1.3C2.3 0 2 0 1.8-.2a2 2 0 0 1-.5-.6v.4L1 .1.7 2.4Zm2.8-3c.4 0 .5-.1.7-.4.3 0 .5-.3.7-.6a4 4 0 0 0 .3-1 5 5 0 0 0 .1-.9c0-.9-.3-1.2-.9-1.2-.2 0-.4 0-.5.2l-.8.7-.4 1c-.2.3-.2.7-.2 1.1 0 .3 0 .6.2.8.2.2.5.3.8.3Zm0 0"/>  <path id="f" d="m.3 0 1.1-5.4h.7v1l.4-.5.6-.4.7-.2c.4 0 .7.2.9.5.2 0 .3.4.3.7l.5-.5.6-.5.9-.2c.3 0 .6.2.9.5.1 0 .2.4.2.9v.4l-.1.4L7.4 0h-.9l.7-3.4v-.4l.2-.2c-.1-.3-.1-.4-.3-.5 0-.2-.1-.2-.5-.2-.2 0-.4 0-.6.2l-.7.8c-.3.3-.4.7-.5 1.3L4.3 0h-1l.9-3.4v-1.1c-.4-.2-.5-.2-.8-.2-.1 0-.3 0-.6.2l-.6.8c-.3.3-.4.7-.5 1.4L1.2 0Zm0 0"/>  <path id="e" d="M2.5 0C1.9 0 1.4 0 1-.4.7-.8.5-1.3.5-2l.1-1.2a4 4 0 0 1 .5-1.1c.3-.3.5-.7.9-.8.3-.2.7-.3 1.2-.3.6 0 1 .2 1.4.4.4.5.6 1.1.6 1.6L5-2a4 4 0 0 1-.5.9c-.2.5-.5.8-.8 1L2.5 0Zm0-.6c.5-.1.6-.1 1-.4.1-.2.3-.5.5-1 .2-.3.3-.8.3-1.4L4.2-4a1 1 0 0 0-.4-.5l-.6-.2c-.4 0-.7.1-1 .4-.2.2-.5.6-.6 1A4 4 0 0 0 1.4-2c0 .5 0 .8.3 1 .2.2.5.3.8.3Zm0-.1"/>  <path id="d" d="M-.3 2.4h-.3l-.4-.1v-.7h.7c.3.1.5.1.7-.1.2-.2.4-.5.5-.8l.4-.6-.8-5.5h.9l.3 2.7v.7l.2.7v.6A28.4 28.4 0 0 1 2.5-2c-.1 0 .1-.3.2-.4l1.5-3h1L1.7 1c-.1.4-.4.8-.7 1-.4.3-.8.4-1.2.4Zm0 0"/>  <path id="c" d="M2.3 0c-.7 0-1 0-1.4-.3-.3-.5-.4-1-.4-1.5L.6-3l.5-1c.2-.5.5-.7.9-.9a2 2 0 0 1 .9-.2c.6 0 .9 0 1.1.1l.4.7v-.3c0-.8-.1-1.4-.3-1.8C3.9-6.8 3.5-7 3-7h-.5l-.5.4-.2-.9.6-.1.8-.1c.7 0 1.2.3 1.6.8.2.5.5 1.3.5 2.3l-.1 1.2c0 .5-.2 1-.4 1.4a5 5 0 0 1-.5 1 3 3 0 0 1-1 .8c-.1.2-.5.3-.9.3Zm0-.5c.4-.1.7-.3 1-.5l.5-1a6 6 0 0 0 .5-1.3 2 2 0 0 0-.5-.8c-.2-.2-.4-.4-.8-.4-.3 0-.5.2-.8.5-.2.1-.5.4-.6 1-.2.1-.2.6-.2 1 0 .5 0 .8.2 1.1.1 0 .4.2.7.2Zm0-.1"/>  <path id="b" d="M2 0c-.6 0-.9 0-1.2-.3C.6-.7.5-1 .5-1.7c0-.5 0-1 .2-1.5l.5-1.1c.2-.4.5-.7.8-.9a2 2 0 0 1 1.1-.3c.4 0 .6.1.9.3l.5.7.3-.9h.7L4.4 0h-.7l.1-1c-.3.3-.5.6-.9.8-.3.2-.6.2-.9.2Zm.1-.5c.4-.1.6-.2.9-.5l.6-.6a4 4 0 0 0 .4-1 3 3 0 0 0 .1-.7 4 4 0 0 0 0-.4c.1-.3.1-.5-.1-.7-.3-.2-.5-.3-.8-.3-.3 0-.5 0-.7.2a2 2 0 0 0-.6.7l-.4 1-.1 1.1c0 .4 0 .6.2.8.1.2.3.3.6.3Zm.1-.1"/>  <path id="a" d="M.4 0 2-7.1h1l-.9 3h3.2l.7-3h.8L5.3 0h-.8l.7-3.3H2L1.3 0Zm0 0"/>  <path d="M1 0v-7.1h4V0Zm.4-.5h3.1v-6.1h-3Zm.1 0"/> </defs> <image xlink:href="svg/9/26_47.jpg" width="497" height="279"/> <path d="m37 257 1.3-7h1l-.6 3h3.1l.6-3h1l-1.7 7H41l.6-3.2h-3l-.9 3.3zm8.2.2c-.4 0-.7-.2-1-.5-.3-.3-.4-.7-.4-1.4 0-.5 0-1 .2-1.3l.5-1.3.8-.7a2 2 0 0 1 1.1-.4c.4 0 .6.1.9.4l.4.5h.1l.3-.8h.7l-1.1 5.4h-.8l.2-1.1-1 .8c-.1.3-.5.4-.9.4zm.3-.8c.3 0 .5 0 .7-.2l.8-.8a4 4 0 0 0 .3-1 3 3 0 0 0 .1-.4 4 4 0 0 0 0-.6c0-.3 0-.6-.2-.8-.2-.2-.4-.3-.7-.3-.3 0-.5.1-.7.3a2 2 0 0 0-.6.7l-.4 1-.1.9c0 .6 0 .8.2 1.1.1.1.3.1.6.1zm5.7.8c-.6 0-1-.2-1.2-.6-.4-.3-.5-.8-.5-1.4l.1-1.1.5-1.1.8-.8a2 2 0 0 1 1-.2c.4 0 .7 0 1.1.2l.2.6v-.3c.2-.8.2-1.4 0-1.8-.4-.4-.7-.7-1.2-.7h-.6l-.4.4-.2-.7.6-.2.8-.1c.7 0 1.2.2 1.6.8.2.5.5 1.2.5 2.2l-.1 1.3-.4 1.3a5 5 0 0 1-.6 1 3 3 0 0 1-.8.9l-1.2.3zm.1-.8.9-.3c.2-.3.5-.6.6-1.1a6 6 0 0 0 .4-1.2 2 2 0 0 0-.4-.9c-.2-.2-.5-.3-.8-.3-.3 0-.6.1-.8.4-.3.2-.5.5-.6 1-.2.2-.3.6-.3 1.1 0 .5.1.7.3 1 .1.2.4.3.7.3zm3.1 3.1H54l-.3-.2v-.6h.6c.3.1.5.1.7-.1l.6-.8.3-.8-.8-5.3h.9l.3 2.7.1.6v1.3h.2a28.3 28.3 0 0 1 .4-1l.3-.8 1.5-2.8h1l-3.4 6.3-.9 1c-.3.3-.5.5-1.1.5zm7.2-2.3c-.6 0-1-.2-1.4-.6-.2-.3-.4-.8-.4-1.4l.1-1.1.5-1.1.8-.8a2 2 0 0 1 1-.2c.6 0 .8 0 1.1.2l.4.6v-.3c0-.8-.1-1.4-.3-1.8-.2-.4-.6-.7-1-.7h-.6l-.5.4-.2-.7.6-.2.8-.1c.7 0 1.2.2 1.5.8.4.5.6 1.2.6 2.2l-.1 1.3c0 .4-.2.9-.5 1.3a5 5 0 0 1-.4 1 3 3 0 0 1-.9.9c-.3.1-.7.3-1.1.3zm0-.8c.4 0 .7-.1 1-.3l.5-1.1a6 6 0 0 0 .5-1.2 2 2 0 0 0-.6-.9c0-.2-.3-.3-.6-.3-.4 0-.6.1-.9.4l-.5 1-.3 1.1c0 .5 0 .7.2 1 .1.2.4.3.7.3zm5.8.7c-.6 0-1-.1-1.4-.5-.4-.4-.6-.9-.6-1.5l.2-1.2a4 4 0 0 1 .5-1.1c.2-.4.5-.6.9-.9l1.1-.3c.6 0 1.1.2 1.5.6.3.4.4.8.4 1.5.1.4.1.8 0 1.3a4 4 0 0 1-.6 1c-.2.4-.4.6-.8.8-.3.2-.6.3-1.2.3zm.1-.7.9-.3.6-1.1c.2-.3.2-.8.2-1.4v-.6a1 1 0 0 0-.5-.4c-.1-.2-.3-.2-.7-.2-.2 0-.5 0-.9.3l-.4 1a4 4 0 0 0-.4 1.4c0 .4.1.9.3 1 .2.2.5.3.9.3zm3.4.6 1.1-5.2h.7v.9l.3-.5.7-.4.7-.2c.4 0 .7.1.8.4.2.1.4.4.4.8l.5-.6.6-.4.8-.2c.4 0 .7.1 1 .4.1.2.2.5.2 1v.3l-.1.5-.6 3.3h-1l.9-3.4v-.4l.1-.3c0-.2 0-.3-.3-.5 0 0-.2-.2-.5-.2l-.7.3-.5.7c-.4.4-.5.8-.6 1.3l-.5 2.5h-1l.9-3.4v-1.2l-.8-.2-.6.3-.7.7-.4 1.5-.5 2.2zm8.1 2.5h-.2l-.4-.2v-.6h.6c.3.1.5.1.7-.1l.6-.8.3-.8-.8-5.3h.9l.3 2.7.1.6v1.3h.2a28.3 28.3 0 0 1 .4-1l.3-.8 1.5-2.8h1l-3.4 6.3-.9 1c-.2.3-.6.5-1.1.5zm4.8 0 1.6-7.8h.8l-.2 1 1-.7c.2-.3.5-.4.9-.4s.7.2 1 .5c.3.3.4.7.4 1.3 0 .6 0 1-.2 1.4l-.5 1.3-.8.8a2 2 0 0 1-1.1.3c-.4 0-.6-.2-.9-.3a2 2 0 0 1-.5-.6v.4l-.2.5-.4 2.3zm2.8-3c.4-.1.5-.2.8-.4l.5-.6a4 4 0 0 0 .4-1 5 5 0 0 0 .1-1c0-.9-.3-1.3-.8-1.3-.3.1-.6.2-.7.4l-.7.7-.4 1-.2.9c0 .6 0 .8.4 1 0 .1.3.2.6.2zm3.4.5 1.3-5.2h.8l-.6 2.5 2.5-2.6h1.1l-2.6 2.7 1.8 2.6h-1l-1.9-2.6-.4 2.6zm4.4 2.5H94l-.3-.2v-.6h.7c.2.1.5.1.6-.1l.6-.8.4-.8-1-5.3h1.1l.2 2.7v1.4l.3.5a28.3 28.3 0 0 1 .4-1l.3-.8 1.7-2.8h.9l-3.6 6.3-.7 1c-.3.3-.7.5-1.2.5zm0 0" style="fill:none;stroke:#fff;stroke-width:2;stroke-linecap:butt;stroke-linejoin:round;stroke-miterlimit:10;stroke-opacity:.6" transform="rotate(  340 57.7471 231.012) translate(-11.230932,-23.052966)"/> <g style="fill:#4c7fb3;fill-opacity:1" transform=" rotate(  340 57.7471 231.012) ">  <use xlink:href="#a" x="25.3" y="234"/>  <use xlink:href="#b" x="32.1" y="234"/>  <use xlink:href="#c" x="37.7" y="234"/>  <use xlink:href="#d" x="43.4" y="234"/>  <use xlink:href="#c" x="48.1" y="234"/>  <use xlink:href="#e" x="53.7" y="234"/>  <use xlink:href="#f" x="59.4" y="234"/>  <use xlink:href="#d" x="68.1" y="234"/>  <use xlink:href="#g" x="72.8" y="234"/>  <use xlink:href="#h" x="78.6" y="234"/>  <use xlink:href="#d" x="83.4" y="234"/> </g></svg>