<svg xmlns="http://www.w3.org/2000/svg" xmlns:xlink="http://www.w3.org/1999/xlink" viewBox="0 0 497 279"> <defs overflow="visible" style="stroke:none">  <path id="D" d="M2.4-.5 2-1l1.4-1.6-.8-1.9.6-.2 1.1 2.2v.1ZM.6-.5 0-1l1.5-1.7-.8-1.8.6-.2 1 2v.1Zm0-.1"/>  <path id="C" d="M2.4 0c-.6 0-1 0-1.4-.4C.6-.9.5-1.5.5-2.2a7.4 7.4 0 0 1 .3-2.2l.5-1.2.7-1L3-7l.6-.3A34 34 0 0 1 5-7.5h.7l.1.5h-.7L4-6.5c0-.1-.3-.1-.5.1-.5.1-.9.4-1.1.8-.4.4-.7.9-.9 1.5a3 3 0 0 1 1-.6c.2-.2.5-.3.9-.3.6 0 1 .2 1.2.5.2.3.4.8.4 1.3L4.8-2c-.1.4-.2.8-.5 1-.2.5-.3.7-.7.9-.4.1-.7.2-1.2.2Zm0-.5c.5-.1.6-.2.9-.5a2 2 0 0 0 .4-.5l.3-.8v-.8c0-.4 0-.7-.2-.9-.1-.2-.3-.3-.6-.3l-.7.3-.6.4a4 4 0 0 0-.4.4v.6l-.2.5c.1.4.1.8.3 1 .2.4.5.6.9.6Zm.1-.1"/>  <path id="B" d="m.3 0 1.1-5.4h.7v1l.4-.5.6-.4.7-.2c.4 0 .7.2.9.5.2 0 .3.4.3.7l.5-.5.6-.5.9-.2c.3 0 .6.2.9.5.1 0 .2.4.2.9v.4l-.1.4L7.4 0h-.9l.7-3.4v-.4l.2-.2c-.1-.3-.1-.4-.3-.5 0-.2-.1-.2-.5-.2-.2 0-.4 0-.6.2l-.7.8c-.3.3-.4.7-.5 1.3L4.3 0h-1l.9-3.4v-1.1c-.4-.2-.5-.2-.8-.2-.1 0-.3 0-.6.2l-.6.8c-.3.3-.4.7-.5 1.4L1.2 0Zm0 0"/>  <path id="A" d="M3.3 0c-.8 0-1.5 0-2-.5C1-1.1.8-1.8.8-2.6.7-3.1.7-3.5 1-4c-.1-.4 0-.8.3-1.2l.8-1L3-7l1.7-.2c.5 0 1.1.1 1.6.4l-.3.7a4 4 0 0 0-.7-.2l-.7-.2c-.6 0-1 .2-1.3.5-.4 0-.7.4-1 .8A4 4 0 0 0 1.9-4l-.2 1.3c0 .7.1 1.1.3 1.5.4.3 1 .5 1.4.5h.8L5-1v.8l-.8.2a5 5 0 0 1-1 0Zm0 0"/>  <path id="z" d="M2.4 0c-.6 0-1 0-1.4-.3C.6-.8.5-1.3.5-2c0-.3 0-.8.2-1.2 0-.4.3-.8.5-1.1.2-.4.5-.7.8-.8a2 2 0 0 1 1.2-.4c.5 0 .8.2 1.1.5.3 0 .4.4.4.8 0 .3-.1.7-.3 1-.4.2-.6.4-1 .6-.6.2-1.2.3-1.9.3h-.1v.3c0 .5 0 .8.3 1 .2.3.5.4.9.4l.7-.1A5 5 0 0 0 4-1v.7a6 6 0 0 1-.7.3h-.9Zm-.9-3 1.3-.1.7-.4c.2-.1.3-.4.3-.5l-.1-.6-.7-.1c-.2 0-.5.1-.9.4L1.6-3Zm0 0"/>  <path id="y" d="M.2 0h-.4v-.7H0l.5-.1.4-.7c0-.2.1-.4.3-.5l.6-.4c-.3-.1-.6-.3-.8-.6a1.4 1.4 0 0 1-.2-.7c0-.3.2-.9.6-1.2.3-.3.9-.5 1.6-.5h2L4 0H3l.5-2.1h-.7c-.3 0-.5 0-.7.1l-.4.8-.4.7-.4.4-.7.2Zm2.5-2.8h1L4-4.6H2.8c-.3 0-.6 0-.8.3-.2.1-.3.3-.3.6s.1.7.3.7h.7Zm0-.1"/>  <path id="x" d="M2.5 0C1.9 0 1.4 0 1-.3.7-.7.5-1.2.5-2c0-.4 0-1 .2-1.3l.5-1c.3-.5.6-.7 1-1 .2-.1.6-.2.9-.2l.9.1.6.2-.2.7-.5-.1-.6-.1c-.4 0-.7.1-1 .4-.3.2-.5.6-.7 1A4 4 0 0 0 1.4-2c0 .5 0 .8.3 1 .2.2.5.3.9.3h.6a7 7 0 0 0 .6-.3v.8l-.6.2h-.7Zm0 0"/>  <path id="w" d="M.4 0 2-7.1h1L2-3.7 5.4-7h1.1L3-3.6 5.2 0h-1L2-3.5 1.3 0Zm0 0"/>  <path id="v" d="m1.5-.5-1-2.2v-.1l1.7-1.9.6.4-1.5 1.6.9 1.9Zm2 0-1.2-2v-.2l1.9-2 .5.4-1.4 1.8L4-.8Zm-.1 0"/>  <path id="u" d="m.3 0 1.1-5.4h.9l-.6 2.6 2.5-2.6h1.1L2.7-2.7 4.5 0h-1L1.6-2.7 1.2 0Zm0 0"/>  <path id="t" d="m-.2 2.4 1.6-7.8h.7v1l.7-.6c.3-.3.7-.5 1-.5.5 0 .8.2 1 .5.5.3.6.8.6 1.4-.1.5-.1 1-.3 1.4L4.6-1l-.8.8a2 2 0 0 1-1.1.3C2.3 0 2 0 1.8-.2a2 2 0 0 1-.5-.6v.4L1 .1.7 2.4Zm2.8-3c.4 0 .5-.1.7-.4.3 0 .5-.3.7-.6a4 4 0 0 0 .3-1 5 5 0 0 0 .1-.9c0-.9-.3-1.2-.9-1.2-.2 0-.4 0-.5.2l-.8.7-.4 1c-.2.3-.2.7-.2 1.1 0 .3 0 .6.2.8.2.2.5.3.8.3Zm0 0"/>  <path id="s" d="m.2 0 1.2-5.4h.8l-.2 1 .5-.6a2 2 0 0 1 .6-.3l.9-.2c.3 0 .6.1.9.5.1 0 .4.4.4.9v.4l-.2.5L4.4 0h-.9l.7-3.4v-.4l.2-.2c-.1-.5-.3-.7-.8-.7-.2 0-.4 0-.6.2-.3.2-.6.5-.8.8-.2.3-.4.8-.5 1.4L1.2 0Zm0 0"/>  <path id="r" d="M3.6-6c-.6 0-1-.3-1.2-.5-.4-.1-.4-.4-.4-.8a1 1 0 0 1 0-.3h.9v.3c-.1.2-.1.3.1.3 0 .3.3.3.7.3.3 0 .5 0 .7-.2.2-.1.4-.3.4-.7h.9c-.1.6-.3.8-.7 1.1-.3.3-.8.5-1.4.5ZM1.9 0c-.4 0-.7 0-1-.1C.7-.5.5-.8.5-1.2v-.5L.8-2l.6-3.4h.9L1.4-2v1.2l.8.2c.2 0 .4-.1.8-.4l.6-.6.5-1.4.5-2.4h.9L4.4 0h-.8l.1-1-.5.5-.4.5-.9.1Zm0 0"/>  <path id="q" d="M2.4 0c-.6 0-1 0-1.4-.2C.8-.5.6-.9.6-1.4V-2a5 5 0 0 1 .2-.4l.6-3h.9L1.8-3l.5-.1h.5c.6-.1 1-.1 1.2.2.3.4.5.7.5 1.1s-.1.8-.3 1.1c-.1.2-.4.4-.7.5-.3.2-.7.3-1.1.3ZM5 0l1-5.4h1L5.8 0ZM2.4-.6c.4 0 .7-.1.9-.4a1 1 0 0 0 .3-.7l-.3-.6-.7-.1h-1v.6l-.2.3c.1.3.1.5.3.5.1.3.4.4.7.4Zm0 0"/>  <path id="p" d="M2.4 0c-.6 0-1 0-1.3-.2C.8-.5.6-.9.6-1.5v-.4l.2-.5.6-3h.9L1.6-3A9.8 9.8 0 0 1 3-3.2c.5 0 1 .2 1.2.5.3.2.4.6.4.9 0 .4 0 .7-.2 1-.2.3-.4.5-.8.6-.3.2-.6.3-1.2.3Zm0-.5c.6-.1 1-.2 1.1-.5a1 1 0 0 0 .2-.7c0-.2 0-.3-.2-.5-.1-.2-.4-.2-.8-.2a5.6 5.6 0 0 0-1.1 0v.7l-.2.2c.1.2.1.4.3.5.1.3.3.4.8.4Zm.1-.1"/>  <path id="o" d="M0 0h-.4v-.8l.3.1C0-.7.3-.7.4-.9l.6-.7.3-1.2.5-1.1.4-.9.8-.5h1a4.5 4.5 0 0 1 1 .1L4 0h-.9l1-4.6h-1l-.5.8-.5 1.3L1.5-1c-.1.3-.3.6-.5.8C.7 0 .4 0 0 0Zm0 0"/>  <path id="n" d="m.3 0 1.1-5.4h.9L1.8-3h2.5l.5-2.4h.9L4.6 0h-1l.7-2.4H1.7L1.2 0Zm0 0"/>  <path id="m" d="M2.5 0C1.9 0 1.4 0 1-.4.7-.8.5-1.3.5-2l.1-1.2a4 4 0 0 1 .5-1.1c.3-.3.5-.7.9-.8.3-.2.7-.3 1.2-.3.6 0 1 .2 1.4.4.4.5.6 1.1.6 1.6L5-2a4 4 0 0 1-.5.9c-.2.5-.5.8-.8 1L2.5 0Zm0-.6c.5-.1.6-.1 1-.4.1-.2.3-.5.5-1 .2-.3.3-.8.3-1.4L4.2-4a1 1 0 0 0-.4-.5l-.6-.2c-.4 0-.7.1-1 .4-.2.2-.5.6-.6 1A4 4 0 0 0 1.4-2c0 .5 0 .8.3 1 .2.2.5.3.8.3Zm0-.1"/>  <path id="l" d="M1.9 0c-.4 0-.7 0-1-.1C.7-.5.5-.8.5-1.2v-.5L.8-2l.6-3.4h.9L1.4-2v1.2l.8.2c.2 0 .4-.1.8-.4l.6-.6.5-1.4.5-2.4h.9L4.4 0h-.8l.1-1-.5.5-.4.5-.9.1Zm0 0"/>  <path id="k" d="M4 1.9 4.2 0C4.1 0 4-.1 4-.2L3.8-1h-.2l-.3.5a2 2 0 0 1-.6.5 2 2 0 0 1-.8 0c-.4 0-.7 0-.9-.1C.7-.5.5-.8.5-1.2v-.5L.8-2l.6-3.4h.9L1.4-2v1.2l.8.2c.2 0 .4-.1.8-.4l.6-.6.5-1.4.5-2.4h.9l-.8 3.8v.9h.7L4.8 2Zm0 0"/>  <path id="j" d="M2 0c-.6 0-.9 0-1.2-.3C.6-.7.5-1 .5-1.7c0-.5 0-1 .2-1.5l.5-1.1c.2-.4.5-.7.8-.9a2 2 0 0 1 1.1-.3c.4 0 .6.1.9.3l.5.7.3-.9h.7L4.4 0h-.7l.1-1c-.3.3-.5.6-.9.8-.3.2-.6.2-.9.2Zm.1-.5c.4-.1.6-.2.9-.5l.6-.6a4 4 0 0 0 .4-1 3 3 0 0 0 .1-.7 4 4 0 0 0 0-.4c.1-.3.1-.5-.1-.7-.3-.2-.5-.3-.8-.3-.3 0-.5 0-.7.2a2 2 0 0 0-.6.7l-.4 1-.1 1.1c0 .4 0 .6.2.8.1.2.3.3.6.3Zm.1-.1"/>  <path id="i" d="M.4 0 2-7.1h1l-.9 3h3.2l.7-3h.8L5.3 0h-.8l.7-3.3H2L1.3 0Zm0 0"/>  <path d="M1 0v-7.1h4V0Zm.4-.5h3.1v-6.1h-3Zm.1 0"/>  <path id="h" d="M5.2-7h1.3l-3 3.4L6.7 0H5.4L2.2-3.5V0h-.9v-7h.8v3.4Zm0 0"/>  <path id="g" d="M1.5 0H.2l2-3a3 3 0 0 1-.8-.2 1.8 1.8 0 0 1-.6-.7l-.2-1c0-.7.2-1.2.7-1.5.3-.4 1-.6 1.7-.6h3.2v7H5v-2.8H3.3Zm.2-5c0 .6.1.9.3 1 .4.2.8.3 1.4.3H5V-6H3.2c-.6 0-1 0-1.2.3-.2.2-.3.5-.3.8Zm0 0"/>  <path id="f" d="M7.2-3.5c0 1.2-.3 2-1 2.7-.4.6-1.2 1-2.2 1a3.2 3.2 0 0 1-1.7-.6A3 3 0 0 1 1-1.5c0-.6-.3-1.2-.3-2 0-1.1.3-2 .9-2.7C2.2-6.8 3-7 4-7c.6 0 1 0 1.6.3a3 3 0 0 1 1.2 1.2c.2.6.4 1.2.4 2Zm-5.3 0c0 .8.1 1.5.5 2 .3.4.8.7 1.5.7s1.2-.3 1.6-.7c.3-.5.5-1.2.5-2s-.2-1.5-.5-2C5-5.8 4.6-6 3.9-6c-.7-.1-1.2 0-1.5.6-.4.4-.5 1-.5 1.9Zm0 0"/>  <path id="e" d="M2.3-7v3H6v-3h1.2v7H6v-3.1H2.2V0h-.9v-7Zm0 0"/>  <path id="d" d="M4 .1a3.6 3.6 0 0 1-1.9-.3 2.6 2.6 0 0 1-.8-1.2C.8-2 .6-2.6.6-3.4c.1-.9.4-1.6.5-2.1.3-.6.7-1 1.2-1.2.5-.3 1-.4 1.7-.4L5-7c.3 0 .6.2.8.3l-.3 1a5 5 0 0 0-.8-.3A3 3 0 0 0 4-6c-1.4 0-2.1.7-2.1 2.4 0 1 .1 1.6.5 2.1.3.4.8.5 1.5.5h1l.8-.4v1.1a3 3 0 0 1-.8.3L4 .1Zm0 0"/>  <path id="c" d="M3.8-7c.7 0 1.4 0 1.7.4.5.5.7 1.1.7 1.9V0h-.8l-.2-1-1.1 1H2.8c-.6.1-1.2 0-1.6-.4C.8-.7.6-1.2.6-1.9s.3-1.3.8-1.6C2-4 2.8-4.1 4-4.2h1.1v-.4c0-.6-.1-1-.3-1.2-.3-.2-.8-.4-1.2-.4l-.9.2-1.1.4-.2-.9A5.2 5.2 0 0 1 3.8-7ZM5-3.5h-.9c-.9.1-1.5.3-1.8.5-.4.3-.5.6-.5 1 0 .6.1.9.2 1l1.1.1c.5.1.9-.1 1.4-.4.5-.3.6-.7.6-1.5Zm.1.1"/>  <path id="b" d="M4.4-7c.9 0 1.6.1 2 .7.6.7 1 1.6 1 2.8-.1 1.2-.4 2-.9 2.7-.5.6-1.2 1-2 1C3.8.1 3.4 0 3-.3a2.7 2.7 0 0 1-.8-.6v4h-.9v-10H2l.2.9c.3-.3.6-.6.9-.8.3-.2.8-.2 1.3-.2Zm-.2.8c-.7.1-1.2.2-1.5.7-.3.4-.4 1-.5 1.8v.2c.1.9.3 1.5.6 2s.7.7 1.4.7c.5 0 .8-.2 1-.4.5-.2.7-.5.8-1v-1.2c0-.9-.1-1.6-.4-2.1C5.3-5.8 5-6 4.2-6Zm0 .1"/>  <path id="a" d="M8 0H6.6L2.4-4.7V0H1.3v-9.3h1.1v4.5l4.1-4.5H8L3.9-4.8Zm0 0"/>  <path d="M1.2 0v-9.3h5.4V0ZM2-.7h3.9v-8H2Zm-.1 0"/> </defs> <image xlink:href="svg/9/29_18.jpg" width="497" height="279"/> <path d="M278.6 201.7h-1.4L273 197v4.7h-1.2v-9.3h1.2v4.6l4-4.6h1.5l-4.1 4.6zm4.4-7.1c1 0 1.6.4 2 1 .7.4 1 1.4 1 2.5-.1 1.3-.4 2.2-1 2.9-.4.5-1.1 1-2 1-.5-.2-1-.4-1.3-.6a2.7 2.7 0 0 1-.9-.6v4h-1.1v-10h1v.9h.2c.1-.3.4-.6.8-.8.3-.2.7-.3 1.3-.3zm-.2 1c-.7 0-1.2.2-1.5.6-.3.4-.4 1-.5 1.8v.2c0 .9.2 1.6.5 2 .2.5.7.8 1.5.8.5 0 .8-.2 1-.4l.8-1 .1-1.4c0-.8-.2-1.4-.5-1.9s-.8-.7-1.4-.7zm7.5-1c.9 0 1.5.2 2 .6.2.4.4 1 .4 1.8v4.7h-.7l-.2-1-1.1.9c-.3.2-.7.2-1.3.2-.7 0-1.2-.1-1.6-.5-.4-.3-.6-.8-.6-1.5s.2-1.3.8-1.6c.5-.4 1.4-.6 2.5-.6h1.2v-.6c0-.5-.1-.9-.4-1-.2-.3-.6-.4-1-.4l-1 .1-1.1.4-.3-.9a5.2 5.2 0 0 1 2.4-.6zm1.4 3.7h-1c-1 .1-1.5.3-1.8.6-.4.1-.5.5-.5.9s0 .7.3.9l1 .2c.4.1.9-.1 1.3-.5.5-.3.7-.8.7-1.4zm6.1 3.5a3.6 3.6 0 0 1-1.8-.3 2.6 2.6 0 0 1-1-1.2c-.3-.5-.4-1.2-.4-2 0-.9.1-1.6.4-2.1.3-.6.7-1 1.2-1.2.5-.3 1-.4 1.7-.4l1 .1.8.3-.4 1a5 5 0 0 0-.7-.3 3 3 0 0 0-.8 0c-1.3-.1-2 .7-2 2.5 0 .8.1 1.5.5 2 .3.4.7.7 1.5.7l1-.1.8-.4v1.1a3 3 0 0 1-.8.3h-1zm4.6-7v2.9h3.6v-3h1.3v7.1H306v-3.1h-3.6v2.9h-1.2v-6.9Zm13.2 3.4c0 1.2-.3 2-1 2.8-.4.5-1.2 1-2.2 1a3.2 3.2 0 0 1-1.7-.7 3 3 0 0 1-1.2-1.1c-.3-.6-.4-1.2-.4-2 0-1.1.3-2 .9-2.6.6-.7 1.4-1 2.4-1 .6 0 1.1.2 1.6.4a3 3 0 0 1 1.1 1.3c.3.5.5 1.1.5 2zm-5.3 0c0 .8.1 1.5.5 2 .2.5.8.7 1.5.7s1.2-.2 1.7-.7c.2-.5.4-1.2.4-2s-.2-1.4-.5-2c-.4-.3-.9-.5-1.6-.5-.7-.1-1.2.1-1.5.6-.4.4-.5 1.1-.5 2zm7.5 3.5h-1.3l2-2.9a3 3 0 0 1-.8-.3 1.8 1.8 0 0 1-.7-.7c-.1-.2-.2-.6-.2-1 0-.7.3-1.2.7-1.5.5-.4 1-.6 1.8-.6h3.1v7.1h-1.1V199h-1.7zm.1-4.9c.1.4.2.7.5 1l1.2.2h1.7v-2.3h-1.9c-.4 0-.9.1-1.1.3-.3.2-.4.5-.4.8zm10.1-2.2c.7 0 1.4.4 2 1 .5.4.8 1.4.8 2.5 0 1.3-.3 2.2-.8 2.9-.5.5-1.2 1-2 1-.7-.2-1-.4-1.5-.6a2.7 2.7 0 0 1-.7-.6h-.1v4h-.9v-10h.7l.2.9 1-.8c.2-.2.7-.3 1.2-.3zm-.4 1c-.6 0-1.1.2-1.4.6-.2.4-.4 1-.4 1.8v.2c0 .9.1 1.6.4 2 .3.5.8.8 1.6.8.4 0 .7-.2 1-.4.3-.3.5-.6.6-1 .2-.4.2-.9.2-1.4 0-.8-.1-1.4-.4-1.9-.4-.5-.8-.7-1.5-.7zm7.8 6.2a3.6 3.6 0 0 1-1.6-.3 2.6 2.6 0 0 1-1.2-1.2c-.2-.5-.4-1.2-.4-2 0-.9.2-1.6.5-2.1.3-.6.6-1 1.1-1.2.5-.3 1-.4 1.7-.4l1 .1.8.3-.3 1a5 5 0 0 0-.8-.3 3 3 0 0 0-.7 0c-1.5-.1-2 .7-2 2.5-.1.8-.1 1.5.3 2 .5.4 1 .7 1.6.7l1-.1.8-.4v1.1a3 3 0 0 1-.8.3h-1zm7.6-7h1.2l-3 3.2 3.4 3.7h-1.4l-3.2-3.5v3.5h-1v-7h1v3.5zm0 0" style="fill:none;stroke:#fff;stroke-width:3;stroke-linecap:butt;stroke-linejoin:round;stroke-miterlimit:10;stroke-opacity:.6" transform=" rotate(  340 308.176 198.717) "/> <g style="fill:#212121;fill-opacity:1" transform=" rotate(  340 308.176 198.717) ">  <use xlink:href="#a" x="270.6" y="201.7"/>  <use xlink:href="#b" x="278.6" y="201.7"/>  <use xlink:href="#c" x="286.6" y="201.7"/>  <use xlink:href="#d" x="293.9" y="201.7"/>  <use xlink:href="#e" x="300.1" y="201.7"/>  <use xlink:href="#f" x="308.4" y="201.7"/>  <use xlink:href="#g" x="316.3" y="201.7"/>  <use xlink:href="#b" x="323.5" y="201.7"/>  <use xlink:href="#d" x="331.5" y="201.7"/>  <use xlink:href="#h" x="337.8" y="201.7"/> </g> <path d="m274.3 251.4 1.5-7.1h.9l-.7 3h3.2l.6-3h.9l-1.5 7.1h-.9l.7-3.3h-3.1l-.7 3.3zm8.3.1c-.4 0-.8-.1-1-.4-.4-.3-.6-.8-.6-1.4.1-.5.1-1 .3-1.4.1-.5.3-.9.7-1.3l.7-.7a2 2 0 0 1 1-.3c.5 0 .8 0 1.1.3l.2.6.6-.8h.4l-1 5.3h-.7l.1-1c-.2.5-.5.6-.8.9-.3.1-.7.2-1 .2zm.3-.7c.1 0 .5 0 .7-.2l.6-.8a4 4 0 0 0 .5-1 3 3 0 0 0 0-.5 4 4 0 0 0 .2-.5c-.1-.3-.1-.6-.4-.8-.1-.2-.4-.3-.7-.3-.2 0-.5.1-.7.3a2 2 0 0 0-.5.6l-.4 1-.2 1.1c0 .4 0 .7.2.9l.8.2zm7.4 2.5.4-1.8c-.2 0-.4-.1-.5-.3l-.1-.7-.6.5a2 2 0 0 1-.5.4 2 2 0 0 1-.8.1c-.4 0-.7 0-1-.3-.2-.2-.2-.6-.2-1v-.8l.8-3.4h.8l-.7 3.5-.1.5.1.6c.1.2.3.2.6.2.2 0 .4 0 .7-.2.3-.2.5-.4.7-.8.3-.3.4-.8.6-1.4l.5-2.3h.8l-.8 3.8v.8l.3.1h.4l-.6 2.5zm3.9-1.8c-.4 0-.7 0-1-.3-.2-.2-.4-.6-.4-1v-.4l.2-.4.7-3.4h.8l-.7 3.5v1.1c.2.2.5.2.7.2.2 0 .5 0 .7-.2.2-.2.5-.4.7-.8.2-.3.4-.8.5-1.4l.6-2.3h.8l-1.1 5.3h-.8l.1-1-.5.6-.5.4-.8.1zm6.4 0c-.7 0-1.1-.2-1.6-.5-.3-.4-.4-1-.4-1.5l.1-1.3a4 4 0 0 1 .5-1c.3-.5.5-.8.9-1 .3-.1.7-.2 1.1-.2.8 0 1.2.2 1.5.6.4.3.5.9.5 1.4l-.1 1.3a4 4 0 0 1-.5 1.1c-.2.4-.6.6-.9.8-.3.2-.7.3-1.1.3zm0-.7.9-.3c.3-.3.5-.6.5-1 .3-.4.4-1 .4-1.5 0-.2 0-.4-.2-.6a1 1 0 0 0-.2-.5l-.7-.2c-.4 0-.7.3-1 .4-.3.3-.5.6-.6 1a4 4 0 0 0-.2 1.4c0 .4 0 .7.3 1 .2.2.5.3.8.3zm3.4.6 1.1-5.3h1l-.7 2.2h2.7l.4-2.2h1l-1.3 5.3h-.8l.5-2.4h-2.5l-.5 2.4zm7.7.1c-.5 0-.8-.1-1-.4-.5-.3-.6-.8-.6-1.4.1-.5.1-1 .3-1.4l.5-1.3c.3-.2.5-.5.9-.7a2 2 0 0 1 1-.3c.4 0 .7 0 .9.3l.5.6.4-.8h.6l-1.1 5.3h-.7l.1-1-.8.9c-.3.1-.7.2-1 .2zm.2-.7c.3 0 .5 0 .8-.2l.6-.8a4 4 0 0 0 .5-1 3 3 0 0 0 0-.5 4 4 0 0 0 .1-.5c0-.3 0-.6-.2-.8-.3-.2-.5-.3-.7-.3-.3 0-.6.1-.8.3a2 2 0 0 0-.6.6l-.4 1-.1 1.1c0 .4 0 .7.2.9l.7.2zm3.5.7h-.4v-.9h.3c.2.1.4.1.5-.1l.5-.5.4-1.4.6-1 .4-1.1.6-.2 1-.3a4.5 4.5 0 0 1 1.2.2l-1 5.2h-1.1l1.1-4.6h-.4c-.1 0-.5 0-.6.2-.2 0-.5.3-.5.6l-.5 1.4-.5 1.4-.7.8c-.2.2-.5.3-1 .3zm7.9 0c-.6 0-1 0-1.4-.3-.3-.3-.4-.7-.4-1.2v-1l.8-3h.8l-.5 2.4a9.8 9.8 0 0 1 1.2-.1c.6 0 1 .1 1.2.4.3.3.5.6.5 1 0 .3-.1.7-.3 1l-.7.5c-.3.3-.7.3-1.2.3zm0-.7c.5 0 .8 0 1-.3a1 1 0 0 0 .3-.7l-.3-.6-.7-.2a5.6 5.6 0 0 0-1.2.1v1.5l.9.2zm3.1.6 1.1-5.3h.9l-.5 2.2h2.5l.6-2.2h.8l-1.1 5.3h-1l.7-2.4h-2.7l-.4 2.4zm8 .1c-.4 0-1 0-1.2-.3-.3-.3-.5-.7-.5-1.2v-.4a5 5 0 0 1 .1-.6l.6-3h1l-.7 2.4h.7l.5-.2c.5.1 1 .2 1.2.5.3.2.4.6.4 1 0 .3 0 .7-.2 1l-.7.5c-.3.3-.6.3-1.2.3zm2.7 0 1.1-5.5h.9l-1.2 5.4zm-2.6-.8c.4.1.7.1.9-.2a1 1 0 0 0 .3-.7c0-.3-.1-.5-.3-.6l-.8-.2h-.5l-.4.1-.1.5v.3c0 .3 0 .5.2.7l.7.2zM343 245.4c-.6 0-1-.1-1.3-.4-.2-.2-.3-.5-.3-1h.8c0 .3 0 .5.2.6l.6.2.8-.2.4-.7h.8c0 .4-.3.8-.6 1-.3.4-.8.6-1.4.6zm-1.7 6.1c-.4 0-.8 0-1-.3-.3-.2-.4-.6-.4-1v-.4l.1-.4.7-3.4h1l-.9 3.5v.5c0 .3 0 .5.2.6 0 .2.3.2.5.2s.5 0 .7-.2l.8-.8c.2-.3.4-.8.5-1.4l.5-2.3h.9l-1.2 5.3h-.7l.1-1-.5.6-.6.4-.7.1zm-78.6 11.9 1.3-5.4h.7l-.1 1c0-.2.2-.4.4-.5a2 2 0 0 1 .6-.5l.8-.1c.4 0 .6.1 1 .4.2.2.4.5.4 1v.3l-.3.5-.5 3.3h-1l.8-3.4v-.4l.1-.3c-.1-.3-.3-.6-.8-.6-.1 0-.4 0-.7.2-.2.2-.4.4-.7.8-.2.3-.4.8-.5 1.3l-.5 2.4zm7.5.1c-.4 0-.8-.2-1-.5-.3-.3-.4-.7-.4-1.3l.1-1.5.6-1.2.8-.8a2 2 0 0 1 1-.2c.5 0 .7 0 1.1.2l.2.8.6-1h.6l-1.2 5.4h-.6l.1-1-1 .8c-.1.2-.5.3-.9.3zm.3-.7c.2 0 .5-.1.7-.3l.8-.7a4 4 0 0 0 .3-1 3 3 0 0 0 .1-.7 4 4 0 0 0 0-.4c0-.3 0-.5-.2-.7-.2-.2-.4-.3-.7-.3-.3 0-.5 0-.7.2a2 2 0 0 0-.6.7l-.4 1-.1 1c0 .4 0 .8.2 1 .1.1.3.2.6.2zm3.2 3 1.7-7.8h.6v1l.8-.7c.3-.3.6-.4 1-.4s.8.2 1 .5c.3.3.5.8.5 1.4l-.3 1.4-.4 1.2c-.3.3-.6.6-.9.8a2 2 0 0 1-1 .3c-.5 0-.7-.1-1.1-.3a2 2 0 0 1-.2-.6l-.3.4-.1.5-.4 2.3zm2.9-3c.2 0 .4-.1.7-.3l.6-.7a4 4 0 0 0 .3-1 5 5 0 0 0 .2-.9c0-.9-.4-1.3-.9-1.3-.2.1-.4.1-.7.3l-.6.7-.5 1-.1.9c0 .5 0 .9.2 1.1.2.1.4.2.8.2zm3.4.6 1.2-5.4h.8l-.5 2.6 2.5-2.6h1l-2.5 2.7 1.7 2.7h-1l-1.7-2.7-.6 2.7zm8.8-.6-1.2-2.1v-.2l2-1.8.4.3-1.5 1.7.9 1.9zm1.8 0-1-2 1.8-2.1.6.3-1.5 2 .8 1.6zm1.8.6 1.5-7.2h.9l-.8 3.5 3.4-3.5h1l-3.4 3.6 2.2 3.6h-1l-2.2-3.6-.7 3.6zm5 2.4 1.6-7.8h.7v1l.7-.7c.3-.3.7-.4 1-.4.6.1.8.2 1 .5.5.3.6.8.6 1.4-.1.5-.1 1-.3 1.4l-.5 1.2-.8.8a2 2 0 0 1-1.1.3c-.4 0-.7-.1-.9-.3a2 2 0 0 1-.4-.6v.4l-.4.5-.3 2.3zm2.8-3c.3 0 .5-.1.8-.3.2-.2.4-.4.5-.7a4 4 0 0 0 .5-1 5 5 0 0 0 0-.9c0-.9-.3-1.3-.9-1.3-.1.1-.4.1-.6.3l-.7.7-.4 1c-.2.2-.2.6-.2.9 0 .5 0 .9.2 1.1.2.1.6.2.8.2zm5.1.7c-.3 0-.8-.2-1-.5-.3-.3-.4-.7-.4-1.3 0-.5 0-1 .1-1.5 0-.4.4-.8.6-1.2l.8-.8a2 2 0 0 1 1.1-.2l.9.2.4.8h.2l.2-1h.8l-1.3 5.4h-.7l.2-1-1 .8c-.2.2-.5.3-.9.3zm.3-.7c.4 0 .5-.1.7-.3l.7-.7a4 4 0 0 0 .4-1 3 3 0 0 0 .1-.7 4 4 0 0 0 0-.4c0-.3 0-.5-.2-.7-.3-.2-.4-.3-.7-.3-.3 0-.6 0-.7.2a2 2 0 0 0-.6.7l-.4 1-.1 1c0 .4 0 .8.2 1 0 .1.3.2.6.2zm5.9.7c-.5 0-1-.2-1.4-.5-.4-.4-.5-1-.5-1.5l.1-1.5.6-1c.2-.3.5-.6.9-.8.3-.2.7-.2 1.1-.2h.7l.7.2-.3.7-.4-.2h-.6c-.4 0-.8.1-1 .3-.4.3-.7.6-.8 1a4 4 0 0 0-.2 1.5c0 .4.1.7.4 1 .2.1.5.2.8.2h.7a7 7 0 0 0 .6-.3v.8l-.6.2h-.8zm2.4-.1 1.1-5.4h1l-.6 2.3h2.6l.4-2.3h.9l-1.1 5.4h-1l.7-2.4h-2.6l-.5 2.4zm8.1.1c-.4 0-1-.2-1.3-.6-.4-.4-.6-.9-.6-1.5l.1-1.2a4 4 0 0 1 .5-1.2l.9-.7c.3-.3.7-.4 1.2-.4.6.1 1 .2 1.4.6.4.5.6.9.6 1.5l-.2 1.2a4 4 0 0 1-.6 1.2l-.7.8-1.3.3zm.2-.8c.3 0 .6 0 .9-.3.1-.2.3-.5.4-1 .3-.4.5-.9.5-1.4l-.2-.7a1 1 0 0 0-.4-.3c-.2-.3-.4-.3-.6-.3-.4 0-.8.1-1 .3-.2.3-.5.6-.6 1a4 4 0 0 0-.2 1.4c0 .6 0 .8.3 1 .2.2.5.3.7.3zM325.4 263.4h-.4v-.7h.3c.2 0 .3 0 .4-.2l.4-.5.4-.7.5-.3c-.3 0-.5-.3-.7-.5a1.4 1.4 0 0 1-.2-.8c-.1-.5.2-.9.5-1.2.4-.3.9-.5 1.6-.5h2l-.9 5.4h-1.2l.7-2.1h-.8c-.3 0-.5 0-.6.2l-.5.7-.4.7c0 .1-.2.3-.4.4l-.7.1zm2.6-2.9h.9l.3-1.7h-1.1c-.4 0-.7 0-.9.2l-.2.7c0 .3 0 .5.3.7l.7.1zm2.3 5.3 1.7-7.8h.7l-.1 1 .8-.7c.3-.3.6-.4 1-.4s.8.2 1 .5c.3.3.6.8.6 1.4l-.3 1.4-.7 1.2c0 .3-.3.6-.7.8a2 2 0 0 1-1 .3c-.5 0-.8-.1-1.1-.3a2 2 0 0 1-.2-.6l-.3.4v.5l-.5 2.3zm2.9-3c.2 0 .5-.1.7-.3l.6-.7a4 4 0 0 0 .3-1 5 5 0 0 0 .2-.9c0-.9-.3-1.3-1-1.3-.1.1-.3.1-.6.3l-.6.7-.5 1-.2.9c0 .5.1.9.3 1.1.2.1.4.2.8.2zm5.6.7c-.6 0-1-.2-1.4-.5-.4-.4-.6-1-.6-1.5s0-1 .2-1.5c.2-.3.3-.7.6-1 .2-.3.4-.6.9-.8.3-.2.7-.2 1.1-.2h.7l.7.2-.3.7-.5-.2h-.6c-.3 0-.6.1-1 .3-.3.3-.5.6-.6 1a4 4 0 0 0-.3 1.5c0 .4.1.7.3 1 .3.1.5.2 1 .2h.5a7 7 0 0 0 .7-.3v.8l-.6.2h-.8zm2.4-.1 1-5.4h1.1l-.7 2.6 2.5-2.6h1.1l-2.6 2.7 1.7 2.7h-1l-1.7-2.7-.6 2.7zm6.4.1c-.4 0-.6-.1-1-.3-.2-.3-.3-.6-.3-1v-.9l.9-3.3h.8l-.7 3.4-.1.7.1.5.7.2s.4-.1.6-.3c.4-.1.5-.4.7-.8.3-.3.5-.7.7-1.4l.4-2.3h.8l-1.1 5.4h-.7v-1c0 .2-.2.3-.4.5l-.6.4-.8.2zm6.4 0c-.8 0-1.3-.2-1.6-.6-.2-.3-.4-.8-.4-1.4 0-.5 0-.9.2-1.3l.5-1.1c.3-.4.5-.7.9-.9a2 2 0 0 1 1-.2c.7 0 1.1 0 1.3.3.2.2.3.5.3.9 0 .3 0 .6-.2 1l-1.1.5c-.5.3-1 .4-1.9.4h-.1v.3c0 .4.1.8.3 1 .2.2.5.4 1 .4l.5-.1a5 5 0 0 0 .9-.4v.8a6 6 0 0 1-.8.3h-.8zm-1-3.1h.1l1.1-.1.8-.4c.2-.2.4-.4.4-.7l-.2-.4-.6-.1c-.3 0-.6.1-.9.3-.3.4-.5.8-.7 1.4zm-61.8 15c-.8 0-1.5-.2-1.9-.7-.5-.5-.7-1.2-.7-2 0-.4 0-.9.2-1.3 0-.4.2-.9.4-1.2l.8-1.2 1-.6 1.6-.4c.4 0 1.1.2 1.6.5l-.2.7a4 4 0 0 0-.7-.2l-.9-.1c-.4 0-.9 0-1.2.3-.4.2-.7.5-1 1a4 4 0 0 0-.3 1c-.3.6-.3 1.1-.3 1.5 0 .6.1 1 .4 1.3.3.5.8.6 1.3.6h.8c.3 0 .6-.2.9-.3v.8l-.9.2a5 5 0 0 1-1 .1zm2.8-.1 1.3-5.3h.6v1c0-.3.1-.5.4-.7l.6-.3h.7c.4-.1.6-.1.8.2.2.2.4.5.4.8l.5-.5.6-.5h.8c.3-.1.7-.1 1 .2 0 .2.3.6.3 1v.4l-.2.5-.6 3.2h-1l.8-3.3v-1.2l-.7-.2c-.1 0-.3 0-.6.4l-.7.6c-.2.3-.3.8-.4 1.3l-.6 2.4h-.8l.7-3.3v-1.2l-.7-.2c-.1 0-.2 0-.6.2l-.6.8-.6 1.4-.4 2.3zm11 .1c-.6 0-1-.2-1.5-.5-.3-.4-.5-1-.5-1.6 0-.3 0-.8.2-1.2a4 4 0 0 1 .5-1c.2-.5.5-.8.8-1 .5-.1.7-.2 1.2-.2.6 0 1.1.1 1.5.5.3.4.5 1 .5 1.6 0 .4 0 .8-.2 1.2a4 4 0 0 1-.5 1l-.8 1.1H305zm0-.7c.5 0 .8-.1 1-.4l.5-1 .3-1.3-.1-.7a1 1 0 0 0-.4-.5l-.6-.2c-.4 0-.7.1-1 .4l-.6 1a4 4 0 0 0-.1 1.4c-.1.4 0 .6.2 1 .2.1.5.2.9.2zm3.1.7h-.4v-.9h.3c.3.1.4.1.6-.1.1-.1.3-.3.4-.7l.5-1.2.4-1.1.5-.8c.2-.3.4-.4.7-.6l.9-.1a4.5 4.5 0 0 1 1.2.2l-1 5.2h-1l1.1-4.6h-.3c-.4 0-.6 0-.8.2l-.4.6-.5 1.3-.6 1.4-.6 1-1.1.1zm7.9 0c-.6 0-1-.2-1.4-.4-.4-.5-.6-1.1-.6-1.8a7.4 7.4 0 0 1 .4-2.3l.6-1.1.6-1c.4-.3.7-.5 1-.6l.6-.1a34 34 0 0 1 1.5-.3l.6-.1v.7l-.5.1-1.1.2-.7.2c-.4.1-.8.4-1 .8-.5.3-.7.9-.9 1.5a3 3 0 0 1 .9-.6c.3-.2.6-.3 1-.3.5 0 1 .2 1.2.5.2.3.4.8.4 1.3l-.2 1.2-.5 1.1-.7.8-1.2.2zm0-.7c.5 0 .7 0 .9-.3a2 2 0 0 0 .4-.6l.3-.8v-.8c0-.4 0-.7-.2-.8-.1-.2-.3-.4-.6-.4-.2 0-.5 0-.7.3-.2 0-.4.2-.6.4a4 4 0 0 0-.4.3l-.1.7v.5c0 .4 0 .8.2 1 .2.5.5.6.9.6zm5.4.7c-.4 0-1-.1-1.3-.4-.3-.2-.4-.6-.4-1v-.6a5 5 0 0 1 0-.4l.8-3h.8l-.5 2.4h.5l.7-.3c.4.1.8.1 1 .4.4.3.5.6.5 1s0 .8-.2 1.1l-.7.6-1.2.2zm2.6 0 1.2-5.4h.8l-1 5.3zm-2.5-.8c.4.1.7 0 .8-.2a1 1 0 0 0 .3-.7c0-.3 0-.5-.2-.7-.2-.1-.5-.1-.8-.1h-.5l-.5.1v.8c-.1.3-.1.5.1.7.1.1.3.2.8.2zm7.3.2-.5-.4 1.5-1.6-.8-2 .6-.1 1 2.1v.1zm-2 0-.3-.5 1.3-1.7-.8-1.6.7-.4 1 2v.1zm.1-.1" style="fill:none;stroke:#fff;stroke-width:2;stroke-linecap:butt;stroke-linejoin:round;stroke-miterlimit:10;stroke-opacity:.6" transform="rotate(  340 150.781 84.4197) translate(-159.24734,-175.96621)"/> <g style="fill:#007f00;fill-opacity:1" transform=" rotate(  340 150.781 84.4197) ">  <use xlink:href="#i" x="114.6" y="75.5"/>  <use xlink:href="#j" x="121.4" y="75.5"/>  <use xlink:href="#k" x="127.1" y="75.5"/>  <use xlink:href="#l" x="133" y="75.5"/>  <use xlink:href="#m" x="138.8" y="75.5"/>  <use xlink:href="#n" x="144.5" y="75.5"/>  <use xlink:href="#j" x="150.5" y="75.5"/>  <use xlink:href="#o" x="156.2" y="75.5"/>  <use xlink:href="#p" x="161.6" y="75.5"/>  <use xlink:href="#n" x="166.8" y="75.5"/>  <use xlink:href="#q" x="172.8" y="75.5"/>  <use xlink:href="#r" x="180.1" y="75.5"/>  <use xlink:href="#s" x="103.2" y="87.4"/>  <use xlink:href="#j" x="109" y="87.4"/>  <use xlink:href="#t" x="114.7" y="87.4"/>  <use xlink:href="#u" x="120.5" y="87.4"/>  <use xlink:href="#glyph1-14" x="125.4" y="87.4"/>  <use xlink:href="#v" x="128" y="87.4"/>  <use xlink:href="#w" x="132.7" y="87.4"/>  <use xlink:href="#t" x="138.3" y="87.4"/>  <use xlink:href="#j" x="144.1" y="87.4"/>  <use xlink:href="#x" x="149.8" y="87.4"/>  <use xlink:href="#n" x="154.3" y="87.4"/>  <use xlink:href="#m" x="160.4" y="87.4"/>  <use xlink:href="#y" x="166" y="87.4"/>  <use xlink:href="#t" x="171.3" y="87.4"/>  <use xlink:href="#x" x="177.1" y="87.4"/>  <use xlink:href="#u" x="181.6" y="87.4"/>  <use xlink:href="#l" x="186.5" y="87.4"/>  <use xlink:href="#z" x="192.3" y="87.4"/>  <use xlink:href="#A" x="128.7" y="99.4"/>  <use xlink:href="#B" x="134.5" y="99.4"/>  <use xlink:href="#m" x="143.3" y="99.4"/>  <use xlink:href="#o" x="148.9" y="99.4"/>  <use xlink:href="#C" x="154.3" y="99.4"/>  <use xlink:href="#q" x="159.8" y="99.4"/>  <use xlink:href="#D" x="167.1" y="99.4"/> </g></svg>