<svg xmlns="http://www.w3.org/2000/svg" xmlns:xlink="http://www.w3.org/1999/xlink" viewBox="0 0 497 279"> <defs>  <path d="M1 0v-7.1h4V0Zm.4-.5h3.1v-6.1h-3Zm.1 0" id="reuse-0"/> </defs> <defs overflow="visible" style="stroke:none">  <path id="w" d="m.3 0 1.1-5.4h.7v1l.4-.5.5-.4.7-.2H4l.3.2-.2.7h-.5c-.3-.1-.6-.1-.9.2l-.7.9-.3 1L1.2 0Zm0 0"/>  <path id="v" d="m-.2 2.4 1.6-7.8h.7v1l.7-.6c.3-.3.7-.5 1-.5.5 0 .8.2 1 .5.5.3.6.8.6 1.4-.1.5-.1 1-.3 1.4L4.6-1l-.8.8a2 2 0 0 1-1.1.3C2.3 0 2 0 1.8-.2a2 2 0 0 1-.5-.6v.4L1 .1.7 2.4Zm2.8-3c.4 0 .5-.1.7-.4.3 0 .5-.3.7-.6a4 4 0 0 0 .3-1 5 5 0 0 0 .1-.9c0-.9-.3-1.2-.9-1.2-.2 0-.4 0-.5.2l-.8.7-.4 1c-.2.3-.2.7-.2 1.1 0 .3 0 .6.2.8.2.2.5.3.8.3Zm0 0"/>  <path id="u" d="m.3 0 1.6-7.6h.9L1.2 0Zm0 0"/>  <path id="t" d="M2.5 0C1.9 0 1.4 0 1-.3.7-.7.5-1.2.5-2c0-.4 0-1 .2-1.3l.5-1c.3-.5.6-.7 1-1 .2-.1.6-.2.9-.2l.9.1.6.2-.2.7-.5-.1-.6-.1c-.4 0-.7.1-1 .4-.3.2-.5.6-.7 1A4 4 0 0 0 1.4-2c0 .5 0 .8.3 1 .2.2.5.3.9.3h.6a7 7 0 0 0 .6-.3v.8l-.6.2h-.7Zm0 0"/>  <path id="s" d="M2 0c-.6 0-.9 0-1.2-.3C.6-.7.5-1 .5-1.7c0-.5 0-1 .2-1.5l.5-1.1c.2-.4.5-.7.8-.9a2 2 0 0 1 1.1-.3c.4 0 .6.1.9.3l.5.7.3-.9h.7L4.4 0h-.7l.1-1c-.3.3-.5.6-.9.8-.3.2-.6.2-.9.2Zm.1-.5c.4-.1.6-.2.9-.5l.6-.6a4 4 0 0 0 .4-1 3 3 0 0 0 .1-.7 4 4 0 0 0 0-.4c.1-.3.1-.5-.1-.7-.3-.2-.5-.3-.8-.3-.3 0-.5 0-.7.2a2 2 0 0 0-.6.7l-.4 1-.1 1.1c0 .4 0 .6.2.8.1.2.3.3.6.3Zm.1-.1"/>  <path id="r" d="m.2 0 1.2-5.4h.8l-.2 1 .5-.6a2 2 0 0 1 .6-.3l.9-.2c.3 0 .6.1.9.5.1 0 .4.4.4.9v.4l-.2.5L4.4 0h-.9l.7-3.4v-.4l.2-.2c-.1-.5-.3-.7-.8-.7-.2 0-.4 0-.6.2-.3.2-.6.5-.8.8-.2.3-.4.8-.5 1.4L1.2 0Zm0 0"/>  <path id="q" d="M1.5 0H.7L0-.2V-1l.7.3h.8c.5.1.7.1 1-.1l.1-.7c.1-.1.1-.3-.1-.4 0-.2-.3-.3-.7-.5L1-3.1c-.2-.2-.3-.5-.3-.8 0-.5.1-.9.5-1.1.3-.3.7-.5 1.3-.5.3 0 .6 0 .9.2l.6.2-.2.7-.5-.2-.8-.1c-.3 0-.5 0-.7.2-.2.1-.2.3-.2.5l.1.5.7.5c.3 0 .6.2.6.4.2 0 .4.2.5.4l.1.7c0 .5-.2 1-.5 1.2C2.7 0 2 0 1.5 0Zm0 0"/>  <path id="p" d="M2.5 0C1.9 0 1.4 0 1-.4.7-.8.5-1.3.5-2l.1-1.2a4 4 0 0 1 .5-1.1c.3-.3.5-.7.9-.8.3-.2.7-.3 1.2-.3.6 0 1 .2 1.4.4.4.5.6 1.1.6 1.6L5-2a4 4 0 0 1-.5.9c-.2.5-.5.8-.8 1L2.5 0Zm0-.6c.5-.1.6-.1 1-.4.1-.2.3-.5.5-1 .2-.3.3-.8.3-1.4L4.2-4a1 1 0 0 0-.4-.5l-.6-.2c-.4 0-.7.1-1 .4-.2.2-.5.6-.6 1A4 4 0 0 0 1.4-2c0 .5 0 .8.3 1 .2.2.5.3.8.3Zm0-.1"/>  <path id="o" d="M2.1-6.3h-.3l-.1-.5.1-.4.4-.2c.3 0 .5.2.5.5 0 .2 0 .4-.2.5l-.4.2ZM-.6 2.4l-.7-.1v-.7h.6c.4.1.7-.2.8-.9l1.3-6h.9L1 .8.5 2c-.3.3-.6.4-1.1.4Zm0 0"/>  <path id="n" d="M2.1-6.3h-.3l-.1-.5.1-.4.4-.2c.3 0 .5.2.5.5 0 .2 0 .4-.2.5l-.4.2ZM.3 0l1.1-5.4h.9L1.2 0Zm0 0"/>  <path id="m" d="m.3 0 1.6-7.6h.9l-.8 3c.1.6 0 1-.2 1.3l-.1.5 2.5-2.6h1L3-3l1.4 3h-1L2.3-2.5l-.7.5-.4 2Zm0 0"/>  <path id="l" d="M1.9 0c-.4 0-.7 0-1-.1C.7-.5.5-.8.5-1.2v-.5L.8-2l.6-3.4h.9L1.4-2v1.2l.8.2c.2 0 .4-.1.8-.4l.6-.6.5-1.4.5-2.4h.9L4.4 0h-.8l.1-1-.5.5-.4.5-.9.1Zm.3-6 .2-.9H5l-.1.9Zm0 0"/>  <path id="k" d="M-.2 0 0-.6l3.3-4.1H1l.1-.7h3.3l-.2.7L1-.7h2.5V0Zm0 0"/>  <path id="j" d="M.4 0 2-7.1h1.6c.9 0 1.5.1 2 .7.5.4.8 1.1.8 2.1a5 5 0 0 1-.5 2.2A3.7 3.7 0 0 1 4.5-.5C3.8-.2 3 0 2.2 0Zm1-.8h.9C3-.8 3.5-.9 4-1.2a3 3 0 0 0 1-1.3 4.2 4.2 0 0 0 .4-1.8c0-.7-.2-1.3-.4-1.6-.5-.3-1-.5-1.5-.5h-.8Zm.1 0"/>  <use xlink:href="#reuse-0"/>  <path id="i" d="M2.9-5.5c.6 0 1.1.2 1.4.5.3.3.5.7.5 1.3V0h-.6L4-.8c-.3.3-.5.6-.8.8h-1c-.5 0-1 0-1.3-.3C.6-.5.5-.9.5-1.5c0-.5.2-1 .5-1.2.5-.3 1-.5 2-.5h.8v-.3c.2-.5.2-.8-.2-1l-.8-.2H2l-.7.5L1-5l1-.3.9-.2Zm1 2.9h-.8c-.6 0-1 .1-1.4.3-.1.3-.3.5-.3.8 0 .3 0 .5.2.7l.7.2c.5 0 .9-.1 1.2-.4.3-.2.4-.6.4-1Zm.1 0"/>  <path id="h" d="M4.8-5.4v4.7h.8v2.6h-.8V0H1v1.9H.2V-.7h.4a6.9 6.9 0 0 0 1-2.3A9.6 9.6 0 0 0 2-5.4Zm-.8.7H2.8l-.2 1.4L2-1.9c0 .5-.2.9-.5 1.2H4Zm0 0"/>  <path id="g" d="M1.7-5.4v3.7a18.9 18.9 0 0 0 0 .7l2.7-4.4h1.1V0h-.7v-4.1l.1-.4-3 4.5H1v-5.4Zm0 0"/>  <path id="f" d="M6.1 0h-.9v-6.3H3l-.3 1.5-.2 1.6L2.3-2c0 .5-.2.8-.3 1.2l-.5.7-.8.1a2 2 0 0 1-.4.1L0 0v-.8l.3.1h.3c.2.1.3.1.4-.1l.3-.7.2-.7.2-1.1.2-1.7.3-2.1h4Zm0 0"/>  <use xlink:href="#reuse-0"/>  <path id="e" d="M2.3-7v3H6v-3h1.2v7H6v-3.1H2.2V0h-.9v-7Zm0 0"/>  <path id="d" d="M6.3-7v6h1v3.4H6.2V0H1.3v2.4h-1V-1h.5c.6-.8 1-1.7 1.3-2.8A12 12 0 0 0 2.6-7ZM5.2-6H3.6a10.9 10.9 0 0 1-.8 3.5A7 7 0 0 1 2-1h3.2Zm0 0"/>  <path id="c" d="M7.2-3.5c0 1.2-.3 2-1 2.7-.4.6-1.2 1-2.2 1a3.2 3.2 0 0 1-1.7-.6A3 3 0 0 1 1-1.5c0-.6-.3-1.2-.3-2 0-1.1.3-2 .9-2.7C2.2-6.8 3-7 4-7c.6 0 1 0 1.6.3a3 3 0 0 1 1.2 1.2c.2.6.4 1.2.4 2Zm-5.3 0c0 .8.1 1.5.5 2 .3.4.8.7 1.5.7s1.2-.3 1.6-.7c.3-.5.5-1.2.5-2s-.2-1.5-.5-2C5-5.8 4.6-6 3.9-6c-.7-.1-1.2 0-1.5.6-.4.4-.5 1-.5 1.9Zm0 0"/>  <path id="b" d="M4.4-7c.9 0 1.6.1 2 .7.6.7 1 1.6 1 2.8-.1 1.2-.4 2-.9 2.7-.5.6-1.2 1-2 1C3.8.1 3.4 0 3-.3a2.7 2.7 0 0 1-.8-.6v4h-.9v-10H2l.2.9c.3-.3.6-.6.9-.8.3-.2.8-.2 1.3-.2Zm-.2.8c-.7.1-1.2.2-1.5.7-.3.4-.4 1-.5 1.8v.2c.1.9.3 1.5.6 2s.7.7 1.4.7c.5 0 .8-.2 1-.4.5-.2.7-.5.8-1v-1.2c0-.9-.1-1.6-.4-2.1C5.3-5.8 5-6 4.2-6Zm0 .1"/>  <path id="a" d="M6.5-9.3v1h-4V0H1.2v-9.3Zm0 0"/>  <path d="M1.2 0v-9.3h5.4V0ZM2-.7h3.9v-8H2Zm-.1 0"/> </defs> <image xlink:href="svg/9/2_15.jpg" width="497" height="279"/> <path d="M14 157v1.2H9.8v8.2H8.7V157zm4 2.3c.9 0 1.5.3 2 .9.7.6 1 1.5 1 2.7-.1 1.1-.4 2-1 2.7-.5.6-1.1.9-2 .9-.6 0-1-.1-1.4-.3a2.7 2.7 0 0 1-.8-.7v4h-1.1v-10.1h1v1h.2l.7-.8c.4-.2.8-.3 1.4-.3zm-.2 1c-.7-.1-1.2 0-1.5.4-.3.5-.4 1.1-.5 1.9v.4c0 .7.2 1.4.5 1.9.2.4.7.7 1.5.7.4 0 .8-.2 1-.4.4-.2.6-.6.8-1l.1-1.2c0-1-.2-1.6-.5-2.1-.2-.4-.8-.7-1.4-.7zm10.9 2.6c0 1.1-.3 2-.7 2.7-.7.6-1.5.9-2.5.9a3.2 3.2 0 0 1-1.7-.5 3 3 0 0 1-1.1-1.2c-.3-.5-.4-1.2-.4-2 0-.9.3-1.9.9-2.5.5-.7 1.3-1.1 2.3-1.1.7.1 1.2.3 1.7.6a3 3 0 0 1 1.1 1.1c.3.5.4 1.2.4 2.1zm-5.2 0c0 .8.1 1.4.5 2 .3.3.8.6 1.5.6s1.2-.2 1.6-.7c.3-.5.5-1.1.5-2 0-.8-.2-1.3-.6-1.8-.3-.5-.8-.8-1.5-.8s-1.2.3-1.5.8c-.4.4-.5 1-.5 2zm12.2-3.5v6h1v3.4h-1v-2.4h-5.1v2.4h-.8v-3.4h.5c.5-.8 1-1.8 1.3-2.8a12 12 0 0 0 .4-3.2zm-1 .9H33a10.9 10.9 0 0 1-.8 3.6 7 7 0 0 1-.8 1.5h3.2zm4.5-.9v2.9H43v-2.9h1.2v7H43v-3.1h-3.8v3h-1v-6.8zm13.2 3.5c0 1.1-.3 2-.8 2.7-.6.6-1.4.9-2.4.9a3.2 3.2 0 0 1-1.7-.5 3 3 0 0 1-1.1-1.2c-.3-.5-.4-1.2-.4-2 0-.9.3-1.9.9-2.5.5-.7 1.3-1.1 2.3-1.1.8.1 1.2.3 1.8.6a3 3 0 0 1 1 1.1c.3.5.4 1.2.4 2.1zm-5.2 0c0 .8.1 1.4.5 2 .3.3.8.6 1.5.6s1.2-.2 1.6-.7c.2-.5.5-1.1.5-2 0-.8-.3-1.3-.5-1.8-.4-.5-.9-.8-1.6-.8-.7 0-1.2.3-1.5.8-.4.4-.5 1-.5 2zm0 0" style="fill:none;stroke:#fff;stroke-width:3;stroke-linecap:butt;stroke-linejoin:round;stroke-miterlimit:10;stroke-opacity:.6" transform=" rotate(  340 29.4303 163.366) "/> <g style="fill:#212121;fill-opacity:1" transform=" rotate(  340 29.4303 163.366) ">  <use xlink:href="#a" x="7.4" y="166.4"/>  <use xlink:href="#b" x="13.6" y="166.4"/>  <use xlink:href="#c" x="21.6" y="166.4"/>  <use xlink:href="#d" x="29.4" y="166.4"/>  <use xlink:href="#e" x="37" y="166.4"/>  <use xlink:href="#c" x="45.3" y="166.4"/> </g> <path d="M313.9 94.2h-1v-6.4h-2.1l-.3 1.6-.2 1.6-.3 1.2-.3 1.1c0 .4-.3.7-.5.8l-.8.2a2 2 0 0 1-.3 0l-.3-.1v-.8l.2.1h.3c.2.1.4.1.5-.1l.2-.7.2-.7.2-1.1.3-1.9.3-1.9h3.9zm2.6-5.4v4.5l2.8-4.5h1v5.4h-.6v-4.5l-2.9 4.5h-1.1v-5.4zm9.5 0v4.7h1V96h-1v-2h-3.7v2.2h-.9v-2.7h.6a6.9 6.9 0 0 0 .9-2.2 9.6 9.6 0 0 0 .4-2.5zm-.7.7h-1.2c-.1.5-.1 1-.3 1.5 0 .4-.2 1-.4 1.3l-.6 1.2h2.4zm4.7-.8c.5 0 1 .3 1.3.5.4.3.6.7.6 1.3v3.7h-.7l-.1-.8-.9.7-.9.2c-.7 0-1.1-.1-1.3-.4-.3-.2-.5-.7-.5-1.2s.2-1 .6-1.2c.5-.3 1.1-.5 2-.5h1v-.4c-.1-.4-.3-.6-.5-.9-.1-.2-.3-.2-.6-.2h-.9l-.7.5-.4-.8 1-.2 1-.3zm1 2.9h-.8c-.7 0-1.1.1-1.4.3-.2.2-.4.5-.4.8 0 .3.1.5.3.7l.7.2c.6 0 .9-.1 1.2-.4.3-.2.4-.6.4-1.1zm0 0" style="fill:none;stroke:#fff;stroke-width:3;stroke-linecap:butt;stroke-linejoin:round;stroke-miterlimit:10;stroke-opacity:.6" transform=" rotate(  340 320.951 91.1914) "/> <g style="fill:#212121;fill-opacity:1" transform=" rotate(  340 320.951 91.1914) ">  <use xlink:href="#f" x="307.8" y="94.2"/>  <use xlink:href="#g" x="314.8" y="94.2"/>  <use xlink:href="#h" x="321.3" y="94.2"/>  <use xlink:href="#i" x="327.1" y="94.2"/> </g> <path d="m100.3 19.6 1.5-7.1h1.7c.9 0 1.6.2 2 .7.5.5.8 1.2.8 2.1a5 5 0 0 1-.5 2.3 3.7 3.7 0 0 1-1.4 1.4c-.7.5-1.4.6-2.4.6zm1-.6h.9c.6-.1 1.2-.3 1.8-.6a3 3 0 0 0 .9-1.3 4.2 4.2 0 0 0 .5-1.8c-.1-.7-.2-1.2-.6-1.6-.3-.3-.8-.4-1.4-.4h-.8zm5.1.6.2-.6 3.3-4h-2.3l.1-.8h3.3l-.2.8-3.2 4h2.4v.6Zm6.6.1c-.6 0-.9 0-1-.3-.4-.2-.5-.6-.5-1V18l.2-.5.7-3.2h.9l-.7 3.4-.1.6.1.5.6.2c.2 0 .5 0 .7-.2l.8-.8c.2-.4.3-.8.5-1.4l.5-2.3h.8l-1.1 5.3h-.7v-1c0 .3-.2.4-.4.7l-.6.3-.8.1zm.2-6.1.2-.7h2.7l-.1.7zm3.9 6 1.6-7.6h.9l-.6 3-.3 1.4-.2.5 2.5-2.6h1l-2.1 2.3 1.3 3h-1l-1-2.5-.9.6-.3 2zm6.9-6.2-.5-.1-.1-.4c0-.2 0-.3.2-.4 0-.2.2-.2.4-.2.3 0 .5.1.5.4 0 .3 0 .4-.2.5l-.4.2zm-2 6.2 1.3-5.3h.8l-1.2 5.3zm4.5-6.2-.5-.1v-.8c.4-.2.5-.2.7-.2.2 0 .4.1.4.4l-.2.5-.4.2zm-2.8 8.6h-.6v-.9h.3l.3.3c.3-.1.7-.4.8-1.1l1.3-6h.9l-1.4 6.1c0 .5-.2.9-.5 1.2-.2.3-.6.4-1 .4zm5.7-2.3c-.6 0-1-.2-1.4-.5-.4-.4-.6-1-.6-1.5s0-.9.2-1.3a4 4 0 0 1 .4-1c.3-.4.6-.8.9-1l1.2-.2c.6 0 1.1.2 1.5.6.3.2.4.8.4 1.5.1.4.1.7-.1 1.2a4 4 0 0 1-.5 1.1l-.8.8c-.3.2-.7.3-1.2.3zm0-.7c.5 0 .8-.1 1.1-.3l.5-1 .2-1.5-.1-.6a1 1 0 0 0-.4-.6h-.6c-.4 0-.7.1-1 .3l-.5 1a4 4 0 0 0-.3 1.4c0 .3.1.7.3 1 .2.2.5.3.9.3zM134.1 19.7h-.8l-.7-.4v-.7l.7.3.7.1c.5 0 .8 0 1-.2l.3-.6c0-.2 0-.4-.2-.5l-.7-.5c-.4-.2-.7-.4-.9-.7l-.2-.8c0-.5.1-.8.4-1 .4-.5.8-.6 1.4-.6h.9c.2.4.5.4.7.5l-.3.6-.6-.2h-1.4c-.2.3-.4.4-.4.7.1.1.1.3.3.3l.7.6.6.4.4.4.2.7c0 .5-.2.9-.6 1.2-.3.3-.8.4-1.5.4zM91.9 31.6l1.1-5.4h.8l-.1 1 .5-.5a2 2 0 0 1 .5-.4l.8-.3c.5 0 .8.2 1 .5.3.2.5.5.5 1v.3l-.2.5-.7 3.3H95l1-3.4v-.7c0-.4-.2-.5-.6-.5-.4-.1-.6-.1-.8 0l-.8 1-.5 1.3-.5 2.3zm7.5.1c-.5 0-.8-.2-1-.5-.4-.2-.6-.8-.6-1.4.2-.5.2-1 .3-1.4l.6-1.2.8-.8a2 2 0 0 1 1-.3c.5 0 .7.1.9.3l.5.6.4-.8h.6l-1.1 5.4h-.8l.2-1-.8.8c-.4.2-.7.3-1 .3zm.3-.7.7-.3.6-.7a4 4 0 0 0 .5-1 3 3 0 0 0 0-.7 4 4 0 0 0 .1-.4c0-.3 0-.5-.2-.7-.2-.2-.4-.3-.8-.3-.2 0-.5 0-.6.1a2 2 0 0 0-.7.8l-.3 1v2c.2.1.4.2.7.2zm5.9.7c-.6 0-1-.2-1.6-.5-.2-.4-.4-.9-.4-1.5 0-.5 0-1 .2-1.4l.5-1.1 1-.8c.2-.2.7-.3.9-.3l1 .1.5.2-.2.6h-1.1c-.4-.1-.7-.1-1 .3-.4.1-.5.5-.7 1a4 4 0 0 0-.2 1.4c0 .3 0 .7.3 1 .2 0 .5.3.9.3l.6-.1a7 7 0 0 0 .7-.3v.8l-.7.2h-.7zm4.2-6.4-.4-.1-.1-.3.1-.5.6-.2c.2 0 .3.2.3.5l-.1.5-.4.1zm-1.9 6.3 1.2-5.4h.8l-1.1 5.4zm4.8.1c-.6 0-1.1-.2-1.5-.7-.2-.3-.5-.8-.5-1.4 0-.4 0-.8.3-1.2a4 4 0 0 1 .4-1.1c.2-.4.5-.6.8-.8.4-.3.8-.5 1.2-.5.6.1 1 .3 1.4.7.4.4.6.9.6 1.5 0 .4 0 .8-.2 1.2a4 4 0 0 1-.5 1.1c-.2.5-.5.7-.7.9-.5.2-.8.3-1.3.3zm0-.8c.5.1.8.1 1.1-.3l.4-1 .3-1.5-.1-.6a1 1 0 0 0-.4-.4c0-.2-.3-.2-.6-.2-.4 0-.7.1-1 .4l-.6 1a4 4 0 0 0-.2 1.3c0 .4.1.8.3 1 .1.2.5.3.9.3zM116 31.6l1.3-5.4h.7v1c0-.2.1-.4.3-.5a2 2 0 0 1 .7-.4l.7-.3c.5 0 .8.2 1 .5.3.2.4.5.4 1v.7l-.9 3.4h-.9l.9-3.4v-.7c0-.4-.2-.5-.6-.5-.3-.1-.6-.1-.8 0-.3.3-.5.5-.8 1-.2.2-.3.7-.5 1.3l-.5 2.3zm7.6.1c-.6 0-.8-.2-1-.5-.4-.2-.6-.8-.6-1.4.1-.5.1-1 .3-1.4l.7-1.2.7-.8a2 2 0 0 1 1-.3c.5 0 .8.1 1.1.3l.2.6.6-.8h.4l-1 5.4h-.7l.1-1-.8.8c-.3.2-.7.3-1 .3zm.3-.7.7-.3.6-.7a4 4 0 0 0 .5-1 3 3 0 0 0 0-.7 4 4 0 0 0 .2-.4c-.1-.3-.1-.5-.4-.7-.1-.2-.4-.3-.7-.3-.2 0-.5 0-.7.1a2 2 0 0 0-.6.8c-.1.2-.3.6-.3 1l-.2 1c0 .5 0 .8.2 1 .2.1.4.2.8.2zm3.7.6 1.6-7.6h.9l-1.6 7.6zm4.4-6.3-.3-.1-.1-.3.1-.5.4-.2c.3 0 .5.2.5.5 0 .2 0 .3-.2.5l-.4.1zm-1.8 6.3 1.1-5.4h.9l-1.1 5.4zm2.5 0 1.3-5.4h.7l-.2 1 .5-.5a2 2 0 0 1 .6-.4l.8-.3c.4 0 .6.2 1 .5.2.2.3.5.3 1v.7l-.9 3.4h-.8l.8-3.4v-.7c0-.4-.1-.5-.6-.5-.2-.1-.5-.1-.8 0-.2.3-.5.5-.7 1-.2.2-.4.7-.5 1.3l-.5 2.3zm7.7-6.3-.3-.1-.2-.3c.1-.2.1-.4.2-.5l.4-.2c.3 0 .5.2.5.5 0 .2 0 .3-.2.5l-.4.1zm-1.8 6.3 1.1-5.4h.9l-1.2 5.4zm3.8.1-.9-.1-.5-.3v-.8l.6.3.8.2c.4 0 .6-.1.9-.3.2-.1.3-.3.3-.6 0-.1 0-.3-.2-.5l-.7-.5-.9-.6c-.2-.2-.3-.5-.3-.9s.2-.8.5-1c.4-.4.8-.6 1.4-.6l.8.2.8.3-.3.7-.6-.2-.7-.1c-.4 0-.6 0-.7.1-.2.2-.3.4-.3.6s0 .3.2.4c.1.2.3.3.7.5l.6.5.4.4.2.6c0 .6-.2 1-.6 1.3-.4.2-.9.4-1.5.4zM103 46l1.6-7.9h.7v1.1l.7-.8c.4-.2.7-.4 1-.4s.8.2 1 .5c.4.3.5.8.5 1.5 0 .4 0 .9-.2 1.3l-.5 1.2-.8.8a2 2 0 0 1-1.1.3c-.4 0-.7 0-.9-.3a2 2 0 0 1-.5-.6v.4l-.3.5-.2 2.4zm2.8-3.2c.3.1.5.1.8-.2l.4-.6a4 4 0 0 0 .5-1 5 5 0 0 0 .1-1.1c0-.7-.3-1.1-.8-1.1-.3 0-.5 0-.8.2l-.6.7-.4 1-.2 1.1c0 .3 0 .6.3.8.1.2.4.3.7.3zM111 43.6c-.6 0-.9-.1-1.2-.4-.2-.4-.3-.8-.3-1.4 0-.5 0-1 .2-1.4l.5-1.2c.2-.4.5-.6.8-.8a2 2 0 0 1 1.1-.4c.4 0 .6 0 .9.3l.4.7h.1l.3-.8h.7l-1.1 5.3h-.7v-1l-.7.8c-.4.2-.7.3-1 .3zm.1-.6c.4-.1.6-.2.9-.4l.6-.6a4 4 0 0 0 .4-1.1 3 3 0 0 0 .1-.6 4 4 0 0 0 0-.3c.1-.5.1-.7-.1-1-.3-.1-.5-.2-.8-.2-.3 0-.5 0-.7.2a2 2 0 0 0-.6.7l-.4 1-.1 1.1c0 .4 0 .6.2.8.1.2.3.4.6.4zm3.9.5 1-5.3h.8v1l.4-.7.5-.3.7-.1h.6l-.2.9h-.5c-.4-.1-.7-.1-1 .2l-.5.8-.4 1-.6 2.6zm4 0 1.4-7.5h1.1l-.8 3-.2 1.2-.2.5 2.7-2.4h.9l-2.3 2.2 1.4 3h-1l-1-2.5-.9.6-.3 2zm6.5.1c-.4 0-.7-.1-1-.4-.3-.4-.4-.8-.4-1.4-.1-.5-.1-1 .2-1.4l.5-1.2c.3-.4.5-.6.9-.8a2 2 0 0 1 1-.4c.4 0 .7 0 .9.3l.4.7.4-.8h.7l-1.1 5.3h-.7l.1-1c-.4.3-.5.6-.9.8-.3.2-.5.3-1 .3zm.3-.6c.3-.1.5-.2.7-.4l.7-.6a4 4 0 0 0 .4-1.1 3 3 0 0 0 .1-.6 4 4 0 0 0 0-.3c.1-.5.1-.7-.1-1-.3-.1-.5-.2-.8-.2-.3 0-.5 0-.7.2a2 2 0 0 0-.6.7l-.4 1-.1 1.1c0 .4 0 .6.2.8.1.2.4.4.6.4zm5 .6h-.8l-.7-.4v-.7l.7.3h1.8l.2-.8c0-.1 0-.3-.2-.4-.1-.2-.3-.3-.7-.6-.4-.1-.6-.3-.8-.6-.3-.2-.3-.4-.3-.8 0-.6 0-.8.5-1.1.3-.3.7-.5 1.3-.5h.9l.7.5-.3.6-.6-.1-.7-.2c-.3 0-.5 0-.8.2-.1.1-.1.3-.1.5l.1.5.7.5c.3.1.5.2.6.4l.5.4.1.7c.1.5-.2 1-.5 1.2-.4.3-1 .4-1.6.4zm0 0" style="fill:none;stroke:#fff;stroke-width:2;stroke-linecap:butt;stroke-linejoin:round;stroke-miterlimit:10;stroke-opacity:.6" transform="rotate(  340 119.362 56.1632) translate(0,27.586153)"/> <g style="fill:#007f00;fill-opacity:1" transform=" rotate(  340 119.362 56.1632) ">  <use xlink:href="#j" x="99.9" y="47.2"/>  <use xlink:href="#k" x="106.6" y="47.2"/>  <use xlink:href="#l" x="111" y="47.2"/>  <use xlink:href="#m" x="116.8" y="47.2"/>  <use xlink:href="#n" x="121.8" y="47.2"/>  <use xlink:href="#o" x="124.4" y="47.2"/>  <use xlink:href="#p" x="126.9" y="47.2"/>  <use xlink:href="#q" x="132.6" y="47.2"/>  <use xlink:href="#r" x="91.6" y="59.2"/>  <use xlink:href="#s" x="97.4" y="59.2"/>  <use xlink:href="#t" x="103.1" y="59.2"/>  <use xlink:href="#n" x="107.6" y="59.2"/>  <use xlink:href="#p" x="110.2" y="59.2"/>  <use xlink:href="#r" x="115.9" y="59.2"/>  <use xlink:href="#s" x="121.6" y="59.2"/>  <use xlink:href="#u" x="127.3" y="59.2"/>  <use xlink:href="#n" x="129.9" y="59.2"/>  <use xlink:href="#r" x="132.5" y="59.2"/>  <use xlink:href="#n" x="138.3" y="59.2"/>  <use xlink:href="#q" x="140.9" y="59.2"/>  <use xlink:href="#v" x="103.2" y="71.1"/>  <use xlink:href="#s" x="109" y="71.1"/>  <use xlink:href="#w" x="114.7" y="71.1"/>  <use xlink:href="#m" x="118.7" y="71.1"/>  <use xlink:href="#s" x="123.6" y="71.1"/>  <use xlink:href="#q" x="129.3" y="71.1"/> </g></svg>