<svg xmlns="http://www.w3.org/2000/svg" xmlns:xlink="http://www.w3.org/1999/xlink" viewBox="0 0 497 279"> <defs overflow="visible" style="stroke:none">  <path id="g" d="M5.2-7.6c0 .6-.2.9-.5 1.2-.3.2-.8.3-1.4.3-.7.1-1.1.1-1.4-.3-.3-.3-.4-.7-.4-1.2h.8c0 .4.1.6.3.7.1.2.4.2.7.2.3 0 .7 0 .7-.2.2 0 .3-.3.4-.7ZM1.7-5.4v3.7a18.9 18.9 0 0 0 0 .7l2.7-4.4h1.1V0h-.7v-4.1l.1-.4-3 4.5H1v-5.4Zm0 0"/>  <path id="f" d="M4.5-4.6H2.8V0h-.9v-4.6H.2v-.8h4.3Zm0 0"/>  <path id="e" d="M3 0c-.5 0-.9 0-1.3-.1-.3-.3-.6-.6-.7-.9-.4-.5-.5-1-.5-1.7 0-.6.2-1.1.5-1.5 0-.6.4-.8.8-1.1.2-.1.8-.2 1.2-.2l.8.1.7.2-.3.8-.6-.2H3c-1-.1-1.5.6-1.5 1.9 0 .7 0 1 .3 1.4.3.5.7.6 1.2.6h.8l.6-.3v.8a2 2 0 0 1-.6.2H3Zm0 0"/>  <path id="d" d="M2.9-5.5c.6 0 1.1.2 1.4.5.3.3.5.7.5 1.3V0h-.6L4-.8c-.3.3-.5.6-.8.8h-1c-.5 0-1 0-1.3-.3C.6-.5.5-.9.5-1.5c0-.5.2-1 .5-1.2.5-.3 1-.5 2-.5h.8v-.3c.2-.5.2-.8-.2-1l-.8-.2H2l-.7.5L1-5l1-.3.9-.2Zm1 2.9h-.8c-.6 0-1 .1-1.4.3-.1.3-.3.5-.3.8 0 .3 0 .5.2.7l.7.2c.5 0 .9-.1 1.2-.4.3-.2.4-.6.4-1Zm.1 0"/>  <path id="c" d="M1.7-5.4v3.7a18.9 18.9 0 0 0 0 .7l2.7-4.4h1.1V0h-.7v-4.1l.1-.4-3 4.5H1v-5.4Zm0 0"/>  <path id="b" d="M5 0H4v-4.6H2.5L2-2 1.5-.4c-.3.3-.6.4-1 .4H0v-.7h.4c.3.1.6-.3.8-.9.2-1 .4-2.2.5-3.9h3.2Zm0 0"/>  <path id="a" d="M6.2-7.1 4-2.1a7 7 0 0 1-.7 1.4l-.8.6-1 .1h-1v-1l.4.3h.5c.4 0 .6 0 .9-.3.2 0 .3-.4.6-.8L0-7.1h1.1L3-3.2l.2.2.1.3.3-.2v-.3l1.8-4Zm0 0"/>  <path d="M1 0v-7.1h4V0Zm.4-.5h3.1v-6.1h-3Zm.1 0"/> </defs> <image xlink:href="svg/9/31_8.jpg" width="497" height="279"/> <path d="m85.9 70.2-2.3 5a7 7 0 0 1-.6 1.4l-.8.6-1.1.2h-.5l-.6-.3v-.6h1c.4.1.7.1 1-.1.1-.2.3-.4.5-.9l-2.7-5.3h1l1.9 3.8v.3l.3.3.1-.2.1-.4 1.8-3.9Zm4.3 7.1h-.9v-4.6h-1.6c0 1.1-.2 2-.3 2.7l-.6 1.5c-.3.3-.6.5-1 .5h-.2l-.2-.2v-.6h.3c.3.1.6-.2.8-.9.2-1 .4-2.2.5-3.9h3.2Zm2.6-5.3v4l-.2.4 3-4.4h1v5.3h-.8v-4.5L93 77.3h-1v-5.4Zm7.6-.2c.6 0 1.1.2 1.4.5.3.3.5.7.5 1.3v3.7h-.6l-.2-.8c-.3.3-.5.6-.8.7l-1 .2c-.5 0-1-.1-1.3-.4-.3-.2-.4-.6-.4-1.2 0-.5.2-1 .6-1.2.4-.3 1-.6 2-.6h.7v-.2c.1-.5.1-.8-.2-1l-.8-.2h-.8l-.7.4-.3-.7.9-.3 1-.2Zm1 2.9h-.8c-.6 0-1 .1-1.3.3-.3.2-.5.5-.5.8.1.3.1.5.2.7l.8.2c.5 0 .9-.1 1.2-.4.3-.2.4-.6.4-1.1Zm4.7 2.7c-.5 0-.9-.1-1.3-.4-.3 0-.6-.4-.8-.8-.2-.4-.3-1-.3-1.6 0-.6 0-1.1.3-1.6.2-.4.5-.7.9-.9.4-.1.8-.3 1.3-.3l.8.2.6.1-.3.9-.6-.3h-.5c-1.2-.1-1.6.5-1.6 1.9 0 .6 0 1 .4 1.4.2.5.6.6 1 .6h1l.5-.4v.9a2 2 0 0 1-.6.2h-.9Zm6.4-4.7h-1.8v4.6h-.9v-4.6h-1.7v-.8h4.4Zm3-.9c.7 0 1.2.2 1.5.5.3.3.5.7.5 1.3v3.7h-.7l-.1-.8-.9.7-.9.2c-.7 0-1.1-.1-1.4-.4-.2-.2-.4-.6-.4-1.2 0-.5.2-1 .7-1.2.4-.3 1-.6 1.9-.6h1v-.2c-.1-.5-.3-.8-.5-1l-.7-.2h-.8l-.7.4-.3-.7.8-.3 1-.2Zm1.1 2.9h-.8c-.7 0-1.1.1-1.4.3-.2.2-.4.5-.4.8 0 .3.1.5.3.7l.7.2c.5 0 1-.1 1.2-.4.3-.2.4-.6.4-1.1Zm6.9-5c0 .5-.2.9-.5 1.3-.3 0-.8.2-1.4.2-.7 0-1.1 0-1.4-.2-.3-.4-.4-.8-.5-1.3h.9c0 .4 0 .6.2.7.2.2.5.2.8.2.3 0 .4 0 .7-.2.2-.1.3-.3.3-.7ZM120 72v3.6a18.9 18.9 0 0 0 0 .8l2.7-4.4h1.1v5.3h-.8v-4.5l-2.7 4.5h-1.1v-5.4Zm0 0" style="fill:none;stroke-width:3;stroke-linecap:butt;stroke-linejoin:round;stroke:#fff;stroke-opacity:.6;stroke-miterlimit:10" transform=" rotate(  340 101.786 74.2951) "/> <g style="fill:#222;fill-opacity:1" transform=" rotate(  340 101.786 74.2951) ">  <use xlink:href="#a" x="79.7" y="77.3"/>  <use xlink:href="#b" x="85.3" y="77.3"/>  <use xlink:href="#c" x="91.1" y="77.3"/>  <use xlink:href="#d" x="97.5" y="77.3"/>  <use xlink:href="#e" x="103.1" y="77.3"/>  <use xlink:href="#f" x="107.9" y="77.3"/>  <use xlink:href="#d" x="112.7" y="77.3"/>  <use xlink:href="#g" x="118.3" y="77.3"/> </g></svg>