<svg xmlns="http://www.w3.org/2000/svg" xmlns:xlink="http://www.w3.org/1999/xlink" viewBox="0 0 497 279"> <defs overflow="visible" style="stroke:none">  <path id="d" d="M10.6-9.7v1.2h-3v-1.2Zm-3 3v-1h3v1.1Zm2.9.9v.8c.1.4.1.5-.1.5H9l.3.7 1.8-.1c.4-.2.5-.4.5-1.1v-5.4H6.7v2.6c0 1.2-.2 2.5-1.5 3.5l.8.8c.7-.7 1.2-1.6 1.4-2.5ZM4.6-9.5V-8H2.2v-1.5ZM2.2-6v-1.3h2.4V-6Zm0 .8h3.3v-5H1.3v5.6h1ZM3-2.6h1.7v2.4H3Zm4.3 0v2.4H5.6v-2.4Zm2.7 0v2.4H8.2v-2.4Zm1 2.4v-3.2H2v3.2H.6v.8h11.8v-.8Zm0 0"/>  <path id="c" d="M9.6-1.8v1.7H3.5v-1.7ZM2.6 1h.8V.5h6.1V1h1.1v-3.5h-8ZM6-5.5V-4H3.9l.4-.2a4.4 4.4 0 0 0-.7-1.3Zm3.4 0-.8 1.3.4.2H7v-1.5ZM9.5-4a9 9 0 0 0 .8-1.3l-.8-.2H12v-.7H7v-.9h3.8v-.7H7v-.9h4.6v-.7H9l.8-1.3-1-.2L8-9.4H4.8 5L4-11l-.7.4.7 1.2H1.5v.7H6v.9H2.2v.7H6v.9H1v.7h2.4l-.7.2.7 1.3H.7v.7h11.6v-.8Zm0 0"/>  <path id="b" d="M12.3-8.4H9v-2.3H8v2.3H5.3v1h7ZM7.9-1.2A28 28 0 0 0 7-6.8l-.9.1C6.6-4.8 7-2.4 7-1ZM5.1-4.5v-.8l-1.8.5v-2.6H5v-.8H3.4V-11h-.9v2.8H.7v.7h1.8v2.9L.5-4l.2 1 1.8-.6v3.5c0 .1 0 .1-.3.1H1l.2 1C2.1 1 2.6 1 3 .8c.3-.1.4-.4.4-1v-3.6ZM10-.4c.3-1.9.9-4.4 1.2-6.4h-1L9-.5H4.6v1h7.9V-.6Zm-.1-.1"/>  <path id="a" d="M4.2-10.4H1V1h1V-9.4h1.7l-1 2.9c.8 1 1 1.9 1 2.5.1.5.1.9-.2 1H2.4l.2 1h.9c.3 0 .5-.2.7-.3.3-.2.5-.8.5-1.5 0-.8-.2-1.7-1.2-2.8A62 62 0 0 0 4.8-10Zm4 4v3h-2v-3ZM9-2.6v-4.7H5.4v5.7h.8v-1Zm3.5-7.4H5v1h5.5v8.7c0 .3-.2.3-.5.3H7.8l.3 1c1.4 0 2.2 0 2.6-.2.5-.1.7-.3.7-1v-8.9h1Zm0 0"/>  <path d="M1.3 1.6h10.4v-13H1.3Zm5.2-7-4.1-5.5h8.2Zm.4.4 4.1-5.2V.3ZM2.4.9l4.1-5.3L10.6.9ZM2-10.3l4 5.5L2 .4Zm0 0"/> </defs> <image xlink:href="svg/9/34_0.jpg" width="497" height="279"/> <path d="M350.5 267.8h-3.1V279h.9v-10.3h1.7l-1 2.9c.9 1 1 1.9 1 2.6.1.4.1.8-.2 1h-1.1l.2.9h1.1l.4-.3c.4-.2.6-.8.6-1.5 0-.8-.2-1.7-1.2-2.8a62 62 0 0 0 1.3-3.5zm4 3.9v3h-2v-3zm.9 3.8v-4.7h-3.7v5.7h.8v-1zm3.4-7.4h-7.5v1h5.5v8.7c0 .2-.1.4-.4.4H354l.5.9 2.5-.1c.5-.2.7-.4.7-1.1V269h1.1zm12.8 1.7h-3.2v-2.4h-1v2.4h-2.8v.8h7zm-4.4 7a28 28 0 0 0-.9-5.3h-.9c.5 1.8.9 4.2 1 5.6zm-2.6-2.9-.3-1.2-1.5.6v-2.6h1.3v-.7h-1.3v-2.8h-1v2.8H360v.7h1.8v2.8l-2 .6.2.9 1.8-.5v3.5c0 .2 0 .2-.2.2h-1.4l.3.9c1 0 1.5 0 1.8-.2.3-.1.4-.4.4-.9v-3.7zm4.6 3.6c.4-1.5 1-4.1 1.3-6.1l-1-.1-1.2 6.3h-4.4v1h7.9v-1zM381.9 276.4v1.5h-6.1v-1.5zm-7 2.6h.8v-.3h6.1v.3h1.1v-3.4h-8zm3.3-6.3v1.3h-2 .4a4.4 4.4 0 0 0-.6-1.3zm3.5 0-.8 1.2.4.1h-2v-1.3zm.1 1.3a9 9 0 0 0 .8-1.2l-.6-.1h2.3v-.8h-5v-.9h3.7v-.7h-3.7v-.9h4.6v-.7h-2.6l.7-1.2-1-.3-.7 1.5h-3.2.2l-.9-1.6-.8.4.7 1.2h-2.5v.7h4.5v.9h-3.7v.7h3.7v1h-4.9v.6h2.3l-.7.2.7 1.2H373v.8h11.6v-.8zm14.2-5.6v1.2h-3v-1.2zm-3.2 3 .2-.9v-.3h3v1.3zm3.2.9v.9c0 .3 0 .4-.3.4h-1.4l.3.7 1.8-.1c.4-.2.6-.4.6-1v-5.5h-5v2.6c0 1.2-.2 2.7-1.5 3.7.3-.1.6.3.7.5.8-.6 1.3-1.5 1.5-2.3zm-6.1-3.7v1.4h-2.4v-1.4zm-2.4 3.5v-1.3h2.5v1.2zm0 .9h3.3v-5h-4.1v5.5h.8zm.8 2.5h1.7v2.5h-1.7zm4.4 0v2.5h-1.8v-2.5zm2.6 0v2.5h-1.8v-2.5zm1 2.5v-3.3h-8.9v3.3H386v.7h11.7v-.7zm0-.1" style="fill:none;stroke:#fff;stroke-width:3;stroke-linecap:butt;stroke-linejoin:round;stroke-miterlimit:10;stroke-opacity:.6" transform="rotate(  340 372.312 167.533) translate(0,-107.58051)"/> <g style="fill:#212121;fill-opacity:1" transform=" rotate(  340 372.312 167.533) ">  <use xlink:href="#a" x="346.3" y="170.5"/>  <use xlink:href="#b" x="359.3" y="170.5"/>  <use xlink:href="#c" x="372.3" y="170.5"/>  <use xlink:href="#d" x="385.3" y="170.5"/> </g></svg>