<svg xmlns="http://www.w3.org/2000/svg" xmlns:xlink="http://www.w3.org/1999/xlink" viewBox="0 0 497 279"> <defs>  <path d="M1 0v-7.1h4V0Zm.4-.5h3.1v-6.1h-3Zm.1 0" id="reuse-0"/> </defs> <defs overflow="visible" style="stroke:none">  <path id="F" d="M2.4-.5 2-1l1.4-1.6-.8-1.9.6-.2 1.1 2.2v.1ZM.6-.5 0-1l1.5-1.7-.8-1.8.6-.2 1 2v.1Zm0-.1"/>  <path id="E" d="m-.4 0 2.5-3.3a2 2 0 0 1-.6-.5c-.2-.3-.3-.6-.3-1 0-.7.1-1.1.3-1.5.3-.2.6-.5 1-.6.5-.2.9-.2 1.5-.2h1.8L4.3 0h-1L4-3H3L.6 0Zm3.9-3.7h.7l.5-2.7H4c-.5 0-.8 0-1.1.2-.1 0-.3.2-.5.4l-.3.9.3.9c.2.2.6.3 1 .3Zm0 0"/>  <path id="D" d="M3.6-6c-.6 0-1-.3-1.2-.5-.4-.1-.4-.4-.4-.8a1 1 0 0 1 0-.3h.9v.3c-.1.2-.1.3.1.3 0 .3.3.3.7.3.3 0 .5 0 .7-.2.2-.1.4-.3.4-.7h.9c-.1.6-.3.8-.7 1.1-.3.3-.8.5-1.4.5ZM1.9 0c-.4 0-.7 0-1-.1C.7-.5.5-.8.5-1.2v-.5L.8-2l.6-3.4h.9L1.4-2v1.2l.8.2c.2 0 .4-.1.8-.4l.6-.6.5-1.4.5-2.4h.9L4.4 0h-.8l.1-1-.5.5-.4.5-.9.1Zm0 0"/>  <path id="C" d="M2.4 0c-.6 0-1 0-1.4-.2C.8-.5.6-.9.6-1.4V-2a5 5 0 0 1 .2-.4l.6-3h.9L1.8-3l.5-.1h.5c.6-.1 1-.1 1.2.2.3.4.5.7.5 1.1s-.1.8-.3 1.1c-.1.2-.4.4-.7.5-.3.2-.7.3-1.1.3ZM5 0l1-5.4h1L5.8 0ZM2.4-.6c.4 0 .7-.1.9-.4a1 1 0 0 0 .3-.7l-.3-.6-.7-.1h-1v.6l-.2.3c.1.3.1.5.3.5.1.3.4.4.7.4Zm0 0"/>  <path id="B" d="M2.5 0C1.9 0 1.4 0 1-.3.7-.7.5-1.2.5-2c0-.4 0-1 .2-1.3l.5-1c.3-.5.6-.7 1-1 .2-.1.6-.2.9-.2l.9.1.6.2-.2.7-.5-.1-.6-.1c-.4 0-.7.1-1 .4-.3.2-.5.6-.7 1A4 4 0 0 0 1.4-2c0 .5 0 .8.3 1 .2.2.5.3.9.3h.6a7 7 0 0 0 .6-.3v.8l-.6.2h-.7Zm0 0"/>  <path id="A" d="m-.2 2.4 1.6-7.8h.7v1l.7-.6c.3-.3.7-.5 1-.5.5 0 .8.2 1 .5.5.3.6.8.6 1.4-.1.5-.1 1-.3 1.4L4.6-1l-.8.8a2 2 0 0 1-1.1.3C2.3 0 2 0 1.8-.2a2 2 0 0 1-.5-.6v.4L1 .1.7 2.4Zm2.8-3c.4 0 .5-.1.7-.4.3 0 .5-.3.7-.6a4 4 0 0 0 .3-1 5 5 0 0 0 .1-.9c0-.9-.3-1.2-.9-1.2-.2 0-.4 0-.5.2l-.8.7-.4 1c-.2.3-.2.7-.2 1.1 0 .3 0 .6.2.8.2.2.5.3.8.3Zm0 0"/>  <path id="z" d="M.4 0 2-7.1h1L2-3.7 5.4-7h1.1L3-3.6 5.2 0h-1L2-3.5 1.3 0Zm0 0"/>  <path id="y" d="m1.5-.5-1-2.2v-.1l1.7-1.9.6.4-1.5 1.6.9 1.9Zm2 0-1.2-2v-.2l1.9-2 .5.4-1.4 1.8L4-.8Zm-.1 0"/>  <path id="x" d="M1.9 0c-.4 0-.7 0-1-.1C.7-.5.5-.8.5-1.2v-.5L.8-2l.6-3.4h.9L1.4-2v1.2l.8.2c.2 0 .4-.1.8-.4l.6-.6.5-1.4.5-2.4h.9L4.4 0h-.8l.1-1-.5.5-.4.5-.9.1Zm0 0"/>  <path id="w" d="m.3 0 1.1-5.4h.9L1.8-3h2.5l.5-2.4h.9L4.6 0h-1l.7-2.4H1.7L1.2 0Zm0 0"/>  <path id="v" d="M1.5 0a4 4 0 0 1-.8 0A3 3 0 0 1 0-.2V-1l.7.2.9.2c.4 0 .8-.1 1-.4.4 0 .4-.3.4-.6 0-.4 0-.4-.2-.6L2-2.4h-.8l.2-.8h1.1c.3 0 .5-.2.6-.3l.2-.5c0-.3 0-.4-.2-.5-.2-.2-.4-.2-.6-.2h-.7l-.8.4L.8-5a4 4 0 0 1 1.8-.5c.4 0 .9.2 1.1.5.3 0 .6.4.6.8s-.3.7-.5.9c-.2.2-.5.4-.8.5.2 0 .4.2.6.4l.2.7c0 .5-.2 1-.5 1.3-.4.3-1 .4-1.9.4Zm0 0"/>  <path id="u" d="m.3 0 1.1-5.4h.9l-.6 2.6 2.5-2.6h1.1L2.7-2.7 4.5 0h-1L1.6-2.7 1.2 0Zm0 0"/>  <path id="t" d="M2 0c-.6 0-.9 0-1.2-.3C.6-.7.5-1 .5-1.7c0-.5 0-1 .2-1.5l.5-1.1c.2-.4.5-.7.8-.9a2 2 0 0 1 1.1-.3c.4 0 .6.1.9.3l.5.7.3-.9h.7L4.4 0h-.7l.1-1c-.3.3-.5.6-.9.8-.3.2-.6.2-.9.2Zm.1-.5c.4-.1.6-.2.9-.5l.6-.6a4 4 0 0 0 .4-1 3 3 0 0 0 .1-.7 4 4 0 0 0 0-.4c.1-.3.1-.5-.1-.7-.3-.2-.5-.3-.8-.3-.3 0-.5 0-.7.2a2 2 0 0 0-.6.7l-.4 1-.1 1.1c0 .4 0 .6.2.8.1.2.3.3.6.3Zm.1-.1"/>  <path id="s" d="M2 0C1.1 0 .4 0 0-.2v-.9a4 4 0 0 0 2 .5l1-.2.7-.6.2-.6c0-.6-.2-1-.4-1.1l-1.2-.1h-1l.1-.8h1c.3 0 .6 0 .9-.2.3 0 .5-.2.7-.5.2-.2.3-.5.3-.8 0-.5 0-.6-.3-.8l-.8-.2c-.2 0-.6 0-.9.2a4 4 0 0 0-.8.3l-.4-.6a4 4 0 0 1 2.3-.6c.6 0 1 .1 1.4.4.2.3.5.7.5 1.1 0 .7-.3 1-.5 1.3-.5.4-.8.6-1.4.7.4 0 .7.3 1 .5.3.3.4.6.4 1.2a2 2 0 0 1-.3 1c-.2.3-.6.6-1 .8-.4.2-1 .3-1.5.3Zm0 0"/>  <use xlink:href="#reuse-0"/>  <path id="q" d="M5.5-2.7c0 .9-.2 1.7-.7 2-.4.7-1 .9-1.8.9-.5-.2-.9-.2-1.3-.4-.3-.2-.6-.6-.7-1C.6-1.6.5-2 .5-2.7c0-.9.3-1.6.7-2 .5-.5 1-.8 1.8-.8.5 0 1 .2 1.3.5.4 0 .7.4.9.9.2.2.3.7.3 1.3Zm-4 0c0 .7 0 1.2.3 1.5.3.4.7.6 1.2.6.6 0 1-.2 1.2-.6.3-.3.4-.8.4-1.5s-.1-1.1-.4-1.5c-.2-.3-.6-.5-1.2-.5-.5 0-1 .2-1.2.5-.2.4-.3.9-.3 1.5Zm0 0"/>  <path id="p" d="M1.2 0h-1l1.5-2.3c-.2 0-.4 0-.7-.2A1.5 1.5 0 0 1 .6-3l-.2-.8c0-.5.2-.9.6-1.2.3-.2.8-.4 1.3-.4h2.4V0H4v-2.1H2.6Zm.1-3.8c0 .3.1.6.3.8.4.1.6.1 1 .1h1.3v-1.7H2.4c-.4 0-.7 0-.9.2l-.2.6Zm0 0"/>  <path id="o" d="M0-5.4h1l1 3 .4 1 .2.6.2-.7c0-.3.2-.5.2-.8l1-3h1.2L2.8.6c-.2.6-.4 1.1-.7 1.4-.3.3-.7.4-1.3.4H.1v-.9h.6c.3.2.6.2.7 0L2 .7l.2-.7Zm0 0"/>  <path id="n" d="M1 0v-7.1h4.2v.8H1.9v2.2h1c.7 0 1.3 0 1.7.1.4.3.7.6.8 1 .2.2.2.5.2.9 0 .7-.2 1.2-.6 1.6-.4.3-1 .5-2 .5Zm.9-.8h1c.8 0 1.3 0 1.5-.2.2-.3.3-.6.3-1s-.1-.9-.4-1l-1.5-.3h-1Zm0 0"/>  <path id="m" d="M5.2-7.6c0 .6-.2.9-.5 1.2-.3.2-.8.3-1.4.3-.7.1-1.1.1-1.4-.3-.3-.3-.4-.7-.4-1.2h.8c0 .4.1.6.3.7.1.2.4.2.7.2.3 0 .7 0 .7-.2.2 0 .3-.3.4-.7ZM1.7-5.4v3.7a18.9 18.9 0 0 0 0 .7l2.7-4.4h1.1V0h-.7v-4.1l.1-.4-3 4.5H1v-5.4Zm0 0"/>  <path id="l" d="M1.7-5.4v3.7a18.9 18.9 0 0 0 0 .7l2.7-4.4h1.1V0h-.7v-4.1l.1-.4-3 4.5H1v-5.4Zm0 0"/>  <path id="j" d="M1.7-5.4V-3h3v-2.4h.7V0h-.8v-2.4H1.7V0H.8v-5.4Zm0 0"/>  <path id="i" d="M.8 0v-5.4h1v2.2H3c.8 0 1.3.2 1.7.4.3.3.5.8.5 1.2S5-.7 4.7-.4c-.4.3-.9.4-1.7.4ZM6 0v-5.4h1V0ZM1.7-.7H3c.4 0 .7 0 1-.2.1-.1.2-.4.2-.7.1-.3 0-.4-.2-.6-.3-.3-.6-.3-1-.3H1.7Zm0 0"/>  <path id="h" d="M4.8-5.4v4.7h.8v2.6h-.8V0H1v1.9H.2V-.7h.4a6.9 6.9 0 0 0 1-2.3A9.6 9.6 0 0 0 2-5.4Zm-.8.7H2.8l-.2 1.4L2-1.9c0 .5-.2.9-.5 1.2H4Zm0 0"/>  <path id="f" d="M7.2-3.6c0 .8-.1 1.4-.4 2-.2.5-.6 1-1 1.2-.7.4-1.3.5-2 .5S2.6-.1 2.1-.4A2.7 2.7 0 0 1 1-1.6a4.9 4.9 0 0 1-.4-2c0-.7.1-1.4.4-1.9.2-.6.6-1 1-1.3.7-.2 1.3-.5 2-.5.5 0 1.1.3 1.6.5s1 .7 1.2 1.3c.3.5.4 1.2.4 2Zm-5.6 0c0 1 .1 1.6.4 2.1.5.6 1.1.8 2 .8s1.3-.2 1.7-.8c.3-.5.5-1.2.5-2 .1-1.1 0-1.8-.4-2.3-.5-.4-1.1-.7-1.9-.7s-1.4.3-1.8.8c-.4.5-.5 1.2-.5 2.1Zm0 0"/>  <path id="e" d="M.4-2.3v-.8h2.4v.8Zm0 0"/>  <path id="d" d="M1.7-3.2h1.6c1.4 0 2.1.6 2.1 1.6 0 .5-.2.9-.4 1.2-.4.3-1 .4-1.7.4H.8v-5.4h1Zm2.8 1.6c0-.3 0-.4-.3-.6-.2-.3-.6-.3-1-.3H1.7v1.8h1.5c.4 0 .8 0 1-.2.2-.1.3-.4.3-.7Zm0 0"/>  <path id="c" d="M4.5-4.6H2.8V0h-.9v-4.6H.2v-.8h4.3Zm0 0"/>  <path id="a" d="M6.2-7.1 4-2.1a7 7 0 0 1-.7 1.4l-.8.6-1 .1h-1v-1l.4.3h.5c.4 0 .6 0 .9-.3.2 0 .3-.4.6-.8L0-7.1h1.1L3-3.2l.2.2.1.3.3-.2v-.3l1.8-4Zm0 0"/>  <path id="k" d="M4-5.4h1L2.7-2.8 5.2 0h-1L1.7-2.7V0H.8v-5.4h1v2.6Zm0 0"/>  <path id="b" d="M3 0c-.5 0-.9 0-1.3-.1-.3-.3-.6-.6-.7-.9-.4-.5-.5-1-.5-1.7 0-.6.2-1.1.5-1.5 0-.6.4-.8.8-1.1.2-.1.8-.2 1.2-.2l.8.1.7.2-.3.8-.6-.2H3c-1-.1-1.5.6-1.5 1.9 0 .7 0 1 .3 1.4.3.5.7.6 1.2.6h.8l.6-.3v.8a2 2 0 0 1-.6.2H3Zm0 0"/>  <path id="g" d="M3.4-5.5c.7 0 1.2.3 1.6.7.4.5.6 1.2.6 2.1 0 1-.2 1.7-.6 2-.4.7-1 .9-1.6.9-.4-.2-.8-.2-1-.3l-.7-.6v3.1H.8v-7.8h.8v.8h.2c.2-.4.3-.5.6-.6.2-.2.6-.3 1-.3Zm-.2.8c-.5 0-.9.1-1.1.5-.2.2-.4.7-.4 1.2v.3c0 .7.1 1.2.3 1.5.3.4.7.6 1.3.6.3 0 .6-.1.7-.4l.5-.6.2-1.1c0-.6-.1-1.1-.4-1.5-.2-.3-.6-.5-1-.5Zm0 0"/>  <path d="M2.9-5.5c.6 0 1.1.2 1.4.5.3.3.5.7.5 1.3V0h-.6L4-.8c-.3.3-.5.6-.8.8h-1c-.5 0-1 0-1.3-.3C.6-.5.5-.9.5-1.5c0-.5.2-1 .5-1.2.5-.3 1-.5 2-.5h.8v-.3c.2-.5.2-.8-.2-1l-.8-.2H2l-.7.5L1-5l1-.3.9-.2Zm1 2.9h-.8c-.6 0-1 .1-1.4.3-.1.3-.3.5-.3.8 0 .3 0 .5.2.7l.7.2c.5 0 .9-.1 1.2-.4.3-.2.4-.6.4-1Zm.1 0"/>  <path id="r" d="M4.1-5.4v.8H1.7V0H.8v-5.4Zm0 0"/>  <use xlink:href="#reuse-0"/> </defs> <image xlink:href="svg/9/34_14.jpg" width="497" height="279"/> <path d="m146.5 19.5-2.3 5.1a7 7 0 0 1-.6 1.2c-.2.3-.6.6-.8.7-.3.2-.7.2-1.1.2h-.5l-.5-.1v-.9l.5.3h.4c.4 0 .7 0 1-.3l.4-.9-2.6-5.3h1l2 4v.1l.3.4v-.3l.1-.2 1.8-4zm2.8 7.2c-.5 0-.9 0-1.3-.2-.3-.2-.6-.5-.8-1-.3-.3-.4-.8-.4-1.5s.2-1.2.4-1.6c.2-.4.5-.7.8-1l1.4-.1h.6l.8.3-.3.6-.6-.2h-.6c-1 0-1.5.6-1.5 2 0 .6 0 1 .2 1.5.4.3.8.5 1.3.5l.7-.1.7-.2v.8a2 2 0 0 1-.7.2h-.7zm6.3-4.7H154v4.6h-1V22h-1.7v-.7h4.3zm2 1.5h1.6c1.4 0 2 .5 2 1.5.1.5 0 1-.3 1.2-.6.3-1.1.4-1.9.4h-2.3v-5.3h.9zm2.8 1.5c0-.3-.1-.5-.4-.6l-1-.2h-1.3V26h1.3c.5 0 .8 0 1-.3.2 0 .3-.3.3-.6zm1.8-.6v-.8h2.4v.8zm10-1.4c0 .9-.1 1.6-.4 2-.2.6-.6 1-1 1.3-.7.3-1.3.4-2 .4s-1.2-.1-1.7-.4A2.7 2.7 0 0 1 166 25a4.9 4.9 0 0 1-.4-2c0-.6.1-1.2.4-1.8.2-.6.6-1.1 1-1.2.7-.4 1.3-.6 2-.6.5 0 1.1.2 1.6.5s1 .7 1.2 1.1c.3.7.4 1.3.4 2.1zm-5.6 0c0 1 .2 1.8.4 2.3.5.4 1.1.7 2 .7s1.3-.3 1.7-.8c.4-.5.6-1.2.6-2.1 0-1.1-.3-1.6-.6-2.1-.4-.5-1-.8-1.7-.8s-1.5.3-1.9.8c-.3.5-.5 1.2-.5 2zm9.6-1.8c.8 0 1.2.2 1.6.7.4.4.6 1.1.6 2 0 1.1-.2 1.8-.6 2.1-.4.5-1 .7-1.6.7-.4 0-.7 0-1-.2-.3-.1-.5-.3-.6-.5h-.1v3h-.7v-7.7h.6l.1.7.8-.6.9-.2zm-.1.7c-.6.1-1.1.2-1.2.5-.2.3-.3.8-.3 1.4v.2c0 .6 0 1 .3 1.5.1.3.6.5 1.1.5.4 0 .7 0 .9-.2l.5-.8.1-1c0-.8-.1-1.3-.3-1.6-.3-.4-.6-.5-1.2-.5zm7.7-.6v4.6h.8v2.6h-.9v-1.9H180v2h-.8v-2.8h.4a6.9 6.9 0 0 0 1-2.1 9.6 9.6 0 0 0 .4-2.4zm-.8.7h-1.2l-.2 1.4-.6 1.4-.5 1.1h2.5zm2.6 4.6v-5.3h1v2.2h1.2c.8 0 1.3.1 1.6.4.4.1.6.6.6 1.1 0 .5-.2 1-.5 1.2-.5.3-.9.4-1.6.4zm5.2 0v-5.3h1v5.3zm-4.3-.6h1.3l1-.2c.2-.2.2-.4.2-.8 0-.3 0-.5-.3-.6l-.9-.2h-1.3zm7.8-4.7v2.2h3v-2.2h.7v5.3h-.8v-2.3h-2.9v2.3h-.9v-5.3zm7.7 5.4c-.6 0-1 0-1.4-.2-.3-.2-.6-.5-.8-1-.2-.3-.3-.8-.3-1.5s.1-1.2.3-1.6c.2-.4.5-.7 1-1l1.2-.1h.8l.6.3-.3.6-.5-.2h-.6c-1 0-1.6.6-1.6 2 0 .6.1 1 .4 1.5.2.3.6.5 1.1.5l.8-.1.6-.2v.8a2 2 0 0 1-.6.2h-.7zm5.8-5.4h1l-2.5 2.6 2.7 2.7h-1l-2.5-2.6v2.6h-1v-5.3h1.1v2.6zm2.9 0v4.5l2.8-4.5h1v5.3h-.6v-4.4l-2.9 4.4h-1.1v-5.3zm9.9-2.3c0 .7-.2 1-.5 1.3-.1.2-.7.3-1.3.3-.8 0-1.2-.1-1.4-.4-.4-.2-.4-.6-.5-1.1h.8c0 .3.3.6.3.7l.8.2c.2 0 .5 0 .7-.2.2-.1.3-.4.3-.8zm-3.5 2.4v4.4l2.8-4.5h1.1v5.3h-.8v-4.4l-2.7 4.4h-1.2v-5.3zm-60.4 17.2v-7.2h4.3v.8h-3.4v2.3h1.1c.7 0 1.3 0 1.7.2.4.3.6.4.8.7l.2 1.1c0 .7-.2 1.2-.6 1.5-.4.4-1 .6-2 .6zm1-.8h.9c.8 0 1.2 0 1.5-.3.2-.2.4-.6.4-1 0-.5-.2-.8-.5-1-.2-.2-.7-.3-1.4-.3h-1zM162 33.2h.8l1.2 3 .3.8.2.7.2-.6.3-.8 1-3h1l-2.3 5.9c-.2.6-.4 1.1-.7 1.3-.3.3-.7.5-1.2.5h-.5l-.3-.1v-.7h.6c.4.1.6.1.8-.2l.4-.7.3-.7zm8.4-.1c.7 0 1.2.3 1.6.7.4.5.6 1.2.6 2.2 0 .9-.2 1.5-.6 1.9-.4.6-1 .9-1.6.9-.4-.1-.7-.1-1-.4-.4-.1-.5-.3-.6-.4h-.1v3h-.7v-7.8h.6l.1.8c.3-.3.5-.5.8-.6.1-.2.5-.4.9-.4zm-.1.9c-.6-.1-1 0-1.3.3-.1.3-.2.8-.2 1.4v.3c0 .6 0 1.1.2 1.4.3.4.7.6 1.3.6.3 0 .6-.1.7-.3l.6-.7.1-1.1c0-.6-.1-1.1-.3-1.5-.4-.3-.6-.4-1.1-.4zM174.4 38.6h-1l1.4-2.3c-.1 0-.4 0-.5-.2a1.5 1.5 0 0 1-.5-.5l-.2-.8c0-.5.2-.8.5-1.2.4-.2.9-.4 1.4-.4h2.5v5.4h-1v-2.1h-1.3zm0-3.8c.1.3.3.6.5.7.1.2.5.2.9.2h1.2V34h-1.4c-.4 0-.6 0-.9.2l-.2.6zm8.9-.8h-1.7v4.6h-.9V34H179v-.8h4.3zm3.1 4.7c-.4 0-.9-.1-1.2-.3-.4-.2-.7-.5-1-.9l-.2-1.6c0-.6 0-1.2.3-1.6.2-.3.5-.7.9-.9.4-.2.8-.3 1.3-.3l.8.1.6.2-.3.8-.5-.2-.6-.1c-1 0-1.6.7-1.6 2 0 .7.1 1.2.4 1.5.2.4.6.6 1.1.6h.8l.6-.5v.9a2 2 0 0 1-.6.2h-.8zm5.8-5.5h1l-2.2 2.6 2.4 2.8h-1l-2.4-2.7v2.7h-1v-5.4h1v2.6zm3 0v4.5l2.8-4.5h1v5.4h-.6V34l-2.9 4.6h-1.1v-5.4zm9.9-2.2c0 .5-.1 1-.5 1.2-.3.2-.6.3-1.4.3-.6 0-1-.1-1.2-.3-.4-.3-.6-.7-.6-1.2h.8c0 .4.2.6.3.7.2.3.5.3.8.3.3 0 .5 0 .7-.3.2-.1.3-.3.3-.7zm-3.5 2.2v4.5l2.8-4.5h1.1v5.4h-.8V34l-2.7 4.6h-1.2v-5.4zm-28.4 14.6c0 1-.3 1.6-.7 2.2-.5.4-1 .6-1.8.6-.5 0-1 0-1.3-.3-.4-.2-.7-.5-.9-1-.2-.3-.3-.8-.3-1.4 0-.9.2-1.6.8-2.1.3-.5.9-.8 1.7-.8.5 0 1 0 1.3.4.4.2.6.5.9 1 .1.2.3.7.3 1.3zm-4 0c-.1.7-.1 1.2.2 1.6.3.3.6.5 1.3.5.5 0 1-.2 1.2-.5.1-.4.4-1 .4-1.6 0-.6-.3-1-.4-1.4-.3-.4-.7-.6-1.2-.6-.7 0-1 .2-1.2.6-.3.3-.5.8-.5 1.4zm8.5-2.6h1l-2.3 2.5 2.5 2.8h-1l-2.5-2.7v2.7h-.8v-5.3h.8v2.6zm4.7-.2c.7 0 1.2.4 1.6.9.4.3.6 1 .6 1.9 0 1-.2 1.6-.6 2.2-.4.4-1 .6-1.6.6-.4 0-.8 0-1-.2l-.7-.6V53h-.9v-7.8h.8v.7h.2l.6-.6 1-.2zm-.2.9c-.5-.1-.9.1-1.1.4-.2.3-.4.7-.4 1.4v.1c0 .7.1 1.2.4 1.6.2.3.6.5 1.2.5.3 0 .6 0 .7-.3l.5-.6.2-1.1c0-.8-.1-1.3-.4-1.6-.2-.3-.6-.5-1-.5zm2.8-.7h1l1.2 3 .2.8.2.7.2-.7.3-.8 1.1-3h1l-2.4 6c-.1.7-.4 1.1-.8 1.4-.2.2-.6.3-1 .3h-.8v-.8h.6c.2.1.5.1.7-.1.2-.2.3-.5.4-.7l.3-.8zm9.3 0v.7h-2.4v4.6h-.9v-5.3zm0 0" style="fill:none;stroke:#fff;stroke-width:3;stroke-linecap:butt;stroke-linejoin:round;stroke-miterlimit:10;stroke-opacity:.6" transform="rotate(  340 145.35 92.334) translate(-36.057203,56.745763)"/> <g style="fill:#976e94;fill-opacity:1" transform=" rotate(  340 145.35 92.334) ">  <use xlink:href="#a" x="104.2" y="83.4"/>  <use xlink:href="#b" x="110.2" y="83.4"/>  <use xlink:href="#c" x="115" y="83.4"/>  <use xlink:href="#d" x="119.8" y="83.4"/>  <use xlink:href="#e" x="125.7" y="83.4"/>  <use xlink:href="#f" x="129" y="83.4"/>  <use xlink:href="#g" x="136.8" y="83.4"/>  <use xlink:href="#h" x="142.9" y="83.4"/>  <use xlink:href="#i" x="148.7" y="83.4"/>  <use xlink:href="#j" x="156.5" y="83.4"/>  <use xlink:href="#b" x="162.9" y="83.4"/>  <use xlink:href="#k" x="167.7" y="83.4"/>  <use xlink:href="#l" x="173" y="83.4"/>  <use xlink:href="#m" x="179.4" y="83.4"/>  <use xlink:href="#n" x="119.7" y="95.3"/>  <use xlink:href="#o" x="125.9" y="95.3"/>  <use xlink:href="#g" x="131" y="95.3"/>  <use xlink:href="#p" x="137.1" y="95.3"/>  <use xlink:href="#c" x="142.7" y="95.3"/>  <use xlink:href="#b" x="147.4" y="95.3"/>  <use xlink:href="#k" x="152.2" y="95.3"/>  <use xlink:href="#l" x="157.5" y="95.3"/>  <use xlink:href="#m" x="163.9" y="95.3"/>  <use xlink:href="#q" x="131.6" y="107.3"/>  <use xlink:href="#k" x="137.7" y="107.3"/>  <use xlink:href="#g" x="142.9" y="107.3"/>  <use xlink:href="#o" x="149" y="107.3"/>  <use xlink:href="#r" x="154.1" y="107.3"/> </g> <path d="M221 257.9c-.6 0-1.3-.1-1.8-.4v-.9a4 4 0 0 0 1.9.5c.4 0 .8 0 1-.1.5-.2.7-.4.8-.6l.1-.8c0-.4-.1-.6-.4-.8-.3-.2-.7-.3-1.2-.3h-1l.2-.8h1l.7-.1.9-.5c.2-.1.3-.5.3-.8 0-.4-.1-.6-.3-.8l-.8-.2-1 .1a4 4 0 0 0-.7.6l-.4-.8a4 4 0 0 1 2.2-.6c.6 0 1 .1 1.5.4.2.3.4.7.4 1 0 .6-.2 1.1-.5 1.4-.3.4-.9.6-1.4.7.5 0 .8.2 1 .5.3.3.5.6.5 1.1a2 2 0 0 1-.4 1c-.2.5-.5.8-1 1-.4.1-.9.2-1.5.2zm5.4 0c-.4 0-.7-.2-1-.5-.3-.3-.4-.7-.4-1.3 0-.5 0-1.1.2-1.5l.5-1.2c.3-.3.5-.6.9-.8a2 2 0 0 1 1-.3c.4 0 .7.1.9.3l.5.7.3-.9h.7l-1 5.4h-.8l.1-1c-.3.3-.5.6-.9.8-.3.2-.6.3-1 .3zm.3-.7c.3 0 .5-.2.7-.3l.7-.7a4 4 0 0 0 .4-1 3 3 0 0 0 .1-.7 4 4 0 0 0 0-.4c.1-.3.1-.5-.1-.7-.3-.2-.5-.4-.8-.4-.2 0-.5 0-.7.3a2 2 0 0 0-.6.7l-.4 1v1c-.1.5-.1.8 0 1 .2.1.5.2.7.2zm3.8.6 1.1-5.4h.9l-.6 2.6 2.5-2.6h1.1l-2.5 2.7 1.7 2.7h-1l-1.9-2.8-.5 2.8zm6.5.1c-.4 0-.8-.2-1-.5-.4-.3-.6-.7-.6-1.3l.3-1.5.6-1.2.7-.8a2 2 0 0 1 1.1-.3c.5 0 .8.1 1.1.3l.2.7.6-.9h.6l-1.2 5.4h-.7l.1-1-.8.8c-.3.2-.6.3-1 .3zm.3-.7c.2 0 .5-.2.7-.3l.6-.7a4 4 0 0 0 .5-1 3 3 0 0 0-.1-.7 4 4 0 0 0 .3-.4c-.1-.3-.1-.5-.3-.7-.2-.2-.5-.4-.7-.4-.3 0-.5 0-.8.3a2 2 0 0 0-.5.7l-.4 1-.2 1 .2 1c.2.1.4.2.7.2zm5 .7a4 4 0 0 1-.9-.1 3 3 0 0 1-.7-.2v-.9l.7.3 1 .2c.2 0 .6-.2.9-.3.2-.2.3-.4.3-.7.1-.3.1-.4-.1-.6l-.8-.2h-.7v-.8h1.3c.2 0 .4-.2.5-.3.2-.1.2-.3.2-.6 0-.2 0-.3-.2-.5l-.6-.1h-.7l-.7.4-.3-.8a4 4 0 0 1 1.8-.4c.5 0 .9.1 1.2.4.3.2.4.5.4.9s-.1.7-.3.9l-1 .5c.4 0 .6.2.7.4.2.2.2.4.2.6 0 .6-.1 1.1-.5 1.4-.4.3-1 .5-1.7.5zm3.2-.1 1-5.4h1.1l-.6 2.3h2.5l.5-2.3h.9l-1.2 5.4h-.7l.4-2.4h-2.6l-.5 2.4zm7.5.1c-.2 0-.6-.1-1-.3-.1-.3-.2-.6-.2-1v-.6l.1-.3.6-3.3h1l-.9 3.4v1.2l.8.2c.2 0 .4-.2.7-.3.2-.1.5-.4.7-.8.2-.3.4-.8.5-1.4l.5-2.3h.9l-1.2 5.4h-.7l.2-1-.6.5c-.1.2-.3.3-.6.4l-.7.3zm4.3-.1 1-5.4h1.1l-.7 2.6 2.5-2.6h1.1l-2.6 2.7 1.7 2.7h-1l-1.7-2.8-.7 2.8zm-38 11.4-1.1-2.2 1.8-2 .5.4-1.4 1.6.8 2zm1.9 0-1-2v-.1l1.6-2.1.6.4-1.4 1.8.8 1.8zm1.8.5 1.3-7.1h1.1l-.9 3.4 3.5-3.4h1l-3.5 3.6 2.2 3.5h-1l-2.1-3.5-.8 3.5zm5 2.4 1.5-7.7h.8l-.1 1 .8-.8c.3-.2.6-.3 1-.3s.8.1 1 .4c.3.3.4.8.4 1.4 0 .5 0 1-.2 1.4 0 .5-.2.9-.5 1.2-.2.4-.5.6-.7.8a2 2 0 0 1-1 .3c-.6 0-.9 0-1.2-.2a2 2 0 0 1-.4-.7v.5l-.1.4-.5 2.3zm2.7-3c.3 0 .6 0 .8-.2l.5-.7a4 4 0 0 0 .4-1 5 5 0 0 0 .1-1.1c0-.7-.2-1.1-.8-1.1-.2 0-.5 0-.7.2l-.6.7-.5 1.1-.2 1c0 .3.1.6.3.8 0 .2.4.3.8.3zM235.9 269.8c-.5 0-.9-.1-1-.4-.5-.4-.6-.8-.6-1.4.1-.5.1-1 .3-1.4l.5-1.2c.3-.4.5-.6.9-.8a2 2 0 0 1 1-.3c.4 0 .7 0 1 .3 0 .1.3.3.4.6l.4-.8h.6l-1.1 5.3h-.7l.1-1-.8.8c-.3.2-.7.3-1 .3zm.1-.7c.4 0 .6 0 1-.3l.5-.7a4 4 0 0 0 .5-1 3 3 0 0 0 0-.6 4 4 0 0 0 0-.4c0-.3 0-.6-.1-.8-.3-.2-.5-.3-.8-.3-.1 0-.5 0-.7.3a2 2 0 0 0-.6.6l-.4 1.1-.1 1c0 .4 0 .6.2.8l.6.3zm6 .7c-.4 0-1-.1-1.3-.5-.4-.3-.6-.8-.6-1.5-.1-.5-.1-1 .2-1.3l.5-1.2c.3-.3.6-.6 1-.7.2-.2.6-.3.9-.3h1l.5.3-.2.7-.5-.3h-.6c-.4 0-.7 0-1 .3-.3.3-.5.7-.7 1.1a4 4 0 0 0-.2 1.4c0 .4 0 .7.3 1 .2.2.5.2.9.2h.6a7 7 0 0 0 .6-.3v.8l-.6.2-.7.1zm2.4-.1 1.2-5.3h.8l-.4 2.2h2.5l.5-2.2h.8l-1 5.3h-1.1l.6-2.4h-2.5l-.5 2.4zm8.1.1c-.5 0-1-.1-1.3-.4-.2-.2-.4-.6-.4-1.1v-.5a5 5 0 0 1 0-.4l.8-3h.8l-.5 2.3h.5l.6-.2c.5.1 1 .2 1.2.4.3.3.4.6.4 1.1s0 .7-.2 1l-.7.6-1.2.2zm2.6 0 1.2-5.5h.7l-1 5.4zm-2.5-.8c.4.1.7 0 .8-.2a1 1 0 0 0 .3-.8c0-.2 0-.4-.2-.5-.2-.2-.5-.2-.8-.2h-.5l-.5.1v.8c-.1.3-.1.5.1.8h.8zM261 263.7c-.5 0-1-.1-1.2-.4-.2-.2-.4-.5-.4-.8a1 1 0 0 1 0-.5h1v.4l-.1.6h1.5c.3-.3.4-.5.5-1h.7c.1.6-.2 1-.5 1.2-.5.3-.8.5-1.5.5zm-1.7 6.1c-.3 0-.7 0-1-.3-.2-.2-.3-.6-.3-1v-.9l.9-3.2h.8l-.7 3.3-.1.7.1.6.6.1c.2 0 .4 0 .7-.2l.7-.9c.3-.3.4-.7.6-1.3l.4-2.3h.9l-1.1 5.3h-.8v-1l-.3.5-.7.5-.7.1zM232 281.7l2.4-3.3a2 2 0 0 1-.6-.6c-.2-.2-.3-.6-.3-1 0-.5.1-1 .5-1.3 0-.5.5-.6.9-.7.4-.2.8-.3 1.3-.3h2l-1.7 7.2h-.8l.6-3h-1l-2.3 3zm3.7-3.8h.8l.6-2.6h-.9l-.9.1c-.3.1-.5.3-.6.6-.2 0-.3.4-.3.7 0 .4.1.7.4 1l1 .1zm2.2 6.1 1.6-7.6h.7l-.1.9.9-.8c.2-.2.6-.3 1-.3s.7.2 1 .5c.3.3.5.7.5 1.3-.1.5-.1 1-.3 1.4l-.5 1.3-.8.8a2 2 0 0 1-1.1.3c-.4 0-.8-.1-1-.3a2 2 0 0 1-.3-.6l-.3.4v.5l-.6 2.2zm2.8-3c.3 0 .5 0 .7-.2l.6-.8a4 4 0 0 0 .4-.9 5 5 0 0 0 0-1c.1-.9-.1-1.3-.7-1.3l-.7.4-.7.7-.5 1-.1.9c0 .6 0 .8.2 1 .2.2.4.2.8.2zm5.6.1-.4-.4 1.4-1.6-.8-1.9.5-.2 1.2 2v.3zm-1.9 0-.4-.4 1.4-1.8-.8-1.7.6-.2 1 2zm0-.1" style="fill:none;stroke:#fff;stroke-width:2;stroke-linecap:butt;stroke-linejoin:round;stroke-miterlimit:10;stroke-opacity:.6" transform="rotate(  340 272.186 236.581) translate(31.32839,-30.146186)"/> <g style="fill:#007f00;fill-opacity:1" transform=" rotate(  340 272.186 236.581) ">  <use xlink:href="#s" x="250.5" y="227.6"/>  <use xlink:href="#t" x="255.8" y="227.6"/>  <use xlink:href="#u" x="261.5" y="227.6"/>  <use xlink:href="#t" x="266.4" y="227.6"/>  <use xlink:href="#v" x="272.1" y="227.6"/>  <use xlink:href="#w" x="276.5" y="227.6"/>  <use xlink:href="#x" x="282.5" y="227.6"/>  <use xlink:href="#u" x="288.3" y="227.6"/>  <use xlink:href="#y" x="249.1" y="239.6"/>  <use xlink:href="#z" x="253.8" y="239.6"/>  <use xlink:href="#A" x="259.5" y="239.6"/>  <use xlink:href="#t" x="265.3" y="239.6"/>  <use xlink:href="#B" x="270.9" y="239.6"/>  <use xlink:href="#w" x="275.5" y="239.6"/>  <use xlink:href="#C" x="281.5" y="239.6"/>  <use xlink:href="#D" x="288.8" y="239.6"/>  <use xlink:href="#E" x="263.7" y="251.5"/>  <use xlink:href="#A" x="269.4" y="251.5"/>  <use xlink:href="#F" x="275.2" y="251.5"/> </g></svg>