<svg xmlns="http://www.w3.org/2000/svg" xmlns:xlink="http://www.w3.org/1999/xlink" viewBox="0 0 497 279"> <defs overflow="visible" style="stroke:none">  <path id="g" d="M2.2.1a5 5 0 0 1-1 0L.4-.3v-1l.8.3 1 .2C3-.8 3.5-1 4-1.4c.3-.4.5-1 .5-1.6H1.1v-1.1h3.4c0-.7-.3-1.2-.5-1.5-.4-.4-.9-.5-1.6-.5l-.8.1-.8.2-.3-.9.8-.3h1a4 4 0 0 1 1.9.2c.4.3.8.7 1.1 1.2.3.6.4 1.3.4 2.1s-.1 1.5-.5 2C5-.8 4.5-.4 4-.1a4.1 4.1 0 0 1-1.8.1Zm0 0"/>  <path id="f" d="M6.3-7v6h1v3.4H6.2V0H1.3v2.4h-1V-1h.5c.6-.8 1-1.7 1.3-2.8A12 12 0 0 0 2.6-7ZM5.2-6H3.6a10.9 10.9 0 0 1-.8 3.5A7 7 0 0 1 2-1h3.2Zm0 0"/>  <path id="e" d="M.5-3v-1h3.2v1Zm0 0"/>  <path id="d" d="M2.3-7v3H6v-3h1.2v7H6v-3.1H2.2V0h-.9v-7Zm0 0"/>  <path id="c" d="M3.8-7c.7 0 1.4 0 1.7.4.5.5.7 1.1.7 1.9V0h-.8l-.2-1-1.1 1H2.8c-.6.1-1.2 0-1.6-.4C.8-.7.6-1.2.6-1.9s.3-1.3.8-1.6C2-4 2.8-4.1 4-4.2h1.1v-.4c0-.6-.1-1-.3-1.2-.3-.2-.8-.4-1.2-.4l-.9.2-1.1.4-.2-.9A5.2 5.2 0 0 1 3.8-7ZM5-3.5h-.9c-.9.1-1.5.3-1.8.5-.4.3-.5.6-.5 1 0 .6.1.9.2 1l1.1.1c.5.1.9-.1 1.4-.4.5-.3.6-.7.6-1.5Zm.1.1"/>  <path id="b" d="M6.4 0H5.2v-6H3.3a28 28 0 0 1-.6 3.5c-.2 1-.4 1.6-.7 2-.4.4-.8.5-1.3.5a2 2 0 0 1-.4 0H.1v-.9h.3c.6.1.9-.3 1.2-1.3.2-1.1.4-2.7.6-4.8h4.2Zm0 0"/>  <path id="a" d="m8.1-9.3-3 6.7a10 10 0 0 1-.8 1.5L3.3 0H1.2a3 3 0 0 1-.6-.1v-1.1a4 4 0 0 0 .6.2h.6c.5 0 .9 0 1.1-.3.3-.2.6-.6.8-1L.1-9.4h1.3L4-4.2l.2.4.1.3a25.2 25.2 0 0 0 .4-.5L7-9.3Zm0 0"/>  <path d="M1.2 0v-9.3h5.4V0ZM2-.7h3.9v-8H2Zm-.1 0"/> </defs> <image xlink:href="svg/9/35_13.jpg" width="497" height="279"/> <path d="m224.3 205-3 6.6a10 10 0 0 1-.8 1.4c-.3.5-.5 1-1 1.1-.4.2-.9.3-1.4.3h-.7a3 3 0 0 1-.6-.3V213a4 4 0 0 0 .6.2h.6c.5.1.9.1 1-.2.4-.3.7-.6 1-1.1l-3.7-7h1.3l2.6 5.3.2.2.1.4a25.2 25.2 0 0 0 .4-.8l2.2-5Zm5.7 9.2h-1.3v-6h-1.9a28 28 0 0 1-.6 3.6c-.2.9-.4 1.5-.7 2-.5.2-.8.4-1.3.4a2 2 0 0 1-.2.1h-.4v-1.1l.2.3h.2c.4-.1.8-.5 1-1.5.5-1 .7-2.6.8-4.7h4.2Zm4.8-7c.8 0 1.5.1 1.9.5.3.4.6 1 .6 1.8v4.7h-.9l-.2-1c-.3.5-.6.8-1 1-.2.1-.8.2-1.4.2-.6 0-1.1-.2-1.5-.5-.5-.4-.7-.9-.7-1.6 0-.7.4-1.2.8-1.6.6-.4 1.4-.7 2.6-.7h1.2v-.5c0-.5-.2-.9-.4-1.1-.3-.2-.6-.3-1-.3l-1.2.1-.9.4-.2-.8a5.2 5.2 0 0 1 2.3-.6Zm1.4 3.6h-1c-1.1.2-1.6.2-2 .6-.2.1-.4.5-.4.9s.2.7.4.9c.2.2.5.2 1 .2s.9-.1 1.3-.4c.5-.4.7-1 .7-1.5Zm4.4-3.5v2.9h3.8v-3h1.1v7.1h-1.1v-3.1h-3.8v2.9h-1.2v-6.9Zm6.5 4v-1h3.2v1ZM259 205l-3 6.6a10 10 0 0 1-1 1.4c-.2.5-.5 1-.9 1.1-.4.2-.8.3-1.4.3h-.7a3 3 0 0 1-.6-.3V213a4 4 0 0 0 .6.2h.6c.4.1.9.1 1.1-.2.3-.3.6-.6.8-1.1l-3.5-7h1.2l2.6 5.3.2.2v.4a25.2 25.2 0 0 0 .5-.8l2.2-5Zm5.4 2.3v6h1v3.4h-1v-2.5h-5.1v2.5h-.8v-3.4h.4c.6-.9 1.1-1.8 1.4-2.8a12 12 0 0 0 .4-3.2Zm-1.1.9h-1.5a10.9 10.9 0 0 1-.9 3.6 7 7 0 0 1-.8 1.5h3.2Zm4.7 6.2a5 5 0 0 1-1.2-.1l-.8-.3v-1l.9.3h1.1c.6.1 1.1.1 1.5-.4.5-.4.7-.9.7-1.8h-3.4v-1h3.4c0-.5-.3-1.1-.6-1.4-.4-.4-.9-.6-1.6-.6l-.7.1-.8.3-.5-1 1.1-.2.9-.3a4 4 0 0 1 1.8.5c.5.2.9.6 1.2 1.2.3.5.4 1.2.4 2 0 1-.2 1.6-.5 2.1s-.7 1-1.2 1.2a4.1 4.1 0 0 1-1.8.4Zm0 0" style="fill:none;stroke-width:3;stroke-linecap:butt;stroke-linejoin:round;stroke:#fff;stroke-opacity:.6;stroke-miterlimit:10" transform=" rotate(  340 244.607 211.235) "/> <g style="fill:#222;fill-opacity:1" transform=" rotate(  340 244.607 211.235) ">  <use xlink:href="#a" x="216.2" y="214.2"/>  <use xlink:href="#b" x="223.5" y="214.2"/>  <use xlink:href="#c" x="231" y="214.2"/>  <use xlink:href="#d" x="238.3" y="214.2"/>  <use xlink:href="#e" x="246.6" y="214.2"/>  <use xlink:href="#a" x="250.8" y="214.2"/>  <use xlink:href="#f" x="258.1" y="214.2"/>  <use xlink:href="#g" x="265.7" y="214.2"/> </g></svg>