<svg xmlns="http://www.w3.org/2000/svg" xmlns:xlink="http://www.w3.org/1999/xlink" viewBox="0 0 497 279"> <defs overflow="visible" style="stroke:none">  <path id="C" d="M4 1.9 4.2 0C4.1 0 4-.1 4-.2L3.8-1h-.2l-.3.5a2 2 0 0 1-.6.5 2 2 0 0 1-.8 0c-.4 0-.7 0-.9-.1C.7-.5.5-.8.5-1.2v-.5L.8-2l.6-3.4h.9L1.4-2v1.2l.8.2c.2 0 .4-.1.8-.4l.6-.6.5-1.4.5-2.4h.9l-.8 3.8v.9h.7L4.8 2Zm0 0"/>  <path id="B" d="M.4 0 2-7.1h1l-.9 3h3.2l.7-3h.8L5.3 0h-.8l.7-3.3H2L1.3 0Zm0 0"/>  <path id="A" d="M2.5 0C1.9 0 1.4 0 1-.4.7-.8.5-1.3.5-2l.1-1.2a4 4 0 0 1 .5-1.1c.3-.3.5-.7.9-.8.3-.2.7-.3 1.2-.3.6 0 1 .2 1.4.4.4.5.6 1.1.6 1.6L5-2a4 4 0 0 1-.5.9c-.2.5-.5.8-.8 1L2.5 0Zm0-.6c.5-.1.6-.1 1-.4.1-.2.3-.5.5-1 .2-.3.3-.8.3-1.4L4.2-4a1 1 0 0 0-.4-.5l-.6-.2c-.4 0-.7.1-1 .4-.2.2-.5.6-.6 1A4 4 0 0 0 1.4-2c0 .5 0 .8.3 1 .2.2.5.3.8.3Zm0-.1"/>  <path id="z" d="M2.4 0c-.6 0-1 0-1.4-.4C.6-.9.5-1.5.5-2.2a7.4 7.4 0 0 1 .3-2.2l.5-1.2.7-1L3-7l.6-.3A34 34 0 0 1 5-7.5h.7l.1.5h-.7L4-6.5c0-.1-.3-.1-.5.1-.5.1-.9.4-1.1.8-.4.4-.7.9-.9 1.5a3 3 0 0 1 1-.6c.2-.2.5-.3.9-.3.6 0 1 .2 1.2.5.2.3.4.8.4 1.3L4.8-2c-.1.4-.2.8-.5 1-.2.5-.3.7-.7.9-.4.1-.7.2-1.2.2Zm0-.5c.5-.1.6-.2.9-.5a2 2 0 0 0 .4-.5l.3-.8v-.8c0-.4 0-.7-.2-.9-.1-.2-.3-.3-.6-.3l-.7.3-.6.4a4 4 0 0 0-.4.4v.6l-.2.5c.1.4.1.8.3 1 .2.4.5.6.9.6Zm.1-.1"/>  <path id="y" d="M2.5 0C1.9 0 1.4 0 1-.3.7-.7.5-1.2.5-2c0-.4 0-1 .2-1.3l.5-1c.3-.5.6-.7 1-1 .2-.1.6-.2.9-.2l.9.1.6.2-.2.7-.5-.1-.6-.1c-.4 0-.7.1-1 .4-.3.2-.5.6-.7 1A4 4 0 0 0 1.4-2c0 .5 0 .8.3 1 .2.2.5.3.9.3h.6a7 7 0 0 0 .6-.3v.8l-.6.2h-.7Zm0 0"/>  <path id="x" d="m.3 0 1.1-5.3h1.2L3-1.1l2.5-4.2h1.2L5.6 0h-.8l.7-3 .1-.9.2-.6L3.3 0h-.7L2-4.5l-.3.7v.8L1 0Zm0 0"/>  <path id="w" d="M0 0h-.4v-.8l.3.1C0-.7.3-.7.4-.9l.6-.7.3-1.2.5-1.1.4-.9.8-.5h1a4.5 4.5 0 0 1 1 .1L4 0h-.9l1-4.6h-1l-.5.8-.5 1.3L1.5-1c-.1.3-.3.6-.5.8C.7 0 .4 0 0 0Zm0 0"/>  <path id="v" d="M3.4 0c-.9 0-1.5 0-2-.5S.7-1.8.7-2.6.8-4 1-4.5c0-.5.4-.9.7-1.5l1.1-.9a3 3 0 0 1 1.5-.3c.8-.1 1.5.2 2 .7.3.5.5 1.2.5 2 .2.8.2 1.4-.1 1.9L6-1.2l-1.1.9c-.4.3-1 .3-1.5.3Zm0-.6a2 2 0 0 0 1-.4c.5-.2.6-.5 1-.8L5.8-3 6-4.5c0-.5-.2-1-.5-1.4-.3-.4-.7-.6-1.2-.6a2 2 0 0 0-1.1.3l-.8.8-.6 1.2a6 6 0 0 0-.1 1.5c0 .7.1 1.1.3 1.5.4.2 1 .5 1.4.5Zm0-.1"/>  <path id="u" d="M2.4-.5 2-1l1.4-1.6-.8-1.9.6-.2 1.1 2.2v.1ZM.6-.5 0-1l1.5-1.7-.8-1.8.6-.2 1 2v.1Zm0-.1"/>  <path id="t" d="M2.4 0c-.6 0-1 0-1.3-.2C.8-.5.6-.9.6-1.5v-.4l.2-.5.6-3h.9L1.6-3A9.8 9.8 0 0 1 3-3.2c.5 0 1 .2 1.2.5.3.2.4.6.4.9 0 .4 0 .7-.2 1-.2.3-.4.5-.8.6-.3.2-.6.3-1.2.3Zm0-.5c.6-.1 1-.2 1.1-.5a1 1 0 0 0 .2-.7c0-.2 0-.3-.2-.5-.1-.2-.4-.2-.8-.2a5.6 5.6 0 0 0-1.1 0v.7l-.2.2c.1.2.1.4.3.5.1.3.3.4.8.4Zm.1-.1"/>  <path id="s" d="m.2 0 1.2-5.4h.8l-.2 1 .5-.6a2 2 0 0 1 .6-.3l.9-.2c.3 0 .6.1.9.5.1 0 .4.4.4.9v.4l-.2.5L4.4 0h-.9l.7-3.4v-.4l.2-.2c-.1-.5-.3-.7-.8-.7-.2 0-.4 0-.6.2-.3.2-.6.5-.8.8-.2.3-.4.8-.5 1.4L1.2 0Zm0 0"/>  <path id="r" d="M.4 0 2-7.1h5L5.2 0h-.8l1.4-6.3H2.6L1.3 0Zm0 0"/>  <path id="q" d="M.2 0h-.4v-.7H0l.5-.1.4-.7c0-.2.1-.4.3-.5l.6-.4c-.3-.1-.6-.3-.8-.6a1.4 1.4 0 0 1-.2-.7c0-.3.2-.9.6-1.2.3-.3.9-.5 1.6-.5h2L4 0H3l.5-2.1h-.7c-.3 0-.5 0-.7.1l-.4.8-.4.7-.4.4-.7.2Zm2.5-2.8h1L4-4.6H2.8c-.3 0-.6 0-.8.3-.2.1-.3.3-.3.6s.1.7.3.7h.7Zm0-.1"/>  <path id="p" d="M2.4 0c-.6 0-1 0-1.4-.3C.6-.8.5-1.3.5-2c0-.3 0-.8.2-1.2 0-.4.3-.8.5-1.1.2-.4.5-.7.8-.8a2 2 0 0 1 1.2-.4c.5 0 .8.2 1.1.5.3 0 .4.4.4.8 0 .3-.1.7-.3 1-.4.2-.6.4-1 .6-.6.2-1.2.3-1.9.3h-.1v.3c0 .5 0 .8.3 1 .2.3.5.4.9.4l.7-.1A5 5 0 0 0 4-1v.7a6 6 0 0 1-.7.3h-.9Zm-.9-3 1.3-.1.7-.4c.2-.1.3-.4.3-.5l-.1-.6-.7-.1c-.2 0-.5.1-.9.4L1.6-3Zm0 0"/>  <path id="o" d="m-.2 2.4 1.6-7.8h.7v1l.7-.6c.3-.3.7-.5 1-.5.5 0 .8.2 1 .5.5.3.6.8.6 1.4-.1.5-.1 1-.3 1.4L4.6-1l-.8.8a2 2 0 0 1-1.1.3C2.3 0 2 0 1.8-.2a2 2 0 0 1-.5-.6v.4L1 .1.7 2.4Zm2.8-3c.4 0 .5-.1.7-.4.3 0 .5-.3.7-.6a4 4 0 0 0 .3-1 5 5 0 0 0 .1-.9c0-.9-.3-1.2-.9-1.2-.2 0-.4 0-.5.2l-.8.7-.4 1c-.2.3-.2.7-.2 1.1 0 .3 0 .6.2.8.2.2.5.3.8.3Zm0 0"/>  <path id="n" d="M3.3 0c-.8 0-1.5 0-2-.5C1-1.1.8-1.8.8-2.6.7-3.1.7-3.5 1-4c-.1-.4 0-.8.3-1.2l.8-1L3-7l1.7-.2c.5 0 1.1.1 1.6.4l-.3.7a4 4 0 0 0-.7-.2l-.7-.2c-.6 0-1 .2-1.3.5-.4 0-.7.4-1 .8A4 4 0 0 0 1.9-4l-.2 1.3c0 .7.1 1.1.3 1.5.4.3 1 .5 1.4.5h.8L5-1v.8l-.8.2a5 5 0 0 1-1 0Zm0 0"/>  <path id="m" d="m1.5-.5-1-2.2v-.1l1.7-1.9.6.4-1.5 1.6.9 1.9Zm2 0-1.2-2v-.2l1.9-2 .5.4-1.4 1.8L4-.8Zm-.1 0"/>  <path id="l" d="M1.9 0c-.4 0-.7 0-1-.1C.7-.5.5-.8.5-1.2v-.5L.8-2l.6-3.4h.9L1.4-2v1.2l.8.2c.2 0 .4-.1.8-.4l.6-.6.5-1.4.5-2.4h.9L4.4 0h-.8l.1-1-.5.5-.4.5-.9.1Zm0 0"/>  <path id="k" d="m.3 0 1.1-5.4h.9l-.6 2.6 2.5-2.6h1.1L2.7-2.7 4.5 0h-1L1.6-2.7 1.2 0Zm0 0"/>  <path id="j" d="M1.5 0a4 4 0 0 1-.8 0A3 3 0 0 1 0-.2V-1l.7.2.9.2c.4 0 .8-.1 1-.4.4 0 .4-.3.4-.6 0-.4 0-.4-.2-.6L2-2.4h-.8l.2-.8h1.1c.3 0 .5-.2.6-.3l.2-.5c0-.3 0-.4-.2-.5-.2-.2-.4-.2-.6-.2h-.7l-.8.4L.8-5a4 4 0 0 1 1.8-.5c.4 0 .9.2 1.1.5.3 0 .6.4.6.8s-.3.7-.5.9c-.2.2-.5.4-.8.5.2 0 .4.2.6.4l.2.7c0 .5-.2 1-.5 1.3-.4.3-1 .4-1.9.4Zm0 0"/>  <path id="i" d="M3.6-6c-.6 0-1-.3-1.2-.5-.4-.1-.4-.4-.4-.8a1 1 0 0 1 0-.3h.9v.3c-.1.2-.1.3.1.3 0 .3.3.3.7.3.3 0 .5 0 .7-.2.2-.1.4-.3.4-.7h.9c-.1.6-.3.8-.7 1.1-.3.3-.8.5-1.4.5ZM1.9 0c-.4 0-.7 0-1-.1C.7-.5.5-.8.5-1.2v-.5L.8-2l.6-3.4h.9L1.4-2v1.2l.8.2c.2 0 .4-.1.8-.4l.6-.6.5-1.4.5-2.4h.9L4.4 0h-.8l.1-1-.5.5-.4.5-.9.1Zm0 0"/>  <path id="h" d="M2.4 0c-.6 0-1 0-1.4-.2C.8-.5.6-.9.6-1.4V-2a5 5 0 0 1 .2-.4l.6-3h.9L1.8-3l.5-.1h.5c.6-.1 1-.1 1.2.2.3.4.5.7.5 1.1s-.1.8-.3 1.1c-.1.2-.4.4-.7.5-.3.2-.7.3-1.1.3ZM5 0l1-5.4h1L5.8 0ZM2.4-.6c.4 0 .7-.1.9-.4a1 1 0 0 0 .3-.7l-.3-.6-.7-.1h-1v.6l-.2.3c.1.3.1.5.3.5.1.3.4.4.7.4Zm0 0"/>  <path id="g" d="m.3 0 1.1-5.4h.7v1l.4-.5.6-.4.7-.2c.4 0 .7.2.9.5.2 0 .3.4.3.7l.5-.5.6-.5.9-.2c.3 0 .6.2.9.5.1 0 .2.4.2.9v.4l-.1.4L7.4 0h-.9l.7-3.4v-.4l.2-.2c-.1-.3-.1-.4-.3-.5 0-.2-.1-.2-.5-.2-.2 0-.4 0-.6.2l-.7.8c-.3.3-.4.7-.5 1.3L4.3 0h-1l.9-3.4v-1.1c-.4-.2-.5-.2-.8-.2-.1 0-.3 0-.6.2l-.6.8c-.3.3-.4.7-.5 1.4L1.2 0Zm0 0"/>  <path id="f" d="M1.9 2.4 2.4.1C1.8 0 1.3-.2 1-.6.6-1 .5-1.6.5-2.2l.3-1.5c.3-.6.6-1.1 1-1.3.6-.2 1.1-.4 1.8-.4L4-7.6h.8l-.5 2.2c.7 0 1.1.3 1.5.7.2.2.5.7.5 1.4S6-2 5.9-1.5l-1 1.1c-.6.4-1.1.5-1.8.5l-.4 2.3Zm.6-3 .9-4.2c-.5.1-.9.2-1.2.5-.2.2-.5.5-.6 1-.2.3-.2.6-.2 1 0 .6 0 .9.3 1.2.2.3.5.4.8.4Zm.8-.1a2 2 0 0 0 1-.3l.6-.5c.1-.3.3-.5.3-.8l.2-.9c0-.4-.2-.8-.4-1-.2-.4-.5-.6-.8-.6Zm0 0"/>  <path id="e" d="M1.8 0c-.4 0-.7 0-1-.1C.8-.5.6-.8.6-1.2v-.5L.8-2l.5-3.4h1L1.4-2v1.2l.8.2c.1 0 .4-.1.6-.4l.7-.6L4-3l.5-2.4h.9L4.6-2v1.2l.7.2.6-.4.7-.6L7-3l.6-2.4h.9L7.3 0h-.7l.1-1-.5.5-.5.5-.8.1c-.3-.1-.6-.1-.8-.3-.2-.2-.3-.5-.4-.9l-.5.6-.6.4-.8.2Zm0 0"/>  <path id="d" d="M2.3 0c-.7 0-1 0-1.4-.3-.3-.5-.4-1-.4-1.5L.6-3l.5-1c.2-.5.5-.7.9-.9a2 2 0 0 1 .9-.2c.6 0 .9 0 1.1.1l.4.7v-.3c0-.8-.1-1.4-.3-1.8C3.9-6.8 3.5-7 3-7h-.5l-.5.4-.2-.9.6-.1.8-.1c.7 0 1.2.3 1.6.8.2.5.5 1.3.5 2.3l-.1 1.2c0 .5-.2 1-.4 1.4a5 5 0 0 1-.5 1 3 3 0 0 1-1 .8c-.1.2-.5.3-.9.3Zm0-.5c.4-.1.7-.3 1-.5l.5-1a6 6 0 0 0 .5-1.3 2 2 0 0 0-.5-.8c-.2-.2-.4-.4-.8-.4-.3 0-.5.2-.8.5-.2.1-.5.4-.6 1-.2.1-.2.6-.2 1 0 .5 0 .8.2 1.1.1 0 .4.2.7.2Zm0-.1"/>  <path id="c" d="m.3 0 1.1-5.4h.9L1.8-3h2.5l.5-2.4h.9L4.6 0h-1l.7-2.4H1.7L1.2 0Zm0 0"/>  <path id="b" d="M2 0c-.6 0-.9 0-1.2-.3C.6-.7.5-1 .5-1.7c0-.5 0-1 .2-1.5l.5-1.1c.2-.4.5-.7.8-.9a2 2 0 0 1 1.1-.3c.4 0 .6.1.9.3l.5.7.3-.9h.7L4.4 0h-.7l.1-1c-.3.3-.5.6-.9.8-.3.2-.6.2-.9.2Zm.1-.5c.4-.1.6-.2.9-.5l.6-.6a4 4 0 0 0 .4-1 3 3 0 0 0 .1-.7 4 4 0 0 0 0-.4c.1-.3.1-.5-.1-.7-.3-.2-.5-.3-.8-.3-.3 0-.5 0-.7.2a2 2 0 0 0-.6.7l-.4 1-.1 1.1c0 .4 0 .6.2.8.1.2.3.3.6.3Zm.1-.1"/>  <path id="a" d="M.3.1a2 2 0 0 1-.4 0L-.3 0v-.8l.2.1h.3l.5-.1c.2 0 .3-.2.4-.4l.4-1.1A49.1 49.1 0 0 0 3-7.2h3.5L5 0h-.9l1.4-6.3H3.7l-.3 1a217.3 217.3 0 0 1-1 3.4l-.5.9-.6 1h-1Zm0 0"/>  <path d="M1 0v-7.1h4V0Zm.4-.5h3.1v-6.1h-3Zm.1 0"/> </defs> <image xlink:href="svg/9/3_13.jpg" width="497" height="279"/> <path d="M157.9 92.9a2 2 0 0 1-.4 0l-.2-.1V92h1l.4-.5a49.1 49.1 0 0 0 1.8-5.9h3.7l-1.6 7.2h-.9l1.4-6.4h-1.9c0 .4-.2.7-.2 1.1a217.2 217.2 0 0 1-1 3.3c0 .5-.2.8-.4 1.2l-.7.7-1 .2Zm8.1 0c-.4 0-.8-.2-1-.5-.3-.3-.4-.7-.4-1.4 0-.5 0-1 .2-1.4 0-.4.2-.8.5-1.2l.8-.8a2 2 0 0 1 1-.3c.5 0 .8.1 1.1.3l.2.7.6-1h.6l-1.2 5.5h-.7l.3-1-1 .8c-.3.2-.6.3-1 .3Zm.3-.7c.2 0 .5-.2.7-.3l.7-.7a4 4 0 0 0 .3-1 3 3 0 0 0 .2-.7 4 4 0 0 0 0-.5c0-.2 0-.4-.2-.6-.2-.2-.4-.4-.7-.4-.3 0-.5 0-.7.3a2 2 0 0 0-.6.7l-.4 1-.1 1c0 .5 0 .8.2 1 .1 0 .3.2.6.2Zm3.7.6 1.2-5.4h.8l-.4 2.3h2.4l.6-2.3h.9l-1.2 5.4h-.9l.6-2.4h-2.6l-.4 2.4Zm8 .1c-.6 0-1-.2-1.3-.6-.3-.3-.4-.8-.4-1.3l.1-1.2.6-1c0-.5.4-.8.7-.8a2 2 0 0 1 1-.3c.4 0 .7 0 1 .2l.3.6v-.2c.2-1 .2-1.6-.1-2-.3-.3-.6-.5-1.1-.5h-.5l-.5.2-.2-.6.6-.2.8-.2c.7 0 1.2.3 1.6.9.3.5.4 1.3.4 2.3v1.2l-.4 1.3a5 5 0 0 1-.6 1.1 3 3 0 0 1-.8.8l-1.2.3Zm.1-.9c.3.1.6.1.9-.2l.6-1a6 6 0 0 0 .4-1.3 2 2 0 0 0-.4-.8c-.2-.3-.6-.4-.8-.4-.3 0-.6.1-.8.4-.3.2-.5.5-.6 1-.2.3-.4.6-.4 1.1.1.5.2.8.4 1 .1.2.4.3.6.3Zm5.2.9c-.4 0-.8-.1-1-.4-.2-.2-.3-.5-.3-1v-.7l.9-3.4h.8l-.7 3.4-.1.4v.3l.1.5h.5c.3.1.5.1.7 0l.8-.8c.1-.4.3-.8.4-1.4l.5-2.4h.9l-.8 3.4V92h.6c.4.1.5.1.7 0 .3-.3.5-.5.7-.9.2-.3.4-.8.5-1.4l.5-2.3h1l-1.3 5.4h-.7l.1-1-.4.5-.7.4-.6.3c-.4-.1-.7-.2-.9-.4-.2-.3-.3-.6-.3-1l-.7.8-.5.3-.7.2Zm8.8 0c-.4 0-.8-.2-1-.5-.3-.3-.4-.7-.4-1.4 0-.5 0-1 .2-1.4 0-.4.3-.8.5-1.2l.8-.8a2 2 0 0 1 1-.3c.5 0 .8.1 1.1.3l.2.7h.2l.3-1h.7l-1.2 5.5h-.7l.2-1-1 .8c-.2.2-.5.3-.9.3Zm.3-.7c.2 0 .5-.2.7-.3l.7-.7a4 4 0 0 0 .4-1 3 3 0 0 0 .1-.7 4 4 0 0 0 0-.5c0-.2 0-.4-.2-.6-.2-.2-.4-.4-.7-.4-.4 0-.5 0-.7.3a2 2 0 0 0-.7.7l-.3 1-.1 1c0 .5 0 .8.2 1 .1 0 .2.2.6.2Zm5.3 3 .5-2.3c-.6-.1-1-.3-1.4-.7-.3-.4-.5-1-.5-1.6 0-.6.2-1 .4-1.6.2-.5.6-.9 1-1.2.5-.3 1-.4 1.7-.5l.6-2.1h.7l-.5 2.1c.6.1 1 .4 1.4.7.4.4.5 1 .5 1.6 0 .6-.1 1.1-.3 1.6-.4.5-.8 1-1.1 1.2-.5.3-1 .4-1.7.6l-.5 2.2Zm.7-3 .8-4.2c-.4 0-.8.2-1 .5-.4.2-.6.5-.8 1l-.2.9c0 .6.1 1.2.3 1.4.3.1.5.2.9.2Zm.8-.1a2 2 0 0 0 1-.3l.5-.5.3-.8.2-.9c0-.5 0-.8-.2-1-.3-.4-.6-.6-1-.6Zm3.7.7 1.1-5.4h.7v1c0-.2.2-.3.3-.4.2-.3.4-.4.7-.5l.7-.2c.4 0 .6.1.8.3.2.4.4.5.4 1l.5-.6.6-.5.8-.2c.4 0 .7.1 1 .4 0 .2.2.5.2 1v.3l-.1.5-.6 3.3h-1l.9-3.4v-1.2h-.8c-.1-.2-.3-.2-.6.1l-.7.7-.4 1.4-.6 2.4h-.8l.7-3.4v-1.1c-.3-.3-.4-.3-.7-.3 0 0-.3 0-.6.3l-.7.8-.5 1.4-.5 2.3Zm8.7 0 1.2-5.4h.8l-.4 2.3h2.5l.5-2.3h.8l-1 5.4h-1l.5-2.4H213l-.5 2.4Zm8.1.1c-.5 0-1-.2-1.3-.4-.3-.3-.4-.6-.4-1.2V91a5 5 0 0 1 0-.6l.8-3h.8l-.6 2.3h1c.7-.1 1.1-.1 1.4.3.2.2.4.6.4 1s0 .7-.2 1c-.2.2-.4.5-.7.6-.3.2-.7.4-1.2.4Zm2.6-.1 1.1-5.4h1l-1.3 5.4Zm-2.6-.6c.5 0 .8-.2 1-.4a1 1 0 0 0 .1-.7c.2-.3.2-.5-.2-.6l-.6-.2h-.6l-.5.3v.7l.1.6c.2.2.4.3.7.3Zm8.5-5.5c-.6 0-1 0-1.2-.3-.3-.2-.4-.5-.4-.9a1 1 0 0 1 0-.3h.9v.3c-.1.1-.1.3.1.4l.7.2c.3-.1.5-.1.7-.2.2-.1.4-.4.4-.7h.9c-.1.4-.3.8-.6 1.1-.4.3-.8.4-1.5.4Zm-1.7 6.3c-.4-.1-.7-.2-1-.5-.2-.2-.3-.5-.3-1v-.8l.8-3.3h.9l-.9 3.4v.7l.2.5.6.2.7-.3c.3-.1.5-.4.7-.8.3-.3.4-.8.6-1.4l.4-2.3h1l-1.2 5.4h-.7v-1l-.3.5-.7.4-.8.3Zm-51.9 11.8a4 4 0 0 1-.8 0 3 3 0 0 1-.8-.4v-.7l.8.3h1c.2.1.6.1.9-.2.3-.2.3-.4.3-.7.1-.2.1-.4-.1-.6l-.9-.2h-.6l.1-.7h.5l.7-.1c.2 0 .3-.1.5-.3l.2-.5c0-.2 0-.4-.2-.5l-.6-.2-.7.1-.7.2-.3-.6a4 4 0 0 1 1.8-.4c.5 0 .9 0 1.2.3.1.2.4.5.4 1 0 .2-.1.5-.3.7-.3.4-.6.5-1 .7l.7.3c.2.2.2.5.2.8.1.5-.2.9-.5 1.2-.4.4-1 .5-1.8.5Zm4.9 0c-.4 0-.8-.1-1-.4-.4-.4-.5-.8-.5-1.4l.2-1.4c.2-.6.3-.9.6-1.2.2-.4.5-.6.8-.8a2 2 0 0 1 1-.3c.4 0 .8 0 1.1.3l.3.6.5-.8h.5l-1.1 5.3h-.7l.2-1-1 .8c-.2.2-.5.3-.9.3Zm.3-.7c.2 0 .5 0 .7-.3l.6-.7a4 4 0 0 0 .5-1 3 3 0 0 0 0-.6 4 4 0 0 0 .2-.4c-.1-.3-.1-.6-.4-.8-.1-.2-.3-.3-.6-.3s-.5 0-.8.3a2 2 0 0 0-.5.6l-.5 1.1-.1 1c.1.4.1.6.3.8.1.2.3.3.6.3Zm3.7.6 1.1-5.3h1l-.6 2.5 2.5-2.5h1L186 102l1.7 2.7h-1l-1.7-2.6-.6 2.6Zm6.5.1c-.4 0-.7-.1-1-.4-.3-.4-.4-.8-.4-1.4 0-.5 0-1 .2-1.4l.5-1.2c.2-.4.5-.6.8-.8a2 2 0 0 1 1.1-.3c.4 0 .6 0 .9.3l.5.6.4-.8h.6l-1.1 5.3h-.7v-1l-.8.8c-.3.2-.6.3-1 .3Zm.3-.7c.3 0 .5 0 .7-.3l.7-.7a4 4 0 0 0 .3-1 3 3 0 0 0 .2-.6 4 4 0 0 0 0-.4c.1-.3.1-.6-.2-.8-.2-.2-.4-.3-.7-.3-.3 0-.5 0-.7.3a2 2 0 0 0-.6.6l-.4 1.1-.1 1c0 .4 0 .6.2.8.1.2.3.3.6.3Zm5 .7a4 4 0 0 1-.9 0 3 3 0 0 1-.6-.4v-.7l.6.3h1c.4.1.6.1 1-.2.2-.2.4-.4.4-.7l-.3-.6-.8-.2h-.7l.2-.7h.5l.6-.1.7-.3v-.5l-.1-.5-.7-.2-.6.1-.7.2-.3-.6a4 4 0 0 1 1.8-.4c.5 0 .8 0 1.1.3.3.2.5.5.5 1 0 .2 0 .5-.4.7-.2.4-.5.5-1 .7l.9.3.1.8c0 .5-.2.9-.6 1.2-.3.4-1 .5-1.7.5Zm3.2-.1 1.1-5.3h1l-.6 2.2h2.6l.4-2.2h1l-1.3 5.3h-.8l.5-2.4H200l-.6 2.4Zm7.6.1c-.4 0-.7 0-1-.3-.1-.2-.3-.6-.3-1v-.9l.9-3.2h.8l-.7 3.3-.1.7.1.6.6.1c.2 0 .4 0 .6-.2l.8-.9c.3-.3.4-.7.6-1.3l.5-2.3h.8l-1.1 5.3h-.7v-1l-.4.5-.6.5-.9.1Zm4.2-.1 1.1-5.3h.9l-.5 2.5 2.5-2.5h1l-2.6 2.6 1.8 2.7h-1l-1.9-2.6-.4 2.6Zm-36.6 11.4-1.1-2.1v-.2l1.9-1.8.4.4-1.4 1.6.8 1.9Zm1.9 0-1-2 1.6-2.1.6.3-1.4 1.7.8 2Zm4.6.7c-.8 0-1.5-.3-2-.8-.3-.4-.5-1-.5-2-.1-.4-.1-.8.1-1.3 0-.4.2-.7.4-1.2s.5-.8.8-1c.3-.5.7-.7 1-.9l1.6-.2c.4 0 1.1.2 1.6.4l-.2.8a4 4 0 0 0-.8-.3h-.7c-.5-.1-1-.1-1.3.2l-1 .9a4 4 0 0 0-.4 1.3l-.2 1.3c0 .6.1 1.1.4 1.5.3.3.8.5 1.3.5l.8-.1.9-.2v.8l-.9.2a5 5 0 0 1-1 0Zm2.4 2.2 1.6-7.6h.7l-.1.9.8-.8c.4-.2.7-.3 1-.3.5 0 .8.2 1 .5.4.3.6.7.6 1.3-.2.5-.2 1-.3 1.4l-.5 1.2-.8.9a2 2 0 0 1-1.1.3c-.5 0-.7-.1-1-.3a2 2 0 0 1-.3-.6l-.2.4v.5l-.7 2.2Zm2.8-3c.3 0 .5 0 .7-.2l.6-.8a4 4 0 0 0 .4-.9 5 5 0 0 0-.1-1c.2-.9 0-1.3-.6-1.3l-.8.4-.6.7-.5 1-.1.9c0 .6 0 .8.2 1 .2.2.4.2.8.2Zm5.6.8c-.6 0-1.1-.2-1.5-.6-.3-.2-.5-.8-.5-1.5l.2-1.2.6-1.2.8-.8a2 2 0 0 1 1.1-.3c.5 0 1 .1 1.3.3 0 .3.2.6.2 1 .1.3.1.5-.2 1l-1 .5c-.6.3-1 .4-1.9.4h-.1v.3c0 .4 0 .7.1 1 .3.2.6.3 1.1.3h.6a5 5 0 0 0 .8-.5v.9a6 6 0 0 1-.6.2l-1.1.2Zm-1-3.2h1.3l.9-.5c.1-.1.2-.3.2-.6 0-.2 0-.3-.2-.4l-.5-.2c-.4.1-.7.2-1 .5-.3.3-.5.6-.6 1.2Zm5.8 3.2c-.6 0-1-.2-1.3-.6-.3-.2-.5-.8-.5-1.4 0-.4 0-.7.2-1.1l.5-1.1.7-.8a2 2 0 0 1 1.1-.3c.5 0 .7.1 1 .3l.3.6v-.4c.2-.7.2-1.3-.1-1.7-.3-.4-.6-.6-1.1-.6h-.5l-.5.3-.2-.7.6-.3h.7c.8 0 1.3.2 1.6.8.4.5.7 1.2.7 2.2-.1.4-.1 1-.3 1.3 0 .4-.1.9-.3 1.3a5 5 0 0 1-.6 1.1 3 3 0 0 1-.9.8c-.3.2-.7.3-1.1.3Zm.1-.8c.3 0 .6 0 .9-.4l.6-1a6 6 0 0 0 .4-1.2 2 2 0 0 0-.4-.9c-.2-.2-.5-.3-.8-.3-.3 0-.6.1-.8.4-.3.2-.5.4-.8 1v1.1l.1 1c.2.2.4.3.9.3Zm3.6.7 1.1-5.4h1l-.6 2.2h2.6l.4-2.2h1l-1.3 5.4h-.8l.5-2.4h-2.5l-.5 2.4Zm5.9 0h-.4v-.7h.3c.1 0 .3 0 .4-.2l.4-.6.3-.6.6-.4c-.3 0-.6-.2-.7-.4a1.4 1.4 0 0 1-.3-.8c0-.5.2-.9.6-1.2.3-.3.9-.5 1.6-.5h2l-1.1 5.4h-.9l.5-2.1h-.7c-.3 0-.5 0-.7.2l-.3.7-.5.5-.4.6-.7.1Zm2.6-2.9h.8l.4-1.7h-1.1c-.4-.1-.7-.1-.9.2-.2.2-.2.4-.2.7 0 .3 0 .5.2.6.2.2.5.2.8.2Zm2.7 2.9h-.4v-.7h.3c.2 0 .3 0 .4-.2l.4-.6.4-.6.5-.4c-.3 0-.5-.2-.7-.4a1.4 1.4 0 0 1-.2-.8c0-.5.2-.9.5-1.2.4-.3.9-.5 1.6-.5h2l-.9 5.4h-1.2l.6-2.1h-.6c-.4 0-.6 0-.7.2-.2.1-.3.4-.5.7-.1.2-.2.5-.4.5 0 .3-.2.5-.4.6l-.7.1Zm2.6-2.9h.9l.3-1.7h-1.1c-.4-.1-.7-.1-.9.2l-.2.7c0 .3 0 .5.3.6.2.2.4.2.7.2Zm-43 14.8 1.5-7.1h5l-1.7 7.1h-.8l1.4-6.3h-3.2l-1.3 6.3Zm6.2 2.4 1.5-7.8h.8l-.1 1 .8-.7c.3-.2.7-.5 1-.5.5.1.8.3 1 .6.4.4.5.8.5 1.4 0 .5 0 1-.2 1.4l-.5 1.2-.8.8a2 2 0 0 1-1.1.3c-.4 0-.7 0-1-.3a2 2 0 0 1-.4-.6l-.2.4v.5l-.6 2.3Zm2.8-3c.3 0 .5-.1.7-.3.3-.1.4-.4.6-.7a4 4 0 0 0 .4-1 5 5 0 0 0 0-1c0-.8-.1-1.1-.7-1.1-.3 0-.5 0-.7.1l-.7.8-.5 1-.1 1.1c0 .3 0 .6.2.8.2.2.5.3.8.3Zm5.1.7c-.4 0-.8-.1-1-.3-.4-.4-.4-.6-.4-1v-.5l.1-.4.7-3.3h1l-.8 3.4v1.2l.7.2c.1 0 .4-.1.6-.3.3-.1.5-.4.8-.7l.5-1.4.5-2.4h.9l-1.2 5.4h-.7l.1-1-.5.5c-.1.2-.3.3-.6.4l-.7.2Zm4.1-.1 1.1-5.4h.8v1c-.1-.2.1-.3.3-.5a2 2 0 0 1 .7-.4l.6-.3c.6.1 1 .2 1.1.5.3.2.4.5.4 1v.9l-.9 3.2h-.9l.9-3.4v-.6c0-.6-.2-.7-.6-.7-.3.1-.6.1-.8.2-.3.2-.5.4-.7.9-.3.2-.5.7-.6 1.3l-.5 2.3Zm5.8.1h-.3l-.2-.2v-.6h.3l.4-.1.5-.8.3-.4.5-.4-.7-.5a1.4 1.4 0 0 1-.1-.7c-.1-.5 0-.9.4-1.3.4-.3.9-.5 1.6-.5h2l-1 5.4h-1l.6-2.1h-.7c-.4 0-.6 0-.7.2l-.5.7-.4.7c0 .2-.2.3-.3.4l-.8.2Zm2.5-3h.9l.3-1.7h-1c-.5 0-.8 0-1 .3l-.2.6c0 .3 0 .6.2.7l.8.1Zm2.8 2.9 1.2-5.4h.7l-.1 1 .6-.5.4-.4.8-.2c.3 0 .6.2.8.4l.4.8.6-.5.5-.5.8-.2c.4 0 .7.2 1 .4 0 .2.2.5.2 1v.4l-.2.4-.5 3.3h-1l.9-3.4v-1.1c-.4-.2-.6-.2-.7-.2-.2 0-.4 0-.7.1-.2.3-.5.5-.7 1l-.5 1.2-.5 2.4h-.8l.7-3.4V124c-.2-.1-.4-.1-.6-.1s-.4 0-.7.1c-.2.3-.5.5-.7 1-.2.2-.4.7-.5 1.3l-.5 2.3Zm10.9.1c-.5 0-1-.1-1.3-.4-.2-.2-.5-.6-.5-1.2v-.4l.3-.5.5-3h.9l-.5 2.4a9.8 9.8 0 0 1 1.1-.2c.6 0 1 .2 1.3.6.3 0 .4.5.4.9 0 .3 0 .6-.2.9-.2.2-.5.5-.7.6-.4.2-.8.3-1.3.3Zm.1-.7c.4 0 .8-.1 1-.3a1 1 0 0 0 .3-.8c0-.2-.1-.4-.3-.5-.1-.2-.4-.2-.8-.2a5.6 5.6 0 0 0-1 0l-.3.7v.1c.1.3.1.6.3.7.1.3.4.3.8.3Zm5.2 0-.5-.3 1.5-1.7-.8-1.9.6-.1 1 2.1v.1Zm-1.9 0-.5-.4 1.4-1.6-.7-2h.6l1 1.9v.1Zm.1 0" style="fill:none;stroke-width:2;stroke-linecap:butt;stroke-linejoin:round;stroke:#fff;stroke-opacity:.6;stroke-miterlimit:10" transform=" rotate(  340 194.68 107.693) "/> <g style="fill:green;fill-opacity:1" transform=" rotate(  340 194.68 107.693) ">  <use xlink:href="#a" x="157.6" y="92.8"/>  <use xlink:href="#b" x="164.1" y="92.8"/>  <use xlink:href="#c" x="169.8" y="92.8"/>  <use xlink:href="#d" x="175.8" y="92.8"/>  <use xlink:href="#e" x="181.4" y="92.8"/>  <use xlink:href="#b" x="190.2" y="92.8"/>  <use xlink:href="#f" x="195.9" y="92.8"/>  <use xlink:href="#g" x="202.6" y="92.8"/>  <use xlink:href="#c" x="211.3" y="92.8"/>  <use xlink:href="#h" x="217.3" y="92.8"/>  <use xlink:href="#i" x="224.6" y="92.8"/>  <use xlink:href="#j" x="173.1" y="104.7"/>  <use xlink:href="#b" x="177.6" y="104.7"/>  <use xlink:href="#k" x="183.2" y="104.7"/>  <use xlink:href="#b" x="188.1" y="104.7"/>  <use xlink:href="#j" x="193.8" y="104.7"/>  <use xlink:href="#c" x="198.2" y="104.7"/>  <use xlink:href="#l" x="204.2" y="104.7"/>  <use xlink:href="#k" x="210" y="104.7"/>  <use xlink:href="#m" x="172.1" y="116.7"/>  <use xlink:href="#n" x="176.9" y="116.7"/>  <use xlink:href="#o" x="182.8" y="116.7"/>  <use xlink:href="#p" x="188.6" y="116.7"/>  <use xlink:href="#d" x="193.6" y="116.7"/>  <use xlink:href="#c" x="199.2" y="116.7"/>  <use xlink:href="#q" x="205.2" y="116.7"/>  <use xlink:href="#q" x="210.5" y="116.7"/>  <use xlink:href="#r" x="169.9" y="128.6"/>  <use xlink:href="#o" x="176.7" y="128.6"/>  <use xlink:href="#l" x="182.5" y="128.6"/>  <use xlink:href="#s" x="188.3" y="128.6"/>  <use xlink:href="#q" x="194" y="128.6"/>  <use xlink:href="#g" x="199.4" y="128.6"/>  <use xlink:href="#t" x="208.1" y="128.6"/>  <use xlink:href="#u" x="213.3" y="128.6"/> </g> <path d="M188.2 214.3a2 2 0 0 1-.2 0l-.4-.3v-.6h1l.5-.6.4-.9a49.1 49.1 0 0 0 .7-2.2l.4-1.4.3-1.3h3.6l-1.6 7.1h-.8l1.3-6.3h-1.8l-.3 1a217.2 217.2 0 0 1-1 3.5l-.5 1c-.1.3-.4.7-.6.7-.3.2-.6.3-1 .3Zm8.2-.1c-.5 0-.8-.1-1-.4-.4-.3-.6-.8-.6-1.4.1-.4.1-1 .3-1.4l.5-1.2c.4-.3.5-.6.9-.8a2 2 0 0 1 1-.3c.5 0 .7 0 .9.3l.5.6.3-.8h.8l-1.2 5.2h-.8l.2-.9-.8.9c-.4.1-.7.2-1 .2Zm.2-.7c.4 0 .5 0 .8-.2l.6-.8a4 4 0 0 0 .4-1 3 3 0 0 0 .1-.5 4 4 0 0 0 0-.5c.1-.3.1-.6-.1-.8-.3-.2-.4-.3-.8-.3-.2 0-.5.1-.6.3a2 2 0 0 0-.7.6l-.3 1-.2 1.1c0 .4 0 .7.2.9l.6.2Zm3.8.6 1.1-5.3h.9l-.5 2.2h2.5l.6-2.2h.8l-1.1 5.2h-1l.7-2.3h-2.6l-.5 2.4Zm8 .1c-.6 0-1-.1-1.4-.5-.3-.3-.4-.7-.4-1.4 0-.4 0-.8.2-1.2 0-.3.2-.7.4-1l.8-.8a2 2 0 0 1 1-.3c.6 0 .9.1 1 .3.2.1.4.3.5.6v-.3c0-.8 0-1.4-.3-1.8-.2-.4-.6-.6-1-.6h-.6l-.5.2-.1-.7.5-.2h.8c.7-.1 1.3.1 1.6.6.3.7.5 1.4.5 2.4l-.1 1.3-.3 1.2a5 5 0 0 1-.6 1 3 3 0 0 1-.9 1l-1.1.2Zm0-.7c.5 0 .8-.1 1.1-.4l.5-1a6 6 0 0 0 .4-1.3 2 2 0 0 0-.5-.8c-.2-.2-.4-.3-.7-.3-.3 0-.6.1-.9.3l-.6 1-.2 1.3c0 .3 0 .6.2.9.1.2.4.3.8.3ZM213.6 214.2c-.4 0-.6 0-1-.2-.1-.3-.2-.6-.2-1v-1l.7-3.2h.9l-.7 3.2v1.3l.7.2s.3 0 .6-.2l.6-.8c.3-.3.4-.8.5-1.3l.6-2.4h.7l-.6 3.2v1.3l.6.2c.2 0 .4 0 .7-.2l.6-.8c.3-.3.4-.8.7-1.4l.3-2.3h1L219 214h-.6v-.9c0 .3-.2.5-.4.7l-.6.2-.7.2c-.4 0-.6 0-.7-.2-.3-.3-.5-.6-.5-.9l-.5.5-.6.5-.8.1Zm8.9 0c-.5 0-.8-.1-1-.4-.5-.3-.5-.8-.5-1.4 0-.4 0-1 .2-1.4l.5-1.2c.3-.3.5-.6.9-.8a2 2 0 0 1 1-.3c.4 0 .7 0 .9.3l.5.6.3-.8h.7l-1 5.2h-.8l.1-.9-.8.9c-.3.1-.7.2-1 .2Zm.2-.7c.3 0 .5 0 .8-.2l.5-.8a4 4 0 0 0 .6-1 3 3 0 0 0 0-.5 4 4 0 0 0 0-.5c.1-.3.1-.6-.1-.8-.3-.2-.5-.3-.8-.3-.2 0-.5.1-.7.3a2 2 0 0 0-.6.6l-.4 1v1.1c-.1.4-.1.7 0 .9l.7.2Zm5.3 3.1.7-2.4c-.7 0-1.2-.2-1.5-.7-.4-.4-.5-.9-.5-1.5s.1-1.1.3-1.6c.3-.5.6-.9 1-1.2.6-.2 1-.5 1.8-.5l.4-2.1h.8l-.5 2.1c.6 0 1.1.3 1.5.7.3.4.5.9.5 1.5s-.2 1.2-.5 1.7c-.2.5-.5.9-1 1.2-.5.2-1 .4-1.7.4l-.4 2.4Zm.8-3.1.8-4c-.6-.1-.9-.1-1.2.2-.3.4-.4.7-.6 1.1-.2.2-.2.7-.2 1.1 0 .5 0 .9.3 1.2.1.2.5.4.8.4Zm.7 0a2 2 0 0 0 1-.3l.5-.6c.2-.2.4-.5.4-.8l.2-.8c0-.5-.2-1-.4-1.1-.2-.3-.5-.4-.8-.4Zm3.7.6 1.1-5.3h.8l-.2 1h.1l.4-.5.6-.4c.2-.2.5-.2.7-.2.4 0 .7.1.9.3.2.2.3.5.3.9l.6-.6.6-.3c.2-.3.4-.3.7-.3.4 0 .7.1 1 .3.2.3.2.6.2 1v.9l-.7 3.1h-.9l.7-3.2.1-.4v-.4l-.1-.4-.6-.2-.5.3c-.4.1-.6.3-.8.7l-.5 1.3-.5 2.4h-.9l.7-3.3.1-.8s0-.3-.1-.4l-.5-.2c-.3 0-.5.1-.7.3-.3.1-.5.3-.8.7-.1.4-.3.8-.4 1.4l-.6 2.3Zm8.8 0 1-5.3h1l-.5 2.2h2.5l.5-2.2h.9l-1.2 5.2h-.8l.5-2.3h-2.6l-.5 2.4Zm8 .1c-.5 0-1 0-1.2-.2-.3-.4-.5-.8-.5-1.3v-.4a5 5 0 0 1 .1-.5l.6-3h1l-.7 2.2h1.2c.5 0 1 0 1.2.4.3.2.4.6.4 1 0 .3 0 .7-.1 1l-.8.6c-.2.2-.7.2-1.2.2Zm2.7 0 1-5.5h1.1l-1.3 5.3Zm-2.7-.8c.5.1.8.1 1-.2a1 1 0 0 0 .3-.7c0-.3-.1-.5-.3-.6l-.8-.2h-.5l-.4.1-.1.5v.3c0 .4 0 .5.2.7l.6.2Zm8.6-5.4c-.6 0-1 0-1.3-.1-.2-.4-.3-.7-.3-1.1a1 1 0 0 1 0-.1h.8v.1l.1.5.7.2.8-.2.4-.7h.8c0 .4-.3.8-.6 1-.3.4-.8.6-1.4.6Zm-1.7 6.3c-.5-.1-.9-.1-1-.3-.3-.3-.4-.7-.4-1v-.5l.1-.5.7-3.2h1l-.9 3.4v.6c0 .2 0 .4.2.5 0 .2.3.2.4.2s.6 0 .8-.2l.8-.8c.2-.3.4-.8.4-1.4l.6-2.3h.9l-1.2 5.2h-.7l.1-.9-.5.7-.6.2-.6.2ZM205 226.2a4 4 0 0 1-1-.2 3 3 0 0 1-.6-.2v-.8l.7.3 1 .2c.4 0 .7-.1.9-.3.3-.2.4-.4.4-.7 0-.3 0-.5-.2-.6-.1-.2-.4-.2-.8-.2h-.7l.2-.8h1.1c.2 0 .4-.2.5-.3.2-.1.3-.3.3-.6 0-.2-.1-.3-.3-.5l-.5-.1h-.8l-.7.4-.2-.8a4 4 0 0 1 1.7-.4c.5 0 1 .1 1.2.4.3.2.4.5.4.9 0 .3 0 .6-.3.9-.2.2-.5.4-1 .5.5 0 .7.2.7.4.2.2.3.3.3.7 0 .6-.3 1-.6 1.3-.4.3-1 .5-1.7.5Zm4.8 0c-.4 0-.7-.2-1-.5-.3-.3-.4-.7-.4-1.4 0-.5 0-1 .2-1.3l.4-1.3 1-.7a2 2 0 0 1 1-.4c.4 0 .6.1 1 .4l.4.6.3-.9h.7l-1.1 5.4h-.7l.1-1.1-1 .9c-.2.1-.5.3-.9.3Zm.3-.7c.3 0 .5-.1.7-.3l.7-.7a4 4 0 0 0 .4-1 3 3 0 0 0 .1-.7 4 4 0 0 0 0-.4c0-.3 0-.4-.1-.7-.3-.2-.5-.3-.9-.3-.2 0-.4 0-.6.2a2 2 0 0 0-.6.7l-.4 1-.1 1c0 .5 0 .7.2 1 .1.1.3.2.5.2Zm3.8.5 1-5.2h1.1l-.7 2.5 2.5-2.6h1.2l-2.7 2.7 1.7 2.6h-1l-1.7-2.6-.6 2.7Zm6.5.2c-.5 0-.8-.2-1-.5-.4-.3-.6-.7-.6-1.4.2-.5.2-1 .3-1.3l.6-1.3.8-.7a2 2 0 0 1 1-.4c.5 0 .8.1 1.1.4l.2.6.6-.9h.5l-1.1 5.4h-.7l.1-1.1-.8.9c-.4.1-.7.3-1 .3Zm.3-.7.7-.3.6-.7a4 4 0 0 0 .5-1 3 3 0 0 0 0-.7 4 4 0 0 0 .2-.4c-.1-.3-.1-.4-.4-.7-.1-.2-.3-.3-.7-.3-.2 0-.5 0-.6.2a2 2 0 0 0-.7.7l-.3 1-.2 1c0 .5 0 .7.2 1 .2.1.4.2.7.2Zm5 .7a4 4 0 0 1-1-.2 3 3 0 0 1-.5-.2v-.8l.6.3 1 .2c.2 0 .6-.1.9-.3.3-.2.3-.4.3-.7.1-.3.1-.5 0-.6-.3-.2-.5-.2-1-.2h-.6l.1-.8h1.2c.2 0 .3-.2.5-.3l.2-.6c0-.2 0-.3-.2-.5l-.6-.1h-.7l-.7.4-.3-.8a4 4 0 0 1 1.8-.4c.5 0 .9.1 1.2.4.3.2.4.5.4.9l-.3.9-1 .5c.3 0 .5.2.7.4.2.2.2.3.2.7.1.6-.2 1-.5 1.3-.4.3-1 .5-1.7.5Zm3.1-.2 1.2-5.2h.9l-.5 2.2h2.5l.5-2.3h.9l-1.3 5.4h-.8l.5-2.4h-2.5l-.5 2.3Zm7.7.2c-.5 0-.8-.2-1-.4-.3-.2-.5-.5-.5-1v-.4l.2-.4.8-3.3h1l-1 3.4v1.2l.8.2c.2 0 .4-.1.6-.3.3-.1.6-.4.8-.8.2-.3.4-.8.5-1.4l.5-2.3h.9l-1.2 5.4h-.7l.1-1.1-.5.6c-.1.2-.3.3-.6.4l-.7.2Zm4.1-.2 1.2-5.2h.8l-.5 2.5 2.5-2.6h1l-2.6 2.7 1.8 2.6h-1l-1.8-2.6-.5 2.7Zm-45.4 11.5-1.2-2.2v-.1l2-1.9.4.4-1.4 1.6.8 2Zm1.8 0-1-2v-.1l1.7-2 .6.3-1.3 1.8.7 1.7Zm4.8.6c-.9 0-1.5-.1-2-.7-.4-.5-.7-1.2-.7-2 0-.7.1-1.2.3-1.8.1-.5.4-1 .6-1.5l1.2-1a3 3 0 0 1 1.5-.3c.9 0 1.5.2 2 .7.3.5.5 1.2.5 2 .1.8.1 1.4-.1 1.9l-.7 1.4-1.1 1c-.4.2-1 .2-1.5.2Zm0-.8a2 2 0 0 0 1-.3c.5-.2.8-.4 1-.8l.4-1.2.2-1.4c0-.7-.2-1.2-.5-1.6-.3-.2-.7-.4-1.2-.4a2 2 0 0 0-1.1.3c-.3.1-.6.4-.8.8l-.5 1.2a6 6 0 0 0-.3 1.4c0 .7.2 1.2.5 1.5.3.4.8.5 1.3.5Zm3.7.7h-.5v-.7h.4c.2 0 .4 0 .6-.2 0-.1.3-.3.4-.7l.5-1.2.4-1.1.5-.8c.1-.3.4-.4.6-.5l1-.2a4.5 4.5 0 0 1 1.2.2l-1 5.2h-1.1l1.1-4.6h-.3c-.3 0-.5 0-.7.2-.2 0-.3.3-.6.6l-.4 1.3-.5 1.5c-.2.3-.4.6-.7.8-.2.2-.4.3-1 .3Zm7.9.1c-.6 0-1-.1-1.4-.4-.3-.2-.4-.6-.4-1.1v-.6l.1-.4.6-3h1l-.7 2.4a9.8 9.8 0 0 1 1.3-.1c.6 0 1 .1 1.3.4.2.2.4.6.4 1l-.3 1-.7.5-1.2.2Zm0-.7c.6 0 .8-.1 1-.3a1 1 0 0 0 .3-.7c0-.4 0-.5-.2-.6l-.8-.2a5.6 5.6 0 0 0-1.1.1l-.1.5V237.1c.3.2.6.3.9.3Zm3.1.6 1.1-5.3h1.2l.5 4.2 2.4-4.2h1.2l-1.1 5.3h-.8l.6-3 .2-.8.2-.7-2.5 4.5h-.7l-.6-4.5-.2.7v.8l-.7 3Zm8.6.1c-.4 0-.8-.1-1-.4-.3-.3-.4-.8-.4-1.4 0-.5 0-1 .2-1.4 0-.5.3-.9.5-1.2.2-.4.5-.7.8-.8a2 2 0 0 1 1-.3c.5 0 .8 0 1.1.3 0 .1.1.3.2.6h.2l.3-.8h.7l-1.2 5.3h-.7l.2-1-1 .8c-.2.2-.5.3-.9.3Zm.3-.7c.2 0 .5 0 .7-.3l.7-.7a4 4 0 0 0 .4-1 3 3 0 0 0 .1-.6 4 4 0 0 0 0-.4c0-.4 0-.6-.2-.8-.2-.2-.4-.3-.7-.3-.4 0-.5 0-.7.3a2 2 0 0 0-.7.6l-.3 1-.1 1.1c0 .4 0 .7.2.8.1.2.2.3.6.3Zm3.7.6 1.2-5.3h.9l-.5 2.2h2.5l.5-2.2h.9l-1.2 5.3h-.9l.5-2.4h-2.5l-.5 2.4Zm8.2.1c-.6 0-1-.1-1.3-.5-.5-.3-.6-.8-.6-1.5l.1-1.3.6-1.2c.2-.3.5-.6.9-.6.3-.3.7-.4 1.2-.4h.6l.7.2-.3.8-.5-.2-.5-.1c-.4 0-.8.1-1 .4-.3.2-.6.6-.7 1a4 4 0 0 0-.3 1.4c0 .4.1.7.4 1 .2.2.4.3.8.3l.7-.1a7 7 0 0 0 .6-.2v.7l-.6.2-.8.1Zm2.4-.1 1.1-5.3h.9l-.7 2.5 2.6-2.5h1.1l-2.6 2.6 1.8 2.7h-1l-1.9-2.6-.4 2.6Zm6.4.1c-.4 0-.7 0-1-.3-.1-.2-.2-.6-.2-1v-.4l.1-.5.6-3.2h1l-.9 3.3v.7c0 .3 0 .4.2.5 0 .1.1.2.5.2.2 0 .5 0 .7-.2l.9-.8c0-.4.3-.8.4-1.4l.5-2.3h.9l-1.2 5.3h-.6v-1l-.5.5-.5.5h-.9Zm6.4 0c-.7 0-1.1-.1-1.5-.5-.3-.4-.5-.9-.5-1.6 0-.3 0-.7.2-1.2l.5-1.1.9-.8a2 2 0 0 1 1.1-.3c.5 0 .9 0 1.1.3.3.2.4.5.4 1 0 .2 0 .5-.3.8-.2.3-.4.6-1 .8l-1.8.2h-.2v.4c0 .4.1.7.3.9.3.2.5.3 1 .3h.5a5 5 0 0 0 .9-.3v.7a6 6 0 0 1-.8.3l-.8.1Zm-1-3.1h.2l1-.1c.4 0 .7-.2.9-.4.2-.1.3-.3.3-.5 0-.3 0-.4-.2-.5-.1-.2-.3-.2-.5-.2-.4 0-.7.1-1 .4-.2.3-.5.8-.6 1.3ZM206 250c-.4 0-1 0-1.3-.4-.4-.5-.6-1.1-.6-1.8a7.4 7.4 0 0 1 .4-2.2l.5-1.2.7-1 1-.6h.5a34 34 0 0 1 1.6-.5h.6v.7l-.6.2-1 .1-.7.2c-.4.2-.8.5-1 .8-.5.4-.7 1-.9 1.7a3 3 0 0 1 .9-.7c.3-.3.6-.3.9-.3.6 0 1 0 1.2.5.3.3.4.7.4 1.3l-.1 1.2-.5 1c-.2.4-.5.6-.8.8-.2.2-.7.2-1.1.2Zm.2-.6c.2-.1.5-.1.8-.3a2 2 0 0 0 .4-.6l.2-.8.1-.8c0-.4 0-.7-.2-.9-.1-.2-.5-.3-.6-.3-.3 0-.5 0-.7.3l-.6.3a4 4 0 0 0-.6.5v1c0 .5 0 .9.2 1.2.3.2.5.3.8.3Zm5.4.6c-.6 0-1.1 0-1.5-.5-.3-.4-.5-.9-.5-1.5 0-.4 0-.8.2-1.2a4 4 0 0 1 .5-1.1c.2-.4.5-.7.7-.9.4-.2.8-.3 1.3-.3.6 0 1 .2 1.4.6.4.4.6.9.6 1.5 0 .4 0 .8-.3 1.2a4 4 0 0 1-.4 1.2c-.2.3-.5.5-.8.7l-1.2.3Zm0-.7c.4 0 .7-.1 1-.3l.4-1c.3-.4.4-.9.4-1.5l-.1-.5a1 1 0 0 0-.4-.6l-.6-.1c-.4 0-.7 0-1 .3l-.6 1a4 4 0 0 0-.2 1.4c0 .4 0 .8.3 1 .2.2.5.3.8.3Zm3.1.7h-.4v-.8H215.2l.4-.8.5-1.2.4-1.2.5-.8.7-.5 1-.1a4.5 4.5 0 0 1 1.1.1l-1.1 5.3h-.7l.9-4.7h-.4c-.3 0-.5 0-.7.2-.2.1-.3.3-.4.7l-.5 1.3-.6 1.4-.6.8c-.3.3-.7.3-1 .3Zm8 0c-.7 0-1.1 0-1.5-.5-.4-.4-.5-.9-.5-1.5l.1-1.2a4 4 0 0 1 .5-1.1l.9-.9c.3-.2.7-.3 1.1-.3.7 0 1.2.2 1.5.6.4.4.5.9.5 1.5l-.1 1.2a4 4 0 0 1-.5 1.2c-.3.3-.5.5-.9.7-.3.3-.7.3-1.1.3Zm0-.7.9-.3c.2-.2.4-.6.6-1 .2-.4.2-.9.2-1.5v-.5a1 1 0 0 0-.4-.6l-.6-.1c-.4 0-.7 0-1 .3-.3.4-.5.6-.6 1a4 4 0 0 0-.2 1.4c0 .4 0 .8.3 1 .1.2.4.3.8.3Zm3.4.7 1.1-5.4h.8l-.2 1 .6-.6.6-.3.6-.2c.4 0 .7.1.9.3.2.2.3.5.3.9l.6-.6.6-.4.7-.2c.4 0 .7.1 1 .5.2 0 .3.4.3.9v.3l-.1.5-.7 3.3h-.9l.7-3.4.1-.4v-.2l-.1-.6-.6-.2-.6.3-.8.7-.4 1.3-.5 2.5h-.9l.8-3.4v-.6c0-.3 0-.4-.2-.6l-.4-.2c-.4 0-.5.1-.7.3-.3.1-.5.4-.7.7l-.5 1.5-.5 2.3Zm10.4 0c-.4 0-.8 0-1-.3-.3-.4-.5-.9-.5-1.5l.2-1.4.6-1.2.8-.8a2 2 0 0 1 1-.3c.4 0 .8.1 1.1.3l.3.6.5-.8h.5l-1.1 5.4h-.7l.2-1-1 .7c-.2.3-.5.4-.9.4Zm.3-.6c.2-.1.5-.1.7-.3.2-.2.5-.5.6-.8a4 4 0 0 0 .5-1 3 3 0 0 0 0-.5 4 4 0 0 0 .2-.5c-.1-.3-.1-.6-.3-.8-.2-.2-.5-.3-.7-.3-.3 0-.5.1-.8.3a2 2 0 0 0-.5.7c-.2.2-.3.6-.5 1l-.1.9c.1.6.1.9.3 1.1.1.1.3.1.6.1Zm5.9 0-.5-.4 1.5-1.6-.8-1.9.6-.2 1 2.1v.2Zm-1.9 0-.5-.4 1.4-1.8-.7-1.7.6-.2 1 2Zm0 0" style="fill:none;stroke-width:2;stroke-linecap:butt;stroke-linejoin:round;stroke:#fff;stroke-opacity:.6;stroke-miterlimit:10" transform=" rotate(  340 224.684 229.054) "/> <g style="fill:green;fill-opacity:1" transform=" rotate(  340 224.684 229.054) ">  <use xlink:href="#a" x="187.9" y="214.1"/>  <use xlink:href="#b" x="194.4" y="214.1"/>  <use xlink:href="#c" x="200.1" y="214.1"/>  <use xlink:href="#d" x="206.1" y="214.1"/>  <use xlink:href="#e" x="211.8" y="214.1"/>  <use xlink:href="#b" x="220.5" y="214.1"/>  <use xlink:href="#f" x="226.2" y="214.1"/>  <use xlink:href="#g" x="232.9" y="214.1"/>  <use xlink:href="#c" x="241.7" y="214.1"/>  <use xlink:href="#h" x="247.7" y="214.1"/>  <use xlink:href="#i" x="255" y="214.1"/>  <use xlink:href="#j" x="203.5" y="226.1"/>  <use xlink:href="#b" x="207.9" y="226.1"/>  <use xlink:href="#k" x="213.6" y="226.1"/>  <use xlink:href="#b" x="218.4" y="226.1"/>  <use xlink:href="#j" x="224.1" y="226.1"/>  <use xlink:href="#c" x="228.6" y="226.1"/>  <use xlink:href="#l" x="234.6" y="226.1"/>  <use xlink:href="#k" x="240.4" y="226.1"/>  <use xlink:href="#m" x="193.6" y="238"/>  <use xlink:href="#v" x="198.4" y="238"/>  <use xlink:href="#w" x="205.5" y="238"/>  <use xlink:href="#t" x="211" y="238"/>  <use xlink:href="#x" x="216.2" y="238"/>  <use xlink:href="#b" x="223.2" y="238"/>  <use xlink:href="#c" x="228.9" y="238"/>  <use xlink:href="#y" x="234.9" y="238"/>  <use xlink:href="#k" x="239.4" y="238"/>  <use xlink:href="#l" x="244.3" y="238"/>  <use xlink:href="#p" x="250" y="238"/>  <use xlink:href="#z" x="203.7" y="250"/>  <use xlink:href="#A" x="209.1" y="250"/>  <use xlink:href="#w" x="214.7" y="250"/>  <use xlink:href="#A" x="220.2" y="250"/>  <use xlink:href="#g" x="225.8" y="250"/>  <use xlink:href="#b" x="234.6" y="250"/>  <use xlink:href="#u" x="240.2" y="250"/> </g> <path d="m322.3 158.5 1.7-7.1h.7l-.6 3h3.1l.8-3h.8l-1.6 7.1h-.8l.6-3.3h-3.1l-.7 3.3Zm8.4.1c-.5 0-.8-.1-1-.4-.5-.4-.6-.8-.6-1.4.1-.5.1-1 .3-1.4l.5-1.2c.3-.4.5-.6.9-.8a2 2 0 0 1 1-.4c.4 0 .7 0 .9.3l.5.7.3-.8h.7l-1.1 5.3h-.7l.1-1-.8.8-1 .3Zm.2-.6c.3-.1.5-.2.8-.4l.6-.6a4 4 0 0 0 .4-1.1 3 3 0 0 0 .1-.6 4 4 0 0 0 0-.3c.1-.5.1-.7-.1-1-.3-.1-.5-.2-.7-.2-.3 0-.6 0-.8.2a2 2 0 0 0-.6.7l-.4 1-.1 1.1c-.1.4-.1.6.2.8l.7.4ZM338.3 160.4l.4-1.8c-.2 0-.3-.2-.4-.3l-.3-.8-.3.6a2 2 0 0 1-.7.4 2 2 0 0 1-.7.1c-.4 0-.7-.1-1-.3-.2-.3-.3-.6-.3-1v-.4l.2-.5.6-3.2h.8l-.6 3.3v1.2l.6.2c.2 0 .4 0 .7-.2l.7-.8c.2-.4.4-.9.5-1.4l.5-2.3h1l-1 3.7v.9l.4.2h.4l-.6 2.3Zm4-1.8c-.5 0-.8-.1-1-.3-.3-.3-.4-.6-.4-1v-.4l.1-.5.7-3.2h1l-.9 3.3v.7c0 .2 0 .4.2.5l.5.2c.2 0 .5 0 .7-.2l.8-.8c.2-.4.4-.9.5-1.4l.5-2.3h.9l-1.2 5.3h-.7l.1-1-.5.5-.6.5-.7.1Zm6.3 0c-.6 0-1-.2-1.4-.6-.4-.3-.6-.8-.6-1.5 0-.4 0-.8.2-1.2a4 4 0 0 1 .5-1.1l.8-.8 1.2-.4c.7 0 1.1.3 1.5.6.2.4.5 1 .5 1.6 0 .4 0 .8-.2 1.2a4 4 0 0 1-.5 1c-.2.5-.5.8-.8 1-.3.1-.7.2-1.2.2Zm0-.7c.4 0 .8-.2 1.1-.4l.5-1 .2-1.3v-.7a1 1 0 0 0-.4-.5l-.7-.2c-.3 0-.7.2-1 .4l-.5 1a4 4 0 0 0-.2 1.4c-.1.4 0 .7.2 1 .2.1.5.2.9.2Zm3.4.6 1.3-5.3h.8l-.5 2.2h2.5l.5-2.2h.9l-1.1 5.3h-1l.6-2.4h-2.5l-.6 2.4Zm7.7.1c-.4 0-.7-.1-1-.4-.3-.4-.4-.8-.4-1.4 0-.5 0-1 .2-1.4l.5-1.2c.2-.4.5-.6.8-.8a2 2 0 0 1 1.2-.4c.3 0 .5 0 .8.3l.4.7h.2l.2-.8h.7l-1.1 5.3h-.7v-1l-.8.8c-.3.2-.6.3-1 .3Zm.3-.6c.3-.1.5-.2.7-.4l.7-.6a4 4 0 0 0 .4-1.1 3 3 0 0 0 .2-.6 4 4 0 0 0 0-.3c0-.5 0-.7-.2-1-.3-.1-.5-.2-.8-.2-.3 0-.5 0-.7.2a2 2 0 0 0-.6.7l-.4 1-.1 1.1c0 .4 0 .6.2.8.1.2.3.4.6.4Zm3.4.6h-.4v-.9h.4c.2.1.4.1.5-.1.2-.1.3-.4.5-.6l.4-1.3.4-1.1.5-.8c.3-.4.4-.5.7-.5l1-.3a4.5 4.5 0 0 1 1.2.3l-1.1 5.2h-1l1.2-4.5h-1.2l-.4.7-.5 1.3-.6 1.4c0 .4-.4.7-.6.9-.2.2-.6.3-1 .3Zm7.9 0c-.5 0-1-.1-1.3-.4-.3-.2-.5-.6-.5-1.1v-.5l.2-.5.6-3h.9l-.6 2.5a9.8 9.8 0 0 1 1.2-.2c.6 0 1 .1 1.3.4.3.2.4.6.4 1 0 .2 0 .6-.2.9l-.7.7-1.3.2Zm.1-.6c.4-.1.8-.2 1-.4a1 1 0 0 0 .2-.7c0-.3 0-.5-.2-.6l-.8-.2a5.6 5.6 0 0 0-1-.1 27.8 27.8 0 0 0-.3 1c.1.3.1.5.3.6.1.2.4.4.8.4Zm3 .5 1.2-5.3h.8l-.4 2.2h2.5l.5-2.2h.8l-1 5.3h-1.1l.6-2.4h-2.5l-.5 2.4Zm8.1.1c-.5 0-1-.1-1.3-.4-.2-.2-.3-.6-.3-1.1v-.5a5 5 0 0 1-.1-.5l.8-3h.9l-.7 2.5h.6l.6-.3c.5.1 1 .1 1.2.4.3.3.4.6.4 1s0 .8-.2 1.1l-.7.6-1.2.2Zm2.6 0 1.2-5.5h.7l-1 5.4Zm-2.5-.8c.4.1.7 0 .9-.2a1 1 0 0 0 .2-.7c0-.3 0-.5-.2-.7H381.8l-.2.6v.2c0 .3 0 .5.2.7.2.1.4.2.8.2ZM391 152.5c-.5 0-1-.2-1.2-.5-.2 0-.4-.4-.4-.7a1 1 0 0 1 .1-.5h.8v.9l.8.1c.3 0 .6 0 .8-.2.1 0 .3-.3.4-.6h.7c.1.4-.2.7-.5 1-.3.3-.8.5-1.5.5Zm-1.7 6.1c-.3 0-.7-.1-1-.3-.2-.3-.3-.6-.3-1v-.9l.9-3.2h.8l-.7 3.3-.1.7.1.5.6.2c.2 0 .4 0 .7-.2l.7-.8c.3-.4.4-.9.6-1.4l.4-2.3h.9l-1.1 5.3h-.8v-1c.1.2 0 .5-.3.5l-.7.5-.7.1ZM311 170.5l1.3-5.5h.7v1l.4-.6a2 2 0 0 1 .5-.3l.8-.1c.4 0 .8 0 1 .3.3.3.4.7.4 1v.5l-.1.4-.7 3.3h-1l.8-3.5v-.6c0-.4-.1-.6-.6-.6-.2 0-.5 0-.7.2-.3.1-.5.4-.8.8l-.5 1.2-.5 2.5Zm7.6 0c-.6 0-.8-.1-1-.4-.5-.3-.6-.8-.6-1.4.1-.5.1-1 .3-1.4l.5-1.2c.3-.3.5-.6.9-.8a2 2 0 0 1 1-.3c.4 0 .7 0 .9.3l.4.6.5-.8h.5l-1 5.4h-.7l.1-1-.8.7c-.3.2-.7.3-1 .3Zm.2-.7c.3 0 .5 0 .8-.2l.6-.8a4 4 0 0 0 .5-1 3 3 0 0 0 0-.5 4 4 0 0 0 .1-.5c0-.3 0-.6-.2-.8-.3-.2-.5-.3-.8-.3-.2 0-.5.1-.7.3a2 2 0 0 0-.6.7l-.4 1-.1.9c0 .6 0 .8.2 1.1l.6.1Zm3.2 3.1 1.8-7.9h.6v1l.6-.7c.4-.2.8-.3 1.1-.3.5 0 .9.2 1.1.5.3.3.4.7.4 1.3 0 .5 0 1-.2 1.4l-.4 1.2c-.3.4-.6.7-.9.8a2 2 0 0 1-1.1.4c-.4-.1-.7-.1-1-.3a2 2 0 0 1-.4-.7v.5l-.3.4-.3 2.5Zm3-3 .5-.4c.5-.1.6-.3.7-.6a4 4 0 0 0 .4-1 5 5 0 0 0 .1-.9c0-1-.3-1.4-.7-1.4-.4.1-.6.2-.8.4-.3 0-.5.4-.7.6l-.4 1-.2 1.2c0 .2 0 .5.2.6.2.3.5.4.9.4Zm3.4.6 1.1-5.5h.9l-.6 2.7 2.5-2.7h1.1l-2.6 2.8 1.8 2.6h-1l-1.9-2.6-.5 2.7Zm8.7-.5-1.1-2.4 1.9-2 .4.7-1.3 1.5.7 1.9Zm1.9 0-1-2v-.3l1.7-1.9.5.4-1.2 1.7.6 1.8Zm1.7.5 1.5-7.2h5l-1.5 7.2h-1l1.5-6.5H343l-1.4 6.5Zm6.3 2.4 1.4-7.9h.9l-.3 1 1-.7c.3-.2.6-.3 1-.3s.8.2 1 .5c.3.3.4.7.4 1.3 0 .5 0 1-.2 1.4 0 .5-.2.9-.5 1.2-.2.4-.5.7-.7.8a2 2 0 0 1-1 .4c-.6-.1-.9-.1-1.2-.3a2 2 0 0 1-.4-.7v.5l-.2.4-.4 2.5Zm2.7-3 .7-.4.6-.6a4 4 0 0 0 .4-1 5 5 0 0 0 .1-.9c0-1-.3-1.4-.8-1.4-.2.1-.5.2-.7.4l-.6.6-.5 1-.2 1.2c0 .2.1.5.3.6 0 .3.4.4.8.4Zm5.1.6c-.4 0-.7 0-1-.3-.2-.2-.3-.5-.3-1v-.8l.9-3.4h.8l-.8 3.5v.5l.1.6c.1.2.3.2.6.2.2 0 .4 0 .7-.2.2-.2.5-.4.7-.8.3-.3.5-.8.6-1.4l.4-2.3h1l-1.3 5.4h-.6v-1l-.4.5-.6.4-.8.1Zm4.2 0 1-5.5h1l-.2 1 .4-.6a2 2 0 0 1 .6-.3l.8-.1c.4 0 .8 0 1 .3.2.3.4.7.4 1v.5l-.2.4-.8 3.3h-.8l.7-3.5v-.3l.1-.3c0-.4-.2-.6-.7-.6-.2 0-.3 0-.7.2-.2.1-.5.4-.6.8l-.6 1.2-.5 2.5Zm5.7 0h-.4v-.8h.7l.4-.7.3-.6.6-.4c-.3 0-.6-.2-.7-.4a1.4 1.4 0 0 1-.3-.8c0-.5.2-.9.7-1.2.2-.3.8-.6 1.5-.6h2l-1.1 5.5h-.9l.5-2.2h-.7c-.3 0-.5.1-.7.3l-.4.7-.4.6-.4.5-.7.1Zm2.5-3h1l.2-1.6h-1.1c-.3-.1-.6.1-.8.2-.2.2-.3.4-.3.7 0 .3.1.5.3.6l.7.2Zm2.9 3 1.1-5.5h.8l-.2 1 .6-.4.6-.4.6-.2c.4 0 .7.1.9.3.2.2.3.5.3.9l.6-.6.6-.4.7-.2c.4 0 .7.1 1 .3.2.3.3.7.3 1v.5l-.1.4-.7 3.3h-.9l.7-3.5.1-.3v-.3l-.1-.5-.6-.2-.6.3c-.3 0-.5.4-.8.7l-.4 1.3-.5 2.5h-.9l.8-3.5v-.6c0-.2 0-.4-.2-.4l-.4-.3c-.4 0-.5.1-.7.3-.3 0-.5.4-.7.7l-.5 1.4-.5 2.4Zm10.9 0c-.6 0-1-.1-1.4-.5-.4-.3-.5-.8-.5-1.5l.1-1.3.6-1.2c.2-.3.5-.5.9-.7.3-.3.7-.3 1.1-.3h.7l.7.4-.3.6-.5-.2h-.4c-.5-.1-1-.1-1.1.2-.4.4-.7.7-.8 1.1a4 4 0 0 0-.2 1.4c.1.5.1.8.4 1 .2.2.5.3.7.3h.8a7 7 0 0 0 .6-.4v.8l-.6.3h-.8Zm2.4 0 1.1-5.5h.9l-.6 2.7 2.5-2.7h1.1l-2.6 2.8 1.8 2.6h-1l-1.9-2.6-.5 2.7Zm6.4 0c-.4 0-.7 0-1-.3-.1-.2-.2-.5-.2-1v-.8l.7-3.4h.9l-.7 3.5-.1.5.1.6c.2.2.3.2.6.2.2 0 .5 0 .7-.2l.8-.8c.2-.3.4-.8.4-1.4l.6-2.3h.9l-1.2 5.4h-.7l.1-1-.5.5-.6.4-.8.1Zm7.5-6.1c-.5 0-1-.1-1.2-.4-.1-.2-.3-.5-.3-1h.8v.6l.8.2.8-.2c.2-.1.3-.4.4-.7h.8c0 .4-.3.8-.6 1-.3.4-.8.6-1.5.6Zm-1.7 6.1c-.4 0-.6 0-1-.3-.1-.2-.2-.5-.2-1v-.8l.7-3.4h.9l-.7 3.5-.1.5.1.6c.2.2.3.2.7.2 0 0 .4 0 .6-.2l.8-.8c.2-.3.4-.8.5-1.4l.5-2.3h.8l-1 5.4h-.9l.2-1-.5.5-.6.4-.8.1Zm6.4-.5-.5-.6 1.5-1.5-.8-1.9.6-.3 1 2.3v.1Zm-2-.2-.4-.3 1.4-1.8-.7-1.7.6-.3 1 2.1v.2Zm.1.1" style="fill:none;stroke-width:2;stroke-linecap:butt;stroke-linejoin:round;stroke:#fff;stroke-opacity:.6;stroke-miterlimit:10" transform=" rotate(  340 358.078 161.484) "/> <g style="fill:green;fill-opacity:1" transform=" rotate(  340 358.078 161.484) ">  <use xlink:href="#B" x="321.9" y="158.5"/>  <use xlink:href="#b" x="328.7" y="158.5"/>  <use xlink:href="#C" x="334.4" y="158.5"/>  <use xlink:href="#l" x="340.4" y="158.5"/>  <use xlink:href="#A" x="346.2" y="158.5"/>  <use xlink:href="#c" x="351.8" y="158.5"/>  <use xlink:href="#b" x="357.8" y="158.5"/>  <use xlink:href="#w" x="363.5" y="158.5"/>  <use xlink:href="#t" x="368.9" y="158.5"/>  <use xlink:href="#c" x="374.1" y="158.5"/>  <use xlink:href="#h" x="380.2" y="158.5"/>  <use xlink:href="#i" x="387.4" y="158.5"/>  <use xlink:href="#s" x="310.8" y="170.5"/>  <use xlink:href="#b" x="316.6" y="170.5"/>  <use xlink:href="#o" x="322.3" y="170.5"/>  <use xlink:href="#k" x="328.1" y="170.5"/>  <use xlink:href="#glyph0-30" x="333" y="170.5"/>  <use xlink:href="#m" x="335.6" y="170.5"/>  <use xlink:href="#r" x="340.3" y="170.5"/>  <use xlink:href="#o" x="347.1" y="170.5"/>  <use xlink:href="#l" x="352.9" y="170.5"/>  <use xlink:href="#s" x="358.7" y="170.5"/>  <use xlink:href="#q" x="364.5" y="170.5"/>  <use xlink:href="#g" x="369.8" y="170.5"/>  <use xlink:href="#y" x="378.6" y="170.5"/>  <use xlink:href="#k" x="383.1" y="170.5"/>  <use xlink:href="#l" x="388" y="170.5"/>  <use xlink:href="#i" x="393.7" y="170.5"/>  <use xlink:href="#u" x="399.5" y="170.5"/> </g></svg>