<svg xmlns="http://www.w3.org/2000/svg" xmlns:xlink="http://www.w3.org/1999/xlink" viewBox="0 0 497 279"> <defs overflow="visible" style="stroke:none">  <path id="e" d="M5.2-4c0 .3-.2.6-.3.8l-.9.4 1 .3c.2.2.3.5.3 1 0 .3-.1.7-.5.9-.3.6-.8.6-1.6.6H.8v-5.4h2.4c.3 0 .7 0 1 .2.3 0 .5.2.7.4.1.2.3.5.3.8Zm-1 0c.1-.1.1-.2-.2-.4l-1-.2H1.8v1.4H3c1 0 1.3-.2 1.3-.7Zm.3 2.5c-.1-.4-.2-.5-.4-.7-.3-.2-.6-.2-1.1-.2H1.6v1.7h1.5c.4 0 .7 0 .9-.2.3-.1.4-.3.4-.7Zm-.1-.1"/>  <path id="d" d="M5.5-2.7c0 .9-.2 1.7-.7 2-.4.7-1 .9-1.8.9-.5-.2-.9-.2-1.3-.4-.3-.2-.6-.6-.7-1C.6-1.6.5-2 .5-2.7c0-.9.3-1.6.7-2 .5-.5 1-.8 1.8-.8.5 0 1 .2 1.3.5.4 0 .7.4.9.9.2.2.3.7.3 1.3Zm-4 0c0 .7 0 1.2.3 1.5.3.4.7.6 1.2.6.6 0 1-.2 1.2-.6.3-.3.4-.8.4-1.5s-.1-1.1-.4-1.5c-.2-.3-.6-.5-1.2-.5-.5 0-1 .2-1.2.5-.2.4-.3.9-.3 1.5Zm0 0"/>  <path id="c" d="M4-5.4h1L2.7-2.8 5.2 0h-1L1.7-2.7V0H.8v-5.4h1v2.6Zm0 0"/>  <path id="b" d="M3 0c-.5 0-.9 0-1.3-.1-.3-.3-.6-.6-.7-.9-.4-.5-.5-1-.5-1.7 0-.6.2-1.1.5-1.5 0-.6.4-.8.8-1.1.2-.1.8-.2 1.2-.2l.8.1.7.2-.3.8-.6-.2H3c-1-.1-1.5.6-1.5 1.9 0 .7 0 1 .3 1.4.3.5.7.6 1.2.6h.8l.6-.3v.8a2 2 0 0 1-.6.2H3Zm0 0"/>  <path id="a" d="M1 0v-7.1h5.3V0h-.9v-6.3H2V0Zm0 0"/>  <path d="M1 0v-7.1h4V0Zm.4-.5h3.1v-6.1h-3Zm.1 0"/> </defs> <image xlink:href="svg/9/3_20.jpg" width="497" height="279"/> <path d="M412.5 100.9v-7.1h5.5v7.1h-1.1v-6.3h-3.4v6.3Zm9.4.1c-.5 0-1-.1-1.3-.3-.4-.2-.7-.5-.9-.9-.2-.4-.3-1-.3-1.6 0-.6.1-1.1.3-1.5.3-.5.5-.8 1-1 .3-.1.6-.3 1.1-.3l.9.1.6.2-.2.8-.6-.2h-.6c-1-.1-1.6.5-1.6 1.9 0 .6.1 1 .4 1.4.3.5.6.6 1.1.6h.8l.6-.3v.8a2 2 0 0 1-.6.3h-.6Zm5.8-5.5h1l-2.5 2.6 2.6 2.9h-1l-2.4-2.8v2.7h-1v-5.4h1.1v2.6Zm6.6 2.7c0 .9-.3 1.6-.7 2-.6.7-1 .8-1.8.8-.5 0-1-.1-1.3-.3-.5-.2-.7-.7-.9-1-.2-.4-.3-.9-.3-1.5 0-.9.2-1.6.7-2 .4-.5 1-.8 1.8-.8.5 0 .9.2 1.2.4.4.2.7.5.9 1 .2.2.4.7.4 1.3Zm-4.1 0c0 .8.1 1.2.4 1.5.2.4.6.6 1.2.6.5 0 1-.3 1.2-.6.2-.3.3-.7.3-1.5 0-.6 0-1.1-.3-1.5-.3-.3-.7-.5-1.2-.5-.6 0-1 .2-1.2.5-.3.4-.4.9-.4 1.5Zm9.8-1.3c0 .3-.3.6-.5.8l-.5.3c.2 0 .5.3.7.4.3.2.4.6.4 1 0 .3-.1.7-.5.9-.3.6-.9.7-1.7.7h-2.3v-5.5h2.4c.3 0 .7 0 1 .2.4 0 .6.2.8.3.1.3.1.6.1.9Zm-1 .1c0-.3 0-.4-.1-.6l-1.1-.1h-1.2v1.4h1.1c1 0 1.4-.2 1.4-.7Zm.3 2.3c-.1-.3-.2-.5-.3-.6-.4-.2-.7-.2-1.1-.2h-1.5v1.7h1.6c.3 0 .6 0 .9-.2.1 0 .3-.3.3-.7Zm-.1 0" style="fill:none;stroke-width:3;stroke-linecap:butt;stroke-linejoin:round;stroke:#fff;stroke-opacity:.6;stroke-miterlimit:10" transform=" rotate(  340 426.82 97.9029) "/> <g style="fill:#222;fill-opacity:1" transform=" rotate(  340 426.82 97.9029) ">  <use xlink:href="#a" x="411.5" y="100.9"/>  <use xlink:href="#b" x="418.9" y="100.9"/>  <use xlink:href="#c" x="423.7" y="100.9"/>  <use xlink:href="#d" x="428.7" y="100.9"/>  <use xlink:href="#e" x="434.8" y="100.9"/> </g></svg>