<svg xmlns="http://www.w3.org/2000/svg" xmlns:xlink="http://www.w3.org/1999/xlink" viewBox="0 0 497 279"> <defs overflow="visible" style="stroke:none">  <path id="g" d="M2.6-.6H3l.4-.2v.7L3 0H1.7l-.6-.5-.1-1v-3.3H.2V-5l.7-.5.4-1h.5v1h1.5v.8H1.8v3.1c0 .3 0 .6.2.7l.6.3Zm0 0"/>  <path id="f" d="M3.3-5.5H4l-.1 1.1-.3-.3h-.3c-.3 0-.5 0-.8.2l-.5.7-.3 1V0H.8v-5.4h.8v1h.2l.6-.6c.3-.3.6-.5 1-.5Zm0 0"/>  <path id="e" d="M3.4-5.5c.7 0 1.2.2 1.6.5.2.3.4.8.4 1.5V0h-.9v-3.4c0-.9-.4-1.3-1.2-1.3-.6 0-1 .1-1.2.5-.3.2-.4.8-.4 1.4V0H.8v-5.4h.8v.8h.2c.2-.4.3-.5.7-.7l1-.2Zm0 0"/>  <path id="d" d="M3-5.5c.3 0 .7.1 1 .3a2 2 0 0 1 1 .9v1.8H1.5c0 .5.1 1 .4 1.4.3.3.7.4 1.3.4H4l.9-.3v.8L4 0a5 5 0 0 1-1 0 3 3 0 0 1-1.2-.1 2.2 2.2 0 0 1-1-1.1c0-.2-.2-.8-.2-1.3-.1-.7 0-1.2.2-1.6.2-.5.5-.9.9-1 .3-.2.7-.4 1.2-.4Zm0 .8c-.6 0-.9.1-1 .4-.4.2-.6.6-.6 1.1h2.8c0-.5-.1-.8-.3-1.1-.2-.3-.5-.4-1-.4Zm0 0"/>  <path id="c" d="M3.4-5.5c.7 0 1.2.3 1.6.7.4.5.6 1.2.6 2.1 0 1-.2 1.7-.6 2-.4.7-1 .9-1.6.9-.4-.2-.8-.2-1-.3l-.7-.6v3.1H.8v-7.8h.8v.8h.2c.2-.4.3-.5.6-.6.2-.2.6-.3 1-.3Zm-.2.8c-.5 0-.9.1-1.1.5-.2.2-.4.7-.4 1.2v.3c0 .7.1 1.2.3 1.5.3.4.7.6 1.3.6.3 0 .6-.1.7-.4l.5-.6.2-1.1c0-.6-.1-1.1-.4-1.5-.2-.3-.6-.5-1-.5Zm0 0"/>  <path id="b" d="M2.9-5.5c.6 0 1.1.2 1.4.5.3.3.5.7.5 1.3V0h-.6L4-.8c-.3.3-.5.6-.8.8h-1c-.5 0-1 0-1.3-.3C.6-.5.5-.9.5-1.5c0-.5.2-1 .5-1.2.5-.3 1-.5 2-.5h.8v-.3c.2-.5.2-.8-.2-1l-.8-.2H2l-.7.5L1-5l1-.3.9-.2Zm1 2.9h-.8c-.6 0-1 .1-1.4.3-.1.3-.3.5-.3.8 0 .3 0 .5.2.7l.7.2c.5 0 .9-.1 1.2-.4.3-.2.4-.6.4-1Zm.1 0"/>  <path id="a" d="M1 0v-7.1h.9v6.3h3V0Zm0 0"/>  <path d="M1 0v-7.1h4V0Zm.4-.5h3.1v-6.1h-3Zm.1 0"/> </defs> <image xlink:href="svg/9/3_25.jpg" width="497" height="279"/> <path d="M364.9 230.5v-7.2h.9v6.4h3v.8Zm7.1-5.5c.7 0 1.1.2 1.5.5.3.3.4.7.4 1.3v3.7h-.6l-.3-.8-.7.7-1 .2c-.5 0-1-.1-1.3-.4-.3-.2-.4-.7-.4-1.2s.2-1 .6-1.2c.4-.3 1-.5 2-.5h.8v-.4c0-.4 0-.7-.2-.9-.2-.2-.5-.2-.8-.2h-.8l-.8.5-.2-.8.8-.3 1-.2Zm1 3h-.6c-.8-.1-1.4 0-1.5.2-.3.2-.4.5-.4.8 0 .3 0 .5.3.7l.7.2c.4 0 .8-.1 1.1-.4.4-.2.5-.6.5-1.2Zm5.1-3c.7 0 1.2.3 1.6.7.4.5.6 1.3.6 2.1 0 1-.2 1.6-.6 2-.4.6-.9.9-1.6.9-.4-.1-.7-.2-1-.4-.3-.1-.5-.3-.6-.5v3.1h-1V225h.9v1c.3-.4.5-.6.8-.7.2-.3.5-.3.9-.3Zm-.1.8c-.6 0-1 .1-1.2.4-.2.3-.3.8-.3 1.4v.2c0 .7 0 1.2.3 1.5.2.4.6.7 1.2.7.3-.1.6-.2.8-.4l.5-.7.1-1.1c0-.6 0-1.1-.3-1.5-.3-.3-.6-.5-1.1-.5Zm6.3-.8c.7 0 1.2.3 1.6.7.4.5.6 1.3.6 2.1 0 1-.2 1.6-.6 2-.4.6-1 .9-1.6.9-.4-.1-.8-.2-1-.4l-.7-.5v3.1h-.9V225h.8v1h.2l.5-.7c.4-.3.8-.3 1.2-.3Zm-.2.8c-.5 0-.9.1-1.1.4-.3.3-.4.8-.4 1.4v.2c0 .7.1 1.2.4 1.5.2.4.6.7 1.2.7.3-.1.5-.2.8-.4l.4-.7.2-1.1c0-.6-.1-1.1-.4-1.5-.2-.3-.6-.5-1-.5Zm5.9-.8c.4 0 .8.1 1 .3a2 2 0 0 1 1 .9c.1.3.2.8.2 1.2v.6h-3.7c0 .6.2 1 .5 1.4.3.3.7.4 1.2.4h1l.6-.4v.8c-.1.2-.4.3-.7.3a5 5 0 0 1-1 0 3 3 0 0 1-1.2-.1 2.2 2.2 0 0 1-.9-1.1c-.3-.3-.4-.8-.4-1.4 0-.6 0-1.1.3-1.6l.8-1c.4 0 .8-.3 1.3-.3Zm0 .8c-.6 0-.9 0-1 .4-.4.2-.5.6-.6 1h2.8c0-.3 0-.6-.2-.9-.3-.4-.6-.5-1-.5Zm5.6-.8c.5 0 .8.1 1.2.3a2 2 0 0 1 .7.9c.2.3.3.8.3 1.2v.6h-3.7c0 .6.2 1 .5 1.4.3.3.7.4 1.3.4h.9l.8-.4v.8l-.8.3a5 5 0 0 1-1 0 3 3 0 0 1-1.3-.1 2.2 2.2 0 0 1-1-1.1c-.1-.3-.2-.8-.2-1.4l.2-1.6c.2-.3.5-.7.9-1 .3 0 .6-.3 1.2-.3Zm0 .8c-.4 0-.8 0-1 .4-.3.2-.4.6-.4 1h2.7c0-.3-.1-.6-.3-.9-.2-.4-.6-.5-1-.5Zm6.2-.8c.6 0 1 .2 1.4.5.3.3.5.8.5 1.5v3.5h-.9V227c0-.8-.4-1.2-1.2-1.2-.6 0-1 .1-1.2.5-.2.3-.4.7-.4 1.4v2.8h-1V225h1v1l.9-.8.9-.2Zm6 0h.7l-.1 1h-.6c-.3-.2-.5-.2-.8 0l-.6.7-.2 1v2.7h-.9V225h.8v1.1h.2l.6-.7c.3-.4.6-.4 1-.4Zm3.5 0c.7 0 1.1.2 1.5.5.2.3.4.7.4 1.3v3.7h-.6l-.2-.8-.8.7-1 .2c-.6 0-1-.1-1.2-.4-.4-.2-.5-.7-.5-1.2s.1-1 .6-1.2c.5-.3 1-.5 2-.5h.9v-.4c0-.4-.1-.7-.4-.9-.1-.2-.4-.2-.7-.2h-.8l-.8.5-.2-.8.8-.3 1-.2Zm1 3h-.6c-.8-.1-1.3 0-1.5.2-.3.2-.4.5-.4.8 0 .3 0 .5.3.7l.7.2c.4 0 .8-.1 1.1-.4.3-.2.5-.6.5-1.2ZM417.5 225c.5 0 1 .2 1.4.5.3.3.5.8.5 1.5v3.5h-.9V227c0-.8-.4-1.2-1.2-1.2-.6 0-1 .1-1.2.5-.2.3-.3.7-.3 1.4v2.8h-1V225h.9v1l.9-.8.9-.2Zm5.4 4.9h.4l.3-.2v.7l-.4.1h-1.3c-.2-.3-.4-.4-.5-.7-.2-.1-.4-.4-.4-.8v-3.2h-.6v-.4l.8-.4.3-1h.5v1h1.6v.8H422v3.1c0 .3 0 .6.3.7.1.2.3.4.6.4Zm3.8-4.9c.7 0 1.1.2 1.5.5.3.3.4.7.4 1.3v3.7h-.6l-.2-.8-.8.7-1 .2c-.5 0-1-.1-1.2-.4-.4-.2-.5-.7-.5-1.2s.2-1 .6-1.2c.4-.3 1.1-.5 2.1-.5h.8v-.4c0-.4-.1-.7-.3-.9-.2-.2-.5-.2-.8-.2h-.8l-.9.5v-.8l.7-.3 1-.2Zm1 3h-.7c-.7-.1-1.2 0-1.4.2-.3.2-.4.5-.4.8 0 .3 0 .5.3.7l.7.2c.4 0 .8-.1 1.1-.4.3-.2.5-.6.5-1.2Zm.1-.1" style="fill:none;stroke-width:3;stroke-linecap:butt;stroke-linejoin:round;stroke:#fff;stroke-opacity:.6;stroke-miterlimit:10" transform=" rotate(  340 396.48 227.487) "/> <g style="fill:#222;fill-opacity:1" transform=" rotate(  340 396.48 227.487) ">  <use xlink:href="#a" x="363.9" y="230.5"/>  <use xlink:href="#b" x="369.1" y="230.5"/>  <use xlink:href="#c" x="374.7" y="230.5"/>  <use xlink:href="#c" x="380.9" y="230.5"/>  <use xlink:href="#d" x="387" y="230.5"/>  <use xlink:href="#d" x="392.7" y="230.5"/>  <use xlink:href="#e" x="398.3" y="230.5"/>  <use xlink:href="#f" x="404.5" y="230.5"/>  <use xlink:href="#b" x="408.4" y="230.5"/>  <use xlink:href="#e" x="414" y="230.5"/>  <use xlink:href="#g" x="420.2" y="230.5"/>  <use xlink:href="#b" x="423.8" y="230.5"/> </g></svg>