<svg xmlns="http://www.w3.org/2000/svg" xmlns:xlink="http://www.w3.org/1999/xlink" viewBox="0 0 497 279"> <defs overflow="visible" style="stroke:none">  <path id="Q" d="M2.9-7.1c.9 0 1.6.1 2 .5.4.4.6.9.6 1.6 0 .4 0 .7-.2 1-.3.5-.5.8-1 1l-1.5.1h-.9V0h-1v-7.1Zm-.1.7h-1v2.9h.9c.6 0 1.1-.2 1.3-.5.4 0 .6-.5.6-1s-.1-.8-.4-1c-.3-.3-.8-.4-1.4-.4Zm0 0"/>  <path d="M2 0 0-5.4h1l1 3.2.4.5v.5l.1.4.2-.4a16 16 0 0 1 .3-1l1.1-3.2h1L3 0Zm1-5.5c.3 0 .7.1 1 .3a2 2 0 0 1 1 .9v1.8H1.5c0 .5.1 1 .4 1.4.3.3.7.4 1.3.4H4l.9-.3v.8L4 0a5 5 0 0 1-1 0 3 3 0 0 1-1.2-.1 2.2 2.2 0 0 1-1-1.1c0-.2-.2-.8-.2-1.3-.1-.7 0-1.2.2-1.6.2-.5.5-.9.9-1 .3-.2.7-.4 1.2-.4Zm0 .8c-.6 0-.9.1-1 .4-.4.2-.6.6-.6 1.1h2.8c0-.5-.1-.8-.3-1.1-.2-.3-.5-.4-1-.4Zm0 0"/>  <path id="R" d="M3 0c-.5 0-.9 0-1.3-.1-.3-.3-.6-.6-.7-.9-.4-.5-.5-1-.5-1.7 0-.6.2-1.1.5-1.5 0-.6.4-.8.8-1.1.2-.1.8-.2 1.2-.2l.8.1.7.2-.3.8-.6-.2H3c-1-.1-1.5.6-1.5 1.9 0 .7 0 1 .3 1.4.3.5.7.6 1.2.6h.8l.6-.3v.8a2 2 0 0 1-.6.2H3Zm0 0"/>  <path d="M5.3-5.4V0h-.7l-.1-.7c-.3.3-.5.5-.9.6l-.9.2C2.1 0 1.6-.1 1.3-.4 1-.7.8-1.2.8-1.8v-3.6h.9v3.5c0 .8.3 1.3 1.2 1.3.6 0 1-.2 1.1-.5.3-.4.5-.9.5-1.5v-2.8Zm0 0"/>  <path id="P" d="M3.4-5.5c.7 0 1.2.2 1.6.5.2.3.4.8.4 1.5V0h-.9v-3.4c0-.9-.4-1.3-1.2-1.3-.6 0-1 .1-1.2.5-.3.2-.4.8-.4 1.4V0H.8v-5.4h.8v.8h.2c.2-.4.3-.5.7-.7l1-.2Zm0 0"/>  <path id="O" d="M2.9-5.5c.6 0 1.1.2 1.4.5.3.3.5.7.5 1.3V0h-.6L4-.8c-.3.3-.5.6-.8.8h-1c-.5 0-1 0-1.3-.3C.6-.5.5-.9.5-1.5c0-.5.2-1 .5-1.2.5-.3 1-.5 2-.5h.8v-.3c.2-.5.2-.8-.2-1l-.8-.2H2l-.7.5L1-5l1-.3.9-.2Zm1 2.9h-.8c-.6 0-1 .1-1.4.3-.1.3-.3.5-.3.8 0 .3 0 .5.2.7l.7.2c.5 0 .9-.1 1.2-.4.3-.2.4-.6.4-1Zm.1 0"/>  <path id="N" d="M4.3-1.5c0 .5-.2 1-.5 1.2-.4.3-1 .4-1.6.4l-1-.1-.7-.2V-1l.8.3h1.8l.4-.7-.1-.4L3-2a7.5 7.5 0 0 0-.8-.4 7.5 7.5 0 0 1-1-.4l-.4-.5L.5-4c0-.5.2-.8.6-1 .3-.4.8-.6 1.4-.6l1 .2a4 4 0 0 1 .6.4l-.1.6-.8-.2-.7-.1-.9.1c-.2.2-.3.3-.3.6s0 .2.2.3l.4.3.8.3.9.4.4.5c.3.2.3.4.3.7ZM3 .6v.6l-.4.5-.4.5h-.4v-.1l.1-.4a5 5 0 0 0 .2-.7V.6Zm0 0"/>  <path id="M" d="M2.6-.6H3l.4-.2v.7L3 0H1.7l-.6-.5-.1-1v-3.3H.2V-5l.7-.5.4-1h.5v1h1.5v.8H1.8v3.1c0 .3 0 .6.2.7l.6.3Zm0 0"/>  <path id="L" d="M5.5-2.7c0 .9-.2 1.7-.7 2-.4.7-1 .9-1.8.9-.5-.2-.9-.2-1.3-.4-.3-.2-.6-.6-.7-1C.6-1.6.5-2 .5-2.7c0-.9.3-1.6.7-2 .5-.5 1-.8 1.8-.8.5 0 1 .2 1.3.5.4 0 .7.4.9.9.2.2.3.7.3 1.3Zm-4 0c0 .7 0 1.2.3 1.5.3.4.7.6 1.2.6.6 0 1-.2 1.2-.6.3-.3.4-.8.4-1.5s-.1-1.1-.4-1.5c-.2-.3-.6-.5-1.2-.5-.5 0-1 .2-1.2.5-.2.4-.3.9-.3 1.5Zm0 0"/>  <path id="K" d="M1.3-7.4c.1 0 .3 0 .4.2l.1.4-.1.4-.4.2-.4-.3-.1-.3.1-.4.4-.2Zm.4 2V0H.8v-5.4Zm0 0"/>  <path id="J" d="M2.6-.6H3l.4-.2v.7L3 0H1.7l-.6-.5-.1-1v-3.3H.2V-5l.7-.5.4-1h.5v1h1.5v.8H1.8v3.1c0 .3 0 .6.2.7l.6.3ZM2.8.6v.1l-.2.5-.3.5c0 .2-.2.4-.3.5h-.5v-.1l.2-.4a5 5 0 0 0 .1-.7L2 .6Zm0 0"/>  <path id="I" d="M1.7 0H.8v-7.6h1Zm0 0"/>  <path id="H" d="M2.9-5.5c.6 0 1.1.2 1.4.5.3.3.5.7.5 1.3V0h-.6L4-.8c-.3.3-.5.6-.8.8h-1c-.5 0-1 0-1.3-.3C.6-.5.5-.9.5-1.5c0-.5.2-1 .5-1.2.5-.3 1-.5 2-.5h.8v-.3c.2-.5.2-.8-.2-1l-.8-.2H2l-.7.5L1-5l1-.3.9-.2Zm1 2.9h-.8c-.6 0-1 .1-1.4.3-.1.3-.3.5-.3.8 0 .3 0 .5.2.7l.7.2c.5 0 .9-.1 1.2-.4.3-.2.4-.6.4-1Zm.5-4.8c0 .4-.2.7-.4 1-.3.2-.7.3-1.2.3s-.8.1-1-.3c-.4-.3-.6-.6-.6-1h.6c0 .3.2.4.3.4l.9.2h.5l.5-.7Zm0 0"/>  <path id="G" d="M1-7.1h2c1 0 1.6.1 2 .4.5.2.7.7.7 1.3 0 .5-.1.8-.3 1-.4.4-.6.6-1 .7l.8.3c.2 0 .4.2.5.5.3.2.3.5.3.9 0 .6-.3 1-.7 1.5-.5.3-1 .5-1.8.5H1Zm.9 3h1.3c.6.1 1 .1 1.3-.3.2-.2.3-.5.3-.9s-.1-.6-.4-.7c-.4-.3-.8-.4-1.4-.4H2Zm0 .8v2.5h1.4c.7 0 1 0 1.3-.2.4-.4.4-.7.4-1.1s-.1-.7-.4-.9c-.2-.2-.6-.3-1.4-.3Zm0 0"/>  <path d="M1 0v-7.1h4V0Zm.4-.5h3.1v-6.1h-3Zm.1 0"/>  <path id="F" d="M1.7-9.6c.2 0 .3 0 .5.2l.2.4-.2.7a.7.7 0 0 1-.5.2c-.2 0-.4 0-.5-.2L1-8.9c0-.1 0-.4.2-.5l.5-.2ZM2.3-7v7H1v-7Zm0 0"/>  <path id="E" d="M5.6-2c0 .9-.2 1.4-.6 1.7-.6.3-1.3.4-2.1.4L1.6 0c-.4 0-.7-.2-1-.3v-1c.4-.1.8.1 1.1.3L3-.8c.5 0 .9 0 1-.3.4-.2.5-.4.5-.7l-.1-.5-.5-.4a9.6 9.6 0 0 0-1-.5 11 11 0 0 1-1.3-.5 2.2 2.2 0 0 1-.7-.6c-.2-.3-.2-.7-.2-1 0-.5.2-1 .7-1.2.5-.5 1.1-.6 1.9-.6a5.4 5.4 0 0 1 2.2.5l-.4.9a7 7 0 0 0-1-.3 4 4 0 0 0-.8-.2c-.6 0-.9.2-1.1.3-.4.1-.6.3-.6.6l.4.5.5.4c.3 0 .5.2 1 .4l1.2.5.7.7c.2.2.2.5.2.8ZM4 .9l-.3.6A6.7 6.7 0 0 1 3 2.9h-.7v-.2l.2-.5.2-.8.1-.6Zm0-.1"/>  <path id="D" d="M3.8-7c.7 0 1.4 0 1.7.4.5.5.7 1.1.7 1.9V0h-.8l-.2-1-1.1 1H2.8c-.6.1-1.2 0-1.6-.4C.8-.7.6-1.2.6-1.9s.3-1.3.8-1.6C2-4 2.8-4.1 4-4.2h1.1v-.4c0-.6-.1-1-.3-1.2-.3-.2-.8-.4-1.2-.4l-.9.2-1.1.4-.2-.9A5.2 5.2 0 0 1 3.8-7ZM5-3.5h-.9c-.9.1-1.5.3-1.8.5-.4.3-.5.6-.5 1 0 .6.1.9.2 1l1.1.1c.5.1.9-.1 1.4-.4.5-.3.6-.7.6-1.5Zm.1.1"/>  <path id="C" d="M3.9 0H.5v-.7l1.1-.2v-7.4l-1-.3v-.7h3.2v.7l-1 .3V-1l1 .3Zm0 0"/>  <path d="M1.2 0v-9.3h5.4V0ZM2-.7h3.9v-8H2Zm0 .8H1L.2-.3v-.9l.8.3 1 .2L3-1l.6-.4c.2-.2.4-.5.4-.8a1 1 0 0 0-.4-.8l-1-.7a6 6 0 0 1-.8-.5 2.1 2.1 0 0 1-.5-.6l-.1-.9c0-.5 0-.9.3-1.2.2-.4.6-.6 1-.8.2-.2.7-.3 1.1-.3.5 0 .9 0 1.2.2l.9.3-.4.8-.7-.3h-.9c-.4 0-.7 0-1 .2-.5.3-.6.6-.6 1.1l.2.4c0 .3.2.4.4.5l.6.4.9.6a2 2 0 0 1 .5.6c.3.3.3.6.3 1 0 .6-.3 1.2-.9 1.6-.5.6-1.1.7-2 .7ZM1 2.4v-.1l.3-.5.1-.6.4-.5h.9l-.3.7-.4.5-.5.5Zm0 0"/>  <path id="B" d="m-.2 2.6 1.8-8.5h.8l-.2 1.1 1.1-.8c.1-.4.4-.4.8-.4.6 0 1 .2 1.3.5.3.5.4.9.4 1.5s0 1-.2 1.6l-.5 1.3A3 3 0 0 1 4-.2c-.1.2-.5.2-1 .2-.4.1-.8.1-1-.2a2 2 0 0 1-.5-.7h-.1v.5l-.2.4-.5 2.6Zm3-3.3c.5 0 .7 0 1-.3l.5-.7.4-1.1.1-1.2c0-.8-.3-1.2-.8-1.2-.3 0-.6.2-.8.3a3 3 0 0 0-.7.7c-.3.3-.5.7-.5 1-.2.6-.2 1-.2 1.4s0 .6.2.8c.2.2.5.3 1 .3Zm.1 0"/>  <path id="A" d="M1.7.1.7 0 .2-.3v-.9c0 .2.3.3.6.4a3 3 0 0 0 .9.1c.3 0 .7 0 1-.2.2-.2.3-.4.3-.7 0-.2 0-.4-.2-.5L2-2.7a3.8 3.8 0 0 1-1-.7c0-.2-.2-.6-.2-1s.2-.7.6-1c.3-.4.7-.6 1.3-.6l1.1.1.7.3-.3.8-.6-.3h-.9L2-5l-.3.6c0 .2 0 .4.3.5 0 .2.3.3.7.5l.7.5.4.5.2.7c0 .6-.2 1-.6 1.4-.4.3-1 .3-1.7.3Zm0 0"/>  <path id="z" d="m.4 0 1.7-7.9H3l2.6 6.5c0-.2 0-.6.2-1 0-.4 0-.8.2-1.1L6.9-8h1L6.1 0h-.9L2.6-6.5v.5l-.2.9-.1.8-1 4.3Zm0 0"/>  <path id="y" d="M3.6.1c-.9 0-1.6-.3-2-.8C1-1.2.7-2 .7-2.9c.1-.5.1-1 .3-1.4a6 6 0 0 1 .5-1.4l.8-1.2c.3-.3.7-.6 1.2-.8L5-8c.8 0 1.4.2 2 .5l-.4.8a4 4 0 0 0-.7-.3H5c-.5 0-1 0-1.4.2-.4.3-.6.6-1 1.1-.3.4-.4.7-.6 1.2a6 6 0 0 0-.2 1.6c0 .7.2 1.2.5 1.6.4.3.9.5 1.5.5h.8l.9-.3v.9l-.9.2a5 5 0 0 1-1 .1Zm0 0"/>  <path id="x" d="M2.1.1C1.7.1 1.3 0 1-.4.7-.7.5-1.2.5-1.9c0-.5 0-1.1.2-1.6.3-.4.3-.9.6-1.3a3 3 0 0 1 1-.9c.2-.2.7-.3 1-.3.5 0 .8.1 1.1.3l.5.7a40.6 40.6 0 0 1 .4-1.4l.3-2h1L4.8 0H4l.1-1-.9.7c-.3.3-.7.3-1 .3Zm.4-.8c.2 0 .4 0 .7-.3l.7-.7.5-1L4.6-4c0-.4-.1-.6-.3-.9-.2-.1-.3-.3-.8-.3-.3 0-.6.2-.8.3-.3.2-.5.4-.7.7A4 4 0 0 0 1.7-3l-.2 1.1c0 .9.3 1.2 1 1.2Zm0 0"/>  <path id="w" d="M3.8.1C2.8.1 2 0 1.6-.7 1-1.2.8-1.9.8-2.8c0-.8 0-1.4.3-2A5 5 0 0 1 2-6.5c.3-.5.8-.8 1.3-1A3.8 3.8 0 0 1 5-8c.5 0 1 0 1.3.2l1 .3-.4.9A6.3 6.3 0 0 0 6-7H5c-.6 0-1 0-1.6.4-.5.4-.9.9-1.1 1.5a5.3 5.3 0 0 0-.5 2.2L2-2c.2.6.4.9.7 1L4-.8h.6l.6-.2.5-2.3H4.2l.2-.7h2.5L6-.3 5 0 3.7.1Zm0 0"/>  <path id="v" d="M1.7 0 3-7H1l.2-.9h5.3l-.2 1H4.1L2.7 0Zm0 0"/>  <path id="u" d="M2.7.1C2.1.1 1.5 0 1.1-.4.7-.8.5-1.4.5-2.1l.2-1.5c.3-.4.4-.9.7-1.2a3 3 0 0 1 1-.9c.2-.2.6-.3 1.1-.3h.9l.6.4-.2.6a4 4 0 0 0-.5-.1h-.7c-.4-.1-.8-.1-1 .2-.5.4-.6.9-.9 1.3-.1.4-.2 1-.2 1.5 0 .4.1.8.5 1.1 0 .2.4.3.9.3l.5-.1c.4 0 .6-.2.8-.3v.9l-.7.2a3 3 0 0 1-.8.1Zm0 0"/>  <path id="t" d="m.3 0 1.3-5.9h1L1.2 0Zm.1-6.7v-.1l.6-.5a15 15 0 0 0 .5-.6l.5-.5h.9c0 .3.1.4.4.8l.5.8v.1h-.6a3.8 3.8 0 0 1-.4-.3 9.7 9.7 0 0 1-.5-.7 11.1 11.1 0 0 1-1.3 1Zm0 0"/>  <path id="s" d="M2 .1H1L.2-.3v-.9l.8.3 1 .2L3-1l.6-.4c.2-.2.4-.5.4-.8a1 1 0 0 0-.4-.8l-1-.7a6 6 0 0 1-.8-.5 2.1 2.1 0 0 1-.5-.6l-.1-.9c0-.5 0-.9.3-1.2.2-.4.6-.6 1-.8.2-.2.7-.3 1.1-.3.5 0 .9 0 1.2.2l.9.3-.4.8-.7-.3h-.9c-.4 0-.7 0-1 .2-.5.3-.6.6-.6 1.1l.2.4c0 .3.2.4.4.5l.6.4.9.6a2 2 0 0 1 .5.6c.3.3.3.6.3 1 0 .6-.3 1.2-.9 1.6-.5.6-1.1.7-2 .7Zm0 0"/>  <path id="r" d="M2.1.1C1.7.1 1.3 0 1-.4.7-.7.5-1.2.5-1.9l.2-1.6.6-1.3c.3-.4.7-.7 1-.9.2-.2.7-.3 1.1-.3.4 0 .7.1 1 .3l.5.7.5-.9H6L4.8 0H4l.2-1a4 4 0 0 1-1.1.7c-.1.3-.6.3-.9.3Zm.3-.8c.3 0 .6 0 .8-.3a3 3 0 0 0 .8-.8 5 5 0 0 0 .4-1.1l.1-.6V-4c.1-.4.1-.6-.1-1-.4 0-.6-.2-.9-.2-.3 0-.5.2-.8.3l-.6.7-.4 1-.2 1.4c0 .3 0 .6.3.9l.6.1Zm1.6-6c-.5 0-1 0-1.1-.3-.3-.2-.4-.5-.4-.9V-8h.6c-.1 0-.1.2.2.4l.7.1.7-.1a.9.9 0 0 0 .4-.5h.6c-.1.5-.4.9-.7 1.1-.3.2-.7.3-1 .3Zm-.1 0"/>  <path id="q" d="m.3 0 1.8-8.4H3l-.5 2.2-.1.7-.2.7.7-.5.5-.5.9-.2c.4 0 .7.1 1 .4.3.2.5.6.5 1.1v.5l-.3.4L5 0H3.9l.8-3.7V-5L4-5.2c-.3 0-.5.2-.8.3-.3.1-.6.4-.8.8C2-3.7 2-3 1.8-2.5L1.3 0Zm0 0"/>  <path id="p" d="M2 2.6H1l-.7-.4v-.9l.7.5h1c.5 0 .8 0 1.1-.3.3-.2.5-.6.6-1l.2-.5a16.6 16.6 0 0 1 .2-1l-.9.7c-.2.3-.7.3-1 .3C1.6.1 1.1 0 1-.4.7-.7.5-1.2.5-1.9c0-.5 0-1.1.2-1.5s.3-1 .6-1.4a3 3 0 0 1 1-.9c.2-.2.7-.3 1-.3.5 0 .8.1 1.1.3a2 2 0 0 1 .5.7l.5-.9h.7L4.7.3c-.2.9-.5 1.5-1 1.8-.3.4-.9.5-1.7.5Zm.5-3.3c.2 0 .5 0 .7-.3l.7-.7A4.2 4.2 0 0 0 4.6-4c0-.4-.1-.6-.3-.9-.1-.1-.3-.3-.8-.3-.3 0-.6.2-.8.3-.3.2-.5.4-.7.7A4 4 0 0 0 1.7-3l-.2 1.1c0 .9.3 1.2 1 1.2Zm0 0"/>  <path id="o" d="M3.3.1C2.5.1 1.9 0 1.5-.5 1-.8.9-1.4.9-2v-.5l.1-.6L2-8h1L2-3l-.1.5v.4c-.1.4-.1.8.2 1.1.4 0 .9.2 1.3.2.6 0 1-.1 1.4-.5.3-.3.6-.7.7-1.4l1-5.3h1.1l-1 5.3c-.2.7-.4 1.1-.7 1.5-.2.4-.6.8-.9 1-.5.2-1.1.2-1.7.2Zm0 0"/>  <path id="n" d="M2.7.1C2 .1 1.5 0 1-.5.7-.9.5-1.5.5-2a4.9 4.9 0 0 1 .8-2.7 3 3 0 0 1 1-1.1c.2-.1.7-.2 1.2-.2s1 .1 1.2.4c.3.2.5.5.5 1 0 .3-.2.6-.4 1-.2.3-.6.6-1.1.8-.5.2-1.2.3-2 .3h-.2v.4c0 .4.1.8.3 1 .3.3.6.4 1 .4l.8-.1c.4 0 .5-.2.8-.3v.8l-.8.3-1 .1Zm-1-3.4L3-3.4l.9-.4c.1-.2.3-.5.3-.7 0-.2 0-.5-.2-.5l-.6-.2c-.3 0-.7.2-1 .5-.4.3-.6.8-.7 1.4Zm0 0"/>  <path id="m" d="m.3 0 1.3-5.9h.8l-.2 1 .7-.4.4-.5.8-.2h.6l-.2 1a3 3 0 0 0-.5-.2c-.4.1-.7.2-1 .4a3 3 0 0 0-.8 1l-.3 1.1L1.3 0Zm0 0"/>  <path id="l" d="M.5 0 2-7.9h4.1l-.2 1H3l-.7 2.6h2.8l-.1 1H2L1.4 0Zm0 0"/>  <path id="k" d="m.3 0 1.8-8.4H3L1.2 0Zm0 0"/>  <path id="j" d="M2 .1c-.3 0-.6-.1-1-.4-.3-.2-.4-.6-.4-1a3 3 0 0 1 0-.6l.1-.4.8-3.6h1l-.8 3.7-.1.7c0 .3 0 .5.2.6l.6.2c.2 0 .5 0 .8-.3l.8-.8.5-1.6.6-2.5H6L4.7 0H4l.1-1c-.2 0-.3.2-.5.4l-.7.5-.8.2Zm0 0"/>  <path id="i" d="M.5 0 2-7.9h1.8c1.7 0 2.5.7 2.5 2 0 .6-.3 1.1-.5 1.5-.3.4-.8.7-1.5 1L5.6 0h-1L3.3-3.3H2.1L1.4 0Zm1.8-4H3c1 0 1.4-.3 1.7-.6.5-.4.6-.7.6-1.2 0-.4 0-.8-.3-1L3.7-7H3Zm0 0"/>  <path id="h" d="m.3 0 1.2-6h.9l-.1 1.3.5-.7.6-.4c.3-.2.6-.2.9-.2.4 0 .7 0 1 .4.4.2.6.6.6 1v.6l-.3.4L4.9 0h-1l.6-3.7.2-.4a2 2 0 0 0 0-.4c.1-.4-.2-.7-.7-.7l-.8.3-.8.8-.6 1.6L1.3 0Zm0 0"/>  <path id="g" d="M2 .1c-.4 0-.7 0-1-.3-.2-.2-.4-.5-.4-1L.7-2l.7-3.2h-1l.3-.4.9-.4.6-1.2h.7L2.5-6H4l-.2.8H2.4L1.7-2v.4l-.2.3.2.4c.1.2.3.2.5.2h.4L3-.8v.7l-.5.1-.5.1Zm0 0"/>  <path id="f" d="M2.7 0C2 0 1.5 0 1.1-.4.7-1 .5-1.5.5-2.2a5 5 0 0 1 .2-1.3c.1-.5.3-.9.6-1.3a3 3 0 0 1 .9-.7C2.6-6 3-6 3.5-6c.7 0 1.2.2 1.5.6.5.4.7 1 .7 1.7 0 .4 0 .9-.2 1.3-.1.5-.3.9-.6 1.4a3 3 0 0 1-.9.8c-.4.2-.8.2-1.3.2Zm0-.6c.5-.1.9-.2 1.1-.5.2-.2.5-.6.6-.9.2-.6.3-1.1.3-1.8l-.1-.7-.4-.5-.7-.2c-.5 0-.8.2-1 .5-.5.2-.7.5-.9.9L1.5-2c0 .3.1.7.3.9.3.3.6.4 1 .4Zm.1-.1"/>  <path id="e" d="M.5 0 2-7.9h2.1c.9 0 1.3.2 1.9.5.3.3.5.7.5 1.4 0 .5-.2 1-.5 1.3-.3.2-.8.4-1.3.5.4.4.7.5 1 .8 0 .2.3.5.3.9 0 .7-.2 1.1-.4 1.5-.3.3-.6.5-1 .7C4 0 3.5 0 3 0Zm1.9-4.5h1.3c.3 0 .6 0 .9-.2.2 0 .4-.2.6-.3.2-.3.3-.6.3-1 0-.3-.2-.5-.5-.7C5-7 4.5-7 4.1-7H2.8ZM1.6-.8H3c.6 0 1-.2 1.4-.4.4-.4.6-.8.6-1.3 0-.3 0-.6-.4-.9-.2-.1-.6-.2-1.2-.2H2.2Zm0 0"/>  <path id="d" d="M2.3-6.9 2-7l-.2-.4c0-.2 0-.3.2-.5l.5-.1c.3 0 .5.1.5.4l-.2.6c-.2.1-.3.1-.5.1ZM.3 0l1.3-5.9h1L1.2 0Zm0 0"/>  <path id="c" d="M1.7.1.7 0 .2-.3v-.9c0 .2.3.3.6.4a3 3 0 0 0 .9.1c.3 0 .7 0 1-.2.2-.2.3-.4.3-.7 0-.2 0-.4-.2-.5L2-2.7a3.8 3.8 0 0 1-1-.7c0-.2-.2-.6-.2-1s.2-.7.6-1c.3-.4.7-.6 1.3-.6l1.1.1.7.3-.3.8-.6-.3h-.9L2-5l-.3.6c0 .2 0 .4.3.5 0 .2.3.3.7.5l.7.5.4.5.2.7c0 .6-.2 1-.6 1.4-.4.3-1 .3-1.7.3ZM.6 2.4v-.1l.2-.5.3-.6.3-.5h.9l-.3.7-.4.5-.6.5Zm0 0"/>  <path id="b" d="M2.1.1C1.7.1 1.3 0 1-.4.7-.7.5-1.2.5-1.9l.2-1.6.6-1.3c.3-.4.7-.7 1-.9.2-.2.7-.3 1.1-.3.4 0 .7.1 1 .3l.5.7.5-.9H6L4.8 0H4l.2-1a4 4 0 0 1-1.1.7c-.1.3-.6.3-.9.3Zm.3-.8c.3 0 .6 0 .8-.3a3 3 0 0 0 .8-.8 5 5 0 0 0 .4-1.1l.1-.6V-4c.1-.4.1-.6-.1-1-.4 0-.6-.2-.9-.2-.3 0-.5.2-.8.3l-.6.7-.4 1-.2 1.4c0 .3 0 .6.3.9l.6.1Zm0 0"/>  <path id="a" d="M-.2 0v-.5L.9-.8 2.2-7l-.9-.3.1-.6h2.8l-.2.6-1 .2L1.8-.8l.8.3V0Zm0 0"/>  <path d="M1 0v-7.9h4.6V0Zm.6-.6H5v-6.7H1.6Zm0 0"/> </defs> <image xlink:href="svg/9/3_8.jpg" width="497" height="279"/> <path d="m191.6 236.9.1-.6 1-.2 1.3-6.3-.8-.2v-.6h2.8v.6l-1 .2-1.4 6.2.9.3-.1.7zm5.9.1c-.4 0-.8-.2-1.1-.5-.4-.5-.5-.9-.5-1.5l.2-1.6c.2-.5.4-1 .7-1.3.2-.4.5-.7.9-.9.3-.2.7-.3 1.1-.3.4 0 .7 0 1 .3l.5.7.5-1h.7l-1.3 6.1h-.8l.2-1.2a4 4 0 0 1-1.1.8c-.2.4-.5.4-.9.4zm.3-.8c.3 0 .6-.2.8-.3a3 3 0 0 0 .7-.9 5 5 0 0 0 .5-1.1l.2-.5v-.5c0-.4-.1-.7-.3-.9-.2-.2-.5-.3-.8-.3-.3 0-.5 0-.8.2l-.6.8-.5 1-.1 1.3c.1.4.1.7.3.9.1.1.4.3.6.3zm5.6.8-1-.1-.7-.3v-.9l.7.3a3 3 0 0 0 1 .2c.3 0 .6-.2.9-.3l.3-.6-.2-.6-.7-.5a3.8 3.8 0 0 1-1-.7c-.2-.3-.3-.6-.3-1 0-.5.2-.9.6-1.2.3-.3.8-.3 1.4-.3h1l.8.4-.3.6-.7-.2-.8-.1c-.3 0-.6 0-.7.2l-.3.6c0 .2 0 .3.2.5l.7.5.7.5.5.5.2.7c0 .6-.3 1-.7 1.3-.4.3-1 .5-1.6.5zm-1.2 2.3v-.2l.3-.4.3-.7.2-.5h1v.1l-.4.5-.4.6-.4.6zm6.6-9.3-.5-.1-.1-.4c0-.2 0-.5.2-.5.1-.2.3-.2.5-.2.3 0 .5.1.5.5l-.2.5-.4.2zm-2 6.9 1.2-6h1l-1.4 6.1zm-.1 0" style="fill:none;stroke:#fff;stroke-width:3;stroke-linecap:butt;stroke-linejoin:round;stroke-miterlimit:10;stroke-opacity:.6" transform=" rotate(  340 200.908 233.868) "/> <g style="fill:#7d577d;fill-opacity:1" transform=" rotate(  340 200.908 233.868) ">  <use xlink:href="#a" x="191.8" y="236.9"/>  <use xlink:href="#b" x="195.4" y="236.9"/>  <use xlink:href="#c" x="201.7" y="236.9"/>  <use xlink:href="#d" x="206.4" y="236.9"/> </g> <path d="m92.5 44.6 1.7-7.9h2c.7 0 1.3.3 1.7.4.4.3.6.9.6 1.4 0 .6-.1 1-.4 1.3-.4.4-.8.6-1.3.7l.9.6c.2.2.3.6.3.9 0 .7 0 1.1-.4 1.5-.2.3-.6.5-1 .8-.6.2-1 .3-1.6.3zm2-4.6h1.2c.4 0 .7 0 1-.1.1.1.3-.2.5-.5l.3-.8c0-.3 0-.6-.3-.6-.2-.3-.6-.4-1.2-.4h-1zm-.8 3.7H95c.7 0 1.1-.1 1.5-.4.3-.3.5-.7.5-1.2l-.3-.9c-.3-.2-.7-.2-1.2-.2h-1.2zm7.7 1c-.7 0-1.2-.2-1.6-.7-.4-.4-.6-1-.6-1.6a5 5 0 0 1 .2-1.4l.5-1.2a3 3 0 0 1 1.1-.8c.2-.3.7-.4 1-.4.8 0 1.4.2 1.8.6.2.4.5 1 .5 1.8 0 .3 0 .8-.2 1.2 0 .5-.3.9-.5 1.2a3 3 0 0 1-1 1c-.2.1-.6.2-1.1.2zm0-.8c.4 0 .7-.2 1-.4l.7-1c.2-.5.3-1.1.3-1.8 0-.2 0-.4-.2-.7 0 0-.2-.3-.2-.4l-1-.2c-.3 0-.6.1-.9.4l-.7 1.2c-.2.4-.2 1-.2 1.4s0 .8.3 1c.2.4.5.6 1 .6zm5.5.8c-.4 0-.7-.1-1-.3-.3-.2-.4-.5-.4-1v-.8l.8-3.2h-1l.1-.4 1-.4.7-1.3h.6l-.3 1.4h1.5l-.2.7h-1.5l-.7 3.2v1.1l.5.3h.4l.4-.3v.8l-.4.1h-.5zm4.3 0c-.6 0-1.2-.2-1.6-.7-.4-.4-.6-1-.6-1.6a5 5 0 0 1 .2-1.4l.6-1.2a3 3 0 0 1 .9-.8c.4-.3.8-.4 1.3-.4.7 0 1.2.2 1.6.6.4.4.6 1 .6 1.8 0 .3 0 .8-.2 1.2-.1.5-.3.9-.6 1.2a3 3 0 0 1-.9 1c-.3.1-.8.2-1.3.2zm0-.8c.5 0 .8-.2 1.1-.4.2-.3.5-.6.7-1 .1-.5.2-1.1.2-1.8l-.1-.7-.4-.4-.7-.2c-.4 0-.8.1-1 .4-.5.3-.7.7-.9 1.2l-.1 1.4c0 .6.1.8.3 1 .3.4.7.6 1 .6zM116.4 44.7l-1-.1-.5-.3v-.9l.6.3a3 3 0 0 0 .9.3c.4-.1.6-.2 1-.4.2-.1.3-.4.3-.6 0-.2 0-.4-.2-.6l-.8-.4a3.8 3.8 0 0 1-1-.8c0-.3-.2-.6-.2-1-.1-.5.1-.9.5-1.2.4-.3.8-.4 1.4-.4l1 .1c.3 0 .6.2.8.3l-.2.7-.7-.2-.9-.1c-.3 0-.4 0-.7.2l-.3.6c0 .2 0 .3.2.5l.8.5.6.5.5.5.2.7c0 .6-.2 1-.6 1.3-.4.3-1.1.5-1.7.5zm-1.1 2.3.2-.6.3-.6.3-.6h.9v.2l-.3.4-.4.6-.5.6zm6.3-2.3c-.6 0-.9-.2-1.2-.5-.3-.4-.4-.9-.4-1.5s0-1.1.2-1.7c.1-.4.3-.9.6-1.2l.9-.9c.4-.2.7-.3 1.2-.3.4 0 .7 0 1 .3l.4.7.5-1h.7l-1.3 6.1h-.7l.1-1.2a4 4 0 0 1-1 .8c-.1.3-.6.4-.9.4zm.3-.8c.3 0 .5-.1.8-.3a3 3 0 0 0 .7-.8 5 5 0 0 0 .5-1.2l.1-.5v-.5c0-.4 0-.7-.3-.9-.2-.2-.4-.3-.7-.3-.3 0-.6 0-.8.2l-.7.8-.4 1-.1 1.3c0 .4 0 .7.2.9.2.2.4.3.7.3zm4.1.7 1.2-6h.9l-.1 1.1.5-.5.5-.5 1-.2c.4 0 .8.2 1 .5.4.2.6.5.6 1v.5l-.3.5-.7 3.6h-1l.6-3.7.2-.5a2 2 0 0 0 0-.3c0-.5-.2-.7-.7-.7l-.8.3c-.3.1-.5.3-.8.8l-.6 1.5-.5 2.6zm8.4-6.9-.4-.1v-.4c-.1-.2-.1-.4 0-.5l.5-.2c.5 0 .5.1.5.5 0 .2 0 .4-.2.5l-.4.2zm-2 6.9 1.2-6h1l-1.2 6.1zm0 0" style="fill:none;stroke:#fff;stroke-width:3;stroke-linecap:butt;stroke-linejoin:round;stroke-miterlimit:10;stroke-opacity:.6" transform="rotate(  340 163.851 41.5686) translate(48.484754)"/> <g style="fill:#7d577d;fill-opacity:1" transform=" rotate(  340 163.851 41.5686) ">  <use xlink:href="#e" x="140.5" y="44.6"/>  <use xlink:href="#f" x="147.1" y="44.6"/>  <use xlink:href="#g" x="153.3" y="44.6"/>  <use xlink:href="#f" x="157" y="44.6"/>  <use xlink:href="#c" x="163.2" y="44.6"/>  <use xlink:href="#b" x="167.9" y="44.6"/>  <use xlink:href="#h" x="174.2" y="44.6"/>  <use xlink:href="#d" x="180.6" y="44.6"/> </g> <path d="m395.4 29.6 1.6-7.9h1.8c1.6 0 2.4.7 2.4 2 0 .6-.1 1-.4 1.5-.3.4-.8.7-1.6.8l1.3 3.6h-1l-1.2-3.3h-1.2l-.7 3.3zm1.8-4.1h.9c.7 0 1.3-.2 1.6-.5.3-.3.5-.7.5-1.2s-.2-.8-.4-1l-1.1-.2h-.8zm6.2 4.2c-.5 0-.9-.2-1.2-.5-.2-.4-.4-.9-.4-1.5s0-1.1.2-1.7c0-.4.3-1 .6-1.2.2-.4.6-.8.9-1l1.2-.1c.3-.1.7-.1 1 .2l.4.7.5-1h.7l-1.3 6.1h-.7l.1-1.2a4 4 0 0 1-1 .8c-.2.3-.5.4-.9.4zm.3-.8c.3 0 .5-.1.8-.3a3 3 0 0 0 .7-.8 5 5 0 0 0 .5-1.2V26l.2-.5c-.1-.3-.1-.5-.4-.8-.2-.2-.4-.3-.7-.3-.3 0-.6 0-.8.2l-.7.8-.3 1-.2 1.3c0 .3 0 .7.2.9.2.2.4.3.7.3zm6.1-6.2c-.1 0-.3 0-.4-.2l-.1-.3c0-.2 0-.4.2-.5 0-.2.3-.2.5-.2.3 0 .5.1.5.5l-.2.5-.5.2zm-2 6.9 1.3-6h.9l-1.3 6.1zm5.2.1c-.5 0-1.1-.2-1.5-.7-.4-.4-.5-1-.5-1.6a5 5 0 0 1 0-1.4c0-.4.4-.8.6-1.2a3 3 0 0 1 1-.8c.2-.3.6-.4 1.1-.4.8 0 1.3.2 1.7.6.4.4.6 1 .6 1.7 0 .4 0 .9-.2 1.3l-.5 1.2a3 3 0 0 1-1 1c-.3 0-.7.2-1.2.2zm.2-.9c.3 0 .6 0 .9-.3l.7-1 .2-1.9v-.5c-.1-.1-.3-.4-.5-.5l-.7-.2c-.4 0-.7.1-1 .4-.3.3-.6.6-.8 1.2l-.2 1.4c0 .6.2.8.4 1 .2.4.5.5 1 .5zm3.6.8 1.2-6h.9l-.1 1.1.5-.5.6-.5.9-.2c.5 0 .8.2 1.1.5.3.2.4.5.4 1v.5l-.1.5-.8 3.6h-1l.8-3.7v-.5a2 2 0 0 0 0-.3c.1-.5-.2-.7-.6-.7-.3 0-.6 0-.9.3l-.7.8-.6 1.5-.6 2.6zm8.2.1c-.5 0-.8-.2-1.1-.4-.3-.3-.4-.6-.4-1.1a3 3 0 0 1 0-.5l.1-.4.8-3.6h1l-.8 3.7-.1.6c0 .4 0 .5.2.7l.6.2.7-.3.9-.8.5-1.6.6-2.5h1l-1.4 5.9h-.7l.1-1.1-.5.5-.7.5-.8.2zm4.6-.1 1.7-8.4h1l-1.8 8.4zM396.4 43l1.6-8h4v1h-3.1l-.7 2.8h2.8l-.1.8H398l-.6 3.4zm5.1 0 1.8-8.5h1l-2 8.4zm5.3 0c-.8 0-1.3-.2-1.8-.6-.3-.4-.4-1-.4-1.6a5 5 0 0 1 .1-1.4l.6-1.2a3 3 0 0 1 1-.9c.2-.2.7-.3 1.1-.3.8 0 1.3.2 1.6.6.5.4.7 1 .7 1.6 0 .5 0 1-.2 1.4l-.5 1.2a3 3 0 0 1-1 1l-1.2.2zm0-.8c.4 0 .7 0 1-.2.2-.4.5-.7.6-1.2.2-.5.3-1 .3-1.7l-.1-.6c0-.2-.2-.5-.4-.5-.2-.2-.4-.2-.7-.2-.4 0-.8.1-1 .4-.4.3-.7.6-.8 1-.1.6-.2 1.1-.2 1.7 0 .4.1.7.5.9 0 .4.4.5.8.5zm3.7.8 1.3-6h.8l-.2 1.2h.1l.5-.6c.2-.2.3-.4.6-.6h1.4l-.3 1a3 3 0 0 0-.5-.1c-.4-.1-.7-.1-1 .2a3 3 0 0 0-.7.9c-.2.5-.5.9-.5 1.3l-.5 2.6zm6.5 0c-.6 0-1.2 0-1.5-.4-.5-.6-.6-1.1-.6-1.8a4.9 4.9 0 0 1 .8-2.6 3 3 0 0 1 1-1c.3 0 .6-.2 1-.2.7 0 1.1.1 1.4.3.3.2.4.6.4 1s0 .7-.3 1c-.3.5-.6.7-1.2.9-.5.1-1 .2-2 .2l-.2.2v.2c.1.5.1.8.4 1 .2.4.6.6 1 .6.3-.1.6-.1.8-.4.3.1.5 0 .8-.2v.8c-.3.2-.5.4-.8.4l-1 .1zm-1-3.3h1.3l1-.7c.1 0 .2-.3.2-.6.1-.2.1-.4-.1-.5l-.6-.2c-.4 0-.7.3-1 .5-.4.4-.6.8-.8 1.4zm5.6 3.3h-1l-.6-.4v-.9l.6.5a3 3 0 0 0 1 .1c.4 0 .6-.1.9-.3.1-.2.3-.4.3-.7.1-.2 0-.3-.2-.5l-.6-.5a3.8 3.8 0 0 1-1.1-.7c-.2-.3-.3-.6-.3-1 0-.5.2-.9.6-1.2.3-.3.8-.4 1.4-.4.4 0 .7 0 1 .1.3-.1.6.1.8.3l-.4.6h-.6l-.8-.2c-.3 0-.5 0-.6.2-.3 0-.4.3-.4.6 0 .1 0 .3.2.4l.8.6.6.4.5.5.2.7c0 .6-.2 1-.7 1.4-.4.3-1 .5-1.6.5zm-1.2 2.5v-.3l.3-.4.3-.6.2-.6h1v.1l-.4.5-.4.6-.4.6zm6.2-2.5c-.4 0-.6 0-1-.1-.2-.3-.4-.7-.4-1.1l.1-.8.7-3.2h-.9l.1-.4 1-.5.7-1.2h.5l-.3 1.4h1.5l-.1.7H427l-.7 3.2v1l.6.3h.3l.4-.3v1h-.4l-.6.2zm4-7h-.4l-.1-.5.1-.5c.2-.1.4-.1.6-.1.3 0 .4.1.4.5 0 .2 0 .4-.2.5l-.4.1zm-2 7 1.2-6h1l-1.3 6zm0 0" style="fill:none;stroke:#fff;stroke-width:3;stroke-linecap:butt;stroke-linejoin:round;stroke-miterlimit:10;stroke-opacity:.6" transform=" rotate(  340 414.99 33.2529) "/> <g style="fill:#7d577d;fill-opacity:1" transform=" rotate(  340 414.99 33.2529) ">  <use xlink:href="#i" x="394.9" y="29.6"/>  <use xlink:href="#b" x="401.2" y="29.6"/>  <use xlink:href="#d" x="407.5" y="29.6"/>  <use xlink:href="#f" x="410.3" y="29.6"/>  <use xlink:href="#h" x="416.5" y="29.6"/>  <use xlink:href="#j" x="422.9" y="29.6"/>  <use xlink:href="#k" x="429.3" y="29.6"/>  <use xlink:href="#l" x="395.9" y="42.9"/>  <use xlink:href="#k" x="401.2" y="42.9"/>  <use xlink:href="#f" x="404" y="42.9"/>  <use xlink:href="#m" x="410.2" y="42.9"/>  <use xlink:href="#n" x="414.4" y="42.9"/>  <use xlink:href="#c" x="419.9" y="42.9"/>  <use xlink:href="#g" x="424.6" y="42.9"/>  <use xlink:href="#d" x="428.3" y="42.9"/> </g> <path d="m320.2 212.8 1.8-7.8h1.6c1.6 0 2.4.6 2.4 2 0 .5 0 1-.4 1.4-.3.4-.8.7-1.6 1l1.4 3.3h-1.1l-1.1-3.1h-1.3l-.7 3.2zm1.9-4h.8c.8-.1 1.3-.3 1.6-.6.5-.3.5-.7.5-1.2 0-.4 0-.7-.3-1l-1.2-.1h-.8zM328.2 213c-.5 0-.9-.3-1.2-.7-.2-.2-.4-.7-.4-1.3 0-.6 0-1 .2-1.7l.6-1.3 1-.9c.2-.1.6-.3 1-.3.5 0 .8.2 1.1.3l.5.7.4-.8h.6l-1 6h-1l.2-1.4a4 4 0 0 1-.9 1c-.3.2-.7.3-1.1.3zm.3-1c.3.1.6.1.8-.2a3 3 0 0 0 .7-.8 5 5 0 0 0 .5-1l.1-.7v-.5c.1-.3.1-.6-.1-.8-.3-.3-.6-.4-.9-.4-.3 0-.6.1-.8.4-.2 0-.5.3-.6.6l-.5 1-.1 1.4c0 .3 0 .6.2 1h.7zm6.2-6-.4-.3-.3-.3.3-.4.5-.3c.3 0 .5.3.5.5s0 .4-.2.6h-.4zm-2 6.7 1.1-5.7h1.1l-1.3 6zM337.9 213c-.7 0-1.2-.4-1.6-.8-.4-.3-.6-.9-.6-1.6a5 5 0 0 1 .2-1.3l.5-1.3a3 3 0 0 1 1-1l1.2-.1c.7-.1 1.4.1 1.7.6.3.4.5 1 .5 1.5 0 .6 0 1.1-.2 1.5 0 .4-.3.8-.5 1.2a3 3 0 0 1-1.1.9c-.1.2-.5.3-1 .3zm0-1c.4 0 .7 0 1.1-.2.2-.3.4-.7.6-1.1.2-.5.3-1 .3-1.7 0-.2 0-.4-.2-.6l-.3-.6-.8-.2c-.4 0-.6.2-1 .5-.3.2-.6.6-.7.9-.2.7-.2 1.2-.2 1.8 0 .2 0 .7.3.9.2.3.5.4 1 .4zm3.7.8 1.4-6h.8l-.2 1.2.5-.6.7-.4c.2-.2.5-.2.8-.2.5 0 .9.1 1.1.4.3.2.4.6.4 1v1.1l-1 3.5h-.8l.7-3.7v-.4a2 2 0 0 0 .2-.3c-.1-.5-.2-.7-.8-.7-.4 0-.5 0-.8.2l-.8.8c-.3.4-.5 1-.6 1.6l-.5 2.5zm8.2.2c-.4 0-.8-.3-1-.6-.4-.1-.6-.4-.6-.9a3 3 0 0 1 .1-.5l.2-.5.7-3.5h1l-.8 3.6-.1.8c0 .2 0 .4.2.5.1.2.3.2.5.2.3 0 .6 0 .9-.1l.8-1 .6-1.5.5-2.6h1l-1.3 6.1h-.8l.3-1.4h-.2l-.5.7-.7.4c-.2.3-.5.3-.8.3zm4.6-.2 1.8-8.3h1l-1.9 8.3zM321 226.3c-.8 0-1.4-.2-1.8-.6-.4-.3-.6-.9-.6-1.6v-.4l.1-.7 1-4.7h1l-1 4.8v.6l-.2.3c.1.5.2.8.4 1.1.3.2.7.3 1.2.3.6 0 1.1-.1 1.4-.4.5-.4.6-.9.7-1.6l1.1-5h1l-1.1 5c-.1.7-.3 1.1-.6 1.6-.2.4-.6.8-1 1-.4.2-1 .3-1.6.3zm4.4-.1 1.3-6h.9l-.2 1.3.6-.7.6-.4c.2-.2.5-.2.8-.2.6 0 .9.1 1.2.4.2.2.4.6.4 1v.6l-.3.4-.6 3.6H329l.7-3.7v-.5a2 2 0 0 0 .3-.3c0-.4-.3-.7-.8-.7-.3 0-.5.1-.8.3-.4.2-.6.4-.8.7l-.6 1.6-.5 2.6zm8.2 2.6h-1l-.8-.4v-.9l.8.5h1c.4 0 .8 0 1-.3.4-.2.7-.6.8-1.1v-.4a16.6 16.6 0 0 1 .4-1.2l-1.2.9c0 .3-.4.4-.8.4-.6 0-1-.2-1.3-.5-.3-.3-.4-.8-.4-1.5-.1-.5-.1-1 .2-1.5l.5-1.4a3 3 0 0 1 1-.9c.2-.2.7-.3 1.2-.3.4 0 .7.1 1 .3a2 2 0 0 1 .4.7l.6-.9h.6l-1.3 6.2c-.3.9-.5 1.5-1 1.8-.3.4-1 .5-1.7.5zm.4-3.3c.3 0 .5 0 .8-.3l.6-.7a4.2 4.2 0 0 0 .7-2.3c0-.4 0-.6-.1-.9-.3-.2-.6-.3-1-.3l-.8.3-.6.7a4 4 0 0 0-.4 1.1l-.1 1.2c-.1.8.3 1.2.9 1.2zm4.2.7 1.8-8.4h1l-.5 2.2-.2.7-.2.7h.1l.5-.5.6-.5.9-.2c.4 0 .8.1 1 .4.4.2.6.6.6 1.1v.4l-.4.5-.6 3.6h-1l.8-3.7.1-.7c0-.3 0-.5-.2-.6l-.5-.2-.9.3c-.3.1-.5.4-.8.7l-.6 1.6-.5 2.6zm8.8.1c-.8 0-1.4-.2-1.7-.6-.3-.4-.5-1-.5-1.6a4.9 4.9 0 0 1 .8-2.7 3 3 0 0 1 1-.9c.2-.2.6-.3 1.1-.3s1.1.1 1.3.4c.3.2.4.4.4 1 0 .3 0 .7-.3 1-.3.4-.6.6-1.1.8-.5.2-1.2.2-2 .2h-.2v.5c0 .4 0 .8.2.9.3.4.7.5 1.1.5l.9-.1.7-.4v.9l-.7.3-1 .1zm-1-3.4 1.3-.1.9-.4c.2-.2.3-.5.3-.8 0-.1 0-.3-.2-.4l-.6-.2c-.3 0-.7.2-1 .5-.3.3-.7.8-.7 1.4zm4 3.3 1.3-6h.9l-.2 1.3.6-.7.6-.4c.2-.2.5-.2.8-.2.5 0 1 .1 1.1.4.3.2.5.6.5 1v.6l-.3.4-.6 3.6h-1l.6-3.7v-.5a2 2 0 0 0 .3-.3c-.1-.4-.3-.7-.8-.7-.3 0-.5.1-.8.3-.3.2-.6.4-.8.7l-.6 1.6-.5 2.6zm8.5-6.9-.5-.1v-.9l.6-.2c.4 0 .5.2.5.5 0 .2 0 .4-.1.5-.2.2-.4.2-.5.2zm-2 6.9 1.2-5.9h1l-1.3 5.9zm0 0" style="fill:none;stroke:#fff;stroke-width:3;stroke-linecap:butt;stroke-linejoin:round;stroke-miterlimit:10;stroke-opacity:.6" transform="rotate(  340 332.851 197.277) translate(-7.5234963,-19.226713)"/> <g style="fill:#7d577d;fill-opacity:1" transform=" rotate(  340 332.851 197.277) ">  <use xlink:href="#i" x="312.3" y="193.6"/>  <use xlink:href="#b" x="318.6" y="193.6"/>  <use xlink:href="#d" x="324.8" y="193.6"/>  <use xlink:href="#f" x="327.6" y="193.6"/>  <use xlink:href="#h" x="333.8" y="193.6"/>  <use xlink:href="#j" x="340.2" y="193.6"/>  <use xlink:href="#k" x="346.6" y="193.6"/>  <use xlink:href="#o" x="310.2" y="207"/>  <use xlink:href="#h" x="317.7" y="207"/>  <use xlink:href="#p" x="324" y="207"/>  <use xlink:href="#q" x="330.4" y="207"/>  <use xlink:href="#n" x="336.8" y="207"/>  <use xlink:href="#h" x="342.3" y="207"/>  <use xlink:href="#d" x="348.6" y="207"/> </g> <path d="m278.6 119.6 1.7-7.8h1.7c1.6 0 2.5.6 2.5 2 0 .5-.2 1-.5 1.5-.3.4-.8.7-1.5.9l1.3 3.4h-1l-1.3-3.2h-1.2l-.7 3.2zm1.9-4h.8c.8 0 1.3-.2 1.7-.6.3-.2.4-.6.4-1.2 0-.4 0-.7-.3-.8-.3-.3-.7-.4-1.2-.4h-.8zm6.1 4.2c-.5 0-.8-.3-1.1-.5-.3-.5-.5-1-.5-1.6 0-.5 0-1 .2-1.5l.6-1.3 1-1c.2-.1.6-.2 1-.2.5-.1.8 0 1.2.3l.4.7.5-1h.6l-1.2 6.1h-.8l.2-1.4a4 4 0 0 1-1.1 1c-.2.2-.6.3-.9.3zm.4-.8c.2 0 .5-.1.7-.3a3 3 0 0 0 .7-.8 5 5 0 0 0 .6-1.2v-1.1c0-.3 0-.6-.1-.8-.3-.2-.6-.3-.9-.3-.3 0-.5 0-.8.2l-.6.8-.6 1v1.3l.1.9c.3.2.5.3.9.3zm6-6.2s-.1 0-.2-.2l-.2-.3.1-.5c.1-.2.3-.3.5-.3.3 0 .5.2.5.5s0 .4-.2.6l-.4.2zm-2 6.8 1.4-5.8h.9l-1.3 5.7zm5.3.1c-.7 0-1.2-.2-1.6-.6-.4-.4-.7-1-.7-1.6a5 5 0 0 1 .3-1.5l.5-1a3 3 0 0 1 1-1c.2-.2.8-.3 1.2-.3.7 0 1.3.2 1.7.6.3.4.6 1 .6 1.6l-.3 1.4-.5 1.2a3 3 0 0 1-1 1l-1.1.1zm0-.7c.5 0 .7-.2 1.1-.4l.6-1.1c.2-.5.3-1 .3-1.7 0-.2 0-.4-.3-.6.1-.2 0-.4-.2-.5-.2-.2-.4-.2-.8-.2-.3 0-.7.1-1 .4l-.7 1-.2 1.7c-.1.3-.1.7.3.9.2.3.6.5 1 .5zm3.7.6 1.3-5.9h.9l-.2 1.1.6-.5.6-.5.8-.2c.5 0 1 .1 1.1.4.3.3.5.6.5 1v.7l-.3.4-.6 3.5h-1l.6-3.6v-.5a2 2 0 0 0 .3-.3c-.1-.5-.3-.7-.8-.7-.3 0-.5 0-.8.2-.3.3-.6.5-.8.9l-.6 1.4-.5 2.6zm8.2.2c-.4 0-.8-.3-1-.5-.4-.3-.5-.5-.5-1a3 3 0 0 1 .1-.5v-.5l.9-3.5h.9l-.8 3.7v1.2c.2.3.4.3.7.3l.8-.3c.3-.2.6-.5.8-.9.3-.4.5-.8.6-1.5l.5-2.5h1l-1.3 5.7h-.8l.2-.9h-.1l-.5.4-.6.6-.9.2zm4.6-.2 1.8-8.3h1l-1.8 8.3zM281.7 133l1.6-7.8h4l-.1.8h-3l-.7 2.8h2.9l-.2.9h-2.8l-.7 3.3zm6.9.1c-.5 0-.8-.1-1.1-.5-.3-.3-.5-.8-.5-1.5 0-.5 0-1 .2-1.5l.6-1.4 1-.8c.2-.4.6-.4 1-.4.5 0 .8.1 1.2.3l.3.7.6-.9h.6l-1.2 6h-.8l.2-1.3a4 4 0 0 1-1.1 1c-.2.2-.6.2-.9.2zm.4-.8c.2 0 .5 0 .7-.3a3 3 0 0 0 .7-.8 5 5 0 0 0 .6-1V129c0-.3 0-.6-.1-.8-.3-.3-.6-.4-.9-.4-.3 0-.5.2-.8.3-.2.2-.5.4-.6.7l-.6 1.2v1.2c0 .4 0 .6.2.8.2.2.4.3.8.3zm1.4-6c-.4.1-.8.1-1-.3-.4-.2-.4-.5-.4-.9v-.3h.6c0 .2 0 .5.2.6.1.1.2.2.7.2l.7-.2a.9.9 0 0 0 .3-.5h.7c-.2.5-.4.9-.7 1.1-.3.2-.7.4-1.1.4zM293 133l1.8-8.3h1L294 133zm5.2.1c-.7 0-1.2-.1-1.6-.6-.3-.4-.5-.9-.5-1.5a4.9 4.9 0 0 1 .8-2.7 3 3 0 0 1 1-1c.2-.1.6-.3 1.1-.3.6 0 1 .1 1.3.4.3.2.4.6.4 1s0 .7-.3 1c-.4.4-.6.6-1.2.8-.5.2-1.1.3-2 .3v.4c-.2.4-.2.8.2 1 .2.3.6.4 1 .4h.8l.8-.5v.9l-.8.3-1 .1zm-1-3.4h.1l1.2-.1c.5 0 .7-.2 1-.4.1-.2.2-.4.2-.7.1-.2.1-.5-.1-.5l-.6-.2c-.4 0-.7.2-1 .5-.4.3-.6.8-.8 1.4zm5.6 3.4h-1l-.7-.4v-.9l.7.5a3 3 0 0 0 1 0c.3 0 .6 0 .9-.2.1-.2.3-.4.3-.7 0-.2 0-.4-.2-.4-.1-.3-.4-.4-.7-.6a3.8 3.8 0 0 1-1.1-.8c0-.2-.2-.5-.2-.9 0-.5.2-.9.6-1.2.3-.3.8-.5 1.4-.5.4 0 .7 0 1 .2l.8.2-.3.8-.7-.3h-.8c-.3-.1-.6-.1-.7.1-.2.2-.3.4-.3.6s0 .4.2.5c0 .2.3.4.7.6l.7.3.6.6v.7c0 .7-.2 1-.6 1.4-.4.3-1 .3-1.6.3zm-1.2 2.4v-.2l.4-.5.2-.6.2-.5h1v.1l-.4.5-.4.6-.4.6zm6.2-2.4c-.4 0-.7 0-1-.1-.2-.3-.4-.7-.4-1.1l.1-.9.7-3.1h-.9v-.5l1.1-.4.8-1.2h.4l-.3 1.2h1.5l-.1 1h-1.5l-.7 3v1.2l.5.1h.4l.4-.1v.7l-.4.2h-.6zm4-6.9c-.2 0-.3 0-.4-.2l-.1-.4.1-.4c.2-.2.3-.3.6-.3.3.1.4.2.4.5s0 .4-.2.6l-.4.2zm-2 6.8 1.2-5.9h1l-1.3 6zm0 0" style="fill:none;stroke:#fff;stroke-width:3;stroke-linecap:butt;stroke-linejoin:round;stroke-miterlimit:10;stroke-opacity:.6" transform="rotate(  340 298.238 149.666) translate(0,26.332237)"/> <g style="fill:#7d577d;fill-opacity:1" transform=" rotate(  340 298.238 149.666) ">  <use xlink:href="#i" x="278.2" y="146"/>  <use xlink:href="#b" x="284.5" y="146"/>  <use xlink:href="#d" x="290.7" y="146"/>  <use xlink:href="#f" x="293.6" y="146"/>  <use xlink:href="#h" x="299.8" y="146"/>  <use xlink:href="#j" x="306.1" y="146"/>  <use xlink:href="#k" x="312.5" y="146"/>  <use xlink:href="#l" x="281.2" y="159.4"/>  <use xlink:href="#r" x="286.5" y="159.4"/>  <use xlink:href="#k" x="292.7" y="159.4"/>  <use xlink:href="#n" x="295.6" y="159.4"/>  <use xlink:href="#c" x="301.1" y="159.4"/>  <use xlink:href="#g" x="305.8" y="159.4"/>  <use xlink:href="#d" x="309.5" y="159.4"/> </g> <path d="m377.4 91.4 1.6-7.9h1.8c1.6 0 2.4.7 2.4 2 0 .6-.2 1-.5 1.5-.2.4-.7.7-1.5.9l1.3 3.5h-1l-1.3-3.4H379l-.6 3.4zm1.8-4.1h.9c.7 0 1.2-.3 1.6-.5.3-.3.5-.7.5-1.2s-.2-.8-.4-1c-.2-.2-.6-.2-1.1-.2h-.8zm6.2 4.2c-.5 0-.9-.2-1.2-.5-.3-.4-.4-1-.4-1.6 0-.4 0-1 .2-1.4 0-.6.3-1.1.6-1.4.2-.4.4-.7.9-1l1.2-.1c.3-.1.7-.1.9.2l.4.7h.2l.3-1h.8l-1.3 6.1h-.7l.1-1.2a4 4 0 0 1-1 .7c-.2.3-.5.5-.9.5zm.3-.8.8-.3a3 3 0 0 0 .7-.8 5 5 0 0 0 .5-1.2v-.6l.2-.5c-.1-.3-.1-.6-.4-.8-.2-.2-.4-.3-.8-.3-.2 0-.5 0-.7.2l-.7.8-.3 1-.3 1.3c0 .4.1.7.3.9 0 .2.4.3.7.3zm6.1-6.2c-.1 0-.3 0-.4-.2l-.1-.3c0-.2 0-.4.2-.5 0-.2.2-.2.5-.2s.5.1.5.5l-.2.5-.5.2zm-2 6.9 1.2-6h1l-1.2 6.1zm5.2 0c-.5 0-1.1-.2-1.5-.6-.5-.4-.5-1-.5-1.6a5 5 0 0 1 0-1.4l.6-1.2a3 3 0 0 1 1-.9c.2-.2.6-.3 1.1-.3.8 0 1.3.2 1.7.6.4.4.6 1 .6 1.7 0 .3 0 .9-.2 1.3-.1.4-.3.9-.6 1.2a3 3 0 0 1-.9 1l-1.2.1zm.2-.8c.3 0 .6 0 .9-.3.2-.3.5-.6.6-1 .3-.7.3-1.2.3-1.9V87c-.1-.3-.3-.5-.5-.6l-.7-.2c-.4 0-.8.1-1 .4-.5.4-.7.6-.8 1.1l-.2 1.5c0 .5.2.8.3 1 .3.4.6.5 1 .5zm3.6.8 1.2-6h1l-.3 1.1.6-.5.6-.5.9-.2c.5 0 .8.2 1 .4.5.3.6.6.6 1.1v.5l-.3.5-.7 3.6h-1l.8-3.7v-.5a2 2 0 0 0 0-.2c.1-.6-.2-.8-.6-.8-.3 0-.6 0-.9.2l-.7.9-.6 1.5-.6 2.6zm8.2.1c-.5 0-.8-.2-1.1-.5-.3-.2-.4-.5-.4-1a3 3 0 0 1 0-.5l.1-.4.8-3.6h1l-.8 3.7-.1.7.1.6.6.2c.3 0 .6-.1.8-.3l1-.8.4-1.6.6-2.5h1l-1.4 5.9h-.7l.1-1.1-.6.5-.6.5-.8.2zm4.6-.1 1.7-8.4h1l-1.8 8.4zM378 104.8h-1l-.8-.3v-1c.2.2.4.3.7.3l1.1.2c.3 0 .6 0 1-.2.1 0 .3-.2.5-.4.3-.2.4-.5.4-.9a1 1 0 0 0-.3-.7l-1-.8a6 6 0 0 1-.9-.4 2.1 2.1 0 0 1-.4-.7l-.3-.8c.1-.5.2-1.1.5-1.3.2-.3.5-.6.9-.8l1.3-.2h1l1.1.5-.5.8-.7-.3-.9-.2c-.5 0-.8.2-1.1.4-.3.2-.4.6-.4 1v.6l.5.4.6.4.7.5a2 2 0 0 1 .7.7l.2.9c0 .8-.3 1.3-.9 1.8-.4.4-1.1.5-2 .5zm3.8-.1 1.3-5.9h.9l-1.3 6zm.2-6.6v-.2l.4-.4a15 15 0 0 0 .6-.6l.5-.6h.9l.4.9.5.7v.2h-.6a3.8 3.8 0 0 1-.4-.5 9.7 9.7 0 0 1-.5-.5 11.1 11.1 0 0 1-1.2.9zM384.6 104.7l1.4-5.9h.7v1l.3-.4.8-.4.8-.3c.5 0 .9.1 1.1.4.3.2.4.6.4 1v1.2l-1 3.4h-.9l.8-3.7v-.4a2 2 0 0 0 .2-.3c-.1-.5-.3-.7-.8-.7-.4 0-.5 0-.8.2-.3.2-.6.5-.8.9-.3.3-.5.8-.6 1.5l-.6 2.5zm8.2 2.7-1-.1c-.3 0-.6-.3-.8-.3v-.9l.8.3 1 .2c.3 0 .7-.1.9-.4.4-.2.7-.5.8-1v-.6a16.6 16.6 0 0 1 .4-.9c-.3.3-.6.5-1 .7-.3.3-.6.4-.9.4-.6 0-1.1-.1-1.3-.5-.3-.3-.4-.8-.4-1.5l.1-1.5.6-1.3a3 3 0 0 1 1-1c.2 0 .6-.2 1-.2.5-.1 1 0 1.1.3a2 2 0 0 1 .5.7l.6-1h.6l-1.4 6.3c-.1.8-.4 1.4-.9 1.7-.4.4-1 .6-1.7.6zm.4-3.4c.2 0 .5 0 .7-.2l.7-.8a4.2 4.2 0 0 0 .7-2.3c0-.3 0-.6-.2-.7-.2-.3-.5-.4-.9-.4-.2 0-.5 0-.8.2l-.6.8a4 4 0 0 0-.4 1l-.2 1.4c0 .7.4 1 1 1zm6.5.8c-.6 0-1.2-.1-1.5-.5-.4-.5-.6-1-.6-1.7a4.9 4.9 0 0 1 .8-2.6 3 3 0 0 1 1-1c.2 0 .6-.2 1.1-.2s1.1.2 1.3.3c.3.2.4.6.4 1s0 .7-.2 1c-.4.5-.7.7-1.2.9-.5.1-1.2.2-2 .2h-.2v.4c0 .4.1.8.3 1 .2.4.6.6 1.1.6.2-.2.5-.2.7-.3.3.1.5-.2.8-.3v.8c-.2.2-.5.3-.8.3l-1 .1zm-1-3.4h.2l1.2-.1c.3 0 .6-.2.9-.4.2-.2.3-.4.3-.7 0-.2 0-.4-.2-.5l-.6-.2c-.3 0-.7.2-1 .5-.3.4-.6.8-.7 1.4zM402.9 104.7l1.1-5.9h1v1.2l.3-.6.7-.5.7-.2h.3l.3.2-.2.8a3 3 0 0 0-.6 0c-.3-.1-.7-.1-1 .3a3 3 0 0 0-.7.9l-.4 1.1-.4 2.7zm6.5.1c-.7 0-1.2-.1-1.6-.5-.4-.5-.5-1-.5-1.7a4.9 4.9 0 0 1 .7-2.6 3 3 0 0 1 1-1l1.2-.2c.6-.1 1 .2 1.3.3.3.2.4.6.4 1s-.1.7-.4 1c-.2.5-.5.7-1 .9-.7.1-1.3.2-2.1.2h-.1v.4c-.1.4-.1.8.2 1 .3.4.5.6 1.1.6.3-.2.4-.2.8-.3l.8-.3v.8l-.8.3-1 .1zm-1-3.4 1.4-.1c.3 0 .6-.2.9-.4 0-.2.3-.4.3-.7l-.2-.5-.6-.2c-.4 0-.7.2-1 .5-.5.4-.7.8-.9 1.4zm6.2-3.5c-.2 0-.3 0-.4-.2l-.2-.4c0-.1 0-.3.2-.3.1-.3.3-.4.5-.4.3 0 .5.2.5.5s0 .4-.2.6l-.4.2zm-2 6.8 1.1-5.9h1.1l-1.3 6zm-.1 0" style="fill:none;stroke:#fff;stroke-width:3;stroke-linecap:butt;stroke-linejoin:round;stroke-miterlimit:10;stroke-opacity:.6" transform=" rotate(  340 397.057 95.0472) "/> <g style="fill:#7d577d;fill-opacity:1" transform=" rotate(  340 397.057 95.0472) ">  <use xlink:href="#i" x="376.9" y="91.4"/>  <use xlink:href="#b" x="383.2" y="91.4"/>  <use xlink:href="#d" x="389.5" y="91.4"/>  <use xlink:href="#f" x="392.3" y="91.4"/>  <use xlink:href="#h" x="398.5" y="91.4"/>  <use xlink:href="#j" x="404.9" y="91.4"/>  <use xlink:href="#k" x="411.3" y="91.4"/>  <use xlink:href="#s" x="376" y="104.7"/>  <use xlink:href="#t" x="381.5" y="104.7"/>  <use xlink:href="#h" x="384.4" y="104.7"/>  <use xlink:href="#p" x="390.7" y="104.7"/>  <use xlink:href="#n" x="397.1" y="104.7"/>  <use xlink:href="#m" x="402.6" y="104.7"/>  <use xlink:href="#n" x="406.7" y="104.7"/>  <use xlink:href="#d" x="412.2" y="104.7"/> </g> <path d="m232.9 16.6 1.7-7.9h1.7c1.6 0 2.4.7 2.4 2 0 .6-.1 1.1-.4 1.5-.3.4-.8.8-1.6 1l1.3 3.3h-1l-1.2-3.1h-1.2l-.7 3.2zm1.8-4h.9c.7-.1 1.3-.3 1.6-.6.3-.3.5-.7.5-1.2 0-.4-.1-.8-.4-1l-1.1-.1h-.8zM240.9 16.7c-.5 0-.9-.2-1.2-.5-.3-.2-.4-.8-.4-1.5 0-.6 0-1 .2-1.6.1-.5.3-.9.5-1.3.3-.4.7-.7 1-.8.3-.3.7-.4 1.2-.4.4 0 .7.1 1 .3l.4.7.5-.9h.7l-1.3 5.9h-.7l.1-1a4 4 0 0 1-1 .7c-.2.3-.5.4-.9.4zm.3-.7c.3 0 .5 0 .8-.4a3 3 0 0 0 .7-.8 5 5 0 0 0 .5-1.1V13l.2-.4c-.1-.4-.1-.6-.4-.9-.2-.2-.4-.3-.7-.3-.3 0-.6.1-.8.3l-.7.7-.4 1-.1 1.4c0 .3 0 .6.2.9l.7.1zm6.1-6.3-.3-.1v-.9l.6-.2c.2 0 .4.2.4.5l-.2.5c-.2.2-.3.2-.5.2zm-2 6.9 1.3-5.9h1l-1.4 5.9zm5.3.1c-.7 0-1.3-.2-1.7-.6-.3-.4-.5-1.1-.5-1.7a5 5 0 0 1 .2-1.3c0-.5.3-.9.4-1.2a3 3 0 0 1 1.1-1c.2 0 .6-.2 1.1-.2.8-.1 1.3.1 1.7.5.4.4.6 1 .6 1.8 0 .3 0 .8-.2 1.2l-.5 1.3a3 3 0 0 1-1 .9c-.3.2-.7.3-1.2.3zm0-.8c.4 0 .7-.1 1-.4.3-.2.4-.5.7-1l.2-1.7-.1-.8-.4-.4-.7-.2c-.3 0-.7.2-1 .6-.3 0-.6.5-.7.9-.2.5-.3 1.1-.3 1.6 0 .4.1.8.4 1 .2.3.5.5 1 .5zm3.7.7 1.3-6h.8l-.1 1.3.5-.7.6-.4c.3-.2.6-.2.9-.2.5 0 .7.1 1.1.4.3.2.4.6.4 1v.7l-.1.3-.8 3.6h-.9l.7-3.7v-.4a2 2 0 0 0 0-.5c.1-.3-.1-.6-.7-.6l-.8.3-.8.8-.4 1.6-.7 2.5zm8.2.1c-.5 0-.8-.1-1.1-.4-.4-.2-.4-.6-.4-1a3 3 0 0 1 0-.6l.1-.4.9-3.6h.9l-.9 3.7v.7c0 .3 0 .5.2.6l.6.3c.2 0 .5 0 .8-.4l.8-.8.5-1.6.6-2.5h1l-1.4 5.9h-.7l.1-1c-.2-.1-.3.2-.5.4l-.7.5-.8.2zm4.5-.1 1.9-8.4h.9l-1.8 8.4zM234.3 30l1.7-8h1.7c1.6.1 2.4.8 2.4 2.1 0 .6-.1 1-.4 1.5-.3.4-.8.7-1.5 1l1.2 3.4h-1l-1.1-3.3H236l-.7 3.3zm1.8-4h.9c.7 0 1.3-.4 1.6-.7.4-.2.5-.6.5-1.1s-.1-.8-.4-1l-1-.2h-1.1zm4.4 4 1.2-6h1l-1.3 6zm0-6.7v-.1l.7-.5a15 15 0 0 0 .5-.6l.3-.5h1.1l.3.8.6.8v.1h-.6a3.8 3.8 0 0 1-.5-.3 9.7 9.7 0 0 1-.4-.7 11.1 11.1 0 0 1-1.3 1zM244.7 30h-1l-.5-.3v-.9l.6.4a3 3 0 0 0 .9.1c.3 0 .7 0 1-.3.2 0 .3-.4.3-.6 0-.2 0-.4-.2-.6l-.8-.5a3.8 3.8 0 0 1-1-.7c-.1-.3-.2-.6-.2-1s.2-.7.5-1c.4-.6.7-.6 1.4-.6h1l.8.4-.3.8-.6-.3-.9-.1c-.3 0-.5 0-.7.2l-.3.6c0 .2 0 .3.3.4l.7.6.7.5.4.5.2.7c0 .6-.2 1-.6 1.3-.4.4-1 .5-1.7.5zm-1.1 2.5v-.2l.2-.5.3-.6.3-.5h.9c0 .3-.3.3-.3.6l-.4.5-.6.6zm6.9-2.5c-.7 0-1.2 0-1.6-.4-.4-.4-.6-1-.6-1.6 0-.6 0-1.1.2-1.6.1-.4.3-.9.5-1.2a3 3 0 0 1 1.1-.9c.4-.2.8-.3 1.3-.3h.6l.8.4-.3.6a4 4 0 0 0-.5-.1l-.6-.1c-.5 0-.8.1-1.1.4l-.8 1.1-.2 1.7c0 .3 0 .7.3.9.2.3.6.4 1 .4l.7-.1.7-.3v.9l-.7.2a3 3 0 0 1-.8 0zm4.4 0c-.5 0-.9 0-1.2-.3-.3-.5-.4-1-.4-1.7s0-1 .2-1.5c.1-.5.3-1 .5-1.3.3-.4.6-.7 1-.9.3-.2.7-.3 1.2-.3.3 0 .7 0 .8.3l.6.7h.1l.3-1h.8l-1.3 6h-.7l.1-1.1a4 4 0 0 1-1 .8c-.2.3-.5.4-.9.4zm.3-.6.8-.4a3 3 0 0 0 .7-.8 5 5 0 0 0 .5-1.1v-.6l.2-.5c-.1-.4-.1-.7-.4-1-.2 0-.4-.2-.8-.2-.2 0-.5 0-.7.3-.3.1-.5.4-.7.7l-.4 1-.2 1.4c0 .3.1.6.3.8.1.2.4.3.7.3zm4 .6 1.3-6h.9l-.2 1.2.6-.6.6-.6h.8c.5 0 .9 0 1.2.3.2.3.4.7.4 1.1v.6l-.2.4-.7 3.6h-1l.6-3.7.2-.4a2 2 0 0 0 0-.4c0-.4-.2-.7-.7-.7-.3 0-.5.2-.8.3-.3.1-.5.4-.8.8l-.6 1.5-.5 2.6zm8.5-6.9-.4-.1-.1-.4.1-.6h.5c.4-.1.5 0 .5.4 0 .2 0 .4-.2.5l-.4.2zm-2 6.9 1.2-6h1.1l-1.4 6zm0 0" style="fill:none;stroke:#fff;stroke-width:3;stroke-linecap:butt;stroke-linejoin:round;stroke-miterlimit:10;stroke-opacity:.6" transform="rotate(  340 252.755 28.6517) translate(0,8.3594403)"/> <g style="fill:#7d577d;fill-opacity:1" transform=" rotate(  340 252.755 28.6517) ">  <use xlink:href="#i" x="232.4" y="25"/>  <use xlink:href="#b" x="238.7" y="25"/>  <use xlink:href="#d" x="245" y="25"/>  <use xlink:href="#f" x="247.8" y="25"/>  <use xlink:href="#h" x="254" y="25"/>  <use xlink:href="#j" x="260.4" y="25"/>  <use xlink:href="#k" x="266.8" y="25"/>  <use xlink:href="#i" x="233.9" y="38.3"/>  <use xlink:href="#t" x="240.2" y="38.3"/>  <use xlink:href="#c" x="243" y="38.3"/>  <use xlink:href="#u" x="247.8" y="38.3"/>  <use xlink:href="#b" x="252.7" y="38.3"/>  <use xlink:href="#h" x="259" y="38.3"/>  <use xlink:href="#d" x="265.4" y="38.3"/> </g> <path d="m445.8 122.1 1.6-7.8h1.8c1.6 0 2.4.6 2.4 2 0 .5-.2 1-.6 1.4-.2.5-.7.8-1.4 1l1.4 3.3h-1l-1.4-3h-1.2l-.6 3zm1.8-4h.9c.7-.1 1.2-.2 1.5-.5.4-.3.6-.8.6-1.3 0-.3-.2-.7-.4-.9-.3-.2-.6-.3-1.2-.3h-.8zM453.7 122.2c-.4 0-.7-.1-1.1-.5-.3-.3-.6-.7-.6-1.5l.4-1.5c.1-.5.3-1 .6-1.3.2-.4.5-.7.9-1 .3-.1.7-.2 1.1-.2.4-.1.7 0 1 .2l.5.7.5-.9h.7l-1.3 6h-.8l.2-1.2a4 4 0 0 1-1.1 1c-.1 0-.5.2-.8.2zm.4-.8c.2 0 .5 0 .8-.3a3 3 0 0 0 .7-.7 5 5 0 0 0 .4-1.2v-.6l.3-.5c-.1-.3-.2-.6-.4-.8-.2-.3-.4-.4-.8-.4l-.8.3-.6.8-.4 1-.3 1.3c.1.4.2.7.4.7.1.3.4.4.6.4zM460.2 115.3c-.1 0-.2 0-.4-.3l-.1-.3.1-.4c.2-.3.3-.3.5-.3.4 0 .5.2.5.5s0 .5-.2.6l-.4.2zm-2 6.7 1.2-5.8h1l-1.4 6zm5.2.2c-.6 0-1.2-.2-1.6-.6-.4-.4-.6-1-.6-1.6a5 5 0 0 1 .2-1.4l.6-1.2a3 3 0 0 1 .9-.9c.4-.2.8-.3 1.3-.3.7 0 1.2.2 1.6.6.4.4.6 1 .6 1.6 0 .6 0 1-.2 1.4l-.6 1.2a3 3 0 0 1-.9 1c-.3.1-.7.2-1.3.2zm0-.8c.5 0 .9-.1 1.1-.3.2-.3.5-.6.6-1.1.2-.5.3-1 .3-1.7l-.1-.6-.4-.5c-.2-.2-.4-.2-.7-.2-.4 0-.8 0-1 .4-.5.3-.7.6-.9 1l-.1 1.6c0 .4.1.8.3 1 .3.3.6.4 1 .4zM467.2 122.1l1.2-5.9h.9l-.1 1 .5-.4.6-.5.9-.3c.4.1.8.2 1 .5.4.2.6.5.6 1v.7l-.3.4-.7 3.4h-1l.6-3.6.2-.4a2 2 0 0 0 0-.3c0-.5-.2-.7-.6-.7-.3 0-.6 0-1 .2l-.7.9-.6 1.5-.5 2.4zm8.1.1c-.3 0-.8 0-1-.2-.3-.4-.4-.7-.4-1.2a3 3 0 0 1 0-.5v-.5l1-3.6h.9l-1 3.8v.7l.2.5c.2.2.3.2.6.2s.5 0 .8-.2c.3-.2.6-.5.8-.9.3-.3.5-.9.6-1.5l.6-2.6h1l-1.4 6h-.7V121l-.5.6-.6.4-.9.2zm4.7-.1 1.6-8.3h1.1l-1.8 8.2zm-35.3 13.4 1.5-7H444l.2-.8h5.3l-.1.8h-2.2l-1.5 7zm5.8.1c-.7 0-1.2-.2-1.6-.6-.4-.4-.6-1-.6-1.6a4.9 4.9 0 0 1 .8-2.6 3 3 0 0 1 1-1c.3-.1.7-.2 1.2-.2s1 0 1.2.4c.3 0 .5.5.5.9s-.2.7-.4 1c-.2.3-.6.6-1.1.8-.5.2-1.2.3-2 .3h-.2v.4c0 .4.1.8.3 1 .4.3.6.4 1 .4l.8-.1c.3 0 .6-.2.8-.3v.8l-.8.3-1 .1zm-1-3.4 1.4-.2.8-.3c.2-.2.3-.4.3-.7 0-.2 0-.4-.2-.5l-.6-.2c-.2 0-.7.2-1 .5-.3.3-.6.8-.7 1.4zm4.1 3.3 1.8-8.3h1l-1.9 8.3zm5.2.1c-.8 0-1.2-.2-1.6-.6-.4-.4-.5-1-.5-1.6a4.9 4.9 0 0 1 .7-2.6 3 3 0 0 1 1-1c.3-.1.8-.2 1.2-.2.6-.1 1 0 1.3.4.1 0 .4.5.4.9s-.1.7-.4 1c-.2.3-.6.6-1.1.8-.5.2-1.1.3-2 .3v.4c-.2.4-.2.8.2 1 .2.3.5.4 1 .4l.8-.1.8-.3v.8l-.8.3-1 .1zm-1-3.4 1.4-.2.9-.3c0-.2.2-.4.2-.7.1-.2 0-.4-.3-.5l-.4-.2c-.4 0-.7.2-1 .5-.5.3-.6.8-.9 1.4zm4.1 3.3 1.3-6h.8v1.3l.4-.8.6-.3c.3-.2.6-.2 1-.2s.7.1 1 .4c.3.1.4.6.4 1v.7l-.1.3-.8 3.6h-1l.8-3.7v-.4a2 2 0 0 0 0-.4c.1-.4-.1-.6-.6-.6-.3 0-.6 0-.9.2l-.8.8-.5 1.6-.6 2.5zm8.7.1c-.6 0-1.2-.2-1.5-.6-.4-.4-.6-1-.6-1.6a4.9 4.9 0 0 1 .8-2.6 3 3 0 0 1 1-1c.2-.1.7-.2 1.1-.2s1.1 0 1.3.4c.3 0 .4.5.4.9s0 .7-.3 1c-.3.3-.6.6-1.1.8-.5.2-1.2.3-2 .3h-.2v.4c0 .4.1.8.3 1 .2.3.6.4 1 .4l.8-.1c.4 0 .5-.2.8-.3v.8l-.8.3-1 .1zm-1-3.4h.2l1.2-.2.9-.3c.1-.2.3-.4.3-.7 0-.2 0-.4-.2-.5l-.6-.2c-.3 0-.7.2-1 .5-.4.3-.6.8-.7 1.4zm5.6 3.4h-1l-.7-.4v-.9l.7.5a3 3 0 0 0 1 0c.3 0 .6 0 .9-.2.2-.2.3-.4.3-.7l-.1-.5-.8-.6a3.8 3.8 0 0 1-1-.7c-.2-.1-.3-.5-.3-1 0-.3.2-.7.6-1.1.2-.3.8-.5 1.4-.5l1 .1.8.4-.3.7-.6-.3h-.9c-.2-.1-.5-.1-.7.1-.2.2-.3.4-.3.5s0 .5.2.6c.1.2.4.4.8.6l.6.4.5.5.2.7c0 .6-.2 1-.6 1.4-.5.3-1 .4-1.7.4zM474 138v-.2l.3-.5.3-.6.2-.5h1v.1l-.4.5-.4.6-.4.6zm6.3-2.4c-.4 0-.8 0-1-.3-.3-.2-.4-.5-.4-1v-.7l.7-3.2h-.9l.1-.5 1-.4.7-1.2h.5l-.3 1.3h1.5l-.1.8h-1.5l-.6 3.2v1.1l.5.1h.3l.4-.1v.7l-.4.2h-.5zm3.9-7-.4-.1-.1-.4c0-.1 0-.3.2-.5 0-.1.1-.2.5-.2s.5.2.5.6l-.3.5-.4.1zm-2 7 1.2-6.1h1l-1.2 6.1zm0-.1" style="fill:none;stroke:#fff;stroke-width:3;stroke-linecap:butt;stroke-linejoin:round;stroke-miterlimit:10;stroke-opacity:.6" transform=" rotate(  340 465.233 125.825) "/> <g style="fill:#7d577d;fill-opacity:1" transform=" rotate(  340 465.233 125.825) ">  <use xlink:href="#i" x="445.3" y="122.1"/>  <use xlink:href="#b" x="451.6" y="122.1"/>  <use xlink:href="#d" x="457.9" y="122.1"/>  <use xlink:href="#f" x="460.7" y="122.1"/>  <use xlink:href="#h" x="466.9" y="122.1"/>  <use xlink:href="#j" x="473.3" y="122.1"/>  <use xlink:href="#k" x="479.6" y="122.1"/>  <use xlink:href="#v" x="443.1" y="135.5"/>  <use xlink:href="#n" x="447.8" y="135.5"/>  <use xlink:href="#k" x="453.3" y="135.5"/>  <use xlink:href="#n" x="456.1" y="135.5"/>  <use xlink:href="#h" x="461.6" y="135.5"/>  <use xlink:href="#n" x="468" y="135.5"/>  <use xlink:href="#c" x="473.5" y="135.5"/>  <use xlink:href="#g" x="478.2" y="135.5"/>  <use xlink:href="#d" x="481.9" y="135.5"/> </g> <path d="m239.3 74.8 1.6-7.9h1.8c1.6.1 2.3.7 2.3 2.1 0 .5-.1 1-.4 1.4-.3.4-.8.7-1.5 1l1.3 3.3h-1l-1.3-3.1H241l-.8 3.2zm1.7-4h.9c.8-.1 1.3-.3 1.7-.6.3-.3.4-.7.4-1.2 0-.4-.1-.8-.3-1l-1.1-.1h-.9zm6.2 4.2c-.4 0-.8-.4-1.1-.7-.3-.2-.5-.7-.5-1.3l.2-1.7c.2-.5.4-1 .7-1.3.2-.4.5-.7.9-.9.3-.1.6-.3 1.1-.3.5 0 .7.1 1 .3l.5.7.5-.8h.7l-1.3 5.8h-.8l.2-1a4 4 0 0 1-1.1.7c-.2.3-.6.4-.9.4zm.3-1c.3.1.6.1.8-.2a3 3 0 0 0 .7-.8 5 5 0 0 0 .5-1l.2-.7v-.5c0-.4-.1-.6-.3-.9-.2-.2-.5-.3-.8-.3-.3 0-.5.1-.8.4l-.6.6-.4 1-.2 1.4c0 .3.1.6.4 1h.5zm6.2-6-.4-.3-.1-.3.1-.4.5-.3c.4 0 .5.3.5.5s0 .4-.2.5c-.1.3-.1.3-.4.3zm-2 6.7 1.2-5.8h1.1l-1.4 5.9zm5.3.2c-.9 0-1.4-.2-1.8-.6-.3-.4-.5-1-.5-1.7a5 5 0 0 1 .3-1.3c0-.5.2-.9.5-1.3a3 3 0 0 1 .9-1c.4 0 .8-.1 1.3-.1.7-.1 1.2.1 1.6.5.4.4.6 1 .6 1.7l-.2 1.3c-.1.6-.3.9-.7 1.3a3 3 0 0 1-.8.9c-.4.2-.8.3-1.2.3zm0-.9c.3 0 .6 0 1-.3l.5-1c.3-.5.5-1 .5-1.7l-.2-.7-.4-.5-.7-.2c-.4 0-.8.2-1 .5-.5.2-.7.6-.9.9l-.1 1.7c0 .3.1.8.3 1 .3.3.6.4 1 .4zm3.7.8 1.2-6h.9l-.1 1.2.5-.6c.1-.2.4-.3.6-.4.3-.2.5-.2.9-.2s.8.1 1 .4c.3.2.6.6.6 1v.7l-.3.3-.7 3.6h-1l.7-3.7.1-.4a2 2 0 0 0 0-.4c0-.3-.1-.7-.7-.7-.4 0-.5.1-.8.4l-.8.7-.6 1.6-.5 2.5zm8.1.2c-.4 0-.8-.3-1-.6-.3-.1-.4-.4-.4-.9a3 3 0 0 1 0-.5v-.5l1-3.6h.9l-1 3.7v.7l.1.7.7.1c.3 0 .5 0 .9-.3.2-.1.5-.4.7-.8.3-.4.5-1 .6-1.6l.6-2.4h.9l-1.2 5.8h-.8v-1l-.5.4-.6.5-.9.3zm4.6-.2 1.8-8.4h1l-1.8 8.4zm-31 13.5c-1 0-1.7-.3-2.2-.8-.5-.5-.8-1.2-.8-2.2 0-.7.1-1.3.3-2a5 5 0 0 1 .9-1.6c.3-.5.8-.8 1.3-1a3.8 3.8 0 0 1 1.7-.6l1.4.2.9.4-.4.8a6.3 6.3 0 0 0-.8-.3l-1-.1c-.7-.1-1.3.2-1.7.5-.5.4-.9.9-1.1 1.5a5.3 5.3 0 0 0-.4 2.2c0 .4 0 .7.2 1 .1.5.3.7.6.9.3.1.7.2 1.2.2h.8l.5-.2.5-2.2h-1.5l.2-1h2.5l-.8 4-1 .2h-1.4zm4-.1 1.6-8.4h1.1l-1.8 8.4zm5.2.1c-.6 0-1.2-.3-1.6-.6-.4-.4-.6-1-.6-1.7a5 5 0 0 1 .2-1.3c.2-.5.4-.9.6-1.3a3 3 0 0 1 .8-.8c.5-.3.9-.4 1.4-.4.6 0 1.2.2 1.6.6.4.4.6 1 .6 1.7 0 .4 0 .9-.2 1.3-.1.5-.4.9-.6 1.3a3 3 0 0 1-.8.8c-.4.3-.9.4-1.4.4zm0-.8c.4 0 .9-.2 1.1-.5.3 0 .5-.5.6-.9.2-.6.3-1.1.3-1.8l-.1-.6-.5-.5-.6-.2c-.4 0-.8.2-1 .4-.4.3-.7.7-.9 1.1l-.1 1.5c0 .5.1.8.3 1 .3.4.6.6 1 .6zm5.6.8c-.4 0-.8-.3-1.1-.5-.3-.4-.5-.9-.5-1.5s0-1 .2-1.6c.2-.5.3-.9.6-1.3a3 3 0 0 1 1-.9c.2-.2.6-.3 1-.3.6 0 .8 0 1.1.3l.5.7a40.6 40.6 0 0 1 .4-1.5l.3-1.9h1l-1.8 8.4h-.9l.2-1.2-.9.9c-.3.3-.7.4-1 .4zm.4-.8c.2 0 .4 0 .7-.3l.7-.7.5-1 .2-1.4c0-.3-.1-.6-.3-.8-.2-.2-.4-.3-.8-.3-.3 0-.6 0-.8.3-.3.2-.5.4-.6.7a4 4 0 0 0-.4 1l-.2 1.4c0 .7.4 1.1 1 1.1zm6.5.8c-.7 0-1.1-.3-1.6-.6-.3-.4-.5-1-.5-1.6a4.9 4.9 0 0 1 .8-2.7 3 3 0 0 1 1-.9c.2-.2.6-.3 1-.3.7 0 1.2.1 1.4.3.3.3.4.6.4 1s-.1.9-.3 1.2c-.3.3-.7.5-1.3.7l-1.9.2h-.1v.4c0 .5 0 .8.3 1.1.2.3.6.4 1 .4l.8-.1.8-.4v1l-.8.2H264zm-1-3.4h.1c.5 0 .9 0 1.2-.2.4 0 .7-.2 1-.3.1-.2.2-.5.2-.8.1-.2.1-.3-.1-.4-.1-.2-.3-.2-.6-.2-.4 0-.7 0-1 .5-.4.3-.6.8-.9 1.4zm4.1 3.3 1.3-6h.8v1.2l.3-.6.8-.5.8-.1c.5 0 .9 0 1.1.3.3.3.4.7.4 1.1v1l-1 3.6h-.9l.8-3.7V84a2 2 0 0 0 .2-.3c-.1-.4-.3-.7-.8-.7-.3 0-.5.1-.8.3-.3.1-.6.4-.8.7-.4.5-.5 1-.6 1.6l-.5 2.6zm8.5-6.9-.4-.1-.3-.4c.1-.2.1-.4.3-.5l.5-.2c.2-.1.5.2.5.5 0 .2 0 .4-.3.4l-.3.3zm-2 6.9 1.1-6h1.1l-1.3 6.1zm-.1 0" style="fill:none;stroke:#fff;stroke-width:3;stroke-linecap:butt;stroke-linejoin:round;stroke-miterlimit:10;stroke-opacity:.6" transform="rotate(  340 259.408 89.7787) translate(0,11.285244)"/> <g style="fill:#7d577d;fill-opacity:1" transform=" rotate(  340 259.408 89.7787) ">  <use xlink:href="#i" x="238.8" y="86.1"/>  <use xlink:href="#b" x="245.1" y="86.1"/>  <use xlink:href="#d" x="251.4" y="86.1"/>  <use xlink:href="#f" x="254.2" y="86.1"/>  <use xlink:href="#h" x="260.4" y="86.1"/>  <use xlink:href="#j" x="266.8" y="86.1"/>  <use xlink:href="#k" x="273.1" y="86.1"/>  <use xlink:href="#w" x="238.6" y="99.5"/>  <use xlink:href="#k" x="246.1" y="99.5"/>  <use xlink:href="#f" x="248.9" y="99.5"/>  <use xlink:href="#x" x="255.1" y="99.5"/>  <use xlink:href="#n" x="261.5" y="99.5"/>  <use xlink:href="#h" x="267" y="99.5"/>  <use xlink:href="#d" x="273.3" y="99.5"/> </g> <path d="m402 199.5 1.5-7.9h1.8c1.7 0 2.4.7 2.4 2 0 .6-.1 1-.4 1.5-.3.4-.8.7-1.5.9l1.2 3.5h-1l-1.1-3.3h-1.3l-.7 3.3zm1.7-4.1h.9c.8 0 1.4-.2 1.6-.5.4-.3.5-.7.5-1.2s-.1-.8-.4-1l-1-.2h-1.1zM409.9 199.6c-.5 0-.9-.2-1.2-.6-.2-.3-.4-.8-.4-1.4s0-1.1.2-1.6l.6-1.3c.3-.4.6-.7 1-.9.2-.2.6-.3 1-.3.5 0 .8 0 1.1.3l.4.7.5-1h.7l-1.2 6.1h-.8l.2-1.2a4 4 0 0 1-1 .8c-.3.3-.7.4-1 .4zm.3-.8c.3 0 .5-.1.8-.3a3 3 0 0 0 .7-.8 5 5 0 0 0 .5-1.1l.1-.6v-.5c.1-.5.1-.7-.1-.9-.3-.2-.6-.3-.9-.3-.3 0-.6 0-.8.3-.2.1-.5.4-.6.7l-.5 1-.1 1.3c0 .4 0 .7.2.9.2.2.5.3.7.3zm6.2-6.2-.4-.1-.2-.5c0-.1 0-.3.2-.4l.5-.2c.3 0 .5.1.5.5 0 .1 0 .4-.2.5l-.4.2zm-2 6.9 1.1-6h1.1l-1.3 6.1zm5.2.1c-.7 0-1.2-.2-1.6-.6-.4-.5-.6-1-.6-1.7a5 5 0 0 1 .2-1.4l.4-1.2a3 3 0 0 1 1.1-.9c.3-.2.8-.3 1.2-.3.7 0 1.3.2 1.7.6.3.4.5 1 .5 1.7 0 .4 0 .9-.2 1.2 0 .6-.3 1-.5 1.3a3 3 0 0 1-1 1c-.2.1-.6.2-1.1.2zm0-.8c.4 0 .7-.2 1-.4l.7-1c.2-.6.3-1.1.3-1.8 0-.2 0-.4-.2-.6 0-.2-.2-.4-.3-.5l-.8-.2c-.3 0-.7.1-1 .4l-.7 1.1c-.2.5-.2 1-.2 1.5s0 .8.3 1c.2.4.5.6 1 .6zm3.7.7 1.3-6h.8v1.2l.3-.6.8-.5.8-.2c.5 0 .9.2 1.1.4.3.3.4.6.4 1.2v1l-1 3.5h-.8l.7-3.7v-.5a2 2 0 0 0 .2-.3c-.1-.4-.3-.7-.8-.7-.3 0-.5.1-.8.3-.3.1-.6.4-.8.8-.3.4-.5.9-.6 1.5l-.5 2.6zm8.2.1c-.4 0-.8-.1-1-.4-.4-.2-.5-.6-.5-1a3 3 0 0 1 0-.7l.2-.3.8-3.6h1l-1 3.7v.7c0 .3 0 .4.2.6l.6.2.8-.3.8-.8.6-1.7.5-2.4h1l-1.3 5.9h-.8l.2-1.1h-.1l-.5.5-.7.5-.8.2zm4.5-.1 2-8.5h.9l-1.9 8.5zM403.8 213c-1 0-1.6-.3-2.1-.8-.5-.6-.7-1.3-.7-2.2v-1.5a6 6 0 0 1 .6-1.3c.2-.5.5-.9.9-1.2.3-.3.7-.6 1.2-.8.3-.2 1-.3 1.5-.3.7 0 1.4.1 2 .4l-.6.9a4 4 0 0 0-.5-.3l-1.1-.1c-.3 0-.8 0-1.1.2-.5.4-.9.7-1.1 1.1-.3.4-.5.9-.6 1.4a6 6 0 0 0-.2 1.4c0 .7.2 1.2.5 1.6.3.5.8.6 1.4.6h.9l.9-.4v.9l-.9.4a5 5 0 0 1-1-.1zm4.9 0c-.4 0-.7-.2-1.1-.5-.3-.5-.6-.9-.6-1.6l.4-1.5c.1-.5.3-1 .6-1.4.2-.3.5-.6.9-1h1.1c.4-.1.7-.1 1 .2l.5.7.5-1h.7l-1.3 6.1h-.8l.2-1.2a4 4 0 0 1-1.1.8c-.1.2-.5.4-.8.4zm.4-.8.8-.3a3 3 0 0 0 .7-.9 5 5 0 0 0 .4-1.1v-.6l.3-.5c-.1-.3-.2-.6-.4-.8-.2-.2-.4-.3-.8-.3-.1 0-.5 0-.8.2l-.6.8-.4 1-.3 1.3c.1.4.2.7.4.9.1.1.4.3.6.3zm1.4-6c-.5 0-.7-.2-1-.3-.2-.2-.4-.5-.4-1v-.3h.6c0 .4 0 .5.3.6l.6.2c.3 0 .6 0 .8-.2a.9.9 0 0 0 .3-.5h.6c-.1.5-.3 1-.7 1.3-.3 0-.6.2-1.1.2zm2.7 6.7 1.7-8.4h1.1l-1.9 8.4zm4.6.1c-.4 0-.8-.2-1.1-.5-.3-.5-.5-.9-.5-1.6l.2-1.5.6-1.4 1-1h1c.5-.1.8-.1 1.1.2l.5.7.4-1h.8l-1.4 6.1h-.7l.3-1.2a4 4 0 0 1-1.2.8c-.2.2-.6.4-.8.4zm.3-.8c.3 0 .6-.2.9-.3a3 3 0 0 0 .6-.9 5 5 0 0 0 .5-1.1l.1-.6v-.5c.1-.3.1-.6-.2-.8-.2-.2-.5-.3-.8-.3-.2 0-.5 0-.8.2l-.6.8-.4 1-.2 1.3c0 .4.1.7.3.9.1.1.3.3.5.3zm1.5-6c-.4 0-.7-.2-1-.3-.3-.2-.4-.5-.4-1v-.3h.6c0 .4 0 .5.2.6l.7.2c.3 0 .6 0 .7-.2a.9.9 0 0 0 .4-.5h.6c-.1.5-.4 1-.7 1.3-.3 0-.7.2-1.1.2zm2.7 6.7 1.2-6h.8l-.1 1.1.5-.5.6-.5h1.4l-.2.8a3 3 0 0 0-.6 0c-.4-.1-.7-.1-1 .2a3 3 0 0 0-.7 1l-.4 1-.6 3zm5.9.1c-.4 0-.8-.2-1.1-.5-.3-.5-.5-.9-.5-1.6l.2-1.5c.2-.5.4-1 .7-1.4.2-.3.5-.6.9-1h1.1c.5-.1.7-.1 1 .2l.5.7.5-1h.7l-1.3 6.1h-.8l.2-1.2a4 4 0 0 1-1.1.8c-.2.2-.6.4-.9.4zm.3-.8c.3 0 .6-.2.8-.3a3 3 0 0 0 .7-.9 5 5 0 0 0 .5-1.1l.2-.6v-.5c0-.3-.1-.6-.3-.8-.2-.2-.5-.3-.8-.3-.3 0-.5 0-.8.2l-.6.8-.4 1-.2 1.3c0 .4.1.7.4.9 0 .1.3.3.5.3zm5.5.8-.8-.1-.8-.3v-.9l.7.3a3 3 0 0 0 1 .2c.3 0 .6-.2.9-.3.1-.2.3-.4.3-.7.1-.2 0-.2-.3-.5l-.6-.5a3.8 3.8 0 0 1-1-.7c-.2-.3-.3-.6-.3-1 0-.5.2-.9.6-1.2.3-.3.8-.3 1.3-.3h1.1l.8.4-.3.6-.7-.2-.8-.1c-.3 0-.6 0-.7.2-.2.2-.4.3-.4.6 0 .2 0 .3.3.5l.7.5.7.4.5.5.2.8c0 .5-.4 1-.7 1.3-.4.3-1 .5-1.6.5zm-1 2.3v-.3l.1-.3.4-.7.2-.5h1v.1l-.4.5-.4.6-.4.6zm6.5-9.3c-.2 0-.3 0-.5-.2l-.1-.3c.1-.2.1-.5.2-.5.1-.2.3-.2.5-.2.3 0 .4.1.4.5 0 .2 0 .4-.1.5l-.4.2zm-2 6.9 1.1-6h1.1l-1.4 6.1zm-.1 0" style="fill:none;stroke:#fff;stroke-width:3;stroke-linecap:butt;stroke-linejoin:round;stroke-miterlimit:10;stroke-opacity:.6" transform="rotate(  340 409.284 175.577) translate(-12.539161,-27.586153)"/> <g style="fill:#7d577d;fill-opacity:1" transform=" rotate(  340 409.284 175.577) ">  <use xlink:href="#i" x="388.9" y="171.9"/>  <use xlink:href="#b" x="395.2" y="171.9"/>  <use xlink:href="#d" x="401.5" y="171.9"/>  <use xlink:href="#f" x="404.3" y="171.9"/>  <use xlink:href="#h" x="410.5" y="171.9"/>  <use xlink:href="#j" x="416.9" y="171.9"/>  <use xlink:href="#k" x="423.3" y="171.9"/>  <use xlink:href="#y" x="387.6" y="185.3"/>  <use xlink:href="#r" x="394.1" y="185.3"/>  <use xlink:href="#k" x="400.3" y="185.3"/>  <use xlink:href="#r" x="403.2" y="185.3"/>  <use xlink:href="#m" x="409.4" y="185.3"/>  <use xlink:href="#b" x="413.6" y="185.3"/>  <use xlink:href="#c" x="419.8" y="185.3"/>  <use xlink:href="#d" x="424.6" y="185.3"/> </g> <path d="m449.4 240.6 1.6-7.9h1.8c1.6 0 2.4.7 2.4 2 0 .6-.2 1-.5 1.5-.3.4-.7.7-1.5 1l1.3 3.3h-1l-1.3-3.2H451l-.6 3.3zm1.8-4h.9c.7-.1 1.2-.3 1.6-.6.3-.3.5-.7.5-1.2s-.2-.8-.4-1l-1.1-.1h-.9zM457.4 240.7c-.5 0-.9-.2-1.2-.5-.3-.3-.4-.9-.4-1.5s0-1 .2-1.7c0-.4.3-.9.6-1.2.2-.4.4-.7.9-.9.3-.2.7-.3 1.1-.3.4 0 .7 0 1 .3l.4.7h.2l.3-.9h.8l-1.3 5.9h-.7l.1-1.1a4 4 0 0 1-1 .8c-.2.3-.5.4-.9.4zm.3-.8.8-.3a3 3 0 0 0 .7-.8 5 5 0 0 0 .5-1.1v-.7l.2-.4c-.1-.4-.2-.7-.4-.9-.2-.2-.4-.3-.8-.3-.2 0-.5 0-.7.3l-.7.7-.4 1-.2 1.4c0 .3.1.6.3.8 0 .2.4.3.7.3zm6.1-6.2-.4-.1-.1-.4c0-.2 0-.4.2-.5l.4-.2c.4 0 .5.2.5.5 0 .2 0 .4-.2.5l-.4.2zm-2 6.9 1.2-5.9h1l-1.2 5.9zm5.2.1c-.6 0-1.2-.2-1.6-.7-.4-.3-.6-1-.6-1.6a5 5 0 0 1 .2-1.3c.2-.5.3-.9.6-1.3a3 3 0 0 1 .9-.8c.4-.3.8-.4 1.3-.4.7 0 1.2.2 1.6.6.4.4.6 1 .6 1.8 0 .3 0 .8-.2 1.2-.1.5-.3.9-.6 1.3a3 3 0 0 1-.9.9c-.3.2-.8.3-1.3.3zm0-.8c.5 0 .9-.2 1-.4.3-.2.6-.5.7-1 .3-.5.3-1.1.3-1.8l-.1-.7-.4-.4-.7-.2c-.4 0-.8.2-1 .4-.5.3-.7.7-.8 1.2l-.2 1.4c0 .6.2.8.3 1 .3.4.6.6 1 .6zm3.8.7 1.2-6h1l-.2 1.2.5-.6.6-.5.9-.1c.4 0 .8 0 1 .3.4.3.6.7.6 1.1v.6l-.3.4-.7 3.6h-1l.6-3.7.2-.4a2 2 0 0 0 0-.5c.1-.3-.2-.6-.6-.6l-.9.3c-.3.1-.5.3-.7.8l-.7 1.5-.5 2.6zm8.2.1c-.5 0-1-.1-1.1-.4-.3-.2-.4-.6-.4-1a3 3 0 0 1 0-.6v-.4l1-3.6h.9l-.9 3.7v.7l.1.6.6.2c.3 0 .5 0 .8-.3.3-.1.6-.4.8-.8.3-.4.5-1 .6-1.6l.6-2.5h1l-1.4 5.9h-.7l.1-1.1-.6.5-.6.5-.8.2zm4.5-.1 1.8-8.4h1l-1.8 8.4zM450 254h-1c-.3 0-.6-.1-.8-.3v-1l.8.5h1l1-.1.5-.5c.3-.2.4-.6.4-.8a1 1 0 0 0-.3-.8l-1-.7a6 6 0 0 1-.9-.5 2.1 2.1 0 0 1-.4-.8l-.2-.7c0-.5.1-1 .4-1.3.2-.3.5-.6 1-.7.2-.3.6-.3 1.1-.3l1.2.1.9.4-.4.8-.7-.3h-.9c-.4-.1-.8 0-1.1.2-.3.3-.4.6-.4 1v.6l.6.4.5.4.8.6a2 2 0 0 1 .6.6l.2.9c0 .8-.3 1.3-.9 1.8-.4.4-1.1.5-2 .5zm5.6 0c-.4 0-.8 0-1-.1-.3-.3-.4-.6-.4-1.1v-.8l.8-3.2h-1l.1-.4 1-.4.7-1.3h.5l-.3 1.4h1.5l-.1.7h-1.5l-.7 3.2v1.1l.6.2h.3l.4-.3v1h-.9zm1.9 0 1.2-6h.8v1.3l.4-.7.6-.6h1.4l-.2 1a3 3 0 0 0-.7-.3c-.2.1-.6.3-.9.5a3 3 0 0 0-.7 1l-.4.9-.5 2.9zm6 0c-.5 0-.9 0-1.2-.3-.3-.5-.4-1-.4-1.7s0-1 .1-1.5c.2-.5.4-1 .7-1.3.2-.4.5-.7.9-.9.3-.2.7-.3 1.2-.3.2 0 .7 0 .9.3l.5.7h.1l.3-1h.8l-1.4 6h-.6l.1-1.1a4 4 0 0 1-1 .8c-.2.3-.5.4-.9.4zm.3-.6.8-.4a3 3 0 0 0 .7-.8 5 5 0 0 0 .5-1.2v-.5l.2-.5c0-.4 0-.7-.4-1-.2 0-.4-.2-.6-.2-.4 0-.7 0-1 .2l-.6.8-.4 1-.1 1.3c0 .4 0 .7.1.9.2.2.5.3.8.3zm1.4-6.1c-.4 0-.7-.1-1-.3-.2-.2-.2-.5-.2-1v-.2h.4l.2.5.7.2c.3 0 .6 0 .8-.2a.9.9 0 0 0 .3-.5h.6c0 .6-.3 1-.6 1.2-.4.2-.7.3-1.2.3zm4.1 6.7h-1l-.7-.3v-.9l.7.3a3 3 0 0 0 1 .2c.4 0 .7-.1 1-.3.1 0 .2-.4.2-.6.1-.2.1-.4-.1-.6l-.8-.5a3.8 3.8 0 0 1-1-.7c-.2-.3-.3-.6-.3-1 0-.5.2-.9.7-1.2.2-.3.7-.4 1.3-.4h1l.8.5-.3.5h-.6l-.9-.2c-.3 0-.5 0-.7.2l-.3.6c0 .2 0 .3.2.4l.8.6.6.5.5.5.2.7c0 .6-.2 1-.6 1.3-.5.4-1 .5-1.7.5zm-1.1 2.5v-.2l.2-.5.3-.6.3-.6h1v.2l-.5.4-.3.6-.5.6zm6.8-2.5c-.7 0-1.2 0-1.6-.4-.4-.6-.4-1.1-.4-1.7a4.9 4.9 0 0 1 .6-2.7 3 3 0 0 1 1-.9c.3-.2.8-.3 1.2-.3.6 0 1 0 1.3.3.3.3.4.7.4 1s-.1.8-.5 1c0 .5-.5.7-.9.9-.7.1-1.3.2-2.1.2h-.1v.4c-.1.5-.1.8.2 1 .3.5.6.6 1.1.6l.8-.2.8-.4v.9c-.3 0-.6.2-.8.3h-1zm-1-3.3h1.4l.9-.7s.2-.3.2-.6l-.1-.4c-.2-.2-.4-.2-.6-.2-.4 0-.8.1-1 .5-.5.3-.7.7-.8 1.3zm4 3.3 1.5-6h.7l-.1 1.1.5-.5.6-.6h.9c.5 0 .8.1 1.1.3.3.3.4.7.4 1.1v.6l-.1.4-.8 3.6h-1l.8-3.7v-.5a2 2 0 0 0 0-.3c.1-.5-.1-.7-.6-.7l-.9.3-.8.8-.5 1.5-.7 2.6zm8.5-7h-.4v-1c.3-.1.5-.1.7-.1.2 0 .4.1.4.5l-.2.5-.5.2zm-2 7 1.3-6h1l-1.4 6zm0 0" style="fill:none;stroke:#fff;stroke-width:3;stroke-linecap:butt;stroke-linejoin:round;stroke-miterlimit:10;stroke-opacity:.6" transform="rotate(  340 463.195 220.454) translate(-5.8516082,-23.824405)"/> <g style="fill:#7d577d;fill-opacity:1" transform=" rotate(  340 463.195 220.454) ">  <use xlink:href="#i" x="443.1" y="216.8"/>  <use xlink:href="#b" x="449.4" y="216.8"/>  <use xlink:href="#d" x="455.6" y="216.8"/>  <use xlink:href="#f" x="458.5" y="216.8"/>  <use xlink:href="#h" x="464.7" y="216.8"/>  <use xlink:href="#j" x="471" y="216.8"/>  <use xlink:href="#k" x="477.4" y="216.8"/>  <use xlink:href="#s" x="442.1" y="230.1"/>  <use xlink:href="#g" x="447.7" y="230.1"/>  <use xlink:href="#m" x="451.3" y="230.1"/>  <use xlink:href="#r" x="455.5" y="230.1"/>  <use xlink:href="#c" x="461.7" y="230.1"/>  <use xlink:href="#n" x="466.5" y="230.1"/>  <use xlink:href="#h" x="472" y="230.1"/>  <use xlink:href="#d" x="478.3" y="230.1"/> </g> <path d="m374 263.6 1.6-7.9h1.8c1.6 0 2.4.7 2.4 2 0 .6-.2 1.1-.5 1.5-.2.4-.8.8-1.5 1l1.3 3.3h-1l-1.3-3.1h-1.2l-.6 3.2zm1.8-4h.9c.7-.1 1.2-.3 1.6-.6.3-.3.5-.7.5-1.2 0-.4-.1-.8-.4-1l-1.1-.1h-.8zM382 263.7c-.5 0-1-.2-1.2-.5-.3-.2-.4-.8-.4-1.5 0-.6 0-1 .2-1.6.1-.5.3-.9.6-1.3.2-.4.5-.7.8-.8.4-.3.8-.4 1.3-.4.3 0 .7.1.9.3l.5.7h.1l.3-.9h.9l-1.4 5.9h-.6v-1a4 4 0 0 1-1 .7c-.2.3-.5.4-1 .4zm.3-.7c.2 0 .5 0 .7-.4a3 3 0 0 0 .8-.8 5 5 0 0 0 .5-1.1v-.7l.2-.4c-.1-.4-.1-.6-.4-.9-.1-.2-.4-.3-.7-.3-.4 0-.6.1-.8.3l-.7.7-.4 1-.1 1.4c0 .3 0 .6.2.9l.7.1zm6.1-6.3-.4-.1v-.4c-.1-.2-.1-.2 0-.5 0-.1.3-.2.6-.2s.4.2.4.5c0 .2 0 .4-.2.5 0 .2-.2.2-.4.2zm-2 6.9 1.2-5.9h1l-1.2 5.9zm5.3.1c-.7 0-1.3-.2-1.7-.6-.4-.4-.5-1.1-.5-1.7a5 5 0 0 1 .1-1.3c.2-.5.4-.9.6-1.2a3 3 0 0 1 1-1c.2 0 .6-.2 1.1-.2.7-.1 1.3.1 1.7.5.4.4.6 1 .6 1.8 0 .3 0 .8-.2 1.2-.1.5-.3.9-.6 1.3a3 3 0 0 1-.8.9c-.4.2-.9.3-1.3.3zm0-.8c.4 0 .7-.1 1-.4.2-.2.5-.5.6-1 .2-.5.3-1 .3-1.7l-.1-.8s-.2-.2-.5-.4l-.6-.2c-.4 0-.8.2-1 .6-.4 0-.7.5-.8.9-.1.5-.2 1.1-.2 1.6 0 .4.1.8.4 1 .2.3.5.5.9.5zm3.7.7 1.2-6h.9l-.1 1.3.5-.7.6-.4c.3-.2.6-.2.9-.2.5 0 .8.1 1 .4.5.2.6.6.6 1v.7l-.3.3-.7 3.6h-1l.8-3.7v-.4a2 2 0 0 0 0-.5c.1-.3-.1-.6-.6-.6l-.9.3-.8.8-.5 1.6-.6 2.5zm8.2.1c-.6 0-.8-.1-1.1-.4-.3-.2-.5-.6-.5-1a3 3 0 0 1 0-.6l.2-.4.8-3.6h1l-.8 3.7-.2.7.2.6.6.3c.3 0 .6 0 .8-.4.4-.1.6-.4.9-.8l.5-1.6.6-2.5h1l-1.4 5.9h-.7l.1-1c-.3-.1-.5.2-.6.4l-.6.5-.8.2zm4.5-.1 1.9-8.4h1l-1.9 8.4zM369.2 277l1.6-8h1l2.6 6.6c-.1-.2-.1-.6.1-1l.2-1.1 1-4.5h.7l-1.4 8h-1.1l-2.6-6.5v.5l-.1.9-.2.8-1 4.3zm9.6-6.9-.4-.1v-1h.6c.3-.1.5 0 .5.4l-.2.5-.5.2zm-2 6.9 1.3-6h.9l-1.3 6zm4.2 0h-.9c-.3 0-.5-.2-.7-.3v-.9l.7.4a3 3 0 0 0 1 .1c.2 0 .6 0 .9-.3.2 0 .3-.4.3-.6 0-.2 0-.4-.2-.6l-.7-.5a3.8 3.8 0 0 1-1-.7c-.2-.3-.3-.6-.3-1s.2-.7.5-1c.4-.6.9-.6 1.5-.6h.9l.9.4-.3.8-.7-.3-.8-.1c-.3 0-.6 0-.8.2-.2.2-.2.4-.2.6l.1.4.8.6.7.5.5.5.1.7c0 .6-.2 1-.6 1.3-.4.4-1 .5-1.7.5zm2.9 2.6 1.7-8.5h.8l-.1.9 1.1-.6c0-.3.4-.4.8-.4.6 0 1 .2 1.3.5.3.3.4.8.4 1.5.1.5.1 1-.2 1.5-.1.5-.3 1-.6 1.5a3 3 0 0 1-.9.8c-.2.2-.7.2-1.2.2-.4 0-.7 0-1-.2a2 2 0 0 1-.4-.7v.5l-.4.4-.4 2.6zm3-3.3c.5 0 .7-.1 1-.3l.5-.7.4-1.1.1-1.2c.1-.8-.3-1.2-.9-1.2-.1 0-.4 0-.7.3a3 3 0 0 0-.8.7l-.5 1v1.3c-.1.4-.1.6 0 .9.3.2.6.3 1 .3zm6.3.7c-.7 0-1.2 0-1.6-.4-.4-.6-.6-1.1-.6-1.8a5 5 0 0 1 .2-1.3l.5-1.3a3 3 0 0 1 1-.8c.3-.4.6-.4 1.1-.4.8 0 1.4.2 1.8.6.3.4.4 1 .4 1.7.1.4.1.9 0 1.3 0 .5-.4.9-.6 1.4a3 3 0 0 1-1 .8c-.2.2-.6.2-1.1.2zm0-.6c.4-.1.8-.4 1-.5.3-.2.5-.6.7-.9.1-.7.1-1.2.1-1.9v-.6l-.5-.5-.5-.2c-.5 0-.8.2-1 .4l-.8 1.1c-.2.5-.2 1-.2 1.5s0 .8.3 1c.2.4.5.6 1 .6zm3.8.6 1.2-6h.8v1.3l.4-.7.6-.4c.2-.2.4-.2.7-.2h.7l-.2 1a3 3 0 0 0-.6-.2c-.4.1-.7.1-1 .4a3 3 0 0 0-.6 1l-.5 1-.6 2.8zm6.5 0c-.7 0-1.2 0-1.6-.4-.4-.5-.6-1.1-.6-1.7a4.9 4.9 0 0 1 .8-2.7 3 3 0 0 1 1-.9c.3-.2.7-.3 1.2-.3s1 0 1.2.3c.3.3.5.7.5 1s-.2.9-.4 1.2c-.2.2-.6.5-1.1.7l-2 .2h-.2v.4c0 .5.1.8.3 1.2.4.2.6.3 1 .3l.8-.1.8-.4v.9l-.8.3h-1zm-1-3.2c.5-.1 1-.1 1.4-.3l.8-.3c.2-.2.3-.5.3-.8 0-.2 0-.3-.2-.4-.1-.2-.3-.2-.6-.2s-.7.1-1 .5c-.3.3-.6.7-.7 1.4zM406.6 277l1.2-6h.9l-.1 1.2.4-.6.7-.6h.9c.4 0 .8 0 1 .3.4.3.6.7.6 1.1v.6l-.2.4-.8 3.6h-1l.6-3.7.2-.4a2 2 0 0 0 0-.4c0-.4-.2-.7-.7-.7l-.8.3c-.3.1-.5.4-.8.8l-.6 1.5-.5 2.6zm8.4-6.9-.4-.1-.1-.4.1-.6h.5c.4-.1.5 0 .5.4 0 .2 0 .4-.2.5l-.4.2zm-2 6.9 1.2-6h1l-1.3 6zm0 0" style="fill:none;stroke:#fff;stroke-width:3;stroke-linecap:butt;stroke-linejoin:round;stroke-miterlimit:10;stroke-opacity:.6" transform="rotate(  340 395.466 243.052) translate(1.2539161,-24.242377)"/> <g style="fill:#7d577d;fill-opacity:1" transform=" rotate(  340 395.466 243.052) ">  <use xlink:href="#i" x="374.8" y="239.4"/>  <use xlink:href="#b" x="381.1" y="239.4"/>  <use xlink:href="#d" x="387.3" y="239.4"/>  <use xlink:href="#f" x="390.2" y="239.4"/>  <use xlink:href="#h" x="396.4" y="239.4"/>  <use xlink:href="#j" x="402.7" y="239.4"/>  <use xlink:href="#k" x="409.1" y="239.4"/>  <use xlink:href="#z" x="370" y="252.7"/>  <use xlink:href="#d" x="377.8" y="252.7"/>  <use xlink:href="#A" x="380.6" y="252.7"/>  <use xlink:href="#B" x="385.3" y="252.7"/>  <use xlink:href="#f" x="391.7" y="252.7"/>  <use xlink:href="#m" x="397.9" y="252.7"/>  <use xlink:href="#n" x="402.1" y="252.7"/>  <use xlink:href="#h" x="407.5" y="252.7"/>  <use xlink:href="#d" x="413.9" y="252.7"/> </g> <path d="M270.3 248.6H267v-.6l1-.3v-7.4l-1-.3v-.7h3.3v.7l-1 .3v7.4l.9.2zm4.3-7.1c.9 0 1.5.2 1.9.6.4.4.6 1 .6 1.8v4.7h-.8l-.3-1-1 .9c-.4.2-.9.2-1.4.2-.6 0-1.1-.1-1.6-.5-.3-.2-.5-.8-.5-1.5s.2-1.3.8-1.7c.5-.3 1.4-.5 2.5-.5h1.2v-.5c0-.6-.1-1-.4-1.2-.2-.2-.6-.3-1-.3l-1.1.1-1 .4-.3-1a5.2 5.2 0 0 1 2.4-.5zm1.4 3.7h-1c-1 .1-1.6.3-1.9.6-.3.1-.4.5-.4.9s0 .7.3.9l1 .2c.4 0 1-.1 1.3-.5.5-.3.7-.8.7-1.5zm7.8 1.5c0 .7-.2 1.2-.7 1.5-.5.4-1.2.5-2.1.5h-1.3l-.9-.5v-.9l1 .3c.5.2.9.2 1.4.2s.8 0 1.1-.3c.3-.1.4-.4.4-.7l-.1-.5-.6-.3a9.6 9.6 0 0 0-1-.6 11 11 0 0 1-1.2-.4 2.2 2.2 0 0 1-.7-.7c-.2-.2-.3-.6-.3-1s.3-.9.7-1.3c.5-.3 1.2-.5 2-.5a5.4 5.4 0 0 1 2.1.5l-.3.9a7 7 0 0 0-1-.3 4 4 0 0 0-.9-.1c-.4 0-.8 0-1 .2-.4.1-.5.3-.5.6.1.2.1.4.2.5l.5.4 1.1.4 1.1.5.8.7.2.9zm-1.7 2.7v.1c0 .2 0 .5-.1.6a6.7 6.7 0 0 1-.9 1.4h-.7v-.2l.3-.5.2-.8v-.6zM286 239c.4 0 .5.1.6.2.1.1.2.3.2.6 0 .2-.2.4-.4.5a.7.7 0 0 1-.3.2c-.2 0-.4 0-.5-.2l-.2-.5c0-.3 0-.5.2-.6l.4-.2zm.7 2.6v7h-1.2v-7zm-.1 0" style="fill:none;stroke:#fff;stroke-width:3;stroke-linecap:butt;stroke-linejoin:round;stroke-miterlimit:10;stroke-opacity:.6" transform=" rotate(  340 277.632 245.616) "/> <g style="fill:#212121;fill-opacity:1" transform=" rotate(  340 277.632 245.616) ">  <use xlink:href="#C" x="266.5" y="248.6"/>  <use xlink:href="#D" x="270.9" y="248.6"/>  <use xlink:href="#E" x="278.2" y="248.6"/>  <use xlink:href="#F" x="284.4" y="248.6"/> </g> <path d="M336 64.8h2.2c.9 0 1.5.1 1.9.4.5.2.7.7.7 1.3 0 .5 0 .8-.3 1-.3.5-.6.5-1 .7l.8.3.6.5.1.9c0 .6-.2 1.1-.6 1.5-.4.3-1 .5-1.8.5H336zm1 3h1.3c.6 0 1 0 1.3-.3.2-.2.3-.5.3-.9s-.1-.6-.4-.8c-.3-.2-.7-.3-1.3-.3H337zm0 .8V71h1.4c.7.1 1 .1 1.3-.2.3-.3.4-.6.4-1s-.1-.7-.4-.8c-.2-.3-.7-.4-1.4-.4zm7.5-2.2c.5 0 1.1.2 1.4.6.4.2.5.6.5 1.2V72h-.6l-.2-.9c-.3.3-.6.6-.8.7l-1 .2c-.5 0-1-.1-1.3-.4-.3-.2-.4-.6-.4-1.2-.1-.4.2-1 .6-1.2.3-.3 1-.5 2-.5h.7v-.3c.1-.5.1-.8-.1-1l-.9-.2h-.8l-.6.5-.3-.8.8-.3 1-.2zm1 2.9h-.7c-.8 0-1.2.1-1.4.3-.4.2-.4.5-.4.8 0 .3 0 .6.3.7l.7.2c.4 0 .8-.1 1-.4.5-.2.6-.6.6-1.1zm.5-4.8c0 .4-.2.7-.4 1-.3.2-.7.3-1.1.3-.5 0-1 0-1.2-.3-.2-.3-.3-.6-.3-1h.5c0 .3 0 .5.3.5l.6.1h.6l.5-.7zm3 7.4h-1v-7.6h1zm3.4-.6h.4l.4-.2v.7l-.4.2h-.5l-.8-.1-.6-.5-.2-1v-3.3h-.7v-.3l.7-.4.4-1h.5v1h1.5v.8h-1.5v3.1c0 .3 0 .7.2.7l.6.3zm.2 1.2v.1l-.2.5-.3.5c0 .2-.1.4-.3.5h-.5V74l.2-.4a5 5 0 0 0 .1-.6l.1-.5zm2.1-8c.1 0 .3 0 .4.2l.1.3-.1.5-.4.2c-.1 0-.3 0-.4-.2l-.1-.4.1-.4.4-.2zm.4 2V72h-.8v-5.5zm0 0" style="fill:none;stroke:#fff;stroke-width:3;stroke-linecap:butt;stroke-linejoin:round;stroke-miterlimit:10;stroke-opacity:.6" transform=" rotate(  340 347.511 68.9006) "/> <g style="fill:#212121;fill-opacity:1" transform=" rotate(  340 347.511 68.9006) ">  <use xlink:href="#G" x="335.1" y="71.9"/>  <use xlink:href="#H" x="341.6" y="71.9"/>  <use xlink:href="#I" x="347.2" y="71.9"/>  <use xlink:href="#J" x="349.8" y="71.9"/>  <use xlink:href="#K" x="353.4" y="71.9"/> </g> <path d="M74.2 69.1h2c.9 0 1.6.2 2 .4.5.3.8.7.8 1.5-.1.3-.2.7-.5.9-.2.3-.5.5-1 .6l.9.3.5.5c.2.3.2.7.2 1 0 .5-.1.9-.6 1.3-.5.5-1 .7-1.8.7h-2.5zm.8 3h1.4c.6.1 1 .1 1.2-.1.4-.3.4-.6.4-1.1 0-.2-.2-.5-.4-.7l-1.4-.2h-1.1zm0 .9v2.5h1.5c.6 0 1-.1 1.3-.5.3 0 .4-.4.4-.9 0-.2-.2-.5-.4-.7-.3-.4-.8-.5-1.4-.5zm10.2.6c0 .9-.2 1.4-.7 2-.4.5-1 .8-1.8.8-.5 0-1-.2-1.3-.4-.3-.2-.6-.5-.9-1-.2-.2-.3-.7-.3-1.3 0-1.1.3-1.7.8-2.1.3-.6.9-.9 1.7-.9.5.1 1 .2 1.3.4.4.2.7.6.9 1 .1.4.3.9.3 1.5zm-4 0c-.1.6-.1 1.1.2 1.4.4.5.8.6 1.3.6.6 0 1-.1 1.3-.5.2-.4.3-.9.3-1.5 0-.7-.1-1.2-.4-1.6-.2-.3-.7-.5-1.2-.5s-1 .2-1.2.6c-.2.3-.4.8-.4 1.5zm7.2 2h.6v.5l-.3.2h-1.3c-.2-.3-.4-.3-.4-.7-.3-.1-.3-.5-.3-.9v-3.1h-.8v-.4l.8-.4.3-1.1h.5v1.2h1.6v.7h-1.6v3c0 .4.1.7.3.9.1.1.2.1.6.1zm6.5-2c0 .9-.3 1.4-.7 2-.5.5-1 .8-1.8.8-.5 0-1-.2-1.4-.4-.3-.2-.6-.5-.8-1-.2-.2-.3-.7-.3-1.3 0-1.1.1-1.7.7-2.1.4-.6 1-.9 1.8-.9.5.1.9.2 1.3.4.3.2.6.6.8 1 .3.4.5.9.5 1.5zm-4.1 0c0 .6.1 1.1.4 1.4.2.5.6.6 1.2.6.5 0 1-.1 1.2-.5.2-.4.3-.9.3-1.5.1-.7.1-1.2-.3-1.6-.3-.3-.7-.5-1.2-.5-.6 0-1 .2-1.2.6-.3.3-.4.8-.4 1.5zm8.9 1.2c0 .5-.2.9-.5 1.2-.4.2-1 .4-1.6.4l-1-.1-.6-.3v-.8l.7.3 1 .1c.3 0 .6 0 .8-.2.3-.1.4-.3.4-.4l-.1-.5-.4-.3a7.5 7.5 0 0 0-.8-.4 7.5 7.5 0 0 1-1-.4l-.4-.4-.3-.8c.1-.4.2-.8.6-1 .3-.3.8-.4 1.4-.4l1.1.1a4 4 0 0 1 .5.3l-.2.7-.7-.3H97c-.2.2-.3.4-.3.6 0 .1 0 .2.3.3l.3.5.8.2.9.4.5.4c.2.3.2.5.2.8zm-1.3 2v.2l-.1.4-.3.6-.4.5h-.4v-.1l.1-.5a5 5 0 0 0 .2-.5v-.5zm4.6-6c.8 0 1.3.2 1.6.4.2.3.4.8.4 1.4v3.7h-.7l-.1-.8-.9.5c-.3.3-.5.4-.9.4-.7 0-1.1-.2-1.4-.4-.2-.3-.4-.7-.4-1.2 0-.6.2-1 .7-1.3.4-.2 1-.4 2-.4h.7v-.5c.1-.3.1-.6-.2-.9l-.8-.1h-.8l-.7.4-.3-.7.9-.4.9-.1zm1.2 2.8h-.9c-.6.2-1.1.3-1.3.4-.3.2-.4.4-.4.8 0 .2 0 .5.2.6.2.2.4.2.7.2.5 0 .9 0 1.2-.3.3-.3.3-.7.3-1.3zm5-2.8c.8 0 1.1.2 1.5.5.3.3.5.7.5 1.5v3.5h-1v-3.5c.1-.8-.2-1.3-1-1.3-.7 0-1.2.2-1.3.5-.3.4-.4 1-.4 1.5v2.8h-.9v-5.4h.8v.7h.2c.1-.2.4-.5.6-.6l1-.2zm4.1-1.9.3.1.2.4c0 .2 0 .4-.2.6h-.7l-.1-.6V69h.6zm.4 2v5.4h-.9v-5.4zm0 0" style="fill:none;stroke:#fff;stroke-width:3;stroke-linecap:butt;stroke-linejoin:round;stroke-miterlimit:10;stroke-opacity:.6" transform=" rotate(  340 95.8291 73.2581) "/> <g style="fill:#212121;fill-opacity:1" transform=" rotate(  340 95.8291 73.2581) ">  <use xlink:href="#G" x="73.2" y="76.3"/>  <use xlink:href="#L" x="79.7" y="76.3"/>  <use xlink:href="#M" x="85.7" y="76.3"/>  <use xlink:href="#L" x="89.3" y="76.3"/>  <use xlink:href="#N" x="95.4" y="76.3"/>  <use xlink:href="#O" x="100.2" y="76.3"/>  <use xlink:href="#P" x="105.8" y="76.3"/>  <use xlink:href="#K" x="112" y="76.3"/> </g> <path d="M92 215c.8 0 1.5.3 2 .7.4.3.6.8.6 1.4 0 .4 0 .9-.2 1.2-.2.3-.5.6-1 .7-.2.3-.9.4-1.5.4H91v2.8h-1V215zm-.2.9h-.9v2.7h.9c.6 0 1.1 0 1.4-.3.3-.2.5-.6.5-1.1 0-.5-.2-.8-.4-1-.3-.3-.8-.4-1.4-.4zM98 216.7c.7 0 1.1.3 1.5.5.3.3.4.7.4 1.3v3.7h-.6l-.3-.8-.7.7-1 .2c-.5 0-1-.1-1.3-.4-.3-.2-.4-.7-.4-1.2s.2-1 .6-1.2c.4-.3 1-.5 2-.5h.8v-.4c0-.4 0-.6-.2-.9-.2-.2-.5-.2-.8-.2h-.8l-.8.5-.2-.8.8-.2 1-.3zm1 2.9h-.6c-.8 0-1.4.1-1.5.3-.3.2-.4.5-.4.8 0 .3 0 .5.3.7l.7.2c.4 0 .8-.1 1.1-.4.4-.2.5-.6.5-1.1zm6 1.1c0 .5 0 1-.4 1.3-.5.2-1 .3-1.6.3l-1-.1-.6-.2v-1l.6.5h2l.1-.7v-.4c-.1 0-.3-.2-.5-.3a7.5 7.5 0 0 0-.6-.3 7.5 7.5 0 0 1-1-.5c-.2 0-.4-.2-.6-.3l-.1-1c0-.3.1-.6.5-.9.4-.1.9-.4 1.5-.4l.9.1a4 4 0 0 1 .8.3l-.3.7-.7-.2-.8-.1-.8.1c-.2.1-.4.4-.4.5l.2.4.5.3.8.2.8.5c.3.1.5.3.7.5v.7zm-1.1 2.1-.3.6-.3.6s-.2.2-.3.4h-.5v-.1l.2-.5a5 5 0 0 0 .1-.5l.2-.5zM108.5 222.3c-.4 0-.9-.1-1.2-.3-.4-.2-.7-.5-1-.9l-.1-1.6c-.2-.5-.2-1.2.2-1.5.2-.5.6-.8.9-1 .4-.2.8-.3 1.3-.3l.8.1.6.2-.3.8-.5-.2-.6-.1c-1 0-1.6.7-1.6 2 0 .7 0 1.2.4 1.5.2.4.6.5 1.1.5h.8l.6-.4v.9a2 2 0 0 1-.6.2h-.8zm4.7-5.6c.8 0 1.2.3 1.5.5.3.3.3.7.3 1.3v3.7h-.5l-.2-.8-.8.7-1 .2c-.5 0-1-.1-1.2-.4-.4-.2-.5-.7-.5-1.2s.2-1 .6-1.2c.4-.3 1-.5 2-.5h.9v-.4c0-.4-.1-.6-.3-.9-.2-.2-.5-.2-.8-.2h-.8l-.8.5-.2-.8.8-.2 1-.3zm1 2.9h-.6c-.8 0-1.3.1-1.6.3-.2.2-.3.5-.3.8 0 .3.1.5.3.7l.7.2c.3 0 .8-.1 1.1-.4.3-.2.5-.6.5-1.1zM119.4 216.7c.6 0 1.1.3 1.4.5.4.3.5.8.5 1.5v3.5h-.9v-3.4c0-.9-.4-1.3-1.2-1.3-.6 0-1 .1-1.2.5-.2.3-.3.8-.3 1.4v2.8h-1v-5.4h.9v.8l.9-.7.9-.2zm4-1.9c.2 0 .3 0 .4.2l.1.4-.1.4-.4.1-.4-.1v-.8l.4-.2zm.6 2v5.4h-1.1v-5.4zm-.1 0" style="fill:none;stroke:#fff;stroke-width:3;stroke-linecap:butt;stroke-linejoin:round;stroke-miterlimit:10;stroke-opacity:.6" transform=" rotate(  340 108.63 219.193) "/> <g style="fill:#212121;fill-opacity:1" transform=" rotate(  340 108.63 219.193) ">  <use xlink:href="#Q" x="89.1" y="222.2"/>  <use xlink:href="#O" x="95.1" y="222.2"/>  <use xlink:href="#N" x="100.7" y="222.2"/>  <use xlink:href="#R" x="105.5" y="222.2"/>  <use xlink:href="#O" x="110.3" y="222.2"/>  <use xlink:href="#P" x="115.9" y="222.2"/>  <use xlink:href="#K" x="122.1" y="222.2"/> </g></svg>