<svg xmlns="http://www.w3.org/2000/svg" xmlns:xlink="http://www.w3.org/1999/xlink" viewBox="0 0 497 279"> <defs overflow="visible" style="stroke:none">  <path id="l" d="M3.7-2a6.8 6.8 0 0 1-1.9 2 4 4 0 0 1 .6.2 9 9 0 0 0 2-2.1Zm0-2h4.1v.7H3.7Zm0-1.7h4.1v1.1H3.7Zm4.9 3.1v-3.6H5.8l.4-1h3.2v-.5h-8V-5C1.3-3.4 1.2-1.2.3.4l.7.3c1-1.6 1-4 1-5.6v-2.2h3.4l-.3 1H3v3.4h2.4V0H4l.2.8L5.7.7c.3-.2.4-.4.4-.7v-2.6ZM7-1.7c.7.4 1.6 1.3 2 2l.6-.4a11.1 11.1 0 0 0-2-2Zm0-.1"/>  <path id="k" d="M7.3-8c.4 1.4 1.1 3 1.8 4l.6-.6A12 12 0 0 1 8-8.2Zm-1.8-.2c-.3 1.5-1 2.9-1.7 3.8a4 4 0 0 1 .7.4c.7-1 1.3-2.4 1.7-4ZM4-3a60 60 0 0 0-1.2-1.7v-.8H4v-.7H2.7v-2.2H2v2.2H.5v.7H2C1.6-4.2 1-2.6.3-1.8l.4.8c.5-.8 1-1.8 1.3-3V.8h.8v-4.6l.8 1.4Zm3.3.6a19 19 0 0 1 1 1.8l-2.6.1C6-1.5 6.6-3 7-4.3l-.8-.2c-.3 1.2-.9 3-1.4 4l-1 .2.2.7L8.7 0l.3.8.7-.4c-.3-.8-1-2.1-1.7-3Zm0 0"/>  <path id="j" d="M3.2-.2v-1h3.6v1Zm3.6-1.6H3.2v-1h3.6Zm-.5-2.4.6.9H3.2a10 10 0 0 0 .6-.9Zm-.8-1.4.5.8H4.2l.4-.8Zm4 1.4v-.6H6.6l-.3-.8h2.3v-.6H4.8l.2-.7h3.9v-.6H5l.2-.8h-.7l-.1.7H1v.6h3.2c0 .3 0 .6-.2.8H1.4v.6h2.4l-.4.8H.6v.6H3A7 7 0 0 1 .3-2a2 2 0 0 1 .5.5 8 8 0 0 0 1.7-1V.7h.7V.3h3.6v.4h.8v-3.3l1.6 1c0-.2.3-.5.5-.6a6 6 0 0 1-2.7-2Zm-.1 0"/>  <path d="M3.5-2h-.8v-6.2h-.6v6.3h-.7v-4.6H.8v6.2h.6v-1h2.1v.7h.6v-5.9h-.6ZM9-3.7H4.5v.7H6V.8h.7v-3.9h1.6V-1l-.1.2h-1c.3.1.4.4.4.6l1.1-.1c.2-.1.3-.3.3-.7Zm-.6-1.6h-3v.6h2.9ZM6.5-8.4C6.1-7.1 5.1-6 4.2-5.3l.3.7A7.6 7.6 0 0 0 7-7.7c.4 1.2 1.3 2.4 2.3 3.1 0-.4.2-.7.4-.9-1-.5-2-1.7-2.5-2.9Zm0 .1"/>  <path id="i" d="M7.7-8.1c-.9 1-2.3 2-3.7 2.5l.6.6c1.3-.7 2.8-1.7 3.8-2.8Zm1.7 4.4v-.8H3.3v-3.8h-.8v3.8h-2v.8h2.1v3.1c-.1.4-.3.6-.5.6l.3.7c.2-.2.6-.3 3.3-1a3 3 0 0 1 0-.7l-2.4.6v-3.3h1.5C5.6-1.7 7-.2 9.1.5c.1-.2.3-.6.5-.7a6.2 6.2 0 0 1-4-3.5Zm0 0"/>  <path id="h" d="M2.7-2A7.3 7.3 0 0 1 .5-.2l.5.6a9.6 9.6 0 0 0 2.3-2.2ZM9-2.8v-.6H5.3v-1.3h2.2v-.6h-5A11 11 0 0 0 5-7.7c1 1.2 2.7 2.5 4.2 3.2 0-.2.3-.4.4-.5a11.4 11.4 0 0 1-4.3-3.3h-.8C3.8-7.2 2.1-5.8.5-5c-.1.2.2.4.3.6l1.6-.9v.6h2.2v1.3H1v.7h3.6V0H3c.2.2.3.6.3.8.8 0 1.3 0 1.7-.2.2 0 .3-.3.3-.6v-2.7ZM6.5-1.7c.8.6 1.8 1.5 2.3 2.1l.5-.4A14.4 14.4 0 0 0 7-2Zm0 0"/>  <path id="g" d="M3.8-3.3 3.6-4l-1 .3v-2h1.1v-.7H2.6v-2h-.8v2H.6v.7h1.2v2.2L.5-3l.1.6 1.2-.3v2.5l-.1.2h-1l.2.7C1.6.7 2 .7 2.2.5c.3 0 .4-.3.4-.7V-3Zm5.5.1v-.7H7a12 12 0 0 0 0-1.6v-.3h2v-.7H7v-1.9h-.7v2H4.4v.5h1.9v.4L6.2-4H4v.8h2C5.7-1.9 5-.7 3.4.2l.5.6c1.6-1 2.4-2.1 2.7-3.4C7.2-1 8 .1 9.1.8l.5-.8c-1.2-.5-2-1.7-2.5-3.2Zm.1 0"/>  <path id="f" d="M9.5-6.3V-7H5.4v-1.4h-.8V-7h-4v.7h3.9v1.4H1.6v4.4h.7v-3.7h2.3v5h.7v-5h2.5v2.8c0 .1 0 .2-.2.2H6l.4.7L8-.6c.5-.2.6-.4.6-.8V-5H5.3v-1.3Zm0 0"/>  <path id="e" d="M5.3-3.7H7l-.6.3.8.4H5.3Zm-3.1-.5v-.7h2.4v.7Zm0-1.8h2.4v.7H2.2Zm5.6 0v.7H5.3V-6Zm0 1.8H5.3v-.7h2.5Zm-7 2 7.3-.3.7.7.5-.5a8.4 8.4 0 0 0-2.4-1.4h1.6v-2.8H5.3v-.6h3.9v-.7H5.3v-.5h-.7v.6H.8v.5h3.8v.7H1.5v2.8h3v.8H.9Zm5.4.9a7.7 7.7 0 0 0-1.7-.8l-.4.3L5.7-.7ZM1.2.6l1-2.1-.8-.2C1.3-1.2 1-.4.5 0Zm3-.6c-.8 0-.9 0-.9-.3v-1.4h-.6v1.4c0 .7.3 1 1.3 1h2.3C7.3.6 7.5.3 7.6-.8L6.9-1c.1.9-.1 1-.6 1Zm3.2-1.5C8-1 8.5-.1 8.7.4l.6-.4c-.1-.4-.7-1.2-1.1-1.7Zm.1 0"/>  <path id="d" d="M9.6-3H3.3v.4h2.2l-.3.6c.6.2 1.4.6 1.8 1l.3-.6a7.8 7.8 0 0 0-1.6-.9h3.9ZM6.9-4.4H6v-1.3h.9Zm.6-1.3h1v1.4h-1ZM5.3-4.3h-1v-1.4h1ZM3.7-6.2v2.5h5.5v-2.6H6.5l.2-.6h2.8v-.6H6.7l.1-.9H6v.9H3.3v.5h2.6v.8ZM2.5-8.4C2-7.7 1-6.8.4-6.3l.4.6c.8-.7 1.7-1.6 2.3-2.4Zm.1 2.2A11.8 11.8 0 0 1 .3-3.1l.5.7 1-1.2V.8h.7v-5.4L3.3-6ZM3.4.6c.6-.5.9-1.2 1-2h-.6c-.1.4-.4 1.2-1 1.6ZM6 0c-.4 0-.4 0-.4-.2v-1.4h-.7v1.4c0 .7.1.8 1 .8H7c.7 0 1-.2 1-1.1l-.6-.3c0 .7-.1.8-.4.8Zm1.7-1.4C8.3-.8 8.8 0 9 .6l.6-.5C9.4-.3 8.8-1 8.3-1.7Zm0 0"/>  <path id="a" d="M8.1-4.7a14 14 0 0 1-1.8 1.5c-.5-.8-.9-1.8-1.2-3l.1-.2h3.1v1.3h.8V-7H5.5a20 20 0 0 0 .3-1.2L5-8.4c0 .5-.2.9-.3 1.4H1v2h.7v-1.4h2.7c-.8 1.8-2 3-4 3.7a4 4 0 0 1 .4.7 8 8 0 0 0 1.8-1v2.5c0 .3-.3.5-.6.5l.4.8L5.7-.3V-1l-2.5.7v-3.2c.6-.5 1.1-1 1.5-1.8.8 2.8 2.1 4.8 4.3 6l.6-.7c-1.2-.6-2.2-1.5-3-2.6.7-.4 1.5-1 2.1-1.6Zm0 0"/>  <path id="c" d="M2.9-3.9h4.4v1.1H2.9Zm4.4-3.3v1H2.9v-1ZM2.9-5.5h4.4v1H2.9Zm6.5 3.4v-.7H8v-5H2.2v4.9H.6v.8h2.8L2-.6l-.8.3a4 4 0 0 1 .2.9C1.8.3 2.4.3 8 0l.5.8.7-.4a17.3 17.3 0 0 0-2.4-2.3l-.8.2L7.3-.5l-4.8.2a14 14 0 0 0 1.9-1.8Zm0 0"/>  <path id="b" d="M1.6-6.6h6.8v1.4h.8v-2.1H5.4v-1h-.8v.9H.9v2.2h.7ZM6.8-4C6.5-2.9 6-2 5.3-1.5A31 31 0 0 0 3-2.3l1-1.6Zm2.5.1v-.7H4.2L5-6l-.8-.2-.8 1.6H.6v.7H3c-.4 1-1 1.9-1.3 2.4l.8.2.2-.4 2 .7c-1 .6-2.3 1-3.9 1a3 3 0 0 1 .5.8C3 .5 4.4 0 5.5-.7 6.7-.2 7.7.3 8.4.8l.5-.6c-.7-.5-1.7-1-2.8-1.4C6.8-2 7.3-2.7 7.6-4Zm.1 0"/>  <path d="M1.6-4H4v1H1.6Zm0-1.1H4v.7H1.6ZM3-2.5h1.7v-2.6l.5.4c.4-.3.8-1 1-1.5h3.3v-.7h-3l.4-1.3-.7-.2C5.9-7.2 5.4-6 4.7-5.2v-.6H3.1v-.9H5v-.6H3.1v-1h-.7v.9H.6v.7h1.8v.9H1v3.3h1.4v.8h-2v.7h2.1V.8h.6V-1h2v-.7H3ZM6.5-.1C6.2 0 6 0 6-.4s.2-.8 2.8-4l.2-.1-.6-.2h-3v.7h2.3C5.3-1.2 5.2-.7 5.2-.3c0 .6.4 1 1.3 1h2c.8-.1 1-.4 1.1-2.1L9-1.5C9-.3 8.9-.1 8.5-.1Zm3-.4H1.7V-7h7.5v-.8H1V.8h.7V.2h7.8ZM8.2-1.9a15.2 15.2 0 0 0-1.9-2l1.4-2.6-.6-.2a14 14 0 0 1-1.6 2.3A27.8 27.8 0 0 0 3.2-6l-.4.5c.7.5 1.5 1 2.3 1.7-.9.8-1.8 1.7-2.8 2.3A7 7 0 0 1 3-1c1-.6 1.8-1.4 2.6-2.3.9.7 1.6 1.3 2 2Zm-.8-.9v2.4H2.6v-2.4ZM1.8.8h.8V.3h4.8v.4h.8v-4.2H1.8Zm4.4-7.6 1.3 1.2a279 279 0 0 1-4.5.2 26 26 0 0 0 1.7-2.7l-.9-.3c-.4 1-1 2.2-1.6 3H.7v.9l7.5-.4.7.9.6-.4c-.5-.8-1.7-2-2.7-2.8ZM7.7-.1c-.4 0-.4 0-.4-.4v-5.3h-3v-2.5h-.8v2.5H.8v.7h2.7C3.3-2.8 2.6-.9.4.2l.5.6C3.3-.5 4-2.6 4.2-5.1h2.3v4.6c0 .9.3 1.1 1 1.1h1.2c.8 0 1-.4 1-1.8L9-1.5C9-.3 9-.1 8.7-.1ZM1 1.2h8v-10H1Zm4-5.4L1.8-8.3h6.4Zm.3.4 3.2-4v8ZM1.8.7l3.2-4L8.2.6Zm-.3-8.6 3.2 4.1L1.5.3Zm0 0"/> </defs> <image xlink:href="svg/9/42_5.jpg" width="497" height="279"/> <path d="M246.4 184a14 14 0 0 1-1.8 1.5c-.6-.9-1-2-1.2-3v-.3h3.3v1.4h.6v-2h-3.6a20 20 0 0 0 .4-1.2l-.8-.1-.3 1.3h-3.8v2h.8v-1.4h2.7c-.8 1.9-2.1 3-4.1 3.8a4 4 0 0 1 .6.6 8 8 0 0 0 1.6-.9v2.4c0 .4-.2.6-.4.7l.3.6c.2-.1.6-.3 3.3-1l-.1-.9-2.3.8v-3.2c.4-.5 1-1 1.3-1.7.8 2.7 2.2 4.8 4.4 5.8l.6-.6c-1.3-.5-2.3-1.4-3-2.5.7-.5 1.5-1.1 2-1.6zm3.5-2h6.7v1.5h.8v-2.2h-3.8v-1h-.6v1h-4v2.2h1zm5.1 2.8c-.3 1-.7 1.8-1.4 2.2a31 31 0 0 0-2.3-.6l.8-1.6zm2.7 0v-.8h-5.2l.7-1.4-.7-.1-.8 1.5h-2.8v.8h2.4l-1.3 2.4.7.2.3-.5 2 .7c-1 .6-2.4 1-4 1.2a3 3 0 0 1 .6.6c1.7-.3 3.1-.7 4.1-1.4 1.3.4 2.3 1 3 1.4l.4-.6c-.6-.4-1.6-1-2.7-1.4.6-.6 1.2-1.4 1.5-2.6zm3.4 0h4.4v1h-4.4zm4.4-3.4v1h-4.4v-.9zm-4.4 1.7h4.4v1h-4.4zm6.6 3.4v-.5h-1.4v-5.2h-5.9v5H259v.8h2.7l-1.5 1.4-.7.4a4 4 0 0 1 .2.7l6.4-.4.7.7.6-.3a17.3 17.3 0 0 0-2.4-2.4l-.6.3 1.2 1-4.8.3a14 14 0 0 0 1.8-1.8zm0 0" style="fill:none;stroke:#fff;stroke-width:3;stroke-linecap:butt;stroke-linejoin:round;stroke-miterlimit:10;stroke-opacity:.6" transform=" rotate(  340 253.259 185.647) "/> <g style="fill:#212121;fill-opacity:1" transform=" rotate(  340 253.259 185.647) ">  <use xlink:href="#a" x="238.3" y="188.6"/>  <use xlink:href="#b" x="248.3" y="188.6"/>  <use xlink:href="#c" x="258.3" y="188.6"/> </g> <path d="M352.8 156.6h-6.3v.7h2.3l-.3.4c.5.2 1.3.6 1.7 1l.4-.7a7.8 7.8 0 0 0-1.7-.7h4.1zm-2.6-1.2h-1v-1.3h.9zm.5-1.3h1v1.3h-.9zm-2.1 1.3h-1v-1.3h1zm-1.6-1.9v2.5h5.4v-2.5h-2.6l.1-.7h2.9v-.6H350v-.8h-.6v.7h-3v.7h2.8l-.2.7zm-1.3-2.1c-.5.6-1.3 1.5-2 2-.1.3.3.6.3.6l2.4-2.4zm.2 2.1a11.8 11.8 0 0 1-2.3 3.2l.4.6 1-1.1v4.3h.7v-5.3l.8-1.4zm.8 6.9c.5-.5.8-1.4 1-2l-.7-.2c0 .8-.4 1.4-.9 1.8zm2.5-.6c-.3 0-.4 0-.4-.3v-1.3h-.7v1.3c0 .7.2.9 1 .9h1.3c.6 0 .8-.4.8-1.2l-.6-.3c0 .8 0 .9-.3.9zm1.8-1.4c.5.5 1 1.4 1.3 1.9l.6-.3c-.3-.6-.9-1.4-1.4-2zm7.6-2.4h1.4l-.3.4.8.4h-2zm-3.2-.5v-.5h2.4v.5zm0-1.8h2.4v.7h-2.4zm5.6 0v.7h-2.4v-.7zm0 1.8h-2.4v-.5h2.4zm-7 2 7.5-.1.5.5.5-.4a8.4 8.4 0 0 0-2.3-1.5h1.6v-2.8h-3.2v-.6h3.9v-.6h-4v-.6h-.6v.6H354v.6h3.8v.6h-3v2.8h2.9v.8H354zm5.6 1.1a7.7 7.7 0 0 0-1.8-1l-.5.2c.7.4 1.3.9 1.7 1.3zm-5.1 1.6c.2-.5.6-1.3.8-2l-.6-.2c-.2.6-.5 1.4-.9 2zm2.8-.5c-.6 0-.7 0-.7-.3V158h-.6v1.4c0 .8.2 1 1.3 1h2.3c.9 0 1.1-.4 1.2-1.4-.2 0-.5 0-.6-.3 0 1-.2 1-.7 1zm3.5-1.5c.4.6 1 1.4 1.1 2l.7-.4c-.2-.4-.7-1.2-1.2-1.8zm11.9-4.7v-.7h-4v-1.5h-1v1.5h-3.9v.7h4v1.3h-3v4.5h.7v-3.8h2.3v5h.8v-5h2.4v2.8c0 .2 0 .2-.2.2h-1.4l.2.7 1.8-.1c.3-.1.4-.3.4-.8v-3.5h-3.2v-1.3zm0 0" style="fill:none;stroke:#fff;stroke-width:3;stroke-linecap:butt;stroke-linejoin:round;stroke-miterlimit:10;stroke-opacity:.6" transform=" rotate(  340 358.25 156.741) "/> <g style="fill:#212121;fill-opacity:1" transform=" rotate(  340 358.25 156.741) ">  <use xlink:href="#d" x="343.3" y="159.7"/>  <use xlink:href="#e" x="353.3" y="159.7"/>  <use xlink:href="#f" x="363.3" y="159.7"/> </g> <path d="M413.6 31v-.7l-1.3.3v-2h1.3v-.7h-1.2v-2h-.7v2h-1.2v.7h1.2v2.2l-1.4.2.2 1 1.2-.5v2.6c0 .1 0 .2-.2.2h-1l.4.6 1.1-.1c.3-.1.4-.3.4-.7v-2.8zm5.7 0v-.6h-2.5a12 12 0 0 0 0-1.7v-.2h2.2v-.7h-2.1v-2h-.9v2.1h-1.7v.6h1.7v1.9h-2.2v.6h2.1c-.3 1.3-1 2.5-2.7 3.5l.6.5c1.5-1 2.2-2.1 2.7-3.3.5 1.5 1.3 2.6 2.5 3.3l.5-.6c-1.2-.6-2-1.8-2.5-3.4zM422.5 32.2a7.3 7.3 0 0 1-2.2 2c.2-.1.5.2.7.3a9.6 9.6 0 0 0 2.2-2.1zm6.5-.6v-.7h-3.8v-1.3h2.2v-.7h-5.1a11 11 0 0 0 2.5-2.3c1 1.2 2.7 2.5 4.2 3.2l.5-.7a11.4 11.4 0 0 1-4.3-3.1h-.8c-.8 1.1-2.4 2.5-4.1 3.3l.4.5 1.5-.8v.6h2.3v1.3h-3.6v.7h3.6V34c0 .3-.1.3-.3.3H423l.2.7h1.6c.3-.2.4-.4.4-1v-2.4zm-2.6 1c.8.5 1.8 1.4 2.2 1.9l.6-.2a14.4 14.4 0 0 0-2.2-2.1zm13-4.6v-.7h-4.2v-1.5h-.8v1.5h-4v.7h4v1.3h-2.9v4.5h.7V30h2.3v5h.7v-5h2.5v2.8c0 .2-.1.2-.3.2H436l.2.7h1.8c.3-.3.4-.5.4-1v-3.4h-3.2V28zm0 0" style="fill:none;stroke:#fff;stroke-width:3;stroke-linecap:butt;stroke-linejoin:round;stroke-miterlimit:10;stroke-opacity:.6" transform=" rotate(  340 424.869 31.2545) "/> <g style="fill:#212121;fill-opacity:1" transform=" rotate(  340 424.869 31.2545) ">  <use xlink:href="#g" x="409.9" y="34.3"/>  <use xlink:href="#h" x="419.9" y="34.3"/>  <use xlink:href="#f" x="429.9" y="34.3"/> </g> <path d="M335.4 240.6c-.8 1-2.3 2-3.7 2.4l.6.7c1.4-.6 3-1.6 3.9-2.7zm1.8 4.4v-.7H331v-3.9h-.7v3.9h-2v.7h2.1v3.2c-.1.4-.4.5-.5.6l.3.6 3.3-1a3 3 0 0 1 0-.7l-2.5.6V245h1.6c.8 2 2.2 3.5 4.3 4.2 0-.2.3-.5.5-.7a6.2 6.2 0 0 1-4-3.5zm3.8 3.5v-1h3.6v1zm3.6-1.5H341v-1h3.6zm-.5-2.4.5.8H341a10 10 0 0 0 .6-.8zm-.8-1.4.4.8H342l.3-.8zm4 1.4v-.6h-2.9l-.4-.8h2.4v-.6h-3.8l.2-.8h3.9v-.6h-3.8v-.8h-.5l-.4.7h-3v.7h3l-.2.8h-2.6v.6h2.4l-.6.8h-2.7v.6h2.4a7 7 0 0 1-2.6 2 2 2 0 0 1 .5.8 8 8 0 0 0 1.7-1.4v3.5h.7v-.5h3.6v.4h.8v-3.3c.4.4 1 .8 1.5 1l.5-.6a6 6 0 0 1-2.4-2zm10-2.1v-.8H353v-1.4h-.6v1.4h-4v.8h3.9v1.3h-2.9v4.5h.6v-3.8h2.4v5h.6v-5h2.6v2.8c0 .1 0 .2-.3.2H354l.1.7 1.9-.1c.2-.1.3-.4.3-.8v-3.5h-3.2v-1.3zm0 0" style="fill:none;stroke:#fff;stroke-width:3;stroke-linecap:butt;stroke-linejoin:round;stroke-miterlimit:10;stroke-opacity:.6" transform=" rotate(  340 342.775 245.721) "/> <g style="fill:#976e94;fill-opacity:1" transform=" rotate(  340 342.775 245.721) ">  <use xlink:href="#i" x="327.8" y="248.7"/>  <use xlink:href="#j" x="337.8" y="248.7"/>  <use xlink:href="#f" x="347.8" y="248.7"/> </g> <path d="M60.4 90c.6 1.6 1.1 3.2 1.8 4l.6-.6A12 12 0 0 1 61 90zm-1.8 0c-.3 1.3-.9 2.7-1.7 3.6a4 4 0 0 1 .7.5c.8-1.1 1.4-2.5 1.7-4.1zm-1.4 5a60 60 0 0 0-1.2-1.6v-.9h1.2v-.7h-1.3v-2.1h-.7v2.1h-1.5v.7H55c-.3 1.4-1 3-1.6 3.8.2.1.3.4.4.6.5-.6 1-1.7 1.4-2.8v4.7h.7v-4.6l.9 1.5zm3.3.7a19 19 0 0 1 1 1.7l-2.8.2 1.4-3.9-.8-.2c-.3 1.3-.9 3-1.4 4.1H57l.1.9 4.7-.4.3.7.7-.3c-.3-.9-1-2.2-1.8-3.1zm6.4.3a6.8 6.8 0 0 1-2 2 4 4 0 0 1 .6.3 9 9 0 0 0 2-2.1zm0-2h3.9v.8H67zm-.1-1.6h4v1H67zm4.8 3.1v-3.7H69l.3-.9h3.2v-.7h-8v2.9c0 1.6-.1 3.7-1 5.3.2 0 .5.3.5.4 1.1-1.6 1.1-4 1.1-5.8v-2h3.4l-.3.9H66v3.5h2.5V98c0 .1 0 .2-.2.2h-1.2l.2.6 1.6-.1c.1-.1.3-.3.3-.7v-2.6zm-1.5.7c.7.7 1.6 1.5 1.9 2.1l.7-.3a11.1 11.1 0 0 0-2-2zm12.5-4.4V91h-4.1v-1.4h-.8v1.5h-4v.7h4V93h-3v4.6h.7v-3.8h2.3v5h.8v-5h2.4v2.8c.1.2.1.2-.2.2h-1.5l.3.7 1.7-.1c.4-.1.5-.3.5-.8v-3.5h-3.2v-1.3zm0 0" style="fill:none;stroke:#fff;stroke-width:3;stroke-linecap:butt;stroke-linejoin:round;stroke-miterlimit:10;stroke-opacity:.6" transform=" rotate(  340 68.1188 95.0436) "/> <g style="fill:#976e94;fill-opacity:1" transform=" rotate(  340 68.1188 95.0436) ">  <use xlink:href="#k" x="53.1" y="98"/>  <use xlink:href="#l" x="63.1" y="98"/>  <use xlink:href="#f" x="73.1" y="98"/> </g></svg>