<svg xmlns="http://www.w3.org/2000/svg" xmlns:xlink="http://www.w3.org/1999/xlink" viewBox="0 0 497 279"> <defs overflow="visible" style="stroke:none">  <path id="d" d="M2.3.1c-.5 0-1-.1-1.2-.5-.4-.4-.5-1-.5-1.7 0-.6 0-1.1.2-1.7l.7-1.4 1-1c.3-.2.8-.3 1.2-.3.5 0 .8 0 1 .3l.8.8.3-1h.8L5.2 0h-.8l.1-1.2-1 1a2 2 0 0 1-1.2.2Zm.4-.8c.3-.1.5-.3.8-.4.3-.2.6-.5.8-.9l.5-1.2.2-.6v-.6c0-.3-.1-.6-.3-.9-.2-.2-.5-.4-.9-.4-.3 0-.6.1-.8.3l-.7.8-.5 1.2L1.7-2c0 .4 0 .7.2 1 .2 0 .4.2.8.2Zm0-.1"/>  <path id="c" d="m.3 0 1.4-6.4h1l-.4 2.7h2.9l.6-2.8h1L5.6 0H4.5L5-2.9H2L1.4 0Zm0 0"/>  <path id="b" d="M3 .1C2.1.1 1.5 0 1.1-.5.8-1 .6-1.5.6-2.3c0-.5 0-1 .2-1.5.1-.5.4-1 .6-1.4l1-1c.5-.2 1-.3 1.5-.3s.9 0 1.3.3c.3.3.4.7.4 1.2 0 .4-.1.8-.4 1-.2.5-.6.8-1.2 1l-2 .1h-.3v.6c-.1.3-.1.8.3 1.1.2.3.6.4 1 .4h1l.8-.5v1c-.3 0-.6.2-.8.3L3 .1ZM1.7-3.6H2c.4 0 1 0 1.2-.2.4 0 .8-.2 1-.4.3-.2.4-.4.4-.8 0-.2 0-.3-.2-.5l-.7-.2c-.4 0-.7.2-1 .7-.5.2-.7.7-1 1.4Zm.1 0"/>  <path id="a" d="M.4.1h-.5A2 2 0 0 1-.4 0v-1l.4.3h.2C.5-.8.7-.8.8-1c.2 0 .4-.2.6-.5l.5-1.1a63 63 0 0 0 .8-2.8L3.2-7l.4-1.6h4.2L6 0H5l1.5-7.6H4.4L4-6.3c0 .5-.2 1-.4 1.3A114.5 114.5 0 0 1 3-2.3 9 9 0 0 1 2.3-1c-.3.4-.5.6-.8.8C1.2 0 .8.1.4.1Zm0 0"/>  <path d="M1.1 0v-8.6h5V0Zm.6-.6h3.8V-8H1.7Zm0 0"/> </defs> <image xlink:href="svg/9/43_43.jpg" width="497" height="279"/> <path d="M161.5 131.7h-.4a2 2 0 0 1-.3-.1v-1l.2.3h.4c.2-.1.4-.1.6-.3.2 0 .3-.2.5-.5l.5-1.1a63 63 0 0 0 1-2.8l.3-1.6.4-1.6h4.3l-1.8 8.6H166l1.7-7.6h-2.2l-.3 1.3-.4 1.4a114.5 114.5 0 0 1-.8 2.6 9 9 0 0 1-.6 1.3c-.2.4-.4.7-.7.8-.3.2-.7.3-1.2.3Zm10.4 0c-.9 0-1.4-.2-1.9-.6-.3-.5-.5-1.1-.5-1.8 0-.5 0-1 .2-1.5l.7-1.4 1-1c.4-.2.8-.3 1.3-.3.6-.1 1.1-.1 1.4.3.3.3.5.7.5 1.2 0 .4-.2.8-.4 1.1-.3.3-.7.6-1.2.8-.6.2-1.3.3-2.2.3h-.2v.5c0 .4.1.7.3 1.1.3.3.6.6 1.1.6.3-.1.6-.1 1-.3l.8-.3v.9l-.9.3-1 .1Zm-1.1-3.7c.6 0 1.1 0 1.5-.2.3 0 .6-.2.9-.4.2-.2.3-.4.3-.8 0-.2 0-.3-.2-.5l-.6-.1c-.4 0-.8.1-1.1.5-.4.3-.7.8-.8 1.5Zm4.5 3.6 1.3-6.4h1l-.4 2.7h2.9l.7-2.7h.9l-1.2 6.4h-1.1l.6-2.9h-3l-.8 2.9Zm9.2.1c-.6 0-1-.2-1.3-.5-.2-.4-.5-1-.5-1.7 0-.5.1-1.1.3-1.7 0-.5.3-1 .6-1.4l1-1c.4-.2.8-.3 1.3-.3.4-.1.7-.1 1 .3.3.2.5.5.6.8l.5-1h.7l-1.3 6.4h-.9l.2-1.2-1.1 1a2 2 0 0 1-1.1.2Zm.3-.7c.3-.1.6-.3.9-.5.3-.2.5-.5.7-.9.3-.3.6-.6.6-1.2v-1.2c.1-.2.1-.7-.2-.9-.2-.2-.5-.4-.8-.4l-1 .3-.6.8-.4 1.2-.2 1.4c0 .4 0 .7.3 1 .1 0 .4.2.7.2Zm0-.1" style="fill:none;stroke-width:2;stroke-linecap:butt;stroke-linejoin:round;stroke:#fff;stroke-opacity:.6;stroke-miterlimit:10" transform=" rotate(  340 175.544 128.601) "/> <g style="fill:#4d80b3;fill-opacity:1" transform=" rotate(  340 175.544 128.601) ">  <use xlink:href="#a" x="161.2" y="131.6"/>  <use xlink:href="#b" x="168.9" y="131.6"/>  <use xlink:href="#c" x="174.9" y="131.6"/>  <use xlink:href="#d" x="182.1" y="131.6"/> </g></svg>