<svg xmlns="http://www.w3.org/2000/svg" xmlns:xlink="http://www.w3.org/1999/xlink" viewBox="0 0 497 279"> <defs overflow="visible" style="stroke:none">  <path id="y" d="M2 0c-.6 0-.9 0-1.2-.3C.6-.7.5-1 .5-1.7c0-.5 0-1 .2-1.5l.5-1.1c.2-.4.5-.7.8-.9a2 2 0 0 1 1.1-.3c.4 0 .6.1.9.3l.5.7.3-.9h.7L4.4 0h-.7l.1-1c-.3.3-.5.6-.9.8-.3.2-.6.2-.9.2Zm.1-.5c.4-.1.6-.2.9-.5l.6-.6a4 4 0 0 0 .4-1 3 3 0 0 0 .1-.7 4 4 0 0 0 0-.4c.1-.3.1-.5-.1-.7-.3-.2-.5-.3-.8-.3-.3 0-.5 0-.7.2a2 2 0 0 0-.6.7l-.4 1-.1 1.1c0 .4 0 .6.2.8.1.2.3.3.6.3Zm.1-.1"/>  <path id="x" d="m.3 0 1.1-5.4h.7v1l.4-.5.6-.4.7-.2c.4 0 .7.2.9.5.2 0 .3.4.3.7l.5-.5.6-.5.9-.2c.3 0 .6.2.9.5.1 0 .2.4.2.9v.4l-.1.4L7.4 0h-.9l.7-3.4v-.4l.2-.2c-.1-.3-.1-.4-.3-.5 0-.2-.1-.2-.5-.2-.2 0-.4 0-.6.2l-.7.8c-.3.3-.4.7-.5 1.3L4.3 0h-1l.9-3.4v-1.1c-.4-.2-.5-.2-.8-.2-.1 0-.3 0-.6.2l-.6.8c-.3.3-.4.7-.5 1.4L1.2 0Zm0 0"/>  <path id="w" d="m-.2 2.4 1.6-7.8h.7v1l.7-.6c.3-.3.7-.5 1-.5.5 0 .8.2 1 .5.5.3.6.8.6 1.4-.1.5-.1 1-.3 1.4L4.6-1l-.8.8a2 2 0 0 1-1.1.3C2.3 0 2 0 1.8-.2a2 2 0 0 1-.5-.6v.4L1 .1.7 2.4Zm2.8-3c.4 0 .5-.1.7-.4.3 0 .5-.3.7-.6a4 4 0 0 0 .3-1 5 5 0 0 0 .1-.9c0-.9-.3-1.2-.9-1.2-.2 0-.4 0-.5.2l-.8.7-.4 1c-.2.3-.2.7-.2 1.1 0 .3 0 .6.2.8.2.2.5.3.8.3Zm0 0"/>  <path id="v" d="m-.6 0 4-7.1h.8L5 0h-.7L4-2.2H1.6L.4 0ZM2-3h1.9l-.2-1.5v-1.7h-.2a14 14 0 0 1-.3.8l-.4 1Zm0 0"/>  <path id="u" d="M2.4 0c-.6 0-1 0-1.4-.2C.8-.5.6-.9.6-1.4V-2a5 5 0 0 1 .2-.4l.6-3h.9L1.8-3l.5-.1h.5c.6-.1 1-.1 1.2.2.3.4.5.7.5 1.1s-.1.8-.3 1.1c-.1.2-.4.4-.7.5-.3.2-.7.3-1.1.3ZM5 0l1-5.4h1L5.8 0ZM2.4-.6c.4 0 .7-.1.9-.4a1 1 0 0 0 .3-.7l-.3-.6-.7-.1h-1v.6l-.2.3c.1.3.1.5.3.5.1.3.4.4.7.4Zm0 0"/>  <path id="t" d="M2 0H1L.5-.5C.3-.7.2-.9.2-1.3c.1-.3.1-.6.4-.7l.6-.7L2-3a6 6 0 0 0 1-.5c.3-.2.4-.5.4-.7l-.1-.4-.7-.1a3 3 0 0 0-.7 0c-.2.3-.5.3-.7.4L1-5l.8-.3 1-.2c.4 0 .8.1 1 .3.4.2.6.6.6 1-.1.3-.1.6-.4.8a2 2 0 0 1-.6.4l-.8.5c-.3 0-.5.2-.8.3l-.5.4-.2.5c0 .2.1.3.3.5l.6.2c.4 0 .6 0 1-.2l.6-.2v.7L3 0a4 4 0 0 1-1.1 0Zm0 0"/>  <path id="s" d="m.3 0 1.1-5.4h.9L1.8-3h2.5l.5-2.4h.9L4.6 0h-1l.7-2.4H1.7L1.2 0Zm0 0"/>  <path id="r" d="M.2 0h-.4v-.7H0l.5-.1.4-.7c0-.2.1-.4.3-.5l.6-.4c-.3-.1-.6-.3-.8-.6a1.4 1.4 0 0 1-.2-.7c0-.3.2-.9.6-1.2.3-.3.9-.5 1.6-.5h2L4 0H3l.5-2.1h-.7c-.3 0-.5 0-.7.1l-.4.8-.4.7-.4.4-.7.2Zm2.5-2.8h1L4-4.6H2.8c-.3 0-.6 0-.8.3-.2.1-.3.3-.3.6s.1.7.3.7h.7Zm0-.1"/>  <path id="q" d="m-.8 1.9.5-2.7h.5l1-1.4a24.6 24.6 0 0 0 1.5-3.4L3.3-7h3L4.8-.8h1l-.6 2.7h-.8L4.8 0H.4L0 1.9Zm2-2.7H4l1.2-5.5H4L3.5-5A26 26 0 0 1 2-2L1.2-.8Zm0 0"/>  <path id="p" d="M.3-2.3.4-3h2.4l-.2.7Zm0 0"/>  <path id="o" d="M0 0h-.4v-.8l.3.1C0-.7.3-.7.4-.9l.6-.7.3-1.2.5-1.1.4-.9.8-.5h1a4.5 4.5 0 0 1 1 .1L4 0h-.9l1-4.6h-1l-.5.8-.5 1.3L1.5-1c-.1.3-.3.6-.5.8C.7 0 .4 0 0 0Zm0 0"/>  <path id="n" d="M2.5 0C1.9 0 1.4 0 1-.3.7-.7.5-1.2.5-2c0-.4 0-1 .2-1.3l.5-1c.3-.5.6-.7 1-1 .2-.1.6-.2.9-.2l.9.1.6.2-.2.7-.5-.1-.6-.1c-.4 0-.7.1-1 .4-.3.2-.5.6-.7 1A4 4 0 0 0 1.4-2c0 .5 0 .8.3 1 .2.2.5.3.9.3h.6a7 7 0 0 0 .6-.3v.8l-.6.2h-.7Zm0 0"/>  <path id="m" d="M2.4 0c-.6 0-1 0-1.4-.3C.6-.8.5-1.3.5-2c0-.3 0-.8.2-1.2 0-.4.3-.8.5-1.1.2-.4.5-.7.8-.8a2 2 0 0 1 1.2-.4c.5 0 .8.2 1.1.5.3 0 .4.4.4.8 0 .3-.1.7-.3 1-.4.2-.6.4-1 .6-.6.2-1.2.3-1.9.3h-.1v.3c0 .5 0 .8.3 1 .2.3.5.4.9.4l.7-.1A5 5 0 0 0 4-1v.7a6 6 0 0 1-.7.3h-.9Zm-.9-3 1.3-.1.7-.4c.2-.1.3-.4.3-.5l-.1-.6-.7-.1c-.2 0-.5.1-.9.4L1.6-3Zm0 0"/>  <path id="l" d="M.4 0 2-7.1h3.5l-.1.8H2.7l-.5 2.2h.7c.6 0 1 0 1.3.1l.7.8a2 2 0 0 1 .1.9c0 .5-.1 1-.3 1.3-.2.3-.6.6-1 .8a4 4 0 0 1-1.5.2Zm1-.8h1.1C3.6-.8 4-1.3 4-2.3c.1-.4.1-.7-.2-.7-.2-.3-.5-.3-1-.3H2Zm.1 0"/>  <path d="M1 0v-7.1h4V0Zm.4-.5h3.1v-6.1h-3Zm.1 0"/>  <path id="k" d="m.3 0 1.4-6.4h.9l-.2 1.2h.1l.5-.6.7-.5a2 2 0 0 1 .9-.2c.4 0 .7 0 1 .3.2.3.4.6.4 1a4 4 0 0 1 .7-.5l.7-.6a2 2 0 0 1 .9-.2c.5 0 .7 0 1.1.4.3.1.4.6.4 1.1v.6l-.1.4-.8 4H7.8l.9-4v-1.4L8-5.7l-1 .3c-.2.2-.4.5-.7 1A5 5 0 0 0 5.7-3l-.6 3h-1l.8-4 .1-.8c0-.3 0-.5-.2-.6 0-.2-.3-.3-.5-.3l-.9.3c-.3.2-.6.5-.8 1-.3.4-.6.9-.6 1.5L1.4 0Zm0 0"/>  <path id="j" d="M2.8.1C2.2.1 1.7 0 1.3-.3 1-.6.7-1.1.7-1.7a5 5 0 0 1 .1-.6l.2-.6.6-3.5h1.1l-.6 2.8.6-.1h.7c.6-.1 1.1-.1 1.4.3.4.3.5.8.5 1.3 0 .4 0 .8-.2 1.1a2 2 0 0 1-.8.8c-.4.2-.9.3-1.5.3ZM6 0l1.3-6.4h1L7 0ZM2.9-.8c.5 0 .9 0 1-.2.4-.4.5-.7.5-1-.1-.3-.2-.6-.4-.7C3.8-3 3.5-3 3-3a6 6 0 0 0-.4 0 7 7 0 0 0-.7.2v.6l-.2.4c.1.3.1.6.3.8.2.2.5.3 1 .3Zm0 0"/>  <path id="i" d="m-.3 2.9 2-9.3h.9l-.2 1.2a5 5 0 0 1 1.1-1 2 2 0 0 1 1.1-.3c.5 0 1 .1 1.4.5.2.4.4 1 .4 1.7 0 .5-.1 1.1-.4 1.6 0 .7-.2 1-.5 1.5l-1 1c-.4.2-.8.2-1.3.2-.4.1-.8.1-1-.2a2.3 2.3 0 0 1-.6-.8A12.4 12.4 0 0 1 1.3.1L.8 3ZM3.1-.7c.4-.1.7-.3 1-.4l.5-.8.5-1.1.2-1.4c0-.8-.4-1.3-1-1.3l-.9.3-.7.8L2-3.4V-2c0 .3 0 .7.2.9.2.1.5.4 1 .4Zm0-.1"/>  <path id="h" d="M-.7 0 4-8.6h1L6.3 0H5l-.2-2.7h-3L.6 0Zm3.1-3.6h2.3l-.2-1.8a54.1 54.1 0 0 1-.2-2l-.5 1-.5 1Zm0 0"/>  <path id="g" d="m.3-2.7.2-1h2.9l-.4 1Zm0 0"/>  <path id="f" d="m-.4 0 2.7-3.3L1-6.4h1l1 2.3 2-2.3h1L3.4-3.3 5 0H4L2.8-2.5.8 0Zm0 0"/>  <path id="e" d="m.3 0 1.4-6.4h1l-.4 2.7h2.9l.6-2.8h1L5.6 0H4.5L5-2.9H2L1.4 0Zm0 0"/>  <path id="d" d="M2.3.1c-.5 0-1-.1-1.2-.5-.4-.4-.5-1-.5-1.7 0-.6 0-1.1.2-1.7l.7-1.4 1-1c.3-.2.8-.3 1.2-.3.5 0 .8 0 1 .3l.8.8.3-1h.8L5.2 0h-.8l.1-1.2-1 1a2 2 0 0 1-1.2.2Zm.4-.8c.3-.1.5-.3.8-.4.3-.2.6-.5.8-.9l.5-1.2.2-.6v-.6c0-.3-.1-.6-.3-.9-.2-.2-.5-.4-.9-.4-.3 0-.6.1-.8.3l-.7.8-.5 1.2L1.7-2c0 .4 0 .7.2 1 .2 0 .4.2.8.2Zm0-.1"/>  <path id="c" d="m.3 0 1.4-6.4h1l-.6 3L5-6.3h1.4L3.2-3.2 5.4 0H4L2.1-3.2 1.4 0Zm0 0"/>  <path id="b" d="M2.2.1c-.5 0-.9-.1-1.1-.4C.8-.6.7-1 .7-1.5V-2l.1-.5.8-4h1l-.7 4.1v.9l-.1.5c.2.2.5.2.7.2.3 0 .6 0 .9-.2l.8-1a5 5 0 0 0 .5-1.5l.8-3h.9l-.8 4.1-.1.9.1.5c.2.2.4.2.6.2.3 0 .6 0 .9-.2.3-.2.6-.5.8-1 .3-.4.5-1 .6-1.7l.6-2.7h.9L8.9 0h-1L8-1.2l-.5.6-.7.6c-.3.1-.5.1-.9.1S5.1 0 5-.2c-.3-.4-.5-.8-.5-1.2l-.7.8-.8.5a2 2 0 0 1-.8.2Zm0 0"/>  <path id="a" d="M1 .1H.5L0 0v-1h.5l.5.2c.4-.1.8-.1 1-.4.5-.3.8-.8 1-1.3l-1.8-6h1.1l1 3.6.2.9.2.8.4-.7a11 11 0 0 1 .3-.7l2.4-4H8L4-2A8 8 0 0 1 3-.8c-.1.3-.5.6-.8.7-.4.2-.8.2-1.2.2Zm0 0"/>  <path d="M1.1 0v-8.6h5V0Zm.6-.6h3.8V-8H1.7Zm0 0"/> </defs> <image xlink:href="svg/9/43_46.jpg" width="497" height="279"/> <path d="M319 231.7h-.5l-.5-.1v-1h.5l.5.2c.4-.1.8-.1 1-.4.5-.4.8-.7 1-1.4l-1.8-5.9h1.1l1 3.6.2.9.2.8a11 11 0 0 1 .7-1.4l2.4-4h1.2l-4 6.5a8 8 0 0 1-1 1.3c-.1.2-.5.6-.8.7-.4.2-.8.2-1.2.2zm8.1 0c-.5 0-.9-.1-1.1-.4-.3-.3-.5-.7-.5-1.2v-.5l.3-.5.7-4.1h1l-.7 4.3v1.3c.2.2.4.2.7.2.2 0 .5 0 .7-.2.3-.2.6-.6.9-1a5 5 0 0 0 .5-1.5l.7-3.1h1l-.9 4.3V230.6c.2.2.4.2.7.2s.6 0 .9-.2c.3-.2.5-.6.8-1 .2-.4.5-1 .6-1.6l.6-2.8h1l-1.3 6.4h-.9l.2-1.2-.6.6-.7.5c-.3.2-.7.2-.9.2-.4 0-.8-.1-1-.3-.2-.4-.4-.7-.4-1.1l-.8.7-.6.5a2 2 0 0 1-.9.2zm8.6-.1 1.4-6.4h.9l-.5 3 3-2.9h1.3l-3.2 3.1 2.1 3.2h-1.2l-2-3.2-.8 3.2zm7.8.1c-.5 0-.9-.2-1.2-.5-.3-.4-.5-1-.5-1.7 0-.5 0-1.1.2-1.7l.7-1.4 1-1c.3-.2.8-.3 1.3-.3.4-.1.7-.1 1 .3l.6.8.4-1h.8l-1.3 6.4h-.9l.2-1.2-1.1 1a2 2 0 0 1-1.3.2zm.5-.7c.2-.1.5-.3.8-.5l.6-.9.7-1.2v-.6l.2-.6c-.1-.2-.2-.7-.4-.9-.2-.2-.5-.4-.9-.4-.3.1-.5.1-1 .3l-.4.8-.6 1.2v1.4c-.1.4-.1.7 0 1 .3 0 .6.2 1 .2zm4.4.6 1.3-6.4h1l-.4 2.7h2.9l.7-2.7h.9l-1.2 6.4h-1.1l.5-2.9h-3l-.7 2.9zm7.2 0 1.3-6.4h1.1l-.6 2.7h3l.6-2.7h1.1l-1.4 6.4h-1l.6-2.9h-3l-.8 2.9zm9.2.1c-.5 0-1-.2-1.3-.5-.3-.4-.5-1-.5-1.7 0-.5.1-1.1.3-1.7.1-.5.3-1 .6-1.4l1.1-1c.3-.2.7-.3 1.2-.3.4-.1.8-.1 1 .3.3.2.5.5.6.8l.6-1h.6l-1.3 6.4h-.8l.1-1.2-1 1a2 2 0 0 1-1.2.2zm.2-.7c.4-.1.7-.3 1-.5l.8-.9.5-1.2.1-.6v-.6c0-.2 0-.7-.3-.9-.1-.2-.4-.4-.8-.4l-.9.3-.7.8-.4 1.2-.3 1.4c.1.4.2.7.4 1 .2 0 .4.2.6.2zM368.8 231.6l2.8-3.3-1.4-3.1h1l1.1 2.3 2-2.3h1.1l-2.7 3.1 1.5 3.3h-1l-1.2-2.5-2 2.5zm6.6-2.7.2-1h2.8l-.2 1zM327.9 246l4.6-8.7h1.1l1.1 8.6h-1l-.5-2.6h-2.8l-1.4 2.6zm3-3.8h2.3l-.2-1.7a54.1 54.1 0 0 1 0-2l-.7 1-.4 1zm4.1 6.6 2-9.3h.8v1.2a5 5 0 0 1 1-1 2 2 0 0 1 1-.2c.6-.1 1.2.1 1.4.4.3.4.4 1.1.4 1.7 0 .6 0 1.1-.2 1.7-.1.5-.3 1-.6 1.4-.3.4-.6.8-1 1-.4.2-.8.4-1.3.4-.4-.1-.8-.2-1-.4a2.3 2.3 0 0 1-.6-.7 12.3 12.3 0 0 1-.3 1l-.6 2.8zm3.4-3.6.9-.3c.3-.2.5-.5.7-.9l.4-1 .2-1.4c0-.9-.4-1.3-1-1.3-.3 0-.6 0-.9.3-.3.2-.5.4-.7.8-.3.3-.4.6-.6 1.1l-.2 1.5c0 .3.1.6.3.9.2.1.5.2 1 .2zm6.6.8c-.5 0-1 0-1.4-.3-.4-.4-.6-.9-.6-1.5a5 5 0 0 1 0-.6l.1-.5.9-3.6h.9l-.6 2.8.7-.1h.6c.7-.1 1.2 0 1.5.3.3.4.5.8.5 1.3 0 .4-.1.8-.3 1.2a2 2 0 0 1-.8.8c-.5.2-.9.2-1.5.2zm3.3 0 1.3-6.6h1l-1.4 6.5zm-3.1-.9c.3.1.8-.1.9-.3.3-.2.4-.5.4-.9 0-.3 0-.6-.3-.7l-.9-.2a6 6 0 0 0-.6 0 7 7 0 0 0-.5.1l-.2.6v.4c0 .3.1.6.3.8.1.2.4.3.7.3zM351.3 246l1.4-6.6h.8v1.3l.5-.7.7-.4a2 2 0 0 1 .8-.2c.5 0 .8.1 1 .4.3.2.5.6.5 1a4 4 0 0 1 .6-.7l.7-.5a2 2 0 0 1 1-.2c.3 0 .7.1.9.4.6.2.7.7.7 1.2v.5l-.3.5-.8 4h-1l.8-4.2.1-.4v-.3c0-.3 0-.5-.2-.6 0-.2-.3-.2-.5-.2-.3 0-.6 0-.9.3-.3.1-.6.4-.8.8a5 5 0 0 0-.6 1.6l-.6 3H355l.8-4.2.2-.7c0-.3 0-.5-.2-.6-.1-.2-.3-.2-.6-.2-.2 0-.5 0-.8.3-.4.1-.6.4-.9.9-.2.4-.4 1-.5 1.7l-.6 2.7zm12.5 0c-.5 0-1 0-1.3-.4-.3-.6-.5-1.1-.5-1.7l.3-1.9c.1-.4.4-.9.6-1.3l1.1-1c.3-.2.7-.3 1.2-.3.4 0 .8.1 1 .3.3.3.5.5.6.8l.6-1h.6l-1.3 6.4h-.8l.1-1.2-1 1a2 2 0 0 1-1.2.3zm.2-.7 1-.4.8-1 .5-1.1.1-.7v-.5c.1-.4.1-.7-.2-1-.2-.2-.5-.3-.9-.3-.3 0-.6 0-.9.3-.2.2-.4.4-.7.8l-.4 1.1-.3 1.5c.1.3.2.6.4.9.2.1.4.3.6.3zm.1-.1" style="fill:none;stroke:#fff;stroke-width:2;stroke-linecap:butt;stroke-linejoin:round;stroke-miterlimit:10;stroke-opacity:.6" transform=" rotate(  340 349.179 235.765) "/> <g style="fill:#000;fill-opacity:1" transform=" rotate(  340 349.179 235.765) ">  <use xlink:href="#a" x="318" y="231.6"/>  <use xlink:href="#b" x="324.9" y="231.6"/>  <use xlink:href="#c" x="335.4" y="231.6"/>  <use xlink:href="#d" x="341.2" y="231.6"/>  <use xlink:href="#e" x="348" y="231.6"/>  <use xlink:href="#e" x="355.2" y="231.6"/>  <use xlink:href="#d" x="362.5" y="231.6"/>  <use xlink:href="#f" x="369.3" y="231.6"/>  <use xlink:href="#g" x="375.1" y="231.6"/>  <use xlink:href="#h" x="328.5" y="245.9"/>  <use xlink:href="#i" x="335.3" y="245.9"/>  <use xlink:href="#j" x="342.2" y="245.9"/>  <use xlink:href="#k" x="351" y="245.9"/>  <use xlink:href="#d" x="361.5" y="245.9"/> </g> <path d="m439.1 124.5 1.5-7.1h3.6l-.1.8h-2.8l-.3 2.2h.6c.4 0 1 .1 1.3.3.3.1.5.3.6.6a2 2 0 0 1 .2.9c0 .5 0 1-.3 1.3-.4.5-.6.6-1 .8a4 4 0 0 1-1.5.2zm1-.7h1c1.1 0 1.7-.5 1.7-1.5 0-.4 0-.7-.3-.9l-1-.2h-.7zm6.7.8c-.8 0-1.1-.1-1.5-.5-.3-.4-.5-.9-.5-1.5 0-.4 0-.8.2-1.2l.5-1.2.9-.8a2 2 0 0 1 1.1-.3c.5-.1.9.1 1.1.3.4.2.4.6.4 1 0 .2 0 .6-.3.8-.2.4-.5.6-1 .8l-1.8.2h-.2v.4c0 .4.1.7.3 1 .2.2.5.3 1 .3h.5a5 5 0 0 0 .9-.5v.8a6 6 0 0 1-.8.3l-.8.1zm-1-3h.2l1-.3c.4.1.7-.1 1-.2 0-.2.2-.4.2-.7 0-.2 0-.3-.2-.4l-.5-.2c-.5 0-.7.2-1 .5-.3.3-.5.7-.5 1.2zm6 3c-.6 0-1-.1-1.4-.5-.4-.3-.6-.8-.6-1.5 0-.4 0-.9.2-1.3.1-.4.3-.8.6-1.1.2-.4.4-.6.8-.8l1.2-.4h.7l.7.4-.3.7-.5-.2h-.6c-.4-.1-.6-.1-1 .2l-.6 1.1a4 4 0 0 0-.3 1.4c0 .4.1.8.3 1 .2.2.5.3 1 .3h.6a7 7 0 0 0 .6-.4v.8l-.6.2-.8.1zm4.5 0c-.6 0-1.1-.1-1.4-.5-.4-.4-.5-.9-.5-1.5l.1-1.2c.1-.5.3-.8.6-1.2l.8-.8a2 2 0 0 1 1.1-.3c.5-.1 1 .1 1.2.3.2.2.4.6.4 1 0 .2-.2.6-.4.8-.2.4-.5.6-1 .8l-1.8.2h-.1v.4c-.1.4-.1.7.1 1 .3.2.6.3 1.1.3h.6a5 5 0 0 0 .8-.5v.8a6 6 0 0 1-.7.3l-1 .1zm-1-3h.3l.9-.3c.5.1.8-.1 1-.2.1-.2.2-.4.2-.7 0-.2 0-.3-.2-.4l-.5-.2c-.3 0-.7.2-1 .5-.3.3-.5.7-.6 1.2zm3.5 3h-.4v-.9h.4c.2.1.2.1.5-.1.2-.1.3-.3.4-.6l.5-1.3.4-1 .5-1.1.7-.2 1-.4a4.5 4.5 0 0 1 1.2.3l-1.1 5.2h-1l1.1-4.5h-.3c-.4-.1-.7-.1-.8 0l-.4.7-.5 1.4-.6 1.3-.6 1-1 .1zm5.8-2.3.1-.8h2.4l-.2.8zm2 4.1.4-2.7h.7l.9-1.4a24.6 24.6 0 0 0 1.6-3.3l.5-1.6h3l-1.5 6.3h1.1l-.8 2.7h-.7l.4-1.9h-4.4l-.4 2zm2-2.7h2.9l1.1-5.5h-1.2l-.5 1.3a26 26 0 0 1-1.5 3l-.7 1.2zM474 124.6h-.6v-.9h.4l.4.1.4-.7.3-.6.6-.4c-.3 0-.5-.1-.7-.4a1.4 1.4 0 0 1-.2-.8c0-.5.1-1 .4-1.2.5-.4 1-.5 1.7-.5h2l-1.1 5.3h-.9l.5-2h-.7c-.3-.1-.5-.1-.5.1-.3.2-.4.4-.6.8l-.4.6-.4.5-.7.1zm2.4-3h1l.3-1.6h-1.1c-.4 0-.7 0-.9.2-.2.2-.3.4-.3.7 0 .3.1.5.3.6l.8.2zm2.9 2.9 1.2-5.3h.8l-.3 2.2h2.4l.5-2.2h.9l-1.2 5.3h-.9l.5-2.4h-2.5l-.5 2.4zm7.7.1-.8-.1-.7-.4-.2-.8c0-.4 0-.7.3-.9l.7-.4.7-.5a6 6 0 0 0 1.1-.5c.2 0 .4-.3.4-.6 0-.2 0-.4-.2-.4l-.6-.2a3 3 0 0 0-.7.2l-.7.2-.3-.7.8-.3 1-.1c.5-.1.8-.1 1.2.3.2.2.4.5.4 1 0 .1-.1.4-.4.6a2 2 0 0 1-.5.7c-.3 0-.5.2-.8.3l-.8.3-.5.4-.2.5c0 .2 0 .4.2.5.2.3.4.3.8.3l.7-.2c.3 0 .6-.2.8-.3v.8l-.8.2a4 4 0 0 1-.9.1zm5 0c-.5 0-1 0-1.3-.3-.3-.3-.4-.7-.4-1.3v-.3a5 5 0 0 1 0-.5l.7-3h1l-.6 2.3h.5l.6-.2c.5.1 1 .2 1.2.5.3.2.3.6.3 1 .1.3.1.6-.1 1l-.7.5c-.3.3-.7.3-1.2.3zm2.6 0 1.2-5.5h.8l-1.1 5.4zm-2.5-.8c.4.2.7.2.8-.2a1 1 0 0 0 .3-.6c0-.4 0-.6-.2-.7l-.8-.3h-.5l-.5.2v.8c-.1.3-.1.5.1.7.2.1.4.2.7.2zm-39.9 12.7 4-7.2h.8l.9 7.2h-.8l-.3-2.2h-2.4l-1.2 2.2zm2.6-3h1.9l-.2-1.5v-1.7h-.2a14 14 0 0 1-.3.8l-.4.9zm3.4 5.4 1.8-7.9h.6l-.2 1.1 1-.7c.2-.4.5-.4.9-.4s.7.2 1 .5c.3.3.4.8.4 1.4 0 .5 0 1-.2 1.4 0 .4-.2.7-.5 1.2l-.8.8a2 2 0 0 1-1 .3c-.5 0-.8-.1-1.1-.3a2 2 0 0 1-.4-.6v.3l-.2.6-.5 2.3zm2.9-3c.2 0 .5-.1.7-.3l.6-.6a4 4 0 0 0 .3-1 5 5 0 0 0 .1-1c0-1-.3-1.3-.8-1.3-.2.1-.5.1-.7.3l-.6.7-.5 1-.2.9c0 .6.1.9.3 1.1.1.1.4.2.7.2zm5.5.7c-.6 0-1-.1-1.3-.4-.3-.2-.5-.6-.5-1.2v-.4a5 5 0 0 1 .2-.6l.6-2.9h.9l-.5 2.4.5-.1h.5c.6-.1 1-.1 1.2.2.3.3.5.7.5 1.1s-.1.7-.3 1.1c-.1.1-.3.4-.7.5-.3.2-.6.3-1.1.3zm2.6-.1 1.1-5.5h.9l-1.1 5.5zm-2.6-.6c.4 0 .7-.1 1-.4a1 1 0 0 0 .1-.7c.1-.3.1-.5-.2-.6l-.7-.2h-.5l-.5.3v.3l-.2.4c.1.2.1.5.3.6.2.2.4.4.7.4zm5.2.6 1.1-5.5h.7v1.1l.4-.5.6-.4.7-.2c.4 0 .7.1.9.3.2.3.3.5.3 1l.5-.7.6-.4.8-.2c.4 0 .6.1 1 .4.1.2.2.5.2 1v.8l-.7 3.3h-.9l.7-3.5v-.3l.2-.3c-.1-.2-.1-.3-.3-.4 0-.2-.2-.2-.5-.2-.1 0-.4 0-.7.2l-.6.8c-.2.2-.4.6-.5 1.2l-.5 2.5h-1l.9-3.5v-1c-.4-.2-.5-.2-.7-.2-.2 0-.4 0-.7.2l-.6.8c-.3.2-.4.8-.5 1.4l-.5 2.3zm10.4.1c-.4 0-.8-.2-1-.6-.4-.2-.6-.6-.6-1.2l.4-1.5.5-1.2.8-.8a2 2 0 0 1 1-.3c.5 0 .7.1 1.1.3l.2.7.6-1h.5l-.9 5.5h-1l.2-1-.8.8c-.3.2-.6.3-1 .3zm.3-.7c.2 0 .5-.1.7-.3l.6-.7a4 4 0 0 0 .5-1 3 3 0 0 0 0-.7 4 4 0 0 0 .2-.4c-.1-.3-.1-.5-.4-.7-.1-.2-.4-.3-.6-.3-.3 0-.5 0-.8.2a2 2 0 0 0-.5.7l-.4 1-.2 1 .2 1c.2.1.4.2.7.2zm0 0" style="fill:none;stroke:#fff;stroke-width:2;stroke-linecap:butt;stroke-linejoin:round;stroke-miterlimit:10;stroke-opacity:.6" transform="rotate(  340 451.617 110.372) translate(-16.550847,-17.141949)"/> <g style="fill:#000;fill-opacity:1" transform=" rotate(  340 451.617 110.372) ">  <use xlink:href="#l" x="422.1" y="107.4"/>  <use xlink:href="#m" x="427.8" y="107.4"/>  <use xlink:href="#n" x="432.8" y="107.4"/>  <use xlink:href="#m" x="437.3" y="107.4"/>  <use xlink:href="#o" x="442.3" y="107.4"/>  <use xlink:href="#p" x="447.7" y="107.4"/>  <use xlink:href="#q" x="450.9" y="107.4"/>  <use xlink:href="#r" x="457.2" y="107.4"/>  <use xlink:href="#s" x="462.5" y="107.4"/>  <use xlink:href="#t" x="468.5" y="107.4"/>  <use xlink:href="#u" x="473.1" y="107.4"/>  <use xlink:href="#v" x="436.3" y="119.3"/>  <use xlink:href="#w" x="441.9" y="119.3"/>  <use xlink:href="#u" x="447.7" y="119.3"/>  <use xlink:href="#x" x="454.9" y="119.3"/>  <use xlink:href="#y" x="463.7" y="119.3"/> </g></svg>