<svg xmlns="http://www.w3.org/2000/svg" xmlns:xlink="http://www.w3.org/1999/xlink" viewBox="0 0 497 279"> <defs overflow="visible" style="stroke:none">  <path id="r" d="M-.4 0 2-2.8.8-5.4h.9l.8 2 1.6-2H5L2.9-2.7 4 0h-.8l-.9-2L.7 0Zm0 0"/>  <path id="q" d="M.3-2.3.4-3h2.4l-.2.7Zm0 0"/>  <path id="p" d="m-.2 2.4 1.6-7.8h.7v1l.7-.6c.3-.3.7-.5 1-.5.5 0 .8.2 1 .5.5.3.6.8.6 1.4-.1.5-.1 1-.3 1.4L4.6-1l-.8.8a2 2 0 0 1-1.1.3C2.3 0 2 0 1.8-.2a2 2 0 0 1-.5-.6v.4L1 .1.7 2.4Zm2.8-3c.4 0 .5-.1.7-.4.3 0 .5-.3.7-.6a4 4 0 0 0 .3-1 5 5 0 0 0 .1-.9c0-.9-.3-1.2-.9-1.2-.2 0-.4 0-.5.2l-.8.7-.4 1c-.2.3-.2.7-.2 1.1 0 .3 0 .6.2.8.2.2.5.3.8.3Zm0 0"/>  <path id="o" d="m-.6 0 4-7.1h.8L5 0h-.7L4-2.2H1.6L.4 0ZM2-3h1.9l-.2-1.5v-1.7h-.2a14 14 0 0 1-.3.8l-.4 1Zm0 0"/>  <path id="n" d="M2.3 0c-.7 0-1 0-1.4-.3-.3-.5-.4-1-.4-1.5L.6-3l.5-1c.2-.5.5-.7.9-.9a2 2 0 0 1 .9-.2c.6 0 .9 0 1.1.1l.4.7v-.3c0-.8-.1-1.4-.3-1.8C3.9-6.8 3.5-7 3-7h-.5l-.5.4-.2-.9.6-.1.8-.1c.7 0 1.2.3 1.6.8.2.5.5 1.3.5 2.3l-.1 1.2c0 .5-.2 1-.4 1.4a5 5 0 0 1-.5 1 3 3 0 0 1-1 .8c-.1.2-.5.3-.9.3Zm0-.5c.4-.1.7-.3 1-.5l.5-1a6 6 0 0 0 .5-1.3 2 2 0 0 0-.5-.8c-.2-.2-.4-.4-.8-.4-.3 0-.5.2-.8.5-.2.1-.5.4-.6 1-.2.1-.2.6-.2 1 0 .5 0 .8.2 1.1.1 0 .4.2.7.2Zm0-.1"/>  <path id="m" d="M2.4 0c-.6 0-1 0-1.4-.3C.6-.8.5-1.3.5-2c0-.3 0-.8.2-1.2 0-.4.3-.8.5-1.1.2-.4.5-.7.8-.8a2 2 0 0 1 1.2-.4c.5 0 .8.2 1.1.5.3 0 .4.4.4.8 0 .3-.1.7-.3 1-.4.2-.6.4-1 .6-.6.2-1.2.3-1.9.3h-.1v.3c0 .5 0 .8.3 1 .2.3.5.4.9.4l.7-.1A5 5 0 0 0 4-1v.7a6 6 0 0 1-.7.3h-.9Zm-.9-3 1.3-.1.7-.4c.2-.1.3-.4.3-.5l-.1-.6-.7-.1c-.2 0-.5.1-.9.4L1.6-3Zm0 0"/>  <path id="l" d="M2.6 0C1.9 0 1.3 0 1-.4.6-.9.5-1.5.5-2.1c0-.6 0-1.2.3-1.7.2-.5.6-1 1-1.2.4-.3 1-.5 1.5-.5.7 0 1 .2 1.4.5.3 0 .3.5.3.9s0 .7-.3 1.1l-1 .2c.5.1.7.3.9.5.1.2.2.3.2.8l-.2.7c-.2.3-.4.5-.7.6-.3.2-.9.3-1.3.3ZM1.5-3h1l1-.1.5-.3c.2-.2.2-.4.2-.6 0-.2 0-.4-.2-.5l-.7-.2c-.3 0-.8.1-1.2.4-.3.3-.5.7-.6 1.3ZM2.7-.6c.3 0 .7-.1 1-.4l.1-.6C4-1.8 4-2 3.6-2l-1-.3H1.4v.2c0 .5 0 .9.3 1.1.3.3.6.4 1 .4Zm0 0"/>  <path id="k" d="M2.5 0C1.9 0 1.4 0 1-.4.7-.8.5-1.3.5-2l.1-1.2a4 4 0 0 1 .5-1.1c.3-.3.5-.7.9-.8.3-.2.7-.3 1.2-.3.6 0 1 .2 1.4.4.4.5.6 1.1.6 1.6L5-2a4 4 0 0 1-.5.9c-.2.5-.5.8-.8 1L2.5 0Zm0-.6c.5-.1.6-.1 1-.4.1-.2.3-.5.5-1 .2-.3.3-.8.3-1.4L4.2-4a1 1 0 0 0-.4-.5l-.6-.2c-.4 0-.7.1-1 .4-.2.2-.5.6-.6 1A4 4 0 0 0 1.4-2c0 .5 0 .8.3 1 .2.2.5.3.8.3Zm0-.1"/>  <path id="j" d="m.2 0 1.2-5.4h.8l-.2 1 .5-.6a2 2 0 0 1 .6-.3l.9-.2c.3 0 .6.1.9.5.1 0 .4.4.4.9v.4l-.2.5L4.4 0h-.9l.7-3.4v-.4l.2-.2c-.1-.5-.3-.7-.8-.7-.2 0-.4 0-.6.2-.3.2-.6.5-.8.8-.2.3-.4.8-.5 1.4L1.2 0Zm0 0"/>  <path id="i" d="M1.5 0a4 4 0 0 1-.8 0A3 3 0 0 1 0-.2V-1l.7.2.9.2c.4 0 .8-.1 1-.4.4 0 .4-.3.4-.6 0-.4 0-.4-.2-.6L2-2.4h-.8l.2-.8h1.1c.3 0 .5-.2.6-.3l.2-.5c0-.3 0-.4-.2-.5-.2-.2-.4-.2-.6-.2h-.7l-.8.4L.8-5a4 4 0 0 1 1.8-.5c.4 0 .9.2 1.1.5.3 0 .6.4.6.8s-.3.7-.5.9c-.2.2-.5.4-.8.5.2 0 .4.2.6.4l.2.7c0 .5-.2 1-.5 1.3-.4.3-1 .4-1.9.4Zm0 0"/>  <path id="h" d="M3.6-6c-.6 0-1-.3-1.2-.5-.4-.1-.4-.4-.4-.8a1 1 0 0 1 0-.3h.9v.3c-.1.2-.1.3.1.3 0 .3.3.3.7.3.3 0 .5 0 .7-.2.2-.1.4-.3.4-.7h.9c-.1.6-.3.8-.7 1.1-.3.3-.8.5-1.4.5ZM1.9 0c-.4 0-.7 0-1-.1C.7-.5.5-.8.5-1.2v-.5L.8-2l.6-3.4h.9L1.4-2v1.2l.8.2c.2 0 .4-.1.8-.4l.6-.6.5-1.4.5-2.4h.9L4.4 0h-.8l.1-1-.5.5-.4.5-.9.1Zm0 0"/>  <path id="g" d="m.3 0 1.1-5.4h.9l-.6 2.6 2.5-2.6h1.1L2.7-2.7 4.5 0h-1L1.6-2.7 1.2 0Zm0 0"/>  <path id="f" d="M2.5 0C1.9 0 1.4 0 1-.3.7-.7.5-1.2.5-2c0-.4 0-1 .2-1.3l.5-1c.3-.5.6-.7 1-1 .2-.1.6-.2.9-.2l.9.1.6.2-.2.7-.5-.1-.6-.1c-.4 0-.7.1-1 .4-.3.2-.5.6-.7 1A4 4 0 0 0 1.4-2c0 .5 0 .8.3 1 .2.2.5.3.9.3h.6a7 7 0 0 0 .6-.3v.8l-.6.2h-.7Zm0 0"/>  <path id="e" d="M2 0c-.6 0-.9 0-1.2-.3C.6-.7.5-1 .5-1.7c0-.5 0-1 .2-1.5l.5-1.1c.2-.4.5-.7.8-.9a2 2 0 0 1 1.1-.3c.4 0 .6.1.9.3l.5.7.3-.9h.7L4.4 0h-.7l.1-1c-.3.3-.5.6-.9.8-.3.2-.6.2-.9.2Zm.1-.5c.4-.1.6-.2.9-.5l.6-.6a4 4 0 0 0 .4-1 3 3 0 0 0 .1-.7 4 4 0 0 0 0-.4c.1-.3.1-.5-.1-.7-.3-.2-.5-.3-.8-.3-.3 0-.5 0-.7.2a2 2 0 0 0-.6.7l-.4 1-.1 1.1c0 .4 0 .6.2.8.1.2.3.3.6.3Zm.1-.1"/>  <path id="d" d="M2 0H1L.5-.5C.3-.7.2-.9.2-1.3c.1-.3.1-.6.4-.7l.6-.7L2-3a6 6 0 0 0 1-.5c.3-.2.4-.5.4-.7l-.1-.4-.7-.1a3 3 0 0 0-.7 0c-.2.3-.5.3-.7.4L1-5l.8-.3 1-.2c.4 0 .8.1 1 .3.4.2.6.6.6 1-.1.3-.1.6-.4.8a2 2 0 0 1-.6.4l-.8.5c-.3 0-.5.2-.8.3l-.5.4-.2.5c0 .2.1.3.3.5l.6.2c.4 0 .6 0 1-.2l.6-.2v.7L3 0a4 4 0 0 1-1.1 0Zm0 0"/>  <path id="c" d="m.3 0 1.1-5.4h.9L1.8-3h2.5l.5-2.4h.9L4.6 0h-1l.7-2.4H1.7L1.2 0Zm0 0"/>  <path id="b" d="M1.9 0c-.4 0-.7 0-1-.1C.7-.5.5-.8.5-1.2v-.5L.8-2l.6-3.4h.9L1.4-2v1.2l.8.2c.2 0 .4-.1.8-.4l.6-.6.5-1.4.5-2.4h.9L4.4 0h-.8l.1-1-.5.5-.4.5-.9.1Zm0 0"/>  <path id="a" d="m-.5 0 2.9-3.8L1-7h1.1L3-4.4l2-2.7h1.1L3.4-3.7 4.7 0h-.9l-1-3L.5 0Zm0 0"/>  <path d="M1 0v-7.1h4V0Zm.4-.5h3.1v-6.1h-3Zm.1 0"/> </defs> <image xlink:href="svg/9/44_10.jpg" width="497" height="279"/> <path d="m289.6 233.5 2.9-3.8-1.3-3.3h.9l1 2.6 1.9-2.6h1.2l-2.6 3.4 1.2 3.7h-1l-.9-3-2.3 2.9zm7.6.1c-.4 0-.7-.1-1-.3-.2-.3-.2-.6-.2-1v-.9l.7-3.3h1l-.9 3.4v.7l.1.5.6.2c.2 0 .5-.1.7-.3.3-.1.5-.4.8-.6l.5-1.5.5-2.5h.9l-1.2 5.5h-.7l.1-1-.5.5-.6.4-.8.2zm4.2-.1 1.2-5.4h.8l-.4 2.3h2.5l.5-2.4h.8l-1 5.5h-1.1l.6-2.4h-2.5l-.5 2.4Zm7.7.1-.8-.1-.7-.5-.2-.8c0-.2 0-.6.3-.8l.7-.6c.2-.1.5-.3.8-.3a6 6 0 0 0 1-.5c.2-.2.4-.4.4-.7l-.2-.3-.6-.2a3 3 0 0 0-.7 0l-.7.4-.4-.8 1-.2 1-.2c.4 0 .7.1 1 .3.3.2.4.7.4 1 0 .3 0 .6-.2.8a2 2 0 0 1-.6.5l-.8.4c-.3 0-.6.2-.8.3l-.5.4c-.2 0-.2.3-.2.5s0 .4.2.5l.8.2c.2 0 .5 0 .7-.2l.8-.1v.6l-.8.3a4 4 0 0 1-.9 0zm4.6 0c-.4 0-.8-.2-1-.6-.4-.2-.6-.6-.6-1.2.1-.5.1-1 .3-1.5.1-.3.3-.8.6-1.1.2-.4.5-.7.8-.9a2 2 0 0 1 1-.3c.5 0 .8.1 1.1.3l.2.7.6-1h.5l-1.1 5.5h-.7l.1-1-.8.8c-.3.2-.7.3-1 .3zm.3-.7.7-.3.6-.6a4 4 0 0 0 .5-1.1 3 3 0 0 0 0-.7 4 4 0 0 0 .2-.4c-.1-.3-.1-.5-.4-.7-.1-.2-.4-.3-.6-.3-.3 0-.6 0-.8.2a2 2 0 0 0-.6.7l-.3 1-.3 1.1c.1.4.1.6.3.8.2.2.4.4.7.4zm3.7.6 1.1-5.4h1l-.7 2.3h2.8l.4-2.4h.7l-1 5.5h-.9l.5-2.4h-2.5l-.5 2.4Zm8.2.1c-.6 0-1-.2-1.4-.6-.5-.2-.6-.7-.6-1.4.1-.6.1-1 .2-1.4.1-.4.3-.8.6-1 .2-.5.5-.8.8-1l1.2-.2.7.1.6.2-.2.7h-.5l-.6-.2c-.4 0-.7.1-1 .4-.3.2-.5.6-.7 1a4 4 0 0 0-.2 1.4c0 .4.2.7.3 1 .2.1.5.2.9.2h.7a7 7 0 0 0 .6-.3v.8l-.6.2h-.8zm2.3-.1 1.2-5.4h.8l-.5 2.6 2.5-2.6h1l-2.4 2.7 1.6 2.7h-1l-1.7-2.7-.7 2.7zm6.5.1c-.4 0-.7-.1-1-.3-.2-.3-.3-.6-.3-1v-.9l.9-3.3h.7l-.6 3.4-.1.7.1.5.6.2.7-.3c.3-.1.5-.4.7-.6.3-.5.4-1 .6-1.5l.4-2.5h1l-1.3 5.5h-.6v-1l-.4.5-.6.4-.8.2zm7.5-6.2c-.6 0-1 0-1.2-.3-.3-.1-.4-.5-.4-.9a1 1 0 0 1 0-.2h.9v.2c-.1.2-.1.3.1.4.1.2.4.2.7.2.3 0 .5 0 .7-.2.2-.1.4-.3.4-.6h.9c-.1.4-.3.7-.6 1-.4.3-.8.4-1.5.4zm-1.7 6.2c-.4 0-.7-.1-1-.3-.2-.3-.3-.6-.3-1v-.9l.8-3.3h.9l-.9 3.4v.7l.2.5.6.2.7-.3.7-.6.6-1.5.4-2.5h1l-1.2 5.5h-.7v-1l-.3.5-.7.4-.8.2zm-48.9 11.9a4 4 0 0 1-.8 0 3 3 0 0 1-.8-.4v-.7l.8.3 1 .1c.2 0 .6 0 .9-.2.3-.2.3-.6.3-.8.1-.2.1-.4-.1-.5-.2-.3-.4-.3-.9-.3h-.7l.2-.7h1.2l.5-.3.2-.6c0-.2 0-.4-.2-.5l-.6-.2-.7.1-.7.3-.3-.7a4 4 0 0 1 1.8-.4c.5 0 .9 0 1.2.3.1.2.4.5.4 1 0 .2-.1.5-.3.7-.3.4-.6.5-1 .6l.7.4.2.8c.1.5-.2.9-.5 1.2-.4.4-1 .5-1.8.5zm4.9 0c-.5 0-.8-.1-1-.4-.4-.3-.5-.8-.5-1.4l.2-1.4c.2-.5.3-.9.6-1.3l.8-.7a2 2 0 0 1 1-.3c.4 0 .8 0 1.1.3l.3.6.5-.8h.5l-1.1 5.3h-.7l.2-1h-.1l-.8.9c-.3.1-.6.2-1 .2zm.3-.7c.2 0 .5 0 .7-.2l.5-.8a4 4 0 0 0 .6-1 3 3 0 0 0 0-.5 4 4 0 0 0 .2-.5c-.1-.3-.1-.6-.4-.8-.1-.2-.4-.3-.6-.3-.3 0-.5.1-.8.3a2 2 0 0 0-.5.6l-.5 1-.1 1.1.2.9.7.2zm3.7.6 1.1-5.3h.8l-.1.9.5-.6a2 2 0 0 1 .5-.3l.8-.1c.4 0 .9 0 1 .3.3.2.4.7.4 1v.5l-.1.4-.7 3.2h-1l.8-3.3v-.7c0-.4-.2-.6-.5-.6s-.6 0-.8.2c-.3 0-.5.4-.8.7-.2.4-.4.8-.4 1.4l-.6 2.3zm8 .1c-.5 0-1.1-.2-1.5-.5-.3-.4-.5-1-.5-1.5s0-.9.2-1.3a4 4 0 0 1 .5-1c.2-.5.5-.8.8-1 .4-.1.7-.2 1.2-.2.6 0 1 .2 1.4.6.4.3.6.8.6 1.4 0 .5 0 .9-.2 1.3a4 4 0 0 1-.5 1.1l-.8.8c-.4.2-.7.3-1.2.3zm0-.7c.5 0 .8-.1 1.1-.3l.4-1 .3-1.5-.1-.6a1 1 0 0 0-.4-.5l-.6-.2c-.4 0-.7.3-1 .4l-.6 1a4 4 0 0 0-.2 1.4c0 .4.1.7.3 1 .2.2.5.3.9.3zM314.2 245.5c-.7 0-1.2-.2-1.6-.5-.3-.5-.5-1-.5-1.7 0-.6.1-1.2.4-1.7.2-.5.5-.9 1-1.2.3-.3.8-.4 1.5-.4.5 0 1 0 1.3.3.3.3.5.7.5 1s-.2.8-.4 1l-1 .4.7.5c.2.1.3.4.3.8 0 0 0 .4-.2.6-.1.4-.4.5-.7.7l-1.3.2zm-1-3h.9l.9-.3c.3.1.5 0 .7-.2l.2-.6c0-.2 0-.3-.2-.4l-.7-.3c-.5 0-1 .3-1.2.5-.3.3-.6.7-.8 1.2zm1 2.2c.5.1.9.1 1.1-.2l.3-.5c0-.4-.1-.6-.3-.7l-1-.2H313v.3c0 .5.1.8.4 1 .2.4.5.5 1 .5zM319.5 245.5c-.6 0-1.1-.1-1.5-.5-.3-.4-.5-.9-.5-1.5l.2-1.2c.1-.5.3-.8.6-1.3l.7-.7a2 2 0 0 1 1.2-.3c.5 0 1 0 1.2.3.2.2.4.5.4 1 0 .2-.2.5-.4.8-.2.4-.4.6-1 .8l-1.8.1h-.1v.5c-.1.4-.1.7.1 1 .4.2.6.3 1.1.3h.6a5 5 0 0 0 .7-.5v.7a6 6 0 0 1-.6.4l-1 .1zm-1-3h.3l.9-.3c.4.1.7-.1.9-.2.2-.2.3-.4.3-.7 0-.2 0-.3-.2-.4l-.5-.2c-.4 0-.7.3-1 .5-.2.3-.5.7-.6 1.2zm5.8 3c-.6 0-1-.1-1.3-.5-.3-.3-.5-.8-.5-1.4 0-.4 0-.8.2-1.2l.5-1 .7-.8a2 2 0 0 1 1.1-.3c.4 0 .7.1 1 .3l.3.6v-.3c.2-.9.2-1.4-.1-1.9-.2-.3-.6-.5-1.1-.5h-.5l-.6.2-.1-.7.6-.2h.7c.8-.1 1.3.2 1.6.6.4.7.6 1.4.6 2.4 0 .4 0 .8-.2 1.3l-.2 1.3a5 5 0 0 1-.7 1 3 3 0 0 1-.9 1l-1.1.1zm.1-.7c.3 0 .6-.1.9-.4l.6-1a6 6 0 0 0 .4-1.3 2 2 0 0 0-.4-.8c-.2-.2-.5-.3-.9-.3-.2 0-.5 0-.7.3l-.7 1-.2 1.3.2.9c.2.2.4.3.8.3zm3.6.6 1.1-5.3h1l-.7 2.2h2.7l.4-2.2h1l-1.3 5.3h-.8l.5-2.4h-2.5l-.5 2.4zm7.6.1c-.4 0-.6 0-1-.3-.2-.2-.3-.6-.3-1v-.9l.9-3.2h.8l-.7 3.4-.1.5.1.6c.1.2.3.2.7.2 0 0 .3 0 .6-.2s.5-.4.7-.8c.3-.4.4-.8.7-1.4l.3-2.4h1l-1.3 5.4h-.6v-1l-.4.6-.6.4-.8.1zm4.2-.1 1.1-5.3h.9l-.6 2.6 2.5-2.7h1.1l-2.6 2.7 1.8 2.7h-1l-1.9-2.6-.4 2.6zm0 0" style="fill:none;stroke:#fff;stroke-width:2;stroke-linecap:butt;stroke-linejoin:round;stroke-miterlimit:10;stroke-opacity:.6" transform="rotate(  340 330.802 212.227) translate(13.793077,-24.242377)"/> <g style="fill:#007f00;fill-opacity:1" transform=" rotate(  340 330.802 212.227) ">  <use xlink:href="#a" x="303.9" y="209.3"/>  <use xlink:href="#b" x="309.1" y="209.3"/>  <use xlink:href="#c" x="314.9" y="209.3"/>  <use xlink:href="#d" x="320.9" y="209.3"/>  <use xlink:href="#e" x="325.5" y="209.3"/>  <use xlink:href="#c" x="331.2" y="209.3"/>  <use xlink:href="#f" x="337.2" y="209.3"/>  <use xlink:href="#g" x="341.8" y="209.3"/>  <use xlink:href="#b" x="346.6" y="209.3"/>  <use xlink:href="#h" x="352.4" y="209.3"/>  <use xlink:href="#i" x="303.9" y="221.2"/>  <use xlink:href="#e" x="308.3" y="221.2"/>  <use xlink:href="#j" x="314" y="221.2"/>  <use xlink:href="#k" x="319.8" y="221.2"/>  <use xlink:href="#l" x="325.4" y="221.2"/>  <use xlink:href="#m" x="330.9" y="221.2"/>  <use xlink:href="#n" x="335.8" y="221.2"/>  <use xlink:href="#c" x="341.5" y="221.2"/>  <use xlink:href="#b" x="347.5" y="221.2"/>  <use xlink:href="#g" x="353.3" y="221.2"/> </g> <path d="m303.3 12.4 4-7.1h.8l.9 7.1h-.8l-.3-2.2h-2.4l-1.2 2.2zm2.7-3h1.8l-.2-1.4V6.3h-.2a14 14 0 0 1-.4.7l-.3.9zm3.8 3 1.2-5.3h1l-.7 2.2h2.6l.5-2.2h.8l-1 5.3h-1.1l.6-2.4h-2.5l-.5 2.4zm8 .1c-.6 0-1-.1-1.3-.5-.3-.4-.5-.8-.5-1.4 0-.4 0-.8.2-1.2 0-.3.2-.7.4-1l.8-.8a2 2 0 0 1 1.1-.3c.4 0 .7 0 1 .3l.3.6v-.3c.2-.9.2-1.5-.2-1.9-.2-.3-.5-.5-1-.5h-.5l-.5.2-.3-.7.7-.2h.7c.7-.1 1.3.2 1.6.6.4.7.5 1.4.5 2.4v1.3l-.5 1.3a5 5 0 0 1-.5 1 3 3 0 0 1-.9.9c-.3.1-.7.2-1.1.2zm0-.7c.5 0 .8-.1 1.1-.4l.5-1a6 6 0 0 0 .4-1.3 2 2 0 0 0-.5-.8c-.2-.2-.3-.3-.7-.3l-.9.3-.6 1-.1 1.3c0 .3 0 .6.1.8.2.3.4.4.9.4zm3.2 3 1.6-7.7h.7V8l.7-.7c.3-.2.7-.3 1-.3.5 0 .8 0 1 .4.5.4.6.8.6 1.4-.1.5-.1 1-.3 1.4l-.5 1.2c-.2.4-.5.6-.8.8a2 2 0 0 1-1.1.3c-.4 0-.7 0-.9-.2a2 2 0 0 1-.5-.7v.5l-.3.4-.2 2.3zm2.8-3c.3 0 .5 0 .7-.2.3-.2.5-.4.6-.7a4 4 0 0 0 .4-1 5 5 0 0 0 .1-1.1c0-.8-.3-1-.9-1-.2-.1-.4-.1-.6.2-.3 0-.5.3-.7.6l-.4 1c-.2.3-.2.7-.2 1.1 0 .3 0 .6.2.8.2.2.5.3.8.3zm5.6.7c-.6 0-1.1-.1-1.4-.5-.4-.4-.5-.9-.5-1.5l.1-1.3c.2-.4.4-.8.6-1l.8-1.1a2 2 0 0 1 1.1-.1c.5 0 1 0 1.2.3.2.2.4.5.4 1 0 .2-.1.5-.4.8-.2.4-.5.6-1 .8l-1.8.1h-.1v.5c0 .4 0 .7.3 1 .2.1.5.2.9.2h.7a5 5 0 0 0 .7-.3v.6a6 6 0 0 1-.7.4l-.9.1zm-.9-3.1h1.3l.7-.6c.2 0 .3-.2.3-.5s0-.3-.2-.4l-.5-.2c-.3 0-.6.2-1.1.5 0 .2-.3.7-.4 1.2zm5.9 3.1c-.6 0-1.1-.1-1.4-.5-.4-.4-.5-.9-.5-1.5l.1-1.3c.2-.4.4-.8.6-1l.8-1.1a2 2 0 0 1 1.1-.1c.5 0 1 0 1.2.3.2.2.4.5.4 1 0 .2-.1.5-.4.8-.2.4-.5.6-1 .8l-1.8.1h-.1v.5c0 .4 0 .7.2 1 .2.1.5.2 1 .2h.7a5 5 0 0 0 .7-.3v.6a6 6 0 0 1-.7.4l-.9.1zm-1-3.1h1.3l.9-.6c.1 0 .2-.2.2-.5s0-.3-.2-.4l-.5-.2c-.3 0-.7.2-1.1.5 0 .2-.4.7-.5 1.2zM339.6 12.5c-.8 0-1.3-.2-1.7-.5-.3-.5-.5-1-.5-1.7 0-.6.2-1.2.4-1.7s.5-.9 1-1.2c.3-.3.8-.4 1.4-.4s1.1 0 1.4.3c.4.3.5.7.5 1s-.1.7-.4 1l-1 .4c.3.1.6.3.7.4.2.2.3.4.3.9 0 0 0 .4-.2.6-.1.4-.3.5-.7.7l-1.2.2zm-1.2-3.1h1.9l.7-.4.2-.6c0-.2 0-.3-.2-.4l-.7-.3c-.5 0-.9.3-1.3.5-.2.2-.4.7-.6 1.2zm1.2 2.4c.5 0 .8 0 1-.3l.3-.5c0-.4-.1-.6-.3-.7l-1-.2h-1.3v.3c0 .5.2.8.4 1 .2.4.5.5 1 .5zm5.2.7c-.6 0-1-.1-1.4-.5-.4-.3-.4-.8-.4-1.5V9.2l.6-1.2c.2-.3.5-.6.9-.7.3-.3.7-.3 1.2-.3h.6l.7.3-.3.7-.4-.2h-.7c-.3-.1-.7-.1-.9.2-.3.4-.7.7-.7 1.1a4 4 0 0 0-.2 1.4c0 .5 0 .8.2 1 .3.2.6.3.9.3h.7a7 7 0 0 0 .6-.4v.8l-.6.2-.8.1zm2.4-.1 1.1-5.3h.9l-.6 2.6 2.5-2.7h1.1l-2.6 2.7 1.8 2.7h-1l-1.9-2.6-.4 2.6zm6.5.1c-.4 0-.8 0-1-.3-.3-.2-.4-.6-.4-1v-.4l.1-.5.7-3.2h1l-.9 3.3v.7c0 .2 0 .4.2.5l.5.2c.2 0 .5 0 .7-.2l.8-.8c.2-.4.4-.8.5-1.4l.5-2.4h.9l-1.3 5.4h-.6l.1-1-.5.6-.6.4-.7.1zm7.4-6.1c-.5 0-1-.1-1.1-.4-.3-.2-.4-.5-.4-.8a1 1 0 0 1 0-.4h.8v.3l.1.5.7.1.8-.1.4-.8h.8c0 .5-.2.9-.6 1.2-.3.2-.8.4-1.5.4zm-1.7 6.1c-.4 0-.7 0-1-.3-.1-.2-.2-.6-.2-1v-.9l.8-3.2h.8l-.7 3.3-.1.7v.5l.7.2c.2 0 .5 0 .7-.2l.8-.8c.2-.4.4-.8.5-1.4l.5-2.4h.8l-1.1 5.4h-.7l.1-1-.5.6-.6.4-.8.1zm-45.1 12a4 4 0 0 1-.9-.1 3 3 0 0 1-.7-.4v-.7l.7.3 1 .1c.3.1.6.1.9-.1.3-.3.4-.6.4-.9 0-.1 0-.3-.2-.4-.1-.3-.4-.3-.8-.3h-.7l.2-.8h1.1c.2 0 .4-.2.5-.3.2-.1.2-.3.2-.6 0-.2 0-.3-.2-.5l-.6-.1h-.7l-.7.3-.2-.7a4 4 0 0 1 1.7-.3c.5 0 1 0 1.2.3.3.1.4.5.4.8.1.4.1.7-.3.9-.2.3-.6.5-1 .6.4 0 .7.2.8.4.1.2.2.4.2.7 0 .5-.2 1-.6 1.3-.4.3-1 .5-1.7.5zm4.8 0c-.4 0-.8-.2-1-.5-.3-.3-.4-.8-.4-1.4 0-.5 0-1 .2-1.4 0-.4.3-.8.5-1.2l.8-.8a2 2 0 0 1 1.1-.2l.9.2.4.6h.1l.3-.8h.7l-1.2 5.4h-.7l.2-1-1 .8c-.2.2-.5.3-.9.3zm.3-.8c.3.1.6.1.7-.1.3-.3.5-.6.7-.9a4 4 0 0 0 .4-.9 3 3 0 0 0 .1-.6 4 4 0 0 0 0-.5c0-.3 0-.5-.2-.7-.2-.2-.4-.3-.7-.3-.4 0-.5 0-.7.2a2 2 0 0 0-.7.7l-.3 1-.1.9c0 .5 0 .9.2 1.1.1.1.2.2.6.2zm3.7.7 1.2-5.4h.7l-.4 2.6 2.5-2.6h1.1l-2.6 2.7 1.7 2.7h-1l-1.7-2.7-.6 2.7zm6.6.1c-.5 0-.8-.2-1-.5-.5-.3-.6-.8-.6-1.4.1-.5.1-1 .3-1.4l.5-1.2c.3-.3.5-.6.9-.8a2 2 0 0 1 1-.2c.4 0 .7 0 .9.2l.5.6.4-.8h.6l-1.1 5.4h-.7l.1-1-.8.8c-.3.2-.7.3-1 .3zm.2-.8c.3.1.5.1.8-.1l.6-.9a4 4 0 0 0 .5-.9 3 3 0 0 0 0-.6 4 4 0 0 0 .1-.5c0-.3 0-.5-.2-.7-.3-.2-.5-.3-.7-.3-.3 0-.6 0-.8.2a2 2 0 0 0-.6.7l-.4 1-.1.9c0 .5 0 .9.2 1.1l.7.2zM335 24.5a4 4 0 0 1-1-.1 3 3 0 0 1-.5-.4v-.7l.5.3 1 .1c.4.1.8.1 1-.1.3-.3.4-.6.4-.9 0-.1 0-.3-.2-.4-.2-.3-.4-.3-.8-.3h-.8l.2-.8h1.2c.2 0 .3-.2.5-.3l.2-.6c0-.2 0-.3-.2-.5l-.6-.1h-.7l-.7.3-.3-.7a4 4 0 0 1 1.8-.3c.5 0 .9 0 1.2.3.2.1.4.5.4.8 0 .4-.1.7-.4.9-.2.3-.4.5-.8.6.2 0 .4.2.6.4l.2.7c0 .5-.2 1-.5 1.3-.4.3-1 .5-1.8.5zm3.1-.1 1.2-5.4h.7l-.3 2.3h2.5l.5-2.3h.9l-1.2 5.4h-.9l.5-2.4h-2.5l-.5 2.4zm7.6.1c-.4 0-.7-.1-1-.5-.1 0-.2-.4-.2-.9v-.8l.7-3.3h1l-.9 3.4v.6l.1.6.6.1c.2.1.5.1.7-.1.3-.2.5-.5.8-.9.2-.3.4-.7.5-1.4l.5-2.3h.9l-1.2 5.4h-.7l.1-1-.6.5-.5.4-.8.2zm4.3-.1 1-5.4h1l-.7 2.6 2.6-2.6h1l-2.5 2.7 1.7 2.7h-1l-1.7-2.7-.6 2.7zm0 0" style="fill:none;stroke:#fff;stroke-width:2;stroke-linecap:butt;stroke-linejoin:round;stroke-miterlimit:10;stroke-opacity:.6" transform="rotate(  340 321.775 47.1707) translate(-11.703216,31.765873)"/> <g style="fill:#007f00;fill-opacity:1" transform=" rotate(  340 321.775 47.1707) ">  <use xlink:href="#o" x="292.2" y="44.2"/>  <use xlink:href="#c" x="297.8" y="44.2"/>  <use xlink:href="#n" x="303.8" y="44.2"/>  <use xlink:href="#p" x="309.5" y="44.2"/>  <use xlink:href="#m" x="315.3" y="44.2"/>  <use xlink:href="#m" x="320.3" y="44.2"/>  <use xlink:href="#l" x="325.3" y="44.2"/>  <use xlink:href="#f" x="330.7" y="44.2"/>  <use xlink:href="#g" x="335.2" y="44.2"/>  <use xlink:href="#b" x="340.1" y="44.2"/>  <use xlink:href="#h" x="345.9" y="44.2"/>  <use xlink:href="#i" x="301" y="56.1"/>  <use xlink:href="#e" x="305.5" y="56.1"/>  <use xlink:href="#g" x="311.2" y="56.1"/>  <use xlink:href="#e" x="316" y="56.1"/>  <use xlink:href="#i" x="321.7" y="56.1"/>  <use xlink:href="#c" x="326.1" y="56.1"/>  <use xlink:href="#b" x="332.2" y="56.1"/>  <use xlink:href="#g" x="337.9" y="56.1"/> </g> <path d="m350.1 80.2 3-3.8-1.4-3.4h1l1 2.8 1.9-2.8h1.2l-2.8 3.4 1.4 3.8h-1l-1-3.2-2.3 3zm7.7.1c-.4 0-.7-.3-1-.4-.2-.2-.3-.5-.3-.9v-.9l.9-3.3h.8l-.8 3.4v.6l.1.5c.1.2.3.2.6.2.2 0 .4 0 .7-.2.2-.2.5-.4.7-.8l.6-1.4.4-2.3h1l-1.3 5.4h-.6v-1l-.4.5-.6.3-.8.3zm4.2-.1 1-5.4h1l-.5 2.2h2.5l.5-2.2h1l-1.3 5.4h-.9l.7-2.4h-2.6l-.5 2.4zm7.7.1c-.3 0-.6 0-.9-.3-.2.1-.4 0-.6-.3-.2-.2-.2-.5-.2-.8 0-.4 0-.6.2-.9l.8-.5.8-.5a6 6 0 0 0 1-.4c.2-.1.2-.3.2-.6v-.4l-.6-.2a3 3 0 0 0-.8.2c-.2 0-.5 0-.6.2l-.3-.8.8-.2h1c.4-.1.8-.1 1 .2.5.2.5.5.5 1 0 .3 0 .5-.2.7a2 2 0 0 1-.8.6l-.7.3-.8.4c-.2 0-.3.2-.5.3v.5c-.1.2-.1.4 0 .5.2.2.5.2.8.2h.8l.8-.5v1l-.8.2a4 4 0 0 1-.9 0zm4.5 0c-.4 0-.7-.3-1-.5-.3-.3-.4-.8-.4-1.4 0-.4 0-1 .2-1.4l.5-1.2c.2-.3.5-.6.9-.8a2 2 0 0 1 1-.3c.4 0 .7.1.9.3l.5.6.3-.8h.7l-1.1 5.4h-.7v-1l-.8.7c-.2.3-.6.4-1 .4zm.3-.8c.3 0 .5 0 .7-.2l.8-.8a4 4 0 0 0 .3-1 3 3 0 0 0 .1-.5 4 4 0 0 0 0-.5c.1-.3.1-.6-.1-.8-.3-.2-.5-.3-.8-.3-.3 0-.5.1-.7.3a2 2 0 0 0-.6.7c-.2.2-.2.6-.4 1l-.1.9c0 .6 0 .9.2 1.1l.6.1zm3.8.7 1.1-5.4h.9l-.5 2.2h2.5l.5-2.2h.9l-1.1 5.4h-1l.7-2.4h-2.6l-.7 2.4zm8.2 0c-.6 0-1.1-.1-1.5-.5-.3-.4-.5-.9-.5-1.5l.1-1.2a4 4 0 0 1 .5-1.2c.3-.3.5-.6.9-.8.3-.2.7-.3 1-.3.8 0 1.3.3 1.6.6.4.4.5.9.5 1.5L389 78a4 4 0 0 1-.5 1.1c-.2.4-.5.6-.9.9-.3.1-.6.2-1.1.2zm0-.7.9-.3c.3-.2.5-.6.6-1 .2-.4.3-1 .3-1.5 0-.2 0-.4-.3-.6a1 1 0 0 0-.2-.5l-.6-.1c-.4 0-.7 0-1 .3-.2.3-.5.6-.6 1a4 4 0 0 0-.2 1.4c0 .4 0 .8.3 1 .2.2.5.3.8.3zm3.4-1.6.1-.9h2.4l-.1.9zM341 92.1l3.9-7.1h1l.7 7h-.8l-.3-2.1h-2.4L342 92zm2.6-3h1.8l-.1-1.5v-.9l-.2-.7a14 14 0 0 1-.4.7l-.4 1zm3.4 5.4 1.6-7.8h.7l-.1 1 .8-.7c.3-.2.7-.4 1-.4.5 0 .8.2 1 .5.4.3.6.9.6 1.4-.1.5-.1 1-.3 1.4l-.5 1.1-.8.9a2 2 0 0 1-1.1.3c-.4 0-.7 0-1-.3a2 2 0 0 1-.3-.6l-.3.4v.5l-.6 2.3zm2.8-3c.3 0 .5-.1.7-.3l.6-.7a4 4 0 0 0 .4-1 5 5 0 0 0 0-.9c.1-.9-.1-1.2-.7-1.2-.3 0-.5 0-.7.2l-.7.7-.4 1-.2 1.1c0 .3 0 .6.2.8.2.2.4.3.8.3zm2.6.6 2.3-2.8-1.1-2.6h.9l.8 2 1.5-2h1l-2.1 2.7L357 92h-1.1l-.7-1.9-1.8 1.9zm7.1.1c-.4 0-.7-.2-1-.5-.3-.3-.5-.7-.5-1.3 0-.5 0-1 .3-1.5l.5-1.1c.2-.4.5-.8.8-.9a2 2 0 0 1 1.1-.3c.4 0 .6.1.9.4l.4.6.4-.9h.7l-1.1 5.4h-.7v-1l-.8.9c-.3 0-.5.2-1 .2zm.3-.7c.3 0 .5-.1.7-.3l.7-.7a4 4 0 0 0 .4-1 3 3 0 0 0 .1-.7 4 4 0 0 0 0-.4c.1-.3.1-.4-.1-.7-.3-.2-.6-.3-.8-.3-.3 0-.5 0-.7.2a2 2 0 0 0-.6.7l-.4 1-.1 1.1c0 .4 0 .6.2.8.1.2.3.3.6.3zm3.2 3 1.8-7.8h.6l-.1 1 .8-.7c.3-.2.7-.4 1-.4.5 0 .9.2 1 .5.4.3.6.9.6 1.4-.1.5-.1 1-.3 1.4l-.5 1.1-.9.9a2 2 0 0 1-1 .3c-.4 0-.7 0-1-.3a2 2 0 0 1-.3-.6l-.3.4v.5l-.6 2.3zm3-3c.2 0 .4-.1.6-.3l.6-.7a4 4 0 0 0 .4-1 5 5 0 0 0 0-.9c.1-.9-.1-1.2-.7-1.2-.3 0-.5 0-.7.2l-.7.7-.5 1v1.1c-.1.3-.1.6 0 .8.3.2.5.3 1 .3zm5 .7c-.4 0-.8-.1-1-.3-.3-.3-.4-.6-.4-1v-.5l.1-.4.7-3.3h1l-.9 3.4v1.2l.8.2c.1 0 .4-.1.7-.3.2-.1.4-.4.7-.7l.5-1.5.5-2.3h.9l-1.2 5.4h-.7l.1-1-.5.5c-.1.2-.3.4-.6.4l-.7.2zm4.1-.1 1.2-5.4h.9l-.5 2.3h2.5l.5-2.3h.9l-1.2 5.4h-.9l.5-2.4h-2.5l-.5 2.4zm8.2.1c-.6 0-1-.2-1.3-.5-.5-.3-.6-.8-.6-1.5l.1-1.4.6-1c.2-.5.5-.8.9-1 .3-.1.7-.2 1-.2l.8.1.7.3-.3.6-.5-.1-.5-.1c-.4 0-.8.1-1 .4-.4.2-.7.6-.8 1a4 4 0 0 0-.2 1.4c0 .4.1.7.4 1 .2.1.4.2.8.2h.7a7 7 0 0 0 .6-.4v1h-.6l-.8.2zm2.4-.1 1.1-5.4h.9l-.7 2.6 2.6-2.6h1.1l-2.6 2.7 1.8 2.7h-1l-1.9-2.7-.4 2.7zm6.4.1c-.4 0-.7-.1-1-.3-.1-.3-.2-.6-.2-1v-.5l.1-.4.6-3.3h1l-.9 3.4v.7c0 .2 0 .4.2.5 0 .1.1.2.5.2.2 0 .5-.1.7-.3.3-.1.5-.4.9-.7l.4-1.5.5-2.3h.9l-1.2 5.4h-.6v-1l-.5.5-.5.4-.9.2zm7.5-6.2c-.5 0-1 0-1.2-.3-.2-.2-.3-.5-.3-.9a1 1 0 0 1-.1-.3h1v.7c.2.2.4.2.7.2.3 0 .6 0 .8-.2.2-.1.3-.2.4-.7h.8c0 .5-.3.8-.6 1.1-.3.4-.8.4-1.5.4zm-1.6 6.2c-.5 0-.8-.1-1-.3-.2-.3-.3-.6-.3-1V90l.7-3.3h.9l-.7 3.4-.1.7.1.5.6.2c.2 0 .5-.1.7-.3.3-.1.5-.4.8-.7l.5-1.5.5-2.3h.9l-1.2 5.4h-.7l.1-1-.5.5-.6.4-.7.2zm-45.6 11.9a4 4 0 0 1-1 0 3 3 0 0 1-.5-.4v-.7l.6.3 1 .1c.2 0 .6 0 .9-.3.2-.1.3-.4.3-.7.1-.2.1-.4-.1-.4-.2-.3-.4-.4-.8-.4h-.8l.2-.6h1.2l.5-.5.2-.5c0-.2 0-.4-.1-.5l-.7-.2-.7.1-.7.3-.3-.7a4 4 0 0 1 1.8-.4c.5 0 .9.1 1.2.3.3.2.4.5.4 1.1 0 .1-.1.4-.3.6-.3.4-.7.5-1 .6l.7.4c.2.2.2.5.2.8 0 .5-.2.9-.5 1.2-.4.4-1.1.5-1.7.5zm4.8 0c-.4 0-.8-.1-1-.4-.4-.3-.6-.8-.6-1.4l.4-1.4c.1-.5.2-.9.5-1.2l.8-.8a2 2 0 0 1 1-.3c.5 0 .7 0 1.1.3l.2.6.6-.8h.6l-1.2 5.3h-.6l.1-1-1 .9c-.2.1-.5.2-.9.2zm.3-.7c.2 0 .5 0 .7-.3l.6-.7a4 4 0 0 0 .5-1 3 3 0 0 0 0-.5 4 4 0 0 0 .2-.5c-.1-.4-.1-.6-.4-.8-.1-.2-.4-.3-.6-.3-.3 0-.5.1-.8.3a2 2 0 0 0-.5.6l-.4 1-.2 1.1c0 .4.1.7.4.8 0 .2.2.3.5.3zm3.7.6 1.1-5.3h1l-.7 2.6 2.6-2.6h1l-2.5 2.6 1.7 2.7h-1l-1.7-2.6-.7 2.6zm6.5.1c-.4 0-.7-.1-1-.4-.3-.3-.4-.8-.4-1.4 0-.5 0-1 .2-1.4l.5-1.2.8-.8a2 2 0 0 1 1.2-.3c.3 0 .6 0 .8.3l.5.6.3-.8h.7l-1.1 5.3h-.7l.1-1c-.3.4-.6.7-.9.9-.3.1-.6.2-1 .2zm.3-.7c.3 0 .5 0 .7-.3.3-.1.5-.4.7-.7a4 4 0 0 0 .4-1 3 3 0 0 0 .2-.5 4 4 0 0 0 0-.5c0-.4 0-.6-.2-.8-.3-.2-.5-.3-.8-.3-.3 0-.5.1-.7.3a2 2 0 0 0-.6.6l-.4 1-.1 1.1c0 .4 0 .7.2.8.1.2.3.3.6.3zm5 .7a4 4 0 0 1-.8 0 3 3 0 0 1-.7-.4v-.7l.5.3 1.1.1c.4 0 .7 0 .9-.3.3-.1.5-.4.5-.7 0-.2-.1-.4-.3-.4 0-.3-.4-.4-.8-.4h-.7l.3-.6h1l.6-.5.2-.5-.2-.5-.7-.2-.6.1-.7.3-.3-.7a4 4 0 0 1 1.7-.4c.6 0 .9.1 1.2.3.3.2.5.5.5 1.1 0 .1-.2.4-.4.6-.2.4-.5.5-1 .6l.9.4.1.8c0 .5-.3.9-.6 1.2-.3.4-1 .5-1.7.5zm3.2-.1 1.1-5.3h1l-.7 2.2h2.7l.4-2.2h1l-1.3 5.3h-.8l.5-2.4h-2.5l-.6 2.4zm7.6.1c-.4 0-.7 0-1-.3-.2-.2-.3-.6-.3-1v-.9l.9-3.2h.8l-.7 3.3-.1.7.1.5c.1.2.3.2.6.2.2 0 .4 0 .7-.2.3-.2.5-.4.7-.8.3-.4.5-.8.6-1.4l.5-2.3h.8l-1.1 5.3h-.7v-1c0 .3-.2.5-.4.7l-.6.3h-.8zm4.2-.1 1.1-5.3h.9l-.5 2.6 2.5-2.6h1l-2.6 2.6 1.8 2.7h-1l-1.9-2.6-.3 2.6zm0 0" style="fill:none;stroke:#fff;stroke-width:2;stroke-linecap:butt;stroke-linejoin:round;stroke-miterlimit:10;stroke-opacity:.6" transform="rotate(  340 392.192 102.476) translate(20.062657,13.375105)"/> <g style="fill:#007f00;fill-opacity:1" transform=" rotate(  340 392.192 102.476) ">  <use xlink:href="#a" x="370.7" y="93.5"/>  <use xlink:href="#b" x="376" y="93.5"/>  <use xlink:href="#c" x="381.8" y="93.5"/>  <use xlink:href="#d" x="387.8" y="93.5"/>  <use xlink:href="#e" x="392.4" y="93.5"/>  <use xlink:href="#c" x="398" y="93.5"/>  <use xlink:href="#k" x="404.1" y="93.5"/>  <use xlink:href="#q" x="409.7" y="93.5"/>  <use xlink:href="#o" x="361.6" y="105.5"/>  <use xlink:href="#p" x="367.2" y="105.5"/>  <use xlink:href="#r" x="372.8" y="105.5"/>  <use xlink:href="#e" x="377.7" y="105.5"/>  <use xlink:href="#p" x="383.3" y="105.5"/>  <use xlink:href="#b" x="389.1" y="105.5"/>  <use xlink:href="#c" x="394.9" y="105.5"/>  <use xlink:href="#f" x="400.9" y="105.5"/>  <use xlink:href="#g" x="405.5" y="105.5"/>  <use xlink:href="#b" x="410.3" y="105.5"/>  <use xlink:href="#h" x="416.1" y="105.5"/>  <use xlink:href="#i" x="370.9" y="117.4"/>  <use xlink:href="#e" x="375.3" y="117.4"/>  <use xlink:href="#g" x="381" y="117.4"/>  <use xlink:href="#e" x="385.9" y="117.4"/>  <use xlink:href="#i" x="391.5" y="117.4"/>  <use xlink:href="#c" x="396" y="117.4"/>  <use xlink:href="#b" x="402" y="117.4"/>  <use xlink:href="#g" x="407.8" y="117.4"/> </g></svg>