<svg xmlns="http://www.w3.org/2000/svg" xmlns:xlink="http://www.w3.org/1999/xlink" viewBox="0 0 497 279"> <defs>  <path d="M1 0v-7.1h4V0Zm.4-.5h3.1v-6.1h-3Zm.1 0" id="reuse-0"/> </defs> <defs overflow="visible" style="stroke:none">  <path id="i" d="M2 0c-.6 0-.9 0-1.2-.3C.6-.7.5-1 .5-1.7c0-.5 0-1 .2-1.5l.5-1.1c.2-.4.5-.7.8-.9a2 2 0 0 1 1.1-.3c.4 0 .6.1.9.3l.5.7.3-.9h.7L4.4 0h-.7l.1-1c-.3.3-.5.6-.9.8-.3.2-.6.2-.9.2Zm.1-.5c.4-.1.6-.2.9-.5l.6-.6a4 4 0 0 0 .4-1 3 3 0 0 0 .1-.7 4 4 0 0 0 0-.4c.1-.3.1-.5-.1-.7-.3-.2-.5-.3-.8-.3-.3 0-.5 0-.7.2a2 2 0 0 0-.6.7l-.4 1-.1 1.1c0 .4 0 .6.2.8.1.2.3.3.6.3Zm.1-.1"/>  <path id="h" d="m.3 0 1.1-5.4h.9L1.8-3h2.5l.5-2.4h.9L4.6 0h-1l.7-2.4H1.7L1.2 0Zm0 0"/>  <path id="g" d="M2.4 0c-.6 0-1 0-1.4-.3C.6-.8.5-1.3.5-2c0-.3 0-.8.2-1.2 0-.4.3-.8.5-1.1.2-.4.5-.7.8-.8a2 2 0 0 1 1.2-.4c.5 0 .8.2 1.1.5.3 0 .4.4.4.8 0 .3-.1.7-.3 1-.4.2-.6.4-1 .6-.6.2-1.2.3-1.9.3h-.1v.3c0 .5 0 .8.3 1 .2.3.5.4.9.4l.7-.1A5 5 0 0 0 4-1v.7a6 6 0 0 1-.7.3h-.9Zm-.9-3 1.3-.1.7-.4c.2-.1.3-.4.3-.5l-.1-.6-.7-.1c-.2 0-.5.1-.9.4L1.6-3Zm0 0"/>  <path id="f" d="M.3.1a2 2 0 0 1-.4 0L-.3 0v-.8l.2.1h.3l.5-.1c.2 0 .3-.2.4-.4l.4-1.1A49.1 49.1 0 0 0 3-7.2h3.5L5 0h-.9l1.4-6.3H3.7l-.3 1a217.3 217.3 0 0 1-1 3.4l-.5.9-.6 1h-1Zm0 0"/>  <use xlink:href="#reuse-0"/>  <path id="e" d="M3 0c-.5 0-.9 0-1.3-.1-.3-.3-.6-.6-.7-.9-.4-.5-.5-1-.5-1.7 0-.6.2-1.1.5-1.5 0-.6.4-.8.8-1.1.2-.1.8-.2 1.2-.2l.8.1.7.2-.3.8-.6-.2H3c-1-.1-1.5.6-1.5 1.9 0 .7 0 1 .3 1.4.3.5.7.6 1.2.6h.8l.6-.3v.8a2 2 0 0 1-.6.2H3Zm0 0"/>  <path id="d" d="M4.5-4.6H2.8V0h-.9v-4.6H.2v-.8h4.3Zm0 0"/>  <path id="c" d="M0-5.4h1l1 3 .4 1 .2.6.2-.7c0-.3.2-.5.2-.8l1-3h1.2L2.8.6c-.2.6-.4 1.1-.7 1.4-.3.3-.7.4-1.3.4H.1v-.9h.6c.3.2.6.2.7 0L2 .7l.2-.7Zm0 0"/>  <path id="b" d="M4-5.4h1L2.7-2.8 5.2 0h-1L1.7-2.7V0H.8v-5.4h1v2.6Zm0 0"/>  <path id="a" d="M3.1-3 1.3 0h-1l1.9-3.1a3 3 0 0 1-.8-.4A1.8 1.8 0 0 1 1-4C.8-4.4.7-4.7.7-5.1c.1-.7.3-1.2.7-1.5.6-.4 1.1-.5 2-.5h2V0h-.9v-3Zm1.4-3.4h-1c-.7 0-1.1.1-1.5.4-.2.1-.3.4-.3 1 0 .3.1.7.3 1 .4.2 1 .3 1.5.3h1Zm0 0"/>  <use xlink:href="#reuse-0"/> </defs> <image xlink:href="svg/9/44_26.jpg" width="497" height="279"/> <path d="m152.4 103-1.8 3h-1l1.9-3a3 3 0 0 1-.8-.5 1.8 1.8 0 0 1-.4-.6c-.3-.2-.3-.6-.3-.9 0-.8.3-1.3.7-1.6.5-.3 1.1-.4 2-.4h2v7h-.9v-3Zm1.4-3.2h-1c-.7-.1-1.1-.1-1.5.2-.2.2-.3.5-.3 1 0 .3 0 .6.4 1 .3.2.8.3 1.4.3h1Zm5.9.9h1l-2.3 2.5 2.5 2.8h-1l-2.5-2.7v2.7h-.9v-5.3h1v2.6Zm1.3 0h1l1 3 .5.8v.7l.4-.7.1-.8 1.1-3h1l-2.3 6c-.2.7-.5 1.1-.8 1.3-.2.3-.7.4-1.2.4h-.7v-.8h.6c.3.1.5.1.7-.1l.6-.7.2-.8Zm9.6.7H169v4.6h-1v-4.6h-1.7v-.7h4.3Zm3.1 4.7c-.4 0-.7 0-1.2-.3-.5-.2-.7-.5-.9-.8-.2-.5-.3-1-.3-1.6 0-.7.1-1.2.3-1.6.2-.4.5-.8 1-1l1.1-.1h.9l.6.3-.2.6-.6-.2h-.6c-1-.1-1.6.6-1.6 1.9 0 .7.1 1.2.4 1.6.2.3.6.5 1.1.5l.8-.1.6-.3v.8a2 2 0 0 1-.6.2l-.8.1Zm5.9-5.4h1l-2.5 2.5 2.6 2.8h-1l-2.4-2.7v2.7h-1v-5.3h1.1v2.6Zm0 0" style="fill:none;stroke-width:3;stroke-linecap:butt;stroke-linejoin:round;stroke:#fff;stroke-opacity:.6;stroke-miterlimit:10" transform=" rotate(  340 165.62 103.032) "/> <g style="fill:#222;fill-opacity:1" transform=" rotate(  340 165.62 103.032) ">  <use xlink:href="#a" x="149.3" y="106"/>  <use xlink:href="#b" x="155.7" y="106"/>  <use xlink:href="#c" x="161" y="106"/>  <use xlink:href="#d" x="166.1" y="106"/>  <use xlink:href="#e" x="170.7" y="106"/>  <use xlink:href="#b" x="175.5" y="106"/> </g> <path d="M179.3 68.4a2 2 0 0 1-.3 0h-.3v-1l.3.2h.8l.4-.6.4-1a49.1 49.1 0 0 0 .7-2.2l.4-1.3.3-1.3h3.6l-1.6 7.1h-1l1.6-6.3h-1.9l-.3 1a217.3 217.3 0 0 1-1 3.5l-.4 1c-.2.3-.4.5-.7.7-.2.2-.6.2-1 .2Zm8.7 0c-.7 0-1.1-.2-1.5-.4-.3-.5-.5-1-.5-1.6 0-.4 0-.8.2-1.3l.5-1.1.9-.8a2 2 0 0 1 1.1-.3c.5 0 .9 0 1.1.3.3.2.4.5.4 1 0 .2 0 .5-.2.8-.3.4-.6.6-1.1.8l-1.9.2h-.1v.4c.1.4.1.6.3 1 .2.1.5.2 1 .2h.5a5 5 0 0 0 .9-.3v.7a6 6 0 0 1-.8.3l-.8.1Zm-1-3.1h.2l1-.1c.4 0 .6-.2.9-.4.2-.1.3-.3.3-.6 0-.2 0-.3-.2-.4-.1-.2-.3-.2-.6-.2s-.6.1-.9.4c-.3.3-.5.8-.6 1.3Zm3.8 3L192 63h1l-.7 2.2h2.6l.5-2.2h.8l-1 5.3h-1.1l.6-2.3h-2.5l-.5 2.3Zm7.7.1c-.5 0-.8-.1-1-.4-.4-.3-.5-.8-.5-1.4 0-.6 0-1 .2-1.4.1-.5.3-.9.6-1.2.2-.4.5-.6.8-.8a2 2 0 0 1 1-.3c.4 0 .7 0 1 .3l.4.6.5-.8h.5l-1 5.3h-.8l.1-1-.8.8c-.3.2-.7.3-1 .3Zm.3-.7c.2 0 .4 0 .7-.3l.5-.7a4 4 0 0 0 .6-1 3 3 0 0 0 0-.7 4 4 0 0 0 .2-.3c-.1-.3-.1-.7-.4-.8-.1-.2-.4-.3-.7-.3-.2 0-.5 0-.7.4a2 2 0 0 0-.6.5c-.1.3-.3.6-.3 1l-.2 1.1c.1.4.1.6.2.8.2.2.4.3.7.3Zm0 0" style="fill:none;stroke-width:2;stroke-linecap:butt;stroke-linejoin:round;stroke:#fff;stroke-opacity:.6;stroke-miterlimit:10" transform=" rotate(  340 191.039 65.3246) "/> <g style="fill:#4d80b3;fill-opacity:1" transform=" rotate(  340 191.039 65.3246) ">  <use xlink:href="#f" x="179" y="68.3"/>  <use xlink:href="#g" x="185.5" y="68.3"/>  <use xlink:href="#h" x="190.5" y="68.3"/>  <use xlink:href="#i" x="196.5" y="68.3"/> </g></svg>