<svg xmlns="http://www.w3.org/2000/svg" xmlns:xlink="http://www.w3.org/1999/xlink" viewBox="0 0 497 279"> <defs overflow="visible" style="stroke:none">  <path d="m.2 0 1.2-5.4h.8l-.2 1 .5-.6a2 2 0 0 1 .6-.3l.9-.2c.3 0 .6.1.9.5.1 0 .4.4.4.9v.4l-.2.5L4.4 0h-.9l.7-3.4v-.4l.2-.2c-.1-.5-.3-.7-.8-.7-.2 0-.4 0-.6.2-.3.2-.6.5-.8.8-.2.3-.4.8-.5 1.4L1.2 0Zm2.3 0C1.9 0 1.4 0 1-.4.7-.8.5-1.3.5-2l.1-1.2a4 4 0 0 1 .5-1.1c.3-.3.5-.7.9-.8.3-.2.7-.3 1.2-.3.6 0 1 .2 1.4.4.4.5.6 1.1.6 1.6L5-2a4 4 0 0 1-.5.9c-.2.5-.5.8-.8 1L2.5 0Zm0-.6c.5-.1.6-.1 1-.4.1-.2.3-.5.5-1 .2-.3.3-.8.3-1.4L4.2-4a1 1 0 0 0-.4-.5l-.6-.2c-.4 0-.7.1-1 .4-.2.2-.5.6-.6 1A4 4 0 0 0 1.4-2c0 .5 0 .8.3 1 .2.2.5.3.8.3ZM.4 0 2-7.1h1.2l.7 5.8 3.2-5.8h1.3L7 0H6l1-4.2a47.9 47.9 0 0 1 .4-2L4 0h-.7l-.8-6.3-.1.6-.1.7-.1.7-1 4.3Zm1.1-.5-1-2.2v-.1l1.7-1.9.6.4-1.5 1.6.9 1.9Zm2 0-1.2-2v-.2l1.9-2 .5.4-1.4 1.8L4-.8ZM.3 0l1.1-5.4h.9L1.8-3h2.5l.5-2.4h.9L4.6 0h-1l.7-2.4H1.7L1.2 0Zm1.2 0a4 4 0 0 1-.8 0A3 3 0 0 1 0-.2V-1l.7.2.9.2c.4 0 .8-.1 1-.4.4 0 .4-.3.4-.6 0-.4 0-.4-.2-.6L2-2.4h-.8l.2-.8h1.1c.3 0 .5-.2.6-.3l.2-.5c0-.3 0-.4-.2-.5-.2-.2-.4-.2-.6-.2h-.7l-.8.4L.8-5a4 4 0 0 1 1.8-.5c.4 0 .9.2 1.1.5.3 0 .6.4.6.8s-.3.7-.5.9c-.2.2-.5.4-.8.5.2 0 .4.2.6.4l.2.7c0 .5-.2 1-.5 1.3-.4.3-1 .4-1.9.4ZM.3 0l1.1-5.4h.9l-.6 2.6 2.5-2.6h1.1L2.7-2.7 4.5 0h-1L1.6-2.7 1.2 0ZM2 0c-.6 0-.9 0-1.2-.3C.6-.7.5-1 .5-1.7c0-.5 0-1 .2-1.5l.5-1.1c.2-.4.5-.7.8-.9a2 2 0 0 1 1.1-.3c.4 0 .6.1.9.3l.5.7.3-.9h.7L4.4 0h-.7l.1-1c-.3.3-.5.6-.9.8-.3.2-.6.2-.9.2Zm.1-.5c.4-.1.6-.2.9-.5l.6-.6a4 4 0 0 0 .4-1 3 3 0 0 0 .1-.7 4 4 0 0 0 0-.4c.1-.3.1-.5-.1-.7-.3-.2-.5-.3-.8-.3-.3 0-.5 0-.7.2a2 2 0 0 0-.6.7l-.4 1-.1 1.1c0 .4 0 .6.2.8.1.2.3.3.6.3ZM2 0C1.1 0 .4 0 0-.2v-.9a4 4 0 0 0 2 .5l1-.2.7-.6.2-.6c0-.6-.2-1-.4-1.1l-1.2-.1h-1l.1-.8h1c.3 0 .6 0 .9-.2.3 0 .5-.2.7-.5.2-.2.3-.5.3-.8 0-.5 0-.6-.3-.8l-.8-.2c-.2 0-.6 0-.9.2a4 4 0 0 0-.8.3l-.4-.6a4 4 0 0 1 2.3-.6c.6 0 1 .1 1.4.4.2.3.5.7.5 1.1 0 .7-.3 1-.5 1.3-.5.4-.8.6-1.4.7.4 0 .7.3 1 .5.3.3.4.6.4 1.2a2 2 0 0 1-.3 1c-.2.3-.6.6-1 .8-.4.2-1 .3-1.5.3Zm0 0"/>  <path id="v" d="m-.2 2.4 1.6-7.8h.7v1l.7-.6c.3-.3.7-.5 1-.5.5 0 .8.2 1 .5.5.3.6.8.6 1.4-.1.5-.1 1-.3 1.4L4.6-1l-.8.8a2 2 0 0 1-1.1.3C2.3 0 2 0 1.8-.2a2 2 0 0 1-.5-.6v.4L1 .1.7 2.4Zm2.8-3c.4 0 .5-.1.7-.4.3 0 .5-.3.7-.6a4 4 0 0 0 .3-1 5 5 0 0 0 .1-.9c0-.9-.3-1.2-.9-1.2-.2 0-.4 0-.5.2l-.8.7-.4 1c-.2.3-.2.7-.2 1.1 0 .3 0 .6.2.8.2.2.5.3.8.3Zm0 0"/>  <path id="u" d="M-.3 2.4h-.3l-.4-.1v-.7h.7c.3.1.5.1.7-.1.2-.2.4-.5.5-.8l.4-.6-.8-5.5h.9l.3 2.7v.7l.2.7v.6A28.4 28.4 0 0 1 2.5-2c-.1 0 .1-.3.2-.4l1.5-3h1L1.7 1c-.1.4-.4.8-.7 1-.4.3-.8.4-1.2.4Zm0 0"/>  <path id="t" d="m.3 0 1.1-5.3h1.2L3-1.1l2.5-4.2h1.2L5.6 0h-.8l.7-3 .1-.9.2-.6L3.3 0h-.7L2-4.5l-.3.7v.8L1 0Zm0 0"/>  <path id="s" d="m-.6 0 4-7.1h.8L5 0h-.7L4-2.2H1.6L.4 0ZM2-3h1.9l-.2-1.5v-1.7h-.2a14 14 0 0 1-.3.8l-.4 1Zm0 0"/>  <path d="M1 0v-7.1h4V0Zm.4-.5h3.1v-6.1h-3Zm.1 0"/>  <path id="r" d="m3-.6-.7-.6L4.1-3l-1-2.3.9-.4L5.2-3ZM.6-.7 0-1.2l1.8-2-1-2.2.9-.3 1.2 2.4v.3Zm.1 0"/>  <path id="q" d="M3 .1C2.2.1 1.7 0 1.2-.5.8-.9.6-1.5.6-2.3c0-.6 0-1 .2-1.6l.7-1.4a3 3 0 0 1 1-.9L4-6.5h.8c.2 0 .5.2.7.3l-.3.8-.5-.2H4c-.5-.1-1 0-1.3.3A3 3 0 0 0 2-4l-.3 1.7c0 .5 0 .9.3 1.1.3.3.6.4 1 .4h1a9 9 0 0 0 .6-.5v1.1L4 0 2.9.1Zm0 0"/>  <path id="p" d="M5.8 0C5 0 4.4 0 4-.5c-.3-.5-.5-1.1-.5-1.9v-.5H2L1.4 0h-1l1.2-6.4h1.1l-.4 2.7h1.3c.4-1.1.7-1.8 1.2-2.1.5-.5 1-.7 1.7-.7.8 0 1.5.2 1.8.7.3.4.5 1 .5 1.8 0 .5 0 1-.2 1.5 0 .5-.3 1-.5 1.3A3 3 0 0 1 7-.2c-.3.2-.7.2-1.2.2Zm0-.7c.4-.1.7-.2 1-.5.3-.3.5-.7.7-1.2.2-.5.3-1 .3-1.8 0-.4-.1-.8-.4-1-.2-.3-.4-.4-.9-.4-.3 0-.5 0-.8.3l-.7.7a4 4 0 0 0-.3 1.1l-.2 1.2c0 .3.1.8.3 1.1.3.3.6.4 1 .4Zm0-.1"/>  <path id="o" d="M-.7 0 4-8.6h1L6.3 0H5l-.2-2.7h-3L.6 0Zm3.1-3.6h2.3l-.2-1.8a54.1 54.1 0 0 1-.2-2l-.5 1-.5 1Zm0 0"/>  <path id="n" d="M1.8-.6.5-3.2v-.3l2.3-2.2.5.7-1.7 1.8 1 2.2Zm2.3 0L3-3v-.2l2-2.4.6.6L4-3.1 4.9-1Zm0 0"/>  <path id="m" d="m.3 0 1.4-6.4h1l-.6 3L5-6.3h1.4L3.2-3.2 5.4 0H4L2.1-3.2 1.4 0Zm0 0"/>  <path id="l" d="m-.3 2.9 2-9.3h.9l-.2 1.2a5 5 0 0 1 1.1-1 2 2 0 0 1 1.1-.3c.5 0 1 .1 1.4.5.2.4.4 1 .4 1.7 0 .5-.1 1.1-.4 1.6 0 .7-.2 1-.5 1.5l-1 1c-.4.2-.8.2-1.3.2-.4.1-.8.1-1-.2a2.3 2.3 0 0 1-.6-.8A12.4 12.4 0 0 1 1.3.1L.8 3ZM3.1-.7c.4-.1.7-.3 1-.4l.5-.8.5-1.1.2-1.4c0-.8-.4-1.3-1-1.3l-.9.3-.7.8L2-3.4V-2c0 .3 0 .7.2.9.2.1.5.4 1 .4Zm0-.1"/>  <path id="k" d="m.3 0 1.4-6.5h1l-.3 1.2.6-.6.7-.5a2 2 0 0 1 1-.2c.5 0 .9.2 1.2.4.3.3.4.7.4 1.2v.6l-.1.5L5.3 0H4.2l.9-4v-1c.1-.4-.1-.6-.6-.6s-.7 0-1 .3c-.3.1-.6.3-.9.8L2-2.8 1.4 0Zm0 0"/>  <path id="j" d="M4.3-7.3c-.7 0-1.2-.1-1.3-.4-.4-.2-.6-.6-.6-1v-.4h1.1v.3c-.1.2-.1.4.1.6l.8.2c.3 0 .6-.1.9-.3.2 0 .4-.4.5-.7h1c-.1.4-.4.9-.7 1.2-.4.4-1.1.5-1.8.5ZM2.3.1C1.8.1 1.3 0 1-.3.8-.6.7-1 .7-1.5V-2l.1-.5.8-4h1.1l-.9 4.2a4 4 0 0 0 0 .7v.6c.3.2.5.3.8.3l.8-.3c.4-.2.7-.5 1-1L5-3.7l.6-2.7h1L5.2 0h-.8l.1-1.2-.7.6-.6.6a2 2 0 0 1-1 .1Zm0 0"/>  <path id="i" d="M2.8.1C2.2.1 1.7 0 1.3-.3 1-.6.7-1.1.7-1.7a5 5 0 0 1 .1-.6l.2-.6.6-3.5h1.1l-.6 2.8.6-.1h.7c.6-.1 1.1-.1 1.4.3.4.3.5.8.5 1.3 0 .4 0 .8-.2 1.1a2 2 0 0 1-.8.8c-.4.2-.9.3-1.5.3ZM6 0l1.3-6.4h1L7 0ZM2.9-.8c.5 0 .9 0 1-.2.4-.4.5-.7.5-1-.1-.3-.2-.6-.4-.7C3.8-3 3.5-3 3-3a6 6 0 0 0-.4 0 7 7 0 0 0-.7.2v.6l-.2.4c.1.3.1.6.3.8.2.2.5.3 1 .3Zm0 0"/>  <path id="h" d="M2.9.1C2.2.1 1.7 0 1.3-.3 1-.6.7-1.1.7-1.7v-.6l.3-.6.6-3.5h1.1l-.6 2.8.7-.1h.7c.7-.1 1.3-.1 1.6.3.3.4.4.8.4 1.3 0 .4 0 .8-.3 1.1-.2.4-.5.6-.8.8-.4.2-1 .3-1.5.3Zm0-.8C3.6-.8 4-1 4.2-1.1c.2-.3.3-.5.3-.9 0-.3-.1-.5-.3-.7l-1-.2h-.7l-.5.1v.6l-.3.4c.1.3.1.5.3.7.2.2.5.4 1 .4ZM3-.8"/>  <path id="g" d="M0 0h-.5v-1l.4.3.6-.4c.2-.2.5-.4.5-.8a14 14 0 0 0 .6-1.4l.5-1.4a4 4 0 0 1 .6-1 2 2 0 0 1 .8-.6l1.2-.2h.7l.7.3L4.8 0h-1l1-5.6h-.3c-.3 0-.6 0-.8.2l-.7.8L2.5-3A17 17 0 0 1 2-1.3c-.4.3-.6.8-1 1-.2.3-.6.4-1 .4Zm0 0"/>  <path id="f" d="m.3 0 1.4-6.4h1l-.4 2.7h2.9l.6-2.8h1L5.6 0H4.5L5-2.9H2L1.4 0Zm0 0"/>  <path id="e" d="M3 0c-.8 0-1.4 0-1.8-.5C.8-1 .6-1.6.6-2.4c0-.5 0-1 .2-1.4.1-.5.2-1 .6-1.4.2-.4.6-.7 1-1 .4-.1.9-.2 1.4-.2.7-.1 1.3.1 1.7.6.5.4.7 1 .7 1.8 0 .5 0 1-.2 1.4l-.6 1.4-1 1C4 0 3.5 0 3 0Zm0-.7c.4-.1.8-.2 1-.5.5-.2.7-.6.9-1.1a5.3 5.3 0 0 0 .2-1.9 2 2 0 0 0-.1-.7l-.4-.5c-.2-.2-.6-.2-.8-.2-.4 0-.8.1-1.1.4-.4.3-.7.7-.8 1.2-.2.5-.3 1-.3 1.7 0 .5.2.8.4 1.1.3.3.6.4 1 .4Zm0-.1"/>  <path id="d" d="M2.3.1C1.8.1 1.3 0 1-.3.8-.6.7-1 .7-1.5V-2l.1-.5.8-4h1.1l-.9 4.2a4 4 0 0 0 0 .7v.6c.3.2.5.3.8.3l.8-.3c.4-.2.7-.5 1-1L5-3.7l.6-2.7h1L5.2 0h-.8l.1-1.2-.7.6-.6.6a2 2 0 0 1-1 .1Zm0 0"/>  <path id="c" d="M4.7 2.2 5.2.1C5 0 4.8-.1 4.7-.3l-.2-.9-.6.7-.7.4c-.3.2-.6.2-1 .2s-.7-.1-1-.4C.8-.6.7-1 .7-1.5V-2l.1-.5.8-4h1.1l-.9 4.2a4 4 0 0 0 0 .7v.6c.3.2.5.3.8.3l.8-.3c.4-.2.7-.5 1-1L5-3.7l.6-2.7h1L5.6-2v1.1l.4.2h.2l.3-.1-.7 3Zm0 0"/>  <path id="b" d="M2.3.1c-.5 0-1-.1-1.2-.5-.4-.4-.5-1-.5-1.7 0-.6 0-1.1.2-1.7l.7-1.4 1-1c.3-.2.8-.3 1.2-.3.5 0 .8 0 1 .3l.8.8.3-1h.8L5.2 0h-.8l.1-1.2-1 1a2 2 0 0 1-1.2.2Zm.4-.8c.3-.1.5-.3.8-.4.3-.2.6-.5.8-.9l.5-1.2.2-.6v-.6c0-.3-.1-.6-.3-.9-.2-.2-.5-.4-.9-.4-.3 0-.6.1-.8.3l-.7.8-.5 1.2L1.7-2c0 .4 0 .7.2 1 .2 0 .4.2.8.2Zm0-.1"/>  <path id="a" d="m.5 0 1.8-8.6h1l-.6 3.7h3.7l.8-3.7h1L6.4 0h-1l.7-4H2.4l-.8 4Zm0 0"/>  <path d="M1.1 0v-8.6h5V0Zm.6-.6h3.8V-8H1.7Zm0 0"/> </defs> <image xlink:href="svg/9/47_10.jpg" width="497" height="279"/> <path d="m171.3 238.6 1.9-8.6h1l-.7 3.6h3.7l.8-3.6h1l-1.7 8.6h-1.1l.8-4h-3.7l-.9 4zm10 .1c-.5 0-1-.2-1.2-.7-.4-.3-.5-.9-.5-1.5s0-1.2.2-1.7l.7-1.5 1-1c.3-.1.8-.3 1.2-.3.5 0 .8.1 1 .3l.8.8.3-1h.8l-1.4 6.5h-.8l.2-1.2-1.1.9a2 2 0 0 1-1.3.4zm.4-.9c.3 0 .6-.1.8-.3.3-.2.6-.5.8-.9l.6-1.2v-1.2c.1-.4.1-.7-.1-1-.3-.2-.6-.2-.9-.2-.4-.1-.7 0-1 .2l-.5.8-.6 1-.1 1.5c0 .4 0 .8.2 1 .2.2.5.3.8.3zm8.8 3 .5-2.2c-.2 0-.4-.2-.5-.3l-.2-1-.6.7-.7.5-.9.2c-.5 0-.9-.2-1.1-.4-.4-.3-.5-.7-.5-1.3v-.4l.1-.6.8-3.9h1.1l-.8 4a4 4 0 0 0-.1.9l.1.6.7.2c.3 0 .5 0 .9-.3.3-.2.6-.5.9-1l.6-1.5.6-3h1l-1 4.7v1l.5.1h.4l-.7 2.9zm4.8-2.1c-.5 0-1-.2-1.3-.4-.2-.3-.4-.7-.4-1.3v-.4l.3-.6.7-3.9h1l-.7 4a4 4 0 0 0-.1.9v.6l.8.2c.2 0 .4 0 .8-.3l1-1 .6-1.5.6-3h1l-1.4 6.6h-.8v-1.2l-.4.6-.8.5a2 2 0 0 1-1 .2zm7.6-.1c-.7 0-1.3-.2-1.7-.6-.5-.5-.7-1-.7-1.8 0-.5 0-1 .2-1.5.1-.5.3-1 .6-1.3l1-1c.4-.2.9-.4 1.4-.4.8 0 1.4.3 1.8.7.4.4.5 1 .5 1.8.1.5.1 1 0 1.5-.2.5-.4 1-.7 1.3l-1 1c-.3.2-.9.3-1.3.3zm0-.8c.5 0 .9-.2 1.1-.4.3-.4.6-.7.8-1.2a5.3 5.3 0 0 0 .2-1.8 2 2 0 0 0 0-.7l-.6-.7h-.7c-.4 0-.7.1-1.1.4-.3.3-.6.6-.8 1.2l-.2 1.6c0 .5 0 .9.3 1.2.3.2.6.4 1.1.4zm4.1.8 1.4-6.6h1l-.4 2.8h2.9l.6-2.7h1l-1.2 6.5h-1.1l.4-3h-2.9l-.7 3.1zm9.2.1c-.5 0-1-.2-1.2-.7-.4-.3-.5-.9-.5-1.5s0-1.2.2-1.7l.7-1.5 1-1c.3-.1.8-.3 1.2-.3.5 0 .8.1 1 .3l.8.8.3-1h.8l-1.4 6.5h-.8l.1-1.2-1 .9a2 2 0 0 1-1.2.4zm.4-.9c.3 0 .6-.1.8-.3.3-.2.6-.5.8-.9l.5-1.2.3-.7v-.5c-.1-.4-.2-.7-.4-1-.2-.2-.6-.2-.9-.2-.3-.1-.6 0-.7.2-.4.2-.6.4-.8.8l-.5 1-.1 1.5c0 .4 0 .8.2 1 .2.2.4.3.8.3zm4.1.8h-.5v-1l.4.1c.2 0 .4 0 .6-.2l.6-.8a14 14 0 0 0 .5-1.5l.7-1.4a4 4 0 0 1 .4-1 2 2 0 0 1 .8-.5c.3-.3.7-.3 1.2-.3h.8l.7.3-1.4 6.3h-1l1.2-5.6h-.5c-.3 0-.6 0-.8.1-.2.2-.4.5-.6.9l-.6 1.6a17 17 0 0 1-.5 1.6c-.3.5-.7.8-.9 1-.3.4-.6.5-1.1.5zm9.4.1c-.6 0-1.1-.2-1.5-.5-.4-.2-.6-.8-.6-1.4v-.5l.1-.6.9-3.7h.9l-.6 3h.7l.7-.3c.8.1 1.3.2 1.6.6.3.3.5.7.5 1.2 0 .4-.1.7-.3 1-.2.5-.5.8-.9 1-.4.1-.9.2-1.5.2zm.1-.9c.6 0 1-.1 1.2-.4.2-.2.3-.4.3-.8 0-.3 0-.6-.3-.7-.1-.2-.4-.3-.9-.3h-.7l-.6.3-.2.4v.4c0 .3 0 .6.2.8.3.2.6.3 1.1.3zm3.7.8 1.3-6.6h1l-.4 2.8h2.9l.6-2.7h1l-1.3 6.5h-1l.5-3h-2.9l-.8 3.1zm9.7.1c-.7 0-1.2-.2-1.6-.5-.3-.2-.5-.7-.5-1.4a5 5 0 0 1 0-.5l.1-.6.8-3.7h1l-.6 3h.7l.5-.3c.8.1 1.3.2 1.6.5.3.3.4.8.4 1.3 0 .4 0 .7-.2 1a2 2 0 0 1-.8 1c-.4.1-1 .2-1.4.2zm3.1-.1 1.4-6.6h.9l-1.2 6.6zm-3-.8c.3 0 .7-.1.9-.4.3-.2.4-.4.4-.8s0-.6-.3-.8l-.9-.2a6 6 0 0 0-.6 0 7 7 0 0 0-.5.3l-.2.4v.4c0 .4.1.6.3.8.1.2.4.3.8.3zm10.1-6.5c-.8 0-1.2-.1-1.5-.4-.3-.3-.3-.6-.3-1v-.6h1v.5c-.2.2-.2.4 0 .5.2.2.5.2.8.2.4 0 .7 0 1-.2.2-.1.4-.4.5-.9h1c-.1.6-.4 1-.8 1.4-.4.2-1 .5-1.7.5zm-2 7.4c-.7 0-1.1-.2-1.3-.4-.2-.3-.5-.7-.5-1.3v-.4l.4-.6.6-3.9h1.1l-.7 4a4 4 0 0 0-.1.9v.6l.7.2c.3 0 .6 0 1-.3l.7-1c.4-.2.6-.9.7-1.5l.6-3h1l-1.2 6.6h-1l.2-1.2-.7.6-.6.5a2 2 0 0 1-1 .2zM165.6 252.9l1.4-6.5h1l-.3 1.2.6-.6.8-.5a2 2 0 0 1 .9-.2c.5 0 1 .1 1.2.4.3.3.4.7.4 1.3v1l-1.1 3.9h-.8l.6-4v-.6l.3-.3c-.1-.5-.4-.7-.9-.7-.3 0-.6 0-.9.2-.3.2-.6.5-.8 1-.3.2-.5.9-.7 1.5l-.6 3zm9 .1c-.6 0-1-.2-1.3-.6-.3-.3-.3-.9-.3-1.6-.1-.6-.1-1.2 0-1.7.2-.5.5-1 .7-1.4l1-1c.4-.2.8-.4 1.3-.4.4 0 .8.1 1 .4l.6.7.6-1h.7l-1.4 6.6h-.8l.1-1.3-1 1a2 2 0 0 1-1.2.3zm.3-.9c.3 0 .6 0 .9-.3l.8-.9.4-1.2.2-.7v-.5c.1-.4.1-.7-.2-1-.3-.1-.5-.2-.9-.2l-.9.2c-.2.2-.5.5-.6.8l-.6 1.2-.1 1.3c.1.5.1.8.3 1 .2.2.4.3.7.3zm3.9 3.7 2-9.4h.9l-.2 1.2a5 5 0 0 1 1.1-.9 2 2 0 0 1 1.1-.4c.5 0 1 .2 1.3.7.3.3.4.9.4 1.5s0 1.2-.2 1.7c-.1.6-.2 1-.6 1.5l-1 1c-.4.1-.8.3-1.3.3-.3 0-.8-.1-1-.3a2.3 2.3 0 0 1-.6-.8 12.3 12.3 0 0 1-.3 1l-.5 3zm3.4-3.8c.4.1.6.1 1-.2l.5-.8.5-1.2.2-1.3c0-.8-.4-1.3-1-1.3l-.9.3-.7.8-.6 1.2-.2 1.3c0 .4.1.7.3 1 .2.2.5.2 1 .2zm4.2.9 1.3-6.5h1l-.5 3.1 2.9-3h1.3l-3.1 3 2.1 3.5h-1.3l-2-3.3-.7 3.2zm10.4-.7-1.3-2.6v-.1l2.3-2.3.5.5-1.7 2 1 2.2zm2.3 0L198 250v-.3l2-2.4.6.4-1.7 2.3 1.1 1.9zm.9.7 4.7-8.6h1.1l1 8.7h-.9l-.4-2.8h-2.9l-1.4 2.8zm3.1-3.6h2.3l-.2-1.8a54.1 54.1 0 0 1-.2-2l-.4 1-.6 1zm4.7 3.6 1.4-6.5h1l-.5 2.7h3l.6-2.7h1L213 253h-1.1l.6-3h-3l-.7 2.9zm12.6.1c-.7 0-1.3-.3-1.7-.7-.4-.5-.6-1-.6-1.8v-.5h-1.3l-.8 2.9h-1l1.3-6.5h1.1l-.4 2.7h1.3c.3-.9.6-1.6 1.2-2 .5-.5 1-.7 1.7-.7.8 0 1.4.2 1.8.6.3.5.5 1 .5 1.8 0 .6 0 1-.2 1.6-.1.5-.3.9-.6 1.3a3 3 0 0 1-1 1c-.2.1-.7.3-1.2.3zm.1-1c.4.1.7 0 1-.3.3-.3.5-.7.7-1.2l.2-1.8c0-.4 0-.7-.3-1-.1-.4-.5-.6-.9-.6l-.9.4-.6.8a4 4 0 0 0-.4 1l-.1 1.3c0 .4.1.8.3 1.1.2.3.6.3 1 .3zm7.9-6.4c-.7 0-1.1-.1-1.4-.4-.3-.2-.5-.6-.5-1v-.4h1.1v.2c-.1.3-.1.5.1.6.2.2.4.2.8.2s.7 0 .9-.2c.2-.1.4-.4.5-.8h1c-.1.5-.4 1-.7 1.2-.4.4-1 .6-1.8.6zm-2 7.4c-.5 0-1-.1-1.2-.4-.3-.3-.4-.7-.4-1.2v-.4l.1-.6.8-4h1.1l-.9 4a4 4 0 0 0 .1 1v.5c.2.2.4.2.7.2.2 0 .5 0 .8-.3.5-.1.7-.5 1-.8l.5-1.8.7-2.8h1l-1.4 6.6h-.8l.1-1.3-.6.6-.7.5a2 2 0 0 1-1 .2zm7.6 0c-.7 0-1.3-.2-1.7-.6-.5-.4-.7-1-.7-1.8 0-.6.1-1.1.4-1.6 0-.5.2-1 .5-1.4a3 3 0 0 1 1.1-1c.4-.1.9-.2 1.4-.2h.8l.8.2-.3 1-.6-.4h-.7c-.5 0-.9 0-1.2.4a3 3 0 0 0-.8 1.3c-.2.5-.3 1.1-.3 1.7 0 .4.1.9.4 1.1.2.3.6.4.9.4l1-.1a9 9 0 0 0 .7-.3v1l-.8.1-.9.2zm2.8-.1 1.4-6.5h1l-.6 3.1 3-3h1.3l-3.2 3 2.1 3.5h-1.2l-2-3.3-.7 3.2zm7.8.1c-.6 0-.9-.1-1.2-.4-.3-.3-.4-.7-.4-1.2v-.4l.1-.6.9-4h1l-.8 4a4 4 0 0 0-.2 1l.2.5c.2.2.4.2.8.2.2 0 .4 0 .8-.3.2-.1.6-.5.8-.8.4-.5.5-1 .7-1.8l.6-2.8h1l-1.3 6.6h-.9l.1-1.3-.6.6-.7.5a2 2 0 0 1-1 .2zm9-7.4c-.7 0-1.2-.1-1.6-.4-.2-.2-.3-.6-.3-1v-.4h1v.2c-.1.3-.1.5.1.6.2.2.5.2.8.2.4 0 .7 0 1-.2.2-.1.4-.4.4-.8h1c0 .5-.3 1-.7 1.2-.3.4-1 .6-1.7.6zm-2 7.4c-.6 0-1.1-.1-1.3-.4-.3-.3-.4-.7-.4-1.2v-.4l.3-.6.7-4h1l-.7 4a4 4 0 0 0-.2 1c0 .2 0 .4.2.5.1.2.3.2.6.2s.6 0 .9-.3c.3-.1.6-.5.9-.8.3-.5.4-1 .6-1.8l.6-2.8h1l-1.2 6.6h-1l.2-1.3h-.1l-.5.6-.7.5a2 2 0 0 1-1 .2zm7.5-.8-.5-.5 1.7-1.9-1-2.3.9-.3 1.2 2.6v.2zm-2.1 0-.7-.5 1.7-2-1-2.3.9-.2 1.2 2.4v.2zm-.1 0" style="fill:none;stroke:#fff;stroke-width:2;stroke-linecap:butt;stroke-linejoin:round;stroke-miterlimit:10;stroke-opacity:.6" transform="rotate(  340 214.242 150.503) translate(0,-92.211864)"/> <g style="fill:#007f00;fill-opacity:1" transform=" rotate(  340 214.242 150.503) ">  <use xlink:href="#a" x="170.8" y="146.3"/>  <use xlink:href="#b" x="179" y="146.3"/>  <use xlink:href="#c" x="185.8" y="146.3"/>  <use xlink:href="#d" x="193" y="146.3"/>  <use xlink:href="#e" x="199.9" y="146.3"/>  <use xlink:href="#f" x="206.7" y="146.3"/>  <use xlink:href="#b" x="213.9" y="146.3"/>  <use xlink:href="#g" x="220.7" y="146.3"/>  <use xlink:href="#h" x="227.2" y="146.3"/>  <use xlink:href="#f" x="233.5" y="146.3"/>  <use xlink:href="#i" x="240.7" y="146.3"/>  <use xlink:href="#j" x="249.5" y="146.3"/>  <use xlink:href="#k" x="165.3" y="160.7"/>  <use xlink:href="#b" x="172.3" y="160.7"/>  <use xlink:href="#l" x="179.1" y="160.7"/>  <use xlink:href="#m" x="186" y="160.7"/>  <use xlink:href="#glyph0-14" x="191.9" y="160.7"/>  <use xlink:href="#n" x="195" y="160.7"/>  <use xlink:href="#o" x="200.7" y="160.7"/>  <use xlink:href="#f" x="207.5" y="160.7"/>  <use xlink:href="#p" x="214.7" y="160.7"/>  <use xlink:href="#j" x="224.1" y="160.7"/>  <use xlink:href="#q" x="231.1" y="160.7"/>  <use xlink:href="#m" x="236.5" y="160.7"/>  <use xlink:href="#d" x="242.3" y="160.7"/>  <use xlink:href="#j" x="249.3" y="160.7"/>  <use xlink:href="#r" x="256.2" y="160.7"/> </g> <path d="m76 72.7 3.7-7h1.1l.8 6.9h-.8l-.3-2.1H78l-1.1 2.2zm2.4-3h2l-.2-1.5v-1.6H80a14 14 0 0 1-.3.8l-.4.9zm4 3 1.1-5.3h1.2l.5 4.3 2.5-4.3h1.1l-1 5.3h-1l.8-3 .2-.8.1-.7-2.5 4.5h-.7l-.6-4.5-.2.8v.7l-.8 3zm6.5 2.5h-.4l-.3-.2v-.7l.3.1h.3c.3 0 .5 0 .7-.2l.6-.8.3-.6-.8-5.4h.9l.3 2.6v.7l.2.8v.5a28.3 28.3 0 0 1 .6-1l.2-.7 1.5-3h1l-3.4 6.5c-.3.4-.6.7-.9.9-.3.3-.7.6-1.1.6zm4.7 0 1.6-7.8h.7l-.1 1 .8-.8c.4-.2.7-.3 1-.3.5 0 .8.1 1 .5.4.2.6.7.6 1.2-.2.6-.2 1.1-.3 1.5l-.5 1.2c-.2.4-.5.6-.8.8a2 2 0 0 1-1.1.3c-.5 0-.7 0-1-.2a2 2 0 0 1-.3-.7l-.2.5v.4l-.7 2.4zm2.8-3c.3-.1.6-.2.7-.4l.6-.6a4 4 0 0 0 .4-1 5 5 0 0 0-.1-1c.2-.9 0-1.2-.6-1.2l-.7.3c-.3.1-.5.4-.7.6l-.5 1.1-.1 1c0 .4 0 .6.2.8.2.2.5.3.8.3zm0-.1" style="fill:none;stroke:#fff;stroke-width:2;stroke-linecap:butt;stroke-linejoin:round;stroke-miterlimit:10;stroke-opacity:.6" transform=" rotate(  340 87.9523 69.7474) "/> <g style="fill:#4c7fb3;fill-opacity:1" transform=" rotate(  340 87.9523 69.7474) ">  <use xlink:href="#s" x="76.5" y="72.7"/>  <use xlink:href="#t" x="82.1" y="72.7"/>  <use xlink:href="#u" x="89.1" y="72.7"/>  <use xlink:href="#v" x="93.8" y="72.7"/> </g></svg>