<svg xmlns="http://www.w3.org/2000/svg" xmlns:xlink="http://www.w3.org/1999/xlink" viewBox="0 0 497 279"> <defs overflow="visible" style="stroke:none">  <path id="F" d="M3.1.1c-.9 0-1.5-.1-2-.7-.2-.4-.4-1.1-.4-2A5 5 0 0 1 1-4.5c.2-.7.6-1.1 1-1.5.6-.4 1.3-.5 2-.5s1.2 0 1.6.4C6-6 6-5.4 6-5s0 .9-.3 1.2c-.3.3-.7.4-1.2.5l.9.6c.2.1.3.4.3.9 0 .1 0 .4-.2.8s-.5.6-.8.8c-.4.2-1 .3-1.7.3ZM1.8-3.6H3l1-.1.8-.5c.2-.1.3-.3.3-.6l-.3-.6c-.1-.2-.4-.3-.8-.3-.6 0-1 .2-1.4.7-.4.2-.7.7-.8 1.4ZM3.2-.7c.5-.1.8-.3 1.1-.4.3-.2.4-.5.4-.8 0-.3-.1-.5-.4-.6-.2-.2-.6-.3-1.1-.3H1.6v.3c0 .6.2 1 .5 1.3.2.3.6.4.9.4Zm0-.1"/>  <path id="E" d="M0 0h-.5v-1l.4.3.6-.4c.2-.2.5-.4.5-.8a14 14 0 0 0 .6-1.4l.5-1.4a4 4 0 0 1 .6-1 2 2 0 0 1 .8-.6l1.2-.2h.7l.7.3L4.8 0h-1l1-5.6h-.3c-.3 0-.6 0-.8.2l-.7.8L2.5-3A17 17 0 0 1 2-1.3c-.4.3-.6.8-1 1-.2.3-.6.4-1 .4Zm0 0"/>  <path id="D" d="M2.3.1c-.5 0-1-.1-1.2-.5-.4-.4-.5-1-.5-1.7 0-.6 0-1.1.2-1.7l.7-1.4 1-1c.3-.2.8-.3 1.2-.3.5 0 .8 0 1 .3l.8.8.3-1h.8L5.2 0h-.8l.1-1.2-1 1a2 2 0 0 1-1.2.2Zm.4-.8c.3-.1.5-.3.8-.4.3-.2.6-.5.8-.9l.5-1.2.2-.6v-.6c0-.3-.1-.6-.3-.9-.2-.2-.5-.4-.9-.4-.3 0-.6.1-.8.3l-.7.8-.5 1.2L1.7-2c0 .4 0 .7.2 1 .2 0 .4.2.8.2Zm0-.1"/>  <path id="C" d="M1.8.1.8 0C.5 0 .2-.2 0-.3v-1a5 5 0 0 0 .8.4l1.1.2C2.4-.8 3-1 3.1-1.1c.3-.2.5-.5.5-.8 0-.3-.1-.5-.3-.7-.1-.2-.5-.4-1-.4h-.7l.1-.8H3l.7-.5c.2 0 .3-.3.3-.6l-.3-.6-.7-.2a3 3 0 0 0-1 .2l-.7.3-.3-1 1-.2 1-.1c.8 0 1.3 0 1.6.3.2.3.4.7.4 1.2 0 .4-.1.8-.4 1-.3.3-.6.5-1.1.6l.8.6c.2.1.3.4.3.9s-.2.9-.7 1.3C3.5 0 2.8.1 2 .1Zm0 0"/>  <path id="B" d="M4.3-7.3c-.7 0-1.2-.1-1.3-.4-.4-.2-.6-.6-.6-1v-.4h1.1v.3c-.1.2-.1.4.1.6l.8.2c.3 0 .6-.1.9-.3.2 0 .4-.4.5-.7h1c-.1.4-.4.9-.7 1.2-.4.4-1.1.5-1.8.5ZM2.3.1C1.8.1 1.3 0 1-.3.8-.6.7-1 .7-1.5V-2l.1-.5.8-4h1.1l-.9 4.2a4 4 0 0 0 0 .7v.6c.3.2.5.3.8.3l.8-.3c.4-.2.7-.5 1-1L5-3.7l.6-2.7h1L5.2 0h-.8l.1-1.2-.7.6-.6.6a2 2 0 0 1-1 .1Zm0 0"/>  <path id="A" d="M2.3.1C1.8.1 1.3 0 1-.3.8-.6.7-1 .7-1.5V-2l.1-.5.8-4h1.1l-.9 4.2a4 4 0 0 0 0 .7v.6c.3.2.5.3.8.3l.8-.3c.4-.2.7-.5 1-1L5-3.7l.6-2.7h1L5.2 0h-.8l.1-1.2-.7.6-.6.6a2 2 0 0 1-1 .1Zm0 0"/>  <path id="z" d="m.3 0 1.4-6.4h1l-.6 3L5-6.3h1.4L3.2-3.2 5.4 0H4L2.1-3.2 1.4 0Zm0 0"/>  <path id="y" d="M3 .1C2.2.1 1.7 0 1.2-.5.8-.9.6-1.5.6-2.3c0-.6 0-1 .2-1.6l.7-1.4a3 3 0 0 1 1-.9L4-6.5h.8c.2 0 .5.2.7.3l-.3.8-.5-.2H4c-.5-.1-1 0-1.3.3A3 3 0 0 0 2-4l-.3 1.7c0 .5 0 .9.3 1.1.3.3.6.4 1 .4h1a9 9 0 0 0 .6-.5v1.1L4 0 2.9.1Zm0 0"/>  <path id="x" d="m-.3 2.9 2-9.3h.9l-.2 1.2a5 5 0 0 1 1.1-1 2 2 0 0 1 1.1-.3c.5 0 1 .1 1.4.5.2.4.4 1 .4 1.7 0 .5-.1 1.1-.4 1.6 0 .7-.2 1-.5 1.5l-1 1c-.4.2-.8.2-1.3.2-.4.1-.8.1-1-.2a2.3 2.3 0 0 1-.6-.8A12.4 12.4 0 0 1 1.3.1L.8 3ZM3.1-.7c.4-.1.7-.3 1-.4l.5-.8.5-1.1.2-1.4c0-.8-.4-1.3-1-1.3l-.9.3-.7.8L2-3.4V-2c0 .3 0 .7.2.9.2.1.5.4 1 .4Zm0-.1"/>  <path id="w" d="M2.4.1a3 3 0 0 1-1-.1 1.7 1.7 0 0 1-.9-.6C.4-.8.3-1 .3-1.6c0-.2.1-.6.3-.9l.8-.6a7 7 0 0 1 1-.6c.6-.1 1.1-.3 1.3-.5.3-.2.4-.5.4-.8-.1-.2-.1-.4-.2-.5l-.7-.2c-.2 0-.6 0-.9.2-.3 0-.6.1-.8.3l-.3-1 1-.2 1-.1c.8 0 1.1 0 1.4.3.4.2.6.6.6 1.2l-.3.9c-.2.1-.5.5-.9.6l-.9.5-.9.4c-.3 0-.5.2-.6.4-.2.1-.2.2-.2.6s0 .6.3.6c.1.2.3.3.8.3l1-.3.9-.2v.9l-1 .3-.9.1Zm0 0"/>  <path id="v" d="M-.3 2.9a3 3 0 0 1-.5 0l-.2-.2v-.8h.2l.4.1c.4 0 .6 0 .9-.3L1 .8l.5-.7-1-6.5h1.2L2-3.2l.1.7v1l.2.5a19 19 0 0 1 1-1.9L5-6.4h1.2L2 1c-.2.7-.6 1-1 1.4-.3.3-.7.6-1.3.6Zm0 0"/>  <path id="u" d="m1.8 0 1.6-7.6H1.1l.2-1H7l-.1 1H4.5L3 0Zm0 0"/>  <path d="M1.1 0v-8.6h5V0Zm.6-.6h3.8V-8H1.7Zm0 0"/>  <path id="t" d="M3.6-.8 3-1.5l2.2-2.3-1.3-2.9L5-7l1.4 3.2v.2ZM1-1l-.8-.5 2-2.5-1.1-2.7L2-7l1.6 3v.1ZM.9-1"/>  <path id="s" d="M3.9.2c-1.1 0-2-.3-2.4-1C1-1.4.7-2.1.7-3.1S1-5 1.2-5.7a4.1 4.1 0 0 1 1.5-1.8c.6-.4 1.3-.7 2.3-.7.8 0 1.5.2 2 .5.4.4.7.9.7 1.7 0 .5-.2.9-.7 1.2-.3.5-.7.6-1.3.8l1 .6c.3.2.5.6.5 1.1 0 .3-.2.7-.4 1.1-.2.4-.5.7-1 1-.5.2-1.1.4-2 .4ZM2.2-4.5h1.6c.5 0 .9 0 1.3-.2.4 0 .7-.2.9-.3.2-.3.4-.6.4-1a1 1 0 0 0-.4-.8C5.8-7 5.5-7 5-7c-.7 0-1.3.1-1.8.6-.5.4-.8 1-1 1.9ZM4-1c.6 0 1-.1 1.4-.4.3-.2.6-.6.6-1-.1-.2-.3-.6-.6-.7-.3-.3-.8-.4-1.4-.4H2.1v.5c-.1.6.1 1.2.5 1.5.3.5.8.6 1.4.6Zm0 0"/>  <path id="r" d="M3.6.2C2.7.2 2-.1 1.5-.7 1-1.2.7-1.9.7-2.9a6.6 6.6 0 0 1 1.1-3.6c.3-.5.8-1 1.3-1.2a3 3 0 0 1 1.6-.5c.8 0 1.4.2 1.8.5.3.3.5.8.5 1.4 0 .5 0 1-.5 1.3-.3.5-.8 1-1.5 1.1-.7.3-1.6.4-2.7.4h-.2v.6c-.1.6.1.9.4 1.4.3.5.8.6 1.4.6.4-.1.7-.1 1-.2l1.2-.5v1.2L4.9 0 3.6.2ZM2.3-4.5 4-4.7c.6-.1 1-.3 1.3-.5.3-.3.5-.6.5-1 0-.3-.1-.5-.3-.6-.2-.2-.5-.3-.8-.3-.5.1-1 .2-1.4.7-.5.4-.8 1-1 1.9Zm0 0"/>  <path id="q" d="M3.7.2c-.9 0-1.6-.3-2.2-.8C1-1 .7-1.8.7-2.8c0-.8.1-1.5.3-2a5.5 5.5 0 0 1 1-1.9 4 4 0 0 1 1.2-1.1 3.5 3.5 0 0 1 1.7-.4L6-8c.4 0 .7.1 1 .2l-.5 1.1-.7-.3A3 3 0 0 0 5-7c-.6 0-1 0-1.6.4-.4.5-.7 1-1 1.6a5.8 5.8 0 0 0-.3 2.1c-.1.6.1 1.1.4 1.5.5.3.8.4 1.3.4.4 0 .7 0 1-.1l1-.3v1l-1 .4-1.1.2Zm0 0"/>  <path id="p" d="m.4 0 1.7-8h1.1L3-6.6h.1l.6-.7c.3-.3.6-.5 1.1-.7 0-.1.4-.2.8-.2.7 0 1.1.2 1.4.5.3.3.5.7.5 1.3l.9-.9.8-.6c.3-.2.7-.3 1.1-.3.7 0 1.1.2 1.5.5.2.4.5.9.5 1.5v.7L12-5l-.9 5H9.8l1-5 .2-.6v-.5c0-.3 0-.5-.2-.7-.2-.2-.5-.3-.8-.3-.4.1-.7.1-1 .4-.4.2-.8.6-1 1.1a6 6 0 0 0-.8 2L6.4 0H5.1L6-5l.4-1c-.1-.4-.2-.6-.4-.8 0-.2-.3-.3-.7-.3-.3.1-.7.1-1 .4-.4.2-.7.6-1 1.1a7.4 7.4 0 0 0-.9 2.1L1.7 0Zm0 0"/>  <path id="o" d="m.6 0 2.3-10.7h1.3l-2 9.5H6l2-9.5h1.3l-2 9.5h3.8l2-9.5h1.4L12.2 0Zm0 0"/>  <path id="n" d="M2.3-.8.6-4.1v-.2l3-2.7.5.6L2-4l1.2 2.8Zm2.9 0-1.6-3V-4l2.7-3 .7.6-2 2.6 1 2.6Zm0 0"/>  <path id="m" d="m.4 0 1.7-8h1.3l-.8 3.8L6.3-8H8L4-4l2.7 4H5.1L2.6-4l-.9 4Zm0 0"/>  <path id="l" d="M-.3 3.6 2-8h1.2L3-6.5c.5-.5.9-.9 1.4-1.2.3-.3.9-.5 1.4-.5.6 0 1.1.3 1.5.7.5.5.7 1.2.7 2S7.9-4 7.7-3.2a6.3 6.3 0 0 1-.8 1.7C6.6-1 6-.6 5.7-.3A3 3 0 0 1 4 .2C3.5.2 3 0 2.7-.3a2.8 2.8 0 0 1-.7-1A10.7 10.7 0 0 1 1.6.2L1 3.6ZM3.9-1c.4 0 .8-.1 1.1-.3l1-1 .4-1.5.2-1.7c0-1-.4-1.5-1.3-1.5-.3 0-.6 0-1 .3l-1 1a5.4 5.4 0 0 0-.8 3.1c-.1.6 0 1 .3 1.2.2.4.6.5 1.1.5ZM4-1"/>  <path id="k" d="M.4 0 2-8h1.2l-.1 1.3a7 7 0 0 1 .7-.6c.2-.3.5-.5.9-.7l1.1-.2c.7 0 1.2.1 1.5.5.4.4.7.9.7 1.5v.7l-.4.6L6.7 0H5.2l1.1-5a9 9 0 0 0 .1-.7v-.4c.1-.6-.2-.9-.9-.9-.3 0-.6.2-1 .4s-.9.6-1.1 1c-.4.6-.8 1.3-1 2.1L1.8 0Zm0 0"/>  <path id="j" d="M5.4-9c-.8 0-1.4-.4-1.8-.7-.4-.2-.6-.7-.6-1.2v-.5h1.4l-.2.4c0 .3.1.5.3.7.2.2.5.3 1 .3.4 0 .8-.1 1.1-.3.4-.2.5-.7.7-1.1h1.1c0 .7-.3 1.3-.9 1.7-.3.4-1 .6-1.9.6ZM2.8.1c-.6.1-1-.1-1.4-.5C1-.7.8-1.2.8-1.8v-.7l.2-.6 1-5h1.4L2.3-3a5 5 0 0 0-.1 1c0 .3 0 .6.2.8.2.2.4.2.8.2.3 0 .7-.1 1.1-.3.4-.2.8-.6 1.1-1.2.3-.5.6-1.2.8-2L6.9-8h1.3L6.5 0h-1l.1-1.5a8 8 0 0 1-.8.8L4-.1c-.3.2-.7.3-1.2.3Zm0 .1"/>  <path id="i" d="M3.5.2C2.7.2 2.1 0 1.6-.4c-.4-.4-.6-1-.6-1.8a10 10 0 0 1 .1-1.4L2-8h1.3l-.7 3.5a8 8 0 0 1 1.6-.2c.8 0 1.4.2 1.8.5.5.4.7 1 .7 1.6a3 3 0 0 1-.4 1.4c-.2.4-.5.7-1 1-.3.2-1 .4-1.8.4Zm4-.2 1.7-8h1.3L8.8 0ZM3.6-1c.6 0 1 0 1.4-.3.2-.4.4-.8.4-1.1 0-.6-.2-.9-.4-1.1-.3-.1-.6-.1-1.1-.1a9.6 9.6 0 0 0-1.5.1l-.1.7v.5c-.1.4-.1.8.1 1 .4.3.7.4 1.2.4Zm0 0"/>  <path id="h" d="M3.6.2c-.8 0-1.5-.2-2-.6-.4-.4-.6-1-.6-1.8v-.6l.2-.8L2-8h1.3l-.7 3.5a9.3 9.3 0 0 1 1.8-.2c.9 0 1.5.2 2 .6.2.4.4.9.4 1.5.2.6 0 1-.3 1.4-.2.4-.5.7-1 1C5 0 4.3.2 3.6.2ZM3.7-1c.7 0 1.3-.1 1.5-.4.3-.3.4-.6.4-1 0-.5-.1-.8-.3-1.1H4a8 8 0 0 0-1-.1l-.5.1-.2.7v.5c-.1.4-.1.7.1 1 .4.2.7.3 1.3.3Zm0 0"/>  <path id="g" d="M0 .1h-.4L-.7 0v-1.1h.5c.3.1.6.1.9-.2l.6-1.1c.2-.4.5-1 .7-1.8l.7-1.7c.2-.5.3-1.1.7-1.2.2-.4.6-.6 1-.9h2.4l.9.2L6 0H4.7l1.5-7h-.6c-.4 0-.6.1-1 .3-.2.2-.5.5-.6 1l-.8 2a23 23 0 0 1-.9 2c-.2.7-.5 1.1-1 1.5C1 0 .6 0 0 0Zm0 0"/>  <path id="f" d="m.4 0 1.7-8h1.3l-.6 3.3h3.7L7.3-8h1.3L6.9 0H5.5l.8-3.6H2.5L1.7 0Zm0 0"/>  <path id="e" d="M3.7.1c-1 0-1.6-.1-2.2-.8C1-1.3.7-2 .7-3L1-4.8a5.9 5.9 0 0 1 .7-1.7A4 4 0 0 1 3-7.7C3.5-8 4-8 4.7-8c1-.1 1.7 0 2.3.7.5.5.7 1.3.7 2.3 0 .6 0 1.2-.2 1.8a5.5 5.5 0 0 1-.8 1.7C6.4-1 6-.6 5.5-.3 5 0 4.4 0 3.7 0Zm.1-1c.5-.1 1-.3 1.3-.7.4-.2.7-.7.9-1.3a6.4 6.4 0 0 0 .3-2.3c.1-.3.1-.6-.1-.8a1.5 1.5 0 0 0-.5-.8c-.2-.2-.5-.2-1-.2a2 2 0 0 0-1.3.5C3-6 2.6-5.6 2.3-5a6.2 6.2 0 0 0-.1 2c-.2.8 0 1.3.3 1.6.3.4.7.4 1.3.4Zm0-.1"/>  <path id="d" d="M2.8.2c-.6 0-1-.2-1.4-.6C1-.7.8-1.2.8-1.8v-.7l.2-.6 1-5h1.4L2.3-3a5 5 0 0 0-.1 1c0 .3 0 .6.2.8.2.2.4.2.8.2.3 0 .7-.1 1.1-.3.4-.2.8-.6 1.1-1.2.3-.5.6-1.2.8-2L6.9-8h1.3L6.5 0h-1l.1-1.5a8 8 0 0 1-.8.8L4-.1c-.3.2-.7.3-1.2.3Zm0 0"/>  <path id="c" d="M5.9 2.8 6.5.1C6.2.1 6 0 5.8-.4l-.2-1-.7.6A3 3 0 0 1 4 0c-.3.1-.7.2-1.2.2-.6 0-1-.2-1.4-.6C1-.7.8-1.2.8-1.8v-.7l.2-.6 1-5h1.4L2.3-3a5 5 0 0 0-.1 1c0 .3 0 .6.2.8.2.2.4.2.8.2.3 0 .7-.1 1.1-.3.4-.2.8-.6 1.1-1.2.3-.5.6-1.2.8-2L6.9-8h1.3L7-2.4V-1l.6.1h.2L8-1l-.8 3.8Zm0 0"/>  <path id="b" d="M2.9.2c-.6 0-1.2-.3-1.6-.7C1-1 .7-1.7.7-2.5s.1-1.7.3-2.3a6.3 6.3 0 0 1 .8-1.7 4 4 0 0 1 1.3-1.2 3 3 0 0 1 1.6-.5c.5 0 1 .2 1.3.4l.7 1L7.3-8h1L6.5 0h-1l.2-1.5A6 6 0 0 1 4.3-.3C4 0 3.4.2 3 .2ZM3.3-1c.4 0 .8-.1 1.1-.3a4 4 0 0 0 1-1.1 6 6 0 0 0 .8-2.4v-.7c0-.4-.1-.8-.4-1.1-.2-.4-.6-.5-1-.5s-.7.1-1 .4c-.5.2-.8.6-1.1 1l-.4 1.5c-.3.4-.3.9-.3 1.6 0 .6 0 1 .4 1.3.2.2.5.3 1 .3Zm0 0"/>  <path id="a" d="M.6 0 3-10.7h1.2l-1 4.5H8l1-4.5h1.2L8 0H6.7l1-5H3L2 0Zm0 0"/>  <path d="M1.4 0v-10.7h6.2V0Zm.8-.8h4.6v-9.1H2.2Zm0 0"/> </defs> <image xlink:href="svg/9/47_16.jpg" width="497" height="279"/> <path d="m192 15.3 2.4-10.7h1.3l-1 4.5h4.7l1-4.5h1.3l-2.3 10.7h-1.3l1-5h-4.7l-1 5zm12.5.2c-.5 0-1.1-.3-1.5-.7-.4-.5-.7-1.2-.7-2s.1-1.6.3-2.3a6.3 6.3 0 0 1 .9-1.7 4 4 0 0 1 1.2-1.2 3 3 0 0 1 1.6-.6c.5.1 1 .3 1.3.6.3.2.6.6.7 1l.7-1.4h.9l-1.7 8.1h-1v-1.5A6 6 0 0 1 206 15c-.4.3-1 .5-1.5.5zm.5-1.1c.3 0 .7-.2 1-.4a4 4 0 0 0 1-1.1 6 6 0 0 0 .8-2.4V10c.1-.6.1-1.1-.2-1.3-.4-.3-.7-.5-1.1-.5-.5 0-.9.2-1.3.4l-.7 1c-.3.4-.5 1-.6 1.5l-.2 1.7c0 .5.1 1 .3 1.2.2.2.6.4 1 .4zm11 3.7.6-2.7c-.3 0-.5-.2-.6-.4-.2-.3-.2-.7-.2-1l-.8.6a3 3 0 0 1-.9.6c-.3.2-.7.3-1.1.3-.6 0-1.1-.2-1.5-.5-.3-.4-.5-1-.5-1.5v-.7l.1-.6 1.1-5h1.3l-1 5.2a5 5 0 0 0-.3.9c.1.4.1.7.4.8.1.2.4.3.8.3.3 0 .6-.1 1-.4.6-.2.9-.6 1.3-1 .2-.7.5-1.4.7-2.3l.6-3.4h1.4l-1.2 5.6-.1.5v.4l.1.4.4.2h.4l.2-.1-.8 3.8zm6-2.6c-.8 0-1.3-.2-1.6-.5-.4-.4-.5-1-.5-1.5v-.7l.3-.6.8-5h1.6l-1.2 5.2a5 5 0 0 0-.1.9c0 .4 0 .7.2.8.2.2.5.3.8.3s.7-.1 1.1-.4c.4-.2.8-.6 1.1-1 .5-.7.6-1.4.8-2.3l.7-3.4h1.4l-1.7 8h-1.1l.1-1.5a8 8 0 0 1-.7.8l-1 .6c-.2.2-.6.3-1 .3zm9.5-.1c-1 0-1.7-.2-2.2-.8-.5-.5-.8-1.3-.8-2.2 0-.7 0-1.4.3-1.9a5.9 5.9 0 0 1 .7-1.7 4 4 0 0 1 1.3-1.2c.5-.3 1-.4 1.7-.4 1 0 1.7.3 2.2.8.6.6.8 1.3.8 2.3 0 .6 0 1.2-.2 1.7a5.5 5.5 0 0 1-.8 1.8c-.3.5-.7.9-1.2 1.2-.5.3-1.1.4-1.8.4zm0-1c.7 0 1.1-.2 1.5-.5.3-.4.6-.9.9-1.5a6.4 6.4 0 0 0 .2-2.3c.1-.3.1-.6-.1-.8a1.5 1.5 0 0 0-.5-.7c-.2-.2-.5-.3-1-.3a2 2 0 0 0-1.4.5c-.4.4-.7 1-1 1.5a6.2 6.2 0 0 0-.1 2.1c-.1.6 0 1 .3 1.4.3.4.7.6 1.3.6zM236.7 15.3l1.7-8h1.3l-.7 3.3h3.8l.7-3.3h1.3l-1.7 8h-1.3l.7-3.6h-3.8l-.7 3.6zm11.4.2c-.6 0-1.1-.3-1.5-.7-.4-.5-.6-1.2-.6-2s0-1.6.3-2.3a6.3 6.3 0 0 1 .7-1.7 4 4 0 0 1 1.3-1.2A3 3 0 0 1 250 7c.4.1 1 .3 1.2.6.3.2.6.6.7 1h.1l.5-1.4h1l-1.7 8.1h-1v-1.5a6 6 0 0 1-1.1 1.2c-.5.3-1 .5-1.7.5zm.5-1.1c.4 0 .7-.2 1-.4a4 4 0 0 0 1.1-1.1 6 6 0 0 0 .8-2.4V10c0-.6-.1-1.1-.5-1.3-.2-.3-.5-.5-1-.5s-.8.2-1 .4l-1 1-.4 1.5-.3 1.7c0 .5.1 1 .3 1.2.4.2.6.4 1 .4zm5.1 1h-.6v-1.3h.5c.3.2.6.2.8-.1l.7-1 .7-2 .6-1.6.7-1.2c.3-.4.6-.6 1-.8l1.5-.2h1l.9.4-1.7 7.7h-1.4l1.6-7h-.6c-.4 0-.8.1-1 .3-.4.2-.5.5-.7 1l-.8 2a23 23 0 0 1-.8 2c-.3.8-.6 1.1-1 1.4-.2.3-.7.4-1.3.4zm11.8.1c-.8 0-1.5-.2-2-.6-.3-.4-.5-.9-.5-1.8V11.8l1-4.5h1.3l-.8 3.5a9.3 9.3 0 0 1 1.8-.2c1 0 1.6.2 2 .6.4.4.6.9.6 1.5 0 .5-.2 1-.4 1.4-.3.4-.6.7-1.1.9-.5.4-1.1.5-1.9.5zm.2-1.1c.6 0 1-.2 1.3-.5.4-.3.5-.6.5-.9s0-.9-.3-1.2H266a8 8 0 0 0-1-.1l-.7.1-.1.7v.5c0 .4 0 .7.3 1 .2.3.5.4 1.2.4zm4.5.9 1.7-8h1.3l-.7 3.3h3.8l.7-3.3h1.3l-1.7 8h-1.3l.8-3.6h-3.8l-.8 3.6zm12.1.2c-.8 0-1.3-.2-1.9-.6-.4-.4-.7-.9-.7-1.7v-.7l.3-.7.9-4.5h1.2l-.7 3.5a8 8 0 0 1 1.6-.2c.8 0 1.4.2 1.8.5.5.4.7 1 .7 1.6a3 3 0 0 1-.5 1.4c0 .4-.4.8-.9 1-.5.3-1 .4-1.8.4zm4-.2 1.7-8h1.3l-1.7 8zm-3.9-1c.6.1 1 .1 1.3-.3.3-.4.5-.8.5-1 0-.7-.2-1-.4-1.2l-1.2-.1a9.6 9.6 0 0 0-1.5.1V13c-.1.5-.1.8.1 1 .4.3.8.4 1.2.4zm12.7-8.1c-.8 0-1.4-.1-1.8-.5-.4-.3-.6-.7-.6-1.3l.1-.4h1.2v.3c0 .3 0 .5.1.7.3.2.6.3 1.1.3s.8-.1 1.2-.3c.3-.2.5-.5.6-1h1.2c-.1.5-.4 1.1-1 1.5-.3.5-1 .7-1.9.7zm-2.6 9.3c-.5 0-1-.2-1.4-.5-.4-.4-.6-1-.6-1.5v-.7l.3-.6.9-5h1.5l-1.2 5.2a5 5 0 0 0-.2.9c.1.4.1.7.2.8.3.2.5.3 1 .3s.6-.1 1-.4c.4-.2.8-.6 1.1-1 .4-.7.6-1.4.9-2.3l.6-3.4h1.4l-1.7 8h-1.1l.1-1.5a8 8 0 0 1-.7.8l-.9.6c-.3.2-.7.3-1.2.3zM176.9 33.2l1.7-8h1.2l-.2 1.4a7 7 0 0 1 .8-.6l.8-.7c.3-.3.7-.3 1.2-.3.6 0 1.1.2 1.5.5.3.5.5.9.5 1.5v.7l-.1.7-1.1 4.8h-1.4l1-5a9 9 0 0 0 .2-.6v-.4c0-.7-.3-1-1-1-.3 0-.7.1-1 .3-.6.3-.9.6-1.2 1.2-.3.5-.5 1.2-.8 2l-.7 3.6zm11.2.2c-.6 0-1.1-.2-1.5-.7-.6-.5-.7-1.2-.7-2s.1-1.6.3-2.3a6.3 6.3 0 0 1 .9-1.7 4 4 0 0 1 1.2-1.2 3 3 0 0 1 1.6-.5c.5 0 1 .2 1.3.5.3.2.6.5.7 1l.7-1.4h.9l-1.7 8.1h-1v-1.5a6 6 0 0 1-1.2 1.3c-.4.2-1 .4-1.5.4zm.5-1.1c.3 0 .7-.1 1-.4a4 4 0 0 0 1-1.1 6 6 0 0 0 .8-2.4v-.6c.1-.5.1-.9-.2-1.2-.4-.3-.7-.4-1.2-.4s-.8 0-1.2.3l-.7 1-.6 1.5-.2 1.7c0 .5.1 1 .3 1.2.2.3.6.4 1 .4zm4.8 4.5 2.6-11.6h.9l-.1 1.5 1.2-1.2c.5-.3 1-.4 1.5-.4.7-.1 1.2.2 1.6.6.4.5.6 1.3.6 2s0 1.6-.3 2.3a6.3 6.3 0 0 1-.8 1.7c-.3.5-.6 1-1.2 1.2a3 3 0 0 1-1.6.5c-.6 0-1-.1-1.3-.4a2.8 2.8 0 0 1-.8-1 10.7 10.7 0 0 1-.3 1.4l-.7 3.4zm4.3-4.5c.3 0 .7-.1 1-.4.5-.2.8-.6 1.1-.9l.3-1.6.2-1.6c0-1.1-.3-1.6-1.2-1.6-.4 0-.7 0-1.1.3l-1 1a5.4 5.4 0 0 0-.9 3.2c.1.3.3.8.5 1.1.2.3.6.5 1.1.5zm5.2.9 1.6-8h1.5l-1 3.8 3.8-4h1.6l-4 4.2 2.7 4.1h-1.5l-2.6-4.1-.8 4zm13.1-.8-1.9-3.2V29l3.1-2.8.5.6-2.1 2.4 1.2 2.8zm2.7 0-1.5-3 2.7-3.1.7.4-2 2.8 1.1 2.5zm2.7.8 2.2-10.7h1.4l-2 9.5h3.8l2-9.5h1.2l-1.9 9.5h3.9l1.9-9.5h1.3L233 33.2zm16.6.2c-.5 0-1-.2-1.4-.7-.6-.5-.7-1.2-.7-2s0-1.6.3-2.3a6.3 6.3 0 0 1 .8-1.7 4 4 0 0 1 1.2-1.2 3 3 0 0 1 1.6-.5c.6 0 1 .2 1.3.5.3.2.6.5.9 1l.4-1.4h1l-1.7 8.1h-1l.1-1.5a6 6 0 0 1-1.2 1.3c-.6.2-1 .4-1.6.4zm.6-1.1c.3 0 .6-.1.9-.4a4 4 0 0 0 1.1-1.1 6 6 0 0 0 .8-2.4v-.6c0-.5-.1-.9-.4-1.2-.3-.3-.6-.4-1-.4s-.8 0-1.1.3l-.9 1-.6 1.5-.2 1.7c0 .5.1 1 .4 1.2.2.3.4.4.9.4zm5.5.9 1.7-8h1.3l-.7 3.3h3.8l.8-3.3h1.2l-1.6 8h-1.4l.8-3.6h-3.8l-.8 3.6zm9 0 1.7-8h1.2l-.3 1.5h.1l.6-.8 1-.6c.1-.3.6-.3.9-.3.7 0 1.1.2 1.4.5.3.3.5.8.5 1.3l.8-.8.9-.7c.3-.2.7-.3 1.1-.3.7 0 1.1.2 1.5.6.3.3.5.8.5 1.4v.7l-.3.6-.9 5h-1.4l1.1-5.2.1-.5v-.5c.1-.3.1-.5-.1-.7-.3-.2-.5-.2-.9-.2-.3 0-.6 0-1 .3-.3.3-.6.6-1 1.1a6 6 0 0 0-.7 2l-.9 3.6h-1.2l1-5 .2-1c0-.3-.1-.6-.3-.8-.1-.2-.3-.2-.7-.2-.3 0-.7 0-1 .3-.4.2-.7.6-1 1.2a7.4 7.4 0 0 0-.9 2l-.7 3.6zm15.6.2c-.6 0-1.1-.2-1.5-.7-.5-.5-.7-1.2-.7-2s.1-1.6.3-2.3a6.3 6.3 0 0 1 .9-1.7 4 4 0 0 1 1.2-1.2 3 3 0 0 1 1.6-.5c.5 0 1 .2 1.3.5.2.2.6.5.7 1l.7-1.4h.8l-1.6 8.1h-1v-1.5a6 6 0 0 1-1.3 1.3c-.3.2-.9.4-1.4.4zm.5-1.1c.3 0 .7-.1 1-.4a4 4 0 0 0 1-1.1 6 6 0 0 0 .8-2.4v-.6c0-.5 0-.9-.2-1.2-.4-.3-.8-.4-1.1-.4-.6 0-.9 0-1.3.3l-.7 1-.7 1.5-.1 1.7c0 .5.1 1 .3 1.2.2.3.6.4 1 .4zm4.8 4.5 2.5-11.6h1l-.1 1.5 1.2-1.2c.5-.3 1-.4 1.5-.4.7-.1 1.2.2 1.6.6.3.5.6 1.3.6 2s-.1 1.6-.3 2.3a6.3 6.3 0 0 1-.8 1.7c-.2.5-.7 1-1.2 1.2a3 3 0 0 1-1.6.5c-.6 0-1-.1-1.4-.4a2.8 2.8 0 0 1-.7-1 10.7 10.7 0 0 1-.3 1.4l-.7 3.4zm4.3-4.5c.4 0 .7-.1 1-.4.5-.2.7-.6 1-.9l.5-1.6.1-1.6c.1-1.1-.4-1.6-1.2-1.6-.4 0-.7 0-1 .3l-1 1a5.4 5.4 0 0 0-1 3.2c.1.3.3.8.4 1.1.3.3.7.5 1.2.5zm8.4 1.1c-.9 0-1.6-.4-2.1-.8-.6-.5-.9-1.2-.9-2.2 0-.7.1-1.4.3-2a5.5 5.5 0 0 1 1-1.9 4 4 0 0 1 1.2-1 3.5 3.5 0 0 1 1.7-.5c.4 0 .7 0 1.1.2l1 .2-.5 1.1-.6-.2a3 3 0 0 0-1-.1c-.4 0-.9.1-1.3.5-.6.4-.9 1-1.1 1.6a5.8 5.8 0 0 0-.5 2c0 .7.2 1.2.6 1.6.3.1.7.4 1.3.4.3 0 .6 0 1-.3l1-.2v1.1l-1.1.3-1.1.2zm3.5-.2 1.8-8h1.2l-.8 3.8 3.8-4h1.6l-4 4.2 2.7 4.1H295l-2.6-4.1-.8 4zm9.8.2c-.8 0-1.2-.2-1.6-.5-.4-.4-.5-.9-.5-1.5v-.7l.3-.6.9-5.1h1.5l-1.1 5.3a5 5 0 0 0-.3.9c.1.4.1.6.3.8.2.2.5.3.8.3s.7-.1 1.1-.4c.4-.2.8-.6 1.1-1.1.5-.6.6-1.3.8-2.1l.8-3.5h1.3l-1.7 8h-1.1l.1-1.5a8 8 0 0 1-.7.8l-1 .6c-.2.2-.6.3-1 .3zm9.4 0c-1 0-1.6-.4-2.1-.8-.5-.6-.8-1.3-.8-2.2a6.6 6.6 0 0 1 1-3.7c.5-.5 1-.9 1.5-1.2a3 3 0 0 1 1.5-.5c.8 0 1.5.2 1.8.5.3.5.5.8.5 1.5 0 .4-.1 1-.5 1.3-.3.5-.8.8-1.5 1-.7.4-1.6.5-2.7.5h-.1v.5c-.1.7 0 1.1.3 1.5.3.2.8.5 1.4.5.3 0 .7 0 1-.3.4.1.8 0 1.3-.3v1c-.5.3-1 .5-1.3.6l-1.3.1zm-1.3-4.7c.8 0 1.3 0 1.8-.2.5 0 .9-.2 1.2-.5.3-.2.4-.6.4-1 0-.2 0-.4-.2-.6-.3-.2-.5-.4-.8-.4-.5.1-1 .4-1.5.8-.4.4-.7 1-1 1.9zM214 51.3c-1 0-1.7-.3-2.2-.9-.5-.4-.8-1.3-.8-2.2 0-.7 0-1.3.2-1.9a5.9 5.9 0 0 1 .8-1.6 4 4 0 0 1 1.3-1.2c.5-.3 1-.5 1.7-.5 1 0 1.7.3 2.2.8.5.6.8 1.3.8 2.3 0 .6 0 1.2-.2 1.8a5.5 5.5 0 0 1-.8 1.7c-.3.4-.8.9-1.3 1.2-.5.3-1 .5-1.7.5zm0-1.1c.6 0 1-.2 1.5-.5.3-.4.5-.9.8-1.5a6.4 6.4 0 0 0 .4-2.2c0-.3 0-.6-.2-1a1.5 1.5 0 0 0-.5-.5c-.3-.3-.6-.5-1-.5a2 2 0 0 0-1.4.7c-.4.3-.7.8-1 1.5a6.2 6.2 0 0 0-.2 2c-.1.6.1 1.1.4 1.5.2.3.7.5 1.2.5zm8.4 1.1c-.9 0-1.6-.3-2.1-.8-.6-.5-.9-1.2-.9-2.2 0-.7.1-1.4.3-2a5.5 5.5 0 0 1 .9-1.8 4 4 0 0 1 1.3-1.1 3.5 3.5 0 0 1 1.7-.4h1l1.1.4-.4 1-.8-.2a3 3 0 0 0-.8-.2c-.7 0-1.1.3-1.5.6-.5.4-.8 1-1 1.6a5.8 5.8 0 0 0-.5 2c.1.8.2 1.3.5 1.6.4.2.8.4 1.4.4.3 0 .6 0 1-.2l.8-.3v1.1l-.9.4-1 .1zm3.6-.2 1.5-8h1.2l-.1 1.5.7-.8.7-.6c.4-.2.8-.2 1.2-.2.6 0 1 0 1.3.4.3.3.5.8.5 1.3l.9-.7.9-.8c.2-.2.5-.2.9-.2.8 0 1.3 0 1.6.5.3.3.5.8.5 1.4v.7l-.3.6-.9 5.1h-1.3l1-5.3.1-.5V45c.1-.3.1-.5-.1-.7l-.9-.2c-.3-.1-.6-.1-1 .3-.3.3-.7.6-1 1.1a6 6 0 0 0-.7 2l-.8 3.6h-1.3l1-5 .3-1.1c-.1-.2-.1-.5-.3-.7l-.8-.2c-.3-.1-.6-.1-1 .3s-.8.6-1 1.2a7.4 7.4 0 0 0-.8 2l-.8 3.6zm12.3 3.6 2.5-11.6h1l-.1 1.5 1.3-1.1c.3-.5.9-.5 1.4-.5.7 0 1.2.2 1.6.7.4.3.6 1.1.6 2l-.3 2.1a6.3 6.3 0 0 1-.8 1.8c-.3.5-.7 1-1.2 1.2a3 3 0 0 1-1.6.5c-.7 0-1-.1-1.3-.4a2.8 2.8 0 0 1-.8-1 10.7 10.7 0 0 1-.4 1.4l-.6 3.4zm4.3-4.5c.4 0 .7-.1 1-.4.4-.2.8-.6 1-1l.4-1.5c.2-.5.2-1 .2-1.6 0-1-.4-1.7-1.2-1.7-.4 0-.7 0-1 .4l-1 1a5.4 5.4 0 0 0-1 3.2c0 .4.2.8.4 1.1.3.4.7.6 1.2.6zm8.4 1.1c-.9 0-1.6-.3-2.2-.9-.5-.4-.8-1.3-.8-2.2 0-.7.1-1.3.3-1.9a5.9 5.9 0 0 1 .7-1.6 4 4 0 0 1 1.3-1.2c.5-.3 1.1-.5 1.8-.5.9 0 1.6.3 2.2.8.5.6.7 1.3.7 2.3l-.2 1.8a5.5 5.5 0 0 1-.8 1.7c-.3.4-.7.9-1.2 1.2-.5.3-1.1.5-1.8.5zm.1-1.1c.5 0 1-.2 1.3-.5.4-.4.7-.9 1-1.5a6.4 6.4 0 0 0 .3-2.2l-.1-1a1.5 1.5 0 0 0-.6-.5c-.2-.3-.5-.5-1-.5a2 2 0 0 0-1.3.7c-.5.3-.7.8-1 1.5a6.2 6.2 0 0 0-.3 2c0 .6.1 1.1.4 1.5.3.3.8.5 1.3.5zm8.6 1.1c-1.1 0-2-.3-2.5-1-.5-.4-.7-1.3-.7-2.3 0-1 .1-1.8.5-2.6a4.1 4.1 0 0 1 1.4-1.8c.7-.4 1.4-.6 2.4-.6.8 0 1.5 0 2 .5.3.3.6.8.6 1.5.1.6-.1 1-.5 1.4-.4.3-.9.5-1.5.6.6.2.8.4 1.1.7.3.2.4.6.4 1.1.1.4.1.8-.3 1.2-.2.3-.5.7-1 1-.6.1-1.1.2-2 .2zm-1.7-4.7h1.6l1.2-.1 1-.5c.2-.2.2-.5.2-.9a1 1 0 0 0-.2-.7c-.2-.2-.5-.4-1-.4-.8 0-1.3.3-1.8.7-.5.5-.8 1-1 1.9zm1.7 3.6c.7 0 1.3-.1 1.5-.4.3-.3.4-.6.4-1s-.1-.7-.4-.8c-.3-.2-.8-.3-1.5-.3h-1.9v.3c0 .8.2 1.3.5 1.7.4.3.9.5 1.4.5zm7.1 1.1c-.8 0-1.2-.2-1.6-.7-.4-.6-.6-1.2-.6-2s.1-1.6.3-2.3a6.3 6.3 0 0 1 .8-1.7 4 4 0 0 1 1.3-1.2 3 3 0 0 1 1.6-.4c.4 0 .9 0 1.2.4.4.3.6.6.8 1l.5-1.4h1l-1.7 8h-1l.2-1.3h-.1a6 6 0 0 1-1.2 1.1c-.5.3-1 .5-1.5.5zm.4-1.1c.4 0 .8-.1 1.1-.4a4 4 0 0 0 1-1.1 6 6 0 0 0 .7-2.3v-.7c.1-.5 0-.9-.3-1.2-.2-.3-.6-.4-1-.4s-.8-.1-1.1.3l-.9 1-.6 1.6-.1 1.6c0 .4.1 1 .3 1.2.2.3.5.4 1 .4zm8.8.1-.6-.6 2.2-2.4-1.3-2.8 1-.5 1.5 3.3v.3zm-2.7 0-.7-.7 2-2.6-1.1-2.5.9-.5 1.6 3v.2zm0-.1" style="fill:none;stroke:#fff;stroke-width:2;stroke-linecap:butt;stroke-linejoin:round;stroke-miterlimit:10;stroke-opacity:.6" transform="rotate(  340 266.894 73.9704) translate(21.279661,43.741525)"/> <g style="fill:#007f00;fill-opacity:1" transform=" rotate(  340 266.894 73.9704) ">  <use xlink:href="#a" x="212.7" y="59.1"/>  <use xlink:href="#b" x="222.9" y="59.1"/>  <use xlink:href="#c" x="231.4" y="59.1"/>  <use xlink:href="#d" x="240.4" y="59.1"/>  <use xlink:href="#e" x="249.1" y="59.1"/>  <use xlink:href="#f" x="257.5" y="59.1"/>  <use xlink:href="#b" x="266.5" y="59.1"/>  <use xlink:href="#g" x="275.1" y="59.1"/>  <use xlink:href="#h" x="283.2" y="59.1"/>  <use xlink:href="#f" x="291.1" y="59.1"/>  <use xlink:href="#i" x="300.1" y="59.1"/>  <use xlink:href="#j" x="311" y="59.1"/>  <use xlink:href="#k" x="197.8" y="77"/>  <use xlink:href="#b" x="206.5" y="77"/>  <use xlink:href="#l" x="215" y="77"/>  <use xlink:href="#m" x="223.7" y="77"/>  <use xlink:href="#glyph0-14" x="231" y="77"/>  <use xlink:href="#n" x="234.9" y="77"/>  <use xlink:href="#o" x="242.1" y="77"/>  <use xlink:href="#b" x="256.4" y="77"/>  <use xlink:href="#f" x="265" y="77"/>  <use xlink:href="#p" x="274" y="77"/>  <use xlink:href="#b" x="287.1" y="77"/>  <use xlink:href="#l" x="295.6" y="77"/>  <use xlink:href="#q" x="304.3" y="77"/>  <use xlink:href="#m" x="311.1" y="77"/>  <use xlink:href="#d" x="318.4" y="77"/>  <use xlink:href="#r" x="327.1" y="77"/>  <use xlink:href="#e" x="231.6" y="94.9"/>  <use xlink:href="#q" x="240" y="94.9"/>  <use xlink:href="#p" x="246.8" y="94.9"/>  <use xlink:href="#l" x="259.9" y="94.9"/>  <use xlink:href="#e" x="268.6" y="94.9"/>  <use xlink:href="#s" x="277" y="94.9"/>  <use xlink:href="#b" x="285.2" y="94.9"/>  <use xlink:href="#t" x="293.7" y="94.9"/> </g> <path d="m86.2 261.7 1.8-7.6h-2.5l.2-1h5.8l-.2 1.1h-2.4l-1.6 7.5zm3.4 2.9a3 3 0 0 1-.4 0h-.4v-1.1l.4.2h.4c.3.1.6.1.8-.1.2-.3.6-.6.7-1.1l.4-.6-1-6.6h1l.5 3.2v.8l.2 1v.5a19 19 0 0 1 1-1.9l1.8-3.7h1l-3.9 7.6-1.1 1.4c-.4.3-.9.4-1.5.4zm8.4-2.7a3 3 0 0 1-1.2-.2 1.7 1.7 0 0 1-.8-.5c0-.3-.2-.6-.2-1s.2-.7.4-1l.8-.7a7 7 0 0 1 1-.4l1.2-.6c.3-.2.4-.4.4-.7 0-.2 0-.4-.2-.5 0-.3-.3-.3-.6-.3l-1 .2-.8.3-.3-.8 1-.3 1.2-.2c.5 0 1 .1 1.3.3.3.3.5.7.5 1.2 0 .4 0 .7-.3 1l-.7.5-1 .5-1 .4-.5.4-.2.6c0 .3 0 .5.2.7l.9.2.9-.1.8-.4v1l-.8.1-1 .4zm2.8 2.7a3 3 0 0 1-.5 0h-.4v-1.1l.4.2h.4c.3.1.6.1.8-.1.3-.3.5-.6.7-1.1l.4-.6-1-6.6h1l.6 3.2v2.5h.2a19 19 0 0 1 .9-2.1l1.7-3.7h1.2l-4 7.6-1 1.4c-.5.3-1 .4-1.5.4zm5.6 0 2-9.3h.8l-.1 1.2a5 5 0 0 1 1-1 2 2 0 0 1 1.2-.2c.5-.1 1 .1 1.2.5.5.2.5.9.5 1.6 0 .6 0 1.1-.2 1.7-.1.5-.4.9-.6 1.4-.3.5-.6.8-1 1-.4.2-.8.5-1.3.5-.4-.1-.8-.2-1-.5a2.3 2.3 0 0 1-.8-.7 12.3 12.3 0 0 1-.1 1l-.6 2.9zm3.4-3.6.9-.3.7-.8.4-1.2.1-1.3c.1-.9-.3-1.4-.9-1.4-.3 0-.6 0-.9.4-.3.2-.5.4-.7.8-.4.3-.5.7-.6 1.1l-.2 1.4c0 .4 0 .7.3 1 .1.1.5.3.9.3zm6.8.9c-.7 0-1.3-.2-1.8-.6-.4-.4-.6-1-.6-1.8 0-.6 0-1.2.2-1.7s.4-1 .7-1.3a3 3 0 0 1 .9-1l1.6-.3h.8l.6.4-.2.8-.5-.2-.7-.2c-.6 0-.9.2-1.2.6a3 3 0 0 0-.9 1.2l-.2 1.6c0 .6 0 1 .3 1.2.4.3.6.4 1 .4l1-.1a9 9 0 0 0 .6-.3v.9l-.7.3h-1zm2.8-.2 1.3-6.4h1l-.5 3.1 2.9-3.1h1.3l-3.1 3.2 2.1 3.2h-1.2l-2-3.2-.9 3.2zm7.7.2c-.4 0-.8-.2-1.1-.4-.3-.3-.5-.7-.5-1.2v-.6l.3-.5.7-3.9h1l-.7 4a4 4 0 0 0-.1 1v.5l.7.2 1-.3.7-1c.4-.3.6-.9.7-1.5l.6-2.9h1l-1.2 6.4h-.9v-1.1l-.5.4-.8.7a2 2 0 0 1-1 .2zm9-7.4c-.6 0-1.1-.2-1.4-.5-.3-.2-.4-.5-.4-1v-.5h1l-.2.5c.1.2.1.4.3.5l.8.2c.4 0 .7 0 1-.2.1-.2.2-.5.3-.9h1.1c0 .6-.3 1-.6 1.4-.5.3-1.1.5-2 .5zm-2 7.4c-.5 0-.9-.2-1.2-.4-.3-.3-.4-.7-.4-1.2v-.6l.1-.5.9-3.9h1l-.8 4a4 4 0 0 0-.1 1l.1.5.7.2.9-.3c.3-.2.6-.5.9-1l.6-1.5.6-2.9h1l-1.3 6.4h-.9l.1-1.1-.6.4-.7.7a2 2 0 0 1-1 .2zm-36.7 14.5-1-.1-.9-.3v-1a5 5 0 0 0 .8.3c.4.2.7.2 1.2.2s.9 0 1.2-.3c.3-.2.3-.5.3-.9.1-.2.1-.5 0-.7l-1.1-.2H97l.2-1h1.4l.6-.3c.2-.2.3-.4.3-.7 0-.4 0-.4-.3-.6l-.7-.2a3 3 0 0 0-.8.1l-.9.3-.3-.8 1-.4h1.1c.6-.1 1.1-.1 1.4.2.4.4.5.7.5 1.2s0 .8-.4 1.1c-.1.3-.6.5-1 .6l.6.5c.3.2.4.5.4.9 0 .6-.1 1-.7 1.5-.4.4-1 .6-2 .6zm5.8 0c-.5 0-1-.2-1.3-.6-.3-.3-.5-.8-.5-1.6 0-.6.1-1.2.3-1.7.1-.6.3-1 .6-1.5l1-1c.4-.2.8-.3 1.3-.3.4 0 .8.1 1 .4.4.2.5.4.6.7l.6-1h.7l-1.5 6.5h-.7l.1-1.3-1 1a2 2 0 0 1-1.2.4zm.3-.9c.3 0 .6 0 .9-.3l.8-.9.5-1.2.1-.7v-.4c.1-.5.1-.8-.2-1.1-.3-.1-.5-.2-.9-.2l-.9.3-.7.7-.4 1.3-.2 1.2c0 .5.1.8.3 1 .2.2.4.3.7.3zm4.2.8h-.5v-1l.4.2c.2-.1.4-.1.6-.3l.5-.8a14 14 0 0 0 .6-1.5l.5-1.4a4 4 0 0 1 .6-1 2 2 0 0 1 .8-.5c.3-.2.7-.2 1.1-.2h.8l.7.2-1.3 6.3h-1l1-5.6h-.3c-.4 0-.6 0-.8.2l-.6.8-.6 1.6a17 17 0 0 1-.7 1.7c-.2.4-.4.8-.7 1-.3.2-.8.3-1.1.3zm8.8.1c-.5 0-1-.1-1.2-.4-.3-.3-.4-.7-.4-1.2v-.5l.1-.5.8-4h1.2l-.9 4a4 4 0 0 0-.2 1l.2.5.7.2c.2 0 .5 0 .8-.3.4-.2.7-.5 1-.9l.5-1.7.7-2.8h1l-1.4 6.5h-.8l.1-1.3-.7.7-.6.5a2 2 0 0 1-1 .2zm7.8 0c-1 0-1.6-.2-2-.7-.3-.5-.6-1.2-.6-2a5 5 0 0 1 .4-2c.3-.6.7-1 1.2-1.4.5-.4 1.1-.6 1.8-.6s1.3.3 1.6.4c.4.3.6.7.6 1.3 0 .4-.2.8-.5 1-.3.4-.6.6-1.1.6l.8.5c.3.2.5.5.5 1l-.4.7c-.1.4-.4.8-.8.9-.4.2-.8.3-1.5.3zm-1.4-3.8h2.3l.8-.5c.2-.1.3-.3.3-.6s-.1-.5-.3-.6c-.2-.2-.5-.3-.8-.3-.6 0-1 .2-1.5.5-.4.4-.6.9-.7 1.5zm1.4 3c.7-.1 1-.3 1.2-.5.2-.1.4-.4.4-.7 0-.4-.2-.5-.4-.7l-1.2-.2h-1.5v.3c0 .6.1 1 .4 1.2.3.4.8.5 1.1.5zm0-.1" style="fill:none;stroke:#fff;stroke-width:2;stroke-linecap:butt;stroke-linejoin:round;stroke-miterlimit:10;stroke-opacity:.6" transform="rotate(  340 114.497 213.399) translate(3.5466102,-52.608051)"/> <g style="fill:#4c7fb3;fill-opacity:1" transform=" rotate(  340 114.497 213.399) ">  <use xlink:href="#u" x="88" y="209.1"/>  <use xlink:href="#v" x="93.5" y="209.1"/>  <use xlink:href="#w" x="99.1" y="209.1"/>  <use xlink:href="#v" x="104.6" y="209.1"/>  <use xlink:href="#x" x="110.2" y="209.1"/>  <use xlink:href="#y" x="117.2" y="209.1"/>  <use xlink:href="#z" x="122.6" y="209.1"/>  <use xlink:href="#A" x="128.4" y="209.1"/>  <use xlink:href="#B" x="135.4" y="209.1"/>  <use xlink:href="#C" x="99.1" y="223.7"/>  <use xlink:href="#D" x="104.4" y="223.7"/>  <use xlink:href="#E" x="111.2" y="223.7"/>  <use xlink:href="#A" x="117.8" y="223.7"/>  <use xlink:href="#F" x="124.7" y="223.7"/> </g></svg>