<svg xmlns="http://www.w3.org/2000/svg" xmlns:xlink="http://www.w3.org/1999/xlink" viewBox="0 0 497 279"> <defs overflow="visible" style="stroke:none">  <path id="l" d="M1.9 0c-.4 0-.7 0-1-.1C.7-.5.5-.8.5-1.2v-.5L.8-2l.6-3.4h.9L1.4-2v1.2l.8.2c.2 0 .4-.1.8-.4l.6-.6.5-1.4.5-2.4h.9L4.4 0h-.8l.1-1-.5.5-.4.5-.9.1Zm0 0"/>  <path id="k" d="m.3 0 1.1-5.4h.9l-.6 2.6 2.5-2.6h1.1L2.7-2.7 4.5 0h-1L1.6-2.7 1.2 0Zm0 0"/>  <path id="j" d="M2 0c-.6 0-.9 0-1.2-.3C.6-.7.5-1 .5-1.7c0-.5 0-1 .2-1.5l.5-1.1c.2-.4.5-.7.8-.9a2 2 0 0 1 1.1-.3c.4 0 .6.1.9.3l.5.7.3-.9h.7L4.4 0h-.7l.1-1c-.3.3-.5.6-.9.8-.3.2-.6.2-.9.2Zm.1-.5c.4-.1.6-.2.9-.5l.6-.6a4 4 0 0 0 .4-1 3 3 0 0 0 .1-.7 4 4 0 0 0 0-.4c.1-.3.1-.5-.1-.7-.3-.2-.5-.3-.8-.3-.3 0-.5 0-.7.2a2 2 0 0 0-.6.7l-.4 1-.1 1.1c0 .4 0 .6.2.8.1.2.3.3.6.3Zm.1-.1"/>  <path id="i" d="M1.5 0a4 4 0 0 1-.8 0A3 3 0 0 1 0-.2V-1l.7.2.9.2c.4 0 .8-.1 1-.4.4 0 .4-.3.4-.6 0-.4 0-.4-.2-.6L2-2.4h-.8l.2-.8h1.1c.3 0 .5-.2.6-.3l.2-.5c0-.3 0-.4-.2-.5-.2-.2-.4-.2-.6-.2h-.7l-.8.4L.8-5a4 4 0 0 1 1.8-.5c.4 0 .9.2 1.1.5.3 0 .6.4.6.8s-.3.7-.5.9c-.2.2-.5.4-.8.5.2 0 .4.2.6.4l.2.7c0 .5-.2 1-.5 1.3-.4.3-1 .4-1.9.4Zm0 0"/>  <path id="h" d="M3.6-6c-.6 0-1-.3-1.2-.5-.4-.1-.4-.4-.4-.8a1 1 0 0 1 0-.3h.9v.3c-.1.2-.1.3.1.3 0 .3.3.3.7.3.3 0 .5 0 .7-.2.2-.1.4-.3.4-.7h.9c-.1.6-.3.8-.7 1.1-.3.3-.8.5-1.4.5ZM1.9 0c-.4 0-.7 0-1-.1C.7-.5.5-.8.5-1.2v-.5L.8-2l.6-3.4h.9L1.4-2v1.2l.8.2c.2 0 .4-.1.8-.4l.6-.6.5-1.4.5-2.4h.9L4.4 0h-.8l.1-1-.5.5-.4.5-.9.1Zm0 0"/>  <path id="g" d="M2.4 0c-.6 0-1 0-1.4-.2C.8-.5.6-.9.6-1.4V-2a5 5 0 0 1 .2-.4l.6-3h.9L1.8-3l.5-.1h.5c.6-.1 1-.1 1.2.2.3.4.5.7.5 1.1s-.1.8-.3 1.1c-.1.2-.4.4-.7.5-.3.2-.7.3-1.1.3ZM5 0l1-5.4h1L5.8 0ZM2.4-.6c.4 0 .7-.1.9-.4a1 1 0 0 0 .3-.7l-.3-.6-.7-.1h-1v.6l-.2.3c.1.3.1.5.3.5.1.3.4.4.7.4Zm0 0"/>  <path id="f" d="m.3 0 1.1-5.4h.9L1.8-3h2.5l.5-2.4h.9L4.6 0h-1l.7-2.4H1.7L1.2 0Zm0 0"/>  <path id="e" d="m3.3 0 .3-1.5a12 12 0 0 1 .1-.7l.3-.6L3-2c-.2 0-.5.2-.9.2s-.8-.2-1-.4c-.1-.2-.3-.6-.3-1v-.9l.5-1.3H2L1.8-4l-.1.4v.3l.1.5c.2.3.4.3.6.3.2-.1.5-.1.6-.3.3-.1.6-.2.8-.7.2-.3.4-.7.5-1.3l.1-.6h.9L4.2 0Zm0 0"/>  <path id="d" d="m.3 0 1.1-5.4h.7v1l.4-.5.6-.4.7-.2c.4 0 .7.2.9.5.2 0 .3.4.3.7l.5-.5.6-.5.9-.2c.3 0 .6.2.9.5.1 0 .2.4.2.9v.4l-.1.4L7.4 0h-.9l.7-3.4v-.4l.2-.2c-.1-.3-.1-.4-.3-.5 0-.2-.1-.2-.5-.2-.2 0-.4 0-.6.2l-.7.8c-.3.3-.4.7-.5 1.3L4.3 0h-1l.9-3.4v-1.1c-.4-.2-.5-.2-.8-.2-.1 0-.3 0-.6.2l-.6.8c-.3.3-.4.7-.5 1.4L1.2 0Zm0 0"/>  <path id="c" d="M2.5 0C1.9 0 1.4 0 1-.3.7-.7.5-1.2.5-2c0-.4 0-1 .2-1.3l.5-1c.3-.5.6-.7 1-1 .2-.1.6-.2.9-.2l.9.1.6.2-.2.7-.5-.1-.6-.1c-.4 0-.7.1-1 .4-.3.2-.5.6-.7 1A4 4 0 0 0 1.4-2c0 .5 0 .8.3 1 .2.2.5.3.9.3h.6a7 7 0 0 0 .6-.3v.8l-.6.2h-.7Zm0 0"/>  <path id="b" d="M2.5 0C1.9 0 1.4 0 1-.4.7-.8.5-1.3.5-2l.1-1.2a4 4 0 0 1 .5-1.1c.3-.3.5-.7.9-.8.3-.2.7-.3 1.2-.3.6 0 1 .2 1.4.4.4.5.6 1.1.6 1.6L5-2a4 4 0 0 1-.5.9c-.2.5-.5.8-.8 1L2.5 0Zm0-.6c.5-.1.6-.1 1-.4.1-.2.3-.5.5-1 .2-.3.3-.8.3-1.4L4.2-4a1 1 0 0 0-.4-.5l-.6-.2c-.4 0-.7.1-1 .4-.2.2-.5.6-.6 1A4 4 0 0 0 1.4-2c0 .5 0 .8.3 1 .2.2.5.3.8.3Zm0-.1"/>  <path id="a" d="M.4 0 2-7.1h1.8c.6 0 1.2 0 1.5.3.4.3.7.8.7 1.3-.1.5-.3.9-.5 1.2-.3.3-.7.5-1.2.6l.7.5c.3.3.4.6.4 1 0 .5 0 .9-.3 1.2L4-.2 2.7 0Zm1.8-4h1.1l.9-.3.5-.4c.3-.2.3-.3.3-.7 0-.3-.1-.5-.3-.6-.2-.3-.7-.4-1-.4h-1ZM1.5-.9h1.2c.6.1 1 .1 1.3-.1.3-.4.5-.7.5-1.2 0-.3-.1-.6-.3-.8-.2-.3-.6-.4-1-.4H2Zm0 .1"/>  <path d="M1 0v-7.1h4V0Zm.4-.5h3.1v-6.1h-3Zm.1 0"/> </defs> <image xlink:href="svg/9/49_11.jpg" width="497" height="279"/> <path d="m380.3 32.2 1.5-7.1h1.9c.7-.1 1.2-.1 1.6.3.3.3.5.7.5 1.3 0 .5-.1.9-.4 1.2-.4.3-.7.5-1.2.6l.8.5c.2.3.4.6.4 1 0 .5-.2.9-.4 1.2-.2.3-.6.6-1 .8-.4.1-.9.2-1.4.2zm1.8-4h1.2l.7-.2.7-.5.2-.7c0-.3-.1-.5-.3-.7-.2-.2-.6-.3-1-.3h-1zm-.7 3.1h1.2c.6.1 1 .1 1.4-.2.3-.3.4-.7.4-1.1 0-.3-.1-.6-.3-.8-.2-.3-.6-.4-1.1-.4h-1.2zm7 1c-.6 0-1.1-.3-1.4-.6-.4-.3-.6-.7-.6-1.5 0-.4 0-.8.2-1.2a4 4 0 0 1 .4-1.1l.9-.9c.4-.1.7-.2 1.2-.2.6 0 .9.1 1.4.5.5.4.6 1 .6 1.5-.1.4-.1.9-.2 1.3a4 4 0 0 1-.5.9c-.2.6-.4.9-.8 1-.4.2-.7.3-1.2.3zm0-.8c.5 0 .8 0 1.1-.3l.5-1 .2-1.4-.2-.6a1 1 0 0 0-.3-.5l-.6-.2c-.4 0-.7.1-1.1.4l-.5 1a4 4 0 0 0-.2 1.3c0 .5 0 .8.3 1 .2.2.4.3.9.3zm5.6.8c-.6 0-1-.3-1.4-.5-.4-.3-.6-.8-.6-1.5l.2-1.4c.2-.4.3-.8.6-.9.2-.6.5-.9.9-1 .3-.2.7-.3 1.1-.3l.7.1.7.2-.3.7-.5-.1-.4-.1c-.5 0-1 .1-1.1.4-.4.1-.7.6-.8 1a4 4 0 0 0-.2 1.4c.1.4.1.7.3 1 .3.1.6.2 1 .2h.5a7 7 0 0 0 .7-.3v.8l-.6.2h-.8zm2.4-.1 1.1-5.4h.7v1l.4-.5.6-.3.7-.3c.4 0 .6.3.8.4.3.2.4.5.4.8l.5-.5.6-.5.8-.2c.4 0 .7.3 1 .4.1.2.2.5.2.9v.5l-.1.5-.6 3.2h-1l.9-3.4v-1.1c-.4-.2-.6-.2-.8-.2-.1 0-.3 0-.6.2l-.7.8c-.2.3-.3.7-.3 1.3l-.7 2.4h-.8l.7-3.4v-1.1c-.2-.2-.4-.2-.7-.2-.1 0-.3 0-.5.2l-.8.8-.5 1.4-.5 2.3zm10.9.1c-.6 0-1.1-.3-1.5-.6-.3-.3-.5-.7-.5-1.5 0-.4 0-.8.2-1.2a4 4 0 0 1 .5-1.1l.8-.9 1.2-.2c.6 0 1 .1 1.5.5.3.4.5 1 .5 1.5 0 .4 0 .9-.2 1.3a4 4 0 0 1-.5.9c-.2.6-.5.9-.8 1-.3.2-.7.3-1.2.3zm0-.8c.5 0 .7 0 1.1-.3l.4-1 .2-1.4v-.6a1 1 0 0 0-.4-.5l-.6-.2c-.4 0-.7.1-1 .4l-.5 1a4 4 0 0 0-.3 1.3c0 .5.1.8.3 1 .2.2.5.3.9.3zm6.3.7.4-1.5a12 12 0 0 1 .1-.7l.2-.6-.9.7c-.2.2-.5.3-.9.3s-.8-.2-1-.4c-.3-.2-.5-.6-.5-1v-.4l.4-.6.1-1.2h1l-.5 1.3v.9l.1.4c.2.2.4.2.7.2.2 0 .4 0 .7-.2.2-.1.4-.3.5-.7.4-.3.5-.7.7-1.3v-.6h1.1l-1.3 5.4zm2.6 0 1.2-5.4h.9l-.5 2.3h2.5l.5-2.3h.9l-1.2 5.4h-.9l.5-2.4h-2.5l-.5 2.4zm8.1.1c-.5 0-1-.1-1.2-.4-.4-.2-.5-.6-.5-1.1v-.5a5 5 0 0 1 .1-.5l.6-3h1l-.7 2.4.6-.2h.6c.5 0 1 0 1.2.3.3.4.4.7.4 1.1s0 .8-.2 1.1c-.2.2-.4.4-.7.5-.3.2-.7.3-1.2.3zm2.7-.1 1.1-5.4h.8l-.9 5.4zm-2.6-.6c.4 0 .6-.1.9-.3a1 1 0 0 0 .2-.8c0-.2 0-.4-.2-.5l-.8-.2h-.9l-.1.6v.3c-.1.3-.1.5.1.6.2.2.4.3.8.3zm8.4-5.5c-.5 0-1 0-1.2-.3-.2-.2-.3-.5-.3-.8a1 1 0 0 1 0-.4h.8v.7c.3.2.5.2.9.2.2 0 .5 0 .7-.2.2-.1.3-.3.3-.7h.9c.1.5-.3.8-.6 1.1-.3.3-.8.4-1.5.4zm-1.7 6.2c-.4 0-.7-.1-1-.3-.1-.3-.3-.6-.3-1v-.5l.2-.4.6-3.3h.9l-.7 3.4-.1.8.1.4.6.2c.2 0 .5-.1.6-.3.4-.1.6-.3 1-.7l.4-1.4.5-2.4h.8l-1.1 5.4h-.7v-1c.1.2-.2.3-.4.5l-.6.4-.8.2zm-43 11.9a4 4 0 0 1-.8 0 3 3 0 0 1-.7-.4v-.7l.7.3.9.1c.4 0 .8 0 1-.3.3-.1.4-.4.4-.7 0-.2 0-.4-.2-.5l-.8-.3h-.8l.2-.7h1.1l.6-.4.2-.6c0-.1 0-.3-.2-.4l-.7-.2-.6.1c-.2 0-.5.1-.7.3l-.3-.8a4 4 0 0 1 1.8-.3c.5 0 .8 0 1.1.3.3.2.5.5.5 1 0 .2-.1.5-.4.7-.2.4-.4.5-.9.6l.7.4.2.8c0 .5-.2.9-.6 1.2-.3.4-.8.5-1.7.5zm4.9 0c-.5 0-.8-.1-1-.4-.4-.3-.6-.8-.6-1.4.1-.5.1-1 .3-1.4.1-.5.3-1 .6-1.2.2-.4.5-.6.7-.8a2 2 0 0 1 1-.3c.5 0 .8 0 1.1.3l.3.6.6-.8h.5l-1.1 5.2h-.7l.1-.9-.8.9c-.3.1-.7.2-1 .2zm.3-.7c.2 0 .4 0 .7-.3l.6-.7a4 4 0 0 0 .5-1 3 3 0 0 0-.1-.6 4 4 0 0 0 .3-.4c-.1-.3-.1-.6-.4-.8-.1-.2-.4-.3-.7-.3-.2 0-.5.1-.7.3a2 2 0 0 0-.5.6c-.2.3-.4.7-.4 1l-.2 1.1c0 .4 0 .7.2.8.2.2.4.3.7.3zm3.7.6 1.1-5.3h.9l-.5 2.6 2.5-2.6h1l-2.6 2.6 1.8 2.7h-1l-1.9-2.6-.3 2.5zm6.5.1c-.4 0-.8-.1-1-.4-.3-.3-.5-.8-.5-1.4l.2-1.4.7-1.2c.1-.4.4-.6.7-.8a2 2 0 0 1 1-.3c.4 0 .8 0 1.1.3 0 0 .1.4.3.6l.5-.8h.6l-1.2 5.2h-.7l.2-.9-1 .9c-.2.1-.4.2-.9.2zm.3-.7c.2 0 .5 0 .7-.3.3-.1.5-.4.7-.7a4 4 0 0 0 .4-1 3 3 0 0 0 .1-.6 4 4 0 0 0 0-.4c0-.3 0-.6-.2-.8-.2-.2-.5-.3-.7-.3-.3 0-.5.1-.8.3a2 2 0 0 0-.5.6l-.5 1v1.1c0 .4 0 .7.2.8.1.2.3.3.6.3zm5 .7a4 4 0 0 1-.9 0 3 3 0 0 1-.7-.4v-.7l.8.3 1 .1c.3 0 .6 0 .9-.3.1-.1.3-.4.3-.7 0-.2 0-.4-.2-.5l-.8-.3h-.7l.2-.7h1.1l.5-.4.3-.6c0-.1-.1-.3-.3-.4l-.6-.2-.7.1-.7.3-.2-.8a4 4 0 0 1 1.7-.3c.5 0 1 0 1.2.3.3.2.4.5.4 1 0 .2 0 .5-.3.7-.2.4-.5.5-1 .6.5.1.7.2.8.4.1.3.2.5.2.8-.1.5-.2.9-.6 1.2-.4.4-1 .5-1.7.5zm3.2-.1 1-5.3h1l-.5 2.2h2.5l.5-2.2h.9l-1.1 5.2h-1l.7-2.3h-2.6l-.5 2.4zm7.6.1c-.4 0-.7 0-1-.2-.2-.3-.3-.7-.3-1.1V42l.9-3.2h.8l-.8 3.4v1.1l.6.2c.3 0 .5 0 .8-.2.2-.3.4-.4.7-.8.2-.4.4-.8.5-1.4l.5-2.3h1L422 44h-.7l.2-.9-.5.7-.6.2-.8.2zm4.2-.1 1.1-5.3h.9l-.6 2.6 2.5-2.6h1.1l-2.6 2.6 1.8 2.7h-1l-1.9-2.6-.4 2.5zm0 0" style="fill:none;stroke:#fff;stroke-width:2;stroke-linecap:butt;stroke-linejoin:round;stroke-miterlimit:10;stroke-opacity:.6" transform="rotate(  340 410.086 54.9702) translate(2.6599576,19.801907)"/> <g style="fill:#007f00;fill-opacity:1" transform=" rotate(  340 410.086 54.9702) ">  <use xlink:href="#a" x="382.6" y="52"/>  <use xlink:href="#b" x="388.6" y="52"/>  <use xlink:href="#c" x="394.2" y="52"/>  <use xlink:href="#d" x="398.7" y="52"/>  <use xlink:href="#b" x="407.5" y="52"/>  <use xlink:href="#e" x="413" y="52"/>  <use xlink:href="#f" x="418.6" y="52"/>  <use xlink:href="#g" x="424.6" y="52"/>  <use xlink:href="#h" x="431.9" y="52"/>  <use xlink:href="#i" x="389.3" y="63.9"/>  <use xlink:href="#j" x="393.7" y="63.9"/>  <use xlink:href="#k" x="399.4" y="63.9"/>  <use xlink:href="#j" x="404.2" y="63.9"/>  <use xlink:href="#i" x="409.9" y="63.9"/>  <use xlink:href="#f" x="414.4" y="63.9"/>  <use xlink:href="#l" x="420.4" y="63.9"/>  <use xlink:href="#k" x="426.2" y="63.9"/> </g></svg>