<svg xmlns="http://www.w3.org/2000/svg" xmlns:xlink="http://www.w3.org/1999/xlink" viewBox="0 0 497 279"> <defs overflow="visible" style="stroke:none">  <path id="g" d="M0-5.4h1l1 3 .4 1 .2.6.2-.7c0-.3.2-.5.2-.8l1-3h1.2L2.8.6c-.2.6-.4 1.1-.7 1.4-.3.3-.7.4-1.3.4H.1v-.9h.6c.3.2.6.2.7 0L2 .7l.2-.7Zm0 0"/>  <path id="f" d="M6.1 0h-.9v-6.3H3l-.3 1.5-.2 1.6L2.3-2c0 .5-.2.8-.3 1.2l-.5.7-.8.1a2 2 0 0 1-.4.1L0 0v-.8l.3.1h.3c.2.1.3.1.4-.1l.3-.7.2-.7.2-1.1.2-1.7.3-2.1h4Zm0 0"/>  <path id="e" d="M4-5.4h1L2.7-2.8 5.2 0h-1L1.7-2.7V0H.8v-5.4h1v2.6Zm0 0"/>  <path id="d" d="M1.7-5.4v3.7a18.9 18.9 0 0 0 0 .7l2.7-4.4h1.1V0h-.7v-4.1l.1-.4-3 4.5H1v-5.4Zm0 0"/>  <path id="c" d="M5 0H4v-4.6H2.5L2-2 1.5-.4c-.3.3-.6.4-1 .4H0v-.7h.4c.3.1.6-.3.8-.9.2-1 .4-2.2.5-3.9h3.2Zm0 0"/>  <path id="b" d="M3-5.5c.3 0 .7.1 1 .3a2 2 0 0 1 1 .9v1.8H1.5c0 .5.1 1 .4 1.4.3.3.7.4 1.3.4H4l.9-.3v.8L4 0a5 5 0 0 1-1 0 3 3 0 0 1-1.2-.1 2.2 2.2 0 0 1-1-1.1c0-.2-.2-.8-.2-1.3-.1-.7 0-1.2.2-1.6.2-.5.5-.9.9-1 .3-.2.7-.4 1.2-.4Zm0 .8c-.6 0-.9.1-1 .4-.4.2-.6.6-.6 1.1h2.8c0-.5-.1-.8-.3-1.1-.2-.3-.5-.4-1-.4Zm0 0"/>  <path id="a" d="M1-7.1h2c1 0 1.6.1 2 .4.5.2.7.7.7 1.3 0 .5-.1.8-.3 1-.4.4-.6.6-1 .7l.8.3c.2 0 .4.2.5.5.3.2.3.5.3.9 0 .6-.3 1-.7 1.5-.5.3-1 .5-1.8.5H1Zm.9 3h1.3c.6.1 1 .1 1.3-.3.2-.2.3-.5.3-.9s-.1-.6-.4-.7c-.4-.3-.8-.4-1.4-.4H2Zm0 .8v2.5h1.4c.7 0 1 0 1.3-.2.4-.4.4-.7.4-1.1s-.1-.7-.4-.9c-.2-.2-.6-.3-1.4-.3Zm0 0"/>  <path d="M1 0v-7.1h4V0Zm.4-.5h3.1v-6.1h-3Zm.1 0"/> </defs> <image xlink:href="svg/9/4_18.jpg" width="497" height="279"/> <path d="M344.3 68.1h2c1.1 0 1.7.1 2.1.4.6.3.8.7.8 1.5-.2.3-.2.7-.5.9-.2.3-.5.5-1 .6.3 0 .6.1.8.3.3 0 .5.2.6.5l.2 1c0 .5-.2.9-.7 1.3-.4.5-1 .6-1.8.6h-2.5Zm1 3h1.2c.7.1 1.1.1 1.3-.1.2-.3.4-.6.4-1.1 0-.2-.2-.5-.5-.7l-1.3-.2h-1.2Zm-.1.9v2.5h1.4c.7 0 1.1-.1 1.4-.5.2 0 .4-.4.4-.9 0-.2-.2-.5-.4-.7-.3-.4-.7-.6-1.4-.6Zm7.6-2.2 1.2.3a2 2 0 0 1 .7.8c.3.4.3.8.3 1.3v.5h-3.7c0 .7.2 1.1.5 1.4.2.3.7.5 1.2.5l1-.1.7-.3v.8l-.8.3a5 5 0 0 1-.9 0 3 3 0 0 1-1.3-.3 2.2 2.2 0 0 1-1-.9c-.2-.4-.3-.9-.3-1.5s.1-1 .3-1.5l.8-1c.5-.1.8-.3 1.3-.3Zm0 .7c-.4 0-.8.2-1 .5-.3.2-.4.6-.5 1h2.8c-.1-.4-.1-.8-.3-1-.3-.4-.6-.6-1-.6Zm7.6 4.8h-.8v-4.8H358l-.4 2.8-.6 1.5c-.3.4-.6.5-1 .5h-.4v-.8h.3c.3.1.6-.3.9-1l.3-3.6h3.3Zm2.6-5.4v3.6a18.9 18.9 0 0 0 0 .9l2.7-4.5h1.1v5.3h-.8v-4.4l-2.7 4.5h-1.1v-5.5Zm8.7 0h1l-2.3 2.6 2.5 2.8h-1l-2.5-2.8v2.8h-.8v-5.5h.8v2.7Zm3 0v3.6a18.9 18.9 0 0 0 0 .9l2.7-4.5h1.1v5.3h-.6v-4.4l-3 4.5h-.9v-5.5Zm7.7-.1c.4 0 .8.1 1.1.3a2 2 0 0 1 .8.8c.2.4.3.8.3 1.3v.5h-3.7c0 .7.1 1.1.5 1.4.3.3.6.5 1.2.5l1-.1.6-.3v.8l-.7.3a5 5 0 0 1-1 0 3 3 0 0 1-1.2-.3 2.2 2.2 0 0 1-1-.9c-.2-.4-.3-.9-.3-1.5s0-1 .3-1.5c.2-.4.4-.7.7-1 .5-.1 1-.3 1.4-.3Zm0 .7c-.6 0-.9.2-1.1.5-.3.2-.3.6-.5 1h2.8c0-.4 0-.8-.3-1-.2-.4-.5-.6-1-.6Zm-24 17.2h-1v-6.4h-2.1L355 83l-.2 1.5-.2 1.2-.3 1.1-.5.8-.9.2a2 2 0 0 1-.3 0l-.3-.1v-.8l.2.1h.3c.2 0 .4 0 .5-.1l.3-.7.2-.7.1-1.1.3-1.8.3-2h3.9Zm1-5.4h.9l1.2 3 .2.9.3.6.1-.6.3-.8 1.1-3h1l-2.5 5.9c0 .7-.3 1.1-.6 1.3-.3.4-.7.5-1.2.5h-.4l-.3-.1v-.7h.5c.4.1.6.1.8-.1l.4-.8.3-.7Zm9.1 0h1L367 85l2.6 2.7h-1l-2.4-2.7v2.7h-1v-5.4h1.1V85Zm2.9 0v4.5l2.8-4.5h1.1v5.4h-.8v-4.5l-2.8 4.5h-1.1v-5.4Zm0 0" style="fill:none;stroke-width:3;stroke-linecap:butt;stroke-linejoin:round;stroke:#fff;stroke-opacity:.6;stroke-miterlimit:10" transform=" rotate(  340 364.596 78.47) "/> <g style="fill:#222;fill-opacity:1" transform=" rotate(  340 364.596 78.47) ">  <use xlink:href="#a" x="343.4" y="75.3"/>  <use xlink:href="#b" x="349.9" y="75.3"/>  <use xlink:href="#c" x="355.5" y="75.3"/>  <use xlink:href="#d" x="361.3" y="75.3"/>  <use xlink:href="#e" x="367.7" y="75.3"/>  <use xlink:href="#d" x="373" y="75.3"/>  <use xlink:href="#b" x="379.4" y="75.3"/>  <use xlink:href="#f" x="352.3" y="87.7"/>  <use xlink:href="#g" x="359.3" y="87.7"/>  <use xlink:href="#e" x="364.4" y="87.7"/>  <use xlink:href="#d" x="369.7" y="87.7"/> </g></svg>