<svg xmlns="http://www.w3.org/2000/svg" xmlns:xlink="http://www.w3.org/1999/xlink" viewBox="0 0 497 279"> <defs overflow="visible" style="stroke:none">  <path id="q" d="m-.2 2.4 1.6-7.8h.7v1l.7-.6c.3-.3.7-.5 1-.5.5 0 .8.2 1 .5.5.3.6.8.6 1.4-.1.5-.1 1-.3 1.4L4.6-1l-.8.8a2 2 0 0 1-1.1.3C2.3 0 2 0 1.8-.2a2 2 0 0 1-.5-.6v.4L1 .1.7 2.4Zm2.8-3c.4 0 .5-.1.7-.4.3 0 .5-.3.7-.6a4 4 0 0 0 .3-1 5 5 0 0 0 .1-.9c0-.9-.3-1.2-.9-1.2-.2 0-.4 0-.5.2l-.8.7-.4 1c-.2.3-.2.7-.2 1.1 0 .3 0 .6.2.8.2.2.5.3.8.3Zm0 0"/>  <path id="p" d="M1.9 0c-.4 0-.7 0-1-.1C.7-.5.5-.8.5-1.2v-.5L.8-2l.6-3.4h.9L1.4-2v1.2l.8.2c.2 0 .4-.1.8-.4l.6-.6.5-1.4.5-2.4h.9L4.4 0h-.8l.1-1-.5.5-.4.5-.9.1Zm0 0"/>  <path id="o" d="M1.8 0c-.4 0-.7 0-1-.1C.8-.5.6-.8.6-1.2v-.5L.8-2l.5-3.4h1L1.4-2v1.2l.8.2c.1 0 .4-.1.6-.4l.7-.6L4-3l.5-2.4h.9L4.6-2v1.2l.7.2.6-.4.7-.6L7-3l.6-2.4h.9L7.3 0h-.7l.1-1-.5.5-.5.5-.8.1c-.3-.1-.6-.1-.8-.3-.2-.2-.3-.5-.4-.9l-.5.6-.6.4-.8.2Zm0 0"/>  <path id="n" d="M2 0c-.6 0-.9 0-1.2-.3C.6-.7.5-1 .5-1.7c0-.5 0-1 .2-1.5l.5-1.1c.2-.4.5-.7.8-.9a2 2 0 0 1 1.1-.3c.4 0 .6.1.9.3l.5.7.3-.9h.7L4.4 0h-.7l.1-1c-.3.3-.5.6-.9.8-.3.2-.6.2-.9.2Zm.1-.5c.4-.1.6-.2.9-.5l.6-.6a4 4 0 0 0 .4-1 3 3 0 0 0 .1-.7 4 4 0 0 0 0-.4c.1-.3.1-.5-.1-.7-.3-.2-.5-.3-.8-.3-.3 0-.5 0-.7.2a2 2 0 0 0-.6.7l-.4 1-.1 1.1c0 .4 0 .6.2.8.1.2.3.3.6.3Zm.1-.1"/>  <path id="m" d="m.3 0 1.1-5.4h.9L1.8-3h2.5l.5-2.4h.9L4.6 0h-1l.7-2.4H1.7L1.2 0Zm0 0"/>  <path id="l" d="M-.3 2.4h-.3l-.4-.1v-.7h.7c.3.1.5.1.7-.1.2-.2.4-.5.5-.8l.4-.6-.8-5.5h.9l.3 2.7v.7l.2.7v.6A28.4 28.4 0 0 1 2.5-2c-.1 0 .1-.3.2-.4l1.5-3h1L1.7 1c-.1.4-.4.8-.7 1-.4.3-.8.4-1.2.4Zm0 0"/>  <path id="k" d="M.4 0 2-7.1h1L2-3.7 5.4-7h1.1L3-3.6 5.2 0h-1L2-3.5 1.3 0Zm0 0"/>  <path d="M1 0v-7.1h4V0Zm.4-.5h3.1v-6.1h-3Zm.1 0"/>  <path id="j" d="M6.2-2.4V-1H3.8v-1.4Zm.7 2V-3H3V.2h.8v-.6Zm.8-6.8v1.3H2.3v-1.3ZM2.3-4.4v-.9h6.1v-2.5H1.5v2.3c0 1.7 0 4-1.2 5.5l.7.5c.7-1.2 1.1-2.8 1.2-4.3h6.1C8.3-1.2 8.1-.3 8 0H6.3l.2.7H8c.2 0 .4 0 .5-.3C8.8.1 9-1 9.1-4v-.4Zm0 0"/>  <path id="i" d="M3.4-1.4A11 11 0 0 1 .6.2l.4.6A14 14 0 0 0 4.1-1Zm2.5.5A21 21 0 0 1 8.8.8l.7-.5-3-1.7Zm-1.3-4h.8v1.2h-.8Zm-.3 1.6h1.5v-2.2H4.3Zm1.6-3.3H4.2v.5h1.7Zm-4 3.1H3v-.6H2v-1.2h1V-6H2l-.2-1a16 16 0 0 0 1.5-.8v5.6H2Zm4.4-3.8v5H3.9v-4.9Zm2.4 5 .1-5.5H7v.6h1.2V-6H7v.7h1.1v1.2H7v.6h1v1.3H6.6V-8H3.3L3-8.3l-1 .6-.9-.1.3 5.6h-1v.7h9.2v-.7Zm0 .1"/>  <path id="h" d="m3.5-3.5-.1-.7-1 .4v-1.9h1v-.7h-.9v-2h-.8v2H.5v.7h1.2v2l-1.4.6.2.6 1.2-.4V0s0 .1-.2.1h-1c.3.2.4.5.4.7.5 0 .9 0 1.1-.2.3 0 .4-.3.4-.6v-3Zm5.4.1L7.7-2.3a8.2 8.2 0 0 1-.4-1.3h2.2v-.8h-5l.2-.6v-2.2h4.6v-.7H3.9V-5C4-3.4 4-1.2 2.8.3l.5.4c.9-1.2 1.2-3 1.3-4.4h.6v3.5l-.9.1.2.7 3-.7v-.6l-1.7.3v-3.3h.9C7-1.6 7.7 0 9.2.7a3 3 0 0 1 .5-.6c-.8-.3-1.4-1-1.8-1.8l1.5-1.2ZM9-5.5v-.7H5v.7Zm0 0"/>  <path id="g" d="M7.3-2.5v2.2H2.7v-2.2ZM2 .8h.7V.4h4.6v.4h.8v-4H2Zm.5-6v.8h5V-5Zm2-3c-.6 1.1-2.3 2.7-4 3.5l.3.7C2.5-5 4.2-6.4 5-7.6 6-6.3 7.7-5 9.2-4.1l.5-.7a12 12 0 0 1-4.4-3.5Zm.1-.1"/>  <path id="f" d="M7.3-8c.4.8 1.2 1.8 1.9 2.3l.5-.5a7 7 0 0 1-1.8-2ZM4.5-3.7 8.3-4l.4.7.6-.3c-.3-.6-1-1.5-1.5-2.1l-.5.3.6.8-1.9.1 1-2-.9-.2a20 20 0 0 1-.8 2.2h-1Zm1.1.5c.6.3 1.4.9 1.7 1.3l.4-.5c-.3-.4-1-.9-1.6-1.2Zm-.1-5A5.2 5.2 0 0 1 3.9-6l.6.5a6.6 6.6 0 0 0 1.7-2.6ZM.9-2.7C1-1.8.6-.9.3-.3l.6.2c.3-.6.5-1.6.6-2.5Zm2.6-.9.3.7.6-.3a8.4 8.4 0 0 0-1.1-2l-.6.2.5 1H1.7c.7-.8 1.5-2 2-2.8l-.6-.4L2-5.4l-.6-.7L2.7-8 2-8.4l-.9 2c0-.3-.1-.4-.3-.5l-.4.6c.6.4 1 1 1.3 1.5L1-4H.3l.2.7L2-3.4V.8h.7v-4.3Zm-.5 1c.3.6.5 1.5.6 2l.6-.3a10.2 10.2 0 0 0-.6-1.8ZM4.4.5c.4-.8.6-1.7.8-2.5h-.6c-.1.7-.4 1.6-.8 2ZM6.5 0c-.2.1-.3.1-.3-.2v-2.1h-.6v2.1c0 .8.1 1 .9 1h1c.5 0 .7-.3.8-1.6l-.6-.1c0 .9 0 .9-.3.9ZM8-1.9c.5.7 1 1.6 1.1 2.3l.6-.4C9.5-.6 9-1.5 8.5-2.2ZM8-2"/>  <path id="e" d="M5.5-2.8 7-4a8 8 0 0 0 1.4 1.2Zm.2 2.5v-1.9h2.5v2ZM4.2-3.5H3v-1.4h1.2v-.3l.5.4.9-1.1a8 8 0 0 0 .9 1.4A6.9 6.9 0 0 1 4.2-3ZM1.6-7.3h1.9v1.8h-2Zm6.4.6A6.6 6.6 0 0 1 7-5a7.2 7.2 0 0 1-1-1.5v-.2Zm.4-.7H6.3l.4-.7-.7-.3C5.6-7.2 5-6 4.2-5.3V-8H.9v3h1.4v4.2l-.8.1V-4H1v3.5H.4l.1.9L4.4-.7v-.6L3-1v-1.8h1l.4.5.6-.3V.8h.7V.3h2.5v.4h.7v-3.3l.3.2a3 3 0 0 1 .5-.6 6.5 6.5 0 0 1-2.3-1.5A7.5 7.5 0 0 0 9-7.2Zm0 0"/>  <path id="d" d="M5-4.7C5-3.3 5-2 4.5-.8V-1l-1.7.3v-2.9h1.6v-.6H3v-1.1h1.2V-6H1.4a10 10 0 0 0 1.3-1.7l1.5 1.8.5-.6a14.4 14.4 0 0 0-1.8-1.9h-.7c-.4.8-1 1.8-2 2.6l.6.5.4-.4v.4h1v1H.7v.8h1.6v2.9L.5-.3l.2.7 3.5-.7-.4.6.5.5C5.5-.8 5.7-2.7 5.7-4.7V-8H5ZM.8-2.9c.2.6.4 1.4.4 1.9l.7-.2A8.2 8.2 0 0 0 1.4-3Zm3 1.7L4.2-3l-.5-.2c0 .6-.3 1.4-.4 1.8Zm2.9 1h.6v-7.6h-.6Zm1.7-8.1V.8h.8v-9Zm.1.1"/>  <path id="c" d="M9.5-6.3V-7H5.4v-1.4h-.8V-7h-4v.7h3.9v1.4H1.6v4.4h.7v-3.7h2.3v5h.7v-5h2.5v2.8c0 .1 0 .2-.2.2H6l.4.7L8-.6c.5-.2.6-.4.6-.8V-5H5.3v-1.3Zm0 0"/>  <path id="b" d="M1.5-7h7v1.3h.8v-1.9h-4v-.8h-.7v.8H.7v1.8h.8ZM5.3-.1v-1.3h3.2v-.7H5.3v-1.1l2.5-.2.6.7.6-.4a11.3 11.3 0 0 0-2.3-2l-.5.4 1 .8H3.5l1-1.3h3.7v-.7H1.7v.6h1.9l-.9 1.5H1.3v.7l3.4-.1v1.1H1.6v.7h2.9v1.2H.6v.7h8.8v-.7Zm0-.1"/>  <path id="a" d="M4.1-3a60 60 0 0 0-1.3-1.7v-.8H4v-.7H2.8v-2.2H2v2.2H.5v.7H2C1.6-4.2 1-2.6.3-1.8l.4.8c.5-.8 1-1.8 1.3-3V.8h.8v-4.6l.8 1.4Zm1.2-2.4h3v1.1H5.2Zm3-1.8V-6H5.2v-1ZM9-3.3 7.5-2a6.9 6.9 0 0 1-.7-1.6H9v-4.2H4.6v7.5l-.8.2.2.7 3.3-.7-.1-.7-1.9.4v-3.2h.9c.5 2 1.4 3.6 3 4.4 0-.2.3-.5.5-.6-.8-.4-1.5-1-2-1.7l1.8-1.3Zm0 0"/>  <path d="M1 1.2h8v-10H1Zm4-5.4L1.8-8.3h6.4Zm.3.4 3.2-4v8ZM1.8.7l3.2-4L8.2.6Zm-.3-8.6 3.2 4.1L1.5.3Zm0 0"/> </defs> <image xlink:href="svg/9/50_4.jpg" width="497" height="279"/> <path d="M316.8 209.7a60 60 0 0 0-1.4-1.7v-.8h1.3v-.7h-1.3v-2.2h-.7v2.2h-1.5v.7h1.4c-.3 1.3-1 2.8-1.6 3.7l.4.7c.5-.6 1-1.6 1.3-2.9v4.7h.7V209l1 1.3zm1.2-2.4h2.9v1.1h-3zm2.9-1.8v1.1h-3v-1zm.7 3.9c-.3.4-1 .9-1.5 1.3a6.9 6.9 0 0 1-.6-1.7h2.1v-4.1h-4.3v7.5l-.8.2.2.7 3.2-.7v-.7l-2 .4V209h1.1c.4 2 1.3 3.7 2.9 4.5-.1-.2.2-.5.3-.6-.7-.4-1.2-1-1.8-1.7l1.7-1.3zm2.5-3.6h7.1v1.1h.8v-1.8h-4v-.8h-.7v.8h-3.9v1.8h.7zm4 6.7v-1.2h3v-.7H328v-1.2h2.5l.6.6.6-.4a11.3 11.3 0 0 0-2.3-2l-.6.4 1 .8h-3.6l1-1.3h3.8v-.7h-6.6v.6h1.9l-.9 1.6H324v.6l3.4-.1v1.1h-3.2v.7h3v1.2h-3.8v.7h8.7v-.7zm14.1-6.1v-.7H338v-1.4h-.8v1.4h-3.9v.7h3.9v1.4h-2.9v4.4h.7v-3.7h2.3v5h.7v-5h2.5v2.8c0 .1 0 .2-.3.2h-1.4l.2.7 1.8-.2c.3-.1.4-.3.4-.7v-3.5H338v-1.4zm0 0" style="fill:none;stroke:#fff;stroke-width:3;stroke-linecap:butt;stroke-linejoin:round;stroke-miterlimit:10;stroke-opacity:.6" transform=" rotate(  340 327.673 209.699) "/> <g style="fill:#212121;fill-opacity:1" transform=" rotate(  340 327.673 209.699) ">  <use xlink:href="#a" x="312.7" y="212.7"/>  <use xlink:href="#b" x="322.7" y="212.7"/>  <use xlink:href="#c" x="332.7" y="212.7"/> </g> <path d="M108.4 236.2c0 1.3 0 2.6-.4 3.8v-.2l-1.6.3v-2.8h1.4v-.7h-1.4v-1h1.2v-.7h-2.8a10 10 0 0 0 1.3-1.7c.6.5 1.2 1.2 1.5 1.7l.5-.6a14.4 14.4 0 0 0-1.8-1.8h-.7c-.3.8-1 1.8-1.9 2.5l.5.5.4-.4v.5h1.1v1h-1.6v.7h1.6v3c-.7 0-1.3.2-1.7.3v.7l3.7-.8-.5.7c.2 0 .5.3.6.4 1.2-1.5 1.2-3.5 1.2-5.4v-3.5h-.6zm-4.1 1.7c.2.6.4 1.4.4 1.9l.6-.2a8.2 8.2 0 0 0-.5-1.8zm2.9 1.7.6-1.6-.6-.3-.5 1.8zm3 1h.6v-7.4h-.6zm1.8-8v9.1h.7v-9.1zM118.9 238l1.5-1.2a8 8 0 0 0 1.5 1.2zm.1 2.6v-2h2.6v2.1zm-1.3-3.2h-1.3v-1.5h1.2v-.3l.5.5 1-1.2a8 8 0 0 0 .7 1.4 6.9 6.9 0 0 1-2.1 1.6zm-2.7-3.8h2v1.7h-2zm6.4.4a6.6 6.6 0 0 1-1 1.8 7.2 7.2 0 0 1-1-1.5v-.2zm.4-.5h-2.1l.3-.9-.6-.1c-.4 1.2-1 2.3-1.8 3V233h-3.2v2.9h1.4v4.1l-.8.3v-3.4h-.6v3.4l-.6.1.2.7 3.8-1v-.5l-1.4.2v-1.7h1c.3-.1.5.3.5.5l.6-.3v3.3h.5v-.4h2.6v.4h.7v-3.3l.4.1a3 3 0 0 1 .3-.6 6.5 6.5 0 0 1-2.2-1.5 7.5 7.5 0 0 0 1.5-2.6zm8.9-.7c.5.9 1.3 1.8 2 2.4-.1-.2.3-.4.3-.6a7 7 0 0 1-1.7-2zm-2.7 4.3 3.7-.3.4.8.6-.4c-.2-.6-.9-1.4-1.4-2l-.6.1.6.9-1.8.1.9-2-.8-.2a20 20 0 0 1-.8 2.3h-1zm1.1.6c.6.3 1.3.8 1.6 1.2l.5-.4c-.4-.5-1-1-1.7-1.2zm-.2-5a5.2 5.2 0 0 1-1.6 2.1l.7.5a6.6 6.6 0 0 0 1.6-2.5zm-4.5 5.3c-.1 1.1-.4 2-.7 2.5l.6.3c.3-.8.5-1.6.7-2.5zm2.6-.7.2.7.6-.3a8.4 8.4 0 0 0-1-2l-.7.2.6.8-1.7.1c.8-.8 1.6-2 2.1-2.9l-.5-.3c-.3.6-.6 1.2-1.1 1.8l-.5-.6 1-2-.6-.4-.8 2a5 5 0 0 0-.3-.4l-.5.6 1.3 1.4-.6.8h-.7v.9l1.8-.3v4.2h.4v-4.2zm-.5 1 .5 1.8.6-.1a10.1 10.1 0 0 0-.6-1.9zm1.3 2.9c.4-.6.7-1.5.8-2.3l-.6-.1c0 .8-.4 1.6-.8 2.1zm2.2-.2c-.3 0-.3 0-.3-.3v-2.2h-.7v2.2c0 .7.2.9.9.9h1c.6 0 .8-.3.8-1.4l-.6-.3c0 1.1 0 1.1-.3 1.1zm1.4-2c.5.5 1 1.5 1.1 2.1l.6-.1c-.1-.7-.6-1.6-1.1-2.3zm9.3-.7v2.2h-4.6v-2.2zm-5.3 3.3h.7v-.4h4.6v.4h.8v-4h-6zm.6-5.9v.7h5v-.7zm2-3.2c-.8 1.3-2.4 2.8-4.2 3.7l.5.6c1.7-1 3.3-2.4 4.1-3.6 1 1.3 2.7 2.8 4.2 3.5l.5-.6a12 12 0 0 1-4.3-3.6zm-26 18.1-.3-.7-.9.3v-1.8h1v-.7h-.9v-2h-.8v2H109v.7h1v2l-1.2.6.2.6 1-.4v2.8h-1l.3.8 1.2-.1c.2-.1.3-.3.3-.7v-3zm5.3 0c-.3.4-.7 1-1.3 1.3a8.2 8.2 0 0 1-.2-1.6h2.1v-.6H113v-2.8h4.8v-.7h-5.5v2.8c0 1.6 0 3.8-1 5.4l.4.4c.9-1.2 1.2-3 1.3-4.5h.6v3.5l-.8.2.1.6 3.1-.6v-.6l-1.8.3v-3.4h.8c.4 2.2 1.1 3.8 2.7 4.5a3 3 0 0 1 .3-.6c-.7-.2-1.3-1-1.7-1.8l1.7-1.4zm.1-1.9v-.8h-3.8v.7zM121.8 252.7a11 11 0 0 1-2.8 1.6l.6.5a14 14 0 0 0 2.9-1.7zm2.5.5a21 21 0 0 1 3 1.7l.5-.6-2.8-1.6zm-1.2-4.1h.7v1.3h-.7zm-.4 1.8h1.5v-2.3h-1.5zm1.6-3.5h-1.7v.6h1.7zm-3.9 3.2h1v-.7h-1v-1.2h1v-.6h-1V247a16 16 0 0 0 1.2-.6v5.4h-1.1zm4.2-3.8v5h-2.3v-5zm2.5 5 .2-5.6h-2v.6h1.4v1.3h-1.2v.6h1v1.3h-1v.6h1v1.2h-1.3v-5.6h-3.4l-.5-.4-1 .6-.6-.2.1 5.6h-.8v.7h9v-.7zm7.5-.1v1.3h-2.4v-1.3zm.7 2V251h-3.8v3.2h.7v-.6zm.8-6.9v1.2h-5.4v-1zm-5.4 2.8v-.8h6.1v-2.6H130v2.4c0 1.6-.1 3.9-1.2 5.4l.5.6c.9-1.2 1.2-2.8 1.4-4.3h6c.1 2.5 0 3.5-.3 3.7l-.4.2-1.2-.2.2.8h1.3c.3 0 .5 0 .7-.3.3-.5.4-1.5.5-4.5v-.4zm0 0" style="fill:none;stroke:#fff;stroke-width:3;stroke-linecap:butt;stroke-linejoin:round;stroke-miterlimit:10;stroke-opacity:.6" transform="rotate(  340 77.4635 193.885) translate(-45.976922,-50.574614)"/> <g style="fill:#976e94;fill-opacity:1" transform=" rotate(  340 77.4635 193.885) ">  <use xlink:href="#d" x="57.5" y="190.3"/>  <use xlink:href="#e" x="67.5" y="190.3"/>  <use xlink:href="#f" x="77.5" y="190.3"/>  <use xlink:href="#g" x="87.5" y="190.3"/>  <use xlink:href="#h" x="62.5" y="203.5"/>  <use xlink:href="#i" x="72.5" y="203.5"/>  <use xlink:href="#j" x="82.5" y="203.5"/> </g> <path d="M197.3 94.1a60 60 0 0 0-1.4-1.7v-.8h1.3v-.7H196v-2.2h-.8V91h-1.5v.6h1.4c-.3 1.3-1 2.9-1.6 3.7l.4.7c.5-.7 1-1.7 1.3-2.9v4.7h.8v-4.5l1 1.4zm1.2-2.4h2.9v1.1h-3zm2.9-1.8V91h-3v-1zm.6 3.9c-.2.4-.9.9-1.4 1.3a6.9 6.9 0 0 1-.6-1.6h2.1v-4.2h-4.3v7.5l-.8.2.2.7 3.2-.7v-.7l-2 .4v-3.2h1.1c.2 2 1.2 3.5 2.8 4.4 0-.2.2-.5.4-.6-.7-.4-1.3-1-1.9-1.7.8-.4 1.4-.8 1.9-1.3zm2.6-3.6h7.1v1.1h.8v-1.8h-4v-.8h-.7v.8h-4v1.8h.9zm3.9 6.7v-1.2h3.2V95h-3.2v-1.2h2.5l.6.6.6-.4a11.3 11.3 0 0 0-2.4-2l-.5.4 1 .8h-3.6l.9-1.3h3.9v-.7h-6.6v.6h1.9l-1 1.5h-1.2v.7l3.3-.1V95h-3.2v.7h3v1.2h-3.9v.7h8.9v-.7zm8.1-3.3V93l-1.1.3v-1.9h1.1v-.7h-1v-2h-.7v2h-1.3v.7h1.4v2l-1.5.6.2.6 1.2-.4V97c0 .1 0 .2-.2.2h-1l.3.7c.6 0 1 0 1.2-.2.3 0 .4-.3.4-.7v-3zm5.5.1c-.3.4-.8.8-1.3 1.1a8.2 8.2 0 0 1-.3-1.4h2.1v-.7h-4.8V90h4.7v-.8H217v2.9c0 1.6 0 3.7-1.1 5.3.2 0 .5.3.6.4.8-1.2 1.1-3 1.2-4.4h.6v3.5l-.8.1.1.7 3.1-.7v-.6l-1.7.3v-3.3h.8c.4 2.1 1 3.6 2.6 4.4a3 3 0 0 1 .4-.6c-.8-.2-1.3-1-1.7-1.8l1.5-1.2zm0-2.1v-.7h-3.7v.7zM226.5 95.7a11 11 0 0 1-2.8 1.6l.6.7a14 14 0 0 0 3-1.8zm2.6.5A21 21 0 0 1 232 98l.6-.6c-.6-.5-1.9-1.2-3-1.7zm-1.3-4h.7v1.2h-.7zm-.4 1.6h1.6v-2.2h-1.6zm1.6-3.3h-1.7v.5h1.7zm-3.9 3.1h1V93h-1v-1.2h1V91h-.9v-1a16 16 0 0 0 1.2-.6V95h-1.2zm4.2-3.8v5H227v-4.9zm2.5 5 .2-5.5h-2v.7h1.3v1h-1.1v.8h1.1V93h-1.1v.6h1v1.3h-1.3v-5.7h-3.4l-.5-.4-1 .6-.6-.1.2 5.6h-1v.7h9v-.7zM214.4 108v1.2h-2.5v-1.3zm.6 1.8v-2.5h-3.7v3.2h.6v-.6zm.8-6.7v1.3h-5.3V103zm-5.4 2.9v-1h6.3v-2.5h-7v2.3c0 1.7-.1 4-1.2 5.6l.5.4c.9-1.2 1.3-2.8 1.4-4.2h6c.1 2.4 0 3.4-.2 3.7l-.5.1h-1.2l.2.6h1.3c.3 0 .5 0 .7-.2.3-.4.4-1.5.6-4.6v-.2zm0-.1" style="fill:none;stroke:#fff;stroke-width:3;stroke-linecap:butt;stroke-linejoin:round;stroke-miterlimit:10;stroke-opacity:.6" transform=" rotate(  340 210.661 102.209) "/> <g style="fill:#976e94;fill-opacity:1" transform=" rotate(  340 210.661 102.209) ">  <use xlink:href="#a" x="193.2" y="97.1"/>  <use xlink:href="#b" x="203.2" y="97.1"/>  <use xlink:href="#h" x="213.2" y="97.1"/>  <use xlink:href="#i" x="223.2" y="97.1"/>  <use xlink:href="#j" x="208.2" y="110.3"/> </g> <path d="m352.6 4.2 1.4-7.1h1l-.8 3.4 3.4-3.4h1L355.2.6l2.2 3.6h-1L354.2.7l-.7 3.5zm4.9 2.4h-.7v-.9h.3l.4.3c.3-.1.5-.1.7-.4.2-.1.4-.4.5-.6l.4-.7-.8-5.4h.7l.5 2.6v.7l.2.8v.5a28.7 28.7 0 0 1 .5-1.1l.2-.6 1.6-3h1l-3.6 6.4c-.1.4-.4.8-.7 1-.3.3-.7.4-1.2.4zm5.2-2.4L364-1h.7l-.4 2h2.5l.5-2.1h.9L367 4.2h-.9l.5-2.4h-2.5l-.5 2.4zm7.7.1c-.4 0-.8-.1-1-.4-.4-.4-.5-.9-.5-1.4l.2-1.5c.2-.4.3-.8.6-1.1.2-.4.5-.6.8-.9a2 2 0 0 1 1-.2c.5 0 .8 0 1.1.2l.2.7.6-.8h.6l-1.2 5.3h-.7l.2-1-1 .8c-.2.2-.5.3-.9.3zm.3-.7c.2 0 .5-.1.7-.3.2-.2.5-.3.6-.7a4 4 0 0 0 .5-1 3 3 0 0 0 0-.6 4 4 0 0 0 .2-.4c-.1-.4-.1-.6-.3-.8-.2-.2-.4-.3-.7-.3-.3 0-.5 0-.8.2a2 2 0 0 0-.5.7l-.4 1-.2 1.1c0 .5.2.6.3.8.1.2.3.3.6.3zm5.3.7c-.4 0-.7-.1-1-.3-.2-.3-.3-.6-.3-1v-.4l.1-.6.7-3h.9l-.7 3.2-.1.4v.3l.1.5.5.2c.3 0 .5-.1.8-.3.2-.1.4-.3.6-.7l.5-1.3.5-2.4h.9l-.7 3.3-.1.8.1.4.5.2c.3 0 .5-.1.7-.3.3-.1.5-.3.7-.7l.5-1.4.5-2.3h.9l-1.1 5.3h-.8l.1-1-.4.5-.6.4c-.2.2-.5.2-.7.2-.4 0-.7-.1-.9-.3-.2-.2-.2-.5-.2-1l-.7.7-.6.4-.7.2zm8.8 0c-.4 0-.8-.1-1-.3-.2-.3-.4-.6-.4-1v-.4l.2-.6.7-3h.7l-.6 3.2v1.2l.6.2c.3 0 .5 0 .8-.2l.7-.8.5-1.4.5-2.3h.9l-1.1 5.3h-.9l.2-1-.6.5c0 .3-.2.3-.5.4l-.7.2zm3.7 2.3L390-1h.8l-.1.9.8-.9c.3-.1.7-.2 1-.2.5 0 .8.1 1 .4.4.3.5.8.5 1.4 0 .4 0 1-.2 1.4l-.5 1.2-.8.8a2 2 0 0 1-1.1.3c-.4 0-.7 0-1-.3a2 2 0 0 1-.4-.6l-.2.4v.5l-.6 2.3zm2.8-3c.3 0 .5-.1.7-.3l.6-.7a4 4 0 0 0 .4-1 5 5 0 0 0 0-.9c0-.8-.1-1.2-.7-1.2-.3 0-.5 0-.7.2l-.7.7-.5 1-.1 1.1c0 .3 0 .6.2.8.2.2.5.3.8.3zm0 0" style="fill:none;stroke:#fff;stroke-width:2;stroke-linecap:butt;stroke-linejoin:round;stroke-miterlimit:10;stroke-opacity:.6" transform="rotate(  340 313.043 68.5062) translate(-60.18797,67.293495)"/> <g style="fill:#000;fill-opacity:1" transform=" rotate(  340 313.043 68.5062) ">  <use xlink:href="#k" x="292" y="71.5"/>  <use xlink:href="#l" x="297.6" y="71.5"/>  <use xlink:href="#m" x="302.3" y="71.5"/>  <use xlink:href="#n" x="308.3" y="71.5"/>  <use xlink:href="#o" x="314" y="71.5"/>  <use xlink:href="#p" x="322.7" y="71.5"/>  <use xlink:href="#q" x="328.5" y="71.5"/> </g></svg>