<svg xmlns="http://www.w3.org/2000/svg" xmlns:xlink="http://www.w3.org/1999/xlink" viewBox="0 0 497 279"> <defs overflow="visible" style="stroke:none">  <path id="l" d="M3.6-6c-.6 0-1-.3-1.2-.5-.4-.1-.4-.4-.4-.8a1 1 0 0 1 0-.3h.9v.3c-.1.2-.1.3.1.3 0 .3.3.3.7.3.3 0 .5 0 .7-.2.2-.1.4-.3.4-.7h.9c-.1.6-.3.8-.7 1.1-.3.3-.8.5-1.4.5ZM1.9 0c-.4 0-.7 0-1-.1C.7-.5.5-.8.5-1.2v-.5L.8-2l.6-3.4h.9L1.4-2v1.2l.8.2c.2 0 .4-.1.8-.4l.6-.6.5-1.4.5-2.4h.9L4.4 0h-.8l.1-1-.5.5-.4.5-.9.1Zm0 0"/>  <path id="k" d="M1.9 0c-.4 0-.7 0-1-.1C.7-.5.5-.8.5-1.2v-.5L.8-2l.6-3.4h.9L1.4-2v1.2l.8.2c.2 0 .4-.1.8-.4l.6-.6.5-1.4.5-2.4h.9L4.4 0h-.8l.1-1-.5.5-.4.5-.9.1Zm0 0"/>  <path id="j" d="m.3 0 1.1-5.4h.9l-.6 2.6 2.5-2.6h1.1L2.7-2.7 4.5 0h-1L1.6-2.7 1.2 0Zm0 0"/>  <path id="i" d="M2.5 0C1.9 0 1.4 0 1-.3.7-.7.5-1.2.5-2c0-.4 0-1 .2-1.3l.5-1c.3-.5.6-.7 1-1 .2-.1.6-.2.9-.2l.9.1.6.2-.2.7-.5-.1-.6-.1c-.4 0-.7.1-1 .4-.3.2-.5.6-.7 1A4 4 0 0 0 1.4-2c0 .5 0 .8.3 1 .2.2.5.3.9.3h.6a7 7 0 0 0 .6-.3v.8l-.6.2h-.7Zm0 0"/>  <path id="h" d="M2.6 0C1.9 0 1.3 0 1-.4.6-.9.5-1.5.5-2.1c0-.6 0-1.2.3-1.7.2-.5.6-1 1-1.2.4-.3 1-.5 1.5-.5.7 0 1 .2 1.4.5.3 0 .3.5.3.9s0 .7-.3 1.1l-1 .2c.5.1.7.3.9.5.1.2.2.3.2.8l-.2.7c-.2.3-.4.5-.7.6-.3.2-.9.3-1.3.3ZM1.5-3h1l1-.1.5-.3c.2-.2.2-.4.2-.6 0-.2 0-.4-.2-.5l-.7-.2c-.3 0-.8.1-1.2.4-.3.3-.5.7-.6 1.3ZM2.7-.6c.3 0 .7-.1 1-.4l.1-.6C4-1.8 4-2 3.6-2l-1-.3H1.4v.2c0 .5 0 .9.3 1.1.3.3.6.4 1 .4Zm0 0"/>  <path id="g" d="M2.5 0C1.9 0 1.4 0 1-.4.7-.8.5-1.3.5-2l.1-1.2a4 4 0 0 1 .5-1.1c.3-.3.5-.7.9-.8.3-.2.7-.3 1.2-.3.6 0 1 .2 1.4.4.4.5.6 1.1.6 1.6L5-2a4 4 0 0 1-.5.9c-.2.5-.5.8-.8 1L2.5 0Zm0-.6c.5-.1.6-.1 1-.4.1-.2.3-.5.5-1 .2-.3.3-.8.3-1.4L4.2-4a1 1 0 0 0-.4-.5l-.6-.2c-.4 0-.7.1-1 .4-.2.2-.5.6-.6 1A4 4 0 0 0 1.4-2c0 .5 0 .8.3 1 .2.2.5.3.8.3Zm0-.1"/>  <path id="f" d="m.3 0 1.1-5.4h.9L1.8-3h2.5l.5-2.4h.9L4.6 0h-1l.7-2.4H1.7L1.2 0Zm0 0"/>  <path id="e" d="M.2 0h-.4v-.7H0l.5-.1.4-.7c0-.2.1-.4.3-.5l.6-.4c-.3-.1-.6-.3-.8-.6a1.4 1.4 0 0 1-.2-.7c0-.3.2-.9.6-1.2.3-.3.9-.5 1.6-.5h2L4 0H3l.5-2.1h-.7c-.3 0-.5 0-.7.1l-.4.8-.4.7-.4.4-.7.2Zm2.5-2.8h1L4-4.6H2.8c-.3 0-.6 0-.8.3-.2.1-.3.3-.3.6s.1.7.3.7h.7Zm0-.1"/>  <path id="d" d="M-.4 0 2-2.8.8-5.4h.9l.8 2 1.6-2H5L2.9-2.7 4 0h-.8l-.9-2L.7 0Zm0 0"/>  <path id="c" d="m-.2 2.4 1.6-7.8h.7v1l.7-.6c.3-.3.7-.5 1-.5.5 0 .8.2 1 .5.5.3.6.8.6 1.4-.1.5-.1 1-.3 1.4L4.6-1l-.8.8a2 2 0 0 1-1.1.3C2.3 0 2 0 1.8-.2a2 2 0 0 1-.5-.6v.4L1 .1.7 2.4Zm2.8-3c.4 0 .5-.1.7-.4.3 0 .5-.3.7-.6a4 4 0 0 0 .3-1 5 5 0 0 0 .1-.9c0-.9-.3-1.2-.9-1.2-.2 0-.4 0-.5.2l-.8.7-.4 1c-.2.3-.2.7-.2 1.1 0 .3 0 .6.2.8.2.2.5.3.8.3Zm0 0"/>  <path id="b" d="M2 0c-.6 0-.9 0-1.2-.3C.6-.7.5-1 .5-1.7c0-.5 0-1 .2-1.5l.5-1.1c.2-.4.5-.7.8-.9a2 2 0 0 1 1.1-.3c.4 0 .6.1.9.3l.5.7.3-.9h.7L4.4 0h-.7l.1-1c-.3.3-.5.6-.9.8-.3.2-.6.2-.9.2Zm.1-.5c.4-.1.6-.2.9-.5l.6-.6a4 4 0 0 0 .4-1 3 3 0 0 0 .1-.7 4 4 0 0 0 0-.4c.1-.3.1-.5-.1-.7-.3-.2-.5-.3-.8-.3-.3 0-.5 0-.7.2a2 2 0 0 0-.6.7l-.4 1-.1 1.1c0 .4 0 .6.2.8.1.2.3.3.6.3Zm.1-.1"/>  <path id="a" d="M.4 0 2-7.1h1.2l.7 5.8 3.2-5.8h1.3L7 0H6l1-4.2a47.9 47.9 0 0 1 .4-2L4 0h-.7l-.8-6.3-.1.6-.1.7-.1.7-1 4.3Zm0 0"/>  <path d="M1 0v-7.1h4V0Zm.4-.5h3.1v-6.1h-3Zm.1 0"/> </defs> <image xlink:href="svg/9/56_38.jpg" width="497" height="279"/> <path d="m424.4 50.6 1.6-7.1h1.2l.7 5.8 3.2-5.8h1.3l-1.4 7.1h-1l1-4.2a47.6 47.6 0 0 1 .4-2l-3.4 6.2h-.7l-.8-6.2-.1.5-.1.7-.1.7-1 4.3zm9.9.1c-.3 0-.7-.1-1-.4-.3-.3-.4-.8-.4-1.4 0-.5 0-1 .1-1.4l.6-1.2c.4-.4.5-.6.9-.8a2 2 0 0 1 1-.3c.5 0 .7 0 .9.3l.5.5.3-.7h.8l-1.2 5.3h-.8l.2-1c-.3.4-.5.6-.9.8-.3.2-.6.3-1 .3zm.3-.7c.4 0 .5 0 .7-.3.3-.1.5-.4.7-.7a4 4 0 0 0 .4-1 3 3 0 0 0 .1-.6 4 4 0 0 0 0-.4c.1-.3.1-.6-.1-.8-.3-.2-.5-.2-.8-.2-.2 0-.5 0-.6.2a2 2 0 0 0-.7.6l-.3 1-.2 1.1c0 .4 0 .7.2.8.1.3.4.3.6.3zm3.3 3 1.6-7.7h.7v1l.7-.8c.3-.2.7-.3 1.1-.3.4 0 .7.1 1 .4.4.4.5.8.5 1.4-.1.5-.1 1-.3 1.4l-.5 1.2c-.2.4-.5.6-.8.8a2 2 0 0 1-1.1.3c-.4 0-.8 0-.9-.2a2 2 0 0 1-.5-.7v.5l-.3.4-.4 2.3zm2.8-3c.3 0 .5 0 .7-.2.3-.2.6-.4.6-.8a4 4 0 0 0 .4-1 5 5 0 0 0 .1-1c0-.7-.3-1-.9-1-.2 0-.4 0-.6.1-.3.2-.5.4-.7.7l-.3 1c-.3.2-.3.7-.3 1.1 0 .3 0 .6.2.8.2.3.5.3.8.3zm2.6.6 2.3-2.6-1.1-2.7h.9l.8 2 1.6-2h1l-2.2 2.6 1.2 2.7h-1l-.8-2-1.7 2zm7.1.1c-.4 0-.7-.1-1-.4-.3-.3-.4-.8-.4-1.4 0-.5 0-1 .2-1.4l.5-1.2c.3-.4.5-.6.9-.8a2 2 0 0 1 1-.3c.4 0 .7 0 .9.3l.5.5.3-.7h.7l-1 5.3h-.8l.1-1c-.3.4-.5.6-.9.8-.3.2-.6.3-1 .3zm.3-.7c.3 0 .5 0 .7-.3.3-.1.6-.4.7-.7a4 4 0 0 0 .4-1 3 3 0 0 0 .1-.6 4 4 0 0 0 0-.4c.1-.3.1-.6-.1-.8-.3-.2-.5-.2-.8-.2-.3 0-.5 0-.7.2a2 2 0 0 0-.6.6l-.4 1v1.1c-.1.4-.1.7 0 .8.2.3.5.3.7.3zm3.7.7h-.4v-.9h.2l.5.1.3-.9s.3-.2.4-.4l.6-.4c-.4 0-.6-.2-.8-.5a1.4 1.4 0 0 1-.2-.7c0-.5.2-1 .6-1.2.3-.4.8-.5 1.6-.5h2l-1.1 5.3h-.9l.4-2h-.6c-.3-.1-.5-.1-.7.1l-.3.7-.5.7-.5.5-.6.1zm2.5-3h1.1l.1-1.7H457c-.3 0-.6.1-.8.3-.2.2-.3.4-.3.7.1.3.1.5.3.6l.7.2zm2.9 2.9 1.1-5.3h.9l-.5 2.2h2.7l.3-2.2h1l-1.3 5.3h-.8l.5-2.4h-2.5l-.5 2.4zm8.2.1c-.6 0-1.1-.2-1.5-.5-.3-.4-.5-1-.5-1.6 0-.4 0-.8.2-1.2a4 4 0 0 1 .5-1c.2-.4.5-.8.8-1 .3-.1.7-.2 1.2-.2.6 0 1 .2 1.3.6.5.2.7.8.7 1.5 0 .4 0 .7-.2 1.2a4 4 0 0 1-.5 1.1l-.8.8-1.2.3zm0-.7c.5 0 .8-.1 1-.4l.5-.9.3-1.5-.1-.6a1 1 0 0 0-.4-.6h-.6c-.4 0-.7.1-1 .3l-.6 1a4 4 0 0 0-.1 1.4c-.1.3-.1.7.2 1 .2.1.5.3.8.3zm5.7.7c-.7 0-1.2-.2-1.6-.6-.3-.4-.5-1-.5-1.6 0-.5.1-1.2.4-1.7.2-.5.5-.8 1-1.2.3-.3.8-.4 1.4-.4.6 0 1.1.1 1.4.3.3.3.5.6.5 1s-.3.7-.4 1l-1 .4.7.4c.2.2.4.4.4.8 0 .2 0 .5-.3.7-.1.3-.4.5-.7.7l-1.3.2zm-1-3.1h1.7c.4-.2.6-.3.7-.5.2 0 .3-.1.3-.5 0-.2 0-.3-.2-.5l-.7-.1c-.5 0-.9.1-1.2.4-.3.2-.6.6-.7 1.2zm1 2.4c.5 0 .9 0 1.1-.3l.2-.6c0-.3 0-.5-.2-.6l-1-.2h-1.3v.3c0 .4.1.8.5 1 0 .4.4.4.8.4zm5.3.7c-.6 0-1-.1-1.4-.5-.4-.2-.6-.8-.6-1.5l.2-1.3.6-1.2c.2-.2.5-.6.9-.7.3-.2.7-.3 1.1-.3h.7l.7.3-.3.7-.5-.2h-.4c-.5 0-1 0-1.1.2-.4.4-.7.7-.8 1.1a4 4 0 0 0-.2 1.4c.1.4.1.8.3 1 .3.2.6.3 1 .3h.5a7 7 0 0 0 .7-.4v.8l-.6.2-.8.1zm2.4-.1 1.1-5.3h.9l-.6 2.6 2.5-2.6h1.1l-2.6 2.6 1.8 2.7h-1l-1.9-2.6-.5 2.6zm6.4.1c-.4 0-.7 0-1-.3-.1-.2-.2-.6-.2-1v-.9l.7-3.2h.9l-.7 3.3-.1.7.1.5.6.2c.2 0 .5 0 .7-.2l.8-.8c.2-.4.4-.8.4-1.4l.6-2.3h.8l-1 5.3h-.9l.2-1-.5.5-.6.5-.8.1zm7.5-6.1c-.5 0-1-.1-1.2-.4-.1-.2-.3-.5-.3-.8a1 1 0 0 1 0-.4h.8v.8l.8.1.8-.1.4-.8h.8c0 .5-.3 1-.6 1.1-.3.3-.8.5-1.5.5zm-1.7 6.1c-.4 0-.6 0-1-.3-.2-.2-.3-.6-.3-1v-.9l.9-3.2h.8l-.7 3.3-.1.7.1.5.7.2s.4 0 .6-.2l.7-.8c.3-.4.5-.8.7-1.4l.4-2.3h.8l-1.1 5.3h-.7v-1c0 .2-.2.4-.4.5l-.6.5-.8.1zm0 0" style="fill:none;stroke:#fff;stroke-width:2;stroke-linecap:butt;stroke-linejoin:round;stroke-miterlimit:10;stroke-opacity:.6" transform="rotate(  340 442.271 47.6319) translate(-19.801907)"/> <g style="fill:#000;fill-opacity:1" transform=" rotate(  340 442.271 47.6319) ">  <use xlink:href="#a" x="404.2" y="50.6"/>  <use xlink:href="#b" x="412.6" y="50.6"/>  <use xlink:href="#c" x="418.3" y="50.6"/>  <use xlink:href="#d" x="423.9" y="50.6"/>  <use xlink:href="#b" x="428.7" y="50.6"/>  <use xlink:href="#e" x="434.4" y="50.6"/>  <use xlink:href="#f" x="439.7" y="50.6"/>  <use xlink:href="#g" x="445.7" y="50.6"/>  <use xlink:href="#h" x="451.3" y="50.6"/>  <use xlink:href="#i" x="456.8" y="50.6"/>  <use xlink:href="#j" x="461.3" y="50.6"/>  <use xlink:href="#k" x="466.1" y="50.6"/>  <use xlink:href="#l" x="471.9" y="50.6"/> </g></svg>