<svg xmlns="http://www.w3.org/2000/svg" xmlns:xlink="http://www.w3.org/1999/xlink" viewBox="0 0 497 279"> <defs overflow="visible" style="stroke:none">  <path id="D" d="M5.3-5.4V0h-.7l-.1-.7c-.3.3-.5.5-.9.6l-.9.2C2.1 0 1.6-.1 1.3-.4 1-.7.8-1.2.8-1.8v-3.6h.9v3.5c0 .8.3 1.3 1.2 1.3.6 0 1-.2 1.1-.5.3-.4.5-.9.5-1.5v-2.8Zm0 0"/>  <path id="C" d="M1.7 0H.8v-7.6h1Zm0 0"/>  <path id="B" d="M5.5-2.7c0 .9-.2 1.7-.7 2-.4.7-1 .9-1.8.9-.5-.2-.9-.2-1.3-.4-.3-.2-.6-.6-.7-1C.6-1.6.5-2 .5-2.7c0-.9.3-1.6.7-2 .5-.5 1-.8 1.8-.8.5 0 1 .2 1.3.5.4 0 .7.4.9.9.2.2.3.7.3 1.3Zm-4 0c0 .7 0 1.2.3 1.5.3.4.7.6 1.2.6.6 0 1-.2 1.2-.6.3-.3.4-.8.4-1.5s-.1-1.1-.4-1.5c-.2-.3-.6-.5-1.2-.5-.5 0-1 .2-1.2.5-.2.4-.3.9-.3 1.5Zm0 0"/>  <path id="A" d="M1-7.1h2c1 0 1.6.1 2 .4.5.2.7.7.7 1.3 0 .5-.1.8-.3 1-.4.4-.6.6-1 .7l.8.3c.2 0 .4.2.5.5.3.2.3.5.3.9 0 .6-.3 1-.7 1.5-.5.3-1 .5-1.8.5H1Zm.9 3h1.3c.6.1 1 .1 1.3-.3.2-.2.3-.5.3-.9s-.1-.6-.4-.7c-.4-.3-.8-.4-1.4-.4H2Zm0 .8v2.5h1.4c.7 0 1 0 1.3-.2.4-.4.4-.7.4-1.1s-.1-.7-.4-.9c-.2-.2-.6-.3-1.4-.3Zm0 0"/>  <path id="z" d="M3.3-5.5H4l-.1 1.1-.3-.3h-.3c-.3 0-.5 0-.8.2l-.5.7-.3 1V0H.8v-5.4h.8v1h.2l.6-.6c.3-.3.6-.5 1-.5Zm0 0"/>  <path id="y" d="M1.7 0H.8v-5.4h1Zm0 0"/>  <path id="x" d="M1.7-7.6v4.8L2-3v-.3l.4-.2L4-5.4h1L2.9-3l2.4 3H4.2L2.3-2.5l-.6.5v2H.8v-7.6Zm0 0"/>  <path id="w" d="M3.4-5.5c.7 0 1.2.2 1.6.5.2.3.4.8.4 1.5V0h-.9v-3.4c0-.9-.4-1.3-1.2-1.3-.6 0-1 .1-1.2.5-.3.2-.4.8-.4 1.4V0H.8v-5.4h.8v.8h.2c.2-.4.3-.5.7-.7l1-.2Zm0 0"/>  <path id="v" d="M2.9-5.5c.6 0 1.1.2 1.4.5.3.3.5.7.5 1.3V0h-.6L4-.8c-.3.3-.5.6-.8.8h-1c-.5 0-1 0-1.3-.3C.6-.5.5-.9.5-1.5c0-.5.2-1 .5-1.2.5-.3 1-.5 2-.5h.8v-.3c.2-.5.2-.8-.2-1l-.8-.2H2l-.7.5L1-5l1-.3.9-.2Zm1 2.9h-.8c-.6 0-1 .1-1.4.3-.1.3-.3.5-.3.8 0 .3 0 .5.2.7l.7.2c.5 0 .9-.1 1.2-.4.3-.2.4-.6.4-1Zm.1 0"/>  <path id="u" d="M4-6.5c-.7 0-1.3.3-1.8.8-.4.5-.6 1.2-.6 2.1 0 1 .2 1.6.6 2.1.4.6 1 .8 1.8.8h1l.6-.3v.8L5 0H4c-.8 0-1.4 0-2-.2a2.8 2.8 0 0 1-1-1.4c-.3-.6-.4-1.2-.4-2 0-.7.1-1.3.4-1.9a3 3 0 0 1 1.2-1.3c.5-.2 1.1-.4 1.8-.4.8 0 1.5.1 2 .4l-.3.7-.8-.2a3 3 0 0 0-.9-.2Zm.7 7.9c0 .3 0 .6-.3.6-.4.3-.7.4-1.2.4h-.4v-.7h1.1c.1-.1.1-.1.1-.3s0-.3-.3-.4a2 2 0 0 0-.6 0l.4-1h.6L4 .5l.5.3.2.6Zm0 0"/>  <path d="M1 0v-7.1h4V0Zm.4-.5h3.1v-6.1h-3Zm.1 0"/>  <path id="t" d="M2.7.1C2 .1 1.5 0 1-.5.7-.9.5-1.5.5-2a4.9 4.9 0 0 1 .8-2.7 3 3 0 0 1 1-1.1c.2-.1.7-.2 1.2-.2s1 .1 1.2.4c.3.2.5.5.5 1 0 .3-.2.6-.4 1-.2.3-.6.6-1.1.8-.5.2-1.2.3-2 .3h-.2v.4c0 .4.1.8.3 1 .3.3.6.4 1 .4l.8-.1c.4 0 .5-.2.8-.3v.8l-.8.3-1 .1Zm-1-3.4L3-3.4l.9-.4c.1-.2.3-.5.3-.7 0-.2 0-.5-.2-.5l-.6-.2c-.3 0-.7.2-1 .5-.4.3-.6.8-.7 1.4Zm0 0"/>  <path id="s" d="M2.7.1C2.1.1 1.5 0 1.1-.4.7-.8.5-1.4.5-2.1l.2-1.5c.3-.4.4-.9.7-1.2a3 3 0 0 1 1-.9c.2-.2.6-.3 1.1-.3h.9l.6.4-.2.6a4 4 0 0 0-.5-.1h-.7c-.4-.1-.8-.1-1 .2-.5.4-.6.9-.9 1.3-.1.4-.2 1-.2 1.5 0 .4.1.8.5 1.1 0 .2.4.3.9.3l.5-.1c.4 0 .6-.2.8-.3v.9l-.7.2a3 3 0 0 1-.8.1Zm0 0"/>  <path id="r" d="M-.2 0 0-.7l3.6-4.5H1.1l.1-.7h3.6l-.1.9L1-.7h2.9l-.2.7Zm0 0"/>  <path id="q" d="M2 .1c-.3 0-.6-.1-1-.4-.3-.2-.4-.6-.4-1a3 3 0 0 1 0-.6l.1-.4.8-3.6h1l-.8 3.7-.1.7c0 .3 0 .5.2.6l.6.2c.2 0 .5 0 .8-.3l.8-.8.5-1.6.6-2.5H6L4.7 0H4l.1-1c-.2 0-.3.2-.5.4l-.7.5-.8.2Zm3-7c0-.1-.2-.1-.3-.2l-.1-.3.1-.4c.1-.2.3-.2.5-.2h.3v1H5ZM3-7s-.1 0-.2-.1l-.2-.3.1-.4C3-8 3-8 3.3-8h.2l.1.5c0 .1 0 .3-.2.5h-.3Zm0 0"/>  <path id="p" d="M.5 0 2-7.9h2c1 0 1.7.3 2.2.9.5.4.8 1.2.8 2.3 0 .9-.2 1.7-.5 2.4A4 4 0 0 1 4.9-.6c-.7.4-1.5.6-2.5.6Zm1.1-.8h.8c.8 0 1.4-.2 2-.6.5-.3.9-.8 1.1-1.4a4.6 4.6 0 0 0 .5-2c0-.6-.2-1.2-.6-1.6-.4-.4-1-.6-1.6-.6H3Zm0 0"/>  <path id="o" d="m.3 0 1.3-5.9h.8l-.2 1 .7-.4.4-.5.8-.2h.6l-.2 1a3 3 0 0 0-.5-.2c-.4.1-.7.2-1 .4a3 3 0 0 0-.8 1l-.3 1.1L1.3 0Zm0 0"/>  <path id="n" d="m.3 0 1.3-5.9h1L1.2 0Zm0 0"/>  <path id="m" d="m.3 0 1.8-8.4H3L2.2-5a20 20 0 0 1-.4 2l2.8-3h1.2L3.3-3.4 4.8 0h-1L2.5-2.8l-.8.8-.4 2Zm0 0"/>  <path id="l" d="m.3 0 1.2-6h.9l-.1 1.3.5-.7.6-.4c.3-.2.6-.2.9-.2.4 0 .7 0 1 .4.4.2.6.6.6 1v.6l-.3.4L4.9 0h-1l.6-3.7.2-.4a2 2 0 0 0 0-.4c.1-.4-.2-.7-.7-.7l-.8.3-.8.8-.6 1.6L1.3 0Zm0 0"/>  <path id="k" d="M2.1.1C1.7.1 1.3 0 1-.4.7-.7.5-1.2.5-1.9l.2-1.6.6-1.3c.3-.4.7-.7 1-.9.2-.2.7-.3 1.1-.3.4 0 .7.1 1 .3l.5.7.5-.9H6L4.8 0H4l.2-1a4 4 0 0 1-1.1.7c-.1.3-.6.3-.9.3Zm.3-.8c.3 0 .6 0 .8-.3a3 3 0 0 0 .8-.8 5 5 0 0 0 .4-1.1l.1-.6V-4c.1-.4.1-.6-.1-1-.4 0-.6-.2-.9-.2-.3 0-.5.2-.8.3l-.6.7-.4 1-.2 1.4c0 .3 0 .6.3.9l.6.1Zm0 0"/>  <path id="j" d="M3.6.1c-.9 0-1.6-.3-2-.8C1-1.2.7-2 .7-2.9c.1-.5.1-1 .3-1.4a6 6 0 0 1 .5-1.4l.8-1.2c.3-.3.7-.6 1.2-.8L5-8c.8 0 1.4.2 2 .5l-.4.8a4 4 0 0 0-.7-.3H5c-.5 0-1 0-1.4.2-.4.3-.6.6-1 1.1-.3.4-.4.7-.6 1.2a6 6 0 0 0-.2 1.6c0 .7.2 1.2.5 1.6.4.3.9.5 1.5.5h.8l.9-.3v.9l-.9.2a5 5 0 0 1-1 .1Zm-1 2.5H2V2h.5c.5 0 .9 0 .9-.4L3.2 1h-.6l.6-1h.6l-.3.6.4.4c.2 0 .3.2.3.5s-.2.5-.4.8c-.3.2-.8.3-1.2.3Zm0 0"/>  <path id="i" d="M2 .1c-.3 0-.6-.1-1-.4-.3-.2-.4-.6-.4-1a3 3 0 0 1 0-.6l.1-.4.8-3.6h1l-.8 3.7-.1.7c0 .3 0 .5.2.6l.6.2c.2 0 .5 0 .8-.3l.8-.8.5-1.6.6-2.5H6L4.7 0H4l.1-1c-.2 0-.3.2-.5.4l-.7.5-.8.2Zm0 0"/>  <path id="h" d="m.3 0 1.8-8.4H3L1.2 0Zm0 0"/>  <path id="g" d="M2.7 0C2 0 1.5 0 1.1-.4.7-1 .5-1.5.5-2.2a5 5 0 0 1 .2-1.3c.1-.5.3-.9.6-1.3a3 3 0 0 1 .9-.7C2.6-6 3-6 3.5-6c.7 0 1.2.2 1.5.6.5.4.7 1 .7 1.7 0 .4 0 .9-.2 1.3-.1.5-.3.9-.6 1.4a3 3 0 0 1-.9.8c-.4.2-.8.2-1.3.2Zm0-.6c.5-.1.9-.2 1.1-.5.2-.2.5-.6.6-.9.2-.6.3-1.1.3-1.8l-.1-.7-.4-.5-.7-.2c-.5 0-.8.2-1 .5-.5.2-.7.5-.9.9L1.5-2c0 .3.1.7.3.9.3.3.6.4 1 .4Zm.1-.1"/>  <path id="f" d="M.5 0 2-7.9h2.1c.9 0 1.3.2 1.9.5.3.3.5.7.5 1.4 0 .5-.2 1-.5 1.3-.3.2-.8.4-1.3.5.4.4.7.5 1 .8 0 .2.3.5.3.9 0 .7-.2 1.1-.4 1.5-.3.3-.6.5-1 .7C4 0 3.5 0 3 0Zm1.9-4.5h1.3c.3 0 .6 0 .9-.2.2 0 .4-.2.6-.3.2-.3.3-.6.3-1 0-.3-.2-.5-.5-.7C5-7 4.5-7 4.1-7H2.8ZM1.6-.8H3c.6 0 1-.2 1.4-.4.4-.4.6-.8.6-1.3 0-.3 0-.6-.4-.9-.2-.1-.6-.2-1.2-.2H2.2Zm0 0"/>  <path d="M1 0v-7.9h4.6V0Zm.6-.6H5v-6.7H1.6Zm0 0"/>  <path id="e" d="M4.4-7h.8L5-6h-.7c-.4 0-.7 0-1 .1-.3.3-.6.6-.8 1-.2.3-.3.7-.3 1.2V0h-.9v-7H2l.2 1.3c.2-.3.5-.7.9-1 .3-.3.8-.3 1.3-.3Zm0 0"/>  <path id="d" d="M3.8-7c.7 0 1.4 0 1.7.4.5.5.7 1.1.7 1.9V0h-.8l-.2-1-1.1 1H2.8c-.6.1-1.2 0-1.6-.4C.8-.7.6-1.2.6-1.9s.3-1.3.8-1.6C2-4 2.8-4.1 4-4.2h1.1v-.4c0-.6-.1-1-.3-1.2-.3-.2-.8-.4-1.2-.4l-.9.2-1.1.4-.2-.9A5.2 5.2 0 0 1 3.8-7ZM5-3.5h-.9c-.9.1-1.5.3-1.8.5-.4.3-.5.6-.5 1 0 .6.1.9.2 1l1.1.1c.5.1.9-.1 1.4-.4.5-.3.6-.7.6-1.5Zm.1.1"/>  <path id="c" d="M2.2-9.9v6.3l.3-.3.3-.4.2-.3L5.3-7h1.3L3.8-4l3 4H5.5L3-3.3l-.8.8V0h-1v-9.9Zm0 0"/>  <path id="b" d="M4.5-7c.8 0 1.4 0 1.8.4.5.6.7 1.1.7 2.1V0H5.8v-4.5c0-1-.5-1.5-1.5-1.5-.8-.1-1.3 0-1.6.5-.3.5-.5 1-.5 1.9V0h-.9v-7H2l.2 1a2 2 0 0 1 1.1-.8c.3-.2.7-.3 1.2-.3Zm0 0"/>  <path id="a" d="M7 0 6-2.9H2.3L1.2 0H0l3.6-9.3h1L8.4 0ZM5.7-4 4.6-6.6l-.2-.5-.1-.6L4-8v.7l-.3.6-1 2.7Zm-.1 0"/>  <path d="M1.2 0v-9.3h5.4V0ZM2-.7h3.9v-8H2Zm-.1 0"/> </defs> <image xlink:href="svg/9/5_1.jpg" width="497" height="279"/> <path d="m314.3 280.7-1.1-2.9h-3.7l-1.1 3h-1.2l3.6-9.5h1l3.8 9.4zm-1.5-3.9-1-2.8-.2-.4-.1-.5-.2-.5-.2.8-.1.6-1 2.8zm7.2-3.2c.8 0 1.4.2 1.8.6.5.4.7 1 .7 2v4.5h-1.2v-4.4c0-1.3-.5-1.7-1.5-1.7-.8 0-1.3.2-1.6.6-.3.5-.4 1-.4 2v3.4h-1.2v-6.9h1v1.1a2 2 0 0 1 1.2-.9c.2-.2.7-.3 1.2-.3zm5.8-2.8v6.3l.2-.3.3-.4.3-.3 2.2-2.4h1.4l-2.9 3.1 3 3.9H329l-2.4-3.2-.8.7v2.5h-1.2v-9.9zm8.4 2.8c.9 0 1.5.2 2 .6.2.4.4 1 .4 1.8v4.7h-.6l-.3-1-1.1.9c-.3.2-.7.2-1.3.2-.7 0-1.3-.1-1.6-.5-.4-.3-.6-.8-.6-1.5s.2-1.3.8-1.6c.5-.4 1.4-.6 2.5-.6h1.2v-.6c0-.5-.1-.9-.4-1-.2-.3-.6-.4-1-.4l-1 .1-1.1.4-.3-.9a5.2 5.2 0 0 1 2.4-.6zm1.4 3.7h-1c-1 .1-1.6.3-1.8.6-.4.1-.5.5-.5.9s0 .7.3.9l1 .2c.4.1.9-.1 1.4-.5.4-.3.6-.8.6-1.4zm6.5-3.7h.4l.5.1-.2 1h-.7c-.4 0-.7 0-1.1.3-.3.2-.5.4-.7.8-.2.2-.3.7-.3 1.2v3.7h-1v-7h.9v1.3l1.1-1c.2-.2.6-.4 1-.4zm4.5 0c.9 0 1.5.2 2 .6.2.4.4 1 .4 1.8v4.7h-.7l-.3-1-1 .9c-.3.2-.7.2-1.3.2-.7 0-1.2-.1-1.7-.5-.3-.3-.5-.8-.5-1.5s.2-1.3.8-1.6c.5-.4 1.4-.6 2.5-.6h1.2v-.6c0-.5 0-.9-.4-1-.2-.3-.6-.4-1-.4l-1 .1-1.1.4-.3-.9a5.2 5.2 0 0 1 2.4-.6zm1.4 3.7h-1c-1 .1-1.5.3-1.8.6-.4.1-.5.5-.5.9s0 .7.3.9l1 .2c.4.1 1-.1 1.3-.5.5-.3.7-.8.7-1.4zm0 0" style="fill:none;stroke:#fff;stroke-width:3;stroke-linecap:butt;stroke-linejoin:round;stroke-miterlimit:10;stroke-opacity:.6" transform="rotate(  340 318.552 245.799) translate(-10.639831,-31.919492)"/> <g style="fill:#212121;fill-opacity:1" transform=" rotate(  340 318.552 245.799) ">  <use xlink:href="#a" x="296.6" y="248.8"/>  <use xlink:href="#b" x="304.9" y="248.8"/>  <use xlink:href="#c" x="312.9" y="248.8"/>  <use xlink:href="#d" x="319.8" y="248.8"/>  <use xlink:href="#e" x="327.1" y="248.8"/>  <use xlink:href="#d" x="332.2" y="248.8"/> </g> <path d="m67.5 110 1.5-8h2.1c.9.1 1.5.3 1.9.6.3.2.5.7.5 1.3 0 .6-.1 1.1-.5 1.3-.3.4-.7.6-1.3.8.4 0 .7.2 1 .5.1.2.3.5.3 1 0 .6-.1 1-.4 1.5-.2.2-.6.5-1 .7-.6.3-1 .3-1.6.3zm2-4.5h1.1c.4 0 .7 0 1-.2.3 0 .5-.2.6-.5.2-.2.3-.4.3-.7 0-.4-.1-.7-.3-.8-.3-.3-.6-.3-1.2-.3h-1zm-1 3.5H70c.6.1 1.1 0 1.5-.3.3-.3.5-.7.5-1.2 0-.3-.1-.5-.4-.9-.2-.2-.6-.3-1.1-.3h-1.2zM76.4 110c-.7 0-1.4 0-1.7-.4-.3-.6-.5-1.1-.5-1.8a5 5 0 0 1 .2-1.4c0-.4.3-.8.5-1.2a3 3 0 0 1 1-.9c.2-.2.6-.3 1.1-.3.8 0 1.3.2 1.7.6.4.4.6 1 .6 1.7 0 .4 0 .9-.2 1.3l-.5 1.2a3 3 0 0 1-1 1c-.2.2-.6.2-1.1.2zm0-.6c.4-.1.7-.4 1-.5l.6-1 .3-1.8-.1-.6c0-.2-.2-.4-.4-.5l-.7-.2c-.4 0-.7.1-1 .4-.3.3-.6.8-.7 1.1l-.4 1.5c.1.5.2.8.5 1 .2.4.5.6 1 .6zm3.7.6 1.9-8.4h1l-2 8.4zm4.6 0c-.4 0-.7 0-1-.2-.3-.3-.4-.7-.4-1.1a3 3 0 0 1 0-.7v-.3l1-3.7h.9l-.9 3.8-.1.7.2.6.6.2c.3 0 .5-.1.8-.3.3-.2.6-.4.8-.8.4-.4.5-1 .6-1.6l.6-2.5h1l-1.4 5.9h-.7v-1.1l-.5.5-.6.6h-.9zm0 0" style="fill:none;stroke:#fff;stroke-width:3;stroke-linecap:butt;stroke-linejoin:round;stroke-miterlimit:10;stroke-opacity:.6" transform=" rotate(  340 78.1513 106.974) "/> <g style="fill:#7d577d;fill-opacity:1" transform=" rotate(  340 78.1513 106.974) ">  <use xlink:href="#f" x="67" y="110"/>  <use xlink:href="#g" x="73.6" y="110"/>  <use xlink:href="#h" x="79.8" y="110"/>  <use xlink:href="#i" x="82.7" y="110"/> </g> <path d="M431 85.8c-.9 0-1.6-.3-2-.8-.7-.6-.9-1.3-.9-2.2.1-.5.1-1 .3-1.5a6 6 0 0 1 .5-1.3c.1-.5.5-1 .8-1.2.4-.4.7-.6 1.3-.8l1.4-.3c.8 0 1.4.1 2 .3l-.4 1a4 4 0 0 0-.7-.3l-.9-.1c-.4 0-1 0-1.4.3l-1 1.1-.6 1.3a6 6 0 0 0-.1 1.4c0 .7.1 1.3.5 1.6.2.4.8.7 1.4.7h.8c.3-.4.6-.4.9-.5v.9l-.8.3a5 5 0 0 1-1.1 0zm-1 2.5h-.5v-.7h.4c.6.1.9-.1.9-.5 0-.1 0-.3-.2-.3l-.6-.2.6-1h.6l-.3.8.4.1c.2.2.3.3.3.6 0 .4-.2.6-.4.9-.3.2-.7.3-1.2.3zm6-2.5c-.5 0-1-.2-1.2-.5-.3-.4-.4-.9-.4-1.6 0-.5 0-1 .2-1.5.1-.5.3-1 .6-1.3l1-1 .9-.1c.7-.1.9-.1 1.2.2.2.2.4.4.5.7l.4-1h.7l-1.2 6.1h-.8l.1-1.2a4 4 0 0 1-1 .8c-.2.2-.6.4-1 .4zm.3-.8c.3 0 .5-.1.8-.3a3 3 0 0 0 .7-.8 5 5 0 0 0 .5-1.2l.1-.6v-.5c0-.3 0-.6-.3-.8-.1-.2-.4-.3-.7-.3-.4 0-.6 0-.8.2l-.7.8-.4 1-.1 1.3c0 .4 0 .7.2.9.2.2.4.3.7.3zm4.1.7 1.2-6h.9l-.1 1.1.5-.5.6-.5.9-.2c.5 0 .8.2 1 .4.5.3.6.6.6 1.1v.5l-.3.5-.7 3.6h-1l.8-3.8v-.4a2 2 0 0 0 0-.3c.1-.5-.1-.7-.6-.7-.2 0-.6 0-.9.2l-.8.9-.5 1.4-.6 2.7zm6.4 0 1.7-8.4h1l-.7 3.3a20 20 0 0 1-.5 2l2.8-2.8h1.2l-2.6 2.5 1.6 3.4h-1l-1.3-2.8-.8.6-.4 2.2zm5.4 0 1.3-6h1l-1.3 6.1zm2.8 0 1.4-6h.7l-.1 1.2.5-.6.6-.5.7-.1h.7l-.2.9a3 3 0 0 0-.6 0c-.3-.1-.7-.1-1 .2a3 3 0 0 0-.7 1.1l-.4.9-.6 3zm4.5 0 1.2-6h1l-1.3 6.1zm0 0" style="fill:none;stroke:#fff;stroke-width:3;stroke-linecap:butt;stroke-linejoin:round;stroke-miterlimit:10;stroke-opacity:.6" transform="rotate(  340 362.568 82.6512) translate(-83.936441)"/> <g style="fill:#7d577d;fill-opacity:1" transform=" rotate(  340 362.568 82.6512) ">  <use xlink:href="#j" x="343.5" y="85.7"/>  <use xlink:href="#k" x="349.9" y="85.7"/>  <use xlink:href="#l" x="356.2" y="85.7"/>  <use xlink:href="#m" x="362.5" y="85.7"/>  <use xlink:href="#n" x="368" y="85.7"/>  <use xlink:href="#o" x="370.8" y="85.7"/>  <use xlink:href="#n" x="375.2" y="85.7"/> </g> <path d="m6.4 9.2 1.7-7.8h1.8c1.1 0 1.7.2 2.3.8.5.5.8 1.2.8 2.3 0 1-.2 1.7-.6 2.5A4 4 0 0 1 11 8.6c-.8.4-1.6.6-2.6.6zm1.2-.8h.8c.8 0 1.4-.2 2-.5.4-.4.7-.9 1-1.4a4.6 4.6 0 0 0 .6-2c0-.8-.3-1.4-.6-1.7-.4-.4-1-.6-1.6-.6H9Zm7.8.9c-.5 0-.8 0-1-.3-.4-.3-.6-.6-.6-1.1a3 3 0 0 1 .2-.5v-.5l.8-3.6h1L15 7l-.1.8c0 .2 0 .4.1.5.2.2.4.2.7.2.2 0 .5 0 .8-.2l.8-.9.6-1.4.5-2.7h1l-1.4 6h-.7l.1-1.3-.5.7-.7.5-.8.1zm3-7-.4-.1v-.8l.5-.2.3.1.1.3c.1.2.1.4-.2.5l-.4.2zm-2.1 0-.3-.1v-.8l.6-.2.2.1.2.3-.2.5-.4.2zm3.2 6.9.1-.6L23.3 4h-2.5l.1-.7h3.6l-.1.8-3.6 4.4h2.8l-.2.7zm7.8.1c-.7 0-1.3-.1-1.6-.5-.4-.4-.6-1-.6-1.8 0-.4 0-.9.2-1.3l.7-1.3a3 3 0 0 1 1-.9c.3-.2.7-.3 1.2-.3l.7.1.8.2-.3.8a4 4 0 0 0-.6-.2h-.6c-.4-.1-.8-.1-1.1.3-.3.3-.6.6-.7 1.1-.2.7-.4 1.1-.4 1.7 0 .4.2.8.4.9.3.4.6.5 1 .5h.6l.8-.5V9l-.7.2a3 3 0 0 1-.8.1zm4.9 0c-.7 0-1.2-.2-1.6-.6-.3-.4-.5-.9-.5-1.6a4.9 4.9 0 0 1 .8-2.6 3 3 0 0 1 1-1c.2-.1.6-.2 1.1-.2.6-.1 1 .1 1.3.3.3.2.4.6.4 1s-.1.7-.3 1c-.4.4-.7.7-1.2.9-.5.1-1.1.2-2 .2V7c-.2.5-.2.9.2 1 .2.5.6.6 1 .6h.8L34 8v.9l-.8.3-1 .1zm-1-3.3h.1l1.2-.2c.5 0 .7-.2 1-.4.1-.2.2-.4.2-.7.1-.2.1-.4-.1-.5L33 4c-.4 0-.7.2-1 .5-.5.5-.7.8-.9 1.5zm0-.1" style="fill:none;stroke:#fff;stroke-width:3;stroke-linecap:butt;stroke-linejoin:round;stroke-miterlimit:10;stroke-opacity:.6" transform="rotate(  340 46.8529 41.1067) translate(25.417373,34.875)"/> <g style="fill:#7d577d;fill-opacity:1" transform=" rotate(  340 46.8529 41.1067) ">  <use xlink:href="#p" x="31.4" y="44.1"/>  <use xlink:href="#q" x="38.7" y="44.1"/>  <use xlink:href="#r" x="45.1" y="44.1"/>  <use xlink:href="#s" x="50" y="44.1"/>  <use xlink:href="#t" x="55" y="44.1"/> </g> <path d="M468.6 98.6c-.8 0-1.4.4-1.9.8-.3.6-.6 1.2-.6 2.1-.1 1 .2 1.6.6 2.1.4.5 1 .8 1.8.8h1l.7-.4v1l-.8.1h-1c-.7.1-1.3.1-1.8-.3a2.8 2.8 0 0 1-1.1-1.3c-.2-.6-.4-1.2-.4-2 0-.7.2-1.3.4-1.9a3 3 0 0 1 1.2-1.3c.5-.3 1.1-.3 1.9-.3.7-.1 1.4 0 2 .3l-.5.7-.7-.2a3 3 0 0 0-.8-.2zm.7 7.9c0 .3-.3.5-.4.7-.3.2-.6.3-1.1.3h-.5v-.7h1.1l.1-.4c0-.1 0-.2-.2-.3a2 2 0 0 0-.7-.1l.5-.9h.6l-.3.5.6.4c.2 0 .3.2.3.5zm4.4-6.9c.7 0 1.3.2 1.5.5.3.3.4.7.4 1.3v3.7h-.6l-.2-.8-.7.7-1.1.2c-.6 0-1-.2-1.3-.4-.2-.2-.4-.7-.4-1.2s.2-1 .6-1.2c.5-.4 1.1-.5 2.1-.5h.8v-.4c0-.4-.1-.7-.3-.9-.2-.2-.5-.2-.8-.2h-.8l-.7.5-.3-.9.8-.2 1-.2zm1 2.9h-.7c-.7 0-1.1.1-1.4.3-.2.2-.4.5-.4.8 0 .4.1.5.3.7l.7.2c.5 0 .8-.1 1.1-.5.3 0 .5-.5.5-1zM479.9 99.6c.6 0 1.1.2 1.4.5.4.3.5.9.5 1.5v3.5h-.8v-3.4c0-.9-.4-1.3-1.2-1.3-.6 0-1 .1-1.3.5-.2.3-.3.8-.3 1.4v2.8h-.9v-5.4h.7l.1.8h.1l.7-.7 1.1-.2zm4.5-2.1v4.8l.1-.2.3-.3.2-.3 1.7-1.8h1l-2.1 2.3 2.3 3h-1l-2.1-2.3-.3.3v2.1h-1.1v-7.6zm5.3 7.5h-.9v-5.2h1zm4.2-5.4h.6v1h-.7c-.2-.2-.5-.2-.8 0-.2.2-.4.4-.5.7l-.2 1v2.7h-.9v-5.3h.7l.1 1 .8-.7c.2-.3.5-.4 1-.4zm2.5 5.4h-.9v-5.2h1zm0 0" style="fill:none;stroke:#fff;stroke-width:3;stroke-linecap:butt;stroke-linejoin:round;stroke-miterlimit:10;stroke-opacity:.6" transform="rotate(  340 474.828 102.088) translate(-7.9414683)"/> <g style="fill:#212121;fill-opacity:1" transform=" rotate(  340 474.828 102.088) ">  <use xlink:href="#u" x="456.6" y="105.1"/>  <use xlink:href="#v" x="462.9" y="105.1"/>  <use xlink:href="#w" x="468.5" y="105.1"/>  <use xlink:href="#x" x="474.7" y="105.1"/>  <use xlink:href="#y" x="480" y="105.1"/>  <use xlink:href="#z" x="482.6" y="105.1"/>  <use xlink:href="#y" x="486.7" y="105.1"/> </g> <path d="M72.4 61h2c1.1 0 1.6.3 2.1.6.5.1.8.6.8 1.2-.1.5-.3.8-.5 1.2-.2.2-.6.3-1 .4l.8.4c.4.2.5.2.6.5l.2.9c0 .6-.2 1.1-.7 1.5-.4.3-1 .5-1.7.5h-2.6zm1 3.2h1.1c.7-.1 1.1-.1 1.5-.4 0-.2.2-.5.2-.8 0-.4-.1-.7-.4-.9-.3-.2-.7-.3-1.3-.3h-1.2zm-.1.8v2.4h1.4c.7 0 1.1 0 1.3-.3.3-.3.4-.6.4-1.1s0-.6-.3-.8c-.3-.2-.8-.2-1.4-.2zm10.2.5c0 1-.3 1.6-.7 2-.5.7-1 .9-1.8.9-.5-.1-1-.2-1.3-.4-.4-.2-.7-.5-.9-1-.2-.4-.3-.9-.3-1.5 0-.9.2-1.5.7-2 .4-.5 1-.7 1.8-.7.5 0 .9 0 1.3.2.3.3.6.6.7 1 .3.3.5.8.5 1.4zm-4.1 0c0 .7.1 1.2.4 1.5.2.4.6.6 1.2.6.5 0 1-.2 1.2-.6.2-.3.3-.8.3-1.5 0-.5 0-1.1-.3-1.5-.3-.3-.7-.5-1.2-.5-.6 0-1 .2-1.2.5-.3.4-.4 1-.4 1.5zm6.3 2.7h-.9v-7.6h1zm6.2-5.3v5.3h-.7l-.2-.7c-.3.3-.5.5-.8.6l-.9.2c-.6 0-1.1-.1-1.4-.4-.4-.4-.5-.9-.5-1.5v-3.5h.9v3.4c0 .9.4 1.3 1.1 1.3.6 0 1-.2 1.3-.6.2-.2.3-.7.3-1.4V63zm0 0" style="fill:none;stroke:#fff;stroke-width:3;stroke-linecap:butt;stroke-linejoin:round;stroke-miterlimit:10;stroke-opacity:.6" transform=" rotate(  340 82.2572 65.2119) "/> <g style="fill:#212121;fill-opacity:1" transform=" rotate(  340 82.2572 65.2119) ">  <use xlink:href="#A" x="71.4" y="68.2"/>  <use xlink:href="#B" x="77.9" y="68.2"/>  <use xlink:href="#C" x="84" y="68.2"/>  <use xlink:href="#D" x="86.6" y="68.2"/> </g></svg>