<svg xmlns="http://www.w3.org/2000/svg" xmlns:xlink="http://www.w3.org/1999/xlink" viewBox="0 0 497 279"> <defs overflow="visible" style="stroke:none">  <path id="c" d="m.3 0 1.1-5.4h.9l-.6 2.6 2.5-2.6h1.1L2.7-2.7 4.5 0h-1L1.6-2.7 1.2 0Zm0 0"/>  <path id="b" d="M4.8 0c-.6 0-1.1 0-1.4-.4-.4-.5-.5-1-.5-1.6v-.4H1.7L1.2 0h-1l1.3-5.4h.8L1.8-3H3c.2-1 .6-1.5 1-2 .4-.2.9-.4 1.5-.4s1 .2 1.4.6c.3.3.5.8.5 1.4 0 .5 0 .9-.2 1.4l-.5 1-.7.8c-.4.2-.8.3-1.2.3Zm0-.6c.5-.1.7-.1 1-.4l.4-1c.3-.4.3-.9.3-1.5l-.3-.9c-.2-.2-.4-.3-.7-.3-.3 0-.6 0-.8.2a2 2 0 0 0-.5.7l-.3.9-.1.9c0 .3 0 .6.2 1 .2.2.5.3 1 .3Zm.1-.1"/>  <path id="a" d="M.4 0 2-7.1h1l-.9 3h3.2l.7-3h.8L5.3 0h-.8l.7-3.3H2L1.3 0Zm0 0"/>  <path d="M1 0v-7.1h4V0Zm.4-.5h3.1v-6.1h-3Zm.1 0"/> </defs> <image xlink:href="svg/9/5_30.jpg" width="497" height="279"/> <path d="m126 138.4 1.3-7.1h1.1l-.8 3h3.2l.6-3h1l-1.7 7.1h-.7l.7-3.3h-3.2l-.7 3.3Zm11 .1c-.4 0-1-.2-1.2-.6-.5-.4-.6-.9-.6-1.5v-.4H134l-.5 2.4h-1l1.3-5.3h.8l-.6 2.2h1.3c.2-.8.7-1.4 1-1.7.4-.4.9-.6 1.4-.6.7 0 1.3.2 1.6.6.2.4.4.9.4 1.4 0 .5 0 .9-.2 1.3l-.5 1.1c-.2.4-.5.6-.8.8-.3.2-.7.3-1.1.3Zm.3-.7c.2 0 .4-.1.7-.4.2-.2.4-.4.5-1 .2-.4.3-.8.3-1.4 0-.4-.1-.7-.3-1-.2-.1-.4-.2-.8-.2-.1-.1-.4 0-.7.2a2 2 0 0 0-.5.6l-.3.9-.2 1c0 .4 0 .7.3 1 .2 0 .5.2.9.2Zm3.1.6 1.2-5.3h.8l-.4 2.5 2.4-2.5h1l-2.5 2.6 1.7 2.7h-1l-1.7-2.7-.6 2.7Zm0 0" style="fill:none;stroke-width:2;stroke-linecap:butt;stroke-linejoin:round;stroke:#fff;stroke-opacity:.6;stroke-miterlimit:10" transform=" rotate(  340 136.227 135.421) "/> <g style="fill:#4d80b3;fill-opacity:1" transform=" rotate(  340 136.227 135.421) ">  <use xlink:href="#a" x="125.5" y="138.4"/>  <use xlink:href="#b" x="132.3" y="138.4"/>  <use xlink:href="#c" x="140.2" y="138.4"/> </g></svg>