<svg xmlns="http://www.w3.org/2000/svg" xmlns:xlink="http://www.w3.org/1999/xlink" viewBox="0 0 497 279"> <defs overflow="visible" style="stroke:none">  <path d="M2.9.2c-.6 0-1.2-.3-1.6-.7C1-1 .7-1.7.7-2.5s.1-1.7.3-2.3a6.3 6.3 0 0 1 .8-1.7 4 4 0 0 1 1.3-1.2 3 3 0 0 1 1.6-.5c.5 0 1 .2 1.3.4l.7 1L7.3-8h1L6.5 0h-1l.2-1.5A6 6 0 0 1 4.3-.3C4 0 3.4.2 3 .2ZM3.3-1c.4 0 .8-.1 1.1-.3a4 4 0 0 0 1-1.1 6 6 0 0 0 .8-2.4v-.7c0-.4-.1-.8-.4-1.1-.2-.4-.6-.5-1-.5s-.7.1-1 .4c-.5.2-.8.6-1.1 1l-.4 1.5c-.3.4-.3.9-.3 1.6 0 .6 0 1 .4 1.3.2.2.5.3 1 .3ZM2.8.2c-.6 0-1-.2-1.4-.4C1-.5 1-1 1-1.6a5 5 0 0 1-.1-1L2-7H.7v-.6l1.5-.6.9-1.7h.7L3.4-8h2l-.1 1h-2l-1 4.3v.5l-.2.5c.1.1.1.3.3.4 0 .3.3.4.6.4h.5l.5-.3v1.1l-.5.1a3 3 0 0 1-.7 0Zm0 0c-.5 0-1 0-1.4-.2C1 0 .6-.2.3-.3v-1.4l1 .5a5 5 0 0 0 1.6.2c.3 0 .8 0 1.1-.2A2 2 0 0 0 5-2c.2-.2.3-.5.3-1 0-.4-.1-.7-.4-1L3.5-5a8.5 8.5 0 0 1-1-.7 2.8 2.8 0 0 1-.7-.9l-.2-1.2c0-.5.1-1.2.4-1.5a3 3 0 0 1 1.3-1.2 4.3 4.3 0 0 1 1.8-.4l1.5.2 1.2.5-.5 1.1a6.6 6.6 0 0 0-1-.4 3.9 3.9 0 0 0-1.2-.2c-.6 0-1.1.2-1.5.5-.4.3-.6.8-.6 1.4 0 .3 0 .5.2.7 0 .2.2.4.5.6l.8.5 1.2.8c.3.2.5.5.7.9.2.3.3.7.3 1.2 0 1-.4 1.9-1 2.4-.9.7-1.7.9-3.1.9Zm0 3.4-1.4-.1-1-.5V1.9l1 .4 1.4.2c.6 0 1-.2 1.5-.5.4-.2.7-.7.7-1.4l.3-.6a21.2 21.2 0 0 1 .2-1.5L4.4-.3C4 0 3.4.2 3 .2c-.7 0-1.3-.3-1.7-.7C1-1 .7-1.7.7-2.5A8 8 0 0 1 1-4.8a6.3 6.3 0 0 1 .8-1.7A4 4 0 0 1 3-7.7a3 3 0 0 1 1.7-.5c.5 0 1 .2 1.3.4l.7 1L7.4-8h.9L6.4.5c-.2 1-.6 1.9-1.2 2.4-.7.5-1.4.7-2.4.7ZM3.3-1c.4 0 .7-.1 1-.3l1.1-1L6-3.8a5.7 5.7 0 0 0 .2-1.7c0-.4 0-.8-.2-1.1-.3-.4-.7-.5-1.2-.5-.4.1-.8.2-1.1.4l-.9 1-.5 1.5c-.3.5-.3 1-.3 1.6 0 1.1.5 1.7 1.3 1.7ZM.4 0 2-8h1.2l-.1 1.3a7 7 0 0 1 .7-.6c.2-.3.5-.5.9-.7l1.1-.2c.7 0 1.2.1 1.5.5.4.4.7.9.7 1.5v.7l-.4.6L6.7 0H5.2l1.1-5a9 9 0 0 0 .1-.7v-.4c.1-.6-.2-.9-.9-.9-.3 0-.6.2-1 .4s-.9.6-1.1 1c-.4.6-.8 1.3-1 2.1L1.8 0Zm2.8-9.4c-.2 0-.4 0-.5-.2-.2 0-.2-.3-.2-.4s0-.6.2-.8l.7-.2c.4 0 .6.2.6.6 0 .4 0 .6-.2.8l-.6.2ZM.4 0l1.7-8h1.4L1.7 0Zm0 0 1.7-8h1.1L3-6.6h.1l.7-.7c.2-.3.5-.5.8-.7a2 2 0 0 1 1-.2H6l.4.2-.2 1.1h-.8a2 2 0 0 0-1.4.3 4 4 0 0 0-1 1.4l-.4 1.5L1.7 0Zm3.2.2C2.7.2 2-.1 1.5-.7 1-1.2.7-1.9.7-2.9a6.6 6.6 0 0 1 1.1-3.6c.3-.5.8-1 1.3-1.2a3 3 0 0 1 1.6-.5c.8 0 1.4.2 1.8.5.3.3.5.8.5 1.4 0 .5 0 1-.5 1.3-.3.5-.8 1-1.5 1.1-.7.3-1.6.4-2.7.4h-.2v.6c-.1.6.1.9.4 1.4.3.5.8.6 1.4.6.4-.1.7-.1 1-.2l1.2-.5v1.2L4.9 0 3.6.2ZM2.3-4.5 4-4.7c.6-.1 1-.3 1.3-.5.3-.3.5-.6.5-1 0-.3-.1-.5-.3-.6-.2-.2-.5-.3-.8-.3-.5.1-1 .2-1.4.7-.5.4-.8 1-1 1.9ZM.6 0 3-10.7h2.7c1 0 1.7.2 2.3.6.5.4.8 1 .8 1.8s-.2 1.5-.6 1.8c-.5.5-1 .8-1.8 1 .6.1 1 .4 1.2.7.4.4.5.9.5 1.5 0 .7-.1 1.3-.5 1.8-.3.5-.8.9-1.4 1.1A5.6 5.6 0 0 1 4 0Zm2.6-6.2H5c.5 0 1 0 1.2-.2a2 2 0 0 0 1-.6l.1-1c.1-.7 0-1-.3-1.3-.3-.1-.8-.3-1.5-.3H4Zm-.9 5H4c.9.1 1.6 0 2-.4.4-.5.6-1.1.6-1.7.1-.5 0-1-.3-1.2C6-5 5.4-5 4.7-5H3ZM-.7 0l6-10.7h1.3L.6 0Zm0 0"/>  <path id="j" d="M0 .1h-.4L-.7 0v-1.1h.5c.3.1.6.1.9-.2l.6-1.1c.2-.4.5-1 .7-1.8l.7-1.7c.2-.5.3-1.1.7-1.2.2-.4.6-.6 1-.9h2.4l.9.2L6 0H4.7l1.5-7h-.6c-.4 0-.6.1-1 .3-.2.2-.5.5-.6 1l-.8 2a23 23 0 0 1-.9 2c-.2.7-.5 1.1-1 1.5C1 0 .6 0 0 0Zm0 0"/>  <path id="i" d="M.4 0 2-8h1.2l-.1 1.3a7 7 0 0 1 .7-.6c.2-.3.5-.5.9-.7l1.1-.2c.7 0 1.2.1 1.5.5.4.4.7.9.7 1.5v.7l-.4.6L6.7 0H5.2l1.1-5a9 9 0 0 0 .1-.7v-.4c.1-.6-.2-.9-.9-.9-.3 0-.6.2-1 .4s-.9.6-1.1 1c-.4.6-.8 1.3-1 2.1L1.8 0Zm0 0"/>  <path id="h" d="M3.9.2c-1.1 0-2-.3-2.4-1C1-1.4.7-2.1.7-3.1S1-5 1.2-5.7a4.1 4.1 0 0 1 1.5-1.8c.6-.4 1.3-.7 2.3-.7.8 0 1.5.2 2 .5.4.4.7.9.7 1.7 0 .5-.2.9-.7 1.2-.3.5-.7.6-1.3.8l1 .6c.3.2.5.6.5 1.1 0 .3-.2.7-.4 1.1-.2.4-.5.7-1 1-.5.2-1.1.4-2 .4ZM2.2-4.5h1.6c.5 0 .9 0 1.3-.2.4 0 .7-.2.9-.3.2-.3.4-.6.4-1a1 1 0 0 0-.4-.8C5.8-7 5.5-7 5-7c-.7 0-1.3.1-1.8.6-.5.4-.8 1-1 1.9ZM4-1c.6 0 1-.1 1.4-.4.3-.2.6-.6.6-1-.1-.2-.3-.6-.6-.7-.3-.3-.8-.4-1.4-.4H2.1v.5c-.1.6.1 1.2.5 1.5.3.5.8.6 1.4.6Zm0 0"/>  <path id="g" d="M3.7.1c-1 0-1.6-.1-2.2-.8C1-1.3.7-2 .7-3L1-4.8a5.9 5.9 0 0 1 .7-1.7A4 4 0 0 1 3-7.7C3.5-8 4-8 4.7-8c1-.1 1.7 0 2.3.7.5.5.7 1.3.7 2.3 0 .6 0 1.2-.2 1.8a5.5 5.5 0 0 1-.8 1.7C6.4-1 6-.6 5.5-.3 5 0 4.4 0 3.7 0Zm.1-1c.5-.1 1-.3 1.3-.7.4-.2.7-.7.9-1.3a6.4 6.4 0 0 0 .3-2.3c.1-.3.1-.6-.1-.8a1.5 1.5 0 0 0-.5-.8c-.2-.2-.5-.2-1-.2a2 2 0 0 0-1.3.5C3-6 2.6-5.6 2.3-5a6.2 6.2 0 0 0-.1 2c-.2.8 0 1.3.3 1.6.3.4.7.4 1.3.4Zm0-.1"/>  <path id="f" d="M3 .2A4 4 0 0 1 1.7 0a2 2 0 0 1-1-.7C.5-1 .4-1.4.4-2s.1-.9.4-1.2l1-.8a10 10 0 0 1 1.3-.6l1.4-.7c.5-.2.6-.5.6-1 0-.1 0-.3-.1-.4-.3-.3-.6-.4-1-.4s-.8.1-1 .2c-.5-.1-1 .2-1.1.3l-.5-1L2.7-8l1.5-.2c.6 0 1.2.2 1.6.5.4.2.7.7.7 1.4 0 .3-.2.8-.5 1.2l-1 .8-1 .5-1.2.5c-.4.1-.7.3-.8.5-.2.2-.3.5-.3.8 0 .3.1.6.4.8.2.2.6.2.9.2l1.4-.1 1.1-.5v1.2L4.3 0 3 .2Zm0 0"/>  <path id="e" d="m.4 0 1.7-8h1.3l-.6 3.3h3.7L7.3-8h1.3L6.9 0H5.5l.8-3.6H2.5L1.7 0Zm0 0"/>  <path id="d" d="M2.8.2c-.6 0-1-.2-1.4-.6C1-.7.8-1.2.8-1.8v-.7l.2-.6 1-5h1.4L2.3-3a5 5 0 0 0-.1 1c0 .3 0 .6.2.8.2.2.4.2.8.2.3 0 .7-.1 1.1-.3.4-.2.8-.6 1.1-1.2.3-.5.6-1.2.8-2L6.9-8h1.3L6.5 0h-1l.1-1.5a8 8 0 0 1-.8.8L4-.1c-.3.2-.7.3-1.2.3Zm0 0"/>  <path id="c" d="M-.3 3.6 2-8h1.2L3-6.5c.5-.5.9-.9 1.4-1.2.3-.3.9-.5 1.4-.5.6 0 1.1.3 1.5.7.5.5.7 1.2.7 2S7.9-4 7.7-3.2a6.3 6.3 0 0 1-.8 1.7C6.6-1 6-.6 5.7-.3A3 3 0 0 1 4 .2C3.5.2 3 0 2.7-.3a2.8 2.8 0 0 1-.7-1A10.7 10.7 0 0 1 1.6.2L1 3.6ZM3.9-1c.4 0 .8-.1 1.1-.3l1-1 .4-1.5.2-1.7c0-1-.4-1.5-1.3-1.5-.3 0-.6 0-1 .3l-1 1a5.4 5.4 0 0 0-.8 3.1c-.1.6 0 1 .3 1.2.2.4.6.5 1.1.5ZM4-1"/>  <path id="b" d="M3.6.2C2.7.2 2-.1 1.5-.7 1-1.2.7-1.9.7-2.9a6.6 6.6 0 0 1 1.1-3.6c.3-.5.8-1 1.3-1.2a3 3 0 0 1 1.6-.5c.8 0 1.4.2 1.8.5.3.3.5.8.5 1.4 0 .5 0 1-.5 1.3-.3.5-.8 1-1.5 1.1-.7.3-1.6.4-2.7.4h-.2v.6c-.1.6.1.9.4 1.4.3.5.8.6 1.4.6.4-.1.7-.1 1-.2l1.2-.5v1.2L4.9 0 3.6.2ZM2.3-4.5 4-4.7c.6-.1 1-.3 1.3-.5.3-.3.5-.6.5-1 0-.3-.1-.5-.3-.6-.2-.2-.5-.3-.8-.3-.5.1-1 .2-1.4.7-.5.4-.8 1-1 1.9Zm0 0"/>  <path id="a" d="M.6 0 3-10.7h5.3l-.2 1.2H4l-.7 3.3h1c.9 0 1.5.2 2 .4s.8.5 1 1a3 3 0 0 1 .3 1.2c0 .9-.2 1.5-.6 2.1-.3.5-.8.9-1.4 1.1a6 6 0 0 1-2.2.4Zm1.6-1.1h1.4c1.7 0 2.6-.9 2.6-2.3 0-.6-.2-1-.5-1.3-.3-.2-.8-.3-1.4-.3H3Zm0 0"/>  <path d="M1.4 0v-10.7h6.2V0Zm.8-.8h4.6v-9.1H2.2Zm0 0"/> </defs> <image xlink:href="svg/9/68_32.jpg" width="497" height="279"/> <path d="m283.4 35.3 2.2-10.7h5.4l-.2 1.2h-4L286 29h1c1 .1 1.7.2 2 .5.5.2.8.5 1 1a3 3 0 0 1 .3 1.2c0 .9-.2 1.5-.5 2.1-.4.5-.9.9-1.5 1.1a6 6 0 0 1-2.2.4zm1.5-1.3h1.4c1.8.1 2.6-.6 2.6-2 .1-.7-.1-1.1-.5-1.4-.3-.2-.7-.3-1.3-.3h-1.3zM294.9 35.4c-1 0-1.7-.2-2.2-.8-.5-.5-.7-1.3-.7-2.2a6.6 6.6 0 0 1 1-3.6c.4-.5.8-1 1.3-1.2a3 3 0 0 1 1.7-.6c.7.1 1.3.3 1.7.6.3.3.6.8.6 1.4 0 .5-.3 1-.5 1.4-.3.4-.9.8-1.5 1-.7.3-1.6.4-2.7.4h-.3v.6c0 .6.1 1 .4 1.4.3.4.8.5 1.4.5l1-.1 1.3-.5v1.1l-1.2.5-1.3.1zm-1.4-4.7h.1l1.7-.1c.5-.1 1-.3 1.2-.6.3-.2.5-.5.5-1 0-.2-.1-.4-.3-.6l-.7-.2c-.6 0-1 .2-1.5.7-.4.4-.8 1-1 1.8zm4.9 8.2 2.5-11.7h1l-.1 1.5 1.2-1.1c.4-.3 1-.5 1.5-.5.7 0 1.2.2 1.6.7.4.5.6 1.1.6 2 0 .8-.1 1.5-.3 2.2a6.3 6.3 0 0 1-.8 1.8c-.3.5-.6.9-1.2 1.2a3 3 0 0 1-1.6.4c-.6 0-1-.1-1.4-.4a2.8 2.8 0 0 1-.7-1 10.7 10.7 0 0 1-.4 1.5l-.6 3.5zm4.3-4.6c.3 0 .7 0 1-.3.4-.3.7-.6.9-1l.4-1.6c.3-.5.3-1 .3-1.6 0-1-.3-1.6-1.2-1.6-.4 0-.7.1-1.1.4-.4.2-.7.6-1 1a5.4 5.4 0 0 0-1 3.1c.1.5.3.9.5 1.3.3.2.6.3 1.2.3zm7.5 1.1c-.6 0-1-.1-1.4-.4-.4-.4-.6-.9-.6-1.6v-.6l.3-.8.9-4.8h1.5l-1.1 5.1a5 5 0 0 0-.3 1c.1.3.1.6.3.8.2.2.4.2.8.2s.7 0 1.1-.3c.4-.3.8-.6 1.1-1.2.4-.5.6-1.2.8-2l.7-3.7h1.4l-1.7 8.1h-1.1l.1-1.3a8 8 0 0 1-.7.7l-.9.6c-.3.2-.7.2-1.2.2zm6.3-.1 1.7-8h1.3l-.7 3.2h3.8l.7-3.3h1.4l-1.7 8h-1.4l.8-3.4h-3.8l-.8 3.5zm11.5.1a4 4 0 0 1-1.1-.2 2 2 0 0 1-1.1-.6c-.2-.3-.3-.7-.3-1.2s.1-1 .4-1.4l1-.7a10 10 0 0 1 1.3-.6l1.4-.7c.4-.2.6-.5.6-1 0-.1 0-.3-.2-.5l-1-.3c-.3 0-.6 0-1 .2-.4 0-.8.2-1 .3l-.5-1 1.3-.4 1.5-.2c.6 0 1.2.2 1.6.5.4.2.7.7.7 1.4 0 .4-.2.8-.4 1-.3.5-.6.7-1 1-.2.2-.6.3-1.2.5l-1 .5c-.5 0-.7.3-1 .5-.1.2-.2.5-.2.8 0 .3.2.6.4.7.2.3.6.3 1 .3l1.4-.1.9-.5V35l-.9.3-1.6.1zm7.7 0c-1 0-1.6-.3-2.2-.8-.5-.6-.8-1.3-.8-2.3l.3-1.8a5.9 5.9 0 0 1 .7-1.7 4 4 0 0 1 1.3-1.2c.5-.3 1-.5 1.7-.5 1 0 1.7.3 2.3.9.5.5.7 1.3.7 2.2 0 .8 0 1.3-.2 1.9a5.5 5.5 0 0 1-.8 1.6c-.3.5-.7 1-1.2 1.3-.5.3-1.1.4-1.8.4zm0-1c.7-.1 1.1-.3 1.5-.7.3-.2.6-.7.8-1.3a6.4 6.4 0 0 0 .3-2.4c.1-.2.1-.5-.1-.8a1.5 1.5 0 0 0-.5-.7c-.2-.2-.5-.3-1-.3a2 2 0 0 0-1.4.6c-.3.4-.7.9-1 1.5a6.2 6.2 0 0 0-.1 2c-.2.7 0 1.3.3 1.6.3.2.7.4 1.3.4zm8.6 1c-1 0-1.9-.3-2.3-.9-.6-.5-.8-1.4-.8-2.4s.1-1.8.5-2.5a4.1 4.1 0 0 1 1.3-1.8c.7-.5 1.5-.8 2.4-.8.9.1 1.6.3 2 .6.6.4.7.9.7 1.5s-.1 1.1-.5 1.4c-.4.5-1 .6-1.6.7.5.3.9.4 1.1.7.5.2.6.5.6 1.1l-.4 1c-.3.5-.6.8-1 1.1-.5.2-1.3.3-2 .3zm-1.7-4.7h2.9l1-.6c.1-.2.2-.4.2-.9a1 1 0 0 0-.2-.6c-.2-.3-.6-.4-1-.4-.9 0-1.5.2-2 .8-.3.3-.7.9-.9 1.7zm1.8 3.6c.7 0 1.2 0 1.6-.3.2-.4.3-.7.3-1 0-.4-.1-.7-.5-.9-.3-.2-.7-.3-1.4-.3h-1.9v.4c0 .7.2 1.3.5 1.6.4.4.8.5 1.4.5zM286 54l1.7-8.2h1.3l-.3 1.6a7 7 0 0 1 .7-.8l.9-.6c.3-.2.7-.3 1.1-.3.7 0 1.2.3 1.6.5.3.4.5.9.5 1.5v.7l-.1.7-1.1 4.8h-1.4l1-4.9a9 9 0 0 0 .3-.7V48c-.1-.8-.4-1.1-1.1-1.1-.3.1-.7.1-1.1.4-.5.2-.8.6-1.2 1-.2.7-.5 1.4-.6 2.3l-.8 3.3zm8 3.5 2.4-11.5h1.1l-.1 1.4 1.2-1.1c.4-.4 1-.5 1.4-.5.7 0 1.3.2 1.7.7.3.4.6 1.1.6 2 0 .8-.1 1.5-.3 2.1a6.3 6.3 0 0 1-.8 1.8c-.2.6-.7 1-1.2 1.2a3 3 0 0 1-1.6.5c-.6 0-1-.1-1.4-.4a2.8 2.8 0 0 1-.7-1 10.7 10.7 0 0 1-.3 1.4l-.7 3.4zm4.3-4.5c.4 0 .7 0 1-.4.4-.2.7-.6.9-1l.5-1.5c.3-.5.3-1 .3-1.6 0-1-.5-1.6-1.3-1.6-.4 0-.7 0-1 .3l-1.1 1a5.4 5.4 0 0 0-.9 3.2c0 .5.3.9.4 1.2.3.3.6.4 1.2.4zm8.4 1c-.9 0-1.6-.1-2.2-.7-.5-.6-.8-1.3-.8-2.3 0-.6.1-1.3.3-2a5.9 5.9 0 0 1 .7-1.5 4 4 0 0 1 1.3-1.2c.5-.3 1-.5 1.7-.5 1 0 1.7.3 2.3.8.5.6.7 1.4.7 2.4 0 .5 0 1.1-.2 1.7a5.5 5.5 0 0 1-.8 1.7c-.3.5-.7.9-1.2 1.2-.5.4-1.1.5-1.8.5zm.1-1c.5 0 1-.2 1.3-.5.4-.5.7-.9 1-1.5a6.4 6.4 0 0 0 .2-2.2c.1-.3.1-.6-.1-1a1.5 1.5 0 0 0-.5-.5c-.2-.3-.5-.4-1-.4a2 2 0 0 0-1.3.6c-.4.3-.8.8-1 1.5a6.2 6.2 0 0 0-.3 2c-.1.6.1 1.1.4 1.5.3.3.7.5 1.3.5zm4.6 1h-.6v-1.3l.5.2c.3 0 .6-.1.7-.3l.8-1 .7-1.8.5-1.8.8-1.2c.3-.3.6-.6 1-.7.4-.2.9-.3 1.5-.3l1 .2.7.1-1.5 7.8H316l1.6-6.9h-.5c-.4 0-.8 0-1.1.1-.2.3-.4.7-.6 1.1l-.8 2a23 23 0 0 1-.8 2.1c-.3.6-.6 1-1 1.3-.3.4-.8.5-1.4.5zm11 .1c-.6 0-1-.2-1.4-.5-.4-.4-.6-.9-.6-1.6v-.6l.3-.6.9-4.9h1.4l-1 5a5 5 0 0 0-.3 1.1c.1.4.1.6.3.8.2.2.4.2.8.2s.7 0 1.2-.4c.3-.2.7-.6 1-1.1.4-.5.6-1.2.8-2.1l.8-3.5h1.3l-1.7 8H325l.2-1.4a8 8 0 0 1-.7.7l-.9.8h-1.2zm9.8 0c-1.2 0-2-.3-2.4-.9-.5-.6-.8-1.4-.8-2.4s.2-1.8.5-2.6a4.1 4.1 0 0 1 1.5-1.8c.6-.4 1.4-.6 2.3-.6.7 0 1.5.1 2 .5.4.3.7.7.7 1.5 0 .6-.2 1-.6 1.4l-1.4.7c.4.1.8.3 1 .6.3.2.5.5.5 1.1 0 .4-.2.8-.5 1.2 0 .2-.4.7-.9 1-.5.2-1.1.2-2 .2zm-1.7-4.7h1.6l1.3-.1c.4-.1.6-.3.9-.5.2-.2.4-.5.4-.8a1 1 0 0 0-.4-.8c-.2-.2-.5-.3-1-.3-.7 0-1.3.1-1.8.6s-.8 1-1 1.9zm1.8 3.6c.6 0 1.1 0 1.4-.4.3-.3.5-.6.5-1s-.2-.7-.5-.8c-.3-.2-.8-.3-1.5-.3h-1.8v.3c0 .8.1 1.3.5 1.7.3.3.8.5 1.4.5zm0 0" style="fill:none;stroke:#fff;stroke-width:2;stroke-linecap:butt;stroke-linejoin:round;stroke-miterlimit:10;stroke-opacity:.6" transform="rotate(  340 313.575 109) translate(0,67.385593)"/> <g style="fill:#4c7fb3;fill-opacity:1" transform=" rotate(  340 313.575 109) ">  <use xlink:href="#a" x="282.7" y="102.7"/>  <use xlink:href="#b" x="291.2" y="102.7"/>  <use xlink:href="#c" x="298.7" y="102.7"/>  <use xlink:href="#d" x="307.4" y="102.7"/>  <use xlink:href="#e" x="316.1" y="102.7"/>  <use xlink:href="#f" x="325.1" y="102.7"/>  <use xlink:href="#g" x="332" y="102.7"/>  <use xlink:href="#h" x="340.4" y="102.7"/>  <use xlink:href="#i" x="285.6" y="121.3"/>  <use xlink:href="#c" x="294.3" y="121.3"/>  <use xlink:href="#g" x="303" y="121.3"/>  <use xlink:href="#j" x="311.5" y="121.3"/>  <use xlink:href="#d" x="319.6" y="121.3"/>  <use xlink:href="#h" x="328.3" y="121.3"/> </g></svg>