<svg xmlns="http://www.w3.org/2000/svg" xmlns:xlink="http://www.w3.org/1999/xlink" viewBox="0 0 497 279"> <defs overflow="visible" style="stroke:none">  <path id="A" d="M8.3 2.2 8.7.1c-.1-.1-.4-.2-.4-.4L8-1.2l-.5.6-.7.6a2 2 0 0 1-.9.1C5.5.1 5.1 0 5-.2c-.3-.4-.5-.8-.5-1.2l-.7.8-.8.5a2 2 0 0 1-.8.2c-.5 0-.9-.1-1.1-.4C.8-.6.7-1 .7-1.5V-2l.1-.5.8-4h1l-.7 4.2v.7l-.1.6c.2.2.5.2.7.2.3 0 .6 0 .9-.2l.8-1 .5-1.4.8-3.1h.9l-.8 4.2a4 4 0 0 0-.1.7l.1.6c.2.2.4.2.6.2.3 0 .6 0 .9-.2.3-.2.6-.5.8-1 .3-.4.5-1 .6-1.7l.6-2.7h.9L9.2-2v.8c-.1.3.1.5.3.5h.3l.2-.2-.7 3.1Zm0 0"/>  <path id="z" d="M2.3.1C1.8.1 1.3 0 1-.3.8-.6.7-1 .7-1.5V-2l.1-.5.8-4h1.1l-.9 4.2a4 4 0 0 0 0 .7v.6c.3.2.5.3.8.3l.8-.3c.4-.2.7-.5 1-1L5-3.7l.6-2.7h1L5.2 0h-.8l.1-1.2-.7.6-.6.6a2 2 0 0 1-1 .1Zm0 0"/>  <path id="y" d="M2.7.1C2 .1 1.5 0 1.1-.5.8-1 .6-1.5.6-2.2c0-.5 0-1 .2-1.4 0-.4.2-.9.5-1.3s.7-.7 1-.9c.3-.2.7-.4 1.3-.4.4 0 .8.2 1 .3a2 2 0 0 1 .8.9v-.5c-.1-1-.2-1.7-.5-2.2-.3-.3-.7-.7-1.2-.7a3 3 0 0 0-.7.1l-.6.3-.2-.9a3 3 0 0 1 .7-.1A4 4 0 0 1 4-9.2c.6 0 1.2.2 1.7 1 .5.4.6 1.4.6 2.6.1.5.1 1.1-.1 1.6 0 .5-.2 1-.4 1.5s-.4 1-.7 1.3L4-.2c-.3.2-.8.2-1.3.2Zm.1-.9c.4 0 .8-.1 1-.4a4 4 0 0 0 .9-1.2L5.1-4a2.3 2.3 0 0 0-.5-1c-.3-.2-.6-.3-1-.3-.2 0-.6.1-.9.3L2-3.8c-.3.5-.4 1-.4 1.6 0 .4.1.7.4 1 .1.3.4.4 1 .4Zm0 0"/>  <path id="x" d="M3 .1C2.1.1 1.5 0 1.1-.5.8-1 .6-1.5.6-2.3c0-.5 0-1 .2-1.5.1-.5.4-1 .6-1.4l1-1c.5-.2 1-.3 1.5-.3s.9 0 1.3.3c.3.3.4.7.4 1.2 0 .4-.1.8-.4 1-.2.5-.6.8-1.2 1l-2 .1h-.3v.6c-.1.3-.1.8.3 1.1.2.3.6.4 1 .4h1l.8-.5v1c-.3 0-.6.2-.8.3L3 .1ZM1.7-3.6H2c.4 0 1 0 1.2-.2.4 0 .8-.2 1-.4.3-.2.4-.4.4-.8 0-.2 0-.3-.2-.5l-.7-.2c-.4 0-.7.2-1 .7-.5.2-.7.7-1 1.4Zm.1 0"/>  <path id="w" d="m.3 0 1.4-6.4h1l-.6 3L5-6.3h1.4L3.2-3.2 5.4 0H4L2.1-3.2 1.4 0Zm0 0"/>  <path id="v" d="M2.9.1C2.2.1 1.7 0 1.3-.3 1-.6.7-1.1.7-1.7v-.6l.3-.6.6-3.5h1.1l-.6 2.8.7-.1h.7c.7-.1 1.3-.1 1.6.3.3.4.4.8.4 1.3 0 .4 0 .8-.3 1.1-.2.4-.5.6-.8.8-.4.2-1 .3-1.5.3Zm0-.8C3.6-.8 4-1 4.2-1.1c.2-.3.3-.5.3-.9 0-.3-.1-.5-.3-.7l-1-.2h-.7l-.5.1v.6l-.3.4c.1.3.1.5.3.7.2.2.5.4 1 .4ZM3-.8"/>  <path id="u" d="M3 .1C2.2.1 1.7 0 1.2-.5.8-.9.6-1.5.6-2.3c0-.6 0-1 .2-1.6l.7-1.4a3 3 0 0 1 1-.9L4-6.5h.8c.2 0 .5.2.7.3l-.3.8-.5-.2H4c-.5-.1-1 0-1.3.3A3 3 0 0 0 2-4l-.3 1.7c0 .5 0 .9.3 1.1.3.3.6.4 1 .4h1a9 9 0 0 0 .6-.5v1.1L4 0 2.9.1Zm0 0"/>  <path id="t" d="M3.1.1c-.9 0-1.5-.1-2-.7-.2-.4-.4-1.1-.4-2A5 5 0 0 1 1-4.5c.2-.7.6-1.1 1-1.5.6-.4 1.3-.5 2-.5s1.2 0 1.6.4C6-6 6-5.4 6-5s0 .9-.3 1.2c-.3.3-.7.4-1.2.5l.9.6c.2.1.3.4.3.9 0 .1 0 .4-.2.8s-.5.6-.8.8c-.4.2-1 .3-1.7.3ZM1.8-3.6H3l1-.1.8-.5c.2-.1.3-.3.3-.6l-.3-.6c-.1-.2-.4-.3-.8-.3-.6 0-1 .2-1.4.7-.4.2-.7.7-.8 1.4ZM3.2-.7c.5-.1.8-.3 1.1-.4.3-.2.4-.5.4-.8 0-.3-.1-.5-.4-.6-.2-.2-.6-.3-1.1-.3H1.6v.3c0 .6.2 1 .5 1.3.2.3.6.4.9.4Zm0-.1"/>  <path id="s" d="M3 0c-.8 0-1.4 0-1.8-.5C.8-1 .6-1.6.6-2.4c0-.5 0-1 .2-1.4.1-.5.2-1 .6-1.4.2-.4.6-.7 1-1 .4-.1.9-.2 1.4-.2.7-.1 1.3.1 1.7.6.5.4.7 1 .7 1.8 0 .5 0 1-.2 1.4l-.6 1.4-1 1C4 0 3.5 0 3 0Zm0-.7c.4-.1.8-.2 1-.5.5-.2.7-.6.9-1.1a5.3 5.3 0 0 0 .2-1.9 2 2 0 0 0-.1-.7l-.4-.5c-.2-.2-.6-.2-.8-.2-.4 0-.8.1-1.1.4-.4.3-.7.7-.8 1.2-.2.5-.3 1-.3 1.7 0 .5.2.8.4 1.1.3.3.6.4 1 .4Zm0-.1"/>  <path id="r" d="m-.4 0 2.7-3.3L1-6.4h1l1 2.3 2-2.3h1L3.4-3.3 5 0H4L2.8-2.5.8 0Zm0 0"/>  <path id="q" d="M2.3.1c-.5 0-1-.1-1.2-.5-.4-.4-.5-1-.5-1.7 0-.6 0-1.1.2-1.7l.7-1.4 1-1c.3-.2.8-.3 1.2-.3.5 0 .8 0 1 .3l.8.8.3-1h.8L5.2 0h-.8l.1-1.2-1 1a2 2 0 0 1-1.2.2Zm.4-.8c.3-.1.5-.3.8-.4.3-.2.6-.5.8-.9l.5-1.2.2-.6v-.6c0-.3-.1-.6-.3-.9-.2-.2-.5-.4-.9-.4-.3 0-.6.1-.8.3l-.7.8-.5 1.2L1.7-2c0 .4 0 .7.2 1 .2 0 .4.2.8.2Zm0-.1"/>  <path id="p" d="m.5 0 1.8-8.6h1l-.7 4.2 3.9-4.2h1.3L3.6-4.3 6.3 0H5L2.5-4.3 1.5 0Zm0 0"/>  <path d="M1.1 0v-8.6h5V0Zm.6-.6h3.8V-8H1.7Zm0 0"/>  <path id="o" d="M1.7-3.2h1.6c1.4 0 2.1.6 2.1 1.6 0 .5-.2.9-.4 1.2-.4.3-1 .4-1.7.4H.8v-5.4h1Zm2.8 1.6c0-.3 0-.4-.3-.6-.2-.3-.6-.3-1-.3H1.7v1.8h1.5c.4 0 .8 0 1-.2.2-.1.3-.4.3-.7Zm0 0"/>  <path id="n" d="M5 0H4v-4.6H2.5L2-2 1.5-.4c-.3.3-.6.4-1 .4H0v-.7h.4c.3.1.6-.3.8-.9.2-1 .4-2.2.5-3.9h3.2Zm0 0"/>  <path id="m" d="M5.4-5.4V0h-.9v-4.6H1.7V0H.8v-5.4Zm0 0"/>  <path id="l" d="M5.5-2.7c0 .9-.2 1.7-.7 2-.4.7-1 .9-1.8.9-.5-.2-.9-.2-1.3-.4-.3-.2-.6-.6-.7-1C.6-1.6.5-2 .5-2.7c0-.9.3-1.6.7-2 .5-.5 1-.8 1.8-.8.5 0 1 .2 1.3.5.4 0 .7.4.9.9.2.2.3.7.3 1.3Zm-4 0c0 .7 0 1.2.3 1.5.3.4.7.6 1.2.6.6 0 1-.2 1.2-.6.3-.3.4-.8.4-1.5s-.1-1.1-.4-1.5c-.2-.3-.6-.5-1.2-.5-.5 0-1 .2-1.2.5-.2.4-.3.9-.3 1.5Zm0 0"/>  <path id="k" d="M4-5.4h1L2.7-2.8 5.2 0h-1L1.7-2.7V0H.8v-5.4h1v2.6Zm0 0"/>  <path id="j" d="M1.7 0H.8v-5.4h1Zm0 0"/>  <path id="i" d="M6.4 0h-.9v-3.3H2V0H.9v-7.1H2v3h3.5v-3h1Zm0 0"/>  <path d="M1 0v-7.1h4V0Zm.4-.5h3.1v-6.1h-3Zm.1 0"/>  <path id="h" d="M1.5 0H.2l2-3a3 3 0 0 1-.8-.2 1.8 1.8 0 0 1-.6-.7l-.2-1c0-.7.2-1.2.7-1.5.3-.4 1-.6 1.7-.6h3.2v7H5v-2.8H3.3Zm.2-5c0 .6.1.9.3 1 .4.2.8.3 1.4.3H5V-6H3.2c-.6 0-1 0-1.2.3-.2.2-.3.5-.3.8Zm0 0"/>  <path id="g" d="m9.5-7-3 3.4L9.8 0H8.4l-3-3.5V0h-1v-3.5L1.3 0H0l3.1-3.6L.3-7h1.2l2.8 3.4V-7h1v3.4L8.4-7Zm0 0"/>  <path id="f" d="M2.3 0H1v-7h1.2Zm0 0"/>  <path id="e" d="M4.4-7c.9 0 1.6.1 2 .7.6.7 1 1.6 1 2.8-.1 1.2-.4 2-.9 2.7-.5.6-1.2 1-2 1C3.8.1 3.4 0 3-.3a2.7 2.7 0 0 1-.8-.6v4h-.9v-10H2l.2.9c.3-.3.6-.6.9-.8.3-.2.8-.2 1.3-.2Zm-.2.8c-.7.1-1.2.2-1.5.7-.3.4-.4 1-.5 1.8v.2c.1.9.3 1.5.6 2s.7.7 1.4.7c.5 0 .8-.2 1-.4.5-.2.7-.5.8-1v-1.2c0-.9-.1-1.6-.4-2.1C5.3-5.8 5-6 4.2-6Zm0 .1"/>  <path id="d" d="M7.2-3.5c0 1.2-.3 2-1 2.7-.4.6-1.2 1-2.2 1a3.2 3.2 0 0 1-1.7-.6A3 3 0 0 1 1-1.5c0-.6-.3-1.2-.3-2 0-1.1.3-2 .9-2.7C2.2-6.8 3-7 4-7c.6 0 1 0 1.6.3a3 3 0 0 1 1.2 1.2c.2.6.4 1.2.4 2Zm-5.3 0c0 .8.1 1.5.5 2 .3.4.8.7 1.5.7s1.2-.3 1.6-.7c.3-.5.5-1.2.5-2s-.2-1.5-.5-2C5-5.8 4.6-6 3.9-6c-.7-.1-1.2 0-1.5.6-.4.4-.5 1-.5 1.9Zm0 0"/>  <path id="c" d="M7-7v7H5.8v-6H2.3v6H1v-7Zm0 0"/>  <path id="b" d="M3.8-7c.7 0 1.4 0 1.7.4.5.5.7 1.1.7 1.9V0h-.8l-.2-1-1.1 1H2.8c-.6.1-1.2 0-1.6-.4C.8-.7.6-1.2.6-1.9s.3-1.3.8-1.6C2-4 2.8-4.1 4-4.2h1.1v-.4c0-.6-.1-1-.3-1.2-.3-.2-.8-.4-1.2-.4l-.9.2-1.1.4-.2-.9A5.2 5.2 0 0 1 3.8-7ZM5-3.5h-.9c-.9.1-1.5.3-1.8.5-.4.3-.5.6-.5 1 0 .6.1.9.2 1l1.1.1c.5.1.9-.1 1.4-.4.5-.3.6-.7.6-1.5Zm.1.1"/>  <path id="a" d="M6.8-7.1c0 .6-.3 1.1-.8 1.5-.3.4-.8.6-1.5.6.8.4 1.5.6 1.8 1 .4.3.7.8.7 1.4 0 .8-.4 1.5-1 2S4.4 0 3.2 0H1.7L.6-.5v-.9a7 7 0 0 0 1.2.4l1.4.2C4-.8 4.6-1 5-1.3c.5-.3.7-.8.7-1.3 0-.6-.2-1-.7-1.4-.5-.2-1.2-.3-2.1-.3H1.5v-1h1.3c1 0 1.6-.1 2-.5.5-.2.7-.7.7-1.2s-.1-.8-.5-1c-.3-.4-.8-.6-1.3-.6-.7.1-1.1.2-1.5.4l-1.1.5-.6-.8L2-9a5.4 5.4 0 0 1 1.7-.4c1 0 1.7.2 2.3.7.5.4.8.9.8 1.5Zm0 0"/>  <path d="M1.2 0v-9.3h5.4V0ZM2-.7h3.9v-8H2Zm-.1 0"/> </defs> <image xlink:href="svg/9/6_8.jpg" width="497" height="279"/> <path d="M253.1 39c0 .8-.1 1.3-.6 1.7-.4.2-1 .5-1.5.6.7.1 1.3.4 1.7.8.4.4.6.8.6 1.5 0 .8-.3 1.4-1 2-.5.4-1.4.6-2.6.6H248c-.3 0-.7-.2-1-.4v-1a7 7 0 0 0 1.2.3l1.4.3c.8 0 1.4-.2 1.9-.5.4-.3.5-.9.5-1.3 0-.6-.2-1-.7-1.3-.5-.3-1.2-.4-2-.4h-1.5v-1h1.4c.8 0 1.6-.2 2-.5.5-.3.8-.7.8-1.2s-.3-.8-.6-1c-.4-.4-.8-.6-1.4-.6-.5.1-1 .2-1.4.4l-1.1.5-.6-.8c.4-.2.8-.5 1.3-.6a5.4 5.4 0 0 1 1.8-.3c1 0 1.8.2 2.3.6.7.6.8 1 .8 1.7zm4.7.1c.8 0 1.4.2 1.8.6.5.3.7 1 .7 1.7v4.8h-.9l-.2-1c-.3.4-.7.7-1 .8-.3.2-.8.3-1.4.3-.6 0-1.1-.2-1.6-.5-.4-.3-.6-.8-.6-1.5s.4-1.3.8-1.8c.6-.2 1.4-.4 2.6-.5h1v-.4c.1-.6.1-1-.2-1.2-.3-.4-.6-.4-1.1-.4-.4 0-.7 0-1 .2-.4 0-.7.2-1 .4l-.3-.9a5.2 5.2 0 0 1 2.4-.6zm1.2 3.7h-.9c-.9 0-1.5.2-1.8.4-.3.3-.5.6-.5 1 0 .6.1.8.4 1.1h.8c.7.1 1-.1 1.5-.4.5-.3.6-.8.6-1.5zM268.3 39.2v7h-1.1v-6h-3.6v6h-1.2v-7zm8.3 3.5c0 1.1-.3 2-.9 2.7-.6.6-1.4 1-2.4 1a3.2 3.2 0 0 1-1.6-.6 3 3 0 0 1-1.2-1.1c-.2-.7-.4-1.2-.4-2 0-1.2.3-2 .9-2.7.6-.6 1.4-1 2.4-1 .6 0 1.2.3 1.6.6a3 3 0 0 1 1.2 1.1c.2.6.4 1.3.4 2zm-5.3 0c0 .8.2 1.5.5 2 .3.3.8.7 1.6.7.6 0 1.2-.4 1.5-.7.3-.5.5-1.2.5-2s-.2-1.5-.4-2c-.4-.3-.9-.7-1.7-.7-.7 0-1.2.3-1.5.8-.3.3-.5 1-.5 1.8zm10.4-3.7c.9 0 1.6.5 2 1 .7.6 1 1.5 1 2.7-.1 1.2-.4 2-.9 2.7-.6.6-1.2 1-2.1 1-.5-.1-1-.3-1.3-.4a2.7 2.7 0 0 1-.9-.7v4h-1.1v-10h1v.8h.2c.1-.2.4-.5.8-.7.3-.2.6-.3 1.3-.3zm-.2 1c-.7 0-1.2.3-1.5.7-.3.3-.4 1-.5 1.8v.2c0 .9.2 1.5.5 2 .2.3.8.7 1.5.7.5 0 .8-.1 1-.4.4-.2.5-.5.8-1l.1-1.2c0-.9-.2-1.6-.5-2.1-.3-.3-.8-.7-1.4-.7zm6 6.2h-1.1v-7h1.1zm10.6-7-2.9 3.4 3.2 3.6H297l-3-3.5v3.5h-1v-3.5l-3 3.5h-1.4l3.1-3.6-2.7-3.4h1.2l2.8 3.4v-3.4h1v3.4l3-3.4zm9.8 0-3 3.4 3.3 3.6h-1.4l-3-3.5v3.5h-1v-3.5l-3.2 3.5h-1.2l3.1-3.6-2.8-3.4h1.2l2.8 3.4v-3.4h1v3.4l3.1-3.4zm1.8 7h-1.4l2-3a3 3 0 0 1-.7-.2 1.8 1.8 0 0 1-.7-.7l-.2-1c0-.7.3-1.3.7-1.5.4-.4 1-.7 1.8-.7h3v7.1h-.9v-2.8h-1.8zm.1-5c0 .6.2.8.5 1.1.3.1.7.2 1.2.2h1.7v-2.3h-2c-.3 0-.7 0-.9.3-.4.2-.5.5-.5.8zm0 .1" style="fill:none;stroke:#fff;stroke-width:3;stroke-linecap:butt;stroke-linejoin:round;stroke-miterlimit:10;stroke-opacity:.6" transform="rotate(  340 294.452 56.9822) translate(13.375105,13.793077)"/> <g style="fill:#212121;fill-opacity:1" transform=" rotate(  340 294.452 56.9822) ">  <use xlink:href="#a" x="259.7" y="60"/>  <use xlink:href="#b" x="267.4" y="60"/>  <use xlink:href="#c" x="274.7" y="60"/>  <use xlink:href="#d" x="282.8" y="60"/>  <use xlink:href="#e" x="290.7" y="60"/>  <use xlink:href="#f" x="298.7" y="60"/>  <use xlink:href="#g" x="302" y="60"/>  <use xlink:href="#g" x="311.8" y="60"/>  <use xlink:href="#h" x="321.5" y="60"/> </g> <path d="M120.6 127.7h-.9v-3.3h-3.6v3.3H115v-7.1h1.1v3h3.6v-3h1zm2.7 0h-.9v-5.3h1zm4.9-5.3h1l-2.3 2.6 2.4 2.7h-1L126 125v2.7h-1v-5.3h1v2.6zm6.6 2.6c0 1-.3 1.6-.8 2.1-.4.5-1 .7-1.7.7-.5 0-1 0-1.3-.3-.4-.2-.7-.5-1-1 0-.3-.2-.8-.2-1.5 0-.8.2-1.5.7-2 .4-.5 1-.7 1.8-.7.5 0 .9 0 1.3.3.3.2.6.5.8 1 .3.4.4.8.4 1.4zm-4 0c-.1.7-.1 1.2.2 1.6.3.3.7.4 1.3.4.5.1 1 0 1.2-.4.2-.4.4-1 .4-1.6 0-.6-.2-1-.4-1.4-.3-.4-.7-.6-1.2-.6-.6 0-1 .2-1.3.6-.2.3-.3.8-.3 1.4zm9.9-2.6v5.3h-.9v-4.6H137v4.6h-.8v-5.3Zm6.3 2.6c0 1-.1 1.6-.5 2.1-.6.5-1.1.7-1.9.7-.6 0-1 0-1.3-.3-.4-.2-.7-.5-.9-1-.2-.3-.3-.8-.3-1.5 0-.8.2-1.5.7-2 .4-.5 1-.7 1.8-.7.5 0 .9 0 1.3.3.3.2.6.5.8 1 .3.4.4.8.4 1.4zm-4 0c0 .7.1 1.2.4 1.6.2.3.6.4 1.2.4.4.1 1 0 1.2-.4.2-.4.2-1 .2-1.6.1-.6.1-1-.2-1.4-.3-.4-.8-.6-1.2-.6-.6 0-1 .2-1.2.6-.4.3-.4.8-.4 1.4zm9.5 2.7h-.9v-4.6h-1.5l-.4 2.7-.7 1.5c-.2.3-.5.5-1 .5h-.3v-.8h.3c.3.1.6-.3.8-1 .2-.8.4-2 .5-3.6h3.2zm2.6-3.1h1.6c1.3 0 2 .4 2 1.4.1.6.1 1-.3 1.3-.5.3-1 .4-1.7.4h-2.5v-5.3h1zm2.9 1.4c0-.2-.2-.4-.4-.5l-1-.2h-1.5v1.7h1.5c.4 0 .7 0 1-.2.1-.1.2-.3.2-.7zm0 .1" style="fill:none;stroke:#fff;stroke-width:3;stroke-linecap:butt;stroke-linejoin:round;stroke-miterlimit:10;stroke-opacity:.6" transform=" rotate(  340 137.484 124.736) "/> <g style="fill:#212121;fill-opacity:1" transform=" rotate(  340 137.484 124.736) ">  <use xlink:href="#i" x="114.2" y="127.7"/>  <use xlink:href="#j" x="121.6" y="127.7"/>  <use xlink:href="#k" x="124.2" y="127.7"/>  <use xlink:href="#l" x="129.3" y="127.7"/>  <use xlink:href="#m" x="135.3" y="127.7"/>  <use xlink:href="#l" x="141.5" y="127.7"/>  <use xlink:href="#n" x="147.6" y="127.7"/>  <use xlink:href="#o" x="153.4" y="127.7"/> </g> <path d="m18.5 222.6 1.8-8.5h1.1l-.9 4.1 4-4.1H26l-4.4 4.2 2.7 4.3h-1.2l-2.6-4.2-.9 4.2zm8.5.2c-.3 0-.7-.2-1.1-.6-.4-.4-.5-1-.5-1.7 0-.5 0-1.1.2-1.7.1-.5.4-1 .6-1.4l1.1-1c.3-.2.7-.3 1.2-.3.5-.1.8.1 1 .3.3.2.5.6.6.8l.6-1h.7l-1.4 6.4h-.8l.1-1.2-1 1a2 2 0 0 1-1.2.4zm.5-1c.2.1.5.1.9-.2l.6-.9.6-1.3.1-.6v-.5c.1-.5.1-.7-.1-1-.3-.2-.6-.3-1-.3-.3 0-.6 0-.9.3l-.6.7-.5 1.2-.2 1.4c0 .4.1.7.3 1 .2.1.4.2.7.2zM31.2 222.6l2.7-3.3-1.3-3.1h1l1 2.4 1.9-2.4h1.2l-2.7 3.2 1.5 3.2h-1l-1.1-2.5-2 2.5zm8.9.1c-.7 0-1.3-.2-1.7-.6-.5-.5-.7-1.1-.7-1.8l.3-1.5.5-1.3c.3-.5.6-.8 1-1 .5-.3 1-.5 1.5-.5.7.1 1.3.3 1.7.8.4.4.6 1 .6 1.8 0 .4 0 1-.2 1.4-.1.5-.3 1-.6 1.4-.2.4-.5.6-1 1-.4.2-.8.3-1.4.3zm0-.9c.6 0 .9 0 1.2-.3.2-.3.5-.7.7-1.2a5.3 5.3 0 0 0 .3-1.8 2 2 0 0 0-.3-.7c.1-.3 0-.4-.3-.6l-.7-.2c-.5 0-1 0-1.2.4-.3.3-.6.7-.7 1.2-.2.5-.3 1-.3 1.7 0 .5.1.9.4 1.1.2.3.5.4 1 .4zM47 222.8c-.9 0-1.5-.4-2-.8-.2-.5-.4-1-.4-2a5 5 0 0 1 .3-2c.1-.4.6-1 1.1-1.3.6-.4 1-.6 1.9-.6.7-.1 1.1.1 1.6.4.4.3.5.7.5 1.2s-.1.9-.4 1.1c-.3.3-.7.5-1.2.6.4 0 .7.2.9.4.2.2.3.6.3 1 0 .2 0 .6-.2.9l-.8.8-1.6.2zm-1.3-3.8H47l1-.1.7-.4c.3-.2.3-.4.3-.7 0-.2 0-.4-.3-.6l-.7-.2c-.7 0-1 0-1.5.5-.5.3-.7.8-.8 1.5zm1.3 2.9c.6 0 1-.1 1.2-.4.3-.2.4-.4.4-.7 0-.5-.1-.6-.4-.8-.2-.1-.6-.2-1.1-.2h-1.5v.3c0 .6 0 1 .4 1.4.3.2.6.4 1 .4zM53.4 222.8c-.7 0-1.4-.2-1.8-.6-.4-.4-.6-1-.6-1.9 0-.5 0-1 .2-1.6l.8-1.4a3 3 0 0 1 .9-.9l1.4-.3h.9l.7.4-.3.8-.5-.3h-.7c-.5 0-.9 0-1.2.4a3 3 0 0 0-.9 1.3l-.2 1.6c-.1.5-.1.9.3 1.2.3.2.6.4 1 .4l1-.1a9 9 0 0 0 .6-.3v.9l-.7.2-1 .2zm5.3 0c-.6 0-1.2-.2-1.5-.5-.4-.3-.6-.8-.6-1.4v-.6l.1-.5.8-3.6h1L58 219l.6-.1h.7c.8-.1 1.3.1 1.7.3.2.5.4.9.4 1.3 0 .5-.1.8-.4 1.1-.1.4-.4.6-.8.9-.4.1-.9.3-1.5.3zm.1-1c.6.1 1 .1 1.2-.2.2-.3.3-.6.3-1 0-.2 0-.5-.3-.6 0-.2-.5-.3-1-.3h-.5l-.7.1-.1.6v.4c-.1.3-.1.6.1.8.2.2.6.3 1.1.3zM62.5 222.6l1.3-6.4h1l-.6 3 3-2.9h1.3l-3.2 3.1 2.2 3.2h-1.3l-2-3.2-.7 3.2zm8.1.2c-.6 0-1.3-.4-1.6-.8-.5-.3-.7-1-.7-1.7 0-.5 0-1 .2-1.5.1-.5.4-1 .6-1.4l1-1c.6-.1.9-.2 1.5-.2.5-.2.9 0 1.3.3.3.2.4.5.4 1s-.1 1-.3 1.3c-.3.3-.7.5-1.3.7-.5.2-1.2.3-2.1.3h-.2v.5c-.1.5-.1.9.2 1.2.4.2.7.4 1.2.4.3 0 .6 0 .9-.2l.9-.3v.9l-1 .3-.9.2zm-1-3.8 1.4-.1 1-.4c.2-.2.3-.5.3-.8 0-.3 0-.4-.2-.5-.2-.2-.4-.2-.7-.2-.3 0-.7 0-1 .5-.4.3-.8.8-1 1.5zm-58 18.3c-.9 0-1.5-.3-1.9-.7-.4-.6-.6-1.2-.6-2a5 5 0 0 1 .4-2c.3-.6.7-1 1.2-1.4.5-.4 1-.6 1.8-.6.7 0 1.2.1 1.6.4.4.3.6.7.6 1.2s-.2.9-.5 1.2l-1.1.5.8.5c.2.2.3.5.3.9 0 .3 0 .6-.2.9-.2.3-.4.6-.8.8-.4.2-1 .3-1.6.3zm-1.3-3.8h1.3l1-.1c.3 0 .4-.2.7-.4.2 0 .3-.4.3-.6 0-.4 0-.5-.2-.7l-.9-.2c-.5 0-1 .2-1.4.5-.4.4-.7 1-.8 1.5zm1.4 2.9c.5 0 1-.1 1.3-.3 0-.3.2-.5.2-.8 0-.3-.1-.5-.2-.7-.4-.2-.8-.2-1.3-.2h-1.5v.3c0 .6.1 1 .4 1.3.3.3.6.4 1.1.4zm6.3.8c-.8 0-1.3-.2-1.8-.6-.4-.6-.6-1-.6-1.8 0-.5 0-1 .2-1.5.1-.5.3-1 .6-1.3l1-1c.4-.2.9-.4 1.4-.4.8 0 1.3.4 1.8.7.4.4.6 1 .6 1.8 0 .5 0 1-.2 1.5-.1.4-.3 1-.6 1.3l-1 1.1c-.4 0-.9.2-1.4.2zm0-.8c.4 0 .8-.2 1-.4.5-.3.8-.7.9-1.2a5.3 5.3 0 0 0 .2-1.8 2 2 0 0 0-.1-.7c0-.3-.2-.4-.4-.6l-.8-.2c-.4 0-.8.2-1.1.5-.4.3-.7.7-.8 1.2-.2.5-.2 1-.2 1.6 0 .5 0 .9.3 1.2.3.2.6.4 1 .4zm6.5.9c-.7 0-1.3-.3-1.6-.7-.4-.4-.6-1-.6-1.6l.2-1.4c.2-.6.3-1 .6-1.3l1-1c.2-.1.6-.3 1.1-.3s1 .1 1.2.3a2 2 0 0 1 .6.7v-.3c0-1 0-1.7-.2-2.2-.4-.5-.8-.7-1.3-.7a3 3 0 0 0-.7 0l-.6.4-.3-.9a3 3 0 0 1 .8-.3 4 4 0 0 1 .9 0c.9 0 1.4.1 2 .8.2.7.4 1.6.4 2.8v1.5l-.4 1.6-.7 1.3-1 1-1.5.2zm0-1c.5.1.9.1 1.2-.3a4 4 0 0 0 .7-1.3l.5-1.5a2.3 2.3 0 0 0-.6-1c-.2-.3-.5-.4-.9-.4-.3 0-.7.2-1 .4-.3.3-.4.8-.7 1.2-.2.4-.3 1-.3 1.5 0 .4.1.8.3 1.1.2.3.5.5.9.5zm7 .9c-.7 0-1.3-.2-1.7-.6-.4-.6-.8-1-.8-1.8l.3-1.5.7-1.3 1-1c.5-.2 1-.4 1.5-.4s1.2.4 1.5.7c.5.4.7 1 .7 1.8.1.5.1 1-.2 1.5 0 .4-.3 1-.5 1.3-.3.4-.7.7-1 1.1-.5 0-.9.2-1.5.2zm0-.8c.5 0 .9-.2 1.2-.4.3-.3.5-.7.7-1.2a5.3 5.3 0 0 0 .3-1.8 2 2 0 0 0-.2-.7c0-.3-.2-.4-.4-.6l-.7-.2c-.5 0-.9.2-1.2.5-.2.3-.6.7-.7 1.2-.2.5-.3 1-.3 1.6 0 .5.1.9.4 1.2.2.2.6.4 1 .4zm6.8.9c-.7 0-1.3-.3-1.7-.6-.6-.4-.7-1-.7-1.8 0-.6 0-1.1.2-1.7.2-.5.4-1 .7-1.2a3 3 0 0 1 1-1.1l1.6-.3h.6l.9.4-.3.8-.6-.2-.7-.1c-.5 0-.9.2-1.3.5a3 3 0 0 0-.7 1.2c-.3.5-.3 1-.3 1.7 0 .4 0 .8.4 1.1.2.3.5.4 1 .4l.8-.1a9 9 0 0 0 .7-.3v.9l-.7.3h-1zm2-.1 2.8-3.4-1.4-3h1l1.1 2.2 2-2.3h1l-2.6 3.3 1.5 3.2h-1l-1.3-2.5-1.9 2.5zm9 0c-.8 0-1.3-.2-1.8-.6-.4-.6-.5-1-.5-1.8-.1-.5-.1-1 0-1.5.2-.5.4-1 .7-1.3l1-1c.4-.2.9-.4 1.4-.4.9 0 1.3.4 1.9.7.3.4.5 1 .5 1.8 0 .5 0 1-.2 1.5-.1.4-.3 1-.6 1.3l-1 1.1c-.4 0-.9.2-1.4.2zm0-.8c.4 0 .8-.2 1-.4.5-.3.7-.7.9-1.2a5.3 5.3 0 0 0 .2-1.8 2 2 0 0 0-.1-.7c0-.3-.2-.4-.4-.6l-.9-.2c-.3 0-.7.2-1 .5-.4.3-.6.7-.8 1.2-.2.5-.2 1-.2 1.6 0 .5 0 .9.3 1.2.3.2.7.4 1 .4zm6.9.9c-1 0-1.6-.3-2-.7-.4-.6-.6-1.2-.6-2a5 5 0 0 1 .4-2c.3-.6.7-1 1.2-1.4.5-.4 1.1-.6 1.9-.6.6 0 1.2.1 1.5.4.4.3.6.7.6 1.2s-.1.9-.4 1.2l-1.2.5.8.5c.3.2.4.5.4.9l-.3.9c-.1.3-.4.6-.8.8-.4.2-.9.3-1.5.3zm-1.4-3.8h1.3l1-.1c.3 0 .6-.2.9-.4 0 0 .2-.4.2-.6 0-.4-.2-.5-.3-.7l-.9-.2c-.5 0-1 .2-1.4.5-.4.4-.6 1-.8 1.5zm1.5 2.9c.5 0 .9-.1 1-.3.4-.3.6-.5.6-.8-.1-.3-.3-.5-.5-.7-.4-.2-.6-.2-1.2-.2h-1.5v.3c0 .6.1 1 .4 1.3.3.3.7.4 1.2.4zm5.5.9c-.5 0-.8-.3-1.1-.4-.3-.3-.5-.7-.5-1.2v-.5l.3-.6.7-3.9h1l-.7 4a4 4 0 0 0-.2 1c0 .1 0 .3.2.5l.5.2c.4 0 .7 0 1-.3.3-.1.6-.5.9-1 .3-.2.5-.8.6-1.5l.6-2.9h1l-1.2 6.5h-1l.2-1.2H64l-.5.6-.8.4a2 2 0 0 1-.9.3zm13 2.1.5-2.2c-.3 0-.5-.2-.6-.2l-.2-1-.5.6-.7.4a2 2 0 0 1-.9.3c-.4 0-.7-.1-1-.4-.2-.3-.4-.6-.4-1l-.7.5-.7.7a2 2 0 0 1-.9.2c-.5 0-.9-.3-1.1-.4-.3-.3-.4-.7-.4-1.2v-.5l.1-.6.8-3.9h1.1l-.8 4-.1.6V236.2l.7.2 1-.4.7-.8.6-1.6.6-2.9h1l-.8 4a4 4 0 0 0-.1.9v.6l.7.2.9-.4c.3 0 .6-.4.8-.9.3-.2.6-.8.6-1.5l.6-2.9h1l-.8 4.6v.7c-.2.3-.2.4.2.4h.5l-.5 2.9zm5.3-2.1c-.7 0-1.3-.3-1.7-.7-.4-.4-.6-1-.6-1.6 0-.7 0-1.1.2-1.7.2-.5.4-1 .7-1.3.2-.4.6-.8 1-1 .3-.3.8-.4 1.3-.4.6 0 1 .1 1.4.4.3.3.4.6.4 1.1 0 .4 0 .9-.3 1.1-.3.4-.7.8-1.3.9-.5.2-1.2.3-2.1.3h-.2v.4c0 .5 0 .9.3 1.2.3.3.6.4 1.1.4l.9-.1.8-.4v1l-1 .2h-.8zm-1-3.8 1.4-.1 1-.4c.1-.2.2-.5.2-.8.1-.2.1-.4-.1-.5l-.6-.2c-.4 0-.8.2-1.2.5-.3.4-.6 1-.7 1.5zm-.1 0" style="fill:none;stroke:#fff;stroke-width:2;stroke-linecap:butt;stroke-linejoin:round;stroke-miterlimit:10;stroke-opacity:.6" transform="rotate(  340 63.0193 193.039) translate(16.837698,-33.848526)"/> <g style="fill:#4c7fb3;fill-opacity:1" transform=" rotate(  340 63.0193 193.039) ">  <use xlink:href="#p" x="34.9" y="188.8"/>  <use xlink:href="#q" x="41.6" y="188.8"/>  <use xlink:href="#r" x="48.4" y="188.8"/>  <use xlink:href="#s" x="54" y="188.8"/>  <use xlink:href="#t" x="60.7" y="188.8"/>  <use xlink:href="#u" x="67.2" y="188.8"/>  <use xlink:href="#v" x="72.7" y="188.8"/>  <use xlink:href="#w" x="79" y="188.8"/>  <use xlink:href="#x" x="84.5" y="188.8"/>  <use xlink:href="#t" x="25.4" y="203.3"/>  <use xlink:href="#s" x="31.9" y="203.3"/>  <use xlink:href="#y" x="38.6" y="203.3"/>  <use xlink:href="#s" x="45.4" y="203.3"/>  <use xlink:href="#u" x="52.2" y="203.3"/>  <use xlink:href="#r" x="57.6" y="203.3"/>  <use xlink:href="#s" x="63.1" y="203.3"/>  <use xlink:href="#t" x="69.9" y="203.3"/>  <use xlink:href="#z" x="76.4" y="203.3"/>  <use xlink:href="#A" x="83.3" y="203.3"/>  <use xlink:href="#x" x="94.1" y="203.3"/> </g></svg>