<svg xmlns="http://www.w3.org/2000/svg" xmlns:xlink="http://www.w3.org/1999/xlink" viewBox="0 0 497 279"> <defs overflow="visible" style="stroke:none">  <path id="p" d="M2.4 0c-.6 0-1 0-1.4-.3C.6-.8.5-1.3.5-2c0-.3 0-.8.2-1.2 0-.4.3-.8.5-1.1.2-.4.5-.7.8-.8a2 2 0 0 1 1.2-.4c.5 0 .8.2 1.1.5.3 0 .4.4.4.8 0 .3-.1.7-.3 1-.4.2-.6.4-1 .6-.6.2-1.2.3-1.9.3h-.1v.3c0 .5 0 .8.3 1 .2.3.5.4.9.4l.7-.1A5 5 0 0 0 4-1v.7a6 6 0 0 1-.7.3h-.9Zm-.9-3 1.3-.1.7-.4c.2-.1.3-.4.3-.5l-.1-.6-.7-.1c-.2 0-.5.1-.9.4L1.6-3Zm0 0"/>  <path id="o" d="m.3 0 1.6-7.6h.9l-.8 3c.1.6 0 1-.2 1.3l-.1.5 2.5-2.6h1L3-3l1.4 3h-1L2.3-2.5l-.7.5-.4 2Zm0 0"/>  <path id="n" d="M.4 0 2-7.1h1L1.4-.8h2.8L4 0Zm0 0"/>  <path id="m" d="m.3 0 1.6-7.6h.9L1.2 0Zm0 0"/>  <path id="l" d="M2 0c-.6 0-.9 0-1.2-.3C.6-.7.5-1 .5-1.7c0-.5 0-1 .2-1.5l.5-1.1c.2-.4.5-.7.8-.9a2 2 0 0 1 1.1-.3c.4 0 .6.1.9.3l.5.7.3-.9h.7L4.4 0h-.7l.1-1c-.3.3-.5.6-.9.8-.3.2-.6.2-.9.2Zm.1-.5c.4-.1.6-.2.9-.5l.6-.6a4 4 0 0 0 .4-1 3 3 0 0 0 .1-.7 4 4 0 0 0 0-.4c.1-.3.1-.5-.1-.7-.3-.2-.5-.3-.8-.3-.3 0-.5 0-.7.2a2 2 0 0 0-.6.7l-.4 1-.1 1.1c0 .4 0 .6.2.8.1.2.3.3.6.3Zm.1-.1"/>  <path id="k" d="M.4 0 2-7.1h1.6c.9 0 1.5.1 2 .7.5.4.8 1.1.8 2.1a5 5 0 0 1-.5 2.2A3.7 3.7 0 0 1 4.5-.5C3.8-.2 3 0 2.2 0Zm1-.8h.9C3-.8 3.5-.9 4-1.2a3 3 0 0 0 1-1.3 4.2 4.2 0 0 0 .4-1.8c0-.7-.2-1.3-.4-1.6-.5-.3-1-.5-1.5-.5h-.8Zm.1 0"/>  <path d="M1 0v-7.1h4V0Zm.4-.5h3.1v-6.1h-3Zm.1 0"/>  <path id="j" d="M2.2.1c-.4 0-.8 0-1-.3-.5-.2-.6-.6-.6-1l.2-1.1.7-3.2h-1l.1-.6 1.1-.5.8-1.3H3l-.3 1.5h1.8l-.3.8H2.6l-.8 3.5V-1l.7.3h.3l.4-.3v.9l-.4.1-.6.1Zm0 0"/>  <path id="i" d="M3 .1C2.1.1 1.5 0 1.1-.5.8-1 .6-1.5.6-2.3c0-.5 0-1 .2-1.5.1-.5.4-1 .6-1.4l1-1c.5-.2 1-.3 1.5-.3s.9 0 1.3.3c.3.3.4.7.4 1.2 0 .4-.1.8-.4 1-.2.5-.6.8-1.2 1l-2 .1h-.3v.6c-.1.3-.1.8.3 1.1.2.3.6.4 1 .4h1l.8-.5v1c-.3 0-.6.2-.8.3L3 .1ZM1.7-3.6H2c.4 0 1 0 1.2-.2.4 0 .8-.2 1-.4.3-.2.4-.4.4-.8 0-.2 0-.3-.2-.5l-.7-.2c-.4 0-.7.2-1 .7-.5.2-.7.7-1 1.4Zm.1 0"/>  <path id="h" d="m.3 0 2-9.1h1L1.3 0Zm0 0"/>  <path id="g" d="m.3 0 1.4-6.5h1l-.3 1.2.6-.6.7-.5a2 2 0 0 1 1-.2c.5 0 .9.2 1.2.4.3.3.4.7.4 1.2v.6l-.1.5L5.3 0H4.2l.9-4v-1c.1-.4-.1-.6-.6-.6s-.7 0-1 .3c-.3.1-.6.3-.9.8L2-2.8 1.4 0Zm0 0"/>  <path id="f" d="M-.2 0v-.6L1-.8l1.4-7-1-.2.3-.6h2.9l-.1.6-1 .3L2-.8l.9.2-.1.6Zm0 0"/>  <path id="e" d="M2.3.1c-.5 0-1-.1-1.2-.5-.4-.4-.5-1-.5-1.7 0-.6 0-1.1.2-1.7a5 5 0 0 1 .6-1.4l1-1c.4-.2.8-.3 1.3-.3s.8 0 1 .3l.8.8v-.8l.2-.8.3-2.1h1.1L5.3 0h-.9l.1-1.2-1 1a2 2 0 0 1-1.2.2Zm.4-.8.8-.3.7-.8.6-1.2.2-1.4c0-.3 0-.6-.3-.9-.2-.2-.5-.4-.9-.4-.3 0-.6.1-.9.4-.2.2-.5.3-.6.8l-.5 1.1L1.7-2c0 .8.3 1.3 1 1.3Zm0-.1"/>  <path id="d" d="m.3 0 1.4-6.4h.9l-.2 1.2h.1A9 9 0 0 1 3-6l.6-.4.9-.1H5v1h-.7c-.3-.1-.8-.1-1 .2-.5.4-.7.7-.9 1.1-.2.4-.4.8-.4 1.3L1.4 0Zm0 0"/>  <path id="c" d="M2.6-7.5 2-7.6v-.5c0-.2 0-.3.2-.5.1-.2.3-.2.5-.2.3 0 .5.2.5.5s0 .5-.2.6l-.4.2ZM.3 0l1.4-6.4h1L1.5 0Zm0 0"/>  <path id="b" d="M2.3.1c-.5 0-1-.1-1.2-.5-.4-.4-.5-1-.5-1.7 0-.6 0-1.1.2-1.7l.7-1.4 1-1c.3-.2.8-.3 1.2-.3.5 0 .8 0 1 .3l.8.8.3-1h.8L5.2 0h-.8l.1-1.2-1 1a2 2 0 0 1-1.2.2Zm.4-.8c.3-.1.5-.3.8-.4.3-.2.6-.5.8-.9l.5-1.2.2-.6v-.6c0-.3-.1-.6-.3-.9-.2-.2-.5-.4-.9-.4-.3 0-.6.1-.8.3l-.7.8-.5 1.2L1.7-2c0 .4 0 .7.2 1 .2 0 .4.2.8.2Zm0-.1"/>  <path id="a" d="m.5 0 1.8-8.6h2.2c.8 0 1.5.2 1.9.6.4.2.6.7.6 1.4 0 .6-.1 1-.5 1.4-.3.4-.8.6-1.4.7a2 2 0 0 1 1 .8c.3.2.4.6.4 1 0 .7-.1 1.1-.4 1.5-.3.4-.7.7-1.2.9-.5.2-.9.3-1.7.3Zm2.1-5H5l.7-.7c.2-.1.3-.3.3-.8 0-.3-.2-.5-.4-.8-.2-.2-.6-.3-1.2-.3H3.2Zm-.9 4h1.7c.5 0 1.1 0 1.4-.3.4-.4.6-.7.6-1.4 0-.3-.1-.7-.4-1-.2-.1-.7-.3-1.3-.3H2.5Zm.1 0"/>  <path d="M1.1 0v-8.6h5V0Zm.6-.6h3.8V-8H1.7Zm0 0"/> </defs> <image xlink:href="svg/9/70_24.jpg" width="497" height="279"/> <path d="m441.1 92.1 1.9-8.5h2.2c.8 0 1.4.1 1.8.4.5.3.7.8.7 1.5 0 .6-.2 1-.5 1.5-.4.3-.8.6-1.4.7a2 2 0 0 1 1 .6c.2.3.4.7.4 1.2s-.2 1-.5 1.4c-.2.4-.6.7-1.1 1.1h-1.7zm2.2-4.9h1.4c.3 0 .7 0 1-.2.1 0 .4-.2.5-.5.3-.2.4-.5.4-.8 0-.4-.1-.7-.3-.9-.3-.2-.7-.3-1.3-.3h-1.2zm-.9 4h1.6c.6 0 1.1-.1 1.5-.4.4-.3.5-.8.5-1.3s-.1-.7-.3-1c-.3-.3-.7-.4-1.3-.4h-1.3zm7.8 1.1c-.5 0-1-.3-1.3-.6-.3-.4-.5-1-.5-1.7l.3-1.7c.1-.5.3-1 .6-1.3l1-1c.4-.3.8-.4 1.3-.4.4 0 .8.1 1 .3.4.2.5.5.6.8l.6-1h.7L453 92h-.8l.2-1-1 1a2 2 0 0 1-1.2.2zm.3-1c.3.1.6.1.9-.3l.8-.8.5-1.3.1-.6v-.5c0-.5 0-.8-.3-1-.2-.2-.4-.3-.8-.3-.3 0-.6 0-.9.3-.2.2-.5.4-.7.8l-.4 1.1-.2 1.4c0 .4.1.7.3.9.2.2.4.3.7.3zm6.7-6.7-.4-.1-.1-.5.1-.5.6-.2c.3 0 .5.2.5.5s.1.5-.2.6c-.1.2-.3.2-.5.2zm-2.2 7.5 1.4-6.4h1l-1.3 6.3zm3.1 0 1.4-6.4h.8v1.2a9 9 0 0 1 .5-.7l.6-.4c.3-.2.6-.2.8-.2h.8l-.3 1.1h-.6c-.4-.2-.8-.2-1.1.1-.4.4-.7.7-.9 1.2l-.3 1.2-.6 3zm6.5.2c-.5 0-1-.3-1.2-.6-.4-.4-.5-1-.5-1.7 0-.5 0-1 .1-1.6a5 5 0 0 1 .7-1.5l1-.9c.4-.2.9-.3 1.3-.3.5-.1.8 0 1 .2l.8.8v-.8l.2-.8.4-2.1h1l-1.8 9.1h-.9l.1-1.1-1 1a2 2 0 0 1-1.2.2zm.4-1c.2.1.5.1.8-.1l.7-.9c.3-.4.5-.7.6-1.3l.2-1.2c0-.5 0-.8-.3-1-.2-.2-.5-.3-.9-.3-.3 0-.6 0-.9.3l-.6.8-.6 1.2V90c0 .9.3 1.4 1 1.4zM472.1 92.1l.1-.6 1.1-.2 1.5-7h-1l.2-.7h3l-.2.6-1 .2-1.5 6.9 1 .2-.3.6zm4.4 0 1.5-6.4h1l-.3 1.1.6-.5.7-.6a2 2 0 0 1 1-.2c.3 0 .7.2 1 .5.4.3.6.6.6 1.2v.5l-.2.5-.9 4h-.9l.7-4.2.1-.4v-.3c.1-.5-.1-.8-.7-.8-.3 0-.6 0-.9.3l-.9.9c-.3.3-.5 1-.6 1.7l-.6 2.6Zm7 0 2-9.1h1l-2 9.1zm5.7.2c-.7 0-1.2-.3-1.7-.8-.5-.3-.6-.9-.6-1.7 0-.5 0-1 .1-1.5.2-.5.5-1 .7-1.4l1-.9 1.5-.3c.5-.1.9 0 1.3.3.3.2.4.6.4 1 .1.6-.1 1-.4 1.3-.2.3-.5.5-1.2.7-.5.2-1.2.3-2.1.3h-.2v.5c0 .5 0 .9.2 1.2.3.2.8.4 1.2.4.3 0 .6 0 .9-.2l.9-.2v.8l-1 .2-.9.3zm-1-3.8 1.3-.1 1-.4c.3-.2.5-.5.5-.8-.1-.3-.1-.4-.3-.5-.2-.2-.4-.2-.7-.2-.3 0-.7.1-1 .5-.5.3-.8.8-1 1.5zM494.5 92.3c-.4 0-.8-.3-1-.5-.5-.1-.5-.4-.5-.8v-1.2l.9-3.2h-1.1l.2-.6 1-.4.8-1.4h.6l-.4 1.5h1.7l-.2.8h-1.6L494 90v1.2l.8.2h.2l.5-.3v.9l-.4.2h-.6zm0 0" style="fill:none;stroke:#fff;stroke-width:2;stroke-linecap:butt;stroke-linejoin:round;stroke-miterlimit:10;stroke-opacity:.6" transform="rotate(  340 460.047 89.1266) translate(-10.031328)"/> <g style="fill:#4c7fb3;fill-opacity:1" transform=" rotate(  340 460.047 89.1266) ">  <use xlink:href="#a" x="430.6" y="92.1"/>  <use xlink:href="#b" x="437.8" y="92.1"/>  <use xlink:href="#c" x="444.6" y="92.1"/>  <use xlink:href="#d" x="447.7" y="92.1"/>  <use xlink:href="#e" x="452.3" y="92.1"/>  <use xlink:href="#glyph0-6" x="459.2" y="92.1"/>  <use xlink:href="#f" x="462.3" y="92.1"/>  <use xlink:href="#g" x="466.2" y="92.1"/>  <use xlink:href="#h" x="473.2" y="92.1"/>  <use xlink:href="#i" x="476.3" y="92.1"/>  <use xlink:href="#j" x="482.3" y="92.1"/> </g> <path d="m395 257.6 1.5-7.2h1.7c.9 0 1.5.3 2 .7.5.5.8 1.2.8 2.2a5 5 0 0 1-.5 2.2 3.7 3.7 0 0 1-1.5 1.5c-.6.4-1.3.6-2.2.6zm1-.8h.9c.6 0 1.2-.1 1.7-.5a3 3 0 0 0 1-1.2 4.2 4.2 0 0 0 .4-1.8c0-.8-.2-1.3-.5-1.6-.5-.3-.8-.5-1.5-.5h-.7zm7.2.9c-.4 0-.8-.2-1-.5-.3-.2-.4-.8-.4-1.4l.1-1.4.6-1.2.8-.8a2 2 0 0 1 1-.3c.5 0 .7.1 1.1.3l.2.6.6-.8h.6l-1.2 5.4h-.6l.1-1-1 .8c-.1.2-.5.3-.9.3zm.3-.7c.2 0 .5-.1.7-.3l.8-.7a4 4 0 0 0 .3-1 3 3 0 0 0 .1-.7 4 4 0 0 0 0-.4c0-.3 0-.5-.2-.7-.2-.2-.4-.3-.7-.3-.3 0-.5 0-.7.1a2 2 0 0 0-.6.8l-.4 1-.2 1c0 .5.1.8.4 1 0 .1.2.2.5.2zm3.7.6 1.6-7.6h1l-1.8 7.6zm2.6 0 1.6-7.6h.9l-1.6 7.6zm5.3 0 1.5-7.2h1l-1.5 6.4h2.8l-.2.8zm6.3.1c-.4 0-.7-.2-1-.5-.4-.2-.4-.8-.4-1.4 0-.5 0-1 .2-1.4l.5-1.2.8-.8a2 2 0 0 1 1.1-.3c.4 0 .6.1.9.3l.4.6h.1l.3-.8h.7l-1.1 5.4h-.9l.3-1-1 .8c-.2.2-.5.3-.9.3zm.3-.7c.3 0 .5-.1.7-.3l.7-.7a4 4 0 0 0 .4-1 3 3 0 0 0 .1-.7 4 4 0 0 0 0-.4c0-.3 0-.5-.2-.7-.2-.2-.4-.3-.7-.3-.3 0-.5 0-.7.1a2 2 0 0 0-.6.8l-.4 1v1c-.1.5-.1.8 0 1 .2.1.4.2.7.2zm3.7.6 1.6-7.6h1l-.8 3-.2 1.2-.2.6 2.6-2.6h1l-2.3 2.3 1.4 3h-1l-.9-2.3-.9.4-.4 2zm6.9.1c-.6 0-1-.2-1.3-.7-.4-.2-.6-.7-.6-1.3 0-.5 0-.9.2-1.3l.4-1.1c.3-.5.6-.7 1-1a2 2 0 0 1 1-.2c.7 0 1 .1 1.3.4.2.2.3.5.3.9l-.3 1-1 .6c-.5.2-1 .3-1.8.3h-.2v.3c0 .4 0 .8.3 1 .2.2.4.4.9.4.3 0 .5 0 .7-.2a5 5 0 0 0 .8-.3v.8a6 6 0 0 1-.8.3h-.9zm-.9-3.2h1.2l.8-.5c.2-.1.3-.3.3-.6l-.1-.4-.6-.2c-.3 0-.6.2-1 .5l-.5 1.2zm0 0" style="fill:none;stroke:#fff;stroke-width:2;stroke-linecap:butt;stroke-linejoin:round;stroke-miterlimit:10;stroke-opacity:.6" transform="rotate(  340 429.391 222.395) translate(13.793077,-32.183845)"/> <g style="fill:#4c7fb3;fill-opacity:1" transform=" rotate(  340 429.391 222.395) ">  <use xlink:href="#k" x="408.4" y="225.4"/>  <use xlink:href="#l" x="415.1" y="225.4"/>  <use xlink:href="#m" x="420.7" y="225.4"/>  <use xlink:href="#m" x="423.3" y="225.4"/>  <use xlink:href="#glyph1-4" x="425.9" y="225.4"/>  <use xlink:href="#n" x="428.5" y="225.4"/>  <use xlink:href="#l" x="433.3" y="225.4"/>  <use xlink:href="#o" x="439" y="225.4"/>  <use xlink:href="#p" x="443.7" y="225.4"/> </g></svg>