<svg xmlns="http://www.w3.org/2000/svg" xmlns:xlink="http://www.w3.org/1999/xlink" viewBox="0 0 497 279"> <defs overflow="visible" style="stroke:none">  <path id="o" d="m2.8 3.6-1.4-.1-1-.5V1.9l1 .4 1.4.2c.6 0 1-.2 1.5-.5.4-.2.7-.7.7-1.4l.3-.6a21.2 21.2 0 0 1 .2-1.5L4.4-.3C4 0 3.4.2 3 .2c-.7 0-1.3-.3-1.7-.7C1-1 .7-1.7.7-2.5A8 8 0 0 1 1-4.8a6.3 6.3 0 0 1 .8-1.7A4 4 0 0 1 3-7.7a3 3 0 0 1 1.7-.5c.5 0 1 .2 1.3.4l.7 1L7.4-8h.9L6.4.5c-.2 1-.6 1.9-1.2 2.4-.7.5-1.4.7-2.4.7ZM3.3-1c.4 0 .7-.1 1-.3l1.1-1L6-3.8a5.7 5.7 0 0 0 .2-1.7c0-.4 0-.8-.2-1.1-.3-.4-.7-.5-1.2-.5-.4.1-.8.2-1.1.4l-.9 1-.5 1.5c-.3.5-.3 1-.3 1.6 0 1.1.5 1.7 1.3 1.7Zm0 0"/>  <path id="n" d="M2.8.2c-.6 0-1-.2-1.4-.6C1-.7.8-1.2.8-1.8v-.7l.2-.6 1-5h1.4L2.3-3a5 5 0 0 0-.1 1c0 .3 0 .6.2.8.2.2.4.2.8.2.3 0 .7-.1 1.1-.3.4-.2.8-.6 1.1-1.2.3-.5.6-1.2.8-2L6.9-8h1.3L6.5 0h-1l.1-1.5a8 8 0 0 1-.8.8L4-.1c-.3.2-.7.3-1.2.3Zm0 0"/>  <path id="m" d="M.6 0 3-10.7h2.2c2.2 0 3.3.9 3.3 2.7 0 .8-.2 1.4-.5 2-.5.6-1 1-2 1.3L7.6 0H6.2L4.6-4.4H3L1.9 0Zm2.5-5.6h1.2c1 0 1.7-.2 2.2-.6.4-.5.7-1 .7-1.8 0-.5-.2-1-.6-1.2-.3-.2-.8-.3-1.5-.3H4Zm0 0"/>  <path id="l" d="M3.6.2C2.7.2 2-.1 1.5-.7 1-1.2.7-1.9.7-2.9a6.6 6.6 0 0 1 1.1-3.6c.3-.5.8-1 1.3-1.2a3 3 0 0 1 1.6-.5c.8 0 1.4.2 1.8.5.3.3.5.8.5 1.4 0 .5 0 1-.5 1.3-.3.5-.8 1-1.5 1.1-.7.3-1.6.4-2.7.4h-.2v.6c-.1.6.1.9.4 1.4.3.5.8.6 1.4.6.4-.1.7-.1 1-.2l1.2-.5v1.2L4.9 0 3.6.2ZM2.3-4.5 4-4.7c.6-.1 1-.3 1.3-.5.3-.3.5-.6.5-1 0-.3-.1-.5-.3-.6-.2-.2-.5-.3-.8-.3-.5.1-1 .2-1.4.7-.5.4-.8 1-1 1.9Zm0 0"/>  <path id="k" d="M-.7 3.6h-.5l-.5-.2V2.3l.4.2h.5c.3 0 .6-.1.8-.4L.5.8 2-7H.7l.1-.6L2.3-8l.2-.8a5.9 5.9 0 0 1 .6-1.6c.2-.4.5-.7.9-.8.3-.2.7-.3 1.2-.3l.8.1.6.2-.3 1-.5-.1h-.5c-.4-.1-.7-.1-1 .1l-.4 1.4-.3.8h1.8l-.2 1H3.5L1.8 1c-.2.7-.5 1.3-.9 1.8s-.9.8-1.6.8Zm0 0"/>  <path id="j" d="M2.9.2c-.6 0-1.2-.3-1.6-.7C1-1 .7-1.7.7-2.5A8 8 0 0 1 1-4.8a6.4 6.4 0 0 1 .8-1.7c.2-.5.7-1 1.2-1.2a3 3 0 0 1 1.7-.5c.5 0 1 .2 1.3.4l.7 1a150.6 150.6 0 0 0 .5-2l.5-2.6H9L6.5 0h-1l.1-1.5L4.4-.3c-.5.3-1 .5-1.5.5ZM3.3-1c.4 0 .7-.1 1-.3l1-1c.3-.4.5-1 .7-1.5a5.5 5.5 0 0 0 .3-1.7c0-.4-.3-.8-.5-1.1-.1-.4-.5-.5-1.1-.5-.2.1-.7.2-.9.4l-1 1-.5 1.5c-.3.5-.3 1-.3 1.6 0 1.1.5 1.7 1.3 1.7Zm0 0"/>  <path id="i" d="m2 0-.3-10.7H3l.1 6.5v2.5a32 32 0 0 1 1.1-2.7l3.1-6.3h1.2l.3 6.3A34 34 0 0 1 9-1.7a27 27 0 0 0 .5-1.2 18 18 0 0 1 .4-1.3l2.8-6.5h1.4L9.3 0H7.9l-.3-7v-2h-.2L7-8l-.4 1-3.2 7Zm0 0"/>  <path id="h" d="m.4 0 2.4-11.4h1.4L1.7 0Zm0 0"/>  <path id="g" d="M2.9.2c-.6 0-1.2-.3-1.6-.7C1-1 .7-1.7.7-2.5s.1-1.7.3-2.3a6.3 6.3 0 0 1 .8-1.7 4 4 0 0 1 1.3-1.2 3 3 0 0 1 1.6-.5c.5 0 1 .2 1.3.4l.7 1L7.3-8h1L6.5 0h-1l.2-1.5A6 6 0 0 1 4.3-.3C4 0 3.4.2 3 .2ZM3.3-1c.4 0 .8-.1 1.1-.3a4 4 0 0 0 1-1.1 6 6 0 0 0 .8-2.4v-.7c0-.4-.1-.8-.4-1.1-.2-.4-.6-.5-1-.5s-.7.1-1 .4c-.5.2-.8.6-1.1 1l-.4 1.5c-.3.4-.3.9-.3 1.6 0 .6 0 1 .4 1.3.2.2.5.3 1 .3Zm0 0"/>  <path id="f" d="M.4 0 2-8h1.2l-.1 1.3a7 7 0 0 1 .7-.6c.2-.3.5-.5.9-.7l1.1-.2c.7 0 1.2.1 1.5.5.4.4.7.9.7 1.5v.7l-.4.6L6.7 0H5.2l1.1-5a9 9 0 0 0 .1-.7v-.4c.1-.6-.2-.9-.9-.9-.3 0-.6.2-1 .4s-.9.6-1.1 1c-.4.6-.8 1.3-1 2.1L1.8 0Zm0 0"/>  <path id="e" d="M2.8.2c-.6 0-1-.2-1.4-.4C1-.5 1-1 1-1.6a5 5 0 0 1-.1-1L2-7H.7v-.6l1.5-.6.9-1.7h.7L3.4-8h2l-.1 1h-2l-1 4.3v.5l-.2.5c.1.1.1.3.3.4 0 .3.3.4.6.4h.5l.5-.3v1.1l-.5.1a3 3 0 0 1-.7 0Zm0 0"/>  <path id="d" d="M3.2-9.4c-.2 0-.4 0-.5-.2-.2 0-.2-.3-.2-.4s0-.6.2-.8l.7-.2c.4 0 .6.2.6.6 0 .4 0 .6-.2.8l-.6.2ZM.4 0l1.7-8h1.4L1.7 0Zm0 0"/>  <path id="c" d="M1.2 0 .9-8H2l.3 4.3v1.4l-.1 1a21 21 0 0 1 1.1-2.2L5.4-8h1.4L7-3.7v2.5h.1A47.7 47.7 0 0 1 8.3-4L10-8h1.4L7.7 0H6v-6.8a21.2 21.2 0 0 1-1.2 2.3L2.6 0Zm0 0"/>  <path id="b" d="M3.7.1c-1 0-1.6-.1-2.2-.8C1-1.3.7-2 .7-3L1-4.8a5.9 5.9 0 0 1 .7-1.7A4 4 0 0 1 3-7.7C3.5-8 4-8 4.7-8c1-.1 1.7 0 2.3.7.5.5.7 1.3.7 2.3 0 .6 0 1.2-.2 1.8a5.5 5.5 0 0 1-.8 1.7C6.4-1 6-.6 5.5-.3 5 0 4.4 0 3.7 0Zm.1-1c.5-.1 1-.3 1.3-.7.4-.2.7-.7.9-1.3a6.4 6.4 0 0 0 .3-2.3c.1-.3.1-.6-.1-.8a1.5 1.5 0 0 0-.5-.8c-.2-.2-.5-.2-1-.2a2 2 0 0 0-1.3.5C3-6 2.6-5.6 2.3-5a6.2 6.2 0 0 0-.1 2c-.2.8 0 1.3.3 1.6.3.4.7.4 1.3.4Zm0-.1"/>  <path id="a" d="m.6 0 2.3-10.7h1.4l3.3 8.8a24.4 24.4 0 0 1 .5-3l1.3-5.7h1.3L8.4 0H7L3.7-8.9a23.6 23.6 0 0 1-.5 2l-.1.9-1.2 6Zm0 0"/>  <path d="M1.4 0v-10.7h6.2V0Zm.8-.8h4.6v-9.1H2.2Zm0 0"/> </defs> <image xlink:href="svg/9/74_30.jpg" width="497" height="279"/> <path d="m385.5 85 2.2-10.6h1.5l3.2 8.8a24.4 24.4 0 0 1 .6-3l1.3-5.9h1.3l-2.3 10.8h-1.4l-3.4-9.1a23.6 23.6 0 0 1-.3 2.2l-.2 1-1.3 5.9Zm13.7.2c-1 0-1.7-.3-2.2-.9-.5-.5-.8-1.3-.8-2.2 0-.6 0-1.3.2-1.9a5.9 5.9 0 0 1 .8-1.6 4 4 0 0 1 1.3-1.2c.5-.4 1-.5 1.7-.5 1 .1 1.7.3 2.2.8.6.6.8 1.3.8 2.3 0 .6 0 1.2-.2 1.8a5.5 5.5 0 0 1-.8 1.7c-.3.5-.8 1-1.3 1.2-.5.3-.9.5-1.7.5Zm0-1.2c.6 0 1.1-.1 1.5-.4.3-.4.6-.8.8-1.6a6.4 6.4 0 0 0 .4-2l-.2-1.1a1.5 1.5 0 0 0-.5-.5c-.3-.4-.6-.4-1-.4a2 2 0 0 0-1.4.6c-.4.3-.7.8-1 1.4a6.2 6.2 0 0 0-.2 2c-.1.7.1 1.2.4 1.6.3.3.7.4 1.3.4Zm5.6 1-.3-8h1.3v6.8a21 21 0 0 1 1.1-2.2L409 77h1.4l.2 4.3V84h.2a47.7 47.7 0 0 1 1.2-3.1l1.6-3.9h1.4l-3.7 8h-1.6l-.2-4.2v-2.5a21.2 21.2 0 0 1-1.1 2.3l-2 4.4Zm12.8-9.3c-.2 0-.3 0-.5-.2l-.1-.5c0-.3 0-.5.2-.7.1-.2.3-.3.6-.3.5 0 .7.2.7.7 0 .3 0 .5-.3.7-.1.2-.2.3-.6.3ZM415 85l1.6-8h1.3l-1.7 8ZM421.1 85.2c-.5 0-1-.1-1.4-.4-.3-.2-.5-.7-.5-1.4a5 5 0 0 1 .1-1l1-4.4H419v-.6l1.5-.6.9-1.6h.8l-.4 1.8h2l-.2 1h-2l-1 4.4v.4l-.1.5c0 .2 0 .4.2.6l.6.1h.5l.6-.1V85l-.6.1a3 3 0 0 1-.7.1Zm2.6-.2 1.7-8h1.2l-.2 1.5a7 7 0 0 1 .7-.8c.2-.2.5-.5.9-.6.3-.2.7-.3 1-.3.8 0 1.3.2 1.7.5.3.4.5.9.5 1.5v.8l-.2.6-1 4.8h-1.4l1-5a9 9 0 0 0 .1-.6V79c.1-.7-.2-1-.9-1-.3 0-.6.1-1 .4-.5.2-.8.6-1.1 1-.5.6-.7 1.4-1 2.3l-.6 3.3Zm11.2.2c-.6 0-1.2-.2-1.6-.7-.3-.5-.6-1.1-.6-2 0-.8.1-1.5.3-2.2a6.3 6.3 0 0 1 .8-1.8 4 4 0 0 1 1.3-1.2 3 3 0 0 1 1.6-.3c.5-.1 1 0 1.2.3.4.3.6.6.8 1l.6-1.3h.9l-1.7 8h-1l.2-1.3a6 6 0 0 1-1.4 1c-.3.3-.9.5-1.3.5Zm.4-1c.4-.1.8-.2 1.1-.6a4 4 0 0 0 1-.9 6 6 0 0 0 .8-2.5v-.6c0-.6-.1-.9-.4-1.2-.2-.3-.6-.4-1-.4s-.8 0-1 .3l-1.1 1-.4 1.5c-.3.5-.3 1-.3 1.7 0 .5 0 1 .4 1.2.2.3.5.4 1 .4ZM384.5 103l2.3-10.7h1.4l3.3 8.7a24.4 24.4 0 0 1 .7-2.9l1.1-5.8h1.3l-2.2 10.7h-1.5l-3.3-9a23.6 23.6 0 0 1-.3 2l-.3 1.1-1.2 5.9Zm12.9.1c-.6 0-1.1-.1-1.4-.7-.5-.4-.7-1.1-.7-2 0-.8 0-1.5.3-2.2a6.3 6.3 0 0 1 .8-1.8 4 4 0 0 1 1.2-1.2 3 3 0 0 1 1.6-.4c.5 0 1 .1 1.3.4.3.3.6.6.7 1h.1l.5-1.3h1l-1.7 8.1H400l.1-1.4a6 6 0 0 1-1.1 1c-.5.4-1 .5-1.6.5Zm.6-1c.3-.1.6-.3.9-.6a4 4 0 0 0 1.1-.9 6 6 0 0 0 .8-2.5v-.6c0-.5-.2-.9-.4-1.2-.4-.3-.6-.3-1-.3s-.9 0-1.2.3c-.3.2-.6.5-.9 1l-.4 1.4-.3 1.7c0 .5.1 1 .4 1.2.2.4.5.4 1 .4ZM405.8 103.1c-.5 0-1-.1-1.3-.4-.5-.2-.6-.7-.6-1.3a5 5 0 0 1 .2-1.1l.9-4.4h-1.3l.1-.6 1.4-.5 1-1.8h.6l-.3 1.9h2l-.2 1.1h-2l-1 4.3v1.5l.7.2h.6l.4-.2v1l-.4.2a3 3 0 0 1-.8.1Zm5.4-9.5c-.2 0-.2 0-.5-.2l-.2-.5c0-.3 0-.5.3-.7.1-.2.2-.2.6-.2.6 0 .7.1.7.6-.1.3-.1.5-.3.7-.2.2-.3.3-.6.3Zm-2.7 9.4 1.7-8h1.3l-1.7 8Zm7.1 0c-.9 0-1.6-.1-2.2-.6-.4-.7-.8-1.5-.8-2.4l.4-2a5.9 5.9 0 0 1 .7-1.5 4 4 0 0 1 1.2-1.2c.5-.3 1.1-.5 1.8-.5.9 0 1.6.3 2.2.8.5.6.8 1.4.8 2.4l-.3 1.8a5.5 5.5 0 0 1-.8 1.6c-.3.6-.6 1-1.2 1.2-.5.4-1.1.5-1.8.5Zm.1-1c.5 0 1-.2 1.3-.5.4-.5.7-.8 1-1.5a6.4 6.4 0 0 0 .2-2.2v-.9a1.5 1.5 0 0 0-.6-.7c-.2-.2-.5-.3-1-.3a2 2 0 0 0-1.3.6c-.5.4-.8.9-1 1.5a6.2 6.2 0 0 0-.3 2c0 .7 0 1.1.4 1.5.3.3.8.5 1.3.5Zm5 1 1.7-8.1h1.2l-.1 1.5a7 7 0 0 1 .5-.8l1.1-.6c.2-.2.5-.3.9-.3.9 0 1.4.3 1.8.6.3.3.5.7.5 1.5l-.1.7-.2.5-1 5h-1.5l1.1-5.1a9 9 0 0 0 .3-.6V97c-.1-.8-.4-1.1-1.1-1.1-.3.1-.7.1-1 .4-.4.2-.8.6-1.1 1.1-.4.5-.7 1.2-.8 2l-.9 3.6Zm11.3.1c-.8 0-1.3-.1-1.7-.7-.3-.4-.5-1.1-.5-2 0-.8 0-1.5.2-2.2a6.3 6.3 0 0 1 .9-1.8 4 4 0 0 1 1.1-1.2 3 3 0 0 1 1.7-.4c.5 0 1 .1 1.3.4.3.3.6.6.7 1h.1l.5-1.3h1l-1.7 8.1h-1v-1.4a6 6 0 0 1-1.1 1c-.5.4-1 .5-1.6.5Zm.3-1c.5-.1.7-.3 1.1-.6a4 4 0 0 0 1.1-.9 6 6 0 0 0 .8-2.5v-.6c0-.5-.3-.9-.4-1.2-.3-.3-.6-.3-1-.3s-.9 0-1.2.3c-.3.2-.7.5-.9 1l-.4 1.4-.3 1.7c0 .5.1 1 .3 1.2.3.4.6.4 1 .4ZM438 103l2.4-11.4h1.3l-2.4 11.4Zm-47.9 17.9-.4-10.7h1.3l.2 6.5v2.5a32 32 0 0 1 1.1-2.7l3-6.3h1.2l.5 6.2a34 34 0 0 1-.1 2.8h.1a27 27 0 0 0 .4-1.2 18 18 0 0 1 .6-1.4l2.8-6.4h1.4l-4.9 10.7H396l-.3-7v-.9l-.2-1-.4.9-.4 1.1-3.2 7Zm13.9-9.4s-.2 0-.3-.2c-.3-.1-.3-.3-.3-.5 0-.3 0-.5.2-.8.2 0 .4-.2.7-.2.4 0 .6.3.6.7.1.3.1.6-.2.7l-.7.3Zm-2.6 9.4 1.6-8h1.4l-1.8 7.9Zm3.8 0 2.4-11.4h1.3l-2.4 11.4Zm6.3.1c-.5 0-1.1-.2-1.5-.7-.4-.3-.6-1.1-.6-2a8 8 0 0 1 .2-2.1 6.4 6.4 0 0 1 .8-1.8c.4-.5.8-1 1.3-1.2a3 3 0 0 1 1.6-.5c.5 0 1 .1 1.3.4.3.3.6.6.7 1h.1a150.6 150.6 0 0 0 .3-2.1l.6-2.5h1.3l-2.4 11.4H414l.3-1.5h-.1c-.4.4-.7.8-1.2 1.1-.4.5-1 .5-1.5.5Zm.5-1c.3 0 .6-.3 1-.5l1-.9.5-1.6a5.5 5.5 0 0 0 .5-1.6c-.1-.4-.2-.9-.5-1.2-.2-.2-.5-.4-1.1-.4-.4 0-.8.1-1 .4-.4.2-.8.6-1.1 1l-.3 1.5-.3 1.6c0 1 .4 1.7 1.3 1.7Zm5.7.9 2.5-11.4h1.3l-2.5 11.4Zm6.7-9.4c-.2 0-.4 0-.5-.2-.2-.1-.2-.3-.2-.5 0-.3 0-.5.2-.8.2 0 .4-.2.7-.2.4 0 .6.3.6.7 0 .3 0 .6-.2.7l-.6.3Zm-2.8 9.4 1.7-8h1.3l-1.6 7.9Zm2.7 3.6h-.5l-.4-.3v-.9h.8c.4.1.8.1.9-.3l.5-1.3 1.6-7.9h-1.4l.1-.5 1.5-.5.2-.8a5.9 5.9 0 0 1 .6-1.6l.8-.8 1.3-.2h.8l.6.4-.3.9-.5-.2h-.5c-.4 0-.7 0-1 .3-.2.2-.4.6-.4 1.3l-.3.7h1.7l-.2 1h-1.7l-1.7 8c-.1.8-.4 1.5-.8 2-.4.4-1 .7-1.7.7Zm9.2-3.5c-1 0-1.7-.2-2.2-.8-.5-.5-.7-1.2-.7-2.2a6.6 6.6 0 0 1 1-3.6c.4-.5.8-1 1.4-1.2a3 3 0 0 1 1.6-.5c.7 0 1.3.2 1.7.5.4.3.6.8.6 1.4 0 .4-.2 1-.5 1.4-.4.4-.9.8-1.5 1-.7.3-1.6.4-2.7.4h-.3v.5c0 .7.1 1.1.4 1.5.3.4.8.5 1.4.5l1-.1 1.3-.5v1.1l-1.2.6h-1.3Zm-1.5-4.7h.2l1.8-.1 1-.5c.4-.3.6-.7.6-1 0-.3-.1-.5-.3-.7l-.8-.2c-.5 0-1 .2-1.4.6-.4.6-.8 1.1-1 2Zm-41.6 22.5 2.3-10.8h2.4c2.2 0 3.3 1 3.3 2.8 0 .8-.2 1.4-.6 2-.4.6-1.1 1-2.1 1.3l1.8 4.7H396l-1.5-4.4h-1.8l-1 4.4Zm2.6-5.6h1c1.1 0 2-.2 2.3-.6.5-.6.7-1 .7-1.7 0-.6-.2-1-.5-1.3-.5-.2-.9-.4-1.6-.4h-1.1Zm9 5.8c-.8 0-1.5-.4-2-1-.6-.4-.8-1.2-.8-2a6.6 6.6 0 0 1 1-3.7c.4-.5.8-1 1.3-1.2a3 3 0 0 1 1.7-.5c.7 0 1.3.2 1.7.4.4.4.6.9.6 1.5 0 .5-.2 1-.5 1.4-.3.4-1 .8-1.6 1-.6.3-1.4.4-2.6.4h-.3v.6c0 .6.1 1 .4 1.4.3.4.8.5 1.4.5l1-.1 1.3-.5v1.1l-1.2.5-1.4.1Zm-1.2-4.9h1.7l1.2-.5c.3-.3.5-.6.5-1 0-.3-.2-.6-.3-.7l-.8-.2c-.5 0-1 .2-1.4.7-.4.4-.8 1-1 1.8ZM405.2 142.4h-.5l-.5-.3v-.9h.9c.3.1.6.1.8-.3.2-.3.4-.8.5-1.3l1.6-7.8h-1.3v-.6l1.7-.5v-.7a5.9 5.9 0 0 1 .6-1.6c.3-.4.5-.7 1-.9l1.2-.2h.7l.7.4-.4.9-.4-.1-.6-.1c-.4 0-.7.1-1 .3l-.4 1.3-.2.7h1.7l-.3 1h-1.6l-1.7 8.1c-.2.8-.5 1.4-.9 1.9-.3.3-.8.7-1.6.7Zm8.3-3.4c-.5 0-1-.3-1.4-.7-.4-.2-.6-.7-.6-1.3v-.7l.3-.7.9-4.9h1.4l-1.1 5.1a5 5 0 0 0-.2 1c0 .3.2.6.3.8.2.2.4.2.8.2.3 0 .7 0 1.1-.3.4-.3.8-.6 1-1.2.5-.5.8-1.2 1-2.1l.6-3.5h1.4l-1.8 8h-1v-1.3a8 8 0 0 1-.7.6l-.9.7c-.1.2-.6.2-.9.2Zm8.7 3.4c-.5 0-1 0-1.4-.2-.4 0-.8-.2-1-.2v-1.3l.9.3 1.3.3c.7 0 1.2-.3 1.6-.5.4-.3.7-.8.9-1.5l.1-.5a21.2 21.2 0 0 1 .4-1.5l-1.3 1.2c-.4.3-.9.4-1.4.4-.7.1-1.3-.2-1.6-.7-.4-.4-.6-1.1-.6-2a8 8 0 0 1 .3-2.2 6.3 6.3 0 0 1 .8-1.7 4 4 0 0 1 1.2-1.3 3 3 0 0 1 1.6-.4c.6 0 1 .1 1.3.4.4.3.7.6.8 1l.5-1.3h1l-1.8 8.6c-.2 1-.7 1.9-1.3 2.4-.5.3-1.4.7-2.3.7Zm.5-4.6c.4 0 .7 0 1-.3l1-1 .7-1.5a5.7 5.7 0 0 0 .2-1.7c0-.5-.1-.9-.3-1.1-.3-.3-.6-.5-1.3-.5-.3 0-.6.1-.9.4-.5.2-.8.6-1.1.9l-.3 1.6-.3 1.6c0 1.1.6 1.6 1.3 1.6Zm9 1.2c-1 0-1.7-.4-2.2-1-.5-.4-.7-1.2-.7-2a6.6 6.6 0 0 1 1-3.7c.5-.5.9-1 1.4-1.2a3 3 0 0 1 1.6-.5c.8 0 1.2.2 1.7.4.5.4.6.9.6 1.5-.1.5-.2 1-.5 1.4-.3.4-.8.8-1.5 1-.7.3-1.6.4-2.7.4h-.3v.6c0 .6.2 1 .5 1.4.3.4.7.5 1.3.5l1.1-.1 1.1-.5v1.1l-1.1.5-1.3.1Zm-1.4-4.9h1.8c.5-.1 1-.3 1.2-.5.4-.3.5-.6.5-1 0-.3 0-.6-.3-.7l-.8-.2c-.5 0-1 .2-1.4.7-.3.4-.7 1-1 1.8Zm0 .1" style="fill:none;stroke-width:2;stroke-linecap:butt;stroke-linejoin:round;stroke:#fff;stroke-opacity:.6;stroke-miterlimit:10" transform=" rotate(  340 413.489 108.915) "/> <g style="fill:green;fill-opacity:1" transform=" rotate(  340 413.489 108.915) ">  <use xlink:href="#a" x="384.9" y="85"/>  <use xlink:href="#b" x="395.5" y="85"/>  <use xlink:href="#c" x="403.6" y="85"/>  <use xlink:href="#d" x="414.5" y="85"/>  <use xlink:href="#e" x="418.3" y="85"/>  <use xlink:href="#f" x="423.3" y="85"/>  <use xlink:href="#g" x="432" y="85"/>  <use xlink:href="#a" x="383.9" y="103"/>  <use xlink:href="#g" x="394.5" y="103"/>  <use xlink:href="#e" x="403.1" y="103"/>  <use xlink:href="#d" x="408" y="103"/>  <use xlink:href="#b" x="411.9" y="103"/>  <use xlink:href="#f" x="420.4" y="103"/>  <use xlink:href="#g" x="429" y="103"/>  <use xlink:href="#h" x="437.6" y="103"/>  <use xlink:href="#i" x="388.1" y="120.9"/>  <use xlink:href="#d" x="400.9" y="120.9"/>  <use xlink:href="#h" x="404.8" y="120.9"/>  <use xlink:href="#j" x="408.6" y="120.9"/>  <use xlink:href="#h" x="417.3" y="120.9"/>  <use xlink:href="#d" x="421.2" y="120.9"/>  <use xlink:href="#k" x="425.1" y="120.9"/>  <use xlink:href="#l" x="429.8" y="120.9"/>  <use xlink:href="#m" x="389.8" y="138.8"/>  <use xlink:href="#l" x="398.4" y="138.8"/>  <use xlink:href="#k" x="405.9" y="138.8"/>  <use xlink:href="#n" x="410.7" y="138.8"/>  <use xlink:href="#o" x="419.4" y="138.8"/>  <use xlink:href="#l" x="428.1" y="138.8"/> </g></svg>