<svg xmlns="http://www.w3.org/2000/svg" xmlns:xlink="http://www.w3.org/1999/xlink" viewBox="0 0 497 279"> <defs overflow="visible" style="stroke:none">  <path id="l" d="m.4 0 1.7-8h1.1L3-6.6h.1l.7-.7c.2-.3.5-.5.8-.7a2 2 0 0 1 1-.2H6l.4.2-.2 1.1h-.8a2 2 0 0 0-1.4.3 4 4 0 0 0-1 1.4l-.4 1.5L1.7 0Zm0 0"/>  <path id="k" d="M.6 0 3-10.7h2.3c1.2 0 2 .3 2.5.8s.7 1.1.7 1.9c0 1.3-.4 2.2-1.2 2.9-.8.6-2 1-3.5 1h-1L2 0Zm2.5-5.3H4c1 0 1.7-.2 2.3-.7.6-.4.7-1 .7-2 .1-.5 0-.9-.4-1.2-.3-.2-.8-.4-1.5-.4H4Zm-.1 0"/>  <path id="j" d="m.4 0 2.4-11.4h1.4L1.7 0Zm0 0"/>  <path id="i" d="M.4 0 2-8h1.2l-.1 1.3a7 7 0 0 1 .7-.6c.2-.3.5-.5.9-.7l1.1-.2c.7 0 1.2.1 1.5.5.4.4.7.9.7 1.5v.7l-.4.6L6.7 0H5.2l1.1-5a9 9 0 0 0 .1-.7v-.4c.1-.6-.2-.9-.9-.9-.3 0-.6.2-1 .4s-.9.6-1.1 1c-.4.6-.8 1.3-1 2.1L1.8 0Zm0 0"/>  <path id="h" d="M3.7.1c-1 0-1.6-.1-2.2-.8C1-1.3.7-2 .7-3L1-4.8a5.9 5.9 0 0 1 .7-1.7A4 4 0 0 1 3-7.7C3.5-8 4-8 4.7-8c1-.1 1.7 0 2.3.7.5.5.7 1.3.7 2.3 0 .6 0 1.2-.2 1.8a5.5 5.5 0 0 1-.8 1.7C6.4-1 6-.6 5.5-.3 5 0 4.4 0 3.7 0Zm.1-1c.5-.1 1-.3 1.3-.7.4-.2.7-.7.9-1.3a6.4 6.4 0 0 0 .3-2.3c.1-.3.1-.6-.1-.8a1.5 1.5 0 0 0-.5-.8c-.2-.2-.5-.2-1-.2a2 2 0 0 0-1.3.5C3-6 2.6-5.6 2.3-5a6.2 6.2 0 0 0-.1 2c-.2.8 0 1.3.3 1.6.3.4.7.4 1.3.4Zm0-.1"/>  <path id="g" d="M2.8.2c-.6 0-1-.2-1.4-.4C1-.5 1-1 1-1.6a5 5 0 0 1-.1-1L2-7H.7v-.6l1.5-.6.9-1.7h.7L3.4-8h2l-.1 1h-2l-1 4.3v.5l-.2.5c.1.1.1.3.3.4 0 .3.3.4.6.4h.5l.5-.3v1.1l-.5.1a3 3 0 0 1-.7 0Zm0 0"/>  <path id="f" d="m.6 0 2.3-10.7h1.4l3.3 8.8a24.4 24.4 0 0 1 .5-3l1.3-5.7h1.3L8.4 0H7L3.7-8.9a23.6 23.6 0 0 1-.5 2l-.1.9-1.2 6Zm0 0"/>  <path id="e" d="m.4 0 2.4-11.4h1.4L3.2-7a35.4 35.4 0 0 1-.7 2.8L6.3-8H8L4.4-4.6 6.6 0H5L3.4-3.8l-1 .9L1.6 0Zm0 0"/>  <path id="d" d="M3.2-9.4c-.2 0-.4 0-.5-.2-.2 0-.2-.3-.2-.4s0-.6.2-.8l.7-.2c.4 0 .6.2.6.6 0 .4 0 .6-.2.8l-.6.2ZM.4 0l1.7-8h1.4L1.7 0Zm0 0"/>  <path id="c" d="M2.9.2c-.6 0-1.2-.3-1.6-.7C1-1 .7-1.7.7-2.5s.1-1.7.3-2.3a6.3 6.3 0 0 1 .8-1.7 4 4 0 0 1 1.3-1.2 3 3 0 0 1 1.6-.5c.5 0 1 .2 1.3.4l.7 1L7.3-8h1L6.5 0h-1l.2-1.5A6 6 0 0 1 4.3-.3C4 0 3.4.2 3 .2ZM3.3-1c.4 0 .8-.1 1.1-.3a4 4 0 0 0 1-1.1 6 6 0 0 0 .8-2.4v-.7c0-.4-.1-.8-.4-1.1-.2-.4-.6-.5-1-.5s-.7.1-1 .4c-.5.2-.8.6-1.1 1l-.4 1.5c-.3.4-.3.9-.3 1.6 0 .6 0 1 .4 1.3.2.2.5.3 1 .3Zm0 0"/>  <path id="b" d="m1.7 0-1-8H2l.5 4.4v1A20.2 20.2 0 0 1 2.8-1a22 22 0 0 1 .7-1.8l.5-.8L6.3-8h1.4L3.4 0Zm0 0"/>  <path id="a" d="m-.3 0 .1-.7L1.1-1 3-9.7 1.8-10l.2-.7h3.7l-.1.7-1.3.3L2.4-1l1.2.3-.1.7Zm0 0"/>  <path d="M1.4 0v-10.7h6.2V0Zm.8-.8h4.6v-9.1H2.2Zm0 0"/> </defs> <image xlink:href="svg/9/80_38.jpg" width="497" height="279"/> <path d="m221.2 16 .1-.7 1.3-.3 1.8-8.7-1.1-.2.2-.8h3.7l-.2.8-1.2.2-1.9 8.7 1.2.3-.2.7zm6.8 0-1-8h1.5l.3 4.4.2 1a20.2 20.2 0 0 1 0 1.6 22 22 0 0 1 1-1.8l.3-.8 2.4-4.4h1.3l-4.3 8zm7 0-1-8h1.5l.3 4.4.2 1a20.2 20.2 0 0 1 0 1.6 22 22 0 0 1 1-1.8l.3-.8 2.4-4.4h1.3l-4.3 8zm8.2.2c-.6 0-1.1-.3-1.5-.7-.4-.5-.7-1.2-.7-2s0-1.5.4-2.3a6.3 6.3 0 0 1 .8-1.7 4 4 0 0 1 1.2-1.2 3 3 0 0 1 1.6-.5c.5 0 1 .2 1.3.4.3.3.6.6.7 1h.1l.5-1.2h1l-1.7 8h-1l.1-1.5a6 6 0 0 1-1.2 1.2c-.5.3-1 .5-1.6.5zm.5-1.2c.3 0 .7-.1 1-.3a4 4 0 0 0 1.1-1.1 6 6 0 0 0 .8-2.4v-.7c0-.4-.1-.8-.4-1.1-.3-.4-.6-.5-1-.5s-.9.2-1.2.4c-.3.2-.6.6-.8 1-.3.4-.5 1-.6 1.5l-.2 1.6c0 .6.1 1 .3 1.3.3.2.6.3 1 .3zm6.8 1-1-8h1.5l.4 4.4v1a20.2 20.2 0 0 1 .1 1.6 22 22 0 0 1 1.1-1.8c-.2-.3 0-.6.1-.8l2.5-4.4h1.4l-4.4 8zm8.5-9.4s-.2 0-.3-.2c-.3 0-.4-.3-.4-.4s.1-.6.3-.7c.1-.3.4-.3.6-.3.5 0 .8.2.8.6 0 .4 0 .6-.3.8l-.7.2zm-2.6 9.4 1.6-8h1.3l-1.7 8zm3.8 0 2.4-11.4h1.3l-1 4.5a35.4 35.4 0 0 1-.7 2.9l3.9-4.1h1.5l-3.4 3.6 2.1 4.5H265l-1.8-3.8-1.2.9-.5 3zm-44 18 2.2-10.9h1.6l3.2 9a24.4 24.4 0 0 1 .5-3.1l1.3-5.8h1.3L224 34h-1.4l-3.3-9a23.5 23.5 0 0 1-.5 2l-.1 1-1.3 6zm12.8 0c-.5 0-1-.1-1.4-.5-.5-.6-.6-1.3-.6-2.1s0-1.6.2-2.3a6.3 6.3 0 0 1 .8-1.7 4 4 0 0 1 1.3-1.2 3 3 0 0 1 1.6-.5c.5 0 .9.3 1.1.5.5.2.7.6 1 1l.4-1.4h1l-1.7 8.1h-1l.2-1.5a6 6 0 0 1-1.4 1.2c-.4.3-.9.4-1.4.4zm.6-1c.4 0 .6-.2 1-.4a4 4 0 0 0 1-1.1 6 6 0 0 0 .8-2.5v-.6c0-.4-.1-.8-.4-1.1-.2-.3-.6-.5-1-.5s-.8.2-1.1.4l-.9 1-.6 1.5-.2 1.7c0 .5.2.9.4 1.2.2.2.4.4 1 .4zm7.9 1c-.6 0-1 0-1.5-.2-.3-.4-.4-.8-.4-1.5a5 5 0 0 1 0-1l1.1-4.5h-1.3v-.5l1.5-.6.9-1.7h.8l-.6 2h2.1l-.1.9h-2l-1 4.4v.4l-.2.5c.1.2.1.4.2.5 0 .3.4.3.7.3h.5l.5-.3v1.1l-.5.2a3 3 0 0 1-.7 0zm5.4-9.5-.5-.1c-.2-.2-.2-.4-.2-.6 0-.2 0-.4.2-.6.1-.2.4-.3.6-.3.5 0 .7.1.7.7 0 .3 0 .4-.2.7-.2.2-.5.2-.6.2zM240 34l1.8-8h1.3l-1.7 7.9zm7.3 0c-1 0-1.7-.2-2.3-.8-.5-.5-.7-1.2-.7-2.2 0-.7 0-1.3.2-1.9a5.9 5.9 0 0 1 .8-1.7 4 4 0 0 1 1.2-1.2c.5-.2 1.1-.4 1.8-.4 1 0 1.7.2 2.2.8.5.6.8 1.4.8 2.4l-.3 1.7a5.5 5.5 0 0 1-.7 1.7c-.4.5-.8.9-1.3 1.2-.5.3-1 .4-1.7.4zm0-1c.6 0 1.1-.3 1.4-.7.3-.2.7-.7.9-1.3a6.4 6.4 0 0 0 .3-2.3l-.1-.7a1.5 1.5 0 0 0-.5-.8c-.3-.2-.6-.3-1-.3a2 2 0 0 0-1.4.5c-.4.4-.7 1-1 1.6a6.2 6.2 0 0 0-.3 2c0 .6.2 1 .5 1.4.3.4.7.6 1.3.6zm5.1 1 1.6-8.3h1.3l-.3 1.6a7 7 0 0 1 .8-.7c.2-.3.5-.6.9-.7l1.1-.2c.7 0 1.2.2 1.5.5.4.4.7.9.7 1.5v.7l-.4.6-.9 5h-1.4l1-5.2a9 9 0 0 0 .1-.5v-.5c.1-.6-.2-1-.9-1-.3.1-.6.2-1 .5-.5.2-.9.5-1.1 1.1-.4.5-.8 1.2-1 2l-.6 3.6zm11.2 0c-.7 0-1.2-.1-1.6-.5-.4-.6-.6-1.3-.6-2.1s.1-1.6.3-2.3a6.3 6.3 0 0 1 .8-1.7 4 4 0 0 1 1.3-1.2 3 3 0 0 1 1.6-.5c.5 0 .9.3 1.2.5.4.2.6.6.8 1l.6-1.4h1l-1.8 8.1h-1l.2-1.5a6 6 0 0 1-1.4 1.2c-.4.3-.9.4-1.4.4zm.4-1c.4 0 .8-.2 1.1-.4a4 4 0 0 0 1-1.1 6 6 0 0 0 .8-2.5v-.6c.1-.4-.1-.8-.4-1.1-.2-.3-.5-.5-1-.5s-.8.2-1.1.4l-.9 1-.5 1.5-.3 1.7c0 .5.3.9.4 1.2.2.2.5.4.9.4zm5.6 1 2.4-11.6h1.4L270.9 34zm-39.9 17.8 2.3-10.7h2.4c1.2 0 2 .3 2.6.9s.6 1 .6 1.9c0 1.2-.4 2.1-1.2 2.8-.8.6-2 1-3.4 1h-1l-.9 4zm2.5-5.3h1c.8 0 1.5-.2 2.1-.5.7-.5 1-1.1 1-2.1 0-.4-.3-.9-.5-1.1-.4-.4-.9-.5-1.6-.5h-1.1zm8.3 5.5c-.5 0-1.1-.3-1.5-.7-.5-.5-.7-1.3-.7-2s.1-1.6.3-2.3a6.3 6.3 0 0 1 .8-1.7 4 4 0 0 1 1.3-1.2 3 3 0 0 1 1.6-.5c.5 0 1 .2 1.3.5.3.2.6.6.7.9l.7-1.3h.9l-1.7 8.1h-1v-1.5a6 6 0 0 1-1.2 1.2c-.4.3-1 .5-1.5.5zm.5-1.1c.3 0 .7-.1 1-.4a4 4 0 0 0 1-1.1 6 6 0 0 0 .8-2.4v-.6c.1-.5.1-.9-.2-1.2-.4-.3-.7-.5-1.1-.5-.5.1-.9.3-1.3.4l-.7 1-.6 1.5c-.2.4-.2 1-.2 1.7 0 .5 0 1 .3 1.2.2.3.6.4 1 .4zm5.6.9 1.7-8h1l-.1 1.5.8-.8c.2-.3.4-.5.7-.6a2 2 0 0 1 1-.3h.4l.5.3-.3 1h-.8a2 2 0 0 0-1.3.3 4 4 0 0 0-1 1.4l-.5 1.6-.8 3.6zm5.9 0 2.5-11.4h1.3l-1 4.6a35.4 35.4 0 0 1-.7 2.7l3.8-4h1.6l-3.5 3.6 2.2 4.5h-1.5l-1.7-3.7-1 .8-.7 3.1zm0 0" style="fill:none;stroke:#fff;stroke-width:2;stroke-linecap:butt;stroke-linejoin:round;stroke-miterlimit:10;stroke-opacity:.6" transform="rotate(  340 256.37 178.694) translate(12.413136,147.77542)"/> <g style="fill:#007f00;fill-opacity:1" transform=" rotate(  340 256.37 178.694) ">  <use xlink:href="#a" x="233.9" y="163.8"/>  <use xlink:href="#b" x="238.8" y="163.8"/>  <use xlink:href="#b" x="245.8" y="163.8"/>  <use xlink:href="#c" x="252.8" y="163.8"/>  <use xlink:href="#b" x="261.3" y="163.8"/>  <use xlink:href="#d" x="268.3" y="163.8"/>  <use xlink:href="#e" x="272.2" y="163.8"/>  <use xlink:href="#f" x="228" y="181.7"/>  <use xlink:href="#c" x="238.6" y="181.7"/>  <use xlink:href="#g" x="247.1" y="181.7"/>  <use xlink:href="#d" x="252.1" y="181.7"/>  <use xlink:href="#h" x="256" y="181.7"/>  <use xlink:href="#i" x="264.4" y="181.7"/>  <use xlink:href="#c" x="273.1" y="181.7"/>  <use xlink:href="#j" x="281.6" y="181.7"/>  <use xlink:href="#k" x="241.5" y="199.6"/>  <use xlink:href="#c" x="250" y="199.6"/>  <use xlink:href="#l" x="258.6" y="199.6"/>  <use xlink:href="#e" x="264.5" y="199.6"/> </g></svg>