<svg xmlns="http://www.w3.org/2000/svg" xmlns:xlink="http://www.w3.org/1999/xlink" viewBox="0 0 497 279"> <defs overflow="visible" style="stroke:none">  <path id="l" d="m.4 0 2.4-11.4h1.4L3.2-7a35.4 35.4 0 0 1-.7 2.8L6.3-8H8L4.4-4.6 6.6 0H5L3.4-3.8l-1 .9L1.6 0Zm0 0"/>  <path id="k" d="m.4 0 1.7-8h1.1L3-6.6h.1l.7-.7c.2-.3.5-.5.8-.7a2 2 0 0 1 1-.2H6l.4.2-.2 1.1h-.8a2 2 0 0 0-1.4.3 4 4 0 0 0-1 1.4l-.4 1.5L1.7 0Zm0 0"/>  <path id="j" d="M.6 0 3-10.7h2.3c1.2 0 2 .3 2.5.8s.7 1.1.7 1.9c0 1.3-.4 2.2-1.2 2.9-.8.6-2 1-3.5 1h-1L2 0Zm2.5-5.3H4c1 0 1.7-.2 2.3-.7.6-.4.7-1 .7-2 .1-.5 0-.9-.4-1.2-.3-.2-.8-.4-1.5-.4H4Zm-.1 0"/>  <path id="i" d="m.4 0 2.4-11.4h1.4L1.7 0Zm0 0"/>  <path id="h" d="M3.7.1c-1 0-1.6-.1-2.2-.8C1-1.3.7-2 .7-3L1-4.8a5.9 5.9 0 0 1 .7-1.7A4 4 0 0 1 3-7.7C3.5-8 4-8 4.7-8c1-.1 1.7 0 2.3.7.5.5.7 1.3.7 2.3 0 .6 0 1.2-.2 1.8a5.5 5.5 0 0 1-.8 1.7C6.4-1 6-.6 5.5-.3 5 0 4.4 0 3.7 0Zm.1-1c.5-.1 1-.3 1.3-.7.4-.2.7-.7.9-1.3a6.4 6.4 0 0 0 .3-2.3c.1-.3.1-.6-.1-.8a1.5 1.5 0 0 0-.5-.8c-.2-.2-.5-.2-1-.2a2 2 0 0 0-1.3.5C3-6 2.6-5.6 2.3-5a6.2 6.2 0 0 0-.1 2c-.2.8 0 1.3.3 1.6.3.4.7.4 1.3.4Zm0-.1"/>  <path id="g" d="M3.2-9.4c-.2 0-.4 0-.5-.2-.2 0-.2-.3-.2-.4s0-.6.2-.8l.7-.2c.4 0 .6.2.6.6 0 .4 0 .6-.2.8l-.6.2ZM.4 0l1.7-8h1.4L1.7 0Zm0 0"/>  <path id="f" d="M2.9.2c-.6 0-1.2-.3-1.6-.7C1-1 .7-1.7.7-2.5s.1-1.7.3-2.3a6.3 6.3 0 0 1 .8-1.7 4 4 0 0 1 1.3-1.2 3 3 0 0 1 1.6-.5c.5 0 1 .2 1.3.4l.7 1L7.3-8h1L6.5 0h-1l.2-1.5A6 6 0 0 1 4.3-.3C4 0 3.4.2 3 .2ZM3.3-1c.4 0 .8-.1 1.1-.3a4 4 0 0 0 1-1.1 6 6 0 0 0 .8-2.4v-.7c0-.4-.1-.8-.4-1.1-.2-.4-.6-.5-1-.5s-.7.1-1 .4c-.5.2-.8.6-1.1 1l-.4 1.5c-.3.4-.3.9-.3 1.6 0 .6 0 1 .4 1.3.2.2.5.3 1 .3Zm0 0"/>  <path id="e" d="m.6 0 2.3-10.7h1.4l3.3 8.8a24.4 24.4 0 0 1 .5-3l1.3-5.7h1.3L8.4 0H7L3.7-8.9a23.6 23.6 0 0 1-.5 2l-.1.9-1.2 6Zm0 0"/>  <path id="d" d="M2.8.2c-.6 0-1-.2-1.4-.4C1-.5 1-1 1-1.6a5 5 0 0 1-.1-1L2-7H.7v-.6l1.5-.6.9-1.7h.7L3.4-8h2l-.1 1h-2l-1 4.3v.5l-.2.5c.1.1.1.3.3.4 0 .3.3.4.6.4h.5l.5-.3v1.1l-.5.1a3 3 0 0 1-.7 0Zm0 0"/>  <path id="c" d="M.4 0 2-8h1.2l-.1 1.3a7 7 0 0 1 .7-.6c.2-.3.5-.5.9-.7l1.1-.2c.7 0 1.2.1 1.5.5.4.4.7.9.7 1.5v.7l-.4.6L6.7 0H5.2l1.1-5a9 9 0 0 0 .1-.7v-.4c.1-.6-.2-.9-.9-.9-.3 0-.6.2-1 .4s-.9.6-1.1 1c-.4.6-.8 1.3-1 2.1L1.8 0Zm0 0"/>  <path id="b" d="M2.8.2c-.6 0-1-.2-1.4-.6C1-.7.8-1.2.8-1.8v-.7l.2-.6 1-5h1.4L2.3-3a5 5 0 0 0-.1 1c0 .3 0 .6.2.8.2.2.4.2.8.2.3 0 .7-.1 1.1-.3.4-.2.8-.6 1.1-1.2.3-.5.6-1.2.8-2L6.9-8h1.3L6.5 0h-1l.1-1.5a8 8 0 0 1-.8.8L4-.1c-.3.2-.7.3-1.2.3Zm0 0"/>  <path id="a" d="M2.5 0 1.4-10.7h1.3l.7 6.8a19.5 19.5 0 0 1 .1 2.4A43 43 0 0 1 4.6-4l3.7-6.7h1.4L4 0Zm0 0"/>  <path d="M1.4 0v-10.7h6.2V0Zm.8-.8h4.6v-9.1H2.2Zm0 0"/> </defs> <image xlink:href="svg/9/80_37.jpg" width="497" height="279"/> <path d="m201.7 137.7-1.1-10.7h1.3l.7 6.8a19.5 19.5 0 0 1 0 2.4h.2a43 43 0 0 1 1-2.4l3.6-6.8h1.4l-5.7 10.7Zm8.4.2c-.6 0-1-.2-1.4-.6-.4-.3-.7-.8-.7-1.3v-.8l.4-.6.9-5h1.5l-1.1 5.2a5 5 0 0 0-.3.9c.1.3.1.6.3.8.3.2.4.3.8.3s.7-.2 1.1-.4c.4-.2.8-.6 1.1-1.2.4-.5.6-1.2.8-2l.7-3.6h1.4l-1.7 8.1h-1.1l.1-1.5a8 8 0 0 1-.7.8l-.9.6c-.3.2-.7.4-1.2.4Zm6.3-.2 1.6-8h1.2l-.1 1.3a7 7 0 0 1 .7-.6l.8-.7 1.2-.2c.7 0 1.2.1 1.5.5.4.4.7.9.7 1.5v.7l-.4.6-.9 4.9h-1.6l1.2-5a9 9 0 0 0 .1-.7v-.4c.1-.6-.2-1-.9-1-.4.1-.7.3-1.1.4s-.8.6-1.1 1.1l-.8 2.1-.7 3.5Zm11.1.2c-.6 0-1-.2-1.5-.4-.3-.3-.5-.8-.5-1.5a5 5 0 0 1 .2-1l.9-4.4h-1.3l.2-.6 1.3-.5 1-1.7h.6l-.3 1.9h2l-.1 1h-2l-1 4.3v1.5l.6.3h.6l.5-.3v1.1l-.5.2a3 3 0 0 1-.7 0Zm5 0c-.6 0-1.1-.2-1.5-.6-.3-.3-.5-.8-.5-1.3v-.8l.1-.6 1.1-5h1.3l-1 5.2a5 5 0 0 0-.2.9c0 .3 0 .6.3.8.1.2.4.3.8.3.3 0 .7-.2 1-.4.6-.2.9-.6 1.3-1.2.2-.5.5-1.2.7-2l.7-3.6h1.3l-1.7 8.1h-1v-1.5a8 8 0 0 1-.7.8l-.8.6-1.2.4Zm8.6 0c-.5 0-1-.2-1.3-.4-.5-.3-.6-.8-.6-1.5a5 5 0 0 1 .1-1l1-4.4H239l.1-.6 1.4-.5 1-1.7h.6l-.3 1.9h2l-.2 1h-2l-1 4.3v1.5c.2.2.4.3.7.3h.5l.6-.3v1.1l-.6.2a3 3 0 0 1-.7 0ZM193 155.6l2.5-10.6h1.3l3.3 8.7a24.4 24.4 0 0 1 .5-2.9l1.4-5.9h1.2l-2.3 10.7h-1.4l-3.3-8.9a23.6 23.6 0 0 1-.5 2l-.1 1.1-1.2 5.8Zm13 .2c-.6 0-1.2-.3-1.6-.8-.4-.4-.6-1.1-.6-2s.2-1.5.3-2.2a6.3 6.3 0 0 1 .9-1.8 4 4 0 0 1 1.2-1.1 3 3 0 0 1 1.6-.5c.5 0 1 .2 1.2.4l.8 1 .7-1.2h.9l-1.7 8h-1.1l.2-1.5a6 6 0 0 1-1.4 1.2c-.3.3-.9.5-1.4.5Zm.4-1.1c.4 0 .8-.2 1.1-.4a4 4 0 0 0 1-1.1 6 6 0 0 0 .8-2.4v-.7c0-.4 0-.8-.3-1.1-.3-.3-.7-.5-1-.5s-.8.2-1.1.5c-.5.1-.8.5-1.1 1l-.4 1.4c-.2.5-.2 1-.2 1.6 0 .6 0 1 .3 1.3.2.2.5.4 1 .4Zm8 1.1c-.4 0-1-.2-1.4-.4-.3-.4-.5-.7-.5-1.4a5 5 0 0 1 .1-1l1-4.5h-1.4l.2-.5 1.3-.6 1.1-1.7h.7l-.5 1.9h2l-.1 1h-2l-1 4.4v.4l-.2.6c.1 0 .1.3.3.4 0 .2.3.3.6.3h.4l.7-.3v1.1l-.7.2a3 3 0 0 1-.6 0Zm5.4-9.6c-.2 0-.4 0-.5-.2-.3 0-.3-.3-.3-.5s0-.5.3-.5c.2-.3.4-.4.7-.4.4 0 .7.2.7.7 0 .3-.1.5-.3.7l-.6.2Zm-2.8 9.4 1.7-8h1.4l-1.8 8Zm7.2.1c-1 0-1.7-.2-2.2-.7-.5-.7-.8-1.4-.8-2.4 0-.6 0-1.2.2-1.8a5.9 5.9 0 0 1 .8-1.7 4 4 0 0 1 1.3-1.1c.5-.4 1-.5 1.7-.5 1 0 1.8.2 2.2.8.6.6.8 1.3.8 2.3 0 .6 0 1.2-.2 1.8a5.5 5.5 0 0 1-.8 1.7c-.3.5-.8.9-1.3 1.2-.5.3-.9.4-1.7.4Zm0-1c.7-.1 1.1-.3 1.5-.7.3-.2.6-.7.9-1.3a6.4 6.4 0 0 0 .2-2.3c.1-.3.1-.6-.1-.9a1.5 1.5 0 0 0-.5-.7l-1-.2a2 2 0 0 0-1.4.4c-.4.5-.7 1-1 1.6a6.2 6.2 0 0 0-.2 2c-.1.8.1 1.3.4 1.6.3.3.7.4 1.3.4Zm5.1.9 1.7-8h1.2l-.2 1.4a7 7 0 0 1 .7-.7c.2-.3.5-.5.9-.7l1.1-.2c.7 0 1.3.2 1.6.5.3.4.5.9.5 1.5v.7l-.2.6-1 5h-1.4l1-5.3a9 9 0 0 0 .2-.4v-.5c0-.5-.3-1-1-1-.4.1-.7.3-1 .5-.6.2-.9.5-1.3 1l-.7 2.1-.7 3.5Zm11.2.2c-.6 0-1.2-.3-1.6-.8-.4-.4-.6-1.1-.6-2s.1-1.5.3-2.2a6.3 6.3 0 0 1 .8-1.8 4 4 0 0 1 1.3-1.1 3 3 0 0 1 1.6-.5c.5 0 1 .2 1.3.4l.7 1 .7-1.2h.9l-1.7 8H243l.3-1.5a6 6 0 0 1-1.3 1.2c-.4.3-1 .5-1.5.5Zm.4-1.1c.4 0 .8-.2 1.1-.4a4 4 0 0 0 1-1.1 6 6 0 0 0 .8-2.4v-.7c0-.4 0-.8-.4-1.1-.2-.3-.6-.5-1-.5s-.7.2-1 .5c-.4.1-.8.5-1.1 1l-.3 1.4c-.3.5-.3 1-.3 1.6 0 .6 0 1 .3 1.3.2.2.5.4 1 .4Zm5.6.9 2.5-11.4h1.3l-2.5 11.4Zm-39.9 17.9 2.4-10.7h2.3c1.2 0 2 .3 2.5.8s.7 1.2.7 2c0 1.2-.4 2.1-1.2 2.8-.8.6-2 1-3.5 1h-1l-.8 4Zm2.5-5.3h1c.9 0 1.6-.2 2.1-.6.8-.4 1-1 1-2 0-.5-.2-1-.5-1.2-.4-.4-.9-.4-1.7-.4h-.9Zm8.3 5.5c-.6 0-1.1-.3-1.4-.7-.5-.5-.7-1.2-.7-2s0-1.6.3-2.3a6.3 6.3 0 0 1 .8-1.7 4 4 0 0 1 1.2-1.2 3 3 0 0 1 1.6-.5c.5 0 1 .2 1.3.5.3.2.6.6.7 1h.1l.5-1.4h1l-1.8 8.1h-1l.1-1.5a6 6 0 0 1-1.1 1.2c-.5.3-1 .5-1.6.5Zm.6-1.1c.2 0 .6-.2.9-.4a4 4 0 0 0 1.1-1.2 6 6 0 0 0 .7-2.3v-.6c.1-.5.1-1.1-.2-1.2-.5-.3-.7-.5-1.1-.5s-.9.2-1.2.4l-.9 1-.4 1.5-.3 1.7c0 .5.1 1 .4 1.2.2.2.5.4 1 .4Zm5.5.9 1.7-8h1v1.5l.6-.8c.3-.3.5-.5.8-.6a2 2 0 0 1 1-.3h.5l.4.2-.3 1.1h-.7a2 2 0 0 0-1.5.4 4 4 0 0 0-.9 1.3l-.5 1.5-.8 3.7Zm5.9 0 2.4-11.4h1.4l-1 4.5a35.4 35.4 0 0 1-.7 2.8l3.8-4h1.7l-3.5 3.6 2.1 4.5h-1.5l-1.6-3.7-1.1.8-.6 3Zm0 0" style="fill:none;stroke-width:2;stroke-linecap:butt;stroke-linejoin:round;stroke:#fff;stroke-opacity:.6;stroke-miterlimit:10" transform=" rotate(  340 222.307 152.61) "/> <g style="fill:green;fill-opacity:1" transform=" rotate(  340 222.307 152.61) ">  <use xlink:href="#a" x="199.2" y="137.7"/>  <use xlink:href="#b" x="207.3" y="137.7"/>  <use xlink:href="#c" x="216" y="137.7"/>  <use xlink:href="#d" x="224.7" y="137.7"/>  <use xlink:href="#b" x="229.7" y="137.7"/>  <use xlink:href="#d" x="238.3" y="137.7"/>  <use xlink:href="#e" x="192.5" y="155.6"/>  <use xlink:href="#f" x="203.1" y="155.6"/>  <use xlink:href="#d" x="211.6" y="155.6"/>  <use xlink:href="#g" x="216.6" y="155.6"/>  <use xlink:href="#h" x="220.5" y="155.6"/>  <use xlink:href="#c" x="228.9" y="155.6"/>  <use xlink:href="#f" x="237.6" y="155.6"/>  <use xlink:href="#i" x="246.1" y="155.6"/>  <use xlink:href="#j" x="206" y="173.5"/>  <use xlink:href="#f" x="214.5" y="173.5"/>  <use xlink:href="#k" x="223.1" y="173.5"/>  <use xlink:href="#l" x="229" y="173.5"/> </g></svg>