<svg xmlns="http://www.w3.org/2000/svg" xmlns:xlink="http://www.w3.org/1999/xlink" viewBox="0 0 497 279"> <defs overflow="visible" style="stroke:none">  <path id="C" d="M1.8 0H1L.2-.2v-.9l.7.3 1 .1.8-.1.6-.4c.2-.2.2-.6.2-.8 0-.3 0-.5-.2-.7l-1-.6a4.4 4.4 0 0 1-.6-.5 1.9 1.9 0 0 1-.5-.6L1-5.2c0-.4.1-.8.4-1.1a2 2 0 0 1 .8-.7 3 3 0 0 1 1.2-.2h1l.8.5-.4.6-.6-.2-.8-.2c-.4 0-.7.2-1 .5-.4 0-.4.4-.4.8l.1.5.4.4.5.3.8.5a2 2 0 0 1 .5.6l.2.9c0 .6-.3 1.2-.8 1.5-.3.5-.9.6-1.8.6Zm0 0"/>  <path id="B" d="m.3 0 1.6-7.6h.9l-.5 2-.1.6-.2.6.6-.5.5-.4.9-.2c.3 0 .6.2.9.5.1 0 .3.5.3.9v.8L4.3 0h-.8l.8-3.4V-4l-.1-.5c-.2-.2-.3-.2-.6-.2-.2 0-.4 0-.6.2-.4.2-.6.5-.8.8-.2.3-.4.7-.5 1.4L1.2 0Zm0 0"/>  <path id="A" d="M-.2 0 0-.6l3.3-4.1H1l.1-.7h3.3l-.2.7L1-.7h2.5V0Zm0 0"/>  <path id="z" d="M1.8 0c-.3 0-.6 0-.8-.1C.7-.3.6-.6.6-1v-.8l.8-2.9h-1L.5-5l1-.5.5-1h.6l-.3 1h1.3l-.1.8H2.2l-.7 3v.8l.5.3h.3l.4-.3V0h-.9Zm0 0"/>  <path id="y" d="M.4 0 2-7.1h3.5l-.1.8H2.6l-.5 2.5h2.6l-.2.8H1.9l-.6 3Zm0 0"/>  <path id="x" d="M.8 0 .6-5.4h.8l.1 2.9v1.7a13.8 13.8 0 0 1 .5-1l.2-.5 1.4-3h1v2.7a25.5 25.5 0 0 1 .2 1.8l.3-.9.4-1 1.2-2.7h1L5 0h-.9l-.2-3v-1.4l-.3.6-.4.8-1.4 3Zm0 0"/>  <path id="w" d="M3.4 0c-.9 0-1.5 0-2-.5S.7-1.8.7-2.6.8-4 1-4.5c0-.5.4-.9.7-1.5l1.1-.9a3 3 0 0 1 1.5-.3c.8-.1 1.5.2 2 .7.3.5.5 1.2.5 2 .2.8.2 1.4-.1 1.9L6-1.2l-1.1.9c-.4.3-1 .3-1.5.3Zm0-.6a2 2 0 0 0 1-.4c.5-.2.6-.5 1-.8L5.8-3 6-4.5c0-.5-.2-1-.5-1.4-.3-.4-.7-.6-1.2-.6a2 2 0 0 0-1.1.3l-.8.8-.6 1.2a6 6 0 0 0-.1 1.5c0 .7.1 1.1.3 1.5.4.2 1 .5 1.4.5Zm0-.1"/>  <path id="v" d="M2 0c-.6 0-.9 0-1.2-.3C.6-.7.5-1 .5-1.7c0-.5 0-1 .2-1.4 0-.5.3-.9.5-1.2.2-.4.5-.7.8-.8a2 2 0 0 1 1.1-.4c.4 0 .7.1.9.3l.5.7a35.3 35.3 0 0 1 .2-1.3l.4-1.8H6L4.4 0h-.8l.1-1-.8.8c-.3.2-.6.2-.9.2Zm.1-.5c.4-.1.6-.2.9-.5l.5-.5.5-1 .2-1.1c0-.4-.2-.6-.3-.8-.1-.2-.4-.3-.7-.3-.3 0-.5 0-.8.2l-.4.7-.5 1-.1 1.1c0 .7.3 1 .8 1Zm.1-.1"/>  <path id="u" d="m-.2 0 .1-.5.8-.2L2-6.5l-.8-.1.1-.5h2.5l-.1.5-.9.1L1.6-.7l.8.2-.1.5Zm0 0"/>  <path id="t" d="m1.9 2.4-1-.1-.6-.2v-.9c.2.2.5.2.7.4a3 3 0 0 0 .8.1c.4 0 .8-.1 1-.3.3-.2.5-.6.6-1l.1-.4.1-.5.1-.5-.8.8c-.3.2-.6.2-.9.2s-.8-.1-1-.4C.6-.7.5-1 .5-1.7c0-.5 0-1 .2-1.4 0-.5.3-.9.5-1.2.2-.4.5-.7.8-.8a2 2 0 0 1 1.1-.4c.4 0 .7.1.9.3l.5.7.3-.9h.7L4.3.3c-.2.8-.5 1.3-.9 1.7-.4.2-1 .4-1.4.4Zm.3-3c.3 0 .5-.1.8-.4l.5-.5.5-1 .2-1.1c0-.4-.2-.6-.3-.8-.1-.2-.4-.3-.7-.3-.3 0-.5 0-.7.2-.3.2-.5.5-.6.7l-.4 1-.1 1.1c0 .7.3 1 .8 1Zm0 0"/>  <path id="s" d="M.4 0 2-7.1h1L2-3.7l.7-.6 2.7-2.8h1.1L3.5-4 5 0H4L2.7-3.5l-.7.7L1.3 0Zm0 0"/>  <path id="r" d="M-.3 2.4h-.3l-.4-.1v-.7h.7c.3.1.5.1.7-.1.2-.2.4-.5.5-.8l.4-.6-.8-5.5h.9l.3 2.7v.7l.2.7v.6A28.4 28.4 0 0 1 2.5-2c-.1 0 .1-.3.2-.4l1.5-3h1L1.7 1c-.1.4-.4.8-.7 1-.4.3-.8.4-1.2.4Zm0 0"/>  <path id="q" d="M2.5 0C1.9 0 1.4 0 1-.3.7-.7.5-1.2.5-2c0-.4 0-1 .2-1.3l.5-1c.3-.5.6-.7 1-1 .2-.1.6-.2.9-.2l.9.1.6.2-.2.7-.5-.1-.6-.1c-.4 0-.7.1-1 .4-.3.2-.5.6-.7 1A4 4 0 0 0 1.4-2c0 .5 0 .8.3 1 .2.2.5.3.9.3h.6a7 7 0 0 0 .6-.3v.8l-.6.2h-.7Zm0 0"/>  <path id="p" d="m.3 0 1.1-5.4h.7v1l.4-.5.5-.4.7-.2H4l.3.2-.2.7h-.5c-.3-.1-.6-.1-.9.2l-.7.9-.3 1L1.2 0Zm0 0"/>  <path id="o" d="M2.4 0c-.6 0-1 0-1.4-.3C.6-.8.5-1.3.5-2c0-.3 0-.8.2-1.2 0-.4.3-.8.5-1.1.2-.4.5-.7.8-.8a2 2 0 0 1 1.2-.4c.5 0 .8.2 1.1.5.3 0 .4.4.4.8 0 .3-.1.7-.3 1-.4.2-.6.4-1 .6-.6.2-1.2.3-1.9.3h-.1v.3c0 .5 0 .8.3 1 .2.3.5.4.9.4l.7-.1A5 5 0 0 0 4-1v.7a6 6 0 0 1-.7.3h-.9Zm-.9-3 1.3-.1.7-.4c.2-.1.3-.4.3-.5l-.1-.6-.7-.1c-.2 0-.5.1-.9.4L1.6-3Zm0 0"/>  <path id="n" d="m.2 0 1.2-5.4h.8l-.2 1 .5-.6a2 2 0 0 1 .6-.3l.9-.2c.3 0 .6.1.9.5.1 0 .4.4.4.9v.4l-.2.5L4.4 0h-.9l.7-3.4v-.4l.2-.2c-.1-.5-.3-.7-.8-.7-.2 0-.4 0-.6.2-.3.2-.6.5-.8.8-.2.3-.4.8-.5 1.4L1.2 0Zm0 0"/>  <path id="m" d="M2.5 0C1.9 0 1.4 0 1-.4.7-.8.5-1.3.5-2l.1-1.2a4 4 0 0 1 .5-1.1c.3-.3.5-.7.9-.8.3-.2.7-.3 1.2-.3.6 0 1 .2 1.4.4.4.5.6 1.1.6 1.6L5-2a4 4 0 0 1-.5.9c-.2.5-.5.8-.8 1L2.5 0Zm0-.6c.5-.1.6-.1 1-.4.1-.2.3-.5.5-1 .2-.3.3-.8.3-1.4L4.2-4a1 1 0 0 0-.4-.5l-.6-.2c-.4 0-.7.1-1 .4-.2.2-.5.6-.6 1A4 4 0 0 0 1.4-2c0 .5 0 .8.3 1 .2.2.5.3.8.3Zm0-.1"/>  <path id="l" d="M3.3 0c-.8 0-1.5 0-2-.5C1-1.1.8-1.8.8-2.6.7-3.1.7-3.5 1-4c-.1-.4 0-.8.3-1.2l.8-1L3-7l1.7-.2c.5 0 1.1.1 1.6.4l-.3.7a4 4 0 0 0-.7-.2l-.7-.2c-.6 0-1 .2-1.3.5-.4 0-.7.4-1 .8A4 4 0 0 0 1.9-4l-.2 1.3c0 .7.1 1.1.3 1.5.4.3 1 .5 1.4.5h.8L5-1v.8l-.8.2a5 5 0 0 1-1 0Zm0 0"/>  <path id="k" d="M1.5 0H.7L0-.2V-1l.7.3h.8c.5.1.7.1 1-.1l.1-.7c.1-.1.1-.3-.1-.4 0-.2-.3-.3-.7-.5L1-3.1c-.2-.2-.3-.5-.3-.8 0-.5.1-.9.5-1.1.3-.3.7-.5 1.3-.5.3 0 .6 0 .9.2l.6.2-.2.7-.5-.2-.8-.1c-.3 0-.5 0-.7.2-.2.1-.2.3-.2.5l.1.5.7.5c.3 0 .6.2.6.4.2 0 .4.2.5.4l.1.7c0 .5-.2 1-.5 1.2C2.7 0 2 0 1.5 0Zm0 0"/>  <path id="j" d="m.3 0 1.6-7.6h.9L1.2 0Zm0 0"/>  <path id="i" d="M2.7 0c-.4 0-.7 0-.9-.1a2 2 0 0 1-.5-.7L.9 0H.3l1.6-7.6h.9l-.4 1.8-.2.7a52.9 52.9 0 0 1-.2.7 5 5 0 0 1 .9-.6c.2-.3.6-.5.9-.5.5 0 .8.2 1 .5.5.3.6.8.6 1.4-.1.5-.1 1-.3 1.4L4.6-1l-.8.8a2 2 0 0 1-1.1.3Zm0-.5.5-.5c.4 0 .6-.3.8-.6a4 4 0 0 0 .3-1 5 5 0 0 0 .1-.9c0-.9-.3-1.2-.9-1.2-.2 0-.4 0-.5.2l-.8.7-.4 1c-.2.3-.2.7-.2 1.1 0 .3 0 .6.2.8.2.2.5.3.8.3Zm-.1-.1"/>  <path id="h" d="M1 0 .6-5.4h.8l.3 3v1.7h.2l.1-.5a24.4 24.4 0 0 1 .6-1.2l1.6-3h1L2.2 0Zm0 0"/>  <path id="g" d="M-.4 0 2-2.8.8-5.4h.9l.8 2 1.6-2H5L2.9-2.7 4 0h-.8l-.9-2L.7 0Zm0 0"/>  <path id="f" d="M1.9 0c-.4 0-.7 0-1-.1C.7-.5.5-.8.5-1.2v-.5L.8-2l.6-3.4h.9L1.4-2v1.2l.8.2c.2 0 .4-.1.8-.4l.6-.6.5-1.4.5-2.4h.9L4.4 0h-.8l.1-1-.5.5-.4.5-.9.1Zm0 0"/>  <path id="e" d="M.4 0 2-7.1h1L1.4-.8h2.8L4 0Zm0 0"/>  <path id="d" d="M2.1-6.3h-.3l-.1-.5.1-.4.4-.2c.3 0 .5.2.5.5 0 .2 0 .4-.2.5l-.4.2ZM.3 0l1.1-5.4h.9L1.2 0Zm0 0"/>  <path id="c" d="m.3 0 1.6-7.6h.9l-.8 3c.1.6 0 1-.2 1.3l-.1.5 2.5-2.6h1L3-3l1.4 3h-1L2.3-2.5l-.7.5-.4 2Zm0 0"/>  <path id="b" d="M2 0c-.6 0-.9 0-1.2-.3C.6-.7.5-1 .5-1.7c0-.5 0-1 .2-1.5l.5-1.1c.2-.4.5-.7.8-.9a2 2 0 0 1 1.1-.3c.4 0 .6.1.9.3l.5.7.3-.9h.7L4.4 0h-.7l.1-1c-.3.3-.5.6-.9.8-.3.2-.6.2-.9.2Zm.1-.5c.4-.1.6-.2.9-.5l.6-.6a4 4 0 0 0 .4-1 3 3 0 0 0 .1-.7 4 4 0 0 0 0-.4c.1-.3.1-.5-.1-.7-.3-.2-.5-.3-.8-.3-.3 0-.5 0-.7.2a2 2 0 0 0-.6.7l-.4 1-.1 1.1c0 .4 0 .6.2.8.1.2.3.3.6.3Zm.1-.1"/>  <path id="a" d="M.4 0 2-7.1h1l-.9 3h3.2l.7-3h.8L5.3 0h-.8l.7-3.3H2L1.3 0Zm0 0"/>  <path d="M1 0v-7.1h4V0Zm.4-.5h3.1v-6.1h-3Zm.1 0"/> </defs> <image xlink:href="svg/9/85_13.jpg" width="497" height="279"/> <path d="m18.1 232 1.6-7.3h.8l-.5 3.1h3l.7-3h.9l-1.6 7.1h-.8l.7-3.3h-3.2L19 232Zm8.4 0c-.5 0-.8 0-1-.4-.5-.3-.5-.8-.5-1.4 0-.5 0-1 .2-1.4l.5-1.2c.3-.3.5-.6.9-.8a2 2 0 0 1 1-.3c.4 0 .7 0 .9.3l.5.6.3-.8h.7l-1 5.3h-.8l.1-.9-.8.8c-.3.2-.7.2-1 .2Zm.2-.7c.3 0 .5 0 .8-.2l.5-.8a4 4 0 0 0 .6-1 3 3 0 0 0 0-.5 4 4 0 0 0 0-.5c.1-.3.1-.6-.1-.8-.3-.2-.5-.3-.8-.3-.2 0-.5.1-.7.3a2 2 0 0 0-.6.5l-.4 1.1v1.1c-.1.4-.1.8 0 .9l.7.2Zm3.8.7 1.5-7.7h1l-.7 3.1c0 .5-.2 1-.3 1.2v.6l2.4-2.6h1l-2.2 2.3 1.4 3h-1l-1.1-2.5-.7.6-.4 2Zm6.5 0c-.2 0-.6 0-1-.4-.2-.3-.4-.8-.4-1.4l.2-1.4c.2-.5.3-.9.6-1.2l.8-.8a2 2 0 0 1 1-.3c.5 0 .8 0 1.1.3l.2.6.5-.8h.6l-1 5.3h-.9l.2-.9c-.2.4-.5.6-.8.8-.3.2-.7.2-1.1.2Zm.5-.7c.1 0 .4 0 .5-.2l.7-.8a4 4 0 0 0 .5-1 3 3 0 0 0 0-.5 4 4 0 0 0 .2-.5c-.1-.3-.1-.6-.4-.8 0-.2-.4-.3-.6-.3-.4 0-.5.1-.8.3a2 2 0 0 0-.5.5l-.4 1.1-.2 1.1c0 .4 0 .8.2.9l.7.2Zm5.5-5.6-.4-.1-.1-.4.1-.4c.1-.2.4-.2.5-.2.3 0 .4.1.4.4 0 .3 0 .4-.2.5l-.3.2Zm-2 6.2 1.2-5.3h1.1l-1.3 5.3ZM46.4 232l1.6-7.3h1l-1.6 6.4h2.8l-.2.9Zm6.3 0c-.4 0-.8 0-1-.3-.2-.2-.4-.6-.4-1v-.4l.2-.4.6-3.3h1l-.9 3.4v1c.4.3.6.3.8.3.2 0 .4 0 .7-.2.2-.2.5-.4.7-.8.2-.3.4-.8.5-1.4l.5-2.3h.9l-1.3 5.3h-.6l.1-.9-.5.6-.6.3-.7.1Zm3.5 0 2.3-2.9-1.1-2.5h.9l.7 2 1.7-2h1l-2.2 2.6 1.2 2.8h-1l-.7-2-1.8 1.9Zm6.3 0-.6-5.5h.9l.2 3.1v1.7h.3l.2-.6a24.4 24.4 0 0 1 .5-1.2l1.6-3h1l-3 5.5Zm6.3 0c-.4 0-.8 0-1-.2a2 2 0 0 1-.3-.8l-.5 1h-.6l1.6-7.6h.8l-.3 1.6-.2.8a52.9 52.9 0 0 1-.2.8 5 5 0 0 1 .9-.8c.2-.2.5-.3 1-.3s.7.1 1 .5c.3.3.5.7.5 1.3-.1.5-.1 1-.3 1.4l-.5 1.3c-.2.3-.5.5-.8.7a2 2 0 0 1-1.1.3Zm-.1-.7c.3 0 .5 0 .7-.2l.6-.7a4 4 0 0 0 .4-1 5 5 0 0 0 0-1.1c.1-.7-.1-1-.7-1-.3-.1-.5-.1-.7.1-.3.2-.5.5-.7.6l-.5 1.1-.1 1.1c0 .4 0 .6.2.8.2.2.4.3.8.3Zm5.1.7c-.4 0-.8 0-1-.4-.3-.3-.4-.8-.4-1.4l.1-1.4.6-1.2.8-.8a2 2 0 0 1 1.1-.3c.4 0 .7 0 1 .3l.2.6.6-.8h.6l-1.2 5.3h-.7l.2-.9-1 .8c-.2.2-.5.2-.9.2Zm.3-.7c.2 0 .5 0 .7-.2.2-.2.5-.5.6-.8a4 4 0 0 0 .6-1 3 3 0 0 0 0-.5 4 4 0 0 0 0-.5c0-.3 0-.6-.2-.8-.2-.2-.4-.3-.8-.3-.2 0-.4.1-.6.3a2 2 0 0 0-.6.5l-.4 1.1-.2 1.1c0 .4.1.8.3.9l.5.2ZM77.8 232l1.6-7.7h1l-1.8 7.6Zm4.5-6.3-.4-.1-.1-.4.1-.4c.1-.2.3-.2.5-.2.3 0 .4.1.4.4 0 .3 0 .4-.2.5l-.3.2Zm-1.9 6.2 1.2-5.3h.8l-1.1 5.3Zm3.9.1h-.9l-.6-.4v-.6l.6.2.8.1c.4 0 .8 0 1-.2l.1-.6c.1-.2.1-.5-.1-.5l-.7-.5-.8-.5-.3-1c0-.4.2-.8.5-1 .3-.5.8-.6 1.3-.6l.9.2c.3 0 .5.2.7.3l-.2.7-.6-.3h-1.5l-.2.7.1.4.7.6.7.3.4.5.1.6c0 .5-.2 1-.5 1.2-.4.4-1 .4-1.5.4Zm-56.6 12c-.8 0-1.4-.3-1.9-.7-.4-.5-.7-1.3-.7-2 0-.5 0-.9.2-1.3 0-.5.2-1 .4-1.3l.8-1c.3-.5.7-.7 1-.9l1.5-.2c.7 0 1.2.2 1.7.4l-.3.8a4 4 0 0 0-.6-.3H29c-.5-.1-1-.1-1.3.2-.4.3-.7.6-1 1a4 4 0 0 0-.3 1.2c-.4.4-.4.9-.4 1.3 0 .6.2 1.1.5 1.5.5.3.8.5 1.3.5h.8l.8-.4v.9l-.8.2a5 5 0 0 1-1 0Zm5.1 0c-.8 0-1.1-.2-1.5-.6-.4-.4-.5-.9-.5-1.4l.1-1.3a4 4 0 0 1 .5-1.1c.3-.4.6-.6.9-.8.3-.2.7-.4 1.1-.4.7 0 1.2.2 1.6.6.3.4.4 1 .4 1.5l-.1 1.2a4 4 0 0 1-.5 1.3c-.2.2-.5.5-.9.7-.3.2-.7.3-1.1.3Zm0-.8c.3 0 .6 0 .9-.2.2-.3.5-.6.6-1.1.2-.4.3-.9.3-1.5 0-.2 0-.4-.2-.6a1 1 0 0 0-.3-.4c-.2-.2-.4-.2-.6-.2-.5 0-.7.1-1 .4-.3.2-.5.4-.6 1a4 4 0 0 0-.2 1.3c0 .4 0 .8.3 1.1.2.1.4.2.8.2Zm3.3.7 1.2-5.4h.8l-.1 1 .4-.5a2 2 0 0 1 .6-.4l.8-.2c.4 0 .8.1 1 .4.3.2.4.5.4 1v.3l-.2.5-.6 3.4h-1l.7-3.5.1-.4v-.3c0-.4-.2-.6-.6-.6-.3 0-.6 0-.8.2-.2.2-.5.4-.7.8-.1.3-.4.8-.5 1.4l-.5 2.3Zm7.2.1-1-.1c-.1 0-.3-.2-.4-.3v-.8l.5.3.8.2c.4 0 .8-.1 1-.3l.1-.6c.1-.2.1-.3-.1-.4l-.7-.6-.8-.6c-.2-.2-.3-.5-.3-.9s.2-.8.5-.9c.3-.4.7-.6 1.3-.6l.9.1.7.3-.3.7-.5-.2-.8-.1c-.3 0-.5 0-.7.2-.2.1-.2.3-.2.5l.1.5.7.4.6.4.6.5v.6c0 .7-.2 1-.5 1.3-.4.2-1 .4-1.5.4Zm5.1 0c-.6 0-1-.2-1.4-.6-.3-.3-.5-.8-.5-1.4 0-.5 0-1 .2-1.3l.5-1.1c.2-.4.5-.7.9-.9a2 2 0 0 1 .9-.3c.8 0 1.2.1 1.4.4.2.2.3.5.3.9l-.3 1-1 .5c-.5.3-1 .4-1.8.4h-.2v.3c0 .4.1.8.3 1.1.2.1.5.3.9.3.3 0 .5 0 .7-.3a5 5 0 0 0 .8-.2v.8a6 6 0 0 1-.8.3h-.9Zm-.9-3.1h.1l1.1-.1.8-.4c.2-.2.5-.4.5-.7l-.3-.4-.7-.2c-.2 0-.5.2-.8.5-.3.3-.5.7-.7 1.3Zm3.8 3 1.1-5.4h.8l-.2 1 .6-.5.4-.4.7-.2h.6l-.2 1h-.5c-.3-.2-.6-.2-.9.1-.2.3-.5.5-.6.9l-.4 1-.5 2.6Zm4.7 0-.4-5.4h.8l.3 3v1.7l.3-.6.4-.6.2-.5 1.6-3h1l-3 5.5Zm5.6.1c-.4 0-.8-.2-1-.5-.3-.3-.6-.7-.6-1.4l.3-1.4.7-1.2.7-.8a2 2 0 0 1 1-.3c.5 0 .8.1 1.1.3l.2.7.6-.9h.6L64 244h-.7l.2-1.1-1 .8c-.2.2-.5.3-.9.3Zm.3-.7c.1 0 .5-.1.7-.3.2-.2.5-.4.6-.7a4 4 0 0 0 .5-1 3 3 0 0 0 0-.7 4 4 0 0 0 .2-.4c-.1-.2-.1-.5-.3-.7-.2-.2-.4-.3-.7-.3-.3 0-.5 0-.9.2a2 2 0 0 0-.4.7l-.4.9-.2 1c0 .6.1.9.3 1 .1.2.3.3.6.3Zm3.7.6 1.1-5.4h.8v1c-.1-.2.1-.5.3-.5a2 2 0 0 1 .7-.4l.7-.2c.5 0 .8.1 1 .4.3.2.4.5.4 1v.3l-.1.5-.7 3.4h-1l.8-3.5v-.7c.1-.4-.1-.6-.6-.6-.2 0-.5 0-.7.2l-.8.8-.5 1.4-.5 2.3Zm8 .1c-.6 0-1-.2-1.4-.5-.4-.5-.6-.9-.6-1.5 0-.5 0-1 .2-1.4.1-.4.3-.8.6-1.1l.8-.8 1.2-.3.7.1.6.2-.2.7-.5-.2h-.6c-.4 0-.7.1-1 .4-.3.2-.4.4-.7 1a4 4 0 0 0-.2 1.4c0 .4.1.7.3 1 .2 0 .5.2.9.2h.7a7 7 0 0 0 .6-.3v.8l-.6.2h-.8Zm1.8 2.3H75l-.3-.1v-.7h.7c.2.1.5.1.6-.1.3-.2.4-.4.6-.8l.4-.6-1-5.5h1.1l.2 2.7v1.4l.3.6a28.4 28.4 0 0 1 .4-1.2l.3-.5 1.7-3h.9l-3.6 6.3c-.2.5-.3.9-.7 1.1-.3.3-.7.4-1.2.4Zm0 0" style="fill:none;stroke-width:2;stroke-linecap:butt;stroke-linejoin:round;stroke:#fff;stroke-opacity:.6;stroke-miterlimit:10" transform=" rotate(  340 53.2942 234.914) "/> <g style="fill:green;fill-opacity:1" transform=" rotate(  340 53.2942 234.914) ">  <use xlink:href="#a" x="17.7" y="231.9"/>  <use xlink:href="#b" x="24.5" y="231.9"/>  <use xlink:href="#c" x="30.2" y="231.9"/>  <use xlink:href="#b" x="35.1" y="231.9"/>  <use xlink:href="#d" x="40.8" y="231.9"/>  <use xlink:href="#glyph0-5" x="43.4" y="231.9"/>  <use xlink:href="#e" x="46" y="231.9"/>  <use xlink:href="#f" x="50.8" y="231.9"/>  <use xlink:href="#g" x="56.6" y="231.9"/>  <use xlink:href="#h" x="61.4" y="231.9"/>  <use xlink:href="#i" x="66.1" y="231.9"/>  <use xlink:href="#b" x="71.9" y="231.9"/>  <use xlink:href="#j" x="77.5" y="231.9"/>  <use xlink:href="#d" x="80.1" y="231.9"/>  <use xlink:href="#k" x="82.7" y="231.9"/>  <use xlink:href="#l" x="24.4" y="243.9"/>  <use xlink:href="#m" x="30.3" y="243.9"/>  <use xlink:href="#n" x="35.9" y="243.9"/>  <use xlink:href="#k" x="41.7" y="243.9"/>  <use xlink:href="#o" x="46" y="243.9"/>  <use xlink:href="#p" x="51" y="243.9"/>  <use xlink:href="#h" x="55" y="243.9"/>  <use xlink:href="#b" x="59.7" y="243.9"/>  <use xlink:href="#n" x="65.3" y="243.9"/>  <use xlink:href="#q" x="71.1" y="243.9"/>  <use xlink:href="#r" x="75.7" y="243.9"/> </g> <path d="m118 100.2 1.3-7.1h1.1l-.9 3.5.7-.7 2.8-2.8h1l-3 3.1 1.5 4h-.9l-1.3-3.4-.9.6-.6 2.8Zm7.3-6.2-.4-.1-.1-.4.1-.4c.1-.2.3-.2.5-.2.3 0 .4.1.4.4l-.1.5-.4.2Zm-1.9 6.2 1.2-5.2h.8l-1.1 5.2Zm2.6 0 1-5.4h1l-.2 1 .4-.5a2 2 0 0 1 .6-.3l.8-.3c.4 0 .8.3 1 .4.4.2.4.6.4 1v.5l-.2.4-.6 3.2h-1l.8-3.2v-.8c0-.4-.2-.7-.6-.7-.4 0-.5.1-.8.3l-.6.7c-.3.5-.5.8-.6 1.5l-.4 2.2Zm7.4 2.4h-1l-.5-.4v-.7l.6.3a3 3 0 0 0 .8.1c.5 0 .8-.1 1-.3.4-.2.6-.6.7-1v-.4l.1-.5.2-.5-1 .8c-.1.2-.5.3-.9.3s-.7-.1-1-.3c-.3-.4-.4-1-.4-1.5s0-1 .2-1.4c0-.4.3-.8.5-1.1l.8-.9a2 2 0 0 1 1.1-.3c.4 0 .7 0 .9.2.2.2.4.4.5.7l.4-.8h.6l-1.2 5.6c-.2.8-.5 1.3-.8 1.7-.5.3-1 .4-1.6.4Zm.3-3c.3 0 .5 0 .7-.2.2-.2.6-.4.6-.7l.5-1 .2-1.1c0-.3-.1-.6-.3-.8-.1-.2-.4-.3-.7-.3-.3 0-.5.1-.7.3-.3.1-.4.4-.6.7-.2.2-.4.5-.4 1v.9c-.1.8.2 1.2.7 1.2Zm6 .6.1-.5.9-.2 1.2-5.7-.9-.2.2-.6h2.5v.6l-1.1.2-1.1 5.7.8.2-.1.5Zm5 .1h-.9l-.6-.3v-.8l.6.3.9.1c.3 0 .7 0 .9-.2l.3-.6-.2-.5-.7-.5c-.4-.2-.7-.4-1-.8 0 0-.2-.4-.2-.7 0-.5.2-.8.5-1.1.3-.3.8-.4 1.3-.4h1c.1.2.4.2.6.4l-.2.6-.6-.2H145c-.2.4-.3.4-.3.6s0 .4.2.5l.7.5.6.4.4.4.2.7c0 .5-.2 1-.6 1.2-.4.3-.9.4-1.5.4Zm3-.1 1.7-7.6h.8l-1.6 7.6Zm4.3.1c-.4 0-.8-.1-1-.3-.4-.4-.6-1-.6-1.5.1-.5.1-1 .3-1.4.1-.5.3-.9.6-1.2.2-.4.5-.6.7-.9a2 2 0 0 1 1-.2c.6 0 .9 0 1.2.2l.2.7.6-.8h.5l-1.1 5.3h-.7l.1-1-.8.8c-.3.2-.7.3-1 .3Zm.3-.7c.2 0 .4 0 .7-.3l.6-.7a4 4 0 0 0 .5-1 3 3 0 0 0-.1-.6 4 4 0 0 0 .3-.4c-.1-.3-.1-.6-.4-.8-.1-.2-.4-.3-.7-.3-.2 0-.5.1-.7.3a2 2 0 0 0-.5.6l-.4 1-.2 1.1c0 .5 0 .7.2.8.2.2.4.3.7.3Zm3.7.6 1-5.4h1l-.2 1 .4-.5a2 2 0 0 1 .6-.3l.8-.3c.4 0 .8.3 1 .4.4.2.4.6.4 1v.5l-.2.4-.6 3.2h-1l.8-3.2v-.8c0-.4-.2-.7-.6-.7-.4 0-.5.1-.8.3l-.6.7c-.3.5-.5.8-.6 1.5l-.4 2.2Zm7.4.1c-.4 0-.7-.1-1-.3-.3-.4-.4-1-.4-1.5s0-1 .2-1.4c0-.4.3-.8.5-1.1l.8-.9a2 2 0 0 1 1.1-.3c.4 0 .7 0 .9.2.2.2.4.4.5.7a35.3 35.3 0 0 1 .2-1.3l.4-1.8h.9l-1.6 7.6h-.7v-1l-.8.8c-.3.2-.6.3-1 .3Zm.3-.7c.3 0 .5 0 .7-.2l.6-.7.5-1 .2-1.1c0-.3 0-.6-.3-.8-.1-.2-.4-.3-.7-.3-.3 0-.5.1-.8.3-.2.1-.3.4-.5.7-.2.2-.4.5-.4 1v.9c-.1.8.2 1.2.7 1.2Zm0 0" style="fill:none;stroke-width:2;stroke-linecap:butt;stroke-linejoin:round;stroke:#fff;stroke-opacity:.6;stroke-miterlimit:10" transform=" rotate(  340 142.326 97.2315) "/> <g style="fill:#000;fill-opacity:1" transform=" rotate(  340 142.326 97.2315) ">  <use xlink:href="#s" x="117.5" y="100.2"/>  <use xlink:href="#d" x="123.1" y="100.2"/>  <use xlink:href="#n" x="125.7" y="100.2"/>  <use xlink:href="#t" x="131.5" y="100.2"/>  <use xlink:href="#glyph0-5" x="137.3" y="100.2"/>  <use xlink:href="#u" x="139.9" y="100.2"/>  <use xlink:href="#k" x="143.1" y="100.2"/>  <use xlink:href="#j" x="147.5" y="100.2"/>  <use xlink:href="#b" x="150" y="100.2"/>  <use xlink:href="#n" x="155.7" y="100.2"/>  <use xlink:href="#v" x="161.5" y="100.2"/> </g> <path d="M247.7 249c-.9 0-1.5-.3-2-.8s-.7-1.2-.7-2c0-.6 0-1.2.3-1.8 0-.4.4-1 .7-1.4.3-.4.7-.8 1-1a3 3 0 0 1 1.6-.4c.8 0 1.5.4 2 .8.4.5.5 1.2.5 2 .1.6.1 1.2-.1 1.8l-.7 1.4c-.3.4-.7.8-1.1 1-.4.2-1 .4-1.5.4zm0-.8a2 2 0 0 0 1-.3c.5-.2.7-.5 1-.9l.3-1.2.2-1.4c0-.6-.1-1.1-.4-1.4-.3-.4-.7-.6-1.2-.6a2 2 0 0 0-1.1.3l-.8.8c-.3.3-.4.7-.7 1.2a6 6 0 0 0 0 1.5c0 .6 0 1 .4 1.4.3.4.8.6 1.3.6zm4.6.7-.2-5.4h.8l.1 2.9v1.6a13.8 13.8 0 0 1 .4-.9l.3-.7 1.3-2.9h1l.1 2.9a25 25 0 0 1 .1 1.6l.4-.9.4-.9 1.2-2.7h1l-2.7 5.4h-.9l-.2-3v-1.5l-.4.6-.3 1-1.4 2.9zm8.6-6.3-.4-.1-.1-.5.1-.3.5-.2c.3 0 .4.2.4.5l-.1.4-.4.2zM259 249l1.2-5.5h.8l-1 5.4zm2.6-.1 1.6-7.6h.8l-.6 3c0 .5-.2 1-.3 1.2l-.1.6 2.5-2.6h1l-2.1 2.3 1.3 3h-1l-1.1-2.4-.7.6-.4 2zm6.9.1c-.6 0-1.1-.2-1.5-.6-.3-.3-.4-.8-.4-1.4l.1-1.3.6-1.2.7-.8a2 2 0 0 1 1.2-.3c.5 0 1 .1 1.2.3.2.3.4.6.4 1 0 .3-.2.6-.4 1l-1 .5c-.4.3-1 .4-1.8.4h-.1v.3c-.1.4-.1.7.1 1.1.4 0 .6.2 1.1.2h.6a5 5 0 0 0 .7-.5v.9a6 6 0 0 1-.6.2l-1 .2zm-1-3.2h1.3l.9-.5c.1-.1.2-.3.2-.6 0-.2 0-.3-.2-.4l-.5-.2c-.3 0-.7.2-1 .5-.2.3-.5.7-.6 1.2zM271.3 248.9l1.1-5.4h.8v1c-.1-.2.1-.5.3-.5a2 2 0 0 1 .7-.4c.2-.2.4-.2.7-.2.5 0 .8.1 1.1.3.2.3.3.6.3 1v.9l-.9 3.4h-.9l.9-3.5v-.7c0-.4-.2-.6-.6-.6-.3 0-.6 0-.8.2-.3.2-.5.4-.7.8-.3.3-.4.8-.6 1.4l-.5 2.3zm8 .1c-.6 0-1-.3-1.3-.7-.5-.3-.7-.8-.7-1.4 0-.4 0-.9.2-1.2a4 4 0 0 1 .5-1.1c.2-.4.5-.7.8-.9l1.2-.3c.6 0 1.1.2 1.5.6.3.4.5.9.5 1.5 0 .4 0 .8-.2 1.2a4 4 0 0 1-.5 1.1c-.2.4-.5.6-.8.8-.3.2-.7.4-1.2.4zm0-.9c.5.1.7 0 1.1-.1l.5-1.1.1-1.5v-.6a1 1 0 0 0-.4-.5l-.6-.1c-.3 0-.7 0-1 .3l-.5 1a4 4 0 0 0-.3 1.5c0 .3.1.7.3 1 .2 0 .5.2.9.2zM238.7 260.9c-.8 0-1.4-.2-1.9-.7-.4-.5-.7-1.2-.7-2 0-.4 0-.9.2-1.3 0-.5.2-.9.4-1.3l.8-1 1.1-.8 1.4-.2c.7 0 1.2.1 1.7.4l-.3.7a4 4 0 0 0-.6-.2l-.8-.1c-.5 0-1 0-1.3.3-.4.2-.7.5-.9.9a4 4 0 0 0-.5 1.2l-.3 1.3c.1.7.2 1.1.6 1.5.3.3.7.5 1.2.5h.8l.8-.4v.9l-.8.2a5 5 0 0 1-1 .2zm5.1 0c-.6 0-1.1-.2-1.5-.6-.3-.3-.5-.8-.5-1.5l.1-1.2a4 4 0 0 1 .5-1.1c.3-.3.6-.6.9-.8.3-.2.7-.3 1.2-.3s1 .2 1.4.5c.4.4.6 1.1.6 1.5l-.2 1.3a4 4 0 0 1-.5 1c-.2.5-.5.8-.8 1l-1.2.2zm0-.9c.3.1.6.1.9-.2.3-.2.5-.5.6-1 .2-.3.3-.8.3-1.3l-.1-.7a1 1 0 0 0-.5-.5l-.5-.3c-.5.1-.7.2-1 .5-.3.2-.5.5-.5 1a4 4 0 0 0-.3 1.4c0 .4 0 .7.3 1l.8.1zM247.2 260.8l1.1-5.4h.8l-.1 1 .4-.5a2 2 0 0 1 .6-.4l.8-.2c.4 0 .8.1 1 .4.3.2.4.5.4 1v.3l-.2.6-.6 3.2h-1l.7-3.4.1-.3v-.3c0-.5-.2-.8-.6-.8-.3.1-.6.2-.8.4l-.7.6c-.1.4-.4.9-.5 1.5l-.5 2.3zm7.1.1-.9-.1-.6-.2v-.8l.6.2h.8c.4.2.8.2 1 0l.1-.6c.1-.2.1-.4-.1-.5 0-.2-.2-.3-.7-.5l-.8-.7c-.2-.2-.3-.5-.3-.7 0-.6.2-1 .5-1.2.3-.3.8-.4 1.3-.4h1l.5.4-.1.6-.6-.2-.8-.1c-.2-.1-.5-.1-.7.2l-.2.5.1.5.8.5c.2 0 .4.2.6.4l.4.4.1.7c0 .5-.1 1-.5 1.2-.4.3-1 .4-1.5.4zm5.2 0c-.7 0-1.1-.2-1.5-.5-.3-.4-.5-.9-.5-1.5 0-.4 0-.9.2-1.3l.5-1.1c.3-.5.5-.6.9-.8a2 2 0 0 1 .9-.3c.8 0 1.2 0 1.4.3.2.2.3.5.3.9 0 .3 0 .7-.3 1-.2.2-.6.4-1 .6-.5.2-1 .3-1.8.3h-.2v.4c0 .4.1.7.3 1 .3.1.5.2 1 .2l.5-.1a5 5 0 0 0 .9-.2v.7a6 6 0 0 1-.8.3l-.8.1zm-1-3.1h.2l1-.1c.4 0 .6-.2.9-.4.2-.1.3-.3.3-.6l-.2-.5-.7-.1c-.2-.1-.5.1-.8.4-.2.3-.5.7-.6 1.3zM262.3 260.8l1.1-5.4h.8l-.2 1 .5-.4.6-.5.6-.1h.6l-.2.8h-.5c-.3-.1-.6-.1-.9.2l-.6.9-.4 1-.5 2.6zm4.8 0-.6-5.4h.9l.3 3v1.7h.2l.2-.5a24.4 24.4 0 0 1 .5-1.2l1.6-3h1l-3 5.4zm5.5.1c-.4 0-.8-.1-1-.5-.3-.3-.4-.7-.4-1.3l.1-1.5.7-1.1c0-.5.4-.7.7-.9a2 2 0 0 1 1-.2c.5 0 .8 0 1.1.2l.2.7.6-.9h.6l-1.2 5.4h-.7l.2-1-1 .8c-.2.2-.5.3-.9.3zm.4-.7.6-.3.7-.7a4 4 0 0 0 .4-1 3 3 0 0 0 .1-.7 4 4 0 0 0 0-.4c0-.3 0-.5-.2-.7-.2-.2-.4-.4-.7-.4-.3 0-.5 0-.7.3a2 2 0 0 0-.6.7l-.4 1-.2 1c0 .5 0 .7.3.9.1.2.3.3.6.3zm3.6.6 1.1-5.4h.8v1c-.1-.2.1-.3.3-.5a2 2 0 0 1 .7-.4l.7-.2c.5 0 .8.1 1 .4.3.2.4.5.4 1v.9l-.9 3.2h-.9l.9-3.4v-.6c0-.5-.2-.8-.7-.8-.2.1-.5.2-.7.4-.3.1-.5.4-.7.6-.3.4-.4.9-.6 1.5l-.5 2.3zm8 .1c-.6 0-1-.2-1.4-.5-.4-.3-.6-.8-.6-1.5 0-.5 0-1 .2-1.4.2-.4.3-.8.6-1 .2-.5.5-.8.9-1 .3-.1.7-.1 1.1-.1h.7l.7.2-.3.7-.5-.1-.6-.2c-.3 0-.7.2-1 .5-.3.2-.4.5-.6 1a4 4 0 0 0-.3 1.4c0 .4.1.7.3 1 .3.1.5.3 1 .3l.5-.2a7 7 0 0 0 .7-.1v.7l-.6.2-.8.1zm1.8 2.3h-.4l-.3-.2v-.6h.7c.3.1.5.1.6-.1.3-.2.4-.5.6-.8l.4-.5-.8-5.6h.8l.4 2.7v.7l.2.7v.6a28.6 28.6 0 0 1 .4-1.2l.3-.5 1.7-3h.9l-3.6 6.3c-.1.5-.3.9-.7 1.1-.3.3-.7.4-1.2.4zm0 0" style="fill:none;stroke:#fff;stroke-width:2;stroke-linecap:butt;stroke-linejoin:round;stroke-miterlimit:10;stroke-opacity:.6" transform="rotate(  340 311.73 203.766) translate(47.64881,-48.066782)"/> <g style="fill:#007f00;fill-opacity:1" transform=" rotate(  340 311.73 203.766) ">  <use xlink:href="#w" x="291.9" y="200.8"/>  <use xlink:href="#x" x="299.2" y="200.8"/>  <use xlink:href="#d" x="306.4" y="200.8"/>  <use xlink:href="#c" x="309" y="200.8"/>  <use xlink:href="#o" x="313.7" y="200.8"/>  <use xlink:href="#n" x="318.7" y="200.8"/>  <use xlink:href="#m" x="324.5" y="200.8"/>  <use xlink:href="#l" x="283.1" y="212.7"/>  <use xlink:href="#m" x="288.9" y="212.7"/>  <use xlink:href="#n" x="294.6" y="212.7"/>  <use xlink:href="#k" x="300.4" y="212.7"/>  <use xlink:href="#o" x="304.7" y="212.7"/>  <use xlink:href="#p" x="309.7" y="212.7"/>  <use xlink:href="#h" x="313.7" y="212.7"/>  <use xlink:href="#b" x="318.3" y="212.7"/>  <use xlink:href="#n" x="324" y="212.7"/>  <use xlink:href="#q" x="329.8" y="212.7"/>  <use xlink:href="#r" x="334.3" y="212.7"/> </g> <path d="m74.6 267 1.4-7.3h3.7l-.2.9h-2.7l-.5 2.5h2.5l-.1.9H76l-.5 3zm6.4-6.3-.2-.1-.2-.4.1-.4c.1-.2.3-.2.5-.2.3 0 .4.1.4.4l-.1.5-.5.2zm-1.7 6.2 1.1-5.3h.8l-1.1 5.3zM83.4 267c-.4 0-.7 0-1-.2-.1-.2-.2-.5-.2-1v-.5l.7-3.1H82v-.2l1-.5.5-1.1h.5l-.2 1.2h1.4l-.2.7h-1.3l-.7 2.9v1l.6.1h.2l.4-.1v.7h-.4a2 2 0 0 1-.4.1zm1.3 0 .1-.7 3.3-4.1h-2.3l.2-.6h3.2l-.1.7-3.3 4h2.6l-.2.6zm7.6 0 1.5-7.3h.9l-.6 3.1h3.1l.6-3h1l-1.7 7.1h-.8l.7-3.3h-3l-.8 3.4zm8.3 0c-.4 0-.8 0-1-.3-.2-.2-.4-.6-.4-1v-.4l.2-.4.6-3.3h1l-.9 3.4v1c.4.3.6.3.8.3.2 0 .4 0 .7-.2.2-.2.4-.4.7-.8.2-.3.4-.8.5-1.4l.5-2.3h.9l-1.2 5.3h-.7l.1-.9-.5.6-.6.3-.7.1zm5.7 2.4c-.3 0-.6 0-.9-.2l-.7-.2v-.8l.7.3a3 3 0 0 0 .9.1c.4 0 .8 0 1-.3.3-.2.5-.5.7-1v-.3l.2-.6v-.4l-.8.7c-.3.3-.6.3-1 .3s-.8 0-1-.4c-.4-.3-.4-.8-.4-1.4v-1.4l.7-1.2.8-.8a2 2 0 0 1 1-.3c.5 0 .8 0 1.1.3l.3.6.5-.8h.6l-1.2 5.7c-.2.7-.5 1.2-.9 1.6-.4.3-1 .5-1.6.5zm.4-3 .7-.4.6-.6.5-1 .1-1.1c0-.3 0-.6-.2-.8-.2-.2-.4-.3-.7-.3-.3 0-.7.1-.8.3l-.5.7-.4 1-.1.9c0 .9.1 1.2.8 1.2zm3.8.6 1.7-7.7h.8l-.4 2.1-.1.4-.2.8.5-.6.6-.3.6-.2c.6 0 1 .1 1.1.3.3.3.4.6.4 1v.6l-.1.3-.7 3.2h-.9l.7-3.3.1-.7c0-.2 0-.4-.2-.5 0-.1-.2-.2-.4-.2-.3 0-.6.1-.8.3-.3.1-.5.4-.8.7l-.4 1.4-.6 2.4zM83 279l-1-.1-.7-.2v-1l.7.5h1l.7-.1.7-.5.2-.6c0-.4 0-.6-.2-.8l-1-.7a4.4 4.4 0 0 1-.6-.4 1.9 1.9 0 0 1-.5-.6l-.3-.8c.1-.4.2-.7.4-1.1a2 2 0 0 1 .9-.7 3 3 0 0 1 1.2-.2h1l.8.5-.4.6-.6-.2-.8-.2c-.5 0-.8.1-1 .4-.3.2-.5.5-.5.9l.2.5.3.3.6.5.8.4a2 2 0 0 1 .5.6l.2.8c0 .7-.3 1.3-.8 1.6-.4.4-1 .6-1.8.6zm5.6 0c-.6 0-1.1-.2-1.4-.6-.4-.4-.6-.9-.6-1.4 0-.5 0-.9.2-1.3a4 4 0 0 1 .5-1.1c.2-.4.5-.6.7-.8.5-.2 1-.4 1.3-.4.6 0 1.1.2 1.5.6.2.4.5 1 .5 1.5s0 .8-.3 1.2a4 4 0 0 1-.4 1.3l-.8.7c-.3.2-.8.3-1.2.3zm0-.8c.4 0 .8 0 1.1-.2l.4-1.1.3-1.5-.1-.6a1 1 0 0 0-.4-.4c-.1-.2-.3-.2-.6-.2s-.7.1-1 .4l-.5 1a4 4 0 0 0-.3 1.3c0 .5.1.8.3 1.1.2.1.5.2.9.2zm5.1.8c-.5 0-.8-.1-1-.3-.3-.3-.4-.7-.4-1v-.5l.1-.4.7-3.3h1l-.9 3.5v.6c0 .2 0 .3.2.4l.5.3c.2 0 .5-.1.7-.3.4 0 .5-.4.8-.8.2-.2.4-.8.5-1.4l.5-2.3h.9L96 279h-.6l.1-1.1-.5.5-.6.4-.7.2zm4.1-.1 1.1-5.4h.8v1c-.1-.2.1-.5.3-.5a2 2 0 0 1 .7-.4l.7-.2c.6 0 .8.1 1 .4.3.2.4.5.4 1v.7l-.8 3.5h-1l.9-3.5v-.7c0-.4-.2-.6-.6-.6-.3 0-.6 0-.8.2-.3.2-.5.4-.7.8-.3.3-.4.8-.6 1.4l-.5 2.3zm7.5.1c-.4 0-.8-.2-1-.5-.3-.3-.6-.7-.6-1.3.1-.5.1-1 .3-1.4l.5-1.2c.3-.4.5-.7.9-.9a2 2 0 0 1 1-.3c.5 0 .8.1 1.1.3l.2.7a35.3 35.3 0 0 1 .5-1.4l.2-1.7h1l-1.8 7.6h-.6v-1l-.8.8c-.2.2-.6.3-1 .3zm.3-.7.6-.3.8-.6.3-1c.2-.4.2-.8.2-1.2 0-.2 0-.5-.2-.7-.3-.2-.4-.3-.8-.3-.3 0-.5 0-.7.2l-.6.7-.4 1v.9c-.1 1 .2 1.4.7 1.4zm0 0" style="fill:none;stroke:#fff;stroke-width:2;stroke-linecap:butt;stroke-linejoin:round;stroke-miterlimit:10;stroke-opacity:.6" transform="rotate(  340 94.6708 145.779) translate(0,-124.13769)"/> <g style="fill:#4c7fb3;fill-opacity:1" transform=" rotate(  340 94.6708 145.779) ">  <use xlink:href="#y" x="74.2" y="142.8"/>  <use xlink:href="#d" x="78.9" y="142.8"/>  <use xlink:href="#z" x="81.5" y="142.8"/>  <use xlink:href="#A" x="84.8" y="142.8"/>  <use xlink:href="#glyph0-5" x="89.3" y="142.8"/>  <use xlink:href="#a" x="91.9" y="142.8"/>  <use xlink:href="#f" x="98.7" y="142.8"/>  <use xlink:href="#t" x="104.5" y="142.8"/>  <use xlink:href="#B" x="110.3" y="142.8"/>  <use xlink:href="#C" x="81.1" y="154.7"/>  <use xlink:href="#m" x="86.1" y="154.7"/>  <use xlink:href="#f" x="91.8" y="154.7"/>  <use xlink:href="#n" x="97.6" y="154.7"/>  <use xlink:href="#v" x="103.3" y="154.7"/> </g></svg>