<svg xmlns="http://www.w3.org/2000/svg" xmlns:xlink="http://www.w3.org/1999/xlink" viewBox="0 0 497 279"> <defs overflow="visible" style="stroke:none">  <path id="y" d="M2.7 0c-.4 0-.7 0-.9-.1a2 2 0 0 1-.5-.7L.9 0H.3l1.6-7.6h.9l-.4 1.8-.2.7a52.9 52.9 0 0 1-.2.7 5 5 0 0 1 .9-.6c.2-.3.6-.5.9-.5.5 0 .8.2 1 .5.5.3.6.8.6 1.4-.1.5-.1 1-.3 1.4L4.6-1l-.8.8a2 2 0 0 1-1.1.3Zm0-.5.5-.5c.4 0 .6-.3.8-.6a4 4 0 0 0 .3-1 5 5 0 0 0 .1-.9c0-.9-.3-1.2-.9-1.2-.2 0-.4 0-.5.2l-.8.7-.4 1c-.2.3-.2.7-.2 1.1 0 .3 0 .6.2.8.2.2.5.3.8.3Zm-.1-.1"/>  <path id="x" d="M1.5 0 3-6.3H.9l.2-.8h4.8l-.2.8h-2L2.5 0Zm0 0"/>  <path id="w" d="M1.8 0c-.3 0-.6 0-.8-.1C.7-.3.6-.6.6-1v-.8l.8-2.9h-1L.5-5l1-.5.5-1h.6l-.3 1h1.3l-.1.8H2.2l-.7 3v.8l.5.3h.3l.4-.3V0h-.9Zm0 0"/>  <path id="v" d="M1.9 0c-.4 0-.7 0-1-.1C.7-.5.5-.8.5-1.2v-.5L.8-2l.6-3.4h.9L1.4-2v1.2l.8.2c.2 0 .4-.1.8-.4l.6-.6.5-1.4.5-2.4h.9L4.4 0h-.8l.1-1-.5.5-.4.5-.9.1Zm0 0"/>  <path id="u" d="M.4 0 2-7.1h1.5c.8 0 1.3.1 1.7.5.3.3.5.8.5 1.3 0 .8-.3 1.5-.8 1.9-.6.4-1.3.6-2.4.6H2L1.3 0ZM2-3.5h.7c.6 0 1.1-.2 1.5-.5.4-.2.6-.7.6-1.3 0-.2-.2-.5-.4-.7-.2-.3-.4-.4-1-.4h-.7Zm0 0"/>  <path id="t" d="M1 0 .6-5.4h.8l.3 3v1.7h.2l.1-.5a24.4 24.4 0 0 1 .6-1.2l1.6-3h1L2.2 0Zm0 0"/>  <path id="s" d="M2.1-6.3h-.3l-.1-.5.1-.4.4-.2c.3 0 .5.2.5.5 0 .2 0 .4-.2.5l-.4.2ZM.3 0l1.1-5.4h.9L1.2 0Zm0 0"/>  <path id="r" d="M.4 0 2-7.1h1.5c1.5 0 2.2.6 2.2 1.8 0 .5-.1 1-.4 1.3-.3.4-.7.7-1.4.8L5.1 0H4l-.9-3H1.9l-.6 3Zm1.7-3.7h.8c.6 0 1.1-.1 1.4-.4.3-.3.5-.7.5-1.2 0-.4-.2-.7-.4-.7-.2-.3-.4-.4-1-.4h-.7Zm-.1 0"/>  <path id="q" d="m.3 0 1.1-5.4h.7v1l.4-.5.5-.4.7-.2H4l.3.2-.2.7h-.5c-.3-.1-.6-.1-.9.2l-.7.9-.3 1L1.2 0Zm0 0"/>  <path id="p" d="M2.4 0c-.6 0-1 0-1.4-.3C.6-.8.5-1.3.5-2c0-.3 0-.8.2-1.2 0-.4.3-.8.5-1.1.2-.4.5-.7.8-.8a2 2 0 0 1 1.2-.4c.5 0 .8.2 1.1.5.3 0 .4.4.4.8 0 .3-.1.7-.3 1-.4.2-.6.4-1 .6-.6.2-1.2.3-1.9.3h-.1v.3c0 .5 0 .8.3 1 .2.3.5.4.9.4l.7-.1A5 5 0 0 0 4-1v.7a6 6 0 0 1-.7.3h-.9Zm-.9-3 1.3-.1.7-.4c.2-.1.3-.4.3-.5l-.1-.6-.7-.1c-.2 0-.5.1-.9.4L1.6-3Zm0 0"/>  <path id="o" d="m.3 0 1.6-7.6h.9l-.8 3c.1.6 0 1-.2 1.3l-.1.5 2.5-2.6h1L3-3l1.4 3h-1L2.3-2.5l-.7.5-.4 2Zm0 0"/>  <path id="n" d="m.3 0 1.6-7.6h.9L1.2 0Zm0 0"/>  <path id="m" d="M2 0c-.6 0-.9 0-1.2-.3C.6-.7.5-1 .5-1.7c0-.5 0-1 .2-1.5l.5-1.1c.2-.4.5-.7.8-.9a2 2 0 0 1 1.1-.3c.4 0 .6.1.9.3l.5.7.3-.9h.7L4.4 0h-.7l.1-1c-.3.3-.5.6-.9.8-.3.2-.6.2-.9.2Zm.1-.5c.4-.1.6-.2.9-.5l.6-.6a4 4 0 0 0 .4-1 3 3 0 0 0 .1-.7 4 4 0 0 0 0-.4c.1-.3.1-.5-.1-.7-.3-.2-.5-.3-.8-.3-.3 0-.5 0-.7.2a2 2 0 0 0-.6.7l-.4 1-.1 1.1c0 .4 0 .6.2.8.1.2.3.3.6.3Zm.1-.1"/>  <path id="l" d="M1.4 0 1-7.1h1v6a25.3 25.3 0 0 1 .9-1.8l1.9-4.2h.9L5.9-3v2l.5-1 .2-.7 1.9-4.4h1L6.1 0h-.9v-4.6A35 35 0 0 1 5-6l-.3.6-.2.8L2.3 0Zm0 0"/>  <path d="M1 0v-7.1h4V0Zm.4-.5h3.1v-6.1h-3ZM.3 0l2-9.1h1l-.5 2.3-.2.8-.2.8.6-.6.7-.5a2 2 0 0 1 1-.2c.5 0 .9 0 1.1.4.3.1.5.7.5 1.1v.6L6-4l-.7 4h-1L5-4l.2-.8c0-.3 0-.5-.2-.6-.1-.2-.3-.3-.6-.3l-1 .3-.7 1c-.4.4-.6.9-.7 1.5L1.4 0Zm1.6.1L.9 0C.4 0 .2-.2 0-.3v-1l.8.4a3 3 0 0 0 1 .2c.5-.1.9-.1 1.2-.3.2-.2.3-.5.3-.8 0-.2-.1-.3-.3-.5a4.7 4.7 0 0 0-.8-.7c-.5-.2-.8-.4-1-.7-.3-.3-.4-.6-.4-1 0-.6.2-1 .6-1.3.4-.4 1-.5 1.6-.5h1A5 5 0 0 1 5-6l-.5.7-.5-.2a3 3 0 0 0-1-.2c-.3 0-.6.1-.8.3l-.3.6c0 .2 0 .4.1.6l.9.5.8.5.5.6.2.6c0 .8-.4 1.3-.7 1.6-.5.4-1 .5-1.8.5ZM3 .1C2.1.1 1.5 0 1.1-.5.8-1 .6-1.5.6-2.3c0-.5 0-1 .2-1.5.1-.5.4-1 .6-1.4l1-1c.5-.2 1-.3 1.5-.3s.9 0 1.3.3c.3.3.4.7.4 1.2 0 .4-.1.8-.4 1-.2.5-.6.8-1.2 1l-2 .1h-.3v.6c-.1.3-.1.8.3 1.1.2.3.6.4 1 .4h1l.8-.5v1c-.3 0-.6.2-.8.3L3 .1ZM1.7-3.6H2c.4 0 1 0 1.2-.2.4 0 .8-.2 1-.4.3-.2.4-.4.4-.8 0-.2 0-.3-.2-.5l-.7-.2c-.4 0-.7.2-1 .7-.5.2-.7.7-1 1.4ZM.3 0l1.4-6.4h.9l-.2 1.2h.1A9 9 0 0 1 3-6l.6-.4.9-.1H5v1h-.7c-.3-.1-.8-.1-1 .2-.5.4-.7.7-.9 1.1-.2.4-.4.8-.4 1.3L1.4 0Zm.2 0 1.8-8.6h4.3l-.1 1H3.2l-.7 3h3.1l-.2 1h-3L1.5 0ZM.3 0l2-9.1h1L1.3 0Zm0 0 1.4-6.5h1l-.3 1.2.6-.6.7-.5a2 2 0 0 1 1-.2c.5 0 .9.2 1.2.4.3.3.4.7.4 1.2v.6l-.1.5L5.3 0H4.2l.9-4v-1c.1-.4-.1-.6-.6-.6s-.7 0-1 .3c-.3.1-.6.3-.9.8L2-2.8 1.4 0ZM3 0c-.8 0-1.4 0-1.8-.5C.8-1 .6-1.6.6-2.4c0-.5 0-1 .2-1.4.1-.5.2-1 .6-1.4.2-.4.6-.7 1-1 .4-.1.9-.2 1.4-.2.7-.1 1.3.1 1.7.6.5.4.7 1 .7 1.8 0 .5 0 1-.2 1.4l-.6 1.4-1 1C4 0 3.5 0 3 0Zm0-.7c.4-.1.8-.2 1-.5.5-.2.7-.6.9-1.1a5.3 5.3 0 0 0 .2-1.9 2 2 0 0 0-.1-.7l-.4-.5c-.2-.2-.6-.2-.8-.2-.4 0-.8.1-1.1.4-.4.3-.7.7-.8 1.2-.2.5-.3 1-.3 1.7 0 .5.2.8.4 1.1.3.3.6.4 1 .4Zm-.4-6.8L2-7.6v-.5c0-.2 0-.3.2-.5.1-.2.3-.2.5-.2.3 0 .5.2.5.5s0 .5-.2.6l-.4.2ZM.3 0l1.4-6.4h1L1.5 0Zm1.9.1c-.4 0-.8 0-1-.3-.5-.2-.6-.6-.6-1l.2-1.1.7-3.2h-1l.1-.6 1.1-.5.8-1.3H3l-.3 1.5h1.8l-.3.8H2.6l-.8 3.5V-1l.7.3h.3l.4-.3v.9l-.4.1-.6.1Zm.1 0c-.5 0-1-.1-1.2-.5-.4-.4-.5-1-.5-1.7 0-.6 0-1.1.2-1.7l.7-1.4 1-1c.3-.2.8-.3 1.2-.3.5 0 .8 0 1 .3l.8.8.3-1h.8L5.2 0h-.8l.1-1.2-1 1a2 2 0 0 1-1.2.2Zm.4-.8c.3-.1.5-.3.8-.4.3-.2.6-.5.8-.9l.5-1.2.2-.6v-.6c0-.3-.1-.6-.3-.9-.2-.2-.5-.4-.9-.4-.3 0-.6.1-.8.3l-.7.8-.5 1.2L1.7-2c0 .4 0 .7.2 1 .2 0 .4.2.8.2ZM.5 0l1.8-8.6h1.1l2.7 7.1a34.6 34.6 0 0 1 .4-2.4l1-4.7h1L6.7 0H5.6L2.9-7.1v.7a21.3 21.3 0 0 1-.5 1.7L1.5 0Zm.6 0v-8.6h5V0Zm.6-.6h3.8V-8H1.7Zm0 0"/>  <path id="k" d="M0-5.4h1l1 3 .4 1 .2.6.2-.7c0-.3.2-.5.2-.8l1-3h1.2L2.8.6c-.2.6-.4 1.1-.7 1.4-.3.3-.7.4-1.3.4H.1v-.9h.6c.3.2.6.2.7 0L2 .7l.2-.7Zm0 0"/>  <path id="j" d="M2.6-.6H3l.4-.2v.7L3 0H1.7l-.6-.5-.1-1v-3.3H.2V-5l.7-.5.4-1h.5v1h1.5v.8H1.8v3.1c0 .3 0 .6.2.7l.6.3Zm0 0"/>  <path id="i" d="M1.3-7.4c.1 0 .3 0 .4.2l.1.4-.1.4-.4.2-.4-.3-.1-.3.1-.4.4-.2Zm.4 2V0H.8v-5.4Zm0 0"/>  <path id="h" d="M4.3-1.5c0 .5-.2 1-.5 1.2-.4.3-1 .4-1.6.4l-1-.1-.7-.2V-1l.8.3h1.8l.4-.7-.1-.4L3-2a7.5 7.5 0 0 0-.8-.4 7.5 7.5 0 0 1-1-.4l-.4-.5L.5-4c0-.5.2-.8.6-1 .3-.4.8-.6 1.4-.6l1 .2a4 4 0 0 1 .6.4l-.1.6-.8-.2-.7-.1-.9.1c-.2.2-.3.3-.3.6s0 .2.2.3l.4.3.8.3.9.4.4.5c.3.2.3.4.3.7Zm0 0"/>  <path id="g" d="M3.3-5.5H4l-.1 1.1-.3-.3h-.3c-.3 0-.5 0-.8.2l-.5.7-.3 1V0H.8v-5.4h.8v1h.2l.6-.6c.3-.3.6-.5 1-.5Zm0 0"/>  <path id="f" d="M2.9-5.5c.6 0 1.1.2 1.4.5.3.3.5.7.5 1.3V0h-.6L4-.8c-.3.3-.5.6-.8.8h-1c-.5 0-1 0-1.3-.3C.6-.5.5-.9.5-1.5c0-.5.2-1 .5-1.2.5-.3 1-.5 2-.5h.8v-.3c.2-.5.2-.8-.2-1l-.8-.2H2l-.7.5L1-5l1-.3.9-.2Zm1 2.9h-.8c-.6 0-1 .1-1.4.3-.1.3-.3.5-.3.8 0 .3 0 .5.2.7l.7.2c.5 0 .9-.1 1.2-.4.3-.2.4-.6.4-1Zm.1 0"/>  <path id="e" d="M4-6.5c-.7 0-1.3.3-1.8.8-.4.5-.6 1.2-.6 2.1 0 1 .2 1.6.6 2.1.4.6 1 .8 1.8.8h1l.6-.3v.8L5 0H4c-.8 0-1.4 0-2-.2a2.8 2.8 0 0 1-1-1.4c-.3-.6-.4-1.2-.4-2 0-.7.1-1.3.4-1.9a3 3 0 0 1 1.2-1.3c.5-.2 1.1-.4 1.8-.4.8 0 1.5.1 2 .4l-.3.7-.8-.2a3 3 0 0 0-.9-.2Zm0 0"/>  <path id="d" d="M5.5-2.7c0 .9-.2 1.7-.7 2-.4.7-1 .9-1.8.9-.5-.2-.9-.2-1.3-.4-.3-.2-.6-.6-.7-1C.6-1.6.5-2 .5-2.7c0-.9.3-1.6.7-2 .5-.5 1-.8 1.8-.8.5 0 1 .2 1.3.5.4 0 .7.4.9.9.2.2.3.7.3 1.3Zm-4 0c0 .7 0 1.2.3 1.5.3.4.7.6 1.2.6.6 0 1-.2 1.2-.6.3-.3.4-.8.4-1.5s-.1-1.1-.4-1.5c-.2-.3-.6-.5-1.2-.5-.5 0-1 .2-1.2.5-.2.4-.3.9-.3 1.5Zm0 0"/>  <path id="c" d="M3.4-5.5c.7 0 1.2.2 1.6.5.2.3.4.8.4 1.5V0h-.9v-3.4c0-.9-.4-1.3-1.2-1.3-.6 0-1 .1-1.2.5-.3.2-.4.8-.4 1.4V0H.8v-5.4h.8v.8h.2c.2-.4.3-.5.7-.7l1-.2Zm0 0"/>  <path id="b" d="M3-5.5c.3 0 .7.1 1 .3a2 2 0 0 1 1 .9v1.8H1.5c0 .5.1 1 .4 1.4.3.3.7.4 1.3.4H4l.9-.3v.8L4 0a5 5 0 0 1-1 0 3 3 0 0 1-1.2-.1 2.2 2.2 0 0 1-1-1.1c0-.2-.2-.8-.2-1.3-.1-.7 0-1.2.2-1.6.2-.5.5-.9.9-1 .3-.2.7-.4 1.2-.4Zm0 .8c-.6 0-.9.1-1 .4-.4.2-.6.6-.6 1.1h2.8c0-.5-.1-.8-.3-1.1-.2-.3-.5-.4-1-.4Zm0 0"/>  <path id="a" d="M3-7.1c.7 0 1.4.1 2 .5.2.3.4.8.4 1.5.1.4.1.7-.1 1l-.5.5-.7.4 2 3.2H5L3.2-3H1.9v3h-1v-7.1Zm-.2.7h-.9v2.7h1c.6 0 1.1-.1 1.3-.3.3-.3.4-.6.4-1 0-.6-.1-1-.4-1-.3-.4-.7-.5-1.3-.5Zm.1 0"/>  <path d="M1 0v-7.1h4V0Zm.4-.5h3.1v-6.1h-3Zm.1 0"/> </defs> <image xlink:href="svg/9/88_0.jpg" width="497" height="279"/> <path d="M200.9 95.3c.9 0 1.5.2 2 .5.4.4.6.9.6 1.6 0 .3 0 .6-.2 1-.3.1-.3.3-.6.4l-.5.5 1.8 3.2h-1l-1.8-3h-1.4v3h-.8v-7.2zm0 .8h-1.1v2.7h1c.7 0 1.1-.1 1.4-.4.2-.2.4-.6.4-1s-.2-.8-.6-1c0-.2-.6-.3-1.2-.3zM207 97c.7 0 1 .1 1.4.3a2 2 0 0 1 .6.9c.2.3.3.7.3 1.2v.6h-3.7c0 .6.2 1 .5 1.3.3.4.7.5 1.2.5h1l.7-.4v.8l-.7.3a5 5 0 0 1-1 0 3 3 0 0 1-1.3-.1 2.2 2.2 0 0 1-1-1.1c-.2-.3-.3-.9-.3-1.5s.1-1 .3-1.5l.8-1c.4-.1.8-.3 1.3-.3zm0 .7c-.2 0-.6.3-1 .4-.1.3-.2.7-.2 1.2h2.6c0-.5-.1-.9-.4-1.1-.1-.3-.5-.5-1-.5zm6.3-.7c.5 0 1 .2 1.4.5.3.3.5.8.5 1.5v3.5h-.9V99c0-.8-.3-1.3-1.2-1.3-.6.1-1 .3-1.1.6-.3.4-.5.9-.5 1.5v2.7h-.8V97h.7l.1.8.8-.6 1-.2zm8.2 2.8c0 .9-.2 1.6-.7 2-.4.5-1 .8-1.8.8-.5 0-.9-.1-1.3-.3l-.7-1c-.4-.4-.5-1-.5-1.5 0-.9.3-1.6.7-2 .5-.6 1-.8 1.8-.8.5 0 1 .1 1.3.3.4.3.7.7.9 1 .2.4.3.9.3 1.5zm-4 0c-.1.6-.1 1.1.2 1.5.4.4.8.5 1.3.5.6 0 1-.1 1.2-.5.3-.4.4-.9.4-1.5 0-.8-.1-1.1-.4-1.5-.2-.4-.6-.5-1.2-.5-.5 0-1 0-1.2.5-.2.4-.4.8-.4 1.5zm-.1 0" style="fill:none;stroke:#fff;stroke-width:3;stroke-linecap:butt;stroke-linejoin:round;stroke-miterlimit:10;stroke-opacity:.6" transform=" rotate(  340 210.081 99.4691) "/> <g style="fill:#212121;fill-opacity:1" transform=" rotate(  340 210.081 99.4691) ">  <use xlink:href="#a" x="198" y="102.5"/>  <use xlink:href="#b" x="204.2" y="102.5"/>  <use xlink:href="#c" x="209.8" y="102.5"/>  <use xlink:href="#d" x="216" y="102.5"/> </g> <path d="M196.5 189c-.8 0-1.4.3-1.8.8-.4.5-.7 1.2-.7 2 0 1.1.2 1.8.7 2.2.3.5 1 .8 1.8.8l.9-.1.8-.2v.8l-.8.2h-1c-.8 0-1.4-.1-1.9-.4a2.8 2.8 0 0 1-1-1.3c-.4-.5-.5-1.2-.5-2 0-.5.2-1.2.5-1.8a3 3 0 0 1 1.2-1.3c.5-.3 1-.5 1.8-.5s1.5.2 2 .4l-.4.8-.7-.4a3 3 0 0 0-.9 0zm5.2 1c.6 0 1.1.1 1.3.4.4.3.6.8.6 1.4v3.7h-.6l-.2-.8c-.3.3-.5.5-.8.6-.2.2-.6.2-1 .2-.5 0-1 0-1.3-.3-.3-.3-.4-.7-.4-1.2 0-.6.2-1 .6-1.3.4-.3 1-.4 2-.4h.7v-.5c.1-.3.1-.6-.2-.8l-.8-.2h-.8l-.7.3-.3-.6.9-.5h1zm1 2.8h-.7c-.7.1-1 .2-1.4.5-.3.1-.4.3-.4.7 0 .3 0 .5.2.6.2.2.6.2.7.2.5 0 .9 0 1.2-.3.3-.3.4-.7.4-1.2zm5.1-2.8h.6l-.1 1h-.3l-.3-.3c-.3.1-.5.1-.7.3l-.7.7-.2.9v2.9h-.8V190h.7v1h.2l.6-.7c.2-.2.6-.3 1-.3zm5.1 4c0 .5-.2.9-.6 1.2-.4.2-.9.3-1.6.3h-1l-.5-.3v-.8l.6.3 1 .1c.4 0 .7 0 1-.2l.2-.6v-.3l-.6-.3a7.5 7.5 0 0 0-.7-.4 7.5 7.5 0 0 1-.9-.4l-.6-.5-.1-.7c-.1-.4.1-.8.5-1 .4-.4.9-.4 1.5-.4h.9a4 4 0 0 1 .8.5l-.3.5-.7-.2h-1.6l-.3.7.1.2.4.3.9.4.7.4c.4.1.6.2.7.5l.2.7zm5.9-1.2c0 .9-.2 1.5-.6 2-.5.5-1.2.7-1.9.7-.3 0-.9 0-1.2-.3-.4-.2-.7-.5-1.1-1v-1.3c-.1-1.1 0-1.7.5-2.1.5-.7 1.1-.8 1.9-.8.5 0 .9.1 1.2.3.4.2.7.7 1 1l.1 1.5zm-4 0c0 .6.1 1.1.4 1.5.2.3.6.5 1.2.5.5 0 .9-.2 1.1-.5.3-.4.5-.9.5-1.5 0-.8-.2-1.2-.5-1.5-.2-.4-.5-.6-1.2-.6-.5 0-.9.3-1.1.6-.3.3-.4.7-.4 1.5zm8-2.8c.6 0 1.2.2 1.5.5.3.3.5.8.5 1.5v3.5h-1V192c.1-.8-.2-1.3-1-1.3s-1.1.3-1.4.5c-.2.4-.3.8-.3 1.5v2.8h-.9V190h.8l.1.8c.2-.3.4-.5.7-.6l1-.2zm9.4-1c-.8 0-1.4.3-1.8.8-.5.5-.7 1.2-.7 2 0 1.1.3 1.8.6 2.2.4.5 1 .8 1.9.8l.8-.1.9-.2v.8l-.9.2h-1c-.7 0-1.3-.1-1.8-.4a2.8 2.8 0 0 1-1-1.3c-.4-.5-.5-1.2-.5-2 .1-.5.2-1.2.5-1.8a3 3 0 0 1 1.1-1.3c.5-.3 1.2-.5 2-.5.7 0 1.2.2 1.8.4l-.3.8-.7-.4a3 3 0 0 0-1.1 0zm3.6-1 .2.3.3.3c0 .2 0 .4-.3.5l-.2.1-.4-.1-.1-.5.1-.4.4-.1zm.4 2v5.6h-.9V190zm3.5 4.8h.7v.5l-.4.2h-1.2l-.6-.7-.2-.8v-3.2h-.8v-.4l.8-.4.3-1.1h.7v1.1h1.4v.8h-1.5v3c0 .5 0 .7.1.9.2.1.4.1.7.1zm1-4.8h1l.9 3.2.4.8.2.6.3-.6.2-1 1.1-2.9h1l-2.3 5.9c-.2.8-.5 1.2-.8 1.5-.3.2-.7.5-1.2.5h-.4l-.3-.3v-.7h.6c.3.1.5.1.6 0l.6-.8.2-.7zm0 0" style="fill:none;stroke:#fff;stroke-width:3;stroke-linecap:butt;stroke-linejoin:round;stroke-miterlimit:10;stroke-opacity:.6" transform=" rotate(  340 219.734 192.452) "/> <g style="fill:#212121;fill-opacity:1" transform=" rotate(  340 219.734 192.452) ">  <use xlink:href="#e" x="192.5" y="195.5"/>  <use xlink:href="#f" x="198.8" y="195.5"/>  <use xlink:href="#g" x="204.4" y="195.5"/>  <use xlink:href="#h" x="208.5" y="195.5"/>  <use xlink:href="#d" x="213.3" y="195.5"/>  <use xlink:href="#c" x="219.4" y="195.5"/>  <use xlink:href="#glyph0-9" x="225.6" y="195.5"/>  <use xlink:href="#e" x="228.2" y="195.5"/>  <use xlink:href="#i" x="234.5" y="195.5"/>  <use xlink:href="#j" x="237.1" y="195.5"/>  <use xlink:href="#k" x="240.7" y="195.5"/> </g> <path d="m416.1 233.6-.3-7.2h1v6.1a25.2 25.2 0 0 1 .8-1.9l2-4.2h.9l.2 4.2v1.9l.3-.9.4-.8 1.9-4.4h1l-3.3 7.2h-1l-.1-4.6a35.1 35.1 0 0 1-.1-1.4l-.3.6-.3.8-2.2 4.6zm8.9.1c-.3 0-.6-.2-1-.5-.3-.2-.4-.8-.4-1.4 0-.5 0-1 .2-1.4l.5-1.2.9-.8a2 2 0 0 1 1-.3c.4 0 .8.1.9.3l.5.6.4-.8h.6l-1.1 5.4h-.7l.1-1-.9.7c-.2.3-.6.4-1 .4zm.4-.8c.2.1.4.1.7-.2l.6-.8a4 4 0 0 0 .5-.9 3 3 0 0 0 0-.6 4 4 0 0 0 .1-.5c0-.3 0-.6-.3-.8 0-.1-.4-.3-.7-.3-.2 0-.5.2-.7.3a2 2 0 0 0-.6.7l-.4 1-.1.9c0 .6 0 .9.2 1.1.3.1.4.1.6.1zm3.6.7 1.8-7.6h.8l-1.6 7.6zm2.7 0 1.6-7.6h.9l-.7 3-.3 1.2-.2.6 2.7-2.6h.9l-2.3 2.3 1.5 3h-1l-1.1-2.3-.7.4-.5 2zm6.9.1c-.7 0-1.1-.2-1.6-.7-.2-.2-.4-.7-.4-1.4 0-.4 0-.8.2-1.2l.5-1.2.9-.8a2 2 0 0 1 1.1-.3c.5 0 .9.1 1.1.3.3.3.4.6.4 1 0 .3 0 .6-.3 1l-1 .6c-.5.2-1 .3-1.8.3h-.2v.3c0 .4.1.7.3 1 .2.2.5.3 1 .3h.5a5 5 0 0 0 .9-.5v.9a6 6 0 0 1-.8.3h-.8zm-1-3.2h1.3l.8-.5c.2-.1.3-.3.3-.6 0-.1 0-.3-.2-.4l-.6-.2c-.2 0-.6.2-.9.5-.3.3-.5.7-.6 1.2zM441.4 233.6l1.2-5.4h.7l-.1 1 .4-.5.6-.4.6-.3h.6l-.2 1h-.5c-.3 0-.6 0-.9.1l-.6 1-.4.9-.5 2.6zM404 245.5l1.7-7.1h1.3c1.6 0 2.3.6 2.3 1.8 0 .5-.1 1-.3 1.3-.3.5-.8.7-1.4.9l1.1 3.1h-1l-.9-3h-1.2l-.7 3.1zm1.8-3.7h.7c.7 0 1.2-.1 1.5-.4.3-.4.4-.7.4-1.2 0-.4-.1-.6-.3-.8-.2-.2-.6-.3-1.1-.3h-.7zm5.7-2.5c-.1 0-.2 0-.3-.3l-.2-.2c0-.2 0-.3.2-.5l.4-.2c.4 0 .5.2.5.5-.1.2-.1.4-.2.5l-.4.2zm-1.8 6.2 1.1-5.4h.9l-1.2 5.4zm3.3 0-.5-5.4h.9l.1 3v.6l.3.7v.4l.2-.5.3-.7.3-.5 1.6-3h1l-3.1 5.4zm6 .1c-.5 0-1-.2-1.3-.5-.4-.4-.6-.9-.6-1.5 0-.4 0-.9.2-1.3l.5-1.1c.3-.4.5-.6.9-.8a2 2 0 0 1 1-.4c.7 0 1.1 0 1.3.4.2.2.3.5.3.9 0 .3 0 .7-.3 1-.2.2-.6.5-1 .6-.5.2-1 .3-1.8.3h-.2v.4c0 .4.1.7.3 1 .2.1.5.2 1 .2h.5a5 5 0 0 0 .9-.3v.7a6 6 0 0 1-.8.3l-.8.1zm-.8-3.1 1.1-.1c.4 0 .7-.2.8-.4.3 0 .4-.4.4-.6l-.2-.5-.6-.1c-.3 0-.6.1-.9.4-.3.3-.5.8-.7 1.3zM421.9 245.5l1.1-5.4h.8l-.1 1 .4-.5.6-.4.6-.1h.7l-.3.9h-.5c-.2-.1-.6-.1-.9.2-.2.2-.5.5-.6.8l-.4 1-.5 2.6zm6.7 0 1.5-7.1h1.6c.8 0 1.3.1 1.7.5.3.3.5.8.5 1.3 0 .8-.3 1.5-.9 1.9-.5.4-1.2.6-2.3.6h-.6l-.6 2.8zm1.6-3.5h.8c.5 0 1-.2 1.4-.4.4-.3.6-.8.6-1.3 0-.4-.2-.7-.4-.9-.2-.2-.5-.3-1-.3h-.6zm5.6 3.6c-.4 0-.8-.1-1-.5-.3-.3-.4-.7-.4-1.3l.1-1.4.6-1.2c.2-.4.5-.6.8-.8a2 2 0 0 1 1.1-.4c.4 0 .7 0 1 .3l.2.7.6-1h.6l-1.2 5.5h-.7l.2-1-1 .8c-.2.2-.5.3-.9.3zm.3-.7c.2 0 .5-.1.7-.3.2-.2.5-.4.6-.6a4 4 0 0 0 .6-1.1 3 3 0 0 0 0-.6 4 4 0 0 0 0-.3c0-.5 0-.7-.2-1-.2-.1-.4-.2-.8-.2-.2 0-.4 0-.6.2a2 2 0 0 0-.6.7l-.4 1-.2 1.1c0 .4.1.6.3.8.1.2.3.4.5.4zM441.7 239.3c-.2 0-.3 0-.4-.3v-.7l.5-.2c.2 0 .5.2.5.5l-.3.5-.3.2zm-1.9 6.2 1.2-5.4h.8l-1 5.4zm4.2.1c-.4 0-.7-.1-1-.3-.2-.3-.3-.6-.3-1v-.9l.9-3.3h.8l-.7 3.4-.1.7.1.5.6.2.7-.3c.3-.1.5-.4.7-.6.3-.5.4-1 .6-1.5l.5-2.5h.8l-1.1 5.5h-.7v-1c0 .2-.2.3-.4.5l-.6.4-.8.2zm5.8 0c-.4 0-.8 0-1-.2-.1-.2-.2-.5-.2-1v-.7l.7-2.9h-.9v-.4l1-.4.6-1h.5l-.3 1h1.4l-.2.8h-1.3l-.6 3v.2l-.2.3.2.4.4.3h.3l.4-.2v.6l-.4.1a2 2 0 0 1-.4.1zm3.9 0c-.7 0-1.1-.2-1.5-.5-.2-.4-.5-.9-.5-1.5 0-.4 0-.9.3-1.3l.4-1.1c.3-.4.6-.6.9-.8a2 2 0 0 1 1-.4c.7 0 1.1 0 1.3.4.2.2.4.5.4.9 0 .3 0 .7-.4 1-.2.2-.5.5-1 .6-.6.2-1 .3-1.8.3h-.2v.4c0 .4.1.7.4 1 .1.1.4.2 1 .2h.4a5 5 0 0 0 .9-.3v.7a6 6 0 0 1-.8.3l-.8.1zm-1-3.1h.2l1.1-.1c.3 0 .5-.2.8-.4.2 0 .2-.4.2-.6 0-.2 0-.4-.1-.5l-.6-.1c-.3 0-.6.1-.9.4-.3.3-.4.8-.6 1.3zM420.5 257.4l1.5-6.3h-2.1l.2-.8h4.8l-.1.8h-2l-1.4 6.3zm3.3 0 1.1-5.3h.8l-.1.9.4-.4.6-.6h1.2l-.2 1-.5-.2-.9.2c-.2.3-.5.6-.6 1l-.4 1-.5 2.4zm5.8-6.2-.3-.1-.1-.4.1-.4c.1-.3.3-.3.4-.3.4 0 .5.2.5.5s0 .5-.2.5l-.4.2zm-1.8 6.2 1.1-5.3h.9l-1.1 5.3zm5 .1c-.4 0-.8 0-.9-.2a2 2 0 0 1-.5-.7l-.4.8h-.6l1.6-7.4h.9l-.4 1.6-.2.7a53.3 53.3 0 0 1-.2.8 5 5 0 0 1 .9-.8c.2-.2.5-.3 1-.3.4 0 .7 0 1 .5.3.3.5.7.5 1.3-.1.5-.1 1-.3 1.4l-.5 1.2c-.2.4-.5.6-.8.8a2 2 0 0 1-1.1.3zm0-.7c.2 0 .3 0 .5-.2.4-.2.7-.4.7-.7a4 4 0 0 0 .4-1 5 5 0 0 0 0-1.1c.1-.7-.1-1-.7-1-.3-.1-.5-.1-.7.2-.3 0-.5.4-.7.6l-.3 1c-.3.4-.3.7-.3 1.1 0 .4 0 .6.2.8.2.2.5.3.8.3zm5.5.7c-.6 0-1.1-.1-1.4-.5-.4-.4-.5-.9-.5-1.5l.1-1.2.6-1.3.8-.7a2 2 0 0 1 1.1-.3c.5 0 1 0 1.2.3.2.2.4.5.4 1 0 .2-.1.5-.4.8-.2.4-.5.6-1 .8-.4.1-1 .1-1.8.1h-.1v.5c0 .4 0 .7.2 1 .2.2.5.3 1 .3h.7a5 5 0 0 0 .7-.5v.8a6 6 0 0 1-.7.3l-.9.1zm-1-3h.3l.9-.3c.5.1.8-.1 1-.2.1-.2.2-.4.2-.7 0-.2 0-.3-.2-.4l-.5-.2c-.3 0-.7.3-1 .5-.2.3-.5.7-.6 1.2zm.1-.1" style="fill:none;stroke:#fff;stroke-width:2;stroke-linecap:butt;stroke-linejoin:round;stroke-miterlimit:10;stroke-opacity:.6" transform="rotate(  340 414.364 218.862) translate(-16.550847,-23.644068)"/> <g style="fill:#7f6338;fill-opacity:1" transform=" rotate(  340 414.364 218.862) ">  <use xlink:href="#l" x="398.2" y="209.9"/>  <use xlink:href="#m" x="406.6" y="209.9"/>  <use xlink:href="#n" x="412.3" y="209.9"/>  <use xlink:href="#o" x="414.8" y="209.9"/>  <use xlink:href="#p" x="419.6" y="209.9"/>  <use xlink:href="#q" x="424.6" y="209.9"/>  <use xlink:href="#r" x="387.1" y="221.9"/>  <use xlink:href="#s" x="392.8" y="221.9"/>  <use xlink:href="#t" x="395.4" y="221.9"/>  <use xlink:href="#p" x="400.1" y="221.9"/>  <use xlink:href="#q" x="405.1" y="221.9"/>  <use xlink:href="#glyph2-10" x="409" y="221.9"/>  <use xlink:href="#u" x="411.6" y="221.9"/>  <use xlink:href="#m" x="417.3" y="221.9"/>  <use xlink:href="#s" x="423" y="221.9"/>  <use xlink:href="#v" x="425.6" y="221.9"/>  <use xlink:href="#w" x="431.4" y="221.9"/>  <use xlink:href="#p" x="434.7" y="221.9"/>  <use xlink:href="#x" x="402.5" y="233.8"/>  <use xlink:href="#q" x="407" y="233.8"/>  <use xlink:href="#s" x="411" y="233.8"/>  <use xlink:href="#y" x="413.5" y="233.8"/>  <use xlink:href="#p" x="419.3" y="233.8"/> </g></svg>