<svg xmlns="http://www.w3.org/2000/svg" xmlns:xlink="http://www.w3.org/1999/xlink" viewBox="0 0 497 279"> <defs overflow="visible" style="stroke:none">  <path id="y" d="m.3 0 1.6-7.6h.9l-.5 2-.1.6-.2.6.6-.5.5-.4.9-.2c.3 0 .6.2.9.5.1 0 .3.5.3.9v.8L4.3 0h-.8l.8-3.4V-4l-.1-.5c-.2-.2-.3-.2-.6-.2-.2 0-.4 0-.6.2-.4.2-.6.5-.8.8-.2.3-.4.7-.5 1.4L1.2 0Zm0 0"/>  <path id="x" d="M1.8 0H1L.2-.2v-.9l.7.3 1 .1.8-.1.6-.4c.2-.2.2-.6.2-.8 0-.3 0-.5-.2-.7l-1-.6a4.4 4.4 0 0 1-.6-.5 1.9 1.9 0 0 1-.5-.6L1-5.2c0-.4.1-.8.4-1.1a2 2 0 0 1 .8-.7 3 3 0 0 1 1.2-.2h1l.8.5-.4.6-.6-.2-.8-.2c-.4 0-.7.2-1 .5-.4 0-.4.4-.4.8l.1.5.4.4.5.3.8.5a2 2 0 0 1 .5.6l.2.9c0 .6-.3 1.2-.8 1.5-.3.5-.9.6-1.8.6Zm0 0"/>  <path id="w" d="M2 0c-.6 0-.9 0-1.2-.3C.6-.7.5-1 .5-1.7c0-.5 0-1 .2-1.4 0-.5.3-.9.5-1.2.2-.4.5-.7.8-.8a2 2 0 0 1 1.1-.4c.4 0 .7.1.9.3l.5.7a35.3 35.3 0 0 1 .2-1.3l.4-1.8H6L4.4 0h-.8l.1-1-.8.8c-.3.2-.6.2-.9.2Zm.1-.5c.4-.1.6-.2.9-.5l.5-.5.5-1 .2-1.1c0-.4-.2-.6-.3-.8-.1-.2-.4-.3-.7-.3-.3 0-.5 0-.8.2l-.4.7-.5 1-.1 1.1c0 .7.3 1 .8 1Zm.1-.1"/>  <path id="v" d="M1.4 0 1-7.1h1v6a25.3 25.3 0 0 1 .9-1.8l1.9-4.2h.9L5.9-3v2l.5-1 .2-.7 1.9-4.4h1L6.1 0h-.9v-4.6A35 35 0 0 1 5-6l-.3.6-.2.8L2.3 0Zm0 0"/>  <path id="u" d="M1.9 0c-.4 0-.7 0-1-.1C.7-.5.5-.8.5-1.2v-.5L.8-2l.6-3.4h.9L1.4-2v1.2l.8.2c.2 0 .4-.1.8-.4l.6-.6.5-1.4.5-2.4h.9L4.4 0h-.8l.1-1-.5.5-.4.5-.9.1Zm0 0"/>  <path id="t" d="M.4 0 2-7.1h1.2l.7 5.8 3.2-5.8h1.3L7 0H6l1-4.2a47.9 47.9 0 0 1 .4-2L4 0h-.7l-.8-6.3-.1.6-.1.7-.1.7-1 4.3Zm0 0"/>  <path id="s" d="m-.2 2.4 1.6-7.8h.7v1l.7-.6c.3-.3.7-.5 1-.5.5 0 .8.2 1 .5.5.3.6.8.6 1.4-.1.5-.1 1-.3 1.4L4.6-1l-.8.8a2 2 0 0 1-1.1.3C2.3 0 2 0 1.8-.2a2 2 0 0 1-.5-.6v.4L1 .1.7 2.4Zm2.8-3c.4 0 .5-.1.7-.4.3 0 .5-.3.7-.6a4 4 0 0 0 .3-1 5 5 0 0 0 .1-.9c0-.9-.3-1.2-.9-1.2-.2 0-.4 0-.5.2l-.8.7-.4 1c-.2.3-.2.7-.2 1.1 0 .3 0 .6.2.8.2.2.5.3.8.3Zm0 0"/>  <path id="r" d="m-.6 0 4-7.1h.8L5 0h-.7L4-2.2H1.6L.4 0ZM2-3h1.9l-.2-1.5v-1.7h-.2a14 14 0 0 1-.3.8l-.4 1Zm0 0"/>  <path id="q" d="M3.3 0c-.8 0-1.5 0-2-.5C1-1.1.8-1.8.8-2.6.7-3.1.7-3.5 1-4c-.1-.4 0-.8.3-1.2l.8-1L3-7l1.7-.2c.5 0 1.1.1 1.6.4l-.3.7a4 4 0 0 0-.7-.2l-.7-.2c-.6 0-1 .2-1.3.5-.4 0-.7.4-1 .8A4 4 0 0 0 1.9-4l-.2 1.3c0 .7.1 1.1.3 1.5.4.3 1 .5 1.4.5h.8L5-1v.8l-.8.2a5 5 0 0 1-1 0Zm0 0"/>  <path id="p" d="m1.9 2.4-1-.1-.6-.2v-.9c.2.2.5.2.7.4a3 3 0 0 0 .8.1c.4 0 .8-.1 1-.3.3-.2.5-.6.6-1l.1-.4.1-.5.1-.5-.8.8c-.3.2-.6.2-.9.2s-.8-.1-1-.4C.6-.7.5-1 .5-1.7c0-.5 0-1 .2-1.4 0-.5.3-.9.5-1.2.2-.4.5-.7.8-.8a2 2 0 0 1 1.1-.4c.4 0 .7.1.9.3l.5.7.3-.9h.7L4.3.3c-.2.8-.5 1.3-.9 1.7-.4.2-1 .4-1.4.4Zm.3-3c.3 0 .5-.1.8-.4l.5-.5.5-1 .2-1.1c0-.4-.2-.6-.3-.8-.1-.2-.4-.3-.7-.3-.3 0-.5 0-.7.2-.3.2-.5.5-.6.7l-.4 1-.1 1.1c0 .7.3 1 .8 1Zm0 0"/>  <path id="o" d="M.4 0 2-7.1h1.5c1.5 0 2.2.6 2.2 1.8 0 .5-.1 1-.4 1.3-.3.4-.7.7-1.4.8L5.1 0H4l-.9-3H1.9l-.6 3Zm1.7-3.7h.8c.6 0 1.1-.1 1.4-.4.3-.3.5-.7.5-1.2 0-.4-.2-.7-.4-.7-.2-.3-.4-.4-1-.4h-.7Zm-.1 0"/>  <path id="n" d="M1.5 0H.7L0-.2V-1l.7.3h.8c.5.1.7.1 1-.1l.1-.7c.1-.1.1-.3-.1-.4 0-.2-.3-.3-.7-.5L1-3.1c-.2-.2-.3-.5-.3-.8 0-.5.1-.9.5-1.1.3-.3.7-.5 1.3-.5.3 0 .6 0 .9.2l.6.2-.2.7-.5-.2-.8-.1c-.3 0-.5 0-.7.2-.2.1-.2.3-.2.5l.1.5.7.5c.3 0 .6.2.6.4.2 0 .4.2.5.4l.1.7c0 .5-.2 1-.5 1.2C2.7 0 2 0 1.5 0Zm0 0"/>  <path id="m" d="m.3 0 1.1-5.4h.7v1l.4-.5.5-.4.7-.2H4l.3.2-.2.7h-.5c-.3-.1-.6-.1-.9.2l-.7.9-.3 1L1.2 0Zm0 0"/>  <path id="l" d="M.4 0 2-7.1h3.5l-.1.8H2.6l-.5 2.5h2.6l-.2.8H1.9l-.6 3Zm0 0"/>  <path id="k" d="m.3 0 1.6-7.6h.9L1.2 0Zm0 0"/>  <path id="j" d="m.2 0 1.2-5.4h.8l-.2 1 .5-.6a2 2 0 0 1 .6-.3l.9-.2c.3 0 .6.1.9.5.1 0 .4.4.4.9v.4l-.2.5L4.4 0h-.9l.7-3.4v-.4l.2-.2c-.1-.5-.3-.7-.8-.7-.2 0-.4 0-.6.2-.3.2-.6.5-.8.8-.2.3-.4.8-.5 1.4L1.2 0Zm0 0"/>  <path id="i" d="M1.8 0c-.3 0-.6 0-.8-.1C.7-.3.6-.6.6-1v-.8l.8-2.9h-1L.5-5l1-.5.5-1h.6l-.3 1h1.3l-.1.8H2.2l-.7 3v.8l.5.3h.3l.4-.3V0h-.9Zm0 0"/>  <path id="h" d="M.4 0 2-7.1h1l2 5.9a25 25 0 0 1 .5-2l.8-4H7L5.6 0h-1l-2-6-.4.7v.7L2-4l-.8 4Zm0 0"/>  <path id="g" d="M2.4 0c-.6 0-1 0-1.4-.3C.6-.8.5-1.3.5-2c0-.3 0-.8.2-1.2 0-.4.3-.8.5-1.1.2-.4.5-.7.8-.8a2 2 0 0 1 1.2-.4c.5 0 .8.2 1.1.5.3 0 .4.4.4.8 0 .3-.1.7-.3 1-.4.2-.6.4-1 .6-.6.2-1.2.3-1.9.3h-.1v.3c0 .5 0 .8.3 1 .2.3.5.4.9.4l.7-.1A5 5 0 0 0 4-1v.7a6 6 0 0 1-.7.3h-.9Zm-.9-3 1.3-.1.7-.4c.2-.1.3-.4.3-.5l-.1-.6-.7-.1c-.2 0-.5.1-.9.4L1.6-3Zm0 0"/>  <path id="f" d="M2.7 0c-.4 0-.7 0-.9-.1a2 2 0 0 1-.5-.7L.9 0H.3l1.6-7.6h.9l-.4 1.8-.2.7a52.9 52.9 0 0 1-.2.7 5 5 0 0 1 .9-.6c.2-.3.6-.5.9-.5.5 0 .8.2 1 .5.5.3.6.8.6 1.4-.1.5-.1 1-.3 1.4L4.6-1l-.8.8a2 2 0 0 1-1.1.3Zm0-.5.5-.5c.4 0 .6-.3.8-.6a4 4 0 0 0 .3-1 5 5 0 0 0 .1-.9c0-.9-.3-1.2-.9-1.2-.2 0-.4 0-.5.2l-.8.7-.4 1c-.2.3-.2.7-.2 1.1 0 .3 0 .6.2.8.2.2.5.3.8.3Zm-.1-.1"/>  <path id="e" d="M2 0c-.6 0-.9 0-1.2-.3C.6-.7.5-1 .5-1.7c0-.5 0-1 .2-1.5l.5-1.1c.2-.4.5-.7.8-.9a2 2 0 0 1 1.1-.3c.4 0 .6.1.9.3l.5.7.3-.9h.7L4.4 0h-.7l.1-1c-.3.3-.5.6-.9.8-.3.2-.6.2-.9.2Zm.1-.5c.4-.1.6-.2.9-.5l.6-.6a4 4 0 0 0 .4-1 3 3 0 0 0 .1-.7 4 4 0 0 0 0-.4c.1-.3.1-.5-.1-.7-.3-.2-.5-.3-.8-.3-.3 0-.5 0-.7.2a2 2 0 0 0-.6.7l-.4 1-.1 1.1c0 .4 0 .6.2.8.1.2.3.3.6.3Zm.1-.1"/>  <path id="d" d="M-.3 2.4h-.3l-.4-.1v-.7h.7c.3.1.5.1.7-.1.2-.2.4-.5.5-.8l.4-.6-.8-5.5h.9l.3 2.7v.7l.2.7v.6A28.4 28.4 0 0 1 2.5-2c-.1 0 .1-.3.2-.4l1.5-3h1L1.7 1c-.1.4-.4.8-.7 1-.4.3-.8.4-1.2.4Zm0 0"/>  <path id="c" d="M2.1-6.3h-.3l-.1-.5.1-.4.4-.2c.3 0 .5.2.5.5 0 .2 0 .4-.2.5l-.4.2ZM.3 0l1.1-5.4h.9L1.2 0Zm0 0"/>  <path id="b" d="M2.5 0C1.9 0 1.4 0 1-.4.7-.8.5-1.3.5-2l.1-1.2a4 4 0 0 1 .5-1.1c.3-.3.5-.7.9-.8.3-.2.7-.3 1.2-.3.6 0 1 .2 1.4.4.4.5.6 1.1.6 1.6L5-2a4 4 0 0 1-.5.9c-.2.5-.5.8-.8 1L2.5 0Zm0-.6c.5-.1.6-.1 1-.4.1-.2.3-.5.5-1 .2-.3.3-.8.3-1.4L4.2-4a1 1 0 0 0-.4-.5l-.6-.2c-.4 0-.7.1-1 .4-.2.2-.5.6-.6 1A4 4 0 0 0 1.4-2c0 .5 0 .8.3 1 .2.2.5.3.8.3Zm0-.1"/>  <path id="a" d="M1.5 0 3-6.3H.9l.2-.8h4.8l-.2.8h-2L2.5 0Zm0 0"/>  <path d="M1 0v-7.1h4V0Zm.4-.5h3.1v-6.1h-3Zm.1 0"/> </defs> <image xlink:href="svg/9/89_0.jpg" width="497" height="279"/> <path d="m279.4 248.2 1.3-6.4h-2l.3-.8h4.8l-.2.8h-2l-1.3 6.4Zm5.3.1c-.7 0-1.2-.3-1.5-.6-.4-.4-.5-.9-.5-1.5l.1-1.2a4 4 0 0 1 .5-1.1c.2-.4.5-.6.9-.9.3-.2.7-.3 1.1-.3.7 0 1.1.3 1.5.6.4.4.5.9.5 1.5l-.1 1.2a4 4 0 0 1-.5 1.1c-.3.4-.5.7-.9.9-.3.2-.7.3-1.1.3Zm0-.8c.3 0 .6 0 .9-.3.2-.2.4-.5.6-1 .2-.4.2-.9.2-1.5v-.6a1 1 0 0 0-.4-.4c-.2-.2-.4-.2-.6-.2-.4 0-.7.1-1 .3-.3.3-.5.6-.6 1a4 4 0 0 0-.2 1.4c0 .4 0 .8.3 1 .1.2.4.3.8.3Zm5.3-5.5-.5-.3v-.2l.1-.5.4-.2c.4 0 .5.2.5.5 0 .2 0 .3-.2.5l-.3.1Zm-2 6.1 1.3-5.3h.9l-1.2 5.4Zm2.1 2.5h-.4l-.1-.1v-.7h.4c.4.1.6.1.8-.1l.5-.7.4-.7-.8-5.5h.9l.2 2.7v.7l.3.7v.6a28.4 28.4 0 0 1 .6-1.2l.1-.5 1.6-3h1l-3.6 6.3c0 .5-.4.9-.7 1.1-.3.3-.7.4-1.3.4Zm6.9-2.3c-.4 0-.8-.3-1-.5-.4-.3-.6-.8-.6-1.4l.3-1.4.6-1.2.7-.8a2 2 0 0 1 1.1-.3c.5 0 .8.1 1.1.3l.2.6.6-.8h.6l-1.2 5.4h-.7l.3-1-1 .8c-.3.2-.6.3-1 .3Zm.3-.7c.2 0 .5-.1.7-.3l.6-.7a4 4 0 0 0 .5-1 3 3 0 0 0-.1-.6 4 4 0 0 0 .3-.5c-.1-.3-.1-.5-.3-.7-.2-.2-.4-.3-.7-.3s-.5 0-.8.2a2 2 0 0 0-.5.7l-.4 1-.2.9c0 .6.1.9.3 1.1.1.1.3.2.6.2Zm6.1.7c-.3 0-.6-.1-.8-.3a2 2 0 0 1-.6-.6l-.3.8h-.7l1.6-7.6h.9l-.4 1.8-.1.6a52.8 52.8 0 0 1-.2.8 5 5 0 0 1 .8-.7c.3-.3.6-.4 1-.4s.8.3 1 .5c.4.3.4.7.4 1.4 0 .4 0 .9-.2 1.3 0 .5-.2.9-.5 1.2-.2.4-.5.7-.8.9a2 2 0 0 1-1 .3Zm0-.7c.2 0 .5-.1.6-.3l.7-.7a4 4 0 0 0 .3-1 5 5 0 0 0 .1-1c0-.9-.1-1.2-.8-1.2-.3.1-.5.1-.7.3l-.6.7-.5 1-.2.9c0 .6.1.7.3 1.1.1.1.4.2.8.2Zm5.6.7c-.7 0-1.2-.3-1.5-.6-.3-.3-.5-.7-.5-1.4 0-.5 0-.9.2-1.3l.5-1.2c.3-.3.5-.6.9-.8a2 2 0 0 1 1-.3c.7 0 1.1.1 1.3.4.2.2.3.5.3.9 0 .3 0 .6-.2 1l-1.1.5c-.5.3-1 .5-1.9.5h-.1v.2c.1.4.1.8.3 1 .2.2.5.4 1 .4.1 0 .3 0 .5-.2a5 5 0 0 0 .9-.3v.9a6 6 0 0 1-.8.2h-.8Zm-1-3.3h1.2l.8-.3c.3-.2.4-.4.4-.7l-.2-.4-.6-.2c-.3 0-.6.2-.9.6-.3.2-.5.6-.7 1Zm-32 15.1 1.3-7.1h1.1l2.2 5.9a25 25 0 0 1 .4-2l.8-3.9h.9l-1.7 7.2h-.9l-2.1-6.1-.1.8-.1.6-.2.7-.8 4Zm8.5.1c-.4 0-.7-.1-1-.4-.3-.4-.5-.8-.5-1.4 0-.5 0-1 .3-1.4l.5-1.2c.2-.4.5-.6.8-.8a2 2 0 0 1 1.1-.3c.4 0 .7 0 .9.2l.4.7.4-.8h.7L287 260h-.7l.1-.9c-.4.3-.5.6-.9.9-.3 0-.5.2-1 .2Zm.3-.7c.3 0 .5-.1.7-.3l.7-.7a4 4 0 0 0 .4-1 3 3 0 0 0 .1-.6 4 4 0 0 0 0-.4c.1-.5.1-.6-.1-.8-.3-.2-.6-.3-.8-.3-.3 0-.5 0-.7.2a2 2 0 0 0-.6.7l-.4 1-.1 1.1c0 .4 0 .6.2.8.1.2.3.3.6.3Zm5.3.7c-.3 0-.6 0-.9-.2-.2-.2-.4-.5-.4-1l.2-.6.5-3h-.8l.1-.4.9-.4.6-1h.5l-.2 1.1h1.3l-.1.7h-1.4l-.6 3v.8l.6.3h.2l.4-.1v.6l-.4.1-.6.1Zm3.6-6.3c-.1 0-.2 0-.3-.2l-.1-.3.1-.5.4-.1c.3 0 .5.1.5.4 0 .2 0 .4-.2.5l-.4.2ZM292 260l1-5.2h1l-1.2 5.2Zm4.7.2c-.7 0-1.2-.2-1.5-.6-.4-.3-.5-.8-.5-1.5l.1-1.1a4 4 0 0 1 .5-1.2c.2-.3.5-.6.9-.8.3-.2.7-.3 1.1-.3.7 0 1.1.2 1.5.5.4.4.5 1 .5 1.6l-.1 1.2a4 4 0 0 1-.5 1c-.3.5-.5.8-.9 1-.3 0-.7.2-1.1.2Zm0-.7c.3 0 .6-.2.9-.5.2 0 .4-.4.6-.9.2-.3.2-.8.2-1.3v-.8a1 1 0 0 0-.4-.4l-.6-.2c-.4 0-.7.1-1 .4-.3.2-.5.6-.6 1a4 4 0 0 0-.2 1.4c0 .4 0 .7.3 1 .1 0 .4.2.8.2Zm3.3.6 1.2-5.4h.8l-.1 1 .4-.5a2 2 0 0 1 .7-.4l.7-.2c.3 0 .8.2 1 .4.2.2.4.5.4 1v.4l-.1.6-.8 3h-.9l.7-3.3v-.3l.2-.4c-.1-.4-.2-.6-.8-.6l-.7.3-.7.7c-.2.4-.4.8-.5 1.4l-.5 2.3Zm7.5.1c-.4 0-.7-.1-1-.4-.3-.4-.5-.8-.5-1.4 0-.5 0-1 .3-1.4l.5-1.2c.2-.4.5-.6.8-.8a2 2 0 0 1 1.1-.3c.4 0 .7 0 .9.2l.4.7.4-.8h.7L310 260h-.7l.1-.9c-.4.3-.5.6-.9.9-.3 0-.5.2-1 .2Zm.3-.7c.3 0 .5-.1.7-.3l.7-.7a4 4 0 0 0 .4-1 3 3 0 0 0 .1-.6 4 4 0 0 0 0-.4c.1-.5.1-.6-.1-.8-.3-.2-.6-.3-.8-.3-.3 0-.5 0-.7.2a2 2 0 0 0-.6.7l-.4 1-.1 1.1c0 .4 0 .6.2.8.1.2.3.3.6.3Zm3.7.6 1.7-7.6h.8l-1.6 7.6ZM281.7 272l1.5-7h3.6l-.1.6h-2.8l-.5 2.6h2.6l-.2.8h-2.6l-.6 3Zm6.8.1c-.5 0-1-.1-1.4-.5-.4-.4-.6-.9-.6-1.6 0-.3 0-.7.2-1.1a4 4 0 0 1 .5-1.2l.8-.7 1.2-.4c.6 0 1.1.2 1.5.6.3.4.5.8.5 1.5 0 .4 0 .8-.2 1.2a4 4 0 0 1-.5 1.1c-.2.4-.5.6-.8.8-.3.2-.7.3-1.2.3Zm0-.7c.5 0 .8-.1 1.1-.3l.4-1.1.3-1.4v-.6a1 1 0 0 0-.5-.5l-.6-.1c-.2 0-.7 0-1 .3l-.4 1a4 4 0 0 0-.4 1.4c0 .4.1.7.3 1 .3.2.5.3.9.3Zm3.5.6 1-5.2h.8v.9l.4-.5.5-.4.7-.2h.6l-.2 1-.5-.2c-.4 0-.6.1-1 .3l-.5.9c-.2.3-.4.6-.4 1l-.6 2.5Zm5.9.1c-.6 0-1.1-.1-1.4-.5-.5-.3-.5-.8-.5-1.5V269l.7-1.3.8-.7a2 2 0 0 1 1.1-.4c.5 0 1 .1 1.2.3.2.2.4.6.4 1.1 0 .2-.2.5-.4.8-.2.3-.5.5-1 .7-.4.2-1 .2-1.8.2v.4c-.2.4-.2.7 0 1 .3.2.6.3 1.1.3h.6a5 5 0 0 0 .8-.4v.8a6 6 0 0 1-.7.2l-1 .1Zm-1-3h.3l.8-.3c.6.2.9-.1 1-.2.2-.2.3-.4.3-.7 0-.2 0-.3-.2-.4l-.5-.2c-.3 0-.7.2-1 .5-.3.2-.5.7-.6 1.2Zm5.1 3h-.9l-.6-.3v-.8l.7.3.8.1c.4 0 .7 0 .9-.2l.3-.6c0-.2 0-.4-.2-.5l-.7-.5-.9-.6c-.2-.3-.3-.5-.3-1s.2-.7.5-.9c.4-.5.8-.6 1.4-.6l.9.2.7.3-.3.7-.6-.3h-1.4l-.3.7c0 .1 0 .3.2.4l.7.5.6.4.5.6.1.5c-.1.6-.2 1-.6 1.2-.4.3-.9.4-1.5.4Zm4.6 0c-.3 0-.6 0-.9-.1-.2-.3-.4-.6-.4-1.1l.1-.5.6-3.1h-.8l.1-.3.9-.4.6-1.1h.5l-.2 1.2h1.3l-.1.7h-1.4l-.6 2.9v1l.6.1h.1l.5-.1v.7h-.5l-.4.2Zm0 0" style="fill:none;stroke-width:2;stroke-linecap:butt;stroke-linejoin:round;stroke:#fff;stroke-opacity:.6;stroke-miterlimit:10" transform=" rotate(  340 294.888 257.114) "/> <g style="fill:green;fill-opacity:1" transform=" rotate(  340 294.888 257.114) ">  <use xlink:href="#a" x="277.9" y="248.2"/>  <use xlink:href="#b" x="282.2" y="248.2"/>  <use xlink:href="#c" x="287.8" y="248.2"/>  <use xlink:href="#d" x="290.4" y="248.2"/>  <use xlink:href="#e" x="295.1" y="248.2"/>  <use xlink:href="#f" x="300.7" y="248.2"/>  <use xlink:href="#g" x="306.5" y="248.2"/>  <use xlink:href="#h" x="275.5" y="260.1"/>  <use xlink:href="#e" x="282.6" y="260.1"/>  <use xlink:href="#i" x="288.3" y="260.1"/>  <use xlink:href="#c" x="291.6" y="260.1"/>  <use xlink:href="#b" x="294.2" y="260.1"/>  <use xlink:href="#j" x="299.8" y="260.1"/>  <use xlink:href="#e" x="305.6" y="260.1"/>  <use xlink:href="#k" x="311.3" y="260.1"/>  <use xlink:href="#l" x="281.3" y="272.1"/>  <use xlink:href="#b" x="286.1" y="272.1"/>  <use xlink:href="#m" x="291.7" y="272.1"/>  <use xlink:href="#g" x="295.5" y="272.1"/>  <use xlink:href="#n" x="300.5" y="272.1"/>  <use xlink:href="#i" x="304.8" y="272.1"/> </g> <path d="m195.3 237 1.4-6.5h-2l.3-.7h4.7l-.1.8h-2l-1.3 6.3Zm5.3 0c-.6 0-1.1-.2-1.4-.5-.4-.5-.6-1-.6-1.5 0-.4 0-1 .2-1.3a4 4 0 0 1 .5-1c.2-.5.5-.7.7-1l1.3-.2c.6 0 1.1.2 1.5.6.2.3.5.8.5 1.5 0 .4 0 .8-.3 1.2a4 4 0 0 1-.4 1.1l-.8.8c-.3.3-.8.3-1.2.3Zm0-.7c.4 0 .8-.1 1.1-.3l.4-1 .3-1.5-.1-.6a1 1 0 0 0-.4-.5l-.6-.2c-.3 0-.7.2-1 .4l-.5 1a4 4 0 0 0-.3 1.4c0 .4.1.7.3 1 .2.2.5.3.9.3Zm5.3-5.6-.4-.1v-.8c.3-.2.4-.2.5-.2.3 0 .5.1.5.4 0 .2 0 .4-.2.5l-.4.2Zm-1.9 6.2 1.2-5.3h.8l-1.1 5.3Zm2.1 2.4h-.7v-.9l.3.2h.4c.2 0 .5 0 .6-.2l.6-.8.3-.6-.8-5.4h1l.2 2.6v2h.3a28.4 28.4 0 0 1 .4-1.1l.3-.6 1.6-3h.9l-3.4 6.4c-.3.4-.6.9-.9 1.1-.2.2-.6.3-1.1.3Zm6.9-2.3c-.5 0-.8 0-1-.4-.5-.3-.6-.8-.6-1.4.1-.5.1-1 .3-1.4l.5-1.2c.3-.3.5-.6.9-.8a2 2 0 0 1 .9-.3c.5 0 .8 0 1 .3l.5.6.3-.8h.7l-1.1 5.3h-.7l.1-.9-.8.8-1 .2Zm.2-.7c.3 0 .5 0 .8-.2l.6-.8a4 4 0 0 0 .4-1 3 3 0 0 0 .1-.5 4 4 0 0 0 0-.5c.1-.3.1-.6-.1-.8-.3-.2-.5-.3-.8-.3-.2 0-.5.1-.7.3a2 2 0 0 0-.6.5l-.4 1.1-.1 1.1c0 .4 0 .8.2.9l.6.2Zm6.2.7c-.4 0-.7 0-.9-.2a2 2 0 0 1-.5-.8l-.4 1h-.6l1.6-7.7h.9l-.5 1.8-.1.7a52.8 52.8 0 0 1-.2.8 5 5 0 0 1 .9-.8c.2-.2.5-.3.9-.3.5 0 .8.1 1 .5.5.3.5.7.5 1.3 0 .5 0 1-.2 1.4l-.5 1.3c-.3.3-.5.5-.8.7a2 2 0 0 1-1.1.3Zm0-.7c.1 0 .3 0 .6-.2s.5-.4.6-.7a4 4 0 0 0 .4-1 5 5 0 0 0 0-1.1c.1-.7-.2-1-.8-1-.2-.1-.4-.1-.6.1-.3.2-.6.5-.7.6l-.4 1.1c-.2.4-.2.7-.2 1.1 0 .4 0 .6.2.8.2.2.5.3.8.3ZM225 237c-.8 0-1.3 0-1.6-.5-.4-.4-.4-.9-.4-1.5v-1.2l.7-1.2.8-.8a2 2 0 0 1 1.1-.3c.6 0 1 .1 1.2.3.2.2.4.5.4 1 0 .2-.2.5-.4.8-.2.4-.5.6-1 .8l-1.7.2h-.2v.4c0 .4 0 .7.3 1 .2.2.5.3.8.3h.8a5 5 0 0 0 .7-.5v.8a6 6 0 0 1-.7.4h-.9Zm-1-3 1.3-.3c.2.1.5-.1.7-.2.2-.2.3-.5.3-.7 0-.2 0-.3-.2-.4l-.5-.2c-.3 0-.6.2-1 .5-.1.3-.4.7-.6 1.2Zm-27 14.9 1.7-7.2h1.3c1.6 0 2.3.6 2.3 1.9 0 .4 0 1-.3 1.3-.3.4-.8.7-1.4.8l1.2 3.3h-1l-1-3.1h-1.2l-.6 3.1Zm1.8-3.7h.7c.7 0 1.2-.2 1.5-.5.3-.2.4-.6.4-1 0-.6 0-.9-.3-1.1h-1.8Zm5.5 3.8c-.3 0-.7-.2-1-.5-.3-.3-.4-.7-.4-1.4 0-.5 0-1 .1-1.4l.6-1.2.8-.8a2 2 0 0 1 1.1-.3c.4 0 .6.1.9.3l.4.7h.2l.2-.9h.8l-1.3 5.5h-.7l.2-1.1-1 .8c-.2.2-.5.3-.9.3Zm.3-.7c.4 0 .5-.1.7-.3l.7-.7a4 4 0 0 0 .4-1 3 3 0 0 0 .1-.7 4 4 0 0 0 0-.4c0-.2 0-.5-.2-.7-.3-.2-.4-.3-.7-.3-.3 0-.6 0-.7.2a2 2 0 0 0-.6.7l-.4.9-.1 1c0 .6 0 .9.2 1 0 .2.3.3.6.3Zm3.7.6 1.2-5.4h.7v1c-.1-.2.1-.5.3-.5a2 2 0 0 1 .7-.4l.7-.2c.5 0 .8.1 1.1.4.3.2.4.5.4 1v.7l-1 3.5h-.9l.9-3.5v-.7c0-.4-.1-.6-.6-.6-.3 0-.5 0-.8.2-.3.2-.5.4-.7.8-.3.3-.4.8-.5 1.4l-.5 2.3Zm7.4 2.4-.9-.1c-.3 0-.5-.2-.7-.3v-.8l.7.3a3 3 0 0 0 .9.2c.3 0 .7-.2 1-.4.3-.2.5-.5.6-1v-.2l.3-.6v-.5l-.8.8c-.3.2-.6.3-1 .3s-.8-.2-1-.5c-.3-.3-.5-.7-.5-1.4l.2-1.3c.1-.5.3-.9.6-1.2.2-.4.5-.7.8-.9a2 2 0 0 1 1-.3c.5 0 .8.1 1.1.3l.2.7.6-.9h.6l-1.2 5.7c-.2.7-.5 1.3-1 1.6-.2.3-.7.5-1.4.5Zm.4-3 .7-.3.6-.7.4-1c.2-.3.2-.6.2-.9 0-.6 0-.8-.2-1-.2-.1-.4-.2-.8-.2-.2 0-.5 0-.7.2l-.6.7-.3 1-.2.9c0 1 .3 1.4.9 1.4Zm5.9.7c-.5 0-1-.2-1.3-.6-.4-.3-.6-.8-.6-1.4 0-.5 0-1 .2-1.3l.5-1.1.9-.9a2 2 0 0 1 1.1-.3c.5 0 .9.1 1.2.4.2.2.3.5.3.9 0 .3 0 .6-.3 1l-1 .5c-.5.3-1 .4-1.8.4h-.2v.3c0 .4.1.8.3 1.1.2.1.5.3 1 .3.1 0 .3 0 .5-.3a5 5 0 0 0 .9-.2v.8a6 6 0 0 1-.8.3h-.8Zm-.7-3.1 1-.1c.4-.1.7-.2.9-.4.2-.2.3-.4.3-.7 0-.1 0-.3-.2-.4l-.5-.2c-.4 0-.8.2-1 .5-.3.3-.5.7-.6 1.3Zm-.1 0" style="fill:none;stroke-width:2;stroke-linecap:butt;stroke-linejoin:round;stroke:#fff;stroke-opacity:.6;stroke-miterlimit:10" transform=" rotate(  340 210.667 239.912) "/> <g style="fill:#46673b;fill-opacity:1" transform=" rotate(  340 210.667 239.912) ">  <use xlink:href="#a" x="193.8" y="236.9"/>  <use xlink:href="#b" x="198.1" y="236.9"/>  <use xlink:href="#c" x="203.8" y="236.9"/>  <use xlink:href="#d" x="206.3" y="236.9"/>  <use xlink:href="#e" x="211" y="236.9"/>  <use xlink:href="#f" x="216.7" y="236.9"/>  <use xlink:href="#g" x="222.5" y="236.9"/>  <use xlink:href="#o" x="196.7" y="248.9"/>  <use xlink:href="#e" x="202.4" y="248.9"/>  <use xlink:href="#j" x="208.1" y="248.9"/>  <use xlink:href="#p" x="213.9" y="248.9"/>  <use xlink:href="#g" x="219.7" y="248.9"/> </g> <path d="M70.6 60.5c-.8 0-1.4-.3-1.8-.7-.5-.5-.8-1.2-.8-2l.2-1.3.5-1.3.8-1c.3-.4.5-.6 1-.8l1.5-.2c.6 0 1.2 0 1.7.4l-.4.7a4 4 0 0 0-.6-.2l-.7-.2c-.5.1-1 .2-1.3.4-.4.2-.7.5-1 .9a4 4 0 0 0-.4 1.2l-.2 1.3c-.1.7.1 1.1.4 1.5.3.3.7.5 1.3.5h.8l.8-.4v.9l-.8.2a5 5 0 0 1-1 0Zm2.9-.1 1.6-7.6h1l-1.8 7.6Zm4.3.1c-.5 0-.8-.2-1-.5-.5-.3-.6-.7-.6-1.3.1-.5.1-1 .3-1.5l.5-1.1 1-.9a2 2 0 0 1 .9-.2c.4 0 .7 0 .9.2l.5.8.4-1h.6l-1.1 5.4h-.7l.1-1-.8.8c-.3.2-.8.3-1 .3Zm.2-.7c.3 0 .5-.1.8-.3l.6-.7a4 4 0 0 0 .6-1 3 3 0 0 0-.1-.7 4 4 0 0 0 .1-.4c0-.3 0-.5-.2-.7-.2-.2-.5-.3-.8-.3-.2 0-.5 0-.7.2a2 2 0 0 0-.6.7l-.4 1-.1 1c0 .4 0 .8.2 1l.6.2Zm3.7.6L83 55h.7l-.1 1 .4-.5a2 2 0 0 1 .6-.5l.8-.1c.4.1.8.1 1 .4.2.2.4.5.4 1v.4l-.2.4-.7 3.3H85l.7-3.4v-.4l.2-.3c-.1-.3-.3-.6-.8-.6-.1 0-.4 0-.7.3-.2.1-.4.3-.7.7-.2.3-.4.8-.5 1.3l-.5 2.4Zm7.6 0 4-7.1h.7l1.1 7H94v-2h-2.5l-1.2 2.1Zm2.7-3h1.8l-.2-1.5v-1.7h-.2a14 14 0 0 1-.4.8l-.3 1Zm3.8 3 1.6-7.6h.9l-1.6 7.6Zm2.1 2.4 1.6-7.8h.7v1l.7-.7c.3-.3.7-.4 1.1-.4.4.1.7.2 1 .5.4.3.5.8.5 1.4-.1.5-.1 1-.3 1.4l-.5 1.2-.8.8a2 2 0 0 1-1.1.3c-.4 0-.8-.1-.9-.3a2 2 0 0 1-.5-.6v.4l-.3.5-.3 2.3Zm2.8-3c.3 0 .5-.1.7-.3.3-.2.6-.4.6-.7a4 4 0 0 0 .4-1 5 5 0 0 0 .1-.9c0-.9-.3-1.2-.9-1.2-.2 0-.4 0-.6.2l-.7.7-.3 1c-.3.3-.3.7-.3 1 0 .4 0 .8.2 1 .2.1.5.2.8.2Zm5.3-5.7h-.3l-.2-.5c0-.1 0-.3.2-.4l.3-.2c.4 0 .6.2.6.5 0 .2 0 .4-.2.5h-.4Zm-1.8 6.3 1.1-5.4h.9l-1.2 5.4Zm2.5 0 1.2-5.4h.7v1c-.1-.2.1-.3.4-.5a2 2 0 0 1 .6-.5l.7-.1c.5.1.8.1 1 .4.4.2.5.5.5 1v.7l-1 3.4h-.8l.8-3.4v-.7c0-.3-.1-.6-.6-.6-.2 0-.6 0-.8.3-.4.1-.5.3-.7.7-.2.3-.4.8-.5 1.3l-.5 2.4Zm8 .1c-.7 0-1.1-.2-1.5-.5-.2-.4-.5-1-.5-1.5l.3-1.3.4-1.1.9-.8a2 2 0 0 1 1.1-.4c.6.1.9.2 1.2.4.2.2.3.5.3.9.1.3.1.7-.3 1-.2.1-.5.4-1 .5-.5.3-1 .4-1.8.4h-.2v.3c0 .4.1.8.4 1 .1.3.4.4 1 .4l.5-.1a5 5 0 0 0 .8-.4v.8a6 6 0 0 1-.7.3h-1Zm-1-3.1h.3l.9-.1c.4-.1.7-.3.9-.4l.2-.6c0-.3 0-.4-.1-.5l-.5-.1c-.4 0-.7.1-1 .3-.3.4-.4.8-.6 1.4ZM69 72.3l1.7-7.1h1.1l.7 5.8 3.3-5.8h1.3l-1.5 7.1h-.9l1-4.2a47.9 47.9 0 0 1 .3-2l-3.4 6.2H72l-.8-6.2-.2.5-.1.7v.7l-1.1 4.3Zm10.6.1c-.7 0-1.2-.2-1.6-.4-.3-.5-.4-1.1-.4-1.7l.1-1.2a4 4 0 0 1 .5-1c.2-.5.5-.8.9-1 .3-.1.7-.1 1.1-.1.8-.1 1.1 0 1.5.5.3.3.5.8.5 1.5l-.1 1.2a4 4 0 0 1-.5 1.1c-.3.3-.6.6-.9.8-.3.2-.7.3-1.1.3Zm0-.7c.3 0 .6-.1.9-.4l.5-1c.3-.3.3-.7.3-1.3v-.7a1 1 0 0 0-.5-.5l-.6-.2c-.2 0-.6.2-1 .4l-.4 1a4 4 0 0 0-.4 1.4c0 .4.1.6.3 1 .3.1.5.2.9.2Zm5 .7c-.4 0-.7 0-1-.3-.2-.2-.4-.6-.4-1v-.4l.3-.5.5-3.2h.9l-.7 3.3v1.2l.7.2c.2 0 .4 0 .7-.2l.7-.8c.2-.4.4-.8.5-1.4l.5-2.3h.9l-1.1 5.3h-.8l.1-1-.5.5-.5.5-.8.1Zm4.1-.1L90 67h.7l-.1 1 .4-.6a2 2 0 0 1 .6-.4l.8-.2c.4 0 .6.2 1 .4.2.2.4.6.4 1v.5l-.3.3-.5 3.3h-1l.8-3.3v-.4l.1-.3c-.1-.4-.3-.7-.8-.7l-.7.4-.7.6c-.2.4-.4.8-.5 1.4l-.5 2.3Zm7.4.1c-.3 0-.6 0-.9-.2-.2-.2-.4-.5-.4-1l.2-.5.5-3.1h-.8v-.4l1.1-.2.5-1.2h.5l-.2 1.2h1.3l-.1.6h-1.4l-.6 3v1l.6.1h.2l.4-.1v.7h-.4l-.6.2Zm3.4 0c-.4 0-.7-.1-1-.4-.3-.3-.5-.8-.5-1.4 0-.5 0-1 .3-1.4l.5-1.2c.2-.4.5-.6.8-.8a2 2 0 0 1 1.1-.3c.4 0 .6 0 .9.3l.4.6.4-.8h.7l-1.1 5.3h-.7v-1l-.8.8c-.3.2-.5.3-1 .3Zm.3-.7c.3 0 .5 0 .7-.3.3-.1.5-.4.7-.7a4 4 0 0 0 .4-1 3 3 0 0 0 .1-.7 4 4 0 0 0 0-.3c.1-.3.1-.7-.1-.8-.3-.2-.6-.3-.8-.3-.3 0-.5.1-.7.4a2 2 0 0 0-.6.5l-.4 1-.1 1.1c0 .4 0 .7.2.8.1.2.3.3.6.3Zm5.6-5.7h-.3l-.2-.4c.1-.2.1-.3.2-.4-.1-.2.2-.2.4-.2.3 0 .5 0 .5.4 0 .2 0 .4-.2.6l-.4.1Zm-1.8 6.4 1.1-5.4h.9l-1.2 5.3Zm2.4-.1 1.4-5.3h.6v1l.3-.6a2 2 0 0 1 .7-.4l.7-.2c.5 0 .8.2 1 .4.3.2.5.6.5 1v.8l-1 3.3h-.9l.9-3.3v-.7c0-.4-.2-.7-.6-.7-.3 0-.6.1-.8.4-.3 0-.5.3-.8.6-.2.4-.3.8-.5 1.4l-.5 2.3Zm7.2.1h-.9l-.6-.4v-.7l.7.3.8.1c.4 0 .7 0 .8-.2l.4-.6c0-.2 0-.4-.2-.5l-.7-.5c-.5-.2-.7-.4-.9-.7-.2-.2-.3-.5-.3-.8 0-.5.2-.8.5-1.1.4-.3.8-.4 1.3-.4h1c.1.3.4.3.6.4l-.2.7-.6-.3h-1.4c-.2.3-.3.4-.3.6s0 .4.2.5l.6.5.7.4.4.3.2.8c0 .5-.3 1-.6 1.2-.4.3-.9.4-1.5.4ZM69.7 84.3l-.3-7.3h1v6.2a25.3 25.3 0 0 1 .8-1.9l2-4.2h.8l.3 4.2v1.9l.3-.8.4-1 1.8-4.2h1l-3.2 7.1h-1l-.2-4.6a35 35 0 0 1 0-1.4l-.4.6-.2.8-2.1 4.6ZM79 78h-.3l-.1-.4.1-.6.5-.1c.3.1.4.2.4.5 0 .2 0 .3-.2.5l-.4.1Zm-1.8 6.3 1.1-5.4h1L78 84.3Zm2.6 0 1.6-7.6h.9l-1.6 7.6Zm4.2.1c-.4 0-.8-.2-1-.5-.3-.3-.4-.7-.4-1.4l.1-1.4c.3-.4.3-.8.6-1.1.2-.4.5-.7.7-1a2 2 0 0 1 1.1-.2c.6 0 .8.2 1.1.3l.3.6h.1a35.3 35.3 0 0 1 .2-1.3l.4-1.7h.8l-1.6 7.6h-.7l.1-1-.8.7c-.3.3-.6.4-1 .4Zm.3-.8c.2 0 .5 0 .7-.2l.6-.7.5-1 .2-.9c0-.6-.1-.8-.3-1 0-.1-.4-.2-.7-.2-.3 0-.6 0-.8.2l-.5.7-.4 1-.1 1c0 .9.2 1.2.8 1.2Zm6 .8c-.6 0-1.1-.2-1.4-.6-.4-.3-.5-.8-.5-1.4l.1-1.4.6-1.1.8-.8a2 2 0 0 1 1.1-.3c.5 0 1 .2 1.2.3.2.3.4.6.4 1 0 .3-.1.6-.4.9l-1 .6c-.4.4-1 .4-1.8.4h-.1v.3c0 .4 0 .8.2 1 .2.2.5.3 1 .3h.7a5 5 0 0 0 .7-.5v.9a6 6 0 0 1-.7.3h-.9Zm-1-3.2h1.3c.4-.2.7-.2.9-.5.1-.1.2-.3.2-.7 0 0 0-.2-.2-.3l-.5-.2c-.3 0-.7.2-1 .5-.2.3-.5.7-.6 1.2ZM93.1 84.3l1.2-5.4h.7l-.1 1.1.5-.6.5-.4.7-.2h.6l-.2 1h-.5c-.5-.2-.7-.2-1 0l-.5 1c-.3.2-.4.7-.4 1l-.6 2.5Zm3.9 0 1.3-5.4h.7v1c0-.2.1-.4.3-.5a2 2 0 0 1 .7-.4c.2-.2.4-.2.7-.2.5 0 .8.1 1 .2.3.4.4.7.4 1.1v.5l-.1.4-.7 3.3h-1l.8-3.4v-.7c.1-.4-.1-.6-.5-.6-.3 0-.6 0-.8.2l-.8.8-.5 1.4-.5 2.3Zm8 .1c-.5 0-1-.2-1.3-.6-.4-.3-.6-.8-.6-1.4 0-.5 0-.9.2-1.4l.5-1.1c.3-.3.5-.6.9-.8a2 2 0 0 1 1-.3c.7 0 1.1.2 1.3.3.2.3.3.6.3 1 0 .3 0 .6-.3.9l-1 .6c-.5.4-1 .4-1.8.4h-.2v.3c0 .4.1.8.3 1 .2.2.5.3 1 .3h.5a5 5 0 0 0 .9-.5v.9a6 6 0 0 1-.8.3h-.8Zm-.8-3.2h1.1l.8-.5c.3-.1.4-.3.4-.7l-.2-.3-.6-.2c-.3 0-.6.2-.9.5-.3.3-.5.7-.7 1.2Zm5 3.2-.9-.1-.6-.3v-.8l.6.3.8.1c.4 0 .7 0 1-.2.1-.1.2-.3.2-.6l-.1-.5-.7-.5-1-.6-.1-.9c-.1-.3.1-.8.4-1 .3-.3.8-.6 1.3-.6l1 .3.6.2-.2.7-.6-.2-.9-.1c-.2 0-.4 0-.6.2l-.2.5c0 .2 0 .3.2.4 0 .3.3.3.6.5l.7.4.3.5.3.6c0 .6-.3 1-.6 1.3-.4.2-.9.4-1.5.4Zm4.3 0-.9-.1-.6-.3v-.8l.6.3.9.1c.4 0 .7 0 .9-.2.2-.1.3-.3.3-.6 0-.2 0-.3-.2-.5l-.7-.5-.9-.6c-.2-.2-.3-.5-.3-.9s.2-.8.5-1c.3-.3.9-.6 1.3-.6l1 .3.6.2-.2.7-.6-.2-.8-.1c-.2 0-.4 0-.6.2-.2 0-.3.2-.3.5s0 .3.2.4c0 .3.3.3.7.5l.6.4.4.5.2.6c0 .6-.2 1-.6 1.3-.4.2-.9.4-1.5.4Zm-43 11.9h-.9L69 96v-.9l.6.3 1 .1.7-.1c.3 0 .5-.2.7-.4l.2-.8c0-.2 0-.5-.3-.7-.1-.2-.5-.4-.9-.5a4.4 4.4 0 0 1-.7-.6 1.9 1.9 0 0 1-.3-.6l-.3-.8c0-.4.1-.8.3-1a2 2 0 0 1 1-.9 3 3 0 0 1 1-.1h1l.8.5-.3.7-.5-.3-1-.1c-.3 0-.7 0-1 .2-.2.3-.3.6-.3 1v.5l.5.4.5.3.7.5a2 2 0 0 1 .6.6c.1.2.1.5.1.9 0 .7-.1 1.2-.7 1.6-.4.2-1 .5-1.9.5Zm5.1 0c-.4 0-.7 0-1-.2-.1-.2-.2-.5-.2-1.1v-.5l.6-3h-.8v-.4l1-.4.5-1h.6l-.3 1.1h1.4l-.2.7H76l-.7 3-.1.1v.4l.1.4.4.2h.3l.4-.1v.5l-.4.2-.4.1Zm3.4 0c-.6 0-.9-.1-1-.3-.4-.2-.5-.6-.5-1v-.4l.2-.6.7-3h.9l-.7 3.2-.1.8.1.4.6.2c.2 0 .5 0 .7-.2l.7-.8c.4-.4.5-.8.6-1.4l.5-2.3h.8l-1.1 5.3h-.7v-1c0 .2-.2.4-.4.5l-.6.5-.8.1Zm5.8 0c-.5 0-.8-.1-1-.3-.5-.4-.6-1-.6-1.5.1-.5.1-1 .3-1.5l.5-1.1.8-.8a2 2 0 0 1 1.2-.3c.3 0 .6 0 .8.2l.5.7a35.3 35.3 0 0 1 .3-1.3l.3-1.8h.9l-1.6 7.6h-.7v-1l-.8.8c-.2.2-.6.3-1 .3Zm.2-.7c.3 0 .5 0 .7-.3.3-.1.5-.3.6-.6l.5-1 .2-1.1c0-.3 0-.6-.2-.8-.2-.2-.4-.3-.8-.3-.3 0-.5 0-.7.3l-.6.6-.4 1-.1 1.1c0 .7.3 1 .9 1Zm3.4 3h-.7v-.9h.3l.3.3c.3-.1.5-.1.7-.3l.6-.8.3-.6-.8-5.4h.9l.3 2.6.1.7v1.3a28.4 28.4 0 0 1 .6-1.1c0-.4.2-.5.3-.6l1.5-3h1l-3.4 6.4c-.4.4-.6.8-.9 1-.3.3-.7.4-1.1.4Zm6.9-2.4 3.9-7.1h1l.8 7.1h-.9L100 94h-2.6l-1.1 2.2Zm2.7-3h1.8l-.2-1.5v-.8l-.2-.9a14 14 0 0 1-.4 1l-.3.7Zm3.8 3 1.1-5.2h.7v.9l.4-.7.5-.2.7-.2h.6l-.2.8h-.5c-.3 0-.6 0-.9.3-.2.1-.5.5-.6.8l-.4 1-.5 2.6Zm5.9.1c-.6 0-1-.2-1.4-.5-.4-.4-.5-.9-.5-1.5l.1-1.3c.2-.4.3-.8.6-1 .2-.5.5-.7.8-1a2 2 0 0 1 1.1-.2c.6 0 1 0 1.2.2.2.3.4.6.4 1 0 .3-.1.6-.4 1-.2.2-.5.5-1 .7l-1.6.2h-.3v.4c0 .4 0 .7.3 1 .2.1.5.2.9.2h.7a5 5 0 0 0 .7-.3v.7a6 6 0 0 1-.7.3l-.9.1Zm-.9-3.1 1.2-.2c.3 0 .6-.1.8-.3.2-.1.3-.4.3-.6 0-.2 0-.3-.1-.4 0-.2-.4-.2-.6-.2-.3 0-.6.1-1 .4-.1.3-.4.7-.5 1.3Zm5.4 3.1c-.4 0-.8-.1-1-.3-.3-.5-.4-1-.4-1.5l.1-1.5.6-1.1c.2-.4.5-.6.8-.9a2 2 0 0 1 1-.2c.5 0 .7 0 1.1.2l.2.7.6-.8h.6l-1.2 5.3h-.6l.1-1-1 .8c-.1.2-.5.3-.9.3Zm.3-.7c.2 0 .5-.1.7-.3l.8-.7a4 4 0 0 0 .3-1 3 3 0 0 0 .1-.6 4 4 0 0 0 0-.4c0-.4 0-.6-.2-.8-.2-.2-.4-.3-.7-.3-.3 0-.5 0-.7.2a2 2 0 0 0-.6.7l-.4 1-.1 1.1c0 .5 0 .6.2.8.1.2.3.3.6.3Zm0 0" style="fill:none;stroke-width:2;stroke-linecap:butt;stroke-linejoin:round;stroke:#fff;stroke-opacity:.6;stroke-miterlimit:10" transform=" rotate(  340 92.376 75.3034) "/> <g style="fill:green;fill-opacity:1" transform=" rotate(  340 92.376 75.3034) ">  <use xlink:href="#q" x="67.4" y="60.4"/>  <use xlink:href="#k" x="73.2" y="60.4"/>  <use xlink:href="#e" x="75.8" y="60.4"/>  <use xlink:href="#j" x="81.5" y="60.4"/>  <use xlink:href="#glyph0-18" x="87.3" y="60.4"/>  <use xlink:href="#r" x="89.9" y="60.4"/>  <use xlink:href="#k" x="95.5" y="60.4"/>  <use xlink:href="#s" x="98.1" y="60.4"/>  <use xlink:href="#c" x="103.9" y="60.4"/>  <use xlink:href="#j" x="106.5" y="60.4"/>  <use xlink:href="#g" x="112.3" y="60.4"/>  <use xlink:href="#t" x="68.7" y="72.3"/>  <use xlink:href="#b" x="77.1" y="72.3"/>  <use xlink:href="#u" x="82.7" y="72.3"/>  <use xlink:href="#j" x="88.5" y="72.3"/>  <use xlink:href="#i" x="94.3" y="72.3"/>  <use xlink:href="#e" x="97.6" y="72.3"/>  <use xlink:href="#c" x="103.3" y="72.3"/>  <use xlink:href="#j" x="105.9" y="72.3"/>  <use xlink:href="#n" x="111.6" y="72.3"/>  <use xlink:href="#v" x="68.4" y="84.3"/>  <use xlink:href="#c" x="76.9" y="84.3"/>  <use xlink:href="#k" x="79.5" y="84.3"/>  <use xlink:href="#w" x="82.1" y="84.3"/>  <use xlink:href="#g" x="87.9" y="84.3"/>  <use xlink:href="#m" x="92.9" y="84.3"/>  <use xlink:href="#j" x="96.8" y="84.3"/>  <use xlink:href="#g" x="102.6" y="84.3"/>  <use xlink:href="#n" x="107.6" y="84.3"/>  <use xlink:href="#n" x="111.9" y="84.3"/>  <use xlink:href="#x" x="68.7" y="96.2"/>  <use xlink:href="#i" x="73.7" y="96.2"/>  <use xlink:href="#u" x="77" y="96.2"/>  <use xlink:href="#w" x="82.8" y="96.2"/>  <use xlink:href="#d" x="88.6" y="96.2"/>  <use xlink:href="#glyph0-18" x="93.3" y="96.2"/>  <use xlink:href="#r" x="95.9" y="96.2"/>  <use xlink:href="#m" x="101.5" y="96.2"/>  <use xlink:href="#g" x="105.3" y="96.2"/>  <use xlink:href="#e" x="110.3" y="96.2"/> </g> <path d="M142.5 250h-1l-.6-.3v-.7l.6.2h1.8c.3-.2.5-.3.7-.5.1-.2.2-.4.2-.7 0-.3-.2-.5-.3-.7l-1-.7a4.4 4.4 0 0 1-.5-.4 1.9 1.9 0 0 1-.6-.6l-.1-.8c0-.4 0-.8.3-1.1a2 2 0 0 1 .9-.7 3 3 0 0 1 1.1-.3l1 .1.8.4-.3.7-.7-.3h-.8c-.4-.1-.7-.1-1 .1-.2.4-.4.6-.4 1.1l.1.3.4.5.5.4.8.5a2 2 0 0 1 .5.6l.2.8c0 .7-.2 1.2-.7 1.6-.5.5-1.1.6-2 .6Zm3.5 0 1.6-7.6h.8l-.4 2v.6l-.3.6.5-.5.6-.4.8-.2c.4 0 .7.1 1 .5.1 0 .2.4.2.9v.8l-.8 3.3h-.8l.8-3.4v-1.2l-.7-.2c-.2 0-.5.1-.7.3-.3.1-.6.4-.7.7-.3.4-.4.9-.6 1.5l-.5 2.3Zm8 0c-.7 0-1.2 0-1.5-.5-.5-.4-.5-.9-.5-1.5v-1.2a4 4 0 0 1 .6-1.1c.2-.4.5-.7.9-.9.3-.2.7-.3 1.1-.3.7 0 1.1.2 1.5.6.3.4.5.9.5 1.5l-.1 1.2a4 4 0 0 1-.5 1.2c-.3.3-.5.5-1 .7-.2.3-.6.3-1 .3Zm0-.7.9-.3.6-1c.2-.4.2-.9.2-1.5v-.5a1 1 0 0 0-.5-.6l-.6-.1c-.3 0-.6 0-1 .3l-.4 1a4 4 0 0 0-.4 1.4c0 .4.2.8.3 1 .3.2.5.3.9.3Zm4.6.7h-.8l-.8-.3v-.7l.8.2.8.1c.4 0 .7 0 1-.2l.1-.6c.1-.2.1-.3-.1-.5l-.6-.5-.9-.5c-.2-.4-.3-.6-.3-1s.1-.8.5-1c.3-.4.7-.6 1.3-.6l.9.2.7.4-.2.6-.6-.2-.8-.2-.7.2c-.2.2-.2.4-.2.6l.1.4c.2.2.4.3.7.6l.6.3.5.5.1.6c0 .6-.2 1-.5 1.3-.4.2-1 .3-1.6.3Zm3.1 0 1.6-7.6h.9l-.4 2-.2.6-.2.6.6-.5.5-.4.8-.2c.4 0 .7.1 1 .5.2 0 .4.4.4.9v.4l-.3.4-.6 3.3h-.8l.7-3.4v-1.2l-.7-.2c-.2 0-.4.1-.7.3l-.7.7-.6 1.5-.4 2.3Zm8 0c-.6 0-1.1 0-1.5-.5-.2-.4-.5-.9-.5-1.5 0-.4 0-.8.2-1.2a4 4 0 0 1 .5-1.1c.2-.4.5-.7.8-.9.3-.2.7-.3 1.2-.3.6 0 1 .2 1.4.6.4.4.6.9.6 1.5 0 .4 0 .8-.2 1.2a4 4 0 0 1-.5 1.2c-.2.3-.5.5-.8.7l-1.2.3Zm0-.7c.4 0 .7-.1 1-.3l.4-1c.3-.4.4-.9.4-1.5l-.1-.5a1 1 0 0 0-.4-.6l-.6-.1c-.4 0-.7 0-1 .3-.2.4-.4.6-.6 1a4 4 0 0 0-.2 1.4c0 .4 0 .8.3 1 .1.2.5.3.8.3Zm3.3.7 1.3-5.4h.7v1c0-.2.1-.4.3-.6a2 2 0 0 1 .7-.3c.2-.2.4-.2.7-.2.5 0 .8.1 1 .3.3.3.4.6.4 1v.5l-.1.4-.7 3.3h-1l.8-3.4v-.7c.1-.4-.1-.6-.5-.6-.3 0-.6 0-.8.2l-.8.8-.5 1.4-.5 2.3Zm8 0c-.5 0-1 0-1.3-.4-.4-.4-.6-.9-.6-1.6 0-.4 0-.8.2-1.2l.5-1.2c.3-.3.5-.6.9-.8a2 2 0 0 1 1-.3c.7 0 1.1.1 1.3.3.2.3.3.6.3 1 0 .2 0 .6-.3 1l-1 .5c-.5.3-1 .4-1.8.4h-.2v.3c0 .4.1.7.3 1 .2.2.5.3 1 .3h.5a5 5 0 0 0 .9-.5v.9a6 6 0 0 1-.8.2l-.8.2Zm-.8-3 1.1-.3c.4.1.7-.1.8-.2.3-.2.4-.5.4-.7l-.2-.4-.6-.2c-.3 0-.6.2-.9.5-.3.3-.5.7-.7 1.2ZM148.5 261.9l1.6-7.1h1.5c1.5 0 2.2.6 2.2 1.8 0 .4-.1 1-.4 1.3-.3.4-.7.7-1.4.8l1.2 3.3h-1l-1-3.1h-1.1l-.7 3.1Zm1.7-3.7h.8c.7 0 1.1-.1 1.4-.4.3-.3.6-.8.6-1.2-.1-.4-.2-.6-.4-.8-.3-.2-.6-.3-1-.3h-.9Zm5.6 3.8c-.4 0-.8-.2-1-.5-.3-.3-.4-.7-.4-1.3l.1-1.5.6-1.1c.2-.4.5-.7.8-.9a2 2 0 0 1 1.1-.3c.4 0 .7.1 1 .3l.2.7.6-.9h.6l-1.2 5.5h-.7l.2-1.1-1 .8c-.2.2-.5.3-.9.3Zm.3-.7c.2 0 .5-.1.7-.3.2-.2.5-.4.6-.7a4 4 0 0 0 .6-1 3 3 0 0 0-.1-.7 4 4 0 0 0 .1-.4c0-.2 0-.5-.2-.7-.2-.2-.4-.3-.8-.3-.2 0-.4 0-.6.2a2 2 0 0 0-.6.7l-.4 1-.2 1.1c0 .4.1.6.3.8.1.2.3.3.5.3ZM159.8 261.9l1.1-5.4h.8v1c-.1-.2.1-.3.3-.5a2 2 0 0 1 .7-.4l.7-.2c.6 0 .8.1 1 .4.3.2.4.5.4 1v.4l-.1.5-.7 3.2h-1l.8-3.4v-.5c.1-.6-.1-.8-.5-.8-.3 0-.6 0-.8.2l-.8.8-.4 1.4-.6 2.3Zm7.4 2.4-1-.1-.5-.2v-.8l.6.2a3 3 0 0 0 .9.2c.4 0 .7-.1 1-.3l.5-1 .1-.4.2-.5v-.5l-.7.8c-.3.2-.7.3-1 .3-.5 0-.8-.2-1-.5-.3-.3-.6-.7-.6-1.3.1-.5.1-1 .3-1.4l.5-1.2c.3-.4.5-.6.9-.8a2 2 0 0 1 1-.4c.4 0 .7.1 1 .3l.3.7.6-.9h.6l-1.3 5.7c-.1.8-.4 1.3-.8 1.6-.4.3-1 .5-1.6.5Zm.4-3 .6-.3c.3 0 .5-.4.8-.6l.3-1 .2-1.1c0-.4 0-.6-.2-.8-.3-.2-.4-.3-.8-.3-.3 0-.5 0-.7.2l-.6.7-.4 1v1.1c-.1.7.2 1 .7 1Zm6 .7c-.7 0-1.2-.2-1.6-.5-.2-.5-.4-.9-.4-1.5 0-.4 0-1 .2-1.3l.5-1.1c.3-.4.5-.6.9-.8a2 2 0 0 1 1-.4c.7 0 1.1.2 1.3.4.2.2.3.5.3.9 0 .3 0 .7-.3 1-.2.2-.6.5-1 .6-.5.2-1 .3-1.8.3h-.2v.3c0 .5.1.8.3 1.1.2.2.5.3 1 .3l.5-.1a5 5 0 0 0 .9-.3v.7a6 6 0 0 1-.8.4h-.8Zm-1-3.1h.1l1.1-.1c.4 0 .6-.2.8-.4.4-.1.4-.4.4-.6l-.2-.5-.6-.1c-.2 0-.6.1-.9.4-.3.4-.5.7-.7 1.4Zm0 0" style="fill:none;stroke-width:2;stroke-linecap:butt;stroke-linejoin:round;stroke:#fff;stroke-opacity:.6;stroke-miterlimit:10" transform=" rotate(  340 162.327 252.933) "/> <g style="fill:#46673b;fill-opacity:1" transform=" rotate(  340 162.327 252.933) ">  <use xlink:href="#x" x="140.6" y="250"/>  <use xlink:href="#y" x="145.7" y="250"/>  <use xlink:href="#b" x="151.5" y="250"/>  <use xlink:href="#n" x="157.1" y="250"/>  <use xlink:href="#y" x="161.4" y="250"/>  <use xlink:href="#b" x="167.2" y="250"/>  <use xlink:href="#j" x="172.8" y="250"/>  <use xlink:href="#g" x="178.6" y="250"/>  <use xlink:href="#o" x="148.1" y="261.9"/>  <use xlink:href="#e" x="153.9" y="261.9"/>  <use xlink:href="#j" x="159.5" y="261.9"/>  <use xlink:href="#p" x="165.3" y="261.9"/>  <use xlink:href="#g" x="171.1" y="261.9"/> </g></svg>