<svg xmlns="http://www.w3.org/2000/svg" xmlns:xlink="http://www.w3.org/1999/xlink" viewBox="0 0 497 279"> <defs overflow="visible" style="stroke:none">  <path id="v" d="M3.3 0c-.8 0-1.5 0-2-.5C1-1.1.8-1.8.8-2.6.7-3.1.7-3.5 1-4c-.1-.4 0-.8.3-1.2l.8-1L3-7l1.7-.2c.5 0 1.1.1 1.6.4l-.3.7a4 4 0 0 0-.7-.2l-.7-.2c-.6 0-1 .2-1.3.5-.4 0-.7.4-1 .8A4 4 0 0 0 1.9-4l-.2 1.3c0 .7.1 1.1.3 1.5.4.3 1 .5 1.4.5h.8L5-1v.8l-.8.2a5 5 0 0 1-1 0Zm0 0"/>  <path id="u" d="M2 0c-.6 0-.9 0-1.2-.3C.6-.7.5-1 .5-1.7c0-.5 0-1 .2-1.5l.5-1.1c.2-.4.5-.7.8-.9a2 2 0 0 1 1.1-.3c.4 0 .6.1.9.3l.5.7.3-.9h.7L4.4 0h-.7l.1-1c-.3.3-.5.6-.9.8-.3.2-.6.2-.9.2Zm.1-.5c.4-.1.6-.2.9-.5l.6-.6a4 4 0 0 0 .4-1 3 3 0 0 0 .1-.7 4 4 0 0 0 0-.4c.1-.3.1-.5-.1-.7-.3-.2-.5-.3-.8-.3-.3 0-.5 0-.7.2a2 2 0 0 0-.6.7l-.4 1-.1 1.1c0 .4 0 .6.2.8.1.2.3.3.6.3Zm.1-.1"/>  <path id="t" d="M1.9 0c-.4 0-.7 0-1-.1C.7-.5.5-.8.5-1.2v-.5L.8-2l.6-3.4h.9L1.4-2v1.2l.8.2c.2 0 .4-.1.8-.4l.6-.6.5-1.4.5-2.4h.9L4.4 0h-.8l.1-1-.5.5-.4.5-.9.1Zm0 0"/>  <path id="s" d="M1.8 0H1L.2-.2v-.9l.7.3 1 .1.8-.1.6-.4c.2-.2.2-.6.2-.8 0-.3 0-.5-.2-.7l-1-.6a4.4 4.4 0 0 1-.6-.5 1.9 1.9 0 0 1-.5-.6L1-5.2c0-.4.1-.8.4-1.1a2 2 0 0 1 .8-.7 3 3 0 0 1 1.2-.2h1l.8.5-.4.6-.6-.2-.8-.2c-.4 0-.7.2-1 .5-.4 0-.4.4-.4.8l.1.5.4.4.5.3.8.5a2 2 0 0 1 .5.6l.2.9c0 .6-.3 1.2-.8 1.5-.3.5-.9.6-1.8.6Zm0 0"/>  <path id="r" d="M1.8 0c-.3 0-.6 0-.8-.1C.7-.3.6-.6.6-1v-.8l.8-2.9h-1L.5-5l1-.5.5-1h.6l-.3 1h1.3l-.1.8H2.2l-.7 3v.8l.5.3h.3l.4-.3V0h-.9Zm0 0"/>  <path id="q" d="M.4 0 2-7.1h1.6c.9 0 1.5.1 2 .7.5.4.8 1.1.8 2.1a5 5 0 0 1-.5 2.2A3.7 3.7 0 0 1 4.5-.5C3.8-.2 3 0 2.2 0Zm1-.8h.9C3-.8 3.5-.9 4-1.2a3 3 0 0 0 1-1.3 4.2 4.2 0 0 0 .4-1.8c0-.7-.2-1.3-.4-1.6-.5-.3-1-.5-1.5-.5h-.8Zm.1 0"/>  <path id="p" d="M2.5 0C1.9 0 1.4 0 1-.4.7-.8.5-1.3.5-2l.1-1.2a4 4 0 0 1 .5-1.1c.3-.3.5-.7.9-.8.3-.2.7-.3 1.2-.3.6 0 1 .2 1.4.4.4.5.6 1.1.6 1.6L5-2a4 4 0 0 1-.5.9c-.2.5-.5.8-.8 1L2.5 0Zm0-.6c.5-.1.6-.1 1-.4.1-.2.3-.5.5-1 .2-.3.3-.8.3-1.4L4.2-4a1 1 0 0 0-.4-.5l-.6-.2c-.4 0-.7.1-1 .4-.2.2-.5.6-.6 1A4 4 0 0 0 1.4-2c0 .5 0 .8.3 1 .2.2.5.3.8.3Zm0-.1"/>  <path id="o" d="m-.6 0 4-7.1h.8L5 0h-.7L4-2.2H1.6L.4 0ZM2-3h1.9l-.2-1.5v-1.7h-.2a14 14 0 0 1-.3.8l-.4 1Zm0 0"/>  <path id="n" d="M1.5 0H.7L0-.2V-1l.7.3h.8c.5.1.7.1 1-.1l.1-.7c.1-.1.1-.3-.1-.4 0-.2-.3-.3-.7-.5L1-3.1c-.2-.2-.3-.5-.3-.8 0-.5.1-.9.5-1.1.3-.3.7-.5 1.3-.5.3 0 .6 0 .9.2l.6.2-.2.7-.5-.2-.8-.1c-.3 0-.5 0-.7.2-.2.1-.2.3-.2.5l.1.5.7.5c.3 0 .6.2.6.4.2 0 .4.2.5.4l.1.7c0 .5-.2 1-.5 1.2C2.7 0 2 0 1.5 0Zm0 0"/>  <path id="m" d="m.2 0 1.2-5.4h.8l-.2 1 .5-.6a2 2 0 0 1 .6-.3l.9-.2c.3 0 .6.1.9.5.1 0 .4.4.4.9v.4l-.2.5L4.4 0h-.9l.7-3.4v-.4l.2-.2c-.1-.5-.3-.7-.8-.7-.2 0-.4 0-.6.2-.3.2-.6.5-.8.8-.2.3-.4.8-.5 1.4L1.2 0Zm0 0"/>  <path id="l" d="M2 0c-.6 0-.9 0-1.2-.3C.6-.7.5-1 .5-1.7c0-.5 0-1 .2-1.4 0-.5.3-.9.5-1.2.2-.4.5-.7.8-.8a2 2 0 0 1 1.1-.4c.4 0 .7.1.9.3l.5.7a35.3 35.3 0 0 1 .2-1.3l.4-1.8H6L4.4 0h-.8l.1-1-.8.8c-.3.2-.6.2-.9.2Zm.1-.5c.4-.1.6-.2.9-.5l.5-.5.5-1 .2-1.1c0-.4-.2-.6-.3-.8-.1-.2-.4-.3-.7-.3-.3 0-.5 0-.8.2l-.4.7-.5 1-.1 1.1c0 .7.3 1 .8 1Zm.1-.1"/>  <path id="k" d="m.3 0 1.6-7.6h.9L1.2 0Zm0 0"/>  <path id="j" d="M1.4 0 1-7.1h1v6a25.3 25.3 0 0 1 .9-1.8l1.9-4.2h.9L5.9-3v2l.5-1 .2-.7 1.9-4.4h1L6.1 0h-.9v-4.6A35 35 0 0 1 5-6l-.3.6-.2.8L2.3 0Zm0 0"/>  <path id="i" d="m.3 0 1.1-5.4h.7v1l.4-.5.5-.4.7-.2H4l.3.2-.2.7h-.5c-.3-.1-.6-.1-.9.2l-.7.9-.3 1L1.2 0Zm0 0"/>  <path id="h" d="M1 0 .6-5.4h.8l.3 3v1.7h.2l.1-.5a24.4 24.4 0 0 1 .6-1.2l1.6-3h1L2.2 0Zm0 0"/>  <path id="g" d="M2.1-6.3h-.3l-.1-.5.1-.4.4-.2c.3 0 .5.2.5.5 0 .2 0 .4-.2.5l-.4.2ZM.3 0l1.1-5.4h.9L1.2 0Zm0 0"/>  <path id="f" d="M.4 0 2-7.1h1.5c1.5 0 2.2.6 2.2 1.8 0 .5-.1 1-.4 1.3-.3.4-.7.7-1.4.8L5.1 0H4l-.9-3H1.9l-.6 3Zm1.7-3.7h.8c.6 0 1.1-.1 1.4-.4.3-.3.5-.7.5-1.2 0-.4-.2-.7-.4-.7-.2-.3-.4-.4-1-.4h-.7Zm-.1 0"/>  <path id="e" d="M2.4 0c-.6 0-1 0-1.4-.3C.6-.8.5-1.3.5-2c0-.3 0-.8.2-1.2 0-.4.3-.8.5-1.1.2-.4.5-.7.8-.8a2 2 0 0 1 1.2-.4c.5 0 .8.2 1.1.5.3 0 .4.4.4.8 0 .3-.1.7-.3 1-.4.2-.6.4-1 .6-.6.2-1.2.3-1.9.3h-.1v.3c0 .5 0 .8.3 1 .2.3.5.4.9.4l.7-.1A5 5 0 0 0 4-1v.7a6 6 0 0 1-.7.3h-.9Zm-.9-3 1.3-.1.7-.4c.2-.1.3-.4.3-.5l-.1-.6-.7-.1c-.2 0-.5.1-.9.4L1.6-3Zm0 0"/>  <path id="d" d="m.3 0 1.6-7.6h.9l-.5 2-.1.6-.2.6.6-.5.5-.4.9-.2c.3 0 .6.2.9.5.1 0 .3.5.3.9v.8L4.3 0h-.8l.8-3.4V-4l-.1-.5c-.2-.2-.3-.2-.6-.2-.2 0-.4 0-.6.2-.4.2-.6.5-.8.8-.2.3-.4.7-.5 1.4L1.2 0Zm0 0"/>  <path id="c" d="M-.3 2.4h-.3l-.4-.1v-.7h.7c.3.1.5.1.7-.1.2-.2.4-.5.5-.8l.4-.6-.8-5.5h.9l.3 2.7v.7l.2.7v.6A28.4 28.4 0 0 1 2.5-2c-.1 0 .1-.3.2-.4l1.5-3h1L1.7 1c-.1.4-.4.8-.7 1-.4.3-.8.4-1.2.4Zm0 0"/>  <path id="b" d="M.8 0 .6-5.4h.8l.1 2.9v1.7a13.8 13.8 0 0 1 .5-1l.2-.5 1.4-3h1v2.7a25.5 25.5 0 0 1 .2 1.8l.3-.9.4-1 1.2-2.7h1L5 0h-.9l-.2-3v-1.4l-.3.6-.4.8-1.4 3Zm0 0"/>  <path id="a" d="M3.4 0c-.9 0-1.5 0-2-.5S.7-1.8.7-2.6.8-4 1-4.5c0-.5.4-.9.7-1.5l1.1-.9a3 3 0 0 1 1.5-.3c.8-.1 1.5.2 2 .7.3.5.5 1.2.5 2 .2.8.2 1.4-.1 1.9L6-1.2l-1.1.9c-.4.3-1 .3-1.5.3Zm0-.6a2 2 0 0 0 1-.4c.5-.2.6-.5 1-.8L5.8-3 6-4.5c0-.5-.2-1-.5-1.4-.3-.4-.7-.6-1.2-.6a2 2 0 0 0-1.1.3l-.8.8-.6 1.2a6 6 0 0 0-.1 1.5c0 .7.1 1.1.3 1.5.4.2 1 .5 1.4.5Zm0-.1"/>  <path d="M1 0v-7.1h4V0Zm.4-.5h3.1v-6.1h-3Zm.1 0"/> </defs> <image xlink:href="svg/9/89_3.jpg" width="497" height="279"/> <path d="M347.1 208.7c-.8 0-1.5-.2-2-.7-.3-.5-.5-1.2-.5-2-.1-.7-.1-1.2.1-1.8l.7-1.4c.3-.5.7-.8 1.2-1a3 3 0 0 1 1.4-.4c.9 0 1.5.2 2 .6.4.6.7 1.3.7 2.1s-.1 1.4-.3 1.9c-.1.5-.4 1-.7 1.4-.2.4-.6.6-1 1-.6.2-1.1.3-1.7.3Zm0-.7a2 2 0 0 0 1.2-.4c.2-.2.5-.4.7-.8l.5-1.2.2-1.4c0-.7-.2-1.2-.5-1.5-.2-.3-.7-.5-1.2-.5a2 2 0 0 0-1 .3c-.5.2-.8.4-1 .8l-.4 1.2a6 6 0 0 0-.2 1.4c0 .7.2 1.2.6 1.5.2.4.6.6 1.2.6ZM351.8 208.6l-.3-5.3h.9v4.6a13.8 13.8 0 0 1 .6-1.1v-.5l1.5-3h1l.1 2.7a25.5 25.5 0 0 1 0 2l.4-1.1.5-.9 1.1-2.7h1l-2.6 5.3h-1l-.2-2.9v-1.6l-.3.7-.3.8-1.4 3Zm6.2 2.4h-.9v-.9h.4l.5.3c.2-.1.4-.1.6-.3.2-.2.4-.4.4-.8l.5-.6-.8-5.4h.8l.5 2.6V208a28.4 28.4 0 0 1 .6-1.2l.2-.6 1.6-3h1l-3.6 6.4c-.1.4-.4.9-.7 1.1-.3.2-.7.3-1.2.3Zm5.1-2.4 1.6-7.6h1l-.6 2c.1.2.1.4-.1.6v.7l.4-.5.6-.5.7-.1c.4 0 .8 0 1 .3.3.3.4.6.4 1v.5l-.1.4-.7 3.2h-.9l.7-3.3.1-.7c0-.2 0-.4-.2-.5l-.5-.2c-.2.1-.5.1-.7.2l-.8.9c-.2.3-.4.7-.5 1.3l-.5 2.3Zm7.9.1c-.5 0-1-.2-1.3-.5-.4-.4-.6-.9-.6-1.5 0-.4 0-.7.2-1.3l.5-1.1.9-.8a2 2 0 0 1 1.1-.3c.5 0 .9 0 1.1.3.3.2.4.5.4 1 0 .2 0 .5-.3.8-.2.4-.5.6-1 .7l-1.8.3h-.2v.4c0 .3.1.7.3 1 .2.1.5.3 1 .3l.5-.1a5 5 0 0 0 .9-.3v.7a6 6 0 0 1-.8.3l-.8.1Zm-.7-3.1 1-.1c.4 0 .7-.2.9-.4.2-.1.3-.3.3-.6 0-.2 0-.3-.2-.5l-.5-.1c-.4 0-.8.1-1 .4-.3.3-.5.8-.6 1.3Zm5.7 3.1c-.5 0-1-.2-1.3-.5-.4-.4-.6-.9-.6-1.5 0-.4 0-.7.2-1.3l.5-1.1c.3-.3.5-.6.9-.8a2 2 0 0 1 1-.3c.7 0 1.1 0 1.3.3.2.2.3.5.3 1 0 .2 0 .5-.3.8-.2.4-.6.6-1 .7l-1.8.3h-.2v.4c0 .3.1.7.3 1 .2.1.5.3 1 .3l.5-.1a5 5 0 0 0 .9-.3v.7a6 6 0 0 1-.8.3l-.8.1Zm-.7-3.1 1-.1c.4 0 .7-.2.9-.4.2-.1.3-.3.3-.6 0-.2 0-.3-.2-.5l-.6-.1c-.3 0-.6.1-.9.4-.3.3-.5.8-.6 1.3Zm-49.9 15 1.5-7.2h1.5c1.6 0 2.2.6 2.2 1.8 0 .6 0 1-.4 1.4-.2.4-.7.6-1.2.8l1 3.2h-1l-1-3h-1.1l-.6 3Zm1.6-3.7h.8c.7 0 1.2-.2 1.5-.5.3-.3.4-.6.4-1.1 0-.4 0-.7-.3-.8-.2-.2-.6-.3-1-.3h-.8Zm5.8-2.6-.3-.1-.2-.4c0-.1 0-.3.2-.4l.4-.2c.3 0 .5.2.5.5 0 .2 0 .3-.2.3-.1.3-.2.3-.4.3Zm-1.8 6.3 1-5.4h1l-1.2 5.4Zm3.4 0-.6-5.4h.8l.4 3V219.9l.4-.6.2-.6.4-.5 1.5-3h1l-3.1 5.4Zm6 .1c-.7 0-1.1-.2-1.5-.7-.3-.2-.5-.7-.5-1.4 0-.4 0-.8.2-1.2l.5-1.2.9-.8a2 2 0 0 1 1-.3c.6 0 1 .1 1.2.3.3.3.4.6.4 1 0 .3 0 .6-.3 1l-1 .6c-.5.2-1 .3-1.8.3h-.2v.3c0 .4.1.7.3 1 .2.2.5.3 1 .3h.5a5 5 0 0 0 .9-.5v.9a6 6 0 0 1-.8.3h-.8Zm-1-3.2h1.3l.8-.5c.2-.1.3-.3.3-.6 0-.2 0-.3-.2-.4l-.5-.2c-.4 0-.7.2-1.1.5-.2.3-.4.7-.5 1.2ZM343.2 220.6l1.2-5.4h.6v1l.4-.5.6-.4.6-.3h.6l-.2 1h-.5c-.3 0-.5 0-.9.1l-.6 1-.4.9-.5 2.6Zm7.7 0-.3-7.2h.9l.1 4.4v1.7a25.3 25.3 0 0 1 .7-1.9l2-4.2h1v6.1l.6-.9c-.1-.3.1-.6.1-.8l2-4.4h1l-3.4 7.2h-.9V216a35 35 0 0 1-.1-1.4h-.2l-.1.6-.4.8-1.9 4.6Zm9.3-6.3-.3-.1-.2-.4c0-.1 0-.3.3-.4l.3-.2c.3 0 .5.2.5.5 0 .2 0 .3-.2.3-.1.3-.3.3-.4.3Zm-1.8 6.3 1-5.4h1.1l-1.3 5.4Zm2.6 0 1.4-7.6h1.1l-1.8 7.6Zm4.2.1c-.5 0-.8-.2-1-.5-.5-.2-.6-.8-.6-1.4.1-.5.1-1 .4-1.4l.4-1.1c.2-.4.6-.7.8-.9a2 2 0 0 1 1.1-.3c.4 0 .7.1.9.3l.5.6a35.3 35.3 0 0 1 .3-1.3l.3-1.7h.9l-1.6 7.6h-.7v-1l-.8.7c-.1.3-.6.4-1 .4Zm.3-.8c.2.1.4.1.5-.2.3-.2.6-.4.7-.7l.5-1 .2-1c0-.5 0-.8-.2-1-.2 0-.4-.2-.8-.2-.3 0-.5.2-.7.3l-.7.7-.3 1v1c-.1.9.1 1.2.7 1.2ZM371.4 220.7c-.6 0-1-.2-1.4-.7-.3-.2-.5-.7-.5-1.4 0-.4 0-.8.2-1.2l.5-1.2c.2-.2.5-.6.9-.8a2 2 0 0 1 .9-.3c.8 0 1.2.1 1.4.3.2.3.3.6.3 1l-.3 1-1 .6c-.5.2-1 .3-1.8.3h-.2v.3c0 .4 0 .7.3 1 .2.2.5.3.9.3h.7a5 5 0 0 0 .8-.5v.9a6 6 0 0 1-.8.3h-.9Zm-.9-3.2h1.2l.8-.5c.2-.1.3-.3.3-.6l-.1-.4-.7-.2c-.2 0-.5.2-.9.5l-.5 1.2Zm3.8 3.1 1.1-5.4h.8l-.2 1 .6-.5.4-.4.7-.3h.6l-.2 1h-.5c-.3 0-.6 0-.9.1-.2.4-.5.6-.6 1l-.4.9-.5 2.6Zm3.9 0 1.2-5.4h.8l-.2 1c0-.2.3-.4.5-.5a2 2 0 0 1 .6-.4c.2-.3.5-.3.8-.3.4 0 .7.2 1 .4.1.3.4.6.4 1v.6l-.3.3-.6 3.3h-1l.9-3.4v-.4l.1-.3c-.1-.4-.3-.5-.8-.5-.2-.1-.4-.1-.6 0-.3.3-.6.5-.8 1-.2.2-.4.7-.5 1.3l-.5 2.3Zm8 .1c-.6 0-1.1-.2-1.4-.7-.4-.2-.5-.7-.5-1.4l.1-1.2.6-1.2.8-.8a2 2 0 0 1 1.2-.3c.4 0 1 .1 1.1.3.2.3.4.6.4 1 0 .3-.1.6-.5 1l-.9.6c-.4.2-1 .3-1.8.3h-.1v.3c0 .4 0 .7.3 1 .1.2.5.3.9.3h.6a5 5 0 0 0 .8-.5v.9a6 6 0 0 1-.7.3h-.9Zm-.9-3.2h1.3l.7-.5c.2-.1.3-.3.3-.6 0-.2 0-.3-.2-.4l-.4-.2c-.4 0-.7.2-1.1.5-.1.3-.4.7-.5 1.2Zm5 3.2-.8-.1-.7-.3v-.8l.7.3.8.2c.4 0 .7 0 .9-.3.2-.1.3-.3.3-.6 0-.1 0-.3-.2-.5l-.7-.5-.9-.6-.2-.9c0-.4.1-.8.4-1 .4-.4.8-.6 1.4-.6l.9.2.7.3-.3.7-.6-.2-.7-.2c-.3 0-.6.2-.7.3-.2-.1-.3.3-.3.5s0 .3.2.4c.1.2.4.3.7.5l.6.5.4.4.2.6c0 .6-.2 1-.6 1.3-.3.2-.8.4-1.5.4Zm4.3 0-.8-.1-.8-.3v-.8l.8.3.8.2c.4 0 .7 0 1-.3l.1-.6c.1-.1.1-.3-.1-.5l-.6-.5-.9-.6c-.2-.3-.3-.5-.3-.9s.1-.8.5-1c.3-.4.7-.6 1.3-.6l.9.2.7.3-.2.7-.7-.2-.7-.2c-.3 0-.6.2-.7.3-.2-.1-.2.3-.2.5l.1.4c.2.2.4.3.7.5l.6.5.5.4.1.6c0 .6-.2 1-.5 1.3-.4.2-1 .4-1.6.4Zm0 0" style="fill:none;stroke-width:2;stroke-linecap:butt;stroke-linejoin:round;stroke:#fff;stroke-opacity:.6;stroke-miterlimit:10" transform=" rotate(  340 362.093 211.598) "/> <g style="fill:green;fill-opacity:1" transform=" rotate(  340 362.093 211.598) ">  <use xlink:href="#a" x="343.7" y="208.6"/>  <use xlink:href="#b" x="351" y="208.6"/>  <use xlink:href="#c" x="358.2" y="208.6"/>  <use xlink:href="#d" x="362.9" y="208.6"/>  <use xlink:href="#e" x="368.6" y="208.6"/>  <use xlink:href="#e" x="373.6" y="208.6"/>  <use xlink:href="#f" x="325" y="220.6"/>  <use xlink:href="#g" x="330.7" y="220.6"/>  <use xlink:href="#h" x="333.3" y="220.6"/>  <use xlink:href="#e" x="337.9" y="220.6"/>  <use xlink:href="#i" x="342.9" y="220.6"/>  <use xlink:href="#glyph0-10" x="346.9" y="220.6"/>  <use xlink:href="#j" x="349.5" y="220.6"/>  <use xlink:href="#g" x="358.1" y="220.6"/>  <use xlink:href="#k" x="360.7" y="220.6"/>  <use xlink:href="#l" x="363.2" y="220.6"/>  <use xlink:href="#e" x="369" y="220.6"/>  <use xlink:href="#i" x="374" y="220.6"/>  <use xlink:href="#m" x="378" y="220.6"/>  <use xlink:href="#e" x="383.8" y="220.6"/>  <use xlink:href="#n" x="388.8" y="220.6"/>  <use xlink:href="#n" x="393.1" y="220.6"/> </g> <path d="m34.3 119.5 3.9-7.1h1l.8 7.1h-.9l-.1-2.2h-2.6l-1.1 2.2Zm2.7-3h1.8l-.2-1.5v-1l-.2-.7a14 14 0 0 1-.4.8l-.3 1Zm3.8 3 1.6-7.6h.9l-1.6 7.6Zm3.4 0-.6-5.4h.8l.3 3v.6l.2.7v.4c.1-.1.1-.3.3-.5l.2-.7.3-.5 1.6-3h1l-3.1 5.4Zm6 .1c-.6 0-1-.2-1.4-.6-.4-.3-.6-.8-.6-1.5 0-.4 0-.8.2-1.2a4 4 0 0 1 .5-1.1l.8-.8 1.3-.4c.5 0 1 .3 1.4.6.3.4.5 1 .5 1.5s.1.9-.2 1.3a4 4 0 0 1-.5 1c-.2.5-.5.8-.8 1-.3.1-.7.2-1.2.2Zm0-.8c.5 0 .8 0 1.1-.3l.5-1 .2-1.3v-.7a1 1 0 0 0-.5-.5l-.6-.2c-.3 0-.7.1-.9.4l-.5 1a4 4 0 0 0-.5 1.4c.1.4.2.7.4 1l.9.1Zm3.5.7 1.1-5.4h.7v1l.4-.5.5-.4.7-.1h.6l-.2.9H57c-.4-.2-.7-.2-1 .1l-.5.9-.4 1-.6 2.6Zm5.4.1c-.4 0-.8-.2-1-.5-.3-.3-.5-.7-.5-1.3l.2-1.4c.2-.5.3-.9.6-1.2.2-.4.5-.6.8-.8a2 2 0 0 1 1-.4c.5 0 .8 0 1.1.3l.2.7a35.3 35.3 0 0 1 .5-1.3l.3-1.8h.7l-1.5 7.6h-.7l.1-1-.9.8c-.2.2-.5.3-1 .3Zm.3-.7.7-.3.6-.6.3-1c.3-.4.3-.7.3-1.1 0-.4 0-.6-.2-.9-.2-.1-.4-.2-.8-.2-.2 0-.5 0-.7.2l-.6.7-.3 1-.2 1.1c0 .7.3 1 .9 1Zm-24.2 12.5 1.5-7.1h1.7c.9 0 1.5.2 2 .7.6.5.7 1.2.7 2.1a5 5 0 0 1-.4 2.3 3.7 3.7 0 0 1-1.5 1.5c-.6.4-1.2.5-2.2.5Zm1-.7h.8c.7 0 1.3-.2 1.8-.5a3 3 0 0 0 1-1.2 4.2 4.2 0 0 0 .4-1.9c0-.7-.2-1.1-.5-1.5-.4-.4-.8-.6-1.4-.6h-.9Zm7.7.8c-.6 0-1.1-.1-1.5-.5-.3-.4-.4-.9-.4-1.5l.1-1.2.5-1.3.9-.7a2 2 0 0 1 1.1-.3c.5 0 .9 0 1.2.3.2.2.2.5.2 1 .1.2.1.5-.2.8-.2.4-.5.6-1 .8-.5.1-1 .1-1.8.1h-.2v.5c0 .4.2.7.3 1 .2.2.5.3 1 .3h.6a5 5 0 0 0 .8-.5v.8a6 6 0 0 1-.7.3l-1 .1Zm-1-3h.3l.8-.3c.5.1.8-.1 1-.2.2-.2.3-.4.3-.7 0-.2 0-.3-.3-.4l-.4-.2c-.4 0-.7.3-1 .5-.3.3-.5.7-.6 1.2Zm5.1 3h-1l-.5-.4v-.7l.5.3 1 .1c.4 0 .7 0 .9-.2l.3-.6c0-.2 0-.4-.2-.5l-.7-.5-.9-.6-.3-.9c0-.4.2-.8.5-1 .4-.5.8-.5 1.4-.5h1l.5.4-.2.6-.6-.2h-1.4c-.3.3-.3.4-.3.7 0 .1 0 .3.2.4l.7.5.6.4.4.5.2.6c-.1.5-.2 1-.6 1.2-.4.3-.9.4-1.5.4Zm5.2 0c-.6 0-1.2-.1-1.5-.5-.2-.4-.4-.9-.4-1.5l.2-1.2c0-.5.2-.8.5-1.3l.8-.7a2 2 0 0 1 1.2-.3c.4 0 1 0 1.1.3.2.2.4.5.4 1 0 .2-.2.5-.5.8 0 .4-.4.6-.9.8-.5.1-1 .1-1.8.1h-.1v.5c-.1.4-.1.7.1 1 .3.2.7.3 1.1.3h.6a5 5 0 0 0 .8-.5v.8a6 6 0 0 1-.7.3l-1.1.1Zm-1-3h.3l.9-.3c.5.1.8-.1 1-.2.1-.2.2-.4.2-.7 0-.2 0-.3-.2-.4l-.4-.2c-.4 0-.8.3-1.1.5-.3.3-.5.7-.6 1.2ZM56 131.4l1.2-5.3h.7l-.1.9.5-.4.5-.6H60l-.1 1-.5-.2c-.4 0-.7.1-1 .2l-.5 1-.5 1-.4 2.4Zm5.6.1c-.4 0-.7 0-1-.2-.1-.3-.2-.5-.2-1v-.5l.6-3.1h-.8v-.2l1.1-.5.5-1.1h.5L62 126h1.4l-.2.8H62l-.7 2.9v.3l-.2.3.2.4.4.1h.4l.3-.1v.7H62l-.4.2Zm-35.3 11.9-.3-7.2h1v6.1a25.3 25.3 0 0 1 .9-1.9l1.9-4.2h.9l.2 4.2v1.9l.3-.8.4-1 1.9-4.2h1l-3.4 7.1h-.9l-.2-4.6a35 35 0 0 1 0-1.4l-.3.6-.3.8-2.1 4.6Zm9.4-6.3h-.4l-.1-.5.1-.4.5-.2c.2 0 .4.2.4.5 0 .2 0 .3-.2.5h-.3Zm-1.9 6.3L35 138h.8l-1.1 5.4Zm2.6 0 1.6-7.6h.9l-1.6 7.6Zm4.2.1c-.4 0-.6-.2-1-.5-.3-.3-.4-.7-.4-1.4l.1-1.3c.2-.5.3-.9.7-1.3 0-.3.4-.6.7-.8a2 2 0 0 1 1.1-.2c.4 0 .6 0 .9.2l.3.8h.2a35.3 35.3 0 0 1 .2-1.5l.4-1.7h.9l-1.7 7.6h-.7l.1-1-.8.8c-.3.2-.6.3-1 .3Zm.4-.7c.1 0 .4-.1.6-.3l.6-.5.5-1.1.2-1.2c0-.3-.1-.5-.3-.7-.1-.2-.4-.3-.6-.3-.4 0-.7 0-1 .2l-.4.7-.4 1-.2 1c0 .9.4 1.3.9 1.3Zm5.9.7c-.6 0-1.1-.2-1.4-.6-.5-.3-.5-.8-.5-1.4v-1.3c.3-.4.4-.8.7-1.1.2-.4.5-.7.8-.9a2 2 0 0 1 1.1-.2c.5 0 1 0 1.2.3.2.2.4.5.4.9 0 .3-.2.6-.4 1l-1 .5c-.4.3-1 .4-1.8.4v.3c-.1.4-.1.8.2 1 .1.2.5.4.8.4.3 0 .5 0 .8-.2a5 5 0 0 0 .7-.3v.8a6 6 0 0 1-.7.3h-.9Zm-.9-3.1 1.3-.1.7-.4c.2-.2.3-.4.3-.7 0-.1 0-.2-.2-.4l-.5-.2c-.3 0-.6.2-1 .5-.1.3-.4.7-.6 1.3Zm3.8 3 1-5.4h.9l-.2 1 .5-.5.5-.5.7-.1h.6l-.2 1H53c-.3-.2-.6-.2-1 .1l-.4.9-.4 1-.6 2.5Zm3.9 0 1.1-5.4h.8v1c-.1-.2.1-.4.4-.5a2 2 0 0 1 .6-.5l.7-.1c.5 0 .8.1 1 .4.3.2.4.5.4 1v.7l-.9 3.4h-.9l.8-3.4v-.7c.1-.3-.1-.6-.5-.6-.3 0-.6 0-.8.2-.4.2-.5.4-.7.8-.3.3-.4.8-.7 1.3l-.4 2.4Zm8 .1c-.7 0-1.1-.2-1.5-.6-.2-.3-.5-.8-.5-1.4 0-.5 0-.9.3-1.3l.4-1.1.9-.9a2 2 0 0 1 1.1-.2c.5 0 .9 0 1.1.3.3.2.5.5.5.9 0 .3 0 .6-.4 1l-1 .5c-.6.3-1 .4-1.8.4h-.2v.3c0 .4.1.8.4 1 .1.2.4.4 1 .4 0 0 .2 0 .4-.2a5 5 0 0 0 .9-.3v.8a6 6 0 0 1-.8.3h-.8Zm-1-3.1h.2l1.1-.1.8-.4c.2-.2.2-.4.2-.7 0-.1 0-.2-.1-.4l-.5-.2c-.4 0-.7.2-1 .5-.3.3-.4.7-.6 1.3Zm5.1 3.1-.9-.1-.6-.4v-.7l.6.3.8.2c.4 0 .7-.1 1-.3.2-.1.3-.3.3-.5l-.2-.6c-.2 0-.4-.3-.8-.4l-.8-.7c-.2-.3-.3-.5-.3-.9s.2-.8.5-1c.3-.4.8-.5 1.3-.5l1 .1.6.3-.3.7-.5-.2-.8-.1c-.3 0-.5 0-.7.2l-.2.5c0 .2 0 .3.2.5l.7.4.6.4.4.5.2.6c0 .6-.2 1-.6 1.3-.4.2-.9.4-1.5.4Zm4.3 0-.9-.1-.6-.4v-.7l.7.3.7.2c.5 0 .8-.1 1-.3.2-.1.3-.3.3-.5 0-.3 0-.4-.3-.6l-.6-.4-.9-.7c-.2-.3-.3-.5-.3-.9s.2-.8.5-1c.4-.4.8-.5 1.4-.5l.8.1.8.3-.3.7-.6-.2-.7-.1c-.3 0-.6 0-.7.2-.2.1-.4.3-.4.5s.1.3.3.5l.7.4.6.4.4.5.2.6c0 .6-.2 1-.6 1.3-.4.2-.9.4-1.5.4Zm-43 11.9h-.9l-.7-.4v-.8l.7.3 1 .1h.8l.6-.6.2-.7c0-.2 0-.5-.3-.7-.1-.2-.4-.4-.9-.6a4.4 4.4 0 0 1-.6-.5 1.9 1.9 0 0 1-.5-.5l-.2-.8c0-.5.1-.9.3-1.2a2 2 0 0 1 .9-.7 3 3 0 0 1 1.2-.2l1 .1.8.3-.5.8-.5-.3-.8-.1c-.4 0-.8 0-1 .3-.3.2-.4.5-.4.9v.5l.5.4.5.3.7.7a2 2 0 0 1 .6.4l.1.9c0 .7-.2 1.2-.7 1.6-.4.3-1 .5-1.9.5Zm5.1 0c-.4 0-.7 0-1-.2-.2-.2-.2-.5-.2-1v-.6l.7-3h-.9v-.4l1-.2.5-1.3h.6l-.3 1.3H34l-.2.6h-1.3l-.6 3v.3l-.2.3.2.3.4.2h.4l.3-.1v.6l-.4.2h-.4Zm3.3 0c-.4 0-.7 0-1-.3-.1-.2-.2-.6-.2-1.1v-.8l.7-3.2h.9l-.7 3.3-.2.7.2.5.6.2c.2 0 .5 0 .7-.2l.8-.8c.2-.4.4-.8.5-1.4l.5-2.3h.7l-1 5.3h-.7v-1c0 .2-.2.4-.3.5l-.7.5-.8.1Zm5.9 0c-.5 0-.8-.1-1-.4-.4-.3-.6-.8-.6-1.4.2-.6.2-1 .3-1.4l.5-1.2c.4-.3.5-.6.9-.8a2 2 0 0 1 1-.3c.5 0 .7 0 1 .3l.3.6a35.3 35.3 0 0 1 .5-1.3l.2-1.8h1l-1.8 7.6h-.6v-1l-.8.8c-.2.2-.6.3-1 .3Zm.3-.7c.2 0 .3 0 .6-.3.3-.1.5-.3.7-.6l.4-1 .2-1.1c0-.3 0-.7-.2-.8-.2-.2-.4-.3-.8-.3-.3 0-.5.1-.6.4l-.7.6-.3 1v.9c-.2.8 0 1.2.6 1.2Zm3.3 3h-.7v-.9h.3l.3.2c.3 0 .5 0 .7-.2l.6-.8.3-.6-.8-5.4h.9l.3 2.6.1.7v1.3h.2a28.4 28.4 0 0 1 .4-1.1l.3-.6 1.5-3h1l-3.4 6.4c-.3.4-.6.9-1 1.1-.2.2-.6.3-1 .3Zm7-2.4 3.7-7.1h1.1l.7 7.1h-.8l-.2-2.2H54l-1.1 2.2Zm2.4-3h2l-.2-1.5v-1.6H56a14 14 0 0 1-.3.8l-.4.8Zm4 3 1.1-5.3h.8l-.3 1h.2l.4-.7.5-.3H62.4l-.2.7h-.5c-.3 0-.6 0-.9.3-.2.2-.5.5-.6.8l-.4 1-.5 2.6Zm5.9.1c-.6 0-1-.2-1.3-.4-.5-.5-.6-1-.6-1.6 0-.4 0-.8.2-1.3 0-.4.3-.8.4-1.1l.9-.8a2 2 0 0 1 1.2-.3c.5 0 .8 0 .9.3.5.2.7.5.7 1l-.4.8-1 .8-1.9.2h-.1v.4c0 .4 0 .6.3 1 .2.1.4.2.9.2h.7a5 5 0 0 0 .7-.3v.7a6 6 0 0 1-.7.3l-.9.1Zm-.9-3.1 1.3-.1c.2 0 .5-.2.7-.4.2-.1.3-.3.3-.6l-.1-.4c-.2-.2-.3-.2-.6-.2s-.6.1-1 .4l-.5 1.3Zm5.4 3.1c-.4 0-.8-.1-1-.4-.3-.3-.4-.8-.4-1.4 0-.6 0-1 .2-1.4 0-.5.3-.9.4-1.2.3-.4.6-.6 1-.8a2 2 0 0 1 1-.3c.3 0 .6 0 .9.3.1.1.3.3.4.6h.1l.3-.8h.7l-1.2 5.3h-.7l.2-1-1 .8c-.2.2-.5.3-.9.3Zm.3-.7c.3 0 .5 0 .7-.3l.7-.7a4 4 0 0 0 .4-1 3 3 0 0 0 .1-.7 4 4 0 0 0 0-.3c0-.3 0-.7-.2-.8-.2-.2-.4-.3-.8-.3-.2 0-.4 0-.6.4a2 2 0 0 0-.6.5l-.4 1-.1 1.1c0 .4 0 .6.2.8.1.2.3.3.5.3Zm0 0" style="fill:none;stroke-width:2;stroke-linecap:butt;stroke-linejoin:round;stroke:#fff;stroke-opacity:.6;stroke-miterlimit:10" transform=" rotate(  340 48.7209 134.415) "/> <g style="fill:green;fill-opacity:1" transform=" rotate(  340 48.7209 134.415) ">  <use xlink:href="#o" x="34.9" y="119.5"/>  <use xlink:href="#k" x="40.5" y="119.5"/>  <use xlink:href="#h" x="43.1" y="119.5"/>  <use xlink:href="#p" x="47.8" y="119.5"/>  <use xlink:href="#i" x="53.4" y="119.5"/>  <use xlink:href="#l" x="57.2" y="119.5"/>  <use xlink:href="#q" x="34.8" y="131.4"/>  <use xlink:href="#e" x="41.5" y="131.4"/>  <use xlink:href="#n" x="46.4" y="131.4"/>  <use xlink:href="#e" x="50.8" y="131.4"/>  <use xlink:href="#i" x="55.8" y="131.4"/>  <use xlink:href="#r" x="59.7" y="131.4"/>  <use xlink:href="#j" x="25" y="143.4"/>  <use xlink:href="#g" x="33.5" y="143.4"/>  <use xlink:href="#k" x="36.1" y="143.4"/>  <use xlink:href="#l" x="38.7" y="143.4"/>  <use xlink:href="#e" x="44.5" y="143.4"/>  <use xlink:href="#i" x="49.5" y="143.4"/>  <use xlink:href="#m" x="53.5" y="143.4"/>  <use xlink:href="#e" x="59.2" y="143.4"/>  <use xlink:href="#n" x="64.2" y="143.4"/>  <use xlink:href="#n" x="68.6" y="143.4"/>  <use xlink:href="#s" x="25.3" y="155.3"/>  <use xlink:href="#r" x="30.3" y="155.3"/>  <use xlink:href="#t" x="33.6" y="155.3"/>  <use xlink:href="#l" x="39.4" y="155.3"/>  <use xlink:href="#c" x="45.2" y="155.3"/>  <use xlink:href="#glyph0-10" x="49.9" y="155.3"/>  <use xlink:href="#o" x="52.5" y="155.3"/>  <use xlink:href="#i" x="58.1" y="155.3"/>  <use xlink:href="#e" x="61.9" y="155.3"/>  <use xlink:href="#u" x="66.9" y="155.3"/> </g> <path d="M200.1 150.6c-.8 0-1.5-.2-2-.7-.4-.5-.6-1.2-.6-2s0-1.4.2-1.9l.7-1.4c.3-.4.7-.6 1.2-1a3 3 0 0 1 1.4-.3c.9 0 1.5.2 2 .7.4.5.6 1.2.6 2s0 1.4-.2 1.9c-.1.5-.4.9-.7 1.4l-1 1c-.6.1-1.1.2-1.7.2Zm0-.8a2 2 0 0 0 1.1-.3l.8-.8.5-1.2.2-1.5c0-.6-.2-1.1-.5-1.4-.2-.4-.7-.6-1.2-.6a2 2 0 0 0-1 .4c-.5.1-.8.4-1 .6l-.4 1.4a6 6 0 0 0-.2 1.4c0 .6.2 1.2.6 1.5.2.3.6.5 1 .5Zm4.7.7-.4-5.4h1v4.6a13.8 13.8 0 0 1 .6-1v-.5l1.5-3h1l.1 2.8a25.5 25.5 0 0 1 0 1.7c.3-.2.4-.5.4-.9l.5-1 1.1-2.8h1l-2.6 5.5h-1l-.2-2.9V146l-.4.7-.2.8-1.4 3Zm6.2 2.5-.6-.2h-.2v-.7h.3l.5.2c.2-.1.4-.1.6-.4.2-.1.4-.4.4-.7l.5-.6-.8-5.6h.8l.5 2.8v2a28.4 28.4 0 0 1 .6-1.2l.2-.5 1.6-3.1h1l-3.6 6.4c-.1.6-.4.9-.7 1.1-.3.3-.7.5-1.2.5Zm5.1-2.5 1.6-7.5h1l-.6 2c.1 0 .1.3-.1.5v.6l.4-.5.6-.4.7-.1c.4-.1.8-.1 1 .3.3.2.4.6.4 1v.4l-.1.4-.7 3.3h-.9l.7-3.4.1-.6c0-.2 0-.5-.2-.5l-.5-.2c-.2 0-.5 0-.7.2l-.8.8c-.2.2-.4.8-.5 1.4l-.5 2.3Zm7.9.1c-.5 0-1-.2-1.3-.5-.4-.4-.6-.9-.6-1.5 0-.4 0-.9.2-1.3l.5-1.1.9-.8a2 2 0 0 1 1.1-.4c.5 0 .9 0 1.1.4.3.2.4.5.4.9 0 .3 0 .7-.3 1-.2.2-.5.5-1 .6-.5.2-1 .3-1.8.3h-.2v.4c0 .4.1.7.3 1 .2.1.5.2 1 .2h.5a5 5 0 0 0 .9-.3v.7a6 6 0 0 1-.8.3l-.8.1Zm-.7-3.1 1-.1c.4 0 .7-.2.9-.4.2 0 .3-.4.3-.6 0-.2 0-.4-.2-.5l-.5-.1c-.4 0-.8.1-1 .4-.3.3-.5.8-.6 1.3Zm5.7 3.1c-.5 0-1-.2-1.3-.5-.4-.4-.6-.9-.6-1.5 0-.4 0-.9.2-1.3l.5-1.1c.3-.4.5-.6.9-.8a2 2 0 0 1 1-.4c.7 0 1.1 0 1.3.4.2.2.3.5.3.9 0 .3 0 .7-.3 1-.2.2-.6.5-1 .6-.5.2-1 .3-1.8.3h-.2v.4c0 .4.1.7.3 1 .2.1.5.2 1 .2h.5a5 5 0 0 0 .9-.3v.7a6 6 0 0 1-.8.3l-.8.1Zm-.8-3.1 1.1-.1c.4 0 .7-.2.8-.4.3 0 .4-.4.4-.6l-.2-.5-.6-.1c-.3 0-.6.1-.9.4-.3.3-.5.8-.7 1.3Zm-42.6 14.9 1.5-7h1.6c1.3-.1 2.2.4 2.2 1.6 0 .6-.2 1.1-.4 1.5-.3.3-.8.5-1.5.8l1.3 3.1h-1l-1-2.9H187l-.5 3Zm1.7-3.7h.7c.7 0 1.2-.1 1.5-.4.3-.3.5-.7.5-1.1 0-.4-.2-.7-.4-.9l-1-.2h-.7Zm5.7-2.5-.2-.1-.2-.4.1-.4.5-.3c.3 0 .4.2.4.5s0 .5-.2.5l-.3.2Zm-1.7 6.2 1-5.3h1l-1.3 5.3Zm3.3 0-.6-5.3h.9l.3 2.9v1.8h.2l.2-.6a24.4 24.4 0 0 1 .4-1.2l1.7-3h1l-3 5.5Zm6 .1c-.6 0-1.1-.1-1.4-.5-.4-.4-.5-.8-.5-1.5l.1-1.2.6-1.3.8-.7a2 2 0 0 1 1.1-.3c.5 0 1 .1 1.2.3.2.2.4.7.4 1 0 .2-.1.5-.4.8-.2.4-.5.6-1 .8-.4.1-1 .1-1.8.1h-.1v.5c0 .4 0 .7.2 1 .2.2.5.3 1 .3h.7a5 5 0 0 0 .7-.5v.9a6 6 0 0 1-.7.2l-.9.1Zm-1-3h.3l.9-.3c.5.1.8-.1 1-.2.1-.2.2-.4.2-.7 0-.2 0-.3-.2-.3l-.5-.3c-.3 0-.7.3-1 .5-.2.3-.5.7-.6 1.2ZM203.4 162.4l1.2-5.3h.7l-.1.9.5-.4.5-.4.7-.2h.6l-.2 1-.5-.2c-.4 0-.8.1-1 .2l-.5 1c-.3.3-.3.6-.3 1l-.7 2.4Zm9.6.1c-.8 0-1.4-.2-1.9-.7-.4-.5-.6-1.1-.6-2l.1-1.3.5-1.2c.2-.4.4-.8.7-1 .3-.5.7-.7 1.2-.9.3-.1.8-.2 1.3-.2.7 0 1.3.1 1.8.4l-.4.8a4 4 0 0 0-.6-.4h-.8c-.5 0-1 .1-1.3.3l-.9 1a4 4 0 0 0-.5 1l-.2 1.5c0 .6.2 1 .6 1.4.2.4.6.6 1.2.6l.8-.1.7-.2v.7l-.7.3a5 5 0 0 1-1 0Zm4.6 0c-.6 0-.8-.1-1.1-.4-.3-.3-.4-.8-.4-1.4 0-.5 0-1 .2-1.4l.5-1.3c.3-.2.5-.5.9-.7a2 2 0 0 1 1-.3c.4 0 .7 0 .9.3l.4.6.4-.8h.7l-1.1 5.3h-.7l.1-1-.8.9-1 .2Zm.2-.7c.3 0 .5 0 .8-.2l.6-.8a4 4 0 0 0 .4-1 3 3 0 0 0 .1-.5 4 4 0 0 0 0-.5c.1-.3.1-.6-.1-.8-.3-.2-.5-.3-.8-.3-.2 0-.5.1-.7.3a2 2 0 0 0-.6.7l-.4 1-.1.9c0 .5 0 .8.2 1l.6.2Zm3.7.6 1.2-5.3h.8l-.1.9c0-.2.2-.4.4-.6a2 2 0 0 1 .6-.3l.8-.1c.4 0 .7 0 1 .3.2.3.4.7.4 1v.5l-.3.4-.6 3.2h-1l.9-3.3v-.4l.1-.3c-.1-.4-.3-.6-.7-.6-.3 0-.5 0-.8.2l-.7.7-.5 1.4-.5 2.3Zm5.3 2.5h-.4l-.3-.3v-.6l.3.1h.4c.2 0 .5 0 .7-.1l.5-.8.4-.7-.8-5.4h.8l.4 2.6v.7l.2.8v.5a28.4 28.4 0 0 1 .5-1.1l.2-.6 1.6-3h1l-3.6 6.5c-.1.4-.4.7-.7.9-.3.4-.7.6-1.2.6Zm7.4-2.4c-.6 0-1-.2-1.4-.5-.4-.4-.6-1-.6-1.5s0-.8.2-1.3a4 4 0 0 1 .5-1c.1-.5.5-.8.8-1l1.3-.2c.5 0 1 .2 1.4.6.3.3.5.9.5 1.4.1.5.1.9-.2 1.3a4 4 0 0 1-.5 1.1c-.2.4-.5.6-.8.8-.3.2-.7.3-1.2.3Zm0-.7c.5 0 .8-.1 1.1-.3l.5-1 .2-1.5v-.6a1 1 0 0 0-.5-.5l-.6-.2c-.3 0-.7.3-.9.4l-.6 1a4 4 0 0 0-.3 1.4c0 .4.1.7.3 1 .2.2.6.3.9.3Zm3.4.6 1.2-5.3h.8l-.2.9.6-.6a2 2 0 0 1 .5-.3l.8-.1c.4 0 .7 0 1 .3.2.3.3.7.3 1v.9l-.9 3.2h-.9l.9-3.3v-.4l.1-.3c-.1-.4-.3-.6-.8-.6-.2 0-.4 0-.7.2l-.7.7-.6 1.4-.4 2.3Zm-46 12-.3-7.2h.9l.1 4.5v1.6a25.3 25.3 0 0 1 .8-1.8l1.9-4.3h.8l.3 4.2v1.9h.2l.2-.8.3-1 2-4.2h.8l-3.2 7.1h-.9l-.2-4.6a35 35 0 0 1 0-1.4l-.3.6-.4.8-2 4.6Zm9.4-6.3h-.5l-.1-.5.2-.4.4-.2c.3 0 .5.2.5.5 0 .2 0 .4-.2.5h-.3Zm-2 6.3 1.3-5.4h.8l-1.2 5.4Zm2.6 0 1.7-7.6h.7l-1.5 7.6Zm4.3.1c-.4 0-.9-.2-1-.5-.4-.3-.6-.7-.6-1.3.1-.5.1-1 .3-1.4l.5-1.3c.3-.3.5-.6.9-.7a2 2 0 0 1 1-.5c.5.2.8.2 1 .4l.3.8a35.3 35.3 0 0 1 .5-1.5l.2-1.7h1l-1.8 7.6h-.6l.1-1-.8.8c-.3.2-.6.3-1 .3Zm.3-.7.6-.3c.3-.1.5-.4.7-.5l.4-1.1c.2-.4.2-.9.2-1.2 0-.3 0-.4-.1-.7-.3-.2-.5-.3-1-.3 0 0-.4 0-.6.2l-.6.7c-.1.4-.3.6-.3 1l-.2 1c0 .9.3 1.3.9 1.3Zm6 .7c-.7 0-1.2-.2-1.5-.5-.3-.4-.5-1-.5-1.5s0-.9.2-1.3l.5-1.1c.3-.4.6-.7.9-.8a2 2 0 0 1 1.1-.5c.5.2.9.2 1.1.5.3.2.4.5.4.9 0 .3 0 .7-.3 1-.2.1-.5.4-1 .5-.5.3-1.1.4-1.8.4h-.2v.3c0 .4.1.8.3 1 .2.2.6.4 1 .4l.6-.1a5 5 0 0 0 .8-.4v.8a6 6 0 0 1-.8.3h-.8Zm-1-3.1h.2l1-.1.9-.4c.2-.2.3-.4.3-.7 0 0 0-.2-.2-.4l-.5-.1c-.4 0-.7.1-1 .3-.3.4-.5.8-.6 1.4ZM215 174.4l1.2-5.4h.7l-.1 1 .4-.5.6-.4.6-.2h.3l.3.1-.2.8h-.5c-.3-.1-.6-.1-.9.2l-.6.9-.4 1.1-.4 2.4Zm4 0 1-5.4h1l-.2 1 .4-.5a2 2 0 0 1 .6-.5l.8-.1c.4.1.8.1 1 .4.4.2.4.5.4 1v.4l-.2.4-.6 3.3h-1l.8-3.4v-.7c0-.3-.2-.6-.6-.6-.4 0-.5 0-.8.2-.2.2-.5.4-.6.8-.3.3-.5.8-.6 1.3l-.5 2.4Zm8 .1c-.8 0-1.3-.2-1.6-.5-.2-.4-.4-1-.4-1.5s0-.9.2-1.3c0-.4.3-.8.5-1.1.2-.4.5-.7.9-.8a2 2 0 0 1 1-.5c.7.2 1.1.2 1.3.5.2.2.3.5.3.9 0 .3-.2.7-.3 1-.2.1-.6.4-1 .5-.6.3-1.2.4-1.9.4h-.1v.3c0 .4 0 .8.3 1 .2.2.5.4.8.4l.8-.1a5 5 0 0 0 .8-.4v.8a6 6 0 0 1-.8.3h-.9Zm-1-3.1h.1l1-.1 1.1-.4v-1.1l-.6-.1c-.3 0-.6.1-1 .3l-.6 1.4Zm5 3.1-.8-.1-.7-.2v-.9l.7.3.8.2c.4 0 .7-.1 1-.3l.1-.5c.1-.3.1-.4-.1-.5 0-.2-.3-.3-.7-.5l-.8-.7c-.2-.2-.3-.5-.3-.8 0-.5.1-.9.5-1.1.3-.4.7-.5 1.3-.5l.9.1.7.3-.3.7-.6-.2-.7-.1c-.3 0-.5 0-.7.2-.2.1-.2.3-.2.5l.1.6.8.3.5.4.5.6v.5c.1.6 0 1-.4 1.3-.4.3-1 .4-1.6.4Zm4.4 0-.9-.1-.6-.2v-.9l.6.3.8.2c.4 0 .7-.1 1-.3l.1-.5c.1-.3.1-.4-.1-.5 0-.2-.3-.3-.7-.5l-.8-.7c-.2-.2-.3-.5-.3-.8 0-.5.2-.9.5-1.1.3-.4.8-.5 1.3-.5l.9.1.7.3-.2.7-.7-.2-.7-.1c-.3 0-.5 0-.7.2l-.2.5.1.6.8.3.5.4.5.6.1.5c0 .6-.2 1-.4 1.3-.5.3-1.1.4-1.6.4Zm-43 11.9h-1l-.6-.4v-.8l.6.3 1 .1h.8l.6-.6c.2-.1.3-.4.3-.7-.1-.2-.1-.5-.3-.7l-1-.6a4.4 4.4 0 0 1-.5-.5 1.9 1.9 0 0 1-.6-.5l-.1-.8c0-.5 0-.9.3-1.2a2 2 0 0 1 .9-.7 3 3 0 0 1 1.1-.2l1.1.1c.2 0 .5.2.7.3l-.3.8-.7-.3-.7-.1c-.5 0-.8 0-1 .3-.3.2-.5.5-.5.9l.1.5.4.4.6.3.7.7a2 2 0 0 1 .5.4l.2.9c0 .7-.2 1.2-.7 1.6-.5.3-1.1.5-2 .5Zm5 0c-.3 0-.6 0-.9-.2-.2-.2-.3-.5-.3-1v-.6l.8-3h-1l.1-.4 1-.2.4-1.3h.7l-.3 1.3h1.3l-.1.6h-1.4l-.6 3v.9c.3.2.4.2.6.2h.2l.4-.1v.7h-.4l-.5.2Zm3.4 0c-.4 0-.7 0-1-.3-.2-.2-.3-.6-.3-1.1v-.8l.9-3.2h.8l-.8 3.3v1.2l.7.2c.2 0 .4 0 .7-.2l.7-.8.6-1.4.4-2.3h1l-1.3 5.3h-.6v-1l-.4.5-.6.5-.8.1Zm5.8 0c-.4 0-.6-.1-1-.4-.3-.3-.4-.8-.4-1.4 0-.6 0-1 .2-1.4 0-.4.3-.8.5-1.2l.8-.8a2 2 0 0 1 1.1-.3c.4 0 .7 0 .9.3l.5.6a35.3 35.3 0 0 1 .2-1.3l.4-1.8h.9l-1.7 7.6h-.7l.1-1-.8.8c-.3.2-.6.3-1 .3Zm.4-.7c.2 0 .4 0 .6-.2l.6-.7.5-1 .2-1.1c0-.3-.1-.7-.3-.8-.1-.2-.4-.3-.6-.3-.4 0-.6.1-1 .4 0 0-.3.3-.4.6-.2.2-.3.6-.4 1l-.1.9c-.1.8.3 1.2.8 1.2Zm3.2 3h-.6v-.9h.2l.4.2c.3 0 .5 0 .7-.2.1-.2.4-.4.5-.8l.4-.6-.8-5.4h.8l.4 2.6v.7l.2.7v.6a28.4 28.4 0 0 1 .5-1.1l.2-.6 1.6-2.9h1l-3.6 6.3c-.1.4-.4.9-.7 1.1-.4.2-.7.3-1.2.3Zm7-2.4 3.9-7.1h.9l.8 7.1h-.8l-.3-2.2h-2.4l-1.1 2.2Zm2.6-3h1.8l-.1-1.5v-.8l-.2-.8a14 14 0 0 1-.3.8l-.5.8Zm3.9 3 1.1-5.3h.7v1l.4-.6.5-.4H227.7l-.2.7h-.5c-.4 0-.7 0-1 .3l-.5.8-.4 1-.6 2.6Zm5.9.1c-.6 0-1.1-.2-1.6-.4-.2-.5-.4-1-.4-1.6l.2-1.3.5-1.1 1-.8a2 2 0 0 1 .9-.3c.6 0 1.1 0 1.3.3.2.2.3.5.3 1 0 .2 0 .5-.3.8-.2.4-.5.6-1 .8l-1.8.2h-.1v.4c-.1.4-.1.6.1 1 .3.1.6.2 1.1.2h.6a5 5 0 0 0 .8-.3v.7a6 6 0 0 1-.7.3l-1 .1Zm-1-3.1h.3l.9-.1c.4 0 .7-.2.9-.4.2-.1.3-.3.3-.6 0-.2 0-.3-.2-.4l-.5-.2c-.4 0-.7.1-1 .4-.3.3-.5.8-.6 1.3ZM234 186.4c-.2 0-.6-.1-1-.4-.2-.3-.4-.8-.4-1.4l.2-1.4c.2-.5.3-.9.6-1.2.2-.4.5-.6.8-.8a2 2 0 0 1 1-.3c.5 0 .8 0 1.1.3l.2.6.5-.8h.6l-1 5.3h-.9l.2-1-.8.8c-.3.2-.7.3-1.1.3Zm.5-.7c.1 0 .4 0 .5-.3l.7-.7a4 4 0 0 0 .5-1 3 3 0 0 0 0-.7 4 4 0 0 0 .2-.3c-.1-.3-.1-.7-.4-.8 0-.2-.4-.3-.6-.3-.4 0-.5.1-.8.4a2 2 0 0 0-.5.5l-.4 1-.2 1.1c0 .4 0 .7.2.8.3.2.4.3.7.3Zm-.1 0" style="fill:none;stroke-width:2;stroke-linecap:butt;stroke-linejoin:round;stroke:#fff;stroke-opacity:.6;stroke-miterlimit:10" transform=" rotate(  340 214.582 165.419) "/> <g style="fill:green;fill-opacity:1" transform=" rotate(  340 214.582 165.419) ">  <use xlink:href="#a" x="196.7" y="150.5"/>  <use xlink:href="#b" x="204" y="150.5"/>  <use xlink:href="#c" x="211.2" y="150.5"/>  <use xlink:href="#d" x="215.9" y="150.5"/>  <use xlink:href="#e" x="221.6" y="150.5"/>  <use xlink:href="#e" x="226.6" y="150.5"/>  <use xlink:href="#f" x="185.2" y="162.4"/>  <use xlink:href="#g" x="190.9" y="162.4"/>  <use xlink:href="#h" x="193.5" y="162.4"/>  <use xlink:href="#e" x="198.2" y="162.4"/>  <use xlink:href="#i" x="203.2" y="162.4"/>  <use xlink:href="#glyph0-10" x="207.1" y="162.4"/>  <use xlink:href="#v" x="209.7" y="162.4"/>  <use xlink:href="#u" x="215.6" y="162.4"/>  <use xlink:href="#m" x="221.3" y="162.4"/>  <use xlink:href="#c" x="227.1" y="162.4"/>  <use xlink:href="#p" x="231.8" y="162.4"/>  <use xlink:href="#m" x="237.4" y="162.4"/>  <use xlink:href="#j" x="190.2" y="174.4"/>  <use xlink:href="#g" x="198.8" y="174.4"/>  <use xlink:href="#k" x="201.4" y="174.4"/>  <use xlink:href="#l" x="204" y="174.4"/>  <use xlink:href="#e" x="209.7" y="174.4"/>  <use xlink:href="#i" x="214.7" y="174.4"/>  <use xlink:href="#m" x="218.7" y="174.4"/>  <use xlink:href="#e" x="224.5" y="174.4"/>  <use xlink:href="#n" x="229.5" y="174.4"/>  <use xlink:href="#n" x="233.8" y="174.4"/>  <use xlink:href="#s" x="190.5" y="186.3"/>  <use xlink:href="#r" x="195.6" y="186.3"/>  <use xlink:href="#t" x="198.9" y="186.3"/>  <use xlink:href="#l" x="204.7" y="186.3"/>  <use xlink:href="#c" x="210.5" y="186.3"/>  <use xlink:href="#glyph0-10" x="215.2" y="186.3"/>  <use xlink:href="#o" x="217.8" y="186.3"/>  <use xlink:href="#i" x="223.4" y="186.3"/>  <use xlink:href="#e" x="227.2" y="186.3"/>  <use xlink:href="#u" x="232.1" y="186.3"/> </g></svg>