<svg xmlns="http://www.w3.org/2000/svg" xmlns:xlink="http://www.w3.org/1999/xlink" viewBox="0 0 497 279"> <defs overflow="visible" style="stroke:none">  <path id="y" d="M3-5.5c.3 0 .7.1 1 .3a2 2 0 0 1 1 .9v1.8H1.5c0 .5.1 1 .4 1.4.3.3.7.4 1.3.4H4l.9-.3v.8L4 0a5 5 0 0 1-1 0 3 3 0 0 1-1.2-.1 2.2 2.2 0 0 1-1-1.1c0-.2-.2-.8-.2-1.3-.1-.7 0-1.2.2-1.6.2-.5.5-.9.9-1 .3-.2.7-.4 1.2-.4Zm0 .8c-.6 0-.9.1-1 .4-.4.2-.6.6-.6 1.1h2.8c0-.5-.1-.8-.3-1.1-.2-.3-.5-.4-1-.4Zm0 0"/>  <path id="x" d="M3.4-5.5c.7 0 1.2.2 1.6.5.2.3.4.8.4 1.5V0h-.9v-3.4c0-.9-.4-1.3-1.2-1.3-.6 0-1 .1-1.2.5-.3.2-.4.8-.4 1.4V0H.8v-5.4h.8v.8h.2c.2-.4.3-.5.7-.7l1-.2Zm0 0"/>  <path id="w" d="M2.9-5.5c.6 0 1.1.2 1.4.5.3.3.5.7.5 1.3V0h-.6L4-.8c-.3.3-.5.6-.8.8h-1c-.5 0-1 0-1.3-.3C.6-.5.5-.9.5-1.5c0-.5.2-1 .5-1.2.5-.3 1-.5 2-.5h.8v-.3c.2-.5.2-.8-.2-1l-.8-.2H2l-.7.5L1-5l1-.3.9-.2Zm1 2.9h-.8c-.6 0-1 .1-1.4.3-.1.3-.3.5-.3.8 0 .3 0 .5.2.7l.7.2c.5 0 .9-.1 1.2-.4.3-.2.4-.6.4-1Zm.1 0"/>  <path id="v" d="M1.7-7.6v3c.3-.4.4-.5.7-.6.3-.2.7-.3 1-.3.7 0 1.2.2 1.6.5.2.3.4.8.4 1.5V0h-.9v-3.4c0-.9-.4-1.3-1.2-1.3-.6 0-1 .2-1.2.5-.3.3-.4.8-.4 1.4V0H.8v-7.6Zm0 0"/>  <path id="u" d="M4.3-1.5c0 .5-.2 1-.5 1.2-.4.3-1 .4-1.6.4l-1-.1-.7-.2V-1l.8.3h1.8l.4-.7-.1-.4L3-2a7.5 7.5 0 0 0-.8-.4 7.5 7.5 0 0 1-1-.4l-.4-.5L.5-4c0-.5.2-.8.6-1 .3-.4.8-.6 1.4-.6l1 .2a4 4 0 0 1 .6.4l-.1.6-.8-.2-.7-.1-.9.1c-.2.2-.3.3-.3.6s0 .2.2.3l.4.3.8.3.9.4.4.5c.3.2.3.4.3.7Zm-.9 2.9c0 .3-.1.6-.4.6-.2.3-.6.4-1 .4h-.7v-.7h1.2l.2-.3c0-.2 0-.3-.3-.4a2 2 0 0 0-.6 0l.4-1h.6l-.3.5c.3 0 .5.2.7.3l.2.6Zm0 0"/>  <path id="t" d="M6.7-5.5c.6 0 1 .2 1.4.5.3.3.4.8.4 1.5V0h-.8v-3.5c0-.8-.4-1.2-1.1-1.2-.6 0-1 .1-1.1.4C5.2-4 5-3.5 5-3v3h-.7v-3.5c0-.8-.4-1.2-1.1-1.2-.6 0-1 .1-1.2.5-.2.2-.3.8-.3 1.4V0H.8v-5.4h.8v.8h.2l.6-.7 1-.2c.7 0 1.2.3 1.6 1 .2-.5.4-.7.7-.8.3-.1.7-.2 1-.2Zm0 0"/>  <path id="s" d="M5.3-5.4V0h-.7l-.1-.7c-.3.3-.5.5-.9.6l-.9.2C2.1 0 1.6-.1 1.3-.4 1-.7.8-1.2.8-1.8v-3.6h.9v3.5c0 .8.3 1.3 1.2 1.3.6 0 1-.2 1.1-.5.3-.4.5-.9.5-1.5v-2.8ZM1.7-6.8l.1-.4.3-.1.4.1.1.4-.1.4h-.7l-.1-.4Zm1.9 0v-.4l.4-.1.3.1.2.4c0 .2 0 .3-.2.4h-.6l-.1-.4Zm0 0"/>  <path id="r" d="M4-3.8h2.6v3.5A8.4 8.4 0 0 1 4 .1C3.3 0 2.7-.1 2.2-.3A3 3 0 0 1 1-1.6c-.3-.6-.4-1.2-.4-2 0-.7.2-1.4.4-1.9a3 3 0 0 1 1.3-1.3c.7-.2 1.2-.4 2-.4h1.1a5 5 0 0 1 1 .5l-.3.7a7.4 7.4 0 0 0-.9-.3l-1-.2c-.7 0-1.4.3-1.9.8-.4.5-.7 1.2-.7 2.1-.1.6 0 1.1.2 1.6.2.4.5.7.9 1 .3.3.9.4 1.5.4a5.8 5.8 0 0 0 1.4-.2V-3H4.1Zm0 0"/>  <path d="M1 0v-7.1h4V0Zm.4-.5h3.1v-6.1h-3Zm.1 0"/>  <path id="q" d="M2 .1c-.4 0-.7 0-1-.3-.2-.2-.4-.5-.4-1L.7-2l.7-3.2h-1l.3-.4.9-.4.6-1.2h.7L2.5-6H4l-.2.8H2.4L1.7-2v.4l-.2.3.2.4c.1.2.3.2.5.2h.4L3-.8v.7l-.5.1-.5.1Zm0 0"/>  <path id="p" d="M2 .1c-.3 0-.6-.1-1-.4-.3-.2-.4-.6-.4-1a3 3 0 0 1 0-.6l.1-.4.8-3.6h1l-.8 3.7-.1.7c0 .3 0 .5.2.6l.6.2c.2 0 .5 0 .8-.3l.8-.8.5-1.6.6-2.5H6L4.7 0H4l.1-1c-.2 0-.3.2-.5.4l-.7.5-.8.2Zm0 0"/>  <path id="o" d="M-.3 2.6h-.4a4 4 0 0 1-.3 0v-1l.3.3h.4c.3-.1.5-.1.7-.3L1 .8l.4-.8-.9-6h1l.4 3.1v.6A34.2 34.2 0 0 1 2-.8l.4-.5a22.7 22.7 0 0 1 .5-1.4l1.7-3.2h1L2 1c-.4.5-.7 1-1 1.2-.2.3-.7.4-1.2.4Zm0 0"/>  <path id="n" d="M.5 0 2-7.9h2.1c.9 0 1.3.2 1.9.5.3.3.5.7.5 1.4 0 .5-.2 1-.5 1.3-.3.2-.8.4-1.3.5.4.4.7.5 1 .8 0 .2.3.5.3.9 0 .7-.2 1.1-.4 1.5-.3.3-.6.5-1 .7C4 0 3.5 0 3 0Zm1.9-4.5h1.3c.3 0 .6 0 .9-.2.2 0 .4-.2.6-.3.2-.3.3-.6.3-1 0-.3-.2-.5-.5-.7C5-7 4.5-7 4.1-7H2.8ZM1.6-.8H3c.6 0 1-.2 1.4-.4.4-.4.6-.8.6-1.3 0-.3 0-.6-.4-.9-.2-.1-.6-.2-1.2-.2H2.2Zm0 0"/>  <path id="m" d="M2.7.1C2 .1 1.5 0 1-.5.7-.9.5-1.5.5-2a4.9 4.9 0 0 1 .8-2.7 3 3 0 0 1 1-1.1c.2-.1.7-.2 1.2-.2s1 .1 1.2.4c.3.2.5.5.5 1 0 .3-.2.6-.4 1-.2.3-.6.6-1.1.8-.5.2-1.2.3-2 .3h-.2v.4c0 .4.1.8.3 1 .3.3.6.4 1 .4l.8-.1c.4 0 .5-.2.8-.3v.8l-.8.3-1 .1Zm-1-3.4L3-3.4l.9-.4c.1-.2.3-.5.3-.7 0-.2 0-.5-.2-.5l-.6-.2c-.3 0-.7.2-1 .5-.4.3-.6.8-.7 1.4Zm0 0"/>  <path id="l" d="m.3 0 1.8-8.4H3l-.5 2.2-.1.7-.2.7.7-.5.5-.5.9-.2c.4 0 .7.1 1 .4.3.2.5.6.5 1.1v.5l-.3.4L5 0H3.9l.8-3.7V-5L4-5.2c-.3 0-.5.2-.8.3-.3.1-.6.4-.8.8C2-3.7 2-3 1.8-2.5L1.3 0Zm0 0"/>  <path id="k" d="M1.7.1.7 0 .2-.3v-.9c0 .2.3.3.6.4a3 3 0 0 0 .9.1c.3 0 .7 0 1-.2.2-.2.3-.4.3-.7 0-.2 0-.4-.2-.5L2-2.7a3.8 3.8 0 0 1-1-.7c0-.2-.2-.6-.2-1s.2-.7.6-1c.3-.4.7-.6 1.3-.6l1.1.1.7.3-.3.8-.6-.3h-.9L2-5l-.3.6c0 .2 0 .4.3.5 0 .2.3.3.7.5l.7.5.4.5.2.7c0 .6-.2 1-.6 1.4-.4.3-1 .3-1.7.3ZM1 2.6H.5V2h.4c.6 0 .9 0 .9-.4L1.6 1H1l.6-1h.6l-.3.6.4.4c.2 0 .3.2.3.5s-.2.5-.4.8c-.3.2-.7.3-1.2.3Zm0 0"/>  <path id="j" d="m.3 0 1.3-5.9h.8l-.2 1c.3.1.5-.2.6-.3l.7-.6.7-.2c.4 0 .7.1 1 .3 0 .3.2.7.2 1a4 4 0 0 1 .8-.6l.6-.5.7-.2c.5 0 .9.1 1.1.4.4.2.4.6.4 1v.6l-.1.4L8 0h-.9L8-3.7v-.4a2 2 0 0 0 0-.4V-5l-.7-.2-.8.3c-.2.2-.5.4-.7.8-.2.4-.4.8-.5 1.4L4.7 0h-1l.8-3.7.1-.7c0-.3 0-.4-.2-.6L4-5.2l-1 .3c0 .1-.4.4-.6.8C2-3.7 2-3 1.8-2.5L1.3 0Zm0 0"/>  <path id="i" d="M2 .1c-.3 0-.6-.1-1-.4-.3-.2-.4-.6-.4-1a3 3 0 0 1 0-.6l.1-.4.8-3.6h1l-.8 3.7-.1.7c0 .3 0 .5.2.6l.6.2c.2 0 .5 0 .8-.3l.8-.8.5-1.6.6-2.5H6L4.7 0H4l.1-1c-.2 0-.3.2-.5.4l-.7.5-.8.2Zm3-7c0-.1-.2-.1-.3-.2l-.1-.3.1-.4c.1-.2.3-.2.5-.2h.3v1H5ZM3-7s-.1 0-.2-.1l-.2-.3.1-.4C3-8 3-8 3.3-8h.2l.1.5c0 .1 0 .3-.2.5h-.3Zm0 0"/>  <path id="h" d="M3.8.1C2.8.1 2 0 1.6-.7 1-1.2.8-1.9.8-2.8c0-.8 0-1.4.3-2A5 5 0 0 1 2-6.5c.3-.5.8-.8 1.3-1A3.8 3.8 0 0 1 5-8c.5 0 1 0 1.3.2l1 .3-.4.9A6.3 6.3 0 0 0 6-7H5c-.6 0-1 0-1.6.4-.5.4-.9.9-1.1 1.5a5.3 5.3 0 0 0-.5 2.2L2-2c.2.6.4.9.7 1L4-.8h.6l.6-.2.5-2.3H4.2l.2-.7h2.5L6-.3 5 0 3.7.1Zm0 0"/>  <path id="g" d="m.3 0 1.2-6h.9l-.1 1.3.5-.7.6-.4c.3-.2.6-.2.9-.2.4 0 .7 0 1 .4.4.2.6.6.6 1v.6l-.3.4L4.9 0h-1l.6-3.7.2-.4a2 2 0 0 0 0-.4c.1-.4-.2-.7-.7-.7l-.8.3-.8.8-.6 1.6L1.3 0Zm0 0"/>  <path id="f" d="M2.7 0C2 0 1.5 0 1.1-.4.7-1 .5-1.5.5-2.2a5 5 0 0 1 .2-1.3c.1-.5.3-.9.6-1.3a3 3 0 0 1 .9-.7C2.6-6 3-6 3.5-6c.7 0 1.2.2 1.5.6.5.4.7 1 .7 1.7 0 .4 0 .9-.2 1.3-.1.5-.3.9-.6 1.4a3 3 0 0 1-.9.8c-.4.2-.8.2-1.3.2Zm0-.6c.5-.1.9-.2 1.1-.5.2-.2.5-.6.6-.9.2-.6.3-1.1.3-1.8l-.1-.7-.4-.5-.7-.2c-.5 0-.8.2-1 .5-.5.2-.7.5-.9.9L1.5-2c0 .3.1.7.3.9.3.3.6.4 1 .4Zm.1-.1"/>  <path id="e" d="M-.2 0 0-.7l3.6-4.5H1.1l.1-.7h3.6l-.1.9L1-.7h2.9l-.2.7Zm0 0"/>  <path id="d" d="M3 .1c-.4 0-.8 0-1-.3a1.9 1.9 0 0 1-.5-.7h-.1L1 0H.3l1.8-8.4H3l-.5 2v.8l-.2.6v.2l.7-.8c.4-.4.8-.4 1.2-.4.5 0 .9.2 1.2.5.3.5.4.8.4 1.5 0 .5 0 1-.2 1.5L5.1-1A3 3 0 0 1 4-.2c-.1.2-.5.2-1 .2Zm-.1-.8c.3 0 .5 0 .8-.3l.6-.7.4-1.1.1-1.2c0-.8-.3-1.2-.8-1.2-.3 0-.6.2-.8.3a3 3 0 0 0-.7.7c-.3.3-.5.7-.5 1-.2.6-.2 1-.2 1.4s0 .6.2.8c.2.2.5.3 1 .3Zm0 0"/>  <path id="c" d="M2.1.1C1.7.1 1.3 0 1-.4.7-.7.5-1.2.5-1.9l.2-1.6.6-1.3c.3-.4.7-.7 1-.9.2-.2.7-.3 1.1-.3.4 0 .7.1 1 .3l.5.7.5-.9H6L4.8 0H4l.2-1a4 4 0 0 1-1.1.7c-.1.3-.6.3-.9.3Zm.3-.8c.3 0 .6 0 .8-.3a3 3 0 0 0 .8-.8 5 5 0 0 0 .4-1.1l.1-.6V-4c.1-.4.1-.6-.1-1-.4 0-.6-.2-.9-.2-.3 0-.5.2-.8.3l-.6.7-.4 1-.2 1.4c0 .3 0 .6.3.9l.6.1Zm0 0"/>  <path id="b" d="m.3 0 1.3-5.9h.8l-.2 1 .7-.4.4-.5.8-.2h.6l-.2 1a3 3 0 0 0-.5-.2c-.4.1-.7.2-1 .4a3 3 0 0 0-.8 1l-.3 1.1L1.3 0Zm0 0"/>  <path id="a" d="M1.7 0 3-7H1l.2-.9h5.3l-.2 1H4.1L2.7 0Zm0 0"/>  <path d="M1 0v-7.9h4.6V0Zm.6-.6H5v-6.7H1.6Zm0 0"/> </defs> <image xlink:href="svg/9/8_1.jpg" width="497" height="279"/> <path d="m193.3 22.2 1.4-7h-2.1l.2-.8h5.2l-.1.8h-2.2l-1.4 7zm3.6 0 1.1-5.9h1l-.2 1.1.5-.6.7-.4.6-.2h.7l-.3 1.1a3 3 0 0 0-.5-.3c-.4 0-.7.2-1 .4a3 3 0 0 0-.7 1l-.4 1.1-.6 2.7zm5.9.1c-.4 0-.8-.1-1.1-.5-.3-.3-.4-.8-.4-1.5 0-.5 0-1 .2-1.6.1-.5.3-.9.5-1.3l1-.9c.3-.2.7-.3 1-.3.5 0 .8.1 1.1.3l.5.7.4-.9h.8l-1.3 6h-.7V21a4 4 0 0 1-.8 1c-.4.2-.7.3-1.2.3zm.4-.8c.2 0 .5 0 .8-.3a3 3 0 0 0 .7-.8 5 5 0 0 0 .5-1.1v-.6l.2-.5c-.1-.3-.2-.6-.4-.8-.2-.4-.4-.4-.8-.4l-.8.3-.6.7-.4 1-.2 1.4c0 .3.1.6.3.9l.7.1zm6.8.8c-.6 0-.9 0-1-.3a1.9 1.9 0 0 1-.6-.7l-.4 1h-.7l1.7-8.5h1l-.4 2.1-.2.6-.1.7-.1.2.9-.8c.3-.3.7-.4.9-.4.8 0 1.2.2 1.4.5.2.4.4.9.4 1.5s0 1-.2 1.6c-.1.4-.3.9-.6 1.2a3 3 0 0 1-.9 1c-.3.2-.7.3-1.1.3zm-.3-.8c.4 0 .7 0 1-.3l.6-.7.4-1 .1-1.4c0-.7-.3-1.1-1-1.1l-.6.3a3 3 0 0 0-.8.7l-.4 1-.3 1.4c0 .3.1.6.3.8.2.2.5.3.8.3zM213 22.2l.3-.6 3.6-4.6h-2.6l.2-.7h3.5l-.1.8-3.6 4.4h2.8l-.1.7zm7.9.1c-.7 0-1.3-.2-1.7-.6-.4-.4-.5-1-.5-1.7a5 5 0 0 1 .1-1.3c.2-.5.3-.9.6-1.2a3 3 0 0 1 1-1c.2 0 .6-.2 1.1-.2.8-.1 1.3.1 1.7.7.4.3.6.9.6 1.5 0 .5 0 1-.2 1.5l-.6 1a3 3 0 0 1-.9 1c-.3.2-.8.3-1.1.3zm0-.8c.4 0 .7-.1 1-.5.1 0 .5-.5.6-.9.2-.5.3-1.1.3-1.7l-.1-.6c0-.2-.2-.4-.4-.6l-.7-.2c-.4 0-.8.2-1 .5-.4.2-.6.5-.8 1-.1.5-.2 1.1-.2 1.7 0 .3.1.7.4.8.2.4.5.5 1 .5zm3.7.7 1.2-6h1l-.3 1.3.6-.7.6-.4c.3-.2.6-.2.9-.2.4 0 .8.1 1 .4.4.2.6.6.6 1v.7l-.2.3-.8 3.6h-1l.8-3.7v-.4a2 2 0 0 0 0-.3c0-.5-.1-.8-.6-.8-.3 0-.6 0-.9.3l-.8.8-.5 1.6-.6 2.5zm0 0" style="fill:none;stroke:#fff;stroke-width:3;stroke-linecap:butt;stroke-linejoin:round;stroke-miterlimit:10;stroke-opacity:.6" transform="rotate(  340 300.287 76.5497) translate(89.847458,57.336864)"/> <g style="fill:#7d577d;fill-opacity:1" transform=" rotate(  340 300.287 76.5497) ">  <use xlink:href="#a" x="281.4" y="79.5"/>  <use xlink:href="#b" x="286.4" y="79.5"/>  <use xlink:href="#c" x="290.6" y="79.5"/>  <use xlink:href="#d" x="296.8" y="79.5"/>  <use xlink:href="#e" x="303.1" y="79.5"/>  <use xlink:href="#f" x="308" y="79.5"/>  <use xlink:href="#g" x="314.2" y="79.5"/> </g> <path d="M116.2 172.3c-.9 0-1.6-.3-2.1-.8-.6-.5-.8-1.2-.8-2.1 0-.8 0-1.4.3-2a5 5 0 0 1 .8-1.7c.4-.5.9-.7 1.4-1a3.8 3.8 0 0 1 1.7-.6c.5.1.9.1 1.2.3.4 0 .7.2 1 .3l-.2.9a6.3 6.3 0 0 0-1-.4l-1-.1c-.6 0-1.2.2-1.6.5-.5.4-.9.9-1.2 1.5a5.3 5.3 0 0 0-.4 2.2c0 .4 0 .7.2 1 .2.5.5.7.7.9.3.1.7.2 1.2.2h.6l.7-.2.5-2.2h-1.5l.2-.9h2.5l-.9 3.8-1 .3-1.3.1zm5.8 0c-.4 0-.8-.1-1-.4-.4-.2-.6-.6-.6-.9a3 3 0 0 1 .1-.7l.3-.4.6-3.6h1l-.8 3.7V171.3l.7.2c.2 0 .5 0 .8-.3.3-.1.6-.4.8-.8.3-.4.4-1 .6-1.6l.5-2.5h1l-1.3 5.9h-.7l.1-1.1h-.1l-.5.5-.5.5-1 .2zm3-7c-.2 0-.3 0-.4-.3v-.6c.3-.2.4-.2.6-.2h.2l.1.5-.1.4-.4.2zm-2 0c-.1 0-.3 0-.3-.3l-.2-.2c0-.2 0-.3.2-.4 0-.2.2-.2.3-.2h.4l.1.5-.1.4-.4.2zm3.6 6.9 1.4-5.9h.7l-.2 1c.3.1.5-.3.7-.3 0-.3.2-.5.5-.6l.8-.2c.4 0 .7.1 1 .3 0 .3.2.6.2 1a4 4 0 0 1 .8-.6l.5-.5.9-.2c.4 0 .8.1 1 .4.3.2.4.6.4 1v.5l-.1.5-.8 3.6h-1l.9-3.7v-.5a2 2 0 0 0 0-.3v-.5l-.7-.2-.8.3c-.2.2-.5.4-.7.7-.2.5-.4.9-.5 1.5l-.6 2.7h-1l.8-3.7.2-.7c0-.3 0-.5-.3-.6 0-.1-.2-.2-.5-.2l-.8.3c-.2.1-.4.4-.7.7-.3.5-.4 1-.7 1.6l-.4 2.6zm11.4.1c-.4 0-.8-.1-1-.4-.4-.2-.6-.6-.6-.9a3 3 0 0 1 .1-.7l.2-.4.7-3.6h1l-.8 3.7V171.3l.7.2c.2 0 .5 0 .7-.3.4-.1.6-.4.9-.8l.6-1.6.5-2.5h1l-1.3 5.9h-.7l.1-1.1h-.1l-.5.5-.5.5-1 .2zm3-7c-.2 0-.3 0-.4-.3v-.6c.1-.2.4-.2.5-.2h.3l.1.5-.1.4-.4.2zm-2 0c-.1 0-.3 0-.4-.3v-.6c.3-.2.4-.2.6-.2h.2l.1.5-.1.4-.4.2zm5 7-1-.1-.5-.3v-.9l.5.4a3 3 0 0 0 1 .1c.4 0 .7 0 1-.2.2-.3.3-.4.3-.7 0-.2 0-.4-.2-.6l-.8-.5a3.8 3.8 0 0 1-1-.7l-.1-1c-.2-.3 0-.8.4-1 .4-.4.8-.6 1.5-.6l.9.1.7.3-.2.8-.5-.4h-1l-.7.1-.3.7c0 .2 0 .4.2.5.1.2.4.3.8.5l.7.5.3.5.3.7c0 .5-.2 1-.6 1.4-.4.3-1 .4-1.7.4zm-.7 2.5h-.5v-.6h.4c.6.1.8 0 .8-.4l-.1-.5-.6-.1.7-1h.5l-.3.6.4.3c.2.1.4.3.4.6s-.3.6-.5.8c-.3.2-.7.3-1.2.3zm4.1-2.6 1.6-8.4h1.1l-.5 2.2-.1.7-.2.7.5-.5.7-.5.8-.2c.5 0 .8.1 1 .4.5.2.6.6.6 1.1v.4l-.2.5-.8 3.6h-.9l.7-3.7.1-.7c0-.3 0-.5-.2-.6l-.5-.2-.9.3-.8.7-.4 1.6-.7 2.6zm8.1.1c-.4 0-.8-.2-1.1-.5-.4-.3-.4-.8-.4-1.5 0-.6 0-1 .2-1.6.1-.5.3-1 .6-1.3.2-.4.5-.7.9-.9.3-.2.7-.3 1.1-.3.4 0 .7.1 1 .3l.5.7.5-.9h.7l-1.3 5.9h-.7v-1.1a4 4 0 0 1-.8.8c-.4.3-.7.4-1.2.4zm.5-.8s.4 0 .7-.3a3 3 0 0 0 .7-.8 5 5 0 0 0 .5-1.1v-.6l.1-.5c0-.4-.1-.6-.3-.9-.2-.2-.4-.3-.8-.3l-.8.3-.6.7-.4 1-.2 1.4c.1.3.1.6.3.9l.7.1zM160 172.2l1.1-6h1l-.2 1.3.5-.7.7-.4c.2-.2.5-.2.8-.2.5 0 .9.1 1.1.4.3.2.4.6.4 1v1l-.9 3.6h-.9l.6-3.7v-.5a2 2 0 0 0 .3-.3c-.1-.4-.3-.7-.8-.7-.3 0-.5.1-.8.3-.3.2-.6.4-.9.7-.2.5-.3 1-.5 1.6l-.5 2.6zm8.7.1c-.7 0-1.2-.2-1.7-.6-.3-.4-.4-1-.4-1.6a4.9 4.9 0 0 1 .7-2.7 3 3 0 0 1 1-.9c.3-.2.7-.3 1.2-.3.6 0 1 .1 1.3.4.2.2.4.4.4 1 0 .3-.2.7-.4 1-.2.4-.6.6-1 .8-.7.2-1.3.2-2.1.2h-.1v.5c-.1.4-.1.8.2.9.2.4.6.5 1.1.5l.8-.1.8-.4v.9l-.8.3-1 .1zm-1-3.4 1.3-.1 1-.4c0-.2.2-.5.2-.8l-.2-.4-.5-.2c-.5 0-.7.2-1 .5-.5.3-.7.8-.9 1.4zm0 0" style="fill:none;stroke:#fff;stroke-width:3;stroke-linecap:butt;stroke-linejoin:round;stroke-miterlimit:10;stroke-opacity:.6" transform="rotate(  340 142.987 228.012) translate(0,58.814619)"/> <g style="fill:#7d577d;fill-opacity:1" transform=" rotate(  340 142.987 228.012) ">  <use xlink:href="#h" x="112.5" y="231"/>  <use xlink:href="#i" x="119.9" y="231"/>  <use xlink:href="#j" x="126.3" y="231"/>  <use xlink:href="#i" x="135.9" y="231"/>  <use xlink:href="#k" x="142.3" y="231"/>  <use xlink:href="#l" x="147.1" y="231"/>  <use xlink:href="#c" x="153.4" y="231"/>  <use xlink:href="#g" x="159.7" y="231"/>  <use xlink:href="#m" x="166" y="231"/> </g> <path d="m280.5 195.6 1.7-7.9h2c.8 0 1.3.3 1.8.5.4.2.6.7.6 1.3 0 .6-.2 1-.6 1.3-.2.4-.7.6-1.2.7.4.3.7.4.9.7.2.2.4.5.4.8-.1.8-.2 1.2-.4 1.6-.3.3-.7.5-1 .7-.6.2-1.1.3-1.7.3zm2-4.6h1.3c.2 0 .6 0 .9-.1.2.1.3-.2.6-.4.2-.2.2-.5.2-.8 0-.4 0-.7-.3-.8-.2-.2-.6-.3-1-.3H283zm-.8 3.7h1.4c.6 0 .9 0 1.4-.4.5-.2.5-.6.5-1.1 0-.4 0-.7-.3-1-.2-.2-.7-.2-1.2-.2h-1.2zm7.1 1c-.5 0-.8-.2-1.1-.5-.3-.3-.5-.8-.5-1.5s0-1 .2-1.7l.6-1.2c.3-.4.6-.7 1-.8.2-.3.6-.4 1-.4.5 0 .8.1 1.1.3l.5.7.4-.9h.7l-1.2 5.9h-.8l.3-1.1a4 4 0 0 1-1.2.8c-.2.3-.6.4-.8.4zm.3-.8c.3 0 .6-.1.9-.3a3 3 0 0 0 .6-.8 5 5 0 0 0 .5-1.1l.1-.7v-.4c.1-.4.1-.7-.2-.9-.2-.2-.5-.3-.8-.3-.2 0-.5 0-.8.3l-.6.7-.5 1v2.3l.8.1zm3.6 3.3h-.5a4 4 0 0 1-.2 0v-1l.2.2h.4c.4 0 .6 0 .8-.2l.6-.8.4-.7-1-6h1.1l.3 3v.6a34.3 34.3 0 0 1 .2 1.5l.2-.5a22.7 22.7 0 0 1 .8-1.4l1.6-3.2h1l-3.6 6.9c-.4.4-.7 1-1.1 1.2-.3.3-.7.4-1.2.4zm8.3-2.5c-.4 0-.7-.1-1-.3a1.9 1.9 0 0 1-.4-.7l-.6.9h-.6l1.8-8.4h1l-.6 2-.1.8-.1.5-.1.3.9-.9c.3-.2.7-.3 1.1-.3.5 0 .9.2 1.2.4.3.4.4 1 .4 1.6.1.4.1 1-.2 1.4-.1.6-.3 1.1-.6 1.4a3 3 0 0 1-.9 1c-.2.2-.7.3-1.2.3zm0-.8c.3 0 .5 0 .8-.3l.6-.6.4-1.2.1-1.2c.1-.8-.3-1.2-.9-1.2-.2 0-.4 0-.7.3a3 3 0 0 0-.8.7l-.5 1-.2 1.4c0 .3.2.5.3.8.2.2.5.3.9.3zm5.5.8c-.4 0-.8-.1-1-.4-.4-.2-.5-.6-.5-1a3 3 0 0 1 0-.6v-.4l1-3.6h1l-.9 3.7V194.7l.7.2c.3 0 .5 0 .8-.3.3-.1.6-.4.8-.8.3-.4.6-1 .6-1.6l.5-2.5h1l-1.3 5.9h-.8l.2-1.1-.6.5-.6.5-.9.2zm4.6-.1 1.3-5.9h.8l-.2 1 .6-.4.6-.5c.2-.2.4-.2.7-.2h.6l-.2 1.1a3 3 0 0 0-.5-.3c-.4.1-.8.1-1 .4a3 3 0 0 0-.8 1c-.1.2-.3.6-.3 1l-.7 2.8zm6.1.1c-.4 0-.7 0-1-.3-.2-.2-.4-.4-.4-1l.2-.8.6-3.2h-1l.3-.4.9-.4.6-1.2h.6l-.3 1.3h1.5l-.2.7h-1.4l-.7 3.2v.4l-.2.3.2.4.5.3h.4l.2-.2v.7l-.3.1-.5.1zm0 0" style="fill:none;stroke:#fff;stroke-width:3;stroke-linecap:butt;stroke-linejoin:round;stroke-miterlimit:10;stroke-opacity:.6" transform=" rotate(  340 300.943 192.588) "/> <g style="fill:#7d577d;fill-opacity:1" transform=" rotate(  340 300.943 192.588) ">  <use xlink:href="#n" x="280.1" y="195.6"/>  <use xlink:href="#c" x="286.7" y="195.6"/>  <use xlink:href="#o" x="292.9" y="195.6"/>  <use xlink:href="#d" x="298.1" y="195.6"/>  <use xlink:href="#p" x="304.4" y="195.6"/>  <use xlink:href="#b" x="310.8" y="195.6"/>  <use xlink:href="#q" x="315.2" y="195.6"/> </g> <path d="M126.7 135.7h2.5v3.5a8.4 8.4 0 0 1-2.5.4c-.8 0-1.4-.2-1.9-.6a3 3 0 0 1-1.1-1c-.3-.7-.4-1.3-.4-2.1 0-.7.1-1.4.4-1.9a3 3 0 0 1 1.3-1.2c.5-.4 1.2-.6 2-.6l1 .1a5 5 0 0 1 1 .4l-.2.7a7.4 7.4 0 0 0-.8-.3h-1.1c-.8-.1-1.5.1-1.9.6-.6.6-.8 1.3-.8 2.2 0 .6 0 1.1.3 1.5.2.4.4.8.8 1 .4.3 1 .4 1.7.4a5.7 5.7 0 0 0 1.3-.2v-2.1h-1.6zm8.6-1.6v5.4h-.8v-.7h-.2l-.6.6-1 .2c-.7 0-1.2-.2-1.5-.6-.2-.2-.5-.7-.5-1.4v-3.5h1v3.5c-.1.8.3 1.2 1 1.2s1.1-.1 1.3-.5c.3-.3.4-.8.4-1.3v-2.9zm-3.7-1.4c0-.2 0-.3.2-.4l.2-.1.4.1.2.4c0 .1 0 .3-.2.3l-.3.2c-.1 0-.3 0-.3-.2l-.2-.3zm1.9 0 .1-.4.4-.1.3.1.1.4-.1.3-.3.2c-.2 0-.3 0-.4-.2l-.1-.3zm9.4 1.3c.6 0 1 .2 1.3.5.3.3.5.8.5 1.5v3.5h-1V136c.1-.8-.2-1.2-.9-1.2-.6 0-1 .1-1.2.4-.2.3-.4.8-.4 1.3v3h-.8V136c0-.8-.4-1.2-1.1-1.2-.6 0-1 .1-1.3.5V139.5h-1.1V134h.9v.8l.8-.6.9-.2c.7 0 1.2.3 1.5 1 .3-.5.5-.7 1-.9l.9-.1zm7.9.1v5.4h-.8l-.1-.7-.7.6-1 .2c-.6 0-1.1-.2-1.5-.6-.3-.2-.4-.7-.4-1.4v-3.5h.9v3.5c0 .8.3 1.2 1.1 1.2.7 0 1-.1 1.3-.5.2-.3.3-.8.3-1.3v-2.9zm-3.8-1.4c.1-.2.1-.3.3-.4l.3-.1.4.1.1.4c-.1.1-.1.3-.2.3l-.3.2c-.1 0-.2 0-.3-.2l-.3-.3zm2.1 0v-.4l.5-.1.2.1.2.4v.3l-.6.2s-.2 0-.2-.2l-.2-.3zm6.9 5.3c0 .5-.2 1-.6 1.2-.4.2-.9.4-1.6.4l-1-.1-.5-.3v-.8l.6.3 1.1.3c.3-.1.6-.2.9-.4l.1-.5v-.4c-.2 0-.3-.2-.5-.3a7.5 7.5 0 0 0-.7-.4 7.5 7.5 0 0 1-.8-.4l-.7-.4-.1-.8c0-.4.1-.8.5-1 .4-.4.9-.4 1.5-.4l.8.1a4 4 0 0 1 .9.3l-.3.6-.7-.2h-1.6c-.3.2-.3.4-.3.6v.4l.6.2.8.4.8.4c.3.1.5.3.6.5l.2.7zm-1 2.9c0 .3 0 .5-.2.7-.4.2-.8.4-1.2.4h-.6v-.8h1.2l.1-.4c0-.1 0-.2-.2-.3a2 2 0 0 0-.7-.2l.6-.8h.5l-.3.5.6.3c.2.1.3.3.3.6zm3.2-9v2.9l.7-.6 1-.2c.5 0 .9.2 1.3.5s.6.8.6 1.5v3.5h-.8V136c0-.8-.5-1.2-1.3-1.2-.6 0-1 .1-1.2.5-.2.3-.3.7-.3 1.4v2.8h-1v-7.6zm7.3 2.1c.5 0 1.1.2 1.4.5.4.2.5.7.5 1.3v3.7h-.6l-.2-.8-.8.7-1 .2c-.5 0-1-.2-1.2-.4-.4-.3-.6-.7-.6-1.2 0-.6.3-1 .7-1.2.4-.3 1-.5 2-.5h.8v-.5c.1-.3 0-.6-.2-.8-.3-.2-.5-.3-.9-.3-.2 0-.4 0-.8.3h-.6l-.3-.5c.2-.1.5-.3.8-.3l1-.2zm1 2.8h-.6c-.9.2-1.3.2-1.5.5-.4.1-.4.4-.4.7 0 .3 0 .5.3.7l.7.2c.4 0 .8-.2 1-.4.4-.3.6-.6.6-1.2zM171.7 134c.6 0 1 .2 1.3.5.4.3.6.8.6 1.5v3.5h-.9V136c0-.8-.4-1.2-1.2-1.2-.5 0-1 .1-1.2.5-.3.3-.3.7-.3 1.4v2.8h-1V134h.9v.8l.9-.6.9-.2zm5.6 0c.5 0 .9.1 1.2.3a2 2 0 0 1 .8.9l.2 1.2v.6H176c-.1.6 0 1 .3 1.3.3.4.7.5 1.3.5h.9l.8-.4v.8l-.8.3a5 5 0 0 1-1 0 3 3 0 0 1-1.3-.1 2.2 2.2 0 0 1-1-1.1l-.2-1.5c0-.5 0-1 .3-1.5 0-.3.4-.7.7-1 .4-.1.8-.3 1.3-.3zm0 .7c-.3 0-.7.3-1 .4-.2.3-.3.7-.3 1.2h2.6c0-.5-.1-.9-.3-1.1-.2-.3-.5-.5-1-.5zm0 0" style="fill:none;stroke:#fff;stroke-width:3;stroke-linecap:butt;stroke-linejoin:round;stroke-miterlimit:10;stroke-opacity:.6" transform=" rotate(  340 152.171 136.472) "/> <g style="fill:#212121;fill-opacity:1" transform=" rotate(  340 152.171 136.472) ">  <use xlink:href="#r" x="122.7" y="139.5"/>  <use xlink:href="#s" x="129.9" y="139.5"/>  <use xlink:href="#t" x="136.1" y="139.5"/>  <use xlink:href="#s" x="145.5" y="139.5"/>  <use xlink:href="#u" x="151.6" y="139.5"/>  <use xlink:href="#v" x="156.4" y="139.5"/>  <use xlink:href="#w" x="162.6" y="139.5"/>  <use xlink:href="#x" x="168.2" y="139.5"/>  <use xlink:href="#y" x="174.4" y="139.5"/> </g></svg>