<svg xmlns="http://www.w3.org/2000/svg" xmlns:xlink="http://www.w3.org/1999/xlink" viewBox="0 0 497 279"> <defs overflow="visible" style="stroke:none">  <path d="M6.7-5.5c.6 0 1 .2 1.4.5.3.3.4.8.4 1.5V0h-.8v-3.5c0-.8-.4-1.2-1.1-1.2-.6 0-1 .1-1.1.4C5.2-4 5-3.5 5-3v3h-.7v-3.5c0-.8-.4-1.2-1.1-1.2-.6 0-1 .1-1.2.5-.2.2-.3.8-.3 1.4V0H.8v-5.4h.8v.8h.2l.6-.7 1-.2c.7 0 1.2.3 1.6 1 .2-.5.4-.7.7-.8.3-.1.7-.2 1-.2Zm-3.8 0c.6 0 1.1.2 1.4.5.3.3.5.7.5 1.3V0h-.6L4-.8c-.3.3-.5.6-.8.8h-1c-.5 0-1 0-1.3-.3C.6-.5.5-.9.5-1.5c0-.5.2-1 .5-1.2.5-.3 1-.5 2-.5h.8v-.3c.2-.5.2-.8-.2-1l-.8-.2H2l-.7.5L1-5l1-.3.9-.2Zm1 2.9h-.8c-.6 0-1 .1-1.4.3-.1.3-.3.5-.3.8 0 .3 0 .5.2.7l.7.2c.5 0 .9-.1 1.2-.4.3-.2.4-.6.4-1ZM1-7.1h2c1 0 1.6.1 2 .4.5.2.7.7.7 1.3 0 .5-.1.8-.3 1-.4.4-.6.6-1 .7l.8.3c.2 0 .4.2.5.5.3.2.3.5.3.9 0 .6-.3 1-.7 1.5-.5.3-1 .5-1.8.5H1Zm.9 3h1.3c.6.1 1 .1 1.3-.3.2-.2.3-.5.3-.9s-.1-.6-.4-.7c-.4-.3-.8-.4-1.4-.4H2Zm0 .8v2.5h1.4c.7 0 1 0 1.3-.2.4-.4.4-.7.4-1.1s-.1-.7-.4-.9c-.2-.2-.6-.3-1.4-.3Zm0 0"/>  <path id="t" d="M2 0 0-5.4h1l1 3.2.4.5v.5l.1.4.2-.4a16 16 0 0 1 .3-1l1.1-3.2h1L3 0Zm0 0"/>  <path id="s" d="M5.5-2.7c0 .9-.2 1.7-.7 2-.4.7-1 .9-1.8.9-.5-.2-.9-.2-1.3-.4-.3-.2-.6-.6-.7-1C.6-1.6.5-2 .5-2.7c0-.9.3-1.6.7-2 .5-.5 1-.8 1.8-.8.5 0 1 .2 1.3.5.4 0 .7.4.9.9.2.2.3.7.3 1.3Zm-4 0c0 .7 0 1.2.3 1.5.3.4.7.6 1.2.6.6 0 1-.2 1.2-.6.3-.3.4-.8.4-1.5s-.1-1.1-.4-1.5c-.2-.3-.6-.5-1.2-.5-.5 0-1 .2-1.2.5-.2.4-.3.9-.3 1.5Zm0 0"/>  <path id="r" d="M4-3.8h2.6v3.5A8.4 8.4 0 0 1 4 .1C3.3 0 2.7-.1 2.2-.3A3 3 0 0 1 1-1.6c-.3-.6-.4-1.2-.4-2 0-.7.2-1.4.4-1.9a3 3 0 0 1 1.3-1.3c.7-.2 1.2-.4 2-.4h1.1a5 5 0 0 1 1 .5l-.3.7a7.4 7.4 0 0 0-.9-.3l-1-.2c-.7 0-1.4.3-1.9.8-.4.5-.7 1.2-.7 2.1-.1.6 0 1.1.2 1.6.2.4.5.7.9 1 .3.3.9.4 1.5.4a5.8 5.8 0 0 0 1.4-.2V-3H4.1Zm0 0"/>  <path id="q" d="M3 0c-.5 0-.9 0-1.3-.1-.3-.3-.6-.6-.7-.9-.4-.5-.5-1-.5-1.7 0-.6.2-1.1.5-1.5 0-.6.4-.8.8-1.1.2-.1.8-.2 1.2-.2l.8.1.7.2-.3.8-.6-.2H3c-1-.1-1.5.6-1.5 1.9 0 .7 0 1 .3 1.4.3.5.7.6 1.2.6h.8l.6-.3v.8a2 2 0 0 1-.6.2H3Zm0 0"/>  <path id="p" d="M5.3-5.4V0h-.7l-.1-.7c-.3.3-.5.5-.9.6l-.9.2C2.1 0 1.6-.1 1.3-.4 1-.7.8-1.2.8-1.8v-3.6h.9v3.5c0 .8.3 1.3 1.2 1.3.6 0 1-.2 1.1-.5.3-.4.5-.9.5-1.5v-2.8Zm0 0"/>  <path id="o" d="M3.4-5.5c.7 0 1.2.3 1.6.7.4.5.6 1.2.6 2.1 0 1-.2 1.7-.6 2-.4.7-1 .9-1.6.9-.4-.2-.8-.2-1-.3l-.7-.6v3.1H.8v-7.8h.8v.8h.2c.2-.4.3-.5.6-.6.2-.2.6-.3 1-.3Zm-.2.8c-.5 0-.9.1-1.1.5-.2.2-.4.7-.4 1.2v.3c0 .7.1 1.2.3 1.5.3.4.7.6 1.3.6.3 0 .6-.1.7-.4l.5-.6.2-1.1c0-.6-.1-1.1-.4-1.5-.2-.3-.6-.5-1-.5Zm0 0"/>  <path id="n" d="M3.3-5.5H4l-.1 1.1-.3-.3h-.3c-.3 0-.5 0-.8.2l-.5.7-.3 1V0H.8v-5.4h.8v1h.2l.6-.6c.3-.3.6-.5 1-.5Zm0 0"/>  <path id="m" d="M3-5.5c.3 0 .7.1 1 .3a2 2 0 0 1 1 .9v1.8H1.5c0 .5.1 1 .4 1.4.3.3.7.4 1.3.4H4l.9-.3v.8L4 0a5 5 0 0 1-1 0 3 3 0 0 1-1.2-.1 2.2 2.2 0 0 1-1-1.1c0-.2-.2-.8-.2-1.3-.1-.7 0-1.2.2-1.6.2-.5.5-.9.9-1 .3-.2.7-.4 1.2-.4Zm0 .8c-.6 0-.9.1-1 .4-.4.2-.6.6-.6 1.1h2.8c0-.5-.1-.8-.3-1.1-.2-.3-.5-.4-1-.4Zm0 0"/>  <path id="l" d="M1.7-7.6v2.9l.7-.5c.2-.2.6-.3 1-.3.6 0 1.2.3 1.6.8.4.4.6 1.1.6 1.9C5.6-1.7 5.4-1 5-.6c-.4.6-1 .7-1.6.7-.4-.1-.8-.1-1-.2l-.7-.6-.2.7H.8v-7.6Zm1.5 2.9c-.5 0-1 .1-1.1.5-.3.2-.4.8-.4 1.5s.1 1.2.3 1.5c.3.4.7.6 1.3.6.4 0 .7-.2 1-.6.3-.3.4-.8.4-1.5 0-1.3-.5-2-1.5-2Zm0 0"/>  <path id="k" d="M1.7 0H.8v-7.6h1Zm0 0"/>  <path id="j" d="m5.5 0-1-2.2H1.9L.9 0H0l2.8-7.2h.8L6.4 0ZM4.3-3l-.8-2.2v-.3l-.3-.4v-.3l-.2.6a8 8 0 0 1 0 .4L2-3Zm0 0"/>  <path id="i" d="M.7-.5C.7-.8.7-1 1-1a.7.7 0 0 1 .3-.2c.2 0 .3 0 .5.2 0 0 .2.2.2.5l-.2.5H1L.7-.5Zm0 0"/>  <path id="h" d="M2.6-.6H3l.4-.2v.7L3 0H1.7l-.6-.5-.1-1v-3.3H.2V-5l.7-.5.4-1h.5v1h1.5v.8H1.8v3.1c0 .3 0 .6.2.7l.6.3Zm0 0"/>  <path id="g" d="M5-2c0 .8-.2 1.3-.7 1.7-.3.2-1 .3-1.8.3H1.4a3 3 0 0 1-.9-.2v-.9a5 5 0 0 0 1 .3l.9.1c.6 0 1.1 0 1.3-.3.3-.2.4-.5.4-.8L4-2.4 3.5-3a7.2 7.2 0 0 0-1-.3c-.8-.2-1.2-.5-1.5-.8C.7-4.4.6-5 .6-5.4s0-.7.3-1a2 2 0 0 1 .8-.6 3 3 0 0 1 1.2-.2h1a5 5 0 0 1 1.1.5l-.5.6a4.5 4.5 0 0 0-.7-.2l-1-.2c-.3 0-.6.1-.9.3-.3.2-.4.5-.4.8 0 .2 0 .4.2.6 0 .2.2.3.3.4l1.1.4.9.5.8.7.2.8Zm0 0"/>  <path d="M1 0v-7.1h4V0Zm.4-.5h3.1v-6.1h-3Zm.1 0"/>  <path id="f" d="M3.4-.8H4l.4-.2v1H4l-.8.2C3 .1 2.5.1 2.2 0c-.2 0-.5-.4-.7-.7-.2-.3-.3-.8-.3-1.3v-4h-1v-.7l1-.4.5-1.5h.6V-7h2v1H2.4v4c-.1.4 0 .7.2.9.2.1.5.3.8.3Zm0 0"/>  <path id="e" d="M4.5-7c.8 0 1.4 0 1.8.4.5.6.7 1.1.7 2.1V0H5.8v-4.5c0-1-.5-1.5-1.5-1.5-.8-.1-1.3 0-1.6.5-.3.5-.5 1-.5 1.9V0h-.9v-7H2l.2 1a2 2 0 0 1 1.1-.8c.3-.2.7-.3 1.2-.3Zm0 0"/>  <path id="d" d="M7.2-3.5c0 1.2-.3 2-1 2.7-.4.6-1.2 1-2.2 1a3.2 3.2 0 0 1-1.7-.6A3 3 0 0 1 1-1.5c0-.6-.3-1.2-.3-2 0-1.1.3-2 .9-2.7C2.2-6.8 3-7 4-7c.6 0 1 0 1.6.3a3 3 0 0 1 1.2 1.2c.2.6.4 1.2.4 2Zm-5.3 0c0 .8.1 1.5.5 2 .3.4.8.7 1.5.7s1.2-.3 1.6-.7c.3-.5.5-1.2.5-2s-.2-1.5-.5-2C5-5.8 4.6-6 3.9-6c-.7-.1-1.2 0-1.5.6-.4.4-.5 1-.5 1.9Zm0 0"/>  <path id="c" d="M8.8-7c.6 0 1.2 0 1.6.4.6.6.7 1.1.7 2.1V0H10v-4.5c0-1-.5-1.5-1.5-1.5-.5-.1-1.1 0-1.4.5-.3.3-.4 1-.4 1.7V0H5.5v-4.5c0-1-.4-1.5-1.4-1.5-.7-.1-1.1 0-1.4.5-.3.5-.5 1-.5 1.9V0h-.9v-7H2l.2 1a2 2 0 0 1 1.1-.8c.1-.2.5-.3.9-.3 1.2.1 1.9.4 2.3 1.2a2 2 0 0 1 1-1.1 3 3 0 0 1 1.3 0Zm0 0"/>  <path id="b" d="M3.6.1C2.7.1 2-.2 1.5-.8 1-1.4.7-2.3.7-3.5c0-1.2.3-2 .8-2.7.5-.6 1.2-.8 2-.8.7 0 1.1 0 1.5.2l.7.7h.1a21.7 21.7 0 0 1 0-.9v-2.9h1V0H6l-.2-1c-.3.5-.5.7-1 .9-.2.1-.7.2-1.2.2Zm.1-1c.8.1 1.3-.1 1.6-.4.3-.5.5-1.1.5-2v-.2c0-.8-.2-1.5-.5-2-.3-.4-.8-.7-1.5-.7s-1.2.3-1.4.8c-.4.4-.5 1.1-.5 2 0 .8.1 1.4.5 1.9.3.5.6.7 1.4.7Zm.1.1"/>  <path id="a" d="M6.5 0H1.3v-9.3h5.2v1h-4v3h3.6v.9H2.4V-1h4Zm0 0"/>  <path d="M1.2 0v-9.3h5.4V0ZM2-.7h3.9v-8H2Zm-.1 0"/> </defs> <image xlink:href="svg/9/90_15.jpg" width="497" height="279"/> <path d="M441.3 215.9H436v-9.3h5.3v1h-4v3h3.7v.9h-3.7v3.2h4zm4.3.1c-.8 0-1.5-.3-2-.9-.6-.6-.8-1.5-.8-2.7 0-1.2.2-2.1.8-2.7.4-.6 1.2-1 2-1 .6.1 1 .3 1.4.5l.8.6a22.3 22.3 0 0 1 .1-1V206h1v9.9h-.9v-1h-.2l-.8.8c-.4.2-.8.3-1.4.3zm.2-1c.7 0 1.3 0 1.6-.5.3-.5.4-1.1.4-1.9v-.2c0-.9-.1-1.4-.4-2-.4-.4-.8-.7-1.6-.7-.6 0-1 .3-1.4.7-.3.6-.4 1.2-.4 2 0 .9.1 1.6.4 2 .3.4.8.6 1.4.6zm13-6.2c.8 0 1.4.2 1.8.6.4.4.6 1 .6 2v4.4H460v-4.4c0-1.1-.5-1.7-1.4-1.7-.7 0-1.2.3-1.4.6-.3.4-.5 1-.5 1.7v4h-1.1v-4.6c0-1.1-.6-1.7-1.4-1.7-.7 0-1.2.3-1.5.7-.3.4-.4 1-.4 1.9v3.6h-1.1v-7h.8l.3 1a2 2 0 0 1 .9-.9l1.2-.2c1 0 1.8.4 2.1 1.1a2 2 0 0 1 1.1-.8 3 3 0 0 1 1.2-.3zm10.6 3.6c0 1.1-.4 2-1 2.6-.4.7-1.2 1-2.2 1a3.2 3.2 0 0 1-1.7-.4 3 3 0 0 1-1.2-1.3c-.2-.5-.3-1.2-.3-2 0-.9.2-1.9.8-2.5.6-.7 1.4-1.1 2.4-1.1.6.1 1.2.3 1.6.6a3 3 0 0 1 1.2 1.1c.2.6.4 1.2.4 2zm-5.4 0c.1.8.3 1.5.6 2 .3.3.8.6 1.4.6s1.4-.2 1.7-.7c.3-.3.5-1.1.5-2 0-.6-.2-1.3-.5-1.8s-.9-.8-1.7-.8c-.6 0-1 .3-1.4.7-.3.6-.6 1.2-.6 2zm10.5-3.6c.9 0 1.5.2 2 .6.2.4.5 1 .5 2v4.4h-1.1v-4.4c.1-1.1-.5-1.7-1.5-1.7-.8 0-1.4.3-1.6.7-.3.4-.5 1-.5 1.9v3.6h-1.1v-7h.8l.3 1a2 2 0 0 1 1-.9l1.2-.2zm7 6.2h1v.7l-.5.2-.7.1c-.3 0-.7 0-1-.2-.3-.1-.5-.3-.7-.6-.2-.4-.3-.8-.3-1.4v-4h-1v-.6l1-.4.5-1.5h.6v1.7h2v.8h-1.9v4c-.1.4 0 .8.2 1 .3.2.5.2.8.2zm8.5-2.6c0 1.1-.3 2-1 2.6-.4.7-1.2 1-2.2 1a3.2 3.2 0 0 1-1.7-.4 3 3 0 0 1-1.2-1.3c-.3-.5-.4-1.2-.4-2 0-.9.3-1.9.9-2.5.6-.7 1.4-1.1 2.4-1.1.6.1 1.1.3 1.6.6a3 3 0 0 1 1.1 1.1c.3.6.5 1.2.5 2zm-5.3 0c0 .8.1 1.5.5 2 .3.3.8.6 1.5.6s1.3-.2 1.6-.7c.3-.3.5-1.1.5-2 0-.6-.2-1.3-.5-1.8-.4-.5-.9-.8-1.6-.8-.7 0-1.2.3-1.5.7-.4.6-.5 1.2-.5 2zm10.4-3.6c.9 0 1.5.2 1.9.6.4.4.6 1 .6 2v4.4h-1.1v-4.4c0-1.1-.5-1.7-1.5-1.7-.8 0-1.4.3-1.7.7-.2.4-.3 1-.3 1.9v3.6h-1.2v-7h.9l.2 1a2 2 0 0 1 1.1-.9l1-.2zm0 0" style="fill:none;stroke:#fff;stroke-width:3;stroke-linecap:butt;stroke-linejoin:round;stroke-miterlimit:10;stroke-opacity:.6" transform="rotate(  340 456.327 212.872) translate(-10.031328)"/> <g style="fill:#212121;fill-opacity:1" transform=" rotate(  340 456.327 212.872) ">  <use xlink:href="#a" x="424.8" y="215.9"/>  <use xlink:href="#b" x="432" y="215.9"/>  <use xlink:href="#c" x="440" y="215.9"/>  <use xlink:href="#d" x="452.2" y="215.9"/>  <use xlink:href="#e" x="460" y="215.9"/>  <use xlink:href="#f" x="468.1" y="215.9"/>  <use xlink:href="#d" x="472.8" y="215.9"/>  <use xlink:href="#e" x="480.6" y="215.9"/> </g> <path d="M426.4 180.1c0 .7-.4 1.2-.7 1.5-.5.4-1.1.5-1.9.5h-1a3 3 0 0 1-1.1-.4v-.8a5 5 0 0 0 1.2.3l.9.1c.7 0 1.1 0 1.4-.3.1-.2.3-.4.3-.8 0-.2 0-.4-.2-.6 0-.2-.3-.3-.5-.4a7.2 7.2 0 0 0-1-.5c-.6-.2-1-.5-1.4-.7-.3-.4-.4-.8-.4-1.4 0-.4 0-.6.2-1a2 2 0 0 1 .8-.6 3 3 0 0 1 1.2-.2l1.1.1a5 5 0 0 1 .9.3l-.3.8a4.5 4.5 0 0 0-.8-.3l-.9-.1c-.4 0-.8 0-1 .3-.2.1-.3.4-.3.7l.1.6.5.5 1 .3.9.6c.4.1.6.3.6.6.3.2.4.5.4 1zm3.1 1.3h.4l.3-.1v.7h-.4l-.5.2-.8-.2-.5-.5c-.2-.3-.2-.6-.2-1v-3.2h-.8v-.3l.8-.4.2-1.2h.6v1.3h1.6v.6h-1.6v3.1c0 .4.1.6.4.8l.5.2zm1.7.1.1-.5a.7.7 0 0 1 .5-.2c.1 0 .2 0 .4.2.1 0 .2.2.2.5 0 .2 0 .4-.2.5l-.4.2c-.2 0-.3 0-.5-.2l-.1-.5zm10 .5-.9-2.2h-2.8l-.9 2.2h-.9l2.8-7h.8l2.8 7zm-1.2-3-.8-2v-.4l-.2-.6v-.2l-.4.6a8 8 0 0 1 0 .5l-.8 2.1zm3.9 3h-1v-7.6h1.1zm2.5-7.6v3l.7-.6.9-.2c.8 0 1.3.2 1.7.7.3.4.6 1.1.6 2 0 1-.3 1.7-.6 2.1-.4.6-1 .7-1.7.7-.3 0-.7 0-1-.1l-.6-.7-.2.7h-.7v-7.6zm1.6 3c-.6-.1-1-.1-1.2.3-.3.4-.4.9-.4 1.6s.1 1.3.3 1.7c.3.2.7.4 1.3.4.4 0 .8-.2 1-.5.3-.4.4-.9.4-1.6 0-1.3-.5-2-1.5-2zM453.8 176.6c.4 0 .8 0 1.1.3a2 2 0 0 1 .8.8c.3.4.3.8.3 1.3v.5h-3.7c0 .6.2 1 .5 1.5.2.2.7.4 1.2.4l1-.1.6-.3v.8l-.6.2a5 5 0 0 1-1 .1 3 3 0 0 1-1.3-.3 2.2 2.2 0 0 1-1-.8c-.2-.5-.3-1.1-.3-1.6 0-.6 0-1.1.3-1.5.2-.4.5-.9.8-1 .5-.2.8-.3 1.3-.3zm0 .7c-.5 0-.8.1-1 .4-.3.3-.4.6-.5 1.1h2.8c-.1-.4-.2-.8-.4-1-.2-.5-.5-.6-1-.6zm6-.7h.7l-.1.8h-.6c-.3 0-.6 0-.8.2l-.6.6-.2 1v2.8h-.9v-5.3h.8v1l.9-.8c0-.2.5-.3.9-.3zm3.5 4.8h.4l.3-.1v.7h-.4l-.5.2-.8-.2-.5-.5c-.2-.3-.3-.6-.3-1v-3.2h-.7v-.3l.8-.4.3-1.2h.5v1.3h1.6v.6h-1.6v3.1c0 .4 0 .6.2.8l.7.2zm0 0" style="fill:none;stroke:#fff;stroke-width:3;stroke-linecap:butt;stroke-linejoin:round;stroke-miterlimit:10;stroke-opacity:.6" transform="rotate(  340 439.547 143.081) translate(-4.1797202,-35.945593)"/> <g style="fill:#212121;fill-opacity:1" transform=" rotate(  340 439.547 143.081) ">  <use xlink:href="#g" x="417.2" y="146.1"/>  <use xlink:href="#h" x="422.7" y="146.1"/>  <use xlink:href="#i" x="426.3" y="146.1"/>  <use xlink:href="#glyph1-4" x="428.9" y="146.1"/>  <use xlink:href="#j" x="431.5" y="146.1"/>  <use xlink:href="#k" x="437.9" y="146.1"/>  <use xlink:href="#l" x="440.5" y="146.1"/>  <use xlink:href="#m" x="446.7" y="146.1"/>  <use xlink:href="#n" x="452.3" y="146.1"/>  <use xlink:href="#h" x="456.4" y="146.1"/> </g> <path d="M362 209.5c0 .7-.4 1.2-.9 1.5-.3.4-.9.5-1.7.5h-1.1a3 3 0 0 1-.9-.4v-.7a5 5 0 0 0 1 .2l.9.2c.7 0 1.1-.1 1.3-.3.4-.2.4-.5.4-.9v-.6l-.6-.4a7.2 7.2 0 0 0-1-.4c-.7-.3-1.1-.5-1.4-.9-.3-.3-.5-.7-.5-1.3 0-.3.1-.7.3-1a2 2 0 0 1 .8-.5 3 3 0 0 1 1.2-.3l1 .1a5 5 0 0 1 1.1.3l-.4.8a4.5 4.5 0 0 0-.8-.4h-1c-.3 0-.7.1-.9.3-.2.2-.3.4-.3.7-.1.3-.1.5.1.7l.4.3 1 .5 1 .5.7.6c.2.4.2.6.2 1zm3.8-3.5c.7 0 1.2.2 1.6.7.4.3.6 1.1.6 2 0 1.1-.2 1.8-.6 2.2-.4.4-1 .6-1.6.6-.4 0-.8 0-1-.2l-.8-.5v3.1h-.8V206h.8v.8h.2l.6-.6 1-.2zm-.2.7c-.5 0-.9.3-1.1.5-.2.3-.5.8-.5 1.4v.2c.1.6.2 1.1.4 1.5.3.3.7.5 1.3.5.3 0 .6 0 .8-.2l.4-.8.2-1c-.1-.8-.1-1.3-.4-1.6-.2-.3-.6-.5-1-.5zm6.3-.7h.6v1h-.5v-.3c-.4.1-.7.1-1 .3-.2.2-.4.4-.5.7l-.2.9v2.8h-.9v-5.3h.7l.1.9.8-.7c.2-.2.5-.3 1-.3zm6.1 0v5.5h-.7l-.1-.8-.9.7-.9.1c-.6 0-1.1-.1-1.4-.4-.4-.3-.5-.8-.5-1.5v-3.5h.9v3.4c0 .9.4 1.3 1.2 1.3.6 0 1-.1 1.2-.5.2-.3.2-.8.2-1.3v-3zm3.9 5.5c-.5 0-1 0-1.3-.2-.4-.3-.7-.5-.9-1-.2-.3-.3-.8-.3-1.4 0-.9.1-1.3.3-1.7l1-1 1.1-.2h.9l.6.4-.2.6-.6-.2h-.6c-.9 0-1.6.6-1.6 2 0 .6.1 1.1.4 1.5.3.3.6.5 1.1.5l.8-.1.6-.2v.8a2 2 0 0 1-.6.2h-.6zm4.7-5.5 1.2.3a2 2 0 0 1 .7.7c.2.5.3 1 .3 1.4v.5H385c.1.7.3 1.1.6 1.4.3.3.7.5 1.2.5l1-.1.7-.3v.8l-.8.3a5 5 0 0 1-1 0 3 3 0 0 1-1.2-.3 2.2 2.2 0 0 1-1-.9c-.2-.3-.3-.9-.3-1.5s.1-1 .3-1.5l.8-1c.4-.2.8-.3 1.3-.3zm0 .7c-.4 0-.8.3-1 .4-.3.3-.4.7-.6 1.1h3c-.1-.4-.2-.8-.4-1-.3-.4-.6-.6-1-.6zm9.4 1h2.4v3.5a8.4 8.4 0 0 1-2.4.4c-.8-.1-1.4-.3-1.9-.6a3 3 0 0 1-1.2-1.2c-.3-.5-.4-1.2-.4-2 0-.6.2-1.2.5-1.8a3 3 0 0 1 1.2-1.3c.6-.3 1.2-.5 2-.5l1.1.1a5 5 0 0 1 1 .3l-.3.8a7.4 7.4 0 0 0-.9-.3l-1-.1c-.7 0-1.4.3-1.9.8-.4.5-.7 1.2-.7 2-.1.7 0 1.2.2 1.7.3.3.5.7.9.9.4.2.9.4 1.4.4a5.7 5.7 0 0 0 1.5-.2v-2.1H396zm6.5-1.7h.7l-.2 1h-.2l-.3-.3c-.3.1-.6.1-.8.3l-.6.7-.1.9v2.8h-1v-5.3h.7l.3.9.6-.7c.2-.2.6-.3 1-.3zm6.1 2.8c0 .8-.2 1.5-.6 2-.5.5-1 .7-1.9.7-.5 0-.9 0-1.3-.3-.3-.2-.6-.5-.8-1-.2-.2-.3-.7-.3-1.3 0-1.1.2-1.7.6-2.1.5-.7 1-.8 1.9-.8.4 0 .8.1 1.2.3.4.2.7.5.9 1 .2.4.3.9.3 1.5zm-4 0c0 .6 0 1.1.3 1.5.3.3.7.5 1.2.5.6 0 1-.2 1.2-.5.3-.4.4-.9.4-1.5 0-.8-.1-1.2-.4-1.5-.2-.4-.6-.6-1.2-.6-.5 0-1 .3-1.1.6-.3.3-.4.7-.4 1.5zm6.4 2.6-2-5.3h.9l1.1 3.1.2.5.2.6v.4h.2v-.5a16 16 0 0 1 .4-1l1-3.1h1.1l-2.1 5.3zm6-5.4c.4 0 .8.1 1 .3a2 2 0 0 1 1 .7c.1.5.2 1 .2 1.4v.5h-3.7c0 .7.2 1.1.5 1.4.3.3.7.5 1.2.5l1-.1c.1 0 .4-.1.6-.3v.8l-.7.3a5 5 0 0 1-1 0 3 3 0 0 1-1.2-.3 2.2 2.2 0 0 1-.9-.9c-.3-.3-.4-.9-.4-1.5s0-1 .3-1.5l.8-1c.4-.2.8-.3 1.3-.3zm0 .7c-.6 0-.9.3-1 .4-.4.3-.5.7-.6 1.1h2.8c0-.4 0-.8-.2-1-.3-.4-.6-.6-1-.6zm0 0" style="fill:none;stroke:#fff;stroke-width:3;stroke-linecap:butt;stroke-linejoin:round;stroke-miterlimit:10;stroke-opacity:.6" transform=" rotate(  340 388.223 208.451) "/> <g style="fill:#212121;fill-opacity:1" transform=" rotate(  340 388.223 208.451) ">  <use xlink:href="#g" x="356.9" y="211.5"/>  <use xlink:href="#o" x="362.4" y="211.5"/>  <use xlink:href="#n" x="368.6" y="211.5"/>  <use xlink:href="#p" x="372.7" y="211.5"/>  <use xlink:href="#q" x="378.9" y="211.5"/>  <use xlink:href="#m" x="383.7" y="211.5"/>  <use xlink:href="#glyph1-4" x="389.3" y="211.5"/>  <use xlink:href="#r" x="391.9" y="211.5"/>  <use xlink:href="#n" x="399.2" y="211.5"/>  <use xlink:href="#s" x="403.1" y="211.5"/>  <use xlink:href="#t" x="409" y="211.5"/>  <use xlink:href="#m" x="414" y="211.5"/> </g></svg>