<svg xmlns="http://www.w3.org/2000/svg" xmlns:xlink="http://www.w3.org/1999/xlink" viewBox="0 0 497 279"> <defs overflow="visible" style="stroke:none">  <path d="M1.7-7.6v2.9l.7-.5c.2-.2.6-.3 1-.3.6 0 1.2.3 1.6.8.4.4.6 1.1.6 1.9C5.6-1.7 5.4-1 5-.6c-.4.6-1 .7-1.6.7-.4-.1-.8-.1-1-.2l-.7-.6-.2.7H.8v-7.6Zm1.5 2.9c-.5 0-1 .1-1.1.5-.3.2-.4.8-.4 1.5s.1 1.2.3 1.5c.3.4.7.6 1.3.6.4 0 .7-.2 1-.6.3-.3.4-.8.4-1.5 0-1.3-.5-2-1.5-2Zm3.5-.8c.6 0 1 .2 1.4.5.3.3.4.8.4 1.5V0h-.8v-3.5c0-.8-.4-1.2-1.1-1.2-.6 0-1 .1-1.1.4C5.2-4 5-3.5 5-3v3h-.7v-3.5c0-.8-.4-1.2-1.1-1.2-.6 0-1 .1-1.2.5-.2.2-.3.8-.3 1.4V0H.8v-5.4h.8v.8h.2l.6-.7 1-.2c.7 0 1.2.3 1.6 1 .2-.5.4-.7.7-.8.3-.1.7-.2 1-.2ZM5.5-2.7c0 .9-.2 1.7-.7 2-.4.7-1 .9-1.8.9-.5-.2-.9-.2-1.3-.4-.3-.2-.6-.6-.7-1C.6-1.6.5-2 .5-2.7c0-.9.3-1.6.7-2 .5-.5 1-.8 1.8-.8.5 0 1 .2 1.3.5.4 0 .7.4.9.9.2.2.3.7.3 1.3Zm-4 0c0 .7 0 1.2.3 1.5.3.4.7.6 1.2.6.6 0 1-.2 1.2-.6.3-.3.4-.8.4-1.5s-.1-1.1-.4-1.5c-.2-.3-.6-.5-1.2-.5-.5 0-1 .2-1.2.5-.2.4-.3.9-.3 1.5ZM3 0c-.5 0-.9 0-1.3-.1-.3-.3-.6-.6-.7-.9-.4-.5-.5-1-.5-1.7 0-.6.2-1.1.5-1.5 0-.6.4-.8.8-1.1.2-.1.8-.2 1.2-.2l.8.1.7.2-.3.8-.6-.2H3c-1-.1-1.5.6-1.5 1.9 0 .7 0 1 .3 1.4.3.5.7.6 1.2.6h.8l.6-.3v.8a2 2 0 0 1-.6.2H3Zm-.1-5.5c.6 0 1.1.2 1.4.5.3.3.5.7.5 1.3V0h-.6L4-.8c-.3.3-.5.6-.8.8h-1c-.5 0-1 0-1.3-.3C.6-.5.5-.9.5-1.5c0-.5.2-1 .5-1.2.5-.3 1-.5 2-.5h.8v-.3c.2-.5.2-.8-.2-1l-.8-.2H2l-.7.5L1-5l1-.3.9-.2Zm1 2.9h-.8c-.6 0-1 .1-1.4.3-.1.3-.3.5-.3.8 0 .3 0 .5.2.7l.7.2c.5 0 .9-.1 1.2-.4.3-.2.4-.6.4-1ZM1 0v-7.1h.9v6.3h3V0Zm0 0"/>  <path id="e" d="M3.3-5.5H4l-.1 1.1-.3-.3h-.3c-.3 0-.5 0-.8.2l-.5.7-.3 1V0H.8v-5.4h.8v1h.2l.6-.6c.3-.3.6-.5 1-.5Zm0 0"/>  <path id="d" d="M6.7-3.6c0 1.2-.3 2-1 2.6C5-.3 4.1 0 3 0H1v-7.1h2.2c.7 0 1.3.1 1.8.4.6.2 1 .6 1.3 1.1.2.6.4 1.2.4 2Zm-1 0c0-1-.2-1.7-.7-2.1-.4-.4-1-.7-2-.7H2v5.6h.9c1.8 0 2.7-1 2.7-2.8Zm0 0"/>  <path id="c" d="M2.8 0C2 0 1.4 0 1-.5.7-1 .5-1.8.5-2.6c0-1.1.3-1.8.7-2.2.4-.5.8-.7 1.6-.7.4 0 .7.1 1 .3a2 2 0 0 1 .6.5v-2.8h.9V0h-.7l-.1-.7a2 2 0 0 1-.8.6l-.9.1Zm0-.5c.8-.1 1.1-.3 1.4-.6.1-.3.2-.8.2-1.4v-.2c0-.6 0-1.1-.3-1.5-.2-.4-.6-.5-1.2-.5-.5 0-.9.2-1 .5-.4.4-.5 1-.5 1.5.1.7.1 1.2.4 1.5.3.4.6.6 1 .6Zm.1-.1"/>  <path id="b" d="M3-5.5c.3 0 .7.1 1 .3a2 2 0 0 1 1 .9v1.8H1.5c0 .5.1 1 .4 1.4.3.3.7.4 1.3.4H4l.9-.3v.8L4 0a5 5 0 0 1-1 0 3 3 0 0 1-1.2-.1 2.2 2.2 0 0 1-1-1.1c0-.2-.2-.8-.2-1.3-.1-.7 0-1.2.2-1.6.2-.5.5-.9.9-1 .3-.2.7-.4 1.2-.4Zm0 .8c-.6 0-.9.1-1 .4-.4.2-.6.6-.6 1.1h2.8c0-.5-.1-.8-.3-1.1-.2-.3-.5-.4-1-.4Zm0 0"/>  <path id="a" d="M3-7.1c.7 0 1.4.1 2 .5.2.3.4.8.4 1.5.1.4.1.7-.1 1l-.5.5-.7.4 2 3.2H5L3.2-3H1.9v3h-1v-7.1Zm-.2.7h-.9v2.7h1c.6 0 1.1-.1 1.3-.3.3-.3.4-.6.4-1 0-.6-.1-1-.4-1-.3-.4-.7-.5-1.3-.5Zm.1 0"/>  <path d="M1 0v-7.1h4V0Zm.4-.5h3.1v-6.1h-3Zm.1 0"/> </defs> <image xlink:href="svg/9/90_13.jpg" width="497" height="279"/> <path d="M386.5 66c.9 0 1.5 0 2 .4.4.4.5.9.5 1.6.1.3.1.7 0 1l-.6.4-.7.6 2 3h-1.2l-1.6-3h-1.5v3.1h-.9v-7.2zm0 .6h-1v2.8h.9c.7 0 1.1-.1 1.4-.4.2-.2.4-.5.4-1 0-.4-.2-.8-.4-1-.3-.2-.8-.3-1.3-.3zm6.2 1c.5 0 .9.1 1.3.4a2 2 0 0 1 .6.8c.2.2.4.8.4 1.2v.6h-3.8c0 .6.2 1 .5 1.4.3.3.7.4 1.3.4h.9l.8-.4v.8l-.8.3a5 5 0 0 1-1 0 3 3 0 0 1-1.3-.1 2.2 2.2 0 0 1-1-1.1c-.1-.3-.2-.9-.2-1.4l.2-1.5c.2-.5.5-.8.9-1 .3-.2.7-.3 1.2-.3zm0 .7c-.4 0-.8.2-1 .5-.3.2-.4.6-.4 1h2.7c0-.3-.1-.6-.3-.9-.2-.4-.7-.6-1-.6zm5.5 4.9c-.7 0-1.2-.3-1.6-.7-.4-.5-.6-1.2-.6-2 0-1.1.2-1.8.6-2.3.4-.2 1-.6 1.6-.6.4 0 .7.1 1 .4a2 2 0 0 1 .6.4h.2v-2.9h.6V73h-.6v-.6a2 2 0 0 1-.9.5c-.1.2-.5.3-.9.3zm.1-.7c.7 0 1-.2 1.2-.5.2-.3.4-.8.4-1.4v-.2c0-.6-.2-1.2-.4-1.4-.2-.5-.5-.7-1.2-.7-.5 0-.8.2-1 .7-.3.3-.5.8-.5 1.4.1.7.2 1.2.4 1.6.3.3.6.5 1.1.5zm12.6-3.1c0 1.3-.4 2.2-1 2.8-.7.6-1.6.8-2.9.8h-1.9v-7.1h2.2c.8.1 1.4.2 2 .4.3.3.7.7 1 1.2.4.5.7 1.2.7 2zm-1 0c.1-.8-.2-1.5-.7-1.9-.5-.6-1.1-.8-2-.8h-1.1v5.6h.9c1.8 0 2.8-1 2.8-2.8zM414.4 67.6c.5 0 .8.1 1.2.4a2 2 0 0 1 .7.8c.2.2.3.8.3 1.2v.6h-3.7c.1.6.2 1 .5 1.4.3.3.7.4 1.2.4h1l.8-.4v.8l-.8.3a5 5 0 0 1-1 0 3 3 0 0 1-1.3-.1 2.2 2.2 0 0 1-1-1.1c-.1-.3-.3-.9-.3-1.4l.3-1.5.8-1c.4-.2.9-.3 1.3-.3zm0 .7c-.4 0-.8.2-1 .5-.4.2-.4.6-.4 1h2.7c0-.3-.1-.6-.3-.9-.2-.4-.6-.6-1-.6zm5.6-.7c.5 0 1 .1 1.2.4a2 2 0 0 1 .8.8c.2.2.2.8.2 1.2v.6h-3.6c0 .6.1 1 .4 1.4.3.3.8.4 1.3.4h.9l.8-.4v.8l-.8.3a5 5 0 0 1-1 0 3 3 0 0 1-1.2-.1 2.2 2.2 0 0 1-1.1-1.1l-.1-1.4c-.1-.5-.1-1.1.2-1.5.2-.5.4-.8.8-1 .2-.2.8-.3 1.2-.3zm0 .7c-.4 0-.7.2-1 .5-.2.2-.4.6-.4 1h2.7c0-.3 0-.6-.3-.9-.2-.4-.5-.6-1-.6zm6.1-.7h.6v1h-.7c-.2-.2-.5-.2-.7 0-.3.2-.5.4-.6.7l-.2 1V73h-.9v-5.3h.7l.1 1 .8-.7c.2-.3.5-.4.9-.4zm0 0" style="fill:none;stroke:#fff;stroke-width:3;stroke-linecap:butt;stroke-linejoin:round;stroke-miterlimit:10;stroke-opacity:.6" transform=" rotate(  340 406.271 70.0814) "/> <g style="fill:#212121;fill-opacity:1" transform=" rotate(  340 406.271 70.0814) ">  <use xlink:href="#a" x="383.6" y="73.1"/>  <use xlink:href="#b" x="389.8" y="73.1"/>  <use xlink:href="#c" x="395.4" y="73.1"/>  <use xlink:href="#glyph0-4" x="401.6" y="73.1"/>  <use xlink:href="#d" x="404.2" y="73.1"/>  <use xlink:href="#b" x="411.5" y="73.1"/>  <use xlink:href="#b" x="417.1" y="73.1"/>  <use xlink:href="#e" x="422.8" y="73.1"/> </g></svg>