<svg xmlns="http://www.w3.org/2000/svg" xmlns:xlink="http://www.w3.org/1999/xlink" viewBox="0 0 497 279"> <defs overflow="visible" style="stroke:none">  <path id="i" d="M3.3-4.7H2V0H1v-4.7H.3V-5l.7-.4v-.3c0-.7.2-1.2.5-1.5.5-.3.8-.5 1.3-.5l.6.1.6.1-.4.7h-.3L2.8-7c-.2 0-.5 0-.6.4-.2.2-.2.5-.2.9v.3h1.3Zm0 0"/>  <path id="h" d="M1.3-7.4c.1 0 .3 0 .4.2l.1.4-.1.4-.4.2-.4-.3-.1-.3.1-.4.4-.2Zm.4 2V0H.8v-5.4Zm0 0"/>  <path id="g" d="M3.4-5.5c.7 0 1.2.2 1.6.5.2.3.4.8.4 1.5V0h-.9v-3.4c0-.9-.4-1.3-1.2-1.3-.6 0-1 .1-1.2.5-.3.2-.4.8-.4 1.4V0H.8v-5.4h.8v.8h.2c.2-.4.3-.5.7-.7l1-.2Zm0 0"/>  <path id="f" d="M1.7-7.6v4.8L2-3v-.3l.4-.2L4-5.4h1L2.9-3l2.4 3H4.2L2.3-2.5l-.6.5v2H.8v-7.6Zm0 0"/>  <path id="e" d="m5.2 0-.9-3A18 18 0 0 1 4-4.5 34.3 34.3 0 0 1 3.5-3l-1 3h-.9L.2-5.4h.9l.6 2.9A40 40 0 0 1 2-1l.3-.3.1-.5a6 6 0 0 1 .1-.5l1-3h1l.7 2.9.3.8.2.6.3-.6v-1l.8-2.7h1L6.3 0Zm0 0"/>  <path id="d" d="M5.5-2.7c0 .9-.2 1.7-.7 2-.4.7-1 .9-1.8.9-.5-.2-.9-.2-1.3-.4-.3-.2-.6-.6-.7-1C.6-1.6.5-2 .5-2.7c0-.9.3-1.6.7-2 .5-.5 1-.8 1.8-.8.5 0 1 .2 1.3.5.4 0 .7.4.9.9.2.2.3.7.3 1.3Zm-4 0c0 .7 0 1.2.3 1.5.3.4.7.6 1.2.6.6 0 1-.2 1.2-.6.3-.3.4-.8.4-1.5s-.1-1.1-.4-1.5c-.2-.3-.6-.5-1.2-.5-.5 0-1 .2-1.2.5-.2.4-.3.9-.3 1.5Zm0 0"/>  <path id="c" d="M1.7 0H.8v-7.6h1Zm0 0"/>  <path id="b" d="M3-5.5c.3 0 .7.1 1 .3a2 2 0 0 1 1 .9v1.8H1.5c0 .5.1 1 .4 1.4.3.3.7.4 1.3.4H4l.9-.3v.8L4 0a5 5 0 0 1-1 0 3 3 0 0 1-1.2-.1 2.2 2.2 0 0 1-1-1.1c0-.2-.2-.8-.2-1.3-.1-.7 0-1.2.2-1.6.2-.5.5-.9.9-1 .3-.2.7-.4 1.2-.4Zm0 .8c-.6 0-.9.1-1 .4-.4.2-.6.6-.6 1.1h2.8c0-.5-.1-.8-.3-1.1-.2-.3-.5-.4-1-.4Zm0 0"/>  <path id="a" d="m2.8-3.6 1.9-3.5h1L3.3-2.8V0h-1v-2.7L0-7.1h1Zm0 0"/>  <path d="M1 0v-7.1h4V0Zm.4-.5h3.1v-6.1h-3Zm.1 0"/> </defs> <image xlink:href="svg/9/90_27.jpg" width="497" height="279"/> <path d="m270.7 199.3 1.8-3.5h1l-2.4 4.2v3h-.9v-2.8l-2.2-4.4h.9Zm5.3-1.9c.3 0 .7.1 1 .3a2 2 0 0 1 1 .9v1.8h-3.5c0 .6.1 1 .4 1.4.3.2.8.4 1.3.4h.8l.9-.4v.8c-.3.2-.5.4-.8.4a5 5 0 0 1-1 0 3 3 0 0 1-1.3-.2 2.2 2.2 0 0 1-1-1.1l-.1-1.3c-.1-.7-.1-1.2.2-1.6.1-.5.4-.8.8-1 .3-.2.8-.4 1.2-.4Zm0 .8c-.6 0-.9.1-1 .4-.4.2-.6.6-.6 1.1h2.8c0-.5 0-.8-.2-1.1-.3-.3-.6-.4-1-.4Zm4.4 4.7h-.9v-7.6h.9Zm2.6 0h-1v-7.6h1Zm6.3-2.7c0 .9-.2 1.6-.7 2-.4.7-1 .8-1.8.8-.4 0-.8-.1-1.2-.3-.4-.2-.7-.7-1-1l-.1-1.5c-.1-.9.1-1.6.5-2 .5-.5 1-.8 2-.8.3 0 .8.2 1 .4.5.2.8.5 1.1 1l.1 1.3Zm-4 0c0 .6.1 1.2.3 1.5.4.4.7.6 1.4.6.4 0 .8-.3 1-.6.3-.3.4-.9.4-1.5s-.1-1.1-.4-1.5c-.2-.3-.6-.5-1.2-.5-.5 0-.8.2-1.2.5-.2.4-.3.9-.3 1.5Zm9.7 2.7-1-3a18 18 0 0 1-.4-1.5 34.3 34.3 0 0 1-.4 1.6l-1 2.9h-.9l-1.4-5.4h.8l.7 2.9.2.9.2.7.2-.4v-.6a6 6 0 0 1 .2-.4l1-3h.8l1 2.9.1.8.3.7.1-.7.3-1 .7-2.7h1l-1.7 5.4Zm4.3-7.6v4.8l.1-.1.3-.4.2-.2 1.7-1.9h1l-2.1 2.3 2.3 3.2h-1l-2.1-2.6-.4.5v2.1h-.9v-7.7Zm7 2.1c.7 0 1.1.2 1.4.6.4.2.5.7.5 1.4v3.6h-.8v-3.5c0-.9-.4-1.3-1.2-1.3-.6 0-1 .1-1.3.5-.2.3-.3.8-.3 1.3v3h-.9v-5.5h.7l.2.8.7-.7 1-.2Zm4-1.9c.2 0 .3 0 .4.2l.3.3c-.1.3-.1.4-.3.5l-.4.1h-.3l-.2-.6c0-.1 0-.2.2-.3l.3-.2Zm.5 2v5.5h-1v-5.5Zm4.2.7h-1.5v4.8h-.8v-4.8h-1v-.4l1.1-.3v-.3c-.1-.7.2-1.2.4-1.5.3-.3.7-.5 1.3-.5l.5.1.5.1-.2.7h-.4l-.4-.1c-.3 0-.5 0-.7.3l-.2.9v.3h1.3Zm3-.8 1.2.3a2 2 0 0 1 .7.9c.2.4.3.8.3 1.3v.5h-3.7c0 .6.2 1 .5 1.4.3.2.7.4 1.2.4h1l.8-.4v.8l-1 .4a5 5 0 0 1-.8 0 3 3 0 0 1-1.3-.2 2.2 2.2 0 0 1-1-1.1c-.2-.2-.3-.7-.3-1.3 0-.7.1-1.2.4-1.6.1-.5.4-.8.7-1 .4-.2.8-.4 1.3-.4Zm0 .8c-.4 0-.8.1-1 .4-.3.2-.4.6-.4 1.1h2.7c0-.5-.1-.8-.3-1.1-.3-.3-.6-.4-1-.4Zm0 0" style="fill:none;stroke-width:3;stroke-linecap:butt;stroke-linejoin:round;stroke:#fff;stroke-opacity:.6;stroke-miterlimit:10" transform=" rotate(  340 294.046 199.9) "/> <g style="fill:#222;fill-opacity:1" transform=" rotate(  340 294.046 199.9) ">  <use xlink:href="#a" x="267.9" y="202.9"/>  <use xlink:href="#b" x="273" y="202.9"/>  <use xlink:href="#c" x="278.7" y="202.9"/>  <use xlink:href="#c" x="281.2" y="202.9"/>  <use xlink:href="#d" x="283.8" y="202.9"/>  <use xlink:href="#e" x="289.7" y="202.9"/>  <use xlink:href="#f" x="297.5" y="202.9"/>  <use xlink:href="#g" x="302.9" y="202.9"/>  <use xlink:href="#h" x="309.1" y="202.9"/>  <use xlink:href="#i" x="311.6" y="202.9"/>  <use xlink:href="#b" x="315.1" y="202.9"/> </g></svg>