<svg xmlns="http://www.w3.org/2000/svg" xmlns:xlink="http://www.w3.org/1999/xlink" viewBox="0 0 497 279"> <defs overflow="visible" style="stroke:none">  <path id="i" d="M1.9.1.9 0C.4 0 .2-.2 0-.3v-1l.8.4a3 3 0 0 0 1 .2c.5-.1.9-.1 1.2-.3.2-.2.3-.5.3-.8 0-.2-.1-.3-.3-.5a4.7 4.7 0 0 0-.8-.7c-.5-.2-.8-.4-1-.7-.3-.3-.4-.6-.4-1 0-.6.2-1 .6-1.3.4-.4 1-.5 1.6-.5h1A5 5 0 0 1 5-6l-.5.7-.5-.2a3 3 0 0 0-1-.2c-.3 0-.6.1-.8.3l-.3.6c0 .2 0 .4.1.6l.9.5.8.5.5.6.2.6c0 .8-.4 1.3-.7 1.6-.5.4-1 .5-1.8.5Zm0 0"/>  <path id="h" d="M-.2 0v-.6L1-.8l1.4-7-1-.2.3-.6h2.9l-.1.6-1 .3L2-.8l.9.2-.1.6Zm0 0"/>  <path id="g" d="M2.3.1c-.5 0-1-.1-1.2-.5-.4-.4-.5-1-.5-1.7 0-.6 0-1.1.2-1.7a5 5 0 0 1 .6-1.4l1-1c.4-.2.8-.3 1.3-.3s.8 0 1 .3l.8.8v-.8l.2-.8.3-2.1h1.1L5.3 0h-.9l.1-1.2-1 1a2 2 0 0 1-1.2.2Zm.4-.8.8-.3.7-.8.6-1.2.2-1.4c0-.3 0-.6-.3-.9-.2-.2-.5-.4-.9-.4-.3 0-.6.1-.9.4-.2.2-.5.3-.6.8l-.5 1.1L1.7-2c0 .8.3 1.3 1 1.3Zm0-.1"/>  <path id="f" d="m.3 0 2-9.1h1L1.3 0Zm0 0"/>  <path id="e" d="M2.3.1c-.5 0-1-.1-1.2-.5-.4-.4-.5-1-.5-1.7 0-.6 0-1.1.2-1.7l.7-1.4 1-1c.3-.2.8-.3 1.2-.3.5 0 .8 0 1 .3l.8.8.3-1h.8L5.2 0h-.8l.1-1.2-1 1a2 2 0 0 1-1.2.2Zm.4-.8c.3-.1.5-.3.8-.4.3-.2.6-.5.8-.9l.5-1.2.2-.6v-.6c0-.3-.1-.6-.3-.9-.2-.2-.5-.4-.9-.4-.3 0-.6.1-.8.3l-.7.8-.5 1.2L1.7-2c0 .4 0 .7.2 1 .2 0 .4.2.8.2Zm0-.1"/>  <path id="d" d="m.3 0 1.4-6.4h.9l-.2 1.2h.1A9 9 0 0 1 3-6l.6-.4.9-.1H5v1h-.7c-.3-.1-.8-.1-1 .2-.5.4-.7.7-.9 1.1-.2.4-.4.8-.4 1.3L1.4 0Zm0 0"/>  <path id="c" d="M3 .1C2.1.1 1.5 0 1.1-.5.8-1 .6-1.5.6-2.3c0-.5 0-1 .2-1.5.1-.5.4-1 .6-1.4l1-1c.5-.2 1-.3 1.5-.3s.9 0 1.3.3c.3.3.4.7.4 1.2 0 .4-.1.8-.4 1-.2.5-.6.8-1.2 1l-2 .1h-.3v.6c-.1.3-.1.8.3 1.1.2.3.6.4 1 .4h1l.8-.5v1c-.3 0-.6.2-.8.3L3 .1ZM1.7-3.6H2c.4 0 1 0 1.2-.2.4 0 .8-.2 1-.4.3-.2.4-.4.4-.8 0-.2 0-.3-.2-.5l-.7-.2c-.4 0-.7.2-1 .7-.5.2-.7.7-1 1.4Zm.1 0"/>  <path id="b" d="m.3 0 1.4-6.4h.9l-.2 1.2h.1l.5-.6.7-.5a2 2 0 0 1 .9-.2c.4 0 .7 0 1 .3.2.3.4.6.4 1a4 4 0 0 1 .7-.5l.7-.6a2 2 0 0 1 .9-.2c.5 0 .7 0 1.1.4.3.1.4.6.4 1.1v.6l-.1.4-.8 4H7.8l.9-4v-1.4L8-5.7l-1 .3c-.2.2-.4.5-.7 1A5 5 0 0 0 5.7-3l-.6 3h-1l.8-4 .1-.8c0-.3 0-.5-.2-.6 0-.2-.3-.3-.5-.3l-.9.3c-.3.2-.6.5-.8 1-.3.4-.6.9-.6 1.5L1.4 0Zm0 0"/>  <path id="a" d="m.5 0 1.8-8.6h4.3l-.2 1H3.2L2.6-5h3v1H2.5l-.9 3H5l-.2 1Zm0 0"/>  <path d="M1.1 0v-8.6h5V0Zm.6-.6h3.8V-8H1.7Zm0 0"/> </defs> <image xlink:href="svg/9/90_57.jpg" width="497" height="279"/> <path d="m319.8 32.9 1.8-8.6h4.4l-.3 1h-3.1l-.7 2.7h3.1l-.1.9h-3.1l-.8 3h3.4l-.2 1.1Zm6 0 1.4-6.4h.8v1.2l.5-.7.7-.4a2 2 0 0 1 .8-.2c.5 0 .8 0 1 .3l.5 1a4 4 0 0 1 .6-.5l.7-.6a2 2 0 0 1 1-.2c.3 0 .7 0 1 .4.4.2.5.6.5 1.1v.6l-.1.5-.8 3.9h-1.1l.7-4 .2-.5V28c0-.2 0-.4-.2-.5 0-.2-.3-.3-.6-.3l-.8.3c-.3.2-.5.5-.8 1a5 5 0 0 0-.6 1.5l-.6 2.9h-1l.7-4 .2-.9c0-.2 0-.4-.2-.5 0-.2-.3-.3-.6-.3l-.7.3c-.4.2-.7.5-1 1-.2.3-.4.9-.5 1.5l-.6 3Zm13.1.1c-.9 0-1.3-.2-1.7-.6-.4-.5-.6-1-.6-1.8 0-.5 0-1 .2-1.5.1-.5.2-1.1.6-1.4l1-1c.4-.2.9-.3 1.4-.3.6 0 1 0 1.2.3.4.3.6.7.6 1.3 0 .3-.1.7-.4 1-.2.3-.7.6-1.2.8-.6.2-1.3.3-2.1.3h-.2v.5c-.1.4-.1.8.3 1.1.2.3.6.5 1 .5s.8 0 1-.2l.7-.3v.9l-.7.3-1 .1Zm-1-3.7c.5 0 1 0 1.3-.3.4.1.8 0 1-.3.2-.2.4-.4.4-.7l-.2-.6-.7-.2c-.4 0-.7.2-1 .6-.5.2-.7.8-1 1.5Zm4.4 3.6 1.4-6.4h.8v1.2a9 9 0 0 1 .5-.7l.6-.5.8-.1h.7l-.1 1h-.7c-.4-.1-.8-.1-1.1.2l-.8 1.1-.4 1.3-.6 2.9Zm6.5.1c-.5 0-1-.2-1.2-.5-.4-.5-.6-1-.6-1.7 0-.6 0-1.1.3-1.7l.7-1.4 1-1c.3-.2.8-.3 1.2-.3.5 0 .8 0 1 .3l.8.8.3-1h.8l-1.4 6.4h-.7v-1.2l-1 1a2 2 0 0 1-1.2.3Zm.4-.8c.3 0 .6-.2.8-.4.3-.2.6-.5.8-.8l.5-1.3.2-.6v-.6c0-.3-.1-.7-.3-.9-.2-.2-.5-.4-.9-.4-.3 0-.6.1-.8.3l-.7.8-.5 1.2-.1 1.4c0 .4 0 .7.2 1 .2.1.4.2.8.2Zm4.4.7 2-9.1h1l-1.9 9.1Zm5.1.1c-.5 0-.9-.2-1.2-.5-.3-.5-.5-1-.5-1.7 0-.6 0-1.1.2-1.7a5 5 0 0 1 .6-1.4l1-1c.4-.2.9-.3 1.4-.3.4 0 .7 0 1 .3l.6.8.2-.8.1-.8.4-2.1h1l-1.7 9.1h-1.1l.3-1.2-1.1 1a2 2 0 0 1-1.2.3Zm.4-.8c.3 0 .5-.2.8-.3l.8-.9.5-1.1.2-1.4c0-.3 0-.7-.3-.9-.1-.2-.5-.4-.9-.4-.2 0-.6.2-.8.4-.4.2-.5.4-.7.8l-.5 1.1-.1 1.5c-.1.7.3 1.2.9 1.2Zm-27.1 15 .1-.6 1-.2 1.6-6.9-1-.2.1-.6h3v.6l-1.2.2-1.4 6.9 1 .2-.2.6Zm6 .2c-.4 0-.7 0-1-.2-.3 0-.6-.1-.8-.2v-1l.8.4a3 3 0 0 0 1 .1c.4 0 .8-.1 1-.3.4-.2.5-.4.5-.7-.1-.2-.1-.5-.3-.6a4.7 4.7 0 0 0-.8-.6c-.5-.2-.9-.5-1.1-.8-.2-.2-.3-.5-.3-1s.2-1 .6-1.3c.3-.3.9-.5 1.4-.5l1.2.1a5 5 0 0 1 .9.3l-.3.9-.8-.3a3 3 0 0 0-1-.1c-.2 0-.5 0-.7.2l-.3.6c0 .3 0 .4.2.6l.9.6.7.4.5.6.2.8c0 .6-.2 1.1-.7 1.5-.4.3-1 .5-1.8.5Zm3.7-.2 1.9-9h1l-1.8 8.9Zm5.6.2c-.7 0-1.3-.4-1.7-.7-.4-.4-.6-1-.6-1.8 0-.5 0-.9.2-1.5l.8-1.4c0-.4.5-.7.9-1 .4-.1.8-.2 1.3-.2.6-.1 1 0 1.4.2.3.3.4.7.4 1 0 .7-.1 1-.3 1.4-.3.3-.7.6-1.3.8-.4.2-1.2.2-2.1.2h-.2v.6c-.1.4-.1.8.3 1 .3.3.6.5 1.1.5l.9-.1.9-.4v.9l-1 .3-.9.2Zm-1-3.8 1.4-.1 1-.5c.1-.1.3-.4.3-.7 0-.3 0-.4-.2-.5-.1-.2-.3-.2-.6-.2-.4 0-.8.1-1.2.4-.3.4-.6.9-.7 1.6Zm0 0" style="fill:none;stroke-width:2;stroke-linecap:butt;stroke-linejoin:round;stroke:#fff;stroke-opacity:.6;stroke-miterlimit:10" transform=" rotate(  340 340.62 37.0656) "/> <g style="fill:#000;fill-opacity:1" transform=" rotate(  340 340.62 37.0656) ">  <use xlink:href="#a" x="319.3" y="32.9"/>  <use xlink:href="#b" x="325.5" y="32.9"/>  <use xlink:href="#c" x="336" y="32.9"/>  <use xlink:href="#d" x="342" y="32.9"/>  <use xlink:href="#e" x="346.5" y="32.9"/>  <use xlink:href="#f" x="353.3" y="32.9"/>  <use xlink:href="#g" x="356.4" y="32.9"/>  <use xlink:href="#h" x="332.3" y="47.2"/>  <use xlink:href="#i" x="336.1" y="47.2"/>  <use xlink:href="#f" x="341.3" y="47.2"/>  <use xlink:href="#c" x="344.4" y="47.2"/> </g></svg>