<svg xmlns="http://www.w3.org/2000/svg" xmlns:xlink="http://www.w3.org/1999/xlink" viewBox="0 0 497 279"> <defs overflow="visible" style="stroke:none">  <path id="z" d="M2.4 0c-.6 0-1 0-1.4-.3C.6-.8.5-1.3.5-2c0-.3 0-.8.2-1.2 0-.4.3-.8.5-1.1.2-.4.5-.7.8-.8a2 2 0 0 1 1.2-.4c.5 0 .8.2 1.1.5.3 0 .4.4.4.8 0 .3-.1.7-.3 1-.4.2-.6.4-1 .6-.6.2-1.2.3-1.9.3h-.1v.3c0 .5 0 .8.3 1 .2.3.5.4.9.4l.7-.1A5 5 0 0 0 4-1v.7a6 6 0 0 1-.7.3h-.9Zm-.9-3 1.3-.1.7-.4c.2-.1.3-.4.3-.5l-.1-.6-.7-.1c-.2 0-.5.1-.9.4L1.6-3Zm0 0"/>  <path id="y" d="m.3 0 1.6-7.6h.9l-.8 3c.1.6 0 1-.2 1.3l-.1.5 2.5-2.6h1L3-3l1.4 3h-1L2.3-2.5l-.7.5-.4 2Zm0 0"/>  <path id="x" d="M2 0c-.6 0-.9 0-1.2-.3C.6-.7.5-1 .5-1.7c0-.5 0-1 .2-1.5l.5-1.1c.2-.4.5-.7.8-.9a2 2 0 0 1 1.1-.3c.4 0 .6.1.9.3l.5.7.3-.9h.7L4.4 0h-.7l.1-1c-.3.3-.5.6-.9.8-.3.2-.6.2-.9.2Zm.1-.5c.4-.1.6-.2.9-.5l.6-.6a4 4 0 0 0 .4-1 3 3 0 0 0 .1-.7 4 4 0 0 0 0-.4c.1-.3.1-.5-.1-.7-.3-.2-.5-.3-.8-.3-.3 0-.5 0-.7.2a2 2 0 0 0-.6.7l-.4 1-.1 1.1c0 .4 0 .6.2.8.1.2.3.3.6.3Zm.1-.1"/>  <path id="w" d="M.4 0 2-7.1h1L1.4-.8h2.8L4 0Zm0 0"/>  <path id="v" d="M-.3 2.4h-.3l-.4-.1v-.7h.7c.3.1.5.1.7-.1.2-.2.4-.5.5-.8l.4-.6-.8-5.5h.9l.3 2.7v.7l.2.7v.6A28.4 28.4 0 0 1 2.5-2c-.1 0 .1-.3.2-.4l1.5-3h1L1.7 1c-.1.4-.4.8-.7 1-.4.3-.8.4-1.2.4Zm0 0"/>  <path id="u" d="M.8 0 .6-5.4h.8l.1 2.9v1.7a13.8 13.8 0 0 1 .5-1l.2-.5 1.4-3h1v2.7a25.5 25.5 0 0 1 .2 1.8l.3-.9.4-1 1.2-2.7h1L5 0h-.9l-.2-3v-1.4l-.3.6-.4.8-1.4 3Zm0 0"/>  <path id="t" d="M1.8 0c-.3 0-.6 0-.8-.1C.7-.3.6-.6.6-1v-.8l.8-2.9h-1L.5-5l1-.5.5-1h.6l-.3 1h1.3l-.1.8H2.2l-.7 3v.8l.5.3h.3l.4-.3V0h-.9Zm0 0"/>  <path id="s" d="m.2 0 1.2-5.4h.8l-.2 1 .5-.6a2 2 0 0 1 .6-.3l.9-.2c.3 0 .6.1.9.5.1 0 .4.4.4.9v.4l-.2.5L4.4 0h-.9l.7-3.4v-.4l.2-.2c-.1-.5-.3-.7-.8-.7-.2 0-.4 0-.6.2-.3.2-.6.5-.8.8-.2.3-.4.8-.5 1.4L1.2 0Zm0 0"/>  <path id="r" d="M2.5 0C1.9 0 1.4 0 1-.4.7-.8.5-1.3.5-2l.1-1.2a4 4 0 0 1 .5-1.1c.3-.3.5-.7.9-.8.3-.2.7-.3 1.2-.3.6 0 1 .2 1.4.4.4.5.6 1.1.6 1.6L5-2a4 4 0 0 1-.5.9c-.2.5-.5.8-.8 1L2.5 0Zm0-.6c.5-.1.6-.1 1-.4.1-.2.3-.5.5-1 .2-.3.3-.8.3-1.4L4.2-4a1 1 0 0 0-.4-.5l-.6-.2c-.4 0-.7.1-1 .4-.2.2-.5.6-.6 1A4 4 0 0 0 1.4-2c0 .5 0 .8.3 1 .2.2.5.3.8.3Zm0-.1"/>  <path id="q" d="M3.3 0c-.8 0-1.5 0-2-.5C1-1.1.8-1.8.8-2.6.7-3.1.7-3.5 1-4c-.1-.4 0-.8.3-1.2l.8-1L3-7l1.7-.2c.5 0 1.1.1 1.6.4l-.3.7a4 4 0 0 0-.7-.2l-.7-.2c-.6 0-1 .2-1.3.5-.4 0-.7.4-1 .8A4 4 0 0 0 1.9-4l-.2 1.3c0 .7.1 1.1.3 1.5.4.3 1 .5 1.4.5h.8L5-1v.8l-.8.2a5 5 0 0 1-1 0Zm0 0"/>  <path d="M1 0v-7.1h4V0Zm.4-.5h3.1v-6.1h-3Zm.1 0"/>  <path id="p" d="M2.3.2 1 0C.7 0 .4-.2 0-.4v-1.2L1-1a4 4 0 0 0 1.4 0c.5 0 .9-.1 1.2-.3.4-.2.5-.5.5-.9-.1-.3-.1-.5-.3-.7l-1-.7-1.4-1C1.2-5 1-5.4 1-6c0-.6.3-1.1.8-1.6.3-.4 1.1-.6 2-.6.4 0 .9 0 1.2.2.5 0 1 .2 1.1.4l-.2 1a7.4 7.4 0 0 0-1.1-.3 3.8 3.8 0 0 0-.9-.2c-.6.1-.9.1-1.1.3-.4.2-.6.5-.6.8.1.3.2.5.4.7l1 .7a9 9 0 0 1 1.1.6l.5.7c.2.3.2.6.2 1 0 .8-.2 1.3-.8 1.8C4 0 3.3.2 2.3.2Zm0 0"/>  <path id="o" d="M2.9.2c-.6 0-1.2-.3-1.6-.7C1-1 .7-1.7.7-2.5s.1-1.7.3-2.3a6.3 6.3 0 0 1 .8-1.7 4 4 0 0 1 1.3-1.2 3 3 0 0 1 1.6-.5c.5 0 1 .2 1.3.4l.7 1L7.3-8h1L6.5 0h-1l.2-1.5A6 6 0 0 1 4.3-.3C4 0 3.4.2 3 .2ZM3.3-1c.4 0 .8-.1 1.1-.3a4 4 0 0 0 1-1.1 6 6 0 0 0 .8-2.4v-.7c0-.4-.1-.8-.4-1.1-.2-.4-.6-.5-1-.5s-.7.1-1 .4c-.5.2-.8.6-1.1 1l-.4 1.5c-.3.4-.3.9-.3 1.6 0 .6 0 1 .4 1.3.2.2.5.3 1 .3Zm0 0"/>  <path id="n" d="M2.9.2c-.6 0-1.2-.3-1.6-.7C1-1 .7-1.7.7-2.5A8 8 0 0 1 1-4.8a6.4 6.4 0 0 1 .8-1.7c.2-.5.7-1 1.2-1.2a3 3 0 0 1 1.7-.5c.5 0 1 .2 1.3.4l.7 1a150.6 150.6 0 0 0 .5-2l.5-2.6H9L6.5 0h-1l.1-1.5L4.4-.3c-.5.3-1 .5-1.5.5ZM3.3-1c.4 0 .7-.1 1-.3l1-1c.3-.4.5-1 .7-1.5a5.5 5.5 0 0 0 .3-1.7c0-.4-.3-.8-.5-1.1-.1-.4-.5-.5-1.1-.5-.2.1-.7.2-.9.4l-1 1-.5 1.5c-.3.5-.3 1-.3 1.6 0 1.1.5 1.7 1.3 1.7Zm0 0"/>  <path id="m" d="M3.6.2C2.7.2 2-.1 1.5-.7 1-1.2.7-1.9.7-2.9a6.6 6.6 0 0 1 1.1-3.6c.3-.5.8-1 1.3-1.2a3 3 0 0 1 1.6-.5c.8 0 1.4.2 1.8.5.3.3.5.8.5 1.4 0 .5 0 1-.5 1.3-.3.5-.8 1-1.5 1.1-.7.3-1.6.4-2.7.4h-.2v.6c-.1.6.1.9.4 1.4.3.5.8.6 1.4.6.4-.1.7-.1 1-.2l1.2-.5v1.2L4.9 0 3.6.2ZM2.3-4.5 4-4.7c.6-.1 1-.3 1.3-.5.3-.3.5-.6.5-1 0-.3-.1-.5-.3-.6-.2-.2-.5-.3-.8-.3-.5.1-1 .2-1.4.7-.5.4-.8 1-1 1.9Zm0 0"/>  <path id="l" d="M1.2 0 .9-8H2l.3 4.3v1.4l-.1 1a21 21 0 0 1 1.1-2.2L5.4-8h1.4L7-3.7v2.5h.1A47.7 47.7 0 0 1 8.3-4L10-8h1.4L7.7 0H6v-6.8a21.2 21.2 0 0 1-1.2 2.3L2.6 0Zm0 0"/>  <path id="k" d="M3.7.1c-1 0-1.6-.1-2.2-.8C1-1.3.7-2 .7-3L1-4.8a5.9 5.9 0 0 1 .7-1.7A4 4 0 0 1 3-7.7C3.5-8 4-8 4.7-8c1-.1 1.7 0 2.3.7.5.5.7 1.3.7 2.3 0 .6 0 1.2-.2 1.8a5.5 5.5 0 0 1-.8 1.7C6.4-1 6-.6 5.5-.3 5 0 4.4 0 3.7 0Zm.1-1c.5-.1 1-.3 1.3-.7.4-.2.7-.7.9-1.3a6.4 6.4 0 0 0 .3-2.3c.1-.3.1-.6-.1-.8a1.5 1.5 0 0 0-.5-.8c-.2-.2-.5-.2-1-.2a2 2 0 0 0-1.3.5C3-6 2.6-5.6 2.3-5a6.2 6.2 0 0 0-.1 2c-.2.8 0 1.3.3 1.6.3.4.7.4 1.3.4Zm0-.1"/>  <path id="j" d="m.4-3.4.3-1.2h3.5l-.3 1.2Zm0 0"/>  <path id="i" d="M3.2-9.4c-.2 0-.4 0-.5-.2-.2 0-.2-.3-.2-.4s0-.6.2-.8l.7-.2c.4 0 .6.2.6.6 0 .4 0 .6-.2.8l-.6.2ZM.4 0l1.7-8h1.4L1.7 0Zm0 0"/>  <path id="h" d="M.4 0 2-8h1.2l-.1 1.3a7 7 0 0 1 .7-.6c.2-.3.5-.5.9-.7l1.1-.2c.7 0 1.2.1 1.5.5.4.4.7.9.7 1.5v.7l-.4.6L6.7 0H5.2l1.1-5a9 9 0 0 0 .1-.7v-.4c.1-.6-.2-.9-.9-.9-.3 0-.6.2-1 .4s-.9.6-1.1 1c-.4.6-.8 1.3-1 2.1L1.8 0Zm0 0"/>  <path id="g" d="m-.3 0 .1-.7L1.1-1 3-9.7 1.8-10l.2-.7h3.7l-.1.7-1.3.3L2.4-1l1.2.3-.1.7Zm0 0"/>  <path id="f" d="M2.8.2c-.6 0-1-.2-1.4-.4C1-.5 1-1 1-1.6a5 5 0 0 1-.1-1L2-7H.7v-.6l1.5-.6.9-1.7h.7L3.4-8h2l-.1 1h-2l-1 4.3v.5l-.2.5c.1.1.1.3.3.4 0 .3.3.4.6.4h.5l.5-.3v1.1l-.5.1a3 3 0 0 1-.7 0Zm0 0"/>  <path id="e" d="m.4 0 2.4-11.4h1.4L3.2-7a35.4 35.4 0 0 1-.7 2.8L6.3-8H8L4.4-4.6 6.6 0H5L3.4-3.8l-1 .9L1.6 0Zm0 0"/>  <path id="d" d="m.4 0 2.4-11.4h1.4L1.7 0Zm0 0"/>  <path id="c" d="m2.8 3.6-1.4-.1-1-.5V1.9l1 .4 1.4.2c.6 0 1-.2 1.5-.5.4-.2.7-.7.7-1.4l.3-.6a21.2 21.2 0 0 1 .2-1.5L4.4-.3C4 0 3.4.2 3 .2c-.7 0-1.3-.3-1.7-.7C1-1 .7-1.7.7-2.5A8 8 0 0 1 1-4.8a6.3 6.3 0 0 1 .8-1.7A4 4 0 0 1 3-7.7a3 3 0 0 1 1.7-.5c.5 0 1 .2 1.3.4l.7 1L7.4-8h.9L6.4.5c-.2 1-.6 1.9-1.2 2.4-.7.5-1.4.7-2.4.7ZM3.3-1c.4 0 .7-.1 1-.3l1.1-1L6-3.8a5.7 5.7 0 0 0 .2-1.7c0-.4 0-.8-.2-1.1-.3-.4-.7-.5-1.2-.5-.4.1-.8.2-1.1.4l-.9 1-.5 1.5c-.3.5-.3 1-.3 1.6 0 1.1.5 1.7 1.3 1.7Zm0 0"/>  <path id="b" d="M2.8.2c-.6 0-1-.2-1.4-.6C1-.7.8-1.2.8-1.8v-.7l.2-.6 1-5h1.4L2.3-3a5 5 0 0 0-.1 1c0 .3 0 .6.2.8.2.2.4.2.8.2.3 0 .7-.1 1.1-.3.4-.2.8-.6 1.1-1.2.3-.5.6-1.2.8-2L6.9-8h1.3L6.5 0h-1l.1-1.5a8 8 0 0 1-.8.8L4-.1c-.3.2-.7.3-1.2.3Zm0 0"/>  <path id="a" d="M.6 0 3-10.7h1.2l-1 5.2.8-1 4.1-4.2h1.7L5-6l2.7 6H6.2L4-5.2l-1.2 1L2 0Zm0 0"/>  <path d="M1.4 0v-10.7h6.2V0Zm.8-.8h4.6v-9.1H2.2Zm0 0"/> </defs> <image xlink:href="svg/9/91_32.jpg" width="497" height="279"/> <path d="m217.8 89.1 2.3-10.7h1.3l-1 5.2.7-1 4.2-4.2h1.7l-4.7 4.7 2.7 6h-1.6l-2.1-5.1-1.3 1-.8 4Zm10.7.2c-.6 0-1.1-.3-1.5-.5-.4-.4-.5-.9-.5-1.5v-.7l.1-.6 1-5h1.4l-1 5.2a5 5 0 0 0-.3.9c.1.4.1.6.3.9.2.1.5.2.8.2.4 0 .7-.2 1.2-.4.3-.2.7-.6 1-1.1.4-.7.6-1.3.8-2.2l.8-3.4h1.3l-1.7 7.9H231l.3-1.4h-.1a8 8 0 0 1-.7.8c-.2.2-.5.5-.9.6-.3.2-.6.3-1.1.3Zm8.6 3.4-1.3-.1-1.1-.4V91c.2.2.6.3 1 .4.5.2 1 .2 1.4.2.6 0 .9-.1 1.5-.4.4-.3.7-.8.8-1.5l.2-.7a21.2 21.2 0 0 1 .3-1.4c-.4.5-.7.9-1.2 1.2-.4.2-1 .5-1.5.5-.6 0-1.2-.3-1.6-.7-.4-.6-.6-1.2-.6-2a8 8 0 0 1 .3-2.3 6.3 6.3 0 0 1 .8-1.7 4 4 0 0 1 1.2-1.2 3 3 0 0 1 1.7-.5c.5.1 1 .2 1.3.5.3.2.6.6.7 1l.7-1.4h.9l-1.8 8.6c-.4 1.1-.8 2-1.4 2.4-.5.5-1.4.7-2.4.7Zm.6-4.5c.3 0 .6-.2 1-.4l1-1 .5-1.5a5.7 5.7 0 0 0 .3-1.6c0-.5 0-1-.3-1.2-.2-.3-.6-.5-1.1-.5-.4 0-.8.2-1.1.4l-1 1-.4 1.6c-.2.4-.2 1-.2 1.6 0 1 .4 1.6 1.3 1.6Zm5.7.9 2.4-11.4h1.4l-2.5 11.4Zm6.3.2c-.6 0-1-.3-1.5-.5-.2-.4-.5-.9-.5-1.5v-.7l.3-.6.9-5h1.3l-1 5.2a5 5 0 0 0-.2.9c0 .4.1.6.3.9.1.1.4.2.7.2.4 0 .8-.2 1-.4.7-.2 1-.6 1.4-1.1.2-.7.5-1.3.6-2.2l.8-3.4h1.3l-1.7 7.9h-1v-1.4a8 8 0 0 1-.7.8c-.2.2-.5.5-.7.6l-1.3.3Zm6.3-.2 2.4-11.4h1.3l-1 4.5a35.4 35.4 0 0 1-.7 2.8l4-4h1.4l-3.4 3.6 2 4.5h-1.3l-1.7-3.7-1.1.8-.6 3Zm9.8.2c-.6 0-1-.3-1.4-.4-.4-.3-.6-.7-.6-1.4a5 5 0 0 1 .2-1l.9-4.5h-1.3l.2-.5 1.2-.6 1.1-1.7h.6l-.3 1.9h2l-.2.9h-2l-1 4.5v1.4l.8.3h.5l.5-.2v1l-.5.2a3 3 0 0 1-.7 0Zm5 0c-.6 0-1.1-.3-1.5-.5-.3-.4-.5-.9-.5-1.5v-.7l.2-.6 1-5h1.3l-1 5.2a5 5 0 0 0-.3.9c.1.4.2.6.4.9.1.1.4.2.8.2.3 0 .7-.2 1-.4.6-.2.8-.6 1.3-1.1.2-.7.5-1.3.7-2.2l.7-3.4h1.3l-1.7 7.9h-1v-1.4a8 8 0 0 1-.7.8c-.2.2-.5.5-.8.6l-1.2.3Zm6.2-.2 2.6-11.4h1.2l-1 4.5a35.4 35.4 0 0 1-.7 2.8l3.9-4h1.5l-3.4 3.6 2.1 4.5h-1.4l-1.8-3.7-1 .8-.6 3ZM210.5 107l.2-.7 1.2-.3 1.9-8.6-1.2-.4.2-.7h3.7l-.1.8-1.4.3-1.7 8.6 1.1.3-.1.7Zm5.5 0 1.8-8h1.1l-.1 1.4a7 7 0 0 1 .6-.7c.3-.3.6-.5 1-.7.2-.1.6-.2 1-.2.8 0 1.3.2 1.6.5.4.4.6.9.6 1.5v.7l-.3.7-.9 4.8h-1.6l1.2-5a9 9 0 0 0 .1-.6v-.4c.1-.7-.2-1-.9-1l-1.1.3c-.4.3-.8.7-1.1 1.2-.3.5-.6 1.2-.8 2l-.8 3.5Zm11.2.2c-.6 0-1-.2-1.5-.5-.3-.4-.5-.9-.5-1.5v-.7l.2-.5 1-5.1h1.3l-1 5.1a5 5 0 0 0-.2 1c0 .4.1.6.3.8.1.2.4.3.8.3.3-.1.7-.1 1-.4.6-.2.9-.6 1.3-1.1l.7-2.1.7-3.5h1.3l-1.6 8h-1v-1.5a8 8 0 0 1-.8.8c-.2.2-.5.5-.8.6l-1.2.3Zm9-9.5-.5-.2-.2-.5c0-.3.1-.5.3-.7.1-.3.2-.3.6-.3.6 0 .7.2.7.7 0 .3 0 .5-.3.7-.1.2-.3.3-.6.3Zm-2.7 9.3 1.7-8h1.3l-1.7 8Zm6.2.2c-.5 0-1-.2-1.4-.4-.3-.3-.5-.7-.5-1.4a5 5 0 0 1 .1-1l1.1-4.4h-1.5l.2-.6 1.3-.6 1-1.6h.8l-.4 1.8h2l-.2 1h-2l-1 4.4v.4l-.2.5c0 .2 0 .4.3.6l.6.1h.5l.6-.2v1.2l-.6.1a3 3 0 0 1-.7-.1Zm2.6-3.6.3-1.2h3.4l-.2 1.2Zm8 3.6c-1 0-1.6-.3-2.2-.9-.5-.5-.8-1.3-.8-2.2 0-.7.1-1.3.3-1.9a5.9 5.9 0 0 1 .7-1.7 4 4 0 0 1 1.3-1.2c.4-.3 1-.3 1.7-.3 1-.1 1.7.2 2.2.7.6.6.8 1.3.8 2.3 0 .6 0 1.2-.2 1.8a5.5 5.5 0 0 1-.8 1.7c-.3.5-.7.9-1.2 1.2-.5.3-1.1.5-1.8.5Zm0-1.2c.7 0 1.1-.1 1.5-.4.2-.4.6-.9.9-1.6a6.4 6.4 0 0 0 .3-2.2c0-.3 0-.5-.2-.8a1.5 1.5 0 0 0-.5-.7c-.2-.3-.5-.3-1-.3a2 2 0 0 0-1.3.5c-.5.5-.8 1-1 1.5a6.2 6.2 0 0 0-.2 2.1c-.1.6 0 1.1.2 1.4.4.5.8.6 1.4.6ZM256 107l-.5-8h1.4l.1 4.3v2.5a21 21 0 0 1 1-2.2l2-4.6h1.5l.3 4.3v2.6a47.7 47.7 0 0 1 1.2-3l1.8-3.9h1.4l-3.8 8H261l-.4-4.3v-2.4a21.2 21.2 0 0 1-1 2.2l-2.1 4.5Zm10 0 1.6-8h1.2l-.1 1.4a7 7 0 0 1 .7-.7c.2-.3.5-.5.8-.7l1.2-.2c.7 0 1.2.2 1.5.5.4.4.6.9.6 1.5v.7l-.3.7-.9 4.8h-1.6l1.3-5a9 9 0 0 0 0-.6v-.4c0-.7-.2-1-1-1l-1 .3c-.4.3-.8.7-1.1 1.2-.3.5-.6 1.2-.8 2l-.7 3.5Zm11.9.2c-1 0-1.6-.3-2.2-.8-.5-.6-.7-1.4-.7-2.2a6.6 6.6 0 0 1 1-3.7c.5-.5.9-.9 1.4-1.2a3 3 0 0 1 1.6-.5c.8 0 1.3.2 1.7.5.4.4.6.8.6 1.4 0 .5-.2 1-.5 1.4-.3.5-.8.9-1.5 1-.7.4-1.6.5-2.7.5h-.2v.5c-.1.6-.1 1.1.3 1.5.3.3.8.4 1.3.4s1 0 1.2-.1c.4.1.8-.2 1.1-.4v1l-1 .5-1.5.2Zm-1.3-4.7c.8 0 1.3 0 1.8-.2.4 0 .9-.2 1.2-.5.3-.2.4-.6.4-1 0-.2 0-.4-.2-.6-.2-.2-.5-.3-.9-.3s-.9.3-1.4.7c-.4.4-.7 1-1 1.9Zm8 4.7c-.6 0-1.1-.2-1.5-.7-.4-.5-.6-1.2-.6-2a8 8 0 0 1 .2-2.3 6.4 6.4 0 0 1 .8-1.7c.5-.5.8-.9 1.3-1.2a3 3 0 0 1 1.6-.3c.6-.1 1 0 1.3.3.3.3.6.6.7 1h.1a150.5 150.5 0 0 0 .5-2.1l.4-2.7h1.3l-2.4 11.5h-1v-1.5c-.3.5-.7.9-1.2 1.2-.4.3-.9.5-1.5.5Zm.5-1.2c.3 0 .7 0 1-.3l1-1c.2-.4.5-.9.6-1.4a5.5 5.5 0 0 0 .3-1.7c0-.6 0-.9-.4-1.2-.2-.3-.6-.4-1-.4-.6 0-1 0-1.3.3l-.7 1-.6 1.6-.2 1.6c0 1 .4 1.5 1.3 1.5ZM233 125l2.2-11.6h1.5l-2.5 11.6Zm6.3 0c-.7 0-1.3 0-1.6-.5-.4-.6-.6-1.3-.6-2.1s.1-1.6.3-2.3a6.3 6.3 0 0 1 .8-1.7 4 4 0 0 1 1.3-1.2 3 3 0 0 1 1.5-.5c.6.1 1 .3 1.3.6.4.2.7.5.8.9l.5-1.4h1l-1.6 8.1h-1v-1.4a6 6 0 0 1-1.3 1.1c-.4.4-.9.5-1.4.5Zm.4-1c.4 0 .7-.1 1.1-.4a4 4 0 0 0 1-1.1 6 6 0 0 0 .8-2.3v-.7c0-.5-.1-.9-.4-1.2-.2-.3-.6-.3-1-.3s-.8-.1-1.2.2l-.8 1-.6 1.5-.2 1.7c0 .5.2 1 .4 1.2.2.3.5.4 1 .4Zm5.6 1 1.7-8.2h1.2l-.2 1.5a7 7 0 0 1 .7-.7c.2-.3.5-.6.9-.6.3-.2.7-.3 1.1-.3.7 0 1.3.2 1.5.5.4.4.6.9.6 1.5v.7l-.3.7-.9 4.8h-1.4l1-4.9a9 9 0 0 0 .1-.7v-.3c.1-.8-.3-1.1-.9-1.1l-1 .3c-.5.3-.9.8-1.1 1.3-.5.4-.8 1.1-1 1.9l-.6 3.6Zm11.2 0c-.7 0-1.2 0-1.6-.5-.4-.5-.6-1.3-.6-2.1a8 8 0 0 1 .3-2.3 6.4 6.4 0 0 1 .8-1.6c.3-.6.6-1 1.2-1.3a3 3 0 0 1 1.7-.4c.5 0 1 .1 1.2.4.5.3.6.6.8 1a150.5 150.5 0 0 0 .5-2.1l.4-2.6h1.3l-2.4 11.5h-1v-1.5l-1.1 1.1c-.5.4-1 .5-1.5.5Zm.4-1c.4 0 .7-.1 1.1-.4.3-.2.6-.6 1-1l.6-1.4a5.5 5.5 0 0 0 .2-1.7c0-.5 0-.9-.3-1.2-.3-.3-.6-.3-1.2-.3-.3-.1-.7-.1-1 .2-.4.3-.7.6-.9 1.1l-.6 1.5-.2 1.6c0 1 .5 1.6 1.4 1.6ZM264.6 125h-1.3l-1-.5v-1.1l1.1.4a4 4 0 0 0 1.2.2c.4 0 1-.1 1.3-.3.3-.3.5-.7.5-1 0-.2-.1-.4-.4-.7l-1-.7c-.7-.3-1-.7-1.4-1-.2-.3-.3-.8-.3-1.3 0-.7.2-1.2.7-1.6.5-.4 1.2-.7 2-.7l1.4.3 1 .3-.4 1a7.4 7.4 0 0 0-.8-.3 3.8 3.8 0 0 0-1.2 0c-.4-.1-.8-.1-1 .2-.3.2-.4.4-.4.8l.4.6.9.8a9 9 0 0 1 1.1.6l.5.7.2 1c0 .6-.3 1.3-.7 1.7-.7.5-1.5.6-2.4.6Zm0 0" style="fill:none;stroke-width:2;stroke-linecap:butt;stroke-linejoin:round;stroke:#fff;stroke-opacity:.6;stroke-miterlimit:10" transform=" rotate(  340 250.231 104.029) "/> <g style="fill:#82643a;fill-opacity:1" transform=" rotate(  340 250.231 104.029) ">  <use xlink:href="#a" x="217.2" y="89.1"/>  <use xlink:href="#b" x="225.6" y="89.1"/>  <use xlink:href="#c" x="234.3" y="89.1"/>  <use xlink:href="#d" x="243" y="89.1"/>  <use xlink:href="#b" x="246.9" y="89.1"/>  <use xlink:href="#e" x="255.6" y="89.1"/>  <use xlink:href="#f" x="263" y="89.1"/>  <use xlink:href="#b" x="268" y="89.1"/>  <use xlink:href="#e" x="276.6" y="89.1"/>  <use xlink:href="#g" x="210.8" y="107"/>  <use xlink:href="#h" x="215.7" y="107"/>  <use xlink:href="#b" x="224.4" y="107"/>  <use xlink:href="#i" x="233.1" y="107"/>  <use xlink:href="#f" x="236.9" y="107"/>  <use xlink:href="#j" x="241.9" y="107"/>  <use xlink:href="#k" x="246.6" y="107"/>  <use xlink:href="#l" x="254.7" y="107"/>  <use xlink:href="#h" x="265.6" y="107"/>  <use xlink:href="#m" x="274.3" y="107"/>  <use xlink:href="#n" x="281.8" y="107"/>  <use xlink:href="#d" x="232.5" y="124.9"/>  <use xlink:href="#o" x="236.4" y="124.9"/>  <use xlink:href="#h" x="244.9" y="124.9"/>  <use xlink:href="#n" x="253.6" y="124.9"/>  <use xlink:href="#p" x="262.3" y="124.9"/> </g> <path d="M405.8 32.5c-.8 0-1.4-.2-1.8-.7-.5-.5-.7-1.2-.7-2l.1-1.3.6-1.3.6-1 1.1-.8 1.4-.2c.7 0 1.3.1 1.9.4l-.5.7a4 4 0 0 0-.6-.2l-.9-.1c-.4 0-.8 0-1.2.3l-.8.9a4 4 0 0 0-.6 1.2l-.2 1.4c0 .6.2 1 .5 1.4.3.4.7.5 1.3.5h.8l.8-.4v.9l-.8.2a5 5 0 0 1-1 .1Zm5.2 0c-.8 0-1.3-.2-1.7-.6-.2-.3-.3-.8-.3-1.5 0-.4 0-.8.1-1.2a4 4 0 0 1 .5-1.1l.8-.8c.4-.3.7-.3 1.2-.3.6 0 1 .2 1.4.5.4.5.6 1 .6 1.6 0 .4 0 .8-.2 1.2a4 4 0 0 1-.4 1c-.3.5-.6.7-.9 1-.4.1-.7.2-1.2.2Zm0-.7c.3 0 .6-.2.8-.4.3-.2.5-.4.7-1l.2-1.4-.1-.6a1 1 0 0 0-.4-.5l-.6-.2c-.4 0-.7.1-1 .4l-.6.9a4 4 0 0 0-.2 1.5c0 .4 0 .7.3 1 .2 0 .5.2.9.2Zm3.3.6 1.1-5.4h.8v1c-.1-.2.1-.3.3-.5a2 2 0 0 1 .7-.4l.7-.2c.5.1.8.1 1.1.4.2.2.3.5.3 1v.9l-.9 3.2h-.9l.9-3.4v-.6c0-.5-.2-.7-.6-.7-.3 0-.6.1-.8.3-.3 0-.5.4-.7.7-.3.4-.4.8-.6 1.4l-.5 2.3Zm7.4.1c-.4 0-.7 0-1-.2-.1-.3-.2-.5-.2-1v-.7l.6-2.9h-.8v-.4l1.1-.3.5-1h.5l-.3 1h1.4l-.2.7H422l-.6 3v.1l-.2.4.2.4.4.2h.4l.3-.1v.6l-.3.1-.5.1Zm2.3-.1-.3-5.3h.9v4.5a13.8 13.8 0 0 1 .6-1l.1-.6 1.4-3h1l.1 2.9a25.5 25.5 0 0 1 0 1.7c.2-.2.4-.5.5-.9l.4-1 1.1-2.7h1l-2.5 5.4h-1l-.3-2.9v-1.6c-.2.1-.3.5-.3.7l-.3.8-1.4 3Zm8.9.1c-.6 0-1.1-.2-1.5-.6-.3-.3-.4-.8-.4-1.5v-1.2a4 4 0 0 1 .5-1.1c.3-.3.5-.6.9-.8.3-.3.6-.3 1.1-.3.7 0 1.2.2 1.5.5.4.5.5 1 .5 1.6l-.1 1.2a4 4 0 0 1-.5 1c-.2.5-.5.7-.9 1-.3.1-.7.2-1 .2Zm0-.7c.3 0 .6-.2.9-.4.3-.2.5-.4.6-1 .2-.4.3-.8.3-1.4 0-.3 0-.4-.2-.6a1 1 0 0 0-.3-.5l-.6-.2c-.4 0-.7.1-1 .4-.3.2-.5.6-.6.9a4 4 0 0 0-.2 1.5c0 .4 0 .7.2 1 .3 0 .6.2.9.2Zm2.7 3h-.7V34h.3l.3.2c.3-.1.5-.1.7-.4l.6-.7.2-.6-.7-5.5h.9l.3 2.7.1.7v1.3h.2a28.4 28.4 0 0 1 .4-1.1c0-.3.2-.6.3-.6l1.5-3h1l-3.4 6.4c-.3.4-.6.8-.9 1-.3.3-.7.4-1.1.4Zm6.7-2.3c-.3 0-.6 0-.9-.2-.2-.3-.3-.5-.3-1v-.7l.7-2.9h-.9l.1-.4 1-.3.4-1h.7l-.3 1h1.2v.7h-1.4l-.6 3v.8l.6.3h.2l.4-.1v.6l-.4.1-.5.1Zm4 0c-.6 0-1.1-.2-1.5-.6-.3-.3-.5-.8-.5-1.5 0-.4 0-.8.2-1.2a4 4 0 0 1 .5-1.1l.8-.8c.3-.3.7-.3 1.2-.3.6 0 1 .2 1.4.5.4.5.6 1 .6 1.6 0 .4 0 .8-.2 1.2a4 4 0 0 1-.5 1c-.2.5-.5.7-.8 1l-1.2.2Zm0-.7c.4 0 .7-.2 1-.4.1-.2.3-.4.4-1 .3-.4.4-.8.4-1.4l-.1-.6a1 1 0 0 0-.4-.5l-.6-.2c-.4 0-.7.1-1 .4l-.6.9a4 4 0 0 0-.2 1.5c0 .4 0 .7.3 1 .2 0 .5.2.8.2Zm-30 12.6 1.5-7.2h1l-1.5 6.4h2.7l-.1.8Zm6.3 0c-.4 0-.8-.1-1-.4-.3-.3-.4-.8-.4-1.4l.1-1.4.7-1.2.7-.8a2 2 0 0 1 1-.3c.5 0 .8 0 1.1.3l.2.6.6-.8h.6l-1.2 5.4h-.7l.2-1-1 .6c-.2.3-.5.4-.9.4Zm.4-.7s.4 0 .6-.2l.7-.8a4 4 0 0 0 .4-1 3 3 0 0 0 .1-.5 4 4 0 0 0 0-.5c0-.3 0-.6-.2-.8-.2-.2-.4-.3-.7-.3-.3 0-.5.1-.7.4a2 2 0 0 0-.6.6c-.2.2-.3.6-.4 1l-.2.9c0 .5 0 .8.3 1l.6.2Zm3.6.7 1.6-7.6h1l-.8 3-.2 1.2-.2.6 2.6-2.6h1l-2.3 2.3 1.4 3h-1l-.9-2.4-1 .5-.3 2Zm6.9 0c-.5 0-1-.1-1.4-.4-.3-.4-.5-.9-.5-1.6 0-.4 0-.8.2-1.2 0-.5.2-.8.5-1.2.2-.3.5-.6.9-.8a2 2 0 0 1 1-.2c.7-.1 1.1 0 1.3.2.2.2.3.6.3 1l-.3.8c-.2.4-.6.6-1 .8-.5.2-1.2.2-1.9.2h-.1v.4c0 .4 0 .7.3 1 .2.2.5.3.9.3h.7a5 5 0 0 0 .8-.5v.9a6 6 0 0 1-.8.2l-.9.1Zm-.9-3h.1l1-.3c.5.1.8-.1 1.1-.1V39.8l-.6-.2c-.2 0-.6.2-1 .5l-.5 1.2Zm0-.1" style="fill:none;stroke-width:2;stroke-linecap:butt;stroke-linejoin:round;stroke:#fff;stroke-opacity:.6;stroke-miterlimit:10" transform=" rotate(  340 426.004 35.382) "/> <g style="fill:#4d80b3;fill-opacity:1" transform=" rotate(  340 426.004 35.382) ">  <use xlink:href="#q" x="402.6" y="32.4"/>  <use xlink:href="#r" x="408.4" y="32.4"/>  <use xlink:href="#s" x="414.1" y="32.4"/>  <use xlink:href="#t" x="419.8" y="32.4"/>  <use xlink:href="#u" x="423.2" y="32.4"/>  <use xlink:href="#r" x="430.4" y="32.4"/>  <use xlink:href="#v" x="435.8" y="32.4"/>  <use xlink:href="#t" x="440.5" y="32.4"/>  <use xlink:href="#r" x="443.8" y="32.4"/>  <use xlink:href="#w" x="415.9" y="44.4"/>  <use xlink:href="#x" x="420.7" y="44.4"/>  <use xlink:href="#y" x="426.4" y="44.4"/>  <use xlink:href="#z" x="431.1" y="44.4"/> </g></svg>