<svg xmlns="http://www.w3.org/2000/svg" xmlns:xlink="http://www.w3.org/1999/xlink" viewBox="0 0 497 279"> <defs>  <path d="M1 0v-7.1h4V0Zm.4-.5h3.1v-6.1h-3Zm.1 0" id="reuse-0"/> </defs> <defs overflow="visible" style="stroke:none">  <path id="C" d="M-.3 2.4h-.3l-.4-.1v-.7h.7c.3.1.5.1.7-.1.2-.2.4-.5.5-.8l.4-.6-.8-5.5h.9l.3 2.7v.7l.2.7v.6A28.4 28.4 0 0 1 2.5-2c-.1 0 .1-.3.2-.4l1.5-3h1L1.7 1c-.1.4-.4.8-.7 1-.4.3-.8.4-1.2.4Zm0 0"/>  <path id="B" d="M1.9 0c-.4 0-.7 0-1-.1C.7-.5.5-.8.5-1.2v-.5L.8-2l.6-3.4h.9L1.4-2v1.2l.8.2c.2 0 .4-.1.8-.4l.6-.6.5-1.4.5-2.4h.9L4.4 0h-.8l.1-1-.5.5-.4.5-.9.1Zm0 0"/>  <path id="A" d="M1.8 0H1L.2-.2v-.9l.7.3 1 .1.8-.1.6-.4c.2-.2.2-.6.2-.8 0-.3 0-.5-.2-.7l-1-.6a4.4 4.4 0 0 1-.6-.5 1.9 1.9 0 0 1-.5-.6L1-5.2c0-.4.1-.8.4-1.1a2 2 0 0 1 .8-.7 3 3 0 0 1 1.2-.2h1l.8.5-.4.6-.6-.2-.8-.2c-.4 0-.7.2-1 .5-.4 0-.4.4-.4.8l.1.5.4.4.5.3.8.5a2 2 0 0 1 .5.6l.2.9c0 .6-.3 1.2-.8 1.5-.3.5-.9.6-1.8.6Zm0 0"/>  <path id="z" d="M2.5 0C1.9 0 1.4 0 1-.4.7-.8.5-1.3.5-2l.1-1.2a4 4 0 0 1 .5-1.1c.3-.3.5-.7.9-.8.3-.2.7-.3 1.2-.3.6 0 1 .2 1.4.4.4.5.6 1.1.6 1.6L5-2a4 4 0 0 1-.5.9c-.2.5-.5.8-.8 1L2.5 0Zm0-.6c.5-.1.6-.1 1-.4.1-.2.3-.5.5-1 .2-.3.3-.8.3-1.4L4.2-4a1 1 0 0 0-.4-.5l-.6-.2c-.4 0-.7.1-1 .4-.2.2-.5.6-.6 1A4 4 0 0 0 1.4-2c0 .5 0 .8.3 1 .2.2.5.3.8.3Zm0-.1"/>  <path id="y" d="M.4 0 2-7.1h1.5c.8 0 1.3.1 1.7.5.3.3.5.8.5 1.3 0 .8-.3 1.5-.8 1.9-.6.4-1.3.6-2.4.6H2L1.3 0ZM2-3.5h.7c.6 0 1.1-.2 1.5-.5.4-.2.6-.7.6-1.3 0-.2-.2-.5-.4-.7-.2-.3-.4-.4-1-.4h-.7Zm0 0"/>  <path id="x" d="m-.6 0 4-7.1h.8L5 0h-.7L4-2.2H1.6L.4 0ZM2-3h1.9l-.2-1.5v-1.7h-.2a14 14 0 0 1-.3.8l-.4 1Zm0 0"/>  <path id="w" d="M1.5 0H.7L0-.2V-1l.7.3h.8c.5.1.7.1 1-.1l.1-.7c.1-.1.1-.3-.1-.4 0-.2-.3-.3-.7-.5L1-3.1c-.2-.2-.3-.5-.3-.8 0-.5.1-.9.5-1.1.3-.3.7-.5 1.3-.5.3 0 .6 0 .9.2l.6.2-.2.7-.5-.2-.8-.1c-.3 0-.5 0-.7.2-.2.1-.2.3-.2.5l.1.5.7.5c.3 0 .6.2.6.4.2 0 .4.2.5.4l.1.7c0 .5-.2 1-.5 1.2C2.7 0 2 0 1.5 0Zm0 0"/>  <path id="v" d="m.2 0 1.2-5.4h.8l-.2 1 .5-.6a2 2 0 0 1 .6-.3l.9-.2c.3 0 .6.1.9.5.1 0 .4.4.4.9v.4l-.2.5L4.4 0h-.9l.7-3.4v-.4l.2-.2c-.1-.5-.3-.7-.8-.7-.2 0-.4 0-.6.2-.3.2-.6.5-.8.8-.2.3-.4.8-.5 1.4L1.2 0Zm0 0"/>  <path id="u" d="m.3 0 1.1-5.4h.7v1l.4-.5.5-.4.7-.2H4l.3.2-.2.7h-.5c-.3-.1-.6-.1-.9.2l-.7.9-.3 1L1.2 0Zm0 0"/>  <path id="t" d="M2 0c-.6 0-.9 0-1.2-.3C.6-.7.5-1 .5-1.7c0-.5 0-1 .2-1.4 0-.5.3-.9.5-1.2.2-.4.5-.7.8-.8a2 2 0 0 1 1.1-.4c.4 0 .7.1.9.3l.5.7a35.3 35.3 0 0 1 .2-1.3l.4-1.8H6L4.4 0h-.8l.1-1-.8.8c-.3.2-.6.2-.9.2Zm.1-.5c.4-.1.6-.2.9-.5l.5-.5.5-1 .2-1.1c0-.4-.2-.6-.3-.8-.1-.2-.4-.3-.7-.3-.3 0-.5 0-.8.2l-.4.7-.5 1-.1 1.1c0 .7.3 1 .8 1Zm.1-.1"/>  <path id="s" d="M2.1-6.3h-.3l-.1-.5.1-.4.4-.2c.3 0 .5.2.5.5 0 .2 0 .4-.2.5l-.4.2ZM.3 0l1.1-5.4h.9L1.2 0Zm0 0"/>  <path id="r" d="M1.4 0 1-7.1h1v6a25.3 25.3 0 0 1 .9-1.8l1.9-4.2h.9L5.9-3v2l.5-1 .2-.7 1.9-4.4h1L6.1 0h-.9v-4.6A35 35 0 0 1 5-6l-.3.6-.2.8L2.3 0Zm0 0"/>  <path id="q" d="M-.5 2.4h-.3l-.3-.1v-.7h.5c.3.1.6.1.6-.1l.3-1 1.1-5.2h-1L.7-5l.9-.4v-.5l.6-1c0-.3.2-.5.4-.6a2 2 0 0 1 .9-.2l.5.1.4.1-.2.7h-.3L3.5-7c-.2 0-.4 0-.5.3l-.5.8v.5h.9v.7H2.3L1.2.6C1 1.2.9 1.6.6 2c-.2.2-.6.4-1 .4Zm0 0"/>  <path id="p" d="m.3 0 1.6-7.6h.9L1.2 0Zm0 0"/>  <path id="o" d="M2 0c-.6 0-.9 0-1.2-.3C.6-.7.5-1 .5-1.7c0-.5 0-1 .2-1.5l.5-1.1c.2-.4.5-.7.8-.9a2 2 0 0 1 1.1-.3c.4 0 .6.1.9.3l.5.7.3-.9h.7L4.4 0h-.7l.1-1c-.3.3-.5.6-.9.8-.3.2-.6.2-.9.2Zm.1-.5c.4-.1.6-.2.9-.5l.6-.6a4 4 0 0 0 .4-1 3 3 0 0 0 .1-.7 4 4 0 0 0 0-.4c.1-.3.1-.5-.1-.7-.3-.2-.5-.3-.8-.3-.3 0-.5 0-.7.2a2 2 0 0 0-.6.7l-.4 1-.1 1.1c0 .4 0 .6.2.8.1.2.3.3.6.3Zm.1-.1"/>  <path id="n" d="M2.5 0C1.9 0 1.4 0 1-.3.7-.7.5-1.2.5-2c0-.4 0-1 .2-1.3l.5-1c.3-.5.6-.7 1-1 .2-.1.6-.2.9-.2l.9.1.6.2-.2.7-.5-.1-.6-.1c-.4 0-.7.1-1 .4-.3.2-.5.6-.7 1A4 4 0 0 0 1.4-2c0 .5 0 .8.3 1 .2.2.5.3.9.3h.6a7 7 0 0 0 .6-.3v.8l-.6.2h-.7Zm0 0"/>  <path id="m" d="M1.8 0c-.3 0-.6 0-.8-.1C.7-.3.6-.6.6-1v-.8l.8-2.9h-1L.5-5l1-.5.5-1h.6l-.3 1h1.3l-.1.8H2.2l-.7 3v.8l.5.3h.3l.4-.3V0h-.9Zm0 0"/>  <path id="l" d="M.4 0 2-7.1h1.2l.7 5.8 3.2-5.8h1.3L7 0H6l1-4.2a47.9 47.9 0 0 1 .4-2L4 0h-.7l-.8-6.3-.1.6-.1.7-.1.7-1 4.3Zm0 0"/>  <path id="k" d="M2.4 0c-.6 0-1 0-1.4-.3C.6-.8.5-1.3.5-2c0-.3 0-.8.2-1.2 0-.4.3-.8.5-1.1.2-.4.5-.7.8-.8a2 2 0 0 1 1.2-.4c.5 0 .8.2 1.1.5.3 0 .4.4.4.8 0 .3-.1.7-.3 1-.4.2-.6.4-1 .6-.6.2-1.2.3-1.9.3h-.1v.3c0 .5 0 .8.3 1 .2.3.5.4.9.4l.7-.1A5 5 0 0 0 4-1v.7a6 6 0 0 1-.7.3h-.9Zm-.9-3 1.3-.1.7-.4c.2-.1.3-.4.3-.5l-.1-.6-.7-.1c-.2 0-.5.1-.9.4L1.6-3Zm0 0"/>  <path id="j" d="M.4 0 2-7.1h1L1.4-.8h2.8L4 0Zm0 0"/>  <use xlink:href="#reuse-0"/>  <path id="i" d="M2.6-.6H3l.4-.2v.7L3 0H1.7l-.6-.5-.1-1v-3.3H.2V-5l.7-.5.4-1h.5v1h1.5v.8H1.8v3.1c0 .3 0 .6.2.7l.6.3Zm0 0"/>  <path id="h" d="M5.3-5.4V0h-.7l-.1-.7c-.3.3-.5.5-.9.6l-.9.2C2.1 0 1.6-.1 1.3-.4 1-.7.8-1.2.8-1.8v-3.6h.9v3.5c0 .8.3 1.3 1.2 1.3.6 0 1-.2 1.1-.5.3-.4.5-.9.5-1.5v-2.8Zm0 0"/>  <path id="g" d="M3.4-5.5c.7 0 1.2.2 1.6.5.2.3.4.8.4 1.5V0h-.9v-3.4c0-.9-.4-1.3-1.2-1.3-.6 0-1 .1-1.2.5-.3.2-.4.8-.4 1.4V0H.8v-5.4h.8v.8h.2c.2-.4.3-.5.7-.7l1-.2Zm0 0"/>  <path id="f" d="M2.9-5.5c.6 0 1.1.2 1.4.5.3.3.5.7.5 1.3V0h-.6L4-.8c-.3.3-.5.6-.8.8h-1c-.5 0-1 0-1.3-.3C.6-.5.5-.9.5-1.5c0-.5.2-1 .5-1.2.5-.3 1-.5 2-.5h.8v-.3c.2-.5.2-.8-.2-1l-.8-.2H2l-.7.5L1-5l1-.3.9-.2Zm1 2.9h-.8c-.6 0-1 .1-1.4.3-.1.3-.3.5-.3.8 0 .3 0 .5.2.7l.7.2c.5 0 .9-.1 1.2-.4.3-.2.4-.6.4-1Zm.1 0"/>  <path id="e" d="M6.7-5.5c.6 0 1 .2 1.4.5.3.3.4.8.4 1.5V0h-.8v-3.5c0-.8-.4-1.2-1.1-1.2-.6 0-1 .1-1.1.4C5.2-4 5-3.5 5-3v3h-.7v-3.5c0-.8-.4-1.2-1.1-1.2-.6 0-1 .1-1.2.5-.2.2-.3.8-.3 1.4V0H.8v-5.4h.8v.8h.2l.6-.7 1-.2c.7 0 1.2.3 1.6 1 .2-.5.4-.7.7-.8.3-.1.7-.2 1-.2Zm0 0"/>  <path id="d" d="M3-5.5c.3 0 .7.1 1 .3a2 2 0 0 1 1 .9v1.8H1.5c0 .5.1 1 .4 1.4.3.3.7.4 1.3.4H4l.9-.3v.8L4 0a5 5 0 0 1-1 0 3 3 0 0 1-1.2-.1 2.2 2.2 0 0 1-1-1.1c0-.2-.2-.8-.2-1.3-.1-.7 0-1.2.2-1.6.2-.5.5-.9.9-1 .3-.2.7-.4 1.2-.4Zm0 .8c-.6 0-.9.1-1 .4-.4.2-.6.6-.6 1.1h2.8c0-.5-.1-.8-.3-1.1-.2-.3-.5-.4-1-.4Zm0 0"/>  <path id="c" d="M4.3 0h-4v-.6l3.1-4H.6v-.9h3.6v.8l-2.8 4h3Zm0 0"/>  <path id="b" d="M5.5-2.7c0 .9-.2 1.7-.7 2-.4.7-1 .9-1.8.9-.5-.2-.9-.2-1.3-.4-.3-.2-.6-.6-.7-1C.6-1.6.5-2 .5-2.7c0-.9.3-1.6.7-2 .5-.5 1-.8 1.8-.8.5 0 1 .2 1.3.5.4 0 .7.4.9.9.2.2.3.7.3 1.3Zm-4 0c0 .7 0 1.2.3 1.5.3.4.7.6 1.2.6.6 0 1-.2 1.2-.6.3-.3.4-.8.4-1.5s-.1-1.1-.4-1.5c-.2-.3-.6-.5-1.2-.5-.5 0-1 .2-1.2.5-.2.4-.3.9-.3 1.5Zm0 0"/>  <path id="a" d="M1-7.1h2c1 0 1.6.1 2 .4.5.2.7.7.7 1.3 0 .5-.1.8-.3 1-.4.4-.6.6-1 .7l.8.3c.2 0 .4.2.5.5.3.2.3.5.3.9 0 .6-.3 1-.7 1.5-.5.3-1 .5-1.8.5H1Zm.9 3h1.3c.6.1 1 .1 1.3-.3.2-.2.3-.5.3-.9s-.1-.6-.4-.7c-.4-.3-.8-.4-1.4-.4H2Zm0 .8v2.5h1.4c.7 0 1 0 1.3-.2.4-.4.4-.7.4-1.1s-.1-.7-.4-.9c-.2-.2-.6-.3-1.4-.3Zm0 0"/>  <use xlink:href="#reuse-0"/> </defs> <image xlink:href="svg/9/91_6.jpg" width="497" height="279"/> <path d="M437.6 108.6h2c1 0 1.6.1 2 .4.5.3.7.7.7 1.4 0 .4 0 .8-.3 1-.3.3-.6.6-1 .6.3 0 .5.1.8.3.2 0 .4.3.6.5l.2 1c0 .5-.3.9-.7 1.3-.4.5-1 .6-1.9.6h-2.4zm.9 3h1.3c.6.1 1 .1 1.3-.1.2-.3.3-.6.3-1.1 0-.2-.1-.5-.4-.7l-1.3-.3h-1.2zm0 .9v2.5h1.4c.7 0 1.1-.1 1.3-.4.3-.2.4-.5.4-1 0-.2-.1-.6-.4-.8-.2-.3-.7-.4-1.4-.4zm10.1.5c0 1-.2 1.7-.6 2.2-.5.4-1 .6-1.9.6-.5 0-.9 0-1.3-.3-.3-.2-.6-.5-.8-1-.2-.2-.3-.7-.3-1.3 0-1.2.2-1.7.6-2.2.5-.6 1-.8 1.9-.8.4.1.8.2 1.2.4.4.2.7.5.9 1 .2.4.3.9.3 1.4zm-4 0c0 .8 0 1.3.3 1.7.3.2.7.3 1.2.3.6.1 1 0 1.2-.4.3-.4.4-.9.4-1.6 0-.6-.1-1.1-.4-1.4-.2-.4-.6-.6-1.2-.6-.5 0-1 .2-1.1.6-.3.3-.4.8-.4 1.4zm8.8 2.7h-4v-.5l3.1-4.2h-3v-.6h3.8v.6l-2.8 4h2.9zm3.3-5.4c.3 0 .8 0 1.2.3a2 2 0 0 1 .7.8c.2.4.4.8.4 1.3v.5h-3.8c0 .6.2 1.1.5 1.4.3.4.7.5 1.2.5l1.1-.1.6-.3v.8l-.8.3a5 5 0 0 1-1 0 3 3 0 0 1-1.2-.3 2.2 2.2 0 0 1-1-.9c-.2-.4-.3-.9-.3-1.5s.1-1 .3-1.5l.8-1c.4-.2.8-.3 1.3-.3zm0 .7c-.4 0-.8.1-1 .4-.3.3-.4.7-.5 1.1h2.8c0-.4-.1-.8-.3-1-.3-.4-.7-.5-1-.5zm9.4-.7c.6 0 1 .1 1.4.5.3.2.4.8.4 1.5v3.4h-.8v-3.4c-.1-.9-.4-1.3-1.1-1.3-.5 0-1 .2-1.1.5-.3.3-.4.7-.4 1.3v3h-.8v-3.6c0-.8-.4-1.2-1.1-1.2-.6 0-1 .2-1.2.5-.2.5-.3.8-.3 1.5v2.7h-.9v-5.3h.8v.6h.2c.1-.2.3-.4.6-.5l1-.2c.7 0 1.2.3 1.5.9l.8-.7 1-.2zm5.5 0c.7 0 1.2.1 1.5.4.3.3.5.8.5 1.4v3.6h-.7l-.2-.7-.7.6c-.3.2-.6.2-1 .2-.7 0-1 0-1.4-.3-.2-.3-.4-.7-.4-1.2 0-.6.2-1 .6-1.3.5-.3 1.2-.4 2-.5h.9v-.3c0-.4-.1-.8-.3-1l-.8-.2-.8.1-.8.3-.2-.6.8-.4 1-.1zm1 2.7h-.6c-.8.2-1.2.4-1.5.6-.2.1-.4.3-.4.7 0 .3.1.5.3.6.2.2.4.2.6.2.6 0 .9 0 1.2-.3.3-.3.5-.8.5-1.2zM477.8 110.3c.6 0 1.1.1 1.4.5.4.2.5.8.5 1.5v3.4h-.7v-3.4c-.1-.8-.5-1.3-1.3-1.3-.7 0-1 .2-1.3.5-.2.5-.3.8-.3 1.5v2.7h-.9v-5.3h.8l.1.6c.2-.2.4-.4.7-.5l1-.2zm0 0" style="fill:none;stroke:#fff;stroke-width:3;stroke-linecap:butt;stroke-linejoin:round;stroke-miterlimit:10;stroke-opacity:.6" transform=" rotate(  340 458.738 112.745) "/> <g style="fill:#212121;fill-opacity:1" transform=" rotate(  340 458.738 112.745) ">  <use xlink:href="#a" x="436.6" y="115.7"/>  <use xlink:href="#b" x="443.1" y="115.7"/>  <use xlink:href="#c" x="449.1" y="115.7"/>  <use xlink:href="#d" x="453.8" y="115.7"/>  <use xlink:href="#e" x="459.4" y="115.7"/>  <use xlink:href="#f" x="468.8" y="115.7"/>  <use xlink:href="#g" x="474.4" y="115.7"/> </g> <path d="M150.7 13.6h2c1 0 1.6.1 2 .4.6.2.8.7.8 1.3-.1.5-.1.8-.4 1-.2.5-.6.6-1.1.7l.9.3.6.5.2.9c0 .6-.3 1.1-.7 1.5-.4.3-1 .5-1.8.5h-2.5zm.9 3h1.3c.6 0 1.1 0 1.3-.3.2-.2.3-.5.3-.9s-.1-.6-.4-.8c-.3-.2-.7-.3-1.3-.3h-1.2zm0 .8v2.5h1.4c.7.1 1.1.1 1.3-.3.3-.3.4-.6.4-1s-.1-.6-.4-.9c-.2-.2-.7-.3-1.3-.3zm10-2.1v5.4h-.8V20h-.2c-.1.3-.3.5-.7.6l-.9.2c-.6 0-1-.2-1.4-.5-.4-.3-.6-.8-.6-1.3v-3.7h1v3.5c0 .8.2 1.2 1 1.2.7 0 1.1-.1 1.3-.4.3-.4.4-.8.4-1.6v-2.7zM165 20h.8v.6l-.4.1H164l-.5-.5-.2-1V16h-.7v-.4l.7-.4.4-1h.5v1h1.5v.8h-1.5v3.1c0 .3 0 .6.2.7l.6.3zm3.7 0h.7v.6l-.4.1h-1.3l-.5-.5c-.2-.3-.3-.6-.3-1V16h-.7v-.4l.7-.4.4-1h.5v1h1.6v.8h-1.6v3.1c0 .3 0 .6.2.7.2.2.4.3.7.3zm3.8-4.8c.5 0 .9.1 1.2.3a2 2 0 0 1 .8.9c.2.4.2.8.2 1.3v.5h-3.6c-.1.6.2 1 .4 1.4.3.3.8.4 1.3.4h.9l.8-.4v.8c-.3.2-.5.3-.8.3a5 5 0 0 1-1 0 3 3 0 0 1-1.3-.1 2.2 2.2 0 0 1-.9-1.1c-.2-.2-.3-.7-.3-1.3 0-.7 0-1.2.3-1.6.2-.6.4-.8.8-1 .3-.2.7-.4 1.2-.4zm0 .8c-.4 0-.7 0-1 .4-.2.2-.4.6-.4 1.1h2.7c0-.5 0-.8-.3-1.1-.2-.4-.5-.4-1-.4zm0 0" style="fill:none;stroke:#fff;stroke-width:3;stroke-linecap:butt;stroke-linejoin:round;stroke-miterlimit:10;stroke-opacity:.6" transform=" rotate(  340 162.923 17.7007) "/> <g style="fill:#212121;fill-opacity:1" transform=" rotate(  340 162.923 17.7007) ">  <use xlink:href="#a" x="149.7" y="20.7"/>  <use xlink:href="#h" x="156.2" y="20.7"/>  <use xlink:href="#i" x="162.4" y="20.7"/>  <use xlink:href="#i" x="166" y="20.7"/>  <use xlink:href="#d" x="169.6" y="20.7"/> </g> <path d="m377.1 194.8 1.6-7.1h.8l-1.3 6.3h2.7l-.1.8zm6.9.1c-.8 0-1.3-.2-1.6-.5-.2-.4-.4-.9-.4-1.5 0-.4 0-.9.2-1.3l.5-1.1c.2-.5.5-.6.9-.8a2 2 0 0 1 1-.3c.7 0 1.1 0 1.3.3.2.2.3.5.3 1l-.3.8c-.2.3-.6.5-1 .7-.5.2-1.1.3-1.9.3h-.1v.4c0 .4 0 .7.3 1 .2.1.5.2.8.2l.8-.1a5 5 0 0 0 .8-.2v.7a6 6 0 0 1-.8.3l-.8.1zm-1-3.1h.1l1.1-.1c.3 0 .6-.2.8-.4.2-.1.3-.3.3-.6l-.1-.5-.6-.1c-.3-.1-.6.1-1 .4l-.6 1.3zm6 3.1c-.8 0-1.3-.2-1.6-.5-.2-.4-.4-.9-.4-1.5 0-.4 0-.9.2-1.3 0-.4.3-.8.5-1.1.2-.5.5-.6.9-.8a2 2 0 0 1 1-.3c.7 0 1.1 0 1.3.3.2.2.3.5.3 1l-.3.8c-.2.3-.6.5-1 .7-.6.2-1.2.3-1.9.3h-.1v.4c0 .4 0 .7.3 1 .2.1.5.2.8.2l.8-.1a5 5 0 0 0 .8-.2v.7a6 6 0 0 1-.8.3l-.9.1zm-1-3.1h.1l1-.1c.5 0 .8-.2 1.1-.4v-1.1l-.6-.1c-.3-.1-.6.1-1 .4l-.6 1.3zm6.5 3 1.5-7.1h1.3l.7 5.8 3.2-5.8h1.3l-1.5 7.1h-.8l.8-4.2a47.6 47.6 0 0 1 .5-2l-3.4 6.1h-.7l-.8-6.2-.1.6-.1.7-.1.7-1 4.3zm10.5.1c-.8 0-1.3-.2-1.6-.5-.2-.4-.4-.9-.4-1.5 0-.4 0-.9.2-1.3 0-.4.3-.8.5-1.1.2-.5.5-.6.9-.8a2 2 0 0 1 1-.3c.7 0 1.1 0 1.3.3.2.2.3.5.3 1l-.3.8c-.2.3-.6.5-1 .7-.6.2-1.2.3-1.9.3h-.1v.4c0 .4 0 .7.3 1 .2.1.5.2.8.2l.8-.1a5 5 0 0 0 .8-.2v.7a6 6 0 0 1-.8.3l-.9.1zm-1-3.1h.1l1-.1c.5 0 .8-.2 1.1-.4v-1.1l-.6-.1c-.3-.1-.6.1-1 .4l-.6 1.3zm5.3 3.1c-.3 0-.6 0-.9-.2-.2-.2-.3-.5-.3-1v-.7l.8-2.9h-1l.1-.4 1-.4.4-1h.7l-.3 1h1.2v.8h-1.3l-.7 3v.9l.6.2h.2l.4-.2v.7l-.4.1a2 2 0 0 1-.5.2zm4 0c-.6 0-1-.2-1.5-.5-.3-.3-.5-.8-.5-1.5 0-.5 0-1 .2-1.4.1-.4.3-.8.5-1 .3-.5.6-.8.9-1 .4-.1.8-.1 1.2-.1h.7l.6.2-.2.7-.5-.1-.7-.2c-.3 0-.6.2-.9.5-.3.2-.5.5-.7 1a4 4 0 0 0-.2 1.4c0 .4 0 .7.3 1 .2.1.5.3.9.3l.6-.2a7 7 0 0 0 .7-.1v.7l-.7.2-.7.2zm4 0c-.4 0-.8-.1-1-.5-.3-.3-.6-.7-.6-1.3.1-.5.1-1.1.3-1.4.1-.5.3-.9.6-1.2.2-.5.4-.6.8-.8a2 2 0 0 1 1-.3c.5 0 .8 0 1.1.2l.2.7.6-.9h.5l-1.1 5.4h-.7l.1-1-.8.8c-.3.2-.7.3-1 .3zm.3-.7c.2 0 .4-.2.7-.3l.6-.7a4 4 0 0 0 .5-1 3 3 0 0 0 0-.6 4 4 0 0 0 .2-.4c-.1-.4-.1-.6-.4-.8-.1-.2-.4-.4-.7-.4-.2 0-.5 0-.7.3a2 2 0 0 0-.6.7l-.2 1-.3 1c0 .5 0 .7.3 1 .1.1.3.2.6.2zm3.7.6 1.6-7.6h.9l-1.6 7.6zm1.8 2.4h-.6v-.9h.5c.3.2.5.2.6 0l.4-1 1-5.2h-1l.3-.4.9-.3v-.4l.6-1c0-.4.2-.6.4-.7a2 2 0 0 1 .9-.1h.5c.2 0 .4 0 .4.2l-.2.6h-.3l-.4-.2c-.1.1-.4.1-.6.2-.1.3-.3.5-.3 1l-.2.4h1.2l-.2.7h-1.1l-1.1 5.3c-.1.6-.3 1-.6 1.3-.2.4-.6.5-1 .5zm-43.9 9.5-.3-7h.9l.1 4.1v1.9a25.2 25.2 0 0 1 .7-1.9l2-4.2h1v6.1l.6-.9.2-.8 1.9-4.4h1l-3.3 7.1h-1v-4.5a35.1 35.1 0 0 1-.1-1.4h-.2l-.1.6-.4.8-2 4.5zm9.3-6.2-.3-.1-.2-.4s0-.3.2-.4c0-.2.2-.2.4-.2.4 0 .5.1.5.4-.1.3-.1.4-.2.5l-.4.2zm-1.8 6.2 1-5.3h1.1l-1.3 5.3zm2.5 0 1.6-7.5h1l-1.8 7.5zm4.3.1c-.5 0-.8-.1-1-.4-.5-.4-.5-.8-.5-1.4 0-.5 0-1 .2-1.4l.5-1.2.8-.8a2 2 0 0 1 1.1-.3c.4 0 .7 0 .9.3l.5.6a35.3 35.3 0 0 1 .3-1.2l.3-1.8h.9l-1.6 7.5h-.7v-1c-.2.5-.5.7-.8.9-.2.1-.6.2-1 .2zm.3-.7c.2 0 .4 0 .6-.1.2-.3.6-.5.6-.8l.5-1 .2-1c0-.5 0-.8-.2-1-.2-.1-.5-.2-.8-.2-.3 0-.5.1-.7.3l-.6.7-.4 1v1c0 .8.1 1.1.7 1.1zm5.9.7c-.6 0-1-.1-1.4-.5-.3-.3-.5-.9-.5-1.5 0-.4 0-.8.2-1.2l.5-1.2c.2-.3.5-.6.9-.8a2 2 0 0 1 1-.3c.6 0 1.1.1 1.3.3.3.2.3.5.3 1l-.3.8c-.2.4-.7.6-1 .8-.5.2-1 .2-1.8.2h-.2v.4c0 .4 0 .7.3 1 .2.2.5.2.9.2h.7a5 5 0 0 0 .8-.4v.8a6 6 0 0 1-.8.3l-.9.1zm-.9-3h.2l1-.3c.4.1.6-.1.8-.2.2-.3.3-.4.3-.7l-.1-.4-.6-.2c-.3 0-.6.2-1 .5l-.5 1.2zm3.8 2.9 1.1-5.3h.7v1l.4-.5.5-.5.7-.1h.6l-.2 1-.5-.3-.9.4c-.2.2-.5.6-.6.9l-.4 1-.5 2.4zm3.9 0 1.2-5.3h.8l-.1 1c0-.3.2-.4.4-.7a2 2 0 0 1 .6-.3l.8-.1c.4 0 .7 0 1 .3.2.4.4.6.4 1v.5l-.3.4-.6 3.2h-1l.9-3.3v-.4l.1-.3c-.1-.4-.3-.6-.8-.6-.2-.1-.4-.1-.7.2l-.7.7-.5 1.4-.5 2.3zm8 .1c-.6 0-1.1-.1-1.4-.5-.4-.3-.5-.9-.5-1.5l.1-1.2.6-1.2.7-.8a2 2 0 0 1 1.2-.3c.5 0 1 .1 1.2.3.2.2.4.5.4 1 0 .2-.1.5-.4.8-.2.4-.4.6-1 .8-.4.2-1 .2-1.8.2h-.1v.4c0 .4 0 .7.3 1 .1.2.5.2.9.2h.7a5 5 0 0 0 .6-.4v.8a6 6 0 0 1-.6.3l-.9.1zm-1-3h.3l.9-.3c.5.1.8-.1 1-.2.1-.3.2-.4.2-.7.1-.2.1-.3-.2-.4l-.5-.2c-.3 0-.6.2-1 .5-.2.3-.5.7-.6 1.2zm5.1 3h-.8l-.8-.4v-.7l.8.3.8.1c.4 0 .7 0 .9-.1l.3-.7c0-.3 0-.4-.2-.5l-.7-.5-.9-.6-.2-.9c0-.4.1-.8.4-1 .4-.5.8-.6 1.4-.6l.9.2.7.3-.3.7-.6-.4h-.7l-.7.1c-.2.3-.3.4-.3.7 0 .1 0 .2.2.4l.7.5.6.4.4.5.2.6c0 .5-.2 1-.6 1.2-.3.3-.9.4-1.5.4zm4.4 0h-1l-.5-.4v-.7l.6.3.8.1c.4 0 .7 0 1.1-.1v-.7c.1-.3.1-.4 0-.5l-.8-.5-.8-.6-.4-.9c0-.4.2-.8.6-1 .3-.5.7-.6 1.3-.6l.9.2c.2 0 .5.2.7.3l-.3.7-.6-.4h-.6l-.8.1c-.2.3-.2.4-.2.7v.4l.8.5.6.4.6.5v.6c0 .5-.2 1-.5 1.2-.5.3-1 .4-1.6.4zm-31.8 11.9 3.8-7.2h1l.8 7.2h-.8l-.3-2.2h-2.4l-1.3 2.2zm2.5-3h2l-.3-1.5V212.5h-.2a14 14 0 0 1-.3.8l-.4.9zm3.9 3 1.2-5.4h.7l-.1 1 .6-.5.4-.4.6-.2h.3l.3.1-.2.8h-.4c-.4-.1-.7-.1-1 .2l-.6.9-.4 1-.5 2.5Zm5.9.1c-.5 0-1-.2-1.4-.6-.3-.2-.5-.8-.5-1.4 0-.5 0-.9.2-1.3l.5-1.1c.3-.4.5-.7.9-.9a2 2 0 0 1 1-.3c.7 0 1.1.1 1.3.4.2.2.3.4.3.9l-.3 1-1 .5c-.5.3-1 .4-1.8.4h-.2v.3c0 .4.1.8.3 1 .2.2.5.4.9.4l.7-.1a5 5 0 0 0 .8-.4v.8a6 6 0 0 1-.8.3h-.9zm-.9-3.1h.1l1.1-.1.8-.4c.2-.2.4-.4.4-.7l-.2-.4-.6-.1c-.2 0-.6 0-.9.4-.3.3-.5.7-.7 1.3zm5.4 3.1c-.3 0-.6-.2-1-.5-.3-.3-.4-.7-.4-1.3 0-.5 0-1 .2-1.5l.5-1.2c.3-.3.5-.6.9-.8a2 2 0 0 1 1-.3c.4 0 .8.1.9.3l.5.7.4-.9h.6l-1.1 5.4h-.7l.1-1-.9.8-1 .3zm.4-.8c.2 0 .4 0 .7-.2l.6-.7a4 4 0 0 0 .3-1.1 3 3 0 0 0 .2-.6 4 4 0 0 0 0-.4c.1-.3.1-.5-.2-.7-.2-.3-.4-.3-.7-.3-.2 0-.5 0-.7.2a2 2 0 0 0-.6.8l-.4.9-.1 1c0 .5 0 .8.2 1l.6.2zm-.1 0" style="fill:none;stroke:#fff;stroke-width:2;stroke-linecap:butt;stroke-linejoin:round;stroke-miterlimit:10;stroke-opacity:.6" transform=" rotate(  340 402.145 203.748) "/> <g style="fill:#007f00;fill-opacity:1" transform=" rotate(  340 402.145 203.748) ">  <use xlink:href="#j" x="376.7" y="194.8"/>  <use xlink:href="#k" x="381.5" y="194.8"/>  <use xlink:href="#k" x="386.5" y="194.8"/>  <use xlink:href="#glyph1-3" x="391.5" y="194.8"/>  <use xlink:href="#l" x="394.1" y="194.8"/>  <use xlink:href="#k" x="402.5" y="194.8"/>  <use xlink:href="#m" x="407.5" y="194.8"/>  <use xlink:href="#n" x="410.8" y="194.8"/>  <use xlink:href="#o" x="415.3" y="194.8"/>  <use xlink:href="#p" x="421" y="194.8"/>  <use xlink:href="#q" x="423.6" y="194.8"/>  <use xlink:href="#r" x="377.8" y="206.7"/>  <use xlink:href="#s" x="386.4" y="206.7"/>  <use xlink:href="#p" x="388.9" y="206.7"/>  <use xlink:href="#t" x="391.5" y="206.7"/>  <use xlink:href="#k" x="397.3" y="206.7"/>  <use xlink:href="#u" x="402.3" y="206.7"/>  <use xlink:href="#v" x="406.3" y="206.7"/>  <use xlink:href="#k" x="412.1" y="206.7"/>  <use xlink:href="#w" x="417.1" y="206.7"/>  <use xlink:href="#w" x="421.4" y="206.7"/>  <use xlink:href="#x" x="391.7" y="218.7"/>  <use xlink:href="#u" x="397.3" y="218.7"/>  <use xlink:href="#k" x="401.1" y="218.7"/>  <use xlink:href="#o" x="406.1" y="218.7"/> </g> <path d="m-7 123.2-.5-7.1h1l.1 4.3v1.7a25.3 25.3 0 0 1 .8-1.8l2-4.3h.7l.3 4.3v1.7h.2l.2-.7.4-1 1.8-4.1h1l-3.3 7h-.9l-.2-4.6a35 35 0 0 1 0-1.4l-.4.6-.3.8-1.9 4.6zm9.3.1c-.6 0-1-.2-1.3-.5-.4-.4-.6-.9-.6-1.5 0-.4 0-.9.2-1.3 0-.4.3-.8.4-1 .3-.5.6-.7.9-1a2 2 0 0 1 1.2-.2c.5 0 .8 0 1.1.2.3.3.4.6.4 1 0 .3-.1.7-.3 1-.3.2-.6.5-1 .6-.6.2-1.2.4-1.9.4h-.1v.3c0 .4 0 .7.3 1 .2.1.4.2.9.2h.7a5 5 0 0 0 .7-.3v.7a6 6 0 0 1-.7.3l-.9.1zm-.9-3.1h.1l1-.2c.5 0 .8-.1 1.1-.3v-1.1l-.6-.1c-.3 0-.6.1-1 .4l-.5 1.3zm5 3.1h-.8l-.7-.3v-.8l.7.3h.8c.4.1.7.1 1-.1l.1-.6c.1-.2.1-.4-.1-.5-.1-.3-.3-.3-.7-.5-.4-.2-.6-.5-.7-.8-.3 0-.4-.4-.4-.7 0-.5.1-.9.4-1.1.4-.3.8-.4 1.4-.4h.9l.7.4-.3.6-.6-.2-.7-.1c-.4 0-.5 0-.7.2-.2.1-.2.3-.2.5l.1.5.7.5c.3.1.5.2.7.4.1 0 .3.2.4.4l.1.7c0 .5-.2 1-.5 1.2-.4.3-1 .4-1.6.4zm4.6 0c-.2 0-.5 0-.8-.2-.2-.2-.4-.5-.4-1.1v-.6l.8-2.9h-1l.1-.4 1-.4.5-1h.6l-.3 1H13l-.3.8h-1.3l-.6 3-.1.1v.8l.6.2h.2l.5-.1v.5l-.5.2a2 2 0 0 1-.4.1zm4.5-.1 1.6-7.1h1.6c.7-.1 1.3.1 1.6.5.3.3.5.8.5 1.3 0 .8-.3 1.5-.8 1.9-.5.4-1.3.6-2.3.6H17l-.6 2.8zm1.7-3.5h.6c.6 0 1.1-.2 1.5-.4.4-.3.7-.8.7-1.3-.1-.4-.2-.7-.4-1-.3-.1-.6-.2-1-.2h-.9zM23 117c-.3 0-.4 0-.5-.2v-.3l.1-.5.4-.2c.3 0 .5.2.5.5 0 .2 0 .4-.2.5l-.3.2zm-2 6.2 1.3-5.4h.8l-1.1 5.4zm4.9.1c-.7 0-1.1-.3-1.5-.6-.4-.3-.5-.7-.5-1.5l.1-1.2a4 4 0 0 1 .5-1.1c.2-.3.5-.6.9-.9.3-.1.6-.2 1.1-.2.7 0 1.2.2 1.5.5.4.4.5 1 .5 1.5l-.1 1.3a4 4 0 0 1-.5.9c-.3.6-.5.9-.9 1-.3.2-.7.3-1 .3zm0-.7c.3 0 .6-.2.9-.4.2-.2.5-.5.6-1 .2-.3.2-.8.2-1.3v-.7a1 1 0 0 0-.5-.5l-.5-.2c-.4 0-.7.1-1 .4-.3.1-.5.6-.6 1a4 4 0 0 0-.2 1.4c0 .4 0 .7.2 1 .3 0 .5.2.9.2zM29.2 123.2l1.2-5.4h.8l-.2 1 .5-.5a2 2 0 0 1 .6-.4l.9-.2c.3 0 .7.1.9.4.3.2.4.5.4.9v.5l-.2.5-.7 3.2h-.9l.7-3.4v-.3l.2-.3c-.1-.5-.3-.7-.7-.7-.3 0-.5.1-.8.3l-.7.7c-.2.3-.4.8-.5 1.4l-.5 2.3zm8 .1c-.6 0-1-.2-1.4-.5-.4-.4-.5-.9-.5-1.5 0-.4 0-.9.2-1.3 0-.4.3-.8.5-1 .2-.5.5-.7.8-1a2 2 0 0 1 1.2-.2c.5 0 .8 0 1 .2.4.3.5.6.5 1 0 .3-.1.7-.3 1-.3.2-.6.5-1 .6-.6.2-1.2.4-1.9.4h-.1v.3c0 .4 0 .7.3 1 .2.1.5.2.9.2h.6a5 5 0 0 0 .8-.3v.7a6 6 0 0 1-.7.3l-.9.1zm-.9-3.1 1.3-.2c.2 0 .4-.1.7-.3.2-.1.3-.4.3-.6l-.1-.5-.6-.1c-.3 0-.6.1-.9.4l-.6 1.3zm5.9 3.1c-.6 0-1-.2-1.4-.5-.4-.4-.5-.9-.5-1.5l.1-1.3.6-1c.2-.5.5-.7.8-1a2 2 0 0 1 1.2-.2c.5 0 1 0 1.1.2.2.3.4.6.4 1 0 .3-.1.7-.3 1-.3.2-.6.5-1 .6-.6.2-1.2.4-1.9.4h-.1v.3c0 .4 0 .7.3 1 .2.1.5.2.9.2h.6a5 5 0 0 0 .8-.3v.7a6 6 0 0 1-.7.3l-.9.1zm-.9-3.1 1.3-.2c.2 0 .4-.1.7-.3.2-.1.3-.4.3-.6 0-.2 0-.3-.2-.5l-.4-.1c-.4 0-.7.1-1.1.4l-.5 1.3zm3.7 3 1.3-5.4h.6v1l.4-.5.5-.3.7-.2h.5l-.1.8h-.5c-.4 0-.7 0-1 .3l-.5.8-.4 1-.6 2.6zm-47.4 11.9-.3-7h.9l.1 4.2v1.7a25.3 25.3 0 0 1 .7-1.8l2-4.2h1v6.1l.6-.9.2-.9 1.9-4.3h1l-3.4 7.1h-.9v-4.5a35 35 0 0 1-.1-1.4h-.2l-.1.6-.4.8-2.1 4.4Zm9.3-6.2-.4-.1v-.8l.5-.2c.3 0 .5.1.5.4 0 .3-.1.4-.2.5l-.4.3zM5 135.1l1.2-5.3H7L5.9 135zm2.6 0 1.6-7.5h1L8.4 135zm4.3.1c-.5 0-.9-.1-1-.4-.5-.3-.6-.8-.6-1.4.1-.4.1-1 .3-1.4l.4-1.2 1-.8a2 2 0 0 1 1-.3c.4 0 .7 0 1 .3l.4.6a35.2 35.2 0 0 1 .3-1.3l.3-1.7h1l-1.7 7.4h-.7v-.9c-.2.5-.5.7-.8.9-.3.1-.6.2-1 .2zm.3-.7c.2 0 .4 0 .6-.2l.6-.7.6-1 .1-1c-.1-.5-.1-.8-.2-1-.2-.1-.5-.2-.9-.2-.2 0-.4.1-.6.3l-.6.7-.4 1-.1 1c0 .8.3 1.1.9 1.1zm5.9.7c-.6 0-1-.1-1.4-.5-.3-.4-.5-.7-.5-1.5 0-.4 0-.8.2-1.2 0-.5.3-.8.5-1.2.2-.3.5-.6.9-.8a2 2 0 0 1 1-.3c.7 0 1.1.1 1.2.3.3.2.4.6.4 1l-.3.8c-.2.4-.6.6-1.1.8-.4.2-1 .2-1.7.2H17v.4c0 .4 0 .7.4 1 .2.2.5.3.9.3h.7a5 5 0 0 0 .8-.5v.9a6 6 0 0 1-.8.1l-.9.2zm-.9-3h.1l1.1-.2c.3 0 .6-.2.8-.3.2-.2.3-.4.3-.7l-.1-.4-.6-.2c-.3 0-.6.2-1 .6l-.5 1zm3.8 2.9 1-5.3h.8v1l.4-.5.5-.4.7-.2h.6l-.2 1-.5-.2-.9.3c-.3.2-.4.5-.7.9l-.3 1-.5 2.4zm4 0 1-5.3h1l-.3 1 .5-.7a2 2 0 0 1 .6-.3l.8-.1c.4 0 .7 0 1 .3.2.3.3.6.3 1v1l-.9 3.1h-.9l.9-3.3v-.8c0-.3-.1-.5-.6-.5-.3 0-.4 0-.8.2l-.7.7-.5 1.4-.5 2.3zm7.9.1c-.6 0-1.1-.1-1.4-.5-.5-.4-.5-.7-.5-1.5V132l.7-1.2.8-.8a2 2 0 0 1 1.1-.3c.5 0 1 .1 1.2.3.2.2.4.6.4 1 0 .2-.2.5-.4.8-.2.4-.5.6-1 .8-.4.2-1 .2-1.8.2v.4c-.2.4-.2.7 0 1 .3.2.6.3 1.1.3h.7a5 5 0 0 0 .7-.5v.9a6 6 0 0 1-.7.1l-1 .2zm-1-3h.3l.8-.2c.6 0 .9-.2 1-.3.2-.2.3-.4.3-.7 0-.2 0-.3-.2-.4l-.5-.2c-.3 0-.7.2-1 .6-.2.2-.5.6-.6 1zm5.1 3h-.9l-.6-.4v-.7l.7.3.8.1c.4 0 .7 0 .9-.2l.3-.6c0-.2 0-.4-.2-.5l-.7-.5-.9-.6-.3-.9c0-.4.2-.8.5-1 .4-.5.8-.6 1.4-.6l.9.2.7.3-.3.7-.6-.3h-1.4c-.3.3-.3.5-.3.7 0 .1 0 .3.2.4l.7.5.6.4.5.5.1.6c-.1.5-.2 1-.6 1.2-.4.3-.9.4-1.5.4zm4.3 0h-.8l-.7-.4v-.7l.7.3.8.1c.4 0 .7 0 .9-.2l.3-.6c0-.2 0-.4-.2-.5l-.7-.5-.9-.6-.2-.9c0-.4.1-.8.5-1 .3-.5.7-.6 1.3-.6l.9.2c.3 0 .5.2.7.3l-.3.7-.6-.3h-1.4c-.2.3-.3.5-.3.7l.2.4.7.5.6.4.5.5.1.6c0 .5-.2 1-.6 1.2-.3.3-.8.4-1.5.4zm-42.9 12-1-.2-.7-.1v-1l.7.5h1l.8-.1.6-.5c.2-.2.2-.4.2-.7 0-.3 0-.5-.2-.7l-1-.7a4.4 4.4 0 0 1-.5-.4 1.9 1.9 0 0 1-.6-.6l-.1-.7c0-.5 0-.9.3-1.2a2 2 0 0 1 .8-.8 3 3 0 0 1 1.3-.1h1l.7.5-.3.6-.7-.2-.7-.2c-.5 0-.8.1-1 .4-.4.2-.5.5-.5.9l.1.5.4.3.5.4.8.5a2 2 0 0 1 .5.6l.2.8c0 .7-.3 1.3-.7 1.6-.5.4-1.1.6-2 .6zm5 0c-.4 0-.7-.2-1-.3-.1-.1-.2-.4-.2-.9v-.7l.6-2.9H2v-.4l1-.4.6-1h.5l-.1 1h1.2l-.1.8H3.7l-.6 3v.8l.4.3H4l.2-.3v.8l-.2.1a2 2 0 0 1-.6 0zm3.4 0c-.4 0-.8-.2-1-.3-.3-.3-.4-.6-.4-1v-.5l.2-.4.6-3.3h1l-.9 3.4v1.2l.7.2.8-.3c.2-.1.5-.4.6-.8.3-.3.5-.8.6-1.4l.5-2.3h.9l-1.2 5.4h-.7l.1-1.1-.6.6c0 .2-.2.3-.5.4l-.7.2zm5.8 0c-.4 0-.8-.2-1-.5-.3-.3-.4-.7-.4-1.3l.1-1.4c.1-.5.3-1 .7-1.2 0-.4.4-.8.7-.9a2 2 0 0 1 1-.3c.5 0 .8.1 1.1.4l.2.6a35.2 35.2 0 0 1 .5-1.4l.3-1.7h.8L15 147h-.7l.1-1-.8.9c-.3.1-.6.3-1 .3zm.4-.7.6-.3.6-.6.5-1 .1-1.2c0-.3 0-.4-.2-.7-.2-.2-.4-.3-.8-.3-.2 0-.5 0-.7.2l-.6.7-.3 1-.2 1c0 .9.3 1.3 1 1.3zM16.2 149.5h-.4l-.3-.1v-.7h.7c.2.1.5.1.6-.1l.6-.8.4-.6-.9-5.5H18l.1 2.7v1.4l.3.6a28.3 28.3 0 0 1 .4-1.2l.3-.5 1.6-3h1l-3.6 6.3c-.1.5-.5.9-.8 1-.2.4-.6.5-1 .5zm7-2.5 3.8-7h1l.9 7h-1l-.1-2h-2.5l-1.3 2zm2.5-3h2l-.3-1.3V141h-.2a14 14 0 0 1-.3.7l-.4.9zm3.9 3 1.2-5.2h.7l-.1.9.6-.5.4-.4.6-.2h.3l.3.1-.2.8H33c-.4-.1-.7-.1-.9.2l-.7.9-.4 1-.5 2.5zm5.9.2c-.5 0-1-.2-1.4-.6-.3-.3-.5-.8-.5-1.4 0-.5 0-.9.2-1.3l.5-1.1c.3-.4.5-.8.9-.9a2 2 0 0 1 1-.3c.7 0 1.1.1 1.3.4.2.2.3.5.3.9l-.3 1-1 .5c-.5.3-1 .4-1.8.4h-.2v.2c0 .5.1 1 .3 1.1.2.2.5.4.9.4l.7-.1a5 5 0 0 0 .8-.4v.8a6 6 0 0 1-.8.2h-.9zm-.9-3.2H35.8l.8-.4c.2-.2.4-.4.4-.7l-.2-.4-.6-.1c-.2 0-.6.1-.9.4-.3.3-.5.7-.7 1.3zm5.4 3.2c-.3 0-.6-.2-1-.5-.3-.3-.4-.7-.4-1.3 0-.5 0-1 .2-1.5l.5-1.2c.3-.3.5-.6.9-.7a2 2 0 0 1 1-.4c.4 0 .8.1.9.4l.5.6.4-.9h.6l-1.1 5.4h-.7l.1-1.1-.9.9c-.2.1-.6.3-1 .3zm.4-.7c.2 0 .4-.1.7-.3l.6-.7a4 4 0 0 0 .4-1 3 3 0 0 0 .1-.7 4 4 0 0 0 0-.4c.1-.3.1-.4-.2-.7-.2-.2-.4-.3-.7-.3-.2 0-.5 0-.7.2a2 2 0 0 0-.6.7l-.4 1-.1 1c0 .5 0 .7.2 1l.6.2zm-.1 0" style="fill:none;stroke:#fff;stroke-width:2;stroke-linecap:butt;stroke-linejoin:round;stroke-miterlimit:10;stroke-opacity:.6" transform="rotate(  340 56.6163 132.147) translate(35.527621)"/> <g style="fill:#007f00;fill-opacity:1" transform=" rotate(  340 56.6163 132.147) ">  <use xlink:href="#r" x="27.1" y="123.2"/>  <use xlink:href="#k" x="35.4" y="123.2"/>  <use xlink:href="#w" x="40.4" y="123.2"/>  <use xlink:href="#m" x="44.7" y="123.2"/>  <use xlink:href="#glyph1-3" x="48.1" y="123.2"/>  <use xlink:href="#y" x="50.7" y="123.2"/>  <use xlink:href="#s" x="56.3" y="123.2"/>  <use xlink:href="#z" x="58.9" y="123.2"/>  <use xlink:href="#v" x="64.5" y="123.2"/>  <use xlink:href="#k" x="70.3" y="123.2"/>  <use xlink:href="#k" x="75.3" y="123.2"/>  <use xlink:href="#u" x="80.3" y="123.2"/>  <use xlink:href="#r" x="31.7" y="135.1"/>  <use xlink:href="#s" x="40.3" y="135.1"/>  <use xlink:href="#p" x="42.9" y="135.1"/>  <use xlink:href="#t" x="45.4" y="135.1"/>  <use xlink:href="#k" x="51.2" y="135.1"/>  <use xlink:href="#u" x="56.2" y="135.1"/>  <use xlink:href="#v" x="60.2" y="135.1"/>  <use xlink:href="#k" x="66" y="135.1"/>  <use xlink:href="#w" x="71" y="135.1"/>  <use xlink:href="#w" x="75.3" y="135.1"/>  <use xlink:href="#A" x="32" y="147.1"/>  <use xlink:href="#m" x="37.1" y="147.1"/>  <use xlink:href="#B" x="40.4" y="147.1"/>  <use xlink:href="#t" x="46.2" y="147.1"/>  <use xlink:href="#C" x="52" y="147.1"/>  <use xlink:href="#glyph1-3" x="56.7" y="147.1"/>  <use xlink:href="#x" x="59.3" y="147.1"/>  <use xlink:href="#u" x="64.9" y="147.1"/>  <use xlink:href="#k" x="68.7" y="147.1"/>  <use xlink:href="#o" x="73.6" y="147.1"/> </g></svg>