<svg xmlns="http://www.w3.org/2000/svg" xmlns:xlink="http://www.w3.org/1999/xlink" viewBox="0 0 497 279"> <defs overflow="visible" style="stroke:none">  <path id="Y" d="m.3 0 1.6-7.6h.9l-.8 3c.1.6 0 1-.2 1.3l-.1.5 2.5-2.6h1L3-3l1.4 3h-1L2.3-2.5l-.7.5-.4 2Zm0 0"/>  <path id="X" d="M.4 0 2-7.1h1.5c.8 0 1.3.1 1.7.5.3.3.5.8.5 1.3 0 .8-.3 1.5-.8 1.9-.6.4-1.3.6-2.4.6H2L1.3 0ZM2-3.5h.7c.6 0 1.1-.2 1.5-.5.4-.2.6-.7.6-1.3 0-.2-.2-.5-.4-.7-.2-.3-.4-.4-1-.4h-.7Zm0 0"/>  <path id="W" d="m1.9 2.4-1-.1-.6-.2v-.9c.2.2.5.2.7.4a3 3 0 0 0 .8.1c.4 0 .8-.1 1-.3.3-.2.5-.6.6-1l.1-.4.1-.5.1-.5-.8.8c-.3.2-.6.2-.9.2s-.8-.1-1-.4C.6-.7.5-1 .5-1.7c0-.5 0-1 .2-1.4 0-.5.3-.9.5-1.2.2-.4.5-.7.8-.8a2 2 0 0 1 1.1-.4c.4 0 .7.1.9.3l.5.7.3-.9h.7L4.3.3c-.2.8-.5 1.3-.9 1.7-.4.2-1 .4-1.4.4Zm.3-3c.3 0 .5-.1.8-.4l.5-.5.5-1 .2-1.1c0-.4-.2-.6-.3-.8-.1-.2-.4-.3-.7-.3-.3 0-.5 0-.7.2-.3.2-.5.5-.6.7l-.4 1-.1 1.1c0 .7.3 1 .8 1Zm0 0"/>  <path id="V" d="M3.3 0c-.8 0-1.5 0-2-.5C1-1.1.8-1.8.8-2.6.7-3.1.7-3.5 1-4c-.1-.4 0-.8.3-1.2l.8-1L3-7l1.7-.2c.5 0 1.1.1 1.6.4l-.3.7a4 4 0 0 0-.7-.2l-.7-.2c-.6 0-1 .2-1.3.5-.4 0-.7.4-1 .8A4 4 0 0 0 1.9-4l-.2 1.3c0 .7.1 1.1.3 1.5.4.3 1 .5 1.4.5h.8L5-1v.8l-.8.2a5 5 0 0 1-1 0Zm0 0"/>  <path id="U" d="m-.6 0 4-7.1h.8L5 0h-.7L4-2.2H1.6L.4 0ZM2-3h1.9l-.2-1.5v-1.7h-.2a14 14 0 0 1-.3.8l-.4 1Zm0 0"/>  <path id="T" d="M1.4 0 1-7.1h1v6a25.3 25.3 0 0 1 .9-1.8l1.9-4.2h.9L5.9-3v2l.5-1 .2-.7 1.9-4.4h1L6.1 0h-.9v-4.6A35 35 0 0 1 5-6l-.3.6-.2.8L2.3 0Zm0 0"/>  <path id="S" d="m.3 0 1.1-5.4h.7v1l.4-.5.6-.4.7-.2c.4 0 .7.2.9.5.2 0 .3.4.3.7l.5-.5.6-.5.9-.2c.3 0 .6.2.9.5.1 0 .2.4.2.9v.4l-.1.4L7.4 0h-.9l.7-3.4v-.4l.2-.2c-.1-.3-.1-.4-.3-.5 0-.2-.1-.2-.5-.2-.2 0-.4 0-.6.2l-.7.8c-.3.3-.4.7-.5 1.3L4.3 0h-1l.9-3.4v-1.1c-.4-.2-.5-.2-.8-.2-.1 0-.3 0-.6.2l-.6.8c-.3.3-.4.7-.5 1.4L1.2 0Zm0 0"/>  <path id="R" d="M.8 0 .6-5.4h.8l.1 2.9v1.7a13.8 13.8 0 0 1 .5-1l.2-.5 1.4-3h1v2.7a25.5 25.5 0 0 1 .2 1.8l.3-.9.4-1 1.2-2.7h1L5 0h-.9l-.2-3v-1.4l-.3.6-.4.8-1.4 3Zm0 0"/>  <path id="Q" d="M1.8 0H1L.2-.2v-.9l.7.3 1 .1.8-.1.6-.4c.2-.2.2-.6.2-.8 0-.3 0-.5-.2-.7l-1-.6a4.4 4.4 0 0 1-.6-.5 1.9 1.9 0 0 1-.5-.6L1-5.2c0-.4.1-.8.4-1.1a2 2 0 0 1 .8-.7 3 3 0 0 1 1.2-.2h1l.8.5-.4.6-.6-.2-.8-.2c-.4 0-.7.2-1 .5-.4 0-.4.4-.4.8l.1.5.4.4.5.3.8.5a2 2 0 0 1 .5.6l.2.9c0 .6-.3 1.2-.8 1.5-.3.5-.9.6-1.8.6Zm0 0"/>  <path id="P" d="M.3-2.3.4-3h4v.7Zm0 0"/>  <path id="O" d="M.4 0 2-7.1h1.8c.6 0 1.2 0 1.5.3.4.3.7.8.7 1.3-.1.5-.3.9-.5 1.2-.3.3-.7.5-1.2.6l.7.5c.3.3.4.6.4 1 0 .5 0 .9-.3 1.2L4-.2 2.7 0Zm1.8-4h1.1l.9-.3.5-.4c.3-.2.3-.3.3-.7 0-.3-.1-.5-.3-.6-.2-.3-.7-.4-1-.4h-1ZM1.5-.9h1.2c.6.1 1 .1 1.3-.1.3-.4.5-.7.5-1.2 0-.3-.1-.6-.3-.8-.2-.3-.6-.4-1-.4H2Zm0 .1"/>  <path id="N" d="M.4 0 2-7.1h3.5l-.1.8H2.6l-.5 2.5h2.6l-.2.8H1.9l-.6 3Zm0 0"/>  <path id="M" d="m.3 0 1.6-7.6h.9L1.2 0Zm0 0"/>  <path id="L" d="M2.5 0C1.9 0 1.4 0 1-.4.7-.8.5-1.3.5-2l.1-1.2a4 4 0 0 1 .5-1.1c.3-.3.5-.7.9-.8.3-.2.7-.3 1.2-.3.6 0 1 .2 1.4.4.4.5.6 1.1.6 1.6L5-2a4 4 0 0 1-.5.9c-.2.5-.5.8-.8 1L2.5 0Zm0-.6c.5-.1.6-.1 1-.4.1-.2.3-.5.5-1 .2-.3.3-.8.3-1.4L4.2-4a1 1 0 0 0-.4-.5l-.6-.2c-.4 0-.7.1-1 .4-.2.2-.5.6-.6 1A4 4 0 0 0 1.4-2c0 .5 0 .8.3 1 .2.2.5.3.8.3Zm0-.1"/>  <path id="K" d="M2.1-6.3h-.3l-.1-.5.1-.4.4-.2c.3 0 .5.2.5.5 0 .2 0 .4-.2.5l-.4.2ZM.3 0l1.1-5.4h.9L1.2 0Zm0 0"/>  <path id="J" d="M1.8 0c-.3 0-.6 0-.8-.1C.7-.3.6-.6.6-1v-.8l.8-2.9h-1L.5-5l1-.5.5-1h.6l-.3 1h1.3l-.1.8H2.2l-.7 3v.8l.5.3h.3l.4-.3V0h-.9Zm0 0"/>  <path id="I" d="M.4 0 2-7.1h1l2 5.9a25 25 0 0 1 .5-2l.8-4H7L5.6 0h-1l-2-6-.4.7v.7L2-4l-.8 4Zm0 0"/>  <path id="H" d="M1.5 0H.7L0-.2V-1l.7.3h.8c.5.1.7.1 1-.1l.1-.7c.1-.1.1-.3-.1-.4 0-.2-.3-.3-.7-.5L1-3.1c-.2-.2-.3-.5-.3-.8 0-.5.1-.9.5-1.1.3-.3.7-.5 1.3-.5.3 0 .6 0 .9.2l.6.2-.2.7-.5-.2-.8-.1c-.3 0-.5 0-.7.2-.2.1-.2.3-.2.5l.1.5.7.5c.3 0 .6.2.6.4.2 0 .4.2.5.4l.1.7c0 .5-.2 1-.5 1.2C2.7 0 2 0 1.5 0Zm0 0"/>  <path id="G" d="M2.4 0c-.6 0-1 0-1.4-.3C.6-.8.5-1.3.5-2c0-.3 0-.8.2-1.2 0-.4.3-.8.5-1.1.2-.4.5-.7.8-.8a2 2 0 0 1 1.2-.4c.5 0 .8.2 1.1.5.3 0 .4.4.4.8 0 .3-.1.7-.3 1-.4.2-.6.4-1 .6-.6.2-1.2.3-1.9.3h-.1v.3c0 .5 0 .8.3 1 .2.3.5.4.9.4l.7-.1A5 5 0 0 0 4-1v.7a6 6 0 0 1-.7.3h-.9Zm-.9-3 1.3-.1.7-.4c.2-.1.3-.4.3-.5l-.1-.6-.7-.1c-.2 0-.5.1-.9.4L1.6-3Zm0 0"/>  <path id="F" d="M.4 0 2-7.1h1.2l.7 5.8 3.2-5.8h1.3L7 0H6l1-4.2a47.9 47.9 0 0 1 .4-2L4 0h-.7l-.8-6.3-.1.6-.1.7-.1.7-1 4.3Zm0 0"/>  <path id="E" d="M2 0c-.6 0-.9 0-1.2-.3C.6-.7.5-1 .5-1.7c0-.5 0-1 .2-1.4 0-.5.3-.9.5-1.2.2-.4.5-.7.8-.8a2 2 0 0 1 1.1-.4c.4 0 .7.1.9.3l.5.7a35.3 35.3 0 0 1 .2-1.3l.4-1.8H6L4.4 0h-.8l.1-1-.8.8c-.3.2-.6.2-.9.2Zm.1-.5c.4-.1.6-.2.9-.5l.5-.5.5-1 .2-1.1c0-.4-.2-.6-.3-.8-.1-.2-.4-.3-.7-.3-.3 0-.5 0-.8.2l-.4.7-.5 1-.1 1.1c0 .7.3 1 .8 1Zm.1-.1"/>  <path id="D" d="m.2 0 1.2-5.4h.8l-.2 1 .5-.6a2 2 0 0 1 .6-.3l.9-.2c.3 0 .6.1.9.5.1 0 .4.4.4.9v.4l-.2.5L4.4 0h-.9l.7-3.4v-.4l.2-.2c-.1-.5-.3-.7-.8-.7-.2 0-.4 0-.6.2-.3.2-.6.5-.8.8-.2.3-.4.8-.5 1.4L1.2 0Zm0 0"/>  <path id="C" d="M2 0c-.6 0-.9 0-1.2-.3C.6-.7.5-1 .5-1.7c0-.5 0-1 .2-1.5l.5-1.1c.2-.4.5-.7.8-.9a2 2 0 0 1 1.1-.3c.4 0 .6.1.9.3l.5.7.3-.9h.7L4.4 0h-.7l.1-1c-.3.3-.5.6-.9.8-.3.2-.6.2-.9.2Zm.1-.5c.4-.1.6-.2.9-.5l.6-.6a4 4 0 0 0 .4-1 3 3 0 0 0 .1-.7 4 4 0 0 0 0-.4c.1-.3.1-.5-.1-.7-.3-.2-.5-.3-.8-.3-.3 0-.5 0-.7.2a2 2 0 0 0-.6.7l-.4 1-.1 1.1c0 .4 0 .6.2.8.1.2.3.3.6.3Zm.1-.1"/>  <path id="B" d="m.3 0 1.1-5.4h.7v1l.4-.5.5-.4.7-.2H4l.3.2-.2.7h-.5c-.3-.1-.6-.1-.9.2l-.7.9-.3 1L1.2 0Zm0 0"/>  <path id="A" d="M3.4 0c-.8 0-1.4 0-2-.5C1-1.1.7-1.7.7-2.6A6 6 0 0 1 1-4.4c.2-.6.4-1 .8-1.6.2-.3.7-.6 1.2-.9.5-.1 1-.3 1.6-.3h1.1l1 .5-.5.7a7.8 7.8 0 0 0-.7-.3l-1-.2c-.5 0-.9.2-1.3.5-.6.4-.9.8-1.2 1.4a4.8 4.8 0 0 0-.4 2c.1.2.1.6.3.9 0 .4.3.6.6.7l1 .3h.7l.5-.3.6-1.9H3.8l.2-1h2.3L5.5-.3a8 8 0 0 1-1 .3h-.9Zm0 0"/>  <path d="M1 0v-7.1h4V0Zm.4-.5h3.1v-6.1h-3Zm.1 0"/>  <path id="z" d="M3 .1C2.2.1 1.7 0 1.2-.5.8-.9.6-1.5.6-2.3c0-.6 0-1 .2-1.6l.7-1.4a3 3 0 0 1 1-.9L4-6.5h.8c.2 0 .5.2.7.3l-.3.8-.5-.2H4c-.5-.1-1 0-1.3.3A3 3 0 0 0 2-4l-.3 1.7c0 .5 0 .9.3 1.1.3.3.6.4 1 .4h1a9 9 0 0 0 .6-.5v1.1L4 0 2.9.1Zm0 0"/>  <path id="y" d="M-.6 2.9H-1l-.3-.2v-.9l.3.2h.3c.3 0 .5-.1.7-.3l.4-1 1.3-6.4H.6v-.4L2-6.5V-7c.1-.6.3-1 .5-1.3.2-.3.4-.7.7-.7l1-.2h.6l.5.2L5-8l-.3-.3h-.5c-.2 0-.5 0-.7.3-.2 0-.3.5-.4 1l-.2.6h2.8l.1-.7c.2-.5.3-.9.5-1.2.2-.3.4-.7.7-.7l1-.2h.6l.6.2-.3 1-.4-.3h-.4c-.3 0-.6 0-.8.3-.2 0-.3.5-.3 1l-.3.6h1.5l-.2.8H6.6L5.3.7c-.3.7-.5 1.3-.8 1.7-.2.3-.7.6-1.2.6l-.8-.2v-1l.3.2h.4l.6-.3c.2-.2.3-.7.4-1l1.3-6.4H2.8L1.4.7C1.3 1.4 1 2 .7 2.4.4 2.7 0 3-.6 3ZM10.2-7.5l-.4-.1-.2-.5.2-.5c.2-.2.3-.2.6-.2s.5.2.5.5 0 .5-.2.6l-.5.2ZM8 0l1.4-6.4h1L9 0Zm0 0"/>  <path id="x" d="M4 .1c-1 0-1.8-.3-2.3-.9C1-1.4.9-2.2.9-3.2c0-.7 0-1.4.3-2.1A5.7 5.7 0 0 1 2-7.1c.4-.5.8-.9 1.4-1.2a3.8 3.8 0 0 1 1.8-.4c1 0 1.7.3 2.3.9.5.6.8 1.4.8 2.5 0 .7-.1 1.3-.3 2a5.5 5.5 0 0 1-.8 1.9A4 4 0 0 1 5.9-.3C5.4 0 4.7 0 4 0Zm0-1c.7.1 1 .1 1.5-.2a3 3 0 0 0 .9-1.1 5 5 0 0 0 .4-1.4 6.7 6.7 0 0 0 .3-1.8C7.1-6 7-6.7 6.6-7c-.4-.5-.8-.8-1.6-.8-.4 0-.8.3-1.2.5a3 3 0 0 0-1 .9L2.2-5A6.7 6.7 0 0 0 2-3.2c0 .7.2 1.2.5 1.7.5.5 1 .7 1.6.7Zm0 .1"/>  <path id="w" d="M-.3 2.9a3 3 0 0 1-.5 0l-.2-.2v-.8h.2l.4.1c.4 0 .6 0 .9-.3L1 .8l.5-.7-1-6.5h1.2L2-3.2l.1.7v1l.2.5a19 19 0 0 1 1-1.9L5-6.4h1.2L2 1c-.2.7-.6 1-1 1.4-.3.3-.7.6-1.3.6Zm0 0"/>  <path id="v" d="m2 0-.9-8.6h1L2.8-3v.9l.1.9a38.2 38.2 0 0 1 .9-2l2.7-5.4h1.2L3.2 0Zm0 0"/>  <path id="u" d="M2.3.1c-.5 0-1-.1-1.2-.5-.4-.4-.5-1-.5-1.7 0-.6 0-1.1.2-1.7a5 5 0 0 1 .6-1.4l1-1c.4-.2.8-.3 1.3-.3s.8 0 1 .3l.8.8v-.8l.2-.8.3-2.1h1.1L5.3 0h-.9l.1-1.2-1 1a2 2 0 0 1-1.2.2Zm.4-.8.8-.3.7-.8.6-1.2.2-1.4c0-.3 0-.6-.3-.9-.2-.2-.5-.4-.9-.4-.3 0-.6.1-.9.4-.2.2-.5.3-.6.8l-.5 1.1L1.7-2c0 .8.3 1.3 1 1.3Zm0-.1"/>  <path id="t" d="M4 .1c-1 0-1.9-.3-2.4-.8C1-1.4.9-2.1.9-3.3L1-4.7l.6-1.5c.2-.5.4-1 1-1.3a4 4 0 0 1 1.1-.9c.6-.2 1.1-.3 1.8-.3.8 0 1.5.2 2 .5l-.2.9a4.7 4.7 0 0 0-.9-.3l-.9-.1c-.6 0-1.1.1-1.6.4-.4.2-.8.6-.9 1-.5.5-.8 1-.9 1.5L2-3.2c0 .7.2 1.3.6 1.7.3.5.9.7 1.4.7L5.1-1l.9-.2v1L5 0 4 .1Zm0 0"/>  <path id="s" d="M1.8-5c-.4 0-.6-.2-.6-.6 0-.3 0-.4.2-.7.2-.2.4-.3.7-.3.2 0 .3 0 .4.2l.2.4c0 .3 0 .5-.2.7-.2.3-.5.3-.7.3ZM.8.2C.5.2.3 0 .3-.5c-.1-.2 0-.5.2-.7.1-.2.3-.3.7-.3l.4.2.1.5c.1.2.1.5-.1.7-.2.1-.4.3-.6.3Zm.1 0"/>  <path id="r" d="m.5 0 1.8-8.6h1.5l.8 7 4-7H10L8.4 0H7.3l1-5A51.5 51.5 0 0 1 9-7.6L4.8 0h-.9L3-7.5A130.9 130.9 0 0 1 2.7-6l-.1.9L1.5 0Zm0 0"/>  <path id="q" d="m.5 0 1.8-8.6h1L1.9-1H5l-.2 1Zm0 0"/>  <path id="p" d="m.5 0 1.8-8.6h2.2c.8 0 1.5.2 1.9.6.4.2.6.7.6 1.4 0 .6-.1 1-.5 1.4-.3.4-.8.6-1.4.7a2 2 0 0 1 1 .8c.3.2.4.6.4 1 0 .7-.1 1.1-.4 1.5-.3.4-.7.7-1.2.9-.5.2-.9.3-1.7.3Zm2.1-5H5l.7-.7c.2-.1.3-.3.3-.8 0-.3-.2-.5-.4-.8-.2-.2-.6-.3-1.2-.3H3.2Zm-.9 4h1.7c.5 0 1.1 0 1.4-.3.4-.4.6-.7.6-1.4 0-.3-.1-.7-.4-1-.2-.1-.7-.3-1.3-.3H2.5Zm.1 0"/>  <path id="o" d="M1.9.1.9 0C.4 0 .2-.2 0-.3v-1l.8.4a3 3 0 0 0 1 .2c.5-.1.9-.1 1.2-.3.2-.2.3-.5.3-.8 0-.2-.1-.3-.3-.5a4.7 4.7 0 0 0-.8-.7c-.5-.2-.8-.4-1-.7-.3-.3-.4-.6-.4-1 0-.6.2-1 .6-1.3.4-.4 1-.5 1.6-.5h1A5 5 0 0 1 5-6l-.5.7-.5-.2a3 3 0 0 0-1-.2c-.3 0-.6.1-.8.3l-.3.6c0 .2 0 .4.1.6l.9.5.8.5.5.6.2.6c0 .8-.4 1.3-.7 1.6-.5.4-1 .5-1.8.5Zm0 0"/>  <path id="n" d="m.5 0 1.8-8.6h4.3l-.1 1H3.2l-.7 3h3.1l-.2 1h-3L1.5 0Zm0 0"/>  <path id="m" d="m.3 0 2-9.1h1L1.3 0Zm0 0"/>  <path id="l" d="m.3 0 1.4-6.5h1l-.3 1.2.6-.6.7-.5a2 2 0 0 1 1-.2c.5 0 .9.2 1.2.4.3.3.4.7.4 1.2v.6l-.1.5L5.3 0H4.2l.9-4v-1c.1-.4-.1-.6-.6-.6s-.7 0-1 .3c-.3.1-.6.3-.9.8L2-2.8 1.4 0Zm0 0"/>  <path id="k" d="M3 0c-.8 0-1.4 0-1.8-.5C.8-1 .6-1.6.6-2.4c0-.5 0-1 .2-1.4.1-.5.2-1 .6-1.4.2-.4.6-.7 1-1 .4-.1.9-.2 1.4-.2.7-.1 1.3.1 1.7.6.5.4.7 1 .7 1.8 0 .5 0 1-.2 1.4l-.6 1.4-1 1C4 0 3.5 0 3 0Zm0-.7c.4-.1.8-.2 1-.5.5-.2.7-.6.9-1.1a5.3 5.3 0 0 0 .2-1.9 2 2 0 0 0-.1-.7l-.4-.5c-.2-.2-.6-.2-.8-.2-.4 0-.8.1-1.1.4-.4.3-.7.7-.8 1.2-.2.5-.3 1-.3 1.7 0 .5.2.8.4 1.1.3.3.6.4 1 .4Zm0-.1"/>  <path id="j" d="M2.3.1c-.5 0-1-.1-1.2-.5-.4-.4-.5-1-.5-1.7 0-.6 0-1.1.2-1.7l.7-1.4 1-1c.3-.2.8-.3 1.2-.3.5 0 .8 0 1 .3l.8.8.3-1h.8L5.2 0h-.8l.1-1.2-1 1a2 2 0 0 1-1.2.2Zm.4-.8c.3-.1.5-.3.8-.4.3-.2.6-.5.8-.9l.5-1.2.2-.6v-.6c0-.3-.1-.6-.3-.9-.2-.2-.5-.4-.9-.4-.3 0-.6.1-.8.3l-.7.8-.5 1.2L1.7-2c0 .4 0 .7.2 1 .2 0 .4.2.8.2Zm0-.1"/>  <path id="i" d="m.5 0 1.8-8.6h1.1l2.7 7.1a34.6 34.6 0 0 1 .4-2.4l1-4.7h1L6.7 0H5.6L2.9-7.1v.7a21.3 21.3 0 0 1-.5 1.7L1.5 0Zm0 0"/>  <path id="h" d="m.3 0 1.4-6.4h.9l-.2 1.2h.1A9 9 0 0 1 3-6l.6-.4.9-.1H5v1h-.7c-.3-.1-.8-.1-1 .2-.5.4-.7.7-.9 1.1-.2.4-.4.8-.4 1.3L1.4 0Zm0 0"/>  <path id="g" d="M1.3 0 .6-6.4h1L2-3v1l.2.7v.5l.4-.7.2-.8.4-.6L5-6.4h1.2L2.7 0Zm0 0"/>  <path id="f" d="m.5 0 1.8-8.6h1.9c1.7 0 2.6.8 2.6 2.2 0 .6-.1 1.2-.5 1.6-.3.5-.8.8-1.6 1L6 0H5L3.7-3.5H2.3L1.6 0Zm2-4.5h1c.6 0 1.2-.1 1.6-.5.4-.3.6-.8.6-1.3s-.1-.9-.4-1c-.3-.2-.7-.3-1.2-.3H3Zm0 0"/>  <path id="e" d="M3 .1C2.1.1 1.5 0 1.1-.5.8-1 .6-1.5.6-2.3c0-.5 0-1 .2-1.5.1-.5.4-1 .6-1.4l1-1c.5-.2 1-.3 1.5-.3s.9 0 1.3.3c.3.3.4.7.4 1.2 0 .4-.1.8-.4 1-.2.5-.6.8-1.2 1l-2 .1h-.3v.6c-.1.3-.1.8.3 1.1.2.3.6.4 1 .4h1l.8-.5v1c-.3 0-.6.2-.8.3L3 .1ZM1.7-3.6H2c.4 0 1 0 1.2-.2.4 0 .8-.2 1-.4.3-.2.4-.4.4-.8 0-.2 0-.3-.2-.5l-.7-.2c-.4 0-.7.2-1 .7-.5.2-.7.7-1 1.4Zm.1 0"/>  <path id="d" d="M2.2.1c-.4 0-.8 0-1-.3-.5-.2-.6-.6-.6-1l.2-1.1.7-3.2h-1l.1-.6 1.1-.5.8-1.3H3l-.3 1.5h1.8l-.3.8H2.6l-.8 3.5V-1l.7.3h.3l.4-.3v.9l-.4.1-.6.1Zm0 0"/>  <path id="c" d="M2.6-7.5 2-7.6v-.5c0-.2 0-.3.2-.5.1-.2.3-.2.5-.2.3 0 .5.2.5.5s0 .5-.2.6l-.4.2ZM.3 0l1.4-6.4h1L1.5 0Zm0 0"/>  <path id="b" d="m.3 0 2-9.1h1l-.5 2.3-.2.8-.2.8.6-.6.7-.5a2 2 0 0 1 1-.2c.5 0 .9 0 1.1.4.3.1.5.7.5 1.1v.6L6-4l-.7 4h-1L5-4l.2-.8c0-.3 0-.5-.2-.6-.1-.2-.3-.3-.6-.3l-1 .3-.7 1c-.4.4-.6.9-.7 1.5L1.4 0Zm0 0"/>  <path id="a" d="m1.6 0-.3-8.6h1l.2 5.3v2a22.4 22.4 0 0 1 .9-2.2l2.4-5h1l.3 4.9A50.6 50.6 0 0 1 7-1.3l.6-1a14 14 0 0 1 .4-1l2.2-5.4h1.1L7.4 0h-1L6-5.5v-1.7c0 .3-.2.5-.3.7 0 .3-.2.6-.4 1L2.8 0Zm0 0"/>  <path d="M1.1 0v-8.6h5V0Zm.6-.6h3.8V-8H1.7Zm0 0"/> </defs> <image xlink:href="svg/9/93_0.jpg" width="497" height="279"/> <path d="m403.8 108.3-.3-8.5h1l.2 5.2v2a22.4 22.4 0 0 1 .9-2.2l2.3-5h1.1l.3 5a50.6 50.6 0 0 1 0 2.2l.4-1a14 14 0 0 1 .4-1l2.3-5.3h1.1l-3.9 8.6h-1l-.4-5.5v-1.7h-.1l-.2.9-.4.9-2.6 5.3Zm9 0 2-9.1h.9l-.4 2.4-.3.7-.1.8.6-.6.7-.5a2 2 0 0 1 1-.2c.3 0 .8.1 1 .4.4.3.5.7.5 1.2v1l-1.1 4h-.8l.8-4.2V102.9c-.3-.2-.6-.2-.8-.2-.2 0-.5 0-.8.2-.4.2-.7.5-.9 1.1-.3.3-.5.9-.7 1.6l-.4 2.7Zm9.2-7.5-.4-.1c-.2-.1-.2-.3-.2-.4 0-.3 0-.4.2-.6l.4-.2c.5 0 .6.2.6.5s0 .5-.2.6c-.1.2-.3.2-.4.2Zm-2.2 7.5 1.2-6.3h1.1l-1.2 6.3Zm4.9.1c-.4 0-.7 0-1-.3-.5-.1-.6-.5-.6-1l.2-1.1.7-3.2h-1l.1-.6 1.1-.4.8-1.4h.6l-.3 1.6h1.6l-.2.7h-1.6l-.7 3.5-.1.4v.8l.6.2h.4l.4-.3v.9l-.4.2h-.6Zm4.7 0c-.8 0-1.3-.2-1.7-.6-.4-.5-.7-1-.7-1.8 0-.5 0-1 .3-1.5.1-.5.3-1 .6-1.5l1.1-.9c.3-.1.8-.3 1.3-.3.6 0 1 .1 1.3.4.4.2.5.6.5 1 0 .6-.1 1-.4 1.3-.2.3-.6.5-1.2.7-.5.2-1.3.3-2.1.3h-.2v.5c-.1.5-.1.9.2 1 .3.4.6.6 1.1.6s.8 0 1.1-.2l.6-.3v.9l-.8.3-1 .1Zm-1-3.7 1.3-.1 1-.6c.3 0 .4-.3.4-.7-.1-.2-.1-.3-.2-.5l-.7-.2c-.4 0-.7.2-1 .6-.5.3-.8.8-1 1.5ZM436 108.3l2-8.5h1.8c1.7 0 2.6.7 2.6 2.1 0 .6-.1 1.2-.4 1.6-.4.5-.9.8-1.7 1l1.4 3.8h-1.2l-1.2-3.5h-1.4l-.7 3.5Zm2.2-4.3h.9c.6-.1 1.2-.3 1.6-.7.3-.3.6-.8.6-1.3s-.1-.8-.3-1c-.4-.2-.8-.3-1.3-.3h-1ZM445 100.8l-.4-.1-.1-.4.1-.6.6-.2c.3 0 .5.2.5.5s0 .5-.2.6c-.1.2-.3.2-.5.2Zm-2.2 7.5 1.4-6.3h1l-1.2 6.3Zm4.1 0-.9-6.3h1.2l.4 3.5v1.5l.2.5.2-.7.4-.7.3-.7 2-3.4h.9l-3.2 6.3Zm7.1.1c-.6 0-1.1-.2-1.6-.6-.4-.5-.6-1-.6-1.8 0-.5 0-1 .2-1.5 0-.5.3-1 .6-1.5l1-.9c.4-.1.9-.3 1.4-.3.6 0 1 .1 1.3.4.3.2.5.6.5 1 0 .6-.1 1-.4 1.3-.3.3-.7.5-1.2.7-.6.2-1.3.3-2.2.3h-.2v.5c0 .5.2.9.4 1 .2.4.6.6 1 .6s.8 0 1.1-.2l.7-.3v.9l-.9.3-1 .1Zm-1-3.7 1.5-.1.9-.6c.2 0 .4-.3.4-.7l-.2-.5-.7-.2c-.4 0-.7.2-1.1.6-.4.3-.6.8-.8 1.5Zm4.5 3.6 1.5-6.3h.7l-.1 1a9 9 0 0 1 .7-.6l.5-.4c.2-.2.5-.2.8-.2h.7l-.2 1h-.6c-.5-.1-.8-.1-1.1.2l-.8 1.1-.4 1.3-.6 3Zm-47.9 14.3 1.8-8.5h1.1l2.6 6.9a34.6 34.6 0 0 1 .6-2.1l.9-4.9h1l-1.8 8.6h-1.1l-2.7-7-.1.5a21.3 21.3 0 0 1-.4 1.9l-1 4.6Zm10.3.2c-.5 0-1-.2-1.3-.6-.3-.4-.5-1-.5-1.6 0-.6.1-1.2.3-1.7.1-.6.3-1 .6-1.5l1-1c.4-.1.8-.2 1.3-.2.4-.1.7 0 1 .2.3.3.5.6.7.8l.4-1h.7l-1.3 6.4h-.9l.2-1.1-1.1.9a2 2 0 0 1-1.1.4Zm.3-1c.3.1.6.1.9-.1.3-.4.5-.7.7-1.1.3-.2.5-.6.6-1l.1-.8v-.5c0-.4 0-.7-.3-1-.2-.2-.5-.3-.8-.3-.4 0-.6 0-.9.3-.2.2-.5.4-.7.7l-.4 1.2-.2 1.4c0 .4 0 .7.3 1 .1.2.4.3.7.3Zm6.4 1c-.4 0-.8-.1-1.1-.3-.3-.3-.5-.6-.5-1.1v-.9l1-3.5h-1.1v-.5l1.3-.4.6-1.3h.6l-.3 1.4h1.6l-.1.8H427l-.8 3.5v.5l-.2.2c.1.2.1.4.3.5l.4.3h.5l.4-.3v.9h-.5l-.5.3Zm4.4-7.7-.6-.1-.1-.4.2-.6c.1-.1.3-.2.5-.2.4 0 .6.2.6.5s0 .5-.2.7c-.2.1-.4.1-.5.1Zm-2.4 7.5 1.5-6.4h.9l-1.3 6.4Zm5.8.1c-.7 0-1.3-.2-1.7-.6-.5-.5-.7-1.1-.7-1.8 0-.5 0-1 .2-1.5l.6-1.3c.3-.5.6-.8 1-1 .4-.2 1-.4 1.4-.4.8 0 1.4.3 1.8.7.4.4.6 1 .6 1.8 0 .5 0 1-.2 1.5-.1.5-.3.9-.6 1.3-.2.4-.6.7-1 1-.4.2-.8.3-1.4.3Zm0-.7c.6-.1.9-.3 1.2-.5.2-.3.5-.7.7-1.2a5.3 5.3 0 0 0 .3-1.8 2 2 0 0 0-.2-.7c0-.2-.2-.4-.4-.6l-.8-.2c-.4 0-.8.2-1 .5-.5.3-.8.7-.9 1.2-.1.5-.3 1-.3 1.6 0 .5.2.9.4 1.2.3.2.6.4 1 .4Zm4.1.6 1.4-6.4h1l-.3 1.2.6-.6.8-.5a2 2 0 0 1 1-.3c.4 0 .8.2 1 .5.4.3.5.7.5 1.2v.6l-.1.4-.9 4h-1l.7-4.2v-.7c.2-.5 0-.8-.5-.8l-1 .3-.9.9-.6 1.7-.6 2.7Zm9 .2c-.5 0-1-.2-1.3-.6-.2-.4-.5-1-.5-1.6 0-.6.1-1.2.3-1.7 0-.6.3-1 .6-1.5l1-1c.4-.1.8-.2 1.4-.2.3-.1.7 0 .9.2.3.3.5.6.6.8l.5-1h.7l-1.3 6.4h-.9l.2-1.1-1 .9a2 2 0 0 1-1.2.4Zm.3-1c.3.1.6.1.9-.1.3-.4.5-.7.7-1.1.3-.2.6-.6.6-1l.1-.8v-.5c0-.4 0-.7-.3-1-.2-.2-.5-.3-.8-.3-.3 0-.6 0-.9.3-.1.2-.5.4-.7.7l-.4 1.2-.2 1.4c0 .4 0 .7.3 1 .1.2.4.3.7.3ZM452.3 122.6l2-9h.9l-1.9 8.9ZM416.5 137l1.8-8.6h4.3l-.2 1h-3.2l-.7 2.9h3v1.1h-3.1l-1 3.6Zm8.2 0c-.8 0-1.4-.1-1.8-.5-.4-.5-.6-1.1-.6-1.9 0-.5 0-1 .2-1.5.1-.5.3-.9.5-1.3.3-.4.7-.7 1-1 .5-.2 1-.3 1.5-.3.8 0 1.3.2 1.8.5.3.6.6 1.1.6 2 0 .4 0 1-.2 1.4-.1.6-.4 1-.7 1.3-.2.4-.5.8-1 1-.3.3-.8.4-1.3.4Zm0-.7c.4-.1.8-.3 1-.5.5-.3.7-.7.9-1.2a5.3 5.3 0 0 0 .2-1.8 2 2 0 0 0-.1-.7l-.4-.5c-.3-.2-.5-.3-.8-.3-.4 0-.8.2-1.1.5-.4.2-.6.7-.8 1.2-.2.5-.3 1-.3 1.6 0 .5.2 1 .4 1.2.3.2.6.4 1 .4ZM428.8 137l1.4-6.5h.8v1.2a9 9 0 0 1 .6-.6l.4-.5.9-.2h.4l.3.1-.2 1-.6-.1c-.4 0-.8.1-1.1.4-.3.2-.6.6-.8 1l-.4 1.2-.6 3Zm7.1.1c-.7 0-1.3-.2-1.7-.7-.4-.4-.6-1-.6-1.7 0-.5 0-1 .2-1.7.1-.4.4-.9.6-1.2l1-1c.4-.2.9-.4 1.4-.4.6 0 1 .2 1.4.4.3.3.4.6.4 1.2 0 .3-.1.7-.4 1.1-.2.3-.6.6-1.2.8-.5.1-1.3.3-2 .3h-.3v.4c-.1.5-.1 1 .3 1.2.2.3.6.4 1 .4l1-.1.7-.4v1l-.7.3h-1Zm-1-3.8h1.3l1-.6c.3-.1.4-.4.4-.7 0-.2 0-.4-.2-.5l-.7-.2c-.4 0-.7.2-1 .5-.5.4-.7.9-1 1.5Zm5.9 3.8-1-.1-.8-.3v-1l.8.4a3 3 0 0 0 1 .1c.5 0 .8 0 1-.2.4-.2.6-.5.6-.8l-.4-.6a4.7 4.7 0 0 0-.8-.5l-1-.8c-.4-.3-.5-.6-.5-1 .1-.7.3-1.1.7-1.5.4-.2 1-.4 1.6-.4.4 0 .7 0 1 .2a5 5 0 0 1 1 .3l-.5.8-.6-.3a3 3 0 0 0-1 0c-.2-.1-.4-.1-.6.1-.3.2-.4.4-.4.7 0 .2 0 .4.1.5.2.3.5.4.9.6l.7.5.6.5.1.8c0 .7-.2 1.2-.6 1.5-.5.3-1.1.5-1.9.5Zm5.6 0c-.4 0-.8-.1-1.1-.3-.3-.2-.4-.6-.4-1.1v-.9l.9-3.5h-1.1v-.3l1.3-.6.6-1.3h.6l-.2 1.4h1.5l-.1.8h-1.6l-.8 3.5v.4l-.2.4c.1.2.1.3.3.4-.1.2.2.2.4.2h.5l.4-.2v.9l-.5.1-.5.1Zm0 0" style="fill:none;stroke-width:2;stroke-linecap:butt;stroke-linejoin:round;stroke:#fff;stroke-opacity:.6;stroke-miterlimit:10" transform=" rotate(  340 433.875 119.646) "/> <g style="fill:green;fill-opacity:1" transform=" rotate(  340 433.875 119.646) ">  <use xlink:href="#a" x="402.2" y="108.3"/>  <use xlink:href="#b" x="412.5" y="108.3"/>  <use xlink:href="#c" x="419.4" y="108.3"/>  <use xlink:href="#d" x="422.5" y="108.3"/>  <use xlink:href="#e" x="426.5" y="108.3"/>  <use xlink:href="#glyph0-6" x="432.5" y="108.3"/>  <use xlink:href="#f" x="435.6" y="108.3"/>  <use xlink:href="#c" x="442.5" y="108.3"/>  <use xlink:href="#g" x="445.6" y="108.3"/>  <use xlink:href="#e" x="451.2" y="108.3"/>  <use xlink:href="#h" x="457.2" y="108.3"/>  <use xlink:href="#i" x="409.1" y="122.6"/>  <use xlink:href="#j" x="417.6" y="122.6"/>  <use xlink:href="#d" x="424.4" y="122.6"/>  <use xlink:href="#c" x="428.4" y="122.6"/>  <use xlink:href="#k" x="431.4" y="122.6"/>  <use xlink:href="#l" x="438.2" y="122.6"/>  <use xlink:href="#j" x="445.2" y="122.6"/>  <use xlink:href="#m" x="452" y="122.6"/>  <use xlink:href="#n" x="416" y="137"/>  <use xlink:href="#k" x="421.7" y="137"/>  <use xlink:href="#h" x="428.5" y="137"/>  <use xlink:href="#e" x="433" y="137"/>  <use xlink:href="#o" x="439" y="137"/>  <use xlink:href="#d" x="444.2" y="137"/> </g> <path d="m256.8 70 1.8-8.4h2.2c.8-.1 1.4.1 1.9.4.3.3.7.8.7 1.5 0 .5-.2 1-.6 1.4-.3.4-.8.6-1.4.7a2 2 0 0 1 1 .8c.3.1.4.5.4 1 0 .6-.1 1.1-.4 1.6-.4.3-.7.6-1.2.8-.5.2-1 .2-1.7.2Zm2.1-4.7h1.4c.4-.1.7-.1 1-.3l.7-.5c.2-.2.2-.5.2-.9s0-.6-.2-.9c-.4-.2-.8-.2-1.3-.2h-1.2Zm-.9 3.9h1.6c.6 0 1.2-.2 1.4-.5.5-.3.7-.7.7-1.3 0-.4-.1-.7-.4-1-.2-.1-.7-.4-1.3-.4h-1.3Zm6 .8 1.8-8.4h1l-1.5 7.5h3.2l-.2 1Zm5.7 0 1.8-8.4h1.5l1 6.9 3.7-7h1.7l-1.8 8.6h-1.1l1-5.1a51.5 51.5 0 0 1 .8-2.5l-4.3 7.6h-.8l-1-7.5a130.9 130.9 0 0 1-.2 1.4l-.2.9-1 5.2Zm11.4-5c-.4 0-.6 0-.6-.4s0-.6.2-.8c.3-.2.4-.3.7-.3l.6.1v.5c0 .3 0 .5-.2.7-.1.2-.4.3-.7.3Zm-1 5.4c-.2-.1-.4-.4-.4-.9-.1-.1-.1-.4.1-.5.1-.3.4-.4.7-.4.2 0 .3 0 .4.2l.2.5-.2.7c-.2 0-.4.3-.7.3ZM289.4 70.2c-1 0-1.7-.3-2.2-.9-.6-.6-.8-1.3-.8-2.3l.1-1.6.6-1.5c.2-.5.6-1 .9-1.3a4 4 0 0 1 1.2-.9c.6-.2 1.1-.3 1.8-.3.8 0 1.5.2 2 .5l-.2.9a4.7 4.7 0 0 0-.9-.3l-.9-.2c-.6 0-1 .2-1.5.5-.5.2-.9.6-1.1 1l-.7 1.5-.2 1.6c0 .7.2 1.3.6 1.7.4.4.9.7 1.5.7l1-.1 1-.3V70h-1.1l-1.1.2Zm6.1 0c-.7 0-1.3-.2-1.7-.7-.5-.4-.8-1-.8-1.8l.3-1.5.7-1.2 1-1 1.4-.4c.6 0 1.3.2 1.6.6.5.5.7 1 .7 1.8 0 .5 0 1-.2 1.5 0 .5-.3 1-.5 1.3-.3.4-.7.8-1 1-.5.3-.9.4-1.5.4Zm0-.9c.5 0 .9-.1 1.2-.4.3-.3.5-.7.7-1.2a5.3 5.3 0 0 0 .3-1.7 2 2 0 0 0-.2-.8c0-.2-.2-.4-.4-.5-.1-.2-.4-.3-.7-.3-.5 0-.9.2-1.2.6-.2.2-.6.6-.7 1-.2.6-.3 1-.3 1.7 0 .5.1 1 .4 1.3.2.2.6.3 1 .3Zm4.1.7 2-9h1l-2 9Zm5.8.2c-.8 0-1.4-.2-1.8-.7-.4-.4-.6-1-.6-1.8 0-.5 0-1 .2-1.5.1-.5.3-.9.6-1.2l1-1c.4-.3.9-.4 1.4-.4.8 0 1.3.2 1.8.6.4.5.6 1 .6 1.8 0 .5 0 1-.2 1.5-.1.5-.4 1-.6 1.3-.3.4-.6.8-1 1-.4.3-.9.4-1.4.4Zm0-.9c.4 0 .8-.1 1-.4.5-.3.8-.7.9-1.2a5.3 5.3 0 0 0 .2-1.7 2 2 0 0 0-.1-.8c0-.2-.2-.4-.4-.5-.2-.2-.5-.3-.8-.3-.4 0-.8.2-1.1.6-.4.2-.6.6-.8 1-.2.6-.2 1-.2 1.7-.1.5-.1 1 .3 1.3.3.2.6.3 1 .3Zm4.1.7 1.5-6.3h.7v1.1a9 9 0 0 1 .5-.6l.6-.5.8-.2h.4l.3.1-.2 1-.6-.1c-.5 0-.8.1-1.1.4l-.8 1-.4 1.1-.6 3.1Zm6.5.2c-.5 0-1-.2-1.2-.6-.4-.3-.5-.9-.5-1.6 0-.6 0-1.2.2-1.7l.7-1.4c.3-.4.6-.9 1-1 .3-.2.8-.4 1.2-.4.6 0 .8.1 1 .5l.8.6.3-1h.8l-1.4 6.5h-.8l.1-1.2-1 1a2 2 0 0 1-1.2.2Zm.4-.9c.3 0 .6 0 .8-.3.3-.2.6-.5.8-.9l.5-1.1.2-.8v-.4c0-.5-.1-.8-.3-1.1-.2-.1-.5-.2-.9-.2-.3-.1-.5 0-.8.2l-.7.8-.5 1.2-.1 1.3c0 .5 0 .8.2 1 .2.2.4.3.8.3Zm6.4.9c-.5 0-.8-.2-1.2-.5-.3-.4-.6-1-.6-1.7.1-.6.1-1.2.3-1.7a5 5 0 0 1 .7-1.3l1-1.1c.3-.2.8-.4 1.3-.4.4 0 .7.1 1 .5l.6.6.1-.6.2-1 .4-2h1l-1.7 9h-1.1l.2-1-1 .9a2 2 0 0 1-1.2.2Zm.4-.9c.3 0 .5 0 .8-.3l.8-.8.5-1.1.2-1.4c0-.4 0-.7-.3-1-.1-.1-.5-.2-.9-.2-.3-.1-.6 0-.8.2l-.7.8-.5 1.2-.1 1.3c0 1 .3 1.3 1 1.3Zm7.2.9c-.7 0-1.3-.2-1.7-.7-.4-.4-.7-1-.7-1.8l.3-1.5c0-.5.3-.9.5-1.2l1-1 1.6-.4c.6 0 1.2.2 1.6.6.4.5.7 1 .7 1.8l-.2 1.5c-.2.5-.5 1-.7 1.3-.2.4-.6.8-1 1-.4.3-.8.4-1.4.4Zm.1-.9c.4 0 .7-.1 1-.4.5-.3.6-.7.8-1.2a5.3 5.3 0 0 0 .3-1.7 2 2 0 0 0-.1-.8l-.5-.5c-.2-.2-.4-.3-.7-.3-.5 0-.9.2-1.3.6-.2.2-.4.6-.6 1-.2.6-.4 1-.4 1.7.1.5.2 1 .5 1.3.2.2.5.3 1 .3Zm-64.9 15.1 1.9-8.6h1.8c1.8 0 2.7.8 2.7 2.2 0 .6-.2 1.2-.5 1.6-.3.5-.9.8-1.7 1l1.5 3.8H270l-1.1-3.4h-1.4l-.8 3.4Zm2-4.4h1.1c.7 0 1.3-.2 1.6-.6.4-.3.7-.8.7-1.3s-.3-.8-.5-1.1c-.3-.1-.7-.2-1.3-.2h-.8Zm7-3-.4-.3-.2-.4c0-.2 0-.3.2-.5l.5-.2c.4 0 .6.2.6.4s-.1.6-.3.7l-.4.2Zm-2.2 7.3 1.3-6.3h1.1l-1.4 6.4Zm4 .1-.7-6.4h1l.5 3.5v.8l.1.7v.6l.4-.6.3-.8.3-.7 1.9-3.5h1.1l-3.5 6.4Zm7.2.1c-.6 0-1.3-.2-1.6-.5-.5-.6-.7-1.1-.7-2 0-.4 0-.9.2-1.4l.7-1.4 1-1c.4-.2.8-.2 1.3-.2.6-.1 1-.1 1.5.2.2.3.4.8.4 1.3 0 .3-.2.7-.4 1-.3.3-.7.6-1.3.8-.4.2-1.1.3-1.9.3h-.5v.5c.1.5.1.8.4 1.1.3.3.6.5 1.1.5.3 0 .6 0 .9-.2l.9-.3v.8l-1 .4-.9.1Zm-1-3.7c.5 0 1 0 1.4-.2.4 0 .7-.2 1-.4.2-.2.3-.4.3-.8 0-.2 0-.3-.2-.4l-.6-.3c-.5 0-.8.3-1.1.6-.4.3-.7.7-.8 1.5Zm4.4 3.6 1.5-6.4h.8l-.1 1.2a9 9 0 0 1 .5-.7l.7-.5h1.5l-.3 1h-.6c-.4-.2-.7-.2-1 .1-.4.4-.6.7-.8 1.1l-.5 1.3-.6 3Zm9.6 0-.9-8.6h1l.7 5.5v1.9a38.2 38.2 0 0 1 1-2l2.8-5.4h1.2l-4.6 8.6Zm6.7.1c-.5 0-1-.2-1.2-.5-.4-.4-.5-1-.5-1.7 0-.6 0-1.1.2-1.7l.7-1.4 1-1c.3-.2.8-.2 1.2-.2.5-.1.8-.1 1 .2l.8.8.3-1h.8l-1.4 6.4h-.8l.1-1.2-1 1a2 2 0 0 1-1.2.2Zm.4-.8c.3 0 .6-.2.8-.4l.8-.8.5-1.3.2-.6V80l-.3-.9c-.2-.1-.5-.3-.9-.3-.3 0-.6 0-.8.2l-.7.8-.5 1.2-.1 1.4c0 .4 0 .6.2 1 .2 0 .4.2.8.2Zm4.4.7 2-9.1h.9l-1.9 9.1Zm3.1 0 2-9.1h1l-2 9.1Zm5.8.1c-.9 0-1.5-.2-1.9-.5-.3-.6-.5-1.1-.5-2 0-.4 0-.9.2-1.4.1-.6.4-1 .6-1.4l1-1c.6-.2 1-.2 1.5-.2.5-.1.9-.1 1.3.2.3.3.4.8.4 1.3 0 .3-.1.7-.4 1-.2.3-.6.6-1.2.8-.5.2-1.2.3-2 .3h-.3v.5c-.1.5-.1.8.3 1.1.2.3.6.5 1.1.5.3 0 .6 0 .9-.2l.9-.3v.8l-1 .4-.9.1Zm-1.3-3.7h.3c.4 0 1 0 1.2-.2.5 0 .8-.2 1-.4.3-.2.4-.4.4-.8 0-.2 0-.3-.2-.4l-.7-.3c-.3 0-.7.3-1 .6-.5.3-.7.7-1 1.5ZM319.5 87.3a3 3 0 0 1-.5 0l-.4-.1v-.9h.4l.4.2c.3-.1.6-.1.8-.4l.8-.8.3-.8-1-6.5h1l.6 3.2v2.3h.1a19 19 0 0 1 1-2l1.7-3.5h1.2l-3.9 7.5-1.1 1.3c-.5.3-.9.5-1.5.5Zm-53.2 11.4 1.9-8.5h4.3l-.2 1H269l-.6 2.9h3v1.1h-3.2l-.8 3.4Zm7.8-7.5-.4-.1-.1-.4c0-.2 0-.4.2-.7h.5c.3 0 .5.1.5.4s0 .6-.2.6c-.1.2-.3.2-.5.2Zm-2.1 7.5 1.3-6.4h1l-1.3 6.4Zm5.6.2c-.8 0-1.3-.3-1.7-.7-.4-.4-.6-1-.6-1.8 0-.4 0-1 .2-1.4.1-.6.3-1 .5-1.5l1.1-1c.4-.1.9-.2 1.4-.2.5-.1 1 0 1.3.3.3.2.5.6.5 1 0 .6-.1 1-.4 1.3-.2.3-.7.5-1.2.8-.6.2-1.3.3-2.1.3h-.2v.4c-.1.5-.1.9.2 1.2.3.2.7.4 1.1.4l1.1-.1.6-.4v.9l-.8.3-1 .3Zm-1-3.9h1.3l1.1-.4c.1-.2.3-.6.3-.8l-.3-.5c-.1-.3-.3-.3-.6-.3-.4 0-.7.2-1.1.6-.4.3-.6.8-.8 1.4Zm4.4 3.7 2-9h1l-2 8.9Zm5 .2c-.3 0-.8-.2-1.1-.6-.4-.3-.6-1-.6-1.6 0-.7.1-1.2.3-1.7a5 5 0 0 1 .6-1.5l1-1c.4-.1.8-.2 1.3-.2.4-.1.8 0 1 .2.3.3.5.5.6.8l.3-.8v-.8l.6-2h.9l-1.9 8.9h-.9l.2-1.1-1.1 1a2 2 0 0 1-1.2.4Zm.5-1c.2.1.5.1.7-.1l.8-.9.5-1.2c.2-.4.3-.7.3-1.3 0-.4-.1-.7-.3-1-.2-.2-.5-.3-1-.3-.2-.1-.5-.1-.7.3l-.8.8-.4 1.2-.2 1.3c0 .9.4 1.3 1 1.3Zm11.4 1c-1 0-1.9-.3-2.4-1-.5-.4-.8-1.2-.8-2.3 0-.8 0-1.5.3-2.1a5.7 5.7 0 0 1 .8-1.9c.4-.4.9-.9 1.4-1.1a3.8 3.8 0 0 1 1.8-.5c1 0 1.8.3 2.3 1 .5.4.8 1.3.8 2.3 0 .8 0 1.5-.3 2.2a5.5 5.5 0 0 1-.8 1.7 4 4 0 0 1-1.3 1.2c-.5.3-1.1.6-1.7.6Zm0-1c.5.1 1.1-.1 1.3-.4a3 3 0 0 0 1-1 5 5 0 0 0 .5-1.3 6.7 6.7 0 0 0 .3-1.8c0-.8-.2-1.4-.6-1.8-.3-.4-.8-.6-1.4-.6-.5 0-1 0-1.3.3a3 3 0 0 0-1 1c-.3.4-.5.9-.7 1.5a6.7 6.7 0 0 0-.2 1.7c0 .8.2 1.4.6 1.8.4.4.9.6 1.5.6Zm4.1 3.7h-.6l-.3-.1v-.9h.4l.3.2c.3-.1.5-.1.7-.4l.4-1 1.3-6.4H303v-.3l1.5-.4v-.6l.5-1.3.7-.7 1-.2.6.1.5.2-.3.8-.3-.1h-.5c-.3-.1-.5-.1-.7.1l-.5 1.1v.6h2.6l.2-.6c.1-.7.3-1 .5-1.3l.7-.7 1-.2.6.1.5.2-.2.8-.4-.1h-.4c-.4-.1-.6-.1-.8.1-.2.3-.3.6-.4 1.1l-.2.6h1.4l-.1.8H309l-1.3 6.4c-.1.5-.3 1.2-.6 1.5-.3.4-.8.6-1.4.6l-.7-.1v-.9h.3l.4.2c.2-.1.3-.1.6-.4.2-.2.3-.4.4-1L308 93h-2.8l-1.2 6.5c-.2.5-.5 1.2-.8 1.5-.2.4-.7.6-1.2.6Zm10.6-10.4-.3-.1-.2-.4c0-.2 0-.4.2-.7h.5c.4 0 .6.1.6.4l-.2.6c-.2.2-.3.2-.5.2Zm-2.1 7.5 1.4-6.4h1l-1.4 6.4Zm5.7.2c-.7 0-1.3-.2-1.7-.6-.5-.4-.7-1-.7-1.8 0-.6 0-1.2.2-1.7s.4-1 .7-1.3a3 3 0 0 1 1-1l1.6-.3h.7l.8.4-.3.8-.6-.2-.7-.2c-.5 0-.9.2-1.2.5a3 3 0 0 0-.8 1.3c-.2.5-.3 1-.3 1.6 0 .6.1 1 .4 1.2.2.3.6.4 1 .4l.8-.1a9 9 0 0 0 .8-.3v.9c-.3 0-.5.2-.9.3h-.8Zm5.4 0c-.8 0-1.4-.3-1.8-.7-.4-.4-.6-1-.6-1.8l.4-1.4c0-.6.2-1 .4-1.5l1.1-1c.4-.1.9-.2 1.4-.2.5-.1 1 0 1.3.3.3.2.5.6.5 1 0 .6-.1 1-.4 1.3-.3.3-.7.5-1.2.8-.7.2-1.3.3-2.2.3h-.2v.4c0 .5.1.9.4 1.2.2.2.6.4 1 .4l1.1-.1.6-.4v.9l-.8.3-1 .3Zm-1.1-3.9h1.5l1-.4c0-.2.3-.6.3-.8 0-.2-.1-.4-.3-.5 0-.3-.3-.3-.6-.3-.4 0-.8.2-1.1.6-.4.3-.6.8-.8 1.4Zm0 0" style="fill:none;stroke-width:2;stroke-linecap:butt;stroke-linejoin:round;stroke:#fff;stroke-opacity:.6;stroke-miterlimit:10" transform=" rotate(  340 295.304 81.4051) "/> <g style="fill:green;fill-opacity:1" transform=" rotate(  340 295.304 81.4051) ">  <use xlink:href="#p" x="256.3" y="70.1"/>  <use xlink:href="#q" x="263.5" y="70.1"/>  <use xlink:href="#r" x="269.2" y="70.1"/>  <use xlink:href="#s" x="279.3" y="70.1"/>  <use xlink:href="#glyph0-6" x="282.4" y="70.1"/>  <use xlink:href="#t" x="285.5" y="70.1"/>  <use xlink:href="#k" x="292.6" y="70.1"/>  <use xlink:href="#m" x="299.3" y="70.1"/>  <use xlink:href="#k" x="302.4" y="70.1"/>  <use xlink:href="#h" x="309.2" y="70.1"/>  <use xlink:href="#j" x="313.7" y="70.1"/>  <use xlink:href="#u" x="320.5" y="70.1"/>  <use xlink:href="#k" x="327.5" y="70.1"/>  <use xlink:href="#f" x="265.2" y="84.4"/>  <use xlink:href="#c" x="272" y="84.4"/>  <use xlink:href="#g" x="275.1" y="84.4"/>  <use xlink:href="#e" x="280.7" y="84.4"/>  <use xlink:href="#h" x="286.7" y="84.4"/>  <use xlink:href="#glyph0-6" x="291.5" y="84.4"/>  <use xlink:href="#v" x="294.6" y="84.4"/>  <use xlink:href="#j" x="301" y="84.4"/>  <use xlink:href="#m" x="307.8" y="84.4"/>  <use xlink:href="#m" x="310.9" y="84.4"/>  <use xlink:href="#e" x="314" y="84.4"/>  <use xlink:href="#w" x="319.8" y="84.4"/>  <use xlink:href="#n" x="265.9" y="98.7"/>  <use xlink:href="#c" x="271.6" y="98.7"/>  <use xlink:href="#e" x="274.7" y="98.7"/>  <use xlink:href="#m" x="280.7" y="98.7"/>  <use xlink:href="#u" x="283.8" y="98.7"/>  <use xlink:href="#glyph0-6" x="290.7" y="98.7"/>  <use xlink:href="#x" x="293.8" y="98.7"/>  <use xlink:href="#y" x="302.5" y="98.7"/>  <use xlink:href="#z" x="313.2" y="98.7"/>  <use xlink:href="#e" x="318.7" y="98.7"/> </g> <path d="M90.3 193.7c-.9 0-1.6-.2-2-.7-.5-.5-.8-1.1-.8-2a6 6 0 0 1 .3-1.8c.2-.6.5-1 .8-1.5l1.2-1c.5-.2 1-.3 1.6-.3h1.1l1 .5-.5.7a7.8 7.8 0 0 0-.7-.3l-1-.1c-.4 0-.9.1-1.3.5-.5.3-.9.7-1 1.3a4.8 4.8 0 0 0-.5 2c0 .3 0 .7.2 1 .1.3.3.5.6.7l1 .2h.7l.6-.2.4-2h-1.4l.2-1h2.3l-.8 3.6a8 8 0 0 1-1 .3l-.9.1Zm3.6-.1 1.1-5.3h.7v1l.3-.7.6-.3.7-.1h.7l-.3.8h-.5c-.3 0-.6 0-.9.3-.3.2-.5.5-.6.7l-.4 1.1-.5 2.6Zm5.4.1c-.3 0-.8-.1-1-.4-.3-.5-.4-.9-.4-1.5 0-.4 0-.9.1-1.3 0-.5.4-.9.6-1.2.2-.4.5-.6.8-.8a2 2 0 0 1 1.1-.3c.3 0 .6 0 .9.2l.4.7h.2l.2-.8h.8l-1.3 5.3h-.7l.2-1-1 .8c-.2.2-.5.3-.9.3Zm.3-.7c.4 0 .5-.1.7-.3l.7-.7a4 4 0 0 0 .4-1 3 3 0 0 0 .1-.6 4 4 0 0 0 0-.4c0-.4 0-.6-.2-.8-.3-.2-.4-.3-.7-.3-.3 0-.6 0-.7.1a2 2 0 0 0-.6.8l-.4 1-.1 1.1c0 .4 0 .6.2.8 0 .3.3.3.6.3Zm3.7.6 1.2-5.4h.7v1c-.1-.2.1-.3.3-.5a2 2 0 0 1 .7-.4l.7-.2c.5 0 .8.1 1.1.4.3.2.4.5.4 1v.9l-1 3.2h-.9l.9-3.4v-.6c0-.6-.1-.7-.6-.7-.3.1-.6.1-.8.3-.3.1-.5.4-.7.7-.3.3-.4.8-.5 1.4l-.5 2.3Zm7.5.1c-.4 0-.8-.1-1-.4-.4-.5-.6-.9-.6-1.5.1-.4.1-.9.3-1.3l.5-1.2c.3-.4.5-.6 1-.8a2 2 0 0 1 .9-.3c.5 0 .8 0 1.1.2l.2.7a35.3 35.3 0 0 1 .5-1.3l.2-1.8h1.1l-1.9 7.6h-.6l.1-1-.8.8c-.3.2-.6.3-1 .3Zm.2-.7.7-.3c.3-.1.5-.3.7-.6l.4-1.1c.2-.3.2-.6.2-1s0-.6-.2-.8c-.2-.2-.4-.3-.8-.3-.2 0-.5 0-.7.3l-.6.6c-.1.3-.3.6-.3 1l-.2 1.2c0 .6.3 1 .9 1Zm-42 12.5 1.5-7h1.2l.7 5.6 3.3-5.7H77l-1.5 7.1h-.9l1-4.2a47.9 47.9 0 0 1 .4-2l-3.4 6.2h-.8l-.7-6.2-.1.5-.1.7-.2.8-.9 4.1Zm10.4.1c-.6 0-1.1-.1-1.4-.5-.4-.4-.5-.8-.5-1.5l.1-1.2.6-1.2.8-.8a2 2 0 0 1 1.1-.3c.5-.1 1 .1 1.2.3.2.2.4.6.4 1 0 .2-.1.6-.4.8-.2.4-.5.6-1 .8-.3.2-1 .2-1.8.2h-.1v.4c0 .4 0 .7.3 1 .1.2.5.3.9.3h.7a5 5 0 0 0 .7-.5v.9a6 6 0 0 1-.7.1l-.9.2Zm-.9-3 1.3-.3c.2.1.5-.1.7-.2.2-.2.3-.4.3-.7 0-.2 0-.3-.2-.4l-.5-.2c-.3 0-.6.2-1.1.5 0 .3-.3.7-.4 1.2Zm5 3h-.8l-.7-.4v-.7l.7.3.8.1c.4.1.7.1.9-.2l.3-.7c0-.1 0-.3-.2-.4l-.7-.5-.9-.6-.2-.9c0-.4.1-.8.3-1 .5-.5 1-.6 1.5-.6l.9.2.6.3-.2.7-.6-.3h-.7l-.7.1c-.2.2-.3.3-.3.6 0 .1 0 .3.2.4l.7.5.6.4.4.5.2.6c0 .5-.2 1-.6 1.2-.3.3-.8.4-1.5.4Zm4.7 0c-.4 0-.7-.1-1-.4-.3-.3-.4-.8-.4-1.4 0-.5 0-1 .2-1.4l.5-1.2.8-.8a2 2 0 0 1 1.1-.4c.4 0 .6 0 .9.4l.4.6h.1l.3-.8h.7l-1.1 5.3h-.8l.2-1-1 .9c-.1.1-.5.2-.9.2Zm.3-.6c.3 0 .5 0 .7-.3l.8-.8a4 4 0 0 0 .3-.9 3 3 0 0 0 .1-.6 4 4 0 0 0 0-.5c0-.3 0-.6-.2-.9-.2 0-.4-.2-.7-.2-.3 0-.5.2-.7.3a2 2 0 0 0-.6.7c-.2.2-.3.5-.4 1l-.1.9c0 .5 0 .8.2 1l.6.2Zm6.5.5 1.5-7h1l2 5.7a25 25 0 0 1 .5-1.9l.8-3.9h.9l-1.5 7.1h-1l-2.2-5.9v.6l-.3.7-.1.8-.8 3.8Zm8.6.1c-.6 0-.8-.1-1-.4-.4-.3-.6-.8-.6-1.4.1-.5.1-1 .3-1.4.1-.5.3-.9.7-1.2l.7-.8a2 2 0 0 1 1-.4c.5 0 .8 0 1.1.4l.2.6.6-.8h.4l-1 5.3h-.7l.1-1c-.2.5-.5.7-.8.9-.3.1-.7.2-1 .2Zm.3-.6c.1 0 .4 0 .7-.3l.6-.8a4 4 0 0 0 .5-.9 3 3 0 0 0 0-.6 4 4 0 0 0 .2-.5c-.1-.3-.1-.6-.4-.9-.1 0-.4-.2-.7-.2-.2 0-.5.2-.7.3a2 2 0 0 0-.6.7c-.1.2-.3.5-.3 1l-.2.9c0 .5 0 .8.2 1l.8.2Zm5.3.6c-.4 0-.7 0-1-.2-.2-.2-.2-.5-.2-1v-.5l.7-3.1h-.9v-.2l1-.6.5-1h.6l-.3 1.2h1.4l-.2.7h-1.3l-.6 2.9-.1.2v.4l.1.4.4.1h.3l.4-.1v.7h-.4l-.4.2Zm3.6-6.3-.4-.1-.1-.4.1-.4c.1-.2.3-.2.6-.2.2 0 .3.1.3.4l-.1.5-.4.2Zm-1.9 6.2 1.2-5.3h.8l-1.1 5.3Zm4.8.1c-.6 0-1.1-.2-1.5-.5-.2-.4-.5-.9-.5-1.5 0-.4 0-.8.3-1.3a4 4 0 0 1 .4-1c.2-.5.5-.8.8-1 .4-.1.8-.2 1.2-.2.6 0 1 .2 1.4.6.4.3.6.9.6 1.5 0 .4 0 .8-.2 1.2a4 4 0 0 1-.5 1.1c-.2.5-.5.6-.7.8-.5.2-.8.3-1.3.3Zm0-.6c.5-.1.8-.2 1.1-.4l.4-1 .3-1.5-.1-.6a1 1 0 0 0-.4-.5l-.6-.2c-.4 0-.7.2-1 .4l-.6 1a4 4 0 0 0-.2 1.4c0 .4.1.7.3 1 .1.2.5.3.9.3ZM119 205.5l1.3-5.3h.7v1c0-.2.1-.5.3-.7a2 2 0 0 1 .7-.3l.7-.1c.5-.1.8-.1 1 .3.3.3.4.6.4 1v.9l-.9 3.2h-.9l.9-3.3v-.7c0-.4-.2-.6-.6-.6-.3 0-.6 0-.8.1-.3.2-.5.5-.8.8-.2.4-.3.9-.5 1.4l-.5 2.3Zm7.6.1c-.6 0-.8-.1-1-.4-.4-.3-.6-.8-.6-1.4.1-.5.1-1 .3-1.4.1-.5.3-.9.7-1.2l.7-.8a2 2 0 0 1 1-.4c.5 0 .7 0 1.1.4l.2.6.6-.8h.4l-1 5.3h-.7l.1-1c-.2.5-.5.7-.8.9-.3.1-.7.2-1 .2Zm.3-.6c.1 0 .4 0 .7-.3l.6-.8a4 4 0 0 0 .5-.9 3 3 0 0 0 0-.6 4 4 0 0 0 .2-.5c-.1-.3-.1-.6-.4-.9-.1 0-.4-.2-.7-.2-.2 0-.5.2-.7.3a2 2 0 0 0-.6.7c-.1.2-.3.5-.3 1l-.2.9c0 .5 0 .8.2 1l.8.2Zm3.7.5 1.6-7.5h.9l-1.6 7.5Zm-42.9 12 1.6-7.2h3.6l-.2.8H90l-.6 2.6H92l-.2.8h-2.5l-.7 3Zm6.9.1c-.6 0-1.1-.2-1.6-.6-.2-.4-.4-.9-.4-1.5l.1-1.2a4 4 0 0 1 .5-1.1c.3-.4.5-.6.9-.8.3-.2.7-.4 1.2-.4.6 0 1 .2 1.4.6.4.4.6.9.6 1.5l-.3 1.2a4 4 0 0 1-.4 1.2l-.8.8-1.2.3Zm0-.8c.4 0 .6 0 1-.3.1-.2.4-.5.4-1 .3-.3.4-.8.4-1.5l-.1-.6a1 1 0 0 0-.4-.4c-.2-.2-.4-.2-.6-.2-.4 0-.7.1-1 .4-.3.2-.5.5-.6 1a4 4 0 0 0-.2 1.3c0 .5 0 .8.3 1 .2.2.5.3.8.3Zm3.4.7 1.2-5.5h.7l-.1 1.1.4-.5.6-.4.6-.2h.3l.3.2-.2.7h-.5c-.3-.1-.6-.1-.9.2l-.6.9-.4 1-.4 2.5Zm6 .1c-.8 0-1.3-.2-1.6-.6-.2-.3-.4-1-.4-1.4s0-.9.2-1.3c0-.4.3-.8.5-1.1.2-.4.5-.7.9-.9a2 2 0 0 1 1-.3c.7 0 1.1.1 1.3.4.2.2.3.5.3.9l-.3 1-1 .5c-.5.3-1.1.4-1.9.4h-.1v.3c0 .5 0 .8.3 1 .2.2.5.4.8.4l.8-.1a5 5 0 0 0 .8-.4v.8a6 6 0 0 1-.8.3h-.8Zm-1-3.1h.1l1.1-.1.8-.4c.2-.2.3-.4.3-.7l-.1-.3-.6-.2c-.3 0-.6.1-1 .4l-.6 1.3Zm5 3.1-.8-.1-.7-.2v-.9l.7.3.8.3c.4-.1.7-.2 1-.4l.1-.6c.1-.2.1-.3-.1-.4 0-.2-.3-.3-.7-.6l-.8-.6c-.2-.2-.3-.5-.3-.8 0-.6.1-.9.5-1.1.3-.3.7-.5 1.3-.5l.9.1.7.3-.3.6-.5-.1-.8-.1c-.3 0-.5 0-.7.2-.2 0-.2.3-.2.5l.1.5.8.4.5.4.5.5v.6c.1.6 0 1.1-.4 1.3-.4.2-1 .4-1.6.4Zm4.7 0c-.4 0-.7-.1-1-.3-.1-.1-.2-.3-.2-.9v-.7l.7-2.9h-.9v-.4l1-.4.5-1h.6l-.4 1h1.5l-.2.8H113l-.6 3-.1.2v.3l.1.4.4.3h.3l.4-.4v.8l-.4.1h-.4Zm0 0" style="fill:none;stroke-width:2;stroke-linecap:butt;stroke-linejoin:round;stroke:#fff;stroke-opacity:.6;stroke-miterlimit:10" transform=" rotate(  340 101.347 202.549) "/> <g style="fill:green;fill-opacity:1" transform=" rotate(  340 101.347 202.549) ">  <use xlink:href="#A" x="86.8" y="193.6"/>  <use xlink:href="#B" x="93.6" y="193.6"/>  <use xlink:href="#C" x="97.4" y="193.6"/>  <use xlink:href="#D" x="103.1" y="193.6"/>  <use xlink:href="#E" x="108.9" y="193.6"/>  <use xlink:href="#F" x="68.6" y="205.5"/>  <use xlink:href="#G" x="77" y="205.5"/>  <use xlink:href="#H" x="82" y="205.5"/>  <use xlink:href="#C" x="86.3" y="205.5"/>  <use xlink:href="#glyph1-9" x="92" y="205.5"/>  <use xlink:href="#I" x="94.6" y="205.5"/>  <use xlink:href="#C" x="101.6" y="205.5"/>  <use xlink:href="#J" x="107.3" y="205.5"/>  <use xlink:href="#K" x="110.6" y="205.5"/>  <use xlink:href="#L" x="113.2" y="205.5"/>  <use xlink:href="#D" x="118.9" y="205.5"/>  <use xlink:href="#C" x="124.6" y="205.5"/>  <use xlink:href="#M" x="130.3" y="205.5"/>  <use xlink:href="#N" x="87.3" y="217.5"/>  <use xlink:href="#L" x="92.1" y="217.5"/>  <use xlink:href="#B" x="97.7" y="217.5"/>  <use xlink:href="#G" x="101.5" y="217.5"/>  <use xlink:href="#H" x="106.5" y="217.5"/>  <use xlink:href="#J" x="110.8" y="217.5"/> </g> <path d="m233.6 189 1.5-7.1h1.3l.6 5.8 3.3-5.8h1.4l-1.5 7h-1l1.1-4a47.9 47.9 0 0 1 .4-2.1l-3.6 6.2h-.6l-.8-6.3v.6l-.3.7v.7l-1 4.3Zm10 0c-.6 0-.8 0-1-.3-.5-.4-.6-.7-.6-1.4.1-.5.1-1 .3-1.5l.5-1.2c.3-.3.5-.6.9-.8a2 2 0 0 1 1-.3c.4 0 .7.1.9.3l.4.7.5-.9h.5l-1 5.4h-.7l.1-1-.8.8c-.3.2-.7.2-1 .2Zm.2-.5c.3-.1.5-.2.8-.5l.6-.6a4 4 0 0 0 .5-1 3 3 0 0 0 0-.7 4 4 0 0 0 .1-.4c0-.3 0-.5-.2-.7-.3-.2-.5-.3-.8-.3-.2 0-.5 0-.7.2a2 2 0 0 0-.6.7l-.4 1-.1 1c0 .5 0 .8.2 1l.6.2Zm3.8.5 1.1-5.4h.7v1l.4-.5.5-.4.7-.2h.3l.3.2-.2.7h-.5c-.3-.1-.6-.1-.9.2-.3.3-.5.6-.6.9l-.4 1-.5 2.5Zm6 0c-.7 0-1.1 0-1.6-.4-.3-.5-.4-1-.4-1.6l.1-1.2a4 4 0 0 1 .5-1.1c.3-.4.5-.7.9-.8.3-.2.7-.3 1.1-.3.8 0 1.2.1 1.5.4.4.5.5 1 .5 1.6l-.1 1.4a4 4 0 0 1-.5.9c-.2.5-.6.8-.9 1-.3.1-.7.1-1.1.1Zm0-.6c.4-.1.6-.1.9-.4.3-.2.5-.5.5-1 .3-.3.4-.8.4-1.4 0-.3 0-.5-.2-.6a1 1 0 0 0-.2-.5l-.7-.2c-.4 0-.7.1-1 .4-.3.2-.5.6-.6 1a4 4 0 0 0-.2 1.3c0 .5 0 .8.3 1 .2.2.4.3.8.3Zm5.6.6c-.6 0-1.1 0-1.5-.4-.3-.5-.5-1-.5-1.6 0-.4 0-.8.2-1.2a4 4 0 0 1 .5-1.1c.1-.4.5-.7.8-.8.3-.2.7-.3 1.2-.3.6 0 1 .1 1.4.4.4.5.7 1 .7 1.6-.1.4-.1.8-.3 1.4a4 4 0 0 1-.5.9c-.2.5-.5.8-.8 1l-1.2.1Zm0-.6c.4-.1.8-.1 1-.4.1-.2.3-.5.4-1 .4-.3.4-.8.4-1.4l-.1-.6a1 1 0 0 0-.4-.5l-.5-.2c-.5 0-.8.1-1.1.4l-.6 1a4 4 0 0 0-.2 1.3c-.1.5-.1.8.3 1 .2.2.5.3.8.3Zm3.4.6 1.1-5.4h.8v1c-.1-.2.1-.3.3-.6a2 2 0 0 1 .7-.3l.7-.2c.5 0 .8.1 1 .5.3 0 .4.4.4.9v.4l-.1.4-.7 3.3h-1l.8-3.4v-.6c.1-.5-.1-.7-.6-.7-.2 0-.5 0-.7.2-.3.2-.5.5-.7.8-.3.3-.4.7-.6 1.4l-.5 2.3Zm-47.4 12 1.5-7.3h1.8c.7.1 1.2.2 1.6.5.4.2.5.7.5 1.2s-.1 1-.4 1.2c-.2.4-.7.5-1.2.6.4.2.6.4 1 .7 0 .1.2.4.2.9 0 .3-.1.7-.4 1-.2.5-.5.7-1 .9-.3.2-.8.2-1.3.2Zm1.7-4.3h2c.3 0 .4-.2.6-.4l.2-.8c0-.3 0-.5-.3-.7-.2-.2-.4-.2-1-.2h-1Zm-.7 3.5h1.3c.5 0 1-.2 1.3-.4.2-.3.4-.6.4-1s0-.8-.2-1c-.3-.1-.6-.2-1-.2h-1.2Zm7 .8c-.6 0-1.2 0-1.5-.5-.3-.4-.5-.9-.5-1.5l.2-1.3.6-1 .8-1.1a2 2 0 0 1 1.1 0c.5-.1.9-.1 1.2.2.2.2.3.5.3 1 0 .2 0 .5-.3.8-.1.4-.5.6-1 .8l-1.8.2h-.2v.4c0 .4.1.7.3 1 .2.1.6.2 1 .2h.6a5 5 0 0 0 .8-.3v.7a6 6 0 0 1-.7.4H223Zm-1-3h1.3l.8-.7c.2 0 .3-.2.3-.5 0-.2 0-.3-.2-.4l-.4-.2c-.5 0-.8.2-1.1.5-.3.2-.5.7-.6 1.2ZM226 201l1.6-7.8h1l-1.8 7.8Zm2.6 0 1.6-7.8h.9l-1.6 7.8Zm3.9 0h-1l-.5-.4v-.7l.6.3.8.1c.4 0 .7 0 1-.2l.1-.6c.1-.2.1-.5-.1-.5l-.7-.5-.7-.7c-.3-.2-.4-.5-.4-.8 0-.5.2-.8.4-1.1.4-.3.9-.4 1.4-.4h.9l.7.4-.3.6-.4-.2h-1.6l-.2.7.1.4.7.5.7.4.4.4.1.7c0 .5-.2 1-.5 1.2-.4.4-1 .4-1.5.4Zm3-2.3.2-.9h4l-.2.9Zm6.4 2.3h-1l-.6-.4v-.8l.7.3 1 .1h.7l.6-.6c.2-.1.3-.4.3-.7 0-.2-.1-.5-.3-.7l-1-.6a4.4 4.4 0 0 1-.5-.6 1.9 1.9 0 0 1-.6-.4l-.1-.8c-.1-.5-.1-.9.3-1.2a2 2 0 0 1 .8-.6 3 3 0 0 1 1.2-.3l1 .1c.3 0 .6.2.8.3l-.2.9-.8-.4-.8-.1c-.4 0-.7 0-1 .3-.2.2-.4.5-.4.9l.1.5.4.4.5.3.8.6a2 2 0 0 1 .5.5l.2 1c0 .6-.2 1-.7 1.5-.5.3-1.1.5-2 .5Zm3.4 0 1.2-5.6h.8l-.3 1.1.6-.5a2 2 0 0 1 .6-.4l.8-.2c.4 0 .7.2 1 .4.2.2.3.6.3 1v.9l-.9 3.2h-.9l.9-3.3v-.7c0-.4-.1-.7-.6-.7l-.8.3c-.3.1-.5.4-.7.7-.3.4-.4.8-.5 1.4l-.5 2.4Zm8.1 0c-.7 0-1.2-.2-1.5-.5-.4-.5-.5-1-.5-1.6l.1-1.2a4 4 0 0 1 .5-1c.2-.5.5-.7 1-1 .2-.1.6-.2 1-.2.6 0 1.1.2 1.5.6.3.3.5.8.5 1.5v1.2a4 4 0 0 1-.6 1.1c-.4.3-.5.6-.9.8-.3.3-.7.3-1.1.3Zm0-.7c.3 0 .6-.1.9-.4l.6-.9c.2-.4.2-1 .2-1.5v-.6a1 1 0 0 0-.5-.5l-.6-.2c-.3 0-.6.2-1 .4l-.4 1a4 4 0 0 0-.4 1.4c0 .4.1.7.3 1 .2.1.5.2.9.2Zm3.6.7v-5.5h.7l.1 2.9v1.8a13.8 13.8 0 0 1 .4-1l.3-.7 1.4-2.9h1v2.8a25.5 25.5 0 0 1 .1 1.8l.4-1c0-.2.2-.5.4-.9l1.2-2.7h1l-2.7 5.3h-.9l-.2-2.9v-1.6l-.3.7-.4.9-1.4 3Zm6.8 0 1.2-5.5h.7l-.1 1.1.4-.6.6-.3c.2-.2.5-.2.7-.2.4 0 .7 0 .9.3.2.2.3.5.3.9l.5-.7.7-.3c.2-.2.3-.2.7-.2.4 0 .8.1 1 .3.2.2.3.6.3 1v.9l-.9 3.2h-.8l.7-3.3.1-.4v-.3l-.1-.5-.5-.2c-.3 0-.5.1-.7.3-.3.1-.5.4-.7.7l-.5 1.3-.5 2.5h-.9l.7-3.4.1-.7-.1-.5-.6-.2c-.1 0-.4 0-.6.2l-.7.8c-.2.4-.4.8-.5 1.4l-.5 2.4Zm10.4 0c-.4 0-.8 0-1-.4-.3-.3-.4-.8-.4-1.4l.1-1.4.6-1.2c.2-.4.5-.6.8-.8a2 2 0 0 1 1-.3c.5 0 .7 0 1.1.3 0 .1.1.4.2.6l.6-.8h.6l-1.2 5.3h-.6l.1-.9-1 .7c-.1.3-.5.3-.9.3Zm.3-.7c.2 0 .5 0 .7-.3.3 0 .5-.4.8-.7a4 4 0 0 0 .3-1 3 3 0 0 0 .1-.6 4 4 0 0 0 0-.4c0-.3 0-.6-.2-.8-.2-.2-.4-.3-.7-.3-.3 0-.5.1-.7.3a2 2 0 0 0-.6.5l-.4 1.1-.1 1.1c0 .4 0 .8.2.8.1.2.3.3.6.3Zm5 .7h-.9l-.6-.4v-.7l.7.3.8.1c.4 0 .7 0 .9-.2l.3-.6c0-.2 0-.5-.2-.5l-.7-.5c-.4-.2-.8-.4-.9-.7-.2-.2-.3-.5-.3-.8 0-.5.2-.8.5-1.1.4-.3.9-.4 1.4-.4h.8l.8.4-.3.6-.6-.2h-1.4c-.2.3-.3.4-.3.7s0 .3.2.4l.7.5.6.4.4.4.2.7c0 .5-.2 1-.6 1.2-.4.4-.9.4-1.5.4Zm4.3 0h-.8l-.7-.4v-.7l.7.3.8.1c.4 0 .7 0 .9-.2l.3-.6c0-.2 0-.5-.2-.5l-.7-.5c-.4-.2-.7-.4-.9-.7l-.2-.8c0-.5 0-.8.4-1.1.4-.3.8-.4 1.4-.4h.9c.2.3.5.3.7.4l-.3.6-.6-.2H284c-.1.3-.2.4-.2.7s0 .3.2.4l.7.5.6.4.4.4.3.7c-.1.5-.3 1-.7 1.2-.3.4-.8.4-1.5.4Zm-55.7 11.9-.3-7.2h.9l.1 4.4v1.7a25.3 25.3 0 0 1 .8-1.9l2-4.2h.7l.3 4.3v1.8h.2c-.1-.3.1-.6.2-.8l.3-1 2-4.2h.8l-3.2 7.2h-.9l-.2-4.7a35 35 0 0 1 0-1.4l-.4.6-.4.8-1.9 4.7Zm9.3-6.3-.3-.1-.2-.3c.1-.2.1-.4.2-.5l.4-.2c.3 0 .5.2.5.5 0 .2 0 .3-.2.5l-.4.1Zm-1.8 6.4 1.1-5.5h.9l-1.2 5.5Zm2.5-.1 1.7-7.6h.8l-1.6 7.6Zm4.3.1c-.4 0-.8-.2-1-.5-.4-.3-.6-.7-.6-1.4.2-.4.2-1 .3-1.3l.5-1.2c.4-.4.5-.7.9-.9a2 2 0 0 1 1-.3c.5 0 .8.1 1.1.3l.2.6a35.3 35.3 0 0 1 .5-1.3l.2-1.7h1l-1.8 7.6h-.6l.1-1-.9.8c-.3.2-.6.3-.9.3Zm.3-.8c.2.1.3.1.6-.2l.7-.7c.2-.2.3-.6.4-1 .2-.3.2-.6.2-.9 0-.6 0-.8-.2-1-.2-.1-.4-.2-.8-.2-.3 0-.5 0-.6.2l-.7.7-.3 1v.9c-.2 1 0 1.4.6 1.4ZM248.7 213c-.7 0-1.1-.2-1.5-.6-.2-.3-.5-.8-.5-1.4 0-.5 0-1 .3-1.3l.4-1.2c.3-.3.6-.5.9-.8a2 2 0 0 1 1-.3c.7 0 1.1.1 1.3.3.2.3.4.6.4 1.1 0 .2 0 .5-.4.9l-1 .5c-.6.3-1 .4-1.8.4h-.2v.3c0 .4.1.8.4 1.1.1 0 .4.2 1 .2h.4a5 5 0 0 0 .9-.5v.9a6 6 0 0 1-.8.3h-.8Zm-1-3.2h1.3l.8-.5c.2-.1.2-.3.2-.6 0-.1 0-.3-.1-.4l-.6-.2c-.3 0-.6.2-.9.5-.3.3-.4.7-.6 1.2ZM251.5 212.9l1.1-5.4h.8l-.1 1 .4-.5.6-.4.6-.2h.6l-.2 1h-.5c-.3-.2-.6-.2-.8 0-.3.4-.6.6-.7 1l-.4 1-.5 2.6Zm3.9 0 1.2-5.4h.8l-.1 1 .4-.5a2 2 0 0 1 .6-.4c.2-.2.5-.2.8-.2.4 0 .8.1.9.3.3.3.5.6.5 1.1v.4l-.2.4-.7 3.4h-.9l.7-3.5v-.4l.2-.3c-.1-.4-.3-.6-.8-.6-.2 0-.4 0-.7.2-.1.2-.5.4-.7.8-.2.3-.4.8-.4 1.4l-.6 2.3Zm8 .1c-.6 0-1-.2-1.4-.6-.4-.3-.5-.8-.5-1.4 0-.5 0-1 .2-1.3 0-.4.3-.8.5-1.2l.8-.8a2 2 0 0 1 1.2-.3c.5 0 .8.1 1 .3.5.3.6.6.6 1.1l-.4.9-1 .5c-.6.3-1.2.4-1.9.4h-.1v.3c0 .4 0 .8.3 1.1.2 0 .5.2.9.2h.7a5 5 0 0 0 .7-.5v.9a6 6 0 0 1-.7.3h-.9Zm-.9-3.2h1.3l.7-.5c.2-.1.3-.3.3-.6l-.1-.4-.7-.2c-.2 0-.5.2-.9.5l-.5 1.2Zm5 3.2-.8-.1c-.3 0-.5-.2-.7-.3v-.8l.7.3.8.2c.4 0 .7-.1 1-.3l.1-.6c.1-.2.1-.3-.1-.4l-.7-.6-.8-.6c-.2-.2-.3-.5-.3-.9s.1-.8.5-.9c.3-.5.7-.7 1.3-.7l.9.2.6.3-.2.7-.6-.2-.7-.1c-.3 0-.5 0-.7.2-.2.1-.2.3-.2.5l.1.4c.1.2.4.3.7.5l.6.4.5.5.1.6c0 .7-.2 1-.5 1.3-.4.2-1.1.4-1.6.4Zm4.4 0-1-.1-.4-.3v-.8l.5.3.8.2c.4 0 .7-.1 1-.3l.2-.6c0-.2 0-.3-.2-.4l-.7-.6-.8-.6c-.3-.2-.3-.5-.3-.9s.2-.8.5-.9c.3-.5.8-.7 1.3-.7l.9.2.7.3-.3.7-.5-.2-.8-.1c-.3 0-.5 0-.7.2-.1.1-.1.3-.1.5v.4l.7.5.7.4.4.5.1.6c.1.7-.2 1-.5 1.3-.4.2-1 .4-1.5.4ZM240 224.8l4-7.1h.9l.9 7.1h-1l-.1-2.2h-2.5l-1.2 2.2Zm2.7-3h1.9l-.3-1.5V218.6a14 14 0 0 1-.6.9l-.3.8Zm3.8 3 1.2-5.3h.7l-.1 1 .5-.7.5-.3.7-.1h.6l-.2.8h-.5c-.4 0-.7 0-1 .3l-.5.8-.4 1-.6 2.6Zm6 .2c-.7 0-1.1-.4-1.5-.7-.3-.3-.5-.8-.5-1.4 0-.4 0-.9.2-1.3l.5-1.1.9-.8a2 2 0 0 1 1.1-.3c.5 0 .9 0 1.1.3.3.2.4.5.4 1 0 .3 0 .5-.3.8-.2.3-.5.5-1 .8l-1.8.1h-.2v.5c0 .4.1.7.3 1 .3.1.5.2 1 .2l.5-.1a5 5 0 0 0 .9-.2v.7a6 6 0 0 1-.8.3l-.8.1Zm-1-3.3h1.2c.4 0 .6-.2.9-.4.2-.1.3-.3.3-.6 0-.2 0-.3-.2-.4-.1-.3-.3-.3-.5-.3-.4 0-.7.2-1 .5-.2.3-.5.7-.6 1.3ZM257 225c-.5 0-.8-.3-1-.6-.5-.4-.6-.7-.6-1.4.1-.4.1-1 .3-1.3.1-.5.3-.9.6-1.2.1-.5.5-.6.7-.8a2 2 0 0 1 1-.3c.5 0 .8 0 1 .2l.5.7.5-.8h.5l-1.1 5.3h-.7l.1-1-.8.8c-.3.2-.7.3-1 .3Zm.3-.9.7-.2.6-.7a4 4 0 0 0 .5-1 3 3 0 0 0-.1-.6 4 4 0 0 0 .2-.4c0-.4 0-.6-.2-.8-.2-.2-.5-.4-.8-.4-.2 0-.5 0-.7.3a2 2 0 0 0-.5.7l-.5 1v2l.7.2Zm0 .1" style="fill:none;stroke-width:2;stroke-linecap:butt;stroke-linejoin:round;stroke:#fff;stroke-opacity:.6;stroke-miterlimit:10" transform=" rotate(  340 251.317 203.904) "/> <g style="fill:green;fill-opacity:1" transform=" rotate(  340 251.317 203.904) ">  <use xlink:href="#F" x="233.2" y="189"/>  <use xlink:href="#C" x="241.6" y="189"/>  <use xlink:href="#B" x="247.3" y="189"/>  <use xlink:href="#L" x="251.1" y="189"/>  <use xlink:href="#L" x="256.7" y="189"/>  <use xlink:href="#D" x="262.3" y="189"/>  <use xlink:href="#O" x="214.8" y="200.9"/>  <use xlink:href="#G" x="220.8" y="200.9"/>  <use xlink:href="#M" x="225.7" y="200.9"/>  <use xlink:href="#M" x="228.3" y="200.9"/>  <use xlink:href="#H" x="230.9" y="200.9"/>  <use xlink:href="#P" x="235.2" y="200.9"/>  <use xlink:href="#Q" x="240" y="200.9"/>  <use xlink:href="#D" x="245.1" y="200.9"/>  <use xlink:href="#L" x="250.9" y="200.9"/>  <use xlink:href="#R" x="256.3" y="200.9"/>  <use xlink:href="#S" x="263.5" y="200.9"/>  <use xlink:href="#C" x="272.3" y="200.9"/>  <use xlink:href="#H" x="278" y="200.9"/>  <use xlink:href="#H" x="282.3" y="200.9"/>  <use xlink:href="#T" x="226.7" y="212.9"/>  <use xlink:href="#K" x="235.3" y="212.9"/>  <use xlink:href="#M" x="237.9" y="212.9"/>  <use xlink:href="#E" x="240.4" y="212.9"/>  <use xlink:href="#G" x="246.2" y="212.9"/>  <use xlink:href="#B" x="251.2" y="212.9"/>  <use xlink:href="#D" x="255.2" y="212.9"/>  <use xlink:href="#G" x="261" y="212.9"/>  <use xlink:href="#H" x="266" y="212.9"/>  <use xlink:href="#H" x="270.3" y="212.9"/>  <use xlink:href="#U" x="240.6" y="224.8"/>  <use xlink:href="#B" x="246.3" y="224.8"/>  <use xlink:href="#G" x="250" y="224.8"/>  <use xlink:href="#C" x="255" y="224.8"/> </g> <path d="M334.9 231.2c-.8 0-1.4-.3-1.9-.8-.4-.4-.6-1.1-.6-2l.1-1.3.4-1.1c.3-.5.5-1 .8-1.1.3-.5.7-.7 1.1-.9.4-.1.9-.2 1.4-.2.8 0 1.3.2 1.8.4l-.4.8a4 4 0 0 0-.6-.3h-.8c-.5-.1-1-.1-1.2.3l-1 .8a4 4 0 0 0-.5 1.3l-.2 1.3c0 .6.2 1.1.5 1.6.2.2.7.4 1.2.4l.9-.1.7-.2v.8l-.8.1a5 5 0 0 1-.8 0Zm5.1-.1c-.6 0-1.1-.1-1.5-.5-.3-.4-.5-.9-.5-1.5v-1.2a4 4 0 0 1 .6-1.1l.9-.9c.3-.2.7-.3 1.2-.3.6 0 1 .2 1.3.6.5.4.7.8.7 1.5 0 .4 0 .8-.2 1.3a4 4 0 0 1-.5 1c-.2.4-.5.6-.8.8l-1.2.3Zm0-.7c.4 0 .7-.1 1-.3l.4-1.1c.3-.3.4-.8.4-1.4l-.1-.6a1 1 0 0 0-.4-.4c-.2-.2-.4-.2-.6-.2-.4 0-.7 0-1 .3-.2.3-.5.6-.6 1a4 4 0 0 0-.2 1.4c0 .4 0 .9.3 1 .2.2.5.3.8.3Zm3.4.6 1.6-7.4h1l-1.7 7.4Zm2.6 0 1.6-7.4h.9l-1.6 7.4Zm4.7.2c-.6 0-1-.2-1.4-.6-.4-.3-.5-.8-.5-1.5 0-.4 0-.8.2-1.1 0-.5.3-1 .5-1.3l.8-.7a2 2 0 0 1 1.2-.4c.5 0 .8.1 1 .4.5.2.5.5.5 1l-.3.9-1 .5c-.6.3-1.2.4-1.9.4h-.1v.2c0 .5 0 .8.3 1.1.2.2.5.3.9.3h.7a5 5 0 0 0 .7-.4v.8a6 6 0 0 1-.7.2h-.9Zm-.9-3.2h1.2l.8-.5c.2-.1.3-.3.3-.6l-.1-.4-.6-.2c-.3 0-.6.2-1 .5l-.5 1.2Zm5.3 5.5-.9-.1-.7-.4v-.7l.7.3a3 3 0 0 0 1 .1c.2 0 .6 0 .9-.3.2-.2.4-.4.5-1v-.3l.4-.5v-.6l-.8.8c-.2.3-.6.4-1 .4s-.8-.2-1-.5c-.3-.3-.4-.7-.4-1.4l.1-1.3c.2-.5.3-.9.6-1.2.2-.4.5-.8.8-.9a2 2 0 0 1 1.1-.3c.4 0 .7.1.9.4l.5.5.3-.8h.7l-1.2 5.7c-.2.6-.6 1.3-.9 1.6-.4.3-1 .5-1.6.5Zm.4-3c.2-.1.5-.2.7-.4l.6-.6.5-1 .1-.9c0-.6 0-.9-.2-1.1-.1-.1-.4-.2-.7-.2-.3 0-.5.1-.8.3l-.5.7-.4 1-.1 1c0 .9.2 1.2.8 1.2ZM361.2 224.8l-.3-.1-.2-.4c0-.1 0-.3.3-.3l.3-.3c.3 0 .5.3.5.5s0 .3-.2.4c-.1.2-.3.2-.4.2Zm-1.8 6.3 1.1-5.4h.9l-1.2 5.4Zm4.2.1c-.4 0-.8-.2-1-.5-.3-.3-.6-.7-.6-1.4l.3-1.3.7-1.3.7-.7a2 2 0 0 1 1-.4c.5 0 .8.1 1.1.4l.2.5.6-.8h.6l-1.2 5.4h-.7l.2-1.1-1 .8c-.2.3-.5.4-.9.4Zm.3-.8c.1 0 .5 0 .7-.2.2-.2.5-.5.6-.8a4 4 0 0 0 .5-1 3 3 0 0 0 0-.4 4 4 0 0 0 .2-.6c-.1-.3-.1-.6-.3-.8-.2-.2-.4-.3-.7-.3-.3 0-.5.1-.9.3a2 2 0 0 0-.4.7l-.4 1-.2.9c0 .6.1.8.3 1.1.1.1.3.1.6.1Zm5.3.8c-.4 0-.7-.2-1-.3-.2-.2-.2-.5-.2-.9v-.7l.6-3h-.8v-.3l1.1-.4.5-1.1h.5l-.3 1.2h1.4l-.2.7h-1.3l-.6 2.9v.3l-.2.3.2.4.4.1h.7v.6h-.8Zm3.8 0c-.4 0-1-.2-1.3-.6-.4-.3-.6-.8-.6-1.5l.2-1.1.5-1.3 1-.7a2 2 0 0 1 .9-.4c.6 0 1.1.1 1.3.4.2.2.3.5.3 1 0 .2 0 .5-.3.9l-1 .5c-.5.3-1 .4-1.8.4h-.1v.2c-.1.5-.1.8.1 1.1.3.2.6.3 1.1.3h.7a5 5 0 0 0 .7-.4v.8a6 6 0 0 1-.7.2h-1Zm-.7-3.2h1.1l.8-.5c.2-.1.3-.3.3-.6 0-.2 0-.3-.2-.4l-.5-.2c-.4 0-.8.2-1 .5-.3.2-.5.7-.6 1.2ZM316 243l1.5-7h1.6c.9-.1 1.3 0 1.7.4.2.3.5.8.5 1.3 0 .8-.3 1.5-.9 1.9-.4.4-1.3.6-2.3.6h-.6l-.6 2.8Zm1.6-3.5h.7c.6 0 1.1-.2 1.5-.5.4-.2.6-.7.6-1.2 0-.4-.2-.8-.4-.9-.2-.2-.5-.3-1-.3h-.8Zm6.1 3.6c-.7 0-1.1-.2-1.5-.5-.2-.4-.5-.9-.5-1.6l.3-1.2.4-1.1.9-.8a2 2 0 0 1 1.1-.3c.6 0 .9 0 1.2.3.2.1.3.5.3.9.1.3.1.7-.3 1-.2.2-.5.5-1 .6-.5.2-1 .3-1.8.3h-.2v.4c0 .4.1.7.4.9.1.2.4.3 1 .3h.5a5 5 0 0 0 .8-.3v.7a6 6 0 0 1-.7.3h-1Zm-1-3.1h.3l.9-.1c.4 0 .7-.2.9-.4.2-.1.2-.4.2-.5 0-.3 0-.4-.1-.6l-.5-.1c-.4 0-.7.1-1 .4-.3.3-.4.7-.6 1.3Zm5.5 3.1c-.4 0-.8-.1-1-.5-.4-.3-.6-.6-.6-1.3l.4-1.4c.1-.5.2-.9.5-1.2.2-.4.5-.7.8-.8a2 2 0 0 1 1-.3c.5 0 .7 0 1.1.2l.2.7.6-.9h.5l-.9 5.4h-1l.2-1-.8.8c-.3.2-.6.2-1 .2Zm.3-.7c.2 0 .5-.1.7-.4l.6-.6a4 4 0 0 0 .5-1 3 3 0 0 0 0-.6 4 4 0 0 0 .2-.4c-.1-.4-.1-.6-.4-.8-.1-.2-.4-.3-.6-.3-.3 0-.5 0-.8.2a2 2 0 0 0-.5.7l-.4 1-.2 1.1.2.8c.2.2.4.3.7.3Zm3.7.6 1.6-7.6h.9l-.6 3-.3 1.3-.2.5 2.5-2.6h1L335 240l1.3 3h-1l-1-2.5-.9.5-.4 2Zm6.2.1h-.8l-.7-.4v-.7l.7.3h.8c.4.1.6.1.9-.1.2-.2.3-.4.3-.6s0-.4-.2-.6c-.1-.1-.3-.2-.7-.4l-.9-.7-.2-.8c0-.5.1-.8.4-1.1.4-.3.8-.4 1.4-.4h.9l.7.4-.3.6-.6-.2-.7-.1c-.4 0-.5 0-.7.2-.2.1-.3.3-.3.5l.2.5.7.5.7.4c.1 0 .2.2.3.4l.2.7c0 .5-.2 1-.6 1.2-.3.3-.8.4-1.5.4Zm6.8-.1-.3-7h.9v5.9a25.3 25.3 0 0 1 .9-1.8l1.9-4.2h.9l.2 4.1v1.9l.5-.8.2-.9 1.9-4.3h1L350 243h-1v-4.6a35 35 0 0 1-.1-1.4h-.2l-.2.6-.3.8-2.1 4.6Zm9.3-6.2c-.2 0-.3 0-.5-.2v-.8l.7-.2c.2 0 .3.2.3.5l-.1.5-.4.2Zm-1.9 6.2 1.2-5.4h.9l-1.2 5.4Zm2.6 0 1.6-7.6h.9l-1.6 7.6Zm4.3.1c-.5 0-.8-.1-1-.5-.5-.3-.5-.6-.5-1.3 0-.5 0-1 .2-1.4l.5-1.2c.3-.4.5-.6.8-.8a2 2 0 0 1 1.1-.3c.4 0 .7 0 .9.2l.5.7a35.3 35.3 0 0 1 .3-1.3l.3-1.8h.9l-1.6 7.6h-.7v-1l-.8.8c-.3.2-.6.2-1 .2Zm.3-.7.6-.4.6-.5.5-1 .2-1.1c0-.4 0-.6-.2-.8-.2-.2-.5-.3-.8-.3-.3 0-.5 0-.7.3-.3.1-.4.4-.6.6l-.4 1v1.1c-.1.7.2 1 .8 1Zm5.9.7c-.6 0-1-.2-1.4-.5-.3-.4-.5-.9-.5-1.6 0-.3 0-.8.2-1.2 0-.4.3-.8.5-1.1.2-.4.5-.7.9-.8a2 2 0 0 1 1-.3c.6 0 1.1 0 1.3.3.3.1.3.5.3.9 0 .3-.1.7-.3 1-.2.2-.7.5-1 .6-.5.2-1.1.3-1.8.3h-.2v.4c0 .4 0 .7.3.9.2.2.5.3.9.3h.7a5 5 0 0 0 .8-.3v.7a6 6 0 0 1-.8.3h-.9Zm-.9-3.1h.2l1-.1c.3 0 .6-.2.8-.4.2-.1.3-.4.3-.5l-.1-.6-.6-.1c-.3 0-.6.1-1 .4l-.5 1.3Zm3.8 3 1.1-5.4h.7v1l.4-.5.5-.4.7-.1h.6l-.2.8h-.5c-.3 0-.6 0-.9.3l-.7.8-.3 1-.5 2.5Zm3.9 0 1.2-5.4h.7v1c-.1-.2.1-.3.3-.5a2 2 0 0 1 .7-.4l.8-.2c.4 0 .7.1 1 .5.2 0 .3.4.3.9v.9l-.9 3.2h-.9l.9-3.4v-.6c0-.5-.1-.7-.6-.7l-.8.3c-.3.1-.5.4-.7.7-.2.3-.5.8-.5 1.4l-.5 2.3Zm8 .1c-.6 0-1.1-.2-1.5-.5-.3-.4-.4-.9-.4-1.6l.1-1.2c.1-.4.3-.8.6-1.1.2-.4.5-.7.7-.8a2 2 0 0 1 1.2-.3c.5 0 1 0 1.2.3.2.1.4.5.4.9 0 .3-.2.7-.4 1-.2.2-.4.5-1 .6-.4.2-1 .3-1.8.3h-.1v.4c-.1.4-.1.7.1.9.4.2.6.3 1.1.3h.6a5 5 0 0 0 .7-.3v.7a6 6 0 0 1-.6.3h-1Zm-1-3.1h.3l.9-.1c.5 0 .8-.2 1-.4.1-.1.2-.4.2-.5 0-.3 0-.4-.2-.6l-.5-.1c-.3 0-.7.1-1 .4-.2.3-.5.7-.6 1.3Zm5.1 3.1h-.9l-.6-.4v-.7l.7.3h.8c.4.1.7.1.9-.1.2-.2.3-.4.3-.6s0-.4-.2-.6c-.1-.1-.4-.2-.7-.4l-.9-.7c-.2-.2-.3-.5-.3-.8 0-.5.3-.8.5-1.1.4-.3.8-.4 1.4-.4h.8l.8.4-.3.6-.6-.2-.7-.1c-.3 0-.6 0-.7.2-.2.1-.3.3-.3.5s0 .3.2.5l.7.5.6.4c.2 0 .3.2.4.4l.2.7c0 .5-.2 1-.7 1.2-.3.3-.8.4-1.4.4Zm4.4 0h-1l-.5-.4v-.7l.6.3h.8c.4.1.7.1.9-.1.2-.2.3-.4.3-.6s0-.4-.1-.6l-.8-.4-.9-.7-.2-.8c-.1-.5.1-.8.5-1.1.3-.3.7-.4 1.3-.4h.9l.7.4-.3.6-.6-.2-.6-.1c-.4 0-.6 0-.8.2-.2.1-.3.3-.3.5l.2.5.7.5.6.4c.2 0 .3.2.4.4l.2.7c0 .5-.2 1-.6 1.2-.3.3-.8.4-1.4.4ZM343 255l4-7.3h.8l.9 7.3h-.7l-.4-2.3h-2.4L344 255Zm2.6-3h1.9l-.2-1.7v-1.5h-.2a14 14 0 0 1-.3.8l-.4.9Zm3.9 3 1.1-5.5h.8l-.1 1.1.4-.6.6-.3.6-.2h.6l-.2 1-.5-.2-.8.3c-.3.2-.6.5-.7.9l-.4 1-.5 2.4Zm5.9 0c-.6 0-1 0-1.4-.5-.3-.4-.5-.8-.5-1.5 0-.4 0-.8.2-1.2 0-.5.3-.8.5-1.2.2-.3.5-.6.9-.8a2 2 0 0 1 .9-.3c.8 0 1.2.1 1.4.3.2.2.3.6.3 1l-.3.8c-.2.4-.6.6-1 .8-.5.2-1.1.2-1.8.2h-.2v.4c0 .4 0 .7.3 1 .2.2.5.3.9.3h.7a5 5 0 0 0 .8-.5v.9a6 6 0 0 1-.8.2l-.9.1Zm-.9-3h.1l1.1-.3c.3.1.6-.1.8-.2.2-.2.3-.5.3-.7l-.1-.4-.7-.2c-.2 0-.5.2-.9.5l-.5 1.2Zm5.5 3c-.6 0-.9 0-1.2-.4-.2-.3-.3-.8-.3-1.4 0-.5 0-1 .2-1.4l.5-1.2.8-.8a2 2 0 0 1 1.1-.3c.4 0 .6 0 .9.3l.5.6.3-.8h.7l-1.1 5.3h-.7l.1-.9-.9.8c-.3.2-.6.2-.9.2Zm.1-.7c.4 0 .6 0 .9-.2l.6-.8a4 4 0 0 0 .4-1 3 3 0 0 0 .1-.5 4 4 0 0 0 0-.5c.1-.3.1-.6-.1-.8-.3-.2-.5-.3-.8-.3-.3 0-.5.1-.7.3a2 2 0 0 0-.6.7c-.2.2-.3.6-.4 1l-.1.9c0 .5 0 .9.2 1l.6.2Zm.1 0" style="fill:none;stroke-width:2;stroke-linecap:butt;stroke-linejoin:round;stroke:#fff;stroke-opacity:.6;stroke-miterlimit:10" transform=" rotate(  340 353.848 240.008) "/> <g style="fill:green;fill-opacity:1" transform=" rotate(  340 353.848 240.008) ">  <use xlink:href="#V" x="331.6" y="231.1"/>  <use xlink:href="#L" x="337.5" y="231.1"/>  <use xlink:href="#M" x="343.1" y="231.1"/>  <use xlink:href="#M" x="345.7" y="231.1"/>  <use xlink:href="#G" x="348.3" y="231.1"/>  <use xlink:href="#W" x="353.3" y="231.1"/>  <use xlink:href="#K" x="359.1" y="231.1"/>  <use xlink:href="#C" x="361.7" y="231.1"/>  <use xlink:href="#J" x="367.3" y="231.1"/>  <use xlink:href="#G" x="370.7" y="231.1"/>  <use xlink:href="#X" x="315.6" y="243"/>  <use xlink:href="#G" x="321.3" y="243"/>  <use xlink:href="#C" x="326.2" y="243"/>  <use xlink:href="#Y" x="331.9" y="243"/>  <use xlink:href="#H" x="336.9" y="243"/>  <use xlink:href="#glyph1-9" x="341.2" y="243"/>  <use xlink:href="#T" x="343.8" y="243"/>  <use xlink:href="#K" x="352.4" y="243"/>  <use xlink:href="#M" x="354.9" y="243"/>  <use xlink:href="#E" x="357.5" y="243"/>  <use xlink:href="#G" x="363.3" y="243"/>  <use xlink:href="#B" x="368.3" y="243"/>  <use xlink:href="#D" x="372.3" y="243"/>  <use xlink:href="#G" x="378.1" y="243"/>  <use xlink:href="#H" x="383.1" y="243"/>  <use xlink:href="#H" x="387.4" y="243"/>  <use xlink:href="#U" x="343.6" y="254.9"/>  <use xlink:href="#B" x="349.2" y="254.9"/>  <use xlink:href="#G" x="353" y="254.9"/>  <use xlink:href="#C" x="358" y="254.9"/> </g></svg>