<svg xmlns="http://www.w3.org/2000/svg" xmlns:xlink="http://www.w3.org/1999/xlink" viewBox="0 0 497 279"> <defs overflow="visible" style="stroke:none">  <path id="j" d="M3 .1C2.1.1 1.5 0 1.1-.5.8-1 .6-1.5.6-2.3c0-.5 0-1 .2-1.5.1-.5.4-1 .6-1.4l1-1c.5-.2 1-.3 1.5-.3s.9 0 1.3.3c.3.3.4.7.4 1.2 0 .4-.1.8-.4 1-.2.5-.6.8-1.2 1l-2 .1h-.3v.6c-.1.3-.1.8.3 1.1.2.3.6.4 1 .4h1l.8-.5v1c-.3 0-.6.2-.8.3L3 .1ZM1.7-3.6H2c.4 0 1 0 1.2-.2.4 0 .8-.2 1-.4.3-.2.4-.4.4-.8 0-.2 0-.3-.2-.5l-.7-.2c-.4 0-.7.2-1 .7-.5.2-.7.7-1 1.4Zm.1 0"/>  <path id="i" d="m.3 0 2-9.1h1l-.8 3.6A22.2 22.2 0 0 1 2-3.3l3-3.1h1.3L3.5-3.7 5.3 0H4L2.7-3l-.7.7L1.4 0Zm0 0"/>  <path id="h" d="m.5 0 1.8-8.6h1L1.9-1H5l-.2 1Zm0 0"/>  <path id="g" d="M2.6-7.5 2-7.6v-.5c0-.2 0-.3.2-.5.1-.2.3-.2.5-.2.3 0 .5.2.5.5s0 .5-.2.6l-.4.2ZM.3 0l1.4-6.4h1L1.5 0Zm0 0"/>  <path id="f" d="M2.3.1c-.5 0-1-.1-1.2-.5-.4-.4-.5-1-.5-1.7 0-.6 0-1.1.2-1.7l.7-1.4 1-1c.3-.2.8-.3 1.2-.3.5 0 .8 0 1 .3l.8.8.3-1h.8L5.2 0h-.8l.1-1.2-1 1a2 2 0 0 1-1.2.2Zm.4-.8c.3-.1.5-.3.8-.4.3-.2.6-.5.8-.9l.5-1.2.2-.6v-.6c0-.3-.1-.6-.3-.9-.2-.2-.5-.4-.9-.4-.3 0-.6.1-.8.3l-.7.8-.5 1.2L1.7-2c0 .4 0 .7.2 1 .2 0 .4.2.8.2Zm0-.1"/>  <path id="e" d="M2.3.1c-.5 0-1-.1-1.2-.5-.4-.4-.5-1-.5-1.7 0-.6 0-1.1.2-1.7a5 5 0 0 1 .6-1.4l1-1c.4-.2.8-.3 1.3-.3s.8 0 1 .3l.8.8v-.8l.2-.8.3-2.1h1.1L5.3 0h-.9l.1-1.2-1 1a2 2 0 0 1-1.2.2Zm.4-.8.8-.3.7-.8.6-1.2.2-1.4c0-.3 0-.6-.3-.9-.2-.2-.5-.4-.9-.4-.3 0-.6.1-.9.4-.2.2-.5.3-.6.8l-.5 1.1L1.7-2c0 .8.3 1.3 1 1.3Zm0-.1"/>  <path id="d" d="m.3 0 2-9.1h1L1.3 0Zm0 0"/>  <path id="c" d="M3 0c-.8 0-1.4 0-1.8-.5C.8-1 .6-1.6.6-2.4c0-.5 0-1 .2-1.4.1-.5.2-1 .6-1.4.2-.4.6-.7 1-1 .4-.1.9-.2 1.4-.2.7-.1 1.3.1 1.7.6.5.4.7 1 .7 1.8 0 .5 0 1-.2 1.4l-.6 1.4-1 1C4 0 3.5 0 3 0Zm0-.7c.4-.1.8-.2 1-.5.5-.2.7-.6.9-1.1a5.3 5.3 0 0 0 .2-1.9 2 2 0 0 0-.1-.7l-.4-.5c-.2-.2-.6-.2-.8-.2-.4 0-.8.1-1.1.4-.4.3-.7.7-.8 1.2-.2.5-.3 1-.3 1.7 0 .5.2.8.4 1.1.3.3.6.4 1 .4Zm0-.1"/>  <path id="b" d="m.3 0 2-9.1h1l-.5 2.3-.2.8-.2.8.6-.6.7-.5a2 2 0 0 1 1-.2c.5 0 .9 0 1.1.4.3.1.5.7.5 1.1v.6L6-4l-.7 4h-1L5-4l.2-.8c0-.3 0-.5-.2-.6-.1-.2-.3-.3-.6-.3l-1 .3-.7 1c-.4.4-.6.9-.7 1.5L1.4 0Zm0 0"/>  <path id="a" d="m1.6 0-.3-8.6h1l.2 5.3v2a22.4 22.4 0 0 1 .9-2.2l2.4-5h1l.3 4.9A50.6 50.6 0 0 1 7-1.3l.6-1a14 14 0 0 1 .4-1l2.2-5.4h1.1L7.4 0h-1L6-5.5v-1.7c0 .3-.2.5-.3.7 0 .3-.2.6-.4 1L2.8 0Zm0 0"/>  <path d="M1.1 0v-8.6h5V0Zm.6-.6h3.8V-8H1.7Zm0 0"/> </defs> <image xlink:href="svg/9/94_24.jpg" width="497" height="279"/> <path d="m294 98.5-.5-8.6h1.1l.3 5.2v2a22.4 22.4 0 0 1 .8-2.1l2.4-5h.9l.5 5a50.6 50.6 0 0 1-.1 2.2l.5-1a14 14 0 0 1 .3-1.2l2.3-5.1h1.1l-3.9 8.6h-1l-.3-5.5v-1.7h-.2l-.2.7c0 .3-.2.6-.4 1l-2.6 5.5Zm9 0 1.7-9.2h1.3l-.6 2.4-.2.8-.2.7.7-.6.6-.5a1.93 1.93 0 0 1 2 .2c.4.3.7.7.7 1.3v.4l-.4.6-.6 3.9h-1.1l.7-4v-1l.1-.5-.7-.2-1 .3-.7 1c-.4.2-.6.9-.7 1.5l-.6 2.9Zm9.5.1c-.7 0-1.3-.3-1.8-.7-.4-.4-.6-.9-.6-1.8 0-.5 0-1 .2-1.5.1-.5.3-.9.7-1.3l.9-1c.4-.2.9-.3 1.4-.3.8 0 1.4.2 1.8.6.4.5.6 1 .6 1.8 0 .6 0 1-.2 1.6-.1.4-.3 1-.5 1.2-.4.4-.7.8-1.1 1-.4.2-.9.4-1.4.4Zm0-1c.5.1.9.1 1.2-.2.3-.4.5-.8.7-1.3a5.3 5.3 0 0 0 .2-1.8 2 2 0 0 0 0-.7l-.6-.5c-.1-.2-.4-.3-.7-.3-.3 0-.8.2-1.1.5-.3.3-.6.7-.8 1.2l-.2 1.5c0 .6 0 1.1.3 1.3.3.3.6.4 1 .4Zm4.1.9 2-9.2h1l-2 9.2Zm5.1.1c-.5 0-1-.2-1.3-.5-.3-.4-.4-1.1-.4-1.7 0-.6 0-1.2.2-1.7a5 5 0 0 1 .6-1.4c.3-.4.6-.8 1-1 .4-.2.8-.4 1.3-.4.4.1.9.1 1 .4.3.2.5.4.6.7l.3-.7c-.1-.3-.1-.6 0-.8l.5-2.2h1l-1.9 9.2h-.8v-1.2l-1 1a2 2 0 0 1-1 .2Zm.3-.9c.3 0 .6 0 .9-.3.1-.2.5-.4.7-.8l.6-1.1.2-1.5c0-.3-.1-.6-.4-.9-.1-.1-.4-.2-.9-.2l-.7.2-.8.9-.4 1.1-.2 1.3c0 .9.4 1.3 1 1.3Zm6.6.9c-.5 0-.9-.2-1.2-.6-.4-.3-.5-.9-.5-1.6.1-.6.1-1.2.2-1.7l.7-1.4c.3-.4.6-.8 1-1 .4-.3.8-.4 1.2-.4.5.1.8.1 1 .4.4.2.6.4.7.7l.4-1h.9l-1.4 6.5h-.9l.3-1.2-1.2 1a2 2 0 0 1-1.2.2Zm.4-.9c.3 0 .6 0 .9-.3l.7-.9.6-1.2v-.7l.2-.5c-.1-.4-.1-.7-.4-1-.2-.1-.5-.2-.8-.2l-.9.2-.7.9-.5 1.1-.1 1.3c0 .6 0 .8.3 1 .1.2.3.3.7.3Zm6.7-6.7c-.2 0-.3 0-.4-.2l-.3-.4c.1-.2.1-.4.3-.4.1-.3.3-.4.5-.4.4 0 .6.2.6.6l-.2.6-.5.2Zm-2.2 7.5 1.3-6.5h1.2l-1.5 6.5Zm5.1.1c-.6 0-1-.2-1.3-.6-.3-.3-.5-.9-.5-1.6 0-.6.2-1.2.3-1.7.1-.5.3-1 .6-1.4.3-.4.6-.8 1-1 .4-.3.8-.4 1.3-.4.4.1.7.1 1 .4.3.2.5.4.6.7l.4-1h.8l-1.3 6.5h-.9l.2-1.2-1.1 1a2 2 0 0 1-1.1.2Zm.3-.9c.3 0 .6 0 .9-.3.2-.2.5-.5.7-.9l.6-1.2.1-.7v-.5c0-.4 0-.7-.2-1-.3-.1-.6-.2-.9-.2l-.9.2-.7.9-.4 1.1c-.2.4-.2.8-.2 1.3s0 .8.3 1c.1.2.4.3.7.3ZM306 113l2-8.6h.9l-1.6 7.6h3.3l-.2 1Zm7.6.1c-.5 0-1-.1-1.2-.5-.4-.4-.5-1-.5-1.7 0-.6 0-1.1.1-1.7l.8-1.4c.2-.4.6-.7 1-1 .2-.2.8-.3 1.2-.3.5 0 .8 0 1 .3l.8.8.3-1h.8l-1.4 6.4h-.8l.1-1.2-1 1a2 2 0 0 1-1.2.2Zm.4-.8c.3 0 .5-.3.8-.5.3-.1.6-.4.8-.8l.4-1.2.2-.6v-.6c.1-.3.1-.6-.2-.9-.2-.2-.5-.4-1-.4-.2 0-.5.1-.7.3l-.7.8-.6 1.2v1.4c0 .4 0 .7.2 1 .2 0 .4.2.8.2Zm4.4.7 2-9.1h1l-.7 3.6a22.2 22.2 0 0 1-.7 2.2l3.1-3.1h1.4l-2.8 2.7 1.7 3.7h-1.2l-1.4-3-.8.7-.5 2.3Zm8.3.1c-.7 0-1.3-.1-1.7-.6-.4-.5-.6-1-.6-1.8 0-.5 0-1 .2-1.5l.7-1.4c.2-.4.6-.7 1-1 .4-.2.7-.3 1.3-.3.6 0 1 0 1.4.3.3.3.4.7.4 1.2 0 .4 0 .8-.3 1-.3.5-.7.8-1.3 1l-2.1.1h-.2v.6c0 .3 0 .8.3 1.1.3.3.6.5 1.2.5.2 0 .5 0 .8-.3l.9-.2v.9l-1 .3-.9.1Zm-1-3.7c.5 0 1 0 1.4-.2.4 0 .7-.2.9-.4.2-.2.3-.4.3-.8.1-.2.1-.3-.1-.5l-.6-.2c-.4 0-.8.2-1.2.7-.3.2-.6.7-.8 1.4Zm-.1 0" style="fill:none;stroke-width:2;stroke-linecap:butt;stroke-linejoin:round;stroke:#fff;stroke-opacity:.6;stroke-miterlimit:10" transform=" rotate(  340 318.484 102.736) "/> <g style="fill:#4d80b3;fill-opacity:1" transform=" rotate(  340 318.484 102.736) ">  <use xlink:href="#a" x="292.3" y="98.5"/>  <use xlink:href="#b" x="302.6" y="98.5"/>  <use xlink:href="#c" x="309.5" y="98.5"/>  <use xlink:href="#d" x="316.3" y="98.5"/>  <use xlink:href="#e" x="319.4" y="98.5"/>  <use xlink:href="#f" x="326.3" y="98.5"/>  <use xlink:href="#g" x="333.1" y="98.5"/>  <use xlink:href="#f" x="336.2" y="98.5"/>  <use xlink:href="#h" x="305.6" y="113"/>  <use xlink:href="#f" x="311.3" y="113"/>  <use xlink:href="#i" x="318.1" y="113"/>  <use xlink:href="#j" x="323.8" y="113"/> </g></svg>