<svg xmlns="http://www.w3.org/2000/svg" xmlns:xlink="http://www.w3.org/1999/xlink" viewBox="0 0 497 279"> <defs overflow="visible" style="stroke:none">  <path id="f" d="M5.5-2.7c0 .9-.2 1.7-.7 2-.4.7-1 .9-1.8.9-.5-.2-.9-.2-1.3-.4-.3-.2-.6-.6-.7-1C.6-1.6.5-2 .5-2.7c0-.9.3-1.6.7-2 .5-.5 1-.8 1.8-.8.5 0 1 .2 1.3.5.4 0 .7.4.9.9.2.2.3.7.3 1.3Zm-4 0c0 .7 0 1.2.3 1.5.3.4.7.6 1.2.6.6 0 1-.2 1.2-.6.3-.3.4-.8.4-1.5s-.1-1.1-.4-1.5c-.2-.3-.6-.5-1.2-.5-.5 0-1 .2-1.2.5-.2.4-.3.9-.3 1.5Zm0 0"/>  <path id="e" d="M2.8 0C2 0 1.4 0 1-.5.7-1 .5-1.8.5-2.6c0-1.1.3-1.8.7-2.2.4-.5.8-.7 1.6-.7.4 0 .7.1 1 .3a2 2 0 0 1 .6.5v-2.8h.9V0h-.7l-.1-.7a2 2 0 0 1-.8.6l-.9.1Zm0-.5c.8-.1 1.1-.3 1.4-.6.1-.3.2-.8.2-1.4v-.2c0-.6 0-1.1-.3-1.5-.2-.4-.6-.5-1.2-.5-.5 0-.9.2-1 .5-.4.4-.5 1-.5 1.5.1.7.1 1.2.4 1.5.3.4.6.6 1 .6Zm.1-.1"/>  <path id="d" d="M3.4-5.5c.7 0 1.2.2 1.6.5.2.3.4.8.4 1.5V0h-.9v-3.4c0-.9-.4-1.3-1.2-1.3-.6 0-1 .1-1.2.5-.3.2-.4.8-.4 1.4V0H.8v-5.4h.8v.8h.2c.2-.4.3-.5.7-.7l1-.2Zm0 0"/>  <path id="c" d="M2.9-5.5c.6 0 1.1.2 1.4.5.3.3.5.7.5 1.3V0h-.6L4-.8c-.3.3-.5.6-.8.8h-1c-.5 0-1 0-1.3-.3C.6-.5.5-.9.5-1.5c0-.5.2-1 .5-1.2.5-.3 1-.5 2-.5h.8v-.3c.2-.5.2-.8-.2-1l-.8-.2H2l-.7.5L1-5l1-.3.9-.2Zm1 2.9h-.8c-.6 0-1 .1-1.4.3-.1.3-.3.5-.3.8 0 .3 0 .5.2.7l.7.2c.5 0 .9-.1 1.2-.4.3-.2.4-.6.4-1Zm.1 0"/>  <path id="b" d="M3.3-5.5H4l-.1 1.1-.3-.3h-.3c-.3 0-.5 0-.8.2l-.5.7-.3 1V0H.8v-5.4h.8v1h.2l.6-.6c.3-.3.6-.5 1-.5Zm0 0"/>  <path id="a" d="M1-7.1h2c1 0 1.6.1 2 .4.5.2.7.7.7 1.3 0 .5-.1.8-.3 1-.4.4-.6.6-1 .7l.8.3c.2 0 .4.2.5.5.3.2.3.5.3.9 0 .6-.3 1-.7 1.5-.5.3-1 .5-1.8.5H1Zm.9 3h1.3c.6.1 1 .1 1.3-.3.2-.2.3-.5.3-.9s-.1-.6-.4-.7c-.4-.3-.8-.4-1.4-.4H2Zm0 .8v2.5h1.4c.7 0 1 0 1.3-.2.4-.4.4-.7.4-1.1s-.1-.7-.4-.9c-.2-.2-.6-.3-1.4-.3Zm0 0"/>  <path d="M1 0v-7.1h4V0Zm.4-.5h3.1v-6.1h-3Zm.1 0"/> </defs> <image xlink:href="svg/9/96_11.jpg" width="497" height="279"/> <path d="M153 271.7h2c1 0 1.7 0 2 .3.6.3.9.8.9 1.4-.1.4-.3.8-.5 1-.2.5-.6.6-1 .6l.8.4c.3 0 .4.2.6.6l.2.8c0 .6-.2 1.1-.7 1.5-.3.3-1 .5-1.8.5H153Zm1 3h1.1c.7 0 1.1-.1 1.4-.3.2-.2.3-.5.3-.9s-.1-.5-.4-.8c-.3-.2-.7-.3-1.3-.3h-1.2Zm0 .7v2.6h1.2c.8 0 1.2 0 1.5-.3.2-.3.3-.7.3-1s0-.7-.4-1c-.2 0-.6-.2-1.3-.2Zm7.9-2.1h.6v1h-.8c-.1-.2-.4-.2-.6 0-.3.2-.5.4-.6.7-.2.3-.2.6-.2 1v2.7h-1v-5.3h.9v1l.8-.7c.2-.3.5-.4 1-.4Zm3.4 0c.7 0 1.2.2 1.5.5.2.2.5.7.5 1.2v3.8h-.7l-.2-.8-.7.7-1 .2c-.7 0-1.1-.1-1.4-.4-.2-.2-.4-.5-.4-1.2.1-.5.2-1 .6-1.2.5-.3 1.1-.5 2-.5h.9v-.4c0-.4-.1-.7-.3-.9-.1-.2-.5-.2-.8-.2h-.8l-.7.5-.3-.8.8-.3 1-.2Zm1.1 2.9h-.8c-.6 0-1.1.1-1.4.3-.2.2-.4.5-.4.8 0 .3.2.5.3.7l.7.2c.5 0 .8-.2 1.2-.4.2-.2.4-.6.4-1.1Zm5.1-2.9c.6 0 1.1.2 1.5.5.3.3.4.8.4 1.5v3.5h-.8v-3.4c0-.9-.4-1.4-1.2-1.4-.6 0-1 .2-1.4.6 0 .3-.2.8-.2 1.4v2.8h-.8v-5.4h.6l.2.8.7-.7 1-.2Zm5.5 5.6c-.7 0-1.2-.2-1.6-.7-.4-.5-.6-1.2-.6-2 0-1.1.2-1.8.6-2.2.4-.4 1-.7 1.6-.7.4 0 .8.1 1 .3a2 2 0 0 1 .7.4v-2.8h.9v7.6h-.8v-.8h-.2a2 2 0 0 1-.6.7l-1 .2Zm.1-.7c.6 0 1-.2 1.2-.5.3-.3.4-.8.4-1.4v-.3c0-.5-.1-1-.4-1.4-.2-.4-.6-.5-1.2-.5-.4-.1-.8.2-1 .5-.3.4-.4 1-.4 1.5 0 .7.1 1.2.4 1.5.2.4.6.6.9.6Zm8.9-2.1c0 .9-.4 1.6-.9 2-.3.6-.9.9-1.7.9-.4-.1-.9-.2-1.3-.4-.3-.2-.6-.6-.8-1-.3-.4-.3-.9-.3-1.5 0-.9.2-1.6.6-2 .5-.5 1-.8 1.9-.8.4 0 .9.1 1.2.4.4.2.7.5.9 1 .2.3.3.7.3 1.3Zm-4.2 0c.1.6.1 1.1.4 1.5.3.4.8.6 1.2.6.6 0 1-.2 1.2-.6.4-.4.4-.9.4-1.5s-.1-1.1-.4-1.5c-.2-.3-.6-.5-1.2-.5-.4-.1-1 .2-1.2.5-.2.4-.2.9-.2 1.5Zm8.1-2.8c.6 0 1.1.2 1.4.5.4.3.5.8.5 1.5v3.5h-.8v-3.4c0-.9-.4-1.4-1.2-1.4-.6 0-1 .2-1.3.6-.2.3-.3.8-.3 1.4v2.8h-.9v-5.4h.7l.1.8.9-.7 1-.2Zm0 0" style="fill:none;stroke-width:3;stroke-linecap:butt;stroke-linejoin:round;stroke:#fff;stroke-opacity:.6;stroke-miterlimit:10" transform=" rotate(  340 172.496 275.791) "/> <g style="fill:#222;fill-opacity:1" transform=" rotate(  340 172.496 275.791) ">  <use xlink:href="#a" x="152" y="278.8"/>  <use xlink:href="#b" x="158.5" y="278.8"/>  <use xlink:href="#c" x="162.5" y="278.8"/>  <use xlink:href="#d" x="168.1" y="278.8"/>  <use xlink:href="#e" x="174.3" y="278.8"/>  <use xlink:href="#f" x="180.4" y="278.8"/>  <use xlink:href="#d" x="186.5" y="278.8"/> </g></svg>