<svg xmlns="http://www.w3.org/2000/svg" xmlns:xlink="http://www.w3.org/1999/xlink" viewBox="0 0 497 279"> <defs overflow="visible" style="stroke:none">  <path id="g" d="M2.4 0c-.6 0-1 0-1.4-.3C.6-.8.5-1.3.5-2c0-.3 0-.8.2-1.2 0-.4.3-.8.5-1.1.2-.4.5-.7.8-.8a2 2 0 0 1 1.2-.4c.5 0 .8.2 1.1.5.3 0 .4.4.4.8 0 .3-.1.7-.3 1-.4.2-.6.4-1 .6-.6.2-1.2.3-1.9.3h-.1v.3c0 .5 0 .8.3 1 .2.3.5.4.9.4l.7-.1A5 5 0 0 0 4-1v.7a6 6 0 0 1-.7.3h-.9Zm-.9-3 1.3-.1.7-.4c.2-.1.3-.4.3-.5l-.1-.6-.7-.1c-.2 0-.5.1-.9.4L1.6-3Zm0 0"/>  <path id="f" d="m.3 0 1.6-7.6h.9l-.8 3c.1.6 0 1-.2 1.3l-.1.5 2.5-2.6h1L3-3l1.4 3h-1L2.3-2.5l-.7.5-.4 2Zm0 0"/>  <path id="e" d="M.4 0 2-7.1h1L1.4-.8h2.8L4 0Zm0 0"/>  <path id="d" d="M-.3 2.4h-.3l-.4-.1v-.7h.7c.3.1.5.1.7-.1.2-.2.4-.5.5-.8l.4-.6-.8-5.5h.9l.3 2.7v.7l.2.7v.6A28.4 28.4 0 0 1 2.5-2c-.1 0 .1-.3.2-.4l1.5-3h1L1.7 1c-.1.4-.4.8-.7 1-.4.3-.8.4-1.2.4Zm0 0"/>  <path id="c" d="m.3 0 1.1-5.4h.7v1l.4-.5.5-.4.7-.2H4l.3.2-.2.7h-.5c-.3-.1-.6-.1-.9.2l-.7.9-.3 1L1.2 0Zm0 0"/>  <path id="b" d="M2 0c-.6 0-.9 0-1.2-.3C.6-.7.5-1 .5-1.7c0-.5 0-1 .2-1.5l.5-1.1c.2-.4.5-.7.8-.9a2 2 0 0 1 1.1-.3c.4 0 .6.1.9.3l.5.7.3-.9h.7L4.4 0h-.7l.1-1c-.3.3-.5.6-.9.8-.3.2-.6.2-.9.2Zm.1-.5c.4-.1.6-.2.9-.5l.6-.6a4 4 0 0 0 .4-1 3 3 0 0 0 .1-.7 4 4 0 0 0 0-.4c.1-.3.1-.5-.1-.7-.3-.2-.5-.3-.8-.3-.3 0-.5 0-.7.2a2 2 0 0 0-.6.7l-.4 1-.1 1.1c0 .4 0 .6.2.8.1.2.3.3.6.3Zm.1-.1"/>  <path id="a" d="M3.4 0c-.8 0-1.4 0-2-.5C1-1.1.7-1.7.7-2.6A6 6 0 0 1 1-4.4c.2-.6.4-1 .8-1.6.2-.3.7-.6 1.2-.9.5-.1 1-.3 1.6-.3h1.1l1 .5-.5.7a7.8 7.8 0 0 0-.7-.3l-1-.2c-.5 0-.9.2-1.3.5-.6.4-.9.8-1.2 1.4a4.8 4.8 0 0 0-.4 2c.1.2.1.6.3.9 0 .4.3.6.6.7l1 .3h.7l.5-.3.6-1.9H3.8l.2-1h2.3L5.5-.3a8 8 0 0 1-1 .3h-.9Zm0 0"/>  <path d="M1 0v-7.1h4V0Zm.4-.5h3.1v-6.1h-3Zm.1 0"/> </defs> <image xlink:href="svg/9/96_33.jpg" width="497" height="279"/> <path d="M77.4 270.8c-.9 0-1.6-.3-2-.8-.5-.4-.8-1.1-.8-2a6 6 0 0 1 .4-1.7c.1-.6.4-1 .7-1.5.3-.4.7-.8 1.2-1 .5-.2 1.1-.3 1.6-.3h1.1l1 .5-.4.6a7.8 7.8 0 0 0-.8-.2l-1-.2c-.4 0-.9.2-1.4.5-.4.4-.8.8-1 1.4a4.8 4.8 0 0 0-.4 1.9c0 .3 0 .6.2 1 .1.2.2.5.6.6.3.4.6.4 1 .4h.7l.6-.2.3-2.1h-1.3l.3-.8h2.2l-.8 3.5a8 8 0 0 1-1 .3h-.9Zm5.2 0c-.4 0-.6-.2-1-.5-.3-.3-.4-.7-.4-1.3 0-.5 0-1 .2-1.5l.5-1.2.8-.8a2 2 0 0 1 1.1-.3c.4 0 .6.1.9.3l.3.7h.2l.3-.9h.7l-1.2 5.4h-.7l.2-1-1 .8c-.2.2-.5.3-.9.3Zm.4-.8c.2 0 .4 0 .6-.2l.7-.7a4 4 0 0 0 .4-1.1 3 3 0 0 0 .1-.6 4 4 0 0 0 0-.4c0-.3 0-.5-.2-.7-.2-.3-.4-.3-.7-.3-.3 0-.5 0-.7.2a2 2 0 0 0-.6.8l-.4.9-.1 1c-.1.5-.1.8.2 1 .1.1.3.2.6.2Zm3.7.7 1.1-5.4h.7v1l.4-.5.5-.4.7-.2h.3l.3.2-.2.7H90c-.4-.1-.7-.1-1 .2l-.5.9-.4 1-.6 2.5Zm3.9 0 1.2-5.4h.7l-.1 1 .6-.5.4-.4.6-.2h.4l.2.2-.2.7H94c-.4-.1-.7-.1-.9.2l-.7.9-.4 1-.5 2.5ZM94 273h-.5v-.7h.5c.3.1.5.1.7-.1l.6-.8.3-.6-.8-5.5h.9l.3 2.7.1.7v1.3h.2a28.4 28.4 0 0 1 .4-1.2l.3-.5 1.5-3h1l-3.5 6.3c-.2.4-.5.9-.8 1.1-.2.3-.6.4-1.1.4Zm-17.2 9.6 1.5-7.1h.9l-1.4 6.3h2.8l-.2.8Zm6.2.1c-.3 0-.6-.1-1-.4-.2-.3-.4-.8-.4-1.4 0-.5 0-1 .2-1.4.2-.5.3-.9.6-1.2.2-.4.5-.6.8-.8a2 2 0 0 1 1-.3c.4 0 .8 0 1 .3l.3.5.5-.7h.6l-1.1 5.3h-.7l.1-1-.9.8c-.2.2-.6.3-1 .3Zm.5-.7c.1 0 .3 0 .5-.3l.7-.7a4 4 0 0 0 .5-1 3 3 0 0 0 0-.6 4 4 0 0 0 .1-.4c0-.3 0-.6-.3-.8 0-.2-.4-.3-.7-.3-.2.1-.5.1-.7.3a2 2 0 0 0-.6.6c0 .3-.3.6-.3 1l-.2 1.1c0 .4 0 .6.2.8.3.3.4.3.7.3Zm3.5.6 1.8-7.6h.8l-.7 3c.1.6-.2 1-.3 1.3l-.1.6 2.5-2.6h1l-2.1 2.3 1.3 3h-1l-1.1-2.5-.7.6-.4 2Zm7 .1c-.6 0-1.1-.2-1.4-.5-.4-.4-.6-.9-.6-1.5l.2-1.3c.1-.4.3-.8.6-1.1l.8-.8a2 2 0 0 1 1.1-.3c.5 0 1 0 1.3.3 0 .2.3.5.3 1 0 .2-.3.5-.4.8-.2.4-.5.6-.9.7l-1.9.3H93v.4c0 .3 0 .7.1 1 .3.1.6.3 1.1.3l.6-.1a5 5 0 0 0 .8-.3v.7a6 6 0 0 1-.6.3l-1.1.1Zm-1-3.1h.3l.9-.1c.5 0 .8-.2 1-.4.1-.1.2-.3.2-.6 0-.2 0-.3-.2-.5 0-.1-.2-.1-.5-.1s-.7.1-1 .4c-.3.3-.5.8-.6 1.3Zm0 0" style="fill:none;stroke-width:2;stroke-linecap:butt;stroke-linejoin:round;stroke:#fff;stroke-opacity:.6;stroke-miterlimit:10" transform=" rotate(  340 86.9333 273.656) "/> <g style="fill:#4d80b3;fill-opacity:1" transform=" rotate(  340 86.9333 273.656) ">  <use xlink:href="#a" x="73.9" y="270.7"/>  <use xlink:href="#b" x="80.7" y="270.7"/>  <use xlink:href="#c" x="86.4" y="270.7"/>  <use xlink:href="#c" x="90.4" y="270.7"/>  <use xlink:href="#d" x="94.3" y="270.7"/>  <use xlink:href="#e" x="76.4" y="282.6"/>  <use xlink:href="#b" x="81.1" y="282.6"/>  <use xlink:href="#f" x="86.8" y="282.6"/>  <use xlink:href="#g" x="91.6" y="282.6"/> </g></svg>