<svg xmlns="http://www.w3.org/2000/svg" xmlns:xlink="http://www.w3.org/1999/xlink" viewBox="0 0 497 279"> <defs overflow="visible" style="stroke:none">  <path id="k" d="M2.9.2c-.6 0-1.2-.3-1.6-.7C1-1 .7-1.7.7-2.5A8 8 0 0 1 1-4.8a6.4 6.4 0 0 1 .8-1.7c.2-.5.7-1 1.2-1.2a3 3 0 0 1 1.7-.5c.5 0 1 .2 1.3.4l.7 1a150.6 150.6 0 0 0 .5-2l.5-2.6H9L6.5 0h-1l.1-1.5L4.4-.3c-.5.3-1 .5-1.5.5ZM3.3-1c.4 0 .7-.1 1-.3l1-1c.3-.4.5-1 .7-1.5a5.5 5.5 0 0 0 .3-1.7c0-.4-.3-.8-.5-1.1-.1-.4-.5-.5-1.1-.5-.2.1-.7.2-.9.4l-1 1-.5 1.5c-.3.5-.3 1-.3 1.6 0 1.1.5 1.7 1.3 1.7Zm0 0"/>  <path id="j" d="M2.9.2c-.6 0-1.2-.3-1.6-.7C1-1 .7-1.7.7-2.5s.1-1.7.3-2.3a6.3 6.3 0 0 1 .8-1.7 4 4 0 0 1 1.3-1.2 3 3 0 0 1 1.6-.5c.5 0 1 .2 1.3.4l.7 1L7.3-8h1L6.5 0h-1l.2-1.5A6 6 0 0 1 4.3-.3C4 0 3.4.2 3 .2ZM3.3-1c.4 0 .8-.1 1.1-.3a4 4 0 0 0 1-1.1 6 6 0 0 0 .8-2.4v-.7c0-.4-.1-.8-.4-1.1-.2-.4-.6-.5-1-.5s-.7.1-1 .4c-.5.2-.8.6-1.1 1l-.4 1.5c-.3.4-.3.9-.3 1.6 0 .6 0 1 .4 1.3.2.2.5.3 1 .3Zm0 0"/>  <path id="i" d="m.4 0 2.4-11.4h1.4L1.7 0Zm0 0"/>  <path id="h" d="M2.3.2 1 0C.7 0 .4-.2 0-.4v-1.2L1-1a4 4 0 0 0 1.4 0c.5 0 .9-.1 1.2-.3.4-.2.5-.5.5-.9-.1-.3-.1-.5-.3-.7l-1-.7-1.4-1C1.2-5 1-5.4 1-6c0-.6.3-1.1.8-1.6.3-.4 1.1-.6 2-.6.4 0 .9 0 1.2.2.5 0 1 .2 1.1.4l-.2 1a7.4 7.4 0 0 0-1.1-.3 3.8 3.8 0 0 0-.9-.2c-.6.1-.9.1-1.1.3-.4.2-.6.5-.6.8.1.3.2.5.4.7l1 .7a9 9 0 0 1 1.1.6l.5.7c.2.3.2.6.2 1 0 .8-.2 1.3-.8 1.8C4 0 3.3.2 2.3.2Zm0 0"/>  <path id="g" d="m-.3 0 .1-.7L1.1-1 3-9.7 1.8-10l.2-.7h3.7l-.1.7-1.3.3L2.4-1l1.2.3-.1.7Zm0 0"/>  <path id="f" d="M.4 0 2-8h1.2l-.1 1.3a7 7 0 0 1 .7-.6c.2-.3.5-.5.9-.7l1.1-.2c.7 0 1.2.1 1.5.5.4.4.7.9.7 1.5v.7l-.4.6L6.7 0H5.2l1.1-5a9 9 0 0 0 .1-.7v-.4c.1-.6-.2-.9-.9-.9-.3 0-.6.2-1 .4s-.9.6-1.1 1c-.4.6-.8 1.3-1 2.1L1.8 0Zm0 0"/>  <path id="e" d="m.4 0 2.4-11.4h1.4l-.7 3-.2.9-.3 1h.1l.7-.8c.2-.2.5-.5.9-.6.3-.2.7-.3 1.1-.3.6 0 1.2.2 1.5.5.4.4.5.9.5 1.7v.5l-.1.5-1 5H5.2l1.1-5 .3-1c-.1-.4-.1-.6-.3-.8-.3-.2-.5-.3-.8-.3-.5.1-.7.1-1.1.4-.4.2-.8.6-1.1 1.1-.4.6-.6 1.3-.8 2.1L1.7 0Zm0 0"/>  <path id="d" d="m2.8 3.6-1.4-.1-1-.5V1.9l1 .4 1.4.2c.6 0 1-.2 1.5-.5.4-.2.7-.7.7-1.4l.3-.6a21.2 21.2 0 0 1 .2-1.5L4.4-.3C4 0 3.4.2 3 .2c-.7 0-1.3-.3-1.7-.7C1-1 .7-1.7.7-2.5A8 8 0 0 1 1-4.8a6.3 6.3 0 0 1 .8-1.7A4 4 0 0 1 3-7.7a3 3 0 0 1 1.7-.5c.5 0 1 .2 1.3.4l.7 1L7.4-8h.9L6.4.5c-.2 1-.6 1.9-1.2 2.4-.7.5-1.4.7-2.4.7ZM3.3-1c.4 0 .7-.1 1-.3l1.1-1L6-3.8a5.7 5.7 0 0 0 .2-1.7c0-.4 0-.8-.2-1.1-.3-.4-.7-.5-1.2-.5-.4.1-.8.2-1.1.4l-.9 1-.5 1.5c-.3.5-.3 1-.3 1.6 0 1.1.5 1.7 1.3 1.7Zm0 0"/>  <path id="c" d="M3.2-9.4c-.2 0-.4 0-.5-.2-.2 0-.2-.3-.2-.4s0-.6.2-.8l.7-.2c.4 0 .6.2.6.6 0 .4 0 .6-.2.8l-.6.2ZM.4 0l1.7-8h1.4L1.7 0Zm0 0"/>  <path id="b" d="M3.6.2C2.7.2 2-.1 1.5-.7 1-1.2.7-1.9.7-2.9a6.6 6.6 0 0 1 1.1-3.6c.3-.5.8-1 1.3-1.2a3 3 0 0 1 1.6-.5c.8 0 1.4.2 1.8.5.3.3.5.8.5 1.4 0 .5 0 1-.5 1.3-.3.5-.8 1-1.5 1.1-.7.3-1.6.4-2.7.4h-.2v.6c-.1.6.1.9.4 1.4.3.5.8.6 1.4.6.4-.1.7-.1 1-.2l1.2-.5v1.2L4.9 0 3.6.2ZM2.3-4.5 4-4.7c.6-.1 1-.3 1.3-.5.3-.3.5-.6.5-1 0-.3-.1-.5-.3-.6-.2-.2-.5-.3-.8-.3-.5.1-1 .2-1.4.7-.5.4-.8 1-1 1.9Zm0 0"/>  <path id="a" d="m.6 0 2.3-10.7h1.9l1 8.7 4.8-8.7h2L10.5 0H9.1l1.3-6.4a171.5 171.5 0 0 1 .8-3L6 0H5L3.7-9.4a28.1 28.1 0 0 1-.3 1.9l-.2 1L2 0Zm0 0"/>  <path d="M1.4 0v-10.7h6.2V0Zm.8-.8h4.6v-9.1H2.2Zm0 0"/> </defs> <image xlink:href="svg/9/96_68.jpg" width="497" height="279"/> <path d="m244 20.4 2.4-10.7h1.9l.9 8.8 4.9-8.8h1.9l-2 10.7h-1.4l1.3-6.3a171.5 171.5 0 0 1 .7-3.1l-5.2 9.3h-1l-1.2-9.2a28.1 28.1 0 0 1-.3 1.8l-.2 1.1-1.4 6.4Zm15.7.2c-1 0-1.6-.3-2.1-.8-.6-.6-.8-1.3-.8-2.2a6.6 6.6 0 0 1 1-3.6c.5-.6 1-1 1.5-1.3a3 3 0 0 1 1.5-.4c.8 0 1.4.1 1.7.5.5.2.6.7.6 1.2 0 .7-.1 1.1-.5 1.6-.3.4-.8.7-1.5 1-.7.2-1.6.4-2.7.4h-.2v.5c0 .6.1 1.1.4 1.5.3.3.8.5 1.4.5.3 0 .7 0 1-.2.4 0 .8-.2 1.2-.3v1l-1.2.4-1.3.2Zm-1.3-4.7c.8 0 1.3 0 1.8-.2.4 0 .9-.2 1.2-.5.3-.2.4-.6.4-1 0-.2 0-.4-.2-.6-.2-.2-.6-.2-.8-.2-.5 0-1 .2-1.4.6-.5.5-.8 1-1 2Zm8.4-4.9h-.6l-.2-.6c0-.4.1-.5.3-.7.1-.2.4-.3.6-.3.5 0 .7.2.7.7 0 .3 0 .5-.2.7l-.6.3Zm-2.8 9.5 1.7-8.1h1.3l-1.7 8Zm6.2 3.5H269c-.5-.2-1-.3-1.1-.5v-1.2c.1.2.4.3.9.4.5.3 1 .3 1.4.3.6 0 1.1-.2 1.5-.5.4-.3.7-.8.9-1.5l.1-.6a21.2 21.2 0 0 1 .4-1.4l-1.3 1c-.4.4-.9.6-1.4.6-.7 0-1.2-.2-1.6-.7-.4-.5-.6-1.1-.6-2a8 8 0 0 1 .2-2.1 6.3 6.3 0 0 1 .8-1.8 4 4 0 0 1 1.3-1.3 3 3 0 0 1 1.5-.4c.6 0 1.1.1 1.4.4.3.3.6.6.7 1h.1l.5-1.4h1l-1.7 8.6c-.4 1.1-.8 2.1-1.4 2.4-.6.5-1.4.7-2.4.7Zm.6-4.5c.2 0 .7-.1 1-.4l1-1c.2-.4.4-.9.5-1.4a5.7 5.7 0 0 0 .4-1.7c0-.5-.1-1-.4-1.2-.2-.3-.6-.4-1-.4-.6 0-1 .1-1.3.4-.2.2-.5.5-.7 1-.3.4-.5.9-.6 1.4l-.2 1.8c0 .9.5 1.5 1.3 1.5Zm5.8.9L279 9h1.3l-.7 3c0 .3 0 .6-.2 1l-.2.8.8-.7.8-.6 1.1-.2c.7 0 1.2.1 1.5.5.4.2.6.8.6 1.5v.7l-.3.6-.9 4.8h-1.4l1.1-5 .1-1c0-.3 0-.6-.2-.8l-.8-.2c-.4 0-.7 0-1.1.3-.5.3-.8.6-1.1 1.3-.3.4-.6 1-.8 1.9l-.7 3.6Zm11.8.2c-.9 0-1.6-.3-2.1-.8-.5-.6-.8-1.3-.8-2.2a6.6 6.6 0 0 1 1.1-3.6c.4-.6.8-1 1.4-1.3a3 3 0 0 1 1.6-.4c.7 0 1.3.1 1.7.5.4.2.5.7.5 1.2 0 .7-.1 1.1-.4 1.6-.4.4-.9.7-1.6 1-.7.2-1.5.4-2.6.4h-.3v.5c0 .6.1 1.1.4 1.5.3.3.8.5 1.4.5.3 0 .7 0 1-.2.5 0 .9-.2 1.3-.3v1l-1.2.4-1.4.2Zm-1.3-4.7h.1c.6 0 1.2 0 1.8-.2.4 0 .8-.2 1-.5.4-.2.6-.6.6-1l-.3-.6c-.2-.2-.4-.2-.8-.2-.5 0-1 .2-1.5.6-.4.5-.7 1-1 2Zm5.6 4.5 1.7-8h1.2l-.2 1.5a7 7 0 0 1 .7-.9c.2-.1.5-.4.9-.5.3-.2.7-.3 1-.3.8 0 1.3.2 1.6.5.4.4.6.9.6 1.5v.8l-.2.6-1 4.8h-1.4l1-5a9 9 0 0 0 .1-.6v-.4c.1-.7-.2-1-.9-1-.3 0-.6.1-1 .4-.5.2-.9.6-1.1 1-.5.7-.7 1.4-1 2.2l-.6 3.4Zm-41.3 18 .1-.8 1.3-.3 1.8-8.6-1.1-.3.2-.7h3.7l-.2.7-1.2.3-2 8.6 1.3.3-.3.8Zm7.5.1-1.3-.1-1-.4v-1.2l1 .4a4 4 0 0 0 1.2.2c.6 0 1-.1 1.4-.3.3-.3.4-.6.4-1.1 0 0 0-.3-.2-.5l-1.1-.8c-.6-.3-1-.6-1.3-1-.3-.3-.4-.7-.4-1.3 0-.6.2-1.2.7-1.6.5-.4 1.2-.6 2-.6l1.4.1 1 .4-.4 1a7.4 7.4 0 0 0-.9-.2 3.8 3.8 0 0 0-1.1-.2c-.4 0-.8 0-1 .3-.3.2-.4.4-.4.8 0 .2 0 .5.1.6l1.2.8a9 9 0 0 1 1 .6l.4.6c.4.3.4.7.4 1 0 .7-.3 1.4-1 1.8-.4.5-1.2.7-2 .7Zm4.5-.1 2.6-11.5h1.2l-2.5 11.5Zm6.4.1c-.8 0-1.2-.2-1.6-.7-.4-.5-.6-1.1-.6-2 0-.8.1-1.5.4-2.2a6.3 6.3 0 0 1 .7-1.8 4 4 0 0 1 1.3-1.2 3 3 0 0 1 1.6-.4c.4 0 1 .1 1.2.4.4.3.6.6.8 1l.6-1.3h.9l-1.7 8h-1l.2-1.3a6 6 0 0 1-1.4 1c-.2.4-.9.5-1.4.5Zm.4-1c.4-.1.8-.3 1.1-.5a4 4 0 0 0 1-1 6 6 0 0 0 .7-2.5v-.6c.1-.5 0-.9-.3-1.2-.2-.3-.6-.4-1-.4s-.8.1-1 .4c-.5.2-.7.5-1.1 1l-.4 1.3c-.2.6-.2 1.2-.2 1.8 0 .5 0 1 .3 1.2.2.3.5.4 1 .4Zm5.6.9 1.7-8.1h1.2l-.2 1.5a7 7 0 0 1 .7-.8l.8-.6c.4-.2.8-.4 1.2-.4.8.1 1.2.3 1.6.7.2.3.5.8.5 1.5v.7l-.3.6-.9 4.9h-1.4l1-5.1a9 9 0 0 0 .1-.6v-.4c.1-.7-.1-1-.9-1-.3 0-.6.1-1 .4-.5.2-.8.6-1.1 1-.5.7-.8 1.3-1 2.3l-.6 3.4Zm11.2.1c-.6 0-1.2-.2-1.6-.7-.4-.4-.6-1.1-.6-2a8 8 0 0 1 .3-2.1 6.4 6.4 0 0 1 .8-1.8c.3-.6.7-1 1.1-1.3a3 3 0 0 1 1.8-.4c.5 0 1 .1 1.2.4l.8 1a150.5 150.5 0 0 0 .5-2l.5-2.7h1.2l-2.4 11.5h-1l.1-1.5-1.2 1.1c-.5.4-1 .5-1.5.5Zm.4-1c.4-.1.7-.3 1-.5.4-.2.7-.5 1-1l.6-1.4a5.5 5.5 0 0 0 .3-1.6c0-.6 0-1-.3-1.3-.2-.3-.6-.4-1.2-.4-.4 0-.7.1-1 .4-.4.2-.6.6-.9 1l-.6 1.3-.1 1.8c0 1 .4 1.6 1.2 1.6Zm0-.1" style="fill:none;stroke-width:2;stroke-linecap:butt;stroke-linejoin:round;stroke:#fff;stroke-opacity:.6;stroke-miterlimit:10" transform=" rotate(  340 272.258 26.4006) "/> <g style="fill:#000;fill-opacity:1" transform=" rotate(  340 272.258 26.4006) ">  <use xlink:href="#a" x="243.5" y="20.4"/>  <use xlink:href="#b" x="256.1" y="20.4"/>  <use xlink:href="#c" x="263.6" y="20.4"/>  <use xlink:href="#d" x="267.4" y="20.4"/>  <use xlink:href="#e" x="276.1" y="20.4"/>  <use xlink:href="#b" x="284.8" y="20.4"/>  <use xlink:href="#f" x="292.3" y="20.4"/>  <use xlink:href="#g" x="251.7" y="38.4"/>  <use xlink:href="#h" x="256.5" y="38.4"/>  <use xlink:href="#i" x="263" y="38.4"/>  <use xlink:href="#j" x="266.9" y="38.4"/>  <use xlink:href="#f" x="275.4" y="38.4"/>  <use xlink:href="#k" x="284.1" y="38.4"/> </g></svg>