<svg xmlns="http://www.w3.org/2000/svg" xmlns:xlink="http://www.w3.org/1999/xlink" viewBox="0 0 497 279"> <defs overflow="visible" style="stroke:none">  <path id="m" d="M3 0c-.5 0-.9 0-1.3-.1-.3-.3-.6-.6-.7-.9-.4-.5-.5-1-.5-1.7 0-.6.2-1.1.5-1.5 0-.6.4-.8.8-1.1.2-.1.8-.2 1.2-.2l.8.1.7.2-.3.8-.6-.2H3c-1-.1-1.5.6-1.5 1.9 0 .7 0 1 .3 1.4.3.5.7.6 1.2.6h.8l.6-.3v.8a2 2 0 0 1-.6.2H3Zm0 0"/>  <path id="l" d="M1.3-7.4c.1 0 .3 0 .4.2l.1.4-.1.4-.4.2-.4-.3-.1-.3.1-.4.4-.2Zm.4 2V0H.8v-5.4Zm0 0"/>  <path id="k" d="M3.3-5.5H4l-.1 1.1-.3-.3h-.3c-.3 0-.5 0-.8.2l-.5.7-.3 1V0H.8v-5.4h.8v1h.2l.6-.6c.3-.3.6-.5 1-.5Zm0 0"/>  <path id="j" d="M2.6-.6H3l.4-.2v.7L3 0H1.7l-.6-.5-.1-1v-3.3H.2V-5l.7-.5.4-1h.5v1h1.5v.8H1.8v3.1c0 .3 0 .6.2.7l.6.3Zm0 0"/>  <path id="i" d="M2.9-5.5c.6 0 1.1.2 1.4.5.3.3.5.7.5 1.3V0h-.6L4-.8c-.3.3-.5.6-.8.8h-1c-.5 0-1 0-1.3-.3C.6-.5.5-.9.5-1.5c0-.5.2-1 .5-1.2.5-.3 1-.5 2-.5h.8v-.3c.2-.5.2-.8-.2-1l-.8-.2H2l-.7.5L1-5l1-.3.9-.2Zm1 2.9h-.8c-.6 0-1 .1-1.4.3-.1.3-.3.5-.3.8 0 .3 0 .5.2.7l.7.2c.5 0 .9-.1 1.2-.4.3-.2.4-.6.4-1Zm.1 0"/>  <path id="h" d="M3-5.5c.3 0 .7.1 1 .3a2 2 0 0 1 1 .9v1.8H1.5c0 .5.1 1 .4 1.4.3.3.7.4 1.3.4H4l.9-.3v.8L4 0a5 5 0 0 1-1 0 3 3 0 0 1-1.2-.1 2.2 2.2 0 0 1-1-1.1c0-.2-.2-.8-.2-1.3-.1-.7 0-1.2.2-1.6.2-.5.5-.9.9-1 .3-.2.7-.4 1.2-.4Zm0 .8c-.6 0-.9.1-1 .4-.4.2-.6.6-.6 1.1h2.8c0-.5-.1-.8-.3-1.1-.2-.3-.5-.4-1-.4Zm0 0"/>  <path id="g" d="M1-7.1h2c1 0 1.6.1 2 .4.5.2.7.7.7 1.3 0 .5-.1.8-.3 1-.4.4-.6.6-1 .7l.8.3c.2 0 .4.2.5.5.3.2.3.5.3.9 0 .6-.3 1-.7 1.5-.5.3-1 .5-1.8.5H1Zm.9 3h1.3c.6.1 1 .1 1.3-.3.2-.2.3-.5.3-.9s-.1-.6-.4-.7c-.4-.3-.8-.4-1.4-.4H2Zm0 .8v2.5h1.4c.7 0 1 0 1.3-.2.4-.4.4-.7.4-1.1s-.1-.7-.4-.9c-.2-.2-.6-.3-1.4-.3Zm0 0"/>  <path d="M1 0v-7.1h4V0Zm.4-.5h3.1v-6.1h-3Zm.1 0"/>  <path id="f" d="M2.3 0H1v-9.9h1.2Zm0 0"/>  <path id="e" d="M7.2-3.5c0 1.2-.3 2-1 2.7-.4.6-1.2 1-2.2 1a3.2 3.2 0 0 1-1.7-.6A3 3 0 0 1 1-1.5c0-.6-.3-1.2-.3-2 0-1.1.3-2 .9-2.7C2.2-6.8 3-7 4-7c.6 0 1 0 1.6.3a3 3 0 0 1 1.2 1.2c.2.6.4 1.2.4 2Zm-5.3 0c0 .8.1 1.5.5 2 .3.4.8.7 1.5.7s1.2-.3 1.6-.7c.3-.5.5-1.2.5-2s-.2-1.5-.5-2C5-5.8 4.6-6 3.9-6c-.7-.1-1.2 0-1.5.6-.4.4-.5 1-.5 1.9Zm0 0"/>  <path id="d" d="M4 .1a3.6 3.6 0 0 1-1.9-.3 2.6 2.6 0 0 1-.8-1.2C.8-2 .6-2.6.6-3.4c.1-.9.4-1.6.5-2.1.3-.6.7-1 1.2-1.2.5-.3 1-.4 1.7-.4L5-7c.3 0 .6.2.8.3l-.3 1a5 5 0 0 0-.8-.3A3 3 0 0 0 4-6c-1.4 0-2.1.7-2.1 2.4 0 1 .1 1.6.5 2.1.3.4.8.5 1.5.5h1l.8-.4v1.1a3 3 0 0 1-.8.3L4 .1Zm0 0"/>  <path id="c" d="M4.5-7c.8 0 1.4 0 1.8.4.5.6.7 1.1.7 2.1V0H5.8v-4.5c0-1-.5-1.5-1.5-1.5-.8-.1-1.3 0-1.6.5-.3.5-.5 1-.5 1.9V0h-.9v-7H2l.2 1a2 2 0 0 1 1.1-.8c.3-.2.7-.3 1.2-.3Zm0 0"/>  <path id="b" d="M1.7-9.6c.2 0 .3 0 .5.2l.2.4-.2.7a.7.7 0 0 1-.5.2c-.2 0-.4 0-.5-.2L1-8.9c0-.1 0-.4.2-.5l.5-.2ZM2.3-7v7H1v-7Zm0 0"/>  <path id="a" d="M1.3 0v-9.3h1.1V-1h4v1Zm0 0"/>  <path d="M1.2 0v-9.3h5.4V0ZM2-.7h3.9v-8H2Zm-.1 0"/> </defs> <image xlink:href="svg/9/97_1.jpg" width="497" height="279"/> <path d="M300.1 49.5v-9.3h1.2v8.2h4v1Zm7.3-9.6c.1 0 .3 0 .4.1.2 0 .2.4.2.6 0 .4 0 .4-.2.6a.7.7 0 0 1-.4.1l-.5-.1-.2-.6c0-.2 0-.4.2-.5.1-.2.3-.2.5-.2Zm.5 2.6v7h-1.1v-7Zm5.6-.1c.8 0 1.4.2 1.9.6.4.4.6 1 .6 2v4.4h-1V45c-.1-1-.6-1.7-1.7-1.7-.7 0-1.3.2-1.6.7-.3.4-.4 1-.4 1.9v3.6H310v-7h1.1l.1 1h.1a2 2 0 0 1 1-1l1.1-.1Zm7.5 7.2a3.6 3.6 0 0 1-1.7-.4 2.6 2.6 0 0 1-1.1-1.1c-.3-.6-.4-1.2-.4-2.1 0-1 .1-1.6.4-2.2.3-.4.8-.8 1.2-1.1.5-.2 1-.3 1.6-.3h1l.9.4-.4.9a5 5 0 0 0-.7-.2 3 3 0 0 0-.8-.1c-1.4 0-2 .9-2 2.6 0 .8 0 1.5.5 2 .3.3.8.5 1.5.5h1l.8-.3v1a3 3 0 0 1-.8.3h-1Zm9.5-3.6c0 1-.3 2-1 2.7-.5.6-1.2.9-2.2.9a3.2 3.2 0 0 1-1.7-.4 3 3 0 0 1-1.2-1.3c-.2-.5-.4-1.2-.4-1.9 0-1 .3-2 1-2.6.5-.7 1.3-1.1 2.3-1.1.6.1 1.1.3 1.6.6a3 3 0 0 1 1.2 1.1c.2.5.4 1.2.4 2Zm-5.3 0c0 .8.2 1.4.5 2 .3.3.8.6 1.5.6s1.3-.2 1.6-.7c.2-.5.5-1.1.5-1.9 0-.8-.3-1.4-.5-2-.3-.4-.9-.7-1.6-.7-.7 0-1.2.3-1.5.7-.3.5-.5 1.1-.5 2Zm8.2 3.5h-1.1v-10h1.1Zm5.6-7.1c.8 0 1.4.2 1.9.6.4.4.6 1 .6 2v4.4h-1.1V45c0-1-.5-1.7-1.6-1.7-.7 0-1.3.2-1.6.7-.2.4-.4 1-.4 1.9v3.6h-1.2v-7h1l.1 1a2 2 0 0 1 1.1-1l1.2-.1Zm0 0" style="fill:none;stroke-width:3;stroke-linecap:butt;stroke-linejoin:round;stroke:#fff;stroke-opacity:.6;stroke-miterlimit:10" transform=" rotate(  340 320.102 46.4663) "/> <g style="fill:#222;fill-opacity:1" transform=" rotate(  340 320.102 46.4663) ">  <use xlink:href="#a" x="298.9" y="49.5"/>  <use xlink:href="#b" x="305.7" y="49.5"/>  <use xlink:href="#c" x="309" y="49.5"/>  <use xlink:href="#d" x="317.1" y="49.5"/>  <use xlink:href="#e" x="323.3" y="49.5"/>  <use xlink:href="#f" x="331.2" y="49.5"/>  <use xlink:href="#c" x="334.5" y="49.5"/> </g> <path d="M294.6 182.9h2c.9 0 1.6.1 2 .4.5.2.7.7.7 1.3 0 .5-.1.8-.3 1.1-.3.3-.6.4-1 .5l.8.4.6.5.2.9c0 .6-.3 1-.7 1.5-.5.3-1 .5-1.9.5h-2.4Zm.9 3h1.3c.6.1 1 .1 1.2-.3.3-.2.4-.5.4-.8 0-.5-.1-.8-.4-1-.3-.1-.8-.2-1.4-.2h-1.1Zm0 .8v2.6h1.4c.6 0 1.1-.3 1.3-.5.3-.2.4-.5.4-.9s-.1-.7-.4-.9c-.2-.2-.7-.3-1.4-.3Zm7.5-2.1c.5 0 1 0 1.2.3a2 2 0 0 1 .8.8l.2 1.3v.5h-3.6c0 .6.1 1 .4 1.4.3.3.7.5 1.3.5l.9-.1.8-.3v.8l-.8.2a5 5 0 0 1-1 .1 3 3 0 0 1-1.2-.3 2.2 2.2 0 0 1-1.1-1c0-.2-.2-.8-.2-1.3-.1-.7 0-1.2.3-1.6.1-.5.4-.9.8-1 .2-.2.7-.3 1.2-.3Zm0 .7c-.4 0-.7.1-1 .4-.2.2-.4.6-.4 1.1h2.7c0-.4-.1-.8-.3-1.1-.2-.3-.5-.4-1-.4Zm5.6-.7c.7 0 1.2.1 1.5.4.3.3.4.7.4 1.4v3.6h-.5l-.3-.8c-.2.5-.5.6-.8.8l-.9.1c-.6 0-1-.1-1.3-.4-.3-.2-.5-.6-.5-1.2 0-.5.2-1 .6-1.2.4-.3 1.2-.5 2-.5h.9v-.3c0-.5-.1-.8-.3-1l-.8-.2-.8.1c-.3 0-.5.2-.8.3l-.2-.7.8-.3 1-.1Zm1 2.8h-.6c-.8 0-1.2.2-1.5.3-.3.3-.5.6-.5.9.1.2.2.5.4.6l.6.2c.5 0 .9-.1 1.2-.4.3-.2.5-.6.5-1ZM314 189.4h.4l.3-.1v.7h-.4l-.5.2-.7-.2c-.3-.1-.5-.3-.6-.5-.2-.3-.2-.6-.2-1v-3.2h-.8v-.3l.8-.4.3-1.2h.5v1.3h1.6v.6h-1.6v3.1c0 .4.1.6.3.8l.6.2Zm4.3-4.8h.7v.8h-.8c-.2 0-.5 0-.7.2-.3.1-.5.3-.6.6l-.2 1v2.8h-.9v-5.3h.7l.1 1 .8-.9c.2-.1.6-.2.9-.2Zm2.1-2 .4.2.1.4-.1.4-.4.2c-.2 0-.4 0-.4-.2v-.8l.4-.2Zm.4 2v5.4h-.8v-5.3Zm3.9 5.5c-.5 0-1 0-1.3-.3-.4-.2-.6-.5-.9-.8-.2-.5-.3-1-.3-1.6 0-.7.1-1.2.3-1.6.3-.4.6-.8 1-1l1.1-.1h.9l.6.1-.1.8-.7-.2h-.6c-1-.1-1.6.6-1.6 1.9 0 .7.2 1.2.4 1.5.3.4.7.6 1.2.6l.7-.1.6-.3v.8a2 2 0 0 1-.5.2l-.8.1Zm4.7-5.5c.5 0 .8 0 1.2.3a2 2 0 0 1 .7.8c.2.4.3.8.3 1.3v.5h-3.7c.1.6.2 1 .5 1.4.3.3.6.5 1.2.5l1-.1.8-.3v.8l-.8.2a5 5 0 0 1-1 .1 3 3 0 0 1-1.3-.3 2.2 2.2 0 0 1-1-1c-.2-.2-.3-.8-.3-1.3 0-.7.1-1.2.3-1.6.2-.5.5-.9.8-1 .4-.2.9-.3 1.3-.3Zm0 .7c-.4 0-.8.1-1 .4-.4.2-.4.6-.4 1.1h2.7c0-.4-.1-.8-.3-1.1-.2-.3-.6-.4-1-.4Zm0 0" style="fill:none;stroke-width:3;stroke-linecap:butt;stroke-linejoin:round;stroke:#fff;stroke-opacity:.6;stroke-miterlimit:10" transform=" rotate(  340 313.288 187.016) "/> <g style="fill:#222;fill-opacity:1" transform=" rotate(  340 313.288 187.016) ">  <use xlink:href="#g" x="293.6" y="190"/>  <use xlink:href="#h" x="300.1" y="190"/>  <use xlink:href="#i" x="305.7" y="190"/>  <use xlink:href="#j" x="311.4" y="190"/>  <use xlink:href="#k" x="315" y="190"/>  <use xlink:href="#l" x="319.1" y="190"/>  <use xlink:href="#m" x="321.7" y="190"/>  <use xlink:href="#h" x="326.5" y="190"/> </g></svg>