<svg xmlns="http://www.w3.org/2000/svg" xmlns:xlink="http://www.w3.org/1999/xlink" viewBox="0 0 497 279"> <defs overflow="visible" style="stroke:none">  <path id="j" d="m.3 0 1.6-7.6h.9l-.8 3c.1.6 0 1-.2 1.3l-.1.5 2.5-2.6h1L3-3l1.4 3h-1L2.3-2.5l-.7.5-.4 2Zm0 0"/>  <path id="i" d="M.4 0 2-7.1h1L1.4-.8h2.8L4 0Zm0 0"/>  <path id="h" d="m.2 0 1.2-5.4h.8l-.2 1 .5-.6a2 2 0 0 1 .6-.3l.9-.2c.3 0 .6.1.9.5.1 0 .4.4.4.9v.4l-.2.5L4.4 0h-.9l.7-3.4v-.4l.2-.2c-.1-.5-.3-.7-.8-.7-.2 0-.4 0-.6.2-.3.2-.6.5-.8.8-.2.3-.4.8-.5 1.4L1.2 0Zm0 0"/>  <path id="g" d="M2.4 0c-.6 0-1 0-1.4-.3C.6-.8.5-1.3.5-2c0-.3 0-.8.2-1.2 0-.4.3-.8.5-1.1.2-.4.5-.7.8-.8a2 2 0 0 1 1.2-.4c.5 0 .8.2 1.1.5.3 0 .4.4.4.8 0 .3-.1.7-.3 1-.4.2-.6.4-1 .6-.6.2-1.2.3-1.9.3h-.1v.3c0 .5 0 .8.3 1 .2.3.5.4.9.4l.7-.1A5 5 0 0 0 4-1v.7a6 6 0 0 1-.7.3h-.9Zm-.9-3 1.3-.1.7-.4c.2-.1.3-.4.3-.5l-.1-.6-.7-.1c-.2 0-.5.1-.9.4L1.6-3Zm0 0"/>  <path id="f" d="m.3 0 1.1-5.4h.7v1l.4-.5.5-.4.7-.2H4l.3.2-.2.7h-.5c-.3-.1-.6-.1-.9.2l-.7.9-.3 1L1.2 0Zm0 0"/>  <path id="e" d="m1.9 2.4-1-.1-.6-.2v-.9c.2.2.5.2.7.4a3 3 0 0 0 .8.1c.4 0 .8-.1 1-.3.3-.2.5-.6.6-1l.1-.4.1-.5.1-.5-.8.8c-.3.2-.6.2-.9.2s-.8-.1-1-.4C.6-.7.5-1 .5-1.7c0-.5 0-1 .2-1.4 0-.5.3-.9.5-1.2.2-.4.5-.7.8-.8a2 2 0 0 1 1.1-.4c.4 0 .7.1.9.3l.5.7.3-.9h.7L4.3.3c-.2.8-.5 1.3-.9 1.7-.4.2-1 .4-1.4.4Zm.3-3c.3 0 .5-.1.8-.4l.5-.5.5-1 .2-1.1c0-.4-.2-.6-.3-.8-.1-.2-.4-.3-.7-.3-.3 0-.5 0-.7.2-.3.2-.5.5-.6.7l-.4 1-.1 1.1c0 .7.3 1 .8 1Zm0 0"/>  <path id="d" d="M-.3 2.4h-.3l-.4-.1v-.7h.7c.3.1.5.1.7-.1.2-.2.4-.5.5-.8l.4-.6-.8-5.5h.9l.3 2.7v.7l.2.7v.6A28.4 28.4 0 0 1 2.5-2c-.1 0 .1-.3.2-.4l1.5-3h1L1.7 1c-.1.4-.4.8-.7 1-.4.3-.8.4-1.2.4Zm0 0"/>  <path id="c" d="M2 0c-.6 0-.9 0-1.2-.3C.6-.7.5-1 .5-1.7c0-.5 0-1 .2-1.5l.5-1.1c.2-.4.5-.7.8-.9a2 2 0 0 1 1.1-.3c.4 0 .6.1.9.3l.5.7.3-.9h.7L4.4 0h-.7l.1-1c-.3.3-.5.6-.9.8-.3.2-.6.2-.9.2Zm.1-.5c.4-.1.6-.2.9-.5l.6-.6a4 4 0 0 0 .4-1 3 3 0 0 0 .1-.7 4 4 0 0 0 0-.4c.1-.3.1-.5-.1-.7-.3-.2-.5-.3-.8-.3-.3 0-.5 0-.7.2a2 2 0 0 0-.6.7l-.4 1-.1 1.1c0 .4 0 .6.2.8.1.2.3.3.6.3Zm.1-.1"/>  <path id="b" d="m.3 0 1.6-7.6h.9L1.2 0Zm0 0"/>  <path id="a" d="M.4 0 2-7.1h1.5c.8 0 1.3.1 1.7.5.3.3.5.8.5 1.3 0 .8-.3 1.5-.8 1.9-.6.4-1.3.6-2.4.6H2L1.3 0ZM2-3.5h.7c.6 0 1.1-.2 1.5-.5.4-.2.6-.7.6-1.3 0-.2-.2-.5-.4-.7-.2-.3-.4-.4-1-.4h-.7Zm0 0"/>  <path d="M1 0v-7.1h4V0Zm.4-.5h3.1v-6.1h-3Zm.1 0"/> </defs> <image xlink:href="svg/9/97_15.jpg" width="497" height="279"/> <path d="m-1 35.7 1.3-7.1H2c.8 0 1.4.1 1.7.4.3.4.5.9.5 1.4 0 .8-.3 1.6-.8 1.9-.6.4-1.4.6-2.4.6H.4l-.6 2.8Zm1.5-3.5h.7c.6 0 1.1-.2 1.5-.4.3-.3.6-.8.6-1.3s-.1-.7-.4-.9c-.2-.2-.5-.3-.9-.3h-.8Zm3.9 3.5 1.7-7.6h.8l-1.6 7.6Zm4.3.1c-.4 0-.8-.1-1-.5-.4-.3-.6-.7-.6-1.3l.3-1.4c.2-.6.3-.9.6-1.2.2-.4.5-.6.8-.8a2 2 0 0 1 1-.3c.5 0 .8 0 1.1.2l.2.7.6-.9h.6L11 35.7h-.6l.2-1h-.1l-.8.8c-.3.2-.7.3-1 .3Zm.3-.7c.2-.1.5-.1.7-.3l.6-.7a4 4 0 0 0 .5-1.1 3 3 0 0 0 0-.5 4 4 0 0 0 .2-.4c0-.4 0-.6-.4-.8-.1-.3-.4-.3-.6-.3-.3 0-.5 0-.8.2a2 2 0 0 0-.5.8l-.4 1-.3 1 .3.8c.2.2.4.3.7.3Zm3.2 3h-.4l-.3-.1v-.7h.6c.3.1.5.1.7-.1l.6-.8.3-.6-.7-5.5h.8L14 33l.2.7V35h.2a28.4 28.4 0 0 1 .4-1.2l.2-.5 1.6-3h1l-3.4 6.3c-.3.5-.6.9-.9 1.1-.3.3-.6.4-1.1.4Zm6.8 0-1-.1-.5-.2V37l.5.2a3 3 0 0 0 .9.2c.4 0 .8-.1 1.1-.4.2-.1.4-.5.5-1l.1-.3.1-.5.3-.5h-.2l-.8.8c-.3.2-.6.3-1 .3s-.7-.1-1-.5c-.3-.3-.4-.7-.4-1.3 0-.5 0-1 .2-1.4 0-.6.2-.9.5-1.2.2-.4.5-.6.7-.8a2 2 0 0 1 1.2-.3c.4 0 .8 0 .9.2l.5.7.4-.9h.6L21.4 36c-.2.8-.5 1.3-.9 1.6-.4.4-1 .5-1.5.5Zm.3-3c.3-.1.5-.1.7-.3l.6-.6.5-1 .2-1.2c0-.3-.1-.5-.3-.7 0-.3-.4-.3-.7-.3-.3 0-.5 0-.7.3-.3.1-.6.4-.6.6l-.4 1.1-.1 1c0 .7.3 1 .8 1Zm3.9.6 1.1-5.4h.7v1l.4-.5.6-.4.6-.1h.6l-.2.8h-.5c-.3-.1-.6-.1-.9.3l-.7.8-.3 1-.6 2.6Zm5.8.1c-.4 0-1-.2-1.2-.5-.5-.4-.6-.9-.6-1.5l.1-1.3c.2-.4.3-.8.7-1.1 0-.4.4-.6.7-.8a2 2 0 0 1 1.1-.3c.5 0 1 0 1.2.3.2.2.4.4.4.9 0 .3-.1.7-.4 1-.2.2-.5.5-1 .5-.4.3-1 .4-1.8.4h-.1v.4c-.1.4-.1.7.1 1 .3.2.6.2 1.1.2h.7a5 5 0 0 0 .7-.3v.7a6 6 0 0 1-.7.3l-1 .1Zm-.7-3.1 1.2-.1c.2 0 .5-.2.7-.4.2-.1.3-.4.3-.6 0-.2 0-.4-.2-.6h-.5c-.3 0-.8 0-1 .4-.2.3-.5.7-.6 1.3Zm5.7 3.1c-.4 0-1-.2-1.3-.5-.4-.4-.6-.9-.6-1.5l.2-1.3c.1-.4.3-.8.7-1.1 0-.4.4-.6.7-.8a2 2 0 0 1 1.1-.3c.5 0 1 0 1.2.3.2.2.4.4.4.9 0 .3-.2.7-.4 1-.2.2-.5.5-1 .5-.5.3-1 .4-1.8.4h-.1v.4c-.1.4-.1.7.1 1 .3.2.6.2 1.1.2h.7a5 5 0 0 0 .7-.3v.7a6 6 0 0 1-.7.3l-1 .1Zm-.7-3.1 1.2-.1c.2 0 .5-.2.7-.4.2-.1.3-.4.3-.6 0-.2 0-.4-.2-.6h-.5c-.4 0-.8 0-1 .4-.3.3-.5.7-.6 1.3Zm3.6 3 1.1-5.4h.8v1c-.1-.2.2-.3.3-.5a2 2 0 0 1 .7-.4l.7-.2c.5 0 .8.1 1 .4.3.2.5.4.5 1v.9l-1 3.2h-1l1-3.4v-.6c0-.5-.2-.7-.6-.7-.4 0-.6.1-.8.3-.3.1-.6.4-.7.7-.3.3-.4.8-.6 1.4l-.5 2.3ZM10.8 47.6l1.5-7.1h.9l-1.4 6.3h2.8l-.2.8Zm6.2.1c-.2 0-.6-.1-1-.4-.2-.3-.4-.8-.4-1.4l.2-1.4c.2-.5.3-.9.6-1.2l.8-.8a2 2 0 0 1 1-.3c.5 0 .8 0 1.1.3l.2.5.5-.7h.7l-1.2 5.3h-.7l.2-1c-.3.4-.6.7-.9.9-.3.1-.6.2-1.1.2Zm.5-.7c.1 0 .4 0 .5-.2l.7-.8a4 4 0 0 0 .5-1 3 3 0 0 0 0-.5 4 4 0 0 0 .2-.5c-.1-.3-.1-.6-.4-.8 0-.2-.4-.2-.6-.2-.4 0-.5 0-.8.2a2 2 0 0 0-.5.6l-.4 1-.2 1.2.2.8.7.2Zm3.6.6 1.6-7.5h.9L23 43l-.3 1.3-.2.6 2.5-2.6h1l-2.1 2.3 1.3 3h-1l-1-2.5-.9.6-.3 2Zm6.9.1c-.6 0-1.1-.1-1.4-.5-.4-.4-.6-.9-.6-1.5l.2-1.2.6-1.2.8-.8a2 2 0 0 1 1.1-.3c.5 0 1 .1 1.3.3 0 .2.3.5.3 1 0 .2-.1.5-.4.8-.2.4-.5.6-.9.7l-1.9.3H27v.4c0 .3 0 .7.3 1 .1.2.5.3.9.3h.7a5 5 0 0 0 .7-.5v.8a6 6 0 0 1-.6.3l-1 .1Zm-.9-3 1.3-.3c.2.1.5-.1.6-.2.3-.2.4-.4.4-.7 0-.2 0-.3-.2-.4l-.5-.2c-.3.1-.7.2-1 .5-.1.3-.4.6-.5 1.2Zm0-.1" style="fill:none;stroke-width:2;stroke-linecap:butt;stroke-linejoin:round;stroke:#fff;stroke-opacity:.6;stroke-miterlimit:10" transform=" rotate(  340 20.3902 38.676) "/> <g style="fill:#4d80b3;fill-opacity:1" transform=" rotate(  340 20.3902 38.676) ">  <use xlink:href="#a" x="-1.5" y="35.7"/>  <use xlink:href="#b" x="4.2" y="35.7"/>  <use xlink:href="#c" x="6.8" y="35.7"/>  <use xlink:href="#d" x="12.4" y="35.7"/>  <use xlink:href="#e" x="17.1" y="35.7"/>  <use xlink:href="#f" x="22.9" y="35.7"/>  <use xlink:href="#g" x="26.7" y="35.7"/>  <use xlink:href="#g" x="31.7" y="35.7"/>  <use xlink:href="#h" x="36.7" y="35.7"/>  <use xlink:href="#i" x="10.4" y="47.6"/>  <use xlink:href="#c" x="15.2" y="47.6"/>  <use xlink:href="#j" x="20.8" y="47.6"/>  <use xlink:href="#g" x="25.6" y="47.6"/> </g></svg>