<svg xmlns="http://www.w3.org/2000/svg" xmlns:xlink="http://www.w3.org/1999/xlink" viewBox="0 0 497 279"> <defs overflow="visible" style="stroke:none">  <path id="s" d="M1.9 0c-.4 0-.7 0-1-.1C.7-.5.5-.8.5-1.2v-.5L.8-2l.6-3.4h.9L1.4-2v1.2l.8.2c.2 0 .4-.1.8-.4l.6-.6.5-1.4.5-2.4h.9L4.4 0h-.8l.1-1-.5.5-.4.5-.9.1Zm0 0"/>  <path id="r" d="M1.8 0H1L.2-.2v-.9l.7.3 1 .1.8-.1.6-.4c.2-.2.2-.6.2-.8 0-.3 0-.5-.2-.7l-1-.6a4.4 4.4 0 0 1-.6-.5 1.9 1.9 0 0 1-.5-.6L1-5.2c0-.4.1-.8.4-1.1a2 2 0 0 1 .8-.7 3 3 0 0 1 1.2-.2h1l.8.5-.4.6-.6-.2-.8-.2c-.4 0-.7.2-1 .5-.4 0-.4.4-.4.8l.1.5.4.4.5.3.8.5a2 2 0 0 1 .5.6l.2.9c0 .6-.3 1.2-.8 1.5-.3.5-.9.6-1.8.6Zm0 0"/>  <path id="q" d="M2 0c-.6 0-.9 0-1.2-.3C.6-.7.5-1 .5-1.7c0-.5 0-1 .2-1.4 0-.5.3-.9.5-1.2.2-.4.5-.7.8-.8a2 2 0 0 1 1.1-.4c.4 0 .7.1.9.3l.5.7a35.3 35.3 0 0 1 .2-1.3l.4-1.8H6L4.4 0h-.8l.1-1-.8.8c-.3.2-.6.2-.9.2Zm.1-.5c.4-.1.6-.2.9-.5l.5-.5.5-1 .2-1.1c0-.4-.2-.6-.3-.8-.1-.2-.4-.3-.7-.3-.3 0-.5 0-.8.2l-.4.7-.5 1-.1 1.1c0 .7.3 1 .8 1Zm.1-.1"/>  <path id="p" d="M.4 0 2-7.1h1.8c.6 0 1.2 0 1.5.3.4.3.7.8.7 1.3-.1.5-.3.9-.5 1.2-.3.3-.7.5-1.2.6l.7.5c.3.3.4.6.4 1 0 .5 0 .9-.3 1.2L4-.2 2.7 0Zm1.8-4h1.1l.9-.3.5-.4c.3-.2.3-.3.3-.7 0-.3-.1-.5-.3-.6-.2-.3-.7-.4-1-.4h-1ZM1.5-.9h1.2c.6.1 1 .1 1.3-.1.3-.4.5-.7.5-1.2 0-.3-.1-.6-.3-.8-.2-.3-.6-.4-1-.4H2Zm0 .1"/>  <path id="o" d="M-.3 2.4h-.3l-.4-.1v-.7h.7c.3.1.5.1.7-.1.2-.2.4-.5.5-.8l.4-.6-.8-5.5h.9l.3 2.7v.7l.2.7v.6A28.4 28.4 0 0 1 2.5-2c-.1 0 .1-.3.2-.4l1.5-3h1L1.7 1c-.1.4-.4.8-.7 1-.4.3-.8.4-1.2.4Zm0 0"/>  <path id="n" d="M1.8 0c-.3 0-.6 0-.8-.1C.7-.3.6-.6.6-1v-.8l.8-2.9h-1L.5-5l1-.5.5-1h.6l-.3 1h1.3l-.1.8H2.2l-.7 3v.8l.5.3h.3l.4-.3V0h-.9Zm0 0"/>  <path id="m" d="M2 0c-.6 0-.9 0-1.2-.3C.6-.7.5-1 .5-1.7c0-.5 0-1 .2-1.5l.5-1.1c.2-.4.5-.7.8-.9a2 2 0 0 1 1.1-.3c.4 0 .6.1.9.3l.5.7.3-.9h.7L4.4 0h-.7l.1-1c-.3.3-.5.6-.9.8-.3.2-.6.2-.9.2Zm.1-.5c.4-.1.6-.2.9-.5l.6-.6a4 4 0 0 0 .4-1 3 3 0 0 0 .1-.7 4 4 0 0 0 0-.4c.1-.3.1-.5-.1-.7-.3-.2-.5-.3-.8-.3-.3 0-.5 0-.7.2a2 2 0 0 0-.6.7l-.4 1-.1 1.1c0 .4 0 .6.2.8.1.2.3.3.6.3Zm.1-.1"/>  <path id="l" d="m1.9 2.4-1-.1-.6-.2v-.9c.2.2.5.2.7.4a3 3 0 0 0 .8.1c.4 0 .8-.1 1-.3.3-.2.5-.6.6-1l.1-.4.1-.5.1-.5-.8.8c-.3.2-.6.2-.9.2s-.8-.1-1-.4C.6-.7.5-1 .5-1.7c0-.5 0-1 .2-1.4 0-.5.3-.9.5-1.2.2-.4.5-.7.8-.8a2 2 0 0 1 1.1-.4c.4 0 .7.1.9.3l.5.7.3-.9h.7L4.3.3c-.2.8-.5 1.3-.9 1.7-.4.2-1 .4-1.4.4Zm.3-3c.3 0 .5-.1.8-.4l.5-.5.5-1 .2-1.1c0-.4-.2-.6-.3-.8-.1-.2-.4-.3-.7-.3-.3 0-.5 0-.7.2-.3.2-.5.5-.6.7l-.4 1-.1 1.1c0 .7.3 1 .8 1Zm0 0"/>  <path id="k" d="m.3 0 1.1-5.4h.7v1l.4-.5.5-.4.7-.2H4l.3.2-.2.7h-.5c-.3-.1-.6-.1-.9.2l-.7.9-.3 1L1.2 0Zm0 0"/>  <path id="j" d="M1 0 .6-5.4h.8l.3 3v1.7h.2l.1-.5a24.4 24.4 0 0 1 .6-1.2l1.6-3h1L2.2 0Zm0 0"/>  <path id="i" d="M2.1-6.3h-.3l-.1-.5.1-.4.4-.2c.3 0 .5.2.5.5 0 .2 0 .4-.2.5l-.4.2ZM.3 0l1.1-5.4h.9L1.2 0Zm0 0"/>  <path id="h" d="M.4 0 2-7.1h1.5c1.5 0 2.2.6 2.2 1.8 0 .5-.1 1-.4 1.3-.3.4-.7.7-1.4.8L5.1 0H4l-.9-3H1.9l-.6 3Zm1.7-3.7h.8c.6 0 1.1-.1 1.4-.4.3-.3.5-.7.5-1.2 0-.4-.2-.7-.4-.7-.2-.3-.4-.4-1-.4h-.7Zm-.1 0"/>  <path id="g" d="m.3 0 1.6-7.6h.9L1.2 0Zm0 0"/>  <path id="f" d="M2.4 0c-.6 0-1 0-1.4-.3C.6-.8.5-1.3.5-2c0-.3 0-.8.2-1.2 0-.4.3-.8.5-1.1.2-.4.5-.7.8-.8a2 2 0 0 1 1.2-.4c.5 0 .8.2 1.1.5.3 0 .4.4.4.8 0 .3-.1.7-.3 1-.4.2-.6.4-1 .6-.6.2-1.2.3-1.9.3h-.1v.3c0 .5 0 .8.3 1 .2.3.5.4.9.4l.7-.1A5 5 0 0 0 4-1v.7a6 6 0 0 1-.7.3h-.9Zm-.9-3 1.3-.1.7-.4c.2-.1.3-.4.3-.5l-.1-.6-.7-.1c-.2 0-.5.1-.9.4L1.6-3Zm0 0"/>  <path id="e" d="m.2 0 1.2-5.4h.8l-.2 1 .5-.6a2 2 0 0 1 .6-.3l.9-.2c.3 0 .6.1.9.5.1 0 .4.4.4.9v.4l-.2.5L4.4 0h-.9l.7-3.4v-.4l.2-.2c-.1-.5-.3-.7-.8-.7-.2 0-.4 0-.6.2-.3.2-.6.5-.8.8-.2.3-.4.8-.5 1.4L1.2 0Zm0 0"/>  <path id="d" d="M2.5 0C1.9 0 1.4 0 1-.4.7-.8.5-1.3.5-2l.1-1.2a4 4 0 0 1 .5-1.1c.3-.3.5-.7.9-.8.3-.2.7-.3 1.2-.3.6 0 1 .2 1.4.4.4.5.6 1.1.6 1.6L5-2a4 4 0 0 1-.5.9c-.2.5-.5.8-.8 1L2.5 0Zm0-.6c.5-.1.6-.1 1-.4.1-.2.3-.5.5-1 .2-.3.3-.8.3-1.4L4.2-4a1 1 0 0 0-.4-.5l-.6-.2c-.4 0-.7.1-1 .4-.2.2-.5.6-.6 1A4 4 0 0 0 1.4-2c0 .5 0 .8.3 1 .2.2.5.3.8.3Zm0-.1"/>  <path id="c" d="M3.3 0c-.8 0-1.5 0-2-.5C1-1.1.8-1.8.8-2.6.7-3.1.7-3.5 1-4c-.1-.4 0-.8.3-1.2l.8-1L3-7l1.7-.2c.5 0 1.1.1 1.6.4l-.3.7a4 4 0 0 0-.7-.2l-.7-.2c-.6 0-1 .2-1.3.5-.4 0-.7.4-1 .8A4 4 0 0 0 1.9-4l-.2 1.3c0 .7.1 1.1.3 1.5.4.3 1 .5 1.4.5h.8L5-1v.8l-.8.2a5 5 0 0 1-1 0Zm0 0"/>  <path id="b" d="M2.5 0C1.9 0 1.4 0 1-.3.7-.7.5-1.2.5-2c0-.4 0-1 .2-1.3l.5-1c.3-.5.6-.7 1-1 .2-.1.6-.2.9-.2l.9.1.6.2-.2.7-.5-.1-.6-.1c-.4 0-.7.1-1 .4-.3.2-.5.6-.7 1A4 4 0 0 0 1.4-2c0 .5 0 .8.3 1 .2.2.5.3.9.3h.6a7 7 0 0 0 .6-.3v.8l-.6.2h-.7Zm0 0"/>  <path id="a" d="M.4 0 2-7.1h1.2l.7 5.8 3.2-5.8h1.3L7 0H6l1-4.2a47.9 47.9 0 0 1 .4-2L4 0h-.7l-.8-6.3-.1.6-.1.7-.1.7-1 4.3Zm0 0"/>  <path d="M1 0v-7.1h4V0Zm.4-.5h3.1v-6.1h-3Zm.1 0"/> </defs> <image xlink:href="svg/9/98_24.jpg" width="497" height="279"/> <path d="m260 54.5 1.5-7h1.2l.7 5.6 3.3-5.7h1.3l-1.5 7.1h-.9l1-4.2a47.9 47.9 0 0 1 .4-2l-3.5 6.2h-.7l-.7-6.2-.3.5v.7l-.2.8-.9 4.2Zm10.4.1c-.6 0-1-.1-1.4-.5-.4-.3-.5-.8-.5-1.5l.1-1.3.6-1.1c.2-.4.5-.6.9-.8.3-.2.7-.4 1.1-.4h.8l.6.4-.3.7-.5-.2h-.5c-.4-.1-.8-.1-1 .2-.3.4-.7.7-.7 1.1a4 4 0 0 0-.3 1.4c0 .4.1.8.4 1 .2.2.5.3.8.3h.7a7 7 0 0 0 .6-.4v.8l-.6.2-.8.1Zm5.4 0c-.8 0-1.5-.2-2-.6-.3-.6-.5-1.2-.5-2-.1-.5-.1-.9.1-1.4 0-.4.2-.8.4-1.2.2-.4.5-.8.8-1 .3-.4.7-.7 1-.9l1.6-.2c.5 0 1.1.1 1.6.4l-.3.8a4 4 0 0 0-.7-.3l-.7-.1c-.5-.1-1.1.1-1.3.3l-1 1a4 4 0 0 0-.4 1l-.2 1.6c0 .5.1.9.4 1.3.4.4.8.7 1.4.7l.7-.2.8-.2v.7l-.8.3a5 5 0 0 1-1 0Zm5.1 0c-.7 0-1.2-.2-1.5-.5-.4-.4-.5-.9-.5-1.5l.1-1.3a4 4 0 0 1 .5-1c.2-.5.5-.8.9-1 .3-.1.6-.2 1.1-.2.7 0 1.1.2 1.5.6.3.3.5.9.5 1.5l-.1 1.2a4 4 0 0 1-.5 1.1c-.3.5-.5.6-.9.8-.3.2-.7.3-1 .3Zm0-.6.9-.4.6-1c.2-.4.2-1 .2-1.5v-.6a1 1 0 0 0-.5-.5l-.6-.2c-.3 0-.5.2-1 .4l-.5 1a4 4 0 0 0-.3 1.4c0 .4.1.7.3 1 .3.2.5.3 1 .3Zm3.3.5 1.2-5.3h.8l-.2 1 .5-.7a2 2 0 0 1 .6-.3l.9-.1c.3-.1.6-.1.9.3.1.3.4.6.4 1v.6l-.2.3-.7 3.2h-.9l.7-3.3v-.4l.2-.3c-.1-.4-.3-.6-.8-.6-.2 0-.4 0-.6.1l-.8.8-.5 1.4-.5 2.3Zm5.8 0 1.2-5.3h.8l-.1 1c0-.2.1-.5.4-.7a2 2 0 0 1 .6-.3l.8-.1c.3-.1.7-.1 1 .3.2.3.3.6.3 1v.6l-.2.3-.6 3.2h-1l.8-3.3v-.4l.2-.3c-.1-.4-.3-.6-.8-.6-.2 0-.4 0-.7.1l-.7.8-.5 1.4-.5 2.3Zm8 .1c-.6 0-1.1-.1-1.4-.5-.4-.4-.6-.9-.6-1.5l.2-1.2.6-1.2.8-.8a2 2 0 0 1 1.1-.3c.5-.1 1 .1 1.3.3 0 .2.3.6.3 1 0 .2-.1.6-.4.8-.2.4-.5.6-.9.8-.5.2-1 .2-1.9.2h-.1v.4c0 .4 0 .7.3 1 .1.2.5.3.9.3h.7a5 5 0 0 0 .7-.5v.9a6 6 0 0 1-.6.2l-1 .1Zm-.9-3 1.3-.3c.2.1.5-.1.6-.2.3-.2.4-.4.4-.7 0-.2 0-.3-.2-.4l-.5-.2c-.3 0-.7.2-1 .5-.1.3-.4.7-.5 1.2Zm3.7 2.9 1.7-7.5h.8l-1.6 7.5Zm2.6 0L305 47h1l-1.8 7.5Zm-54.5 12 1.5-7.2h1.5c1.5 0 2.2.7 2.2 1.9 0 .5-.1 1-.4 1.3-.2.4-.7.7-1.3.8l1.1 3.2h-1l-.9-3h-1.2l-.7 3Zm1.6-3.7h.8c.7 0 1.2-.2 1.5-.5.2-.2.4-.6.4-1 0-.6-.1-.9-.2-1.1h-2Zm5.8-2.6h-.3l-.2-.5c0-.1 0-.3.2-.4l.4-.2c.3 0 .6.2.6.5-.1.2-.1.4-.3.4l-.4.2Zm-1.8 6.3 1.1-5.5h.9l-1.2 5.5Zm3.4 0-.7-5.5h1l.1 3.1v.6l.3.7v.4l.3-.5.2-.7.3-.5L261 61h1l-3 5.5Zm6 .1c-.7 0-1.2-.2-1.5-.6-.3-.3-.4-1-.4-1.4s0-.9.1-1.3l.5-1.1c.4-.4.5-.7.9-.9a2 2 0 0 1 1-.3c.7 0 1.1.1 1.3.4.2.2.3.5.3.9 0 .3 0 .6-.3 1-.2.1-.6.4-1 .5-.5.3-1 .4-1.8.4h-.2v.3c0 .5.1.8.3 1 .2.2.5.4 1 .4l.5-.1a5 5 0 0 0 .9-.4v.8a6 6 0 0 1-.8.3h-.7Zm-1-3.1h.1l1.1-.1.9-.4c.2-.2.3-.4.3-.7l-.3-.3-.5-.2c-.3 0-.5.1-.9.4-.3.3-.5.8-.7 1.3ZM266.7 66.5l1.1-5.5h.8l-.1 1.1.4-.5.6-.4.5-.2h.4l.3.2-.2.7h-.5c-.3-.1-.6-.1-.9.2-.1.3-.5.6-.6.9l-.5 1-.4 2.5Zm6.7 0 1.6-7.2h1.2l.7 5.9 3.2-5.9h1.3l-1.4 7.2h-1l1-4.2a47.9 47.9 0 0 1 .4-2l-3.4 6.1h-.7l-.8-6.2-.1.6-.1.7-.1.7-1 4.3Zm10.1-6.3h-.3l-.2-.5.2-.4.4-.2c.4 0 .5.2.5.5 0 .2 0 .4-.1.4l-.5.2Zm-1.8 6.3 1.1-5.5h1l-1.3 5.5Zm4.2 2.4-1-.1-.7-.2v-.9l.8.3a3 3 0 0 0 1 .2c.1 0 .5-.2.8-.4.2-.2.4-.5.5-1v-.2l.4-.6v-.5l-.8.8c-.3.2-.6.3-.9.3s-.8-.2-1-.6c-.4-.2-.5-.6-.5-1.2l.1-1.4c.2-.5.4-.9.6-1.2.2-.4.5-.7.8-.9a2 2 0 0 1 1.1-.3c.4 0 .7.1.9.3l.5.7.3-1h.7l-1.2 5.8c-.3.8-.5 1.3-.9 1.6-.4.3-1 .6-1.4.6Zm.3-3c.2 0 .5-.1.8-.3l.5-.6.5-1v-1c.1-.6.1-.8 0-1-.2-.1-.5-.2-.8-.2-.3 0-.5 0-.8.2l-.4.7-.5 1-.1 1c0 .9.3 1.3.8 1.3Zm3.8.6 1.3-5.5h.6v1.1l.4-.5.5-.4.7-.2h.3l.2.2-.1.7h-.5c-.4-.1-.7-.1-1 .2l-.5.9-.4 1-.6 2.5Zm5.5.1c-.4 0-.8-.2-1-.6-.4-.2-.5-.6-.5-1.2l.2-1.5.6-1.2.8-.8a2 2 0 0 1 1-.3c.4 0 .8.1 1.1.3l.3.7.5-1h.5l-1.1 5.5h-.7l.2-1-1 .8c-.2.2-.5.3-.9.3Zm.3-.7c.2 0 .5-.1.7-.3l.6-.7a4 4 0 0 0 .5-1 3 3 0 0 0 0-.7 4 4 0 0 0 .2-.4c-.1-.3-.1-.5-.4-.7-.1-.2-.3-.3-.6-.3s-.5 0-.8.2a2 2 0 0 0-.5.7l-.5 1-.1 1c.1.5.1.8.3 1 .1.1.3.2.6.2Zm5.2.7c-.2 0-.5-.1-.7-.3-.4-.1-.5-.3-.5-.9l.1-.7.6-2.9h-.8v-.4l1.1-.4.5-1h.5l-.3 1h1.5l-.3.8h-1.3l-.6 3v.2l-.2.3.2.4.4.3h.4l.3-.4v.8l-.3.1h-.6Zm4 0c-.6 0-1-.2-1.4-.6-.4-.4-.6-.9-.6-1.5 0-.4 0-.8.2-1.2a4 4 0 0 1 .5-1.1c.2-.4.5-.6.8-.8l1.2-.4c.6 0 1.1.2 1.5.6.3.4.5.9.5 1.5 0 .4 0 .9-.2 1.2a4 4 0 0 1-.5 1.2l-.8.8c-.2.2-.7.3-1.2.3Zm0-.8c.5 0 .8 0 1-.3l.6-1 .2-1.5v-.6a1 1 0 0 0-.5-.4c-.1-.2-.3-.2-.6-.2s-.7.1-1 .4c-.1.2-.3.5-.4 1a4 4 0 0 0-.4 1.3c.1.5.1.8.3 1 .2.2.5.3.9.3Zm3.5.7 1.1-5.5h.7v1.1l.4-.5.5-.4.8-.2h.2l.3.2-.2.7h-.5c-.4-.1-.6-.1-1 .2l-.5.9-.3 1-.7 2.5Zm3.5 2.4h-.6l-.2-.1V68h.8c0 .2.4.2.6 0 .2-.2.3-.5.4-.8l.5-.6-.8-5.6h.8l.5 2.8v2a28.4 28.4 0 0 1 .5-1.2l.3-.5 1.6-3.1h1l-3.6 6.4c-.2.5-.4.9-.7 1.1-.3.3-.7.5-1.2.5Zm-61.6 9.5 1.6-7.1h1.8c.7 0 1.2.1 1.6.4.3.2.5.7.5 1.2s-.1 1.1-.4 1.2c-.3.3-.7.5-1.2.6.3.2.6.3.8.7.2.1.4.4.4.9 0 .3-.2.7-.5 1-.1.5-.5.7-.9.9l-1.4.2Zm1.8-4h1.2l.8-.3.6-.3.2-.8c0-.3-.1-.5-.3-.7-.2-.2-.7-.2-1-.2h-1Zm-.7 3.2h1.2c.6.1 1-.1 1.3-.3.4-.3.5-.6.5-1s-.1-.8-.3-1.1H252Zm6.6-5.4-.3-.2-.1-.3.1-.4c.2-.3.3-.3.5-.3.3 0 .4.2.4.5 0 .2 0 .5-.2.5l-.4.2Zm-1.8 6.2 1.1-5.3h1l-1.3 5.3Zm2.6 0 1.1-5.3h.7v.9l.3-.5.6-.4.7-.1h.7l-.3.8h-.5c-.3 0-.6 0-.9.2-.3.3-.5.6-.6.9l-.4 1.1-.5 2.5Zm5.4.1c-.3 0-.8-.1-1-.4-.3-.3-.4-.8-.4-1.4l.1-1.4.6-1.2.8-.8a2 2 0 0 1 1.1-.3c.4 0 .6 0 .9.3.2.1.3.3.4.6h.2a35.3 35.3 0 0 1 .1-1.3l.4-1.8h.9l-1.7 7.6h-.7l.1-1-.8.8c-.3.2-.6.3-1 .3Zm.3-.7c.2 0 .5 0 .7-.2l.6-.7.5-1 .2-1.1c0-.3-.1-.6-.3-.8-.1-.2-.3-.3-.7-.3-.3 0-.6.1-.8.3-.2 0-.4.4-.5.7-.3.2-.3.6-.4 1l-.1.9c0 .8.2 1.2.8 1.2Zm8 .7h-.9l-.7-.4v-.8l.7.3 1 .1h.7l.6-.6.3-.7c0-.2 0-.4-.3-.7 0-.1-.4-.4-.9-.6a4.4 4.4 0 0 1-.7-.5 1.9 1.9 0 0 1-.4-.5l-.2-.8c0-.5.2-.9.3-1.3a2 2 0 0 1 .9-.6 3 3 0 0 1 1.2-.2l1 .1.8.3-.4.8-.6-.4h-.8c-.4 0-.8 0-1 .3-.3.2-.4.5-.4.9v.5l.5.4.5.3.7.6a2 2 0 0 1 .6.5l.1.9c0 .6-.2 1.2-.7 1.6-.4.3-1 .5-1.9.5Zm5.2 0c-.5 0-.8-.1-1-.4-.5-.3-.6-.8-.6-1.4.1-.5.1-1 .3-1.4l.5-1.3c.3-.3.5-.5 1-.7a2 2 0 0 1 .9-.3c.4 0 .7 0 .9.3.2.1.4.3.5.6l.4-.9h.6l-1.1 5.4h-.7l.1-1-.8.8c-.3.2-.8.3-1 .3Zm.2-.7c.3 0 .5 0 .8-.3l.6-.7a4 4 0 0 0 .5-1 3 3 0 0 0 0-.6 4 4 0 0 0 .1-.4c0-.3 0-.6-.2-.8-.3-.2-.5-.3-.8-.3-.2 0-.5 0-.7.3a2 2 0 0 0-.6.6l-.4 1-.1 1.1c0 .4 0 .6.2.8l.6.3Zm3.7.6L283 73h.7l-.1 1 .4-.5a2 2 0 0 1 .6-.4l.8-.1c.4 0 .8.1 1 .3.2.2.4.6.4 1v.5l-.2.4-.7 3.2h-.9l.7-3.3v-.4l.2-.3c-.1-.4-.3-.7-.8-.7l-.7.3-.7.7c-.2.4-.4.8-.5 1.4l-.5 2.3Zm8.1.1c-.6 0-1.1-.1-1.5-.5-.3-.3-.5-.8-.5-1.5 0-.5 0-1 .2-1.3l.5-1.2c.3-.3.6-.6 1-.7.2-.3.5-.3.9-.3h1l.5.3-.2.7-.5-.2h-.6c-.4-.1-.7-.1-1 .2-.3.3-.6.7-.7 1.1a4 4 0 0 0-.2 1.4c0 .5 0 .7.3 1 .2.2.5.3.9.3h.6a7 7 0 0 0 .6-.4v.8l-.6.2-.7.1Zm3.9 0c-.4 0-.7 0-1-.2-.1-.3-.2-.5-.2-1v-.6l.7-3h-.9v-.4l1-.3.5-1.2h.6l-.4 1.3h1.5l-.2.6H294l-.6 3v.3l-.2.3.2.3c0 .2.2.2.4.2h.4l.3-.1v.6l-.4.2h-.4Zm3.3 0c-.4 0-.7 0-1-.3-.1-.2-.2-.6-.2-1v-.9l.7-3.2h.9l-.7 3.3-.1.7.1.5.6.2c.2 0 .5 0 .7-.2l.8-.8c.2-.4.4-.8.5-1.4l.5-2.4h.8l-1.1 5.4h-.7v-1c0 .2-.2.4-.4.6l-.6.4-.8.1Zm5.9 0c-.5 0-.9-.1-1-.4-.4-.3-.6-.8-.6-1.4.1-.5.1-1 .3-1.4.1-.5.4-.9.6-1.3.2-.3.5-.5.8-.7a2 2 0 0 1 1-.3c.4 0 .7 0 1 .3.1.1.3.3.4.6l.4-.9h.6l-1.1 5.4h-.7l.1-1-.8.8c-.3.2-.7.3-1 .3Zm.3-.7c.2 0 .4 0 .7-.3l.6-.7a4 4 0 0 0 .5-1 3 3 0 0 0 0-.6 4 4 0 0 0 0-.4c0-.3 0-.6-.1-.8-.2-.2-.5-.3-.8-.3-.1 0-.5 0-.7.3a2 2 0 0 0-.6.6l-.4 1V77.5c.3.2.6.3.8.3Zm3.7.6 1.1-5.3h.8l-.2.9h.1l.4-.5.5-.4.7-.1h.7l-.3.8h-.5c-.2 0-.6 0-.9.2-.2.3-.5.6-.6.9l-.4 1.1-.5 2.5Zm3.4 2.4h-.6V80h.3l.3.2c.3-.1.5-.1.7-.2l.5-1 .5-.5-1-5.4h1l.3 2.6v.7l.2.7v.6a28.4 28.4 0 0 1 .5-1.1c0-.3.2-.4.3-.6l1.5-3h1l-3.5 6.4c-.2.4-.5.9-.8 1.1-.3.2-.7.3-1.2.3Zm0 0" style="fill:none;stroke-width:2;stroke-linecap:butt;stroke-linejoin:round;stroke:#fff;stroke-opacity:.6;stroke-miterlimit:10" transform=" rotate(  340 284.435 63.4875) "/> <g style="fill:green;fill-opacity:1" transform=" rotate(  340 284.435 63.4875) ">  <use xlink:href="#a" x="259.6" y="54.5"/>  <use xlink:href="#b" x="268" y="54.5"/>  <use xlink:href="#c" x="272.5" y="54.5"/>  <use xlink:href="#d" x="278.4" y="54.5"/>  <use xlink:href="#e" x="284" y="54.5"/>  <use xlink:href="#e" x="289.8" y="54.5"/>  <use xlink:href="#f" x="295.6" y="54.5"/>  <use xlink:href="#g" x="300.6" y="54.5"/>  <use xlink:href="#g" x="303.2" y="54.5"/>  <use xlink:href="#h" x="248.5" y="66.5"/>  <use xlink:href="#i" x="254.2" y="66.5"/>  <use xlink:href="#j" x="256.8" y="66.5"/>  <use xlink:href="#f" x="261.4" y="66.5"/>  <use xlink:href="#k" x="266.4" y="66.5"/>  <use xlink:href="#glyph0-12" x="270.4" y="66.5"/>  <use xlink:href="#a" x="273" y="66.5"/>  <use xlink:href="#i" x="281.4" y="66.5"/>  <use xlink:href="#l" x="284" y="66.5"/>  <use xlink:href="#k" x="289.8" y="66.5"/>  <use xlink:href="#m" x="293.6" y="66.5"/>  <use xlink:href="#n" x="299.2" y="66.5"/>  <use xlink:href="#d" x="302.6" y="66.5"/>  <use xlink:href="#k" x="308.2" y="66.5"/>  <use xlink:href="#o" x="312.2" y="66.5"/>  <use xlink:href="#p" x="250" y="78.4"/>  <use xlink:href="#i" x="256" y="78.4"/>  <use xlink:href="#k" x="258.6" y="78.4"/>  <use xlink:href="#q" x="262.4" y="78.4"/>  <use xlink:href="#glyph0-12" x="268.2" y="78.4"/>  <use xlink:href="#r" x="270.8" y="78.4"/>  <use xlink:href="#m" x="275.8" y="78.4"/>  <use xlink:href="#e" x="281.5" y="78.4"/>  <use xlink:href="#b" x="287.3" y="78.4"/>  <use xlink:href="#n" x="291.8" y="78.4"/>  <use xlink:href="#s" x="295.1" y="78.4"/>  <use xlink:href="#m" x="300.9" y="78.4"/>  <use xlink:href="#k" x="306.6" y="78.4"/>  <use xlink:href="#o" x="310.6" y="78.4"/> </g></svg>