<svg xmlns="http://www.w3.org/2000/svg" xmlns:xlink="http://www.w3.org/1999/xlink" viewBox="0 0 497 279"> <defs overflow="visible" style="stroke:none">  <path id="g" d="M1.7 0H.8v-7.6h1Zm0 0"/>  <path id="f" d="M1.3-7.4c.1 0 .3 0 .4.2l.1.4-.1.4-.4.2-.4-.3-.1-.3.1-.4.4-.2Zm.4 2V0H.8v-5.4Zm0 0"/>  <path id="e" d="M3 0c-.5 0-.9 0-1.3-.1-.3-.3-.6-.6-.7-.9-.4-.5-.5-1-.5-1.7 0-.6.2-1.1.5-1.5 0-.6.4-.8.8-1.1.2-.1.8-.2 1.2-.2l.8.1.7.2-.3.8-.6-.2H3c-1-.1-1.5.6-1.5 1.9 0 .7 0 1 .3 1.4.3.5.7.6 1.2.6h.8l.6-.3v.8a2 2 0 0 1-.6.2H3Zm0 0"/>  <path id="d" d="M3.3-5.5H4l-.1 1.1-.3-.3h-.3c-.3 0-.5 0-.8.2l-.5.7-.3 1V0H.8v-5.4h.8v1h.2l.6-.6c.3-.3.6-.5 1-.5Zm0 0"/>  <path id="c" d="M5.3-5.4V0h-.7l-.1-.7c-.3.3-.5.5-.9.6l-.9.2C2.1 0 1.6-.1 1.3-.4 1-.7.8-1.2.8-1.8v-3.6h.9v3.5c0 .8.3 1.3 1.2 1.3.6 0 1-.2 1.1-.5.3-.4.5-.9.5-1.5v-2.8Zm0 0"/>  <path id="b" d="M1.7-7.6v3c.3-.4.4-.5.7-.6.3-.2.7-.3 1-.3.7 0 1.2.2 1.6.5.2.3.4.8.4 1.5V0h-.9v-3.4c0-.9-.4-1.3-1.2-1.3-.6 0-1 .2-1.2.5-.3.3-.4.8-.4 1.4V0H.8v-7.6Zm0 0"/>  <path id="a" d="M4-6.5c-.7 0-1.3.3-1.8.8-.4.5-.6 1.2-.6 2.1 0 1 .2 1.6.6 2.1.4.6 1 .8 1.8.8h1l.6-.3v.8L5 0H4c-.8 0-1.4 0-2-.2a2.8 2.8 0 0 1-1-1.4c-.3-.6-.4-1.2-.4-2 0-.7.1-1.3.4-1.9a3 3 0 0 1 1.2-1.3c.5-.2 1.1-.4 1.8-.4.8 0 1.5.1 2 .4l-.3.7-.8-.2a3 3 0 0 0-.9-.2Zm0 0"/>  <path d="M1 0v-7.1h4V0Zm.4-.5h3.1v-6.1h-3Zm.1 0"/> </defs> <image xlink:href="svg/9/98_21.jpg" width="497" height="279"/> <path d="M309.8 14.4c-.8 0-1.4.3-1.8.8-.4.5-.7 1.2-.7 2.1 0 .9.2 1.6.7 2.1.4.6 1 .8 1.8.8l.9-.2.8-.1v.8l-.8.2h-1c-.8.1-1.4.1-1.9-.3a2.8 2.8 0 0 1-1-1.4c-.4-.5-.4-1.2-.4-2 0-.5.1-1.2.4-1.7A3 3 0 0 1 308 14c.5-.2 1-.4 1.8-.4s1.4.2 2 .4l-.4.8-.7-.3a3 3 0 0 0-.9 0Zm4-1.1v2.9l.7-.6 1-.2c.7 0 1.1.2 1.5.6.3.2.5.7.5 1.4v3.5h-.9v-3.5c0-.8-.4-1.3-1.2-1.3-.6 0-1 .2-1.2.6-.3.3-.4.8-.4 1.3v2.9h-.8v-7.6Zm9.8 2.2v5.4h-.6l-.2-.7-.8.6-1 .2c-.6 0-1-.2-1.4-.5-.4-.3-.6-.8-.6-1.5v-3.5h1V19c0 .8.4 1.2 1.2 1.2.6 0 1-.1 1.2-.5.2-.3.3-.7.3-1.4v-2.8Zm4.2-.1h.6v1h-.4l-.2-.3c-.3.1-.6.1-.8.3-.3.2-.5.4-.6.7l-.2.9v2.9h-.9v-5.4h.7l.1 1 .8-.8c.2-.2.5-.3.9-.3Zm3.6 5.6c-.5 0-.9-.1-1.4-.3-.2-.2-.5-.5-.8-1-.2-.2-.2-.8-.2-1.4 0-.8 0-1.3.3-1.7.2-.4.5-.6.9-.9.3-.2.8-.3 1.3-.3h.7l.8.4-.4.6-.6-.1-.6-.2c-1 .1-1.6.8-1.6 2.1 0 .7.2 1.1.4 1.5.3.3.8.5 1.2.5h.8l.6-.4v.9a2 2 0 0 1-.6.2h-.8Zm3.6-7.7v2.2l-.2.7.8-.6 1-.2c.7 0 1.1.2 1.5.6.3.2.5.7.5 1.4v3.5h-1v-3.5c.1-.8-.2-1.3-1-1.3-.7 0-1.1.2-1.3.6-.3.3-.4.8-.4 1.3v2.9h-.9v-7.6Zm5.7.2.3.1.2.4c0 .2 0 .4-.2.5l-.3.1-.4-.1-.1-.5v-.4l.6-.1Zm.3 2v5.4h-.8v-5.4Zm2.7 5.4h-1v-7.6h1.1Zm2.6 0h-1v-7.6h1.1Zm0 0" style="fill:none;stroke-width:3;stroke-linecap:butt;stroke-linejoin:round;stroke:#fff;stroke-opacity:.6;stroke-miterlimit:10" transform=" rotate(  340 328.315 17.8606) "/> <g style="fill:#222;fill-opacity:1" transform=" rotate(  340 328.315 17.8606) ">  <use xlink:href="#a" x="305.8" y="20.9"/>  <use xlink:href="#b" x="312.1" y="20.9"/>  <use xlink:href="#c" x="318.3" y="20.9"/>  <use xlink:href="#d" x="324.5" y="20.9"/>  <use xlink:href="#e" x="328.4" y="20.9"/>  <use xlink:href="#b" x="333.2" y="20.9"/>  <use xlink:href="#f" x="339.4" y="20.9"/>  <use xlink:href="#g" x="341.9" y="20.9"/>  <use xlink:href="#g" x="344.5" y="20.9"/> </g></svg>