<svg xmlns:xlink="http://www.w3.org/1999/xlink" viewBox="0 0 497 279" xmlns="http://www.w3.org/2000/svg">
  <defs style="stroke:none" overflow="visible">
    <path d="M3.2-6c.7 0 1.2.2 1.6.5.2.3.5.8.5 1.5v4h-.7l-.2-.8-1 .7-1 .1c-.6.1-1 0-1.4-.3C.7-.6.5-1 .5-1.6c0-.6.2-1 .7-1.4.5-.3 1.2-.5 2.1-.5h1V-4c0-.4 0-.7-.3-1l-.9-.2-.9.1-.7.3-.3-.7c.2-.1.5-.3.8-.3L3-6Zm1.1 3.1h-.8c-.8.1-1.3.3-1.6.5-.3.1-.4.4-.4.8 0 .3.1.5.3.6.2.3.5.3.8.3.4 0 .9-.1 1.2-.3.4-.4.5-.8.5-1.4zm0 0" id="n"/>
    <path d="M8-5.9 5.6-3l2.6 3h-1L4.5-3v3h-.9v-3L1.2 0H.1l2.5-3L.2-6h1l2.6 3v-3h.8v3L7-6zm0 0" id="m"/>
    <path d="M1.8-5.9V-1l3.1-4.9h1.2V0h-.9v-4.9L2.3 0H.8v-5.9zm0 0" id="l"/>
    <path d="M6.6 0h-1v-3.2L4.4-3l-1.2.3c-.7 0-1.3-.3-1.7-.5C1-3.6.9-4.1.9-4.7V-8h1v3.1c0 .5 0 .9.3 1 .2.2.6.3 1 .3l1.4-.1 1-.3v-4h1zm0 0" id="k"/>
    <path d="M2.6 0C1.9 0 1.3 0 1-.4.6-.9.5-1.5.5-2.1c0-.6 0-1.2.3-1.7.2-.5.6-1 1-1.2.4-.3 1-.5 1.5-.5.7 0 1 .2 1.4.5.3 0 .3.5.3.9s0 .7-.3 1.1l-1 .2c.5.1.7.3.9.5.1.2.2.3.2.8l-.2.7c-.2.3-.4.5-.7.6-.3.2-.9.3-1.3.3ZM1.5-3h1l1-.1.5-.3c.2-.2.2-.4.2-.6 0-.2 0-.4-.2-.5l-.7-.2c-.3 0-.8.1-1.2.4-.3.3-.5.7-.6 1.3ZM2.7-.6c.3 0 .7-.1 1-.4l.1-.6C4-1.8 4-2 3.6-2l-1-.3H1.4v.2c0 .5 0 .9.3 1.1.3.3.6.4 1 .4Zm0 0" id="j"/>
    <path d="m-.2 2.4 1.6-7.8h.7v1l.7-.6c.3-.3.7-.5 1-.5.5 0 .8.2 1 .5.5.3.6.8.6 1.4-.1.5-.1 1-.3 1.4L4.6-1l-.8.8c-.3.2-.8.3-1.1.3C2.3 0 2 0 1.8-.2l-.5-.6v.4L1 .1.7 2.4Zm2.8-3c.4 0 .5-.1.7-.4.3 0 .5-.3.7-.6l.3-1 .1-.9c0-.9-.3-1.2-.9-1.2-.2 0-.4 0-.5.2l-.8.7-.4 1c-.2.3-.2.7-.2 1.1 0 .3 0 .6.2.8.2.2.5.3.8.3Zm0 0" id="i"/>
    <path d="m.3 0 1.1-5.4h.7v1l.4-.5.6-.4.7-.2c.4 0 .7.2.9.5.2 0 .3.4.3.7l.5-.5.6-.5.9-.2c.3 0 .6.2.9.5.1 0 .2.4.2.9v.4l-.1.4L7.4 0h-.9l.7-3.4v-.4l.2-.2c-.1-.3-.1-.4-.3-.5 0-.2-.1-.2-.5-.2-.2 0-.4 0-.6.2l-.7.8c-.3.3-.4.7-.5 1.3L4.3 0h-1l.9-3.4v-1.1l-.8-.2-.6.2-.6.8c-.3.3-.4.7-.5 1.4L1.2 0Zm0 0" id="h"/>
    <path d="M2.5 0C1.9 0 1.4 0 1-.3.7-.7.5-1.2.5-2c0-.4 0-1 .2-1.3l.5-1c.3-.5.6-.7 1-1l.9-.2.9.1.6.2-.2.7-.5-.1-.6-.1c-.4 0-.7.1-1 .4-.3.2-.5.6-.7 1L1.4-2c0 .5 0 .8.3 1 .2.2.5.3.9.3h.6l.6-.3v.8l-.6.2h-.7Zm0 0" id="g"/>
    <path d="M2.5 0C1.9 0 1.4 0 1-.4.7-.8.5-1.3.5-2l.1-1.2.5-1.1c.3-.3.5-.7.9-.8.3-.2.7-.3 1.2-.3.6 0 1 .2 1.4.4.4.5.6 1.1.6 1.6L5-2l-.5.9c-.2.5-.5.8-.8 1L2.5 0Zm0-.6c.5-.1.6-.1 1-.4L4-2c.2-.3.3-.8.3-1.4L4.2-4l-.4-.5-.6-.2c-.4 0-.7.1-1 .4-.2.2-.5.6-.6 1-.2.3-.2.8-.2 1.3s0 .8.3 1c.2.2.5.3.8.3Zm0-.1" id="f"/>
    <path d="M3.6-6c-.6 0-1-.3-1.2-.5-.4-.1-.4-.4-.4-.8v-.3h.9v.3c-.1.2-.1.3.1.3 0 .3.3.3.7.3.3 0 .5 0 .7-.2.2-.1.4-.3.4-.7h.9c-.1.6-.3.8-.7 1.1-.3.3-.8.5-1.4.5ZM1.9 0l-1-.1C.7-.5.5-.8.5-1.2v-.5L.8-2l.6-3.4h.9L1.4-2v1.2l.8.2L3-1l.6-.6.5-1.4.5-2.4h.9L4.4 0h-.8l.1-1-.5.5-.4.5-.9.1Zm0 0" id="e"/>
    <path d="M2.4 0c-.6 0-1 0-1.4-.2C.8-.5.6-.9.6-1.4V-2l.2-.4.6-3h.9L1.8-3l.5-.1h.5c.6-.1 1-.1 1.2.2.3.4.5.7.5 1.1s-.1.8-.3 1.1c-.1.2-.4.4-.7.5-.3.2-.7.3-1.1.3ZM5 0l1-5.4h1L5.8 0ZM2.4-.6c.4 0 .7-.1.9-.4.2-.1.3-.4.3-.7l-.3-.6-.7-.1h-1v.6l-.2.3c.1.3.1.5.3.5.1.3.4.4.7.4Zm0 0" id="d"/>
    <path d="m.3 0 1.1-5.4h.9L1.8-3h2.5l.5-2.4h.9L4.6 0h-1l.7-2.4H1.7L1.2 0Zm0 0" id="c"/>
    <path d="M.4 0h-.6L0-.7h.5c.2.1.5.1.7-.1l.6-.7.2-1 .2-.8c0-.5 0-.7-.2-1.1l-.7-.2H.7v-.8h.7c.6-.1 1 0 1.3.4.3.4.3.9.3 1.6v.4h1l.4-2.4h.8L4.7-3h.8l.3-1 .5-.7.7-.5c.3-.2.7-.3 1-.3h.4l.3.2-.1.6H8c-.2 0-.5 0-.7.2l-.6.7-.3.8-.1 1c0 .3 0 .6.2 1 .1.2.4.4.7.4h.3l.3-.1V0h-.7c-.5 0-1 0-1.3-.3-.3-.5-.4-1-.4-1.7v-.4h-.8L4 0h-.7l.5-2.4H3l-.3 1-.5.6c-.2.4-.5.6-.8.8h-1Zm0 0" id="b"/>
    <path d="M6 0c-.4 0-1 0-1.3-.2-.5-.3-.7-.7-.9-1.1-.2-.4-.3-.9-.3-1.4v-.6H2L1.3 0H.4L2-7.1h1l-.9 3h1.6c.1-.6.4-1.2.7-1.6.3-.5.6-.9 1.1-1.1.5-.3 1-.5 1.6-.5.7 0 1.3.3 1.7.8.5.5.7 1.2.7 2s0 1.4-.2 1.9l-.7 1.4-1 1L6 0Zm.2-.6c.3-.1.8-.1 1-.4.3-.2.6-.5.8-.9L8.4-3l.2-1.5c0-.5-.2-1.1-.6-1.4-.2-.4-.5-.6-1-.6-.4 0-.8.1-1 .3-.5.2-.7.5-.9.8l-.4 1.2c-.2.5-.2 1-.2 1.5l.1 1c.2.3.4.7.6.7.2.2.5.3 1 .3Zm-.1-.1" id="a"/>
    <path d="M1 0v-7.1h4V0Zm.4-.5h3.1v-6.1h-3Zm.1 0"/>
  </defs>
  <image xlink:href="svg//5//0_2.jpg" height="279" width="497"/>
  <path d="M424.9 47.3c-.6 0-1.1 0-1.5-.3-.4-.3-.6-.6-.8-1l-.3-1.4v-.7h-1.4l-.8 3.3h-.9l1.5-7.1h1l-.7 3h1.5c.1-.6.4-1.1.7-1.6.3-.5.6-.8 1.1-1.1.5-.4 1-.4 1.6-.4.7 0 1.3.2 1.7.7.5.5.7 1.3.7 2.1 0 .6 0 1.2-.2 1.8l-.7 1.4c-.3.4-.6.8-1 1l-1.5.3zm0-.7c.4 0 .8-.2 1.1-.4.3-.2.6-.5.7-.8.3-.4.4-.8.5-1.4l.2-1.2c0-.8-.2-1.2-.5-1.5-.3-.3-.7-.5-1.2-.5-.3 0-.7 0-1 .2l-.7.9c-.3.3-.4.7-.5 1.1-.2.5-.2 1-.2 1.6l.1 1 .6.7c.2.2.5.3 1 .3zm.1 0" style="fill:none;stroke:#fff;stroke-width:2;stroke-linecap:butt;stroke-linejoin:round;stroke-miterlimit:10;stroke-opacity:.6" transform="rotate(000 476.1 50.3)"/>
  <path d="M429 47.3h-.4v-.8l.6.1c.2 0 .4 0 .6-.2l.6-.7.3-.9.3-1-.4-.8c-.1-.3-.4-.5-.6-.5h-.7V42h.3l.4-.3c.6.1 1 .3 1.3.6.3.4.4.9.4 1.5v.4h.9l.4-2.3h1l-.6 2.3h.6l.4-.8.6-.8.6-.6 1-.2h.9l-.3.9h-.5c-.3-.2-.7-.2-.8 0l-.5.7-.4 1v1.9l1 .2h.4v.7h-.7c-.5.1-1 0-1.3-.4-.2-.4-.4-.9-.4-1.5v-.4h-.8l-.5 2.3h-.7l.4-2.2h-.8l-.3.8-.5.8-.7.4c-.3.3-.7.3-1.1.3zm0 0" style="fill:none;stroke:#fff;stroke-width:2;stroke-linecap:butt;stroke-linejoin:round;stroke-miterlimit:10;stroke-opacity:.6" transform="rotate(000 476.1 50.3)"/>
  <path d="m437.3 47.2 1.2-5.2h.9l-.5 2h2.5l.6-2h.8l-1.2 5.2h-.8l.5-2.4h-2.6l-.5 2.4zm0 0" style="fill:none;stroke:#fff;stroke-width:2;stroke-linecap:butt;stroke-linejoin:round;stroke-miterlimit:10;stroke-opacity:.6" transform="rotate(000 476.1 50.3)"/>
  <path d="M445.4 47.3c-.4 0-1 0-1.2-.3-.3-.3-.5-.7-.5-1.2v-.5l.1-.3.6-3.1h1l-.7 2.3h.6l.7-.2c.4 0 .9.2 1 .5.4.2.5.5.5 1 0 .3 0 .6-.2 1l-.7.5-1.2.3zm2.7 0 .9-5.5h1.2l-1.3 5.4zm-2.6-.8c.4.1.7.1.9-.2.2-.2.3-.4.3-.7 0-.3-.1-.6-.3-.6l-.8-.2h-.5l-.4.2-.1.4v.3c0 .3 0 .5.2.7l.7.2zm0 .1" style="fill:none;stroke:#fff;stroke-width:2;stroke-linecap:butt;stroke-linejoin:round;stroke-miterlimit:10;stroke-opacity:.6" transform="rotate(000 476.1 50.3)"/>
  <path d="M454 41.2c-.7 0-1-.2-1.4-.4l-.2-.8v-.4h.8v.4l.1.4.7.2.8-.2.4-.8h.8c0 .5-.3.9-.6 1.2-.3.2-.8.4-1.5.4zm-1.9 6.1c-.3 0-.6 0-.9-.3-.2-.2-.2-.6-.2-1v-1l.7-3h1l-.9 3.3v.6l.1.5c.2.2.3.2.6.2.2 0 .5 0 .7-.2l.8-.8c.2-.4.4-.8.5-1.4l.5-2.3h.9l-1.2 5.3h-.7l.1-1-.5.7-.6.3-.8.1zm.1 0" style="fill:none;stroke:#fff;stroke-width:2;stroke-linecap:butt;stroke-linejoin:round;stroke-miterlimit:10;stroke-opacity:.6" transform="rotate(000 476.1 50.3)"/>
  <path d="M422 59.3c-.4 0-1-.3-1.3-.6-.4-.4-.6-.9-.6-1.5l.1-1.2.5-1.1.9-.9c.3-.2.7-.3 1.2-.3.6 0 1 .3 1.4.6.4.4.6.9.6 1.5l-.2 1.2-.6 1.1c-.1.4-.4.6-.7.9l-1.3.3zm.2-.8c.3 0 .5 0 .9-.3l.4-1c.3-.4.5-.9.5-1.5l-.2-.6-.4-.4c-.2-.2-.4-.2-.6-.2-.4 0-.8.1-1 .3-.3.3-.5.6-.6 1-.2.5-.2 1-.2 1.4 0 .4 0 .8.3 1 .2.2.5.3.7.3zm-.1 0" style="fill:none;stroke:#fff;stroke-width:2;stroke-linecap:butt;stroke-linejoin:round;stroke-miterlimit:10;stroke-opacity:.6" transform="rotate(000 476.1 50.3)"/>
  <path d="M427.7 59.3c-.6 0-1-.3-1.4-.5-.4-.4-.6-.9-.6-1.5 0-.5 0-1 .3-1.4 0-.4.2-.8.5-1.1l.8-.8 1.2-.3.7.1.6.2-.2.7-.6-.2h-.5c-.4 0-.7 0-1 .3l-.7 1-.2 1.6c0 .3.1.6.4.9l.8.2h.6l.7-.3v.8l-.7.2h-.7zm0 0" style="fill:none;stroke:#fff;stroke-width:2;stroke-linecap:butt;stroke-linejoin:round;stroke-miterlimit:10;stroke-opacity:.6" transform="rotate(000 476.1 50.3)"/>
  <path d="m430 59.2 1.2-5.4h.7l-.1 1 .5-.5.5-.4.8-.2c.3 0 .6.1.8.3.2.2.3.5.4 1l.5-.8.6-.2.8-.3c.3 0 .7.1 1 .4l.1.9v.8l-.7 3.4h-.9l.8-3.4v-1.2l-.6-.1c-.2 0-.5 0-.7.2l-.7.7-.5 1.4-.5 2.4h-.8l.7-3.4v-.6l-.1-.6-.5-.1-.7.2c-.2.1-.5.3-.6.8-.3.3-.5.8-.6 1.4l-.4 2.3zm0 0" style="fill:none;stroke:#fff;stroke-width:2;stroke-linecap:butt;stroke-linejoin:round;stroke-miterlimit:10;stroke-opacity:.6" transform="rotate(000 476.1 50.3)"/>
  <path d="m438.3 61.6 1.6-7.8h.8l-.2 1 1-.7c.2-.3.5-.4.9-.4s.6.3 1 .5c.3.3.4.7.4 1.4 0 .4 0 1-.2 1.4l-.5 1.2-.8.8c-.3.2-.7.3-1.1.3-.4 0-.6-.1-.9-.3l-.5-.6v.4l-.2.5-.4 2.3zm2.7-3c.4 0 .6-.1 1-.3l.4-.7.4-1 .1-1c.1-.9-.3-1.2-.8-1.2-.3.1-.5.1-.7.3l-.7.7-.4 1-.3.9c.1.6.1.7.4 1.1l.6.2zm.1 0" style="fill:none;stroke:#fff;stroke-width:2;stroke-linecap:butt;stroke-linejoin:round;stroke-miterlimit:10;stroke-opacity:.6" transform="rotate(000 476.1 50.3)"/>
  <path d="M446.8 59.3c-.6 0-1.1-.3-1.5-.6-.3-.4-.5-.9-.5-1.5l.1-1.2.5-1.1.9-.9c.3-.2.7-.3 1.2-.3s1 .3 1.4.6c.4.4.6.9.6 1.5l-.2 1.2-.5 1.1c-.2.4-.5.6-.8.9l-1.2.3zm0-.8c.4 0 .6 0 1-.3.2-.2.3-.5.4-1 .3-.4.4-.9.4-1.5l-.1-.6-.5-.4c-.1-.2-.3-.2-.5-.2-.5 0-.7.1-1 .3-.3.3-.5.6-.5 1-.3.5-.3 1-.3 1.4 0 .4 0 .8.3 1 .2.2.5.3.8.3zm0 0" style="fill:none;stroke:#fff;stroke-width:2;stroke-linecap:butt;stroke-linejoin:round;stroke-miterlimit:10;stroke-opacity:.6" transform="rotate(000 476.1 50.3)"/>
  <path d="M452.5 59.3c-.7 0-1.3-.3-1.5-.6-.4-.4-.6-1-.6-1.7 0-.6.1-1.1.3-1.6.3-.5.6-1 1-1.2.4-.3 1-.5 1.5-.5.6 0 1 .1 1.4.4.3.2.4.5.4.9 0 .5-.1.8-.3 1l-1 .5c.3 0 .5.2.7.4.2.1.3.4.3.7 0 .4 0 .5-.2.8-.1.2-.4.5-.7.6-.3.2-.7.3-1.3.3zm-1.1-3.3h1.9l.7-.2.2-.6c0-.2-.2-.4-.3-.5.1-.2-.3-.2-.6-.2-.5 0-1 .1-1.3.4-.3.3-.5.7-.6 1.1zm1.2 2.6c.4 0 .7-.1 1-.3l.2-.7c.1-.2-.1-.4-.3-.5-.2-.2-.5-.2-1-.2h-1.1v.1c-.1.6 0 1 .3 1.2.2.2.5.4.9.4zm0 0" style="fill:none;stroke:#fff;stroke-width:2;stroke-linecap:butt;stroke-linejoin:round;stroke-miterlimit:10;stroke-opacity:.6" transform="rotate(000 476.1 50.3)"/>
  <g style="fill:#000;fill-opacity:1" transform="rotate(000 443.5 69)">
    <use xlink:href="#a" y="66" x="423.8"/>
    <use xlink:href="#b" y="66" x="433.6"/>
    <use xlink:href="#c" y="66" x="442.1"/>
    <use xlink:href="#d" y="66" x="448.1"/>
    <use xlink:href="#e" y="66" x="455.4"/>
    <use xlink:href="#f" y="78" x="424.6"/>
    <use xlink:href="#g" y="78" x="430.2"/>
    <use xlink:href="#h" y="78" x="434.8"/>
    <use xlink:href="#i" y="78" x="443.5"/>
    <use xlink:href="#f" y="78" x="449.3"/>
    <use xlink:href="#j" y="78" x="454.9"/>
  </g>
  <path d="M3.8 2C3.8 3 3 3.7 2 3.7S.3 3 .3 2 1 .2 2 .2 3.8 1 3.8 2zm0 0" style="fill:#fdfdfa;fill-opacity:1;fill-rule:nonzero;stroke:#575747;stroke-width:.5;stroke-linecap:butt;stroke-linejoin:miter;stroke-miterlimit:4;stroke-opacity:1" transform="translate(313.3 220.6)"/>
  <path d="M1243 243.7h-1v-3.2l-1.4.5h-1.1c-.7 0-1.3 0-1.7-.4-.4-.6-.6-.9-.6-1.6v-3h1v2.9c0 .4 0 .7.3 1l1 .1h1.4l1-.4v-3.7h1.1zm0 0" style="fill:none;stroke:#fff;stroke-width:3;stroke-linecap:butt;stroke-linejoin:round;stroke-miterlimit:10;stroke-opacity:.6" transform="rotate(000 732.1 1981.2)"/>
  <path d="M1245.8 237.8v5l3.1-5h1.2v6h-1v-4.1l.2-.5v-.4l-3.1 5h-1.4v-6.1zm0 0" style="fill:none;stroke:#fff;stroke-width:3;stroke-linecap:butt;stroke-linejoin:round;stroke-miterlimit:10;stroke-opacity:.6" transform="rotate(000 732.1 1981.2)"/>
  <path d="m1259 237.8-2.3 2.9 2.6 3h-1.1l-2.6-3v3h-.9v-3l-2.5 3h-1.2l2.7-3-2.4-2.9h1l2.4 2.9v-2.9h1v2.9l2.3-2.9zm0 0" style="fill:none;stroke:#fff;stroke-width:3;stroke-linecap:butt;stroke-linejoin:round;stroke-miterlimit:10;stroke-opacity:.6" transform="rotate(000 732.4 1982.1)"/>
  <path d="M1262.5 237.7c.7 0 1.2.3 1.5.5.4.3.6.8.6 1.5v4h-.7l-.2-.7-1 .6c-.1.2-.5.2-1 .2-.7 0-1-.1-1.4-.4-.3-.3-.5-.7-.5-1.3 0-.6.2-1.1.7-1.4.5-.3 1.2-.5 2.1-.5h1v-.4c0-.5 0-.8-.3-1-.2-.2-.5-.3-.9-.3l-.9.1-.7.4-.3-.8.9-.2 1-.3zm1.1 3.3h-.8c-.8-.1-1.3 0-1.6.2-.2.2-.4.5-.4.9 0 .3.1.6.3.7.2.2.5.3.8.3.5-.1.9-.2 1.1-.5.5-.2.6-.6.6-1.2zm0-.1" style="fill:none;stroke:#fff;stroke-width:3;stroke-linecap:butt;stroke-linejoin:round;stroke-miterlimit:10;stroke-opacity:.6" transform="rotate(000 732.1 1981.2)"/>
  <g style="fill:#212121;fill-opacity:1" transform="rotate(000 317 222.6)">
    <use xlink:href="#k" y="215.7" x="301.1" style="stroke:none;stroke-width:.649708"/>
    <use xlink:href="#l" y="215.8" x="308.8" style="stroke:none;stroke-width:.731405"/>
    <use xlink:href="#m" y="215.6" x="315.6" style="stroke:none;stroke-width:.77958"/>
    <use xlink:href="#n" y="215.4" x="324.5" style="stroke:none;stroke-width:.74016"/>
  </g>
</svg>
