<svg xmlns="http://www.w3.org/2000/svg" viewBox="0 0 497 279"  xmlns:v="https://vecta.io/nano"><path fill="#f2efe9" d="M0 0h497v279H0z"/><g fill="#aad3df" fill-rule="evenodd"><path d="M379.7 279h279.1V0h-279zm0 279h279.1V279h-279zm0 0"/><path d="M100.8 558h279V279h-279zm0-279h279V0h-279zm0 0"/><path d="M-178.2 279h279V0h-278.9zm0 279h279V279h-278.9zm0-558h279v-279h-278.9zM50.2-125.6l.3.4-.2 1.5-.3-.4zM39-116h-.6l-1.9-1.2v-.6l.8.1-.3-1.5-1.4-1.4-.9.2-.6-1.2.5-.2.7-1.1-2.4-2.2.1-1.2-1.8-1.5-.2-1.4-.7-.6-.5.8.3-1.5-.5-1.2-2-.7-1.1 1 .4-.9-.7-.5.1-1.2-1.1-.9.6-.6-.2-1.2-1.4-.8-1.2.7.3-.4-.3-.2v-2h-.8v-.8l-.8-.6-.4.4-.7-.4-.5.2-.4-.7.4.1.2-.6-.5-.5.5-.3-.6-1.2-1.2-.6-3-3.5-.6-.3-.8-1.3.8-2.6-.2-.9-1.8-2 .6-1.3-1.6-1.1.7-1.3-.5-1.5-.5-.5H10l-.3-.4.7-3-.2-.4H8.5l-.8-.7h1.6l.4-1.5-.8-.8.3-1 1.2-1 .3-2 .6-.8h.4l-.2-.6.4.1 2.1-1.5 1 .3.5-1.2.3.3h2.7l1 .4h1.1l.7-.7.5.3 2.4-1.3 1.1-2 .5.4-.1.8 1.4 1 1-.7.8.4 1.1-.3.4-.4.2-1.6 1 .6-.1.4.3.4.8-.6 1.4.4.2-.3-.2-.6h.6l.2-.3.1.4h1.2l2.7-.6.1-.6h.5l.2-.6-.3-.3.3-.5.3.1-.1-.3.4.4v-.5l.5.4.8-.3 2.8.5v.9l.7.6 1 .8.8-.5v.5l.6-.2.6.6-.2 2 1 1.8-.2.7.2 1.3 1.2.1v1l.6-.1-.3.8.6.7.5.1.4-.5.5.9.7-.6.5 1.2 1.5 1.5.2.9.1-.4.7 1 .3-.3-.2.7 2.1 1-.2.9.3.3.7-.2.3.3-.4 1.5.5.8-.4-.4-.2.8-.4-.4-.6.4 1.3 3-.8.6.4 1.7-1 1.4.3 2.3-1.6 4.7-3 4.2v1.1l-1.6 1.4-1 .1-1.1 1.7 1.6 1.6-.3.8.1.4h-.6l-.2.8h-.6l.7 1.6h-1.1l-.4 2 .7.7-.6.3.1.7.9.4.2-.5.5.2-.8.8.2.4-.5-.1-.1.3.7.2v.7h-.5l-.5-1h-1.4l-1 3.1.2.4 1 .1v.6l.1-.1v.8l-.4.6-1.2-.8.3 1h-.3l-1-.8-1.8.4-.2.6-.9.7.2.5-.6.4.4.2-.9.7.5.6-.2.6.7.6-1.2-.3-1.3.3-1.3.8zm0 0"/><path d="M100.8 0h279v-279h-279zm0 0"/><path d="M379.7 0h279.1v-279h-279zm0 0"/></g></svg>