<svg xmlns="http://www.w3.org/2000/svg" xmlns:xlink="http://www.w3.org/1999/xlink" viewBox="0 0 497 279" xmlns:v="https://vecta.io/nano"><style><![CDATA[.B{stroke:#fff}.C{stroke:#8d618b}.D{fill-rule:evenodd}.E{stroke-linejoin:bevel}]]></style><filter id="A" width="100%" height="100%" x="0%" y="0%"><feColorMatrix in="SourceGraphic" values="0 0 0 0 1 0 0 0 0 1 0 0 0 0 1 0 0 0 1 0"/></filter><mask id="B"><g filter="url(#A)"><path fill-opacity=".5" d="M0 0h497v279H0z"/></g></mask><clipPath id="C"><path d="M0 0h497v279H0z"/></clipPath><path fill="#f2efe9" d="M0 0h497v279H0z"/><use xlink:href="#E" fill="none" stroke="#9cf"/><use xlink:href="#E" fill="#ddecec" class="D"/><use xlink:href="#F" fill="none" stroke="#9cf"/><g class="D"><use xlink:href="#F" fill="#ddecec"/><g fill="#aad3df"><path d="M-73.1-279h-.3l-1.4 5.6v.7l.6.4-.4 3.3-2.6 1-2.8 6.9-1.8 1.5v2.1l-3.3 12.3v3.5l-3.9 3.9-1.9 3.7-3.5 1.1-3 2.8.2 2 .7 1 1.1.7 2 .4 1 .6.4 1.2-.6 7.4 1 4.1-2 2.5-2.4 1.3-2 2.3-1.3.1-2 1.4-.7.8-1 4.7v1.9l3.2-.2 3.5-1.5 3.8-1 1.5 1.7.8 2.1-.4.7.3 4.6-.5 3.2 1.3 2.7-.9 1.3.6 4.2.5.5v.7l-1.1 1.2-.3 1-.2 3.3.9 2.3-.7 2v2.7l.6.3v2.4l.6.4-.5 1.5.7 4.3 1.5 2v.8l-1.2 1.4v1.2l1.4 4.7.2 2.3-.6.8.7 2-.3 3.5-2 2-.1 4.1-1 .6-.1 1.3-1.3.7-.1 2.2-1 .7-2 4 .5 1.3-.4.8-1 .4-.9 2-3 2.6-1 2.1-3 1.6v.6l1 1-.4.6.4 1.4 1.5.6 1.2 1.2 1.3 2.9 1.6 1.6h1l.9-1.6 1.5-.3 1.2-2.3v-1.8l1.4-2.2 1-1.2 1.1-.3.3-.6 1.4-.9v-.4h.6l.1-.7.2-1 .7-.3.6-1 1.7-.5.5-1.2 2.8-.5 1-.5.4-.8 1-3.8 3.5-6.4 1.4-6.6 1.2-2 .9-3.4 2.3-3.3 2-.9.4-2.8 1.6-3.7.7-9.5-.6-7.2v-3.9l.7-7.5.4-.8-.4-1.9.7-1.2v-2l-1.4-1.6 2.6-8.2v-1.3l-1.2-2v-4l3.8-7.5.7-2.1-.3-3.4-1.7-2.9v-1.6l3.7-4.3 2-4.7-.3-1.4 2.2-2.8 7.1-6 3.4-1.9 2.6.1 1.5.8 1.8 2.2 1.5 1.1.2 1 1 1.4h.6l.6.5.7 1.4 1.9 1.9.2.7 1.6 1.2.4 1 2.3 2.8v2.3l1.4 1.3.9-.8 2.9 1.8 1.4 1.4 3.1 1.5 4.5 4.4.5 1.1 1.5.3 4.3 5.8-.3.9.5.6.9-.2 1.1 2.9.7 1 .6-.4-.4-.7.3-1.2h.5l.3-.7 1.3-1L2-205l1 4.2v1.2l.6 1.4-.1 2.7-2.6 1.8.6 5.5 1.5 3.3.7 3.5-.7 1.5v1l-.6.6.3.8.7.1.3.7v2.3l.8 1.4 1.8 1.6 1.5.5 1.2 1.2.2-.4-.5-.6.6-.3.2 1.7 1.1 1.3 1 4.2-1.3 3.9v2l1.2 1.8 1 4.8L16-148v.8l-.6.4.4-1-.5-.2-.3.4v3.4l.2.5v1.7l.5 1.5.7 1.2.9.5.5-.4-1.5 3.2 1.2 9-.6 3.7 1.7 1.5-1 1.6-.6 2.8h-.7l-.3.6 2.6 2.6-1 1.6.2 5-.8 5.6-.6.3L18-86.2v3.5l-.9 2.2v1.7l1.3 1.3-1 .7-3 .5-1.1 2.2.3 2.5.4 1.2 2.7.4-1 2.4-3.1 3.2-2.1 4.4-1.3 1.1L7-55.4l-2 1.6-5.4 3.3H-3l-.9 2.8-1.7 2.5-.8 3.8.7.7-1.3 1-.6 2.1.1 2.6 2 1 16-2.9 5.5.3 3.3 2.1 1.1 4.5 4 7.8.4 2.5-1 3-.3 2.7-.8 2.9L22.5 0h35l2.2-5L61-7.2l1.6-1.2 4 .9L69-6.4 75.7 0h25.2v-28.3l-1-1.3h1.1v-35.2l-2-2.6v-1.2l.4-.5 1.5.3v-17.1l-2.4 1.7.6-3-.3-1.5-1-1.1-.5-2.2-1.1-1 .2-2.5-.6-1-1.6-.1-.6-1 .3-.6 1.8-.5.8-1 1-7.3-.7-5v-3l-4.2-4.3v-.7l.4-.4.8.2 1 1.2h2.4l1.1-1.4v-1.2l-1.5-.2-.5-1 2.2-.7 1 .7 1.5.2V-219l-4.1-8.9.8-7.4 1-1.7 2.2-1.7v-33.2h-.9l-.5-1.1 1.4-.8v-3.2l-1.3-.8v-.8l.5-.4.5.7h.4v-.7zm158 251.5l-1.2-.1-3.6 1.6h-1.8l-.9 1.4-1.3.2-1.8-.4-2 .5-2.5 1.4-2.3.4-.7-.8 1.3-2.7v-3l.2-.6h2.1l1.1 1 1.5.3 1-.7 2 .3 2.6-1.3 1.5-.1.7.4.3 1.1 1.8-1.4-.2-1.3.3-.5 1.7.2.9 1.3v1.1l-.3.8.2.7zM-72-194.3l-3.3-3 .3-.7h1l2.1 2.5zm99.1-8.2l-.6.5-1.8-.5-2-1.7.1-1.1.6.5.6-.1-.2.6.5.2h1.5zm38.6-15l-.3 1.8h-1.2l-1.2 1-3.4-.3-1.6-1.5-.8-.1-.2-.7.6-.9 2.3.3.7-.5 2.5 1zm-11.7.7l-.6.6h-1l-1.9-1.2H49l-1-.6.5-.6 2.1.2 1 .7 2 .3zm-45.5 11v2.4l-.8 2-1.7.8-.7-.7-1-4.2 1.1-.7.1-1.2.6-.1.7 1.1h1zm56.3-14.4L64-219l-1.2-.6.2-.9.9-.3zM4.7-231.4l.3 1.8-.6.4-1-.8-.2-1.3.6-1zm79 118.2l-.4.8-2.4-.2.3-.7.8-.3h1.2zm9-20l-3.7-.4-.2.3.6 1.3-.7.3-2-.7h-2.5l-.9 1-.8-.8.7-.4v-1.3l-.7-.3.5-2.3-.5-1.8.7-2.6 1.4-1.4 1.3-.4 1.4.5 1 2.2 2.2 1 1.8.7h5l1.2 2.7-1.1 1.4-1.7.6-.2 1.4h-.9zM81.3-129l.4.6-.4 1 .4.8.6.9h1l.8 1.4v.3l-1.1.8-1.8-1.2-.2-2.4-3-1-.9-.9v-.9l1.5-1zm13.5 59.8v.5l-.8.4-5.3-.3v-.4l2.2-.8zM82-71.7l-.3.4-1.3.1v.5l-.4.1-1-2 .5-.9 2.1 1zM65.2-97l-.8-.6-1.2.3-.5-.7h-1.4l-1.7-2v-.7l1.9.4 1.9 1 .5 1 1.1.4zm15.8-3.2l-1.3-.1-1-.7-.4-.8.8-.2h.9zm-12.2.7l1.4 2.6.5-1.3 1 1.7-2 1.5h-1.6l-.7-.8.4-3.3.3-.5zm5 1l-.5.4-.3-.5.6-.2zm4.5 23.2l-.9-1.3-.2-1 .3-.8 1.5 1.1 2.6.3v.7zm-29.1-5.5l1.2.6.1.7 2 .2.3.8-1.6 1.2-1.5.5-2.5-1-.3-2.5 1-.5zm41 1.9l-2.2.2-.2.5-1.2.6h-1.4l-1-1.4 1.2-.3.6-1.7h.7zM75.6 0l.6 1.3L78 3l4.4 8 .7 6 4.5-1 2.7 1.6h1.4l2-2.7 1.6-.9 3.4.2 1-1.5 1.3.3V0zm0 0"/><path d="M100.8 13l1 .2.6-1.8 1.3 1V10l1.3-.3 1 .4.7 1.4 1.3-1 1 .5 1.3 1.6 1.2-.6.4.4.1 3-.5 1.1-2.2 2.2h-1.7l-1.6-1.3-1.5 1.9 4 11 .3 10.2 1.1 3.5v1.8l-2.2 6.1-2.3 2.1-2.1 3.8 3.8 8.5 4.7-3.3 4.5-2 3.7-.3.3-1 1.4-1.6 1 .3-.7 2.6.3.6 1.5.4v.6l-1.3.2-1.1-.6-.6.1-.7.8 1.9 3.8-1.4 4.1-1.3 1v1l2.1 2.6v3l-1.6 1.4.2 1.4.5.4.7-.3-.5 1.3-3.8 1.2.4 1.5-1.2 3 2.9 2.7 2.9.8h3.6l1.6 1 .5 3.6 1 1h1.5l1.9-1 1.1.6 1.2 1.5.1 1 2.9 2.1v-1.4l.7-.7h1.3l2-1.8v-1.7l.7-.6.4-.9-.8-2.5 1.1-1 .8-4.9 1-.3 1.1.5.4-1-1-.6.3-.9 1.5.2 1 1 1 4.4 2 3.8 1.9 1.6 1.9 2.8.4-.6.6-2 1-.5 2 .3 1.6-.5 2 2 .7 1.7v1.8l-.4 1.5-1.1.5-1-1-1.8.5-1.2 2.8 1.3 2.8h2.8l2.9 1.1 7 5.3 2 .5.5 1.6 3.3 1.5 3.2.3 2.2 1.1-1.6 1-1.3 3.1-2.7 2.7-3.4-.6-1 1.1 1.9 2.8.8 3.4-2.1 1.3.6 2.1-.5 2.8 5.1 5.8 5.2 6.6.8 3.9 1.3 1.2 2.9-2.7 3.4.5 3-4.6-.2-2.3 1.1-.8.2-2.2h1.3l.7 1.4 3.3-.6.6-.8-.4-1.9.9-1.5 2.6-2.6.3-1.6-.4-1h-.4l-2 .4-1-.4-.4-1 .4-1 1.7-.2 1.8.2 2.3 3.5 1.4.5.6-.5.6.5.4 2 1.1 1h3.2l3.7 3 1.7.6 2.2-1h1l.7-2 3.3.3-.4 1.5.3 1.2 2.4.6-.4 1.5.4.5 2.9.7.5 1.3h1l.6 1.3 1.6 1.2-.2 1.5-1.2 1.1-.1 2.2-1.5 2.1.2 1.4-1.1 2.2 6 7 5.1-2.2.1-.7 2.3.6 1.7 1.3 3.5-.1 1.4.9 4.7 6.8 1 .7 1.5.3.7-.4v-1l.6-.6 3.1-1.3v-1.9l.7-.5 8.1 3 3-.3 4.2 2.2.4 1 .3 4.5-1.7 6.4-1.3.5-2.8 6.2-.5 8-3.7 6.4-.7 2.1-.5 2.3.3 3.6-.5 2-1.5 1.3-1.7 4.1-1 5.6-.8.9-1 8.4-.2 4.3h1.1l1.4 1.4 1.2 2 .7 1.6v3.8l.8 2.8-2.6 4.6-5.6-.4-.5-.7.1-1-2.2-.7-1.9-1.7-1.6 3.8-4.7-.3-10-5.5-.3.7 5.5 2.8.5.9-1.2 1.7.2 3.2-4 4.1-2 1.4-1.3.1-1.9-1.2-1.4-1.7-.4-1.3-2.1-2.2.7-.4v-1.9l-1.6-.2-.5 2-2.7-2.5-.4-2.1-2.4-2.8.3-1.7 1.4-.3 2.5-3.2-1-1.9 1.2-2.3-1-1.1-1.1-.2-4.1 1-1.4-1.2h-1l-.8 1.8v2.4l-1.6 1.3-1.5.1-1.7-6.4-3.9-2.7h-2.7l-3 1.4-3 3.5-4 1.4-.3 1.5-.9.5-1.5-1-4.9-8.9-3-1.5-.9-1.7-5.3-2-1.6-2.5-.5.3-1.6 3.5-1.8.4-.7-.4-.5-1.8-.8-1-1 1.8-2.3 2.4-1.8 1-3 .7-2.4-.7h-2l-3.8 2.9h-2l-1.3-.7v1.5l-.7 1 .5 1.3-1.5 1.8-.6 2.6-1.6 1.8v2.2l-1.1 1.5.1 2.5-1.3.7-1.3 2.1 1 1.5 2.6 1.3 4.6 7.8h-.7l-1.6-2.2-1.6-.6-2.7.6-1.7 2-3.8 1.3-.8 1.3 1.3 2.8-.6 2-.7-.6-.5-1.2-1.7-.6H138l-1.9 1.4-.5-.4v-.9h-.5l.2 2.4 1.7-.5.3.6-1.9 1.8-.4 2.3-.3.3h9.4v-.3l.5-.5 1 .5v.3h99.7l1.1-.5 1.1.3.6-2.4-.2-1.6 4.3 1.3 3 2.1 4.5.8h120.1V0h-279zm83.4 223l.6 1-1.4.3-.2-1zm59.7-95.4l-.7.5-3.7.1.6-.6 2-.6zm-4.7-.1l-.6.5h-2.4l-1.3-.7.2-.8h2.1l1.6.5zm8.3-1.7l-.4.9-1.8 1-1-.2v-.4zm16.2 139.3l-1.1.6-1.6-.2-4.6-.7v-.7l2-2.1 1.7.4zm-8.2-2.1l-.6-.5.7-.6.7.9zm2.8-1.7l-.9.4-5.2-.4-1.3-2.5h-2.3l-.3-.4-.3-1 1-1.1-.3-1 .6-.4.7.3.9-1.6-2.7.4.3-2.4 1.8-3 1 .3.5-.9h.9l5.8 3.3.6 2.7-.1 1.8-.8.2-1.2-.2.6 2.6 1 1-.8.2.6.7zM247.9 259l-1.1.2-.8-.7.4-.7 1.2-.1zm-26.5-8.7l.6.2-.7.7-.3-.7zm-30.5-1.4l1.7-.5h2.4l-2 2.3-.4 1.4-1.5-.8-.8-1.1v-.9zm113.3-128.5l.5.3-.1.6H303l-.5-1 .5-.3-.9-1-3.4-.7.3-.3 2.3-1 .6 1.4 2.1.1zm-11 8l-.7.7-1-.2-.4-1 .5-.5h1zm.3-.8l-.8-.5-.1-.5.4-.3 1.5 1.3zm-19.7-3l1 .4.7 1.3 1.6.9h1.9l1.2 1.2 4.3-.8-.5 1-5.7-.1-5-2.7-.3-.3.3-.7zm8.6-18l.4.6-.5.6-.6-1zm-17.5-29.1l-.1.2-.6-.4-1 .2-.6-.7-.6.4-1-.2-.3-.5-2-.8zm6.1 7l-.8.3-.7-.8-2-3.1.1-1-.8-.9 1.2.5 1 2.3 1.2 1zm15 7.8l.2 1-1.2.3-.7 1.4-.5-.1V94l.3-.8.8-.6zm-30.3-17.5l-.5.3-3-3.1 2 1zM243 67.1l-.7.9h-.5v-1.9h.8zm-39.6.4l-2.7 4.9-2.2 3-2.8 3-.4.9-.8-.2.1-1.8-.6-.7-2.9-.4-1.3-1.2h-2l-4.6 1.8-8.2 4.4-.4.5.4 1-.3 1.3-3.2 2-2.1.4-1.2.8-3.3.7-2.4-.4-1 1-1.5-.5-.3-1 .1-.4h1l.7-1.2V84l-.3-.4h-1l-.4-.4.9-.8-1.2-1.8-1.5-1-5.4-1.5h-1.2l-1.7 1v1.2h-.4l-.8-1.2.2-.4-1-1.9-2.8-1.8-.5-1.4-2.3-2-.3-1-2.3-.9.3-1 1.7-.2 1.2.5 1 .7h.9l1.7-1.1.7-2.7-1.7-1.6-.3-1.2.2-1.7-2.8-3.4v-3.6l-.7-1.4 1.1-1.7 2.4-6.9-.2-1 3-3.2 1.7-2.4.6-2.4-.7-3-1.4-1.7-2.6-.2-.6-.5-.4-4.8 1 1.4 4.9 2 2.3-.6 1.7.4 1 1-1.3.8v1.3l.9 1.6 2.1 1.9 5.2 1.7 6-.1 3.1-.7 2.9-1.7 1.1-1.8-.4-1.4-.6-.6-.5.1-.3-1.5 1.8 1.2 3.9.2 1.6.9 2.5 6 3.3 1 8.4 8.6 9.8.9 3 3.2 2 3.5.8 3.5-.3 2.3-1.7 2zm-84.1-13l-.5.6v1.7l-2.2-.1-.3-.4-.3-1.7.8-1 .5-1.3 1 .5zm108.3 35.2l-1.2.3-1-1-3.8-.1-.6-1.2-.6-.3-1.4 1.2.6.5-.1 1.7-1-.2-.2-.8v-3h.7l-.6-1.3 1.6-1.1 1-.2.7.8 1.9 1-.7.8-1.1-.1.2 1 1-.4v.6l1.5.6 1-1.6 1.6 1.4zm2.2-16l.8 1.1 1.8-.6 1.5.4.6-1.1.9-.1 2 .3 2.3-.5 1.5.8h1.1l.6-2.1 1.1-.5.4-2.1.9-.3 2 .6 1-.5 1.5.2v.6l-.8 1-.2 1.7h-.8l-.3-.4-1.4-.4-.9 1.3-1.3.3.3 1.4-.5 1-1.2.2-1.1-1-.6 1-1.8-.4-.5-.2v-1l-.2-.3-1.6.6-.1.6-.7.2-1.1-.5h-3.7l-.7.6-.2 1.4h-.4l-2.2-.7.7.9-1.5 5-1.2.1 1.2-3.2-1.5.9v1.5h-1.4l-.6-.8.2-1.2 1.1-.5.4-2.2 1-.5v-.8l-3.6-2.9.4-1.3 1.9.4 1.7-.7 1.1 2.3zm71.3 35.9l-3-.3-2.6-3.6-2.3-1.2.9-1.2-.8-2 1.4.7.4 1.1 1.3.5.2-.4-.8-1.4-1.6-1.3H293l-.8.7-.7-.2h-1.2l-1.4-.7.1-.3 1-.4.7.6.7.1.9-.5-.6-2.4.7-2 .6-.1 1.4 1.4 1.5.3.6.8-.2 1-.5.2.4 1.6 1.2 1.2 1-.3.4-1.4.9-.6 4.2.3-.1-.8.5-1 .7-.9 1-.1 1.1.2 1.1.8.5 1 2.7 2.1-.1.9-1.8.6-1.4-.2-1.4.3-1.4-.7-.6-.8-.7-.1-1.3.4-.7-.3-2.6.5-1.6 2.1.6 2.4 2.6 2.2zm-18-5.8h-.6v-1.1l1.5-.2.3-.7 1.6.4 1.5-.2.2-1.3.4-.1 1.1.7-2.1 1.7zm-.7-4h1.6l1.7.8h-.2zm-6.2-5.1l.5.5-.1 1-1.2.4-.4-.4.2-.7-1.4-.3-.4-1 .3-1.2.8-.5.8 1.6zM22.5 0v.3l-.7 1.3v1.7l-1.2 2.3V7l-.9 1.1v4.4L17.9 15l-.5 3.5 3 8.3 9.1 3.2h8.3l6.4-1 1.4-.6L48 24l.7-3.9.8-1.9-.3-1.3.4-.9 1.1.2 1.3-5.8 2.6-3.3 3-7.1zm78.3 0h279v-113.6l-2.5.3-2.3-.7-2.4-.2-3.3.7-5.7 2.2-3.4-.4-2.5.5-2.1-1.3H352l-5.3 4.1-3.2.9-3.9 1.8-10.5 7.3-3.3 1.5-4.4 1.4-8.2 1.7h-5l-2.9.8-2.4-.5-1.1-1.6-.6-2.5-2.4-1.7-6-3.1-5.4-1.7-5.4.5-14.2-3.5-5.6.3-5.7 1.3-7.7 2.5-10 4.6-12.1 3.1-4.4-1.3-4-.6-3.6-1.8-2.3-1.8-4.4-.8-3.7 1 .7-6.4 3.6-11 .1-6-1.1-1.5-.9-.2-.3-1.6-3-.1-2-1.3-3.5-4.3-1.7-.6-2.9-2-11.9-1.4-1.4-.5-5.1-3.1-1.9-1.9-5.7-1-7-3.5-3.3-.5-.6-1-4.4-3.9-7-3-2.7.3-3.3 1.7-1.1-.2.4-.6-.4-.9-1-.7-1.4-2-.8-4.4-2-2.4-.6-1.8-.5-4.6-1.1-2.2-.3-3-1-.8.4-2-2.3-4-6-2.6-3 .4-1.1-3.2-2.7-4.1-2-1-1.5-2.3-.9-2.6-1.3-2v-1.6l-2.9-3.1-3.8-10.9-1.3-3.4v96.8l3.7.6 2.5 2 1.7.2 1.1-.4.5-.8 1.2-.5h1.6l1.3 1.2 1.8 3 8.2 6 4.2 4.6 1.4.8.8 2 1 .5 4.3 5.1 1.1 1.9 1.8.5-.2.6 1.4 2.2 2.4.3.2-.9.5-.1v1l.7.4 1.9 4.5.3-1.4v2.1h-.3l.1.7h.4l.3 2.4-1.5 2.1 1 .8v.8l-.6.2-.8-.3.2-.8-.7-.5-4.6.6.3-1.2-.6-.8-.2-2-2.4-3-1.8-1.7-4-2.5-1-2-1.4-1-1.4-.4-2.2 1.1-2.4 2.3-2 .8-10.8 1.1-2 .8-1 1-3.8 1-2.2 1.8v17l1.9.6 6.1 2.3.2.7-2.2.8-1 1-1.4-.5-1.9.8-1.3-1.1-.4-.7v35.4h.5l.2-.4 1.4.2 1 2 2 .3v.3l-3.5.2-.8-.4-.8-1.1zm8.5-38.8l.8 1.6-.6.6-.5-1.8zm44.3-5.9l.7 1.3.1 1.4-1.2.3v1.4l-.8-.5-2.1 1.1-2.8.4-1.5.7-2.3-1.3-2.4.9.1-.7-.6-2.2 2.4-.9.4-1 2 .8.8-.5 3.3 2.3 1.6-.2 1.9-2.1-.2-.8zm-31.2 13.2l.3.2-.5 2.3-1.1.5zm32-19.8l-.4 1-.7.7h-.3l-1-1.9.8-.5h1.2zm-7.5-3l-.5-.7 2.6-.3.9-.5v.3l-.9.7-.8-.4zm-35.3 25.5l.4.3h-1.2l.2-.4zm-1.6.5l.6.2-.8.7-.4-.6zm-1 .2l-1.2.7h-1.2l-.8-.8.3-.5-.1-1h.6l1.2 1.4zm132-48.5l2.3-.4 2.8 1.5.2.9-2.3 1-1.8-.4-1-1.3zm-32.4-4l-1 1.4-.4.4-.5-.8.7-2 .5-.2zM197.2-90l-.5 2.1-.7.5-1-.3-.2-.8-1.7-1v-1.9l-2.4-.9-2-2.9-2.2-1.3.2-1.5 6.2 5.5 1.1.6 1.5-.3 1 .9zm-62.8-12.8l.5 1 2 .5.9 1.4 1 .4-.6.1v1l1 1.4v.6l-1.8-.7-.4-2.5-2.6-2.1-.4-1zm101.1 34.1l-.4-1.2 1.1.4 1.4-.6 5 3.8 1.8 1.8 1.7 3 1.1 1.3.6 1.8-1.5.1-.9-.4-.2-.5.8-1.1-1-1.3-1.4 1.4-.8.4-.8-.2.4-2-.3-1.9-2.7-1.6-2.2 1.5-.7 1-.4-.3-1.8-2.8zM124.7-32.4l-1.6-1-.7-2.6.6-1.4 1.4-2.2-.4-.4h-1v-.5l.2-1.1h1l-.2-.4 1-1.8 2.3 1.2-.5 1.3 1.9-.4 1.3.2 1-.8.3-1.4-.7-.7-.4-1.6.4-1.5.7.5 1.2-.2 1.8-2-.8-3 .3-1.4-.5-1.2-1.8-2.4h-.9l-.3.9.7 1 1 2.9-2.6.4-1.5-4.5-1.2-1-.9.2.2.9.7.5-1 1.4 1.9 1 .1 2.1-.9-.4v-.5l-1.5-.3-1.3-2v-3.3l.4-1.1.9-.9 1.7.5.6-2.3.6-.2.8 1.6 1-.3 1.2 1.6 1.6-.4.2-.9-1.3-3.1-1.8-2.2.9-1.6 2.2 1.7.7 2.3 3 2 1.5 1.4 2.4-.4 1-1.3.8-.1.6-2h.7l-.6 2.6 2.4 1.3.9 2.7-.5.4-3 .2-1.2 1.6.7.8v.9l.9.7v.8l-.5.3-.2 3.5-.6 1.4.3 1-.7.3.5.4-.6.3-.3-.6-1.3-.6-.7.6h-.6v3.2l1.6 2.6-.2 1-1.9.3v1.3l3.7 2-.1.3-1.5-.7.2 1.3 1.1.9h-.9v-.4l-1.5.6-1.7-1.7-2-.5-1.4-1.7h-2.5l.1 2.3-.4.2-.6 3-.9 1.7h-.6l-.1 1-1.4.4v-.8l-1-1.6-1.3-.5zm-2-31.3h.3v.6h-.5zm0 0"/><path d="M379.7 279h279.1V0h-279zm0-279h279.1v-104.3l-4.7 3.3-3.6 4-3.9 2.4-5.4 4.3-3.7-1-3.8-4.3-4.6-1.6-4.3.5-2.2-.3-.3-2.6-1.3-2-2.1.2-1.9 2.1-4.2.6-2.2 1.2-5.4.9-3.5 4.2-4.2 2-6.2 4-5 1.1-3.2 4-9.8 1.4-7.6 2.4-6.7 2.7-4.1 4-2.7 3.3-4.2 2.2-2.3 5.3-4.5 2.4-3.3.4-1.9 1.6-3 .5-2.4 2.5v4.4l-1.3 4-1.4.9 1.2 5.3-1.4 3.7-2 2v1.5l-1.7 3-.8 4.7h-2.5l-2.5 1.1-2.6-.5h-4l-7.2 2.1-7.8-.6-3.3.6-2-.2-4.9-1.5-1.4-.9h-3.3l-5.2-.7-9.4-2.2-.9-1.4-.5-2-1.2-1.1-3.3.4-1.6 1-1.6 1.8-1.5-.6-1.2-3.2-2.4-3-4-1.3-1.7-6.5-.4-.4-3.8 1.5-3.6-.5-1.7.6-1.1-.4-1-2-2.1.3-5.5 2.3-1-1.7-1.1-.5-3.5.1-3.1-.5-4-2.2.9-2.5-1-.7-1.6.5-3.3-4.7-.3-2.6-.7-1.1-.8-3.2-2.1-2.9-.4-1.5.3-1.3-.8-2-1.5-1.3-.5-3.7.6-2.3-1-1.9-.1-2.2.3-1.7 3-3 2-1.2.7-1.9-.4-3.2 1.2-2.2 2.6-.4 8-6.4-3.6-.7.7-2 1.1-.7h1.2l.3-1.5-1.3-.9-.5-1.3-.4-3.5-2.4-.3-2.1-1.5-6.7.8-2.6-1.4-5.1-.1-3.8-1.4-3.8.4-6-1.2h-3.9l-1.8.2zm0 473.5l1.9.1.6 1.4h.4l2.1-1.5 4.4-.8.5-1 .9-.3 2.5-1.8 3.6-1.6 4.8-.4 4.3-2.1 5.2-1.5v-.6l1.6.1 6.9 6.5 2 3 7.6 7.4 3 1.9 3.6.3 3 1.7 1.6 1.4.7 1.5 1.8 9.2 2.5 6 1.1 1.5 1 4.6-1.6 9.7-.9 1.2-1.1 3-1.7.6-2 5-1 5.2v2.9l3 14.3 3.1 7.6h213.7V279h-279zm0 0"/><path d="M100.8 558h121.9l-.5-1.2-5.5-4.5-4.1-2.2v-.8l-.9-.3-1 .3-.9-1.8.5-.1 1 1 1.5-.7.9-1.9-.5-4.9 1-8.9 10-7.6.6.3 2.4-1 3.3-2.4 4.8-5.6 2.8-1.7-1.1-.3 4.9-1.7 3.1-.4 2.5-2.1h1.6l8.8-3.9 5.7-3.6 4.7-3.7 3.4-.5 6.6-2 2.4-2.8 2.1-.3 3 .9h2.2l1.4-.6 1.4-2 1.4-.2 4.5-3.4 5-2.9 3.1-1h3.1l4.8.9 3.1 1.3 10.2 3 2.6.2 4.9 2.9 7.9 1 3-.5 1.8.3 3.1-1 1.2-1.6 5.2-1.7 1.3-1 3.5-1.3 2 .3 2.8 1.3.2.8 3.5-1.7 1.8-1.2.6-2h.4l-.3-2.8.7-3 1.1-1.3 1-3.1 2.7-.6 1.7.8h1.1V279H259.2l4.5.7.6 1.3-2.1 1.6v1l1.8 1 .1 1.3 2.2 2.8-.7 1.5 1 2-.4 1 1.2 1.6 1.8.5.5 1 .6 2.7-.3 2.4.9 2.6 3.8 3.8 1.7 3.5 4.8 3 2 2.7.2 2.3-.3 1.4.2 1.6 1 .7 1.5-1.2 2.4 2.8 2 1.8 1.1-.6.8-1.4-1.1-1.7 3.2-7.6.3-2.5 2.5-.7 1 .5.6 2 .9 1.6.8-1.3 1 1.1 1.5.5 6 .2.7-1.9-.6-.6-.7.6-1-.8-.1-1.7-2.4-.8-.5-1-1.2-.7-1.3-2.7 1.3-1.6.7-4.3 2.3-1.5h1.3l2 1.7.4 1.8 3.7 1.4h1l5.3-1.9 2 .1 1.9.8 1.9 3.6.9 5 3.2 7.3.8 5.8.6 9.2 6.3 14.2 2.7 4 1.6 3.5 1.9 6.7-.3 4.8.4 12 4.7 14.5 2.1 10.3-.4 2.5-1 17-.6 1.7-.1 3.2-1.4 4.5-.4 5.5-.6 1 .1 2.3-.4 2.7-1.8 4.3v3.9l-.8 2.1-.7 1.2-1.3-.9-.8.7-4 6.7-2.2 1-3.9-.5-6.6-2-4.6 1.2-8.9-4.2-5 .8-2 2.5-2.5 1.9h-4.3l-1.4-1.1-2.1-.4-2.3.8-2.4 1.5-2 1.7-1 1.8-1 .8-3.7.2-7.9 2.6-3.8 2-3-.3-7.6 1.8-.8.8-4.2 1-4.2 2.6-1.6 1.6-1.7 4.2-2.6.4-1.2.7-2.1-.4-.9.9-.7 1.8-.2 1.9-.9.3-2.3-.1-4.6-1.7-1.5-1.8-.6-2 1-2.3 1.3-.3-.2-1.2-1.7-1.4-2.3-1.3-4.1-1.3-7.6-1.2-4.4.6-1.7-.3-2.9 1.7h-1.5l-1 1v.6l-1.5.1-1.4-1V476l-1-1.5 2.1-.6 2.4-1.9.3-1.1-.1-2.4-.6-1-1-1.2-.5-3 .2-.6.5-.1.3 1h1.5l1.9-2 1.1-2.1 1.2-4.8-.2-2-.8-2 .4-2.7.7-.8-1.4-2.8-2.6-3-3.7-2.8-5.6-.9-1.6.7.2 1.5-1.6.6v-2l1.7-1.2v-.9l-.5-.8-2.5.5-.2-.7.5-1.4 6.4.3 2.3-.4 3.6-1.7 1.3.5.9-.4 1.4.1 1.1-2.1 1.2-1.1 1.2-.3-.4-2.5-3.1-.5-1.7-.8-.2-1.4-3.4-.3-3.1-2.3-2.3-.3-1.2-.7.4-1.4 1.2-.4.8-1.3-1.3-2.5.4-1.1-.2-2.5.7-1.5-.2-6.4.6-5-1-2.4-4.2-6.3-1.4-.6-.2-.5 1.2-2.3-.9-2-.2-1.9.2-1 .6-.3-1.7-4-2.3-1.7-.5-1.1-5-3.2-3-.2-.3.5.7 1.5-.4.3-1-1.5-.3-2 1 .4-.6-1.1-5.5-3.8L160 360l-.6.6h-.4l-1.5-1.6-5.5-2.7-.7.3-2.2-.8-3-2.6v-.4l1.9.2 1.4-1.7.1-5.1.8-2.2 2.1-2.6 7-4.8 10-3 4.6-.9 7.3-.5 1.2-.5.5-.7v-.7l.5-.1.2-.8h.8l.5.7.6-.2.2-.8 1.5-.1 4.2-2.9.5.9 2.4-1.6.7-1.2.1-2.6 1.9.1.5 1.3h.8l.1-1.4.8.3.3.8h1l.5.4 3.4-.1 3.7-1.4 1.3-.9 1-1 .1-2.1 2.1-.6.5.3.6 1.2 1.5-.7.5 1 .7-.3.2-.5-.6-1 .6-.7 1-.2.3.7 1-.1 6-1.5 2.2.1 2.8 2.4 1.7-.1 3-3 1.8-3.6 2.9-3.5 1.4-3 .8-2.3.4-3.4-1.6-1.8-.7-4.1.9-2-.6-.9.3-1.8-.6-.8.3-1.6.7-1.2 2.3-.8 1.3-1.8h1.1l.6-1-.7-.9V279h-99.7l.6 2.5.6.3 1-.5.5.7 1.5.7-.6 2.3-1 .1-.6-.8v-1l-2.4-.5-1.2-1V279h-9.2l-1.8 2.1-1.8.3-.2.4.2.6 1.8 1 .7.9 1.5 1.2-.2 1.3.5 1.2-2.4 4-2.1-.4-1.2-1-2-1-.5-.7-.6.5v-.7l-.4-.5-.9.4-.8-2-.6.1-.5-.7-2.7.1-4.1 2.7h-3.8l-4.4-1.7-3.4.1-4.3 2.5zm110.8-42.6v1l-1.4-.1v-1l-1.2.4-2.2-1.4-2 .2-.8-.9.3-1.2 2-.3 2.4.7 2.3 1.5zm-2.8-6.5l-1 .4-.5-1 .3-.6zm.2-7.5l-.7 1-1.6.6-.2-.7.5-.6.2-2.4h.9zm3.7-189.2h-2.2l-.1-.4 1.3-.6 1.5-1.7.4.4-.3 1.6zm-35.5 174.9l-.3 2.9h-1.4l-.2 1.4-.6.6v1l-.6.4.6 2.2-.6 1h-.9v-4.1l1.4-6h.6l.3 1.3.3-2.6 1.3-2.4 3.8.4.4 1.2-.2.8-3.6 1zm23.6-6.9l1.6.8 1.1.9v5.6l.5.8-.8.6.4 1.1-.8 1.7-1.1 1.5-1.3.3-1.3-.2-1.9-1-4.3-.5-.6-.5-.1-1.1.7-2.7 3.3.1 1.4 1.1 2.4.9.7-.7zm0 0"/></g></g><g fill="none" clip-path="url(#C)" mask="url(#B)" class="E"><g stroke-width=".8"><path d="M546.8 93.2l-79 41.2" class="B"/><path d="M546.8 93.2l-79 41.2" class="C"/><path d="M467.8 134.4l-74.4 39-2.2 4.4" class="B"/><path d="M467.8 134.4l-74.4 39-2.2 4.4" class="C"/><path d="M391.2 178l-1.6 3.2 26 79.8.6 1.3" class="B"/><path d="M391.2 178l-1.6 3.2 26 79.8.6 1.3" class="C"/><path d="M416.3 262.3l46.5 76" class="B"/><path d="M416.3 262.3l46.5 76" class="C"/></g><g stroke-width="2.2"><path d="M468 134.4l-74.6 39-2.1 4.3" class="B"/><path d="M468 134.4l-74.6 39-2.1 4.3" class="C"/><path d="M416.2 262.2l46.6 76" class="B"/><path d="M416.2 262.2l46.6 76" class="C"/><path d="M547 93.2l-79 41.2" class="B"/><path d="M547 93.2l-79 41.2" class="C"/><path d="M391.3 177.8l-1.7 3.5 26 79.7.5 1.2" class="B"/><path d="M391.3 177.8l-1.7 3.5 26 79.7.5 1.2" class="C"/></g></g><defs ><path id="E" d="M48 57.3l2.3 5.3 54.1 2.8-2.4-6.7.7-3L97 58l-.6-2.6 3.2.8-.6-4.4 4.9-3.8 3-.5-2.7-.7.9-6-2.3-4.9 3.5-3.8-2.5-6.6-3.4-5.5-6-1.1-2.7 6.1-.7-1.4.5-5.6-7-.7-2.5-3-4-9.7L73.6 0l-6-.8-5.2-1.4-2.6 6L57.3 8l-.5 1.6 3 5.1-.5 4.7 1.7 4-3.6-3.1-2.5-5.9-3.1-.7 2 5-2.3 5.3-1.2 7.5-.2 5.3-1.8 4.5.9 5-.9 9.7zm0 0"/><path id="F" d="M157.1 59.6l4.1 3.3 4 5.3 6.4-2.2 6.4-.6-4.5-3.6 4.8-2 2.6 1.7 1.7 2 3-2.1 5.4-1.7 3.8 1.5 1.7-2 2.7-2.8 3.3-4.2-4.4-2.7-7.5-7.3-1.2 4.7-2.3-3.8-1.3 1.3L181 46l-.4 4.7-4.5 2-6.4-1.9-8-2.6-2.7 1zm0 0"/></defs></svg>