<svg xmlns="http://www.w3.org/2000/svg" xmlns:xlink="http://www.w3.org/1999/xlink" viewBox="0 0 497 279" xmlns:v="https://vecta.io/nano"><path fill="#f2efe9" d="M0 0h497v279H0z"/><use xlink:href="#B" fill="none" stroke="#9cf"/><use xlink:href="#B" fill="#ddecec" fill-rule="evenodd"/><use xlink:href="#C" fill="none" stroke="#9cf"/><g fill-rule="evenodd"><use xlink:href="#C" fill="#ddecec"/><g fill="#aad3df"><path d="M366 99.8l.8 1 1.6 1.6 1.8 2h.8l.6.2v1.3l.4.6.7-.3 1 .4 1.6-.3v-.6l-1.1.3-.3-.8.6-1-.8-.4-.1-1.5 1-.9h1.8l.8-.4-1.3-.5-.7-.7h-1.6l-.6-1.1-1.3.9-1.9-.1-.6-.6h-1.4zm-544.2-231.6l2.5-3.5.4-1.7-.2-2.2-.5-.8.3-3.7 2.3-.8 4.5-3 .9-.9v-.6l2.2-1.8 4.3-1v1.7l2 .9h3.3l2.6-.5.3 1.5 2 .4 2.2 1 .9 1.1 3.3 2.5 1.9 2.4 1.5 1 4.1 1.4 3.7 2.1 7 .7v1l-2.3 4.3 3 3.7-.3 1.6.5 5 4.8 3.7 2.3.3 2.3 1.3 7 1 1.4-.3v4.4l.8 1.8 2 1.5.6 2 2.6 2.3-.1 1 .7 2 3.5 3.3 1.2 5.7 2.6 2.2 1.3 2.5.5 2.3 1.9 1-2.6 4.3-1.6 1.4.9 1.3-.3 1.4-1.6.8-.8 1.1 1.9 3.8 1.4 1.2 3.5-1 5-3.4 1.4-.3.2 1.6-.7 1.4.1 2.5.8 2.2 1.4 1.7.7 2.6 2.8 1.6.7 3 1.5 2.3v1.2l.5.6-.2 1.1.8 4.2 2.2 2.4 2 1.3-.3 1.3 1.3 1.5v1.2l1.6 2.4 1.6 5-.9 1.1.7 6.2 1 1.4.8-.1.7 2.3.9 1.4-.7 3 .7 4.6-.3 1.4h-.7l-1.4 2.7.4 2.3-1 1-.7-.2-.6.6-1.3-1.3-3.3.8-.3.8-1 1 .2 1.1-.3.2h174.2v-34.1L90-31.5l-1.6 1.3-1 7.5.2 3.8-1.2 2-.5 3.1h-1.6l-.5 1.4-1.7-.3-.6-1.9.7-.6v-1l-1.1-.2.7-2.1-.4-1.6-1.4-1.8 1.5-3.2v-2.3l-.9-1.2V-30l1.7-2.4-.1-1.6-.9-.4V-36l.9-.8-.5-2.9-3.3-1.8-1.3 1h-1.5l-1-3-1.8-1.1H69l-1.5 2.4-3.1 1.6v.7l1.4.9.4 1-.6.6-.8-1.2h-.7L62.8-37 60-38.7l-1.9 1-.4 2.7h-.9l-1.2-4.3.1-1.3.9-.2.4.9 1.2.5 1.5-.1-.7-2.1-.9-1.2-1.6-.2-2.1.2-2.4 1.5-1.2-1.1.4-1.6-1-.1.3-1-1-.4-1.5.8v1.1l-1.4.1-.8-.5-1.7-.3-1.1.3v2.5l-1.7.5-.2-.7.9-.7-.8-1.2-.5.3-1.7-1.2v-.8l-.6-.5h-2.7l-1.4.6L34-44l-3.7 1.9-3.1-3-7.7 4.9-.5 1-4.1 2.5-2.4.3-2.6-.7.6-1.4-.5-2.7-2-2 .6-1.1L8-45l-.7.3-.2 1.7-.7.4-1.2-1.5-.3-1-1.4-1.6.1-1.4-.6-.6L4.4-50l-1-5.4L1.5-58 1-59.4l-1.6-.7.2-.9-.4-.5-1.3.1V-63l-1.8-1.7L-4-66h-1.5l-1.3.8-.3 2-.9.6-1.2-1.9-1.2.7-.4 1 1 .4 1.1 1.4 2.4.4.9 1.3 1 3.6 3.4 5.2v.8l-.9.3-.1-.6h-3.6l-.7-1.6-1-.4-.4-1.6-1.4-1.6-.2-1.8-1.2-.4-.8.6-.7-.2-1-2.6-1.6.2.6 5.8-1.3.8.1-.2-1.4-2.1 1-3.2-.8-1.5-.6-.6-1.1 1.8.6 4-.8.8.3 1.8-1.6 1.3-1.7.2-1-.9-.9-1.4v-1.3l1.5-1.3-.1-2.2-.4-.3-.4.6-.3-.3.1-1.3 1 .2.7-2.6-.6-2.3-1.9-.3-.1-.9-1.9-.2-1.4-1.1-.9-6.6-.8-1.6-3.4-1.3-1.1.6-1.8-1.4-1.2.4-1-1.7-.6-3.5-.8-1.4-1.8.4-.4-4.4-.6-1.7-.6-10-.4-.5.2-1-.7-3.8-2.4-4-2.1-2 .4-1.2v-2.4h-1v-1.8l-.8-.6-1.8-.1-.4-1.3-1.1-.2-2.4.3-1 .7-.2 1.3h-.7l-1-2.4-1.6-1.9v-2.7l1.9.3 1.4-.6.7.4 1.7-.9v-1.5l.8-.8 1.2.2 1-1 .5-1.4-.2-1.8h-1.2l.2-1 1.1-1-.1-2 .3-.6.7.1 1.1-.7 1.4-3 .6-3.3h1l.8-.9.5 1 1.4.7 3.2-1.3 1.6-1.4.9 1h1l.2-.9 1.1 1.3.7-.6.1.4.9-.3 1 .2 1.1-1.7h.9l.5-.8.8-.2 3.2-3.5.2-.9 1.6.4 1-.3 1.4-1h1.5l1.3-1.1 1.8.5 2.8-.1 2.3-1h1.1l.5-.3 2.2 1 1.3-.6.6.7 1.6-.5-.3-1.2 1.6-.8 1 .3 1.1.6.1.6.5-.5.6-1.7-.5-.7-3.5 1-.6-.9-2.5-.4v-1.2l-.4-.3v-.6l.9-1.3 2.1-1 1.9.3.8-.5 1.5-.2.6-.9h.7l.8-.6-.2-1.7H.2l-.4-.3-.2-1.9.4-1.1-.7-1.6-3-1-1.7.5-1.3.8-2.2 2.5-.3 2-1.4-.1-4 2.2-2.1-.4 1.3-2 2.9.3h.8l1-.9.4-5.6.3-.5 1.3-.5 2.5.4 1.6-1 .8-1 .8-4-.4-2.4-1.9-3.2-.3-1.5.8-.3.7-1.5 1.1 4 1 1 1.1 4.5v1l-.5.1-.8 2.1.2 2.9.7.6.8-.2 6.5 1.6-1.5 3.9 1.3.9h1.1l5.4 1.5.5-.2-.1.5.3.4-.2.5-1.2.2-.4.6.4 2.5 3.8 1.5v-1.7l-2.4-2.5.6-.9v-2.2l-1.2-2.3 1.9-1.4 2.8-.2.9.3-.2-1.6-2.6-.3-.7.4v.8l-1.1-.6-2-2.4-1.1-3.5-1-.2-.4-7.6-.9-1.1.3-3.7-.3-.7.6-1 .6.4 1.3.3 2.3-.5 3.5.2 1.1-1.1 2 .4 3-1.3v.4l1.6.1.3-1.9-1-.2-.8.5-.3-.4-1.2.5v-2.6l1.3-3.2.7-.4.2-.9 1.6-1.2-.5-1.5 1.2-.8.2-1.9.6-.2 1-2.1-.9-.8-1.4 1h-.7l-2.2 2.5v1.2l-3.5 1.8-.6 1 .3 1-1.3.9-.7 2.2-.9.2-.3-.3-.5.3-1.2-1.6-2-.5-4 .5-2-.1-1.4.6-1.3 2 1 .8.8 2.9-1.8 1.2-.5-.4-.2-1-.3-5-.9-1.3-1.6-.9-2.6.7-2.4 1.3-.2 1.8-.5.4-.6-.2-1.5-1.4.6-2.2-.2-1.4-1.8-1.8-3-.8-2.2.5-4.4 2.1h-.9l-1.7-.6-1.8.2-2.3-.4-2.3.5-2-.4-2.1 1.5-4.4 6h-1.3l-.3-2.9-.8-2.8.1-.9-1.1-2.5-1-.8.5-1.7-.4-1.7-1.4-.3-2.6.1-1-1.7-1.9.7v2.6l.7 3.3v2.2l-.8-.5-.9-3-.2-1.5.7-1.4-.2-.6-1.7-2-.5-2.4-.6.2v1.5l2 4.2-.8 3.3.6 1.4-.7.6-1.1-1.2-.6-4H-54l.3-3-.3-.2-.3-2.6-.7-.5.5-1.3-.7-1.3.2-1.1-.6-.5-.8-4.3-1.5-2.8v-2.2l-.4-.6-.5-4-1-3.1-1.1-1.3v-2.3l-1.2-1.4v-1l-1-1.6.4-2-.7-.5.2-.5-.5-1.9-.6-.2-.5-1.7-.5-.1-.3-1.5.5-.6-.3-1.6-.9-.4-1-1.8-.8-.4-.6.4-.3.7.8 1.2v1.2l-1.3-3-.5-.1-2 .1.3.9-.8-.4-1.1.8.5 1.4.5.9.3-.3.2 1.8 1 2.9.7.4.6-.6-.2 3.9 1.2 5.3-.5.8-.5-.2-.7-3.1-1.1-1.5-2.4-9.6-1.5-1.5-.5-1.6.2-2-1.2-1.6-2.3-.6-4.2.3-1.7 1-.4.8-2.4 1.3-.3.7-1.2.7-2.3 3.1-1.2-1h-1.4v-1.6l-.9-.6.2-.8 1.3-1.1.2-.9 1-.1 1-1.3.2-1.3h-.6l.7-.3v-1.5l.6.5 1.5-.6 2-1.9 1-2.7 1.2-1.2v-2l.4-.1-.4-2.5 1.3-2 .5-.4.3.4.8-.3.2.3.9-.7.8.5h-.5l.3.4h.8l1.6-1.9.6.2.7-.5 1.2-1.6.4.6-.3-.3-1.3 1.8-.8.4-.3-.3-.7.7.3.3 1.6-.5.5 1.2.6-.3.2-1.9 1.5-.1.3.4.5-.4 1.6-3v-1.3l-1.1-3.7h-105.7zm189 97.5l.5-.6h.5L12-36l.3-.2.4 1.2.7.3 1.2 2 4.9 4.7 2.2 1.7-.3 1.1 1.2 1-.6.7.2 1.5-1.3.1-1 1.4.7 1-.5 1 .5.5h-.8l.8 1.8.6.5 1-.3.3 1-2 .3-.5-1.5-2.2-.8-1.7.7v.5l-.4.8.3.7-1.2-.5-2.4.4-.4-.4-.7.4-.6-.2-1 .8-.3-.6-1.4.6L5.5-15l-1.3-1.8-.6-2.2.3-2.6L6.8-25v-.7l1 .1.7-1.1.2-1.8-1-.8h-1l.5-1.3-1.5-2-.1-1.4-.6-.6V-36l.6-1H6l.9 2.4L8.3-33H10l.4 1.6 1.4 1 1.7.4-1-2.3-2.5-1zm38.7 2.8h-.9l-.6-1.2-.5-2.1.5-2.6.2 2.5 1.2 2.5zm-51.7-5.3l-2.4-3.6-1-2 .3-.7h.3l.7 1.4 2.3 3.4zm-18.4-7l-.8-.5v-.9l.4-.7.7 1.1zm4.6-3.9l.2.8-.5 1-2-.4-.2-.2.2-.4-1.4-.7.9-1.2h1.6l.2.8zm7.3-4.3l-1.4.5-.3-1 .4-1.5h.8l.5.6zm-22.1-7.8l-.3.3-.8-.6-.1-1-.9-.6v-1l.4-.3zm17.6 15.3l-.8 1.4h-.7l-.2-.9.3-.8zm-3.3-143l-.7-.5-.8-.3.4-2.5 1.2-1.2.5 1-.5.6.4 1-.6.8zM-58.7-201l.8 1.6 1.6.7-.7.9v2.1l.9 2.4 1.1.3v.5l-1 .9-.3.8h-.3l-1.2-1.3-.5-1.3-1.3-1.2-.8-1.6-.7-3.8-.6-.5v-3.6zm30.8 19.1l-2-4.1-.1-2 2.3 3.8.3 1.2 1.8 1-.2 1-1.2.4-.2.6-.6-1zm-6.7-3.7l-.4 1.2-.5.4-2-2.5v-.9l1.1-1.3h.5l1 1.2-.1 1.5zm-14.5 16.4l.2 2.5-2.1.3-.3-.3.8-2-.3-.8zm26.2 7.5l-1.5.3-2 1.7-2.3.6-.7-.4 1.1-1.5.3-1.4-1-1.1-.2-1.5h-.8l-.6 1-1-.6v-1.4l-1-2.5.6.5.5-.5-.2-.8.7-1.3-2.2-4v-2.3l-.4-.8.3-.2-.5-.5-.2.2-.3-.8.8-.2 1.5 1.2.3 1.3-.4 1.2 1.2 1.2.6 1.3 2 1.3v1.7l1.2 3-.5 2 1.3.8 2-.5.3.4.3-1-.4.4-.5-1.1.8-.5 1.7 1.2 1.5.3-1 2.8-1.1.9zm-2.7 10.4l-.4 1.1.7 1.2-1.5-1-.2-.6.7-1.1.5.4 1-1v.9zm-41.3-.5l-.8-1 .1-3.6 2.7-1.8.5.4-.2.7.8 1.9 2 2-2.6 1.7-.2 1.3-2-.5zm34.1-5.2l.2 1.5-.4 1.5 2.2 4.3v.7l-1 .5-.2.7h-.6l-.4-.8-.5-.1-1.5 1.5-1.4-3.3v-1l-1.6-1h-1.7l-3.3 1-.6-.1-3.8 1-2.9 2-1.3 1.9.2 1.2-2.8 3.7h-.5l-1.3-1.9-.8-.4-.6.1v-2l.7-1.2-.3-1.2 2.2-2.3 1-1.7 2.4-3h.6l3.8-3.6.3 1 .7.4h.7l1.3-.6 1-1.6 2-1.2 1-1v-1.7h1.2v.5l.8.5.5-.3.6-1v-1l-.8-.6.3-1.1.9.9v1.6l1 .2v.6l.3 1.6-.4 2.2zm-29.6-13.3l.4 1.4-1 1.5-2-1.2-1.4-.2 1.3-1.2-.3-.5.8-.8-.2-1.7.7-1.2.7 1v1.4l1.6.5zm51.4-2.9l.5.7-.5.5-.7-.2.3-.8zm-10.9-12.4l.8 2.6v2.2l-.3.4-1-.6-.6.7-.5 1.6.4 1.3-.6.7.3-5-.4-.4.6-.5-.1-2.4zm-28.8 13l-1.3-.2-.3-1.5-.7-.3v-2l-.9-.6 1.5-1.8.7-.2.2 3 1 1-.2 1.1.7.5v.8zm5.1-5.7l-.6-.9.2-1.3-.6-1.7.3-1.1h-.8l.8-.9.3-.8.3.2-.3 1.5 1 2.1.3 1.3-.7.5zM-73.1 0h-.3l-1.4 5.6v.7l.6.4-.4 3.3-2.6 1-2.8 7-1.8 1.3v2.2l-3.3 12.2v3.5l-3.9 4.1-1.9 3.6-3.5 1-3 2.9.2 2 .7 1 1.1.7 2 .4 1 .6.4 1.2-.6 7.4 1 4.1-2 2.5L-96 70l-2 2.3-1.3.1-2 1.4-.7.8-1 4.6v2h3.2l3.5-1.8 3.8-.9 1.5 1.7.8 2-.4.8.3 4.6-.5 3.1 1.3 2.8-.9 1.3.6 4.2.5.5v.7l-1.1 1.2-.3 1-.2 3.2.9 2.4-.7 2v2.5l.6.6v2.3l.6.4-.5 1.4.7 4.4 1.5 2v.7l-1.2 1.5v1.2l1.4 4.7.2 2.3-.6.8.7 2-.3 3.4-2 2.1-.1 4.1-1 .6-.1 1.3-1.3.7-.1 2.2-1 .7-2 4 .5 1.3-.4.8-1 .4-.9 2-3 2.6-1 2-3 1.8v.5l1 1-.4.5.4 1.4 1.5.8 1.2 1.1 1.3 2.7 1.6 1.7h1l.9-1.5 1.5-.3 1.2-2.3v-1.8l1.4-2.2 1-1.2 1.1-.3.3-.7 1.4-.8v-.5h.6l.1-.7.2-.9.7-.3.6-1 1.7-.4.5-1.3 2.8-.6 1-.4.4-.8 1-3.8 3.5-6.5 1.4-6.5 1.2-2 .9-3.5 2.3-3 2-1.2.4-2.8 1.6-3.6.7-9.6-.6-7.2v-3.7l.7-7.6.4-.9-.4-1.8.7-1.2v-2.1l-1.4-1.5 2.6-8.2v-1.4l-1.2-2v-3.9l3.8-7.5.7-2.1-.3-3.4-1.7-2.9v-1.7l3.7-4.1 2-4.8-.3-1.4 2.2-2.8 7.1-6 3.4-1.9h2.6l1.5 1 1.8 2.1 1.5 1 .2 1.1 1 1.3h.6l.6.5.7 1.5 1.9 1.9.2.7 1.6 1.2.4 1 2.3 2.8v2.3l1.4 1.3.9-.8 2.9 1.8 1.4 1.4 3.1 1.5 4.5 4.4.5.9 1.5.6 4.3 5.6-.3 1 .5.6.9-.2 1.1 2.9.7 1 .6-.4-.4-.7.3-1.2h.5l.3-.7 1.3-1L2 74l1 4.2v1.2l.6 1.4-.1 2.6-2.6 1.9.6 5.5L3 94.1l.7 3.5L3 99v1.1l-.6.6.3.8.7.1.3.7v2.2l.8 1.4 1.8 1.7 1.5.4 1.2 1.3.2-.5-.5-.5.6-.3.2 1.7 1.1 1.1 1 4.4-1.3 3.8v2l1.2 1.8 1 4.9L16 131v.8l-.6.4.4-1-.5-.2-.3.4v3.4l.2.5v1.6l.5 1.5.7 1.3.9.5.5-.4-1.5 3.1 1.2 9.1-.6 3.7 1.7 1.5-1 1.6-.6 2.8h-.7l-.3.6 2.6 2.6-1 1.5.2 5.2-.8 5.4-.6.4 1.6 15.5v3.5l-.9 2.2v1.7l1.3 1.3-1 .7-3 .5-1.1 2.2.3 2.5.4 1.2 2.7.4-1 2.4-3.1 3.2-2.1 4.3-1.3 1.2-2.2 3.4-2 1.7-5.4 3.3H-3l-.9 2.7-1.7 2.6-.8 3.8.7.7-1.3 1-.6 2 .1 2.7 2 1 16-3 5.5.5 3.3 2 1.1 4.5 4 7.7.4 2.6-1 2.9-.3 2.8-.8 3-.2 11h35l2.2-5 1.3-2.1 1.6-1.4 4 1 2.4 1.1 6.7 6.4h25.2v-28.4l-1-1.2h1.1v-35.2l-2-2.6v-1.2l.4-.5 1.5.3V193l-2.4 1.8.6-3-.3-1.5-1-1.1-.5-2.2-1.1-1 .2-2.5-.6-1-1.6-.1-.6-1 .3-.7 1.8-.5.8-.8 1-7.5-.7-4.9v-3l-4.2-4.4v-.6l.4-.4.8.2 1 1.2h2.4l1.1-1.4v-1.3l-1.5-.1-.5-1 2.2-.7 1 .6 1.5.3V59.9L96.9 51l.8-7.3 1-1.8 2.2-1.6V7h-.9l-.5-1 1.4-.8V1.9l-1.3-.7V.4l.5-.4.5.7h.4V0zm158 251.5l-1.2-.1-3.6 1.6h-1.8l-.9 1.4-1.3.1-1.8-.4-2 .6-2.5 1.3-2.3.5-.7-.8 1.3-2.7v-3l.2-.6h2.1l1.1.9 1.5.4 1-.9 2 .4 2.6-1.2 1.5-.1.7.4.3 1 1.8-1.3-.2-1.3.3-.5 1.7.2.9 1.3v1.1l-.3.7.2.8zM-72 84.7l-3.3-3 .3-.7h1l2.1 2.5zm99.1-8.2l-.6.5-1.8-.5-2-1.7.1-1.1.6.5.6-.2-.2.7.5.2h1.5zm38.6-15l-.3 1.8h-1.2l-1.2 1-3.4-.3-1.6-1.5-.8-.1-.2-.7.6-.9 2.3.3.7-.5 2.5 1zm-11.7.7l-.6.5h-1l-1.9-1.2-1.5.2-1-.7.5-.7 2.1.3 1 .7 2 .2zm-45.5 11v2.4l-.8 1.9-1.7.8-.7-.6-1-4.2 1.1-.7.1-1.2.6-.1.7 1.1h1zm56.3-14.4l-.8 1-1.2-.3.2-1 .9-.4zM4.7 47.6l.3 1.7-.6.5-1-.8-.2-1.3.6-1zm79 118.2l-.4.8-2.4-.2.3-.7.8-.3h1.2zm9-20l-3.7-.5-.2.4.6 1.3-.7.2-2-.6h-2.5l-.9 1-.8-.8.7-.4V145l-.7-.2.5-2.3-.5-1.8.7-2.6 1.4-1.4 1.3-.5 1.4.6 1 2.2 2.2 1 1.8.7h5l1.2 2.6-1.1 1.5-1.7.6-.2 1.4h-.9zM81.3 150l.4.6-.4 1 .4.8.6.9h1l.8 1.3v.4l-1.1.7-1.8-1.1-.2-2.4-3-1-.9-.9v-.9l1.5-1.1zm13.5 59.8v.5l-.8.4-5.3-.3v-.5l2.2-.7zM82 207.3l-.3.4-1.3.1v.5l-.4.1-1-2 .5-1 2.1 1.3zM65.2 182l-.8-.7-1.2.4-.5-.7h-1.4l-1.7-2v-.8l1.9.5 1.9 1 .5 1 1.1.4zm15.8-3.3h-1.3l-1-.7-.4-.8.8-.4.9.3zm-12.2.8l1.4 2.5.5-1.2 1 1.7-2 1.4h-1.6l-.7-.7.4-3.3.3-.5zm5 1l-.5.4-.3-.5.6-.2zm4.5 23.2l-.9-1.3-.2-1.1.3-.7 1.5 1 2.6.4v.7zm-29.1-5.5l1.2.6.1.7 2 .2.3.8-1.6 1.2-1.5.5-2.5-1-.3-2.6 1-.4zm41 1.9l-2.2.1-.2.6-1.2.6h-1.4l-1-1.4 1.2-.3.6-1.7h.7zM75.6 279l.6 1.3L78 282l4.4 8 .7 6 4.5-1 2.7 1.6h1.4l2-2.8 1.6-.7 3.4.1 1-1.5 1.3.3v-13zm-53.1 0v.2l-.7 1.4v1.7l-1.2 2.3v1.4l-.9 1.1v4.3l-1.8 2.7-.5 3.4 3 8.3 9.1 3.2h8.3l6.4-1 1.4-.6 2.4-4.5.7-3.9.8-1.9-.3-1.1.4-1 1.1.2 1.3-5.8 2.6-3.4 3-7zm0 0"/><path d="M100.8 292l1 .2.6-1.8 1.3 1V289l1.3-.3 1 .4.7 1.4 1.3-1 1 .5 1.3 1.6 1.2-.6.4.4.1 3-.5 1.1-2.2 2.2h-1.7l-1.6-1.3-1.5 1.9 4 11 .3 10.1 1.1 3.6v1.8l-2.2 6-2.3 2.2-2.1 3.8 3.8 8.5 4.7-3.3 4.5-1.9 3.7-.4.3-1 1.4-1.7 1 .4-.7 2.6.3.6 1.5.4v.6l-1.3.2-1.1-.6-.6.1-.7.8 1.9 3.8-1.4 4.1-1.3 1v1l2.1 2.5v3.1l-1.6 1.4.2 1.4.5.4.7-.3-.5 1.3-3.8 1.2.4 1.4-1.2 3 2.9 2.8 2.9 1h3.6l1.6.6.5 3.8 1 1h1.5l1.9-1 1.1.6 1.2 1.5.1 1 2.9 1.9v-1.1l.7-.9 1.3.2 2-2V375l.7-.4.4-1-.8-2.3 1.1-1.3.8-4.7 1-.3 1.1.5.4-1-1-.6.3-.9 1.5.2 1 1 1 4.4 2 3.8 1.9 1.6 1.9 2.7.4-.5.6-2 1-.5 2 .3 1.6-.5 2 2 .7 1.6v1.9l-.4 1.5-1.1.4-1-.9-1.8.5-1.2 2.8 1.3 2.8 2.8-.1 2.9 1.3 7 5.1 2 .7.5 1.5 3.3 1.4 3.2.4 2.2 1-1.6 1.2-1.3 3-2.7 2.6-3.4-.5-1 1.1 1.9 2.7.8 3.5-2.1 1.3.6 2.1-.5 2.8 5.1 5.6 5.2 6.8.8 3.9 1.3 1.2 2.9-2.7 3.4.4 3-4.4-.2-2.5 1.1-.7.2-2.2h1.3l.7 1.4 3.3-.6.6-.8-.4-1.9.9-1.5 2.6-2.6.3-1.6-.4-1.1h-.4l-2 .5-1-.4-.4-1 .4-.8 1.7-.5 1.8.3 2.3 3.5 1.4.5.6-.5.6.5.4 2 1.1 1h3.2l3.7 3 1.7.6 2.2-1h1l.7-2.1 3.3.4-.4 1.5.3 1.1 2.4.7-.4 1.4.4.5 2.9.9.5 1.1 1 .1.6 1.2 1.6 1.2-.2 1.6-1.2 1.1-.1 2.2-1.5 2 .2 1.5-1.1 2.2 6 7 5.1-2.2.1-.7 2.3.6 1.7 1.3 3.5-.1 1.4.9 4.7 6.7 1 .8 1.5.2.7-.4v-1l.6-.4 3.1-1.4v-1.9l.7-.5 8.1 2.9 3-.1 4.2 2.1.4.8.3 4.7-1.7 6.4-1.3.5-2.8 6.2-.5 8-3.7 6.4-.7 2.1-.5 2.2.3 3.7-.5 2-1.5 1.3-1.7 4.1-1 5.6-.8.9-1 8.4-.2 4.2 1.1.2 1.4 1.3 1.2 1.9.7 1.7v3.7l.8 2.9-2.6 4.5-5.6-.2-.5-.8.1-1-2.2-.7-1.9-1.7-1.6 3.8-4.7-.4-10-5.4-.3.7 5.5 2.8.5.9-1.2 1.7.2 3.2-4 4.1-2 1.4-1.3.1-1.9-1.2-1.4-1.8-.4-1.2-2.1-2.3.7-.3v-1.9l-1.6-.3-.5 2.2-2.7-2.7-.4-2-2.4-2.8.3-1.7 1.4-.3 2.5-3.3-1-1.8 1.2-2.4-1-1-1.1-.2-4.1 1-1.4-1.3-1 .2-.8 1.7v2.4l-1.6 1.3-1.5.1-1.7-6.4-3.9-2.7h-2.7l-3 1.2-3 3.8-4 1.3-.3 1.5-.9.5-1.5-1-4.9-8.9-3-1.6-.9-1.6-5.3-2-1.6-2.5-.5.2-1.6 3.6-1.8.4-.7-.4-.5-1.8-.8-1-1 1.8-2.3 2.4-1.8 1-3 .6-2.4-.6h-2l-3.8 2.7h-2l-1.3-.4v1.3l-.7 1.1.5 1.3-1.5 1.8-.6 2.6-1.6 1.8v2.1l-1.1 1.6.1 2.5-1.3.7-1.3 2.1 1 1.5 2.6 1.3 4.6 7.8-.7-.2-1.6-2-1.6-.6-2.7.6-1.7 2-3.8 1.3-.8 1.3 1.3 2.8-.6 2-.7-.6-.5-1.2-1.7-.6H138l-1.9 1.4-.5-.4v-1l-.5.2.2 2.1 1.7-.3.3.6-1.9 1.8-.4 2.3-.3.3h9.4v-.3l.5-.6 1 .5v.4h99.7l1.1-.6 1.1.3.6-2.2-.2-1.7 4.3 1.2 3 2.2 4.5.8h120.1V279h-279zm83.4 223l.6 1-1.4.3-.2-1zm59.7-95.4l-.7.5h-3.7l.6-.4 2-.7zm-4.7-.1l-.6.5h-2.4l-1.3-.7.2-.8h2.1l1.6.5zm8.3-1.7l-.4.9-1.8.9-1-.1v-.5zM263.7 557l-1.1.7-1.6-.2-4.6-.7v-.7l2-2.2 1.7.5zm-8.2-2l-.6-.4.7-.7.7.9zm2.8-1.7l-.9.4-5.2-.4-1.3-2.5h-2.3l-.3-.5-.3-.9 1-1.1-.3-1 .6-.4.7.3.9-1.7-2.7.6.3-2.5 1.8-3 1 .2.5-.8h.9l5.8 3.3.6 2.7-.1 1.8-.8.2-1.2-.2.6 2.5 1 1-.8.4.6.6zM247.9 538l-1.1.2-.8-.7.4-.7 1.2-.1zm-26.5-8.7l.6.2-.7.5-.3-.5zm-30.5-1.4l1.7-.5h2.4l-2 2.2-.4 1.5-1.5-.8-.8-1.3v-.7zm113.3-128.6l.5.4-.1.5-1.6.1-.5-1 .5-.3-.9-1.2-3.4-.5.3-.4 2.3-1 .6 1.5 2.1.1zm-11 8l-.7.9-1-.3-.4-1 .5-.5h1zm.3-.6l-.8-.6-.1-.6.4-.2 1.5 1.3zm-19.7-3.2l1 .6.7 1.2 1.6.7 1.9.2 1.2 1.2 4.3-.8-.5 1-5.7-.2-5-2.6-.3-.4.3-.6zm8.6-17.9l.4.4-.5.8-.6-1zm-17.5-29.3l-.1.4-.6-.4-1 .2-.6-.7-.6.4-1-.3-.3-.5-2-.7zm6.1 7.2l-.8.3-.7-.8-2-3.1.1-1-.8-.9 1.2.4 1 2.4 1.2 1zm15 7.8l.2 1-1.2.3-.7 1.4-.5-.2v-.8l.3-.8.8-.6zm-30.3-17.5l-.5.2-3-3 2 1zM243 346l-.7.9h-.5v-1.7h.8zm-39.6.4l-2.7 5-2.2 3-2.8 3-.4.9-.8-.3.1-1.7-.6-.7-2.9-.5-1.3-1.1h-2l-4.6 1.7-8.2 4.5-.4.5.4 1-.3 1.3-3.2 2-2.1.4-1.2.8-3.3.7-2.4-.5-1 1-1.5-.4-.3-1 .1-.4h1l.7-1.2V363l-.3-.4h-1l-.4-.4.9-.8-1.2-1.8-1.5-1-5.4-1.5h-1.2l-1.7 1v1.1h-.4l-.8-1.1.2-.5-1-1.8-2.8-1.8-.5-1.4-2.3-2-.3-1-2.3-1 .3-.9 1.7-.1 1.2.3 1 .8h.9l1.7-1.1.7-2.7-1.7-1.6-.3-1.3.2-1.7-2.8-3.3v-3.6l-.7-1.5 1.1-1.6 2.4-6.9-.2-1 3-3.2 1.7-2.4.6-2.4-.7-3-1.4-1.8-2.6-.1-.6-.6-.4-4.7 1 1.4 4.9 2 2.3-.8 1.7.6 1 1-1.3.8v1.3l.9 1.5 2.1 2 5.2 1.6h6l3.1-.7 2.9-1.9 1.1-1.6-.4-1.4-.6-.6h-.5l-.3-1.4 1.8 1.1 3.9.3 1.6.8 2.5 6.1 3.3 1 8.4 8.4 9.8 1.3 3 2.9 2 3.6.8 3.5-.3 2.3-1.7 2zm-84.1-12.9l-.5.5v1.8l-2.2-.2-.3-.3-.3-1.7.8-1 .5-1.4 1 .6zm108.3 35.2l-1.2.3-1-1-3.8-.1-.6-1.2-.6-.3-1.4 1.2.6.4-.1 1.8-1-.2-.2-.8v-3h.7l-.6-1.3 1.6-1.1 1-.3.7 1 1.9.9-.7.8-1.1-.1.2 1 1-.5v.7l1.5.5 1-1.4 1.6 1.3zm2.2-16l.8 1.1 1.8-.6 1.5.4.6-1.1.9-.2 2 .4 2.3-.7 1.5 1.1h1.1l.6-2.2 1.1-.5.4-2.1.9-.3 2 .6 1-.5 1.5.2v.5l-.8 1-.2 1.8h-.8l-.3-.5-1.4-.3-.9 1.3-1.3.3.3 1.4-.5 1-1.2.2-1.1-1-.6 1-1.8-.4-.5-.2v-1l-.2-.3-1.6.5-.1.7-.7.2-1.1-.5h-3.7l-.7.6-.2 1.3-.4.2-2.2-1.1.7 1.2-1.5 5h-1.2l1.2-2.9-1.5.7v1.5h-1.4l-.6-.9.2-1 1.1-.7.4-2.1 1-.5v-.8l-3.6-2.9.4-1.3 1.9.4 1.7-.7 1.1 2.3zm71.3 35.9l-3-.3-2.6-3.6-2.3-1.2.9-1.2-.8-2 1.4.7.4 1 1.3.6.2-.4-.8-1.4-1.6-1.3H293l-.8.7-.7-.3-1.2.2-1.4-.8.1-.5 1-.2.7.6.7.1.9-.6-.6-2.3.7-2 .6-.1 1.4 1.4 1.5.3.6.8-.2 1-.5.2.4 1.6 1.2 1.2 1-.3.4-1.5.9-.5 4.2.3-.1-.9.5-.9.7-.8 1-.2 1.1.2 1.1.8.5 1 2.7 2.1-.1.8-1.8.7-1.4-.3-1.4.4-1.4-.7-.6-.8-.7-.2-1.3.5-.7-.3-2.6.4-1.6 2.2.6 2.4 2.6 2.2zm-18-5.8h-.6v-1.1l1.5-.3.3-.6 1.6.4 1.5-.2.2-1.3.4-.2 1.1.7-2.1 1.8zm-.7-4h1.6l1.7.6-.2.2zm-6.2-5.2l.5.6-.1 1-1.2.4-.4-.4.2-.7-1.4-.3-.4-1 .3-1.2.8-.5.8 1.5zM100.8 279h279V165.3l-2.5.4-2.3-.7-2.4-.2-3.3.7-5.7 2.2-3.4-.5-2.5.6-2.1-1.3H352l-5.3 4.1-3.2.9-3.9 1.7-10.5 7.4-3.3 1.4-4.4 1.4-8.2 1.8h-5l-2.9.8-2.4-.6-1.1-1.6-.6-2.4-2.4-1.7-6-3.1-5.4-1.7-5.4.5-14.2-3.5-5.6.3-5.7 1.3-7.7 2.5-10 4.6-12.1 3.1-4.4-1.3-4-.7-3.6-1.7-2.3-1.8-4.4-.8-3.7 1 .7-6.4 3.6-11 .1-5.8-1.1-1.8-.9-.2-.3-1.5-3-.1-2-1.3-3.5-4.3-1.7-.7-2.9-2-11.9-1.3-1.4-.5-5.1-3.2-1.9-1.8-5.7-1-7-3.5-3.3-.5-.6-1-4.4-3.9-7-3-2.7.2-3.3 1.7h-1.1l.4-.8-.4-.9-1-.5-1.4-2.1-.8-4.5-2-2.3-.6-1.8-.5-4.6-1.1-2.2-.3-3-1-.8.4-2-2.3-4-6-2.6-3 .4-1.1-3.3-2.7-4-2-1-1.5-2.3-.9-2.6-1.3-2V77l-2.9-3.1-3.8-11-1.3-3.3v96.8l3.7.6 2.5 2 1.7.2 1.1-.4.5-.8 1.2-.5h1.6l1.3 1.2 1.8 3 8.2 6 4.2 4.6 1.4.7.8 2.1 1 .5 4.3 5.1 1.1 1.9 1.8.5-.2.5 1.4 2.4h2.4l.2-.7.5-.1v1l.7.4 1.9 4.4.3-1.3v2.1h-.3l.1.7h.4l.3 2.4-1.5 2 1 .8v.9l-.6.2-.8-.3.2-.8-.7-.6-4.6.6.3-1-.6-1-.2-1.9-2.4-3-1.8-1.8-4-2.4-1-2-1.4-1.1-1.4-.2-2.2 1-2.4 2.2-2 .9-10.8 1.1-2 .8-1 1-3.8 1-2.2 1.8v17l1.9.5 6.1 2.4.2.7-2.2.7-1 1-1.4-.4-1.9.7-1.3-1-.4-.6v35.3h.5l.2-.5 1.4.2 1 2 2 .5v.2l-3.5.1-.8-.3-.8-1.1zm8.5-38.9l.8 1.7-.6.6-.5-1.8zm44.3-5.8l.7 1.3.1 1.4-1.2.3v1.4l-.8-.6-2.1 1.2-2.8.3-1.5.8-2.3-1.3-2.4.9.1-.7-.6-2.3 2.4-.8.4-1.1 2 .9.8-.6 3.3 2.4 1.6-.2 1.9-2.1-.2-.8zm-31.2 13.2l.3.2-.5 2.1-1.1.6zm32-19.9l-.4 1.1-.7.7h-.3l-1-1.9.8-.5h1.2zm-7.5-3l-.5-.6 2.6-.3.9-.5v.3l-.9.7-.8-.4zm-35.3 25.7l.4.2h-1.2l.2-.4zm-1.6.3l.6.2-.8.7-.4-.4zm-1 .2l-1.2.8-1.2-.1-.8-.6.3-.6-.1-1 .6-.1 1.2 1.5zm132-48.4l2.3-.4 2.8 1.5.2.8-2.3 1-1.8-.3-1-1.3zm-32.4-4l-1 1.4-.4.2-.5-.6.7-2 .5-.2zm-11.4-9.5l-.5 2.1-.7.6-1-.4-.2-.8-1.7-1v-1.7l-2.4-1-2-2.9-2.2-1.3.2-1.5 6.2 5.5 1.1.5 1.5-.2 1 .8zm-62.8-12.7l.5.8 2 .8.9 1.3 1 .4-.6.1v1l1 1.4v.6l-1.8-.7-.4-2.6-2.6-2-.4-1.1zm101.1 34l-.4-.9h1.1l1.4-.3 5 3.6 1.8 2 1.7 2.9 1.1 1 .6 2.1-1.5.1-.9-.5-.2-.4.8-1.2-1-1.2-1.4 1.4-.8.4-.8-.2.4-2-.3-1.9-2.7-1.6-2.2 1.4-.7 1.1-.4-.2-1.8-2.9zm-110.8 36.5l-1.6-1.2-.7-2.5.6-1.4 1.4-2.3-.4-.3h-1v-.6l.2-1h1l-.2-.4 1-1.8 2.3 1.2-.5 1.3 1.9-.4 1.3.2 1-.8.3-1.4-.7-.8-.4-1.4.4-1.6.7.5 1.2-.3 1.8-1.9-.8-3 .3-1.5-.5-1.2-1.8-2.3h-.9l-.3.8.7 1 1 3.1-2.6.3-1.5-4.5-1.2-1-.9.2.2.9.7.4-1 1.5 1.9 1 .1 2-.9-.3v-.5l-1.5-.4-1.3-2V221l.4-.9.9-1 1.7.5.6-2.3.6-.3.8 1.7 1-.3 1.2 1.6 1.6-.4.2-.9-1.3-3.1-1.8-2.2.9-1.6 2.2 1.6.7 2.3 3 2 1.5 1.6 2.4-.5 1-1.4h.8l.6-2.1h.7l-.6 2.7 2.4 1.3.9 2.7-.5.3-3 .3-1.2 1.5.7 1v.8l.9.7v.8l-.5.3-.2 3.5-.6 1.3.3 1.2-.7.1.5.5-.6.3-.3-.6-1.3-.7-.7.8-.6-.2v3.2l1.6 2.8-.2.9-1.9.3v1.3l3.7 2-.1.3-1.5-.7.2 1.3 1.1.9h-.9v-.6l-1.5.8-1.7-1.7-2-.7-1.4-1.5h-2.5l.1 2.2-.4.3-.6 3-.9 1.8h-.6l-.1.9-1.4.3v-.7l-1-1.6-1.3-.5zm-2-31.4h.3v.6h-.5zm0 0"/><path d="M379.7 558h279.1V279h-279zm0-279h279.1V174.6l-4.7 3.4-3.6 4-3.9 2.3-5.4 4.4-3.7-1-3.8-4.3-4.6-1.7-4.3.6-2.2-.3-.3-2.7-1.3-2-2.1.4-1.9 2-4.2.6-2.2 1.2-5.4.9-3.5 4.2-4.2 2-6.2 3.9-5 1.3-3.2 3.9-9.8 1.3-7.6 2.5-6.7 2.7-4.1 4-2.7 3.2-4.2 2.3-2.3 5.1-4.5 2.6-3.3.4-1.9 1.6-3 .5-2.4 2.5v4.4l-1.3 4-1.4.8 1.2 5.4-1.4 3.7-2 2v1.4l-1.7 3-.8 4.9h-2.5l-2.5 1-2.6-.5h-4l-7.2 2-7.8-.5-3.3.6-2-.2-4.9-1.5-1.4-.9h-3.3l-5.2-.7-9.4-2.3-.9-1.3-.5-2-1.2-1.2-3.3.6-1.6.9-1.6 1.7-1.5-.4-1.2-3.3-2.4-3-4-1.4-1.7-6.5-.4-.4-3.8 1.6-3.6-.5-1.7.6-1.1-.4-1-2-2.1.2-5.5 2.3-1-1.5-1.1-.7-3.5.2-3.1-.6-4-2.2.9-2.4-1-.7-1.6.5-3.3-4.7-.3-2.7-.7-.9-.8-3.3-2.1-3-.4-1.3.3-1.5-.8-1.7-1.5-1.6-.5-3.6.6-2.3-1-1.9-.1-2.2.3-1.7 3-3 2-1.2.7-1.9-.4-3.2 1.2-2.2 2.6-.4 8-6.4-3.6-.7.7-2 1.1-.7h1.2l.3-1.5-1.3-.9-.5-1.4-.4-3.4-2.4-.3-2.1-1.5-6.7.8-2.6-1.5H399l-3.8-1.4-3.8.4-6-1.3h-3.9l-1.8.2zM100.8 0h1.1l1.1-1.2h5.8l.7.9 3.3.3h94.5L221-3l4.2-1 3.4-2 3-.6 4.1.6 6.6-1.6 2.4-1.4h8l7.5.5 6.5-2.2 5.5 1.5 1.5 2.8 7.8.8 4 1.7 28 1.6 1.3-2.4.2-5.7 2.1-1.6 1.9-7.1 5-4.4-2.7-2.1-4.8-5.5-5.8-3.7v-1.8h-1.2l-1 1.1-2.4-.8-1.1.3-.8 1.6-1.4.6-1.9.2-.7-.6-.2-1h-1.4l-2.3-1.4-.9-2.6.5-3 3.7-3.4-.4-.5-2.2.4-.4-1 1-2.7 2.9-.6 1.7.8h1.4l.6-1.3v-1.1l-.9-.8-3 .8-1.3-.2-.5-.8-.3-2-1.2-.4-1 .4-1 .9v1.7l1.2 1.2v.8l-.8.7-2 1.1-1.6.3-1.3.9v1.2l.7.7-.2 2-1 .3-1-1.4-1 .4-1-1.2v-2.4l1-.4.5-3.7.7-.3.6-4.2.2-6 3-1.8 4-.4 1-1.4-1.1-.6.1-1.8h-2.4l-.3-1.6-1-1.5-2.3-1.6-3.2-.3-2.4.9-6.7.4-7.9-1.7-11.8 6.1-1.8 1.4-.8 1.6-.4 1.9-.6.6-.7-2.7-2.7-.6-3.2.8-6-.2-4.3 2-2.9.5-1.8-.7-2 .8-1.6 1.2-3.8.8-.1-1.8-.9-1.3-1.4 1-1.4-1-2.7 2-7.1 2.4-2.4-.2-4.4-2-7-5.2-1.8 1.7-1.8 4.4-3.3 5.5-2.7 2.4-4.7 3.2-.7-3.2-1.3-3.3-.7-5.3-4.7 2.7-1.6 3.9-5.2 4.4h-3l-1.2-3.4-3.1-.3-2.6 3.3-2.6.2-5.4 5.7-7.4 1.5-3.3 3-3.3 1.2-5.4 3.6-6.8 1.7-5.2-1.2-9.5.3-8.2-.7-2.7.7zm0 0"/><path d="M100.8 40.3l1.8-1.3 5.7-2 13.1-1.9 5.1-1.9 8.6-1.1 5.5.7 3.5-.4 5.9 1.4 6.4 4.8 3.4.3-.3 5.7 1.4 4.5 2.7 3.1 2.2 1 .7 3.4 4.2 4.4 2.9.5 1 1.5 2.8.5.9 1.6 6.7-.1 7 3 3.6-2.4 4.9 2.8 7.2-1.7 8.4 1 2.9 2 .4 1.6 8.4 4.9 2.8 4.4 4.2-.6 1.7 1.7 1 .3 2.5 2.4.6-.6.5.3v.9h.9l.3-.4 1 .7h.9l2 .9.7-.5 1.6-1.4v-1.5l-.9-.8v-1.8l1-1.6 3.1-.8 2-2.8 1.5-1.3 1.8-.5v-2l-.8-.7-.6-1.9-1.2-.9H253l-1-1.2h-2.2l-2.2 1.3-2.9-.4-2.4 1.2-.3-.6-1.2-.7-.8-4.3-.7-.7-1.3.4-1.5-1.5v-2.7l-1.5-.9-.8-1.6-1.7 1-1.8-.6-1.4 2-1.9-1.6-.4-2.5-1.7-2-2-1.5-.7-1.8-1.2-1-2.1-.6-2.6-1.4-2.7-.4-1.6 1.2-1.6.3v-2l-.6-.9-7.1-2.8-3.2 1.3-1.2 1.6h-.8l-.3-1.7-1-1.2-6-4.4-2.3-4.5.2-4.3-1.4-3.8-2.4-4-3.9-4.2-2.4-3.9v-2.2l1.9-2.3 12.2-3.5L205 1.5l1.9-1.3.9-.2h-95.2.2l.5 1 1.4.8 1.3 3.4 1.3 1.3-.3.7h-2.2l-.4.2-2.7-.1-3 .6-.7-1-1 .6-3.3-3.8-1.3-.2-.8-1.3-.8-.4v3.4l.7-.5.3 1 2-.3.2.8-1.2 1.6V10l-2-2.9zm0-39.6h.7l.5-.7h-1.2zm0 0"/></g></g><defs ><path id="B" d="M202.5 107.2l10.4-2-2.4 5.4-5.6 5.4.9 6.2 4.2 5.2-2.9 4.6 2.4 14.2-.2 2.8-.6 6 2 8.9 9.1 5.7 4.9 3.1h6.3l-.6 3.1 8.2-1.6 5.6-3.1 4.8-2.4 9.5 3.6 7.8-4.7 8.7-3.9 5-5.8 5.3-7.2 3.5-13 2.4-6.6 4.4 4.1 4.8 4.2 8.3-1 5.3-1.2-.2 5.7 17.2-5.4 14-10.2 5-13.7 17.3-22.9 29.3 30.3 10.5 6.4L425 165l-3.3 8.7-1.3 6.7-5.4 4.2-5.2 2.6-1.5 7.3-5 4.2.8 5.8v6l2.2 5.9 3 6.5 4.2 8.2 5.8 4.8 6.7.4h7.4l6 1.4 6.6-.7 3 6.6 5.2 3 3.8 5.2 5.3-2.8 3.6 3.5 9.6 2.8 8.5.7 6.3 2.4h8l12.4-2 6.5.6 5.8-5.9 2.6-5.5 1.8-7.8 2.1-7 2.5-7 8.2-2.3 6.8-7.8 6.9-5.6 10.8-6.6 7.6-2.4 9.9-1.4 8.1-5.2 6.2-4 7.7-6 7.6-2.2 6-2.6 3.9 4.3 6.4-.3 8.4 6 9.1-3.5 7.5-6.2 15.1-10.7 5.4-4.3 4.7-5 10-7.3L696 140l6.9-5.4-2.2-6.3-4.7-8.5 6.2-4 6.3-5.5 1.3-7.6 1-7-17.4-10.5-3.8-14.8 6.2-11.4 8.5-8.5 5.5-2.7 6.5-4.2 7.7-4.4 8-3.6-77-53-92.2 4.3-139.4-66.5-23.1-18.2-5.4 3.2-15.6 9.8-5 7.3-16.5 4.2-1.5 10.4-6.1 4.7-5.2 2.9 5.5 5.7L357-53l1.6 5.4.4 6.5-8.7-.2-3.3-2-5.6-2.5L334-47l-9.8-2.1-7.8 1.1-7.4 11.1.5.4 7 5.4 5 5.5-2.5 6.5-2 7-2.3 7.5-26.3.7 1 8.9-9.4-9-2 5-8.6.6-1.6-8.1-5.6-1.4-2.3 2.9-4.9-2.7-3.3 3.4-2.1 7.6-6.4 5.6-3.7-3.2-8-7.2-.6 6L228 11l-9.8 1.7-6.5-1.7-5.6 6.3 3 12.7 7.4 4.6 6.6 4.9-5.7 3.2 4 5.3 5.6 3.4 8.8-2.4 6.4 4.1-1.2 6.3 6 3.2 3.9-2.8 6.3 6.8V74l3 6.1-11.8-.7.3 7.7L242 90l-2.7-6.1-4.5-3.9-6.8-.4-5.7-2-3.3 2.8-7.3-3.1-1.4 7.2-1.4 7.3 1.5 1.2 1.6 6.3-9.3 4.2zm0 0"/><path id="C" d="M48 336.3l2.3 5.2 54.1 3-2.4-6.9.7-2.9L97 337l-.6-2.6 3.2.8-.6-4.4 4.9-3.8 3-.5-2.7-.7.9-6-2.3-5 3.5-3.7-2.5-6.6-3.4-5.5-6-1.1-2.7 6.1-.7-1.4.5-5.7-7-.7-2.5-3-4-9.6-4.4-4.6-6-.8-5.2-1.4-2.6 6-2.5 4.2-.5 1.6 3 5.1-.5 4.6 1.7 4-3.6-2.9-2.5-6.1-3.1-.6 2 5-2.3 5.3-1.2 7.5-.2 5.3-1.8 4.5.9 5-.9 9.5zm0 0"/></defs></svg>