<svg xmlns="http://www.w3.org/2000/svg" xmlns:xlink="http://www.w3.org/1999/xlink" viewBox="0 0 497 279" xmlns:v="https://vecta.io/nano"><style><![CDATA[.B{fill:#add19e}.C{fill:#c8d7ab}.D{fill:#f5e9c6}.E{stroke:#fff}.F{stroke:#8d618b}.G{fill:#cdebb0}]]></style><filter id="A" width="100%" height="100%" x="0%" y="0%"><feColorMatrix in="SourceGraphic" values="0 0 0 0 1 0 0 0 0 1 0 0 0 0 1 0 0 0 1 0"/></filter><mask id="B"><g filter="url(#A)"><path fill-opacity=".5" d="M0 0h497v279H0z"/></g></mask><clipPath id="C"><path d="M0 0h497v279H0z"/></clipPath><path fill="#f2efe9" d="M0 0h497v279H0z"/><g fill-rule="evenodd"><g class="B"><path d="M155.8 293.4h6.8l5.4.8 7 1 24.8 11.9v-26.6l-12.3-4.2 2.5 6-1.3-3-4-4-5.1-7.9-4.6-1-5.2 7.1-.6 4.5.4 3.5-4.5 5.3-6 5zm8-2l.4.7-.4-.5zm1.5-2.2l2.1-.5-1.8.5zm3.4-1.3h2l.6 1.9-2.5-2zm.7-7v-.9l.4 1zm.8-5.9l1.7.4h-1.7zm1 7.8h1.2zm.2 2l.3 1.2-.2-1zm.4 3.6l.2-.3-.1.2zm.2-2.1v.3zm.8-11l1-.4-1.1 1.2zm1.2 7.7h.1zm.8 1v-.4zm0-5.6h.2zm.7 3.2h1.8zm-.1-2.6l1.1.5-1-.5zm3.9.4v.1zm.7-3.2l.2.6-.2-.3zm.2 4h.5zm1-.3h.2zm.6-3.4h.3l-.2.3zm.6.5l.6 1.7zm2.2 7.9v.1zm3.1 1.5h.3zm3.1-1.1v.1zm232.8-53.9l4.7 2.3 2-3.7v-5.3l-2.9 2-.8 5.3-.3-4.5-2.2 2.6zM360 215l2.4 4.5 1.3-4.3 4-2.3-2 1.2-1.1-1.8-1.6 1.9-1.4-1.2-.4 2.1-1.2-.3zm-148 60.2l4.7 2.2-.8-3-.6 3.3-1.6-1.7 1-.7-2.3-.6zm149.7-44.7l2.3 1.3 4-.5-2.3-1.3-3.3.3h-.6zm-6.4-7.3l3 2.2.4-2.1-.7-2.6-2 2-.7.3zm0 0"/><path d="M356.7 215.2l3 4.6.9-4.2-3.9-.5zm-6 14.3l1.7 2 2.6-.7-1-3-1.7-.3-1.6 1zm-15.1-1.3l2.3.9 1.4 1.4.7-2.5.5-1.2-4 .4zm30-.6l2.8-.4-.8-4.3-1.6.6.6 2.5-1 1.5zm0 0"/><path d="M350.7 227.6l3.8-1.2-.3 3.5.9-3.9-3.7-.7-.7 1.2zm6.3 10.1l1.3 2.7 3.9 2.1-3-2-.2-3.9-1.9 1zm2.3-16.7l1 3.3.7 4 .3-3.3-1-3.8-.7-.2zM348 232.1l2.8-.6-2.3.3zM67.5 134.9l2.4 3.6-.4-2.5-.3-2.2-1.7 1zm2.3 3.1l.1-.2v.3zm0 .3l.8-.3zm.8-.9h.2v.2h-.3zm281.8 96.2l2.8.6.9-2-1.5-1-2 2.2zM67.6 171l1.9.6 2.2.4-1.2-2.7-2.7 1.2zm1.1 1.6h-.2zm299.2 47.7l3 1.7.7-.6-2.1-1.2-1.5.1zm0 0"/><path d="M350.1 234.2l2.6.9V234l-.7-1.4-1.7 1.5zm-19.4-53.9l2.5.2-.2-2-1.3 1.6h-1zm30.6 55.3l3.5.7-1.4-2.2-1.9 1.3zM345 210.8l1.3 1.9h1.4l-1.7-2h-.9zm14.6 20.6l3 2-3-2.1zm-183.8 23.2l2.8-.6-2.6.4zM357 213.5l2 .5-1-2.3-.7.3zM-2 214l1.7 1 .4-.9.4-2.2.5-.3-2 .7-1 1.5zm.3-.5l.3-.4-.3.6zm.7.1v-.3zm368 7.7l2.2 2.2-2-2.2zM69.8 139.2l2 2.1 1.2-.8zm1.2 1.2l.2.1zm1.1 1.1h.4-.3zm.1-.6l1.2.6-1-.4h-.2v-.1zm328.2 49.3l2.9 3-1.8-3.4-1 .4zm-136 84.5l1.6-.2-1.6-.7zm74.1-43.3l2.8.3-2.7-.5zm.4 3l2.5 1-.4-2.1-2 1zm2.7-6.1l1.6 1.4-1.6-1.5zm14.4-20.9l1.5 1.3.9-2.7-1.9 1.3zm8.8 27.4l1.4 1.5-.2-2zm0 0"/><path d="M-2.4 215.5l1.1 1 1.9.1v-.9l-1.1-1.1-1.8.8zm.3-.2l.1-.3v.3zm.1-.7h.3zm.3.4v.1zm0 .4h.2zm.2.6h.2zm.5-1v-.2zm0 .4h.4zm0 .3h.3zm0-.2"/></g><path d="M62.6 60.2L64 58l-1.4 2zm0 0" class="D"/><path d="M305.2 174.7l1.4.9 1-1-1-1.2-1.1 1.5zM65.3 136.9l2.3-1.2-1-.2v.7l-1.4.6zM1.3 194l2.3.8zm1.1 1.5h.1zm173.1 60.7l.3-1.5zM345 223.6l3 2.7-1.5-3-1.5.2zM-.5 269.4l1.5-.5-1.5.4zm65.2-129.3l2.3-.9-1.6.8zm.3 0v.2zm.7-1.1l.3-.1-.2.2zm.9 6.7l1.1.7h1v-.7l-1.2-1zm1.8 1.1h.3zm280.8 82.5l.6-1.7-.5 1.7zm5.6 6l.6-.2zm0 0" class="B"/><path fill="#d6d99f" d="M214.6 277.5l1.9-2-1.9 1.9zm0 0"/><g class="B"><path d="M356.2 219.7l.5-1.1-.4 1zM72.8 126.4l2.5-2.7-1.8 1.4-.7 1.2zm-2.6 19.8l1 1 .9-1.2h-1.9zm.9.8v.1zm-2.5-2.4l.5 1.3.7-1.8-.3-.3zm.4 1.7l.6-.5-.5.5zm.6-2l.2.2zm-10-20.9l1.4-1.7-1.4 1.6zM.5 114.5l2.1-1.3-2 1.3zm359.2 91.1l2.6.6-1.3-1h-1zM-2.2 278.4l2.1 1.7-.3-.6-.3-1.7zm1-.5h.2zm.3 1.1h.2zm.7.7H0zm.3 0h.2zm3.6-53.6l2.3-2-.6 1.1-1.7 1zm355.6-3.2l1.4 5.9-1.4-6zm6.3 6.7l.1-.5v.4zM70.8 141.9l1.2.1zm.7.9h.2zm.6-.2v.2zm-73 125.6l.9-.2h-1zm344.3-37.8l1.1-1.6-1 1.3zm-.9 4.4l.2-.2h-.2zM3 225h1.3-1.4zm60.8-85.3l1.8 1.8zm1.1 1.9h.2-.1zm-1.4-6.9l.8 1-.6-1.3zm303 98l1.8-.7-1.8.6zm0 0"/><path d="M69 148l.7-.3.9-.3v-1L69 148h-.1zm6.3 4.7l1-.7-1 .4zM175.5 279v-.1zM69.6 150.6l2.2-1.2-.6.8zm-.2-14l2 1.8-1.5-2.4-.5.5zm1.4 1.9l.5-.3h-.5zm3.6-8.3l2.8-1.2-2.8 1zm-10.8 10.2l2 1.6-1.9-1.6zm.4 1h.6zm291.7 79l1.3-.2-1.3.1zM64.2 139.1l.5-1.6-.4.9zm-64.6 49l.2.2-.3-.1zm66.8-50v-.1zm3.1-4.3l.5.5zm269.6 91.6h.5l-.3-.1zM4.5 232.8l.2-1.6-.2 1.5zm65.2-117.4l1.3-1zm108.1 163.9h.2zm-178-78.7l1.6.4zm355.8 18v-.2zM.8 199l.4.6H2l-.4-1.1-.8.4zm.8 0"/></g><path d="M73.2 138.5l1.3.3-1.2-.3zm0 0" class="G"/><path d="M72.6 152.3l1.9-.7-1.8.7zM1 202l.1-.2v.1zm1-4.9l.4-.6-.3.5zM347.8 234v-.2zM68.6 114.5l1.2-2zm1.4-1.7v.2zM1.8 201.6l1.2-.5v-.1l-.2.4zM72 149.4l1.5-1.1-1.5 1zM348.7 235v-.2zm-166.3 42h.4zM3.1 226.3l1.9 2zM74 166.1l.7-2.6-.7 2.5zM217.6 277l1-1.3-.9 1.3zm130.7-41v-.2zM-1 203l.4.8zm65.2-63.6l1-.4zm1-.3v.3zm294.6 91.7l.1-.6zM-.6 205.3l.6-.5zm0 0" class="B"/><path d="M359.6 231l2.2.1v-.2h-2.1zm0 0" class="C"/><path d="M67.3 157.3l1.5.2zM64.4 137v-.2zm11.1 13.6l1.4-1-1.4 1.1zM4 238l.6-1.4-.3.9zm-2.7-7.4l1.3-.3-1.3.2zm72.4-70.1h.9l-.8-.1zm263.6 65.2v-.1zM-1.4 211.8v-.2zm0 0" class="B"/><path d="M358.5 219.8l1.7 1.7-1.6-1.8zm0 0" class="C"/><path d="M69.4 131.2l.2-.2zm.9-.7h.1zm-70.4 144l.1-.5v.4zm0-.2H1zM358.4 209v-.2zm-13.8 24.5h.1zM67.9 147l1 1 .2-1.5zm1.1-30.5l.6-1zm-11 5.1l.2-.3zm13 24.1l.3-.2zm.3-.4" class="B"/><path d="M351.6 236.1l.8-.1h-.4zm0 0" class="C"/><path d="M71.6 143.7h.7zm.4.4" class="B"/><path d="M358.8 220.3l.6 2.1-.6-2.3zm0 0" class="C"/><path d="M62.9 138.7h.6zM-.6 273l.1.5.2-.9-.2.3zm.1 0v.2zm.1.1h.1zm0 .4h.1zm.1-.5h.1zm.1.2h.1zm.2 0" class="B"/><path d="M346.1 236.2l1-.6-.8.4zm0 0" class="C"/><path d="M70.3 131.7v-.2zm3.2 33.2l.4-1.1-.4 1zm-6.6-15.1l.8 1.6-.4-1.3-.3-.3zm5.6-20.2l.2-.3-.2.2zm-73 70.6l.4-.8zm0 0" class="B"/><path d="M359.4 224l.4 2-.2-2zm0 0" class="C"/><path d="M76.1 151l.7-.3-.8.3zm-5.2-16.5v-.2zm-3 14.5h.6l-.5-.2zm267.8 77.2v-.2zM66.6 153l.4 1.2zm108.3 125.5v-.5zM71.3 163.3l.7 1.5zm.6.9h.3-.2zM-.9 271.4h.1zm0 0" class="B"/><path d="M357.7 218.1l.8.7zm-15.4 16.7l1.3.6-1.1-.6zm0 0" class="C"/><path d="M347.1 235.8v-.2zM1 170l.4-.2-.3.1zm67-15.6h.7zm4.2 5.3l.4-1zM61.8 97.2l.8.5zm302.9 114.1v-.1zM0 274.8l.2.7zm68.6-150.7h.1zm4.4 26.2h.7-.6zm284.7 58.4l.3-1zM180 276.2v-.2zm170.7-43.5v-1zM60.2 123.8l.3-.5zm14.4 26l.7-.5zm-3.8-37.3h.2m-6.6 24.7h.6zM264 254.6h.2zm78-23.6v-.1zM69.3 133v.2zm285.8 94.7v-.3zm-279.9-73v-.2zM0 196.8l.6-.8-.6.7zM72 142h.2zm.7.8h.2zM280 214.3v-.1zM.5 279H1zm346.6-42.9v-.1zM73.8 153.2v-.4zm-6.3-3.2l.3-.6-.3.5zm-68 47.7l.5-.3-.5.2zM345.4 221v-.1zM68.3 143v-.2zm0 0" class="B"/><path d="M14.2 219.6l.8 1.3zm0 0" class="D"/><path d="M-.3 274.2l.2.7zm2.4-74.5h.5zm0 0" class="B"/><path d="M15.4 225.9l1.2-1.7-1.1 1.7zm0 0" class="D"/><path d="M359 223.7h.3zm-177.3 52.8h.3zM70 133.4h.2zm-7 2.7l.5.1zM1.9 278.9H2m6-43.6h.2zm59.8-70.4v-.1zM.7 199.1l.3.2zm0 0" class="B"/><path d="M-1 271h.2zm360.5-40.2v-.1zm0 0" class="C"/><path d="M69.7 151.9l1.5-.7-1.5.6zm-4.9-2.2l.2-.3zm7.3 19.5h.1zm264.6 55.9v-.1zm21.6-16.5l.2-.7zM341 230.4v-.1zm3.3 2h.1zm17.7-25.6v-.1zM60.2 124.4l.6.4zM1.3 192v-.3zM367 212v-.1zm0 0" class="B"/><path d="M12.2 218.5l.7.2zm4.4 5.3l2.5-.2-2.5.1zm2.4 0h.2zm0 0" class="D"/><path d="M77.1 152.8h.1zm280 58.5l.1-.5zm-14.6 21.1h.1zM-.2 278.7v-.2zm0 0v.2zm.2.3h.1zm342.7-53.8v-.2zm17.7 3.8h.3zM74.1 153.3v-.2zM.4 224h.1zm354.2-1.7v-.3zm-8.4 13.7h.8zM68.4 150.3v-.1zm296.1 84.5h.1zm-18.3 1.1v-.1zm.2-.3l.2-.2zM-.3 277.4v.2zm0 .1v.2zm.1.5H0zm.2 0v.3zm0 .3v.1zm7.3-42.6v-.1zm341.5-8.9v-.2zm-.8-12.4v-.1zM70.3 163.6l.3-.1h-.3zm274.9 57.9v-.1zm21.4-14.5v-.3zM4.1 228.1h.1zm338.6-10.8v-.1zm0 0" class="B"/><path d="M74 154.4l.2-.4zm0 0" class="G"/><path d="M354.6 235h.2zm0 0" class="C"/><path d="M360.1 229.3v-.1zM62.6 125.7l.2-.2zm0 0" class="B"/><path d="M10.2 216h.2zm0 0" class="D"/><path d="M281 213.3v-.4zm0 0" class="B"/><path d="M23 225.8h.3zm0 0" class="D"/><path d="M69 145.3v.2zm.2.1h.2zm-5.8-9.2l.1-.2zm300.3 97.6v-.1zm-356.4.3h.1zm352-7.7v-.1zM72.3 129v-.6zm335.1 67.8v-.1zM69.7 153v-.2zM57 122.7h.2zm298.7 112.2l.5-.2zm0 0" class="B"/><path d="M68 158.5v-.1zm0 0" class="D"/><path d="M357.6 218l.1-.4zM75 153v-.3zm0 0" class="B"/><path d="M358.8 227.6v-.1zm0 0" class="C"/><path d="M337.6 226.7v-.1zm23.6 3.1h.3zm4 6.7l.2-.3zm-14.5-5.1v-.4zm0 0" class="B"/><path d="M73.3 138.3v-.1zm.3 0" class="G"/><path d="M356 208.3h.2zM5 229.4h.2zm0 5.2h.2zm-4.6 44h.2zm.3.1v.1zm63.4-139v-.1zm284 95.3l.1-.1zm-277-103.6v-.5zm-6.8 6.6v-.1zM363 206h.2zm-1.7 6.7v-.1zm-20 20.5v-.2zm16.2 1.5l1 .3-.9-.5zM344 215.5v-.1zm-3.7 17.7v-.2zm18.7-26.9v-.1zM67 155.9v-.1zm277.7 65.8v-.1zM74 166.5h.2zm291.8 44.7v-.2zm-7.2-4.9l.3-.3zm-13.7 9.6v-.1zm10.2 4.5v-.1zM68.4 149.7v-.1zm2.8-20.2v-.1zM-.6 272.8h.2zm345.5-51.4v-.1zm-2.8 11.3v-.1zm24.5-20.9v-.1zm-7.6 15.4h.3zM69.3 156.4v-.1zm272.1 60.2l.1-.1zm-5.8 8.1v-.1zm7.3-8.5v-.2zM72.3 128v-.2zM-.5 192.4v-.2zM344.3 222l.1-.3zm19.7-10v-.3zm-9.3 23.2h.7v-.2zM72.5 128v-.3zM66 151h.2zm-1 1.5h.2zm294.3 74.6h.1zm-10.9 7.7l.3-.2zm-5.1-17.3v-.1zm-270.6-74v-.1zM351 233l.2-.1zm-12.4-7.7v-.3zm-2.1.9h.1zm26-18.2v-.2zm-4.7 2.6v-.1zm0 0" class="B"/><path d="M14 222h.2zm0 0" class="D"/><path d="M74.3 163.5v-.1zm289.8 48.2v-.1zm-294-69.3v-.2zm0 0" class="B"/><path d="M348.2 234.8l.3-.1zm0 0" class="C"/><path d="M0 276.7h.2zM368 206v-.2zm-23.7 30h.1zm0 0" class="B"/><path d="M10.8 213.4h.2zm0 0" class="D"/><path d="M339.2 231.2v-.2zM0 192h.2zm65.5-40v-.2zM2.8 202v-.2zm0 0" class="B"/><path d="M74.6 139h.1zm.8-1h.3zm0 0" class="G"/><path d="M72 129.7v-.1zM355.8 220v-.2zm-13.6 5.9v-.1zm0 0" class="B"/><path d="M342.5 235l.2.3v-.3zm0 0" class="C"/><path d="M.3 198v-.1zm281.3 13.4l.1-.2zm60.9 22.9v-.1zm.5-16.4v-.1zm25-11.1v-.1zM340.8 227v-.2zM71.2 130.1v-.1zM343 218.3l.1.1zM1.2 279v-.2zm336.9-53.6v-.1zM70.8 128v-.2zM365 208.9l.2-.1zM1 193.8h.2zM5 230v-.2zm61.6-77v-.2zm5.4 18.7v-.1zM2.3 193.5h.1zm69.2-42.6h.1zm-5.5.1v-.2zm6.5-22.5v-.1zm209.2 83.3v-.1zM69 154h.1zm267.5 73v-.1zM65.7 141.4l.3-.2zM7.4 233.3l.1-.1zm0 0" class="B"/><g fill="#aad3df"><path d="M146.9 223.8v.4l.1.2.2.2.1.2.1.2.2.2v.2l.3.1v.5l.1.1v.3h-.8l-.2.1v.3h.8l.2.2h.3v.2h.2v.1l.2.2v.7h.2v.6l.1.2.2.2.2.1.1.3.3.1.2.3h.4l.6.3v.1h.3l.2.2h.5l.3.2h.4l.2.1.1.1v.2h.1l.2.3h.8l.4-.3h.6l.2.2.2.1.5.2.3.3.1.3.2.2-.2.2-.1.3h-.3v1.6h-1.4v.3h-.1l-.3.1h-.4l-.1-.1v-.1l-.3-.2v-.1l-.1-.1h-.5l-.1.1v.2l-.1.1-.1.2v.1l-.2.2v.4h.2v.3h.4v.2h.3-.2l-.2.1h-1.2l-.2-.3h-.6l-.4.2-.1.2-.3.1v.3l-.4.2v.5l.3.1h.1l.1.3h.1l.3.1h.2l.3.2h.4l.1.1v.7h.2v.1h.7l.2-.3h.2l.1-.1h.1l.2.3.1.1.2.2h.3v.3h.2l.2.1.2.1.3.2h.3l.2.3.1.1v.4l.4.2.3.1.1.1.1.1.2.1.2.1h.4l.2.2h.5l.1.1.2.2h1.4l.4-.2.4-.2.2-.1.4-.2.2-.3.2-.2v-.2l.3-.1-.3-.1h-.3l-.2-.3-.1-.3v-.3h-.2v-.4h-.1v-.1l-.1-.1-.2-.2v-.4l-.2-.3v-.6l.2-.1v-.2h.2v-.6h.1v-.1h.1v-.3h.1v-.3l.2-.1v-1.1h-.3v-.4h.3v-.2h.1v-.3h.2v-.1h.2v-.1h1.1v-.1h.3v-.1h.2v-.3h.4v-.2l.2-.1v-.2h.1l.2-.1v-.2h.2v-.2l.1-.2v-1.1l-.2-.2v-.6l-.2-.2-.1-.2-.1-.2v-.1h-.3v-.2h-.1v-.2h-.1v-.1h-.3l-.1-.1h-.5v-.1h-.2v-.2h-.1v-.1h-.3v-.1h-.1v-.9h-.1v-.5h-.2v-.7h-.1v.3h-.2v.7h.3l-.3.2v.2h-.1v.1h.4v.3h-.4v.1l-.1.1v.4h-.1v.1h-.1v.2h-.1v.1h-.1v.1l-.1.1v.3h-.7v-.3h-.1v-.4h-.1l-.1-.2v-1l.2-.1h.1v-.3h.1v-.3h.1l.1-.1v-.8h.9l.1-.1h.1v-.3l.1-.2v-.2h.5v-.2h.1v-.1h.1v-.2h.1v-.1h.2v-.1h.2v-.1h.2v-.1h.5v-.1h.6v-.3h.6v-.1h.1v-.1h.2v-.1h.6v.5h-.5v-.3h-.2v.3h-.4v.1h.3v.2h.2v.1h.1v.1h.1v.2h.1v.2l-.3.1h-.1v.1h-.1v-.2h-.5l-.1.2h-.1v.4h-.3v.1h-.3v.1l-.1.2v.3h.4v.4h-.4v1h.3v.1h.1v.1h.2v.3h.2v.1h.1v.2h.2l.1.1.2.1.1.1h.9l.2.1h.1v-.4h.2v-.4h.3v-.1h.2v-.2h.2v.3l.2.1h-.3l-.1.3h-.1v.1h-.2v.3h.3v.1h.5v.2h.7v-.6h-.2v-.2l-.2-.2h-.1v-.2l.3-.1v-.1h.2v-.4h-.2v-.2h-.2v-.1l-.1-.1v-.7l-.1-.1h-.3v.3h-1v.2h-.2v-.4l.3-.1h.2v-.6h.1v-.3h.4v-.1h.9v-.2h.3l.1-.1h.1v-.4h.3v-.3l.1-.2v-.3l-.3-.2v-.3h-.3l-.1-.3-.2-.1h-.3l-.2-.3h-.2l.2.2v.3h-.2v-.3h-.1v-.2h-.2v.9h.5v.2h.2v.1h-.4v.3-.2l-.1-.1-.2-.1v-.3h-.2v-.4l-.2-.1v-.4l-.2-.2h-1l-.4.3-.2.1h-.1l-.1.2v.5l-.1.2h-.5v.1h-.2v-.3l-.3-.1h-.9l-.2.3-.1.1-.3.2v.4h-.6v-.1h-.6l-.2.3h-.1l-.2.1-.3.2v.1h-.6v-.3l-.2-.1-.1-.2h-.6v-.4l-.3-.1v-.1l-.1-.2h.3v-.8h-.4l-.1-.2v-.2l-.2.1-.2.1-.1.2v.5h-.1l-.3-.3v-1.8l-.2-.1v-.2h-.1v-.3h-.2l-.1-.2h-.4v.2l-.3.2v.1l-.1.1-.2.2-.3.2h-.1v.3h-.4l-.1.2v-.2l-.3-.1h-.2l-.4-.2H150l-.2.1-.3.2-.4.1-.1.2h-.4l-.6.4h-.3l-.2.4-.3.3-.2.3v.4l-.2.2zm148.4-4.3v.3l.2.2v.2l.2.1v1.2l.2.1-.2.3v.4l.3.3.2.3.4.1.4.5.7.4h.7l.3.5h.5l.6.2v-.1h.2l.1.3.2.1h2.3v-.4h.8l.3-.3.8-.3.1-.3h.4v-.1l.6-.6.2-.5.2-.2.7-1v-.2l.5-.8v-.6l.4-.9v-1.5l-.4-.1v-.6l-.1-.4-.1-.1-.3-.8h-.1l-.6-.7-.5-.5h.1-.3v-.3h-.3l.2.3h-.2l-.5-.6h-.5l-.9-.3h-.5l-1.1-.1-1.3.1-1 .4h-.2l-.5.5h-.2l-.4.3h-.1l-.5.4v.1h-.3v.4l-.4.3-.3.4v.3l-.6.8-.1.5v1l-.2.2v.5zM487 169.3v2.4h.2v.4l.1.4h.1v.2h-.1v.2h.2l.1.1-.2.1v.1h.2l.1-.2h.1l.2.5.3.1.3.4v.2l.4.3v.3l.3.4v.1h-.3l.5.5v.1h.1v.1l.1.7.3.7v.2h.3v.4h.3l.2.3v.1h.2v.6l.2.2h.6v.2l.2.1v.2l.2.3h.5l.5.5.7-.2v.1l.4.2v.2h.1v.2l.3.3.9 1 .4.1h1l.1.3.1-.2-.2-.5v-.2l.2-.2v-.4l-.2-.2.1-.5-.3-.5v-.4l.2.2.3.3h.5l-.3.2-.3-.2.1.3h.7v-.3l.1.2v.7l-.3.3v.7h-.3.5l.2.6v-.2h.4v-1 .1l-.2.1v.3l-.3.1v-.6l.2-.3-.1-.5h.3v-.2h.2v-.1h.1v-.1.4l.2.3v.1l.5.2v.1l.3.4v.5h-.2v.2l-.2.2v.3l.6.2h.6v-.1l.4-.3h.2v.3l.1.2h.5l.3-.3v-.6h-.4.1v-.2h-.4v.3h.1-.5v-.2h-.3v.2h.2l-.1.3-.3.1h-.3.2l.4-.4v-.1l.2-.3v-.1l-.2-.2-.2-.4h-.2v-.2h-.6l-.8-.4v-.3h.3v-.5l-.4-.3v-1.1l.2-.5v-.5l-.5-.2-.9-.3h-.1l-.3.3-.3.2-.5.5v-.5l-.2-.5.2-.1v-.6l-.3-.3v-.3h.1v.3h.4v-1l-.1-.1h-.6l-.2-.1v-.2l-.1-.4-.2-.2-.1-.2-.2-.6v-.2l-.4-.4v-.1l-.2-.5-.4-.6h-.1v-.4h-.1v-.6l-.3-.1-.2-.5-.5-.2-.3-.5-.2-.1v-.2l-.3-.3-.6-.5-.3-.3v-.5l.2-.2h-.2l-.1-.3v-.3l-.2-.4v-.3l.2-.1.1-.2h-.4l-.5.2-.4.2-.7.1-.8.5v.1l-.2.2-.3.3v.2l-.3.2-.2.5-.1.1v.6l-.4.2v.2zm-291.8 43.6v.1h.3l.3-.1.2.2v.2l.1.3v.4l.2.4.4.3.5.1v.2H196v.4h.2l.5.1.1.5.2.1v.2l.2.2-.1.1-.1.4v.4l-.3.1v.1h-.2l-.1-.1h-.4v1.1h.1l.3.3.3.1h.3l.2.2h.3l.3-.2h.2l.2.2.2.3v.3l.3.1v.1h.3l.4.1h.6l.3-.1h1.7l.4-.4.3-.1.3-.3v-.4l.4-.2.3-.3.2-.3.4-.3.3-.4.1-.5.4-.6v-.7l-.1-.2v-3.2l-.2-.1v-.5l-.2-.2v-.5l-.3-.3-.6-.5-.1-.2-.6-.4v-.2l-.4-.2h-.3l-.3-.4h-.4l-.3-.4h-.6l-.2-.2h-.5v.4h-.4l-.3.2-.2.1h-.2l-.3.3-.6.2-.1.3v.8h-.7l-.2.3h.3l.1.3v.1l-.1.2-.3.2v.6l-.2.2-.1.3v.1l-.3.1v-.5h-.1v-.5h-.3v.3l-.2.3v.5h-.4zM79.5 197.7v.3l.2.2h.1v.1l.2.1h.6l.1.2v.1h-.3v.1h-.2v.2h-.1v.3H80v.7h.4v.1h.1v.2h.1v.3h.1v.1l.1.1v.1l.2.1v1.3h-.4v.1h.3l.1.1v.1l.2.2h.3l.3.2h1l.4-.4v-.1l.2-.1.1-.1h.1v-.2h.1v-.1l.3-.1.1-.1v-.6h.2v-.5l.1-.2v-.1h.1v-1l-.3-.1v-.2h-.1v-.1H84v-.3l-.3-.1v-.3h.2v-.1h-.5v.4h-.2v-.3H83v-.1h-.4v-.1h-1l-.2.4h-.1v-.3H81v-.2h-.2l-.2-.2v-.2h-.5v-.5h.4v-.1h.5l.3.7h.7l.2.3.4-.3h.3v-.1h-.2l-.4-.4h.3v-.2h-.4v-.7h.4v-.2h.1l.3.4v.1h.1l.3.2.2-.4h-.5v-.3H83v-.3l.8-.2v.1l.2.1v-.4h.9l.1-.1h.3l.2.3h.5v.1h.4v.2h.1v.3h-.3v-.3h-.5v.1l.3.2v.3l.2.2h.3l.2-.3v-.2h-.1v-.6h-.2l-.1-.2.1-.2h.3l.2-.2.3-.1h.3v.1l.1.2h.4v-.4l-.3-.1.1-.2.2-.1h.4l.3.1.1.1.2.1v.4-.4l-.2-.7v-.1h-.1l-.1-.1H88v.2h.7-.6l-.4-.2v-.2h.3v-.2l-.1-.2-.3-.2-.1-.3-.3-.1-.2-.6v-.1l-.3-.2-.2-.1v-.3h.5v-.3h-1l-.5-.3 1.1-.6.4-.6h.9l.3-.3.3-.2v-.1h-.3l-.2.1h-.4l-.2-.2-.1-.3-.3-.4.4-.4v-.2h.9v.1H88v.2h.2l.3-.1v-.4h-.6l-.2-.1.1-.5v-.4l-.3-.3-.5-.3-1-.3h-1.1l-.3-.4-.2-.2-.2.1H83l-.3.7-.6.3-.3.4.2.8.4.5-.2 1-.2 1.2.1.7.3.9 1 .4-.4.2-.2.1v.7h-.6v.2h-.1l-.1.2h.4l.4.4-.2.3h-.8l-.8.2-.3.5-.7.6-.1.2v.6l.2.6.3.2v.2h-.6l-.1.2h-.1v.1h-.1v.3h-.1v.1zM13.6 284l.4.6.6.4h.7l.3.5.8.4.6.7h.4l.2.4.6.2.8.8.5.2.3.4h.6l1.1-.3 1 .2.5-.3.5-1v-.4l-.1-.1-.6-.1-.6-.6h-.1l-.1-.1-.5-.6-.3-.4-.5-.5-.5-.4-.2.2h-.2l-.2.2-.2-.1v-.3h.2l.1-.5-.3-.1-.1.2H19v-.4h.4l.1.2.3.2.4.1v.1l.3.4.2.2.5.4.3.4.4.6.2.2h.3l.2.4h.7l.2.2v-.3h.2l.1-.8.7-.7v-.8l-.2-.5-.6-.7-.5-.5-.8-.6-.4-.3-.7-.7-1.5-.7-.7-.4-.5-.3-.4-.5-.7-.4h-.6l-1.2-.3-.7.2-.7.8-.3.9v.6l.4.9.2.5h-.4l-.3.6-.2.9zm-22-227.6h.7v.3l.1.2v.5l.1.2v.1h.1v.2h.1v.1h.2v.2h.1v.1l.2.2.2.1v.1h.2v.1h.4l.1.1h.9v.1h1v.2h1v.1h1.2V59h.4l.2-.2H0l.2-.1h.3l.1-.1h.6l.2-.2.3-.1h.2l.3-.2h.1l.1-.1h.2l.1-.2.3-.1v-.1h.1l.2-.1v-.1l.3-.1V57h.2v-.4l.2-.4v-1.1l-.2-.1-.1-.3h-.1v-.1l-.1-.2h-.1v-.2h-.2v-.1H3V54h.3v.2h.5V54l.2-.1v-.2l-.2-.2-.1-.1-.2-.1h-.3v.1l-.2.2v.3h-.2l-.3-.3-.2-.1h-.1v-.2H2l-.2-.3-.2-.1-.2-.1H.5l-.3-.1H0v-.3h-.3l-.2-.1-.3-.3-.2-.2-.3-.1-.3-.2-.4-.1h-1.6l-.1.3h-.4l-.3.1-.3.1-.2.2-.3.2-.2.3-.1.2-.2.2-.5.3-.3.3-.2.3-.1.1-.1.4H-7v.2h-.3v.4h-.1v.2h-.1v.7h-.1v.3l-.1-.2v-.2h-.2v.4H-8v.1h-.4zM13.8 111l.3.4h.1l.3.3v.3l.2.4-.3.3h.5l-.2.3v.2l.3.1.1.1v.4l.1.4.2.5h.2l.2.3.2.3v.3l.3.1h.2l.3.3h.7l.3-.1h.4l.2.1.4.1.6.1h.6l.5-.2h.8l.6-.1h.4l.1-.2h.9l.2-.2.4-.1.1-.1.4-.3.1-.1.1-.2v-.4l.2-.2v-.3l.2-.2v-.5l.2-.4v-1.6l-.3-.1h-.2l-.1-.2-.1-.2-.2-.1-.1-.2v-.3l-.2-.2-.2-.1-.3-.2H23l-.4-.2h-.7l-.5-.2H20l-.3-.1-.1-.1h-.3l-.1-.1-.2-.1-.2-.1H18l-.4.2-.2.1H17v.1h-.1l-.2-.2-.1-.1h-.2l-.2-.3h-.6l-.1.5v.1l.2.3.2.2v.7l-.3.1-.1.1-.3.2H15l-.2-.3H14v.4zM86 150.6v1.4l1.3 1 .7.2.6.1v.7l.2.3.4.4.8.3h.8l.6-.3.2-.3.1-1 .6-1.1.4-.3.3-.3v-1l.5.1v.5l.2.1.2-.4v-1.7l-.5-1.2-.3-.7-.1-.4v-.2h-.5v-.3h-.1l-.4-.3h-.1l-.6-.3-.5-.1h-.3.4l.3-.3h.3v-.1h.1l.1-.1h.1l.2-.3h.2v-.5l-.2-.3-.1-.2v-1.4l.3-.1h.2l.1-.2h-.9l-.2.2-.4.2v-.2h-.3v-.2h-.6v.2l-.1.1-.5.2-.2.2-.1.4v.3l-.1 1.3h-.6.3v-.7h.2v-.7h-.2v-.4h-.2v-.2h-.3l-.2.5v.1l-.2.8.2.9-.3.2v.8l-.6.2-.2.5v.5l-.4.5-.2.6-.4.6v.8zm3-5v-.3h.4v.2h.1l.2.1.3.1.1.1h.3-.6l-.1.1h-.6v-.2H89zM13 94.3v.3l.1.2v.2l.1.3.1.1.3.4v.2h.3l.1.2.4.1v.7l.6.4.7.1h1l.3-.1h.6l.5.3h1.4l.7-.4h.2l1.1-.3.7-.3.5-.7.2-.2v-1.3l-.2-.5-.3-.2-.5-.4h-.2l-.1.2.2-.4-.2-.2H21v-.4h.2v-.4L21 92h.3v-.3h-.7v.3h-.7.2l.3-.2v-.3l.2-.1v-.2l.4-.2h.2l-.5-.2-.4.3-.2.2v-.8h-.6v-.3h-.3V90l-.2-.4-.1-.1-.4-.2H18l-.6.3-.4.2h-.5l.2-.2v-.3h.1V89h.2v.2l.3.1h.5l.5-.2V89h-.6v-.8h-.6V88l-.2.2-.1.2v.2l-.3-.2-.3.4v.2H16l-.3.2-.1.1-.2-.2-.3-.2H15l.1.3v.5h.3l.1.1h.3v-.1h.4v.3h-.7l-.2.4-.3.1-.1.2-.2.3v.2l-.1.1v.3h-.3l-.1.4-.2.3v.3l-.6.6-.2.4zm7-1.4l.4.1h.6v.6l-.3-.1h-.4V93zm414.2 70.3l.1.2.1.3.2.3.4.4.1.2.6.2.1.2h.7l1 .2v.5h.2l.6.3.3.2h.8l1-.2.5-.5 2.4-.8.2-.4.2-.3.2-.5.3-1v-.2l-.2-.7-.3-.7-.3-.5-.5-.4-.6-.4h-.3l-.6.1-.6-.2h-1.3l-.3.1-.4.2-.4.3h-.7l-.7.1-.6.4-.6.4h-.8l-.2.4v.2l-.2.4-.2.4v.2l-.3.4zM207 228.6h.2v.4h.2l.1.3.3.1v.2h.2l.2.2h.8v.2h1.2l.2-.3.3-.1v-.1h1.1l.2-.1h.2v-.1l.3-.1h.2v-.2h.2v-.1h.1v-.3l.2-.2v-.3h.2l.2-.1.1-.1.1-.2.2-.2v-.2l.2-.1h.1l.1-.2h.2l.2-.2.2-.2.1-.3h.2v-.3l.1-.1v-1.2h-.3v-.3h-.1v-.3h-.2v-.1h-.1l-.1-.1v-.2h-.2l-.1-.2v-.3h-.2v-.2l-.1-.2v-.1h-.2v-.3h-.1l-.1-.1-.1-.1-.1-.2h-.3l-.1-.3h-.5v-.1h-.3l-.2-.2h-.4l-.3.3v.1h-.4l-.1-.3h-.2v.2l-.2.3h-.2v.3h-.1l-.1.1v-.2l-.3-.2v.6h.3v.1h-.4l-.2.3-.2.3-.1.3-.1.2-.2.1-.2.1-.3.4v-.1l-.1.3v.4l-.2.2v.4h-.1l-.2.2v.2h-.1v1h-.1v.2l-.3.2v.3l-.1.3v.4h-.1v.1zM5.4 105.5l.6.6.3.4.7.2h.2l.6.3.2.2h1.2l.4-.4.4-.5.4-.6.6-.4.5-.5.2-.6.7-.3.1-.5.3-.4.2.2.1.3.4.2.5.3h.7l.7-.4.4-.1.5-.3.1-.2v-1.9l-.8-.4-.6-.2h-.7l-.5.3-.3.7-.5 1-.5-.3-.7-.6-.3-.6-.6-.4-.5-.2-.8-.2-.6.3h-.7l-.7.5-.4.5.3-.8v-.3l-.2-.4h-.8l-.2.4-.2.2-.2.8v.6l.6.3.5-.2v-.3 1l-.8.1-.5.4v.4l-.1.3-.1.5v.5zm198 81.1v.2h.3v.3l-.3.2h.3v.9l.3.2h.1l.2.2.1.1.2.1.1.1.4.1.4.2h.8l.4.3h1.1l.2-.3h.2l.1-.1h.2l.1-.1h.3v-.2h.1v.5h.2v.2h.6l.2-.3h.2v-.1h.2v-.1l.2-.2v-.2l.1-.1v-1h.1v-.2h.2v-.2l.2-.1.1-.2.1-.1.1-.1v-.1h.2v-.3l.2-.2v-.3h.1v-.4h-.4v-.6l-.1-.1-.1-.3v-.3h-.2v-.3h-.2l-.2-.2-.2-.1h-.2v-.2h-.1v-.2h-.3v-.1l-.3-.1v-.1l-.2-.1h-.2l-.1-.2h-.2v-.1h-.2v-.1h-.2v-.2h-.3v-.2h-1l-.2.2-.3.2v.2l-.1.1h-.1v.2h-.3l-.2.1v.1h-.1l-.1.1-.3.2h-.3v.3h-.4l-.1.2v.3h.2l.2-.3v.9l-.2.1h-.3l-.1.2-.2.1h-.2l-.2.2v.2l-.3.2-.1.3h-.3v.4l.2.1zm51.6-39.7v.1l.3.3h1v-.3h.6l.1-.2h.2l.1-.1h.2l.3-.3h1.8l.2-.1h1.2v-.1h.2l.1-.2h.5v-.2h.5l.2-.3h.4l.1-.2h.1v-1h-.1v-.8l-.2-.1v-.1l-.1-.3-.1-.1v-.3h-.1v-.3h-.1v-.2h-.2v-.1l-.2-.1v-.1l-.2-.2-.2-.2v-.1l-.1-.1-.1-.2-.3-.2-.1-.1-.3-.3-.2-.1-.1-.3h-.4v-.1l-.3-.2h-.2l-.2-.2-.2-.1h-.2v-.1l-.3-.1h-.2v-.2h-.3v.3h-.1l-.1.2h-.2v.2h-.3l-.1.1v.1l-.2.1v.3h-.1v.5h-.3v.3h-.1l-.1.2h-.1l-.1.2v.3h-.2l-.1.2v1.4l-.2.3v.1l-.1.4v.3l-.1.1-.1.4v.1h-.3v1.3l-.2.2zm-55.8 27v.1l.2.3.2.1v-.1h.7v.2h.4v-.2h.2l.1.2.2.1h.5v.2h.3l-.1.1v.4l.3.1-.3.2.1.2h.4l.2.2h.9l.3-.1.6-.2.4-.2.2-.3v-.1l.2-.2v-.5.1h.8v-.2l.2-.1v-.2h.6l.2-.3v-.1l.2-.1v-.2l.3-.3h.2v-.2l-.3-.2v-.3h.3l.2-.1v-.4l.3-.1v-.5l-.5-.5-.2-.3-.2-.2h-.5l-.2-.4-.2-.1-.3-.3-.4-.1h-.5v-.3h-.5l-.1-.3h-1.1l-.6.1-.1.2-.1.1h-.3l.1.1h.3v.1l-.2.3-.2.2-.1.2h-.3l-.1.3-.3.3-.3.4-.1.4-.5.5-.1.1-.6.1v.2l-.1.3v.2h-.1l-.2.4v.5l-.1.1-.1.1zM98.7 210.8l.3.1v.4l.3.4.4.3.5.3.1.2.2.3v1l-.5-.2h-.4l-.2.2.2.4h1l-.3.5v.9l.2.2h.7l.4.5h.4v-.3l-.5-.4h.5v-.3l.2-.3v-.1l-.2-.4v-.5l.6-.3.1-.1v-.6l.6-.5.9-.2.9-.4.3-.2.4-1v-.6l-.3-.2v-.3l-.5-.8-.3-.9-.1-.1-.6-.1-.5-.1h-.5l-.7.3-.3.4-.2-.1-.2-.3-.6-.3h-.6l-.4.2-.5.2-.2.3.2.3-.3.4h.1l.7.3v.2h-.2l-.3.3-.3.3-.2.4zm157.7 4.6v.4l.2.2h.1l.1.2h.6v.1h.4v-.3h.2l.1.2v.4h-.1v.3h-.2v.1h-.3v.3h-.4l-.1.2-.3.1v.7h.3v.2h.1v.1l-.1.2h-.1v.1h-.3v-.4.2l.1.2.1.1h.3l.1.2h.2l.1.1h.3v-.3h.2v-.1h.3v-.4h1.3v.2h.4v.2h1.1l.2-.2.2-.1.3-.2.2-.1.1-.3h.2l.2-.3.2-.1.2-.2.3-.2.2-.1.1-.3.2-.2v-.4l-.2-.3v-1l-.1-.3v-.3l-.1-.4-.1-.2-.2-.1v-.1h-.2v-.3h-.4v-.2l-.2-.3-.1-.1-.1-.1h-.1l-.3-.2h-.2l-.2.3h-.3l-.3-.3h-.6l-.2.3h-.2l-.1.1v.3l-.3.1v.2l-.4.2v.1h-.1l-.1.3h-.1v.1h-1v.3l-.1.1h-.4v.1l-.2.3-.2.2v.3h-.1zm-15.4-8.1v.4l.2.3.2.2.2.4.1.4v.1l.2.2-.3.3-.1.2v.2l-.2.4v.6l.3.4.2.2.4.2h1.5l.1-.3v-.2l.2-.1.1-.3v-.4l.4-.3.2-.3.5-.2h.2l.4-.4h.2v-.1l.5-.4.3-.4.1-.3.2-.1v-.4l-.1-.3-.2-.2-.2-.3-.1-.2-.3-.3-.2-.1h-.4l-.3.1-.3.3-.1-.3v-.3l.2-.5.2-.2v-.3l.2-.3-.2-.2-.3-.3v-.1l-.4-.2-.3-.2h-1.1l-.1.1h-.1l-.2.2-.1.2h-.3l-.2.3-.2.1v.2l-.3.2-.2.1v.8l.3.2v.5l-.1.1-.5.3zm-10.7-107.1v.4h.4v.7h.1l.2.2.3.3v.2l.4.1v.2h.3v.3l.3.1v.1h.2l.1.1h1.6v-.2h.8v-.4h.3v-.2l.2-.1v-.1l-.2-.2v-.7l.2-.2v-.3l.2-.2.1.2v.5h.2v-.5l.2-.1v-.1h.1v-.3h-.3v-.2l.2-.1v-.4h.1v-.6h.1V98h.2v-.4l-.5-.3-.1-.1v-.1h-.5V97h-.8v-.3h-.1v-.6l-.1-.1v-.1h.4v-.1h.1v.2h.1l.3.2V96l.1-.2v-.3h-.4v.3h-.4v-.3h-.3v.3h-.3v.2h-.1v.2h-.2v.2h-.4v-.2h-.1v-.1h.3V96h.2v-.2h-.5l-.1.2v.3h-.2v-.2h-.5V96v.2h-.1v.1l-.2.1v.3h-.2v.7l-.1.1h-.2v.3h-.1l-.1.2-.1.2v.4h-.1v.4l-.2.3v.1l-.1.2v.4l-.2.1v.3l-.2-.2zM32 203.4l.9 1.6 2.9 1.8 1.5-.3 1.1-1 .2-1.3-.1-1-2.2-1.8-1.3-1.1-.7-.1-.7.3-.2 1-.6.7-.2-.7-.1.2.2.7zm172.4 1.6h.2v.3h.1v.6l.2.1.1.1v.5h.2v.1h.2-.2v.5h-.2v.1h-.3v.3h.3l.1.1h.2v-.2h.1v-.1l-.3-.1v-.1h.5-.2v-.1h.2v.2h.3l.1.1h.6l.1-.2h.8l.1.3.4.1h.2l.1.2v.1h.2v.1h.1v-.3h.5l.1.3h.1v-.3h.3v.3h.5v.1h.4v.2l.2-.2v.2h.5v-.1h.1l.2-.2h.2l.1-.2.2-.3v-.4l.2-.3v-.8l-.3-.3-.1-.3-.1-.1-.1-.1v-.2h-.1v-.4h-.2v-.2h-.1v-.3h-.1l-.1-.1v-.2h-.1v-.1h-.3v-.2h.2v-.3h-.3v.4h-1.2l-.3-.2-.1-.1h-.3l-.3-.1h-.1v.3l-.1-.3h-.1v.3h-.4v.2h-.1v.1h-.4l-.1-.3h-.2v-.1h-.6l-.2.3-.3.1h-.1v.2h-.3l-.1.2v.2l-.2.1v-.2h-.3v.2h.3v.3h.2v.1h-.2v.1h-.5zm120.6 4.3l.5.5.1.2.4.2.4-.1.2-.3.1-.3.2-.2h.2v.1h.9l.2-.1.2-.3.3.2h.4l.9-.5.4-.5.3-.4v-2.1l-.3-.2v-.1l-.3-.2.2-.2-.1-.3.4-.5.1-.5v-.9l-.7-.2-.3.1-.2.4h-.2l-.2.2-.4.2-.1-.2h-.9v.4h-.4v-.2l-.1-.3-.3-.2h-.7v-.3h-.2v.3l.2.3v.3l-.1.1v.3l.3.2-.4.1.3 1h.3l-.4.2v.2l-.2.4v.5h-.5l.5.6-.5.2h.1l.4-.1h.2v.3l-.3.2v.4l.1.4.5.1.4.3h.1l-.3.3h-.2l-.3-.3H325zm2.3-5.3h.4l.1-.2h.5l.2.2v.2h-.2l-.3.2h-.3l-.3-.3h-.2zM77.5 164.3v.6h.2v.1h.1v.3h.1v.2h.1v.3h.2v.1h.3v.1h.3v.2h.2v.1h.5v.2h.1v.1h.1v-.4h.3v-.1.4h.2v.1h.2v.1h.1v.3h-.4v.3h.3v-.3h.1v-.2h.1v-.3h.3v.3h.6l.1-.3h.2v-.1h.2v-.1h.3v-.1h.4v-.1h.2v-.1h.3v-.2l.1-.1v-.2h.1v-.2h.1v-.1h.1v-1.1h-.3v-.1h-.2v-.2H83v-.7h.2v-.6H83v-.3h-.3v-.2h-.2v-.3h-.2v-.1h-.1v-.1h-.1v-.1H82v-.1h-.2v-.1h-.6v-.1h-.4v-.1h-.1l-.1-.2v-.1h-.1v-.1.4h.3-2v.2h-.3v.1h-.1l-.1.1h-.1v.1h-.1v.1H78v.2h-.2v.2h-.1v.3h-.1v1.6h-.1v.3h-.1v.1zm4.8-2.6l.2.2h.1v.1h-.4zm-45.7 78.5v.4l.1.4.1.4.2.4.2.2v.4l.5.4.1.2h.8l.5.1.7.2h.4l.6-.2.2-.1.1-.3v-.2l.1-.3h.3l.2-.2.4-.4.2-.4v-.4l-.3-.5-.2-.5v-.2h.2l.1-.2.3-.5v-.8H42l-.4-.4-.3-.1-.3-.2-.5-.2h-1l-.8.2-.3.1v.2l-.1.1-.3.2v.5l-.6.3-.3.4-.4.5zm23.2-89.6v.1l.2.1v.3l.1.3v1.2l.1.3.2.2.2.1.1.1.1.3h.5l.2.2h.3l.2.1h.4l.4-.3.2-.1.2-.1.3-.2h.4l.1-.2.3-.1.2-.1.3-.2v-.3l.2-.3v-.5l-.4-.2v-1l-.2-.2-.2-.3-.2-.3v-.1l-.3-.2v-.2h-.1v-.2l-.1-.1-.2-.2-.1-.1h-.7v-.2h-.3v-.4H62v-.4h-.2v-.3h-.5v.4l.3.2h.1l-.2.1H61l-.3.2v.3l-.2.3-.1.2-.1.1-.1.2-.2.2v.3h-.1v.3h.3v.1h-.3l-.2.3zM9.2 181l.2.5h.3v.2l.2.5.1.1h.5l.3-.3.2-.3-.3-.3-.6-.4H10v-.4h.6l.3-.2.1.1.3.7.4.2v.2l-.3.4.3.6.2.4v.4l-.1.2v.1l.2.1v-.1l.6-.2-.2-.2h-.2v-.3l.8-.2h.2l.3.8h.2l.7.1.8-.4.4-.3.4-.5.2-1.3v-.7l-.8-1-.4-1.1-.4-.2h-1l-.4.4-.2.3-.5.7-.2-.3H12l-.2.1v.7h.7v1.1H12l-.6-1.2h-.1l-.3.2h-.2l-.2-.2h-.4l-.2.3h-.5l-.1.3-.2.1zm39.4 34.8l.4 1h.4l.3.5-.7.6v.8l2.2 1.1.8 1 .8.1 1.1-.6.7-1.4-.4-.7.3-.6-.2-.6H54l-1-.9-.8-.5-1 .2-1.2.4v-.6l-1-.3zm0 0"/><path d="M78.9 168.8v.7h.1v.8h.2v.3h.1v.2h.1v.1h.2v.1h.2v.3h.1v.1h.1v.2h.3v.1h.2v.1h.2v.1h.2v.1h.9l.1-.3h.3v-.1h.1v-.1h.4v-.1h.3v-.1h.3v-.1h.1v-.1h.2v-.1h.2v-.3h.1v-.2h.1v-.3h.2v-.1h.1v-.1h.1v-.3h.1v-.3h-.3v-.4h.3v-.7h-.3v-.2h-.1v-.1H84v-.3l-.2-.1h-.1v-.1h-.2v-.1h-.4l-.1-.1v-.2h-.2v-.1h-1.6v.2H81v.1h-.3v.1h-.4v.1h-.5v.1h-.1l-.1.1h-.1v.1h-.1v.1h-.1v.1h-.2v.2H79v.6zm5.4.2h.2zm-35.8-37v.5h.2v.5h.2v.4h.1v.2h.3l.2.3.2.4.1.4.2.2.2.1.3.3h1l.5-.3v-.1h.2v-.3h.2v-.2h.6l-.2.3.2.3.1-.2v-.3l-.1-.1.3-.1.1-.2h.3v.3h.7v-.4l-.3-.3v-.3h.9l.1-.2v-.3l-.4-.1v-.1l-.2-.2v-.7l-.2-.2v-.2h-.6v.4h.3v.2l.2.1h.1l-.5.3v-.4h-.3v-.3h-.7l-.3.2v.1h-.2v-.3h-.2v-.3H52v-.4l-.2-.3h-.2v.3h-.3v.3h-.1v-.2h-.1v-.3H51l-.1-.1h-.1l-.2-.1v-.1h-.1v-.2l-.3-.2h-.5l-.2.2-.2.1v.2l-.3.2v.2l-.2.2h-.1v.1h-.1v.2h-.1v.4h-.1zm-17.7 20v.6l.2.1v.1h.2v.2h.1v.2l.1.1.1.1h.1v.1h.3v.1h.5l.1.1h2v-.3h.4v-.1h.1v-.1h.2l.1-.1h.1v-.1h.3v-.3h.1v-.1h.1v-.3h.1v-.5h.2l.1.2v.3h.4v-.3.3h-.3v-.6h.3v-.1h.1v-.9h.1v-.2l-.3-.1v-.1h-.1v-.1h-.2v-.4l.3-.1h-.5v.3H36v.5h-.3v.1h-.1v.1h-.1v.1h-.1v-.3h-.1v-.1h-.1v-.1h-.1v-.2h.4l.2-.1h.1l.1-.2h.1v-.4h-.3v-.3h-.3v-.1h-.2l-.1-.2v-.1H35l-.2-.1h-.1v1.4h.3v.2h.2v.1h.1-.3v-.3h-.3l-.1-.2h-.1l-.1-.1h-.1l-.1-.1h-.1v-.3.3h-.5v.1-.3h-.2v-.1h-.2v-.1h-.4v.2h-.2v-.2h-.2l-.1.3h-.2l-.1.1v.1h-.1v.1h-.1v.1h-.1v.1h-.2v.1h-.1l-.1.1-.2.3H31v.6l-.2.2zm-18.6 37.3l.1.3.7.9.3.1.5.2.3.1.4.1.8-.3v-.7l.4-.4h.5l.7-.2.1-.2.7-.7v-.9l.3-.5-.2-.7-.1-.3-.4-.6-.3-.2h-2.3l-.3.7-.4.4v1l.1.3.3.3h-1.2l-.1.1-.1.2-.1.2-.6.3zm342.6-5.3v.3l.3.3.1-.2h.2v-.2l.2.1v-.3l.4-.3-.4-.1h-.1.5v-.3.2-.2l.3.1v.4h.2l.1-.3h.4v-.3l.2.4v-.1h.1l.1.2.6.7v1l-.7-.4-.1-.3h-.2v.3h-.5l-.1.1v.7h-.9v.2h.3l.2.2v.1h-.3v.2l-.1.1h.4v.2l.4.2.4-.4.3.3v.1-.1h.2v-.4l.3-.3.1.2v.4l-.3.2v.3h.4l.2-.3.2-.6v-.1h-.2l-.3-.5-.5.2v-.2h-.6v-.2h.4v-.2h1v.2l.4.5.4.3 1.5-.1h.4l.3-.3v-.3l.3-.2v-.5l-.2-.6v-.2l-.5-.5-.1-.3-.5-.4h-.6v-1l-.1-.4-.8-.2v.1l-.5.1h-.5l-.2-.2h-.6l-.3.2v.2l.2.7.4.3v.2h-.2v-.4h-.5v-.1h-.5v.5h-.4l-.1.4v.1l-.1.2v.3l-.2-.2zm-40.5 24.4l.6.1h1.2l.7-.3.6-.2.5-.3h.4l.2-.4v-.1h.2l.6-1 .2-.5.2-.4-.3-1.2-.2-.4-.3-.3-1.2-.7-.3.3-.3-.6-.1.1.2.5-.2.2-.3-.2-.3.4-.4-.2v.8h.3l-.3.3.2.5-.2.2v.4l-.8-.2v.2h.2v.4l-.7-.2v.3l.1.3.6-.2v.3l-.4.2v.9l-.3.1-.2.3zM45.2 136.9v.1h.4v-.3h.2v.8h.1v.5h.7v.5h.1l.1-.3v-.1h.2v.3h.3v.3h-.7v.1l-.1.1v.7h.4v.2h.1v.2h.5v.2h1.4l.1-.2.1-.1h.3v-.2h.1v-.1h.2v-.1l.1-.1v-.1h.1v-.3h.1v-1h-.3v-.5h-.1v-.2h-.1v-.1h-.1l-.1-.1H49l-.2-.1h-.1v-.2h.3v-.5h.2v-.8H49l-.2-.2v-.2h-.1v-.1h.3v-.2l.2-.1.1-.1v-.4H49v-.1l-.2-.1v.3h.2v.1l.2.1.1.1v.2H49v.1h-.2v.1h-.3v-.2h-.1v-.2h-.2v-.2H48v-.1h-.2v-.2h.2v-.1h-.3.3v.3h-.3v-.3h-.6v-.2.2H47v.2h.4v.1h.2v-.3h.2v.3h.1l.1.1v.1h-.8v.1h-.7v-.3h.4v-.1h.1-1v.5h-.2v.1l-.1.1v.1h-.1v.2h-.1v.2h-.1v.3h-.1v.5h.4v.1h-.5v-.3l-.1.3v.1h.4v.1l.1.1v.1h-.3v-.3h-.1v.5h-.1zm0 0h.3zM373.8 168v.3h.2v.3h.2v.1l.1.1v.1h.3v.1h.6l.1.2h2.2v-.2h.1v-.2h.2v-.2h.1v-.6h-.3v-.2h-.1v-.6h.4v-.1l.1-.1v-.6h.2v-.1h.1v.3h.6v-.3h.1v-.2h.2v-.1h.4-.3v.3h-.1l-.1.1v.1h-.1v.2h.9v-.3.4h.1v.1-1.2h-.2v-.1h-.1v.3h-.1v.1h-.1v-.4h.3v-.2h.2v-.4h-.5v-.2l.3-.1v-.7h-.4v.3h-.1v.1h-.1v.3h-.1v-.3h-1.3v-.1h-.1v-.1h-.1v-.4h-.1v-.1h-.2v-.1h-.2v.4h.3-.7l-.1.2v.1h-.1v.1h-.1v.1h-.1v.1h-.1v.1-.3h-.1l.3-.1v-.3h.1-.3v.3h-.4v.1l-.1.1v.5h.3v-.3h.2v-.1h.1v.4h-.3v.3h-.3v.6h-.1v.1h-.6v.2h-.2v.2h-.1v.2h.3v.4h-.8v-.2.2h-.1v.3l-.1.1v.2h-.2v.4zm3-2v-.3h.2v.3h.2-.5zM277 139.7v.3h.2v-.3h.3v.3h.2v.3h.5v.1h.1v.1h.1v.2h.1l.2.1v.2l.3.2.2.1h.9v-.2h.5v-.1h.2v-.2h.2v.4l.3.2h.2l.2-.3v-.1h-.1l.2-.3v.3h.2v-.1h.3l.1-.1h.3l.1-.2.2-.1v-.2h.2v-.8.2l.3.1v.2h.5v-.2h.3v.2h.3v-.2l.2-.2h.1v-.6h-.5v-.3l-.1-.2v-.2h-.9l-.1.1v.1l-.3.2v-.2h-.1v-.3h-.1l-.3-.2h-.1l-.2-.2h-.8l-.1.2-.1.2h-.2v.1l-.2.1h-.2v-.2l-.1-.2h.5v-.2h-.2.4v-.2h-.1v-.1h-.1v-.1h-.2v.3h-.2v-.4h-.1l-.1.2v.2h.3l-.2.3h-.6l-.1.2h-.2l-.1.1h-.8v.2h-1.3v.1h-.2v.1l-.2.3v.5l.3.1h-.3zM223.5 39.5l.2.3h.1l.2.1h.2v-.4h.2v-.2l.1.4h.4v.7h.4l.1.2.1.1.1.1.4.2h.7l.3-.1.2-.2v-.2h.3V40h.5v-.3h.1v-.1l.2-.2h.7v-.2h.5V39h.4l.1.3v-.5h-.1l-.2.3h-.1v-.9h-.2V38l-.1-.2h-.1l-.2-.3h-.5l-.3.2h-.2v.3h-.3v.3l-.2.2.2.2h-.3v.2h-.2v-.3h-.4v.3h-.4.3v-.3h-.3l-.2-.2h-.2v.4-.3h-.7v.5h-.2l-.1.2V39l-.2-.2h-.3l-.3.2v.5-.3h-.1l-.1-.1h-.2V39h-.2v.2h-.1zm5.7.5l.2.2.1.3h.1l.2.2.2.1.2.2h.2l.3-.3.1-.1v-.1h.1v-.3h.1v-.1h-.3V40h.3-.2v-.3h-.3v-.1h-.1l-.1-.2h-.9v.4h-.3zm1-1.7v.2l.3.1.1-.1v-.3l.2.2v.6h.4l.1.3.3.1h.5l.4-.1h.3l.2-.3.3-.4v-.9h-.2l-.1-.1-.1-.2-.2-.2-.1-.1-.1-.2h-.2l-.2-.2H231v-.2h-.3l-.3.3-.2.2v.6l.4.1-.3.3.2.2h-.1zM31.5 136.8l.1.2.7.3 1.4.1h.3l.3-.3.1-.1.8-.1v-.6l-.6-.3v-.2l.1-.9.1-.1h.4v.5h.2l.5-.1 1-.6v-.4l-.3-.5v-.4l-.2-.7-.1-.1-1-.2v.7H35l-.6.4h-.3v-.2l.2-.5v-.3l-.2-.2h-.7l-.8.5-.3.2-.4.6v.5l.1.3v.2l-.2.4v.1l.3.1.1.2v.1h-.5v.3l.4.3v.4h-.5v.2zm265.9-1.6v.6l.1.2v.5l.2.1v.2l.1.2h.1l.1.2.1.1.2.1h.2l.2.2h.3v-.2h.1v-.3h-.1.2v.1h.4v.3h-.3l-.1.2v.3h.4l.2.4v.1l-.2.2v.3l-.2.1v.2l-.1.2v.5l.5.2h.4l.2-.2.2-.1.1-.2.3-.2v-.2h.2v-1h-.4v-.2l-.2-.1v-.2l.3-.1v-.4l.1-.2v-.8h.5v-.3h-.1l-.2-.2v-1l-.2-.2-.2-.1-.1-.2v-.3h-.3v-.2l-.2-.2-.2-.1-.2-.1-.1-.1-.3-.3h-.3l-.1-.1h-.8v1.1l-.2.1-.1.2h-.2l-.2.3v.4h-.1zM167 233.8v.2l.1.3.2.1.3.2.2.1.2.1v.1h1.2v-.3l.3-.2v.2l.1.1v.3h.1v.2h.1v.1h.8v-.3h.2v-.2h.1v-.3h.1v-.5h-.3v-.2h-.1v-.1l-.1-.1h-.5v-.6h.2v-.1l.1-.2v-.8l.2-.1v-.7h.1l.3-.1v-.9l-.3-.1h-.2l-.1-.2h-.3l-.1-.1-.2-.2-.1-.1-.1-.1h-.3l-.1-.1h-.4v.5h-.1v.1h-.4v.1h-.7v.1h-.3v.2h-.1l-.1.2v.6h.3v.1l.1.2v.1l.1.2v.4l.2.2v.2l-.3.3v.2l-.3.1-.1.2v.4zm36.3 7v.2l.2.2v.1l.1.1v.3l.1.1v.3l.1.1.2.2v.1l.2.3.1.2h-.5v.3h.2l.1-.3h.2l.2.4v.3h.3v.3h.7v-.2h.1l.2-.3h.2v-.2h.1l.1-.3.1-.2v-.1l.2-.2v-.7h.1v-.2l-.3-.1v-.1l-.1-.2-.2-.2h-.2l-.2-.3h-.2l-.1-.1h-.1l-.2-.3h-.4l-.1-.1h-1.1v.4l-.2.1zm1.4-2.7v.2l.2.3h.1v.6h.2v.1h.2l.3.2.2.2h.9v-.3h.2v-.1h.2v-.2h.2v-.3h.2l.2-.2v-.9h.2v-.1h-.3v-.4h-.3v-.8h-.1v-.2h-.2l-.1-.1h-1.1l-.3.3h-.2v.2l-.2.2-.2.2v.6l-.1.3-.3.1zM11 271.3v.3l.5.4h1l.7-.3.8-1v-.8l-.5-.6.7.4.2-.2.2.2h.4l-.2-.3.2-.2.7.4h.6l.5-.2.9-1.4v-.6l-.7-.3h-.7l-.3-.5h-.4l.4.5-.3.2-.5.5-.3.2h-.6l-.3.7-.8.2-.2-.4-.3-.5-.4-.3h-.6l-.4.9.1.9v.4l-.4.3zm183.5-65.7v.7l.2.1v.1l.1.3.1.2h.1v.1l.1.1h.2v.2h.2v.1h.3v.1h.1l.1.1h1l.2.1h.2l.3-.3h.1v-.1h.4v-.1l.1-.1h.2v-.2h.3v-.2h.1v-.1l.1-.1v-1.5l.2-.1v-.8l-.2-.1v-.1h-.2v-.2h-.2l-.2-.1v-.1h-.2l-.2-.2h-.2l-.3-.1-.1-.1h-.7v.3l-.1-.3h-.3l-.3.3v.1l-.3.1v.3h-.2l-.2.1v.1l-.1.2h-.2v.3l-.2.1v.4l-.2.2zM152.7 246l.1.4.2.2h.2l.2.1.3.4.1.2.3.5.2.6v.5l.3.3.2.2h.1v1.2h.3v.1h.1l.1.1h.7v-.3h.2v-.1h.3v-.1h.1v-.1h.2v-.5l.1-.1.2-.3.3-.4v-.1l.2-.2v-.2l.2-.4-.2-.3-.1-.4v-.2l-.2-.2v-.2l-.3-.2h-.1l-.7-.5-.3-.2h-.5l-.2-.2h-.5l-.3-.2h-.3l-.2-.1h-.6l-.4.2-.2.2v.2zM282 206.2v.2h.3v.3h.1v.2h-.3v.3h.5v-.4l.1.2h.1v.2h.2v.1h-.3v.3h.5l.1.1h.3v-.3h.2v-.1h.1v-.1h.1v-.2h.2v-.2h.1v-.1h-.3v-.1h.4v.3h.3v.1h.5l.1-.2v-.1h.4v-.1h.1v.4h.2v-.3l.2-.1v-.2h-.5v-.1h.3v-1h.3l.1-.3v-.3l-.6-.4h-.2l-.1-.1h-.5l-.2-.1v-.1h.2v-1.5h-.3v-.1l-.1-.1h-.1l-.1-.1h-.9v-.1h-.7v.3h-.1v.1h-.1v.1l-.1.1v.1l-.1.2h-.1l-.1.3v.5h.3v.2h.1v1h-.5v.3h.3l-.1.4-.1.1h-.2zM197 50.4h.1l.2.4h.1v.2l.5.2v.3h.1v.3h.3v.4l.1.1h.2V52h.5l.1-.3h.1l.1.3h.2l.1-.3.1-.1.3-.2.1-.2.1-.3.1-.5v.4h.6v-.2.6h.4l-.1.2-.1.1-.2.2v.3l.2.1v.2l-.3.1v.6l.1.1.3.2.5.1h.6l.2-.2.2-.2.1-.3v-.6l-.2-.2-.2-.2v-.4l-.4-.1h-.1V51l.1-.2.3-.1v-.3h-.2l-.3-.3h-.5l-.2-.1h-.2l-.1-.1-.3.2v-.7l-.2-.4-.1-.1-.3-.2-.1-.2.1-.1h-.3l-.2-.3h-.6l-.3-.1h-.2l-.3.4h-.3l-.3.3v.3l-.2.3v.5-.2h-.3.2l-.2.4h.2v.2zm-20.5 121h.3v.1h.1v.3h.3v-.6h.2v.3h.1v.4h.1v.1h.2v.2h.1v.2h.1v.4l.2.2v.3h-.6v.2h-.1v.1h-.5v.1h.4l.2.1.1-.4h2.1l.2-.1h.4l.3-.1h.1l.2-.2.2-.3.4-.4.1-.1.1-.4v-1l-.1-.4-.2-.2-.2-.3-.3-.2v-.2h-.3l-.3-.1-.1-.1-.4-.1h-.9v.1h-.4v.1l-.1.1-.2.1-.1.1-.2.1-.1.2h-.1v.2l-.4.2v.8h-.6v.1h-.4zm81.4-66.2l.1.2h.2v1h.2v.2h.2l.1.2v.2h1.9l.4-.2v-.1l.3-.2h.1v-.2l.3-.3-.4-.3.7-.4h.2l.2-.3v-.3h-.3v-.7h.4v-.2h-.2l-.1-.5v-.3h-.2l-.2-.2H260v-.2h-.5v-.2h-.4v.2l-.1.1v.4l-.3.2h-.1v.2h-.2v.8l.3.2v.1l-.3.2-.3.2v.1h-.1zM81.2 180.6v.2l.3.3v.5h.8v.4l-.3.1-.2.1.6.2.3.3 1.3.6.7.4.6.1h.2l.5-.2 1-.4.2-.6v-.1l.3-.6-.2-.3-.4-.6h-1.5l-1.3-.2H84l-.4-.5-.3-.1-.4-.2-.4-.3H82l-.5.3zm3.1-63.1v.2h.3v.2h.1v.3h.1v.1h.1v.1h.8-.2l-.2.2v.4h.7v-.5l.2-.2h.3v-.1h.2v-.3h.2v-.2h.1-.2v.5h.5v-.5H87v-.1h.4v.3h.6l.2-.3v.3h.2l-.2.5v.3h.2v.2l.3.1v.2l.2.1h.1l.2.1h.3l.3-.4h.1v-.1h.1v-.3l-.1-.2-.2-.1h-.1v-.3h-.2v-.3h.4v-.2h.2l.1-.1v-.1h.2v-.5l-.3-.1v-.3h-.2l-.1-.3h-.2v-.1l-.2-.1h-.7v.2h-.2v.1l-.1.1v.4H88v-.3l.1-.2h.3v-.2l.1-.2v-.2l-.1-.2-.2-.1-.1-.1h-.2l-.2-.2h-.3v.2l-.1.2v.1h-.1v.1l-.2.1-.1.2h-.1v-.7h-.5v.2h-.4v.1h-.2l-.2.6v.5h.2v.3h.3v.1l.2.1H86l-.2-.1-.3-.4h-.9v.4l-.2.2v.1l-.2.2zm-3.1 91.1l.1.2h.2v.4h.2v.2h.3v.3h.2v.1h.1v.2h1.4v.3h.3l.2-.3h.1l.2-.2h.2l.3-.3v-.3l.2-.2v-.3l-.2-.4v-.1l-.2-.2H84v-.2h-.2v-.6h-.2v-.1h.5l.2-.1h.1v-.1l.3-.1h-.4v-.4h-.1.3v-.8h.2v-.2h.1v-.4h.1v.3h.1l-.1-.3v-.2h-.2v-.1.3h-.1l-.3-.5H84h.1v-.2h-.3v.4h-.4.2v.2-.2h.3v.2h.1v.1h-.3v.2h-.2l-.2.1v-.1h-.5v.2h.2v.2h-.3l-.1.1v.3h-.2v.3h-.1l-.2.2-.3.2v.1h-.2l-.2.2v.3l-.1.2v.5h-.1v.3zm207.5-19.8l.2.2.1.2v.5h.3v.3l.1.4v.3h.2v.1h.2l.1-.3h1.1l.1.3h.9v-.3h.2v-.1h.1v-.1h.1v-.1h.3l.1-.1.1-.1v-.1h-.3l-.1-.2v-.6l.3-.1v-.6l-.3-.2-.2-.2h-.3v-.2l-.2-.3v-.1h.2v-.7l-.1-.1-.2-.2-.2-.1-.1-.3-.2-.1-.1-.1h-.5v.4h-.4v.2l-.2.1v.5h-.6l-.2.4h-.2v.6h-.3v.6zM420 137.7v.7l.2.1v.1l.1.1v.1h.1v.2h.1v.2h.1v.2l.1.1v.4h.1v.9h.1v.1h.1v.1h.2v.6h.2l.1.2h.3v.1h1.1v-.3l.1-.1h.2v-.1h.1v-.4.3l.1.1h.1v-.4.4h-.3v-.4h.3v-.3h-.4v-.2h.3v.3-.4h-.6v.3h-.4v-.7h-.4v-.2l-.2-.1h-.1v-.1h-.1v-.3h.4v-.2h.2l.1-.1h.3v-.2l.1-.1h.3v-.1l.2.3h.4v-.3h.3v-.1h.1-.3v-.2h.3v-.1h-.3.3v-.2h-.3v-.2h-.2l.3-.1v-.1h.2v-.2l-.2-.1v-.2h-.3v-.1l-.1-.2v-.1l-.1-.1v-.2h-.1v-.1h-.2v.4h-.3v-.5h-.4l-.1-.1h-.1v-.1h-.1v.2l-.2.1h-.1v-.3h-.5v.2h-.1v.1h.3v.7l-.3-.3h-.1v-.2h-.4v.5h.4-.4v-.2h-.2v.4h-.2v-.2.4h-.1l-.1.1zm-390.9 8.5v.1l.2.1v.2l.1.1.6.3.7.2h.3l.4-.2.3-.1.7-.6h.1l.5-.3.3.5h.3l.2.1v.2h.1l.8-.6h.1l.3.1.4-.6-.2-.7h-.7l-.3-.5v-.5h-.5l-.6.4-.4.8v.1l-.3-.2v-.1l.3-.7-.1-.3-.4-.1-.2-.2-.2-.1h-.1l-.1.4h-.9l-.3.2h-.3l-.4.8-.1.4-.4.3-.1.1v.2zm319.3 38.6l.2.5.4.6.6.5.8.2 1-.1.8-.6.4-.9v-.7l-.2-.7-.9-.8-.8-.3h-1l-.4.5-.4.1-.3.3-.2.4zm-297.9 40l.3.5H52l.7.5v.5l.3.4.4-.2h.6l1.4-.7.2-.8-1.4-2.3-1.3-.2-1 .3-.7.5-.1.7zM3.2 168.6v.1h.2v.3h.1v.2h.2v.1h.1l.1.1H4l.2-.2v-.2h.3l.1.2.2.2v.2h.1l.1.2h.1l.2.1h.4l.1-.3H6v.3l.2.1.1.3v.1h.1v.1h.1v.1h.1v-.3h.1v-.1h.1v-.2h.6v-.2h.1v-.1H8v-.6h-.2v-.1h-.3v-.2h-.4v.2H7v.2h-.2l-.1.1h-.1v.1l-.1.1v.4l.3.1h-.5v-.3l-.1-.1h-.1v-.2h.3v-.3h.2v-.1h-.3v.3-1l-.1-.1v-.1h.3v-.1h.1v-.2l.1-.1H7v.8h.2v.1h.2v.1h.4l.1-.3v-.4l-.3-.2-.1-.1h-.1v-.2h.3v-.1h.1v-.2h.4v.3h.1v.1h.4l.1.1.1.1H9v-.3l.2-.1h.1v-.3h.1v-.1l.1-.2v-.3l.1-.2v-.1h-.3v-.2h-.2v-.3H9v-.1h-.3v-.2h-.2v.3h-.2.3H8v.3h-.2v.6h-.2v.4h-.4l-.2-.2-.4-.1h-.2l-.2-.2h-.3v.3H4.8l-.2.1v.3h-.1v.2h-.1v.2h-.1v.1l-.1.1v.1h-.1v.1l-.1.2v.1h-.2v.2h-.2l-.1-.3-.1-.1h-.1v-.1.2l-.1.1v.1zM7.4 94l.3.2v.1l.2.2.1.1v.3l-.1.1-.2.2v.3l-.3.2v.7l.3.1v.3h-.2v.1l.2.1v.4h-.3v.4l.4.1h.4v-.5h.1v-.2l-.2-.2h-.3v-.2h-.2v-.2h.3l.1.4h.5l.2.2h.9l.3-.3.3-.1.2-.2.1-.2h.5l.2-.2V96h-.5v-.5h.3l.3-.2v-.1l.3-.2.2-.3v-.6l-.3-.1v-.5l-.3-.1-.2-.4H9.9l-.2.3h-.3l-.2.1-.2.2v.4l-.2.1h-.2v.3l-.3.1H8v-.6h.1v-.3H8l-.1.2h-.4zm15.9 43.3l.2.7.2.4.3.2 1 .2v.2h.3l.4-.2.7-.2.6-.3.3-.3v-.7l-.1-.7-.4-.7-.5-.7-.7-.3h-.1l-.3.2h-.7l-.3.1-.3.2-.3.6-.3.9zm187.1 52.1v.3h.3v.1h.1v.2h.2v.4l-.2.1v.1h-.2v.1h.4v.1h.2v-.5h.6v1.2l.1.1h.1v.2h.7l.1.2h.6l.2-.3h.2l.2-.2h.2v-.2h.2v-.1l.1-.1.1-.1h.2v.2h.7v-.2h.1v-.2h.2v-.6h.5v-.4l.2.2h.1v-.2l-.3-.1h-.2v.3h-.3v.3h-.1v-.3h-.1v-.3l-.2-.1v-.1h-.6v.3h-.1v-.3l.3-.1v-.4l-.3-.1v-.2h-.2l-.2-.2h-.6l-.2.3v.2h-.2v-.2h-.2v.2h.4v.3l.1.1v.5h-.6l-.1-.3h-.3l-.1-.2v-.4h-.1v-.4h-.1v-.1h-.2l-.1-.1-.3-.1h-.6l-.1.3h-.2l-.1.3-.3.2v.1zm-52.8-32.1l.1.4v.3l.1.3.2.4.1.1.2.1.4.1h.1l.4.2h.7l.2-.2h.1l.3-.2h.3l.3-.1.2-.2h.2l.3-.4h.3l.1-.1.2-.2v-.4h-.3l-.1-.4h-.1l-.2-.2-.2-.3-.1-.3-.2-.2-.2-.2-.3-.2h-.8l-.3.3-.3.1-.2-.1-.2.1-.2.2h-.5l-.2.1-.2.2-.1.3zM369.2 131v.2h.2l.1.3h.8v.4l-.2.1h-.1.2v.3h.2v.4h.2v1.2l.1.1h.1l.1.4h.3v.3h.2v.1h1.1l.2-.3h.1v-.1h.2v-.3h.2v-.5h.1v-.3h.2v-.3h.1v-.8h-.4v-.2h-.2v-.8h-.2v-.1h-.1v-.1h-.2v-.2l-.2-.2h-.5l-.2-.1h-.4.3v-.5h-.5v.3l-.2.1v.2l.4.2h-.2l-.1.1-.2.1-.2-.3-.1-.1v-.2h-.4v-.2h-.6l-.1.3v.1l-.2.2zm-114.4-15.8v.1h.2v.1l.2.3v.1l.1.2v.1h.3v.1h.2v.3h-.3.5l-.2.1h.4l.2.2h.1l.1.1h.2v.3h-.6v.1h.5l.2.1.1-.3h.5v-.4h.2v-.2h.3v-.2h.3v-.1l.4-.2v-.1l.1-.1v-.4h.2v-.4.4h.2v.1h.1l.1-.3v-.2l.1-.2h-.2v-.1h-.3v.3h-.2v-.7h-.2v-.2l-.1-.1h-.1v-.1h-.1v-.3h-.3v-.2h-.6l-.2-.2h-.6l-.1-.1h-.2v.3h-.2l-.1.1h-.6v.4h-.2v.1h-.1v.2h-.1v.5h-.2v.6zm-148.8-7v.3h.2v.1h.1v.1h.3v.1h.2v.1h.1l.1.1h-.2v.3h.2v-.3h.5v.3h.2v.1h-.3.3v.1l.1.1h.1v-.4h.1v-.1h.3v-.1h.1v-.5h.4l.1-.1h.1v-.4h-.6.3l.2-.2.1-.1v-.1h.2v-.1l.1-.1v-.1h.2v-.1h.1v-.1h.2v-.3h-.2v-.2h-.2v-.1h-.1v-.9h-.1v-.5h-.1l-.1.3v-.3h-.2v-.1h-.2l-.1-.2-.1-.1h-.1v-.1h-.1v-.1l.3-.1v-.4l-.3-.2v-.1h-.1v.3h-.1v-.1.4l-.3.1-.1.1v.5h-.1v.3h-.1v.1h-.2l-.1.1h-.1v.1h-.1v.1h-.1v.2h-.1v.1h-.2v.1h-.1v.3h-.1v.3h-.2v.9l-.1.1zm2 .6v-.4l.2-.1v-.1h.1l.1-.1v-.1h.1v.5h-.3v.1h-.1v.2zM53.9 246v.3l.3.1h.3l.3-.4.2-.2.3-.3h.1v1.1l-.1.1v.3h.5v-.5h.1v-.1h.1v.2l.3.3v.2H56v.2h-.2v.5h-.1l-.1.2h-.1l-.2.1v.2h-.2v.3H55v.2l-.2.1v.1l-.2.1-.1.3v.4h-.2v.2h-.1v.6l.2.1h.2v.2h.2l.1.1v.4h-.8v.8H54v.5h.4v.2h.2v-.4l.1-.1.1-.1h.2v.3l.3.1h.5v.2l.1.1v.4l.1.1h.1v-.2h.2v-.2l.2-.1h.2v1h.5v-.3h.1l.1.3-.3.2H57v.2h-.3v.2l-.1.1v.5-.2h-.2v.2h.3v.3h.3v.2h-.6l-.2-.2v-.4H56v-.1l-.2.4-.1.1v.4l.3.1v.5l-.1.1-.3.1v.5h.7v-.6h.2v.6h-.3v.3l-.2.2v.3h.1v.2h.2l.1-.2v-.2h.1v.8H56v-.3l-.2-.2h-.1v.7h.1v.5h-.2l-.2.3.3.1h.3v.5l-.3.1h-.3v-.6H55v.7h.2v.1h.3v.1l.3.1-.2-.2h-.1v-.1h-.1v-.1h.5l.1-.1v-.1l.2-.1v-.2l-.2-.2h-.3v-.3l.2-.1h.1v-.6h-.3v-.3h.3l.1.3h.1v.1h.4v-.7h.1v-.5h-.2l-.2.3-.1.2h-.1l-.1-.2.2-.2v-.1l.3-.1v-.8h-.4v.4h-.4v-.2l.3-.3.3-.2v-.3H56l-.1-.3v-.3l.1-.2h.2v.2l.1.1v.1h.4v.2h.3v-.4h.2v-.1h-.5v-.8l.4-.2h.1v-.2h.2v-.1h.1v-.4H57v.3h-.3v-.9h-.6v.3l-.1.2h-.2v-.9h-.4v-.1h-.2v-.1H55v-.2h-.3l-.3.3v.3h-.2v-.8h.2v-.6h.6v-.6h-.3v-.1h-.1l-.2-.1v-.3l-.1-.1v-.3h.3v-.3l.1-.1v-.1l.1-.2h.1v-.2h.1v-.3h.2l.1-.2v-.1h.1v-.3h.4l.1-.1v-.1l.1-.1v-.5l.2-.1h.2v-.6h-.2l-.2-.2h-.2l-.2.2v.4h-.3v-.4l.4-.2v-.8h-.3l-.1-.2H55v.4l-.2.2h-.3l-.1.3H54v-.6h.4l.1-.2v-.1h.3v-.2l.1-.2v-.4h-.6v-.1h-.1v-.5h.2l.1-.2h.1v-.1h.1v-.1h.1v-.4h.6v.3h.2v.1h.1v.2l.1.2h.2l.1-.4h.3v-.2h.5v-.2h.2v-.2h.2v-.2l.1-.2v-.3l.1-.2v-.1h.2l.1-.2h.4l.2.2h.2v-.3l-.2-.1h-.2l-.2-.1-.1-.2h-.1l-.1-.1v-.2h.2l.1-.2h.3l.1.4h.3l.1-.4v-.3h.2v-.4h.8v-.1h.2v-.3l-.3-.2h-.1v-.2H59v-.3l-.3-.2h-.3v-.3h.3l.1-.1.2-.2.4-.2h.3l.1-.2h.8v.2h.3l.3-.1v-1.1l-.2-.1h-.3v-.2l.2-.2.1-.2.1-.1h.2v-.6l.1-.2v-.2h.5l.1-.3v-.2.1l-.2-.3v-.3h.2v-.5h.2v-.3H62v-.1h-.7l-.1-.1.2-.2h.3l.1-.1h.5v-.3h-.2v-.4H62l-.1-.2h-.2v-.2h.3v-.1h.2v-1h-.5l-.1.2v.3h-.1v-.4h-.3v-.1H61v-.5h-.3v-.3l.1-.1v-.4h-.2l-.1-.2v-.2h.5l.1-.1h.3v-.1h.2v-.1l.2-.2v-.3l-.1-.2h-.5v-.1H61l-.1-.3-.1-.3-.1-.1v-.4h.3l.2-.2v-.6h.4v-.2l-.1-.1-.2-.2v-.2h.4l.2.2h.3v-.8l.2-.1v-.6h-.3v-.1h-.3l-.1.1v.4l-.2.3h-.4v-.3l.2-.2h.2v-.1h.2v-1.1l.1-.1v-.2h.2v-.1h.2v-.1h.1v-.2l.1-.1v-.8l.1-.1v-.3h-.2v-.2h.5v-.1h.2l.2-.2h.3l.1.2v.2h.2v-.3l-.3-.1h-.1l.3-.3v.8h.2v.2h.1l.3.2v.1h.5v-.7h.2v-.2h.2l.1.3v.3H65v.2h.3v.1h.2l.1-.3.2-.2v-.6H65v-.3h.4l.2-.3-.3-.3v-.2h.4l.2.2v.1h.1v.1h.3v-.3h.2v-.1h.1v-.1h.7v-.2h.2v-.1h.1v-.2h.1v-.1h.2v-.8h-.2l-.2-.2v-.4h.3v-.2h.3v-.2h.2v-.5l-.3-.1v-.3l-.3-.1v-.2h-.3v-.2h.4v-.1h.2v-.4h.2v-.7l-.3-.2h-.1l-.1-.2h-.8v-.1l.1-.1v-.4h-.6l.2-.3v-.1h.2v-.4H66v-.2h.2l.1-.1v-.6H66l-.1.3h-.6v.2H65l-.3-.2v-.1h-.5v-.3l.2-.1v-.8h-.2v-.3l.3-.2v-.3h-.2v.5H64v.4h.2v.1h.2v.7h-.3v.3l.3.1h.3v.1h.2l.1.1h.7v-.2h.3v-.1h.3v.5h-.4v.3h-.2v.1h.9v.5h-.2l-.1.1v.1h.7v.4l-.3.1v.2h1.2l.1.2v1h-.3l-.2.2-.2.1v.2l.2.1h.3v.2l.2.2.2.2v.2h.1v.2l-.3.1-.2.1h-.1v.2h-.2v.2h-.2v.5h.3v.2h.2v.4l-.3.3-.2.1h-.1l-.1.1H67l-.4.2h-.3v.3h-.5l-.2-.2v-.1h-.3v.2h-.2v.3h.3v.3H65v.1l-.2.1v.2h.2l.1.1h.4l.1.2v.5h-.1l-.2.2h-.1v-.2l.1-.3v-.3h-.2v-.1H65l-.1.2h-.1v.4l-.3.3-.1.1h-.2v-.3H64v-.3h-.2v-.5h-.1v-.1h-.2l-.2.1h-.1l-.2.1-.2.2h-.1l-.4.1-.1.2v1.2l-.1.2H62v.1l-.2.1v.1h-.1v.3h-.2v.2h-.1v1h-.1l-.3.2v.3l.3.2h.4l.2-.4v-.4h.1v-.2h.2v.3l.1.3v.2l-.3.3v.5h-.3v-.3h-.5v.5l.3.1v.2h-.4v.6h-.4v.4h-.2v.5l.3.2v.1h.1v.1l.1.2h.2l.3.1h.2v.3l-.3.1v.1h-.2l-.1.3h-.6v.1l-.2.1v.3h.3l.2.2v.2h-.3v.3h.5v.5l.1.2h.2v.1h.2v.4h.3v-.6h.2v1l-.3.1h-.1v.2l.4.1v.6h.3-.3l-.3.2h-.3v.1l-.2.1v.2l.1.2h.7v.3l-.2.1v.6h-.1v.4l-.1.1h-.2l-.1.1v.2l-.3.3v.5h-.2v.3h-.1v.2h-.2v.3h.2v.2h.5v.7l-.2.3h-.5v-.2l-.2-.2h-.7v.3l-.2.1h-.2l-.2.2-.1.1-.5.2v.5h.6v.6h.2v.1h.2v-.2h.2l.2.2v.3H59v.2l-.1.1h-.4v.4l.2.2v.1h-.3l-.2-.3h-.4v.3h-.2v.5h.4v.2h.3v.1h-.7l-.3.2v.1l-.1.1v.5l-.1.1v.2H57v.1l-.2.2h-.3l-.1.1h-.2v.3H56v.1h-.4v-.5l-.3-.1v-.2h-.5v.3l-.2.2-.1.2h-.3v.2h-.1v.1H54v.6l.3.1h.1l.1.1.2.1v.5h-.2v.1l-.2.1h-.2l-.1.1v.1l-.2.2zm1.1 14.2v-.3h.4v.4H55zm29-7.9l.2.7.8.2h.6l-.1.4.3.4.4.7.5.3h.4l.6-.5.3-.2h.3v.5l.5.6h.2l-.3-.4v-.8l.3-.4h.1v-.5l-.3-.2.2-.2v-.3l-.1-.6h-.5l-.7-.6h-1v.1l-.7.5v.3l-.2.1-.1.4-.7.2.2-.3-.3-.3v-1l-.4.2zm230.7-84.7v.2h.3v.2h.5l.2.3h.3l.1.2v.1h.3v.3h.3l.3.1.2.3.2.1h.3v-.3h.7v-.1h.2l.1-.3h.1l.2-.3h-.3v-.1h.1l.2-.1v-.4l-.1-.2-.1-.2h-.1v-.3h-.3v-.1l-.2-.2-.2-.1-.2-.2h-.1v-.3l-.2-.2v-.1h-.1l-.2-.3h-.2v-.1h-.7l-.1-.2h-.4l-.2.2v.1h-.2v.4h-.1v.2h-.3v.1l-.2.2v.8l-.1.2zm-124.3-60.1v.5l.2.2v.5h.1v.2h-.2v.4h.4v-.3h.1v.3h.5l.1.1h.4v.1h.4v.1h.5l.1-.2h.4v-.3l.2-.1v.2h.3v-.1h-.5l.3-.1v-.2l.1-.1v-.1h.1v-.5l.1-.1v.4h.3v-.3h.2v-.1h.1-.3v-.2h.3v-.2h.1v-.2l.1-.1h.1v-.3h.1-.5v.6h-.2v-.3h-.1v-.1h-.1v.3h-.1v-.3h.2v-.1h-.2v.6-.3h-.2v-.1h-.2v-.3h.4v-.3h-.5v-.2h-.3v-.2h-.1v-.3h.4v-.3l-.2-.1h-.3v-.3h.1v-.3h-.3v.2h-.2v.3h.2l.2.2v.7h-.2l-.2.1h-.7v-.4h.1v-.3h.6l-.3-.2h-.3.3v.3h-.5v.1h-.1.1v-.3h.2v-.4h-.5v.5h-.2v.2h.5v.5l-.3.1h-.5v.2h-.1l-.3.2h-.1v.4zm14.5 34.2v.3h.3l.1.4h.2l.3.1.2.1.2.1h1.4l.4-.1.4-.2.3-.1v-.3h.3v-1.4l-.3-.2-.1-.2h-.1l-.2-.2h-.3l-.2-.2-.2-.1-.3-.1h-.3l-.3-.3h-.4l-.3-.1h-.2v.5l-.2.3-.2.2-.1.2v.1l-.3.5v.2l-.2.2v.1zM94.1 221.8l.2.9-.1.3.5 1 .3.2.2.2h.7l.7-.1.2-.2v-.2l.5-1v-.7l-.2-.5-.2-.7-.2-.7-.3-.1-.6-.2h-.4l-.2.2-.5.8-.5.7zM10.8 87.4l.3.5.1.4.2.7.3.6.6.2h.6l.1-.2v-1.1l.6-.8-.6.4-.2-.6.3-.2.2-.4-.6-.4h.8v.5l.5.3.6.2.7-.2.4-.3.3.1.4-.1h.3l-.5-.2H16l-.1-.1v-.5l-.1-.4-.4-.4-.5-.4h-.4l-.5.1-.2.9-.2-.5h-.3l-.4.3-.1.4-.4.2v.3l.2.3v.2l-.4-.2h-1zm186.9 58.2h.1v-.1h.5v.2h.1v.7h.5v.2h.1l.1.1h.9l.1-.1.2-.1v-.2h.1v-.3h.1v-.7h-.1l-.1-.1h-.3v-.2l-.1-.1v-.2h.3v-.3l.3-.2v-.2l.1-.3h.1v-.7l-.3-.1v-.5h-.2v-.7l-.2-.1v-.1l-.2-.1h-.7l-.1.3h-.2l-.1.1v.2h-.2v.3h-.1v.9h-.1v.7h-.1v.1h-.1v.2h-.1v.3l-.1.1v.4h-.2zm-156-19.4l.1.5.6.3.5.3h.7l.3-.1.7-.2.3-.4 1-.8.1-.5v-.9l-.3-.5-.3-.2h-.3l-.5-.2H44v1.2l-.4.3-.6-.2-.8.4-.4.4zm16.4 17.1h.1l.1.4h.2v.1h.2l.3.2v-.2l.2-.2h.1v.3l-.3.1v.3l-.1-.1h-.2l-.1.3v.1l.1.1h.3v.3l.2.2v.1l.1.1v.1H59v-.1l-.2-.2h-.2v.5l.2.1-.1.1.1.1h.5v.3h1.2l.1-.3h.2l.2-.2.2-.2v-.1l.3-.1v-.3h.2l.1-.1h.2v-.4h-.4v-.3h.2v-.3h-.3l-.2-.4v-.3h.4v-.1h-1v-.2h.3v-.4l-.3-.1h-.2v-.2h-.3v-.1h-1.3v.3h-.4v.1l-.1.2v.2h-.3zM11 61.8l.2.4v.1l.1.2v.1l.1.2v.1l.3.1v.1h.2l.1.2v.4l.2.1.1.1.1.1h.8v-.7l-.2-.1V63l.3-.3.1.3h.1v.5l.1.1h.6l.2-.2.2-.1v-.1l.1-.1v-.6l.1-.3V62h.2-.1v.4l-.2.1v.2h.4V62h-.4l-.1.2h-.1v-.4h-.8l-.2.2h-.3v-.8H13V61h.1v-1.2l-.1-.1h-.1l-.1-.3h-.2l-.3-.1h-.2l-.2.3-.2.2-.1.1v.2h-.2v.1l-.1.3v.5h-.2v.4l-.1.2v.1zm46.3 104.9v.3h.2l.1.2h.4v-.2h.2l.1-.2h.1v.2h.1v.3h.1v.1h.1v.2h.1v.1h.1v.1h.1v.1h.2v.1h.7v-.2h.4v.2h.1v.2h.1v-.2h.1v-.8h.1v-.2h.1v-.3h.1v-.2h.1v-.3h.3v-.1h.2v.5h.1v.1h.1v.1h.3v-.5h.2v-.3h-.4l-.1-.2v-.1l-.1-.1v-.1h-.1v-.1h-.1v-.1h-.2v-.1h-.1v-.1H61v.8h-.4v-.3h-.3v.3h-.2v-.3l.3-.1h.1v-.1h.1v-.1h.1v-.8h-.3v-.1h-.8v.3h-.5v.1h-.5v.1h-.3v.1h-.2v.2H58v.3h-.2v.3h-.1v.1h-.2v.1h-.2v.3h-.1v.4zm1-1.2v-.2zm2.2 2.3v-.1.3zm96.4-31.8v.3h.1v.1l.5.2.2.2h.2l.3.2h1.2l.1-.4h.3l.2-.1.1-.1.2-.1v-.1l.1-.2v-.7l-.1-.1v-.2h-.3v-.3l-.2-.2v-.2l-.2-.1v-.3l-.1-.1h-.1v-.3h-.4v-.1h-.3v-.2h-.7l-.1.2-.1.1v.1l-.3.1-.1.3h-.1l-.1.3v.7h-.1l-.1.2v.3l-.2.3v.1zm-5.8-32.5v.4l.1.1h.3v1l.3.2v.4h-.3v.2h.3v.4h-.3v-.2h-.2v.1l.3.1v.1l.1.2h.3v-.5.3h1.3l.2-.3h.4l.1-.1.2-.1.2-.1.3-.3v-.2l.3-.2v-.5l-.2-.5-.1-.2-.1-.2-.1-.1-.1-.2-.2-.1v-.2h-.2v.1h-1l-.3.1h-.5l-.3.2h-.3v-.1h-.4zM42.8 141v.2h.2v.1l.2.3v.8H43v1.3l.2.3.3.2h1.1l.1-.2.3-.1v-.3h.2v-.3h.2v-.3l.2-.4v-.6l-.2-.3v-.1h-.2l-.2-.2-.3-.1V140l-.2-.3v-.1h-.2v-.1h-.8l-.1.2H43h.3v-.4H43v-.2l.3-.1H43v1l-.2.2zm165-53v.4l.2.1.4.2h.2l.1-.4.3.2v.3h.5v.3h.1v.4l-.1.1h-.2l-.2.2h-.1v.2h-.2v.2h-.2v.3h.4l.3.1h.2l.3.1h.5v-.3h.3l.1-.1h.1l.2-.3.2-.1v-.2l.1-.3v-1.1h.2v-.6h-.8v-.1h.3v-.5h-.1l-.2-.1-.2-.3h-.5v-.3h.2v-.1h-.3l-.3.3-.2.2h-.6l-.2.1v.1h-.1l-.1.3h-.2v.1h-.2v.4h-.3zM89.2 254.2v.3l.8-.2.3.3-.3.1-.3.1-.3.7.3.7.3.3h.3l.1.2.4-.1.4-.3.4-.3v-.5l-.4-.5.4-.2.4-.3.1-.4v-.8H92v-.5l-.4-.3-.4-.4-.4.1-.4.2h-.5l-.3.4v.3l-.3.3.2.2-.3.4zm-25.9-57.7l.2.1h.4v-.2l.1-.1v.3h.2v.1l.2.1v.6h-.3v.4h.7v.1h.4v-.2l.2-.1h.3v.2h.3l.1.1.1.1v.5H66v.5-.3l.2-.2h.1v-.6l-.3-.3h-.2l-.1-.1-.2-.2h-.2v.3H65v.2h-.7l-.1-.4.4-.1v-.7h-.3l-.2-.2h-.3l-.1.1h-.3v-.2l.2-.1.1-.2h.2v-.5h-.3l-.2-.1v-.2l.3-.2h.2v.3h.5v-.3l-.3-.2v-.1H64v-.4l.4-.1v-.4h-.7v-.3h.6v-.5h-.2v-.2l.4-.3h.4l.3-.3v-.4h-.9v-.4l.3-.1v-.1h.7v-.4l-.2-.1v-.2l.4-.2h.1l.2.4v.1h.2v.1h.3l.1-.3v-.5h.3l.2.4.1.1v.1h.2v.1h.5v-.3l-.3-.1-.2-.1v-.2h.5v-.7h-.4v-.1H67v-.3l.4-.1.1-.2.1-.3v-.2h.2v-.1h-.3v-.1h-.2v-.1l.1-.2h.1l.2-.2h.2v-.2h.7v-.2l.1-.1v-1.3h-.6v.3H68v.2h-.2v.3h-.6v-.2l-.2-.2v-.4l.1-.1h.1v-.1h.6v-.1h.2v-.1h.2l.2.2h.3v-.3h-.3v-.4h.6v-.1h.2v-.4l-.2-.1v-.1h-.2l-.1-.1v-.3h.3v-.3l-.4-.2h-.1l-.2-.2v-.5h-.5v-.5h.5l.2.2h.2l.1-.3v-.4.3h-.4v-.3h-.1v-.1H68v-.4h.8v-.3l.1-.1h.1l.1-.1h.4v-.4h-.7l-.2-.1h-.1l-.2-.3v-.1h.6v.2h.1v.2h.3l.1-.2v-.8h.2v-.5h-.3v-.4H69v.3h-.3l-.2-.1v-.3h.4v.2h.4v-.7h.5v.2h.7v-.2h.1v-.3h.2v-.3.2h-.3l-.1.2h-.2v-.3h-.1v-.2h.2l.1-.2v-.2h-.8v-.8h.2v-.3h.7v-.2h-.2v.3h.3l.1-.3v-.1l.2-.1.1-.3h.1v-.1h.6l.2-.2.1-.2v-.4l-.3-.2h-.3v.3h-.3v.1H70l-.2-.2v-.1l-.1-.1h-.2v-.2H69v1.6l-.1.1h-.5v-.2h-.2v-.2l-.2-.2h.6v-.3h.1v-.5h-.3l-.2-.3h-.1l-.1-.3h-1v-.1.1h.2v.2h.1l-.2.2v.3l.3.3h.1v.2l-.3.2h-.3l-.2-.2v-.3l-.2-.1v-.2l.3-.3v-.1h.1v-.6h-.5v-.2h-.5l-.2-.2v-.5l-.1-.1-.3-.1v-.2h.6l.1-.2v-.1h.2v-.1l.2-.1h.4l.2-.2.1-.1h.2l.1-.3v-.5l-.4-.2v-.1h-.2l-.3.1-.1.1H66v-.2h-.4v-.1h-.3v-.1h-.1l-.2-.2h1l.2-.3v-.4l.2-.2v-.2h.2v-.2h.2l.2-.1v-.1h.1v-.2l.3-.1v-.1h.1l.1-.1v-.3h.1v-.6l-.4-.1.2-.3h.3v.5h.2l.3-.2h.7v-.5h-.5l-.2-.1h-.1l-.1-.1-.2-.1v-.6h.3v.2l.1.1.2.1h.8v-.1l.1-.1v-.1l-.4-.4v-.6h.2l.1-.2h.1l.1-.1v-.3l.1-.1.2-.1v-.2l.1-.1-.2-.3h-.1v-.3l.2-.2h.9l.1-.1v-.6h-.2v.7l-.1.1h-1v.5h.1v.2h.2v.3h-.3v.5l-.4.2H69l-.1.3v.5l.1.2.3.2v.2h-.9l-.1-.3-.1-.1-.2-.3h-.1v.2l-.1.1v.7h-.2v.2h-.1v.1l.2-.3h.2v-.1h.1v.3h.3v.1h.1l.5.1h.1v.3h-1.1v.2h-.2v-.5h-.2l-.2.3v.2l.2.2v.5l-.3.2v.2l-.2.1-.3.2-.3.2h-.1l-.2.2v.3H66v.4h-.2v.1l-.2.2h-.2l-.2-.3v-.1H65l-.2.4v.2h.4v.2h.2l.3.2h.2l.3.2h.5v-.3h.5l.1.3v.5l-.3.3h-.2v.1h-.6l-.2.1v.4h-.1l-.1.1-.3.1h-.1v-.3h-.3v.5h.2l.1.1.3.1v.7h.2v.1h.5l.2.1.1.2.2.1v.1l-.2.2v.1l-.2.1v.6l.3.2.2.1h.6v-.4l-.2-.2-.3-.2v-.2l.2-.1h.2v-.2h.5l.2.3.2.2v.2l.2.2v.2h-.4v.2h-.4v.2h.2l.1.2h.3v.2h.6v-.2l.2-.2v-1l.1-.1h.4l.2.3v.2h1.5v-.2l.1-.1h.3v.2h.1v.5l-.4.2H71l-.3.1v.2h-.1v.1l-.2.1h-.7l-.1.2v.7l-.2.2v.4h1v.3h-.2v.4h.2v.3h-.7v-.3h-.4v.3h-.2v.4h-.7v.3l.2.2h.4l.2-.2h.2v.2l.2.3v.1l-.3.3v.6h-.2v.2H69v-.3h-.2l-.2-.2h-.4v.5h.4v.2h.8v.2h.2v.1l-.2.1h-.6v.1h-.2v.3H68v.4l.3.3.4.1.1.1v.1h-.7v-.2H68l-.3.2v.2l-.1.2v.1h.3v.1h.2l.3.2v.6h.2l.3.1v.4h-.3v.3h.3l.1.3v.3h-.4v.1h-.1l-.3.1v.3l.3.1h-.3l-.2-.2h-.2v.3h-.6l-.1.1H67l-.2.2v.5h.2v.1h.3l.1.2h.4v-.4h.2v-.1l.2-.1h.1v-.2h.3v1.4l-.4.2h-.5l-.1.1h-.3v.2h-.1l-.2.1v.2l.4.2h.1l.1.2v.2l-.3.1-.1.1-.2.2v.3l.1.2h.4v.2h.2v.3h-.5v.1H67v.2l.2.1.2.2v.2h-.3v-.3l-.1-.1-.4-.2v-.2h-.2l-.2.3v.4l-.1.1h-.3v-.4l-.3-.2h-.4v.4H65v.4h.3v.2h-.7l-.3.2v.6h.7v-.2.7h-.7v.1l-.3.1v.4l.3.3v.1h-.7l-.2.2v.2h.8v.6H64v.3l.1.2v.2h-.4v-.2h-.3v.7h.3v.3l-.4.3zM17.1 74.1v.2l.2.3v.3l.2.1h-.2v.4h.7V75l.1.6v.4l.3.2.1.3h.8l.4-.2.3-.3v-.8l.4-.1.1.1h.3v-.4h.5v-.2H21l-.1-.2v-.2l-.3-.2h-.2l-.4-.7-.3-.1-.7-.2-.2.2-.3.3-.2.3v.2l-.3-.4-.1-.1h-.4l-.2.1-.1.2zm215.3-14.3v.4l.3.2.1.1.1.2v.2l.5.2h.4l.2-.1h.2l.2-.2h.2v-.2h.3l.3-.1v-.1l.1-.1v-.6h-.3v-1.4l-.2-.3h-.1l-.4-.3v-.1l-.3-.3-.1-.3h-.7l-.2.3h-.2l-.2.4-.1.3v.9l.1.1.1.1v.5l-.2.2zM50 195.1v.5l.2.2v.1l.3.2.2.1.1.1h.3l.2.2h.7v-.4h.3l.1-.1h.2l.3-.2v-.2l.3-.3v-.5l-.3-.1v-.2l.5-.1v-.8l.2-.2v-.1l-.3-.2v-.2l-.3-.2-.2-.2h-.1l-.2-.3h-.4l-.3.2v.2l.5.2v.2l.1.2v.3h-.7l-.2.2h-.4l-.3.2-.1.1-.1.1-.2.3-.3.4v.1zm0 0"/><path d="M55.3 170.3v.4h.2v.3h.1v.6h.2v.3h.2v.1h.4v.3h.1v.1h.1v.3h.4v-.7h.2v-.2h.1l.1-.1h.1v-.1h.1v-.1h.1v-.1h.1v-.4h-.4v-1.2h.3v-.2h.1v-.1h.2v-.1h.2v-.1h.1v-.3H58v-.6h.3v-.1l.1-.1h.1v-.1h.1v-.6h-.3v-.1h-.1v-.1H58v.3h-1.2l-.1.1v.1l-.1.1-.1.1h-.1v.6h.3v.1h.1v.2l.1.1h.6v-.4h.1v-.1.3h.1v.1h-.3v.1h-.2v.2h-.1v.1h-.5v.1H56l-.2.1h-.1v.1h-.1v.1h-.1v.2h-.1v.1h-.1zm.7 1.6h.3zm1.6-2.2v-.2zm216.4 36l.2.2h.6v-.3h.1l.1-.1v-.2l.2-.1v-.2h.4v.3l.1.1v.1h-.3v.1h-.1v.1h-.1.6v-.4h.1v-.1h.1v-.1h.2v-.1h.2v-.2l.1-.1v1l.1.1h.1v.1h.2v.3h.7v.1l-.3.1v.9h.2v.2h.1v.1h.3v-.3h.1v-.1h.2v-.1h.1v-.1h.4v-.2h.1v-.1h.2v.3h.4l.1.2v.1h.1v.1h.4v-.4h.3v-.2h.1v-.1h.1v-.2h.1v-.5h-.3v-.2h-.1v-.1h-.1v-.1h-.1v-.1h-.3v-.1h-.5v-.1h-.4v.3h-.1v.1h-.1v.2h-.1v.1h-.2v-.2h-.3v-1h-.2v-.2h-.1v-.1h-.1v-.1h-.4v-.1h-.4l-.1.3h-.1v.1h-.1v.1h-.2v-.3h-.1v-.1h-.2v-.2h-.2v-.1h.4v-.1h-.2v-.2h-.3v1.2h.3-.4v-.4h-.3v.4h-.3v-.3h-.2l-.1-.1h-.3v.3h-.2v.1h-.2v.8zm-40-33.5v-.2h.2v-.3h.3v.3h.2v.1h.2v.1l.3.1h.3v.3h1.4v.3h.4l.2.1h.1l.1-.2h.5l.2-.3v-.5h-.2l-.2-.2v-.2l-.2-.2v-.1h-.2v-.3h-.6v.3h.3l-.2.1h-.2l-.2.2v-.4h-.1l-.2-.2v-1h.3l.1-.2v-.8h-.2l.1-.2v-.6h-.2l-.1-.2h-.4v.5l.2.1-.2.3-.2-.3v.6l.2.1v.1l-.3.3v.3l-.1.1h-.1v.1h-.4.2l.1.3h-.3v.3h.3v.2h-.7l-.1.3v.2l-.3-.2h-.2l-.1.2v.6zM199 38.8h.3l-.3.2.2.3.2.1.1.4.2.3h2.1V40l.4-.1v-.4l-.2-.2h.2l.1-.4V38h-.2v-.5l-.1-.2h-.2v-.1l-.5-.2h-.5l-.6.3-.3.1-.1.1-.4.3-.2.3zm-85.9 41.6v.2l.3-.1v.3h.2v.3l.2.4v.3l-.3.4v.8h.3v.4l.2.1.3.1.2.1.2.1.2.2.4-.3.2-.2.1-.1h.2v-.3h.2V83l.1-.1v-.2l.3-.2v-.1l-.3-.1V82h.2v-.2l.3-.1v-.1l.1-.2v-.3l-.2-.1h-.1l-.2-.2h-.2v.5h-.2l-.1-.3v-.2l-.3-.1v-.2h-.2l-.1-.2h-1.2v.2l-.3.2v-.5h-.4zm249.6 127.3h.3v.2h.2v.4h.2v.1h.3v.2h.2v.1h.7v-.2h.2v-.3h.3l.1-.2v-.1h.2v-.2h.1v-.1h.1l.1-.1v-.1h.1v-.2l.1-.2h.1l.3-.2v-.1l.2-.2h.1v-.4h-.2v-.4l-.1-.2-.1-.1v-.4h.2l.1-.1v-.2h.2v-.4h-.3l-.1.2v.1h-.2v.2h.3v.2h-.6v.1h-.4v.3l-.4.1v.2h-.2v.3h-.1l-.4.2-.2-.3h-.3v.1l-.1.3h-.2l-.1.2v-.6h-.2v.6h-.2v.1h-.2v.3h-.1v.2l.3.1v.4h-.3zM117.6 275v.7l.2.1v.2h.1v.3l.1.1v.1l.2.2.1.1.3.2h.2l.2.3h.2l.1.3h.3l.2.1v.3h.2l.3.3v.2l.1.2v.7h-.2v.2h-.2v.1h-.3l.3.3.3-.1v-.2l.1-.1.2-.2v-.3l.2-.2v-.6l-.2-.3-.2-.2-.2-.2h-.2l-.1-.3h-.2l-.4-.3-.1-.1-.3-.1-.2-.2-.1-.1-.2-.1-.1-.2h-.1v-.2l-.2-.2v-.5l.2-.1v-.2l.1-.3v-.3l-.2-.1v-.4l.2-.1v-.2l.2-.2.1-.3V272h.2l.2-.1.2-.2h.5l.2.3.1.1v.7l.2.2v.1l.1.2h.1v.2h.2v.5h.1v.1l.1.1.2.3h1v-.3h.3v-.4l.2-.2v-.6h.1v-.2l.1-.1.1-.2.1-.1h.1v-.1h.3v-.1h.8l.3.2.1.2.2.2.3.1.2.1h.5l.2.2h.8l.3-.2v-.2h.4v-.1h.2v-.5h-.6v.3h-.2v.1h-.3l-.2.1h-.8l-.2-.2h-.1l-.3-.3h-.5l-.1-.2h-.1l-.2-.1h-.3v-.2h-.6l-.1.3-.2.2h-.3v.1l-.1.1-.1.2v.5l-.2.3v.2l-.1.3v.1h-.3l-.4.2h-.3v-.2l-.2-.3-.1-.2-.1-.2-.1-.2v-.1l-.2-.2v-.5l-.1-.3-.1-.1v-.2l-.1-.1-.3-.2h-.7v.2h-.3l-.1.3-.2.1v.2l-.1.2v.5l-.1.1-.2.3v.2l-.1.1-.1.2-.2.2-.1.1v.8zm.2-.2v-.3h.2v-.3h.2l.1.3v.5h-.3v.6l-.2-.3v-.3zM15.9 81.7v.4h.6v-.4h.3v1.1l.2.2h.1l.2.3h.2l.2.2h.5l.3-.4h.3l.2-.1.3-.3v-.3l.3-.2v-.8l-.4-.5-.2-.3-.2-.3h-.4l-.3-.2h-.5v.3l-.4.1-.1.2-.2.2v.3l-.2.1-.1.2v-.1l-.2-.2V81l-.1.2-.3.1v.1l-.2.2zM175 210v.2l.2.1h.1v.3l.1.1v.3h.1v.1l.1.1h.2l.4.2h.3l.3-.2h.2l.3-.2.2-.1v-.3h.2v-.2l-.3-.2h.2l.1-.2v-.8l-.3-.2.2-.1v-.2l-.1-.1-.2-.3-.1-.1-.1-.2-.2-.1-.1-.1-.2-.1h.3v-.3l-.4-.2v.4h-.2l-.1.2h-.5v.2l-.3.3v.6l-.3.4v.1l-.1.1zm2.8-66v.4l.2.1h.1v.2h.3l.2.1.2.1h.2v.3h.2v.2h.2v.2h.1l.2.1h.8l.1-.2h.3v-.2l.1-.2v-.7l-.2-.1v-.2l-.1-.1v-1h-.1l-.1-.1h-.2v-.2h-.3l-.2-.2h-.5v-.1h-.2l-.1.3h-.2v-.3l-.1-.1v-.3.4h-.3v.4h-.2v.1l-.2.1v.5l-.2.1v.2l-.1.2zM48.2 263.5l.3.2h.3l.2.3h.5l.3.2h.8l.4-.2h.1l.1-.2h.1l.2-.1.2-.1.3-.2v-.1h.3v-.2h.1v-.1l.2-.1v-.1l.2-.2v-.2l.2-.2h.1l.1-.2.4-.3h.1l.1-.2h.2l.2-.2h.1l.4-.3h1.2l.2.3h.1l.1.2h.1l.2.3.2.1.2.3v.3l.2.2v.5h.1v.1l.1.2.2.1.1.1h.1l.2.2h.4l.3-.2.2-.1.1-.1v-.2h.2v-.3l.2-.1v-.5l-.2-.4-.3-.6v-1h.3v-.3h.6v.3l.2.2v.8l-.2.2v.4h-.2v1.1l.4.2v.2l.2.2.2.1.3.2h.2l.3.3h.2l.1-.3h.2l.3-.1.1-.1.1-.2.2-.1h.3v-.5h-.1l-.3.3H62v.3l-.6.1h-.8l-.2-.3h-.1l-.1-.3H60v-1.4l.1-.2.1-.3v-.7l-.2-.1v-.2l-.1-.2h-.2l-.1-.1h-.1l-.2-.2H59l-.2.3-.5.7-.3.2h-.3v.1l.3.3h.4v-.3l.2.2.1.4.2.4v.3l.1.2v.7l-.3.2H58l-.2-.2-.3-.2-.1-.2-.1-.3v-.1l-.1-.3-.1-.1v-.1l-.1-.1v-.2l-.1-.1-.1-.1-.2-.1v-.1l-.3-.1v-.1l-.3-.1v-.2h-.1l-.5-.3h-.7l-.1.3h-.2l-.2.2-.2.1h-.3v.3h-.1l-.1.1-.1.1h-.1l-.3.3v.2l-.3.2-.2.2-.3.3-.1.3h-.2l-.3.4-.4.2-.2.1h-.3l-.2.2h-.7l-.4-.2-.3-.1-.4-.2-.4-.1zM54 261h.3v-.2h.3v-.2h1.1l.1.3h-.7v.1zm4.6-90.2v.2h.2v.2h.1v.1h.4v.1h.1v.1h.2v.1h.2l.1.1v.3l.1.2h.9v-.2l.1-.2v.6h-.2v.1h-.1v.1h-.1v.2l-.1.1v.7h.4v.1h.1v.1h.2v.1h.4v-.3h.2v-.1h.1v-.1h.1v.4h.2v.1h.4l.1-.3v-.1h.1v-.5H62v-.3l-.2-.1v-.1h.4v-.2h.1v-.1h.1v-.2h.1v-.4l-.3-.1v-.1H62v-.2h-.3v-.1h-.3v-.1h-.2l-.1-.2H61v-.1h-.3v-.1h-.1v-.1h.4v-.4h-.3l-.1.3v.2h-.1v-.3h-.1v-.2h-.1v-.1h-.2v-.2H60v-.1h-.3v.3h-.4v.2H59v.1h-.2v.1h-.1v.1l-.1.1zm.3 0v-.2zm.2-.5h.2zm.4 1.1h.2v.2zm.3.1v.2zm1-.7h.2zM269.3 197l.1.2.1.1h.2l.1.1h.5v.3h.3v.1h.2v.3l.2.5v.3l.2.1.3.3h.5v.2l.1-.2h.1l.2-.1h.1l.2-.2h.3l.2-.1v-.2l.2-.2v-.9h-.1v-.2l-.1-.1v-.3h-.4v-.1h-.3v-.2h-.1l-.1.3v-.3h-.3v-.1l-.1-.1v-.1h-.3v-.2h-.3l-.3.2-.1.1h-.2l-.1.2h-.1v.1h-.4v-.2h-.5l-.1.2zm99.7-17.4v.2h.3v.1h.1v.1h.2v.3h.2v.2h.1v.2h.1v.3h1v-.3.3h.3v-.3h.1v-.1h.4v-.2h.2v.3h.5v-.3h.1v-.3h-.3v-.3h.3v-.1h.3v.3h.1v-.2h.2v-.1l.1-.1v-.5h-.3v-.3h.2v-.5l-.2-.1h-.1l-.1-.2h-.8v.3h-.2v.2l-.1.1v.1h-.1v.1h-.3v.1h-.2v.1h-.1v.3h-.2v.2h-.1v.1l-.1.1h-.1v-.9h.3v-.1h-.3v-.1h-.3v.4h-.1v-.3h-.1v.3-.3h-.3v.3h-.4v.2h-.1v.1h-.1v.1h-.1zm1.3.3h.3v.1h-.2v.2h-.1v-.2zm-95.5 1.4v.2l.2.2v.3h.2v.4l.3.1.2.3h.5l.1.1h.4l.3-.2h.3l.3-.3h.1v-.1h.2v-.1l.1-.2v-.3h.1v-.2l-.1-.3v-.2h-.3v-.2l-.1-.1-.2-.2v-.1l-.1-.1v-.1l-.2-.2h-.1v-.2h-.2l-.2-.2h-.1l-.1.4v.1h-.5l-.2.2h-.3v.1h-.3l-.1.3-.1.3v.1h-.2zM53.2 199.5v.4h.2v.2l.6.4.5.2v.4l.4.1h.1l.1-.3h.8l.1-.2.3-.4v-.1l-.2-.2-.3-.1v-.1l.3-.2.2-.4v-.6l-.3-.6-.7-.2h-.1l-.2.2h-.2l-.2.4-.5-.1-.7.7-.1.2zm348.6-63.1v.2l.2.1v.7h.5v.6h.1l.1.2.1.1h.1l.1.1v.1h.3v.1h.2l.1.1h.1l.1.1h.2v.2h.9-.4v.2h-.1v.4h.6v-.3h.2v-.5l.1-.1v-.2h.1v-.8l-.3-.1v-.3h-.1v-.1h-.2v-.1h-.1v-.1h-.2v-.2h-.1v-.1h-.3v-.2h-.1v-.1h-.4l-.2-.1-.2-.1-.1-.1v-.1h-.1v-.3h.4v-.3h-.3v-.1h-.1v-.1h-.3v.3h-.2v.3h.3v.1l-.3.1h-.1v.4l.2.2h.2v.2h-.3v.2h-.1v-.4l-.1-.1-.1-.1h-.1v-.1l-.1-.1v-.1h-.2l-.1.3zM199 60.8l.2.2h.2l.1.2v.1h.4v.2h.3-.2l.2-.2h.2v-.1.1h.2l.2-.2v-.2l-.3-.1h.5l.1-.2h.2v-.1h.2v-.3h.3v-.6h.1v-.2l.1-.2v-.7h-.2v-.8l-.1-.1h-.4l-.1-.2h-.5l-.2.4-.1.1v.6l-.2.2-.2.2h-.1l-.2.4-.2.4v.3l-.4.3v.3h-.1zM-3.7 173.7v.2l.1.2h.1l.1.1h.2v.2l.2.1.1.1h.1l.3.3h.5l.5-.4h.3l.2-.2h.3l.1.3h.2v.3l.2.1v.3l-.2.1-.2.1-.1.1-.3.2h-.2l-.2.2h-.2v.8l.2.2h.2v.2h.9l.2.1v.4l-.3.1v.2l-.3.1v.6l.2.3h.1l.2.2H1l.3.2H2v-.4h.2l.1-.2v-.5h.1v-.1H3v.8l-.3.1v.2h-.1l-.3.2-.1.1-.2.2-.1.2-.3.1-.1.1-.2.1v.2l-.2.2v.8l.3.3.1.1.1.2v.5l-.2.1-.1.1H1v.2H.7v.2H.6v.4l.3.2h.8l.2-.3.1-.1.1-.2v-.2h.2v-.3h.1l.2-.1h.2l.2-.2h.5l.1.4.2.2v.2H4v.6h-.1l-.1.2h-.5v.4h.4l.1-.4H4v-.2l.2-.1v-.2l.3-.3v-.5h-.2l-.1-.3H4l-.1-.1h-.1v-.1h-.5l-.1-.1h-.4l-.2.3-.3.1-.1.2-.2.2v.1l-.2.3-.1.1v.2H1v-.5l.5-.3h.1l.3-.1v-.3H2v-.6h-.3l-.1-.1v-.1l-.1-.3v-.7l.1-.1.2-.2.2-.1v-.2l.3-.1v-.2h.3v-.3h.2l.2-.1v-.3l.3-.2v-.4l-.3-.1v-.1l-.1-.2h-.7l-.1.2v.2H2v.6h-.3v.2h-.2l-.3-.2h-.1l-.2-.2H-.3v-.2l-.2-.2v-.3l.2-.1.3-.2v-.8h-.3v-.2h-.9l-.3-.2v-.3l.3-.1v-.2h.3l.1-.1.2-.1.1-.1.2-.2.3-.2v-.7l-.2-.1-.1-.2h-.1l-.3-.1h-.6l-.2.3h-1l-.3-.1h-.1l-.2-.3h-.2l-.1-.1v-.6l.1-.2.1-.2.2-.1v-.9h-.3l-.1-.2v-.4h.1l.3-.3h1l.2-.1v-.1l-.4.1h-1l-.3.2v.1l-.2.1v.3l.2.3.1.1.1.1v.8l-.2.1-.1.2v.2zm7.5 8.8H4l.3.2v.2h.1v.5h-.3v-.3H4v-.1l-.3-.1v-.3zM137 49h.1l.1.2h.2v.3h.3v.1h.2l.1.2h.3v.1l.3.1h.4l.2-.2h.4v-.2h.2l.1-.2h.1v-.6h.2v-.2h-.2v-.1l.1-.1.2-.2v-.4l-.3-.3h-.2l-.1-.2h-.1l-.1-.1h-.1V47h-.9l-.3.4h-.3l-.2.3v-.4l-.2.1v.2l-.1.2v.2h-.2v.3l-.2.2v.4zM58.7 161.8v.2h.2v.3h.1v.7h.2v.5h.1v-.4h.5v.3h.6v-.3h.1v-.1h-.3v-.5h.3v-.1h.1v-.1.3h.1v.1h.1v.1h.2v.2h.7v-.2h.1v.2h-.4v.2H61v.1-.3h-.2v.7h-.1.5v.2h.1v.1h.1v.2h-.3v-.4H61v-.2h-.3v.4h-.1v.2h.3v.4h.1v.4h.3v.2h.1v.1h.2v.1h.2v-.4h.2v-.5h.5v-.1h.1v-.1h-.5l-.1-.2h.5v-.1H62v-.3.6h-.2v.3-.4h-.1v-.4h-.1v-.1h-.1v-.2h-.4v-.1h.4v-.2h.1v.4h.1v.2h.1v.1h.1v-.3h-.3v-.2h.3v-.1.4h.1v-.5h.2v-.1.4h.2v-.3h.1v-.1h-.4v-.1h.6v-.2h-.3v.2h-.2v-.4h-.1v-.1h-.3l-.1.3h-.1v-.8h-.1v-.2l-.1-.1H61v-.1h-.4v.3h-.1v.1h-.1v-.4l-.1-.1h-.1v-.1h-.1v-.1H60v-.1h-.5v.3h-.3v-.3h-.1l-.1-.1h-.3v.6h-.1v.2zm.1 0v-.2zm0 0h.2zm.1 0h.1zm0 0v-.2.3zm.1.2h.2v.2H59zm0-.1v-.2zm0-.3v-.2zm0 0v.3zm0 .4h.2zm0 0h.2zm0 0h.2zm.1 0v.2zm.1-.3h.1zm0 0h.1zm0 .3h.2zm.1.2h.1zm0 .2h.1zm0-.4h.1zm.1 0h.1zm0 .4h.1zm0-.4h.1zm0 .1h.1zm.1 0v.2zm-.1.1h.2zm0-.2h.2zm0 .2h.2zm.1 0h.1zm0 0h.1zm0-.2h.2zm.1.1h.1zm1.2-.1v.2zm.1.1h.1zm0 .2h.1zm0-.3h.1zm0 0h.1v.2h-.2zm0 .6h.1zm0-.2h.1zm0-.4h.1zm.1.3h.2v.3H61zm0-.2v.2zm0 .5v-.2.3zm0 0v-.2h.3v.3H61zm0 0h.2zm0-.2h.2zm.2-.3h.1zm0 1.3h.1zm0-1h.1zm0 0h.1zm.1.1h.1zm0 0h.1v.2zm0 .3h.2zm0-.2h.2zm126.6-37.2v.3l.3.1-.4.2v.6l.2.1v.1l.2.2h.1v.2h.4v.2h.9l.1-.3h.6v-.1h.1v-.3h.2l.1-.1h.1v-.3h.1v-.8l-.4-.1-.1-.3h-.1v-.3h-.1l-.2-.2-.2-.1-.2-.1h-.9v.3h-.5v.3h-.2v.5zM42.3 244.2v.2l.1.3.2.3h.7v.2h.3v.6l.3.3.3.4.3.2h.2l.2-.1h.2v-.9l.3-.1v-.3l.2-.2v-.7l-.5-.3-.1-.1v-.2l-.2-.2h-.4l-.1.1v.8H44v-.5l-.2-.2v-.2l-.1-.2-.3-.3-.2.4h-.5l-.2.2-.1.1zm93.3-187.6l.3.3h.1l.2.1h1.2l.3-.1v-.1h.2v-.2h.1v-.1h.1v-.3h.2v-.8l-.3-.1v-.2h-.2v-.2l-.1-.2v-.9l-.2-.1h-.2v-.1h-.1l-.2-.1h-.2v.3h-.5v.2l-.2-.3v.3h-.1v-.3.3h.3v.3l-.3.1v.9l-.1.2v.3l-.2.4v.3zM46.6 184l.6.3h1l.8-.6h.2v.3l-.2.3v.2l.1.1h.5l.2-.4v-.3l-.2-.3.3-.4v-.4l-.4-.6-.7-.2h-.4l-.3.1-.8.3-.1.2-.3-.2h-.2v.8zm192 4l.2.2v.4l.2.1.1.1v.3l.4.4h.2v.3h1.5l.1-.1h.2l.1-.3.1-.2.1-.1.2-.3v-.2h-.4v-.8l-.2-.1v-.3h-1l-.1-.2h-.1l-.2-.1h-.5l-.3.4-.3.2-.2.2zM203.7 53h.3v.5h.5l.1.2v.2h.4v-.2h-.3l.4-.4h.3l.2.2h.2l.2-.5h.1v-.7h.1v-1.1h-.2V51h-.3v-.3h-.3l-.2-.3h-.5v.2l-.3-.1v.1l-.1.1-.3.3v.2l-.3.3v1.2zM50.1 189v.1h.2l.1.2h.2v-.4h.3l.1.2h.5l-.1.2-.2.7.1.4.2.2.1.1h.5l.4.3h.5v-.4l.3-.2h.4l.2-.4.1-.4v-.2l-.2-.1-.1-.3-.3-.3h-.1l-.5-.3h-.9l-.3-.2-.1-.2h-.3l-.2-.2v.3l-.4.5-.3.2zm12.7-33.3v.3h.2v.4h.2v.1h.1v.1h.4v.1h.3v.6h.2v.1h.3v.1h.3v-.3h.2v-.2h.2v-.8H65v-.1h-.2v-.9h-.1v-.2h.5v-.5H65v-.1h-.3v.3h-.1v-.3l.3-.1v-.1h.1v-.5h-.3v-.1h-.1v-.1h-.3l-.1-.1h-.1l-.1-.1h-.2v.2h-.3v.2l-.1.1v.1l-.1.1v.1h-.1v.7h.3v.1h-.3v.1h-.1v.4h-.3v.1h-.1v.2zm116.4-65.5v.5h.3l.1.2.2.3v.1h1.6v.2h.1v.1h.4-.4v.4h-.1l.2.2h.2v.1h.2v-.5h-.4v.2-.1l.4-.2v-.1l.1-.1v-.3h.2V91h.1-.4v.2h-.3v.1h-.1v.1-.4h.3l.1-.1v-1.1h-.3v-.3h-.2v-.1l-.2-.1h-.2V89h-.1l-.1-.1h-.1l-.1-.2h-.7l-.1.3h-.1v.3h-.2l-.2.1v.1l-.1.3v.2zM201.5 193v.3h.2v.1h.1v.2h.1v.1h.1v.1h.2v.2h.4v.2h.2v.1h.2l.2-.3h.3v-.2h.3v-.1h.1v-.2h.1v-.2l.2-.1v-.5h.1v-.3l-.3-.1v-.1h.7v-.6h-.4v-.1h-.3v.3h-.2v.2l-.1-.3h-.2v-.1h-.3v-.1h-.2v-.1h-.3v-.2h-.4v.4h-.2v.1h-.1v.3h-.2v.2h-.1v.3h-.1v.1h-.1v.2l-.1.1zm-14.1-35v.5l.2.1v.4h.1v.1l.1.1v.3l.1.3v.2h-.1v.4l.5.1.1.2h.3v.3h.1v-.3l.2-.1h.1l.3-.2.2-.1v-.1l.2-.2v-.2l-.3-.2v-.2l.1-.4-.2-.4v-.4l-.2-.2-.2-.2v-.2h-.1l-.2-.3h-.5l.1-.2h-.2v-.1h-.1l-.1.3h-.1l-.1.2-.1.1zm0 0"/><path d="M112.6 282.2h.2v.2h.2v.1h1v-.3h.3v-.1l.1-.1h.1l.2-.3v-.7l-.3-.2v-.1l-.3-.3-.1-.2-.2-.2-.2-.1h-.1l-.1-.3h-.1v-.2l-.2-.1v-.3h.3v-.4l.1-.2v-.2l.1-.2v-.3h.3v-.2h.8l.3.2.1.1h.1l.1.2h.2v.2h.3l.2.1h.1l.1.1h.2v.1l.2.1.1.2h.2v.2l.1.1v.2l.1.1.1.1v.1l.3.1v.1h.2v.2h.8v.2h.3l.1.1h.9l.1-.3h.1l-.3-.4v.3h-1.3l-.1-.3h-.1l-.2-.1h-.1v-.1h-.1l-.2-.2v-.2l-.3-.2v-.1l-.2-.2h-.1v-.2h-.2v-.2l-.2-.1-.1-.2-.2-.1v-.1h-.2l-.1-.1h-.1l-.3-.2-.2-.1v-.2h-.7l-.2-.2h-.7l-.3.2-.2.2-.2.1-.1.1v.3l-.3.2v.4l-.1.1v.6l.2.2v.3l.2.1v.2l.1.2.2.1v.1l.1.1.1.1.2.1.2.2h.1v.2l.2.1.1.2v.5l-.3.1v.2h-.1l-.1.1h-.8l-.1-.1zm.4-3.8v-.3l.2-.2.1-.2v-.1h.2v-.3h1.7l.1.3h.2l.1.1.2.1v.2h.2l.2.3h-.5v-.3h-.4v-.2h-.1v-.1l-.2-.1h-.1l-.2-.1h-.3l-.1-.1h-.6l-.2.3v.4l-.2.1v.5h-.1v.3l-.1.1v.2h-.1zm3.7-.2l.3.2v.1l.1.1.2.4h.2v.1h-.3v-.1h-.1v-.2h-.1v-.2l-.1-.1-.1-.2zm-70.3-84.8l1.2.6h1l.7-.4v-.3l-.1-.7-1.4-.6-.3-1.3H47l-.4.2v1.1l.1.1h.4l-.6 1zm235.9 16.9v.5h.2l.1.2h.2l-.1-.3-.2-.2v-.7h.2l.1-.1.2-.2h.8v.3h.1v.2h.1v.6h.2v.1h.2v.1h.2v.1h.6l.2-.3.2-.1v-.5h.1v-.1l.2-.2v-.1l.1-.1.1-.2.1-.1.2-.2h.1l.2-.2h.2l.3-.2h.8l.2-.2h.5l.3-.1h.4l.6-.1h.1l.1-.1h.2v-.1h.3v-.3h.1v-.5h-.4l-.1-.2h-.3l-.1.3h-.1l-.1.2h-.6l-.1-.1-.2-.1-.1-.3v-.1l.3-.1v-.3h.1v-.2h.2l.1-.2.3-.2v-.2l.1-.1v-.7h.2l.1-.2h.3l.1.3h.1l.1.1v.3l.2.1v.1l.1.2.3.2.1.1h.4l.2-.1.2-.2.1-.1v-.7l-.3-.1-.1-.1h-.4l-.2-.2h-.3l-.1-.1h-.1v-.1l-.3.2h-.7v.2h-.2v.3l-.1.3v.1h-.1v.3l-.2.2h-.1v-.3h.2l.1-.1-.1.1-.2.3-.1.2-.3.1v.3h-.1v.4l-.2.4v.1l.2.1.3.1h.8v-.2h.1v-.1h.2v-.1l.1-.1h.3v.4h.2v.4h-1.1l-.5.2h.4v-.2h-.4l-.2.2h-.8v.1h-.5v.1h-.3.3-.2v.1h-.5.2l.2-.3.2-.1h.1-.4l-.3.3h-.1v.1h-.1v.1h-.1l-.2.1v.2h-.3v.1l-.3.1v.1h-.2.3v-.2h.2v-.2h-.2v.2h-.2l-.1.2h-.1v-.2h.3v-.1h.1-.3v.1-.6h-.3v-.1h-.2v.3h-.2v.1l-.1.1v.2-.3l.3-.1v-.2h.4v.6h.1v.4h-.3v.1l-.1.1h-.3.4v.1l-.2.1h-.2v.2h-.2.2v.2h.2v-.2h.4v.3l-.3.1h-.1v.2h-.8v-.3h-.1v-.2h-.1v-.6h-.2v-.1l-.2-.1h-.1l-.1-.1h-.6v.3h-.2v.1h-.1v.1h-.1v.2l-.1.1-.1.3zm2.7-.4h.2v-.5h.2v-.1h.2v.5l-.3.1v.1h-.3zm3.7-2.5h.3v.2h.3-.6zm2-2.7h.1l.2.1h.4l.2.2h.2l.2.1v.7h-.3l-.1.2h-.2l-.2-.2-.2-.4v-.2h-.2v-.2l-.1-.2zm-184 52.9v.4h.2v.5h.4v.2h.2l.2.2h.8v-.3h.1v-.1l.3.2.1.2h.2l.2-.2.1-.1h.1l.2-.3.2-.3v-.6l-.2-.1v-.2l-.1-.1h-.9v-.2h-.6l-.2-.1h-1v.3h-.2v.2l-.1.2zm257.9-132.2h.3l.1.2v.4h.6v.4h.3v.1h.1l.1.1h.1l.2.2h.6l.3-.3.2-.2v-.2h.2v-.1h.3v-1.2h-.2v-.4h-.1v-.2h-.1v-.1h-.2v-.1h-.4v.2h-.8l-.2.2v.2h-.2v.1l-.1.1-.1.1v.1h-.2v.5h-.3l-.1.1v-.4h-.4zM206.7 51.3v.3l.3.2v.2-.2h.4v.2h.6-.2v.1l.1.3h.5-.1v-.7h-.3v-.2h.2l.2.3h.1l.2.1h.3l.2-.2.3-.2v-.1l.1-.1v-.7h-.1V50l-.3-.2v-.3h-.5v-.2h-.6l-.1-.2v.2l-.1.1v.1h.1l.1-.1v.3l-.3.3h-.2v-.3h.2v-.1l-.2-.2h-.2v.7l-.1.3h-.3v.3h-.2.3v.3-.4l.2-.1v.4l.1.1v.2l-.2.3h-.4v-.2h.4zm-7.4 210.6v.4h.2v-.5l.2-.3h.4v.2l.2.1v.2h.2v.2l.2.1.2.1h.3l.1-.4.2-.2v-.1l.3-.2v-.1l.2-.1v-.3h.2l.1-.2.3-.3.3-.1h.4l.2-.2h.2l.1-.1h.8l.3.3.3.3h.2l.2.2h.1v.1l.3.2.2.3v.2h.2l.2.3h.4l.1.2h.5l.1-.2h.1l.2-.3.1-.2h.1v-.1l.2-.2v-.5h-.3l-.1-.3h-.2l-.2-.2v-.1h-.2l-.1-.1h-.3v-.2h-.2l-.2-.2-.2-.1h-.2v-.3h-.2l-.2-.2-.1-.1v-.2l-.3-.2v-.1l-.1-.2v-.3l-.2-.1v-1h.4v-.2h.3l-.1-.6h-.3l-.1.3-.2.2h-.1v.5h-.2v1l.2.2v.2h.2v.1l.2.2v.3h.2v.3l.2.2v.1l.2.2v.1h.2v.1h.4l.1.2h.3v.1l.3.1.3.1.3.2.1.3v.6l-.4.1-.1.2h-.9v-.3l-.3-.1-.1-.2v-.2h-.2v-.3l-.3-.1v-.1l-.2-.2-.1-.2h-.4v-.2h-1.9v-.2h-.1v-.1h-.8v.3h-.1l-.1.2v.3l-.3.1v.3h-.1v.1l-.2.1v.1l-.1.2v.1l-.1.2v.2l-.2.1h-.5v-.2h-.2v-.3h.3v-.1h-.3v-.1h-.1v.3l-.1-.2h-.1l-.2-.2h-.2l-.2.3h-.1v.3h-.1zm2.6-1.3v-.2l.1-.1h.2v-.3h.2v-.2h.3l.1-.1h.2v.3h-.3v.2h-.4v.3h-.3v.2zm-18.7-76.8v.2l.3.3.2.2h1.1v-.4h.2l.1-.3v-.4h.1l.1-.2.2-.1.3-.1.1-.2.1-.2v-.5h-.2v-.4h-.2v-.2l-.3-.1-.2-.1h-.3l-.2.2-.2.3v.1h-.3v.2l-.5.2v.4h-.2v.3h-.1v.8zM116.8 1.3l.2.2v.1l.3.2h.1v-.2h.3l-.3.3v.5l.3.3v.1l.2.1V3l.1.2h1.3l.1-.2h.2l.4-.2.1-.2v-.5l-.3-.3-.2-.2-.1-.2h-.1l-.3-.3h-.1l-.2-.1h-.2l-.1-.2h-.5v.6h-.1l-.2-.1h-.1V1h-.1V.8h-.5l-.1.2zM432 131.8v.2h.4l.1-.2h.2v.5h.1v.5h-.3v.8h.3v.1l.1.1v.1l.1.1v.2h.5l.1.1h.2v.1h.7v-.3h.2v-.1h.1v-.3l.1-.1v-.1h.3v-.5l-.2-.1-.2-.2v-.1h-.3v-.1l-.3-.3v-.1h-.1v-.1h-.3v-.2h-.4v.2h-.2v-.3h-.2v.2h-.5v-.9h-.4v.3h-.1v.6zM230.4 44.1v.1l.2.1h.2v.5h.2l.1.2.2.2h1.1l.2.2h.2l.1.2h.8v-.4h.2l.1-.2v-1.1l-.2-.2h-.3l-.1-.2h-.2v-.1h-.9l-.1.3h-.3v.1l-.5.2h-.3l-.2.2V44h-.4zM77.9 179.4v.2l.2.2v.2l.2.3v.3l.3.2h1l.1-.3h.3v-.3l.3-.2v-.1l.1-.2v-.2H80v-.5h-.2l-.1-.3-.3-.1v-.2h-.1v-.8l-.1-.2h-.4l-.4.4v.5h.3l-.4.2h-.1l-.1.3v.2H78v.3zm.4 10.6v.8h.1v.5h.2v.3l.1.1h.3l.1.2h.1v.1h.2v-.3h.1v.5h.2v-.5h-.3v-.3h.3l.2.4v-.3h.1v-.2h-.3v-.2h.3v-.1l.4-.3v-.6l-.1-.1v-.1h.1v-.6h-.3v-.1l-.1-.3h-.3l-.1-.1h-.4l-.2-.2h-.3l-.1.2v.4l-.1.4v.4zm39.9-179.2h.2v.4l.1.1.1.3h.1l.2.1h.1l.2.2v.1h.3v.2l.2.1h.7l.1-.3h.2l.2-.2h.1v-.4l.2-.1v-.7h-.2v-.2h-.2v-.1h-.2v-.2h-.1V10h-1.2v-.2h-.6v.2h-.1l-.1.3h-.1v.4h-.1zm257.4 141.5h.2v.3h.1v.3h.1v.1h.5v-.3h.1v-.1h.1v-.1h.1v-.2h.1v-.2h.1v-.3h.2v-.3h.1v.3h.5v-.4h-.6v-.1h.7v-.1h-.4v-.1h.4v-.5h.1v-.2h.2l.1-.1h.1v-.7h-.3v-.1h-.1v-.1h-.8v.3h-.2v.1h-.2v.1h-.1v.1h-.2v.2h-.1v.1l-.1.1v.6h-.1v-.4h-.2v.4h.3v.2h-.3v-.7h-.2v-.1h.2v-.1h-.2l-.1.3v.1h.3-.4v.1h.4v.2h-.3.3v.2h-.3v.8h-.1zM284.1 49.2l.1.3h.4v.2h.2l.2.1v.2h.7l.1.2h.5l.1-.2h.1v-.2h.1v-.1l.2-.1V49h-.2v-.7l-.2-.1V48h-.2v-.4h-.2v-.1h-.8l-.2.3-.1.1v.1h-.2v.3h-.3v.1l-.1.1v.5h-.1zm-90.9 74.4v.1h.1v.3h.2v.4h.1v.3l.2.1v.1h.4l.1.1h1.3v-.2l.1-.1h.1l.2.2v-.4h-.3v-.5h-.1v-.3l-.1-.2v-.2h-.1v-.3h-.4v-.2h-.2v-.2h-.1v.3h-.2v-.4h-.9v.5h-.1v.5h-.1v.2h-.3zm-42.8 145.1l.6.3v-.6h.2v-4.1l.1-.3v-.3h.2v-.3h.1l.3-.2v-.1h.1l.1-.1h1.2l.3.2.1.2h1.5l.2-.3.3-.1.2-.3.1-.2v-.3l.2-.2v-.4h-.3v.2l-.4.1v.4l-.2.3v.1l-.1.1-.1.2h-1.3l-.1-.2-.3-.1-.2-.1h-.2l-.2-.1h-.8v.4h-.1l-.1.1h-.2v.1h-.3v.2l-.1.1-.2.2v.2l-.2.2-.1.2v.2l-.1.4v1.2l-.1.1v1.4l.3.1v.8h-.3v.3zM43.9 206.4l.5.2.4-.1.5 1.3.4.1 1-.5v-.8l-.5-1h-1l-.6-.6-.7.7zm94.1-64.6v.2h.2l.1.2h.1l.1.2h.1l.2-.4.1-.1h.1v-.7h.6v.2h.2l.2-.2v-.2h.3v-.3l.2-.2h.1v.9h.4v.2h.2v.1h.2v-.7l-.2-.2h-.2v-.5h-.1l-.2-.2-.1-.2h-.3l-.3-.2-.2-.2h-.1l-.1-.1-.2-.1-.1.2h-.3l-.2.1h-.3v.1h-.2v.3h-.1v.5l-.2.3h.2l.2.2h.6v.2h-.2v.2h-.2v.3l-.2.1zm.2-1.3l.1-.2.2-.1h.3v.3h-.2v.2l-.3.1h-.1v-.4zM16.7 270.7l.7.5h-.2l-.2.3-.2 1.3.4.3h.7v-.4l.2-.1-.1-.2.4-.4.6.3v-.5l.3-.2-.4-.6-.5-.4-.2-.2h-.3l-.4.1-.7-.5zm36.5-75.1v.4l.4.3v.2l.4.1h.9l.5-.3.3-.3.1-.4v-.3l-.2-.4-.3-.2v-.1l-.6-.2h-.6l-.4.3-.3.3.4.3h.2v.1l-.2.2h-.2l-.1-.3-.2-.1zm-9.7-.5l.2.3.7.8.3.1h.7l.6-.1v-.5l-.3-.6-.7-1.2-.6-.1-.8.6zm99.9 73.9v.5h.2v.3h.2v.2h.2v.8l.1.3v-.1l.3-.2v-.7l-.3-.1-.1-.1-.1-.3v-.6l.1-.1.2-.2h.8l.1.3h.2l.1.2.1.1.1.1h.1v.1h.1v.1h.1v.1h.1v.1l.2.1.1.1h.2l.1.2h1.4l.3-.2h.1v-.2h.3v-.1h1.1l.2-.1h.2l.1-.2h.1l.1-.1h.1l.2-.2v-.1h.2l-.6-.3v.2h-.2v.1h-.2v.2h-.3v.1h-.1l-.1.1h-.4l-.1.1h-.7l-.1.1h-.4v.1h-1.1l-.1-.2-.2-.2h-.1l-.2-.1-.1-.1-.1-.1h-.4l-.1-.3v-.1h-.2v-.2h-.2v-.2h-.5l-.1-.1h-.4l-.1.3h-.2v.1h-.1v.1h-.1v.1h-.1zm2.4.1h.2v.2h.3v.1h-.3zm1.1 1h.3-.2zm.5-.1h.3zm3.3-1v.2zm75.1-201.9v.2h.2v.2h.2v.3h.5l.1.1v.3h.6l.2-.2h.2l.2-.3h.3v-.1h.1v-1.1h.2v-.2l-.3-.3h-.9l-.1.1v.3h-.3l-.1-.2h-.9v.4l-.1.1v.2zm2.2-35.7v.1l.3.2h.7v-.2l.4-.1v-.5l-.4-.2h.3l.1.1h.2v.6h-.3v.3h-.1v.1l.1.1h.1v.4h.1v.1h-.2l-.1.1v.1h.2v.2h.3l.1-.3v-.2l.2-.1v-.5h-.3v.2h-.1.2v-.5h.6l.2-.1v-.7h-.1v-.1h-.2l-.1-.1h-.3v.2h-.3l.3-.2V30h.1v-.4h-.3l-.1-.1h-.5l-.1-.2h-.3v.4l-.2.1v.7h.2v.2h-.3l-.1.2h-.3v.3zm-96.5 116.3v.1h.2v.4l.1.1v.4l.2.1v.3h.3v.2h.3l.2-.3h.8l.1-.3h.1v-1.2h-.1v-.3h-.4l-.1-.2h-.6l-.4-.2h-.2v.2h-.2l-.1.2v.1h-.2zM307.4 205v.3l.2.1v.1l.1.1v.4l.2.1h.1l.1.2h.8v.1h.3v-.4l.2-.1.2-.2.1-.3h.1v-.6h-.3v-.4h-.2v-.1l-.2-.3v-.2h-.6l-.2.2h-.2v.2h-.2l-.1.1-.3.1v.2l-.1.2zm4.4 10.6v.4l.2.4v.3h.5l.1.1h.4l.9-1v-.3l-.2-.5-.2-.3v-.2l-.2-.1-.2-.1h-.1l-.2-.3-.5.2-.1.5-.3.5zM14.2 277.1l.5-.1h.3l.3.3.1.2h.3l.5.1h.4l.4-.2v-.4l.3-.3.3-.2h-.2l.3-.3-.2-.3-.2-.3-.2-.3h-.5l-.6.6v.2l-.3.1H15l-.1.2-.5.4zm44.4-4.7l.3.2v-.2l.1-.4.1-.2.1-.2.3-.2h.1l.2-.2h.3l.1-.2h.4l.2-.2v-.1l.2-.2v-.8l-.2-.2-.1-.2-.1-.3-.1-.2-.1-.2v-1.1l.2-.3.1-.2.1-.1h.2l.3-.3h.1l.3-.1h.3l.1-.3h.2v-.2h.6l.1-.2h.4l.1-.1v-.2h.2v-.7l.3-.1-.2-.4-.2.4v.3l-.3.1v-.2l-.2-.1v-.4l.3-.1v-.8l-.3-.3H63v-.1h-.3v.2h.1v.3h.2v.2h.1v.8H63v.4l.3.3.1.1v.2H63v.2h-.5l-.3.1-.3.1h-.1l-.3.2-.1.1-.3.2-.1.1h-.2l-.3.3-.1.1h-.1v.3h-.2v.4l-.1.1v1.5l.3.1.2.2v.1l.2.3v.4l-.1.2-.2.1-.1.1-.2.2h-.4l-.3.1h-.2l-.1.3-.2.1v.2l-.3.2v.3zm207.2-9.4v.1l.2.1.1.1h.3v.2h.3v-.3h.1v-.1h.9v-.1h.8l.2-.2.1-.2v-.4l-.1-.4-.2-.2-.1-.1-.2-.1h-.1l-.3-.2h-.4v.4h-.4l-.3.4-.1.2-.3.2v.1l-.1.1-.2.1v.3zm-113-185.1v.1l.2.3v.3h.4v.1h.4v.2h.7v.1l.1.2h.1V79h.3v-.1l-.2-.2h-.4v-.1h.3v-.1h.1v-.4h-.3v-.2l.3-.3h.1v-.3h.1v-.1h-.2V77h.2v-.4h-.3v-.2h-.1v-.2h-.6l-.1.4-.2.1h-.1l-.1.2h-.1v.1h-.4v.6h-.2v.2zM94.4 217.2l.2.2v.3l.1.4.3.1v.4l-.2.3-.1.4v.4h.3v.2h.1l.1-.3h.1l.2.1h.3l.1-.1.3-.2.2-.3v-.3l-.4-.2v-.2h-.3l-.1-.2-.2-.1h.6v-.9l-.2-.2v-.3l-.2-.2h-.2v.2l.4.1v.2h-.3l-.1-.3h-.5v.3h-.3zm-30.2-121h.2v-.4h.2l.1.2h.3l.2-.2v-.1h.1v.3h.1l.1.2v.1h.2v.1h.3v.1h.2v-.4h.2V96h.3v-.3h.2v-.2h.1V95h-.3v-.4h-.1v-.2h-.1l-.1-.1h-.1v-.1h-.6v.3h-.2v.1h-.1v.1h-.2v-.3h-.1v-.1H65v-.1h-.5v.3h.3v.1h-.4l-.1.1v.2h.2v.8h.2l.1.2h.2-.5l-.1-.4h-.1v.7zm.5-1.7v-.3h.2v.4zm64.2 51.5v.6l.1.3v.1h.3l.2.3h1.1l.2-.3.2-.1h.4v-.1h.1l.1-.3h.1v-.2h-.4v-.2l-.1-.1h-.2v-.2h-.2v-.1h-.3v-.3h-.3v-.1h-.2v-.1h-.5l-.1.1v.2h-.3l-.1.2h-.1zm0 0"/><path d="M155.8 261.6h.4v-.4l.3-.3v-.3h.1v-.3h.1v-.1l.1-.1v-.1l.2-.1v-.2h.4l.1-.3h.5v-.1h.5l.2.2.1.2h.7v.1h.2v.1h.2v.1l-.3-.4h-.1.8-1v-.1h.3l.1-.1h.6l.1.2.2.1v.1h.3v.2h.1v1.2l.1.3v.3l.2.2h.4v-1l-.2-.2v-.1h-.1v-.2h-.1v-.3l-.1-.2-.2-.2v-.1l-.2-.2-.1-.2-.3-.1v-.2h-.1l-.1-.2h-.2v-.1h-.2v-.3h-.9l-.1.3h-.2v.1h-.3v.1l-.3.1h-.3v.2h-.4v.1h-.1v.1h-.2v.1l-.3.1-.1.1-.2.2-.1.1h-.1v.3h-.1v.2l-.1.1v.4l-.2.2v.2zm2.3-2.6h.1l.2-.2h.2l.2-.2h1v.3h.2v.1l-.2.2h-.2l-.1.2h-.1l-.3.1h-.1l-.3-.3h-.1l-.1-.1h-.5zM370 129v.4l.3.1v.1h.2v.2h.7v-.3h.1v-.2h.1v-.1h.1v-.2h.3v.2h.4v-.2h.3v-.2h.1v-.1h.1v-.1h.2v-.2l.1-.1v-.2h-.4v-.1l-.1-.5h-.2v-.1h-.1l-.2-.1h-.5v.3h-.1l-.1.1v.3h-.2v.2h-.1l-.1.1-.2.1h-.1l-.2.2h-.2v.3h-.2zM15 83.4v.6l.3.8.4.2.3.3h.4V85l.2-.6.1-.4.3.2.3-.1v-.6l-.3-.2h-.3L16 83v-.1h-.6l-.2.4zm166 53.2h.3v.3l.2.1.1.1h.2v.2h.5v.2h.5v-.4h.2v-.1h.4v-.4h.1v-.4h-.4v-.2h-.1l-.1-.1v-.1h-.3v-.4h-.1v-.1l-.2-.1h-.3v-.2h-.4v.5h-.2v.1h-.2v.8l-.2.1zM33 198.2l.3.4.7.2.6.2.8-.2v-1l-1-1h-.7l-.3.7v.4zM3.2 268.5v.2h.3v.1l.1.1h.3l.1.1.2.2-.2.1.1.2h.2v.1h.1v.2h.1v.1l.1.1H5h-.2v-.2h.4v-.5H5v-.1h-.2v-.1h-.2v-.3h.3v-.1H5v-.2h.2v-.1h.2H5v.6h.6v.2h.2v-.4h.1-.3v-.6l-.1-.1h-.1l-.1-.1H5v-.3h-.1v-.2h-.3v-.1h-.2v-.1H4v.4h-.2v.3h-.4v.4h-.2l-.1.1zm2 .3h.2zM156.7 86l.3.2.3.1h.3v.2h.6v-.3h.3v-.1l.1-.1v-.2h.2v-.2l.2-.2.2-.2V85h-.5l-.1-.3h-.1v-.2h-.2v-.2h-.2l-.1-.1h-.2v-.1h-.2v.2h-.1l-.1.1h-.2v.3h-.2v.1h-.3v.1h.3v.1-.2h.3v.2h-.3v.4l-.3.1zm126 125h.1l.2.2h.1v.1h.3l.2.1h.2v.1l.2.3.3.1h.1l.2.1h.3v.2h.8l.1-.2h.2l.1-.3h.1l.1-.1h.6l.3.3v.6l-.4.2-.2.1-.3.2-.3.2v.1l-.4.4h-.1v.3l-.2.1v.7l.3.2.1.5v.3h.2v1h-.3v.2h-.2v.2h-.4l-.4-.2h-.4l-.2-.2v.4h.4l.9.1h.4l.2-.2v-.1h.1v-.1l.2-.2v-1.2l-.4-.2v-.2l-.2-.3v-.7l.3-.2.1-.2.1-.1.1-.1.4-.3.4-.2.2-.2v-.1h.2v-1l-.1-.2v-.1h-.2l-.1-.1h-.7l-.3.3h-.1l-.2.2h-1.1l-.1-.2-.2-.1-.3-.1v-.1h-.2l-.3-.3h-.5l-.2-.2zM25.3 151v.3h.7v-.5h.5v-.6h.5l.2-.1h.2l.1-.1h.3v-.2h.1v-.1h.1v-.4l.2-.1v-.2H28v-.2h-.3v-.1h-.1l-.2-.2-.4-.1h-.3l-.1.2-.3.3-.3.4v.7h.1v.2h.2v.4H26l-.1.2h-.2v.1h-.1l-.1-.3h-.1v.3l-.2.1zm16.5-1.3l.2.2.3.1h.3l.2-.2.2-.2.1-.4.1-.1.4-.4.1-.3v-.8l-.4-.1-.3-.2h-.5l-.5.7v1zM287 194h.2l.1.2v.2h-.3v.6l.3.2h.7v.1h.2v.1h.2v-.3h.1v-.1h.3v-.2h.1v-.1h.1v-.1h.2v-.6h-.2l-.2-.2h-.1v-.4h-.1v-.1l-.1-.1h-.1v-.2h-1v.3h-.1v.2h-.1v.1h-.1v.3h-.1zM224.8 68.5h.2v.7h.1l.2.1v.7h.4v.3h.5l.1.2h.5v.5h.2v.3h.5v-.7l-.2-.2h-.1v-.2h.3v-.4h-.3l-.2-.3-.3-.2h-.4v-.6h-.6v-.3h-.7zM369 196.6l.4.2.2.2.1.5h.3v.3h.6l.4-.4.2-.3v-.6l-.1-.3h-.4l-.2-.2-.4-.1-.3-.5h-.3l-.2.4-.3.4zm0 0"/><path d="M277.7 218v.4l.3.3v.3l.2.2h.2v-.2h-.2v-.3l-.2-.2v-.8l.2-.1v-.1l.2-.1h.1l.5-.2h.8l.5.4.7.1h.1l.2.3h.9l.3.2.1.2h.1v1.1h.1v.3h.2v.1h.7v-.3h.2v-.1l.1-.2v-.4l-.2-.2-.1-.2-.3-.4v-.1h-.2v-.4l.3-.2v-.1h.3v-.1h.2v-.3h-.5v.1l-.2.2-.1.1v.2l-.2.1v.4l.2.3.2.2v.1h.1v.3h.2v.7h-.3v.1h-.4l-.2-.2-.1-.3v-1.1l-.1-.1h-.1l-.1-.2h-.6l-.5-.2-.3-.2-.8-.2-.7-.2-.3-.1h-.9v.1l-.3.1v.2h-.1v.3h-.2v.2zm93.6-28.3v.6h.2v.1h.1v.1h.1v.1h.1v.1h.7l.1-.3h.3l.1-.1h.5v-.1h-.3l-.1-.1h.3v-.1h.1v-1l-.3-.2v-.1h-.1l-.1-.1h-.5v.3h-.3v.1h-.4v.2h-.1l-.1.1h-.1v.1h-.1v.1h-.1v.1h-.1v.1zm-190.4 70l.2.2.1.1.3.2v.2l.2.2.3.3h.3l.3-.4.1-.2v-.4l.2-.2.1-.2h.4l.2.3v.1l.3.1.1.3.1.1.1.2h.1l.2.1h.5l.2-.1.1-.2.2-.1v-1.4l.2-.2v-.2h.1l.2-.2.4-.1h.3l.2.3h.1l.1.1.2.1.1.1.2.2h.1l.2.3.1.2h1v-.4l.3-.1v-.5l-.6.2h.3v.3h-.2l-.1.2-.2.1h-.5v-.1l-.2-.3-.1-.2-.2-.2v-.1l-.4-.2-.2-.2h-.9l-.3.3h-.3l-.2.3v1.5l-.2.2v.1l-.3.1h-.3l-.3-.1v-.2l-.1-.2v-.2l-.2-.2v-.1l-.1-.1-.2-.1h-.5l-.2.1-.1.2-.1.1v.3l-.2.2v.2h-.2v.3h-.3l-.2-.2v-.1l-.1-.2-.2-.2v-.2l-.2-.1-.3-.2zM47 209.5l.7.5 1.1-.3.2-1-.5-.5-1-.4-.5.2.2.6zm105.4-109.2v.6h.3v.1h1.1l.2-.1h.1l.2-.3v-.1l.2-.2v-.7l-.2-.2-.1-.2-.2-.2h-.2l-.2-.2h-.3v.2l-.3.1v.3h-.2v.5l-.1.1v.2h-.3v.2zm88.4 85.3v.4h.2l.1.2h.5l.2.3h.2v.1h-.1v.4l.3-.4h.3v-.2h.2v-.6h-.2v-.1h.2l.1-.1v-.7l-.2-.2h-.2l-.1-.2h-.6v-.2l-.1.1-.2.1-.2.3v.3l-.2.1v.2zM187.3 33.7v.3h.3v.6l.4.1.3.2h.4l.1-.4h.2l.1-.2h-.1l-.1-.1h.3V34h.1v-.4h.1V33l-.3-.2v-.4h-.2v.3h-.2v.1h-.2v.2h-1v.5h-.2v.1zm-173.7 44v.4l.4.2-.3.2.1.3h.2l.4.2h.6l.3-.5h.2v-.4l.2-.1-.2-.5-.5-.2v-.2l-.4-.1h-.4l-.2.1zm43.6 143.9v1l.2.6h.6l.5-.2h.2v-.3l.2-.4v-.5l-.3-.7-.6-.2-.5.1zM1.1 271.7v.2h.2v.1h.1v.3h.4v-.3H2l.2-.2h.3v-.1h.1v-.1h.1v-.1h.2v-.2h.3v-.1h.3v-.1h.2v-.1h.1v-.5H4v-.1h.2v-.1h.1v-.6h-.5l-.1.3H2.4v.3h-.1v.2h-.1v.1h-.1l-.1.1v.3h.6H2v.5h-.2l-.1-.3h-.2v.4h.4v.4h-.3l-.1-.3v-.3h-.2l-.1.3h-.1v.1zm1 0h.2H2zm233.4-110.8v.5h.2v.1h.1l.1.2.1.3h.4v.2h.2l.2-.2h.2v-.3h.2v-.1.3h.1v-1.6h-.3v-.2h-.2v-.1h-.1l-.1-.2h-.2v-.1h-.6v.3h-.1l-.1.2v.2h-.1v.4zM209 83.3v.4l.2.1v.1h.1v.6h.5l.2-.2h.3v-.1h.2V84h.2v-.3h.1v-.1h.1v-.4h.1V83h-.3v-.2h.3v-.3l-.3-.1v.4h-.3v-.3h-.1l-.1-.1h-.4l-.1.2h-.2v-.2h-.3v.4l-.2.2zm1.4 34.3h.4v-.3h.2v.3h-.2v.6h.6v-.5l-.3-.2h.9l.2-.2.1-.2v-.6h.5l.1.3v.2h.3v-.5l-.3-.1h-.3l-.2-.3-.2-.1h-.8v.2h-.1v.1h-.3v.2l-.2.2h-.1v.1h-.2v.6zm-49.2 144.3v.7l.2.3v.4l.1.1v.2l.1.1v.1l.2.2v.3h.2v.1l.1.2h.4l.2.1h1.5v-.2h.2v-.1h.1l.2-.1v-.1h.3v-.2h.1l.4-.2h1.2v-.4l-.2-.2h-.9l-.2.3-.5.2-.2.1-.3.2-.2.1-.1.1h-.3l-.3.2h-1l-.1-.3-.2-.1-.1-.1-.1-.1v-.2l-.2-.1v-.5l-.2-.2v-1zm-17.4-155.5h.2v.3h1.9v-.2h.1l.1-.2h.1v-.5l-.2-.2v-.1h-.2l-.1-.2h-.2l-.1-.1h-.1l-.3-.2h-.1v.4h-.9v.3l-.2.1v.4zm-67.4 69.1h.2v.2h.1v.1h.1l.1.1h.1v.1h.4v-.3h.1v-.3h.1v-.3h.2v.3h.1v.1h.1v.1h.3v.1h.2v-.5h.2v-.1h.2v-.1h-.3v-.3h.3v-.5h-.3v-.2h-.1v-.2h.3v-.2h-.4v-.1H78v.3h-.2v.1h-.1v.1h-.1v.4h-.1v.8h-.2v-.2h-.1v-.2h-.1v-.1h-.5v.3h-.2zm1.8 0h.2zm.1 0v-.2zm.3-1.5h.1zm.1 1h.1zm0-.5v-.2zm.1.5h.1zM439 137.4v.2h.2v.1h.2v-.3h.3l.1-.1v.4h.4v-.3h.1v-.1h.1v-.1h.2l.1-.1h.3v-.1h.3v-.2h.1v-.1h.1v-.5h-.3v-.1h-.1l-.1-.1v-.2h-.2v-.1h-.2v-.1h-.1l-.1-.1h-.3l-.1.3v.2h-.2l-.1.2v.1h-.1v.1h-.1l-.1.1v.5h-.2l-.1.2v.1h-.1v.2zM135.5 272.1h.7l.3-.3h.8l.1.2h.3v.2h.5l.3-.2v-.2h.2v-.2h.1v-.6l-.2-.1v-.1l-.2-.1v-.4l-.1-.1v-.6h.3l.2-.2v-.1l.2-.2v-.1h.4l.2-.2h.7l.2-.3h-.3v-.2h.3-.3l-.1-.1h-1l-.1.3v.1h-.2l-.1.1v.1h-.2v.2h-.3v.3h-.1v.1h-.1v1.3h.3v.3l.2.1v.5h-.2l-.2.2-.1.1h-.5l-.2-.2h-.2l-.1-.2h-.8l-.2.3v.1h-.2v.1h-.3zm3.2-3.3l.1-.2h.2l-.2.2h-.1v.1h-.1zm.3 0v-.2l.2-.1h.1v-.1h.4-.3l-.2.4zm.4-.4h.2v-.2h.4-.5l-.1.3h-.1zm.6 0h.3zm300.4-98l.1.2.2.4h.8l.5-.2.2-.3.1-.5.1-.3v-.3l-.3-.2h-.2l-.3-.2-.6.3-.3.1v.6l-.3.1zm-334.1 89.5h.3v.4h.1v.1l.1.1h.1l.1.1v.3l-.3.1h-.2v.2h.3v.1h.1v.1h.8v-.3h.3v.3-.4h-.3v-.4h.3v-.2h.2v-.1h.1v-.1l.1-.1v-.6h-.4v-.1h-.4v-.2h-.2v-.1h-.6v.2l-.1.1v.2h-.2v.2h-.2l-.1.1zM57.9 173h.3v.4h.1v.3l.1.1h.1v.2h.4v-.2h.1v.2h.2v.3h.2v.1h.3v-.4h.3v-.6h-.3v-.2h-.1v-.1h-.1v-.4h-.1v-.5h-.1l-.1-.1H59v-.1h-.1l-.2.3h-.2v.1h-.4v.1H58v.5h-.2zm.9 1h.1zm.6-1.4v-.2zM209 123.2v.3l.2.1v.7h.5v.2h.2l.1-.3.2-.2h.3v-.4l.3-.1v-.5l-.2-.2v-.1h-.3v-.4l-.2-.1-.1-.1h-.2v-.1.3h-.6v.2l-.1.1v.4zM52.6 277.6v.9h.2v.3h.1l.1.1h.4l.1-.3v-.2l.1-.1v-.1h.2v-.2h.2v-.2h.3v-.6l-.3-.2v-.5h-.4v-.1H53v.4l-.2.1v.1h-.1v.2l-.1.2v.3zm-.8-66.9l.2.7.4.4h.9l.3-.5v-.6l-.4-.7h-.6l-.6.2zm70 64.3l.1.5.3.9.2.2.1.1v.1l.2.2.3.1.3.2h1.3l.2-.3h.1l.3-.2.1-.2.3-.4.2-.2v-.4l.2-.4v-.2h-.3l-.2-.4h-.5l-.5.1h-.5l-.4-.6-.3-.3v-.3l-.2.3.2.2.5.7-.3-.1-.2-.2-.2-.2.2.3.6.3.4.2h.3l.6-.2h.4l.1.2.1.2v.4l-.5.6-.6.5-.5.2h-.7l-.7-.3-.4-.3-.2-.5v-.5l-.2.1v-.9.2zM106.9 50.2h.1V50h.2v.2h.2v.1h.6v-.2h.5V50h.4l.1-.2v-.6h-.3V49l-.2-.1h-.1v-.2h-.1l-.1-.1v-.1h-.8v.4h-.1v.1l-.2.3-.1.1v.8zm0 0"/><path d="M179.4 260.6v.4l.1.2.1.3.1.1.3.2.2.2h.9v.2h.3v.2h.1v.9h-.2v.4l-.2.3v.4l-.1.1v.1l-.2.1v.6h-.1v.5l.3-.2h.1l.1-.3.2-.1v-.7h.2v-1.3l.1-.1.1-.1.1-.3v-.6l-.2-.1h-.3v-.2h-.4l-.3-.1h-.4l-.2-.2h-.2l-.1-.2-.1-.2v-.1l-.2-.3v-.5l.4-.2.2-.3h.9v-.2h-.9l-.2.2h-.1l-.2.1-.1.2v.2l-.2.2zM366 195l.4.4h.6l.3-.1.7-.3v-.6l-.2-.5-.2-.1v-.2h-.5l-.5.4-.4.4zM85 166.8h.3v.4h.1v.3h.1v.5h.1v.4h-.3v.3h.4v.1h.3v.1h.3v-.4h.1v-.1h.1v-.1.3h.3v-.3h-.4v-.7h-.1v-.2h-.1v-.2h-.1v-.1h-.3l-.1-.1h.3v-1h-.3v-.2h-.1v-.1h-.3v.3h-.1v.2h-.1v.5zm.4 1.2h.3zM51 129.5v.2l.2.1h.1v.2h.1v.2h.5v-.2h.1v-.2h.2v.6h.2v-.3h.1v.2l.2.2v.2l.1-.2v-.1h.2v-.1l.2-.2v-.4H53v-.5h-.2v-.1h-.1v-.1h-.3v-.2h-.1v-.2h-.1v-.1h-.1v-.1l-.1-.1h-.3v-.1h-.1v.6h.3v.2h.1v.4h.2-.4v-.3h-.1v-.1h-.1l-.2-.3h-.2v.3h-.1v.3H51v.3zm25 7h.2v.2h.1v.2h.2v.4h.3v.1h.1v.1l.1.1v.2h-.2v.6h.2v.1h.2l.1.1.1.1h.1v.1h.1v.1h.1v.1h.3v.2h.4v-.2h.2l.2.2v-.5l.1-.1h-.2v-.3h-.4v-.6H78v.4h-.4v-.3h-.1.2v-.4h-.3v-.2h-.1v-.2h-.1v-.3h-.1v.3H77v-.2h.2-.4v-.2h-.2v-.1h-.2v.3h.5v.1h-.4v-.3h-.2v-.1h-.1v-.1h-.1zm.6.3h.2v.2-.3zm.5 1v-.2h.2v-.1l.1.3v-.3l.1.3v.2h-.4v-.3zM72.4 188v.2l.2.2h.1l.3.3h.6v.1l.1-.1h.1v-.4h.2v-.3h.1-.1v-.7l-.2-.1v-.2h.4v-.1h.1v-.2h.4v-.1h-.3v-.2l-.1.2v.2h-.5v.2h-.2v-.1H73l-.2.3h-.1v.1l-.1.2-.1.3zm94.3 75.8h.3l.2.2h.5v.2h.3v.1h.3v.1h.4l.3.2.2.1h.6l.1.1h.3l.1.1h.3v.1h1.4v.2h.1l.1.1h.3v.2l.1-.2v-.2l-.2-.1-.3-.2h-.1v-.1h-.5l-.2-.1h-.3v-.1h-.2l-.2-.1h-.1l-.2-.1h-.2l-.1-.1h-.2l-.3-.1h-.1l-.1-.1h-1.1l-.1-.2h-.2l-.2-.2h-.2v-.1h-.2l-.1-.1h-.2l-.3-.1zM38 201.8l.4.6h.6l.3-.9-.1-1.5-.5-.2-.5.4zm336-25.3h.2v.2h.1v.3h.2v.3h.2v.1h.3v.4h.4v.1h.2v.1h.2v.2h.4v-.2h.1v-.3h.1v-.4h-.7v-.1h.3v-.1h.2v-.1h-.2v-.5h-.2v-.1.4h-.2v-.3h-.6v-.2h.3v-.1h.1v-.2l-.3-.2h-.1v-.1l-.2.3h-.1v.2h-.1v.2h-.1v.1h-.2v-.3h-.1v-.1h-.1v.3zm.9.3v-.2h.1-.3zm-289.7-6.4v.3h.2v.3h.1v.4h.2v.3h-.3.4v.1h.2v.5h.3v-.3h.3v.2h.1v-.2h.1v-.3h.1v-.3h.1-.5v.3-.4h-.1v-.1h-.1v-.5h-.1v-1h-.1v-.1H86v-.1h-.3v-.1h-.3l-.1.3v.1h-.1v.5h-.1v.1zm1 1.2h.2v-.2h.1v.6-.2h-.3zM226.7 30.3v.2l.1.1v.1l.4.3h.9v-.3l.3-.2v-.7l-.4-.2v-.3h-.2v-.1h-.8v.3l-.3.1v.5zm-1.1-3.3v.2l.2.1v.1h.2v.2h.6l.3.1h.1v-.3h.8v-.2h.2v-.5h-.2v-.2l-.3-.1h-.5l-.2.3h-.2l-.1-.4h-.5v.3l-.4.2zM191 28.5v.1l.1.1h.1l.1.2h.5v-.5h.5v-.2h.2v-.5h-.2v-.3l.2-.1v-.5h-.3v-.2h-.2v-.1h-.8v.5h-.1l-.1.2v.3h.3v-.2h.2v.4h.1v.1h.1-.2l-.1.1v.1l-.2.2-.1.1h-.1zm174.3 163.3l.1.2.3.2.2-.2.1-.3h.8l.2-.4v-.8l-.3-.3-.3-.2-.2-.3-.4.1v1.5l.2.3-.2.2-.2-.2zm-2.5-20.6v.2h.2v-.2h.2v.3h.1v.4h-.3v.4h.2v-.3l.1-.2h.1v.2h.1v-.2l-.3-.1v-.2.3-.6l.3-.1h.3v.3h.5v-.2l.2-.2.1-.2h.1v-.2h.1l.1-.1h.6v.3h.1v.1h.1v.1h.1v.4h-.6v.1h.7v.2h.1v.3h.4v.3h.2v.4h.1v.1l.1.1h.5v-.3h.2v-.3h.4v-.5h.3v.2h.6l.2-.2v-.2h.2v-.1h.1v.5h-.3v.7h.2v.3h-.2v.2l-.2.1h.2v.1-.4h.3v.2l.1.2h.2v.1h.3v-.8h.1l.2-.1h-.5v.2h-.1v.5h-.3v-.3h-.1v-.3h-.1v-.3h-.1v-.4h.3v-.6h-.3v.3h-.2l-.1.3h-.5v-.4h-.5v.4l-.1.3-.1.2h-.1l-.1.1h-.3v.2h-.4v-.7l-.1-.1h-.5v-.6l-.2-.2v-.2l-.1-.2-.1-.1v-.1h-.1v-.1h-.9l-.1.3h-.1l-.1.2-.2.2-.1.1h-.2v-.3h.2v-.1h.2v-.6h.1v-.3h-.9l-.1.2v.1h-.1v.3h-.1l-.1.1v.3-.3h.2v-.2h.1v.3h.2v.1h.1v.1h-.2v.2h-.6v.1zm.6-.7v-.3l.2-.1h.1v-.1h.3v.9h-.2l-.1.1h-.1l-.1-.3h-.1v-.2h-.1zm-122.4 0v-.1h.2v-.2h.8v-.4h.1l.1-.2h.3v-.2h-.2v-.2h.3v-.2l-.2-.2v-.4h-.2l-.2-.1-.3-.1h-.2l-.1.3-.2.3v.1h-.1v.5h-.1v.7l.2.1v.2h-.2zM12.8 275.4l.1.6h.8l.4.2.1-.4.2-.3-.4-.2.3-.6-.4-.3-.5-.2-.5.6zm119-8.4h.2v.6l.1.1v.1l.3.4h.2v.2h.2v.1l.1.1.1.1.1.1.2.2.1.1v.2h.1v.2l.1.2v.2l.1.1v.1h.1v.3l.2.2v.2l.1.2.3.1v.2h.1l.2.1.1.2.2.2v.1h.2l.1.1h.1v.2l.3-.4h-.3l-.2-.2-.2-.2-.1-.1v-.1h-.2v-.2l-.1-.2-.2-.1v-.2l-.2-.1-.1-.2v-.1l-.1-.1v-.2h-.2v-.3h-.1v-.3h-.1v-.2l-.1-.2v-.3l-.1-.1-.2-.2h-.1l-.1-.1-.2-.1h-.3v-.3h-.2v-.5l-.1-.1v-.1h-.1v-.2h-.1v-.1zm175.6-96.2v.2h.2v1.2h.2l.2.2v-.1.3h.3l-.2-.3v-.3h.2v-.4h.1v-.6l.2-.1v-.3h-.4v-.3h-.6v.3h-.2zm.7 2.4v.3h.2v.1h.4v-.4l-.3-.2v-.3h-.1v-.3l-.1.3h-.2v.5zm-.1-1l.3.2h.2v-.3h.1v.3h.1v.1h.2v-.3h-.3v-.2h-.3v.2zm.7.7h.1l.1.1h.1v-.3h-.3v-.1h-.2zm-248.1 1.6v.5h.2v.2h.1v.1h.1v.5h.2v.2h.5v-.2h.2v-.1h.1v-.2l.2-.1v-.6H62l-.2-.1h-.2v-.6h-.1v-.1h-.8v.2h-.1v.2h-.1v.1zM437 139.3h.2v.3h.1l.1.1v.1h.3v.2h.6v-.3h.3v-.1h-.5.3v-.3h.1v-.2h.1V138h-.3l-.1-.2-.1-.1h-.1l-.2.3-.1.2v.3h-.1v-.3h-.2v.4h-.1v.1h-.1v.1h-.1v.2h-.1zM76.7 195.8l.1.4h.2v.3l.4.1h.3l.1.3h.2v.3l.2.2h.2v-.6h.1v-.2.2h-.3l-.1-.2v-.4l-.1-.1.2-.1h.2v.2h.3v-.6l-.2-.1-.2-.1h-.8l-.2-.2h-.5v.6zm56.1-39.9v.1l.2.2h.1l.2-.2v.3h.7v-.4l.3-.2v-.7l-.3-.3-.1-.3h-.7v.3l-.2.1v.6l-.2.2v.1zm93.8-135.7v.4l.2.2v.1l.2.1.2.2v.3l.1.2h.2l.1.1h.4v-.3h.2v-.2h.1V21h.2v-.1h.1v-.3h-.3v-.1h-.3v-.1h-.3v-.3h-.3l-.2-.1h-.6zM126.9 267v.6h.1v.1l.3.3.2.3v.2h.2v.1l.2.4h.1v.2h.2v.2l.2.3.1.2v.3h.2v.7h.3v-.8l-.2-.1v-.1l-.1-.1v-.3h-.1v-.2h-.1l-.1-.3-.1-.1v-.1l-.3-.2-.1-.2-.2-.4-.1-.1v-.1l-.3-.1v-.3h-.1v-1.3l.3-.1.2-.1v-.2l-.1-.4-.3.4h-.1v.1l-.2.2v.7l-.2.2zm-51.3-68.9v.1l.2.1.4.2v.2h.2v-.4h.2l.7-.3.3-.3v-.3l-.2-.3H77l-.4-.1h-.3l-.2.5-.3.2zm4.2-39.6v.5h.2v.3h.3v.1h.2v.1h.5v.2h.3v.1h.1v.1l.1.1h.2-.3v-.3h-.1v-.1h-.1v-.1h.3v-.2.3H81v-.4h.4v-.6h.1v-.6h-1.6v.6zm1.4 1v.2zm.1 0h.2zM7.5 99.7l.1.3.2.1.2.1h.3l.3-.2.2-.1.1-.2.2-.2.2-.2.1-.3v-.1l-.2-.2H9v-.3h-.6l-.2.3-.2.2v.1l-.3.2v.1l-.2.2v.1zm219-14.7l.2.2v.3h.2v.6h-.3v.4h.4v.1h.2v.1h.7v-.3h.1v-.2h.1V86h.2v-.5h-.3l-.1-.2v-.1h-.1v-.1l-.1-.1h-.7v.2h-.3v.1h-.1V85zm-12.8 191v.2h.3v.3h.3v.4h.1v.1h.2v.2-.2h.2l.1-.2h.3v-.2h.1v-.4h.2v-.1h.1v-.5l.1-.1v-.2l-.3-.1h-.6v.3l-.2.1v.1l-.1.1h-.5v-.4h-.3v.5zM204 49.6l.1.2v.2h.4l.1-.2h.4l.3.1v.5h.2V50h.4l.1-.1.2-.1v-.6l-.2-.2v-.1h-.5l-.2-.1v-.2l-.3.1v.5h-.4l-.1-.2h-.3v.1l-.2.2zM74 85.4v.5h.4v-.4h.1v-.3l.2.2v.3l.1.3h.8v-.1h.2v-.2l.2-.1v-.7h-.2l-.1-.3h-.4l-.3-.1-.2.3-.2.2v.1H74zm-15.6 91v.2h.2v.1h.1v.1h.2v.1h.9v-.3h.1v-.3h.1v-.2h.2v-.5H60v-.1h-.4l-.1-.1h-.9v.3h-.1v.1l-.1.1v.1h-.1v.4zm.4-.6v.2zm0 .1v.1zm0 0v-.3h.2zm.2.1h.2zm130 80.2v.1h.2v-.1h.2v-.2h.6l.3.2h.2v.3h.1l.4.1.2.2h.6l.2-.4h.1l.2-.2h.2l.1-.1h.8v.2l.3.1.1.2v.1l.2.3v1.6h.2v-2l-.2-.3v-.2l-.2-.1h-.5l-.3-.2h-.5v.2h-.1l-.1.2h-.3v.1h-.1l-.1.2h-.8l-.2-.3h-.1l-.2-.2h-.3v-.2h-.1l-.1-.1h-.8v.3h-.2v.1zm163.6-36.1l.1.2h.3l.3.2h.1l.1-.2h.2l.1.3.1.2v.2-.4h.1v-.2h-.4v-.3h.4v-.4l-.3-.1h-.1v-.2l.2.2h.2v.2h.4v-.2l.3-.1v-.1l.3-.2v-.2.2h.3v-.6h-.3.4v.3h.1v-.3l-.3-.1v-.2h-.1l-.1.3-.1.1v.3l-.2-.3h-.1l-.1-.1h-.3v-.2h-.2v.5l-.1.1v.1h-.2v.4h-.2v.2h-.2l-.1.1h-.3l-.1.2h-.2zM202 49v.4l.4.2h.4v.3h.4v-.3h.5v-.3l.1-.3v-.3l-.3-.1h-.1l-.3-.2h-.1l-.1.2h-.2l-.1-.2-.1-.1h-.3l-.2.3v.2zm-13.9 18.4v.2l.1.2v.2l.1.1h.2l.1.2h.8l.2-.3.1-.1v-.3l.1-.1v-.3l-.3-.2h-.3v-.3h-.5l-.1.2h-.1v.1h-.3v.1l-.1.1v.1zm132.7 140.1v.2l.2.6.3.1h.5l.5-.4.3-.4-.3-.6-.7-.1-.1.1h-.3v.4zm-256.9.6v.5h.1v.9h.3v.2h.2l-.2-.3h-.1l-.2-.2v-1.1h.3l.3-.1v-.2h.2v-.4l-.2-.2h-.2v-.2h.3l.2-.2.1-.2v-.6h.2l.1.1h.4l.1-.1h.9v-.6h-.6v.2H66v-.3h.2l.1-.1.1-.1v-.1h.1v-.2l.4-.2v-.2h.1v-.4h-.9v-.2l-.1-.2v-.9h-.6v-.1h-.1v-.1h.5v.2h.4v-.3h.2v-.4H66l-.2-.2h.2l.2-.2v-.6H66h.2l.2-.3h.2l.1-.1v-.2l-.3-.2H66v-.2h-.3v-.5l.3-.2v-.4l-.2.3v.3l-.2.3v.5h.2v.1h.4v.1h.5v.3h-.5l-.2.1v.5h.3v.3h-.6v.3h.6v.4h-.1l-.1.1h-.2v.1h-.4l-.1-.3h-.2v.6h.8v.4h-.3v.2h.3v.4l.2.1.2.3h.5v.2l-.5.2v.3l-.2.2H66v.2h-.2v.3l.2.1h.3l.1-.3h.1v.5h-1.4v-.3h-.3v1h-.1l-.2.3h-.2v.4h.3v.1l.1.2v.3H64zm132.6-10.8v.1l.2.3h.1v.2h.2l.1.1h.9v-.3h.3v-.3l.1-.2v-.2h-.3v-.1h-.1v-.2h-.1l-.1-.1h-.1l-.3-.1h-.4l-.1.3h-.1l-.2.2v.1zm0 0"/><path d="M175.7 265h.2v.2h.3l.2.1h.2v.1h.2l.2.1h.1v.1h.4v-.3h.7l.1.3h.5v.1h.2v.1h.3v.1h.3v.1h1.2l-.2-.5-.1.3-.3.1h-.4l-.1-.3-.4-.3h-.7.4l-.4-.1h-.2v-.1h-.2l-.2-.1h-1l-.3-.2-.2-.1h-.1l-.2-.1h-.2v-.1h-.2zm-48.2.4l.3.3h.2v-.2h1.3l.1.3h.4l.1.2h.2l.3.2h.2l.1.3h.4l.1.1h.2l.1.1h.1l.1.2.2.1.2-.2v-.2h-.1l-.1-.2h-.4v-.2h-.2v-.1h-.3l-.2-.1-.2-.1v-.1h-.1l-.2-.3h-.1l-.2-.1h-.2l-.1-.1h-.2l-.2-.1h-1.6v.2zm241.1-73.7v.4h.2v.3h.2v.1h.4l.1.1h.4v-.3h.7v-.3h-.3v-.5h-.1l-.1-.1h-.1v-.1h-1.3v.3h-.1v.1h-.1zM75.8 166.2v-.2h.2v.4h.2v.5h.2v.3h.2v.3h.1v-.3h.1v.3h.1v-.3h.3v.3h.1v-.4h.1v-.3.4h-.3v-.4h.3v-.4h.1v-.1h-.3v-.3h-.6v-.3h-.2v-.1h-.1v-.1H76v.5-1 .6h-.2v.4h-.1v.2zm0-.3h.2zm0-.1h.2zm.1-.2h.1zm0 .1h.1zm0 .3h.1zm0-.4h.1zm.3.1h.2zm0 0v-.2zm.9.3h.2zm.2 1.2v-.2zm-43.9 28.5l.6.3h.8l.2-.2v-.8l-1.2-.4zm-37-19.7h.3l.1.2h.3v-.2h.2v-.2h.1l.2-.1h.3v.3h.3v.5-.3 1.2H-2v-.4.2h-.2v.7l.2.1h.2v.3h.2v.5h.1l.1.1h.2l.1.1h.1v-.3h.2v.3H-1v.2h.2v.1l.1.1v.1h-.6l.3-.3v-.1.3h-.3v.4l-.1.1v.1l.3.2v.4h.1v.3l.2.1h.1l.1.2v.1h.3v.2l.1.1v-.4H0l.3-.1v-.1h.1v-.2l.1-.1v-1.1.2H.2v1l-.1.2-.1.1h-.4l-.4-.2-.2-.3v-.5l.3-.1.3-.2.1-.1.3-.1v-.2h.5v-.3H0v.3l-.2.1h-.1l-.2.2h-.2v.1l-.3.1v.3h-.2v.1-.6h.2v-.1h.2v-.2.4h-.4.2v-.3l-.2.3v.2h-.1v-.6h.3v-.1h.4-.3v-.3H-1v-.4h.3v-.1h-.5v-.1h.2l.2-.1H-1v.3h-.2l-.1-.3v.3h-.3.5v.2h-.5v-.7h-.1v-.1h-.1l-.1-.1-.1-.3v-.3l.2-.1v-1.4h.1v.4l.2-.2v-.2l-.3-.1H-2v-.1h-.7l-.3.2v.2h-.5.7v-.2h.1l-.3.2h-.5zm199.5 84.6l.1.2.2.2.1.1v.2h.2l.1.1h.9v-.3h.4v.3h.1v.6h-.2v.2h-.2v.1l-.1.1v.1l-.1.1v.8h.3v.2l.3.2v.1h.8l.1-.3h.1l.1-.1h.1v-.3h.2v-.2l.1-.1v-.2l.1-.2v-.2h-.3v.3l-.3.2v.4l-.3.1-.1.2h-.2v.2l-.3.1-.1-.2-.2-.3-.1-.2v-.1l-.1-.1v-.5h.3l.1-.3h.1v-.1h.2v-.8h-.3v-.2h-1.5l-.1-.1v-.1h-.2v-.3h-.2zM217.5 121l.2.2v.2h.3v.2h.9l.1-.4.2-.2v-.2l-.2-.4-.2-.2h-.5l-.1-.1h-.2l-.2-.1-.1.3v.3l-.2.2zm8.8-95.5v.5l.3.1h.9V26h.2v-.2h.3v-.5l-.2-.1-.1-.1h-.1V25h-.1v-.2h-.2v-.1l-.1-.1v.4h-.2v-.3h-.4v.3h-.2v.2zm-153 147.8v.3h.2v.2h.1v.1h.1v.1h1v-.2h.1v-.2h.1v-.6h-.3v-.3h-.1v-.1h-.2v-.1h-.5v.3h-.2v.1h-.1v.1h-.2zm4.1 14.5l.1.2v.2h.2v.2h.3v.2h.2v-.2l.1-.1h.2l.1-.3.4-.3v-.6h-.4v-.1l.4-.2h-.3v.2h-.3v-.2H78v.2l-.1.2h-.3l-.1.2v.1zM180 61.7h.2v.2h.3v-.3h.3l.1.3h.8v-.6h.2v-.5h-.3v-.1l-.1-.1v-.2h-.4v-.1h-.3v.5h-.1v.2h-.2v.2h-.3v.1h-.1v.3h-.1zM137.2 143v.5h.3l.2.2v.3h-.1v.2h.2v-.4h.5v-.2h.1v-.1h.2v-.3h.1v-.6l-.4-.1-.1-.1h-.6l-.1.3h-.1l-.1.1zM1.3 190.5v.3h.2v.2h.1v.3h.1l.1.2h.3l.2.1h.3l.1-.3h.7l.1-.2h.3l.2-.1.2-.2v-.1h.1l.1-.2h.2v-.3H5v-.1h.2v-.1h.7v.3H6l.2.1v.2H6v-.3h-.2l-.2-.1.2.3H6v.5h-.2l-.2.1v.1h-.1l-.1.2-.2.1H5v.1h-.8v.1h.3l-.3.1v.2h-.5v.2h-.1l-.1.1h-.1l-.1.1-.2.1v.2H3v.6l.2-.3v-.2l.1-.1v-.2h.1l.3-.3v-.1H4v-.1h.2l.1-.2h.1v-.2h.1v-.1h.2v.3l-.2.2v.6l.2.2h.1l.2.2h.5l.3.2h.4l.2-.2h.2v-.2H5.1l-.3-.2h-.2v-.6h.1v-.2H5v-.1l.2-.1v-.1h.1l.2-.1.2-.1v-.1h.1l.2-.2v-.2h.2v-.1l.1-.2v-.2H6v-.2h-.2v-.1h-.4v-.2h-.3v.2l-.1.2h-.2l-.2.1h-.3l-.1.1h.2l.1-.2h.2-.2l-.2.3-.1.1-.2.2-.1.2h-.1l-.2.1-.1.1-.2.1h-.8l-.2.2H2l-.3-.3v-.1l-.1-.1v-.2h-.1v-.1l-.2-.1v-.3l.3-.2h.2v-.1h.4v-.2h.1v-.1h.1v-.1H2v.3h-.2v.1h-.3v.2h-.2zM281.6 11.3h.7l.2-.2h.2v.3l.2.1h.4v.2h.5l.2.1v.1h.3v.1h.2v-.4h-.3l-.1-.2h-.1v-.3h-.1l-.1-.1h-.8v-.2h-1v-.2h.4v-.1h.2v-.1h-.2l-.1-.1h-.7v.9zm-86.1 28.3v.4l.2.3h.3v.1h.3v-.2h.1V40h.6v-.7l-.2-.3h-.1l-.2-.2h-.5v.2h-.1l-.2.2-.1.3v.1zM85.6 210.1v.5l.1.1h1.2v-1.5h-.8l-.1.2v.1h-.2v.2h-.1v.1l-.1.1v.1h-.1zm-29.9-13.3v.3l.2.2h.4v-.2h.3l.1-.1h.3v-.3h.4v-.4h-.3v-.2l-.1-.1h-.6l-.2-.3h-.1v.3h-.3v.2l.2.1h.1v.1l-.3.2zM76 177v.2h.2v.1h.1v.1h.1v.1h.3v.1h.2v.1h.5v-.3h.1v-.1h.1v-.1h.1v-.5h-.3v-.1h-.1v-.1h-.1v-.1H77v-.1h-.2v-.1h-.6v.3h-.1v.4H76zm1 .6h.2zm63.3 91.3h.4v.1h.3v.2h.3v.3h.3l.2.1.2.2.2.1.1.1v.3h.2l.2.2v.2h.2v.1h.1v.2h.3l.1.2h.2v.1h.4l.3-.3-.4-.2-.1.2h-.6v-.4h-.2v-.2h-.2v-.1l-.1-.1-.1-.2-.1-.3h-.1l-.1-.3-.1-.1v-.1h-.4l-.1-.2h-.3l-.1-.2h-.3v-.1h-.2l-.1-.1h-.1v-.1h-.2v-.1zM67.6 150.3v.2h.2v.2h.1v.3h-.3v.3h.8v.5h-.3v.2H68v.8h-.2v.4h.2v-.8h.2v-.4l.1-.1v-.1h.1v-.3h.1v-.4h-.3v-.1h-.5l.3-.2v-.4h-.3v-.1h-.1v-.2h.8v-.1h.1v-.5h.9v.2h.3v-.6l-.3-.1v-.4h.4v-.4h.1v-.2h-.5v-.2h.6v.4h.2v.1l.1.1h.1v.1h.3l.2-.3h.1v-.4h-.5v-.2l.3-.1.1-.1v-.6l.1-.1v-.4h-.3l-.1-.1h-.4v-.4l.3-.1v-1h.1v-.1h.3l.1.3v.1h.2v-.5h.2v-.1l.1.3h.3v-1h-.3v-.1h-.2v-.5h.3v.3h.1v.1l.1.1.1.1v.1l.1.1v.1h.3v-.8h.5-.4v-.1h-.3v.3l-.1.1v.3h.3v.1H72l-.2-.3v-.1l-.1-.1-.1-.1v-.1h-.1v-.1h-.3v.6h.3v.1h.1v.2h.1v.1l.1.2v.4h-.4v-.3h-.3l-.1.3v.3-.4h-.4v-.1h-.2v1.1h-.1v.3h-.1v.1h-.1v.5h.8v1h-.4v.2l-.1.1v.2h.6v.2h-.2v.1h-.2v.1h-.4l-.1-.3v-.1H70v-.3h-.7v.3h.4l.1.2v.4h-.3v.1h-.2v.5l.3.1v.3h-.8v-.3h-.5v.7h-.1v.2h-.7v.1zM226.8 28.1v.2l.2.1v.6h1.3l.1-.3h.1v-.4l-.3-.1-.1-.2h-.3l-.1-.1h-.2l-.1.1h-.6zM242 7.5v.9l.3.1.2.2h.3v-.3h.2l.1-.2V8h.2v-.2l.1-.1v-.3h-.4v-.3h-.8v.3h-.2zM101 217.2h.5v-.2h.2l-.3.3-.2.1v.2h.4v-.2h.2v.5h.2v.3h.1v.1h.5v-.3h.4v-.6l-.3-.2h-.1v-.1h-.9v-.1l.3-.2v-.2l-.2-.1h-.2l-.1.2v.2h-.3v-.3h-.2v.3l.2.1zm91.2 43.9v.3l.2.1v.2h.2v.3h.5v.2h.9l.1-.2h.5v-.2h.1v-.1h-.3l-.1.3v-.3h-.1v.3h-.2v-.1l.2-.1v-.1l.1-.1.1-.1v-.1l.2-.2v-.2h.1v-.2h-.3v-.1h.2-.1v.3h-.2v.3l-.2.1-.1.2h-.1v.3h-.3v.1h-.4l-.2-.1-.1-.1h-.1v-.2h-.3v-1l.2-.1.1-.2h.2l.1-.1h1.2l.3-.1.1-.1h.1v-.2l.1-.1h.5-.5l-.2-.1-.1-.1v-.1h-.2l-.1-.1v.4h.3v.2l-.2.1h-.4v.2h-1.3l-.2.1v.3h-.3v.4h-.1zM63 172.5h.3v1h.1v.3h.1v.1h.4v.1h.4v-.9h.1v-.4h-.3v-.1l-.1-.1v-.2h-.3v-.1h-.3v.3H63v.1zm296-3.5v.5h.8v.1h.4l.1-.3v-.2h.2v-.1h.3v-.5h-.3v-.1h-.1v-.1h-.4v-.2l-.2-.1h-.3v.5h.4v.2h-.3v.1h-.5l-.1.1zm0 0h.2v-.2h.2v-.1.3zM194 45l.1.2.1.2.1.1v.2l.2.2v.6l.3.1.6-.3.1-.3h.2v-.3h-.2l-.2-.2h-.1l-.4-.3h-.2V45h-.5zM44 259.6v.1l.1.3h.1l.1.1.2.1h.1l.2.2h.2l.2.1.3.2v.2h.2v.1l.1.1v.3l.2.1v.5-.2.6l.2.1.1.2h.3v.3h.6v.2h.1l.2.1h.5v.2h.2l.1-.2h-.2v-.2h-.3l-.1-.1h-.2l-.2-.1H47l-.3-.3h-.2v-.1l-.1-.1-.2-.1v-.3l-.2-.1v-.9l-.2-.2v-.2l-.2-.2h-.1l-.2-.2-.3-.1-.3-.1h-.1l-.2-.2-.3-.2v-.3H44v.2zm17.4-91.9v.2h.2v.1h.2v.2h.7v-.2h.1v-.3h.1v-.3h.1v-.1h.1v-.3h.1v-.4h-.7v.3H62v.1h-.3v.3h-.1v.1h-.1v.2h-.1zM195 44.5v.2l.3.1h.2v-.1.1h.4l.1.2h.7v-.4h.1V44h-.7v.4h-.1v-.5h-.7v.1l-.2.1v.1h-.1v.2zm.6 9.5v.2h.4v.4h-.3v.2h.3v.2h.2l-.2.1-.1.1h-.2v.3h.7l.1-.3.1-.2v-.4h.1v-.3.2h.3v-.3l-.2-.2v-.1h-.3v-.2h-.5v-.1h-.3zM225 31.3v.1l.1.2v.1h-.1v.3l.1.2h.9v-.4h-.3v-.2h.5v-.1h.2V31h-.2v-.3h-.6v.3h-.1v.2l.3.2.1.1h-.1v-.2h-.3l-.1-.1V31h-.3l-.1.2zM100.2 225.5l.2.4h.3v-.5h.3v-.8h.2v-.2h-.2v-.7h-.6l-.1.3v1.3zM41 276.6l.2.4h.6v.3l.6-.3.3.5.4.3h.4l.1-.1v-.3l-.2-.1-.1.2h-.1l.1-.5H43l-.2-.1v-.2h-1.1l-.2-.1-.3-.1zm64.6-226.2h.3v.4h.1l.3.1v-.3h.3v-.1h.1v-.2h.1v-.2l.1-.1v-.3h.1v-.3h-.4l-.1-.1h-.1v-.1l-.2-.1h-.2v.6l-.3.1v.2l-.1.2zM250.9 12v.3l.1.1h.6v.3h.2v-.4h.1v.3l.1.2h.3v-.4l-.3-.1v-.2l.1-.1h.2v-.5l-.3-.1v-.2h-.2l-.1.2h-.4v.3h-.2l-.1.1zm-174 160.6v.3h.4v.3h.1v-.5h.2v-.2h.1v-.3h.3-.2.8v-.2h.1v-.5h-.3v-.1h-.8v.5h-.3v.1h-.2v.2l-.1.1v.2h-.2v.1zm2.8 34.2v.2h.6l.1-.3v-.1h.2v-.2h.1v-.1h.1v-.1h.1v-.1h.1v-.4h-.2v-.2h-.2v-.1h-.5v.3H80v.1l-.2.1v.1h-.1v.2l-.1.2v.3zM189.5 29.4l.2.3h.1l-.2.2v.6h1.1v-.2h.1V30l-.1-.2v-.2h-.2v-.1l-.2-.1h-.5V29h-.2v.4zM74.3 196.7v.3l.4.2v.3h.5v-.5h.1v-.1l.1-.3v-.4l-.2-.2H75v-.3h-.3v-.1l-.3.3-.1.4v.3zm102 60.2v.2l.2.2v.1h.1v.2h.1v.2h.2l.1-.3.2-.1.1-.1h.2l.1-.1.2-.1v-.6h-.3v-.2h-.5v.3h-.6l-.1.2v.1h-.1zM309.1 214l.2.4.4.1.3-.2.4-.2v-.2l.2-.3v-.1l-.6-.2h-.6l-.2.1zM190.4 15.5h.4v-.3h.2v.2h-.2v.1h.5l.1.2h.2v.1l.1.1h.1v.3-.2l.2-.1v-.5h-.3V15h.3v-.2l-.4-.2h-.1l-.2-.2h-.6v.4h-.1l-.1.2v.4-.2h-.1v.4zM57 162.2v.2h.6v-.4h.3l.1-.2v-.4h-.4v-.1h.3l.1-.1v-.2h.2v-.3H58v-.1h-.3v-.1h-.1v-.1h-.4v.5h-.1v.3H57v.5h.3v.1h.1v.1h-.3v.1H57v.3zm.3-1h.1zm0 0h.1zm.1-.1h.1zm0 0h.1zm.1.6h.2-.3zm.1 0h.1zm0-.6h.1zm0 0h.1zm0-.1h.1zm0-.2h.1zm.1.2v-.2zm0 0h.1zm0 0h.1zm0 .2v-.2zm167-89.6v.2l.1.1v.1l.2.2v.8h.7v-.3h.1v-.3h.1v-.2l-.3-.1v-.4l-.2-.3v-.3h-.4l-.2.2v.1zM13.8 219.7l.2.2v-.3h.2l.1-.1h.2v-.1h.1-.5.3v-.2h.8v.3h.1v.1l.1.1v.2l.1.1v.5h-.3v.2h-.1v.2H15v.1l-.2.2h-.1v.2h-.2v.2h-.1v.1-.4h.3v-.1h.1v-.2h.2v-.3h.2v-.1h.1v-.2h.1v-.2.4h-.3v.1l-.1.1v.2h-.2v.2h-.2v.1h-.1v.1h-.1l-.1.1v.1h-.1v.1h-.1v.2H14v.9h.3v.1h.2v.1h.4v.2h.1v.7h-.2v.1h-.1v.2h.3v-.5l.2-.1v-.1h.1v-.5h-.5l-.1-.2h-.2l-.1-.1h-.1l-.1-.1v-.1h-.1v-.4h.3v-.3h.1v-.1h.1v-.1h.1v-.1l.2-.1v-.1h.1v-.2h.2v-.1h.1v-.2l.1-.1v-.1h.1v-.2l.1-.1v-.8l-.3-.1-.1-.1-.1-.1H15v-.1h-.2v-.1h-.5v.3H14v.3h-.2v.2zm.3 2.3v-.3h.2v-.1h.1v-.1.4l-.3.1H14zm194.8-106.2v.2h.1l.4.2h.1l.2-.2h.1v-.2l.2-.1v-.3h.2v-.8h.1v-.2h-.7v.4h-.2v.4h-.2v.3l-.4.2zM62.1 142v.3h.2v.1h.1v.3h.4v-.5h.1v-.2h.1v.5h-.3v.1h.3v.1-.6h.3v-.1h.1v-.3h.1v-.1h-.3v-.2h-.1v.4H63v-.4h-.2v-.2h.2v-.9h-.2v-.3.3-.3h.4-.4v.2h-.1v1h-.1v.1h-.1v.2h-.1v.1h.3v.3h.1v.1h.1-.3v-.2h-.1v-.3h-.1v-.1h-.1v-.2h.3v-.1h.1v-.1h-.3v.3h-.1v-.3h-.1v.5h.3v.1h-.3v.4zm.2 0v-.2h.3-.3zm0 .1h.5-.3v.3h-.2zm.3-.3h.2zm.1-.5h.2v.2zm0 .5h.3v-.2.4-.2h-.2v-.1h-.1zm.1-1.3h.2v.3h-.2v-.3h-.1zm0-.5h.2zm.1 2.3h.1v.2zM196.5 29.1l.1.1h.5V29h.3l.1.3h.2v.1h.3v-.3h.2V29h.1-.3v-.1h.4v-.2l.1.3.2-.2v-.2h-.2v-.2h-.2v-.3h-.7v.2l-.1.2h-.1v.3h-.2v.2h-.7zM184 252.7v.3h.2v.2h.1v.1h.2v.3h.3l.2.1h.5v.1h.3v.1h.2v.1h.4v.2h.2v.1h.4v.1h.2l.2.3v.5h-.2l-.2.1v.1h-.2v.1h-.1v.5h.3v.2h1v-.2h.3v-.2h-.6v.2h-.7v-.1h-.2v-.5h.2v-.1h.2v-.1h.1l.2-.2.1-.2v-.5h-.3l-.1-.1h-.4v-.2h-.6v-.2l-.1-.1h-.1v-.1h-.2v-.1h-.3v-.1h-.8v-.1l-.2-.1-.2-.2h-.1l-.1-.2v-.4h.5v.3h.1v.1h.1l.1.1h.1v-.3h-.4l-.1-.2v-.1h-.5zm0 0"/><path d="M68 153.1v.3h.6v.1l.3.1h.1v.2h.4v.2H69l-.2.2v.1h-.2v.4h.3v.8l.2.3h.1v.1l.2.1v.7h.3v-.2l.2-.2h.4v.4h.3v.1l.2.2-.2.3h-.3v.1H70v.1h-.3v.1h-.2l-.1.1v.1l.2.2h.3v.6h.1v.1h.3v.1h.5v.1l.1.1v.3l-.4.3v.5l.3.1h.1v.2h.4v.4H71v.2l-.3.1h.1l.2-.1.2-.2.2-.2v-.1h.1v-.1l-.2-.1H71l-.3-.2v-.1l-.2-.2v-.2h.3v-.1l.1-.2v-.6h-.3l-.2-.2H70l-.1-.1v-.4l-.3-.1-.1-.2v-.1h.5l.1-.2h.1l.1-.1.3-.1.1-.2v-.4h-.3v-.2l-.3-.1v-.1h-.4v.3h-.1v.1h-.3v-.9h-.1l-.2-.2-.1-.1v-.8h-.2v-.5l.3-.1h.5v-.4H69v-.1h-.2v-.1l-.2-.1h-.4l-.2-.2v-.1zM249.6 9.2l.1.2.3.1h.2l.2-.1h.4V9h.2v-.7h-.9v.3h-.2l-.2.3v.3zm-116.5 137v.1l.2.1v.1l.1.2v.2h1.3v-.5l-.3-.2-.2-.2v-.1l-.2-.1h-.1l-.3-.2h-.2l-.2.4zm13.6-16.5v.6l.3.4.4-.2.3-.2v-.6l-.3-.2-.1-.5-.3.2zm-95.9 79.6v.5l.1.2.3.2h.5l.2-.5v-.4l-.1-.3H51zm47.5-2.2v.9h.2v-.4h.2-.4v-.2h.4v.2h.3v-.1h.5v-.3l.1-.1v-.2h.1v-.1h-.1v-.2h-.4l-.2.2h-.2.2v-.2h.2v-.5h-.5v-.1h-.2v.2l-.2.2h.4v.4h.2v.1h-.3v.2zM7 249.5v.2h.2v.7h.1v.1h.2v.1h.1v.1h.3v-.4h-.3v-.2h-.2v-.4h.3l.1-.1H8v-1h-.3v-.1h-.2v-.1h-.1v.3h-.2v.1h-.1v.6H7zM187.2 47.7l.1.3v.4l.2.1h.1v.1h.4v-.5.2h.3v.2-.3h.2v-.3h-.3v-.2h-.1l-.1-.1v-.1h.4-.3v-.3h-.8v.2l-.2.1v.1zm41.4-24.9l.1.2h.5v.2h.5V23h.1v-.2h.2v-.5h-.2v-.1h-.2v-.1h-.2l-.1-.1h-.4v-.2h-.2v.3l-.1.2zM87 198.7h.2v.3h.3v.2h.3v.3l.2.1h.8v-.3h-.2v-.3h.3v-.4h-1.7zm-.8 5.9v.1l.1.1h.2v.2h.5v.2l.2.1h.1l.1.3h.1l.2-.3v-.5l-.1-.2h-.4v-.4H87v-.2h-.7v.6zm47.6-59.3l.2.4.1.1h.8v-.4h-.1v-.2h.4v-.2h.2l.1-.2v-.2.2h-.1v-.1l.2-.2v-.1h-.4v-.1h-.1l-.1.3v.4h-.2v-.3h-.8v.3h-.3v.2zm-52.5 27.1v.4h.5v.2h.2v.3-.5h.3v-.2h.9v-.1h.1v-.1h.2v-.1h-.4v.3H83v.1h-.2.2v-.6h.5v-.3h-.3v-.1H83l-.2.3h-.6v.2H82v.1h-.5v.1h-.2v.1h-.1zm.2.1h.2zm.3-.2h.6zm.2.7v-.2zm-.1-.5h.3l.1-.2h.1v-.1h.3-.4v.3h-.2v.1H82v.1zm61.7-18.5v.4h.2v.4h.1v.1h.1v.1h.2v.3h.2v.2h.3v-.3l.1-.1v-.1l.1-.2v-.3h-.3v-.3h-.1l-.1-.1v-.1.3h-.4v-.6l-.2-.1h-.2v.3h-.1v.1zM16.4 223.7v.3h.2v.2l.1.1v.2h.1v.2l.1.1v.1-.6.7h.1v.5l-.3.1v.1l-.1.1v.1l.2.1h.1v-.4h.1v-1.2h-.2v-.3h-.1v-.1h-.1v-.6h.4v-.2h.3v-.1h.3l.3-.1h.3v.3h.2l.1.1h.1l.1.1h.2v.1h.1-.3.3v.1h-.2.2v.1h.2v.1h.1v.1h.1v.2h.1v.1h.1v-.3h-.2l-.1-.2v-.1l-.1-.2h-.1v-.1H19v-.1h-.2v-.1h-.1v-.1h-.1v-.1h-.3v-.2h-1.1v.2H17v.2h-.2v.1h-.1v.1h-.1v.1l-.1.1h-.1zm1.7-.7h.5v.2h.1v.1h.1-.4v-.3H18v-.2zM228.6 25v.5h1v-.2h.2V25h.1v-.5h-.5v-.2h-.4v.3h-.3v.2h-.2zM98.5 212v.2l.4.3.1.1v.1l.3.3.1-.1.1.1h.2l.2-.2v-.3h-.3v-.3h-.5v-.4l-.1-.3h-.4v.3h-.1zm163.1 54.3h.4v-.3h.6l.1.2.1-.2v.2h.8v-.2l-.3-.2-.3-.1v-.1l-.3-.2h-.7l-.2.3v.3h-.1v.1zm81.2-48.1l.1.1.3.1.1.1h.4l.3-.2v-.3l.3-.1h.3l.1-.2.2.3v-.6h-.5l.3.2-.2.1h.1v.2h-.4v-.5.2h-.2v.3-.3h-.7l-.3.1v.3zm22.4-54.2v.2h.4v.3h.1v.1h-.3v.1h-.1v.3l.3.2v.3h.2l.1-.3v-.1h.1v-.4h.3v-.3h-.5v-.1h.4v-.2h.2v-.1h.1v-.4h-.5v.3h-.2v.1h-.2v-.3h-.5v.3zm9.8 15.3v.3h.3v-.3h.4v-.2h.2v-.1h.1v-.3h.2v-.4l-.2-.1-.2-.1h-.7v.7h-.1v.6zm0-.2v-.1h.2zM79.3 203h.7v-.4h.2l.1-.1v-.7H80v-.3h-.4v.5l-.1.3h-.3v.3l.3.1v.1zM247.8 16.7v.2l.2.3h.4l.1-.2h.3v-.3h.2v-.2h.2v-.4l-.2-.1h-.8v.2h-.2v.2l-.2.1v.1h-.1zm-144.1 37v.1l.3.2.2.2h.1l.1-.2h.1l.2-.2v-.1l.1-.2v-.2l.2-.2-.3-.1-.2-.2h-.1v-.1h-.3l-.1.3v.3h-.3v.2zm258.4 151.9l.2.2v.1h.2v.1h.1v-.3h.1v.3h.1l.1-.1h.2l.2-.2h.4v-.3l-.2-.2h-.3v-.1h.3v-.1h.1v-.2h-.2v.2h-.2l-.2.2h-.3v-.2h-.4v.1h-.2v.4zm-3.3 3h.4l.1.2h.1v.2h1v-.3h.1v-.1h.1v-.4h-.4v-.1l-.2-.1v.3l-.3-.1-.1.2v.1h-.2v-.4l-.2-.4h-.2v.7l-.3.2zM244.1 12.8h.3v.2h.1v-.3h.2v.6h.3v.2h.2v.1h.1v-.3h.2v-.8h.1v-.2h-.6v-.2h-.4V12h.4-.4v.2h-.1v.2l-.2.1v.3zM79.5 205.3h.2v.3h.1v-.3h.2v.3-.3l-.1-.2h.3v-.1H80l.2-.2v.4h.1v.1h.2v-.3h.1l.1-.2h.1-.1l.2.2h.1v-.2h-.2.2v-.2.3h-.3v-.3h-.1l.3-.1.1-.1v-.6h-.7v.3h-.2v.8l-.1-.3v-.1h-.2v.4h.2v-.2.3h-.3v.3h.3v.1h-.5v-.3h.3v-.1h-.3zm1.1-.4v-.2h.3zm327.2-8.3v.5h.2v.3h1v-.6h-.2v-.5h-.1l-.1-.1h-.7v.4zm-307.8 9v.2h.7l.1.2.2-.2h.2l.2-.1.2-.5h-.2l-.4-.2-.2-.2h-.2l-.3.4v-.2l-.1-.1v-.1.3h.2v.3zm-30.7-69v.3h.2v.4h.3l.1-.3h.1v-.3h.2l.1-.1h.5v.4h.1v.2l.1.1v.3h.2v.3H71v.1h-.3v.4h-.2v.6h-.4l-.1.2v.3h.4l.2-.3h.1v-.1h.2l.1.3v.2h.3v.1h.3v.1h.1v.2h.1v-.4h-.2v-.1h-.4v-.1H71v-.2l-.2-.1v-.1h-.2v-.8l.3-.1v-.1h.1v-.2h.2v-.6H71v-.2h-.2v-.2h-.1v-.1h-.1v-.1h-.1v-.1h-.4v.3H70v.1l-.2.1h-.1v.2h-.3v-.5h-.1v-.6l.3-.1v-.3h.2l.1.3h.1v.3l.2.1v.1h.2v.1h.2v-.3h.1v-.3h-.5.4l.1-.2v-.1h.1v-.3h-.4v-.1h-.1v-.1h-.1v-.1h-.1v-.1h.9v-.4h-.4v-.1h-.2v-.1h-.1v-.1h-.1v-.1H70v-.2h.2v-.2h.1v-.4H70v-.2h.4v.3h.1v.1h.3v-.4l-.3-.1h-.3v-.1h-.1v-.5h.4v-.1h-.4v.4H70v.4h.4v.1h.3v.1h.1v.2h-.4l-.1-.3v-.1H70v1.1h.2v.1h.1l.1.1.1.1h.1v.1h.2v.1h.2v.1h-.5v.1h-.4v.4h.3v.1h.2v.1h.1v.3l-.3.1h-.3v.2h.3v.1h.2v.2h-.5v-.5H70v-.2h-.2l-.1-.1h-.3v.3l-.1.2v.3zm.8 2.6v-.2h.6l-.3.3v.1h-.3zm7.2 21.4v.3h.2v.1h.5v-.3h.2v-.3h.1v-.1h.1v-.3h-.3v-.4h-.6v.4h-.2v.4l-.1.1v.1zm.7-.8v.2h.3zm-20.7 3h.3v.5h.2v.1h.6v-.3h.1v-.1h.1v-.5h-.3v-.1h-.1v-.3l-.1-.1h-.3v.3h-.3v.2h-.1v.1h-.1zm41.9 42.9v.2h.6v-.3h.1v-.2h.1v-.6h-.2.2v-.5h-.3v-.2h-.2v-.3h-.2v.6l-.1.1v1.1zM355 171h.5v.2h.3v.1l.1.2h.2v.2h.2v.1h2.4v.2h.4l.1.3h.5v.1h.2l.1.1.2.1h.5v-.4l.2-.2h-.3v.3l-.2.1h-.6l-.2-.3-.3-.1-.3-.3h-.2v-.1h-1.4l-.1-.2h-.4v.3h-.7l-.1-.3h-.1v-.1l-.1-.1-.1-.1h-.2v-.3h-.3v-.1h-.3zm0 0"/><path d="M342 219v.3h.3v.3h.5v-.4h.2l.2-.3v-.1l.3-.3h-.5l-.1-.2h-.7v.5h-.2.1v.2zM76.1 179.5l.1.1v.2h.4l.2-.1.2-.2.3-.3v-.2h.1v-.3l-.3-.2-.1.2h-.4l-.2.2h-.1v.2zM55 173.4h.2v.2h.2v.6h.1v.1h.1v.1h.1v.1h.3v-.3h.6v-.4h-.5v-.3H56v-.2h-.2v-.2.3h.4-.2v-.3h-.4v.3h-.1v.1h-.2v.1-.3h-.2zM345.6 215v.5l.2.2.2.1.3-.3.1-.1v-.6h.2v-.2h.1-.2v-.1l-.2-.2h-.4l-.1.2h-.1v.3h-.2v.2zM194 20.2v.2h.3v-.2h.1v.4h.3v.1h.3l.1-.4h.2v-.5h.2v-.3l-.3-.1h-.2v-.1l-.2.3h-.3v.1h-.1v.2h-.1v.1h-.2v.3h-.1zM63.9 147.7v.3h.6v.2h.3v.1h.2v-.3h.2v-.8h-.4v.3h-.2v-.3h-.1v-.2h.3v-.3h.2v-.3h.2v-.1h.2v-.3h-.6v.4h.2v.2h-.2v.1h-.2v.1h-.1v.2h-.2v-.3h-.1v-.1l-.1-.1v.7h.3v.1h.1v.3h-.3v.1h-.1v.1h-.3zm.3-.6v-.1h.2v.2h.1v.1h-.3v-.3zm0-.2h.2zm.1 0h.2v.1h-.3zm0 .3h.2zm.1-.2h.1zm.1.2v-.1h.1v.3h.1v.1h-.3v-.3zm-.1-.2h.3v.2h-.3zm.2-.3h.2zm.2 0v-.2h.2v.3h-.3zm.1-.1h.1-.2zm0-.6h.1-.2zm.1.2v.2zm0 0v-.2zm0 .1h.2zm.1-.1h.2zm-18.2 65.3l.1.3v.2l.4.2v.3l.6-.1h.2l.2-.3-.4-.5h-.4l-.3-.3zm0 0"/></g></g><g fill="none"><use xlink:href="#E" stroke-opacity=".4" stroke-width="2.6" class="E"/><use xlink:href="#E" stroke="#f6967a" stroke-width=".6"/><g clip-path="url(#C)" mask="url(#B)" stroke-linejoin="bevel" stroke-width=".8"><use xlink:href="#F" class="E"/><use xlink:href="#F" class="F"/><use xlink:href="#G" class="E"/><use xlink:href="#G" class="F"/><use xlink:href="#H" class="E"/><use xlink:href="#H" class="F"/><use xlink:href="#I" class="E"/><use xlink:href="#I" class="F"/><use xlink:href="#J" class="E"/><use xlink:href="#J" class="F"/><use xlink:href="#K" class="E"/><use xlink:href="#K" class="F"/><use xlink:href="#L" class="E"/><use xlink:href="#L" class="F"/><use xlink:href="#M" class="E"/><use xlink:href="#M" class="F"/></g></g><defs ><path id="E" d="M.6 197.7l.1-.1m0 0l.7-2m0 .1l-1.9-6.4-.5-2.3m3.7 92.3L.4 277m-4.6-118l-2.1-6.7-.4-5.9-2.5-5.2 3.5-6 2-5.8.5-6.4 2.7-5.2 3.3-6.3.6-5.9 2.5-5.6-.7-5.6 3.5-3.9 3.2-6 1.1-1.4m31-40.7l2-7.1.7-5.8 2.8-5.5-.8-5.9 1.8-6.3-.5-6.3L52 0M.1 271.5l-.8-4.1M52.2 0l2.3-3.3M28 72.2l4.8-4.6 4.8-2.9 2.8-3.9m.1-.1l2.4-5.7 1.1-6.9v-5.6M.4 277l-.3-5.4m0 0v-.1m-.3-3.9H0l.2.1M13 83.3l5.7-5.3 5.6-2 3.7-3.7M.3 267.8h.1m0 0l1 .2m0 0l1.7-.6m-.1 0l.7-.7m1.8-36.8L2 225l-2.5-2.3m4.1 44l2.9-5.7 4-4.4 1.5-3m.1 0l-1.5-5.6m0-.1l.4-3.1m0 0v-.1m0 0l.5-2m0 .1l.1-.6m0 0l.2-.7M8.4 233l-2.1-1.5m5.5 9.9l.4-4.2m0 0L8.4 233m-2.8-3v-.1m.7 1.5l-.7-1.4m-8.4-10.6l1-6 1.6-6.6v-4m0-3.9l.8-1.2"/><path id="F" d="M464.9 76.6h4.1l.6.2 1.7-.8 3-1.4 2.2-.8.6-.2.4-.2 1-.5.5-.2 2.7-1.1 3-1.2 1.3-.6.6-.2 1.4-.5.6-.1 2.8-1.1 2.6-.3 7.1-.1h5l6.9-.3h12.4l1.9-.2 9.2-.2h7.6l4.6-.5 3.5-.5"/><path id="G" d="M403.8 72.7l-5.9-3.7-5.9-3.5-4.6-2.6-11.7-6.7-4.1-2.4-.8-.5-2.2-1.2-3.2-1.9-2-1-6.9-4.2-10.2-9.4-9.4-8.8-3.7-3.4-.8-.8-.4-1.3"/><path id="H" d="M329 11.5l1.3 4 1.4 4.7.7 2.4.8.8 3.8 3.4 9.3 8.8 10 9.4 7.3 4.1 1.8 1.1 3.2 1.9 2.2 1.2.8.5 4 2.4 11.9 6.7 4.4 2.6 3.1 1.9"/><path id="I" d="M562.3 64.7h-.3l-.6-.1h-.9l-2 .2-1.9.4h-.6l-.9.3-4.3.5-2.1.3-4.7.5h-7.5l-9.2.2h-1.9l-4.8.4H506l-5 .1-6.9.2-2.7.1-2.8 1-.6.4-1.4.4-.6.2-1.4.6-2.9 1.2-2.7 1.1-.6.3-1 .4-.2.2-.8.2-1.7.7"/><path id="J" d="M474.7 74.5l-.3.1-3.1 1.4-1.7.7h-10.1l-.5.2h-.7l-1 .5-1.3.8-1.2.6-3.5 1.8-1.4.8-1.3.6-3.6 1.9-4 2.1-4.4 2.5-3.6 2-1 .5-.6.4-1.9 2.6-1.2 2.1-1 1.4-2.8-3-4-4.7-2.8-2.8-8.4-9-4.1-4.5-1.4-.8"/><path id="K" d="M263.7-14.1l5.4-3.2 1.9-1 1.2-.7 2.2-1.1.2-.1 3.1-1.8 2.4-1 4.2-2.3 1.5-.8 3.5 2.1.6.2 2 1 2.6 1.7L299-19l.8.6 1.6.9 2 1 .7.5h.3l1.4-.2 1.6-.2h.6l2.3.5 5.6 1.9 2.9 1 1.4.2 1.2.4.1.2.1.1v1.1l.4.4.7 2.3L326.5 3l2.5 8.5"/><path id="L" d="M395 67.4l3 1.6 7.1 4.5 4.2 4.4 8.5 9.1 2.6 3 4.1 4.4 2.8 3.1 1-1.4 1.2-2.1 1.9-2.6.6-.4 1-.6 3.6-2 4.5-2.2 3.9-2.3 3.6-2 1.3-.4 1.4-.9 3.5-1.8 1.1-.6 1.5-.9 1-.3.4-.2h.7l.5-.1h5"/><path id="M" d="M332 21.3l-.3-1.3-1.4-4.4L326.5 3l-3.8-11.3-.8-2.3-.3-.5v-1.1l-.3-.2-1-.3-1.5-.5-2.9-.8-5.6-1.8-2.3-.7h-.6l-1.6.4-1.4.1h-.4l-.6-.4-2-1.1-1.6-1-.8-.3-4.4-2.4-2.8-1.6-2-1-.4-.3-3.6-2-1.5.8-4.2 2.2-2.4 1.2-2.9 1.7h-.5l-1.7 1.1"/></defs></svg>