<svg xmlns="http://www.w3.org/2000/svg" xmlns:xlink="http://www.w3.org/1999/xlink" viewBox="0 0 497 279" xmlns:v="https://vecta.io/nano"><style><![CDATA[.B{stroke:#fff}.C{stroke:#8d618b}.D{stroke-linejoin:bevel}]]></style><filter id="A" width="100%" height="100%" x="0%" y="0%"><feColorMatrix in="SourceGraphic" values="0 0 0 0 1 0 0 0 0 1 0 0 0 0 1 0 0 0 1 0"/></filter><mask id="B"><g filter="url(#A)"><path fill-opacity=".5" d="M0 0h497v279H0z"/></g></mask><clipPath id="C"><path d="M0 0h497v279H0z"/></clipPath><path fill="#f2efe9" d="M0 0h497v279H0z"/><g fill-rule="evenodd"><path fill="#add19e" d="M493.7 102.6l3.3 4 1 2.9 4-3.2 1-3.1-1-2.8-2.6 1.2-5.4.4-.3.5zm.3-.6h.2zm.1 1.1h.2zm.1.2h1.1l.7.5-1.8-.3zm.5-.7v.1zm-.1 1.5h.2zm1-1.4l.1-.1-.2.2zm.3 0v.2zm.6 2.3v.2zm.1 2.8h.4-.2zm1.2 1.6v.1zm.7-6.6l1.5.1-.7 4-.8-3.7zm.8 6.2l.5-1-.4 1zm3-3.2l.8-.8m-44.3-73.1V29zm-25.2 52.8h.1zm0 0"/><g fill="#aad3df"><path d="M379.2-73.3l.3.2.4.4.3.2.3.3.4.5.2.2.4.3.2.3.1.1.4.3.2.3.4.2.2.3.8.7.7.5.4.3.4.3.3.2.4.2.4.3.6.3.3.3.4.2.5.2h.1l.2.2h.2l.1.1h.1l.1.2h.4l.1.2h.1l.1.1h.3l.2.1h.1l.2.1.1.1.3.1.1.1v.1l.4.3h.2l.1-.1v-.2l.2-.2h.3l.8.5.8.4.4.1.4.4.7.3.3.3.5.3.5.3.3.4h.4l.3.4.5.3.6.6.5.4.6.5.2.1.2.2.1.2h.2l.1.3.2.1.2.2.2.1.1.1.3.3.3.3.1.2.3.2.5.5.3.3.2.2.2.2.1.3.1.3v4.6l.3.5v.2l.2.2.3.3.3.3.4.4.4.4.4.4.7.7.6.5.4.4.6.6.4.6.6.5.2.4.5.5.5.6h.4l.1.2h.2l.1.1h.2v.2l.3.1v.1l.2.3v.1l.2.1v.2h.3v.2h.2l.1.2.1.1.2.2.2.2.2.2.3.1.2.4.4.2.3.2.2.2h.1v.2h.3l.1.2h.2v.1l.3.2h.1l.1.1.1.2h.3v.3h.4v.1l.1.1h.1l.2.3h.1l.1.1.2.1h.1l.3.3.2.2.2.2.5.3.2.4.4.4.4.5.2.3.2.2.1.1v.2h.2v.2l.1.1.2.2.2.2v.2l.3.2v.2l.2.2.1.2.2.2v.2l.1.1.1.1v.2h.2v.4l.3.3v.3l.1.4v1.4l-.2.4-.1.5v.5l-.1.5-.1.5v.4l-.2.5v2.2l.3.3v.5l.2.5v.8l.3.4v.3l.1.3.2.6.3.7.1.5.2.4.2.4.2.5.1.1.1.1.2.3.1.4.3.3v.7l.3.4.5.8.4.6 1 1.5.9 1.7.9 1.6.5 1.3.4 1.1.5 1.1.7 1.3 1.2 1.6 1.8 2 1.3 1.4 1.3 1.3 1.3 1.1 1.3 1.2.7.6 1 .6 1 .8 1.1.6.6.4.5.1.2.2h.4l.2-.1.1-.2h.5l.4.2v.1l.3.1.2.1.3.2h.1l.2.3h.1l.3.1.3.1.2.1.4.2.5.3.8.2.7.3.6.3 1.2.4.9.4.8.3 1.1.6 1.3.5.7.5.5.2.7.5.3.3.2.1.2.3.3.2.2.3.2.2.2.3h.2v.3h.2v.3h.1v.4h.2v.1h.1v.2h.2v.4h.1l.1.2v.3l.1.2.1.3.1.3v.3l.3.3v.7l.2.4v.9l.1.3 1.9-.2 2.2-.1v-.5l-.2-.2-.1-.4v-.4l-.1-.4-.1-.4-.2-.4v-.2l-.2-.2-.1-.2v-.6h-.2v-.2h-.2V16l-.1-.2-.1-.1v-.2h-.1v-.1h-.1v-.2h-.1V15h-.1v-.3h-.2v-.2l-.2-.1-.1-.2-.4-.4-.1-.3-.2-.2-.2-.3-.3-.2-.4-.4-.2-.2-.2-.2-.3-.2-.2-.2-.3-.2-.3-.2-.3-.3-.4-.2-1.3-.7-.7-.4-.9-.4-1.1-.7h-.2l-.1-.3h-.2l-.2-.1h-.2V8h-.2v-.3h-.6l-.1-.2v-.1h-.2l-.1-.1-.2-.1h-.2V7h-.4v-.2h-.3v-.1h-.2v-.2h-.2v-.1h-.1v-.2h-.6l-.1-.2h-.3v-.2h-.3v-.1h-.1v-.1h-.2v-.1h-.2v-.1h-.2l-.2-.2v-.1h-.2l-.1-.1h-.3v-.2h-.2v-.1h-.1l-.2-.1-.1-.1-.2-.2h-.1L448 4v-.1h-.2l-.2-.3-.2-.1-.4-.2-.2-.3-.1-.2-.2-.1-.2-.2h-.3v-.2l-.2-.2-.2-.2-.2-.1-.3-.3-.1-.1-.4-.2-.4-.4h-.2l-.2-.3h-.2l-.2-.2h-.4l-.3-.3-.4-.2-.7-.4-.6-.4-.4-.3-.3-.3-.3-.3-.5-.5-.5-.6-1.1-1.2-.2-.5-.6-.8-.5-1-.4-.7-.5-1.4-.5-1-.6-.6-.8-.8-.3-.5-.3-.5-.4-.5-.3-.3-.2-.2-.3-.4-.2-.3v-.1l-.3-.2v-.2l-.3-.3-.3-.5-.3-.4-.2-.4-.4-.7-.1-.5v-.4l-.2-.2v-.2l-.2-.4-.1-.4-.1-.4-.1-.4-.2-.5v-.9l-.1-.7v-.5l-.2-.1v-.3l-.1-.2v-1.3l-.2-.6v-.5l-.3-.5v-1.2l-.1-.5v-.8l-.3-.4v-.2l-.1-.1v-.9l-.1-.3v-.6l-.1-.3v-.2l-.1-.2v-.5h-.1v-.5h-.1l-.1-.1v-.2l-.3-.1v-.3l-.2-.1v-.6l-.2-.2v-.3l-.1-.3v-.2l-.2-.2-.2-.2v-.2l-.2-.3-.1-.2-.2-.3-.3-.2v-.2l-.2-.2-.1-.2-.1-.2-.1-.1-.2-.2-.1-.1-.1-.1v-.1h-.1v-.1l-.1-.1-.2-.2-.1-.1-.2-.2-.1-.1-.3-.2-.1-.1-.1-.1-.1-.2h-.1l-.2-.1h-.1l-.1-.2-.2-.1-.3-.3h-.2l-.1-.2h-.1v-.1h-.3l-.1-.2-.2-.1h-.1l-.1-.1h-.1l-.1-.1h-.3v-.3h-.2l-.2-.1-.1-.1h-.2v-.2h-.3v-.2h-.2v-.2h-.3v-.2h-.1v-.1h-.2l-.1-.1h-.1v-.2l-.2-.1-.3-.3h-.1l-.2-.3h-.2v-.3l-.3-.2v-.1l-.1-.1-.1-.2v-.2l-.2-.2h-.2v-.1l-.3-.2v-.1l-.1-.1-.1-.1-.1-.2h-.1l-.1-.1-.3-.3-.1-.3v-.1l-.3-.1v-.3l-.1-.2-.1-.3-.4-1-.2-.7-.2-.7-.2-.9-.1-.6-.3-.4-.2-.4-.4-.6-.2-.3v-.2h-.2v-.3l-.4-.2v-.3l-.2-.2v-.6h-.3l-.1-.3-.1-.2h-.1l-.1-.3h-.1l-.1-.1-.2-.1-.3-.1v-.3l-.2-.1-.2-.2-.2-.2-.3-.1v-.2h-.3v-.2h-.1l-.1-.1v-.1l-.2-.1v-.1l-.2-.2v-.1l-.2-.1v-.1l-.3-.2-.3-.2-.3-.3-.1-.2-.2-.2-.3-.3-.3-.4-.3-.3-.1-.2-.3-.3-.3-.3-.3-.3-.4-.4-.3-.4-.4-.4-.3-.4-.5-.4-.2-.3-.2-.1-.2-.3-.4-.3-.2-.2-.2-.2-.2-.2-.4-.2-.3-.2-.3-.1-.3-.3-.3-.1-.4-.3-.4-.2-.4-.4h-.3l-.3-.3-.3-.2-.3-.2-.4-.3-.4-.3-.4-.3-.6-.3-.6-.3-.8-.3-.7-.2-.6-.3-.3-.2-.4-.2-.3-.2h-.3v-.3h-.3v-.1h-.3v-.2h-.3l-.2-.2-.1-.1-.1-.1h-.3v-.2h-.1v-.1h-.4v-.1h-.1l-.1-.3h-.3l-.2-.1v-.1h-.3v-.2l-.2-.1v-.2h-.3v-.1l-.3-.2h-.1l-.1-.3-.2-.2-.1-.2h-.2v-.3h-.1v-.1l-.2-.1v-.1l-.2-.2v-.2h-.3l-.2-.3-.2-.1-.2-.1-.1-.1-.1-.1-.1-.3-.1-.1-.2-.2v-.1l-.2-.2-.4-.5-.1-.2-.3-.3-2 1.4zm1.4.2h.1v.1h.2l.1.2.3.2h.3v.1h.1v.1h.3v.1l.2.1v.2l.5.2h.1l.2.3h.2v.2h.3v.2l.3.1.2.2.3.2.2.1.3.1.2.3.2.1h.1l.1.1.2.2.2.2.2.2.2.2.1.1.2.3h.5l.2.4.3.1v.2h.1v.3h.2v.4l-.3.1h-.2l-.1-.3h-.2l-.1-.2h-.3l-.2-.2h-.2l-.3-.1h-.1l-.2-.2-.3-.2-.3-.1v-.2l-.2-.1h-.2l-.1-.2h-.2l-.4-.5-.1-.1v-.3h-.2l-.2-.1-.2-.2-.2-.2-.3-.3-.1-.3h-.2l-.2-.3-.2-.2-.2-.2-.1-.1-.2-.2-.2-.1-.1-.2-.2-.2v-.2l-.4-.1v-.2h-.1zm10.3 8.1h.5v.2h.1v.2h-.2l-.2-.3-.1-.1-.2-.1zM404-54.4v-1.2l.2-.2.3.5.4.3.3.3.5.7.7.7.6.7.7.8.6.7.4.6.4.6.3.6.3.7.2.7.1.7.2.8.1.6v.3l.3.2v.2l.2.3.2.3v.3h-.4l-.3-.6-.4-.2-.5-.5-.6-.5-.6-.8-.5-.5-.3-.4-.6-.3-.8-1-.6-.5-.4-.3-.3-.2-.3-.5-.3-.5-.1-.7v-2.2zm5.3 9.3l.2.1.1.1.4.2v.1l.3.2.1.1.3.3h.1l.2.3v.3h-.3l-.2-.3-.3-.3-.2-.2v-.2l-.3-.2-.1-.2-.2-.2h-.1v-.2zm13.4 19.6v-1.3l.2-.5.1-.5v-.6l.2-.5v-.3l.2-.3h.1l.1.7.2.4.2.6.2.5.2.6.1.4.1.4.2.5v.6l.2.5v.6l.1.4.1.8v.5l.2.5v.5l.1.5v1.9l-.3.2v.1l-.1.3h-.2l-.3-.2-.1-.3h-.2v-.4l-.2-.1v-.3l-.1-.3v-.1l-.1-.3v-.1l-.3-.2v-.4l-.2-.3v-.7l-.3-.4v-.2l-.1-.3-.1-.5v-.7l-.2-.3v-.4l-.1-.5zm7.3 17h.4l.4.5.5.6.5.9.7 1 .5.8.2.5.4.7.4.5.4.7.3.3.3.4h.2v.2h.3v.1l.2.1.1.2.7.6.5.4 1 .6.8.6 2.2 1.2.5.3.7.4.4.3.5.3.4.4.3.2.1.3.2.2.1.2.3.2v.1l.1.2.1.2V6h.2l.2.1.4.4v.4h-.5l-.4-.5h-.1l-.1-.1h-.2l-.2-.1-.6-.3-.5-.3h-.1l-.4-.1h-.4l-.3-.3-.7-.4-.8-.5-.2-.3-.3-.1-.2-.2-.3-.5h-.2v-.6l-.5-.4-.5-.6-1-.8-.5-.5-.5-.6-.7-.7-.6-.7-1-1-.9-1.4-1.1-1-.3-.6-.4-1-.4-.7-.4-.9v-.1zm3 3l.1.2.4.5.2.3.2.5.6.9.3.3.2.4h-.4l-.1-.3-.3-.3-.2-.4-.3-.4-.5-1.2-.2-.3-.1-.2zm9 10.9h.5v.3h.3v.1h.1l.1.2h.3l1.2.7.5.1V7h.2-.4v.3h-.1v.1h-.1l-.4-.4-.2-.1h-.2l-.3-.2-.1-.1-.4-.1v-.2l-.2-.1h-.1l-.2-.1V6h.3v.3h.2v.1-.3h-.2l-.2-.1h-.3l-.1-.3h-.1v-.2zm23.6 45.8l.6 1 .7 1.1.5 1 .7.9.6.8.6.8.5.7.4.4.2.3.2.2.2.2.3.4.4.5.5.4.6.8.7 1 .7.5v.5l.4.3.3.5.1.3.2.2v.2l.2.4v.2l.3.3v.3l.2.4.1.4.3.4.1.3.1.1.2.3.1.4.2.3v.3l.2.2v3.2l.2.3v.4l.1.3v.3l.2.4.3.6.1.5.3.5.1.3.2.2.2.3.2.2.1.3.2.2.2.2.2.3h.4l.1.4h.2v.1h.3v.2h.9l.1.3.3.4.4.4.5.7.8 1 .4.6.4.4.2.5.4.3v.3l.3.4.2.4.4 1 .3.4.2.6.3.6.4.5.4.6.6.8.7.8.4.6.6.5.4.4.3.3.3.3.5.4.3.2.6.6.6.3.7.4 1.7 1 .6.3.5.3.7.3.6.5.7.3.7.3 1 .6.7.2.2.1.3.1h.3l.3.3h.7l.2.1.3.1.3.1.5.2.5.2.7.1.7.2h.3v.2h.7l.2.1h.8l.4.2h.2l.2.1h.2l.3.2h.2l.4.2.3.1.4.2h.2l.2.3.3.1.2.1v.2h.1l.2.2.2.1.1.2.2.1v.1l.3.3.1.2.2.2.3.6.2.3.3.7.2.4.1.3.2.5.1.5.1.3v.2l.3.5v.3l.1.5v.8l.1.3v5.9l-.3.2v1.5l-.1.2v.4l-.1.3v1l-.1.4v.8l-.1.3v.3l-.2.4v.9l-.1.4v.4l-.1.2v.7l-.3.3-.1.3-.1.3-.3.3-.1.2v.2l-.3.3v.4l-.1.3v.4l-.2.4v1.8h.2v-.3h.2v1l2.5-.5h1.9v-.3l.2-.6v-.8l.2-.3v-.5l.1-.3v-.5l.1-.2v-.5l.1-.3v-1.1l.2-.4v-.3l.1-.2v-.4l.1-.3v-.2l.1-.1v-.4l.2-.2v-.1l.1-.3.1-.3.1-.3v-.2l.2-.2v-1.2l.2-.4V115l-.3-.2v-4l-.1-.1v-.3l-.1-.2v-.5l-.2-.2v-.5l-.1-.3v-.7l-.1-.4v-4l-.2-.2v-.2l-.1-.1V102l-.2-.2v-.3l-.1-.5v-.6l-.2-.2v-.2l-.2-.2v-.1l-.1-.2-.2-.2-.2-.1-.1-.2h-.1l-.1-.1v-.1l-.2-.2-.1-.1-.2-.2-.3-.1-.2-.2-.2-.2h-.3v-.1h-.1l-.3-.3v-.1h-.1v-.1h-.2V97h-.2v-.1l-.1-.1h-.1l-.1-.2h-.5l-.2-.1h-.2l-.1-.1h-.2l-.1-.1-.2-.3-.3-.1H510v-.2h-.6v-.1h-1.5l-.2-.1h-.4l-.3-.1h-.3l-.1-.1h-.3l-.3-.1-.3-.2-.3-.2-.4-.2v-.1h-.2l-.2-.3-.4-.1v-.2l-.2-.1v-.2l-.4-.3-.1-.1-.1-.2-.2-.1-.1-.1v-.1l-.3-.1-.1-.1-.2-.2-.2-.2-.3-.1v-.1l-.3-.1-.1-.1-.1-.2-.3-.1-.5-.4-.7-.4-.3-.3-.2-.3-.3-.1-.2-.3-.3-.2-.3-.2-.4-.3-.5-.4-.3-.4-.4-.3-.2-.2-.1-.2-.3-.4h-.2l-.2-.3-.3-.5-.3-.4-.2-.5-.2-.1-.1-.2-.2-.1-.3-.2-.3-.4-.6-.5-.5-.6-.5-.7-.7-.8-.4-.4-.3-.4-.5-.5-.2-.1-.2-.3-.4-.2-.3-.2-.3-.4-.4-.3-.2-.2-.4-.3-.3-.4-.3-.2-.3-.4-.2-.2-.1-.2h-.2v-.2l-.2-.2v-.2l-.3-.2-.1-.2v-.2l-.3-.3-.2-.2-.2-.3-.2-.3-.2-.3-.2-.2-.4-.5-.3-.5-.3-.5-.2-.2-.1-.4-.2-.3-.2-.4-.1-.2-.2-.2v-.2l-.3-.2v-.2l-.1-.1V70l-.3-.3v-.2l-.2-.3-.2-.4-.2-.4-.2-.4-.2-.5-.2-.2-.2-.3-.3-.4v-.2l-.3-.3-.5-1-.4-.6-.3-.6-.3-.6-.2-.3-.1-.3-.2-.3-.1-.2V62l-.3-.3v-.1h-.1v-.3l-.1-.1-.1-.1-.1-.3-.2-.5-.2-.3-.2-.3-.2-.2-.4-.2-.3-.3-.5-.6-.5-.4-.5-.7-.5-.6-.4-.7-.4-.8-.6-1-.2-.5-.2-.5-.1-.2-.3-.6-.1-.4-.2-.4-.2-.3-.1-.4-.2-.4-.1-.5-.2-.4-.8-1.7-2 1.6-1.3 1.2zM477.5 69v-.2.1l.5.5.6 1 .9 1.6 1.3 2 .1.2v.2l.1.2v1l-.3.4v.2h-.3l-.3-.6-.4-.2-.4-.4-.3-.2-.3-.3-.2-.2-.2-.3-.3-.4v-.3l-.3-.3v-.4l-.3-.7v-2.6zm.7 5.6l.2.2.1.2.3.1v.1l.5.4.3.3.4.1v.2l.2.2.3.3v.1l.2.2v.3h-.3l-.3-.1-.2-.2-.2-.2-.1-.2-.2-.2-.2-.2-.2-.4-.2-.2-.3-.4-.2-.4-.1-.1zm2.3 2.8l.3-.2h.2l.2.2-.2.2h-.5zm.5-1.8v-.4l.2-.2h.2v.1l1 1.5 1 1.4.3.6.3.5v.2l.2.1v.3h-.4l-.1-.3-.2-.2-.2-.2-.6-.6-.5-.7-.4-.5-.2-.2-.2-.4-.4-.6zm3 4.4v-.2l.2-.2h.2l.3.4.2.4.2.3.3.3v.5h-.3v-.2h-.1v-.2h-.2V81l-.2-.2-.4-.5-.2-.2zm1.3 2h.3l.4.5.3.2.2.2.5.7.5.6.6.7.6.7.7.7.6.7.8.7 1 .9.5.6.9.7 1.1 1.1 3.3 2.7.2.1v.1l.2.1v.2h-1l-.2-.2-2.7-1.5-.8-.5-1-.7-.3-.3-1-.6-.8-1-1.1-1.1-1.2-1.6-.4-.6-.5-.6v-.4l-.4-.6-.6-1-.5-1.5zm11.9 12.2h.4l.1.3h.3v.1h-.6l-.2-.2zm0 .1"/><path d="M458.6 35v1.5l.2.1v.2l.2.2v.8l.1 1.2.1 1 .2 1v.3l.3.5.2 1 .3.5.4 1.1.4.6.2.3.2.1.1.2.2.1.3.3.2.3.8.7.5.9.4.4.3.5.5.5.3.7.3.6.3.6.6-.5 1.5-1.2 2-1.6-.7-1.3-.7-1.2-.3-.7-.5-.7-.5-.7-.2-.5-.3-.4-.5-.4-.4-.6-.6-.6-.3-.5-.2-.2-.8-1.3-.4-1-.3-.4V37l-.1-.5-.2-.8-.1-1.7v-.6l.1-.7.3-.6.2-.6.6-1 .3-.5.4-.6.4-.4.1-.5.3-.2.2-.3.1-.3.4-.5V27l.1-.3.2-.3.1-.4.2-.2v-.2l.2-.2v-.2l.2-.2v-2.1l-.2-.1v-.2h-.1l-.1-.3-.1-.2v-.2l-.2-.3v-.1h-.1V21l-.1-.1v-.2l-.1-.3v-.1l-2.2.1-1.9.2v3.2l-.2.4v.5l-.2.7v.5l-.1.6-.2.5-.1.6-.3.4-.4 1.5-.4.8-.3 1-.3.8-.5 1.1-.2.8v.4zm.8 3v-.6h.2l.6 1.1.2.5 1 1.6.6 1.2 1.1 1.2.5 1 .3.6.3.6.4 1.3.3 1.8v.2h-.5l-.1-.5-.5-.4-.7-.8-.6-.8-.8-.7-.3-.5-.4-.4-.3-.6-.2-.5-.3-.7v-.3l-.2-.2v-.4l-.2-.3v-.6l-.2-.8-.1-1zm-274-19.4l.1.3.3.4h.2l.4.5h.3l.5.4h.2l.1.1.2.1h.3l.5.4.5.2.2.2h.4l.2.3h.2l.4.4h.1l.1.1.4.2h1.5l.3-.2.2.2h.4l.2.3h.1l.3-.3h.1v.1h.4l.1-.3v-.2h.4l.2-.2.2-.1h.2l.4-.1-.2-.6h-.2l-.3.2h-1v-.5h-.7v.5l-.4-.2-.1.2v-.5l-.3-.2h-.5l-.3-.2h-.5l-.5-.5-.4-.3-.3.2v.3l-.3.3h-.4l-.5-.1v-.3l.5-.1v-.2l-.4-.6-.4-.6-.6-.7h-.3l-.1.1-.2-.2h-.2l-.2-.2h-.2l-.3-.2h-.5l-.5-.1-.2.9-.1.3zM291 8.6l.3.1V9l.1.2h.2l-.1.2v.1h.4l.1.5.6-.3.4-1.2V8l-.2-.2.7-.7h.1l.4-.4V6l-.1-.3v-.1h.1l.2-.2.2-.3.4-.3.2-.3V4l.4-.5v-.2l-.1-.1-.6-.4h-.3V3h-.7l-.6.6-.3.4-.3.4v.2l-.1.2v.1l.2.2-.1.1h-.5l-.2.3v1l.2.2v.2l-.6.6h-.4zM90.8 242v.4h.2v.9l.3.1v.3h.1v.3l.2.3v.3h.1l.3-.2h.2v-.2h.4v-.2h.4l.2-.1.2-.3h.1v-.1h.4l.1-.1v-.1l.2-.2.1-.1v-.3l.2-.2v-1h-.7v-.3h-.2v-.4l-.1-.2v-.2H93v.2h-.6v.2h-.1l-.2.2h-.9v.2h-.4v.1l.3.1-.2.1v.3zM80 268.7v.5h.2l.1.1h.3v.4h.8v.1h.2v.4h.1l.1.3h.2l.2-.2h.1v-.1h.4v-.4h.3v-.1l-.4-.2.3-.2h.3l.1.1h.1l.4.4v.2h.4v-.3h.1v-.3l.1-.1v-.3l-.2-.1-.2-.3v-.2h-.5v-.2h-.4l-.1-.2h-.3v.2h.3v.7h-.2l-.2.1h-.2l-.1.3H82v.1l-.1-.2-.1-.2v-.6l-.4-.1h-.6v-.3h-.4v.3h-.3v.2l-.2.1zm-18.8-1v.3h.3v.4l.1.1v.1h.7v-.2h.5v-.4h.1v-1h-1.6v.6zm2.3 2.4h.2v.3h.2l-.2.3v.2h.3v.1h.5v.2l.2.2h.1v-.2h.2l-.2-.2v-.3l.4-.1v-.4l-.2-.2-.1-.1-.2-.4h-.3.2v-.3h-.1v-.4h-.2v.4h-.1l-.4.2v-.1.3h-.3v.4zm8.2 9.6h.8v-.2h.3v-.2h.2v-.3h.2v-.2h.2v-.1l.2-.4h.1-.2v-.2h-.3v-.1h-.6.2-.2l-.1-.1h-.1v.4h-.1v-.3l-.1-.1H72v.1l.3.1v.4-.3H72v-.1l-.2.2v.7h.2v.3h-.1v.3l-.3.1zm1-1.5h.3zm423.7-167.7v.1-.2l.2-.2h.1v.3h.3l.2-.3v-.4h.1v-.2l.2-.2h.2l.1.4h.2v.2h.5v-.4h.2v-.2h.2l.1-.1h.8v-.1h.2v-1.5h.2v-.1h.1l.2-.2v-.1h.1l.2-.1.2-.2h.2l.3-.4.2-.1.3-.1h.2v.3h1l.2-.2v-.1l.1-.1v-.1h.1l.3-.2h.1v-.2h.1v-.2h.2v-.2l.1-.2.1-.4.1-.1v-.5l-.4-.1v-.1h-.2v-.2h-.2v-.1h-.3v-1.2h.3v-.2l.1-.1v-.2h.1v-.3l.3-.1.1-.2h.2l.1-.2h.3v-.5h-.2v-.2h-.4v-.5h.8v.3h.2v-.6h-.3v-.1h-.1v-.2h.4v-.2h1.1l.2-.1v-.9h-.3v-.1h-.1l-.3-.1h.2l.2.5.2.2v.4l-.4.2h-.4V99h-.4l-.1.2-.3.1v.6l.3.1v.1h-.3l-.1-.1h-.4v.7h.1l.1.1.3.1v.3h-.6l-.1.2-.2.2-.1.2-.2.2v.2-.2.4h-.3v.2l-.1.2v.9l.3.1.1.2.2.1.3.1.2.4v.4l-.4.3v.3l-.1.2-.1.1v.1l-.4.1-.1.3h-.1l-.1.1-.2.2h-.5l-.3-.4h-.1v-.1h-.3l-.1.2-.7.6-.3.2-.2.2h-.1l-.2.2-.2.2v.5l-.2.4v.5h-.4l-.1.2h-.6l-.2.3-.2.1h-.4l-.1-.1v-.2h-.6v.2l-.2.1v.5h-.6zM86.6 265.8v.2l.4.2h.6l.2.1.2-.1.1-.1v-.6l-.2-.3-.3-.2v-.2h-.1v-.3h-.2v.3h-.1l-.2.2v.2h-.2v.1l-.2.1v.2zM388 18.5l.1.4h.2l.3.3h.5V19l.2-.1.1-.3.1-.4v-.1l-.1-.1v-.1l-.2-.2h-.7l-.2.1-.1.2-.2.4zM71.8 230l.2.2v.3h.2l.1.1.1.2h.3l.1-.1h.2v-.2l.2-.1h.1v-.5h.1v-.2l-.2-.1v-.1H73v-.2l-.5.3v-.3H72v.2h-.1v.3h-.2zM381.4 13.4h.1l.2.3h1.1l.2-.3.1-.2.3-.2v-.2l.2-.2.1-.3h-1.1v.3h-.2v.2h-.2l-.2.2-.4.3zm-46.2 237.1l.1.2.3.3h.7v-.1h.1l.1-.2v-.7l-.2-.3-.5-.2h-.1l-.4.3v.5zM373 30v.2l.2.2.1.2v.3l.2.2.1.2.1.1h.1l.3.2h.3v-.9h-.2v-.2l-.1-.1h-.1v-.2h-.1l-.1-.2h-1zM108 255.8v.4h1v-.2h.4v-.5l-.4-.4h-.7l-.2.3v.2h-.1zm88.7-238.2v.1h1.1l.3-.6.2-.5h-.3l-.1-.3h-.2l-.3.3-.4.4v.2l-.2.2zM210 243.4l.4.4v.2h.1v.2h.5v-.2h.1l.2-.2h.1v-.7h-.4v-.1h-.6l-.1.1h-.1l-.2.2zm-103 10.9h.5v.1l-.2.1v.2h.7v-.5h-.3l.3-.2v-.1l.1-.1.1-.2h.1l.1-.2h.6v-.2h-.4l-.1-.1-.2.1h-.1v-.2h-.2v-.2h-.2v-.2h-.1v.4h.3v.8h-.5v-.1h-.3l.2.3v.2h-.4zm1-1.2h.2zm0 0"/></g></g><g fill="none" clip-path="url(#C)" mask="url(#B)" class="D"><g stroke-width=".8"><use xlink:href="#E" class="B"/><use xlink:href="#E" class="C"/><use xlink:href="#F" class="B"/><use xlink:href="#F" class="C"/><use xlink:href="#G" class="B"/><use xlink:href="#G" class="C"/><use xlink:href="#H" class="B"/><use xlink:href="#H" class="C"/><use xlink:href="#I" class="B"/><use xlink:href="#I" class="C"/><use xlink:href="#J" class="B"/><use xlink:href="#J" class="C"/><use xlink:href="#K" class="B"/><use xlink:href="#K" class="C"/><use xlink:href="#L" class="B"/><use xlink:href="#L" class="C"/><use xlink:href="#M" class="B"/><use xlink:href="#M" class="C"/><use xlink:href="#N" class="B"/><use xlink:href="#N" class="C"/><use xlink:href="#O" class="B"/><use xlink:href="#O" class="C"/><use xlink:href="#P" class="B"/><use xlink:href="#P" class="C"/><use xlink:href="#Q" class="B"/><use xlink:href="#Q" class="C"/><use xlink:href="#R" class="B"/><use xlink:href="#R" class="C"/><use xlink:href="#S" class="B"/><use xlink:href="#S" class="C"/><use xlink:href="#T" class="B"/><use xlink:href="#T" class="C"/></g><g stroke-width="1.2"><use xlink:href="#U" class="B"/><use xlink:href="#U" class="C"/><use xlink:href="#V" class="B"/><use xlink:href="#V" class="C"/><use xlink:href="#W" class="B"/><use xlink:href="#W" class="C"/><use xlink:href="#X" class="B"/><use xlink:href="#X" class="C"/><use xlink:href="#Y" class="B"/><use xlink:href="#Y" class="C"/><use xlink:href="#Z" class="B"/><use xlink:href="#Z" class="C"/><use xlink:href="#a" class="B"/><use xlink:href="#a" class="C"/><use xlink:href="#b" class="B"/><use xlink:href="#b" class="C"/><use xlink:href="#c" class="B"/><use xlink:href="#c" class="C"/><use xlink:href="#d" class="B"/><use xlink:href="#d" class="C"/><use xlink:href="#e" class="B"/><use xlink:href="#e" class="C"/><use xlink:href="#f" class="B"/><use xlink:href="#f" class="C"/></g></g><defs ><path id="E" d="M193.2 284.6l-4 1.4-3.2-1.3-2.4-1-7.4-3.3-9-3.7-.6-1.3-3.8-6.4-3.8-6.5-.3-.4-6.5.1-4 1.8-2.4 1-4.6-5.3-.8-.1-1.2-.4-1.4-.5-2.1-1-1.1-1.5-3.6-4.1-3-3.5-5.6-2"/><path id="F" d="M43 115.5v-.3l-.9-.5-.5-.3h-1.9l-.7.3-.5.3-.9.3-.6.2-.9.2h-.6l-.7.3-1.2.1-1.6.1h-2.7l-.5-.5-.8-.3-.5-.4-.3-.3-.4-.2-1.8-1.1-.4-.4-1.7-1.1-.9-.7-.5-.5-1.5-1.3-.2-.1-.6-1v-.2l-.3-1.3-.6-2.1L17 99v-.2l-.7-2.4-1-4.4-.6-.8-1.4-1.5-.7-.9-.2-.2-.2-.3-.9-1-.6-.6-.7-1-1.7-2-4.1-4.8-.5-.5-2.9-3.5-4.4 3.1-.2.3-3 2-.5.6-1.2.7-2.4 2-.3.4-1.6 1.1-.4.4-.8.5-2.3 1.8-.5.2-.3.4"/><path id="G" d="M169 3.6h-.2v-.3l-.2.2h-.3l-.3.2V4h-.4v.2h-.1v.3l-.1.1h-.1V5l-.1.1h-.4v.2l.1.1v.2h-.8V6h.4v.2h-.5v.1l.1.2-.1.3h-.4l-.2.1h-.4v.3l.2.1h-.5l-.2.1-.1-.1h-.4v-.1l-.2-.2h-.2l-.2-.2v.5h-.3l-.1.2h-.2v-.4h-.3v.3l-.2.1v.1l-.1.2v.1h-.4v-.5h-.2l-.1.3h-.3V7l-.2.3h-.2l-.1.2h-.4l-.3.2h-.5l-.2.1h-.1l-.4-.2-.2-.2h-.2l.1.2v.1h-.1l-.2.2h-.5v-.2h-.2V8l-.4.1h.1l-.3-.1v-.3l-.4-.1-.3-.1h-.2v.2l-.3.1V8h-.3l-.1.2h-.3v-.3h-.2l-.2.1h-.3v.6h-.3v.3h-.1V9h-.4l-.2.2-.1.2h-.1v.2l-.3.2v.2l.3.1v.2l-.1.2-.1.5-.1.4-.3.4-.6.3-.3.1-.6.1-.3.2-.3.3-.3.2-.6 1-.4.5-.1.2-.2.3-.3.3-.2.3-.3.7v1.2l-.4.5-.2.9-.4.8-.3.3-.4.5-.3.4-.5.3-.5.7-.6.2-.7.3-.3.2-.5.2h-.3l-.3.2-.6.2-.4.3-.3.2-.5.6-.3.3h-.2l-.2.4-.2.4v.4l-.2.5v1.4l-.3.3v.3l-.3.3-.1.4-.1.1v.4l-.1.3v.2h-.5l-.4.1-.3.2-.1.3-.2.2v.8h-.3v1.2l.2.2v.2l.1.2v.1l-.4.4v.1l.2.2-.1.3h-.1l-.2.1v.1h.2v.3h-.3l-.2.2v.6l-.1.1v.1h.3v.3l-.3.1-.3.3-.1.1v.8l-.3.1v1.1h-.1v.5l-.2.1-.3.1v.8l-.2.1v.6l-.3.3.3.2-.1.2v.1l-.3.2v-.1h-.1v.3h-.3v.5h-.4l-.1.2v.4l.2.3v.1l-.1.3h.1v.6h.2v.6l-.3.1h-.1l-.3.2.1.1v.2h-.2l-.2.2v.1l-.1.1-.2.2h-.1v-.1h-.2v.1h-.5l-.1.2h-.2l-.2-.2v-.1l-.3-.1v.1h-.7v.7h.3l.1.3v.1h-.2l-.1.3v.2h.4v.6h.2l-.3.1v.2h.3l.1.2v.2h-.1v.2l-.1.2-.2.1h-.5l-.3.3h-.1v-.3l-.4.2v.1h-.1l-.2.3h-.6v.1l-.2.1v.4l-.2.1v.3h-.2l-.2.2h-.2l.1.2-.1.3h-.2v-.3h-.2v.3h-.3"/><path id="H" d="M111.3 88v.3l.2.1h.2l.2.4v.2l-.2.3v.8l.2.4.1.3v.3l-.2.4h-.3l-.3.2-.2.2v.8h.6l.4.2.2.1v.5l-.2.1h-.8l-.2-.3h-.2l-.2-.1h-.3l-.2.2v.2l.1.4h.3v.4l.2.2v.4l-2 2.2-5.4 5.1-4.7 4.2-1.6 1.2-2 1.4-.5.4-.5.1-.9.4-.6.1-.7.2-.9.2-.4.3-.5.4-.4.5-.2.5-.6.8-.3.3-1.3 2.2-1.4 2.1-1 1.6-2 2.8-1.9 3.3-1.9 2.8-2 3.2-1 1.3-.2.4-1 2.4-.7 1.9-2.4 5-.4 1.1-1.8 4.3-.4 1.3-.4.5-.7 1-1.2 1.3-1.4 1.2-1.1.7-.7.6"/><path id="I" d="M160.8 265.6l2 3.4 3.7 6.4.8 1.3 8.9 3.8 7.4 3.1 2.4 1.1 3 1.3 7.7-2.6 5.3-1.8 5.2 4.4 6.5 5.8.3 1.1.6 6.2.7 5.7-.3.5-.9 4.3-5.1.4"/><path id="J" d="M122.4 246.6l-4-1.4-.8-.3-2.3-1.3-.7-.5-1.1-.8-2-1-.8-.7h-.3l-.5.3-.7.6-1.8 1.2-1.6.7-2 .6-.8.1h-.4l-2.6-1-3-1.3-3.2-1.2-1.7-.6-.5-.3-1.6-.8-1.6-.9-1.1-.6-.9-.6-1.2-1.6-1-1-.6-1-.6-.7-.4-.7v-.4l-.4-2v-1l-.5-2v-.6l-.6-1.4-.3-.6-1-1.3-1-1-2.1-1.6v-.2l-.7-.5-1.8-1.4-.9-.8-1.2-2-.9-1.6-.1-.6-.4-1.2-.3-2.3V207l-.2-1.4v-2.8l.7-1.9.1-.9.2-1v-.6l-.6-1.8-.7-1.9-.4-.9"/><path id="K" d="M126.5 52v.7l-.3.1h-.1l-.1.3h-.2l-.4.3h-.2l-.2.3-.2.1.1.1h.3l.2.3v.1h-.2l-.2-.3h-.2l.2.5-.4.1h.2v.2l-.3.2h-.1v.3l.3.2v1.1h-.2v.4h.3l.2.2h.3v-.7h.1v-.2l.2-.1v-.1h.2v.3l.4.3v.3l.1.3v.2l.1.4h.1l.2.3.1.1.5.4h1.7v.3l-.1.1h-.3l-.2.2-.2.1v.6l.2.2v.5l-.2.3v.5l-.1.2-.3.3-.2.2-.2.2h-.6l-.1-.2h-.5l-.2.1h-.3l-.5-.1h-.3l-.2-.2-.1-.3h-.3V63h.4l.1-.1v.1l-.2.2-.3.1-.3.1h-.5v-.7l-.3-.2v.3l-.2.2v.4l.1.2h.3l.1.3-.1.1h-.2l-.3.3-.2.4v.4l-.4.2-.1-.3h-.2v-.4l.3-.3V64l-.3-.3-.4.3-.2.5-.2.3v.4l-.2.3-.1.4-.2.4-.3.5-.4.2-.2.5-.3.2h-1l-.1.3-.4.3-.3.4-.2.1v.4l.4.3v.2h-.4l-.2-.2-.2-.1-.1-.2-.2-.1h-.2v.5l.2.2v.2h-.5v-.2l-.1-.1h-.4l-.1.2v-.5h-.5l-.2-.2h-.5v.5l-.4.2-.2.2-.2.3v.3l-.2.3-.2.1h-.3l-.4-.1h-.1l.1.4.2.1.2.2v1.4h-1l-.1-.1v.4l.3.2v.2h-.4l-.1-.2-.3-.2h-.3l-.4-.3h-.2l-.2.2v.2l.2.2h.5l.2.3.1.2v.2l-.3.2h-.2l-.2.1v.4l.1.2.3.1.1.3-.1.1h-.3l-.1.2h-.2l-.1.2-.3.2v.2l.4.1v.5h-1.8l-.2.4.1.2.1.4.1.3-.1.3-.1-.2-.2-.1v-.1h-.3v.6l.4.4.2.1v.8l.1.2.4.2.2.2.2.2v.3l-.3.1h-.5l-.3-.3-.2.5v.1l.4.2h.3l.3.3.2.1v.6l.2.2v.5l-.4.1h-.2l-.2.2v.3h.4l.3-.3.2-.2.1-.3.2-.2V83l.2-.1h.2l.2.1.2.2-.1.3-.2.2-.1.3v.3l.2.2.1.2.2.2.1.1h.2v-.8l.2-.2h.6v1h-.2l-.4.3h-.2l-.2.1-.2.2v.4h1.6l.2.4v.6l-.1.2v.2l-.3.2h-.7l-.2.3v.1"/><path id="L" d="M69.5 193.8l-1.6-4.2v-.8l-.3-1.1.4-1.9.3-3.2V180l-.3-3.3v-1.2l-.3-1.5-.4-1.7-.9-2-.5-1.5-1.6-5-.7-2.3-.1-3.3-.5-1.7v-2.2l-.3-.9-.4-1.8-.6-2.8-.3-1.3-.4-.5-.5-1-.3-.2-.3-.2-.1-.3-.6-.6-.2-.4h-.3l-1.1-1.1-1.6-.9h-.4l-.8-.6h-.7l-1.6-.5h-1.1l-.4-.2-.7-.4-.8-.6-.7-.8-.1-.3-.2-.5-.1-.7v-1.2l.4-1.1.4-1.6.1-.8.2-2.1v-.9l-.3-2.3-.2-.6-.2-.7-.3-.8-.2-.2-1-.8-1.1-1-.7-.9-.2-.6-.3-.8-.2-1.5-.6-2.2-.6-1.3-.3-.5-.2-.3"/><path id="M" d="M136.5 34.8l-.1-.3.2-.1h.1l.1-.1v-.1l-.1-.2v-.2l.3-.2v-.3h-.2v-.6h-.1v-.4l.3-.1h-.2v-.7h.2l.2-.1v-.2l-.2-.2v-.4l.4-.3.2-.2h.4l.4-.3h.1V29h.3v-.4l.4-.3V28l.1-.3v-.5l.1-.6v-.3l.2-.5v-.4l.2-.4.2-.3.2-.1.3-.3.5-.6.3-.2.4-.3.6-.2.3-.1h.3l.5-.4.3-.1.7-.3.5-.2.6-.7.5-.3.3-.4.4-.4.3-.4.4-.8.3-.8.1-.6V17l.2-.7.3-.7.2-.3.3-.4.2-.2v-.2l.6-.6.5-.9.3-.2.3-.3.3-.2h.6l.4-.3.5-.2.3-.4v-.5l.2-.4v-.4l-.1-.2v-.2l.1-.1v-.3h.3l.1-.1.1-.2h.3v-.2h.2v-.1h.1v-.3h.3v-.2h.1l.2-.2.1-.1h.2V8h.6v-.2h.4v-.4h.6l.2.4.2.2.1.1h.2v-.4h.9l.1.2h.1v-.2h.2l-.2-.3h.3v.2l.1.1h.4v.1h.4v-.2h.5l.2-.2h.5l.2-.1V7h.4v.6h.3l.3.2V8h.3v-.3l.1-.1.2-.3v-.1h.2l.1.2h.5V7h.2l.2.1v.2h.4l.1.1v-.2l.3.3.1-.2h.4v-.2L165 7v-.1l.2-.2.3.2h.1l.2-.2h.2l.1-.1.1-.1-.2-.3h.4l.1-.2h-.3v-.4l.1-.2h.4l.1.2h.2v-.2l-.2-.2h.3V5l.3-.1v-.2h.1v-.6h.3V4h.2v-.3h.1l.2-.2h.2l.2-.1v-.1h.3v.4h.5v-.6h.5v-.4l-.3-.1h.5v-.2h.1v-.5l-.1-.1-.2.1v.5h-.2v-.5.1h-.5v-.3l.3-.1h-.1v-.3h.2l.1-.1v-.1l-.1-.1h-.1l-.1-.3V.5h.2V.3l-.2-.3v-.5h-.3V-1l.2-.1.2-.3v-.1l.2-.1h-.2l-.1-.3v-.2l.2-.3v-.1h.5l.2-.2-.3-.2V-3h.3v-.2l-.2-.4v-.1l-.1-.2.5-.3v-.2h-.5v-.1h.4l.2-.2h.1l.2-.1v.1l.3-.1V-5h.2v-.4h.1l.2.1v.3h.2v-.4l-.2-.1V-6l-.1-.2v-.4h-.2l-.1-.1-.1-.1v.1l-.2.1h-.1l-.2-.4h-.1l-.3-.2V-8l-.2-.2.2-.1v-.2h-.3v-.4h-.4l-.3-.1v-.3h-.1v-.5h.2v-.2l-.1-.2-.2-.1v-.2l-.2-.2v-.1l.3-.3h-.3v-.2h-.3v-.4h.1v-.1h-.1v-.7h-.2v-.1l-.2.2v-.2l-.1-.1"/><path id="N" d="M174.4-39.4h.6l.1.3.2.1v.2l-.3.2v.7l-.3.2.3.2.2.3.1.1.3.2h.3l.3.1.3.2.1.2v.4h.6l.3.5.1.2-.1.3v.3l.1.7.1.5.3.5v.4h-.5v.6l.2.2v.2l-.2.1h-.6v-.8l.3-.1v-.1h-.4l-.3.1h-.2l-.4-.2v-.4l.1-.2.1-.2v-.3h-.4v.5l-.3.2-.2.6v.7l.2.3.2.4h.1l.3-.2h.1v.8l.5.4.1.2.2.2-.1.3-.2.3.1.3.2.3.3.4h.3l.2-.6h.2l.1-.2v-.2h.5v.2l-.2.1-.1.1v.1h.4v.5l.2.1.3.3v.4l.3.1v.6h.1v-.2l.3-.3v.4l-.1.2v.2l.2.2v.2l-.1.2v.2l-.2.2v.2h-.6v.5h-.2l-.1.1h-.1v-.1l-.1-.1-.2.1h-.3v.5h.3v.3l-.3.1v.4l.2.2v.4h-.2l-.2.3h-.1l-.1.1-.1.2h.2l.1-.3h.2l.2-.1v.4h-.2v.5h-.5v.1h.1v.4h-.4l-.2-.2v-.2l-.3.1h-.3v.1h-.2l-.2-.3-.1-.1v.3h-.3v-.3h-.6l-.2.2-.2.3-.3.3-.1.3v.2l.1.2.1.1v.4h-.4l-.2.2v.3l-.1.1h1v.4l-.4.1v.1l-.1.2h-.2v.4l-.3.1h-.1l-.1-.3-.1-.1-.1-.2h-.3v.3l-.2.3v.2l-.2.1-.2.2v.3l-.3.1v.2l-.1.3-.5.3h-.3l-.1-.5h-.3v.1h-.5v.3h-.3l-.1-.2h-.2v.3l-.2.4v.2l-.3.2h-.2v.6-.2h-.4v.5h-.2v.1l.1.2h-.3v.7h-.2v.1h.1v.2l.2.3v.4l.3-.2.1.1v.5l.1.3h-.1v.2h.3v.3h.3v.4h-.3l.2.2h.1v.4h.1v.3l-.2.1v.5h.3v.2h.2l.3.1v.1h.2v.2l.1.1v.5h.1v.7l.3.3h.1l.2.4h.2v-.3h.3v.4h.2v.3l.1.3v.3l.1.3v.3-.3l-.4-.1-.2.4h-.1v.2l-.2.1h-.3v.2h-.4v.2h.1l.2.1v.2h-.4v.5l.2.2v.3h-.2v.3h.1v.2h-.7v.1l-.1.4v.3l.3.1h-.2v.3h-.2v.2l-.1.3v.2h.1l.2.3-.1.2V0h.2v.6h-.2V1h.3v.2l-.1.2h-.2v.4l-.2.1v.2h.2l.1-.1.4-.2v.5h-.3l.3.1v-.5l.2-.1h.2v.7l-.3.2h-.3v.1h.2v.5h-.4l-.1-.3v.6h-.5"/><path id="O" d="M-24.6 87.3l.1.5.2 1.2.3 1v.2h.6l1.3-.3 1.5-.3 2.4-.4.8-.6.6-.6.5-.2L-14 86l.8-.5.4-.5 1.6-1.1.2-.3 2.5-2 1.2-.8.5-.4 3-2.1.2-.3 4.4-3.2 3 3.7.3.3 4.1 5 1.8 2 .7.7.6.9.9 1 .2.1.2.3.7.9 1.4 1.5.6.8 1 4.4.7 2.4v.3l1.3 5.6.7 2.1.2 1.3v.2l.6 1v.1l1.8 1.3.5.5.8.8 1.7.9.4.6 1.8.9.4.3.3.3.6.4.7.4.5.3 2.7.1 1.5-.1"/><path id="P" d="M33.5 116h1.3l.7-.4h.5l.9-.1.7-.2 1-.3.4-.3.6-.2 1.1-.2h.9l.6.4.8.6.3.5.3.5.6 1.3.6 2.2.2 1.5.3.7.2.6.8 1 1 1.1.9.7.3.2.3.8.2.6.2.7.3 2.3v.9l-.2 2-.1 1-.5 1.5-.2 1v.6l-.2.7v.7l.5.5v.3l.7.8.8.6.6.4.5.2h1.1l1.5.6h.8l.8.4.4.1 1.6.9 1.1 1 .3.1.2.4.6.6.1.3.3.2.3.2.6 1 .3.5.3 1.3.6 2.8.4 1.8.3.9v.6l.2-.3 1.1-.9 1-.7 1.6-1.3 1.1-1.1.7-1 .4-.8.4-1.1 1.8-4.3.4-1.1 2.4-5 .7-1.9 1-2.3.2-.5 1-1.3 1-1.5"/><path id="Q" d="M78 129.8l1-1.8 1.9-2.7 2-3.3 1.9-2.8 1-1.6 1.4-2 1.3-2.4.3-.2.6-.8.2-.5.4-.5.5-.4.4-.3.9-.2.7-.3.5-.1 1.1-.3.3-.1.6-.5 2-1.3 1.6-1.2 4.7-4.2 5.4-5 2-2.3v-.4l-.2-.2V94l-.3-.1v-.6h.8l.2.3h1V93l-.2-.2h-1l-.1-.4v-.2l.1-.2.2-.3.3-.2h.3l.1-.5v-.5l-.2-.4v-.8l.1-.3v-.3l-.1-.2-.2-.1-.2-.2v-.4l.2-.1.3-.1h.5l.1-.2v-.2l.3-.2v-.6l-.3-.4h-1.6v-.4l.2-.2h.2l.2-.2.4-.2h.2v-1h-.7v1h-.4l-.2-.4-.1-.1-.2-.3v-.6l.4-.1V83h-.8v.4l-.3.1v.3l-.2.3-.3.2h-.4v-.4h.1l.4-.2h.1l.1-.3v-1l-.4-.2-.1-.1-.4-.1-.3-.2v-.4h.4l.4.1h.1l.3-.1V81l-.2-.1-.2-.2-.4-.2v-.2l-.2-.4v-.4l-.1-.1-.3-.4-.1-.5v-.2h.2l.1.3h.2v.2l.3-.3v-.3l-.4-.4v-.5h.5l.2-.2h1.3v-.4l-.4-.1v-.2l.3-.2h.1l.1-.2"/><path id="R" d="M110.5 76l.3-.2h.3v-.5h-.5v-.6l.2-.1h.2l.3-.2V74l-.3-.2h-.3l-.2-.2-.2-.1v-.2l.2-.1h.2l.4.1.3.1.3.2.2.2h.3l-.1-.3-.1-.2-.2-.2.2-.1h.1l.2.1h.7v-1.4l-.2-.2-.2-.2V71h.8v-.4l.5-.2-.1-.4h.4l.2-.3.1-.4.2-.2h.3l.2.4h.5v.3h.1l.2-.2h.2v.3l.2.1h.4v-.2l-.2-.2V69h.2v.2l.4.2.1.1.2.2h.3v-.2l-.2-.3-.1-.2v-.2l.2-.1.3-.4.4-.3.1-.2.5-.1h.5l.3-.2.2-.4.4-.3.3-.5.2-.4.2-.4v-.3l.1-.4.2-.3.2-.5.3-.3h.1l.3.2v.4l-.2.3v.4l.4.3.1-.3.1-.3.3-.4.2-.2.2-.1.1-.2-.1-.1-.2-.1-.2-.2v-.2l.1-.2v-.2l.3-.2h.1v.8h.8l.3-.3h.2v-.2l-.2.1h-.2v-.6l-.2-.2v-.4l.4-.2v.1l.1.3.2.1.3.1h.5l.3.2h.2l.2-.3h.3v.3h.8l.1-.2.2-.2.3-.3.2-.2v-.8l.1-.2v-.3l-.2-.2v-.6l.2-.1.2-.3h.4v-.2l-.1-.1h-1.6l-.5-.4-.1-.2-.2-.1-.2-.2v-.3l-.1-.2-.2-.3v-.4l-.1-.1v-.3l-.2-.1h-.1v.1l-.2.2v.1l-.2.1v.4l-.1.1h-.3l-.2-.1v-.4l.1-.2v-.2l-.2-.1v-.9l-.1-.1.1-.1.3-.2v-.3l.2-.1v-.2h.1l.3.2V54h-.4l-.2-.3.2-.1.2-.1h.2l.1-.3h.3l.2-.2v-.2h.3l.1-.2.1-.2V52h.2l.1-.1v-.2h.2v.3l.4-.3v-.1l-.3-.1h.3v-.2h.4V51l.2-.1v-.4l.3-.2.2-.1h.3l.2-.2.3-.2h1.1l.2-.3.1-.1v-.3l.2-.1h-.5v-.5l.1-.1v-.3l-.2-.2h-.1l-.2-.3.2-.1.2-.1v-.2l-.1-.1h-.3v-.7h.5l.1-.2h.3l.1.1.3.3h.4l.1-.2.2-.1h.5V46l.2-.1h.3v-.2l.2-.1-.3-.1.3-.2.5-.1v-.6l-.3-.1V44h-.1v-.6l-.3-.1V43l.2-.2.2-.1h.1l.1-.2.3-.1v-.1l.1-.2V42l.2-.2h.2v-.2l.2-.1-.3-.2.1-.3v-.2l.3-.2v-.2l.1-.3V40h-.1v-.4l.1-.2h.2v-.2h.3l-.3-.2h.3v-.1h.2v-1.6l.1-.1v-.4l.2-.2.2-.1v-.1l.2-.2V36h-.2v-.8l.4-.2h.1"/><path id="S" d="M63.6 154.3l-.4.3-.2.3.1 1.6.4 1.7.1 3.2.7 2.5 1.7 5 .4 1.3 1 2.1.2 1.7.4 1.5.1 1.2.2 3.3v2.6l-.3 3.2-.3 1.9.1 1.1v.8l2.1 5.1.8 1.9.5 1.7v.7l-.1 1-.2 1-.6 1.7v4.3l.1 2.3.3 2.3.4 1.2.1.5.9 1.8 1.2 1.9.9.8 1.8 1.4.6.5.4.2 1.7 1.6 1.1 1 1 1.3.4.6.5 1.4.1.6.4 2v1l.3 2 .1.4.5.7.4.7.8 1 1 1 .5 1"/><path id="T" d="M86 236.1l.3.7 1 .6 1.1.6 1.6.9 1.6.8.4.3 1.7.6 3.4 1.3 2.9 1.1 2.6 1.1h1.2l2-.8 1.6-.6 1.8-1.2.8-.6.4-.3h.2l1 .7 1.9 1 1 .8.9.5 2.2 1.4.8.2 9.6 3.4 3 3.4 3.6 4.3 1 1.3 2.3 1.1 1.3.5 1.2.4.8.2 4.8 5.1 2.1-.9 4.1-1.7h6.5l.3.1 1.8 3.2"/><path id="U" d="M138.6 29.1V29l.3-.4.1-.3.2-.3.1-.3v-.5l.1-.6v-.3l.2-.5v-.4l.2-.4.2-.3.2-.1.3-.3.5-.6.3-.2.4-.3.6-.2.3-.1h.3l.5-.4.3-.1.7-.3.5-.2.6-.7.5-.3.3-.4.4-.4.3-.4.4-.8.3-.8.1-.6V17l.2-.7.3-.7.2-.3.3-.4.2-.2v-.2l.6-.6.5-.9.3-.2.3-.3.3-.2h.6l.4-.3.5-.2.3-.4v-.5l.2-.4v-.4l-.1-.2v-.2l.1-.1v-.3h.3l.1-.1.1-.2h.3v-.2h.2v-.1h.1v-.3h.3v-.2h.1l.2-.2.1-.1h.2V8h.6v-.2h.4v-.4h.6l.2.4.2.2.1.1h.2v-.4h.9l.1.2h.1v-.2h.2l-.2-.3h.3v.2l.1.1h.4v.1h.4v-.2h.5l.2-.2h.5l.2-.1V7h.4v.6h.3l.3.2V8h.3v-.3l.1-.1.2-.3v-.1h.2l.1.2h.5V7h.2l.2.1v.2h.4l.1.1v-.2l.3.3.1-.2h.4v-.2L165 7v-.1l.2-.2.3.2h.1l.2-.2h.2l.1-.1.1-.1-.2-.3h.4l.1-.2h-.3v-.4l.1-.2h.4l.1.2h.2v-.2l-.2-.2h.3V5l.3-.1v-.2h.1v-.6h.3V4h.2v-.3h.1l.2-.2h.2l.2-.1v-.1h.3v.4h.5v-.6h.5v-.4l-.3-.1h.5v-.2h.1v-.5l-.1-.1-.2.1v.5h-.2v-.5.1h-.5v-.3l.3-.1h-.1v-.3h.2l.1-.1v-.1l-.1-.1h-.1l-.1-.3V.5h.2V.3l-.2-.3v-.5h-.3V-1l.2-.1.2-.3v-.1l.2-.1h-.2l-.1-.3v-.2l.2-.3v-.1h.5l.2-.2-.3-.2V-3h.3v-.2l-.2-.4v-.1l-.1-.2.5-.3v-.2h-.5v-.1h.4l.2-.2h.1l.2-.1v.1l.3-.1V-5h.2v-.4h.1l.2.1v.3h.2v-.4l-.2-.1V-6l-.1-.2v-.4h-.2l-.1-.1-.1-.1v.1l-.2.1h-.1l-.2-.4h-.1l-.3-.2V-8l-.2-.2.2-.1v-.2h-.3v-.4h-.4l-.3-.1v-.3h-.1v-.5h.2v-.2l-.1-.2-.2-.1v-.2l-.2-.2v-.1l.3-.3h-.3v-.2h-.3v-.4h.1v-.1h-.1v-.7h-.2v-.1l-.2.2v-.2l-.1-.1v-.4h-.2v-.4h.2v-.5h.2v-.3l-.2-.1h.6v-.4h.2v-.4h.3l.2-.3h.1v-.3h.1v-.6h.3l.1.3h.1v-.2l.3-.1h.2v-.1h.3l.1.1.1.2"/><path id="V" d="M77 220l1.8 1.6 1 .9 1 1.3.4.6.5 1.4.1.6.4 2v1l.3 2 .1.4.5.7.4.7.8 1 1 1 1 1.6 1 .6 1.1.6 1.6.9 1.6.8.4.3 1.7.6 3.4 1.3 2.9 1.1 2.6 1.1h1.2l2-.8 1.6-.6 1.8-1.2.8-.6.4-.3h.2l1 .7 1.9 1 1 .8.9.5 2.2 1.4.8.2 9.6 3.4 3 3.4 3.6 4.3 1 1.3 2.3 1.1 1.3.5 1.2.4.8.2 3.8 4"/><path id="W" d="M144.9 263.8l1 1.1 2.2-.9 4.1-1.7h6.5l.3.1 3.8 6.6 3.7 6.4.8 1.3 8.9 3.8 7.4 3.1 2.4 1.1 3 1.3 7.7-2.6 5.3-1.8 5.2 4.4 6.5 5.8.3 1.1.2 3.2"/><path id="X" d="M109.2 81.5h-.5l-.3-.3-.2.5v.1l.4.2h.3l.3.3.2.1v.6l.2.2v.5l-.4.1h-.2l-.2.2v.3h.4l.3-.3.2-.2.1-.3.2-.2V83l.2-.1h.2l.2.1.2.2-.1.3-.2.2-.1.3v.3l.2.2.1.2.2.2.1.1h.2v-.8l.2-.2h.6v1h-.2l-.4.3h-.2l-.2.1-.2.2v.4h1.6l.2.4v.6l-.1.2v.2l-.3.2h-.7l-.2.3v.3l.2.2h.2l.2.4v.2l-.2.3v.8l.2.4.1.3v.3l-.2.4h-.3l-.3.2-.2.2v.8h.6l.4.2.2.1v.5l-.2.1h-.8l-.2-.3h-.2l-.2-.1h-.3l-.2.2v.2l.1.4h.3v.4l.2.2v.4l-2 2.2-5.4 5.1-4.7 4.2-1.6 1.2-2 1.4-.5.4-.5.1-.9.4-.6.1-.7.2-.9.2-.4.3-.5.4-.4.5-.2.5-.6.8-.3.3-1.3 2.2-1.4 2.1-1 1.6-2 2.8-1.9 3.3-1.9 2.8-2 3.2-1 1.3-.2.4-1 2.4-.7 1.9-.6 1.2"/><path id="Y" d="M73.5 138.5l-1.8 3.8-.4 1.1-1.8 4.3-.4 1.3-.4.5-.7 1-1.2 1.3-1.4 1.2-1.1.7-1 .9-.5.3.3 1.6.4 1.7.1 3.2.7 2.5 1.7 5 .4 1.3 1 2.1.2 1.7.4 1.5.1 1.2.2 3.3v2.6l-.3 3.2-.3 1.9.1 1.1v.8l2.1 5.1.8 1.9.5 1.7v.7l-.1 1-.2 1-.6 1.7v4.3l.1 2.3.3 2.3.4 1.2.1.5.9 1.8 1.2 1.9.9.8 1.8 1.4.6.5.4.2v.2"/><path id="Z" d="M82 123.3l1-1.3 1.8-2.8 1-1.6 1.4-2 1.3-2.4.3-.2.6-.8.2-.5.4-.5.5-.4.4-.3.9-.2.7-.3.5-.1 1.1-.3.3-.1.6-.5 2-1.3 1.6-1.2 4.7-4.2 5.4-5 2-2.3v-.4l-.2-.2V94l-.3-.1v-.6h.8l.2.3h1V93l-.2-.2h-1l-.1-.4v-.2l.1-.2.2-.3.3-.2h.3l.1-.5v-.5l-.2-.4v-.8l.1-.3v-.3l-.1-.2-.2-.1-.2-.2v-.4l.2-.1.3-.1h.5l.1-.2v-.2l.3-.2v-.6l-.3-.4h-1.6v-.4l.2-.2h.2l.2-.2.4-.2h.2v-1h-.7v1h-.4l-.2-.4-.1-.1-.2-.3v-.6l.4-.1V83h-.8v.4l-.3.1v.3l-.2.3-.3.2h-.4v-.4h.1l.4-.2h.1l.1-.3v-1l-.4-.2-.1-.1-.4-.1-.3-.2v-.4h.4l.4.1h.1l.3-.1V81l-.2-.1-.2-.2-.4-.2v-.2l-.2-.4v-.4l-.1-.1-.3-.4-.1-.5v-.2h.2l.1.3h.2v.2l.3-.3v-.3l-.4-.4v-.5h.5l.2-.2h1.3v-.4l-.4-.1v-.2l.3-.2h.1l.2-.2.1-.2h.4v-.5h-.5v-.6l.2-.1h.2l.3-.2V74l-.3-.2h-.3l-.2-.2-.2-.1v-.2l.2-.1h.2l.4.1.3.1.3.2.2.2h.3l-.1-.3-.1-.2-.2-.2.2-.1h.1"/><path id="a" d="M171.7-6.6v.4l.1.3v.3l.1.3v.3-.3l-.4-.1-.2.4h-.1v.2l-.2.1h-.3v.2h-.4v.2h.1l.2.1v.2h-.4v.5l.2.2v.3h-.2v.3h.1v.2h-.7v.1l-.1.4v.3l.3.1h-.2v.3h-.2v.2l-.1.3v.2h.1l.2.3-.1.2V0h.2v.6h-.2V1h.3v.2l-.1.2h-.2v.4l-.2.1v.2h.2l.1-.1.4-.2v.5h-.3l.3.1v-.5l.2-.1h.2v.7l-.3.2h-.3v.1h.2v.5h-.4l-.1-.3v.6h-.6v-.3h-.1l-.2.2h-.3l-.3.2V4h-.4v.2h-.1v.3l-.1.1h-.1V5l-.1.1h-.4v.2l.1.1v.2h-.8V6h.4v.2h-.5v.1l.1.2-.1.3h-.4l-.2.1h-.4v.3l.2.1h-.5l-.2.1-.1-.1h-.4v-.1l-.2-.2h-.2l-.2-.2v.5h-.3l-.1.2h-.2v-.4h-.3v.3l-.2.1v.1l-.1.2v.1h-.4v-.5h-.2l-.1.3h-.3V7l-.2.3h-.2l-.1.2h-.4l-.3.2h-.5l-.2.1h-.1l-.4-.2-.2-.2h-.2l.1.2v.1h-.1l-.2.2h-.5v-.2h-.2V8l-.4.1h.1l-.3-.1v-.3l-.4-.1-.3-.1h-.2v.2l-.3.1V8h-.3l-.1.2h-.3v-.3h-.2l-.2.1h-.3v.6h-.3v.3h-.1V9h-.4l-.2.2-.1.2h-.1v.2l-.3.2v.2l.3.1v.2l-.1.2-.1.5-.1.4-.3.4-.6.3-.3.1-.6.1-.3.2-.3.3-.3.2-.6 1-.4.5-.1.2-.2.3-.3.3-.2.3-.3.7v1.2l-.4.5-.2.9-.4.8-.3.3-.4.5-.3.4-.5.3-.5.7-.6.2-.7.3-.3.2-.5.2h-.3l-.3.2-.6.2-.4.3-.3.2-.5.6-.3.3h-.2l-.2.4-.2.4v.4l-.2.5v1.4l-.3.3v.3l-.3.3-.1.4-.1.1v.4l-.1.3v.2h-.5l-.4.1-.3.2-.1.3-.2.2v.8h-.3v1.2l.2.2v.2l.1.2v.1l-.4.4v.1l.2.2-.1.3h-.1l-.2.1v.1h.2v.3h-.3l-.2.2v.6l-.1.1v.1h.3v.3l-.3.1-.3.3-.1.1v.8l-.3.1v1.1h-.1v.5l-.2.1-.3.1v.8l-.2.1v.6l-.3.3.3.2-.1.2v.1l-.3.2v-.1h-.1v.3h-.3v.5"/><path id="b" d="M133.6 42.6h-.3l-.1.3v.4l.2.3v.1l-.1.3h.1v.6h.2v.6l-.3.1h-.1l-.3.2.1.1v.2h-.2l-.2.2v.1l-.1.1-.2.2h-.1v-.1h-.2v.1h-.5l-.1.2h-.2l-.2-.2v-.1l-.3-.1v.1h-.7v.7h.3l.1.3v.1h-.2l-.1.3v.2h.4v.6h.2l-.3.1v.2h.3l.1.2v.2h-.1v.2l-.1.2-.2.1h-.5l-.3.3h-.1v-.3l-.4.2v.1h-.1l-.2.3h-.6v.1l-.2.1v.4l-.2.1v.3h-.2l-.2.2h-.2l.1.2-.1.3h-.2v-.3h-.2v.3h-.3v.3l-.1.1v.2l-.2.2h-.1l-.1.3h-.2l-.4.3h-.2l-.2.3-.2.1.1.1h.3l.2.3v.1h-.2l-.2-.3h-.2l.2.5-.4.1h.2v.2l-.3.2h-.1v.3l.3.2v1.1h-.2v.4h.3l.2.2h.3v-.7h.1v-.2l.2-.1v-.1h.2v.3l.4.3v.3l.1.3v.2l.1.4h.1l.2.3.1.1.5.4h1.7v.3l-.1.1h-.3l-.2.2-.2.1v.6l.2.2v.5l-.2.3v.5l-.1.2-.3.3-.2.2-.2.2h-.6l-.1-.2h-.5l-.2.1h-.3l-.5-.1h-.3l-.2-.2-.1-.3h-.3V63h.4l.1-.1v.1l-.2.2-.3.1-.3.1h-.5v-.7l-.3-.2v.3l-.2.2v.4l.1.2h.3l.1.3-.1.1h-.2l-.3.3-.2.4v.4l-.4.2-.1-.3h-.2v-.4l.3-.3V64l-.3-.3-.4.3-.2.5-.2.3v.4l-.2.3-.1.4-.2.4-.3.5-.4.2-.2.5-.3.2h-1l-.1.3-.4.3-.3.4-.2.1v.4l.4.3v.2h-.4l-.2-.2-.2-.1-.1-.2-.2-.1h-.2v.5l.2.2v.2h-.5v-.2l-.1-.1h-.4l-.1.2v-.5h-.5l-.2-.2h-.5v.5l-.4.2-.2.2-.2.3v.3l-.2.3-.2.1h-.3l-.4-.1h-.1l.1.4.2.1.2.2v1.4h-1l-.1-.1v.4l.3.2v.2h-.4l-.1-.2-.3-.2h-.3l-.4-.3h-.2l-.2.2v.2l.2.2h.5l.2.3.1.2v.2l-.3.2h-.2l-.2.1v.4l.1.2.3.1.1.3-.1.1h-.3l-.1.2h-.2l-.1.2-.3.2v.2l.4.1v.5h-1.8l-.2.4.1.2.1.4.1.3-.1.3-.1-.2-.2-.1v-.1h-.3v.6l.4.4.2.1v.8l.1.2.4.2.2.2.2.2v.3l-.3.1"/><path id="c" d="M203.8 283.2l-1.8-1.6-5.3 1.8-7.6 2.6-3-1.3-2.5-1-7.4-3.3-9-3.7-.6-1.3-3.8-6.4-3.8-6.5-.3-.4-6.5.1-4 1.8-2.4 1-4.6-5.3-.8-.1-1.2-.4-1.4-.5-2.1-1-1.1-1.5-2.9-3.2"/><path id="d" d="M131.7 253l-.7-1-3-3.4-9.6-3.4-.8-.3-2.3-1.3-.7-.5-1.1-.8-2-1-.8-.7h-.3l-.5.3-.7.6-1.8 1.2-1.6.7-2 .6-.8.1h-.4l-2.6-1-3-1.3-3.2-1.2-1.7-.6-.5-.3-1.6-.8-1.6-.9-1.1-.6-.9-.6-1.2-1.6-1-1-.6-1-.6-.7-.4-.7v-.4l-.4-2v-1l-.5-2v-.6l-.6-1.4-.3-.6-1-1.3-1-1-2.1-1.6v-.2l-.7-.5-1.8-1.4-.9-.8-1.2-2-.9-1.6-.1-.6-.4-1.2-.3-2.3V207l-.2-1.4v-.6"/><path id="e" d="M70.3 205v-2.2l.6-1.9.1-.9.2-1v-.6l-.6-1.8-.7-1.9-2-5v-1l-.3-1 .4-1.9.3-3.2V180l-.3-3.3v-1.2l-.3-1.5-.4-1.7-.9-2-.5-1.5-1.6-5-.7-2.3-.1-3.3-.5-1.7v-1.6l.2-.3 1.1-.9 1-.7 1.6-1.3 1.1-1.1.7-1 .4-.8.4-1.1 1.8-4.3.4-1.1 2.4-5 .7-1.9 1-2.3.2-.5 1-1.3 2-3.3 1.9-2.7 1.1-2"/><path id="f" d="M112.2 73l.1.2h.7v-1.5l-.2-.2-.2-.2V71h.8v-.4l.5-.2-.1-.4h.4l.2-.3.1-.4.2-.2h.3l.2.4h.5v.3h.1l.2-.2h.2v.3l.2.1h.4v-.2l-.2-.2V69h.2v.2l.4.2.1.1.2.2h.3v-.2l-.2-.3-.1-.2v-.2l.2-.1.3-.4.4-.3.1-.2.5-.1h.5l.3-.2.2-.4.4-.3.3-.5.2-.4.2-.4v-.3l.1-.4.2-.3.2-.5.3-.3h.1l.3.2v.4l-.2.3v.4l.4.3.1-.3.1-.3.3-.4.2-.2.2-.1.1-.2-.1-.1-.2-.1-.2-.2v-.2l.1-.2v-.2l.3-.2h.1v.8h.8l.3-.3h.2v-.2l-.2.1h-.2v-.6l-.2-.2v-.4l.4-.2v.1l.1.3.2.1.3.1h.5l.3.2h.2l.2-.3h.3v.3h.8l.1-.2.2-.2.3-.3.2-.2v-.8l.1-.2v-.3l-.2-.2v-.6l.2-.1.2-.3h.4v-.2l-.1-.1h-1.6l-.5-.4-.1-.2-.2-.1-.2-.2v-.3l-.1-.2-.2-.3v-.4l-.1-.1v-.3l-.2-.1h-.1v.1l-.2.2v.1l-.2.1v.4l-.1.1h-.3l-.2-.1v-.4l.1-.2v-.2l-.2-.1v-.9l-.1-.1.1-.1.3-.2v-.3l.2-.1v-.2h.1l.3.2V54h-.4l-.2-.3.2-.1.2-.1h.2l.1-.3h.3l.2-.2v-.2h.3l.1-.2.1-.2V52h.2l.1-.1v-.2h.2v.3l.4-.3v-.1l-.3-.1h.3v-.2h.4V51l.2-.1v-.4l.3-.2.2-.1h.3l.2-.2.3-.2h1.1l.2-.3.1-.1v-.3l.2-.1h-.5v-.5l.1-.1v-.3l-.2-.2h-.1l-.2-.3.2-.1.2-.1v-.2l-.1-.1h-.3v-.7h.5l.1-.2h.3l.1.1.3.3h.4l.1-.2.2-.1h.5V46l.2-.1h.3v-.2l.2-.1-.3-.1.3-.2.5-.1v-.6l-.3-.1V44h-.1v-.6l-.3-.1V43l.2-.2.2-.1h.1l.1-.2.3-.1v-.1l.1-.2V42l.2-.2h.2v-.2l.2-.1-.3-.2.1-.3v-.2l.3-.2v-.2l.1-.3V40h-.1v-.4l.1-.2h.2v-.2h.3l-.3-.2h.3v-.1h.2v-1.6l.1-.1v-.4l.2-.2.2-.1v-.1l.2-.2V36h-.2v-.8l.4-.2h.1v-.2l-.1-.3.2-.1h.1l.1-.1v-.1l-.1-.2v-.2l.3-.2v-.3h-.2v-.6h-.1v-.4l.3-.1h-.2v-.7h.2l.2-.1v-.2l-.2-.2v-.4l.4-.3.2-.2h.4l.4-.3h.1V29"/></defs></svg>