<svg xmlns="http://www.w3.org/2000/svg" viewBox="0 0 497 279"  xmlns:v="https://vecta.io/nano"><path fill="#f2efe9" d="M0 0h497v279H0z"/><g fill="#aad3df" fill-rule="evenodd"><path d="M34.5 284.3l.2 2.7H37l1-.2 1.4-1 2.6-1.9 3-.7 2.5-.3H50l2.3.6h2.9l1 .2 1.2.4 1.8.8 2.8-.2 1.7-.3 1.8-.8 1.8-1 2.6-2.6 1.3-1 2.3-1 1.4.2 1.5.6 1.2.8 3 2.8 1.6 1.8 3.4 3 .5.5 2.1 1 4.2 1.3 1.1.7 1.7.3 2.8.2 4.2 1 3.3 1.4 2.2.6 2.2 2.6 1.4 1.2 1 .4.7 1.6.9-.2h2.8l2.3.2 2.7.2h2.7l3.6.6 4.5-.5 4.2-.8 2.7-1.7h.2l.7-.5 3.2-1.5 2.1-1.8 2.6-1.6.4-.6 2.1-1.8 2.5-2 1.6-1.8 3.6-3.2 4.4-3 3.2-1.4 3.7-1.2 5.8-2.4 5.7-2 6-2 1.8-.9 3 .7 3.4 1.2 4.5.9 4.7 2.6 3.2 4.7 2.3 2.3 4.3 6 3.1 6.3 2 5.6 1.1 2 5-1-1.2-3.2-1-1.7-2-4.5-1.8-2.7-2-3.8-1.6-2.5-3-3.3-2-4.8-1.5-2.3-2.9-2.6-3-2 2.4-.3-.5-1.1-2.1-.1-1.7-1.3-.2-.5-1 .3v1.5l-3.1-1.4-4.4-1.5-3-1-4.5-.1-5 2.1-2.1 4-1.1 1.7-4.4 2.5-2.2.6-3.7.6-3 1-2.9.5-.6-.2-.8.2-.2.4-.5.1-1 1.4-1 1.4-1.2 1.6-1.6 1.8-1.5 1.8-2.3 2-2.4 1h-1.8l-.7.5-2.7 1.5-2.8.6-1.8 1.5-2 1.9-1 .7-2.2 1.4-2 .2-1.6-.4-2.6-.6-2.8-.1-1.7-.2-2.6.4-3.9.1-3.2-1-2-1.7-1.6-1-3-2.1-3-2-.4-.7-.5-1.4-.5-.7-1.2-.7-1.1-.5-3.7-1-3.3-1.7-.8-.3-.7-.2-1.4.5-2.4-.2-2.4-1L82 277l-2-1.1.4-1.9 1.3-3.2-1.3-.2-.8 2.4-1.1 1.4-2.8-.4-1.7.1-3.3 1.2-1 .8-1.3 1.7-1.9 1.6-3.1.9H61l-4.1-2.3-2.6-.2-2.3-.4-2.3-.4h-2l-2.3.6-1.2.6-3.4.3-1.4.8-.8 1-1 1.3-.2.4-1.8 1.8-.4.4zM302.8 71.2l.2 1 .4 1.1.6.2.2.2.2.3.1.4.4.9.9.4.2 1.4 1.1 1.3 1.3 1.4 1.6.8 4-1 2.3-.3 1.3-.2 1.7-1.1 1.8-.4 1.4-.6.9-.8.4-1.2h.2l.7-.7.8.2h.5l1.2-.1h.4v-.6l.1-.5h.3V73l-.5-.2-.6-.4-.8-1.7v-1.2l.4-.8 1.2-1.3 1.6-1.4 1-.5.3-.3h.4l.5-.2.7-.8.4-.3 1-.1h1.2l1.4-.3.4-.7.4-.8v-.2h-.7v-.3h-.7l-.2-.4H334l-.6.7-.4.2h-.7l-.2.5h-.8l-.3.2-.8.3-.2.3.1.4h-.1l-.2-.2-.5-.2-.3.1-.3.6h-.7l-.9.3-.1.5-.6-.2-.9.1-.9.3-.1.3-.5-.1v-.4l.4-1.2 1-1.6.2-1h1.1l1.3-1 .9-1 1.4-1.6 2.4-1.3 2.3-.8 1.6-.3 1.1.2 2.5-1.2 2-1 1.9-.4 1.2-.5 1.3-1.3.8-.8.1-1.1v-1.2l-.3-.7v-1.3l.2-.2-.1-.9-.7-1.2-.9-1.1-.2-.4h-.4l-.5.1-.7-.1-.2-.2-.7-.2-.5.3-1.2.2-1-.3-.7.3-.2.3h-.1l-.3-.3-.9-.6-.1-.4.3-.4V40l-.4-1-.1-.8-.6-.7-.4-.4v-.6l.2-.2-.4-.3h-.3l-.3-.2-1-.5h-.2l-.2.3v.5h-.1l-.1-.2-.5.1-.1.3v.2l.2.3.2.2h.3l.3.4v.2h-.8v.1l-1.5.5-.5-.4h-1.4l-1 .5-.6.5-.6.4-.7.6-1 .2-.7.2-.3.3h-.3l-.4-.2h-.9l-.3-.5h-1l-.2-.8-1.4-1.2v-.5l-.6-.6-.7-.1-.3.1h-.8l-.2-.2v-.9h-.4v-.5h-.4l-1-.2-.8.3-.9.6-.1.5h-.5l-.8 1v.7l.1.5.5 1.5.1 1 .8.7.6.3 1.3 1.2 1.2 1v.6l.2 1.2.2.6v.4l.3 1 .5.3.9.3h1l.1.6v1.1l-.5.3-.3.4-.7.6v.4h.3l.2.1.5-.2.8-.4.6.1h1.1l.2.4-.1 1.7-1.2.3-.7-.4-.5.1-.2.3-.6.2v.6l-.7.2-.4.7-.7.5-.1.4-2.2.9-.6.9-.8.5-.5.5-.1.4-.3.3.2.2.4 1.4-.2.4.1.6-.5.9-1.2 1-2.8 1.8-.7.7-1 .3-.9.6h-.6l-.6.3h-.3v-.2l-.7-.1-.9-.2-1 1.2-.4 1.3zm19-27.3l.2-.2.4-.7.5-.4h.6l.3.3v.1l-.2.3-.1.3v1l-.5.2-.5.5v-.4l.2-.3-.3-.4-.3-.2h-.2zm6 2.1v-.2l.9-.9.8-.9.6-.2h.9l.5.2h.8v.7l.1.1h.2v.5h-.5l-.1.2.4.5v.3l-.6 1-.3.1-.3.3-.5 1-1 .3-.7.1-.5-.4v-.4l-.2-.6-.2-.4v-.6zm8 .2l.2-.2v-.4h.1l.1.4-.1.3h-.2zm130.5 246.3l1 2.6 1.7-2.4 1.2-2.8 1.6-3.6-.2-1.9v-3.6l.8-1.6 3.3-.2 3.3.2 1.6-.4.4-.8.5-2.7-.6-1.6-.2-1.5.3-5 3.2-3.6 2.2-1.8 1.9-1.1 1.4.3 2.2.8 2.8 2.2.4.7v.7l2.5 2.2 1.4.7 1.4-.3 1.4-.2 1.4-.5 3.6-.6 3.9.6 4.7-.6 2.7.3 1.8.5 3.6 1.1 2.7 1.5 5 1.2 2.1.6 4.3 1.7 2.1.4 3.3 1.6 1 .9 2.1 4.1-.1 3-.5 3.2-.5 2.1-.4.1-.5-.5h-.2l.1.3.4.8.7.4.2.6 2 1.1h2.7l.9-.5 1.4.2 3.5 1 .7.6h.2l-.3-.6 2.7.4 1.7.7 3.9 2.5 1.3 2 1.3 2.5 1.6 3.2-.7-.3v.3l.9.5.9 1.2 2.6 2.1 1.2.6 2 1.6 4.6 2.2 1.2.2 2.3.4 2.7.7 2.2.4 2.5 1 1.9.4 2.5-.3 2.8 1.3 3 2.3 1.1.8 1.4-1.5-1.6-.8-2.7-2.2-1.8-1.2-2.8-.6-4.2-.4-3.2-.4-2.7-.4-3.5-.8-2.7-1.2-3.8-1.8-3-2.2-1.2-2-.9-1.6-1.1-2.4-.9-1.1-.6-1.4-1.8-2-3-2.5-1.7-1.2-2.6-.5-3.4-.3-2.8-.5-1.4-.4v-1l.2-1.5.5-2.2-.6-.2-.5 1.9-.5 2.1v1l-.2.6-1.1.2h-1l-.8-.6v-2l.6-1.2.1-1.5.2-1.5v-3.1l-.1-1.1-.4-.9-.5-1.6-.1-.4-1.4-1.7-1.5-1.2-3.5-1.2-3.6-.6-2.7-1.5-.5-.5v-.6l-.2-1-.2-.6-.2-.3v2.7l-3.2-.7-3.5-1.2-3.4-1.6-3.6-1.4-3.6-.2-2.5.4-5.2.2h-3.3l-1.7.3-1.2.1h-1l-.8-.6v.3l-1.2-.5-2.4-2.1-1.3-.9-2.2-1.4-1.3-.9-1.8-.9-1.4-.7-.7-.6-.3-1.4-.6-.8-.9-1.4-1 .8.9.6 1.2 1.4.1 1.8.4.5v.3l-1.4 1-1 1-1.1.6-3.1 3.6-.6 1.3-.3 1.6-.1 1.6.2 1.5.2 1.3.4 1.7.3 1.2-.3.6-.6.8-1 .4-.9.2-1.2.2-1.9-.1-1.6-.3-.5-.6-.1-1.4h-.3v1l-.4.9-.5.4-1.2 2-.1 1.6.8 1.9.4 2-.9 2-1.2 2.4-1.1 1.3zm-16.7-116l.4.5 1.7-.8 1.3-1.5.7-1.4.3-1.7.8-1.8 1.2-1.6 1.4-.4 2.3-.5 1.6 1 2-.9 4.8-3.8 2.1-1 .9-1.3 1-.9 1.3-.8 3-1.4 1.9-2 1.5-2.3 1.8-1.1 2.3.9 1.7 1.5.6.8 3 .7h1.4l2.9-.5 3.7-2 2-2.3.7-1.9-.7-6.8-.2-5.3v-1.8l.5-.8 1.2-.2 1.7 1.1 2.4 1.3 1.2-.7.9-1.3.6-1 1.7-2 .8-.6 3.2-1.5 2.1-.3 2 1.2.6 2 .8 4.1 1 1.2 1.5 1 1.2.3.8-.5.5-.6.5-1 .5-1.2.3-.3.4-.3.3-.7.1-.3h1.3l.7.3.6.3h.6l.8-.2 1.2-1.7.8-.7.9-.1.7-.4V131l-.5-1v-1.2l-.2-.6-.7-.4-.1-1-.9-.4-.3 1.6-.3.4-.7.4h-.5v.2h.9l.4-.1.1.6.7 1.6.5.1.8.3.1.9h-1.2l-.5-.2-.8.7-.5.8-.4.8-1.2.3-1.3-.4-.7.2-.5-.1-.6.2-.7.2-.4-.9h-.3l.4.7.2.6v.7l-.6 1.6-1 .8-1.6-.3-1-.7-.6-.9-.5-1.6-.1-1.9v-1.5l-.6-1.3-2.2-1.3-1.4-.3-4 1.4-1.4.5-.9.3-.8 2.4-1.7 2.6-1.1.5h-.7l-1.3-.9-1-.9-1-.3-1.3.6-.9.3-.2 2-.2 2.9-.1 3.2.5 4.6-.7 2-.5 1.2-2.1 2.2-.8.4h-.3l-.1-.5h-.8v.4h.5l.3.3-1 .5-2.3.8-3.6-.8-2.9-1.6-1.9-.7H481l-1 .7-1.5 2-1.1.9-1.2.1-2.8 2.7-1.8.7-5 2.6-1.6 1.3-3.7 3.3-.8.2-2.2.4-1.3.6-1 .1-1 .6-.5 1.3-1 3.1-.8 1-.6.1-.4-.4h-.3l.6.7v.6l-1 1zM217.5 173v.4l.8-.4.4-.5h.6l1.3 2 1 .2 1.4.4 2.7-.4 2.5-1 1.2-.6.8-1.3 1-.8 2.8-1.8 1-.5 2 .3 2.5.6.5.1.7.5 1.3 1.6 1.2.7.7.3 1.1 1.4.7 1 .7.8 1.4.8.5 1.3.2.9v4l.2 2.3.4 1.3.9 2.1.3 1.5.4 2.4-.2.8-1 1-1.5.6-1.1.2h-3.6l-2.6.8-1.4-.2.2.7-.4 1-.8 1.1-3.3 2.5-.5.3-.7 1.3v1.1l.1 1 1.4 2.2.7.5 1.6.5 2.7 1.8 1.5.2 1.7-.1 1.1.3 1 1.6-.1 1.4-1.6 1.4-2.7 1.4-3.2.6-1.7.4-1.1.6-1 1-.6 1.9.3 1.5 1.1 2 1.4 1.4 2.3 1.1.2-1-1.2-.2-1.6-1.1-1.1-1.3.3-2 1.5-1.2 2-1.3 1.7-1 4.9-2.6 1.1-1.1.5-1.7-.3-2.5-1.5-.5h-3.4l-3.1-1-1.4-.8-1.6-1.3-.8-1.9.6-1.7 3.4-2.9 3.3-2.3 3.4-.7 1-.2 1.9.2 1.3-.5 1.2-.9 1.5-1.5.7-1.9.4-1.6v-2l-1.2-1-.7-1-1.2-2.6-.5-.6-.9-2.7-.3-2.5-.5-1-1.7-1.5-1.6-1.6-.6-1-.6-.5-.8-.4-.7-.6-.7-.6-1.6-1.2-1.1-.3-1-.2-2.9-.4-.8.1-1.9 1-2.9 2-1.1.5-2.7 1.3-1.4.4-1 .1-1-.1-1.2-.4-1-.8-.8-1.4-.4-1.4.4-.8.8-.6 1.8-.8 1.5-.4.5-.2.4-.8.2-1 .2-1 .4-1 .3-2 .8-1.2-.5-.2-.6.8-.8 2.6-.7 1.5-1 1.3-2.5 1.4-.8-.5.1.7-.2.4-1.3.7.2 1.2.4 1 1 1.4-.7.2-.5.3zm-10-98.7h1.6l.4.3.8.4.3.6-.2 1 .6.4.8-1.3.9-.4h1.3l1.2-.3 2.6-.2 1.2-.1 1.5-1 .5-.7v-1.2l-.3-1.7-.2-.6v-1l.5-.2h1.1l.9.2h2.1l.5.2 1 1 .6.3 1.2-.8 2.1-2.2.7-1 2.8-2.1.8-.4 1-.6h1.9l.5.5.2-.5.8-.3.8-.6 2.4-.7 1.3-.5 1.5-2 .4-.7.4-1.4 1.2.3h.3l-.2-1 .7-.7 1.1-.7 1-.6 2.9-.9 1.2.2.6.2.9.1.7-.3.6-1 .4-1.1 1.6-1.7.7-1 .7-2 1-1.1 1.2-.7.7-.2 1.6-2.2.5-1 1.3-2.6 1.8-2.8h.6l.9.5 1.8 1 1.4.5 1.2-.3 1.3-.8.7-1 .1-1.1v-1.3l-1.2.2.5 1 .2.7-.3.6-.3.4-.6.3-.8.2h-1l-.9-.7-2.6-1.4-.9-.2-1.6 1-.9 2.3-1.4 3.1-.8.7-.6.2h-1l-.3-.4-1.1 1.5-.1.5-.8 2.6-.9 2-1.7 2.3-1.6.7-1 1-3.5.7-2 .5L247 55l-2 1.7-.7 2.1.2.7-.2.5-1 .4-.9.3-1.5.3-.7.3-1.6 1.1h-2.4l-2.2.6-2.2 1.6-1.1 1-1 1.4-1 1-.7.2h-.7l-2-.2h-2.6l-.8-.3-1 .1-.7.5-.4.7v.4l.6 1 .3 1-.1 1.5-.3.4-.7.4-1 .3-.6.2h-4.2l-1.6.4-1-.1-1.4-.5-1.7-.5zm0 0"/><path d="M448.1 191l.2 1.5 1.5 2.5 1.2.9 2.4 1.4 2 2 .4 1.4.2 1.7-.2 3.6-.8 1.4-.6 1.3-.4 3v1.8l1.4 3 1.1 2.1.9 2.7 1 4.1 1.8 4.2.1 2.7 1-.3-.3-1.3-.1-2-.5-1.4-.8-2.6-1-2.3-.7-3-.6-1.5-1.4-1.9-.5-1.5-.1-2.5v-1.3l.5-2.8 1.4-2.7.3-1.6-.1-2.6-.8-1.4-1.3-1.8-1.5-1.1-2.3-1.4-1.4-1-.6-.9-.8-1.6v-2.1l.8-1 .6-.2.9-.5h2.4l.9-.2.7-.5.5-1.2V185l-.5-1.8-.6-.8-.6-.4-.8-1.5-.6-.5-.7.2-1.7-.8-.3-1 .4-1.4-.5-.5-.8 1.5.4 1.7.6.9 1.2 1.2 2.7 2.6v1.8l-.7 1-1.6.4-1.2.1h-.7l-1.2 1.3zm-413-59.4l.3 1.6.4.7.7.8 1 .3 1.9-.4 1-.3 1.2-.6 1.4-1.2.9-.5.7-1.2.6-2.8-.3-1.2-.2-.8.4-.6.9-.1 1.2.7 1 1 .5 2.6-.1.8-.9 1.6-1.6 1-.8.5-.8.5-.2.8.2 1.2.9.6 1.8.6.8.7-.5 1.4-.5.7-.6.6v3l-.2 1.2-.4.5-.5.9-.7.8v.7l.5.5.3-.2-.2-.5v-.2l.5-.8 1.4-2 .4-1.8.2-2.7.6-2-.3-.9-.6-.3-1.7-.6-.5-.1-.3-.8.1-1 1.4-.4.6-.3 1.1-.4.6-1 .9-1.5V129l-.1-.9-.3-.9-.6-.9-.8-.9-1.1-.3-1.4-.4h-.8l-.5.5v1.3l.4.7v.6l.2 1.6-.6 1.2-1 1.2-1.4 1-.9.3-1.2.7-1.3.6-1-.2-.7-.6-.8-1.8.5-2 .8-.8.6-.3 1.2-.5 1.9-.5 1-1.1-.1-1-.7-.3-.4-.8.3-.7.8-1-.2-.6-.1-.7.1-.9 1-.6 1-.6h.6l1 .5 2.4-.2.6.3.3.3.7 1.8.4.3.5.3 1.1-.2h1l1 .3h.6l.5.2 2-.6 1.7-.8.6-2.2.9-.9.9-.4L62 116l1.5-1.3.1-1.2.4-.9.7-.3 1.4-.2.8-.5.5-1-.4-1.6.3-1 .6-.6.1-.7-.3-1.2-.7-.8-1-.2-1.7.7-.8.3.3.5 1.2-.7.5-.3h1.2l.7.7.2.9v.5l-.6.5-.5.9.5 1.7-.3.8-1 .7H65l-.9.3-.6 1-.5 1-.3 1-.5.5-1.4 1.5-.8.7-1 .6-.8.4-.4.6-.2.8-.3 1.2-2.3.7-.6.2-1 .2H53l-.8-.2h-.8l-1.7-.5-.6-.7-.4-.5-.3-.9-.7-.4-.7.1h-2.4l-.8-.3-.8.1-1.1.5-1 .4-.3.7.3 1.3.3.8-.7.7-.2.5-.2 1.3.5.4.2 1.3-1.4.5-1.3.5-.6-.2H37l-.6.2-.8.8-.5 1.3zm425.2 100.7l.8 1 1.3 1.3 3 2.4 1.4 2.2 2.2 1.6.8.3 1.7-.2 1-.4 1.9-2 1.4-2.3 1.1-1.3 1.2.6 1.2.5.6 1.3.7 1.5-.7 2.8-1 1.4-.9 1.7-.5 1.9-.3.1-.5.8v.8l-.4 2.5.2 2 .4.2v-1.9l.1-2.5.3-1.4.7.2 1.6 5.5.7 1 1.5 1h1.7l.9.2 1-1.1-.8-.2-1-.4-.9-.2h-.7l-1-.3-.8-2.1.3-.4.9-.1-.1-.4h-.7l-.6.4-.3-.3-.4-1.3-.3-1.4V245l.9-1.8 1.3-3.2v-1.8l-.4-.5-1.1-2.2-1.3-.9-1.4-.6-1 .1-.5.7-1.8 3.4-.5.8-1 .5-1.3.3h-.9l-.6-.2-1-1.1-1.1-.8-1.5-1.4-2-1.5-1.6-1.6-.9-1.2zM78.1 245.6l.3 1.5 1.2 1.6 1.4.4 1.2.4 2 1 1.4.9.4.8v.8l.6 3.2 1 3.4.4 1.7 1-.5-.3-.6-.9-2.8-.6-3-.4-1.4-.8-1.5-1-1.8-1.4-.7-2.1-.6-2-.8-.2-.9.5-.7 1.3-1 1.7-.2 2.2-.1 2-.4 1.4-1.2.9-2.6-.3-1.5v-2l-.2-1-.8-.4-1.7-.3-1.4-.5-1.2-1.3-.2-.9v-1l.1-.9.7-.4.7-.3.8-.1 1.2.1 1.5.4 1.7.7 1.5.5h1.7l1-1.5v-3.7l-.4-1.6h-.4v4.7l-.1.5-.5.8-.7.2h-.7l-.6-.3-.5-.2-.8-.5-.4-.3-.6-.6-1 .4-1.3-.2h-1.2l-1.4.5-1 .8.2 2.3.4 1.1 1 1 .1.1 1 .4 2 1.5.6 2.2.2 1.4-.3 2-1.3 1.4h-1.6l-1.5.2h-1.2l-2 .4-1.4.2zM181.3 76l.4.4.5-1h1.1l.6-.1.5-1.1.6-.6.5-.3.5.1.2 1.1.8.5.2-.4.5-.8.5.3.2.5-.5.4-1.3 1.4-.4 1.2v.9l.2.5.3.3.4.3h1.1l.4-.9v-1.4l.5-.3 1-.2.7.2.7.6.2.6-.6.8H190l-.8.4-.4.4-.2.7-.3 1.2-.3.4.5.9.8.6.6.5.6.1.7-.2 1.5-1 .8-.3.3.1.7.6v.6l-.5.6-.4.4-.9.2-1.2.4-1.1.4-.6.5-.5.9.3.9.9 1.1h2l.8-.5 1.5-1.3.9-1 1.2-1.4.8-2.2v-1.3l.4-.6 1.5-.4 1.7.3.2-.6-1.5-.3h-.7l-1.3.3-.7.7-.3 1.5v.5l-.2 1.1-.5 1-1 1-1.3.8-.9.8-.9.7H191l-.6-.5-.1-.6.3-.6.7-.4 1.7-.7 1.6-.9.4-1.1-.4-1-.7-.5-.9-.2-1.4.7-1 .6-.4-.3-.7-.3-.5-.5v-1.7l.4-.6.8-.5 1.3-.1.5-.9v-1l-.6-.6-.7-.5-1 .2-1.3.1-.4 1v.8l-.3.4h-.5l-.4-.4v-1.1l.4-.7.5-.4.5-.5.8-1.2-.3-.5-.5-.5-.7-.3-.5.3-.2.9-.4-.4-.1-.5-.4-.5-.9-.4-1.1.4-.2.7-.7.8h-.4l-.4-.3v-.6l-.2-1-.4-.1-.2.9v1l.1.5.5.1zm313.9 100.1l.8.1v.3l.2.4.2.9.5 1 .8.2h1l.6-.4 1.2-.2.8-.8.3-.9v-1.2l-.4-1.4-.6-1.1-.6-.7-1-.2-1.6-.3-.8.4-.6 1-.4.7.1 1.3.1.5zM9.4 87.7l.1 1 .5.5h.6l.2-.2.3.3.9.3.1.2v.2l.2.3.7.7 1.2.1.3-.3.7-.3.4-.4.6-.1.4-.4h.2l.2.2v.5l.4.2 1-.4v-.6l.6-.4-.3-.2h-.4l-.7-.4h-.2l-.4-.3h-.7l-.1-.1h-.5l-.5-.2-.3-.3v-.3l.5-.5v-.2h-.7l-.3-.4-.4.2-.2-.1-1.7-.1-.4-.5-.3-.8h-1.1l-.4.3-.2.2-.2.7v1.5zm1.2-.4V87l.2-.3.4.3.1.3v.2h-.6zm1.4 0l.3-.3h.4v.8l-.7-.3zm254.8 38.4l.2.4.1.3.3.3h1.4l.4-.2h.4l.2-.2h.6l.2.3.4.5h.7l.3.2h.5l.3-.3v-.2l-.2-.2v-.5l.2-.6-.2-.4-.2-.1v-.7h.3l.2.2h.1l.5.3.4-.5.7-.2.4-.3v-.4l-.3-.1h-.8l-.4.4-.5.1h-.8l-.1.2-.3.1-.3-.1-.3-.3h-.2l-.1-.1-.1-.7h.1v-.5h-1.4l-.3.3v.3l-.4.2h-.2l-.1-.2h-.6l-.5.6v.2l-.4.8-.2.8zm227.4 127.6v.7l.2.3.3.4.4.4.6.4.3.1.3.2.5.2.9-.2 1-.6.3-.5v-1l.1-.2-.1-1-.3-.5-.5-.5-.9-.7-1-.1-.9.2-.4.4v.9l-.5.4.2.5zM80.4 270.6l1.3.2.3-1.4-.2-1.3v-1.9l.7-.4h.3l1.5 1.4.7.6 1.4.4.7-.3 1-.4.9-1.1.5-1.2.3-1.5-.2-1-.5-1.8-1.1.4.4 1.7.4 1.3-.1.5-.6 1.5-.5.5-1.1.4h-.7l-1.2-.5-.4-.7-.7-.5-.5-.7-.9-.4-.7.1-.6.2-.2.8.1.4.3.9v1.5zm285.1-168.3l.5 1.7 1.7.5h.6l.4-.5.5-.7.1-1.4.4-1.4-.5-1.1h-1.6l-1.6.6.1 1.1zm12.9 52.7l.1.3.2.7v.7l-.1.1.1.3v.4l.2.3v.6l.3.2h.8l.2-.1h.2l.6-.5v-.2l.4-.5.5-.9-.2-.5v-.2l-.1-.4v-.1l.1-.2v-1.3l-.4-1.3-.7-.4h-.7l-.4-.1h-.2l-.2.2-.1.3-.3.4-.1.2v1l-.1.2-.1.5zm1 1.1v-.3l.4-.2.2.1h.5l.3.1.3 1v.5l-.4.4h-.3l-.4.3v-.6h-.3l-.2-.2v-.2l.1-.3v-.4zm.9 2.1l.1-.1.1.1v.1zm0 0"/><path d="M464.1 255.2l.4.5h.5l.8-.4.5-.2 1-.7.8-.9.2-.8-.3-.7-.1-.9.5-1.6h.8l.8.5 1 .5.4 1-.3.8-.3.7-.8 1.2v.8l.1.6.7.4h.6l.4.1.6.3.6.4.6.7 1 1.4.7.2.5.2 1-.6.5-1.1v-1.9l-.3-1.7v-1.1h-.6l.4 2.1.1 2.3v.5l-.3.6-.8.4-.7-.4-.8-.7-1-.9-1.6-1.2-1.4-.3v-1l.3-.4.6-1.2.8-.7.1-.9-1.1-1-1.3-.5-.7-.5-.8.1-.4.5-.2 1.7.1 1v.9l-.3.7-.5.5-1 .4-.7.2h-.6l-.2-.6.6-1.5.2-1 .1-1.4-.2-.9h-.1v2l-.4 1.3-.4 1.3zM272 16.7l.3.2.2.1-.2.3.2.2h.6l-.1.5.5.5.2.1h.3l.3-.3 1-.2h.5l.2.1v-.9l.6-.3.2-.2v-.3l.5-.5.3.3.4-.1.6-1 1.8-1.3-.4-.2h-.3l-.7.7h-.4v.1h-1v.2l-1 1-.6.3-.6.7h-.6v-.2l.1-.1v-.6l.8-.7-.2-.4-1.3 1.2-.6-.6h-.6l-.5.5v.6h-.5zm1-.8h.5l-.3.3zm207.8 159.8l.2.7.3 1.1.5 1 .7.5.9.3.2-.4-.2-.9-.4-.6-.3-.3.7-.4.2-.7v-.8h1.9l.3-1.2-.1-.3h-.4l-.6.1-.5.6-.6.2-1.2-.6-.8.4-.7.4zM363.4 84.2l1 .2h.2l.4-.3h.3l.3.3h.8l.2-.1.9-1h.2l.4.3h.9l.9-1V82h-.2l.3-.4-.4-.5-.5.3h-.4l-.8.4-.3-.1-.3.1h-1.6l-.8.6h-.9l-.4.6v.6zM71 266.6v.4l.2.4.3.1.4.6H73v-.1h.4l.4-.4.7-.5v-.1l.3-.2.2-.3v-.7l-.6-.4v-.7h-.1v-.7H74l-.2-.2h-.2l-.6.4h-.1l-.2-.2-.5.2-.1.2-.1.2v.2l-.7.4v.3h-.1l-.3.3zm311.1-112.8v.1l.1.6.2.1v1.2l.1.6-.1.1.3.6-.2.8.5.6h.9l.4-.4h.6l.3.3.5-.2-.7-.7-.3-1-1-1V153l-.4-.6h-.7l-.2.3-.2.3v.5zM72.6 86.3h.2l.2-.2h.3l.2-.4.5-.4 1.4-1 .4-.5.8-1 .6-.2.2-.2h.3l.3-.4v-.8l-.3-.2h-.2l-.2.2-.5.4-.7.1-.3.2-1 .3-1.3 1.1-.3 1-.4.7-.1.8zM481 172l.5.9.4.5.5.6h.6l.6-.3.8-.5.5-.6-.1-.6-.5-.8-.3-.5h-1.7l-1.1.3zm-276.5-48.3l.3.3.6.5h.5l.3-.3.8-.2.4-.6v-.2l.2-.2v-.7l-.2-.4-.3-.4-.3-.2h-.8v-.3h-.7l-.3.4-.1.2-.2.4v.3l-.3.1zm176.8-45.9l.3.2.8-.1 1.1.6 1.1-.8h.7l.2-.2v-.4l.6-.4v-.3l.1-.1-.1-.3-.1-.3-.3.1-.3-.1-.9.1-.1.2h-.5v.2h-.6l-.2.3h-.1l-.7.1-1 .5v.1l.3.2v.1zM205.5 266.6l.4 1 .8-.6.8-.5.7-.3.8-.3.7-.3.8-.1.8-.1.7-.1.8-.1.7-.2h.7l.8-.4h.6l-.2-.7-.7.1-.7.2-1 .2-.5.1-.7.1h-.6l-.7.2-.8.2-.7.2-.7.3-.5.2-.7.3-.6.2zm17.6-243.2l.1.3.3.3h.5v.4l.4.1.5-.6h.1l.6-.4.2-.3V23l.2-.2v-.2l.5-.4.1-.2-.2-.2v-.5l-.1-.3-.4-.2h-.5l-.4.3v.2l-.7.7-.5.2-.3.4-.4.3zM329.8 26l.2.2v.2l.6.6.2.1h.6l.2-.3h.1l.1-.1.2-.1.2-.4.2-.5h.9l.1-.1V25h.2v-.5l-.3-.2h-.1l-.2-.3-.3.2h-.2l-.1-.2h-.1v.8l-.3.2h-.2l-.4-.4h-.7l-.8.7v.2zM82.2 257.1l.6.9.6.2.6.8h.3v-.2l.6-.8.1-.7-.1-.5-.9-.7-.7-.6-1-.5v.8l-.1.7zm385.3-24.8l.2.3h.7l.3.2.8.2 1.1-.2h.4v-.2l.4-.2 1.4-.3h-1.5v-.8l-.3-.5-.4.2h-.6l-.3-.5h-.7l-.3.7-.2.5-.3.4zM378.4 69.6h.4l.1.4h1.1l.3.2.5-.1.4-.6.4-.5.4.1.4.6h.6l.6-.8.1-.6-.2-.3h-1.2l-1.3.4-1.1.6h-.9zm-4.5 31.2l.4.4h.3l.8.6 1 .8 1 .3V101l-.4-.3h-.8l-.6-.3-.8-.8h-.5zm0 0"/><path d="M215.4 264l.2.5 1-.2.8-.2.8-.3.6-.4.6-.3.6-.2.4-.3.5-.2.5-.4.6-.3.2-.4.5-.4.5-.5.3-.4.2-.7v-.9l-.2-.4-.4.1v1.6l-.3.3-.1.3-.2.3-.5.4-.5.4-.5.4-.6.2-.4.4-.8.3-.4.2v.1h-.5l-1.1.6zM392.7 79.4l.3.2v.4h.9l.3-.2h.8l.3.1.7-.6-.1-.1v-.5l-.6-.5v-.3h-.3l-.2.1-.3-.3-.9.3-.9.9zM494 179.1l.2 1v.5l.3.1.2.5.2.4.8.3h.3l.4-.1.3-.6V180l-.7-.6-1 .1-.4-.3-.6-.2zm-255.3 47.4h.7l.6-.5 1-.3 1-.3 1.1-.4.7-.3h.6l.4.2.5.4.3.3.4.4v.4l-.2.6v.6l.2.5.3-.1-.1-.5v-1l.1-.4-.2-.4-.4-.4-.5-.5-.5-.4h-1.6l-.9.3-.7.3-1.1.2-.8.3h-.6zM89.4 259.4v1l.6.6.4.2.2.2.2.4.4-.2.1-.4.4-.6-.1-1.3-.2-.6-.8-.2-.8.5zm136.9-249l.1.1h.3l.1-.1h.7l.1-.2h.2l.2-.2.1-.1.5-.4.3-.1h.1l.3-.2h.2l.1-.2.4-.1.2-.2.4-.3h.1l.3-.2.3-.1V8h.5v-.1l.4-.1h.1l.4-.4h.1l.3-.2.3-.2v-.5h.2v-.1h-.4l-.1.3h-.4l-.3.1h-.4v.1l-.1.1h-.3l-.2.1-.4.2-.1.1h-.3l-.5.6h-.1l-.5.3v.1l-.7.5-.2.3h-.4l-.4.3v.1l-.1.2h-.7l-.1.2h-.2l-.3.2h-.1zm1.9 233.5l.3.1.8-.6.7-.4.6-.6.4-.5.6-.6.4-.6.5-.4.7-.3.8-.2 1-.3.9-.3.8-.2.8-.5.7-.4.8-.3-.1-.5-.6.4-.6.3-.7.2-.7.3-.6.5-.6.2-.7.2h-.2l-.9.3-.6.3-.5.3-.6.4-.5.5-.6.5-.7.6-.6.7-.6.5zm9.5-228.7v.3h.3v.7h.3l.7.4h.1l.3-.4h.6v.3l.7-.5.3-.2v-.5h-1l-.3-.3v-.2l-.3-.2V14h-.2v-.1h-.2l-.1-.1h-.3v.2l-.3.2-.5.8v.2zm152.4 58.6l.3.2 1.5.5h.4l1.3-1 .5-.5-.3-.5h-.3l-.5-.5-.3.1-.8.7-.4.2-.3.4h-.4zm-44.6-7.5l.3.4.6.1h.6l.6-.2.3-.3v-.6l-.3-.7-.4-.5-.2.1h-.8l-.2.2-.4.2-.1.8zm1.5-1.2V65h.4l-.2.3zm-5.2 23.2v.5l.6.3.5.2h.2l.4-.3v-.2l.2-.6v-.5l.1-.5.2-.3.4-.3-.2-.2v-.1h-.5l-.2.1-.5.6-.2.2v.1l-.3.1-.2.1-.1.1-.3.2v.5zM222.4 250.2l.3.2.5-.6.4-.5.5-.5.5-.4.6-.6.6-.6.4-.5.4-.6.5-.5.4-.6.5-.4.5-.6h-.3l-.5.3-.5.7-.7.7-.5.5-.4.5-.6.6-.3.1-.5.6-.4.5-.3.4-.4.4-.4.4zm240.4-19l.2.7.6.1h1.1l.2-.5.2-.4-.2-.3-.8-1h-.8l-.3.9zM317.1 134l.5.4.2.6.2.2.5.2.5.3h.5v-.3l-.1-.3-.3-.3h-.1l-.3-.4v-.4h-.2v-.3h-.1v-1.1l-.2.1-.2-.3-.4.4-.2.5-.3.3zm0 0"/><path d="M238.9 237.4l.1.3h.5l.9-.2h.6l.6-.4.7-.4.5-.4.4-.2.4-.1h.3l.7-.5.4-.5.8-.7-.2-.3-.6.3-.5.5-.5.2-.5.5-.5.2-.2.3-.5.2-.6.3-.7.5h-.9l-.6.4zm228.8-3.1l.1.3.4.4.4.1.6.2.6-.4 1-.2v-.3l-.5-.1-.3-.6h-2.1zM221 253v1l.4.7.4.6.4.7.4.7.2.7.3.7.4-.2-.1-.5-.2-.6-.3-.5-.3-.5-.6-.6-.4-.7-.3-.5v-1l.3-.6.2-.6.4-.6.5-.8-.3-.2-.4.4-.2.4-.3.7-.5.7zm49-139l.4.5.1.5h.2l.3.4h.2l.3.1.4-.1v-.4l-.2-.3-.2-.2-.1-.4V113l-.4-.3-.3-.1-.5.3v.1l-.2.3zM82.5 261.8l.3.2.4.3h.6l.6-.3.2-1-.2-.8-.4-.1-.7.3-.3.2v.4l-.3.2zM372.8 80.5l.4.2.1.3h.4l.4-.6.3.2 1.1-.6v-.4l.3-.2-.3-.4h-.8l-.4.4h-.7l-.1.5h-.3l-.3-.1v.4zm0 0"/><path d="M245.6 234l.2.3.5-.2.6-.4.2-.2.3-.7.1-.8v-.5l-.3-.5-.2-.7v-.5l-.3-.6-.1-.6-.3-.6h-.3l.1.6.2.7.2.7.2.6.3.9v1.2l-.1.5-.5.4zm26.6-153.7l.2.4.2.3.1.1h.4l.3-.4v-.3l.2-.4.2-.5v-.8l-.4-.3h-.4l-.6.6v.6l-.1.4zM8.6 257l.2.1v.2l.1.2.2.2v.3h1.1l.1-.3.2-.3v-.4l-.1-.5-.5-.2-.1-.2-.4-.1h-.5l-.2.4zM292 31l.7.2.8.6v-.3l.4-.2.2-.5v-.4l.3-.4-.2-.2h-.3l-.3.2h-1.1l-.4.2v.6zM241.1 7.4v.5l.3.1h.3l.3.5v1h.5V9l.1-.3.1-.1v-.2l.3-.1v-.1l.2-.3v-.3l-.4-.3h-.1l-.2-.1h-1.2zm124.6 144l.1.4.4.2h2v-.4h-.2l.1-.1-.1-.2h-.3l-.1-.1h-.5v-.2l-1-.2h-.1l-.3.3zm-20.2-33.9l.2.4.3.2h.4l.3-.2.5-.4.1-.2v-.5l-.3-.3h-1l-.4.3zm-83.8-34.2v.3l.5.2-.2.1.1.6h.5l.3-.4h.2l.3-.2V83l-.1-.2h-.7l-.5.2h-.1zM468.5 224l.3.3.4.2h.8v-.3l.5-.4-.3-.3-.2-.2-.6-.3-.6.2zm13.6-56.2v.2l.4.6h.8l.4-.2.3-.2-.1-.2-.2-.5-.3-.3h-.9zM269.8 130l.3.3h.3l.4-.1h.5l.1-.1.1-.1v-.6l-.2-.3-.5-.1h-.6l-.4.6zM98.4 239.7v.5l.4.2.2.2.2.2h.4l.2-.5-.1-.5-.4-.8-.4-.1-.5.3zm193-93.2v.7h.4v.2h1.3v-.3l-.1-.2-.3-.5-.3-.3-.4-.3-.1-.1h-.2l-.1.2zm-216 120.1h.1l.3.2v.5l.2.1h.2v.1h.2l.1-.3.2-.4h.1v-.1l-.3-.3v-.2l.3-.2-.2-.2v-.2l-.3-.2h-.1v.2l-.4.4h-.1l-.3.3zm286-243.8l.2.3v.3l.4.2.3.4h.6l.2-.3v-.2l-.1-.3V23l-.1-.3h-.2l-.3-.2h-.4zM372 155.2l.3.5h.5l.6-.4.2-.2v-.3l-.2-.2-.1-.2h-.9l-.4.3zm-92.4-26.9l.6.5v.2l.2.2h.6l.3-.3.1-.5-.2-.2h-.2l-.2-.3h-.9zm108.6-63l.2.2.2.5.4-.4.4.3.3-.4-.4-.5-.2-1h-.2l-.4.3-.1.8zm-65.7-45.2l.2.2.3-.3.2-.2-.2-.2.3-.4h.3l.5.6.2-.3V19h.5l.3-.4-.1-.4h-.4v.1l-.2.3h-.4v.1l-.3.1-.2.3h-.2l-.3.1h-.4l-.1.5v.1zm46.1 47.4h2.1l.1-.2.4-.3-.2-.3-1.4.1-.4.3h-.5zm-37.9 20h.7l.4-.4h.3V87h1.1v-.3l.1-.3-.2-.2h-.1l-.1-.1h-.3l-.3.3-.3.1v.1h-.2v.2h-.3l-.3.4h-.1l-.3.2zM281 132.7v.7l.1.1v.1l.1.1.2.1h.6v-1l-.1-.4h-.9l-.1.1zm87.1 22.6l.1.1v.3l.2.1h.3v-.4h.8v-.2l-.2-.2.2-.1.1.1v-.2l.4-.2h-.4l-.3.2-.2-.2.1-.2-.2.2h-.6l-.2.3v.3zM267.8 26.1h.5l.2-.2h.1l.2-.1.2-.1.3-.3v-.3l-.3-.3h-.3l-.1-.3h-.4v1.2l-.4.1zm206.7 202.5l.5.4.4.2.4-.6-.1-.3-.1-.4-.4-.1h-.4zm-6.2 7.8v.2h.5l.8-.1.6-.2.4-.6h-.4l-.7.1-.5.2zM84.7 275.8l.2.4h1.2v-.2h.4l.5-.2h-.2l-.4-.2h-.1v-.1h-1.5l-.1.2zM232.3 14.6l.1.3.1.1h.6v-.4l.2-.1.1-.2h.3l.1-.3h-.2l-.1-.1-.2-.2h-.6l-.1.3h-.1v.2l-.3.1zM.8 243.8v.3l.2.3.4.2h.4l.2-.2-.2-.3v-.9h-.5l-.3.3zM.3 89.5v.3h.5l.2-.2h.7l.6-.2h.2l-.2-.4H.8zm369.3 18.1h.8l.6.2h.3l.3-.3.2-.2v-.3H370l-.2.3-.1.2zM170.3 279.7h.1l.6-.4h.7l.1.3.3.4v.2h.1l.2-.2v-.5h-.1v-.2l-.1-.1v-.1l-.2-.2h-1l-.4.4h-.1v.2zM388.4 81h.3v.3h.9V81l.2-.2v-.2l.1-.2.1-.2V80h-.5v.2l-.1.2h-.6v.1h-.2l-.2.2zm-88.1 65.2l.8.8h.2l.2-.2v-.8l-.4-.3-.5.1h-.2v.1zm0 0"/></g></svg>