<svg xmlns="http://www.w3.org/2000/svg" xmlns:xlink="http://www.w3.org/1999/xlink" viewBox="0 0 497 279" xmlns:v="https://vecta.io/nano"><style><![CDATA[.B{fill:#add19e}.C{stroke:#fff}.D{stroke:#8d618b}.E{fill:#cdebb0}]]></style><filter id="A" width="100%" height="100%" x="0%" y="0%"><feColorMatrix in="SourceGraphic" values="0 0 0 0 1 0 0 0 0 1 0 0 0 0 1 0 0 0 1 0"/></filter><mask id="B"><g filter="url(#A)"><path fill-opacity=".5" d="M0 0h497v279H0z"/></g></mask><clipPath id="C"><path d="M0 0h497v279H0z"/></clipPath><path fill="#f2efe9" d="M0 0h497v279H0z"/><g fill-rule="evenodd"><g class="B"><path d="M93.4 117.5l1 2.5 1.2 3.8 2.6 2.5 4.4 1.5 2.8-3 3.6-3.3 4-4 1.7-5.7 4.1-4.5 3.6-3.6 2.8-2.9 2.5-1.3 3.5-2.7-.6-.8-.8-2.8 1-5.2 3.3-5-3.1-2.2-4 3-4.7 3-4.8 3.1-5.3.5-2.2 5.4 1.8 7.4-.1 5-4.4 2.8-3.2.6-4 1.4-1.4 1.8.8 1.2-2.8-1-1 1.3H94l-.5 1zm32.3-18l.8-1.1-.8 1.2zm1.8-.2h.2zm.6-.5l1-.5-1.1.5zm1.4-1.5l.1-.3"/><path d="M100.2 87l2.4 3.2 4.5-2.2 1.9 2.6 3.7-.6 5.3-.3 4.7-3.2 4.8-3 3.3-3.3-2.6-2.8-4.3-1.2-.2-1.8-2.7-1.3-3.9-.7-4.7-2.6-4.2-2.1-4 2 1.1 5.8-1.9 5.4-1.7 5.4-1.4.7zm18.9-6.7l1.3-1.3-1 1.4zm2.3.4l.8.1-.7.2zm0 2.7l1.2.3M179 28.6l3.6 12.2 1.7 3.9 3 2.2L193 49h.3l-5.8-1.8 2.7 5 .8 3.8 3.5.4 1-.4 1.3-2 1.2-1.9 2.8-2.4-4.6.3 5-1 2.8-1.8-.9-2.5-2-2.7-1.3-3.7-1-4.3-5.7-1-4.8.5-3.5-2.6zm13 26.9h.2zm3-.6h.2zm.3-2h1l-.9.1zm2-1.9v.3zm2.5-.3"/><path d="M84.8 117.3l3.4 1.6.7-1.6 3-1.7 4.4-2.6 2.7-1.4 2.1.8-.4-3.6 1.4-.8 2-5.4 5.4-2.6 1.1-5.6-2-3.8-2.5-1.8-4.8 1.5-2.1 2.9-3.2 4.3-2.5 3.8v5.7l-4.2.7-.2 3.7-1.8 2.8-2.5 3zm-67.5 17.1l2.4 5.8 2 5.5 2.5.1-.4-4.8v-2.2l-.6-2.7.3-1.1 1 4.4 1.3 2.6 7.3-1 3.2-4 2.5-.1 5.5 1.9.4-3.8-5.5-1.7-5.6-.2-5.3-2.6-5.4-.4-5 3-.5 1.2zM122.2 71l2.8 4.2 5.5 3.3 3.5-2.7-3.6-.6 2.6-2.6 3 3.2 7.1-5.8 3.1-5-4.5-1.7-2.6-.3-4.1 4.4-3.4 1.3-1.7 1.3 1.8-5-1.3-2.6-1.4-.8-3 2-3.1.2 2.5 2.4.6 2.8-3.3-2 1.3 2.9-.8.9zm2.7 1h.9zm.6-3.2v1.3zm1 0h.5zm48.5-3.3l3.7 1.9 1 5.2 3 4.8 4.1-1 4.6-3.7-1.2-5.1-2.2-4-2.2-3.5-4.1-2.1-1.3 1-1-.7-2.9 5.1-1.4 2zM36.5 147.2l4.2 2.3 4.2 1-4.2 3.9v3.6l3.6 1 5.4-3.5 2.7-4.5-5.3-1.2L51 144l5.3-3-4.4-1.2-4.4-4.2-2.6 4 .1 4.8-4.2 1.9-4.3.7zm0 0"/><path d="M155.3 76.8l3.7.4 5 1.4 3.3.4 1.8 3.2 4.8-2.5 4.6 1.7 5.3-1.4-1.1-2.6-3-4.8-3.4 2.4-4.5-3-4.4-.3-5.7.4-5.1 1.4-1.3 3.2zm-171 203.1l4.7 2.7 5.4 3.7 5.3 1 2.4 1.5 1.9-3.5-.3-4.3 1.9-4-6.2-.6-3.7-1.1-3.4 1.7-4 4-3-1.7zm5.7-1.4l2 .5-2.1-.2zm0 5.1l.5-1-.2.9zm2.5-3.4l1.7-.7-1.2 1.1zm.4 1.9v.8zm.3 2.3l.8.2-.5.4zm.2-3v.6zm1-.7l.1.4zm-.1 2.5l.9.2-.6.1zm.5 1.3l.2.1zm.6-3l1.3-1.7 1.4 2-2.4.3zm0 3.5l.9-1-.5 1.1zm1.6-.6l.8.2-.9.6zm2-.2h.7zm1-.7h.4zm.5-6.1v-1.1l.5 1zm0 6l.3.2zm.5-5.5v.7zm.5 1.5v.3zm.5 6l.2-.8v.8zm.8.5l.5-.3.2.3-.5.3v-.2zm.3-7.3l.5-.1v.3l-.3.3-.1-.1zm1 .6l.3-.2h1.1l.2.6h.1v.8h-.9v-.4h-.4v-.5l.2-.1v-.1l-.1-.3-.4.3zm0-.8l.9-1h.1l-.5 1.3zM-12 144l.2 7.4 6.6.3 3.3-4.2 3.1-3.8-3.8-4-.5-1-4.4.8-2 2zm167.6-90l2.8 3.1 2.6 4.5h3.7l2.5.7 1-2.6 4-4 2.3-5-4.1.1-8.4 1.8zM-3 136.9l4 4.4 3.7 2 1.3-.1.4 1.4 1.1 8.3 3.3-2.5 2.6-5.4-3.2 1.6 2-4-2.3 1-.7-2.8-1.7-3-5.9-1.8-4.4.5zm55.6-7l3.6 2.5 3-4.3 5.1-1.6 3.1-1.7V121l-2.9-2-3 .1h-3l-1.2 2.8-2.7 3.1-.9 3.8-1 .9zm149.7-80.6l7.2.4 5.3 2.4 4.3 2.7 7.5.3 1.3 1.9-5-5.6L212 49l-.7-1.9 5.7 1.5 2.3-.6-3.6-1.4 3.1-.9 2.5-4-5.2 2.1-5.3.2.8 1.5 2.2 2.8-3.7-3.3-4 3.1-3.6 1zm-175.2 100l5.4-2 5.6-.7 6.4-.4.2-5.2-4-3-5-3-1.2 5.7-3.4 4-3.7 4.6zM13 156.4l3.8 4.9.3 1.5 2.8.7 1.4 3.7 5-1 1.1-5.2-2.7-3.8-5-.2v-2.3l-4.7-.6-1.6 1.5zM9.4 141l3 1 1.6-1.3.5 1.3v2.4L12 149l.1.6 3.3 2.4-.8.2-3.2 1.4 2.7-.3 2.7-.2 1-1.6-.3-3.2 1.1.3 1.9-1.8-.3-1.8-1.4-3.5-2.7-4.3-6.4 3zm121.4-60.8l2.9 2.5 4.2-.5 4.3-3.2 4.3-3.7-3.5-1.6 1.9-4.7-1.7 1-6.7 5.7-4.6 3.3-1.1 1.1zM27 50.3h10v-9.5H27zm0 0"/><path d="M17.1 50.3h10v-9.5H17zm-9.9-9.5h10L7.1 31.3zm0 0"/><path d="M7.2 50.3l10-9.5H7.1zM27 59.8h10v-9.5H27zm0 0"/><path d="M17.1 59.8h10v-9.5H17zm0 0"/><path d="M7.2 59.8h10v-9.5H7.1zm-9.9 9.5l10-9.5H-2.8zm0 19h10v-9.5H-2.8zm0 9.4h10v-9.4H-2.8zm49.6 0h10v-9.4H46.8zm0 0"/><path d="M7.2 97.7l10-9.5H7.1zm0 0"/><path d="M-2.7 107.1h10v-9.4H-2.8zm0 0"/><path d="M7.2 107.1h10v-9.4H7.1zm0-37.8v-9.5zm-9.9-9.5l10-9.5H-2.8zm6.5-1.5v-.6l.2.8zm13.3 11l10-9.5H17V69zm119.4 16.4l3.1 2.5.8 1.6 6.6-3.1 2.4-1 .6-1.3-.9-2-2.6-4.3-3.3 2.2-2 3.6.6-3.2-4.5 3.9zm-109 76.4l3.5 4.5 3.4 1 3-1.9v-3.4l-2.6-1.9.5-2.6-2.9-1.7-2.7.6-1.7 4 1 1.4-1.4-.6zM7.2 88.3l8.6-3.6 1-1.7-.8-2.6-8.8-1.6zm357.1.1l2.7.4h4l5.9-1L383 86l1.4-1-5.2-.4-5.2-1.2-5.3-1.8-3.2 1.7h3l-.5 1-3.5 2.5-.1 1.2zm-263.5 24.2l5.9-1.4 4.3-3 .9-4.1-3.2-3.7-5 2.9-.9 5.5-1.8 3.7zm9.7-6l.9-.6M172 59.4l3.6-1.4 3.4-4.4 3-1.5 5.5 1.3 3.4 1.4-1.7-4.5-4.6-4-4.4 2.2-4 4.3-2.3 5-1.9 1.5zm17.5 4.2l1 5.6 2.5 4.5 4.9-2.8 1.9-3.2-2.4-4.1-6-.2h-1.9zM110.8 67l3 5 5.6 1 1.6-.5.5-1.5 2-3.2L117 65l-.8 1-5.4.9zm0 0"/><path d="M182.3 55.9l2.6 3.7L187 63l4.7.4 5.8.4 1.8-1v-3.9l-2.1-.5-.3.8-.9.1 1.5-1.3-2.8 2.1-5.3-1.1-3.8-4-3.2 1zm-94.6 76.6l3.9 7.7 4.3-2 1.3-2.4 3.3-3.8-5.9.3-4.1.8h-2l-.7-.7zm2.1 6.2l2.8-.2-2.7.4zm2.3-3.9l.5-.5-.4.4zm3.1.1l.2-.4h.1v.2l-.2.2zm103.5-78.2l1.3 3.1 3 3.8 4-8.7-3-3.2-4.4 3.7-.9 1.2zm.8 0l1.2-.7"/><path d="M78.7 129.8l1.5 6 2.8 3.3 4.8 1.9v-8.5l-1.3-2.3-5.5-2zm.6 1.9l.2-.2zm.1-1.2h.1zm2.5 2.7h.1zm.1 3.7h.2zm.1.4h.2zm.7-1.9l.1 1.1v-1zm1-1.2l.4.3-.4-.2zm-.1-3.1l.9.6-.7-.3zm45.5-39.8l3.6 4.2 5.2-2.8-.4-4.7-3.1 1 1.3-5-4.4 3.4-2.2 3.6zm0 0"/><path d="M63.7 142.3l3.3-.1 1.6-4.6.5 1.4 2.8-3.3 4.1-2.3 3-.4v-2.5l-4-.6-.4.6-1.3-1v1l-3.7 2.2-1.8 1.1-3 4.8-1.2 3.7zm11.7-10.1l-1.2.2h.1v-.1h-.1zM27 75.8l10-.3v-6.2H27v5.5zm118.2 1.8l1.3.4 2.7 4.5 1.8-.4.4-2.5 1.2 3-.2-4.2 1.1-6.2-.4.2-1.4-4.4-4.2 7-2 2.4zm-83 39.1l5.3-1.7 1.5-5.6-1.3-5.5-4.3 3.4 1.2 4.3-2.3 4.4zM7.2 75l10 .5v-6.1H7.1zm0 0"/><path d="M17.1 75.4l9.7-3.2-9.8-2.9zm.1-4.1l.3.6m11.9 77.8l4.3 2.6 4.5 4 4.2-4.1-2-2.4-5.3 1.3.7-.8L34 147l-4.5 2.6zm-32.1-75l10 .4v-5.8H-2.8zm173-4.6l3.7 4.2 3.5-1.2 1-4.6-2.2-2.7-4.5 3zm-22.6-13.8l3 4.5 3.3 1.6 1.7.1.7-4.6-3.7-2.9-4.7 1.1zm159.2 40.8l4.2 3.4v3.7l1.9-1.5-2.9-4.7 2.2-5.3-1.3-4.3-3 1.9-.6 4.7-.2 2zM167.3 62.2h4.2l2.1-4.4 2.6-4.4-1-3.4-2.9 5.3-3.9 4.2-1 2.6zM81.3 73l12 1.7-1.4-4.5L85 72l-3.6 1zM341 77.3l4.7.9h-2l-.1 2.8 5.2 2.6 2-1.4-.9-2-2.8-2.1-4-1.3-2 .3zm-316.8 67L26 149l1-3.4.7-1.2-.3 4.6 2-5.2.3-1.7 1 .8-.5 2 1.3-3.7-6.8 1.5-.5 1.3zM-2.7 78.8h10v-3.6l-10.1-.4zM346 133.2l3.3 3.6 2.9-9.8-4.6 4.6-1.5 1.6zM82.7 114.9l4 .2 1.1-2.5 2.3-3-1.7-3.4-2.4 3-2 3.1-1.2 2.6zm-2.8-43.3l7-.4 5.7-1.5-6.2-1.7-5.3 2.2zm273.5 17.8l2.5-.2.8-.2-2 1.9h1.3l1.5-.9 2.5.3 4.4-1-2.1-2.7-4.1.6-2.7.5-2.1 1.6zM69 62l.5 7 3.8 3.5 1.5-3zM7.2 78.8v-3.6zM54.8 139l4.2-2 3 2-1.5-2.8 3.8 1.6 2.9-3.8-5.4-.8-4.8 3.6-2 2zm297.5-12.1l.2 6.3 1.9 4.8 1-5.7-1.5-5.3-1.5-.3zM231.9 56.8l2.1 4 4.1-1 1.5-4.9-4.6 3.7 1.3-1.8-4.3-.2zM27 78.8v-3zm129.1-22.4l1.7 8 4.2 2.3-1.9-4.5-1.3-4.4-1.8-1.1zm-10.8 9.9l3.4-2.5 3.5 2 1-2.9-3.8-1.4-2.4 2.6-1.4 1.9zm-88.1 66.5l5.3-2.2 4-.8-1.2-3L61 128l-3.5 3.6-.3 1.1zm7.6-3.5l.2-.3v.2h-.3zm-.6-11.1l3.4 2.8 2.5-2 3.4-.5-2.8-1.9h-4.5l-1.8 1.7zm5.5-1.2l.4.4"/><path d="M356.8 85.4l1.3 1.7 3-.3 1.1-.8 1.5 1 .7-3.8-.9-.6-.7 2-1.3-1-.9.6-1.9-.4-1.8 1.4zm-6.8 69l1.5 2.5 1.2 3.2 3.7-2.5-2.2-.4-.8-2.6-.8-.1-2.6-.2zm-330.6 1l4 1.9 1.6-3.9-5.3-.4zm109.9-91.9l5 .1h-1l-.1 3.2 3.3-1.6-1-3.3-2.9-1.3-1 .7-2.1 1.8zm32.5-.5l2.4 2-.8 1.8 2.4-.3 1.5.8-1-3.9-4.3-1.3-.1.7zm181.4 68v5.8l1.1 1.3 2.3.5 2.4-1.6-.5-1.6-2.7-.6-1.1-2.3-1.4-1.5zM151.8 68l6.4.6-4-3-2 1.6zM17.1 78l2.9-.2 1.4.7 4.2-1.7-8.5-1.3zM143 73.9l4.7-.7 1-4.9-4.3 2.1-1.5 3.4zm181.4 6.7l2.5 2L334 81l-5.6-1.5-3.9 1zm29.3 69.6l3.4 4.3v3l.7-4.9-2-2.1-.5.1-1.3-.4h-.2zM24.6 157l3.6 1.2 1.9-3.6-4.6-.4v1.4l-.6 1.4zM353 78h5.8l4.6-2-5.4.7zM65.1 69.7l5 3-4.3-2.7zM167.2 66l3.1-.6 1.8-1.8 1.3-2 .8-1.3-3.6 2.1-2.9 2.7-.5.8zM346 154.3l4 5.3.5-3.6zm5.7-9.9l1.6-1.4 1.5.5.1-3-2.1-.6-1 4.5zm-8.4-1l1 4.9 1.6-2 .1-1.4-.8-.9-.8-.2-1-.5zm0 0"/><path d="M145.2 77.4l4.8-5.3.4-5.2-2.3 5.2-2.9 5zm199.1 70.5l2.3 4 2.2 2.2.2-2.1-3.7-3.5-1-.7zM75.8 116.4l2.4 1.3 1-1 .8 1.1 1.6-1.8-1.7-1.5-3.8.8.1 1H76zM143.9 60l3.4.8-.6-2.4-2.7 1.5zm211.5 103.4l4-2.5-2.4-2.8-.8 1.9-.7 3zm-7.9-17.4l3.9 1.4-3.6-1.4zM80 6.6l4.5-1.2-3.5.2-.5.4zm-7.6 59.6l4 5.8-.5-3.7-3-2.4zM350 139.5l1 1.7 1.6-1.8-1.9-2.4-.6 2.1zm1.8-28.9l.2 6.5 1.4-.3-1.2-5.5-.4-.8zm.2 50.7l3 2.5-.4-.8v-2.6l-2.4.9zm-33.2-75.8l4.5-1.2 1.1-2.7-5 3.7zm24.6 68.9h2.4-2zM36 157l3.9 3.4-1.1-3.4h-2.6zm99.6-96.2l2.2.5.6-.7-2.8-.1zm-103.5 92l4.5 3.2-2-2.9-2.4-.3zm315-7.4l4.3.4-3.9-.8zm-204-86l4.9-1.8h-4.8V59zm-49.7 55.8l1.9-1 1-.4 2.2.8-4.2-.6zm250 35.7h1.6-1.2zm-242.9-19l5-.3h-3.8l-.7.2zm3.5-.5h.3v.2h-.3zm0 0"/><path d="M345.5 152.4l3.5.1-3.4-.1zm-325.9-.6l3.7-1-3.5.8h-.2zm9.7 0l3.5-.8-3.4.5zM74 118.4l4 1 2.3-.2-.8-.7-2.7-1-1.4 1.5-1.3-.6zm5-44.7l3.2.7-3.1-.7zm65.8-4.1h1.6l.3-1.3-2 1.2zM69 121.3l3.4-1.3-1.9-.8-1 1-.7 1.1zm287.9 36.4l2.8 1.2-2.8-1.3zm-338.5-7l3.3-2.5-3.2 2zm330.6.1l3.6.7-2.6-1.2-1 .4zm-22.2-72.4l6.3-1.4 1.7 1.4-4-1.7-3 1-.9.7zm-222.7 52.4h4l-.1-1.4-4 1.4zm-54.3 5.5l3 2-2.4-1.7zM319 86.7l1-.6-.9.5zm29.6-2.3l3.1-.2-1.8-.6-1.3.7zm-144-31.8l1.7.5-1.6-1.4zm0 0"/><path d="M146.6 68.5l2-2.3-2.1 2.2zM352 160.4l3.9 1.3-3-1.8-.8.4zM180 57.2l3.3.9-.6-3.3zM70 74l5.2-.3L71 73l-1 .8zm254 10.2l4.1 2.2-2.7-1.9-.5-.7zm26.3 1.8l4.9-.9H352l-1.6.9zM150.6 67l5.4-1.8-3.5.3-1.8 1.3zM-2.8 138.7l2.6 1.9-2.5-2zm349.8.3l2.5 1.2-2.5-1.4zM81.3 77.9l2.5 1zM354 149.3l4.2 3.3-.4-2.2-1.5-.7zM330.5 76l4.1.5zM175.2 49.8l2.3-2.2-2.3 2.1zm-150 28.9l1-2.3zm44.3-7.9l4.7 2.2-1.4-.5-3.3-2zm86.9-5.5l3.2 2.2-2.8-2.4zm0 0"/><path d="M147.7 65.2l1.8 2.6-1-3.2-.9.6zM23.2 149.1h2.2-2zM181.5 45l3.7-.9-3.4.4zm163 102.6l2.8.9-2.9-1zM137.8 59h.6zm17.8 4l1.5-1.7-1.5 1.5zm175.5 7.9l4 2-4.1-2.1zM38.8 160.6l2.3-.4-2.2.4zm316.4-12.2l2.6 1-1.9-1.4-.7.3zm-60-72.3V76zm54.2 76.4l1.4.1zm-319.1.4h1.3l-1.2-.3zm318-11.7h1.8l-1.3-.1zM149.2 60.7l4.2 1.8-1.4-1.9h-2.8zM352 119.6h.1zm12.9-33.7l.3-1.4-.2 1.3zm-38.6-8l4.3-1.2-4.3 1.3zM82.6 117.2l1.8-.3-1.7.2zM22.7 153l.1-.2zm44.5-25.7l1.5-4-1.5 3.9zm278.9 20l1.7.3-1-1-.4.7zM138 83.1l1-2.1-1 2zm-37.1 178.4l.5-1.2-.4.7zm71.7-212.3l1.1-.2-1.1.1zM78.3 72.7l.3-.3zm65.4-9.1l1-.6-.9.3zm0 0"/><path d="M67.4 126.7l1-1.2-1.1 1zm253.7-40l3 .6 2.9-.8zM183.4 45.6l2.8.2-2.7-.2zm-6.8 3.4l2.1-1-2 1zm25.2.8l1-.4-1 .2zM335 78l.2-1.4-.2.2zm135.6 135.5l.1-2.3v1.6zm-471-71.8H.8h-1zM154 54.5l.7-.2zM308.4 89l1-1-1 .8zM39 157l1.6 1.1zm0 0"/></g><path d="M139.6 91.8l3.8-3.2-3.5 3zm0 0" class="E"/><path d="M318.8 86.6l1.8-1.3-1.8 1.2zM90.8 117l2.4-1.4-2.1 1.2zm262.1 29l.6-.2-.5.2zM139.6 61l1.9.7-1.8-.7zM27.3 151.4l.4-.4zm153.1-104l.2-.4zM308.7 87v-.2zm-12-10.2l.2-.8-.2.7zM19.2 152.6l4.8-.8-4.7.7zm0 0" class="B"/><path d="M361.4 83.2l3.3-1-1.7.2-1.5.6zm0 0" class="E"/><path d="M364.4 83.6l.1-1v.6zm-9.9 62.3l1.1 1.5-1.1-1.6zM164.2 67.5l.8.7-.8-.8zm188.4 83.3l.8-.5zM134 60.3l1.7-.6zm217.2 87.4l1.2.4zm3.6 8.4v-.8.7zm-2.6-31.8v-.6zM136 84.1h.1zm-47.2 38l.3-.1-.2.1zm52.9-42.3l2.1-1.8-2 1.6zm353.5 88.4l.6-.2zM70.8 93.4V93zM15.5 154v-.2zm175.2-97.2l3.3.4-2.7-.6zM72.4 119l1.8-.3h-1.7zM265.8 16.2v-.4zM83.7 118l1-1.4zm262.5 25.6l.1-.1zm-208-53.7l.3-.2zm-66.5 39.2l1.4-1-1.1 1.1zM302 82.4v-3 2.9zm-232.2 50l.1-.2zm282.6-48.2l.6-.5-.4.3zM146.3 62.7l.3-1.2-.3 1.1zM68.8 108l.2-.3zM26.5 69.3h.5zm321 73.5l.2-.5-.2.4zM70.1 131.6l.3-.8-.3.7zm5.8-54.9l.1-.3zm4.1 41.8l.6-.3zm274.3 34.2h.1zM195.2 56.4l1.2-2-1.2 2.1zM44.8 135.7v-.5.4zm37.6-18.1l.6.2zM68 122.7l.7.3zm-39.7 27.9v-.2zm315-12.4v.1zM27.4 151.8h.3l-.3-.1zm203.2-92l1.4.4zM16.2 79.7v-.1zM427 218.2h.3zm-81.1-74.5l1 1.1-1.1-1zm-157.2-89l.6.3zM78.5 78v-.2zm243.4 6.8l.6-.1zM87.6 142.3v-.3zm68-77.6v-.2zM79.7 118l.6-.2zm-10.4 14.2l1.7-2.5-1.7 2.3zM157 64.4h.2zm-92.2 33v-.1zm353.5 117.1v-.4zM26.4 75.8v-.1zM72 93.1l.1-.1zM335 76l.2-.2zm8.7 62v-.1zm-267-65.4l.1-.1zm-52 78.4v-.2zm394.1 64.4v-.7zM159.5 67.7l.2-.1zm6.5.1v-.1zM276.4 8.6v-.4zM74 118.4h.2zm-3.5 11.7l.1-.1zM28 154h.4zm53.7-76.4v-.2zM354.4 143l.3-.2zM66.8 100.7v-.1zm11.8-29.6l.2-.4zM137 86.9l.4 1zm-70.3 14.3v-.2zM198.2 64v-.1zM66.8 97.9v-.2zm210.6 172.9l.1-.1zM75.3 73.2h.1zm-50.2 77.6v-.1zm330.3-3.3h.2zM95.3 115.2h.1zM56 133v.2zm134.2-76.9l.1-.2zM272 10l1-.1zM68.1 105.8l.2-1zm188.3-80.4l.3-.8zM36.6 156.7l.1-.1zm-17-3.7v-.3zm-.9 0v-.2zm390.5-93.6v-.5zM35.6 158.2h.4zm318.5-5.8h.2zm-2.1-30.8h.2zm-2.5 15.8h.2-.1zm5.5 11v-.3zM164 67.5v-.1zm-146.3 85v-.1zM76.3 117h.2zM79 78v-.1zm-1.3-.5v-.1zm-52 75.5h.3zm0 0" class="B"/><path fill="#d6d99f" d="M83.2 134.4v-.2zm0 0"/><path d="M81.1 118v-.2zm329.2-59v-.5zm-56 24v-.2zM248.8 8.8v-.2zm0 0" class="B"/><path fill="#eef0d5" d="M365.6 82v.2h.4v-.3zm0 0"/><path d="M88.5 131h.1zM254.3 25.4v-.6zM33.2 154.3h.1zM162 67v-.3zM31.5 152.7h.3zm-1.5-.3h.1zm265.4-78.2V74zm57.7 10.5v-.2zm-9.2 56.1v-.1zm12.6 18.1v-.2zM353 83.5l.2-.2zM88.3 137v-.1zM81 73l.3-.2zm116.6-39h.1zm276.2 165.7v.1h.4zM71.5 119h.1zm278.7 18v-.2zm4.2 11.3v-.3zm0 0" class="B"/><path fill="#eef0d5" d="M197.2 270v-.2zm0 0"/><path d="M24.9 153.2v-.2zM343.3 141h.1zm2.3 3v-.1zm3.4-6h.2zM76.2 74.1h.3zm-6.8 48.4v-.1zm274.2 19l.2-.2zm7.8 8v-.2zM81.5 75.6v-.2zM353.6 150h.1zm0 0" class="B"/><path d="M363.5 82.7h.6zm0 0" class="E"/><path d="M356.5 78.3h.1zM418 214.4h.2v-.2zm6 60.9h.2zm-78.2-131.9l.2-.2zM160.4 67v-.1zm272.1 206.5v-.1zm-79.8-135.4v-.3zM89 132.9v-.1zm0 0" class="B"/><path d="M353.4 84.5l.2-.1zm0 0" class="E"/><path d="M190 56.9h.2zm7.5-2.4h.1zm149.2 91.2l.3.3-.1-.4zM198.3 53.3h.1zm-9.3 2.4h.2zm176 28.6v.1zM77.1 73.7v-.1zM347 145.9h.2zm-.1-.5h.1zM81.1 77h.1zm267.7 73.4v.1zm4.8-65.4v-.3zm-7 60.7l.4-.2zm-23-61.4v.1h.2v-.2zm102.5 190.9h.1zM347 146h.4zm4 1.4h.1zm2-66.3h.2zM77.3 75.6v-.1zm282.1 6h.3zM344 141h.2zm2.7 4.7l.3-.2zm7.8-60.7v-.2zm-8.1 56.7v-.1zm14.9-58.8h.1zm-11.2 54.2v-.1zm5.2-52.3h.1zm-.1.2h.1zM198.5 57v-.3zm157.6 28h.1zm0 0" class="B"/><g fill="#aad3df"><path d="M475.4 61.2l2 3.3 3-2.1.8-1.4.8-.5.7-1 .1-.4.2-.1v-.9l.3-1.8v-.7l-.5-1.3-.2-1 .1-1.1v-1.9l-.2-.1-.2-.4-.3-.2-.3-.4-.3-.5-.4-.4-.1-.3-.2-.3-.2-.5v-1.1l.1-.5.3-.5 1-2.4.7-1.4.8-.7 1-.3 1.6-.5.8-.5.9-.8 1.6-1.5 1-.6 2.2-1.4 1.2-.5 1-.5 1-.2 2-.3 1.1-.2h1l1.2-.5.4-.4.4-.1.2-.3.3-.2 1-.8.6-.7.1-.2 1-1 1.2-1.9.7-.7.8-1.1 1.3-.9.8-.8.5-.7.5-.3.7-.6.7-.4 2-1 .8-.5 1.3-.5h1.7l.5.1-.2-.2h.4l-.2-.4-1-.2-.4.4h-.4l.6-.5.7-.4h.5l.4-.2h1.5l.8.3.8.1.8.3h.2l.1.2h.7l.2.3h.2v.1h.1l.2.2.1.2h.2v.3h.2v.1l.3.2h.2v.2h-.3l-.1.1h.4v.4l-.3.1h-.1l.3-.3h-.2V21v.2h-.5v.8l.9.1h.4l.3.1v.2l.4.1v.2l.2.3h.3v.2l.1.1.4-.4v-.2.1l.3-.1-.4-.3h-.1v-.1.2l.5.2v-.1l-.4-.1V22h.3l.3-.3.1-.2v-.2l.2-.3v-1h-.2v-.4h-.3v-.1l-.6-.5h-.2l-.1-.1h-.3v-.2h-.1v-.1h-.2v-.1h-.3v-.3h-.1l-.3-.1-.6-.3h-.7l-.7-1-1.3-.5-1.1-.3-1.5-.1h-1.3l-.8.1-1 .3-2.2 1-.5.4-.4.4-.5.3-.2.2-.8.4-.9.4-.3.1-.2.3-1 .6-1 .8-.8 1-1 1-.9.7-.7.8-1.4 1.5-1.6 1.4-1.1 1.4-.6.4-.9.4-.6.1H498l-.4.1h-.6l-.5.3h-1l-.4-.3-.3.2h-2.5l-.6.1-.8.5-1.4 1.2-.9 1-.8.6-1 .6-1.3.4-1.2.4-1 .8-.3.2-.6.7-.3.4-.8 1-1 .9-.8 2h.1l-.7 1.4-.6 1.9-.3 1.2-.5 1.1-.1 1.3v1.2l.6 1.5.6 1.3.8 1.5.6 1.7.2.8-.3.7-.5.5-1 1-.4.7-.8 1.2-.2.2zm3.8-13l.3-.7.7-1.1v.9l.1.2.2.2.1.3.2.3v.2l.4.3.1.3.3.3.2.2.1.2.2.1.1.3.1.2.1 2.6h-.3l-.3-.5-1-1-.7-.5-.5-1-.3-1zm3-7.4l.3-.6.6-1 .5-.7.4-.3 1.4-.7h.5l.9-.3 1.8-.5-.3.5-.3.5-.7.8-1 .5-.9.4-.9.4-1.6.6zm6.3-5.3l.3-.5.8-1 .3-.4.5-.5.9-.5.7-.3 1.5-.1h2l.1.2-.2.2-2.4.9-2.3 1.2-.7.7-1.4.4zm9.3-2.8l1-.4.9-.3-.1.3-.9.2zm20.6-14v.3h1.2l.8.2v.1h-1l-.6-.1h-.3l.2.3.3.1.4.1h-.6.2l.1.2.3.1h.4l.2.4 1.8.5h.2l.7.5.3-.5h-.3v-.3h-.2v-.2l-.3-.2h.3l.1.2v-.1h.6-.2l-2.4-1.1-.2-.2h-2v-.2zm2 1.1l1.6.2.5.6v.1h-.5l-.6-.5h-.2l-.3-.2zM-12.2 133.4l.4.2h.1l.7.2 2 1 .6.4.6.3 1.2.5.8.1.5.2h2.5l1 .4.5-.4 1.7-.2 2-.3h.5l.8.2 3.1 1.5 1.3.2h3.1l.7-.3 1.4-.4h1l.6-.3h.5l1.8-2.2v-.3l.3-.1.1-.4.1-.3.3-.4h.3l.7-.4 1-.6.7-.4.1-.1.3-.3.3-.2.4-.2 1-.8h.2l.6-.1h.4l.3-.3.6-.1.5-.1.4-.1h.2l.3-.2h.3l.4.3.4.3.6.5.2.2.6.4.8.8.4.2h.2l.4.3 1 .5.8.4h1.1l.2-4.6-2.4-.3-.7-.5-.2-.1-1.4-.7-1.2-.6-1-.4h-2.2l-1.1.2-.7.5-2.1.5-1.2.7-.7.3-.8.1-.5.1H17l-.4.2h-1.4l-.9.1H13l-1.8-.4-.9-.3-.9-.2H6.8l-1 .4-.3.2-.3.3-.2.3h-.2l-.4.2-.2-.2H4l-.8.3-2.8 1.3-.9.3-.4-.1-.4-.3-.3-.1-.4-.5-.6-.5-.7-.4-.7-.1h-1.4l-2.2.4-1.8.1h-.3l-.6-.2h-.3l-.4-.1-.1-.2-.3-.2-.2-.1-.1-.2zm1.5-2.4h.2zm.3 0h1.3l.6-.2h.7l1.8-.2 1.3-.3h.7l.5.2.5.6.5.9-.4.5-1 .7-.7.3-.8.2h-.8l-.8-.4-1-.5-.5-.4-1.1-.6-.4-.3-.3-.2zm6.8 4.5l1.2-.8 1-.5h.6l.5.2.4.2.6.2-.3.3-.7.4-1 .1h-1zm4.4-2.7l1.2-.4 1.3-.5.7-.5 1.1-.4 2-.6.9-.1h.6l1.8.2 1 .2 1.3.5.6.1.1.4.4 1.3-.2.6-.6.7-.3.4-.5.3h-.5l-.4-.3-.6-.2H10l-1 .4h-.7l-.6-.5-1.8-.4-1.9-.6-.2.1-.4.1h-.6l-.7-.1-1-.5zm2.1 1.2h1.4l1 .5h.4l-.8-.4.7.1 1 .4.4.2H6l-.6.2h-.6l-1-.6zm2.8 2H8l.6.6H7.3l-.8-.2zm8-4.7h.3v.6l.3.1.2.3v.4l-.2.2H14l-.2-.4v-.8zm.4.1l.2.1.3.2.4.3v.6l-.5.1v-.6l-.3-.2zm0 4.1l.5-.3h.1l-.1.3zm1-4.5v-.1h.6l.3-.2h.3l.2.3.3.2v.3l-.4.4h-.2v.1H16l-.3-.1-.1-.1v-.1l-.2-.1-.1-.2-.1-.3-.2-.1zM346 77.1l1.2.9 1.1.9.7.4.3.2.3.3.4.2.2.1.8.3 1.6.6h.4l.3.2h1.2v.2h.7v.1h6.6l.2-.3h1.4v-.1h1.2l.9.2h1.2l.5.2h1.6l.7.2.2.1.8.2.4.3.4.3h.1l.2.3h.3l.2.1h.2l.2.3h1.2l.8.4h.3l.4.2.8.1h.2l.3.3h.5l.3.2h1.6l.3.2h1.2l.4.1.4.2h2.8l.4-.3h.4l.2-.2h.2l.1-.1h.3l.2-.3.2-.1.5-.1h.8l.4-.1.2-.2.3-.3.3-.3.2-.3.4-.6.6-1.3.3-.5.5-.5h.9l.2-.2 1.8-.5 2.3-.4 2.3-.1 1.4-.2h1.4l1.5-.2h1.5l1.8.4h2.3l.9.2h.5v-.2l.7-.4.5-.2.3-2h-.8l-.6-.3-2.5-.2-2.4-.4h-.7l-.8-.1h-1.6l-2.1.2h-.8l-.5.2-.2.1h-1.3l-.2.4v-.3h-.3l-.1.2-.1-.2-1 .1h-.6l-.4.3H392l-1.1.6-.9.3-.6.5-.7.5-.2.4-.4 1.1-.5 1-.6.6-.6.7-.8.3-.8.2-1.6.2-1.2-.2-2.3-.5-2.6-.7-1.3-.4-1.4-.2-1-.4-.7-.3-1.1-.3-1.2-.6-1.1-.5-2.6-.8h-.7l-1.5.1-1.1.1h-1.5l-.9.3h-1.3l-1.7.2h-.3l-.1.2h-.2v-.1h-.7l-.1.2h-.2l-.1.1h-1.8l-1.3-.4-1.4-.4-1-.4-.9-.7-.7-.7-1.7-.9-.4-.2zm13 2l.4-.1 1.2-.4h.6l.3-.2h.9v.3l.1.1-.2.2h-.5l-.4.3h-1.9zm4.5-.1l.3-.2.5-.2.6-.1h1.3l.5.2.6.5-.4.2h-.3l-1 .2h-.2l-.4-.3h-.6v-.1h-.4zm14.4 3.8h.2l.7-.2.3.2.3.2v.2h-.7l-.3-.2zm22.6-6.5h.2l.7-.3h.9l.4.2-.3.3h-1.7v-.3h-.2zm4.5 1.5h4.5v.4l-.2.2-.4.1h-.5l-.5-.2-.9-.2h-.5zm5.5.2l2.5.2 1.6-.2 1.7.2.4.2 2.8-.7 1.5-.2h2.3l1.9.2h2.3l3 .3h1.1l1.4.6.9.2h1.4l2-.5 2-.3 2-.8 1.1-.7.4-.3.2-.4.4-.3.2-.1.3-.2.3-.7.6-.5.7-.6 1.3-.4 1.7-.4h7.9l1.4-.6 3.2-.5.8.1 1.1.2h1.1l1.7-.3 1.3-.2 1.2-.3 1-.7.7-.8v-.2l1.4-.4.5-.5 1.2-.2.7-.5 1.3-1.2 1.2-1 .4-.3.8-.7-2-3.3-.8.5-2.1 1.3-1.5.7v.6l-.7.2-.3.5-.6.2-.9 1-.5.3-.3.8v.1l-.4.8.2.4v.3l-.2.5-.5.2h-1.2l-.6-.3h-.4l-.6-.3-.2-.4-.5-.2-1.3-.4-1-.2h-.6l-.4.3-1 .2-1.3.1h-1.5l-.5-.2h-3.4l-.6.4-.9.4-.8.7-.5.6-.7.2-1.3.1-.6.4-.9.1-.5.3-.3.3-.1.3-.5.4-.9.6-1 .7-1 1-.7.5-1 .3h-2.7l-.3-.2-.5-.2-.2-.2-1.8-.4-2-.2-1.1-.1-.7.2-1.8.2h-6.1l-2.9.4-1.9.4h-1.4l-1.8-.2-1.4.2-1.2.3-1.4.3zm12.2-2h3.6l.3.3-1.6.2-1-.3zm6.5 0l.8-.2 1.3-.2h2.3l.8.3.6.5.3.6h-.3l-1 .2-1.3-.2-1.4-.6-1.1-.1zm21.3-6l.5-.6.8-.4.5-.1h.3v.4l-.3.1-.7.2zm.5 1l1-.4 1.3-.8.5-.3h3.2l.5.3.4.2.4.2-.4.3-.5.5-.8.2-1.1.2H454l-3-.1zm20.1-3.4v-.4l.8-.6.9-.7.9-.3h.7l.6-.2-.6.5-.7.4-1.1.5zm-368.8 60.6l.8 2.6h.3l.2-.2.6-.2.7-.4.6-.2.7-.3 1-.5.5-.4.3-.1.2-.1.4-.4h.5l.5-.6.6-.4.1-.3.2-.2.1-.2.2-.3h.2l.4-.4.2-.3.2-.2.2-.3.4-.3.2-.3.2-.2.1-.2.1-.2.2-.2.1-.4.1-.2v-.3l.1-.3.3-.2.2-.2v-.3l.3-.5.1-.2.3-.4.2-.4v-.4h.1l.2-.6.1-.5.2-.4.1-.4.2-.4v-.4l.4-.6.2-.6.2-.5.4-.6.5-.6.4-.8.4-.6.7-.6.4-.6.6-.8.7-.8.8-.8 1-1 1.3-1 .9-.8.5-.4.1-.2.7-.5.8-.6 1.1-.8 1.2-.7 1-.6.9-.5.8-.7.5-.5.7-.5.4-.4.7-.4.8-.5h.3l.6-.5.6-.2.6-.4.5-.3.5-.2.6-.2.4-.3v-.1l-1.2-2.7h-.2l-.4.3-.3.1-.3.1h-.2l-.4.4h-.4l-.4.2-.6.2-.6.2-.6.3-.4.2-.3.2-.3.2-.5.3-.2.2h-.3l-.1.3h-.2l-.3.2-.3.3-.3.2-.2.1-.6.4-.4.3-.3.2-.4.3-.3.2-.2.2-.3.1-.5.6-.5.3-.3.2-1 .8-.3.4-.6.4-.5.6-.4.2h-.1l-.3.3-.3.4-.3.3-.3.4-.1.4-.5.3-.3.4-.5.4-.5.4-.8.5-.7.5-.6.6-.5.4-.6.6-.8.9-.4.7-.8.7-.5.8-.1.3-.1.3-.2.4v.4l-.1.2v.9l-.2.1v.5l-.2.3v.9l-.3.1v.4l-.2.2v.4l-.2.5-.1.3-.1.1-.2.3-.5.5v.1l-.2.2-.5.4-.4.3-.3.2h-.2l-.2.3-.2.1-.2.1-.2.2-.4.3-.2.3-.3.2-.7.7-.5.3-.5.4v.2l-.3.2-.3.2-.2.2-.2.1v.2l-.5.3-.1.1-.4.3-.1.1-.4.4-.2.2-.2.3-.3.2-.3.3-.2.3-.2.3-.1.3-.1.2v.1l-.3.1-.2.2zm4.3-.4l.2-.4.1-.1.3-.2.3-.3.2-.2h.2l.3.1v.3l-.4.2v.2l-.4.2h-.4l-.3.3zm1.7-.8v-.7l.2-.4.5-.2.4-.3.4-.4.3-.1.2-.1v.2l.1.4v.1l-.2.3-.2.2-.5.3-.5.2v.3h-.4l-.1.2zm3-2.7v-.3l.3-.1v-.2h.3v-.1h.3v.3l-.2.1-.3.2v-.2.3l-.2.1-.1.2zm12.7-19.6v-.2l.2-.1.1-.1h.2l.1-.3v.4l-.3.2-.3.3zM252.8 52l.6 1.4V55h3.1l.4.1h.4l.7.3h.7l.3.1.7.1.5.2.5.2.4.3.3.1.6.2.4.1.7.3.6.2.7.3.6.2.6.3.7.3.5.2 1 .3.5.2.9.2.6.2h.6l.5.3.5.1.7.1.4.1.6.1h.3l.2.3v-.2h.4v.1h.8l.3.1.5.2h.4l.3.2h.3l.4.2h.7l.6.3h.9l.2.1h1.1l.2.1h1.1l.2.2h.5l.2.1h.7l.3.1h.6l.3.1h1.2l.4.2.8.1.7.1h.5l.5.2h1l.3.1h.3l.3.1h.5l.4.2h.5l.4.2h.2l.1.1h.3v.1h.2v.1l.2.1v.1l.1.1.3.2.1.1.2.1.2.2.1.2.2.1v.3l.4.4v.1l.3.2h.2l.2.3h.2l.4.2h.7l.3.3h1.1l.3.2h.3l.2.1.3.2h.3l.2.3.2.2.3.3h.1l.1.4.1.2v.3l.2.3h2v-1.7l-.3-.5-.2-.5-.3-.4-.4-.4-.5-.3-.8-.7-.5-.5-.8-.4-.4-.3-.8-.5-.6-.4-.5-.2h-.2V62h-.3l-.1-.2-.1-.1v-.2l-.2-.1v-.2h-.3v-.9l.3-.3 1-1.8h-.5l-.3.6-.6 1-.1.2-.3.2-.2.2-.3.3-.2.2-.5.1v.1l-.3.1h-.9V61h-.3l-.3-.1-.2-.1-.3-.2-.4-.2h-.3l-.2-.3h-.4l-.4-.1h-.5l-.5-.3h-1l-.4-.2h-2.8l-.5-.4h-.8l-.3-.1h-.6l-.5-.2h-.8l-.6-.1-.6-.1-.5-.1-.9-.1-.5-.1-.6-.1h-.4l-.5-.2h-.9l-.4-.3h-1.1l-.3-.1-.6-.1h-.4l-.4-.1-.5-.1-.6-.1-.3-.2h-.2l-.3-.1-.1-.1-.6-.1-.4-.3-.6-.2h-.1l-.4-.2h-.7l-.1-.2-.3-.2h-.3l-.1-.3h-.4l-.5-.4-.3-.2-.4-.3-.3-.2-.4-.2-.4-.3-.8-.4-.4-.2-.4-.1-.4-.2-.5-.3-.4-.1-.4-.2-.5-.2-.7-.1h-.7l-.6-.3h-.7l-.6-.1H254l-.8.3zm41 9.3v-.1h.2v-.1h.2l.1-.1h.2v.2h-.3v.4h-.2v-.3h.3v-.2h-.3v.4h-.2zm.6-.1V61h.2v.3zm0 .3v-.2h.2v-.2h.1l.1-.1h-.3.3v-.2h.1v-.1.3h.1v-.5l.2-.2h.1l.2-.2V60h.1l.1-.2v.6l-.3.2v.6h-.1v.6h-.7v-.3l.3-.1v-.1h.1v-.2.2h-.4v.3l-.1.1-.1.1zm.3 2.2h.1l.2.1.4.2h.6l.2.2h.2l.2.1h.2v.3h.2l.1.1h.1v.3h-.8l-.4-.2-.3-.1-.2-.2-.3-.2-.2-.3-.2-.1zm.7-2v-.2.3zm.2.1v-.2h.2v-.1h.1v.4h-.3zm.2-2v-.3l.2-.1v-.2h.2V59h.1v.3h-.3v.4h-.2l-.1.1zm0 1.6v-.1h.2v.6-.3l-.2-.1zm0 .1"/><path d="M300.9 71.8v1.3l.3 1.5.4 2.2.4 1.2v.7l.3.6v.2l.1.2v.3l.3.2v.1l.1.2v.2l.2.2.2.4.2.3.1.2.4.4.2.2v.2l.5.1v.2h.2l.2.2.5.1.5.2h.5l.5.3h2.2l.2.1h.6l.6.2 1.4.6h.7l.3.1 1.3.4 1.3.3.8.1h2.2l.4-.2.4-.1.4-.2.5-.1.5-.2.2-.2.6-.3.3-.2.1-.3.2-.2v-.3l.2-.3.7-1.2.5-1v-.2l.2-.1v-.2l.2-.2.2-.4.4-.6.8-.8.6-.5.4-.3.3-.1.3-.3.2-.2h.2l.3-.2h.3l.2-.2.8-.1.7-.3h.6v-.2h.4l.4-.1h.5l.2-.2h1l1.3-.2h.7l1 .4h4.7l1.3.1 1.4.2 1.4.6.8.2.6.3 1.1-2.1-1.5-.8-1.6-.7-1-.3-.9-.1h-.8l-.7.1-1.8.2-1.9.1-.9-.1-.7-.1-1-.4-.6-.2h-4.5v.2h-2.1v.1h-.8v.2h-.3v.1h-.3l-.1.1-.4.2h-.4v.2h-.2v.1h-.1l-.3.2-.1.2-.2.1h-.1v.2l-.3.1v.1l-.5.7-.2.3-.2.5-.2 1.1-.4.9v1.2l-.1.9-.4 1.1-.2.5-.3.7-.3.5-.4.1-.6.3h-2l-1.8-.2-1.2-.4-2.7-.7-1.2-.3-1.2-.3-.6-.2-.6-.5-.6-.4-2.3-2-.4-.2-.1-.3-.3-.3-.4-.3-.6-1.2V76h-.2v-.2l-.2-.2-.1-.8v-.2l-.2-.2v-.6l-.2-.1v-.5l-.1-.1V71h.3v-1.9h-2l.2.9v.6l-.2.8zm2.5 6.4v.2h.2l.1.1h.2v.2l.5.3h.1l.1.2h.1l.1.3.5.2v.1l.2.2h.1l.2.3.2.2v.2h-.4v-.3h-.2v-.1h-.2v-.1h-.2V80l-.2-.1-.3-.1v-.2l-.2-.1-.1-.2v-.1l-.2-.2h-.1v-.3l-.2-.1v-.1h-.2v-.1zm.1.5l.2.3h.2v.2l.1.2v.1h.2v.1h-.4v-.4l-.1-.1V79h-.1v-.2zm.7.8h.1l.2.1v.1l.3.1v.2h.1l.1.2h.1l.1.2h.4v.3h.5l-.2-.3v-.1l-.2-.3.3.3.1.1.1.2.2.1.1.3h.2v.1h-.4l-.2-.1-.4-.1h-.2l-.3-.3v-.1h-.2l-.2-.3h-.2l-.2-.2-.3-.3v-.1zm19-3.6v-.2l.2-.3.2-.3.4-.3.4-.5.4-.1v.1l-.3.3-.2.4-.5.5-.3.3zm2-.7l.1-.4.3-.2.2-.2.2-.2.3-.2.3-.2.4-.1h1v.3h-.3l-.5.3-.5.1h-.3.3v.2l-1.2.5zm-165-3.6v.2h.3v.1h.3l.2.1h.6v.2h.4l.1.1h.7v.1h3.1l.2-.3h.2l.1-.1h.4l.1-.1h.2l.1-.2h.2l.1-.2h.4l.1-.2.3-.1.7-.3.6-.4.4-.3.1-.2h.1l.3-.2h.1l.6-.5.6-.5.5-.5.6-.7.6-.5.5-.6.6-.7h.1l.2-.3h.1v-.2h.3v-.2l.2-.1.2-.2v-.2l.3-.1v-.3l.3-.2v-.2l.1-.1v-.2h.2v-.1h.1v-.1l.1-.1v-.1h.1V63h.1v-.3l.2-.1.1-.1v-.2h.1v-.1h.1v-.1l.1-.1.1-.2v-.1h.2v-.3l.1-.4.2-.3.1-.1v-.3l.3-.1v-.5h.2v-.2l.2-.4.2-.6.2-.3.2-.4.1-.1v-.1l.2-.2.1-.2V57l.2-.1.1-.4h.1l.2-.2.1-.1.1-.2h.2l.2-.2.1-.1v-.2h.3v-.1l.2-.3h.2l.2-.1v-.2h.4v-.1h.2l.2-.2h1.1l.1.2h.3l.3.1h.2v.1h.7v.1h.4l.3.2.2.2.1.1h.1v.4h.1v.4h.1v.2l.2.2v.1h.1v.1l.2.1v.2l.2.1v.1l.1.2.2.1.2.1v.2l.3.1v.2h.2l.1.1.2.1.3.3.1.1h.1v.1h.2v.2h.1v.1l.2.2.2.2h.2v.1l.2.2h.3v.2h.4l.2.1.3.1h.4l.2.1h.8l.4-.2.6-.1h.2l.3-.2.6-.3.4-.3.5-.3.4-.4.5-.4.4-.5-1.5-1.5-.2.2h-.2v.1h-.2v.1h-.2v.2l-.4.2V57h-.1l-.1.2h-.2l-.3.3h-.6l-.1.2h-.4l-.3.1H191v-.3h-.1l-.2-.1h-.2v-.1h-.2v-.1h-.1l-.2-.2h-.2v-.2l-.3-.1-.1-.1-.3-.4-.3-.2-.3-.5v-.2l-.3-.2-.1-.4-.1-.3-.3-.4-.2-.3-.2-.3v-.1l-.3-.1V53h-.3l-.1-.2-.1-.1h-.1v-.1h-.2v-.1h-.2l-.2-.1h-.1l-.2-.1-.2-.1h-.3l-.2-.2h-.3l-.1-.1h-.4l-.3-.2h-.6l-.3.3h-.6l-.2.2h-.2l-.3.1-.3.1h-.1l-.1.2h-.1l-.3.2h-.3l-.1.2-.2.1h-.3v.2h-.1l-.1.3h-.2v.2h-.3v.2h-.2l-.2.2-.3.2-.2.2h-.1l-.1.2-.2.1-.1.1-.2.2-.2.1-.1.2-.1.2-.2.2-.2.3v.1l-.1.2-.2.3-.1.1v.1l-.2.1v.4l-.2.1v.1l-.1.3h-.1l-.2.4v.1l-.1.3-.1.2h-.2l-.1.4v.2l-.2.2v.1l-.1.1v.1l-.2.1v.2h-.1v.3h-.1v.1h-.1v.2h-.1v.1l-.2.2v.1l-.1.1v.1l-.2.1v.2l-.1.1v.1l-.1.1-.1.1v.2h-.2v.3h-.1l-.1.2-.3.2-.1.2-.1.3-.3.1-.2.2v.2l-.3.2-.1.2-.3.2v.1l-.1.1-.2.2-.1.1-.1.1-.1.1h-.1v.2h-.2v.2h-.2v.1l-.4.2-.3.3-.3.3h-.2v.2h-.2l-.1.2-.1.2h-.2v.1h-.1v.1h-.1v.2h-.2v.2h-.1l-.7.3-.7.4-.3.1-.5.2h-.4l-.6.3h-2l-.4-.1h-.5l-.5-.2h-.6zm12.6-6.5l.2-.1v-.4h.3l.1.2-.2.2h-.3v.2zM33.5 133h.2l.3.3h.7l.3-.3h3.3l.5.3h.4l.8.2h2.3l.8.3h.3l.1.2.5.4.2.2.3.1.2.1h.3l.4.2h.4l.5.2h.5l.5.1.4.2.3.1.4.4.2.2.2.2.4.3v.1l.2.2v.8l.1.1.2.3.4.4.1.1h.1l.4.3.3.1h.8l.5.3h.1l.2.1h.9l.2-.2.3-.3h.2l.2-.2.2-.2.4-.4.3-.3.2-.2.5-.3.2-.2.4-.3.4-.1v-.2l.4-.1.3-.2.2-.2.2-.1.1-.2.2-.1.3-.2.2-.1.1-.2.3-.1h.1l.3-.4.3-.2.3-.2.2-.3.6-.3.2-.2.3-.2.2-.3h.3l.2-.2.2-.2.5-.2.3-.1h.1l.6-1.8h-1l-.9.2-.2.2-.2.1h-.8l-.2.2h-.3l-.5.4-.3.1-.1.1-.3.2-.2.3-.5.2-.3.1-.2.1h-.3l-.2.3H57l-.2.1-.3.1h-.3l-.3.2H55l-.2.2h-1.2l-.1-.2-.3-.2H53l-.3-.4-.4-.2h-.2l-.5-.4h-.3l-.3-.2-.4-.2-.3-.1-.3-.2-.4-.5h-.4l-.7-.3-.3-.2-.4-.1-.6-.2-.4-.2-.4-.2-.4-.1-.6-.2-.3-.2-.6-.3-.5-.4-.4-.3-.3-.3-.4-.2-.5-.2-.6-.1h-1l-.6.1-.6.1-.8.3-.8.1-.8.1-.6.2-.8.1h-2.1zm11 .8h.4l.4.2h.4l.5.3h-.5l-.3-.1h-.2zm3.1.6h.4l.2.3h.2l.3.1.3.2h.4l.3.1.5.2h.6l.4.2.4.1.2.1h.5v.3h-.7l-.4-.2h-.5l-.5-.3h-.5l-.5-.3-.5-.2h-.4zm1.1 1.5l.5.1.5.2.6.2.4.1.3.1.3.1.5.2h.2l-.4-.3h-.2.9l.4.4h1.5l.1.1h-.1l-.4.2h1.5v.1l-.3.2-.3.3-.3.4-.5.4-.2.3h-.3l-.1.1H53l-.2.2h-.3l-.3-.3h-.4l-.6-.3-.5-.1-.3-.2-.4-.2v-.4l-.4-.2v-.8l-.1-.3-.3-.2-.4-.3zm0 0"/><path d="M63.4 132.3h.3l.2.1.3.2v.2l.1.2.2.2.2.2.2.2.2.2.3.1.4.1h.2l.2.2h.3l.4-.2.5-.2h.2l.2-.3h.2v-.1h.2-.2v-.1l.5-.4.1-.4.4-.3.2-.4.3-.4.3-.6.3-.4.2-.4.2-.3.1-.3.2-.3.2-.1.2-.2.5-.4.3-.2.7-.2h1l.6-.2h.7l.6-.2H79l.4.3h.4l.6.1h.3l.4.3h.5l.1.1h.3l.6.2.6.1.5.1.6.1h.3l.1.3h.3l5-4.9-.2-.3-.2-.4-.3-.4-.2-.2-.1-.6-.3-.3-.2-.2-.1-.2-.4-.3-.1-.1-.2-.2-.3-.1-.5-.2-.4-.2-.6-.2h-.4l-.5-.3h-1.3l-.4.2h-.5l-.2.1-.2-.1h-.1v-.7.7l-.3.1h-.4l-.3-.2H81l-.2-.2h-.7l-.2-.2h-.2l-.3-.1H79l-.4.3H78l-.5-.2-.3-.1h-.4l-.2-.2h-2l-.6.4h-.7v.1H73l-.1.2v.1h-.7l-.1.2-.2.3-.2.1h-.1l-.2.3-.4.2v.2h-.1l-.1.3h-.1v.2h-.3v.2h-.2l-.1.3-.3.1-.1.3h-.2v.2l-.1.1-.2.2-.2.3v.2h-.3v.2l-.2.1v.7l-.2.3v.9l.2.1v.2h.2v1.1l-.2.4v1.1h.2l.1.2v.2h-.2l-.1.2v.1h-.1v.1h-.1v.3H68h.4v-.2h-.8v.2h-2l-.3.2-.3.1h-.3v.1h-.9zm2 0l.3.3h.5v.3h-.5l-.1-.3-.2-.1zm3.7-5.3v-.6l.3-.6v-.8l.3-.2.3-.3.1-.2.2-.3.7-.6.1-.2.2-.2.2-.2.2-.1.3-.3.5-.2.3-.2h.2l.4-.2h.3l.2-.2h.1l.2-.1.2-.1h.6l.2.2h.2l.2.2h.2l-.3.2-.5.1-.5.2-.5.1-.5.2-.4.1-.1.3-.4.2-.2.2-.2.4v.2l-.2.2v.2l-.2.2h-.4l-.3.2h-.7l-.2.2v.1l-.2.3-.1.2v.4l-.1.2v.3l-.2.2-.1.3h-.1l-.1.1zm1-.6v-1.1l.3-.1.1-.1.1-.1h1.1l.2-.3h.1v-.1l.4-.2v-.2l.1-.2v-.3l.1-.1.2-.2v-.1l.4-.3.5-.2.8-.3.5-.1.5-.1.5-.2.4-.1h.6l.4.2h.2v.1l.3.2.1.1.2.2h.1l.2.4.1.1v.2h-.1l-.2.3h-.2l-.2.2h-.4l-.3.3h-.3l-.4.3h-.2l-.1.2h-.7l-.7.2h-.6l-.5.1h-.4l-.3.2h-.1l-.1-.1h-.1l-.3.1-.3.1-.3.2-.4.1-.4.3-.4.2h-.4zm2.2-4.4l.3-.3.4-.3h.2l.4-.1h.6v.2h-.3l-.2.3h-.6l-.3.1-.2.1h-.2zm1.7-.8h.5l.4-.2H76v.3h-1.8l-.1-.2zm1.7.3l.5-.1.2-.1h.3v.2l-.3.1h-.3l-.1.2h-.2zm1.1.5h1.5l.4.1.4.1H81l.2.2h.6l.2.1.1.2v.2h-.4l-.2.3-.5.1-.5.1h-1.7l-.1-.4h-.2l-.2-.3-.3-.2v-.1l-.3-.2-.2-.1h-.3l-.2-.3zm.5-.4h.2l.3-.3h.2l.3-.1H81l.3.3h.2v.4l-.4.1H79l-.6-.2H78l-.3-.3zm.5 2.9l.4-.3h.4l.4-.2h1l-.5.3H79l-.2.1h-.1l-.3.1H78zm1.1 1.1l.5-.1.3-.1h.5l.5-.2h.5l.5.5h.7l.3.1.2.2v.3H82l-.3-.1-.4-.2h-1l-.4-.2h-.4l-.3-.1zm1.7.7h.5l.3.2h.3l.3.2h.3l.3.2h.4v.1h-.8l-.4-.2-.4-.1-.4-.2h-.2zm0-2.3h.4l.5-.4h.2l.4-.2h.3l.4-.2h.2l.8.4.4.2.4.2.2.2.2.3.4.2.1.3v.2h-.4l-.3.2h-.2l-.2-.3-.4-.1h-.2l-.2-.1h-.2l-.6-.4-.8-.1-.4-.2H81l-.2-.2zm1.1-2v-.8h.3l.3.3v.6h-.7zm.5.3l.2-.1.1-.2.3-.2h1.6l.4.2h.4l.3.2.5.1.4.3.4.3.3.3.4.3.2.5.3.2v.2l-.5.2h-.6l-.6-.3-.4-.3-.5-.2-.6-.5-.4-.2-.2-.1-.2-.1-.3-.2h-1l-.3-.4zm.8 4.1v-.2l.2-.2h.3l.5.3v.1l.4.1.5.2.1.1-.3.2h-1.4v-.1l-.3-.1v-.2h.2l.2.1v-.1l-.4-.1zm-67.6 10.5l.6.1.4.3.4.4.5.5.4.5.2.4.2.4.2.4.2.6.1.2.1.3.3.5v.4l.6 1.4.2.7.3.5.2.5.3 1 .4.8.2.4v.2l.3.2.1.3v.2l.2.3.2.3v.3l.3.2v.2h.1v.3h.2v.1h.1v.2l.1.1.3.4.3.3.5.7.1.1v.1l.3.3v.1l.3.1.4.3.2.2.4.3h.9l.2.4.4.2h.2l.2.3h.5l.6.2.6.1.5.1.4.1.3.2.6.2.5.3.6.2.5.3.4.1.4.3 1 .8.3.5.7.5.8.5.3.3.5.3v.3l.3.3.1.5.2.4.1.9.3.9v2l-.4.8v1.9l.4 1.1v1l.2 1.3v2.1l.1 1v.9l.4.7.2.8.6.5 1.3.5 1.2.6 1.4 1 1 .7.6 1.1.6.9.6 1.7.8 1.4.4 1.2.2 1 .6 1.7 1 1.4.9 1 .8.5 1.1.6.6.2.9.7.7.5 1.2.6.6.6 1.5.7 1.3.8 1.2.3 1.4.3h3l2.6-.7 2.2-.6h2.5l1.5-.2h.2v-1.1h-1l-.9-.2h-.7l-.8.4-1.5.5-1.3.3-1.1.2-1.7.4-1.7.3-1.7-.1-1.5-.5-1.2-.5-.8-.5-.8-.4v-.2h-.2l-.2-.1-.3-.3h-.3v-.3h-.3l-.1-.1-.8-.4-.4-.3H54l-.3-.2-.6-.5-.5-.3-1.1-.5-.6-.4-1-.7-.6-1-.5-1-.5-1.9-.5-1.5-.4-.9-.5-.9-.5-1.1-.4-1-.8-1.1-1-1.1-.8-.5-1.4-1-1.6-.5-.4-.4-.6-.5-.3-.5-.1-.8v-1l-.2-.6v-3.8l-.1-.8-.1-1.1v-1.5l.1-.8v-2.2l-.3-1.2v-.8l-.2-.8-.1-.2-1.3-1.1-.8-.4-.3-.5-.3-.4-.2-.3-.2-.1-.2-.3h-.1v-.1h-.3l-.3-.3-.2-.3h-.3l-.3-.2h-.5l-.1-.1h-.2l-.3-.3H32v-.1h-.3l-.4-.3-.4-.3h-.2v-.2l-.5-.3h-.1l-.1-.2-1-.4v-.1l-.2-.1h-.2l-.2-.3H28l-.2-.1h-.7l-.1.3h-.2l-.1.2H26l-.4-.5-1-1-1-1.4-.6-.6v-.3l-.6-1-.3-.7-.5-1.2-.3-1-.5-1.8-.5-1-.6-1.7-.3-1-.3-1.1-.4-1-.1-.5-.3-.2-.7-.8-.3-.7v-.6zM27 153h1l.3.2h.3l.2.3h.2l.3.3h.2v.2h.2-.7l-.3-.1-.3-.1-.3-.2-.4-.1-.2-.1-.2-.2H27zm43 41.4l.4-.1.1-.1h.2l.1-.2h.9v.4h-.3l-.1.1h-1.2zM226.2 59.5l.2.1.2.2.4.2.2.3.2.2.3.3.3.4.2.2.4.2.3.4h.3l.4.2.4.5.3.1.1.2.2.1.2.2.4.1.2.1.3.1h.2l.1.3h.4l.4.1h2.9l.3-.3h.4l.4-.3.4-.1.8-.5.4-.2h.4l.2-.2h.2l.2.3h.2l-.3-.3.4-.4v.2h.3V62l.6-.3.4-.3.3-.2.4-.4v-.1l.3-.3.3-.2.4-.2.3-.6.3-.2.4-.4.4-.3.5-.4.4-.1.8-.6.6-.2.6-.2.8-.4 1-.4.7-.2 1-.4.5-.2 1-.2.6-.3h.7l.1-1.4-.6-1.5h-.4l-.4.2-.6.1-.6.2-.4.2-.4.2-.8.3-.8.4-1 .4-.4.2h-.5l-.5.3h-.6l-.4.1-.3.2-.6.2-.4.2-.5.1-.5.2-.5.2-.5.1-.3.2-.4.4-.4.3-.3.3-.3.5-.2.3-.2.4v.3l-.4.2v.3l-.3.3-.2.3-.3.2-.2.3h-.2l-.3.3-.4.1h-.3l-.4.3h-.4l-.4.2h-.5l-.2.3H234l-.5-.3h-.3l-.5-.3h-.7l-.3-.3-.4-.2h-.3l-.5-.2-.3-.2-.2-.1-.4-.3-.3-.4-.2-.2-.1-.2-.3-.2-.2-.2-.3-.3-.3-.2h-.2l-.2-.4zm0 0"/><path d="M226.2 59.5l.2.1.2.2.4.2.2.3.2.2.3.3.3.4.2.2.4.2.3.4h.3l.4.2.4.5.3.1.1.2.2.1.2.2.4.1.2.1.3.1h.2l.1.3h.4l.4.1h2.9l.3-.3h.4l.4-.3.4-.1.8-.5.4-.2h.4l.2-.2h.2l.2.3h.2l-.3-.3.4-.4v.2h.3V62l.6-.3.4-.3.3-.2.4-.4v-.1l.3-.3.3-.2.4-.2.3-.6.3-.2.4-.4.4-.3.5-.4.4-.1.8-.6.6-.2.6-.2.8-.4 1-.4.7-.2 1-.4.5-.2 1-.2.6-.3h.7l.1-1.4-.6-1.5h-.4l-.4.2-.6.1-.6.2-.4.2-.4.2-.8.3-.8.4-1 .4-.4.2h-.5l-.5.3h-.6l-.4.1-.3.2-.6.2-.4.2-.5.1-.5.2-.5.2-.5.1-.3.2-.4.4-.4.3-.3.3-.3.5-.2.3-.2.4v.3l-.4.2v.3l-.3.3-.2.3-.3.2-.2.3h-.2l-.3.3-.4.1h-.3l-.4.3h-.4l-.4.2h-.5l-.2.3H234l-.5-.3h-.3l-.5-.3h-.7l-.3-.3-.4-.2h-.3l-.5-.2-.3-.2-.2-.1-.4-.3-.3-.4-.2-.2-.1-.2-.3-.2-.2-.2-.3-.3-.3-.2h-.2l-.2-.4zm3.6 2.8h.4l.3.1.2.1.4.1.4.2.3.1h.3l.4.3h.5l.3.6v-.3h1.6l.3.2h.4l.1.1h-.6l-.3.2h-.8l-.5-.2-.4-.1h-.1l-.2.2h-.3l-.5-.3h.5l-.5-.2v-.1h-.5l-.3-.2-.2-.1-.3-.2-.2-.1-.2-.2-.2-.1zm11-3.9l.2-.3.1-.3.2-.3.2-.2.2-.2.3-.1h.6l-.3.5-.3.1-.3.2-.3.2-.3.3zm.1 0"/><path d="M196 56.3l1.5 1.5.3-.3.4-.4.2-.1.2-.4.2-.2v-.1l.2-.2V56h.3v-.3l.1-.1v-.1h.2v-.3h.1V55h.2v-.2h.1v-.2l.2-.1.2-.3.1-.1.1-.1v-.2h.2v-.3h.2v-.1l.2-.1v-.2h.2l.2-.1.1-.2.1-.1.1-.1.1-.2h.1v-.1h.1l.2-.1h.2V52h.4v-.2h.4v-.1h.2l.2-.1h2l.2.3h.2l.3.1h.1l.1.2v.1h.3v.1l.5.2h.1l.1.2h.3v.1h.3v.1h.3l.9.5.8.3.5.2.5.3.4.2.6.2.5.3.6.2.7.3.7.3.6.2 1 .5.4.2.5.3h.7l.5.5h.4l.3.2h.3l.2.2.5.1.5.1.3.1.5.1h1.1l.5.2.6.1h.5l.3.3h.5l.2.1.2.2h.3l.5.4 1.2-2.3-.3-.2-.3-.1-.3-.3-.6-.2-.3-.1-.6-.4h-.6l-.7-.1-.7-.1-.7-.1-1-.1-.8-.1-.8-.2-.7-.2-1-.1-.5-.4-.8-.3-.7-.4-1-.4-.7-.5-.6-.3-.4-.1-.5-.4-.4-.2-.8-.5-.6-.3-1-.4-1-.4h-.4l-.6-.2-.6-.1-.4-.1h-.5l-.7-.1H203l-.4.1-.3.1h-.6v-.4l.1-.1.2-.2v-.1l.3-.3h.1l.6-.3.4-.3.2-.1.4-.2h.3l.4-.3h.3v-.3h-.5l-.7.5h-.4l-.2.2-.1.2-.3.2h-.3l-.1.2-.2.2h-.2l-.3.1-.1.2h-.1l-.1.2v.5l.4.2h-.2v.2h-.4v.2h-.2l-.2.3-.3.4-.2.1-.3.2-.2.2v.2h-.3v.3h-.1v.1l-.1.1v.1h-.1l-.2.2v.2h-.1v.2h-.2v.2l-.2.1h-.1v.3h-.1l-.2.2-.1.2v.2l-.2.2-.1.1v.1l-.4.2-.3.4v.2h-.3v.2l-.1.2h-.3l-.1.3zM85 129.2l.6.2h.2l.2.3h.4v.2l.3.1v.1h.2v.2l.1.1.1.3.2.2.3.2.2.2.3.2.2.2.4.1.4.2.4.2h.2l.3.2h8.1l.3-.3.6-.1.7-.1h.5l.8-.2.5-.1.5-.1.6-.3.5-.4-.8-2.6h-.2l-.3.2h-1.2l-.2-.4h-.7l-.7-.4-.4-.2-.4-.2-.8-.6-.3-.2-.3-.2-.3-.2-.5-.4-.5-.4-.3-.1h-.3l-.3-.1-.4-.1h-.8l-.5.1-.4.1-.2.1-.4.1h-.3l-.2-.1-.2-.2h-.1l-.3-.2h-.2l-.3-.3-.3-.3zm1.8.4H88l.3.4h.3l.3.3.3.1h2l.2.2h.3l.1.1.4.1h.3l.3.2.4.2h.2l.1.3v.1h-.4v.3l-.1.1h-3.5.7-.7l-.1-.2h-.2l-.4-.2-.4-.2-.4-.3-.3-.1-.1-.2-.2-.1-.2-.3-.1-.4v-.2H87zm1.4-.2H90l.2.4h.3v.1l-.5.1h-.9l-.3-.2-.4-.2zm2.3.2h.2l.3.1h.3l.1.3h.2l.2.3h-.4v-.3H91l-.1-.1h-.2zm.3-.6h.8l.1.3h-.4l-.3-.1zm1 .6h.3l.4.2h.5l.4.2.2.1-.2.1h-.6l-.6-.3-.3-.2zm-.1-.5h1.1v.3h-.6zm.6-.9l.1-.2h2.9l.3.4v.3l-.2.1h-.7l-.3-.1-.4-.1h-.6l-.3-.2h-.6zm.6-.4v-.1l.5-.1.4-.1h.8l.2.3h.2l-.3.1h-1.6zm.3 1.2h.5l.3.2h-.7zm0 3v-.1h.1l.1-.3h1.2l.4.4h-1.7zm0-1.2h.5v.1h-.3zm.5-.4h.3v.2h.3l-.2.1H94l-.2-.3h-.2zm-.1-.7h1.7l.1.3h-1.2l-.3-.1-.2-.1zm1 1H96l.2.2v.2h-.7l-.1-.1h-.6l-.2-.2zm.4.5h.6-.2l-.1.1h-.1zm.5-1.4v-.1h.7l.3.1.2.2h.1v.3H96l-.5-.3v-.1zm1.1 1.4l.2-.2h.8l.1.2.1.1-.3.3h-.7v-.3zM137.8 94l1.3 2.7.3-.3.2-.4.4-.6.4-.4.5-.7.4-.4.4-.3.9-.7.8-.6 1.3-.7 1-.4.7-.5.9-.4.7-.2.6-.3.5-.5.7-.2.6-.3.4-.3.3-.2.3-.2.6-.1.5-.3.5-.3.5-.4.5-.6.5-.4.4-.6.2-.4-2.6-1.6-.3.2-.4.5-.4.4-.4.5-.5.3-1 .5-.7.3-1 .4-.5.2-.7.3-.9.2-.9.3-.8.5h-.8l-.7.4-.5.4h-.4l-.1.2v.2l-.8.4-.1.2-.3.2-.1.2v.1l-.2.1v.2l-.4.1v.3h-.2v.1l-.4.3v.1l-.2.1v.4h-.3v.3h-.1v.1h-.1v.1h-.1v.3l-.2.3v.5zm0 0"/><path d="M137.8 94l1.3 2.7.3-.3.2-.4.4-.6.4-.4.5-.7.4-.4.4-.3.9-.7.8-.6 1.3-.7 1-.4.7-.5.9-.4.7-.2.6-.3.5-.5.7-.2.6-.3.4-.3.3-.2.3-.2.6-.1.5-.3.5-.3.5-.4.5-.6.5-.4.4-.6.2-.4-2.6-1.6-.3.2-.4.5-.4.4-.4.5-.5.3-1 .5-.7.3-1 .4-.5.2-.7.3-.9.2-.9.3-.8.5h-.8l-.7.4-.5.4h-.4l-.1.2v.2l-.8.4-.1.2-.3.2-.1.2v.1l-.2.1v.2l-.4.1v.3h-.2v.1l-.4.3v.1l-.2.1v.4h-.3v.3h-.1v.1h-.1v.1h-.1v.3l-.2.3v.5zm9.2-4.8l.4-.2.2-.2v-.2h.4l.2-.3.3-.1.1-.1.2-.2.3-.1.1-.1h.2l.2-.1.4-.3.4-.2.4-.1.2-.2.2-.1.4-.2h.1l.1.1v.1l-.2.1-.2.2h-.2l-.2.1-.3.2-.3.1-.2.1-.3.1-.4.2-.2.2-.3.1-.6.3-.3.2-.5.3-.1.1-.3.1zm0 0"/><path d="M152.2 76.6v.6l.1.6v.2l.1.3.2.7.1.2v.1l.2.2.1.3.2.2v2l-.3.4-.2.4-.3.6 2.8 1.7.3-.4.1-.4.2-.3.2-.5.2-.4v-.3l.2-.5v-1.1l-.4-.5V80l-.3-.3v-.3l-.2-.4v-.4l-.2-.4v-.1l-.1-.2v-1.4l.2-.4v-.7l.3-.4v-.4l.2-.3v-.1l.1-.1V74l.3-.5h.1l.4-.5.2-.2.1-.1h.2v-.2l.3-.1.2-.2h.2V72h.4v-.3h.3l.1-.1h.7l.1-.2h.4v.3l.6-2.7h-.4l-.4-.1h-1.2v-.3l-.2.2v.2l-.4.2v.3h-.2v-.3h-.1l-.1.4h-.3v.1h-.5v.1h-.2l-.1.2h-.5v.2h-.3v.1h-.1l-.3.2-.5.4-.6.6-.5.6-.3.4-.4.7-.2.6-.4 1-.1.6zm257.6 192.8l.1.2.3.3.2.1.2.2.2.2h.1l.3.3h.2l.3.1h.4l.6.2h1.4l.4-.4.3-.1.1-.3.4-.2.1-.1h.8l.1.1h1.2l.3-.3h.1l.3-.3h.2l1-.7h.7v.9l.3.3v.5l.3.4v.5h.3l.4.6.3.1h.1l.2.6.2.3.1.1.2.3.2.1.7.4h.2l.6.5.2.1.6.6h.2l.2.2h.7l.3-.2.6-.2.3-.4.4-.3.6-.8.2-.1h.4l.1.1.4.3.2.4v.2l.2.2.2.3.2.3.1.3.2.2.2.2.2.3h1.1l.2-.1.3-.2.3-.4.5-.6.7-.4h.9l.3.2h.1l.8.1.5.4.3.4v.1l.5 1 .3.3.4.6.3.3.3.3.3.2.6.4.4.7.3.2.1.2.3.3v.3l.8 1.4v1.8l.5.7.5.7.1.4v.2l-.2.2h-.1l-.5.3-.3.3-.2.4v.6l.1.4.6.1h.5l.2.2.2.1.1.1.2.6v1l-.2.2v.5l.3.2.5.5.1.4.1.4.3.3.8 1 .4.3.8.4h.7l.4.2.3.2.4.6.7.6.8.6.4.2v.4l.5.2.7.4.4.1h.7v.3l.2.2v.6l-.3.4-.2.2-.2.3v2.6l.3 1.1.2.8.2.9.2.5v.6l.3.6.2.4.4 1.2.1.5.1.2.5.4.2.2.3.2.4.4v.2l.5.3.4.4h.6l.6.3h.3l.1.1v-.4h-.2l-.5-.2-.1-.1v-.4l-.4-.5-.1-.5-.2-.1h-1.5l-.3-.2-.2-.2-.1-.8-.2-.4-.2-.6-.2-.5-.2-.8-.3-.7-.1-.4-.1-.8-.2-.3-.1-.7-.2-1.3-.1-.8v-.5l.1-.4.2-.4.2-.3v-.4l.3-.1v-.9l-.4-.2-.1-.3h-1.1l-.4-.3-.6-.4-.8-1-.6-.7-.5-.5-.9-.6-.2-.7-.4-.2-.2-.3h-.7l-.2-.3v-.4l.1-.2v-.6h-.5l-.2.4-.3.3-.2.3-.3-.2-.3-.6v-.2l-.2-.3.3-.6v-.4l-.3-.3v-.7l-.2-.4v-.1h-.2l-.5-.6v-.1l-.3-.1h-.8v-.1l-.3-.1v-.2h-.2v-.3h.3l.2-.2.5-.2.5-.4v-.2l.2-.2v-1.3l-.5-.5-.4-.5-.3-.2v-1.4l-.4-.5-.1-.4-.3-.6v-.2l-.2-.3-.1-.2-.3-.4-.1-.3-.3-.3-.9-1-.7-.4-.9-2.3h-.3v-.3l-.4-.5-.3-.1h-.4l-1-.5h-1.1l-.5.2-.2.2-.3.1-.2.3v.1l-.5.6-.4.4-.3.3h-.8l-.2-.5h-.1l-.4-.6v-.1l-.3-.6v-.3l-.6-.4h-.2l-.3-.4h-.5l-.8.6-.6.8-.2.3-.4.3-.2.1h-.7l-.4-.2-.6-.9v-.8h-.1l-.4-.6-.1-.3-.2-.3-.2-.2-.3-.1-.4-.1h-.6l-.5.1h-.2l-.3-.3-.1-.2v-1l.1-.4v-.3l-.2-.3-.5-.4-.4-.2h-.6l-.2.2h-.3l-.8.3-.2.3-.3.1-.2.1-.3.2h-1.9l-.9.6-.2.2-.3.2h-2.4l-.3-.2-.3-.2-.9-1zm10.6 0h.1v.3-.1zm1.6 2.1h1l.6.2.4.5v.3l.3.4v.6l-1.5-.7-.1-.2-.4-.7zm12 2.7l.2-.4h.1l.1.2h-.1l-.1.3h-.2v-.3h-.2zm.7-.4h1l.6.2h.1l.1.4h-.1l-.5-.4h-.6l-.3-.2zm2 .2h.2v.3h.3v.2l-.2-.1-.2-.3zm.4.7l.2.2.5.9h.2v.4l-.4-.4-.2-.4-.2-.5zm4.9 8.6l.6.5.2.3.2.2v.3h-.2l-.2-.5-.1-.2-.5-.3v-.1zm1.6 5l.2.2v.8l.2.3v.8h-.3v-1.7zm1.2 3.7h.2l.3-.3.2-.4h.4v.4l-.1.1v.5l.2.3.3.1h.4l.3.2v.6h-.4l-.1-.3h-.3l-.2-.2h-.4l-.3-.2-.3-.4-.1-.2zm.8 1.1h.4l.1.3h.5v.1h-.4l-.4-.3h-.1zm2.4 1.2l.6.4.4.3v.2l-.6-.2-.2-.2zm4.9 11.4v-.3l.2.6.3.7.4 1.1v.5-.3l-.5-1-.3-.8zm2.1 3.7h1.2l.3.6v.2l.1.2v.2l-.6-.1-.2-.2-.3-.2-.5-.4zm-156.8-82.9l.2 1 .3.5.2.4.1.2.6.4.3.3.7.4 1 1.3v.5l.1.5.3.5.5.8.8 1 .8.4.5.3.7.1.4.2.4.4.4.6.5 1 .7.5.7.4.6.4.7.8.8.8.7 1 .8 1.5.9 1.6.7 1.5.6.5.7.6.8.5.9.3h2.3l.3.3.2.4v.6l.3.5v.5l.3.6.1.7.3.5.9.6 1 .8 1.7 1.2h1.4l.6-.5.6-.2h.6l.4.3.5.7.3.3.6.6 1 .7.6.2.9.2h.5l.4.1.6.3.5.3.5.6.8.3h.8l.5-.3.4-.2.5-.2h.6l.4.3.5.2.3.4.2.1.3.2.2.2h.1l.4.1h.5l.5.4h.5l.6.2.4.1h.5l.3-.1.4-.3.3-.4.6-.3.4-.4.3-.3.4-.3.3-.2h.5l.3.1.3.4.2.5.2.7.1.4.2.4.2.2.3.4.5.4h.5l.7.2h.6l.3.2.4.1h.6l.5.2h2l.6-.3h.4l.5-.2.3-.2.4-.2h.3l.5.2.3.3.3.1.3.4.3.2.3.2.3.1h.3l.2-.3h-.6l-.4-.6-.5-.4-.6-.4-.6-.1h-1l-.4.4-.6.1h-.9l-.4.2h-2.4l-.6-.3-.5-.2h-.5l-.6-.2-.4-.2-.3-.3-.4-.6v-.4l-.2-.8-.2-.5-.3-.3-.6-.4h-.5l-.6.2-.5.3-.3.3-.3.3-.3.2-.7.1-.5.1h-1.2l-.4-.1h-.3l-.5.2-.6-.2-.4-.4-.3-.3-.3-.3-.5-.1-.5-.1h-1.4l-.4.2-.4.2-.4.2h-.8l-.4-.3-.3-.3-.3-.2-.5-.3-.5-.2-.5-.3v-.3l-.3-.3v-.1l-.1-.2-.2-.2-.1-.1-.2-.1-.3-.2h-.1l-.2-.3h-.8l-.1.4h-.2v.2h-.3v.2h-.2l-.4-.6-.2-.1-.4-.5-.3-.4-.4-.3H326l-.4.4-.6.2h-.8l-.4-.1-.5-.4-.5-.4-.5-.5-.3-.4-.3-.6-.2-.4-.3-.4-.5-.3-.4-.5-.3-.9-.1-.6-.1-.4-.3-.2-.2-.3-.3-.1-.5-.2h-2l-.5-.1-.4-.1-.4-.2-.4-.4-.5-.6-.3-.5-.4-.7-.3-.8-.3-.3-.4-.9-.3-.4-.5-.7-.8-1.1-.4-.6-.1-.2-.6-.9-.4-.3-.8-.4-.7-.4-.4-.4-.4-.6-.3-.6-.4-.5-.4-.5-.6-.2-.4-.1-.5-.2-.6-.2-.3-.3-.7-.7-.3-.6-.1-.4-.4-.5-.2-.4-.2-.7-.1-.7-.4-.4-.3-.2-.7-.3-.3-.3-.3-.3-.4-.3-.3-.5-.3-.6V226l.4-.6.2-.4.1-.2v-1.3l-.2-.4-.2-.4v-.2l-.2-.1v-.1h-.3v.2l.1.3.4.3v.9l.3.4-.3.6-.3.5-.3.5zm22 23.7l.2.2.2.1v.2l.2.4.1.2.2.1v.2h.2l.1.1v.2l-.4-.2v-.2l-.3-.1-.3-.4v-.4zm.5.4l.3.1v.1h.2v.2l.1.1v.3l-.3-.2-.2-.2v-.1zm8.6 4.6l.3-.2v-.1l.2-.1.2-.1.2-.2h.3l.2.2h.1l.5.5h.2l.1.2.1.1.1.2v.5h-.9l-.3-.2h-.2l-.2-.2h-.2l-.3-.2-.2-.1zm9.2 2.2l.4.2.3.2-.3-.1zm2.8 1.6h.3l.6-.1h1.3v.4l-.2.1h-.2l-.1.2h-.8l-.4-.4zM73.4 194.7l.3.1.8.2.8.3h.7l.5.2h2.2l.3-.2.6-.3h.4l.7-.4.8-.2.9-.2.5-.2h.4l.4-.2h1.5l.1.2 1.7.5h.3l.4.2.3-.2h.9v.2l.4-.1H91l.6.3.3.2.7.1.1.1 1 .5h.3l.3.2h.2l.7.4.5.4v.2l.8.6v.2l.3.4v.2l.7 1.4v.5l.5.5v1l.3.9v.5l.1.3v.2l.1.1v.2l.2.2.2.5.3.2h1l.4-.1.3-.2h.1l.3-.3.3-.3.2-.3.6-.5v-.2l.2-.1.4-.6.4-.1.4-.2h.2l.6-.1h.7l1.1-.3h1.4l.5.3v-.9h-.4l-1-.2-3.4.2h-.2l-.3.4-.7.3v.3h-.3v.3l-.3.1-.2.2-.5.7-.4.5-.3.2-.4.1h-.4l-.5-.2-.1-.2-.1-.5v-.2l-.1-.5.1-.9v-.3l-.3-.8-.1-.7-.4-.5v-.4l-.2-.4-.4-1-.4-.8v-.3l-.5-.4-.5-.6-.6-.2-.6-.5-1.5-.7H93l-1.4-.2h-1.9l-.4-.1h-2.2l-.7-.3-2-.4v.1l-1.1.1-1.2.4h-1.5l-.5-.2h-.8v.2l-1 .2-.9.6-.7.2h-.4l-.7-.2-.5-.3-1.7-.3zm4 .3l1.6-.9h1l-.5.5-.5.2-.6.2h-.7zm14.8-.7h1l1.4.7h.3v.5l-.9-.3-1.1-.4zm3 .9l.7.3.8.7.1.6-.7-.5-.6-.6zm0 0"/><path d="M359.6 262.4h.4l.5-.2h.3l.4-.2.4-.2.4-.2.2-.2.4-.2.4-.1h.4l.6.1.5.1h1l.6-.3.3-.2.3-.2.3-.2.4-.1h1l.4.3.3.1.1.1.4.2.2.1.2.1.4.2.6.2h.2l.2.2.1.1.3.1h.2l.6.4.7.5.3.3.3.2.9.2.4.1h1.4l.4.1h.9l.6.4.7.6.5.2.6.1 1.2.1h1.4l.3-.2h.4l.4-.2.4-.3.6-.5h.6l.2-.3.2-.4h.3l.3-.3.4-.2v-.2l.5-.3.3-.3h.2l.2-.2.2-.2.5-.3h.4l.4-.3.3-.1.4-.1.4-.1.4-.1h1l.3-.2.5-.2.6-.2h.4l.3-.3h1.2l.4-.2.4-.2.2-.3.1-.4.2-.2.2-.2h.8l.4-.1.3-.3.5-.6.2-.2.2-.2h.2l.2-.2h1.2l.2-.1h.5l.8-.1h.3l.2.1.2.2.2.3.2.3v1.2l-.6 1v2.2l-.2.2v.7l.3.4.2.4.3.3.3.3h.3l.3.1 1 .2h2.1l.6-.3h.9l.1.1.2.4v.5l-.2.3-1 .9-.2.4v1.2l.3.2.3.4.3.3.1.3.3.1.2.2.3.1.2-.3-.4-.6-.2-.4-.7-.6-.2-.4v-.2l.1-.3.1-.1.3-.3.7-.5.3-.4v-.9l-.4-.4-.3-.4h-1.1l-.2.1-.9.2h-.9l-1.4-.1-.4-.2-.7-.4-.3-.3v-.2l-.2-.3v-.9l.3-.2v-.9l.2-.6.1-.5.1-.5.1-.4v-.4l.2-.5v-.5l-.5-.5-.3-.2-.5-.4h-.2l-1-.2h-1.2l-.3.1-.2.2-.3.1-.4.2h-.3l-.2.2v.2l-.2.3-.1.2-.6.6h-.4l-.5.2-.4.1-.3.4-.1.5h-.1l-.4.4H394l-.2.3h-.6l-.5.3-2 .2-1 .5-.7.2-.6.1-.4.2v.2l-.3.2-.4.4-.2.1h-.7l-.3.4-.3.5-.1.1-.1.2-.3.2-1.1.6h-.3l-.9.4-1 .1h-.6l-.7.2h-.5l-.2-.3-.5-.3-1.3-.7-.5-.8-.4-.3-.4-.2h-1l-.2.3-.4.3-.5.2h-.9l-.5-.5h-.1l-.3-.3-.3-.5-.1-.2-.2-.2h-.2l-.4-.5h-.1l-.4-.2-.1-.1h-.2l-.2-.1h-.3l-.1-.1-.7-.3h-1l-.5-.1H367l-.3.3h-.2l-.3.1-.2.2-.3.1-.7.4h-.8l-.7-.3h-.9l-.4.3-.4.2-.4.1-.4.2-.4.2-.6.2h-.4zm9.6-2.1h.4l.5.1.6.2h.5l.1.3v.1l.3.3v.2h-.5l-.5-.5h-.7l-.5-.5zm2.2.4h.2v.3h-.1v-.3zm0 .3l.3.1.6.3v.1l.3.2v.2h-.4l-.3-.4-.2-.1-.1-.2h-.1zm3.5 2.3h.2l.4-.3.3-.3.3-.2h.5l.2.4.2.1v.2h-.2l-.1.1-.2.1H375zm1.7-.9h.4l.2.1.1.2.1.1v.2h-.1l-.3-.4-.2-.1zm0 1h.4-.3zm5.9 1.6h.5zm3.6-2l.2-.5v-.1h.5l-.2.2h-.2l-.1.3zm14.2-7l.3-.2h.6-.3l-.1.2h-.3zm-292-54.2h1l1.1.2h.8l.8.2 1.2-.2h1.9l.6-.5h.9l.2-.4.3-.1v-.6l.4-.4 1-.2h1.5l1 .3 1.5-.2.5-.3.9-.6.6-.6.7-.3 1 .1h1.8l.7.4 1 1.2.5.4 1.1.2 1 .1 1-.2h1.4l1.1.3.8.4.7.6.4.5.6.4.2.3.2.5.2.4.5.6.4.3.6.4 1 .6 2 .6 1.2.5 1.4.2.5.2.7.4 1 .5h4.4l.6-.3.5-.7.5-.7.2-.3.2-.2h.7l.8.4.6.2h.6l.5-.3.5.2v-.7l-.9.3-.6.1h-.7l-.6-.5-.4-.1h-.4l-.2.2-.5.4-.7 1-.3.4-.5.2-.7.2-.7-.1-.8-.1h-1.9l-.6-.1-.7-.5-.5-.4-.5-.1-1.1-.1-.6-.2-1.1-.5-1.3-.2-.6-.3-.8-.4-1-.9-.2-.3-.1-.3v-.7l-.5-.3-.2-.3h-.4l-.6-.9h-.1l-.5-.7-.2-.5-.7-.5-.8-.3h-1l-.4.4-.2.1-.9.4-1-.2-1.6-.5-.5-.3-.5-.5-.4-.5-.5-.3-.3-.1h-.7l-.3.1h-1.4l-.7.3-.8.3-.9.7-.5.3-1.4.4h-.5l-2-.7h-1.4l-.4.4-.3.7-.4.6-.3.3-.8.4h-1.1l-1 .1-.9-.2h-.7l-1.3-.3h-1.9zm.5-.3l.6-.1h.5l.1.1-.2.2zm26-2h1.1l.3.4.2.1h-.4v-.2l-1-.1zm118.2 7.2h.4l1.2.5.7.2h.4l.7.5.6.1h.5l.3.3.4.5.4.6.2.7v1.3l.2.6v.9l-.1.3-.2.5-.1.3-.2.1-.1.2-.3.4-.1.5-.2.3-.3.5-.1.3v.6l.1.5.3.4.5.2.6.5.6.6.3.4.3.2.3.3h.5l1.5.5.3.1h1.2l.5-.4.6-.5.4-.2.6-.2h1.9l.2.3.4.2.3.5.1.3v.6l.2 1v1.5l.2 1 .3.5v.2l.5.6.1.5v.3l.6.7.1.2.2.4 1 .7.1.2.3.4.4.2.2.2h.4l.2.3.4.2.4.1h1.2l.8-.4h.6l1-.6h.6l.5-.2.2-.2.2-.3.1-.2v-.2l-.1-.5v-.6l.5-.4.1-.3.2-.3.4-.2.5-.3.3-.1.3-.1h.8l.4.1.3.3.5.1h.2l.2.4h.3l.5.2h.4l.2-.2.1-.2.3-.3v-.3l.4-.4.3-.2v-.2h.3v-.2h.1v-.2l.2-.1v-.8l-.3-.2v-.7l.1-.2.2-.2.2-.1h.2l.1-.1h.7l.2-.3v-.1l.3-.1v-.1l.1-.4.2-.1.2-.1h.5v-.2h.2v.4h.2v.3h-.3v.2h-.1v.5h.3l.1.3h.2l.2.2h.3l.3.2h1.4l.4-.3h.1l.2-.2h.2v-.2h.2v-.3l.2-.2.1-.3h.5v.3l.3.1h.7l.4.1h.2l.4.3h.3l.2.3h.1v.2h.3l.1.1h.7v-.3h-.9l-.2-.3-.3-.2-.2-.2-.2-.1h-.2l-.2-.3-.4-.2h-.1l-.2-.1h-.5l-.6.2h-.4v.1l-.2.2v.2l-.3.3-.1.1-.2.1h-.4l-.3.2h-1.1l-.4-.3-.3-.3-.1-.1v-.1h-.2v-.4h.4v-.1h.1v-.4l-.4-.2-.2-.1h-.3l-.2.2v-.3h-.4v.2l-.3.2-.1.1v.1l-.1.2-.3.3v.1h-.2v.2h-.3l-.1.2h-.7.4v-.3h.3-.6l-.1.3-.3.2-.2.2v.1l-.3.2v.5l.3.1v.4h-.3v1.2l-.5.5-.2.2-.4.3v.1l-.2.2-.4.1h-.4l-.4-.2-.1-.1-.1-.1-.7-.5h-.1l-.2-.1h-1.5l-.3.4h-.1l-.3.2-.4.3h-.2l-.2.2-.2.5-.1.1-.3.4-.2.3v.5l.4.2v.2l-.4.2v.4h-.5l-.8.3-.3.1-.5.1-1 .4-.9.1h-.4l-.2.2h-.4l-.3-.4-.1-.1v-.2l-.3-.1-.3-.1v-.1l-.5-.5-.5-.7-.6-.6-.4-.4-.4-.7-.2-.3-.2-.4-.2-.6-.5-.6v-.3l-.3-.5v-3l-.1-.4-.2-.4-.4-.5-.2-.3H267l-.4-.3h-.6l-.2.3-.4.1h-.4l-.2.3-.8.5-.2.1h-.8l-.2.2h-.8l-.5-.2-.1-.1-.3-.2-.6-.2-.3-.1-.3-.2-.4-.4-.3-.3-.2-.2-.3-.3-.6-.5-.3-.3-.2-.4v-.7l.6-.7.4-.8.4-.4v-.3l.2-.3.1-.4v-2.9l-.2-.7v-.4l-.5-.5-.2-.4-.4-.3-.3-.2h-.2l-.3-.2h-.2l-.3-.2-.4-.2-.3-.2-.7-.2-.4-.2h-.3l-.6-.2-1-.2zm17.5 19.8l.4.5.5.6.4.3.2.3.2.1h-.2l-.4-.1-.3-.3-.2-.2-.3-.7-.2-.3zm14.5 0v-.2h.2l.2-.1-.2.3zm4.4-6.1v-.1h.3v-.1l-.2.2zm-33.6 51.1l.3.3.2-.2.3-.2.4-.2.5-.4.2-.1.1-.3.2-.1.1-.1h.1l.3-.2v-.4l.3-.1v-.2h.2l1-.7.3-.1h.3l.6-.2h.6l.3.4h.3v.2l.5.1.3.3.4.1.2.1h1.2l.3-.1h.2l.7-.4.6-.1.6-.2v-.1h.1l.2-.3.1-.1.5-.5.1-.2.2-.1v-.1l.3-.1.3-.2h.4l.3.3h1.1l.2-.3.2-.1.2-.1h.1l.3-.3h.3l.4-.2h.5l.4-.1h1.2l.6.3h.3l.3.1h1.5l.3.2h.3v.1h.3v.4l.1.3v.4l-.4.4v.5l.2.1.2.3.1.3.1.1.2.5.1.3.2.2.1.2h.1l.3.2.5.2h1.8v-.2l.3.3h1.7l.3.2.2.1.2.2.3.2v.2l.1.3v1.1l-.2.3-.2.2-.3.4v.1l-.7.5-.5.4-1 .7-.3.4-.4.2-.2.3-.1.2v.6l.2.4.3.6.3.3v.2l.4.4.1.3h.5v-.1l-.2-.4-.1-.2-.2-.3-.2-.3-.2-.4-.3-.4-.1-.3v-.6l.3-.1v-.2l.6-.3.4-.3 1-.7.9-.5v-.2l.4-.2h.1l.2-.3.1-.2.3-.3v-.7l-.3-.4-.1-.2-.2-.6-.3-.7-.3-.2-.6-.3h-.5l-.2-.2h-.3l-.4-.2h-.4l-.7.4H280l-.4-.3-.2-.1v-.2l-.2-.3-.2-.7v-.7l.3-.2v-1.2l-.3-.1-.2-.4h-.1l-.2-.1h-.3l-1-.3-.6-.2h-.3l-.6-.1-.7-.1-.6-.1h-.4l-.2-.2h-.2l-.6.3-.5.2h-.7l-.5.2h-.2l-.8.1h-.3l-.4.2-.9.5h-.2l-.2.2-.5.5-.2.2h-.2l-.6.5h-.5l-.6.4h-.3l-.4.2h-.3l-.2.2h-.7l-.3-.3-.2-.1-.3-.2h-.1l-.4-.5h-.2l-.2-.1h-1.8l-.3.3-.7.2-.6.3-.2.2h-.5v.3l-.2.2v.3l-.2.2-.4.3-.2.2-.4.5-.5.2-.2.2zm2-1.7v-.2l.2-.1v-.2l.3-.1v.2l-.3.2v.1h-.2zm8.4-1.1l.1-.1.2-.1.3-.1h-.2l-.1.2h-.1l-.1.1zm3.3-1.9h.2l.2-.2h.3l.3-.1h.8l-.1.3h-.2l-.2.2h-1.2zm9 1.8v-.2.3zm.4-.4v-.2h.1v.4-.2zm3.3 2.8h.7v.3h-.7zm3.2 3.2v-.2l.2-.3v-.2l.1-.2v.8h-.3v.2zM217.1 264l.4.3h1.1l.1-.2h.1l.2-.1.2-.3v-.1l.2-.1v-.2l.3-.1.1-.2h.1l.1-.2v-.2l.1-.2h.3v-.2h.2v-.2h.1l.3-.1v-.2l.2-.1.1-.1.1-.1v-.2h.3v-.1l.3-.1v-.1h.1v-.2h.1l.1-.1h.2l.2-.1h.3l.3-.2.1-.1h.3l.2-.2.3-.2.1-.1v-.1l.2-.2.1-.2v-.2h.1v-.1l.2-.4h.1v-.1h.1v-.2h.3v-.2h.2l.1-.2.3-.1v-.1h.1l.1-.2h.1l.2-.1.1-.1.1-.2h.3v-.3h.1v-.1h.1l.1-.3h.1l.2-.2.2-.1.2-.2h.2l.3-.4h.3l.2-.2h.2l.2-.1h.2l.2-.1h1.2l.2.3.2.1h.2l.3.4.1.1.2.1.2.1.2.2.2.3.2.2.2.2h.1l.1.3.1.1.1.2.1.4.2.3.1.2v.7l.3.1v.3l.2.2v.2l.3.2v.1l.2.1v.1l.2.2.3.2v.1h.2l.2.1h.1v.2h.3v.1h.2l.2.1.3.1h.1l.2.2h.1v.1h.2v.1h.4l.1.2h.1l.1.1.2.1.2.1.3.1.2.2.3.2h.4l.1.3v.1h.3v.1h.1v.1h.2v.1h.2v.1l.2.2h.2l.3.3v.1l.1.1v.1l.3.3v.1l.1.1v.3l.2.1v.2h.2v.1l.1.2.1.1v.3h.1v.6l-.3.3v1.1l.2.2.1.1v.3h.3v.2h.2v.1h.2v.1h1.4v.1-.5h-.8v-.2h-.3v-.1h-.5v-.1h-.2v-.3l-.2-.1v-.9l.2-.2V266l-.3-.1v-.1l-.2-.1v-.2l-.1-.1v-.3h-.1v-.3l-.1-.2v-.1l-.1-.2-.1-.1v-.2l-.2-.1-.2-.1-.1-.2h-.2l-.3-.3-.3-.3h-.2l-.2-.1-.3-.2-.3-.1v-.2h-.2l-.4-.2-.1-.2h-.2l-.3-.4h-.1l-.1-.1h-.4l-.3-.3h-.2l-.3-.1-.3-.1-.2-.1-.3-.1-.3-.1-.2-.2-.2-.1-.2-.3v-.1h-.3v-.2h-.1v-.2l-.2-.1-.2-.2v-.3l-.2-.4v-.4l-.2-.3v-1.4h-.2v-.3l-.4-.2h-.2v-.2l-.1-.1-.3-.1v-.3h-.3l-.2-.1-.1-.2h-.4l-.3-.1-.1-.1h-.2l-.4-.1h-1.9l-.3.2h-.2v.1h-.4l-.2.1-.2.2h-.1l-.3.1-.2.1-.2.1h-.2l-.3.3h-.1l-.1.1h-.1v.1h-.2v.2h-.2v.1h-.1v.1h-.1v.1h-.1l-.1.1-.1.1v.1h-.1v.1h-.2v.1l-.2.2-.1.1-.1.1-.3.3v.2h-.2l-.1.3v.2l-.3.2v.2l-.2.1v.2l-.1.2v.1h-.1v.2h-.2v.2h-.1l-.1.1h-.4v.2h-.6v-.2h-.2v-.2h-.7v.4h-.2v.1h-.1l-.1.2h-.1v.1h-.1v.1h-.1l-.1.2-.1.1-.1.3-.2.1v.2h-.1v.3l-.1.1v.3h-.3v.2h-.2l-.1.2h-.8v.2l-.2.1-.2.2-.1.1-.1.2-.2.3h-.1l-.1.2zm.6 0h.3v-.3l.2-.1v-.1h.1l.1-.2h.4v.3l.2.1v.2h-.3v.1h-.2l-.3.2h-.5zm.5-1l.1-.1.3-.2-.3.3zm.3-.2v-.2h.2v-.1h.2v.3h-.3zm.3.6l.2-.3.2-.1h.2v.4h-.2v.1h-.1l-.1.2zm.6-.5h.2v.1l-.2.1v-.1zm.4-.6v-.1l.2-.2h.2l-.2.1-.2.3zm.2-.8v-.2h.3v-.3h.1v-.2h.2v-.3h.1l.3-.1h.6v.4h-.2l-.1.2h-.1l-.2.2h-.3v.1l-.2.1h-.1l-.1.1h-.1zm1-1.2v-.3h.4v-.2h.4v.2l.2.2h.2v.1l-.2.1h-1zm0 .1h.4zm.3 0h.3v.2h.1v.1h-.3v-.3zm1-.3v.2zm1.2-.1l.3-.4v-.1h.2v-.3h.3v.3l-.3.2v.1h-.2v.1l-.1.1zm.9-1.4v-.1l.1-.2v-.1h.2v-.2l.2-.2.1-.1v-.2l.3-.1v-.3h.1v-.1h.6v.3l-.2.2h-.1l-.1.1h-.2v.1h-.1v.1h-.1v.1h-.2v.1l-.3.1v.1l-.1.1v.1l-.1.1h-.1zm.9-.6l.1-.2h.2zm.4-1.2h.1v-.2h.2-.2v.3h-.1zm.3.6v-.2.3zm-.1-.4v-.2h.3v-.2h.1v-.1h.2v-.1h.1v.6h-.3v.2h-.2v.2h-.1v-.4zm.7-.4v-.2l.2-.2v-.1l.2-.1h.3v.4h-.3v.2h-.3v.1h-.1v.1h-.1zm6-1l.1.2h.2v.1h.1l.1.1h.2l.2.2.1.1v.2h-.4l-.1-.3-.1-.1v-.1h-.2l-.1-.2v-.1h-.1zm.2.5h.2l.1.2h.3v.2h.1-.3l-.2-.4zm.5.4h.2l.1.2-.3-.1zm.2 0v-.3h.2v.3zm.5-.3v.3zm-27.1-44.5v.4l.7.4h.4l.2.2h.8v-.4l.5-.3.2-.8h.1l.2-.2.3-.7 1.4-1.5.7-.4.3-.3h.4l.1-.1h.2l.3-.1h.4l.4-.1.3-.2h.8l.4.2.1.2.6.2v.1l.3.2.1.1h.1l.1.1.4.3v.3h.3-.3.5l.3-.1.5-.7v-.2l.4-.8v-.5l-.1-.3-.1-.3-.2-.2-.3-.5-.5-.7-.3-.5-.3-.5-.4-.6-.2-.7v-.2l-.5-.3h-.1l-.4-.4-.6-.2h-.2l-.4-.5v-.1l-.2-.2v-2.2l.4-.2v-.1l.6-.4.1-.2.3-.2.6-.6.3-.2v-.1l.3-.2v-.1l.4-.4.2-1.1h.2v-.4h.3v-.1h.2l.8-.2.2-.2.2-.2.3-.2.2-.7.2-.3.6-.2h.4v.2l.3.2.5.3.4.2h.3l1.1-.5h.6l.7.3.7.3.6.4.4.1.6.2 1 .1.3.1v-.4H227l-.5-.5-.5-.3-.3-.2-.4-.2-.5-.2-.7-.1-.6.2-.5.3-.6.2-.7-.5-.1-.3-.3-.2h-.3l-.5.2h-.1l-.5.6-.7 1h-.2l-.8.2-.4.3v.1l-.4.3-.1.8-.4.6-.2.2v.1l-.3.2-.4.4h-.2l-.4.7h-.1v.1l-.7.3-.2.4v2.4l.1.1.5.8.3.2h.5v.2h.2v.2l.3.3.5.2v.1l.2.5.3.5.1.2h.1l.2.5.3.3.5.9.3.4.2.3.1.3v.8l-.1.3-.3.4-.3.6h-.4l-.5-.4-.2-.3-.6-.3-.2-.3-.5-.1-.3-.3h-.7l-.7.3h-.7l-1 .2-.2.2h-.1l-.6.3-.7.7v.1l-.7.5v.2h-.1l-.2.2v.4l-.7.6-.3.8-.3.3h-.1l-.3.1h-.3l-1-.5zm0 0"/><path d="M228.9 194.2h.1v.1h.7l.3.1.1.1.5-.4.6.3h.4l.1.2 1 .7h.2v.3l.6.3.5.1.2.5h.3l.1.2.4.3h.2l.3.1.9.3 1 .2 1.6.7h.8v-.3l.3-.2v-.4l.2-.4.2-.1.7-.3h.2l.2.4.7.7h.2l.2.1h.3l.5 1.2h.1l.5.6.7.4.2.5h.1l.1.1.2.3v.4l.1.1v1.5l.5.4h.1l.5.2h1.4l.5.7.7.6.3.2h.1l.4.6h.2l1 .4.8.3.4.2.6.2v-.5l-.2-.1-1.1-.4-.6-.3-.3-.2v-.1l-.5-.1v-.1l-.8-.6-.2-.5-.3-.2-.6-.5-1-.3h-.1l-.3.2h-.6l-.4-.1v-.1l-.1-.3v-1.4l-.1-.4-.3-.5h-.1l-.1-.2-.3-.2-.4-.5-.2-.1-1-1.4-.9-.5-1-.9h-.3l-.6.1-.3.1-.1.1-.4.5v.3l-.2.3-.3.2h-.6l-1-.7-.4-.2h-1.2l-.7-.3-.2-.2-.4-.1-.3-.1-.1-.4-.3-.2-.7-.3-.6-.5-.4-.4-1-.5h-.1l-.4-.1h-1.5l-.5-.2zm-62.3 71.4v.4h3.2l.3.2h.6l.3.1h3l.3-.3h.2l.2-.3h.1l.2-.2.1-.2h.2l.1-.3h.3l.3-.1.2-.2.2-.2.2-.1h.3l.1-.3h.4l.1-.1h.7l.2-.2h.4v-.2l.2-.1v-.2l.2-.1v-.4l.1-.2v-.6h.2v-.2h.2l.2-.2.1-.1v-.1h.1v-.4h.2v-1.3h.2l.2-.2v-.1h.3v-.1h.3l.2-.1h.1v-.1h.3v-.1h.1v-.8h-.2v-.1h-.1v-.3h-.1v-.1l-.2-.3v-.3h.3v-.3h.3l.1-.2h.4l.2-.1h1.3l.3.3h1.7l.1-.3h.2v-.1h.3v-.1l.3-.1h.1v-.2h.6l.4-.2h2l.4.2.2.2h.1v.1h.3v.3l.2.3.1.1v.7l.2.1h.3v-.4h-.2v-.5h-.1v-.1l-.1-.2-.2-.1v-.2h-.2v-.2l-.2-.1h-.1l-.1-.2h-.4v-.2h-.3l-.1-.1h-2.5l-.1.3h-.8l-.1.1h-.3v.1h-.6v.2h-.2l-.2.1h-.3l-.1.1h-.3l-.3.1h-1.2v-.3h-1v.3h-.1v.1h-.3v.4h-.2v.9l.3.1.1.2.1.1v.2l.2.1v.2l-.4.2h-.2l-.3.2h-.1l-.2.2h-.2l-.2.2h-.2v.1l-.3.4v1.2l-.1.3h-.2v.1h-.1l-.2.1-.1.2-.1.2v1h-.2v.3h-.2l-.6.3h-.6l-.3.1h-.1l-.4.1h-.6l-.3.3-.3.1-.4.3-.3.2h-.7v.1l-.4.2-.3.1h-.8l-.1.2h-.4v.1l-.5.1h-1.1l-.4-.2h-2.6l-.2-.1h-.3zm.4 0h.2zm-.1 0h.3-.2zm.3.1h.4-.5zm4.8 0h.2zm.2 0h.1l.2-.3h.4l-.2.4h-.4zm.6.1h.3l.2-.3h.2l.2-.1.1-.1h.2v-.2h.5v.5h-.1l-.2.2h-.1l-.2.2h-.8l-.2-.2zm1.8-.2v-.3h.2v.3h-.3zm.6-.7l.3-.3.1-.1.3-.1v.3h-.2l-.1.1-.2.1h-.1l-.1.1zm10-8.5h.3l.2-.2h.6v.2h-.3v.1h-.8zm-27.6 9.6h.2v.3h.1l.1.2v.1l.1.2h.7v-.3h.2v-.2h.3l.2-.3h.1l.4-.1h.2v-.2h.2l.2-.1h1.7l.1.3.1.1h.2v.1l.1.1v.2h.2v.3h.2v.1h.2l.3.2h.3l.4.3h.2l.2-.3h.1l.1-.1.2-.2.3-.2h.1l.3-.2.1-.2h.4l.2-.1v-.4h-.1v.1l-.5.1-.2.2-.3.1-.2.1-.3.1-.4.1-.2.1-.2.1h-.6l-.4-.2-.3-.6-.1-.1-.1-.1-.2-.1h-.6l-.3-.1h-1.3v.2l-.3.2h-.7l-.1.2-.1.2h-.1v.2h-.2l-.1.1h-.2v.1h-.3l-.2-.3v-.3h-.2v-.8l.3-.2.1-.3h.1l.2-.1h.1l.2-.2h.2l.1-.2v-.2l.2-.2v-.4l-.3-.2v-.1h-.2v-.3h-.1v-.2l-.2-.2v-.4l.2-.4v-.1l.2-.2v-.3l.1-.4.1-.2.2-.1.1-.3h.3l.3-.3.1-.1v-.1l.2-.1v-.4l-.3-.2-.1-.1v-.3l-.4-.1v-.2l-.1-.1v-.3l-.2-.1v-.2h.3v-.3h.3l.2-.1h.1l.1-.1h.3v-.3h.1l.3-.2v-.2h.3v-.4h-.2v-.1l-.2-.3v-.2h-.1v-.6h.3v-.1l.2-.1.3-.2.2-.2h.9l.4.3h.4l.1-.3.3-.6v-.1l.1-.3.1-.1.1-.1.2-.1.1-.1.4-.1v-.1h.2v-.6l.2-.2.1-.3v-1l.1-.3v-.4h-.3v-.2h-.1v-.1h-.2v-.2l-.2-.1h-.1v-.3h-.2v-.3h-.1v-.4l.2-.2h.4l.2-.2h.4l.1-.1h.2l.1-.1v-.8l-.1-.2-.3-.4h-.2l-.2-.3-.1-.3-.4-.2v-.4h-.1v-.8h.3l.1-.2.2-.2.2-.3.3-.3.2-.3v-.6h.1v-.5l.1.1v-.2l.1-.3.1-.2v-.3l.2-.1v-.3l.1-.3v-.5l-.3-.2v-.3h-.1v-.6h-.2v-.2h-.2v-.5h-.4v.2l.1.1.2.5.1.1v.2l.4.4v1.3l-.1.5-.2.2h-.1v.3l-.1.1v.4h-.1v.5l-.1.3v.1l-.1.1h-.1l-.1.3-.1.2h-.3v.3h-.3v.2h-.3v1.1l.4.2v.2l.2.2.1.1.1.2h.2l.1.3h.2l.2.3v.2h.2v.6h-.3v.1h-.6v.1h-.4l-.1.2h-.1l-.2.2v.7l.3.1v.2h.3v.3h.1v.1h.2l.1.2v.2h.2v.5h-.2v.1l-.2.1v.6l.2.3v.3h-.2v.3l-.1.1h-.1v.2h-.1v.1h-.3v.2h-.2v.1h-.1l-.1.2h-.2v.1l-.2.2v.5l-.1.2-.1.1h-.5l-.1-.3h-1l-.2.2v.1h-.1v.2h-.2v.1h-.1v.1h-.2v.1l-.1.1-.3.2v.9h.3v.2l.2.1v.3h-.3v.2l-.2.1h-.1l-.2.2-.1.2h-.5l-.3.2v.3l-.2.1v.4h.4v.4h.1l.2.2.1.3v.1h.2v.4h-.2v.1l-.3.3-.2.2h-.2v.1l-.1.1v.1l-.3.1v.3l-.1.1v.5l-.1.1v.3l-.1.1v.1h-.1v.9h.3v.2h.1v.2h.1v.2h.2v.6l-.2.2h-.1v.2l-.5.1-.2.2-.2.2v.1h-.1v.3h-.1v.5zm6.8.8l.4-.3v.4-.2l.2-.2v.2h-.2v.2l-.3.1h-.2zm.7-29.8v.6h.6l-.3-.2v-.6l.5-.5.3-.6-.2-.2v-.5l-.2-.6v-.6l.2-.6v-.5l.3-.1h.9l.2-.1.4-.3.2-.1v-.6l-.1-.2h-.2v-2.9l.3-.6v-.3l.5-.5v-.1l.4-.5 1.2-.6.2-.4v-3.1l-.3-.7v-.4h.3v-.2h-.2l.2-.3h.7l.3.4.3.3.5-.2.2-.1v-.5l.4-.6v-.3l.3-.4.3-.3.7-.4.5-.2v-.3l1.2-.4.3-.4h.1v-.6l-.1-.4v-.3l-.2-.3h-.1l-.4-.6-.5-.2h-.4l-.7-.3-.3-.1-.1-.5v-.5h.1l.2-.5.4-.4.2-.6h.1l.2-.4v-.1l-.1-.5h-.4l.1.1v.9l-.3.1v.2l-.2.4-.2.1-.2.6-.2.4v.2l.2.7.3.3.5.2 1 .2.5.4h.1v.2l.1.3.1.3v.4l-.2.2-.2.2-.8.4-1 .6-.5.4-.5.4-.1.2-.2.6-.2.3v.5l-.3.2h-.2l-.4-.4-.2-.2h-.4l-.6.1v.3l-.2.2v.7l.1.3v.3l.1.1v1.6l.1 1v.2l-.7.6-1 .5-.2.2v.3h-.2l-.2.4-.2.5v.3l-.3.9v1.8l.3.5.1.5v.2l-.6.3-.4.1h-.3l-.6.1-.3.3-.1.1-.1.4v.6l.4.8v.2l.2.5v.3l-.4.4-.5.8zm0 0"/><path d="M191.4 257.8v.2l.1.2v.3l.2.3v.2h.1l.1.2.1.2.1.1.2.2v.1h.2l.1.5.2.3h.2l.1.4.1.1.1.1v.2l.2.2v.2l.1.2v1.5l.1.4v.6l-.3.2v.8l.4.2.3.2.3.1h1.3l.1.2h.2v.8l-.3.2v.1l-.2.1v.3l-.1.2v.1l-.1.3v1.2l.2.3.1.2.1.1.4.4.3.3.2.1h.8l.3-.2h.1l.3-.2h.5l.4.2v.1l.3.1.1.1.2.2.3.3.1.1.2.4h.2l.4.3h1.3l.2.1.1.1.2.1.4.2.1.2h.1l.3.3.2-.3-.3-.3-.1-.1-.1-.2h-.2v-.6l-.2-.2h-.2l-.1-.2-.1-.1-.2-.1h-.2v-.1h-.6l-.2-.1v-.1l-.1-.1-.1-.2h-.4v.3h-.3l-.1-.2-.2-.1v-.2l-.3-.1-.2-.2-.1-.1h-1.1l-.6.3-.3.1h-.2v.2h-.7l-.1-.3-.1-.2-.3-.1v-.2l-.1-.3-.1-.3v-1.3l.2-.2v-.3l.1-.1.1-.2.1-.1v-.1l.2-.2v-.5l-.3-.2v-.1l-.2-.2-.4-.1h-.3v-.2h-1.1l-.2-.1h-.1l-.2-.2v-.7l.3-.1v-1.9l.1-.1.1-.1v-.3l-.2-.3-.1-.4v-.2h-.2v-.4l.3-.2v-.2h-.5v-.2h-.2l-.3-.3h-.3v-.2l-.3-.1-.1-.2-.3-.2v-.4l-.1-.2v-.2l-.2-.2v-.2zm1.3 1.9h.3l.2.2v.1h.2l.1.2.1.1h.3v.4h-.3l-.1-.3h-.2v-.1h-.1v-.1h-.2v-.2h-.2v-.3h-.2zm.6.8h.2l.2.2v.3l-.4-.3v-.1l-.1-.2zm.5.9v-.2.3l.2.1.2.3v.4l-.2.1v-.4h-.2v-.4h-.1v-.1zm.2 1.5v-.3.4zm5.7 7.9h.3v.3h.3l.2.2h.1l.4.2.3.2.3.2.2.1h-.2l-.1.2h-.6v-.2l-.3-.1-.1-.1-.1-.2v-.1h-.3v-.4l-.3-.1zm.8.1h.3v-.2h.4v.3l.1.1v.2h.9v.1h.2v.1l.3.2.2.1v.1h.1v.1h-.3v.1h-.3v-.1l-.2-.1-.4-.2-.1-.1h-.2l-.1-.2h-.2l-.1-.1-.2-.1-.1-.2h-.2zm2.2 1.2h.2v-.1h.1v.3-.1h-.4zM181 202.2l.2.2h.4l.4.3h.5l.7.1.3.2h.9l.3-.1h.2v-.2h.8l.3-.2.7-.5.3-.3.2-.1.8-.4.6.1.4.3.4.2.6.5.4.7 1.1.3.8.3.9.4.8.5h.1l.2.2 1.1.2.7.3.4.3.7.2h1l.5.3.5.4.2.3v1l.1.5v.1l.2.1v.1l.2.2.3.3 1 .2.8.2.8.6.6.3.4.4.6.4 1.4.4.8.5h.1l.2.1v-.4l-.2-.2h-.2l-.6-.5-1.6-.3-.4-.3-.5-.5-1.1-.8-.7-.2-.6-.2h-.5l-.5-.2v-.1l-.4-.7v-1.4l-.4-.3-.2-.1-.3-.3h-.2v-.1h-.9l-.6-.2h-.3l-.5-.5h-.1l-.3-.1-1.3-.5-.5-.2-.3-.1-.3-.2-.7-.4h-.4v-.2l-.3-.1-1-.3h-.2l-.5-.5-.1-.2h-.2l-.7-1-.6-.3h-.5l-.4.1-.2.2-.2.3h-.4l-.5.5-.9.5-.4.3h-.2l-.6.1h-.6l-.6-.2-.6-.1h-.5l-.3-.1-.4-.1-.4-.2zm63.9 66.8v.4h.3l.1.2h.1l.1.1.3.3v1l.2.3v1.5l.2.2h.1l.1.3.3.3.3.5.3.4.2.2.1.3.4.3.2.1.1.1.2.2.5.1.3.2.2.2h.5l.3-.2.1-.1.2-.1.1-.3.3-.2v-1.2l-.3-.3v-.2l-.2-.2v-.2l-.1-.2v-.8l.3-.2.1-.1h.4l.3.1.5.5.3.5.5.4h.2l.4.3h1l.2-.2.2-.1v-.1l.2-.3v-.1l.4-.2.4-.4.2-.3.1-.2-.3-.3-.5.3h-.1l-.2.2v.1h-.2l-.2.4-.4.4v.1h-.2l-.3.3h-.4l-.1-.3h-.2v-.1l-.3-.3-.2-.3-.3-.3-.2-.2-.3-.2v-.1l-.3-.1-.1-.1h-.4l-.1.2h-.2l-.2.2-.1.1-.3.2v1.4l.1.2.1.4v.1l.1.2v.1l.2.2v.7l-.4.2-.1.3h-.1l-.2.1h-.3l-.2-.4-.4-.2-.3-.1-.2-.2v-.1l-.3-.3-.2-.3v-.1l-.3-.2-.3-.2-.5-.8-.1-.2v-.1l-.2-.2v-2.2l-.1-.1v-.2l-.2-.3-.1-.2-.2-.1-.2-.2-.3-.1zm1.1.8h.1v.2h.2zm8.1 3.7h.1l.2-.1.1-.2h.3v-.2h.1v.2l-.3.2-.1.1h-.3zm.6-.5l.3-.3v-.1l.2-.2h.1l.1-.2v.4l-.4.1v.2zm0 0"/><path d="M203.5 273.2l.2.2.3.1.4.1h.3l.5-.3.8-.4.6-.4.7-.7.5-.4.7-.5.5-.4.5-.3.5-.2.4-.4.2-.2.4-.2h.5l.2-.2.3-.2.6-.3h.4l.3-.2v-.1l.3-.2h.2l.2-.3.9-.6.3-.1h.3l.3-.5.4-.2h.1l.3-.3.2-.3h.2l.2-.2.1-.5v-.3l.1-.2-.2-.7v.2h-.4l-.2.3-.4.7v.2l-.3.3-.2.4-.2.1-.5.5-1 .7-.3.1h-.4l-.2-.3h-.4l-.4.3-.5.3-.1.4h-.2l-.4.2-.5.4-.4.3-.2.5-.5.4-.6.2-.6.5-1 .8-.4.2-.9.2-.3.3h-.1l-.2.4h-.1l-.1.4-.2.2h-.3v.3h-.7l-.2-.3zm2-.4v-.3l.3-.3v-.1l.2-.1h.2l.1-.2h.2v.2l-.1.1-.4.3-.1.1-.2.1zm5.2-4h.1l.3-.2h.4-.1l-.1.2h-.5zm.8-.5l.1-.3h.2v-.1l.3-.2.1-.1v-.1l.4-.2h.7l.1.3-.3.3-1.1.4h-.1l-.3-.1h-.1zm4.5-2.4v-.2l.4-.2v-.1l.2-.5.1-.2.1-.1v-.1h.2v.1l-.1.1v.3h-.2l-.2.4v.2l-.2.2h-.3zm-52.6-62.8l.3.3.3-.4h.1l.4-.2h.5l.3-.2h.1l.4-.2h.2l.2-.1.2-.1h.3v-.2h.3l-.3-.4v.2l.3-.5v-1.1l.1-.2.1-.1.1-.1v-.1h.3v-.3l.1-.3h1.1l.8-.5.1-.2.3-.4.2-.4.4-.6.2-.2v-.4l.2-.3.2-.3h.8l.6.4 1 .2.4.3h2l1.7 1.1v.2l.3.3.8.5v.2l.8.4h.2l.1.2.3.4v1l.2.2v.4l.3.5h.3v-.1l-.4-.5v-1.1l-.3-.3v-.5l-.2-.1-.1-.3-.2-.1h-.4l-.2-.2-.2-.2-.6-.7h-.2l-.2-.4-.3-.2-.2-.1-.2-.3-.2-.1h-.1l-.1-.3h-.2l-.2-.1h-.2l-.3-.1-.7-.1h-.3l-.3.1h-.4l-.5-.2h-.5v-.2l-.8-.1-.2-.2-.7-.2h-.3l-.5.4-.1.1v.1l-.1.3-.1.6h-.1l-.3.4-.3.5-.1.2-.4.5-.5.2h-.3l-.8.2-.8.7v.2l-.1.1v1l-.2.4-.3.4-.7.3-.6.2h-.2l-.2.2h-.1l-.3.1zM492.6 25.3l.2.1.2-.3V25h.2l.4-.3h.1l.3.3h.4l.1.1.5.2.2.2h.1l.1.3v.2l.2.1v.3l.1.2v1.2l-.2.4-.2.2v.1h-.2v.1l-.1.4-.1.6-.1.2v.2h-.1v.3h.4V30l.6-.7.2-.3v-.1h.3l.1.1.3.4v.4l-.1.2-.3.4 1.8-.2h.4l-.5-.4h-.2l-.1-.3-.2-.1v-.2l-.1-.2h-.3l-.5-.7h-.1l-.1-.3-.1-.1v-.6l-.2-.4v-.5l-.1-.2-.1-.3v-.3l-.1-.1-.1-.1-.3-.2-.3-.2h-.4l-.2-.3h-.2l-.2-.1h-.3l-.2-.1h-.5v.3l-.2.1v.1l-.1.1zm-334.3 181l.5.3.4.3v.1l.3.5.3.3.6-.1.2-.2.5-.4v-.3l.4-.5h.5l.6.3.2.2.3.6.2.4.1.2.2.2.2.2h.2v.2-.2l1-.5v-.1h.2l.3-.1h.4l.3.3.2.4.2.4.3.1.2.1.9.1h1.8l.2-.2v.1h.8l.4.5h.1l.8.4h.3l.7.4h.3-.1v.3h.4v.1h.3l-.2-.4-.5-.2h-.1l-.3-.3-.5-.2h-.4l-.4-.2-.1-.1h-.3l-.4-.6H167l-.2-.2-.3-.2-.1-.3-.1-.3-.5-.2h-.8l-.1.2-.4.1-.2.2h-.5l-.3-.3-.1-.3-.2-.4-.2-.3-.2-.3-.2-.1-.2-.3-.4-.1-.6.1v.1l-.4.4-.3.5-.1.2-.4.2-.3.1h-.1l-.2-.2-.4-.6-.1-.2-.7-.5zM196 34.2h1.3l.2-.2h.4v-.1h.1l.2-.3h.1l.1-.2h1.3l.3.3.1.2.1.1v.2l.3.2.1.2.1.1.1.1v1.7l.2.4v.3l.2.4.1.2.3.4.4.4.3.4h.2l.1.2h.1l.1.3v1.2l.2.3.1.3v.1l.2.3.2.3.5.3v.2l.2.3V44l.1.3v.3l.2.2.3.1.3.2.4.3.1.1.1.1v.4l-.1.3-.3.5v.2l-.1.2v.1l-.2.2v.3h.2l.1-.2v-.2l.2-.2V47l.2-.1v-.4h.1v-.3l.1-.1V46l.1-.3v-.2l.2-.1v-.1l-.2-.1h-.2V45h-.1v-.2h-.1v-.2.4l.3.2h.1v.6l-.2-.4h-.1v-.2h-.1l-.1-.2h-.2l-.2-.1v-.1l-.1-.1v-.2.3h-.3l-.2-.2v-.2h-.1v-.1l-.2-.1v-.7h.3v-.3l-.3-.2v-.7h-.2v-.1l-.1-.2h-.1l-.1-.2-.2-.1v-.2l-.2-.1v-.1h-.2V41l-.1-.3v-1.6h-.2V39h-.1v-.2h-.2v-.1h-.2v-.2h-.3v-.3h-.2v-.1l-.2-.1-.1-.2-.1-.1v-.3h-.3V37h-.1v-2.4h-.2l-.1-.3-.3-.2-.1-.1v-.1l-.1-.2v-.2l-.2-.1h-.9l-.1-.1h-.8l-.2.3-.2.2h-.1l-.4.2H196zm0 0"/><path d="M158.4 205.6v.4h.3v-.2l.3-.1h.4v-.9l.1-.2.9-.8v-.3l.1-.3v-.4l.2-.4.1-.2h.6v.2l.4.4.1.2.1.1v.2h.1l.2.3h.3v.1h.4l.5-.1.2-.2-.3-.4v.2h-.2l-.5.2-.5-.3v-.1l-.7-1-.3-.2h-.4l-.3.2v-.1.3l-.4.5v.9l-.3.4-.5.3v.1l-.3.3v.5l-.1.4h-.1zm-83.1-10.3l.1.6v.3l.1.3.5.4h.4l.3-.6.6-.3h.4l.2.3v.4h.1l.1.3.5.3h.4v-.5l.3-.2.7-.2v.5l-.3 1.1-.6.3v.1l-.1.2-.2.5v.1l-.4.2h-1v.2h1.1l.4-.2v-.4l.4-.3v-.4l.4-.3.4-1v-.8h-.4l-.2.2-.5.3v.1l-.2.4h-.2l-.1-.1-.2-.2-.3-.2-.1-.2v-.5l-.3-.3h-.5v.3h-.3v.2l-.2.1h-.1v-.1.1h-.1v.2l-.2.1v.2h-.4v-.4h-.2v-.2l-.1-.1v-.7h.2zm0 0"/></g></g><g fill="none" clip-path="url(#C)" mask="url(#B)" stroke-linejoin="bevel" stroke-width=".8"><use xlink:href="#E" class="C"/><use xlink:href="#E" class="D"/><use xlink:href="#F" class="C"/><use xlink:href="#F" class="D"/><use xlink:href="#G" class="C"/><use xlink:href="#G" class="D"/><use xlink:href="#H" class="C"/><use xlink:href="#H" class="D"/><use xlink:href="#I" class="C"/><use xlink:href="#I" class="D"/><use xlink:href="#J" class="C"/><use xlink:href="#J" class="D"/></g><defs ><path id="E" d="M398.8 211.4l-.7 1.8-1.1 2.8-3 7-1.9 4.6-2.1 5.4-2.7 6.4-1.6 3.6-2.4 6-.2.7-1.1 2.4-.4.9-2.6 6.5-1.3 3.2-.3.6-.1.5-2.7 6.4-.4 1-.6 1.4-1.2 3.1-.7 1.6-.2.3-1.1 3-2 4.9-1.4 3.5-1.6 4.4-.2.5"/><path id="F" d="M365.8 292.4l1.2-3.4 1.5-3.6 1.9-4.7 1.1-3 .2-.5.7-1.5 1.2-3 .6-1.6.4-.9 2.7-6.4.1-.5.3-.6 1.3-3.2 2.6-6.4.4-1 1-2.4.4-.7 2.3-6 1.6-3.6 2.7-6.5 2-5.3 2.1-4.6 2.7-7 1.3-2.7 1.3-3.4"/><path id="G" d="M446.3 189.9v.5h.3v-.3h.3v.3h.1v-.3h.2v.3h.1v-.3h.1v.4h.3v.2h.1v-.3h.2v.4h-.3v.2h.5v.3h.1v-.3h.4v.2h.2l.1-.2h.2v.2h.3l.1-.2h.1v.2h.1v.1h.4l.1.1v.2h.6v-.4h.1v.3h.2v.1h.1l.1.1v.1h.1v.1h.2v-.4h.3v.5-.3l.2-.1h.2v.4h.2v-.3h.1v.3h.7v-.2h.1v-.1h1.2v.3h.3v-.3h.2v-.2h.2v-.1l.1-.1h.2v-.1h.7v.2h.6v.3h.8v.1h.1v.1h.3v.1h.1v.3h.3v.1h.4l.2-.3v-.1h.6v-.2h.4l.1.2h.2l.1-.2h.6v.2h.3v.2h.5v.1h.6v-.3h.2l.1.3h.3v.2h.4v.2h.2v.1h.2v.2h.7v-.1h.7v.3h.4v.2h.6v.2h1.3v.1-.2h1.3v.5h.2v.2h.2v.2h.2v-.2l.1.3h.6v-.3h.1l.1.3h.5v-.3h.8l.2.4h.6v.1h.4v.1h.3v.2h.2v.2h.2v.2h.1l.2.1v.2l.2.1h.1l.2.2h.5l.2.1.1.1h.2l.2.3h2.4l.2-.3h.7v-.2l.2-.1v-.2h.3v-.2h1.7v.4h.2v-.2l.3-.1h.2l.2.1.1-.1h.4l.1.1h.3l.2-.2.2-.1.2-.2h.3l.3-.4.3-.1h.3v-.3l.1-.3.1-.3v-.2l.3-.2.2-.2.2-.2h.2l.2-.2.2-.3.4-.1h.6l.1-.3h.2l.4-.1h.2l.2.1h.2l.2.3h.4l.2.3v.1l.4.4.2.3.5.5.4.1.5.2h.3l.4.2h.3l.3.3v1.1l-.1.1v.6l-.1.3v.5l-.2.5v.7l.2.2.3.4.2.4.4.2.3.2.2.2.3.2h1.4l.4-.2.2-.2.2-.2.3-.1h.4l.2.1.2.2.2.2v.5l-.1.3v.6l-.3.6v1.9l.4.2.1.3.2.2.4.2h1.9l.2.1h.5l.2-.1.3-.3h.1l.1.1v1.9l.1.2.2.2.3.1.3.2.3.2.1.2.6.1h.9l.3-.3.2-.3.2-.4.2-.6"/><path id="H" d="M504.7 207.7l-.2.3h-.9l-.5-.2-.1-.2-.4-.2-.3-.2-.3-.1-.2-.2-.1-.2v-2h-.3l-.2.3-.2.2-.5-.2-.3-.1h-1l-.3.1h-.5l-.3-.2-.3-.2-.2-.3-.2-.2-.1-.5v-1.1l.2-.3V201l.3-.3v-.5l-.3-.2-.2-.2h-.2l-.4-.2-.3.2-.2.2-.2.2-.4.2h-1.4l-.3-.2-.2-.2-.3-.2-.3-.2-.3-.4-.3-.4-.2-.2v-.7l.2-.5v-.5l.2-.3v-.7l.1-.5v-.6l-.4-.3-.3-.1h-.7l-.5-.4h-.4l-.5-.5-.3-.3-.2-.4-.1-.1-.2-.3-.4-.1-.2-.1-.2-.2h-.8l-.3.4h-.7l-.3.2-.2.2-.2.1-.2.1-.2.2-.3.2-.2.2v.2l-.2.2v.6l-.3.2h-.3l-.2.3-.4.1-.2.2-.2.1-.3.2h-.2l-.4-.2-.3.2h-.1v-.2h-.4v.2h-.5l-.3-.2h-1.2l-.1.2h-.1l-.1.2h-.1v.1l-.1.2h-.7l-.2.3-.3.2h-.8l-.2-.2h-.2l-.1-.2h-1l-.2-.1h-.2v-.2h-.6l-.2-.2h-.2l-.1-.2-.2-.2h-.3v-.4h-.3v-.3h-.5v-.1l-.2-.1h-.5l-.1-.1h-1.1l-.1.1h-.3v-.2h-.2l-.1.3h-.1v-.3h-.2l-.1.2v-.2h-.6v-.3l-.1-.1v-.4l-.2-.1h-.3l-.1.1h-.6l-.3.1h-.3l-.2-.2h-.9v-.2h-.4v-.2h-.1l-.3.2-.1-.2v-.1h-.6l-.1.1h-.5l-.1-.2h-.2v-.2h-.2v-.2h-.3v-.2h-.5v-.1l-.1-.1h-.2l-.2.3h-.2v-.3h-.8v-.2h-1v.2h-.2v-.2h-.4v.2l-.1.1h-.4v.1h-.1v.2h-.7v-.4l-.3-.2h-.2v-.1h-.1v-.1h-.7v-.3h-.6v-.1l-.2-.1h-.6v.4h-.3l-.1.1-.1.1v.1h-.1v.1l-.2.1h-.8v-.3h-.7v.3h-.7v-.3h-.3v-.1h-.3v.3-.1h-.2v-.3h-.2v.4h-.4v-.4h-.1v-.1h-.1v-.2h-.2v.3l-.1.1h-.5v-.3h-.1v-.2h-.5v-.1h-.2l-.1.2h-.2v-.2h-.3v.2h-.2v-.2h-.2v.2h-.3v.1-.3h-.3v-.2h-.1v-.1h.3v-.3h-.3l-.1.3-.1-.3h-.1l-.1-.1h-.1v-.2.3h-.2v-.3.3h-.3v-.3h-.1v.3h-.4v-.5h-.2v.4h-.7"/><path id="I" d="M445.3 190.4v-.2h-.2l-.1.2h-.2v-.4h-.3v.2h-.1v.2h-.1v-.3h-.3v-.1l-.2-.2h-.3v-.1h-.4l-.1.3h-.3l-.1.2v-.2h-.2v.2l-.1.1h-.1v-.2l-.1-.1v-.2h-.1l-.2.2h-.5v-.2h-.1v-.1h-.2v-.2h-.7v-.1h-.1v.3h-.2v-.3h-.2v.3h-.5v.2h-.3v.4h-.2v-.3h-.1v-.2h-.1v.3h-.1v-.1h-.2v-.2h-.1v-.1l-.1-.1h-.1v.3h-.3v-.4h-.2v.3h-.2v-.3h-.1l-.1-.1v-.2h-.8v.3h-.3v-.4h.2v-.1h-.7v-.3h-.3v-.2h-.2v-.1.4h-.3v-.3h-.1v-.1h-.2v-.1h-.1v.3h-.1v-.3h-.2v.2h-.2v.2h-.1v.1h-.1v.1h-.1v-.3l-.1-.1h-.1v.4h-.3v-.3h-.5v-.3l-.1-.1h-.1v.4h-.2v-.3h-.1v.3-.2h-.2v-.3h-.1v-.1h-.3v.3h-.2v.1h-.2v.1h-.4v-.3h-.1v-.1h-.2v-.1h-.2v.2h-.1v-.2h-.2l-.1-.2-.2.2h-.1l-.1.2h-.5v.1h-.1v-.3h-.4v.1h-.3v-.1h-.1v-.3h-.2v-.2h-.1v-.4h-.1l-.2-.1h-.1v-.2h-.2v-.2h-.6l-.2.3-.1.1h-.4v-.2h-.3v-.1l.3-.1v-.1h-.3v-.2h-.4v-.1h-.2v-.1l-.1-.1h-.2v.5h-.2v.2h-.1l-.1.1h-.1v.2h-.2v.1h-.6v.2h-.2v.1h-.1v-.3h.1v-.1h-.3v.2h-.2v-.5h-.4v-.1h-.1v.3h-.3v.1h-.2v-.3l.3-.1v-.1h-.5v-.1h-.1v.3l-.1.1h-.1v.1h-.4v.1h-.2v.2h-.1v-.2h-.2v.2h-.1v.1h-.4v.1h-.1v.1h-.7l-.1-.3v-.2h-.1l.3-.2h-.3v-.2h-.2v-.1h-.1v-.1h-.1v-.1h-.1v-.1h-.1v.5h-.3v.1h-.1v-.6h-.4l-.1.3-.1.1h-.1v-.3h-.5v.3h-.7v-.3h-1.6v-.3h.3v-.2h-.4v-.1h-.5v-.1h-.4v-.2h-.1v.3h-.2v.1h-.1v-.3h-.2v.4h-.5v.1h-.3l-.1.2h-.1v-.2h-.3l-.1.2h-.1v-.2h-.4v.2-.4l-.2-.1h-.4v-.1h-.3l-.1.3h-.5v.1h.3v.2l-2.8 6.4-3.2 7.8-.5 1.4-.6 1.2-.1.3-2.1 5-1.3 3.2"/><path id="J" d="M399.4 210l.7-1.7 2.1-4.9.1-.4.7-1.2.4-1.4 3.2-7.8 2.7-6.5v-.3l-.2-.1h1.4v.2h.1v.3h.2v-.2h.2v.2h.4l.1-.2h.2v.2h.1v-.2l.1-.2h.3v-.1h.5v-.2.3h.3v-.4h.2v.3h.8v.2h.3v.1h.1v.3h-.3v.1l.3.1h1.5v.1h.9v-.3h.1v.3h.3l.1-.3h.3v-.1h.2v.6h.2v-.6h.3v.3h.1v.1h.1v.1h.1v.2h.3v.1h-.3.2v.3h.7v.2h.2v-.3h.1v-.1h.4v-.1h.3v.2h.1l.1-.2v-.2l.1-.1h.4l.1-.1v-.1h.1v-.1h.1v.3h.2v.1l-.2.1v.1h.5v-.3l.2-.1h.1v.3h.4v.3h.2v-.2h.1v.3h-.2v.1h.5v-.3h.1l.1-.1h.7v-.3h.2v-.3l.1-.1h.1v-.3h.3v.3h.1v.1h.4v.2h.3v.2h-.3v.2h.8l.1-.2h.1v-.1h.4l.1-.1h.1v.3h.2v.1h.3v.2h.1v.1h.2v.4l.1.1v.1h.1v.1h.1v.2h.3l.1-.2h.3v.2h.1v.1-.3h.8l.2-.2h.1v.4h.3v-.2h.3v.3h.2v.2h.3v-.3h.3v-.1h.1v-.1l.2.2h.2v.2h.1v.2-.2h.2v.1h.3v-.3h.1v.5h.1v.1h.3v.1h.5v-.4h.1v.4h.1v-.3h.2v-.2h.1v-.1h.3l.1.3h.1v-.3.3h.3v.1h.1v.1h.1v-.4l.2.3v.1h.2v.1h.3v.3h.5v.1h-.2v.1l.2.1h.1v-.3h1v.4h.1v.2h.3v-.3h.1v.3h.1l.1.1h.2v-.3h.1v.3h.1v.1h.2l.1.2v-.4h.1v.2l.1.2h.1v.1-.6h.6v-.2h.3l.1-.1v.3h.4v-.3h.1v.3h.5v.1h.2l.1.1h.2v.1h.5v-.2h.2v.2h.1v.4h.2v-.4h.1v.2h.3l.1-.2.2-.2h.1v-.1h.3v.3h.1l.1-.2h.3v.5h.4v-.3h.1v.2h.1v-.2h.3v.4h.1v-.3h.2v.3h.2v-.3h.5v-.2h.4"/></defs></svg>