<svg xmlns="http://www.w3.org/2000/svg" viewBox="0 0 497 279"  xmlns:v="https://vecta.io/nano"><path fill="#f2efe9" d="M0 0h497v279H0z"/><g fill="#aad3df" fill-rule="evenodd"><path d="M248.3 49.3v1.2l.2.4.6.2h.3v-.3l.2-.1h.4l.5.5.7.6.5.2.5.3.8.2.8.2h.2l.8-.1v.2h.2v-.3l.4-.1.6-.4h.6v.2h.2v.3l.6.4.6.2h1V53l1-.3h.2v-.3l1.4-.6v-.1h.1v-1.8l-.2-.1-.3-.3h-.2v-.1h-.1l-.2-.1.3-.3v-.3h.3v.3h-.3v.2l-.1.1.3.2h1.4l.1-.3h.6V49l-.2-.1v-.1l-.1-.3.5.5.3.3h.1l.1.1.3.1h.2l.2.2h.3l.3-.3h.1v-.1h.4l.2.2h.2l.2.1.1.1h.2v.3h.2l.1.2v.1l.8.6.2.1.2.3h.3V51h.2v-.3h-.3V50h-.2v-.2h-.2l-.1-.1h-.2l-.1-.1h-.8v-.2h-.3v-.1h-.5v-.1h-.2v-.3h.2v-.4h-.2v-.1l-.2-.2v-.5h.2l.2-.2h.1l.1-.1.3-.3V47l.1-.2v-.1l.3-.1h.1l.6.3v-.2h.4l.1-.2.2-.1v-.1h.7v1h-.2v.3h-.2v.6h.3l.1.2h.3l.2.1h.2v.3h.2v.1h.4l.4-.5h.6l.2-.2V48h.1v-.5h-.3v-.2l-.1-.1-.1-.2h-.1v-.2h-.3v-.1h-.3v-.1h-.7l-.4-.2-.1-.2h-.2l-.2-.1-.2-.1v-.5l-.1-.1-.5-.1-1-.6-.4-.3v-.2h-.1V44l-.1-.1-.1-.2-.3-.1h-.4l-.1.3h-.3v.1h-1.9l-1.5-.2h-.2l-.3.1v.1l-.3.5v1.2l.3.1v.2-.1l-.3-.3-1.4-2.3-.3-.8-.6-.5-.5-.6h-.2v-1l-.1-.1h-.8l-.1.3v.1h-.2v.3h.3l.3.2.1.1h-1.3l-.1.2h-.2l-.6-.3h-.7v.2h-.1l-.4.6h-.8v.5l-.3.1-.3.4v.5h-.2v.1h-.1l-.4.6-.5.6-.3.5-.8.4-.9.9-.3.3-.3.4-.4.6-.2.3zM93.5 232.1h.3l1.2.2h1l1.5-.3 1.7.6h1.5l2 .1h1.3l.8.6 1.9.9 1.3.4 1.3.2v.5l-.7 1-1.1 2.3.9 1.7.3 1.1.3 1.3v3.6l.8 2 .5.7 1 1 1 1.6.9.6 1.4.5 1.7.3 1.5-.3 2.7-.6 1.5.2-.4 2 .7-.2.3-.9.7-.6 1.1-.3.8-.3 2.3-.3 2.5-.2 1-.1.9-.4 1.5-.4 1.4-.9 1.2-.9 2.2-.5 1.8-.3h.8l.2-.4-.7.4-.2-.8 1.6-.7h1l1.6-.3 2-.5 2.2-.3 2.5-1v-.8l-.2-1.3-.5.1-.6.2-1.1-.4-1.4-.5-.2-1-.3-.5-.7.4h-1l-2.9-.4-1.4.2-.6.7-1 .6-.3.3-1.1.1-1 .5-.7.5-.7.1-1.6 2.9-.4.6-.5 1.2-1.2 1.3-1.1.2-1.5.3-2 .7h-1.2l-.6.5-1 .3-1.6.3h-2.3l-1.7-.4-1 .3-1.1.6h-1.2l-1-.1-1.1-.3-.9-.8-.7-.7-.9-1.1-.6-1.1-.1-1-.5-2.8.2-1.3-.2-1.5-.1-1 .1-3.3.4-1.5.5-.6-.2-.2-.4.3-.1-.7-1-.2-.9-.5-1.1-.6-2.1-1h-2.5l-2.1-.2-3-.3-3.4.2zM321.9 58.3l1 1.3 1.6 1.1 2 .7 2-.7 2.9-.6 3.4 1.4 1.8 2.5.7 1 .8 2.1.2 2-.3 1.4-1.1.9-1.9 1-1.3-.3-.7-.2-1.2-.5-1 .6-1.3 1-.8 1.4-.4 1.7.4 1L330 79l3 2.5 1.8 1.3.2 1-.5 1-.4 1.6 1.2 2.9.2 1.7.2 1.3.3.7v1l-.8 1-1 .3-1.6 4.8v1l1 1.9.7 1 .9.7 1 .3.8-.5 1.8-1.6 1.2-.4v-.6h.8v-.9h-1l-.9.2-1.3 1.2-.8 1.1-.7.7-.6-.4-.2-.3-.8-.7-.5-.8-.6-1 .6-2v-2.2l.8-1 1-.3h.7l.2-.5-.1-1.6-.3-1.4v-1l-.1-.7-.3-1.2-.4-1-.5-1.3v-1.3l.5-1v-.9L335 82l-.8-.5-1.8-1.3-2-1.8-.9-1.4.5-2.7.6-1 1-.9 1.2.4 1.2.5 1.5-.1 1.3-.7 3-2.5 1-.9.8-1.4-.1-1.5-1.2-.2h-1l-.6-.3-1-2.3-1.1-2.2-1-.7-1.4-.8-1.6-.7-2-.3-1.9.7-1.9.6-.5-1-.5.7-.5.3-.5-.6-.6-1.7.8-.8 1.5-.1 2.5.2 2.5.2 2.5-1.1.5-1.2.2-1.7 1.7-2.7.9-1.3 1.3-1.2 1-.8 1.4-1 1.5-.1 1 .3 1 .7-.3 2.4-.5 1-.7 3.5.6 1 1.9 1.1 1.2.2.3-1-1-.1-1.5-1.4-.2-1 .2-1.1 1.3-2.1.5-1.2-.1-1.4-.4-.7-.6-.8V45l-.2-.2-.8-.5.1-.3v-.2l-.5.6-.4.2-1-.4-2 .8-2.8 2.2-1.6 1.4-2 .3-1 .6 1.6 1.2-1.5 4.2-1.1.8h-1l-1.1.1-1.7-.2-2 .2h-3.5l-.8 1.4zm-47.6-23.8l.2 1.5.3 1.1.4.7.5.5.5.7.1.2.4.7.5.1h.1l.3.5h.1l.3.1h1l.7-.2.3-.1h.7l.2-.2h.3l.2-.1.4-.2.5-.4.4-.2.2-.3.4-.5.3-.3.1-.2v-.4l.1-.3.3-.9.2-1v-.7l-.3-.4-.1-.1-.4-.1h-.3l-.2-.5h-.3l-.3-.2-.1-.2V33l-.5-.7v-.4l-.2-.5-.8-1-.8-.5-.4-.1h-.9l-.5.2-1 .5-.6.1-.6.2-.5.8-.5 1-.5 1.4zm208.3 127.3l.4.6.4.3h.3l.2.2h.1l1 .1.3.4.4.1 1-.4.2-.2v-.2l.7-.7h.4l1-1h.9l.3.3h1l.2-.1h.9l1.2-.4.3-.3h.2l.8-.2.5-.1h.3l.7-.4.4-.1.3-.1.4-.1.2-.1h.2l.2-.2h1.1l.3-.5v-.6l-.4-.3v-.3l.2-.5h.6v-.8l.2-.2v-.2l-.3-.3-.2.1h-.2l-.6.2-.2.4-.5.4h-.4l-.5-.4h-.3l-.3-.2h-.6l-.3-.2-.8.8-.4.1h-.5l-.2.2h-.7l-.2-.1-.1.1h-.2l-.2.1h-.1v.2h-.5l-.1.1-.4.1-.1.3h-.2l-.4.2h-.2l-.3-.4v-.2l-.2-.3v-.7l-.1-.1v-.4l-.1-.2h-.3l-.4.1-.2.5-.2.2-.5.3-.2.2-.1.3h-.3l-.2.3v.2l-.2.2v.1l-.4.2v.3l-.3.4-.3.1-.2.3-1.1.7h-.1l-1 1-.6.4zM68.8 298.2v1.4l.8-.2V298l.7-.5 1-.4.7.2.8.8 2 .7 1.4.2h1l.7-.3.7-1.4.2-1.3 1.2-2.3.6-1.8h.6v-.2l-.7-.6v-.5L79 288l.3-.9.6-.4 1.1-2.3v-1.7l.5-.9.8-.8 2-.5 2.4-.9.9-.5.7-1.1.8-1.1.9-1 .8-.1.9.4 1.2.9.7.5 1.4.2 1.5-1.4.7-.6 1-.8 1.4-.8 2.5-1h1.5l1.2.3 1.8 1.1 2.4.8h1.4l1.2-.4.4.5.5 1 .5.1v-.2l-.2-.2-.4-.5v-.4l.2-.5.3-.9-.3-.5-.9.7-.8.2-1.1.3-1.2-.1h-1L105 273l-.8-.3-.7-.1-2 .4-1.7.6-2.8 1.8-1.3.9-1 .6H94l-2-1.2-.8-.7-1.4.4-.6.6-1 1.4-.8 1-2.1 1.3-1.3.3-2.4.7-1 1.3-.1 1.7-.5 1.5-.9 1.1-.5.7-.4 1v.6l.8 1.4.7 2.3-.1.6-.7 1.8-.5 1-.7 1.2-.9.9h-1.7l-1.8-.5-.8-1-.5-1.5-.3-1.2-.8.3.8 1.1.3 1.2-.4.1-1 .2-1.2.6zM250.9 61.9v.9l.3.2v.3l.1.3.2.2h.3v.2h.7v.2h.5l.8.2h.7l.4-.2h1.3v.2l.3.1v.2h.1v.1h.1v.1h.1l.2.4v.1h.3l.1.1h.6l.2-.4.4-.1.2-.3v-.3l.2-.4.3-.8v-.4l.1-1.1v-1.1l-.3-.6v-.2l-.3-.5-.5-.3-.3-.3-.3-.4-.3-.1h-.2V58h-.2l-.4-.3h-.2l-.1-.1h-.6v.2h-.1l-.1.1V59l-.4.4v.2l-.1.2v.1h-.3v.1h-.1l-.4-.2h-.2v-.2h-.8v.3h-.2l-.4.2h-.3l-.1.2h-.2l-.3.3h-.2l-.1.1-.1.1-.1.2h-.1l-.1.4zm0 0"/><path d="M303 61.8l.7.6.4-.5.7-.3h3l2.4-.6 1.1-.4 1.7-.3 1.4.3 1.4.4 1.2-2 .4-1.7.2-1.6v-2l.3-.4 1.2.5.7.6 1.5.8 1.2.1h.9l2.6-1.8 1.8-1 2.7-2.2 1-1 1.6.2.9-.6-1.5-.7-1 .1-.7.7-.5.4-1.6 1.6-1.5 1.4-3 1.8-1.4.2h-1l-1.1-.4-1.1-.7-1.9-.5-.7.6-.1 1 .1 1.2-.7 1.4-.3 1v1.1l-.5.6-1 .1-.6-.3h-1.7l-1 .2-1 .8-1.4.5H305zM152.3 130l.1.3.2.2.4.6.4.2.2.2.2.2.3.3h.7l.5-.1.1-.1h.2l.1-.3.2-.2v-1.5l.4-.4.1-.6v-2.3l-.2-.1-.1-.4h-.3l-.4-.3-.6-.2-.2-.2-.1-.2-.1-.1h-.4l-.2.3-.2.8-.1.4v.8l.1.3v.2l-.4.5-.6.9-.3.6zm123.5-87.6l.2.3v.3l.2.2v.4h.1l.1.2.3.2v.4h.2v.1l.1.2.3.3h.1l.1.3v.1l-.2.2v.2h.4v.2h.1v.3l-.3.1v.3h.4v.1h.1l.1.1h.2l.5-.2.2-.1V46h-.4l-.1-.3v-.1l-.2-.3V45h.4l.1-.2h.2V44h-.2l-.1-.2-.2-.1v-.1l.3-.2V43h-.3l-.2-.5-.1-.5v-.4l-.2-.2-.1-.1-.2-.1-.4-.2h-.3l-.2.3-.5.4h-.1l-.2.1v.2l-.2.2v.1zM466.5 7v.4l.5.3h.3l.2.2h.5v-.2h.3l.2.3.2-.2v-.2l.6-.6.2-.5.5-.5V5l-.3-.3h-1.1l-.1.1-.5.6-.2-.2-.2.2.2.3-.4.5v.3l-.2.4-.3.1h-.1l-.2-.1zm-5.3 5.8l.2.2h.2l.4.3h1.1l.4-.3v-.3l.3-.4v-.2l-.2-.4-.4-.4H462l-.6.7-.2.2zM451.8-.8v.3l.5.2v.2l.2.4h.3l.2-.3h.2l.2-.4v-.3l-.2-.1V-1h-.7l-.2-.1h-.3l-.2.1zm-93.1 265l.2.3v.1h.7v-.3h.1v-.1l.3-.2v-.2l.3-.1v-.6h-.3v-.1h-.5v.2h-.2v.4l-.2.1h-.1v.3l-.2.1zM459.4 5.4v.2l.5.2h.5v-.1l.4-.5-.3-.5-.2-.1v-.1h-.6l-.2.3-.1.2zm0 0"/></g></svg>