<svg xmlns="http://www.w3.org/2000/svg" viewBox="0 0 497 279"  xmlns:v="https://vecta.io/nano"><path fill="#f2efe9" d="M0 0h497v279H0z"/><g fill="#aad3df" fill-rule="evenodd"><path d="M115 322.5h.2l.8-.2 1.5-.3 1.6-1 .9-.7h1v.6l.2.1.2-.2-.2-.7h-.2l-.5-.1.7-.6.8-1.4.5-1 .4-.5.7-.6.4-.9 1-2 1.2-1.4 2.4-1.9 1.4-.1 2.2.1 6.2 1.5 5.2 1.2.8.1.9-1 1.9-1.2 4.7-2.9 1.7-.6 3.7-1.5 2-.1 2.1-.6 2.4-1.5.5-.3.5-1 .2-1.8.7-.5.4-.3 2.3-.9 1-.3 2-.4 4-.8 2.6-1 2.8-1.3 3.2-.2 2.4 1 .9.5.3.2h.4l1.3 1 1.4.6h1l.8-.2 1.1-.4.5.3v-.3l1.2-1.5.5-1 .4-1.5v-1.2l-.2-1.2.6.4h.6l2.4-1 1-.6 2.1.8.2 1.1h.6v-.8l-.5-.7-.6-.6-.8-.6h-.8l-1.2.4-1.3.6-1.6.4-.8-.2.1-.8.2-.7.4-1.3 1.4-2 2-1.1 3.7-.7 2.9-.5 1.8-.7 1.8-2 .2-.4h.3l.3-.2-.5-.3v-.6l-.5-1.6-.4-.7-1-.7-1.6-2.3-1.7-2.9-.6-1.7v-.2h-.2l-.3-1-.6-3.6v-2l.4-1.9.5-1.9.5-1.2 1.2-.8v-.6l-1.1.3.6-1.8 1.5-2.5 2-3.3 1.4-1.6 3-3.3 2.6-1.5-.4 1 .1.3.8-1 1.2-.9 1.3-2.1-.6-2.5.2-1.8.2-.7 1.5-2.1.5-2.8.3-2.6v-2.2l-.3-1.6-1.1-2.5-1-3.5-.4-1.9 1.1-2.4.9-2.4.3-.7v-.3l-.5.5-.3-2.5.4-2 .5-3.4 1-5.1.3-1v-1l-1.9-2.9-1.5-2.5-3.5-4.5-1.3-1.8-.7-1.6-.2-1.5.8-3.4 1.6-3 1.9-3.1.5-.7 1.3-1.8 4.2-3.2 4.5-3.5 2.1-3 .8-3-.8-.6v-3l-.9.2-.3 2-.2 2.7-1.2 1.8-2.6 2-3.3 2.4-5.9 4.5-.9.7-.7.2-2 1.7-1.5 2.4-.5 1.1-1.1 2-.4 2.7.6 1.2 1.2 2.5 3 3.8 3.4 3.3 2.4 3 1.2 3.9-.3 2-1 3-1 3.8-1 1.4-1.4 2v2.1l1.2 5.1v.9h-.4v.3l.6-.3 1.3 3.4 1.3 3.1.4 3.2-.8 4.7-1.4 3-.8 1 .4 4v.8l-1.6 1.3-2.1.5-3 2.2-2.2 3-3.6 5.4-2.2 4-1.4 2.1-1.1 3.5-.1 2 1.4 3.6 1.5 3.2 1.8 2.6 2.4 3.2 1 2-.7 2.1-2.5 1.1-5.7 1.4-1.9.6-1 1.2-2.6 1.5-.9 1.2.4 1.3 1.1 1.7.6 1.7-.1 2.6-.2.9-.8.7-1.5.3-2.2-.3-2.7-1.4-2-1-2.8-.5-2.2.2-4.5 1.1-4.3 1.8-1.7.2-1.4-.2-2.5-.4h-1.3l-1.5 1-1 .9-.5.9-1.7 2-1.4 2.1-3 1.6-3.1 1.7-4 2.2-2.9 1.7-2.7.7-3.3-.5-4-.3-1.7-.4-3.7-1.3h-1.5l-2 1.1-.6.7-1.5 1.7-1.3 2.3-1.7 2.8-.5.4v.3l.5-.4-.7 1-1 1.1-2 1.5-1.4.5-1.6.1zm244.1-195.7l.3 1v.2h-.3l.2.4.5 1.6v.1l.5 1.1.5 1.1 1 1.9 1 1.2 1.4 1.4h.4l.1.1.7.1h.6l.2-.3h.3l.2-.2h.3l.6-.5 1.4-.6.5.3 1 .3.3-.1h.5l.2-.3.6.5.3-.1h.8l.8.1.3-.1h.4l.6.3.3-.3 1 .4 1.3.2.3-.2.3.1.5-.1v-.2h.6v-.2h.4l.5-.3.2-.3.1-.1.6-.6.8-.5.2-.4.1.2.3-.4h.4l.3-.5.2-.3.3-.5.5-.3v-.3l.6-1.2 1.4-1.7.3-.2.6-1.6.6-.6v-1.7l-.3-.2h-.4v-.5l.5-.6h.2l.3-.1.1-.8.2.2.2-.1v-.2h-.3l.1-.4.2-.2h.4l.5 1.2.3.2 1 .1.1-.2h.5l.4-.3h.3l.3-.4h.2l.5-.4v-.2l.6-.1.1-.3v-.4h.5v-.4l.4-.6v-.7l-.4-.4v-.2h.4l.1-.3v-.2l.3-.3v-.5h.1l.2-.4v-.3h-.3v-.2l.4-.1.3-.4v-.1l.2-.1v-.4l-.4-2h-.3l.5-.6.1-.2h-.1l-.6.1-.6-.7-1-1-.8-.5h-.8l-.5.1-.1.4h-.7l-.6.6-.3.4v.4l.4.6h.2v.2h-.8l-1.8.3-.2.5-2 .3-1.3-1-.8-.4-.8.1-.5.5-.3.5-.6.3-2.5.4h-.5l-.5-.2h-1l-.1.2h-.5l-.2.1-.7.5-.8.7-.5.2-.3.3h-.3l-1.6-.5h-.2l-.3.2-.7.4-.2.5h-.1l-.3.3-.2.1v.1h-.1l-.4.4-.9.6-.3.8-.4.4-.2.4-.7 1.3-.9.5H365l-.4.4v.1l-.4.2-.4.4-.8 1.2-.4.5-1.3.6-1 .2-.3.2-.6.8zm11.2-93.6l1.1 1 1.7-1 1.2-1 1.1-1.1.6-.6 1-.6.4-.9 1-1.6 1.8-2.4 1.2-1.8 1-1.8.6-1.4.4-1.5.2-.6v-.6l-.3-.7.2-.6-.2-2.3-.2-1-.8-.8-1-1.5L380 8l-.8-1.4-.5-1.4-.3-1.3-.2-1.5v-.7l.5-1.3.5-1.2v-.7l.3-1.5.5-1.5.4-1.1.5-.7.5-.8.4-.9v-1.4l-.5-.9v-.9l.5-1.2.5-1 1.3-1.3 2-1.4 2-1.4 2.4-1.4 1.4-1.1.9-1.3.1-1.7.6-1.4.9-1.2 1.7-.9 1.9-1 2.5-1.3 2.4-.4 2.1-.1 1 .7 1.7 1 1.4 1.4 1.4 1.4 1.3 1 1.8.7 1.9.2 1.6-.1 1.1-.9h.3l.5-1.1.5-.8.8-.8.1.6.7-.2.5-1 1-.8.2-1.4 1.1-1.5 1.4-1 .9-1.3.4-1.5.7-1.2.7-.5v-2l.6-1.2 1.2-1.4.5-1.3 1-1.5 1.6-2.3 1.8-1.2 1.8-.5 1.5-.2 2.6-1 1.9-.2h2.5l1.5-.2h7.2v-2.1l-1.5-.7-.7-.6-.4-.5h-.3l-.5.5-1 .1h-.7l-1-.8-2.1-1.1-1.3-.4-1.5-.4-1.4.4-1.4.3-2.1.8-1.2.8-1.8 1-1.2.4-1.6.4-1.6 1.2-1.2.7-1.2.8-1.3 1.1-.8.7h-.7l-1.2.1-.6 1.3-.7 1.4v2l.4 2-.1 1.4-.2 2.3.8 1-.2 1.5-1.1 1.7-1.3 1.4-1.9 1-1.8.2-2.1.7-2 .3-2.4-.7-.9-.4-1.4-.6-2.6-1.2-3.4-.6h-2.6l-2.9.3-1.9.5-.9 1.4-1.5 1.8-1.5 1-1.7 1-.8 1.9-.6.5-.6.3-.5 1-.3 1.1-1 1.2-.9 1.2-1.6 1.8-1.5 1.6-.9 2.7v1.3l-.5 1.9-.4 1.8-.8 1.4-1.1 1-2 .7-1.3.5-1 .7v2l.4 1.9 1 2.2 1.9 3 1.5 2.1 1.3 1.9 1.2 1.5.9 1.4.5 1.4.2 1.7-.3 2-.4 1.7-1 2.3-1.2 2.1-.9 1.4-1.7 2-1.4 2-1.6 1.3-1.5 1.5zm4.3-34.9l.4-1.2.6-.7 1.3-.5 1.3-.4.7-.3.2.1-.4.7-.4 1.5-.8 1.8-.7 2.5-.3.1-.6-.5-.7-1-.4-.9zm10.8-17.6l.4-.6.5-.7.3-.9.4-.7.9-.8-.5.7-.3.9v1l-.1.6-.6.4-.8.4zm1.9-.6l.1-1 .2-.9.5-.9.8-1.5 1-1 1-.7.9-.4v.5l-.4 1.3-.6 1.8-1.2 1.3-1.3 1zm7.5-9.1l.2-.7 1-.8 1-.5 1.6-.5h2.2l1.8.3.8.2h-.4l-2 .7-2.4.3-1.7.6zm30.6-14.2V-45l1.6-1.5 2-1.1 2-.5 1.8-.2-1 .8-1.3 1-1.8 2.1-2.2 2.3-.7.3zm1.4 2.7v-.6l.5-.9 1.3-1.3 1-.9-.4 1-1 1.3-1 1.5zm10-11.6l1.3-.6 1.7-.6 1-.3 1.4-.3h1.1l1 .4.7.6.3.4-.3.6-1.3.4-1.2.2-1.5.3h-1.7l-1.7.2-.8-.4zm0 0"/><path d="M280.2 117.1v1.5l.2.4v.5l.1.3v.3l.1.3.1.6.3.4v.6l.1.5.2.5.2.5.2.5.1.2.4.8.2.3.3.4.4.3h2l-.3-.2v-.1l-.3-.3v-.3l-.1-.1h-.3v-.1h-.1v-.2l-.2-.2-.1-.1h-.1v-.1h-.1l-.1-.1v-.6h-.2l-.1-.2v-.1h-.1v-.3l-.2-.1v-.4l-.2-.5v-.6l-.2-.1v-1l-.2-.3v-2l.3-.6v-.1l.1-.3v-.3l.1-.5.1-.4.2-.4v-.4l.3-.2v-.3l.1-.3.2-.2.2-.4.1-.1.2-.2.2-.2h.2l.3-.4.5-.1v-.2l.2-.2.1-.2.2-.3.3-.5.1-.3v-.2l.2-.2v-.8h-.3v-.7h-.1v-1l-.3-.4v-.4l-.1-.1v-.3l-.1-.2v-.6l.2-.2.3-.2v-.2l.2-.2v-.2h.3v-.3h.2l.3-.4.3-.3.7-.6 1.7-1.1 1-.7.4-.3.5-.5.3-.4.5-.4.6-.5.6-.5.7-.4 1-.6 1.1-.5 2.6-.8 1.5-.2.5-.3 1.1-.3 1.1-.9 1-1 1.2-1.3.9-1 .6-.5 1.1-.9.6-.6.4-.7 1.8-1.7L312 86l2-2.4 1.6-1.6 1.8-1.7 1.8-1.5.7-.6.6-.8.4-.7 1.1-.7.8-.8.2-1 1-1.1.3-.7.3-.8.5-1.9.6-1.7.6-1.5 1.2-2.2.5-2.3.3-2 .2-5.3-.1-2.6.1-3.1.2-1.7v-4l.3-.4v-.5l.2-.4.2-.5.3-.3.2-.2.4-.3.4-.2.4-.2.2-.1.2-.2.2-.2v-.2l.3-.3.2-.3.3-.6.3-.4.2-.3.2-.3.4-.4.2-.3.3-.3.3-.2.3-.3.3-.2.4-.4.6-.7.5-.5.5-.4.6-.5.4-.6.3-.3v-.2l.3-.1.4-.7.5-.6.5-.5.8-1 .4-.6.3-.2.3-.2.6-.3.6-.3.6-.2.7-.2h.7l.6-.2h2.1l.6.3 1.5.4 1.5.5 1.1.5.8.4 1.2.7.8.4.4.2.7.4.5.4.5.3 1 .9 1.1 1.1 1.3 1.1.7.6.3.2.3.3.6.3.8.5.5.2.3.1h.1v.2h.7v-.4h.4l.1-.1h.6l.3-.1h.6l.1-.2.9-.2.8-.4.5-.3.6-.3.6-.4 1-.4-1.3-1-1.1.8-.5.4-.3.1-.4.2h-2l-1.1-.2-.8-.2-.5-.2-.7-.4-.8-.5-2.2-1.5-1-.7-.1-.3-.4-.3-.3-.3-.3-.3-.6-.6-.6-.6-.5-.4-.2-.2h-.3l-.3-.3-.4-.2-.7-.5-.1-.2-.6-.3-.3-.2-.5-.3-.5-.4-.4-.3-.3-.2-.5-.1-.5-.5-.4-.1v-.1l-.3-.1-.2-.2h-.9l-.5-.3h-2.4l-.4.3-.5.1-.8.2-.6.1-.4.2-.7.1-.3.1-.3.2-.3.1-1.2.5-.7.4-.5.2-.5.1-.4.4-.5.3-.5.5-.4.4-1 .8-1 1.1-.9.8-.2.2-.3.2h-.4l-.4.4-.5.3-.5.3-.3.3-.2.3-.2.2-.2.2-.3.5-.4.5-.2.3v.2l-.4.1-.1.2-.3.1-.3.1h-.2l-.1.2h-.4l-.1.3-.2.1-.1.2-.2.2v.2l-.3.4v.3l-.2.4v.7l-.2.6v.6l-.2 1V48l.2 1.3v2.3l.1.7v1.2l.1 1v2.8l-.2.7v.5l-.1.7v.5l-.1.8-.2 1-.2 1-.3 1.1-.2.5-.2.5-.3.4v.3l-.3.3-.2.4-.8 1.8-1 2-.7 1-.8.9-.5.7-.5.6-.4.5-.4.4-.3.3v.1l-.1.1-.1.2-.2.3-.2.1-.3.4-.1.2-.2.2-.1.1-.2.2-.1.1-.3.4-.2.2-.2.2h-.1v.3h-.3v.1l-.3.1-.1.1v.1l-.1.2-.2.1-.1.1v.2l-.1.1-.2.2v.2h-.3v.4h-.2l-.1.3h-.1l-.1.1-.1.1-.1.1-.3.2v.3l-.2.2-.2.2-.2.3-.2.3-.2.2v.2l-.5.5-.2.3-.1.2-.3.3-.2.3-.2.2-.2.3-.3.5-.4.4-.4.6-.6.7-.4.4-.6.5-.4.4-.7.7-.3.2-.4.3-.5.5-.6.5-.4.3-.3.2-.3.2-.5.3-.5.3-.3.2-.4.3-.5.2-.4.2-.4.3-.2.1h-.2l-.3.3h-.2l-.2.1h-.3l-.3.3h-.1l-.1.2h-.4l-.3.2-.1.1-.3.1-.2.1h-.2l-.3.2-.4.1-.1.2h-.2l-.3.2h-.1l-.3.3h-.3l-.2.2-.3.3h-.3l-.2.2-.3.2-.3.2-.3.2-.3.2-.3.2-.2.2-.2.1-.2.2-.2.3h-.3l-.2.3-.3.3-.3.2-.3.3-.2.1-.2.2-.1.1-.2.2-.2.3h-.2l-.2.3-.2.2-.1.2-.2.1-.1.2-.3.2-.4.2v.1l-.2.2-.2.2-.2.1-.4.2v.1l-.4.3-.3.3-.3.1-.5.4-.3.3-.2.1v.2h-.2v.2l-.2.1v.2h-.4v.2h-.2v.2h-.3l-.1.3-.1.2-.2.2-.3.2v.2l-.2.3-.3.4-.3.2-.1.2-.1.2-.1.2-.1.1-.1.4-.1.2-.1.3-.1.2v.2l-.2.2v.6l-.2.3v.4l-.1.4-.1.2v.5l-.3.4v.9l-.2.2-.1.3-.1.4-.1.1v.2l-.3.3v.2l-.1.2v.3l-.2.4v.6l-.1.2v.6l-.2.3v.6zm2.8-5V111l.2-.4v-.2l.1-.3v-.4l.3-.4v-.5l.1-.2.1-.3.1-.3.2-.4v-.2l.3-.2v-.2l.1-.2.1-.1h.4v.3l.2.5.1.4.1.4.2.5v.9l-.2.6-.1.3-.1.4-.2.1v.1l-.2.1-.1.2v.1l-.3.1-.2.2-.2.1h-.4l-.1.2h-.2l-.3.1zm16-16.2v-.2l.3-.3.7-.4.9-.6 1.4-1 1-.5.7-.4v-.1h.6v.6l-.6.4-1 1-.4.3-.3.3-.4.2-.4.2-.5.3-.5.1-.3.2H299zm30.1-55.4V40l.4-.5v-.4l.3-.5.1-.6.1-.4.3-.3.2-.5.3-.4.3-.4.2-.4.3-.3.4-.4.2-.4.3-.3.3-.4.4-.3.3-.2.2-.3.5-.4.5-.4.4-.4.3-.3.4-.3.2-.1.5-.4.5-.3.2-.1.5-.3.6-.2.5-.2.5-.3h.5v.3l-.2.2-.2.2-.4.3-.2.4-.3.3-.3.4-.2.3-.2.2-.4.5-.4.4-.6.5-.2.3-.3.3-.2.1-.3.4-.2.3-.2.1-.2.3h-.2l-.2.4-.3.2-.2.1-.2.2-.1.1-.2.2-.2.2-.1.2-.2.3-.1.1-.2.1-.1.2-.1.2-.2.4-.2.2v.2l-.3.3-.2.3-.1.3-.1.2h-.2l-.1.3-.3.1-.4.1-.4.3-.4.1-.1.1h-.2zm-359.8 252l1 2.6 1.7-2.4 1.2-2.8 1.6-3.6-.2-1.9v-3.6l.8-1.6 3.3-.2 3.3.2 1.6-.4.4-.8.5-2.7-.6-1.6-.2-1.5.3-5 3.2-3.6 2.2-1.8 1.9-1.1 1.4.3 2.2.8 2.8 2.2.4.7v.7l2.5 2.2 1.4.7 1.4-.3 1.4-.2 1.4-.5 3.6-.6 3.9.6 4.7-.6 2.7.3 1.8.5 3.6 1.1 2.7 1.5 5 1.2 2.1.6 4.3 1.7 2.1.4 3.3 1.6 1 .9 2.1 4.1-.1 3-.5 3.2-.5 2.1-.4.1-.5-.5h-.2l.1.3.4.8.7.4.2.6 2 1.1H53l.9-.5 1.4.2 3.5 1 .7.6h.2l-.3-.6 2.7.4 1.7.7 3.9 2.5 1.3 2 1.3 2.5 1.6 3.2-.7-.3v.3l.9.5.9 1.2 2.6 2.1 1.2.6 2 1.6 4.6 2.2 1.2.2 2.3.4 2.7.7 2.2.4 2.5 1 1.9.4 2.5-.3 2.8 1.3 3 2.3 1.1.8 1.4-1.5-1.6-.8-2.7-2.2-1.8-1.2-2.8-.6-4.2-.4-3.2-.4-2.7-.4-3.5-.8-2.7-1.2-3.8-1.8-3-2.2-1.2-2-.9-1.6-1.1-2.4-.9-1.1-.6-1.4-1.8-2-3-2.5-1.7-1.2-2.6-.5-3.4-.3-2.8-.5-1.4-.4v-1l.2-1.5.5-2.2-.6-.2-.5 1.9-.5 2.1v1l-.2.6-1.1.2h-1l-.8-.6v-2l.6-1.2.1-1.5.2-1.5v-3.1l-.1-1.1-.4-.9-.5-1.6-.1-.4L48 275l-1.5-1.2-3.5-1.2-3.6-.6-2.7-1.5-.5-.5v-.6l-.2-1-.2-.6-.2-.3v2.7l-3.2-.7-3.5-1.2-3.4-1.6-3.6-1.4-3.6-.2-2.5.4-5.2.2H7.3l-1.7.3-1.2.1h-1l-.8-.6v.3l-1.2-.5-2.4-2.1-1.3-.9-2.2-1.4-1.3-.9-1.8-.9-1.4-.7-.7-.6-.3-1.4-.6-.8-.9-1.4-1 .8.9.6 1.2 1.4.1 1.8.4.5v.3l-1.4 1-1 1-1.1.6-3.1 3.6-.6 1.3-.3 1.6-.1 1.6.2 1.5.2 1.3.4 1.7.3 1.2-.3.6-.6.8-1 .4-.9.2-1.2.2-1.9-.1-1.6-.3-.5-.6-.1-1.4h-.3v1l-.4.9-.5.4-1.2 2-.1 1.6.8 1.9.4 2-.9 2-1.2 2.4-1.1 1.3zM406.7 57.6l.3 1v.2l.1.2v.6l.4.3.5 1.6.7.8.1.3h.2v.1h.4v.1h.6v.8h.5l.2-.2h.1V63l-.1-.4.2-.4v-.3l-.1-.1v-.3l.1-.3h.2l.4-.2h.2l.1.2.2.2.4.5.3.5v.3l.1.1h.2v.4l.3.1h.7l1.7.6.6.9h-.3v-.4h-.4l-.1.3-.1.3-.1 1.2h-.1v1.9l.1.2.7.1.4.3h.2l.1.3h.8v-1.6l.3-.6h.2l.2-.2V66h-.2v-.2l.2-.3.3-.5v-.2l-.4-.1v-.4l.2-.1.1-.3 1.1-.7.9-.6v-.1l.4-.5v-.1l.2-.3.1-.3v-1.1l-.1-.4-.1-.3-.5-.5v-.4l-.5-1.3v-.5h-.3V56l-.1-.8v-.6l-.4-1.5-.5-1.4.4-.8v-.3l-.1-.4-.9-1.2-.4-.3h-.3v-.2h.1V48l-.4.4-.4.1-.5-.4V48h-1v.3h-.1l-.8.2h-.9l-.4.1h-.4l-.4.4h-.9v.2h-.2l-.2.5-.3.3h-.5l-.4.4-.3.2h-.1v.2h-.4v1.1l-.2.9v1.8l-.3.1-.3.1v.4h-.3v.4h.3v.1h-.2l-.1.3-.2.1-.3.2v.2l-.2.5h-.1l-.1.2zM-47.4 176.5l.4.5 1.7-.8 1.3-1.5.7-1.4.3-1.7.8-1.8 1.2-1.6 1.4-.4 2.3-.5 1.6 1 2-.9 4.8-3.8 2.1-1 .9-1.3 1-.9 1.3-.8 3-1.4 1.9-2 1.5-2.3 1.8-1.1 2.3.9 1.7 1.5.6.8 3 .7h1.4l2.9-.5 3.7-2 2-2.3.7-1.9-.7-6.8-.2-5.3v-1.8l.5-.8 1.2-.2 1.7 1.1 2.4 1.3 1.2-.7.9-1.3.6-1 1.7-2 .8-.6 3.2-1.5 2.1-.3 2 1.2.6 2 .8 4.1 1 1.2 1.5 1 1.2.3.8-.5.5-.6.5-1 .5-1.2.3-.3.4-.3.3-.7.1-.3h1.3l.7.3.6.3h.6l.8-.2 1.2-1.7.8-.7.9-.1.7-.4V131l-.5-1v-1.2l-.2-.6-.7-.4-.1-1-.9-.4-.3 1.6-.3.4-.7.4h-.5v.2h.9l.4-.1.1.6.7 1.6.5.1.8.3.1.9h-1.2l-.5-.2-.8.7-.5.8-.4.8-1.2.3-1.3-.4-.7.2-.5-.1-.6.2-.7.2-.4-.9h-.3l.4.7.2.6v.7l-.6 1.6-1 .8-1.6-.3-1-.7-.6-.9-.5-1.6-.1-1.9v-1.5l-.6-1.3-2.2-1.3-1.4-.3-4 1.4-1.4.5-.9.3-.8 2.4-1.7 2.6-1.1.5H7l-1.3-.9-1-.9-1-.3-1.3.6-.9.3-.2 2-.2 2.9-.1 3.2.5 4.6-.7 2-.5 1.2-2.1 2.2-.8.4h-.3l-.1-.5h-.8v.4h.5l.3.3-1 .5-2.3.8-3.6-.8-2.9-1.6-1.9-.7H-16l-1 .7-1.5 2-1.1.9-1.2.1-2.8 2.7-1.8.7-5 2.6-1.6 1.3-3.7 3.3-.8.2-2.2.4-1.3.6-1 .1-1 .6-.5 1.3-1 3.1-.8 1-.6.1-.4-.4h-.3l.6.7v.6l-1 1zM229 150.9v.6h1.1l.6-1.8 1-1.3 1.7-2 2.4-1h1l1-.6 2.7-.8 3.1-.5 1.9-.3 2.3-.2 2.5-.2h1.4l1-.4h1.3l1.6.3h1.7l1 .5 1.4.6h1.1l1.9-.2 1.6-.8 1.1-.1 1.6-.7.7-.8.4-1.2.9-1.1 2-1.5 1.8-1.2 1.8-.7h2.9l1.3-.5 1-1 1.9-1 1.7-1.2 1.6-1.2.4-.8.3-.7v-1.7l-.7-1.4-1.9.1.2.9-.3.8-.4.6-1 .6-1.5.2-1.6.6-2 1.2-2.2 1.3-1.7 1.3-1.6 1.7-1.5 1.4-1.5 1.6-1.1 1.1-.7.8-1.2.3-1.1.3h-1.2l-1.1-.2-.9-.5-1-.3-1.5-.1-1.2-.1-.8-.4h-2l-1.7.2-1.3-.4h-2.6l-1.9.9-1.7.7-1.4.4-1.8.7-1.8.7-1.8 1-.8.5-.8.1-1 .3h-1.2l-1.4.6-1.4.8-1 1.1-.8.9-.5 1-.2 1.3zm19.6-9.9l.5-.3.9-.5h1.6l2.4-.2h1l2 .6 1.6.2 1.2.5-1.8.2-1.7.3h-1.4l-2.4-.2-2.2-.1-1.1-.1zm8.6 1.4l.5-.4h5.7l.9.2v.2l-.8.3-1.3.3-.8.4h-1.2l-1.2-.3zm17.9-7.5v-.3l1-.9.9-.7 1.4-.7 1.2-.7 1.1-.7 1.5-.6 1-.4.8-.5.6-.8.3-.8.1-.6.3.7v.8l-.3 1-.7.7-1 .8-1.3.8-1 .7-1 .7-1 .9-.7.5-1.1.3h-1.3zM453.6 39l.1.8v.6l.3.5v.4l-.2.5v.9l.2.3v.9h.4l.5-.1h.7l.3.2.2-.1h.2v-.4l.1-.2-.1-.4v-.5l.6.1.3.2.6.3h.8l.4.3h.3l.3.3v.7l-.1.4v.3h.5l.5-.4.2-.2.3.1.2-.2.2.3.2.3.6-.2.4-.2.4-.2.3-.5.3-.2.7-.2h.4l.6.3h1l.5-.4.4-.2.3-.3.9-.3.5-.3.2.4.1-.2.3-.1.3-.3.2-.2v-1.5l-.2-1-.2-.7-.2-.6.1-.2.2.2.2-.2v-.3l-.4-.3-.5-.3-.4-.5-.6.2-.2.4-.2.2-.4.2-.4.1h-.5l-.6.2-.3-.6-.1.2.3.4v.3l.4.6-.3.4-.5.2-.2-.2-.4-.3-.1-.3h.2v-.3l-.1-.1v-.4l-.5-.3.2-.1.2.1h.5v-.9l.1-.3.4-.4.3-.5v-.5h-.9l-.3-.6-.4-.5-.6-.1-.6-.1-.8-.1h-1.5l-1 .2-.3.4-.4.5v.2l-.2.3.2.1.1.5.4.1h1.1l.6-.1h.5l.3.4.2.6v.5l-.4.4-.3.4-.7.2-.6-.2-.6.1v.2l-.3.2H458l-1 .4h-.7l-.5-.4-.5-.5-.3-.3h-.7l-.4.5-.1.5zm5.7 3.8v-.1h.2l.2-.3h.4v.2h.3l.1.2h.1l.1.2v.1h-.6l-.1.2h-.4l-.3-.3zm26.5 6.3l.2.6.1.5.2.6.1.5-.1.7-.4.3.2.7.3.4.2.5.4.5.2.6.3.4.3.6.5.3.7.2.5.1h.5l.7-.1.6-.1.5-.2.6-.2.5-.3.3-.4.4-.5.2-.5.2-.5v-.6l.6-1V51l.2-.5v-.6l-.6-.5-.2-.4-.7-.8-.5-.2h-.6l-.4.3-.3.5-.5.2-.4-.4-.2-.5-.3-.4.1-.5 1-.9.2-.4.6-.4.4-.3.4-.4.2-.5v-.6l-.3-.5-.3-.5-.4-.2-.6-.2h-1l-.7.3-.2.5-.3.4-.2.5-.6.3-.4.3-.2.5v.6l.4.5.2.3h-1.1l-.5.1-.5.4-.2.5-.2.5zM256.6 194.5v1l.8.7-.3.4h-.1l-.3.2v1l.5.4-.2.2.3.2.3.7h.3v.2h.5l.3.5h.3l.6.3h1.8l.6.2 1.2-.6.4.1.8-.5.6-.6.1-.3-.1-.8.1-.5 1.3.8h1.3l.7-.5.2-.3.1-1.6.3-.2v-.4l.2.4.6.3 1.3-.3h.9l.1-.7-.3-.5-.3-.7h-.5l-1.3-.8h-.4l-.2.3-.1.4.2.4-.3.6v.4l-.2-.1-.7-1.1-.8-.7-.7-.2-.5.2-.6.4-.4-.3-1 1.1-1.2.5-.8.1-.3.4-.1.4-.7-.3-.3-.6v-.5l-.8-.6h-1l-.3-.3-.3-.1-1.4.8zm68.4 75l.2.5.1.4.1.5v.8l.6.3.3.3v1.3l.1.4.6.2.2.4v1.3l.2.4h.9l.5-.3.2-.3.3-.4.2-.3.1-.5.1-.5v-1.2l.1-.4.5-.2h.5l.4.2.3.3v.9l.4.5.1.4.3.3.4.3.4-.3.3-.3.1-.5v-.4l-.5-.3.2-.3.6-.3.2.4.4.2h.4l.4-.2v-1.3l.1-.4.2-.4-.1-.4-.2-.4-.2-.4-.2-.4-.2-.3-.2-.4-.2-.4v-.3l.2-.6v-.4l-.6-.3-.3-.1-.4-.1H332l-.6.1-.4.1h-.4l-.4.3h-.4l-.8-.6-.4-.1-.4-.3H327l-.4.2-.1.5v.3l-.2.5v.5l-.3.4v.3l-.5.3h-.5zM466.6 55v.7l.3.1v.1h.6v-.3h.2v-.1h.2l.1-.1v-.1h.5v-.2h.3l.1-.1h.1v-.2h.7l.1.2h.9l.1-.2h.4v.2h.3v.3h.2l.2.1h.3l.2.2h.2l.2.1.2.3h.2v.8l.2.2.1.2v.4l-.1.3h-.2v.2h.3l.1.3h2.3v-.2h.1v-.1l.1-.1.3-.3v-.1l.2-.2v-.2l.2-.2h.1l.3-.2.3-.2.2-.1h.3v-.2h.3v-.2l-.3-.1v-.5l.2-.2.2-.3.1-.2.2-.2h.3l.3.3h.3l.1.1h.8l.3.2.2.1h.3l.1.1h1.1l.1-.3h.1V55h.3l.1-.2h.2v-.1l.1-.2.1-.2.2-.2.1-.1v-.2l.2-.2v-.7l-.2-.1v-.4h-.2V52h-.2v-.1l-.1-.1-.1-.2-.2-.2-.1-.1-.1-.3-.1-.1v-.1l-.3-.2v-.2h-.5v-.3h-.1l-.2-.1h-.1v-.2h-.2v-.2l-.1-.1-.2-.1h-.5l-.1.2-.2.2h-.2v.1h-.4v.1h-.2v.2h-.4v.2l-.2.1h-.1v.2h-.1l-.1.1-.1.1h-.1v.1h-.1l-.1.2h-.1v.4h-.2v.3h-.1v.1h-.1v.3h-.1v.2h-.1v.1h-.2v.3h-.4l-.1-.2h-.2l-.2-.3h-.2v-.1l-.1-.1V52l-.1-.2h-.3v-.1h-.2v-.1h-.1l-.1-.1-.2-.1h-.5v.3h-.2l-.1.1v.1h-.1v.1h-.1v.2l-.2.1v.2h-.1v.2l-.1.1h-.1v.2h-.2v-.3h-.2v-.2h-.1v-.1h-.2v-.1h-.2v-.1h-.3l-.1-.2h-.5v.3l-.2.1h-.1v.1h-.3v.3h-.1l-.2.2-.2.1h-.6l-.2.2h-.2l-.3.1h-.1l-.2.2h-.3l-.1.2h-.4l-.2.2h-.5v.3h-.2v.1h-.2l-.1.1v.1h-.2v.1h-.3v.3zm-17.9-25.8v.7l.2.2h.1v.7l.2.2h.2l-.3.2h-.1v1.3h.2l.1-.2.3-.2v.3h-.3v.1h.4l.2.2v.6l-.3.1h-.3v.1h-.2v.2h.2l.2.1v.5h.3v.3h.2v-.4h.3l.1.4v.5l-.1.2-.1.1h-.5v.2h.1l.3.2.2.2v.3h.6v.4l-.4.3h.9v-.3h.4l.2.3.4-.1v-.4h.1v-.2h.1l.1-.1h.1l.2-.2h.4v-.3h.2v-.1l-.2-.1-.1-.1h.3v.2h.3v-.3h-.3V35h.3v-.2l.1-.1.2-.3h.3v.2h.2v-.3l-.2-.3v-.2h-.1l-.1-.3-.1-.3v-.6h-.2V32h.3l.1-.3.1-.1v-.3l-.3-.3-.2-.2v-.3l-.2-.2v-1.9l-.2-.1V28l-.1-.1v-.3l.2-.1v-.1l.2-.2v-.8l-.3-.4h-.4l-.3-.2h-.1l-.2-.3v-.2h1.6l.1.3h.9l.1-.3h.4l-.1-.2-.2-.1-.4-.4-.4-.2v-.2l-.2-.2v-.1l.2-.3.2-.1v-.4h-.2v-.3h-.1l-.1.2h-.2v-.4h-.2l-.1-.3h-.6v.1l-.3.1-.1.2-.3.1h-.4l-.2.2-.1.2v.4l-.2.2v.1l.2.2v.5l-.1.4-.1.1-.1.3-.3.3v.1l.1.4v.4l-.1.2-.3.3-.1.2h-.2l-.3.2h-1l-.3.4-.2.1v.6h-.2v.4zm2.5-1.9V27h.1v-.2h.3v-.3h.1v-.1h.9v.8h-.2l-.2.3h-.1l-.1.1h-.8l-.1-.3zm.2 2.7v-.3h.2v-.2l.2-.1v-.3h.2v.4h.4v.2l.1.3h-.2v.2h-.4l-.2.1h-.1zm34.5 101.3h.6l.3.3h.4l.5-.4h.5l.6.4h.5l.3-.3.4-.6.2.1h.5l.4-.2.2.4.3.6.7.4.6.3h.6l.6-.3.3-.8.1-1 .5-.2.3-.8.1-1.2-1-1.5-.4-1.2-.2-.3h-.6l-.3.3h-.4l-.3.5-.7.2-.7.5-.7-.2-.8-.3-.8.3-.4.1-.1.7.1.9.2.4.1.6-.7.3-.7.2-.3.7-.5.2-.2.6zM351.3 271.8l.1 1 .2.2.5.3.3.3.3.4h1.3l1-.1h.9l.3.6.1.3.4.3.3.2.6-.3.3-.2.3-.4.2-.3.1-.5v-.4l.5-.8V271l-.2-.3v-.5l-.2-.2-.2-.5-.4-.2-.3-.3.1-.4v-.4l-.4-.4-.2-.3-.4-.3h-.8l-.4.2-.2.4-.2.4v.5h-.2l-.4.3h-.4l-.9.1-.3.2-.3.4-.3.3-.4.3-.3.3-.3.3-.1.5zm0 0"/><path d="M303.3 80.3v.7l.3.8v1l.1.7.3.7.6.4.7.2.8.5.6.4.6.3h.7l.7-.4.8-.6.5-1 .3-.8-.3-.6-.2-.6-.2-.6.4-.4h.3l.5.4.5-.4.3-.3v-.5l-.2-.3h-.5l-.5.1-.4.6-.5.3-.5.4-.6.2h-.4l.3-.5.5-.4.2-.3h-.6l-.4.3h-.3l-1.3-1.1-.2-.7.2-1v-1.3l-.2-.5-.4.2v.4l-.3.8-.5 1v.4l.2.3v.3h-.4l-.5-.1-.5.1-.3.3zm162-17.7l.3.3.2.2.3.8.2.5.5.3.8-.1.4-.2 1.1-.4h1.5l.6-.3 1.2-.4.8-.2 1-.5v-1.4l-.2-1-.3-.7-.7-.5-.2-.3-.2-.2h-.8l-.4.3-.4.2-1.2.5-.2.4-.6.1-.6.3-1 .3-.4.2-.2.4-.6.2-.5.6-.1.3zM-1.8 176.1l.8.1v.3l.2.4.2.9.5 1 .8.2h1l.6-.4 1.2-.2.8-.8.3-.9v-1.2l-.4-1.4-.6-1.1-.6-.7-1-.2-1.6-.3-.8.4-.6 1-.4.7.1 1.3.1.5zm55.5 108.7l.6.2.7-2 .5.3h.5l1.7.7.3.3v.9l-.3.3-.2 1.1-.5.8v1.6l.3.2 1 .1.5-.5.5-.5.7-1.1.4-1 .6-1.2 1-1.7.4-.5 1.6-.4.9.2H66l.6-1.2-.9-1.9-1-1.5-1-2.4v-1l.6-.6 3.2-.9h1.2l1-2.8 1.3-1.9 1.4-.2.8-.3 1.5-.6.1-1-.6-.7-1-.9-.8-.9-1.4-1-.9-1.8-.8.2-1.3.3h-.8l-1.4-.3-1.3.5H63l-.8-1.1h-.7l.5.8 1.7.8 2.2-.3 2.5.2 1-.5 1 .5.9 1.9 2.2 2 .8.4v.9l-1.9.4-1.8.4-1 1.2-1.4 3.3-3.2.6-1.3.5-1 1.6 2.4 4 .9 1.8v.5l-.9.5h-1.3l-1.1.1-1 .4-1.7 3.3-1 2-.7.7h-.6l-.2-.7.1-.5.4-.7.5-1.3.2-1-.3-.5-1-.5-.9-.5v-.1l-1.3-.5-.8.5-.3.6zM240 155.6l.7 1 .5.4.9.5 1.5.1h1.1l1-.4.9-.6.2-.8-.3-.8-.4-.2-.5-.5-.3-.8-.3-.5v-1l.3-.5-.3-.5-5 2.9zM458.3 61v.2h.2v.2h.1v.2l.1.1.1.1.1.1v.1h.1v.1l.2.2.1.1.1.1v.1h.1v.2l.1.1v.5l-.3.1v.3h-.1v.2l-.1.2v.2h.6v.2l.1.1h.2v-.3h.3v-.1h.3l.1-.1v-.1h.3V64h.5v-.3h.1l.1-.1h.1v-.5l.2-.1h.1v-.2h.2v-.5h.2l.1-.3h.3v-.2h.1v-.5l.3-.1.1-.2v-.7h-.2V60l-.2-.2v-.6h.2v-.4l.2-.1.1-.1h.3V58h-.2.4v-.3h-.2v-.4h-.2v-.1h-.9V57h-.1l-.1-.2h-.3v-.1l-.2-.2-.1-.1V56h-.4v-.2l-.2-.1h-.1l-.1-.1h-.1v-.1h-.4v.3l-.1.1v.3h-.1v.5l-.1.1v.2h.4v.5l-.4.1v.1l-.1.1v.4h-.1v1.6l-.1.1v.1h-.2l-.1.2v.1h-.1v.1h-.2l-.2.2h-.2v.1h-.2v.1h-.3zm-81.4 208v.6l.3.3v.3l.1.3v.6l.4.2.5.2.3.2.2.2.3.1h.6l.4-.2h.3l.2-.4.2-.2.1-.2.2-.3v-.3l.3-.4v-.2l.2-.3.1-.3.2-.2v-.4l.2-.3v-.9l.3-.4v-.2l-.3-.3-.2-.2-.1-.3-.2-.2-.2-.2h-.3l-.3.2-.2.2-.2.2-.3.2-.2.2-.2.2-.3.2h-.3l-.3.3-.5.2h-.9v.3l-.1.3-.2.3-.1.2zm77.5-39.4v.7l.2.3v.4l.2.4.1.3.3.3.3.3h.3l.2.4.4.1h1.2l.3-.1.4-.2.2-.3.2-.3v-.4l.3-.3v-1.4l-.3-.4v-.3l-.3-.3v-.4l-.2-.3-.2-.3-.3-.2-.3-.1h-.4l-.3-.2h-.3l-.7-.3h-.1l-.4.2-.1.3-.2.3-.1.3-.2.4-.1.3v.4zm32-190.6v.3h.2v.4h.1v.2h.2l.1.1h1.2v-.3h.4v-.1h.1l.1-.1.1-.2h.1v-.1l.3-.2v-.4h.1v-.4h.2v.2l.1.1.2.2.1.1h.2l.2.2h.7v-.4h.2v-.1h.2v-.1h.5v-.2h.2v-.9h.3v-.1l.1-.2v-.1l.2-.3.2-.2v-1l-.2-.1V35h-.3v-.2h-.2v-.3h-.5v.3h-.8v.1h-.2l-.1.1h-.9v.1l-.2.2v.1h-.2v.2h-.2v.1l-.1.1h-.1l-.1.2h-.5v.5l-.2.1v.3h-.1l-.1.1-.2.1h-.1l-.2.3v.6h-.5v.2h-.4v.1h-.2v.5zM-2.8 253.3v.7l.2.3.3.4.4.4.6.4.3.1.3.2.5.2.9-.2 1-.6.3-.5v-1l.1-.2-.1-1-.3-.5-.5-.5-.9-.7-1-.1-.9.2-.4.4v.9l-.5.4.2.5zm273.4-128.8l.1.7.3.4.5.7.5.4.6.1.6-.1.8-.3 1-.7.5-.4.5-.3v-.8l-.2-.8-.8-.4-.6-.1-.4.3h-.6l-.4-.4.2-.4.5-.5.3-.5.2-.4-.2-.3h-.3l-.8.3-.7.6-.7.8-.2.5.3.3.2.2-.4.1-.4.2-.3.4zm197.7 7h.1v.3h.1l.1.2v.6h.3v.2h-.2v.2h.2v.2h.1v1.4h-.2v1.2h.2v.4h.3v.2h.1v.1h.1v.1h.1v.1h.1v.2h.3v.1-.4h.5v-.1h.1v-.1h.1v-.1h.1v-.1h.1v-.1h.1v-.1h.3v-.2h1.4v-.1h.5v-.1h.4v-.1h.1v-.2h.1v-.3h-.3v-.4h-.4v-.4h.2v-.1h-.2v-.1h-.6v-.2h-.2v-.1h-.6v.3h-.4v.2h-.6v-.9h-.1v-.1h-.1v-.2h-.1v-.7h-.1v-.5h.3v-.1h.1v-.1h.1v-.5h-.4v-.3h-.1v-.1h-.1v-.1h-.2v-.1h-.2v-.1h-.2v-.1h-.6v.3h-.1v.4h-.4v.2h-.2v.1h-.1zm-236.5 22.4l.2 1.1.8 1 .8 1 1 .4.4-.2.5-.8.4-1.2.2-1.2-.6-1.1-.8-.8-.6-.1zm94.8-135.5h1.6l1.8.3 1.2.6 1.2 1 1.2 1.7 1.1 1.6.8 1.6.9 1.2.6.3h.4l-.1.3h.3l.5-.3.4-.4-.5-.1-.9-.3-.6-.6-.5-1.3-1.1-1.5-.6-1-1.1-1.4-.9-1.1-1-.7-1.3-.6-1.8-.5-1.2-.4zm157.1 118.8v.1h.1v.4h.2l.2.3h1.2v.2h.4v.1h.3l.3-.1v-.2h.3v-.2h.4l.2-.3h.1v-.1h.5v.3h.1v-.3h.3l.1-.2v-.1l.2-.1.1-.2v-1l-.3-.1v-.1h-.1v-.2h-.1v-.2h-1v-.2h-.2v.2h-1.2v-.2h-.1l-.3-.1h-.4v.1h-.1l-.3.2h-.1v.4h-.2v.2h-.1l-.1.2v.1h-.1v.3-.3h-.2v1zM352.2 264.5v.2l.1.2.1.1.2.5v.5l.2.2.2.1v.1h.6l.2-.3h.2l.2-.1v-.2l.3-.2v-.6l-.3-.2v-.5l.3-.1.2-.2.3-.2h.3l.2-.3h.2l.3-.2v-.1l.1-.2.1-.2v-.8l-.2-.2-.2-.2-.3-.2-.2-.1h-.2l-.2-.2h-1.1l-.1.4-.2.1v.2l-.2.2v1.1l-.1.2-.2.2v.2l-.2.3h-.4l-.1.3zm-67.8-147.4l.3.5.3.6v.5l.5.3.5.3.2.2.6-.3 1-1 .3-.6-.1-1.2-.6-.5v-.5l-.6-.3-.6-.1-.6.4-.6.6-.5.7zM385.5 161l.3.8h.8l1.4.6h1l.7-.9h.8l.7-.1h.5l.4-.5v-1.2l-1.1-.3-1.2.9-.4.2-.6-.2-.8.2-1.3-.1-1 .2zm73 7.8l.1.7.4.2.2.1h.4l.6.5 1-.3.8-.5v-.7l-.4-.7.4-.8-.5-.5h-1.6l-.5.6h-.4l-.2.2-.3.6zM306 176.1v.9l.4.4.6.3v.3l.4.2.6.1.4-.3v-.5l.6-.9.5-1.8-.2-.5h-.4l-.4.1-.2-.1-.1.4-.4.3-.4-.2-.2.2h-.3l-.7.7zM479.9 137v.4h.1v.4h.3v.4h.1v.2h.1v.1h.1v.1h.1v.1h.3v.1h.9v-.3h.1v-.1h.2v-.1h.2v-.1h.3v-.1h.3v-.3h.2v-.1h.1v-.9h.2v-.6h-.3v-.2h-.1v-.2h-.1v-.2h-.2v-.1h-.2v-.1h-.3v-.1h-.7v-.1h-.3v.3h-.3v.1h-.3v.2h-.3v.4h-.1v.5h-.3v.2h-.2zM400 59.8l.1.8.3.4.2.4.3.4h.5l.1-.3v-.3l.2.2h.5l.3-.2.1-.2v-.2l.1-.4.3-.4.3-.2h.4l.2-.2h.2l.1-.2v-.6l-.5-.4-.2-.1h-.8l-.7.3-.2.3-.3.4h-.4l-.4-.3h-.3l-.4-.3v.6zm-43.7 201.7v.2l.1.3.2.2.2.2v.6l.2.2v.2h.4l.2-.3h.2l.2.3.2.1.2.1h.2l.2-.4h.1l.2-.2.2-.2v-.2l.2-.2v-1.5l.3-.2.1-.1.1-.1v-.3h-.9l-.5.2h-1l-.2.1h-.6v.2l-.2.3h-.1l-.2.3zm-109-111.2l.2.7h.9l.6.4.6.4h.3l.5-.2-.4-.5-.3-.1-.4-.3.7-.2.5-.3.1-.5-.2-.7-.4-.4-.6-.3h-.8l-.8.6-.4.9zm246.5 63.5l.4.6.3.5.5.2.3-.1.3-.3.3-.2h.4l.2-.3v-.5l.5-.4.2-.1.1-.2v-.4l-.2-.6h-.9l-.3.3-.4-.1h-.5l-.4.3-.3.1-.4.4zm-260.9-52.4l.4.6h1l.7-.3.5-.5.2-.7-.2-.6.3-.4h.4l.7-.2.3-.5v-.5l-.4-.3h-.5l-.3.7-.5.6-.4.3h-1.3l-.8 1.2zm228.9 13.2l.2.4v.5l.4.3h1.4l.2-.2.3.2.3-.2.1-.4v-1.5l.3-.4-.2-.3-.4-.4-.4.1-.2.5-.2.3-.7.1-.2-.2-.4-.2-.4.4zm-11.6-.9l.2.3.1.3.1.2.3.2.4-.3h.7l.7-.4.3-.5-.5-.7v-.8h.3l.5-.6v-.6H452l-.1.5-.1.3-.6.2-.5.3-.4.5v.4zM366 32.1v.5l.6.7.4.5h1l.6-.1.2-.7.2-1.1v-.7l-.6-.5-1.2.6-.5.2-.7.1zm90.7-1.4v.1l.2.3v.6l.1.3v.3l.1.1.2.2v.1h.3l.1.2h.1l.1.1h.3l.2-.2h.3v-.4h.2l.1-.2.2-.2v-.1l.2-.1v-1.2l-.4-.2v-.1h-.1V30h-.4v-.2h-.1v-.3h-.9v.3l-.1.1h-.1v.1h-.3v.2l-.2.1v.3zm35.1 108.8l.2.1h.3l.3.4v.2l.3.4.6.2.7-.1.5.3h.6l.1-.2.4-.4-.1-.2v-.2l-.2-.4v-.6h-.4l-.6-.6h-.3l-.6.4v.4l-.3.3h-.2l-.1-.3v-.2l-.6-.3v.3h-.3v.1h-.3zm-15.6-2.4v.4h.1v-.2.2h.2v.1h.3v.7h.1v.2h.3v-.4h.2v-.1h.1v-.3l-.3-.2h-.1v-.2h.5v.7h.4-.3v.2h.5v.8h.1v.2h.3v.2h.3v-.1h.1v-.2h.3v-.3l-.2-.1h-.4v-.3h-.1v-.1h-.1v-.6h.3v-.2h.4v-.1h.1v-.2h.2v-.2h.2v-.2h.1v-.1h-.3v-.4h-.1v-.3h-.1v.3h-.1v-.3h-.8v-.2h-.7v.2h-.3v.2h-.1v.5h-.1v.1h-.6v.1h-.3v.1zm-223.1.2v.4l.6-.1h.5l.3.4-.3.2.3.6.8.3.7-.1.5-.1.6-.5v-.4l-.2-.2-.5-.3-.2-.1v-.4l-.2-.3-.7-.1-.7.1-.7.3h-.7zM468 16v.3l.2.2.2.2-.1.2.1.1.2.3-.1.4v.2h.4v.2l.3.2.1.1.5.2.4.1h.4l.4.2.1-.3.2.1h.2l.2-.1v-.2h.3v-.3l-.2-.2-.1-.2-.5-.3-.4-.1-.6-.5-.7-.3-.7-.3-.2-.2-.4-.2zM261.7 134.3l.3.7.6.5.8.4.8-.2.6-.4.3-.7-.4-.6-1-.5h-.7l-.8.2zm-4 2.5l.3.4h.8l1-.5.9-.4h.3l.8-.1 1-.2-.6-.4h-.9l-.7-.3h-1.8l-.4.2-.6.8zm232.7-1.9v.5h.1v.3h1.4v-.2h.8v-.5h.2v-.4h-.2v-.4h-.2l-.1-.2h-.2l-.1-.3h-.2l-.1-.3h-.5l-.2-.2h-.2v.2h-.2v-.3l-.2.5v1zm-5.3 60.1l.2.5v.8l.4.5h.6l.1-.1.3-.5.2-.4.1-.6v-.7l-.4-.3-.6-.2-.4.2-.3.2zM419 44.6v.5l.2.3.2.1.2.1.1.1.3.2h.1l.1-.4.2-.3v-.1h.3l.1-.3h.2v-.9l-.4-.2h-.3v-.4h-.3l-.2-.1V43h-.4l-.1.4v.3l-.3.3-.2.3v.1zm51.6 97v.1h.2v.1h.2v.2h.2v.2-.2h-.4.2v.3h.3v.1h.5v.1h.2v-.4h.2v-.1h.2v-.3h.1v-.1h.1v-.2h.1V140h-.4v-.2h-.1v.4h-.2v-.5h-.4v.3h-.2v.2h-.1v.1h-.1v.2h-.1v.3h-.3v.2h-.2v.3zm0 0"/><path d="M456.4 28v.5h.2v.1l.1.1v.1l.1.2h.2v.2h.6V29h.2v-.2l.1-.1v-.1h.1v.7l.3.2h.3v.1h.4v-.3h.3V29h.1v-.5h-.3v-.2h-.9l-.2.3v-.3l-.2-.3v-.2h-.1l-.1-.2-.1-.2h-.5v-.1h-.2l-.1.2h-.1v.1h-.1l-.1.2zM277 137.3l.4.5.6.3.3-.1.7-.2h.2l.2-.3v-.3l-.8-.4-.5-.3-.7-.5-.3.3v.3zM460 31.8v.2l.1.2h.2v.1h.1v.1h.2v.1h.2v.1h.1l.1.1h.3v.2h.3l.1-.3v-.4h.1V32h.1v-.5l.1-.1v-.3h-.3V31h-.1v-.2h-.1v-.1l-.1-.1h-.4v.2h-.3v.1l-.1.1h-.4v.2l-.1.1-.1.1zm17.6 133.9l.4.3v.3l.3.2 1-.3.2-.4.5-.6-.4-.7h-.6l-.4.2h-.4l-.2.5zM371.2 29.2l.6.5.5.4h.7l.2-.6-.2-.5-.2-.5-.4-.5h-.4l-.7.7zM291.8 106l.1.3.2.5.2.6.3.4.3.3.1-.3v-1.5l.6-.6v-.2l-.7-.2-.6.1zm204.7 69.3v.6h.2l.4.4.3.4h.1v-.1h.5l-.3-.2v-1.2l.3-.1v-.5l-.4-.3h-.2l-.2.2h-.4l-.2.3v.2h-.2v.2zm-44.9 1.3l.1.4.3.4.3.1h.2l.2-.1.3-.4.2-.2v-.5l-.2-.4-.1-.1v-.2h-.6l-.3.1-.4.3zm-170.6-41l.4.4.2.2.6-.2.5-.4.3-.2.2-.3-.1-.6h-.9l-.5.5zM455.6 33.2v.5h.2v.3h1l.2-.2h.1l.3-.2v-.2l.1-.1V33h-.3l-.2-.3-.2-.1h-1l-.1.1v.1l-.2.1v.1zm-10.3 127.4l.2.4h.2l.3.8.3.3.2-.1.3-.6v-1.1l-.3-.1-.1-.3h-.4l-.2.3-.3.2zm40.5-12.1l.2.3.2.1.3.2h.2l.3.3.2.3.3.3h.5l.2-.3v-.2h-.4v-.4l-.4-.3-.4-.4h-.2l-.3-.4-.3.3zm-58.5-83.2l.2.3v.2h.3l.1.3.1.2.3.3.5-.2v-.9l-.1-.3v-.1l-.2-.2-.1-.2v.3h-1.1zm32.9-37l.1.1.3.2.2.1.2.3.3.3.4.2.2.1.3.4.2.3.2.4.2.3.3.3h.2l.2.2h.1V31h-.1l-.1-.2v-.2h-.2l-.2-.3V30l-.2-.2-.1-.3h-.5l-.5-.3-.2-.2-.3-.3-.5-.3h-.4zm-2.8-1.9h.2l.2.2.2.1.6.2h.7v-.6l-.1-.1-.2-.2h-.1v-.6l-.2-.2h-.5v.2h-.1v.2l-.1.1v.3l-.1.2h-.1l-.2.2h-.1zm32.7 97.9v.1h.3v.2l.2.1h.1v-.1h.5v.2h.1v-.3h.2v-.2h.4v-.1h-.3v-.2l-.1-.4h-.1v-.3h-.9v.4h-.3v.1h-.1zm-17.5 75.5l.4.3.4.1h.6l.2-.2.2-.5-.4-.3-.2-.2h-.4l-.4.2-.2.5zm-158.3-123v.4l.4.2.5-.3.4-.3.2-.5v-.4l-.3-.1zm-77.4 69.7h1l.6-.8.4-.2-.3-.3-.8.3-.8.5zM482 33v.4h.2v.2h.2v.3h.2v.1h.4l.1-.2v-.1h.2V33h-.3v-.2h-.1v-.1h-.4l-.1-.1h-.2v.3h-.2zm-64.2-7.2v.1h.4v-.2h.3v.1l.2.2h.1v.2h.3v.3h.2v.2h.1v.2h.2-.2v-.3l-.2-.2v-.5h-.1v-.3h-.1v-.2l-.1-.2-.2-.1V25h-.2v-.2h-.4l-.1.2v.3h-.2v.4h-.1zM269.6 126.9l.2.6.4.3.3-.3.2-.3v-.6l-.1-.3-.6.1zm178.1 28.4v.5l.3.4h.6l.4-.2v-.4l-.2-.3-.5-.3-.3.2zm48.9 40.3l.2.2h.7v-.4l-.1-.4v-.6l-.1-.3h-.2l-.2.1-.1.3v.4l-.2.4zm-7.3-48.3l.2.2h.4l.3-.1h.2l.1-.2v-.1l.2-.2v-.2l-.4-.4h-.5l-.5.7zm-5.7 45.5l.1.4h.3l.7-.4.2-.5-.3-.3h-.3l-.3.1-.3.3zm-203.8-56.9l.4.1-.1.3-.3.3v.4l.2.1h.6l.1-.8-.1-.4-.3-.1-.3-.3h-.2zm211.8 1.5l.2.2h.4l.1.2h.3l.4-.3v-.5l-.4-.3h-.9v.6h-.2zm.9 8.9l.2.7.5.3.4-.3v-.1l-.2-.5-.4-.2v-.4l-.4-.1-.1.3zm0 0"/></g></svg>