<svg xmlns="http://www.w3.org/2000/svg" xmlns:xlink="http://www.w3.org/1999/xlink" viewBox="0 0 497 279" xmlns:v="https://vecta.io/nano"><style><![CDATA[.B{stroke:#fff}.C{stroke:#8d618b}.D{stroke-linejoin:bevel}.E{fill-rule:evenodd}]]></style><filter id="A" width="100%" height="100%" x="0%" y="0%"><feColorMatrix in="SourceGraphic" values="0 0 0 0 1 0 0 0 0 1 0 0 0 0 1 0 0 0 1 0"/></filter><mask id="B"><g filter="url(#A)"><path fill-opacity=".5" d="M0 0h497v279H0z"/></g></mask><clipPath id="C"><path d="M0 0h497v279H0z"/></clipPath><path fill="#f2efe9" d="M0 0h497v279H0z"/><use xlink:href="#E" fill="none" stroke="#9cf"/><use xlink:href="#E" fill="#ddecec" class="E"/><use xlink:href="#F" fill="none" stroke="#9cf"/><g class="E"><use xlink:href="#F" fill="#ddecec"/><g fill="#aad3df"><path d="M117.6 24.4v.6l.3.5.1.4v.5l.4.6.2.3.2.3.1.2.2.2h.3l.1.3.5.2.2.3.3.2h.1l.1.2h.1l.2.1v.4l.1.1v.2h.2l.1.3v.2l.1.5v.3l.2.2.1.5v.3l.2.1.2.2h.1v.3h.1v1.6l.3.3v.4l.1.8v.3l-.2.2v1.1h-.1v.2h-.1v.4l-.1.2v.1h-.1v.3l-.2.1-.1.2h1l.1-.3h.2l.1-.1v-.1h.6l.1-.2V38h.2v-.1h.3l.1.1.4.2h.6l.4-.1h.7l.3-.1.7-.4.3-.2.4-.1V37h.3l.1-.2.1-.1h.1l.2-.2h.3l.1-.2h.4V36h.3l.2-.2.2-.2v-.1l.2-.2h.1l.1-.3h.5l.1-.1.3-.1.1-.1.2-.1v-.1l.2-.1v-.2h.1v-.1l.1-.1v-.1h.5l.1-.2.2-.2v-.1l.3-.3V33l.8-.1h.1l.1-.2h.1l.2-.1v-.1h.3l.1-.4.1-.1.4-.4.1-.2.2-.2v-.3h.2v-.2h.2l.2-.1h.1v-.2h.1v-.3h.2l.2-.6.1-.3.2-.5.1-.3.1-.2v-.3l.2-.3v-1.1l-.2-.3V26h-.2v-.3l-.2-.2-.4-.4-.1-.2-.3-.2-.3-.2-.1-.1h-.2l-.2-.2-.2-.1-.2-.1h-.1l-.2-.1h-.1l-.2-.1v-1.2l.4-.2V22h.1v-.5l.1-.4v-.6l-.3-.2v-.2l-.3-.1v-.2l-.2-.2h-.2l-.2-.3h-.2v.2h-.2v.2h-.4l-.1.2-.2.1h-2.1l-.1-.3h-.3l-.4-.3h-.3l-.2-.1h-.2l-.1.2-.3.1-.1.2h-.2l-.6-.4h-.1l-.3-.2h-.5l-.5.1h-.7l-.1-.1-.2-.2-.2-.1-.2-.2h-.3l-.1.3-.3.2-.2.1h-.3v.4h-.2v.3h-.2l-.1.2-.2.1-.4.1-.3.2-.3.1h-.3l-.5.3h-.5l-.3.1-.1.1-.4.1h-.2l-.2.3-.2.1-.1.3-.2.1h-.3v.2h-.6v.1h-.1l-.2.2-.1.1-.2.1-.2.3-.2.2v.3l-.3.2v.3zm7.7 7v-.1l.1-.1h.6l.1.1.1.1.1.2v.3h.2l.1.1h.2v1.3h-.4v.1l-.2.2-.2.2h-.2l-.2-.1v-.6l.2-.2h.2l.1-.1V32h-.1l-.1-.3h-.4v-.2h-.2zm.3 3.6v-.2h.2v-.1h.3v.3h-.1v.3h-.4zm-12.5 30.4v.2l.3.4v1h.3v.2h.7V67h.5v-.2h.1v-.1h.3l.1.3.2.1v.2h.1v.9h.3v.1h-.4v.3l-.4.1h-.2v.2h-1.2v.1h.3l.2.2h.1l.1.1.2.1h.6v.1h.2v.3h.4v.1l.1.1h.4l.1-.1v-.6h.2V69h.6l.7-.1h.4l1-.4.4-.1h.3v-.2h.3V68h.1l.2-.3h1.5l.2.3h.2l.2.1.2.1v.2l.3.1v.5h.4v-.1h.5v-1.4l.2-.1v-.2h.2l.2-.2h1.2v-1l.2-.3v-.3l.2-.2V65H125v.2l-.2.4v.9l-.1.1h-.2v.2h-.5v-.4h-.2V66h.4v-1l-.2-.2h-.6v-.2l.4-.3h.2l.3-.1.2-.3.1-.1.3-.3h.1v-.3h.4v.3h.2v-.3h.1v-.4h.2v-.2h.1v-.1l.2-.1.3-.4h.5v-.1l.2-.2.1-.2.1-.2V61h-.4l-.2.3-.3.1v.1l-.3.1v.2l-.2.2-.3.3h-.2l-.2.2h-.3V62h-.3v-.2h-.1v-.6h.2l.4-.4.4-.4.1-.1.2-.3v-.2l-.2-.1h-.6l-.3.3-.4.2-.2.1h-.3l-.3.2h-.2l-.2-.3-.2-.2v-.1l-.2-.2-.1-.1h-.2v-.2h-.2v.4h.1v.4h-.4V60v.2l-.2.1v.1h-.6v-.1h-.2V60l.4-.2-.2-.2-.2-.2h-.1l-.1-.2h-.4l-.2.3-.1.1-.1.2-.1.1v.2l-.2.2v.4l-.1.3v.1l-.1.1-.2.2v.1l-.3.1h-.2l-.2-.2h-.2l-.1-.2h-.3l-.2-.2-.1-.1v-.1h-.4v-.2h-.2v-.4l-.1-.3v-.7l-.2-1.5v-1.3l.2-.4h.1l.2-.2v-.1l.3-.4V55l.1-.5v-.2l.2-.3v-.8l-.1.2v.2l-.3.2v.2l-.2.3v.1l-.3.7-.3.6-.2.5-.1.5-.2.3v.5l-.2.5v1.4l.3 1.4v1l-.2.2-.1.2v.1l-.2.2V64l.4.1v.1l.3.2v.2l.2.1v.3h-.7l-.2-.2-.3-.2h-.1l-.1-.1-.2-.1h-.1v-.5l-.1.3v.5l.3.1v.4h-.2v.1h-.2l-.1-.3-.2-.2v-.1l-.2-.1-.1-.1-.4-.3-.1-.1h-.2l-.1-.1v1h-.1l-.1.3zm4 1.3v-.2l.2-.3V66h.4v-.1l.3-.1v-.2h.1v-.3h.2v-.2h.3v.5l.1.1.3.4v1.2h-.3v.1l-.2.2-.5.2h-.4l-.2-.3-.2-.2V67zm5.7 0v-.2h.4l.2.2v.3h-.5v-.3zm69.9 24.9v.4h.4l.3.2h.1l.2.2h1.4l.4-.2.4-.1.1-.1v-.3h.4l.8-.1h.8l.8-.2h.4l.2.3h.4l.2.1h.5v.1h.2v.1h1.3l.3.2h1v.1h.9l.5.1h.3l.3.1.5.2h.3l.5.3h.2l.3.2.3.1h.6v.2h.6v.1h.2v.1h.8l.2.1h.9v.2h.3l.2.1.3.2.4.2.9.4.8.4.2.1h.2l.1.3.2.2h.2l.8.5.3.3.4.2.2.2.2.2.1.1.2.1h.2l-.2-.1-.1-.3v-.6l-.2-.2v-.2h-.1V96l-.1-.3v-1.8l.4-.3v-.2l.2-.2.2-.2h.3l.1-.2-.1-.3-.3-.1-.1-.2-.3-.2-.3-.3-.2-.3-.2-.4-.2-.2-.1-.3-.1-.2V90h-.4v.5h-.1v.2l-.2.2-.3.4h-.2l-.3-.1v-.5l.6-.4v-.6h-.2l-.2-.2h-.6l-.2.3-.3.2-.1.3v.1h-.3v1h-.3l-.1.2h-.3v.1h-.5l-.1.2h-.2l-.2.1h-.2l-.1.2h-.3V92h-.2v-.3l.4-.6V91h.2v-.3h-.4l-.1.5h-.3v-.4h-1.2l-.1-.1h-.2l-.1-.1h-.7l-.4-.4-.2-.2h-.6l-.3.2h-.4V90h-.1v-.2h-.4v.2l-.1.1h-.5l-.1-.3-.1-.1-.2-.1h-.1l-.3-.3h-.2l-.1-.3h-.2v-.2l-.7-.9-.2-.4-.2-.3-.1-.1h-.2v-.3h-.2l-.1-.1h-1.1l-.3.3-.1.1-.3.3-.1.2v.1l-.2.1v.5h-.1v.1h-.1l-.2.2h-.2v.2l-.2.1v.1h-.3v.6l-.2.3v.1l-.1.4v.1l-.2.1h-.3l-.3-.3v-.6l-.1-.1v-.1h-.1v-.2h-.2l-.2-.1-.5-.2h-.3l-.3-.1v-.3h-.1v-.1h-.5v.3h-.1v.2l-.2.2v.3l-.1.2v.3h-.7v.3h-.2v.5h-.2v.2h-.3l-.1-.5h-.2v.2l-.1.3h-.1v.3h-.2zm4.2-1l.1-.2h.3v.6h-.3v-.3zm1.8-1.3V89h.3v.4l.2.1v.1l-.2.2h-.2v-.5zm206.7-39.1v.4l.1.1.1.1.1.2h.3v.2h.4l.4-.3h.2l.3.1v.6l.2.4v.8l.1.4v.3l.3.4v.3l.1.2v.3l.2.2.1.2.1.1.1.1.2.1.2.1.3.2h.2l.1.2.3.1v1l-.4.3v.3l-.1.4-.3.2v.2l-.2.3-.2.3-.2.3v.3l-.3.2-.1.3v1.3l.3.2.1.4v.5l.1.2v.5l-.1.2-.1.3-.2.2v.3l-.1.3v.7l.4.2.1.4.2.4.3.3v2.4h-.1v.8h-.2l-.1.1-.3.1-.2.1.4.2.1.2h.1v.2l.2.2v.9h.1v.2l.1.1.1.2.2.3.2.2.3.3.6.6.3.3.2.3.2.2v.4l.1.2v1h-.3v.2h-.2v.2h-.1l-.6.2h-.8l-.1-.3-.4-.2-.2-.1v.7h.3l.1.1h1.5v.2l.2.1v.6l.1.1v.4l-.5.3v.2h.2l.4.2.3.1h.1v.2h.2v.3h.1v.3h.2l.1.2.2.3.1.2.1.3v.2h.2v.7l.2.3v.4h-.5l-.2.1h-.2l-.2-.3-.2-.2h-.2l-.2-.3v.3l.4.2.1.2.1.2.2.4.2.3v.2l.1.4.1.1.1.4.1.1.1.2v.3h-.3l-.3.3h-.8l-.3.2h-.4v.1l.4.1h.4l.2.2h.8l.2.1.1.1v.2l.3.3.1.1.1.2.3.1.2.2.1.1h.2l.2.3.1.2.2.2.2.3.2.2.2.3.1.2.3.2v.1l.3.1v-6l-.2-.4-.1-.3-.1-.3-.2-.6v-.2l-.2-1.1V80l-.1-.5-.1-.8v-.2l-.1-.3h-.2v.5l-.2.1v.2h-.1v.5h-.2l-.5-.5-.1-.1-.2-.2v-.1l-.2-.3V77l.4-.3v-.2l.2-.2.1-.1.1-.2h.1l.1-.1.2-.2v-.5l-.3.2h-.6v-.1l-.1-.1v-.3h-.2v-.5h.5v-.1h.1v-1.1h-.7V73l-.1-.4v-.2h-.4v.4l-.2.1v.1h-.3l-.1-.3-.3-.2-.2-.2-.3-.2-.2-.3-.2-.2-.2-.3-.1-.2V71l-.1-.3v-1l.2-.1v-.2l.1-.1v-.5l-.3-.1v-.9l-.1-.5-.1-.2-.2-.4-.2-.5-.2-.4v-.3l-.2-.2v-.5l.2-.2.1-.2v-.3l.1-.3.1-.2.1-.1h.1v-.4l-.2-.3v-.1l-.2-.1v-.4l.2-.6v-.4l.2-.2v-.3h-.4v-.1h-.3V59h.2v-.2l.4-.5.4-.4v-.2l.2-.4V57l.1-.2.2-.1h.1l.2-.2h.5v-.1l-.4-.1-.3-.1-.3-.2h-.2l-.3-.5-.2-.1-.4-.3-.2-.1-.3-.1-.1-.2h-.1l-.1-.3h-.1v-.2l-.2-.1v-.4l-.1-.4-.1-.2v-.3l-.2-.4v-1.2l-.2-.2-.2-.2-.3-.2h-1.3l-.1-.1V50l.3-.2.1-.3.2-.1v-.6l-.2-.1v-.1l-.2-.1h-.1v.7l-.1.2-.1.4-.1.1v.2zM428 13.8l.3.2h.4l.2.2h.4l.1.2h.2l.1.2h.3v.3l.1.2v.3l.3.6v.7l.1.1.2.2h.3v.1l.1.2h.2v.3l-.3.1v.3h.1l.1.2.2.1.5.5.1.2h.4l.1.3h.9l.2.1h.4v.1h.2v.2h.3l.1.3.2.2.2.4.5.9.2.3v.9h.2l.1.3.1.4v.5l.3.4v.4l.3.3v.2l.3.1h.2l.2-.1.2-.2.4-.4.2-.2.5-.3V24l.5-.2.2-.1v-.2h.1v-3.2h-.3v-.1l-.1-.1v-.4l-.1-.7v-1.3l-.2-.2v-.2l-.2-.2V17l-.5-.7-.2-.4v-.2l-.4-.4v-.6l-.2-.2-.1-.3h-.2l-.1-.2h-.3l-.3-.3h-.1l-.2-.2-.2-.1v.1l-.3.3-.2.5-.2.3-.1.4-.2.1-.2.2h-1.5v.2h-.1v.5l-.1.2-.1.1-.1.1h-.6l-.2-.2-.2-.1V16h-.1v-1.1h-.2l-.3-.4h-.3l-.3-.1h-.2l-.3-.2h-.1l-.1-.2h-.2l-.6-.2-.8-.1h-.2zM89.8 37.9v.3l.4.3.2.3.2.2.1.2.3.1v.3h.2v.1l.2.1.8.9.5.5.4.5.2.2.4.5.3.7.6.6.4.3v.2l.3.3.1.1v.1h.2v.2l.2.1h.1l.1.2h.3l.2.2.1.1.2.2.1.3v.1l.1.2v.3l.2.3.5.5.1.3.2.1v.2h.2l.2-.2v-.5h-.2v-1.1l-.1-.3-.1-.5v-.7l-.4-.2v-.4l-.1-.1-.1-.2-.1-.3-.3-.5v-1.3l-.3-.6v-.4l-.3-.7v-.3l-.3-.4V38l.3-.4V37l.1-.2v-.1l-.3-.2-.1-.1v-.1L96 36v-.5h.3V35H96v-.2h-.6l-.2-.1-.2-.1-.3-.1v-.1l-.3-.4v-.1h-.3l-.3.3-.1.2-.1.1-.1.2v.1l-.2.2v.2h.4v1l-.2.6-.1 1v.2l-.2.1-.1.2H93v-.5l-.2-.1v-.3l-.2-.2-.1-.3-.1-.2-.1-.1-.1-.1H92V36l-.3-.2-.2-.1h-.2v.8h-.2v.1l-.1.1-.1.2-.2.1h-.1l-.2.2h-.1l-.3.2-.1.2zm129.9 59.9l.2.2h.2l.1.3h.3V98l.1-.2.2-.2h.1l.1-.3.3-.1.1-.2.2-.1v-.1l.3-.2v-.1l.1-.1.2-.5v-.2h1.5v.3l.2.4v.6h.4l.3-.1h.1v-.5h-.7v-.7h.1l.2-.3h.1l.2-.1h.7l.2-.2h.2l.1-.1h.2v-.2l.1-.2h.1l.2-.2h.1V94l.3-.2v-.2l.2-.2v-.2l.2-.2v-1l-.2-.3v-.3l-.2-.2V91h-.7v.2h-.1v.4l-.1.1-.1.1-.1.2h-.2l-.3.2h-.2V92h-1.1l-.1.2h-.3v.2l-.3.1v.2l-.2.1h-.1l-.1.2h-.1v.5l-.1.1-.1.2-.1.3-.2.2-.2.2-.2.1-.2.2-.2.2v.1l-.3.1v.3l-.3.3-.1.2-.2.3-.1.2v.8l-.2.2-.1.3zM86.4 8.4h.3v-.3h.1v-.4h.2v-.2h.3v-.1h.5l.1-.1h.1l.1-.3.2-.2v-.7h.1V6h.1v-.6h.4l.1-.2V5l.2-.2.1-.1.3-.2.1-.2h.1v-.2h.2V4l.1-.2h.1v-.1h.2v-.4l.1-1.5V.9l-.3-.1V-.3h.3l.1-.3h.1v-.2h.2V-1l-.3-.3h-.2v-.6h.1l.1-.2.2-.1.2-.1.2-.2h.1l.2-.1v-.2l.1-.3.2-.2.1-.3.2-.2.1-.2h.2l.2-.3h.9l.3.3h.2l.3.3.4.4h.3v-.1l.1-.1v-.3l-.3-.1-.2-.1.2-.1h.1l.1-.2v-.2h-1.8v-.1H93v-.2h-.1l-.1-.3h-.6v.3l-.5.3-.2.2-.5.3-.3.2h-.1l-.1.3H90l-.1-.1-.2-.4-.1.2v3.6l-.1.5-.1.4-.2.4-.2.4-.4.4V2l-.2.3-.2.3v.2l-.3.7-.2.5v.3h.2v.1l.1.2v.9l-.4.3v.7l-.2.2h-.7v.5l-.2.4V8l-.1.1v.2zm3-7.2V1h.3v.3h-.2v.1h-.2zm304.4 11.7l.2.3.2.1v.4l.3.3v.1l-.2.1-.2.1-.1.2h-.2v.9l.2.2.1.2.1.2.2.2.1.1.2.2h.2l.1.2h.3l.2-.3.1-.4.2-.3v-.5h.1l.1-.2v-.2l.4-.4.6-1.5.2-.4.2-.3.1-.2.2-.3h.2l.1-.3.5-.4.2-.2.2-.1v-.2l.1-.1v-.1h-.1V10h-.2V9h-.1v-.1h-.6l-.5.4h-.5l-.2.2h-.4v-.2l-.2-.1V9h-.1v.1l-.1.2v1.4h-.2v.2h-.3l-.1.1h-.2v.1l-.4.2v.1l-.5.6h-.2l-.1.4-.1.2v.1zm9.2 17.3v.3h.2v.3l.4.2.4.2.2.1v.1l.3.1v.3l.3.2.2.2h.5l.4.3h.8l.3-.4.3-.1.2-.2.3-.2.2-.3V31l.3-.3v-1.1l-.1-.2h-.4l-.1-.2h-.1l-.3-.2-.3-.2-.3-.2-.4-.2h-.2l-.3-.1-.4-.1-.2-.2h-.3l-.1.2-.5.5-.4.3-.5.6-.2.2v.2h-.2zM134 65.9v1.4l.2.1v.1l.5.6v.2l.2.1v1.1h.1v-.3h.2V69h.2v-.2l.1-.1v-.2l.2-.1v-.2l.1-.1v-.3h.2l.2-.1h.2l.1-.3h.2l.1-.1h.2v.2l.2.2v.1h.2l.4-.3.2-.1h.1l.2-.2h.2l.1-.1h.2V67h-.3l-.1-.3v-1.2l-.2-.1-.5-.4-.2.4-.1.1-.1.2h-.3l-.3-.3-.1-.1v-.9h-.2v-.1h-.1l-.2.4h-.5v.1h-.2v.2h-1.1l-.3.3v.3zm2 .1v-.2h.3v.5h-.3zm249-34.8v.3l.2.1v.1l.3.6v.1l.2.2v.1l.1.3h.7l.3-.2.4-.2.4-.2.4-.4.4-.2.3-.2.5-.4.2-.2h.5v-.2h.1v-.2l-.2-.2V30l.2-.2.1-.2.2-.3v-.4l.3-.3v-.3l.1-.2-.2-.1h-.3v-.2h-.8v.2l-.1.1v.1l-.2.1v.1l-.1.2-.1.2v.1l-.7.6-.4.5-.2.3-.2.1-.2.1-.2.1h-1.6l-.3.2v.2l-.1.1zm-71 94v.3h.1v.2h.3l.2.2.4.3.2.2.4.3.3.3.3.2h.1l.2.3h.2l.1.1h.2v.3l.2.1h.1v.2h.2v.1h.3l.2.1.3.4h.1l.2.2h.4v-.7l-.3-.1-.1-.2-.1-.2-.3-.3v-.1l-.1-.1h-.1v-.2h-.2l-.2.2h-.2v.2l-.2-.2-.1-.2h-.3v-.1l.2-.1.2-.2.2-.2v-.2l-.4-.3-.2-.2v-.2h-.5l-.1-.3h-.2v-.1l-.2-.1.2-.1h.2v-.3l-.3-.1v-.1l-.4-.2-.2-.2h-.2l-.1.4-.2.1v.1l-.1.1-.2.2h-.3l-.1.2zm-229-98v1.3l.2.7v.6h.3l.1-.3v-1l-.4-.2V28l.3-.2.2-.4h.1l.6.6h.1l.2-.4v-.1l.1-.5v-.2l.2-.4v-.7l-.3-.3-.1-.2-.1-.2h-.2v-.2l.5-.2.2-.1v-.2l-.4-.2-.1-.1v-.1l-.3-.2h-.1l-.4.3v.1h-.2v.2l-.2.1v1h-.1v.1l-.1.1v.2l-.1.6zM339 150h.2v.3l.1.1.4.3v.7l-.2.1v.5h.2l.3.2v.1l.2.1.1.1h.4l.3-.2.3-.1.3-.2h.9l.2-.4v-.6l-.2-.2v-.1l-.4-.2v-.1l-.1-.1h-.2v-.2h-.4l-.4-.1-.3-.2h-.7l-.1.2h-.7zm-26.6-40.6l.1.5.1.4.3.4v.1h.1v.4l.1.3v.5l.2.2v1.8l-.3.2v.7h-.2v.6l-.2.1v.1l-.1.3h.5l.2-.5.3-.2v-.2l.1-.2.4-.9v-.3l.1-.3.2-.3v-.1l-.3-.2v-.1l-.4-.2v-.2l-.1-.1-.1-.2v-.4l.2-.3v-.3h.2v-.3l.1-.1.1-.3v-.5h.2v-.4l-.2-.4-.3-.3v-.2l-.2-.2-.1-.1h-.3v.1l-.1.2v.2l-.2.1v.2h-.2l-.1.3zm84.5-87.1v.3h.3v.3h.6l.1-.4.1-.1.3-.4.2-.3.2-.5.2-.5.8-2.1.3-.7v-.2h-.1l-.2.1-.3.3-.3.4-.4.4-.3.5-.4.6-.2.4-.2.4-.1.2-.1.3-.2.2-.2.5-.2.2zm-41.3 147.3v.2l1.2 1 .2.3.4.6.7.9.2.1.1.1h.1l.2.2h.9v-2l-.2-.2h-.1l-.3.2-.2.3-.1.1-.2.1h-.6l-.1-.2h-.2v-.3h-.3v-.2h-.1l-.2-.2v-.5l-.2-.1h-.1l-.2-.3-.2-.1-.3-.1h-.3zM99.1 48.2v.3l.2.3v.3l.2.3.1.6v.9l.2.1v.1l.2.2v.3l.3.2v.3h.1l.1.3h.2v.1h.3v.2h.2v-.4h-.2v-.2l-.1-.1v-.5l-.2-.1V51l-.2-.4-.5-1-.1-.3v-1.1h-.2v-1.8h-.3v.4h-.1v.4l-.1.3v.1l-.2.2v.2zM218.4 95v.1l.3.2h.2l.4-.3h1v-.2h.1v-.2l.1-.1v-.1l.3-.1.2-.3.2-.1v-.2l-.2-.3h-.3v-.1h-.1V93h-.2v-.1l-.1-.2v-.1h-.5l-.3.3h-.2l-.3.1v.2l-.1.1v.1h.4l.1.2h.1v.4l-.2.1v.1l-.3.1-.1.2h-.1l-.2.1-.1.2zM132 73.4v.6h.1l.1.1h.3l.1-.2.4-.2.6-.7.2-.2h.2v-.3h.1v-.2h.2v-.5l.1-.3.1-.2V71l.2-.2v-.1l-.2-.2h-.1l-.2.1v.2h-.4l-.1-.5v.3l-.2.2v.2l-.1.3v.3l-.2.2-.5 1-.2.2-.2.2h-.3zM367.9 11v.2l.3.1v.1h.2l.1.2h.5l.2-.2.2-.1.1-.1v-.1l.2-.1v-.5h-.3v-.3l.4-.1h.4l.2-.1.1-.3.3-.4.2-.4v-.1l.2-.1v-.2h-.2l-.4.2-.4.3-.7.4-.5.3-.2.2-.3.3-.3.2-.2.2v.2zm27.4 38.3v.1l.1.2h.2l.2.1.1.2h.2v.1h.6v-.3l.3-.2V49l.3-.4v-.9l-.3-.1v-.2h-.7v.3l-.3.1v.2l-.2.3-.3.5-.1.2v.2zM231.6 90.7v.3h.2v.2h1.4l.1-.2.1-.1h.2v-.2h.3l.3-.2h.4v-.1h1.3v-.2l-.7-.2-.2-.1-.2-.2h-.2l-.3.4-.4.2h-.2l-.2.2h-.2v-.3h-.2l-.1-.2-.1-.2-.9-.1h-.2v.2h.2v.4h-.2l-.1.1v.3zm225.3 98.6v.2h.1l.2-.3h.1v-.2h.4l.3-.2h.2l.1-.1h.1l.3-.3.2-.3.3-.4.2-.4.3-.3.1-.3v-.2h-.7v.3h-.2l-.2.2-.4.4-1.2 1.4-.1.1-.1.3zM87.1 34.1v.2l.1.2.1.3.3.4.2.4.2.4v.2l.3.1.1.1.1.1.2.1h.3v-.3l.2-.1v-.4l-.2-.2-.1-.2-.3-.1-.1-.1-.1-.2-.2-.2-.1-.2-.2-.2V34h-.2v-.2h-.5v.2zm19.4 15.3v1.3l.1.2v.1l.4.1.2.3h.2l.1-.4.2-.4v-2.1h.1v-.2h-.4v.6l-.2.1-.1.2-.1.1h-.5l-.1.1zm274.7-20.8v.4l.2.3v.1l.2.2h.2l.2-.1.1-.2.2-.3.2-.3.2-.1.1-.4.2-.1v-.4l-.2-.2v-.2h-.1l-.3.1v.2l-.2.3h-.2v.3h-.5v-.4l-.1-.1-.1-.2v.2l-.1.1v.5zM217.7 88.8v.3l.2.1v.1h.1v.3h.2v.1h.6l.2-.3.1-.1.1-.3v-.1l.2-.1v-.4l-.3-.1-.1-.1-.1-.2h-.6l-.2-.2h-.3zm110.7 51.8v.4h.2v.2l.2.1v.2h.2v.2h.4v-.6h.2v-.6l.1-.1v-.2l.3-.1v-.6h-.3l-.1-.2h-.5l-.2.2v.1l-.3.1v.4l-.2.3v.1zm62.9-114v.2l.2.2.1.2v.1h.2v.2h.4v-.2l.2-.2.1-.1.1-.4.2-.3v-.2l.2-.2v-.5h-.9l-.1.3h-.1l-.3.3-.1.2-.2.3zM458.1 181v.4l.3.2v.1l.1.1.2.2h.6l.2-.3.3-.2v-.8l-.4-.1-.2-.2h-.9v.2l-.3.2zM234 39.6v.2h.3v.1h.9v-.4l.1-.1v-.2l.2-.2v-.6l-.4-.2h-.4v.1l-.2.2-.2.2-.1.3-.2.2v.3zM110.7 9.9v.6l.2.2v.1l.1.2h.7l.2-.3.1-.1v-.2l.2-.4v-.3h-.6v-.1h-.1v-.1h-.5l-.4.1v.1zM140.8 64h.2v-.2l.6-.4.1-.2h.2l.2-.2.2-.2.5-.4.1-.1.2-.3h.3l.1-.1v-.4l-.2-.3V61h-.2l-.1.2v.1l-.2.1-.2.3v.1l-.1.2h-.1l-.2.3-.2.1v.1h-.5v.4h-.2v.1l-.2.3-.1.4-.1.2v.1zm269 63.5l.2.3.2.2h.3l.2.2h.2v.2l.1.3v.1h.3v.2h.3v-.4h.1v-.2h.2v-.4h-.5v-.2h-.1l-.2-.2-.1-.1-.1-.2h-.5v-.2h-.6zm-11.6-99.2v.2l.1.1v.1h.2v.2h1v-.5l-.4-.1V28l.3-.2.2-.2v-.2l.2-.2v-.5l-.3-.2h-.1v.5h-.1l-.1.2-.2.2-.2.2-.3.2v.2l-.3.2v.1h-.1zm-44.5 138.5v.4l.1.3.2.3.2.3.3.3.2.3.2.1.2.2.2-.4v-.3l-.3-.2-.1-.1v-.3l-.3-.1-.1-.2-.7-.6zm42.8 15.7v.3h.2l.1.2h.8l.1-.3h.3l.2-.2h.1v-.3h-.3v-.2h-.9l-.1.3h-.5zM228.6 90.9v.3h.1l.1.2.2.1.1.2h.3l.1-.2h.2v-.2h.3v-.6l-.3-.2-.1-.2h-.6v.3h-.2l-.1.2zm169-25.9v.3l.3.1h.7l.1-.3.3-.1v-.2l.1-.2.1-.2v-.2l-.2-.2-.1.2-.1.1-.3.2h-.3l-.1.1-.2.1-.2.3zm35.9 96.7v.3l.2.2v.1h.1l.2.3.3-.2.2-.3v-.1l.2-.2v-.4l-.4-.2h-.3v-.2h-.3v.2l-.2.1v.2zM195.2 79.6v.2l.2.1h.5v-.4h.2v-.2l.2-.1v-.7l-.3-.2h-.4v.3h-.1l-.1.1v.3h-.2v.5zM419 1v.3h.8l.1-.3.1-.2V0l.2-.3v-.2h-.4v.4h-.2V0h-.1v.2h-.1l-.1.2-.3.4v.1zM124.2 75.6v.2l.2.3h.1l.1.3h.1l.3.1h.5v-1h-.2v-.2h-1.1l-.1.3zM414 9l.2.1v.2l.3.2.3.3h.6v-.1l.3-.1v-.4l-.3-.2h-.1l-.3-.2h-.9zM120.8 73.3v.1h.2v.2h.2l.2.2.5.4.1.2.3.1.3.2v-.3h-.2v-.5h-.2v-.2l-.2-.1v-.4h-1.2zm212.6 76.1h1.1l.4.2h.4l-.1-.2-.2-.2-.3-.1h-.1l-.2-.1-.2-.3v-.1h-.3l-.2.2v.1l-.4.4zm0 0"/><path d="M-100.7 0H89.2l-.1-3.3-.9-1.3-5-3.4-5.2-5.6-6.5-5.2-9.3-10.1-2.5-1.7-5.2-4.4-.9-2.7.6-2.3v-2.5l-.5-1 .3-2.9 2.7-5.6 3-2-2.4-2-1.7-.8-1.8-2.2-2.3-1h-2.1v-.7l-1.4-.8-.8.1.8-1.7-.3-.1-.8 1-.3-1 1.3-1.4-1.6.2L46-63l-.4-.4.1-.7-.8.5v-1.1l1.8-1 1-1.2-3.2.6-.5-.3 2.3-1 .3-.9-.3-.3h.5l-.6-2.3.7-.4-1.7.5-1-.6-.4-1.2.6-1.8-.1-2 .3-.7-.8-.6.2-1.1 1 .1.3-.4 1.9-.7-1.6-.9.2-2.3-.6.4-.4-.5.2-.6h.8l-.6-1.1.4-.7 1.2-.3-.8-1v-.3l.8-.3-.5-.4 2.7.4.3-.7-.3-.6.2-1.1.4-.4.7.4v-1.1L52-92l3.7-1.3 1.5.3.4-.5-2-6.2 1.8 3.5.3-1.4-1-1.4-.5-1.7-.4.7-.8-9.5-1.2-3-.6-5.9-1.7-7.9.5-3.3 1.1-2.4 2-1.9.9-.3 1 1.9.6.3 2.4-4.7-.4-1.9-1.2.3.8-3.7-.2-6.5.5-1.5 1-1v-1l-1.3-.1-.4-1.5-1-1.2-1.2-4.1-1.9-2.3h-.8l-.5.9-.4-.7-.5.4-1-.4-2 1-1.2-.7v-.5l1.2-1.2-.2-.3.5-.7-.4-.9.2-1.1-1.1-.2v.6h-.8l.5-.7-.7.1.3-.6.5-.1-.3-1-2 2.3-1.6-.3v-.4l1-.3-.9-1.4-.9-.2-1.7 1 1.1 2.2-2.3-.6-1.1-4.1 1.4-1.1-1-.8v-.7l-.2-.2-.6.2-1 .4.3.9.8.2-1.3.7-.2 3 .6 1.8-1-.5-2.4-2 .7-.5-.2-1-.5-.4-.5.4v2.2l.3.5-.4.6-4.8-1.3-1-.9.4.1.2-.5-.5-.8.2-1.2-1.9.4-.2.9-.8.7-3.3 1.8-.7-.2-1.5-2 .4.3 1.8-.9.3-1.3 2.8.5-.4-1.6h-4.1l-.3-.4-.5-.2-.8.3-.7.5-2.7.2-1.7 1.3.2 2.3 1.8 1.4h1.7l.6-1.2.6-.3.3.5v.5l-1 2.2-1 .4-1.6-.5-.4 1.4-1 .8 2.5 1.2h.9l1.1.8 1.1-.6-.6 4-.7 2.3.5 2.5 2.2 1v-1.5l.6-.5.1.3-.7 2.7-1 1.5-.3 4.3-1.1 1.4.4 2.2-1.2 1.3-2.5-1.3-4.1-.7-2-1-.8-.2-1.2.6.6-1.4h1l-1.3-.7-.7-1.7-1.5-1.7-.3-2.8-1.4-2-3.4-2.3-4.3-1.5-3.8-2.3-.3-1.5.6.8h1l1-1 .6-1.6 1.7 1.2-.3-1.5 1.5-.6-.7-1.5 5.7-4.1 1.5.3 4.3 2.7 2.5-2.1.8-1.2-.2-.3-3.9 1.6 2.5-2.5-.4-2 .8-1.2 1.6-.4 1 .6.4 1 .6-.6-.2-.6-2.5-1.2v-1.8l2.2-1.9 3.1 1 .5.5.8-.6-.5-.6.7-.3-.6-2.3-2.3-1.4-1.7-1.6-.3-1.2L8-188l-3.4-1.6-1.6-1.3-2-.5-1.7-1.2-.8-2 3.3 1.3 1.2-.4 1.2-2.3-.4-1.4 1 .6.6-.4-.4-1.5-3.7-1-1 .7-.3 1h-.7l-3.7-5.2-.7.8.2 1.4-.8.2-1-.6-2.2-3 .9-.6-.1-2 1.2-1.7-.7-.2-3.2-.2.4 4.6-2.6-.6-.3-1.3.5-.4.1-1.5-2.6-7 .1-.4 1.5-.2 5 1.8 3.7.4.9.5 2.9-1.6.5-.5H-2l.2-.5-.4-1.5 1-4-1.7-.2-1.1-1.1 2 .8 2.7-1.8v-1l-.7-2.2.1-1.3 3-.4 1.3-2 2.7-.4-.8-2 1-1.1.7.4.5-1.2h-.6l-1.8 1.5H4.8l-.2-1.7 2.2-1.1-1.8-.6-.5-1.9h-.7l-.5 2.2-.8-1.1-2 1.1-1.5-1.1-1-.3.2-.9-.7-.3-.5-1.4-1.7 1 .5.4-.3.5-.4.4-.1-.5-.5.1-.3.9-1.5.8-.7 1.5-.7 4-1 2.6 1.7 3.4.4 4.5 1 .5 2.4.3-.6 3.3-.7.4h-3.3l-3.4-1.5-3.1.5-1 .3-.5 1.1-3.4.9-.3.7-1 .7 1.5.2 1.6-.6v-.4l1 3-1.5 1.2-1.1-.2-2.3-1.6-1.3.8.1.8 1.9 2.3v.8l-1.7 1-1.1 1.3-.3 1.4.2 1.5-.7 1.6-5 4.7-3.4 4.4-1 .2-2-2.2 2.6-2.8v-.9l-.5-.4-.8.5-.5-1.3-.5.3.1 1-1.7.7 1.1 1v.8l-1.2 2 .9 1 .4-.1.3 1.6-1.9 2.2h-.5l-.1.4.5.4-.8 3.7-2.3 2.3 2.3.3 1.6 2.7 2.4 2.8h2.2l1.9-.7 1.9 3.6-1.2.6-1.1 1.5-3 1.7.4 2.5-.5 1.7-2 2.2-1.9 1-.4 3.4-.5.1-1.7-.9H-44l-1 2.5.5 2 5.5-.7 3.6.5.5 1-1.6-.8h-3.6l-5.3.8-2.8 1.2-1.4 1.3-2.2 1.3-.9 1.6-1.1.5-1.3-.3-1-1.8-3.3-3-4-1.9-2.6-3.7-.3-1.3 1-2.2 1.3-6.2 1-1.6 2.2.3-.7.3.5 2 .5.6-.5-.9 2 .3.7-1.8 1.3-.7 1-1.6 1.2 1 1.2-.2.6-1.7v-.3l1.5-.4-.6.4.3.3.7 1.2-.3 1.5.8-.8.4-1.9.2-.8-.3-2.3-1.5-.9h-2.4l-.2-.6.7-1 1.1-.4.6.6 2 .3 1.4-.6 1 1.7.6.5.4-.2-.5-1.3 1.1-2.3-.3-1.5.5-1.3-1.4-3.1-.8.7-.1.8-1-1.7 1.4-2.9 1.7-1.3v-.7l-.9-1.8 1.3-.5v-.4l-.5-.5-.4.8-2.6-.6-.1-1.6.8-1-1.2-.3-1.8-1.1-2.6-.4-7.2.8-1.6.4-1.9 2.4-1.3 2.1-.4 3-1.3.3-2.4-1.6.3-1.4-.2-.5-3.6-2.3-.5-.7v-1.7l.9-.5.7.1 1.5-.3 2-2.7-.3-2.7-2.6-3.3-6.9-3.3-3.1-.3-2.1.9 2 1.7-.2.6-.7.7-7.1-2.4-1.5-1.4v-1.9l1.2-1 1.5-.2 1-.5-.2-1.6.5-.3 1.5-.4 4 .4 2.6-.2 9.6 4.6 7.1 2.9 4 .7 1.3 2.3 1.6 4.2 1.2.2 1.3 1 1.1.1 2.2-.3 2-1 2.5-3.9.2-7 .4-1 2.5-4 3.2-3.1 5.3-6.9 2.9-2.8 2.3-3.4 2.7-1 3.2-3.7-.4-1.9.5-1.8 1-.6 1.8.1.5.6-.9-.2 1.1 1.3.5-.5 3.7-.4 1.5-1.2 2.4-1.1 2-2.7 1.8-1.3 1.4-1.8v-1l1-1.6-.8-.6-1.1 1 .1 1.1-1 .5v1.1l-1 .8-3.5 1-1.1 1.9h-1.3v-.9l2.2-6.7 2.4-2.3 1.3-4.1 5.6-6.1 1.7-5.6 1.7-7.9.6-.7-.1-.1H-97l-.7.3-2-.3h-.7l-.3.2v134l2-1.3.9.8-.2 1-1-.4-1.7.8v.2l1.6.7 1.6 1.5 4 2.3-3.3.4.4.6 5.3 1.2v-1.3l1-1.1-1.2-1.6-1.2-.7-1.1-1.3-.4-1.3h2l6.2 3.4 1.8 1.2 2.9 3.5 1.5.4 1-.2-.1 1 .7-1.3-.6-.9h.7l.3 1.2-1.2 2.6 1 4.7-.7 2.7v3.1l-2.2 1.2-1.1 2.4-1.1.3-1.1-3-1.2-.6-2.1.5-.7 3.9 2.6-2v.4l-1.3 1.4-3.5 1.7-1.6 1.7-4.6.8-1.6 1.5-2.5-1-.2-.3zM45.5-68.6l-1.1-.4-.2-.7.8-.5.4.2.6.6zm14.7-82.7l-.6.7h-.3l.2-1.4.3 1zm-62.4 10.5l.2-1.2 2-2.4.2-1.2h2.2l1.2-2 1.4.7 1.4 1.5.6 2.7.8.8.4-.3-2.5 2.7-2 .6h-4l-.9-.4zm-20.2-10.4l.1 1.4H-24v-2.1l.3-.2zm16.7.6l-.5-.8v-1.4l3.2-.9-.6 3-1.4.4zm-1-12.5l-4.3-.5-1.1-1.2-.4-1.4h.5l2.1 1.6 1.9.1zm-19 8.4v.7l-1.3-.3-.5-2 .5-.1zm-65.5-51.1l.2.7-.3.5-2 .3-1.7-.5-.8-1.3.8-.9 1.5.5 1.5-.9.4 1.7.3.2zM3-198.4l.2.4-.9-.4.2-.7zm-13 1l-3-2.3-1-.3-.3-1 2.8-.1 3.3 1.5.4-.2-.4 1.8-1.4.9zm6.3-32.3L-5-230l-1-1-.4-1.6.8-1 1.5-.4 1.1 1.2-1 1.1v.8l.9.6zm3.1-5.5l.2.6H-1l-.1-.7zm-6.9.2l-.2-.2 1.6-.8.7 1.6-1.9 2.3H-8v-1.5zm14 53l4.5-.7 1 1 2 1.2 1.4 1.9-1.2.9-.6-.2-.6.5-1-.1v-.7l-2.9-1.9-2.9-.7-.5-1zm-55.8-.5l.4 1.1v.1l-1-.9.4-.7zM18-169l-.8.2-.2-.2.9-.6zm2-.4l-1.2-.8.2-.7 1.6.1v1zM-100.7 279h279V40l-2.9-.4-5.1-1.3-.8-.7L174 39l-1.4-.8-1.7-1.9-1.6-.8-2 .4.6 2.1-1.4 1.5-1.7-.5v-1.3l-1.3 1 2.2 1.1.3 1.1-3.8.3-.3.5.3.6.4-.5v.6l-2.4 1.9-1.6 3.7-2.7 1-1.1-.2.5-1.1-.8-.3-.4.6-.3.6.6-.2.2.4-.9 1.6 1.6 2.8 1.1-1.5-.7 1.7-2.2 3-3.4.3 1-.3-.1-.8h-1l-.3.6-3-.4L145 58l.2 1.9.8-1-.5 1.6-4.6 4.2-3.9 6.5-1.4 1.8-1.6.5-5.4 3.7-2.2.2-1.8-.6-9.2-6.8-4.8-1.3.1-.4 2 .1-1-1.2-.9-1.7-.7 2.6-.7-.1-5-5h-.9v-2.1l-1.9-3.7-.2-1.9-1-2.6-4.1-6.6-8-9.1-3.3-6-.8-12 2-12.1L89.3 0h-190v52.9l6 4.6h1l1-.7.4.1-1 1.1-1.7.1-5.7-.9zM170 40.1l-.7.6.9-1.4zm8.4-1.7v-.1l-2.4.9h-1.5l1 .3 3 .2zm0 0"/><path d="M178.3 279h279v-70.5l-1.7.7-2.1-.6-3.3-2.3-.4-2.3-1.8-3.1-.3-1.9-2.3-2.6.2-.4.7.9-1.3-4.1-.7-.8-.9-.1-1.3.6-2.3.3-.4-.4-1.6-.2-.8 1h1.6l-1.4.2-2.4 1.2-.9-1.2-.7.9-1.6-.5-.6-1.4.6-2-2.2-.9.6-1.5-.6-3.7-2.9-2.7-2.5 1.4.8 2.7 1 1.1 1.3.5-.1.7-1.8-.2-1.5-.9-2.6.2-.3.7 1 .5.5 1-1.6.2-1.7 2.2-6.5 3.8-5.8.3-3.3-1.4-1 .4-1.4-1.5.6 1.5 2.6.5.3 1-.3.4-.5.5-.5-1-.2.3 2.7 3.6.9.2.7-.4v.5l-.7.2-1.6-.6-3.6-4.7-3.8-6.6 2.4 3.3-1-2.3-1.5-5-1.1-1.7-1.2-.1-2.7.7-.8-1.8v2.2l-2.8 1 3.7.8 1.4-.3-.3.5-4.7-.4-5.2.4-3 1.2-1.1 1.7-6.2-2.7.8-.1.5-.7-1.3-1.2-1 .3-.5-1-.6-.2.2 1.1.8.3 1 1.3-3.7-2.5-1.7-2.9-1.7-.9-.6.1 1.3 1.3-2.6-1.7-3.4-3.5 2.5 2.2.2-.4-1-1.3 1.8-1.2 1.1-.3 1.4.9h.8l-2.3-1.8 1-1.7 1.5-.2.4-.9 1.6 3.6 1.3 1.2 1.2.5 2.2-1-1.5 1.6 2.4 1.1 1 .1 1-.5.6.6 1.1-.1-.3-.6-2.2-.5-1.4-1.3 2.1-1.8-2 .4-.5-1.5 2.3-3.3 1-.3.6-1.4.4.4.4-.4-.9-.8-.2-1.5-3.6-1 .6.3-.8 1.3-.5 1.7-2.6-1.6-.6.2v.7l-1.3 1.5-.3 2-.7-.2-1 .4-1-1-.6 1.7-.8.4-.4-.8-1.4-.6v.8l1.3 1.2-1.2 1.1-1.9.7-1.1-1.2-.4.7.7.4-.5.6.4.3h-.4l-6.5-7-4.6-7.8-.2-1.5 2 4.6.8.7h.9l-.4.4.2 1 2-1.5.1-1.5-1-.5-.5.6-1.4-.5-.5-.7.4-1.4-1.1-.5-2-2.5 1.3-1.5 1.2-.7 1.1-1.7-1-2-1.5 1.2-1.3-1 .3-1.1 1.5-1.4-.3-.9-1.2.2-1.1.7-1-.4-.9 1.7.2.4-.5 2.3-1.2 1-1.3.2 5.3 4.2-1.6-.6-6-4.6-4.3-2.6-2.5-1-1.7.8-2.6-7.8-4.4-4-4-7.3.8-.2.4 1.4 1.9 1.2.5-.7v-2l-.6-.5h-.6l-1 1.4-.7-1.1-1.1-.2-4.6-2.6-4.6-4.2 1.1-3.1-.7-2.7 1-4.6-1.4-4.4.9-2.6-1.6-3.2.8-1.3.3.5 1.7-.8.1 1 1-.9-.8-1.2-.8.7-2.2-1.2-2-2.4-3.2-2h.6l.5-.7.4-2.3-1.3-2-.3-3.3h-.4l-.1-.5-.6-.4-1.3 1.8-.8-.7-1.1-2.5-1.3.9.5.7-.8 1.7-.1 2.2-1-.5.4-2.5v-.8l-.4.3-.5 1.7.3.8-1.2 1.2-1.2 4.2-1.1-.9h-2l-.1-.6-1 .5-.6-.5-1.1-.1.1-2.4.7-1.8h-1l-.4-.8-.6.1-.6-2.1.8-.3.1-.5 1 .6.2 1 .5-.1-1-2.1-.4-.1-2.4 1.5-.6 3.5.5.4 2.2-1.4.5 1.1-.1 1.2h-1l-1.1.7-1.3.5h-1.8l-2.8 1.2-.2 2.1L280 97l-.5-2-.8.7-1-.2-1 .5-2.6-.3-4.8 1.3-.1.3-2.2-.2-.8.9-2-1.7-1 1.3-.9-1-1.3-.8.2 1.3-1-1.6.1-2.2-.9 1 .3.9-3-1.2-6.1-5.4-2.6-1.4-3-1 4.2 1 2 1.4-.3-1.2.5-1.7.8.6.8-.4 1 2.1 2.2.8 1.2 1.1-.4-1.2 1.3-1.2-.4-.4.2-1.1 2.2-1.2 1.9.2-.6-2.2.8.2.5-.8v-1l.6-.5-.7-1.4-1.4 1-1-.5H259l-.6.2-.2 1H257v1.1l-1.4 2.8-1.4 1.8-.6-.2-.3-1.2-.8-.2.5-2.3-1.4-1.7-1.3 1.5-1-.6-.7 1.5-1.1.5H246l-.6-.7-1.1.6-2.3-.6-.3.8.5.4-1.6 1.3-1.4 3-.7.2-1 1.1h-.5l3.2 1.4.5-1.4-.3 1.7-1.9.6-1.3-.3-1.3 1-1.4 1.6-1 2.5-1.1.8-.7-1-2-.2-1-.8-.7.1-.7 1.2 2.8.7 1.9 1 1.4-1 .6.3.4.7 1.2-1.4-1.2 1.9-1.4.6h-.7l-.9-1.1-1.2-.6-3-.4-3.3.4-.7.5-.4 1.1-4.5-2h-1.5l-5.4-3.3-6.6-1.7-5.8-1-1.9.2-1.8.7-2.9.1-1.6 1.1-2.2-.4-.3-.6-.1-6.7-.5-3 .6-4.8-.2-7.5.3-.5.1 3.7 1 1.3v-1l-.6-.6.1-1 1-1.3.7.3.1-.3-1-.7-.4-1.6.6-.4.3-1.8.8-.8 1-2-.3-3.8-1.1-2.3-1.7-1-1-.3-2.7.8.2.9 1 .8-1.9.2-1.2 1.3 1.1-.3v.5h-1.3l-.6-.7.6-.2.5-1.1h1l.5-.5-1.2-.8-1 .4-1.3-.3-1.7-2.4-.8-2.4.8-1.1.5-5.1.3-.2-.1 1 .5-.6.8.1 1 1.7.1-1-.9-1.3-.8.2v-.5l.2-1h1l-.8-.4-.4-3 .2-.2.2.8.3-2.6.3.5.7-.5-.2-.4-4-.6-.6-.7v1.3h.3l1.2-.2-1 .6h-.5zM403 223l3-2.7 4-2.1-2.6 3.5-2.1 1-2.8 2.9h-1l-.3-1zm-2.9-5.3l2.6-2 2.9-1-1 3.6-1 .2-.6 1-1.9 1.5-1.4-.2-1.4.2zm12.1-19.8l-1.1.3-.7-.7 1-.5zm19.7-2.6l-1.5-1-.6-1.3v-1l.5 1.9 1 .9 1.7.4 2.2-.2-2 .5zm-30.9 13h-1.3v-1.6l.3-1 1.7-1.7.7-.3 2.5 1 .1.9-3 1.5-.5 1.4zm33.4 2.4l-.5 1.8-.9.6-.3-.6.4-1.3 1.5-1.9zm-36.7 3.8l-.3.3.9.2-2.4-.4-1.2-1 2.3-2.2h1.7l1.3.4 1.3-.4.7.3.7-.2 1.6.7 1.7-.1-1.2.9-1.6.2-.5 1.8-1.4-.6.6-.9-.9-.5-1.7.4zm11.9-3.5l-.6.4-.6-.2.6-.5zM296.7 107.7l.3-1.8h.4l.6-2.9.6.7v2.3l.9 4-.5 1.2-1.5-.9-1 .4zm.9-4v.6l-.6-2.4.4.5zM261.9 98l1 .3.5.4-1.4-.4-.6-.7zm39.6-5l2.5-1.9h.5l.1.6 1.3.2-2.9.5-1.6 1.4-.2-.4zm-42-9.3l-.5-.7 1 .3v.4zm30.2 11.7l-4.1-1-1.1-.6 6.2 1.5 4.3 2-1.8-.3zm-31.1-13.6l-.2.2-.7.4.1-.4zm6 16.8l-.5-.4v-.1l.2-.1zM457.3 279H479l.4-.7 3-2.6.5-.4v-.9l-.4-1.1-.8-.3v-2.5l.6-.9 2.3-.7 1 1 .7 5-1.5 4.1h164.7l-.5-1.2.6-7.5-1.4-3.8 3.3-8.5-.1-5.6 1.6-1.9 3-7 .8-3.9 1.5-.9 1.2-1.5v-5.1l1.5-2 2-6.5 2.4-2.9v-.7l2.8-4.6.1-1.8 1-1 .5-2.1.8-.7.4-1.5 1.1-1.3.7-2.6-.3-.7 2.6-3.4.9-3.2 1-1 .3-.9 4-2.8 2.3.6 3.2 3 1.3 2-.2 2 1.1 2.3.8 1.7 2.1 2.3 4.2 1.5 2.4 2.5h1l.6.7 2.1 1.2 3.5.4 4.6 2.1 1.4-.6 2.3.3 5.3 2.3 1.7 1.1 4 4.2-.9 3-.9.3-.2.8v1.4l1.3 1.9.9-.4 3.2-5.2.8-.6 1-.1 5.2.9h.9v-8.2l-.2-.3-1.6.2-2.5-.7-8-5.8-7.8-3.8-3.3-.7-3.9-1.7-2.3-1.7-1.8-2.2-2.9-1-.7-1.6.7-2-.6-3.5-2-6.2-.4-5.2.7-1.8 2.4.2 1.3-.6.2-1 1-.1v-.6l-3.5-2.8-2.1-.2-3.2-1.7-2-2.8-.5-1.9 1.7-2 .8-2.9-.6-4.4 3-2.8.1-4.5.5-1.4 1.4-1.3 1.5-3.8.3-1.4-.9-3 1.3-1.9-.4-2.1 1.3-.3.4-.5.1-3-.2-.7-1.2-.8.5-1 1.9-1.2.6-1.1v-4.5l1.6-2.4.7-8.3 2.7-.2.6-.6-.7-1.3.5-1.1 1.3-1.3-.7-1.1.6-2.5-.8-2.3V98l.7-6.5 1-2.3.2-3.6 1.5-1.1 5.2-.7 1.8-1 1.2.2 1.2 1 3 .2 4 1.2 5.4 5.2V75.4l-3.4-2.2h-3l-2-2-6.4-1.7-1.4-.8-1-2.2.2-2.4-.8-1.9 1.4-4.8 1-1.3 2.6-12.5 2.9-3.6-1-2.8.8-1.4 3.3-1 6.7-2.8V21.8h-.7l-1.2-2.4-.4-3.9 2-3.2.3-4.4v-8H568.7L569 1l.6 1.3.9.5 2.3-.3 2.6 1 1.6 1.3 7.5 11.2-.4 1-3.1-.3-1.3-.5L578 14l-1.8.2-.7.4-.2 1 1.2 1.4-1.4-.5-.7-.5-1.3 1v1.3l-1.1.5v1.8l-2.9.2-2.1 1.6-.4.6 2.1 3v1l1.9 4 3.4 1.6 1.9 1.8 6.9 3.3 4.7 1.3 6 .7 1.6.8 2.5 2 1.5 1.7 1.2.8.8 2 2.5 3.3.4 1.5-1.5 2.6-1.5 4.8 2 2.8 1.5 3.9-2 2.6-.8 3v4l-1.2 1.8-.1.9-2.7 4 1.9 2-.9 3 .4 2.4 2 2.3 3.2 2.3 2.2 4.2.5 3.3-.6 4-1.9 2.8 2.3 3.8 3 3.2 1.5 3.5.2 1.4-1.2.2v.4l.7 3.2-.2 3.3.2 2-2.3 1-1 2.4-1.4.9-1.9 3.8-3.6 3.1-.8 1.6v2.2l-3-.5-1.4.2-.7 1-1.9 1.7-1.6.9h-1.7l-1.7 2.3-1.3.2-1.1 1.3-1.8.7-3.3 4-1.2 2.6.3.9-.4 1.1-1.6.6-5.2 4.8-2.2.9-1.2 1-.7 2-1.2 1.6-.8 3.2-1.6 2 .3 2.6 1.8 2.4-.1 1.5-2 3.9-2.2 1.6-3.9 1.7h-1L554 189l-2.2.3-3.8-1.7-1.9.7-.4-1-2.5-.9-1.6-1-1-.4-.8.5-.6-.3-1.3.3-1.1.8-.8-.2-4.5 3-4.5 1.7-2.6.3-5 1.7-3.8-.1-4-1.1-6.2-1-2.9.6-7.5-1-4.6 1.2-2.2-.6-1.4.2-2.9-1.4-1.9.4-4.8-.5-.4.5-1-.2-.6-.8-2.6.1-1 1.4.7 1.4-.3 2.2-2 .6-.2 5-4.6 3.6h2.3l1.8.7-3-.5-5.7 2-2.8 3-.5.1zm28.7-48.2h-.6l-1 1.4-.6-.4v-.6l1.6-1 1.9 1-.1.7h-1zm-.6 36.8v-.6h.7l-.3.6zm66.6-46.8l-.6.1-.2-.3.5-1.1 1.6.4-.2 1.2-.6-.6zm-57.5-5.8l-.9.6-.4-.6.5-1.9.6-.5.7 1.5zm58.7 1.6l-.2.8-.7-1.9h.7zM484 206.3l-.4-.6.8-.7.4 1zm-10-9l.3-2.6.7-1.1 1-.4 2.6 1.5 1.4 2 1.7.3-.4 1.6.2 1.5.5.9-.7 1.9v1.4l-2.7 3.2-1.1.4h-1.3l-1.4-.4-.3-.3.7-.6-.4-.6-1.3.2-.5-.7-1-.5-2.2.9-1.2 1.5.2-1.2 2.5-2.9.5-2.3 1.1-1.3zm16-.9l-1.6.4-1-1.5-.1-.3 1.1-1.7h1l2 .7-.4 1.2.6.9zM457.3 558h103.4l.8-1.7 2-11.6 3-11 2.2-5.9 2-4 1-4.6 1.9-2.6 1.6-6 3-6.1 3-4.1 1.6-.3 2-1.7 4.6-7.8 2.4-7.6 1.7-3.5.5-2.2-.5-1.9 1.3-1 2.2-5.5.2-1.5 1.2-1.4 3-6.5 3.5-3.5 1-1.5 1.9-1.7 2.6-2.7 2.6-4.1.7-5.8 1.8-3.7.1-3.3.8-2.5 1.2-.8 4.7-6.7.7-.5.6.3-1.6 1-.3.7.3.6 1.5.4 1.4-.7-.7-.9 1.1-1.1.7-2.3.2-.2v.5l1.1-1-.1-1-3.4-2.4-1.3-1.8 1.7 7-.3.3-2.8-9.9-1.4-1.6.7-1.5.7-3.7.8-1.4.2-3.7-1.3-4.9-1.5-1.4-.7-1.6-1-.7-.6-.9 1.6-1.2 3.3.4 1.9-.4 3.8-1.9.6-1.7-.6-6.3 2.7-1.5 1.9-2.2 1.2-4.3-.2-2.3.8-.4.6-2 .7-.2 1.3-1.8v-5.3l.7-2-.9-3.7.2-.4.5.7.2-1.3-1.3-1-.2.7.3 1.1-2.7-1.6h-1l-1.8-1.4-1.2-.3 1-1.2 1.5-.3 1.8-1.8 2.2-1.2 2.1-2.8.2-1-1-1.4.4-2.2.6-1.2v-4.5l-.7-9.4 4.3-4.9v-1.8l1-1.2.8-1.6-.7-2.2.5-1.2 1.9-1 1.3-3.1.2-1.2.4.5-.5 1.8 1 .4.3-.6-.4-.8 1-.6-.6-1.2 1.4-.8 1 .6.2-.4-.1-1.5-1-1.4-2.1 3.2 1.7-3 .9-3.4-4-11.1.4-1.2 1.4-.6 2-1.8.4-1.4-.8-3H485l-.8 2 .7 3.7v1.9l-1.2 2.3-.6-.3.4-1.3-1.7.5-.2.5 1.2.3-.4.7.2.5-2.6 1.8-.4-.7.9-.5-.1-1.5.8-.6.1-.7-.1-1.6-1-1 .6-1.4-.8-.6-1.8.8-.6-2 1.5-2.8h-21.8zm24.2-212.5l-1-.2 3.5-4.3 2-1.7h.5l1.2 1.1 1.4-.3.2.9-.9 2.6-2.7 3-1.7.1zm-1-13.1l.7-.6h2.8l1.2-.5 1.4.4-2.2.5.8 1-.6 1.6-1.4-.5-1.8 1.1-1.3-2.2zm6.3-28.4l3.9-1-.5 1.5.3 2-.5 2-2.5 1.5-1.5.1-2.9-3-2.5.4-.3-.5v-.8l1.7-2.5 2 .3 2.3-.3zm-2.7-13.6l-.6.3-.2-.6 1.3-.4zm0 0"/><path d="M178.3 558h279V279H178.4zm-279 0h279V279h-278.9zm85-69.2l2.4-3.6 2.8-2.7h1.1v.5l-1.4.7-1.7 1.8-1 2.2.5.3.7 1.6-.5 2.1.8 1.3v.4l.9.6 1.8 3 2.4.8.9-.8 2-8.6-.4-.7.7.1-1.5 6.7-.5 5.5.1 5 1 2.4 1 .8.9 1.7 1.3.1.4 1-1.1 3-1.3 1-1.6.6h-1.7l-4.3-2.2-4.1-3.7-3-5.1-1.1-5.9 2.2-7zm13.4-4l.3-.3.7-1.8.3.7-.6 1.3-.9 1.3-.5.3zm-5.3-3.6l-.6.4.2-.9 3.3-1.7 3.4-.5 3.6.8 2.2 1.6-1.8-.5-1.1.3L-1 483v-.5l.8-.7.2-1.3-1-.7-3.6-.2zm0-.2"/></g></g><g fill="none" clip-path="url(#C)" mask="url(#B)" class="D"><g stroke-width=".8"><path d="M150 191.2l6.1 1.8 44.7 17.3 32.2 12.6" class="B"/><path d="M150 191.2l6.1 1.8 44.7 17.3 32.2 12.6" class="C"/><path d="M-25.3 165.3l22 1.4 29.4 1.7 28 1.7 9.7.5" class="B"/><path d="M-25.3 165.3l22 1.4 29.4 1.7 28 1.7 9.7.5" class="C"/><path d="M301.8 273.7l1.7 28.1 2 30.7 1.8 30.1" class="B"/><path d="M301.8 273.7l1.7 28.1 2 30.7 1.8 30.1" class="C"/><path d="M63.7 170.6l18.9 1.2 14.4 5.6 53 13.8" class="B"/><path d="M63.7 170.6l18.9 1.2 14.4 5.6 53 13.8" class="C"/><path d="M233.1 223l16.5 6.3 22.6 8.9 29.3 31 .3 4.4" class="B"/><path d="M233.1 223l16.5 6.3 22.6 8.9 29.3 31 .3 4.4" class="C"/></g><g stroke-width="1.2"><path d="M-44.2 164.2l3.5.2 37.4 2.3 48 2.8" class="B"/><path d="M-44.2 164.2l3.5.2 37.4 2.3 48 2.8" class="C"/><path d="M44.7 169.5l9.5.6 28.4 1.7 14.4 5.6 34.5 9" class="B"/><path d="M44.7 169.5l9.5.6 28.4 1.7 14.4 5.6 34.5 9" class="C"/><path d="M291.6 258.7l9.9 10.3 2 32.8 2.7 41.9" class="B"/><path d="M291.6 258.7l9.9 10.3 2 32.8 2.7 41.9" class="C"/><path d="M131.5 186.4l24.7 6.6 44.6 17.3 14.6 5.7" class="B"/><path d="M131.5 186.4l24.7 6.6 44.6 17.3 14.6 5.7" class="C"/><path d="M215.4 216l34.2 13.4 22.6 8.8 19.4 20.5" class="B"/><path d="M215.4 216l34.2 13.4 22.6 8.8 19.4 20.5" class="C"/></g><g stroke-width="2.2"><path d="M232.8 222.8l16.8 6.6 22.6 8.8 29.3 31 .3 4" class="B"/><path d="M232.8 222.8l16.8 6.6 22.6 8.8 29.3 31 .3 4" class="C"/><path d="M63.3 170.6l19.3 1.2 14.4 5.6 52.6 13.7" class="B"/><path d="M63.3 170.6l19.3 1.2 14.4 5.6 52.6 13.7" class="C"/><path d="M-25.6 165.3l22.3 1.4 29.4 1.7 28 1.7 9.3.5" class="B"/><path d="M-25.6 165.3l22.3 1.4 29.4 1.7 28 1.7 9.3.5" class="C"/><path d="M301.8 273.3l1.7 28.5 2 30.7 1.8 29.8" class="B"/><path d="M301.8 273.3l1.7 28.5 2 30.7 1.8 29.8" class="C"/><path d="M149.6 191.1l6.6 1.9 44.6 17.3 32 12.5" class="B"/><path d="M149.6 191.1l6.6 1.9 44.6 17.3 32 12.5" class="C"/></g></g><defs ><path id="E" d="M44.8-71.3l1.6 2.3 1 2 .3 2.8.9 3.2 5.1 2 4.4 1 5 3.1 3 4.8 2 5.4.9 5.7-.6 6 .2 6.2 2 5.4 4.5 3.7 4.9 3.3 3.5 4.8L88-5.8l5.7.7 5.6.8 6 1h5.7l5.2-.4 6-.7 5.1 3.4 5.2 1 6 1 5.6.2 5.9-.6 5 .2 6-.7 5-2.2 5.7-1.1 5.4 3.2 4.4 4.1L186 8l4.3 3.4 5.3 2.9 5.6 2.5 6 2 5.3 2.4 5.7 2.7 5.4 2.9 5.9 1.4 5.8 1.2 5.7.5h6.7l6.1-.5 5.7-1.2 5.5-2 5.2-3.1 5.3-2.1 6-1.5 5.5-2.2 5.5-2.3 5.3-3 4.8-3.3 4-4.3 4.1-4.4 3.9-4.7 3.2-4.2 1-5.9 1.7-5.5.8-5.9-.3-5.5-1-6.7-1.4-5.8-2.2-5.6-1.6-5.6-1.8-5.8-2.6-5.3-3.7-4.6-3.5-4.4-3.5-4.7-4.7-4.1-4.8-4-4.6-4-5-3.1-5-3.4-4.9-3.2-3.6-4.1-4.1-3.9-3.7-4.2-3.6-4.5-2.7-5-2-6.5-.2-6.2-1.4-5.6-1.8-5.8-2.4-5.2-3-4.3-3.2-4.3-4-4.2-4.8-4.3-4.4-3.9-4.6-4-4.9-3.4-4.7-4-5.1-3.2-5.5-2.4-5.5-2.2-6-1.2-6.2.4-6 .5-5.5.9-5.7 1-5.8.1h-1.8l-2.7-.9-6-.4H145l-4.7 2-5.5-2-4.3 2.6-5.3 2-4.2 3.5-5.7.1.7 3.2-3.3 4.2-4.7 2.7-6.5.6-5 .4.9 4.2 1 5.5-3 4.4.2 5.7-1.9 3.9-2.8 4.3.8 6 .3 4.8.3 4.9-5 1.1-4.7 1.8-4 3.9-3.3.8-4.1 5.4-3.7 4.6-2.7 5.2-.5 3-2 5.4-2.6 5.2-5.5 1.5-5.1 2.5-1.8 3-1.4 3.9-.8 3.5.4 5.5-.6 2.2zm21.8-37l.4 1-.4-.6zm2.4-3.9l.4-.4-.2.5zm1.4-2l1.5-2.3.6.6-2.2 1.9zm4.1-5.8l.1.2zm57.8-70.6v.3zm6.3 3l.4-.6-.4.7zm31.5-1.9l.6-.2-.7.2zm92.1 80.8l3 2.6-2.2-.9-.8-1.6zm3.8 2.4v-.2l.2.2v.1l.1.8v.6h-.2v-.2h-.1l-.1-.7v-.5zm-.1 0"/><path id="F" d="M413.8 94l.4 5.4 1.1 6.1 1.4 6 1.9 6 2.1 5.7 2.1 4.2 2.2 5.3 2.3 5.5 2.7 5.4 4 6.8 4.3 6 3.9 4.6 5.1 5.3 4.2 4.4 4.4 4.3 4.7 3.9 5 3.4 5.4 3.7 4.6 2.2 4.2 1.4 6.3 1 5.7.4 6.4-.2h6l6.2.6 5.7 1.3 5.9-.6 7-2.1 5.4-2.6 3.6-3 .9-3.4 2-3.7 4.6-3.7 2.5 2.7 3-.3 3.4-3.2 4.6-.1 2.7-2.9 3.8-1.5 3.5.1 5.5-4 4.6-3.6 1.9-5 4.4-4.1 4.1-3.7.3-5.7.7-5.7 3-4.8 2.6-5 3.1-4.8.8-4.9.8-3.8 4.9-2.6.6-4.9.3-6-2.2-5.5-4.6-3.7-.4-5.5-.5-5 2.8-5.1.8-5.8 1.2-4.8-2.7-5.1 2-5.7-1.2-6-3.4-4.4-4.8-3.5-6.1-.7-5.5-1.7-5.2-2.7-5-3-3.2-4.6-3-4-1.9-1.8-1-5 4.9 2.7 4.4 1.4 2.7-4.3 1.5-1.8 4.8 2.6 2.4-2.6-3.4-4.6-3.3-5-5.3-1.9-3.3-3.9-4.2.6-.7-.3-2-4.8-.7-3-5.1-2.4-4.4-.2-.3-5.5-.5-5.1-3.5-1.1h-4l-4.1-3.3-4.3.2-2 .2-1.9-1.7 3.9-4.4 5.1-3.1 1.2-4.4-2.4-4.8-5 2.5-5.4 3-1.7-5.2 2.6 3.1 1-2.4-.9-5.1 3.4-3.7-2.2-5-6.2 2.1-3.8-.4-2.9-3.4 1.9-3.4 3.2-3.3 5 2.3 2.6-3.8-4.8-3.8h-5.4l-5.2 3-5 .7 2-1.3 2.3-2.2 2.1-3.8-1.7-5.2-4.3-2.8-4.3-2.6-4.3-4-6.7-2.2-7-2.2-5.1 1.5-1.6 2.7-5.5-2.1-2 3.9-5.1 4.1-3.6 2.5-2.6-1-2.5-4.9-4.7-.9-4.2 1-3.9 2.4-3 4.7-.4 4.7-2.1 5.1 5.2 1.7 5.6-1.7 3.3-.6v4.6l-4.1 2-4.8 1.7-2.8 2.8 1.9.7.4 5.8-3.8 2.4-2 4.5-2.9-1.1-4.5-3.6-3.6 2.9.6 6 3.7 2.1 5 1.7 4.6-1.5 4.9-.7 5.1-.5-.4 3.5-2.6 3.8-1.6 3.4 1.4 5 2 5.1 4.4-1.4-.2 4.5-2.4 1.2-1 5.6 3.9 3 3.5 2.6-3.8 3.7-1 4.2-.2 3.7-4.5 2.6-.9 4.9-3.6 2-2 3.6h-1.2l-4.6 3.9-4.2 4-3.8 4.9-3.8 5.6-3 6.8-2.5 6-2.4 7.4-1.8 6.2-1.1 5.9-.8 5.8.6 6 .1 6.4-1.7 4.4zm16.2 47.8l.4-.6-.4.8zm13.7-118.5l.3.2zm1.7-83.7l.2-.1-.2.2zm.6 18.6v.2zm1 62.1l.9-1-.9 1.1zm1.3-3.2l.7-.6-.7.7zm1.6-79.4l.7.1h-.6zm.8 78.8v.2zm0-57l1.2-1zm1 52v2.3V12zm5.1-6.9v.2zm1-3.4l.2.6V1zM471 184.7v.1zm1.2.8v.1zm25.6-273.9l.8-.2-.8.3zm2.4 1l1.2-.4.3 1.4zM506-61h3.2l-3.2.7v-.3zm9.2-.4l3.1-1.4zm17.4 34.6v.2zm17.3 16.6l.4-.6-.4.8zm9.1 35.5v-.6.7zm2.8-21.7l.2-.9.6 2.3-.8-1zM577 36.7l.8.8-.8-.5zm2 2.4l1.4.5-1.2-.4zm19.1 66.7l1.4.9-1.4-.8zm1.3 10l1.3-1v.2h-.2l-.2.1v.5l-.1.2h-.2v.2h-.5zm.6-6.8v-.5h.3v-.2h.6l.1.3.2.1.2.1v.2h.3v.2l-.3.1h-.1l-.1.2h-.7l-.2-.4zm0 0"/></defs></svg>