<svg xmlns="http://www.w3.org/2000/svg" viewBox="0 0 497 279"  xmlns:v="https://vecta.io/nano"><style><![CDATA[.B{fill:#add19e}.C{fill:#d6d99f}]]></style><path fill="#f2efe9" d="M0 0h497v279H0z"/><g fill-rule="evenodd"><g class="B"><path d="M88.5 262.6l5 2.4 1-1.7 4.5-4 1.1-2.3 1.3-3.5 5.2-2.2 2.4-4.8 2.1 2.6-1.7 5.6-.7 5 4.3 2.7 1.2-5 1.1-3.1 1.8 4.9 2.5 4.8-.4 3.5 5.1 2.4 3.3-5.9v-8l-8.8.6V248l-2.4-4-6.1.2H89l.3 14.6-.2 3.2-.5.2zm0 0"/><path d="M112.8 277.9h12l6.6.4-2.4-4.7-5.1-3.6-5.3-1.7.4-4.3-2.8-4.7-1.8-4.8v4.2l-1.7 8.3zm-17.6-14.2l6.1 1.2 4-2.2 3.2-2.7.3-5 1.8-5.8-1.7-1.3-2.6 4-5.1 2.3-.6 3.6-1.4 2-4 3.6zm206.6-113.3l2.8 5.1 2.9 2 3.5.5 3-3 .3-4.5 1.2-4.5h-4.2l-1.7 1.8-1.4 1.8-6.3.4zM18.7 257.8l13.4 5.4-.3-5.9-5 2.4-4.8-2.3-3.2.1zM161.2 54.6l2.6 3.5-1.2 1.6.6 3-1.1-2.1 1.8 3.3 2.7-1.5h1.2l2-3.5L172 55zm2 5.2h1.3l1.6 1.8h-1.8m121.2 58.5l6.2 1.5 5.7-4.4-5 .3-5.4-.3-1.5 2.2zm3 38.5l3.7-.6 6.6-1.6-2.9-3.4-6.7 4.7zm0 0"/><path d="M18.8 254.6L24 259l5-2-8-2.4zm289-32.4l4-1 2-5.4-3.3-3.3-.3 5.1-1.2 3.7zm-9.5-78.9l3 5.7 2.7-1.8-1.2-3.7-2.6-3.4-1.2 1.8zm2.1 3.2l.9-.5 2 1h.2v.6zm-14.2-21.3l6 1.3.3-3.8-3.4-.2-2.1 1.1zm-.2 5.4l3.7 2.5 1.5-3.1-5.2-.3zm18.4 15l4.8-1.8-1.5-2.6-3 3.8zm5.9 65.1l5.3-.7-3.3-2.9-2 3.3zm-17.3-65l5.2 2.8.2-3.7-5.2.5zm0 0"/></g><path d="M303.6 148.6l5.5 1.4-.1-5-2.8 2.2-2.4 1.3zm0 0" class="C"/><path d="M260.9 122.8l5 1-.3-2.6-3.6-.4-1.1 1zm41.9 16.9l4.8.6-4.4-.9zM263.9 119l5 .6-3.3-1.5-1.2.6zm33.9 30.8l3.7.1-3.5-.7zM264 115.2l4.4 2-.6-1.7-3.6-.5zm2 1.8l.3-.4m14.9 3.3l3.3-.4-2.7-.8zm0 0" class="B"/><path d="M288.9 159.8l3.5-3.5-3.2 2.7zm0 0" class="C"/><path d="M87.1 262.6l2.3-3.1-2.1.3zm212.1-131.1l1.7 1 .1-2.5-1.7 1zm0 0" class="B"/><path d="M302.6 144.4l2-2.3.4 2-2.1-1.1-.3 1.3zm0 0" class="C"/><path d="M293.3 125.8l2.3-2.5-2.1 1.4zm3.9 5.2l.4-1.3-.1.7zm-1 2.3l1.1-.1-.9-.3zm0 0" class="B"/><path fill="#c8d7ab" d="M266 114.2h1l-.2.1zm0 0"/><path d="M301.7 149.2v-.1zm0 0" class="C"/><path d="M304.8 137.2l.2-.2zM300 135v-.4zm0 0" class="B"/><path fill="#c8d7ab" d="M266.5 113.8l.2-.1-.1-.3zm0 0"/><path d="M303.6 144l.2-1zm-5.1 30.5l.1-.3zm4.3-35.7l.3-.3zm-4.3-5.8l.1-.3zm-10.3 33.4v-.1zm11.9-32l.1-.2zm39.5 125.2v-.1zm-42.7-125.1v-.1zm0 0" class="B"/><path d="M265.8 114h.2zm0 0" class="C"/><path d="M289.8 159.6l.1-.3zm49.6 99.8h.1zm0 0" class="B"/><path fill="#cdebb0" d="M305.5 146v-.1zm0 0"/><path d="M303.3 144v-.3zm0 0" class="B"/><g fill="#aad3df"><path d="M53 267.7h1l.3-.2.2-.2.2-.3.1-.2.2-.3.1-.5v-.2l.2-.4.1-.4.2-.2.2-.2.2-.2.3-.2h.2l.6-.4.4-.1h2.1l.9-.2H62l.6-.3h.3l.6-.2h.3l.7-.2h1.9l.3-.3h.3l.3-.2h.2l.3-.3.1-.2.1-.3v-.4l.2-.5.1-1v-.3l.3-.3v-.3l.2-.2.2-.2.4-.3.6-.5.4-.3h.2l.3-.1h.4l.3.3.5.1.3.1.3.1H74l.3-.3h.4l.4-.1h.3l.2-.2h.6l.2.4h.2l.2.2.2.1.2.2.2.4.3.3.3.5.3.3.4.5.3.2.3.5.2.2.2.2.3.1.2.2h1l.3.2.3.1.4.2.3.3h.3l.3.2.4.1h.6l.1-.4v-1.3l.1-.2.2-.4.3-.4v-.2l.2-.2v-.2l.2-.4v-.2h.4l.4.2.3.3.4.2.2.3.3.1h.9l.3-.3h.3l.2-.1h.3l.2.2.3.2.1.1.2.2.4.3.4.3.2.3v.5l-.5.2-.2.1h-1.8l-.2.3v1.2l.4.3h.1l.2.2h.7l.3-.2.5-.2H92l.3.4.3.3v.2l.3.3v.2l.1.1.1.3.3.5.4.3.2.2.5.2h.5l.3-.2h.7v-.1l.2-.2.2-.2v-.4l-.2-.5-.4-.3-.5-.4-.1-.1v-.5l.4-.7.4-.3.3-.4.5-.6.3-.4h.2l.5-.4.4-.2.4-.3.4-.1h.2l.2-.4h.6v.2l.2.2.4.1.2.2.2.2h.1l.1.2h.3l.1-.4.2-.2v-.4l-.4-.4-.3-.5v-.1l-.3-.4-.1-.3-.1-.3v-.2l-.2-.4v-.9h-.1l-.1-.5-.2-.3v-.4l-.3-.1-.1-.3v-.2l-.2-.2v-.5h.3l.2-.2h.1l.2.3h.3l.1.2h.8l.2-.1.1-.1.4-.4.1-.1.1-.3h.1l.2-.3h.2l.2-.2.4-.1.3-.2.3-.1h2l.3-.1.4-.3h.3l.3-.3.4-.2.4-.1.4-.1.2-.1.3-.3V249l-.2-.5v-.8l.3-.6.3-.5.4-.4h.2l.2-.2h.4l.2.3.1.1.1.3v.9l-.2.8v.3l-.4 1.3v1.2l-.2.2v.1l-.2.5-.2.6-.1.2-.2.8v.2l-.5.6-.2.6-.2.2-.6.6-.1.2-.4.4-.3.5v.9l.5 1 .7 1.2.4.2.2.2h.3l.3.2h.4v.1h.3l.1.3.2.2.1 1v.3l.3.1.1.1.2.3h1.1l.5-.1.3-.2.2-.1.6-.4.1-.1.2-.2v-.5l-.3-.3-.2-.2-.2-.3v-.7l.1-.4.1-.1.2-.1.1-.3.1-.3.2-.2v-.1l.3-.2v-.7l-.5-.5v-.2l-.2-.2-.4-.1-.3-.2-.3-.2v-.8l.3-.3.2-.3h.2l.3-.3h.6l.5.2.2.1.1.1.1.1v.2l.2.1v.2l-.2.3-.3.6-.1.2v1.4l.3.1.1.6.2.3.2.2.1.2.6.1.2.2.2.1.1.1.2.5.2.7v1.1l.2.2v.9l.1.2.2.2v.1l.3.1.5.1.2.1v.1l.5.3.2.4v.4l.1.2v.4l-.2.4-.1.2-.1.1-.4.2-.5.3h-.4l-.3.2-.1.2-.2.3v.4l.4.1h.1l.1.2h.5l.3-.4.5-.2h.9l.5.2.5.3.7.4.2.3h.1l.5.5h.4l.4.3.4.3.4.3 1 .5.3.1.7.3.3.2.3.3.4.2.6.5v.3l.2.2.3.3.5.3.2.2.4.2.4.3.6.2.4.3.4.2.6.4.6.3.6.3h1.8l.3-.3.4-.1h.3l.3-.2h.5v-.1h1.4l.2-.2.2-.1.2-.2.5-1 .4-.6.3-1.1.2-.3.2-.1.2-.2.4-.1h.8l.6.1 1 .2 1.1.3.4.2.4.2.4.3h.3l.3.2h.8l.5-.2.5-.1.6-.3h.4l.3-.2h.7l.8.2 1.1.3.6.1h.4l.2.2 1 .1h.4l.7.2h2.2l.5-.4.7-.1.5-.2.4-.2h.1l.3-.3h.6l.1.3h.1l.2.1.2.2v.1l.3.1v.2l.2.2v1h.2v1.3l.1.1v.2l.3.2.2.2.4.3.3.3.2.1.4.3.4.2.3.2h.2l.6.1h.5l.5.2.3.1.8.2.7.2h.5l.1.2 1 .1.8.1.4.2h.4l.3.1.4.2.3.2.2.1.3.3h.2l.3.1h3l.4-.2.5-.1h.3l.3-.2h2.8l.3.2.4.1.7.3.7.2.8.2.8.3.7.2h1.2l.7-.3h2.1l.7-.2.3-.5-.3-.2-.2.3-.3.2-.5.1H186l-.3.3h-.8l-.4-.4-.8-.2-.8-.1-1.5-.6-.3-.2h-.5l-.2-.2H178l-.7.2h-.4l-.9.3h-2.6l-.4-.1-.3-.2-.5-.2-.3-.3-.7-.2h-.6l-.8-.3-.6-.2h-.7l-.5-.2-.8-.2-.6-.1-.4-.1h-.7l-.4-.2h-.4l-.4-.2-.3-.2-.3-.1-.1-.3h-.3l-.3-.4h-.3v-.1l-.2-.1-.1-.2-.2-.2v-1.6l-.2-.1v-.3l-.2-.2v-.3l-.2-.2v-.2l-.2-.2v-.1l-.2-.2h-.2l-.3-.3h-.7v.2l-.4.1-.1.1h-.4l-.5.3h-.4l-.7.2h-.6l-.8.2h-1l-.8-.2-1.2-.2-.7-.2-.7-.1-.7-.2-.9-.2h-.7l-.4.1-.5.2-1 .3h-1.4l-.4-.1-.2-.2-.3-.1-.2-.1-.4-.2-.6-.1-.6-.2-.7-.3h-2.3l-.2.4h-.2v.5l-.3.1-.1.5-.2.4-.4.7-.4.6-.3.5-.2.2h-.1l-.1.1h-1.4l-.5.1-.7.2-.8.2h-1.4l-.4-.4h-.4l-.1-.1-.5-.4-.4-.2-1-.4-.6-.5-.6-.5-.3-.2-.3-.3-.2-.3-.3-.3-.2-.1-.3-.3-.3-.3h-.2l-.2-.2-.6-.2h-.2l-.6-.3-.5-.2-.6-.4-.4-.3-.3-.2-.2-.2h-.2l-.2-.2h-.4l-.2-.3h-.1l-.3-.4-.3-.2-.2-.1h-.1l-.2-.3h-.2l-.4-.3h-.2l-.4-.1h-.6l-.2.2-.2.2-.4.3h-.6v-.3l-.2-.1v-.1h.4v-.2h.1l.4-.1.5-.2.4-.1v-.2l.2-.4.1-.3.1-.4v-.8l-.3-.4-.2-.4-.3-.2-.2-.1-.5-.2-.4-.2-.3-.3v-1l.2-.2v-1.2l-.3-.4-.1-.4-.2-.3-.4-.2v-.1l-.4-.2h-.3l-.3-.1-.2-.3-.1-.2-.2-.5v-1.6l.5-.8v-.6l-.3-.2-.3-.3-.4-.1-.5-.1h-.9l-.4.4-.3.4-.2.4v.6l.3.3v.2l.2.1h.2l.2.3h.1l.3.1.1.3.1.2v.8l-.2.2-.2.3-.2.3-.1.1v.1l-.3.7v.6l.3.2.2.4.3.2v.6h-.2l-.2.1-.3.2-.5.2-.5.2h-.6l-.3-.1-.4-.2v-.9l-.2-.3v-.2l-.3-.5h-.1l-.4-.3h-.6l-.2-.2h-.3l-.2-.2v-.2l-.3-.2-.1-.1-.2-.7-.2-.3-.2-.5-.1-.1v-.9l.4-.4.4-.4.3-.2.3-.4v-.4l.5-.3.1-.5.2-.3.2-.2v-.7h.2v-.5l.1-.1.1-.2.2-.6.1-.3v-.8l.2-.4.1-.8.1-.3.1-.6.2-.7.1-.7v-.6l-.4-.4h-.1l-.5-.2h-.6l-.3.2-.4.4-.2.3-.3.3-.2.7v1l.3.6v1l-.4.2-.2.2-.9.3h-.2l-.7.5-.1.1-.3.1h-2l-.8.3-.4.2-.1.2-.4.1-.3.3v.4l-.2.2-.3.1-.5.2h-.5v-.2l-.4-.1h-.1l-.2-.2h-.2l-.2.2-.2.3v.8l.3.2v.2l.2.4.1.4v.3l.2.3v.4l.2.3v.7l.2.4.2.5v.1l.3.4.1.2.3.4.2.3v.2h-.5l-.3-.3-.1-.1-.3-.2-.5-.2h-.4l-.3.1H99l-.4.5-.6.2-.5.3h-.2l-.3.3v.2l-.4.3-.5.5-.1.2-.4.3-.4.3v.1l-.2.3-.1.2-.2.1-.1.2v.2l.1.2.3.3.8.5.2.2v.7l-.1.2h-.1l-.2.2h-1.1l-.2-.2-.3-.2-.3-.2-.3-.4-.2-.4-.2-.6-.2-.5-.1-.1-.3-.4h-.2l-.4-.2H90l-.2.4h-.2l-.3.1h-.4l-.2-.3-.2-.2v-.6l.1-.2h.1l.3-.3h.3l.2.3.5.1h.8l.2-.1.2-.2v-.1l.2-.2v-.7l-.4-.3v-.1l-.2-.2h-.3l-.2-.4-.3-.5-.3-.3h-.9l-.5.3h-1.1l-.2-.2-1-.6-.4-.3H85v.4l-.3.4-.3.5-.2.5-.3.6v.4l.1.6v.3h-.2v.3h-.4l-.6-.3-.6-.4-.5-.3-.7-.2h-.3l-.7-.1-.2-.2-.5-.5-.5-.7-.6-.8-.7-.9-.2-.3-.5-.3-.3-.2-.3-.1h-1.5l-.7.4h-1.5l-.3-.3-.6-.2h-1l-.3.1-.3.1-.3.2-.2.3-.8.5-.3.4-.2.3-.2.3v.4l-.3.6v1.1l-.3.6v.1l-.3.2H67l-.2.2h-.3l-.2.2h-2.2l-.6.2-.5.1-.3.1-.6.2h-2.7l-.4.2h-2l-.4.1h-.1l-.5.3-.3.1-.2.3-.2.2-.2.3-.2.3-.1.5-.2.7-.2.4v.2l-.4.2v.2h-.2l-.3.2h-.4zm-67.7 1v.4h.5l.2.3.5.1.8.3.4.2h.1l.5.5.5.2.4.1.4.2.3.1h2.4l.3.3.4.1.5.3.5.2.2.3h.1l.5.4.9.4.5.3.4.2.4.2.4.1h1.3l.8-.5h.8l1-.2.3-.2.7-.2.7-.3.6-.3.2-.2.2-.3.2-.2.2-.5v-.3l.3-.6v-.7l.2-.4v-.2l.2-.2.3-.3.3-.2.3-.2h.2l.4-.3h.3l.3.4h.3l.5.2h.2l.4.1h.7l.7-.3h1.2l.5.4h.3v.2l.6.2.4.3.5.2.3.1.2.1h.2l.4.2.3.1H16l.4-.1.4-.2.3-.3.2-.2.5-.4.4-.4.2-.5.1-.4.1-.4.1-.9v-2.6l.2-.5v-2.6l.1-.4v-.9l-.2-.4-.2-.3v-.7l.2-.3.2-.3.3-.2.5-.2.6-.2h.9l.2.2.3.4h.2l.2.3v.2l.3.1v.4l.3.3.2.3.2.2.2.2.2.2.1.2.3.1.1.2.4.2h.1l.4.1h.7l.3-.1.5-.2.2-.1.1-.1h.2l.5-.5.3-.2.2-.2.2-.3.4-.3.5-.4.6-.4h.1l.2-.2.3-.1h1.2l.2.3.3.1.3.1.4.1.2.1.3.1.5.2h1.7l.2-.3.4-.2h.3l.2-.2h.5l.4.3h.2l.3.1.2.1.2.1.2.2.1.1.2.1v-.4l-.1-.2-.3-.1-.2-.1-.4-.2h-.5l-.3-.1h-.9l-.5.2-.2.2H35l-.4.1h-1l-.2-.2-.4-.2h-.6l-.2-.2-.2-.1-.3-.2-.3-.1h-.9l-.5.1h-.2l-.2.3h-.4l-.3.4-.6.3-.4.2-.1.2-.4.5-.2.2-.2.3h-.3l-.3.2-.4.2-.5.1h-.9l-.2-.1-.2-.1-.2-.2-.3-.3-.2-.3-.3-.4-.2-.5-.4-.5-.2-.2-.2-.2-.2-.4-.4-.4h-1l-.6.3h-.4l-.3.2-.3.1-.3.2-.2.3-.1.3v.3l-.2.3v.4l.5.6v1l-.4.5v5.1l-.2 1.1v.5l-.1.4-.2.3-.1.1-.7.9-.3.1-.4.3-.3.1h-1l-.6-.3-.7-.1-.6-.4-.6-.3-.7-.4-.3-.2H11l-.4-.3H10l-.6.3H8.1l-.7-.4H6l-.4.2h-.1l-.3.3-.4.4-.3.2v.2l-.4.5v.2l-.1.7v.3l-.2.4v.4l-.2.2-.1.3-.3.2-.2.2-.4.1-.6.3-.5.1-.3.1-.5.1-.6.2-.7.1-.8.3h-.4l-.2.2h-.6l-.4-.2-.2-.3h-.2l-.6-.4h-.3l-.5-.3-.5-.3-.4-.3-.7-.5-.3-.2-.5-.2-.5-.1h-2.2l-.3-.1-.4-.2-.4-.2-.3-.2h-.2l-.5-.4v-.1l-.5-.2-1-.4h-.5l-.5-.3zM-3 1.4V2h.4v-.3l.1.3h.3l.2-.2.3-.4.1-.2.4-.8v-.8l-.3-1.7V-5l.3-.7h.2l.1-.3h.4-.2v-1l.3-.3v-.1l-.3.1v.1-.8l.1-.2v-.4l.4-1v-.4l.2-.9.2-.9.1-1 .1-.2v-1.7l.2-2.1.3-1.9.2-.7.1-.4h.1l1.2-2.1.5-.6h.3l.3-.1 1-.2h2.3l.7-.3 1-.7v-.1h.2l.2-.3h.1l.9-.3h.1l.9-.5h1.4l.3.3.5.1.4.2h.7l.2.4.3.3.5 1 .6.7.3.2.4.4.3.1v.1l.4.4v.8l.1.2h.1l.2.3.4.3.1-.4-.1-.1-.3-.2-.1-.1v-.6l-.2-.5h-.1l-.4-.4-.1-.1-1-1v-.1l-.6-.7v-.1L15-24l-.3-.6-.6-.4H14v-.2h.1v-.1H14l-.3-.4v-.3.9-.1l-.5-.2h-2.3.1v-.2h-.6l-.1.3-1.7.7-1.2 1-.8.1H4l-.8.3-.5.2-.2.3-.5.7-.4.6-.7 1-.1.1-.3 1.1v.2H.3v.2l-.1 1-.2 1.3v1.3l-.3.1-.3 1.3v1.8h-.2v.6l-.2.8v.2l-.2.8v.3l-.2 1.7v.6l.1.3.1.3v.1l-.3.6v.2l-.4.4V-2L-2-1v.5-.2h.2v1l-.1.5-.6.5h-.1l.2-.3.1-.4v-.7.6l-.2.4-.2.3zm2-10.1l.4-1 .1-1.3.2-1v-.6l.1-1.4.2-.3.2.4v1.5l-.5 1-.1.9-.2.8-.3 1.6zM141.4 8.8v.4l.2.2.1.4.5.2.9.1 1.5-.3.5-.1h.5v.2l.6.3h.2l.6.5v.1l.3.2v.2l.2.4v.4l-.2.2-.3.4-.2.6-.4 1v.8l.1.5.4.4.1.1.8.4 1.1.3 1.5-.3h.6l1.2-.6.6-.4 1.2-.9v-.3l.7-.5.8-1.3v-.2l.7-1.2.8-1.8.6-2.3.6-1.1.9-1.1.2-1.5 1.1-1.6.6-1.2.8-.9.5-.5 1.1-.5 1.2-.5h2.8l.8.2.7.3v-.4l-.6-.3-.7-.2h-.8l-.5-.1H165l-1 .1-.6.4-.4.3-.6.1-.6.6-1.1 1.2-.2.3-1 1.8h-.2l-.6 2.1-.2.3-.6.9-.4.7v.1l-.5 1-.5 1.6-.7 1.9-.6.9-.2.5-.6.9-.8 1.2-1.3 1-1.3.5-.7.1h-2.9l-.2-.4-.4-.3V15l-.2-.3v-.6l.7-.9.3-.6v-.4l.2-.2v-.1l-.2-.8-.2-.4-.3-.4h-.1l-.7-.6-.8-.3h-.5l-.2.2-.3-.1v.1h-2.3l-.5-.5v-.5l.5-.4.9-.4.6-.8v-.3l.2-.5v-.3l-.7-1.5v-.3l.2-.9V2.1l-.3-.3V1h-.1V.1l-.4-.6-.3-.8h-.4l.5 1.1V0l.3.7.3 1.7v2.5l.4.9.1.5v.3l-.1.4-.2.2h-.2l-.3.3-.6.3-.6.6zm0 0"/><path d="M163.3 27.7l.2.1.2.2.2-.6v-.6l.3-.3v-.2l.3-1h.1l1-1.6 1.2-1.1 1.5-1 .7-.2v-.2h.2l.8-.5h.4l.4-.4h.3l.7-.1.4-.3h.1l.7-.1h.7v-.3h.3v.2h.8l1 .3h.2l1 .1h.7l1-.4h.3v-.3h.3l.1-.1.3-.3v-.2h.1v-.3h-.1l-.1.3V18l-.2-.5V17l.1-.8v-1l-.2-1.1-.2-.7-.2-.3-.5-.7-.8-.2h-.6l-1 .2-.5.4-.3.4-.4.1-1 .5h-3l-.4-.3-.3-.3-.1-.2-1-2V9.7h-.3v-.5h-.1V9l-.2-.8h-.1l-.5-1.1-.4-.1-.6-1-.1-.4v-.4l.3-.5.3-.4h.2l.1-.3h.1l.3-.2.8-.5.1-.1h.2V3l.5-.4.2-.3v-.1l.2-.2.1-.6V1l-.1-.7-.7-1.5-.3-.8-.2.5.5 1.1.1.4.2.6V1h.3v.6l-.5.5-.4.7-.1.1-.4.2-.7.3-.6.6-.6.8-.1.5-.1.4v.1l.2.5v.1l.7.8.2.3v.1l.4.4.1.4.1.2.1.5.3.6v.3l.2.8v.4l.3.6 1 1.8h.2l.3.2.2.2.4.2h2.5l1-.5h.1v.3l.3-.2v-.2l.4-.2h.1l1-.7h.2l.5-.3h.4l.5.3.5.6.1.3.3 1v2.7l.3.7v.2l.1.2-.2.6h-.2l-.3.2-.4.2-.1.1-1 .1H176l-.2-.2-1.5-.1h-1.6l-.5.4v-.3l-1 .3-3.2 1.6-.2.1-1.2.9-.4.4-.4.2-1 1.3-.1.1-.5.9-.3.8-.1.2-.3.8zm0 0"/><path d="M160.3 53v.9l.2.1v.1h.1v.2h.1v.4l.1.2.3.6.1.3.6.8v.3l.2.2v.2l.1.2v.1l.3.3v.8l-.3.1v.2l-.1.5v.2l-.4.3v.4l-.3.5v.1l-.2.1v.1l-.1.3v1.1h.2v.4l.1.2.1.2.1.1.1.1.1.2.1.1.2.1h.1l.1.2h.3l.2.2h.3v.1h2.3l.5-.3.2-.2h.4l.4-.2h.3l.3-.3.2-.1.5-.4.2-.2.3-.3.2-.2.2-.1.1-.2.1-.1.2-.2v-.2l.3-.2v-.2l.1-.3.2-.3v-1.3l.1-.2v-.2l.3-.2v-.2l.2-.1.1-.3.3-.2-.2-.3-.3.1-.2.4h-.1l-.2.3v.3l-.2.4h-.1v1l-.2.1v.3l-.1.2v.2l-.2.2v.3l-.2.2v.1l-.2.2-.2.2-.1.1-.3.2-.1.2-.4.3-.2.2-.3.2-.3.2-.3.2-.4.1-.3.1-.3.2h-2.9l-.1-.2h-.2l-.2-.1v-.1h-.3v-.1l-.2-.2v-.1l-.2-.2-.1-.2v-.4h-.1v-1.1l.3-.1.1-.2v-.1h.1v-.2l.1-.2h.1v-.4h.1v-.2h.2v-.1l.1-.3h.1v-.3l.1-.2v-.1l.1-.1v-1.2h-.3v-.3h-.1V57h-.1v-.4h-.2v-.3l-.2-.1v-.1l-.1-.1v-.3h-.1l-.1-.2v-.1h-.1v-.3h-.1V55h-.1v-.3h-.2v-.3h-.2V54l-.1-.3v-.1l-.1-.2V52l.3-.2v-.2l.1-.2v-.2h.2V51h.1v-.1l.2-.1v-.3h.2v-.3h.3v-.4h.1l.1-.2h.1l.2-.1.1-.1.2-.3V49l.2-.1v-.2l.2-.1v-.2h.3v-.3l.1-.1h.1v-.3h.1v-.1l.2-.1v-.2l.2-.2.2-.1v-.2l.2-.2v-.2h.1l.1-.2.2-.2v-.1l.2-.1v-.2h.1v-.2l.1-.1V45h.1v-.2l.1-.2v-2.2l-.3-.2v-.5h-.1v-.3l-.1-.2V41l-.1-.1v-.3l-.2-.2v-.1l-.1-.2v-.3l-.1-.2V39h-.1v-1h-.1v-.5h-.1v-.3l-.1-.2-.1-.3v-.1l-.1-.3v-.8h-.2v-3.9l-.1-.2v-.5l-.1-.4V30l-.1-.5v-1.6h.1l-.3-.3v.5l-.2.3v2.3l.3.5v.4h.1v3.8l.1.3v.3l.1.3.1.4v.2l.1.1v.3h.1v.9l.2.4v.7h.1v.7h.1v.3l.1.1v.2l.1.1v.1l.1.2v.3h.1v.6l.2.2v.6l.2.3v.2l.1.3v1.1l-.3.1v.5l-.2.1v.1l-.2.2v.1l-.1.1-.1.2v.1l-.3.3-.1.2v.1l-.2.1h-.1v.2h-.1v.3l-.1.1-.2.3-.1.1v.2h-.2v.3h-.2v.1l-.1.2-.1.2h-.2v.2h-.2v.2l-.2.1v.1l-.2.2-.1.1h-.2v.2h-.1v.1h-.1v.1h-.1v.2h-.1l-.1.3v.1h-.2v.2l-.1.1v.2h-.1v.2h-.1v.2h-.1v.3l-.1.2v.6l-.1.1zM48.7-2l.3.6.3.3 1 .7 1.2 1h.1l.6.4.8.1 1 .5h1l.5-.1.3-.2.7-.3.2-.2h.2l.1-.1 1-.3V.3l.1-.2.7-.3.6-.5 1.3-.8h.2l.1.4h.3v-.2H61v-.4h.2l.2-.1V-2h.1l.5-.4.2-.2v-.1h.1l.7-1.1.3-.2.6-.7.4-.6h.1l.7-.7.2-.2.1-.2.7-.4.3-.4v-.3l.1-.2V-8l-.2-.8V-9l-.8-2-.2-.7v-.2l-.7-1.3v-.3l-.2-.2v-.1l-.3-.6-.1-.8v-.4h-.3l-.2-.4-.4-.3-.4-1.5v-.3l.3-.3v-.1l.4-.3h.5l.1.3.6.2h.3v.3h.1l.4.3.4.1h.2l1.4.8.2.1h.8v-.3h-.7l-1.1-.6h-.1l-.8-.4-.2-.3-.5-.4-1-.3-.4-.1h-.4l-.2.1-.3.3-.1.3-.2.4.2.8v.3l.4.6v.2l.5.6v.1l.1.2v.1l.2 1 .2.1.4 1.1v.1l.3.5.3.6v.3l.3.4v.4h.1v.4l.6 1.8.1.4v.4l-.2.4-.3.2-.3.4-.3.1-.1.3-.9.6v.1l-.7.7-1 1.4-.8.7-.5.3v.1h.4L61-2l-.1.1-.3.1V-2h-.3v.2l-.8.5-1 .8-1.9 1-1.4.6h-1.3l-2-.8h-.3l-.8-1-1.2-.7-.3-.3-.3-.5zm141 281.8l.4.3h.1l.1-.3v-.1l.4-.4.1-.3.3-.5.3-.5.4-.3.2-.3.3-.2.1-.3.1-.2.1-.3.1-.3.3-.4v-.2l.2-.3.6-.4h.5l.2-.3h2l.5-.3h.5l.5-.2.4-.3.4-.1.2-.3.6-.5.4-.3v-.5l.4-.3.1-.3.1-.4.2-.2.3-.2.2-.1.4-.2.3-.3h.6l.4-.2h.4l.1-.3.4-.2.1-.2.3-.3.2-.3.2-.3.3-.2.3-.4.3-.3.4-.5.3-.3.2-.2.2-.3-.4-.2-.3.1v.2l-.3.3-.3.4-.2.2-.4.4-.3.4-.2.2-.3.2v.3l-.4.3-.2.2-.2.2-.2.1h-.2l-.2.3h-.6l-.3.2h-.4l-.2.2-.3.1-.3.3-.2.2-.1.3-.2.4-.2.3v.1l-.3.5-.2.3-.5.5-.5.2-.2.2-.3.1-.4.2-.4.2h-1.2l-.8.1-.7.1-.5.3-.8.5-.3.1-.3.5v.4l-.4.7v.2l-.3.2-.1.3-.3.2-.4.5-.2.2-.1.2-.3.6-.4.6zM38.8 258.2l.3.3.2.2.2.3.1.2.4.3.3.1.5.2.2.2h.2l.3.1h.3l.2.3h1l.3-.2.2-.2.1-.3.1-.2.1-.3.2-.2h.2l.2-.2h.7l.3.2.2.1.2.1v.2l.2.2v.6l.3.2v.4l.4.4.2.3.3.5h.3l.2.4.1.3.2.2v.1l.3.2.2.2.2.1h.1l.2.3h.7l.3.2h.2l.3.2.3.2v.1l.4.3.1.2.2.4.3.3v.3l.2.1v.5l.3.2.1.3v.1l.4.3.2.1v.1-.6l-.2-.1-.1-.2v-.1h-.1v-.2h-.1v-.4h-.1v-.1h-.1v-.4h-.1v-.2l-.2-.1v-.1l-.3-.4-.1-.2h-.1l-.1-.3-.1-.1-.3-.1v-.2h-.2l-.2-.3h-.9l-.4-.1h-.2l-.3-.2h-.1v-.1l-.2-.1h-.1l-.1-.1h-.1v-.3h-.1l-.1-.1-.1-.3v-.3l-.3-.1-.1-.2-.1-.2-.2-.3-.2-.2-.2-.3-.2-.1v-.3l-.1-.3-.2-.2v-.3h-.1l-.2-.2v-.3h-.2v-.1l-.1-.2h-.2v-.1h-.3v-.1H45v-.1h-.1v-.1h-.4l-.1.3H44l-.3.2v.4l-.3.1-.1.3v.2l-.3.2-.2.2h-.6l-.2-.2-.4-.1-.3-.2-.5-.3h-.4l-.4-.4-.1-.2-.4-.3-.1-.2h-.1l-.3-.3v-.2zm188.9-1.1h1.3l.2.2h.1l.3.1.2.2.1.1.2.3.4.9.2.3.3.3.2.2.3.2.4.1h.4l.4.3h.7l.8-.3h1.8l.7.4v-.6h-.4l-1-.3h-3.5l-.2-.2-.3-.2-.3-.3v-.3l-.2-.3-.2-.4-.2-.4-.3-.2-.3-.2-.3-.2-.3-.1h-.5l-.7-.2h-.3zm81.6-7.6h.2l.3.2h.3l.3.2h.5l.1.1.2.2.1.2.2.6.2.5.3.4.2.4.5.5.3.4.2.4.2.4v1h.6v-1l-.2-.1v-.3l-.3-.3-.1-.3-.1-.2-.3-.4-.2-.4h-.3l-.1-.3-.2-.3-.2-.2v-.3l-.1-.4-.1-.2-.2-.3-.1-.2-.3-.2h-.5l-.6-.3-.7-.1zm-36.2-121.2l.3.2.4.4.2.4h1.5v-.7l-.3-.2-.2-.3h-.3v.2l-.4-.3-.1-.4-.3-.2h-.5l-.2.4v.2zm32.7 20.7v.2l.2.1h.5l.4-.3h1.7v-.7l.4-.3v-.4h-1l-.2.4h-.4l-.9.8-.4.2zM161.9 62.3v.3h.1v.3h.2l.1.1h.7l.2-.3.1-.1v-.5h.1v-.8h-.8v.6l-.1-.3h-.1v-.1h-.2l-.1.2v.2h-.1v.3h-.2v.1zm151.4 196.1v.1l.2.2h.2v-.4h.3v-.1h.3v-.2h-.3v-.4h.2v.3h.2l.1.1.1.1h.4v.2h.3v.1h.1l.1.1.1.1v.1l.2.1.2.2h.4l.1.2h1l.3-.2.2-.2v-.1h.1v-.3.3h-.7l-.1.2h-1.2v-.3h-.1l-.1-.1v-.1l-.2-.1h-.1l-.1-.1v-.2h-.9l-.2-.3h-.1l-.3-.2v.7h.2v.1h.1-.7v.3h-.3v-.3zm0 0"/></g></g></svg>