<svg xmlns="http://www.w3.org/2000/svg" viewBox="0 0 497 279"  xmlns:v="https://vecta.io/nano"><path fill="#f2efe9" d="M0 0h497v279H0z"/><g fill="#aad3df" fill-rule="evenodd"><path d="M472.4 53.1v.1h.6v.5l-.2.3-.1.2v.2l.1.2.2.2h.3l.2-.4.2-.2.3-.2h.4v.2l-.1.3-.1.2v.4l.4.3.1.2h.5l.2-.2h.2l.1.3.3.6.1.1.3.6.3.2.3.4.2.2.3-.1h.2l.5.6.4.1.2.3h.2l.2.3-.2.1.3.2.4.2.3.2h.7l.5.2.6-.2.2-.2.3-.1.3-.1h.4l.2-.1.5-.2h1l.3.3.3-.1.4.1h.6l.3.4.4.3h.3l.3-.4.6-.3.4-.3.4-.2.3-.3V57l.2-.4v-2.8l-.3-.5v-1.5l.1-.2.3-.2v-.2l.4-.3v-1.1l-.1-.5-.3-.5-.5-.8-.5-.5-.2-.2-.4-.2h-.4v.1h-.2l-.3-.2-.1-.1-.3-.2h-.2l-.3-.3h-.5l-.2-.2-.1-.4-.1-.3-.3-.3v-1l.1-.2v-.2l-.3-.3v-.7h-.3l-.1-.2h-.5l-.1-.3h-.6l-.2.4-.3-.3h-1.1l-.4.2-.1.3v.4l-.1.2v.3l-.2.2v.6h-.2v.3l-.3.1-.1-.2h.2l.2-.3.1-.1v-.1l-.1-.1h-1.2l-.2.1h.1l.3.4.2.3.2.1h.2v.2l-.2.2V47h-.3v.6l-.4.1v.3h-.3l.4.3-.2.1-.2.3v.3l.2.2v.4l.2.2h-.4v-.1h-.5l-.3.6v.2l-.2.3v.6l.3.2v.9l-.2.5-.1.3-.5.1-.3.2h-.7l-.2.4h-.1l-.2-.4-.2-.1h-.5l-.2.1-.1-.1-.2-.1-.2-.2-.2-.2-.2-.3-.2-.3h-.5l-.2.2.1.4.4.3-.2.2-.2.1h-.1l-.1-.2v-.2l-.2-.3v-.2h-.2v.3l-.1.1h-.2zM171.6 159.5l.3 1 .4-.3.4-.2h.4l.5.2.6.5.8.3.6.2h.9l.5.2h1.2l.5-.4.4-.2.3-.2.4-.3.5-.6.7.1h.8l.5-.2.6-.7.1-.5.3-.7-.1-.3-.4-.3-.2-.1v-1.2l.2-1.1.5-1 .7-1 .1-.9.1-.4.1-.6.1-1.4v-.8l.3-.7.3-.9.5-.3.3-.4.5-.6.9-.9.4-.3.7-.3 1.4-1.2.7-.3.4-.2.2-.5.7-.2.6-.4.4-.3.5-.8.5-1.3v-1l-.4-.7-.6-.9-.5-.1-.9.1-.5.1h-1.1l-.5-.5-.2-.4-.2-.6-.4-1-.4-.6-.2-.6-.2-.2h-1l-.2-.3-.5-.3-.1-.5.4-1 .6-.3h.8l1 .1.4-.1.2-.4.2-.8h.6l.7-.7-.1-.7-.4-.5-.4-.4-.3-.4v-.3l.4-.5.6-1.5.2-.2h.3l.6-.2.3.1.5.3h.9l.4-.3.2-.5.3-1 .2-.6.2-.9.5-.5.1-.5.2-.7.3-.6.3-.1.7.3.3.2.7-.2.6-.2.2-.2.5-.4.5-.8.5-.8.2-.6.1-.8.3-.8h.1l.5-1 .2-.2-.1-.5-.4-.6-.3-.7-.2-.6.2-.4.3-.2.5-.2.6-.2h.6l1.7.2.7.2.8-.1.5-.3.4-.5.4-.5.4-.3h1.9l.6-.2.4-.4.3-.5.2-.8V105l-.2-.8.6-1.1.4-.6.5-.4.8-.6.6-.5.7-.7.6-.3h.7l1.7-.8.5-.6.8-.2h1l.5-.1.6.7.8 1 .4.2.5.3.5-.1.4-.4.4-.5.5-.5.4-.2.2-.1.2-.5.3.4.1.2.8.5.2.1h1.4l.5-.1.5-.4.5-.3.5-.6.4-.4.1-.4v-.6l.5-.5.1-.1-.1-.4-.3-.6-.3-.5-1-1.1-.7-.7-.2-.8.1-.6.2-.5.4-.3h.4l-.1-.9-.4-.6-.7-.8-.3-1.2.8-.6.7-1 .5-.2 1-.4.5-.4 2.1-.2.7.2.5-.5.2-.9v-.6l-.3-.6-.3-.4-.5-1.6.1-.4.1-1v-1.8l.3-.6-.2-2.1-.4-.9-.5-1-.7-.5-.9-.9-.4-.6-.3-1.4V68l.3-.7.5-.3.6-.5.7-.3.8-.3h1.2l.7.6.7.2.6.1 1.6.4h.8l.3-.6.3-.6.2-.6-.8-1.4-.5-.2-.8-.5-.5-.6-1-.7-.3-1.2v-1l.3-.3.4-.7.7-.5.7-.7.8-.1.4-.7.3-.9-.2-1.7-.4-.9-.3-1v-2.9l-.4-.6-.6-.4-.8-.4-.6.4-.6-.2-.4-.2-1-.4-.7-.1-.6-.5.7-1.5.2-.8.2-.8.2-.9v-1.4l-.4-.6-.3-.6.2-.5.5-.2 1 .3h.4l.6-1v-.6l-.1-.5-.7-.7.2-.5h.4l.6.6.6.5.6.2.6.3h2.5l1.2.1.5-.1.5-.3.3-1.1.4-.6.8-.8 1.2-.7.8-1 .7-1.5.7-.7.3-.9-.2-1.2-.4-1-.3-.9v-.9l.2-.2.2-.2v-.7l-.2-.1v-.1l-.2-.1v-1.1l.2-.1.1-.2.2-.1.3-.3.5-.2.2-.3h.1v-.2l.2-.1h.1v-.2l.3-.3v-1.9l.2-.2V20l.2-.2.2-.1h.4l.3-.2h.6l.3-.1h.5l.3-.2 1-.2h.3v-.2h.7l.3-.1h.1l.3-.3h.3l.4-.2.2-.2h.9l.3.3.1.1.2.2.4.1h2l.8-.2h1.7l.2.3.3.2.4.3h.2v.1h.3l.4.2h.2l.4-.2v-.1l.2-.3.4-.5.1-.4v-.3l.3-.4.1-.3V17l.4-.2h.3l.8-.3.3-.1.2-.1.1-.3h.1v-.3h.3v-.1l-.3-.2-.1-.3-.2-.3h-.2l-.4-.3h-.5l-.5-.1-.3-.2-.3-.2-.6-.5-.4-.2-.5-.2-.2.4.4.2.6.3.4.2v.1l.1.2h.3l.1.3h.4l.2.2h.8l.3.1.1.2.1.2v.2l-.2.1v.2l.2-.2.2-.1-.1.1-.2.2h-.2l-.3.1-.3.1-.4.2h-.4v.2h-.2l-.2.1h-.7l-.2.2-.3.3v1.3l-.1.3-.1.1-.3.1h-.3l-.4-.4-.3-.1-.2-.2-.3-.1-.2-.1-.2-.1h-1.1l-1.2.2h-1.1l-.3-.4-.4-.1h-.3l-.6-.1H256l-.2.3-.3.1h-.2v.2l-.5.1-.1.1h-.3l-.3.3H253v.2h-.3v.1h-.9v.2h-1.1l-.1.2h-.4v.2h-.2l-.2.4-.1.2v1.6l-.1.1h-.1v.4h-.3v.3l-.2.1v.3h-.3l-.3.3-.4.3-.3.3-.1.1v.2h-.2v1.1l.2.1v.2l.3.1v.1l.1.2-.2.1v.2h-.3v.3l-.1.4.3 1.7.2.6.1 1.7-.7 1.2-.6 1.4-1 1.1-1.1.7-.9.8-.7 1.2v.4l-.4.3h-.8l-1.9-.4h-2.2l-.7-1.2-.7-.5-.6.2-.3.4.1.7.2.5.3.6v.5l-.3.4-.7.1-.6-.3-.9.8-.5.4v.2l.2.5.7.5.3.8v.5l-.2 1-.8 2.2-.2.6v.6l.5.6 1 .2.9.3.5.3.5.3.5-.1h1.1l.5.7v3l.7 1.2.3 1.3-.2 1-.2.4-.5.6-.5.5-1.1.7-.7.6-.5 1-.1.7.2.8.4.7.7.9.3.5.4.6.5.2.8.3.4.3.2.7-.1.9-.3.3-.5.2-1.2-.2-.5-.3-1-.1-.7-.6-.8-.3h-.4l-1.1.4-1 .4-1 .8-.7 1 .2 1.4v.6l.4.3.9 1 1.1 1.1.4 1 .2.8.5.8-.3 1.3-.1 1.7v.7l-.2.4-.1.9v.3l.7 1.7.4.8v.4l-.4.5-.5.1h-1.2l-1.4.3-1.2.6-.7.6-.6.6-.3.3-.6.5-.1.6.4.9 1 1.4-.2.6-.7.7-.2 1 .3.7.6 1 1 1 .6.7.1.4-.5 1.1-.2.5-.4.6-.8.5-.4.2-.8.2-.5-.1-.8-.7-.4-.2-.5-.1h-1.2l-.5.3-.3.9-.3.3h-.3l-.5-.2-.8-1-.5-.3-.6-.1h-.7l-1 .3-.7.1-.7.5-.7.5-.5.3h-.8l-.9.3-.5.4-.5.3-.7.9-.9.7-.6.8-.3.7-.3 1.7v.8l-.1 1.1-.3.5-1.3.2h-1.7l-.4.4-.4.4v.4l-.4.1-.9.3h-.6l-.7-.3h-.6l-.6-.2-1.4.5-.9.7v.6l.2.6.4.8.2.3-.4.9-.7.5v.3l.1 1.3v.7l-.2.4-.7.8-.4.6-.6.3-.6.2h-.4l-.5-.3-.6-.3-.2.1-.5 1-.3.9-.2.7-.5.6-.5 1.5-.1.8-.5.3h-.6l-.5-.3-.5-.3-.8.4-.3.5-.3.8-.2.5-.7.5v.7l.4.6.2.1.6.6v.4l-.7.5-.5.4v.6l-.5.4h-.3l-1.2-.6-.8.4-.9 1.2-.1 1.1.7.9h.3l.5.2.6.2.3.1.3.6.4 1 .1.8.1.3.5.5.3.2 1.2.1h1.7l.5.1.6 1.3-.1 1-.4.8-.6.6-.8.6-.6.1-.7.1-.8.5-.5.7-1.3.7-.5.3-.3.7-.4.7-.4.5-.9.6-.6.7-.4 1.5-.1 1.2.1.8v1l-.6 1.1-.8 1.4-.3 1.4v1.4l.1.7.3.5-.2.6-.5.4-.3.2-.7.2h-.3l-.6-.1h-.3l-.4.5-.3.5-.4.3-.3.2-1.2.1-2.5-.5-.5-.2-.4-.6-.4-.6h-1l-.4.2zm-17.2-144v.1l.2.3v.3h.1v.2h.1l.2.1h.1l.2.2.1-.3h.3l.1.4h.9l.3.2 1 .3.8.2 1.9.3h.4l.3-.3.3-.7.5-.1.6-.3.2-.2.8-.8.4-.3.3-.3.2-.6v-.7l-.3-1-.4-1.2-.3-.5-.3-1-.2-1 .2-1 .3-1 .3-1.4v-1l.3-1V3l-.5-.5-.5-.2-.7-.5-.6-.1-.4-.4-.2-1.1-.5-.6-.6-.2-.7-.2h-1.3l-.3.4-.2.9v.4l-.2.5V2l-.6.4-.8.3-.2.6v.3l.2.6.3.3.5.5.4.8v.5l.4.8.2.8.2.6.2.2h.6l.5-.4.5.3h.3V9l-.1.6v.3h-1.4l-.6-.4h-.5l-.5.5-.4.3-.8.7-.2.7v.8l-.6.4-.3.3V15h-.1v.7h.2v.1-.3h-.3v-.2h-.2v.2zM116 10v.3l.4.4.3.6.3.1h.4l.4.1v.3l.2.3.3.5V14l.5.6v.1h.2v.6h.1v.4h.2v.3h.1l.1.3v.1h.3v.2h.7v.3h.4l.1.1v.1h.7l.1-.3.2-.1v-.6l-.3-.1v-.2l-.1-.1V15l.3-.2.1-.1.4-.2.4-.3.4-.2.1-.3.2-.2V13l.4-.7.1-.3.1-.4V11l-.2-.2v-.9l-.1-.2-.2-.3-.1-.2-.1-.2V7.8l-.3-.2-.1-.2-.1-.1V5.9l-.2-.5v-.1l-.5-.3-.5-.3v-.1l-.2-.2-.3-.1h-.4l-.3.2h-1.3l-.2.1h.1V5l-.1.2h-.2l-.1.4v.2h-.2l-.3.2h-.2l-.1-.4h-.6v-.2h.2l.2-.2v-.1l.2-.1.1-.2.3-.1h.2l.3-.2h.2l.1-.4h-.5v.1h-.3l-.1.2h-.2v.2h-.7l-.1-.3.3-.1V4h-.4v-.2h-.1.3V4l.1.1v.2h-.4l-.3.2h-.3v.3h.3V5h.6v-.1l.3-.2.1-.1h.1v.2h-.2l-.1.2v.2h-.2l-.2.2v.3l.2.2h.2l.1.1h.1v.2h-.4l-.3.2v-.1l-.1-.3h-.3l-.2.5h-.1l.1.1v.1h-.1v.8l-.2.2h.3l.2.3.2.2h.2l.1-.5h.2V8h-.1v.4l-.2.2-.3.2-.2.2h-.3v.4l-.2.2zm.5-5.6h.8v.4h-.6v-.2h-.2zm.1 2.7v-.3h.4l.1-.4.3-.1h.4l.2.2V7h-.9.2l.3-.2v-.1h-.5v.1h-.1V7l-.3.3h.3v.2l-.3.2v-.6zm1.2.3h.5l-.3.1h-.2zm155.2 102l.2.2v.3l.5.6.6.5h.1l.8.7-.1.3h-.1l-.4.4h-.1l-.2.1v.1h.3v.1l-.4.1.2.4.6-.6v-.2l.2-.2h.3l.2.2h.7l.2.2h.4l.2.1h.3l.3.2.2.1v.1l.3-.3h.7v.2h2l.2-.1.2-.2v-.2l.4-.2h.1l.3-.4.3.3v.2l-.3.5v.9l.2.2-.1.3h.5l.4-.3v-.1l-.5.1h-.2l-.1-.3v-.7l.2-.4v-.3l.2-.2.2-.3v.2l.4.2v-.4h.3v-.6l-.3-.2.2-.1h.1l.2-.3v-.6l-.2-.3h.2l.2-.2h.2l.3-.3-.1-.2h.5l.2-.2.2-.5.3-.2h.2v-.5l-.1-.3h-1.1l-.3.3.2.3.3-.3h.1l.2.2v.4h-.6v.3l-.1.1-.4-.4h-.3v-.5l-.1-.2.3.2v-.9h-.3l-.3-.2-.4.4v1l.3.2h.3v.3h-.3l-.1.1-.2.4v.9l.3.2v.3l-.2.3v.3l-.1.4v.1l-.2-.1v-.6l-.2-.2-.4.3-.2-.1-.4-.3-.2-.5h-.4l.2-.2-.6-.3v-.4l.2-.2-.3-.3v-.2l-.2-.2h.3l-.3-.3v-.2l-.2-.3v-.6l-.5-.5h-.3l-.3-.2h-.2l-.2.2h-.3l-.1.1-1 .1v-.1l.3-.4v-.3l.1-.2h-.3l-.3.4-.1.1v.4l-.4-.2h-.2l-.5.2h-.1v-.6l.2-.1.4.3.2-.1v-.2l-.3-.2.2-.3h-.4l-.3.2h-.6v-.2h-.2v.5h-.3v-.5l-.1-.1-.2.3v.2l.2.4h.1-.2l-.2.5-.2.1v.3l-.3.1v.4h.3l.2.1.1-.1.4-.2.1-.2-.1-.2.2-.3.3-.1h.2v.4h.3v.4l-.2.2h-.5l-.6.6h-.4l-.3.2-.2.1h-.2l-.2.3v.1zm7-1.6h.1zm3.5-.7v-.2l.4.2-.2.2zm-31.1-6.9h.1l.2.2v.6h.1l.2.2v1l.3.2v.4l-.3.2v.2l.1.2v.2l-.3.1v.3h-.4v.5l.3.2h.1v-.6h.2l.2.2h.4l.3.2h.4l.2.2.2.1h.1l.2.1h1.4l.2-.5h.3l.3-.2h.9l.1-.2h.4l.2.3h.4l.1.1h.1l.2.1h.8l.1-.2h.6l.4-.2.1-.1v-.1l.2-.1v-.2l.2-.2h.1v-.3h.7l.2-.1.1-.3v-.2h-.8v-.2h-.6l-.3.4-.2-.2v-.2l-.2-.1v-.3l.2-.3.1-.1.2-.3v-.6l-.1-.1-.1-.1v-.2h.1v-.6h.3v-.2h-.3v-.1l.2-.1V99h-.4v-.3l-.2-.2-.3-.2h-.1l-.2.1-.3.2-.1.2h-.8l-.1-.2h-.2l-.3-.2h-.1l-.3.5h-.2v-.3h-.1l-.3.2h-.2v.2l-.3.2h-.8l-.3-.2h-.4l-.4-.2h-1l-.4.2v.1l-.5.1h-.3v.3l-.2.1-.2.1h.1v.3h-.2l-.1.2zm46.2 103.5l.1.3h.3v.4l.5.4h.1v.5h.7l.4.4.2-.2.2.2.1.8v.4h.6l.2.2.3-.2-.3-.4v-.1l.5.4.3-.3v-.5l-.5-.5v-.2l.4-.6.6-.3.8.7v.6l.3-.7.4-.3.2-.3v-.4 1.2l.4.2v-1.5l-.3-.7v-.8l-.5-1.1-.3-.3v-.5h.3v-.2l-.6-.3v-.4l-.6.2v.2h-.2l-.4-.6-.3-.1h-.3v.4h-.3l-.1-.3h-.4l-.2.2-.2-.3h-.3l-.2.1v.3h-.8v.5l-.7.7.4 1.3-.1.8.1.3-.3.5-.5-.2zm0-121.5v.3l.1.1.3.1h.6l-.1.3h-.5 1v.3h.3v.2l-.1.1v.6l.3.2h.5l.2.3h.1l.3.1h.2l.4.2h.3l.6.2.2-.2h.3v.1l.4.2h.5l.3-.3h.3l.3-.5.3-.4h.2l.3-.1.3-.2.1-.2.2-.6v-.6l-.2-.4-.2-.6-.2-.4-.2-.4-.2-.4-.4-.1h-.2l-.3.2h-.5l-.4-.2h-.1l-.3-.3h-.4l-.2.3-.3.2h-.3l-.4.4v.1h-.2l-.2-.3h-.2l-.2-.1h-.2l-.3-.3h-.2l-.3-.2-.2-.1-.3.1-.2.2v.2h-.4l-.1.3-.3.2v.7l-.2.5zM224 233.4v.2l.2.1h.3v.6l-.2.1v.3l.4-.1.1-.3v-.1h.2v1.1l-.4.1.4.2.1.1h.6l.3.1h.3v.2l.3.2.1.1 1.3.3.4.4v.7l.1.3v.1l.2.1v.8l.2.1v.4h.1v.2l.2.1v.1h.1v.1l.1.2v.2h-.4v.4l.3.2h.1l.2.4.4.5.1.5h.9v.1h.2v-.3h.2v-.5h-.3v-.5h-.1V240l.7-.7v-.5l.6-.5v-.4h-1v-1.6l-.3-.5-.3-.5-.4-.3-.4-.2h-.6l-.3.2h-.2v-.6h-.1v-.3h-.1v-.1h-.2l-.2-.3h-.3l-.2-.1h-.1l-.3-.5-.4-.1h-.2l-.2-.2-.5.4h-.8v-.2h.2v-.4h-.8v-.2h-.2v.3h-.1v.2l-.3.3v.1zm5 5.6h.6-.3v.2h-.1v.1h-.2zm.7.1v-.1h.3-.2zm67.5-44.5v.4h.2v.2l.7.3h.3l.5.5.5.3.6.2h.4l.3-.3.3.2-.1.3-.3.1v.2l.1.3v.5l.3-.2v-.2l.3-.3v-.3l.2-.4.1-.1v-.3h.9v-.2l-.4-.3v-.2l-.1-.3.7-.6.5-.3.7-.2h.7l.2-.1-.3-.4-.5-.6-.3-.1-.3-.7h-.2l-.3-.1-.7-.2-.2-.1h-.4l-.3-.2h-.6l-.4.2-.1.4-.4.2-.2-.2-.3.3h-.5l-.2.2-.2.2-.1.3-.3-.1v-.5l-.7.2v.8l.4.1v.5l-.3.3zm0 0"/><path d="M305.4 85.4v.2h.8v-.2h.2l.2.3h.1v.3h-1.4v.2l.3.1h.3v.2l.3.1h.1v-.2l.2-.1V86h.1l.1.5h.1l.2.1h.1l.3.1h.6l.2-.1h.2l.3.1h.4l.1-.3h.7v-.8l.1-.2.4-.3V85l.1-.2.1-.3.2-.1.2-.1.2-.1.2-.2v-.7l-.2-.1-.1-.2h-.1l-.2-.3-.4-.5h-.2V82l-.2-.3-.2-.1h-.2v.1h-1v-.2l-.1-.1v-.2h-.2l-.1-.2h-.4l-.2.4v.3l-.2.2v.4l-.1.1-.2.1v.3l-.3.2v.7l-.2.2v.1l-.3.2-.2.1-.1.2v.2l-.3.4-.1.2zm-28 18.6l.3.1h.4v.7h.1l.7-.3v-.2l-.2-.3v-.2h.7v.3l-.2.3.2.2v.4l.1.1.7.5h.4l.4.4.3.3v.3l.5.2h.2v-.5l-.8-.8h-.2l-.3-.5h-.1l-.3-.1-.4-.5h-.1l-.2-.4.4-.2v.5l.3.2h.2l.3-.1.1.2v.2l.1.2.4.1h.2v.4l.3.1.1.2v.2l.4.4v.1l.1.1.3-.1h.2l.2-.1.5-.5v-.5h.3v-.4h-.5v-.1h.3v-.4h-.8l-.3-.3-.1-.4h-.3l-.2-.1-.1-.2-.4-.3-.2-.2-.3-.2v-.6l-1.1-.7-.3.2h-.9v.5h-.5l-.1-.3-.2.1-.2.2-.1.1.2.1.1.2h-.3l-.3.4v.2h.4l.4-.4h.2l-.1.2v.3l-.2.1v-.1h-.4l-.1.2zm4 .5v-.2h.3v-.3l.3.3v.3l-.3.2h-.1zm-1.7-38.2v.2l.2.2h.6v.2h.3v-.7l.1-.2h.4v.7l-.3.2v.4h.5l.1.1-.1.2h-.3v.3h.3v.1h-.5v.1h-.2v.4h.2V68h.3v.2h.1V68h.1l.1-.1v-.2h-.4v-.1l.3-.1.1-.1.1-.1h.3V67h.2v-.5h-.5v.4h-.1v.1h-.2v.2h-.3v.1h-.1v-.5h.2v-.1l.1-.1v-.4h.3V66h-.3v-.4l-.1-.1h.6v.2h.1v.1h.4v-.3h.2l.1-.2h.4v-.1.4h.4v.4h.2v-.5h-.3v-.2h-.2V65h-.1v-.4h-.2v-.2l-.1-.1h-.2V64h-.1v-.4h-.2v-.3l.3-.1V63h-.3v-.2h-.1v-.3h.3v-.2h.1v.2h.1l.1.1h.1v.1h.2v.1l-.3.1v.1h.2l.1.3h1.6l.1-.3h.1v-.2h-.4l-.1.3-.3-.3h.3v-.5h-.6v.3h-.1v.1h-.4l-.2.2v-.4h-.2v-.3l.2-.2h.3l.1-.2v-.2h-.4v.3l-.3.1h-.2v-.3h-.3l-.1.3v.3h-.3V62l-.1-.1v-.3h-.6v.3h.3l.2.3.1.2v.2l.3.2v.2h.2-.2v-.2h-.5l-.3-.2v.2l-.3.3h-.2v.9h1.1v.2h.2v.4h.2v-.3h.1v-.1h.3v.3h.1l.1.1v.1h-.3v.1h-.2v.2h-.7v-.2h-.1l-.1.3v.1l-.1.3v.3h-.3v.2h-.3v-.2h-.2.3v-.2h.1v-.1l.1-.1V65h.2v-.8h-.4V64h-.8v.4h-.1v.2h-.1v.8l.2.2v.1l.2.1v.1h-.2v.1h-.3v.2l-.1.1zm1.8-5.7v.1h.9v.2h.1l.2-.3h.2v-.5l-.2-.1h-.2v-.2h-.1v-.3.3h-.4v.2h-.2l-.1.2v.2h-.2zm.5-1.6v.2h.4v.4h.2v-.4h-.3v-.1h-.3l.3-.1v-.3h-.3v-.3h.4v.5h.4v-.4.2l-.3.2v-.4l-.3-.1h-.2v.4l.2.1h.1v.1h-.3v.2zm.2-1.6h.2v.2h.2v-.5h.4V57h.2v.4l.2.1v.5h.1v.2h-.3v-.4h-.2v-.1h-.5l-.1.3h.3v.2h.3v.1h-.5l-.1.2v.1h.4v-.3h.2l.2-.1v-.1h.4v-.3h.1v-.2h-.2v-.2h.2v-.2h.1l.2-.2h.3v-.4l.2-.1v-.2h-.3l-.2.2h-.6v.2h-.4v.3h-.5l-.1.2h-.1l-.1.1zm.6.6h.2zm-.3 1.4l.1.2v.4h.2v-.6h-.3v-.1h.2l.2-.2h.1v.9l.2.2h.2v-.4h.1v.7h-.2v.1l.2.2h.2v.1h.2l.1.1v.3h-.7v.4l.2-.2v-.3h.1v.3h.3v-.3h.1v-.5h-.2v-.3l-.3-.1v-.5h-.2l-.1.2h-.2v-.9h-.5zm.9 1.2v-.2h.1v.2zm.1 0v-.1h.3v.2h-.3zm.1-3v.2h.3v-.3h.1v.5l.3.1.2-.1v-.2h.3v-.2h.2v-.2h.1l.2-.1-.1.3h.4l.1-.3v-.1l.2.4h.1l.1.2-.1-.2v-.4h-.5v-.1l-.1.3v.2h-.1v-.5h-.3v.3l-.1.2h-.3l-.2.1v.3h-.3l-.1-.1v-.2l.2-.3h-.5v.3zm.6-3.1h.3l.1-.4.2-.1h.4v.6l.2.1v.3h-.3v.6h.3v.1h.1v.1h.3v.2h.7l.1.2v.3h.3v-.3h-.3V56h-.2v-.2h-.6l-.2-.1h-.1l-.1-.2v-.1h-.2v-.3h-.1V55h.3v-.2h.1v-.4l-.3-.1V54h-.7l-.1.2v.1h-.1l-.1.1zm1.8 3.1l.3.1h.2v.1h-.4v.2h.3l.2-.1.1-.2v-.1h.1l.1-.1h.1v-.1h.2v-.1h.1v-.7h-.3v-.2h-.3v.2l-.1.2-.2.2h-.1v.4h-.3zM267.6 110l.2.2h.2v.5l.2.1h.4l.3-.1.1-.4h.3l.2-.1h.2l.2-.2h.2v-.6h-.4v-.2h.2l.1-.2h1.6v-.3l.6-.5v-.8l-.4-.4-.1-.7h.5l.2-.3v-.3l-.4-.2h-.5l-.1.2h-.2l-.2.3h-.2l-.4.2v-.4h-.4l-.2-.3v-.2h-.1l-.1.7-.3.2-.1.2v.4l-.4.5-.4.2v.3l-.1.2.1.2v1l-.4-.4-.1.2v.3l-.3.3zm-13.3 167v.3h1.6l.5-.3h.6l.3-.4.5-.1.3-.3.1-.5v-.6l-.1-.6-.3-.4-.4-.3-.4-.3h-.4v.3l-.2.2-.4.3h-.2l-.1.4-.3.1h-.2v.2h-.4l-.1.3v.4l-.4.5v.6zM415.8-1.1v.1l.2.1v.2h.3v.1h.1v.1l.1.2V0h.2l.1.3.2.2.2.2v.2h.4l.1-.3h.8l.1-.1v-.8h-.2V-1l.4-.2v-.4l.1-.1v-.1h.1v-.9h-.1v-.1h-.2v-.1l-.2-.1h-.1v-.3l.3-.1v-.3h-.3v-.1h-.4v.3h-.3v.2h-.2v.1h-.4v.1h-.1l-.1.1h-.6v.1l-.1.1v.8l-.1.2h-.1v.4l-.1.1h-.2v.2zM117.7 21.6v.2l.1.2.2.3v.4l.3.2.4.1.1.3h.2l.2.2h.6v-.2h-.1v-.2h-.3v-.3h.3l.5-.1-.4-.3h-.2l-.2-.4v-.3h.1l.1-.2h.2l.2.3.1.1h.1l.2-.1h.3v-.2h.8v-.2l.3-.2v-.1l-.2-.2-.1-.2-.7-.5-.5-.2-.1-.5-.2-.2v.1h-.1l-.2-.1V19h-.4v.8l-.3.4-.6.5-.3.2v.2l-.2.2h-.2zM268 71.7h.2v.3h.2l.2.2.4.4.3.1h.3l.2.3h.3l.3.2h.2v.1l.3-.3.1.3h.5l-.2-.3.2-.3v-.9l-.2-.5v-.1l-.5-.6V70l-.4.2V70l-.1-.1-.6-.4h-.2l-.2.2h-.3v.9l-.3.2-.2.4-.2.1v.2zm16.6 38.1v.4h.3l.2.2h.4l.3.1-.3.7h-.2v.2l-.5.2v.1l.2.1h.3l.2-.1h.3l.2.2h.2l.1-.1v-.4l.2-.1.3.1.4-.2.2-.2.2.3.3-.2h.3l.1-.1-.1-.2v-.6l.1-.2v-1.1h.3v.6l.2.3v.1h.2v-.6l-.5-.2v-.4l-.1.1v-.1h-.3l-.2-.2-.4.1-.1.1h-.4l-.4.3h-.2v.1l.2.2v.1h-.3l-.3-.1h-.1l-.8.2-.2.2h-.3zM300 212.2v.1l.7.7.3.3v.7l.4.2.2.4h.3l.1.4v.2l.2.3v.5h.8l.2-.3.2-.3h.2v-.2l-.7-.5v-.2l-.4-.4v-.5l.2-.4v-.7h-.3l-.4-.5v-.5l-.3-.2-.4.1-.2-.1h-.3l-.2.2v.2l-.2.5h-.1zm7.7-132.9v.4h.3v.1h-.3v.2h.3l.4.1h.6l.4-.1.4-.1.1-.2v-.1h.1l.1-.4h.2v-.3l.1-.2h.1l.2-.2v-.8l-.5-.3v.5h-.2l-.3-.2-.3-.2h-.2v-.2h-.2v-.1h-.5l-.1.2h-.2l-.2.2h-.1v.6l-.2.1v.4h.1v.5h-.1zm.2-.7h.1v.1zm2.2-.3h.1v.2zm-23.4-15.5h.2v.7h.8v-.3h.1l.1.3h.3l.1-.2h.4v-.2h.3v-.3h.3v-.2h-.3v-.1h.2V62l-.2-.1-.1-.1h-.1v-.3h-.2v-.3h.3l.1.3v.1h.6v-.5h.1V61h.2v-.2h.1v-.1h-.3v-.1h-.2v-.1h.3v-.1h.2V60h-.3v-.2h-.1v-.1h-.8v.3h-.4l-.1-.2h-.8v.2h-.1v.2l-.1.2h.4v.2h-.3v1.7h.3v.2h.1v.3h.1v.1h.1l-.2.1h-.4v.2-.2l-.2-.2h-.6zm1-.2l.2-.1zm.5.4h.3v.2h-.4zm.5-2.4l.3.1v.2h.4-.2l-.2.1v-.3h-.2v-.1zm.7-.1h.2zm-15.3 12.1l.1.1v.3l.2.2h1l.1-.1h.4l.4-.1h1.4l.2.3h.6v.1h.4v.1h.1l.3.1.1.1h.6v-1.2l.3-.1h.1l.1-.2v-.4h-.3v-.3h-.2v.2-.2h-.4v.5h-.4l-.1-.1h-.1v-.4h-.5l-.1.2h-.1l-.3.1.1.2h.2v.5l-.2.1-.2.2h-.1l-.2-.2v-.1h-.2v.1h-.4v-.2h-.6v.1h-.2v.1h-.2v.1h-1l-.2-.2h-.2V72l.2-.1v-.6h-.4l-.1-.3v.6h.1v.7l-.4.1zm16.9-4.3v.3h.4v.1h.5l.1-.3h.4v.2h.1v.2h.4v-.3h.8v-.2h.1v-.1h.1V68h.1v-.9l-.1-.1h-.2v-.1h-.1l-.1-.2v-.1h-.1v-.1h-.2v-.2h-.2v-.1h-.3v-.1h-.1l-.1-.1h-.3v-.2h-.1v-.1h-.1v-.1h.4v-.4h.1v-.4h-.4l-.1.2h-.2l-.2.3v.3h.4-.6l-.2.2-.1.1v.1h.2v.3h.2v.2h.2v.1h.3v-.3h.3v-.1.4h-.2v.2h-.1l-.2.1h-.1v.4l-.1.1-.2.1-.1.1v.1h-.1v.2l-.2.1zM184.1 35.4l.1.3h.3l.2.3.4.1h.4l.2-.1.2-.3.3-.4.1-.5-.2-.6.2-.2.4-.5-.2-.5h-.3l-.6-.4-.2-.7h-.3l-.1.2-.3.6-.3.5.1.3.3.3.1.3-.1.3-.1.6-.2.3zm109.1 67.5v.3h.6v-.2h.2v-.5l.2-.1v-.4h.7v.6h-.3l-.2.2v.2h.1v.5h-.2v1.3l.1.2h.7v.3l.2.2h.2v-.4h.2v-1.4l-.2-.1v-.3l-.1-.1h-.6v-.4h.6l.1.3h.3l.1-.3v-.4l.2-.1v-.3l-.1-.1v-.1l-.1-.2-.2-.2h-.1l-.2-.1h-.1l-.4-.6h-.1l-.2-.1h-.2v.3h-.2v.2l-.4.4v.2l.2.1v.4l-.2.3h-.2v.1h-.4v.4zM327.6.5v.3h.2v.1h.7l.1-.3h.2V.2h.2v.2h.3v.2h.2v.1h.3V.5h.2V-.8h.5v.4h-.2V0h.5v.2h.1V0h.1v-.3h-.3v-.2h-.1v-.2h.4v-.2h.2v-.2h.2v-.2h.1v-.1h.2v.2h.3v-.3h.2v-.2h.3l.1-.1v-.1h.1V-2h-.7v-.5h-.3v-.2.3h-.2v.6l-.2-.3h-1l-.1.1-.2.2v.3h-.2v.1h-.2v.4h.1l.1.1v.2l-.2.1h-.3v.1h-.1l-.2.2h-.2v-.4h-.8v.3h-.2v.3h.3v.4h-.3v.1h-.2zm3.1-.8"/><path d="M305.3 76.3h.2v.3h.3l.1.1v-.2h.3l.3-.2h.1V76h.6v.4h.2v.3h-.4v.1h.3l.2.2h.3v.2h.2l.4.1V77h.4v-.2h.1v-.2.4h.1v-.7h.3v.5h.3v-.3l.1.2h-.2v.2l-.2.1-.1.2h.6l.2.1h.1v.1h.2v-.5h-.3v-.5h-.2v-.1l-.3-.3v.4l-.2-.3h-.2V76l-.1-.1v-.1h-.1v-.4h-.1l-.2-.1v-.1l.2-.2h-.4l-.3.2v.3h-.5v.2h-.4v-.2h-.2v-.2h-1.3l-.2.2v.2h-.2v.3zm.4-.5v-.1h.1v.1zm3.1.7l.1-.2v.3zM281.7 69h.1l.2-.2v-.2h.1v-.2h.1v.3l-.2.2v.1h.4l.2.2h.2v.1h.9V69h-.8l-.2-.2h-.1v-.3h.3l.1-.1h.3v-.2h.1V68h-.3v.3h-.1V68h.5v.4l.4.1h.1v.3h.1v.4h.2v.2h.1l.2-.2V69h.4v.2h.2l.2.1v.1l-.4-.2h-.2v.3h-.3v.3h.5l.1-.2h.3v.2h.2v.1h.3v.1h.1v.2h-.4l-.1.2h-.3v.2h.6l.1.3v.3l.2.2v.3h.2-.2l-.1.2h-.1v-.3h-.2v-.1h-.3.5v.4h.1v.1h-.2v.4-.3h.2v-.4h.7v-.2h.1v-.4l-.4-.1v-.2l-.2-.1v-.4l.2-.1h.2V70h.1v-.1h.3v.1l.2-.2v-.2h-.4v.3h-.1v.1h-.1l-.3.3h-.1v-.5h-.2l-.1-.2h-.5v-.3h.2V69h.1l.1-.2v-.1h.2v-.5h1v.4h.2V68H286v.3l-.2-.5h-.3v-.1h.2v-.2h.3V67h-.2v.3h-.1v.3h-.1l-.1-.4-.1-.1h-.1l-.3-.1h-.2v-.3h-.2v.3l.1.1v.4h-.1v.3l-.2.2v.1h.7v.6h.2v.3h-.3l-.2-.1-.3-.2h-.2v-.3l-.2-.3h-.1v.3h-.3l-.1-.1-.1-.3-.2-.2h-.1l-.1.2h-.1v.3l-.4.2v.2l-.2.1v.2h-.4l.4-.4v-.2h-.6v.5zm4.3 1.7v-.1.2zm1.7 19.8h.1l.2.1v.5h.1v.3h1.4l.1.3h-.9v.2h-.2v-.2h.1-.3l-.2.2h-.2v.5l.3.1v.7l.1.4h.2v.4h.5v-.2h.1l.1-.2h.1v-.3h.4V93l.2.2v-.3l-.3-.3v-.2.3-.2l.4-.2V92h.5v-.4h-.1v-.4h-.3V91h-.1l-.1.2v.1h-.1V91h-.2v-.1h-.3l-.3-.4h.2v-.1h-.4v.2h-.3v.1h-.1v-.1h-.6v-.3h-.1zm.4 1.5h.3v.2zm1.5 1h.2-.1zM135.4 224.2v.5l.2.2v.3l.1.1v.1l.3.1h.4v.3h.1-.3v.5l.4.2v.1h.2v.2h.6l.2-.3h.4l.2-.3h.3l.2.4h.1v.2l.2.1v.3h-.3v.3l-.1.1v.3l-.2.2v.1l-.2.2h-.4v-.5h-.1l-.2-.2h-.3l-.2.3-.3.3v.4l.3.1v.2h.5l.2.2h.2l.1.2.4.1.3.1h.2l.1.2h.1l.2-.2v-.1h.5v-.3h.2v-.2h.2l.2-.2.1-.2.2-.2v-.1l.1-.1.2-.1v-.1h.3v-.2h.2l.3.2.1.3.1.1v.4l.2.2v.1l.3.3.1.2v.2l.2.3v.9h.1l.1.3h.5v-.1l.2-.2.1-.3h.2l.1-.2.2-.3.2-.2.2-.4.2-.3-.1-.3.1-.3.1-.3.1-.2.2-.3v-.3l.3-.1.1-.1h.3l.3-.2h-.7v.2h-.3l-.1.2v.1l-.2.3-.3.4v.3l-.3.3v.5h-.1l-.1.5h-.1l-.1.2-.2.2-.1.2-.1.1-.1.3v.2h-.5v-.2l-.2-.3v-1.1l-.1-.1v-.2l-.3-.1v-.2l-.1-.2h-.1v-.4h-.2v-.4l-.2-.2h-.1v-.1h-.7v.1l-.3.2-.1.2-.1.1-.1.1-.2.2-.1.2-.2.1-.2.2-.4.2h-.7l-.3-.2h-.3l-.1-.1h-.4l-.2-.2h-.1l-.2-.1v-.6l.1-.1h.5l.1.1.1.2.2.1h.6v-.3h.3v-.3h-.3v-.3h.4v-.9l-.2-.3h-.4l-.1-.3h-.3l-.1.3-.2.2h-.2l-.2.1h-.8v-.4h-.1v-.9h-.4v-.1h-.3v-.5h-.1l-.1-.3v-.4h.2l.1-.2.2-.3v-1.2l-.2-.3v-.3h-.2v.3h.3v.2l-.3-.3h-.1l.1.5.2.1v.9l-.2.4h-.2v.3zm-5-8.5v.1l.2.2h.3l.1.2v.2h.2v.2h.2v.1l.2.1v.5l-.4-.2-.2-.1h-.2v.5l.2.1.2.3v.1h.2l.1.2h.2v.1h.9v-.3l.2-.1v-.1h-.2v-.2h.2v-.1h.1v-.3h.1v-1.1l-.4-.1v-.3l-.2-.2v-.1l-.1-.2h-.1l-.1-.2h-.3v.2h-.3l-.2.2h-.2l-.1.2h-.4l-.2.2zm-16.2-3.7h.2l.4.2h.2l.3.2h.3l.2.1h.2v-.3l.3-.2h.2l.1-.1h.2l.2-.3h.5l.2.2h.2l.3.2h.2l.2-.2h.4v.2h.6l.2.2h.5l.3.1.2.2.1.2.1.1v.2h.1l.2.2.3.1h1.1v.7l-.3.1v.1l-.2.1v.8h.3l.2.3h.6l.1.1.2.1v.1l-.1.3-.3.2v.1h-.2l-.2-.2-.2.3-.1.3v.6h.4v.3h.8v-.3h.1v-.1h.4l-.2.4h.3v.6l-.3.1h1.2v.1h.1v.1h.3v.1h.1v-.3l-.2-.1h-.1v-.1l-.1-.1h-.6l-.2-.2v-.1l-.2-.2v-.2h.7l.1-.1h.3l.2-.2h.7-.3l-.2-.2h-.5l-.3.2h-.1l-.2.3h-1.3l-.1.1h-.4v-.3l-.2.2v-.3h.3v-.3h.2v-.2h.2v-.1l.2-.3.1-.1v-.6l-.3-.1-.1-.1h-.1v-.2h-.9v-.6h.3v-.1h.1v-.1l.2-.2v-.7l-.3-.2h-.9l-.3-.1h-.2v-.2l-.2-.2v-.2l-.2-.1-.2-.1-.2-.2h-.4l-.2-.2h-.1.1-.8v-.2l-.2-.1-.1-.1-.1-.1-.3-.2v-.1h-.9l-.1.2v.3h-.5v.2h-.2l-.3.3h-.6v.2h-.7l-.4-.4h-.3l-.1-.2zm225.5-52.2v.6l.2.2h.1l.1.3.2.1.1.2.2.2h.1l.2.2v-.4h.3v-.1h.2v-.5h.2v-.1l.2-.1v-.1l.2-.2v-.1l.3-.4v-.2l-.3-.2h-.1l-.2-.4h-.1l-.2-.2h-1.2l-.2.2v.2h-.2v.5h-.1l-.1.2zM261 68.3l.2.1h.2l.2-.2h.1l.2.3h-.2v.1l.2.4.1.2h.6v.4h.4l-.2.3.5.1h.1v.5l.1.3.2.1h.3l-.2-.2.2-.4.2-.3-.2-.1h-.2v-.1l.1-.1v-.2l.1-.2v-.5l.3.1h.1v-.4l-.1-.2v-.1h-.7l-.1-.2h-.2l-.3-.2-.2.3v-.2l-.4.2v-.4l-.1.1-.3.2h-.6v-.2h-.2l-.2.2zm1.8 42.9l.3.2v.4l.2.3h.2v-.3h.1v.2l.4.1-.5.4h-.2v.3l-.2.3v.2l-.2.2v.1l.1.1h.2l.2-.2h.1l.1.1v.2l.2.1.3.2h.1l.1-.1v-.2l.3-.3.1-.3v-.2h.3v-1h.2v-.2l-.2-.1h-.2l-.2-.2-.2-.2h-.2l-.4-.2h-.2l-.2-.2-.3-.2-.3.3zM253 70.6l.1.6v.5l.3.2v.1l.3.2.2.2h.1l.5-.3.3-.1.2-.2h.2l.2-.3-.3-.3h-.1l-.1-.2-.2-.2v-.4l.3-.1-.2-.1v-.5l-.1-.1h-.4l-.5.3-.3.1h-.5v.3zm.8 0l.2-.2.2-.1h.2l.2.1v.2h-.6v.2zm39.8-12.4v.2h.2v.1h.4v.2h.1l.2.2v.1h-.3l-.1.1v.2h.8l.1-.1h.2V59h.2l.1-.1.3-.1.1-.2.1-.1v-.7l-.2-.1v-.2l-.2-.1h-.1v-.2h-.1v-.1h-.1l-.2-.1h-.8v.3h-.5v.1h-.2l-.1.2v.6zM259 75.9v.3l.2.4.2.2v.1l.1.2h.2l.3.1h.6l.1-.2.1-.3.4-.3v-.7l-.5-.5-.4-.4h-.3l-.5.2-.3.2-.2.2zm37.7-17.2l.2.2h.1v.1h.2l.1.2h1.2l.2-.2v-.2h.1l.2-.2V58h-.2v-.3l-.1-.1v-.2h-.2V57h-.1v-.2h-.6v-.1h-.2l-.2.3v.2h-.1v.1h-.1v.6l-.1.1h-.1v.3l-.2.1v.1l-.2.1zm-6.2 13.8h.2l.1.2v.3h.8l.2-.1v-.2h.2v-.2h.8v.4h.4v.1h.2v-.3l.1-.1v-.5h.1v-.2h.4v.3h.2v.2-.3h.1-.3v-.4h-.2v-.1l-.2-.1v-.4.3h.3V71h-1.5v.4h-.2v.1h-.2v.5h-1.1v.2h-.2v.1l-.1.2h-.2zM259.4 118v.4h.1v.1h.3v.1h.2v.3l.3.1h.2v.2h.5v-.2h.1l.2-.3.1-.2h.3l.1.2v-.3h.4v.1h.1l.2-.1v-.4h-.3v-.4l-.1-.1v-.3h-.4v.3l-.2.2h-.5v-.3h-.3l-.2-.3h-.7l-.1.4v.2l-.2.3zm32.2-19v-.1.2l.1.1h.4v.2l.1.1.4.2.3-.2.1-.3h.2v-.3l-.2-.1v-.3h-.4l.4-.3.2-.2v-.5l-.3-.2v-1.1h.4v.1h.2v.3l.1.1h.2l-.2-.5V96h-.1v-.4h-.2v-.2h-.3l-.1.2h.2v.2h-.3v.2h-.4l-.1.1h-.2l-.1.2v.3l.2.1h.3v.7h.1v.6h-.6l-.2.4-.2.3zm-.6 8.3v.2h.1v.4l.2.1.1.2v.2h.1l.2.2v1l.3.1h.4v-.5h-.4v-.2h-.3v-.3h.7l.2-.1v-.2l-.2-.4v-.2l.2-.2h.4l.1-.1v-.6l-.1-.1h-.1l-.1-.1v-.2h-.5v-1h-.3l-.3.4v.4l.3.1.1.1h.3v.5h-.8v.5h-.3v-.2h-.2v-.3h-.1zm.6.5v-.1h.2v.3h.2v.2l-.2.1-.2-.3zm36-67.2l.2.4.2.2v.3h.2v.5l.3.2v.2h.9v-.3h.1V42h.7v-.3h.2l.2.2h.4v.1l.1-.3h.1v-.3h-.4l-.2-.2h-.4v.3h-.4v-.2l-.2-.1V41h-.2v.3h.2v.3l-.2-.2v-.2l-.2-.2v-.2h-.2v-.2h.1l-.1-.1-.1-.1h-.3l.2-.3V40h-.2l-.3.2v.1h.3v.2l-.4.1-.2-.4v.2h-.3l-.1.1zM226.5 225.5v.2h.3v.3h.1v.2h.1v.1h.3v.2h.1v.2l.1.1v.6h-.3v.3l-.1.1v.1h.9v.1h.4v-.3l.1-.2h.5v-.5h-.3l-.1-.3h-.1v-.1l-.1-.1h-.1v-.1l-.1-.1v-.6h-.2v-.3h-.6v-.2h-.8zM124.9 16v.7l.1.3h.7v-.6l-.2-.1.3-.1h.5l.5.5h.4l.2-.2v-.1l-.2-.4-.4-.4-.2-.3-.1-.2-.1-.3-.1-.3-.1-.2h-.2v-.1h-.4v.1l-.1.1v.2h.4v.4l-.4.4h-.1l-.2.2-.2.2zm177.9 61.4h.2l.3.3h.2v.2l-.2.1h-.3v.2l.4.1v.2l.4.1.2-.1-.2-.3V78l.4-.1.6-.7v-.5l-.7-.8h-.9v.6l-.2.1v.4h-.3zM165.7 2.3h.2l.1.2h.3v.1h.2v.1h.7v-.2h.1v-.2l.2-.2V2h.1v-.2l.1-.1v-.1l.1-.1v-.2l.1-.1V1l-.3-.2h-.2V.7h-.1V.6h-.2V.5h-.1V.3l-.2-.1V.1h-.5v.3l.3.3v.2l-.3.1v.2h-.3v.1h-.2V2h-.1v.2h-.1v.1zM273 76h.3v.4h.6l.3-.2.2.4v.2l-.1.2h-.3v.1h.8l.2-.1v-.2l.2-.2v-.2l-.2-.2v-.6h.4v.2l.3-.2h.3v-.2h-.4l-.1.1h-.2v-.2h-.5V75l.2-.2V74h-.4l-.2-.2v.5l-.4.2v.8h.7v.2h.1v.2l-.4.1-.2.1h-.3v-.2h-.2v-.5h-.5v.8zm0 0"/><path d="M126 217.2h.5l.3.3.5.1.4.3.1.1.2.2v.1l.2.2v.2l.2.3v.5l.3.2v.3l.2.3.1.2h-.2l-.1.3.1.2h.6v.2h.6l.2-.2.1-.1.2-.2.1-.2.2-.1v-.4l.2-.2v-.4h.6l.4.3v.2l.2.4v.2l.2.1v.1h-.3v-.2.2l.4.3v.1h.2l.2.3h.4l.2-.4h.2l.2-.3.3-.3h.8v.2l.1.2v.5l.2.2v-.1h-.3v-.3h-.2v.2l.5.2v.1l.2.4h.2v-.2l-.2-.2-.1-.1v-.4l-.2-.2v-.4h-.2v-.2h-.3v-.1h-.6v.2l-.1.2-.3.1-.3.3h-.1l-.2.1h-.3l-.1-.1-.2-.2v-.2l-.2-.2v-.4l-.3-.2v-.3l-.3-.1-.1-.1h-.5l-.2.1-.2.1v.2h-.2v.6l-.1.3-.2.1v.1h-.2l-.3.2h-.2v-.2l-.4-.3-.1-.3v-.2l-.3-.3v-.3l-.3-.8-.2-.6-.3-.3-.3-.2-.6-.3-.5-.2h-.3.2-.2zM278.9 61.5v.1l.1.1h.3l.2.2h.2l.3.1h.1l.2-.1.1-.1.2-.2h-.1v-.1l-.4-.1h-.1v-.2l.4-.2v-.3l.3-.2v-.2l-.2-.1.3-.6-.2-.2-.2-.1h-.2l-.2.3v.2h-.3l-.2.2v.2l-.1.2h-.1l-.1.1v.3l-.2.2v.2zm7.9 8.5h.2v.3h.3v.3h.1v.2h.1v.1l.1.1-.3.2v.1h-.1v.1h-.2v.6h1.1l.2-.2h.1v-.1l.1-.1v-.9h-.4v-.2h-.1v-.1h.4v-.1h.1v.3h.1-.3v.2h.3-.3v-.3h.3v-.9h-.5v-.2h-.1v-.1h-.5v.5l-.2.2v.2h-.3V70h-.1zm-30.4.2l.3.2v-.1l.1.1.3.2.2.4v.3l.3.2.4-.2V71l-.3-.6-.3-.2v-.4l.2-.1h.4v-.3l.3-.2v-.6l-.3-.1h-.2l-.2-.4V68h.4v-.5h-.3l-.2.3v.2l-.3.3v.6h.2v.5h-.7v.6h-.2zM256 72h.4l.1.3v.1l.2.2v.3l.1.1v.5h.2v.3h.1l.3-.3v-.1h.3l.5.4h.6v-.1h.2l.2-.3v-.3l.1-.1-.2-.2-.4.2h-.1v-.2h.2l.1-.2v-.2l-.2-.1h-.3v.3l-.2.1v.3h-.3l-.3-.4h-.3v-.3h-.3v-.1l-.3-.4h-.7zM146.2 227.4h.2l.2.1.2.2h.1v.4l.1.2.2.3v.1l.1.2v.6h-.1l-.2-.3-.2-.2v-.1.3l.2.1.2.2.1.1h.2l.2.3h.3v.1h1.2l.2-.2h.2l.2-.1h.2v.3h.3v.9l-.3.1h-.8l-.1.3h-.3l-.2.1-.1.1v.1l-.3.1v.6l.3.2.2.2.3.1.3.2h.5v.3h.9l.3-.3h.2v-.2h.2v-.3l.2-.1v-.1h.1v-.2h.8l-.3-.1h-.8v.2h-.2v.2h-.2v.1h.3v-.3h.1v-.1h.1l-.1.2h-.1v.5l-.3.2h-1.3v-.2h-.3l-.1-.2h-.3l-.1-.1-.3-.1-.2-.1v-.1l-.1-.2v-.2h.2l.1-.1h.1l.1-.2h.4v-.4h.5v.2h.1l.2-.1.3-.2v-.4h.2v-.8l-.4-.1h-.1l-.2-.1h-.6l-.1.2h-.2l-.3.1h-.6l-.3-.4-.2-.1v-.3h-.2v-.5l-.1-.2v-.4l-.2-.3v-.1l-.4-.2h-.1l-.2-.2h-.1zm94.1 40.4h.1l.1.2h.1v.2h.4l.1.1h.1l.2.1v.3h.1v.8l.2.2v.2l.1.1v.1l.1.2h.1l.1.3h.2v.8l.2.2v.2h.3v.1h.2v.6l.2.2.1.2h.1l.2.1h.9v.2h.3v.1l.1.3h.1v.1h.4v-.3h.5v.3l.1.1v.2h-.8v.2h-.1v.2l.2.1v.3l.2.2v.5l.2.1v.4h.6v-.3l.1-.3.2-.1v-.3l.1-.2h.3v.8h.7v.3h.2v.9h.1v.2h-.4v.3h-.2v-.3h-.4v.6l.3.2h.4v.1h.1l.2.1v.2h-.4v.3h-.2v.5l.2.3h.5v-.6h.2v-.1h.3v.4h.1v.1l.2.1.1.2.2.1v.1l.1.1.1.1.2.2-.4.2h-.1v.3l.2.2v.6h.1l.1.2h.2v.3h.1v.4h.1l.1.1v.2l.3.3v.1h.2l.2.1.2.2v.1h.1v.2h.2v.1h.2v-.3h-.4l-.1-.2-.2-.1-.1-.2h-.3l-.1-.1v-.3l-.2-.1-.1-.1v-.2h-.2v-.3l-.1-.2v-.1h-.1v-.2h-.2v-.8h-.1v-.3h.4v-.1h.1v-.3h-.4v-.2h-.1v-.1h-.2v-.2l-.2-.1v-.4h-.3v-.2h-.4v.2l-.1.2v.1l-.1.2h-.4v-.9h.5v-.3l-.2-.3-.1-.1h-.3l-.1-.1v-.1h-.1v-.4h.3v.3h.4v-.3h.1v-.5h-.3v-.4h.3v-.3h-.3v-.1l-.3-.2h-.4v-.7h-.6v.5h-.1v.2l-.1.1h-.2v.1h-.4v-.4l-.1-.2v-.1h-.1v-.2l-.1-.1v-.3l-.1-.2v-.1l.4-.1h.4v-.4h-.1l-.1-.2-.2-.1h-.2l-.1.3h-.3l-.1-.4h-.3v-.2l-.3-.2h-.5v-.1h-.6v-.3h-.1v-.4l-.1-.3h-.2v-.1h-.2v-.1h-.2v-.7h-.1v-.3h-.2v-.1l-.1-.1v-.2l-.3-.1-.1-.2v-.2h-.1v-.9l-.1-.2v-.2l-.1-.1v-.1h-.3l-.1-.1h-.3v-.2l-.2-.2v-.6h.3v-.2h-.2v.3l-.2.1v.5zm29.7-169l.3.2v.5h.4v-.3l.1-.2-.2-.1v-.2h.3l.1.2h.1l.1.1v.4l.3.2.3.2h.2v-.2l.1-.1.1-.3V99l-.2-.4h-.6v-.3h-.2V98l.2-.2.2-.1-.2-.3h-.3l-.4.6-.4.2-.1.2v.3h-.2zm15.1-32.4v.3h.1v.3h.7l.3-.5h.1l.1-.1v-.3h.2l.3.4h.1v.2h.5l.2-.4v-.5l-.3-.1v-.6l.1-.1h-.1.2v-.2h-.4v-.1h-.2l-.1.1v.7l-.3.3h-.4v.4h-.4l-.2-.2h-.4v.2zm-18.3 4.8v.3h.2v.5h.1v.3h.1l.4.4.2.1h.4v-.5h-.2l-.4-.3h.2v-.8l-.3-.3h-.2v-.8h.1l.1-.1h.3l.2.2h.2v-.5l-.2-.1v-.3h.3V69h-.3v-.2h-.3l-.1.2.2.3V69l.2.2v.2h-.3l-.2.2v.3l-.3.1v.3l-.4.2v.3zm.5 1V72l.2-.2v-.5l.2.1v.7h-.3v.1zm.1.1h.3-.2zm.6-2.3v-.3h.2v.3zm-8.5 11.6v.2h.3v-.2h.1l.3.4h.1l.1.2h.3v.1h.8l.3-.6V81h-1.2l-.4-.2-.2.2v.4h-.5v.3zM177 177.7l.2.3.1.2.2.2.2.2h1l.1-.1.2-.2v-.7l-.4-.2v-.2l-.1-.1h-.5l-.2.2h-.6l-.1.3zm38.8 52.3v.1l.2.3v.2l.2.2v.2h.4v.2h.1v-.4l.2-.1h.1v-.7h1.6v-.3h-.5v-.1h-.1l-.2-.1h-.2l-.3-.1h-.5l-.1-.1h-.1l-.1.2h-.5l-.2.1v.2h-.1zm199-226.8v.3h.4v-.3h.6l.2.3v.1h.4v.1h.2v.1h.3v-.3h.1v-.3h-.3v-.1h-.1V3h-.2v-.2h-.2l-.1-.1v-.1h-.1v-.3h-.2v-.2h-.1V2h-.2v-.2h-.7V3h-.1v.2zM276 74.8l.2.2v.5h.2v.1h.4l.2.3v.1l.2.1.2.3h.3v.1h.6v-.2h.2v.3l.2.1h.1v-.4h.1v-.1.3h.3v-.3h-.3v-.1h-.2v.5h-.2v-.4h-.6V76l.1-.3v-.3l-.2-.2-.1-.1h-.2V75l-.2-.2v-.1l-.1-.1-.2-.3h-.2v.6l.4.1v.2h-.4l-.1-.3h-.5v-.3l-.2-.1.3.3h-.5zm2.8 1.7v-.2zm-46.9 11.9v.3l.4.1.1-.3.3-.5.3-.5.2-.4.4-.7v-.6l-.1-.1-.3.2-.2.3h-.2l-.2.1-.2.7-.1.4-.3.5zM267.2 66v.1h.7l.2.3h.8V66h-.4v-.5h.2v-.2h-.3l-.1-.3.2-.1v-.1l.2-.1h.1v-.6h-.6l-.2.2v.2l-.1.2-.3.1-.3.3v.3h.3v-.3l.2.2v.3l-.3.2-.2-.1h-.2zm1.8.5l.3.1h.1l.2.2h.2v.2h.3l.1.1h.4l.2.3h.5v.2h.5l.1-.5V67h.1v-.4h-.3l-.2-.3h-.2l-.3.3h-.4l-.2-.2v-.2l-.2-.2h-.6l-.1.5-.3-.2-.2.1zm55.5-51.8h.2v.2l.1.1v.4h.1v.2h.1v.1h.2v.1h.5v-.5h.1l.1-.1h.1V15h.2l.1-.2v-.3h-.7v-.2h.3V14h-.4l.3-.2v-.4h-.4v.3h-.1v.2l-.1.1-.2.1h-.1v.2h-.1l-.1.2h-.1v.3zm-68.1 64.5h.1v.2l.3.2v.1l.1.1h.1l.2.2v.2h.4v.2h.8l.3-.4v-.6h-.1l-.2-.3h-1.8V79h-.1zM150.5 236.3v.1h.2l.1.2v1.4h.4v.3h.2l.2.2h.7l.2-.3v-.2l.1-.1v-.6l-.1-.4-.1-.2h-.1l-.3-.1v-.2l-.2-.1v-.3h-.2v.5l.1.1v.2h.3v.2l.2.2v.2l.1.1v.5h-.3l-.3.2h-.2v-.2h-.2v-.2h-.1l-.2-.2v-1.1l-.2-.2h-.2zM338.2 81.9v.1h.2v.5h.2v.4-.1.2l-.3.2v.5h.3v.1h.4v.1h.3v.1h.4l.1-.2v-.3h-.3v-.1h-.1v-.1l-.1-.1-.2-.2v-.1h.2V82l-.3-.1v-.1l-.1-.1v-.3h-.3v.4h-.5zm.4.3h.3zm.3.5h.1zm-87.3 14.4v.2h.2l.1.2h.1v.1h.2v.7h.4v-.2h.2l.2-.1h.2v-.2l.1-.2v-.1l-.3-.1v-.2h-.1v-.6h-.4v-.2h-.3v.1l-.2.1v.2h-.1v.2h-.4zm33 7.9v.1l.3.4h.3v.2h-.1v.3-.3h-.1l-.2-.2v.9h.5l.1-.1v-.4l.4-.1h.1v-.3h.1v.2-.7l-.4-.1v-.2h-.2v-.2h-.2l-.2-.2h.2l.2-.1h.1v-.2h-.1l-.5-.3h-.2.3v.3h.1v.3h-.1v.1h-.3v.4zm.3 0v-.1h.3v.1h-.2zm-70.3-1.2v.4h.2v.3l.2-.1.1-.1h.3l.1-.2.1.2v-.2h.1v-.3h-.1v-.2h.8l.1-.4h.2v-.1l.3-.1-.2-.3h-.4l-.2.3h-.4l-.1.3h-.2v.2h-.3l.2-.2v-.3h.1l-.1-.1h-.4v.3l-.4.2v.3zm74.8-40v.2h.1l.2.2h.1v.1l.1.1v.2l.1.2h.4v.2h.5l.1-.2v-.1h.2l.1-.3V64h.2l.1.3h.2l.2-.3v-.4h.2l-.2-.1h-.2l-.2.1v.2h-.6l-.1.2-.1.1h-.5V64h-.3v-.2h-.2v-.1l-.1-.1h-.2v.2-.3h-.2zm48.9 5.8v.2l.3.3v.2l.1.3v.4h.3v.2l.2.2v.2h.2l.1.1.2.1h.3v.2h.3l.1.1h.1l-.2-.3h-.3l-.2-.1-.2-.1h-.1l-.2-.2-.2-.1V71h-.3v-.2l-.1-.3-.1-.5-.1-.4v-.7l.1-.1v-.1l.2-.3v-.8l-.1-.4v-.3l.3-.1.2-.1h.6l.2.3.3.2h.5l.2-.2v-.4l-.2-.1h-.1l-.2-.3h-.2V66h-.3v-.3h1l.4.3v1l.1.3h.2v.1h.3v-.2l.2.2h.8v-.2h-.6l-.2-.2h-.6v-.3h-.2v-.9l-.1-.1h-.2l-.1-.1h-.9l-.1.3v.1l.1.2v.1l.4.2h.3v.5h-.5l-.1-.1-.1-.2h-1l-.3.1-.1.4-.2.5v.5l.2.2v.2l-.4.4v.3h-.1v.1zM125.7 21l.2.4.1.1h.6l.2-.2h.5v-.2h-.3v-.4h.3l.1-.3-.1-.4h-.5l-.1.2h-.5l-.2.3h-.1l-.3.3zm165 81l.3.2.4-.2.1-.2h.8v-.4l.3-.1v-.3h-.3l-.3-.1h-.2l-.3-.1h-.2v-.3h-.3l-.1.3.2.2v.1l-.2.2v.1l-.2.2v.2zm1.5-1h.2zm7.2-45.4l.3.2h.3v.1h.6l.1-.4.1-.2.2-.2v-.2l-.1-.2h-.4v-.3h-.4l-.1-.2h-.3v.6h-.1v.2h-.1v.2zm37.9-40.1v.3h.2v.2h.4v-.3h.6v-.1h.3v-.1h.5v-.4h-.3v-.2h-.2v-.2h-.2v-.2h-.6v.2h-.5v.1h-.1v.2l.3.2v.2h-.4v.2zM118.2 3.3v.4h.7V4h1.1v-.3l-.4-.1v-.2h-.2V3l-.2-.3v-.3h-.4v.2h-.4v.1h-.1V3h-.2v.3zm91.6 123.9h.4l.1.1.2.1.3.2h.5l.2-.2v-.8l-.3-.2-.2-.2h-.3l-.2.2-.2.2-.2.2-.1.2h-.2zm77.7-58.9v.4h.3v.2h.4l.2.1h.4v.3h.3V69h.4v-.5h-.3l-.2-.2v-.1l-.4-.2-.1-.1h-.5l-.2.2h-.1l-.3.3zm-20.8 7.1v.2l.7.6v.4l.1.2.1.2v.2h-.3v.8l.3.2v.8h.1v-.4h.2v-.9h.1l.3-.1v-.4l-.3-.2h-.1l-.2-.2v-.6l-.3-.2-.2-.4-.4-.3zM283 96.1l.2.1h.4l.2.2v1h.9V97h-.3l-.2-.3v-.2l.3-.1-.2-.1v-.4h-.3v-.6h-.4l-.2.2v.1l-.1.1-.3.3zM167 5.8v.3h.2l.2.2v.1h.1l.3.2h.2v-.4l.3-.2v-.2h.2v-.4l-.4-.1-.1-.2h-.2V5h-.5l-.1.3h-.2zm171.6 7.5v.2h.3v.1l.1.1h.2v.1h.2v.4l.1.1h.2l.2.1h.1l.2-.2V14h.2l.1-.2h.1l.1.2h.2v-.2h-.3v-.2h-.1l-.1-.2h-.1v-.1l-.2-.1h-.6V13h-.4v.2h-.1v.1zm-64.4 80v.7l.5.4h.1l.4-.3h.3v-.4l-.1-.2V93l-.2-.3h-.2l-.2.3h-.2l-.2.2h-.1zM286 59.6v.4h.3l.2.2h.3l.1-.2v-.3h.3l-.2-.1v-.1h.4v-.1h.1v-.7h-.1v-.2h-.1l-.2-.1v-.1h-.3l-.2.2v.4h-.1v.1h-.3v.2l-.1.1v.2h-.1zM201 52l.3.3.4.2h.3l.3-.1V52l-.3-.2h.7l.3-.3h-.2l-.6-.3h-.4l-.2.3h-.6zm92.1 7.7h.3v.5l.1.2h.2v.1h-.3v.3h.2l.2.1h.4l.1.1h.4v-.8h-.3v-.3l-.1-.1h-.3v-.3h-.3v-.1h-.2v-.1h-.4zM156.5 168.6v.4l.2.2.3.4h.1l.1-.2h.1v.4l.2.2.1.2h.5l.2-.2v-.7l-.3-.2h-.2l-.2.3h-.3v-.4l-.1-.2-.2-.2h-.2l-.1-.1h-.2zM326.7 19v.2h.2l.1.1v.4h.2v.2h.1v.1h.1l.1-.2v-.1h.4v-.2h-.4v-.1l-.1-.1v-.9h-.1v-.6h.3v-.4h-.5v.2h-.1v.3h.2v.1h-.4v.1h-.1v.7h-.1v.2zm-32.3 47.7h.2v.2h.2v.1h.4v.2h-.2v.1h-.2v.1l-.1.1v.1l-.1.1v.2h.4v-.4h.2v-.2h.4v-.1h.2l.1-.1V67h-.6.5v-.6h-.4V66h-.4v.3h-.6v.3zM420.1-.4v.2l.1.2.2.1v.2h.1v.2l.1.1h.4V0h.2v-.5h-.2v-.3h-.2V-1h-.1v-.3h-.1l-.1-.1h-.3v.4h-.1zM278.4 98.7l.2.1v.4l.2.2h.7l.4-.4h.1l.3-.2-.1-.2.1-.1v-.1l-.3.1-.3.2-.3-.1h-.1l-.6-.3-.3.3zM331.8-.7l.2.1v.5l.1.3v.2l.2.2V1h.3V.3h.1l.1-.1v-.4l-.3-.1v-1h-.4v.2l-.2.1v.3zM166.7 27.5v.5h.2l.1.1h.2l.1.2h.2v.2h.9V28l-.1-.1-.1-.1-.2-.1v-.1h-.5v-.3h-.2l-.2-.2h-.3v.4h-.2zm97.1 69.3v.2l.2.3.2.1h.2v.2h.6v-.2h.2l.1-.3v-.2l-.1-.2v-.2l-.2-.1h-.8l-.2.1-.1.2zm67.6-15.9v.3h.3v.2h.7l.2.2h.2l.2.1v-.3h.2v-.2h.2V81h-.4v-.1l-.1-.3h-.3l-.1-.1h-.9l-.1.3h-.1zm-43.6-22.7v.6l.2.1v.1h.5v-.4h.4v.3-.2.3l.3.3h.2v.1h.3v-.5h-.2v.1h-.2l-.1-.2h-.1v-.1h-.1v-.1h-.2v-.5l-.1-.1h-.4l-.1-.2h-.1v-.1h-.2v.5h-.2zm1.5 1V59h.2v.3h-.3zm0 0"/><path d="M289 65.6v.4h1l.1-.3.2.3h.5v-.5l.1-.1v-.1h-.4V65h-.2l-.1-.2h-.2v.5h-.2v.2h-.3l-.2-.4h-.1l-.2.5v.1zm4.3 42.2h.1v.2h.1l.2.4h.6l.1-.4.3-.2-.2-.2h-.2v-.3l-.3-.1v-.2l-.2-.1v-.2h-.3v.3l.3.1v.2h-.5zm-22.1-32.1v.3h.2l.2.1.1.2h.9V76h.4-.2v-.2l-.3-.1v-.3h-.2l-.3-.1v.3h-.4V75h-.2v.4l-.2.2zM338.8 9h.2v.9h.5v-.5h-.3V9h.6v-.4l-.4-.3V8h-.4v-.2h-.2v1zM269 91.4v.3h.6l.2-.1h.2v-.2h.4l.2-.2V91h.2v-.6h-.8l-.1.3v.3h-.2l-.4.2-.2.1zm.4 0v-.2zM333.1 11h.6v.2h.3v-.3h.5v-.2l.1-.2h.2v-.1h.1l.1-.1v-.1l-.1-.2h-.5v-.2h-.2v-.2h-.2v.6h.2v.1h.1v.2h-.3l-.1-.2V10h-.4l-.1.2v.7h-.2v.1zm1-1v-.2h.2v.2zm6.8 61.6v.1l.2.3.6.4.1-.1v-.1l.1-.2v-.2l-.2-.3v-.2h-.2v-.6h-.5v.8h-.2zm-58.8-.7h.2v.1h.4v-.2h.5v.2h-.4l-.1.2v.1h.5v.2h.5l.1-.3.1.3-.3.3v-.3h.4v-.4h.2V71h.1v.2h.2-.3v-.4h-.1l-.1.2v.1-.3l-.3-.1h-.6v.2-.5h-.1v-.1h-.8v.6zm-110.6 99.4l.2.2.1-.3h1v-.2h.2v-.4l-.3-.1-.1-.2-.2-.2h-.2l-.2.1v.3l-.2.1v.4h-.2v.2zm54.5 59.6v.1l.6.1.2.3v.2l.2-.2.2-.1h.5v-.5l-.4-.2v-.1l.2-.2v-.3h-.1v.3h-.3v.2l-.1.1v.2h-.7v-.2h-.1zm0 0"/></g></svg>