<svg xmlns="http://www.w3.org/2000/svg" viewBox="0 0 497 279"  xmlns:v="https://vecta.io/nano"><path fill="#f2efe9" d="M0 0h497v279H0z"/><g fill-rule="evenodd"><path fill="#eee5dc" d="M316.8 74.6l2.5 2.3.1-3.3L321 72l-4.2 2.4zm0 0"/><g fill="#aad3df"><path d="M208.4 150.7h.2l-.1.3.1.8h.4l.2 1.1.2.1-.2.7h.1l-.2.8h-.3v.3l.6.3v.8l-.5.7.4.2v.5h.2v.9l.5.3.7.3v-.5h.3v-.3.2h.7l.1.4.1-.4.3.1-.1.7h-.3l.2.4-.3.8h.1v-.4h.2l.2.2-.3.5h.2l.2.1.6-2.3h.3v.7l.3-.4.1.1.2-.3.7-.1h.2l-.1.2.2-.5h.2v.2h.3v.2h.4v.4l.2-.6.1-.2v1h.2l.1-.7h.9l.2-.1v.4l.2.4-.1.3-1 .3v.2h-.7l-.9.7v.1h.8l1.7-1h.1v.2h.5v.5l-.3-.1.3.6.1.2v-.4h.1l.3.8.3.1v.7l-.8.1v.3l.2.3.3.6 2.1.4h.7l.9-.2.6.3h1.2l.8-.3h.2l-1.3 1.6h-.2l-.4.7h.1v.1h-.5l-.3.5v.4l-.3 1h.4v-.2h-.1v-.2h.2v-.6l.4-.2v-.5h.3v-.5l.2-.1.4-.2.9-.9.6-1 .2-.4.5-.6.3-.6h.1l.2.2v.1l.3.2.2 1.2-.1.3-1.4 1h.1l-.5 2.6.2 1.8h.2v1.7l-.5 1.7-.4.2-.1-.4v.1h-.4v-.6h.5v.1l-2-.6-.2.7h-.4v.3h.4l-.3.5h.4v-.1h.3l-.4 1h-1l.2.2h-.8v-.2l.7-.4v-.8h-.5v.8l-.6-.2-.2.3-.9-.2-.1-.5h-.4v-.3l-.3.1.9 2h.2l.6.2v.6l1.1.2v.2l.7.2h.2l.6 1 .5.2.1-.1v-.3.2l.7-.1.4 1.2.3-.3v.3l.3.3 1.1-.2v-.4h.9l.4.3h1.3l.6-.7.5-.1.3-.4 1-.7.1-.4 1.1-3h.6l.4.4h.2v.3l.3.7v.4h.3v.3h-.2v.4l-.4-.2-.2.1.4 1 .2.1.8.6.8.1v-.3l1.2.1v-.2l1.2-.3v-.2h.2l-.1-.3.7-.1.3-.3.3.4h-.4l.3.3.5-.3 1 .2.2-.2v.2h.1l.5-.6 1.4-.2.8-.6h.1v-.2l.5.1v-.5l.4-.2v-.2h.1v-.3l.6-.2v-.6l-.5.3h.1l-.1.5-.2.1-.3.1.1.3-.6.1-.6-.3.4-.9.3-.5v-.2l.5-.2v-.4h.4l.1-.3h.2l.7-.5.2-.8h.4l.2-1h.5l.5-.2.2-.3v.2l1.2-.2v.4h.3l.5.8h.2l.2 1.5.1.4.3.1v-1.5l.6-.2.9.5.2-.1.3.3v.9-.2h.1v.2l.2-.2v.2l.2.4v.2h.3v.5h.4l.8 2.2 1.8 1.1 1.4.4 1 1.2.5.1.3.5v.3l1 .7h.2v.1l1.5.4.5.6h.2v.3l.2.2v-.2l1 .1v.3l1.6.4h.2v.2l.3-.1v.2h.6l-.1.1h.7v.3h.4l-.3-.1 2 .1h.5l.5.3h.5l.5.1 1.2-.1.5.2.2.4.4.2h2.6l-.1.3 4-.3.5-5.6.9-6.6-.1-.2-.6-.1-.4-.4h-.6v-.1h-1l-1-.1v-.1h-1.9l-1-.5-.8-.2v-.1h-.2l-2-2-.3-.4-.6-2v-2.1l-.2-.9h-.3v-.4h.2v-.1h-.1v-.1l-1.3-1.5-1.2-1.4-.5-.9-.2-.4.1-.3.2-.1v-.4l-.1-.4-.3-.4-1-.6-1.3.2h-.1l-1.1-.2-1.5-.8-1-1.1v-.3l-.1.2h-.1v-.6l-.1-1.3v-.2l-2.7-.5h-1.6l-.7.2h-.5v.2l-1.7.3-2.5-.5-.8.2v-.2l-.9.4v-.2l-1 .1-.9-.1-.9-.4-.1-.2h-.4l-1-1-1.8-.4-1.8.4-2-1.3-1.9-.3-4.9 1.2-1.2.6h-.4l-1 .6v.2h-.3v.3h-.2l-1 .7-.2.5-.2-.1v.3l-.8.5-.6 1.4h-.4v-.2l-.4-.1-.6-2.5-.4-.5v-.2h-.1v-.2l-1-1.4-.9-.5-.5-.1v-.5l-1.7-1.2-.1-.2h-.3l-.3-.3-1.3-.4v-.3l-.2-.1.3-.2-.8-1.1-2.7-1-.1-.6h-.2l-.2-1 .3-.7-.5-1.5-1.1-.2h-2.2l-.1.4h-.2l-.2.5h-.4v-.2h-.2l-.1-.3.1-.2-.2-.4-.3.3-.3.2.2.7h.2v.2l.2.2h.1v1.4l-.3.1-.3 1.5-.2.3.2.5h-.2v.5l.2.7-.2 1 .2.5-.7 1.9-.4.5-.4.1zm41.5 17.4l.3-.1.3.4h.2l.3.6-1-.5zm.6.9h.2v.6h-.2zm0 .1"/><path d="M280.7 183.2l.3.6h.5l2.2.2.4.3.9.7h1l1.4.8 2.2.8h.3l.1-.4 2.7.5h.6v.3h.3l.2.2h.3v.2h.4l.3.2.4.1v.1l.4.2.4.7 1.4.9 2.2 2.7h.2l3.6 5.6h.7l.2.6 2.2 2.5 4.4 4 1.2.2.5.6h.2v.2l.7.3v.2l2.3 1.1.4.2h.6l.4.7h.3v.1l.5.4 1 .9v.6h.1l.2-.7 1 .4.3.4 2.9 1 .1.4h.4l.3.5v.1l.9.6 2.2 1 .1.6 2.6 1.8.2-.1v.2l.9.4 2.1-.2v.8l.5.1 1.4 1.6.2.4.2-.3.3.1 4.1-.4 3.5 1.2 3 1.8 2.6 1 1.4.6v.2l.3.8v.2h.2v.2l1.4 2.6h.3v.3l.8.9.2.3h.2l.4.5 2 1 2.1 1.6.6.2h.2l.7.6v.2l.9 1 .9.2.1.1h.5l4.6-.2 1.8-.1v.2l1.3.4v-.5l-.4-2h.3v-.4h-.3l-.3-.1.1-.2-1 .1v-.2l-.4.2v-.5l.4-.2.1-.3h-1l-.3-.9-1.7-.5v-.2l-.3.1v-.2h-.6v-.2h-.1l-.8-.7h-.2l-.7-.7-2.6-.5-.8-.6h-.6l-.6-.5-2.4-1.3-.5-.3-.8-.9-.3-.4-.2-.4-1.5-3.5-3.2-1-2.6.4-1-.4-1.6-1.3h-.3l-.4-.7h-.4l-.6-.5-1.4-1.8-.4-1.4.4-1 1.4.5.2.3 1 .5 2.7.2 2.1.5.6-.1 1-.4.6-.8 1.2.5.5-.2 1.1-.5v-.1l.4-.4.6-.5h.6l-3.8-1.3-1.2-.4-.2 1.2-.8.8-1.3-.2-1.7-1-2.1-1.5-.6-1.3.1-1.3v-1.8l-1-.6-.8-.5-.2-.5-.7-.8-1.2-.4-1-.4-1 .3-.3-.8-.7-.2-.3-.4-.5-.2-1.2-.2-.1-1-1-.8-1-.7h-.9l-3.1-1-.9-.6-1.5-.2-.9.2v.3l-1.8.3-.5-.2v-.2l-2.2-1.4-.1-.3-2.3.1-.3.3-.9.2h-.5l-.1-.1h-.1l-.3-1 .1-.2-.1-.2v-.7l-.6-1.6h-.3l.1-.8h-.1l-.2-.4-.8-3.7-.5-.4v-.4h-.1l-.8-.8-1-1.2-.8-1-.9-.2-.4-1.5-.8-1.5-1-1.5-1.7-1.6v-1l.7-1.3-.9.3h-1.1l-1.6-.5-1-1.5v-1.4l-1.2-.7-1-1-.3-.7h-1.2l-2-.5-.9.2-1 .8-1.1-.4-1.8.4-.9 1.4-1.3-.3v.6l-1.3.7-.2-.6h-.5v.9l-1.8.6v.1h-1.1l-1-.2-1.4-.6-.8 6.6zm47 23.1l.1-.2 2.2.2 2.3.7v.3l1.3.2v.1l.2.2h.2v.3h.3v.3l.4.2h.1v.3h.2l.3.6h.2l.7 1.4h.2l2 3.7v1.1h-1l-.2-.4-.3.2v-.2l-.3.1-5-1.5-.9-1.2-1.2-.2-1.2-2-.5-1.2h.2zm25.3 16l.5-.1.2.5.3.1v.4l.4.4.6.9.9.5.6.2v.2h.1l1.6 1.1h.2l3 1.3h1l.8.7 1.8 1.1.7.2v.2l.7.4v.2l-.4.4h.6l.1.5h.1v-.2h.4l-.2.3h-.7l.1-.2h-.4v-.2l-.3-.4h-.7v-.1h-3.1v-.4l-.9-.1v-.3h-.3l-.7-.2v-.3h-.9l-2.9-1.4-1.6-2-1.3-1.3zm0 0"/><path d="M369.7 232.4l.2 2.1v.4l1.1.6 1 .2 1.6-.3 1.6-.5 1.3-.6 1.5-1 1-1 .8-.6.6-.7 1.4-1.6 1.6-.4 2.4-.8 1.2-.2.5.5.4 1.7.5.1v-1.8l.2-1 1-.5 1.1-.3 1.2-.2 1.3.7.8 1.4.6 1.1.1-.3-.4-.8-.1-1.2-.5-2.5.7-.9 1.1-1.4v-.5l.2-.4.3-1.2.8-.2h2.4l.8-.4h1.4l1-.4.8.1 1.8-.6h2l1.7.7.7.3 1.7-.3.9-.3 1.5-1.4 1.8-.5 1 .2.7.1 1.1.2 1.1-.2 1.1-.6 3.7-2.9 2.7-2.1 1.8-2 1.4-1.4 1.1-.5 2.3-.4.7.3v.6l.2.9.2 1.2-.2 2.4.1.1.3.2.3-.6.2-1 .1-.6-.1-1.5-.4-.5-.3-1 .2-1.3.7-.4 1-.2 1.9.5 4.2-.7h2.6l2-.2.6-.1 2.7.5 1.1.2 2-.3.5-.2 1.8-1.5 1-.7h1.2l.7.2.9.9.1-.1-.1-.6-.3-.4v-.7l1.1-.8h.1l1.6-.3 1.2.4.7.7h.8l1-.2 1.6-1 .9-1.3 1.1-3.3 1.5-5 .3-.2.7-1.1 1-.7h.6l.6-.5h1.7l2.3.3h3.2l1-.1 1.8.7 1.6 1.6 1.8.2 1.3 2.8.3 2.1.4 2.5.9 1.2 1.3 1.8 1.2.9 1.7 1.3.8 1.1 1.4 1.3.9.6.7 2 1.9-1.1 1.1-.5-.2-1.4-.8-1.6V204l.5-1.1v-.9l.4-.8.8-.6 1.1-.4 1.2-1 1-.8 1.1-.6v-.6l-.1-.4-.8.2-.3.2-.3.4-1 .9-1.5.2-1 .5-1.5 1h-.8l-.7-.2h-1.2l-.2.2-.4.3-.4.2h-1l-1-.7-.5-.7-.5-.7-.6-.8v-.8l-.2-1.5-1-2.5-.9-2.6.3-.9.6-1 1.3-.8v-.3l-.4-1.9-.6.3-.7.4-.8.2-.5 1.6-1.4 1h-.8l-.9-.5-2-1.1.8-.8-1.1.6-.4-.4-1.2-.5-1.3.1h-2.1l-1 .2-1.1.1h-.9v-.8h-.3l-.2.6-2.8-.4-2 .1-1 1-2 1-3 3.5h-.3l-.7-.5.4.6.1.4.3 1.3.4 1.6.2 1-1.1 1.6-1 .5-1.8.6-1.5.3-2.6.4-.2-.6-.2.4-.4.2h-.3l-.6-.3-1.2-.4-1.2-.5-1-.4-1.4-.1-2.9.1-1.2-.5-1.2-.4-2.2-.5h-1l-1.1-.4-1-.4-.9-.2h-.4l-.5.5-.5.2-.4.4-1 .4-2.6.5-.4-.2-.2-.3-.2-.7.4-.5-.2-.1h-.2l-.2.5-.3.5.1 1.1-.2.4-.9.7-4.3 1.7-1.4.4h-2l-1.8.1-.7.4-1.8 1.2-2 1.5-1.3 1.5-2.5 2.3-.6.3-.3-.4-.4-.8h-.6v.7l.6.5.1.6-1.1 1.4-1.2.9-1.3.7-3.4.4-2.3.6-2.4.2-2.9 1-4.1 2.8-2 1.6-1.3 4-2.9 1.5-2.5.7-1.3-.1-2.4-.3-2-1-1-.1-1.4-.5-1.4.7 1.1 1.2 1.2 2.3-2.8 2.3-.5-.2h-.8l-1-.2h-.8l.4.9 1 .3.4.5-.6 1-.6.3-1.3.7H370zm-242-16.6l.1 1.5.2.4v.2l.1.5.3.6.4.5-.3 1.4.3 1 .2.5.2.7.6.9 1.2.4.3.7 1 .9 1 .6.7.1.9.3h.8l.8-.5 1.3-1 2-2.1.9-1.4.8-1.3.2-1.2v-1.2l-.2-.6.2-.7v-1.3l.3-1-.2-1-.5-1.2-.5-.6-1-.6-1.1-.4-.3-.5-.7-.2h-.7l-.3.4-.3.2v-.1l-.4-1.3-.4-.4-.7-.2-.9.2-.4.2h-.4l-.3-.2-.7-.2h-1l-.5.4-.5.2-.7.8-.8 1.3.2 1.3-.1.5-.8 1.2zm2 4.3h.1l1 .4.5.3v.2l-.4.3-.4.2v.3l-.4.4h-.2l-.3-1.2zm28.1-11.7l.8 2-.5 2.6 1 2 .4.2.5.3h.1v.5h.5l.2.2h.5l.3.2h.7l.2-.1h.1l.8-.4v-.3l.3-.2.2-.4.1-.2v-.8h.6l.6-.4h.8l.1.1.3-.4.3-.2v-.3l.5-.4v-.5l-.4-.3v-1l-.3-.1v-.2h-.2l-.3-.4-.4-.5-.2-.4-.2-.3-.2-.2-.2-.3-.1-.2-.3-.7v-.3l-.3-.6v-.4l-.2-.2-.1-.4-.8-1-.2-.5h-.4l-.4-.3v-.3l-.2-.3h-.5l-.3.5v.2l-.6.7-.9.3-.4.3-.6.8v.7h-.3zm35 49.3l.1.3 1.2 1.5v.1l-.1.4v.1h.3l.4.6.5.6.6.4.2.2h.4l.5.3.5.9.1.5.5.4v.7l1 .9h1.2l.9-.4 1-1 .3-.5h.1v-.6l.7-.3v-.3l.2-.3.3-.6v-.9l.1-.1.1-1v-1l-.2-.3v-.3l-.7-.8-2.6-2-.6-.4h-.8l-.4-.1-.9.5h-.6l-.8.8H195l-.2.1v.4l-1.7.8zM84.9 220.4v1l.2.6.2.8.7.5v.4l.5.3h.2l.3.1 1 1h.7l.3-.3v.2h.2l.3.4.5-.1v.4h.5v-.5l.5-.2h.3v-.5h-.1v-.1l.4-.1v-.3l.4-.5h-.1l-.4.1h-.2l.7-.6h.1l-.1-.2.1-.2h.2l.2-.1.1-.5v-.4h.2l.2-.4-.1-.3-.5-.4.2-.5.6-.4v-.9l.8-.3h1v-.2l.4-.3v-.1l-.3-.3v-.5l.4-.4v-.7h-.3l-.2.1-.4.4-.3.1-.4.4-.5.3-.1.4h-.1l-.4-.2-.6.1-.4-.2h-.2l-1-.7-.3-.1v-.2l.3-.3.4-.3.1-.3-.1-.2-.3-.4h-.2l-.5-.3-.3-.3-.3-.2h-.2l-.4-.2h-.2l-.3.3v.1l-.3.4h-.7l-.2.4v.1l-.5.7-.6.7h-.5l-.2.5.2.4h.2l.2.3.1.3-.2.3v.4l.2.3h.2l.4.4.3.2v.3H85v.1zm2.3 0v-.2h.6v.2l.2.2v.2l-.4.1-.3-.2zm5.1 44.3v.2h.4v.3l.2.3v.5h.1v.3h.2l.2.2h.2l.2.1h.9l.1.2h.5l.2-.5.3-.3.1-.2h.1v-.8h.7l.2.5h.3l.1-.2h.1l.2.2v.1h-.5l-.1.3-.2.1-.1.3h-.2l-.3.1v.2l-.4.4v.1h-.2v.2h.1v.3l-.1.3h.4l-.1.1v.1l-.2.3h.2l-.1.4v.2h-.4v.2l.4.1v.3l.2.3h.1l.2.2v.3l-.3.1v.3h.2v.2l.4.2h.4v.3l.4.2.6.3h.8l.1-.1v-.1l.1-.3h.6v-.2h.2v-.1l.2-.2.4-.4.2-.6.1-.1.3-.3v-.7l.1-.2v-.4l.2-.3v-.7h.2v-.3h.1v-.7h.1v-.9l-.4-.4v-.7l-.1-.3h-.6l-.6-.2h-.1l-.2.2-.2.3v.1h-.2l-.3.3h-.2v-1l-.1-.3H98v-.6h-.4l-.1.2h-.3l-.2.4-.1.3-.3.2v.1l-.2.3-.2-.3v-.3l-.2-.1v-.3l-.1-.1v-.3l-.3.1v-.3l-.2-.3h-.1l-.1-.1H94v.2h-.5l-.1.1-.2.3v.2l-.2.3v.1l-.3.2-.3.1-.1.6zm0 0"/><path d="M351.8 212.9l.4 1.1.8 1.5.3.5.2.5.2.5.6.8.7.5h.4l.5.5.7.2h2.2l.4-.3.5-.7 1-.8.7-.6 1.1-.6h1.2l.8.7 1.2 1 1.5 1.3 1 .6 1.5.7 1.4.7 1.9.3.8.2 1 .7 1 1.2 1.3-.7 1.6.3-1-1.4-1.1-1.4-1.3-.8-1.1-.4-.8-.2-.6.2-.4.3-.4.4h-.7l-1.3-.5-1.4-1-2.4-2.1-1-.7-.8-.4h-1.5l-.9.2-.8.1-.4.2-.5.5-.8 1-1 .4H357l-1-.5-1.1-1.2-.6-1.4-.8-2.3v.1l-1.3.4-.4.2zM165 193.2v.9l.3.3v.1l.2.5.2.6.3.4.4.4.1.3v.5l-.3.5v.3l.4.3.4.4.5.3h1.5l.2-.3-.2-.1h.1l.2-.3v.4l.3-.3h.2l.5-.7h.5l.2-.2h.3l.3-.2.3-.4v-.2l.6-.4h.2l.5-.4h.2l.2.2.6-.6v-1.3l-.2-.4-.3-.8-.1-.1h-.4l-3.6-1.5-.5-.1-2.8-.6-1.3.5zm107.7-36.3h.1v.2l.4.6.6.3h.2v.3-.1l.4.1-.2.1.3.2.2.4v.3h-.3v.4l.1.1h.5l.3.4.1.1.3.3v.4l-.3.2v.2h.4l.3.1h.5l.2.3v.2h-.2l-.4.4h-.2l-.2.1v.3h.6l.2.4h.4v-.2l.5.3.2.1v.4h.3l.3-.3v.5l.4-.3-.3-.2v-.4l.3-.2.1-.4.2-.3.2-.4v-.6l-.1-.3v-.5h.1l.6.6h1.7l.3-.3v-.4l.4-.5v-.4l-.5-.5-.2-.2h-.5l-.3-.1v-.2l-.1-.4-.1-.5-.2-.3v-.2l-.3-.2v-1l-.4-.3-.9-.8h-.4l-.3-.2v.5h-.8l-.2-.4h-.3l-.4-.5h-.3l-.4-.1-.1.1v.2l.2.2-.1.2-.3.2h-.2l-.1.1h-.2l-.3-.1-.2.3h-.1l-.3.3-.3.2-.3.1h-.3l-.3.5zm2.7-1.9h.1v-.2h.3l.2-.1v.3h.4l.2-.2h.4l-.5.4h-.5l-.2-.2-.1.1-.3.1zm2.1.2l.2-.2.3.3.3.1v-.4h.2v.2l-.1.1.2.2-.2.2v.6h-.4v-.8h-.2v-.1zm-64.3 111.1v.2l.2.6.2.2v.4l.2.3.4.6.2.2h.2l.3.2.2.3v.3l.4.4.2.1.3.2.2.1h.8l.2-.2h.6l.4-.3h.1l.4-.2.6-.1.7-.6.1-.5.2-.1v-.4l.3-.2v-.1l.1-.2.2-.6v-.9l-.2-.3v-.3l-.2-.4v-.7l.1-.3.3-.3-.1-.4-.2-.4-.7-.5h-.2l-.4.2h-1.1l-.2.1h-.3l-.1.3h-.9l-.5.2-.7.3h-.4v.3h.3-1l-.8.8-.4.8v.2zm-86-80.5l.6.6v.4l.3.2.2.3h.2l.3.1.2.3.2.1.6.2h1.8l.5-.8.4-.4.5-.8.6-.5.2-.2v-.3l.2-.3v-.2l-.1-.1.1-.2v-.2l.3-.2v-1.5l-.2-.2-.1-.4-.3-.4-.7-.6-.5-.4-.6-.3h-.9l-.4.7h-.3l-.6.1-.6.2-1.1.8v.1l-.2.6-.2 1 .2.4v.2l-.2.5v.3l-.1.1-.1.2zm368.2 64.8l.4.4.7-.7.5-.5.7-.6.6-.7 1-.4.7.5v.8l.5.4.2-.9.5-.9.5-.8.8-.4h1.5l.4.1 1-.3.3-1 1.3-1.1 1.3-.5.8-1.6.9-1.1v-2l-2.5.6-1.1.8-1.1 1.6-1.2 1.5-.7.7-.4.3-2.3.6-1.2.6-1 .9-.7 1.1-1.1.5h-.3l.1.5-.2.4-.4.6zm-420.7-9.9l.3 1.1.4.5.4-.3.6.6-.2.2-.4-.2v.3l.6.5.8.1h.7l.4.1.2.4h.3l.3.6h2.6l.6-1.1v-.8l.1-.4-.7-.6-.2-.7v-.2l-.3-.4v-.4l-.2-.5.1-.5-.3-.6-.3-.3-.7-.5H79l-.3.4-.3-.2-.7.1-.4.3h-.2l-1.1.4-.3.3h-.4l-.6.9zm374.6-29.5v.3l.3.5.4.6.3.3v.3h-.2v.3h.3v.3l.1.1h.1v.1h.1v.2h.1v.1h.1v.1h1.4l.1-.3h.7l.2.3h.8v.1h.4v-.3h.1v-.1h.3l.1-.1.1-.1v-.2h.2v-.1h.1l.2-.4v-.1h.1V212h-.3v-.2h-1.6v-.7h.2v-.1h.3l.1-.2h.6l.5-.2h.1v-.1h.1v-.1h.2v-.1h.1V209l-.3-.2-.1-.5-.3-.3-.3-.3-.4-.3-.6-.2h-.7l-.3.1-.3.4h-.1l-.2.3h-.4v.4l-.5.3-.2.1-.3.3h-.2l-.3.1h-.1v.3l-.1.1v.6l-.3.1v.2h-.3l-.1.1-.1.2h-.1v.2h-.2zm2 104.1v.1l.3.2.1-.3.9-.3 1-.5.3-1 .1-.8.2-1.3-.2-1.2v-2.1l.8-.6.6-.3h.6l.6.4.8.2h1.4l1.3-1.4 1-2 .3-1.5 5.7-3.2.9-.8 1-.5.7-.2.8-.4.8-.5.5-1v-.8l-.1-1.3-.2-1.8-.9-2.4.1-1 .6-1 .7-.8 2-1.5.8-.5.6-.9.6-1.5 1-2.4.7-.7.9-.9 1-.7.9-.6.5-.7.6-2.5.1-1 .4-2 1.6-.6 1.2-.2h1.5l1.7.2 2.1-.2h1l1.7-.8.9-1.1.8-1.5.8-.9.8-.7v-.1l-.2-.2-.5.5-.6.3-1-.6-.9-.8-.5.2.5.8.4 1-.4 1.6-.4.8-1 .5-1 .1-.9.4h-6.1l-.6.5-1.6.5-.2 1-.2 1.4.1 1.6-1 2.2-.8.8-1 .7-1.3 1-1.3 3.3-.7 1.6-.7.7-1.3.6-2.2 2.3-.5.8.1 1.4.3.6.7 2 .2 3-.2.7-.4.3-.7.5-.9.5-2.1 1.2-5.8 3.3-.3.3-.8 2.5-.4.7-.5.6-.5.6-.7.4h-.6l-.8-.3-.9-.2h-.8l-.8.4-.7.7v4.2l-.2 1-.3.6-.4.6-.8.4zM103 217.7l.5.5v.3l.2.1.1 1 .8.7h.2l.5.5h.5l.1-.2h2.1l.5-.1.9-1 .4-.3v-.4l.8-.4v-.4l.4-.3-.4-1.4-.2-.2-.1.3h-.5l-.5-.6-.4-.2-.2.3-.4-.3-.1-.2v-.7l-.4-.3h-.2l-.6.6.2.5-.5.6-.4-.1h-1.2l-.7-.2h-1l-.2.4v1.2zM390.4 243l.6.8h.3l.7-.6.4-.1.7-.1.9-1 1-1 .1-.4.7-.6.6-.2.6-.4h.3l.3-.3h2.2l.6-.1-.4-.5v-.5l-.4-.4v-.7l-.6-.6h-1.1l-.2-.3h-2.2l-.8.2-.6.7-.3.7-1 1.3v1.1l-.8.5-.4.1-.6.5v.6l-.6.6zm89.3-14.6v.6l.3.6.2.5.3.6.6.5.6.6.6.4h.1l.4.3h.9l.2-.3.4-.5.4-.6.3-.8.2-.7v-.6h.2v-1.9l-.4-.6v-.4l-.3-.4-.3-.4-.4-.3h-.3l-.3-.2h-.2v.2h-.5v-.3h-.3v.3l.2.2-.4.4-.3.1-.2.2-.6.9h-.2l-.3.4-.5.4-.2.4-.1.2-.2.1zm-64.3 2.6l.1.5.7 1.1.2.5.2 1.1-.3.5v1.1l.7.8h1.2l.4-.6h.4l.4-.5v-1.2l.2-.1v-1l-.2-.1V231l-.2-.3-.2-.7-.6-.5-1-.2-.5.7h-.4zm-94.9-67v.3h.2v.3h.1v1.4h.2v.3l.2.2v.1l.1.1.2.2v.1h.2v.3l.1.2h.2l.2.2v.1h.1v.2h.2v.2h.2v.4h.5v-.4h.2v-.2h.2v-.2l.2-.1v-.3h.2v-.4l.1-.1.1-.2.2-.1v-.5h.2v-.1l.1-.3v-.1h.1v-.5l-.2-.1-.1-.3v-.4h-.2v-.3h-.1v-.2h-.2l-.2-.1v-.1l-.2-.2v-.2h-.2v-.2l-.2-.1-.1-.2v-.1h-.1v-.3l-.2-.3h-.8v.2h-.4l-.1.2v.2h-.3l-.1.1v.3l.2.1h-.2v.2h-.2v.3h.1-.2v.3h-.2v.1zM93.3 226.5l.4.5h.2l.2.2.5-.4.5.4v.4l.6.2.3-.1h.4l.9-.7.3-.5.2-1v-1.2l-.1-.2v-.4l-.9-.8H96l-.6-.1-.6.5h-.4l-.4.2-.4.5-.3 1.6zm205.6 1.1l.7 1 1.8 1.2h1.4l.6-1.2.1-.6.2-.3.6.1.2-.6-.8-.4-.7.4-.4-1.2-.4-.3-.2-.2h-.7l-.8-.7h-.7l-.4.4v.4l-.2.4-.2.3zm1-1.9l.5-.3v.2h-.1l-.3.4zm120.8 1.3l.3.6.2.9.3 1 .3.2v.4l.2.1.3.6v.6h.6v.2l-.3.3.3.3.7.3.2-.2v-.4l.8-.7v-.4l.4-.4.3-.9.4-.2-.3-.3v-.4l-.2-.6-.8-.7-.7-.3h-.5l-.3.3h-.3l-.8.4-.2-.3-.6-.4zm0 0"/><path d="M485.9 257.2l.2 1.2.6-.2v-.2l-.3-1.1v-.7l.3-1.4.7-.4.6.6.7.8h.7l-.2-.3-.4-1 .2-.7.6-.5.7-.3h3.8l.9-.8.8-1.2-.4-.4-1.4 1.2-1.2.7-.6-.1-1-.3h-1.6l-1.2.4-.8.3-.8.5-.6.7-.2 1.4zm-182.4-50.5l.2.3h.3l.1-.1.5.1v.7l.1.3v.3l.3.4v.2l.5-.3.3.5-.1.7.7-.1.6.3h.3l.2-.3.6.3.2-.2-.1-1.2.2-.2-.1-1.3-.5-.5h-1v.1l-.7-.1-.1.4h-.2l-.2-.6-.6-.4h-.2l-.2-.2v-.6l-.5-.2-.6.4zm1.5 1.3v-.3l.4-.3.3.2.1.4-.3.4zm8 18.1v1l.8.6h.9v-.1h.6l.5-.6h.7l.5-.5v-.2l.3-.7v-.3l-.5-.5h-.3l-.7-.5-1.3-.7-.5.4h-.3l-.2.2v.4l-.5 1zm-12-24.9v.5l.3.5.7 1 2.5.1.2-.2.3-.7-.3-.1v-.7l-.2-.5-1.6-1.6h-.5l-.7-.3-.4.6h-.4zm-77 58.5l.3.6v.3l.2.1.3.6v.4l.2.3.4.3 1-.1.6-.6.2-.1v-.5h.2v-1.4h-.2v-.3l-.2-.3h-1l-.2-.4-.2-.6h.1l-.1-.4-.1-.3v-.3h-.4l-.4-.1-.4.3v.6l-.3.4.2.2-.1.3zm.5-2.5l.1-.2.4.1v.2h-.4zm251.8-24.6v.3l.3.4.1.3.3.5h2v.3l.3.2.1.2v.2l.1.4.2.1v.3h.2v.1h.7v-.3h.2v-.2h.6v-.1l.3-.4v-.7h-.3l-.1-.2v-.3h-.2l-.1-.4h-.2v-.2h-.1v-.1h-.1v-.2h-.5l-.3-.3h-.2l-.1-.2h-.6l-1-.4h-1.1l-.3.2v.2zM143 239.8l.2.2v.4l.2.4.1.2h1.2v.4l.5.2v.2l.2.2.2-.2h.4l-.3-.4 1-1v-.6l.3-1v-.4l-.5-.1h-.7l-.2.2-.2-.1-.2-.2-.3-.3-.2-.4-.8.1-.3.5v.2l-.6.6zm0 0"/><path d="M486.1 258.4l.5.5 1.3 1 1.2 1.6 1.6 1.2 1.1 1 .7 1.1.5-.2v-1l-.8-.9-2.2-1.5-.7-1.6.1-1.6.1-1.6-.1-.5-.7-.1v2l-.3 1-.4.8-1-.8-.2-.6zM96.3 240.7l.8.7.2.3.1.4.9.6h.8l.6-.5v-.4l.3-.1v-1l-.3-.1v-.3l-.5-1.4-.5-.3h-1l-1 .8zm265.1-20.4v.7h.1v.5l.5.4h.8l.2.1.3-.2h-.4l.2-.5.2.4h.4v.3h-.2l-.1.2-.2.5v.3l.5.3.1.5-.5.2.2.3.4-.3.2-.2h.2l.2-.1.3-.4v-.3l.2-.1.3.4-.1.3v.3l.1.1.3.5.2-.1h.5v-.1h.7l.5-.5-.2-.1-.6.3h-.4v-.3h.3l.1-.3v-.1l-.5-.1-.2.2h-.4v-.8h-.5l-.2-.3-.4-.3v-.1l.6-.5v-.3l-.3-.2h-.1l-.5-.2h-.2l-.3-.2h-.1l-.1-.1-.3-.2h-.4l-.5.1v-.2l-.3-.4-.4.3-.2.1zm-244.6-27.2l.2.4.4.5.4.2h.5l.7-.8.2-.2v-.2l.3-.3-.1-.9h.1v-.8h.3v-.2l.2-.1v-.7l-.2-.2v-.2l-.5-.4-.3-.2h-.3.3v.5h-.3l-.2-.3-.5.7v.4l-.4.1v.6l.1.4-.3.4v.2l-.3.3v.4zm8.7 16l.5.1.2 1 .3.3h.9l-.2-.6.3-.2v-.3l.2-.2h.3l.2-.4-.1-.6.4-.3v-.7l-.2-.7h-.3l-.2.2v.2l-.3.4-.9.1v-.3l.7-.4-.3-1-.2-.3h-.8l-.2.3v.7l.5.5v.3l-.4.5-.2.9zm-36.4 50.4l.2.2.7-.1.5.3v.4l-.2.2h-.6l-.3.5h.6l.3.3.7.4v.3l.6.4h.2l.2-.4v-.3l-.2-.3h-.5v-.4l-.1-.3v-.4l.4-.2.6-.1.3-.6V258l-.3-.4-.6-.5h-.2l-.4.5v.4l-.3.2h-.3l-.2.2v.3l-.3.3zM284 159.3l.3.3.1-.1v-.3l.6.2.4-.6.1-.1h.3v.4l.2.1v-.6h.5v-.4l-.2-.2.4-.4.4-.6v-.1h.1l.4-.4.2-.2.3-.2v-.8l-.1-.3h-.2l-.4-.2-.2.1-.4.2-.3.2-.3.2-.4.3h-.2l.2-.4.2-.1.3-.3v-.1l-.3.1-.3.1-.4.5v.2l-.1.2v1.4l-.2.4-.5.7v.4l-.3.1zm1.3-1l.1-.2v-.3l.2-.1v-.7l-.2-.3h.1v-.4l.3-.2h.2v.3l-.2.2v1h.2v.4h-.4l-.2.5zm.7-.2v-.1h.2zm.7-1.4l.3-.2v.3h-.2zM106.9 270.5v.3l.4.4.3.6h.2l.3.4h.4l.5-.4.5-.5v-.3l.5-.3v-.8l-.3-.4-.3-.4h-.1l-.4-.1h-1.1l-.1.1-.3.1-.4.3v.7zm0 0"/><path d="M282 157l.2.5.3.2h.2l.3.3v.7l.3.3h.3l.3-.4v-.1h-.1l.1-.3.3.4.3-.4v-.1l-.3-.3.3-.3v-.5l.3-.1v-.3l.2-.1v-.5l-.3-.2h-.2v-1l-.4-.1h-.5l-.2.3h.2l.2.1h-.4v.6h-.2l-.2-.2h-.3l-.2.2-.5.3.4.3h.2l.2.7h.2v.2l-.1.1h-.7l-.2-.5zm108.3 73.2l.6.5h.3l.5 1 .6.2h.2l.6-.1h.5l.2-.2v-.6l-.2-.2-.2-1-.6-.5h-.4l-.4-.5-.3.2v1l-.5-.5h-.7l-.2.2zM187 271.8v.2l.3.6.7.4h.3l.2-.1.4.3.1-.2-.1-.5h.8l.3-.3v-.3l-.6-.4-.2-.8-.4-.4h-.8l-.3-.1-.8.9zM74.7 174.4h.2l.1-.2.5.8.4.5v.5l.3.8.2.2.2.2.4.2v-.4l-.3-.2-.1-.3-.2-.5v-1.5h.1-.2v-.5l-.1-.6.3-1.2 1.3-1.3.2-.1v-.5l.2-.1v-.4h-.3v.2h.1v.2h-.3l-1 .6-.1.4-1.8 3zm381.7 35.1h.1v.2h.2v.2l-.4.1v.3l.3.1h.1v.1h.2l.1.1v1.4l-.3.4v.2h.6v-.3h.1v-.2l.1-.2.1-.4v-.3l-.3-.1h-.1l-.1-.1v-.2h.3v.2l.2.2h.1v.2h.1v.1l-.3.1v.1h.5v-.3h.3l.5.2h.4v-.2h.2l.1-.1v-.1h.1v-.1h.1v.4h.3l.5-.3v-.2l-.3-.3h-.5l-.1.3h-1l-.1.2-.1.1h-.3v-.3h.3l.2-.2h.2l.2-.4v-.1h.1v-.5l-.1-.1h-.2v-.1h-.8v-.2l-.2-.2h-.2v-.2h-.6l-.1.2h-.5v.2h-.1v.1zm-173.2-42.6l.2.3.2.4h.2l.3.1h.5v-.1h.8l.6-.7v-.6l-.4-.5v-.5h-.9v-.3h-.7l-.2.2-.2.4-.3.3-.1.3zM207.6 256v.4l.3.3h.1v-.4.3l-.2.2.4.3.5.3v.2h-.3l.1.2h.3l.2-.2.4-.3.2-.3.1-.2.1-.2.2-.7v-.9l.2-.4-.2-.2h-.7v.2h.7l-.3.3h-.7v-.5l-.2.2-.4.2v.2l-.6.6zM405 236.9l.6.6.2-.1h1l.6.2.5.4.6.3h.3l.4-.3.2-.6-.8-.6h-.4l-.1-.1-.7.1-1.5-1.2h-.4l-.5.6zM89.3 273.5l.1.2.2.3.3-.2.3.4v.1l.1.1h.2l.3.3.2.3h.6v-.2h.1v-.6l-.2-.2h-.2l.1-.3.2-.2v-.3l.4-.3v-.9h-.2l-.3-.1h-.2v.1H91l-.1.3h-.4l-.1-.2h-.2l-.2.1-.3.2v.1h-.3v.2l.2.2v.1h-.1v.3h-.2zm-4-5l.3.2v.3h.2l.2.2h.1l.2-.1v-.1h.2l-.2.3v.4l.4.3v.1l.2.2.3.8h.1l.2.2h.6l.1.1h.1l.1.1h.2l.4.3h1.2l.1-.4-1.1-.8-.3-.2-.3.2-.1.2h-.4l-.2-.2-.3-.4h.6l-.2-.2v-.2l-.3-.2h-.2l-.2-.3h-.2v-.3h-.3l-.2-.4h-.1l-.2-.2-.3-.2v-.1h-.6l-.1.2zM259.7 248v.9l.8.4h.3l.2-.1h.4l.6-.4.4-1-.2-.4-.2-.4h-1l-.5.1-.7.7zm28.1-98v.8h.2v.2l.2.3h.1l.2.3.4.1h.4l.1-.4h.4l.1-.2v-.1l.3-.2.1-.2v-1l-.3-.2h-.3v-.2h-.9zm9.5 46.6l.2.8.5.3.3.3.5.3 1.2 1.3h.4v-.6l-1.2-2.2-.7-.6h-1.2zM79.9 267.8v.7h.5l.1.8.5.6v.6l.3 1.3h.9v-1.4l-.2-.1.2-.1v-.2l-.2-.2h-.1l.1-.1v-.2l-.6-1.2-1-.6zm262.6-.9l.3.5.6.6h.5l.2-.2.6-1.2-.1-.8-.3-.2-1-.2v.2h-.6l-.2.3.1.3zm67.2-64.3v.2l.2.2v.2l.1.2.2.4.3.2h.7l.1-.2.3-.1v-.2h.3v-.3h.1v-.2h.2v-.1l.1-.1v-.5l-.3-.1v-.2h-.2l-.2-.2h-.8l-.3.2h-.1l-.5.2v.1h-.2zm-128 13.6l.3.3 1 1h.3l.6-.5v-1.3l-.1-.3-.6-.4h-1l-.5.5zm2.9-63v.6h.2v.8l.2.1.3-.2h.1l.1-.1v-.1h.3v-.1h.2v-.2h.4v-.2h.1l.2-.3v-.2l.3-.1h-.2l-.1-.2-.2-.1v-.2h-.4v-.3l-.2-.1v-.1h-.3l-.3-.2h-.6l-.1.3v.2l.1.2-.1.2zm-127.2 106v.3l.4.5.2.2.2.2.1.1.2.1v.2h.6l.3-.1.2-.3.2-.6v-.8l-.2-.2-.3-.3h-.7l-.3.3h-.1l-.2.1h-.3zM309.7 209l.2.2.1-.3h.5l-.2.9.5.5.7.1.7-.5h.5l.3-.2-.3-.5h-1v-.4h-.2l-.5-.6-.6.2-.2-.2v-.5h-.4v.3l-.1.3zM94.6 257.9v.1h.6v.1l-.2.2v.1l-.1.3v.5l.7.3h.1l.3.1.2.4h.2l.3-.2h.6v-.2l.3-.4v-.2h-.4l-.2-.3h-.1v.1l-.2-.1v-.3l.5-.3v-.5l-.2-.3-.3.1-.2.2v.6h-.2l-.3.4h-.2l-.1-.2v-.5l-.1-.1-.8-.2zm1.4 1.3v-.5h.1l.5.2v.1l-.5.3zm320.7-34.4l.3 1v.2l.6.6h1.1l.2-.2-.1-.3.1-.5-.7-.4v-.7l-.5-.5-.6.3zm-126.6-68.2l.3.3v.9l.2.4.1.2v.1h.3l.3-.2.6-.7v-.7h.4v-.6l-.6-.3h-.1l-.2-.2h-.3l-.1-.2-.4.4h-.3l-.2.3zM93.2 275.9l.3.3.2-.3h.3l.2.4.7.3.5-.4h.2l.4-.2.3-.2.1-.1.1-.3v-.2l-.2-.2h-.9l-.2-.2h-1.1l-.1.2h-.3l-.5.5zm2.6-.5l.2-.1zM288.4 165h.1l.2.3h.7l.3-.5v-.2l.2-.2v-.2l.1-.4.2-.4v-.1l-.2-.4-.2-.2h-.6l-.2-.1-.4-.4h-.2v.2h.3v.2l-.3.1v.2h.2v.4l-.1.2v.9zm93 66.3l.2.1v.3l.4.4-.2.9.5.6h.3l.4-.3.8-.8v-.4l-.5-.7-.2-.2-.4.2-.5-.2h-.6zm-33-14.6l.1.2.5.2h1l.2.2h.6l.2-.1h1v-.2h.3v-.5l-.5-.3-.3-.2h-.6l-.2.2-.3-.2h-.3l-.1.5h-.4l-.2-.2h-.4v.1h-.5zm53.5 13.8l.1.3v.2l.4.2.5.5h.4l.4.2.1-.1h.5v-.2l-.3-.2-.7-.2v-.4l.2-.2.5.2.3-.2v-.5l-.3-.4-.8-.2-.4.1zm.8.1h.3l-.1.2h-.1zM87.2 249.4l.1.4.5.7h.4l.3-.2.7-.9v-.8l-.4-.5h-.4l-.4.2-.7.7zm-6.9 26.4l.2.5.3.3v.2l-.2.2v.8l.4.6.4.4h.4l.2-.1v-.5h.3l-.3-.5v-.1l-.1-.1-.1-.2-.6-.6.2-.5v-.1l-.3-.3-.3-.4v-.2l-.1-.2-.2-.3v.3l.2.3v.1zm98.7-4.6l.5.4v.1l-.2.4.3.3h.8l.3-.3v-.1l.3-.4v-.3l-.4-.1-.3-.3v-.6l-.7-.5-.3.3v.3-.2l-.3.1v.5zm.5 1v-.2l.3.1-.2.1zm180.1-21.7l.5.5h.3l.4.3.9-1v-.9l-.1-.2h-.9l-1 .6zm-174.7 18.3l.4.7.7.2.2.1h.2l.2-.4.4-.2-.2-1-.6-.4h-.7l-.6.8zm176.1-46l.3.4v.1l.5.7h.8l.4-.2v-.6l.1-.2v-.5l-.1-.1-.4-.2-1 .2h-.6v.2zM85.7 256.1l.5.3.2.6.6.5h.3v-.2l-.1-.3.5-.8v-.5l-.2-.2h-.4l-.1-.3-.4.3-.6-.1-.2.4zm20.8 20.8l.1.1.1.3.4.4-.1.4.8-.5h-.2l-.2.1-.2-.2h.2l.4-.4h.2v.1l-.2.2h.1l.2-.2v-.2l.2-.3v-.4l-.3-.3v-.2h-.2l-.4-.5-.1.1-.3-.1v.5l.2.2-.7.5v.2zm.5-.5v-.1h.4v.3h-.4zm.9-.4h.1v.2-.2zM287 213.3l.4.1v-.5l.4-.3h1.5v-.8l-.3-.2-.4.2-.1-.3.3-.3-.2-.4h-.4l-.6.5v.3l-.3.4v.5l-.1.2.1.3zM87.1 264l.3.1h.2l.8.9 1 .9.3-.2v-.1l.3-.2-.6.3-.4-.3.4-.2h-.2l-.3-.2v-.2l-.2-.3v-.2h-.1l-.1-.5.4-.3.1-.3v-.9l-.5-.3-.1.1v.3h.2l.1.1v.3h-.3l-.6.6-.2.3v.2l-.4-.2zm1.4.7h.1zm266.2-6.4h.7v.4l.6.2 1 .4v-.5l.2-.2v-.3l.1-.4h-.3l-.1-.6h-.9l-.4.4zM203 266.1l.3.2v1.4l.3.3h.2l.2-.4v-.4h.3v-.4l.3-.2v-.2l.2-.3-.2-.3-.2-.2-.3-.1h-.6l-.3.3zm.7 1.7l.1-.3h.1l-.2.5zm85.9-52.8l.4 1 .4.2h.4l.7-.7v-.4l-.4-.5h-.5l-.2-.2h-.4v.2zM177 262h.4l-.1.3.3.2h.4v-.5h.3v-.4l-.1-.1v-.3l.3-.4v-.4l-.2-.1-.3-.1h-.2l-.1.1.1.3-.2.2h-.3l-.1.2-.3.3.1.1v.2zm143-41.4l.3.3.5.1.4-.2h.2l.4-.3-.2-.4v-.5l-.2-.2-.4-.1-.5.2h-.3l-.2.2zM288 154v.1l.5.3.7-.6.3-.5v-.6l-.2-.3h-.4l-.9.5v.6zm24.4 64.7l.6-.3h.4l.8.4.3-.2.3-.2v-.4l-.2-.1h-.4l-.5-.5h-.7l-.5.6zm-129.7 55.5v.2l.3.6v1h.3l.3-.4.4-.6v-.8l-.5-.2-.5-.2-.3.3zm84.7-128.4l.7.8.3.2h.6l.3-.4-.2-.4-.7-.6h-.2l-.3-.1zm42.8 76.4l.5.6h.3l.2-.5.4-.1v-.3l-.3-.3.3-.8h-.2l-.4.5h-.5l-.3.3zm177.7 31.6l.1.6h.4l.2-.1.1-.7.7-.4.5-.3h-.9l-.6-.1-.4.4zM400 233.6l.2.6.4.3h.1l.4-.1.2-.2v-.7l-.6-.6-.5.3-.2.2zM84.3 262.4h.2l.5-.1.6.7.2-.2v-.8l.2-.3-.4-.3h-.4l-.5.3-.4.3zM311 223.7l.1.3.3.3.5.1.4-.2.3-.2v-.3l-.3-.4-.7-.2zm-66 21.8v.2h1v-.2l.2-.4h.1l-.3-.6h-1v.7zm-50.3 34.1v.2h.3v.2h.5l.4-.1v-.3l.1-.2v-.2l-.1-.1-.1-.1-.1-.1-.1-.2-.1-.2h-.1l-.4.2v.3l-.2.2v.2h-.1zm.3.2h.5-.3zm-107.5-33l.1.4.4.5h.4l.3-.4v-.6l-.3-.3-.3-.2zM359.3 220l.1.2.2.2.2.1h.5l.1-.3.1-.1v-.4l-.6-.4h-.4l-.2.4zm-65.6-69.6l.3.1.2-.3v-.3l.4-.4.1-.5v-.5l-.5-.2v.5l-.2.4v.3l-.4.4zM179.3 258l.2.8.3.2h.3l.4-.2v-.8h-.6l-.3-.2h-.2zm217.9-27.6l.8.6h.2l.2-.4.3-.1-.2-.3-.2-.2h-.9zM-39.7 0h249l-.7-3-1.1-3.1.5-2.3 5-10.6 8-21.7.9-7.4-.3-1-1.3-.3.8-2.1 1-1.1 1.5.4.9-.8 5.3-1.2 2.4-2 1.2-.4 6 1.3V-279H-39.8zm9.7-15.1l-.3 1.5-.5.1.1.6-.3-.1-.8-1v-2l.8-.2.2-.6zM131.4-135l-1.3 1-1-.4-1-1.8-2.1-1.2.5-.7 2-1.6 2.4.4 1.1-.3 1.2.8.4.9-.2.7-1.2.5zm29.7 99.6L161-34l-.8.2-.5-.4V-36l1.2-.4 1.9.5H161zm-19.3-112.4l-1.1-.1-.1-.6 1.3-4.1.7-.5 1.8.7 1.3 1.2.8 1.4-3.6-.5zm4.1-10.8l.1-.4h2l4.5-3.8 2.2-1.4.8.2-.5 1.2-1.5.1-1.9 1.7-.9 1.5-1.1.5zm13.4-10.4l-.5-.5.6-1h.4l.2.9zm79.9 241.8l4.3.3 4.7 2 2.9 2.3.9-.8.8-1.5.1-1.8 2.1-.8 1.2-1.2.7-.9.1-1.1-1.8-2.3h-2.4l-4.8-1.8-1-2.2-2.1-1.5.7-4.3-.3-3.3-2-6-3-4.4-1.1-1.1zM47.8 279l-2 .3-.5.7v1.2l-.5.1-.3-.5-1.6.4-2.4 4.4.2 2.9.6.8h.9v1.1l2 3.3-.4.3-1-.3-1-2H40l-.8-.7-1.6.4-.8.7-1.7 2.5v1.8l.3 1 .9.6.7-.1 1 1 .5 1.6 1.5.7-.3 2.4.6.8 1.3 1 2 .6 2.3.1.9-.1.6-.8h2.2l1.6 1.1 2-1 2.5-1.9 1.6-2.8 1.7-.7.5.4v1.5l1.3 1.4h2.6l6.3-5 2.8-3.3 4.6-2.8-1.3 2.7.3 1.9-1.6-.4-1.6 1.4-.3.8.2 1.7 2.9 1.2.2.5-.3.7-1.4.4-.6 1.7.9 3.5-.6.2-.9-1-1.4-.5-2 1.5-.7.1-1.1-.7-1.1.4-.7 1.2v.5l-1 .1-.6 1.1.3.9-.2.8-2 .2-.7 1.3v.7H61l-.4.6.8 3.4 1.7 1 1.5-.4 2-1.3 1.9-.2.9 2.2-.5 1.7.4 1.5 2.4 2.5 2.4.8 1.9-1.2.4-2 1.2.1.2-1.7 1.8-1.6-.3-.8.3-1 2.4.4 1.2 1 2.4 3.8 1.6 1.4 2.5 1.1 1.7 1.5 3 3.6.8 2 6.4-.7 3.2-12.3v-2.1l-2.6-1.5-2.1-1.8.3-4-.9-3.8-2-1.2-1.6-.2-.7-.8-.4-2.8.3-1.6-2.2-4 1.1-.7.1-1.4-1.8-5.4-1.3.2-.7-1.3-.8.4.3-2-.8-.4-.3-.8v-2l-3-2.2-2.7-.5-1.8-1.6H49.4l-.3.5zm25 46.6l-1.4-.5-1.3-1.8-.6-2 1.7-.4 2.3.8.8 1 .5 2.7zm11.2-6.9l-.2.3-2.8-.9-.7-.6v-.8l1-.7 1.4.2zm12.1 2l-.3.3-1-1-2.8-4.9v-.9l.4-.9h.6l2 1.5 1.2 3.7zm-2.1 8.9l-2.6-3-4.6-2.9-1-1-2.4-6.4-2.6-1.2v-2l-2.5-1.1.3-2.3h4.1l.8-1.3.8-.2 4.8 2.4 1.4 1.4v4.7l2.8 4.6 1 2.3.7 6.4-.3.2zm-17.4-20.1l-.8-.5.2-.3.3.2zm21.7-.8l-.1-.3h.8l.1 1.3zm-19.7-12.1l-1.5-1.1-.1-.7.9-1.3 1.3-.2 1 1.4zm-24-11.6h-.5l-.2-.8L55 282l.8.6v.6zm0-.1"/><path d="M-39.7 279h5.6l3-1.4 2.8-3.8.1-2.6.8-2.4 2-1.3 1.4.1 2-.5 4.3-5.8 1.1-.8 3.1-3.1 3-2.3 2.8-1.3 1.1-1 3.3-2.7 2.6-1 3.6.2 1.2 2.7-2 .8-1.6.8-.7 2.4.3 2-1 1.3.5 1.6-.3 1-1-.3-.8.6-.5 1 .2 1.8-.7 1.3-2.7 2.2-.1 1.7 1.6 2.2 1.5.6 1.7-.5.7.7 1.6.5 1.2-1.4 1-.3 3-2-.8 5.4H6l1.4-1.8 3.6.2 2.2-3.2.3-3.4-.5-1-1.6.5-1-.7-.4-1 1.8-.7 1.8.2.6-.5.7 1h3.5l.9 1.3 1.7-.1 1.1-.7 1.4.3-.6 1.6 1.4 2h1.4l1 .6.9-1 1.3.8 1-1.2 2.1.5.9 1 1.7.6 2.4-.4 1-.7-.3.8.3.4-.7.8.3.7-.9.8v1l.6.7.5 1.6 1.2.8 1.8-1.4.5-2.8-.8-1.2.8-1.2 3.1.3.4 1 .6.1 1.3-.5.3-.8 1.3.7 1.5-.8.3 1.8 1.5 1h.7l.4 1.8 1.1.7-.1 1.2-.8.6-1.4-.4-1.3.5-.8 1.2h32l-2.1-1.6-2.5-5.5-.8-2.7v-1.5l1.3-2.4-.8-4 .5-1.3-.9-1.7.5-4.6-.3-.9.2-.7h.5l-.1-3 .6-.2v-1l-3.8-1.1-2.4 2.7-1.5-.8-1.4.4-2.7-3-1.7-1-1 .4-.7.7-.8-.2-1-1.4-1.5-.1-.8-1.2-1.5-.5-.2-8.7-.8-3.8-1.4-1.8-2.2-1.9-3.5-7.6-1.3-2-2.2-1.4-1.8-.7-7-.8-6.3 1.6-2.9 1.7-.7-.4-3-8-2-13.6-2.6-7.9-4.5-7.5-1.7-1-1.3-1.3-4-7.9-.8-1.1-1.5-1-1.8-3.6-.6-2.1v-3.3l1.6-4.1 2.5-3.3 4.3-4.2 2.8-1.1L39 159.6l11.4 4.5 1 .9 1.4 2.4 1.3.8 5.3 1.3H64l4.1-.7 4.3 1.2 7.9-.3 6.3 1.3h2.2v.7l-1.6-.4-.2.4-1.6-.2.3-.2-1.3-.2v.7l.8.7v1.2l.4.1.9-.8 1.5-.3 2.7 1.9-.3.4 2.2 2 .6-.8 1.1.3-1-2.7-.4-.3.1-.9-.4-1.5-3.4.5 5.7-1.8 15.1-3.2 10.2-4.1 5.5-1.3 22.4 3-2.1.2 1.4.3h-1.2l1 1-2.2-1.2-.4.3.3 1.2-.2 1.2 1.5 2.6-1.7 2.2v1.2l.5-1 .9-.9 2.1-.2 1-2.7-.2-.6 1-1 3.2-.9 3.4.4.6.5 1.6-.2 1-.9 2.7-.6 4.2-1.8 3-.4 4.4-1.9 5.5-3.1 6.6-2.5 9.5-5 2.5-2.2 1.6-.8.6.1 1.9-1.4 6.9-7.3 1-.3.4.5.6-.6V136l2-2.6 1.4-2.6 1.6-.4 2 1.2 1.9.4 1.6-.7 1.4-1.1 1.9-4 1-.6.9-2.6.7-3-.7-5 .3-3.1 2.2-5.1 1.4-4.7-.3-2.4.7-1.7 1.1-9.7-.3-4.3.8-7.8-.1-3.2.5-2 1-.5.6.1 1.9 2 2.8.2V42.5l-5.3-5.3-2.8-.6H228l-3 .7-1.2.5-.9 1.2h-.4l-1.7-5.6-6.3-12.4-2.6-7.4L209.2 0h-249zm98.5-18.2l-.3.8 1.2 1 3.9-.4 1 .4-.9 1.4-1.5.9-.2 2 .5 2.6-.3.5-.6-.3-1.2-2-1.8-.7.1-1.6-1.3-1-2.4.4-1 2 .6 1.8-.9.1-.7-.4-1.7-1.9.2-.9 1.5-1v-1.1h2l2.1-.9.1-2 1.4-.2zm12.4 3l-.5.2-.7-.3.5-.4.7.2zm-46.8-2.3H24l1.4-1.1h1.7l.9.7-1.7.9-.3 1.2-1 .9zM48 279h-.5zm0 0"/></g></g></svg>