<svg xmlns="http://www.w3.org/2000/svg" xmlns:xlink="http://www.w3.org/1999/xlink" viewBox="0 0 497 279" xmlns:v="https://vecta.io/nano"><style><![CDATA[.B{fill:#add19e}.C{fill:#c8d7ab}]]></style><defs><clipPath id="A"><path d="M0 0h32v32H0z"/></clipPath><g id="B" clip-path="url(#A)"><use xlink:href="#B"/></g><pattern id="C" width="32" height="32" patternTransform="translate(-63 -14.5)" patternUnits="userSpaceOnUse"><use xlink:href="#B"/></pattern></defs><path fill="#f2efe9" d="M0 0h497v279H0z"/><g fill-rule="evenodd"><g class="B"><path d="M356.3 134.7l2.6-.2-1.3.5-.2 3.9 1 2-1.2 1.6.8 1.8h2.8l-.4 1.9 4.5.7-3.1-.5-2.4.8v.6l1 1.3.1.9.4 3.1-.9-2.7-2-.2-.6 11.1h33.9v-46.6l-4.1 4.1-5.5 1.4-5.2 2.5-6.2 2-5 2.9-4.2 3.4-1.6 2-.1-.6-3.1 2.2zm1-.7l.7-.7-.6.8zm.3 5.3h.2zm2.1-7.3l.3-.2zm2.1 1.1l.8.1.4 1-1-.9zm.2 17v.1zm.4-14.3v-.2zm.1 5.4l3.4-2 3.1-.6-.4-1.9 2-.7-.6-1.7-2.3-.8-1-.4-2.2-.5 1-2.1 1.9 1.3.4.6 1.6.5 3-.9.2-2.3.4-.7.6 1-.2 2 1.8-1.2.6-1.4-1.4 2.7 2 .2 1.6-2.5-.6 1.8.6 1.4 2.4.1 1-1.9.2-3.2.2 4.5.4-2.7 1.1 2.2v1.3l-1.3.6-2.3.9-1.1-.8-.4 1.8-.2.8-.7-2.6-2.3-1-1 1-3-1 .4 1.5 2.5 2.5 1.8 1 .3 1.5.7 2.9v1.9l-1.3-3.5-1-1.2-1.4-2.3-1.9-.6-1.6 1.6 1.2 1.7-.8 2.1-.3 2 2.9 1.5-3.1.9-1.5-3.6-3.3 1.8-1.4-.2 4-1.5 1.1-2 .7-.8-1.5-.8-4.3 1.1zm0-8h.3zm.8 18.8h.2-.1zm.4-18.8l.6.7zm.6 19.4l.6-.2 3.1-1.4 1.7 1.6 1.7 1 2.2-.2.1 2.4 2.3 2.2h3.2l.6-1.5-.2-1.5-.2-1.5 2.4 1.2 1 .3-2.8 2.2-2.6 3.6-1.6-2.4-3-2.2-3-.2-2.4-.3h2.7l-.6-2.5-4.6-.8zm7.1-28.2h.6zm.4-.2h1-1.1zm7-2.6h.2zm0 9h.2zm.6-9.3l1-.8zm.8 17.7h.6l2.1-2 1.1-.2.9.5-.4 3.5-.3 2.4-.2 1.4.5 1.5-.8 1.9-.1-3-1.1-2.5 1.2-1.7-2.5-1.5zm.7-18.6h.8zm1.7.1h.2zm1.6 4.9l.6-1.8-.6 2zm0 7l1.1-.3.8-2 .3 1 .6 2.7-2.7-1.4zm.5-10.6v-.1zm.3 14l1.6-1.4 1.7-2v.1l2.4.6v1.2l-2.3.3-.7.1-.3 2.3-.5.6-.8-2zm.8-11.5l1.6-2.8 1-3.2-.8 4.7-.3 3.4-.3-3.4-1.2 1.5zm.6 15.3l.3-.6zm3.3-23.1v.5h.3-.1v.2h-.2v.2-.6h-.1zm.6.4h.2v.1zm.2.1h.1zm.1-.3h.1v-.4h.2v.2h.1v.5-.3zm.2-.7v-.1l.2-.2h.3l-.3.3zM342 161.1l15.4-10.3-.6 4-.7-1.6.9-3.1-.3-1 1.5-1.9v-2h-2.6l-2.4-2v-2.7l2-.5 2.1-.4-1.3-3.6v-.4l-3 2h-5.6l-5.4-1.4zm.9-13.7l2.4-2.4.7.8 1.7 3-2.5-2.3.8 3.5 2 2-.2 2-1.8-1.6-1-3-1.5 4.9.2-2.6.2-1.6.7-2.5-1.6-.2zm10-6.5h.1zm.5-3.1h.4l-.3.1zm66.2-18.9l4 1.1.4.3.3.1 1.4-2-.5 3.1 1.6-2.3-1.3-1-9.3-3.2-3.8-1-1.6 2 5.7 2.8 2.3.5zm-.3-.3l.3-.1h-.3zm3.7.4l.3-.1zm.5-.4v.2zm0 1.3h.2zm.3.1v.2zm0-.1v.1zm.5-.6h.2zm.4.3v.1zm.8-.6h.3-.2zm-9.7-6.6l5.6 5 3.5-.4.3-.7 1.4-2-.4-2-.6-1.7V109l-.9-4-1.7 2-3.8 3.2zm1.2.8h.3l-.3.2zm.4-2.2v.1zm3 1.5l.3-.2zm.7-1.5h.4-.3zm.2 1v.2zm.2 5.3l.5-.1zm0-.5h.5zm0-3.5v.2zm.1-1.9v.1zm0-1l.2.2zm.5 4.6h.3-.2zm.2.3h.2zm.2 1.5v.2zm.1-1.1h.1zm0-2.4h.2zm.2-1.6l.2-.2-.3.2zm.1 5.4l.3-.6 1.4-.3-1.5 1.5-.1-.6zm.1-2.3h.2zm2.6-.6l-1.9-1 1.3.7zm-2.4.4h.4-.3zm.3-5.3h.1zm.4 2.7h.1zm.1 4h.2zm.1-.4h.3-.4zm.5-.4h.6-.5zm.4.4h.1zm.1-3.1h.2zm.1-4v.2zm0 6.8h.8zm.4-1.1v.2zm.2-1.1l.2.3v-.4zm.3 1.4l.2-.1v.2h.1-.3zm.2.9v-.3h.3-.3v-.1h-.1.5v.3h-.3v.1h-.1v.1h.3v-.3.3h-.4zm-.1-.5h.4l-.3.1h-.1zm.1-1.4h.1zm0-.3h.2-.3zm.1 1.3h.2v-.2h.1-.3v.5h.3l-.3-.2v-.2h-.1zm0-.8h.2zm-213.1 93.7l2.4 2 2.3 1.3.3 2.7 4.7.6 4.6.2.4-1.4-1.3-1-4.1-2-2-2.5 4-3.6-2-2-3.9 3.5v4.7l-4.9-2.7-.4.2zm5.5 3.8v-.2.3zm.2.8v.2zm.3-6.5l.3-.6-.3.5zm.4 1.5v.2zm.1 6.3l.4-.2-.2.2zm.2-9.8l.6-.7-.4.7zm.4 8.8l1.6-1.2zm.4-9.7l.5-.3h.7zm.4-.4h.2-.1zm.4 3l1.4-.5-1.5.3zm.8-3.1l.3-.2-.2.4zm0 9.6h.2zm3.3.6l.5-.3v.4h-.2v-.2h-.3zm.3-.7h.3v.2h-.3zm1.6.2v-.2.3zm197.1-82.3l3.2 4.2-.9 1.5 3.2 4 1-1.5-.8-.5 1.8 2.3 7.4 3 1.4-2.7-5.7-1.2-4.2-3.1-2.6-3.6-2.3-4.6-1.2 1.9zm2.1 1.9l.4-.4zm5.6 8.8v.1zm.6 2.2l1.7-1.5.6-.5zm1.8 0l.2-.2zm2.8-1.1v.2zm3.1.5h.2v.2h-.3zm-3.7-37.9h1.6l-.6 2.6 1.6-1.5.9 1 1.1-.9 2.4-.5-1.3-3.5-5 .7-.9.4zm2.1-2.6l.5-.2zm.5.6l1.7.8.9-.4.3.4.1-.1.4.4-.2-1 .6 1h-1.1l-2.6-1zm.7-.1v.2zm.7 1.8v.2zm.4-.2l1.6.6.5.6-.5 1.2-1-1.9-.6-.4zm1-2.4l.2.2h-.2zm1 2h.2zm17.2 22.7l5.5 2.5 3.1-1.1-2.2-1.8-3.8-.5-2.6.6zm4.4.3l.2.2-.1-.1zm.9.6h.1zm.6.6v.2zm1.1.4"/><path d="M423.3 130.9l3.3.8-2-3.2 1.1-1.7 2-3.3-1.1-1.5-1.6 4.4-1 2.4-.7 2zm2.8 1.8l.2-.2zM429 122h.3zM24.8 233.1l4.7 2.6-.3-2.5-3.2-2.4-.7 1.4-.5.7zM440.6 113l1.8.3 1.6-2.2-.1-1.6-1.2-1.9-1 .5h.5l-.2 2.3-1.1 1.1-.3 1.4zm.7 0l.2.3zm-.1-.4h.2zm.3.4h.3-.2zm1.2-4.6l.2-.1-.1.3zm.3.9l.1-.4zm.5.5h.3-.2v.2h-.1zm.7 1.7v.2zm-90.7 29.9l1.8 3.3 2.2-.4-.7-1.5-.5-1.6zm-133.7 60.2l5.2-.2-3 4 4-1.4-2.5-4-2.5.5zm2.4-.4h.8-.7zm1.3-.2l.5-.1-.5.2zm.2-.7h.2zm204.8-94.1l2.7-.6 1 1.7 1.3-1-1.2-1.3-1.3-2.3-1.5 1.5-.5 2zm3.2.2l.2-.1-.2.2zm.3 4.2l1 2.4 1.7 1.3.9.1 1-1-2.8-1.4.9-.6.6-1-1.3-.1-1.9.3zm.8.8l.2.3-.2-.2zm0 2.7h.2zm.1-2.1h.1zm.1-1.6h.2zm.1 3.9h.2zm.1-3.7h.3zm.1 2.7h1-.9zm.1-.9h.2zm.2-1.8l.5.1h-.5zm.4 4.1h.1zm.4-4.1l.2.3h-.2zm.3 1.9h.2zm.2.5h.2zm0 0h.1zm.1-1.1h.3zm.7 1.1v.1zm.3.3h.2zm.2-.1h.1zm0 1.3h.3zm.1-1.7h.2v-.1h.1v.3h-.3zm.1 1.2h.2zm0-.9h.2v-.1.2zm.2-.3v-.1h.2v.3h-.3zm-21.4 0l7 5.2h.8l-7.2-5.3-.5.1zm8.1 95.9l5 1.5-3.3-1.5zm6.6-85.7l5.7-1.5 2.5-2.8-2.5 1-1.9 1.3-2.3.8-1.5 1zm40.2 3.1l1 2.2 2.9-.7h.3l-1.2-1.9-1.5-.2-1.4.6zm.8.6l.1-.1zm1.4.4v-.1.2zm.7-.4h.6zm0-.5h.2zm.2 1.6h.3zm.4-.5h.2v.2h-.4v-.3zm-44.6-10l.8 1.8 1.1.3.2 1h.3l1-.4.1-1.9-2-1.1-1.5.2zm1.6 1.4v.1zm1.7 1.3l.1-.3v.3zm.7-1.7h.2zm-.2-15l2.6 2.2 1.2-1.5-3.6-.7zm3.5-.7h.2zm4.1 14.5l3.8-2.2-.2-.4.3-1.5-1 .1-2.2 3.9h-.7zm2-1.5h.2zm.4-.1v-.2zm-.1 1h.1zm0-.5h.2zm.3-.4l.4-.9.6-1.5-1 2.5zm.6-3.4l.2-.2zm.3 3l.2-.2-.3.3zm-.1-2.9h.2zm.5 1.4l.1-.3h.2v.2zm.2-.5v-.4h.2v.5zm22.8-73l3.3-.6-3-.8-.3.8zm.7-1.2h.2zm-7.4 83.4l.9-.2 2.1-1 .4-1.2-3.1.2.4 1.2-.7-.2zm11.7 6.1l2.1.6 1.8 1.9v-1.1l-1.2-2.1-1.3.4h-1.3zm2.8.3h.2zm-51.3-26.5l2.8.4.4-1.2-2.8-.5zm36.8 25.8l3.6 1.1-.8-1.1-1.4-.5-1.4-.4zm.4.2l.4.3zm1.8 0l.1.3-.2-.3zm2.2.9h.4-.3zm-40-24.1l3.6 2.2-.4-1.8-2-1.3-.7 1-.2-.2zm2.8 1h.2zm.6.2v-.1zm9.2 9.7l1.2.4.6.4 1.8-1.3-2.4-.5zm1 0l.1-.2zm-13.3-9.4l3.1.7-.8-.5-1.8-.1zm1.5.4h.1zm1.2.6h.1zm.2.4h.2zm43.6 16.3l1.8 1.5 1.1.2-.9-1.7zm1 .9l.2-.2zm1.6.4l.2.2-.2-.1zm12.2 28l3.5-3.3-3.2 3-.3.2zm-50.2-47.1l.6 2.5 1.8-1.6-2-1.4-.3.5zm-8.3 14l1 .2 1.3-.7-1.4-1.4-.6 1.2-.2.7zm.5-.5h.2zm.6-1.6h.2zm.8 1.7h.2zm.3.4h-.1zm2.4-12.9l1.5.9.3 1 1.1-1.2zm.3 0v-.1zm2.3 1.9"/><path d="M469.3 128.9l3.6.4-2.4-2.1-1.1 1.3zm-33.7-11.6l2 .6-.9-.9-1 .3zm.7.2l.4.3zm1.5-.5h.2zm.2-7.4l1.6-.3.2-2.3-1.8 2.5zm.9-.7h.1l-.2.1zm.3-1.5v.2zm0 .1l.4.2-.3-.2zm.9.2h.3v.1h-.4zm-14.5.6l.1.8 2 .9.2-1.3zm.4.7h.4zm1 .5h.2zm6 10.5l1.4-1 1-.4-1.2-1.4.4.8-1.6 1.9zm.7-.9h.2v.5l-.3-.4zm.5.2h.2zm.1-.5h.2zm1.2-.3h.2zm-12.1-19.9l3.5 1.2v.3h1.7l-2.3-1zm4.1 1.8h.2zm-2.5 21.2l1.9-1-1.5.7zm1.3.1h.1zm-4.5-21.6l2.1 4.4-.5-2.4zm7.4 8.7l1.8 1 1.4.6-1.4-1.8zm1.3.2v-.1zm.7.5h.1zm-1.3 6l2 1h.8l-.7-1.2-2 .2zm2.3.4"/></g><path fill="#eef0d5" d="M450.8 196l.2-.2v.2zm0 0"/><g class="B"><path d="M428 101.8l2.5 2zm-5.5-3.4l3.5.3.4-.3-2.7-.8zm2.5-.4h.2zm47.6 25.2l1.2-.6-.4-.2zM421.8 99l3 .1-2.5-.1zm3.4 2.2l2.3 1.4.6-1.4H425zm-1.6-4.2h1.6l2.8 1.7v-.3l-1.5-1.6-2.9.1zm10.4 19.6l1.7-.7-.9-.6-1 1.3zm1.2-1.1v.2zm-13.6-16.8l1-1.5 2.1-2-1.4.3-1.7 3.1zm5.3 17.6l1.1 2.1-.4-1.4zm-5.3-16.9l1.9 1zm17.5 15.4l1.3-1.8-1.3 1.7zm1.3-.8l.1-.1v.1zm.1 0v-.1h.2zm-1.4-1.6l1.4-1.2-.9 1zm1.3-1h.1-.2zm-13.9 12.7l2-.9-2.1 1zm2.5-17.7l1 .2.8-.9-1.7.7zm2-.6"/><path d="M427 97.2l1.8 2.1v.7l.4-1.1v.6zm2 2.8v.2zm1.7 15l2-1-1.4.7zm1.8-1h.1zm4.4.3l.4-1zm.6 0h.3-.2zm.5-.8l.1-.1-.3.1zM428 102h.4zm-3.4 2.5l.9-.5h-.9zm67.6 44.5l.5-.4zm0 0"/></g><path d="M421.6 99l.1-1.4 3.5-2.5 3.6 3.1-1.6-2.2-3.7-.8-1.5 1.4-.4 2.3zm1.4-3.5h.1zm4.4.7l.5.5h-.3v-.3l-.1-.1zm.1.1" class="C"/><g class="B"><path d="M431.1 137.9l1 1.5-1-1.6zm6.4-27l.9 1-.9-1.1zm.2.1h.2zm-12.5-13.8l2.8 2.2-1.9-2.2zm.5.2h.3zm0 6.4l1.3.6.1-1-1.2.3zm2.3 6.2l.8-.8-.3-1.6v2l-.5.2zm.5-.2v-.2zm.1-1.2l.4.1zm8.8 1.7l1.8.1-1.6-.8zm-13.2-7.9h.8zm44.7 21.8l1.9.6-1-1-.8.5zm-33.5-14.1h2l-1-.4-1.1.3zm1.4.3h.2zm51.9 40l.5-.6zM426.9 119l.8.5-.3-.8h-.5zm9.4.5l2-1.7-1.9 1.6zm1.2-1.3l.1.1m-15.4-19.1l1-.7zm1.5 16.2l1.5-.2zm3.9-11.2l1.4.5-1-.4zm8.6 7.8h1.2zm-10.2 5.2l.9-.7-.8.7zm.4-.4l.2-.3-.1.2zm1-12.9l.6-.2zm1.1-.5l.1.2v-.2zm35.6 21l1.6-.2-1.7-.2zm-40.3-26.6l1.5-.3-1.5.2zM431 114l.2-1.2zm.3-.8h.1zm.4.3h.2zm-5.5 10.7l.6.2zm3.4-14.4l1.2.8-1.1-.8zm8.8 9.2h.4zm-12-6.3l.5.2zm-3.8-16.4l1.7-.9-1.6 1zm7.7 16.7v-.2zm16.7 80.8l.7-.2zm-14.7-78.6l.7-.7zm.2-.3l.2-.2zM428 101l1 .5-1-.6zm48.3 26.9l.2-.1zM423.2 101h.1zm.6 1.4l.5 1.6-.1-1.6zm3.9 16.2l.2 1.4zm.3.6h.3zm0 .6h.3zm-70.4 28.4h.3zm78.5-32l.7-.3zm2.5-2v-.2zm0-.4h.2zm.3-.1h.1zm-10.5 1.7l1.8-.5zm1.6-.3h.2zm.3.1h.1zm5.5 85.1l.5-.5-.4.4zm4.5-93.7h.7zm25.9 18.1l.8-.5zm14.1 6.8l1.3-.4zm-56-15.7l.4-.2zm1.8-4.7l.2-.1h-.3zm.3.5h.2zm1.3 10.1l.1-.2-.1.1zm.1-20.9h.7zm42 24.6l.9-.1h-.9zm-44.2-29.3l.7-.6-.7.4zm-.6 9.1l1.4 1.2-1.3-1.2zm1 5.2l.7-.8zm0 .1h.2zm-5.5-15.1l.2-.1zm1.4 3.1l1-1.1-.9 1zm.1-.7l.2-.2zm4 28.2v-.2zm0-22.3l.6-1zm6.4 11.6h1zm.4.1h.2zm-6.2 6.6l.1-.7zM422 95l1.4-.7zm-1.5.4l.2-.1zm43.4 28.2l.3-.2-.3.1zm-37-7.6l.5-.5zm.6-.3v.2zm.3.1v.1zm0 0"/><path d="M422.4 98l.6-.4-.4.1zm.6 1.7h.7zm0-3.3v-.1zm3.6 17.6l.2.2h-.2zm-108.3 33.2l.7-.2zm172.2 2.6l.5-1.2zm-61.5-39l.5-.7zm-2-14.1l1.7 1.7-1.6-1.8zm65.8 49.3h.4zm-68.7-52v-.1zm0 0"/></g><path d="M443.3 106.6l.5-3-.5 3.1zm0 0" class="C"/><path d="M425.2 115.2v-.2zm68.6 32.1l.2-.3zM451 194.6h.2zm35.2-71.7l.8-.5-.7.6zm-14.8 1.4h.1zm-22 67.1v-.1zm-20.2-90.1l.1-.3zm-3.9 14.3l.1-.1zm2.7 0v.2zM356.5 137v-.3zm72.3-25.6l.2-.3zm40.2 13.8h.2zm-42-29.1l.3-.1zm63.5 50.8v-.1zm-161.9-7.7l.1-.2zM440 118.4h.2zM378.2 133l.1-.2zm29.7-36.4v-.1zM379.8 133v-.2zm49.6-9.6v-.3zm64.3 22.9l.4-.5zm-44.4 49.2h.1zm43.4-46.9h.1zm-109-5.6v-.2zm32.8-24.1h1zm8.5-15.2h.6zm-1 12.3h.2zm68.5 32.2h.1zm-84.2-51.7h.2zm0 0" class="B"/><path d="M429.3 99.4l.2.4zm0 0" class="C"/><path d="M454.5 188.2l.2.1zm0 0" class="B"/><path d="M434.7 120.5h.1zm0 0" class="C"/><path d="M424.5 100v-.2zm0 0" class="B"/><path d="M476.8 129.3h.2zm0 0" class="C"/><path d="M452.5 198l.2-.2zm27.3-66v-.2zM381 155.2h.2zm98.4-23.2v-.2zM438 115v-.2zm-68.2 25v-.1zm69.6-28.4v-.1zm-80 37.7v-.1zm67.3-32.3v-.2zm65.7 31.5v-.2zm-83.8-52v-.1zm0 0" class="B"/><path d="M432.2 122.7h.1zm0 0" class="C"/><path d="M480 131.8h.2zm-102.4 27.8v-.1zm-2.1-20.3v-.3zm103.2-7.3v-.2zm0 0" class="B"/><g fill="#aad3df"><path d="M247.8-20.4v.5l.5.6.4.5.6.5.9.9.6.8.4.8.3.6v.8l-.1.4v1.8l.2.4.4.5 1 1 .1.8.3.7.1.5v2.4l-.4.8-.1.4-.3.5-.2.2-.3.5-.1.3-.1.5v1.1l.3.4 1.2 1.4 1 1.4 1.1 1.7 1.4 1.5 2 2.2 1.4 1.4 1.6 1 .5.4.2.3.5.9.6.7 1 .6.5.2h2.4l.3.2.5.1.4.2.8-.2.3-.2.5-.4.2-.3.4-.3.6-.6.3-.3.3-.6.5-1.1.3-.2.4-.8.5-.3.7-.5.6-.4.7-.2h1l.4.4h.2l.6-.4-.4-.2-.5-.4-.9-.2h-1.3l-.7.5-1.2.9-.4.5-.4 1-.6.9-.7 1.1-1.1 1.1-.7.1h-3.9l-.4-.4-1-.9-.7-.9-.8-.7-3.7-3.4-1-1-.6-.6-.6-.8-1-1.5-.6-.9-.7-.8-.9-.8-.2-.4-.2-.6v-.8l.4-1 .4-1.2.3-1.4.3-.6V-8l-.2-.6v.2L254-9l-.2-1v-2l-.3-1-.2-1-.4-.6-.4-.7-.7-1-.6-.7-.5-1-.6-.5-.8-.5-.6-.4-.3-.4v-.5l.2-.5.5-.6.5-.6.5-.3.3-.1h.4l.5.2.7.4.9 1 .6.8.8.4 2.1 1 1.7.6 2.1 1h1.2l.6-.1.7-.6.4-.8v-1l-.1-.5-.7-1-.3-.2-1.1-1-.4-.6-.5-.7v-.6l.3-2 .1-1.2.4-1 .2-.8.8-.9.5-.3.4.3.3.5.1 1.1.3.9.4.8.7.7.8.7.7.3h1.2l3.7-1.6 2.9-.9 1.4-.1.4-.2 2.2-.2 1.8-.2h.3l1.1.3h.6l.4-.3.3-.1 1-1 1-1.4.7-1.4.6-.7.2-.2.6-.4.5-.4.5-.5.5-.6.2-.5v-.3l-.1-.3-.2-.3.2-.7.3-.7.3-.5.4-.8.6-.8.3-.4h.1l.3-.1-.1-.5v-2.6l.1-.2.2-.2h.3l.2-.2h1.2l.7.3 1.3.1h.8l.6-.1.7-.2 1-.3 1-.4.5-.4.7-.2.7-.1.5.1.3.3.5.7.5 1.2.6 1.4.4.6.9.6 1.1.6.3.2.7.2h.6l.4-.2.8-.2.5-.2.7-.1h1l.8.3.8.5.8.4.8.3.6.2h1.1l.5-.3h.3l.7-.3h.5l.3-.2.3-.2.8-.6.5-.6.5-.7.2-.5v-.2l.3-.6V-44l-.6-.5-.7-1.5-1-1-1-1.4-.8-1-.7-.4-.6-.4-1-.2-1.1-.2-.6.2-.9.4-.8.6-.4.4-.7.2h-.5l-.8-.1-.3-.2-.8-1.2-.3-.2-.3-.2-2.5-1.9-1.3-1.2-.5-.5-.4-.7-1.5-1.6-.5-.6-.4-.2-.8-.3-.6-.2-.6-.4-.5-.5-.5-.7-.3-.5-.1-.8v-.4l-.3-.5-.2-.2-.3-.3-.8-.2h-2.4l-.6.4-.3.1-.7.6-.5.3-.6.5-.7.4-.8.4-.6.8-.3.7-.3 1v1.8l-.3.4-.2.4-.5.3-.3.3-.5.2h-.2v.7h.2l.4-.3.4-.1.6-.5.4-.2.2-.6.1-.5.2-1 .3-1.1.4-1 .4-.7.4-.3.7-.5.6-.1.6-.5.7-.5 1-.6.8-.1 1.2-.3.7.4.4.4.3.6v.8l.4.7.8 1 .7.6 1.1.3.3.2.8.7.2.5-.1.2v.5l.3.6.5.5.5.2.5.2.9.6 1.5 1.3 1 .7.6.6.3.7.7.6.7.5.6.3.7.1h1l.8-.3 1-.5.7-.5 1.1-.3h.6l.9.2.6.3.6.6 1.4 1.7 1 1.4 1.1 1.4.2.8v.9l-.2.7-.4.6-1.3 1.1-.8.5-1 .3h-2.1l-.8-.5-1.3-.7-1.1-.3-.8-.1-1.8.4-1 .3h-1l-.6-.4-.8-.6-.5-.6-.5-.6-.2-.8-.5-1-.2-.7-.4-.3-.3-.3-.4-.3-1-.1h-.5l-1.3.6-2.4.7-1.3.3h-.9l-.8-.4-1.1-.3h-.7l-.7.2-.5.4-.3.4v2.3l-.2.8-.3.7-1 1.4-.2.8-.5 1.2-.3.5-1 1-.4.8-1 1.5-1 1.8-1.6 2-.3.2-.4.3h-.9l-.7-.1h-1.6l-2.1.1-1.7.3-2.2.6h-.7l-.6.3-.9.4-.8.3h-.3l-1 .5-1.1.5h-.7l-.7-.5-.7-.8-.5-1.4v-1.3l-.4-.7-.5-.6h-1.6l-.9.7-.4.7-.5 1.2-.4 1.3-.3 2v1.1l.3.5v.4l.1.4.4.8.5.5.3.2.5.4.3.3.5.6.3.4.1.4v.9l-.6.4-.5.3h-1l-.9-.4-.7-.4-.8-.6-.6-.2-.3-.1-1.8-.7-.5-.2-.3-.2-.6-.4-.8-1-1-1.1-.5-.2-.5-.2-.6.1-1 .8-.9.7-.5.6v.4zm6.4 94.9v1.2l.5 1.8.7.8.5 1 .5 1.3.1 1.6-.2 1.6-.4 1.6v1.7l-1.2 2.2-.5 1.5.9.2.3-.9.6-1.6.2-.5.3-1.2.5-1 .5-.8.2-1.3-.1-1.7-.3-1.7-.6-1.5-1.1-1.5-.4-.8-.2-2 .5-.2 1.4.3 1.4.4h1.4l3.4-.6 1.8-.7.7-.7 1-1.3.4-1.9.5-1.8.5-.5 1.1-.8.1-.7.3-.8.5-.7.6-.6.3-1.2v-1l-.5-1.5.3-2.6 1-2 .6-1.7 2-4 1.1-1.7.5-1 .1-2.2-.3-1.5.1-1.2.4-1 .5-.6.9.1h.9l1.5-.1.8.1 1.7.9 2.6.7 1.7-.2 2.2.4h1l1.3-.2 2.6.5h2.3l1.1-.6.7-.3.6-.9.6-.4.5-.7.3-.7-.1-.8-.7.3V40l-1.2 1-1.4 1-1.1.3h-1.7L292 42l-2.2-.6-1.4-.6-2.4-.7-1.3-.3-1 .1-1.3.2h-1.6l-.6-.2-.8.1-.8.4-1-.1-.8-.2-.9.5-.6.6-.4 1.6v1.4l.5 1.5-.2 1.5-.8 1.2-.9 1.3-1.4 2.6-1 2.6-1.1 2.3-.3 1.5-.1 1.4v.3l-1.6.7-.5.4-.3.5-.6 1-.6 1-.3.6v.8l.1.8.4.7.5 1.4-.3.9-.7 2-.5 1-.7.6-.7.4-1.9.5-1.8.3-1.2.1-1.4-.1-1.5-.6-.8-.4-.6.6zM426 211.2v.9l1.1-.2 2.2-.5 3.2-1.7 1-1v-.1h.2l.2-.3.5-1 .8-1.5 1-1.5 1-1 1-.7 1-.6 8.1-1.9h1.7l1 .1 2 .7 1.9.9 1.5.8 2.2 1.4 1 .2 1 .2h1.4l1.8-.2 2-.6 2.2-.6 2.5-1.1 2-1.2 1.5-1 .7-.5 2-1.5-.9-1.1-1.4 1.4-.4.2-.2.3-1.6 1.3-.9.2-2.7 1.3-1.9 1-1.5.4-1 .3h-3.4l-1.1-.2-.9-.5-.8-.6-1.3-.8-2.2-.9-1.5-.6-1-.4-1.8-.3h-.1l-.3-.2h-1l-.6.3-1.3.3-2.6.6-3.6 1-1.2.1-1.1.7-.8.5-.8.8-.9 1.3-.3.3-1 2-.5 1-.3.4-.8.7-.9.6-.7.4-3.6 1.7zm65.5-45.7v.5h.2v.7l.3.6v.4l1.3 3 .1-.2-.2-.4-.1-.4.3.4.1.2.3.3h-.1v.6l.3.3v.1l.1.1.1.1v.2h.2l.1.1v.2h.3l-.4.1.2.3h.1l.7.7.2.3.2.3.2.3 1.4 1.2h1.5l-.1-.2-.4-.5-1.4-1.7-.1-.1-.6-.4-.2-.6-.5-.4v-.1l-.6-.6v-.1l-.2-.8v-1.4h.2v-.4l1-1.5v-1.5l-.3-.1-.4-.5-.4-1v-.2l-.3-.4-.2-.5v-.5l.2-.4v-.2h.2l.1-.4h.1l.3-.1v-.1h.2l.5-.3.6-.1.3-.2h.1v-.1.2h.4v-.3h1.2l.1-.3h.9l.2.1h.4-.3v.2h-.2 1l.9.1-.4.2-.2-.2h-1.5v.3h.7l2 .2 1.4.4.9.2.5.4 2 .8h1.9v.2h1.9l.5-.4h.8l.9-.2v.9-.2l.3-.2v-.5h.1l1-.5h.4l.7-.5.6-.2v-1.9l-.7.2v.1l-.1-.2-.3.1-.2.3h.2l.1-.1h.2v.2h-.1l-.2.1-.8.1v.1l-.9.4-.6.2h-.6l-.1.2h-1.3l-2.1-.6h-.2v.4h-.8l-.6-.1v-.2l-.4-.1v-.2h-.3l-.2-.2-.3-.1h-.3l-1.2-.3-2.3-.6-.6-.1-.7-.5-2.6-.2-.1.2v-.2.2h-.3l-.3.1-.4.4-2 1-.6.2-.2.3-.4.3h-.2v.3h-.3v.4h-.3l-.4.6v.1l-.4.8-.3.5v.1l-.2.7v.5l-.1.7zm1.5 0l.2-2.3.6-1.2.2 1v-.2l.1.6.9 1.6.4.3.2.3v.5l-.2.6-.8 1.3v1h-.6l-1-1.7zm1.5-1.6l.1-.5.1.1v.2l.2.4h-.2zm10.8-4.3h.2v.1h.8v.1l.1.1v.3h.2l.2.1h-.2l-.6-.3-.5-.1zm-84.5-61.4v1l.2.5v.9l.2.1v.3h.1l.1.4.3.2.1.2v.2h.2v.3l.2.1.1.2.1.2.2.3v.3h.2v.2h.1v.4h.1v1.4l-.2.1v.2l-.1.2v.1l-.1.2v.2l.5.2.3-.3.1-.4.1-.3.1-.4V104l-.3-.3v-.5l-.2-.2-.1-.4-.3-.5-.2-.3-.2-.4-.2-.1v-.3h-.2v-.4l-.3-.1v-.3h-.1v-.6l-.1-.1v-1.9l.3-.2v-.3l.2-.4v-.4h.2V96h.2l.1-.2v-.2h.3l.2-.3h.2v-.1l.4-.1.2-.1h.3l.1-.2h1l.2.2h.3l.1.2.5.1.2.1.2.1.2.2.2.1.3.2.2.2.2.3.2.3.2.2.2.3.2.4.2.3.2.3.1.4.1.3.1.4.2.5v.3l.2.1v.2l.1.1v.1l.1.1v.2l.2.4v.2l.1.2.1.2h.1l.1.2.2.2h.1v.2h.2v.1h.2v.1h.3v.2h.7l.1.2h.3v.1h2.1l.3-.3h.4v-.1l.4-.1.2-.2v-.1h.4l.3-.4.5-.1.1-.1h.1l.1-.2h.2l.3-.3.3-.2.3-.1.2-.2.4-.1.4-.2h.1l.3-.3h1.6l.4.2.2.3h.3l.2.2.2.2.2.2.2.2v.2l.1.1v.1l.3.3v.3l.1.3v.4l.2.3v1.4l-.3.4v.4l-.2.1v.3l-.1.2-.1.4v1.5l.2.1v.1l.2.2v.3l.1.1v.4l.2.2.2.3v.2l.1.1v.3h.2v.2h.1v.4h.2v.3l.1.1v.4l.1.1v1.1l-.3.2v.2l-.1.2v.2l-.1.2v.4l-.3.2v.3l-.4.3-.1.2-.1.2-.1.2-.5.3v.1l-.2.2-.4.3-.6.5-.1.1-.2.2-.2.2-.1.1-.2.1v.1l-.2.2-.2.2-.3.2-.2.2h-.1l-.2.2-.1.1h-.2l-.2.3-.6.4-.3.1-.6.4-.5.3-.4.2-.3.2h-.2l-.4.3-.3.1-.3.1-.3.1-.4.2-.3.1h-.4l-.1.1h-.3l-.2.2h-.2l-.2.1h-.2v.1h-.2l-.1.1h-.5v.2h-.5v.1h-.8v.2h-.3l-.2.1h-.2v.1h-.5v.1h-.2l-.3.1h-.2v.2h-.2l-.2.1v.1h-.2l-.2.1v.1l-.3.1-.1.2-.2.1v.1h-.2l-.1.3h-.1v.1l-.2.2v.5h-.2v.2l-.1.1-.1.6v.3l-.2.2v.8h.3v.4l.1.1v.1l.1.1v.2l.1.1.2.2v.2l.2.2v.2h.1v.2h.1v.2h.1v.1h.1v.2h.1l.1.3.2.3.1.2.3.4.1.3h.1v.2h.2l.1.1.1.2v.1l.2.1.1.2.3.4.3.2h.1v.3h.1v.2h.2l.1.2.2.2h.1l.1.3.1.1.2.2.2.2.1.2.3.3.1.2.2.1.1.2h.1l.2.4h.2l.6-.6h-.2l-.1-.4-.2-.1-.1-.1-.1-.2-.1-.1-.1-.1-.1-.1-.2-.1-.1-.2v-.1l-.3-.1v-.2h-.2l-.2-.2v-.1l-.2-.3-.1-.1-.1-.1-.1-.2-.2-.2-.2-.2-.1-.1-.2-.2-.1-.1v-.2h-.2v-.2h-.1l-.1-.2-.2-.3-.1-.3-.2-.1v-.2l-.2-.1-.1-.1-.1-.2-.1-.2-.1-.1-.2-.2-.2-.3v-.2l-.3-.2-.1-.3v-.1h-.3v-.3l-.2-.1v-.3l-.1-.1v-1.4l.3-.3v-.2l.2-.3.1-.2.1-.2.1-.2.2-.3h.1l.2-.2.3-.1.2-.1.2-.2h.3l.2-.2h.1l.2-.1.2-.1h.6l.4-.2.7-.2h.3l.6-.1.4-.1.4-.1.3-.1.3-.2h.3l.2-.2h.5l.1-.2h.3l.3-.2.3-.1.5-.1.5-.2.3-.2.4-.3.3-.1.2-.3.6-.1 1-.7.3-.3.5-.3.2-.2.3-.2.1-.1.2-.2.1-.2h.2v-.3h.1l.2-.2.2-.2.3-.2.2-.2.3-.3.2-.2.3-.2.3-.2.2-.2.3-.4.2-.2.2-.3.2-.4.1-.2v-.2l.3-.1v-.1l.1-.2v-.1l.1-.3.1-.4v-.6l.1-.4v-1.6l-.3-.3v-.3l-.3-.1v-.2h-.1v-.2l-.2-.4v-.1l-.4-.2v-.1l-.1-.3v-.1l-.3-.3V107l.2-.2v-.2l.1-.2.2-.4v-.4l.1-.6v-.2l.2-.4V103h-.3v-.3l-.1-.1v-.3l-.1-.1v-.3l-.1-.3h-.2v-.3l-.3-.2v-.1l-.2-.3-.2-.1-.2-.2h-.1l-.1-.3h-.2l-.1-.1h-.1l-.1-.1h-.4l-.1-.2h-.3l-.3-.1h-1.6l-.1.3h-.2l-.1.1h-.3v.2h-.2v.1h-.2l-.2.1h-.1l-.3.1v.1h-.3l-.1.1-.2.1-.2.2-.4.3-.4.3h-.1l-.3.2h-.2l-.2.2-.3.1-.3.1-.2.1h-.4l-.2.2h-.4v.1h-1.7v-.2h-.2l-.1-.2h-.2l-.3-.2h-.1v-.2h-.1v-.1h-.1v-.3l-.1-.2v-.2l-.3-.2v-.7h-.2v-.1l-.1-.2v-.1l-.1-.1v-.2l-.2-.2v-.7h-.2v-.3h-.1v-.1l-.1-.1v-.1h-.1v-.3h-.1v-.1l-.2-.2v-.1l-.1-.2v-.1l-.1-.2-.1-.2-.2-.1v-.2h-.2l-.1-.2-.2-.2-.1-.1-.2-.2-.3-.2-.1-.1h-.2V95h-.3v-.1l-.1-.2h-.3l-.4-.2h-.2l-.2-.2h-.2l-.2-.1h-.5l-.2-.1h-.9l-.2.2h-.2l-.2.3h-.2l-.2.1-.2.1h-.2v.2h-.3v.2h-.1v.1h-.2v.1h-.1l-.2.1v.1h-.1v.4l-.3.4v.2l-.1.2v.4l-.2.3v.5zm-172.2 5.2l.4 1.6.3 3 .4 2 .5 2.6-.2 2-.4 1.5 1.6 2.3 2.1 2.2 1.7 1.2.7.9.3.4.5.9.5 1.8 2 2.2 1.8 2.3.8 1.6.8.7.4.4.2.9v.9l.5.4.2.2.5.3.5.5 2.6 1.8 3 1.8.7 1 1.1.8 1.3 1.2 1.2 1 2.2 1.2 1.2 1 .6.6.4-.9-1-.7-1.4-1-1.7-1.2-.5-.9-.7-.9-1-.5-1.6-1.3-2.7-1.6-3.4-2.2-1.3-2.4-.7-1-1.8-2.7-1.8-1.9-1.1-1.4-.6-1.1-.9-1.9-.8-1.3-1.4-1.2-1.2-1-1.3-1.4-1-1.3-.1-.8.2-2.4v-1.2l-.8-2.4-.6-3.5-.3-2.9.5-1.3 1.4-2.4 1.3-2.5 1-2.4.8-2.2.1-.8.4-.9-.8-.3-.9 3-1.3 2.7-1 2.3-.9 1.5-.8.5zm0 0"/><path d="M248.6 103.4l.4 1.6.3 3 .4 2 .5 2.6-.2 2-.4 1.5 1.6 2.3 2.1 2.2 1.7 1.2.7.9.3.4.5.9.5 1.8 2 2.2 1.8 2.3.8 1.6.8.7.4.4.2.9v.9l.5.4.2.2.5.3.5.5 2.6 1.8 3 1.8.7 1 1.1.8 1.3 1.2 1.2 1 2.2 1.2 1.2 1 .6.6.4-.9-1-.7-1.4-1-1.7-1.2-.5-.9-.7-.9-1-.5-1.6-1.3-2.7-1.6-3.4-2.2-1.3-2.4-.7-1-1.8-2.7-1.8-1.9-1.1-1.4-.6-1.1-.9-1.9-.8-1.3-1.4-1.2-1.2-1-1.3-1.4-1-1.3-.1-.8.2-2.4v-1.2l-.8-2.4-.6-3.5-.3-2.9.5-1.3 1.4-2.4 1.3-2.5 1-2.4.8-2.2.1-.8.4-.9-.8-.3-.9 3-1.3 2.7-1 2.3-.9 1.5-.8.5zm14.6 31.2v-.6h.1l.1.3.1.2.5.5v.5l-.4-.3-.2-.2zm96 130l.2 2.4.2 2.6v1.3l.2 1.5.3.8.7 2.5.3.6.3 1.2.3 1.7-.2 1.6v.6l-.5 1-.6 1.6-.6.8 1 .8.4-.6 1-1.7.3-.8.3-.9v-1.8l-.1-2.4-.3-1.2-.3-.7-.2-1-.5-1.5-.2-1.2-.2-2.1-.3-4v-8.8l.5-1.9.1-1.7.2-.7.2-.5.6-1.4.4-.7 1-1.7.3-.5.3-.5.5-.7.2-.3v-.3h.2l.3.3v.2l-.2.2-.3.3.5-.3.2-.4-.1-.3-.6-.3.2-.3.1-.4-.1-.4v-.8l-1.2-.3v.4l-.4 1-.2.9-.4 1.3-.8 1.2-1.2 2-.7 1.5-.5 1.8-.1 1.6v.8l-.3 3.2v3.4zM76 246l.7.8.6 1.2.4 1 .3 2.2.3 1.8.3 1.7.4.7.4.8.6.6.7.7.6.4.7.1 1.2.4 1 .4 1.8.6 1.4 1 3.7 1 4.5 1.6 1.7 1 .4.5.5.3.8.4h.6l1.3-.2h.5l2-.4h.7l.9.2h1l.6-.1.5-.5.9-.6.6-.8.3-1 .4-1.2.1-1.1v-3.1l.1-.8.5-.6.2-.5.8-.8 1.3-1 .8-.9 1.9-2.6 1.7-1.2.7-.7 1-.3.6-.2h.7l.7.3 1.4.5 1.2.8.5-.7-1.5-.7-1-.4-1.4-.6-1.5-.1h-1l-.3.1-.5.2-.3.4-.5.7-.5 1-.5.5-1.7 1.7-1.1 1.3-2.2 2.2-.5.7-.2.6-.1 1.3v2.8l-.2 1-.1 1.2-.2.7-.5.6-.5.4-.5.2-1.1.3h-1.7l-1.7.3h-.6l-.7-.2-1.1-.5-.6-.5h-.3l-.3.2h-.3l-.6-.1-1.7-1-1.2-.3-2-.6-2.5-.8-1.1-.3h-.6l-.7-.3-1-.6-.8-.5-.8-.4-1.3-.4-1.1-.2-.9-.3-.8-.3-.8-.8-.4-.7-.5-.9-.2-.6-.6-3.1-.2-1.6-.3-1-.4-1.1-.4-.7-1-1zm21.5 17.5l.1-.1h.6l.8.4 1 .2.6.4-.4.3h-1l-.4-.1-.3-.3-.3-.3h-.5zm18.3-16.1v-.4l.5-.3.4-.3.8-.2 1 .1-.5.3-.6.3-1 .6-.2.1-.2-.1zm0 0"/><path d="M51.7 224.5l.5.5 1-.6 1-.4 1.3-.7h1.8l.6.2.5.5 1 1 1 .5 1.2.5 1 .1h1.1l.9-.3 1.4-.6 1.4-.7 1-.7 2.2-2.4.9-.4.6-.5.9-.7 1.2-.8.8-.4h1.2l.5.3 1.3 1 .9 1 .6 1.1 1 1.8.3 1.2.2.9v.9l-.3.9-.5 1-.9 1.1-.5.4-1 1.2-1.8 1.4-2.9 2-.5.6-.6.3-1.1 1.3-.4.8-.1.8.2.9.3.8.4.7 1 1 1.7 2.2.7.8.9.7.4.3.5-.6-1.3-1.1-2.2-2.5-1.2-1-.4-.8-.2-.7v-1.2l1-1.2.6-.9 1-.6 1.6-.9 1.9-1.5.7-.6.9-1 .8-.9.8-.8.5-.7.5-.7v-.5l.3-.8.2-.8-.2-1-.4-1.5-.6-1-1-1.7-.5-1-.9-.9-.9-.7-1-.4-.7-.2h-1.2l-1 .4-.7.4-.7.4-1.2 1.2-1 .8-.9.9-1.4 1.3-1.1.8-1.3.8-1.3.5h-2.3l-1-.5-.4-.4-1.3-1.1-.8-.5-.7-.4h-2l-.7.3-.9.4-.9.6zm0 0"/><path d="M7.1 224h.5l.9-.5.5-.7.3-.8.3-.7-.2-1-.4-1.1-.2-.6v-.9l.2-1 .5-.7.5-.6 1.1-1 1.2-.8 1.1-.6 1.1-.2h2.7l2.4.7 1.4.5 2 1 1 1 .5.4.5.7.2 1.3.1 1.3.2 2.1-.2 2.8v1.7l.2.4.1.1.4.7.6 2h-.3v.2l.3.5.4.5.2.3 1 1.3.8.7.2.2 1 .6h.7v.2h1.4l1.9.2h2.9l.3-.4 3.4-1 3.2-1.1 1.8-1.2 1.6-.8 1.8-1.5 1.3-.8.4-.5.2-.5.5-.8.6-.6-.5-.5-.4.5-1.3 1.4-.7.7-1.5 1.3-1 .7-3 1.9-2.8 1-1.4.3-1 .4-1.5.5-.9.1h-4.7l-.9-.2-.6-.3-.8-.6-.9-1-.6-.7-.7-1.1-.3-1.1-.4-1.5-.2-.8v-1l.2-2.5v-1.1l-.2-1.8-.2-.6v-1l-.3-1-.5-1-.8-1.1-1.8-.9-1.3-.9-1.6-.6-1.6-.3-2.2-.1h-2l-1.2.7-1.1.6-1.2 1-1.3 1-.6 1.1-.3.5-.1.7v.5l.3.8.3.9.4 1v.6l-.3.7-.4.6-.5.4-.7.2zm116 24.4l.9.8.6.8.8 1 .4 1 .2 1.1.2 1.7.2.6.5.6.6.7.7.4.6.1 1.2.2h2.6l.6.5.4.3.4.5.7 2.6.5 1.2.4 1 .8.9.6 1.1 1.4 1.2.6.8.6.8.3 1 .1.9v1l-.5 1-.5 1.5-.2.7v1.3l.5 2.2.1 1v.7l-.2.4v1l-.5.6-.1 1-.3.9-.3 1-.5 1-1.7 2.1-.6.8-.8.8-.4.8-.8 1.2-.4 1-.2.6v1l-.3.6-.1.9-.1.9-.1 1-.3.7.9.1.2-.8.2-.2.6-2 .4-.7v-.3l.3-.4v-.9l.1-.2.8-1.2.5-1 .2-.6v-.7l.5-.8.7-.9.9-1.1.7-1.5.3-.6.2-.6.4-1.2.4-.8v-1.9l.1-.4v-1.8l-.1-1-.2-1.7v-.8l.5-1.9.5-.7.1-.8v-.7l-.3-1-.2-.8-.6-1-.8-.7-1.1-1.1-.9-1-.7-1.2-.5-1.1-.5-1.6-.5-1-.4-1.2-.4-.6-.4-.4-.7-.4h-.5l-.8-.2-.6.3h-.7l-.9-.1-.8-.3-.7-.5-.5-.5-.4-.6v-.7l-.3-1.3-.2-1.4v-.4l-.5-.4-.2-.6-.4-.4-.7-1-1.2-.9zm9.2 48v-.2l.2-.6.1-.4.2-.5h.2v.3l.3.2v.2l-.3.2-.1.4-.3.6-.1.4h-.3v-.2zm.6-2.6v-.5l.4-.6h.7l.1.6v.3l-.4.4-.4 1-.3-.3v-.4zm.6-1.3v-.6l.5-.9.4-.7.4-.2v.7l-.2.7-.6.7-.3.1zm341.4-95.9l.7 1 1-.6 1.4-1.3 1.4-.5.6-.8.5-.8 1-1 .3-.6.3-.2h.2l.4-.3.5-.4 1.4-1.4 1.9-1 4.7-1.9 2-.5.8-.3 2.1-.2 2.2-.9 2-1.7.7-1.2.3-.8V180l-.6-1.3-.9-1.9-.8-1.3h-1.6l.8.9 1 1.2.5.7.4.8.2.7v.6l-.3.6v.5l-.3.5-1 .7-.9.6-3.4 1.4H492l-.5.5h-1l-2.7 1.3-1.3.4-2 1.1 1.8-.7-2.2 1.3-2.4 2-.4.5-3.6 2.9 2.2-1.5-.3.6-.9.8-1 .6v-.3l-.2.4-.7.4-1.2 1.1zm-9.9-67.8l.6.2h.4l.1.2h.3l.2.1h.2l.2.2h.6l.5.1h.4l.2.2h.6l.1.1h.6l.3.1h.5l.2.2h.6l.4.2h.7l.3.3h.4l.2.1h.2l.2.1.2.1.4.2.4.2.4.4.3.2.4.3.5.3.2.2h.2l.2.4.2.1h.1l.2.3.2.2h.2v.2l.4.3.7.8.4.4.1.1.1.1.2.1.1.2h.1l.3.1 2.4.9h1.9l1-.5h1.5l1 .5.2.1.5.5v.1l.3.2.2.7.4 1.2v.4l.1.4.1.7v.7l.4 1v.3l.5.6v.2l.2.4.3.5v.3l.3.6v.3l.4.6v.2l.3.6.3.2v.2l.9 1.4v.2l.3.4v.4l.6.5.4 1 .3.3v.3l.4.5.4 1 .2.6.6.7v.2l.3.7v.4h.2l.1.5.5.6.1.1 2.6.2-.2-.4-.5-.3-.4-.2-1-1.1-.6-.5-.5-.9v-.2l-.2-.2-.1-.5v-.1l-.5-1-.7-1-.6-1-.6-1.2-.8-.8v-.1l-.2-.6-.2-.4-.2-.3v-.2l-.3-.2-.1-.2v-.1h-.2v-.4l-.1-.4-.1-.1v-.4h-.2v-.2l-.1-.2v-.1l-.1-.2-.1-.1-.1-.2v-.2l-.1-.3-.4-.7-.3-1-.2-.8v-.4l-.1-.3v-.3l-.1-.3v-.4h-.2v-.5l-.1-.1-.2-.7-.1-.6-.5-.8-.4-.4-.8-.4h-.1l-1-.4h-1.2v.2h-.6l-1.5.2h-.8l-1-.2h-.5l-.3-.3-.3-.1-.2-.2-.2-.1-.2-.1v-.1l-.3-.1-.7-1-.6-.7-.2-.1h-.1v-.2l-.3-.1v-.1l-.4-.4-.4-.4-.2-.1-.2-.2-.2-.1-.3-.1-.3-.3-.4-.2-.4-.2-.3-.2h-.3l-.1-.1-.2-.1-.4-.2h-.3l-.2-.2h-.2l-.2-.2-.7.1-.7-.2-.5-.2h-.5l-.2-.1-.4-.1h-.2l-.5-.1-1.2-.2-.8-.2h-.7l-.5-.3h-.3l-.2-.2h-.3l-.3-.1zm-186.4 17.9l1 1.3.4.3-.4.3-.5.4v.3l-.1.2v.2h.1v.4h.4l-.2-.1.3-.8.3-.3v-.2l.3.1v-.1l.4.6 1.2 1.4.5 1.3.5 1 .8.7.9.5.4.6.6 3 .5 1.5.8 1.3.6.8.6.9 1.1 1 1.5.7 1 1.1 1 .6.4.8.7 1 .8.5.8.3 2 .6 2.3 1 1.1.8-.2.3h-.3v.3l.4.1-.3-.4.5-.1v-.3h.4l2.8 1.4 1.6.4h1l.2.1.9-.2.8-.5.4-.5.4-.3.2-.2v-.2l.2-.5.8-1.3v-3.3l-.4-3v-1.4l-.3-1.4-.8.5.2 1.7v.7l.3 2.6v1l.3 1.1v.5l-.3 1.1-.5 1-.5.7-.8.7-.5.3h-1.3l-.9-.2-1.7-.6-2.3-1.2-2.8-1.2h-.3l-1.2-.6-.9-.1-.6-.4-.6-.3-1-1.4-.5-.4-1.1-1-1-.7-1.3-.9-1.2-1.1-.7-.8-1-1.9-.5-1-.2-.8-.2-1-.1-1-.5-1.1-1-1.1-.3-.4-.4-.4-.3-.7-.4-.3v-1.3l-.4-.6-.3-.5-.8-.3-.4-.3-1.4-1.3-.6-1zm3.4 3.3l.4.2v.4zm.8 2l.4.4.8 1-.5-.3-.4-.5zm26.4 8.7l.2.5.1 1v.2l-.1-.2-.1-.9zm70.8 60.6l.7 1 .7-.5 2-1.2.6-.6 1-.8 1.2-1.5 1.2-1.4 1.6-2.3.6-.6.5-.5 1.6-1.7 1-.8.9-.4 1.6-.7 1.7-.3 1.7.1 3 .4h1.6l2.6-1.1h.8l1.7-.1 1.2-.2 1.3-.3.7-.3-.4-1.5-.9.3-2 .4-1.7.3-1.5.4-.8.3-1.4.3-1.4.1-2.6-.4-1.2-.2-1.5.1-1.6.4-1.5.6-1.4 1-1 1-2.2 2.6-1 1.6-1.4 1.2v.2l-.3.2-.4.6-.5.2-1.3 1.6-1.4 1.1zm0 0"/><path d="M-41.4 232.4l.2.4 1-.5 1-.7h.2l2.4.1h1.1l1-.4 1.6-.9.9-.6.4-.6.5-1.2.1-1 .5-.9.5-1 .4-1.4.9-1.7.2-.8.5-.8.8-1.4.7-.8 1-.8 1.3-1.6.3-.4.9-.8.5-.6.5-1 .5-1 .7-.9.6-.4.7-.4.5-.3h.8l1 .6 2.9 1.4 1.3.4 1.3.3 1 .1 1-.1 1.4-.7 1.3-.5 2.3-.7 1.6-.5h.6l.5.2.7.4 1.6.9.5.5.4.7.1 1v2.4l.2.8v.9l.2.9.4 1.2.5.8 2.4 2.4 1 .6h1.1v-.6h-.7l-.9-.6-1-.6-1.5-1.9-.6-1.3-.1-.7v-1l-.5-1.8.2-1.7-.2-1-.2-.7-.6-.5-1-.9-1.1-.4-.8-.7-.6-.1h-1.1l-1.5.5-.9.2-.5.2-.8.4-1.5.7-.8.5-1 .1h-.4l-1-.1-2.3-1-1.7-.5-1.2-.6-.8-.3-.7-.1h-.8l-.5.2-.7.5-.7.8-.6.5-.3.5-.7 1.3-.3.6-1.2 1.4-.7.6-1.2 1.5-1 .9-.9.7-.4 1-.5 1.2-1.2 3-.8 1.4-.4 2-.4 1-.4.8-.6.5-1.5.9-.7.2-1 .3h-1.5l-1-.3h-.3l-.6.3zm474-95.8l.3.2.3.3.4.3.3.2.2.2.2.2.2.1.3.1.1.1.2.1.2.1.2.1h.2l.1.3h.3l.1.1h.5l.1.1h.2l.1.2h.6l.2.1h.9l.2.1h1.2l.2.1h.2l.4.1h.3l.5.2.7.2h.5l.2-.1h.8v-.3l1-.2v-.2h.3v-.1h.3v-.2l.4-.2.2-.1.2-.2h.2l.2-.3h.2l.3-.3h.2v-.2l.3-.1h.2l.4-.4h.2v-.2l.2-.1.2-.1.3-.2.2-.1v-.2h.3l.2-.8v-.7l.2-.2v-1.1l.4-1.2.8-1.6.2-.2.4-.1v-.1l1-.5.5-.7.7-1.2v-.1l.4-.8.4-1.1v-.1l.4-.1.4-.2h1.6v.2h.1l1.1.3.7.4h.2l.5.2h.3l.3.3.7.1.3.2.2.1.2.1.4.2.4.2.5.2.5.3.2.1.3.2h.2l.2.1.4.1.3-.7-.1-.1-.3-.2-.3-.2-.4-.2-.3-.1-.2-.3h-.2l-.6-.2-.2-.1-.3-.2-.4-.1-.8-.4h-.3l-.4-.3-.4-.1-.8-.2-1.4-.8-1-.2h-.5l-1.2.2-1 .4-.5.3h-.3v.2l-.7.5-.4.2-.1.2-.4.6-.5.9-.1.3-.1.2v.1h-.2l-.2 1.5h-.1l-.2.5-.4.7-.1.1v.1l-.5 1.6-.2 1.2v.3l-.5.5v.1l-.3.5-.7.7h-.1l-.8.7-.5.3-.1.2-.3.1-.6.6-.8.4h-.1l-1 .4h-1.1l-1.1-.2h-.7l-.5-.2h-1.4l-.4-.1h-.8l-.5-.2h-.4v-.2h-.3l-.2-.1-.3-.1-.4-.3-.4-.1-.2-.2-.4-.3-.3-.2-.3-.2-.2-.2-.2-.2h-.2v-.2zm19.1-7.3l.1-.4.4-.9.5-.7.6-.9.5-.4.4-.2h.4l-.6.9v.3l-.2.6-.2.7-.2.2-.9.5-.3.2-.4.2zm0 .7l.4-.4.6-.5.7-.3-.4.5-.3.3-.5.4zm-114.4 12l.7.2.2-.4.2-.3v-.2l.3-.5.1-.6.5-1.2v-.4l.3-.3.2-.6v-.1l.5-.4.1-.2.3-.3.6-.4h.2l.5-.3h1.7l.6.2.7.2h.3l.7.3 1 .7.1.1.2.1h.1l.1.2.7.3.6.3.4.1.6.1h1.2l.7-.3.5-.3h.4l.4-.4.6-.3.4-.3.2-.3.1-.3.3-.3.4-.3.3-.3.2-.2.1-.1.4-.3.2-.2.6-.5.3-.3.3-.3.6-.6v-.1l.3-.1v-.1l.3-.3h.2l.1-.4h.3l.1-.2.6-.2.4-.2.3-.2h.4l.2-.1.2-.1.2-.1h.1l.1-.2h.2l.4-.3.3-.1h.3v-.3l.4-.3.4-.5.3-.2.1-.2h.2v-.1h.1v-.2l.7-.9.3-.2.3-.3.2-.2.4-.2.3-.2h.2v-.2l.5-.1.1-.1.3-.2.2-.2.5-.3.5-.2.3-.2.5-.2.2-.1h.3l.6-.5.6-.2h.3v-.2h.2v-.1l.6-.2h.4v-.1h.3l.3-.1h1.4v-.2h.3l.3-.1h.4v-.1l.5-.2.3-.1.3-.2.7-.5.7-.5.7-.4.4-.3.3-.2-.4-.7-1 .6v.1l-.9.6v.2l-1.8 1-1.2.3h-1.4l-.5.2h-.2l-1.3.5h-.2l-.3.3h-.2l-1 .4h-.2v.3h-.3l-1 .5-1 .5h-.1l-1.9 1.4v.1l-1.5 1.5-.3.5-.6.6-1.1.6-1.3.4-1 .6h-.2l-1.1 1-1.8 1.7-1.3 1.1v.4l-.7.3-.5.9-.7.5-1.6.9h-.1l-.4.2h-.9l-.4-.2h-.1l-2-1-.8-.6h-.1l-.9-.5-1.3-.3-.7-.1h-1.2l-1.2.2-1.1.7-.7.6-.4.7-.6 1.1-.2 1-.1.4-.3.8zm0 0"/><path d="M379.5 119.8l.5.7v-.1l.4-.1h.2l.3-.3h1.8l.6.4h1.5l.5-.4h.3l.4-.2.2-.2h.1l.2-.2.3-.1.2-.3h.2l.2-.3.3-.3.3-.1.2-.3.2-.2.2-.1v-.2l.4-.3v-.2l.3-.5.4-.4.2-.2.3-.3.3-.2.3-.4.5-.2.4-.2.3-.2.3-.2.8-.2h.3l.3-.2h1.3l.4.2h.3l.1.2.2.1.3.1v.1l.9.5h.1l.5.4.2.2.7.4h1.3l.6-.1h1.2l.1-.3v.2h.1l.5-.2.2.1.5-.2.6-.3h.4l.2-.2.6-.1h.7l.3-.1h.9l.7.2h.6l.4-.3h.4l.4-.1h.2l.1-.1h.8v-.2h.3v-.1h1.2l.4-.2h.4l.3-.2.5-.2h.2l.2-.3h.4l.4-.3h.2l.3-.4.3-.1.2-.2.4-.4.2-.2.1-.2.3-.3.2-.3.2-.1.2-.1.1-.1h.2l.3-.3h1l.2-.3h.4l.3-.2.4-.2.3-.2.4-.2.3-.3.3-.3.4-.5.6-.6.4-.5.2-.4-.7-.2v.1l-.5.5v.2l-.2.1-.2.4-.3.3h-.1l-.6.4v.2l-.4.2h-.3l-.1.2-1.5.4-.4.3-.3.2-.8.1v.2l-.4.2-1 1.4-1.4 1h-.1l-.6.2-.3.2h-.6v.1h-.4l-.5.3h-.2l-2.1.4h-.8l-.5-.4h-.6l-.5.4h-2.1l-1 .5-.4.1-.6.1-.2.3h-1.1l-1.9.3-.1-.1h-.4v-.2l-.8-.3-.8-.5-.1-.2h-.1l-1.2-.6h-.2v-.3l-1-.1H393l-1 .6-1.8.9v.3h-.2l-.1.2-.9.6v.2l-.3.3-.7.9-.6.5v.2h-.2l-.2.3-.3.3-.4.3-.5.5-.2.1h-.1l-.3.2-.5.2-1.3-.1-.5-.2h-1.7l-1.5.4zm-71 36.4v1.3l.5 2.7.8-.5-.2-1.5-.2-1.3.2-2.2 1-1.7.6-1 1.1-.6.8-.3.8-.1.7.1 1 .4v.5l.6.2 1.1 1v.2l1.2 1.6 1 1.2.7.5 1.1.3.7.1.7-.1 1.3-.7v1.1l.5-.6-.2-.1v-.5l.5-.1 1.4-1.1.8-.9.6-.5 1.4-1.2.7-1 2.3-2.4 1.3-1.2.9-.8 1.8-1.6 1.3-1.7.7-1.1.1-.5h-.9l-.2.6-.6.9-.7 1-.5.4-1.3 1-1.5 1.7-.4.3-.5.5-1.3 1.2-1.1 1.3-1.3 1.4-2 2-1 .6-1.8 1-.6.2-.4.1h-.8l-.7-.6-.6-.5-.9-1.2-1-1.4-.3-.5-1.9-1.4-.8-.4-1.3-.2-.8.1-.4.2-1.3.6-.4.3-.8.6-.3.5-.3.6-.8 1.9zm-31-148.7l.1.4.2.4.4.1 1.4.4 1.4.7 1.6.5 2 .3 2.5 1 1.4.5 1.2.9.6.6.5.5 1 1.8.5 1.8.6 2 .2 1.5.2 1.7v1.1l-.1.5-.2 1.1v.5l.2.7-.5 1.2-.6 1.6-.6 1.3-.3 1v2.2l.2.9.4.8.8.8.7.5 1 .5 1.4.4 1.5.1.8.2.6.2.4.3.2.3.8-.3-.4-.3-.5-.6-.9-.4-1-.2-1-.1-1.9-.5-.9-.4-.7-.6-.5-.6-.2-.8-.1-1v-1l.3-.8.3-1 .6-1.2.6-1.8.3-1 .3-.5-.1-.7v-1.3l-.2-1.2-.3-2.5-.3-2.2-1-2.4-.8-1.6-.9-1-1.1-1.3-1.7-.8-1.6-.6-1.6-.5-1.2-.3h-.9l-1-.5-1.1-.2-1-.4-.4-.5-.3-.7-.2-.3-.4-.1-.6.4zm86.5 236l1.2.3.2-.6.4-1.4.4-1.3.5-1 .3-.5.2-.3.4-.2.4-.3.2-.4.3-.6.8-2 .5-1.5 1-1.9.5-1 .3-.5 1.4-1.9.8-1 .5-.7.7-.6 1.4-1.1 2.5-1.6 1.8-1.1-.7-1-1 .6-1 .5-2.7 1.6-1.2 1.4-1.6 1.6-.8 1-.4.6-.6.8-.4.6h-.1v.5l-1.4 2.4-.8 1.9-1.1 2-.9 1.6-.7 1.4-.7 2zm120.5-115.4v.2h.2v.1h.3l.2.1h.8v.1l.2.1v.2l.1.1.3.2h.1v-.5h.2v-.2h.3v-.1h1.3v-.3l.1.2h.2v.2h.4l-.2-.3h-.4v-.2l.4-.2h.5v.2h.3l.1.2-.3.1-.1.2v.2h.5v-.2h.2l.2-.1v.3l-.1.2h-.2l.2.1h.7l.2.2h.2v.1h1.5v-.3h.1l.2-.3v-.1h.1v-.1h.4v-.2h.2v.5h.3l.1-.2v-.3h-.3v-.3h.8v-.3h.2v-.2l-.3-.2-.1.3v-.2h-.3v.2h-.2v-.5h.5v-.1h.1v-.2h.1v-.2h-.4v-.1h-.4v-.2h.1v-.1h.2v-.2h.1v-.2h.2l.1.2v.2h.1v-.8h-.2v-.2h-.5v.4h.2l.1.1v.1h-.4v-.3l-.2.3-.1.1-.1.1h-.6l.2-.2h-.4v.2h-.1v.1h-.2l-.1.2v.1h.3v-.3h.2v-.1h.1v.3h-.2v.1l-.1.1-.3.1v.2h-.3v.4h.3v-.2h.1v.2h.1v.2h.1v.2h-.4v-.3h-.1v-.1h-.2v-.2h-.5v.6h-.4v.2l-.1.1v-.5h-.3v-.9h-.3v.2h-.1v-.3h.3v-.1h.2v-.3h.1l.1-.2v-.1h.1v-.4h.2l.1.4v-.2h.2l.1-.2h.5v-.1h.3v-.1h.3v.3h.2v-.2h.3v-.2h-.7v-.3l-.2-.1h.4v-.1l.2-.1v-.4h.3v-.2l.1-.1h.2v.1-.3h.2-.3v-.2h-.1v-.1h-.1l-.2.1v.4-.1l-.1-.2v-.2h-.4v.3h.4v.2h-.4l-.1.2h-.1v-.3h-.1.4v-.2h-.4v-.1h.2l.2-.2v-.1h-1.2l-.1.2h-.1l-.3.1v.2h-.3v.2l-.3.1h-.2l-.1.2h-.1v.4h-.3v-.3h-.3v.2h-.4v.2h-.3v.1h-.7v-.3h-.5v.6h-.4l-.1.1h-.2v.1h-.6v.8h-.1v.1h-.1v.3l-.2.2h-.3v-.2l-.1-.2h-.2v.6h.2v.1h-.2v.2h-.1v.3h.2v.3-.3h-.3v.3l-.1.1-.1.1h-.2v.2l-.2.1zm1.2-.1h.3-.4zm1.6-2.4h.2zm.2 2.4h.2zm0-3h.5-.4zm.3 3h.1zm.9-2.4v-.2zm-.1 2.2h.3zm.4-2.6h.2zm.3 1v-.2zm.2.5h.2zm.1-.7l.1-.1v-.2h.1v.3zm.6-.8v-.2h.2l.1-.3v-.1h.2v.3h.2v.1h-.4l-.1.3v.1h-.3zm-.2 1.5h.3zm.3.6h.4zm.1-2.7h.2zm.3-.2h.1v-.3.4zm.1-.5v-.2h.2zm.1.2h.1zm.1-.3l.2.2h-.2zm0 4.8h.3v.2-.3zm.1-.4h.2zm.1-.2h.2-.3zm.1.1h.3v-.1l.1-.1.1-.2h.2v.3h.8v-.2h.6v-.3h.3l.3-.2h.1v.3h-.1v.2h-.6v.1h-.3v.6h-.7v-.3h-1.2zm0 .7h.2zm.1-4.2h.1zm.2-1.1h-.1zm.1.6h.2zm.2-.6h.1zm.1 4.9h.2zm0 .6h.2zm0-5.2l.3-.1h.1v.2h-.2zm.3 5v-.1.2zm-.1-5.4h.2v.2zm0 1h.2zm.4-.2l.2.1h-.3zm.1-.2v.2zm0 0l.2-.3h.1v.3zm.3 3.3h.3zm.3-.5h.1zm.1 1.3h.1zm.2-1.4v-.1h.2v-.2h.2l-.2.2h-.2zM83.8 97.1l.2.4.4.1v.5l.5.4.3.2h1.3l.7-.4.4-.6.2-.4.4-1 .5-1.2.5-.8.1-.7-.2-.6-.5-.8-.5-.2h-.9l-.7.7-.7.3-.6.8-.4.7-.5.5-.3.8v.9zM411.1 206l.4 1.5 1.5-.7 1.8-1 1-.3h.4l1.6.4 1.8.7 1.4.7.9 1.2 1.1 2.3.7.7.5.4h.1l.5.2h1.2v-.9h-.4l-.3-.2-1.3-1-.2-.4-1.8-2.4-1.4-1.3-1.5-.9-1.7-.5-1.6-.2-1.6.4-1.5.6h-.1zm7.3 20v.5h.3l.1.3h.2l.1.2v.1l.1.3v.2l-.2.1v.1l-.1.2h-.2v.2h-.1v.1h-.1v.1h.5v.3h.3v.1h.3v.1h.4l.2-.3h.4l.1-.1h.1l.2-.2h.6l.4.3h.6v-.2h.9v.8h.3v.4h.1v-.3h.2v.3h.9l.2-.2v-.2h.4l.1-.2.3-.2v-.2l.2-.3v-.1h.3v-.2l.1-.1.1-.1v-.2l-.1-.1v-.1l-.2.3-.2-.3-.1-.2-.1-.1h-.9l-.1-.1h-1.2l-.1.1v.2l-.2.1v.1l-.3.3-.2.1h.3v.1h-.4l-.1.2h-.6l-.2.2v.1h-.4l-.2-.3h-.1v-.2h-.2v-.3h-.1v-.2l-.3-.2h-.2l-.2-.3h-.3v-.3l.2-.2.2-.1.1-.1v-.3h.1v-.3h-1.1v-.2h-.9v.3h-.1zM6.9 166v.3h.2l.1.5v.7l.3.3.5.4.1.2h.7l.5.2h.5l.1-.2v-.6l.3-.6V166h.1v-.9h.1l.1-.1v-.3l-.3-.3-.2-.4-.3-.3H9l-.3.3-.3.2-.4.3-.4.4-.3.4v.1l-.2.4-.1.2zm457.4.7v.2l.2.1v.2h.2v.4h.3v.1h.2v.1h.1v.2h.3v.1h.4v.4h.3v-.5h.2v.1l.1.1v.3h.1v.1h-.3v.1h-.1v.3h.3v.2h.4v-.4h-.3v-.1h-.2v-.2h.8l.3.2v.3h.1v-.2h.9v-.5h.3l.1.3h.3v.1h.1v.6-.2h.2v-.1h.2l.1.3v-.6h.1v-1.1l-.1-.2h-.1v-.3h-.2l-.1-.1h-.2v-.4h-.2v.4l-.1.1v.2h-.1l-.1-.3h-.1v-.5h-.5v.3h-.2v.2h-.5v-.3h-.5v.2l-.2.1v.3h-.3v-.3h.3v-.1h.2v-.3h-.3l-.1-.1h-.1v-.1h-.4v-.1h-.1v-.2h-.3v-.5h.1v-.1h.2v-.2h.2v-.1h-.4v.2h-.1l-.2.2-.1.1-.1.2-.2.1h-.1v-.3h-.2v.3h-.1l-.1.2v.1h-.2v.2h-.1zM371 272.8v.7l.2.1.1.1v.3h.2l.2.2v1.1l-.2.1v1.2h.2v.5l.2.2v.2h.1v.3h.3v.1h.5v.1h.2v-.4l.1-.2h.2l.1.3h.6v-.4h.2v-.6h-.6v.3h-.1v-.3h-.1v-.5h.4l.2-.2v-.5l-.3-.1v-.2l-.1-.2h-.4v.2h-.2l-.1-.2h-.1l-.1-.3v-.3l.1-.3.2-.1v-.2h.1v-.4l-.1-.1h-.1v-.3h-.2v-.2l-.1-.3v-.1h-.1l-.2-.2v-.2h-.4l-.3.1h-.2l-.2.1v.3h-.2zm20.7-50.5h.3l.1-.2v-.1h.5v.8h.7v-.3h.2v-.1h-.3v-.1h.3v-.1h.2v-.2h.2l.1-.3h.3v-.1h.5v-.1h.2l-.2.3h.4l.3-.2v-.1h.2l.2-.3h.1l.2-.1h.3v-.1l.4-.1v-.1h.1v-.4h.2v-.2h.3v-.1h-.4v-.1h-.1v-.3h-.2v.2l-.1.1h-.1v.2l-.2-.4v-.4h-.1l-.1-.1v-.1h-.4v.3h.2l-.1.1h-.2v-.3h.2-1.2v.3l-.2.2h.5-1.2v-.2h-.3l-.1.3v.1l-.3.1h-.1l-.2.3h-.1v.1h-.1l-.2.2-.3.1v.1l-.1.2v.1l-.2.1-.1.2v.7h-.1zm.3-.3h.2zm1 0l.2-.2h.1v.2zm2.2-.7l.2-.2h.2-.4zM3.6 11.6v.1l.1.1.1.2H4v.4l.2.3h.1v.1l.3.2h.2v.2H5v.8h1l.1-.1.1-.1.1-.1.2-.1h.1v-.2h.2v-.1h.1v-.1L7 13v-.9h.2v-.2l.2-.1v-.3H7v-.3h-.4V11l-.2-.2h-.3v-.1H6l-.2-.1-.1-.1h-.5v.2H5l-.2.2-.1.1h-.2l-.2.2-.1.2H4v-.3h-.3v.5h-.2zm1.6-.1v-.2h.3v.3h-.3zm0 0"/><path d="M483.6 121.9v.1l.3.1v.2h-.2v.1l.3.1h.1l.1-.2h.1l.1-.2h.3l.1.5h.1l.1.2.2.2v.2h.2l.1.1h.3v-.5h.4l.2-.2h.1l.2-.1.2-.2.2-.3h.5l.1.3v.2h-.1l-.2.2h-.2l-.2.2h-.1v.1h-.4v.3h-.1v.2h.8v.1h.1v.2h.1v.5h.2v-.3h.6v.2h.2l-.3-.2h.3v-.2h-.4v-.2l.2-.3h.2l.1-.1v-.2h.2l.1-.2h.2v-.5h-1v-.1l.2-.2v-.1h.2v-.1h.5v.2h.4v-.7h-1.1v.2h-.1l-.1.1-.3-.3h-.7v.3h-.8l-.2.1h-.2v.1h-.6v.1h-.2l-.2.1h-.3l-.1.2h-.1v-.7h-.1l-.2-.1h-.2l-.1.3v.1h-.2v.1zm4.7-.3h.3v.1h-.3zm-68.6 109.9v.2l.1.1.1.2v.2h.1v.1h.2l.1.2v.1l.1.1v.8h.4v.2h.2l.3.1h.1l.2-.3h.4v-.2h.1v-.3h.3v-.4l.1-.1v-.4l-.3-.1h-.1v-.3h-.1v-.1l-.3-.1v-.3h-.1v-.3h-.2l-.1-.1h-.1v-.2h-.2l-.2-.3h-.4v-.1h-.3v.3l-.1.1v.4h-.2v.3h-.1v.2h-.1zm60.4-46l.1.2v.3l.1.2v.1h.2l.3-.1v-.2l.4-.2.2-.2h.1l.1-.3v-.1l.2-.5v-.4l.1-.3v-.4l.1-.4v-.5l.2-.3v-.2l-.2-.2v-.3h-.1v-.2h.1v-.1l.2-.1v-.1h-.3l-.1.3-.1.1-.2.1-.2.3h-.1l-.1.5-.2.2-.1.3v.1l-.2.3-.2.2v.9l-.2.8zM92.7 27.7v.4l.1.4.3.4.3.3.3.2h.3l.2-.3h.4l.4-.6.2-.6.2-.3v-.1l-.3-.2-.6-.4-.4-.2-.5-.2h-.3l-.2.2-.2.3-.2.4zM78 44v.3l.3.4.1.3h1.8l.3-.4.1-.2v-1.2l-.5-.3-.1-.1-.2.2h-.3l-.5-.3v.3l-.5.3h-.2l-.3.3zm70.6-4v.3l.3.5.1.2h.4l.2.3h.5l.3-.4v-.2l.2-.4.1-.1.3-.1v-.8l-.1-.3-.1-.2h-.4l-.4.2-.4-.4h-.4l-.2.1-.2.3v.5l-.3.2zM72.2 90.5v.2l.2.1v.2h.7l.3-.4.3-.4.2-.4.1-.2.4-.3.2-.2v-.8l.1-.1h-.2l-.1-.2h-.7l-.3.2-.4.5v.2l-.3.1v.2l-.1.1-.2.3v.2l-.2.6zm208.1 131.8v.1h.2v.3h.2l.1.1h1.2v-.4h.1l.3-.4v-.6l-.2-.2v-.3l-.1-.2h-.1v-.3l-.2-.1v-.1h-.1l-.1.3h-.6v.2h-.4v.5h-.2v.8h-.1v.2zM454.1 115l.1.3h.2l.1.2h.5l.1-.3h.2l.2.4h1.4l.1-.2.1-.1.1-.1v-.3h.2v-.3h-.2v-.3h-.2v-.1h-.4l-.3-.2h-1l-.3.3h-.2v.2h-.2l-.2.1-.2.1v.3zm1.4 64.4v.1h.2l.3.3h.5v-.3l.4.2h.7v-.2h.1l.1-.2.2-.1h.1l.3-.2h1.1l.3-.2h.7l.1-.2-.1-.2h-.2l-.3-.1h-.9l-.1.1h-.5l-.3.3h-.5l-.5.2h-.7l-.3.1h-.3l-.1.1-.3.1zm-70.8-46.7v.2l.1.1v.5l.2.3v.2h.7l.3.2h.3l.1-.2.1-.1h.2l.1-.4v-.4l-.1-.1-.2-.2v-.2l-.2-.1-.2-.2v-.1h-.1v-.1h-.2l-.2-.1h-.6l-.1.4h-.1v.3zm45.9-21.5v.1h.2v.2h.2v.1h.2v.4h.2v.3h.1v.2h.1v.3h.1l.1.1.2.1h.5l.1.2h.2v-.2h.2l.2-.2h.2v-.3l.2-.1h-.5v-.1h-.3l-.1-.1h-.1v-.1h-.2v-.1h-.1v-.5h-.5v-.2h-.3v-.1h-.2v-.2h.3l.1-.2v-.2h.3v-.1h-.9l-.1.4h-.3v.1h-.1zm-14 103.9l.2.2.1.2h.3l.1-.2v-.3h.7v.2h.2l.2.2h.1l.1.3h.3l.2-.4h.6v-.1h.2l-.4.3h-.1.9l.1.2h.4l.2-.3h.2l.3-.2h.1v-.1h-.2l-.2-.1h-.2v-.5h-.2v.3h-.1l-.1-.3v-.2h-.2l-.1-.1h-.2l-.1.4v.2-.3h.2v.2h-.2v.2h-.2v.1h-.8v-.4l-.3-.1h-.3v.4h-.4v-.8h-.2v.6l-.1.1v.2h-.9v.2h-.2zm3.4.1h.2l.3-.2h.5l-.1.3h-.9v.1zM42.1 15.5l.2.2v.1l.1.1h.1l.1.1.2.2h.2v.2h.2v.1h.1v.1h.2v.2h.5l.1-.2V16H44l-.2-.2v-.5h-.1V15h-.3v-.2h-.1v-.2h-.5v.3h-.6v.4zm1-.5l.2-.2zm373.1 216.2l.1.3.2.1h.2v.2h.4v.2h1.2l.3-.2v-.2h.2v-.9l-.4-.1h-.4v.2h-.4v.1h-.2v.3h-.4v-.7h-.3l-.1.1v.1l-.2.1v.2h-.2v.1zm1.5.2h.2v.2zm.3.2v-.2h.2v.3zm50.2-74.6v.1h.6v.3h.2l.2-.3.2.4.3-.3h1.3l.3.3v-.4h.2v-.2h.2l.2-.3v-.2h-1.4l-.2-.1h-.9l-.2.4h-.4v-.2h-.2v.4h-.4zM93 89.1v.2l.2.1.2.3h.5l.6-.5.5-.4.2-.2v-.4l-.6-.2h-1l-.3.3-.3.5zm105.6 103.6v1.1l.2.1v.2l.2.2v.2l.2.1v.4h.2v.5l.1.1v.1l.3.2.1.1.3.2.2.1h.4v-.1h.2v-.2h.3l.2.3v.5h-.4v.4l.3.1v.1h1.1v.5h.1v.1h1l.1-.3h.6l.1.3h.3l.2-.4v-.3h-.3v-.1h-.1v-.2h.8l.2.2h.1l.3-.4v-.1l.1-.1.2-.2v-.1l.3-.3v-.1l-.4.2-.1.2v.3h-.2l-.1.2-.2.2h-.5v-.3h-.6v.6l.3.2v.2h-.5v-.2h-.2v-.1h-.3v.3h-.7v.1h-.5v-.6h-.2v-.2h-.8v.3h-.2v-.6h.2v-.7h-.7v.2h-.5v-.2h-.3v-.2h-.1l-.1-.1h-.2v-.2l-.1-.1v-.2l-.1-.1v-.2h-.2v-.3h-.2v-.6h-.2v-.4h-.1v-1.2h1.3v-.2h.1l.2-.2h1.2v-.7h.2v-.1l.1-.2.1-.3v-.5h-.4v.3l.3.1v.2l-.3.2v.1l-.1.2v.4l-.1.1-.2.2h-.4v-.3h-.2l-.2.3h-.1l-.2.1-.1.1v.1h-1.2v.3zM433.2 95v.4l.1.3v.6l.3.2h.5l.2-.1.2-.2v-.4l.2-.2V95l-.3-.4-.1-.2h-.3l-.2.1-.1.1-.2.2-.2.2zm-306.4 11.3v.2l.2.4v.1h1.7l.1-.3v-.5l-.2-.3-.3-.2-.3-.1-.2-.1h-.6l-.2.3-.1.2zm287.4-43.6l.1.1h.3v-.2h.3l.1.2v.4h-.2v.4h.2l.1.1h.1v.3h-.5.7v-.4h-.4v-.9h-.7v-.3h.3v-.6h.3v-.1h.1v.3h.2v.2h.3l.2-.2v-.2l-.4-.2v-.2h.3v.2h.2v-.4l.2-.2v-.2l.1-.3v-.3l-.1-.1.1-.1.1-.1h.2v-.4h-.4v-.3h-.2l-.2-.2v-.2h.7v.2h.2v.2h.2v-.5h.1l.1-.1h.1v-.1h.3v.3h.2V58h.1v-.2h.4v.5h.1l.1.2h.2v-.3l.1-.2h.2l.1-.1.2-.1h.4v-.2h.3v-.1h.3v-.4h-.3V57h.3l.2-.3v-.5l-.2-.1h-.3v.2h-.2v.2-.7h-.2v-.2h-.1v-.1l.3-.1h.5v-.2h-.4v-.5h-.4v.3h-.4v-.4l.4-.2.1-.1h.2l.1-.1h.2V54l-.3-.2h-.5v-.3h.6l.2-.3V53h-.5l-.2.2-.1.1h-.5l-.2-.3v-.2h.3v-.3h-.3v-.2l-.2-.2v-.3h.3v-.5h.4l.1.3v.2h.1v.1h.2v-.4h.3v.3h.2l.1.2h.2v-.2l.1-.1h.4v-.2h.1v-.3h-.4v-.1h-.2l-.2.2h-.1v.2h-.3v-.4l.2-.1h.4v-.3l-.3-.1.3-.2h.2v.6h.5v-.3l.1-.2v-.2h-.3.5v.4h-.3v.3h-.1v.3h.4V51h.3l.1.2h.2l.2-.2v-.1l-.3-.2v-.2h.5v-.6l.2-.3v-.1h-.4v.3h-.2v.1h-.1v-.5h-.5v-.3h.4V49h.2v-.2h.2v-.1h.1v-.4h-.2l-.3-.1V48v.3l.2.1.1.1.2.1v.1h-.4v.2h-.1v.1h-.1v.2h-.2l-.1.1v.3h.4v.2l.1.2h.3v-.2l.2-.1v-.1h.2v.7h-.2l-.1.2h-.3v.5l-.2.2h-.1l-.1-.2h-.2v.1h-.4v-.4h.3l.1-.2v-.2h-.4v.5l-.2.2h-.2v-.7h-.4v.3h-.1v.4l-.2.2h-.1v.3l.2.1h.1l.3-.4h.4v.4h-.3v.1h-.1v.1h-.3l-.2-.1v-.2h-.5v.3h-.2v-.3l-.1-.1h-.1v-.2h-.1l-.2.3v.2h-.2v.2l-.1.1v.3l.3.3h.1v.6h.9l.1-.2h.3v.5h-.6l-.1.1v.2l.2.2h.4v.3l-.2.1h-.2l-.2.2-.2.1v.3l.2.2h.2v-.4h.2v-.1h.2v.6h.2v.1h.2v.2h-.8v.2l.2.2.2.2v.2h.2l.1-.1h.1v.7h-.2v.4h.2v.2h-.6v.1l-.2.1h-.4v.1l-.3.1-.2.3h-.3v-.6h-.2v-.1h-.3v.4h-.3v.6h-.5v.2h-.2l-.1.2h-.2v-.2h-.6v.5h.4v.5h.4v.1h-.2v.1h-.2v1h-.3v.6h-.5v.1l.2.1.2.1v.1h-.6v-.2h-.6v.6h-.1v.2zM473 41.5l.2.1v.6h.1v.2h.2l.1.1h.1v.1h.1-.3.2v.1h.3l.2.1v-.2h.2V42h.1v-.2h.1v-.2h.1v-.3h.1V41h-.3v-.2h-.2v-.1h-.8v.3h-.1l-.2.2v.3zM365.3 279.8v.2l.1.2h.1l.2.4h.8l.1-.4h.2v-.3l.2-.1v-.4l-.1-.2-.2-.2h-.1v-.3h-.3l-.3.1v.2h-.2v.2l-.4.2v.1l-.1.2zM263.7 6l.3.6.4.3h.8l.2.2.2.4.4.2.2.3.5.1-.2-.3-.2-.3-.4-.4-.3-.5-.4-.4h-.4l-.4-.6h-.6zm163.5 105v.4h.2v.1h.3v.2h.1v.5h-.3v.6h1v.1h.5v.1-1h-.3v-.4h-.1v-.1h-.1v-.1h-.2v-.1h-.1v-.1h-.1v-.1h-.1v-.1h-.3v-.2h-.3v-.1h-.2v.3h-.1zM14 123.2v.1h.7l.2-.1.1-.2.5-.2v-.2l.2-.1v-.5h-.3l-.1-.3h-.1l-.4-.2h-.5v.4h-.2v1.1zm398.4-52.9l.1.2h.1v.2h.2v.2h.2v.1h.5l.1-.2v.9h-.9v.3h.6l.1.2h.3v.1h.2v.1l.1.2v.3l-.1.1h-.4l-.2.2v.1h.4v.2h.5v.5h-.4v.3h.2V74h.2v-.3h.1v-.3h-.7v-.2h-.1V73h.5v-.6l-.2-.1v-.1l-.1-.2h-.7l-.2-.2v-.2h.5l.1.2h.2l.2-.4v-.6h-.8l-.2-.2-.2-.2h-.1v-.2h.3v.3h.8V70h-.5l-.1-.3v-.1h.3v.3h.2v.1h.5v-.7h-.9V69h.4v.2h.5V69h.3v-.2h.4v.5h-.3v.1h-.3v.6h.3l.3-.3h.4l.1.3h.2v-.2h.2v-1.2l.1-.2v-.3h.1V68h.2l.2-.1v-.2l.1-.1v-.1l.1-.1v-.1h.1V67l-.3-.2h-.2v.2l-.2.3h-.2V67h-.1l-.1-.3-.3-.1h-.1l-.3.3V66h-.3l-.2-.2-.2-.2v-.2h.5v.3h.1l.1.2h.3l.2-.3v-.2h.2V65h-.1l-.3-.3v-.1h.5v-.1l.1-.1v-.1h-.6l-.1-.2V64h-.2v.2l.3.2h.4v.2h-.4v.4h.4v.3l-.1.2h-.3v.2h-.3l-.1-.1-.1-.1-.2-.1h-.3v.3l.1.3h.6v.5l-.2.3h.9v.2h.2l.1.4h.3V67h.4v.5h-.3v.2l-.1.2-.2.1h-.2v.5l-.2.1-.1.3v.1h.2v.8l-.2.1h-.3v-.3h-.6v.4h-.1v-.7h.3l.2-.1v-.4h-.6v.1l-.2.1v.2h-.5l-.2-.2h-.1l-.2.1v.3h1v.5h-.7l-.1-.4-.1-.1h-.1v.3h-.2v.3h.6v.2h.2v.3l-.4.1v-.3h-.4v-.2h-.2V70h-.2zm20.7 46.7v.2h.2v.1h.1v.3l.1.1v.1h.4v-1.1h.1v-.5l-.3-.1v-.1h.5v-.3h.1v-.2h.1v-.1h.1l.1-.1v-.3h.1v-.4h.1v-.2h-.3v.3h-.2v.2h-.1v.1h-.1v.2h-.3v.1h-.2v.5h-.1v.2h-.3v.3h-.1v.7h-.1zm0 0"/><path d="M411.3 77.4v.2h.3v.2h.1l.1.2h.5l.1-.2h.2v.6h-.3v.4h.7v.3h-.2l-.2.2h-.4l-.2.3v.2h.9v.1l.1.1v.7h.6v.3h.4v.4h-.1v.2h-.5v-.3l-.1-.1-.1-.2h-.2v.2l-.2.1v.4l-.1.1h-.3v.1h-.1v.1h-.1v.4l-.2.1v.3l.3.1h.5v.5h-.5v-.3h-.3v.6h.2v.3h-.7v.2h.2l.1.2h.4l.1-.4h.1v.4h.3l.1.2h.1V84h.7v.3h.1V84h-.7v-.2h-.4v.7h-.1v-.4h-.2V84h-.3v.3h-.4V84h.5v-.4l-.1-.3h.5v.2h.1l.2-.3V83h.1v-.3h-.7v-.4h.1l.2-.3h.2v-.3h.2l.1-.4V81h.4v.4l.1.2.1.1h.2l.2-.4v-.1h.2V81h-.5v-.2l-.3-.2h-.4v-.3h.2V80l-.2-.1-.2-.3h-.6l-.1-.2v-.1h.6l.3-.1v-.5h-.3v-.2h-.2v-.6h-.8v-.2l-.3-.1v-.3h.3v-.2l.1-.1.2-.2.1-.1h.2l.1-.2h.4l.2.2h.3l.1-.2v-.4h-.2V76h-.2v-.3h.3l.1.3v.1l.3.1h.1l.1-.2h.3l.1-.1.1-.1v-.4h-.4v-.6h.2v-.4h-.8v-.6h.3v.2h.1v.2h.2l-.3-.2v-.2h-.3v.8h.1l.3.1h.2v-.3h.2v.6l-.2.1v.4h.3v.4l-.3.1h-.1l-.3.2h-.1l-.2-.3v-.1l-.1-.2h-.2v.7h.4v.4h-.7v-.3h-.3l-.1.3-.3.1h-.1l-.1.2-.3.3h-.2zm70.3 103v.4l.1.2h.1l.2-.3v.3-.2l.3.2h.1l.1-.5h.1l.2-.2v-1.7l-.2-.1v-.2l.2-.3.2-.1.1-.2v-.1l-.1.2-.2.2-.1.3v.1l-.1.6h-.1v.1l-.1.2h-.2v.3l-.2.1h-.2l-.1.3zm-12.5 11v.1h.3v.2h.8l.3-.5.3-.1.1-.1v-.5h-.3l-.1-.2h-.7l-.3.4-.3.3zm-11.1 9.4h.5v.2h.1v.2h2.2l.2-.2h.4v-.3h.7l.1-.2h.2v-.1h.6v-.2h.3l.1-.1h.4l.2-.1h.4l.2-.1h.1l.2-.2h.5l.1-.2h.1l.4-.1.3-.2h.3l.1-.1h.3v-.3h.2l.4-.2h.1l.3-.2h.2v-.1h-.2l-.2.3-.3.1h-.2l-.4.3h-.2l.2.2h-.9l-.3.1h-.5v.2h-.5l-.2.2h-.2l-.1.1h-.2v.2h-.7l-.3.3h-.3l-.2.2h-.2v.1h-.8l-.5.4h-1.7l-.8-.2h-.4zM127 32.5v.6h.3l.1.3h.6l.2-.6.2-.2V32h-1l-.4.3zM47 3.1h.5v.2l.2.1h.7l.1-.4h.4l.1.3h.4v-.7h.2v-.2h-.2l-.1-.1h-.1l-.2-.1h-.5l-.2.5h-.9l-.1.2V3H47zm379.1 89.5h.2v.3h.1v.1h.1v.3h.1v.2h.4v.2h.3v.1h.4v.1h.3v-.3h.2v-.5h-.2V93h-.9v-.3h-.1v-.3h-.7v-.1h-.2zm2.2 112.4h.3l.2-.2.1-.1.4-.2h.4l.2.3h.3l.1-.2.4-.2h.7l-.3-.2h-.4v-.2h.1l.4-.3h.4l.4-.1h.3v-.3h-.9l-.3.4h-.4l-.2.3-.2.1h-.8l-.3.1v.1l-.4.2v.1l-.1.2-.2.1zm45.1-84.1v.3h.2v.2h.1v.1h.3v.1h.2v.1h.3v.1h.4v-.3h.1v-.7h-.3v-.1h-.1v-.1h-.1v-.2h-.1v-.1h-.2v.4h-.1v.1h-.3v-.3h-.3v-.2h-.1v.5h-.1v.1zM106.8 94.1v.2l.2.5v.1h.2l.2.3h.2l.2-.4h.2v-1l-.4-.3h-.2l-.2.2h-.2v.3h-.1zm364.8 98.7l.4.2.3-.2.2-.2v.2h-.2.2l.2-.1.1-.1.2-.1v-.6h.3l.1-.4h-.8l-.3.1v.4l-.2.1-.1.2-.2.1v.1l-.1.1zm-7.9-9.1l.2.1v.2l.4-.3.2-.2.4-.3h.1l.2-.4.1-.1h.2l.1-.4v-.4h-.5v-.2h-.3v.3h.4v.3l-.2.2-.4.3h-.2v.4l-.4.1-.1.1v.2zm-49.1-92.9h.3l.1-.1v-.2h.4v-.2h.1v-.1h.1v-.6 1h.2l.2.1.1.2h.2v.5h.3l.1.1h.6v.3h-.2v.1h-.1v.3h.2l.1.1h.7V92h.3v-.4h.3v.8h.4V92h.2l.1-.2h.1v.6h-.2v.5h.5l.1-.2h.2v.5l.2.1v.4h-.6v.2l.1.1h.3v.1l.2.2v.1h.2v-.2h-.3V94h-.1l-.1-.2h-.3v-.2h.6v-1h-.4l-.2.1-.2.2h-.2v-.6l.3-.1v-.3h-.2v-.2h-.3v.6l-.2.1h-.2l-.1-.2v-.7h-.3l-.1.2v.3l-.1.1v.2h-.7l-.2-.3v-.1l.3-.3v-.2h-.1l-.1-.2h-.7l-.2-.1v-.3h-.3v-.2h-.1v-.1h-.2l-.1-.3v-.6h-.3v.8h-.2l-.1.1v.2h-.3zM-.5 25.1v.2l.2.1.1.2.2.2h.7v-.3h.1V25l-.2-.5H.5l-.1-.2H0l-.2.3-.1.2-.1.2-.2.1zM469.3 127v.3h.2v.4l.1.1v.1h.1v.1h.6v-.3h.1v-.1l.1-.1v-.5h-.3v-.2h-.1v-.1l-.1-.1v-.2h-.2l-.1-.1h-.2v.6h-.2l-.1.1zm-34.6-9.7h.2v.2h.7v-.3h.1v-.2h.1v.3h.1l.1-.3v-1h-.7v.2h-.1v.1h-.1v.2h-.1v.5h-.2l-.1.1zM475 48l.2.1v.5l.3.4v.3h.3V49l.2-.2v-.2l.2-.3v-.4l-.3-.2h-.3l-.1-.1h-.5v.3zm10.1 124.4l.1.2h.1l.1-.1h.1l.1-.2.1.2h.3v-.1l.2-.4.1-.2v-.5l-.3-.1h-.6v.3l-.3.3v.5zM434 106.1v.5h.2l.1.1h.3v.2h.2v.1h.5v-.3h.1v-.2l-.2-.3-.2-.2v-.1h-.2v-.2h-.7v.2l-.1.1zm0 0"/><path d="M413 90v.3h.4v.2h.5v.1h.2l.2.2h.1v.2h.3v-.2h-.4l-.1-.1v-.3h-.6v-.1h-.2v-.1h-.3l-.1-.2v-.1l.3-.2h.8v-.2h.2v-.4h-.5l-.1.3-.1.1h-.4l-.2-.1v-.3h.6v-.3l-.1-.1v-.2h.3v-.1l.1-.2v-.4h.4l.1-.1v-.3h-.2l-.2-.2h-.1l-.1-.1V87h.3l.1-.3h.1v-.2h-.3v-.3l-.2-.1V86h.4l.1.2h.5l.1-.2v-.2l-.3-.2-.3.2-.1-.3v-.3h-.2V85h-.3v-1h-.2v1h.4v.2h.1v.4h.2v.1l.1.1h.4v.4h-.4l-.1-.4h-.3l-.2.4v.2h.3v.2h.3v.3h-.3l-.3.1-.1.1v.1l.4.2h.2v.1h.2v.3h-.4l-.3.1v.4l-.1.2h-.1v.1h-.2v.4h.3v.2h-.6v.4h.2l.1.1h.4v-.3l.2-.1h.1v-.2l.2.4v.1h-.3l-.1.2h-.1v.1h-.7zm63.4 94.4l.3.2h.3l.3-.4h.2l.2-.1v-1l.2-.2v-.3h-.5l-.1.4-.2.4.3.2h-.2l-.2.3-.1.1-.2.2-.2.1zm0 0"/></g><path fill="url(#C)" d="M423 117l.2-.3v.3zm0 0"/><path fill="#aad3df" d="M429.6 111.8v1.2h.8-.2v-.5h.3v-.2h.1v-.1h.1v-.1h.1v-.5h.1v-.1h-.3v.3h-.1v.1h-.1v.1h-.3v-.3h-.5zm49.9 57.8v.1l.2.3h.1l.1.2h.2l.2.2h.8v-.3h.2v-.4h-1.5v-.4h-.3zm-245.5-19h.2v.3l.2.3.2.2h.4v.2h.3l.1-.4v-.6l-.3-.1h-.9zm0 0"/></g></svg>