<svg xmlns="http://www.w3.org/2000/svg" xmlns:xlink="http://www.w3.org/1999/xlink" viewBox="0 0 497 279" xmlns:v="https://vecta.io/nano"><style><![CDATA[.B{stroke:#fff}.C{stroke:#8d618b}.D{stroke-linejoin:bevel}]]></style><filter id="A" width="100%" height="100%" x="0%" y="0%"><feColorMatrix in="SourceGraphic" values="0 0 0 0 1 0 0 0 0 1 0 0 0 0 1 0 0 0 1 0"/></filter><mask id="B"><g filter="url(#A)"><path fill-opacity=".5" d="M0 0h497v279H0z"/></g></mask><clipPath id="C"><path d="M0 0h497v279H0z"/></clipPath><path fill="#f2efe9" d="M0 0h497v279H0z"/><g fill="#aad3df" fill-rule="evenodd"><path d="M440.7 0h279v-279H440.8zm-558 0h279.1v-279H-14.7l-1.8 2.9-3.7 7.4.5 1.3-2.3 1.6-4.8 6.5-.2 1.1-1 1.2h-.8l-3 3.6-3.7 2.7.3 2.2-1.6 1.5-.2-1-1 .2-.2-.5-3.1 1.3-4.9 4.7-1.7.9-1.3 1.7 1.4 1.9-.1 1 1.9.8v.7l-1-.3-.7.6-.3-.2.2-.5-1.5-1.3h-3.2l-.5-.8-1.3.7-2.2 3.8-1.5 4.2-3 5.9-3 8.4-1.2 7.8-2.1 3.6-2-.3-.3.5-13.9 5.6-3.5 2.2-10.6 10.2-1.5 5.7-1.2 2.5h-1.3l-1.1-.9-1.8-2.1h-1l-2.3-1.8-2.2-2.6-2-4-.2-2.9-1.3-4.7.3-2.4 3-7 2.5-4.3 4-2.9 3-5.4.3-2.6 2-5.2 1.5-10.5-.5-2.7-1.4-2-2-2.5-3.1-2.2-3.1-.7-1.8 4.4-.5.2-.4-2.7 2.2-2.5 2-6-.2-.8.3-.4-1.4-.1-.2-4 1.5-1.1.2-1.4 1.4-1.2h.5l.5 1.9 1.2.1.4-.5h2.8l3-1.6 2.1-3.2 3.8-11 .3-2.7h-28v34.8l.3.3h1.4l1.4.9.3.6.9.7.2.7-.9.3-.7 2-1.3.7-.7-.2.2-1-.6-.1.2-.7-.4-1.1.7-1.1-.4-.4-.6.3v4-.2l.6.7-.5 1.3zm35.6-137.6h-1.2l-2.1-1.2 1.2-4 3 3.5zm33-90.1v1l-1.4-.4.2-.7zm6.7-12.1l-.7-.2-.1-1 .5.3zm-69-.7l-1.2.2-.3-.3.1-.7 1.4-.6v1zm63.3 14.2h-.4l-.3-.3h.7zm-3.6 40.3l-2 .4-.7-1 1-.4v.5zm1.8 1.4l-.8.6-.1 1-1-.3.6-1 .8-.5zm-7.2.2l-1-.2v-.4h.9zm8.2-10.7v.3h-.9v.6l1.8-.5 2.9-3.1-1.1-.9v-1.3l.9-1.2.6-.2-.2-2 .7.2.2-.5 1.5.2.8-.5.3.7-.5.4.2 1-.5.8.4.7-.8.4v1l.8-.7.6.7-1 1.6-.8.2-1.1 1-.9.2-.8 1.3-1-.1-.3 2.3-2.2.5-.1 1.1-1.6.7-3.2 2.5-1 .3-.8.4v1h-.5l-.2.6-1-.6-.7.6v1.2l-.6.6-1.4-1.7-.8.5-.8-.9-1.2.4-.7-.7-.3-.9-.5.2-.3-.3v-1l.5-.4 2.1.4-.8-1.5.5-1.2-.2-.7.8-.9h1.1l2.6-1.6 2.4-1 1.6.6.7-.5h2l.9-.8zm0 0"/><path d="M161.7 0h279.1v-279h-279zm0 279h279.1V0h-279v81l.2-.7 1.3-3.1 2.6-2.8.1-3 3.4-6.4 4.6-6.4 5.9-4 .4 1.1-.1 2.6-2 2.8-4 8.6-.7.5-1.5 2.4-.9 2-1.1.9-1.6 2.7-1.4 5-.9 2V88l-1.1.5-.3 2-.8 1-2.2 1.8zm0 279h279.1V279h-279zm0 0"/><path d="M-117.3 558h279.1V279h-279zm0-279h279.1V93.2l-.7.8-.6 1-2.4 1.8-5.4 6-1.1 3.4v1.8l-3.1 3.4-1.5 4.7-.6.7-.4 1.1 1 1.5-.7 1.1.2 1-1.1 2-.2 2.1-1.4 2.4-.7.3v.9l-2.3 2.3-.1.9-2.7 3.6-.6.7-.2 1-3.8 2.9-1.4 3.1-.7.7-.8 3.4.5.8-3.5 5 .1.6-.9 2.8v5.7l.3.8 1.3 1 .5 1.3-2.4 1.5-1.8 3.2h-1.2l-3.4-2.7 1.8-8.8 2.4-3.8.6-2.9.5-4-.6-1.7v-.8l2.5-1.3 1.4-2.4.6-6.1 2.2-2.7 3-8.3 5.9-5.3 3.7-6.5 1.7-2.2 2.2-5 2.7-4 1.4-1.3 2.7-6L157 92l2.1-6.6 2.7-4.6V0h-279zm558 279h279V279H440.8zm0-279h279V0H440.8zm0 0"/></g><g fill="none" clip-path="url(#C)" mask="url(#B)" class="D"><g stroke-width=".8"><use xlink:href="#E" class="B"/><use xlink:href="#E" class="C"/><use xlink:href="#F" class="B"/><use xlink:href="#F" class="C"/><use xlink:href="#G" class="B"/><use xlink:href="#G" class="C"/><use xlink:href="#H" class="B"/><use xlink:href="#H" class="C"/><use xlink:href="#I" class="B"/><use xlink:href="#I" class="C"/><use xlink:href="#J" class="B"/><use xlink:href="#J" class="C"/><use xlink:href="#K" class="B"/><use xlink:href="#K" class="C"/><use xlink:href="#L" class="B"/><use xlink:href="#L" class="C"/></g><g stroke-width="2.2"><use xlink:href="#E" class="B"/><use xlink:href="#E" class="C"/><use xlink:href="#L" class="B"/><use xlink:href="#L" class="C"/><use xlink:href="#I" class="B"/><use xlink:href="#I" class="C"/><use xlink:href="#F" class="B"/><use xlink:href="#F" class="C"/><use xlink:href="#J" class="B"/><use xlink:href="#J" class="C"/><use xlink:href="#K" class="B"/><use xlink:href="#K" class="C"/><use xlink:href="#G" class="B"/><use xlink:href="#G" class="C"/><use xlink:href="#H" class="B"/><use xlink:href="#H" class="C"/></g></g><defs ><path id="E" d="M123 254.3l-5-.1h-.3l-5.4-.7-5.4-.9-5.3-1.3-.6-.1-6.7-2.2-6.5-2.7-6.2-3.2-6-3.8-2-1.3-4.2-3-1-1-5.4-4.5-5-5.1-4.6-5.5-4.1-6-.6-.9"/><path id="F" d="M81.2 46l13.7-24.3 4.7-7.4 4.5-6.3 3.8-5 4.1-4.5 4.6-4.5.2-.1 5.5-4.6 2.4-1.8 1.3-1 3-2 5-3.7 3.6-1.8"/><path id="G" d="M222.8-20.6l5.4 3.4 5.4 4 5.1 4.4 4.7 4.8 4.3 5.2 4 5.4 3.3 5.8.4.5 3.1 6.3 2.7 6.6 2 6.8 1.7 7v.6l.9 6.2.3 6.2v.4"/><path id="H" d="M237.7 136.2l-32 66.8-3 5.9-3.7 5.5"/><path id="I" d="M48.7 212l-3-5.2-.3-.6-2.7-5.7-2.3-6-1.8-6-1.4-6.4-1-6.3-.2-6.4V162l.5-6.1.3-2.6L38 146l4-18.4.4-1.7"/><path id="J" d="M42.4 126l1-4 1.6-5.5 2.2-5.3 4.4-10 .4-1.1L57.1 89l3.3-6.3L81.2 46"/><path id="K" d="M266.2 53v7.4l-.5 5.8-.7 6.1-1.4 5.7-.2.8-1.6 5.6-2 5.5-2.4 5.3-19.7 41"/><path id="L" d="M199 214.5l-4 5.5-4.5 4.9-4.8 4.7-5.2 4.4-5.5 3.7-5.2 3.4-6 3.4-5.9 3-6.5 2.4-6.4 2.1-6.8 1.2-6.7.9-6.8.3H123"/></defs></svg>