<svg xmlns="http://www.w3.org/2000/svg" viewBox="0 0 497 279"  xmlns:v="https://vecta.io/nano"><style><![CDATA[.B{fill:#add19e}.C{fill:#eee5dc}.D{fill:#cdebb0}]]></style><path fill="#f2efe9" d="M0 0h497v279H0z"/><g fill-rule="evenodd"><g class="B"><path d="M481.1 150.6l2.7 17.5 2 7.2v6.9l4.5.5 3.9-3.2 4.4 1.3.4 5.2-2 4.6 1.3 5.3 4.7 3.5 5.3 1.3.9-11.2V142l-13.6.8-14.4 3.9zM451.8 5.9l3.2 1.3 2.8-4.3-2 3.8 1.2 1.5-2.5 2 4-.4-3.8 2.2 1.7 1.9 1.7 2 1.8 3.5L462 14l.2-5.6.4 1.3-.2 4.3 1.3 1.5-1.9 3.2.2 2.8.6 3.8 2.7 3.7 1-4.8 3.7-2 1-1.6 1-1.1-4.2-2.9 4.5 1.4 1.7-1.7-4.7-3 4.3 2.1 3.1-.4-2.7-2.5h1.9l1.3-2.1-5-1.4-4.5-2 5.3 2 5 1.7 3.2.9L477 8l-1-.8-3.9-3.5-5.3-1-.1-.4.3-2.8 4.3 3.2 5.8 4.3 2.1-.2-3.3-3.8-4.5-3.5h1.6l4.2 3.8 2.6 5 3.8 2.1L482 5l3-5.1-4.8 1.7-1.5-3.6 5-1-2.7-2.1-4.1 2.8 3.5-3.2-.1-3.6-5 4-5.4.2.1-.4 5-.3 2.8-4.2-4.5 1.3 1-2.2-6 .3-3.6 4h-6.5l-2.8 4.5-2.4 4.6-1 1.8-.2 1zm0 0"/><path d="M422.4-15.3l3.1.3 3.5 1.4.3-2.5-3.2-2.9h3.5l2.2 2.5 1.2 1.9 3-.4.7 1.8 1.5-.1 1.4-.9-1.7 3.6 3.1 2.2.3.8 2.5-1.1 1-5.4 1-.1 1.1 1 1.7 1.5-3 3.3.8 2.2V-3l4-3.5-2.9 4.7 2.1 1.3 3.4-1-.4-6.1-.9-4.4 3.9.8-2.3 2.6 4-.5-3.3 3.4 1.7 2.6 5-4.5 4.4-.7 1.7-1.8 5.1-1.6 5.3.7 2.6-1.7-4.5-3-4.5-2.4-5.4-.2-4.9-.4-4 3.1 1-2.6-1.5-2.2-2.9 4 .4-2.3-1.9-.7-1 1.4 1.8-3.2-1.5-3.3-3.5 4.7 1-3.6-1.7-.2-1.3 1-.2-4.4-3.7 5.2-.4.6-1.7-3.2L438-20l-2-2.5-1.8 1 3.5-4.5-4.4 1.6.5-1.6 1.7-4.6-4.5 1.7-2 2.3 2-4.4-2.6.5-2.1 4.7-2 4.4-1.5 4.3zM483 201.6l3.8 4.4 13.4 8.8 10.8 7 3.3 1 3-2.1 1.9-2.5 2.2-1.8-.8-2 1.8-3.1-2-1.9-5.5-2-4.9-3.8-3.6-3-5.2-1.5-3.9-3.8-.5-4.7 2.2-5.6-1.8-5.6-4 3-4.6 1.8-.8 4.8-3.1 7-1.3 5zm1.3 1.3l.4-.4-.5.5zm.7-2.8v.2zm.6-2.1l.4-1.2-.3 1.6zm8.2-12l.3-.5zm.8 1.2l.2.2zm.4 9.6v.2zm.5-15.7l.8-.4-.8.7zm.9 4.1l.2.1h-.3zm.6-2.2l.3.4.2.3v.4l-.2.1v-.7zM408.2 40.3l4.2 1.7-1.4.6v2.8l.4 3 2.4.6-1 2.8 4.6-2-.1-3.3 2.2 3.2 3.6-2.6-4.6-4.1v-2l.3-.7 2.3 4.9.8-3.7-.7-5.8.5 2.7 1 5.3v2.2l4 .8 2.7-2.7-1.5-2 1.7-.9-4.5-2.7 3.5-1.2-4.8-1 4.5-.9-2.6-3.1-4.4-.9-4.1-4 3.4 2.7 4.4 1.5 1 .3 2.3 1.2.9 5.2 2 1.8 2.4 2.5 1.3-2.7L436 38l1.7 1.9-1.4 2.3 3-1.2 4.5.8-1.9-4.4-2.6-2.6-5.3-2-4.4-4-4.4-2.8-2.3-.2-1.2-3.5-1.3-.6-1.7-1.7 1.1-4.7 1-5-5 2.3-4.6 2.4 3.4 1.3.1.5-4 2.9h5.1l-5.5.8 2 2.9 5-1-1.3 1-5 1.4 4 .7-4.5.5 1.7 2-.4.5-2.2 3.4 5.2-1.3.2.3-5.5 1.5 2.7 2-1.4.8 2 2-3.4-1.3-.2 3.5-1 .8zm15.9-33.5l5.7 3 .5 1.5 4.8 2.7.8-1.7 2.3 1.7-.6 3.6 2.1 3 2.4.6.7 4.1L444 28l2 2 1.4 3.3 2.4 3.9 4.2-.3-.2-1.5-2.4-1L455 33l1-4.3-4.9-.4 3.3.7-1.4-4 1.8-1.6-6-.6-.8-1 5.7.2-3.3-4-5.8-2h1.6l5.6 2.5 3.4 4.4 2 4.6L462 26l-2.8-1.4.6-2.5-2.5-4.6L455 14l-5.7-1.7-4.8-1.1-.1-.5 5.3 1 5 1.8-3-4.1-4.2-3.4-4.5-1-2.3 1.3-2.7 1.1-3.7-.7 5.3-1.2-1.4-3.1-4-.4-3-1.3-2.5-.3-1.7-.2-1.3 3.2zm40.2 161l1.3 5.3 1.6 2.7 3.4-4.3 4.7-.8 3 4.5 1.8 5.6 2.9 3.6 4.6-.8-1.8-8-2-7.5-2-7.7-.8-9.8.7-7-6.7-.2h-8.5v6.1l-1.5 7.7-.5 5.6.5 4.6zM446.8 65.2l1.7 3 .3 2.5 2.8.9 2.4 3.2v-5.1l.9-3.3-.2 5.6.7 4.8 2-2.8.4-1.8-.6 5.2 4 .8.5-3.3 1.6 1.1 1.3-3-3-4.2-2.3-4.2 2.5 2.6 1.9 2.4.3-4.9-.4-4.2-.4-2.8-.6-6 .4 2.3 1.4 5.1.6-7.5 1.5-4.6-2.3-5.7H462l.2 2.5-1.2.8-1-1.9 1.1-5.2-.5-2-.3-5.6-1.5-1.6.7 4-3.3 1.5.8 5.5h-3l-3.4 1-3.3 3.5 3.8-.7 5.5.8-5.3-.2-.3 2.3 1 .2-3.3 3 4.8.5h1.2l-4.1 2.7 1.6 2.2-2.8 1.5 5.2.8 2.4-4.4 1.5-.3-1.5 4.3-1.5 1 .7 3.1-3.2-3.4-3.4 3-.6.4-.2 3.2 1.2 1.1-2.6-.3-.4-.2zm-38.6 1.6l2 2.1 4 2.2-1.8 1.4 3.6.5 2.9-1.6 3.1.6 3.8.5 2-.5v8.5l4.7 1.1 2.3-3.5L433 77v-3.3l-1.8-4.8.2-1.7 1.5 3.1 1.6 4.4 1.2 5.3 1.5 4.6 2 4.2 2.3 3.2 3-2.6-2.2-3.6 1 .7 2.9 1.5 1.8-2.6-1.6-2.6-2.5-3.5 2.7 2.7 3.4 1-2.8-3 2.7.7 1.8-3.2-5-1.2-2.7-.4-2.8-1.1.8 4.5-2.3-1.4-.1-4.9-2-3.1 1.1-3.4-3.9-2.2-5.3.8-4-1-.7.7-1.8 1.4v-5.4l-2.2-2.8.4 6-.7-.4-.5-5.2-1.4 3.6-.6 5.7-.5-5-1.1-1.4 2.2-3.8-1.6-.8-2.4 3.7 1.5-4.4-.5-3.1-3.3 2.1-.5 1.1-2.9-.7.6 4.6.5 3.5 3.4 2.5.1 1-3.4-2.5-1.9 1.3zm0 0"/><path d="M461.4 35.8l3.4 4 1.6 6.8 4.5-2-3.3 4.2-1.4 3.7.5 4.7h1.5l-1.3 1 2.4 2.6-2.5 1.2-1.5 2.2 1 .8 1 1.6-2.3 2.9h3l-2.5 4.7 1.8 2 3.3-2.3h2.7l-2-5.4-.4-4.3 1.4 5.4 2 .2-1.6-4.6 1.6.2 1 4v5.2l2.2-2.6-.2-4.4-.6-3.4-3.6-3.8 1.7.5 2.2.1-2-4.7-2.2-.4.6-3.6-.4-1.5-.6-4 1.1 3.2 1.5-.7 1 1.6.7 5 1.7-3.5.3-3.8V45l.9-4.2-.6-3h-4.4l1.1 1.6-.7 3.6-1-3.8-1.5 5v-4.4l.1-5.3-2.3 4.5-1.3 1.7.7-3.8 1.5-4.7-3.9-3.6.4 3.4-3.1 1.7 2 4.7-2.7-5.9-2.2-1.2-.3 4zm18-36.3l6-1 4.1-.3-.9 1.5-4.9 4 4.2 2.8 3.6-4.7 3-3.8-1.9 3.4 3.3 2.2 1.4.4 1.7-1.8 1.6 2 1.3 3.4 2.8 1 3.5 3.7 3.6 3.4 4.2.7 1-3.4 1.5-1.9 3.3-1.9.9-1 1.9-2.5.8-2-.6-2.2 3.3-3.5-2-.8-1.3-4.1-1.7 5.3-1.8 5.6-.8-.4 1.5-5.5-1.5 1-1.7 5.4-2.4 4.2-4.8 2.3-1.9-3-1-3-2.2-4.5-1.3-1.8-.2-1-2.2-5-2 2.2-1.8-.2-.6-.4-1.7.5-.1-3.8-2.1 2.5v-4.3l-1.8 5.2-.5-2.9 1.4-5.2-2.2 2.1-3.7 2.8-2.3 2.3 4 2-1.6 1-2-1.1-2.3-2 1 4.5-5.1.9zm-1.8 16.1l4.4 2.6 3-1.2 2 2.2.2 1.2 2 1.2.9 1.5 3.6 1 3.3 2.3-2.5-.5h-3.3l4.8 1.5.2 2.5-.4.9-.1 2-3-4-3.7-4-2.9-3.4 1.7 4.9 1.6 4.8 2.1 1.5-.1 1.4 2.6 2-1.6 4.7.2 5.8.2 2.6 4.7 1v-3l7.8 2.9-4.1-3.1-3.5-4 .3-.2 4.5 3.6.7-2.3-2-3.5-.7-4-1.7-.3 1.8-1.6.4-3.2 2.6-4.3V23l-3.6-.2-1-3.8-2.6-2.7-1.3 3.7-.3-6.4-1-1-3-.2-1.1 2.3V9l-1.8.7v.7l-3.7 1.5-2 1.8-2.6.5-2 1zm-59.4 37.1l3 3.7 3 3 1 2.2-.5.7 3.9 1.9 4.2-1.5 4.2 1.5 1.6.5-.3-1.7 1.8 4.2-1 4.2h4.7l2.8-.7.5-3.7-.9-3.8-2.6-1-.5-.6 2.3-2.1 3-2.4-4.8-1.1-3.8 1.8-.5-.6L443 55l4.5-1-2.9-2.7-5.6-1.7-2.4 3.4-.3 3.5-2 4 .3-4.8 1.7-4.3 4.5-2.8 4.5 1.7 1.7-2.7-3-3-3.6 1-5.2-.6-3.7-.4-.8 5.3.8 5.1-2.2-3.6-.8-3.4-4.5 1.6 1 4 3 3.1 1.6 2.6v.8l-1.9-.3-2.2-3.8-2.4-3.7-4.4-.8-.4.7zm-6.8-39.2l7-3.2 5.8-3.5.7-5.5-1.9.8-.4-2.4-.3-1-1.7-3.7 3 2.2 2.5.4.9-2.3-.7-1.7 2.1 1.6L430-3l2.4-1.8L435-.2l.8.5 4.5 1.5 1.2.4 2.9 1.7 3.8.7 2.3-2.1-3-2.4-7-4.8-2.5-2.2-1.7-1.3-3.5-1v-.4l-2.5-2.5-2 .3-3.8.6-1.2 1.2-2.5-.5-6.3 1.7-1.6 2-.5 3.8 4.2-3-4 7 .6 4.7 3.6-7.7 2.5 2.9L416 5l-3.8 4 5-2.4 1.3-1 2.6 1.1-4.2 1.3-5.5 4.1zm0 0"/><path d="M466.9 26.8l4.3 1 .6 3.9L475 35l6 4 .6 1.6 1.9 1.2-1.9 1.6 2.1 1-2.7 2 2.4 2.2 3.9 1.4-.5-1.4.2-5.1 1 1.9 1.9 4.4-.5-4.2 2.3-1.9 2-4.9-2.3-4-1.8 1.4-1.6.8-.5 2.5-2.2-.1 2-3.9 1-5.4-1.3 1.6-3 4.3.6-1.4 1.7-5 .4-4-1.2-2.6-2.9-1-2.8-3-4 .3 4.2 3.3 2.3 4.4-1 5.2-.3-2.2-.2-5-3.8-2.5 1.1 4.9-1.3-3.1-.8 5.1 3.1 4.6-4.1-4V20l-.6 2.2-2.9 2-2.6.6L467 26zM420.4 15l.2 3 1.2 3.6 3 2.8-.2-5.4 1.2 3.8 2.1 4.7 1.3-3-1.8-5.5-2-4.7 2.4 4.8 1.7 5 1.5 5.2.3-4.1.1-2.2.9 4.8 1.5 2.7 3.8 2.3 2.2 1.7 1.4.4 3.1 3.9 4-.6-2.8-5.5-2.7-4.8-2.8-2v-3.2l-4.2-3.2-.3-3.7-2.2-.8-3.8-1.4-1.5-3-2.6-1.7-4 .4-1 4.7v.2zm47.9 161.3l1.2 4.7-.2 4.6 3.4 4.5 3 2.9 7.3 9 1.7-6 3.2-5.8.8-5.2-3-1-2.5 2-.5 1.4-1.9-2.4-1.7-6.2-1.4-5.8-4-3.1-4.3 3.7-1 2.2zm2.5-1.5l.2-.3zm.4 11.2v-.4l.2.7zm.2 2.3l.2.4zm.6-15.4l1.7-1.4v.1l-1.6 1zm3 13.5l.1-.2zm.4-6l.1-.3zm0-3.6l.6.2zm.2 4.9h.3zm0-6.9h.1zm.7 14.1l.6-1.1v.2zm.2-4.6l.2.1zm.1-1.6l.9.9-.5-.4zm.7 8l4-.8-3.4.4zm1-10.2l.5-.5.4-.4-.6.9h-.2zm.7 12.5h.4l.2-.2v.2l-.3.2h-.1zm2.2-.7h.1v-.3h.2v-.4.8h-.2zM396.4 1.6l1.9 5.3 3.3-3.7-1.1 2.1 4.3-1-1.3 2-1 2-1.7 3.5 4.6-3.1-2 4.1-2.7 3.8 3.8-2.7-2 4-.5 2.3 1.4-.3-.4 3.7.3.6.2 2.2-.5 1.5 3.2.4L405 32l3.3 4.3.6-4.1.2-8-.1-3.8.8-4 .4-3.1-2.1-2.3.1-2.9 1.2-2.5.8-3.3v-2l.3-2.5-.8-3.6-5.2 1.1 1.5 1.4-1.3 3-4 1.5-4.3.2zM434.1 192l.6 1.3 3.3 4.6-.1 1.1.3 2.7 3 4.4 2-5.1 4.8-1.7 3.8 1.3-3.6-4 2.3-.9 4.2 3.6-.7-1.3.7-1.1-1.4-3.3.8-2.6-1-2.7 2.1-.8-.8-1.7-2-.8-3.6-1 .9 3.8.3 1.9-1.9 3.3.3-3.1-2.6-.3 1.7-2.2-4-.4v3l.5 3.8-1.3 1.7.3-5.2-1.9.4-1.1 3.7 1.3-5.4-2.6 1.3-.2 3.6-1.2-.9-3-1.3zm44.2-129.7l1.7 5-.7 5.2 3 .5.7-4.5v-4.4l1 4.2 1 5 2.4-4.6-1-4.9-1.3-4.3 1.3-2 .2-3.1-.3-3.7-6.5-.7 1.2 2 .2 2.2.4 2.8-.4 2.4-2 2.6zm0 0"/><path d="M458.3 184.8l7.5 4.6 15.2 17.3 4-1.2-1.9-3.5-10-11.4-5.1-4.2-6-4-1.8.3-1.6 2h-.3zm4.5 2.7h.2l-.1.2zm.8-2.4v.1zm2.6 3.3h.8l-.8.1zm5 2v.2zm.3 1.6v.5zm.5 4v.4zm0-1.1v.1zm7.8 4.1l.2.1zm.7 5.6h.3-.2zm1.1-3.6h.1zm1.1 4.7l.3.6v-.1l-.4-.3zm.3-1.2v-.2l.2-.5v-.4l.5-.2h.1l-.2.1-.2.2-.2.1v.2l-.1.4v.4h-.1zm6.8-141.7l.4 5.9 3-2.9 1.4-.5V63l1.4-.7-2-4.7.7-3.8 1 1.7.7 5.5 2.6-.6 1-1.8h2l-3.5-4.3 1-.3-7.5-4.1-1.4 4-.2 4-.4 4.1zm-129-33.5l3.2 2.9 5.7-1.3 4.5-3.3.4-5.8-.4-6-4.1 1.6-.8 3.8-1.5 3-4 2.5zm126.1 176.9l21.9 17-8.8-8.3-12-9.9zm-38.1-35.6l3.1 10.6 4.9 3 2.6-3.5-4.9-6-3.8-4h-.4zm11.6 10.7l7.6 5 1.3-.7.4-5.8-2-3.9-5.5 1.6-1.7 3.5zm2.1 1.1l1.3-1 2.8-2.9-1 .3-2.9 4zm1.8-.4l.7-.2-.3.2zm.5 1.8h.2zm.9.6l.3.1zm.3-2.8l.6-.3-.2-.3h.1l.2.5.1.1v.2h-.7zM487 57l.3 5.8.7 5.2 1 .5-.3-6.7.4-5.5.9-5.7-2.2 2.5-.8 2.6zM98.9 11.8l5.6 3 5-.8-2.5-2.8-2.3.3-1.2.3zm221 45.4l2.3 6 2.1-5.1-4.4-1zm-221-45.4l4-2-4 1.6zM451 182l5.2 3.3-2.7-1.1-1.7-2zm-163 36.4l1.1-2-1.1 1.6zM8.6 233l2.6.7-2.6-.8zm.7 1v.1zm.5.3l.2-.1v.1zm0 0"/></g><path fill="#c8d7ab" d="M94.2 2.4l4.2.2zm0 0"/><path d="M88.6 6.9v-.2zm0 0" class="C"/><path d="M200.5 39l2.5-2-2.4 1.9zm117.9 17v-.1zm0 0" class="B"/><path d="M472.7 165.8l.3-1-.2.8zm0 0" class="D"/><path d="M373 12.7v-.2zM183.2 53.4l.1-.2zm0 0" class="B"/><path d="M462.5 182.4l3.3-4.1 1-.3-3.1 4-1 .4zm0 0" class="C"/><path d="M51.9 188.8v-.3zm0 0" class="B"/><path d="M473.7 167.9l.3-.1zm0 0" class="D"/><path d="M63.7 70.5h.3zm47.5-17.3h.5zM52.3 90.4V90zm0 0" class="B"/><path d="M464.6 206l4.4-2.8-4.1 2zm.5-15h.1zm0 0" class="C"/><path d="M6.3 234v-.2zm440.3-48l1.6-1.8-1.6 1.7zm0 0" class="B"/><path d="M449.8 193.3l.9-1.6-.8 1.3zm9.2 9.2l1.8-4.3-1.6 4.1zm0 0" class="C"/><path d="M175.2 59.3h.1zm0 0" class="B"/><path d="M472 172.9l3.2-.9-3.2.6zM459.7 197v-.2zm0 0" class="C"/><path d="M450.9 181.8l.4-.3zm0 0" class="B"/><path fill="#f5e9c6" d="M37.8 154.4v-.2zm0 0"/><path d="M147.1 78v-.2zM213.9-.9l.5.5zm-11.8 39.3v-.2zM56.8 78v-.4zm0 0" class="B"/><path d="M477.3 190.8l3.1-1.2-2.9.9zm0 0" class="C"/><path d="M208.8 23.1V23zM51.1 90.5v-.1zm0 0" class="B"/><path d="M461.5 189.3v-.3zm-7.6 35.1v-.2zm12.3-36l.2.1zm-11.8 30v-.2zm6.8-23.4v-.1zm0 0" class="C"/><path d="M51.3 92.2V92zM457 184.9v-.1zm0 0" class="B"/><path d="M457.5 203v-.2zm21.1-33.1l.6 2.1-.6-2.4zm0 0" class="C"/><path d="M473.9 168.3h.1zm0 0" class="D"/><path d="M460.7 180.2v-.2zm0 0" class="B"/><path d="M476.5 184.3l.6.3zm-5.3 1.7v-.4zm14.4 12l.1-.5zm-22.9-14v-.2zm-8.3 37l.1-.1zm21.9-32v-.4zm6.7 15.5v-.2zm-17-10.3h.1zM454.1 215v-.3zm.3 7v-.5zm.6-9.2v-.1zm-.6 3.5v-.1zm41.1-35.2l.2-.4zm-.9 6.2h.2zm-54.6 10v-.1zm57-14.3l.3.4zm-25.8 7.3l.1-.3zm22.6-4.3l.2-.4zm-37.2 19.2v-.2zm4.6-1l.4.3zm0 0" class="C"/><path d="M447 63.3V63zm0 0" class="B"/><path d="M476.6 182.7l.4.1zm-1.6 3.7v-.1zm-4.2-11.5v-.4zM448 197l.3-.2zm24-2.2l.2-.4zm13 5.2l.2-.2zm0 0" class="C"/><path d="M459.8 181l.4.4zm0 0" class="B"/><path d="M481.2 192.3h.1zm0 0" class="C"/><path d="M485.3 1.3V1zm0 0" class="B"/><path d="M484.2 203l.2-.4zm-20.7 5.7l.1-.2zm3.3-10.5h.1zm15.9 7.5l.1-.3zm0 0" class="C"/><path d="M1 229.4v-.1zm0 0" class="D"/><path d="M471.5 192v-.2zm-.1-3.7l.2.4v-.8zm0 0" class="C"/><path d="M453.4 182.4h.1zm0 0" class="B"/><path d="M475.6 181.7h.2zM472 196v-.2zm0 0" class="C"/><path d="M463.9 176.8v-.1zm0 0" class="B"/><path d="M479 193h.2zm-40.6 8.9v-.1zm0 0" class="C"/><path d="M456.2 184.6h.1zm0 0" class="B"/><path d="M448.5 198.4h.1zm-6.8-1.4v.2-.6.1zm25.5 2.3v-.1zm3.4-24.1l.1-.1zm-16.1 39.2v-.1zm9.8-7h.1zm0 0" class="C"/><path d="M458 186v-.2zm0 0" class="B"/><path d="M475.4 180.3l.3-.3zm-36.1 20v.6-.5zm41.2 4.3h.2zm-4.9-29.8l.1-.1zm-13.7 24.8v-.1zm-15.8-1.3l.2-.1zm50.3-13.1h.1zm-24.9-17.4l.1.1zm11.4 39.8v-.1zm0 0" class="C"/><g fill="#aad3df"><path d="M161.4 905.2l.2.3.3-.1v-.4l.3-.1.2-.3.3-.3.3-.3.8-.5.5-.9.4-.4.3-.2h.1l.7-.6h.2l.4-.1.6-.3h.2v-.2l.1-.2v-.6l-.6-.2-.4-.4h-.3l-.5-.3-.5-.4-.5-.7-.2-.8v-1.4l.2-.3.2-.3.2-.2h.4l.7.2.2.2v.1h.2v.3h.1l.3.2h.4l.5.5.4.3.4.5.3.3.2.2.2.2.2.1.6.2h.3l.3-.5.2-.2.2-.2v-.6l-.1-.3v-1.2l-.2-.6-.4-1.2v-1l.3-1 .4-1.1.4-.4.2-.2.2-.2.2-.1h.6l.4-.3h.2l.2-.1.2.2.4.3.4.8 1.6 2.2.2.1.6.3h1.5l.8-.4h.4v-.2h.2l.1-.3.2-.5.4-.8v-1.2l-.2-.3-.2-.3v-.3l-.2-.7-.2-.6-.2-.7v-1l.1-.2.1-.2.2-.1.9-.6.5-.3.4-.3h.4l1-.3h.6l1-.3h1.4l.2.2h.8l.2-.3.2-.3.3-.3.2-.4.6-.8v-.2h.4v-.5l.1-.3v-1l.2-1.1v-.4l.2-.5-.3-1-.2-.6v-.3h.1v-2.2l.1-.2.1-.2h.2l.1-.2h.6l.9.8.4.3.6.1.2.5.8.8.5.2.4.3h.8l.4-.2h.4l.9-.5 1-.5.3-.2.3-.1v-.1h.2l.1-.2.4-.2v-.2l.1-.4v-.4l-.1-.9-.3-.7-.4-.3-.2-.3-.7-.1-.3-.3-1.5-.9-.7-.3-.3-.4-.2-.3V867l-.1-.9v-.5l.3-.6v-.5l-.2-.2v-.4l.3-.1v-.1l.1-.1h.5v-.2h.8v.3l.5.1.1.2h.1l.3.2.2.1v.1l.1.2.4.4.2.4 2.9 2.8.1.2.3.3h.8l.7.1 1.5.4.4.1h.7l.5-.1.5-.2.4-.2.5-.4.2-.2.2-.5.6-.7.8-.4h.2l.3.3.3.3v.6l.3.5v.7l.1.3.1.2.2.1h1.2l.2-.3.3-.3.1-.5.2-1.1.3-.7.4-.7 1-1.4.1-.6.2-.4.3-.3.4-.3.3-.1.2-.1h.5l.2.2.2.1.3.4.3.2.4.7.4.4.2.1h1l.3-.2.3-.3.3-.2.3-.2.2-.2.5-.8.1-1 .3-1v-.5l.2-.3.1-.2.4-.4v-.2h.3l.1-.4.3-.4.3-.4v-.5l.1-1 .2-.3.1-.4h.1l.2-.3.3-.1h.1l.4-.2h.5l1-.4h.5l.1.3h.7l.2-.3.2-.2.3-.5.3-.5.5-.3 1-.7.2-.2.4-.6.6-.4.3-.4.5-.2h.9l.9.2.6.3.2.1v.1l.4.1h.2l.6-.2.7-.2.4-.2.9-.8.1-.1h.6l.2.4.2.3.4.7.2.4v1.3l-.2.3v.8l.2 1 .1.5.1.3.1.4v1.7l.1.2.3.4h2.9l.1-.3.3-.2 1-.9 1-.6.3-.2h.4l.4-.2.4-.2h.2l.1-.2v-1.3l-.1-.5-.3-.3-.3-.2-.2-.1H244l-.2-.2-.1-.2v-.3l.1-.5.2-.7.2-.3.2-.3.6-.3.4-.4.4-.2h1.6l.4.3.2.3 1.1.7.7.7.7.2.3.1h.2l.3-.1.5-.3.8-.3 1.2-.6.7-.4.8-.2h1.7l.7-.1 1.3.3h.4v.2h1.1l.3-.2.8-.3.8-.4.3.2h.3l.2-.2h.1v-.2l.3-.1.9-.3h.4l.3-.2.6-.3.2-.2v-.1h.2l.3-.2h.5l.2.2h.4l.2-.3.2-.6.2-.9v-.1l-.9-1.4v-.4l-.4-.9-.9-1.3-.4-.5-.3-.4-.5-.8v-.3l-.3-.7-.3-.5-.1-.2h-.1l-.2-.2h-1.1l-.2-.1-.1-.1-.2-.4-.2-.2V837l.1-.2.3-.4.1-.2.3-.1.2-.1.6-.2h.2l.3.2h.7l.4-.5.5-.2.4-.2v-.2l.3-.3v-.2l-.3-.2-.2-.2v-.2l-.1-.3v-.6l.2-.2v-.2h.2l.1-.4.4-.1.3-.5v-.2l.1-.5.2-1.4.2-.4.1-.2.2-.2h.3l.5-.3h2.4l.3-.3v-.7l-.2-1.5v-.3l-.3-.3-.3-.2-.3-.2-.6-.2-.6-.3-1-.6h-.4l-.6-.2-.3-.2h-.1l-.3-.3-.1-.4-.3-.3-.5-.3-.4-.2-.5-.3-.5-.1h-1l-.4-.1-.3-.1-.3-.3v-.2l-.3-.2v-.8l-.4-.7v-1.3l.2-1.6.2-.8v-.8l.3-.5.3-1v-.5l-.3-.5v-.5l-.4-.2-.5-.7-.3-.6-.8-.6-.1-.3v-.3l-.2-.2v-.6l.3-.3.1-.3.1-.1.2-.2h.4l.4.3h.2l1 .3.5.3.6.2h.4l.1-.2.6-.7.3-.3.1-.5v-.5l-.2-1-.1-.4-.2-.4-.3-.5-.4-.4-.2-.3v-1.6l.2-.7.2-.4v-.4l.3-.4.1-.5h.2l.4-.4.3-.3.3-.1.3-.2h.1l1.7-.4h.6l2-.4h.5v-.3h.2v-.3h.3l.3-.2.1-.2.3-.4v-.2l.2-1.1-.3-1.2v-.3l-.2-.5-.3-.5h-.2l-.2-.3-.4-.2-.6-.6-.3-.2-.1-.2h-.4l-.2-.1h-.6l-.1-.1h-1.4v-.2l-.3-.1v-.1l-.2-.1-.1-.3-.1-.1v-.3h-.2v-.7l.2-.2v-.2h.3v-.2h.3v-.1l.7-.2.1-.1h.2v-.2h.1l.1-.1.3-.1.2-.1.1-.7.2-.3.2-.6.1-.2.2-.1h.6l.3-.5h.1l.1-.3v-.7l.1-.9.5-2.3V778l-.2-.5-.3-1.7v-.9l.2-.2.6-.5.5-.4v-.1l.2-.3v-.7l.2-1.2v-1.2l.2-1 .2-1.9v-.4l.4-.5.3-.4.6-.7.5-.3.6-1.1 1.1-1.6.5-1.2.4-.8V759l-.3-1.1-.2-.9-.5-.7-.3-.3-.4-.2-.8-.3h-.7l-.5.2-.1.2-.2.4h-.1l-.3.2-1.4.4-.6.1-1.6.4h-1.7l-.4-.2-.3-.2-.2-.3v-.7l-.3-1v-.7l.5-1 .1-.5.5-1.2.4-.6.6-.6.4-.4.4-.5V748l-.1-.7v-.6l.1-.4.2-.4v-1.5l-.3-.6-.5-.6-.7-.7-.6-.3-.8-.2h-1l-2.1-.2h-1.3l-.4-.1-.4-.2-.2-.2-.2-.2v-.9h.3v-.2h2.5l.1.4h1.3l.1-.2.4-.2.1-.4.2-.4.7-1.3.3-.5v-1.5l-.4-.9-.4-.4-.5-.2-.3-.1h-.2l-.2-.3h-.1l-.2-.1-.4-.4v-.3h-.2v-.2h.6-1.4l-.5.2h-1.1l-.7.2-.7.2h-.6l-.7-.4-1.2-.6-.5-.4-.3-.7-.2-.8v-2.9l.3-.8.2-.4.3-.3.4-.2.7-.1.6-.2h1l1.2-.6h.3l.4-.3.4-.6.2-.2.1-.2.2-.2.3-.3.3-.2.6-.3.6-.3h1.9l.2-.4h.3v-.5h.1l.1-.3h.4l.3-.3v-.8l.1-.5v-2l-.2-.8-.5-1.5-.5-.6-.6-.5-.7-.2-.6-.4-1.2-.5-1-.3-.2-.3v-.3l-.3-.6-.5-1.3v-.8l.1-.5.2-.2.5-.3 2.6-1 2-.3.6-.3.6-.5.4-.2.2-.2h.1l.1-.2v-2.5l-.4-1-.2-1v-.9l.2-.6.3-.8-.5-2-.2-.5-.2-1.1-.7-.1h-.9l.2-.5h.3v-.3l-.2-.3-.1-.2-.9-.1h-.5l-1.3.2h-.2l-.4.2-.9.2-.2.1-.3.2v.4l-.3.3v.5l-.3.5-.1.5-.3.4-.5.6-.3.3-.4.2h-.4l-.3-.2-.2-.3-.3-.3-.2-.4-.2-.8-.4-1.1-.2-.6v-.8l.2-.2v-.8l-.2-.2-.5-.3-.5-.2-1.3-.1-.5-.2h-.3l-.4-.2h-.6l-.8-.1h-2.2l-.4-.2-.3-.3-.2-.3-.1-.4-.2-.4v-1.6l.3-1 .2-1v-.9l.1-.9.2-.5.2-.4-.1-.7-.3-.3-.2-.2H248l-.8.2h-.4l-.5-.3-.6-.2-.5-.5-.2-.3-.1-.3v-.4l.4-.2.4-.7.3-.4.2-.7.2-.2v-.2l-.2-.7-.5-.4-.3-.4-.7-.6-.2-.3-.8-1-.4-.2-.5-.2-1-.8-1-.4v-.3l-.4-.3h-.3l-.4-.2h-.8l-.4-.3-.1-.3-.8-.5v-.7l-.2-.4-.1-.2-.3-.9-.2-.4-.2-.5-.3-.5-.3-.1-.3-.5-.4-.2-.4-.3-.2-.2v-.3l-.2-.3v-1.3l.2.1v.1h.3v-.3l.3-.1v-.3l-.3-.1-.4-.3-.2-.2-.1-.2-.3-.2-.3-.4-.2-.1-.2-.1-.1-.2-.5-.9-1.4-2.5v-.6l-.3-.4-.7-.8-.5-.4-.4-.7-.2-.9v-.2l-.4-.7.2-.7v-2l-.5-.5-.5-.3-.6-.5-1-.3-1.4-.4-.5-.4-.3-.3-.2-.4v-1.9l.3-.6.1-.1.4-.2.3-.2.2-.1.2-.3.1-.3v-1.1l-.2-.3v-.2h.4v-.4l.2-.4-.3-.4-.2-.3-.5-.7-.8-.7-.6-.5-.2-.2-.3-.8-.1-.6v-1.3l-.1-.4-.2-.7v-.3l.1-.4.3-.5.2-.4v-.3l-.1-.3v-.1l-.3-.5-.3-.4-.4-1v-1.5l-.2-1.5-.3-.8-.2-.4v-1.9l-.3-1.4.2-.9-.2-.8-.1-.6-.4-.4-.4-.8-.3-.2-.3-.3-1.3-1.5-.4-.5-.6-.5-1.1-.5-.5-.4-.4-.3-.1-.3-.4-.6-.2-.7-.4-.4-.5-1-.3-.3-.3-1.1-.2-.4v-.4l-.2-.2h-.1l-.5-.2-.2-.2-.2-.5v-.5l.2-.2v-1.3l-.4-.7-.3-.2-.7-.5-.6-.3-1.6-.5-.4-.1-.1-.4-.2-.3v-.3l.1-.9v-.3l-.2-.8.1-.4.3-.4.2-.2h2.4l.4-.3.3-.1.4-.3.6-.8.4-.7.5-.4v-.5l-.5-.4-.2-.4-2.5-1.9-.1-.2-.1-.3v-.4l-.1-.3-.2-.4-.3-.2-1.6-1.1-.5-.4-.1-.1v-.5l.2-.3.2-.2.3-.1.5-.2h.3l.4-.4.5-.1.2-.8v-.7l-.2-.3-.2-.2-.2-.2h-.2l-.1-.2H206l-.2-.2-1.1-.9-.3-.1-.2-.6-.2-.3v-.5l.5-.3.2-.4 1-1 .4-.1v-.3l.4-.2.3-.3.2-.1h2.5l.5-.1v-.9l-.3-1-.1-.8v-.2l.1-.3 1-.9.1-.4.5-.7v-.5l.1-.4.1-.5v-.6l-.2-1v-.4l.1-.4.3-.3.7-1 .2-.1v-.4l.2-.7v-.1l.2-.4.2-.3.3-.2h.8l.5.2.5.3.7.2h.5l1-.2.5-.2.4-.3.3-.2.8-.2.4-.3.8-.5.3-.2.9-.5 1.5-1.1.6-.2 1.3-.5h.6l.6-.5.5-.4 1-.4 1.2-.3 1.1-.2h1l.7-.2h3.8l.7-.1 1.8-.6.4-.3h.6l.2.2.5.2.2.4v.7l-.1.4-.5 1.1-.1.5v.5l.1.4.4.3.5.3.3.1h1.8l1.6.2 1.3.7h2.7l1-.3 2.2-1h.6l1.5.3 1.1.4h.8l2-.4.3-.3.5-.2.2-.2.2-.5v-1l-.3-1-.2-1.2-.2-.8v-2.2l.4-.7v-.5l-.3-.8-1.1-1.5v-.7l.1-.4h.4l.6-.4h.4l.7.4 1.2.3h.3l.6.2.4-.2.5-.4.3-.2.2-.5.2-.6v-.9l-.2-.7-.1-.5-.3-.3-.8-.8-.1-.1v-.3l-1.5-1.1-.1-.6-.1-.3v-.7l.6-2.3.8-2 .2-.5.2-.2.2-.3h1l.7-.5.7-.3.4-.6.5-.4.1-.4.2-.3.2-.8.2-.7v-1.8l.3-.8.1-1V533l-.2-1.4.5-4.5.1-.5.2-.5.4-.5.6-1 .2-.4.2-.6v-.3l-.6-1.7v-.4l.3-.4.2-.3.3-.2.4-.3h.4l1.7-.4h.3l.4-.4.3-.2.3-.5.2-.2h.2l.3-.3.3-.2.2-.4.6-1.3 1.8-3.1 1-1.5.4-.5.8-.6 1.3-.7.5-.5.3-.4.2-.4v-.7l-.3-.7-.5-.8-.3-.5v-.7l.1-.2.2-.1.3-.1v-.1l.4-.3V503l.8-1.8.2-.5.3-.4.3-.7v-1.8l.2-.5.2-1v-.3h.1v-.3l.2-.6-.3-1.7v-.7l-.4-1-.6-.7-1.2-1.5-.2-.5v-.9l.5-.7.5-.5h.2l1.1-.4.6-.2.5-.3.6-.8.4-.5v-1.2l-.3-2v-1.3l-.3-1.1v-.4l.4-.7v-1l.2-.6.2-.6v-1.1l-.2-.7-.3-2.7v-.4l-.6-.4-.4-.5-.4-.1-.4-.1h-.7l-.9.2h-.3l-.4-.4-.3-.2-.3-.7v-.8l.7-1.9.3-.7.6-.7.1-.2.5-2.3v-1.8l-.6-1.6v-1.2l.8-2.3.2-1.2v-1l-.2-1.9-.4-1.3-.5-.7-.4-.6-2.1-.8-.6-.4-.2-.3v-.4l-.5-1.1.1-1.5.2-1 .1-.6.4-1 .7-1.4 1-2.5V436l.3-.6.7-2 .6-1.4.2-.3v-.7l.2-1.3.3-1v-.9l-.2-.8-.5-.7-.5-.9-.2-.8-.5-1-.6-.6-.2-.6-.2-.4v-.7l-.6-.9-.2-.7-1.2-1.7-.7-1.2-.3-.6v-.9l.4-.7.1-.8.3-.6v-1.8l-.4-.6-.5-.5-1.1-1-.7-.6-.5-.9-.3-.5-.1-.6-.3-.7-.8-1.1-.2-.5-.5-1v-3.6l.2-.4.3-1.6v-1.5l-.5-.3-.3-.7-.8-1-1-1.3-.9-.8-.2-.6-.2-.6-.5-2 .1-.6.3-3 .2-.7v-.9l.3-.8v-1.6l-.3-.6-.2-.5-.6-.6-.8-1.8-.3-.9-.1-.7v-.6l.1-.7.3-1 .2-1 .1-1v-1l.4-2.9V367l-.3-2v-2l.3-.5.2-.5.5-.6.5-.3.2-.1.8-.5.6-.5.3-.3.3-.4.2-.3.2-.4.2-.7.2-.6-.1-.4v-.5l.3-.4.2-1 .2-.6v-.8l.1-1.3v-.8l-.3-.6v-1.3l.1-.3.3-.3.2-.5v-.5l-.2-1-.4-.3-.2-.6v-.5l.2-5.6-.2-1.2-.2-1.7-.5-1-.5-1.2-.3-.9-3.1-4.6-.7-.8-.2-.6-.5-2-1.2-1.2-.4-.6-.4-.7-1.6-2.3-.8-1-.4-.8v-2.2l-.4-1.2-.4-1.9-.8-3.1-.3-.8-.8-2-.3-.4-.2-1.1v-1.1l.3-.7.5-1.2.7-1.4v-1l.1-.5.6-2.4.2-.8v-.5l-.3-.3-.5-.7-.6-.9-.4-.6v-.9l-.1-.5-.5-.8-.8-.9-.4-.7-.3-.8v-1.2l.3-.4.7-.7 1-1 .5-.7.3-.5.5-1 .4-.8.6-.5.6-.6.7-.4.5-.3 1-.5 1.2-.8.2-.2.2-.4.3-1 .3-.6v-.4l.4-.8v-2.4l.2-.6.3-1.2.1-1 .2-1.7v-.5l.4-.5.2-.5.5-.3.6-.6.3-.5.3-.7.3-1 .4-.9.3-.6.3-.4.5-.4.9-.6.4-.5.4-.5 1-1.8 1.3-1.2.7-.4.6-.4 2.8-1.2.6-.3.3-.5.4-.5.3-.6.2-.6.1-.8v-1.6l-.3-1v-1.1l.2-1.3.3-2.4V243l.3-.6.1-1.4.3-.8.2-.6.4-.6.4-.6.3-.4.5-.2.3-.4 1.2-.7.5-.2 1.6-.3.8-.2.6-.1h1l1.2-.2.6-.2.2-.2.5-.3.3-.4.4-.7.2-.3.2-.4.4-.2.3-.4.3-.6.2-.6.2-.8v-1.5l-.1-.7-.2-.4-.5-1.2-.2-.6-.3-1.7-.3-1.1-.4-1-.3-.7-.6-1.9-.3-.6-.3-.6-.2-1-.6-1.6-.2-.6-.5-1.7-.2-.5-.6-1-.3-.7v-1l.3-.7v-.4l-.1-.5-.4-.6-.6-1-.6-.7-1.3-.9-1.4-.7-2-.5-.4-.2-.4-.3v-.2l-.4-.4-1-2.1-.3-.8-1-3v-.9l.2-.2v-1.1h-.3l-.1-.3h-.5l-.5-.3-.1-.4-.6-.5-.6-.4-1.8-.6-.4-.5-1-1.9-.7-1-.9-.6-.7-.4-1.5-.3-1.1-.1-1.4-.1h-4l-.5-.2-2.3-.5H257l-.2-.2-.1-.2-1-.8-.4-.2-.9-.2h-2.2l-1.2.2-.6.1h-.5v-.1l-.9-.8-1.4-.8-.7-.2-.6-.2h-1l-1.1.2-.8.4-.8.4-1.3 1.2-.8.4-.7.3-.7.3-1.1.3-1.4.7-.1.2-.7.6-1 1.2-1.1.6-1.1.7-.3.7-1.1 1.6-.8.7-2.4 1.5-2 1.5-1.4.5-.6.2-.8.4-2.6 1.8-1.1.4h-2l-1.3-.8-1-.7-1.8-2-1.2-1.9-.5-.7-.7-.5-.7-.5-.9-.5-.7-.6-.7-.7v-1.8l.7-.9h.1l.5-.7h.1l.3-.3h.3l.4-.4.4-.6h.2l1-1.1.7-.8.5-.1.1-.3h.2l.1-.2h.4l.4-.3h.3l.8-.5.8-.4.7-.1h.1l.9-.2h.3v-.2h2.5l.2-.1h.4l.1-.1h.1l.5-.2h.7l2.2-1.5v-.1l.5-.5h.1l.3-.3h.3l.3-.6.3-.3 1-1.4v-.1h.2v-.2l.2-.4.4-.4v-.5l.4-.5 1-1.3 1.4-1.2.5-.3v-.2h.3v-.6l.2-.2v-.8l.2-.2.4-.6.5-.5v-.1l.1-.2.5-.6.3-.3h.3l-.2-.2.2-.1h.1l.2-.2h.2l.1-.1v-.1l.5-.4.3-.6.4-.4.2-.4.4-.6v-.1l.3-.4.1-.1.5-1 .3-.6.1-.3v-.5l.2-.4.2-.6.2-.4v-.1l.3-.2.3-.3h.1l.8-.4h.3l1.5-1.2 1-.9.4-.4.3-.3v-.5l.3-.7.2-.4v-2.9l-.2-.4v-.7l.2-.2.2-.5.4-.5 1.6-1.2v-.2l.3-.2.1-.5h.1l.1-.3.2-.4v-.4l.2-.3v-2.1l.2-.4.2-.7.7-.7.4-.3.8-.4.5-.3.5-.4.8-.7.2-.3h.2l.3-.1 1.4-.8 1-1 1.7-1.4.9-1.6v-.4l.7-1v-.4l.8-1.8.2-.7.8-1.4.2-.5.2-.2v-.3l.6-.9v-.4l.2-.3.2-.8.3-.7v-1.5l-.1-.8-.1-.6-.5-1.2-1-1.7-.2-.8-.1-.3-.3-.3-.8-.7-1.5-1-.4-.4-.3-.6-.1-.6v-1.3l.1-.4.3-.8.3-.4.5-.5 1.5-1.3 1.5-1.3.1-.2.4-.4.3-.5.1-.4.1-.4v-.6l.3-.7v-.5l-.3-.2-.1-.5-.6-.7-.4-.3-1-.7-1.1-.8-.5-.4-.4-.4-.4-.9v-1.4l.1-.4.5-.4.5-.2.9-.4 1.4-.7.6-.6.3-.4.3-.7.2-.8.2-.6v-1.9l-.3-.7-.6-.6-.7-.3-.6-.2-.3-.3-.1-.2-.4-.4-.3-.6-.4-1.3-1.6-1.7-.7-1.2-.6-.5-2.5-2.4-.5-.6-1-1-.7-.4h-.1l-1.1-1.5-.2-.2v-.1l-.3-.2v-.1l-.4-1-.4-1-.2-.3-.7-1.4V74h-.1l-.3-.4v-.2l-.1-.2-.4-.5-1.1-1.7-.5-1-.7-1v-.2l-.6-1v-.3l-.1-.3-.2-.5v-.3l-.4-.9-1-1.4-.8-.8-.6-1.1-.2-.5-.2-.5v-.8l-.3-.9-.2-.8-.5-.7-.7-.6-1.3-.7-.3-.4-.2-.5-.5-.3-.6-.5-.8-.4-1.6-.4-1-.2-2-.5-3-.8-.5-.2-.7-.5-.3-.5-.4-1-.6-.6-.4-.8-.2-.4-.4-1.8-.1-1.6v-2.1l.3-.7v-.6l.2-.9v-4.2l-.6-2.8v-1l.4-1.2.1-1.2.1-.8.3-.9.3-.7 1-1.5 1.5-2.5.6-.4 1-1.4.5-1.1.9-1.2.2-1.3.2-1.8v-.6l-.4-.4-1.2-1.3-.4-.7-1.1-4-.1-1V7.8l-.4-.5-.3-1.7-.8-2.1-1.6-3.4-.7-1.6-.5-.8-2-2.7-.4-.7-1-1.3-.5-.8-1-.9-.6-.6-.3-.7-.4-1-.3-.7-.4-.5-2.5-2.3-1.5-1.2-1.5-1.3-1.4-.8h-.5l-.9-.5-.7-.4-1-.5-1.2-.4-1.4-.2H200l-2 .5-1 .1-2.4 1.2-1.2.7-.6.8-.2.2-.6.2-.5.6-.5.9-.3.6-.8 2.6v3.2l-.1.7v.1l-.1.1-.2.6-.1.2-.1.2-.1.2-.4.7-.5.4-.3.2-.2.1-.4.3h-.5l-.8.1H185l-.7.3h-1.7l-.3-.3-.4-.1v.1h-.4l-.2-.3-.5-.4-.2-.2-.3-.6v-.1l-.3-.7-.2-1v-.6l-.3-.6V-11l.2-.3v-.3l.1-.5.3-.9-.1-.5v-.1l.4-.7v-.2l.3-.4h.1l.3-.4.2-.4v-.3l.2-.5V-18l-.1-.4v-.6h-.2v-.8l-.5-1.9-.3-.8v-.5l-1.3-3-.1-.4v-.9l-.6.5-.7.4.3 1.5.2.8v1.7h-.2l-.2 1.4-.1.2-.2.6v.1l-.1.6v2.5l.1.2v.3h.2v1.1l.3.1v.7h.1v.5l.1.1v1.9l-.2.3v3l.3.1v1.3l.2.2.2.9.3.3.6 1.4 1.3 1.8.7.9.1-.1h.1l1.3.8.9.2h.4l.8-.3.2-.1.6-.4.9-.5h.1l.2-.3.6-.2.2-.2.6-.3.9-.9v-.1l.5-.4.2-.3.2-.1v-.2l.3-.5v-1l.2-.7v-3.7h.1v-.3l.2-1 .2-.8.3-.7.5-.8.5-.4h.8l2-.2h.9l2-.7.6-.3h2.1l.5-.5.5-.1.3-.4.3-.3.4-.3.5-.4h1.4l.7.4 1.3.5 1.2.6 1.2.4 1.9 1.2 3.3 3.1.4.8 1 1.7.6 1 2 1.9 1.6 2.5 2 2.9 1 1.9.2.7.6.4 1 2.7.7 1.7.6 2.4.8 4.4v.6l.7 1.4.3.7.7.7.6.5.1.4v1.6l-.5 1-.5 1.2-.6.8-.7.9-1 1.6-1.5 1.8-.9 1.5-.5 1-.2.9-.1 1.2v.5l-.5 2v2.3l.5 1.9v4l-.4 1.4v2.8l.2 1.7.4 1.7.2.8.6.9.3.3.7 1.1.7.9.5.4 1 .3.6.2 1.6.5 2.2.3 2.4.4.6.4.5.3.6.7.3.4v.6l.2.8.3.6 1 .6.7 1 .5.6.5.5.1.3 1 1.8L242 66l.3 1 .3.3.4 1.4.7 1.6h.1l.8 1.4 1 1.5.3.1.5 1.3 1 1.4.7 2.1.9 1 .1.2 1.3 1.4.4.4 1.5 1.5h.1l1.1 1.2L255 85v.1l.3.4.5.5.4.5.5.7.3.6.4.4.3.6.3.9.6.8.4.5.4.3.6.2h.3l.5.4.4.4v.3l.2.3v.6l-.4.6-.3.9-.4.9-.5.5-.5.4-2.1 1.2-.4.3-.7.5-.1.5-.1.7v.3l.3.6.1.6.3.5.2.2.4.6.5.2 1.6 1 .7.4.5.6.3.6v1.2l-.1.5-.2.5-.5.7-.5.7-1 .9-1 .9-.5.3-.7.7-.3.6-.4.7-.1.6-.2.6v1.1l.1.5.1.2.2.5h.1v.2h.2l.7.9.7.4.6.4.9.7.3.5v.3l.4.8.4.5.3.8.5 1.5v2.2l-.6 1.5-.6 1.3-.6 1-.4.9-.2.5-.6 1.4-.5 1.1-.5 1.5-.8 1.1-.4.7-.6.7-1 1-.9.3-1.3.9-1.1 1.1h-.2v.2l-1.4.7-.1.1h-.1l-.5.3-.4.5-.3.2-.1.2-.2.5h-.1l-.3.9-.1.7v1.7l-.1.5-.6 1-.2.2-.3.4h-.1l-.6.4v.2h-.2v.1l-.5.5-.1.4-.2.2h-.1l-.2.3v.2l-.1.6v.4l.3 1.5v1.4l-.2.6-.4.8-.1.3-.5.4-.7.7-.2.1-1 .6-.5.5-1 .7-.6.6-.4.2-.1.1v.1l-.2.4-.6 2v.1l-.4.7-.7 1-.2.3-.4.5v.4h-.1l-.6.6-.2.3h-.5l-.5.9-.7.4v.1l-.3.5-.8.9h-.2l-.8.4-.6.3-.1.1-.2.2-.1.6-.4.8-.3 1-.1.3-.5.9-.7.6-1 2.3-1 1.1v.3l-1 .7-.2.2-.4.3-.6.4-.1.1h-.2l-.6.6-1.1.2-.1.2h-.3l-1 .3h-1.8l-.8.2h-.5l-.9.2h-.2l-.5.4-.4.2-.6.2v.3h-.5v-.2h-.1v.1h-.1v.1h-.2l-.8.5-.6.3-.2.1-.6.6-.4.3v.1l-.7.7-.2.3-.5.6-1.4 1.3-.7 1v.1l-.4.6-.1.5v1.2l.2.4.5.6.7.6 1.8 1 .9.9.5.7.6 1.1.5 1 1.1.7 1.3 1.3.6.4.8.3.5.4.6.2h1.8l1-.3.4-.3 1-.5 1.3-1 .7-.2.4-.2 1.2-.3.4-.2.8-.7 2.5-2 1.7-.9.7-.6.6-.9.7-.7.6-.5 1.1-.8 1.3-.5.7-.4 1-.5.3-.2 1.5-.6.3-.2.2-.4.3-.4.2-.4.4-.6.8-.7 1-.9 1.2-.6.9-.2.6-.1 1 .2 1 .3 1.2.6.6.3.8.5.3.2h.4l.7-.2h1.7l.4.1 1.4 1 1 .5.5.4.1.1 1.1.3 1 .2 1.4.2 1.8.1 1 .2h1.2l.3-.3.5-.2.6-.2h.8l1.3-.2.9.2 1.1.2.7.2.5.3.7 1 .5.6 1.1 1.3.3.6.6.5 1.1.5h.8l.4.5.2.5.1 1.3.1.9.4.8 1 1.5.4 1.1 1.4 2.7.8 1.2.5.5.7.3 1.4.3.8.4 1 .3.4.3 1.1 1.2.7.6.1.4v4l.2.6.4.7.7.9.4 1.3v.1l-.2.4-.3.4-.3.3-.1.5-.2.3v.4l.1.3.2.3.3.3.4.4h.7l.3-.3h.5l.2.4v.4l.6 1.3.4 1.5.4.9v1l.1.4.4 1.1.5 1.3.3.7v1.5l-.4 1.2-.1.7-.8.9-.4.8-.4.5-.5.4-.2.2H288l-.5.4-2 .4-1.1.2-.8.4-.6.4-1.3 1-.3.8-.6.7-.3.8-.2.7-.2 1-.3 1.5v3.4l-.3 2.3v1.9l.2 1.6v1.9l-.4.6-.1.4-.3.3-.3.4-1.4.7-2.4 1-.4.3-.4.3-1.4 1.3-.3.4-.3 1-.5.8-.5.4-.3.3-.5.5-.6.4-.4.3-.2.4-.7 1.6-.2 1-.3.5-.2.4-.3.2-.9.7-.3.3-.3.7-.2.8-.1 1.9-.1.6-.5 2v2.1l-.4 1.1-.3 1-.2.5-.4.6-.4.5-.4.2-.4.3-1 .3-.5.3-.9.6-.6.5-.4.7-.5.5-.5 1.6-.5.6-1.7 1.6-.6.7-.2.5v.9l.4.8.3.6.3.7.8.7.2.3v.3l.3.3v.8l.2.4v.2l.1.3.2.4.8.9.3.4v1l-.2 1-.4 1.7v1.1l-.8 1.3-.6 1.6-.2.7-.2.6v.8l.3.8.8 1.9.5 1.4.9 3.1.4 2.4.3 1v.6l-.1 1 .1.6.1.4.4.5 1 1.5.8.8 1 1.4.3 1.4.4.8.2.6.3.5 1.5 2 2.4 3.3.7 1 .2.3.8 1.9.2.9.3.9.2 1.4.1 1.3-.2 4.5v2l-.4.8v.5l.3.5v.4l.3 1 .1.4.3.8v3.2l-.4.9-.1.5v1.6l-.5.9-.2.5-.3.4-.6.6-1.4.8-.7.7-.3.5-.5.7-.1.4v1.1l.1 1.6.2 1.5v1.5l-.2.6-.1 1.5v1.2l-.2 1.9-.2.5-.2.6-.1.7v1.1l.3.5v.3l.2.4.7 1.5.4.6.3.4.2.4v3.3l-.6 1.7v2.5l-.2.2v.5l-.3.8v.4l.3.1-.3.7v.5l.3.3h.4l.5.2 2.3 2.5 1.1 1.6.2.4v1.1l-.5 1.5-.1 1.7-.1.6v.4l.2.9.3 1.2.5 1.9v.2l.1.3.2.2h.4l.1.2.1.1.3.5.5 1 .8 1 1.2 1 .5.5.2.4.3.5v.7l-.3 1-.3 1.2-.2.2-.2.8.1.4.2.6 1.8 2.8.2.6.3.5.2.5.5 1.7.2.7.2.1.3.1.1.3.3.6.4 1 .8 1.3.1.4.1.5v.5l-.3.9v1.2l-.1 1v.1l-.3.5-.5 1.1-.2.8-.5 1.3v.5l-.1.7-.2.9-.8 2.5-.6 1.1-.3.6-.3 1-.2.7-.1 1v1.6l.5.9.2.5.2.2.4.5.4.2 1.3.5.7.5.3.2.2.6.3.6.1.8.1.6.1 1v.5l-.3 2.1-.4 1.5-.2.6v1.3l.5 1 .1 1.5v.4l-.4 1.1v1l-.1.2-.3.3-.4.7-.3.5-.3.8-.5 1.7v.4l.2.5.3.5.2.4.4.2.5.2h.9l.7-.2h.3l.7.4.2.2.2.3.1.3v1.1l.2 1.3v1.2l-.4.5v1.3l.2.2v1.5l-.4.5v.4l.3.7v1.4l.4 1.4v.4l.2.5v.4l-.2.4-.3.4-.4.4-.4.4-.3.2-.3.2-.5.2-.8.1-.4.2-.4.3-.2.5-.3.5v1.2l.4.5.2.4.6.6.4.4.5 1.5.2.7v.9l.3 1-.2.6-.1.2-.3 2v1.5l-.2.3-.4.5-.3.5-.2.5v.4l-.4 1v.9l-.3.3-.2.2-.4.3-.2.3-.1.4v.6l.2.5.5.7.3.6.1.3v.4l-.1.3-.2.3-.3.2-.8.6-.7.4-.5.4-.7.7-1.3 1.8-1.6 3.1-.6 1.3-.3.4-.5.3-.4.4-.3.4-.3.3-.3.1-1.7.3h-.2l-.4.1-.6.4-.3.3-.3.3v.3l-.2.4v.4l.1.5.2.6.1.5v.7l-.2.4-.2.3-.4.6-.3.5-.3.5-.1.4v1.1l-.1 1-.3 2.6v2.9l.1 1v1.5l-.4 1.6v1l-.2 1.4-.2.7-.3.5-1.2 1.2-.3.2-.3.1-1 .2-.4.1-.6.3-.2.3-.2.4-.2.8-.4 1.4-.1.7-.2 1.1-.2.9v.3l.1.5.2.3.1.4 1.8 1.7.4.5.3.3.3.8v1.3l-.3.4-.3.5-.2.3h-.9l-.5-.3-1.3-.5h-.5l-.6.1-.8.2-.3.3-.2.4v.8l.2.4.6 1 .3 1.1.1.3v.3l-.2.9v2l.5 1.4v.6l.2.7.1.5v.8h-.3l-.3.4-.7.2-1.7.4h-.7l-.8-.3-1-.2-.6-.2h-.5l-.4.1-1.7.7-1 .5h-2.8l-.2-.1-1-.4-.6-.2-.7-.1-1.4-.1h-1.4l-.3-.2-.2-.2v-.3l-.2-.3.1-.5.7-1.3.2-.9-.3-.4-.3-.4-.4-.3-.4-.1h-1l-.6.2-1 .4-.6.2-.8.2h-.6l-1.8-.2h-.9l-.4.4h-1.3l-.6.1h-1.2l-.8.4-.8.1-.7.5-.5.3-.8.3-1.2.4-.6.2-1 .6-.7.5-1 .6-.7.5-.3.3-.4.1-.5.2-.6.5-.5.2-.4.2h-1.3l-1-.5-.6-.2h-.8l-.4.2-.3.3-.2.2v.5l-.2.4v.4l-.2.4-.1.3-.8.8-.2.5v3.6l-.4.5-.6.8-.5.5v.1l-.2.2v1l.2.6.2.7v.6h-.2l-.1.3h-.7v-.2l-.4-.1h-1.7l-.3.2-.5.3-1 .7-.2.2-.6 1-.3.4v1.8l.1.2h.1l.1.1.4.2.1.2v.3l.5.1.5.4 1 .4h1l.4-.3h.8l.3.3.1.2v.8l-.2.3-.9.3-.5.2-.5.4-.3.3-.2.4v.4l.2.3.2.3.4.2 1.7 1.1.3.4v.3l.3.5v.5l.2.3.7.4.6.5.9.7.5.4.1.2v.6l-.2.3-.8 1-.5.5-.3.3-.4.1h-2.1l-.5.3-.4.3v.3l-.1.6.1.7v1.9l.2.5.4.3.8.3.7.2h.6l.1.3h.1l.2.3v.4h.2v.5h.1v.1h.3l.1.3v1l.1.4v.2l.3.5.3.5.4.4.2.4.5 1 .5.8.4.6.4.8.5.8.2.4.2.3.4.4.7.4.4.2.3.3v.1h.3v.2l.3.2.7.8.7.8.5.6.3.3.2.4v.2l.2.1v1.2l.1.4v.2l.1.2v.9l-.4.8-.2.7-.1.2v.4h.2l.2.2h.3l.2.1.1.2v1.2l-.2.2v.1h-.1v.2l-.1.2v.3l.3.3h.2l.2.3h.3v.2l.4.9v1.8l-.2.7v.5l.3.3v.6l.2.5.1.6.1.9v.7l-.2 1.2v1.2l.4.4v.2l.4.6.1.2.1.4.3.5v.1l-.1.2-.3.4-.2.2v.6l-.4.5v.6h.4l.3.9.2.1.1.3v.4l.2.7v.3l.2.9v.2l.3.4v1l.4.2h.9l1 .2.1.1.2.1.2.1.2.4v1.7l.1.5v.2l.4.3v.1h.2l.3.1.1.2.3.5.5 1.1.3.6.5.5.2.6v.6l.6.6.9 1.3.6 1.6v.3l.4.2.1.4.4.7v.1l.2.2h.3v.3l.2.1v.6h.1l.1.2v1l-.3.1-.3.7-.2.2v.5l.2.3v.9h-.2l-.1.7-.2.3v.8l.2.3.1.3.4.2h.1l.2.3.3.3h.4v-.2h-.5v-.3l-.4-.1-.2-.2-.2-.3-.1-.6v-.9l.2-.3v-.2.1h.2l.2-.7v-.1l-.3-.1v-.2h.3l.2.2.6.8h.8l.3-.3.1.3v.5l-.2.2-.1.1-.1.4v.6l.1.1v.4l-.3.2-.1.2-.2.2h-.1v.3h.4l.2-.4h1.1l.2.1.1.2.2.1.2.3.2.3.4.3.4.3.6.4.5.2.3.2h.5l1.1.4h.6l.4.4 1 .4.2.2.5.5.5.7.3.5.3.7v.7h.3l.2.2h.1v.1h.2v.4l-.3.1-.3.5-.4.4v.4l-.2.2v.8l.4.6.8.6.3.2.7.4.8.1.8.4.4.5.5.7v2l-.2.7-.3.8.2.5v.7l.2.9.2.5.5.7.5.3.6.2h3.3l1 .1.9.3.5.2.3.5.2.5.2 1.2 1 2.6.5.6.6.5.6.2h.3l.4-.1.3-.6.5-.6.2-.3.1-.2.3-.2.3-.3.4-.2.3-.2.1-.3v-.5l.4-.3h.1l.3-.2.3-.1.2-.1h.3l.2.2h.3l.6.7.3.3.9.3.9.5.3.5v2.4l-.2.3.1.7v.6l.2 1 .1.4v.5l.3.5v1l-.3.5-.4.6-.3.3-.4.3-.6.3-.7.1-1 .2-2.4 1-.5.2-.6.5-.3.5v.9l.3.8.2 1 .2.4.1.4.4.3.4.2.6.2 2.7 1.1.4.3.2.3.3.3v.5l.3.6.5 2.2v.3l-.4.2-.2.1-.2.2v.8l-.5.4h-.5l-.7.5-.6.6-.7.2-1.2.8-.2.2-.3.3-.7 1-.2.1-.3.2-.2.2h-1.2l-1.1.5-1 .2h-.5l-.1.2-.2.3-.4.7-.2.8v1.7l-.2.1v1.4l.3.3v.1l.2.2v.4l.2.1.1.5.4.4h.6l.8.5.6.3.1.2h.7l1-.4h2.5l.4.2.4.4.5.4.4.2.4.2.4.2.2.3.2 1v.6l-.2.3-.2.4-.7.7-.7.6h-.1l-.4.4v.2h-.1l-.2.1h-1.1l-.6-.3h-1.3l-.5.2v1.5l.2.3.2.3.4.3.6.1h1.2l2.8.1h.7l.4.2.4.2.5.3.9 1 .1.5.3.4v.6l-.4 1-.2 1.5v.1l.1.3v.3l-.1.3-.4.4-.5.6-.4.8-1.1 2.2-.2 1.5v.9l.2.6v1l.4.4.6.5h.9l1.1-.2 2.6-.5 1.1-.5.6-.4.2-.3.2-.2h1l.7.5.4.3.3.6.4 1 .1.8v1.5l-.5.8-1.5 3-.6.7-.8.6-.4.5-.2.4-.3.5v.4l-.3 1.2v1l-.1 1.6-.2 1.4v.7l-.3.4-1 .9-.2.3v1.1l.2 1 .2 1.2v1.3l-.2 2.5-.4 1.3v.9l-.3.1-.5.2-.2.3-.3.3-.2.9-.2.4-.3.1-.3.3-.3.3-.9.4-.5.4-.4.3v.4l.1.6.3.6.6.6.2.1.2.1h1.3l.7.3.9.4 1 .7.3.5.4.8.1.9v1.2l-.1.4-.2.2-.4.3-.5.2v.3h-.2l-.1.2h-.5l-1.1.4H267l-.9.1-.8.5-.6.3-.6.5-.3.5-.3.7-.1.9-.1 1.4v.4l-.3.6.2.2h.2l.2.3v.1l.2.1v.3l.4.3.2.5.1.4v1.5l-.5.4v.2h-.8l-.7-.3-1-.3h-.3l-.5-.2h-.4l-.3.2h-.4v.2h-.2v1.8l.2.3.4.7.7.7 1 1.2.2.5v.6l-.3.7-.2.9-.2 1.3-.2 2.4v.9l.4.6v.2l.1.7.2.3.1.2.2.1.2.2.3.2.9.2h.2l.4.5.2.2 1.3.4.4.4.8.4 1.1.4 1.7.8h.2l.1.1.2.2.5.5.3.4v.1l.2.6v.1l-.1.2-.3.1-.3.1h-.4v.2l-.5.2-.4.2h-.9l-.4.2-.3.4-.4.3-.2.5v1.6l-.2.1-.6 1.1-.8 1.1v1.2l-.2.3h-.4l-.8-.4h-.6l-.2.3-.2.3-.5.7-.3.3-.4.7-.2.6-.1.5v.8l.4.2v1.7l.2.2v.1l.3.3.2.1.2.1h.4l.1.3h1v.9l.3.3v.3l.2.3.3.4.2.1h.6l.9 1 1 1.7.2.6v.5l-.1.3-.3.2-.4.2h-1l-1 .2h-.5l-1.1-.1h-.1l-.4.2-.1.3v.4l-.5.3-.5.3h-.1l-.5.4h-.1l-.6.4h-.7l-1.8-.4h-2.5l-1.1.3-1.4.5-1.7 1-.4.2-.6-.3-1-.6-1-1-.9-.5h-1.6l-.8.3-.7.6-.6.7-.4 1.6v.3l.2.5h.5l.6.4h.7l.2-.3h.7l.3.3.1.3v.3l-.1.4-.3.4-.4.3-1.4 1-.2.1h-.5v.2l-.2.1v.2l-.3.3-.4.3-.6.2-1.2.1h-.5l-.3-.4-.1-.4v-1.1l-.6-1.7v-2l.2-.5v-.5l-.9-1.4-.2-.6h-1.1l-.4.3-.6.6-.8.3-.5.1h-.6l-.4-.3-.5-.1v-.1h-.3l-.4-.2h-1.4l-.1.3h-.5l-.1.3-.3.2h-.2l-.1.3-.2.3-.2.3-.2.2-.2.1h-.1l-.1.1-.4.2-.4.2-.2.1-.3.2-.2.1-.4.3h-.4v.2h-.5l-.2.3h-.2l-.1.2-.3.1-.2.1h-1l-.2.2-.2.1v.1h-.3l-.1.3h-.2v.1h-.3l-.1.3h-.6v2.3l-.2.4-.8 1-.4.5-.2.5-.1.8-.1.6v.4l-.2.3-.2.4h-.8v.2l-.2.1v.2l-.1.1h-.2l-.3.2h-.5l-.4-.2-.2-.2-.3-.1-.1-.1-.2-.2v-.1h-.2v-.2h-.1l-.7-.7h-.3l-.7-.1h-.4l-.4.1-.4.3-.6.7v.7l-.2.3h-.4l-.4 1.2-.2 1.7-.2 1.4-.1.5-.2.2-.2.2h-.3l-.3.2-.3-.4h-.1v-.4l-.3-1.1v-.4l-.3-.5-.2-.2-.2-.2H208l-.2.4-.3.1-.5.6-.3.7-.4.2-.3.3-.5.2h-.4l-.6.2h-.5l-.5-.4-1.2-.2-.6-.1-.4-.2-.6-.3-.4-.5-1-.8-.7-.7-1.2-1.1-.2-.6-.3-.2-.8-.7-.4-.1h-1.4l-.3.1-.3.4-.1.3-.2.2v.7l-.3 1v.5l.2.2.3 1 .2.9v.4l.4.4.1.3.4.2 1.2.4.8.6.6.3.3.1.4.3.2.4.2.5.1.5v.3l-.1.3-.2.2-.3.2-.3.3-1.3.7-.8.6h-.5l-.4.3h-.3l-.3-.4-.4-.1-.3-.1-.1-.2h-.4l-.1-.2-.2-.2-.2-.4h-.1v-.2l-.5-.3-.6-.3-.9-.6-.2-.1h-.8l-.2.4-.2.2-.3.1.1.3-.1.8-.1.5v1l.2.4.4.8v.7l-.2.8-.2.5-.3.8-.2.3-.2.3-.2.3v.6l-.2.2-.1.3-.6.5-.4.3-.5.2-.7.1-1.2.2-1.1.2-.8.3h-.5l-.2.3h-.2l-1.8 1.2-.4.3v1.6l.5 1.1.3 1.3.2.3v.7l-.2.7-.2.7-.2.3-.2.2-.4.2-.5.1-.8.2h-.5l-.3-.3-.4-.2-.5-.5-.6-.8-.4-.7-.3-.3-.2-.4-.8-1v-.2h-.2v.2l.3.2-1-.2h-.3l-.3-.2h-.3.2v.2h-.4l-.2-.3h-.1v-.1h-.8l-.1.2v2.1l-.3 1.2v.6l-.1.4-.3.5.4.8v.4l.4.6v.6l.2.4v.4l.1.4v.2h-.2l-.3.3h-.2l-.7-.3-.3-.3-.6-.2-.6-.5-.4-.3-.4-.3-.2-.2-.1-.3-.2-.1h-1.1l-.2-.3h-.2l-.4-.1h-.6l-.2.2-.3.3v1.1h.2v.3h.2l.1.8v.6l.4.8.8.9.3.1h.3l.4.3h.2l.1.4v.6l-1 .4-.9.6-.6.6-.2.3-.8.3-.2.2h-.3v.8l-.5.3-.3.7zm1.1-1.6v-.1l.3-.3.4-.1.4-.1.2-.2v.2l-.2.1-.3.2-.3.2-.2.2h-.3zm1.2-8.2v-.5l.3-.2h.4v.3l-.4.4-.1.2h-.1zm5 2h.3l.3.1 1.3.3-.2.4h-1v-.2h-.1l-.3-.2-.1-.2zm2.1-8.4v-.3h.1l.1-.2h.3v.3l.3.1h.6v-.2h.6v.3h-.8l-.1.4-.9.5-.1.1h-.2l-.1-.2v-.8zM178-17.3v-1l.5-.7v-1.3l.1-.1v-1.3h.1l.1-.2.3-1.2.1.2.2.5v.2l.1.2v.2l.3.6.2.8v.3l.2 1.9v1.8l-.2.3-.1.4-.9.7h-.3l-.2-.6-.1-.4-.1-.8zm3.1 13.2h.1l.5.3h.1l.3.2h.6l.7.1h2.9l.1.1v.1h-.1l-.1.2-.2.1-.4.2-1 .4h-.5l-.1.2h-.7l-.3-.3-.5-.2-.4-.3-.3-.2-.3-.3-.3-.5zm4.6 887.4v-.2h.3v-.1l.7-.1.6-.4.8-.5-.5.6-.3.6-.3.2v.1l-.3.1h-.6l-.1-.3zm2.1-2v-.5h.2v-.4h.2v-.1 1l-.2.2zm.7-1.1v-.1h.2v-.1h.2v.7h-.4zm5-14.2v-.6h.2v-.5l.2-.1.1-.4v.9l-.2.3v.4h-.2zm.1-882.4l.4-.5.5-.1.3-.3.4-.2 1.4-.5.3-.2.6-.2.8-.2 1.7-.4 1.6-.2.6.2h.5v.3l-.5.6-.6.8-.5.5-.5.1-1.2-.3H198l-.5.4-1 .4-1 .2h-.2l-.7-.4h-.4zm.2 880.6v-.3l.2-.2v.5h-.3zm16.9-256.6h.5l.3.3v.6l-.2.1h-.2l-.1-.3-.3-.1v-.2l-.1-.2zm2 258.2v-.8l.3-.5.7-1 .6-1 .2-.2h.9l.3.2.3.2h-1l-.3.3-.6.6-.1.5-.3.6-1 1.8zm4.9-1.8v-.2h.4l.2.3h.6v.2h.3l-.1.2h-.2l-.2.2h-.6l-.2-.4v-.1h-.2zm1.1 0h.2l.1-.3h.4v-.3l.1-.2h.4l.3-.2-.2.2-.2.2-.1.2-.2.3-.1.1zm1.8-238.2v-.8l.1-.2v-.5l.1-.3h.3v2.9l-.3-.3-.1-.2-.2-.4zm0 3.7v-.3l.2-.4v.5l.2.1v.3h-.4l-.1-.2zm.5-1.4v-.1.1h.2v.2h.1v.4h.2l.2.3v.2h.1v.6h-.5l-.1-.2v-.2h-.2v-.5zm1.4 11.4v-.2l.1.1.3.3.5.7v.8h-.7l.1-.4-.2-.4zm0-5.8v-.3l.2-.2v-.1h.2v.5h.1l.1.2v.3h-.4l-.1-.1v-.2zm.2.8v-.1l.3-.2.1-.1v-.1h.2v.4h-.2v.3h-.4l-.1-.2zm0 10.5v-.2l.2-.2v-.9l.2-.2.3-.5.1-.2v-.7l-.4-.3-.3-.5v-.1l.1.2h.3l.1.1h.2l.4.4v.1l.2.2h.1l.2.3h.3v.1l.3.1v.3h.1v.3l-.3.1v.3l-.2.3v.2l-.2.2v.1l-.1.4-.2.5-.4.6h-.2l-.4-.2-.1-.3-.2-.5zm.9-4v-.3h.2v.2h.5l.2.3.2.3.2.4v.1l-.2.2h-.6v-.4l-.2-.3-.2-.3h-.2zm.5 9.3h.2l.3.1v.1h-.5zm.3 204.7v-.1h.4l.1-.2h.6l-.1.3h-.5l-.3.1h-.2zm.3-209.4l.1-.5.3-.5.4-.9v.3l.3.2v.8l-.3.4-.1.1-.3.2h-.3zm2 209.4v-.3l.3-.1.1-.2h.1l.9-.5v.2l-.3.2v.2l-.1.1v.2l-.5.4h-.6v-.2zm.8-201.7v-1.9h.1l.1.1.2.2.2.2.2.1.1.4v1.6h-.3v-.1l-.3-.1-.1-.1-.2-.2zm3-480.5v-.3l.2-1 .1-.3.3-.2h.1l.8-.3h.1v1.1l-.3.2-.4.4-.4.2-.2.2-.3.2zm2.1 19.4l.3-.6.2-.2h.3l.2-.1-.1.3-.2.4zm.5 471.4v-.1h.2v.3h-.2zm.4 3.8v-.4l.3-.4.3-.2v-.2.2l.2.3v1.1h-.2l-.2.2-.2-.3zm.2-3l.1.1.1.2v.5-.2l-.2-.2v-.2zm.4 3.6l.1-.2v-.7h.3l.1.4.3.4-.3.2h-.5zm.2.2h.4l.1-.2h.4v.2l.3.2v.1l-.4.1h-.4zm.1-4v-.2l.2.1.2.2h.3v.2l.2.2v.1l-.2.2h-.4v-.3l-.1-.2zm.4 7.6h.2v-.1l.3-.1v-.1l.2-.1v-.1l.2-.3.2.3h.3v.2h.2l-.3.2h-.6l-.4.1-.1.2h-.1zm.5-481.5h.1l.7-1 .7-.7 1.2-.8.2-.1.3-.1h.3l.3-.3.5-.1h.5v.8h-.2v.1l-.2.2v.2l-.1.1-.4.3-1.3.3-.3.1-.5.3-.7.4-1 .4zm.2 480v-.3l.3-.2v.2-.3l.3-.3v-.2h.1l.2.2.1.2.2.5.2.5v.4l-.3.2-.2.2-.1-.3-.2-.1-.4-.2-.1-.2zm.7-613.6l.3.2h.2l.6.5h.4l.1.2.4.4.2.2.2.2.2.1v.1l.3.4v1.4h-.5l-.1-.2-.6-.7-.4-.4-.8-.4-.3-.5-.2-.8zm1.6 615.3l.5.4.4.3.4.4h1.4v.3l.2.1-.3.1h-.8l-.6-.2-.8-.6-.3-.5zm7 5.2v-.2h.3v.2l.1.2v.3h-.3v-.3zm1.5 179v-.2l.8-.6v.2l-.2.4-.2.4-.2.1h-.2zm2-173.2l.3-.1h1.1l.3.2v1.2l-.2.3-.3-.2zm5.6-497h1v.3h.2v.3h-.4l-.3-.1-.3-.3zm2.8 506.7h.4v.1l.3.2h.2v.2l.2.2v.3h-.3l-.2-.4h-.2l-.2-.3zm.4-504.9h.7l.3-.2h1l.2.4h.4v.5h-.1v.1H258l-.2-.4h-.3l-.4-.2h-.1zm2.7.7l.3-.3v-.1h.6v.4h-.4v.1h-.5zm2.1 650.5h.2v.3l.2.2v.6l.2.2v.1h.3v.2h.3v.1h.2v.1h.2v.2h-.9l-.3-.3-.2-.2v-1.3l-.2-.1zm0-142l.4-.7.1-.5.3-.2h.3v1h-.7v.2h-.2zm.2-508.5h1.9l.2.2-.1.3-.4.2h-.8l-.8-.4v-.1zm0 507v-.3h.2v-.2.4zm.3 144.3l.2-.2h.4v.3l.1.1h.6l.1-.3h.3v.3l.2.2v.4l.2.2v.1h-.6l-.2-.3-.1-.1-.2-.1-.3-.1h-.2v-.2h-.2v-.1h-.2l-.1-.1zm.3-144.5l.1-.3h.3v-.2h.9l.2-.2h.3v.3l-.3.1h-.1v.2h-.3v.1h-.4v-.3h-.5v.3h-.1v.1zm.1 155v-.3l.3-.1.3-.1h.7-.4l-.1.2h-.2v.2l-.3.1h-.1l-.1.2zm.3-10.6h.4v.3h-.4v-.2zm-.1-4.2v-.1l.1-.2v-.1l.3-.2v-.1l.2-.2h.5v.1l.3.2.3.1h.4-.1l-.5.3h-.3l-.2.2h-.7l-.1.1h-.1zm.5 5.8l.2-.1h.2v-.2h.4v.3h.1v.1h-1.1zm.3 7.6l.2-.2h1.8l-.1.2h-.1l-.1.1h-.4l-.1.2h-.2v.1h-.7l-.3-.2v-.1l-.1-.1zm.3-108.7l.2-.2h.8l-.3.1h-.1l-.2.4h-.3zm.1 82l.1-.2h.8l.1.2h.2v.5h-.2l-.2-.2h-.2l-.3-.3zm.1 19.9v-.6h.2l.3.4.3.4v.5l.3.2h.1v.3h.1v.3h.1v.2h-.3v.1h-.3v-.3h-.2v-.2h-.2v-.2l-.2-.2v-.2l-.2-.4v-.2zm1-7.2l.2-.1v-.1h.1v-.3h.2v-.1.5l-.3.2zm.3-112.8v-.4l.2-.1.2-.2h.1l.2-.1h.5l.1-.2h.2v.4h-.2v.1l-.2.1v.3h-.2l-.1.3h-.8zm-.1-27.7l.4-.2h.2l-.2.3h-.4zm.3.3l.3-.1v-.2h.6v.3l-.3.3-.5-.2zm.3 148.6l.3.2v.1l.3.4h.1-.4v-.2l-.3-.2zm.2-147.6l.2-.3.3.4.3.2h.4v-.3h.4v.7h-.7l-.2-.4h-.5v-.3h-.1zm.2-304.2v-.3l.1-.4v-.8l.2-.4v-.1l.2.5.1.7v1h-.6v-.1zm1 329.2v-.6l.3-.1h.1v1h-.4v-.1zm-.1 29.8v-.2l.4-.1.1-.4.2-.4h.1l.1-.2h.1v-.1h.2v.4l-.3.4-.1.2-.1.1-.1.2h-.1l-.2.3h-.2zm1.2-44.5l.1-.3.2-.3v-.1h.1l.1.3v.4l-.5.2h-.2zm0 43.1l.1-.3v-.4h.1v.6l-.1.2zm.9 35.7l.2-.2h.3v-.1h.2-.1v.4h-.7zm1.1-436.8v-.4l.5-1 .3.4.2.4.1.4v.5l-.1.3-.2.3-.3.1-.2-.2-.2-.4zm0 480.3l.2-.2v-.1h.3v-.2h.2v.5h-.4v.1h-.2zm6.7-633.3l.7.3.3.3v.6l-.2.5h-.5l-.2-.3v-.4zm.1 1.7l.2.2.1.1h-.2v-.2h-.2zm.3.5l.2-.2v-.1h.2v.9h-.2l-.1-.2-.2-.3zm5.6 278.6v-.3l.3-.3v-.5h.1v.3l.2.3v.3l-.2.3-.2.2h-.2zm4.4-263.6v.2l.4.3.2.5v.4l-.2.2-.2-.3v-.3l-.3-.4zm.3 6.2l.1-.4.2-.3.1-.2.2-.2.3-.3.2-.4v-.2l.6 1 .5 2.2-.3.3-.4.1h-.3l-.1-.2-.4-.2h-.2l-.2-.3-.2-.3v-.4zM-152.8 43.2l.2.3.4.5.2.1v.6h.2v.3h.2v.3h.1v.1l.1.2.1.1v.2l.1.1v.2h.1l.1.1v.4h.2v.2h.1v.1h.1v.2h.1l.1.1v.1l.2.1.1.5.5.9h.3v.4l.1.1v.1h.2v.3l.2.2v.3l.1.2.1.1v.1l.3.3v.3h.1v.2h.2v.2l.2.1.4.7.2.2.4.4.3.3.3.3 2 1.9v.2l.4.2.3.1.1.1.3.2.1.2h.5l.1.1h.6l.3-.2h1.2l.1.2.9.1h.1l.1.2h.1v.6l.2.2v.2h.1v.2l.2.3v.1l.1.1v.3l.2.1v.1l.1.2v.2h.1v.3l.3.1v.3h.1l.1.3h.1v.1h.1v.1h.2l.1.1h.1v.1h.2l.1.2h.2l.5.1h.2l.2.2h.1l.1.1.2.1h.3v.2h.2l.3.4.2.1.1.2v.7l-.2.1v.7l.2.2.1.3h.1v.2h.2v.2h.3l.1.2h.2l.1.1h.3l.1.2h.9l.2.2h1.2l.4-.4h.6l.2.3.5.2h.1l.2.2h.2l.2.2h.4v.2h.3v.1h-.5v-.3h-.2v-.1h-.2l-.1-.1.2.4h.4l.1.2h.3v.1h.1v.1h.3v.1h.2v.1h.3l.3.3h.2l.7.4.4.2.1.1h.2l.2.3.1.1.3.1.2.1v.1h.3v.3h.2l.2.2.2.1.1.2.2.1.1.3h.2v.1h.4l.1.2h.2v.2h.3l.1.2.4.2.3.2.2.2v.1h.2v.3h.1v.1l.3.1v.2h.3v.2h.1v.3l.2.1.3.2.1.2h.1l.3.1v.2h.1l.2.1v.1h.2l.1.2h.1v.1h.1v.1h.1l.1.1h.1v.2h.2v.1l.2.1.2.2.3.2v.2l.3.2.1.2h.1v.1l.1.2v.3h.1v.2h.1v.1l.1.1h.1v.3h.2v.1h.1l.1.1h.2v.1h1.1v.2h.4l.1.1h.5l.1.1h.6v.1h.4v.1h.5v.1h.4l.3.1h.2l.1.1.3.1h.4v.2h.3v.1h.2v.1l.3.1v.1l.2.1.2.1h.1v.1h.3v.1h.2l.1.2h.6l.2.1h.2l.1.1h.2l.1.1h.3l.1.1h.3v.1h.3v.1h.4v.1h.3l.2.1h.5v.2h.2l.1.1h.2l.1.1h.1l.1.1h.5v.2h.1v.1h.2v.1h.2v.1l.2.2h.3v.1h.2v.1h.2l.2.2h.2v.1h.2l.1.1h.1v.2h.3v.1h.1l.1.2h.1l.2.1v.1l.2.2h.1l.1.2.2.1h.1v.2h.3v.1l.2.1v.1h.1l.1.1h.1v.1h.2v.2h.2v.1l.3.1.1.2h.1l.2.2v.1h.1v.1h.1l.2.1v.2h.3l.1.2v.1h.3v.2l.2.1.1.2h.1l.3.4h.2v.2h.2l.1.2h.1v.1h.3v.3h.2v.2h.1l.3.2.1.1.2.2v.1h.1v.1l.2.1.2.2v.2h.2v.1h.1v.1l.1.1.1.1.2.2.1.2h.1l.1.1.3.3v.1h.1l.2.2.1.1h.1l.1.3h.1v.2h.2l.1.2.1.1h.2v.2h.1l.3.3.3.2v.2h.2v.2h.1v.1h.2v.3h.2l.1.1h.2v.2h.2l.2.1.1.2h.2v.3h.1v.1l.2.1v.1l.1.2.3.1v.2h.1l.2.3v.2h.1v.3h.1v.2l.1.3v.1h.2v.1h.1v.3h.2v.2h.2v.3h.2v.1l.1.2.3.3.1.1v.1h.2v.2l.1.1.1.1v.1l.2.1v.3h.2v.2l.2.2v.1h.2v.3h.1l.1.2h.1v.3h.1v.3h.1v.1h.2v.3h.1v.2h.1v.2h.1v.1h.1l.1.3h.1v.2h.1v.3h.2v.1l.2.1v.3h.1v.1h.1v.1h.1v.1l.1.1v.1l.2.1v.1l.2.3.1.1v.1l.2.1v.1l.1.1v.1l.2.1v.1l.2.1v.1l.1.2.2.2.2.1v.2h.1v.1h.1v.1h.1v.3h.2v.2h.3v.1l.1.1.2.2.3.2h.1v.2h.2l.2.3.3.2v.1h.3v.3h.2v.1h.3v.3l.4.1.3.2h.2v.2h.2v.1h.2v.1h.4l.2.2.2.1.3.1.4.1.1.1h.1l.2.1h.2l.1.2h.3v.1h.6l.1.2h.3v.1h.6v.1h.4v.1h.4l.3.1h.2v.1h.4l.1.2h.3l.1.1h.4l.1.2.1.1h.3v.1h.2l.1.1h.1l.1.1h.2l.1.2h.1l.2.2h.2v.2h.2l.1.3h.5l.2.1h.3v.1h.2v.1h2.5l.2.1.1.1h.1l.3.2.1.2h.2v.1l.1.1.1.1h.2l.1.1h.3v.1h.5l.4.1h1.5l.2-.4h.5l.1-.1h.1l.1-.1h.1l.2-.1h.5l.4-.1h.4l.4-.2h1l.3-.2h.2v-.1l.3-.2h.3v-.2l.3-.2h.1l.1-.1.2-.1.1-.2h.2v-.2h.1l.1-.2.2-.1.2-.2v-.2l.1-.2v-.1l.2-.2.2-.1v-.2h.1v-.1h.1l.1-.2.2-.1h.1v-.2l.3-.1.3-.2.2-.3.2-.2h.1v-.2h.2v-.1l.1-.1h.1l.2-.2.3-.2h.3v-.2h.2v-.2h.2v-.1h.2v-.1l.3-.2h.3v-.2h.2v-.1h.2v-.1h.3v-.2h.2l.3-.1v-.1l.2-.2.3-.2.1-.2h.7l.2-.1h.5v-.2h.2l.2-.3h.1l.2-.1v-.2h.2l.1-.2v-.1h.3v-.1h.1v-.1h.1v-.2h.1v-.3l.2-.2v-.1h.1v-.2h.1v-.4h.2l.2-.2.2-.1.2-.2.1-.1.1-.3.2-.1v-.1l.3-.2v-.1l.1-.2.2-.2.2-.3v-.1l.1-.1v-.2h.2v-.5l.2-.1v-.1l.1-.2.1-.3V98l.1-.1v-.4h.1V97h.1v-1l.2-.6v-.7l.1-.2V94h.1v-1.5l.2-.2v-.9l.1-.2v-.5h.1v-.2l.1-.2v-.2h.1v-1.4h.2v-.6h.1v-.4h.1v-.5h.1V87h.1v-.2l.1-.3v-.2l.2-.1V86h.1v-.2l.2-.1v-.1l.1-.2v-.2l.2-.2v-.1l.1-.1v-.2l.2-.2.1-.2.1-.2v-.3l.1-.2v-.1l.2-.1.1-.2V83h.1v-.3h.1v-.4l.2-.1V82l.1-.1v-.4l.1-.2V81l.2-.3v-.2l.1-.2V80l.2-.3v-.4h.1v-.5h.1v-.2l.1-.2v-.2l.2-.2v-.3l.1-.2.1-.2.1-.1V77h.2v-.3h.1l.2-.3.2-.2v-.1l.2-.1v-.2h.2v-.2h.2v-.2h.1l.1-.2.1-.2h.2v-.1l.3-.2v-.1l.2-.2.3-.3h.1V74h.1v-.2h.3v-.1l.2-.2.1-.3.3-.2.2-.2v-.2h.1l.1-.2.2-.2.1-.2.2-.2.1-.1.1-.2.3-.1v-.2h.2V71l.2-.2.2-.2.1-.2h.2v-.1h.1v-.1h.1l.2-.1.2-.1h.9v-.2h.5l.1-.1h.3l.4-.2h.6l.3-.1h.1l.2-.1h.3l.2-.1h.2v-.1h.2l.1-.1h.4l.2-.3h.3l.2-.1h.2l.1-.1h.1l.2-.2.3-.1h.1v-.1h.4l.1-.1h1.1l.3-.2.2-.1.2-.1h.1l.2-.1h.2l.1-.1.3-.1h.4l.2-.1h.5l.1-.2h.4l.2-.2h.1l.1-.1h.3l.1-.1h.2l.2-.1.3-.1h.2l.1-.2h.4l.2-.1.2-.1h.2v-.1l.2-.1.5-.5.3-.2.1-.1h.2l.2-.3h.2l.3-.2h.2v-.3h.5l.4-.2h.9l.2-.2h.8l.8-.1.5-.1h1v-.2h.7l.1-.1h.4l.3-.1h.2l.5-.1h.5l.3-.1h2l.4-.2h.4l.3-.1h.3l.2-.1h.4l.1-.1h.7l.2-.1h.1l.1-.1h.8V62h.4l.1-.2H4l.3-.1.1-.1h.2l.2-.2H5l.6-.4 1-.7.6-.3 1.6-1.2.8-.6.2-.1.5-.4.2-.1.2-.2.7-.6.9-.8.6-.4.8-.6.6-.6.3-.2.3-.2v-.2h.3v-.3h.1l.2-.2.4-.3.1-.2.2-.1.3-.2.5-.6.5-.4.5-.5.6-.6.8-.9.4-.4h.2v-.3h.2l.1-.2.4-.3.2-.1.1-.2h.1l.2-.3.1-.1.2-.2.4-.3V47l.4-.5.3-.3.2-.2.4-.6.2-.2.3-.4.2-.3v-.1l.3-.2v-.3h.1v-.1l.1-.1v-.2h.1v-.2h.1l.2-.2V43h.1v-.1h.1v-.2h.2l.1-.2.2-.2h.2V42h.2v-.3h.2l.1-.1.1-.1.3-.3.9-1.4.1-.4 1.8-2.5.5-1 .7-.9 1.3-2 .5-1.2.1-.3.1-.2.3-.6v-.2h.2v-.3h.1l.1-.2.1-.3v-.2l.3-.1v-.2l.2-.2v-.1l.1-.2.1-.2.1-.2.2-.3v-.1l.3-.2.1-.3h.1v-.2l.2-.1v-.2l.2-.2v-.4l.4-.8v-.2l.2-.2v-1l.2-.3.1-.1h.1v-.3l.2-.1v-.1h.1V23h.1v-.2l.2-.2.1-.1.1-.1h.1l.1-.2h.1l.1-.2h.2v-.2h.1v-.1h.1v-.2h.3v-.2h.1v-.2h.2V21l.2-.2.1-.1.1-.2.1-.1h.2v-.3l.2-.1v-.3h.1l.2-.3v-.3h.2V19l.1-.1.2-.2v-.1h.2v-.2h.1l.1-.1h.1v-.2h.1l.1-.1.2-.3.2-.1v-.2l.3-.2v-.4l.3-.2v-.2l.2-.2.2-.2v-.2h.2l.4-.6.2-.2.4-.6.5-.6.4-.5.3-.4.1-.2.1-.1v-.2h.2v-.2h.1l.1-.2h.1l.2-.4.3-.1v-.3l.2-.2h.1v-.2h.1v-.1h.1v-.2h.1v-.1h.1v-.1h.1v-.1l.2-.2v-.2l.2-.2.1-.2v-.1l.2-.1V9l.2-.1v-.1l.2-.1v-.2l.1-.1v-.2l.3-.1v-.2l.1-.2h.2v-.2l.2-.1.2-.2V7h.2v-.2h.1v-.1l.1-.1h.2v-.3h.1v-.1h.1V6h.2v-.2h.2v-.1h.2l.1-.2.2-.2h.2v-.2h.1V5l.1-.2h.1l.1-.1-.7-.8-.8-.7h-.2v.2h-.1l-.1.2-.2.2h-.1L49 4h-.1v.3h-.3v.1h-.1v.3h-.3V5H48l-.3.3-.2.2v.1h-.1v.1l-.1.1-.1.1h-.1V6H47v.4h-.2l-.1.2-.1.1h-.1V7h-.2l-.1.3-.2.2-.2.3-.2.2-.1.2-.2.2v.2l-.3.1V9h-.2l-.1.4h-.1v.3h-.3v.2l-.1.1-.2.3-.2.1v.2h-.3v.2h-1.9l-.1-.2H40v.3h-.3v.1h-.3l-.3.2v.1H39v.1h-.1v.1h-.2l-.1.3h-.2v.1l-.1.1H38v.3h-.3v.2h-.2v.2h-.1l-.1.1-.2.2H37v.2l-.2.1v.1h-.1v.1h-.1v.1h-.1v.2h-.2v.2h-.1v.1h-.1v.2l-.1.1v.4l-.2.1v.1l-.1.2v.1l-.1.3v.2h-.1v.2h-.1v.3h-.1v.1h-.2v.2l-.1.2h-.1l-.1.2h-.3v.2h-.1v.1h-.2v.2h-.1v.1l-.1.1v.5h-.2v.8h.2v.2h.2v.2h.2v.2h.1V21h-.3v.4h-.1v.1l-.1.1v.4l-.2.1v.3h-.1v.2l-.2.2v.5l-.2.2v.1l-.2.4v.2H33v.7l-.2.2v.5h-.2v.4h-.1v.2l-.1.1v.3l-.1.1-.1.6-.2.3v.4h-.2v.5h-.1v.6l-.2.1v.2l-.1.1v.5h-.1l-.1.3v.1l-.2.1v.2l-.2.3v.2l-.3.5-.1.3-.4.8-.3.6-.4.6-.3.5-.2.2v.2h-.2v.1h-.1l-.2.3v.1h-.2l-.1.5-.2.1-.1.3-.2.1v.1l-.2.1v.2l-.3.4-.4.8-.3.2-.3.6-.4.4-.2.3v.1l-.3.1-.1.3v.2h-.2l-.1.3-.3.2-.1.1-.1.2-.4.3-.2.2v.3l-.3.3v.1l-.2.1v.2l-.1.1v.1l-.1.3-.1.1v.1l-.2.2v.1h-.1v.4l-.3.1v.1l-.2.1v.3l-.2.2v.1h-.2v.2h-.1v.2h-.1l-.1.3-.3.2v.2h-.2v.1l-.2.1h-.2l-.1.3H20l-.1.2-.3.1h-.3l-.6.3h-.3l-.3.2h-.5l-.3.1-.3.2-.3.1-.2.2-.3.2-.3.2-.2.3-.3.5-.3.3v.3l-.2.4-.2.4v.3l-.3.2v.1l-.4.5v.5l-.4.2-.2.3-.3.5-.2.2-.2.2-.2.2v.2h-.2v.2h-.2v.2H12v.2h-.2l-.2.3-.5.3-.6.6-.5.4-.3.3-.3.2-.5.3-.4.3-.4.3-.1.2h-.3l-.1.3h-.1l-.3.1-.4.3-.5.3-.4.3-.4.1-.4.3-.4.2h-.1l-.6.4-.2.1h-.2l-.4.1-.5.1-.3.2H2v.1h-.6l-.3.1H.8l-.4.2H-.8l-.9.2-.3.1h-.6v.2H-4l-.6.3h-1.2l-.5.1H-7v.1h-.6l-.3.1h-.7l-.2.1h-.6l-.2.2h-.4l-.3.1v.1h-.3l-.1.1-.3.1h-.2v.1l-.2.1-.2.1-.2.1-.2.1-.1.1-.3.2-.2.1-.4.2v.1l-.3.2h-.2l-.1.2h-.1l-.3.1-.3.2-.4.2h-.3l-.4.3h-.6l-.1.2h-.2l-.2.1h-.3l-.1.1h-.7v.1h-.2v.1h-.2l-.1.1h-.2l-.2.1h-.2l-.3.1h-.1l-.3.1h-.6l-.3.3h-.4l-.3.1h-.7l-.3.1h-.6v-.3h-2.5v.3h-.7v.1h-.2v.1h-.3l-.1.1h-.2l-.3.1h-.1l-.2.1h-.1l-.2.1-.1.2h-.1l-.2.1-.1.2-.1.2h-.2v.2h-.2v.2h-.2l-.1.3h-.1l-.1.1v.2h-.1v.2h-.2v.2l-.2.1-.1.2v.2h-.2v.3h-.2v.5h-.2v.1l-.1.2-.2.2v.3h-.2v.1l-.2.1v.1l-.1.1v.1h-.2v.2l-.3.3-.2.3h-.1l-.1.2h-.1l-.2.2-.2.2-.1.1-.2.2-.1.2h-.2v.2h-.1l-.1.1h-.2v.1l-.2.2-.3.3h-.1l-.1.2-.3.2-.1.1-.1.2-.2.1-.2.1-.1.2-.4.3-.2.2v.1l-.1.1h-.1v.1h-.1v.3l-.2.1v.1h-.1v.4l-.1.3v1l-.1.1v.4h-.1v.4l-.1.1v.7l-.1.2v.4l-.1.3v.3h-.1v.6h-.2v.2h-.1v.2l-.1.2-.1.2-.1.1v.1l-.1.3v.1h-.1v.1l-.2.3v.3l-.3.4v.3h-.1v.2h-.1v.2h-.1v.1h-.1v.5l-.2.3-.1.2v.5h-.2v.4l-.1.1v.2l-.1.3v.6l-.2.2v.4l-.1.1v.3l-.1.2v.4l-.1.1v1.2l-.1.2v.9l-.2.3v.1l-.1.1v.1l-.1.3v.1l-.1.2v.2l-.2.2h-.1v.2h-.2v.2h-.2v.2l-.2.1-.1.1-.2.2-.1.1h-.2v.3h-.2v.1h-.1l-.1.3h-.3v.3h-.1l-.1.1-.1.1v.3h-.1l-.2.2h-.1v.3h-.1v.2l-.3.2v.1l-.2.2v.2l-.2.2-.1.2v.2l-.2.2h-.1v.3h-.1l-.1.1v.1h-.1v.3h-.1v.5h-.2v.2h-.1v.1h-.1v.3h-.1v.1h-.1v.3l-.1.2v.1l-.1.2v.1l-.1.1-.1.2v.1l-.3.1v.2l-.1.1v.2h-.1v.1h-.2v.2l-.2.2h-.1v.1l-.4.2h-.2v.3h-.4v.3h-.3v.1h-.1v.1h-.1v.1h-.1l-.1.2h-.2l-.3.2-.2.2h-.1l-.2.1-.3.1v.1l-.2.1-.4.4-.2.2-.2.1-.2.2-.2.1-.1.2h-.1l-.2.2-.1.1h-.1l-.1.1v.1h-.3v.3h-.3l-.1.2h-.2v.1h-.3v.1h-3.4v.2h-.5v.2h-.3v.1h-1l-.2.1h-.7l-.3-.3h-.3l-.2-.1h-.3l-.2-.1h-.4l-.1-.1h-.8l-.7-.2h-.5l-.1-.1h-2.1v.3h-.9l-.1.2h-.2l-.1.1h-.4l-.1.1H-70l-.2-.3h-.1l-.3-.1h-.7l-.2-.2h-.4l-.1-.1h-.2l-.2-.1h-.1l-.1-.1h-.1l-.1-.1h-.2l-.2-.1h-.1v-.1h-.1l-.1-.1h-.2v-.1h-.5v-.2h-.3l-.3-.3-.2-.1h-.1l-.3-.2h-.1l-.1-.2h-.1l-.3-.2-.2-.2-.1-.2h-.2l-.4-.3v-.1l-.3-.2-.1-.2-.2-.2-.1-.2-.2-.2v-.1h-.2l-.1-.2-.1-.1-.4-.6h-.1v-.3h-.2v-.1h-.1v-.2l-.2-.2v-.2h-.3v-.3l-.2-.1v-.1l-.1-.1v-.2l-.2-.2v-.3h-.2v-.2l-.1-.1v-.2l-.2-.2v-.1h-.1v-.4l-.1-.1v-.1h-.1V99h-.1v-.4l-.1-.1v-.2l-.2-.3h-.1v-.1l-.1-.2v-.1l-.2-.2h-.1v-.2h-.1v-.1l-.1-.1-.1-.1v-.1l-.2-.3-.1-.3-.1-.2-.3-.2-.3-.4v-.1l-.2-.1-.1-.2h-.1v-.2h-.1v-.1l-.2-.3-.1-.1v-.1h-.1v-.1h-.1V94l-.2-.3-.3-.2h-.2v-.3h-.3V93h-.5v-.1h-.2v-.2h-.1v-.3h-.2v-.2h-.3V92h-.2v-.2h-.3v-.3h-.2v-.1l-.2-.1-.1-.1-.2-.2-.2-.3-.3-.2v-.1h-.2v-.3l-.2-.1-.1-.1-.2-.3-.3-.1-.1-.3h-.2V89h-.2l-.2-.1v-.2h-.1v-.1h-.2v-.3h-.1l-.1-.2h-.1V88h-.2v-.3h-.3v-.2h-.2v-.3h-.1l-.2-.2h-.1v-.2h-.2v-.1l-.1-.2-.3-.3-.2-.2-.3-.3-.2-.1-.1-.3h-.2V85h-.2l-.2-.1-.2-.3h-.1l-.1-.1h-.2l-.1-.3-.2-.2h-.4v-.4h-.3l-.1-.1-.1-.2-.2-.1-.2-.2-.1-.1-.1-.1-.2-.1v-.1l-.3-.1-.2-.3h-.3l-.2-.2-.2-.1-.2-.2-.2-.2-.2-.1-.2-.2v-.1l-.3-.1v-.1h-.3v-.3l-.2-.2h-.2v-.1l-.2-.1-.2-.2-.3-.2h-.1l-.1-.1h-.1l-.2-.3-.3-.1h-.1l-.3-.2-.1-.1h-.3v-.2h-.1l-.1-.1h-.2l-.2-.1h-.7l-.1-.1h-.1l-.2-.1h-.5v-.2h-.5l-.2-.1h-.5l-.1-.1h-1.2l-.1-.2h-.2v-.1h-.2l-.1-.1h-.1v-.1h-.3l-.1-.1h-.2v-.1h-.4l-.1-.2h-.2V77h-.3v-.2h-.4v-.1h-.3v-.1h-.2v-.1h-.3v-.1h-.2l-.2-.1h-.1v-.1h-.5v-.1h-.2l-.1-.1h-.5l-.2-.2h-.2v-.1h-.2l-.1-.1-.2-.1h-.1l-.1-.1h-.1v-.1h-.1v-.1h-.3l-.1-.2h-.3v-.2h-.3v-.2h-.2l-.1-.2h-.2l-.2-.1-.3-.3h-.2v-.2h-.1v-.1l-.4-.2-.2-.2-.1-.2h-.1l-.1-.1h-.2v-.2h-.1l-.1-.1h-.3v-.3h-.3v-.2h-.2v-.1l-.1-.1h-.4v-.2l-.2-.1-.2-.1-.1-.1-.1-.1h-.3v-.1h-.1v-.1h-.1l-.1-.1-.1-.1h-.1l-.1-.3-.2-.1-.3-.3h-.1v-.1h-.1V70h-.3v-.2h-.2v-.2l-.3-.2-.3-.2-.1-.1-.1-.1-.3-.3-.3-.2-.3-.3-.1-.2h-.1l-.2-.2-.1-.2-.2-.3-.2-.1V67h-.2v-.2h-.1l-.2-.2-.1-.1-.1-.1-.1-.1-.2-.3h-.2l-.1-.3h-.1l-.2-.1-.2-.2h-.2l-.2-.1h-.1l-.1-.1-.2-.1-.3-.3h-.1l-.2-.4h-.2l-.1-.2v-.1l-.3-.1v-.3h-.2v-.1h-.2l-.1-.2v-.1l-.4-.3-.1-.2-.3-.3v-.1l-.1-.2-.2-.1-.1-.1h-.1v-.1h-.3v-.2h-.3v-.2h-.1l-.3-.2v-.1h-.2v-.1l-.1-.1h-.3v-.2l-.2-.2h-.1v-.1h-.1l-.1-.1-.1-.1h-.2v-.1h-.2v-.1l-.1-.1h-.2l-.2-.2h-.2v-.2h-.1v-.1h-.1l-.1-.1-.2-.1-.1-.2-.2-.1-.3-.1-.1-.3h-.1l-.2-.3h-.1l-.1-.3h-.3l-.1-.2v-.1h-.2l-.2-.2h-.2l-.1-.2-.2-.1-.2-.2h-.1l-.1-.1-.2-.1h-.3l-.1-.3h-.5l-.2-.2h-.4v-.2h-.2l-.3-.1h-.3v-.3h-.2v-.1h-.2l-.3-.2-.1-.2h-.5l-.5-.2h-.6l-.5-.2-.5-.1h-.2l-.2-.3h-.5l-.4-.3-.7-.1-.6-.3h-.2l-.2-.3h-.1l-.3-.3h-.2V53h-.2l-.2-.3-.3-.2-.1-.2h-.1l-.5-.8-.3-.2-.7-1-.3-.6v-.1h-.2v-.2l-.2-.1V49l-.1-.2v-.1h-.1v-.2h-.1v-.2l-.2-.3-.1-.2-.1-.1v-.1l-.1-.1v-.1l-.1-.1V47h-.2v-.3l-.2-.3v-.2l-.2-.1v-.2h-.1v-.1l-.1-.2-.1-.2v-.2h-.1V45h-.1v-.2h-.1v-.1l-.1-.1v-.2h-.1v-.2l-.3-.4-.1-.1v-.1l-.1-.1v-.1h-.2v-.2h-.1v-.1l-.1-.1h-.1v-.2h-.1v-.2h-.2v-.1l-.1-.1v-.2l-.2-.1zm9.6 13h.9l.6.1.2.2v.1h-.7l-.1.1h-.3l-.1-.3h-.3v-.1zm5.6 1.9v-.3h.2v-.3h.1v-.1h.9v.2h.4v.1h.5l.1.1h.1l.2.1h.1l.2.3h.1l.1.2h.1l.2.1h.1v.2h.2l.2.1h.1v.2l.1.2h.2v.2l-.3-.4-.3-.1h-.2l-.2-.3h-.2l-.1-.2h-.7v-.2h-.7l-.2.3h-.3v.1l-.3.2h-.1v.1h-.3v-.4l-.3-.2zm1 .9l.2-.1.2-.3h.1l.1-.1h.6l.2.3.5.1.3.1.4.3.3.2.3.3.2.1.2.2.2.2.3.2v.1l.4.2.1.2v.2h.2v.2h-.5l-.3-.3h-1.7l-.4-.1-.4-.2-.2-.1-.2-.1h-.2l-.2-.3-.2-.1-.1-.2-.2-.5v-.1l-.2-.1zm3.1 4.9v-.4l.1-.2v-.2l.1-.5h.9l.2.2.2.1h.1l.2.1h.3v.2h.1v.1h.3v.6h.2v.1h.2l.2.2h.2v.1h.1v.2h.1l.1.1.2.2h-.3l-.4.2h-1.3l-.3-.2h-.2l-.1-.1h-.8l-.1-.2h-.2l-.1-.3-.1-.1V64zm2.7-.3v-.3h.6l.2.2v.4h-.5l-.2-.3h-.1v-.1zm1.3-1.3V62h.2l.1.2h.1v.1h.1v.1h.3v.1h.1l.1.1h.1v.1h.2v.3h-.1l-.2-.2h-.2v-.1h-.4v-.2h-.2v-.1h-.2v-.1h-.1zm.4 1.4h1.1v.3h.2l.3.2h.2l.2.4.1.1.5.5.2.3v.2h-.2l-.3-.3-.4-.1h-.2l-.2-.3h-.7v-.2h-.1v.2h.3-.3l-.2-.1v-.2l-.4-.2v-.7zm14.4 12.3v-.2h.7v.2-.2h.3v.2h.4v.2h.1v.1h.1v.1h.1l.2.1.2.1.2.1h.1l.1.2h.2l.1.1h-1.3l-.2-.3h-.7v-.1h-.3v-.1h-.2v-.1h-.1v-.1l-.1-.1v-.1zM-84 95.3h.3l.1.2v.2h.3v.1h.2v.2h.1l.1.3.3.2.2.5v.1l.2.2v.5h.2v.8h.2v.3-.4h-.2v-.2h-.2v-.2h-.1l-.1-.1-.1-.2h-.1v-.2h-.1v-.1l-.1-.1v-.1h-.2V97h-.2v-.2l-.2-.1v-.2l-.2-.2v-.1h-.1V96h-.2v-.3l-.1-.1v-.1zm17 14v-.2l.1-.1h.2l.4-.2h.5l.5-.2h2.8l.3.3.3.1h.4l.2.2h.5l.3.1v.1H-62l-.1.1h-1.2l-.1.1h-.3l-.4.1h-.1l-.1.2H-66l-.2-.4h-.4l-.2-.1h-.2v-.2zm1.7 1.6v-.2h.1l.4-.2h.8l.3-.1.3-.1h2.1l.3.2h1.1l.3-.3h.9l.3-.1h.6l.4-.1h.7l.4-.2h.6l.3-.1h.7v-.1h1.4l.3-.1h.3l.2-.3h.3l.1-.2h.2l-.1.3-.3.2v.3l-.1.1-.2.2-.2.3-.3.2-.3.2-.3.2-.3.1-.1.1-.2.1h-.2l-.1.2h-.4l-.2.1h-.4l-.1.1h-.4l-.3.1h-.2l-.8.2h-.2l-.1.2h-.3l-.3.2h-.7v.1h-1.7l-.1-.2h-.3l-.2-.1-.2-.2h-.1l-.2-.1-.2-.2h-.2l-.2-.3h-.5l-.1-.2h-1l-.2.3h-.7v-.3h-.3v-.2h-.2v-.2zm20.3-11v-.2h.2zm1.1 1.1v-.3h.2v-.7h.1v-.2h.2v-.2l.2-.2.1-.3.1-.1v-.4h.2v-.3h.1V98h.2v-.2h.1v-.2l.3-.2.1-.2.1-.2.3-.3.2-.1v-.2l.2-.2v-.1h.1V96l.1-.1.2-.3h.1l.3-.3.1-.2.1-.1v1.8l-.2.2v.2l-.1.3v.6h-.2v.2l-.1.1v.1l-.2.3v.1l-.4.3-.4.4-.2.2-.2.1v.1h-.1v.1l-.2.3-.1.2h-.1l-.1.1h-.2v.2l-.1.1h-.2l-.1.1h-.4zm18-33v-.4h.1l.1-.1h.2v-.2h.3l.1-.1h.2V67h2.2v.3h.4v.1l-.4.1h-.4l-.1.2h-.3l-.5.2-.5.2h-1.4zm8.1-2.7h.5zm34.5-15.5v-.3l.1-.1.2-.2V49h.3v-.3l.3-.1.4-.3.5-.1.4-.2h.1v.2l-.3.2-.4.4-.2.2-.1.2-.6.4h-.1l-.1.2zM34 18.5v-.4l.2-.1v-.2h.1v-.3h.2v-.2h.2v-.1l.3-.2v-.1l.1-.1.2-.1.1-.2.2-.3V16h.2v-.3h.1v-.4h.1v-.5l.2-.2.1-.3v-.2h.2V14h.2v-.3h.2v-.3h.1v-.1l.4-.3.2-.3h.1l.1-.1.2-.2.3-.2.2-.2.2-.2.3-.2.2-.1.2-.2.3-.1.1-.2h.8l.1-.2h.9l.4.2h.2v.2h.2l-.4.1v.1h-.2v.1l-.2.1v.1l-.1.2h-.1l-.1.3h-.1l-.2.2v.1l-.2.2-.1.3-.1.2-.1.1v.4h-.2l-.1.3h-.1v.3l-.1.1v.3l-.1.3v.1l-.2.2v.2l-.1.1v.2l-.3.1v.3h-.2v.3l-.1.1v.1l-.2.3v.1l-.3.1v.2l-.2.1v.2h-.1v.2l-.2.1h-.2v.3h-.6l-.2.2h-.2l-.2.1h-.1l-.2.1-.3.1-.2.2h-.2l-.1.2h-.2l-.1.2H35l-.1.2h-.4v-.4h-.1l-.1-.2-.3-.1v-.2zm1 2.4v-.4h.2v-.2l.1-.2h.1l.1-.3.2-.1h.1l.2-.2.1-.1h.1l.1-.1h.2v-.1h.3l.2-.1.3-.1h.3l.2-.2v.4h-.3v.2h-.2v.2h-.1l-.2.3v.1l-.2.2h-.4v.1h-.2v.2l-.2.2v.1h-.2v.1l-.2.1H35zm5.6-6.9v-.3h.1v-.2h.1v-.2h.1v-.1l.1-.2v-.2l.1-.2.3-.2v-.2h.2V12l.3-.2v-.1h.1v-.2l.3-.1.2-.1h.5l.3-.2h.1v.2h-.2v.3H43v.2h-.2v.2h-.1l-.1.2-.1.2-.1.1-.1.2-.1.1-.2.2-.2.3-.1.1-.1.2-.2.1v.1l-.4.2-.2.2h-.2zm-.1 0"/><path d="M49.8 3.2l.8.7.7.8.2-.2.1-.1.2-.1.1-.1h.1v-.1l.2-.1h.1v-.2h.3v-.1h.2v-.1l.2-.1.2-.1.1-.1.2-.1h.1l.1-.1h.1l.1-.1h.6v-.2h.4l.1-.1h.3l.2-.1h.2l.1-.1h.7l.2-.2.3-.1h.5l.1-.2h.6l.2-.2h.3v-.1h.5v-.1h.2l.2-.1.3-.1h.2l.1-.1h.3l.3-.1h1l.3-.1h.5l.2-.1h.8V.8h.4V.7h.3l.2-.1h.2V.5h.3V.4h.4V.3h.6V.2h.4l.1-.1h1.7l.2.3h.2v.1h.8v.1h1.1l.1.2h1.2l.2.1h.5l.2.1h1.1l.1.2h.4v.1h.3l.1.1h.3l.3.1h.2l.1.1h.2l.2.1h.3l.4.2h.2l.2.1h.1l.3.1h.2l.3.3.3.2.7.2.2.3.1.1.5.6L81 5l1 .7.5.3.2.1.3.1 1.3.5h.3l.2.2.7.1h.2l.5.3h.1l.3.1h1v-.3l.1-.1h.4v-.2h.3v-.1h.1l.9-.5.7-.4h.2v-.2h.3l.1-.1.8-.3h.9l1-.2h1l.4.3h.2v.1l.4.2v.1h.1l.2.2.2.1h.1l1.7 1h.7l.6.4h.2v.1h.2l.6.4h.2l.2.1.8.6.4.1h.1l.4.3.2.1h.1l.1.2h.2l.1.2h.3l.5.2h.3v.1h.4l.1.1h.9v-.3h2.4v.3h.2v.4h.1v.2h.2V10h.4v.3-.3h-.4v.4h-.2v-.6h-.2v-.1h.8l.4-.1h1.8l.2.3h.2l.2.1h.2l1 .8h.3l.5.4.4.1h.4l.2.2h2.1l.3-.4.8-.1.6-.3.3-.2.4-.3.2-.3.3-.4.3-.5.3-.5v-.8l.4-.7V5l.1-.3v-.2l.2-.3.1-.8v-.2l.2-.6.5-2.6v-1.3l.2-.3v-.8l.2-.3V-3l.1-.2v-.3l.2-.5.2-.2.2-.3.1-.2v-.1l.1-.2.2-.2.2-.3.3-.4.2-.1.1-.3.6-.5.2-.2.2-.2.9-.8.8-.9.4-.2.4-.3.1-.2h.1l.2-.2.2-.2.1-.1.3-.3.4-.4.6-.6.3-.3.4-.3.6-.5.2-.2v-.1h.2v-.2l.5-.2.5-.4.2-.2.1-.1h.2v-.1l.2-.1v-.3h.1l.2-.1-1.4-1.5-1.6-1.7-.4.3h-.2v.2h-.3l-.1.1-.4.1h-.3l-.3.1-.4.2h-.2v.2h-.2l-.4.1h-.1l-.1.2h-.4l-.2.1-.5.1h-.3l-.1.3h-.4l-.2.2-.3.2h-.2l-.2.1-.5.3-.3.3-.5.4-.2.1v.1l-.3.2-.3.2-.3.1-.3.3-.1.1v.1h-.3v.2h-.1l-.2.2-.3.2h-.1l-.1.1h-.2v.2h-.1v.1l-.2.2-.1.1-.3.4h-.2l-.1.2-.1.1-.1.3-.4.3-.5.3-.9.6-.3.2-.2.1h-.2l-.4.2h-.5l-.3.3h-.1l-.1.1-.4.1-.6.3h-.3l-.1.2h-.2l-.4.2h-.2l-.4.3-.1.2h-.2v.1l-.2.2-.1.3-.4.2h-.2l-.3.3h-.3l-.2.2-.7.3-.9.5-.2.2h-1l-.7.4h-1.3l-.3.2-.4.3-.5.1-.3.4h-.4v.1h-.2v.5l-.1.1-.3.4-.3.4-.1.2-.1.1-.2.4v1.2l-.2.2v.6l-.2.3h-.1l-.3.5h-.2l-.1.2h-.1l-.2.1-.3.1-.2.2-.6.1H99l-.3-.1h-.5l-.2-.2h-.3l-.5-.1h-.1l-.3-.2h-2.4v-.2H94l-.1-.2-.3-.1-.1-.2V.7h-.3V.5h-.6l-.1-.1h-.9V.3h-.4v.3h-.7l-.2-.3-.3-.1h-.6v.3l-.2.1v.2l-.5.5-.2.3-.1.1h-.3l-.4.1h-3.1l-.3-.2-.5-.3h-.5l-.1-.1-1.4-.4-.6-.1H81l-.6-.1h-.1l-.8-.5-.3-.1h-.7v-.3H78v-.1h-.3l-.1-.2h-.3v-.1h-.5l-.4-.3h-.9l-.1-.3H75v-.1l-.3-.1h-.3l-.1-.3-.2-.1V-2H74v-.2h-.3v-.1h-.1l-.2-.1h-.2v-.2l-.2.2h-.5v-.2h-.4v-.1H72v-.5h-1v-.4l-.3.1h-.1v.2h-.4v.1h-.1l-.1.1h-1.1v-.2h-.3l-.1-.3h-.2l-.4-.2-.1-.1h-.2V-4h-.2v-.1h-.1v-.2h-.2l-.1-.1h-.1v-.1h-.4v-.1h-.2l-.1-.1h-.7l-.1-.1h-1v.3h-.6l-.3.2h-.1l-.4.1h-.1v.1h-.5v.1h-.6v.2h-.3v.1h-.1l-.2.1h-.1l-.1.1h-.2v.1l-.3.1h-.2v.1h-.2v.1H60v.1h-.4l-.2.2h-.2l-.2.2h-.2v.1h-.3v.1h-.2v.1h-.1v.1h-.6l-.1.2H57l-.2.2-.2.1h-.1l-.1.1h-.2l-.2.1h-.4l-.2.2H55v.2h-.2l-.1.1h-.1l-.3.1h-.1l-.3.3-.3.1h-.2l-.1.1-.3.1v.1l-.1.2h-.4v.2h-.1v.1h-.2v.1h-.1v.2H52v.2h-.2V1h-.1l-.2.2-.1.1v.3h-.2v.1H51V2h-.1v.2h-.2l-.1.1-.1.1-.1.1v.1h-.1v.1h-.2v.2H50V3zm7.6-3.5v-.2h.3v-.2h.1l.2-.1.2-.2h.4l.3-.2h.1l.1-.1h.5v-.1h1.1l.1.3h.2l.3.1h.4l.1.2h.2v.1h-.5v.1h-.2l-.1.1H61l-.2.1h-.3v.1H60v.1h-.3l-.2.1h-.6V0h-1.6v-.3zm4-2l.3-.2.2-.2h.2v-.1h.3v-.1h.2l.2-.1h.6l.2-.2h.2l.4-.1h.1l.2-.1h.7l.2-.1h.8l.3.3h.1l.2.1h.1l.2.1h.3l.2.3h.2l.2.2.3.2h.1l.2.1h-.4v.1h-.7l-.1.1h-.9l-.3.2h-1.4l-.3.1h-1.6l-.2-.3H62l-.2-.2-.2-.1h-.2v-.1zm12.3.6h.2v.2h.1-.3zm8.2 5.3v-.2h.9l2.2.5h.2l.9.2h.5l.3.2.4.2h.2l.5.2h.2v.2h.3l.1.1-.6.4-.8.1-.6.1h-.3l-.1.2h-.9l-.2-.3-1.1-.2-.3-.1-.6-.3-.4-.3-.5-.5-.2-.5zm6.9-2v-.2l.2-.3.3-.3.1-.1.1-.2.4-.2h.5l.2.3h.6l.2-.1h.5l.1.2h.9l.1.1h.3l.4.2v.2h.1l.2.2h.2v.1h.2v.1H94l-.5.2h-4.7zm5.4.8l.1-.2v.3h.2v-.3h.2v-.1h.3l.3-.1h1.2l.2.3h.7l.1.2h.5l.3.2h.7l-.4.2H98v-.3h-.3v-.2h-.6l-.2.4h-.1l-.4.2H96l-.2-.2v-.2h-1.2l-.2-.1h-.1l-.2-.1zm1.2.4h.6V3h.8l.2-.3h.2l.3-.2h.3v.3l.4.2h.8l.2-.3h.2v.5l-.3.1h-.3l-.2.2h-1.7l-.4-.3L96 3h-.5l-.1-.1zm4.3.3v-.3h.5v-.2h.2v-.1h.1l.5-.1h.4l.3-.2v.3l-.3.1h-.2l-.2.3h-.2l-.2.1-.4.1zm.8.9v-.2l.4-.1h.1v-.2h.3v.3h-.3V4h-.4zm1 .2l.1-.2.6-.5.5-.5.2-.2h.1l-.1.2-.2.4-.3.4V4h-.2l-.3.3h-.2l-.2.1zm0 1V5l.7-.7.2-.2.3-.3.1-.1v-.2l.2-.1V3h.3v-.2l.2-.1v-.2l.7-.5.4-.3h.2l.2-.1.6-.2.2-.1.4-.3h.2l.1-.1.2-.2h.1l.2-.2.4-.4.3-.3h.1l.5-.4.7-.6.4-.3v-.1l.3-.1.4-.3.3-.3.3-.1.3-.3.5-.1.2-.2.3-.1.7-.4h.3v-.1h.2l.5-.4.6-.4.2-.3h.2v-.2l.2-.1.1-.2.4-.2v-.2h.1v-.2l.4-.2.2-.3.8-.7.1-.3.3-.2.7-.4.2-.1.2-.1.2-.1h.2l.1-.2h1.1l.4.2.4.2h.5v.3l-.1.1-.3.4-.3.4-.2.3v.1l-.4.4-.2.7v.1l-.2.6-.1.3-.3.7v.3h-.2l-.5 1.1-.1.2h-.2v.3l-.3.3-.3.4v.1l-.4.3-.4.6-.4.4-1.1 1.1-1 1.3-1.4 1.5-1.1 1.4-1.2.9-.6.4-.4.3-.4.4h-.2v.2h-.2l-.5-.3-.9-.2h-.2l-1.5-.4h-.3l-.2-.1-.2-.1h-.5l-.1-.2-.4-.1-.6-.1-.5-.1-.2-.1h-.1l-.6-.6-.3-.1-.1-.1zm0-4.2l.3-.2h.1V1l-.2.1h-.2zm.3-.5l.2-.2V0v.5zm.6-1V-1l.2-.7V-2l.4-.2v-.2l.5-.5.3-.1.5-.5.4-.2v-.1l.3-.1V-4h.3l.1-.2 1.2-.1h.6v.3h-.2v.3h-.2v.1h-.1v.1h-.2l-.4.3-.5.1h-.2v.1h-.1l-.1.4-.2.2-.2.1-.3.1-.1.2h-.1v1l-.3.2-.4.3-.4.4v.4h-.4V0h-.4v-.3h-.1v-.1zm1 .3v-.1h.1l.2-.2h.2V0l-.3.1h-.2V0zm.4-3.6h.2V-4zm.2 3.1h.3l.5-.3h.2v-.2.3l-.3.2h-.2l-.2.3zm.5-1v-.1l.1-.2.1-.1.3-.3.3-.3v-.2h.2V-3h.3l.2-.1.3-.1.1-.2h.3v-.2h.2v.4h.1l.1.1h.3v.3h-.4v.1l-.4.1-.5.4-.5.5h-.3l-.2.3-.4.2h-.2v-.2l-.1-.1v-.1zM105 1V.7h.2l.1-.1h.7V.4h.5v.4l-.5.2h-.2l-.4.1h-.4zm.5-1l.1-.1v-.2l.3-.1.1-.3.6-.3.4-.2.4-.3h.3l.2.2h.2l-.4.5-.4.5-.7.4h-.3l-.5.3h-.2V.1zm1.5-3.6l.2-.2h.2v-.1l.5-.2v-.1l.3-.2.9-.6.3-.1.6-.3 1-.4.3-.1.1-.1h.1v-.2h.2v-.1h.3v-.1h.2v-.1h.1l.7-.5.1-.2.2-.1v-.1l.4-.2.4-.2.6-.3h.2l.3-.3h1.5v-.1h.2v.2l-.3.1-.1.2-.3.1-.3.3-.7.7-.2.3h-.1l-.2.3h-.3v.1h-.2v.2h-.2l-.2.1-.2.2-.2.2h-.1l-.1.2h-.2l-.2.1-.3.2h-.2l-.2.3-.5.1-.4.2-.5.2-.7.4h-.5l-.5.3h-.4l-.4.1h-.2l-.3.2h-.3v-.3h-.4zm.6 2h.2l.2-.4h.2l.4-.2h.7v-.3h.1v-.1h.1l.2-.2h.3V-3h.3v.4l-.1.2h-.4l-.3.2-.3.2h-.2v.2h-.3v.2h-.3l-.1.2h-.2l-.1.1h-.4zm.7.4h.2v-.3h.3v-.1l.4-.2-.2.2-.5.3h-.2zm3.5 9.9v-.3h.2l.4-.3.6-.4.9-.6.1-.2h.3v-.2h.3l.4-.3.4-.2.5-.1.6-.2h.1l.4-.3.8-.2h.3l.2-.2h.4V5h.3v1.1l-.2.3v1.3l-.1.3-.1.2v.2l-.2.2-.2.4-.2.1-.2.2-.2.2-.4.2-.2.3-.4.1h-.3l-.3.3h-1.7v-.3l-.3-.1-.5-.3h-.1l-.4-.3-.5-.3-.5-.1h-.2zm0-15.4l.2-.3v-.1l.4-.2.1-.1.3-.2.6-.3h.1l-.1.1-.4.3v.2l-.6.3-.3.2h-.1v.2h-.3zM115 4.4v-.1l.2-.1V4l.2-.1v-.1l.1-.1.1-.3h.2l.5-.6.4-.4.8-.8.3-.4v-.1l.8-.8.4-.6v.5h-.2v.4l-.6.5-.1.2h-.1v.2h-.4v.1h.6v.1l-.4.3-.1.2v.3h-.2l-.3.3-.1.2-.1.2v.5l-.6.3-.4.2-.3.2-.7.2zm.5-12.8h.2v-.2h.5v.4h-.7zm.6 0v-.2h.1v-.1l.5-.3h.9v-.3h.2v-.1h.2v.4h-.4l-.3.1h-.1l-.3.3h-.3v.2l-.1.1h-.5v-.2zm.9 11.7v-.2l.4-.1-.2.4h-.2zm1.5-14l.1-.3h.2v-.2h.1l.1-.1v-.1h.2v.2l-.2.2-.3.3zm.2 13.4v-.3l.1-.1.2-.3.1-.2h.2l-.3.4v.2l-.1.4h-.2v.1h-.1zm.5-11.7v-.2l.1-.2.2-.2.2-.4h.4v-.3h.2v-.1l.1-.1.2-.2.4-.2v-.1l1-.6.1-.1.2-.2.4-.3.2-.2.4-.4.3-.3.1-.2.3-.1h.1l.5-.5h.4v-.1h.2v-.1h.1v-.2h.3l.2-.2h.1v-.2h.5l.2-.3h.5l.3-.2.4-.2.4-.1h.2v-.2h.2l.2-.1v-.1h.2v-.1.3h-.2v.1h-.1v.1h-.3v.2h-.2l-.2.2-.2.2v.2l-.5.2-.2.2-.1.3h-.4l-.2.2-.2.2-.4.4-.2.1-.2.3h-.1l-.3.3v.2l-.4.1-.2.2-.4.5-.2.3-.5.5v.1l-.5 1h-.1l-.1.2-.4.4-.2.1-.2.2h-1.4v-.2h-.6l-.1-.1zm7.4-.4h.1v-.2h-.2v-.2h1.1v.2h-.3l-.2.2h-.3l-.2.1zm.8-.7v-.2h.2v-.2l.3-.1h.1v-.3h.3l.2.2v.3h-.4v.1h-.1v.2l-.3.1v.2h-.2v-.3zm1.3-1.6h.2v-.2h.1v-.1l.4-.2v-.1h.2v.3h-.3l-.1.1-.2.2v.1h-.3zm2.1-2l.2-.2h.2v.3h-.2l-.2.1h-.2zM28.4 164.9l.2.6.3.5.5.8.1.4.5.4v.4l.2.4v.6l.1.7v.3l.2.2.1.1.2.3.2.2v.3l.3.4h.7v-.2h.4l.1.2h.4v.3h.1v.2h.2l.3.6.1.1.3.3.1.1.1.3.4.4.1.2h.5l.1-.3h1.9l.7.3.6.1 1.4.4.3.2.1.2.2.5.1.5.1.2.4.3v.1l.2.2v.3h1.2v-.4h.1v-.1l.5-.2h.1l.2-.1h.9l.1-.1.2-.1h.1l1.2.3.6.3.4.5v.3h.2v.2h.2l.1.3h.1l.1.1h.3l.2.2.5.1.3.1.4.2h.5v-.2h.6l.3.4.2.5.2.4v.6l.5 1.5.2.5.2.3v.3l.3.6.1.2h.2l.3.3.2.1.3.1h.3l.2-.2h.2v-.3h.5l.2.3.1.2v1.8l-.1.3-.2.2h-.2l-.3.3h-1.6l-.4.1v.4l-.6 2-.1.6-.4.9-.5 1.3v.5l-.4.9v1l-.3.5v.7l-.2 1v.3h.8l.3.2h.3v.2h.1l.3.4h.3v.2l.4.6.5 1 .1.4.2.7v.2l.2.3v.2l-.2.3-.6.8-1 1.9-.2.8v.6l-.1.2v.1l.1.1.1.1.3.2h.2v.2l.3.3.1.5v.3l-.2.2-.2.3-.4.2-.7.1-.5.2v.2l.3.3v-.1h.1v-.2h1.4l.1-.2h.1l.3-.7.1-.3v-1l-.4-.7v-1.7l.2-.2.2-.7.1-.2.1-.2h.3v-.1h.3v-.5l.4-.2-.3-1.1-.2-1v-.3l-.1-.9-.2-.5-.4-.5-.3-.3-.2-.4-.2-1.3v-.7l-.7-1.1V192l.1-.5.3-.5.6-1.3.3-.3.7-.5h1l.2-.4.1-.3.1-.6.3-.4.3-.5.2-.5.2-1.3v-.1l.1-.2v-.6h-.2l-.2-.2-.3-.5-.1-.3-.2-.4-.2-.2-.5-.1h-1.3l-.5-.3-.2-.3v-1l-.1-.2v-.4l.3-.4.1-.1v-.6l-.1-.3-.4-.4-.3-.2h-.4l-.6-.8-.7-.3-.2-.2-1.9-.5-.1-.3h-.3l-.4-.2-2-.3-1.7-.6-5.8-1.9-1.3-.6-.5-.2-.4-.4-.7-.4-.4-.4v-.1l.1-.1v-.2l-.5-.3-.3-.5-.3-.4-.3-.5-.5-1-.1-.4-.5-.1-1.1-.4-.3-.1-.2-.1-.1-.3v-.7h.2l.4-.2h.1l.1-.2.4-.2.2-.2.2-.3.1-.5h.1V160h.3v-.3h-.4v-.2h-.3l-.3-.2h-.2l-.5.2h-.5l-.2-.2v-.1l-.2-.2v-.4l.3-.5.6-.4.7-.2h.8l1.1.5h.7l1-.8 1.9-1.2 1.6-1 1.6-1.2 1.3-.2 1.7-.6 1-.5.4-.3.6-.8.3-.7.1-.8v-.9l-.4-.9-.2-.8v-.4l.1-.3h.5l.1-.6.3-.3.2-.4.3-.7.5-1.6.4-.3h.8l.7.2.7.1h.2l.5.5.5.2.5.2h.9v.1h.4v-.3l.2-.2.4-.5.4-1 .1-.3.6-.7.2-.5.2-.3.4-.8 1-.6 1.9-1 .8-.8.5-1 .2-1.4-.4-.6-.2-1-.4-.7-.3-1.2v-1.8l-.6-1-.5-1-1-.6-.6-.2-.9-.1-1-.6-1.8-1.8-.4-.7-.2-.5-.9-.8-.5-.5-.5-1-.2-.3v-.8l.3-.4h.1l.3-.2.4-.1h.4l.4.3.3.4.5.2h1l.2-.2v-.1l.8-.5.2-.3.3-.5v-.7l-.1-.3-.3-.6-.1-.1-.1-.1-.2-.1v-.3l-.4-.3h-.2l-.4-.3-.7-.2h-.9l-.3-.4-.5-.3-.2-.3.1-1.1.2-.1.1-.6.5-.6.2-.4v-.2l-.1-.6v-.8l.4-.6.1-.2.3-.8.3-.4.2-.2v-.8l.3-.2v-.5l.1-.9.2-.6v-.5l.4-.9.3-1 .3-.4.3-.3.1-.1.1-.2.5-.4h.1l.2-.3h.3v-.3l.2-.4v-.8l-.3-.2-.1-.2v-.1l-.2-.2V98h-.2v-.4l-.2-.2-.1-.2-.3-.1-.3-.1-.3-.1h-.5l-.1.1-.2.2-.5.2h-.3l-.2.3-.2.3-.3.5v.2l-.3.3v.2l-.2.2H50l-.2.2h-.2l-.2-.2v-2.1l.5-.8v-.1l.1-.2v-.4l.2-.8.1-.5.1-.1.2-.2.2-.2.3-.3h.1l.1-.3h.1l.1-.2.1-.2.2-.2v-.3l.2-.1V92l.2-.3v-.5l.1-.2.2-.4.3-.2.1-.1v-.8l.1-.1.1-.2.2-.2.1-.2.2-.2v-.2l-.2-.6v-.7l.4-.7v-.1l.2-.1V86l.1-.1.2-.2.4-.4.3-.3.3-.2h.1l.4-.4h.2l.2-.1.6-.3h1.5l.2-.3.4-.2h.1l.2-.2h.1l.1-.1V83h.2v-1l-.4-.8-.1-.4-.2-.2-.1-.2-.3-.1-.2-.4-.2-.3v-.8l-.3-.5v-2l.2-.3v-.8l.2-.1v-.3l.2-.2.2-.3.2-.1.1-.2.3-.2.7-.8.3-.1.1-.6.1-.2.2-.1v-.1l.3-.1v-.1l.2-.1.4-.2.3-.2h.3l.3-.2.3-.2.5-.2h.4l.2.1.2.3h.6l.2-.2.2-.3.3-.2.2-.3h.1l.1-.2h.1v-.1h.2v-.1h.4v-.3l.6-.3.2-.2.2-.2.1-.2.2-.1V68h.3l.2-.3v-.1l.1-.2h.3v-.1h.2l.1-.2.3-.1h.1l.4-.6h.2l.1-.3h.2l.1-.1.4-.2.3-.2.3-.2.3-.2.4-.2v-.2l.3-.2.1-.2.1-.3v-.6l-.4-.5-.1-.3-.5-.2-.2-.5v-.4l.1-.3h.2l.2-.3h.2l.2-.2h.5l.2-.2h.1l.4-.1h.9l.7.3.3.2h.3l.3.2.4-.4v-.1l.2-.2.1-.2.6-.7v-.1l.3-.2v-.1l.2-.2.1-.2.2-.3.2-.2.1-.1.2-.2h.1l.2-.3.5-.2.8-.7v-.2l.1-.1V56h.1v-.1l.2-.5.2-.4.3-.1v-.1h.4l.2-.3h.4l.4.3.6.4.4.3h.3l.3-.2h.4l.2-.1.2-.2.2-.1h.1l.4-.5.2-.2.2-.2.1-.3v-.2h.2v-1.2L86 52v-.3l-.2-.1v-.9l.2-.5.2-.2.1-.2.3-.2.2-.2h.2l.2-.1.4-.1h.8l.6.2.3.4.1.2v.3l.2.4v.3h.2v.5h.1v.5l.2.6h.2l.2.1h.5v.1l.7.2h.7l.6-.4h.3l.3-.3.3-.3.3-.3.1-.2.3-.5.4-.5v-.1l.3-.4v-.2l.3-.3.1-.5.2-.3.5-.5h.1l.1-.2.4-.1v.1h.3l.5-.4 1-.3.5-.5.7-.3.8-.2h1.2l.6.1h.2l.4.3.5.2.1.2.3.3.4.6v.4l.2.1.1.2h.2v.1l.5.3v.2l.7 1h.1v.3h.2l.7 1 .8.4v.3l.2.1h.1l.7.6.7.3.5.5.9.4.2.7h.3l.1.1h.3l.3.2.4.2.6.2.4.3.2.4.1.3.2.3v.1l.2.2v.2l.8 1.6v.6l.1.1v.7l.1.7v.6l-.3.7v.5l.1.1v1.4h-.2v1.1l.2.4v.7h-.2v.4l.3-.2v.2h-.2v.8l-.1.6-.1.5.1 1v.1l.5.4h.1v.2l.4.4.1.2v.3l.3.9v.1l-.3-.5h-.1l.1.2.3.8.2.5.3.7v.1l.2 1v.5l.5.6.1.2.5.7.4.7.1.2.8 1.2.2.1v.3h.3v.4l.8.3h.1v.3l.3.2.3.3.7.7 1.5 1 1.1 1 2 .8 1.2.2 1.4.4 1.5.5h.6l.1-.3h.6l.9-.2.8-.5 1.1-.6 1.4-1 .8-.3 1.6-1.1.5-.9 1-1 .5-.8.7-.4.7-.3h.6l.1-.2 1.1-.3.8-.2.6-.1.7-.1.7-.1h.1v.5l.1.4.2.5h.5l.3-.5.3-.3.8-.1.6-.8.5-.4 1.4-.4h.7l.4-.1 1 .2.3.2.7-.2.7-.6.6-.7.3-.2.4-.1.7-.9 1.8-2.2.6-1.3.6-1.3.6-1.2.4-.4.6-.3.2-.3.8-1.4 1-1.2V63l.8-.5.5-.5 1.1-.5 2.8-1h1.5l1.9-.3.6-.2h1.6l1.2-.2.7-.1.6-.5 2.7-2 1.7-1.3.4-.7 1-.7.7-.5.9-.7.5-.7.2-.8v-.5l.5-.3 2.6-2.4.8-.8.7-1 .6-.7 1.3-1.4 1.4-1.4 2.3-1.5 3.2-1.8 1-.6.5-.1 1-.3h.3l.4-.4.5-.2h.1v-.1l.4-.3h.2l.4-.7.4-.5.2-.5.7-1.4 1.2-2.4.8-2.3.1-.7v-.9l.4-.8.3-1.2.5-1.6v-.1l.6-.2v-.2l.2-.2.2-.7.1-.3.1-.3h.1l.5-1.1.2-.4.2-1 .3-1.2v-.7l-.2-.1v-.3h.3l.1.1.6-1 .9-2.3.5-2 .4-1.8.3-2.2.4-2.3.3-1.4v-5l.3-.5v-.3l-.3-.3-.3-.2-.6-.5-.7-.4-2.3-1.3-.6-.5-1-1.1-.2-.4-.2-.1-.1-.2v-.1l-.3-.1v-.1h-.2V-6h-.6v.2h-.2l-.2.3h-.2l-.2.1h-.3l-.3-.3-.2-.3v-.3l-.2-.1v-.1L205-7l-.4-.3-.2-.3v-.1l-.4-.4-.4-.5-.3-.6-2.6-4.3-.2-.6-1-.9-.7-.5-.4-.6-2.1.7.5.2.6.4 1 .8 1.1.5.8.9.6 1.1 1.1 1.8.1.7.2.2v.2l.3.1v.2l.4.3.2.3.3.4.4.6.1.2v.2h.2l.3.5.5.6.2.1.4.4.4.5.4.2h.1l.5.3.4.2.3.2h1l.3.2.4.1.4.2.5.3.3.1.4.3.3.2.2.1.2.2.2.1.2.2.4.6.6.8.2 1v1.1l-.1 3.9-.7 5.5-.9 2.4-.3 1-.3.8v.1l-.9 2.1-.4 1v.3l-.3 1.3-.4.6-.2.5-.4.5-.4.6-.2.7-.3.8-.3.2-.2.5-.4.7-.1.4v.7l-.2 1-.1 1.4-.4 1.8-.8 1.9-.3.6-.6 1-.3.5-.3.2-.3.4v.2l-.2.2-1.3 1-.8.4-.8.8-1.3.8-.8.4-.7.6-.3.2-.8.2-1 .5-.7.5-1 .6-1.1.9-1.4 1.4-1.1 1.1-1 .9-.9.9-.7 1-.3.8-.4.3-.8.4-.3.3-1.2 1.2-1.6 1.8-.6 1-1 1-1.3 1.6-1.5.9-1 .7-.3.1-.8.1-1.3.2-.6.4-.9.3-.7.2h-1l-1 .3H169l-.7.2-1.8.6-.6.1-1 .7-1 .8-.7 1-.4.4-1 1.4-.8.9-.2.8-.5 1-.3.7-.5.6-.5 1.7-.8 1.3-.6.8-.7.6-1.6.8-.9.3-1.2.6-1 .4-1.3.3-2.2.8-.7.1h-.5l-1.4.3h-1.6l-1 .6-1.5.2-.4.2-.4.2-.5.3-.7.5-.6.6-.4.6-1 .6-.6.6-.9.8-.9.8-.3.2h-.1l-.2.3-.2.1-1 .7-.2.2-.8.3-1 .1h-1.4l-.8-.3h-.3l-.5-.3h-.8l-1.7-.6-.8-.3-.8-.7-.5-.7-.5-.6-.4-.1-.7-.3h-.2l-1.5-1.2-1-1v-.3l-1.1-1.1-.4-1-.6-1.4-.2-.3-.1-.7v-.3h-.2l-.2-1v-.1l-.3-1.4v-.4l-.1-.3v-1.9l-.5-1.3v-.9l.2-.3v-3.6l-.1-.3V62l-.1-.6v-.2l-.2-.2v-.9l-.1-.3v-.4l-.2-.2v-.5l-.3-1-.4-.9-.2-.2-.8-1-.4-.7-.8-1v-.1l-.3-.3-.1-.1-.5-.4h-.7l-.2-.4h-.4l-.6.1-.4-.4-.9-.5v-.1l-.2-.2-.1-.1-.4-.4-.9-.8-.3-.2-.3-.5v-.2l-.2-.1-.1-.7v-.2l-.2-.1v-.3l-.2-.3v-.1l-.2-.3v-.4l-.2-.2v-.2l-.2-.3-.2-.2-.1-.2h-.2l-.3-.3h-.8l-.9.4h-.5l-.8-.1h-1.7l-.1.2-.1.1-.2.1h-.1l-.5.5-.3.1h-.2l-.2.2h-.6l-.4.1h-.5l-.3.4-.2.1-.5.5h-.1l-.1.2-.3.2v.1h-.2l-.1.3h-.1l-.2.3-.1.3v.7l-.3.2-.4 1-.3.3-.1.2-.3.2-.5.4-.4.1h-.5l-.3-.3-.3-.2-.3-.3V51l-.2-.1v-.1l-.1-.2-.2-.4v-.8l-.1-.1h-.2v-.2h-.2V49h-.4l-.2-.4h-.4l-.2-.2h-1l-.3.4H87l-.7.4-.3.2-.5.6-.3.4v.7l-.2.3v2.3h.3v.3l-.3.3-.2.2-.3.2H84l-.1-.1-.4-.2h-.2l-.6-.2-.6-.1h-.8l-.3.2-.2.1-.1.1-.3.1-.2.1-.7.3-.2.3H79v.5h-.2v.5l.5.3h.1v-.3h.2v.3l-.3.2-.3.2-.3.3-.2.1-.3.2-.2.1h-1.2l-.3-.1h-.8l-.2.3h-.1l-.5.2-.1.2-.3.2-.2.2-.1.1-.4.4-.5.4v.1h-.1l-.2.3h-.3l-.1.3h-.2l-.2.1-.3.3h-.2l-.3.1-.2.1v.1l-.5.1v.1l-.1.4v.2l-.1.2v.5-.2h-.2v.7h.4v-.5.1l.5.6v.2l.1.4h-.1l-.3.5-.1.1-.2-.1h-.2l.2-.1v-.5.3l-.2.2v.3l-.3.2-.1.2-.5.7-1.3 1-.2.4-.2.2-.2.4-.3.4v.2h-.2l-.1.3h-.1l-.3.1-.5.4h-1.5l-.5-.2h-.4l-.7.2h-.6l-.1.3H62v.1l-.1.2-.1.2-.2.2-.1.1-.2.2-.3.1v.1l-.2.2-.1.1-.2.2-.3.3-.3.3-.4.5-.3.4-.2.2v.1l-.2.2-.3.6-.3.3-.2.2v.2l-.3.3-.2.4-.1.2-.4.8-.2.7-.1.3-.2.6v1.3l.4.1v.4l.2.1v.2l.1.2.2.1v.1h.2v.2l.4.5.3.2.3.2.1.3.3.3.1.2v.5l-.3.1v.2l-.3.1-.3.1-.4.1-.8.2-.6.1-.4.2h-.1l-.3.4h-.3l-.3.3-1.2 1-.2.2-.9 1.1-.1.2h-.2l-.2.4H52v.1l-.2.3-.1.4v.5l-.3.3v.2l-.1.4v.2l-.1.1v.2l-.2.1v.7l.4.3v1.5l-.4.1-.2.4-.3.4-.2.2-.3.1v.2l-.2.1-.2.2-.4.5-.2.2-.4.4v2l.2.5.2.6v1.1l.3.3v.1l.2.1h.4l.5.2h.2l.4-.2.1-.2.1-.2.1-.3.2-.2.1-.3.2-.2.2-.5.1-.1.1-.2h.2l.1-.2h.1l.2-.1h.3l.3.2.3.3.3.3.3.5v.5l-.1.2-.2.2-.4.4-.4.5-.5.4-.2.4-.2.4-.3.5-.2.3-.1.4h-.2v1.3l-.3.5v1.4l-.6 1.5-.4.7-.1.2-.2.4-.4.8-.4.4-.6 1 .2.4v1.1l.3.6-.3 1.3v.2l.1.1v.2l.2.2h.3l.1.2.7.3 1 .8.9.5h1l.2.5v.4l-.2.2-.3.1-.3.2h-.7l-1-.7H50l-.1.2h-.3l-.5.1h-.3l-.3.4-.2.2-.1.3-.2.2-.2.2v.1l-.1.2v.4l.3.5v.4l.3.3.1.4v.3l.2.2.4.5v.4l.5.5v.5l.2.3 1.3.4 1.5 1.2.9.8.5.7.3.1.5.1h.6l.3-.1.6.4.4.5.4.9v1.1l.3 1.9v.6l-.1.8v.2l.2.4.6.6.2.4v.4l-.5.7-.7.7-1.7 1-1.3 1-1.4.8-1.7 1-2.2 1.2h-1.4l-.8.2-.7.6-.4 1.6-.4.4-.6.7-.4.7-.1.7v2.2h.4v.4l-.5.8-.5.8-.1.3-.2.4-.5.4-.4.3-.7.1-1-.2h-.7l-1.2.4-.5.5-.7.5-.3.1h-1.1l-.7.7-.3 1-.3.7-.4.5-.5.2h-1.3l-.7-.3h-.8l-1.2.4-.5.6-.2.5v.8l-.1.8v1.6l-.1.8-.3 1zm.4-1.9v.2l.2.1.2.3v.2l.1.2v.3h.3l.1.3v.8l-.3.1h-.2v.2-.2l-.2-.1v-.4h-.2v-.2l-.1-.1h.2v-.3h.1v-.4h-.3v-.7zm.2-.2v-.3l.3-.4.1-.3v-.4l.3-.2v-.3h.2l.1.2v.2h.2l.3.4h.2l.3.2.1.1.1.3v.8H31v.3h-.1v.6h-1.3v-.3l-.3-.2-.1-.1-.2-.4zm0-2v-1.4h.3v.4l.1.2v1.1h-.2v.2H29v-.4zm.7-.6h.3l.2.3h.8v.5h.1v.7l-.6-.3h-.4v-.2H30v-.2l-.1-.3-.1-.1v-.1zm.1 4.2h.2v-.2h.3l.2-.1h.3v.6h-.2v.1h-.2v.2H30v-.3l-.2-.1zm.7 3.9v-.2l.2-.1h.1v-.1l.2-.1h.6l.2.2.2.6v.4l-.4.3v.4l.4.1v.4h.2l.2.2.1.1v.2h-.7l-.1-.2-.2-.2H31v-.2l-.3-.1v-.1l-.2-.2v-1.1zm.5 2.5l.4.2h.2v.3h-.4l-.1-.3zm1.6-1.2v-.3h.3v.3l.1.1v.3h-.4zm.4.6v-.4h.2l.1.2.1.3h.2v.3h.2v.2h-.4l-.1-.3h-.2l-.1-.1zm.5 1.3l.1-.2.4.2.1.3v.1l.4.1v.3l.2.2v.5h-.3l-.4-.5-.2-.2-.1-.3v-.3h-.2zm1.6 1h.4l.1.2h.2l.5.3.3.1h-1.2v-.1h-.1l-.1-.3zm.3-16.9v-.4l.4-.4.1-.1h.1l.2-.2h.8l-1.3 1.3h-.2v-.2zm2.4-1.2v-.4l.4-.4.1.2v.2h.2l.2.3h-.2l-.5.1zm2.6 20.3h.3l2 .7 1.3.4h.1v.4h-.7l-.6.1h-.2l-.2.2-.2.1v.2l-.2.2h-.6l-.2-.2v-.1l-.2-.2v-.2l-.1-.1-.1-.3-.2-.3v-.5h-.2v-.4zm3-23.1v-.2l.4-.4v-.3l.2-.1.1-.2.1-.1.1-.3h.1v.7l-.1.3-.2.1v.1l-.1.2h-.1l-.3.3h-.1zm1.1-5.2l.2-.3.1-.1v.4l-.3.2zm2.3 30v-.1h.2l.1.1h.3v.2h.4l.2.1h.2l.2.3h-1.2l-.1-.3-.3-.1zm.5.8h.4l.2.1.2.1v.2h-.6v-.2zm1.2.9l.2-.1.3-.2h.7l.3.2.3.3.1.1.1.2-.4-.2h-.6l-.2.2h-.2l-.3-.3-.2-.1zm.3-63.4l.2.2v.1h.1l.3.2v.1H49v-.3h-.2v-.1zm.2 27.7l1.4-.8.3-.2.1.1h.5v.3l.3-.3.1-.2.5-.1h.3l.2-.2.5-.3v.1l-.2.2v.2l-1 1.7-.5.4h-.2v.2h-.6l-.6-.2-.7-.6zm.1-46v-.7l.4-.5.5-.5-.2 1.1-.4.7v.1l-.1.4h-.1v-.5zm0 25.9l.3.3v.1l.2.1v.2h.2l-.3-.3-.1-.1-.2-.1v-.1h.3v.1l.1.1h.1v.2h.2v.5h-.7v-.3h-.1v-.4zm0-11.1l.1-.3.2-.3.6-.8v.6l-.3.4v.9l-.1.2-.2.1h-.2v-.8zm.4 12.6v-.1h.8l.2.3.1.1v.1h-1v-.2zm.1 72.9v-.4l.3-.9h.1l.2.1h.2v.2h.3v.1h.1v.2h.2l.2 1h.1-.1l-.2.3h-.1l-.2-.3h-.9v-.2zm.2-85v-.9l.1-.2.1-.3.1.3v.7l-.3.2-.1.2zm0 83.3l.4-1.1.2.2.2.2v.1l.1.4v.2l.3.2v.5h-.3l-.3-.3h-.3v-.1h-.3v-.1zm.8-76.8v-.1l.4.2v.1l.4.1.2.2h-.3l-.1-.2-.5-.2zm.1-3l.6.1.5.3.3.4.1.2h-.6l-.3-.2h-.2l-.1-.2v-.2zm.3 63h.4l.3.4.2.1.1.4v.6h-.2l-.1.3h-.2l-.2-1.2zm1 10.5v-.9l.2-.3v-.3l.2-.2h.3l.1-.2h.2v.2l-.3.2v.8l-.1.2v.1l-.3.2-.1.3H52zm0-73.2l.6.2v.2h-.5v-.4zm.4-26.8v-.4l.3-.7.1-.2.3-.3v.7l.4.4v.3l-.3.2-.2.2-.2.1h-.2l-.1-.1zm.5 94.5v-.2h.4l.3.2h.3v.3h-.2v.2H53v-.4h-.2zm.1 5.2l.2-.3.3-.1h.1l.1-.1.1-.2h.2v-.2.7l-.4.2h-.1l-.4.2zm.3-.7v-.2l.3-.1.2-.2h.2v.4h-.3v.1h-.3v.2-.3h.5v.2h-.4v.2h-.2zm.3-60.9h.1l.4.2h.3l.3.1.3.3h.1l.1.1-.2.1h-.6l-.3-.2-.3-.1zM68.9 67v-.1l.1-.1.2-.3.1-.2h.2l.1-.3h.2l-.3.5-.2.2-.3.3zm1.1-1v-.2h.3v.2zm.5-.6l.2-.4h.3l.4-.4.6-.4v-.7.8l-.5.6h-.2v.1l-.1.1-.2.2-.3.3h-.1zm3.6-5.4v-.1l.4-.6.3-.3h.2l.8-.6h1l.4.1h.2v.2l-1 1.3v.3l-.3.1-.1.3h-.4l-.3-.1-.5-.3-.8-.2zm4.8-4v-.2h.1v-.3l.3-.2.1-.1.2-.2h.1l-.2.3.2-.2V55v.6h-.2v.4h-.1v.2H79V56zm15.4-6.5v-.2l.3-.1V49h.1v-.2h.3v-.3.5l-.2.2-.2.3-.1.1-.1.1zm9.3-3.4l1-.3.2.3.2.3v.1h-.5l-.1-.2.6.3v.1l.2.3v.3l.2.4-.2.3v-.2h-.2v-.3l-.5-.3-.2-.4-.3-.2-.4-.3v-.1zm.9 2h.2v.4-.3h-.3zm.2.4v-.3h.2l.1.2v.3h-.3v-.4zm6.5 4.7h.5l.5.4.8.7v.4l-.5-.2-.2-.1-.3-.4-.1-.2-.2-.1-.3-.2-.1-.1zm3.9 15.9l.1-1.1.2-.3v-.3l.3-.5h.1V69l-.2.6.1.7-.3-.2-.2-.5zm-.1-3.7v-.7l.5-.5-.2-1.2v-.6l.3-.4.2.5.2.6v3.3l-.3.3-.3.3-.1-.5V66zm7.9 16.1v-.2h.2l.3.1.3.3.3.5.6.8.2.3-.8-.5-.6-.5zm7.6 3.9l.4-.2.8.1-.7.3h-.4zm6.5-3.2l.2-.2.2-.4.8-.7.8-.4-.6.8-.8.8-.6.3zm10-4.2v-.2h.3l.1-.1h.1v-.2h.4v.5l-.6.4v-.1zm6-2l.3-.1 2.5-1.2.6-.1-.4.4-.4.3-.8.7-.4.4h-.4l-.6-.2zm8.4-9.2v-.4l.4-.6.6-1 1.4-1.4-.1.6-.4.6-.7 1.2-.6 1h-.2l-.3.2zm13.8-7.5h.1l.4-.3h.6l.7-.1-.3.1-.8.4h-.6zm8-5.9l.1-.2.2-.3.7-1 .8-.4-.2.7-.4.5-.4.5-.6.4zm5-5.2l.1-.3.7-.6.6-.7v.3l-.2.4-.5.6-.2.3-.3.1h-.1zm8.5-63.7h1.1l.2.4h.2v.3h-.6l-.3-.4zm1.3.9h.3v.2h-.3zm.4.3v-.4h.4l.2.4v.3h-.4l-.1-.3zm2.1 53.3v-.1l.2-.1.3-.3.5-.5.8-.4.7-.6.2-.2.8-.8v.3l-.4.8-.2.3-.4.2h-.5l-.1.3h-.1v.1h-.2v.2l-.1.3-.1.2h-.2l-.1.2-.3.1h-.6zm1.6-.6v-.2l.3-.2v-.2h.3l.1-.2h.2l-.2.3v.2l-.4.2-.1.1h-.1zM206.3-5h.4v-.3h.1l.2-.1.1-.1h.1l.1-.2h.1l.1-.1h.2l.2.2v.4l.1.2h-.2v.2h-.2v.1h-.1v.1h-.3v.2h-.1v.1h-.3v-.3h-.2v-.2h-.1v-.1h-.1V-5h-.1l-.1-.1zm.4 30.9l.1-.4.5-.7.2-.2v.4l-.7 1zm.3-30.3h.3l.1-.1.3-.2h.3l.1-.1h.4v.2l.1.1.1.1.1.1v.3h.2-.2l-.2.2h-.9l-.2-.2h-.2l-.1-.3h-.2zm.7-.4V-5h.2l-.3.3zm.1 0V-5h.2v-.5.5-.4h-.2v-.2h.2v.3h.2v.2h.1v.1h-.3v.2h-.1zm5.3 3.5h.2v.3h.1l.1.1h.1V-1l-.3-.1.3.1.1.3h.1v.1h-.4l-.1-.3-.1-.3zm.9.4l.4.5v.5l-.4.3v-1zm0 1.4V.3h.4V.2 1h-.3V.6h-.1zm0 0"/><path d="M133.5 127.7v.7l.4.6.1.7.6.3.7.5.6.9.4.9.5 1.5.2 1.5v.5l-.1.4-.5.8-1.4 1.5.2.2 1.7-1.9.4-.7v-.5l-.3-2-.4-2-.2-.6-.4-.5-.4-.3-.6-.1-.4-.5-.6-.6-.2-1v-.5l.2-.5.4-1.1 1.2-.9.5-.4.2-.6.8-.4.9-.4h1.1l1.4-.2 1.1-.5.6-.5.7-2v-.4l-.2-.7-.5-.9-.2-.9v-.8l-.4-.6-.4-.8-.2-.9-.2-1 .2-1.4.1-.6.6-.7.4-.8.5-.8.2-.6.3-.6.4-.4h-.3v-.3l.2-.4 1-.6.8-.4.8-.5.5-.7.2-.7v-.5l-.1-.3-.3-.4-1.6-.9-1-.4-1.5-.4-1.2-.6-1-.5-.9-.3-1.1-.5-.4-.4-.2-.3v-1.7l.6-.5.2-.8.2-.5V94l.2-.4.2-.4 1-1.1 1.5-1.2.1-.5.7-1.2.7-1.3.5-.6.3-.3v-.3l.3-.5v-.8l-.3-1 .1-.6.3-.6 1.3-1.6.5-.3.6-.2.6-.4.3-.8.4-.9h-.5l-.2.6-.2.7-.4.3-1 .4-.4.3-.7.8-.5.4-.4.8-.2 1v.3l.2.9v1.2l-.4.4-.5.7-.7 1-.2.8-.3.4-.4.7-1.3 1.1-1 1.2-.7 1-.6.7-.3 1.4v2l.4.4.2.5.6.2.3.3 1.5.7 2.4.8h.8l1.4.7 1.4.6.2.4.1.3v1l-.8.9-.6.4-.8.3-.7.6-1 1-.8 1.1-.5.7-.6 1.8-.2 1 .3.2-.1.9-.1.5.5 1.6.7 2.4.3.7.4.9.2.3v.5l-.3 1-.2.7-.7.5-1.2.6-1.1.2h-.2l-1.1.1-.7.3h-.4l-1.5 1.1-.6.6-1 2zm1-2.4l.4-.5.4-.5.5-.3.5-.1-.3.6-.3.3-.7.2zm1.3 5.2l.2.3.4.6v.5l-.3-.5zm1.5-35l.1-.4.3-.6.6-.7-.3 1-.1.8-.4.4zm2.9 4.3l.8.3v.2h-.2l-.4-.3zm.6 11.1v-.4l.2-.2.5-.2-.5.8zm.2-.9v-.6l.5-.5.5-1 .7-.7h.3l-.1.1-.4.7-.5.2h.4l-.5 1.3-.3.3zM-6 233h.7v-.6l.5-.4.2-.3h.2v.2l.1.1v-1l.1-.1.2-.3.2-.6.2-.5.3-.5.4-.3.2-.1h.3l.3.2h.1v.2h.4v.3h.3l.3.1.4.1.2.1.4.2.2.2.2.2v.1h1.5l.5-.1h.4l.3.2.3.2.3.3.3.3.2.3.1.2.2.5.3.5.2.5.2.3.2.3h.1l.2.2.3.1.2.1.5.1.3.1h.3l.2.2h1.7l.2.1h.8l.1.1h1.4l.1-.2.2-.1h.1l.1.1h.5l.2-.3h.4l.3-.2-.6-.5-.3.1h-.4l-.3-.2-.5-.4-.2-.1h-.4l-.7-.4-.6-.1-.7-.2-.9-.1-.2-.2-.5-.1-.6-.3h-.3.2l.2.2H7l.2.2h-.1v.1l-.1.1v.1h-.3v.3h-.2l-.1.1h-.2v.1H6v.1h-.3v.3h-.2v-.5l-.2-.2-.3-.5v-.5l-.2-.2v-.1l-.1-.2-.2-.2h-.2l-.3-.4-.7-.4-.6-.6h-.2v-.1h-.3l-.3-.3-.6-.2-.3-.2-.2-.2H.6l-.2-.3h-.7l-.4.4H-1l-.6-.2-.3-.1h-.7l-.2-.2-.1-.1-.1-.3h-.2l-.2-.1H-4l-.3.1-.1.1h-.1l-.2.1-.1.2H-5v1l.2.4v.6l-.2.3v.1l.2-.1v-.4l.2-.1v.2h.1l.1.3-.6.4v.5l-.4.3-.4.5-.1.4-.1.3zm1.1-4.6v-.4l.3-.1h.2l.1-.3h1l.1.1v.1h-.3l-.5.1-.2.2v.3l.2.5v.6h-.6l-.1-.5-.1-.2v-.2zm.2 1.3h.2v.3l-.2-.4zm.5-1.5l.2-.2h.2l.3-.1h.3l.3.2v.2h-.3l-.3.3-.2.2H-4l-.1-.3v-.2zm4.4.8v-.3h.3l-.2.3zm0-.1h.5-.2l-.2.1zm.3.6v-.3h.1l.1-.2h.5l.1.3v.4H.8l-.2-.1-.2-.2zm.7-.1h.2v.2h.1v.1h-.3zm5.1 4.5h.3l.1-.3H7l.2-.1v-.1h.1l.1-.2.1-.2H8v.7l-.3.1h-.6l-.1.2v.3h-.5v-.3h-.1zm.2-1.2h.7-.4l-.1.2h-.2v.1h-.1v-.3zm.5 1.4v-.1l.3-.1h.4l.1-.3H8v-.4h.3v-.2h.2v.3l.1.3h.1v.7H7zm1.6-1.1v-.2h.1l.1-.1h.4l.2.3.7.1.3.3h.4l.2.2h.2l.3.3.1.1.2.1.5.2h-.5v.3h-.4l-.3.1h-.7l-.4-.2h-.5l-.5-.1v-.8l-.1-.1-.1-.2h-.2zM156 32.9v.3l.6.1h.8l.2-.3h.7l.2-.1h.3l.2.1.3-.4h.2l.4-.3v-.5l-.2-.2h-.3l-.3-.2h-.4l-.2-.1h-1.3v.3h-.4l-.2.4v.2h-.2l-.2.4zm340.1 160.6v1.2h.2v.1h.1l.3.2h.3v.1l.3.1.2.3h.3v.1h.2v.3l.4.3.1.2.2.1.3.1.1.2h.1l.1.2h.2v.2h.1v.1l.2.1.2.2v.5l.3.2v.3h.1l.1.3.2.1h.5v.2h.4l.3.2h.5l.4.2.2.1.3.1h.9l.3.2h.7l.2.3h.6l.2.2h.2l.1.1h.1l.1.3.1.1h.2l.3.2h.2l.3-.2h1l.2.1v.1h.2v.2-.3l-.4-.3-.3-.1h-.1v-.1h-.6v.3h-.2v.1h-.6v-.2h-.1l-.1-.3h-.3v-.1h-.2v-.3h-.2v-.1h-.1v-.3h-.3v-.1h-.2.2l-.3.3h-.4v-.2l-.2-.2h-.9l-.3-.2h-1.1l-.3-.1h-.2l-.2-.1-.4-.1h-.4l-.1-.2h-.1l-.2-.1h-.2v-.3l-.2-.2v-.1h-.1v-.3l-.1-.2v-.1l-.2-.1v-.1l-.1-.1-.1-.1v-.1l-.3-.1-.1-.1-.1-.2h-.1l-.2-.3h-.1l-.2-.1-.3-.2v-.4h-.2v-.2l-.3-.2h-.1.2-.3v-.1h-.3l-.2-.1v-.5l-.2-.3v-.2l-.4-.1-.1-.3v-.7l.1-.4.2-.5v-.2l.3-.6v-.1l.1-.3v-.8l.2-.2h-.2v.5l-.2.1v.2l-.1.2v.3h-.1v.5l-.1.1v.1l-.1.2v.4l-.2.2v.1l-.1.1v.5zm.1.5h.3l.2.2v.1h.2v.4h.1v.2h-.5l-.1-.2h-.1v-.7zm7.2 5.5h.6l.2.2h.2v.1h-.8l-.1-.3zm1.1.3h.1l.1-.2h.3v.3h.8l.1.1h.1v.1h-.6v-.1h-.6l-.1-.2h-.1zm1.2-.1h.2zm2.3 1.1h.8zm-74.4-12.2v.1h.2v.1l.1-.2v.3l-.3.1v.3l-.1.1.2-.1v-.2l.2-.1.1-.2v-.2h.6v.3l.2.1h.4v.2h1v.1h.6l.1.2h.6l.2.2h.7v.2h.5l.1.1h.2l.1-.3h.2l.2-.3.2-.2.4-.4h.1v-.2h.1l.2-.1.1-.2h.1l.2-.3h.2l.3-.3h.3l.1-.1h.3l.1-.3h.4v-.2l.2-.1.4-.2.3-.2h.1v-.2h.1l.1-.1.1-.1h.6l.2-.2h.9l.2-.1v-.1l.3-.1.2-.3h.2l.1-.1.2-.1v.2l.1-.2.1-.1.4-.3v-.1h-.4l-.2.3h-.2v.2h-.1l-.2.1-.1.1-.2.2h-.2v.2h-.1v.1h-.3v.1h-1.3.5-.3l-.1.2h-.8l-.1.1-.2.1h-.2l-.1.3h-.2l-.1.1-.2.2-.1.2h-.4v.1h.5-.2l-.3.2-.2.1h-.3v.2h-.3l-.1.1-.2.1-.1.1-.2.2-.2.2h-.2v.3h-.2l-.2.2-.3.3-.1.2v.1h-.9l-.5-.1-.3-.1h-.1l-.6-.1h-.3l-.2-.3h-1.3v-.2h-.5l-.1-.1h-.4v-.2h-.2l-.4-.1zm43.7-16.7l.1.1.2.4.1.5v.2l.2.3.1.6v.7l.3.3v2.2l.3.2.1.6h.1v.1l.2.2v.3l.3.2v.4l.2.3v.8h.2v.1h.1v.2l.2.3v.1l.2.4v1.1l.2.3v.4l.3.8v.4l.1.1v.2l.2.3h1.5l.2-.3h.3l.1.3h.9l.1-.3h.1l.1-.2.1-.1v-.1l.4-.3h.9l1 .3h1.3v-.3l.1-.1h.2v-.3l.1-.1h.5l.2-.2h.3l.2-.1.2-.2h.4v-.4h-.2l-.3.4h-.4l-.2-.2h-.3v.4h-.3v.1l-.3.1-.1.3h-.1l-.1.3h-.1l-.1.1H486v-.1h-1.5l-.2.3-.4.2h-.8l-.2.1v.1h-.4l-.3.3h-1l-.2-.2-.3-.3v-.7l-.2-.1v-.4h-.1v-.5l-.1-.2v-1.1l-.1-.2-.2-.3v-.3l-.3-.3v-.4h-.2v-.6l-.1-.2-.1-.4-.1-.2-.2-.3v-.3l-.1-.1v-.1l-.2-.1-.1-.3v-.1l-.1-.1v-.3l-.2-.2v-.2l-.1-.5v-1.2h-.1l-.1-1.1v-.3l-.2-.1v-.3l-.2-.5-.1-.3v-.2zm5.6 12.8l.3-.3h.2-.2l-.2.3h.3l.3-.3h.4l.3-.1v.3l-.3.2-.3.2h-.7v-.4zm5.7-1.4l.4-.3v-.2h.6v.4h-.6v.2h-.3zm0 0"/><path d="M447.4 184.7h.2l.5-.4.1-.2.1-.1.2-.2.2-.2.1-.2.3-.2v.2h-.1v.1-.3h.2v-.1h.2v-.1h.1v-.2l.3-.1v-.1l.2-.1v-.2l.2-.1.2-.2h.2l.2-.2h.1l.3-.3.2-.1h.5l.2.2.3.2.1.2h.2l.2.1h.7v.3h.1-.2l.2.2.3.1h-.2.2l.4.3h.2l.7.3h.2l.2.1h.3v.4l.6.5.2.1.2.2h.2l.2.2h.6v-.3l.1-.1h.1l.3-.4h.5v-.2h.2v-.1h.2l.1-.1.2-.3v-.7h-.1l-.2.3-.1.1-.1.2h-.1v.2l-.1.2-.4.3-.3.1h-.1v.2h-.1l-.1.2h-.1l-.1.2h-.1l-.2.1h-.2l-.2-.3h-.1l-.2-.3-.2-.1-.3-.3-.2-.1-.1-.3-.3-.2h-.5l-.2-.1-.3-.1-.4-.2h-.3l-.2-.3-.1-.1-.1-.3h-.1l-.5-.1h-.2l-.4-.2-.4-.3-.1-.1-.2-.1h-.4.1l-.4.3-.4.2-.7.4h.1l-.2.2h-.2l-.3.3-.3.1-.2.3v.1l-.3.3-.2.3-.3.3.3-.2-.3.2-.2.3zm1.8-2l.1-.2.3-.1h.1v.4h-.5zm0 .4l.1-.2h.2v-.1l.2-.1-.2.3h-.3v.2zm.7-.7v-.2.3zm9.4.9v-.2l.3-.1v-.2.6h-.2zm30.8-.6v.3h1.4l.3-.2h.2l.2-.1h.4l.3-.1.1-.1.1-.1.1-.1.1-.1v-.2h.2v-.4l.1-.2v-.2h.1v-.4h.1v-.2h.2v-.4h.3v-.4l.2-.2v-.1h.1l.4-.2.1-.1.2-.1.2-.1h.1l.1-.2h.3v-.1h.6v.3h.2v.2h.2v.1h.3l.1.2h.1l.1.1.1.1.2.2v.3l.1.2.1.1.3.5.2.2.1.1.3.3v.3l.2.1v.9l.1.3v1.9l-.3.2v.6l-.2.1h-.1v.3h-.1v.2h-.1l-.1.2-.3.2v.1l-.1.2v.1l-.2.2v.3l-.1.2h-.1v.2l-.2.2v.1l-.2.1v.3l-.1.1v.3l-.1.2v.3h.1v-.3l.2-.2v-.3l.2-.3v-.2h.2v-.2h.2v-.3l.1-.2.1-.3.1-.1.3-.3v-.2h.1v-.1l.1-.1v-.2l.1-.2.2-.3.2-.6v-.9h.2v-2.6h-.3l-.1-.4-.2-.1-.1-.4-.6-.6-.1-.2-.1-.4-.3-.2v-.2l-.2-.2h-.2l-.2-.2h-.1l-.3-.3-.2-.1h-.9l-.3.2h-.2v.1l-.1.1h-.1l-.2.3-.3.4-.3.1v.2l-.3.5-.3.7v.6l-.2.2-.2.3-.1.1-.3.2h-.4l-.6.3h-1.2zm4.6-3.5l.3-.3h.1l.3-.2v.3h-.3l-.1.3h-.2zm1-.4l.5-.2-.5.3h-.1zm.3 0l.3-.2h.1l.2.2h-.5zm2.1 8.8v-.4h.2v-.2.4-.4l.1-.3h.1v-.1h.1v-.1h.1v.2l-.3.1v.2h-.1v.2l-.1.1v.1h-.1v.1l-.1.1zm-38.5-5.1h.1l.3-.5v-.2l.3-.3v-.2h.2v-.3h.2v-.3l.3-.2v-1.4l.2-.1.2-.6v-.2l.3-.3.1-.3.1-.1h.4l.2-.2h.2l.3-.2h.3l.1-.1h.1v-.2l-.7.2-.3.2h-.3l-.2.2-.3.2-.2.2-.2.2-.1.5-.2.5v.1l-.1.2-.2.4-.2.3-.1.1v.6h-.1l-.1.6v.2h-.2v.3h-.3v.2h-.1v.6zm1-2.3v-.2l.3-.2v-.3.7l-.1.2-.2-.1zm9.1-7.8h.2l.3-.2v-.2h.2l.3-.4.2-.2.5-.2.1-.2h.1l.1-.3.3-.1.6-.5h.1l.1-.1h.5l.3-.2h.2l.2-.1h.5l.1.3h.1v.3h.2v.2l.1.1v.2h.2l.1.1.1.1h.6v.2h.2l.2.1h.1v.1h.2l.1.1h.2v.2l.3.1h.2-.3v-.2h-.1v-.1h-.1v-.1h-.2l-.1-.1-.2-.1-.2-.2h-.7l-.2-.3h-.1l-.1-.1h-.2v-.4h-.2v-.2h-.1v-.3h-.1l-.2-.1h-.1l-.3-.1h-1.1v.3h-.3v.1h-.3l-.2.1h-.1v.4h-.2l-.1.4-.3.1-.3.3-.6.4-.1.2-.6.4zm2.3-2.1v-.1l.2-.2.2-.1h.3v.1l-.4.2h-.1l-.1.1zm.7-.4l.3-.3h.5v.3h-.4l-.1.1h-.3zm0 0"/></g></g></svg>