<svg xmlns="http://www.w3.org/2000/svg" viewBox="0 0 497 279"  xmlns:v="https://vecta.io/nano"><path fill="#f2efe9" d="M0 0h497v279H0z"/><g fill-rule="evenodd"><path fill="#f5e9c6" d="M80 38.4l1 3.2 3.1.9.2 4.4 4-1.9-2.6-2.6-1.3-2.4 4 .1-.5-3.1v-2.1l-.5-3.5-1.6-2.1-3-.6-2.8 8.8zm-11.6 3.8l2.8-2.5-1-2.1-.8 2.8-1 1.6zM80 27.6l4.9 1-1.6-2-.3.3-3 .6zm-1.7 2l.7-1-.7.9zm2.5-.2v-.1zM71 43.3v-.1zm0 0"/><g fill="#aad3df"><path d="M339.5 215l.8.1 1.6-3.7 1.5-4.4.6-1.3 1.2-1.2 1.2-1.1 1.8-1.7 1.2-1.5 1.6-2.2 1.2-1.6.5-1.4v-2.9l-1.3-2.3-2.2-3.6-1.5-2.2-1.9-2-1.1-1-1-.8-.7-1.4-.6-1.3-.2-1.8.3-5.3.7-1 .7-1.8.3-1.6.5-1.2 1-1.3 1.1-1.2 2.3-1.6 2.7-1.7 3.2-2.5 1.4-.9 1-1 1.6-2.1 1-2.5 1-2.8.6-3.5.4-1.5-.6-2.2-.7-1.4.1-.9-.6-.4-1.4-3-.2-1.8v-2l.9-2.5.2-.5.6-.2.7-.3.6-.7.2-.7v-3.5l-.3-2.4-.8-2.4-1.3-2.5-.6-2-.1-1.6.2-3.2.3-1.4.4-.6 1-1.5 1.8-1.5 2.9-1.6 3.9-1.6 3.7-2.1 2.5-2 1.1-2 .7-1.8.3-2.3-.2-1.1-.3-2-1.7-.5-2.2-2.2-.5-.6-.4-.8-1.3-1.5-1.1-1.5-1-1.4-.5-1.9-.3-1.6.4-2.5.9-2.3 1-1.8 1.1-1.5 2.4-3 4.5-3.7 1.1-1.1.4-.4.3-.4 3.9-3.6 2.5-2.2.2-.6 1.7-1.2.4-1 .6-.6 1-1.8-.1-1.4.3-1.5.5-1.5.9-1.5 1.9-2.9 1-1.2 1.9-4.2v-1l1.7-3 1.7-2.5.6-.4.2-1 1-.4.4-1.1.3-1 .9-.8.6-.4 3-3.8 1.6-2.2 2.2-2.6.7-1 1.2-.8 1.6-1.6.6-1 .2-.5 1.2-1.5.2-1.2.5-.6-.4-1.2.2-.6.6-1.4 1-2.2 1.8-2 1.1-1-.7-1.1-1.3 1-1.5 2-1.5 2.7-.6 1.1-1.2 4L414 7l-.9 1.6-.5.8-1.6 1.1-3.6 4.1-2.4 2.6-2.8 3.5-.8.5v.6l-2.2 3-2 3.4-1.4 3-1.5 2.8-.3.3v.7l-1 1.7-1.6 2.6-1.4 2.5-.5 1.8-.8 2.8-1 2.3-1.7 1.7-4.4 4.2-4.3 3.8-3 3-2.5 2.1-2.7 3.9-.8 1.2-1 2.4-.3 1.8v2l.2 2.4 1.2 2.8 1.6 2.4 1.6 1.6 2.1 1.9.3.5.4 1 .7.4.6.5.4 1.2-.1 1.3-.8 2.3-1.5 1.9-2.6 2.3-2.8 1.7-2.3.9-1.5.4-1.3.9-2.6 1.8-1.6 1.2-1 1.2-.7 1.6-.3 3.2.2 1.2.4 1.9.7 2.3 1.4 3.2v2l-.3 3.6-1.9 6-.1 1.6.1 1.6.5 1.4 1.3 4 .7 1.2.4 1.8v2l-.6 2.6-.8 2.8-.9 2-1.5 2.2-1.8 1.4-1.6 1-2.2 1-1.2 1.4-2.5 2.1-1.9 1.2-1.6 2.1-1.8 2.6-.6 1.1-.2 1.3.2 1.6v2.4l-.4 3.8.2 1 1.6 4 .7 1.1 1 .7 1.2.6 1.7 1.3 3.3 5 .6 1.3.3 1-.2 1.3-.6 1.8-1.7 2.3-1.1 2.1-1.4 1.6-3.1 2.9-1.2 2.1-1.2 4.4zm0 0"/><path d="M334.7 293.8l1 1.6 1.5-1 2.6-1.8 1-.6 2.2-.5 2.3.2 3.2.8 2.2.1 2-.2 3.6-.4 2.4-1.4.9-.1.6-.6.1-.5-.3-.7v-2.3l.1-2 .6-1.6 1-1.8.9-1.3 1.1-.6v.3l-.4 1 .3.3.5-.7.4-1-.3-.4.8-2.1 2.5-3.4 1.4-2.4.6-1 .5-1.7v-1.3l-1-1.7-.9-1.1-2.1-1.1-2-.4-2.9-1-1.4-.9-1.2-1.1-2.3-1.5-2.3-1.2-1.9-.7h-3.7l-.4.1H346l-.6-.1-1.7-1.3-1.1-1.2-1.1-2-.6-1.7v-2.3l.7-3v-4.2l.6-3 .2-2.3v-1.8l-.1-3.5v-1.5l-.3-2.6v-4.8l-1.3-1-.7-1.4v-1.1l.3-1v-1.2l-.8-.2-.6 2.6.2 1.5v1.5l.2 1.3.3.8.4 1.4.6 2 .4 3.9.1 3.3-.1 3.8-.4 2.1-.3.6-.3 2.2v4.8l-.5 2.3.3 1.5.6 1.7 1 1.7 1.8 1.8 1.7 1.3 1.7.6h1.6l2.3-.4h1l1.5.3 2.7 1.8 4.3 2.9 1 .6 5.2 1.7.8.6.8 1 .3.9v1.4l-.6 1.5-.5 1.3-2.7 3-2 3.4-1 1.3-.9 1.8-1.2 2.4-.2 1.1-.1 1.3v2l-.5 1-.6 1.1-1.4.6-2 .8-1.8.3h-2.4l-4-.8-3.9-.3-2.2.4-1.8.9-1.8 1.3zm-270-99.5v.4h.2v.3l.1.2v.2l.1.1v.1l.2.1.2.3h.4v.2l.3.2h.4l.1.1h.8v.1h.9l.2.1h.4l.2.1h.7l.1-.3v-.1l.2-.3.1-.1h.1v-.2h.3v-1l-.2-.2-.3-.2h-.1l-.3-.4-.2-.2v-.3l-.2-.2h-.2v-.2h-.7v.3h-.1v.2h-.2v-.4l.2-.1.2-.1v-.3h-.4v-.2h-.1v-.3H68v-.1h.2v-.3H68v-.1h-.1l-.2-.2-.1-.3h-.4l-.2-.2v.1l-.1.1v.2l-.2.1-.1.1v.1l-.3.1v.2h-.1l-.2.2v-.2h-.4l-.1.2v.5h.3-.4v.2h-.2v.3H65v.4h-.2v.4h-.1v.1l-.1.1zm1.3 1h.3v.2h-.2zm.7-1.1v-.2h.3v.3h-.3zm1.1-.4l.2-.3h.2l.1.3h.2v.5h-.4v-.3l-.1-.2zm33.8-5.5v.2l.1.3.4.4.3.3.6.2h.2l.1-.3.2-.1.5-.4v-.1h.2v.2l.3.1v.1l.2.4.3.2.1.2h-.1v.3h-1.7l-.1-.1-.2-.2h-.5v.2l-.2.1v.3l-.1.4v.2h.2l.1.7.3.1.3.1h.1l.3-.1h.4v.2l.4.2.2.5h.5l.2-.3v-1.4h.3v.5h.6v-.4h.5v-.3l.1-.5v-.3l.3-.2-.3-.5v-.8h-.2v-.2l-.1-.2-.4-.3v-.3l-.2-.2h-.6l-.3.5-.3.3h-.3v-.8l-.3-.3-.2-.2-.2-.1-.5-.2h-.1l-.2.1-.1.3-.4.3v.3l-.3.3-.3.2zm-49.1 4.1v.6h.2v.2l.2.2h.1v.2h.1v.2h.1l.2.1.3.3h.2v.1h.1v.1h.2v.1h.2l.1.2h.2l.1.1v.1h.2l.3.1h1.2v-.3h.5v-.2h.3v-.1h.4l.1-.2v-.2h-.3v-.3l.2-.1v-.2h.2v-.2h-.5v-.2h.3v-.2h-.3v-.1h-.2v.3h-.1v-.4h.3v-.1h.8v-.3H58v-.1l-.3-.1v-.2h-.1v-.2h-.3v-.4h-.1v-.1h-.1v-.1h-.3v-.2h-.7v-.1h-.9v.3h-.5v.2h-.5.3v-.2H54v.2h-.4l-.1.1h-.2l-.2.1H53l-.3.3h-.1v.3h-.1v.3h-.1v.2zm4.5 1.5v-.1h.3l.2-.1h-.3v-.2h.3v.5h-.4zm.1-.9h.2zm.6.3v.1zm12.7-1.2v.4h.3v.1h.2v.2h.1v.1h.2l.2.1h.2l.1.2h.5l.2-.1h.1l.3-.1.2-.1h.7l.2-.3h.2v-.2h.8v-.3h.1v-.1l.1-.2.3-.3v-.1l.2-.2v-.6h-.5l-.1-.3h-.2v-.1l-.3-.5h-.2v-.1h-.2l-.3-.2h-.2v-.2h-.5l-.1.2h-.7v.1l-.1.2.2.3h.2l.2.2.2.2v.1h-.3v.3l-.2.1v.1h-.3v.2h-.9l-.3.2-.4.3-.1.1v.2zm65.3-51.1v.2h.5v-.2h.3v.2l.2.3v.1l.2.5v1.1l.1.2.1.1h1.1v-.2l.2-.1.1-.2h.1l.5-.2.1-.1v-.1h.1l.2-.6v-.2h.3v-.2l.2-.2v-1.1l-.4-.1-.1-.3h-.2l-.1-.3h-2.9l-.3.2-.2.3v.4zm27.6 33.2l.1.2v.2l.2.1.1.1.2.1h.1v.1l.1.2h.2l.3-.2v-.3h.6l-.2.2v.3h.3v.1h.1l.2.1h.3l.1.1h.2v-.4h.2v-.1h.3v.3h.2v-.5h-.3v-.4h.2v-.8h-.2v-1.1l-.2-.1v-.1l-.2-.1v-.4l-.2-.3h-.7v.1h-.2l-.1.3v-.3h-.6v.4h-.2l-.2.1v.2h.3v.7h-.3l-.3.2v.2h-.2v.4l-.2.3zm2 .4v-.2zm.9 0v.2h.3zm-90.8 22v.3l.4.1.4.6.6 1h.1l.5.4h1.3l.3-.6.3-.6v-.6l-.1-.6-.2-.2-.8-.4h-.1l-1.1-.1v-.1h-.9l-.4.2h-.1l-.2.4zm38.7-56.9v.3l.3.3v.2l.4.5.3.2.6.3h1l.5-.2.4-.3.3-.5v-1.2l-.3-.4-.2-.2-.4-.2-.3.1h-.5l-.6.2h-.4l-.2.1h-.3l-.1.1-.3.4zm-12-.8l.1.1v.2l.1.4.1.1.2.3h.7l.2-.3h.2l.2.3.5.3.2-.1h.3l.1.3.6.2.2-.2.2-.1.5-.5.1-.1.2-.4v-.4l-.1-.2v-.4l-.1-.2-.2-.2h-.2l-.4-.2h-.4l-.1.2-.5.2h-.8l-.1.2-.1.3h-.5l-.1-.6h-.4l-.4.2-.2.2v.2zm9.1 64.1v.3h.2l.2.3h.3l.1.1v.3h.4v.2h.2v.1h.2v.1h.4v.1h.3v-.2h.5l.2-.3v-.1h.1v-.2h.7v-1.5h-.6v-.2h-.4v-.2h-.4l-.1-.1h-.2l-.1-.2h-.2l-.1-.1h-.5v.4h-.4l-.2.4-.2.1v.3h-.2v.2l-.3.2zm47.4-43.7v.6h.2v.3h.2v.6h.2v.2l.1.3v.2h1v-.2l.2-.1h.1v-.1h.1v-.1h.2v-.2h.1v-.3h.3v-.2h.1v-.6h-.3v-.2h-.1v-.3h-.1v-.3h-.2v-.4h-.1v-.5h-.1v-.1l-.1-.2h-.2v-.3h-.2v-.1h-.3l-.1.3h-.1v.2h-.1v.1l-.1.1h-.1l-.2.2-.2.3v.5h-.1l-.1.1zm-39.7-18v.1l.3.2v.2h1.3l.4.3h.8l.2-.1v-1.7l-.2-.5-.4-.2-.3-.2h-.3l-.4.2-.1-.3-.4-.2-.2.2.2.2h.1v.1l-.2.2h-.3l-.3.3-.1.2v.7zm39.7 5.1v.2h.1l.1.1h.2v.3l.3-.3h.2v.3h.1l.1-.4v.4h.6v-.2h.2l.1.1v.5l-.3.2v.2l.2.1v.1h.3v.4h.5v-.4l.3-.1v-.1h.1v.5h.3v-.7l-.1-.3h-.3l-.1-.2h-.5v-.1h.6v-.3h.2v-.3l.1-.3v-.3l-.4-.2v-.1h-.2v-.3h.3v-.2h-1.1v.4l-.4-.3v-.2h-.1l-.2-.2h-.3v.3h-.1l-.3.1.2.2h.2v.4l.3.2h-.4v.3h-.6l-.1.2zm2.1.6h.3v.2h-.2zm-6.9 17.4v.2h.2v.9l.1.3.1.2h.2l.1.2h.2v.1h.4l.1-.2.2-.1h.3v-.4h.2v-.1l.2-.2v-.6h.3v-.7l-.3-.3h-.3l-.1-.1h-.4v-.3h-1.1v.2l-.2.2v.3l-.3.2v.1zm23.2-9.1v.2l.3.1.2.2v.7h.7l.1.2h.4l.1-.2v1.1l.2.1.5.1.1-.1.4-.3.1-.2v-.2l-.3-.1v-.2h-.2l-.1-.3-.2-.1h-.3v.3-.4h.3v-.4l-.2-.7-.2-.6-.3-.3h-.6v-.2h-.6l-.2.2v.2l-.2.1v.1l.2.1v.4l-.2.1zM107.4 199v.2h.2v.1h.1v.1h-.2v.6h.2v.3h.1v.1l.1.2.1.1.2.1.1.2.2.3h.2v.4h.2v.1h.1v-.3l.2-.1h.2v-.1h.2v-.2h.4v-.3h.2v-.4h-.4v-.1h-.2l-.1-.1h-.2v-.2l-.3-.2v-.7l.4-.1v-.3l.3-.1v-.2h.1v-.3l.1-.1.1-.3h.8v-.3h-.5v.2h-.2l-.1-.1v-.3h-.3v-.2h-.1v-.1h-.2v.3l-.1.1v.1l.3.1v.9l-.1.2-.2.2h-.2v.2h-1.7v-.3h-.1zm71.8-40.2h.1v.2h.2v.2h.1v.2l.2.1v.2h.2v.2-.4h.3v.5h.2v.2l.1.1h.1v.2h.3v.1h.3v.1h.2v-.3l.1-.1h-.2v-.2h.5l.1-.1h.2v.2h.1v-.2h.1v-.2h.2v-.5h-.4v-.2h-.1v-.1h-.1v-.3l-.3-.1-.1-.3h-.2.3v-.5l.2-.1v-.2h-.4l-.2.3-.2.1-.1-.3h-.3l-.1-.2-.2.2v.3h.3v.4h-.3v.3l.3.1v.1h.1v.1h-1v-.7h-.3v.3h.3v.2h-.7zm.5.2h.2v.3zm1.1-.2l.2-.3.1.3-.1.1h-.2zm-26.4-14v.3h.2v.6h.3v.1h.7v-.3h.1v-.1h.2v-.2h.3v-.1h.1v-.1h.5v-.2h.2v-.1h.3v-1h-.3v-.1l-.2-.1v-.3h-.4l-.2-.1h-.1l-.1-.1h-.6v.2h-.1v.1h-.1v.2h-.1v.5h-.1v.2h-.2v.1h-.1l-.1.2v.1zM91 196.5v.5h.2v.1h.1v.2h.1v.1l.3.3h.1l.2.3.3.2.1.1h.6v.2l.3.1h.2v.1h.2l.3.1.1.2h.7v-.6h.2v-.6.3l.2-.1v-.1l-.2-.2-.1-.1h-.3v-.2h-.3v-.2h.2v-.1H94h.2v.5h-.8l-.1-.3-.2-.3H93l-.5-.2h-.3l-.2-.1h-.3l-.2.5-.1-.2.1-.3v-.1h-.2v-.2h-.1l.1.3H91zm63.9-34.5v.3h.1l.4.2h.3v-.1h.3v.2l.1.1h.1v.3h.6l.2-.3v-.2h.3v-.3h.2l.1-.2v-.6l-.2-.2-.1-.2-.2-.1h-.3l-.1.2h-.4v-.1l-.1-.2v-.4h-.2v-.2h-.5l-.1.3-.1.1v.2h-.1v.5l-.4.3zM7.5 248v.3l.3.1H8v.3h.3l.1.2.2.1H9v-.1h.5l.1-.3.4-.3.2-.3v-.2H10v-.3h-.3v-.6l-.2-.3v-.1l-.2-.1-.1-.1h-.3l-.1-.1h-.4l-.2.2v.2l.2.4v.2h-.2l-.2.3v.1h-.3l-.3.4zm150-69.6v.1l.2.1.1.4v.3l.2.1.1.3.2.1.3.2h.4l.2-.3h.3v-.2h.2l.3-.1v-.2h.2v-1l.1-.2H159l-.1-.2h-.6l-.2.2h-.1l-.3.2h-.1zm-118.7 7.9l.2.3h.2l.2.2h1.4l.1-.3.3.4h.6v.1h.6v-.4H42v-.2l-.1-.1-.1-.8-.3-.1-.1-.2h-.5v.2h-1.2l-.4.1-.1.1v.1l-.2.3-.2.2zM189.3 213l.3.2h.2v.8h.2l.3.4.4-.2.5-.3v-.5h-.2v-.9l.4-.3h.4l.2-.2.2-.2v-.1l-.2-.2-.4-.6h-.4v.5h-.2v.5h-.1l-.1.2-.5.1-.3.3h-.3l-.4.3zm-23.6-46.8v.4l.1.2.2.2h.3v.2h.2v.3l-.4.1v.7h.3l.2.3h.1v-.2l.2-.4.1.2.1.2v.1h.2v-.5h-.5l.2-.3v-.4h.2l.1.2v.2h.3l.1.3.1.1.2.4v.5l.2.2v-.4h.2v-.2l-.1-.2v-.2l-.3-.2-.1-.4v-.3l-.2-.3v-.2l-.1-.2v-.1l-.2-.2v-.2h-.1v.3h-.1l-.2-.1-.2-.3h-.8.2l.1-.2v-.2h-.3l-.2.4zm5.1-.2l.2.2h.9l.1.3h.3v-.2h.4v.4l.1.3v.2h-.2v.4h.3v-.3h.6v-.2h.2v-.5l.1-.2v-.1l.2-.2v-.4h-1.2.2v-.3h-.6v.3h-.4v-.3l-.2-.1v-.1h-.3l-.1.2h-.1l-.1.2h-.2v.3h-.1zm-73.3 32.3v.2h.2v.5h.2v.3h.4v.1l.1.1h.1v.1h.2v-.3h.3v-.1h.1l.2-.1v-.1h.2v-1h.1v-.6h-.3v-.1h-.2v-.1h-.4v.2h-.4v.2H98v.5h-.2l-.2.2zm41.2-15.7v.4h.1v.2l.2.5v.3l-.2.2v.9l.9.7h.3v-.1l.4-.2v-.3l-.2-.2-.2-.3-.2-.4v-.8l-.3-.1v-.4l-.2-.6-.3-.1h-.2v.3zM117 201.3v.1h1.3l.1.2v.1h.6l.2-.2v-.2h.4l.2-.1h.1v-.2h-.2l-.2-.2v-.3h-.1v-.2h-.4v-.2h-.3v-.1h-1.1v.4h.3v.2h-.3v.2h-.3v.2h-.3v.2zm53.6-31.7v.2l.1.1v.1l.2.1h.1l.1.3.2.2v.1h.4v.1h.3l.1.1h.7l.2-.4v-.4h-.3v-.1h-.2l-.1-.2v-.1h-.1v-.3h-.1v-.1h-.2v-.3h-.2l-.2-.1h-.5v.1h-.3v.2l-.1.2-.2.2zM129 157.1v.6l.3.3h.1l.1.2v-.2h.7v-.2l.1-.1h.2v-.1h.5v-.9l-.2-.1v-.4h-1.1v.2l-.4.1-.1.2-.1.2zm3.7-24.8l.3.4v.4h.5v-.1h.2l.1-.2h.1l.4-.4.5.2h.3l.2.1v.1h.4l.3-.1h1v-.2h.2v-.5h-.2l-.1-.1h-.2l-.2.2-.2.1-.3.3-.5-.3h-.2l-.1-.2h-.7l-.1-.1h-.2l-.4.1h-.9l-.1.2zm24.3 25.3l.1.4v.2l.1.1v.2l-.2.6v.4l.2.1v.1l.1.2h.5v-.5h.2l.1-.1.4-.1v-.2l-.1-.4h-.1v-.3h-.3v-.8l-.3-.2v-.3h-.2l-.1-.4h-.3v.4l-.1.1zM55.2 117.3v.1l.2.2v.4l.3.1.2.3h.7v.3h.1v.2h.4l.1-.3v-.4h.2v-.2h.2v-.2h.4v-.1l-.3-.1h-.5l-.2-.1h-.2v-.4h-.1v-.1h-.1v-.3h-.4l-.1-.1h-.3v.2h-.1v.2h-.2v.4h-.3zm.8.3l.1-.3h.1v.2h.2v.3H56zM35.5 170v.5h.1v.4h.8v.1h.1l.2.1h.2l.1.2h.3v-.3h.1v-.3l.2-.1v-.5h-.3v-.1h-.2v-.2l-.1-.3v-.1h-.4v-.2h-.9v.6h-.2v.2h-.1zm119.7-11v.3h.2l.1.2h.1v.1h.1l.1.2h.2v.1h.3l.2-.4h.2v-.2h.2v-.2l.1-.1v-.9h-.1v-.1h-.3v-.1h-.3v-.2h-.6v.3h-.1v.2l-.2.1v.1l-.2.2v.3h-.1v.1zM41 183.3l.5.5h.2v.2h.6l.1-.2.2-.1.1-.3.3-.2h.1l.3-.2h.3l.1-.3h.1l.2-.1H44l-.1-.2h-1.1l-.3.1H42v.3h-.3l-.5.1v.1H41zm66.7 5.4l.3.2v.3h.3v.2h1.1v-.9l.2-.2v-.7h-.1l-.2-.1-.2.1v.1l-.1.1h-.2v-.2h-.3v.2h-.3v.2h-.2v.3h-.2v.2zm-43.5-26.6v.6l.3.3.4.2v.2h.5l.3.3.1-.2h.3l.3.2h.2v-.4l-.4-.1v-.4l-.2-.3-.3-.3-.5-.1-.1-.1h-.7zm-5.2 6.4v.8l.4.2v.1l.2.4h1.6v-.7h-.7v-.2l-1.3-1.2-.2.1v.3zm0 0"/><path d="M136.6 131.4l.1.2v.1l.1.1h.6v.2h-.2v.3h.8l.1-.3v-.1h.1l.2.1h.6v-.8l-.4-.5v-.2h-.1l-.3.2v.1h-.2v.4h-.5l-.3-.2h-.4v.1l-.2.1v.1zm53.5 29.9v.2h.2v.1l.1.2.2.2h-.2v.5h.5v.4l-.3.1v.2l.2.2v.1h.4v-.8l.1-.1.2-.3h.1v-.1h.3l.1.3h-.3v.2h.5v.7l.1.2v.4h.2v-1.6h-.2v-.2h.3v-.4l.1-.1h-.4v.3h-.3v-.3h-.7v.3h-.3l-.1.3h-.1v-.6h-.2v-.1l-.1-.1v-.2l-.1-.1h-.2zM167.4 175v.2h.2v.3l.1.2.2.1h.1v.2h.6l.1-.2h.1v-.2l.1-.1h.1v-.5h.2v-.2h.1v-.5h.1-.3v-.2l-.1-.1h-.5v.6h-.8v.1h-.2v.3zm-82.9 17.8v.2h.3v.2h.8l.1-.2h.3l.3-.3v-.9h-.5v-.6h-.1l-.1-.1-.2.2v.4l-.2.1H85l-.1.2-.1.2-.2.2v.3zM66 144.3h.1v-.3h.2v.4h1v-.8h.2v-.6h.2v-.2l.1-.1v-.2h-1.2v.5h-.3l-.2.4v.6l-.1.1zm1.3-1.4h.3v.1h-.2zm105.3 25.2v.2h.2l.2.2v.3l.3.1v.7l.2.1h.2v.1h.2l.1-.2v.1h.3v-.4h.3v-.7l-.3-.2h-.3l-.2-.2h-.3l-.4-.1h-.4zM153 201.6v.4h.2v.3h.2l.2-.3h.2v-.3h.6l.1-.1h.2v-.2h.1l.2-.2v-.1h.2v-.1.4l-.2.3v.2h.3l.2.1v-.2h.1v-.2l.1-.2h.2v-.8h-.6v.2h-.3v.2-.3h-.2l-.3.2v.2l-.2.2h-.3l-.2.1h-.8v.3zm-26.8-64.3l.1.3v.2l.2.4.2.2v.3l.3.1.2.2.2-.1.2-.2v-.3l-.3-.1v-1l-.5-.3-.1-.1h-.1l-.3.1-.1.1zm25.6 15.3v.1h.2l.1.3v.3h.3v.3h.2v-.3h.2v-1.1l.2-.2.2-.1v-.2h.2v-.4l-.6.1h-.3v.2l-.3.2-.4.1v.5zM82 172.1v.3h.2v.2l.1.2h.3v-.2h.2v-.1h.5v-.1h.4v-.6l-.2-.2h-.4l-.1-.3h-.7v.4l-.3.3zM187 158v.1h.3v.3h.3v.6h.4v.2h.2l.2.2h.1v.1h.3v-.2h.2l.2-.2.1-.2v-.1h-.3v.4h-.5.1l.4-.4v-.1l.2-.3v-.6l-.4-.4v-.2h.6l.1-.2v-.1l-.1.1h-.4v-.3h-.8v.3l-.2.2-.1.1h-.1l-.1.3h-.2l-.4.2h-.1zm0 0l.3-.2.7-.2.2-.3v-.2l.3-.1h.2v.8l.2.1v.7l-.2.2-.3.2h-.4l-.2-.3-.1-.3-.1-.2-.2-.1h-.4zm-55.4-4.4l.1.2.3.2v.2h.4l.2.2.2-.2h.3l.1-.2v-.5l-.2-.2h-.4v-.3h-.8l-.1.2v.3zm25.9 2.6v.3h.8l.4-.2.2.1h.1v-.2l.2-.1v-.3h-.4l.2-.1v-.4h-.7l-.3.3-.3.3h-.2v.1zm-27.3-32.7v.2h.2v.3h.1v.2h.5l.1-.2h.3v-.2h.1v.2h.2v-.3h.2v-.1l-.3-.1v-.4h-.1l-.2-.1h-.1l-.2-.2h-.2l-.2.2-.3.3v.2zm-54.4 68.2v.3l.1.2h.7l.1-.2.2-.2h.1v-.5l-.1-.3-.3-.4v-.2h-.1l-.3.4-.1.2-.1.2v.2zm85.4-41.5l.1.1.1.1v.2h.5v.3l.1.1h.3v.6h.2v.2h.2v-.5l.1-.1h.2v-.5h-.5l-.1-.3v-.1h-.2l-.2-.5v-.1h-.6l-.1.3v.1zm-46.5 24.2l.2.2.1.2h.9v-.3h.1v-.2h.2v-.6h-.2l-.1-.1v-.2h-.8v.2h-.1v.4l-.3.2zm-81 12.6l.1.3.4.1v.2h.8v-.3l.1-.1-.1-.2v-.4h-.2v-.1l-.2-.2v.1H34l-.3.2v.2zm92.1-43l.1.2v.3h.1l.2-.1.3-.4.3-.1v-.2l.4-.4.2-.1v-.2l-.2-.2-.2-.2h-.2l-.3.2v.1l-.2.4-.3.4zm55.9 40.7l.3.5.1.1.3.2.1-.1v-.8l.5-.5v-.3l-.4-.2h-.2l-.1.1-.3.3v.1h-.2l-.1.2.1.2zm-85.3 7.1l.4.4v.2l.2.1.4-.3.1-.2.1-.2.2-.4v-.2h-.3v-.2H97v.3h-.4l-.1.1v.1zm38.2-37.9l.2.1h.2l.1.3h.2l.2.1h.1v-.2l.3-.3v-.2l.1-.2v-.3l-.3-.1h-.2l-.2-.3-.3.4h-.1v.2l-.3.1v.1zM114 197.6v.2l.2.2h.8l.2-.3h.1v-.7l-.3-.3h-.2l-.2-.2v.2l-.2.3v.3l-.3.1-.1.1zm60-15.9v.2l.4.4h.5l.2-.3h.1l.2-.3v-.4h-.2v-.1h-.4v-.2h-.4v.5h-.2l-.1.1h-.1zm5.8-14.6v.2l.2.3v.2l.2.2h1.4v-.3h-.6l-.5-.2v-.4l.1-.1v-.5l-.2-.1h-.4l-.2.2v.4zm-59.4 39.4l.2.2v.3h.5l.2-.2.3-.4.2-.1.2-.3h-.3l-.1-.2h-.7l-.2.1v.1l-.2.2zm-41.2-31.1v.3h.2v.3l.2.3v.1h.3l.1.3h.3v-.6h.2v-.6l-.3-.1H80l-.1-.2h-.7zm48.1-16.4h1.3v-.3l-.1-.1v-.4l-.2-.4-.2-.2h-.7v.4l.4.2.1.1v.3h-.3l-.1.3-.3.1zm-74.9 37.8l.2.2v.2l.1.3h.4l.3-.3h.4l.1-.2h.2v-.1H54l-.2-.2-.3-.2-.3-.2h-.5l-.4.3zM.1 256.2v.2l.3.2h.9v.2h.2l.4-.3H2v-.3l-.3-.2h-.4v-.1H.2zm145.4-101.1v.2h.2l.3.2v.3h.6l.2-.2v-.6l-.2-.1v-.2h-.2l-.2-.2h-.3v.4l-.4.1zm-25.2 16.8h.1l.1.4h.8l.1-.1h.2v-.2h.2v-.4l-.2-.1h-.2l-.2-.2h-.2v-.1h-.1l-.2.2-.2.2-.2.2zM109.2 184v.2h.3v.2h.5v-.3h.3v-.1h.1v-.2h.2l.1-.2.1-.2h-.8v-.2h-.6v.2l-.1.1v.2l-.1.1zm-1.3-36l.1.2.2.3.3.2h.3l.2-.3v-.7l-.1-.4v-.1h-.5l-.1.1-.2.2v.1l-.2.3zm-.9 34.6v-.2h.3l.2-.1v.4h.3-.3v.1h-.1v.1h.3v-.3h.5v-.2h.3v-.2h.3v-.2h-.2l-.3-.2h-.1v-.1h-.4v.2h-.2v.1h-.4l-.2.3zm.3.8v.3h.2v.3h.3l.1.3h.1l.2-.3v.3l.1.1h.3v-.6l.1-.1v-.2h.2v-.2h.1v-.5h-.2l-.2.4-.1.2h-.1v.4h-.8v-.5l.3-.1h.1l.1-.1h.4v-.1h.3v-.2h-.7l-.3.4h-.3l-.1.1v.1zm-21.8 2.9v.3l.2.2v.2-.3h.2v.3-.3h.1v-.2l.3-.2v-.1h.3l-.3.2v.3l-.1.3H86h.5-.3v-.2h.8v-.3h.3v-.1h.1v-.2h.1v-.1h-1v-.1h-.9.2v.2h.2v.1l-.3.2v-.3h-.1zm0 0h.2v.2zm.5.1v-.4.3zm.7.2v.3zm0-.1h.2zm.3 0v.2h-.1zm-6.6-8.2v.3h.3v.2l.2.2h.4l.1-.4.1-.1v-.5h-1v.1l-.2.1zm26.2 13v.2l.2.1.1.2v.2h.1-.1v.3h.1v.2h.2v-.3h.3v-.2h.2v-.2h-.2l-.3-.1h-.1v-.7l.4-.1v-.7h-.5v.4l-.2.2v.4zm0 0"/></g></g></svg>