<svg xmlns="http://www.w3.org/2000/svg" xmlns:xlink="http://www.w3.org/1999/xlink" viewBox="0 0 497 279" xmlns:v="https://vecta.io/nano"><style><![CDATA[.B{stroke:#fff}.C{stroke:#8d618b}.D{stroke-linejoin:bevel}]]></style><filter id="A" width="100%" height="100%" x="0%" y="0%"><feColorMatrix in="SourceGraphic" values="0 0 0 0 1 0 0 0 0 1 0 0 0 0 1 0 0 0 1 0"/></filter><mask id="B"><g filter="url(#A)"><path fill-opacity=".5" d="M0 0h497v279H0z"/></g></mask><clipPath id="C"><path d="M0 0h497v279H0z"/></clipPath><path fill="#f2efe9" d="M0 0h497v279H0z"/><g fill="#aad3df" fill-rule="evenodd"><path d="M375.5 131.3l.5.1.4.4v1.2l1 1.2.6.6 1.8 2h1l.4.7.1.4.3.1.4 1.1 1.4.3.2.4.4.1v.3h.2l.3.2h.3v-.1l.4.2v.2h.2l.2.8v.6l.1.3.3.1v.5h.2l.3.8.5.2.6.3.2.2 1.7.8h.7l.6.2v.8l.5.3v.4l.4.5 2.6.6v.1l.4.2v.3h.3l.6.2h.6v-.2h.4v-.2l.7.4 2.7 1v.1l.8.3h.1v.1l.3.4 1 .2v.2l.5.1h.9l.2.2.5.1v-.2l.4-.2 2.7.4 1.4.2 5.5 1.2v.2l3.6 1.2h.4l2.3.4 2.8 1.2.8.6.8-.1v.1h1.1l.1-.6h.2l.7.6.5.5.3.4.2.1v.4h-.1l.5 1 1 .4h.9v.4l1 .3v.3l1.8.4v.2h.3l.5 1 .6.3.2.4h.2l.3.4h.3l.4.8h.4v.1l1 .3.2.2 2 .5h-.2l1.5.7-.1-.3h.4l1.3.6v.2l.3.3h1.1v.2h.1l.1.3 1 .5h.9v.5h.2l.4 1 .8.2 1.2.4h.2l.9-.2h3.1l2.2.7h.4l.6-.5h.3v-.6h1.1l1.3.8.3.2h4l.5-.4 1-.1h.8l.4-.2.3-.2h.2l2-.1.8-.5v-.2l.5-.1.2-.2 2.7-1.1 11-.9 2.8.8.2.5-.9 1.4-.9.8-.2.3.2.4 1-.6.1-.6.9-.6 3.6-.7 2.2-1 3.6-.5 8.1 1.3 2.6 1.2 2.3 1 1.3.5 1.3 1.4 1.4.7 2.2 1 .3.3h.2v.3h.3v.1h.3v.2l1.2.4.4-.5h.3l.2-.6-.1-.2 1.7-.7 5.2-.2 2 .4 1.2.7v.2h.3l1 2.3h.3v-1l-.2-.7.5.2.3.5.2 2.4v.1l.2 1.7v2.4h.1l.1.4h.2v.2l.2 1-.3-.2v.2h.2l-.1.2.4.2 1.2 1.2.6.2.3.4 1.8 1.3.3.1.3.4.3.1.4.7h.2l.5.7h.3v.3l.4.7h.2l.4.6h.1l.5.7h.3l.1.6h.3l.1.4h.2l.1.2.5.2.1.3h.2l.2.3h.2l.1.3.5.3.5.9.7.4v.1h.3l.4 1h.2l.4.7.3.3.3.3.2.1.7.6.5.3.5.3 2.3 1.2.2.3.2.1.2.3.7.3.2.2.7.3 1 .1 1.3-2.4 2.7-3h-.9l-.4-.2-.3-.2-.1-.1v-.2l-.3-.3-.5-.3-.5-.3-.4-.3-.4-.4-.2-.3-.4-.4-.2-.7-.6-1-.9-1.1-.6-1.2-.5-.7-.7-1-.8-.7-.6-.6h-1.1l-.6-.2-1-.2-1-.2-1-.2-.7-.1-.3-.2-.8-.2-.6-.3-.4-.3-.5-.6-.7-.5-.4-1.1-.6-.9-.4-1.1-.2-.6v-1l.1-.4.2-.3v-1.1l-.3-.1v-.2l-.2-.2-.2-.3v-.2l-.1-.1v-.2h-.3v-.2l-.1-.1-.1-.3-.1-.1-.1-.2v-.1l-.1-.3-.2-.3-.1-.4-.3-.2v-.2l-.2-.3v-.4l-.2-.1v-.4h.2v-.6l-.2-.3-.1-.1v-.1l-.2-.2v-.3l-.1-.2v-.3h-.3v-.3h-.1v-.1h-.1v-.1l-.2-.1v-.1l-.3-.3v-.1l-.3-.1-.1-.2v-.1h-.5v-.2h-.5l-.2-.2h-.3v-.2h-.4l-.1-.2-.3-.4-.3-.3-.2-.2-.1-.3-.2-.1v-.7l.1-.2v-.8h.2v-.2l-.3-.2-.1-.2h-.1l-.1-.2-.3-.1-.2-.4-.4-.3v-.2l-.2-.2h-.2l-.2-.4-.1-.1h-.3l-.1-.3-.1-.2-.2-.2-.2-.2-.2-.4-.2-.3v-.1l-.2-.4.2-.2v-.2l-.3-.2v-.4h-.3v-.2h-.1l-.3-.2h-.1l-.3-.2-.6-.4-.3-.2-.5-.4h-1l-.3.4-.2.2-.2.2-.1.2-.1.2-.3.2-.1.2-.3.5-.3.3v.1h-.3l-.3.4-.6.2-.3.1h-1.6l-.6-.1-.4-.3-.3-.2-.1-.4-.1-.2-.5-1.3-.1-.3-.2-.4v-.2l-.3-.1v-.1l-.2-.2-.3-.1v-.1h-.1v-.2h-1l-.1.3h-.6v.1h-.3l-.2.1h-.8l-.2-.3h-.1l-.2-.2h-.1l-.2-.1h-.5l-.1-.2h-.2l-.2-.1-.3-.1-.1-.1h-.2v-.2h-.2v-.1l-.1-.1h-.5l-.2-.2h.3v-.1h-.3v-.1h-.6l-.2-.2-.3-.1-.2-.1h-.3v-.2h-.4l-.2-.2-.1-.1h-.3v-.2h-.2v-.1h-.2v-.1h-.2v-.1h-.2l-.1-.1-.1-.1h-1.2v-.2h-.9l-.2-.1h-.7l-.3-.1h-1.4l-.3.3h-.3l-.2.1h-.9l-.2.3h-.4l-.2.3h-.2l-.2.1-.4.3-.2.1-.1.2-.2.1-.2.1-.4.3-.5.4-.4.2-.4.2-.5.4h-.4l-.3.2-.4.1h-1.2l-.1.2h-1l-.4-.3h-1l-.1.4h-.4l-.3-.1h-.2l-.1-.2h-.2l-.2.2v.2h.4v.1h.1v.1H487l-.3.1h-.7l-4-.9-1.1-.1h-.3v.3h-.5l-.1.1h-.3v.1h-.2l-.2.1h-1.1l-.1.1H477l-.3.1h-.2l-.3.1h-.3l-.2.1-.2.1-.3.2v.2h-.4v.1h-.2v.3l-.3.1-.1.2-.2.1-.4.5-.4.2-.2.2h-.2l-.2.2h-.1l-.2.2h-.3l-.2.1-.1.1-.4.2-.4.3-.4.2-.3.1-.2.2-.3.2h-.9l-.2.3h-.2l-.8.1-.4.1-.6.2-.8.2-1 .1-.8.3-.5.1-.6.1-.5.1-.4.2-.3.4-.3.2-.4.1-.3.2h-.6l-.1-.3h-.7l-.6.5-1 .3-.7.2-.7.2-1.3.2-1 .1-.3.1H452l-.7-.3h-.9l-.3-.1h-.5l-1.1-.2-2-.1h-.6l-.9-.3-.4-.2-.5-.3-.3-.2-.4-.2-.3-.1-.5-.2-.5-.3-.7-.3-.4-.2-.5-.2-.5-.4v-.5l.2-.3.2-.1 1.6-.3.8-.4.6-.3h.1v-1.4h.2v-.4l-.3-.1v-.2l-.1-.1v-.7l-.1-.3v-.3h-.2v-.3l.3-.1.3-.1h.4l.9-.2.8-.1.3-.2h5.6l.5-.2h.3l.6-.3.4-.1.2-.2.6-.4.2-.1.2-.2h.2l.2-.2h.2l.2-.1.1-.2.2-.3v-.1l.2-.3v-.3l.3-.7.2-.9.2-.4v-.4l.4-.2v-.6h-.3l-.3.3-.2.3v.4l-.2.2v.6l-.2.4-.2.4-.2.4-.1.2-.3.3v.4l-.2.3-.2.1-.3.1-.5.3-.6.3-.5.2-.5.3-.7.1h-.3l-.7.3h-2l-.5-.3h-.8l-.2-.1-.1-.2h-.6l-.5.3-.4.2h-.2l-.2.2h-.3l-.2.1h-.7l-.2.1h-1.8v-.2h-.8v.2l-.1.1h-.4l-.2-.1-.2-.1-.2-.2h-.3l-.1-.2h-.8l-.2-.2h-.2l-.4-.3-.1-.1-.3-.3-.2-.2-.3-.2-.1-.2-.2-.2-.1-.2-.2-.2-.4-.4-.7-1-.3-.6-.6-.7-.9-1.2-.4-.7-.3-.4-1.5.1-.3.1-3.5.4-1.2-.4-1-1.2-.9-.1h-.6l-4 .9v.1l-.3-.3h-.5v.4l-.5-.2v-.2l-1.5-.6-1.9-1-.6-.7v-.1h-.4l-.3-.4v-.2h-.4l-.2-.5-.2-.1-.7-.2-1-.2.6.8v.5l-.5.1-.8.4-1.1-.1h-.7l-.8.1-.3.2h-1l-1.2-.5v-.1h.4v-.2h-.7v.2h-1l-.1-.8v-.1l-.4.2v-.7l-.7.8-.4.3h-.1l-.1.2h-1l-.8-.2-.7-.1-1.1-.6-1-.4-2-1.3-.2-.2-.8-.5-.6-.5-.4-.3-.3-.2-.5-.3-.2-.3-.8-.5-.8-.6-.7-.6-1-1-1.1-1.1-2.6-2.3-1-1-1.5-1-.6-.5-2.1-2.8-1.8-2-1-.9-1.5 3.7zm10 6h.5v.2l.5.2.5.4 1.7.8v.2h.3l.4.5v.2l2.4 1 1.2.6.5.3v.2l.5.1v-.1l.5.2.3.4h.4v.5h.3l-.2.3h.4l-.2.3h-1.4v-.3l-.8-.4-.1-.2h-.2v-.3h-.3v.2l-1.2-.3-.1-.3h-.2l-.2-.4h-.5l-2-.6-.3.9h-.3l-.1-.2-.2-.3v-.1l-.4-.1v-.4h-1.4v.1h-.2l.2-.7v-.3h-.1v-.3l.3-.1-.3-.8h-.1zm17.9 11.6l.2-.4h1l.1-.3h.5l-.1.1h.3v.3l.2.2 1.4.2v.4h.4v.6h.1l.5-1v-.4l.9-.2 3-1h.9l.2.8h.4l-.2.3 1.2.1.3.6h.1v.2h.4v.2l.5.2v.2h1v.4l1.3.2v.2l.5.2.3.5h.1l.7 1v.1h.2l.3.3v.1h.4l.1-.1v.4h.2v-.3h.2l-.2-.1h.2v.2l-.2.3.3-.1v.3l.3-.1.3.3h.1l.2.5h-.5v.1l-1.8-.6v-.2h-1.6l-2.6-1.1-3.2-1.6v-.1l-.7-.2-1.5.2v.2h-2.5v-.4h-.2v-.2l-.3-.4h-.2v-.1h-.5v.3l-.2.4-1.4-.4-.6-.6-.1-.3h-.2v-.3zm17.1.3l4-.5 5.8.5 1.7.6.5.4.5.4 1.4 1.2.3.5.3.5-.1.2h.1l.4.8v.3-.1l.9-.2v.2h.3l.1.3h.4v.4h.5v.3h.2v.2l.9.4.6-.1.1.1 1.6.1v.3l.5.2v.1l.7.2v.7l-.6.2v.3h-.4l-.2-.8v1.1h-.3l-.3.3h.1l.1.1v.4h-.5l-.1-1.1h-.1v.4h-.3v-.2h-.6v.1l-.4.3v-.4h-.3v-.5l-.1-.7h-.3l-.2-.7h-.1v.7h.1v.3l-.7.3h-.8l-.2-.3h.2l-.2-.5h-.8l-.2.2h-.5l-.5-.4h.3-.3v-.5h-.2l-.1-.3h-.3v-.3l-.1.2v.3l-1.3-.5-1.2-.2v-.1l-2-1.2h-.2v-.3l-3.1-1.4.2.5-2.3-.5-2.4-1v-.3h-.3zm15.3 13.7h.6l.2.3.8.3-.1.2-.7-.2-.8-.5zm19.2 3.8l.6-.4 2.9-.5.1-.2v.2l4.4-.3 4.7-1.4h.1l1-.6h.2l3.5-1.8.1.3h-.2v.3l-.3.5-1.5.7v.2h-.1l-.8 1.5-.3.5-1 .3v.3h-.3l-.7.5v.2h-.3l-.3.4h-.2v-.1l-.3.2-.1-.2h-.2l-1.3.3h-.3v-.3h-.3v.3h-.1l-.8.1-.1-.1h-.4v.4l-.6.1-.1-.3v.2h-1.2l-3.1.1-1.9-.5v.1l.2-.4v-.3l-.2.2h-.3l-.1-.6h-.4zm19-4.2v-.1l1.7-.4 1 .2.8-.9 1.9-1 3.7-.3 1.9.3 1-.2 4.2 1.2.2.4-.2 1.1-.2.3-2.4 1.2-3.1.3-9.1-1.4-1.4-.6zm21-4.4l.6-.1.2-.5-.2-.2.8-.4v-.2l.8-.6 2.8-.2 1.5.6.8 1.4v.1l-.7.3-.3.2.1.6-.7-.5-.7-.8-1.7.2-.6.6.1.6-2.8-.9zm7 2.6l.3-.4 1.5-.3 1.5.1 1.5-.5.5-.6.1-1.1.3.1v.2h.2l1 .3.1.5.6.2v.2h.2v.1h.5v.4h.2v-.1l.4.2v.2l.5.1v.2l.4.2v.1l1.2.5.1.3.6.2v.2h.5l1 .6v.2l1.2.4v.2l3.7 1.4 1.3 1.8.2.8h.9v-.4h.3v.2l.2-.2h-.2v-.2l.2-.1v.1h.2v-.2h1.4l.4.2v.1l.3.1v.2l.5.1.2.3h.3v.2h.3l.4.8h.2v.1h.2l.1.3h.2l.7 1h.2v.4l.3.6-.8.6h-.7l-.5-.4-.1-.2h-.3l-.1-.4h-.4l-.8.4h-.8l-.4.2h-1.5v-.3h-.4v.1h.3v.2l-2.6-.7v-.2h-.4v-.2l-.9-.4v-.2h-.5v-.2l-.4-.1-.1-.4-4.7-1.1v-.2h-.9l-1.1-.1-.8-.7-1.3-.3-.7-1.7v-.2l-.6-.9-1.1-1.2-.8.2-1-.5v-.1l-.4-.1v-.2h-.1l-1.8-.5-.2-.4zm.7-2.7l1.3-.6v-.2h.5l.2.6v.2l-1.2.5h-.3zm11.1-.8l.2-.5.7-.2.8.6.5.9.2.5.1.5.4 1 .3.1 1 .5.7.1h1.3l.6-.3h.1l.6-.4.3-.2.2-.2.2-.4.5-.6.4-.6.6-.5h.5l1.4.7.3.4h.4l.4.4.3 1.4.2.3.8 1.3.2.2.5.4.5.4.3.3.3.3.4.4v1.2l-.3 1.1-1.7-1-5.8-1.3-.7-.5-1.6-.9-.1-.3-.5-.1v-.2l-.9-.4-.4-.5-.7-.3-.6-.8h-.3l-.4-.4-.3-.5h-.1l-.3-.5-.3-.2-.7-.5zm1.8 13.6h.2v-.4l1.6-.4.1.2h-.3v.1l.7.1.3.6h-.2.2v.3h-2.1v-.5h-.3v.4l-.2-.3zm13.4-4l1.1.6.2.2.6.2.2.3-.1.4h-.4l.4.2v.3h-.4v-.3l-.6-1h-.1v.1l-.7-.7h-.1zm.5 6.5l.5-.6.3 1.3-.9-.1zm1.7-4.1l.2-.9 1 .1v.2l.6.3v.1h.2l.1.2.7.4.2.6h.2v.5l-.3.8-.3.1v.2l-.7.3v-.1h.2v-.2h-.3v-.3l-.4-.7h-.8l-.2-.9-.2-.1zm2.1 4.8l.2-1.2.6-.4v-.2l.7 1.2.4.7h.2l1 1.7.3.1.1.7h.2v-.3l.3.7-.3.7-.2.3h-.2l-1 .6-.8-.1-.1-.7-.7-1zm1.8 7.3l.2-1.1.3-.9.6-.9.2-.1.3-.1h.2v.2l.1.5v.5l.2 1 .2 1.1.4 1.1.6.9.7.7.8.5.7.5.4.3.2.1.3.2.4.1.8.2h2.8l.5.3 1 .3.7.6 1.4 1.3.8 1.1.4.7.8 1.4.5 1 .5.7.2.5h.2l.1.3v.1h.2v.5h-.6v-.4h-.2l-.3-.1h-.1l-.2-.1h-.2l-.1-.2-.1-.1h-.4l-.1-.2h-.3v-.1h-.4l-.2-.3h-.3l-.4-.2h-.2l-.2-.2-.2-.2-.5-.1h-.2l-.1-.3h-.1l-.2-.1h-.1l-.5-.3-.5-.3-.5-.7h-.2l-.6-.7-.5-.3-1-1.1-.6-.9-.4-.2-1.7-1-1.5-1-2-1.8-1.1-.7-.6-.6-.2-.7zm10.7 13h.1l1.8.6.1.1.3.4.2.1.4.3.7.4.7 1 .3 1 .1.1.2.5-.4.3-.6-.1-.6-.3v-.1l-.6-.3-.5-.7-.3-.2-.3-.4-1.1-1.4-.1-.4zm7 3.5v-.8h1.2v.3l-.3-.1v.2h-.6v.1l.5.2v.1h-.6zM81 80.8l1 2.7-.2.8.2.7h.1l.9 1 1 .6.3.1h.5l.4-.3.3-.1h.6l.1-.3H86l-.3-.3-.4-.5-.2-.5.4-.2.3.2.9 1.3.7.3h1.1l.6.2.5.6.8 1.2.3.7.1.6.5.8.7.6 1.4 1.8 1.4 1.2.5.6.5.4 1 .7 1 .8 1.6.9.8.5 1 .7.3.2v.2h.2l.2.4h.1v.4h.4l.3.8h.3v.2h.1v.7l-.1.1v.6l-.4.6v.9l-.5 1.7 2.9 1 .2-.2 1.8.6v.4h.4v.1l.9.7 1.1.5h.6l.2.3h.6l.1-.4 2.5.5v-.1h.8l.1.2 3.7-.6 1.2-.2.5.2v-.2l2.3-.2v-.3h.7l2.7-.6.1-.1h.7v.2l2-.2.9-.3v-.1l2.4-.6h.5l.8-.2 3 .7 5.4 2.5v.1h.4v.1l1.2.8h.2v.1l1 .6v.1l.9.5v.2h.1v.2h.3v.5l1.5.2.1.4-.1.2 2.3.6 6.2 3h.4v.2-.2l1.3.4v.3l1.6 1 .2.6 1.8.5v.4l3 1.2h1.2v.2l.6.3v-.2h.5l5.4 2.1h.5v.2-.1l.4.1h1.6l.6.4h.2v.4h.2v.1l2.2.2 1.4.5v.1h.2l.1.1 4.7.6-1.2-2.4 2-2.9-2.2-.3-.2-.2h-.7v-.2h-.6l-1.5-.2v-.3h-.3l-2.4-.9-1.7-.6-.1-.4-1-.3v-.2l-1.7-.5-1.5.2-1.4-.3-2-1-.4-.5.2-.6v-.1l.1-.4-.3-.1.1-.2h-.3v-.1h-.4v-.3l-.5-.1v-.2h-.1l-.1-.3h-.2v-.6h-.1l-.5-.2-.4-.4-4.4-1.1-1.6.3-1.2-.1-2.3-1v-.2l-.5-.2v-.1l-3.4-2.8-.9-.3-.2-.3-.8-.4-1-.2v-.1l-7-3.3-1.4-.9v-.2h-.3l-4-1.3-.9.4-.7.4-2.1 1.8-1 .2-1.1.4v.2l-.6.2-.1-.2-.1.2-.6.2v.1-.1H126l-.4.3-1.9-.7-1.1.1-.3-.2h-1.2l-.6-.1h-1.2v-.1l-.3-.1-.7-.2-1.3-.7v-.3l-1.2-.5v-.2l-1.3-.9h-.5v-.5h-.2v-.1h-.2l.1-.2-.3-.3v-.2l-.5-.5v-.2h-.6V97h-.1v-.2l-.7-.2v-.2l-3.4-1.2-1.4-1-.7-.5v-.3l-.7-.3-.3-.4v-.2h-.3v-.3l-.7-.3v-.2l-.6-.1v-.2h-.4l-1.6-.9-1-.5-1-.8-.7-2.6-.2-.2-.4-.4-1.1-1-1.5-1h-.2l-.3-.3-.2-.1-.1-.1-.3-.3h-.2l-.2-.3-.3-.2h-.2v-.1l-.4-.4-.1-.1-.2-.1-.1-.2-.3-.4-.2-.4-.2-.4-.2-.3-.1-.3-2.2.2-2.2.2-3.1.2zm0 0"/><path d="M396.4 120l1 1.3.6.9 1 .3.8.4.6.1h.3l.6.3.7.2.9.5.8.2.3.2 1.5.5v-.1l1.3.5h.2v.1l.4.3.6.1.4.2h.9l.4.1 2 .2v-.1h.3v-.5h-.1v.3-.3h-.8l.4-.2.1-.1h-.2v-.1l1.9-.6h1.1l.1.3h.2v.1l.3-.1.1.3h.1l.2.4h.2l.1.3h.3l1.7 2.7 5.9 7.8h.1l.5 1.1.3.8v3l-.5 1.6v1.2l.4 1.2-.4.8h.5l.7.3-.1-.6v-.6l-.3-2.4.5-1.4.2-.1v-.1h-.2l.2-.9h.2v.3l.2 2v.9l.2-1.2.1-.8h-.2v-1.4l-.5-1.7.3-.2.6-.3h1.4l.2.2h.3v.1l.2.2.6-.2v-.3h.6v.6l.9 3.3.4 4.8.3.8h1.5l-.3-.4-.3-.1-.2-.2-.4-.2-.2-.2v-.2l-.2-.1v-2.7l.4-.1v-1.1l-.4-.6v-.6l-.2-.2v-.7l-.2-.1v-.3l-.1-.1v-.2l-.1-.2-.1-.2-.1-.3-.1-.2v-1h.2v-.2h.1l.2-.1h.2l.2-.1.1-.1h.3l.4-.2.4-.1.2-.1.2-.2h.7l.8-.2h.5l.4-.2h.2l.3-.2.3-.2.3-.5.7-1 .3-.7.3-.6.4-.4v-.2l.5-.3.5-.4.7-.3.3-.2.4-.1.6-.1h.5l.5.2.4.1.4.2.6.4.3.2.2.3.1.3.3.2h.4l.3-.1v-.3l.3-.2v-.8l-.3-.6v-.5l-.2-.7v-.5l-.1-.3v-.3l-.2-.2h.3l.3.2.4.6.5.7.4.6.4.8.2.7.4.7.7 2 .4.5.5.6.4.2.2.1.2.2h.2v.1l.3.2h.2l.3.4h.3l.4.2h.2v.3h.2l.1.3h.2l.3.2.1.2 1 .7.1.3.3.1v.2l.1.1.3.3h.1l.7.4.6.4h.2v.3l.2.2h.8l.4.4.6.2.7.5 1 .7.5.4.8.4.3.4.7.2 1.1.4 2.3.6 1.6.6 2 .5 1.5.5 1.4.7 1.1.5 1.4.7.5.3.5.2.6.5.3.3.5.4.2.2.1.1.1.1v.2l.2.2v.1l.1.2v.1l.2.4h.2l.1.3.2.1.3.2.1.2h.2v.2l.3.2.2.2.1.1h.1v.3h.2v.1h.1v.1h.2l.1.2h.1l.2.4.2.2v.1l.2.4.1.3v.3l1 .3 4.1.7-.2-.2-.3-.1-.5-.4-.9-.4-1.1-.5h-.3l-.2-.3h-.5l-.4-.1-.1-.4-.3-.7-.4-1-.6-.9-1.2-2.4v-.3l-.3-.2h-.3l-.3-.4-.5-.3-.1-.3h-.3v-.2l-.2-.1-.2-.2h-.2l-.4-.3h-.6l-.6-.2h-.5l-.5-.3-1-.4-1-.5-.7-.3-.6-.4h-.4l-.2-.3h-.2l-.2-.1-.2-.1-.2-.2h-.1v-.2h-.5l-.3-.2h-.4l-.3-.2h-.2l-.1-.1h-.2l-.3-.3h-.3l-.2-.2h-.4v-.2h-.5v-.2h-.5v-.1h-.3v-.1l-.1-.2h-.5v-.1h-.1v-.2h-.4v-.1h-.2l-.1-.2v-.1h-.2v-.1h-.1v-.1h-.1v-.1l-.4-.1h-.1l-.3-.3h-.1l-.3-.2-.1-.1-.4-.2-.2-.1h-.1l-.1-.2h-.4l-.1-.2h-.3l-.2-.2-.3-.1-.2-.1h-.1l-.2-.1h-.2l-.3-.3h-.1l-.2-.2h-.2l-.4-.4-1-.8-.6-.5-.3-.2-.2-.2-.1-.2h-.1l-.1-.1-.2-.2v-.1h-.1l-.2-.1-.1-.2h-.1l-.1-.1-.2-.1-.2-.3-.4-.2-.3-.3h-.3v-.2h-.2v-.1h-.1l-.2-.1-.1-.1-.2-.1-.2-.4h-.1v-.2h-.2v-.2h-.1v-.1l-.1-.1v-.1l-.2-.3-.1-.1v-.2l-.1-.2h-.1v-.2h-.2v-.1l-.1-.1v-.1h-.1v-.2h-.1v-.2h-.1v-.1l-.1-.1-.4-.8v-.1l-.3-.1-.1-.1-.2-.2-.1-.1h-.2l-.2-.3-.2-.2-.2-.1-.1-.1v-.2h-.2v-.1h-.1l-.2-.2-.1-.1h-.1l-.1-.2h-.4v-.3h-.1l-.1-.1-.1-.1-.2-.1h-.2v-.2h-.2v-.1h-.1l-.1-.2h-.2v-.1h-.2l-.1-.3h-.2l-.2-.2-.2-.1-.1-.1h-.1l-.1-.3-.1-.1-.2-.2-.1-.3h-.2l-.2-.2h-.5l-.6-.3-.5-.3-.4-.3-.3-.5v-1l.3-.4v-.3h.2l.3.1.3.2.2.3h.1l.2.4.2.2.2.2.2.3.2.3.1.2.2.1.2.3h.2l.1.1.3.3.2.1.2.1.2.1.2.1v.2l.2.1h.1l.2.2v.1h.1l.2.2.3.2h.1l.1.1h.1l.1.1h.7l.1.1h.3v.2h.2v.4h-.6l-.1-.2h-.2l-.1-.3h-.2l-.1-.2h-.3v.3l.4.2.2.2h.1l.1.2h.2v.1h.5l.2-.1h.4l.2.1h.4v.2h.3v.1h.3l.2.1v.1h.5l.4-.2h.3v-.2h.6v-.1h.7v-.2h.4l.1-.2h.9l.5-2.4-.7.2-.8.1-.4.1-.5.1-.6.3H449l-.4-.4-.6-.2-.2-.1-.2-.3h-.2l-.3-.3-.1-.4-.3-.3-.5-.9-.1-.4-.1-.3-.1-.3-.1-.4v-.5l-.3-.2-.2-.3-.2-.2-.1-.2-.3-.2-.2-.1-.3-.3-.2-.2-.2-.1-.3-.1-.3-.1-.5-.3-.5-.3-.3-.2-.1-.1-.2-.1h-.2l-.5-.2h-.5l-2.4-1-2.4-.5-1.9-.1-1 .1-1.2.3-1 .6-1 .6-.5.3-.6.3-.7.2h-5.1l-1.8-.5h-3.5l-1.3-.3-1.7-.5-1-.5-1-.4-.8-.3-1-.2-.2-.1-.4-.2h-.2l-.3-.3-.2-.1-.4-.4-1 .5-7.1 2.8zm7.2 1.4v-.1l.4-.1h.3v-.2h.2v-.8l-.4-.3-.1-.2-.3-.1v-.1h.3l1 .5 1.3.3h.4v.2l.3-.1 1.8.3 1.5.1-.1-.2.3-.2v.3h.2v-.1h2.3l.7-.1v.1h.3l1.4.7.2.4h.4v.3l3 1.3.1.7 3.1 2 2.2 2.2.5.7.4.4.2.4.7 1h.2l.2.7h-.2v.2h-.4l2 4.8-.4.2v.2l-.2.2v.2l-.7.2h-.6l-.7-.4h-.1v-.2h-.1l-.3-.4h-.2l-.7-1.4h.3v-.3l-.3-.7-.6-1.5-1.7-2-3-3.5-.8-1.4h-.1v-.2h-.1l-.2-.3h-.2v-.3l-3.1-1.2h-2.9l-.9.6h-.2l-.4.3-1 .2h-.5l-.3-.3v.2h-.5l.1-.2v-.1h.4v-.2h.2v-.2l.7-.2v-.5l.4.2v-.2h.2v-.4h-.7l-.3-.2v.4h-.4l-.3.2h-1.2l-1.6-.4v-.1h-.4v-.2l-.6-.1v-.9zm15.8 1.1l1.6.5h4.7l1.2-.5h2.2v-.2l-1.2-.3.3-1h.3v-.4h.5l1.4-1.5 2.6-.7h5.6l.4.8h.2l.8 1.5.2 1.8-.1.4h-.4v-.1l-1.3-.6v.2h.3l.9 1h-.2v.4l.3.4h.3v-.3l.1-.2.1.8 1.6 2.3h.1l.3.5h.1l.2.7-.1.6-2.8 1.2v.3l-.3.1v.2l-.4.2v.2l-.3.2v.2l-.4.1-.2.3v.2l-.3.2v.2l-.5.2-.7.8v.1l-1.8 1.2-.3.6-3 1.3h-1.9l-.8-.4-.3-.2-.7-1.1-.9-4.1-.7-1.3h-.2l-.3-.7h-.2l-.2-.6-.4-.7-1.8-2-2.6-1.7-.7-.6v-.2h-.2zm22.3-2.5v-.2l.2-.2h.1l.1.4v.1l.2.1v.1l.1.2v.5h-.3l-.1-.2-.1-.1v-.2l-.2-.2zm12.3 18l.2-.2.6.2.2.2v.3l-.9-.1zm0-.1"/><path d="M454.4 127.7l.4.1.4.2.2.2h1l.2.2h.1l.3.1h.5l.5.2h.9l.3.1.4.1.1.1h.7l.1.2h.4l.1.1.2.1h.4v.2h1.4l.2.2h.4v-.3l-.3-.1-.2-.2v-.2h.3v-.2h.5v-.2h.1v-.2l.3-.2.2-.2.2.3.1.1h.5l.4-.1h.8l.5-.3h.2l.5-.1.4-.2h.1v-.2h.2v-.2h.3l.3-.2v-.1l.4-.1v-.1l.4-.2.3-.3.7-.4.2-.2.7-.6.3-.1.3-.4v-.1h.2l.8-.7.5-.2.3-.2.4-.2.4-.2.1-.2.2-.1.1-.1.1-.1.2-.2.2-.1.3-.2.2-.2.6-.3.4-.2.4-.3v-.5h-.2v-.5h-.3v-.4l-.1-.1v-.3l.2-.2h.1v-.2l.3-.6v-.5l.3-.2v-.7l.3-.7.2-.4.2-.5.3-.2v-.2l1-.8.5-.4.4-.6.4-.3.2-.2.3-.2.5-.5.4-.4.3-.2v-.1l.5-.3v-.2l.2-.3.3-.2v-.3l.4-.3v-.1l.3-.2.1-.3.2-.2.3-.5.1-.1.2-.2.1-.1.3-.2v-.2l.2-.1.2-.3.3-.3.3-.3.2-.2.6-.8.2-.2.2-.5.2-.1.1-.3h.1v-.3h.2v-1.5l-.2-.5v-.2l-.3-.4v-1.2h.2l.1-.2.4-.2v-.1l.2-.2.4-.3.2-.2.4-.1.7-.4.6-.3.8-.5 1.3-.7.6-.3.3-.2h.3l.2-.3h.3l.2-.1.3-.1.4-.1.5-.5.3-.3.2-.4.4-.4.4-.5.2-.3.2-.2.4-.2.4-.3.6-.2.7-.2h2.7l.8-.1h.2l.3-.2h.3l.8-.2.4-.1.3-.1.3-.1h.7l.2.2.1.1h.1v.1l.3.1h.2V92h.2l.2-.2.2-.1h.9v-.1h.3v-.3h.2v-.1l.2-.2h.4v-.2h.2l.2-.1h.2l.3-.3h.9v-.1h.2v-1h.1l.1-.1.2-.2.2-.1.2-.2h.1l.6-.6.3-.1.2-.2.2-.1v-.1h.2v-.2l.3-.1.1-.2.3-.3.3-.2.4-.3h.3l.1-.1h2.2l.2.4.6.2h.1l.1.2h.8l.5.2.4.1.5.1.2.1.2.1.4.4h.3l.2.1.2.1.3.2.3.2.3.1h.2v-.3l-.4-.2v-.1l-.1-.1v-.1h.3l.2-.2h.2v.3h.3l3.6-1.5-.5-.7-.2-.5v-.7h-.2l-.1-.5v-.3l1.1.3V84l-1.4-.7v-.1h-.2V83l-2.1-.9-.1-.1-.9-.5h-1.2l-1.6.1-1.7.7-1.6.3-1.1-.3V82h-.3l-.2-.3-.8-.5-2-.6v-.3l1.6-.5.7-.4v-.2l.6-.4v.2l.4-.1v-.3l.7-.3v-.2h1l.1-.1h.3v-.2l1.4-.2v-.2h.4v-.1h-.1V77l1.6-.3v-1l.1-.2 1.4-.7v-.1h.2v-.1l1-.6.3-.3h-.3v.2l-.2-.1v.2h-.6l1.4-.8V73h.6l.1-.7.7-.3v-.2l.4-.1v-.3h.6v-.2l1.2-.6v-.2l.5-.2v-.3h.4v-.3l.5.1v-.1l-.5-.1-.2-.2h-.7l-.5.2-.6.5-1 .6v.2l-.5.2-.1.3h-.2v.2l-.4.4h-.1v.4h-.4v.2l-.3.2v.2l-.7.1-1.6-.1h.2v.3h-.2l-1 .3v.3h-.2l-1.4.8v.1h-.1v.2l-1.1.4-.7.5v.2h-.2v.4l-1.1.1v.2l-1.4.7v.3l-.6.2-.8-.1v-.2l-.5-.2-1.3.2-.8-.2-2.3.3-2 .9-.2.2-.7.6-1.3.9v.2h-.2l-.2.5-1.7.7h-.1v.2l-.3-.1v.2l-.7.3-.3-.1v-.3l-.3-.2v.1l-.5.3v.4h-.6l-.6.5v.3h-.2v.2h-.2v.4H498l-.5-.5-.3.7.2 1.2-.3-.1.2.8-.3.1v.5h-.3l-.5.7h-.2v.4l-.8.3v.2l-1.9.7v.1h-.1v.2h-.9l-1.7 1.7.2.2.2.1v.7l-.3.3-.2.3-.2.4-.2.4-.1.3-.4.4-.2.4-.2.4-.2.2v.2h-.4l-.3.3-.6.1h-.4l-.3.3h-.2l-.2.2-.6.4-.4.5-.4.4-.5.4-.5.5-.4.4-.2.4-.3.6-.3 1-1 2.6-.7 2-.3.9-.3.2-.2.2-.2.4v.1l-.2.2h-.2v-.7l.3-.3.1-.5.3-.8.1-.8v-.6h-.4v1l-.2.5-.1.5-.5 1.2-.5 1.3-.4 1.1-1 2-.6 1.8-.5.9-.2.8-.2.6-.4 1.2-.6 1.9-.1.5v.1l-.2.4v.6h-.4v-.3l-.2-.4-.1-.5v-.3l-.1-.2-.2-.3h-.7l-.3.5-.2.1-.7.5-.9.6-.6.3-.4.3h-.3l-.2.3-.3.4-.2.5v.2l-.3.3-.2.2h-.1l-.4.1h-.6l-.4.2h-.6l-.4-.4-.1-.2-.1-.3-.1-.3v-.4l-.3-.2v-.1l-.2-.1-.2-.1-.5-.3-.1.2-.1.2-.1.1-.2.4-.4.2v.2h-.2l-.1.1h-.1v.2h-.2v.1l-.2.2h-.1l-.1.3-.2.1-.2.2-.7.3-1 .4-1 .5-3.1 1-.7.2-.5.1-.2.1zm7.6-3h.2v-.3h.1v-.5l.3-.3v-.2l.3-.1.4-1h.2l1.3.1.6 1h.1l.2.3-2.7 1.3-1-.2zm2.6 1.7h.7v-.3l.1-.1v.3h.2l1.1-.5v.2l1.6-.8h.1v-.2h.2l.2-.3-.1.3h.2l.3-.7.4-.1h.6v-.1h-.3v-.4h.1v-.4l.6-.6 1.8-.3.1.3-.1-.1v.2h-.4l-.2.2-.5.3v.2l-.6.3v.2l-.4.2h.4v.6l-1.5 1.2-2 1h-1.9l-.7-.4zm3 1h.1l.1-.1h.2v-.2h.2v.3l-.2.1v.1h-.2v-.2zm.5.1v-.2h.2-.2v.3h-.1zm-.1 0h.3v.2zm10-11.3l.3-1.1.1-.2 1.8-3.5h.1l1-2h.1l.3-.6h.2l.5-1 .2-.1.4-.7v-.5h.3v-.5h.2l1-1.9.2-1.4h.2v-.7h.4l.1-.7.7-.3v-.1l.5-.4v-.3l1.6-.4.1.8v.4h-.1l.1.5v3.2h-.3l-.5.8h-.1v.2h-.2l-1.1 1.3v.1l-.4.1v.2l-.4.3v.2h-.2v.4h-.2l-.5.9-2 2h.2l-.5.3v.2l-.3.2-.1.1-.3.2-.4.4v.1l-1.7 1.5v-.2h-.1v.2l-.2.2v.2h-.3l-.6 1.5zm13-20.5l.2-.4.3-.3h.2v-.4l.3-.1v-.2l.3-.1v-.3l.7-.3v-.2.1-.2h.3V93l.7-.5 1.1-.4V92l2-.5 3.5-.1h-.2v.3l-6.8 2.5-2.2 1.5h-.6zm7.3-7.2h1.1l.3-.4.3-.1v-.5h.5v-.3h-.5v-.3l.6-.2v-.2l.1.1v-.2l.8-.3.1-.3h.4v-.4h.2v.1h.2l-.1-.1.1-.3.3-.1.6-1.3 1.5-.8h.7v-.4l1-.3h.2l1.2-.5h.1l1.7-.2v-.2l-1.6.2-.3.1h-.8v-.2l.1-.4h.2v-.1h.1v-.2l.6-.2.2-.1 1.3-.2h.7v.2l.3.2v.2h.2v.2h1.1v.1l-.5.4h1.2l1 .3h.9v-.3l2.5 1v.2h.4l.1.3.7.3h.7l1.2-.3 1.1-.8h1V82l.9-.1h.9l3 1.1.3.4.6 1.2h.2v.6l-.1.6h.1l-.3.2-.3-.1v.1h-.9v-.2h-.4l-.6-.2v-.2l-.3.1v-.2l-6.4-.9-3 .6-2.4.9-.4.1-.5 1.5h-.2v.1l-.9.6v.2l-3.1 1.7-.4.1-.9.2-.4-.2-.6-.2v-.4h-.1l-.3-.6-.9-.5v-.1l-1.8-.4-2.8 1v-.2h-1.7zm1.3-1.5l.5-1.2.4-.3h.8v-.4l.6-.2-.2.5-.7.3v.3h-.3v.3l-.3.1v.2zm19.6-10.1v-.7l1-.4v-.2h.4l.5-.2V75h.5v-.3h.4l-.2-.4h.3V74l1.4-.8 1 .1v.4l-.3.2v.1h-.2l-.2.6h-.2l-.6.4-.3.4v.3l-.4 1-1 .1-.6.5v.2h-.2l-.1.1h-.4v-.1h-.3v-.3zm-303.5 72.7l.5 1.1 2.8 2.6 3.8 2.9 3.2 1.3.6.6h.4l1.3.1 4.5.3v-.2l.4.1v-.1h1.6v-.3h.5l1.5-.9 4-2.5v-.3l.7-.2.1-.3 5.8-3.9h.1v-.1l1.1-.4.6-.1v-.3l1.8-.2v-.2l.4.2v-.2l1.3-.4 3.3-.5h1.3v-.1h2.9l.1.3v-.3l.4.4 1.5.5 2.8 2.8h.3v.1l1.2.6h1.5v.4l.3.1v.5h.4v.2l.2.1v.4h.3l.1 1.7h.3l.1.6h.3l.2.6 1.8 1.4v.2h.1l.4.8h.3l.4.2.2.5h.2l.8 1.6h.2v.5h.3l.1.2.2.1v.2l.3.4h.2v.2l.3.6h.2l.2.8h.2v.4h.3v.5h.2l.2.8h.2v.4h.3v.5h.2l.4 1.2h.1l.1.5h.2l.2.8h.2l.4 1v.3h.1l.3.4.3.8h.2v.4h.2l.3.8.3.1v.2l.3.6.2.1v.2l.5.7h.1v.3h.2v.3h.3l.6.1v.3h.2l.2.4h1.1l-.1.6h.2v-.3l.3-.1.2.2h.3v.3l.3.2 1.6 1 .8-.8 1.4-1v-.2h-.2v-.2h-.2v-.5l-.3-.1-.3.1v-.3l-.5-.1-.2-.8h-.3l-.3-.9h-.2v-.4h-.5v-.5h-.3v-.5h-.4v-.4l-.3-.4v-.6h-.1l-.3-.5h-.2l-1.6-2.2-2.2-3.4-.6-1.6v-.4l-.3-.9h-.2l-.1-.9-.2.2v-.3h-.1v-.3l-.6-.2-1.9-2.8-.1-.8h-.2l-.3-1v-.2l-.4-1h-.2v-.4h-.2v-.4h-.2v-.3l-.7-.3v-.2h.1v-.2l-.5-.3v-.1h-.2v-.2h-.1l-.1-.4h-.2v-.5l-.3-.1-.4-.5v-.1h-.2l-.4-.9-.5-.1v-.2l-.5-.2h-.2l.2-.3-1.2-.7-.1-.2-.6-.3-.7-.3v-.2h-.4v-.4l-1-.4v-.1l-.8-.4-2.9-.6-.4-.2-.9-.1-1.4-.2v.2l-.4-.2v.2l-.6-.2v.1h-2v.1H256v.2h-2.2v.3h-.8v.1h-.3l-4 .8v.2h-.2l-1.8.6v.2l-.3.2v.1h-.3l-.7 1.3-.7.3v.2h-.2l-1.6 1.3-1.4.4-1.5.4v.1h-1v.1h-3.5l-.5-.3-2-.3-2-.7v.2l-.5-.1v-.2.1l-5.5-1-1.7-.9v-.1h-.9l-3.6-1.4-1.6 1.4zm4.6 2v-.3h.1l.3-.6h1l.3.3v-.3l.7.3 6.9.8.7.2.8.3h.3v.3l-.6 1.2h-.3v.2h-1.7l-5.8-.8-1-.5v-.2l-.4-.1v-.2l-.6-.2v-.2h-.1v-.1zm45.3-5.6v-.1l1.2-.1v.2h.3v.3-.1h.1v.1l.4.2v-.1h.1v.2l1.2.4-.1.2 1.7.8.5.4h.2v.1l.4.2v.3h.3v.2l.6.3.3.6-.5.2-1.5-.7v-.1l-.4-.3h-.3l-1.5-1.1v-.2h-.3l-.3-.1v-.2l-1.4-.6v-.3l-.4-.2v-.2h-.5v-.3zm0 0"/><path d="M287.7 178.4l.8.3.1.3.1.1.1.2.4.5.1.2.1.3.1.3.2.7v.4l.2.5v.3l-.2.3v.5l.2.5.1.5.3.5v.3l.2.2.1.7v.3l.2.1v.2l.2.5v.3l.1.2.1.3v.1l.2.1v.2l.2.2v.5h.1v.2l.2.2v.6h.1v1.5l.2.2v.3l.1.3v.2l.1.1v.5l.1.2.1.3.2.1.1.3h.1v.2h.1v.3h.2v.2h.1v.2l.1.1h.2v.2l.1.1v.1l.2.1v.1l.3.2v.2l.2.2v.1h.1v.3l.1.2.1.2h.2v.5l.2.2v.1l.1.2v.2h.1v.2h.1v.1h.1v.2h.2v.2h.1v.1h.1v.4h.2v.1h.1v.2h.1l.1.3h.1l.1.2h.2v.2h.1l.1.2h.1v.3h.2v.1l.2.2.2.2.4.7.1.2.3.4.1.3.3.2v.2l.3.4.1.2v.1l.6.7v.1l.2.3v.2l.1.1v.1h.2v.3l.1.1.1.2v.4h.3v.3l.2.1v.4l.2.1v.4l.2.2v.1l.1.2v.7l.1.1v2l-.3.1v1h.3v1.1l.2.7.2.3.2.1v.3l.3.2v.3l.1.2h.2v.2h.3v.6h.2l.1.2.4.3v.1l.5.4.4.1.1.3v.2h.3v.1h-.3l-.3.6.3-.4h.2l.2.2v.3h.4v.3l.3.1v.2l.4.3v.3h.3v.3h.2l.2.6h.3v.2l.5.2v.3l.7.2v.3l.5.3v.2h.5l.2.5h.1l.7.5v-.2h.3v.5h.4v.4l1.2.6v.1l.7.5h.3v.2l.6.2v.2l.6.2-.1.2.9.2v.4l2.1.9h-.1l.5 1.1h.2v.4h.2l.2.6h.3v.4l.8.6.2.2h.2v.4h.4v.2h.1v.2h.2v.4l.8.5h.2l.6.4v.2l2.5 1.5v.2l1.1 1 .3.4.6.4h.2v.2l.2.1v.2h.2v.2l.2-.1v.2h.4v.2h.1l.5.3v.1l.8.4v.1l.8.4v.1h.1v.1l.9.5 1 .5h.2v.1l.7.4h.1l.2.2h.7l.2.4h.2v.1l2.9 2v.2h.1l.7.3v.2l.6.3v.2h.5l.1.3.2.1.7.4h.1v.3h.1v.1l1.4.9v.2l.7.4v.4h.7l.1.5.3.2v.1l.5.4 1.6-1.7-.7-.8h-.1v-.1l-.7-.4v-.4h-.3l-.2-.6h-.2l-.2-.2h-.3v-.5h-.4v-.2l-.5-.3h-.1v-.3l-.3-.1v-.2h-.3v-.2h-.1v-.2h-.3v-.2l-.4-.2-.2-.4h-.2l-.2-.2h-.3v-.1l-.1-.2v-.2h-.2v-.2l-.6-.6-1.5-.7v-.4l-.6-.1v-.3h-.2v-.1l-.2-.2v-.2l-1.1-.4v-.3h-.2v-.1l-1.1-.5v-.2h-.4v-.3h-.2l-1.4-.8v-.1h-.2l-.5-.7-.7-.5h-.1l-.2-.3h-.2l-.1-.2h-.2v-.3l-.4-.2h-.2v-.1l-.6-.3.2-.1h-.5l.1-.3-1.1-.4v-.1l-.5-.5h-.2l-.4-.3v-.2h-.4v-.2h-.2v-.3h-.2l-.2-.2v-.1l-.8-.6v-.1h-.4v-.3h-.2v-.3l-.6-.1-.6-.6h-.3l-.2-.3h-.2v-.2l-.7-.6v-.1h-.4v-.3h-.2l.1-.2h-.3v-.2l-1-.8-.1-.3h-.2v-.3h-.2v-.2h-.1v-.2l-1-.4-.7-.6h-.4v-.2l-.6-.3v-.3h-.3v-.4h-.4v-.5h-.3v-.1h.1v-.2h-.6v-.4l-1.8-1.4v-.2h-.2l-.3-.7v-.1h-.2v-.1l-.1-.1-.2-.3-1.3-1v-.1l-.2-.2-.2-.4-1.6-5.6v-.4l-.3-.3v-.4h-.1v-.5l-.3-.3v-.3l-.2-.4v-.6h-.1v-.4l-.1-.1v-.1l-.1-.1h-.2v-.1h-.2l-.1.1v.9l.3.1v.2l.2.3v.5l.2.4v.3l.1.1v.2l.2.1v.6l-.3.1-.1.1h-1.4v-.2h-.2l-.1-.2h-.5v-.5h-.1l-.3-.4-.2-.4-.3-.7-.2-.3-.1-.3-.1-.4-.2-.3v-.4l-.2-.3v-.5l-.1-.2v-.3l-.2-.5V204h.2v-.4l.2-.3.1-.4.1-.5.3-.3.1-.1.4-.6.2-.4h.3v-.1l.5-.2.1.5.6.3.1-.5h.2l-.2-.2v-.2h-.1v-.1l-.3-.1-.2-.4v-.4h-.3l-.2-1.3h-.2l-.8-3h-.1v-.3h-.2v-.3l-.6-1-.8-.9v-.4h-.2v-.4h-.2v-.3h-.4v-.3l-.4-.2v-.4l-1.6-1v-.3h-.2v-.3l-.4-.2-.9-2-2-2.5h-.2v-.1l-1.2-.4-.1-.3-.5-.3-.3-.7h-.1l-.1-.3h-.2v-.4h-.2v-.2l-.2.2v-.4l-.4-.2v-.1h-.2v-.3h-.2v-.4h-.4v-.3h-.2l.1-.3h-.1l-.8-2h-.2v-.2l-1-1.3-1.4 1-.8.7zm5.3 10l.1-2.1.3.1h.6l.7.6v.3l.5.1v.4l.7.2v.2h.3v.3h.2v.3h.5v.4l.5.1v.2l.3.3-.1.1h.2v.2h.2v.2l.3.4.7.5v.4h.5v.2h.2v.3h.3l.1.3h.2v.6h.5v.3h.2l.1.2.3.2v.3l-.4 1.2-.1.1h-.1l-.2.2v.1l-.3.1-.7 2.6h-.2l-.1.3h-.8v.4h-.5v-.5l-.2-.3-.8-.6v-.1l-.2-.1v-.2h-.2v-.5h-.2l-.3-1.2h-.3v-.5h-.1v-.1l-.2-.3v-.2h-.2l-.2-.4h.2l-.4-1.4h-.2l-.5-1.8h-.2v-.6h-.1v-.1l-.3-.5h-.1v-.3h-.2v-.1h-.3zm-110.8-64.8l1.2 2.4 1.2.2.2.1.2.1 2.4.7v.2h.3l.1.3 1.2.6v.3h.2v.9l-.8 1.4v1l.8.3 2.3-.1 2.5 1v.3l.6.4v.2h.2l1.4 4.4h.2l.2.7h.4v.3h.3v.4l.7.3.3.2.4-1h.1l.2-.3 1.1-.1.5.2.1.3 1.7 1.1 1.3.1 2 1h.6v.5l.5.1v.3l2 1.4h.8l.1.2v.2l.6.4.2.1 1 .5 1 .6.9 1.5 2.1 2v.2h.2l1.5-1.1 1.6-1.5v-.2l-1-.5-.2-.2h-.4v-.6l-.7-.4v-.2h-.3v-.3h-.2v-.2l-.8-.3-.3-.4-.3-.6h-.3v-.3h-.3l-.4-1.1v-.5l-.6-1.6h-.2v-.4l-.1-.3v-.6h-.3v-1.1l-.6-.8-.3-2.3-.3-.7h-.2l-.8-1h-.2v-.3l-.4-.4v-.1l-.6-1-.4-.8h-.4v-.2h-.1l-2.3-1.3.2-.2-4.2-2.4v-.2h-.3l-.2-.7h-.2l-.6-1.2h-.1v-.5h-.3v-.1h-.1v-.2h-.2v-.1l-.6-.2v-.6l-.4-.3-.9-.5v-.2l-.7-.3v-.5h-.5v-.2l-.4-.1v-.2h-.1l-.2-.2-2.3-1.3-1.3-.4h-.1l-2.1-.2-.3.2h-1.7l-1.8-.2v.2h-.2v.1h-.2l-.3.7-.6.4-.3 1.2h-.2l-.4.7zm.6-.4l.3-.2h.6v-.3l-.6-.3.5-.2 1.7.2 1.1-.4 1.6 1 1.5.1h2.8l1.4.6 2 .3 1.5 1 .9.8.7.6.2.3-.1.3-.2.3h-.2l-.2.3-.6-.3-.9-.2-1.8-.4h-1l-1.5-.3h-1.9l-.3-.2-.8-.4-.8-.6-1.3-.2-1.6-.9-.8-.1-.4-.4-1.3-.1zm6.2 7.5l.1-.7v-.2l.2-.3h.9l.7.4.3.5 1 .6 4.6 1.9 1.2.7 1 .3v.1l1.6 1.1v.3h.1v.2l.3.1v.4h.4l.2.6.6.4.1.3.3.2.2.3.2.1v.3l.3.2h-.1l.5.3-.2.6-.8.2-2.3-.8v-.2l-1-.3-.3.1v.2h-.1l-.6.2-1.4-.4-.8-1.4v-.7h-.2l-.2-1.3h-.1l-.5-1.3h-.1v-.1h-.2v-.3l-2.7-1.5-2.9-.1-.3-.3zm.4-12.3l1.4-.2h.5l2.4 1.1.1.3-1.2-.4h-.2l-3-.5.2-.3zm0 0"/><path d="M344.4 249.2l2.6 3 1.7 2.2 1.6 2.5 1 3.5v.4h.3l2.2 4.5.2.1 2.8 7.2 3.4 3.8 1.8 1.8 3.4 3 7.4 4.6v.1l.4.3.3.2 4.1 4.5.4.7.2.1v.3l.5.4v.2h.3l.1.3.3.1 1.6 1.7 2.5 3.6 1.2 1.8.4.1.3.8h.3-.1l.1.2.4.8h.2v.2h.1l1.9 3.3 2 2.8h.5v.6h.3l.2.3h.3l.2.4h.2l-.1-.2.1.2 5.3 2.6.2.4h.4v.4h.4l.1.5h.3v.3l.3.2.3.3h.1l2.6.9v.1l2.4.8 1.2.5v-.1l.9.2v-.2l.1.2 2.2.3h.9v-1.3l.8-1.2-1.7-.8-1-.5v.2l-1.5-.5v.1l-2.2-.8h-.1l-.5-.2h-.1l-1.1-.6v.2l-1.6-.7h-.7l-.3-.3-.8-.1-.7-.5-.9-.5v.2l-.3-.2v-.2l-.3-.1-.7-.7-1.2-.9v-.2l-.6-.2v-.2h-.2v-.3h-.4l-1.2-.7-.8-.3.1-.2-2-1.8-2.2-3.7h-.2l-.6-1.6-.1-.6-.4-.2v-.4h-.2v-.4h.6v-.1l-.5-.6h-.2v-.2l-2.9-4.8-5.7-5.1-3.3-1.8-1.6-1.1-2.2-1.7-3.5-3.4-.7-.4-.2-.5h-.1l-.7-.8-.1-.4-3.9-4.2-3.5-6.3-2.6-5-1.8-3.6-1.5-2.3-1.8-3.1-3-3.2-.6-.6zM482.8 30.3l.7 2.2.4.5 1.1.4h1.2l1-.6 1-.9 1.4-1.5.5-1.4.3-2 .2-.3v-1.3l.4-1.2 1-1.7.6-.5.4-1.8v-1.6l-.2-1.6-.8-.8-.3-.3h-.6l-.6.3h-.8l-.9-.4h-1.2l-.6.4-1.2 1.2-.4.8-.5.8-.7 2-.2.3-.4 2.6-.6 2.8v1.8zm-18.2 40.3v.4l.2.2h.1v-.3l.1-.4v-.4l.1-.1.2-.1h.7l.1.3h.3l.5-.7.1-.3V69h.2v.1l.1.2.1.3h.1v.1l.2.3v.8l-.3.2v.6l.4.3v.4l.2.3.2.4.2.3.1.2.3.3.6.4.4.1.4.2.5.2.5.3h.2l.2.5.4.4.3.5.1.1h.3V76l-.3-.1v-.6h.3l.2-.3h.3l.1.2v.2l.2.2v1.1l-.4.3v.7l.3.8v.6l.1.3.2.3.4.5.4.3.3.2.2.3.5.1.5.2.4.2.3.2.5.2h1l.2.1h.2l.1.2h.4l.2-.4.5-.1.4-.2.2-.2.3-.3.2-.4.3-.3.2-.2.2-.3.4-.3.1-.2.3-.1h.6l.2.3v.1l.3.2v.7l.1.4.1.1v1.1l-.2.4-.1.3v.6l.2.6.2.6.1.5.2.2.2.3.3.4.3.2.4.3.5.2.3.3h.5l.6.2.5.2.3.2.3.2.2.2.2.4.4.6v.2l.3.1.2.4v.1l.2.2.2.5h.1l.1.1.3.1.1.1 1.7-1.5-1-.3v-.4l-.3-.1v-.8h-.3v-.6l-1.1-.1h-.8l-2.5-1.4-.1-.2h-.2v.1l-.6-.2V85l-.3-.8-.3-.1v-.2h-.2v-.5h.2l.2-1.2v-.4l.5-.3v-.9l-.1-1h-.4l-.1-.4h-.2l-.6-.5-1-.3-1.1.2v.1l-.4.3v.1l-1.6 1.7-1.4.2-1.1-.2-1.8-1.1-.8-2.3-.1-.6h-.2l-.3-1.3h-.1v-.3l-.2-.1v-.5h-.4v-.2h.1v-.1l-2.5-1V73l-.6-.2v.5h-.1v.1l-1.2-.4.1-.3h1.1l.1-.2-1.5-.5v-.3h-.2l.1-.1h-.2v-1.3h.4l-.2-.1-.1-.6h-.2v-1.3h.5v.1l.5.2v-.2l.4.1v-.1l.8.3.1-.2.8.1.1-.2.7-.2.2-.4.2.1.2-.5h.3l.2-.6h.1l.2-.5.1-1.3h-.2.1l-.7-1v-.2h-.3l-.3-1.4.1-.8h-.3v-.1h.3v-.2l-.7-.5v-.5l-.2-.1.1-.3h-.1v-1.2h.2l.1-.2h.2l.1-.3 1.2-.6.1-.3.3.2v-.2h.4V57h.3l1-.3h.6l.2.7.2-.4h.1v-.2h.3l.1-.3v-.2h.1l1-1.3.2-1.6h-.1v-2.5l-.2-.5h-.3l-.3-.8h-.2v-.5l-.4-.1v-.4h-.2l-.4-.8h-.2l-.1-.7v-.4l-.2-1.3h-.2l-.4-.1v1.3l-.1.7v1.4l.2.3v.3l.1.5v.6l-.3.3v.3h.7l.2-.5h.3l.5.5v.2l.3.3.1.3.1.3v.8l-.2.4-.3.7-.3.2-.2.3-.1.1-.4.2-.3.2h-.3l-.2.2h-.2l-.2.2h-.1l-.3.4-.2.1h-.1l-.2.3-.4.1h-.2l-.3.3-.3.2-.3.2-.2.2-.3.2-.2.3-.2.3-.3.4v.4l-.2.8v2.8l.2.2h.5l.1.4.2.5.2.6.2.4v.5l-.1.2-.3.2h-.2l-.2.2h-.6v.2l-.3.2v.2l-.2.3-.3.2h-.1l-.6.3h-.5l-.2.4h-.2l-.2.2h-.2l-.1.3h-.5l-.4.3h-.2v.1h-.6v.2h-.2v.2h-.8l-.2.3-.2.2-.2.4-.2.7zM98.7 117.4v.4h.4l.2 1.4-.2 1.5.5 2.6.5 1.5.6 1.6h.3v.6l.2.1v.4l.3-.1.3 2.2.2.2v1.5l-.2 3.7h-.1v1.7l-.5 6.3v.1h-.2l-.2.3h-.1l-.7.8v.1h.4v.1h.2l.5-.2v-.7h.2l.1-.2 1.3-4.8.3-4.3-.2-2.4h-.2V130l-.2-.6v-2.2l-.8-3.8h-.2V122l-.3-1v-.2l-.1-.3-.4-3.7v-2.3l.3-.8.1-.7.3-1.3h.2v-.3h.2l.1-.5.3-.1.2-.9h.3l.7-1.1h.2l.2-.2.3-.2 1-2-3-1-.9.6v.2h-.2l.1.1-.2.1-1 2.2.4 1.2-.5 1-.2 3.5v.7zm358.1-65.1l.2 1.8h.4l.3.5-.1.3h.2l.2 1.1v.6l-.3.1-.1-.4-.2 1.2h.2l-.2.5h.2l.1.4.5.1v.2l.1.2h.2v.4h.4v.4l.2.1.3.6-.2 1-.2-.1v-.2l-.3.3h.3l-.2.5-.3.2h-.2l-.8 1.7.5.2h.2l.2-.2h-.2v-.4h.2l.2-.3v-.4l.7-.5v-.3l.3-.3.2-.5h-.2l.2-1h-.2l.2-.3h-.2v-.4h-.1v-.6h-.4l.3-.1h-.2l-.2-.3-.1.6-.2-.5h-.1V58h-.1v-.3h.3l.2-1.2 1-1 1.1-1.3.2-1.4h-.2l.2-.4h-.3V51l.3-1.2v-.1h.2l.1-.9.4-.5h-.3.3v-.5.2h-.4v-.7l-.2.4h-.1l.2-.7.1-.5v-.7l-.1-1.5.2-.2h-.2V43l.2.2v-.6l.7-1.2.1-.7-2.7.1v1.5l.2.5-.2.2h-.4l-.4-.6h-.2l-.4.6h-.2l-.4.5v-.4h-.2l-.1.4v.3h.2v-.2h.3l-.3 1h.1l-.3.6v1.5l-.1.9h.2v1.7h.3l-.3 1.1-.3.2v.4h-.3l-.1.9zm1.4-8.8v-.2l.6-.3h.1l.1-.3h-.2.2v-.2l.3.5.4.2v.2h-.5v.2l-.2-.2v.3h-.1v.1l.1.2.8-.2-.2.4-.4.2v.2l-.2.4h-.8l.1-.5V44h.3-.2v-.4h.2v-.2h-.3v.3zm.5 2.5l.3-.5v-.2h.3l.1-.8h.6v.3h.2l-.4 1.2-.5.3h-.3V46zm-9.5 64.5v.1h1.8v.1h.2l.2.5-.6.1.5.7v.3h.1v-.2h.2v.9-.2h.2l.1.5 1.2.3v-.3h1.1l-.3-.3v-.4h.6v-.4h-.1v-.9h.4l-.3-1.6h-.2v-1.3h-.3v-.8h-.2v-.5l1.2-.2.5 1h.2l1.9 3.3h.3l.3.8h.1l.2.2h.1v.2h.3l.1.4h.1l.1.3h.3l-.2-.5h.3v.3h.2v-.4h.2l-.1-.1h-.2l-.7-.9.4.2.1-.2v-.3l-.8-.4-.1-.4h.1l.1.2-.1-.8h-.5l-.2-.8-1.3-1.8-.5-.3v-.2l-.7-.5v-.2h-.6v-.3h.2l-.1-.2-.4.3v-.2h-.3l-.1-.2-1.4-.4v-.3h-.2l-.6.4-.4-1.1h-.7l-.1-.3-.6-.2-.5.8.7 1.5-.2 1.4h.3v.3l.7.4v-.2l1 .3.6.8-.3.6h-.2l-1.1.6h-.9v.3zm29.7-64.8v.3l.5.2-.2.3 2.1 1.8v.3h.5v.6l.6.2v.1h.6v-.3h-.3V49l.3-.2v-.1l.3-.1.8-.8v-.4h-.2l.1-.5v-.8l.4-.1-.4-1 .2-.7h-.1l-.2-.6h.4l.5-1.1 1.4-.2 1.3.8v.2l1 .5 1.5.2v-.2h.6v-.3h-.5v.2l-.2-.1v.1l-1.2-.6h-.1l-.1-.2h2.4v-.5h.4v-.2h.3v-.1h.3l.4-.6h.1v-.3l.6-.2V41l.8-1.3h.4l-.2-.4-1.5.4-.4.8h.2l.1.2h.1l-.2.3-.7.6-1.5.2.1.1h-.1l-.7.1h-.4v.2l-1.5-.7-.5-.2v-.2h.2l-1.6-.8v.3l-.8-.2v.2l-1.1.2v.1h-.1l-.2.7h-.4v2.7h.2v2.2h.1l-.5.5h-.4l-.9-.4V46h-.2v-.1l-.3-.4-.1-.1-.1-.2V45l-.2-.4v-.3l-1 .4-.4.2v.1l-.2.2v.4zm14.7 0v.5h.3v.2l.1.6h.3v.5h.3v.5l.4.4h.3l.1.5h.1v-.2h.2v.2l.3.1-.2.2h.3l.3.1v.4h.6v.3h.3v.5h.5l.6-1.3h.2l-.1-.3h.3v-.7h.4l-.2-1.1.2-1.2h-.2l-.4-1.9-.4-.1.1-.2h-.1v-.6h-.3v-.2h.1v-.1l-.3-.4h-.5l-1-.2V42l-.2.3-.6.3v.2h-.2v.1l-.4.2-.2.4h-.2l-.4.5zM474 33.3l.2 1h.2v.1h.2v.2l.2.1v.3l.7.3v.2l.5.3v-.2h.3l.2.2v-.2h.5v-.2h.3v-.2h.3v-.1l.1-.1v-.3h.2v-.4l.2-.3h.5v-.5h-.3l.2-.9.7-.4v-.5l-.4-.1h.2v-1.7h-.3l.3-.5h-.2v-.1l-.2-.1V29h-.2v-.2l-.1.2-.2-.4h-.1v-.4h-.4v-.4h-.2l-.2-.1h-.1l-1.4.3v.2l-.9 1.1-.7 2.1v.6zm2-29.9h.2v.5h.2v.5l.1.1v.4l.6.1v.2l.5.5v-.2h.2v.3h.7V6l.4-.3v-.2h.1l.8-.3.2-.2.3-.2.3-.6V4h.2l.4-1.6h-.1l.1-.2V.9h-.1V.7h-.5V-.5l-.1-.2-.1.1v.2l-.2-.2h-.2v-.8h-.7v.5h-.3v-.3l-.3-.3v.1h-.4l-.8.6v.3h-.2l-.1.2V0h-.2l-.4.5h.2l-.2.5h-.1l-.1 1-.4.6zm0 0"/><path d="M491.6 36.1v.5h.4v.4l.2.9h.1l.2 1.9 1.5-.4v-.2h-.3l-.1-.8h-.2V38l-.1-.2v-.2h-.2l.2-.1-.3-.1-.1-.4-.5-.2v-.1l-.1-.2v-.3h-.3v-1h.2v-.4l1.2-.7h.1V34l.5.2h.4l1.4-.5v-.2l.2.1.4-.5h.2l.2-.5.2-1.2v.2h-.3l-.5-1-.2-.1V30h-.4v-.1h-.1l-.3-.6h-.1l-.8-1.2v-.2l.2-.8h.2v-.3h.4l-.1.2h1.2v-.2l.5.2v-.2l.2.1h1.1v-.1h.9v-.2h.3-.2l.5-1.1h.2l.3-.1v-.2h.1l.2-.4 1.2-.3 1.5.2v.2l.4.1v.2h.1v.2h.3v.6h.3l-.1.2v.8l-.3.1v.2h-.5l-.1.6-.6.3h-.2v.2h-.3v.2-.1l-.2.3h-.1v.2h-.4v.1h-.3l.2.3h-.2l-.4 1v1.3l.2.3v.3l.4.3v.2h.2v-.2l.3.1 1 .2v-.2l.5.1v-.2l2.5.2-.1-.2-.8-.2v-.2l1 .2.2.3h-.2 1l.8.3v-.6l-1.8-.4h-2.2v.2l-.3-.2-.6.3-1.3-.4v-.2h-.2l.1-.2h-.2v-.4l-.3-.1v-.6l.9-.6v-.2h-.1l.5-.6h.2v-.2l1-.2.7-.4.2-.2h.3v-.5l-.3-2.5h-.3v-.2l-.9-.5V24h-2.2v.4h-.4v-.1h-.2v.3l-.9.4h-.3v.1h-.1v.3h-.5l-.1.4h-.3v.2h-.4v.4l-.9.2-.2-.2-1.5-.2-.2.4-.3.3h-.2l-.4.7h-.1v.7h.2v.5h.4v.8l.2.1v.3h.1v.1h.4v.3l.4.1v.2l.3.3v.4h.4v.2h.1v.4l-.3 1-.2.2v.1h-.2v.1h-2.4v-.1l-.6.1-.6 1.5h-.2zm3.6 32.9v1.7l.2 1.3.2.7v.8l.3.5.1.5.1.3.2-.1v-.5l.4-.2h.3l.1.4.3.1.2-.2V73h.3l.7-2 .2-.6v-1.7l-.4-1.5-.7-.7-.7-.2-.5.2-.5.5-.6.8zm-2-11.6v1.4l.1.4h.3l-.1.9.1.1V60l.4.1.3-.1h.6v-.5h.2l.3-.3v-.5h.4l.2-.8.2.1v-.4h.3v.2l.1-.7h-.2l.2-.4h-.1l.2-.4h-.2l.1-1.1h-.1v-.3h-.1l.1-.4h-.2l.1-.5h-.3.2v-.3l.5.2v-.2l.3.3.9-.2.2-1.5-.3-.1v-1h-.3v.8h-.2v-1.4l-.2-.1-.2.8-.1.3h.3l-.2.2v.3-.1h-.3l-.2 1.2-.5-.3v.2h-.9l-.1.2-.9.1-.3.3v.3l-.3-.2zm-42.1 11.9h.2v.3h.3v.3l.3.2h.5l.8-1.7v-1.2l.1-.1-.3-.9-.3-.4v-1h-.2l.3-.8h-.4l.5-.2h.4l.1-.2 1-.3v.3h.3v.4h.1l-.3.6h.2l-.4 2h.2l-.1.6.3.4v.2l.8.2.3-.2.5.2v-.3h.2v-.2l.7-1.2h.2l.2-.6.1-.3-.1-.2h.2l.2-.2h-.2l.2-1-.5-.2h-.3v-.7h-.2v-.3h-.2l-.3.5-.2-.1v.2h-.2l-.6-.2-.9-.2v-.2l-.5.2h-.4l-.5.1-.2-.3h-.2l-.4.7h-.2l-.1.9.2.2v.8h.1v.4l.1.8h.3v.6l-.3-.3v-.2h-.2l-.3-.7v.3h-.2l-.2.7h.1l-.5 1.3zm39.1-62.8v1.2l.2.8.6.6 1 .5h1l.7-.2.7-.6.4-1V5.9l-.8-1.2-1-.3h-1l-1 .4-.7.6zM373.6 79l.2.5h.6l.3.2.7.5.5.2h.6l.7-.4.7-.8.3-1 .1-.9-.5-1.1-.6-.6-.6-.2-.3.3-.7-.2-.6.1-.5.5-.7 1.7zm81.8 91.1l1.2 2h.1l1 1.5v.1l.3.2v.2l.2.3.3.4.5.5.1.2.2.2.1.2.3.1v.3l.5.1.7.9 2.1 1.2.5.1.3.2.9.1 2.3.1 1.7-.1 1.3-.2 1.3-.2 1.3-.3 2.4-.7 1.3-.7 1.1-.8 1.7-1.3 3.3-2.8 2.2-1.7-.2-.4-1.3 1-2.6 2.1-2.8 2.3-2 1.4-3.4 1.2-3.6.7-2.7.1h-1.7l-1.1-.6-1.3-.5-.9-.7-.2-.1-.4-.8-.8-.5v-.1l-.3-.2-.2-.2-.2-.3-.2-.1-.2-.3-1.3-2.2h-.2l-.3-.5-.5-.8-.1-1.1zm-8.8-70.8l.2.7.6.7h.5l.4.3h.3l.4-.4.2-.1h.2l.2.4h1.1l.7-.7.3-.5.1-.7-.2-.7-.4-.8-.6-.5-.7.3-.5.4-.2.2-.7-.5-.4-.4h-.4l-.6.4-.3.8zm21.7-94.5v.9h.3v.5h.1-.2V7h1.5l-.5-.4h-.2v-.9l.2-.5h.3V5h.5l-.1-.2h-.6v-.5h.4l.3.6.2-1.1-.7-.3v.2h-.3V3l.3-.7V2h.9l.3-.3.6-1.1.2.1V.3h.2l.3-.8.3-.2h.4v.5l.4.5h.6l.8-.3.3-.7h-.1l.4-1.3h.1l.1-.6h.4V-3h.5l.5-1.3v-.2h1.2l.2.1.6.4v.2l.2.5h.2v.2l.3.1v1h-.1l-.4.6h.6L480-3h-.2v-.4h-.2v-.2l-.2-.2v-.1h-.2l.1-.2-.5-.2v-.2h-.2v-.1l-.8-.4v.2l-.4-.2-.2.2v-.3h-.4l-.2.1-.6-.2-.1-.3-.6-.4-1 .2h-.5v.7h.9v-.2h1.1v.5h.2V-3h-.3l-.5.5v.1l-.8.4-.3.8h.2v.1h.2v-.5h.3l-.1 1.3-.2-.2v.2l-2-.7h-.4l-.4.4-.4.8h-.1l-.4 1.3-1.4-.1-.1.3-.3.3v.7h.1l-.3.5V4h.4l-.2.6h-.2v.2h-.3l.2-.3-.2-.1v.2zm-9.8 95.4l.1.6.3.7.4.3h.9l.3-.4h.3l.2-.1.6-.5.2-.5v-.7l.3-.5v-.5l-.6-1-.8-.6-.5-.4-.7.1-.4.4-.4 1.1v.6l.1.3v.1l-.2.3v.5zm-21 11.1l.2.2.4.1.6-.3v-.3h.3l.5.5.3.1h.6l.2-.4h.5l.6-.7.2-.8v-.6l-.1-.6v-.2l-.3-.2h-.5l-.3-.4-.6-.1-1.1.2-.3.3v.5l-.4.4-.2.5h-.1v-.3h-.4v.8l-.1.3v.5zm56.7 21.1v.8l.5.6.4.5.6.3h.3l.6-.2.8-1 .4-1 .2-.3v-1l-.4-.1-.6-.6-.4-.4h-.6l-.7.5-.8.6-.3.6zM467.3 44h.1v.1h.2l-.1.3h.2v.2h.3l-.1.2h.1v.6l1 .1v.5l.2.1v.1l.4.3v.3l.2.1v.8h.3l.1.4h.3v.2l1 .4v-.2h.2v-.2h.3l.1-.2h.2l.2-.4h.1l.2-.3h.1l.3-.6h-.2l.3-.4h-.2l.1-.4-.2-1h-1.6l.1.3h-.7V45h-.3v-.4h-.2v.4h-1.1v-.2h-.3l-.2-.3-.1.3h-.1l.1-.2h-.3v-.4l-.1-.2v-.3h-.3v.4l-.2-.1v-.2l-.3-.1zm10.4 76.6v.4h.4l.5.5 1.5-.5 1.2-3.2h.2l.6-.4 1.9-2.9.8-1.1.8-1.1.9-2.4.3-.5v-.1l1.3-1.1 5-2.9.7-.7.9-.3h.2l.6-.1 1.2.3 1.6.5.5.3v.2h.1l.2.3h.3l.1.5 1 .5h.7l.6-.1.4-.2 1-.5v-.2l.5-.5.3-.5.4-.7 1.6-1.6.3-.5.5-.7.3-.9v-.8l-.4-1.1-.4-2.2.4-3h.3V93h.3v-.3h.3v-.4h.2v-.2l-.1-.1-.3.5h-.2v.3l-.4.2-.8 3.3.7 3 .3.7v.5l-.4.7-.4.8-.3.2-.2.3-.4.4-.3.1-.6.8-.5.7-.3.5-.4.8-1.2.7-.7.1h-.8l-.4-.2v-.2l-.7-.3v-.3h-.4v-.2l-.7-.5-2-.8h-1.6l-1 .4-.4.6-5 2.5v.2l-.6.2v.3-.1.2l-.9.6-.5.7-.6 1.5-.5 1-.6 1.1-.2.1-3 4v.2h-.2l-1.2 2.9-.2.3v.2h-1.3l-.3-.2zm17 3.4v.8l.3.4.9.5h.4l.7-.3.7-.4.3-1v-2.2l-.8-.5-.5-.1h-.4l-.6.7-.3.1-.5 1.3zm.1-122.8l.2.9.3.5h1.2l.4-.3.3-.6.1-.5.5-.3V-.8l-.4-.7-.5-.7h-.9l-.7.7-.3 1.6zM484 14.8l.3 1 .1 1.2.9.2.6-.2.6-.7.5-1 .2-.5v-.5l-.2-.8-.4-.6h-.8l-.4-.4-.4.2-.6.6zm3 60.8v.4l.4.2 1-1 .1-.7V74l.6-.5.2-.8.2-1.7v-1.1l-.4-.9v-.3l-.1-.1h-.5l-.2 1.1-.7 1.6-.3 1.4-.3 1.8zm-21.8 42.6l.8-.2 1.8.4h1l.2-.2.8-.6h.3l.1-.3.5-.3v-.4l.3-.1.2-.3h.2l.7-.6.9-.2h.1l.1-.2.3-.5.2-2.7.3-2.3.3-.6 1-2.4.7-2.3v-.6l.3-.3.1-.1.2-.1 1.4-.4 1-.6h1.1v-.5h.4l.6-3.3h.2v-.4h.1V98l.6-.6.5-.4 2.1-1v-.5h.2l.6-1.1h.2l.7-1.3 1.5-1.5 2-1.2V90l-2.6 1.7v.1l-.3.3v.2h-.2v.2l-.7.6-1 1.9-.3.4-3.2 2.1-.4.5-.5 1.2-.2 2.2-.4.6-1.8.3v.3l-.4.2h-.3l-1.4.3-.2.6v.3l-1.3 4-.6.5v.9l-.8 2.8v2l-.2.6-.2.4-.4.1-1.3.6-.2.1-.4.4-.4.6-.1.2-.3.3-1 .5h-.9l-2.4-.3zm-6.5-40.3l.5.8h.5l.6-.2.4-.9.4-1.3.2-.6v-1.3l-.5-.8-.3-.4h-.4l-.3.3-.2.1-.6 1.3-.3 1.4zm6.6 76v.4l.7.4.4.1h1l-.4.3v.2l.4.2h.6l.6-.2.4-.3.2-.7h.6l-.5-.3.1-.7-.1-.6-1.3-.4h-1.2l-.8.3-.3.6zm30.4 38.1h.3v1.2l.4.5.6.3 1.3-.3 1-.3.2-.4v-.2l-1-.8.3-.4.4-.6-.2-.4-.6-.5h-.3l-.1.1-.5.3-.6.5-.3.7h-.9zm-93.2-90.4l.1.8.3.6h1.8l.4-.6.4-.7.1-.4v-.3l-.3-.6-.6-.7-.8-.4h-.6l-.2.2-.5 1.3zM492 66.7v1l.5.4.3.3h.4l.5-.4.5-.2.4-.8.1-1-.4-1-.4-.6-.4-.2h-.6l-.5.4-.3 1.1zm-24 13l.3 1.4v1.2l.3.7h.5l.3-.3.6-1.1v-1.2l.2-1.2-.2-.6.1-.4-.2-.2h-.9l-.6.3v.8l-.2.2zm-2 21.9l.1.7v.6l.5.3.4.2h.3l.7-.6.5-.4.1-.7v-1.3l-.4-.4-.3-.1-.9.3-.1.3-.5.3zm-31.2 11.8v1.2l.4.5.3.3h.7v-.2l.4-.4h.1v.2l-.2.2h.1l.4-.2.2-.2.2-1v-.3l-.4-.6-.7-.7-.3-.2h-.6l-.3.6zm24.4-7.3l.2.9.2.3.4.1h.5l.7-.2.4-.4.3-.7v-.4l-.3-.7-.7-.4-.6-.1-.3.2h-.4l-.3.6zM78.7 64.5l.3.3V66h.1l.2.3.2.1h.3l.5.5h.5v-.5l.5-.1h.1V66l-.1-.2v-.4h-.1v-.7l-.2-.1v-.2l-.2-.4v-.4l-.6-.4-.2.3h-.1l-.2.2h-.3l-.2.3-.2.2-.2-.1zM491.2 77v.6l.3.4v.7h.5l.3-.7h.2l.1-.6.4-1v-2.3h-.4l-.3.2v.3l-.1.4h-.4l-.3.5-.3.8zM445 132.6l.3.2.2.4.3.8v.3l.2.2.4 1 .9 1.7.3.3.3.6.8 1.5.1.2.2.2v.2l.6.8h.6v-.2l-.6-1-.4-.5v-.3l-.4-.4-.1-.3-.3-.6-.4-.5-.2-.4-1.2-2-.3-.2v-.4l-.2-.2v-.5l-.1-.2v-.3l-.1-.2-.6-1v.3l-.3.2zm20.3 18.3l.1.5.6.4.8.3.5-.1h.7l.3-.6v-.4l-.6-.6-.7-.3-1.2-.1-.4.3zm0 0"/><path d="M459.4 111.7h.4l2-.1 1.2.5v.2h.3l.9 1.4h.1l.7 1v2.9l-.3.4-.2 2.1.4.3.3-2.1.2-.7v-3.3l-1.5-1.8h-.1v-.2h-.1l-.1-.2h-.2v-.2l-.6-.1v-.2l-1.1-.4-1.2.3h-.9zm-4.3 20.8l.1.5.7.3.9.7.7.1.5-.2.2-.4v-.5l-.1-.2-1.4-.9h-1l-.5.1zm27-58.5l.1.9.1.1h.4l.3-1v-.6l.4-.8V71l-.4-.3h-.4l-.2.3-.4 1.5zm8.9 9v.7l.6.1.4-.4.4-.6.2-.8.1-.6-.1-.4-.3-.1-.3-.3v-.4l-.3-.2v.5l-.2.3-.2 1-.2.4zM116.3 59.2l.2.3v.2l.5.3h.5l.2.3.3-.1v-.3h.3l.1.1h.3v-.5l-.3.3-.3-.1.2-.2.3-.2V59l.3-.3v-.4h-.6v-.1h-.3l-.1.2h-.2l-.6-.1h-.7v.5h-.2v.2h.2zm309.5 55.5v.6l.6.3h.4l.9-.3.3-.3v-.5l-.2-.4-.3-.1-.1-.3-.5-.2h-.6l-.3.2zm37.6-11.1l.1.7.5.4h.6l.2-.3.3-.4.2-.1v-.9l-.4-.6h-1.2v.6h-.3zM114 65v.1h.5v.4h.9v-.2h.6l.1-.2h.5V65h.3l.1.3h-.1l-.5.1-.3.1H115v.5h.3v.2h.7l.2-.2h.3v-.1h.2v-.2l.1-.2h.4l.2-.3V65l-.2-.3h-.1l-.1.2h-.1v-.3l.1-.2v-.3l-.2.2h-.8l-.1.3h-.2l-.1.1h-.5v-.1h-.2l-.2.1-.2.1h-.5zM54.2 174.9v.1h.1l.1.2.1.1h.2v.2h.1v.1h.2l.3.1h.4v-.2h.1v-.1h.2v-.2h.4v-.2h.1l.1-.2v-.5l-.1-.2-.3-.2H56v-.1h-.5v-.2H55v.4h-.2v.2l-.2.2h-.2v.3l-.2.1zm315.1-99.6l.1.3.6.4.7.2h1v-.4l-.1-.3-.6-.2-.5-.5-.2-.6h-.6l-.4.6zm99.2 36.1l.1.3h1.2l.4-.2.4-.3.3-.4h.6l.3-.4.2-.1.4-.3v-.2l-.9.3-.2.4-.2.1h-.2v-.2l-.2-.4h-.3l-.4.1-1 .6-.3.3zM363.4 77.1l.3.1v.3h.1l.2.4h.2l.2.5h.1l.6.7.5.5 1.5.6.7.6h.5l-.2-.1v-.2h-.3l-.5-.5v-.1h-.3v-.2l-.3-.2-.3.1-.9-.5-.3-.8h-.1l-.3-.7-.3-.2-.1-.4h-.3v-.4l-.4.1v.2zm91.2 21.7v.8l.1.4h.4l.3-.4.4-.5V98l-.3-.7h-.6l-.2.7zm30.4 76.7v.5l.5.4.8.4h.3l.4-.8v-.6l-1.3-.3h-.5zm-33.3-77.8v.3l.3.6h1l.2-.5.1-.1v-.5l-.1-.4-.5-.4-.3-.1-.4.3zM379 80.8V82l.5.2h.3l.2-.1.2-.3V81l-.2-.6-.3-.2.1-.2v-.2h-.3l-.1.2v.2h-.4zm113.6-38.6l.2.1V42h.2v-.1h.4v-.2h.5v-.3h.5v-.1h.2l.3-.4h.1l.4-.4h.2v-.1h.5v-.2h.6v.3l.6.1v.2h.1v.2h.2v.2h.1v.8h.3v.4h-.4l.4.4.2-.7v-.7h-.2v-.3h-.2l-.1-.4-.7-.3.1-.1-.3-.3h-1.2v.3l-.2-.1-.3.3v.2-.1h-.7l-.1-.7-.1-.3h-.2v.7h.2v.7h-.2v.3h-.6v.2h-.4v.5h-.5zm-15.3-2.9l.2.2.4-.6.8-1h.1l.6-.9v-1.4l.3-.6v-.1h.1l.2-.9.3-.3v-.3h.3l-.2.2h.2l.2-1-.2-.4-.2.1v-.2l-1.2-.4v.5h.3l.2-.2.9.5-.1.6-.5.5-.1.4h-.2v.2h.1l-.1.3v.3h-.2l-.1.8-.1.4v1h-.3l-.4.6v.1l-.2.3h-.4l-.2.4-.3.2-.1.4zM109.4 63.4l.2.2h.6l.1-.2 1-.1h1.7l.6-.3-.2-.3h-.4l-.2.3h-.3l-.1-.3h-1l-.1.3H110zM417.8 113v.5l.2.2h.6l.3.3h.5l.1-.1h.2l.1-.5v-.3l-.3-.2H418zM126.6 30.4l.1.1v.2l.3.5v-.5h.2v-.1h-.1v-.1h.1v-.2l.1-.2.1.4h.6v-.3h-.3v-1h.1V29h.1l.1.4h-.2l.2.3h.1v-.3l.2.1v-.4l.5.2-.2-.5h-.2v-.4l-.4.3.1.2h-.3v-.5l-.1.3h-.2v.1h.1v.4h-.1V29l-.1.2-.2-.2-.1 1h-.1v-.2h-.2zm-16.2 31.5h.6l.3-.1.1-.2h.4l.6-.6-.2-.2h-.2l-.3-.2h-.3l-.5.2-.5.5zm297.4 47.7l.2.4h.5l.3-.1.2-.3v-.7l-.2-.3-.2-.1h-.3l-.3.2-.1.3zM102 62.3h.6l.4-.1.5-.6v-.2l.2-.2.1-.5.2-.1v-.2l.3-.2V60h-.5l-.5.6-.3.4v.1l-.2.4zm13.4-6.3l.3-.2h.6l.6-.2h1.1v-.3l.3-.2h.1l.2-.2h.1l-.1-.2h-.9l-.2.3h-1l-.3.4-.4.3h-.2zM58.1 177.5v.2h.2l.1.3h.4l.2-.4h.3l.1-.2v-.1h.3l.2-.3v-.1l-.3-.3-.2-.2h-.3l-.3.3-.2.3h-.1l-.5.4zm354.2-68v.5l.3.2h1.1v-.2l.2-.3-.2-.3h-.2l-.2-.4h-.6l-.3.2zM377 83.2l.3.3.2.2h.5l.6-.1.1-.2v-.5l-.7-.3-.4.1-.4.3zm56.7 29.1v.2l.5.2.5-.1.3-.3.3-.2v-.2l-.2-.2-.2-.1-.7.1-.4.3zM118.4 57.7v.1h1.1l.2.3v-.3h.3l.2-.4-.1-.2h-.5v.1h-.3l-.3-.1h-.4l-.2.3zM24.8 184.2v.2h.2v.3h.2l.1.2h.4l.1-.4v-.6l-.1-.3-.4-.1h-.1v.1H25v.2h-.2zm25.8-13.6h.3l.1.2h.2v-.5l.1-.3h.3l.2.1h.2v-.2h.2v-.7h.1l.1-.2v-.1h-.3l-.1-.2-.2.3h-.2v.3h-.2v.3h.3l.1.2v.1h-.4v.1h-.3l-.1.2-.2.2h-.1v.1zM11.9 99.7v.3h.3v-.3h.3v.5h.2v.2h.2l.1-.3.1-.1.1-.1h.2v-.3l-.2-.2v-.1H13v-.2.4h-.5l-.2-.4V99h-.1v.2h-.1v.3H12v.1l-.2.2zM204.1 0h237.3l-1.3-6 .1-6.8-1-5.2-1.9-6.1-.9-4.7-.4-6.7h1.3l.9 9.5 3.2 9.3.6 14 .8 2.8h20.9L464-3l-2.8-.4-.6.4v1H459l-2-1.6.4-1.4 1.2-.4 2.4.9 3-3.1 1-3.4.5-4.9-1.2-.6-.7 1.5-1.3.2-1.4 1.1-1 3.7h-.8l-1-.6-.1-1.4 1.5-2.7v-1.9l-3.9-1.1-1.6.2-1.4 1.2h-1.1l-1.6-1.8-.9-3v-.6l.8-.3 5 .4 3.2-2.8-1.2-.6-1.1.3-1.8-1.4-.5-2.1-2-1.2-2.8.6-.9-.7-.5-1.7 1.6-2.2.2-1.2-1.2-2-.3-1.4-2-.8v-2l1.1-1.7 1-.5.4.5.5-.5.2-.8-1.3-.7.1-.7 2.2-1 2-.4 4.1-2.1h3l.4-1.7 2-.4v-2l-1.6-.2-1 .3-1 1.3-2.3.4-2.7 1.2-1.6-.2-1.8-.8-1-1 .8-.6 1.6-.2 1-.8.4-1.4-.8-1.4-1.3-.3-1.2.2-2.7 3-.8.1-2.2-.3-1.8-.8-1.4-1.4-1.3-.5-.6-.8-2.7-1.5.2-.9.8-.2 2.2 2.8h2.6l2 .6 2-1 1.4-2.3.4-2.3-.4-.8-4-1.2-.4-.6.7-1.6 1.8-1.1 1-2.4v-1.9h-.8v.9l-.6.5-.7 2-2.2-.5-1-1.2.6-1.7 1.9-2.8.5-3.6.6-.6 2.8 2v1.6l2.2 2.5-2.5 2.6 1.4 3.2 3 1.4 1.3 1.6 2.4 1.1 1.2 1.1.4 1.5-1 .4-.3.9 2.7 3.7 1.6-.5 1-2-.3-1.7-1.3-1.6-.7-2-1.2-.1-.5.3-1.3-1-1.7-3.2.5-2.4-1-3.4 1.1-3 3-3.3.1-1.3-.2-.8-1.6-.7-1.6.7-.5 1.7 1 1.9-1.5 1.2-4.3-3-2-2.2-.7-1.8.4-2.3-4 .6-.7-.3 1.4-2.6 3.8-4.1.8-2.6-.7-4.4h-.5l-.4 1.1-1.8.2-1.1-.5-.7-1.2v-5l-.8-1.6-1.1-1.2 1.1-3.2 1-.9 2.5.4 1.7 1.9 1.4.3 3.4-.8v.5l-1 1 1.6 1.3 1.3-.6 1.3-2-.2-1.6-1.7-.3-2 .4-.7 1.3-1.1-.4-.6-2.4v-6.1l-.9-1.6-2.2-1.4 1-2 1.6.3.3 1.1 2.6 2.7.3 1 .7.7.4-.7-.4-1.1h.3l.4.4.6-.3.6 2.9-1.4-.2-.1-.8-.4.1-.5-.2v.2l1.1 1 .6-.2 3.3 2.2-1 .3-.4-.3.6 1.3.6.7 2.4.1 1.5-1.1.2-1-.7-1.4-1.6-.7h-1.2l-1.8-1.8.2-.8 2-1.6.5-1.7-.1-1.5-2-1.7-.9-1.8-3.5-2.2-.6-1.2 1-.8 2.3 1h1l.6-.5.5-1.6-.4-1.3-1.9-2.7-1-2.5-.1-4.6-.9-3 .2-1.5.5-.3 1.6 2.2 2 1.4 1.6-.6 1.5-2.2 1 .1 1.2.8-1 1.7.7.7h.6l.1 2.3-1.4 1.2-.2 1 1.2 2.3-.7.7v-.7h-.4l.4-.2-.4-.9-1 .3-.6.8-.3 2.5.2 1.3 1.2 1.6 1.9.6 1-3.8-.7-1.3-1 1.2.7-2-.5-1.9-.3.3-.2-.5 1.3-2.1.9-4.4 1.2-1 1.5-.5-.2-1 2-4.1.9.2.8 1.3.8.6 1.1-1-.5-3.4.6-2.2-1-1.7.6-1.5-2.2-1.2-.3-.8 3.7.1.6-.4.5-1.4 1.7.8 4-.6 2 1 1.3 1.2.6 1.8-.5.3-2-1.4-1 .5.3 1.4.8 1 .6 2.4-.1 1.4-.9.6-1.7-1-1.6-.3-.8.5-.6 1.2-1-1.2.6-1.7-.2-1.6-1-.8-1.3.6v4.8l.6 2.2.6.5 2-.6.8.8-.5 2.2-1.6 2.3v1.2l-.7.1-.5 1 .5 2.5-.9 3.7-.5.3-1.6-1.3-.9.8.2 1.8.7.6-.2 1.6 1.3-1 1.5-2.2 1.5-5.4 1 .4.9 1.4 3.7 2.2.6 1.4-.6 2.4-.6-.6-1.7 2.4-.8 2.9 1.2.3.5-.5.2-1h1.3l.8 1.4.7 2.4 1 1.2 1.2.6v-5.9h-.3l-.6-1v-1.1l.4-.1v-1.4l.6-.6v-40.8l-.9-1-1 .3v1.5l.7 1.4-1.3 3h-.6l-.6-1.4.1-5-.5-3.7 1.1-2.2 1.2-1.4 1.1 1.3h.6v-24.3l-.1.1-.6-.6v-1l.7-2.1V-279h-279zM428-112.2l-1 .2-.2-.7.4-7.3 1.5-7.3.5-.2.6 1-1.6 9.2zm8.6-3.5l-.6-.3-.4-1.6-.5-.5-1.5-1-2.4-.3-.6-1 1.7-.4 1.7.6 2.6-.3.2.3.2-.3h2.3l2.1.7-1.6 2.1h-.8v.7zm-.7 74.8l-.7.2-.8-.5-1-4.5-2.2-15.1 1.1-.8 1.1 2 .4 9.5zm3.5-17.7l-1.4-2 .3-.8.9-.4.5.2-.3 1.4.6 1.4zm-9.6-9.7h-.7l-1.6-4.2-.5-3 .7-1.5h.8l-.6 2zm2.2-5.3l-.3-.4.3-1 1.4-.7h2v.5l-1.1.1zm6.6-9.2l-.8-.5v-.7l.7-.3.5.6zm-11.4 4.5l-2.4-19.5.5-5 1-5.1 1.2-1.1h.7l-1 2.1-1.1 7.3.2 5.4 2.1 15.7zm9-16.4h-.2l-.2-.6 1.1.3zm-2.9.2l-1.4-.6.2-1.6 2.2-.3 1.8 1h-1v1zm30.6-70.5l-1.6-.6v-1.8h1.4l.5-1.1.9-.1.5 2.9zm-28.1-73.7l-.6 1.3-5.5.1-1.9.7-2.3 6.4-.7 6.3.9 6 1.3 2.9 2.6-.5 7-2.3.4.5-3.4 2.7-7 1.6-3.6-1-2.2-2-1.5-3-.2-4.1.9-5.1 1.6-5.5 2.6-4.3 3.1-1.8 3.7-.2zm5.2-6.2l-9.4-1.3-2.8-1.6-3.8-3.2-.7-2v-7.8l1.5-3.9 3.2-2.6 2.4-.7 1.3.4.2.4-.3 2.2.4 6.3-.5-3.3-.2-4.9-1.6.3-1.7 1.3-.6 1.4.2 4.4 3.7 7 3 4.7zm32 69.9l-.5-1h-.7l-1-1.1-1.7.1v-1.8l1.9-.2v.7l2-.9 1.5.6.3 1.6-.5.1.7 1-1.5.3v.7zm-10.9 7.4l-1.2-1.1v-.6l.7-1.5 1.3-.1zm1.8-2.1l-.5-.8.3-1 1.8-.1v.8l-.8.7.3.3zm14.3.4l-1.4-1-2-2.4-.1-.6.4-1h1.2l.5.3zM442-128.6l-4.3-2-.2-.4 1.5-.3 5.1-4.1 1.3.4 2-.3 2.1 1.4v.5l-1.7.2-1.9 1.3-1.7 3.1zm5.4-19.5l-.6.1-1.3-.7.5-2.6 2.8-4.5 3.2-1.2-.4 1.9-1.9.7-1.1 1-.5 3.7zm8.7-9.1l-.8-.5.3-2.8 2.4-1.7h1.4l.4 2.6-2.1 2.3-.7-.4h-.7zm-25.9 24L433-148l2-7.5 2.5-7.5 1.5-2.7 1.8-2.3 3-3 3.5-1.7.7 1-.1 1.3-4 2.7-4.1 5.3-3.9 10.8-1.7 7.5v8.5l-1.6 3.3-1.2.6-1.4-.7zm0 0"/><path d="M204.1 99.5l6 2.2 5.5 1.3 4.1.4 5-.7 9.1-3.3 3.6-1 2.3-.1 11-5.8.1-.7 2.4-1.3 8-.1 11.2-2.1 3.5.4 1.1-.4 3.5-.1 2.2.4.3 2 2 3.2 7 2.4 2.6 1.4 3.1.1.8 2 12.7 7 3.8 1.1 1.5 2.2 3 2 2.6 1.1 4.2.6 1.1 1.8 6.4 2.8 2.2.2 1.7.7 1.7-.2 3.2 2 1.8.3 1.6-.4.8 1.4 4.4 2.4 1.5-.3 1.7.6 2.2-.7 1.2.6 1.5.1 2.5 2 2.8.5 6 2.9 3 .6 1.9.3 2.2-6.1-1.4-2.8-4.4-4.7-2.2-1.4-.7-1.2-.7-3.1.3-3.8-1.2-1.5 13.4.6 6.4 6.7.2 3.3.9.4.5 3.3 1.8 2.4 2 7.6 1.4 3 2 3.2 6.7 6.9 1-1.1-1-1.5h2.3l2.3-1 3.7 1 .3 1.5 1.7.4v-.4l1 .6.2-.2-2.4-2.4-6-2-1.5-.3-2.8 1.4-1.7-1.1-1.1-4.5.2-.5.7.3-7.4-10.3-.1-.8.9-1.5.9-3.2h.8l1.7 1.3 12.4-4.7-1-1.1-1-2.6-1.8-2.8-8.6-5.3-3.1-4.5-5.6-4.2h-4.6l-5.7-2.4-2.8-2.6.4-.3-.8-2-.9-.3-6.5-5.8-3.8-2.5-.3-1.7 1.8-2.4.1-1.5 1.6-2.3L368 69l1.6-.7 1.7-.3 2.7 1h3l.4-.3-1.4-.7.6-.5 5-1.8 1.4.3 2 2.5-.5 2.2-.7.8.6.5 7.3 4 .7.5-.6.4 1.4.7 1.1 1.3 4.1 1.8 3 2.3 1.4.5 2.6 2.8 2.5 1.9-.4.4-2.9.6-1.2 1-1 .2-1 1-1.3-1.6-1.3-.5h-5.3l-2.5-1.1-1-.3 3 1.5 2.7.5L398 91l3 2 1.3 1.5 2.1 1.6h2.1l4.3 2.1 8 1.5 2.4 2.3.5.8.8 3.8-.6 2.8.3 1.2 2.6 2 4 .3 3.4-1.3 3-1.8 4.8-5.4 4.1-8.9.3-1.1-.4-3.1.7-1.3 1.5-.5 3.2 1.1 1.2-1.6 1.5-1 .2-1.4-1.1-1.4V81l-2.2-1.7-.8-2.3-1.4-2.5-.3-4.5 1.7-2.2 1.1-3.2-.5-.5-.6 1.2-.7-.3-.2-3 1-2.4 4.1-4.7.2-1.5-.1-2.8.4-1.3.8-.6.8 1.3.9-.4 1.6-6.4.2-4.2 1-.2.3 1.1 1.3.9 2.7-.1-.2-2v1l-1.3-.4v-.6l1-.8.2.6-.2-1.5.2-4 .8 1.1-.4 3.2.2 2.1.8.8 2.8.7.4 1.6.7.7 3.3.7 3.6-.9 1 .9v1.5l2.4.6 1-.9 1.9-.9-.3-1.9-2.6-1.8-.5-1.2-2.4-.7-2.4.5-1.5-.5-1-3.9-2-1.7-1-4-2.5-2.8-1.3-.6h-2l-1.8.6h-1.7l-1.9 1-1.5-3.6v-1.1l1-1.2.9-.3 2.1.3 1.2-.3 2.5-3.7h1.1l1.3 1.2 1-.3 3.6-5 2.1-1 1.2.5v1.5l-1.6 2-2.1.3-.5 1.3v3.5l-.5 1.3-3-2.8-.9.5-1 1.2.5 2.1.6 1 .8.3 1.6-.7.8.1.6 2.7 1.2 1.7 1 .3 1.2-.4 3.5-2.1 2.6-3.1h1.2l1.4 1.1 1-.2.9-1 .9-2.7-.3-1.4-.7-.5h-1.4l-.9.5-1.5 2.5-1.7-.1-.6.4h-1l-.9.3-1.9-1.2-.2-.5 2-5.4.9-.6h1.3l.2 1.4 1.3 2 1.1-.6 1-2 1-3.5 1.9-2.2.5-2.7h-1.7l-1.5.2-1.2 1.5-.1.9-1.1.4-5.6-2-1.4-1.2h-1.5V8l-.7.5-.1.9-1 .8h-.9l-.4-.8.8-3V3.7l-.4-2.3-1.6-.4-.6-.6V0h-20.7l1.3 5.6-1.7-.6-1-5H204zM409.5 86l-.1 1-.6.1-2.5-3.5v-1l1.1-.3v-2l.7-1.9h1.5l2.4 1.3 1.5.3 1.7 2.3v.7l-2.2.2-.4.6-3-.2.2 1.6-.6-.1zm-47.7-3.5l-.3-.6.8-.2-.3.5zm41.4 0l-1.4-1.7V79l.7-1.2 1.3-.4 1.2.4.2 1.7-.2.7h-.6l.1-.6h-.7l-.2 1.2.4.5-.5.3.2.8zm-44.4-1l-.6-2.4.6-1.6.5 1.5.7.7-.4 1.2zm36.4-2.9l-.4-.1-.1-.5.7.2zm4.3.9l-.6-.6-.7.2-.5-.5.3-.5 1-1.4 1-.3 1 .2v.5l-1 .3zm-2.3 57l-1-1-.7-.9 2.8.6v.8zm1.4-2.5l-.4.4-3.2-1-1-.9-.2-1.5.6.4 1.2-.4zm-28.4-8.3l1.3 1.8 1.8 1.4v.8l-2.1-.1-2.1-1.1-2.8-.8-.9-.7-3.3-1.6-1.2-1.4-3-1.4-4.6-1 3.2-1.4-.4-2.2 1.4-1.4h.8l3 1.1zm36.2-10.7v.7h-.5l-6-1.4-3.9-1.8-.4-.5 1-1.3-.3-2 .7 1.3h1.4l-1-4.1 6.7 3 1.4 2.1zm-38.8-5.7l-1-.4.1-.9h1zm-1.9-.7l-2.5-1-.4-.6.5-.4 2.8 1.2zm-3.6-1.6l-.5-.4.3-1.3.7-.3.2.1-.6.7.2.8zm-5.4-2.3l-.7-.2-.5-1 .3-1.2 3 1.7-.3.4zm34.6-5.2l3 3.5 1.7 3.8v3.5l-1.2 1-4.4-1.4-1-1.1v-1l-8.1-3.3-3.8-2.5-2.1-2.7.1-2.8.8 1.8v-.5l-2.5-7 1.7 1.2 1.6 2.7 2.3 1.8 2.5.4 2.3-.9h2.2zm27-4l-.8.1-1.5-.2.6-1.9.8.2.9 1zm-56.5-3.3l1.8 1.1 2 2 1.5 3.5-6.5-3.8-4-3-.6-.8.7-1.2 2-.5zm44.4 2.1l-1.2-.1-2.2-2.9-.8.2.4-1h.8l.6.6 1.2-1.5 2.3-.2 4 .8 2.2 1.3.1 1-.6.5-.5-.2v-1.2l-2.1.1-1.4.6h-3.2L407 94zM364.3 93l-3.8-3.3-1.2.1v-.4l1.2-1.8 5.7-2.2.8.2 2.2 2.4 1 .4-.2-.8.4-.1 2.8 4.3 1.4 5.2.1 4-.9.3-3.2-.3-3.2-2.2-1.5-3.6zm-25.5-17l-.8-.3.3-1.3.7 1.2zm57.2-.5v-.4l.6-2 1.2-.5.9.4-.8.6-.9 1.7zm-7.2-3.7v-.3l.7.8-.5-.1zm-35 10l-.8-.9h.5l.2-1.1-.5-1.8-1.3-2-.1-1.4 1-1.9 1.3-1.7.5-2.4.4-.1.2 1.3-.5 1.5-1.2.9-.5 1 2.2-2.2.6-2.3h.5l-.5-1.1.6-.3.2-.6h-.8l-.2-.6.4-2.1h.3l1 1.3-.8.9.8 1.8.5.2 1.2-1.7v2.8h.4v.8l.8-.4-.6-.9.1-.6h.7l.4-.6 1.2.1V69l-2.2 5.7-1.7.6-.1-.3-.4.5-.6-.3-.6 2.6v1.6l-2.4 2.8zm-28.5-10.3l-.5-.3v-.5.3l-.4-.2-.8-1.6.4-2.2h-.6v-.3l1-1 2 1 .3-.6.9.5 1.3 1.3-.2.4.8.7-.2.6.4.5-.2.8.3.6-.3.3 1.8-.4.5 2.3-.4.5-.7-.3-.2 1.3.5.2-1 .4-1-2-3-1.7-.2-1.3zm63.4.1l-.3.9-.5-.8h-.9v.7l-.8.2-.4-1.2V70l.5-.1zm1 .4l-1.5-1.7.8-.6h.8l1 .8-.3 1.1zm7.7-4.3l-1.2-.3V67l2.1-.3.1.5zM362.5 69v-1l.5-.4v1.3zm-20.7-.7l-2.2-3V64l.6.7 1.9 1.3zm21.7.4l-.4-.3v-.5h1.6v.5zM343 52.4h2.1l1.7.8 2 4.4 4.6 5.4.3 2.7-.4 3.3-.8 2.3-2.5 2.4-.4-.7.9-4.5-.3-1.6-1.2-.7-.7.3-.3 3.5-.3.5-.9-.1-2.5-9.4-1-1.8-2.5-3.2-.3-.8.6-1.6.7-.9zm.4 11.9l-1.4-.4-2-1.6-1.3-2.7.3-1.7h1.4l2.8 1.8 1.3 4.1-.3.5zm125-45.9l-.1-.7.7-.3v.4zM361.6 51.8V51l1-.4v.5zm17.8 14l-1.5.6h-2.2l-3-1.7-.2-1.3 2.4-2 2.2-.2 5 3v.6zm14.8-.5l-1.8-.5 1.6-2.5 2-2.2 1.8.3.5 1.4-1.3 2.6 1-.9v.7l-.8.5-.2-.3zm-2.3-3l.7-1.1 1.4-.5-1.6 2.8H391l-.2-.5zM370.8 61l-1.8 1-1 .2-.5-.5.7-1.1-.8-.6 2-.8 3.6-.2 1.2.4.5.7-1.3 1.4h-.6l-1.2-1zm23.5-2.7h1.3l-1.4 2-1.7.7-1.3 1.8-1.5-.6.1-.6 2-1.6h.7zm-2.8 1.7l-1.7 1.4-.4-.1 1.3-1.8 2.8-1.5-.6 1.5zm-30-3l-1.1 1.2-.1 1.4h-1l.4-.2-1.8-1.4-.6.2-1.2-.4.4-1.1 1.8.6.4-.5-.1-1.4 1.7.6zm23-4.7l.2-.8 1.3-.7 2.3.6.3.6 1 .2v.7l-1.1 2.3-2.5 1.4 1.3-.2 1.5-.9.6-1.5 1.4-1.3 2.8 1.2.9 1.1-.3.6 1 1-4.7 2.7-.7 1.3-1.7-.3v-.7H385l-2.6-2.3-.6-1.7v-2.2l.8-1.7 1.2-.7.7.2zm-23.9 2.8v-.5l-.6-.6 1 .4.3-.7-.7-.6h.4l.1-.6 1-.8-.1.5h.6v.3l1.3-.5.3 1.3-.5-.5-.7.9.2.5 1.2-.5-1 1.3h-1l-.8 2-.6-.7v-.7l-.6-.2zm17.4 1.2l-3.3-.8-2-2.8-.6-1.3.4-1.4.5.6-.6.1.1.3.6-.2.6.5.6-.4.7.5V51h1l.1-1.2-.8.2.8-1.1h1.2l.9 1.1h.4l-.2 1 .6.4-.4 4zm0 0"/><path d="M-46.8 0v.9l2.6 3.6.5.6h.6l1.6 4.1 2.5 4.5 2.1 2.9 2 1.6.9.4 2.6-.2 1.9 1 1.7.3 9.4 6.5 5.2 3 4.5 1.8 1.9-.3 1.7.2 3.8 2.8.2.7 2 .9-.2-.5H1l.7 1.2h3.1l1.8.4L24.5 49l5.7 1.6 1.4 1 10.2 2.8 7 1.2 2.7 1.8 3.8 1.2 2.8 1.7 3.2 1.2 2.7 2 2.3 2.3 3.3 2.2 1.3 2 .2 1.2 2 .1.4.8-.9.1L75 76l1.9 1.2 2.5.7 1.7 3.1 10.6-1-.3-2.3.3-1 4.4-3.7 1-.4 5.9.3 7.8 2 4.5 2.5 3.9 1.6h4.6l.7 1.4 1.5.6 2.6-.5 2.2-1.7 1.2 1.3 2.3.4.5-.5 1.5.7 2.6.4 4.5-1.1 3.2 1 4 2.4 4.1 1.7 1.3.8 5.1.1 3-1.3 4.3.9h5l2.1.6 4.8 1.8 10 5.9 10 4.1 4.1 1.5V0zm211 76.4l-2-.8v-1.3l.6-.8h1.5l.7 2.4zm-40.4-.4l-1.7-.3-.2-1.6 1.3-.5.4.4.6 1.3zm7 .2l-4.8-1-.6-.8-.4-.9 2.9.5 3.2-.7 1.4.2 2.3-.8 1.6.3v-.4l1.9.9h-.5l.8 1.5-.2.4-.3-.2v.4h.3l-.4.4v-.6h-1.2.1l.1-.5v-.1l-1.1 1.1h.4l.2.4zm4.2-5l-2.2.5h-1.1l1.7-.9zM72.2 71l-.4-.5.6-.5.6.2v.4zm-5.8-7.4l-1.2-.6-.8-1.5 1.3.8zm89.6 7.8l-3.3-1-.8-.7 1-1.9 6.2-1.1.9.3v1l1-.2.4 2-.1.3-.6-.4.4-1-.5.1-.3-.4-.3.4-.8-.8v1.4l-.4-.2-.2.2.3.3-.2 1-.9.6-1.8-.2zm-16.6-.4l-1.2.7-.9-.5.7-1.6 1.6-1.7 1.7-.6 1.1.5v.8zm-6.7-.8l.9-1 2.6-1.9.9-2.3.9-1.1 1.6-.2v.4l-.7.2v.7l.5 1.4 1 .6-.1.5-1.7.5.7-.8-.4.1-.6.4v.5l-1.1.3-.2.5.3-.2v.2l-.9.4.1-.6-.2.2-.4 1h-.7l-.4.8h-2.4zm15-2.5l-2.4-1.9-1.2.2v-.7l.7-.5 2-.2.4-.9 1.5-.3h1l.2.8h1.3l2.9-2.8 1.9.4-1 1.3-2.3 1.4.3-.5h-.4l-.8 1.5-1.8 1.6zm7.1-6.8l-.4-.3.6-.3v-.5l1.2.5-.4.6zm0-.8l-.8-.3.9-.6-.2.5zM31.7 51.3l-.7-.4-1-1 1.1.1 1.9 1zm115.4 10.6l-1.1-.5.8-1.3 3.7-.5-.5 1.6zm4.4-.6l-.3-.2.4-1h.5l.7-.6-.8 1.8zM68 65l-3.7-4.4-.1-.7 3.3-3 2-.9.7.8 1 2.5.2 5.7 1.6 5-1-.3-1.8-2.3-.2-1zm-3.8-2.3L61 60.3v-.8l2.6-.1-.1 1.2-.5.1zm69.2-3.7l2-.4 1.7.2 1.4 1.1 1.5 2.3-1.1.4-1-.4-3.1 2.1.6.4 1.8-1.4h1.4l-1.7 1.4-.6 2.2-3.5 2.4-.8 1.7-2.3 1-3 .4-4.5-1.9-3.4-.9-.8.5-5.5-1.2 4.8-1 2.2-3.5 1.6-1.1.7.1 2.5-.7 1.7-1 1-1.2zm-91-6l-1.1-.2v-.6l.9.2.6.4zm2.9-.4l-2.1-.4-.2-.2 2-.3.7.6zm5.4.9L47.4 52l-.5-.8.5-.2-.4-1 .2-.2 3.2.7.6 2.3zm32.4 9.9l-.9-1.5v-2.1l-.7-2.2-.1-2.9.3-1.3 6.5.5.8.8v1.1l-3.8 6.1zm13-5.7V57l.6-.2v.6zm13 2.3l.2-.2-.8 1.2.4-1zm-10.6-6.8L100 51l1-.5-1.9 2.5zm47.5-4l1.3-2.9.7-.1 3 5.6 1.1 3.4-.1 2-.6.8-1.4.1-.7.6-2.4.1-2.5 1.4.5-7.4zm-73.4-.8l-.3-3.5.2-1.2.6-.5 1.3 1 .6 2.1 1.6 2.3 1.5 1.2.4 1L81 61.6l1.5 3.4.5 5.3 1.1 1 .1 1.5-1.5.3-2.6-1.5-3.2-3-1.3-2.7-.4-2 .7-3.4-.2-1.4zM139 59l-1.5-1.3-2.7-.2-6.2 1.9h-1.1l-2.7 2.4-5 1.8-2.3 3-1.7 1.1-4.4.1-2.7-.7-1 .3-1.6-.2-2.1-1.5.7-1 3.7-3.4 1.3-2 .5-2.4-.2-2.1-.9-1.4v-2l.9-.4 4.4-1 1.8-1 .8-1.5.9-3.5 1.1-1.3 5.3-2.5 1.6-.2h1.5v.5l3.8-.3-.5 1 3.1-3 3.3-.8 1.3-.8 2 .4 1.6 1.4 1.7 2.7 1.3.9 1.3 4.8-1.9 4.8-1.3 9.4-1.6.2-1.6-1zm-42.9 1.3l-.1-1.6.9-.4L98 56l-1.6 2.4.8-2.3.2-.3.3.2.2-.8.3.3 1-.8.9-2.7 1.8-2.9.8-.1.8-1.5 1.2-1 3.6.8-1 3-.3 3 1.3 4-.9 2.7-1 1.4-3.3 2.3-6.1 1.5h-1.2l-1.1-1-.2-.8.3-1.2zM47.6 48.6l-1.2-.7-1.4-2 1.5-1.9 1.9-.4-.8.1-1.1-.3L46 41l-1.7-3.7 1.7-.6 1.7.5 2.5-.4 1.9 1.5-.6 2.9-1.8 2.2h-.4l-.7 2.8.1 1.7zm3-3l-.6-.4V45h.9v.7zm-5.6.1l-1.3.5-2.3-1-1.4-1-1.3-1.8.3-2.4.7-.3 1.1-1.3 2.2-.6.2-.8 1 1.1 2.2 5.9zm.8-3.8l-.4-.9-.3-1 .6 1zm48.2 9l3-3.8 1.7-4.1.1-5.1.7-.4.8 1.7 3.1 1 .6.5-.8 2.2.3 2.9-4.7 5.2-1 2h.5v.6l-1 .3-.4-.4-2 3.8-2.7 2.2-.7.2-.5.8zm-25-3.6l1.8 2.9.1 1.6-.4.7-3.7 1.6-5.8-.4-3.1-1-3-1.6 1.8-6.6h1l.8.5 1.5-.8.6.8 3.2-1.8 1.2.1zm40.5 3.6l-.4.2v-1.4l1.2-2.6 1.3-.5 1.4-1.7 5.3-2.7-1 2-.6 3.6-.7.9-1.2.9zm1.7-4.3l.2-.4.6-.4-.3.6zm3.6-3l-.1-.8 1.2-1.7 2-1.8-.2 1 .4.4v1zm2-4.4l1-1.2.6-.3-.1.7zm-6.2 6.2l.1-.4 1.7-1.3-.1.6zm-5.6-3.3l-.5 4-.9.3.4-4.2zm5.8.2l1.9-2.2 1.7-.4-1 1.7-1.4 1.2v.5l-3.7 3.9-3.3-1 .2-1.4 4.9-1.6zm-40.3 6.3l-1-2.1-.5.2-2.2-2.3.2-1.1-.4-1.4 1.5.9.7 1.2 2 1.8.2 3.1zm.7-3L70 45l-.1-.6 1.2-.1zm-4.5-1.2l-1.3-1.1.3-.8-.7-.3h1l.7.5zm2-.7l-.9-1.5.3-.6 1 .4-.3.3.4 1.1zm20-12.3l1 5.2 1.4 1.1.9 2.4 1.4 1 1.1 2.6.3 2.2-.2 2 .1-.2.4-2.2-.8-3.5.4-4.6-2.6-2.7-.4-2.3.8-6.4v-2l2.7-1.1.3.6 1.4.2.5.7v.8l-1 .2.4 1.3h.5l-.6.8-.3-1.2-.1.7.6 3h.7l1 3.9-.2 1.5-.7 2.4.3 3.5-.4 2-1 1.7-.2 2-1.5 1.6-.3-.2-.1.6-.9.8-.8 2.9-.5.2-1.1-2.4 1-.5-.2-.3.2-.9-2.1.8-1.3-.3-1-.8v-.8l1.9-2.7-.4-2.2-.8-1.1L86 40l-1.2-3 .4-2.9 2.6-4.6-.3 1h.1l.2-1 1.7-5.3 2-.6V25H91l-.4.9.6.4.5-.9.5 1.2-2 3.8-1.4.9-1-.7zm-8.9 12l-1-.7-.3-1.4.5-2.2 1.9-2.1 1-4.4.5-.6h2l.3-.3 1.3-.3-1 1.9-.8 2.9.3 1.6 1.7 2.9 2.2 1.1.6.8.5 2.2-2.2 3.4h-.7l-2-.9-.6-.8-3.8-2.4zM68.5 33.2l-.8-.2-.3-.6.8-.2.4.4zm66.8 2.9l1-1.8.5-.1 2 1.3-3.6 1zM118.4 41l2-.5V40h.8l-.2-.8-.8-.2.8-1.5 3-1 3.3-2.3-1.5 1.6-1.4 3.2-4 2.1zm13.5-6.6l2.7-.9h1l.8.6-1.6 2.3-1.8.8-1 1.3-1.4.8-7 .7 1.2-1 1.5-2.5 1.2-1.3 3-.8zm-12.4 1.8l-.7 1.1-1 .2.1-.5 1.5-1zm1 .8h-.8l-1.1.8 1.2-2.1.6.2 4.7-1.9h.9l-2.7 2.6zm26.6-7.6l-1.4.6-1.7-.4-2.3-2.4 1.3-.1zM127 19.7l-1.8-1-.2-.5 3.8.8 2.8 1.3-.3.3zm-162.6-2.9l-.5-.2.1-.6.5.7zm159 0l-7.1-1.3-1.2-1.6-2.7-.9 4.3.6 5.2 2zm-40.3 15l-.1-.2 1.2-.4v.2zm6.6 4.2l-.7-4.6 1.3-1 1.6-2.4-.5 6 3.2 3.8L94 42l-.8-1.5-1.3-1.1-.7-2.1zm42.8-4l.3-1.6.8-.1 1.7 1.2v.3h-2l-1 .8zm-.2.8l-1.5.6.2-2.5v-1.3l.2-.3 1.6.7zm-33.5-9.2v-.5l1-.3 1.9.6 1.6-.4 1.1.7.6 1.7v.8l-.4-.4-.3 1 1 .7.6 1.4 1.1 6.8-2 6.2h-.8l.1-.9-.5-1.3-3.3-.7-.7-1.8.4-2.4-.9-6.8.2.5v-.8l.7.3v-.5l.6.2.1-.7.4.4V27l.5.2.3-.6-.2.9 1.6-.2-.4-1-.7-.3.2-.8-.5-.8h-2.6zm8.5 10.4l-.2-.3-.4-3.1.8 1.3.2 2.1zm6.5-7.8l-.4.8 1 .3-.4.5.8-.1-.8 1.6-.2 2.6 2.7 5.3-2.3 2-2 .6-1.9 3-5 1.7.7-3.1 2.1-6.2-.2-4.2.8-3 .7-.6 2.4-.6.8-2.6.4.3.1-.5h.7l.1.6zm15.6 2.3l-.4.8.7-.6.7 2-.1 2.1-2.8.2-7.3 2.6 1.4-3.1.4.5.4-.5h-.3l1.6-.8-.4.7.6.4 1-1.1h.4l.7-1.9v.3l.4-1.1v-.9.6h.6l.5-1.1h.3v.7l.5-.3zm-6.8 3.5l.1-1.5h-.4l.4-.1.6.4zm-8-2.3v.2-.7l1.1-1 .5-2.4 1.3-.8h1.1l-.5.7h.4l.1 2.5v.4l-.5-.6-.3.3.8 1.3.4-1.4v1.3l1 .5h.2l-.5 2 .4-.3V33l.3-1 .1 1-.4 2-.1-.4-.8.4.2-.5-.4.2-.1 1.2-1.2.7-.1.4h-.6l-1-1.9-.6-1.9-1-1.5zm9.2 0l-.4-.1.4-.3-.3-.6-.5.3.2-.6.8.3zm-1.8.4h-.2l-.4-.6.6-.2zm.2.6l-.2-.4.7-1.7.3.6zM75.5 29l-.6-.5v-.6l.5-.2zm23 .3l-.5-.1-.3-.5.6.2.4-.4zm-.5-1v-.9.8zm-29 2.9v-.4l.3.2-.1-1.5-.4.1-.8-1.5.3-.7.6-.2.2-1.6h.6l2.7 2.5.3 1.9h-1l.6.5-.3.2-1-1.3.5-.9-1 .2v-.3l-1-.2.3 1v-.6l.3-.2-.3.6.5.2v.7l-.3-.5.3 1-.3.6zm55.8-1.6l-.3-2.4.7-.4.6.4.2-.3.6.7-.2.4-.6.6-.8-1v.4l.4.6zM82.6 31l2-4h1.1l-.3 1 .6.4-.3.6-2 2zm24.8.3l-.6-.7-.3-3.3 1 .3v-.8l.5.5v-.6l.3.5.7-.4.2.6-.9 1zm13.4-.3h-.3l.3-2.3-.4-2.8.3-.8 2.1.9-.3 1.1-.2-.8-.1.6-.4-.2-.9.4v1.2l.6.1zm2.2-2.7l-.2-.5-.3.2v-.8l.6-.4.3.4-.6.4h.1zm-46.4 0l.2 1.1-.8-1.7-.3.2.3-.4-1-.1-.2-1 1.1.6.5.6-.2-.6-.9-.4-.2-.6v-.4l.5.7.3-.1-.3-1.6-.8-.6.3 1.5-.5.5-.6-2.4-.9-1 .9-.5 1.3.5 1.7 2v-.5l1.2.7 1.5 4.2-.8 2.5-2-.2.2-.5-.8-.5.1-.6.3.3.4-.1zm42.2-1.3l-.1-1.6.3-.3 1 .1-.2 1.8.8 2.1-.3-.7-.3.4v-.4l-.8-.2zm-37.6 4.6l-.5-.2-.1-1 .4-.2.3-1.4 1.2-.3.3-1-1.1.1v-1.4l.8-.8-1.2-1.1h-.6V24l.3.1.2-.5 1.6-.7.9.8v-.4h.7l1 .4-.1.9-1 1-1.3 2.6v1.3zm34.6-5v.8l-.8.6v-2l1.1-.5zm-35.4-3.1l-.4-1 .5-.2-.3-.1.2-.6.7.7zm9 .7l-.3-.2.9-1.4h1.7l-.1.7zm46.7-.2l-2.5-1-2.3-1.5 2.7.3 5.4 2.7-.4.5zm-21 1.7l-.4-.1V27h-1l.3-3 1.4.3v.4l.9.1v.5l-.9-.1zm-9.3-2.7h1.5l-.2 1.8-.5.2v-.4l-.6.4.3 2.2-.5-.4.1-1.5-.5-1.8zm5.8 3.7l-.3-.2.1-.8-1-.8v-1.4l1.6.3zm-4.3-1.9l.3-1.5 1.4.2v.5l1-.3-.9 1.6-.9.2V25h-.8zm0 0"/><path d="M-74.9-121.4l3 .4 2.9 1.6 3 .5v.7l1.7.2 7.5-.4 5.6 1.1 7.5-.1 9.7 1.1 7.2-.3 1.8.2 8.1 3.4 7 3.7 8.4 4 5.3 3.7L12-94l2.4 4.4.1 1.6-.9 2.3L12-84l-3.4 1-2.4-.8-3.8-3-7.1-4.2-4.3-.6-.2.4 1 .2-.8 2.2-.8.4.9 2.5.9 1.3-.9 1 .9.9-1.5 3-1 .4-1.7-2-1.4-.1-1.8.8-.6 2.4-2.2.3-1.4-.1-.9-1.4.3-.8 1-.8-1-1.5-.9-.2-1.3 1-.6-.8.4 2.7-.4.1-3.4-1.3-1.6.1-2-2.6-1.9-.7-.9 1.7.8 2.2-1.5 1.5v2.5l-2 1.5-1 1.8-1.9-1.5h-1.2l-1 2.1-1.1 1.1-1.4 1.8-.9 2-1 4.1-3 5.8.8 2.4-.2 3.4h.4l.3 2.1-1-.6-.1-1.3-.6.1v-1l-.6.3v1.2l1.5 2.5 2.8 1.1 2.5 1.4 2 2.1v.4h-.4l.3 1.2-1.6 3.6-.3.3.7-1.4h-.7l-.4.2.4-.7-.8 1-3 7.8-.5 1.4.5 1v3.1l-.7-1 .5 2.3-.8 6 .4-5-.4-.6-.4.3-.1 1.6-1.2 1.8.5.9-.1 1-.8-1.3-.4.7 1.9 2.6 1 2.7-.4 7 .2 7h251v-279h-279zM-6.7-71l-.4-.2.3-.1-.5-1.4-.8-.4.2-.5 2.9.4 1 1.2v.5zm-41 51l-.3-1.5.3-.4.2.5zm27.9-41.6l.3-2 .9-1.3-.2-1.8 1.1-1.3 2.4.1 1.9 1.7 1.1 2 1.7.9.8 1.3.8.4v1.7l-.5.3v1l-1 .2-.2.8.1 3.3-.3 1.3-1.1 1.3-3 .6-2.5-1.7-2.8-5V-61zm2 32.1l-1 .2v-.3l-1.4-.4-.8-1.1v-2l-.8-1.3h.4v-.6l.6.3v-.3l-.4-.5h-.8l.6-2 1.6-1h.8l1.8-1.1 6.2-7.1 2.3-.9 2.3.6v.4l.9 1v2.4l-.5 1.6-.6-.2-.7 1.4-.7 2.8.9-.1.4-.7-2 5.2-1.3.1-.2 1.1h-.9l-.2-.3-.7.3h-.2l-3.6.8zm-22.5-15l-.7-.5.2-.2h.4zm33-31v.3l-.7-.1.9-.4-.7-.5v-.5l-1.9.4-.3 1.3.3.2v-.6h.6v1.2l-1.2-.2-.1 1.3.3.5H-9l1 2.4-.8 1.2-2.3-.1-1.4-1-.3-1.1-2.9-1.4v-1.1l-.3-.5.3-.4-.7-.8v-.9h.6l.2-.4h-.7l-.4-.5 1.5-.7.2-1.5-.4-.8 1.7-1 1.5.5.5 1.1.7.6h1.2l2.4-2.6H-6l1.6 2.4-.1.8.5-.3 1 1.2-.3 1-1 .3-.5 1.2.7-1.2.6 1-.5.5.9-.3 1 1.4-2.2-.7h-2.2l-.6-.3.8-.2.4.5v-.4h.3l-1-.6H-7l.2-.3zM3.2-76L2-76.3v-1.2l.6-1.3.2.8-.4.9 1.3.3zM-4-84.2l-.3-1.3-.6-.4.2-.6.7.2zm4.3 6.6l.4.6-.3-.7.2-.7.5.2-.3-.3.6-.1.4.4.4-.6-.5 1-.2 1.7-2.2-.3-3.3-3.4 1-2v-1l.2 2.1H-3v1.1h.8l.5 1.2.7-.3-.5.4h.8l.2 1.5h.7zM-4-80.2l-1.2-1.5 1.3-.8.5 1zm-3.7-8.4h-.5v-.6l1.2-.5v.5zm-.2-1.4v-.4h.2l.1.5zm-.1 0"/></g><g fill="none" clip-path="url(#C)" mask="url(#B)" class="D"><g stroke-width=".8"><path d="M277.4-2.4l-1.8 1.2-4.2 3-6 5.4-14.2 15.5-6.8.6-8 1.7-8 2.5-6.5 3-5.8-20.2-.4-1.3" class="B"/><path d="M277.4-2.4l-1.8 1.2-4.2 3-6 5.4-14.2 15.5-6.8.6-8 1.7-8 2.5-6.5 3-5.8-20.2-.4-1.3" class="C"/><use xlink:href="#E" class="B"/><use xlink:href="#E" class="C"/></g><g stroke-width="1.2"><use xlink:href="#F" class="B"/><use xlink:href="#F" class="C"/><use xlink:href="#G" class="B"/><use xlink:href="#G" class="C"/></g><g stroke-width="2.2"><use xlink:href="#H" class="B"/><use xlink:href="#H" class="C"/><use xlink:href="#I" class="B"/><use xlink:href="#I" class="C"/></g></g><defs ><path id="E" d="M215.7 9l-1.2-3.5-2-4.7-2.3-4.6-2.7-4.4-3-4.2-3.3-4-3.6-3.7-8.8-7.5-5-3.6-5.1-3.3-5.6-2.7-3.7-1.5-11.1-3.7-4-2.3-3.7-1.8"/><path id="F" d="M284.6-6.4h-.2L280-4l-4.4 2.8-4.2 3-6 5.4-14.2 15.5-6.8.6-8 1.7-8 2.5-6.5 3L218 17"/><path id="G" d="M218 17l-1.9-6.6-1.6-4.9-2-4.7-2.3-4.6-2.7-4.4-3-4.2-3.3-4-3.6-3.7-8.8-7.5-5-3.6-5.1-3.3-5.6-2.7-3.7-1.5-11.1-3.7-.4-.2"/><path id="H" d="M310.3-14l-11.4 2.6L294-10l-4.8 1.6-4.8 2L280-4l-4.4 2.8-4.2 3-6 5.4-14.2 15.5-6.8.6-8 1.7-2.5.8"/><path id="I" d="M233.9 25.8l-5.5 1.7-6.5 3-5.8-20.2-1.6-4.8-2-4.7-2.3-4.6-2.7-4.4-3-4.2-3.3-4-3.6-3.7-8.8-7.5-5-3.6-1.2-.9"/></defs></svg>