<svg xmlns="http://www.w3.org/2000/svg" xmlns:xlink="http://www.w3.org/1999/xlink" viewBox="0 0 497 279" xmlns:v="https://vecta.io/nano"><style><![CDATA[.B{stroke:#fff}.C{stroke:#8d618b}]]></style><filter id="A" width="100%" height="100%" x="0%" y="0%"><feColorMatrix in="SourceGraphic" values="0 0 0 0 1 0 0 0 0 1 0 0 0 0 1 0 0 0 1 0"/></filter><mask id="B"><g filter="url(#A)"><path fill-opacity=".5" d="M0 0h497v279H0z"/></g></mask><clipPath id="C"><path d="M0 0h497v279H0z"/></clipPath><path fill="#f2efe9" d="M0 0h497v279H0z"/><g fill-rule="evenodd"><path fill="#add19e" d="M321.2 151.2l6 2.4-5.8-5.2zm3.8 2.4l.6-.1h-.6zm1-.3h.3zM75 128.7l3-1.4-3 1.3zm1.1-.5l.7-.2m143.6-60.2v-.2zm0 0"/><path fill="#f5e9c6" d="M262.6 137.3l.1-.1zm0 0"/><path fill="#add19e" d="M265.7 136.7h.3zm-257 60.2v-.2zM53.6 80.3V80zm0 0"/><path fill="#f5e9c6" d="M272.3 136v-.2zm-10.3 1.5v-.2zm0 0"/><g fill="#aad3df"><path d="M161.4 347.2l.2.3.3-.1v-.3l.3-.1v-.1l.2-.1v-.1l.3-.4.3-.2.8-.6.5-.8.4-.4v-.1l.3-.2h.1l.7-.4.2-.1.4-.2.6-.3h.2l.1-.5v-.4l-.6-.3-.4-.3-.3-.1-.5-.1-.5-.5-.5-.9-.2-.6v-1.4l.2-.4.2-.3.2-.1.2-.1h.3l.6.4h.2v.2h.2v.1l.1.2h.3l.4.3.5.3.4.5.4.4.3.2.2.2.2.3h.2l.6.2h.3l.3-.3.2-.3.2-.2v-.6l-.1-.4v-1.2l-.2-.5-.4-1.3v-1l.3-1 .4-.9.4-.5.2-.3.2-.1.2-.2.3.1h.1l.2-.2.4-.1h.6l.4.5.4.7 1.6 2.2h.2l.6.3h1.5l.8-.2h.2l.2-.3.2-.1.1-.2.2-.5.4-.9v-1.2l-.2-.3-.2-.2v-.4l-.2-.7-.2-.6-.2-.7v-.9l.1-.3.1-.1.2-.2.9-.6.5-.3.4-.2h.4l1-.4.6-.1h1l.7-.2h.4l.3.3h.2l.4.1h.3l.1-.2.2-.2.2-.3.3-.4.2-.3.6-1h.4v-.4l.1-.5v-1l.2-1v-.5l.2-.5-.3-1-.2-.5v-.3h.1v-2.3l.1-.2.1-.1.2-.2h.1l.2-.2h.3l1 1 .4.2.6.1.2.6.8.8.5.2.4.2h1.5l1-.8 1-.4.3-.2h.3v-.3h.2l.1-.1.4-.2v-.3l.1-.2v-.5l-.1-.8-.3-.8-.4-.2-.2-.3-.7-.2-.3-.3-1.5-.8-.7-.4-.3-.3-.2-.3v-1.5l-.1-.7v-.5l.3-.7v-.4l-.2-.3v-.4h.3v-.3h.1l.3-.1h.9l.6.3.1.2h.1l.3.3h.2v.2l.1.1.4.5.2.3 2.9 2.8.1.2v.1l.3.1h.8l.7.2 1.5.4.4.2h.7l.5-.3.5-.1.4-.2.5-.4.2-.2.2-.4.6-.9.8-.3.2.1.3.1v.2l.3.3v.5l.3.6v.6l.1.4.1.2h1.4l.2-.2.3-.4.1-.4.2-1.2.3-.7.4-.5 1-1.5.1-.7.2-.4.3-.3.4-.3h1.2l.2.2.3.3.3.2v.1l.4.5.4.5.2.2h1l.3-.4.3-.2.3-.2.3-.2.2-.2.5-.8.1-.8.3-1.2v-.4l.2-.3.1-.4.4-.2v-.2h.3l.1-.5.3-.4.3-.4v-.5l.1-1 .2-.3.1-.3.1-.2.2-.2h.3l.1-.2h.4l.5-.1 1-.3h.5l.1.3h.5l.2-.2.2-.2.2-.2.3-.5.3-.5.5-.2 1-.7.2-.3.4-.6.6-.4.3-.3.5-.3h.9l.9.2.6.3.2.2.4.1h.2l.6-.1.7-.2.4-.3.9-.8h.1l.3-.2h.2l.1.2.2.2.2.5.4.7.2.4v1.3l-.2.3v.7l.2 1 .1.5.1.4.1.4v1.6l.1.3.3.3h1.4l.3-.2h1.3l.3-.2 1-1 1-.5.3-.2.2-.1h.3l.3-.1.4-.2h.2l.1-.4V297l-.1-.6-.3-.3-.3-.1-.2-.2h-.7v.2H244l-.2-.4-.1-.2v-.3l.1-.5.2-.6.2-.4.2-.2.6-.5.4-.3.4-.2h.9l.7.2.4.1.2.3 1.1.7.7.7.7.3h.8l.5-.4.8-.4 1.2-.5.7-.4.8-.1h1.7l.7-.3 1.3.5h1.4l.4-.1.8-.3.8-.4.3.3h.3v-.2l.2-.1h.1l.3-.3.9-.3h.7l.6-.6.2-.1h.2l.3-.3h1.3v-.1l.2-.6.2-.9v-.1l-.9-1.4v-.3l-.4-1-.9-1.3-.4-.4-.3-.6-.5-.7v-.2l-.3-.7-.3-.6-.1-.1-.1-.1h-.4l-.3-.2h-.6l-.2-.1h-.1v-.2l-.2-.2-.2-.3V279l.1-.2.3-.4.1-.1.3-.3h.2l.6-.2h.4l.3.2h.2l.3-.2.4-.1.5-.3.4-.4.3-.3v-.3l-.3-.1-.2-.3v-.1l-.1-.4v-.5l.2-.2v-.2l.2-.1.1-.2.4-.3v-.2l.3-.2v-.3l.1-.3.2-1.6.2-.3.1-.2.2-.2.3-.2h2.9v-.1l.3-.3v-.8l-.2-1.3v-.4l-.3-.4-.3-.2-.3-.2-.6-.1-.6-.3-1-.6h-.4l-.6-.4h-.4v-.2h-.3v-.2l-.1-.4-.3-.2-.5-.4-.4-.2-.5-.3-.5-.1h-1.4l-.3-.3-.3-.1v-.2l-.3-.3v-.7l-.4-.8v-1.3l.2-1.6.2-.8v-.8l.3-.5.3-1v-.6l-.3-.3v-.5l-.4-.3-.5-.7-.3-.4-.8-.8-.1-.3v-.1l-.2-.4v-.6l.3-.3.1-.2.1-.2h.2l.1-.2h.3l.4.3h.2l1 .3.5.3.6.2h.4l.1-.2.6-.6.3-.5.1-.2v-.7l-.2-.8-.1-.6-.2-.3-.3-.6-.4-.3-.2-.4v-1.6l.2-.6.2-.5v-.4l.3-.4.1-.3.2-.3.4-.3.3-.2.3-.2.3-.2h.1l1.7-.3h.6l2-.4h.5v-.5h.2v-.1h.3l.3-.4h.1l.3-.4v-.2l.2-1.2-.3-1.1v-.4l-.2-.5-.3-.4-.2-.1-.2-.2-.4-.3-.6-.6-.3-.2h-.1v-.2h-.4l-.2-.2h-.8v-.1h-1.6v-.4h-.2l-.1-.4h-.1v-.2h-.2v-.8l.2-.1v-.1l.1-.2h.4l.1-.3.7-.2.1-.1h.2l.1-.2h.1v-.1l.3-.1.2-.1.1-.7.2-.3.2-.5.1-.2.2-.2h.6l.3-.4h.1l.1-.4v-.7l.1-.8.5-2.4V220l-.2-.5-.3-1.7v-.9l.2-.2.6-.4.5-.4v-.2l.2-.3v-.7l.2-1.1v-1.2l.2-1.1.2-1.8v-.5l.4-.4.3-.6.6-.5.5-.5.6-.8 1.1-1.9.5-1 .4-1V201l-.3-1-.2-1-.5-.6-.3-.4-.4-.2-.8-.3h-.7l-.5.2-.1.3-.2.2-.1.1-.3.1-1.4.6h-.6l-1.6.6h-1.7l-.4-.3-.3-.3-.2-.3v-.7l-.3-1v-.6l.5-1 .1-.6.5-1.1.4-.7.6-.5.4-.6.4-.4V190l-.1-.7v-.6l.1-.4.2-.3v-1.6l-.3-.6-.5-.6-.7-.7-.6-.3-.8-.1-1-.2h-3.5l-.3-.3-.4-.1-.2-.2-.2-.2v-.8l.3-.1v-.2h2.3l.2.3.1.1h.2l.2.2h.4l.4-.2.2-.1.4-.3.1-.3.2-.6.7-1.1.3-.6V178l-.4-.8-.4-.5-.5-.3h-.3l-.2-.3h-.2l-.1-.1h-.2v-.1l-.4-.3v-.3l-.2-.1v-.2h.6-2.4l-.6.2-.7.2-.7.2h-.6l-.7-.4-1.2-.6-.5-.4-.3-.6-.2-.9v-2.9l.3-.7.2-.4.3-.3.4-.4h.7l.6-.2.3-.1h.6l1.3-.3.3-.2.4-.2.4-.7.2-.2.1-.1.2-.3.3-.2.3-.3.6-.2.6-.2.4-.2h1.5l.2-.3.3-.2v-.3l.1-.1.1-.2h.1l.3-.1.3-.3v-.8l.1-.3v-2.2l-.2-.8-.5-1.5-.5-.5-.6-.5-.7-.3-.6-.4-1.2-.5-1-.3-.2-.2v-.4l-.3-.4-.5-1.5v-.7l.1-.5.2-.3.5-.3 2.6-1 2-.2.6-.5.6-.4.4-.2.2-.1.1-.1h.1v-2.8l-.4-.8-.2-.9v-1.1l.2-.6.3-.8-.5-1.9-.2-.6-.2-1-.7-.2h-.9v-.2l.2-.3h.3v-.3l-.2-.2-.1-.2-.9-.3h-.5l-1.3.4h-.2l-.4.2-.9.1-.2.3h-.3v.4l-.3.4v.4l-.3.5-.1.5-.3.4-.5.7-.3.3h-.4l-.4.2-.3-.3-.2-.3-.3-.2-.2-.5-.2-.8-.4-1-.2-.7v-.8l.2-.2v-.8l-.2-.2-.5-.3-.5-.1-1.3-.2-.5-.2h-.3l-.4-.1h-.6l-.8-.1h-1.8l-.4-.1-.4-.2-.3-.2-.2-.5-.1-.2-.2-.5v-1.5l.3-1 .2-1.2v-.7l.1-1 .2-.4.2-.5-.1-.6-.3-.4-.2-.2h-1.2l-.5.1-.8.2h-.4l-.5-.5-.6-.1-.5-.5-.2-.3-.1-.3v-.3l.4-.3.4-.6.3-.3.2-.9.2-.1v-.2l-.2-.9-.5-.2-.3-.6-.7-.5-.2-.3-.8-1h-.4l-.5-.4-1-.7-1-.5v-.3l-.4-.1-.2-.2h-1l-.3-.1-.4-.4-.1-.2-.8-.6v-.7l-.2-.4-.1-.2-.3-.8-.2-.4-.2-.6-.3-.5-.3-.1-.3-.4-.4-.3-.4-.2-.2-.2v-.3l-.2-.3v-1.4l.2.1.3.3v-.5l.3-.1v-.2l-.3-.3-.4-.2-.2-.2-.1-.1-.3-.2-.3-.5h-.2l-.2-.3h-.1l-.5-1-1.4-2.4v-.6l-.3-.4-.7-.8-.5-.5-.4-.7-.2-.8v-.3l-.4-.6.2-.8v-2l-.5-.4-.5-.5-.6-.3-1-.4-1.4-.4-.5-.4-.3-.3-.2-.4v-1.8l.3-.6.1-.3h.4l.3-.3.2-.1.2-.3.1-.3v-1l-.2-.3v-.3h.4V85l.2-.4-.3-.4-.2-.2-.5-.8-.8-.7-.6-.5-.2-.2-.3-.8-.1-.5V79l-.1-.1-.2-.9v-.3l.1-.4.3-.3.2-.5v-.3l-.1-.4v-.1l-.3-.5-.3-.4-.4-1v-1.7l-.2-1.3-.3-.6-.2-.5v-2l-.3-1.3.2-1-.2-.8-.1-.6-.4-.4-.4-.7-.3-.3-.3-.2-1.3-1.6-.4-.5-.6-.3-1.1-.7-.5-.3-.4-.4-.1-.2-.4-.7-.2-.6-.4-.5-.5-.9-.3-.5-.3-.9-.2-.6v-.3l-.2-.1-.1-.1-.5-.2h-.2l-.2-.7v-.5l.2-.2v-1.3l-.4-.6-.3-.3-.7-.4-.6-.3-1.6-.7h-.4l-.1-.4-.2-.3V47l.1-1v-.2l-.2-.6v-.3l.1-.3.3-.3.2-.1.2-.2h2.2l.4-.2.3-.2.4-.3.6-.8.4-.5.5-.6v-.5l-.5-.3-.2-.6-2.5-1.7-.1-.3-.1-.3v-.3l-.1-.4-.2-.3-.3-.3-1.6-1-.5-.4-.1-.2v-.5l.2-.2.2-.3.3-.1.5-.1.3-.1.4-.2.5-.4.2-.7v-.6l-.2-.4-.2-.2-.2-.2h-.3l-.2-.2H206l-.2-.1-1.1-.9-.3-.3-.2-.5-.2-.2V28l.5-.3.2-.4 1-.9.4-.3v-.2l.4-.2.3-.1v-.2h2.7l.5-.1v-1l-.3-1-.1-.7v-.2l.1-.4 1-1 .1-.3.5-.6v-.5l.1-.6.1-.4v-.4l-.2-1.2v-.4l.1-.4.3-.2.7-1 .2-.3v-.3l.2-.6v-.2l.2-.4.2-.3.3-.2h.8l.5.3.5.2.7.2.2.1h.3l1-.4.5-.1.4-.2.3-.2.8-.3.4-.3.8-.5.3-.2.9-.5 1.5-1.1.6-.2 1.3-.4.6-.1.6-.4.5-.4 1-.4 1.2-.4 1.1-.1h1l.7-.3h3.8l.7-.1 1.8-.6.4-.1h.9l.4.4.2.2v.7l-.1.5-.5 1-.1.6v.4l.1.5.4.3.5.2h2.1l1.6.4 1.3.5.5.2h2.2l1-.4 2.2-.9h.6l1.5.2 1.1.5h.8l2-.7.3-.1h.5l.2-.4.2-.4V8.8l-.3-1-.2-1.1-.2-.8V3.6l.4-.6v-.6l-.3-.7-1.1-1.7v-.6l.1-.2.2-.2.2-.1.6-.1h.4l.7.1 1.2.4h.3l.6.2h.4l.5-.5.3-.3.2-.5.2-.6v-.8l-.2-.9-.1-.3-.3-.4-.8-.8-.1-.1V-6l-1.5-1-.1-.6-.1-.5v-.5l.6-2.4.8-2.1.2-.4.2-.2.2-.2h1l.7-.6.7-.3.4-.5.5-.4.1-.4.2-.4.2-.8.2-.7v-1.8l.3-.7.1-1.1v-3.2l-.2-1.5.5-4.7.1-.3.2-.7.4-.3.6-1 .2-.6.2-.4v-.4l-.6-1.7v-.3l.3-.4.2-.3.3-.3.4-.2.4-.1 1.7-.3.3-.1.4-.2.3-.4.3-.4.2-.2.2-.1.3-.3.3-.2.2-.4.6-1.3 1.8-3.1 1-1.5.4-.4.8-.6 1.3-.8.5-.5.3-.4.2-.3v-.8l-.3-.7-.5-.7-.3-.5v-.8l.1-.2h.2l.3-.3.4-.4V-55l.8-1.8.2-.5.3-.4.3-.6v-1.8l.2-.6.2-1v-.3l.1-.1v-.1l.2-.8-.3-1.5v-.7l-.4-1-.6-.9-1.2-1.3-.2-.6v-1l.5-.6.5-.4.2-.1 1.1-.2.6-.3.5-.4.6-.8.4-.5v-1.2l-.3-2v-1.2l-.3-1.3v-.2l.4-.8v-1l.2-.4.2-.8v-1.1l-.2-.7-.3-2.7v-.3l-.6-.5-.4-.4-.4-.2h-1.1l-.9.1h-.3l-.4-.2-.3-.4-.3-.7v-.7l.7-2 .3-.7.6-.6.1-.3.5-2.3v-1.7l-.6-1.7v-1.2l.8-2.3.2-1v-1.1l-.2-2-.4-1.4-.5-.6-.4-.5-2.1-.9-.6-.4-.2-.3v-.4l-.5-1.1.1-1.5.2-1 .1-.5.4-1.1.7-1.2 1-2.7v-1.3l.3-.8.7-2 .6-1.3.2-.3v-.8l.2-1.3.3-1v-.8l-.2-.9-.5-.7-.5-.8-.2-.8-.5-1-.6-.8-.2-.4-.2-.5v-.7l-.6-.8-.2-.7-1.2-1.9-.7-1.1-.3-.5v-.9l.4-.7.1-.9.3-.6v-1.7l-.4-.6-.5-.5-1.1-1-.7-.8-.5-.6-.3-.6-.1-.7-.3-.7-.8-1-.2-.7-.5-.9v-3.6l.2-.3.3-1.7v-1.4l-.5-.5-.3-.6-.8-1-1-1.1-.9-1-.2-.4-.2-.9-.5-1.9.1-.6.3-3 .2-.5v-1.1l.3-.6v-1.7l-.3-.7-.2-.5-.6-.6-.8-1.7-.3-.9-.1-.7v-.7l.1-.6.3-1 .2-1 .1-1v-1.1l.4-2.8v-1l-.3-2.2v-2l.3-.5.2-.4.5-.6.5-.5h.2l.8-.5.6-.5.3-.2.3-.4.2-.4.2-.4.2-.6.2-.7-.1-.3v-.5l.3-.6.2-.7.2-.7v-.8l.1-1.4v-.8l-.3-.5v-1.4l.1-.2.3-.4.2-.5v-.4l-.2-1.1-.4-.3-.2-.5v-.5l.2-5.7-.2-1.2-.2-1.6-.5-1.2-.5-1.1-.3-.8-3.1-4.7-.7-.7-.2-.7-.5-2-1.2-1.2-.4-.5-.4-.8-1.6-2.3-.8-1-.4-.7v-2.2l-.4-1.3-.4-2-.8-3-.3-.8-.8-1.9-.3-.6-.2-1v-1.1l.3-.6.5-1.2.7-1.5v-1l.1-.5.6-2.4.2-.8v-.4l-.3-.4-.5-.6-.6-1-.4-.5v-1l-.1-.5-.5-.8-.8-.9-.4-.7-.3-.7v-1.2l.3-.4.7-.8 1-1 .5-.5.3-.7.5-1 .4-.6.6-.7.6-.5.7-.5.5-.3 1-.5 1.2-.7.2-.3.2-.3.3-1.1.3-.6v-.3l.4-1.1v-2.1l.2-.7.3-1.1.1-1.1.2-1.6v-.4l.4-.7.2-.4.5-.4.6-.5.3-.6.3-.6.3-1.1.4-.9.3-.5.3-.5.5-.3.9-.7.4-.5.4-.5 1-1.8 1.3-1.2.7-.4.6-.4 2.8-1.2.6-.3.3-.4.4-.6.3-.5.2-.7.1-.8v-1.6l-.3-1v-1l.2-1.3.3-2.6v-2.9l.3-.7.1-1.3.3-.9.2-.6.4-.5.4-.7.3-.4.5-.2.3-.3 1.2-.8.5-.2 1.6-.3.8-.2h1.6l1.2-.2.6-.2.2-.2.5-.4.3-.4.4-.7.2-.3.2-.3.4-.3.3-.4.3-.6.2-.6.2-.7v-1.5l-.1-.8-.2-.4-.5-1.1-.2-.8-.3-1.6-.3-1.1-.4-1-.3-.7-.6-1.8-.3-.6-.3-.7-.2-1-.6-1.6-.2-.6-.5-1.7-.2-.5-.6-1-.3-.6v-1.1l.3-.7v-.4l-.1-.4-.4-.7-.6-1-.6-.7-1.3-.9-1.4-.7-2-.5-.4-.2-.4-.2v-.2l-.4-.5-1-2.1-.3-.8-1-3v-.8l.2-.3v-1l-.3-.1-.1-.1-.3-.2h-.2l-.5-.3-.1-.4-.6-.5-.6-.4-1.8-.6-.4-.5-1-1.8-.7-1-.9-.7-.7-.3-1.5-.3-1.1-.2h-4.2l-1.2-.2h-.5l-2.3-.6H257l-.2-.2-.1-.2-1-.7-.4-.3-.9-.1H251l-.6.3h-.5l-.9-.9-1.4-.9-.7-.2-.6-.2h-1l-1.1.3-.8.3-.8.5-1.3 1-.8.5-.7.4-.7.1-1.1.4-1.4.8-.1.2-.7.6-1 1.1-1.1.7-1.1.7-.3.6-1.1 1.7-.8.6-2.4 1.5-2 1.5-1.4.5-.6.3-.8.4-2.6 1.8-1.1.3-.5.1h-.7l-.8-.1-1.3-.7-1-.9-1.8-1.8-1.2-2-.5-.8-.7-.4-.7-.5-.9-.5-.7-.5-.7-.7v-1.8l.7-1h.1l.5-.6h.1l.3-.4.3-.1.4-.3.4-.4h.2l1-1.4.7-.6.5-.2.1-.2.2-.1.1-.1h.1v-.1h.3l.4-.3v.1l.3-.3h.8l.8-.7.7-.2h1.1l.2-.1h.3l.2-.3h2.6l.1-.1h.1l.5-.2.1.1.4-.2h.2l2.2-1.4v-.1l.5-.5h.1l.3-.3.3-.1.3-.4.3-.5 1-1.2v-.2h.2v-.2l.2-.3.4-.5v-.3l.4-.7 1-1.3 1.4-1 .5-.5v-.3h.3v-.5l.2-.2v-.8l.2-.2.4-.5v-.1l.5-.4v-.2l.1-.2.5-.4.3-.5h.3l-.2-.2.2-.1h.1l.2-.1.2-.1h.1v-.3l.5-.3.3-.6.4-.4.2-.4.4-.5v-.3l.3-.2.1-.2.5-1 .3-.5.1-.5v-.4l.2-.4.2-.5.2-.5.3-.4.3-.2h.1l.8-.4h.3l1.5-1v-.2l1-.8.4-.5.3-.3v-.5l.3-.5v-.2l.2-.3v-3.1l-.2-.2v-.7l.2-.3.2-.4.4-.6 1.6-1.2.3-.5.1-.3.1-.1.1-.2.2-.4v-.5l.2-.2v-2l.2-.7.2-.5v-.1l.7-.6.4-.5.8-.2.5-.4.5-.4.8-.6.2-.3h.2l.3-.3 1.4-.7 1-1 1.7-1.3.9-1.7v-.4l.7-.9v-.4l.8-2 .2-.6.8-1.4.2-.4.2-.3v-.1l.6-1v-.4l.2-.4.2-.8.3-.6v-1.5l-.1-1.1-.1-.2-.5-1.2-1-2-.2-.7-.1-.2-.3-.4-.8-.6-1.5-1.1-.4-.4-.3-.6-.1-.5v-1.5l.1-.3.3-.7.3-.5.5-.4 1.5-1.4 1.5-1.3.1-.1.4-.5.3-.5.1-.3.1-.5v-.5l.3-.7v-.5l-.3-.2-.1-.6-.6-.6-.4-.5-1-.6-1.1-.7-.5-.4-.4-.5-.4-.7v-1.5l.1-.5.5-.4.5-.2.9-.4 1.4-.7.6-.6.3-.4.3-.6.2-1 .2-.3v-2.1l-.3-.7-.6-.6-.7-.2-.6-.2-.3-.4-.1-.1-.4-.5-.3-.6-.4-1.2-1.6-1.8-.7-1.1-.6-.6-2.5-2.3-.5-.7-1-1-.7-.4h-.1l-1.1-1.3-.2-.3v-.3h-.3v-.2l-.4-1-.4-.9v-.3h-.2v-.2l-.7-1.2v-.1l-.1-.2-.3-.3v-.1l-.1-.3-.4-.5-1.1-1.7-.5-1-.7-1v-.2l-.6-1v-.2l-.1-.3-.2-.7v-.2l-.4-.8-1-1.4-.8-.8-.6-1.2-.2-.5-.2-.5v-.8l-.3-.9-.2-.8-.5-.7-.7-.6-1.3-.7-.3-.3-.2-.5-.5-.4-.6-.5-.8-.4-1.6-.3-1-.3-2-.4-3-.9-.5-.1-.7-.6-.3-.5-.4-.9-.6-.8-.4-.6-.2-.5-.4-1.7-.1-1.7v-2.1l.3-.7v-.5l.2-.9v-4.2l-.6-2.9v-1l.4-1.3.1-1 .1-.9.3-.9.3-.7 1-1.5 1.5-2.4.6-.5 1-1.4.5-1 .9-1.4.2-1.2.2-1.6v-.7l-.4-.6-1.2-1.2-.4-.7-1.1-4-.1-1v-1l-.4-.6-.3-1.8-.8-2-1.6-3.6-.7-1.5-.5-.8-2-2.7-.4-.7-1-1.2-.5-.8-1-1-.6-.6-.3-.7-.4-1-.3-.7-.4-.5-2.5-2.3-1.5-1.2-1.5-1.2-1.4-.8-.5-.1-.9-.3-.7-.6-1-.3-1.2-.5-1.4-.3H200l-2 .5-1 .1-2.4 1.2-1.2.8-.6.8-.2.1-.6.3-.5.6-.5.8-.3.8-.8 2.4v3.4l-.1.6-.1.2-.2.5-.1.3-.1.1-.1.3-.4.6-.5.4-.3.3h-.2l-.4.4h-.5l-.8.1h-1l-.1.1-.7.1h-1.7l-.3-.2-.4-.1h-.4l-.2-.2-.5-.5-.2-.2-.3-.5v-.3l-.3-.6-.2-1v-.5l-.3-.6v-2.3l.2-.3v-.4l.1-.3.3-1-.1-.4v-.2l.4-.7v-.1l.3-.4h.1l.3-.5.2-.4v-.3l.2-.5v-1.5l-.1-.4v-.6h-.2v-.8l-.5-1.9-.3-.9v-.4l-1.3-3-.1-.5v-.7l-.6.4-.7.4.3 1.5.2.9v1.6l-.2.1-.2 1.3-.1.2-.2.6v.2l-.1.5v2.5l.1.1v.4l.2.1v.9l.3.3v.6l.1.1v.4l.1.1v2l-.2.2v3.1l.3.2v1.2l.2.1.2 1 .3.3.6 1.4 1.3 1.7.7.8h.2l1.3.8.9.3h.4l.8-.3.2-.2.6-.4.9-.5h.1l.2-.2.6-.3h.2l.6-.6.9-.7v-.1l.5-.4.2-.4h.2v-.4l.3-.4v-.9l.2-.8v-3.6l.1-.1v-.1l.2-1.2.2-.8.3-.7.5-.7.5-.4.3-.1h.5l2-.1h.9l2-.9.6-.1h.5l1.6-.2.5-.2.5-.3.3-.3.3-.4.4-.3.5-.4h.7l.7.1.7.2 1.3.7 1.2.4 1.2.5 1.9 1.3 3.3 3 .4 1 1 1.6.6.9 2 2.1 1.6 2.3 2 3 1 1.7.2.8.6.5 1 2.6.7 1.9.6 2.2.8 4.4v.7l.7 1.3.3.7.7.7.6.6.1.4v1.5l-.5 1-.5 1.2-.6.8-.7 1-1 1.4-1.5 2.1-.9 1.2-.5 1.1-.2 1-.1 1.1v.6l-.5 1.9v2.3l.5 1.9v4.1l-.4 1.3v2.8l.2 1.7.4 1.7.2.8.6.9.3.4.7 1 .7 1 .5.3 1 .4.6.2 1.6.5 2.2.2 2.4.6.6.2.5.3.6.8.3.3v.6l.2.8.3.6 1 .6.7 1 .5.6.5.5.1.5 1 1.6 1.7 2.6.3.7v.2l.3.2.4 1.4.7 1.6.1.1.8 1.3 1 1.5.3.2.5 1.2 1 1.5.7 1.9.9 1.2.1.1 1.3 1.4.4.4 1.5 1.5h.1v.2l1.1.9 1.5 1.4.3.4.5.5.4.6.5.7.3.5.4.4.3.8.3.7.6.9.4.4.4.3.6.2h.3l.5.4.4.4v.3l.2.3v.7l-.4.6-.3.8-.4 1-.5.3-.5.5-2.1 1.2-.4.3-.7.5-.1.6-.1.5v.4l.3.7.1.5.3.6.2.2.4.5.5.3 1.6 1 .7.4.5.5.3.6v1.2l-.1.5-.2.5-.5.7-.5.8-1 .7-1 1-.5.4-.7.6-.3.6-.4.7-.1.6-.2.6v1.2l.1.5.1.1.2.5.1.2.2.1.7.7.7.5.6.4.9.8.3.5v.2l.4.8.4.6.3.7.5 1.5v2.3l-.6 1.4-.6 1.3-.6 1-.4 1-.2.5-.6 1.3-.5 1.2-.5 1.4-.8 1.1-.4.8-.6.7-1 .9-.9.3-1.3 1-1.1 1-.2.1v.1l-1.4.8h-.2l-.5.3-.4.5-.3.2-.1.3-.2.5h-.1l-.3.7-.1.9v1.6l-.1.5-.6 1-.2.2-.3.4h-.1l-.6.6h-.2v.3l-.5.3-.1.4-.2.3h-.1l-.2.3v.2l-.1.5v.5l.3 1.3v1.4l-.2.8-.4.7-.1.3-.5.5-.7.7h-.2l-1 .7-.5.5-1 .6-.6.5-.4.3-.1.2-.2.4-.6 2v.2l-.4.6-.7 1v.2h-.2l-.4.8v.1h-.1l-.6.7-.2.4h-.4l-.6.7-.7.6-.3.6-.8.7h-.2l-.8.6-.6.2-.1.2-.2.2-.1.4v.2l-.4.8-.3 1-.1.1-.5 1-.7.7-1 2.2-1 1.2v.1l-1 .8-.2.3-.4.2-.6.5h-.3v.2l-.6.3-1.1.4-.1.1h-.2l-.1.1-1 .2h-1.8l-.8.4h-1.4l-.2.1-.5.2-.4.4-.6.2v.2h-.3l-.2.1v-.3h-.2v.4h-.2l-.8.2-.6.4-.2.1-.6.6-.4.3v.2l-.7.5-.2.4-.5.6-1.4 1.4-.7.9v.1l-.4.6-.1.5v1.3l.2.2.5.7.7.6 1.8 1.1.9.7.5.9.6 1 .5.9 1.1.8 1.3 1.3.6.5.8.3.5.2.6.3h1.8l1-.3.4-.2 1-.6 1.3-1 .7-.2.4-.2 1.2-.3.4-.2.8-.7 2.5-2 1.7-.9.7-.5.6-1 .7-.7.6-.4 1.1-.8 1.3-.6.7-.4 1-.5.3-.2 1.5-.5.3-.3.2-.3.3-.5.2-.4.4-.6.8-.6 1-1 1.2-.4.9-.4h1.6l1 .4 1.2.6.6.4.8.5.3.1h.4l.7-.1.9-.1h.7l.5.2 1.4.9 1 .5.5.4.1.1 1.1.3 1 .2 1.4.3h1.8l1 .3h1.2l.3-.2.5-.4.6-.2h3l1.1.4h.7l.5.4.7.9.5.8 1.1 1.1.3.7.6.5 1.1.3.8.1.4.5.2.6.1 1.2.1 1 .4.7 1 1.5.4 1.2 1.4 2.7.8 1.2.5.4.7.3 1.4.4.8.3 1 .3.4.4 1.1 1.1.7.7.1.3v4.2l.2.5.4.7.7.7.4 1.4v.2l-.2.3-.3.4-.3.4-.1.3-.2.5v.3l.1.4.2.3.3.3.4.2.3.2h.2l.2-.1.3-.2h.5l.2.5v.2l.6 1.5.4 1.3.4 1v.8l.1.7.4 1 .5 1.2.3.7v1.5l-.4 1.3-.1.5-.8 1.1-.4.6-.4.7-.5.3-.2.3H288l-.5.2-2 .5-1.1.3-.8.3-.6.5-1.3 1-.3.6-.6.8-.3.8-.2.7-.2 1.1-.3 1.3v3.5l-.3 2.4v1.8l.2 1.7v1.8l-.4.6-.1.4-.3.4-.3.3-1.4.8-2.4 1-.4.2-.4.4-1.4 1.3-.3.3-.3 1-.5.8-.5.5-.3.3-.5.4-.6.4-.4.4-.2.4-.7 1.6-.2 1-.3.3-.2.5-.3.3-.9.6-.3.3-.3.7-.2.8-.1 1.9-.1.6-.5 2v2.2l-.4 1-.3 1-.2.7-.4.5-.4.4-.4.4h-.4l-1 .4-.5.4-.9.5-.6.5-.4.7-.5.6-.5 1.5-.5.6-1.7 1.6-.6.8-.2.3v1.1l.4.7.3.6.3.7.8.7.2.4v.2l.3.3v.8l.2.4v.3h.1v.3l.2.3.8 1 .3.3v1l-.2 1-.4 1.7v1.2l-.8 1.1-.6 1.7-.2.7-.2.6v1l.3.6.8 2 .5 1.2.9 3.4.4 2.2.3 1v.6l-.1 1 .1.7.1.3.4.6 1 1.4.8 1 1 1.2.3 1.4.4.9.2.5.3.6 1.5 2 2.4 3.3.7.8.2.5.8 2 .2.6.3 1 .2 1.5.1 1.3-.2 4.3v2.1l-.4.8v.6l.3.4v.4l.3 1 .1.5.3.8v3.2l-.4.8-.1.6v1.5l-.5 1-.2.4-.3.5-.6.5-1.4.8-.7.7-.3.6-.5.6-.1.4v1.2l.1 1.5.2 1.6v1.4l-.2.6-.1 1.6v1.1l-.2 1.9-.2.5-.2.6-.1.7v1.2l.3.4v.4l.2.4.7 1.5.4.5.3.4.2.5v3.3l-.6 1.6v2.5l-.2.3v.4l-.3.8v.4l.3.2-.3.6v.6h.3l.1.2h.4l.4.2 2.3 2.5 1.1 1.6.2.4v1.1l-.5 1.6-.1 1.6-.1.6v.5l.2.9.3 1 .5 2.1.1.4.2.2h.2l.1.2h.2l.1.1.3.6.5 1 .8.8 1.2 1.2.5.4.2.4.3.6v.6l-.3 1-.3 1.2-.2.2-.2.9.1.4.2.5 1.8 2.9.2.5.3.6.2.4.5 1.8.2.6.2.1.3.3h.1l.3.8.4.9.8 1.3.1.4.1.6v.5l-.3.8v1.2l-.1 1v.2l-.3.4-.5 1.1-.2.8-.5 1.4v.4l-.1.8-.2.8-.8 2.6-.6 1-.3.7-.3 1-.2.5-.1 1.1v1.6l.5 1 .2.3.2.4.4.3.4.3 1.3.5.7.5.3.3.2.5.3.7.1.7.1.7.1.9v.6l-.3 2-.4 1.6-.2.5v1.3l.5 1 .1 1.5v.5l-.4 1v1l-.1.2-.3.3-.4.7-.3.6-.3.8-.5 1.6v.4l.2.6.3.4.2.4.4.2.5.2h.9l.7-.1h.3l.7.3.2.2.2.4.1.2v1.2l.2 1.3v1l-.4.6v1.3l.2.3v1.4l-.4.5v.5l.3.5v1.5l.4 1.5v.4l.2.4v.4l-.2.4-.3.4-.4.4-.4.5-.3.1-.3.2-.5.2-.8.1-.4.2-.4.3-.2.5-.3.5v1.3l.4.4.2.5.6.6.4.4.5 1.4.2.7v.9l.3 1-.2.7-.1.1-.3 2.1v1.3l-.2.4-.4.6-.3.5-.2.5v.4l-.4 1v.7l-.3.4-.2.3-.4.2-.2.4-.1.2v.8l.2.4.5.8.3.5.1.4v.3l-.1.3-.2.3-.3.4-.8.4-.7.4-.5.5-.7.5-1.3 2-1.6 3-.6 1.3-.3.4-.5.3-.4.4-.3.6h-.3l-.3.2-1.7.3h-.2l-.4.3-.6.2-.3.3-.3.3v.4l-.2.3v.4l.1.5.2.7.1.5v.6l-.2.4-.2.4-.4.5-.3.6-.3.5-.1.3v1.1l-.1 1-.3 2.7v2.8l.1 1v1.6l-.4 1.6v.9l-.2 1.4-.2.7-.3.6-1.2 1.1-.3.3h-.3l-1 .2-.4.3-.6.2-.2.3-.2.4-.2.8-.4 1.3-.1.7-.2 1.1-.2.9v.3l.1.5.2.4.1.3 1.8 1.8.4.4.3.4.3.7v1.3l-.3.4-.3.6-.2.1h-.9l-.5-.1-1.3-.6h-.5l-.6.1-.8.3-.3.2-.2.4V0l.2.4.6 1 .3 1.1.1.5-.2 1.1v2l.5 1.3v.7l.2.7.1.5v.6l-.3.3-.3.2-.7.2-1.7.4h-.7l-.8-.3-1-.2-.6-.1h-.9l-1.7.8-1 .4-1.1.1h-1.7l-.2-.2-1-.4-.6-.2-.7-.1-1.4-.1-.6.1h-.5l-.3-.1-.3-.2-.2-.2V10l-.2-.3.1-.5.7-1.3.2-.9-.3-.4-.3-.4-.4-.3-.4-.1h-.5l-.5.1-.6.2-1 .3-.6.3h-.8l-.6.2-1.8-.2h-.9l-.4.2h-1.3l-.6.2-1.2.1-.8.2-.8.2-.7.6-.5.3-.8.2-1.2.4-.6.2-1 .7-.7.5-1 .5-.7.5-.3.3-.4.2-.5.2-.6.4-.5.4h-1.7l-1-.4-.6-.3h-.8l-.4.3-.3.2-.2.3v.4l-.2.5v.3l-.2.4-.1.3-.8.8-.2.6V20l-.4.5-.6.8-.5.4v.3l-.2.1v1.1l.2.5.2.6v.6l-.2.1-.1.1h-.7l-.4-.3h-1.7l-.3.5-.5.2-1 .7-.2.2-.6.9-.3.6v1.7h.1l.1.3h.1l.4.1.1.4v.1l.5.2.5.3 1 .5h.2l.9-.2.3-.1h.8l.3.2.1.2v.9l-.2.2-.9.3-.5.2-.5.4-.3.4-.2.3v.4l.2.3.2.3.4.3 1.7 1 .3.4v.4l.3.4v.5l.2.3.7.4.6.5.9.7.5.4.1.4v.4l-.2.3-.8 1-.5.7-.3.1-.4.2h-2.1l-.5.2-.4.3v.3l-.1.6.1.7v1.9l.2.5.4.3.8.3.7.2h.3l.3.1.1.1.1.1.2.2v.5l.2.2v.2l.1.1.2.2h.1l.1.1V52l.1.4v.1l.3.6.3.4.4.5.2.4.5.9.5.8.4.7.4.7.5.8.2.4.2.4.4.3.7.4.4.2.3.3v.1h.3v.2l.3.4.7.6.7.8.5.6.3.4.2.3v.2l.2.3v1.1l.1.4v.3h.1v1l-.4.7-.2.7-.1.3v.3h.2l.2.1h.1l.2.2.2.1.1.1v1.2l-.2.3v.1h-.1v.3l-.1.1v.3h.3l.2.4h.5v.5l.4.7v1.9l-.2.7v.4l.3.4v.5l.2.5.1.6.1 1v.7l-.2 1.1v1.4l.4.2v.3l.4.5.1.2.1.5.3.5-.1.2-.3.4-.2.2v.6l-.4.6v.5l.4.1.3.7.2.2.1.3v.5l.2.6v.4l.2.9v.1l.3.5v.9l.4.2h.9l1 .3h.1l.2.1.2.1.2.5v1.6l.1.5v.2l.4.3v.2h.5l.1.4.3.4.5 1 .3.7.5.5.2.5v.7l.6.6.9 1.3.6 1.4v.4l.4.3.1.2v.2l.4.6v.2h.2v.3h.3v.1l.2.2v.4l.1.1.1.3v.9l-.3.2-.3.5v.2l-.2.2v.4l.2.3v.9h-.2l-.1.7-.2.4v.7l.2.3.1.3.4.2.1.1.2.2.3.2h.4-.4l-.1-.2v-.1l-.4-.2-.2-.1-.2-.3v-.1l-.1-.4v-1.1l.2-.3v-.1h.2l.2-.6v-.1l-.3-.2v-.2l.3.2h.2l.6.8.2.1h.6l.3-.2h.1v.7l-.2.1-.1.2-.1.3v.6l.1.2v.4l-.3.2-.1.1-.2.3h-.1v.1h.4l.2-.1.2-.2.3.2h.2v-.2h.4l.2.2.1.1.2.2.2.3.2.3.4.3.4.2.6.4.5.3.3.2h.5l1.1.2.6.2.4.2 1 .5.2.2.5.5.5.9.3.3.3.9v.5l.3.1h.3v.2h.2v.4l-.3.2-.3.4-.4.5v.3l-.2.3v.9l.4.4.8.6.3.3.7.3.8.1.8.5.4.4.5.7v2.1l-.2.6-.3.8.2.5v.9l.2.6.2.7.5.5.5.5.6.1h3.3l1 .3.9.1.5.3.3.4.2.5.2 1.2 1 2.7.5.6.6.3.6.4h.3l.4-.2.3-.5.5-.7.2-.2.1-.4.3-.1.3-.3.4-.2.3-.2.1-.3v-.3l.4-.5h.4l.3-.3.2-.2h.3l.2.4h.3l.6.6.3.4.9.3.9.5.3.4v2.4l-.2.4.1.6v.6l.2 1 .1.4v.6l.3.4v1.2l-.3.4-.4.4-.3.5-.4.3h-.6l-.7.3-1 .2-2.4 1-.5.2-.6.5-.3.6v.8l.3.8.2 1 .2.4.1.4.4.3.4.2.6.2 2.7 1.3h.4l.2.4.3.3v.5l.3.6.5 2.2v.3l-.4.3-.2.2h-.2v.9l-.5.2-.5.2-.7.4-.6.7-.7.2-1.2.8-.2.1-.3.3-.7 1-.2.2-.3.2h-.8l-.4.2h-.2l-1.1.5-1 .1h-.3l-.1.2h-.2l-.2.3-.4.8-.2.7v1.7l-.2.2v1.3l.3.3v.2l.2.1v.4l.2.2.1.4.4.3.6.3.8.4.6.3h.1l.2.1h.5l1-.4h2.5l.4.3.4.4.5.3.4.4h.4l.4.2.2.4.2.9v.7l-.2.2-.2.4-.7.7-.7.6h-.1v.2l-.4.2-.1.3h-.2v.1h-1.1l-.6-.4h-.3l-.5-.1h-.5l-.5.4v1.4l.2.3.2.5h.4l.6.2.3.1h3.7l.7.2h.4l.4.3.5.2.9 1.1.1.3.3.6v.5l-.4 1-.2 1.5v.1l.1.3v.4l-.1.2-.4.4-.5.7-.4.9-1.1 2-.2 1.6v.8l.2.6v1.1l.4.3.6.6h.9l1.1-.2 2.6-.6 1.1-.5.6-.3.2-.4.2-.1h1l.7.3.4.5.3.6.4.9.1 1v1.2l-.5 1-1.5 3-.6.6-.8.7-.4.5-.2.3-.3.5v.5l-.3 1.1v1l-.1 1.8-.2 1.3v.7l-.3.3-1 1-.2.3v1.2l.2.8.2 1.3v1.3l-.2 2.4-.4 1.4v.8l-.3.2-.5.2-.2.3-.3.1-.2 1-.2.4-.3.2-.3.3-.3.3-.9.3-.5.5-.4.3v.4l.1.5.3.6.6.6.2.2h1.5l.7.4.9.3 1 .7.3.6.4.7.1 1v1l-.1.5-.2.2-.4.3-.5.2v.2l-.2.3h-.6l-1.1.4-1.6.1h-.9l-.8.5-.6.3-.6.7-.3.4-.3.6-.1 1-.1 1.2v.5l-.3.6.2.2h.2v.1h.2v.4l.2.2v.1l.4.4.2.3.1.6v1.4l-.5.5v.2h-.8l-.7-.3-1-.4h-.3l-.5-.1h-.4l-.3.1-.4.2-.2.1v1.6l.2.6.4.4.7.8 1 1.2.2.5v.7l-.3.6-.2.9-.2 1.3-.2 2.4v.9l.4.6v.3l.1.6.2.3.1.3h.2l.2.2.3.2.9.2h.1l.1.1.4.4.2.2 1.3.5.4.4.8.4 1.1.3 1.7.8h.2l.1.3h.2l.5.6v.1l.3.1v.2l.2.6v.1l-.1.2-.3.2h-.5l-.1.1-.6.3-.4.2-.9.2h-.4l-.3.5-.4.2-.2.5v1.6l-.2.2-.6 1-.8 1.2v1.1l-.2.3h-.4l-.8-.4h-.6l-.2.3-.2.3-.5.7-.3.5-.4.5-.2.6-.1.5v.8l.4.3v1.6l.2.2v.2l.3.1.2.2.2.1.4.1h.1l.2.2h.7l.2.1v.9l.2.3v.1l.2.4.3.4.2.2h.6l.9.8 1 1.8.2.6v.5l-.1.3-.3.2-.4.2h-1l-1 .2h-.5l-1.1-.1h-.1l-.4.2-.1.3v.5l-.5.2-.5.3-.1.1-.5.2-.1.1-.6.3h-.7l-1.8-.3h-2.5l-1.1.4-1.4.4-1.7 1.1h-1l-1-.8-1-1-.9-.3-1.6-.3-.8.4-.7.7-.6.7-.4 1.5v.4l.2.3.1.2.4.1.6.1h.7l.2-.1h.7l.3.2.1.3v.4l-.1.3-.3.6-.4.2-1.4 1h-.2l-.2.2h-.4l-.1.2v.2l-.3.2-.4.3-.6.3H241l-.2.2h-.3l-.3-.6-.1-.4v-1.1l-.6-1.7v-1.9l.2-.7v-.3l-.9-1.5-.2-.5-.6-.2-.5.1-.4.2-.6.8-.8.2-.5.2-.6-.1-.4-.2-.5-.1-.3-.3h-.9l-.1-.2h-.4l-.4.2-.1.1-.2.2h-.3l-.1.1-.3.3-.2.1-.1.1-.2.4-.2.4-.2.1-.2.1h-.1l-.1.2-.4.2-.4.2h-.2l-.3.3-.2.1-.4.2h-.1l-.3.2h-.3v.1h-.3l-.1.1-.2.2h-.1l-.3.3h-.2l-.2.2h-1l-.2.1v.2h-.3l-.1.1-.2.1-.3.1-.1.2-.6.1v2.4l-.2.4-.8.9-.4.7-.2.3-.1.8-.1.7v.3l-.2.4-.2.3h-.6l-.1.2h-.1v.2h-.2v.3h-.1l-.2.1h-.3l-.2.1h-.3l-.4-.2v-.3h-.5l-.1-.3h-.2v-.3h-.3l-.7-.7-.3-.1h-1.5l-.4.3-.6.7v.7l-.2.2-.3.1h-.1v.3l-.4.9-.2 1.6-.2 1.6-.1.4-.2.3h-.2l-.3.3h-.4l-.2-.2-.1-.2v-.3l-.3-1.2v-.3l-.3-.6-.2-.1-.2-.2-.4-.1h-.5l-.3.1-.3.2-.3.3-.5.6-.3.5-.4.4-.3.3-.5.1-.4.1H204l-.5-.2-1.2-.2-.6-.2-.4-.1-.6-.4-.4-.5-1-.7-.7-.7-1.2-1.2-.2-.5-.3-.3-.8-.6-.4-.2h-.1l-.2.2H194v.1l-.3.2-.1.3-.2.4v.6l-.3 1v.3l.2.4.3 1 .2.8v.4l.4.4.1.3.4.2 1.2.6.8.4.6.4h.3l.4.3.2.5.2.4.1.5v.3l-.1.3-.2.2-.3.3-.3.2-1.3.7-.8.6-.5.1h-1l-.4-.4h-.7l-.2-.4h-.2l-.2-.5-.1-.1v-.2l-.5-.3-.6-.3-.9-.5-.2-.2h-.5l-.3.2-.2.3h-.2l-.3.3.1.2-.1.8-.1.5v1l.2.5.4.7v.7l-.2.8-.2.6-.3.8-.2.1-.2.4-.2.4v.5l-.2.3-.1.3-.6.4-.4.3-.5.2-.7.2H184l-1.1.3-.8.3-.5.1-.2.1h-.2l-1.8 1.3-.4.4v1.5l.5 1.1.3 1.3.2.4v.7l-.2.7-.2.7-.2.1-.2.3-.4.2-.5.2-.8.1h-.5l-.3-.2-.4-.3-.5-.5-.6-.8-.4-.7-.3-.3-.2-.4-.8-1h-.2l.3.3-1-.3h-.6l-.1-.3h-.2l.2.2h-.6l-.1-.2-.2-.1h-.5l-.2.2v2.1l-.3 1.3v.5l-.1.4-.3.6.4.6v.5l.4.8v.4l.2.5v.3l.1.4v.3l-.2.1h-.6l-.6-.1-.3-.3-.6-.2-.6-.6-.4-.2-.4-.4-.2-.2-.1-.2-.2-.2h-1.1l-.2-.2-.2-.1h-1l-.2.2-.3.3v1h.2v.3h.2l.1.9v.6l.4.8.8.8.3.1.3.1.4.2h.2l.1.5v.5l-1 .6-.9.5-.6.6-.2.2-.8.4-.2.1h-.2l-.2.2v.6l-.4.4-.3.5zm1.1-1.6v-.1l.3-.1.4-.4h.4l.2-.2-.2.4-.3.2-.3.1-.2.2-.3.2zm1.2-8.2v-.4l.3-.3h.4v.3l-.4.4-.1.2h-.1zm5 2.1h.7l1.2.4v.1l-.2.2h-.9l-.1-.2h-.1l-.3-.2-.1-.1zm2.1-8.5v-.4h.6v.2l.2.2h.4v-.2h.3v-.1h.5v.3h-.8l-.1.4-.9.5-.1.2h-.2l-.1-.3v-.8zm7.2-906.3v-1l.5-.7v-1.3l.1-.1v-1.3h.1l.1-.3.3-1.1.1.3.2.4v.2l.1.2v.2l.3.6.2.8v.3l.2 1.9v1.8l-.2.3v.1l-.1.3-.9.7h-.3l-.2-.6-.1-.4-.1-.8zm3.1 13.2l.1.1.5.2h.1l.3.1h.3l.3.1h1.3l.8.2h1.2v-.2h.2l.1.1h.1v.2l-.1.1h-.1l-.2.2-.4.2-1 .4-.5.1h-.8l-.3-.1-.5-.2-.4-.4-.3-.2-.3-.2-.3-.5zm4.6 887.5v-.1h.3v-.2l.7-.3.6-.3.8-.4-.5.6-.3.6-.3.1v.2h-1v-.1zm2.1-2.1v-.3h.2v-.4l.2-.3v-.1 1.2h-.2zm.7-.9v-.3h.2v-.1h.2v.7h-.4v-.1zm5-14.4v-.5l.2-.1v-.4l.2-.3.1-.2v.9l-.2.3v.3h-.2zm.1-882.3l.4-.5.5-.3.3-.2.4-.1 1.4-.6.3-.2.6-.2.8-.1 1.7-.5 1.6-.1h.6l.5.3v.1l-.5.6-.6.8-.5.5-.5.1-1.2-.3-1.4.1-.5.4-1 .3-1 .2h-.2l-.7-.5h-.4zm.2 880.5v-.2h.2v.2h-.3zm16.9-256.6h.5v.2l.3.2v.5h-.5v-.2h-.3V50l-.1-.2zm2 258.2v-.7l.3-.6.7-1 .6-.9.2-.2.3-.1h.6l.3.3.3.1h-.6l-.4.1-.3.2-.6.6-.1.6-.3.5-1 1.8zm4.9-1.7v-.1h.7v.2h.3l.1.1h.4v.2h-.1l-.2.2h-.2v.1h-.6v-.3l-.2-.2-.2-.1zm1.1-.2h.3v-.2h.4v-.3l.1-.1v-.1h.8-.3l-.2.2-.1.3-.2.1-.1.2h-.6zm1.8-238v-.8l.1-.2v-.6l.1-.3h.3v2.9l-.3-.2-.1-.3-.2-.4zm0 3.5v-.1l.2-.4v.5h.2v.3h-.4l-.1-.2zm.5-1.3V70h.2v.4h.1v.2l.2.1.2.3v.2l.1.2v.4l-.3.1h-.2l-.1-.3v-.1h-.2v-.6zm1.4 11.4v-.1h.1l.3.4.5.7v.6l-.3.2h-.3v-.6l-.2-.3zm0-5.7v-.4h.2v-.3l.2.2v.2l.1.1.1.1v.4l-.3.1h-.2v-.5zm.2.7v-.2h.3v-.1h.1V76h.2v.5h-.2v.1l-.3.1v.2h-.1v-.2h-.1zm0 10.5v-.2l.2-.1v-1l.2-.2.3-.5.1-.2V84l-.4-.2-.3-.5h.1l.3.2h.1l.2.1.4.2v.2l.2.2.1.1.2.2h.3v.2l.3.1v.2l.1.1v.1l-.3.3v.2l-.2.3v.2l-.2.3-.1.5-.2.4-.4.6h-.2l-.4-.2-.1-.3-.2-.3zm.9-4v-.3h.4l.3.3.2.3.2.2v.1l.2.2v.2l-.2.1h-.6V84l-.2-.5-.2-.2-.2-.3zm.5 9.3h.2l.3.1v.2l-.5-.1zm.3 204.8v-.1h.2l.1-.2h.8-.1l-.3.2h-.2l-.3.3h-.2v-.3zm.3-209.5l.1-.4.3-.5.4-1v.3l.3.2v.9l-.3.3-.1.2-.3.1h-.3zm2 209.4v-.4h.3v-.1h.2l.9-.5v.2l-.3.1v.3h-.1v.4l-.5.1-.1.1h-.5v-.2zm.8-201.7v-1.9h.2l.2.4.2.2h.2l.1.4V96h-.3l-.3-.3h-.1l-.2-.3zm3-480.3v-.4l.2-1.1.1-.2.3-.3h.1l.8-.2h.1v.9l-.3.4-.4.4-.4.2-.2.2h-.3zm2.1 19.3v-.1l.3-.5.2-.2h.3l.2-.2-.1.4-.2.2zm.5 471.4v-.2h.2v.5h-.2zm.4 3.7v-.4l.3-.3.3-.3v-.2.3l.2.3v1l-.2.1h-.2l-.2-.1zm.2-3l.1.3h.1v.5-.2l-.2-.1v-.3zm.4 3.6h.1v-1l.3.3.1.2.3.5-.3.2h-.5zm.2.3l.1-.1h.3l.1-.2h.4v.3l.3.1v.2h-.7zm.1-4.1v-.2l.2.2.2.1.3.1v.2h.2v.4h-.6v-.4h-.2l-.1-.2zm.4 7.8v-.2h.2l.3-.2v-.1h.2v-.3h.2l.2.1.3.1.2.3h-.7l-.2.1h-.4l-.1.2h-.1zm.5-481.7h.1l.7-.9.7-.9 1.2-.6h.2l.3-.4h.6l.5-.2h.5v.7h-.2v.3h-.2v.2l-.1.1-.4.4-1.3.3h-.3l-.5.5-.7.2-1 .4zm.2 480v-.3l.3-.2v.2-.2l.3-.4v-.1h.3l.1.4.2.4.2.6v.3l-.3.3h-.3l-.2-.3h-.4l-.1-.3zm.7-613.5l.3.2h.2l.6.3.4.3.1.1.4.3.2.3.2.1.2.2.3.4v1.4h-.5l-.1-.2-.6-.6-.4-.5-.8-.4-.3-.5-.2-.7zm1.6 615.2l.5.4.4.3.4.4h1.1l.3.1v.3h.2v.1h-.3l-.3.1h-.5l-.6-.3-.8-.6-.3-.4zm7 5.2v-.2h.3v.4h.1v.4h-.3v-.4zm1.5 179.1v-.2l.8-.8v.4l-.2.3-.2.4-.2.2h-.2v-.2zm2-173.3h.3l.6-.2h.5l.3.4v1.2l-.2.3-.3-.3zm5.6-496.8h1l.2.2v.3h-.6l-.1-.3h-.3v-.1zm2.8 506.6h.4l.3.2.2.2.2.3v.3h-.2l-.2-.2-.1-.1v-.1h-.2l-.2-.4zm.4-505h2l.2.2.2.1h.2v.4h-.1l-.4.2h-.7l-.4-.3h-.4l-.1-.2-.4-.2h-.1zm2.7.8l.3-.4.3-.1h.3v.4h-.2l-.2.1-.2.1h-.3zm2.1 650.5v-.1l.2.1v.2l.2.3v.6l.2.2.1.2h.3l.2.1.2.1.2.2h-.9l-.3-.3-.2-.3v-1.1l-.2-.3zm0-142.1l.4-.6.1-.5.3-.3h.3v1h-.3v.1h-.6zm.2-508.4h1.9l.2.2-.1.2-.4.2h-.8l-.8-.3v-.2zm0 507v-.5h.2v.4zm.3 144.1l.2-.1h.2l.1.3.2.1h.6l.1-.2h.3v.4h.2v.5h.2v.2h-.6l-.2-.2-.1-.2-.2-.1h-.3v-.2h-.2l-.2-.1-.2-.1-.1-.2zm.3-144.4l.1-.1.3-.2.3-.1h.1l.3-.2h.3v-.1h.4v.3l-.3.1h-.1v.1h-.2l-.1.3h-.4v-.3h-.1v-.1h-.2l-.1.3h-.1v.1h-.2zm.1 155v-.1l.3-.4h1-.1l-.3.2h-.1l-.2.2-.3.1-.1.1h-.1zm.3-10.5h.4v.2h-.4zm-.1-4.3l.1-.3v-.2h.3v-.2l.2-.1.3-.2h.2v.3l.3.2h.7-.1v.2h-.5l-.3.3h-.8l-.2.1h-.1zm.5 5.8l.2-.1h.6l.1.2v.1h-1.1zm.3 7.7h.2l.1-.3h1.8l-.2.3h-.3l-.3.2h-.3l-.3.3h-.2v-.3h-.4l-.1-.1v-.1h-.1zm.3-108.7v-.2h.2v-.1h.8l-.3.2-.1.1h-.4zm.1 81.9l.1-.2h.6l.2.1h.1l.2.1v.6h-.2l-.2-.4h-.5l-.3-.3zm.1 20v-.7h.2l.3.5.3.3v.5l.3.2.1.2v.2h.1v.1h.1v.3l-.3.1h-.3l-.2-.4-.2-.2-.2-.2v-.2l-.2-.4v-.4zm1-7.2l.2-.2v-.1h.1v-.2h.2v.4l-.3.1zm.3-113v-.2h.2v-.2l.2-.1h.4l.4-.3h.2l-.1.4-.2.3v.1h-.2l-.1.2h-.8zm-.1-27.6l.4-.2h.2l-.2.5h-.2l-.2-.2zm.3.3h.3v-.4h.4l.2.3v.2l-.3.2h-.5zm.3 148.6l.3.2v.1l.3.4.1.1v.2h-.3v-.3l-.1-.1-.3-.2v-.3zm.2-147.6l.2-.1.3.2.3.1h.7v.4h-.6l-.2-.3h-.3v-.1h-.2v-.2h-.1zm.2-304.1v-.6h.1v-1l.2-.4.2.5.1.6v1h-.6zm1 329.2v-.6l.3-.2h.1v1h-.5v-.2zm-.1 29.7v-.1l.4-.2.1-.2v-.2l.2-.2.1-.2h.1l.1-.2h.2v.5l-.3.3-.1.2h-.1l-.1.3h-.1v.1h-.4zm1.2-44.3v-.2l.1-.3.2-.2v-.1h.1l.1.2v.5l-.5.1h-.2zm0 43v-.2l.1-.2v-.3h.1v.6h-.1zm.9 35.6h.2l.1-.2h.3l.1-.1-.1.3-.3.2h-.3zm1.1-436.8v-.3l.5-1 .3.3.2.4.1.4v.5l-.1.3-.2.4-.3.1-.2-.2-.2-.5zm0 480.3l.2-.1v-.1l.3-.2.2-.2v.5l-.4.2h-.2zm6.7-633.2l.7.2.3.3v.6l-.2.5h-.5l-.2-.3v-.3zm.1 1.6l.2.2v.1h.1-.2l-.2-.3zm.3.6v-.2l.2-.1v-.2h.2v1h-.3v-.2l-.2-.1v-.2zm5.6 278.5v-.2l.3-.4v-.5h.1v.3l.2.3v.3l-.2.4h-.4zm4.4-263.5v.1l.4.4.2.5v.4h-.2l-.2-.1v-.3l-.3-.5zm.3 6.1l.1-.2.2-.5.1-.2.2-.2.3-.3.2-.4v-.2l.6 1 .5 2.2-.3.3-.4.1h-.3l-.1-.1-.4-.2-.2-.1-.2-.3-.2-.2v-.4zm.1 0"/><path d="M109.9 75.3l1.2-.5h.2l.3.2.1.2.7.8h.2l.2.3h.1l.3.2h1v-.3h.3l.1-.2h.1l.1-.2h.2v-.6h.3v-.3l.3-.6v-.2l.2-.3v-.4h.2v-.2h1l.1-.2h.4v.2h.7l.2.1h1.3V73h.2v-.1l.1-.2.4-.2.4-.4.2-.3h.1l.2-.1.6-.5V71l.2-.3v-.5h.3V70h.4l.2-.1h.1l.1-.3h.1l.3-.6v-.3l.1-.1v-.2l.1-.4h.9l.3-.2.1-.1.3-.2h.8l.1.2h.9v-.4l.1-.1v-.1l.2-.1h.7l.2-.3h.1l.1-.1.2-.3.1-.2.3-.1.1-.3h.2l.2-.3h.5l.3-.2V65l.2-.1.1-.1.3-.2.2-.1.4-.5.5-.3.2-.2.2-.1.2-.2.2-.2v-.3l-.1-.1-.1-.3v-.2l.5-.1h.4l.1-.1h.2v-.4l.3-.2h.8l.2-.1V61h.2v-.5l-.2-.2v-.5h.1l.1-.2h.2l.2-.2h.2l.3-.4h.4l.4-.2h.3l.1-.2h.2v-.3l.2-.2v-.9h.3l.1-.4V56l.3-.2v-.2l.1-.1.4-.2.3-.2h.3l.1.2h.1l.2-.3h1.6l.1.2h.1v.1h.1l.2.1.7.3h.7v.3h.4l.2-.2h.1l.2-.2h.4v.2h.4l.3.2h.3l.1-.3.4-.3.2-.2.3-.2.2-.2.1-.1.4-.1h1.6l.4-.2h.2l.2-.1h.6l.3.2h.4l.7.1h1.5l.6-.4h.4l.2-.2h.3l.3-.2.6-.3h.4v.1h.1v.2h1.4l.3-.1.4-.3.3-.2 1.1-.9h.2l.2-.2h.6v.3l.4.1.1.1.3.2h.4l.2.2h.6l.3-.1v-.2l.3-.2.4-.5h.3l.1-.3h.7l.3.2v.1h.4l.2.2.4.2.2.1.2.3.1.2.3.3.3.2h.5l.2.2h.3l.1.1h.7l.3.1h.2l.2.1h.2l.3.3.3.1.2.2.2.1.2.1h.9l.1-.3.5-.3.1-.1h.5l.2-.1.3-.1.2-.1.3-.1h.3l.2-.3h.3l.5-.4.1-.2.4-.4.1-.1.3-.5.3-.1.3-.1h.3l.3.1.2.3h.2l.2.5.2.2.2.3.3.2.3.2.2.1.2.1.2.1.2.1h.9l.2-.1h.1l.2-.3h.9l.2.2.5.4.2.3.3.3.2.2h.3l.2.2h.5l.3-.3.3-.1h.9l.5.1v.3h.6v-.3l.2-.1.3-.2h.5l.1.3h.3v.3h.2l1 .4.3-.4h.1l.2-.6.2-.4v-1l.2-.3.1-.2.4-.2.3-.3h.7l.5-.3.4-.1h.5l.4-.3h.2l.4-.3.2-.2.3-.2.6-.8.4-.3.4-.2.4-.1h.1l.5.3h.1l.4.5.3.2.2.2.2.3.2.2.2.1h.8l.2-.2.1-.1v-.1l.3-.3v-.8l-.3-.3v-.3l.3-.1h1l.2.2h.8l.2.3h.1l.1.2.4.6.4.5.2.3.1.1h.1l.2.3h.7l.3.3.5.2.4.1h4.5v-.3h-2.6l-.2.2h-1.5l-.5-.2-.3-.2-.6-.3-.7-.1-.2-.2-.2-.3-.4-.3-.3-.7-.2-.1v-.2l-.1-.2h-.4l-.5-.2h-.5l-.3-.2h-.7v-.2h-.2l-.1.2v.1l-.3.3v.7l-.1.3v.2l-.1.3h-.2l-.1.2h-.4l-.1-.1-.4-.4V50l-.3-.5-.3-.3-.2-.2H197l-.4.4-.6.2-.1.2-.3.4-.3.3-.3.3-.2.2-.2.2h-.3l-.5.2h-1.5l-.3.1-.5.1-.3.2-.2.3-.2.5v1.6l-.3.3h-.6v.2l-.3.2h-.2l-.4-.3-.2-.1-.2-.1-.2-.1-.2-.1h-.5l-.1.1-.4.3h-.6l-.2-.3h-.9l-.5.4-.3.1h-.3l-.4-.2-.1-.1-.1-.1-.4-.5-.5-.4-.2-.2-.2-.1-.3-.2h-.6l-.3.3-.1.1H180l-.2-.2h-.2l-.1-.2h-.2l-.3-.3-.3-.4-.3-.3-.2-.3-.3-.2h-.3l-.3-.2h-.2l-.4.3-.2.2-.3.2-.1.4-.4.4-.6.5h-.3l-.3.1-.5.1-.7.3-.6.2-.4.3h-.2l-.1.3h-.3l-.1-.3h-.2l-.2-.1h-.2l-.3-.2h-.2l-.6-.4h-.3l-.2-.4h-.1l-.3-.2h-1l-.3-.1-.1-.2h-.2l-.3-.3-.4-.1-.3-.2-.4-.1v-.2l-.5-.3-.2-.1h-.6l-.2.3-.5.1h-.1l-.2.2-.2.2-.1.2-.4.1h-1.3l-.2-.2h-.2l-.2-.1-.5-.2h-.4l-.8.6-.7.6-.2.1-.3.2-.3.2h-1.1l-.3-.3-.1-.1h-.6l-.4.2-.7.1h-.1l-.2.3h-.1v.1h-.2l-.3.2-.8.3h-1l-.3-.3-1-.1h-1.1v.1h-.8v.2h-.4v-.3h-.3V54h-.6l-.8.5h-.1l-.1.2h-.1v.3l-.4.3v.2h-1.8l-.5-.2h-.7l-.3-.2h-.1l-.3-.3-.4-.1h-.9v.2h-.3v.1h-.3l-.3-.4h-.5l-.1.3-.1.1-.2.1-.2.2h-.4v.2h-.2v.1l-.1.3-.1.3v.8h-.2v.2l-.2.1v.3l-.3.3v.7l-.1.1h-.4v.2h-.3l-.2-.3h-.2l-.2.4-.1.2h-.2l-.2.5h-.3l-.1.2V61h-.2v.3h-1l-.1.2h-.2v.3h-.1v.2h-.9l-.1.1v.9l-.1.3-.2.1-.6.6h-.2l-.2.3-.1.1-.3.2h-.6v.3h-.1l-.1.1h-.1v.2h-.3v.2l-.3.2h-.1l-.3.3-.4.3v.2l-.3.3v.1h-.5l-.4.2h-.6v.2h-.3l-.1.1h-1l-.2.1-.1.2h-.1l-.4.2h-.6l-.1.2h-.2l-.2.5h-.2v.4l-.1.1-.2.1v.5h-.3l-.1.1v.1l-.1.1-.2.1-.3.1v.2l-.2.2h-.2v.4h-.1v.1h-.1v.5h-.1v.1h-.3v.1h-.1l-.2.1v.2l-.1.1-.1.2-.3.1-.2.2-.3.2h-.2l-.5.2h-.9l-.4-.3h-.5l-.2.3h-.1v.2h-.4l-.1-.2h-.1l-.3-.2-.2.3v.1l-.3.2v.2h-.2v1.1l-.2.1-.1.2v.4h-.3l-.1.2h-.2l-.4.4h-.1l-.6.2h-.7l-.1-.2-.2-.2-.3-.4-.2-.2-.1-.2-.2-.2h-.1v-.2h-.6v.3h-.2v.1h-.4l-.2.3h-.1v.1zm4.8.4v-.2h.3v.2h-.3v.1h-.1zm.7-1.9v-.2h.2v.3h-.3zm0 .2v-.2h.2v-.1.3zm.2-.4v-.2.4zm0-.1h.2zm2.1-.5h.3l.1.1h-.4zm3.8-2h.1l.1-.2v-.3h.1v-.1h.1v.6l-.3.1v.1h-.2zm.5-.5v-.2.3zm.7-.7v-.2h.3v-.4l.1-.2h.3l.1.1v.3h-.3v.1l-.2.1-.1.2h-.3zm3.2-2.3h.4-.3zm.6 0v-.2h.3l.1-.1h.1v-.1h.2v.2h-.2v.2h-.3v.1h-.2zm.5-.1v-.1zm0-.4h.3zm3-2h.6-.3v.2h-.2v.1h-.1zm.4-.2h.2l.1-.3h.2v.3zm5.8-5.8l.1-.2h.1l.1-.1h.2v.3zm3.8-4h.2-.4zm.2 0h.2-.3zm1.8 0v-.2h.3v.3h-.1zm4 .3l.4-.2V55v.4h-.4zm.6-.3l.1-.3v.3h-.3zm1-.7l.3-.3h.1v.2l.2.1zm1 .3h.4zm.6-.2h.3-.4zm13-1.6h.7l.1.2h-.2l-.1-.2zm3.3-1.2h.1v.2l.2.2h-.3v-.2h-.1v-.2zm1.5 1h.4v.3h.3v.1h.1v.2h.1l.1.1h-.6l-.4-.6zm1.1.8h.8v.1h-.8v-.3zm.7-.1v-.2h.3l.2.2v.1l.2.1h-.5v-.3h-.2zm2.2.9h.3l.1.3h-.4zm9.3-.8h.5v.1h-.1l-.2.2h-.2zm1.4-.3l.3-.1h.2l.1.1zm.6 0h.2v.2h.1-.3zm7.5 1.9v-.2l.2-.1v-.2h.4v.5l-.1.1h-.1l-.2.2-.3-.3zm1.5-2.7V52l.3-.2h.8l-.2.2-.3.1-.3.2zm6.5-3v-.2h.2l.2.3.1.1h-.5l-.1-.3zm2.6 1.2v-.1l.1-.4v-.3l.2-.3v-.2.1l.3.4v.3h-.4v.3l-.1.2zM74.6 190.7v.3l.7 1v.1l.2.3v.1l.2.2v.1h.3v.2h.3v.2h-.4l-.2.1-.2.2v1.1l.3-.2v-.2l.2-.2.2-.2h.2l.1.1h.2l.3-.1.2-.1.6-.3h.1l.1-.3.1-.1-.1-1-.2-.2-.1-.1v-.7l.2-1.3v-.4h-.2v-.3l-.2-.1v-.1h-.4l-.3.2h-.1l-.3.2v.1h-.7l-.2-.2-.1-.1H75v1l-.2.2zm-63.1-66.9l.3.2.2.2v.5h-.5v.3h.2l.1.3h.2v.3h.6l.1-.2v-.1l.1-.2v-.2l.2-.2v-.3l-.2-.2v-.2l.2-.2v-.4h.1l.1-.1h.4v.2h.5l.2-.2.1-.3v-.1h.1v-.2l.2-.2.2-.2.4-.2h.1v-.3l.1-.3v-.5l-.3-.2-.2-.5v-.8l.4-.2v-.3h.1v-.7l.2-.1.2-.2h.3v-.4h.1v-.1h.2v-.4l-.3.2h-.1v-.7l.2-.2v-.1H16v.3l-.2.3v.4l-.2.2v.1H15l-.2.3-.2.1v.2l-.3.1v.2l-.3.5v.2l-.1.3v.5l.1.2v.1l-.1.2h-.1v.4h-.2v.1h-.2l-.1.7v.2h.2v.7h-.2v.1h-.1v.1H13v.1h-.4v.1l-.1.2h-.1l-.2.3h-.4l-.1.1h-.1v.2zM81 227.5v.4h.2v.1h.3v.2h.1l.4.2.4.2h.9v-.2h.2l.1-.1v-.1h.1l.1-.2.3-2.2.1-.2.1-.3v-.3l-.1-.2H84v-.2h-.4l-.1-.2H83v.2l-.1.1-.1.3h-.2l-.1.2-.2.1-.4.4-.2.2-.2.2v.1l-.2.1-.4 1.1zm-65.2-88.8v.5h.2l.2.2.3-.2v.5l.3.3h.1v-.2h.3v.4l-.2.1h-.2v.3l.2.2h.3l.1.1h1.1l.2-.3h.3v-.2h.4v-.6l-.2-.1v-.4h-.1v-.3h-.3l-.1.2h-.1v-.4h.1l.3-.4v-.4h-1l-.3.2-.3.2v-.9h-.2l-.1-.1v-.2l-.1-.2-.1-.1h-.3v.1l-.2.1v.4h-.1v.1l-.1-.2-.2.3.1.2h.1l.1.1v.2l-.3-.2-.2.1v.6h-.1zM30 150.6v.1l.2.3h.4v-.3h.1l.1-.1h.1v.1l.1.2v.3h-.3l-.1.2v1.2h.1v.4l.3.3v.7l.3.1v.1l.2.2h.1v-.4h-.2v-.1l-.2-.3v-.5l.3-.1h.2v-1l-.3-.2-.2-.1v-.2h-.1v-.8h.9v-.2l.1-.1.2-.4.3-.9.2-.3.2-.1.2-.3v-.1l-.2-.2v-.1h-.2l-.1-.1-.1-.3H32v-.2h.2v-.2h.2v-.1h-.6v.7h-.2l-.1.2-.1.2H31l-.1.4v.2h.2v.2h.2v.2l-.3.1h-.2v.4h-.5v.1h-.2v.4l-.1.1v.2zm33.4-92.1h.1l.1.2.1.3.1.3h.2v.7l.4.2V60h.5-.2l.3-.2.2-.2v-.2h.5v.2h.2l.1-.2.2-.2.2.2h1.2l.4-.1h.2v.4h.3l.4-.3v-.2h.3v-.7H69l-.1-.5h-.1l-.2.1H68l-.4-.1h-.4l-.7.2-1-.2-.2.2h-1.8zM7.8 197v.4l.2.1.2.5v.8l.2.1v.3l.2.3h.2l.5-.5.6-.4.1-.2.3-.2v-.5l-.2-.4v-.3h-.6v-.2l-.2-.2v-.2l.7-.4-.3-.2v-.3l-.3-.2h-.1l-.2-.1h-.5l-.1.1-.1.3v.3l-.4.4-.2.6zm.9 0v-.7l.1-.1.1-.1H9l.2-.1h.2v.4h-.3l-.1.2v.3h-.2v.1zm0-.1"/><path d="M7.9 197.3v.2l.2.3.2.4v.3l-.2.2.2.1v.4h.2l.1.1h.3l.4-.3.2-.1.2-.3.3-.1.2-.3.1-.2v-.7l-.3-.4h-.2l-.4-.1v-.6h.4l.2-.2v-.1l-.3-.2v-.2h-.2l-.3-.4h-.5l-.1.2v.1l-.2.6h-.3v.5l-.1.1-.1.4zm.8-.5v-.5l.3-.3h.4v.4h-.3l-.1.2v.1h-.2v.3h-.1zm256.6-60.6l.5-.2.9.3v-.3l.1-.1.6-.4 1.4-.5h.5l.6-.2h1.1l.2.3v.2l.1.1.2.2h.1l.2.2.4.2.6.4h.6l.6.3h1.2l.2-.2.2-.2.3-.6-.4-.1-.1.2-.2.2-.2.1-.2.2h-.8l-.4-.3h-.2.1v-.2h-.2v.2h-.3l-.1-.3-.4-.2v-.1l-.3-.4-.2-.2v-.3l-.4-.4h-1.7l-.5.2h-.4zm5.9-1.4h.2l.2.2.1.2v.3h-.3v-.2l-.1-.3h-.1zm.6.7v-.3h.2l.2.3v.2h-.2l-.2-.1zm.5.5h.2v-.5l.1.5h-.2zm.7 0h.2zM114.9 99.1v.3h.1v.2h.2v.2l.2.1h.3l.3-.3.2-.1.1-.1.3-.1.1-.3v-.1h.4l.4-.5.3-.2.5-.2.6-.6v-.1h.4v-.2l.3-.1v-1 .3h.1v-.5h.3v-.2h-.3l-.2.3v.1h-.3l-.2.2v.1l-.2.2-.2.1-.2.1h-.4v.3h-.5v.4h-.1v.1h-.4l-.3.2v.2h-.3l-.2.1v.4h-.4v.2l-.3.2h-.2l-.1.2h-.4zM13.2 128.4v.3l.2.2.2.1v.4l-.2.1-.2.1v.6h.2l.2.4h.4l.1-.4v-.4l-.1-.2-.1-.2V128h.1v.6h.2v.1h.2l.1.1h.5l.1.2.2.2.2.2h.1l.1-.4h.3v-.3l.2-.1v-.9H16l-.1-.2h-.6l-.3-.3v-.2h-.7l-.1-.2h-.4v.5l-.1.3-.2.2v.2h.3-.3v.2h-.3v.1zm0 0"/><path d="M275.5 135.6l.5.1.2-.5.2-.4.1-.6.5-.8.3-.7.5-.9.4-.4.3-.4.5-.3.4-.3.9-.3.4-.2.6-.2h1.1l.4.1.4.2.1.2.4.4.4-.2-.2-.3-.2-.2-.7-.3-.2-.2h-1.6l-.7.1-.4.2-1.1.4v.2l-.9.5-.1.3-.4.3-.2.3-.4.7v.2l-.3.2-.3.5v.3l-.2.2v.2l-.1.2-.1.2v.2l-.3.4-.1.4zM57.2 37v.1h.4v.3h.4v.9l.2.2v.8l-.2.2v.3h.4l.1.2.2.1v.1l.1.5.1.3.3.3h-.5v.2l.3.2v.3h.3l.1-.4v-1.3l-.2-.7-.5-1.4-.1-.2h-.3v-1H58v-.6h-.6v.5l-.3.1zm32.6 4.2l.1.1.2.1v.1l.1.1.1.2v.6l.3.1.1.1v.1l.2.3h.2v.2h.2l.4.4h.3l.2.1.6.3.4-.2h.3l.4-.5v-.2l-.4-.1-.4-.2h-.3l-.4-.2h-.7v-.3h-.3l-.1-.1V42H91v-.4h-.4l-.2-.2v-.2H90l-.2-.2zM345 230h.5l.3.5.5.4.5.5.4.3.4.3.4.3.2.2.1.2.1.2.1.3.1.2v.2l.1.3v.1l.3.2v.8l.2.3v.9l.2.5v.2l.2.3v.8l.2.2v.1l.1.3v.1h.1v.3h.3v-.4h-.2v-.4h-.1V237l-.3-.2-.1-.8v-.3l-.1-.4v-.3l-.2-.4-.1-.4-.1-.5-.2-.4-.2-.5-.2-.3-.2-.2-.1-.3-.6-.3-.2-.3-.4-.2-.2-.2-.4-.5-.3-.3-.3-.2-.2-.2h-.2l-.4-.1zm4.6 6.6v.4l-.2-.1zM189.9 72.5l.1.2v1l.2.4.1.1.3.2.3.1.3.1h.3l.3-.4.2-.1V74l.3-.4v-.2l.2-.4-.3-.1h-.2l-.3-.2-.3.3h-.5l-.2-.3-.1-.3h-.2l-.2.1h-.2zM35.7 60.1l.3.4v.2l.4.3.2.2v.1l.2.1v.1h.5l.1-.1V61h.4v-.9h.2v-.3l-.2-.5H37v-.2h-.4l-.1.3h-.2l-.3.2v.2h-.1v.2zM57.3 203l.1.2h.9l.2-.2v-.4l.3-.3v-.6h.1v-.5h-1.1v-.5h.2v.3h.2v-.3H58v-.2h-.2v-.4h-.2l-.2.2v1.8l.4.2v.2h-.3l-.1.3zM161 5.3v.2l.4.1h.1l.1.1V6h.3v.2l.1.1v.2l.1.2.2.3.2.2.1.1.2.2.2.1V8h.2v.2h.6v.1h.2v.2l.3.1h.3v-.2l.1-.2-.1-.2h-.2v-.4h-.1l-.2-.1-.1-.2h-.2l-.3-.1h-.2l-.1-.2v-.1h-.1l-.1-.1-.3-.2h-.2v-.2h-.2v-.1h-.1V6h-.4v-.3h-.3v-.3l-.3-.1V5h-.2zM70 175.4v.1l.3.2h.2v.3l.1.2v.1h.2l.2.4h.2v-.4h.2l.2-.3.1-.4v-.7h-.2v-.2l-.4-.1v-.1h-.2l-.1.2h-.1l-.2.2-.3.1-.2.3zM451.9 118v.2h.1l.4.3h.1l.3-.2.2-.3.1-.1h.1l.4-.4.4-.3h1.5l.3-.2h.5l.1-.1-.2-.1h-.2l-.4-.2h-.6l-.1-.1h-.3l-.2.4h-.2l-.4.1h-.1l-.6.3h-.1l-.2.1-.3.2h-.3v.2l-.2.2zM48.5 21.5l.4.4.3.1h.3v.2h.1v-.4l.3-.2.3-.3v-.1l.3-.2v-.2l-.2-.2-.1-.1-.4-.3-.2-.2h-.2v.5H49v.2l-.5.7zM96.7 5v.4H98v.2h.5v-.3h.5V5h.7l.2-.3v-.3h-.6l-.1-.1h-.9v.2h-.6l-.2.3h-.4V5zm.7 0h.2v.2h-.2zm70.5 9.6h.1l.2.2.3.2h.2v.1l.1.2.2.3.2.1.3.2.1.1h.1v.3h.3v.3h.2v.1l.2.1v.2h.1v-.6h.1v-.2h-.2v-.1l-.2-.1v-.2l-.1-.1-.1-.2-.1-.1v-.1h-.3l-.2-.2V15h-.2l-.2-.1-.1-.2-.1-.3h-.1v-.1h-.2l-.1-.2h-.4l-.2.2v.2zm-.6-6.2l.2.3h.1l.1-.3.2-.2h.3V8h.1l.1-.1h.6v-.2h.4v-.2h.2l.2-.1.1-.1h.6v-.2h.5V7h.3v-.2h.1v-.4h-.6v.4h-.2l-.3.2h-1.1l-.2.2-.2.1-.3.1v.2l-.2.1v.2h-.2V8h-.5l-.1.2h-.1v.2zM79.4 24h.3v.3h.1v.2h.4l.1.1v.2h.3v.1h.2v.3h-.2v.2l-.1.2v.3l-.1.1v.3h.6v.2-1.1l.3-.3v-.2l-.3-.1h-.3V24h-.3l-.1-.3h-.8zM57 206.6v.4l.4.3.1.2h.3l.2-.2v-.2l.1-.2.2-.3v-.6l-.3-.1h-.8l-.2.5zm-34.6-57.8v.2h.5v.2h.1l.2.1h.2l.1-.3h.1v-.3h.4v-.2h.4v-.3H24v-.1h-.3v-.1h-.3l-.2-.2H23v-.5h-.4v.4h-.1v.3l.7.3-.2.1h-.2v.3h-.4v.2zm50.1 23.9v.6h.5v.3h.2v-2.5l-.2-.1v.2l-.2.1v.1h-.1l-.1.4-.1.5zM89.3 23.1l.4.1h.1l.2-.2v-.3h.8l.2.2.1.1.1.2h.1l.3-.2v-.6h-.4v-.2H91V22h-1l-.2.3h-.1v.4l-.1.1v.2h-.2zM6.4 63.8h.2v.2h.1v.2H7v.1-.3h.3v-.4l.2-.1v.3l.1.2h.3v.2H8v-.9h-.3v-.2l-.1-.1v-.2h-.3v.4H7v-.4h-.2v-.1H7v-.1h-.2v.3h-.1v.1h-.1v.2l-.1.1-.1.1v.1l-.1.1v.2zm152.4-48.4v.2l.2.1h.2v-.3l.3-.2v-.4l.2-.1v-.3h.1l.2-.2v-.1h.2v-.5h.3v-.3h-.3v.3h-.8l-.2.2v.1l-.2.1v.2h.2v.7l-.4.1-.1.3zM56.6 35.6v.4l.3.1.1-.1v-.3l.2-.5.2-.3.2-.4.3-.2v-.1h.1V34h.6v-.6h-.2l-.2.3v.2l-.2.1h-.3v.2h-.5v.3l-.2.1v.2l-.2.2-.1.2-.1.3zm-42.2 98.3h.5v.1h.1v.1h.7l.2.3v.1l.1.2v.3l.1.1h.3v-.2l-.4-.4-.2-.5-.1-.2h-.2l-.3-.2v-.1l-.2-.3v-.6h-.5v.7l-.1.1v.4zM3.7 51.1v.2h.7v.3H5l.2-.2v-.1h.6-.3V51l-.2-.1v-.1h-.6l-.1-.2h-.3v-.1H4v.4h-.2l-.2.1zM63 186.7h.2v.2h.6l.1.1v.2h-.3v.3l-.1.1v.1l-.1.1v.2l-.2.1v.1l-.1.1v.4h.5l.1-.4v-.2h.2v-.3l.3-.2v-.2h.1v-.1H64v-.3h.3v-.4h-.8l-.1-.3-.3.4zM190 71.5v.3l.1-.1h.4l.3.2h.2v-.2l.5-.3v-.2l-.2-.2h-.3v-.3h-.4l-.2.3h-.3v.5zM46.3 19.4l.2.6h.7l.1-.5V19l.3-.1h-1l-.1.1zm-43.4 37v.4H3v.6l-.2.2v.2h.6l.2-.3.1-.1.1-.1H4v-.5h-.2v-.1h-.4l-.2-.1v-.2H3v-.1h-.2zm0 0"/></g></g><g fill="none" clip-path="url(#C)" mask="url(#B)" stroke-linejoin="bevel" stroke-width=".8"><use xlink:href="#E" class="B"/><use xlink:href="#E" class="C"/><use xlink:href="#F" class="B"/><use xlink:href="#F" class="C"/><use xlink:href="#G" class="B"/><use xlink:href="#G" class="C"/><use xlink:href="#H" class="B"/><use xlink:href="#H" class="C"/><use xlink:href="#I" class="B"/><use xlink:href="#I" class="C"/><use xlink:href="#J" class="B"/><use xlink:href="#J" class="C"/><use xlink:href="#K" class="B"/><use xlink:href="#K" class="C"/><use xlink:href="#L" class="B"/><use xlink:href="#L" class="C"/><use xlink:href="#M" class="B"/><use xlink:href="#M" class="C"/><use xlink:href="#N" class="B"/><use xlink:href="#N" class="C"/><use xlink:href="#O" class="B"/><use xlink:href="#O" class="C"/><use xlink:href="#P" class="B"/><use xlink:href="#P" class="C"/><use xlink:href="#Q" class="B"/><use xlink:href="#Q" class="C"/><use xlink:href="#R" class="B"/><use xlink:href="#R" class="C"/><use xlink:href="#S" class="B"/><use xlink:href="#S" class="C"/><use xlink:href="#T" class="B"/><use xlink:href="#T" class="C"/><use xlink:href="#U" class="B"/><use xlink:href="#U" class="C"/><use xlink:href="#V" class="B"/><use xlink:href="#V" class="C"/><use xlink:href="#W" class="B"/><use xlink:href="#W" class="C"/><use xlink:href="#X" class="B"/><use xlink:href="#X" class="C"/><use xlink:href="#Y" class="B"/><use xlink:href="#Y" class="C"/><use xlink:href="#Z" class="B"/><use xlink:href="#Z" class="C"/><use xlink:href="#a" class="B"/><use xlink:href="#a" class="C"/><use xlink:href="#b" class="B"/><use xlink:href="#b" class="C"/><use xlink:href="#c" class="B"/><use xlink:href="#c" class="C"/><use xlink:href="#d" class="B"/><use xlink:href="#d" class="C"/><use xlink:href="#e" class="B"/><use xlink:href="#e" class="C"/><use xlink:href="#f" class="B"/><use xlink:href="#f" class="C"/><use xlink:href="#g" class="B"/><use xlink:href="#g" class="C"/><use xlink:href="#h" class="B"/><use xlink:href="#h" class="C"/><use xlink:href="#i" class="B"/><use xlink:href="#i" class="C"/><use xlink:href="#j" class="B"/><use xlink:href="#j" class="C"/></g><defs ><path id="E" d="M137.5 158.8l.6-.8h.4l.4-.4.4-.5v-.2h-.8l-.7-.6-.7-.5-.3-.6-.4-1-.4-.2-.4-.2h-.1l-.3.2h-.3l-.4-.1-.3-.2h-.2l-.1.3-.3.5v.5l.2.3.2.2v.7l.2.3-.2.3h-.3l-.3.3h-.5l-.5-.1-.5-.2h-.6l-.3-.1-.6-.2h-.4l-.4-.3-.4-.6-.1-.1-.4-.3-.2-.2h-.5l-.5.1h-.5l-.5-.2-.6-.2-.4-.3-.4-.6-.3-.8v-.5l-.1-.1-.4.2-.3.2-.4.4-.4.3-.2.1h-.2l-.4-.3-.4-.6-.3-.2v-.2l-.2-.8v-.5l-.5-.4-.4-.2-.6-.4h-1.3l-.5.4-.5.1-.5.1H116l-.3.2-.3.2-.4.1-.3.1-.1.1-.4.5-.1.2-.3.1h-2.1l-.5.3h-.7l-.3-.4h-1.8l-.6-.4h-1.2l-.4-.1-.4-.3-.1-.2-.2-.6-.2-.4v-.5l.2-.3v-.4l-.3-.4-.1-.4-.3-.3-.6-.3-.4-.4v-.8l-.2-.2h-.3l-.4-.3-.3-.1v-2.2l.1-.2.2-.4.1-.3.2-.4.2-.4.2-.3v-.4l-.2-.1h-.4l-.3-.3h-.9l-.1-.1-.1-.1h-1.2l-.2.2-.4-.3-.5-.2H99l-.3-.3-.2-.2v-.3l-.2-.3h-.4l-.7-.1-.6-.2H96l-.8-.3-.6-.1v-.2l.1-.9.3-.5v-.7l-.3-.2-.1-.2-.2-.6h-.3l-.4-.4h-.6l-.5-.2h-.4l-.5-.3-.2-.1-.2-.6-.3-.6v-.6l.3-.5.1-.5.3-.4v-.7l-.2-.5-.1-.5v-.3l.4-.5.2-.5v-1.9l.4-.3v-.2l.1-.2.5-.3.2-.3v-.3l.2-.1.3-.4.2-.6.2-.5.2-.3.1-.2h.4"/><path id="F" d="M385.4 151.7v-.1l.2-.7v-.3l.1-.3.2-.3h.5l.2-.3.2-.2.2-.3.4-.2.5-.3v-1.3l.2-.3.2-.4.3-.3.3-.4v-.6l-.2-.4-.2-.3-.3-.3-.2-.2-.2-.2v-1l.2-.5.2-.5.3-.5.3-.4.1-.2.1-.7v-.7l-.3-.8-.2-.4-.5-.3v-.3l-.4-.7v-.7l.4-.3v-.4l.2-.4.2-.3.2-.2.4.1h2.1l.4.2.2.1.6-.1.3-.2.3-.4.4-.3.3-.2.4-.1h.3l.5-.3h.4l.5-.1.5-.2h.3l.4-.2h.1l.3-.2v.2l.3.5.1.3.4.3.5.4.2.3.4.2.1.6-.2.6-.5.8-.3 1v.2l.1.4.2.4.2.6.2.4.6.5.7.5.5.1.7.2.6.4.5.2.1.3.1.4.4.2.4.2h1.2l.4.3h.4l.6.5.3.2.5.7.4.2.4.3.2.2.4.3h1.2l.6.3h.4l.2.3.2 1.2.2 1.3.1.7.2.1.1.4.4.3.3.3h.8l.2.4.3.6.2.3.4.3.4.3h.1l.5-.4h.8l.2.2.4.3.4.7.6.5.5.2h.6l.3.4.1.4v1.7l.1.5.2.4v.2l.1.2h.5v-.2l.4-.2.5-.2h4.4l.1.5.1.7.2.4.2.6.1.4.3.2h.1l.6.2.3.1.4.3.3.3h.3l.7-.6h1l.4.1h1.8l.3.1.2.3.3.1h.8l.4.2.3.1.3.4.2.1.2.3h.3l.4.4h.3l.4.2h.2"/><path id="G" d="M436.8 162.6h.2l.4.2h.5l.3-.4h.6l.6.4.6.1v.1l.6.1h.6l.4-.1h.5l.2.2.4.2.4.3.2.3v.5h.8l.4.2h.5l.6.3.2-.2.2-.3.4-.5.4-.4.5-.2.4.1.3.1.6.4h.6l.5.3h.6l.3.1.2.2.5.1h.8l.5-.2.2-.1.3.2.4.1.3.1h2.5l.3-.3.3-.1.1-.2h1.4l.6.2.4-.2h1l.3.3h.4l.4-.1.3-.1h.7l.4-.3h.5l.6.4h.1l.4.6v1l.1.3.2.2h.7l.2-.1.2-.5h.2l.4-.4.4-.1.4-.2.3-.2.4.1v.3l.6.4.4.1h.6l.4-.1.2-.1.3-.1h.5l.3.1h.7l.4-.1.6-.1h1l.4.3.7.4.6.4.3.3.3.3v.2h.3l.1-.2.3-.4.4-.3.3-.2h.5l.4.3h.5l.7-.6h.2l.3-.5.4-.2h.9l.6-.3.3-.3.5-.2.2-.4.2-.4h1.2l.3.3h1.3l.5.5.5.3.5.3h.7l.4-.2h.2v-.4l.2-.1.1-.3v.3l.3.6v.4l.4.4.4.2.4.2.3.1h.3l.3-.3h1.1l.3.5.3.6.3.5.3.2h.4l.4.4.4.2.4.2.4.1.2.3h.5l.5.3.4.1.4.1h.5l.2.1.4.4h.6l.3.3.3.5.1.2.2.4.3.2.4.1.2.1v.6l-.1.5v.3l.5.3.4.2.3.3.2.4v.7l-.2.2h.5l.5.3.5.1.6.1.3.2h1.5l-.2.1-.3.3v.4l-.3.2v1.3l-.5.4-.1.3-.2.2"/><path id="H" d="M232.5 237.7v-.1l-.3-.8-.2-.8-.3-1-.2-.4v-.6l.1-.7.1-.3v-.2l-.7-.2v-.1l-.4-.3h-1l-.3.2-.3.4-.2.3-.7.1-.6.1-.5.1-.6.2-.4.1-.3.3-.2.1-.2.2-.3.2h-.2l-.1.2-.4.3v.5l-.3.3-.2.2-.2.4h-.3l-.3.4-.4.2-.3.2h-.3l-.4-.2-.4-.2-.5-.2h-.6l-.3-.1-.3-.1h-.4l-.7.2h-1.7l-.4.3-.5.1-.7.7-.2.1-.2-.2-.5-.6-.7-.2-.3-.2-.2-.2-.5-.4-.3-.4-.5-.6-.3-.1-.4-.2-.2-.2-.1-.3-.1-.4v-.3l-.3-.2-.2-.2-.1-.1-.1-.3.1-.3-.3-.4h-.8l-.2.4-.3.3-.1.3-.4.3-.5.1-.4.4-.1.2.1.5.3.3v.6l-.3.6-.3.4-.4.1-.5.1h-.5l-.2-.3-.2-.3-.5-.4-.4-.4-.4-.4-.8-.5-.2-.4-.2-.3h-.4l-.2.2-.2.1-.2.1-.2.2-.2.2-.5.3-.2.3-.4-.1-.2-.2-.5-.5h-.2l-.2.3-.1.5v.5l-.4.4-.1.3h-.4l-.3-.1-.5-.2-.3-.2h-.6l-1.1.1-.6.5-.7.3-.4.4-.1.3v.3l.2.4-.4.2-.3.3-.2.3-.5.5h-.5l-.3.2-.2.2-.2.8v.4l-.2.1-1.1.6h-.5l-.1.8-.2.4-.2.5v.2l-.5.1h-.3l-.3.4h-1.2l-.4.2-.3.2-.6-.1-.2-.3-.2.3-.8.4h-.7l-.8.1h-.8l-.4-.2-.3.1-.3.3-.7.8h-.4l-.8-.4h-.5l-.7-.1h-.9l-.4.4-.5.8-.2.3-.3.4v.3l-.5.5-.2.5-.1.4v.1l-.2.7.2.8v1.2h-.2l-.6.2-.4.1h-.4l-.3-.3-.2-.4-.4-.2"/><path id="I" d="M171.7 251.1h-.3l-.3.2h-.3l-.1-.3-.3-.2-.6-.8-.6.2-.6.1h-1v.7l-.1.4-.3.4-.3.4-.3.1h-.2l-.7.2h-.6v-.5l-.6-.1H163l-.5-.4-.5-.3h-1l-.6.3-.9.2h-.9l-.2.3h-.1v.5l-.1.5-.2.4-.1.4-.2.5-.1.3v.3l.1.3.3.8.4.2-.4.5v.5l-.2.5v.3l.2.4.4.8.1.3-.4.2-.7.1-.6.2-.8.3-.7.2h-1.5l-.6.3h-.4l-.2.2-.1.3-.2.2-.4.2-.4.1h-.6l-.5-.1h-.8l-.1-.5-.3-.2h-1.5l-.5-.3-.8-.3-.4-.1h-1v-.3l.3-.3v-1.3l.3-.6v-.2l.2-.3.2-.3.4-.5-.2-.5-.4-.7-.2-.4-.1-.4v-.3l.2-.1.2-.2-.4-.3h-.2l-.4-.2h-.3l-.3-.6h-.6l-.5-.3-.5-.2-.5-.4-.6-.3h-2.7l-.4-.2h-.8l-.5-.1-.2-.2-.5-.1h-1.6l-.6.1-.3.2h-.3l-.2.3v.4l.1.4.1.3v.9l-.5.6-.3.6-.2.5-.3.3-.5.3-.3.4-.2.4-.1.3-.1.2h-.9l-.3.4-.2.4-.2.2-.2.2-.3.3-.2.2-.2.1-.2.4-.5.3-.4.3-.2.2-.2.4-.2.6v.4l-.6.2-.4.2-.4.3-.4.6h-1l-.7.2-.4.1v-.4l.2-.2.2-.1.3-.2v-.3l-.4-.2v-.5l.3-.3h.1v-.3l-.1-.1-.2-.2-.2-.2h-.4l-.2-.2-.2-.3v-.5l.3-.2v-.7l-.2-.3h-.2v-.6h.5l.2.4h.8v-.5h-.3v-.7l-.3-.3h-.1l-.2-.3h-.1v-.3"/><path id="J" d="M123 255.8v-.3h.3v-.5l-.3-.4h-1.4l-.4-.2-.4-.2-.1-.2v-.6l.1-.4v-1.2l-.2-.2-.3-.2h-.7l-.1-.2v-.4l.4-.2v-.2l-.3-.2.1-.2h.3l.2.3h.2l.3-.3h.1v-.5h.4v-.3l-.2-.2v-.2h.3l.1.2.2-.1v-.4l-.4-.1.2-.2h.1l.2-.2h.4l.2.2h.1v-.2h-.1v-.2l.2-.3v-.2h.2v.2h.3v-.3l.2-.2h.4v-.1h-.3v-.3h.3v-.1h-.3v-.3h.2l.1-.2v-.1l-.1-.3v-.1h.2l.2-.4v-.1h-.5v-.4h.4l.1.2v-.5h-.1l-.1-.2v-.1l.3-.2.3-.1v-.3h-.5v-.4h.2v-.4h-.3l-.1-.1v-.2l.1-.2.1-.2.2-.2h.2l.3-.4v-.5l-.1-.2h-.2l-.2-.1v-.3l-.3.2-.1-.2v-.2l.2-.1-.3-.2-.1-.1v-.2l-.2-.1-.1-.1-.2-.2v-.5h-.3v-.4l.2-.1h.2v-.6h-.2v-.3l.3-.2v-.1l.1-.3h.1v-.3h.6v-.4l-.2-.1v-.2h.3l.1-.1v-.1h-.1l-.2-.2V234h-.4l-.1-.2-.3-.4-.1-.2-.1-.2v-.3l-.2-.2-.1-.2v-.1l-.4-.2v-.5l.1-.4h-.4l-.3-.1h-.1v-.3h-.4v-.3h-.1v-.3l-.2-.1-.1-.2v-.2l-.4-.2v-.6h-.1v-.7l-.1-.1v-.2l-.3-.3v-.2l-.1-.1h-.1l-.2-.2h-.1v-.2l.3-.1-.3-.1-.2-.3h-.3l-.3-.5h-.2v-.2l-.4-.3h-.1v-.2h.1v-.1l-.2-.2v-.2l-.3-.1v-.2h-.2v-.2l-.1-.1-.2-.1v-.6l-.2-.2-.1-.2v-.4l-.4-.2-.1-.4v-.2l-.2-.1-.2-.3-.4-.3v-.2l-.2-.3-.4-.2-.2-.2-.1-.3v-.5l-.3-.3v-1.1l.1-.2v-.3l.3-.2v-.1l.1-.2.1-.2v-.3l.1-.2.1-.3.2-.2v-.8l.4-.1v-1.5l-.4-.4-.3-.2v-.5l.1-.4.3-.2.5-.1.6-.1.6-.2.4-.2.6-.4.3-.2h2.5l.4.2h.3l.5.1.4.1h.8l.3-.3v-.3l.2-.2v-.3l.2-.3.3-.4.2-.2.4-.3.6-.1.6-.4.5-.2.2-.3.3-.6v-.3l.2-.4v-.5l.2-.5.3-.2.3-.5v-.7l.2-.4.4-.6.2-.1h.8l.2.1h.4l.5-.1.4-.1h.8l.5.4h1"/><path id="K" d="M154.4 54l.4-.2.1-.2h.6l.2-.1h.3v-.3h.3l.2.4.5.2h.6l1-.5.7-.4.3-.2.2-.1.2-.2.2-.2h.6l.4.3.6.2.4.1h.8l.3-.4.3-.2.4-.2.3-.2.5-.2h.5l.3.4h.4l.1.3.4.1.3.3.2.3.1.2.7.2.4.2h.3l.2.2h1.3l.5.5 1 .5.3-.2h.2l.6-.3.4-.2.6-.2.6-.2.5-.1.6-.3.5-.3.3-.4.1-.2.3-.4.2-.3.2-.1.2-.1h.9l.1.3.2.1.1.1.4.7.4.3h.1l.3.2h.1l.3.5h1.1l.3-.3h1.3l.6.4.3.4.2.3.2.1.3.2h.7l.3-.2h.4v-.2h.7l.7.2h.2l.2-.2.2-.2h.3l.6.2.2.1.3.3.3.2.3.2.3.1h.3l.3-.5.2-.6v-1.1l.2-.5.2-.6.6-.3h.5l.5-.2h.9l.6-.2h.4l.8-.6.2-.4.2-.3.2-.3h.4l.5-.5h1l.4.2.4.6.3.6.3.3.2.1h.6l.1-.3.1-.7.1-.4.1-.6.2-.2h1.2l.6.2.6.2.3.3.5.6.3.5.2.4.5.2.4.1.9.4.7.3h4.4l.2.6.4.4.3.5.3.5.4.8.4.9.2.3.4 1 .4.6.6.7.3.6.4.3.6.3 1 .7.5.3.6.6.5.9.5.6.4.5.3-.3v-.4l.4-.1h.3l.2-.3h.3v-.4h.3l.2-.3.2-.2h.1V61h.2l.2-.3v-.2l.3-.1"/><path id="L" d="M222.7 60.4l.1-.2-.1-.2h-.1l.1-.2h.2l.2.2v.2h.4v-.4h.2v.1h.3v-.5h.2l.4.4v.2h.6l.1.2v.1l.3.1h.2l.2-.1h.2l.2.3h.2l.2.3h.8l.1.1.3-.1.2.1h.4v.4h.8v.3h-.2v.3h.2l.3-.2.2-.1h.4v-.4h.2l.1-.1.2-.2.2-.2h.1v-.3l.3-.2v.3h.2l.1.3h1.2l.3-.2h.2l.2-.2.3.2v.3h.5l.3.3v.1l-.1.2h.6l.2.4h.4l.2.2V62h.5v.1h.4V62h.3l.2.4.1-.2h.2l.1-.2v-.4h.2l.1.3h.2v-.2l.2-.1h.2v.4h.3v-.3h.9v-.1h.3l.4.2.2.3h.2l.1.3h.2v-.2h.3v.3h.4v-.4l.2-.1h.2l.1.1.2.2h.2l.1-.3h.2l.2.5h.2l.2.1h.2l.3.1h.7v-.5h.2l.2.4h.1l.2-.2.1.3h.2l.3-.4h.1l.3-.2h.1v.5h.2l.2-.3.1.1h.2-.1v-.3h.4v.6h1v-.3l-.1-.1h.3V62h.3v.3h-.1.4l.2-.2v.4h.5l.1-.1h.4l.1.3.3.1h.2l.2.1h.4v.2l.4.2h.6l.1.5v.1h.2l.3.3.1.1h.6l.2.1-.1.2.4.2h.7l.3.2.1.1v.2l.4.1v.8h.4l.3.2.1.3.3.1h.2v.3l.3.2.1.1v.2l.3.2v.2l.3.2v.4l.3.1v.3l.1.2v.1l.2.2.1.2v.2l.3.1v.6l.2.2v.2l.2.2v.1l.5.7.5.4.3.7.3.5.2.6-.1.3-.1.5-.2.2-.1.3v.8l-.3.2-.1.5-.2.2v1l.3.4-.3.5v1.3l.1.4.2.4v2.1l.5.2.3.2h.2l.2.5v.8l-.2.3v.3l.7.4.3.3.2.3.2.4.4.2.6.2h1.3l.6-.2.1-.3h1l.7.4h.4l.2.3.3.4v1.1l.1.7.4.6.5.6.3.4.5.8.2.6.3.7V95l.3.3h.2"/><path id="M" d="M437.8 162.7h.2l.2-.3h.6l.6.4.6.1v.1l.6.1h.6l.4-.1h.5l.2.2.4.2.4.3.2.3v.5h.8l.4.2h.5l.6.3.2-.2.2-.3.4-.5.4-.4.5-.2.4.1.3.1.6.4h.6l.5.3h.6l.3.1.2.2.5.1h.8l.5-.2.2-.1.3.2.4.1.3.1h2.5l.3-.3.3-.1.1-.2h1.4l.6.2.4-.2h1l.3.3h.4l.4-.1.3-.1h.7l.4-.3h.5l.6.4h.1l.4.6v1l.1.3.2.2h.7l.2-.1.2-.5h.2l.4-.4.4-.1.4-.2.3-.2.4.1v.3l.6.4.4.1h.6l.4-.1.2-.1.3-.1h.5l.3.1h.7l.4-.1.6-.1h1l.4.3.7.4.6.4.3.3.3.3v.2h.3l.1-.2.3-.4.4-.3.3-.2h.5l.4.3h.5l.7-.6h.2l.3-.5.4-.2h.9l.6-.3.3-.3.5-.2.2-.4.2-.4h1.2l.3.3h1.3l.5.5.5.3.5.3h.7l.4-.2h.2v-.4l.2-.1.1-.3v.3l.3.6v.4l.4.4.4.2.4.2.3.1h.3l.3-.3h1.1l.3.5.3.6.3.5.3.2h.4l.4.4.4.2.4.2.4.1.2.3h.5l.5.3.4.1.4.1h.5l.2.1.4.4h.6l.3.3.3.5.1.2.2.4.3.2.4.1.2.1v.6l-.1.5v.3l.5.3.4.2.3.3.2.4v.7l-.2.2h.5l.5.3.5.1.6.1.3.2h1.5l-.2.1-.3.3v.4l-.3.2v1.3l-.5.4-.1.3-.2.2v.3l.3.5h.1"/><path id="N" d="M124 244.5l-.2-.2-.1-.2v-.1l.3-.2.3-.1v-.3h-.5v-.4h.2v-.4h-.3l-.1-.1v-.2l.1-.2.1-.2.2-.2h.2l.3-.4v-.5l-.1-.2h-.2l-.2-.1v-.3l-.3.2-.1-.2v-.2l.2-.1-.3-.2-.1-.1v-.2l-.2-.1-.1-.1-.2-.2v-.5h-.3v-.4l.2-.1h.2v-.6h-.2v-.3l.3-.2v-.1l.1-.3h.1v-.3h.6v-.4l-.2-.1v-.2h.3l.1-.1v-.1h-.1l-.2-.2V234h-.4l-.1-.2-.3-.4-.1-.2-.1-.2v-.3l-.2-.2-.1-.2v-.1l-.4-.2v-.5l.1-.4h-.4l-.3-.1h-.1v-.3h-.4v-.3h-.1v-.3l-.2-.1-.1-.2v-.2l-.4-.2v-.6h-.1v-.7l-.1-.1v-.2l-.3-.3v-.2l-.1-.1h-.1l-.2-.2h-.1v-.2l.3-.1-.3-.1-.2-.3h-.3l-.3-.5h-.2v-.2l-.4-.3h-.1v-.2h.1v-.1l-.2-.2v-.2l-.3-.1v-.2h-.2v-.2l-.1-.1-.2-.1v-.6l-.2-.2-.1-.2v-.4l-.4-.2-.1-.4v-.2l-.2-.1-.2-.3-.4-.3v-.2l-.2-.3-.4-.2-.2-.2-.1-.3v-.5l-.3-.3v-1.1l.1-.2v-.3l.3-.2v-.1l.1-.2.1-.2v-.3l.1-.2.1-.3.2-.2v-.8l.4-.1v-1.5l-.4-.4-.3-.2v-.5l.1-.4.3-.2.5-.1.6-.1.6-.2.4-.2.6-.4.3-.2h2.5l.4.2h.3l.5.1.4.1h.8l.3-.3v-.3l.2-.2v-.3l.2-.3.3-.4.2-.2.4-.3.6-.1.6-.4.5-.2.2-.3.3-.6v-.3l.2-.4v-.5l.2-.5.3-.2.3-.5v-.7l.2-.4.4-.6.2-.1h.8l.2.1h.4l.5-.1.4-.1h.8l.5.4h1.4l.1-.2.3-.3v-.4l.3-.4.2-.3.2-.4h.3l.2.2.3.2.3.2.2.4.5.6.3.4.2.4h1.4l.3.1.3.2h1l.4-.2h.9l.3-.2.1-.3v-.7l-.4-.4-.1-.3-.3-.2-.3-.1v-.8l.1-.5.2-.3h.1l.5-.1h.1l.5-.4h.2l.3-.2h.4l.3.3.3.1.4-.2.2-.2.5-.4.3-.2.3-.2h.7l.2-.2.2-.1.3-.3"/><path id="O" d="M93.3 74h-.1l-.2-.5-.3-.1-.2-.1-.1-.3-.2-.3v-.5H92v-.6l-.3-.3.1-.2v-.9l-.1-.3v-.7l.1-.2v-.1l-.2-.2-.3-.2v-1l-.3-.2v-.1l-.1-.2v-.7l.3-.3v-.4l-.2-.3V65l-.3-.2v-.7l-.1-.4-.2-.3-.2-.4-.2-.2-.2-.2v-.2l-.3-.2v-.1h-.3v.3l-.2.1v-.2l-.5-.3-.2-.2-.2-.1H88l-.3-.2h-.2l-.1-.1h-.8l-.2.3h-.6l-.2-.2h-3.2l-.2.1v.2l-.6.2h-.3l-.3-.2-.3.3-.3.3h-.1L80 62h-.4l-.2-.2-.4-.2-.2-.1H78v-.2l-.2-.3-.4-.3-.2-.1h-.6l-.3-.4H76V60h-.4l-.3-.5v-.1l-.3-.2v-.4l-.4-.2-.1-.2-.2-.4H74l-.3-.3v-1.2l-.4-.1v-.1l-.1-.3v-.2l-.2-.2-.2-.2-.2-.2-.3-.2-.3-.1h-.2l-.4-.3h-.2l-.2-.3v-.6l-.1-.1h-.3l-.3-.3.1-.1.3-.2h.2l.1-.3v-.6l-.2.1h-.1l.3-.3v-.2l-.2.2-.1.1h-.1v-.1l.3-.2h-.2l-.2-.3H70v-.2h.8V51h-.1l-.1-.3v-.2h.1l.1-.3h.2v-.3l-.2-.4v-.2h-.2l-.1-.2h-.3v.2H70v-.5l-.1-.2.1-.2v-.7l-.1-.1v-.3l-.4-.2-.2-.1-.3-.4v-.3l-.2-.3v-.2l.1-.1v-.4l.1-.1.1-.2h.1v-.5l.5-.3v-.6l-.3-.3-.1-.1-.1-.2.1-.2.4-.1.1-.2h.4l.3-.3V42h.3v-.5l.2-.1V41l.3-.3v-.4l.1-.2.1-.1v-1.4l.4-.4v-.8l.1-.1v-.5l-.2-.4V36l.2-.3v-.2l.2-.3v-.1l.1-.2h.4v-.7l.2-.2.1-.2v-.2l.2-.3v-.4l.3-.2.5-.2v-.2l.1-.1h1.2l.2-.3.1-.2.2-.2.3-.1V31l.4-.2.2-.2v-.3l-.2-.2V30l.1-.3.4-.3.3-.4.1-.1.4-.1.4-.1h.5l.3-.1.5-.3.5-.2.5-.3.2-.2-.1-.3-.4-.3-.5-.3-.4-.4-.3-.4-.4-.4-.3-.2-.4-.1-.3-.2-.1-.3-.2-.3-.2-.4-.1-.1-.2-.2-.2-.1-.1-.6-.1-.5v-.4l-.2-.4-.4-.4-.6-.3h-.3v-.4l.1-.3.2-.4-.2-.2-.1-.3"/><path id="P" d="M70.5 12.5v1.2l.2.3.2.3.4.3v1l.3.3.2.4v.3l.1.1.5.6.5.4.7.5.5.3.3.4.5.4.2.4v.6l-.3.3v.4h.4l.6.3.4.4.2.3v1l.3.6.1.1.1.3.2.1.2.3.2.3.1.3.4.2.3.1.3.2.4.4.3.4.4.4.5.3.4.3v.5l-.8.3-.3.2-.4.3-.4.1h-.9l-.4.3v.1l-.4.3-.3.3-.2.2v.2l.2.2v.3l-.2.2-.3.2v.2l-.2.2-.2.1-.2.2-.1.3-.2.2h-1.4v.4l-.5.1-.1.3-.1.3-.2.3v.2l-.2.2v.6l-.1.2h-.5v.4l-.2.3v.7l-.2.2v.4l.2.2v.3h-.1l-.1.6v.2l-.3.5-.1.2v.5l.2.3-.1.3v.1l-.3.3v.4l-.2.3v.2l-.2.2v.3l-.1.3h-.2l-.1.2-.1.3h-.5l-.1.2-.4.1-.1.2v.2h.4v1l-.3.3v.5H69v.6l-.3.3v.1l.2.3.2.3.2.4h.3l.2.3.2.2v.3l.1-.2v.9h-.2v.1l.1.2v.5h.3V49h.1l.3.3h.2v1l-.3.1v.2h-.1v.4l.4.1v.3l-.4-.1H70v.1h.6l.1.3h.1l-.1.3h-.2.4l.1-.3v.3l-.3.1v.2h.1l.2-.3v1h-.3l-.3.2h-.1v.3h.6v.9h.1l.2.2.2.1.4.1h.2l.3.2.3.2.2.2.2.2.2.2v.2l.2.3v.1l.2.1v1.2l.1.1h.3v.2l.3.1.2.3.2.2.1.2.2.2.1.2.1.2.1.2.3.4h.3l.1.3h.3l.3.2h.6l.3.3.2.1.1.1.2.4h.5l.3.2.7.4h.1l.4.1.3.1.1.1.3-.1V62l.2-.1H82l.2-.4h3.6l.2.2h1l.4-.3h.3l.3.3h.1l.2.2.3.1.2.2v.3h.2l.1-.2.1-.1.3-.2v.2l.3.2v.2l.2.2.2.2.2.4.2.3.2.3v.8l.2.2v.3l.2.3v.3l-.2.2v.2l-.1.1"/><path id="Q" d="M141.4 171.8l-.4-.4-.5-.4-.3-.1-.3-.4-.3-.5-.6-.6-.3-.2h-.5l-.2-.2-.6-.7-.6-.6-.4-.2-.7-.1h-.7l-.5.2v-.2l-.3-.4v-.6l.2-.4.2-.3.2-.5v-.2l-.2-.2h-.3l-.3-.1v-.3l.2-.2.4-.6.2-.3.3-.3h1.2l.4-.3h.5v-.8l-.2-.7-.1-.3-.4-.3-.2-.3v-.3l.1-.4.3-.2.3-.4.4-.1.4-.5.2-.3.5-.1.4-.4.4-.5v-.2h-.8l-.7-.6-.7-.5-.3-.6-.4-1-.4-.2-.4-.2h-.1l-.3.2h-.3l-.4-.1-.3-.2h-.2l-.1.3-.3.5v.5l.2.3.2.2v.7l.2.3-.2.3h-.3l-.3.3h-.5l-.5-.1-.5-.2h-.6l-.3-.1-.6-.2h-.4l-.4-.3-.4-.6-.1-.1-.4-.3-.2-.2h-.5l-.5.1h-.5l-.5-.2-.6-.2-.4-.3-.4-.6-.3-.8v-.5l-.1-.1-.4.2-.3.2-.4.4-.4.3-.2.1h-.2l-.4-.3-.4-.6-.3-.2v-.2l-.2-.8v-.5l-.5-.4-.4-.2-.6-.4h-1.3l-.5.4-.5.1-.5.1H116l-.3.2-.3.2-.4.1-.3.1-.1.1-.4.5-.1.2-.3.1h-2.1l-.5.3h-.7l-.3-.4h-1.8l-.6-.4h-1.2l-.4-.1-.4-.3-.1-.2-.2-.6-.2-.4v-.5l.2-.3v-.4l-.3-.4-.1-.4-.3-.3-.6-.3-.4-.4v-.8l-.2-.2h-.3l-.4-.3-.3-.1v-2.2l.1-.2.2-.4.1-.3.2-.4.2-.4.2-.3v-.4l-.2-.1h-.4l-.3-.3h-.9l-.1-.1-.1-.1h-1.2l-.2.2-.4-.3-.5-.2H99l-.3-.3-.2-.2v-.3l-.2-.3h-.4l-.7-.1-.6-.2H96"/><path id="R" d="M242.4 293v-.4l-.1-1-.3-.8v-1l-.1-.4-.2-.8v-.7l-.2-.8-.1-.1h-.6l-.2-.1-.2-.3-.4-.3v-.3l.3-.5.2-.7v-.6l.3-.8v-.4h.2v-.3l.2-.5.1-.7-.1-.5-.1-.5v-.3l.4-.4.1-.5.1-.5v-.3l.3-.5v-.3l.4-.4.2-.3h.7l.4-.2.3-.1.3-.3.2-.4v-.9l-.2-.5v-2.4l-.3-.4-.2-.8-.3-.2-.5-.2-.7-.2-.3-.4-.4-.2-.4-.4-.4-.3-.5-.1-.3-.5-.3-.3-.4-.4-.2-.1v-.2l.4-.5v-1l-.3-.3-.2-.4v-.5l-.2-.6-.3-.3-.5-.2-.4-.4-.4-.6-.3-.2-.5-.2-.4-.1-.3-.2-.3-.5-.2-.5-.1-.1-.3-.2v-.3l.2-.4.4-.4.3-.4.2-.4.1-.6-.2-.6-.2-.6v-.3l.2-.4.2-.3v-.7l.2-.3v-.5l.1-.3.2-.4.3-.1.2-.3v-.7l-.4-.6v-.5l.2-.5.2-.3.2-.3v-.3l-.1-.2h-.3l-.5-.3-.3-.1-.1-.6v-.9l-.1-.3-.3-.3v-.9l-.5-.3-.2-.3v-.4l.2-.6v-.2l.4-.3v-.3l-.4-.2-.2-.6v-.3l.2-.3.3-.3v-.7l-.1-.2-.6-.2h-.5l-.1-.3-.3-.1v-1l-.1-.6-.6-.4-.2-.5-.2-.5-.2-.4-.1-.8-.3-.8-.3-1-.2-.4v-.6l.1-.7.1-.3v-.2l-.7-.2v-.1l-.4-.3h-1l-.3.2-.3.4-.2.3-.7.1-.6.1-.5.1-.6.2-.4.1-.3.3-.2.1-.2.2-.3.2h-.2l-.1.2-.4.3v.5l-.3.3-.2.2-.2.4h-.3l-.3.4-.4.2-.3.2h-.3l-.4-.2-.4-.2-.5-.2h-.6l-.3-.1-.3-.1h-.4l-.7.2h-.4"/><path id="S" d="M217.9 236.6h-1.2l-.4.2-.5.2-.7.7-.2.1-.2-.2-.5-.6-.7-.2-.3-.2-.2-.2-.5-.4-.3-.4-.5-.6-.3-.1-.4-.2-.2-.2-.1-.3-.1-.4v-.3l-.3-.2-.2-.2-.1-.1-.1-.3.1-.3-.3-.4h-.8l-.2.4-.3.3-.1.3-.4.3-.5.1-.4.4-.1.2.1.5.3.3v.6l-.3.6-.3.4-.4.1-.5.1h-.5l-.2-.3-.2-.3-.5-.4-.4-.4-.4-.4-.8-.5-.2-.4-.2-.3h-.4l-.2.2-.2.1-.2.1-.2.2-.2.2-.5.3-.2.3-.4-.1-.2-.2-.5-.5h-.2l-.2.3-.1.5v.5l-.4.4-.1.3h-.4l-.3-.1-.5-.2-.3-.2h-.6l-1.1.1-.6.5-.7.3-.4.4-.1.3v.3l.2.4-.4.2-.3.3-.2.3-.5.5h-.5l-.3.2-.2.2-.2.8v.4l-.2.1-1.1.6h-.5l-.1.8-.2.4-.2.5v.2l-.5.1h-.3l-.3.4h-1.2l-.4.2-.3.2-.6-.1-.2-.3-.2.3-.8.4h-.7l-.8.1h-.8l-.4-.2-.3.1-.3.3-.7.8h-.4l-.8-.4h-.5l-.7-.1h-.9l-.4.4-.5.8-.2.3-.3.4v.3l-.5.5-.2.5-.1.4v.1l-.2.7.2.8v1.2h-.2l-.6.2-.4.1h-.4l-.3-.3-.2-.4-.5-.2h-.1l-.4.2h-.3l-.1-.3-.3-.2-.6-.8-.6.2-.6.1h-1v.7l-.1.4-.3.4-.3.4-.3.1h-.2l-.7.2h-.6v-.5l-.6-.1H163l-.5-.4-.5-.3h-1l-.6.3-.9.2h-.9l-.2.3h-.1v.5l-.1.5-.2.4-.1.4-.2.5-.1.3v.3l.1.3.3.8.4.2-.4.5v.1"/><path id="T" d="M158 256.8v.4l-.2.5v.3l.2.4.4.8.1.3-.4.2-.7.1-.6.2-.8.3-.7.2h-1.5l-.6.3h-.4l-.2.2-.1.3-.2.2-.4.2-.4.1h-.6l-.5-.1h-.8l-.1-.5-.3-.2h-1.5l-.5-.3-.8-.3-.4-.1h-1v-.3l.3-.3v-1.3l.3-.6v-.2l.2-.3.2-.3.4-.5-.2-.5-.4-.7-.2-.4-.1-.4v-.3l.2-.1.2-.2-.4-.3h-.2l-.4-.2h-.3l-.3-.6h-.6l-.5-.3-.5-.2-.5-.4-.6-.3h-2.7l-.4-.2h-.8l-.5-.1-.2-.2-.5-.1h-1.6l-.6.1-.3.2h-.3l-.2.3v.4l.1.4.1.3v.9l-.5.6-.3.6-.2.5-.3.3-.5.3-.3.4-.2.4-.1.3-.1.2h-.9l-.3.4-.2.4-.2.2-.2.2-.3.3-.2.2-.2.1-.2.4-.5.3-.4.3-.2.2-.2.4-.2.6v.4l-.6.2-.4.2-.4.3-.4.6h-1l-.7.2-.4.1v-.4l.2-.2.2-.1.3-.2v-.3l-.4-.2v-.5l.3-.3h.1v-.3l-.1-.1-.2-.2-.2-.2h-.4l-.2-.2-.2-.3v-.5l.3-.2v-.7l-.2-.3h-.2v-.6h.5l.2.4h.8v-.5h-.3v-.7l-.3-.3h-.1l-.2-.3h-.1v-.3l.3-.1.1-.1v-.5l-.3-.4h-1.4l-.4-.2-.4-.2-.1-.2v-.6l.1-.4v-1.2l-.2-.2-.3-.2h-.7l-.1-.2v-.4l.4-.2v-.2l-.3-.2.1-.2h.3l.2.3h.2l.3-.3h.1v-.5h.4v-.3l-.2-.2v-.2h.3l.1.2.2-.1v-.4l-.4-.1.2-.2h.1l.2-.2h.4l.2.2h.1v-.2h-.1v-.2l.2-.3v-.2h.2v.2h.3v-.3l.2-.2h.4v-.1h-.3v-.3h.3v-.1h-.3v-.3h.2l.1-.2v-.1l-.1-.3v-.1h.2l.2-.4v-.1h-.5v-.4h.4l.1.2v-.2"/><path id="U" d="M146.7 197.6l.6-.2h.8l.3-.2h1l.4.4.2.1.3.1.1.2v.2l.3.2.2.1h1.1l.4.3h1l.3-.3.4-.3.5-.2.4-.5.2-.2.2-.3h.9l.3-.3.4-.2h.3l.2-.2.2.2.2.2.4.3.4.2h.6l.2-.5.2-.2.4-.3.2-.1.4-.2.3-.2.2-.1.3-.2.1-.1v-.3l-.3-.2-.3-.5-.3-.3v-.7l.1-.3.3-.2.3-.2h1.6l.6-.3h.6l.4-.1v-.8l-.2-.4-.1-.3-.3-.4-.1-.4-.1-.5-.2-.2v-.3l.4-.2.2-.2.1-.2-.2-.5-.4-.7-.3-.6-.3-.4-.1-.1h-.6l-.4.4-.5.5-.7.6-.4-.2h-.6l-.6-.3h-1.8l-.6-.4-.6-.2-.5-.5-.7-.5-.7-.6-1-.5-.7-.4-.5-.3-.3-.1h-1.2l-.3-.1-.5-.4-.3-.3-.3-.3-.2-.5-.2-.4-.2-.6-.3-.4-.5-.1h-.4l-.2-.4v-1.2l.2-.3.6-.3.4-.2.6-.4.5-.5.2-.5.1-.7.2-.3.2-.3-.3-.6-.3-.3-.5-.5-.9-.3-.5.1-.7.2h-.5l-.6-.1-.4-.4-.5-.2h-.4l-.6.5-.4.2-.3.3-.3-.2-.5-.3-.5-.3v-.5l-.3-.5-.3-.6-.4-.4-.5-.4-.3-.1-.3-.4-.3-.5-.6-.6-.3-.2h-.5l-.2-.2-.6-.7-.6-.6-.4-.2-.7-.1h-.7l-.5.2v-.2l-.3-.4v-.6l.2-.4.2-.3.2-.5v-.2l-.2-.2h-.3l-.3-.1v-.3l.2-.2.4-.6.2-.3.3-.3h1.2l.4-.3h.5v-.8l-.2-.7-.1-.3-.4-.3-.2-.3v-.3l.1-.4.3-.2.3-.4.4-.1.1-.1"/><path id="V" d="M94.8 122.2h.2l.4-.2.3-.1.3-.2.3-.1.2-.2h.5l.3-.1.5-.4v-.9l.2-.1.4-.2.2-.1.4-.4.4-.4.3-.4.1-.4v-.3l-.3-.5-.1-.2-.4-.4-.4-.3h-.2l-.4-.3v-.2l-.2-.8v-.5l-.1-.2h-.3l-.3.3-.1.2h-1.5l-1.1.2h-5.1v-1.4l-.3-.4v-.4l-.3-.5v-2l.2-.3v-1l.1-.7v-.2h-.5l-.2-.1-.1-.2v-.1l-.4-.2v-.2l-.2-.1-.2.1-.4.2-.3.2-.2.1-.5.2-.4.1H85l-.4.3-.2.2-.3.2h-.4l-.5-.3H83l-.5-.4h-1.1l-.4.3-.5-.6-.6-.1-.4-.2-.3-.5v-.4l.3-.4v-.2l.1-.2v-.2l-.4-.2-.4-.2h-.3l-.5-.5-.5-.2-.5-.7v-.6l.5-.6.1-.5v-.2l-.1-.1-.2-.3v-.5H77v-1.2h.4v-.3l.2-.1h.5l.1-.3.2-.1.1-.2.1-.2h.2l.2-.4.1-.2h.5l.1-.3.3-.1.2-.2.1-.4h.3l.2-.5.1-.2.2-.3v-.3l.2-.2v-.3l.2-.3v-.3l-.4-.1v-1.3l.3-.3v-.7l-.1-.2v-.1l.1-.2.1-.2v-.2l.2-.3.2-.2h.1l.1-.2h.9l.2-.2h.2l.2-.2h.1l.3-.1.2-.1h.7l.3-.2h.6v-.3h.2v-.1l.2-.1.3-.1V89l.3-.1v-.2h1.3l.1-.2v-.1l.3-.1.2-.3h.1l.2-.3v-.1l.2-.1h.3l.3-.3.5-.1h.3V87l.3-.2h.4l.2-.2h.3l.2-.1h.1l.3-.2.1-.1h.1l.3-.2h.1l.1-.2.2-.2v-.1l.1-.2h.6v-.8l.2-.1v-.2l.4-.2v-.7l.1-.3h.3v-.7l.2-.3v-.2H95v-1h-.3v-.6l-.2-.2v-.3h.2v-.2h.3l.2-.3h.8l.2-.1.1-.1.2-.1.3-.1h.2v-.2l-.4-.3-.1-.3h-.1l-.2-.2h-.7l-.2-.2h-.5l-.1-.4v-.5l-.3-.2-.2-.1-.1-.2-.2-.2-.2-.2-.2-.2v-.2l.3-.1-.3-.3v-.1l-.1-.2v-.1l.1-.1-.1-.2-.1-.3"/><path id="W" d="M75 19.4l-.7-.6-.3-.3-.4-.3-.7-.5-.5-.4-.5-.6h-.1v-.5l-.3-.3-.2-.3v-1l-.4-.3-.3-.4V13l-.2-.6V12l.4-.3v-.4l.2-.3v-.2h-.1l-.2-.4.3-.1.2-.1.2-.4.2-.5-.6-.2-.3-.3-.2-.5-.3-.3-.2-.4h-.4l-.1-.1V7h.5l.3-.3.2-.1.2-.3v-.4l-.1-.4-.3-.2v-.8l-.2-.4-.2-.3-.4-.2-.2-.1-.3-.3-.2-.5-.6-.7-.2-.5-.1-.7-.2-.6-.4-.8-.2-.7-.2-.3-.3-.4-.3-.6-.3-.6v-.4l-.6-.4v-.6l-.6-.6-.4-.3-.2-.5-.4-.2-.4-.4-.4-.6-.3-.7-.2-.1-.5-.3h-1.7l-.5.3h-.5l-.6-.4-.5-.3-.4-.5-.6-.2-.5-.2-.7-.2-.6-.5-.2-.2-.1-.5-.1-.3-.2-.2-.3-.4-.4-.5-.5-.4-.1-.2v-.6l.4-.4.1-.2v-.2l.2-.4v-.7l-.2-.3v-.7l-.3-.5h-1l-.2-.5-.3-.4-.2-.9-.3-.7-.1-.6v-.2l.2-.3.3-.3.2-.6v-.5l-.1-.3.2-.3v-.4l.5-.7.1-.3.2-.7.3-.5v-.1l-.5-.3v-.2l-.2-.5v-.5l-.5-.6-.4-.4-.5-.6-.4-.6-.1-.2.1-.5.1-.6.1-.4.4-.5.5-.6.4-.4.3-.8.3-.9.2-.7.2-.5.2-.3.4-.1.5-.2.5-.3.2-.3.1-.5.2-.5.4-.4v-.3h1.8l.5-.1.5-.4.4-.4v-.8l.3-.3.1-.2.4-.5.2-.3.2-.4v-1.7l.3-.5v-1.1l.1-.8.4-.5.3-.5.2-.5.3-.4v-.7"/><path id="X" d="M56.4-51.2h.4l.6-.2.3.3h.8l.5-.3.2-.3.3-.3h.3l.2.4.2.1h.6l.2.3.2.2.4.3.2.4.1.7.1.7v.7l-.1.8-.2.4-.2.5-.3.5-.4.5-.2.8v1.1l-.1.5-.1.5v1.2l-.2.3-.2.4-.4.5-.2.2-.1.3v.8l-.6.4-.4.5-.5.1H56v.2l-.4.4-.2.5-.1.5-.3.4-.4.2-.5.2-.4.1-.2.3-.2.5-.3.6-.2 1.1-.3.7-.5.4-.4.6-.4.5v.4l-.2.6v.8l.5.5.4.6.4.4.5.6.1.5.1.5.1.2.3.3.1.1-.3.5-.2.6-.2.4-.3.7-.1.4-.2.3v.3l.2.5-.3.5-.3.4-.2.3v.2l.1.6.3.7.2.9.3.4.2.5h.7l.4.2.2.3v.4l.2.3v.3l.1.5v.2l-.3.4v.2l-.2.2-.2.4v.2l-.2.4.2.2.5.4.4.4.3.5.2.2v.3l.3.5.1.2.6.5.7.2.5.2.6.2.4.5.5.3.6.3h.5l.5-.2H62l.5.2.2.1.3.8.4.6.4.4.4.2.2.5.4.3.6.6v.6l.6.4v.4l.3.6.3.6.3.4.2.3.2.7.4.8.2.6v.7l.4.5.5.7.2.5.3.3h.2l.4.4.3.2v1.2l.5.2v.8l-.2.3-.2.2-.4.1h-.3l-.1.3v.4l.5.1.2.3.3.3.2.5.2.2.1.2h.6v.1l-.2.5-.2.4-.3.1-.2.2.3.2v.6l-.3.4-.2.3v.5"/><path id="Y" d="M90.9 66.4v.8l.3.1.1.2v1l.3.2.2.2v.2h-.1v1.2l.2.2V72l.1.1.2.1v.5l.2.3.2.3h.1l.3.3.2.4h.1v.3l.3.2-.3.3v.1l.3.2.1.2-.1.1v.4l.4.2.1.2.1.2.3.1.1.2v.6l.3.2h.1l.3.2.2.1h.7l.2.2h.1l.2.3.1.3h.2l.1.1h.3l.3-.2h.3l.5-.3.5-.2.2-.1v-.1l.3-.2v-.2l.3-.1h.6l.3-.2h.5l.2-.3.4-.3.2-.1h.6l.3.3h.2l.3-.3h.6l.4-.4h.2v-.2l.6-.1h.5l.4.2.3.2h.4l.3-.1h.4l.2-.1v-.3l.3-.2.2-.1h.3l.2.1h1.3l.5-.4h.3l.2-.1h.5l.3.5.4.5.4.3.4.1.2.1h.8l.7-.4.2-.2v-.2l.3-.4v-.4l.3-.4v-.3l.3-.1v-.7l.2-.1h1l.2-.2h.1l.1-.2h.3l.6.4h1l.2-.2.3-.2.3-.1.3-.2.3-.4.3-.1.2-.2.2-.2.2-.2.2-.1.1-.3v-.2l.3-.3v-.2l.2-.2.2-.1h.4v-.4l.4-.1V69l.3-.4v-.2l.1-.4h.9l.6-.3.3-.2h1l.2.2h.2l.1-.1v-.3l.3-.3h.6l.3-.1.3-.2v-.3l.3-.1.3-.4.2-.1.3-.3h.1l.3-.5h.8l.5-.6.2-.2.2-.2.4-.3.2-.2.3-.3.3-.2v-.4l-.4-.2v-.2l.2-.1h.8l.2-.3v-.1l.2-.2h.2l.3-.2h.6v-.2l.3-.1v-1.2l.4-.2.2-.2.5-.3.3-.1h.4l.5-.4.3-.4-.2-.1v-.5l.2-.2.2-.2.1-.2v-.8l.2-.2.1-.3.4-.4.5-.2.1-.1.4-.4.3.2.3.2h.4l.5-.2h.4l.5.7h.6l.2.3h.4l.2.2.5-.3h1.1l.3.2h.2l.3-.3.4-.3.2-.3.2-.1.5-.3h1.4l.4-.3h.5l.2-.1.5.1.5.1.5.1h2"/><path id="Z" d="M153.5 54.4h.1l.4-.2h.4v-.4h.4l.1-.2h.6l.2-.1h.3v-.3h.3l.2.4.5.2h.6l1-.5.7-.4.3-.2.2-.1.2-.2.2-.2h.6l.4.3.6.2.4.1h.8l.3-.4.3-.2.4-.2.3-.2.5-.2h.5l.3.4h.4l.1.3.4.1.3.3.2.3.1.2.7.2.4.2h.3l.2.2h1.3l.5.5 1 .5.3-.2h.2l.6-.3.4-.2.6-.2.6-.2.5-.1.6-.3.5-.3.3-.4.1-.2.3-.4.2-.3.2-.1.2-.1h.9l.1.3.2.1.1.1.4.7.4.3h.1l.3.2h.1l.3.5h1.1l.3-.3h1.3l.6.4.3.4.2.3.2.1.3.2h.7l.3-.2h.4v-.2h.7l.7.2h.2l.2-.2.2-.2h.3l.6.2.2.1.3.3.3.2.3.2.3.1h.3l.3-.5.2-.6v-1.1l.2-.5.2-.6.6-.3h.5l.5-.2h.9l.6-.2h.4l.8-.6.2-.4.2-.3.2-.3h.4l.5-.5h1l.4.2.4.6.3.6.3.3.2.1h.6l.1-.3.1-.7.1-.4.1-.6.2-.2h1.2l.6.2.6.2.3.3.5.6.3.5.2.4.5.2.4.1.9.4.7.3h4.4l.2.6.4.4.3.5.3.5.4.8.4.9.2.3.4 1 .4.6.6.7.3.6.4.3.6.3 1 .7.5.3.6.6.5.9.5.6.4.5.3-.3v-.4l.4-.1h.3l.2-.3h.3v-.4h.3l.2-.3.2-.2h.1"/><path id="a" d="M222 61.1l.2-.1h.1l.2-.3v-.2l.3-.1v-.2l-.1-.2h-.1l.1-.2h.2l.2.2v.2h.4v-.4h.2v.1h.3v-.5h.2l.4.4v.2h.6l.1.2v.1l.3.1h.2l.2-.1h.2l.2.3h.2l.2.3h.8l.1.1.3-.1.2.1h.4v.4h.8v.3h-.2v.3h.2l.3-.2.2-.1h.4v-.4h.2l.1-.1.2-.2.2-.2h.1v-.3l.3-.2v.3h.2l.1.3h1.2l.3-.2h.2l.2-.2.3.2v.3h.5l.3.3v.1l-.1.2h.6l.2.4h.4l.2.2V62h.5v.1h.4V62h.3l.2.4.1-.2h.2l.1-.2v-.4h.2l.1.3h.2v-.2l.2-.1h.2v.4h.3v-.3h.9v-.1h.3l.4.2.2.3h.2l.1.3h.2v-.2h.3v.3h.4v-.4l.2-.1h.2l.1.1.2.2h.2l.1-.3h.2l.2.5h.2l.2.1h.2l.3.1h.7v-.5h.2l.2.4h.1l.2-.2.1.3h.2l.3-.4h.1l.3-.2h.1v.5h.2l.2-.3.1.1h.2-.1v-.3h.4v.6h1v-.3l-.1-.1h.3V62h.3v.3h-.1.4l.2-.2v.4h.5l.1-.1h.4l.1.3.3.1h.2l.2.1h.4v.2l.4.2h.6l.1.5v.1h.2l.3.3.1.1h.6l.2.1-.1.2.4.2h.7l.3.2.1.1v.2l.4.1v.8h.4l.3.2.1.3.3.1h.2v.3l.3.2.1.1v.2l.3.2v.2l.3.2v.4l.3.1v.3l.1.2v.1l.2.2.1.2v.2l.3.1v.6l.2.2v.2l.2.2v.1l.5.7.5.4.3.7.3.5.2.6-.1.3-.1.5-.2.2-.1.3v.8l-.3.2-.1.5-.2.2v1l.3.4-.3.5v1.3l.1.4.2.4v2.1l.5.2.3.2h.2l.2.5v.8l-.2.3v.3l.7.4.3.3.2.3.2.4.4.2.6.2h1.3l.6-.2.1-.3h1l.7.4h.4l.2.3.3.4v1.1l.1.7.4.6.5.6.3.4.5.8.2.6.3.7v1"/><path id="b" d="M271.4 94.5v.5l.1.3.5.2.2.3.1.2.3.6.4.5.2.4v.4l-.2.4-.3.4v1.3l-.2.3-.3.2-.2.2-.4.3-.4.5-.4.5-.2.5-.2.5v.5l-.3.8v.7l.4.5v.5l.1.5.1.5.3.2h1l.3-.2h.1l.4-.4v-.2h.6l.4.3h.6l.3-.5.3-.2.2-.2.5-.6.8-.7.8-.5.4-.3.5-.3.4-.1.7-.3h.9l.3.3.4.4h1.2l.6.2.1.3.4.3.6.2.6.3.2.2h.6l.4-.4.3-.5.5.1.6.2.5.1.4.1.8.6h1l.5.4.5.5.4.2h1.4l.5.2v.1h.3l.5-.2.2-.3.5-.2h.7l.3-.2h.8l.4.3h.4l.2.2v.1l.2.5v.2l.2.1.5-.1.8-.5.4-.5.6-.2v-.2h.3l.3-.4.2-.1h.2l.7.5.5.2h1.1l.6.3h1.5l.3-.5.3-.4.1-.4.1-.2.3-.2.8-.2h.5l.1-.4.3-.6.3-.4.3-.3h.2l.6.5.7.5.6.1.6.2h.7l.5-.2h.9l.4.4.4.3h1.4l.4-.1h.2l.6-.4h.2l.7.3 1.1-.1h.7l.5.1h.4l.4.4.6.2.5.3.4.3.4.3h.6l.5-.1h1.3l.5.1.5.6.4.5.7.5.5.5.5.5.2.3.4.2.2.2.4.2.2.5v.5l-.4.3-.2.4-.6.6v.7l-.3.3-.3.4h-.4l-.2.4v.2h.6"/><path id="c" d="M328.1 113.6h.4l.5.4.6.5.4.2.3.1h.5l.8.4.6.1.6.2.6.4.3.5.2.4v.3l-.3.4v.2l.4.4.5.3.3.3.5.4.3.3.1.3.3.2.3.4.7.7.2.3v1.3l.3.4.2.4.3.3.2.7.2.2.6.4h1.8l.1.2.4-.2h1l.5.5.5.2h1.5l.3.1.6.2h1.3l.6.1.2.4v.9l.2.1.1.1.2.2.2.1h.3l.4.2.5.3h.9l.4.1.1.3.2.1h.7l.7.4.4.2.3.2.2.4.2.3.2.3v.5l.5.3.2.2.4.4.2.2v.3l-.3.6-.1.8v.7l.4.3.4.5.1.5v1.3l.6.3.4.4.7.3h1.7l.4.1.2.2v1.2l.6.2h.2l.4.3h.2l.2.1.1.2.1.6-.1.3v.5h.1l.4.4v.2l.4.4.2.1.2.2.2.2v.5l.2.4.3.3.5.5v.4l.3.2v.3l-.3.4-.3.4-.2.4v1l.4.1.6.1.4.3.1.2.1.4.3.5v1.1l.2.5.4.5.2.4v.4h.5l.3-.2h.7l.3-.1h.4l.2.4.5-.2.4-.2.3-.1.2-.2.3.1.4.2.1.5h.2l.2.2.3.3.4.1.4.3.2.3.3.2.2.2h.3l.1-.2.2-.4v-.8l.4-.4.1-.2.2-.3v-.7l.5-.3.4-.4.4-.2h1.1l.4-.5.4-.1.4-.3h.5l.2.2.4.2v.1l.3.2h.2l.4.2h.2l.2.3h.7v.2h.3v-.4l.2-.1h.3l.2.3.2.1h.8l.4.3.3.2h.5l.5.3.4.1h.3v-.4"/><path id="d" d="M245.3 312.4v-.4l.4-.6.1-1.2.3-1v-.4l-.1-1-.6-.6-.4-.2-.6-1.7-.7-1-.3-.4-.4-.6-.2-.9-.1-.8-.3-.3-.4-.3v-1.3l.1-.7v-.7l.6-.5v-.7l-.1-.3-.1-.3v-.2l.1-.2v-.3l-.1-.6-.1-.7v-1.8l-.1-1.1-.3-1v-.7l-.1-.5-.2-.8v-.7l-.2-.8-.1-.1h-.6l-.2-.1-.2-.3-.4-.3v-.3l.3-.5.2-.7v-.6l.3-.8v-.4h.2v-.3l.2-.5.1-.7-.1-.5-.1-.5v-.3l.4-.4.1-.5.1-.5v-.3l.3-.5v-.3l.4-.4.2-.3h.7l.4-.2.3-.1.3-.3.2-.4v-.9l-.2-.5v-2.4l-.3-.4-.2-.8-.3-.2-.5-.2-.7-.2-.3-.4-.4-.2-.4-.4-.4-.3-.5-.1-.3-.5-.3-.3-.4-.4-.2-.1v-.2l.4-.5v-1l-.3-.3-.2-.4v-.5l-.2-.6-.3-.3-.5-.2-.4-.4-.4-.6-.3-.2-.5-.2-.4-.1-.3-.2-.3-.5-.2-.5-.1-.1-.3-.2v-.3l.2-.4.4-.4.3-.4.2-.4.1-.6-.2-.6-.2-.6v-.3l.2-.4.2-.3v-.7l.2-.3v-.5l.1-.3.2-.4.3-.1.2-.3v-.7l-.4-.6v-.5l.2-.5.2-.3.2-.3v-.3l-.1-.2h-.3l-.5-.3-.3-.1-.1-.6v-.9l-.1-.3-.3-.3v-.9l-.5-.3-.2-.3v-.4l.2-.6v-.2l.4-.3v-.3l-.4-.2-.2-.6v-.3l.2-.3.3-.3v-.7l-.1-.2-.6-.2h-.5l-.1-.3-.3-.1v-1l-.1-.6-.6-.4-.2-.5-.2-.5-.1-.3"/><path id="e" d="M133.3 203.1l.3-.1.1-.2.3-.3v-.4l.3-.4.2-.3.2-.4h.3l.2.2.3.2.3.2.2.4.5.6.3.4.2.4h1.4l.3.1.3.2h1l.4-.2h.9l.3-.2.1-.3v-.7l-.4-.4-.1-.3-.3-.2-.3-.1v-.8l.1-.5.2-.3h.1l.5-.1h.1l.5-.4h.2l.3-.2h.4l.3.3.3.1.4-.2.2-.2.5-.4.3-.2.3-.2h.7l.2-.2.2-.1.4-.3.4-.2h.9l.3-.2h1l.4.4.2.1.3.1.1.2v.2l.3.2.2.1h1.1l.4.3h1l.3-.3.4-.3.5-.2.4-.5.2-.2.2-.3h.9l.3-.3.4-.2h.3l.2-.2.2.2.2.2.4.3.4.2h.6l.2-.5.2-.2.4-.3.2-.1.4-.2.3-.2.2-.1.3-.2.1-.1v-.3l-.3-.2-.3-.5-.3-.3v-.7l.1-.3.3-.2.3-.2h1.6l.6-.3h.6l.4-.1v-.8l-.2-.4-.1-.3-.3-.4-.1-.4-.1-.5-.2-.2v-.3l.4-.2.2-.2.1-.2-.2-.5-.4-.7-.3-.6-.3-.4-.1-.1h-.6l-.4.4-.5.5-.7.6-.4-.2h-.6l-.6-.3h-1.8l-.6-.4-.6-.2-.5-.5-.7-.5-.7-.6-1-.5-.7-.4-.5-.3-.3-.1h-1.2l-.3-.1-.5-.4-.3-.3-.3-.3-.2-.5-.2-.4-.2-.6-.3-.4-.5-.1h-.4l-.2-.4v-1.2l.2-.3.6-.3.4-.2.6-.4.5-.5.2-.5.1-.7.2-.3.2-.3-.3-.6-.3-.3-.5-.5-.9-.3-.5.1-.7.2h-.5l-.6-.1-.4-.4-.5-.2h-.4l-.6.5-.4.2-.3.3-.3-.2-.5-.3-.5-.3v-.5l-.3-.5-.3-.6"/><path id="f" d="M96 138.6l-.8-.1-.6-.2v-.2l.1-.9.3-.5v-.7l-.3-.2-.1-.2-.2-.6h-.3l-.4-.4h-.6l-.5-.2h-.4l-.5-.3-.2-.1-.2-.6-.3-.6v-.6l.3-.5.1-.5.3-.4v-.7l-.2-.5-.1-.5v-.3l.4-.5.2-.5v-1.9l.4-.3v-.2l.1-.2.5-.3.2-.3v-.3l.2-.1.3-.4.2-.6.2-.5.2-.3.1-.2h.6l.4-.2.3-.1.3-.2.3-.1.2-.2h.5l.3-.1.5-.4v-.9l.2-.1.4-.2.2-.1.4-.4.4-.4.3-.4.1-.4v-.3l-.3-.5-.1-.2-.4-.4-.4-.3h-.2l-.4-.3v-.2l-.2-.8v-.5l-.1-.2h-.3l-.3.3-.1.2h-1.5l-1.1.2h-5.1v-1.4l-.3-.4v-.4l-.3-.5v-2l.2-.3v-1l.1-.7v-.2h-.5l-.2-.1-.1-.2v-.1l-.4-.2v-.2l-.2-.1-.2.1-.4.2-.3.2-.2.1-.5.2-.4.1H85l-.4.3-.2.2-.3.2h-.4l-.5-.3H83l-.5-.4h-1.1l-.4.3-.5-.6-.6-.1-.4-.2-.3-.5v-.4l.3-.4v-.2l.1-.2v-.2l-.4-.2-.4-.2h-.3l-.5-.5-.5-.2-.5-.7v-.6l.5-.6.1-.5v-.2l-.1-.1-.2-.3v-.5H77v-1.2h.4v-.3l.2-.1h.5l.1-.3.2-.1.1-.2.1-.2h.2l.2-.4.1-.2h.5l.1-.3.3-.1.2-.2.1-.4h.3l.2-.5.1-.2.2-.3v-.3l.2-.2v-.3l.2-.3v-.3l-.4-.1v-1.3l.3-.3v-.7l-.1-.2v-.1l.1-.2.1-.2v-.2l.2-.3.2-.2h.1l.1-.2h.9l.2-.2h.2l.2-.2h.1l.3-.1.2-.1h.7l.3-.2h.6v-.3h.2v-.1l.2-.1.3-.1V89l.3-.1v-.2h1.3l.1-.2v-.1l.3-.1.2-.3h.1l.2-.3v-.1l.2-.1h.1"/><path id="g" d="M89.3 87.5h.2l.3-.3.5-.1h.3V87l.3-.2h.4l.2-.2h.3l.2-.1h.1l.3-.2.1-.1h.1l.3-.2h.1l.1-.2.2-.2v-.1l.1-.2h.6v-.8l.2-.1v-.2l.4-.2v-.7l.1-.3h.3v-.7l.2-.3v-.2H95v-1h-.3v-.6l-.2-.2v-.3h.2v-.2h.3l.2-.3h.8l.2-.1.1-.1.2-.1.3-.1h.2v-.2l.1.1h.3l.3-.2h.3l.5-.3.5-.2.2-.1v-.1l.3-.2v-.2l.3-.1h.6l.3-.2h.5l.2-.3.4-.3.2-.1h.6l.3.3h.2l.3-.3h.6l.4-.4h.2v-.2l.6-.1h.5l.4.2.3.2h.4l.3-.1h.4l.2-.1v-.3l.3-.2.2-.1h.3l.2.1h1.3l.5-.4h.3l.2-.1h.5l.3.5.4.5.4.3.4.1.2.1h.8l.7-.4.2-.2v-.2l.3-.4v-.4l.3-.4v-.3l.3-.1v-.7l.2-.1h1l.2-.2h.1l.1-.2h.3l.6.4h1l.2-.2.3-.2.3-.1.3-.2.3-.4.3-.1.2-.2.2-.2.2-.2.2-.1.1-.3v-.2l.3-.3v-.2l.2-.2.2-.1h.4v-.4l.4-.1V69l.3-.4v-.2l.1-.4h.9l.6-.3.3-.2h1l.2.2h.2l.1-.1v-.3l.3-.3h.6l.3-.1.3-.2v-.3l.3-.1.3-.4.2-.1.3-.3h.1l.3-.5h.8l.5-.6.2-.2.2-.2.4-.3.2-.2.3-.3.3-.2v-.4l-.4-.2v-.2l.2-.1h.8l.2-.3v-.1l.2-.2h.2l.3-.2h.6v-.2l.3-.1v-1.2l.4-.2.2-.2.5-.3.3-.1h.4l.5-.4.3-.4-.2-.1v-.5l.2-.2.2-.2.1-.2v-.8l.2-.2.1-.3.4-.4.5-.2.1-.1.4-.4.3.2.3.2h.4l.5-.2h.4l.5.7h.6l.2.3h.4l.2.2.5-.3h1.1l.3.2h.2l.3-.3.4-.3.2-.3.2-.1.5-.3h1.4l.4-.3h.5l.2-.1.5.1.5.1.5.1h1.7l.4-.1.4-.2h.4V54"/><path id="h" d="M271.8 95.4l.2.1.2.3.1.2.3.6.4.5.2.4v.4l-.2.4-.3.4v1.3l-.2.3-.3.2-.2.2-.4.3-.4.5-.4.5-.2.5-.2.5v.5l-.3.8v.7l.4.5v.5l.1.5.1.5.3.2h1l.3-.2h.1l.4-.4v-.2h.6l.4.3h.6l.3-.5.3-.2.2-.2.5-.6.8-.7.8-.5.4-.3.5-.3.4-.1.7-.3h.9l.3.3.4.4h1.2l.6.2.1.3.4.3.6.2.6.3.2.2h.6l.4-.4.3-.5.5.1.6.2.5.1.4.1.8.6h1l.5.4.5.5.4.2h1.4l.5.2v.1h.3l.5-.2.2-.3.5-.2h.7l.3-.2h.8l.4.3h.4l.2.2v.1l.2.5v.2l.2.1.5-.1.8-.5.4-.5.6-.2v-.2h.3l.3-.4.2-.1h.2l.7.5.5.2h1.1l.6.3h1.5l.3-.5.3-.4.1-.4.1-.2.3-.2.8-.2h.5l.1-.4.3-.6.3-.4.3-.3h.2l.6.5.7.5.6.1.6.2h.7l.5-.2h.9l.4.4.4.3h1.4l.4-.1h.2l.6-.4h.2l.7.3 1.1-.1h.7l.5.1h.4l.4.4.6.2.5.3.4.3.4.3h.6l.5-.1h1.3l.5.1.5.6.4.5.7.5.5.5.5.5.2.3.4.2.2.2.4.2.2.5v.5l-.4.3-.2.4-.6.6v.7l-.3.3-.3.4h-.4l-.2.4v.2h1.1l.5.4"/><path id="i" d="M329 114l.6.6.4.1.3.1h.5l.8.4.6.1.6.2.6.4.3.5.2.4v.3l-.3.4v.2l.4.4.5.3.3.3.5.4.3.3.1.3.3.2.3.4.7.7.2.3v1.3l.3.4.2.4.3.3.2.7.2.2.6.4h1.8l.1.2.4-.2h1l.5.5.5.2h1.5l.3.1.6.2h1.3l.6.1.2.4v.9l.2.1.1.1.2.2.2.1h.3l.4.2.5.3h.9l.4.1.1.3.2.1h.7l.7.4.4.2.3.2.2.4.2.3.2.3v.5l.5.3.2.2.4.4.2.2v.3l-.3.6-.1.8v.7l.4.3.4.5.1.5v1.3l.6.3.4.4.7.3h1.7l.4.1.2.2v1.2l.6.2h.2l.4.3h.2l.2.1.1.2.1.6-.1.3v.5h.1l.4.4v.2l.4.4.2.1.2.2.2.2v.5l.2.4.3.3.5.5v.4l.3.2v.3l-.3.4-.3.4-.2.4v1l.4.1.6.1.4.3.1.2.1.4.3.5v1.1l.2.5.4.5.2.4v.4h.5l.3-.2h.7l.3-.1h.4l.2.4.5-.2.4-.2.3-.1.2-.2.3.1.4.2.1.5h.2l.2.2.3.3.4.1.4.3.2.3.3.2.2.2h.3l.1-.2.2-.4v-.8l.4-.4.1-.2.2-.3v-.7l.5-.3.4-.4.4-.2h1.1l.4-.5.4-.1.4-.3h.5l.2.2.4.2v.1l.3.2h.2l.4.2h.2l.2.3h.7v.2h.3v-.4l.2-.1h.3l.2.3.2.1h.8l.4.3.3.2h.5l.5.3.4.1h.3v-.5l.2-.6v-.2"/><path id="j" d="M385.5 150.7l.2-.5.2-.2h.5l.2-.3.2-.2.2-.3.4-.2.5-.3v-1.3l.2-.3.2-.4.3-.3.3-.4v-.6l-.2-.4-.2-.3-.3-.3-.2-.2-.2-.2v-1l.2-.5.2-.5.3-.5.3-.4.1-.2.1-.7v-.7l-.3-.8-.2-.4-.5-.3v-.3l-.4-.7v-.7l.4-.3v-.4l.2-.4.2-.3.2-.2.4.1h2.1l.4.2.2.1.6-.1.3-.2.3-.4.4-.3.3-.2.4-.1h.3l.5-.3h.4l.5-.1.5-.2h.3l.4-.2h.1l.3-.2v.2l.3.5.1.3.4.3.5.4.2.3.4.2.1.6-.2.6-.5.8-.3 1v.2l.1.4.2.4.2.6.2.4.6.5.7.5.5.1.7.2.6.4.5.2.1.3.1.4.4.2.4.2h1.2l.4.3h.4l.6.5.3.2.5.7.4.2.4.3.2.2.4.3h1.2l.6.3h.4l.2.3.2 1.2.2 1.3.1.7.2.1.1.4.4.3.3.3h.8l.2.4.3.6.2.3.4.3.4.3h.1l.5-.4h.8l.2.2.4.3.4.7.6.5.5.2h.6l.3.4.1.4v1.7l.1.5.2.4v.2l.1.2h.5v-.2l.4-.2.5-.2h4.4l.1.5.1.7.2.4.2.6.1.4.3.2h.1l.6.2.3.1.4.3.3.3h.3l.7-.6h1l.4.1h1.8l.3.1.2.3.3.1h.8l.4.2.3.1.3.4.2.1.2.3h.3l.4.4h.3l.4.2h.4l.4.2h.4"/></defs></svg>