<svg xmlns="http://www.w3.org/2000/svg" xmlns:xlink="http://www.w3.org/1999/xlink" viewBox="0 0 497 279" xmlns:v="https://vecta.io/nano"><style><![CDATA[.B{fill:#eee5dc}.C{fill:#add19e}.D{fill:#cdebb0}.E{fill:#c8d7ab}.F{fill:#f5e9c6}.G{fill:#d6d99f}]]></style><path fill="#f2efe9" d="M0 0h497v279H0z"/><g fill-rule="evenodd"><g class="C"><path d="M9.6 220l13.8 29 8 20.4 20.4 8.3 10.8 4.3 10.8 4.3 10.7-4 12.2-6.8 4.6-3.1-1.7-4.6.6-3.1-1-3.9.2-3.7-.1-3.8.9-2.8V230l.2-19.5v-19l-25 4.8-27.2 4.5-7.3.7-8.2.5-13.7 9.4-4.5 4zM48.3-27.7L48.4 7v16.8l.2 17v6.8l1.3-5.6 3.9-5.3 3.7-5.2 2.7-5.2-.2-5 4.8-2.3 6.1-.5 2.5-5.4 6.2-.9 5 2.3 2-4.5V4.2L81 4l-4.3-7.4-7.4-6.8-10.9-9.1-8.3-7zm0 0"/><path d="M49 47.5l27.8-.1V13l-4 3.1-3.8 4.1-5.9-.2-1.3 3.3-2.3 5-3 5.1-3.7 5-2.5 4.8-1.1 4.1zm-4-78.1l24.4 20.3 3.8 3.2L81 4h2.1l3.9-.9L90.7-1 97.3.8l1.3-2L83-2.8 76.7-8l-11-9-9.9-8-10.1-6.3zm0 0"/></g><path d="M219.5 41l3 2.2h6.3l5 3.4 3.2-.6 3.4-3.4.6-2 2.8-2.5h-4.3l2.5-3.2-1.7-.6 1.3-3.7-6.2 3.2-1.5 3 .8 3.6-.1 3.5-3-2.2.3-4.1-2.5 4.4-1.9-1.4-1-.2h-1.8l-3.7-.8-1.4 1.3zm0 0" class="B"/><path d="M194.3 223.3l3.7 5.4 6.5.6 3.5-4.3-1.4-4.7-5.9-.6-6.4 2.9zm0 0" class="D"/><path d="M191 87.7l3.4 3.4L199 93l2.9 1.7 3.3-2-.4-5.2-.6-5.5-6 2.3-5.8 1.4-1.3 1.6zm5.1-48.4l.7 5 1.8 1 2.4-.9 2.2-.9-2 1.9 1.4 2.6 3.1-5-2.7 4.9 3.3.3 1.1-3.9-.7-5.7-2-5-.4.4-1.7-.3-1.4 1.3-1.6 3-3 1zM242.3 27l5 6 3.7 3.6 3.2 1.1-1-4.6.4-2.3.7-5.2-3.9 2.5v-2l-2.8 3.6h-.3l3.4-4.7-4.5-1.2-1.5-2-1.6 4.4-.8.4zm-63.5 81.2l4.8 3.5 1-4.3.6-2.6 3.8-4.2 4.8-3.6-3-4-5.2 2.7-3.8 4.8-2.5 5.6-.5 1.9zm0 0" class="B"/><path d="M234 111.9l6 5 4.3-3.9 5.4-1.6-2.9-3.4-5-1.8-2.1 3.6-2.9-3.3-2.3 4.5zm0 0" class="C"/><g class="B"><path d="M176.1 80.7l2.4 3.2 5.5 3.3 3-3.9 3.6-.5-.6-5-3.5-.6-4 1.3-2 2.3-.4-2.6-3.8 1.5zM211.2 61l3.4 5.7.9 3.6 2.3-2.2 2 .2 4.4 2 5.9-1v-2l-6.1.4-4-3.5-4.3-3.5-4.4-.1zm9.3.4l2.5.6-.3 1.1 1.1 2.6 3.6.6.6-4.1-1.6-1.8-1.4-1-.2-1.4 2.3 2.5 2-.9.4-2.5 1.2-1.6-1.1-2-2.1 1.8-2-1.4-2.7 3-1.4 1.9v2.4h-1.1zm15.7.1l2.3 1.5-1 5.1 2.2-.3L241 62l2.3-3 2.4-2.3-2.9-1.2-2.5 1.8v-.1l-3.9 3.3-.2.8zm-50.7 44.2l3.5.8 5.4-2.4 4-4.1-4.4-.8-5.7 2.4-2.8 3.8zm0 0"/><path d="M227 54.4l3-.5 1.5.6-2.1 3.5-.6 3.5-.2 5 2.2-1.5 1-5h3.1l.7-2.5-2.3-2.1 1.3-3.6-3.2-.2H228l-.9 2.6zm-95.1 145.2l3.1 4.6 5.7-.4.5-5.5-5.9.3-3.3-.1zM86 .8l4.4-2 5.9.7 1.1-5.6-4.4-.7-3.3 5-3.5 2zM252.4 33l3.1 4.8 2 .8 1.7 1.6 1 .7 1.8-.7-.1-3.9-3.7-4.2-3.3.8-2.2.1zM182 115.3l5.6 3h3.8l-.8-4.3-3.4-2.2-5 1.2v1.1zm0 0"/></g><path d="M148.2 6.7l8.5-4-4-2.4-3.4 2.3-.7 2.5zm0 0" class="E"/><path d="M103 34.7l4 2.6 1.5-.3 1.7-2.4 1.2-.6 3.4 1.3-1.6-2.5-2.8-2-4 2.3-3.2 1.4zM256.2 45l5 3.3 5.1 1.1-3.7-3-.9-3.4-4-1.5-1.2 2.5zM216 54.3h4.6l-2.9.5-.9 1 .6 2v.8l2.3 3.2 2.1-5.4 2.3-.7v-2.1l-2.7-.6-5 1zm0 0" class="B"/><path d="M147.7 49.7l2.7 4.7 1.9.5 1 3.1 2.4-3-1.7-4.6-5-2.3-1.4 1.4zm0 0" class="C"/><path d="M176.9 121l4.3 1.6 1.1-4.4-.5-5.7-3.1.5-1 5.5-.8 1.9zM192.7 4.5l5.7 2-1.8-4.3 3.1-3.4-3-3.7-.9 5.1-1.2.8-2 3.5zm0 0" class="B"/><path d="M170 146l4 .3 2.3-1.4 1.5-2.6.6 2.5 2.4-4.1-3.6.3-1.2-1 2.1-3-2.6 1.7-1.5.4-2.7 3.6h3.8l-2.6 4-2.1-.8zm85-29l3 2.8 4 1.1-1.2-3.7-1.5-5.2-3.6 2zm0 0" class="D"/><path d="M191.5 84.2h6.4l1.3-3.7-5.7-.1-2 3.3zM241.8 37l6.6 2 1.8-2.4-1.2-.9-1.7-2.7-3.9 1.6-1.3 2.2zm0 0" class="B"/><path d="M72.5 276.7h4l3.8.3.4 2.3 3 1 2.1-1-3-3-5-1-4.1 1.5h-1zM150.8 27l.2 3.2 3 3.8 1-2.1 1.7-1.9-.8-4.3-.1 1.5-4.6-1zm0 0" class="C"/><path d="M232.4 60.3l.4 6.1 2.9 2.9 2-2.8-.6-3.5-1.4-2.3-3.3-.5zm3.9-31.7l4.5-1 1.2-3.9V19l-2.3 4.7L238 27l-1.6 1zm-132.3-3l4.7 3.7 2.7-2.5-3.8-3-3.4 1.2zm15.3 211.8l2 3 .7 2.1 4.6.5 1-4.3h-4.8l-3.5-1.5zM187 47.3l3 2.2 1.4 1 2.5-.2v-2.5l-.8-.9-.1-3.6-3.1 1.7-.1 1.8-.4 1.4-1.8-1.4zM173 80l4-2 1.2-2.5.5-3.8-3.7.6-.4 3.3-1.3 4zm-16.8-2.9l4.5 4.6 2.9 2.7 1.3-.7-.7-3.2-4.2-2-3.6-1.7zm0 0" class="B"/><path d="M153.7 8.3l4.6-2.6 2.4-5.1-3.3.8-.7 1.3zM159 1l.7-.6-.6.6zm1.1-1.2" class="E"/><path d="M198.8 12l1.6 1.8 1.6 1.6.6 1 2-1.4 2.4-1.9-3.6-3-1 .6-2.8 1.2-.6-.1zm0 0" class="B"/><path d="M133.2 41.3l3.8 5.4 4.5.2-3.1-4.9-4.8-.8zm0 0" class="C"/><path d="M250.4 47.3l2.1 1.1-.5 2.3 3.2-2.6 1.8-1.2h-3.5l3.3-4.3-2-1-2 2.9-2 2.5h-.4zm0 0" class="B"/><path d="M146.7 8.3l7 4.2 1.2-4-6.7-1.7-1.2.9zm0 0" class="E"/><path d="M241.3 120.7l6.8 2.3 2.9-4.3-4.2.3h-3l-2.5.7zm0 0" class="G"/><path d="M165 119.7l3.8-3 3.2-3-1.7-3.6-2.7 4.6-2.7 4.3zm51.8-63.5l.8 1.8.6.3 1.4 4 1.8-4.2 1.8-4.4-2.5 1.1-3 .3-.7.6zm23.4 39.6l3.5 3.5 4-4.3h-5.2l-2.2.4zm-65.5 4.9l3.3 1.3h1l2-4.1-3.5 2.5-2.5-1.5-.3 1.1zM284.4 46l.4 4.5 2.1 2.3 2.1.7-.9-5.5-3.7-2.3zM159.5 94.2l1.7 3.6 4.4.6 1.3-1-1.6-2.4-3.5-2.1-2.2 1.2zm0 0" class="B"/><path d="M142.7 37.2l4.5.5-.4-3.3-3.8-.4zm0 0" class="C"/><path d="M236.9 98.1l3.4 5.9v-5l-2.8-4.6-.6 3.3zm-27-72.6l1.9 3.3 3.4-1.8-.3-3v-1.6l-2.1 1.6v2.3l-1.6-1H210zm42.6 25.9l.2 2.1 2.3 4.1 1-3.6-.8-4-2.2.5-.5.7zm-54.6 23.8l2.7 4.4.7-2.3 1.5-3.1-3.4-1-1.4 1.5zm0 0" class="B"/><path d="M185 34.2l4.1 2.2 3.4-.6.8-2.7-1.4-.9-3.2 1.2-3.7.7zm3.3-1" class="C"/><path d="M193.3 46.2l1.7 2.5 1 1.5h3.6l.2-1.9-3.7-3.8-2 .4-.8 1.1zm0 0" class="B"/><path d="M160.6 141l3.5.3 1.1 2.7 2.8-1.6.2-2.6-1.7-1.3-2.3.8-3.5 1.5zm0 0" class="D"/><path d="M215.7 25.5l2.4-2.4 1.7-4.5-2-.8-2 3.2.5 2.5-.6 1.5zm-85 55.9l4 2.5.7.3 1.6-3-3.5-1.3L131 81zm0 0" class="B"/><path d="M149.8 158.1l3.4 3.2-.4-4-1-3.5-2 .2v2.8zm0 0" class="C"/><path d="M203.6 32l5.4-.7 2-.1-3-4.4-2.8 1.8 1.6 1-1.1 1.1-1.3.5-.7.6zm0 0" class="B"/><path d="M140.2 52.2l3 5 1.6-.9-1.8-3.9-2.3-.6-.5.3zm0 0" class="C"/><path d="M162 184.9l2.6 3.6 5.3 1-.4-2.5-2.2-3.9-3.8 1.2-1.4.3zm0 0" class="D"/><path d="M170.9 99l3 4.4 1.4-5.1-2.5-4-1.3 3.2-.2.9zm-43.4 75l5.7-.4-3-3.4-2.5 3.5zm58.3-63.6l2.9 1 4-2.4-5.7-.5-1.2 1.7zM167 81.8l4.8.6-.5-3.3-2.5-.6-1.7 2.9zm4.8 29.5l3.7 2.5 1.7-3.2-5.4.2zm0 0" class="B"/><path d="M139.4 80.8l3.9 2.2 3.6 1.7 2.2 3.3 1.9-2.6-1.2-1.4-2.4-3.4h-1.2l-.8 2.4-4.1-1-1.8-1.4zm0 0" class="D"/><path d="M152.4 93l3 1.9.8-3.9-3-2.6.2 3.6-.9.7zm-35.3 152.6l2.6 1.6 2.7-3.2-4.7-.6 2.3 1-2.8.9zm-1.3-160.9l4.5-2.7 3.6-4-5.1 2.5-2.8 3.6zm0 0" class="B"/><path d="M143.9 59.7l1.9 4 1.2 3 .8-2.2-2.4-5H144zm0 0" class="C"/><path d="M135.5 61.9l2.2 4.3 1.7-2 2.3-1.6-6-.8zM197 32.6l4.4-.2-.4-3.2-3-1v3.1l-1 1.2zm12.9-22.1l1.4 1.1 2.6.4 2.1-3.3-4.8.3-1.2.8zM262.3 31l6 2.2-.1-3.1-5.8.2zm-36.1 1l5.5 1.5 1.3-1.3-3.4-3-2.4 2.1-1 .4zm37.5 3.8l3.9.9 1.4-3.2-5.2 1.6zm-95.9 61.9l3.7-1.5.2-2.2-3.7 3.3zM193 22l.6 3.3 2.4.7 1.5-.7.3-2-.6-.5-2.2.2-1.8-1.2zm0 0" class="B"/><path d="M81.8 266.8l2.4 2.6 1.6 5.6 2-.9.2-2.1-2.2-2.4-3.3-2.8zm0 0" class="G"/><path d="M104.9 38.6l3.6 1.8 5-3.5-4.1.9-2.8.8-1.4-.4zm13.3 2.6h4.1l-1.9-4.1-1.4 2.2-.7 1.7zm58.3 8.3l2.5-1.3 2.5.2-.5-3.4-2.6-.4-1 3.7-1 1zm0 0" class="B"/><path d="M185.6 31.9l5.1.1-4.8-2.4zm0 0" class="C"/><path d="M204.3 113.6l4 1.6-1.3-1.8.4-3-3 2.7zm0 0" class="B"/><path d="M157.6 150.4l3.1 3.3.4-2.4-1.3-3.6-2 2-.2.4zm0 0" class="C"/><path d="M221.8 56.1l4.2-2.5.5-3-2 1.6-2.7 3.5zM194 15.2l3 2.1 2.2 1.8-1.4-4.1-3.8-.3zm46.7 19l4.8-2.4-3.2-2.3V32l-1.5 2zM154.6 88l2.9 5 3.6-1.3-2.2-3.7h-4zm0 0" class="B"/><path d="M146 122l4 2.5 2.2-3.9-1-1.1-5 2.4zm0 0" class="D"/><path d="M145.7 58.3l2.2 6.4 1.1-2.6-2.7-4.3zm0 0" class="C"/><path d="M192.5 41l2 1.5 1.2.9 1-3-4-.7v1.2zm8.9 38l4-2-3.2-.6-.7 2.1zm0 0" class="B"/><path d="M140.5 45l3.6 4.2V45l-1.3-2.3-2.1 2.4zm0 0" class="C"/><path d="M211 5.8l3 .2 2.2.8 2.4-.3-5.2-1.9-2.4 1zm-85.7 78.8l3 3.2 1-2.4-2-1.4-2.1.5zm77.6-24l1.8 3h2.2l-1.7-3.8-2.2.7zm0 0" class="B"/><path d="M151-1.3l6.3 2.7 1.1-2.3zm0 0" class="E"/><path d="M69 277.8l3.5 3.3-1.7-4.6-1.8.8zm0 0" class="C"/><path d="M167.6 86l1 2 4.4-1.3-3.8-1.7-1.6.7zM185 42.3l3.4 3.3.8-4.1-2.4-.7-1.8 1.3zm-52 196.9l2.2 2 1.4-1.4-1.5-2.3-2 1.5zm122.1-189l1.2 3.5 3.3-1.7-3.3-2.9-1.1 1zM227 38.5l3 .3.6-3.7-1.8 2.1-1.2.8-.6.2zm18.5 7.5l4.9 1.3.6-2.5.2-2.2-1.6 1.9-2.7.8-1.1.5zm-29.1-32.4l6 .7-4.6-1.2h-.8zM264.8 39l4.4-.2-4-.2zM236 32.2l4.5-2.5-4.5 2zm6.8 71.3l3.8 2.7-1.6-3.9-2.1 1zM195 36.3l5.7-.2-1.7-1.9-4 2zm59.5 11l4.7 3.2.3-2.8-4.5-.7zm-75.7 43.3l4.6-.5-1.8-3.6.4 2.4-3 1.4zm46.7-57.4l2.2 2.3.4-1.8 1.9-.5-3.9-.4h-.4zm0 0" class="B"/><path d="M145.4 109.3h4.3l1.2-2.8.2-2.9-2.2 4.1-2.9 1.5zm0 0" class="D"/><path d="M131.3 176.2l4-1-4 .6zm0 0" class="B"/><path d="M147.3 56.6l3.4 2.2-2.3-3-1 .7zm.9 1.7l.9.4" class="C"/><path d="M204.9 33l2 3 .6.9.6-2.3L205 33zM245 47.2l3 .8 1 2.3 3 1-3-3-3-1.6-1 .3zM134.7 59.9l5.3 2-.5-1.6-4-.7zm54.7-41.7l5.3 1.2-.9-.2-4.2-1.4zm49 25.2l4.3-.2 1.6-2-2.6.8-3.2 1.2zm-31.6-25.3l2.2 2 .8-3v-2.4l-2.3 3.3h-.7zm0 0" class="B"/><path d="M144.1 52l1.6 6.2.3-4-1.8-2.2zm0 0" class="C"/><path d="M215.5 27.7l1.5.8 2.5-1-1.1-3.7-1.2 3.2-1.6.2zm0 0" class="B"/><path d="M150.2 66l2.3 5.5.9-4.9-2.6-1-.6.3zm.6 1.3l.8 1.1-.8-.7zm.7 1.5h.1zm.6.1l.2.3h-.1V69zm0 .1" class="C"/><path d="M203 108.7l2.3 1 1-2-3.3.8zm0 0" class="B"/><path d="M154.5 36.2l3.7.3-2.8-1-.8.7zm0 0" class="C"/><path d="M80.7 274.3l5.1 3 .2-2.3-3.4.2-1.5-3.8-.4 2.4zm0 0" class="G"/><path d="M162.2 78.8l3.8-.3-3.8.2zm-32.5 160.7l1.5 1.7 2.1-.4-2.6-2.5-1 1zm71.5-210.3l1.8 1.3v-5l-.8.2-.8 2.6-.2.7zm-67.5 42.1l3-.3-2.9-.4zm111.8-28.5l5.5-1.3 1.2-1.1-2.4.6-2.3 1-1.8.7zm0 0" class="B"/><path d="M152.5 16.7l4.5-1.2h-3.6l-.9 1.1zm0 0" class="C"/><path d="M157.7 87l3.1-1.2-1.4-1-1.6 2.1zm44.5-37.7l4.1.7-3.8-.9-.2.1zm-65.3 28.2l4-1-3.9.8zM208.4 28l1.8 2 2 1-2-4.2-1.7 1zM143 78.7l4.3-1-2.5-.1-1.7.7zm0 0" class="B"/><path d="M145.4 27.7l4.3.8-4.2-1.2zm0 0" class="E"/><path d="M230.6 65.6l2.4-1.8-1.8-.2-.5 1.9zm-72.3-18.3l3.7.9-.9-2-2.8.9zm0 0" class="B"/><path d="M161.4 152l2.6 5.5 1-1.1-1.4-2.8-2.1-1.6zm0 0" class="C"/><path d="M228.8 43.3l2.4 5.2 1.1-2.3-3.5-3zM215.6 78l4-.6-3.4-.4-.5.5zM139 176.4l2.7-2.4-2.7 2zM213 30l2.3 3-1-2.3.2-2.1-1.4 1.3zm-41.2 49.5l2.2-.5-1.1-2-1.1 2.3zm0 0" class="B"/><path d="M142.5 187.2l1.5.5 4.4-3.6-2.2-1.6-2.6 4-1 .5zm0 0" class="D"/><path d="M162.3 71l3.1 1.6v-2.4l-2.8.3-.2.5zm-2.7 7l5-1-1.6-.6-3 1.6zm-.4-8l3.9-2.1-2.2-.5-1.7 2.4zm0 0" class="B"/><path d="M144.7 49l2.6 2.4.1-3-2.7.4zm0 0" class="C"/><path d="M145 75.4l4 1-1.8-.7-2-.9zm-20.3 6.1l4-3-3.4 1.3-.6 1.6zm8.9 91.8l3-1-3.1.6zm36.3-73.2l3.7 1.5-3.6-1.8zM205 24.5l.4 1.7 1.6.4 1.4-1zm-22.2 41.6l3.8 1 .4-1.8-4.1.6zm12.6-44.2l2.2.6 2.2.3.2-2-4.5 1zm13.3 1.8l3.9-1-2-.9-1.8 1.6zm-3.5-19.2l2.5 4.5-.5-3.5-2-1.3zm-21.7 41.9l4.1.4-2.1-1.5-2 1zm4.6-23.9l3.6-2.5-3.5 2zm14.4-3.8l2.5 1.8.6-3-2.4.7-.7.2zM217 30.3l3.4-.5-.8-1.5L217 30zm0 0" class="B"/><path d="M283.2 35.7l3.9-1-3.3-.4-.5 1.2zm0 0" class="D"/><path d="M116.5 72.2l.9 3.8 1.9-1.6-2.6-2.4zm75.9-43.9h3.3l-2.7-1.1-.6.8zM244 40.2l5.1-.4-2.8-.5-2.2.9zm-21.7-9.5l3.7-.4-1.5-1.3-2.2 1.6zM100.8 53l1.4 2 1.8-1.6 1.4.9-4.3-1.6zm0 0" class="B"/><path d="M158.6 17.7l1.9-2.2-2 2zm0 0" class="F"/><path d="M128.3 189l3.1 2.5-1.3-4.1-1.7 1.6zm0 0" class="D"/><path d="M148.8 44.2l2.5 4.2-.9-3.6zm0 0l1 .8" class="C"/><path d="M123 244.5l2.5 1.8-.9-3-1.6.9zm0 0" class="B"/><path d="M238.1-2.6l2 2.6-1.9-3zm0 0" class="D"/><path d="M203.7 20.8l2.7 1.6.5-2zm0 0" class="B"/><path d="M279.7 45.4l3.5-2.8-3.4 2.7zm0 0" class="E"/><path d="M160.7 60.5l2.3-.4h-2.3zM142 68.4l4.4 1.8-2-1.7-2.2-.3zm0 0" class="B"/><path d="M164.2 2.1l3-1.4-2.8 1.3zm0 0" class="C"/><path d="M186.9 7.5l2.3-3-2.2 2.8zm0 0" class="B"/><path d="M158.2-5l2.9 5.1-1.4-4.1-1.2-1.3zm0 0" class="F"/><path d="M154.1 87.3l2.5-.2h-2.5zm0 0" class="B"/><path d="M159.3 156.7l2.8 2.9.3 1.6-.6-2.2-.3-1.5-1-1.3-1.1.5zm0 0" class="D"/><path d="M201 112.1l2.2-.5-2.1.2zm8.6-93.7l2.2-1.2-1.8-.7-.4 1.7zm0 0" class="B"/><path d="M145.6 44.9l2 .5-1.9-.6zM158.8 145l1.8-1.7-1.8-1.3zm0 0" class="C"/><path d="M161.2 73.7l4.2.7-4.2-1.3zm-14.1-57.3l4.4.6-1.7-1.5-2.5.9zm0 0" class="B"/><path d="M158.5 10.6l2.5 4.8-1.8-5h-.7zm0 0" class="F"/><path d="M143.5 41.7l1.3 5.3.8-2zm0 0" class="C"/><path d="M178.7 109.8l2.6-.5h-2.5zm13.5-74.5l3.2-.4-1.6-1.3-1.6 1.4zm-29.7 67.5l1.7 1.2 1.7-1.8-3.2.5zm0 0" class="B"/><path d="M151.6 58.2l3.9 1.8-3.3-2.1-.6.1zm0 0" class="C"/><path d="M199.2 23.8l2.6-.3-1.2.7-1.4-.6zm-66.4 41L136 66l-2.8-1.8-.3.6zm25.1 2.2l2.6.1-1.1-2.1-1.5 1.7zm0 0" class="B"/><path d="M144.8 108.5l1.7-2.2-.2-2.5-1.4 4.4zm0 0" class="D"/><path d="M222 105.3l2.3 4.2.2-1.7-2.4-2.6zM192.6 20l1.7 1.8 1.3-2.3-2.9.2zm-61.4 223.3l3.2-1.8-3 .7-.2.7zm-31.4-193l3.2 1-3.2-1.5zm121.4-7.2l3.2 1.6-1.9-1.7zm-19.7-20.9l2.2 1.2-.4-2.8-1.8 1.4zm-33.5 69l1.4-1.8-1.1 1.5zm0 0" class="B"/><path d="M156 146.8l1.5 3.2-1-3.1-.4-.1zm0 0" class="C"/><path d="M222.8 38.6l2.6-2-2.6 1.7zm-17.4-22.8l2.6-2-2.6 1.9zm59.2 24.8l4.1-.1-4-.2zm0 0" class="B"/><path d="M146.8 53.4l2.3 1.6-2.3-1.8zm0 0" class="C"/><path d="M222.6 24.6l1.7 1 .5-1.6-2.2.2zm0 0" class="B"/><path d="M157.4 142l2.5.3-1.5-.7.3-3.4-1.1 3.5zm0 0" class="D"/><path d="M158 141l2.6-3-2.6 2.9zm0 0" class="C"/><path d="M208.2 20.6l3.6-.6-3.5.5zm0 0" class="B"/><path d="M153 34.4l2.7-.4-2.4.3zm0 0" class="C"/><path d="M203.8 5.6l1.2-1.3-1.2.7zm-42.3 86.9h3.3l-3-.3zm33.7-73.4l1.8 1.3 2.1.3-3-2.3-.9.6zM204.6 9l1.5 2.6 1.4-1.5-2.7-1.1zm-39 43.9l2.1-.9-2.1.7zm74.8-24l1.6-1.4-1.6 1.1zm-41.3-8.4l2.5-.5-2.5.3zm-17.5 5.3l1.8.5-1.8-.8zm-41 170.5l2.7.6-2.7-.9zM195 32.9l2.5.9-.9-2.3-1.6 1.2zm-64.6 13.8l2.3-2-2.3 1.7zm-2.6 196.9l2.1-1.3-1.9 1.2zm55.3-194.3l1-1-1.1.7zm0 0" class="B"/><path d="M147.7 189.5l3.5-2.3-2.6-2.4-.6 4-.2.5zm0 0" class="D"/><path d="M119.4 78l3.4-3.5-2.9 2.5-.3.8zm78.3-51l3.7-1zM138 68l2.8-1-2.4.8zm75.7-64.4l2-1.1-1.8.8zm27.6 40.6l4.7-1.1-4.5.9zm-138.2 7.7l2.5-.3-2.4-1.1v1.2zm32 125.1l2-2.5-1.9 2.2zm0 0" class="B"/><path d="M152.2 39.6l2.5-3-2.4 2.8zm0 0" class="C"/><path d="M148.7 103.7l1.4-1.9-1.3 1.6zm96.2-56.8L249 48l1-.7-5-.7zM229 26.6l1.8-1-1.9.8zm0 0" class="B"/><path d="M159 4.6l2.4-3.6-2.3 3.4zm0 0" class="F"/><path d="M124.3 236.3l.2-.6zm0 0" class="B"/><path d="M154 14.6l2.6-2zm0 0" class="C"/><path d="M143.3 196.2l2.2-1-2.1.8zm34.1-111.4l3.7 1.1-3.4-1.2zm0 0" class="B"/><path d="M150.4 46.7l.8-1.4-.8 1.2zm0 0" class="C"/><path d="M148 67.8l1.8 1.2-1.8-1.5zm0 0" class="B"/><path d="M153.7 44.4l3.1 2.8-2.6-3.2zm.9 1.6" class="C"/><path d="M244 41.8l2.2-.8zm-19.2 2.6l3.2.4-2.8-1.5-.3.9zm0 0" class="B"/><path d="M156.6 143.5l1.8-1-1.6.7h-.2zm0 0" class="C"/><path d="M238 44.6l4.1.6-4.2-.8zM126 89l3-.4-2.8.4zm0 0" class="B"/><path d="M160.5 5.6l4.1-1.8-4 1.7zm0 0" class="C"/><path d="M208.2 24.7l1.8-.4-1.7.2zm0 0" class="B"/><path d="M150 29.4l1.3-2.4-1.1 1.3zm1.2-.9h.4zm.5-.5" class="C"/><path d="M201.8 18.2l1-1.8-1 1.6zM132.4 79l.6-1.4-.6 1.2zM197 13.9l.6-1.5-.6 1.2zm0 0" class="B"/><path d="M154.6 9.4l.2-.8zm0 0" class="E"/><path d="M186.3 68.9l2.5-1.4v-.8l-2.4 1-.1 1zm11.1-42.6l2-1.3-2 1.2zm0 0" class="B"/><path d="M153.6 56.6l1.2-1-1.1.8zm0 0" class="C"/><path d="M153.6 56.6l1.2-1-1.1.8zM150 111l1.5 1-.4-1.7zm0 0" class="B"/><path d="M151.4 42.8l2.1 1-2-1.2zm0 0" class="C"/><path d="M167 83.7h1.6l-1.6-.2zM239.4 39l1.8-2-1.8 1.7zm-40.7-27.8l2-1.2-1.7 1zm0 0" class="B"/><path d="M150.3 30.3l.3-.3zm0 0" class="C"/><path d="M211.4 31.3l1.8-.1-1.5.2zm-6.3-19l2.4-.5-2.2.4zm-60 73.5l1.7-.3h-1.6zM203 31l.4-1.5-.4 1.2zm0 0" class="B"/><path d="M153.6 145.7l2.9 3-1.7-3-1.2-.1zm0 0" class="C"/><path d="M128 240.4v-.7.6zm22.8-173l.1-.8v.6zm9.7 36.9l.7-1.3-.7 1.2zm0 0" class="B"/><path d="M165.6-1l2.4.4-1.7-.8zm0 0" class="C"/><path d="M165 100.2l.3-.3zm0 0" class="B"/><path d="M147.8 46l1.8 1.5L148 45l-.2.8zm0 0" class="C"/><path d="M176.2 109l.8-2.5-.7 2.2zm0 0" class="B"/><path d="M149.7 37v-.2zm.3-1l2.5 3-.6-2.1" class="D"/><path d="M145.5 44l1.2-2.8-1 2.8zm0 0" class="C"/><path d="M172.8 108.9l1.7.4-1.5-.7zm0 0" class="B"/><path d="M195.4 30l1.2-1.3zm0 0" class="C"/><path d="M278 43.3l2.4-1zm0 0" class="E"/><path d="M156.8 45.8l2-.5-.3-.8zm0 0" class="D"/><path d="M146.8 34.3v-1.5V34zm0 0" class="C"/><path d="M231.5 30.3l.5-1.1-.5.8zM187 24.2l2.8-1-2.7.8zm53.9 15.1l.4-1.2-.4.9zm0 0" class="B"/><path d="M141.3 47.8l.7-.4-.7.2zm0 0" class="C"/><path d="M139.6 119.9l3 1.5-1.8-1.4-1.1-.2zm0 0" class="D"/><path d="M155.9 69.2l2.3-1zm.3-54.5l1.1-.5-1.1.2zm67.4 28.7v-.5zm0 0" class="B"/><path d="M159.6 157.7l1.3 1-1.3-1.1zm0 0" class="D"/><path d="M155.5 17.7l1.4-1.6zm0 0" class="C"/><path d="M187.3 51.8l.2-.9zm0 0" class="B"/><path d="M153.8 147.6l2.8 4 .6-.8-3.2-3.1zm0 0" class="C"/><path d="M178.5 50l1-1.4-1 1zm92.1-11.6l.2-.4zm-80.8-15.6l1.2.4-1-.6zm0 0" class="B"/><path d="M136.4 35.7l.8 1zm27.1-34.1l2.3-2.2zm0 0" class="C"/><path d="M201 21v-.2zm-15.7 3.5l.9-2.1-1 2zM166 68.4l.1-.4zm0 0" class="B"/><path d="M160.7 148l1.1-1.2-1.1.7zM138.2 47.7l2.9.8-2.8-.8zm8.8-12.2l1-1.5-1 1.3zM276 47v-.4zm0 0" class="C"/><path d="M204.6 16.3h1.4-1.3zm-4.5-10.5l.9-.7-1 .5zm0 0" class="B"/><path d="M151.9 42.4v-.1zm0 0" class="C"/><path d="M158 101.5l2.4.6-2.2-.9zm0 0" class="B"/><path d="M264.4 52l2.4-.9-.8-.3-1.5 1.2zm3.5-2" class="D"/><path d="M186.6 161.7l.4-.5-.3.3zM171.4 45.8l1.4 1.1-1.3-1.2zM268 31.3l.4-.4-.4.2zm0 0" class="B"/><path d="M167.5 43.3l1-1.3-1.1 1.2zm0 0" class="C"/><path d="M159.5 109.3v-.2zM214.7 29l.7-.8-.7.6zm-42.5 20.2l1.5-.6-1.4.6zm0 0" class="B"/><path d="M154.1 47l.6-.3-.5.2zm0 0" class="C"/><path d="M134 67v-.3zm16.2 2.4l.9-.2h-.8zm0 0" class="B"/><path d="M155.1 32.7l.9-1-.8 1zm0 0" class="C"/><path d="M205.7 19.9l.4-.9-.3.7zm-9.1 8.8l1.2.1-1-.3zm0 0" class="B"/><path d="M158 158.5l.3-.2h-.3zm0 0" class="D"/><path d="M156.2 144.9l.2-.7-.2.6zm0 0" class="C"/><path d="M201.3 25.6l.3-1zm-43.2 16.3l1.4 2.4.7-1.2.4 2 .9-1.7-3.3-1.6zm-1.5 23.5v-.2zm0 0" class="B"/><path d="M141.6 39.9l1.7-.5-1.6.6zm0 0" class="C"/><path d="M142.1 107.1l1.4-2.1-1.3 2zm0 0" class="D"/><path d="M158 103.7l.4-.3zm-4.5-33.3l.2-.4-.2.2zm0 0" class="B"/><path d="M141.6 42.1l.5-.6-.5.5zm9.7 5.4l1.5.1-1.3-.2zm0 0" class="C"/><path d="M203.3 15l.2.4zM136 78.2l.1-.2zm3 119v-.2zm35.8-157.8l1.1-.5-1.1.4zm25 70.8v-.2zm1.7-106.6l.5-.3-.4.1zm0 0" class="B"/><path d="M153.4 58l.4-1-.3 1zm0 0" class="C"/><path d="M125 59.9l.3-.2zm0 0" class="D"/><path d="M164.1 44.8l.3-.3-.2.2zm31.3-31.2v-.3zm0 0" class="B"/><path d="M140.6 40l.4-.5-.4.3zm0 0" class="C"/><path d="M170.5 50.8l.5-1.2-.4 1.1zm0 0" class="B"/><path d="M140.9 39v-.3zm0 0" class="C"/><path d="M185.7 25.6h1.2zm0 0" class="B"/><path d="M149.8 30.9l1.2 2.3-1.2-2.5zm111.7-10.4v-.3zm0 0" class="C"/><path d="M196.1 37.7l.1-.2zm-26.5 18.1l.6-.2h-.6zm-.2 29.1v-.1zm0 0" class="B"/><path d="M156.6 11.2l.5-.1h-.4zM158 17v-.2zm0 0" class="C"/><path d="M261.6 59.4l1.4-1.2-1.3 1.1zm1.4-.9" class="D"/><path d="M138.3 9h4.2l-1.8 1.7-2.3-1.7zm0 0" class="B"/><path d="M279 44.5l.4-.5-.4.4zm0 0" class="E"/><path d="M279 44.5l.4-.5-.4.4zm0 0" class="C"/><path d="M241.3-1.4l.6-1-.6.5zm0 0" class="D"/><path d="M176.2 51.8l1.5-.3-1.4.2zm-27.4 15.3l1 .4-1-.5zm0 0" class="B"/><path d="M140 51.6v-.1zm0 0" class="C"/><path d="M227 42.8h.3zm-78-19.2l2-.6-2 .4zm0 0" class="B"/><path d="M272 44.8l.2-.8zm1.7-.9h.2zm.3.1h.3zM155.6 12.5l.1-.3zm0 0" class="C"/><path d="M208.6 111.1v-.1zm0 0" class="B"/><path d="M150.5 42.4l.4-.2zm.4-8v-1.5 1.4zm0 0" class="C"/><path d="M175.4 105.1l1.2.2-1.2-.3zm-14.1-13.9V91zm2.7-58.8l.7.1.2-2-.8 1.8zm0 0" class="B"/><path d="M139.1 48.6l2.3-.1h-2.2zm0 0" class="D"/><path d="M278 46.7l2.2 1-1.9-1.4-.3.3zm0 0" class="G"/><path d="M23.1 260.3l.4-.4h-.3zM275.5 45v-.2zm0 0" class="C"/><path d="M140.1 85.5v-.2zm0 0" class="B"/><path d="M152.2 42.5l1.4-.6zm0 0" class="C"/><path d="M148.2 58.3V58zm0 0" class="B"/><path d="M154 14.2l3.3-3.5-3.1 3.4zm0 0" class="C"/><path d="M156.4 72.2l1.1-.4-1 .2zM150 16.5l2-.8-2 .7zm121.2 24.3v-.2zm0 0" class="B"/><path d="M146.7 30l1-.5-1 .3zm0 0" class="E"/><path d="M278 43l.2-.5zm0 0" class="C"/><path d="M171.2 90l.1-.3zm-12.5 20.4v-.2zm9.5-56.4l3.1-.5h-2.7l-.3.3zm0 0" class="B"/><path d="M139.4 38.9v-.5zM159 8.2l1.2-2zm0 0" class="C"/><path d="M164 43.8v-.1zm30-27.5V16zm0 0" class="B"/><path d="M153.3 49l.4-.2zm0 0" class="C"/><path d="M190.1 15h.2zm78 18v-.1zm1.7-2.2v-.1zm0 0" class="B"/><path d="M161.4 148l.6-1.6zm0 0" class="E"/><path d="M173.6 52.9l1.1-.7-1 .6zm0 0" class="B"/><path d="M144.3 41.5l.2-.2zm0 0" class="C"/><path d="M174.3 47.6v-.2zm0 0" class="B"/><path d="M261.3 57.7v-.1zm.7.2" class="D"/><path d="M185.2 51.4v-.2zm0 0" class="B"/><path d="M278.2 47.8v-.2zm0 0" class="C"/><path d="M134.5 103.2v-.2zm37.1-28.4l2.2-.3-2 .3zm-10-5.3l1.5-.4zm0 0" class="B"/><path d="M161.4 89l.9.3-1-.3zm0 0" class="C"/><path d="M161.4 108.2h.2zm7.7-68V40zm-5.4 70.5l.1-.1zm0 0" class="B"/><path d="M158.1 14v-.2zm0 0" class="C"/><path d="M134.4 119.8l.2-.5-.2.4zm59.7-106.1v-.4zm-44.8 60.4l.1-.2zM208 11.6l.2-.2zm0 0" class="B"/><path d="M150.5 40.6l.1-.2zm0 0" class="C"/><path d="M181.7 52.8v-.2zm0 0" class="D"/><path d="M195.3 16.5v-.1zm-23.8 36.6l.8.2zm0 0" class="B"/><path d="M192.6 29.6l.4-.3zm82 14.8l.2-.2zm-129.9 6.9l.3-.3h-.1zm0 0" class="C"/><path d="M279.6 46.2l2.3-1.6zM149.4 28.8l.3-.3-.3.2zm0 0" class="D"/><path d="M169.2 48.1l.3-.5-.3.4zM179.3 23v-.3zm0 0" class="B"/><path d="M157.3 14.2V14zm0 0" class="C"/><path d="M210 110.3v-.2zm-75.7-73.9l.3-.9-.3.8zm1.8 14l.9-.3-.9.2zM169 52h.2zm0 0" class="B"/><path d="M272.4 42.2l.6.1-.5-.2zm-119.9-7.5l.5-.2zm0 0" class="C"/><path d="M136.9 42.5l1.1.5-1-.5zm0 0" class="B"/><path d="M158.7 24.4l.2-.4zm-9 7.2h.3l-.2-.1zm8.5-6l.2-.6zm-9.2 7.9l.3-.2zm0 0" class="C"/><path d="M105.5 49.7h.1zm0 0" class="B"/><path d="M159.6 5l.2-.2zm.5-.4" class="E"/><path d="M167.3 15.7l1 .2-1-.5zM277.5 58l.9-.6-.9.5zm0 0" class="B"/><path d="M266.5 50.2h.1zm0 0" class="D"/><path d="M172.8 82.8v-.1zm-39-57.8l2.2-2.1-2.1 1.9zm90.8 16.5l1 .6zm34.4-9.7l.5.6-.6-.7zm0 0" class="B"/><path d="M155.2 144.3v-.1zm0 0" class="C"/><path d="M160.6 89.8l.1-.1zm7.9-37.2V52v.5zm0 0" class="B"/><path d="M155.3 144.7h.4zM280.7 43h.3zM278 57.3v-.1zm0 0" class="C"/><path d="M152.8 21.7v-.2zm305.6 4.9h1-.7zm-251.1-7v-.1zm0 0" class="B"/><path d="M153 48.6l.7-.5zm0 0" class="C"/><path d="M182.5 53.2h.2zm0 0" class="D"/><path d="M142 5.8v-.1zm66 4.6v-.1zm-66.3 0l1.5-1.8-1.2 1.6zm13.7 61.3l.3-.3-.3.2zm5.2-61.7l2.8.7-2.2-.2-.6-.6zM157 71.3h.2zm59.9-68v-.1zm-31.2 50.3v-.1zm-30.8-8.8v-.1zm0 0" class="B"/><path d="M147.4 32.3V32zM3.1 233.6h.2zm0 0" class="C"/><path d="M180 62.9h1.3zm0 0" class="B"/><path d="M162.8 2.8v-.1zm0 0" class="C"/><path d="M159.3 28l1.2.8-1.1-.9zm0 0" class="B"/><path d="M142.7 39.3v-.1zm14.8 113.8v-.1zm0 0" class="C"/><path d="M263.8 51.8v-.1zm0 0" class="D"/><path d="M156 2.1l2.2.3-2-.4zm4.7 147.9l.5-.2-.5.1zm0 0" class="C"/><path d="M155.2 64.7v-.1zm0 0" class="B"/><path d="M276 42.6l.3-.2zm0 0" class="C"/><path d="M170 25l1.3 1.7-1.2-1.7zm0 0" class="B"/><path d="M275.4 43h.4zM155.2 3.7l.9.6-.6-.3zM147 43.4l.4-.4zm0 0" class="C"/><path d="M165.3 67.3V67zm0 0" class="B"/><path d="M150 29.7v-.3zm-3.2.5h.3zM157.3 63l.3-.2zm0 0" class="C"/><path d="M148.8 6.2v-.1zm0 0" class="B"/><path d="M179 57.4v-.1zm.5-1.4h.3zm.1 0" class="D"/><path d="M272.7 43.5h.7-.4zm0 0" class="C"/><path d="M159.5 27v-.1zm0 0" class="B"/><path d="M279.2 44h.2zm0 0" class="C"/><path d="M180.6 23.6v-.1zM187.2 7v-.1zm-28.1-6h.1zm-14.4 34.7l.1-.4v.3zm0 0" class="B"/><path d="M140 38.8h.2zm0 0" class="E"/><path d="M162 103.3v-.2zm0 0" class="B"/><path d="M155.5 17.7l1.2-2zm0 0" class="C"/><path d="M150.5 3.7v-.2zm0 0" class="B"/><path d="M153.2 46.4h.2zm-3.7-14.6v-.2zm0 0" class="C"/><path d="M149 29h.1zm0 0" class="E"/><path d="M153.5 64v-.1zm15.3-36.2l.4-.4-.2.3zm0 0" class="B"/><path d="M148.2 53v-.1zm0 0" class="C"/><path d="M134 123.8v-.1zm0 0" class="B"/><path d="M150 34.6l-.1.1zm0 0" class="C"/><path d="M173.2 27.7v-.1zm0 0" class="B"/><path d="M150.7 41h.3zm10.6-37.5l.1-.1zm0 0" class="C"/><path d="M195 18.5l.2-.1zm-39.9 5.3l.3-1.1-.3.9zm0 0" class="B"/><path d="M148.6 35l.4-.4zm129.1 8.2h1.6-1.4zm-130.9-11v-.5zm5.6 2.4v-.1zm-3.2 19.9h.1zm-1.3-2.3l.1-.2zm0 0" class="C"/><path d="M187 7.3V7zm0 0" class="B"/><path d="M157.6 9l.2-2.4zm0 0" class="E"/><path d="M167 40.8v-.1zm0 0" class="F"/><path d="M152.1 69v-.2zm0 0" class="B"/><path d="M153.6 43.7v-.1zm-7-13.2v-.1zm0 0" class="C"/><path d="M159.1 6v-.3zm0 0" class="E"/><path d="M175 55h.2zm-20.5-1.8l1 .7-1-.8zm0 0" class="B"/><path d="M159 157.9v-.1zm0 0" class="D"/><path d="M151 77.5v-.1zm21.3 6.1v-.2zm0 0" class="B"/><path d="M161.8 3.6l.4-.7zm0 0" class="C"/><path d="M165.1-2l5.4 2.6-5-2.5h-.3zm-10.9 49.8v-.1zm0 0" class="E"/><path d="M23.7 266.8v-.2zM146.8 31.7V31zm0 0" class="C"/><path d="M111 61.1h.2zm29.2-19.5h.6zM151 77.2V77zm0 0" class="B"/><path d="M150.4 45v-.1zm0 0" class="C"/><path d="M147.6 8.7v-.2zm0 0" class="B"/><path d="M149.6 41.6l.6-.7zm-6.6 8.3h.3zM191 32h.2zm0 0" class="C"/><path d="M148 41.7v-.1zm0 0" class="E"/><path d="M158.3 26.9v-.1zm0 0" class="C"/><path d="M138.5 40.9v-.1zm0 0" class="B"/><path d="M156 146.3h.3zm0 0" class="C"/><path d="M134.7 25.4h.1zm0 0" class="B"/><path d="M155.1 145.5h.1zm0 0" class="C"/><path d="M280.2 48.4v-.2zm-137.6-9.1v-.2zm-14-1.6v-.1zm0 0" class="B"/><path d="M157.5 9.6v-.1zm8.5-5.4h.4zm0 0" class="E"/><path d="M153.4 10.7h.1zm0 0" class="B"/><path d="M152 39v-.2zm0 0" class="E"/><path d="M144 50.3h.2zm0 0" class="C"/><path d="M107.6 63.7v-.2zM136.1 48v-.1zm19.3 23v-.2zm15.1-22.2v-.1zm0 0" class="B"/><path d="M151 39.2l.4-.5zm0 0" class="E"/><path d="M147.5 48.8v-.2zm6.6-1.9v-.1zm0 0" class="C"/><path d="M176.8 52.7v-.1zm11.8-46.9v-.1zm-37.1 63v-.1zm0 0" class="B"/><path d="M150 34.4v-.1zm0 0" class="C"/><path d="M151.2 28.5v-.1zm-2.6-22v-.2zm0 0" class="B"/><path d="M153.2 35.6h.1zm0 0" class="C"/><path d="M144.9 3.3l.1.2zm0 0" class="B"/><path d="M151.4 38.6l.2-.3zm-7.4.1v-.1zm0 0" class="C"/><path d="M106.3 265.4v-.1zm0 0" class="F"/><path d="M146.3 39.2V39zm0 0" class="C"/><path d="M188.9 5.6v-.2zm0 0" class="B"/><path d="M173.3 27.7v-.1zm0 0" class="C"/><path d="M147.5 8.7v-.1zM144.8 4h.2zM169 76.2v-.1zm0 0" class="B"/><path d="M194 30.2h.2zm-44.2 11.9l.2-.1zm0 0" class="C"/><path d="M160 26.9v-.1zm0 0" class="B"/><path d="M160 10.5l.6.7zm0 0" class="C"/><path d="M158.3 26.3h.1zm0 0" class="B"/><path d="M153.2 40.3v-.1zm0 0" class="C"/><path d="M129.7 39l.3-.2zm0 0" class="E"/><path d="M150 30v-.3zm-1.6 11.5h.1zm14-39.3V2zm0 0" class="C"/><path d="M160 143h.2zm0 0" class="D"/><path d="M23.4 260.9h.2zM141.2 39.5h.1zm0 0" class="C"/><path d="M119.4 62.3h.1zM138.7 51v-.3zm16-24.7V26zM116.9 65v-.2zm0 0" class="B"/><path d="M158.2 19.3v-.1zm0 0" class="C"/><path d="M154.4 31.8l.3-.2zM179.6 54v-.2zm0 0" class="D"/><path d="M157.8 31v-.2zm0 0" class="B"/><path d="M149 42.7l.2-.4zm0 0" class="C"/><path d="M134.6 25v-.3zm0 0" class="B"/><path d="M146.3 39v-.2zm0 0" class="C"/><path d="M139.1 41h.1zm0 0" class="B"/><path d="M149.8 41.7v-.2zm116.4 9.6v-.1zm0 0" class="C"/><path d="M161.9.9V.7zm0 0" class="D"/><path d="M158.8 8.2V8zm0 0" class="C"/><path d="M136.9 39.4v-.1zm0 0" class="B"/><path d="M147.5 47.8v-.3zm9.5 98.8v-.2zm-7.4-116h.2zm8 119.8v.1zm-.8-4.3h.2zm0 0" class="C"/><path d="M147 39.1h.2zm0 0" class="D"/><path d="M157.4 62.7h.1zm0 0" class="C"/><path d="M181.9 64.8v-.1zm0 0" class="B"/><path d="M141.7 40h.1zm0 0" class="E"/><path d="M186.5 33.2h.1zm0 0" class="C"/><path d="M161 3.2h.1zm0 0" class="E"/><path d="M162.2 1.5v-.1zm0 0" class="C"/><path d="M151.4 62v-.1zm0 0" class="F"/><path d="M150.2 42.1l.5-.1zm0 0" class="C"/><path d="M274.6 43.5h.1zm0 0" class="E"/><path d="M138.4 43.8v-.2zm0 0" class="B"/><path d="M148.2 38.1l.2-.1zm0 0" class="E"/><path d="M151.9 37.3l.1-.1zm0 0" class="C"/><path d="M129.6 39.7v-.1zm0 0" class="E"/><path d="M156.4 11l.1-.2zm0 0" class="C"/><path d="M159.3 6.6v-.1zm0 0" class="E"/><path d="M149.5 37.1h.1zm0 0" class="D"/><path d="M149 54v-.2zm-3-15.4h.2zm0 0" class="C"/><path d="M167.8 2v-.2zm0 0" class="F"/><path d="M261.6 59.4v-.1zm0 0" class="C"/><path d="M146.3 39v-.2zm0 0" class="B"/><path d="M157.3 10.7h.2zm0 0" class="C"/><path d="M145 40.2h.2zm0 0" class="E"/><path d="M262.6 34.7v-.1zM157.3 4h.1zm0 0" class="B"/><path d="M161.5 2.4v-.1zm0 0" class="C"/><path d="M129.2 40.4v-.2zm0 0" class="D"/><path d="M145.8 40v-.2zm0 0" class="E"/><path d="M153.7 36.2V36zm1.7-24.2l.1-.1zm0 0" class="C"/><path d="M161.4 3.3l.1-.2zm0 0" class="E"/><path d="M142 47.4h.2zm1.2 1.7l.3.5-.2-.5zm0 0" class="C"/><path d="M149 41.8h.4zm0 0" class="E"/><path d="M149.6 42.9h.1zm-5.7 9.1v-.1zm14.5-41.7l.1-.1zM148 31h.1zm.6.1h.1zm0 0" class="C"/><path d="M148.8 37.8v-.1zm0 0" class="E"/><g fill="#aad3df"><path d="M436.5-6.6l.1.3v1.8l.9 2.4 1.1 1.6 1.5 1.3.5-.6-1.8-1.8-.5-.8-.8-2.3v-1.9l.3-.6.6-.7.6-.3.7-.3h2l.8.5 2 1 1.7 1 2.7.8 1.5 1.2 1.4 1.3.4.3.3.3 1.6 1 1.8 1 1.7 1.1 1.4 1 1 1.2.8 1.2.4 1.3.2 1.1v2.6l.2.4v.6l-.2 1-.4 1.1-1 2.8-.7 2.4-.1.2-.6.3-.3.4-.3.6v2.3l.4.5.6.3v2.3l.1.7.5.5.9.5.7.3h.3l.8-.2 1-.5.7-.3 1-.1h.5l.8.3.9.4 1.8.4 2.4-.2h.8l1.5.6 1 .4.6.8.6.8.7 2.5.7 1.9.4 3.2-.2 2-.4 2.4-.3 2.5.3 2.4.3 1.7.4 1.4.6 1.1.7.9.9.7 1.4.6.8.7 1 .4 1.2.1h3.4l1.5.2 2.1.6 1.3.4.6.3 1.3.3v-1L493 54l-2.8-.9-1.4-.2-1.3-.2-2 .1h-1.9l-1.1-.5-1.3-.9-1.2-.7-.7-.7-.7-1.1-.6-1.7-.4-3.2v-1.1l.3-1.4v-.8l.6-2.7v-1l-.1-2.3-.4-2-.6-1.4-.4-1-.2-.9-.4-1.2-.6-.8-.9-.8-.9-.6-1.3-.3-1-.1h-3.5l-2-.6-.9-.3h-1.1l-.8.3-1.2.7H461l-.7-.2-.5-.5-.2-1v-1.7l.4-2 .3-2v-.7l.7-2 .9-2.9.9-1.9V9.5l-.4-.9-.2-.8V6.7l-.2-1.1-.4-1.3-.9-2-.5-.5-.7-.4-1-.8-3.5-2.2-.7-.7-1.2-.8-1-.5-.3-.4-1.1-.9-.5-.5-2.1-1-1.1-.5-2.6-1.2-1.9-.8-.9-.3-.6-.1-1.1.1-1.2.4-1.1.5-.6.8-.2.3-.2.1zm21.7 27.5v-1.5l.3-.4.5-.3.2.5v.5l-.3 2.4-.2-.2-.3-.4zm0 0"/><path d="M390.9 21v.6l1.3-.2h.5l.5.2.5.4 2.3 1 1 .3 1.3.7.7.4 1.5-.1h2.3l1 .4h1.2l1-.1 1-.6 1.5-1.2.6-.8.3-.6.6-1.4.5-2 .5-1.3.2-.6.6-3.6.3-.7.9-1.8.8-1.1 1.2-2 1.3-.7.6-.5 1.1-.8 1.3-.7.9-.7 1-.5 1.3-.5.6-.3 1.1-1 .6-.1h1l.9-.3.9-.3h1l.9.3.4.4.6 1 .5 1.3.4.9.4 1.2.2.6.6.6 1 .9.8 1 1.1 2.6 1 3 .4.7v.8l.3.3.3.4h.5v.4l.2.3.6.6 1 .7 1.1.3 1.7.3 1.3-.1 1.1-.4.8-.6.6-.7.4-1 .5-1.4.7-2.9v-1.4l-.3-.6-.7-.8-.3-1-.9-1.4-1.3-2-.9-1.4-1.3-1.6-1.7-1.6-.6.6 1.3 1.2 1.7 2 2.5 3.8.8 1.4.7.9.3.6v1.5l-.5 1.2-.4 2.1-.4 1.1-.5.7-.9.7-1 .4h-2.3l-.8-.3-.6-.4-1-1.4-.8-1-.4-.5-.2-.5L436 10l-1-2.3-.5-1-.3-.5-.4-1-.6-.6-1-1-.7-.7-.6-1.3-.7-1-.6-.8-.6-.1-1-.4-1-.3-.5-.3h-1.1l-.4.3-.2.4V0l-1.5.8-1.4 1-.4.2-.5.3-1.1.4-1.5.8-.8.7-.9.5-.6.6-.5.2-.7.5-.4.4-.7 1.2-.3.4-.5.7-1.3 1.6-.2.5-.1 1-.4.8-.4 2.7v.8l-.1.4-.6 1.2-.3 1-.2.8-.4 1.1-.4 1.2-.3.2-1.1 1.1-1 .7-.8.2h-3.9l-1.1-.2H399l-1.8-1.1-.7-.3-.7-.2-1.8-.8-1.2-.4-.8-.1zM425.8-.2v-.4l.2-.4h.6l.4.3 1 .6-1.5.1h-.5zm6.6 6.2v-.4l.2-.6h.4l.1.2.3.3.3.6-.7.1h-.5zm1 .8l.2-.2h.3l.3 1.3-.7-.9zM86.6 6h.4l.1-.5V5l.3-.6v-.7l.4-.9.5-.8 1.1-1 .3-.3.3-.3.4-.4.6-.3h.2l.6-.2h.3l.3.2.3.3h.6l2 .7v.1l1.3.6h.2l.2.2h.5l.5.2.5.2.5.2 1 .3 1.4.2h.6l.8-.4 1.2-.9 1-.9.5-.5.4-.2.2-.1.1-.1 1-.6.1-.1.5-.3 1-1 .2-.1v-.2l.2-.2V-3l.3-.5.4-1.2.3-.6h.2v-.1l.2-.6.4-.6V-9l-.1-.4-.1-.2v-.4l-.2-.3-.4-1v-.2l-.3-1v-1.8l.1-.3v-.5l.3-.4v-.5l.1-.3.2-.2.2-.3.2-.2.3-.1.2-.1.3-.1h1.2l1 .3h1.2l.5.2h.2l.2.2.3.2.2.1.2.1.5.3h.7l.9-.1.8-.4.5-.3 1-.3 2.4-1.6.5-.6 1.3-1.8.1-.5.5-1.1v-1l.7-1.2v-1.1l-.2-.6v-1l-.4-.6-.2-.6-.9-.9-.4-.4-.5-1.4-.2-.6v-1.1l.1-.7.5-.9.5-.6.6-.6.4-.1h.7l.5-.2.6-.5 1.2-.9 1-.4.7-.4h.3l.9-.2h1.1v-.4h-1.4l-1.6.1-1 .3-.8.4h-1.4l-.4.4-.4.3-.3.6-.9 1-.7 1.1-.5.7-.3.7-.3 1.2-.1.4v.4l.4.4.4.5.7 1 .7.9.3.3.3.7.2.9-.1 1v1.2l-.2.6-.3.9-.6 1.7-.5.9-.7 1-.5.4-1.4 1-1 .5-.6.2h-.4l-1.2-.5h-3.8l-1.4.1h-1.7l-1 .4-.4.2-.7.7-.4.2-.3.3v.4l.1.5.2.4v1.1l.3.7v.5l.3 1 .1.4.3.9.2.6.1.6v1.6l-.2.2-.1.8-.6 1-.5 1.6-.2.4-.6.7-.7.5-1 .8-1.6 1-.6.2-1.2.2-1.5.5h-1.3l-.8.4H99L98 1h-.8L95.4-.2h-.3l-1.2-.3h-.6l-.2-.1-.7-.4h-1.7l-.7.4-.7.1-.3.1-.1.1-.2.3-.2.1v.5l-.3.2V1l-.2.2-.1.2v.1l-.4.5v.1l-.1.3-.1.2h-.2v.2L87 3h-.1l-.2.4v2l-.2.3v.1zM89 .1v-.2l.3-.1.2-.2 1.1-.3h.5-.1l-.4.2-.3.3-.7.2-.2.4H89zm10.8 1.6l.2-.2 1.7-.3 1-.3.3-.3h.8l.6-.1-.4.5-1.2.9-.5.1h-.3l-.4.4h-.3l-1-.4zm9.3-17.7v-.1l.7-.3.4-.4-.5 1-.4.4-.2-.3zm7.4-.7l.2-.3.6-.2h.6l.7.2 1.1.5-.7.2-.6.3h-.6l-.8-.1zm9.8-20.5v-.3l.5-.3.2-.2h1.3l.7-.2.5-.3-.2.2-.4.4-.7.4-.5.3-.7.1h-.7zm368.3 92.5h.7l.8-.1.5-.2.5-.5.4-.8.3-.6 1-.7.7-.1h.5l.5.6h.7l.8.4.9.3.6.1 1 .3h1.5l1-.3.5-.1h1.7l.8.4.7.4 1.6 1.3 1.8 1.3.8 1 .5.7.6.9.8.5 1 .8L519 62l1.8.9.4.1.7.6.6.3 1 .4 1 .1h.7l.8-.4 1.7-.7.7-.4 1.6-.3h.5l.5-.2.6-.4.2-.4.2-.6v-.4l-1-.6v-.3l-.3-.7v-.5h.3l.2.3V58l.7-1 .1-.2 1-1.4.3-.4v.2l.3-.2.9-1.8.9-.7.8-.7 1-.5.8-.3.7-.3 2-.5 2 .3h1v-.8l-2.1-.2-.6-.1h-1.7l-.4.2-1.5 1-1.2.4-.8.2-.5.2 1.1-.4-.3.5-.4.4-1.3.7-.3.4-.4 1-.3.6-1.3 1.4-1 .7-.4 1.2-.3.8v.5l.1.4v.3l-.1.6v.8l-.1.4-.3.2-1.2.1h-.3l-.1.4-2 1-.6.2h-.8l-.9-.2-.7-.4-1.2-.8-1.8-.8-1.2-.6-1.4-1.3-.4-1.1-.2-.4-.2-.3-.1-.2-.7-.4-.5-.1-2.3-1.6-.7-.6-1.8-1.5-.7-.4-.8-.3-.7.1h-.8l-.6.1-1.6.3-2.6-.3-.7-.2-.6-.4-.6-.4-.4-.4h-1.6l-.5.5-.6.1-.4.4-.3.5-.3.5-.4.5-.3.3-.5.2h-.9zm35.6 6.5l.2-.8.1-.8.7.4.1.2.1.3v.3l-.4.3h-.4zm0 0"/><path d="M362.8 2.6l.6.4.3-.4.6-1 .3-.8.6-.6.4-.4.4-1 2-2.9.3-.6.5-.3 1-.5.6-.4.5-.9.3-.3 1.1-.5h1.7l3.5 1.1.7.3.5.5.3.5V-4l-.4.8v.5l.2.5.4.6.8.6.4.6.6.7.6.5 1 .6.7.2.9.4.7.3.7.7 1 1.4.8.5 1.3.8.6.5.4.6.2.5.1.5v.5l-.3.5-.8.7-.5.5-.4.6-.1.7-.1 1-.2.7-.8 1.1-.5 1.1-.4.7-.5.7-.2.8.1.6.2.4.5.4 1.2.5 1.1 1.2 1 .5 1 .3.7.3V21l-1.2-.4-1-.4-.7-.7-.6-.5-1.2-.6-.3-.3-.2-.3V17l.7-1 .5-1.1.4-.9.7-1 .2-.7V11l.4-.5.2-.5 1-.7.3-.5.3-.6v-.8l-.2-.5-.5-.9-1.2-1-1.2-.7-.4-.3-.8-1-.6-.8-.6-.5-.5-.3-1.2-.4-1.3-.8-.5-.3-.5-.7-.6-.5-1-.8v-.4l-.2-.4v-.6l.3-1v-1.2l-.5-.5-.2-.2-.3-.4-.9-.4-1.1-.3-2.3-.6-1.1-.1h-.7l-1 .3-.9.6-.2.3-.5 1-.3.2-.7.3-.6.3-.4.2-.5 1-1.3 2-1 1.4-.3.6-.5.6-.8 1.4zm0 0"/><path d="M336-.3v1l.6-.1.6.2h.1l.6-.2h.4l1.2.6 1 .5.4.1h.2l1.3.4v.1l.6.3h.2v.2l.2.2.8.4v.1l.9 1h.3v.1l.7.5.9.5.5.4.5.5.6.5.4.2v.1l.2.1.6.2h.5l.1.1h.2l.3-.1h.6v-.2h.1l.4-.3h.1l.4-.1h4l1-.2.3.2h.4l.8-.2.6-.5.4-.2.2-.3v-.1h.3v-.2l.3-.5.6-.1v-.3h.2l.2-.1h.1l.2-.3.2-.2v-.1l.4-.3.1-.2.6-.4-.6-.4-.6.6h-.2v.1l-.4.2-.2.4-.6.6-.4.2-.8 1-.8.4-.2.1h-.2l-.3.1h-.7l-1.1.2h-1.6l-.5-.2h-.9v.2h-1.1l-1 .5h-.9l-.2-.1-.4-.1h-.2l-.1-.2-.4-.3h-.3L347.3 5l-1.2-.7-.3-.3-.4-.4h-.1l-.5-.3-.6-.7-.2-.1-.7-.7-.3-.5-.6-.4h-.2l-.7-.3h-1.4l-.2-.2h-.2l-.7-.3h-.5V0l-.4-.1-.3-.4-.5-.2-1 .2zm-21.6 14.1l.2.5v1l.3.1v.2l.3.7v.4l.3.3.2.7.5.3.8.5h1.3l.3-.1.4-.1.3-.3.9-.2.1-.1h.1v-.1h.2v-.3h.4v-.1l.3-.3v-.2h.5v-.1h.2v-.3h.1l.3-.2.4-.1.2-.1 1.3-.3h.4l1.1-.2.7-.2 1-1.2h.3v-.3l.2-.2.3-.5v-.2l.3-.4h.2v-.1l.2-.1.4-.8.2-.1.2-.2.1-.3h.1l.2-.2h.1l.1-.3h.1l.3-.3v-.2h.2v-.4l.3-.6v-.5l.2-.2v-.4l.2-.9v-.4l.3-.2.3-.9V5l.2-.2h.1v-.2l.4-.7.2-.5.8-1.1.4-.2.2-.4h.2l.2-.5h.3l.2-.1.3-.3h.2V-.4l-.3.4h-.1l-.1.3-.5.2-.8.8h-.2v.3l-.5.1V2h-.2l-.3.4h-.3l-.3.3V3h-.2v.8l-.4.8-.3.4v.4h-.1l-.1.3-.3 1h.2l-.4 1v.2l-.4.7-.2.6-.2.3-.1.2-.2.3-.2.3-.6.7-.5 1-.4.3-.5.3-.3.9-.4.2-.2.4-.2.4-.6.4h-.7l-.6.1h-.7l-.6.2-.7.2-.8.4v.2h-.2l-.2.2h-.1l-.4.5-.3.3-1.4.8h-.3l-.2.1-.8.1h-.8l-.3-.2v-.1h-.3l-.4-.6-.3-.4-.1-.1v-.2l-.3-.6v-.2l-.2-.2-.1-1.1v-.4l-.2-.5zM60 21v.4l.3-.1h.2v-.9l.1-.1v-.1h.3V20H63l.7-.2h.3l.6-.2.8-.2.4-.1h1.4l.8.4.4.2.3.2H70l.2-.1h.1l.2-.4.6-.6.2-.3.2-.2.1-.3.4-.4.3-.4.2-.4.2-.3.1-.2.2-.3V15l.2-.4v-.2l.5-.8.3-.2v-.2l.5-.3h1.3l.2.1h.2l.4.2h1.1l.2-.2.1-.1h.3l.2-.2h1.6l.1.3.2.3.2.5.1.2.3.4.1.3.2.1.1.2h.3l.2.2H83l.3-.4h1.5l.8-.1h.4l.3-.3h.2l.3-.3.2-.2.1-.2.2-.4V13l.1-.4v-1.5l.2-.4v-.4l-.3-.3-.2-.5-.4-.5v-.3h-.2V8l.3-.7V7l.2-.3V6h-.4v.7l-.2.1-.1.6v.2L86 8v.9l.3.1v.3l.3.4.1.3.1.2v.2l.2.2v2.6l-.5.4-.2.2-.7.4-.6.2h-.5l-.8.3h-1.8l-.4-.2-.2-.2-.3-.3v-.5l-.3-.4v-.2l-.2-.2-.2-.3h-.2l-.1-.1h-2l-.5.4h-1.8l-.1-.3-.3-.1h-.1l-.2-.2h-.5l-.2.2-.7.7h-.2l-.2.5-.5.8v.4l-.2.3v1l-.3.3v.5l-.1.1-.7 1.1-.4.4v.1l-.8 1H70l-.2.3h-.9l-.9-.5-.6-.3-.6-.2h-.6l-.6.2H65l-.2.1-.6.2h-.4l-.5.2-.8.1h-1.8l-.1.2h-.1l-.1.1-.1.1v.2h-.2v.2H60v.4zm0 0"/><path d="M47.8 49.2v.5l.2.7v.4l.3.4v.3l.2.4.3.3.5.3.2.2.3.3.2.2v.1l.5.7v1.7l-.2.1-.3.3-.3.2-1 .3.3.4.7-.3h.2l.4-.3.2-.1.2-.3v-.1l.2-.2v-.2l.1-.3V54l-.2-.4-.3-.1v-.2l-.1-.1-.4-.8-.3-.1-.5-.4-.3-.3-.2-.3-.3-.5v-.6l-.3-.6v-.5l.2-.5.1-.1.2-.5.4-.3v-.2l.3-.2v-.1l.2-.5v-.1l.5-1.2.3-.6v-1.5l.1-1.1v-.4l-.1-.8v-.4l.1-.2.4-.6.2-.2.2-.1h.2l.1-.1.4-.1.8-.7 1-1.3h.3l1.2-1.4h.1l.2-.5.2-.4.1-.3.2-.3v-.1l.3-.4.3-.6V33l.1-.2.6-.4.2-.2.3-.2.4-.7.9-.7v-.3l.4-.5v-.3l.1-.4v-1.3l.1-.3.1-.3.2-.1.4-.4.6-.4.2-.5.4-.9.3-.8v-.8l-.3-.3-.2-.4-.5-.4V22l-.3-.6v-.2h-.4l-.2.3.1.1.1.1.1.3.3.4.7.9.2.2v.6l-.3.6-.3.8-.3.3-.1.2-.3.3-.8.7-.3.3v.3l-.1.4v1l-.1.5-.1.3-.8 1v.2l-.4.2-.1.3-.7.5-.4.5v.1l-.2.4-.2.7v.1l-1 1.8-.3.2-.7.8h-.2l-1.2 1.6-.8.5v.2l-.6.3-.7.3-.3.3-.2.6v.4l-.2.6v3.2l-.1.2-.5.8L49 47v.1l-.5.4-.4.5-.1.5zm-35 55.9h1.5l.2-.3h.6l.9-.3.6-.2.7-.4 1.2-.4.5-.3h.7l.8.3h.5l.6-.4h.2l.7-.5 1.7.2.5-.1.3-.3h1.7l.9.8.4.2.7.1.9.7h.1l.7.2.5.4.5.6.2.1.8.3v.1h.2v.3h.2v.1l.1.5.2.2h.1l.1.1.7.3v.1l1 1v.1l.5.6.5.4.2.2.2.3.2.4.2.2.3.3.4.6.1.4.2.4h.2l.5.4.2.1.4.1.4.5.3.1h.6l.2.1.4.3h.4l.3-.3h.3l.4.3.2.5h.4v.3h1l.3.1.4.1h.7l.4-.3.4-.1h.2l.2-.4h.8l.4-.2h.1l.3-.2h1l.6.2h.2l.6.2.5.2h.3l.4.2.6.1h.3l.4.1.3.2h.7l.4.2h.4l.4.2h.4l.6.3h.2l.5.1h2.1l.3.2h.4l.3.2.2.1.2.3.1.4v.3l-.2.4v.3l.3.5v1.1l.2.5v.9l-.1.2v1.3l-.2.1v.4l.2.2.1.1.1.2.1.1v1l.3.5v.6l-.2.3-.2.3v.5l-.2.2v1l.4.3v.7h.1v.3l.2.2v.6l-.3.1v2.2l.1.2.2.2.1.2.2.2h.2v.3h.3l.1.1.2.2.2.2.2.2.2.1.1.1.2.1.2.1v.1l.3.3v.1l.2.2.2.2.1.2.2.3h.1l.2.2h.2v.2h.4l.1.2.2.3.3.1h1.1l.3-.1.2-.2h.2l.2-.3h.2l.2-.2h.2l.2-.2h.8l.2-.2h.2l.1-.1h1.9l.2-.1h.3l.1-.1h.2l.2-.1h.3l.1-.2h.9l.2-.1.3-.1h.2l.1-.3h.7l.2.3.2.2.3.1v.2l.2.1h.1l-.2-.3-.3-.2-.2-.2-.2-.2H75v.2h-.3v.1H74l-.3.2h-.2v-.3l-.1-.3v-.5h-.2v1.2h-.5v.2h-.3l-.2.1h-.1l-.2.2h-2.2l-.2.1h-.3l-.2.1h-.1l-.2.1-.2.2-.2.1h-.1v.1h-.5v.1h-.3v.2h-.3l-.1.2h-.7l-.3-.4-.2-.1-.2-.2-.2-.1-.1-.2H65v-.1l-.3-.2-.2-.4v-.1l-.3-.1v-.1l-.2-.2v-.1l-.3-.2-.1-.1-.2-.1-.2-.1-.2-.2-.2-.2-.1-.2-.2-.1-.2-.1-.1-.2H62l-.2-.4-.2-.1h-.1v-.3l-.2-.1v-2l.4-.5v-.6l-.4-.2v-.7l-.1-.3v-.4l-.2-.1v-.9l.4-.3v-.4l.2-.4v-.4l-.2-.5v-.1l-.2-.2v-.9l-.2-.1v-.1l-.2-.2v-.7l.4-.3v-.2l-.2-.3v-.4l.1-.3v-.4l-.1-.4v-.2l-.3-.3v-.2l-.1-.3v-.3l.3-.3v-.6l-.3-.3v-1.1l-.2-.1v-.3h-.1l-.3-.1v-.1h-.7l-.4-.3h-.2l-.2-.1H58l-.3.2h-.8l-.5-.3h-.2l-.2-.1h-.4l-.2-.2h-.5l-.4-.1h-.2l-.3-.2h-.7l-.3-.2h-.8l-.1-.2h-.3l-.5-.1h-.2l-.5-.2-.6-.2-.3-.1h-.4l-.6-.3h-.4l-.3.4h-.6l-.4.2h-.4l-.3.4H46l-.2.3-.4.1h-.1l-.3.2h-.4l-.4-.4h-.9l-.3-.1-.3-.2-.2-.3-.3-.2-.2-.1h-1l-.4-.2h-.8l-.4-.4-.4-.2-.2-.2-.4-.2-.4-.2-.1-.1-.2-.6-.4-.6-.3-.3-.3-.3-.1-.2-.2-.4-.3-.3-.3-.3-.3-.1v-.1l-.5-.6-.4-.4-.4-.5-.4-.4-.5-.1-.5-.6-.1-.4v-.1l-.3-.3-.9-.3-.7-.8-.5-.3H30l-.6-.5-.7-.4-1.2-.3v-.1l-.5-.3-.1-.4H25l-.2.3h-.4l-.5.1-1.3-.2-.5.3-.6.3-.5.1-.2.1h-.3l-1-.3H19l-.3.3-.3.1-.6.1-.5.2-.3.2-.8.3-.5.2-1.2.4h-.8l-.3.3H13v-.2zm0 0"/><path d="M4.8 104.9l.2.6v.1l.2.4h.4v.1h.2l.8.4.2.5v.4l-.1.6-.4.5-.4.5-.4.6v.3H6v-.2l.3-.4.2-.6.5-.6v-.5l.3-.2v-.5l-.6-.6-.4-.2-.8-.4-.3-.4v-.6l.1-1.1.2-.2.5-.4.6-.3h.1l.9-.2h1v.1l.4.2.2.2.4 1.2.6.5.2.3.6.5.3.1h1.1l.3-.4.1-.1.2-.3v-.2l.2-.1V103l.2-.4.1-1v-1.1l-.1-.5v-.5l-.3-.1-.1-.2-.3-.2h-.9l-1.4.2h-1l-.5-.2-.6-.4-.5-.5-.3-.7-.2-.4.2-.6.3-.4h.4l.1-.3 1.3-.4.4-.3.4-.7.3-.2h.1l.5-.3 1.1-.3h.2l.2-.2.2-.1.3-.4v-.3l-.7.2-.3.5H12l-.4.2h-.2l-.2.1H11l-.5.3h-.1l-.4.4-.5.8-2 1-.5.4v1.3l.6.7.2.2v.2l.3.4.7.4H9l.4.1h.8l.6-.1.2-.3h1.6l.2.3.2.2v.9h.1v.7l-.3.3v.7l-.2.6v1.7l-.3.3-.1.1-.2.1h-.8v-.2l-.5-.4-.2-.2-.3-.4H10l-.3-.7-.2-.3v-.2l-.4-.2-.7-.6H6.8l-.6.3-.6.3-.4.4v.2l-.2.3v.6l-.1.4v.1zm0 0"/><path d="M4.8 104.9l.2.6v.1l.2.4h.4v.1h.2l.8.4.2.5v.4l-.1.6-.4.5-.4.5-.4.6v.3H6v-.2l.3-.4.2-.6.5-.6v-.5l.3-.2v-.5l-.6-.6-.4-.2-.8-.4-.3-.4v-.6l.1-1.1.2-.2.5-.4.6-.3h.1l.9-.2h1v.1l.4.2.2.2.4 1.2.6.5.2.3.6.5.3.1h1.1l.3-.4.1-.1.2-.3v-.2l.2-.1V103l.2-.4.1-1v-1.1l-.1-.5v-.5l-.3-.1-.1-.2-.3-.2h-.9l-1.4.2h-1l-.5-.2-.6-.4-.5-.5-.3-.7-.2-.4.2-.6.3-.4h.4l.1-.3 1.3-.4.4-.3.4-.7.3-.2h.1l.5-.3 1.1-.3h.2l.2-.2.2-.1.3-.4v-.3l-.7.2-.3.5H12l-.4.2h-.2l-.2.1H11l-.5.3h-.1l-.4.4-.5.8-2 1-.5.4v1.3l.6.7.2.2v.2l.3.4.7.4H9l.4.1h.8l.6-.1.2-.3h1.6l.2.3.2.2v.9h.1v.7l-.3.3v.7l-.2.6v1.7l-.3.3-.1.1-.2.1h-.8v-.2l-.5-.4-.2-.2-.3-.4H10l-.3-.7-.2-.3v-.2l-.4-.2-.7-.6H6.8l-.6.3-.6.3-.4.4v.2l-.2.3v.6l-.1.4v.1zm286.8-103l.4-.2h.4l.2-.2h1.1l1.1.5h.2l.2.3h.8l.5.1.3.1.1.1.1.1.5.2.2.4h.3v.2l.8.3.9.6.8.6h.1l1 .6h.2l.3.2.9.3.1.3.9.5V7l.5.1v.3h.1l.6.4h.2l.4.4.7.5h.5l.3.1.7.3.7.4.3.4.5.3.7.3.1.3h.1l.4.2h.2l.3.2h.4l.1.2.8.6h.2v.1l.7.5v.1h.2l.6 1v.1l.6-.4h-.2l-.3-.6h-.1l-.4-.4-.2-.1-.2-.5-.5-.3v-.1l-1.3-.6-.2-.4-.5-.1h-.3v-.2h-.4V10h-.1l-.2-.2-.6-.3-.2-.1-.6-.6h-.3v-.3l-.5-.1-.3-.2V8h-.8l-.4-.1-.2-.2-1.1-.9-1-.4-.2-.4h-.3v-.1l-.3-.3h-.2l-.4-.4-.2-.1-.1-.1-.4-.1-.4-.2-.7-.3-.2-.2-.4-.2-.2-.2-.6-.4-.1-.2-.3-.2h-.4l-.5-.4-.6-.3h-.3l-.5-.3h-.7l-1-.4-.2-.2-.8-.1-.3-.3h-.7l-.5.2-.7.1h-.3zm-74.2 306.7l.2.2.3-.3v-.1h.1v-.3h.4l.1-.1h.2l.5-.2h.5l.3-.3h.2l.1-.2.2-.2v-.1h.1v-.5l-.4-.3v-.2l-.1-.1V304l-.1-.2v-1l.3-.2v-.2l.1-.2h.1l.2-.2h.6l.3-.2h.3v-.1h.1v-.2l.1-.1v-.6l.2-.2v-.4l.1-.2.1-.8v-.7l.2-.2v-.7l.1-.2v-.2l.1-.2v-.3l.1-.4v-.4l.2-.3.2-.2.2-.4v-.2l.3-.4v-1.6l-.3-.1v-.3l-.3-.4-.1-.3v-.1l-.2-.4v-.4h.3l.2-.5.2-.2.1-.2v-1.2l-.1-.2-.2-.3-.2-.3-.3-.2v-1l-.1-.2-.1-.5v-2.4l-.3-.4v-1l-.1-.4v-.1l-.1-.1v-.1l-.3-.5-.2-.3-.1-.2-.2-.3v-.4l.1-.2.1-.1.3-.1.3-.4.4-.2.1-.1.2-.3v-.8l.2-.1v-.2h.6v-.1h.8l.7.5.3.1h.8l.3-.3h.3l.1-.1.1-.2.1-.3v-.6l-.3-.3-.2-.3-.2-.2v-.2l-.3-.3v-.4l-.1-.3v-1.1l.2-.2v-.4l.2-.2v-.1l.2-.3.2-.1v-.2l.4-.2.2-.1.2-.1h.2l.3-.2.5-.2h.2v-.3h-.4l-.3.3h-.1l-.2.1-.5.1-.2.1-.3.3-.6.5-.1.2-.1.2v.2l-.2.4v1.6l.1.4.5.7v.1l.1.1.1.2.2.3v.1l.2.1v.4l-.2.2-.4.2h-1.2l-.4-.2-.2-.2h-1.1l-.5.3h-.2l-.3.2-.1.3v.6l-.2.2-.1.2h-.2l-.1.2h-.3l-.2.4-.2.1v.9l.3.3.1.4.5.7.1.4v1.3l.2.2v3.3l.2.3v.3l.1.2.2.3.1.1.1.2.1.1.2.3v1.2l-.3.3v.1l-.2.1-.2.3v.9l.2.2.1.3.1.2v.2l.2.3v.1l-.1.6v.8l-.3.2-.1.3v.3h-.2v.4l-.1.3v.1h-.1v.8l-.2.5v.2l-.1.2v.8l-.1.1v.7l-.1.5v.9l-.2.1v.4l-.2.1-.1.2-.1.1-.4.2h-.6l-.1.2h-.2l-.1.1v.1l-.1.2-.1.3-.1.3v1l.2.3v.2l.1.1v1.6l.1.2v.2h.2v.6h-.3l-.3.2-.3.2h-.1l-.3.1h-.3v.1h-.6l-.1.2h-.1l-.1.1-.1.1-.2.2zm5.8-13.5v-.1l.2-.8h.1v-.1.9l-.2.1-.1.1zM39 59.1l.4 1 .2.7v.1l.4.4.1.1h.3l.3.4.3.7v.9l-.4.2-.2.3-.1.1-.3.2v.4l-.2.4v.2l-.2.2v.3l.4.3v.2h.2l.4.6.1.1.3.1.3.6.2.4.3.1.6.4.2.2v.1l.4.3v1.1l-.2.3-.2.3-.2.7-.2.5v.1l-.2.5v.7l-.3.2v.6l.2.6.1.2.3.3v.3l.1.1.2.4.1.2.5.7.1.1v.7l.6.3v-.2h.1V77h-.3l-.1-.5-.4-.5H43v-.4l-.5-.6-.2-.4-.3-.4v-.7l.4-.5v-.6h.1v-.2l.2-.2.3-.9.2-.2v-.2l.1-.2v-.2l.3-.5-.3-.4-.2-.7-.3-.3-.2-.4-.8-.4-.2-.2-.2-.3-.3-.4-.2-.3-.1-.1-.1-.3h-.3l-.4-.4V65l.4-.2.2-.3.2-.2.2-.3.2-.2h.1l.1-.4V62l-.4-.5-.4-.5h-.4l-.2-.3-.2-.4V60l-.3-.6v-.6l.3-.3v-.2l.6-.3.3-.3h.8v.2h.2l.1.1.3.5.2.1h.3l.4.2h.4l.3-.3h.9l1.1.3h.7l.6-.3v-.1l.3-.2V58l.3-.3.6-.4.7-.3-.2-.4-.6.2-.1.2h-.4l-.3.4-.3.3-.2.2-.5.4h-.7l-.5-.1-.7-.2h-.6l-.8.2h-.5l-.2-.2-.3-.2v-.2l-.5-.3h-.2l-.1-.2h-1l-.3.4-.3.1-.4.4v.7l-.2.3zm270.6-24.9l.2.4.2.5.4.4.1.1.1.1.7.3.6.4 1.8 2.2h.1l.7.5h.2l.4.4.9.1.3-.2h.4v.3h.3v.2h.3l.5.4v.1l.4.4v.8l-.4.4-.1.1-.5.3h-.8l-.2-.1-.8-.2-.4-.3h-.6l.3.1h-.2l-.8-.3h-.1l-.3.1h-.3l-.4.3-.4.3-.2.3-.1.4v.4l.6.8 1.1 1.5.2-.4-1-1.1-.3-.8v-1l.5-.2h.4V42h.6l.2.4h.8l.9.5h1.4l.1-.2h.2l.7-.6h.1l.2-.3v-1l-.3-.3-.2-.4-.6-.6h-.1l-.5-.4h-1l-.5-.1h.1l-1.1-.7h-.1l-.7-.5-.1-.2-.2-.3h-.1v-.1h-.2l-.1-.2v-.2h-.2v-.1l-.7-.8-1.4-.6-.2-.3-.4-.7.1-.3v-.2l.3-.2.2-.2h1.8l.6-.1h.3l.2-.1h.1V33l.1-.2v-.2l.3-.3v-5.1l.4-.3v-1l-.4-.1-.2.5v.7l-.1.2-.2.6v.1l.2.5v1.2l-.3.6v.4l.1.4v.2l.1.4v.7l-.1.1-.3.3-.2.1h-.7l-.6.3h-1.5l-.3.5zm0 0"/><path d="M12.4 86v.2l.2.4v.1l.4.3.4.3.3.5v2.3l.3.3v1.3l-.2.1-.3.5h-.1l-.2.2v.3l.7-.3.3-.7v-.2l.3-.4v-.3l-.5-1v-.5l.1-.9v-.8l-.1-.2-.3-.4-.2-.1-.3-.2-.4-.4v-.1l-.2-.3.5-.5h.9v.3h.1l.2.1.5.2.6.6v.1l.3.3v.9h.1v.6l.2.6.2.2.1.2.7.6.5.6.5.4.6.2v.3h.3l.1.1v.4l.3.4.2.2.5.4h.2l.6-.1.2-.3 1-1.5.4-.3h2.3l.9-.4.1-.1.3-.1.4-.5v-.2h.1v-.3l.3-.3.2-.3v-.4h.3l.8-.8h.1l.2-.3h.2l.1-.3h.4l.1-.4.6-.3.2-.2.2-.4.4-1.1v-.1l.1-.7V81H30l.2.8v.7l.2.1V84l-.4.6-.1.6-.2.3h-.1L28.2 87l-.7.4-.7.9-.8 1.5-.3.3h-.2l-.8.5-.7.1h-2v.3l-.4.1-.9 1.6-.6.2H20v-.1l-.5-.4-.2-.8-.4-.3-1.1-.6-1.3-1.5V89l-.5-.7v-.8l-.1-.5-.2-.6-1.3-.8-.2-.2-.5-.2h-.8l-.3.4-.2.3zm301.4-63v1.3h.2v1.5l.4.1v-1.5l-.3-.4v-1h.4v-.6l.3-.1.2-.3h1.5v.3h1.3l.7.2h.1l.4.1h.2v.2h1.2l.1-.1h1v-.3h.2l.6-.1h.7l.4-.3h1.1l.1-.1h.6l1.1.7v.1h.2v.3h.3l.1.2.7.2.3.3h.1l.6.2h.4l.2-.1v-.1l.6-.3.1-.3.2-.3V22h-.3l.2-.2h-.1l-.3-.5-.5-.1-.3-.2v-.3l-.6-.6.3.3h.3v-.3h-.3l-.2-.1h-.1l-.1-.2v-.1l-.8-.7v-.1l-.3-.3v-.1h-.2v-.3l-.4-.9v-1.6l.1-.5-.7.2v.4h.2v2.1l.3.5v.1l.4.5.7.8.4.3 1.1 1.3.5.2.2.4.1.3v.7h-.4l-.3.3h-.7l-.4-.3-.3-.1h-.4v-.1l-.6-.4-.2-.1-.4-.4-.5-.4-.5-.2h-1l-.6.4h-.5l-2.1.3v.1h-.5v.1H319l-1.7-.6h-2.7l-.1.4-.5.2v.5h-.3zm0 0"/><path d="M24.3 78v.2l.3.5.4.2.6.2h.1l.6-.1.1-.3h.5v-.2l.5-.3.4-.3h.6l.4.3 1.1 1.8.2.6v.4h.5l-.1-.7-.4-.6-.3-.6-.5-1.1H29l-.3-.5h-.9l-.8.5-.3.3-.3.2-.4.1h-1l-.2-.3v-.1l-.1-.2-.1-.3v-.6l.4-.5v-.3l.2-.3.2-.5v-.2l.4-.1V75l.2-.6v-.1h.2V74l.2-.3.1-.4.6-.7h.2l.3-.2h.6l1 .5v.2l.2.3.1.5.3.7.6.6.1.2.1.1.4.2.5.3.5.4.2.2.8.6.4.3 1 1 .2.3h.4v.2h.5v.1h.8l.2.3.5.4.7.7.3.1.4.7.6.2h1v-.2l.5-.5.3-.8.2-.3h.1l.3-.1h.1v.1h.5l.3-.2.5-.2.2-.3.5-.6h.2v-.2l.1-.3-.4-.2v.3l-.8 1h-.2v.3h-.2l-.9.1-.6.2v.1l-.4.2v.3l-.1.1v.1l-.2.3v.3l-.1.1-.3.1H39V81l-1-.7h-.2l-.8-1-.3-.3h-.2l-.1-.3-1.1-.1h-.2l-.2-.3h-.1l-.4-.3-.5-.5-.6-.6h-.1l-.8-.8-1.7-1-.5-.7v-.1l-.4-.4-.2-.8-.1-.4-.3-.2-.7-.3h-1.3l-.2.1-.2.3h-.1l-.4.2-.2.2v.3l-.3.6-.7 1.3-.3.4v.4h-.1l-.1.6-.3.2v.7zm289.3-32.3l.2.6.4.6v.1l.2.3v.1l.3.1v.3l.2.2.5.4v.1h.2l.1.4.3.4v.1l.4.1.2.6.2.5v1.3h.2v1.4h.2l.3.7h.1l.6.2v.2l.6.1.9 1.2h.2l.3.1.2.2.6.3h.2l.4.4h.6l.6-.2.7-.5h.8l.4.4.3.5V58l-.6 1v1.1h-.1v.5l-.2.1-.3.3H322l-.8.3-.2.1-.2.1v.5h-.5l-.1.4-.2.1-.2.5h.4v-.3l.2-.2.6-.5.2-.3.4-.3h2l.4-.3.5-.1.1-.4v-.1l.1-.2.3-1v-.4l.2-.3v-.3l.1-.2v-.3h.2V57l-.3-.6-.3-.2-.7-.4h-.7l-.7.3h-1l-.4-.3h-.2l-.6-.1-2.5-1.9-.5-.5-.1-.3-.1-.1v-.6l-.3-.4v-1.7l-.1-.2-.1-.3v-.2l-.5-.3-.3-.4v-.2l-.3-.2-.7-1h-.1l-.2-.4h-.1v-.1l-.8-1.6zM279-2.9h1l1.2-.6.9-.1h1.1l.4.4.4.5 1.1 2 .9.7.7.3 1 .3 1 .4.5.5.9.3.8.2h.7v-.7l-.2-.1-.6-.3-.4-.2-1-.2-.7-.1-1.1-.4-.6-.2-.5-.4-.5-.4-.5-.6-.3-.4-.7-.8-.2-.4-.3-.4-.4-.4-.3-.1-.5-.1h-.9l-.9.4-1 .3-.9.2zm11 4.2V1h.6l.9.6h-1l-.3-.3zM319 82h.2l.2-.3.1-.3v-.1l.3-.1.3-.7.2-.8.2-.2.4-.5.1-.2.2-.1v-.1h.4v-.3h.2l.6-.5v.2h.2l.1-.2v-.2l.2-.2V77h.1v-.3l.3-.2v-.3l.1-.1v-.6l.2-.3V75l.4-.3V74l.2-.1v-.1l.3-.6V73l.3-.5.1-.5.1-.5.2-.7v-.3l-.5-.7V67l-.2-.8v-.5l-.3-.5-.2-.2h-1.5l-.7-.2-.1-.2-.2-.1-.5-.7h-.2v-.1l-.3-.3-.2-.1-.1-.1V63h-.4v.2l.5.5 1.3 1.3v.1h.1l.3.1h1.4l.3.1.2.2v.2l.4.7v3.2l.5.8v.5l-.4.8.1.4-.5.6v.1l-.1.5-.2.4v.3l-.2.4-.5.9v.7l-.3.6v.2l-.4.6h-.1l-.4.6-1 .6h-.2l-.2.4-.2.4h-.2l-.4 1h.3l-.2.3-.5.6-.2.4v.1zm-82 78.2v1l.5.5.2.3v.6l.1.4.2.2v.2l.6.2h.6l.8-.3.3-.3.2-.6-.1-.6-.5-.4-.7-.3-.4-.5-.2-.5-.2-.3h-1.1zm-83.6-14.7h.3v.2h.3v-.3h.5v.3h.5v.1h.2v.2h.1v.2h.3v.2h.1v.2l.2.1h.1v.1h.2l.1.1h1.2v-.3h.4l.1-.1h.3l.2-.1.1-.1h.2l.1.3.1.1.2.1h1.3l.1-.2h.5l.4-.1h.3l.2-.2v-.1h.2l.3-.2.2-.2h.2l.3-.3h.2v-.1h.4v-.1h.8l.1.3h.3v.2h.5v.1l.1.1v.3l.2.1v.1l.2.1.2.3h.5l.3-.2.1-.1.1-.2.1-.2.2-.1v-.2l.1-.2.1-.1.1-.2.1-.1h.4l.1-.3h.2l.4-.1h.7l.1.3h.2v.4h-.3v.9h.3v.5l.1.1.1.3h.5v.2l.1.1.1.1.1.2h.3l.1.1.1.1v.1l.1.2h.1v.1h.6v-.2h.4l.1-.2h.2v-.1h.8l.2.3h.3v-.4h.3v-.2h.4l.1-.1h.1l.2-.1v-.1h.1v-.2l.2-.3.1-.2v-1h.3v-.2h.2v-.2h.2v-.3h.9v.3h.1l.1.1h.7l.1-.3h.1v-.1h.8v.2h.5l.2-.3h.4l.3-.3h.2v-.2h.1v-.1h.3v-.1h.2l.1-.1h1.4l.1.3.3.2v.1l.1.1v.2l.1.3.1.3v.2l.3.2v.8l.3.3v.1l.2.1v.6l.3.2h1.7l.4.1h.2v.4l-.1.1v.7h.2v.2l.2.1h.4l.2.2v.1l.2.2.1.1v.6l.1.2.1.1v.1h.1v.4h-.9v.1h-.6l-.1.1h-.2l-.1.2v.3l.3.1v.2l.2.1v.1h.7v.4h.1v1.9h.2v.1h.2v.6l-.2.1v.1l-.1.1v.2h-.1v1l.2.1.1.1v.1h.3v.2h.2v.6h.1v.4l.1.1v.4h.4v.1h.3v.1h.1v.1h.2v.6h.2v.1l.1.1h.3v.2h.1v-.3h-.4l-.2-.2v-.1l-.1-.1v-.5h-.2l-.1-.1-.1-.1h-.5v-.1h-.1v-.6h-.2v-.5h-.1v-.4h-.2l-.1-.1-.1-.1-.1-.2-.2-.2v-.5h.2l.1-.3.1-.3v-.1h.1l.1-.2v-.5h-.3v-.1l-.1-.1h-.2v-2l-.2-.1-.1-.2h-.5v-.1h-.2v-.2h-.2v-.5h.9v-.2h.1l.2-.1h.6v-.1h.1v-.1h.2v-.2h-.3l-.1-.1-.2-.2v-.4l-.1-.3v-.1h-.1v-.1l-.1-.1v-.3h-.5l-.2-.2-.1-.1-.2-.2v-.7l.3-.1v-.1h-.3l-.1-.1h-.1l-.2-.2h-2.1v-.7h-.2v-.3l-.1-.2v-.3l-.2-.3-.1-.3h-.1v-.5h-.2v-.4h-.2v-.4l-.1-.2h-.1l-.2-.2h-.4v-.1h-1.3l-.1.3h-.2l-.2.2h-.2l-.1.1h-.2v.2h-.3l-.2.1h-.8l-.1-.2h-.5v.4h-.2v.1h-.5v-.3h-1.4v.3l-.1.2-.1.1h-.1l-.2.2-.1.1-.1.1h-.1v.4h-.1v.3h.3v.4h-.2v.3l-.3.2v.1h-.2l-.1.1h-.6l-.1.2h-.2v.2l-.2.1h.2l.2-.3v.3h-.5v-.3h-.9v.2h-.2v.1h-.2l-.1.1-.2.1-.1.1h-.2l-.1-.4-.3-.2v-.1h-.4v-.2h-.2v-.2h-.2v-.3h-.2v-.2h-.3l-.1-.2v-.6l-.2-.2v-.6h.2v-.4l-.3-.1h-.1l-.1-.2h-.7l-.3.3h-.4l-.3.2-.1.1-.2.1v.1l-.3.2v.5h-.1l-.1.1-.1.1h-.9v.2l-.4-.2v-.4h-.1v-.2l-.1-.1h-.4l-.1-.2h-.1l-.1-.2h-1.2l-.1.2h-.4l-.3.1-.2.1-.3.3-.2.2h-.3l-.3.2h-.2l-.2.1h-.7l-.2.2h-1l-.3-.3v-.1l-.3-.1h-.2l-.1.3h-.1l-.1.1h-.3l-.1.1h-.5l-.1.1h-.8l-.2-.3h-.1v-.1h-.2l-.1-.3h-.1v-.1h-.4v-.5h-.1v-.1h-.6v-.1h-.2v-.1h-.4v.3h-.4zm7.7 1h.2-.3zm15.8-1.5h.7l.2.3.2.1v.1h-.5v-.3h-.1l-.1-.1h-.3zm-100.1-9.3l.2.1.6.3 1 .3h.2v-.4l.2-.3h.4l.1-.2.2-.2.3-.3.1-.2.9-.3.6-.3.2-.1.2-.3.4-.3.6-.2.7.1 1 .2.4.3.5.5.4.7.2.6.8.4.3.3.3.2.4.4.6.2.8.3.5.2.8.4.8.2h.2l.2.2h.6l.5.1h.3l.5.3h1.6l.2.1h.9l.3-.3h.1l.1-.1.2-.1.1-.2h.1l.1-.3h.3l.2-.3.3-.2h.1l.1-.1h.2v-.1h.3l.1-.1h.3l.3-.1h.2l.1-.1h1.7v.1h.2v.1h.1v.3h.3l.3.2h.2l.2.2h.6v-.3h.2l.1-.1h.3l.2-.2.1-.1.1-.1.2-.1.1-.2.1-.1v-.2h.2l.1-.1.1-.1.1-.1v-.1h.1l.1-.1h.1l.1-.2h.1v-.2h.3v-.1h1.7v-.2h.6v-.1h.2v-.2h.2v-.2h.1v-.1h.2v-.1h.1v-.1h.2v-.2h.7l.1-.1v-.1h.2l.2-.1h.2v.4h.1v.1l.2.1h.2v.1h.4l.1.1.1.1.2.1.2.2v.1h.3v.1h.2v.1h.3v.1h.1v.1h.7l.1.1h.1v.2h.2v.2h.2v.2h.1l.1.2h.1v.3l.2.1v.4h.2v.1h.1v.1h.1v.1h.2v.3l.2.3v.1h.2v.2h.1v.2h.2v.1l.2.1h.5v.2h.6l.1.1.1.1.2.2h.4v.3h.2l.1.1h.1v.2h.2v.2l.1.1.2.2h.1v.2h.2v.1h.4l.2.1.3.3.1.2v.1h.1v.2h.1v.3l.3.2.2.3h.1l.2.1h.2l.1.2h.2l.3.2h.4l.2.2.1.1v-.1l-.1-.1-.2-.1-.1-.2h-.4l-.2-.1-.3-.1-.3-.1-.2-.2-.2-.2-.2-.3-.2-.2v-.3l-.3-.2v-.1l-.2-.2h-.2l-.2-.2h-.3v-.1h-.2v-.1h-.1v-.1l-.3-.3-.1-.1v-.1l-.2-.2v-.1h-.1v-.1h-.2v-.1l-.3-.1v-.1h-.2v-.2h-.2v-.1h-.8l-.2-.2h-.2v-.1l-.1-.1-.1-.1-.2-.1-.1-.1-.1-.1v-.2h-.2v-.3h-.3v-.2l-.1-.1v-.1h-.1v-.1h-.1v-.2h-.1v-.2l-.1-.2v-.1l-.1-.1v-.1h-.2v-.1h-.1v-.2l-.1-.1v-.3h-.8v-.2h-.3l-.2-.1h-.2v-.1h-.2v-.1h-.4v-.1h-.2v-.2l-.2-.2v-.1h-.5l-.2-.1h-.1v-.1h-.1v-.2h-.1v-.1h-.5l-.2.2h-.3v.2h-.7v.2l-.1.1h-.1v.1h-.1v.2h-.4v.2l-.1.1h-.1v.1h-.4v.1h-.2l-.1.1H106v.2h-.2v.1h-.1v.1h-.2v.2h-.1l-.1.1-.2.1v.1h-.1v.2h-.2l-.1.2-.2.1-.1.2-.1.1-.1.1-.1.1h-.1l-.2.1h-.1l-.1.1h-.9l-.3-.3h-.4v-.3l-.2-.1-.3-.2h-.3v-.1H100v.3h-.7v.2h-.5l-.3.1h-.3l-.1.3H98l-.2.2h-.1l-.2.2-.2.1-.3.2-.1.2-.3.2h-.4l-.1.2h-.5l-.2-.4h-2.2l-.1-.1h-.2l-.2-.2h-1l-.3-.1-.6-.2-1-.4-1.1-.5H88l-.2-.4-.5-.4-.2-.2-.8-.4-.3-.6-.3-.7-.4-.5-.6-.3-.9-.2-.7-.2-.9.3-.4.4-.3.2h-.1l-.6.5h-.2l-.6.3-.2.2-.2.3-.1.2h-.1l-.4.3-.2.3-.2.1h-.2l-.8-.2-.6-.4-.1-.1zm166.8-55.3h.3l.1-.2h.3v.6h.1l.2.2h.2l.1-.2.2-.2.3-.3.6-.6v-.2l.2-.2.1-.2V79l.4-.2.3-.3.2-.2v-.1h.3V78h.3v-.3l.2-.1V77l-.4-.1-.1-.1-.2-.1v-.3l-.2-.3V76h1.1l.3.2h.8l.2-.2v-.5l-.2-.2-.3-.4-.3-.5-.1-.2.2-.2h1.2l.3-.2v-.4l.2-.2v-.3l-.5-.4-.3-.3-.6-.4h-.1v-.5l.2-.1h.7l.2.3h.3l.3-.2.3-.3.2-.3.1-.4.2-.5v-.2l-.2-.3V69h.1l.2-.2.5-.1.5-.1h.4v-.3h.2V68l-.3-.2-.2-.1-.3-.1h-.6l-.3.1-.3.3h-.7v-.7l.1-.3h.2l.1-.3h.7l.4-.1.2-.1.2-.1.2-.2h.2l.1-.2h.3v-.2h1l.1-.1.1-.1.2-.3.1-.2V65l.2-.3h.8l.4-.1.2-.2.3-.6.1-.1v-.9l.2-.1h.6l.4.3.2.2.3.2.2.2h.7l.1-.2.1-.1.2-.2v-1.4l.3-.4h.5l.1-.2h.5l.5.3h.4-.2l-.1-.3h-.3l-.4-.3h-.4l-.2-.2h-.3v.4l-.4.3-.1.4v1l-.2.4v.1l-.1.1-.2.2h-.5l-.3-.4-.3-.2-.4-.2-.4-.2h-.5v.3l-.2.2v.6l-.3.4v.3l-.2.2h-1.3v.3h-.2v.2l-.2.2h-.9v.3l-.4.2-.2.2-.3.1-.2.3-.3.1-.5.1h-.5v.3h-.3l-.1.2-.1.1v.2l-.2.3v.4l.3.1h.7l.2-.3h.2l.3-.2h.6l.4.4v.5h-.7l-.5.2h-.2l-.2.3h-.2v.4l.1.2v.7l-.3.4-.1.3-.1.1-.2.1h-.4l-.6-.2h-.4l-.3.3h-.1v.4l.2.3h.3l.4.5.3.1.2.2v.2l.2.2v.4l-.4.2v.2h-.7l-.1-.2-.2-.1h-.3l-.1.3h-.1v.5l.2.2v.3l.3.2.2.2h.1v.1l.3.3v.2h-1.2l-.2-.3h-.4v-.1h-.6l-.2.2v.3h.2v.5l.2.2.2.2.1.1.2.3v.4l-.2.1h-.1l-.2.1h-.1v.1l-.2.1-.1.2h-.1l-.3.2v.1l-.3.1v.2l-.1.1-.2.2v.3l-.3.1-.1.3-.4.3-.3.4h-.5v-.3l-.3-.1-.1-.2h-.2zm5.1-6.4v-.3h.3l.1.2h-.3zm4.8-8.7l.2-.2h.3l-.2.3-.3.1zm.1.2h.2l.2-.1v-.2h.5v.3l-.3.1v-.3l-.1.4h-.5zm6.6-4.5h.4zm.1.1h.6zm-25 39.5v.2l.3-.3v-.4l.1-.3v-.4l.1-.3.2-.1.1-.4.1-.1.1-.1h.3v.2l.2.2.3.2.3.3.2.2.2.3v.3l.2.2.2.1-.2-.4-.2-.5-.3-.3-.3-.3-.2-.2-.3-.2v-.2l-.3-.2v-.2l.2-.4.4-.4v-1.6l.2-.4.1-.4.3-.4.4-.5.2-.2.3.5.5.4.3.5.3.3.2.3.1.4.1.4v1l.2.6v.6l.2.4.1.1h.2l-.2-.3-.1-.3-.2-.5v-2l-.2-.2v-.3l.4-.2h.3l.3-.3h1.4l-.1-.2h-1.4l-.2.4h-.3l-.4.1h-.3l-.2-.4v-.2l-.3-.3-.2-.4h-.4l-.3-.4-.3-.2v-1l.2-.3.4-.3h.7-1.2l-.1-.2-.3-.6v-.5l-.3-.2.2-.2v-.3l-.3.2v1.3l.3.2v1.3l.1.2.1.2v.1l.2.2v.2l-.3.2-.3.4-.3.4v.4l-.3.4v1.1l-.2.4.1.2-.3.4v.3l-.1.1-.3.3v.2l-.2.3-.1.5-.2.4v.5l-.2.3zm58.3-54.3h.2l.2-.1.1-.2v-.2h1.5l.2-.1h.5l.3.1.3.4.5.5.3.3.1.3.2.2v.6l-.2.3v.6l.3.1h.4l.3-.5.2-.2.1-.5v-2.2l.1-.1h.2l.2.3.2.5.2.4.2.2h1.1l.3-.1h.4l.3.2.3.4.3.3h.2l.1.4.2.2.1.3.3.2.3.2h.4l.1-.2.2-.2.3-.3.3-.4h-.4l-.1.2-.3.4-.1.2h-.5l-.2-.1-.1-.2-.2-.2V48l-.3-.2-.4-.3-.1-.2-.2-.3-.3-.2-.2-.2h-.3l-.3.1-.4.3h-.6l-.2-.4-.2-.3-.2-.4-.1-.4-.2-.1h-.5l-.2.4v.3l.1.6v1.1l-.1.4-.2.2-.1.3-.2.1-.1.2h-.2v-.6l.1-.1.1-.3v-.5l-.2-.1V47l-.1-.1-.6-.5-.2-.4-.4-.4-.4-.2h-.3l-.3.1-.3.1H294v.2l-.3.2v.2zm0 0"/><path d="M234 88.3h.2l.1-.3h.1v-.2h.3l.2-.3.1-.2.3-.3.1-.1v-.1l.4-.2.1-.1.3-.2.3-.3.1-.2h.1v.2l-.1.5v.4l-.2.3v.6l.2.4v.2l.3.2.1.6.1.3.1.3.1.2.3-.2v-.2l-.3-.4v-.4l-.3-.2V88l-.1-.1V87l-.3-.4v-.5l.4-.6.1-.5.2-.1.2-.2.2-.2.6-.2.2-.1.3-.2.2-.1.2-.1.1-.2.1-.2.1-.4h.1l.1-.2h.1l.2-.2h.3l.2.4h.1l.2.4h.1l.2.2h.1l.2-.3.2-.3.3-.3v-.4l.1-.3v-.3l.3-.4v-.4h.1l.2-.2h.7l.1-.1h.2v-.1h-.3l-.2.2h-.8l-.2.1-.1.4v.1l-.3.4v.3l-.2.2v.8l-.2.1v.1h-.1l-.2.2-.1-.2-.2-.2-.1-.3-.2-.1-.2-.1h-.6l-.2.5-.1.3-.3.4v.1l-.3.2-.5.2-.5.1-.5.2-.2.2-.2.1v.3l-.1.3-.1.2-.3.4-.3.2-.3.2-.2.2-.3.2-.2.2-.3.4-.2.3-.2.3-.3.1zm-110.7 55.1v.1l.2.2.1.1h.9l.4-.1h.2l.1-.2h.1l.1-.2v-.5l.2-.1v-.2l.3-.3h.1l.8-.2h2.3l.2-.3h1.1l.1.1h.3v-.2h.5v-.2l.1-.1h.2l.2-.2h.5l.1-.1h.2l.1-.2h.3l.1-.2h.1l.1-.1h.9l.3-.1h.2v-.1h.7v.3l.1.1.2.2v.3h.1l.2.3.1.1h.2v.2h.2l.3.2h.2v.2h.2v.2l.2.1v.8l.2.2v.2h.1v.5h-.3v.8h.3l.1.2.2.1v.2h.2v.2h.2v.1h.1l.3.1h.1v.1h.3l.2.3h.1v.1l.3.1v.1h.2v.2h.2l.2.1h.2v.1l.1.3h.3v-.3h.3v-.2h.1v-.2h.3v-.4h1v-.2h.6l.1-.2h.5v.2l.1.1v.2h.3v.2h.1v.6l.2.1v.1h.2v.1h.2v.1h.2l.3-.1v-.2h.2v-.4h.1v-.2h.2l.1-.1h.3v.3h.2v.2l.2.2v.1h.2l.1.1h.4l.1-.3h.2v-.1h.6l.1-.2h.2v-.1h.6l.2.3h.1l.1.3h.3v.1h.5v-.2l.1-.2h.4l.2-.3.3-.2h.1v-.3h.2v-.2h.1v-.4h.1v-.2h.2v-.2h.3v-.1h.5v.2h.3l.2.2v-.3h-.8l-.1-.2h-.4v.2l-.2.1-.1.1v.2h-.2v.1l-.1.1v.4l-.1.2-.2.1v.2h-.1l-.2.2h-.2l-.2.1h-.2v.2h-.6l-.1-.2h-.2l-.2-.3h-.1l-.2-.1h-.5l-.1.3h-.4v.1h-.2l-.3.1-.3.2h-.5v-.6h-.2l-.1-.3h-.6l-.2.4-.1.2v.1l-.1.1-.3.2-.3.1-.2-.2-.1-.2v-.1h-.2v-.8h-.2v-.1l-.1-.1-.3-.3h-.6v.3h-.7l-.1.2h-.5l-.1.1h-.1l-.1.1-.1.3-.1.1h-.1v.2h-.5l-.3-.2-.1-.1-.3-.1-.1-.1h-.1v-.1h-.3v-.3h-.2v-.1h-.1l-.2-.2h-.2v-.1h-.3v-.2h-.3v-.1l-.2-.2h-.1l-.2-.2-.2-.2v-.3h-.1v-.4l.3-.1v-.3l-.2-.3v-.3l-.1-.1v-.6l-.3-.2-.1-.2-.3-.2-.2-.1h-.1v-.1h-.1v-.1h-.2v-.1l-.1-.1-.1-.1h-.1v-.2l-.2-.3h-.1v-.1l-.2-.1v-.1l-.1-.3h-.6v.3h-.2v.1h-.4v.1h-1l-.1.1h-.1l-.2.1-.1.2h-.5l-.3.2-.2.1h-.2l-.1.2h-.2v.1h-.1l-.2.2h-.5v-.3H129v.3h-.3l-.2.1h-2.1l-.5.1-.2.2v.1l-.2.1v.1l-.1.2-.1.1v.6l-.1.1h-.2l-.2.2h-.3l-.1.2h-.7l-.1-.3h-.2zm-124.7-44v.4h.4l.3.2 1 .6h.9l.4.2h.3l.3.2h.2l.1.2h.2l.6 1 .7.6.8.4v-.2h-.5v-.3l.8.3.5-.4-.3.2H5l-.4-.2-.5-.1-.4-.5-.3-.2-.4-.5-.3-.4-.2-.2h-.2l-.2-.3h-.3v-.1H.6l-.2-.2-.4-.1-.4-.3-.2-.1-.4-.1zm284-65.1h.1v.4l.3.3v.2l.3.3h.2l.1-.1v-1h.7l.2.2.3.1.2-.1.2-.2v-.2l-.2-.3-.2-.2H283l-.3.3v.2zm-14 15.4h.6v.1h.2v.2l.3-.2v-.2h.1v-.1h.2v-3.4l.1-.1h.2l.1-.2h.2l.4-.1.1-.1h.1l.1-.1.1-.1.2-.1.2-.2V45h.3l.1-.2h.4v.2h.4v-.2h.3v-.1h.3l.1-.1h.3l.3-.1.1-.1.3-.2v-.4l-.2.2-.2.2-.2.2-.1.1h-.2v.1h-1.2l-.1.1h-.2l-.1.1h-.2l-.2.2h-.1l-.1.1h-.1l-.1.2-.1.1h-.1l-.1.2h-.7l-.1.1h-.1l-.2.3h-.1v.2l-.2.1v.3l-.2.2v.8l-.1.1v.4l-.2.1v.6l.2.1v.2l.1.1v.2h-.8v.2zm.7 0l.2-.3h.1v-.6l-.3-.2v-.3l.2-.3h.2v-.3h.2v1.9l-.2.1h-.2v.2h-.3zm3.3-5h.6l-.2.2-.3.1h-.1zm-11.2 14.8v.2h.2v.3h.2l.2.3.1.1.2.2v.4l-.1.2h-.4l.2.2h.2l.3-.4v-.6h-.2l-.1-.2V60h-.2v-.1l-.2-.2v-.3h-.3v-.2h.3V59h.2l.2-.2h.2l.1-.2h.2v-.1l.2-.1v-.2l.1-.2v-1.4l-.2-.3-.1-.3-.1-.1h-.3l-.1-.2v-.1h.2v-.1h.1v.3h.1l-.1-.4h-.5v.3-.2l-.2-.1v-.6.2l-.2.2v.3l.2.2.2.2v.1h.5v.1h.2v1.3l.1.2v.3h-.2l-.2.3-.1.2-.2.1-.1.3h-.1l-.3.2-.2.2zm.2.1l.2.2v.2h.2-.4zm.7-1v-.2l.2-.1v-.2l.1-.1h.1v.4l-.1.1h-.3zM305 46.2l.3.3v.2l.1.2.1.4v.2l-.1.5h-.4.5l.1-.1v-.1l.2-.2V47l-.2-.1v-.1l-.3-.2v-.9h.4l.4.3h.5l.4-.4.6-.8.2-.2.1-.2V44l.1-.3v-.3l.3-.1h.1l.4-.3h.2l.3-.2.2-.4v-.1l.2-.3v-.6l-.2-.2-.3-.2v.4l.4.2v.5l-.4.2-.1.3-.1.2-.4.2h-.4l-.2.2v.2l-.3.2v1l-.4.2-.1.2-.2.2-.3.4-.3.3h-.4l-.3-.3h-.4l-.3.3zm-23-1l.2-.1.3-.3.3-.2.2-.2.5-.1.5-.1h.2l.2.2v.5l.3.1v.2l.1.3h.4l.3.1h1.9l.3.2.3.1.2.2.1.2.2.1h.7l.2-.2.2-.3v-.3l.4-.3.2-.3.2-.2.3-.1h.3l-.1-.1h-.5l-.4.4-.2.2-.3.3-.2.5h-.1l-.2.3h-.4l-.2-.3-.2-.2-.2-.2-.4-.2h-2.2l-.4-.1-.2-.3h-.1v-.3l-.2-.3v-.2l-.2-.1-.2-.1h-.3l-.6.4h-.5l-.2.2-.2.2h-.1v.2l-.2.1zm165.4 139.1l.3.4.3.2.1.1h.5l.2-.3v-.9l-.8-.1h-.4zm0 0"/><path d="M290.9 44.6v.1l.3.1.1.2h.7l.3-.1v-.2l.3-.3V44l.4-.3v-.1l.4.1v.3l.3.4v.3l-.3.3-.3.2-.4.2-.2.2v.4l.2.2.3.2h.8l-.2-.2h-.6l-.2-.2h-.1v-.3l.3-.2.3-.2.3-.2.2-.1v-.6l-.1-.3-.1-.3-.2-.2-.1-.2h-.3l-.3.2-.2.2-.1.3-.2.5-.1.3h-.6l-.1-.1-.4-.2zm-16.3-.4l.1-.1h.3v-.3h.2l.2-.1.3-.2h.3l.2-.2h.8v.3h.3l.1.1h.7l.1.3h.2l.1.2.2.2v.1l.1.2v.2h.2v-.4l-.3-.3V44h-.1l-.1-.3h-.1l-.2-.2h-.2l-.2-.2h-.6l-.4-.2h-1l-.2.2-.2.1-.2.1-.2.2v.1h-.4v.2zm0 0"/></g></g><g fill="none"><use xlink:href="#B" stroke="#fff" stroke-opacity=".4" stroke-width="2.6"/><use xlink:href="#B" stroke="#f6967a" stroke-width=".6"/></g><defs ><path id="B" d="M131.7 217.4l4-5.1 2-3m14.1-126.6l.5-5.6m2.7 97.5l4.6-4.4.4-6.2.3-2.1m-11.2-53.3l-.5-6.4v-5.8l1.8-6.2 1.4-7.4m8.5 79.1l-.7-4.2m-1.4-11.1l-.2-.1m-8.2-116.1l1.4-4.2m8-19.2l.2-.5m-8.2 19.7l.3-6 2.3-5.2m2.5 128.4l-1.7-5.6.2-7.4-.5-5.8.3-3.2m-4.4-7.6l-1-5m4.2 9.9l-3.1-4.7m4.3 7.4v-.1m5 36.4l-1.6-4.8m.1-6.4l-1.8-3m4.1-137.9l.9-2m-1.9 3l.6-.4m-6 8l3.6-3.6m-.1 0h.5M143.8 195l1-5.5 3.9-3.9m-.5-142.3l.3-.2m0 0l1.2-1.4m0 0l.2-.1m-.1 0l1.5-1.3m0 0l.7-2.7m-3.1 147.9l1.1-3.8m.9-145.7h-.2l-.4-.5m1.7 2.1l-1.1-1.6m15.4-31.8h.2m-15 57.9l-1-6-3-5V45l.7-1.7m1.9 138.4l3.7-6 1-1m-17.1 34.7l3.6-5.4 1.7-3.2m7.1-169.1l-.3-.9m4-15.8l.2-.8m4-3.7l1-.9m-8.7 24.9l-.3-2.8m-6.9 169l.9-5.6M161.3 3.5l5 .7m.2-.1L171-1l3.4-5m-16.3 159l.4-6-.3-.4m-6.1-83.9l-.5-.5M160.1 6l.3-.3m-10.1 29.8l-.2-.2m-.1 0l.4-.8m4.2 86.8l-1.2-2.6m-3.1-4.7l-.1-.1M159 9.6l.1-2.7M97.4 286.5v-5.4l3.6-4.8-.3-5.3m51.6-194l.3-5.3.8-5.1-1.3-3.9m-38.7 195l1.9-6.4 4.6-.7 5.1-3 2.6-5.2v-5L126 232l1.3-5.8 2.2-5.5 2.1-3.3m18.2-186.6v-.4M160 6.2v-.1M100.7 271l4.5-5 3.6-5 4.6-3.4"/></defs></svg>