<svg xmlns="http://www.w3.org/2000/svg" viewBox="0 0 497 279"  xmlns:v="https://vecta.io/nano"><path fill="#f2efe9" d="M0 0h497v279H0z"/><g fill-rule="evenodd"><g fill="#add19e"><path d="M-146.9 208.2l4.9 30.8 3.5-12.3 8-7 8.4 3.5 10.7 2.8 18.2 2.1-1.6 20.3 2.4 7.4-9.3 7.3-5 12.6 9.5 1.5 13.6.8 6.3-5.3 9.5 5 12.1 1.1-1.7 5.2 8.5 3.5 9.3 1.2.7-10.1-3.1-6.4-12.3-10.2-.5-6.1 2-10.8 14.7-4.5 12.7 2.6 7.3-3.2-2.7-7.5 3.5-4v-7.2l6.1-4.8 5 .2 5.6-5.7 5.3-.8-1.4-17.4 21.2 1.2 18.4-1-9.3-13-11.5-8.6-28.5-12-18.1 3.1-18 3.2-26.9-8.2-14.3 11.9-14.4 12-32.2-6.7-10.7 11.7-5.5 8.6zm1.1-9.4l9-11.8 4.3-.5-2.5 7 2.2 9.5-1.9 6-5 2.6-3.4-1.7zm15.8-7.2l4.2-4.5-.2 3.1 3.8 1.9-4.6 2.9-2.7-1.7zm1 15.7l6.3-3.2 4.2-5-1.3 4.3 3.4 7.2 1.8 3.9-2 6.4-7.1-1 .4-6.6 2.4-5.9-6.9 3.2-.8-.6zm6.1-9.8l5.5-6 2.9-.5-2.6 6-.6 1zm9.1 2.7l4.2-1.4 2.6-1.8 2.8.4 5-.2-1.8 4.6-4.1-1-4.8 3.2-2.9-1.1zm12.4 15l2.7-1.2-2 1.8zm3.8-16.5l1.9-1.7-1.6 2zm0 .3l.3 1zm14.6 43.7l8.3-4.1 1.3-6 6.6-3.1-.2 7.2 1.1 8.7-5.8 6-3.1-8.9-6.4 3.8zm14.9 24.5l5.1-2.3.3 6.4-3.4-.9zm3.1-6.5l3.1-.4-.9 3zm3.6-25l2.9-4.1 6.7-1.6-1.2 7.8-1.4 11.4-4 6.2-2-6.7 3.2-7.5zm3.4 34.1l6.5 3.6.3-5.3-2.6-4.4 5.4 5.5"/><path d="M-54.3 262l16.6 16.8-1 11.9 17.5-2.7 17.5-2.7 21-12.1 18.7 1.5 18.9 1.5 1.7-8.2-6.6-9.1 5.5.8 14 3.3 10.1-.7-1.6-8.4 2.1-6.3 2.7-6.9-6.2 1.3-6.5-.5-4.4-4-.7-8.8 6-6.1-3.5-3.4-7.9-3.1-7.6-.2-3.7-7.2 3.6-6 6.3-10.2-2.4-9.5-8.3 9.2-23 1.8-21.2-1.2.3 16.7 5.2 2.9 4.2 5.1 4.3 5.7-2.3 5.7-5-.2-3.8.3-.8 3.4-2.2-3.3-6 2.3-3.4-5.3-1.3 5.7.1 6.5-6.2-.3 4.6 1-6.5 2.4-10 1.8-10.2-2.3-17.1 4.1zm106.7-53.5l14.6 7.2 5.5 2.3 6.4 4.2 6.1 9 3.6 5.4 6.1-6.2 10.9-.4-1.6 11.8 1 10.6 5.6 9.8-9 8.1-4.4 10.2 12.9 7.1 30.5-2-7.1-8.4 10.1-9.5-7-6.8 11-13.9-3.4-23.6-8.4 5.9 4.8-19 8-6.9-3.4-8.3-9.4-10.1-13.7-.5V176l-22.1 2.5L88.2 165l-14-4-4 11.2-8 11.6 2.5 6.5-10 15zm0 0"/></g><path fill="#eee5dc" d="M-7.4 222l4.4 1.8-1.4 2.4.7 3.7 2.2 1.3 3.2-1.6 1.8 2.7 2.8-3.3 3.5-.5 5.2.5v-6.9l-4.6-1.1-3.9 4.2 2.2-5.8-2.5-5.4-1.2 5.3-.8 3.3.3 4-3.9-.9-.2-4.7 2.3-3.5L.3 220l.5-5-4.3 1v3.7l-1.9 1.5-1.7-.2zm0 0"/><path fill="#add19e" d="M210.3 222.1l7.5 3.6 3.8-5-.2 1.7 1.3-4 1-3.6-1.1-3.8-1.9-3-5.9 2.1-2.6 6.3-1.8 5.5zm0 0"/><path fill="#eee5dc" d="M64 232.4l1.7 4.6 3 2.2 3.9 1.8 4.1.3 2-.9 1.8-2.2 3.1-1.9-1.5-4.3-1-5.2-3.1-3.4-2.5 2.6 3.6 4.1-1.3 5.3-5.5.9-3.7-4 1.2-4.8 4.2-3.6h-3.4l-4.4 2.4-1.6 5.4v.5zm0 0"/><path fill="#add19e" d="M68.8 230.1L72 236l5.5-.7.8-5.8-2-1.7L78 230l-1.8 5.5-5-1.5-.9-4.3 4-2.7-4.3.3-1.1 2zm134.2-11l3.6 1.5 5.2-2.8-2.7-.8-3.7 2h-2.5zM30.9 7.3l3.3-.4-3.2-.8v1zm3.3-.3h.3-.2zm190.1 214l.4-.7zm0 0"/><path fill="#eee5dc" d="M209.6 199v-.2zm0 0"/><g fill="#aad3df"><path d="M39.4.8h.8l.2-.5v-.6l.3-.5v-1l.1-.5.2-.5V-3l.3-.8V-4l.2-.2v-.4l.2-.4.2-.2v-.3l.1-.2V-6l.1-.1.3-.6.2-.3.4-.5.4-.2.4-.2.3-.3.9-.3.3-.2.7-.1h.1v.2h.4l.2-.4h.3l.5-.4.1-.2.4-.4h.2l.4-.3h.6l.5-.2.3-.2.2-.2.2-.2v-.2l.3-.1.3-.2.1-.2h.2l.2-.2.5-.4.5-.3 1-.3h.1l-.1-.2.4-.3L55-14l.4-.3.1-.1.2-.1h.1l.4-.2.5-.2.3-.3.8-.3.1-.1.8-.5 1.1-1.1 1-.7h.5v-.1h1.1l.2.2.4.1h.1l.2.3v-.4h-.5l-.3-.2h-.2v-.1H64v.2l.3.3h.1v.2h-1l.6.1h.4v-.2h.2v1.2l.1-1 .2-.4h.5l-.2.3H65v.2h.1l.5-.3h.2l.2-.3h.2v-.2l.6-.1.4-.4.3-.2.2-.3v-.3l.3-.1.4-.9.4-.5h.3l.9-.2h.6v.4h-.7v.2H71l.2.2h1.2l.2.1h.1l.4-.3h1.5l1.4.5h-.1v.1l.9.3.7.3v.1h.2l.2.4.4.2.3.1h.8l.2-.4.3-.2.2-.3.5-.3h.5l.2-.1h.1l-.3.3.5-.1h.1v-.2h.2l.1-.3h.1l.2-.2.5-.3h1.4-.2l.2.2h1.2l.1.2h.6v.1h.5v-.3h.4l.7-.4.3-.1h.2v-.2h.5l.1-.1.4-.3.3-.2h.3l.6-.3h.6l.2-.1h2.4l.1-.2.3-.1.6-.5.4-.4.5-.4.5-.4h1v.3l-.5.1-.3.3H96h.3l.2-.2.3-.1h.8v.2h.7l.5.3.5.2.6.2h.1l.4.4h.6l.3.1h.2l.4.2h2.1l.2.3.1.2v.9l.7.1h.3l.3.1h.6l.1-.1h.1l.4-.5.2-.3.2-.3.1-.2.7-.2.3-.2.2-.1v.1l.7-.2h1.3v.1h.1l.2-.1h.4l-.2.3-.4.3-.4.1h-.4l-.4-.3.1-.2-.3.2.2.5-.3.2h-.5v.2h.7l.4-.2.6-.1.6-.3v-.1h.1l.4-.3v-.3h.3v-.2l.3-.1.4-.3h.3v.4l-.3.5-.1.3-.4.4-.2.4-.4.2h.3l.7-.8.2-.4.2-.3v-.4l-.1-.7v-.2l.4-.6v-.3l.5-.4.2-.5v-.2l.3-.4.2-.3v-.1l.1-.3.1-.3.2-.5.4-.2.3-.3.4-.2.6-.1 2-.2-.1.2-.5.1v.4l.6-.2h.3l.2-.3h.2l.3-.2.8-.3.5-.2.4-.2 1.2-.1 1-.2h1.5l.8.1h.5l.4.1h.1l.2.3v.4h.1v-.6h1.1l.9.4h.4l.4.1h.1l.3.2 1.4.2h.5v.1h.7l.2-.1.5-.1.5-.2.5-.4.4-.4.3-.2.1-.1v-.3h.4v-.2l.9-.8v-.3l.3-.3.1-.2.3-.4v-.2l.4-.4v-.2h.1v-.2l.2-.2v-.2h.1l.2-.6.2-.4v-1l.1-.2v-.7l.1-.5.3-.5.3-.9.3-.3v-.3l.1-.1.1-.3.4-.5v-.4l.1-.4v-.3h.3v-1l-.4-.7v-2.9l.5-.4v-.2l-.2-.2v-1.4l.2-.6.4-1 .1-.3.4-1.1.2-.2v-1.6l.2-.4v-.3l.2-.2v-.5l.2-.2v-1.3l-.1-1v-.3l-.5-1.5v-.5l-.4-.5-.5-.8-1.2-1.5-.1-.3-.4-.5-.3-.6h-.3l-.2-.4-.9-.9.2.1v-.2l-.5-.3-.5-.7-.3-.6-.5-.8v-.2l-.2-.1h-.1l-.1-.3-.7-.5-.4-.2h-.4l-.6.1h-.4l-.3.3-.5.2v.7l.7.5.2-.3h.2v-.1h.6v.2l.7.2h.1l.7.6.1.1v.2h.3l.1.2.2.2.3.4 1 .8.8 1.3 1 1.5.7 1 .7.5.1.2h.3l.3.8v.5l.5 2v1.6l-.4 1.3v1.4l-.4.4-.5 1.5-.3.8-.5.8-.5 1v4.1h.3v-.5h.1v.6h.3v.8l.1.9-.4.9-.2.4v.5l-.7 1-.6 1.1-.3.4v.2l-.4.8-.2.3v1.9l-.3.2-.1.6-.3.6-.6 1-.2.4-1 1-.5.5-.6.3-.4.1-.9.1-1.9-.2-1.2-.3-1-.5h-.8l-1.2-.4h-.4l-.5-.1h-.1l-.3-.2h-.4l-.3-.3h-.5.2l.3.4h.7l.1.1h-1.4l-.8.3h-.3v.2l-.4.2-.7.1h-.5l-.7.4-.6.1-.8.2h-.9l-1.4.1h-.3l-.6.4-.5.2-.9.7-.7.7-.1.3-.2.2-.3.4-.4.5-.2.3v.4l-.1.1h.3l-.1.7-.3.1h-.5l-.2.4-.2.4-.4.1-.3.2h-1.5l-1.1.4h-.7l-1.5-.1h-.7l-.8-.1h-.6l-.2.2-.9-.3-.8-.4-.3-.2-.3-.3-.6-.2-1.3-.3h-1.6l-.9-.1-.3-.1h-.4l-.5.3h-2.6l-.8.6-.6.2-.6.2h-1.2v.2h-.4l-1.1.4-.4.1H87l-.5.3-.9.3.4-.1h.3l.2-.2v.2l.2.1-.2.2-.4.2-.1.1h-2.1l-1.9.3h-1l-.9.2H79h.4v.4l-.2.3h-.6l-.1.4H78h.3l.1.1-.1.1-.1.2H78v-.1l-.3-.2v-.3h.3l-.2-.2-1-.2v-.4h-1.7l-.1-.3-.7-.1h-.2l-.1-.4h-.3l-.5-.3h-3.1l-.3.3h-.5l-1.1.4h-1.5l-.4.3-.5.1-1.1.2v.4l-.3-.3-.4.4.7-.2v.4l.3.1v-.1l.3-.2v.1h.3v-.5h.6l-.1.3h-.2v.4l-.4.2h-.1l-.2.3-.2-.2h-.4l-.6-.1h-.2v-.4l-.3.2-1.6.7h-.3l-.6.7-.5.1-1.6.5v.3h-.1l-.3.5-.6.5-.5.2h-.2l-.3.1h-.1l-.3.1h-.2.6v.1l-.7.3h-.1v-.2h.1v-.1l-.2.1h-.4l-.1.1v.1l-.7.6-.5.5-.5.4-.3.1h-.1l-.5.4h-.1l-.4.3-.2.1-1.5 1.1-.7.2h-.2l-.8.5-.7.3v.1l1.3-.4-.4.3-1 .4-1 .6-2 .7-1.3.7-.3.1h-.3l-.1.1H43l-.5.4-.5.3-.3.5-.6.7-.1.2-.2.3-.2.2-.6.6v.2l.3-.3.1-.1.4-.6.4-.4.1-.1v.2l-.2.8-.3.8-.3.7-.5.8v.8l-.1 1.1-.2.9-.1.6zM62-18.5v-.1h.2l.2-.2h.1l.3-.2.9-.2h.3l.5.1h.9l.2-.1h.2v-.3h.2l.2-.3.2-.2v-.2l.1-.3.5-.2h.7l-.2.3v.2h.3v.1l-.3.7-.5.3v.2l-.6.2v.1h-1.9l-.7.2h-1.6zm2 .4v-.2h1.4l.2.1v.2h-.2l-.2.1-.4.1-.2.2h-.2zm1-2l.3-.4.2.2-.2.2h-.1zm6.6-1.3l.2-.1h.8l.4.1.5.2v.2H73v.1l.2.1H73l-.7-.2h-.4l-.2-.3zm.2.6v-.1h.2l.8.2h-.3l-.1.3H72v-.2zm6.3 2v-.2h.2l.8-.6.4-.4h.3v-.2h.2l.3-.1.4-.1 1.5-.2-.1.3v.1l-.2.1-.8.3-1.1.2h-.4v.6l-.2.3h-.7l-.2-.1v.1h-.3zm1.3-1.2l.3-.3h.1v.3h-.3zm6.8-.6v-.3l.4-.1.7-.7h.2l.4-.1h-.3l.5-.4 1.2-.2h.7l.4.2-.4.2h-.3l-.1.2h-.1l-.6.4-.8.4h-.6l-.1.3h-.2l-.5.2h-.4zm3.8-2.1v-.3h1.4v.2h.1l.4.1.2.2h-1.5l-.6-.1zm.8.7l.2-.2h.8-.2l-.4.2h-.3zm1-1l.6-.5.4-.2h1.9v.1l-.3.6-.4.3-.3.1-1 .1h-.6l-.1-.3h-.2zm7-.9h.9l.3.3h.7l.3.1.1.2-.1.2.3.4v.1h-.6l-.4-.4-.8-.4-.3-.2-.2-.1zm5.7 2.3l.4-.3.4-.1h1l.7-.2h.3l-.5.2-.1.1v.4l-.2.1h.2l-.2.4-.2.2-.3.2h-.7l-.3-.1v-.3zm7-1.9l.3-.2.3-.1v.3h-.4l-.2.2zm.6-1.7l.2-.3h.1l.4-.6.4-.3.2-.4.3-.2v.1l-.3.3-.8 1.7-.1.1-.2-.1zm10.6-4.8l.3-.3h1.2l-.2.3-.2.1h-1zm10.5-37.5v-.1l.1-.1h.9l.3.2.5.4.5.4.3.3.2.3v.2h-.1l-.5-.3-.8-.8-.6-.3-.7-.2zm3.9 34.5l.2-.7v-.4l.4-1.2v-.4h.3v-1.1l.4-.1v.5h-.3v1.8l-.3.5-.1.4h-.1v.4l-.2.3v.1h-.4zm2.4-12.3v-1.2l.2-.9.1-.6.2-.3.2-.3-.1.4v.6l-.1.6v.4h.1v.3l-.1.7v.6l-.2.2h-.1l-.2-.1zM27.1 30.2v.4l.2.1v.5l.1.1v.2h.1v-.8l-.4-.3v-.3h.2v-.2l.2-.1.1-.2.1-.1.1.2v.3l.2.1v.2l.2.3v1.3H28l-.2-.3.3.2v.2h.2v.2l.2.2v.4h.1l.1.2.1.4.1.3h.1v.3l.2.1v.1h.2l.2.3.3.2.1.1v.2h.2v.2h.1l.1.1.2.1h.6v.3l.1.1h.2l.1.2h.2l.2.2.4.2.1.1v.1l.3.1v-.2l-.4-.1-.1-.1-.2-.3H32h.4v.2l.3.2h.2v.2h.1l.1.1h.6v.1l.3.2v.3l.2.1v.3l.1.1v.2h.1v.2l.1.1v.2l.1.3v-.6l-.3-.2-.1-.2v-.1l-.1-.1V37l-.1-.1-.4-.2-.2-.2h-.5l-.3-.2V36h-.2l-.2-.1v-.1h-.5l-.2-.1v-.1h-.3v-.1l.4-.2.2-.1V35l.4-.1v-.2l.1-.1-.3.2v-1.4 1.4h-.2l-.1.2-.1.1h-.1l-.1.2h-.7l-.3-.3-.1-.1-.3-.1v-.2l-.1-.1-.3-.3v-.1l-.2-.1v-.2l-.2-.1v-.2l.2.4.2.1.1.3h.1l-.1-.3v-.2h-.2l-.2-.1v-.4l-.1-.3H29v-.4l-.2-.4V32l-.2-.1v-.2h.6v-.2h.1l.2-.2h.1l.3-.2-.3-.1-.2.2h-.3v-.3H29v.3l-.2.1v.2h-.1v.2h.3-.2v.1h-.2v.5l-.1-.3v-.5h-.2v-.9h1.2l.1.4h.6l.2.3h.1l.2.1.2.1h.1l.3.1.2.1h.3l.2.1.3.1h.4v.1h.3l.3.2h.5l.2.1.2.1.4.2.1.2h.2v-.2h-.3v-.2l.4.2.4.2h.2l-.2-.1.4.2h.2l.1.1.3.2h.4l.2.1v.1h.2v.5l.3.1v.5l.2.1v.2l.2.2v1.6h.1v.4h.2v.4l.2.2v.3l.1.1v.4l.1.2.1.2.1.2v.2-.2h.2v.2-.2.2h.2l.2.4v-.4h-.2V39H39l-.1-.3-.1-.2.2.1h.2v-.2h.1v.6h.2v.3h.1v.2l.1.2v.3l.1.2v4.2l.2.1v.6l-.3.2-.2.2-.4.2h-.2v.1h-.2l-.1.2v.1h-.1v.2h.2V46l.1-.1.1-.2.1-.1h.2l.3-.1h.3v-.2l.2-.1V45h.2v.3h.1v-.2l.2.2v.5h.2v.2l.1.3.1.3v1l-.3.2-.1.2h-.2l-.1.2h-.1l-.2.3-.1.1-.3.4h-.1l.3.3v.6l.1.1v.1l.2.3v.1h.2v.3h.3v.2h.4l.4.1h.4l.1.2h1v.1l.2.2v.1l.3.1.2.2h.1l.2.1V52l-.3-.1v-.1h-.4l-.1-.4-.1-.1v-.1l-.2-.2h-.1.3v-.2l.1-.2h.3v-.1h2.2l.1.3h.2l.2.1v.1h.3l.3.2h.2l.2.3h.4l.1.1h1.9l.2-.3h.2v-.1h.4-.2v-.1h.2-.2V51h.4l-.4-.2h.9v.4h.3l.2.1h.2l.1.1h.1l.4.2v.1l.3.1v.1l.1.2.3.1v.1l.1.1v.3h.3l.1.1v.1l.3.1.2.4v.1l.4.2.2.3v.2h.1l.3.3v.1h.1v.2h.2v.1l.1.1h.3v.3h.2l.2.1.2.1v.1h.1v.1h.2v.1l.3.2h.2v.1l.2.2h.2l.4.4h.2v.1h.3-.2l-.1-.3h-.3l-.1-.2-.3-.1-.3-.2v-.3h-.2v-.2.2h-.3v-.2h-.1v-.2h-.1l-.3-.1h-.2V55h-.2l-.1-.2-.3-.1h.7l.3.2.1.1h.1l.4.1.4.1.3.1.3.1v.1h.2v.2h.3l.3.3h1.8v-.2h.3l.2-.2h.3v-.1h.3v-.2l.4-.1.1-.5.1-.2.2-.3.1-.1v-.4h.2v-.1l.2-.1v-.4l.1-.1.1-.1v-.5l.2-.4v-.4l.3-.2V51h.1v-.4l.2-.2.1-.2V50l.4-.2.2-.3h.2l.1-.3h.2v-.1l.2-.1h.8l.2.4h.2l.2.3.2.2v.1h.2v.4h.3l.2.1h.2v.2l.2.3v-.4l.1.1.1.3.2.2.2.3v.2l.2.1v.2l.2.3v.2h-.3v-.1l-.1-.1-.2-.3v-.1l-.1-.1v-.1l-.2-.3-.2-.2V51h-.1v-.2.2l.2.3.3.2.1.3v.2l.1.1.1.2.2.2v.1l.1.2.2.2v3-.4h.2v-.5l.2.2v.2h.1l.1.5.4.3v.4l.2.2v.1l.2.5v.2l.1.5v.1l.1.2v.2l.1.1-.3.2v.3-.3h.4v.2l.2.1V61l-.2.2-.4.1h-.1l-.3.2v.5l.3.2.2.3.2.2.3.1.2.2h.3-.3v-.2H71v-.1h.5l.2.2v.3h.3v.1h.2l.2.1h-.1l.4.1h.6l.1-.3h.2v-.1h.6V63h.2l.1-.2h.5v-.2h.5v-.1h.2v-.2l-.4.4h-.1l.3-.3v-.3h-.1l-.2.5H75l-.3.1v.1-.5h.3v-.2l-.2.2v.2h-.2v.2l-.2.2h-.6v-.2h-.3v.3h-1.4l-.3-.2-.2-.2H73v-.2h.3l.2-.2.2-.1.2-.1v-.2h.1l.2-.3h.2l.1-.2h.1l.2-.1.2-.2h.3v-.2l.4-.2.1-.2.3-.1.2-.3h.5v-.2h1l.2-.2h.4l.2-.1h.4-.5v-.2h.3v-.1l.3-.2h.3v.4l.2.3h.2v.1h.5l.3-.1h.3v-.2h-.5v-.1h.4v-.2h.2v-.1h-.6V59l.6-.2v.4-.2h.6l.2.3v.2l-.3.1v.5l.3.2v.1h.2v.2h.1v.2h.4v.2-.8h.2v.4l.2.2v.3l.1.4v.1h.2v.4h-.4v.3h-.3v-.7h-.1v-.5l-.1-.1v.6l.3.1.1.3v.3l-.2.3v.4h-.2l-.1.6-.2.5v.2h-.2v.1l-.2.2-.1.5-.3.4-.2.2v.3h-.1v.2-.2h.1v.8l-.3.2v.5h-.1v.5l-.2.2v.4h.5l.1.1v.1h.3v.3H81l-.3.3h-.2l-.1.1-.1.2v.3h-.2l.2.3.2.2v1.4h-.3v.5h-.1v.3l-.1.2v.1-.4h.3v.4l.2.2.3.5.2.2.2.2v.3l-.2.2v.4h-.2v.5l.2.2h.3v.1h.1l-.4-.3v-.1h-.2V75l.2-.4h.1v-.1l.3-.2.2.2v.2h.2l.2.1v-.3h.2l.1.3.4.2.1.3.1.2h.1v.2l.7-.4-.2-.3-.2-.2v-.2L83 74v-.2h-.3v-.2l-.1-.1v-.6l-.2-.1v-.4l-.1-.2-.1-.2v-.7h.3l.1-.1v-.1h.1v.2l-.3.2v.3h-.1v.2-.3l.3-.1.1-.4v-.4l.3-.2v-.4l.3-.4V69l.2-.2v-.6l-.3-.6.4-.2.1-.2v-.4l-.2-.1v-.2h.1V66h-.1v-.4h.3v-.1h.2v-.1l.1-.3h.1l.1-.1h.2v-.2l.3-.1V64l-.2-.2-.6-.4v-.3l-.4-.1v-.2l-.2-.3V62l.4-.6.1-.2V61h.1l.2-.2h.2v.7h.1v-.2h.1v-.6h-.3v-.2l.2-.2v-.4l-.3-.1-.2-.2v-.2h-.4v-.3l-.2-.1-.1-.1v-.1l-.1-.2-.2-.1v-.2l-.1-.1-.1-.2h-.1l-.2-.2-.3-.3-.3-.1h-.4l-.2-.2h-1.1l-.2.3-.4.1h-.3l-.1.3H79l-.3.1-.3.1-.2.2-.4.2-.2.1-.3.3-.3.1v.1h-.2l-.1.2h-.2l-.5.5-.3.2h-.2l-.1.2-.7.3-.2.3h-.3l-.1.2H74l-.9.7-.1.1v.2l-.2.1h-.4l-.1.2h-.8V62h-.3v-.4h.5-.3V61h.6v.2h.3v-.4h.5-.4v-.2h-.2v-.2l-.1-.1v-.4H72v-.3l-.1-.2v-.2l-.3-.2v-.6l-.2-.4.3-.2v-3h-.2v-.1h.3v.6h.1v.6-1.2h-.7l-.1-.1-.3-.2-.2-.3-.2-.1-.1-.3v-.4l-.1-.1V53h.3l.1.2h.1v.3h.3v-.2h-.3V53h-.5l-.2-.3v-.1l-.2-.3-.3-.5-.1-.1v-.2l-.4-.3V51l-.1-.2-.2-.3v-.1l-.2-.1V50h-.3v-.1l-.3-.3h-.1l-.2-.2-.1-.1h-.1L67 49h-.1l-.3-.1-.2-.1h-.1v-.2H66v-.1h-.3.5l.2-.2h.2v.3l.2.1h.1v.1l.1.1h.4-.3l-.1-.4h-.2l-.1-.1h-.1l-.1-.1-.5-.2h.8V48h.8l.2.2v.1-.2l-.3-.1h-1.9l-.4.4H65l-.1.2h-.1l-.2.1-.1.2-.3.1-.1.2v.1H64l-.2.3-.3.2-.2.1v.1l-.1.1v.1l-.2.1-.1.1-.1.3-.2.1v.2h-.2l-.1.3-.3.3-.3.4-.1.2v.1l-.3.4v.9h-.1v.1l-.1.2H61v.1h-.7l.3-.3.1-.1-.4.2-.3.2v.1h-.2l-.5.5H59v.1h-.3l-.3.1h-1.2l-.2-.3h-.3v-.1h-.1l-.6-.1h-.2l-.4-.3h-.3l-.1-.2v-.1l-.4-.2v-.2h-.1l-.1-.1-.4-.3v-.3l-.3-.3v-.4l-.2-.2v-.3l-.2-.4v-.3l-.1-.1v-.3H53V50h.3-.4v-.4l-.2-.1-.2-.3h-.2V49H52v-.3h-.2v-.2h-.6v.8H51l-.2.2h-.5l-.1-.3h-.5v.3l-.1.1h-.5l-.1-.1V49l-.2-.2h-.2l-.1.2v.1h-.4.3v-.3h.3l.1-.2h.4l.1-.3h.1l.2-.1h.1l.1-.1h.1l.1-.1h.2-.4l-.2.2h-.1v.2h-.3v.1H49v.1h-.2l-.3.2-.1.2h-.1l-.2.1-.4.3-.2.2-.1.1-.4.3h-.4v.2H46l-.2.1h-1.2V50h-.4l-.3-.2h-.4v-.1H43v-.1l-.2-.1-.2-.2-.3-.2-.1-.1-.2-.2h.4l-.4-.3v-.1l-.1-.4v-.2h-.2v-.3h-.2v-.3l-.1-.2v-.4l-.2-.3V46l-.1-.2v-.6L41 45v-1.7h-.2v-.2 1.1h-.5V44l-.1-.3v-.3l.3-.1v.5-.8h.2v-.1l.2.1v-.2l-.2-.1v-.3l-.2-.6v-1.5h-.2v-.4h-.1v-.2l-.1-.1-.1-.2V39h-.2v-.5l.2-.1v-1.1h-.2v-.5h-.1v-.1h-.2l-.1-.3h-.1l-.3-.1V36h-.1l-.3-.4-.1-.3-.1-.2v-.3l-.3-.3v-.7H38v-.3l-.1-.1-.2-.2-.1-.1-.2-.2h-.2l-.1-.3-.4-.1-.3-.2h-.3l-.2-.2h-.1l-.1-.1h-.4l-.3-.1-.4-.1h-.2l-.1-.2h-.6v-.1H33v-.2h-.2l-.1-.1v-.1h.2-.4V31h.7v-.2h-.6l-.2.2h-1v-.2h-.3l-.1-.1-.3-.1h-.2v-.3l-.4-.1V30l-.1-.2h-1v-.3l-.1-.1-.1-.2V29h-.2v-1.3h-.1V27l.2-.1v-1.1l-.2-.3v-.8l.3-.3V24h.1l.1-.6v-.2l.3-.2v.3-.3h.2v-.3l.1-.1v-.1l.1-.1v-.2h.2l.1-.5v-.1h.2v-.2l.1-.2.1-.2v-.1l.3-.5v-.2h.1v-.3l.2-.5v-.1h.2l.1-.2.2-.1.2.2v.1h.2l.1.3v1.1h-.3v.2l-.1.1v.4h-.2v.1h-.1v.2h-.2v.3h.3v-.2l.1-.3h.1l.1-.3V21h.3v-.7l.2-.1v-.7l-.4-.3V19h-.2v-.1l-.2-.5.1-.3V18l.3-.3v-.4l.2-.1v-2l-.3-.2v-.3l-.3-.3-.1-.4v-.3l.4-.7h.2l-.6-.5v.3l-.1.2-.2.4-.2.4-.1.2v.3l-.3.4v1.2l-.2.2v3.7h-.1l-.1.4v.1l-.5.3v.4h-.1l-.1.4h-.1v.2l-.2.3-.3.6v.2l-.3.3v.7l-.2.3v.2l-.2.1v1l-.2.2v.6l-.2.2v.4l-.3.2v.5l-.2.1v.8l.3.2v.3l.1.2v.3l.2.1v.2h-.5v.2h-.1v.2zm.5-2.9V27l.3-.2v-.2l.1-.2v-.2h.2v.3l-.2.2v.3l-.3.3v.4h-.1v-.2zm.2 1v-.5h.2v.4h-.2v.1h.2l.2-.3v-.4l.1-.1v.4h.1v.6l-.3.1H28v.2h-.2v-.5h-.1zm0-1.1h.2v-.3l.2-.3v-.4h.1v1.1h-.5zm.4 2.5v-.5l.2-.2v-.1h.2v.4l.1.1v.3l.1.1v.2h-.5l-.3-.4zm.4-3.5v.2h.2v.4-.4l-.3-.1zm0 4.4h.3zm.3 2.2v-.1l.1.1v.4h.2v.2l.1.2-.3-.3V33zm.2-1.4h.2zm0-1.4h.9l.1.2.2.2H30l-.2-.1-.2-.1h-.1l-.2-.2zm.3-8.4v-.2l.3-.2V21h.2v-.2l.1-.1v.5l-.4.1v.1h-.1v.2h-.2zm.9 9.4h.4l.3.3.2.1.1.1h-.1l-.3-.1-.2-.2h-.1l-.2-.2zm0-13v-.4h.2v-.9h.1v-.3h.1v-.2h.1V16v.3h-.2v.1-.6h.2l.2-.2.2-.2.1.2.1.1.1.3h.2v.7l-.5.3-.2.4v.3l-.4.6v.4h-.3zm.4-2.7v-.1l.1.1v.3zm.4 3.7v-.6h.2V18h.1v.8l-.2.2H31zm7.2 17l.1.3h.2V36h.2v.5h.2l.2.1.1.1h.2v.2l.3.1v1.1h-.2v.3h-.2l-.1-.4H39v-.1l-.2-.2v-.1l-.1-.2v-.1l-.2-.3v-.3h-.2v-.4h-.1zM40 49.2v-.3l.1-.1v-.2h.2l.1-.3.3-.1.1-.1.2-.1v.4h-.1v.2h-.3v.2l.4-.2v-.1h.1v-.3h.2L41 48v-.2l.3-.2v.4l.1.2v.1l.1.1v.5h.2v.1l.3.3v.2l.3.1h.1l.1.3h.3l.2.2h.3v.2H43l-.2.2-.3.1-.3.1-.2.1h-1.1l-.1-.2h-.1l-.1-.1h-.2l-.1-.3h-.2l-.1-.4v-.5zm0-.4v-.2zm.4-4.4v.1h.5v.1l.1.3v.2l-.5-.2v-.1l-.1-.2v-.1zm0-1.8l.2-.1v.3-.1zm6.4 7.8h.1v-.2h.2v-.1h.2V50h.2v-.2h.5v.2l-.3-.2h-.2v-.1h.2l.1-.1.2-.2v-.2h.5v-.1h.2V49h.1l.2.2v.3l.2.2h.4l.1-.1v-.1l.2-.1.1-.2h.1l.3.2h.6l.2-.3h.2v-.5l.2-.1h.4v.3l.2.2v.3h.4l.1.3v.2l-.5-.3H52l-.3-.2h-.5l-.2.3h-.1l-.4.4-.3.2h-.1v.2h-.2l-.3.2-.3.2-.5.2H48v.2h-.5l-.1-.2h-.1v-.2h.1l-.3-.2H47v-.1h-.3zm3.9 0h.2l.2-.4h.2l.2-.2h.7l.1.2v.1h.2l.1.2.2.1v.4l.2.3v.7h-.4v-.3h-.1v-.1h-.1l-.1-.2h-.2l-.1-.1-.2-.1-.4-.1h-.3v-.3H51v-.1l-.3-.2zm7.8 4.8h.5l.2-.2h-.8 2.3v.3l-.3.1-.1.2H59l-.3-.3h-.3zm.9-.6l.3-.1.3-.2h.3v-.2h.7l.2-.1h.1v-.1l.1-.3.3-.3v-.2l.1-.1v-.1l-.2-.1v-.4l.2-.1V52h.4v-.2h.1v-.4h.1v-.3h.2l.1-.1.2.2v.5l-.3.3v.2h-.1v.2h-.1v.3h-.1v.4h-.2v-.4.2l-.1.1v.6l-.3.2v.1l-.1.2v.1l-.3.2h-.1l-.1.1H61l-.2.1h-.5l-.3.2h-.4l-.2-.3zm1.6.6l.2-.2v-.3h.2l.1-.1v.6h-.2v.1H61v.2h-.2v-.4zm.4-2.2v-.1h.3v.4h-.3zm3-3.4v-.2l.3-.2h.3-.2l-.2.2-.3.2zm2.9.7h.3v.2h-.1l-.2-.3zm1.7 1.5h.1l.1.4.2.1v.2l.2.1v.2l.1.4v.2h-.2.4v.6l-.2.2-.1.3v.3l.2-.4h.2v.9h-.3V55l-.2-.1v-.2h-.1v-1.5l-.3-.4v-.6zm1 9.8h.2v-.2h.3l.1-.1h.2v.6l.1.1v.2l.1.1v.2h.2l.2.2h-.8v-.4h-.2V62h-.2l-.1-.2v-.1zm0-7.4v-.1h.2v-.3.3l.3.4.3.2v-.1l.2.1v.2h-.2l.3.1h.2v.2-.3h.2l.2.1v1.2l-.3.1v.5l.3.2v.6l-.2.1v.2-.3l-.3-.1v-.1l-.1-.1-.1-.3-.2-.2v-.1l-.1-.2v-.3h-.2v-.4l-.2-.2-.1-.1v-.3l-.1-.4v-.5zm.5 3V57l.1.3.3.3v.1l.1.1v.5l.2.2v.2l.1.1v.2h.1v.3h.1v.4h-.3v-.3l-.2-.1v-.5h-.2v-.7l-.1-.3v-.3h-.2v.2h-.1v-.2zm7.1 2.2v-.1l.1-.2h.1v-.3h.2l.3-.2h.1l.2-.1.1-.1h.3l.3-.3h.1l.1-.1h.2v.4h.1v.1-.5h-.3.3l.2-.2h.3v-.1h.7l.2-.1h.3l.2.3.3.1h.2v.3h.2l.1.2.3.3v.2h.2v1.5h-.3v-.2l-.2-.1h-.8v-.6h.3v-.2l-.2-.2-.2-.2-.1-.1h-.7l-.1-.2h-.2v.3h-.2v.6l-.1.2h-.6V59l.3.3v.2l.1-.3-.2-.1.1-.3h.2l.1-.3h.2v-.3h.3v-.1l-.3.2-.1.1-.3.2v.2h-.4v.2h-.8l-.1.1h-.2l-.2.3H78v.2h-.4zm2.7 10.4v-.1l.2-.1.1-.2h.3l.1-.2h.2l.1-.1v-.3l-.1-.1v-.1l-.4-.1-.2-.2-.1-.1V68l.4-.2v-.5l.1-.2v-.9l.2-.2v-.1l.1-.1v.2l.2.3.1.3.1.2v.2l.3.1v1.5l.3-.3v-.5l-.3-.1v-.2l.2.2v.1l.3.2v.2l.1.2v.6h.1v1h-.3v.4h-.1v.2l-.3.1v.1l-.2.2h-.3l-.4.3h-.4v.1h-.3l-.1-.2V71h.3v-.8l-.2-.2zm.2-10.8h.2zm0 13.1l.2-.1.2-.4v.3h.3v.1h.1l.2-.2h.1v-.1h.2v.2l-.3.1.3-.3h.2v.7l.3.3v.3l.1.2v.2l-.4.1v.2l-.3-.1-.2-.1-.3-.2-.2-.1v-.1l-.4-.3v-.1l-.1-.2v-.2zm1.1 2v-.3h.1v.2l.2.1.1.2h-.5zm-.2.2h.4v.2h-.2zm.4-8.7v-.2l.2-.4.3-.4v-.1l.1-.3.2-.1v-.4l.1-.1.1-.2v-.1l.2-.3v-.1l.3-.3.2.1v.3h.1v.5h.2v-.4l.2.4h.1v.2h.3l.2.3v.1l.2.1v.4h-.3v.2h-.2l-.3.4h-.2v.3l-.4.3v.3h.1v.4l-.2.2v.3h.4v.3h-.4l-.1.2v.2h-.1v-.4H83v-.2l-.1-.1h-.2l-.5-.4v-.2H82v-.1l-.2-.2v-.4zm.4 1.8h.2v.2h.2v.1h.1v.1h.1v.2h.1l.1.5v1h-.4v-1l-.1-.4V68l-.1-.1v-.1l-.1-.2v-.1zm.4 6.4v-.2.2h.3v.2l.1.1v.2l.1.1v.2l-.5-.5V74zm.3-12.8v-.4h.1v-.1l.3-.1V60h.3v.6l-.4.6h-.1l-.1-.1zm.5-1.3h.3v.3h.2v.4h-.3V60h-.1zm0 0"/><path d="M83.1 75.6l.2.2.1.2.2.2h.2v.2h.2l.1.2h.3v.2h.1l.1.2h.2v.1h.2v.2h.2v.2h.2l.2.2v-.1l-.3-.2-.2-.1v-.2L85 77h-.3v-.3h-.3l-.1-.2-.1-.1v-.1l-.2-.1h-.2.5v.2h.2l.1.1v.2h.2v.1h.2l.2.2.4.4h.4v.2l.1.2.1.2h.2v.5h.2v.3h.1v.2l.2.5v1.8l.1.1v.4h.3v.2h.3v.1h.2v.2l.2.1v.5l-.2.1.2-.2v-.3h.4-.2v-.2H88V82h-.6v-.1h-.2v-.3h-.1v-.1h.7-.3l-.2-.1v-.1H87h1.2l.3.2.3.2v-.3h.7v.3l.2.1h.1v.8h-.3v.2h-.1l-.1.2-.2.1-.3.3-.1.1h-.1v.1l.2-.2v.3h-.3l-.2.2h-.1v-.1l-.2.4h-.4l-.2.1-.2.3H87l-.2.1h-.2l-.2.1H86l-.2.1h-.3l-.1.1h-.1l-.1.4v.6h.3v.3h.1v.1h.9l.2-.2.1-.1h.2V86l.6-.1h.4l.3.3h.2l.2.2.1.2v.3l-.4.1h-.9v.3h-.2v.1h-.2v.3-.3l.5-.2h.6l-.4.2-.1.4-.2.1v1h-.2l-.1.1-.2.2v.2-.2l.2-.4h.4v-.1l.2-.1v-1h.1l.1-.3h.3l.2-.1.1-.2h.1v.5-.4l.2-.1v-.6l-.4-.2-.1-.2h.5l.1.4h.3v1l-.3.1v.2h-.2v.3l-.2.2-.2.2v.1h-.1v1.1l.4.4.1.3v.2h.1v.4h-.5l-.2.1h-.1l-.1.2h-.2v.3h.2l.2.2v.1l.2.2v.3H88v.3l-.1.2v.6l.3.1v.2h.1l.3.1h.1l.1.1v.1h.2v.6h.2v.3l.2.1h.2v.2h1.2l.1.2v.1h.1v.3h.5v-.7l-.2-.1h.3l.1.2.1.2.2.1h.1l.1.2.2.1h.2v.2l.3.1.1.2.1.1.3.6h.1l.3.2v.2l.2.2v.4h.2v.2l.1.2v.3l.2.3.2.4v.1h.3v.2l.1.3h.1v.1l.3.2v.2l.2.4v.1h.2v.3l.1.4.2.1v.2-.3H96v-.4l-.1-.3v-.5h-.1v-.2l.4.3h.1v.1h.1v.3h.2v.2l.1.1.1.3.2.2v.5l.3.3v.4H97l-.1.2h-.3v.1l-.4.2-.1.1-.3.3v.9l.2.2v.2h.3v.2h.1v.3-.2h.3l.3.5h.1l.2.1.1.2.2.3v.5l.2.1v1.5l-.3.1v.8-.4l.3-.2.1.2v.4l.1.2.2.2.1.2.1.2v.4h.2v.4l.2.1.2.2.4.3v.2h.7l.1.2h.1l.1.2.2.2v.2l.2.2v.1l-.2.2v.2l-.1.2v.2l.3.1h.2v.1h.4v-.3h.2-.2v.3h-.3l-.3-.2h-.1l-.1-.3v-.2l.2-.1v-.8l-.3-.1v-.1l-.1-.1-.2-.2h-.6v-.2h-.2v-.1l-.2-.3H99l-.2-.3-.3-.1v-.5l-.1-.2v-.1l-.2-.1v-.3H98v-.4l-.1-.4v-.3h.2l.1.3h.2v.2l.2.1.1.2.3.1h.6v.1l.2.3v.1l.2.2.3.4.1.1v.4h.2v.2h.1l.1.3v.1h.2l.2.4.3.4v.1h.2l.1.3.2.3.2.2h.1l.1.1v.2h.6l.1.1h.3l.1.1h.2l.3.1v.1l-.1-.2h-.1 3.4l.1.2h.7l.3.2v.2l.2.3v.3l.3.2v.2l.2.2v.2l.2.1v.2h.2v.2h.2l.3.1h.1v.1h.3v.1h.4v.1h1l.1.1h.2-.3v-.2h.3v-.1l.2-.1v-.1h.4l.2-.1h.6v.4l.1.2.1.2v.3h.2v.3h.3v.2h.9v-.3h1v-.1h.2v-.1h1.1v.2h.2l.3.3h.2v.8l.2.2.2.1h.2-.3l-.1-.3h-.2v-.8h-.2v-.2l-.2-.1-.4-.1-.2-.2.3-.2h.2l.1-.1.2-.1h.2v.1h.3-.3v-.3l.3-.1.1-.3h.9v-.2h.7l.2.2h.1v.2h.3v.4h.1v.8l.3.2v.3l.3.2h.1l.2.2h.2l.2.1v.2h.2l.1.1.2.2h1.8v-.3h-.1l-.2.2.1-.2h.1v-.3l.1-.3v.3h-.2v.2l-.3.2v.2h-.8.5v-.3h.2-.4v.2h-.8l-.1-.4h.8v-.1h.2l.1-.1v-.2h.3v-.4h-.3v-.3h.1v-.1h1.1v.3h.1l.2.1h.8l.1.2.3.1.2.3h.1l.1.1h.1v.1h.3l.1.1h.1l.1.1h1.8l.2.2.2.1v-.3h.2v.3h1.3l.2.2h.2v.3l.1.2.2.3.2.2.1.2v.2l.2.1.1.1.2.3v.3l.2.2v.4l.1.3v.7l.2.1v.6l-.2.2v.1l-.1.4v.5h-.1v3.3l.2.2v.1l.2.3v2.7l.2.3v.3l.1.1v.2l.1.3h.1l.1.3v.1l.2.3v.2h.1l.1.5v.8l.2.5v.1l.1.2v.2l.1.2.3.3.2.3v.4l.1.1v.2l.2.1v.2h.2v.3l.2.1v.2l.2.3.2.1v.2l.2.3.1.2h.3l.1.3h.1l.4.3.2.1h.1v.3h.2l.3.3.2.4.2.3v.1l.3.2v.2h.1l.2.3v.2h.1v.2h.3l.3.1h.1v.2h.2l.2.3.1.1.1.1v.1h.2v.2l.1.2.3.2v.3-.3h.3v.2-.3l.3-.2v-.1h.1v.3l.2.4v.3l.1.2v.3h.6v-.3l-.1-.5v-.1h-.2v-.2l.2.3v.1-.3l-.2-.3-.2-.2h-.1v-.4h-.2v-.2h.2l-.5-.1-.3-.1h-.2l-.1-.2h-.2l-.3-.1v-.1l-.2-.2v-.1h-.2v-.3l-.2-.1v-.2h-.1v.2l.3.2.1.2v.1h.2v.2h-.4l-.4-.5-.3-.1-.2-.2v-.1l-.3-.2h.3v.3h.4v.2-.2h-.2l-.2-.3v-.1l-.5-.5v-.2l-.3-.3v-.5l-.2-.1v-.3h.3v-.2h.1v.5-.3l.2-.1v-.1l.2.3v.1h.2v.1h.2l.2.2v.2h.1l.1.1.2.2h.2v.2l.2.2-.4.3v.1-.3h.2v-.1h.2v.2h.2l.2.3h.4v.2h.1l.2.2h.2l.2.1h.6v-.1h.1l.2-.3h.7v-.1h-.3v-.1h-.1v-.2h.4v-.2h-.3v.2l-.2.1h-.5v.1l-.3.1v.2h-.5l-.4-.4-.3-.1-.4-.1h-.2v-.5h-.2v-.2h-.5v-.3l-.2-.2h.4l-.4-.1-.3-.2-.2-.2-.2-.2v-.1l-.2-.2-.1-.4v-.1l-.1-.1v-.4h-.2l-.1-.2-.2-.1-.1-.1h-.7v-.3h-.2v.2h.3v.2h-.2l-.2.1-.3.2h-.6v-.1l-.3-.2-.2-.4v-.7l-.2-.2v-.7l-.1-.4v-.4l-.2-.2v-.6l-.3-.2v-.2l.3.3.2.2.1.1.2.1h.2v.2h.1l.4.3h1v.1h.1v.3l-.2.3v.4h.2v.7-.7l-.2-.2v-.3l.4-.2v-.3l-.2-.2h-.1l-.2-.1h-.9l-.2-.1-.2-.2h-.2l-.2-.2v-.2h-.2l-.2-.4v-.2h-.2v-.7h-.1v-.7l-.3-.1v-.4l-.3-.1v-.4h-.1v-.3h.3v.4h.1v-1.2l-.2-.1v-.2l-.3-.3v-.3h-.1v-.6l-.2-.1v-.6l-.1-.3v-.9h.3v-.2h.1v-.3.1l-.2.2h-.2v-.3l.4-.4v.4h.2v.2h.1v.7h-.3v.4h-.1v.6l.4.1.2.2.1.2h.1v.1l.3.3v.1l.2.2v.5h-.3l-.1.3h.3v-.2h.1v.2h.1v-1.1l-.5-.4v-.1h-.1l-.2-.3h-.3v-.2h-.1l-.1-.3v-.5.2h.3v-.9l.2-.2v-.4l.3-.2v-.2l.1-.2v.2l.1.2v.1l-.1.1v.5-.6h.2v-.3l-.2-.2v-.9h.6v.2h.4l.1-.2v-.2l.2-.1v-.1l.1-.1v-.1h.3l-.1-.2h-.3l-.1.4-.2.2v.4h-.3v-.3h-.1l-.1-.1h-.5v-.4l-.2-.2v-.3l-.1-.1v-.2l-.1-.3v-1l-.1-.1h-.1v.2h-.2v-.3h-.1v-.1l.3.1h-.1l-.1-.3h-.1l-.3-.3h-.2v-.1h-.2v-.2h-.2l-.1-.2-.2-.3v-.4h-.2l-.1-.1-.1-.3-.2-.1-.2-.1v-.1h-.2l-.3-.3h-2.7l-.3-.1h-.2v-.2h-.2v-.2h-.1.2l.2-.2h-.3v-.1h.2v-.1h.2v-.1l.3-.3h-.3.2v-.1h.3l.2.2.4.5h.2l.1.2h.1v.2h-.2v.2h.3l.1.1h.1v-.4.2-.3h-.3l-.2-.2v-.1h.3-.4l-.2-.1-.2-.2-.2-.3h-.2v-.1h.4v.3h.2v.1h.2l.1.2h.4v-.4h.1v-.2h.4v-.2h.3l.3-.1h.2v-.1h.5v.3l.3.1.2.3h.3v.6l.1.1h.2v.2l.2.2v.2h.1v.4h.1v.2-.3l-.2-.1v-.4l-.2-.2v-.2h-.1l-.1-.4v-.4h-.1l-.3-.2h-.1v-.1h-.3v-.2l-.1-.1h-.1v-.1h-1.3l-.1.3h-.1l-.2.3-.3.2h-.4l-.1-.3h-.3v-.3h.3v.2h.1v-.2h.2v-.2h-.3v-.1h.3v-.1h-.4l-.2.4h-.3v.2l-.3.1-.2.4h-.1l-.2.3h-.3l-.2.1h-.7l-.5-.3h-.5l-.2-.2h-.1l-.5-.1h-2.4v-.2h-.3v-.2h-.3l-.1-.2v-.1h-.3v-.1l-.5-.2h-.1l-.2-.2H119l-.2-.2h-.6v-.1h-.9l-.4-.2h-2.3v-.2h-1.5l-.1.3h-.2l-.2.1-.3.2-.2.1h-.2l-.4.2h-.1l-.4.3h-.4l-.2-.2h-.3l-.1-.3h-.3l-.2-.1-.1-.2h-.1v-.3h-.2v-.1l-.1-.3h-.1.2v.3h.3v.2l.2.1h.2l-.3-.4h-.1v-.4l.2.2h.4l-.2-.2-.2-.1v-.2h.2l.3.3h.5l.1.4v-.4h-.2l-.2-.3h-.6l-.2-.2-.3-.1-.4-.1h-.2v-.1h-.3l-.2-.3H107v-.2h-.5v-.1h-.5l-.1-.1h-.2l-.2-.1-.1-.2h-.4l-.2-.2h-.8v-.2h-.5l-.1-.1h-.4l-.1-.2h-.4l-.1-.3-.3-.2-.2-.1-.1-.1-.3-.2-.2-.2-.3-.2-.1-.2v-.1l-.3-.3-.1-.2-.2-.2v-.1l-.4-.6-.2-.3-.1-.4-.1-.2v-.2l-.2-.2-.1-.1v-1.2H99v-1.1l-.2-.1v-.1l-.2-.4v-.2l-.1-.2v-.1l-.2-.3v-.4h-.1v-.2h-.1v-.2H98v-.2l-.3-.2v-.8.2h.2v-.2l-.3-.2v-.4l-.1-.1v-.3l-.3-.2v-.2h-.1l-.1-.4-.2-.1-.1-.3h-.2l-.1-.3v-.2h-.3v-.4H96V99l-.3-.1-.1-.1v-.1l-.4-.4-.1-.2H95v-.3h-.2v-.1l-.1-.2-.2-.2-.2-.1-.1-.2-.2-.3h-.2v-.3h-.2l-.2-.4-.4-.6-.2-.4-.1-.2-.3-.3v-.2h-.2L92 94v-.1l-.3-.3h-.1v-.1l-.3-.2v-.6h-.2v-.2l-.1-.2v-.9l-.2-.2V91h-.1v-.2h-.1v-.3l-.1-.1v-.2h-.1v-.7h-.1v-1l.4-.5.1-.2v-.3l.2-.3V87l.2-.3V86l.2-.1v-.3l.1-.2v-.1h.2V85l.2-.2v-1.2h.1v-.1l.1-.2v-.2l.4-.1.1-.1.2-.3.1-.2v-.2h-.2l-.1-.2v-.1l-.3-.1h-.1V81l-.2-.1v-.4l-.2-.3-.2-.2-.1-.4v-.2l-.2-.1v-.5l-.3-.3v-.3l-.2-.2h-.9l-.2.1h-.2v.2h-.1l-.4.4v.1h-.2l-.2.2v.3l-.1.3h-.1l-.2.2h-.6v-.3h.3v-.1h-.2v-.2h-.2V79h-.1v-.2h-.2v-.2l-.2-.3V78l.2.3v.1h.2v-.1L87 78l-.1-.2v-.6l-.2-.2-.1-.2-.1-.1-.2-.1h-.1l-.2-.3h-.2v-.1h-.2.4v.2h.3V76h.3v-.2h.2l.2.2v.1l.3.2h.1V76h.3-.7v-.2h.3v-.1h.1-.3l-.1-.1-.2.2-.3.2h-1.6l-.4-.2h-.2l-.1-.2H84v-.1h-.2l-.1-.2zm2.3 10v-.5h.2V85h1.1l.3-.1.2-.1.3-.1v-.1l.3-.1h.2v-.2h.1l.5-.3h.2l.2-.3.2-.2h.1l.2-.2v-.2l.3-.1v-.2l.2-.3v-.7l-.1-.4-.3-.2h-.3V81h.2v-.2l.4-.1h.1l.1-.2h.2v-.1h.5v.4h.2v1l.1.2h.2v.1l.2.2V82h-.2v-.2h-.2v-.1H91v-.6.2h.2V81h.1v.2h.2v.6h.1v2l-.3.1v.2l-.2.1v.1l-.2.3-.1.1-.2.3v.1l-.2.1.3-.2.2-.2h.1v-.1l.2-.1v-.2h.2v.4h-.3v.2l-.1.4v.3h-.3v.2l-.2.1-.2.3v.3l-.3.1v.6l-.2.1v.7h-.2v.3h-.1l-.4-.2V88l-.1-.1v-.2h.3v-.2h.1v-.2h.2V87l.1-.3v-.3l-.3-.3h-.1l-.1-.1-.3-.2h-.7l-.4-.3h-.7l-.1.2-.4.1-.3.3h-.7v-.2h-.2zm0-9.1h.2l.2.1h.2l.2.1h.2l.1.1.3.2v.2h-.3l-.1-.2h-.1l-.4-.3-.5-.3zm.6-.4h.3zm1 4.9v-.2h.2v.2h.2zm0-.7v-.6h.3l.1.1v.2l.2.2.1.2h.5l.4-.2V80h.1v-.2l.2-.1.1-.1v-.3l.3-.3v-.1l.3-.3h.2v-.2h.2v-.1h.5l-.3-.1.3-.1h.1v.3l.1.1h.2v.1h.1v.1l.2.2v.8h-.3v.3h-.2v.2l-.1.1h-.7l-.2.2h-.1l-.2.2h-.1l-.2.3h-.3l-.1.2H88V81l-.3-.1-.4-.3-.2-.3zm.8-.5h.3v.2h-.3zm.1 13.3v-.3l.3-.2v-.1l.2-.2v-.4l-.2-.3-.2-.2V91h.6l.2-.3h.2l.1.3v.3l.3.2-.2-.3V91l-.2-.1h.4v.1h.2l-.2-.1h-.1l-.1-.3-.2-.1h.3v-.2H89v-.1l-.2-.1h1.1v-.3h.1l.2.4v.5h.1V92l.2.2v1.2l.1.1v.5l.3.4.1.2.1.1v.2l.2.1v.3h.2v.4l-.3.1H91v-.4l-.2-.2-.1-.2h-1.2l-.3-.3v-.2l-.2-.1V94h-.2v-.2h-.1l-.2-.3h-.3v-.1H88v-.2zm.5-13.4v-.2.3zm.2 9.6v-.4h.2v-.3h.1l.1-.1v-.1h.2l.2.3h.2v1.1-.3l.1-.2V89h.1v-.3h.1v.6h.1v.5l-.2.1h-.2l-.3.1h-.6v-.4h-.2v-.1zm0-.8v-.2h.4v.2l-.2.3h-.1zm.4 0h.3zm1.1-.5v-.2h.2v-.6h.2V87h.1v-.2l.1-.2v-.2l.3-.2v.8h-.3v.4h-.2v-.2.2h.2v.1h-.1v.1h-.3v.5h.3v.3l-.3.1v.2-.3l-.2-.1v-.1zm.4-.1v-.2l.2-.1v-.1.3h-.2v.2zm.5 5.3V93h.2v.5l.3.1v.1h.1v.3h.1l.3.2v.1l.3.4v.1H92l-.2-.1-.3-.2v-.1l-.3-.2v-.4h-.1l-.1-.1v-.6zm.2-12.9v-.2h.2v.4h.2v.1h.2v.1h.1l.1.1v.9l.2.2v.1h.2v.2h.1v.1h.2v.1l.1.3-.4.2v.1H92v-1h-.2v-.3l-.1-.2v-.1l-.1-.3V81l-.1-.2-.1-.1zm.3 4.8v-.5h.3v.4l-.3.1h-.1zm3.6 13.3l.2.2.1.1.1.3h.2l.1.1-.4-.2h-.1l-.3-.4zm.9 6v-.4l.3-.2.1-.2.4-.2h.3l-.1.4v.2h-.2v.2h-.2.2l.2-.2v-.2l.1-.2v-.3h.3v-.3h.1v.4l.1.1.1.4.3.1v.2l.3.4v1.2h-.2l-.3.4h-.2v-.2h-.1l-.2-.2-.1-.3H97l-.2-.2-.3-.2-.1-.1v-.1l-.3-.3zm1.4-3l.1.3v.2-.3zm.4 7.1v-.4h.2v.3zm0-2.2v-.2h.2v-.1l.2-.2v.4l.2-.2v.3h.1v.9H98v-.8zm.2 1.5h.2v.2zm.2-.2h.1v-.3h.2v.4l.2.3-.3.2h-.2v-.5zm.1.8h.5v.2h.1v-.4l.1.5.2.2v.3h.2v.1h-.8v-.3l-.2-.3v-.2zm.2-2.4v-.6.2h.2v-.2l.1.2v.7h-.3zm0 2.3h.3zm.2-1.1v-.2.3h.3v.4h-.2l-.1-.3v-.1zm3.1 4.8h.2l.1.2v.2h.6v.1l.5.3h.9l.2.2h.5l.2.2h.1l.2.1v.2h-1.8v-.3h-.5l-.2-.2-.3-.2-.2-.1-.3-.2v-.5zm7 2.5h.2l.2.1v.3l.2.1h-.3l-.1-.3v-.1zm3.6 1.8h.2l.1-.2h.6l.2-.1h.8v-.2h1.1l.3.2.3.2v.1l.3.3.2.2v.2-.3h.5v-.2h.4l.1-.1h.8v.2l-.3.2-.1.2h-.3l-.1.2h-.5v.1h-.6l-.4.2v.1h-1.3v.2l-.3.1h-.4v-.3h-.1v-.3h-.2v-.3h-.1l-.1-.3h-.1v-.2h-.2v-.2h-.9zm3.6-.3h.3v.2h.3v.2h.3l-.4-.4h-.1.6l.4.1.3.1h.2v.2h-.6l-.5.2h-.6v-.3l-.2-.1zm5.2 1.7h.3l.1.3h.1v-.2h.3v.2-.3h-.3v-.5h-.1v-.1h.4l.3.4v.1h.1v.1h.4v.2l-.3.2-.3.3h-.7l-.1-.2-.2-.2h.3v-.2h-.4zm.3-.1v-.2h.2v.3zm1.3-.3h.2zm.2 1.3v-.1h.1l-.1.1h-.2zm3.8-.6h.5v-.2.2l.2.2.2.1v.2h-.7v-.2l-.1-.2zm1.4-1h.3-.2zm3.2 2.8v-.2l.2-.1.1.1h.2l.1.4v.3h-.2v-.3h-.4zm1.5 5.6v-.5l.1-.3v-.4l.1-.2h.1v-.4h.2v.2l.2.1v.1h-.3v.2l.2.3v-1h.3l.1-.1v-.2.3l.1.3v.2h-.3v-.3h-.1v.2l.3.1v.7l-.4.2-.2.1v.2l-.2.1v.2l-.1.1v.2h-.2v-.3zm-.1-4.2h.2v.2h.2v.2h.2v-.3l-.3-.3h-.3v-.2h.4l.2.4h.1l.1.2v.2l.2.2v-.2l.1.3.1.1v.8l.2.2-.5-.3h-.1l-.2-.2-.4-.2v-.5l-.2-.3.2.4v-.4l-.1-.2zm.6 8.8h.2v-.2h.1v.3h-.3v.3zm-.1 1.1v-.5h.2v-.3l.2-.1v-.2h.1v.6l-.2.4v.1l-.2.2h-.1zm.1.9v-.2h.5v.2h.1l.2.1v.5l-.2.2-.5-.4v-.3zm0-6.8v-.2h.2v-.2h.2v.2l-.3.3zm.6 7.5l.1-.1v-.2h.2v.6h-.3v-.2zm.1 1.5v-.4l.2.2v.4l.1.3v1.3h-.1v-.4l-.2-.3v-1zm.2-.7v-.2h.2v.4zm1.7 5.1h.2l.1.2h.2v.2h1v.3h-1.3v-.3l-.2-.1zm0 .8h.5l.1.2.4.1.1.1.2.2v-.2l.2-.2v.4h.2v.5h-.3l-.2-.3-.4-.3h-.2l-.2-.3h-.1l-.1-.1zm.4-1h.1v-.2h.2v-.1h.2v-.1l.2-.2h.5v.2h.1v.6h-.6v.2l-.1.2h-.3v-.6zm.8.5v-.1l.1-.2h.2v.2h-.1l-.1.2zm.5.1h.2v.1h.1v.2h-.3zm.6.4v-.1h.2v.3zm2.2 4.1h.1l.1.2h.2v.2l-.3-.2zm.4.1h.1l.2.1v.3h.2v.2h-.4v-.2l-.2-.2zm.1-2l.6.1h.7v-.3h.5v.2h-.3v.2h-.1l-.2.2h-.5l-.3-.2-.1-.1zm-2.7 29.3v.4h.3v.3l.2.3v.5l.1.1h.1v.1h.2l.1.2h.5v-.2h.4l.1.1v.6h.3v.6h.2v.1h.1l.1.2h.1v-.5l.1-.2h.2l.1-.1v-.1l.2-.5.1-.1h.3v.3h.2v.4l.1.1v.3l.2.2h.3l.1-.3v-.1h-.2v.1l-.1.1h-.2v-.4l-.3-.1v-.3l-.1-.1-.1-.1-.2-.2h-.2v.2l-.1.2v.3h-.1l-.3.4h-.1v.3h-.3v-.6l-.2-.1v-.2h-.3v-.5l-.2-.1-.3.1h-.7l-.1-.3-.1-.1v-.4l-.1-.1v-.2h-.2v-.3h-.1v-1.3l.3-.1h.2l.1.2h.3l.1.2h.2v.1h.6-.2v-.3h-1.2v-.2l-.1-.1v-.5.3h1.2l.1-.2h-.3l.3-.3.4-.2v-.5l-.3.1v.3l-.1.1-.1.2v-.5l.1-.1v-.1l-.1.3v.2h-.2v.2h-.2v.2h-.5v-.2h-.2v.2h-.1v-.7h.3v-.8h.2v-.4h.5v.2h-.3v.2h-.1.1v.1h.2v.2h.2l-.2-.1v-.3h.3l.1-.1h.2v-.3h.4v-.1h-.5v-.4h.3v-.2h.2v-.1l.1-.3h.1v-.1h.1v-.2h-.2v.2l-.1.2-.2.3v.2h-.4v.1l-.2.2-.2.2h-.2v.2h-.1v-.4l-.2-.1v-.7l.3-.4.1-.2v-.2h.2v.3h.2l.1.2.2.1h.5-.6v-.3h-.1v-.1l.4-.1h1v-.1h-1v-.1h-.9v-.2h.3v-.1h.2v.4h.1v-.3h.3v.3-.3h1l.3-.1h.5l.1.2h.1l.2.1v-.5l.3.2v1.2l-.3.1v.2l-.2.2v.3h-.2v.3l-.2.3v.4h-.2l-.2.4h-.2l-.1.2-.3.2v.6l.4.2v.4h.1v.2l.3.3v.2l.2.1v.2h.2l-.1-.3-.2-.1v-.1l-.2-.3v-.2h-.2v-.2l-.2-.1v-.3l-.2-.2v-.2l.3-.4.1-.1h.3v-.1h.2v.6l.2.4v.8h.2v.2l.1.1v.1l.2.4h.1l.1.7.1.2.1.1v.4l.3.1v.3h.3v.2l-.2-.5v-.1l-.2-.1v-.3l.4.3v.2l-.3-.3.2.4.2.1.2.3.1.2h.1v.1l.2.2v.8l-.2.1-.2.2v.2l.3-.2v-.3h.2v.5h.1v-1h.2v.2h.2v-.3h-.2v-.1h.3v.3h.1v.1l.2.1v1.4l-.3.2v.1l-.1.2v.1l-.1.3v.1l-.2.1v.1l-.1.1v.2l-.2.3v1.4l.2.3v.3l.1.1v.3l.2.3v.1l.1.1v.1h.3v.3h.1l.3.2h.3v.1h.2v.1h.6-.7l-.1-.4h-.2l-.1-.1h-.2v-.1l-.2-.1h.3v-.2l.6.4v.2h.3l.1.2h.2v.1h.7v.2h.3l.3.3h.3l.5.4.1.1.2.1.4.1h.4l.2.2h.1l.2.1.3.2v.1l.2.2.2.1v-.1l-.2-.1v-.2l-.4-.2v-.2h-.1v-.1h.9-.6l-.1-.1h-.5v-.1h.2v-.2h.9v.2h.3l.1.2v.1h.2l.1.2v-.4h-.2l-.1-.1h.3v-.3h.2v.3h.2l.1.3v.9l-.1.2v.1l-.2.5v1.8h-.2v1.2l-.2.2v.1l-.2.2v.2l-.3.3v.4h.1l.1.2v.4h-.2v1h-.2v.2h-.1v.2h-.2v.2h-.3v.1h-.3l-.1.1v.2h-.3v.4h.2l.2.1h.1v.4l-.3.2-.1.4h-.1l-.1.2v.3l-.3.2v.3h-.3l-.1.3h.3v-.3l.2.3v1.2l.1.2v.1l.1.4v.3l.1.1v.7-.2h.1v.4l.1.2v.3l-.2.1v.4l.2.1h.3v-.1h-.4l-.2-.3v-.1l.2-.2h.3v.2h.1v-.1l-.2-.2h.6v.2h.2v-.3l.1-.1v.2l.2.1v.7l-.2.2v.7l-.2.1v.3l-.1.1-.1.3v.2h-.5l-.1-.2-.5-.1h-.1v-.2h-.6l-.2.2h-.1l-.1.3-.1.1-.3.3v1.1-.6l.3.1v.2l.1.2v.4h.1v.9l.1.2v.1h.2v.3h.4v.1l.3.2v.2h.1v.2h.4v.4h.2l.1.3v.1-.5h-.3v-.3h-.4v-.2l-.1-.1-.1-.2-.1-.1h-.1l-.2-.1v-.3h-.2v-.2h-.2v-.3l-.2-.5v-.8h-.1v-.2l-.1-.1v-.7h.2v-.2h.1l.3-.3h.8l.4.3.1.2h.1v.1h.4v.4l-.2.3v.2l-.2.3v.2l-.2.2v.6h.3v.3l.2.1v.1l.1.2v-.2h.1v-.2h-.2v-.2l-.2-.1-.1-.3v-.7l.4.1v.3l.1.1h.1l-.3-.4v-.1.1l.3.3v.3l.2.1v.4l.2.2v.1l.1.2v.1l.1.3v.2h.1v.7l.2.3v.5l.1.1v.4l-.2.2h-.2v.2h-.1l-.1.1h-.2v.1h-.1l-.3.2-.3.1v1h-.1v.3h-.3v.2h-.2v.3l.3.3h-.2.2v-.4h-.2v-.3l.2-.1h.3v-.2l.1-.1.1.3v.2l.1.1v.3l.2.4.1.2-.2.5v.1h-.2v.2h-.1v.3h-.1l.2.4v-.7l.3-.2v-.2h.2v.9-.5.2h.2v-.4l.1.5h.1v.1h.2v-.6h-.3v-.3l.4.4.1.1v.5l.2.1v3.4l.2.1v.7l.3.4v.3h.1v-.3h-.3v-.4l.2-.2v.3l.4.3v.8l.1.1v1.2l.3.3v.4l.3.2v.4l.1.2.2.2h.1v.2h1.1l.1-.2h-.1l-.2-.3h-.4l-.5-.4-.2-.2h-.1v-.1l-.2-.2v-.5l-.2-.3v-.2.2l.4.2v-.4l-.4-.3v-.6h.1l.1.1.3.2.1.1-.3-.3-.2-.1-.1-.1-.1-.4-.2-.2v-.2l-.1-.2v-.1l-.2-.1-.1-.4v-.1h-.2v-.1l-.2-.6v-1.1.6h.3v.1l.2.3v.2h.2v.2l.1.2v.5h.2l.1.3h.2l-.2-.5h-.2v-.2l-.1-.3v-.2l-.2-.3v-.2l-.1-.3v-.2l-.3-.5v-1.2l-.1-.1v-.4l-.1-.3-.2-.2v-.2l-.4-.4-.1-.2h-.2v-.3h-.2v-.1l-.1-.4-.2-.1v-1.2h.2v.4h.2v.2h.2v-.3l.1-.2h.1v-.1h.2v-.2.5h.2v.7h-.2v.1h-.1v.2-.2h-.2v.4h.3l.1-.2v-.2l.1-.2v-.2h.2l.1.4v.5h-.3l.3-.3.1.4v.1h.1v.3h-.2v.3h.2v-.3h.1v-.2h.1v-.2l-.2-.3v-.1l-.2-.3-.1-.3v-.4l-.2-.2v-2.7l-.2-.2v-.5l-.2-.4v-.9h.3v-2.5l.1-.2v-.5l.3-.4v-.3l.1-.2.1-.3v-.4h-.1l-.1-.3h-.3v-.2l-.2-.3h-.2l-.1-.2h-.2v-.1l-.3-.1v-.1l-.3-.3v-.3l-.2-.1v-.5h.5l.3-.1v-.1l.1-.2.1-.1v-.5h.2l.1-.1v-.1h.2l.1-.3h.2l.2-.1.1-.1.1-.3h.2l.1-.1v-.1l.3-.2v-.6h.1v.2-.2l-.2-.3h-.1l-.1-.4v-.1l-.2-.2-.1-.1v-.2h-.2v-.5h.1l.4-.2v.2h.4v-.2h.1v.3h.2l.3.1h-.3v-.2l-.2-.1-.1-.1v-.2l.2-.1h.1l.2-.2v-.1l.1-.2.3-.2h.1v-.5h-.3l-.1-.3-.3-.2-.2-.1v-.5l-.2-.8v-.1l-.2-.1-.1-.4v-.9l.2-.1.2-.1v-.1l.2-.1h.1v-.2h.3v-1.2h-.3V182h-.3v-.3h-.2v-.1l-.1-.1h-.1v-.2l-.1-.1v-.2h-.1v-.3h-.1v-.2l-.3-.2-.1-.2-.1-.1-.2-.2v-.7h.4v-.4h.1v-.2h.2v-.7l-.4-.1v-.2h-.3l-.3.2v.2h-.5v-.3h.2l-.4-.2-.2-.2-.1-.2v-.1h.3v-.3h.2v-.4h.1v-.5h-.6l-.3.3-.1.1h-.8v-.1h-.2v-.2h-.1v-.2l-.1-.1v-.3h.2v-.1l.1-.1v-.2h.3v.2l.2.1v.1h.4l.1-.2h.2v-.2h-.2l-.2-.2h-.2l-.3-.1v-.1l-.1-.1h-.1v-.1h-.1l-.2-.2-.5-.2-.2-.1-.1-.1-.4-.1v-.1h-.4l-.2-.2h-.1v-.2l.4.2-.3-.2-.4-.2h-.4l-.2-.2h-2l-.1-.3-.3-.1-.2-.2-.1-.2-.3-.5-.2-.5-.2-.1v-.3l-.2-.3v-.2l-.1-.1v-.4l-.1-.2-.1-.2v-.6h-.2v-.9l.4-.2v-.3h.1v.4l-.2.2v.7h.2v.3h-.3v.2l.3-.2h.1l.1.2v.4-.7h-.3v-1.1l.3-.2v-.6h.2v-.6l.1-.2v-.8l-.3-.2-.3-.3-.2-.1h-.2v-.2h-.3v-.1l-.1-.1h-.1l-.1-.3v-.3h.2v-.2h.1v-1.4l-.1-.1v-.2l-.2-.1v-.6h.3v-.5l.2-.3v.3h.1v.4-.6l.1-.3.2-.3v-1.1l.2-.1v-.5l.2-.2v-.2l.1-.1v-.5h.1v-.1l.1-.1v-.1l.3-.1v.2h.1l.2-.2h.1v-.2h1v.3h-.3.3v.1l-.4.2-.1.2h.2l.2-.3.1-.3.2-.2v-.1l.2-.1h.3l.1-.1.2-.3v-.2h.2v-.4l-.5-.1v-.4l-.3-.2v-.3h-.2v-.2l-.2-.2h-.2l-.2-.3h-.1v-.1h-.2v-.2l-.1-.1-.1-.1-.3-.3h-.2v-.9l.4-.6v-2.1l-.2-.1v-.2l-.2-.2v-.3h-.1v-.1h.2v-.5h.7v.3h.1l.1.2v.2l.2.1v.6l.1.3v-1.1l-.3-.2-.1-.3h-.2l-.3-.1h-.4l-.1-.2-.2-.1v-.2l-.2-.1v-.5l-.1-.4h-.3v-.2l-.2-.2v-.1h-.5v.3l.3.3.1.7v1.1l-.3.3v.5h.3v-.5l.2.4v.3h-.4v.6h-.2v.3-.3l.4-.1v-.2h-.2v-.2h.4v-.3l.1.3v-.3h.3v-.3.3h.2v-.2h.1l.1.3h.3v.4l-.3.2v.1l-.1.1v.2h-.1l-.3.3v.9l.1.3.1.2v.2l.2.3v2.3l-.1.4v.2h.3v.1h.2-.3v-.2h-.1v-.1h-.1v-.4h.3v-.3l.1-.1.1.1v.1l.1.2v.2h.2v-.2h-.1.6v-.3l.1.2v.6l-.4.2-.2.2v.2l-.2.1-.2.2v.1h-.2l-.2.3-.2.3-.2.2-.1.2v.1l-.1.2-.2.7-.1.2-.3.3v.3l-.1.3-.2.3v.1l-.2.2v.3l-.1.1v.1l-.1.1v.1h-.1v.3l-.2.3v.5h-.2v.5l-.1.2v.3l-.3.2v.2l-.1.3v.2l-.3.2v.6l-.2.2v.1l-.1.3v.2l-.3.2v.4h-.1l-.1.5-.2.2v1.4l-.2.2v.3l-.1.5v.3h-.1v.6l-.1.3v.3l-.2.2v.4zm.9-1.5h.3zm.6-2.1l.2-.3.1-.1h.2v.1l-.3.2h-.1zm0 .1l.2-.2h.2v.1l-.4.2zm.3-3.1v-.3l.1-.2.1-.2.1-.1.1-.2.2-.2v-.2l.3-.2v-.2h.1v-.2l.3-.1v-.2l.1-.2h.3v.2h.1v.9h-.2l-.2.1-.2.3v.6l.4.2v.2h.1l.2.2h-.2l-.1.2h-.9v.1h-.5v-.3l-.2-.1zm.7-2.3v-.4l.2-.2v.4-.8l.3-.1v-.2l.1-.2v-.3h.2v-.3h.3v.4h-.3l-.1.6v.1l-.1.2-.2.2-.1.1v.2l-.1.1v.2h-.2v.2h-.1zm.1 3v.3zm1.7-19h.3l.1.2v.8l.2.1.1.4v-.1l.3.1h.2v.5h-.3v.2h-.1l-.2-.2-.1-.4h-.1v-.2l-.2-.2v-.1l-.1-.3v-.2l.1.2v-.3h-.1v-.3zm.7 4.7v-.2l.2-.3.2-.2.1.2v.3l-.4.2v.1h-.2zm0 3v-.2h.2v-.1l.1.3v.1h-.3zm.3-.4v-.1.4zm.1.3v-.3h.2v.3h.1v.3h.2v.1h.1v.2h-.6v-.4l-.1-.1zm.3 2.4l.1-.2.2-.1.1-.2.2-.3.2-.2v-.2h.2v.4-.4l-.2-.1v-.5l-.2-.3v-.2l.4.3v.3l.4.1v.3l.1.1v.5l.2-.1v.1h.2v-.3.7l-.3.1h-.5l-.2.2h-.8zm.5 17.6v-.2h.4v-.1h-.2v-.3h.2-.1l-.2-.1h.7v.1h.1l.1.3v-.3h-.2v-.2h.5l.2.2v.4h-1v.1l.2.2v-.4h.6l-.2.3-.3.2h-.1l-.2-.3h-.4zm.3 5.2v-.4l.2-.4v-.5h.2v-.4h.1l.1-.1v-.4h.2v-.3l.1-.1v-.4h.3l.2-.3h.4v.5h.4v.2l.2-.2h.1l.2-.3.1-.1h.2v-.2h.2v-.2l.1-.3v-.9h.4-.5l-.1-.1-.1-.2-.1-.1h.5l.1.1h.3v.5-.2h.4l.2.2h.2l.1.3v.3l-.3.2h-.2v1l-.3.3v.3h.3v.1h.1l.2.2v-.3l.3-.1v-.1h-.3l-.1.3h-.2v-.3l-.2-.1v-.1l.4-.2h.2v.3h.4l.1.1h.6v-.4h.4l.1.2v.4l-.2.1-.1.1v.2h-.2v.4l.3.1.2.1.3.4h.4l.3.2v.1-.5h.3-.3v-.1h.2l.3.2v.6l-.2.2-.2.2-.1.1-.1.3v.5l.3.4.2.3v.1l.2.1.1.5v.2h.2l.1.2v.4h-.3l-.1-.3-.1-.1h-.1l-.1-.1h-.3v-.2h-1.7v.3h-.5v-.3h.8l-.3-.1h-.3l-.4-.1v-.1h-.1l-.5-.1-.3.1v.1h-.6l-.1-.3h-.3v-.1h.3-.4l-.2-.1h-.3l-.1-.1h.5-.2v-.3h.3v.3h.2l-.2-.3h-.9l-.4-.2h-.4l-.2-.2h-.5l-.1-.3h-.1v-.1l-.2-.2v-.5zm.6-4v-.6h.4v-.2l.2-.2h.2v-.1h.3v-.1h.3v.4l-.1.5h-.2l-.1.2-.2.1h-.1l-.2.2h-.4l-.1-.3zm.8.7v-.2h.2v.1zm.1-2.6h.9v.5h-.5l-.1-.4h-.2zm0 2.5v-.1l.3-.3v-.2h.1v-.1l.2-.1.1-.2v-.8h.4v.3l.1.1h.1l.1.2h.1v.4h.2v.4h-.4v.5h-.2l-.2.2h-.6v-.2h-.3zm2.8 6.4h.3-.2.5v.2h-.6zm.4 11.9v-.1h.2v.2zm0-.3h.3v-.7l.2-.1v-.4l.2-.2v-.1h.1v-.6h-.3v-.5h.3l.1-.1h.6l.1.3v.3h.2v.2h-.3v.2-.2h.4v.5l.2.1.2.3h.1v.2h-.3v.1h.2l.2-.4v-.2h-.2v-.1h-.1v.3h-.1l-.1-.3h.1v-.2h-.1v-.3h-.2v-.1h-.1v-.2h.2l.2.1.4.3-.3-.3v-.1h.5v-.1.4l.4.1.1.3.1.3v.5l-.3.3h-.2v.1h-.3v.3h-2.2l-.1.2h-.1zm.2-19v.2zm-.1 19.9l.2-.3v-.1l.2-.2v.3h.4l.2-.2h.4-.1v.2h.4v-.2.6h.2v.1l-.2.1h-.3v.2h-.6v.2h-.4v-.3l-.4-.2v-.1zm.2-19.5h.1v-.2h.3v.6h-.4l-.1-.4zm0 21.5h.2v.2h.1v.2h.1l.1.1.1.1.2.2v.2h-.6v-.6l-.2-.2v-.1zm0-.5l.2.1v.1h.2v-.3h.1v.3h.2v.3h.2v.4h-.3l-.3-.4h-.1v-.2l-.2-.1zm1.1-20h.1l.2.2v.3-.3h-.2l-.3-.2zm-.1 25h.2v.2-.4h-.2v-.2h.2v-.4h.3v-.4h.1v-.6l.1-.3v-.4h.1v-.8h.2-.3v.3l.4.2v-.2h.1v-.3h-.3v-.1h-.3l-.1-.3v-.1l-.2-.1v-.2h.7v.5l.2.1v.2l.1.2v.3l-.1.6-.1.2v.5h-.2v.4h-.2v.2h.3v.2l-.3.4v.5-.1h.2v.5l-.4.1v.2h-.1v.3h-.2v-.5l-.2-.2v-.3zm.2-6.9h.1zm0-17.4h.2zm.4 14v-.5l.3-.2v-.2h.2v-.1h.1v-.2l.3-.3h.3v-.2h-.3v-.2l.1-.1.2-.2v-.4l.1-.2v-.2h.2V186l-.2-.2v-.3l-.3-.2v-.6h.4v-.5h.1v-.6l.1-.2v-.4.3h.3v.2h.1v-.2.2-.3h-.1v-.2h-.2.3l.3.4v.2l.2.2v.2l-.2.4-.3.1-.3.3h-.1v.2l-.2.1v1.4l.2.3v.1h.2v-.1l.1.3v.4l.1.4v.1h.2v.8l-.3.2-.2.3h.2v-.1h.2v.5h-.3l-.1.2h-.2l-.1.1h-.2l-.2.2-.2.2v.4h-.9l-.1-.2zm-.1 11.5v-.3h.3v-.3h.1v.4l.1.2v.6h-.3v.2h-.1v-.4l-.1-.1zm.1-13.9v-.1l.1-.1.1-.2v.3h.3v-.3h.1v-.7h.2v.4h.1l.1-.4v-1 .3l.2.1v1l-.4.2v.2l-.1.2-.1.2-.3.3h-.2v-.2l-.2-.3zm.3 1.4v-.1l.1-.2.2-.3v-.2h.3l-.3.3v.3l-.2.2v.1h-.2zm.5 8v-.2l.3.2v.5l-.3-.4zm.2 11.3v-.1l.1-.1v.2zm.4-26.8h.5v.1h.2v-.1l.1.2.1.2v.2h-.3v.4h-.3v-.2h-.1v-.3h-.2v-.2zm.6 7.8l.1-.3.2-.2v-1.1.3-.3h.3v.2h.1l.2.2v.4h-.3l-.1.3v.2l-.3.1zM289.9 125h.7l.2-.2h1l.2.2h.2l.4.3h.2v-.3h.5l.2-.2.1-.2v-.4h.1v-.4l.1-.3v-.1l-.4-.2v-.2h-.2l-.2-.2h-.3l-.2.2h.3v.2l-.3.1h-.5l-.1-.3h-.2v-.4l-.2-.2.2-.4v-1l-.2-.2v-.2l-.2-.3v-1.1h.1l.2-.2h2l.4.2h.5l.3.1h.3l.2.2.7.2h.9l.4-.1.1-.2.2-.1.1-.3h.9l.2.3.2.1.2.1h.8l.2-.1.2-.2.1-.1v-.3l.2-.1v-.5l-.2-.2-.1-.2h-.2v-.3l-.2-.2v-.5l-.2-.3v-.5l.2-.2.1-.1.1-.1.2-.2.3-.1.3-.3.1-.1.1-.2h.1l.2-.5.1-.2h.2v-.2l-.2.3-.1.2-.2.2v-.4l.3-.3.2-.3v-.2h.1l.1-.1v-.2h.2v-.2h.1l.1-.1.1-.1.2-.2v-.1l.3-.3v-.3h.4l.2-.3.3-.3h.4l.1.4h.3v.1h.8l.2-.5.2-.1v-.2l.1-.1.1-.2.2-.3v-.1h.2v-.1h.1l.2-.6.2-.1v-.3l.4-.2h1.3v-.1h.1l.3-.1.2-.2.2-.2v-.2l.1-.1v-.4l.3-.3h.1l.1-.2h.1l.2-.1h1v-.2h.6l.1.3.2.2h.1l.1.3.2.2.3.1v.2h.5l.2.2h.4l.3-.3h.3l.3-.4.1-.3v-.2h.1v-.3l.2-.2v-.2l.1-.3.1-.3.1-.2.3-.4v-.3l.2-.2v-.1h.6l.2.4h.2l.2.1h1.1l.1-.3.2-.1v-.9l-.4-.1v-.2l-.2-.3-.2-.1-.1-.4v-.4l.1-.2h.2v-.2l.5-.2.1-.1.2-.1v-.8h.2l.1-.2h.2l.2-.1h.3l.2.3.3.3h.5l.1-.3.2-.1.1-.2v-.5l-.3-.2v-.2h-.1v-.2h-.2V99h-.3l.2.3h.3v.3l.2.1v.9l-.2.1h-.2l-.2.1h-.2l-.3-.3v-.1l-.1-.2h-.7v.3h-.3v.4l-.2.1v.2l-.1.3h-.2l-.2.2v-.3h-.3v.6h-.1v.2l-.2.2v.3h-.2v-.8h.2v-.4l.2-.1v-.7l-.3-.1v-1.1l-.1-.4-.1-.1v-.5l.2-.5.1-.1v-.1l.1-.2.2-.1.3-.3h.1l.2-.2h.5l.1-.2.3-.1.2-.1.2-.1V96h.5v.7l-.1.1v.2l-.2.3-.1.1v.6h.2v-.3h.1v-.1l-.3-.1h.3v.3h.3l.2.2h1v-.3h.4v-.2h-.2v.3h-.2l.4-.4.1-.2h.3V97h.2l.2-.3h.1l.3-.2h.2l.4-.3.2-.2v-.2l.2-.3-.3.3v.2h-.1l-.1.2-.3.1V96l.3-.1v-1h-.3v-.8h-.2v-.5h-.1v-.8h.3v-.3l.1-.2.3-.1V92l.2-.1h.3v-.2h1-1.2v-1h-.2l-.1-.1v-.1l-.2-.3v-1l.2-.6.2-.2V88l.1-.2v-.1l.3-.3v-.3l.3-.1v-.2h1.5l.1-.2h.3l.2-.2v-.1h.2V86l.3-.1v-.2l.1-.1v-1l.2-.2v-.2l.1-.2v-.9h.1v-.2h1l.2.1.1.2.3.2h.1l.1.3.2.3.3.3v.1h.3l.4.3h.4v-.3h.3l.1-.3h.2v-.9h-.2l-.1-.3-.2-.4-.5-.2v-.1h-.3l-.2-.2v-.2h-.1v-.5l-.1-.3v-.3h-.2v-.9l.2-.2v-.2l.2-.3h.5l.2.3.2.2h.8l.1-.2.1-.1.3-.1V79l.1-.1v-.2l.1-.1v-.8l-.2-.2v-.3h-.2v-.1h-.1v-.1h-.2l-.2-.1-.1-.2-.3-.2v-.2l-.2-.1-.1-.2V76h-.5l-.1-.3h-.2v-.1l.2-.3.1-.1.2-.2h.3l.1-.1.4-.1.1-.2h.3v-.2h.2v.2l.2.3v.1l.1.2h.6v-.1l.2-.3v-.5h-.2v-.2h-.2v-.4h-.1v.3h-.1.3v.3h-.4V74h-.5v-.4h-.1l-.1-.4V73h1.1v.2h.5v.2h.6v-.3l.1-.1h.6v.3h.2l.3.1h.4v-.3h-.9l-.2-.3h-.2v-.5l-.2-.1V72l-.1-.4v.4h-.3v-.2h-.2v-.1l-.2-.1v-.8h-.1v-.3l.3-.2v-.5l.2-.2h.5v-.2h.3v.4l.2.1v.3h.2v.3h.2v.2h.3l.1-.3h.3l.4-.3V70h.1v-.4h.1v-.4l-.3-.2v-.1l-.1-.2v-.4h-.2v.1h-.3v-.2h-.1v.4h-.2v-.2l-.1-.3V68l.3-.4h.1v-.1h.2l.3-.2h.1V67h.1l.2-.2h.1l.2-.1v-.2l.2.2v.1l.1.4v.6h.3v.2l.2.3h.5l.1-.3v-1.1l.2-.1v-.1h.4l.1-.2v-.1h.2l.1-.4h.1v-.5l-.3-.2V65h-.1v-.2h-.1v.2l.3.1v.3h.1v.8l-.3.3h-.1l-.2.2h-.2l-.3.1V68h-.2v.1h-.5v-.3h-.2v-.2l-.2-.3v-.5h-.1v-.2h-.1v-.4l.2-.2v-.9h-.2V65l-.2-.2h.2v.4-.4h-.1l-.1-.2-.2-.2v-.2h.3V64h.1l.2-.2.1-.1-.4.3-.1.3h-.2v.2h-.1V64h-.1v-.7h.2V63h.2v-.3h.2l.2-.2h.2v-.2l.3-.3h.1l.4-.1h.3l.2.1v.2l.3.1-.2-.1V62h-.2v-.1h-.8l-.3.1v.1l-.2.2h-.1l.3-.3v-.4l-.4-.2v-.5l-.1-.2-.1-.3v-.2h-.2v.3h.3v.5h-.4v-.2l-.2-.1V60l.3-.3.1-.1h.2v-.1h.5v-.1h.5v-.1l.2-.3h.2l.2-.2.4-.2v-.1l.3-.2h.4l.1-.1.3-.2h.5l.3.3h.2v.2h.8l.1-.2.1-.1.3-.3.2-.3.2-.2h-.2v-1l-.1-.2-.1-.2h-.1l-.3-.2v-.2l-.2-.3.2.4-.2-.1v-.2h-.5l-.3-.2h-.5v.3h-.2v-.3l-.1-.2v-.1l.4-.5.1-.1.4-.2.1-.1v-.2h.3v-.2l.1-.1v-.7l.2-.3v-.1h.2l.2-.2h.8l.3-.2h.2v-.2l.2-.1.3-.2.2-.2v-.1h-.2V51h.3v-.2h.3v-.1h.2l.1-.2.5-.1h.2l.1-.3.3-.1v-.8h-.3v.4l-.1-.4-.2-.2v-.2h-.1l-.1.2v-.5h.2v-.1h.2l.2-.2V48h.8l.2-.1h.2l.2-.3h.1l.2-.2v-.3h.3V47h.5l.1.4.3.1.2.1.2.1.2.1h.6l.1-.3-.4.3h-.6l-.1-.3-.3-.2-.1-.1h.1l.2-.2v-.5h-.3v-.1h-.2l.2.2h.2v.2h.2v.2l-.5.2h-.1V47h-.2v-.4h-.1v.4h-.2l-.2.1h-.2v-.4l-.1-.1-.1-.3h-.2v.3l-.2-.3v-.5l.2-.1h-.2v.3h-.2l-.1-.3v-.3h.2v-.2h.4l.2-.2h.7l.2-.2.2-.1h.6v-.4h.1l.3-.3v-.1l.2-.1v-.3h.2l.2-.2.1-.1V43h.7v.2l.2.1v.3h.2v.2l.1.1v.1l.2.1v.2h.5V44h.5l.4.1h.1v-.2.1h-.5v-.2h-.1v-.2h.3v-.2h.1l-.2-.3h-.2l-.1-.1v-.2h-.2v-.2l.3-.2h.4l.2.5v.1l.2.1v.2l.4.2h.2v.1h.9-.3v-.3h.2l.1-.2h1.2l.1-.1h1.6v-.2h.4v-.3h-.2v.3h-.5v-.1l.4-.1h.1l.4-.5V42h.4v-.4h.2l-.3-.1-.2.3h-.1l-.2.2h-.2l-.2.1-.1.2v.1h-.2v-.2h.2l.1-.1h-.1l-.1.3-.1.1h-.2v.3h-1 .1v-.3h.5v-.1h-.3v-.1l-.1-.1h-.3V42l-.2-.3v-.4l.2-.1V41h.4v-.1l.4-.6.2-.2V40h.1v-1l.2-.1v-.3h1v.2h.1l-.2-.3-.2-.1h-.5l-.1.3h-.1l-.1.1v.2l-.2.1v.8l-.2.2-.2.3v.1l-.3.3-.3.2v-.3.3l-.2.1v.1l-.2.2v.6l.4.1.2.3v.2l-.2.1-.1.1h-.4v.2h-.8l-.3.3h-.5l-.1.1h-.2l-.3-.2-.1-.2v-.2l-.2-.1v-.2h.3-.3v-.1h-.3v-.1h-.6V42l.4-.2v-.2h.1v-.3h.3v-.2h.6l.1.2.2.2v.3h.2v.2l.2.1v.2l-.4.1-.1.1-.1.1h-.4l.4.2.2-.3.2-.1v-.2h.3v-.1.3-.4h-.2l-.1-.4-.2-.2v-.1l-.4-.1V41h-.8v.3h-.1v.1h-.1v.1l-.1.1v.2h-.2v.4h-.8V42l-.1-.1h-.1l-.1-.1v-.1h.2v-.2.3h.1v-.4h-.3v-.3h-.3l-.2.2v.6l-.2.1h-.1v-.3h-.1v.3h-.1l-.1.1v.6h.1v.3h.2-.2l-.3.2-.3.3h-.1v.2l-.3.3-.2.1v.3h-.2l-.2.1h-.1l-.3.3h-.5v-.2h.4v-.1l.1-.1h.1v-.1h.2-.5v.2h-.1v.2h-.2v.1h-.1l-.2.1-.2.1h-.4v-.5h-.2v-.1h-.1l.4.3v.3h-.5.4v.1l-.1.3v.5l.1.3v.2l.2.1v.2l.1.1h.1l.3.2v.5l-.3.2h-.3v-.4.2h-.1v.3h-.7l-.1.2h-.3l-.2-.3h-.2v-.5l-.1-.2h-.2v-.3l-.1-.1h-.2.3v.4h-.2l-.3.1-.1.1-.2.1v.1l-.1.2v.2l-.3.2v.4l-.2.1h-.2.1v-.2h-.2l-.1.2-.2.2h-.1v.3h-.2v1l.4.1.1.2v.6l-.3.1v.1h-.3v.2h-.9l-.1.2h-.1l-.1.1-.2.1v.9l.4.2v.7h-.2v.1h-.2v.1l-.2.1-.2.2-.3.3v.1h-.2v.3l-.1.1v.6h-.8l-.2.1-.2.2-.1.1v.3l-.2.2v.4l.3.2v.1h.2l.2.1h.4l.4.1h.1v.2h.1v.4h-.1l-.2.2h-.2l-.5.2h-.1l-.1.1-.3.2-.3.2-.3.3h-.1l-.2.2h-.5v.2h-.6v.1h-.2v.1-.3l-.1.3v.1l-.2.2v.1l-.1.3v.4l.4.1v.2h.2l.3.4.2.1v.3l.1.2v.2l-.3.3v.1l-.4.1-.2.3-.2.2h-.1v.5l-.1-.3V63v.5l.2.4v.2l.2.2v.3l.1.1v.3h.2v.3h.2v.6l.1.1v.3l-.2.2-.2.3-.4.2.2-.3.1-.3.1-.2v-.1h-.3v.6l-.1.3h-.1l-.1.2-.3.3-.2.2h-.3v.1h.3v.1h-.5.5v.6l.3.2h.2v.1l.2.2h.1l.1.6v.4l-.2.2h-.2v.2h-.8v-.7l-.4-.2v-.1h-.4v-.2h-.3v.3h-.1v-.6l.2-.2h.3l.1-.2h-.4l-.2.4v.1h-.3v-.3l-.2-.1v-.8h-.1v-.2h.5v-.2h-.5l-.1.3v.4l.3.1v.6h.1v.2h.1l.2.3v.2l-.4.1v.1l-.1.3-.1.4V72h-.2l-.1.2v.1l.2.1v.5h-.5v-.2h-.6v.3h-.2v.9-.5h-.1v-.3h-.2V73h-.1v-.2h-.1l-.5-.6v-.1l-.2-.1v-.4l.4-.3h.2l.2-.2h.7-.3V71h-.8l-.1.4h-.1l-.1.1v.3l-.2.2v.1l.3.3.1.1.1.1h.1l.2.3v.1l.2.1.1.2v.3l.2.1v.7h-.2l-.1.1-.2.1h-.1v.2h-1.2v.1h-.2v1l.2.1v.2h.2v.2h.8v.2h.2l.1.1v.2h.2l.2.3.1.1h.2l.2.2.1.2v.7h.2v.5l-.4.1-.1.3-.2.1h-.7V79h-.3v-.1h-.4v-.2h.2v-.1h-.3v.3h-.1v.1h-.1v.3l-.2.3-.2.3v.1h-.2v.6h.3v.6l.2.1v.3l.1.1v.1l.1.4v.1h.1v.2h.3v.2h.4v.2h.2l.2.3.3.2v.6h-.3l-.2.3h-.2l-.2.2h-.1v-.3h-.5V84h-.1v-.1l-.3-.1v-.6h-.3v-.1l-.3-.1v-.1h-.2l-.1-.3h-.4l-.2-.1h-.2l-.3.2v.1-.2h.1v-.1h.2-.3l-.1.2v.1l-.2.2-.1.2h-.2l-.1-.4v.4l.3.1v1.2l-.3.2v.7l-.1.2-.2.2v.4h-.1l-.2.2-.2.1-.4.1H325v.1l-.3.3h-.1l-.1.2-.3.2-.2.4v.2l-.2.2v.4l-.2.1-.1.4v.7l.2.2v.4l.2.3v.3h.1v-.1h.3v.9h-.5v.2h-.1l-.1.2v-.4l-.3.4v.6h-.1v.4l-.1.1v.9l.2.2.1.1v.1l.2.4v1.1l-.1.3h-.1l-.2.2v-.3l.3-.3v-.1l-.4.4-.2.2-.1.1-.2.1-.1.1-.2.2h-.1l-.2.4-.3.2-.3.2h-.7l-.2-.2v-.1l-.3-.2v-.2h.3v-.4h.2v-.2h.2v.2h.1v.2-.3h-.2l-.1-.1v-.4h-.2v-.3l-.2-.1h-.1l-.2.1h-.1v.2h-.3v.2h-.2v.1h-.3v.2l-.3.2h-.1l-.1.1-.3.2-.2.1-.1.2-.3.3v.1l-.3.4v.1l-.1.3v1.1l.3.2v.4h.1v.1-.1h-.3v-.2 1l.3.2v.5h-.3v.3h-.2v.7h.2l.2.2h.2v.1l.2.4.1.1.2.2v.1l.2.2.1.3v.4l-.3.2h-.1l-.2.1h-.1v-.3h-.2l-.4-.1h-.1v-.1h-.4v-.1h-.2v-.2h-.2v-.2.2h-.2v.2l-.2.1v.1l-.4.5-.2.3v.3h-.2v.3h-.1v.2l-.1.1v.6l-.2.2v.2l-.2.2-.2.2-.4.3h-.8l-.2-.2v-.1l-.3-.4v-.3h-.4v-.1h-.1v-.2h-.2v-.2h-1.5l-.2.3h-.1v.1h-.2l-.2.3-.2.1-.1.1-.1.3v.3h-.3v.2l-.1.2h-.1l-.2.1-.3.2h-.6l-.3-.3v-.3h.3v-.1h.2-.3l-.3.3v.2l-.4.2v.3l-.3.2-.2.3h-.2l-.1.1h-.2v.7l-.1.3-.2.1v.1l-.1.2-.2.2-.4.1h-.5l-.2-.1v-.2h.3v-.2h.3v-.1h-.2l-.1-.1h-.2l.2-.1h.2v-.1h.3v.2l.1.2v-.3h-.2v-.2h-.4v.2h-.3v.3h-.2l-.2.2-.2.1-.3.2-.2.2h-.1l-.1.3h-.1l-.3.2v.1h-.2v.3h-.1l-.1.1-.2.1v.2h-.3l-.1.2-.2.2v.2l-.3.6v.1l-.1.2v.4l-.2.2-.3.3h-.1l-.2.2h-.1l-.2.1h-.2v-.3h-.1v-.5h.4v-.1h-.4v1.1l.2.3v1.3l.1.3v.3h.1v.1h.3v.2l.2.1v.6l-.2.1v.1l-.3.1h-.1l-.2.2h-.5l-.3-.4h-.2.1l-.2-.1h-.3l-.2-.2h-.1v-.3h.2v-.2h.1v-.1h.7v.3h.2v.1l.3.1-.3-.2h-.2v-.2l.3-.1h-1v-.1h-.1l-.1.2v.2h-.1l-.2.3v.1h-.2v.2l-.2.1v.1l-.2.1h-.2l-.1.2h-1.2l-.2-.2-.3-.2h-.3l-.4-.1h-.2l-.3-.2h-.3l-.3-.2h-2.1v.4h-.1l-.2.2v1.2l.2.2.2.3v.3l.2.2v.5h-.3v.3h-.1v.4l.2.2.2.2.1.2.3.1.3.2h.3v-.3h.3v-.1h.5l.1.2v.9h-.2v.5h-.1v.3H292l-.1-.3h-2.1zm1.5-2.7v-.3h.2v.4zm1.1 2.8h.2zm9.1-11.7v-.4h.2l.2-.2v.4l-.3.1-.1.3zm4.5-3.6l.1-.3h.2v-.1h.2v.3l-.4.1v.3-.2h-.2zm12.5-12.9l.3-.3h.1v-.2h.2l.2-.2h.1l.2-.2h.3v-.2h.4-.4v.2h-.2v.2l-.1.1v.1h-.2v.3h-.2l-.2.1h-.1l-.3.2zm4.9-7.5v-.2h.1v.4h-.2zm4.1-6v-.3h.1v.2zm2.2-3.3l.2-.1v.5h-.1v-.2zm.4-5v-.2h.3l-.3.1zm0 .2v-.2h.3l.1-.1h.2v.2h-.2l-.2.3v.4h.2l.1.1h.5v.2l.2.1.3.2v.2l-.6-.4h-.4v-.1l-.4-.2v-.2l-.1-.2v-.1zm.6 7h.2v.2h.2l.2.2h-.2l-.2-.3h-.1zm1.3-7.9l.2-.4h.5v.3h.2v.2h.3v.5l-.3.2-.3-.2v-.5h-.2l-.2-.2h-.2zm1.2-2.3V72h.7l.1.2h.2v.2h.2v.6h-.4v.1h-.6v-.5h-.2v-.3l-.1-.2zm3-8.4v-.5h.2l.1-.2h.1l-.2.5-.2.3zm2.4-7.4V56l.3-.2v-.2l.3-.2h.7v-.1h.3l.2.2h.9v.2h.3l.3.2v.1l.1.1v.2h.2v.3h.1v-.2h.2v.3h.1v.7h-.3v.3h-.1l-.2.3h-.1v.2h-.2l-.3.1h-.5l-.4-.3v-.2h-.5.2v-.1h.2v-.4h-.4l-.1-.2h-.1l-.2-.1h-.5l-.4-.2v-.3zm2.4-4.1v-.3l.1-.2.3-.2.2-.1h.7l.2-.2h.2l.2-.2.1-.2V50h-.3v-.1l-.2-.1v-1h.3v-.1h.7l.1-.1v-.2h.2l.1-.5v-.3l.1-.1.2-.2.2-.1.4-.2h.1v.7l.1.1v.2h.2v-.2l.1.2.1.2v.1h-.3l-.2.2v.5l.3.1v.1l.2.1v.3h.2v.4l-.2.2-.1.1-.1.1h-.3v.2h-.5v.2h-.5v-.2.4h-.2l-.1.2v.2h-.1v.2h-.2v.2l-.1.1v.1h-.1l-.2.1h-1l-.1.2.1-.3.2-.2h.5-.7v.3h-.3v.3l-.2.1v.1h-.4v-.1l-.1-.1zm5.9-5.5h.3v.3l-.2-.3zm3-4.2v-.4h.2V42h.2l.2-.2v-.4h.3v.4h.1v.3l.2.2h.3l-.3-.2h.4v.2h.2v.4h.2l.1.2v.1h.2v.2h.2l.2.3v.1h-.4v.3h-.1l-.2.1-.2.2h-.4l-.1-.2v-.1l-.1-.1v-.3l-.2-.2-.1-.3h-.2l-.1-.1h-.1v-.2h.3v.3l-.1-.2v-.2h.3l-.2-.1h-.3v.2h-.2v.2-.2h-.2v-.2zm1-.5h.2zm.9.3h.1v.3h-.2v-.2zm-.1 0"/><path d="M155.1 219.2h.4l.2.2.1.1.4.3h.2v.2h.2l.1.2.1.1.3.2.3.2h1.2v.2l-.2.3h-.1l-.3.2v.2h-.5l-.4-.3h-.4v.3h-.2l-.3.2h.6v-.4l.2-.1h.3v.3h1v-.4h.2v-.2h.1l.1-.2v-.2h.3l.1.2h.2l-.3-.1h.3v-.2h-.3l.2-.2h.2l.2-.1h.1l.3-.2h1.2v-.2h-.4 1.2l.2.3h.1l.1.1.2.1.1.1.3.1h.1l-.2-.1h-.2v-.2h.3l.4.2.1.2h.1v.2l.4.2h.1l.1.3h.1l.2.2.3.1h.2v.3h.6l.4.1.2-.1.4-.1.2-.3h.5l.2-.1h1.3l.3.2.1.2h.3v.1l.2.1.3.2v.1l.4.2.3.2h.7l.3-.2.1-.2h.5l.1.4.2.1h.4v-.5h-.3v.5h-.3v-.3h-.1v-.1h-.3v-.2l.3-.2h1.1l.3.1v.3l-.1.1v.2h-.3v-.3h-.3l.3.3v.6l-.1.1v.3l.3.1v.2h.8l.1.3h.6l.4.2h.4v-.3l.1-.1h-.4v-.1l.2-.1.1-.1h1v.2h.5-.1l-.3-.2v-.1h.2l.1-.1v-.2h.7l.1.1h.2v.3h.1v.2h.2v.4h-.3v.5l-.1.1v.2l-.1.2v.4h-.3v.2h-.1v.7l.3.1v.2l.1.2v.1h.2v.2l.3.1.2.2h.3l.2.2h1.5l.1-.3h.4v-.1h.6v-.1h.4v.3h.1v.1h.2l.5.1h.3v-.5.5h-.8v-.3h-.3v-.1l-.2-.1v-.1h.2l.1-.3h.8v-.1h-.5v-.1l.2-.5.2-.2h.2v-.2h-.2v.2l-.1.1-.2.2v-.4l.2-.1v-.2h.2l.3.1.1.1h.1l.4.5.1.1v.3l.2.1v.1l.1.2v.1h-.4.2v.1h.4v.3h.2l.2.4.3.3.1.1v.2l.2.2v.2-.4l-.1-.3h.1v.3h.2l.2.2v2h.2v.7l.2.3v.2l.1.2v.2h.1v.6h.1v.8h.8l.1.3h.2l.2.2v.1l.1.4.3.3.1.1h.5-.5l-.2-.4h-.1v-.2l-.2-.1v-.5h-.3l-.1-.2h-.7l-.2-.2v-.1l-.1-.4v-.2h.3l.1-.1v-.3h.4l.1-.2h.1l.3.3h.1v.2h.2l.2.2.2.1v.1l.2.2.2.2h.2v-.3l-.4-.1h.5v.3h.1v.1l.1.2.2.2v.1h.1v.3h.2v.1h.1l.2.1.2.2h2.1v-.3h.1l.3-.6-.3.1v.2l-.1.1v.1l-.1.1h-.1l-.2.2h-.7l.1-.4h.2l.2-.2h.1v-.1h.3v-.2h-.2v-.2l.2-.3.1-.2h.1l-.3.2-.2.3v-.4l.4-.1v-.2h.2v-.1h.5l.1.2.3.2h.1l.2.3.2.3.1.2.1.3v.4l.2.2v.9l.1.2.1.2v.4h.1l.2.4.2.2v.2h.2v.3l.3.1.2.1.2.2.2.1.2.1.1.1.2.3h.2v.1l-.1.3h-.3v.1l.3-.2.1-.2h.3l.1.2h.2v-.2l.3-.1h.5l.1-.3h.2v-.1l.2-.2v-.3h.5l.2.1h.4-.5v-.1h-.2v-.2h.3l.3-.3h.5l.4.2h.2l.2.1h.1v.2h.2v-.4h.1v-.1h.4v.5h.2v-.4h.1l.1.1h.2l.1.3h.2l.1.2.4.1.2.2.3.3h.1l.1.2.4.2.5.2h.2l.3.2.1.1h.4l.1.3h.3l.2.1v.1l.2.2h.1l.1.1v.3h-.2v.5l.4.1-.2-.3v-.6h.2v-.2h-.2.4l.2-.1.4-.1.2-.3h.1l.2-.3.1-.1.2-.3h.2l.3-.2h.2v-.2h.3v-.1h.1-.3v.2h-.3l-.1.2h-.2l-.2.1.2-.3v-.4l.4-.4h.1l.1-.4h.1v-.1l.3-.3.1-.2.2-.1v-.1l.2-.3h.5l.1-.2h.3v.4h.2v.1l.3.2v.7l.1.3v.2h.3v.1h.7v.3l.2.1.2.3v.4h.5l.3.2h.3l.2-.3h.1v.4-.3h.2l.3-.2h.2v-.2l.3-.1v-.4l.2-.2v-.8l-.2-.3-.1-.1v-.1l-.3-.2v.2l.3.2v1.6h-.3v.2l-.2.1v.1h-.4v.2h-1.3v-.4h-.1v-.2l.4.4-.3-.5-.3-.3v-.4h.2l.2-.4.2-.1.1-.2v-.1h.1v-.2l.1-.2v-.4h.2v-1.5l-.3-.3v-.3l-.3-.3v-.5l-.1-.3h-.1v-.4l-.1-.2V231l.3-.3.1-.5.2-.7v-.5h.2l.2-.4v-.1h-.2v.2h-.2v.2l-.2.1v.1h-.2v.3h-.1v.2l-.1.4-.1.4-.1.7v.9l-.2.3v.1h-.2v-.4h-.2v.3h.3v.2h.1v.2l.2.3v.1l.2.1v.8h.1v.5l.4.5v.2l.1.2v.6-.5h-.3v1.3l-.2.4v.2l-.3.2-.2.3v.1h-.8l-.1-.3v-.2h.3v.2h.1v-.4l-.2-.2-.3-.1v-.1l-.3-.2-.1-.3-.2-.2h-.1v-.1l.1-.1h.4v-.2h-.3l-.3.2h-.2v.2h-.4l-.2.2-.1.2h-.1l-.2.2-.2.2-.2.2h-.2v.2h-.2l-.2.3h.3v.1l-.3.1v-.2.3h-.2v.3l-.4.7v.2l-.3.3-.1.1v.1l-.4.3h-.6l-.1-.2h-.2l-.3-.1h1.2l.1-.1v-.1l.1-.3h-.2v.2l-.4.1H206l-.1-.1-.6-.4h-.3l-.5-.2v-.1l-.1-.1v-.2l-.4-.1v-.2l-.2-.1-.2-.1-.3-.3h-.1v-.1l-.2-.2-.4-.1h-.2l-.3-.2h-.1l-.2-.1-.1-.1h-.6l-.1-.2h-.6l-.1.3h-.3l-.3.1h-1.2v-.2l-.2-.1-.2-.2v-.1h.3l-.1-.4-.2-.3h-.3v-.2h-.2v-.3l.3-.2h.1l.1-.3h.4v.3h.3v.2l.1.1v.2h.1v.4-.5h.2v-.1h-.2l-.1-.3.1-.2h.4v.2h.2v.2h.2l.2.2v.7-.8l.2.2.1.2v.1h.3v.2h.1v.3-.2l-.2-.1v-.2h-.1v-.4h-.2v-.1l-.2-.1-.2-.2h-.1l-.1-.2h-.4v-.1h-.7l-.2-.1h-.5l-.1.4-.1.1v.2h-.2v.4l-.2.2h-.2v1.1l.3.2v.6l-.3.1v.1l-.2.4h-.3l-.2-.4v-.2h-.2l-.2-.1v-.2h-.2v-.1l-.2-.2v-.2l-.2-.3-.3-.5v-.4l-.2-.1v-.7l-.1-.2v-.5l-.1-.1h.4v.2h.1v-.2h-.3l-.1-.2-.4-.2v-.2l-.2-.1-.1-.4h-.2v-.1l-.3-.1h-.2l-.3-.2h-.7l-.2.3v.1l-.1.1-.2.2v.4l-.1.3-.1.2-.1.1h-.1l-.2.3h-.7l-.1-.2v-.2l-.2-.1v-.3h-.1v-.5l-.1-.1-.2-.2v-.1h-.1v-.4h-.1v-1h.3v-.6h-.3v-.4h-.2l-.1-.2h-.1l-.2-.1h-.4v-.2h-.3l-.2.4h-.5l-.1-.4-.2-.1v-.3l-.2-.1v-.3h-.1v-.7l.2.4h.1v.3h.1l.1.1v-.4l-.4-.3-.1-.1v-.3l-.2-.1h-.2l-.1-.2h-.5l-.2.4h-.3l-.2-.4h-.1l-.1-.2-.2-.3-.1-.2-.2-.3v-.3l.2.1v.2h.1l.1.2.1.2-.1-.4-.2-.2v-.3l-.2-.1v-.1l-.3-.3h-.1l-.2-.1-.3-.2h-.2v-.2h-.5v-.1h-.4v.3h-.2l-.4.4v.2h-.2v.2h-.1v.2l-.2.3-.3.2-.2.1v.2h-.3v-.2h-.2v.2h-.1l-.2.1-.2.1h-.3v-.3h.3v-.2l-.3.2h-.1l-.2.2h-.4l-.2-.2-.3-.1v-.1l-.3-.2h.7l.2.3h.9v-.3h.4-1.4l-.4-.2h-.3v-.2h-.1l-.1-.1v-.7.7h.6l.2.4v-.4l-.3-.2h-.1V225l.2-.3v-1.2l-.2-.1-.3-.1-.1-.3h-.1l-.6-.1-.1-.3h-.3l-.1-.3h-.1v-.1h-.2v-.2l.4.2h.3v.4h.5v.1h.2v-.3h.1v-.2h.2v.4h.3v.2h.1v.2h.8l.2.2h.1v.3l.2.1v.6l-.3.1h-.1v.4h.2v-.2l.2-.3v-1.1h-.3v-.1l-.2-.1h-.1l-.1-.2h-.7v-.1l-.3-.2v-.6l-.2-.1-.1-.2h.8l.2.3h.1l.3.2h-.1l-.3-.3v-.1h.2v-.2h.2-.9l-.5-.1h-1l-.1.3h-.2l-.3.1h-1.6v.1H173l-.1-.3h-1.1l-.1.3-.1.1h-.2v.1h-.4v.2h-.7l-.1-.2h.2l-.2-.2-.4-.3h-.2l-.1-.2h-.3v-.1h-.1.5v-.1h.2v-.1h-3.9l-.3.4h-.8.2v-.3l-.4-.1v-.2h-.3v-.1h-.3v-.1l-.3-.2-.1-.2v-.1h.4l.1.3h.1l.1.2h.4-.1l-.4-.4h-.4v-.2h-.6l-.2-.2h-.2l-.2-.3h-1.4v-.1h-1.3v.3h-.4v.1h-.2l-.3.2h-.2v.2h-.2l-.1.1h-.5l-.1.2h-.6v-.3h.5l-.2-.1h-.2v-.1h-.1v-.2h.2-.4l-.1-.2h-.3v-.2h-.4l-.1-.1h-.2v-.3h-.6l-.2-.2zm10.3 2.3h.4l.2-.3h.7l-.4.4-.3.1h-.4v-.2h-.3zm6.4.3l.2-.2zm1.5 1.7v-.3h.2v-.2h.1l.2-.2v-.5h.2v.3l-.2.1h.2l.2-.2v-.2h.8v-.1h.1l.1-.2h.2l.4-.2h.4l.1.3v.1h.2v.2l.1.1.3.3.3.2v.2h.2v.2h-.3v.3h-.1v.1h-1.3l-.2.2-.3.3h-.4l-.1-.2-.1-.1h-.3v-.4h.5v-.1h-.5l-.1.4h-.8v-.2l-.1-.1zm1-1.5v-.2h.7v.2l-.3.2-.2.1-.1-.3zm3.1.3l.3-.2h.1v.3h-.3zm.3-.3v-.4h.1v.4zm0 .2h.2l.1-.4v-.1.4l-.2.1zm.7 4.7h.2l-.2.1-.2-.2zm3.2.3l.2-.2.2-.2h-.3l.3-.1.2-.2v-.1l.3-.3v.8l-.4.1h-.1v.2zm.2-.6v-.1l.2-.1v.2zm2.5-.6h.1v.3h.1v.1h-.1l-.1-.3zm1.7 2.4v-.1h.7v.2h.2v1.1-.1h.1v.1l.3.6v.2l.4.3v.2h.1v.1h.2l.1.2.1.2v.2h-.2l-.2.3v.3l-.2.2h-.4l-.1.4-.1.1v.1h-.4v-1h.3l.1-.2h.2v-.2h.1v.3-.3h.1-.3l-.1.1v-.3.3h-.6v-.3l-.1-.1v-.1l-.1-.1v-1.6l-.1-.1-.1-.4h.3l.2-.1v-.2h-.3v-.2zm1.7 2.1h.6v-.3h.5v.3h.2l.2.2.3.2.2.1v1l-.3.3v.5l.3.2v.2h.1v-.2.2h.1v.4h.1l.1.2v.5l.3.1v.2l-.3-.2-.1-.1v-.3l-.2-.2-.2-.2v-.1h-.1l-.1-.3h-.2l-.2-.1h-.3v-.1h-.1l-.6-.5v-.7h.3v.7h.2l.1-.2v-.3h-.3v-.8h.2l.5-.2.1.2v-.2h-.2v-.2h-.1v.2h-.2v.2l-.1.1h-.3v-.3l.3-.2v-.2h.1v-.1.2l-.4.3h-.2l-.1-.3h-.1zm9 8h.3l.1-.3.2-.2v-.2l.2-.1v-.3l.3-.3h-.3v-.2h-.1v.5l-.2-.4v-.3h-.1v-.7h.4l.1.4h.2l.2.3v.2h.2v.1h.2v.2h.1l.1.1h.8v.3h.2v.3h-.8v-.2h.2v-.2h.2-.2v-.1h-.2v.6h-.7l-.1.2v.1l-.3.2v.2h-.1v.1h-.5l-.1.2v-.2l-.3-.1v-.1zm.8-2.6v-.1h.5v.2l.1.2v.1l-.1-.1-.4-.2-.2-.1zm.2 2.9l.1-.1v-.2l.2-.2h.3v-.2h.5v.4h-.3v.2l-.1.1-.2.1h-.4zm2.1-1.6h.2v-.2h1.3v-.3h.4l.1.3h.2-.2l-.3.2h-.4v.1H200zm.4-1.9l.2.2v.2zm.9 2.3h.3-.4zm.9-.2h.5l.2.1.3.3v.2h.3v.1h.1l.1.2h-.3v-.2l-.2-.1-.2-.3h-.1l-.4-.2h-.1zm4.3 2.5h.1l.2.2h.2-.3l-.1-.1zm7.9-.5h.2zm0 0"/><path d="M214.1 228.5h.4l.1-.2.2-.1v-.2h.2l.3-.1v-.2l.2-.1.1-.1h.1l.3-.4.3-.1.3-.2h.1v-.2h.2l.2-.2.3-.1.2-.2h.3l.2-.3h.3l.1-.1h1l.2.3h2l.3-.2.3-.1v-.1l.3-.1.1-.3.3-.3.2-.4.1-.1.1-.1.1-.3h.2v-.8l.2-.2v-.2l.1-.2.1-.2.1-.1.1-.3.1-.2.1-.2.2-.2v-.3h.2l.1-.1h.1v-.3h.2l.3-.1.2-.2.2-.4v-.6l-.3-.2-.2-.2v-.1l-.1-.2v-.3h-.2v-.1h-.1l-.1-.1-.2-.2v-.2l-.1-.2v-.3l.3-.2h.2l.2.3h.1l-.2-.2h-.5v-.2h1.6v-.2h.2l.2-.1v-.2h.2v-.2l.2-.3v-1.1l-.4-.2v-.2h-.1v-.3h-.4v-.4l.2-.2.3-.3v-.2h.2v-.1l.1-.1v-.1l.2-.1v-.7h-.3l-.2-.3v-.3l-.3-.2v-.9h.4v-.2h.6l.1.2.4.3h.2l.2.1h.2l.4-.2v-.2h.2v-.1h.2-.5v.3h-.3l-.2.1h-.4l-.1-.2h-.2l-.2-.3-.2-.1h-.6v.4h-.3v.2-.1l-.1-.2v-.3l.2-.3h.1l.1-.2h.4l.3-.2.1-.2.2-.1.1-.3v-.3h-.3v-.3h-.2l-.1-.1h-.2l-.2-.2-.1-.1h-.1v-.3h-.1v-.3h-.1v-.2l-.2-.2-.2-.6v-.4h-.2v.3-.3h-.1v.3h-.1v.3h.3v.2h-.3v-.4l-.1-.1-.2-.3v-.1l-.1-.2v-.3l-.1-.2v-.8h-.1l-.2-.1-.1-.1h-.1v.1h.3v.2h-.3v-.7h.4l.2-.2h1.2l.4-.1v-.2h.2l.1-.2v-.2l.3-.3v-.2l.1-.1v-.6h.2v-.4h-.2v-.7l.3-.1.1-.2h.1l.3-.1h1.2v.1h.2l.1.2h.7l.1-.4.4-.1v-.2l.2-.3v-.3l-.2-.2v-.3h-.2l-.4-.9-.1-.1v-.7h.3v-.3l.1-.1v-.1l-.2.4-.2.1h-.1v.2h-.2v.6l.3.1h-.3.2v.2l.1.2h-.1v-.2h-.4l-.1-.2h-.1l-.1-.2-.1-.1v-.1l-.3-.2v-.7h.3v-.2l.2-.3v-.2l.2-.3.2-.3v-.3l.1-.1.2-.1v-.5l.2-.3v-.1h.1v-.3h.1l.3-.3.2-.2.2-.1v-.1h.2v-.3h.3l.1-.1v-.2l.3-.2h.2v-.4l.2-.3v-.2l-.2.1v-.4h.2v-.4h.1v-.2l.1-.2.2-.2v-.1h.2v-.1h.2v.1l-.2.2-.1.5.2-.4v-.3h.2l.2-.5.1-.2.3-.3v-.1l.1-.2.3-.2.1-.2.3-.4h.1v-.1l.3-.3v-.1l.3-.1v-.2l-.2.2-.2.2-.3.2v.2h-.3v-.1l.3-.5.2-.2v-.1l.2-.1v-.2l.3-.1h.1l.2-.1h.2v-.2h.2l-.3-.1h.2l.1-.1h-.3l.2-.3v-.1l.2-.2.2-.4v-.1l.1-.2v-.1h.2v-.2l.1-.2.3-.3h.6v.2l.4.1h1.3l.1-.2h.2l.2-.3.2-.3.2-.2v-.1l.3-.4v-.3l.1-.2v-.2l.1-.2.1-.1.1-.3h.2l.2-.3.3-.1v-.8l-.1-.3-.1-.2v-.9h.2l.1-.1h.4v-.1h.2l.2-.2h.1v-.2l.1-.1v-.4l.2-.2V176h-.3v-1.5l-.2-.3v-.2l-.2-.3v-.3l-.1-.4-.1-.3v-.5l.3-.4v-.2l.1-.4v-.1l.1-.2.1-.2h.4l.2-.2h1l.3-.1h.1l.4-.3.1-.1h.2v-.2l.1-.1v-.8l-.1-.2v-.1l-.3-.2-.4-.4-.3-.1v.1h-.4v-.2h-.4l-.2-.1h-.1l-.2-.2-.2-.1-.2-.4-.2-.1v.3h.2v.1h-.2l-.2-.5v-.1h-.3v-.3h-.2v-.1h-.1l-.2-.1v-.1h-.3v-.1l-.3-.2-.2-.1-.4-.1-.1-.3-.1-.1v-.2h-.2v-.2h-.1v-.1h-.1v-.7l-.2-.3v-.6l-.2.3v-.3l.2-.4.2-.1h.5l.5.6v.2h.3l.2.2h.8v-.2h.3l.1-.4.3-.3v-.5l-.2-.2v-1l.4-.2v-.3l.3-.3v-.2l.3-.3v-.4h.2V158l-.2-.3-.3-.5v-.2l-.1-.1-.3-.4-.1-.5v-.1l-.2-.1v-1l.3-.3h.6l.1.3h.4-.4l-.1-.3.3-.2h.6l.2-.2v-.5h.2v-.3h-.2v-.5h-.2v-.3h-.1v-.7h.3v-.5l.5-.2h.5l.2-.1h.2l.2-.2.2.2v.6l.1.3.3.2h.3l.2-.2v-.2h.2l.1-.3v-.9l-.2-.2-.1-.2-.1-.1h-.3v.3h-.2.4v.1h.4v.6l-.5.4v.4h-.5v-.6h.3l-.2-.2-.3-.1v-1.3l.2-.2.1-.1.2-.1.1-.2h.1l.2-.2.1-.1v-.2l.2-.2h.3v-.2h.9v.3h.1l.2.2h.4v.4h.2v.3h.4v-.5h-.2v-.3h.5v.2h.5v-.1l.2-.1v-.5h-.5v-.2h-.2v-1h-.3v-.5l.2-.1v-.2h.1l.1-.2v-.1l.2-.2v-.2h.1v-.2.4h-.4l-.1-.3-.1-.2v-.1l-.1.1v.2h.2v.1l.2.2v.3l-.2-.3v.3l-.1.2v.2h-.1l-.1.2v.4h.3l.2.2v.3h-.2v.6h.3v.1h.1v.2h.2v.5l-.1.1h-.4l-.1-.3v-.1h-.4v.8h-.3v-.6l-.1-.1h-.3v-.1h-.1l-.2-.1h-.2l-.4-.3h-.4l-.3.3h-.2v-.3h-.2v-.2h-.2v-.2l-.1-.3v-.3l.4-.2.2-.1h.2l.2-.1h.5l.2-.2h-.6l.3-.1.1-.3.2-.3v-.5l-.1-.2-.2-.2v-.4l.2-.2.3-.2h.1v-.4h.3l.1-.2h.1l.2.3.2.3h.1v.1l.1.2h.1l.2.3h.2l.2.2h-.3v.1h1l.1-.4h.4l.1-.2h.1l.2-.3h-1.8l-.2-.2h-.4v-.1l.2-.2h.2v-.1h.1-.2l-.1.2h-.5v-.3h-.7v.4l-.2.1v.2h-.2l-.1.3-.1.1v.6l.1.1h-.1l-.2-.3v-.6l-.1-.1v-.8l-.1.2v1.3l.3.2.3.4v.6h-.3v.2l-.3.2v.1h-.1l-.2.2h-.2l-.2.1h-.1l-.2.2v.7l.3.3h.1v.8h-.3l-.1.2-.2.1-.3.3v.1l-.1.1v.2l-.1.2v.5h-.2v-.1l-.1-.1v-.5.5l.2.2.1.1v.3l-.1.1h-.4.1-.6l-.5.3h-.1l-.1.3v.1l-.1.3-.1.3v.4l.2.1v.2l.2.4v.7l-.2.1-.1.1h-.3v-.2h-.2l-.2.2h-.5l-.3.2h-.2v.1l-.1.2v1.3l.2.3v.3l.3.2v.2h.1v.1l.1.1.1.1v.2l.3.2v.6l.1.2v.6l-.3.2h-.1v.2l-.2.4v.1h-.2v-.3.5h-.1v.2l-.2.2v.6h-.2v1.7h-.1l-.1.3h-.2v.2h-.2l-.1.1h-.3l-.3-.4h-.1v-.1h-.2v-.3h-.1l-.1-.2h-.2.4-.2l-.2-.2h-.6l-.2.2-.2.2v.2l-.1.2v.2l.2.3v.5l.1.2v.3h.2v.3l.2.2.2.3h.1v.8l.3.2v.2l.2.2h1.2v.1h.1l.2.1v.1l.3.1.4.3.2.3h.2l.1.1h.5v.2h.4v.1h.6v.1l.1.1.2.2.1.1v1l-.3.1v.1h-.1l-.2.3-.3.1h-1.4l-.3.3h-.3v.5h-.2v.3l-.2.1v.2l-.1.3v.9h.2v.7h.1v.3h.1v.6l.3.2v1.4l.1.1v1.2h-.2v.5l-.2.1h-.6l-.1-.1v-.5h.1-.2l-.1-.3v-.2 1.8l-.1.4v.1l-.2.2v.3h-.1v.6l-.1.2v-.1h.3v-.9l.2-.1h.1v.3l.1.2v.6h-.4v.3h-.1v-.3h-.1v.3l-.1.1v-.4l-.2.3v.4l-.2.2v.2l-.3.3v.3l-.3.4v.3h-.2v.3h-.1l-.1.2h-.2l-.2.1h-1.2v-.2h-.2v-.2h.2l.1-.1h-.5l-.4.3h-.1l-.1.2h-.4v.3l-.2.1v.3h-.1v.2h-.2v.5h-.1v.2h-.2v.5h-.1l-.2.1h-.2l-.2.2v.1l-.3.3v.1l-.3.2v.3l-.2.3v.4l-.4.2-.1.3h-.2l-.1.1v.2h-.1v.1l-.1.3h-.1v.1l-.4.2-.1.2-.1.2-.3.3v.1l-.2.3v.1l-.2.6v.5l-.1.1v.2l-.1.2h-.2v-.2h-.1l-.1.2h-.1v.3h-.2l-.2.1-.6.8-.1.2-.1.2v.2l-.2.2v.2h-.2v.2-.2h-.1l-.3-.2-.1-.1h.1v.1l.3.1v.1h.2v.5l-.3.1-.1.4-.2.4v.2h-.2v-.5l.2-.1-.3.3v1.7l.3.3.1.3.2.1.1.1h.3l.1.2h.2l.1.1.3.2v.1l.2.2v.6l-.2.1-.2.2-.2.1h-.5v-.2h-.5v-.2h-.3v-.2l-.2.2-.1.2-.4.1h-.3l-.3.1-.1.2-.2.1-.1.1v.3l-.1.2v.1l-.1.2v.8l-.1.2v.7h-.2v.2h-.1l-.2.2h-.6.1l.1-.1h.2v-.3h.1v-.1h.2-.2l.1-.2.2-.3.1-.1.2-.2v-.2.2l-.3.2-.1.2h-.1v.3h-.2v.1l-.2.1-.1.3h-.2v-.4h-.3v-.1h-.3v.3h-.2v.1h-.5l-.2-.2h-.2v-.7h.2l.1-.1h.3l.1-.2.2-.1v-.2l.3-.2h.1v-.2h.1v-.2.2h-.4v.4h-.1v.2h-.2l-.1.2h-.1l-.3.1v.1l-.3.2v.4l.3.1.2.1.1.2h.5l.2-.4h.5v.4h-.4l-.4.1-.2.2h-.1l-.1.3-.2.2v.6l.4.1v.2l.2.1v.9l.2.3v.2h.2v.1h-.4v.2h-.2v.1h-.3v.1h-.5.4v.1h.6v-.2h.2v-.2h.2v-.1h.1l.1.2v.8l.1.2v.7h-.3v.3l-.2.1-.3.2.2-.3-.1-.3v.4h-.2v.2l-.2.2v.2h-.1l-.1.4-.2.1-.4.1h-.4v-.2h.3-.4v.2l-.3.2-.3.1h-.1l-.1.2v.7h.2v.1l.2.3v.2l.1.2.3.2.1.2h.6l.3-.2h.7v.4h-.2v.2h-.1v.1l-.3.1v1.4l-.1.2v.1l-.1.2v.2l-.2.1v-.3.2h-.2v.4l.2.3.1.1v.6h.2v.7l.2.2v1.3h.1v1.8l-.2.1-.1.2-.1.1-.2.3v.7l-.2.1-.1.4v.4h-.2v.2l-.3.4v.4l-.2.6-.4.6-.1.2h-.2v.3h-.2v.2h-.2l-.1.2h-.2l-.2.1h-1.1l-.2-.3h-.2v-.1h-.4l-.1-.1h-.6l.2-.1h-.2l-.3.3h-.3v.2h-.2l-.2.2h-.2l-.4.1-.1.1-.2.2h-.1l-.1.1h-.2l-.2.2h-.2l-.1.3h-.3v.1l-.1.1-.2.1v.1h-.2v-.1.1l-.2.1v.2h-.2l-.2.3-.3.3-.3.2zm8.5-17.9v-.2l.2-.1.2-.3h1.2l.1-.1h.6v-.3h.1v-.2h-.3v.5h-.3v-.4l.3-.1v-.1h.5v-.1h-.2v-.4h.3v-.2l.3-.1h.1v-.2h.7v-.2h1v.3h.2v.7l-.2.1h-.3v.2h-.7v.3h-.2v.8l.2.3v.3l.2.2v.1h-.4v-.2h-.1v.2l.2.1h.3v.2l.1.1.3.1v.1l.2.2v.6h-.4v.2h-.2v.4l-.1.2h-.2v.1l-.3.2h-.1l-.2-.2h-.1v-.2h-.3l-.1-.2v-.3h-.2v.4-.2l-.2-.2v-.2l.4-.2h.8l.3.4h.3l-.4-.1v-.2l-.2-.1-.2-.2h-.1l-.4-.1h-.1v-.1l-.2-.2h-.1l-.3-.4h-.4l-.2-.2h-.2l-.1-.2v.2h-.2v.1h.2l.2.2h.3v.2h.1v.1h-.8l-.1-.2-.1-.1h-.1l-.4-.7-.2-.3zm.6 13.7v-.2l.2-.1v.2zm1-3v-.3l.4-.5v-.2h.2v-1.9l.2.2.3.3v.1l.2.3.1.1.2.2v.2h.1v.5h-.3l-.1.1-.1.1h-.2.3v-.2h-.4l-.1.2v.1l-.2.3-.1.1h-.2l-.1.1-.1.1-.3.2zm-.1-5.9v-.4l.4-.5.1-.3v-.2h.2v-.8h.1l.1.3h.4v.2h.3-.2v.2h.3v.1h.3v.1l.3.1v.2h.1l.1.1v.2l.1.1.2.2v.2h.1v1.1l-.2.2h-.1v.1l-.4.1h-.2l-.1.2h-.1l-.1.1h-.6v-.3h-.2v-.5h.5l.1-.2h.2v-.1h-.1l-.3.3h-.2v.1h-.2v.5h-.4v-.2h-.2v-.5l-.1-.1v-.4l-.1-.3zm1.5-7.2v-.2l.3-.3v-.4h-.3v-.7h.4l.2.4h.2v.3l.1.1v.1l.1.3.1.2h-.2l-.2.2h-.6v.1h-.1zm15-41.9l.2-.3v-.3.3h.4l.1.2h.3v.2h.3v.2h-.1l-.3.2h-.6l-.2-.2v-.1zm1.5.4v-.2h.2v.3h.2l.1.2h-.3v-.4h-.3zm4.8-14.7h.3l.2-.3v.3h-.2v.2h-.2zm.4-.5v-.2h.2v-.3h.2v-.2h.1v.7h-.4l.3.1v.2h-.3v-.3zm2.8-7.6h.7v.1h.4l.1.2h.4l.2-.2h.1v.2l-.2.3h-.5l-.1.2h-.2v-.3h-.5v-.1h-.3v-.3zM358.5 41.5l.2.2h.3v-.2h-.3l.2-.1.2-.1v-.1l.3-.2h1.4l.2.2h.8v.1h1.2V41h.3l.4-.4.3-.1v-.2h.3l.1-.1.2-.1.1-.1h.2l.1-.3.2-.1.3-.2.2-.1.3-.3.2-.2h.1l.3-.3.3-.2v-.1l.1-.4.2-.1.1-.1.1-.1.1-.2v-.2h.1V37h.3l.1-.2h-.2l-.1.2v-.2l.3-.1v-.1l.2-.2h.5l.1-.3.2-.1.1-.2h.1v-.1h.2l.1-.2.1-.3V35h-.1v-.2l-.3-.3v-1.1l.2-.3.2-.1v-.2l.2-.1h.3-.4v.2h-.2v-.3h.3l.2-.2h.2v.2l.2-.3h.1l.3-.3h.7l.2-.2h.7v.2h.6l.3-.4h.2v-.1h.3l.1-.2.4-.3.2-.1.4-.1.3-.2h.5l.3.3v.1l.1.2v.2l.2.2v.3l.2.1.2.4h.1v.3l.2.3h.2l.3.3.2.1.3.3h.3v.1h.7l.2.1h1l.1-.3h.1l.1-.1h1l.2-.1h1.3l.3-.3h.1l.2-.1h-.3v-.2l-.2.2v.1h-.1v.2h-.3v-.5h.3v-.1l.2-.2v-.1h.1v-.2h-.3V32h.3v-.1h.8l.2.3.1.1.2.3v.6l-.2.2v.5l.3.1v.1l.2.1v.1l.4.2h.1v.2h.4v.1h.2v.2l.3.1v.1l.2.2.3.2v-.3l-.5-.1-.2-.2v-.1h-.1v-.4h.6v.5l.1.1v.2h.1v.1h.4v-.3h.3V35h.2l.3-.2h.2v-.2.1h-.2v-.1h-.3v.3h-.4v-.3l-.1.2v.4h-.2v.2h-.2V35h-.2.3v-.3l.1-.2h-.3l-.2-.2h1.9v.4h.4l.2.2h.1v.1h1.3l.2-.4h.8v-.2h.2l.4-.1h-.8.1l.1-.1h.3l.1-.1V34h.2l.4-.3h1.2l.1-.2h.3v-.1l.2-.2.1-.4v-.2l-.1-.2-.2-.2h-.4l-.3.3v.1l.3-.4h.4v.3h.2v.5l-.2.2v.1h-.2l-.2.2v-.4l-.2-.1v-.1l-.2-.2v.2l-.2-.2-.3-.2v-.3h-.2v-.5l-.1-.1V31l.2-.3h.4l.1-.2h.2l.1-.3h.1V30h.2v-.3l.1-.2v-.3l.2-.2.2-.3v-.2h.2v-.3h.2V28v.3h-.3l-.1.3-.2.2v.4h-.1l-.1.2h-.3v-.7l.4-.1v-.2h.1V28l.2-.1v-.5l.3-.1V27v.2h-.3v-.1l.3-.3.1-.1h.3v-.2h.8l.1.3.3.2h.1l.1.1h.2l-.2-.3h-.3.4l.2.2h.8l.2-.3h.1v-.1l.2-.1.1-.6v-.8l-.2-.1v.2l-.1.1v.2h-.1v-.8h.1v-.1l.3-.1.3-.3h.3l.2-.2.2-.2h.3l.1-.3h.6l.1-.1h.2v-.3h.1l.2-.1h-.3l-.2.2v.1l-.1.1h-.1l-.2.2h-.2v-.4l.3-.2v-.1l.2-.1v-.2l.2-.1.1-.3.1-.1h.1v-.3h.3v-.1l.2-.2.1-.2.3-.1.3-.3h.3v-.3h.2l.1-.2h.4-.2v-.8l.3-.1v-.2l.2-.3v-.2h.4l.1-.2v-.1h.2v-.1l.1-.1v-.7l.1-.3-.3-.2v-1.2l.3-.2h.1v-.2h.3l.2-.2h.2l.1-.1.3-.5.1-.1v.1l-.4.3-.1.2h-.4v.2h-.3v.1h-.2v-.7l.2-.1v-.1l-.2.1V14h.4v-.2h-.4v-.2l.2-.1h.2v-.3l.2-.2.1-.1.2-.4.3-.2h.2l.3-.1h1.1-.4v-.4h.4l.1-.2h.1v-.2h1.1l.1-.2.2-.1.2-.1h.3l.3.1v.2l.3.2h.3l.2-.2V11h.2v-.5h.2v-.2h-.2l-.2.2-.1-.1v-.5.1h.3v-.6l.2-.2.2-.2.2-.3v-.2h.4l.2.2h.2l.1.3h.8l.1-.3h.1l.2-.2v-.2l.3-.3V6.5l.2-.2V6h.1v-.6h.1v-.1l.1-.3h.1l.2-.1h.1l.2-.2h.2l.3.3.1.1v.4l.1.2V6l.2.1v.1l.2.2h.2l.2.2h.2l.2.1h.6l.1-.3v-.1h2.3l.3-.3-.3-.2v.1l-.2.1-.1.1h-.5V6h-.3.2v-.2h-.4l-.2.2h-.5v.2h-.3l-.1.1h-1.1l-.2-.1h-.1l-.2-.4v-.5l-.1-.5h-.3l-.3-.2h-.7l-.1.2-.3.2v.4l-.2.5V6l-.2.1v.1l-.1.1v.6h-.1v-.3h-.1v.6l.3.1V8l-.4.2v.1l-.1.3h-.2v.2h-.1l-.2.1h-.4v-.4h-.1v-.2h.3V8h.4-.7v-.3h.2l.1-.1v-.1h-.3V8h-.2l-.1.2h-.2v.2h-.1l-.1.2h-.1l-.2.3-.3.2-.1.1-.3.3-.1.2v.6l.2.3v.7h-.3v.2h-.1l-.3-.2v-.4h-.1l-.2-.1.2-.2.1-.1.1-.1h-.1v-.1l.2-.1-.3.2-.2.2-.3.2-.1.2h-.3l-.3.2h-.7v.1l-.3.1h-.1v.3h-.3l-.1.2h-.2l-.3.1h-.4l-.3.2h-.2V12h.2v.2h-.3v.2h-.2l-.2.5-.3.1v.2l-.2.2v.3l-.2.1v.4l-.1.3v1.4l-.2.3v.8l-.1.2v.5l-.1.3v.1l-.1.1v.4l-.2.2v.2h-.1v.2l-.2.2-.1.2-.1.2-.3.4-.2.3-.1.1-.1.1-.2.3h-.1l-.3.3V21h.2v-.2l.1-.1v.2l-.3.1v.2l-.3.2-.2.4-.5.5-.2.2v.2l-.1.3-.2.1-.2.2-.1.1h-.1v.2h-.1l-.2.1h-.1l-.2.3h-.5l.3-.2.1-.1h-.2v.3h-.2l-.4.4-.1.2v.2h-.2v.6l.2.3h.1v.3h.2v.6h-.3l-.2.1h-.1l-.2.2v-.3h-.7l-.3-.1h-.3l-.2-.2h-.8l-.1.3h-.2l-.2.2v.5l-.2.1v.3l-.2.3v.2l-.3.1v.3l-.2.2v.6l.3.1v.5h-.3l-.1.3-.2.1-.1.1-.2.1h-.3v-.3h.2v-.1h.1v-.6h.1l-.3-.1h-.2.1v-.1h-.2v.3l-.2.3v.2l.3.2v1.9l.2.2.3.3v.1h.1l.2.1h.1l.2.3.1.2h-.2l-.1.2h-.5v-.3l.3-.1v-.1h-.2l-.1.3h-.3l-.1.2h-.2v-.2h.2v-.1h-.3v.4l-.2.1-.2.1h-.5l-.5.4h-.4l-.2.1h-.2l-.1.1h-.2v.1h-.7l-.1-.2-.2-.1h-.1v-.2h.1v-.1h-.9v-.2h-.2v-1.2h.8v-.2h.3v.3h.3v.1h.2-.2l-.2-.2-.1-.1h-.2v-.3h.3v-.2h.2V32h.6l.2.3.1.1h.3v.2h.2v.2h.2l.1.1v.1h.3l-.4-.2v-.1h-.2v-.2h-.2l-.1-.1-.1-.1h-.1l-.1-.2h-.2l-.2-.1h-.8v.3h-.1v.1h-.1v.2h-.2l-.1.1h-.2v.1h-.2v.2l-.2.2v.5h-1l-.2.3-.1.1v.3l-.2.1h-.5l-.3-.4V34h-.2l-.1-.3v-1.2l.3.2h.2v.3-.3l-.2-.1h-.1v-.1h-.2v-.2l-.3-.2V32h-.2l-.2-.4h-.8l-.2.2v.3l-.2.1v.3h-.1v.2l-.1.3v.1h-.3v.1h-.5l-.3.2h-.5l-.5-.3-.3-.1h-.4l-.2-.3h-.2v-.1h-.6l-.2.3-.2.3h-.1v.3h-.3l-.2-.2-.1-.1h-.1l-.2-.2-.2-.3-.1-.1h-.1v-.4l-.1-.2-.2-.1v-.1l-.2-.2-.2-.2v-.3l-.2-.2v-.2l-.1-.1h-.1v-.2h-.1v-.1h-.6l-.3.3h-.3l-.2.1h-.3v.3h-.1l-.2.1-.2.2h-.3l-.1.2h-.2v-.2l.2-.1.3-.2v-.1h.2v-.2h.2-.5l-.1.3-.1.1h-.2v.2h-.1v.2h-.3l-.1.1h-1v.1h-.5l-.4.1-.4.2v.1l-.4.1-.3.2h-.1l-.1.3h-.1v.1h-.2v.2l-.2.2v1.2l.2.2.2.2.1.4v.4l-.3.1h-.2l-.1.3h-.3l-.1.3V36h-.2l.2-.4h.1l-.3.3v.2l-.1.1-.1.3-.3.2-.1.1v.2h-.2l-.1.2v.1l-.3.2-.1.2-.1.1-.2.2v.2h-.2v.2h-.1l-.2.2-.2.2-.3.2h-.2l-.1.3h-.3l-.1.3h-.1l-.2.1-.5.3-.1.2-.1.1h-.2l-.3.4h-.3l-.2.2h-.4l-.2.1h-1l-.2-.3h-1.4l-.4.2-.1.1-.2.2-.2.1v.2zm10.6-8.3V33l.3-.3h.1v-.1h.1v.6h-.2l-.3.4v.1h-.1zm3.3-1.2h.5-.3zm6 1.2h.2l.1-.2h1.1l.3.3h.4l-.3.3-.2.1h-.7.1-.4l-.3-.3-.2-.1zm.8-.4h.1-.3zm6.9 1.4l.2-.1.1-.2.1-.1h1v.5h-1.4zm3.5.6v-.2h.3l.2-.1h.3v-.1h.2l-.2.2-.4.2zm4.6-8v-.2h.2v.2zm5.2-3.2v-.2zm2.6-3.1l.1-.2h.3V20h.1v.4l-.2.2h-.3zm1-2.2l.2-.1h.1V17h.2v.2l.1.1v1.1l-.3.2v-.2h-.1v.3h-.1v-.2zm4.3-6.9v-.3h.2v.3h-.3zm-.1-.1"/><path d="M252 143.9l.4.1.1-.1.3-.3.2-.3v-.2l.3-.1.1-.3.2-.2.1-.1.1-.3.3-.1.2-.1.3-.1v-.2h.2-.3v-.3h-.1v-.2h-.1v.2h-.1v.6l-.2.1h-.2v-.2l-.1-.2v-.2h-.2v-.1l-.1-.2-.1-.1v-.1l-.2-.2v-.4l.4-.1.1-.3.3-.1.1-.3h.4v.2h.3v.2h.4l.1-.3.2-.1v-.2h.3l.2-.3h.7v-.2h.1v-.1h.2v-.2l.1-.1v-1.5h-.3v.5h.3v.1h-.3l-.1-.4-.2-.1v-.1h-.1v-.3l-.2-.1v-.8h.3l.2-.1v-.1h.1l.3-.3h.4v-.1l.3-.1.2-.2h.1v-.3h.6l.2-.2.4-.1v-.2h.2v-.1l.3-.1v-.3l.1-.1v-.1h.2v-.3h.1l.1-.2.2-.1v-.4h.2v-.3l.1-.1v-.2l.1-.2v-.1l.1-.2v-.4.6l-.3-.4-.2-.1v-.4h-.2v-.1l-.2-.2v-.8l.1-.1.1-.3.1-.2.2-.1v-.1l.1-.1.1-.2.3-.1.2-.1h.6-.3v-.1h-.3l-.2.1-.4.3v-.4l.3-.2.1-.1.1-.1h.2v-.2h-.3v-.1h.3v-.1h.2l.3.4.2.1v.1h.1l.2.2h.4v.1l.1.2v.5h.1l.2.4.3.2h.6v-.1l.2-.1.1-.2v-.7h-.2v-.3h-.8l-.1-.2v.4h.7l.2.3.1.3v.2l-.2.3h-.1l-.1.1h-.4l-.1-.2-.3-.2v-.5h-.2v-.7h-.1.3l.2-.2.2-.2.1-.2.2-.2.3-.2h.4v.2l.2.1.1.2v.6l.1.2.2.1.3.2h.9l.1-.2h.1l.3-.4v-.1l.2-.1v-.2l.1-.1v-.7h-.3v-.3l-.2-.1h-.1l-.1-.2h-.5l-.2.2h-.5v-.2l.3-.1h.1v-.3h.3l.2-.3v-.3h.2v-.2l.3-.3v-.4h-.3v.3h-.1v-.4h-.1v-.8h.3l.1-.2h.2l.2-.2h.5l.1.2h.1l.2.2h.3v.2h.2v.1h.5l.1-.2h.2v-.1l.2-.2v-.2l.2-.1v-.2h.2l-.2-.1v-.9l.3-.2v-.3h.5l.1-.2h.3v.2h.3v.3l.1.1v.2h.2l.1.4h.2v.3h.1l.2.1.2.1h.7l.3-.3v-.2l.2-.2v-.2h.1v-.3h-.2l-.1-.2v-.8l.2-.1.1-.2.2-.1.2-.1h.7v.2h.1l.2.1v.2h.2v.2h.1v.3l.4.2.1.4.3.1.1.2h.1l.2.3.3.2.1.1v-.3l.4.2.2.3h.3l.2.2.1.3h.2v.6l.2.2v.1l.2.1v.3h.1v.1l.2.1.1.3.2.2.2.3.1.3.3.4.1.3h.1v.1h.2l.1.4.2.2h2.9l.3-.4v-.3l-.3-.2h-.2v-.1h-.2v-.2h-.3v-.3h-.2v-.2l-.1-.3h-.1l-.2-.1v-.1l-.5-.2-.2-.3v-.1l-.2-.2v-.4l.2-.1.2-.2.2-.1.1-.2h.5l.3.3h.2v.2h.1v.1l.2.1.3.3.1.2.2.2.2.1.2.2h.1l.1.1h.9l.3-.4h.3v-.3h.1v-.1l.2-.1v-.2h.2l.2-.1h.1l.2-.2h.5l.2.3.3.3.3.2h.2v.1l.3.2.1.1.4.2h.3l.1.2h.6v-.3h-.7l-.4-.4h-.3l-.4-.3-.2-.1v-.1h-.2v-.2l-.2-.1v-.2h-.3l-.3-.1h-.7l-.1.4h-.2l-.4.2v.2l-.3.2-.2.2h-.1l-.2.1h-.7l-.3-.2-.1-.3-.2-.2h-.1l-.1-.2v-.3h-.3l-.1-.1h-.1l-.4-.2h-.1l-.3-.2h-.4l-.2.2-.2.2-.2.2-.1.2v.9l.3.2v.2l.2.1v.1h.1l.1.2h.4v.1l.2.2v.2h.3v.2l.2.1.1.1h.2l.1.3v.2h-2.9v-.2l-.2-.1v-.2l-.1-.2-.1-.2-.3-.3v-.1h-.1l-.1-.4-.1-.1-.2-.5-.1-.2v-.2h-.2l-.3-.9-.2-.1v-.2h-.2l-.3-.5-.2-.1-.3-.1-.2-.1-.3-.3h-.3l-.5-.4-.4-.3-.1-.2h-.2v-.3l-.2-.1v-.2.1h.4v.4-.3l-.2-.1-.3-.3-.2-.2h-.2l-.3-.2h-.7l-.3.3v.1h-.2v.3l-.2.1v1.8l-.3.1-.1.2h-.5l-.1-.4h-.1v-.1l-.3-.2v-.3l-.2-.2-.2-.3v-.2h-.4v-.3l-.1.2h-.3l-.3.1h-.2v.2l-.3.2-.1.1v.1l-.2.4v.8l-.1.2v.2l-.3.2h-.7v-.2l-.3-.1-.1-.1h-.7v-.2h-.5v.3l-.2.1h-.2v.3l-.2.2v.9l.2.2v.4h-.2v.2h-.1v.2h-.2v.2h-.2v.1h-.1v.2h-.5v-.5h.2v-.3h-.3v-.1h-.1v-.2h-.2l-.1-.1h-.2l-.3.3h-.4l-.3.2v-.2h.4v-.5h-.3v-.3h-.1v-.2l-.2-.1h-.3l.3.2.2.2v.1l.3.3v.4l-.3.2v.7l.1.2.1.2h.2l.2.3v.3h-.3l-.3.4v.1l-.1.1-.2.1h-.6v-.2h.4v-.1h-.2l-.1-.1h-.5v-.1h-.7l-.2.2v-.3h-.1v.4l-.1.1-.2.3h-.2v-.3.8l-.2.2v.1l-.1.4v.1l-.2.2v1.1l.5.3.1.2.1.3.1.1v.3l-.2.5-.3-.2.2.1v.4l-.2.3v.1l-.3.1v.1l-.1.2-.3.3-.1.1-.3.3h-.4v.2h-.1l-.5.1-.2.1v.2l-.5.4h-.1l-.2.1-.2.2v-.3h.2v-.1l.1-.2h-.1v.2l-.3.1-.4.6-.2.3v.9h.3v.3h.1v.9h-.4v.3h-.1v-.3l-.1.2-.1.2-.2.2-.2.4h-.1l-.2.2h-.3.3v-.2h-.4l-.2.4h-.2l-.2.1v.1h-.5l-.1.2-.3.2v.2l-.1.2v.4l.1.2.3.4.1.4h.2v.6h-.2l-.2.2-.2.1v-.2l.2-.4v-.2.1l-.3.3v.4l-.2.2-.2.3zm.4 0v-.2l.2-.1.2-.3h.2l-.2.1v.1l-.3.2-.1.3zm2.1-4.4l.1-.1h.4l.2-.3v-.1l.2-.1h.2l.3-.6h.2l.2-.3v-.2l.2-.1v-.3h.2l.2.1v1l-.2.1-.2.2-.1.2h-.4l-.3.1-.2.1-.1.2h-.2v.3h-.2l-.1.1h-.3v-.3zm2.6-4.5h.1l.1-.2h.4l-.3.4h-.2zm1.2-.5v-.1h.3l.1-.2.3-.2h.3v.2l-.3.1h-.3v.2h-.5zm4.7-8.9v-.2l.4-.3.2-.1h.8l.2.1.1.3v.6h.1l.2.2v.1h1.7l.1.2v.2l.1.3v.5l-.4.3-.2.2-.2.1H265v-.9h-.2l-.1-.2-.2-.1h-.1l-.2-.2h-.5v-.1l-.1-.1h-.2v-.3h-.2v-.5zm15-2.2h.3v.2zm.3.4v-.3h.1v-.1l.2.3v.2l.1.1v.3l-.4-.3-.1-.2zm3.2 1.1h.4l.1.1v.1h-.5v-.1zM144.7 261.4h.2l.1-.2v.1h.3v-2.4l.2-.2v-.3l.3-.1.2-.2v.4h-.3v.3h.3v-.6l.3-.1.2-.2.2-.1.3-.2h.3l.4-.3h.5l.2-.2h.1l.1-.1.4-.3v-.2l.1-.2v-.3l-.1-.3-.1-.2v-.9l.1-.2v-.3l.2-.1v-.6l.3.3.1.2v.5l.1-.3v-.4l-.2-.3h-.1l-.1-.1h-.3v-.5h-.3v-.2h-.2v-.3h-.1v-.1l-.1-.2v-.3h.3v.2-1.2h-.3v-.3h-.2v-.1h-.6v.2h-.1v.2h-.2l-.2.2h-.4v-.5l.3-.2.1-.2h.1l.2-.1h.2v.1l.3-.1v-.1h.1l.1-.4v-.3l-.3-.1h-.5l-.2-.2h-.2v-.4h-.2v-.1h-.1v-.7h.1l.2-.3h.3v.4h-.1v.1h-.2.2l.2.2h.2v.2h.2l.1.1h.3l.1-.3h.2v-.2h.2v-.3l.1-.2v-.3l.1-.3v-.1h.1v-.5h.1l.1-.1h.5v.4-.4h-.5l-.3.1v.1l-.3-.2h-.2v-.3h.3v-.3l-.3-.1v-.5h.3v-.1h.5v.3h-.3v.3l.3.1.2.1v.1h.3v-.2h.1v.6h-.3.2l.1-.1h.1v.1h.3v.4h.2v.2l-.5.2v.1h-.2v.1h.2v-.2h.2l.1-.1v-.2h.3v-.1h.4-.5v-.4h-.2l-.1-.2v-.1l-.2-.2h-.3v-.2h-.4v-.8l.3-.1v-.1.6h.2-.3v-.5l.2-.4h.3v-.1l.2-.1v-.3l.1-.5v-.5l-.2-.2-.2-.1v-.2l-.2-.2h-.1v-.3h-.1v-.3l-.1-.2v-.3h-.1v-.7l.3-.3v-.1.4h-.1v.2l.1-.4h.2v-.3l.1-.1v-.1l.2-.2v-.4l-.3-.1v-.2h-.7v.4h-.8v-.2l-.1-.1v-.3l-.2-.3v-.3h.3v-.1h.2v.1-.9l-.2-.2v-1 .1h.2v-.2l.1-.1.1-.1.2-.4.4-.2h.2v-.2h.3l.1-.1h.2v-.1h.2l.2-.2v.7h.1v.6h-.3v.2h-.5v-.2h-.2v.2h.9l.2-.2v-.3h.1v-.5l-.3-.2v-.2l.3-.2v-.3h.1v-.6l-.2-.1v-.2l.2-.2h.1v-.3h.3l.1-.2h1.1l.1-.1v-.2l.2-.1v-1.9h.3v-.2h.1v.3h.1v.5h-.2v.4-.4l.2-.3v-.4h-.2v-.4l-.2-.2v-.5h-.1v-.2h-.2v-.3h.5l.4-.3.1-.1v-.9l-.2-.1-.1-.2h-.2l-.1-.1v-.7l.2-.2v-.6h-.6v.2l-.3.1h-.2v-.3l.1-.3h.1l.1-.3v-.2h.2l.1-.2h.2l.2.3v.2h.2l.2.2h.6l.1-.3.1-.1v.2l.2-.2h.2l.1-.1h.5v.1h.6v-.1l.2-.2.1-.3h.1v-.2h.2v-.3h.1v-.5l-.3-.1v-.3h-.2v-.4h.4-.4v-.5h-.2l-.2-.1h-.1l-.1-.1v-.4l.4-.2.2.1.2.3-.1-.1-.1-.1-.2-.2v-.6l-.2-.1.4.1h.2v.2h.2l-.5-.3-.2-.1v-.2h-.3l-.1-.2H154v.2l-.2.1h-.6v.1h.2v.3h.2v.1h-.4l-.2.2v.2h-.4v-.3h-.4v.7h.4v-.3h.3v.4h-.4v.1h-.1l-.3.1h-.4l-.2.1v.4l.4.1.1.3v.2-.2h.2l.1.4v.2h-.4v.2h-.5v.5l-.1.3v1.4l-.2.1-.1.2v.5-.2h.3v.4l.1.3v.2-.5l.1.2v1.1l-.3.2h-.3v.2l-.2.2v.4l.3.1v.3h.6v-.2h.4v-.3h-.3v-.2h.5v.4l.2.3v1.4l-.2.3v.2h-.1v.4h-.1v.5-.3h.3v.1l.1.2v.1l-.3.2h-.2l-.2.2h-.6l-.3-.5-.3-.1v-.2h-.2v-.6h-.2v-.1h-.1l.2.2h.1l.1.3v.3l-.2.2h-.1l-.1.2h-.1v.1l-.2.3v.5l-.1.2v.2-.2h.2v.3h.1v.6h.1v-1.1h.2v.4h.2v.7l-.4.3h-.1l-.2.2h-.1l-.2.1h-.2v.1h-.4l-.1-.3h-.4v-.1h-.1v.3h.3v.1h.4v.1h-.2l-.1.2h-.1v.2h-.2v.1h-.3v.2l-.3.3-.2.1h-.2v.2h.3l.2-.3v-.1h.2v-.1l.1-.2v.2h-.1v.2l-.2.3v.9h.2v.5l-.3.1h-.2v-.3l-.2-.1v-.3h-.1v-.1l-.1-.1v-.2h-.1v-.4h-.2v.2l.2.1v.2l.2.2v.1l.1.1v.1h.1v.3l.2.3v.4l-.2.2-.2.3v.3h.3v.4h-.4v.3h-.1v.2h-.2v.2l-.1.2v.1-.2l.3-.3v-.1l.3-.2v-.1h.2v-.3l.1-.1-.2-.1v-.2h-.2v-.4h.4l.1.3.2.3v.1l.4.1.1.2h.3l.2-.2.1-.2.1-.1h.3v.2h.2v.7h-.3l-.3.1v.5h-.3v1.2l.2.1.1.2.1.2v.3h.2v.1l.3.1v.3h.2v.3h.1v.4l-.3.2-.1.2v-.4h-.2v-.2h.3v-.3l.2-.1h-.3v.3l-.1.1v.2l-.1.1v.4l-.1.3h-.2v.4h-.1v.2l-.3.2h-.4l-.2.2v.4h-.3l-.1-.2v-.4.8h.6l.1-.3v.3l-.3.3v.1h.3l.1.3h.3v.3h-.3v.2h-.1v.2h-.1.2v.6l-.3.2-.1.2h-.5v-.2l-.3-.2v-.2l-.2-.2h-.4l-.3.3h-.1v.3h-.1v.2h-.1l-.2.1v.8h.2l-.2-.4v-.4h.2v-.1h.2v.3h.1-.3v-.1.2h.3v.2-.3l.1-.2h.1v.2l.1.5v.2h-.3v.5l-.2.1h-.3l-.1.1-.2.1v.2h.3v.2l.2.2h.4v.4l.1.2h.8v.2h.2v.1h.1v.1-.2h.1v-.2h-.4l.2-.1v-.2h.2v-.1l.3-.2.2.4.2.2v1h-.3v1.6h.3v-.5h.2l.2.3.2.2v.8h-.3v.3l-.2.2h-.1v.1h-.1v1-.4h.4v.4h-.4v.3h-.2v.3h-.3l-.3.2h-.2v.1-.2h.5v.2h-.3v.1h.5l.2-.3v.3h-.2l-.2.1-.2.2h-.3v.1h-.2l-.2.2h-.2l-.3.2h-.3l-.1.2h-.3l-.2.3-.2.1v.2l-.2.2-.1.2v.4l-.2.1v1.8zm1-11.6v-.2h1.6v.2l-.3.2h-.2v.3h-.2l-.1.2h-.7v-.3l-.1-.1h.3v-.1l-.3-.1zm.8-.7h.3v-.1h.7v.2h.3l.1.1v.3h-.2v.1h-.3v.2h-.1v-.4h-.2l-.1-.1h-.1v-.1h.5v-.1h-.8zm.1.4h.2zm1.4 7.7l.3-.2v-.7h.4v-.3h.1v-.4l-.4-.3v-.3h.3v.4l.1.1.2.3v.8l-.3.2-.2.2h-.2l-.1.2v.1h-.2zm.4-4.3h.2l.2.1v.2h-.3zm.6-11.9v-.3.3l.3.2v.4h.1v.4l-.1-.2-.1-.3-.2-.2v-.4zm1-9v-.2l.1-.1.3-.2h.3v.3l.1.1.2.1h-.4v.3h-.2v.1h.2l.4-.2-.3.1h-.1v.3h-.3v.3h-.1l-.1-.4-.1-.2-.2-.3zm1-4.2v-.2h.4v-.6l.2-.1v-.2h.2v-.2h-.3v-.2l-.1-.5h.2v-.2h-.3v-.3h-.1v-.3l.4-.3h.1v.7-.2h.5l.1-.2h.3v-.2h.3v.7h-.2l-.2.2v.8h.2v.1l.2.1h.3v.3l.2.3v.1l-.2.2-.2.3h-.3l-.3.1h-.1l-.1-.3h-.2l-.2.3h-.1v.5l-.3.1h-.4v-.7zm.4-3.5v-.8l.2-.2h.1v.2h.1l-.2-.4v-.5.3h.6v-.3h.1v-.6h-.3v-.1l-.1-.2-.1-.2-.2-.1v-.3l.4-.1v.2h.3l.2-.4h.5v-.3h-.4l-.2.1h-.1v-.4h.6v.3h.1l.1-.2v-.3h.5v-.5h-.3v-.1h.4l.1.2h.2v-.4h.4v.3l-.3.1h.5-.1v.1h.2v-.3h.3v.2h.1l.2.2v.2h.2v.2h-.3v.2h-.5v-.3h-.7l-.2.3-.1.2v.8l-.2.1v.1l-.2.2v.4h.3v.1h.1l.2.1h.5l.2.1h.2v.2h.2v.3-.3.5l-.3.1h-.3v.1h-.3l-.2.4h-.2v.1h.3v-.3h.1l.1-.2h.2v.3h-.2l-.2.3h-.2v.2h-.3v.1h-.5l-.1-.3v-.2h-.7l-.1.2h-.1v.2l-.1.2v.1h-.6zm.6 3.7l.2-.3h.1v.3h.1-.3v-.2h-.1zm.5 1.6v-.6h.2v.6h-.2v.1zm1-7.8v-.1l.1-.1.3-.2v-.1h.1v-1h.3v-.1h.5v.4h-.2v.1h.3v-.3h.3l.1.3v.6l.2.2v.3h.2v.2h.2v.2h-.3v.1h.3v.1h.1v.1l.2.3v.3l-.2.1-.2.2v.1l-.1.1v.3l-.1.1h-.6v-.3h-.2v.3h-.6.2v.2h-.3v-.2h.2l.1-.4.2-.1h.1v-.2h.3l.2-.1v-.5l-.2-.2-.2-.3h-.4l-.2-.1h-.4l-.2-.1v-.2zm.8-2.6h.1v.2h-.2zm1.1 2.2l.2.1v-.2.3h-.2v-.1zm80.5-35.3l.3.1h.8l.3-.2h.4v.2h.2v.1h.1l-.3-.3v-.2h-.1v-.1l.3-.1h1.8l-.3-.1v-.1h.3l.2.4v.2h.1v.5l-.3.2.3.1.2.1h.5v-.3l.1-.2h.2l.2-.1h.1v-.2h.2v.3h1.1l.1.2h.3v.5l-.2.1v.5l.3.3v.2h.2v-.2l.2.2h.3-.4v-.2h.6v.9l-.2-.2h-.2v-.2h-.1l-.1-.3h-.1l.2.3.2.3h.2l.1.2v1.3l.1.1v.8l.1.2h.1v.2h.6l.2.2.3.2h.3l.2-.3.1-.1v-.4l.2-.2v-.7h-.2v-.2h.3l.1-.1h1l.1.1h.7l.1.2h.4l.2.1h.3l.1.1-.2-.3h.9l.2.4h.3v.1h.2v.8l-.3.2v.3h.2l.1.2h.1v.2h.8l.2-.2.2-.2.2-.2v-.1l.1-.1.1-.1h.2v-.1h-.2v-.4h.6v1.3-.1l.3.1.1.3h-.2 1v.1h.1v-.3h-.1v-.1h.2l.1.2h.1v.4h.2v.4l-.2.3v.2l.1.2h.3v.3h.3v.3h.1l.2.3v.4l-.3.2v.5h-.1v.2h.2v-.2h.2v-.2h-.3v-.3h.4l.1.2h.2l-.4-.3h-.1v-.4h.7-.2l-.2-.2h-.1l.5-.2h-.2v-.1h-.4v-.5h-.4v-.3h.4l.3.3h.1v.2h.2v.1l.3.1.2.1h.1l.2.4.2.3h-.6.4v.3l.1.3.2.2h.9l.2-.2.1-.1.2-.3.3-.4h.1v-.2h-.1v.2h-.2v.2h-.2v-.2l.4-.2h-.4l.2-.1.2-.1h.5l.1-.1h.4l.2-.2h.1v.4-.2h.2v-.3h.2l.1.4.2.4h.2l.1.3h.2-.1l-.1-.3-.3-.2-.1-.3-.1-.2h-.1v-.2h-.2v-.1h1.9l.2.3h.1l.2.2h.2v.2l-.1.2-.2.1.2.3h.4v.1h.4l-.1-.4h.7l.2.2h.2v.2h.1v.1h.1l.2.1h.3l.2-.2v-.2h.2v-.3l.1-.1v-1 .6h-.3v-.2h-.2v-.5h-.1v-.1h-.1v-.1h-.1v-.3h1.7l.1.2h.2v.1h.1l.1.2v.3l.2.2v.8h-.3v.5h.2l.2.1.2.2h.7v-.2h-.4.6v-.2h.5v-.2h-.3l.3-.2h.3v-.4h.3l.1.2v.2h.4l.3.2h.4l.2.1h.4v.1h.1l.2.1v-.3l-.2-.1h-.1v-.1h-.2v-.2.4h-.5v-.4h.2l.2-.1h.4v-.1h.5v.2h.2l-.4-.3h.4v.2h.2l.3-.1v-.2l.2-.3.1-.1v-.2h-.3v-.2l.2-.2h.1v.4h.1v-.5l.2-.1h.6v.2h-.2.4v.1h.1l.2.1.1.1.2.3.2.2v.3l-.1-.3.5.3v.2l.1.1h.1l.2.2h.4v-.3h.1v-.2l.2-.1v-.7h.1v-.6h-.2v.4h-.2v.2-.1h-.1v-.2l-.1-.1v-.5h.3v-.2l.2-.1v-.2h.7v-.2l-.2-.1h-.1v.3h-.4v-.3l.3-.1h.6l.2.1v.2h.2l.2.2.2.2v-.3l-.4-.2v-.1h.3-.3l-.2-.2v-.1h-.2l-.1-.1h-.5l-.3.3-.2.1v.3l-.2.2-.1.1v.6h-.2v-.5.7l.3.3.1.3v.7h-.6l-.1-.1v-.4h-.2l-.2-.2h-.1v-.3h-.2v-.2h-.3v-.1l-.3-.2-.1-.1h-.2v-.1h-.7v.2h-.2v.1h-.2v.1l-.2.1v.4h-.1v-.2l-.1-.1v-.6l.3-.1.1-.1.2-.2v-.2l.2-.2h.5l.3.4.2.1.2.2v.1h.1v-.3h-.4v-.2h-.2l-.1-.1-.1-.1-.1-.1h-.4v.2h-.3v.1l-.1.1-.2.3v.1h-.2l-.1.3v.8l-.2.1-.3.3h-.2v.1h-.7l-.1-.3.2.2v.2l-.2.1h-.3l-.1-.4h.3v-.1h.1l-.2-.1h-.3v-.2h-.7l-.2-.2h-.2l-.2-.2-.2-.2h-.1v-.1h-.3l-.2-.1h-.1v-.2h-.5v-.4l.2-.1.1-.1v-.1l.3-.1h-.4v.4l-.4.2-.1.2h-2.1l-.1.1-.2.2v.5l.3.2.2.4.1.1v.1l.2.1v.2-.3h-.3v.5l-.1.1v.2h-.5v-.1l-.2-.3h.3-.6l-.2-.1h-.2v-.1h-.1l-.2.2h-.8.1l.2-.2v-.3h.1v-.3h-.2l-.4-.1v-.1h-.1v-.2h-.1l-.3-.1h-.7l-.1.3h-1.2l-.3.2h-.4l-.1.2h-.5l-.3.2-.1.1v.3l-.2.1v.2h-.1v.1l-.3.2-.1-.3h.2-.2v-.2h-.3v-.1l-.2-.2-.1-.1-.1-.1v-.2l-.2-.1-.1-.1-.2-.1-.2-.1h-.1v-.2h-.2l-.2-.1h-.3l-.1-.1h-.2l-.3-.1v-.5h.2v-.1l.2-.1v-.3h-.4.4v.3l-.3.2h-.2l-.3-.5-.1-.1-.3-.2h-.6l-.2.3h-.2v-.3l-.1-.2h-.2v-.2l.3.2h.2v-.7l-.3-.2-.2-.1h-.8v.1h-.1v-.1l-.1-.1v-.3h-.2v-.6l.2-.3h1l.3.3v.2l.1.2h.3v.3-.2l-.1-.1-.1-.2-.2-.2h-.1l-.2-.3-.3-.2h-.7v.4l-.2.2v.7h.2v.5h-.3v.2l-.1.1v.4l-.2.2h-.5l-.2-.2-.1-.2v-.4h.4v.3h.2l-.2-.2v-.3h.3-.3l-.2-.2v-.3l-.3-.1v-.2h-.2l-.3-.3h-.8v-.1h-.7v-.2h-.4l-.1-.1h-.1l-.1-.3h-.2l-.2-.1h-.2l-.2-.2h-.4l-.2-.1-.2-.2h.3v-.1h-.4l-.1-.2h-.3l-.1-.1h-.2l-.2.1v.5h.3v.1-.1h-.3v.3h.3v.3l.1.3v.2l-.4.2-.2.1-.2.1h-.5v-.2h-.1v-.3l-.1-.3v-.3l-.1-.1v-.2l.2-.1v-.9l-.2-.1h-.6l-.2-.3h-.2v-.4l.1-.1.1-.2h.4v-.8l-.4-.2v-.2h-1.1l-.1-.2h-.3v-.2h-.4v-.1h-.2l-.1.2v.1l-.4.2h-.1l-.2.2h-.2.2l.2.1v.1h-.5v-.7h-.4v-.3h-.5v.3h-.8l-.1-.1v-.1h.2v-.3h.3v.2h.1v-.2h.2-.8l-.2.3h-.3l-.2.1h-.3v.3l-.1.1-.1.2h-1zm1.4-.1v-.5h.9v.2h-.5l-.1.1v.2h-.4zm2.6.5l.1-.3v-.1h.2v.4h.2v-.3h.1v-.2h.2-.4v-.2l.5-.1h.2v-.1h.3v-.2h.3v.2h.1l.2.2h.2l.1.2h.3-1.3v.3h-.5v.2h-.1v.1h-.8zm2.5-.3l.1-.2h.6l.1.2.1.1.1.1.2.3v.2l-.2.1h-.3v-.3l-.1-.1v-.1l-.1-.2h-.2v-.1h-.4zm1.6 4.8v-.3h.3v-.2h.7l.1-.2h.2l.3-.2v-.1l.2-.2v-.2h.2-.4v-.2l-.1.3v-1.1h-.2v-.1h.5l.1.3h.2v.2l.3.1v.1h.2v.2l.2.1v.2h.2l.2-.3h-.2l-.1-.1v-.1h.4l.1.2.1.1h.2v.2h.2v.3h-.6v-.2h-1.2l-.1.4v1.4l-.3.1-.1.1h-.4l-.1-.2h-.1v-.1h-.6v-.2h-.2zm2.7-1.5h.2zm0-.1h.2zm1.3.5h.3v.1h-.3zm3.8 1.6h.2v-.2h.2v.4h-.2v.1h-.2zm.6-.3v-.2.3zm3.6 2.8h.5l.1.1v.2h.3l.1.2h.1v.1l.1.2h.2l.1.2v.2l.3.1.2.3.2.1h.2v-.2l.3-.3v.3l-.2.1-.1.1-.2.1h-.6l-.1.2h-.4v-.4h-.1v-.3h.3v-.5.3h.2v-.1l-.3-.3h-.2l-.2-.2-.2-.3h-.3zm11.2-.7v-.2h.6l.2.3h.4l.1.1h.1l.2.2.5.2.1.1h.3v.3h.6v.2h.1v.2h.2v.1h.4v.2h-.8v-.2h-.2v-.5l-.2-.1v.5h-.1v-.2h-.3v.5h-.2v.2h-.2v.1h-.2v.2h-.3v-.5l.3-.1.2-.4v-.3h-.2v.6h-.2v.2h-.1v.2h-.1v.1l-.2.2-.2.2-.4-.3-.2-.4v-.2l.3-.2v-.2h.1v-.4l-.3-.2v-.5h-.2zm3 .7h.3v.3l.1.2v.1l-.1-.2h-.2v-.2h-.2zm2.2.5h.2v-.4h.2v-.3.2l.2.1v.3l-.2.1h-.3v.2zM31.3 12.6l.5.2.2-.2.2-.3.3-.4.3-.2v-.1l.4-.3V11l.1-.1v-.3l.2-.1v-.8l.1-.1v-.2l.1-.2.1-.2.2-.2.1-.2v-.1l.2-.1.2-.1.5-.1v.1-.1h.1l.5-.4h.2l.2-.2h.7l.3-.2h.8l.2-.3h.9v-.3l.2-.2v-.2l.2-.1V6h.1v-.3l.1-.2.1-.3V5h.1v-.7h.1v-.4l.1-.6.1-.4V1.4h.2V1l.1-.1-.9-.1h-.1l-.1.2H39l-.1.2v.1h-.3l-.1.2-.1.2-.2.2V2l-.2.2v.3l-.2.3v.3l-.1.3v.4-.6h.3v1.7l-.4.1v.2l-.3.2-.1.1H37l-.1.3h-.2l-.1.1-.2.1-.4.5h-.2v.2h-.2l-.2.3h-.2v.4H35v.1h-.2l-.2.1-.3.2H34l-.1.2h-.6l-.3.5-.4.5-.1.2v.1l-.3.3v.2l-.2.3v.2l-.3.3v.3l-.1.3v.4l-.2.5zm.7-1.1v-1h.3v-.3.5-.4h.2v-.1l.2-.2v-.4l.2-.2v-.2h.1v.6l-.3.4v.2h-.2v.6-.1.3l-.1.1-.1.2H32v.1l-.2.1zm.2-1.5v-.2h.3v-.2.6l-.2.1h-.1zm.2-.3l.2-.3v.2zm.3 1.1v-.4h.3v.3h-.3v.2zm.1-1.8h.2v.2zm0 .3h.2zM35.3 7h.1v.3h-.3zm0 .2V7h.3v-.4h.3v-.1.5h-.2l-.1.1h-.3v.2zm1.2-.5l.1-.3.2-.1.1-.3h.2l.2-.1v-.1h.2v-.1l.4-.3.1-.2V5l.4-.4v-.1h.3v-.2l.1-.2v-.4l.2-.2v-.2l.3-.3.1-.2V4l-.3.3v.2l-.1.2-.1.3-.1.2-.2.3v.3h-.2V6l-.1.1-.3.3-.2.1-.1.2-.1.2h-.2l-.2.1h-.6zM38.2 3v-.3l.2-.2v-.2l.2-.1v-.3l.3-.2v-.1h.1v-.2.3l-.1.1v.4V2l.1-.2.2-.2v-.1l.3-.1-.3.3v-.3 1.1l-.1.2v-.2h.3v.3h-.2l-.2.4v.3h-.3v.3h-.1V4h-.2.3l.1.1h-.4v-.5l-.2-.2v-.3zm.5 3.4v-.1l.2-.3h.1v-.2.5h-.3v.2zm0 0"/><path d="M11 24.4v.3h.9v.1h.1l.1.2.6.1.2.2.6.1h.3l.2.2h1v-.4l.1-.2h.4v-.2l.3-.3h.2l.1-.4.1-.3h.2v-2.6l-.2-.1v-1.5l.4-.3v-.1l.1-.2v-.2l.1-.2v.2l.1-.4.1-.1h.1l.2-.2V18h.3v-.2h.2v-.1l.2-.2h.2l.2-.2.4-.1h.1l.1-.1h.6V17h2.2l-.3.3h.2V17h.5v-.1h.3l.1-.3h.1l.4-.2h.2l.2-.2h.2V16h.3l.3-.2h.3l.4-.2v-.2h.4l.2-.2h.2l-.3.3h.4l.1-.2.2-.1V15h.2l.2-.3h.2v-.2l.1-.1.1-.1V14l.2-.1v-.1l.2-.5V13l.1-.4V12h.1v-.6l.1-.1v-.1l.1-.4V10l.2-.3.2-.3h.2l.2-.2.1-.1v.2L29 9v-.3h.1v-.1h.2l.1-.1.1-.1.2-.2h.2l.2-.2.2-.1.2-.2.4-.1h.2L31 8l.2-.2.3-.1.2.3h.3l.2.1.7.2.1.2.3-.5H33l-.2-.2h-.3v-.1h-.3v-.1h-.4v-.1h-.3v-.1h-.3v-.1H30v.3h-.3v.1l-.5.3h-.4l-.1.2-.3.2v.1l-.2.2-.2.3v.3l-.4.3v.2l-.2.6v.1l-.1.2v.7l-.2.2v1.1H27v.6l-.2.4-.1.2v.1l-.1.2-.1.2v.1l-.3.1v.3h-.5l-.1.3H25l-.2.1h-.3l-.1.1-.1.1-.1.2h-.5l-.2.2v.1h-.4l-.1.2h-.2v-.4h-.2v.4H22v.2h-.1l-.2.1h-.2l-.1.1h-.7v.1h-.5l-.1.1h-.5v.1H19l-.1.1h-.4l-.3.2H18l-.4.1h-.2l-.1.2-.3.1-.1.2-.3.4v.1h-.2v.3h-.1v.2l-.3.2v3.8h.2v1l-.2.2-.2.2v.1l-.2.1-.2.3h-.1l-.3.3h-.2v.3h-.3V25H13l-.4-.2-.2-.1h-.2l-.1-.2H12l-.1-.1h-.5v-.1h-.3zm10.4-7.6l.2-.2h.1l.3-.1.4-.2.3-.1h.1l-.3.4-.3.2-.1.1H22l-.2.1h-.4zM29 8.1h.3V8h.2v-.1h.1v.2l-.4.1H29zm214.2 130.3v.2h.3l.1-.2h.2v-.2h.2v.3h-.3.3v.7h.4v.1l-.2.1h-.1v.2h.5v.3h.2v-.3h.2v.2h.2v-.3h.2v-.4l.1-.1h.2v.3h.2l-.4-.3h-.1.3v-.2l-.3-.1h-.1v-.2l-.2-.2h-.1v.6-.2h-.2v.7h-.4l.2-.3v-.9l.1-.2v-.4h.2l.1-.2v-.1h-.6l-.1.2h-.1l-.1.1h-.1v.4h-.6v.2h-.1l-.1.1zm1.8 1.2h.2zm-190.8 64l.1.1h.1l.2.2.2.1v-.6l-.2.3h-.2l-.1-.1v-.3h.3v-.1h.1v-.1h.1v-.1h.1l.1-.2.2.2v.1H55v.2h-.2v.3h.4v-.1l.2-.1v-.4h.1v-.3h.1l.1-.3v-.1h-.3v-.1h.4v-.1h-.3v-.1h.3l.2-.1v-.3h.1v-.3l.2.2h.1v-.3l.1-.1v-.1H56v-.1h-.5v.2l-.2.1v.2l-.1.2-.1.2v.2l-.3.4v.1l-.1.1v.2h-.2l-.1.2v.2h-.2v.3zm.9-1.3v-.1h.4v.2H55zm.2.6h.2zM251.2 160h.4v-.2h.2v-.2l.2-.2v-.2h.2l.2-.1h1.4v.3h.2v1.4h-.3v.1h.3v.1h.2l.3-.4v-.1l.1-.3v-.9h-.3l-.1-.3h-.2v-.3.3h-2.2v.2l-.2.1h-.1l-.1.3v.4zM50.3 211.9v.5h.4v-.6h.2v.6h.4v-.2h.2l.1-.2h.2l.2-.2.1.4h.2v-.2l-.1-.4H52v-.4h-.2l-.3-.2h-.1v-.4h-.1v-.1h-.1v-.1h-.4v.6h.2l.3.1v.2h.2v.1h-.3v.2H51v-.4h-.3l-.1-.1v-.1h-.3v.5h.5v.1h-.3v.1h-.1v-.3h-.2v.5zm.7 0h.2v.1H51zm.3.1h.1-.2zM337.6 75.4v.2h.2l.1.2h.1v.2h.8l.2-.2v-.2h.3V75h.1v-.4l-.4-.2V74h-1l.1.1.2.1.5.2v.1l.2.2v.9h-.3l-.1.2h-.5l-.1-.3v-.2h-.5zM350.5 38v.1h.7v.2h.2v.1h.6V38h.2v-.3h-.4l-.1-.2h-.1l-.1-.2h-.4l-.1.3v.2h-.4v.2h-.2zM387 558h279V279H550.6l-4.4 4.6-1.7-1.4h-2l-2.5 1.6-4.6 4.2-.6.1-.9-.8h-.9l-1.3.5-5.2.4-1.7 1-1.8-.2-8 7.7-4.8 6.7-2.2 6-.4 4.4-1.8-1.4-.5-1.8-.9-.4-2.1.4-2 1.9-1.6-.5-1.1.6-.4 1 .3 1.4.7.7v1.5l-1.3.3-.9 1-.2 1 .2.9 1.5.5.4.9-.8 4.4.7.8-1.5 1.7-.8 4.4-1.3.4-2.2 2.8-.8-.3h-3.7l-.2-1.2.5-.5-.9-1.3-1.4-.1-1.3.5-.6.4-.4 1.4.8 1.2 1 .1-.2.5-.5.1v.9l-2.1-1.3h-.9l-1.3 1.8-1.7 1.1-2.4 3.2-.8-.2-.9-1.4-1.9.2-2.7 2.6-1.8.8-1.8 2.5-2.1 6.1-1 6.7-.5.1-.2.8-.6 3.7.2 2.4.5.5-.4.6v1.2l-1 .6v2.1l.9.1.7 1 .1 2.3.6.8-.2 1.5-1.1 1h-.5l-.9-1.1-.7-2.7v-2l.6-1.5v-1l.5-.8-.4-2.3.9-.8V363l-.2 1-.7.6-.9-1-1 .4v2l-2.7.3-1.5-.5-2.7 1-.6-.5-1.1.9.3 2-1.5-.6-.1.4.8.8 1.5.3.1.7H450l.7.2.2.6 1-1.2.3 2-5 5.5.4 2.1h-.9l-.1 1.3-1 1.4-1.1 4.5-.3.4-.2.8-.9.1v1l-1.6.1-.7 1.2-1.2-1.2-4 2.7-2.2 3.2-.4 1.4.6.6v1l-.6.7-.8.2-.6-.3-.5.5.2 1.3h-.5l-.2.5.4 2.6.5.5-.3.3.4.5v1.5l1.1.8-1 .4-.4-.7-.7-.2-.7-1.4-1.5.4-1.4 2.1.2.9-.2.7-1.4-.5-1.6.5-.7-.4-.9.6-2.1.3-1.1.6-1 1.4-.7 2-.9.3v2.5l-.4.3.4 1.4v5.8l.5 1.1.4.1.5 2.2.6.1.4 2.3 4 3.9h1.7l.8.7.9-.3 2 1h.6l.7-1.2 1.2.2.3.7-.2 1-.5.7-1.9.9-.2 1.7.3 1.3-.5 1.7-2.8-1-1.2.5v-1.6l-.9-.5.2-1.1-1.1-.8v-1.4l-.7-.3-1.2.5.8 2-.8.4v.6l-1-.2-1 .7h-1l-1.5-1.1-1.8 1.1-1.2-.6-.8.1-1.1 2.3.6.6-.3 1.5 1.1 3.1-.8.3-1.9 3.2-1.4-.8-1.4.4-.6.6-1.2.1-.9.8-2-.4-1.1.8v.5l-1.5.5-1.1-.5-1 .4-.2 1.4-.8.4-1.8 4-.3 2.4h-.6l-.5.4-.7 6.5-2.8 4v4.1l.3.4-1 .9-2.2.1zm0 0"/></g></g></svg>