<svg xmlns="http://www.w3.org/2000/svg" xmlns:xlink="http://www.w3.org/1999/xlink" viewBox="0 0 497 279" xmlns:v="https://vecta.io/nano"><style><![CDATA[.B{stroke:#fff}.C{stroke:#8d618b}.D{stroke-linejoin:bevel}]]></style><filter id="A" width="100%" height="100%" x="0%" y="0%"><feColorMatrix in="SourceGraphic" values="0 0 0 0 1 0 0 0 0 1 0 0 0 0 1 0 0 0 1 0"/></filter><mask id="B"><g filter="url(#A)"><path fill-opacity=".5" d="M0 0h497v279H0z"/></g></mask><clipPath id="C"><path d="M0 0h497v279H0z"/></clipPath><path fill="#f2efe9" d="M0 0h497v279H0z"/><g fill="#aad3df" fill-rule="evenodd"><path d="M-4.8 242l.4.6.8 1 1.6.4h.8l.5-1.2.3-.5.7-.4.8-.4.4-.3v-.7l-.4-.9-.4-1-.2-1.1-.2-.5-.2-.4-.8-.3H-1l-1.2.5-.8.6-.5 2.6-.7.3-.6.9zm6.5-7.6l.1.9.6.6 1.6.2 1.3-.4.7-.5.5-.4.1-1-.1-.6-.5-.7-.5-1.6-.5-.4-.8-.1-.8.2-.7.5-.2.6v1.2l-.3.4-.4.5zm3.4-20.7l1 1.3.9.4.3.8.3 1.4.4 1h.4l.4-.2.4-.6v-.7l.2-.3v-.8l.5-.2-.1-.7.2-.1.2-.5-.2-1.1-.3-.8-.7-.4h-.9l-.9.4-.2.4v.7h-.3l-.4-.3.1-.4h-.9l-.2.2zM8 263.8l.1.4.4.1h1.1l.2.1.4-.2h.7l.6-.2.3-.3.2-.2h.5l.2-.3v-1l-1.3-.8h-.6l-.9.1-.3.4-.9.8-.5.7zm29.7-2.4l.4.9.4.6.6.1h.7l.4-.6.2-.8-.3-.7-.7-.5H39l-.6.2-.6.3zM-49 558h279V400.8l-.6-.8-6.7-8-4.5-6.9-1.3-3.7.1-3.8h.7l.2.4h-.7l.8.6 2.5-.4.8.8h.6l2.1-1.5 1.9-1.9 1-2.2.7-2.8 2.4-7v-6.2l-.3-.4-.7-2.6.8-3.6.2-.2v-13.3l-.3-1.3-1.5-13.6 1.1-2.8.8 1.1v-2.5l-.4 1v-2.4l.4-1V279H120l-3.5 3.7-1.1.3-.6 1.8-1.3.9-1.5 2h-3.7l.3 3.1-8.2 5.4-3.5 4.2-2.6 2-.6 1.6-.7.8h-2l-.4 1 .1 1.8-.9 2.3-3.5 6.1-1.6 3.2-1 1.4v7.7l1.9 6.2 1.4 14 1.7 9.1 2 1.5 1.7 2.4 4.6 3.7.8 1.3.1 1.5-.3.6-2 .9-9.2 7.1-2.5 4-.9 3.3v3.5l-1.5 5.7-2 12.5-1 10-.7 1-2 .8-1.8 1.5L60.6 434l-2.8 2.1-1.2 1.8-3.4 3.1-6.7 10.1-1.9 1.9-2 .9-7.6.3-5 2.3-6.6 2.5-8.8 7.7-4.4 2.4-3.7.4-4-.7-1.2-.8-.9-1.4-.6-3.3-.6-9-.2-1.3-1.4-2.1-3-1.5-3.2-.3-2-1.1-4.5-1.1-3.4.3-4.5 1.2-4.4-.9-2-.9h-1.7l-3.9.7-6.2 4-1.8.3-3.8.9-2.2 1.1v1.5l2-.5.4 1.2-.4 2.2-1.9 5.7-.1.2v9.9l10.8-2.8 1.1.2 4.4 4.8 8.2 11.7 1.1 2.6.2 1.7-1.5 6.7-2 1.8-6.3 4-5 7-6 2.5-5 1.1zm0-558h279v-279H-49zm0 0"/><path d="M-49 139.8l2.4-1 6-1.8 4.3-.6 7.5 1.3 9 3 11.1 5.6-2-.3-.9 4.6-.7.6.8.8v.8l-1.1 1v.6l2.4-1.3.7-2.4-.3-2.7.3-1-.3-.3 1.8-.2 8.4 4.3 11.4 7.3 1.6 1.5 1.7 2.6 2.4 2 1.7 3.2 1.2 1 1.6.6 3.2 3 2.8 4 8.4 11.2 3.5 3.5 5.1 3.9 3.6 1.8 3.7 1 5.4.8 8.4-.5 2.4.3 3.3 1 2.7 1.7 3 2.7 3.4 4.4 1.8 4.7.3 3 4.5 5.4 7.6 5.6 9.7 4 13.9 8.5 5 4.6 1.6.8 3.4 4 2.6 1.8 1.4 2.1 4.5 9.5 2 2.7 1.1 6.3 3.3 2.5 1.2 5.5-4-1.1-4.4-2H135l-4.6.6-5 .1-4.3 1.6-1.1 1h110V0H-49zM230 316l1.2-3 3.4-4.4 1.3-.8 2.1-2.3 2.5-3.4 2-6.1 1.5-9 1.3-1.5 1-4.9.6-1.6h-17zm0 0"/><path d="M230 279h16.9l.7-2v-2.2l-2.6-1.5-1-2.5V267l-.1-.4-.3.8-.2-5.6.4-3.2 2.1-4.6 2.4-7.9 3.4-2.9 2-.6 2.3.7 7.3 7.7 8.2 6.3 2.5 3.1 1.2 3.6 3.7 7.6 1.1 3.6v2.3l-.7 1.5H509V0H230zm0-279h279v-198h-9l-1 1-2.7-.5-7.3 1.2-10.4 3-3.6 1.5-3.2-.2-16 1.7-3.7-.3-1-.8.3-1.2 3.6-4.8 2.6-5.3 7.8-4.8 3.1-.8 3-2 8.5-9 6-9 .9-.9 18.3-3.3 3.2.5h.6v-47H230zm0 0"/><path d="M279.3 279l-1.8 4.5-1.7.4-1.3 2.7-1.3.6-1.2 1.7-1.9 1.1-.6 4.5-.5 8.7 1.7 4.6 7.2 10.7-.4 2 .5 2.3.2 1.9-.5 2.3 3 5.6 2.7 4 11 7.4.9 1 8.1 2.7.6.5 3.7.9h8.2l5-1.9 8.8-6.9 4.6-2.8 1.2-1.2.3 1.5 1.2-1.2.8.2v1.5l.4.6 2.2-.6 1 .4.4.7.5-.4-.2 1.4.7-1h.5l1.6 2.4v1.4l1.4.5-.3 1.3 1.2.1.8.6 1-.1-.2-1.6-.8-1.2-2-1 .3-1.3-.7-.5-.6-1.5-1.7-.3-.7-.7v-.4l1.2-.3.3-.5-1.1-.7-1.7.4-1.1-1.2.4-1-.3-.9.7-1.2-.7-1.6-1.1-.3.4-.6h1l-1.1-2-1.3 1-.2 1.5-1.3.3-2.2-.4-1.5 2.4-3.4.7-3 3.3-1.6.9-1-.7V335l1-.6-1.4-1.2.7-1.2-1-1.4-4.2 3.2-1.6 2v.5l-.3.3v.8l-.9-.7 2.4-2.8 2.1-1.8 3-2 3.1-1.6 5.8-4.5 1.5-2.2 1.8-4.4 2.4-1.8 1.1-1.4 1 1.2-1 2.3.9-.5.5-1.5.5.1.7 1.2v1.7l-.7.6-.2 2.5.5.9-.2 1 2.7.5 1.6-1.2 1.6 1-.4.8.8.6-.4 1.1.3.2 3.3-2.6 4.3-1.3-.4-.4-1.3.2-2.5-1.3-1.7 1.1H348l-.5-2.2 1.1-.6 1.2 1h.4l-.5-2.2.8-1-1.7-1-1.6-.2-.7-.8-3.7-1.7-.6-1.5-1.6.3-.5-.3-1.2-1.5h-1.1l-.5 1h.5l-.8.1v.5-1.2l1.2-1.7 2.8-1.6 4.3-1.4 2.2-.1 1.5.2 2 1.3 3.3 1.4-1.3-.2-.5 1.8h.4v-.9l1.1-.3.1 2.1h1.5l-.6-1.2v-1l-.6.4 2.5-.9 1.1-1.4-1.3 1-.1-.4 4.2-3 2.8-2.9 2-1 9 3.9 10.8 3.4 1.6 1.4 1.8 3 1.9 1.6 5.1 3 6 2.1 4.7 1 5.3-.2 15.7-3.2 13.3-.6 5 2.3 5.6 4.3 8 4.6.6.7 1 1.6.3 1.4-.3 6.7-1 2.6-2.8 2.9-1.4 2.5-1.8 5 .4 3.7-.4 2.2 1 4 2.7 6v5.8l-1.1.9-1.3 2.5-1 .2-2.1-1.2-.8 1.2-1.2.7-1.2 1.7h-4.2l-2.8-.3-1.2.8-.3 1.4 3 3.1-.4 1.6-1.1-.1-4-3.6-1-.2-1.3.6-2 4 1.6 1.6 1.8 3.9 3.2.1 2.1-.9 1.4 1.6 2.2.5.7-.5.7-1.8 1.3-.6 3.1.2 2 .6 1-1.2v-1.4l1.1-.4 2.3 1.2 2.6 2.7 4.5 3.8.7.3 1-.4 1.5.2 1.3.5.4.9 1.5.8 3.3-.2 1.2-.5.3-.8.5-.3 2.4-.3 1.2.4.4.8 1.6 1-1 1.4-1.3.7.2.5h1.5l.3.5 1.4-1.1.4.7.4-1.2 1.3-.6-.3-1.5.4-2.4.8-.8 1.3-.4 4.1-.5 1.3.6 2-.2 1.6 1.3 2.2.4.8-.3.2-.7 2-.3.6.5-1.1 1 .5 1.9-1.3.7 1.1.1.7-1.2-.4-1 .7-1.9-3-.9v-.4l.5-.6-1.6-1-1.5.1-.3.6 1.4-2.5 2-2 2-.3 5.4-1.6h1.1V278.8zm64.3 44.7h-.2l.2-.3-.6-.3-.6-1v-.9l.8-.5.5.2.6 1.4v.8zm2-4.7h-.4l-.5-.5-.2-1.2 1.2-.8h1l.6.8-.9.5v1zm.1 0"/></g><g fill="none" clip-path="url(#C)" mask="url(#B)" class="D"><g stroke-width=".8"><path d="M159.5 170l-12.3-7.8-3.2-5-4.2-5L130 142l-6.3-5.2-7.5-5.2-9.7-5.4-9-3.7-9.5-2.7" class="B"/><path d="M159.5 170l-12.3-7.8-3.2-5-4.2-5L130 142l-6.3-5.2-7.5-5.2-9.7-5.4-9-3.7-9.5-2.7" class="C"/><path d="M88 119.8l-1.4-.4-8.5-9.2-6.5-7.5-5.6-5.3-6.8-5.4-4.6-3.2L37 77.9l-7-3.8-7-3-6-3.1" class="B"/><path d="M88 119.8l-1.4-.4-8.5-9.2-6.5-7.5-5.6-5.3-6.8-5.4-4.6-3.2L37 77.9l-7-3.8-7-3-6-3.1" class="C"/><path d="M16.9 68l-.6-.3-14.6-5.8-13.3-3.9-14-2.4-8.5-.4-13.9.6-9.4 1.5-12.3 3.3" class="B"/><path d="M16.9 68l-.6-.3-14.6-5.8-13.3-3.9-14-2.4-8.5-.4-13.9.6-9.4 1.5-12.3 3.3" class="C"/><path d="M478.5 246.8l-3.2-1.6-7.8-3-5.7-1.8-11-2.2-5.8-.6-5.8-.2-9.2.3-7.8.8-8.4-3.8-10.4-3.4-10.1-4.8" class="B"/><path d="M478.5 246.8l-3.2-1.6-7.8-3-5.7-1.8-11-2.2-5.8-.6-5.8-.2-9.2.3-7.8.8-8.4-3.8-10.4-3.4-10.1-4.8" class="C"/><path d="M555.3 291.7l-51.4-29.1-2.5-1.8-6.6-3.7-4-3.1-7.2-4.6-5.1-2.6" class="B"/><path d="M555.3 291.7l-51.4-29.1-2.5-1.8-6.6-3.7-4-3.1-7.2-4.6-5.1-2.6" class="C"/><path d="M393.3 226.5L360 211l-43.4-20.2-3.2-3.2" class="B"/><path d="M393.3 226.5L360 211l-43.4-20.2-3.2-3.2" class="C"/><use xlink:href="#E" class="B"/><use xlink:href="#E" class="C"/><use xlink:href="#F" class="B"/><use xlink:href="#F" class="C"/></g><g stroke-width="1.2"><path d="M400.8 230L320 192.4" class="B"/><path d="M400.8 230L320 192.4" class="C"/><path d="M562.5 295.8L504 262.6l-2.6-1.8-6.6-3.7-4-3.1-5-3.2" class="B"/><path d="M562.5 295.8L504 262.6l-2.6-1.8-6.6-3.7-4-3.1-5-3.2" class="C"/><use xlink:href="#G" class="B"/><use xlink:href="#G" class="C"/><use xlink:href="#H" class="B"/><use xlink:href="#H" class="C"/><use xlink:href="#I" class="B"/><use xlink:href="#I" class="C"/><use xlink:href="#J" class="B"/><use xlink:href="#J" class="C"/><path d="M96 122.1l-9.4-2.7-8.5-9.2-6.5-7.5-5.6-5.3-6.8-5.4-4.6-3.2L37 77.9l-7-3.8-5.7-2.4" class="B"/><path d="M96 122.1l-9.4-2.7-8.5-9.2-6.5-7.5-5.6-5.3-6.8-5.4-4.6-3.2L37 77.9l-7-3.8-5.7-2.4" class="C"/><path d="M24.3 71.7l-1.3-.5-6.7-3.5-14.6-5.8-13.3-3.9-14-2.4-8.5-.4-13.9.6-9.4 1.5-4.3 1.1" class="B"/><path d="M24.3 71.7l-1.3-.5-6.7-3.5-14.6-5.8-13.3-3.9-14-2.4-8.5-.4-13.9.6-9.4 1.5-4.3 1.1" class="C"/></g><g stroke-width="2.2"><path d="M47.8 84.6L37 77.9l-7-3.8-7-3-6.7-3.3-14.6-5.9-13.3-3.9-14-2.4-8.5-.4h-1" class="B"/><path d="M47.8 84.6L37 77.9l-7-3.8-7-3-6.7-3.3-14.6-5.9-13.3-3.9-14-2.4-8.5-.4h-1" class="C"/><path d="M426 238.1l-3.8.4-8.4-3.8-10.4-3.4-59-27.6" class="B"/><path d="M426 238.1l-3.8.4-8.4-3.8-10.4-3.4-59-27.6" class="C"/><use xlink:href="#K" class="B"/><use xlink:href="#K" class="C"/><path d="M344.4 203.7l-27.8-13-7.5-7.3-6.1-4.9-6.6-4.3-6.9-3.6-4.7-2-10.4-3.4-5.4-1.3-3-.4" class="B"/><path d="M344.4 203.7l-27.8-13-7.5-7.3-6.1-4.9-6.6-4.3-6.9-3.6-4.7-2-10.4-3.4-5.4-1.3-3-.4" class="C"/><use xlink:href="#L" class="B"/><use xlink:href="#L" class="C"/><use xlink:href="#M" class="B"/><use xlink:href="#M" class="C"/><use xlink:href="#N" class="B"/><use xlink:href="#N" class="C"/></g></g><defs ><path id="E" d="M313.4 187.6l-4.4-4.3-6-4.8-6.6-4.3-6.9-3.6-4.7-2-10.4-3.4-5.4-1.3-5.8-.9-5.7-.4h-5.8l-5.7.2-5.7.9-9 2.1"/><path id="F" d="M231.4 165.8l-3.8 1-3.8 1.2-7.5 3.1-7.1 4-3.4 2-9.8 7.7-4 3.8-4.3 4.7-11-10.2-7.4-6.2-6.8-4.9-3-2"/><path id="G" d="M485.7 250.8l-2.1-1.4-8.3-4.2-7.8-3-5.7-1.8-11-2.2-5.8-.6-5.8-.2-9.2.3-7.8.8-8.4-3.8-10.4-3.4-2.6-1.3"/><path id="H" d="M320 192.4l-3.3-1.6-7.6-7.5-6.1-4.8-6.6-4.3-6.9-3.6-4.7-2-10.4-3.4-5.4-1.3-5.8-.9-5.7-.4h-5.8l-5.7.2-5.7.9-.8.2"/><path id="I" d="M239.5 163.9l-11.9 2.8-3.8 1.3-7.5 3.1-7.1 4-3.4 2-9.8 7.7-4 3.8-4.3 4.7-11-10.2-7.4-6.2-3-2.1"/><path id="J" d="M166.3 174.8l-3.8-2.8-15.3-9.8-3.2-5-4.2-5L130 142l-6.3-5.2-7.5-5.2-9.7-5.4-9-3.7-1.5-.4"/><path id="K" d="M508.4 265l-4.5-2.3-2.5-1.9-6.6-3.7-4-3.1-7.2-4.6-8.3-4.2-7.8-3-5.7-1.8-11-2.2-5.8-.6-5.8-.2-9.2.3-4 .4"/><path id="L" d="M266.1 163.5l-3-.5-5.5-.4h-5.9l-5.7.2-5.7.9-12.7 3-3.8 1.3-7.5 3.1-7.1 4-3.4 2-9.8 7.7-4 3.8-4.3 4.7-1.1-1"/><path id="M" d="M186.6 192.3l-9.9-9.2-7.4-6.2-6.8-4.9-15.3-9.8-3.2-5-4.2-5L130 142l-6.3-5.2-3.7-2.6"/><path id="N" d="M119.9 134.2l-3.7-2.6-9.7-5.4-9-3.7-11.1-3.1-8.3-9.2-6.5-7.5-5.6-5.3-6.8-5.4-4.6-3.2-6.8-4.2"/></defs></svg>