<svg xmlns="http://www.w3.org/2000/svg" xmlns:xlink="http://www.w3.org/1999/xlink" viewBox="0 0 497 279" xmlns:v="https://vecta.io/nano"><style><![CDATA[.B{stroke:#fff}.C{stroke:#8d618b}.D{stroke:#9cf}.E{fill:#ddecec}.F{fill-rule:evenodd}.G{stroke-linejoin:bevel}]]></style><filter id="A" width="100%" height="100%" x="0%" y="0%"><feColorMatrix in="SourceGraphic" values="0 0 0 0 1 0 0 0 0 1 0 0 0 0 1 0 0 0 1 0"/></filter><mask id="B"><g filter="url(#A)"><path fill-opacity=".5" d="M0 0h497v279H0z"/></g></mask><clipPath id="C"><path d="M0 0h497v279H0z"/></clipPath><path fill="#f2efe9" d="M0 0h497v279H0z"/><use xlink:href="#E" fill="none" class="D"/><use xlink:href="#E" class="E F"/><path fill="none" d="M22.2 50.5l4.1 2 1.3-4.5-5.2 1.5-.2.7zm0 0" class="D"/><path d="M22.2 50.5l4.1 2 1.3-4.5-5.2 1.5-.2.7zm0 0" class="E F"/><path fill="none" d="M14 49.9l2.6 5.1.7 1-1.7-5.6-1.6-.7zm0 0" class="D"/><path d="M14 49.9l2.6 5.1.7 1-1.7-5.6-1.6-.7zm0 0" class="E F"/><path fill="none" d="M9.4 47.6l3.8 2.6-1.7-2.2-2.1-.5zm0 0" class="D"/><g class="F"><path d="M9.4 47.6l3.8 2.6-1.7-2.2-2.1-.5zm0 0" class="E"/><g fill="#aad3df"><path d="M380 280.8v.2h.2v.3h.1l.1.2.1.1.5.2.1.2.5.5.3.3.7.8h.1v.4l.3.1v.2h.2v.3h.1v.3l.2.1.1.2.1.2v.1l.1.1v.3l.2.1v.3l.3.1.2.4.2.4v.1l.3.2v.3l.2.2v.3l.3.3h.1v-5.9l.3-.6v-.4l.1-.9v-.5l.2-.5v-1.1h-.2v-.2h-.4l-.8.3h-.3l-.5.2h-.5v.2h-.1l-.1.1h-.1l-.5.2-.3.1h-.1l-.1.2h-.1l-.3.1-.1.1h-.3l-.3.2-.6.3-.3.1h-.1v.2zM-267 558h16.9l.7-2v-2.2l-2.6-1.6-1-2.5v-3.6l-.1-.5-.3.8-.2-5.6.4-3.2 2.1-4.7 2.4-7.8 3.4-2.9 2-.6 2.3.7 7.3 7.7 8.2 6.3 2.5 3.1 1.2 3.6 3.7 7.6 1.1 3.6v2.2l-.7 1.6H12V279h-279zm0-279H12V81H3l-1 1-2.7-.6-7.3 1.3-10.4 3L-22 87h-3.2l-16 1.6-3.7-.2-1-.8.3-1.2 3.6-4.8 2.6-5.3 7.8-4.9 3.1-.7 3-2 8.5-9 6-9 .9-.9 18.3-3.3 3.2.5h.6V0h-279zm0 0"/><path d="M12 279h279V0H12v47l3-.5 12.2-3.9h2.6l4.4.9h3l3.3-1.2 7.7-5.3 4.3-.7 2.2.3-1.2 2-4.2 3.3-2 .9-4.3.7-3.2 2.5-3.3 4L31 60l-1.5 3.4-1.3 5V70l.5 1.4 1.6 2-1.1 1.3-.8 3.6.9 2.5 2.5.7.2.5-.4 1-1.9 1.7-.5 1.7-2.2 2-1 2.1-.7.5-.3-2.1-3.7-2v-1.4l-.8-1.3-3.6-2.2-4.2-1h-.8zm0 279h279V279H12zm279-279h92l1.8-.7 1.8-.3.4.3-.2.7H570V0H291zm0 279h279V279H386.9l-.7 3-.3 3.7.3 4.3 1.2 3.5-.8 9.8.1 5.8-.7 6.3-1.2 2.2-7.5 1.4-1.8-2.4-1-.6-2-3.6-2.1-2.4-12.6-11.4-.8-2.8.6-1.3 2-1.8 1.4-2.4 3-5.3.6-3 .8-1h.6l2.3 1 4.1-.2 3.4-1 3.2-.2 4-1.6h-92zm57-86.7l.8-1.5.6-.8.7.9.1 2.5-.9.8-1.1.3-.7-1.2zM12 0h279v-279H12zm279 0h279v-279H291zm-558 0H12v-279h-279zm0 0"/></g></g><g fill="none" clip-path="url(#C)" mask="url(#B)" class="G"><g stroke-width=".8"><use xlink:href="#F" class="B"/><use xlink:href="#F" class="C"/><use xlink:href="#G" class="B"/><use xlink:href="#G" class="C"/><use xlink:href="#H" class="B"/><use xlink:href="#H" class="C"/><use xlink:href="#I" class="B"/><use xlink:href="#I" class="C"/><use xlink:href="#J" class="B"/><use xlink:href="#J" class="C"/><use xlink:href="#K" class="B"/><use xlink:href="#K" class="C"/><use xlink:href="#L" class="B"/><use xlink:href="#L" class="C"/><use xlink:href="#M" class="B"/><use xlink:href="#M" class="C"/></g><g stroke-width="1.2"><use xlink:href="#H" class="B"/><use xlink:href="#H" class="C"/><use xlink:href="#I" class="B"/><use xlink:href="#I" class="C"/><use xlink:href="#M" class="B"/><use xlink:href="#M" class="C"/><use xlink:href="#J" class="B"/><use xlink:href="#J" class="C"/><use xlink:href="#K" class="B"/><use xlink:href="#K" class="C"/><use xlink:href="#L" class="B"/><use xlink:href="#L" class="C"/><use xlink:href="#F" class="B"/><use xlink:href="#F" class="C"/><use xlink:href="#G" class="B"/><use xlink:href="#G" class="C"/></g><g stroke-width="2.2"><use xlink:href="#F" class="B"/><use xlink:href="#F" class="C"/><use xlink:href="#G" class="B"/><use xlink:href="#G" class="C"/><use xlink:href="#H" class="B"/><use xlink:href="#H" class="C"/><use xlink:href="#I" class="B"/><use xlink:href="#I" class="C"/><use xlink:href="#L" class="B"/><use xlink:href="#L" class="C"/><use xlink:href="#M" class="B"/><use xlink:href="#M" class="C"/><use xlink:href="#J" class="B"/><use xlink:href="#J" class="C"/><use xlink:href="#K" class="B"/><use xlink:href="#K" class="C"/></g></g><defs ><path id="E" d="M-14.8 76l.3 5 .9-.7 1.6 1.3 5.2-1 5.6-1.4 2.7 2.5L3 78l2.7.9L8 77.7l4.1-1.2 4.6-2.6 4-4 .9-5.9-4.5-3.3-2.7-2.3-4.1-4.1-5.9-2-6.7 1.8-4.8 3.3-1-1.4-4.2.4 2.2 4.9-2.6 5-1.3 6zm30.3-15l.7-1.3"/><path id="F" d="M358 198l5.5-.3 10.3-2.2 7.1-.8 6.1-.1 11.9.9 16.9 4.3L427 205l10.6 7 4 3.6"/><path id="G" d="M441.6 215.6l5.6 5.1 8.2 10.3 4.6 7.5 4 9 4.1 13.1 1.6 18.4-.4 5.2.6 6.6-.3 5.6"/><path id="H" d="M283 332.8v-.4l-5.5-14.9-2.3-10.8-.7-13.9 1.8-14.8 3.2-11.4 4.3-9.9 5.4-8.7"/><path id="I" d="M289.2 248l.4-1 3.6-7.4 7.6-11 7.3-7.8 4.6-4.1 3.5-2.7 10.7-6.8 16.2-6.5 14-2.7h.9"/><path id="J" d="M116.1-24.3l3 2.6 9.8 13.3 7 14.7 4.2 15.8 1.1 14.9-1.4 14.6-1.8 6.2"/><path id="K" d="M138.1 57.8l-2.1 7.9-4 9.2-4 7.1-5.2 7.8-6.8 8-2.2 9.6-4.1 10.9-7.7 13.2-3.7 4.8"/><path id="L" d="M98.3 136.3l-1.7 2.2-7.4 9.4L78 158.2l-7.1 4.8-15.4 7.6-19.1 4.7-13.8.1"/><path id="M" d="M22.7 175.4l-6.3.1-14.2-2.8-6.6-2.5-6 1.3-23.9 2-13.7.3-8-1-8-1.5-1.3-.3"/></defs></svg>