<svg xmlns="http://www.w3.org/2000/svg" viewBox="0 0 497 279"  xmlns:v="https://vecta.io/nano"><path fill="#f2efe9" d="M0 0h497v279H0z"/><path fill="#aad3df" fill-rule="evenodd" d="M255.8 558h279V279H255.9zm-279 0h279V279H-23.1zm0-279h279V0H-23.1zm0-279h279v-279H151.6l-1.6 3.8-1.5 6-1.3 10.3-.8 3.5.4 5-1 4.6 1.1 3-2 3.5-.4 1 .2 1.6-.9 1-.1 5.6-.7 3 .2 1.6-2 3.5-.7.2-.8 1.4-.9-.1-2.2.5-3.7 2.5-2.8 1-2.1-.4-1.6-.5-.4-1.2-1.3-.7-.7-2-1.9-2-2-.7-3.6-.1-1-.9-2-.6.5-.7-.2-1.4 2-2.1.4-2 .4-.8-.8-1.9-2-2.1-5.2-3.5-10.2-3.9-1.7-1.6-1.3-3.8-.2-3.6-1.3-5.8-1.2-2.3-3.4-3.6-.2-5.1-.9-1.2-.2-1v-2.7l.7-1.3-.4-.4v-1.3l-1-1.3H-23.2zm279 0h279v-279H255.9zm0 279h279V0H255.9zm0 0"/></svg>