<svg xmlns="http://www.w3.org/2000/svg" viewBox="0 0 497 279"  xmlns:v="https://vecta.io/nano"><path fill="#f2efe9" d="M0 0h497v279H0z"/><g fill-rule="evenodd"><path d="M213.5-53l22.7.8 4.1-9.4 3.3 5.6 3.9-12 4.7 3.5 6 8.4-11.8 6.7-6.4 9.6 7 6.3 5.8-8.5 5.4-6 5.5-9.2 1.3 6.7-6 10.5-12.6 10.7 14.9 4.4-.7 8.2-13.6-3.6-12.4 3.8-7 5.3-3.9 5 3.5-.8 5.5-2.8 7.9 3.7-15.3 3.5 11.7 3-6 3.9-6.6 1.1-4.3 15.2 5.6-8.4 5.3-4.6-2 5.6-2.6 5.7-.8 6.1 5.9-6.2 2.5-6.7 1.8 4.7 2.9 6.4 1.7-8 1.5-7.2 4.6 11.1-1.2 6.2 4.7-8.5-.4-9.8 6.1 4.2-.7 9 .4 3.6L259.7 8h6.4l.3 8 10-7.7h8.6l3.7-4.1-.7 5.9 1.8.6-1 6.4 5-4.7.9 6 1.8 1.4-.5-5.8 2.9 9 2.5-8 .4 7.8 7.2-7.5v6.8l7-4.8 9 9 1.2 3-3.2 2-10.8-2.1 7.8 8.4-6.4.8-7.6-6 8.6 11.9-15.2-6.3.6 7.5 1 7-1 6.2 9-8.8-3 7.9 2.7 3.8-5.4 5 6.4 4.2 4.8-8.5.3-12.7 2.6 4.4 4.2-4.3-1.6 6.8-2.9 6.8-2 10.1 9.3.2 6.2.5 2.1-13.5L327 49l13.6 4.2 2.6-5.6-8.8-9.4 11.4 2.4 3.8 6.7-6 10-4.6 14.1 40.3 5.6 5.6 16.9 12.9-27.1-16.9-9.9-17.4-8.4-14-12.8 6.9-.5-4.4-5.6-10.4-.2 11-4.7-6.8-9-9.8 11.4.5-7.1 6.3-8-6.2-4.9-9.1-11.7-2-12.4-2.2-12.1 2-23-7.5 12.2-4.6 15.9-3.5 6.7-6.7-1.2 3.5-12.8-9.2 1.7 9.6-9.3-12.9 1.3-6.8 2.9 10.7-10.7H284l17.1-4.8 9.4-13.4-12 4.8 7.3-17.7-6 2.8-5.8 14.5-15.4 4 10.6-10.7 4.2-13.8-8 9.7-2.4 6.4-8.2 1.9 11.7-19.9-9.8 6.7L271-68l-2-8 12.6-12.1-9-1-7 12.1-6.7 1 4.7-8.9-7.3-3 3.2-10.1-13-1.8 4.3 9.8 2.2 7.5-7.8-5-4.9 5.5 5 4.5L221-63.2zm104.6 161.6l23 9.2 3.4-1.3 4-5.6 7 2.7-3.1 8.7-.2 8.5 10.3-1.5 5.9 3.3 8.3 5.9 1.7 5.5 6.5-2.3h6.7l9-.1 6.4-4.1.3 5.1-4.9 4.8h-15.6l-8.4 4 7.8 7.4 7.1-3.4 7.4-2.9 5.8-1-6.7 6.8-6 3-.6 8 15.2 1.7-.3 8.9 13 1.1 19.6-4.2 5.7-10 3.2-6.4-4.3-4.7-7.6-.7-18 3.3-6.5 1 1.8-7.3 9.6-1.2 9.2-1.6-.9-8-11.5-3.8-8.4.9 3.6-6-11.9-4-7-1.3-12.1-3.7-6.5-8.7-7.6 1-5.2-3.6.2-8.2-3.6-14.7-5.8 6.4-7.4 5 2.9-16.9-3.7 12.7-2.7 1.7-2.8-9.6-19.3-2.4-1.6 9 11.8 9-8 3.3zm167.8 85.3l4.7-1.4 3.4-5.3-1.4 6.5 2.8 2.2.8-4.7 1-1 2.6 4.8 3.2-4.3 10-.9 3.8-6.3 2.6-5.4 5.2-.5 3 6.2 7.1 1.5-5-8.5 5.6 3.8 3.8 5.4 4.2-3.7 2.7-8.7-4.9-7 1.3-11-6-2.6-1.2-5.9.2 7.3-6.4-1.2-6.6 6.3-1-6.1 2.4-11.2-4 3.5-2 8.4-1-5.5.4-6.5-.4-10.1-6.8-.7-4 6.8 5 4.6 2.6 5.7-.3 5.8 5.7 2.6-6.6 4-1.7-.8-5-1 4.9-5.2-2-6-4 7-3-1 3.2-5.5-2.5-8.5-4.8 5.2 3.3 3.4-3.2 4.9 2.6 8 6.3 1.9-.6 5.3-5.6 4.6-3.3-.7-1.5-8.2h-4l1.3 8.1-2.9 4.3-.9 6.7.3 5.3-.8 2.4-1.6 1.6zM230.5 97.5l14.3 18 .4 14 7.2 4.9V125l6 1.1 5.6-3-9.8-3.8-7-10 9.6 5.9 5.9-12.1.3-9.4 3.3-10.2-2.3-8.2-5.6-3.2-10-1.3-13.9 19.5zM404 90l27.3 17 11.1 2.4h10.9l6.2-9.9-4.5-4.4-9.4-5.1-40.9-4.9zm-90 115.5l3.2 1 2.1 1.1 3.2 3.1 5.1-.7 5.3-2.8 5.1.8 1.4-2.9-.6-3.9 2.8 3 .2-3-1.2-3.8-1.1-2.2-2.8-2.5-.5-.9 3.5-3-1.8-3.6.5-2.9-2-3.3 1.3-3-2.1-3.6-3.6 2.4 1-3.8-.9-2.9-3.9.2 2-2.4-.2-3-1.2.7-1.3-2-5.2 2.7-2.4 5.3-1 5.4 1.8 4.4 1.3 1.8 2.4 4 1.4 3.8-5-1.4 1.5 2.1 5.3 1.7-3.6.6-4.7.2 3.3 4-3.9 1 5.3 2.7-3.4-.6-1-.2-2.1 4.6-3.3 1.6zm151.5-48l14.3 7.9 10-.8-4.7-13.7-5.9-7.9-12.1 7.3zM180 15.1l5.4 2.6 2-.7 5.6 2.7 7-2.9 6.8-10.3-3-9.9-6.6.8-8.8 7.1-1.4 6.8-6.6 1.4zm294.9 101.8l16.6 15.5 9.3-9.1-16.5-11.3zm-45.4 13.6L446 141l6.6-11.6-1.7-6.4-17.4 2.7zm39.1 72.8l7 5.3-3.8 4.1 5.2 5 7.8-.1 7.6-5.6 6-4.5.6-3.3-5 1.8-5.3 1-7.3-3.1-3.3.4-.4 2-6.3-3.6zM121.7 13l11.3 5-3.8-3 3.8-.8-4.3-3.4 5.7-1.2-2.7-2.5 1.7-4.6 3.9-5.1-3.1-8.1-6.4 3L126-1l-2.2 3.9 2.1 1.8.2 5.6zm169.6 131.2l2.2 1 5-1.7-.5-3-4.3.4-2.4 3zm78.9 13l1.7 2.4 1.1 2.4 2.2-1 1.3-.4 1.4 2-2-4.2-2.7-1.8-1.6 1-1.4-.6zm115.1 43l3.6 5.6.3-3-3.1-2.9zM284 145.9l2.7 2.5v-5l-2.1-1.9 1.4 2.3-2 1.8zm189.8 44l4 .6 1.1-2.8-3.2 1.4-1.9.7zm0 0" fill="#eee5dc"/><path fill="#cdebb0" d="M470 239.4l2.5-2 3.6-5-1.1.1-3 4.5-2 2.3zm0 0"/><path fill="#eee5dc" d="M287.6 145.4l2-1.1-1.9 1zm-9.6-4.1l2.2.8zm0 0"/><g fill="#aad3df"><path d="M164 206v.5h.2v1.1l.2.4.1.4.2.6h.2l.3.4h.2l.2.3h.1l.2.2v.2l-.4.4-.1.3-.1.5-.2.7v.5l-.1.2v1.8l.2.1v.9h-.2v.3h-.2v.2h-.1v.7h-.2v.6h-.1v.5l-.1.1v.3h-.1v.6h.3v.2l.1.1.1.1v.1h.3v-.3h.3v.5h.1v.1l.1.2v.6l-.3.1v.2h.3v.6h.1v.4h.1v.1l.1.1.1.1v.4l.1.1v.4h.2v.1h.1v.1l.1.2v.3l.1.2v1.1h.1v1.8h.1v.9l.3.3.3.1.1.3h.6l.1.3v-.2l-.1-.2v-.2l-.3-.3h.3v-.4h-.4v-.3h.4l.4.4.4.6.2.2.3.4.1.1.1.3h.1l.1.2v.2l.5.5v.1h2v.6h.1l.1.4.1-.3v-.7l-.3-.4v-.3l.4-.5v-.3l.1-.2v-.3l-.4-.2-.4-.2h-.6v-.1l-.1-.3v-.2h-.2v-1l-.2-.2v-1l.2-.7v-.3l.6-.8v-2.2l-.4-.3v-.6h.3l.2.2v-1.5l-.2-.2v-1h.3v-.6h.1v-.5l.3-.7v-.9l-.5-.7-.2-.5-.2-.2-.3-.1v-.2l-.2-.1v-.2h-.2l-.3-.3h-.1l-.3-.4h-.1l-.1-.2-.2-.1-.1-.2-.1-.3-.1-.2-.4-.6-.2-.3-.2-.3-.4-.4-.3-.4-.2-.2-.1-.3-.2-.5-.1-.4-.2-.4-.1-.3-.2-.3-.4-.3-.4-.3-.4-.2-.6-.3-.4.2zm3 17.8l.5.2.1-.4v-.9l.5 1 .7 1.3v.1h.2v.4l.3.2.1.2v.2l.1.1.1.2.2.2v.1l.2.3.2.2.2.2.5.6v.7l-.1.4-.5-.2-.2-.3-.1-.4-.1-.2-.1-.3h-.1l-.2-.3-.3-.1-.4-.3v-.1l-.3-.2-.1-.2-.1-.1-.1-.2-.2-.2-.3-.4-.2-.2-.1-.4v-.4l-.4-.6zm0 3.8h.2l.1.1.1.3v-.4h.1l.1.2v.2h-.3zm1.4-6.4l.2-.1h.4v-.7l-.3-.3h.3v-.8h-.3v-.5l.2-.2v-.6l-.1-.4h1.1l.3-.4v-.5h-1v.3h-.2v.3h-.3l-.1.5v.2h-.2l.1-.1v-.2l-.2-1.1.3-.1v.3h.2v.2h.2l.3-.4h.1l-.1-.9h.1v-.3l.3-.4h.8l.5 1.5h.2v1l-.2.5h-.2v2.8l.2.7v1.2l.2-.9.2.2v.3l-.2.3v.4l-.3.5-.2.5-.1.4-.2.6v.5h-.2v-.2h-.2v-.3h-.2l-.3-.3v-.1l-.2-.3h.2l-.1-.1-.1-.2-.1-.3-.3-.2v-.5h-.3v-.5h-.1l-.1-.3v-.7h-.2v-.2zm2.9-2.6v-.8 1.4-.2zm-.1 9.4h.5v-.2h.5l.2.3v.6l-.3.5v.2h-.2l-.3-.4v-.6l-.1-.1v-.1zm27.3-56.3l.2.1.2.2h.1l.3.2h.3l.1.1.3.1.1.3.2.3v.1h.3v.2h.6v.1l.3.1v.1l.1.1v.4l-.3.3v.9l-.3.7-.1.3-.1.5.2 2.1h.3v.7h.1l.2.4h.1l.1.4.5.3h.2l.2.5h.3v.4l1-.2h.2l.4-.2.2-.2.9-.6.5-.6.2-.4h.2l.9-.1.4-.4h.1v-.2l.6-.2.2-.8.5-.4.3-.3.5-.2.9-.1v.3h.9v-.4l.3.2h.9l.4.2h.4v-.2h2l.8.4v-.4h.1l.2.1.2.1.1.1.1.3.4.5h.2v.3l.6.3.1.2.2.3.5.4.1.2.3.1.2.3v-.3l-.3-.3-.1-.1-.2-.2.2-.7h.4l.2.2.3.1.8.3.5.1v.2l.2.2v1.2l-.2.1v.5l.2.2h.2l.2.7v.6l.3.2v.2h.2v.3l.1.1.2.2.3.2.2.1v.3h.3v-.4h.1l.6.6.3.1h.1l.6.2.5-.2h.2l-.1-.5-.3.3-.4.1-.7-.2-.2-.2-.7-.4-.7-.3-.2-.2-.1-.3-.2-.2v-.2l-.4-.9v-.3l-.1-.4v-.2h-.1l.1-.6.2-.3v-.5l-.3-.2-.2-.3-.2-.1h-.3l-.2-.3h-.3v-.2l-.9-.3H219v-.2l-.4-.8h-.5v-.4l-.4-.4-.4-.2-.3-.4-.6-.3-1.1-.1-.6-.2v.2l-.9-.3.2-.2-.2-.2-1.9-1h-.4l-.3.1h-.2l-.5-.6h-1l-.5.4h-.2l-.2.1-.4.3-.2.2h-.2l-.2.2h-.2l-.3.1h-.3l-.2.7h.1v.3l.3-.1-.2.8-.2.1v.2l-.1.9h-.3l-.3.2-.3.3v.6l-.2.1-.3.2h-.2l-1-.2.1-.4v-.1l-.3-.2-.1-.1v-.3l-.2-.1v-.6l-.2-.4v-3.4l-.2-.2v-.1l-.1-.1h-.1l-.2-.3h-.2l-.1-.1-.3-.1v-.2h-.4l-.1-.1H199l-.3-.1-.1-.1zm10.1 3.3v-.1h.4v.1h.3v.3h-.5l-.1-.3zm.4-.2v-.2h.1v-.1h-.1v-.3l.3-.3.4.1v.2l-.1.4h-.3l-.2.2zm.3.8v-.1h.3l.1.1zm.4-.5l.2.2v-.5l.5.3v-.1h.2-.2v.6h.2v.1l-.9-.3zm.3.8v-.1h.5v.2h-.3v-.1zm.5-1.3v-.1h.5v.2l.3.1v.2h.1l.2.2v.4h-.1v.2h-.6l-.1-.2h.2v-.2.1l.3-.3h-.2l-.3-.2h.2v-.2h-.4v-.2zm0 .7h.2v-.3h.2l.1.3h-.2zm1.3-1.3l.4-.2v.2l.4.1v.2h-.3l-.4-.1v-.2zm.3 2v-.3h1.2l.4-.2 1 .2v.2l-.7-.2h-.3v.3h.1v.2h.8v.1h-.2v.1l-.6-.1h-.8v-.3h-.6zm.7-1v-.2h.2v.2zm9.2 6v-.2l.2.1v.2zm16.8 33.1l.2.4.4.4.6.8.4.2h.5l.3.3h.8l.7-.8h.1l.3-.4.2-.2.2-.2.2-.2.3-.2.2-.2h.1l.1-.3h.3l.6.5.3.1.5.2.1.1.4.1h.6l.1-.2.4-.2.6-.6.2.3h.1v.3h-.2l-.2.3-.2.4.2.2v.1l-.3.3.3.3v-.1l-.1-.2.1-.3h.1v-.1l-.2-.2v-.1l.3-.2v-.2h.4v-.2l.1-.3-.3-.2h-.2v-.5l.1-.2h.1v-.3l.2-.2v-.1l.1-.3.2-.8v-.3l-.1-.2v-.6l-.7-.6v-.1l-.3-.7-.2-.2-.2-.1-.1-.1h-1l-.1.1-.4.1h-1.3l-.7.3h-.2l-.2.2-.4.2-.4.2-.1.2-.2.2h-.1l-.4.4h-.2l-.3.3h-.5l-.5.3-.5.3-.3.3v.1l-.1.3h-.1v.3l-.2.2v.6l-.2.3v.1l-.3.1v.2zm-51-9.4l.6.5.2-.2h.5l.2.3-.1.2.1.5.5.7v.3l.4.3.5.2h-.2l-.2.3h-.1l-.5.3.1.3.6.6.4-.3h.3l.2.3h.1v-.4l.1-.1v-.3l-.1-.4-.4-.3.2-.1.6-.1.2.6v.4h.4l.3.2.5-.5v-.3h.1v.3h.4v.7l.2.1v.2l.4.3.2.3.3-.3.5.4h.3l.4-.5.4-.6v-.6l-.2-.2-.1-.3-.5-.3-.3-.2h-1l-.2-.2.3-.2v-.6l-.6-.4h-.2v-.6h.3v.4l.4-.4h.3l-.2.2.3.4-.2.4.1.2v.3h.3l.2-.3-.1-.7v-.3l-.3-.5h-.4l-.1-.4.8-.5 1.3-1.3.1-.3v-1.9l-.6-.6h-.2l-1.3.4-.6.3-.7.5h-.3v-.6h-.2l-.4.4v.3l.3.1.2-.1v.4l-.3.3v.8l.1.3.5.7-.3.1-.1.2h-.4l-.3-.3-.4.1h-.2l-.4.2h-.4l-.4.3-.4.1-.6.4-.4-.4h-.2l-.3.2zm2.3.8l.3.2v.2h-.2l-.2-.1zm.4-.5h.1v-.2l.4.5-.4-.2zm.1-.7l.2-.3.2.1h.3-.3l-.2.3zm.1 1.4h.4l.2.3v.2l.2.2.2.2-.5-.2h-.1l-.3-.6zm1.4 1l.4-.1v-.4l.1-.4v-.2l.1.1h.6v-.2h.2l-.1.3v.2l.3.5h.2v.3l-.3-.2h-.6l-.1.2h-.4zm-40.8 41v.3l.3.2h.1l.1-.2v-.4l.2-.5.2-.3v-.1h.1v-.2h.6v-.2l.1-.4v-.2h.4v.4l.4.4.1.3v.3l.4.3v.3l.1.1v.2l.2.4.4.3v.3l.2.1v.1l.3.3v.1l.3.4v.5l.2.2.1.2v.3l.4.2v.2l.2.1v.3h.1l.1.2.2.2.2.2v.1l.2.3.3.4.2.5v.4l.2.3v.6l.2.7v.1l.2.2.2.2.1.1.1.2h.1l.5.3.4.1.3.1.2.2h.3l.2.1.4.2.6-.9-.4-.3v-.2l.4-.2v-.3l.3-.3v-.1h.1v-.3h.4l.1.2.1.1.3.2h.1l.1.3.5.1.2-.3.1-.2v-.2h-.3v-.4l-.3-.1v-.4h-.2v-.1l-.1-.1-.1-.2v-.2h-.2v-.3l-.1-.1-.3-.1v-.3h-.4l-.1-.3h-.8l-.1.3h-1.7v-.5h-.1l-.1-.5v-.3l-.2-.2v-.4l-.2-.2v-.5h-.2v-.1h-.1l-.1-.1-.4-.2-.2-.2v-.2h-.3v-.2h-.2l-.1-.1h-.2v-.3h-.2v-.8h-.2v-.1l-.1-.1h-.2v-.2l-.1-.1h-.2v-.1h-.1l-.1-.2v-.1h-.2v-.1h-.2v-.1l-.2-.1h-.3v-.2l-.1-.1-.2-.1v-.2l-.2-.4v-.6h-.1v-.4h-.1v-.2l-.1-.1-.1-.3-.1-.5-.2-.4-.2-.3-.1-.4-.2-.5-.2-.3-.2-.4v-.3l-.3-.3h-.7l-.5.4v.7l.3.1.1.3h-.1v.2l.4.3v.2l.2.4v.3l.2.1v1l-.3.1h-.1v1.2l-.1.1-.1.2h-.3v.2l-.1.2-.1.2v.3l-.2.1zm5.5 2.7h.2v.2h.2v.1l.2.1v-.7h-.3v-.4h-.1v-.1l.2-.1h.3v.3h.1l.1.2h.3v.2h.2l.2.1.3.1v.3l.2.3.1.1v.5l.2.4v.2h.1v.1l.3.4v.3h.1-.7l-.2-.2-.4-.3h-.2v-.2l-.2-.2h-.2v-.3l-.2-.1-.1-.1v-.1l-.3-.2-.2-.7v-.3h-.3zm2 4.4v-.8l.2-.2h1.2l.6.3.5.1.4.1.3.1.1.2.1.2v.2l-.4.5v.2l-.1.4-.3.6h-1l-.2-.3-.4-.2-.5-.3-.1-.3-.1-.1-.1-.2-.2-.3zm2-1.1v-.2h1.2l.2.3.2.2h.3l.2.4.3.2.1.1v.3h-.3v-.3l-.4-.1-.1-.1v-.1l-.4-.2-.1-.2-.4-.1zm0 0"/><path d="M164.5 242v.4l.2.1v.2h.1v.1h.1v.1l.1.1h.2v.2l.1.2.2.1.3.1h.2l.2.2.2.1h.1l.1.1h.2l.2.2.1.2h.2v.1h.2l.1.2.3.1h.1l.3.2h.1l.3.2.1.1.2.2h.1l.2.2h.1v.1h.2l.4.2.3.2h.2l.1.3h.1v.1h.3v.3h.2v.3l-.2.1v.1l-.3.2v.1l-.1.3h-.3l-.1.2h-.1v.1h-.1l-.2.1h-.2v.1l-.2.1h-.1v.1h-.1l-.1.1-.1.1v.1l-.2.2v.1l-.1.1v1.4l.3.1v.1l.2.2h.2l.2.1h.4v.2h.2v.1h.3l.1.2.3-.1.1-.1.5-.1.1-.1h.2l.2-.2h.3l.3-.2h.4l.2-.3v-.1l.1-.2v-.5l-.3.1h-.2l-.2.3h-.1l-.3.1h-.3l-.1.3-.2.1h-.2l-.2.2h-.2l-.2.2h-.3l-.2-.2-.1-.2v-.2h-.2l-.1-.2-.2-.1-.2-.4v-.4l.2-.5.5-.2.2-.1.2-.2h.4l.2-.3.3-.2h-.2v-.9h.3v-.4l-.2-.4-.1-.1-.1-.2-.2-.1-.3-.2h-.1l-.2-.3-.2-.1h-.2l-.2-.1v-.2h-.4l-.1-.1-.4-.3-.2-.1v-.1h.3l.2-.1v-.3h-.4v-.3l-.2-.1h-.1v-.2h-.3l-.1-.1-.3-.3h-.8l-.4-.2h-.3l-.3-.4v-.5l.5-.1h.5l.6.1h.2l.3.1h.2l.1.2h.6l.2-.2h.1l.2-.2h.2v-.1h.2l.1-.3h.1l.1-.1.2-.1.2-.2.2-.1h.1l.2-.2.2-.1v-.3h.2v-.2l.2-.1.1-.2.1-.4v-.6l.4-.3v-.5l.4-1 .2-.6.1-.3.2-.3.2-.3v-.3l-.4-.6h-.1v-.2h-.2v-.1h-.1v-.2h-.1v-.4h-.1l-.1-.7v-.4l-.2-.2v-.6l-.1-.2-.1-.2-.1-.4-.1-.2-.1-.3v-.5h-1.4l.6 1.5v.3l.2.1.2.5v.3l.2.2v.1l.1.2v.1l.1.4.2.4v.2l.2.4v.3l.3.1v1.6l-.3.7-.3.5-.1.2-.2.2-.1.2-.3.3-.1.2-.2.2v.1l-.1.1-.1.1-.1.2-.3.3-.2.2-.1.1-.4.3-.4.2-.2.1h-.1l-.2.3h-.6l-.4-.3-.7-.3h-.5l-.3-.3h-.2l-.4.4v.1l-.1.1v.1h-.3l-.2.1v.2h-.1v.2l-.2.1v.2zm.5-.3v-.2h.2l.2-.5.4-.1v-.1l.4-.2h.1l.3.3h.3l.4.2.3.2.4.1v.2h-2v.1h-.1l-.1.1-.1.2v.6h-.6l-.1-.4zm.6 1.1v-.2h.2v.4l-.1-.2zm1 .6h.2v-.1h.4l.1.3.2.1v.2h-.1v.3h.2v.1h-.3l-.1-.3-.2-.2v-.2h-.3v-.2zm1.1.1h.3v.4l-.1-.2-.1-.1v-.1zm1.5 6.6v.3l.1.3.2.3h-.3l-.2-.3v-.2zm-.2-8.7l.4-.1v-.3h.1l.1-.1.1-.1h.1v-.2h.2l.1-.2.3-.1.2-.3.3-.2.1-.2h.1v-.2h.3-.1l.3-.2v.4l-.3.4v.1h-.2v.2l-.1.1-.4.2-.4.4h-.2v.2h-.2l-.3.2h-.2zm44.3 9v.4l1.5 2.6.2.3.5.3.7.4.4.2.4.1v-.4h.3l.1.2h.6l.3-.2.3-.2.5-.6.1-.1v-.5l-.2-.4-.2-.3h.1V251h.1l.2-.6-.2-.1.2-.5v-.3l-.5-.4-.2-.3h-.5l-.5-.2h-.5l-.4-.1h-.6l-.3.2-.5.3-.3.2h-.4l-.1.2-.7.4-.2.3zm-37.1-41.6l.3.4h.2l1.5 1h.3l.2.2.1.1h.4v.1l-.3.1-.2-.1-.1.1v.3l.5.5h.1v-.2l.5-.4h.3l.1.1h.2v-.1h-.2v-.3h.2v-.2l.3-.2h.3l.4-.4-.1-.3.2-.1v-.4l.3-.6.3-.3.3-.1.5-.6.4-.1.9-1 .3-.7h.4l-.3-.2v-.2l-.1-.4-.5-.2-.5.2h-.4l-.1.2h-.3l-.2.4-.1-.2h-.4l-.3.1h-.3l-.3.2h-.3l-.5.3-.6.1-.5.5-.2-.2h-.2v.3h.1l-.5.5h-.3v-.2l.6-.3h-.5l-.5.5h.4l-.4.2h-.2l-.4.2-.7.8zm4.2.2l.2-.2v-.2h.4v.4h-.4zm25.1-7.2l.2.4v.5l.3.4.2.9.5.7.4.3.5.3h.8l.1-.3h.8l.3-.4 1.5-.4.2-.2h.5l.2-.3h.3l.3-.5.2-.5v-.6l.2-.2-.2-.2h-.2v.3h-.6v-.3h-.8l-.4.3-1-.6-.4-.6-.4-.2-.5-.3v-.5l-.3-.3-.5.2-1.2.7-1 .9zM157.2 234l.3.2v.2l.2.1v.1h-.1v.1h.2v.1h.4v-.2.3h.3l.1.3.4.4.2.2v.2l-.2.1h.3v-.3h.7v-.2h.2v-.4h.1v-.2h.1v-.2h.3v-.1h.3v-.1h.3l.2.2h.5v.4-.2l.2.3v.4l-.4-.5h-.2l-.2.2v.1l.2.1.2.1v.3h.2v-.1h.4l.1.1h-.3v.4h-.2.4v.4h-.7v-.6h-.1v-.2h-.2v-.1h-.2l-.2-.4v-.1h-.4v.6h.3v.4h.5v.1l.3.1v.1h-.4v.5h-.1.5v-.2h-.2v-.2h.6l.2-.1h.2l.2-.1v-.3h-.3v-.3h.1l.3.4h.2v.1h-.1l.1.2v.3l.3.1h.1l.2-.2v-.2.3h.3v-.2l-.4-.3h-.1v.5-.2h-.2v-.4l.2-.1h.6v.4l.3.1h.2v-.6h-.4v-.2h-.1l-.1.3h-.2.3v-.5h.1l.2.2h.3v-.4l-.3-.1.2-.2v-.3l-.2-.1v-.1l-.2-.3h-.1v.4h-.2v-.2l-.1-.2h-.4v-.2h.5v-.1l-.3-.1v-.3h-.1l-.2-.2-.1.2h-.2l.1-.1v-.4l-.2-.1v-.2h.2v.3h.4v.1l.1.1v.2h.2l.1.2.1.3h-.1v.2-.3h.4l.1.5.2.1h.3v.1h.1v.2h.1v-.2l.3.1h.1v-.4h-.2v-.2h-.2v-.1l-.1-.2-.2-.2h-.1v-.4l-.1-.1v-.1l-.2-.2h-.1v-.1h-.2v-.1h-.4v.2h-.1l-.2.1v.2l-.2-.2-.1-.2v-.3h-.3v.3h-.3l.1-.5h.5l-.3-.1v-.1h-.1l-.2-.4h-.1l-.1-.1h-.4v-.1h-.2l.2.4v-.2h-.2v-.2h-.1v.4h-.1v-.2h-.1v-.1l.2-.2h-.3l-.2.1.2-.1-.2-.2-.2.3v-.3l-.2.3.4.1.1.1v.2h.2v-.2h.2v.2l-.4.2-.1.2v.1h.3l-.3.4h-.1l-.3.1v.3h-.3v.1h-.3l-.1-.1h-.4v-.1h.3v-.2l.1-.1v-.2h.4v.1h.5v-.3h.2v-.3h-.3v-.2h-.3v.2l-.2.1v.1h-.4v-.3h-.1v-.3l.3-.1v-.1h-.7v-.4h-.3v.4h-.1v-.4h.3l.1-.2v-.3l-.3-.2v-.1l-.2-.2.3-.1h-.1l-.3-.1h-.4v.1h.7v.3h-.5v.2h-.2v.1l.1-.1h.2l.2.2v.2h.2v.4h-.6v.1h.5l-.3.2h-.2l-.2.3v.6h-.2v.7l-.1.3.3-.2v-.7h.1v-.3l.2.3.1.2.1.1.3.2v.3h-.4l-.1.1h-.1l-.1.3h-.1l-.2.1v.2l.3-.1h.2l.2-.3h.4l.1-.3h.2l.1-.2h.3v.4h-.5v.2h-.3l-.2.1-.1.1-.2.3v-.1h-.4v.2h-.1l-.1-.3v-.1h-.7v-.4zm2-.7h.2-.3zm1.8-.3v-.3h.1l.2-.1v-.2h.4v-.3h.1l.4.2v.2-.5h.1v.5h.2v.2h-.3l-.2-.3h-.3l-.2.1zm.3-.8h.1zm1.3 2.2v-.1l.1-.3h.3v.3h.3-.7zm0-2v-.1.2zm.8 2.4v-.1l.2.3h-.2zm0 1h.2v.2h.1v.4h-.2v-.6zm.1-.2l.2-.1v.2zm.2-.6v-.2h.2v.5-.3h-.3zm-.1.5v-.1h.3v.2h-.3zm.4-1.5h.4zm0 1.1h.2v.2zm.6-.9h.2zm-9.4 43.1v.3l.3.2v.1l.1.2v.1l.2.1v.2h.2v.2h.4l.2.1h.4l.1-.3h.2l.1-.1h.2l.1-.1h.3v-.1l.1-.2h.2l.2-.1.3-.1.2-.1.4-.1.2-.1v-.1l.3-.1v-.3l.1-.2v-.1h1l.2.3h.2l.3.2h.3l.2.3h.2l.1.1h.5v.1l.2.2.1-.3v-.1l-.3-.3v-.1l-.2-.1-.1-.1h-.1v-.2l-.2-.1h-.5l-.2-.2h-.3l-.2-.1h-.2v-.1h-.4v-.1h-.5v.3h-.1l-.4.1h-.2l-.1.1h-.1v.2h-.2l-.3.1-.2.1h-.1l-.1.3h-.2v.1h-.1v.2l-.1.1h-.2v.2l-.1.1h-.1l-.2.2h-.3l-.2.1h-.6l-.2-.2-.1-.1-.1-.2v-.1l-.2-.2v-.4l.4-.3.1-.3v-.1l.3-.1.4-.3v-.1h.2l.1-.2.5-.1h.1l.3-.2.4-.1.3-.3.2-.1v-.1h.1l.2-.6v-.4h.2v-.2l-.3-.1v-.3h-.1v-1.1l-.2-.3-.1-.4v-.1l-.2-.1-.1-.1-.1-.3-.1-.2v-.3l-.2-.3v-.4l-.1-.3v-.9l.1-.2.2-.2v-.1h.2l.3-.3.4-.1h.3l.4-.3.9-.1v-.1l.5-.1h1.5l.2-.2h.1l.1-.2h.1l.2-.4.1-.1v-.2l.3-.3v-.9l.1-.3v-.6l-.4-.1v-.3l-.2-.5v-.2l-.1-.1h-.2v-.5l-.2-.4v-.3l-.1-.3v-.4l.3-.6v-.5l.2-.5h.3v-.3l-.2-.4v-.2l-.2-.1-.1-.3v-.2h-.3l-.1-.3-.2-.1h-.1l-.4-.4-.5.9.6.2.3.1.1.1h.1v.3l.2.3v.7l-.4.2-.2.6v.2l-.1.1-.1.2-.2.4v.2l.2.2.1.1.1.2v.2l.1.1.2.3v.2l.2.3v.2h.2l.2.5v1l.2.4v.6l-.4.3v.2l-.2.1-.7.3h-1.3l-.4-.4h-1l-.2.3h-.2l-.2.1h-.3l-.1.1-.2.2-.2.3h-.2v.2h-.2v1.2l-.2.3v.8h.3v.8h.1v.3l.1.1.1.3.1.2.1.2v.8l.3.3v.2l.1.1v.2l.2.2v1.6h-.4l-.1.2-.1.2h-.2l-.6.2h-.5l-.4.3h-.3v.1l-.2.2-.1.2v.1l-.2.2-.1.1v.2l-.1.2v.2zm.8-1.3l.3-.3zm2-8.6l.3-.3v-.2h.1l.2-.3h.2l.2-.1h1.5v.2l-.3.1h-.2v.2h-.5l-.2.2h-.2l-.1.1h-.3v.2l-.5.1h-.2zm.3 10.1l.1-.2.2-.1v-.1l.1-.1h.3v-.2l.2-.1v-.2h.4v.5h-.5v.3h-.1.4v-.3h.1v.4h-.8v.2h-.3l-.1.1zm3.1-.8l.4.1.2.2v.2l-.2-.2h-.1v-.2zm.8 0h.3zm0 .3h.3l.1.4h-.1l-.3-.3zm-15-46.6v.1l.3.2v.3h.5v.2l.3.2h.1l.3.1.1.2h.2l.2.3h.4v-.3h.3l.1-.3h.3l.1-.1h.2l.1-.3h.3v.5l-.2.1v.1h-.1v.3l.1-.3v.3h.2v.2l.3.1v.3h.2v.6h-.5v-.2.6h-.3v.1h.2l.3-.3h.1v-.2h.1v.3h.1v-.3h.1v.3l.3.1.1.2h.2l.2-.2v.3h.2v.1h.1v-.4l-.2-.2h.2v-.4h.3v.4h-.2v.6h.2v-.1h.1v-.2h.2v-.3l.2-.1h.3v-.3h.2v.2h.2v.1h.3v-.1h.2v-.6l-.1-.1h-.1v-.2h-.7v.3h-.3v.3h-.2v-.4l.2-.1h.1v-.1l.2-.2v-.1l.2-.1v-.4h.4v-.2h-.4v-.6h-.4v-.1h-.2v-.1l-.1-.2h.3v-.1h-.3v-.8h-.2v.8h-.3v-.2l-.3-.1h-.3v-.6l-.2-.1v-.2l-.3-.1v.1l.3.2v.3l-.2-.2v-.1h-.2v.2h-.3v-.3h-.2v-.1h-.3v-.2h.2v-.2h-.4v.4h-.1v-.3h-.2v.3l-.1-.3h-.1v-.5h-.1v.4h-.4l-.1-.2h-.5l-.2.2-.2.2h-.1v.2h-.2l-.3.2v.2l-.2.2-.1.1-.2.2v.3h-.3zm6.2 2.7v-.1h.3-.2zm.6 0v-.1l.2-.1h.2v.1l-.2.2zm.1-.1"/><path d="M172.7 257.4v.4l.3.2.1.3h.1l.1.1h.1l.3.1h.3l.2-.3h.3l.2.3v1.2h.2v.2l.1.1h.6l.2-.3v-.7h.2v.2h.2v.3l.3.3.1.2.4.3v.2h.2l.2.3h1.2l.2-.3.6-.2h-.4v-.3h.6l.4.2.4.3.3.4.4.4v.1l.3.2.2.4.2.3h.2v.3l.4-.2.1-.1-.1-1.5v-1.2l-.2-.3v-1.2l.3-.3v-.2l.2-.4v-.7l-.2-.4-.2-.2v-.3l-.3-.3-.2-.4-.2-.2h-.1l-.3-.3h-.2l-.8-.4h-1l-.2.2-.4.8-.1 1-.3.4-.4.2-.3-.1-.5-.2h-.2l-.3-.3-.2-.1-.2-.2-.1-.3v-.4h.5l.1-.3h.1l.1-.2h.2v-.3l.3-.4v-1.4l-.3-.2v-.2h-.1l-.1-.5v-.8l-.3-.1v-.1l-.2-.1v-.1l-.3-.1-.5-.2h-.2l-.5-.2h-1.5v.7h.4l.1-.4h.8l.3.4h.1l.4.2.2.2v.2h.2v.3l.2.4.2.2h.3v.6h-.3v.4h-.1v.3h-.1v.3l-.3.3-.1.1-.2.3v1.3l.1.2.1.2v.1l.3.2.1.3.3.1.5.2h1.5l.1-.2v-.1h.2l.2-.3.7-.3h.5v.4l.1.3.1.3v.8l-.2.2-.2.3h-.2l-.2.1H177l-.3.1v.1l-.3.1h-.4l-.3.2v.1h-.1v.3h-.2v.4h-.2v.2h-.2l-.1-.3v-.9l-.1-.3-.2-.2h-.3l-.1-.2H173v-1.1h.2v-.3h.3v-.1h.1l.2-.1.4-.4.2-.2.2-.2v-.6h-.1v-.2l-.3-.1v-.1h-1v.3l.2-.1h.2l.1-.2h.5v.4h.3v.6h-.2l-.2.3-.3.1-.1.2-.2.2h-.1l-.2.3h-.2v.1l-.3.2v.2zm2.9-7h.4l.3.2h.2l.2.3v.2h-.2l-.2-.3h-.1l-.2-.1-.3-.2zm.8 3.3v-.7h.1v-.8.2l.3.2v.7h.2v.3h-.3l-.2.2zm.3 5.6v-.3h.2l.3-.5 2.2.2.2-.1.2-.1.2-.1.3-.1v-.3l.2-.3v-1.1l-.2-.4-.1-.3-.3-.2h-.6l-.3-.2v-1h.2l.2-.3h.6l.2.4.1.2h.1v.2h.3v.3l.1.2.2.5.1.3v.7l.2.2h.1l.2.3.3.2v.7l.1.5h-.2v1.2l.2.5.1.2.1 1.2h-.5v-.4l-.3-.4-.2-.2-.2-.2v-.2h-.3v-.3h-.2l-.1-.1-.1-.2h-.3l-.1-.2h-.7l-.7.5h-.2l-.1.2-.2.1h-.3l-.3-.2v-.2l-.2-.1-.2-.3h-.1v-.2h-.3v-.3zm4-4.3l.4-.4.3.2.4.4.2.2v.2l.1.4.3.2.2.5-.1.3v.6l-.1.2h-.2l-.2-.4v-.3l-.3-.5-.3-.5v-.1l-.4-.5zm-1.2-20l.2.3h.3v.5h.3v.6l.1.2.3.1.3.1.1.3v.2l.3.2v.2l.2-.1-.2-.6v-.1l.2-.2.1-.1.4-.3h.3v.2h.4v-.3l.2-.2.5.4h.1v-.2h.4l.2-.2.3-.4.2-.1v-.3l.2-.1-.2-.2-.2-.4h-.3v-.4l-.2-.3v-.2h-.2l-.1-.5h-.1l-.2-.1h-.2v-.3h.2l.2-.1v-.3l.2-.1v-.1l-.3-.3.5.2v.4h.2v-.3l.2-.1-.8-.8h-.2l-.2.2v-.2l.2-.2-.2-.3-.1.3-.2.1.2.1v.1l.3.4h-.1l-.3-.1h-.2l-.1.3h-.3l-.4-.2.2-.1.2-.3.2-.3v-.2l-.1-.2-.3-.3h-.2v.3l-.2.2v.1l-.1.2v.2l-.2.1h-.1l-.2.2v.4l.3.2-.4.3h-.2l-.2.2h-.1v.3l-.1.1-.5.3v.3h-.1l-.2.5-.1.1h.4v.4zm2.5-2l.2-.2h.1l.1.2h.2l.1-.2h.1v.2l-.4.3zm1 .8v-.2.2l.1.1v.2zm.2-.2v.2zm-24.4 61.2l.2.2v.2l.2.2v.2l.1.1.1.3h.1l.1.1h.4-.3v-.3l.3-.2h.6l.4.2.2.2.1.2.1.1v.1l.2.1v.7l-.3.6v1.2h.2l.1.4.4.2h.5l.1-.4h.3l.1-.2.2-.2.3-.2v-.5h.3l.2-.1h.5v.1l.2.1v.3l-.2.3v.2h-.2v.1l-.1.2h-.2v1l.2.2.2.3v.1h.3v.1h.6l.2-.4h.1l.1-.2h.1v-.2h.2v-1l-.5-.4v-.4l.2-.1.1-.1h.2v-.2h.5v1l-.1.2v.3l.1.3.1.2h.1l.3.2h.4l.4-.2h.4v.7l.2.1v.3l-.4.2v.2h-.2l-.1.2h-.2v.1l-.3.2v.7h.3l.2.2.1.1h.7v-.4h.2v-.1l.2-.1.1-.2v-.1l.2-.1h.3v.2h.2l.3.1v.2h.2l.1.1v-.2h-.2.2l.2.2v.3l.1.1v.2l.1.2.1.1v.2l.2.1v.3h.2v.3l.2.1v.6h.5l.2.4h.1l.1.2.4.1.3.2.2.3.4.1v-.2l-.8-.5-.4-.5v-.2l-.4-.3v-.2h-.3l-.1-.2h-.1v-.2l-.3-.1-.1-.4v-.2l.2-.2-.1-.2v-.2l-.2-.2-.1-.2h-.1l-.1-.3h-.4v-.1h-.6l-.2-.2v-.1h-.4l-.1.2h-.1v.1h-.3v.2l-.1.2-.1.1v.2h-.2v.1h-.7v-.3h-.1v-.5h.1l.1-.2h.4v-.2h.2v-.3l.3-.1v-1.3l-.4-.1h-.5l-.3.2h-.5l-.1-.2-.1-.3v-.6l.3-.3v-.3l-.2-.3h-.3v-.1h-.8v.3h-.2v1l.3.1v.3l.1.2v.5l-.3.2h-.2l-.3.2h-.5l-.2-.6.1-.5.2-.4.1-.2v-.4l.2-.1v-.4l-.2-.1-.1-.1-.2-.1h-.7l-.1.2-.1.1-.2.3h-.1l-.2.3-.2.2v.1h-.3l-.1.3h-.5v-.3l-.2-.1V297l.3-.1v-.2l-.3-.1v-.3l-.1-.2-.3-.1-.1-.2-.2-.2-.3-.1-.4-.1h-.3l-.2-.1h-.4l-.1-.3h-.3v-.7l.4-.1v-.2h.7l.7.3h.8l.4-.1.4-.2h.1v-.2h.2v-.1l.3-.2v-.2l.2-.2v-.9l-.4-.2h-.1v-.2h-.2v-.2l-.2-.1-.1-.2-.3-.2-.1-.3-.2-.1v-.5l.1-.2h.1v-.2h.2v.5l.3.2.1.2h.4l.2-.4.3-.2.3-.4v-.7l-.3-.3-.1-.2h-.2l-.2-.2V287h.2l.2-.1h.2l.1-.1.2-.2.1-.3.2-.1v-1.6l-.2-.1v-.3l-.2-.2v-.3h.4l.2-.1.1-.2.1-.2.1-.1v-.5l.3-.6v-.2h.1v.5h.1v.1h.2l.4-.3v-1h-.4l-.1-.1h-.4l-.1-.2h-.2l-.2-.1h-.9l-.3-.2-.2-.3v-.2h.2l.1-.2h.1v-.1l.3-.2v-.5h.1l.4.5h.3l.4.3h.2l.1.2v.1l.1.1.1.1.1.1.3.1h.4l.3-.2h.2l.1-.3v-.1l.2-.1v-.2l.1-.2v-.2l-.3-.2v-.1l-.1-.2-.2-.3h-.2l-.2-.1-.5-.3h-.6l-.6-.2h-.6l-.3-.2-.1.4h.3l.4.4h.1l.4.1h.9l.4.2h.2l.3.2v.1h.3v1.1l-.5.1h-.1l-.3-.1-.3-.2-.2-.2-.1-.1-.3-.2v-.1l-.4-.1-.4-.2h-.6l-.1.3h-.2v.2l-.1.1v.2l-.1.2v.6l.2.3.2.1h.1l.2.2h.4l.2-.2.2.1.1.3.1.2v.4l-.1.2h-.1l-.1.2h-.2l-.1.2v.4h.3-.2v.2h-.1l-.1.2h-.1l-.1.1v.1l-.2.4v.9h.3v.4l.1.1v.2h.1v.6l-.4.1-.1.2h-.2l-.2.3h-.2v.2h-.2l-.2.3-.1.2-.2.1v.5-.1h.3l.2-.2v.7l-.2.2h-.1l-.1.3h-.2.3l-.3.1v.1l-.2.1h-.1v.1l-.3.3v.3h-.1v.2h-.3v.8l.4.2v.1l.1.3h.3l.2.1.2.1.5.4.1.3v.7l-.2.3-.4.3h-.1l-.3.2h-.6l-.1-.1h-.5l-.6-.3h-.6l-.2.4h-.1l-.2.2v.4zm2.6 3.5v-.3l.1-.1h.2l.1.3v.4l-.2.1-.1-.1v-.2zm.6-8.8v-.2l.3-.3h.2v-.2l.2-.1v-.1h.3l.2.1.1.3h.1l.1.2v.5l-.3.2-.2.3-.1.1-.2.2h-.3v-.2l-.2-.1v-.4zm.2-1.8v-.2h.2v.2zm1.8-5v-.2.1h-.1zm0 0v-.2h.1zm0 .5v-.2h.2v-.2h.2v.5h-.4zm0 16.5l.2-.2.1-.2.2-.1v.3l-.3.1v.2h-.2zm.8-18.2l.2-.1v-.1.4h-.2zm.2.5v-.5h.2v-.4h.1l.1.4h.1v.5l-.3.2h-.2v-.4zm3.1 21h.2v-.2h.1v.2zm2.3-.7h.3v.3h.1v.9h-.2v-.3l-.1-.2v-.3h-.1zm1 2.5v-.3h.2l.1.2h.1l.2.2v.3h.2v.2h.1v.1h-.3v-.3h-.2v-.1l-.1-.1h-.1zm-29.7-60.3v.5h.2v.5h.1v.2h.1v.2l.2.1v.2h.2v.3h.1v.1h.1v.1h.1v.1h.1v.1h.1v.1h.4l.1-.2v-.1h.1v-.2h.4v-.1h.9l.5-.1h2.1l.3.6v.1l.1.2v.4l-.2.5v.6h.2v.1l.1.3.3.2.2.3h.1v2.4l-.3.3v.4h-.1l-.4.3-.2.3h-.1l-.3.1-.2.2h-.2l-.5.2-.1.2h-.2v.2h-.2v.2h-.2v.1l-.3.2-.1.3h-.2v.2l-.2.2-.1.2v.2h-.2v.6l-.1.2v.1l-.1.1v.2l-.1.1v.7l.2.2v.2l.3.2h.1v.3h.3v.2h.8l.4-.5.3-.1.4-.1h.2l.3-.2h.2l.2-.2h.2l.3-.1.4-.2.2-.1h.2l.1-.3.5-.3.2-.2.4-.2h.1l.1-.3h.2l.2-.2h.3l.3-.2h.3v.3l.2.1v.2l.2.3v.2l-.3.2v1.3l.4.2.2.2h.2l.1.1.3-.2h.8l.5.3h.5l.5.1h.5l.1.3.2.2h.1l.1.3h.1l.4.3.4.3h.2l.3.2h1l.5.1h.3l.3-.3.2-.2.2-.2v-.2l.3-.2v-.3l-.3-.1v-.8l.3-.1v-.1l.1-.2h.1l.2-.1.1-.1v-.1l.2-.1-.3-.1v.2h-.1l-.1.2-.2.1h-.1v.3l-.2.1v.5l-.1.1v.4h-.1v.3h-.1l-.1.3-.1.3h-.1l-.3.3h-.5l-.5-.3h-.5l-.4-.1h-.3l-.3-.3-.2-.2-.1-.1-.1-.1-.2-.2v-.1l-.3-.2h-.2l-.3-.2-.7-.2h-.4l-.4-.2-.7-.1h-.4l-.2.2h-.3l-.1-.2V256h-.3v-.3h-.1v-.1h-.5v-.1h-.5l-.2.3-.3.2-.1.2-.7.3-.4.3h-.1v.2h-.2v.3h-.2l-.1.2h-.6l-.1.2h-.1l-.1.1h-.2v-.3h-.2l-.2.3h-.2v.1h-.2v.1h-.2l.1.1h-.4l-.1.1h-.2l-.1.3h-.1l-.2.1h-.1l-.1.1h-.1l-.1-.3h-.2v-.2h-.2v-.2h-.2v-.3h-.1v-.9l.2-.1.1-.3v-.3l.2-.1v-.1l.1-.4.2-.2h.1l.1-.3h.2l.1-.2.2-.2.1-.2h.3l.1-.3h.5v-.1h.2v-.3h.2l.3-.1h.3v-.2h.2l.2-.2.1-.2.2-.3.1-.3.2-.4v-1.2l-.1-.3h.1v-.2h.4v-1.2h-.2l-.2-.3-.3-.1v-.1l-.2-.1v-.2h.4l.1-.2h.3v-.1l.2-.2v-1h-.3v-.2h-.1v-.1h-.1l-.1-.2h-.2v-.1h-.1v-.1h-.1v-.1h-.1v-.2h-.3v-.1h-.1v-.1h-.2l-.2-.2h-.1v.2h-.5v.2h-1.5l-.3.2H143v-.3h-.2v-.3h-.2v-1l.1-.1h.1l.2-.1-.6-.3-.7-.4v.1l.2.1v.6zm6.3 3.9v-.4h.3v.4zm12 11.8v-.2h.2v-.3h.1v-.2h.1v-.1h.1v.3h.1v.2h-.3v.1h-.2v.3h-.1zm.4-.7h.2v.2-.3zm0 0"/><path d="M173.5 271v.2l.2.2.4.3.1.1h.2v-.2h.4l.2.3.2.1h.3l.2-.3v-.1h.1l.2.3h.3l.1.3h.1l.2.1v.1h1l.2-.4h.5v.7l.3.3v.4l.2.6.2.2h.6l.1-.2h.2v-.2l-.2-.3h.5l.4.2.7.1h.4l.1.2h.2l.3.1h1.2v.2l.1.1.3.4v.2l.3.3.3.3v.2l.3.3.1.2.2.2.2.1.1.1v.3h.3l.5.2v-.3l.4.2.1.2.1.1.1.2v.2l.2.3.1.5.2.4.1.7.1.2.1.4h.2v-.5.1l.2.2v.1l.1.1v.2l.1.2.4.2.3.1.3.1h.3l.1.3v.7l-.2.6v.3l.2.2v.1l.2.2v.2h.2l.2-.2h.1l.5-.2h.2v-.3h1l-1-.2-.3.2-.4.2-.5-.2v-1l.3-.2v-.3l-.3-.5h-.1l-1-.7h-.2l-.3-.3-.2-.1-.2-.1v-.3l-.2-.3v-.2h-.1v-.3h-.2v-.5h.2v.3l.3.2v-.2h.3v-.1l-.3-.4-.2-.1v-.1l-.2-.2v-.1l-.4-.2v-.1h-.2v-.2l-.3-.1-.3-.2h-.1v-.3h-.3v-.1h-.6l-.1-.1-.1-.2h-.2v-.3l-.2-.4v-.3h.2v-.4h-.1v-.1h-.3v-.5h-.2v-.2h-.1l-.7-.5h-.1l-.5.5-.3-.1v.1h-.5l-.5-.3h-.2.5-.3v-.5h.6l.4-.2h.3v-.2h-.5l-.2.4h-.5l-.3.1h-.5v.3h-1.5l-.5-.2-.3-.4v-.5h.3v.2-.3h.1l.4-.4.2-.2.3-.3v-.9l-.3-.2-.2-.2-.3-.1h-.7l-.3.1-.2.4h-.3l-.2.4v.2h-.2l-.1.3-.2.1-.2.2h-.8v-.3l-1.1-.3-.5-.2h-.1l-.2-.2-.1-.1v-.2.1h.4v-.1l.2-.1h.1v-.2l.3-.2.1-.1.3-.2h.1l.2-.3h1.3l.2.3v.1h.1l.5-.2h.4l.2-.2.2-.2.5-.4.2-.2.3-.4.2-1v-1l-.3-1 .1-.7.4-.3.5-.3.8-.4.4-.3.3-.5v-.1l-.3-.1-.1-.3v.3l-.3.4-.6.3-.4.3-.5.3-.5.5-.3 1v.9l.2.3v.7l-.2 1-.3.6-.3.1-.4.3h-1.1l-.2-.2h-1.2l-.3.4-.2.2h-.2l-.1.1-.2.3h-.1l-.2.1-.2.1-.2.1-.2.4-.1.4zm.3 0h.6v.2h-.4zm1 .3l.6.3v.1l-.2.1-.2-.1-.1-.2v-.1zm1.6.6h.5l.1-.3h.3l.2-.3.1-.2v-.1h.2v-.3l.2-.2.2-.2.2-.2h.1l.2-.1h.3l.4.2.1.2v.6l-.1.2h.2l-.2.2-.3.3-.3.3h-.2v-.2h-.9v.2h-.4l-.2.3h-.3l-.1-.3h-.1zm2.4 1.6v-.1h.2l.2.2h.2l.1.3.1.1h-.4l-.1-.1-.1-.1v-.2zm.2-1.5v-.1l.2-.1.2-.1-.2.3zm.6-1v-.3h.1v.3zm1.8 2.2v.3zm1.9.6h.5l.2.2.2.3.2.5v.3h-.2v-.2l-.4-.4v-.2l-.3-.3h-.1zm.2-.1l.3-.2h.1zm1 .7l.2.1.3.3h-.3l-.1-.2zm2.7 3.3v-.2l.1.2h.3v.3h-.2zm.5.6v-.1h.2v.2zm2.3 5.1l.3.2zm-9.2-43.6l.1.2.1.1.4.4h.2v.4l.4.6.2.2h.2v-.3l-.4-.6-.1-.2-.1-.2v-.1l-.3-.2.2-.1v-.2h.3v-.3l.5.5v.5-.3h-.2l-.1.2v.3l.1.1v.4h.2v-.4l-.2-.2h.3v.2h.1v-.3h.3v.2l.3.4h.7v.3h.3v.2l-.4.4-.5.2h.3l.1-.1.6-.6h.4l.1.4.2-.2v-.3h-.4v-.2l.5-.3h.2l-.4-.4v-.2h.2l.1-.3-.1-.2h.1l.1-.2h-.2l-.2.1v-.7l-.3-.2.3-.1v-.1h.2l.5.7h.2l.4.3v.2h-.9v.9l-.1.1v.4h.2v-.5l.4-.4h.1l.2-.1v-.1l.3.2v.1l.1.3v.6l-.1.1v.1l.1.1v.6l-.2.3.2-.1.1-.2v-.6h.5l.2.4.5.1v.1h.1l.2-.2.2-.2.1-.3h.4v-.3l-.2-.2-.3-.2-.1-.1h-.3l-.2-.1h-.2l-.2-.3v-.2h.3l.1-.1v-.1l-.1-.2v-.1l.3.2v.4l.2-.2v-.2l-.2-.2-.1-.2h-.1l-.2.1h-.2l-.1-.2-.3-.1-.3-.3-.5-.4-.2.1h-.1v.4h-.1l-.1-.2v-.5.2h.2v-.2l.1-.1v-.2h.2v.1l.3.4v.1l.1.1h.4v.4h.2l.2-.1v-.2l-.3-.1v-.2.3h-.1v-.5l-.1-.2h-.2l-.2-.2h-.4l-.2-.2h-.2l-.5.3-.2-.1v-.1l.3-.2v-.1l.2-.3.1-.1h.2l.2-.4h-.3l-.2.2-.2.2-.1.1v.3l-.4.3-.2.1-.3.3h-.3l-.2.3h-.2.4l.1-.1h.2l.2-.3h.2l.3.4-.4.1v.2h.2l-.1.2v.2-.2l-.3-.3-.1-.2-.3.1v.4h-.4l-.4-.1v-.4l-.4.2-.2-.4-.3-.1-.3.1-.2.2v.1l.2.1v.6h-.4v-.3h-.4v.5l.2.2.2.3h-.1l-.3-.2-.3-.2-.1.2zm.8-.2v-.1.2zm4.4-.4v-.4h.5v.2l-.2.1v.3zm2 2v-.2h.1v.5h.1v.1l-.2-.2zm23.5-26.5l.5 1.2.4.3.6.8.3.4.4.1.2.5.7.6v.3l-.2.4-.1.2h-.2l-.2.3v.3l-.6.4h-.3l.1.2v.1l1-.8 1.4-1.3.1-.5.3-.2v-.2l.2-.2v-.4l-.2-.8v-1.2l-.3-.5-.6-.7-.6-.7h-.7l-1.2.4-.2.3-.3.2zm-11.4 40.9l.3.3.2.3.2.2.2.3h.5l.2.2h.2l.2.1h.3l.2.2.4.2v-.4l-.2-.2-.2-.3-.4-.2-.2-.3v-.4l.3-.2h.4l.3.3.2.2.3.2.3.1.4.1.1.3.1.3-.6.1v.2h.9l.2-.4h.6l.1-.3.4-.2v-.1l-.4-.3-.1-.3-.3-.2h-.2v-.6l.2-.1.1-.3v-.2l-.3-.3v-.6l-.4-.2-.1-.3-.2-.2h-1.2l-.2.2v.6l-.2-.2v-.2l-.1-.4h-.6v.3l.3.3-.4.2-.4.4-.5.2-.2.4h-.3v.2l-.4.4v.3zm11.7-47.6l.3.6.2-.3h.2l-.1-.3h-.4v-.3l.5.3.2-.2.6.2.4-.2v-.3l.2-.3h.3l.2-.2h.1l.3-.3h.3v.1h.5v.2l.1.3-.2.3v.4h-.3l.2.4-.1.1.2.1h.1l-.1.2v.2l-.2.2.1.4v.7l.2.4.5.5.2-.2h.2l.6-.4v-.1l-.5.3-.1-.1v-.4h.5l.3-.7v-.2l-.1-.2.4-.4v-.4l.4-.4.2-.5v-.5l-.7-.8v-.4l-.1-.3-.3-.6-.1-.3-.6-.2-.4.1-.4.1h-.6v.4l.1.2v.5l.4.3v.4h-1.1l-.4.2h-.1l-.5.2h-.4l-1 1.2zm29.6 12.2v.2l.1.2.3.2v.2l.4.4v.1l.1.2.3.5.2.4v.2h.5v-.1l.1-.2v-.3l.2-.2h.4v-.4l.3-.1v-.2h.3l.1-.3h.1v-.2l.3-.5.2-.2v-.6l-.3-.3v-.2l-.2-.2h.3l.1.4v.1h.5v.1h.2v.2h.1v-.2h.1v.3h.5v.6h.3v-.8l.1-.2-.2.1v-.3l-.1.2h-.2l-.1-.1.1-.2v-.2h.2v-.3l.2.3v.2l.1.2v-.4l-.2-.3h-.4v-.1h-.4l-.1.3v.1-.8h-.3.2v-.6h-.2v-.4h-.2v.2-.2l-.4-.3v.3l.2.3v.2h-.2v.5h-.2l.1-.1v-.5l-.1-.2.3.2-.1-.2h-.2v-.3h-.4v-.1l-.2.2v-.2l-.1-.5h-.3v-.2l-.2.3.2.2h.2l-.1.1.1.3h.1v.1l-.1.1h-.1v-.2h-.2l-.2-.1h-.1l-.1-.2h-.1v.5h.2v.2h.2v.3l.1.3h.3l.1.3v.1l.2.1h-.4l-.1-.2h-.5l-.1.3-.2-.2-.3-.2h-.2l-.2.3.1.1h-.2v.2h.2v-.4h.5l.1.2v.1h-.4v-.2h-.1v.2l-.2.3v-.2h-.3l-.2-.2-.3.1v.3l.5.2v.2h-.4l-.1.3v.5zm2.6-2.9l.2-.1.1.2h-.3zm.4.5h.2l.2.2v.3l-.2-.3zm.2-.3l.1-.1v.3zm.2.8h.2v.1h-.3zm.2-.3l.3-.2v.5zm.5 1h.3v.1h.2v.4h-.2l-.2-.4v-.1zm.5 0v-.3l.2-.1h.2v.3h-.2l.1.1h-.4zm-63.6 41.8l.1 1.5h.5l.2-.2.3-.2h.1l.1-.2h.3v-.1l.2-.2.1-.3.3-.3.1-.1.1-.1.2-.1v-.7l-.1-.1.1-.7v-.3l-.3-.5-.2-.1-.2-.2-.3-.2v-.5l-.3.3v-1l.4-.3.2-.2.3-.2h-.2v-.2h.5l.1.3h.1v.3h.4v.4h-.2l.2.4h.1v1.3l.1.5.3.4v.1l.2.2v-.5l-.2-.1-.1-.1-.1-.5v-.3l.2-.3h.1v.3h.4v.2l.1.1.1.1v.1l.3.2v.3h.2v.3l.1.2.2.1.2.4v.3l.3.3.1.4v.1l.2.3v.1l.3.2v.1l.2.2v.2l.2.1v.1h.2v.3h.2v.5h.2l.2.2h.4l.2.3h.2l.2.1v.2h.2l.2.2h.4v.1l.1.1.6.1.7.3v-.3l.4-.1v-.2h.3v-.8l.3-.1h.1l.2-.2v-.5l.3-.1.1-.2v-.4h.1v-.2h.2l.1-.2.3-.1h.7l.2.1h.3l.1.1.1-.2h.2l.1-.4h.1v-.4h.1l.3-.1h.2l.1.2h.2v-.1h-.1l-.4-.2h-.2l-.4.4v.2l-.3.1-.1.1-.3.1-.1-.1h-.3v-.2h.2-.5l-.5.3h-.2l-.2.2-.2.1-.2.3v.1l-.2.5v.1l-.1.1v.2l-.1.1h-.3l-.2.2h-.7l-.1-.2h-.1l-.5-.2v-.2l-.2-.2v-.2h.2v-.5l.2-.1.2.1v-.1l-.2-.4h-.2l-.1-.2h-.6l-.5.3-.1.2-.2.1h-.2l-.3-.2-.3-.3v-.6l-.2-.1v-.2h-.9v-.3l-.1-.1-.1-.2-.4-.1-.2-.2h-.2v-.3h.4l.8-.2v-.1l-.8.2h-.5l-.2-.3-.2-.1-.1-.3-.1-.3-.1-.2v-.1l-.3-.2v-.4l-.1-.2-.1-.1-.1-.4h-.2v-.6h-.3l-.9-.5-.5.3-.1.2-.3.3-.2.3-.2.4v.6l.2.4v.3h.3v.4h.1l.1.2h.1l.3.2.2.4-.1.3h-.3l-.1.1h-.3v.8l-.2.3-.1.3h-.1l-.5.2-.6-.1v-.2zm.2 1v-.4h.4l.3.1v.2l-.3.3h-.3zm.9-.3l.4-.4.5-.5.3-.3.1-.2h.2v.3l-.5.3-.8.9h-.1zm.5-1.5l.1-.2h.2l.1.2v.1l-.3.3v.2h-.1l.1-.3v-.3zm1.4-4.2v-.1l.5.2v.4l-.2-.1v-.2zm.4 1.4l.1.1v-.7.1l.3.6.1.1-.1-.2-.2-.2v-.2l.4.6.1.3v.2l-.2-.2-.3-.2v.2h-.3v-.3zm2 2.6v-.2h.2l.3.2.1.2v.2l.1.1-.1.2v.3h-.3v-.4l-.1-.2v-.1l-.2-.2zm.7 1.2v-.4l.1-.1h.2l.5-.2.3.4v.3l.1.2v.1h.2l.1.3h.1l.1.1h.4l.4-.2v-.2l.4-.2h.4l.3.2h.1v.3h-.2v.4l-.3.1v.1l-.3.3h-.4v-.2h-.3v-.2h-.2v-.1l-.5-.3-.1.3h-.1v.3h-.3v-.1l-.3-.2-.2-.3-.2-.2v-.1l-.4-.2zm1.1 1.7v-.2h.2l.2-.5h.3l.2.7v.3h-.5zm.7.4l.3-.1h.7l.2-.2h.3l.4.2.1.2h-.3l-.2.2h.8l.8.3v.3l-.2.3-.1.2h-.3l-.4-.3h-.4l-.2-.1-.6-.2-.1-.1h-.2l-.1-.2v-.1h.2l.1-.1h-.5l-.2-.1-.1-.1zm.4-.5v-.2h.3v.2h-.2zm0 .3l.5-.2h.2l-.1.3h-.3zm10.5-53.9l1 1v-1l.1-.7h.4v-.1h.3l.5.1.5-.1v.2l.5.6v.7l.2.4h.5l.3.2v-.2l.3-.2-.2-.4.4-.3h-.4v.2h-.3v-.2l.3-.3h-.4l-.2-.2-.1-.4.1-.3h.4l.3.3h.1v.3h-.6v.1l.6-.1.1-.3 1.1.2.3-.2h-.5l-.1-.4.1-.1.2.2h.2l.2-.2h.2v-.5l-.2-.5-.2-.2h-.2l-.5-.2h-.2l-.3-.2v-.2l-.2-.1h-.1v-.4l-.3.3.1.2.1.3.4.2v.5l-.7.3h-.2l-.1.1-.4-.1-.8-.8.2-.7v-.8l-.6.2v-.5h1.1v.1l-.1.2.4.3v.2l.4.1h.4v-.3h-.2l-.7-.8h-.2l-.2-.3v-.2h-.3l-.3-.2h-.4l-.3-.2v.1l.3.5v.5l-.1.2.1.5-.1.6h-.2l-.3.2-.4.3v.5l.2.4-.5.4-.1.5-.3.2v.3h-.4zm-33.4 68.8l.2.3v.5l.4.3v.3l.3.4.2.4.3.3.2.2.4.5h.3l.2.2.1.2h.2l.2-.1.2-.2.4-.3.3-.2.3-.3.3-.3.1-.2.1-.2v-.1l-.1-.2-.1-.2v-.5l-.3-.2-.3-.4-.2-.1-.2-.3-.1-.3h-.5l-.3-.1h-.4l-.2-.2-.3-.2-.2.1-.4.3-.4.2h-.3l-.2.4zm38.7-64.5l.2.4.4.6h.4l.4.7.4.1h.2l.5-.1.1-.2v-.2l.3-.1.8-.8v-.3l-.2-.1v-.4l.3-.4v-.4l-.1-.4-.3-.3v-.1l-.4-.6-.5-.1h-.4l-1 .4-.5.2-.1.2v.8l-.4.5zM10.1-3.5v.2l.2.3.4.1.3.2.3.4v.3l-.2.4.3.2.2-.2h.2l.2.6h-.5l-.2.1v.4l.3.2.3.4h.5l.3-.2v-.4l-.3-.2.3-.2.2-.2h.4l.4.1h.1l.2-.2v-.3l-.1-.1h-.2l-.3-.2h-.2L13-2v-1.4l.1-.1.2-.3v-.5l-.2-.2-.2-.3-.2-.2-.4-.1-.1-.1h-.3l-.3.1-.4.2-.5.3-.3.3-.2.3v.2zm138.8 256.9v.3h.5v.3h.2l.3.1h.1l.1-.3-.1-.2.2-.2v-.4h-.2v-.3h.2l.2-.2h.1l.1.3.2.2h.2v.3l.3.1h-.7v.1l.3.3h.5l.3.2-.2.1h-.1l-.1.3h-.3v.3l.3-.3v.3h.1v-.5h.3v.7l.5.3.1-.2h.1v.4-.3h.1v-.1l.2-.2v.5h.1v-.3h.1v-.2l.1-.1h.4v-.2h.1v.3h.2v-.3h-.2v-.1h.1l.1.2h.3l.2-.4v-.6l-.2-.2-.1-.2h.1v-.2h-.2v-.5h-.2v-.1h-.1v-.4l-.2-.2v-.2h.2l.1.4.2.2v-.4l-.2-.1-.2-.3h-.3l-.1-.2h-.3l.2.2h.1l.3.1v.2h-.7l-.1-.1h-.5l-.3-.1h-.1v.3h.4-.4l-.2.2v.2l-.2.2v.5l.4.1v.7h-.5v-.9l-.1-.3h-.4v-.2h-.1l-.1-.1v-.1h.2v.2h.3v-.2l-.2-.1h-.1v-.4l-.1-.2-.1-.2h.2l.3.1v-.2h.1v-.1h-.3v-.3h-.1v-.1.4h.1-.3v.3h-.2l-.1-.2v.3h-.1v.1l-.1-.2v-.4h-.2v.1l-.2.1v.8l.3.2h.5v.4h-.7v.7h-.7zm.8-.4v-.2h.2v.2zm0-.3v-.2h.3v.2zm2.7 1.9v-.2h.3v.1zm75.3-41.6v.2l.5.4v.2l.1.2.3.4v.3l-.3.2.3.4v.3l.2.4h.7l.2.3.3.3h.2l.1-.1h.7l.3-.3.2-.2.1-.1h.1v-.1l.2-.2v-.4h.1v-.2l.2-.4-.1-.1h-.2v-.5l-.3-.2-.2-.4-.4-.3h-.5l-.1.1h-.6l-.4.2-.2.2h-.2l-.2-.3h-.3l-.4-.7h-.4zm-35.6-17.9l.3.4.3.2h.8v-.4l.4-.3h.1l.3-.2.3-.1.4.3h.3l.2.3h.1l.7-.7h.2l.1-.1v-.2l.1-.1h.4l-.2-.4.1-.2v-.6l-.5-.8h-.2l-.3-.4h-1l-.9.6-.5.6v.4l.4.5v.2l-.4.4v.2l.1.3h-.1l-.4-.3h-.8l-.4.3zm55.1-13.4v.3l.2.1v.2l.1.2.1.3v.2h.4v.4h.2l.1.1.1.1.3.3h.2l.1.1.3.3h.1l.1.1h.5v-.3l.3-.1v-.2h.3v-.7h.3v-.4l-.4-.1v-.2h-.2v-.4l-.2-.1h.2v-.2h.2v-.1h-.2v-.2h-.2v-.2l-.1-.2h-.2v-.2l-.2-.1-.1-.1v-.1l-.1-.1v-.1h-.9l-.3.2-.2.2h-.6v.1h-.1v.2l-.2.2v.3zm1.3-.1h.2v-.2.2zm-140.3 70.9v.1l.1.1v.2h.4v.1l.2.3h.4v.4h.1v.3h.1v.2l.2.2v.2l.1.2.2.2h.1l.3-.4h.3v-.1h.1l.2-.1v-.1l.2-.1v-.1h.2v-.1l.2-.1.4-.4v-.5h.2v-.2h-.2v-.1l-.2-.3-.1-.1v-.3l-.2-.2h-.2v-.1h-.2v-.2h-.1v-.2h-.3v-.3h-.1v-.2h-.2l-.1.2h-.7v.3h-.2l-.1.1-.3.1h-.2v1.1l-.2.2h-.1l-.2-.3v-.1h-.1zm15.4-4.5h.2v.3l.1.2h.2l.2.1.3.2h-.3v.3h-.3l.3.3.1.2v.2h-.3v-.3h-.3v.2h.3l.2.2h.3v-.4l.3-.2.1-.1h.4v.2h.2v.2h.2v.1h.2v-.3l-.1-.1h.4v.1l.1.2h.3v.1h.3v.1h-.4v.2h.6l.1-.2v.2h.2v.2h.2v.1h.4l.2-.3h.2v.2l.2.1.1.2.2.2h1.2l.1.3h.2v-.4h.3v-.2h-.3l-.3-.2-.2-.2h.2v-.1h.3v-.4.3h-.5v-.4l-.1-.1-.2-.3h-.2l-.3-.1v-.1H128v-.2h-.3v-.2h-.4v-.2h-.7l-.1.4h-.5v.2l-.2-.2v.6l-.1-.2v-.4l.3-.2v-.1h.2-.2v-.2h-.2v-.1.4h-.2v-.5h-.6v.1h-.2v.3-.3h-.1v-.1l-.1-.2h.4v-.4.3h-.3v-.4h-.2v-.1h-.5v.6h.2v.1l.1.2h.3v.1h.1v.3h-.1l-.2.2-.1-.2h-.2v-.2h-.1v-.1h.2l-.2-.1h-.3zm1 .5h.2v.2zm.2.1h.2v-.1.1h.2l.1.1v-.3h.3l-.2.2v.4l-.2.2-.2-.4-.3-.1zm.2-.2h.3zm.5.8h.2zm0-.3h.3v.2l.1.1h-.3v-.2h-.1zm.8.3v-.1.3zm-10.3 1.9v.5l.4.1v.1h.2v.2h.4v.2l.1.2h.1v.2h.3l.3.2.1.2h.1v.2h.2l.1.2h.3v.1h.1l.1.1h.2l.2-.3.1-.3.5-.2.2-.3v-.8h-.3v-.1l-.3-.1h-.1v-.3h-.3v-.2h-.3v-.4h-.2v-.2l-.1-.1v-.1l-.4-.3-.1-.2-.1-.3v-.3h-.2v.3h-.3l-.1.3h-.2l-.1.1-.3.2h-.1v.3h-.1l-.2.2v.2h-.2v.3zm123.4 1.1l.1.1v.2l.3.4.1.3.4.4.1.2.2.4h.4v-.4l.1-.2h.1v.4h.3l.2.4v.2l.3.5.1.4v.1h.7v-.7l-.3-.2v-.3l.6-.3.2-.4.1-.3v-.3l-.3-.3-.7-.8h-.1l-.3-.2-.3-.1-.1-.1h-.4l-.4-.4h-.5l-.5.7h-.1l-.3.2zM172.8 231l.2.2v-.2h.2v-.2h.2v1.2h.2v.4h.1v.2-.9h-.3v-.2h.3v-.1h.1v1.2h-.2v.1l-.1.1h-.2v-.4h-.3v-.2h-.2v.4h.4v.3l.3.1v.3h.2v-.3.2h.1v-.3l.2-.3v-.5h.2v-.1h.1v-.1h.2v-.4h.2l.2.1v.1l-.3.3h.4v.3h-.5v.2l.2.1v.4l.2.1.1.3v.1l.2.1.2.1v.2l.2.1h.1v-.1h.1v-.4h-.2v-.4h-.4l-.1-.3v-.3h.2l.2.5v.2h.4v.3h.1v.2h.2v.2l.2.1h.1l.1.1h.1l.1-.1h.2v-.2h-.2v-.3h.2v-.5h-.3l-.2-.2v-.3l-.3-.1v-.4h-.2l-.1-.1-.1-.3v-.2h.2v-.2l.2-.1v-.1h.2v.4-.3h-.4v-.4l-.2-.1v-.1h-.2l.2.4h-.3v-.4h-.1v.2l-.2-.1-.1-.2v-.2l-.4-.2-.1-.1v-.2h.4v.3-.5h-.2l-.1-.2v-.1h-.2v-.4h-.2l-.3-.2v-.1l-.2-.3v-.2h-.2v.2h-.1v.4l.2.2.3.2v1.4l.2.2v.1l.2.3h-.2l-.1-.2v-.3h-.1v-.1l-.3-.2h-.1v-.2l-.2-.1v-.7h-.2v.8l.4.1v.2h.3l.1.4v.1h-.2v.2l.2-.2.2.2.1.1v.2l.2.3v.3l-.3-.3-.2.2v-.4l-.3-.1.3-.2h-.3v-.1h-.2l-.1-.4h-.2v-.3h-.2v.3l-.2.2zm.2-.4h.2zm.6 2.2h.2zm1.1-.3h.3v.2h-.3zm.5-.6v-.1h.2v.2h.2v.2h-.3v-.2zm.2 0v-.4h.3v.5h-.2zm21-29.1v.6l.8.6.2.6.9 1h.2l.5-.3.8-.8.2-.5v-.2l-.1-.3-.4-.6-.6-.5-.4-.3-.3-.2h-.2l-.7.2zm39.6-5.1v.3l.2.2v.4l.3.3v.1l.1.2.4.3v.1l.4.1h.5l.1-.2.1-.2h.2l.2-.3h.2l.1-.3.2-.3v-.4h.2v-.8l-.2-.2h-.2v-.4h-.3v-.1h-.3v-.2h-.2v-.1h-.8l-.4.2h-.1v.2h-.1l-.4.2v.2l-.2.1v.7zm-63 36.9l.4.7.2-.1h.2v-.2h.4l.5-.4.4-.1h.8l.4.2.1.2h.1l.2.3v.6l-.2.2h-.1l-.1.2h-.1l-.2.2h-.2l-.2.2h-.1l-.2.1-.3.3h-.3l-.1.1-.1.1-.2.2-.1.1v.1h-.2l-.1.4h-.1l-.2.5v.2l-.2.2v.3l-.1.2v.9l.2.2v.2l.2.2v.5l.2.2h.1v.4l.2.3v.3l.3.1v.1l.5.2h.8v-.3h.2l.2-.4.1-.3v-.1l.2-.1v-.2l.1-.2h.1v-.2h.3l.1-.2h.5l.4-.2.4-.2.6-.1h.6l.6.1.3.4v.4l.2.1v2.5l-.1.3h.1l.1-.1v-.3l.2-.7v-.4l-.3-.2V241l-.2-.2-.2-.3-.6-.3h-1l-.3.1-.1.1h-.3v.3h-.3l-.1.1h-.3l.1-.2-.4.1-.3.3-.2.2-.2.2-.1.1-.1.2-.3.2-.2.3h.2v.1l.1.2.1-.2v.3h-.4v.2h-.4l-.4-.4-.4-.4v-.1l-.1-.1-.2-.5-.1-.5v-.3l-.1-.6v-.6l.3-.6.1-.4.2-.2.1-.2.2-.2.2-.1v-.1l.1-.2h.1l.1-.2.3-.1v-.2l.4-.1.2-.1h.1l.3-.1h.1l.2-.5.1-.5v-.5l-.1-.2-.1-.1-.1-.1-.3-.1-.2-.2-.4-.1h-.8l-.6.3-.7.3h-.5zm.6 4.5v-.4l.3-.2v-.2h.1l.1-.3-.2.4-.1.4zm.6-1.6h.1l.1-.3.3-.1h.1v-.1h.2v-.2h.3-.3v.3l-.3.3-.3.1h-.2v.1zm-10.5 1.7v.3h.2v.2l.1.2v.1h.9l.1.2.1.1h.2v.2h.1v.1h.6v-.5h-.2v-.1h-.2l-.4-.3h-.6l-.2-.2h-.2l-.2-.2v-.3l.1-.3.2-.2h.5l.2-.2h.3l.1-.1h.2v-.1h.2v-.1h.2l.2-.3.3-.1.2-.1.6-.4v-.1l.2-.2.1-.2v-.2l.3-.1V235l-.3-.1v-.2l-.2-.2-.1-.3v-.7h.3v-.1h.1l.3-.1h.2l.3-.3h.4l.1-.3.3-.4v-.3l-.3-.2v-.2l-.3-.1h-.1l-.3-.3h-.9l-.4-.2v-.3l-.3-.2v-1.8h.2v-.7h.1v-.3h-.2l-.3-.1v.2l-.2.2-.1.1v.2h-.1v.2h-.1v1.4h.2v.2h.2v.6h.1v.3l.2.2v.1l.1.1h.1v.1h.1l.2.1h.1l.1.1h1l.1.1.1.1.1.1h.2v.6h-.3v.1h-.2l-.1.2h-.3v.1h-.2l-.2.1v.1h-.2v.2h-.2v.1h-.1v.1h-.1v.2h-.2v.2h-.1v.5h.3v-.2l.2.2v.2h.1v.4h.1v.9h-.3v.3l-.1.1v.1h-.2v.2h-.1v.1h-.2v.1l-.1.1h-.3l-.1.2v.2h-.2v.1h-.2v.2h-.1v.1h-.1v.1h-.1v.1h-.2l-.1.2h-.3l-.1.1h-.3v.1h-.2l-.1.1v.1l-.2.1-.1.2v.2h-.1zm1.5.9h.3v.3l-.3-.3v-.1zm1.2-11.1v-.3l.3.3v.4h-.3l-.1-.3zm.2-.6v-.2l.2-.1h.1v.7h-.4v-.3zm0 8.6v-.1h.4v-.2l.2-.1v.4l-.2.1h-.1l-.1.2h-.1zm.8-.3v-.6h.3v.5h-.3zm.2-.7v-.1l.1-.3v-.2.8l-.2-.2zm0 0"/><path d="M211.4 211.3h.1l.6.3.4-.3v-.3l.3.3v.5h.2l.2.3h.1l.5-.1.2.1v.2l-.2.2v-.2h-.4v.1l.2.4 1.1.6.5-.1.5-.4.6-.7v-.2l-.9.8-.2-.8.2-.3v-.3l-.5-.4v-.7l-.4-.1h-.1l-.4-.4v.5h-.4v-.3l-.6-.8h-.4v.2l.1.3v1h-.5v.3h-.2l-.3.3-.3-.1zm1.8.3v-.2h.3l.1.5h-.1l-.1.1v-.2zm24.9 16.5l.2.2h.4v.2h.3v-.2h.2l-.1.3v.1l-.2.3.2.1-.2.3.1.3v.3h.4l.4.4h.2l.4-.4.3.3h.3l.6-.3-.2-.6-.1-.1-.1-.8-.2-.2v-.1l-.3-.4v-.6l-.5-.6h-.2l-.2.4-.5.1-.3.4h-.4l-.2.1-.2.2zM4.5-.2V0h.7l.3.5H6l.3.3.3.1h.1l.2-.2.2.3H8V.7h.2V.6h.3v.2h.2V1l.1.1H9L8.9 1 8.8.9 8.7.7h-.1L8.5.5l.4-.9-.2-.1H9V-1l-.4.2v.1h-.1v.3l-.1.1.1.3-.1.1h-.2l-.4.4v.2L7.6.6l-.2.1-.2-.2-.2.2-.3-.1-.3-.2h-.2L6 0l-.3.1V0L6-.3l-.3-.2V-1h.4L6-1.2v-.1h.4l.1-.3h.3l.1-.2V-2h-.4l.1-.5h-.1v-.1l.1-.4v-.5l1-.8-.3-.2-.5.2-.4.3-.8.5-.2.5h-.2l.2 1.1-.6.9-.1.4-.2.2zm.8-.8v-.1h.1v.3zm6.5 12.2v.3l.2.2.4.5.6.4h.6l.7-1.1h.2l.3-.2.1-.3.1-.2v-.4l-.3-.1v-.7l-.2-.1v-.1h-.8v.3l-.4.1-.5.3-.3.2-.2.1-.3.2v.2l-.1.2zm281.5 240.9v.4l.2.1v.1h.1v.2h.1v.1h.1l.1.2v.1h.1v.2l.1.2h.2l.1.1.2.2h.4l.2-.1v-.1h.2v-.3h.1v-.2h.2v-.1l.2-.2.1-.2.3-.3h.1v-.5h-.3v-.2h-.1v-.4h-.3v-.3h-.1l-.1-.1h-.8v.2h-.3v-.2h-.3v.2h-.4v.1h-.1l-.1.1h-.1v.2h-.1v.2h-.1v.2zm-59.6-26.5l.3.7.2.3v.1h.7l.5-.6v-.6h.2v-.4l.2-.1h.6l.2.3.4-.3v-.4l.5.2v-.3l.2-.1v-.9l-.3-.2-.2.2h-.5l-.1.3-.6.2-.3-.3h-.3l-.7.6-.7.3-.2.4zm2.3-.8v-.4l.1-.4.2.4-.1.2v.4h-.2zM164 256v.3h.4v.3h.3l.3.3v-.3l.5-.2h.4l.2-.3h.2l.1-.1h.2l.3-.5h.2l.1-.2h.2v-.8l-.2-.1v-.4l-.2-.1v-.3l-.3-.5-.1-.5v-.4l.1-.3.3-.1v-.2h.2l.1.1v.1l.2.2v.2l.1.2v.4h.2v.2l.1.4.1.2v.1l.2.3h.7l.3-.3h.2v-.1l.2-.2-.1.2v-.4l.2-.2v-.3l.3-.3.1-.2v-.2h.3l.2-.2-.2-.2h-.4v.1h-.2v.3h-.2l-.1.3h-.1v.1h-.1v.3l-.1.1v.2h-.1v.2l-.1.2-.1.2h-.8v-.2h-.1v-.9h.3v-.6h-.3v-.2h-.3v-.2l-.2-.1h-.2v-.1h-.6l-.2.2-.2.1v.1l-.1.2v.1h-.1v1l.3.2v.2l.1.1v.3l.1.2.1.3.1.2v.8h-.3l-.1.3h-.2v.2h-.1l-.1.2h-1l-.3-.1h-.1l-.1-.3-.2-.1-.1.2zm0 0"/><path d="M164.2 262v.1l.1.3h.1v.1h.3v.3h.3l.2.1.4-.2.1-.1v-.4h.5v-.2h-.2.6l.2.3.5.2.2.1h.6l.2.2h.3l.5-.5.4-.1v-.2l.2-.3v-.3l-.2-.2h-.2v-.2h-1.1l-.2-.3h-.1l-.2-.3v-.4l.3-.3v-.1l.3-.2h.2l.1-.2h.1l.3-.1h.1v-.1h.2l.2-.3.4-.5v-.2h.1v-.8l.2-.2v-.1l.3-.2h.2l.2-.2h.5v.3h.6l.1-.2.1-.1.1-.2.2-.3v-.3l-.2-.3v-.4h.7l.2-.2v-.2l-.2-.2h-.5v-.8h-.4.2v1.4h-.2v.3l.2.7-.1.3-.2.2h-.6l-.4-.1h-.2l-.2.1h-.2l-.2.3h-.1l-.1.2-.1.1-.1.2v.4l-.2.1v.4l-.1.1v.2l-.2.1v.1h-.5v.2l-.3.1-.1.2h-.2l-.2.2h-.1l-.1.2-.1.1-.2.1v.8l.2.1.2.3h.1l.3.2h.7l.3.2.2.2v.2l-.2.2h-.1l-.1.3h-.2l-.2.1h-1.3l-.4-.4h-.2l-.2-.1h-.2v-.2h-.5l-.1.3h-.1l-.2.2h-.2l-.2.3h-.5l-.1-.3-.1-.2v-.3l.3-.2v-.7h.2l.1-.1h.1l.5-.3h.4v-.1h.3v-.2h.1l.1-.3.1-.2v-1.8l-.3-.1-.1-.3h-.1l-.3-.2-.2-.1v-.1l-.3-.1-.1-.2v-.1l-.4.2.2.2.2.2h.1l.2.3h.2l.3.3h.1l.1.4v.3l.3.4v.7l-.4.2v.1l-.1.1-.3.3h-.5l-.3.3h-.1l-.2.2-.3.6v.2l-.1.1v.1zm4.4-3l.1-.2h.3l.1-.1-.1.3h-.2l-.2.2zm3.7-4.2v-.4h.3v.3h.4v.1h-.2l-.1.1h-.4zm-28.6 13h.1v-.1l.2-.1h.5l-.3.3v.1h.4v.2l.2.4h.2v.4l.4.1h.3v.3h-.1v.2h-.5v.2h.3l.3.2h.2v.3l.3.2.1.1.3.2h.1l.3.2.2.2h.3l.1.2h.1v-.6h-.2v-1h.3v.6h.2v.2h.3v.1h.4v.2l.2.1v-.3h.1v-.3h-.2v.3h-.2v-.3h.4v-.1h-.6l-.1-.1h-.2v-.2h-.1v-.4l-.2-.3v-.1h-.3v.5h-.3v-.6l-.1-.1-.1.1v.1h-.1v.3l.1.1h.2v.2l-.2-.1v-.1h-.2v-.2h-.2v.1h-.4v-.3h.4v-.2h.2v-.3l-.4-.1v-.1h-.2v-.2h-.1v-.1h-.7v-.3l-.2-.2-.2-.2-.4-.2h-.3v-.1h-.1l-.2.1v.1l-.2.1h-.1v.2zm1.2.5v-.2h.1v.2h.2v.3h-.2v-.2zm2.3 1.7v-.1h.3v.1h-.2zm.6 0v-.3h.2l.2.2h-.3v.1zm89.8-89.2v1h.3v.2h.1v.2h.2v.3h.2v.2h.1v.1h.1v.2h.8v.2h.4v-.2h-.2v-.2h-.1.3v-.4h.2l.3-.1v-.1h.1v-.2h.4v-.7h-.3v-.3h-.1l-.1-.1-.3-.3v.4h-.4l-.2-.2h-.1v-.1h-.2l.2-.1h-.1l-.2-.2v-.3h-.3v-.1h-.6l-.1.4h-.3l-.1.1v.1zm1.3.5h.3-.2zm.3.3v-.1l.1-.2v-.1l.2-.1v.4h.1v.2h.2v.2h-.4v.1-.4zm0 .8v-.2h.3v.1h.1l-.2.2h-.2zm52.8 75.4v.5l.2.2v.4l.1.1h.1v.2l.1.1.2.1.1.2v.1h.2v.2h.2l.1.1h.2l.3.2h.2v.1h.4l.2-.3h.1v-.2l.1-.1v-.7h-.3v-.3l-.1-.1v-.2h-.1v-.1h-.1v-.1h-.1l-.1-.2v-.2h-.1v-.3h-.2v-.2h-.2v-.2h-.2v-.1h-.5l-.1.4h-.3v.1l-.1.1h-.2l-.1.1zm-60.2 2l.1.2v.2h.2l.4.2v.3l.5.3.1.2v.2l.3.1.1.2h.1l.1.1.3.2h.2l.4-.3.2-.2v-.6h.1v-.9l.5.2.2-.1.2-.2.5.2v-.2h-.3v-.2l-.4.3-.3.2-.3-.3-.3.2v-.1h-.2l-.2-.1-.5-.5h-.3l-.3-.6h.2l-.4-.3h-.1l-.2.1-.1.1h-.3.3v.4l.2.3h.5v.2h-.5v.3h-.3v-.3l-.1-.1h-.2l-.3.2h-.1zm-21.1-3.1l.1.3.3.4.1.3v.3l.4.2v.3h.4l.4.4h.2l.4-.4.2-.2.2-.2.2-.3v-.4l-.2-.5-.4-.3-.3-.3-.4-.1-.3-.3h-.2l-1 .4zM41.3 216l.3 2.3v1h.3l.1.4h1.2v-.3h-1l-.2-.2-.4-2.9v-1l.4-.5.4-2-.2-.1-.1-.5h-.2v-.2l-.4-2.4h.2l.3-.6.1-.3h.2v-.2h.3l.5-.5.3-.2v-.7h-.2l-.6-2.1v-.3l-.1-.5v-.5l.4-.5V201l-.2-.3v-.5l-.4-.2-.1-.5h-.3v-.3h-.5l.4.3v.1h.1v.1h.2v.3h.2v.2l.5.7v.2l-.2 2.4h-.2l-.2.5.5 2.3.3.8h.2l-.2.8v.1l-.7.2v.2h-.1l-.4.6h-.1l-.4.8.3 2.4.2.5h.2v1.3l-.5.7v.4zm.1 0v-.5l.1-.3.2-.4h.1l-.3.5v.9zm134 61v.3l.3.2v.5l.2.2v.1l.5.5v.2l.6.6v.2h.3l.2-.2h.8l.6-.8.1-.1v-.1l-.6-.3-.4-.3h-.1l-.2-.2-.6-.4h-.1v.3-.4l.2-.2v-.3h-.2v-.3h.2-.2l-.1-.2h-.1v.4l-.1-.2v.1h-.7l-.2.2h-.2zm.8 1l.2-.4h.3v.4l.3.3h.3l.2-.2h.1l.1.2-.1.2h-.1l.2.1.3-.2.2.2v.1h-.7l-.1-.1h-.2v-.3h-.4v.7h-.2v-.5h-.1v-.2h-.2v-.2zm1.6.8l.4.2v.1h.1-.3l-.1-.1zm52.2-59.2v.3l.3.3.1.2v.2l.3.7v.1l.1.1v.2l.2.3h.1v-.2h1.1l.2-.4.2-.2v-.2l-.5-.7-.1-.3v-.6h.1l.2-.1v-.1h-.3v.1h-.2v.1-.2l-.1-.1v-.3l-.3-.1h-.3l-.3.3-.2.1-.4.2-.3.2zm-45.7 9.3v.5l.1.2v.2l.2.3.3.4.2.1h.4l.3.4h.5l.3-.3v-.2h.2l.2-.2-.2-.1v-.4l-.3.1v-.5l.3-.2v-.6l-.1-.1h-.2l-.3-.2h-.6v-.3h-.2v.3h-.1l-.1-.1h-.2v-.5h-.1v.2l-.1.1v.3l.2.1h.2v.4h-.4v-.4h-.3l-.2.3zm66.2 22.8l.1.4.4.4.1.1v.4l-.1.1v1.3l.3.2v.2l.4.2h.2l.1-.4.2-.1v-.1l.2-.2v.5l.2-.3-.3-.4v-.2l-.3-.2v.1h-.2v-.2h.3v-.2h-.3l-.2-.4-.4-.2h.8v.3l.6-.7v-.7h-.2v-.4l-.3-.1-.1-.4-.3-.3h.1v-.3h-.1v.2l-.3.2v.3l-.3.2-.1.1h-.2l-.2.3zm1.3 2.1h.2v.1l.1.2v.3-.2l-.3-.2zm-106.2 2.6h.2l.2.1v.3l.1.2.2.2.2.2h.3v-.3l-.3-.1v-.8h.2v.2l.2.2h.1v.6l.3.1.2.2v-.4h-.2v-.3l.2.2v-.7l.1-.1v-.4l.2.1h.1l.1.1h.3v-.3h.3v-.3h-.3v-.1l.1-.1h.2v-.2h-.2l-.2.4h-.2v-.4l-.2-.1v-.2l.2.1v-.1l.3-.1v-.4h-1.1v.2h-.2l-.2.2v-.3h-.2l.1.3-.3.1-.3.1v.2h.2l.2-.3-.2.5-.3.1v.3h-.3v.5h-.1l-.1.3zm91.5-1l.1.3.2.2v.2l.1.3.1.2.4.2.3.2.2.2h.3l.2-.2.4-.2.4-.6v-.2l-.3-.6-.3-.3-.2-.3-.3-.3-.3-.1h-.3l-.1.2-.8.3v.2zm5.9-21l.3.6.1.3.2.2.4.2h.5l.3-.5h.2l.5-.5.1-.2v-.3l-.2-.4-.6-.5v-.3l-.4-.4-.4.2-.3.1v.9h-.4l-.2.2v.2zm.5.2v-.1h.2v.1zm-65.7-17.5h.5l.8.3 1.8.1h.5l.4-.3h.6l.2-.2.2-.2.4-.2.5-.2.2-.1.3-.3h.2l.1-.2.6-.4.3-.4h.3l.3-.4h.2l.2-.2.3-.1.4-.3.5-.1h.8l.3.2.2.2.1.1.2.2v.2l.5.4v-.3l-.3-.2v-.1l-.2-.4-.2-.2-.2-.3h-.3l-.5-.2h-.3l-.4.2h-.1l-.7.3h-.3l-.2.3-.2.1-.2.2h-.1l-.2.2-.3.2v.1l-.4.2-.1.1-.2.2-.3.2-.3.1-.7.4-.8.5-.5.2h-.6l-.3.2-3-.6zm27.8 35.9v.3l.4.5.1.4.7.2h.4l.2-.2.4-.2.2-.4.1-.6-.3-.3-.4-.2-.3-.5-.4-.3-.5.3-.2.3-.3.3zm26.8-58.8v.4l.1.3.1.1.3.2v.2l.1.1v.1l.3.1v.1h.4v-.1h.3l.1-.1.5-.3v-.3l.3-.3.1-.2v-.2l-.3-.1v-.4l-.1-.2h-.2l-.1-.2-.2-.1h-.1v-.1h-.5l-.1.3-.3.2h-.3v.1h-.2l-.1.2zm10.8 65.2l.2.1v.1l.1.1v.2h.3l.1.2v.2h.3v.5h.1l.2.2.1-.2h.1v.8l.5.2v.2l.5.1h.4l.1.2.2.1v.4l.2.4v.1l.2.3h.2v-.2l-.5-.3v-.1h.4l-.1-.3h-.1v-.3h.3l.2.2h.1l-.1-.5h-.6v.2h-.3v-.3l-.1-.3v-.2h-.2l-.3-.2v-.3l-.3-.1v-1.1.1h-.6l-.1-.3-.3-.3-.4-.3v-.2l-.2-.2h-.3l-.3.4v.2zm1.8 1.2h.3zm-85.8 1.6l.1.2v.4l.3.2v1h.4l.2-.1v.2l.2.2v.3l.1.1h.1v-.4l-.4-.1v-.1l.2-.1v-.2l.1-.2h.2v.4h.3v-.5h.3v.6l.1.2v.2l.3.3v.9l-.2.1-.2-.1v-.7h-.1v-.4l-.2-.1h-.1v1.5l-.1.2.2-.2v-.2h.3v.2h-.2v.3h.4v.1l.2-.4v-.2l.1-.2.2-.1v-1l-.3-.1v-.3h-.2v-.1h-.1v.3-.2l-.2-.2v-.6l-.2-.1v-.9h-.1v-.1h-.3v-.2h-.3l-.1-.1h.2v-.2h-.4v-.2h-.3v.3l-.5.2zm2 4v-.2zm0-.2v-.2h.3v.2zm.5-1.5v.3h.1v.3-.4l-.2-.1zm-7.6-.7v.3h.2v.3h.1v.3h.3v.3h.2v.3l.4.2.1.1.1.1h.2l.1-.3h.2l.3-.2.1-.2h.2v-.4h.1l.2-.2-.2-.3v-.5h.3l.2.1h.3l.1-.3v-.1l-.1-.1h-.3l-.2.2v.1h-.4v-.4h-.5l-.1.3-.1-.1-.2-.1h-.2v.3h-.7l-.1-.2h-.1l-.2.3h-.1v.1zm.7 0h.2v-.2h.2v.4l-.4.2zm1.3-.3v-.2h.5v.5h-.4zm.3.5l.2-.3v.3zm21.8-37.8v.2l.3.1v.2l.1.5v.2l-.1.1v.1h.5v.2h.7l-.3.2.1.1.2.1h.1v-.5h.2v-.1h-.3.3l.2-.3h.2v.2h.4v-.3h.6l.2-.1v.5h-.3v.2h-.3v.1l-.2.1v.1h.3l.2.2.2-.1h.2v-.5h.1v-.7h.2v-.7h-.7v-.3h-.3v.3h-.3l-.3.2-.4.1.3.4h-.3l-.1-.2v-.1l-.3-.3-.3.1v.1h-.2v.3h-.2l-.2-.3h.3l.1-.2-.1-.3-.3-.1h-.4zm2.8.6v-.1zm-9.1-10.5l.3-.1h.5v-.2l.5-.2h.2l.2.2v.1l.3.1v.2l.1.1v.1l.2.2v.2h.1v.1l.3.1v.2h.1l.3.2h.3l.1.1h.2l.4-.3.3-.2h1.5v-.7h-3l-.2-.2-.1-.5-.2-.2h-.3v-.3h-.4l-.1-.1h-.5l-.3.3h-.2l-.2-.2-.2-.1v.4zm3.1.7l.2-.1h.2l.4-.3h.7v.3l-.2.1h-.5l-.2.2h-.4zm-49.7 33.6v.1l.2.3v.1l.2.2.3.1v.3h.3v.3h.1l.2.2v.2h.6v-.3h.2v-.7h.1l.1-.3h.8v-.1h.1v-.7h-1.4v-.1h-.1l-.1-.1h-.2v-.1h-.2l-.2-.2h-.5l-.2.4-.3.2zm-13.6.6l.3.2h.3v.2h-.2l-.1.2v.2l.2.2.2.2.1.2h.3v.2h.5l.2-.3.2-.2h-.3v-.3h-.6v-.3h-.4v-.6.3h.2v.4l.2-.3.2.3h.3v.2h.3v-.3h.1v.3l.3.3h-.3v.2h.2l.1-.2h.5l.2-.2v-.4l-.4-.4h-.5v.4h-.2v-.6h.3v-.3l-.2.2v.2l-.3-.4v-.1h-.1v-.2h-.2v-.1h.3l.2.4v-.4h.1-.3v-.2h-.3l.2-.2h-.2v.3h-.1l-.2-.2h-.1v-.1h-.3v.3h-.2l-.2.1v.4-.1l-.2-.1v.3h.2v.1h.3v.3l-.3-.1v.1-.3h-.3zm.5 0v-.2h.2zm150.1 19.1h.5v.2h.1v.7l.1.1v.5h.3l.1-.3v-.3h.2v-.1h.4v.4l.2.1v.1h.5v-.3h.1v-.1h.2v-.7h-.2v-.3h-.1v-.2h-.4v.7h.4v.4-.2l-.3-.2-.1-.1v-.1h-.3v-.4h-.2v-.1l-.1-.1h-.1v-.2l-.1-.1v-.1l-.1-.1h-.1l-.1-.1v-.2h-.2v-.1h-.2v-.5h.7v.3h.1v.1h.1v-.3l-.3-.2v-.1h-.4v.3h-.4v.1h-.1l-.1.1v.1h-.1v1.3l-.1.1zm2.4.5h.2v.2-.2h-.3zm174.9-57.1v.1l.2.3v.2h.2l.2.2.2.2v.1l.3.2h.1l.2.2h.2l.3-.2v-.2l.3-.1v-.5l.2-.2v-.8l-.5-.2-.1-.1-.3-.3h-.3l-.1.2-.3.2h-.4l-.3.4zM230.5 225v.4l.2.1.3.4.3.1h1l.4-.5v-.5l-.3-.3v-.3l-.1-.3-.4-.4h-.2l-.2-.2-.4.3h-.1l-.3.2v.8l-.1.2zM12 24.3v.1l.2.2.3.4.2.1.3.1h.5l.2-.2v-.3l.2-.1.1-.3.1-.1v-.1l.2-.2v-.1l-.2-.2H14l-.2-.3v-.4l-.2-.2h-.2l-.2-.4h-.1l-.2-.1-.2-.2h-.2v.4h-.2v.2h.2l.5.3v.1h.2v.2l-.3.1-.2.1v.1l-.3.1-.1.2-.2.2zM1.1 17.8l.4.2v-.1l.5.4h.7l.2-.2v-.4l.3-.5V17l.3-.2v-.4l-.3-.2H3l-.5-.2H2l-.4.3v.2l-.2.2v.9zm255.3 233.7v.2l.4.3v.4l.1.2v.2l.6.4h.1l-.2.2.6.6-.2.2v.1h.9v-.4l-.1.1-.2-.1v.1h-.3l-.1-.1v-.2h-.3v-.2l.3-.2h.5l-.5-.3.6.2.2.1h.2l.2-.3-1.2-1.7-.5-.2h-.2l-.2.2v.2l.3.5v.2h.3l-.1.4h-.2l-.2-.3v-.3h-.2v-.2l-.4-.4zM-34617 205.3l.3.1h.3l.2.3h.4v-.7h-.1l-.2-.2h-.3v-.2l-.2-.1v-.1l-.2-.2v-.2h-.2zm35708-.6l.2.3v.1h.2l.2.1v.1h1.3V204h-.3l-.3-.2-.1-.1-.3-.1h-.5v.4l-.3.3v.2zm-970.8 47.9v.4h.2v.3h.2l.1.1v.2l.3.1h.8l.2-.1v-.2l.2-.1v-.3h.1l.1-.2v-.1h.2v-.4h-.4l-.2-.1-.1-.2-.3-.3h-.1v-.1h-.2v-.1h-.3l-.2.2-.3.1-.1.2v.2l-.2.2zm.6-.6h.2zm130.9 9.1l.6 1v.2l.3.4h.1l.3.2v-.2l.3.1.4-.5v-.1l.2-.2v-.3l-.4-.2v-.2l-.3-.6-.2-.4-.8.1-.2.2h-.2l-.1.4zm219.8-74.2l.3.9.2-.2.8-.3.3-.2h.2l.2.3v-.4h.1v-.8l-.2-.2-.2-.7-.9.2zM16.1 25.7v.1l.5.3h.2l.2.1.3.2.2.1h.6l.3-.5v-.3h.2v-.4l-.1-.3-.3-.2H18l-.3-.4h-.6l-.4.3v.2l-.3.3-.1.4zm244.6 143.7v.1l.2.3.1.2h.2v.1h.2l.1.3h.7l.2-.3v-.1h.1l.1-.1v-.3h.2v-.3l.1-.1v-.7l-.2-.1-.2-.3h-.3v-.1h-.5v.3h-.3l-.1.2h-.2l-.1.2-.1.2v.1l-.1.3zm37.9 81.2h.2v1.1h.1v.2h.1v.4h1v-.3h.3v-.3h.2v-.1h.1v-.6h-.3v-.2h-.1v-.2l-.1-.1v-.1h-.1v-.4h-.2v-.2h-.1v-.1h-.4v.3l-.1.2h-.5v.1h-.1zm-114.7-17.3l.1.3.3.1.1.3.3.2v.2l.3.4h.3l.2-.5v-1.1l.4-.2v-.5h.1v-.1l-.3-.4-.2.2-.1-.1h-.7l-.4.3v.3h-.1v.1l-.2.2zm-2.4-3.3l.4.3.1-.4h.2v.1h.3v.4h.3l-.1-.3v-.1h.1v-.5h.2v.1h.2v.1l.4.5h.2l.2-.3v-.4h-.3l-.1-.3h.1v-.5h.2v-.3l-.3-.1v.2h-.1l-.1-.1h-.1v-.2h-.3l-.1.1-.1-.1h-.2v.5h-.4l-.2.1-.1.2-.3.2v.2l.4.3v.1h-.5zm2-1.4h.1v.1zM18.7 6.8h.2l.3.5h.2l.2.4.5-.1.5-.5.4-.1v-.5l-.5-.5v.1H20l-.5-.5h-.3L19 6l-.3.4zM24 13v.3l.4.2v.3l.8.2h.4l.3-.5.2-.6v-.4l-.4-.3h-.1V12h-.5l-.7.4v.2zm205.6 197.8v.4l.3.1v.5l.1.3.3.3h.1l.1.2h.3v.1h.4v-.1l.2-.2v-.4l-.2-.2v-.3l-.4-.4-.1-.1.1-.3v-.2h.2v-.2l-.3-.3-.3.1-.3.3v.1h-.1l-.2.2h-.1zm186.3 9.7l.1.3.4.2.3.2h.7l.2-.2.2-.7v-.3l-.3-.7-.3-.3-.5.2-.3.5v.4l-.3.2h-.2zM201 117.7v.3h.1l.2.2h.3v.2h.1v.3h.3l.2.2v.1h.4v-.1l.4-.4v-.3h-.2v-.2h-.3v-.4h-.2v-.2l-.2-.2h-.1v-.2h-.2v-.2h-.1v-.1l-.1-.3h-.1l-.1-.1h-.3l-.1.3v1zM20.6 12l.5.6.6.2h.5l.2-.4v-.2l.2-.6v-.4l-.3-.5h-.2l-.7.3-.6.7zm220.6 194.5v.2h.3v.3h.2v-.5h.2v-.1h.1l.2-.2h.3l.1-.2h.4v-.4h.2v-.6h-.2l-.1-.1v-.3h-.2v-.1l-.1-.2h-.1l-.2-.2h-.3v.4h-.2v.1h-.2v1h.2v.1h.2v.3h-.8zM9 17.8l.9.7h.5l.6-.6-.2-.4v-.2l.2-.2v-.5h-.4l-.6.1-.2.3-.7.4zm237.5 242.1l.2.1h.2l.2.1v-.1h.1v.2-.1l.4-.3v.4l.1.2h-.1v-.2h-.2l.2.3.1.3.1.4h.2l.1.2.2.1h.3l.2-.3h.1v-.2h.1v.4l.3.2h-.3v-.3h-.1v.5h.3-.2v.2h.2v-.2.1l.4.1v.3l.1-.3-.1-.2v-.3l-.3-.1.1-.3v-.1h-.3v-.3h-.1v.1h-.2v-.4l-.5-.3-.5-.6-.4.2-.1-.1h-.4l-.2.2h-.1zm2.9 2v-.1h.1v.2zm-135.2-5.7l.1.2v.1l.3.1.1.1.2.1h.1v.2h.1l.2.2h.3v.3h.2l.3.5h.2v-.1h.1v.6h.2v-.4l-.3-.1v-.2h.6-.3v-.6l-.3-.2h-.1l-.2-.3-.1-.2h-.1l-.1-.2v-.2l-.3-.1-.1-.2h-.3v-.2h-.6l-.1.4v.1zm.2 0h.2v.2zm.7.8h.3zM4.4 6.3l.3.3.7-.2.2-.2v-.1l-.2-.2.6-.4.3-.6v-.1l-.4-.3-.6-.5H5l-.2.2v.6l.2.3v.5l-.1.1.1.3h-.3zm0 0"/><path d="M249.5 260.5l.2.1-.1.2v.8l.1.2.3.1.2.2h.5l.3-.4h.1l.2-.2v-.2l-.1-.3-.6-.4-.6-.6-.3.1-.2.2zm-7-36.5l.6.4v.6l.6.1.3.4.4-.1.1-.4h.2v-.6l-.1-.3-.6-.5-.1.1h-.4l-.3.3-.3-.2h-.1zM13 18.6l.8.6.5.2.4-.7V18l.1-.1h.2l.2-.1v-.4h-.9l-.4.3-.5.3-.4.3zm180 246.2l.3.2h.1v.1h.5v.3h.1l.2-.3h.5l.1.2.2.2v.5l-.3.8v.6l.3.3v.3h.4l.1.4h.2v.3h.3v.1h.8v-.2h.2v-.3h.4v-.2h.2l.5-.1.5-.1h.4v.1l.3.2h.2v-.4l-.3-.1h-.4l-.3-.2-.2.2h-.4l-.2.3h-.2l-.2.1h-.3v.2l-.5.2h-.5l-.2-.4h-.2l-.2-.3v-.3l-.2-.1-.1-.5v-.7h.1l.1.1v-.4l-.2-.4-.1-.1v-.2h-.2l-.1-.2h-.9l-.2-.1-.2-.2h-.4zm1.8 2.2h.2l.1.4h-.2l-.1-.2zM14.2 2.7l1 .7h1.1V3l.1-.2-.8-.5V2l-.2-.2-.1-.1-.3.1v-.2l-.2.1.2.2-.3.2v-.4l-.3.3v.4zM5.5 6.9V7l.2.3.2.4v.2L6 8l.2.3.2.2h.2l.2.3H7l.2.1.2.1h.3l.2-.5.1-.1.1-.2.1-.2.1-.2v-.6L8 7v-.5h-.1l-.1-.2h-.2l-.2.4h-.1l-.2.1-.3.2H7l.3-.1v-.1h.3v.3l.2.1v.5l-.4.3h-.2l-.2.3h-.4L6.4 8h-.2v-.2l-.4-.3-.1-.3v-.6h-.2zM465.6 252l.4.5-.2.1v.3h.2l.2.1.1.1.4.1.4-.4.1-.2v-.8l.2-.3v-.3h-.3v.6h-.3v-.3h-.3v-.1h-.5l-.3.1v.2zm-217.5-20.6v.2l.4-.1h.4l.1.4h.3l.2-.3h.1v.7l.2-.3v-.2l.2-.3-.1-.3v-.6l-.3-.3-.8-.1h-.4l-.2.3v.3l.3.2v.2l-.3.1zM14 8.7l.4.3h.3l.3.2h.3l.2-.1v-.2l.3-.2V7.6l-.5-.2-.7.5-.5.6zm4.7 4.4l.1.3v.3l.2.1v.2h.6l.2-.3v-.5l.3-.5v-.4L20 12l-.2-.2-.4.2h-.1l-.4.1v.6zm214.9 185.1v.3h.2v.2h.2v.2-.6l-.2-.2.2-.1h.4v.2h.1v.1h.2v.3h.1v.1h.2l.2.3v-.4h.4v-.8h-.3v-.3h-.3v-.2l-.2-.2h-.8v.3h-.1l-.1.2v.4h-.3v.2zM296 156l.3.1h.5v.2h.2v.2h.3v.2h.1v.1h.4v-.2h.1v-.5l.1-.1v.3h.2v-.3l.1-.2h.1v-.2h.3v.2l-.3.2h.4l.2-.1v-.3h.3v-.2.5h.1v-.3h.1v-.4h.1-.3v-.2h-.3v.2h-.2v.1l.2.2v.1h-.3v-.6h-.3l-.3.1h.3l.2.2v.4h-.4v-.6h-.4v.3l-.2.1-.1.3-.2.1-.1.1h-.3l-.2-.3h-.5v.3zm1.6-.2h.1zm0 .4v-.2h.3-.2v.3zM81.9 267v.4h.1v.4h.3v.2h.1v.2h.3v-.4l.2-.1.1-.2.2-.2.2-.1h.2l.1-.2-.1-.2h-.3v-.2l-.2-.1H83l-.1-.2-.2-.1h-.4v.2h-.2v.1l-.1.3v.1zm0 0"/><path d="M5.8 6.3l.8.3h.6l.3-.4v-.6L7 5.2 6.7 5l-.5.4-.4.4zm260.7 267.9v.2h.2l.1.1.1.1h.1v.2h.2v.1h.1v.1h.2v.2h.2v.2h.3l.2.1h.2v-.3h.2v-.1h.2v-.3h-.3l-.1-.1h-.1v-.1h-.3v-.3h-.3l-.1.3h-.1l-.1.1v-.2h-.1v-.9h-.1v-.2h-.1v-.3h-.1v.5h-.2v.1l-.1.1v.1h-.1l-.1.1v.2zm2 .7v.1zM10 8.8l.2.2h.2l.4.2h.6l.1-.2v-.8l-.5-.5-.5.2-.4.6zM306.8 147v.3h.2v.1l.2.2v.2l.3.2h.1l.1-.1v-.2l.1-.2.2-.2.1-.2h.2l.1-.1h.1v-.7h.3v-.3h.1v-.4h-.2v-.1h-.4v.3h.3v.2l-.3-.2h-.1v.1l-.2.1v.2l-.4.2-.1.2h-.5l-.1.3zm0 0l.2-.2.1-.1h.3v.2h.4l.4-.5v.2l-.2.3h.1v.1h-.3v-.2.2h-.3l-.1.2h-.5zm1.2-.5h.2zm.1.7v-.2zM159.3 274h.3v-.2h.3v-.5l-.2-.1v-.7h.5v.2l.2.2v.1h.3l.1.2h1v.2h.2v.1h.2v.2h.1v.2h.1v.3h.1v.2h.1l.1.1.1.1h.7v.1h.2v.2l.1.1v.9h.1v.1h.1l.2.2v.1l.1.2v.3l-.3.2h-.2l-.1-.2-.1-.2-.2-.1-.2-.2h-.8v.3h-.1l.2.1h.1v-.3h.8v.4l.3.2h.1v.2h.4v-.2h.1v-.2h.1v-.8h-.4v-.3h-.2v-.9l-.1-.2h-.1v-.1h-.2v-.2h-.8v-.1h-.1v-.2h-.1v-.3l-.1-.1-.1-.2v-.2h-.3l-.1-.2h-.8v-.2h-.4v-.1h-.2l-.2-.1v-.2h-.1v-.1h-.4l-.1.3-.1.1v.5l.2.3v.3h-.4zm-46.5-26.1l.1.1.3.2.1-.2v-.1h-.1v-.3h.1v.4h.2l.1.1v.1h.1v.2h.3v.2h.6l.3.3-.2-.3v-.8l-.2-.1-.2-.2h-.3l-.1-.2-.3-.1-.2-.1h-.1l-.2.4h-.3zm126.6-70l.1.1h.5l.2.2h.3v-.2h-.1v-.2h.1l.3.4v.1h.2v-.7h.2l.1-.2h.2l.1-.1h.2l.2.2v.1h.1l.1.2h.2l.3.1v.3-.4h-.2v-.2h-.1l-.2-.1h-.2v-.1h-.4v-.2h-.1v-.6l-.1-.1h-.5.1l.3.2h.1v.6l-.1.1h-.1l-.1.1h-.5v-.3l-.3-.2h-.1v-.3l-.1-.1v-.2h-.1v.9l.4.1v.3h-.6v-.3h.4v-.2h-.4v.3h-.3v.3zm-5.8 37.8h.2l.2.1h.6l.1-.2.3-.2v-.4l-.4-.4v-.1h-.2v-.7h-.1l-.3.2.1.6h-.3v.6l-.2.3zm.8-.4h.1zm-133.9 42.2l.2.2.3.2v.2h.2v.2l.2.1-.2.2h-.2v.6l.2-.3.3-.3h.5v-.3h.4v-.1h-.6l.4-.2v-.2h-.2l-.2-.2-.2-.2-.1-.3h-.2l-.1-.1h-.2v.1h-.3l-.2.3zm366.1-60.3h.2v.2l.1.1v.3h.1v.4h.2v.1h.2v.1h.2v.1h.2v.1h.1v.1h.1v.6-.7h.2v-.6h.1v-.2h.1v-.1h-.6v-.1h-.1v-.2h-.1v-.4h.3v-.2h-.4v.2h-.5v.2h-.2zM122.2 3.5l.3.1v.2l.2.2.1.2v.1l.2.1v.2h.2v-.1h.4l.2-.5-.6-1.1-.9.4v.2zM15.3 11.2l.2.2.7.3.1-.1v-.2l.3-.4h.2l-.8-.7-.5-.1-.2.2v.2l.1.2zm3.3-.9l.2.2v.2l.2.1.3.2h.1l.1.2h.2l.1-.4v-.1l.2-.2V10l-.2-.4-.1-.1-.5.2-.2.2v.1h-.4zm.3 8.4v.1l.1.3h.2l.2.2h.1l.2-.1h.3l.1-.1.1-.5-.1-.5-.3-.1h-.5l-.3.2v.2l-.2.1zM241.7 181v.1h.2v.2l.1.1v.1l.1.1h.1v.3h.5v.3h.1l.2-.2v-.6l.2-.3v-.1l-.2-.1-.2-.2h-.4v-.2h-.2v.3h-.2l-.2.1zm-3.7 45.8l.2.4v.3h.1v-.4l.2-.1h1l.2-.3v-.3h-.4l-.3-.8h-.3v.4l.4.3h-.1l-.3-.2h-.4v.4zm-108.3 31.4l.3.3.2.3.4.4h.3l.1-.2v-.2l-.1-.3v-.2l-.2-.1-.1-.2v-.3l-.2-.2h-.6v.5zM98 248v.5l.3.2v.3l.1.5v.5h.1l.1.2v.1h.1v.3h.1l.2.2-.2-.2v-.1l-.1-.2v-.3l.1-.5h-.1l-.3-.5v-.4l-.3-.6v-.3h.3l.1-.2.5-.4.3.3.1.2v.4h-.1l-.2.5h.1l.2-.5h.1l.1-.4v-.3l-.3-.3v-.2l-.1-.1v-.2H99l-.2.2v.4h-.3l-.1.4-.2.2zm30.6 6.3v.3l.3.2v.2h.1l.1.3h.2v.4h.1l.2.3.1-.2h.3v-.3h-.2l-.1.3-.3-.4v-.1l.4-.2v-.1h.2v.2h-.3v.3h.3v-.3h.1-.1v-.4l-.2-.2h-.3v-.4h-.1l-.1-.2h-.7zm1 .6h.2zm-54 4.1v.5l.2.1v.2h.2v.2h.3l.1.2h.2l.1.1h.3l.1-.3H77v-.2l.1-.1v-.1H77v-.2h-.2l-.2-.1h-.1v-.2h-.2l-.1-.1H76l-.1-.2h-.3v.2h-.1zM1.8 11.2l.1.2.5.6h.3v-.5l.5-.3v-.4l-.4-.2-.4-.1-.6.5zM171.4 248h.3l.3-.2.2-.3.2-.2.3-.2v-.1h.3l.2-.3h.5l.3.3h.3l.1.3v.2h.2l.1.5h.1v.4l-.2.1h-.3l-.3.2h-.1l-.2.1-.3.2v.3l-.1.1v.4h.4-.3v-.2h-.1v-.3h.3v-.2l.2-.1.1-.2v-.1h.1v-.1h.7l.1-.2.1-.1v-.6h-.1l-.1-.2-.2-.1v-.2l-.2-.1v-.2h-.2v-.2h-.4l-.1-.2h-.6l-.1.3h-.2l-.1.2h-.2l-.1.2-.3.2-.1.1v.2h-.3v.3zm3.1.6v-.2h.3-.3l-.1.3zm296-9.2h.1l.1.1v.8h.3v.2h.5v-.5h.1v-.4l.1-.1v-.2h-.4v-.3h-.2v-.1h-.3v.3h-.3zm.3-.1v-.2h.2v.3zm0 0h.2v-.2h.1v.4h-.3zm.4.5l.2-.2v.3zM10.2.9l.2.1.6.4.3.3h.2l.2-.1V.8l-.4-.3h-.2l-.1.3h-.8zM172 253.2l.2.3.1.3h.3l.2.1h.2l.2-.2.2-.1h-.9l-.2-.4v-.2l.2-.3h.1l.1-.3h.3l.1-.2h.1l.1-.2h.1l.1-.2v-.8h.3l.5-.2v-.2l-.5.2-.3.1-.4-.1-.1.2h.2v.3h.3v.5h-.3l-.2.2v.1l-.3.1v.1l-.3.1-.1.2-.3.4zm62.1-60.5l.2.3v.1h.4v.5h.2l.1.1v.1l.2.2h.3v-.1l.1-.1v-.2h.1v-.4l-.3-.2h-.6v-.2h-.2v-.2h-.4zm57.4-34.1v.2h.3v.2h.2v.1l.2.1v.1h.4v-.3h.2l.1.2.1.1v.1h.3v-.4h-.5v-.2l-.1-.1v-.1l-.3-.2-.4-.2h-.2v.3h-.2v.1zm.3.4v-.4h.2v.2zm.2-.3v-.2zm.1.3l.1-.2v.4h-.2zM-23.2-85.3h.2l3.3-1.5 2.2.3 2.5 3.7.3 3.2 1.5 2 3.9.6 4.3 2.4 2.2.2 1 .6.8 1.2 1.4-1 2.6.5 1.2.8 1.2-.8L7.6-71l1.7.4.9 1 1.6-.4 1.1 1.3 1.6-.5 5 1.2h2.6l2.9 1.2 1.2 1.4 9.8 3.5 7.7 3.9 1 1.3.7 2.7.9.7.3 1-.5 1 .7 2.7-.3.7.6 2.6-.4.3.3 2-.6 3.5-2.1 2.9-.6 2.1-1.7 1.3-.2 1 .6 1v1.2L41-27.6l-1-.6h-1.7l-2.6-.8h-2.2l-1.5.5-1.7-1.2-.5.5h-.7l-.4.6.2.4-.7.5 3 6 1.9 1.9h-1.5l-2 1.1-1 1.4-.4 2 1.4 2L31.3-9l-.1 3 .6 4.4-.1 1.7h88.5l.4-3.1 1.6-3.6.6-.4 1 .4v.8l1-.2.7-1 1.1-2.4h1l.6-1.4v-.9l-.6-.8-1.9.9.3-.5-.5-1.7 3.2.2 3-.8-.1-.6h-.6.6l.3.6.7-.3.7-.9 2.4-.8 1.3-1.4 3.2-1.8 2.5-.3 2.3.7 1-.2 1 .7 3.6-1.1 2.2-1.2 3.4-2.7 5.2-6.5-.2 1.8.6.1-2.6 2.5.3.8-.3.3-1.7 1.3.5.4.3-.8.2-.2-.3 1.5h-.9l1.4.9.4.9-.7-.2v.1l.6.4 1.4.2 1-1-.6-.3v-.8l-1 .7.7 1h-.3l-.8-.4-.9-1.3.2-1.5 2.1-1-.6-.4v-.8l.4-.3.4.3.4-1.3.6.2v-.8l.6-1.1v1.5l.3-.1.3-2-.1-.4-1.3-.5 1.1-.5-.9.2.8-1.2-.8-.8h-.4l-.3 2.5-.5-.5-2-8.7h-.3l-.8-1.4-.7-2.2 1-14.9-.8-2.3.4-4.1-1.9-4.7-.7-1-1.2-.5-1-1.4 1.1-3.3v-5.3l1.3-4.5-.3-1.1.5-3-1.2-1.1 1.9-4.5-.5-.8.5-2.4-.5-1.4 2-5.3 1.2-5.5v-5.4l-.3-3.7-.9-2.6-1.6-1.6-5.3-1-2.7-1.5-3-.5-1-.5-1-2 .7-2 2.6-2.3 5.3-.5 3.1-.8 3 1.6 2.3 2.3 3.8 2.7 1.3.5h3.2l2 .6 4.8 3.2 3.7 1.5 7.2.2 8-2.2 2.9-.2 6.9 1.6 6.2 3 9.2 3.5 4.9 1.4 5.2.5 5.7-.6 7.1 1.3 13.8 6.7v-172h-279v186.4l1.2.4 1.9.7h-3v.6zm61.7 15.9l4.2 5.4 1.7 3-5.7-8-4.7-4.6-1 .5-1.5-1.2-3.8-1.5-2 .3-2.3-.5-1.7-1.4-3.3-4.3 4.6 1.5 6.3 3.2 4.7 3.3zM6.8-74.1l-.6-1-.2-.6.7.1.7 1.8zm99.6 65.7l-1.9-1.4v-1l2.5-2.4 2 .2.8 1.4-.2 2.1.4.8 1.3.4-1.7.6zm55.5-23l-.1.4-.3.2.1-.9zm-52.2.1l3.8-1.4 6.6-1.1 5.1.2 4 1 1.9.6.1.2-6.3-1.4-1.6.2-.3.5.5.5-.1.9-2.6 7-6 8.8-1.9 2.1-1.3-4.1-1.3-2.3-1-.4-.2.3.5.5-1.5-.8.2-.4-.8.4-2-.6h-2.4l-.9-.4-1-1.9.4-1.3 3-3.4zm-7 5.4l-1.2 1.6-3.5 2.7 1-1.3 3.8-3.3zm59.3-5.7l-.2-.4.2-.4.5.4zM-1-74.4L-2.9-76-3-77l1.2-.2 1 1.2 1.8.4.5.5-.3 1.1zm5.6-2.1l.2-.6.8-.1.8 1.2zM4.3-79l-1.1-.6-.6-1.2.2-.5 1.4 1.5zm-5.8 1.6l-.6-1.3.5-.6 1.2.7.4.9-.6.7zm19-4.8l.5.4-1 .5-7-2.2 3.4.2zM-1-85.7l-2-.4.1-.4 2 .5zm-2-.6l-4.4-1-3.5-1.2.5-.2zm-16.8-5.2l2.5 1 6.5 1.8-2.7-.1-5.3-1.7-1-.5zm9.8 10l-1.6.5-1.1-1.2.6-.6 1.2-.2.6.5zm17.4-1.7l-8.1-2.2-.3-.6 8.1 2 1 1v.6h-.2zm0 .1"/><path d="M-23.2 132.5l2 .7 7.8 5.1 4.4 1.5 5.9 6.5 5.4 3.2 2.4 3.2 1.6 1.3 2 .7 2 4.2 1.7 1.6 2.5 1 4.5.5 5.3 2.3 3.6-.2 6.7-1.5.8 2.8 1.6 1.9 3 2.3 1.4 2.1 2 8.6 2.5 22.9-.4 3.2-3.1 8.8v2.1l1 3-.4 1.5-.6.2.4 1.7 2.7 6.7 1.5 5.4 1 1.7 3 2.8 4.8 2.4 4.4 4.8L64 249l5.1.6 6.3-.6 13-2.3 8.9-2.8.7.1-1 .8.3 1 1 1.1.9-.4v-1l.8-.5.3.8.3-.3-.9-1.2v-.7l2.3-1.2 11.8-1.1 10.6-2.9 5.1-2.1h5.5l1.6-2.3.6-.3 1.2.3 1.1 1.7 2.3 1.7 1 2v.8l-1.1 1.8v1.4l1.5.8 2.6-1.5 1.6-.3 2.2-1.4h.8l.6.5 1.8-.6h2.7l.6-1.7-.1-1.2-3.2-.9-.3-.5 2 .6 1.2.2.3-.5 1 .6v-.2l.6 2.3.5-.2.2-1.4-1.3-1.5-1.3.2-1.4-.8h-2.4l-2.9-1.2-5.4-.8-.8-2.1.5-.9-.3-1.9.8-1.2v-1.6l.6.2 2.4-2.2h2.2l.7-1.7h1.1l2-1.8-.4-1.3.6-.8.8-.3.5.4.3-.7 1.2.4.6-.4.7-2.8 1.5-1 .7.3v-5l2.4-3 1.1-.5h1.2l3.1-2 8.4-4.8 2.8-2 5-5 6.1-7.9 6.7-10.5 2.6-2.3.8-3.5 3.5-9.1-.3-3.2-4.2-10-3.9-3.9-4.1-1.2-1.5-1.7 2-5.2 2.6-12.5-.6-2.9.5-10.3-3.2-7-1.2-5.4-5.1-10.7-1.6-1.9h-.6l-.5.6-1.7-1.2-.2-2.3h1.2l.8-.4-2.1-.1-1.7 1v-2l-.3-.1-.3 2.8 1.4 4.3-.4-.4-1.5-3.2-.1-4.7.9-11.9-.5-5-.8-1.9-1.4-1.4-2-.8-.8-1.4-1.6-.3-.7-.6.5-1.3v-6l-.3-7-2-8.1-2.4-5.4-2.7-4-3.4-3.6-1.6-1-3-.9h-7.9l-5.9.8-4.7 1.5-.8.8-1.6.5-1.1 1-6.8.7-4-.3-1.3-.4-2-2-1.5-.7-.8-1-.2-3.1.5-3.6 1-3.6 2.4-4 .3-3.3H31.7l-.1 1.4L29.9 8 26 19.5l-2.6 4.8-3.6 5-18.2-3.8-1.3.7v1.4l-.8.5-2.9.8h-2l-2.3-.5-5-1.9-3.1-.5-3.6-1.8-3.8-.7zM99 246.5l-.8-.5v-.3l.4.2zm79.8-163.7l.1-.8.4-.6.2 1.6-.7.8zm-.6-1.1l1-.8-1.2 2.3V82zm-.6-.4l.4-.5.3-.2-.6 1.1zm0 0"/></g></g></svg>