<svg xmlns="http://www.w3.org/2000/svg" viewBox="0 0 497 279"  xmlns:v="https://vecta.io/nano"><path fill="#f2efe9" d="M0 0h497v279H0z"/><g fill-rule="evenodd"><g fill="#cdebb0"><path d="M225.8 287l3.1 5 3.1 4.6v-.6l4-3.4 3.1-3.4 4.3.5 2.8-.8 4.1.5 3.9-.3 1.6-3.4-3.8-1.4-4-.3-3.1-.5.5-2-1.9-1 .6-1-1.3-1.8-2 .8.6-1.2.6-.1 1.6-1 .4-1.6h1.5l-3.2-.6-4 3.3-3.4 2.7-3.4 1.7.5 3.1-.6-3-2 2.4-1.5 3zm0 0"/><path d="M253.6 284.1l2 3.6 3.7 1.9 2.7 2 .9-2.9 1.1-2.4.9-1.9-1.5-1.8v-.6l-.2-2.7.9-2V273l-.1-1.2 1.8-1.5-4-1-2.8.5-.5 2.5-.7 2.6-1.6 5.6-2.6 3.4zm0 0"/></g><path fill="#eee5dc" d="M0 264.5l2.5 3.1 1.6 3.5v1.5L3 274.5.3 276.3l3.1 2 1.1-1.4.5-1 .3-.2 2.3-1.5 2.3-.4.1 3 1 1.9 1.8-2.3v-.5l2.7 2.5 2.9-1.1 2.1-1.3-2.8-1.3 1.3-1.8-2.3.5V272l1-1.3-1.4-.6 2.2-3.3-1.3 1-1.9 1-.9-.9v4.1l-2.3-.8.6-3.5-1.5 1.4-.2-1.8v-.9l-1.8 2.2-2 .1-1.4-.2-1.6.8.9-1.3 1.8-2.5-3.8-1.7.5-1.9 2-1.7-1-2.2-2.2 2.6-2.4 3.9zm0 0"/><g fill="#cdebb0"><path d="M245.3 280.5l3.1 3.5 4.1.3 3.6-2.7 1.3-5.2-1.1-5-4.3.6-3.7 2.3.2.5v.9l1.8.3-.4.8.1 1-1.3.6.3-.4.4-.8-1.1-1.2-.5 1-.3 1.6-.3-.1-.7-2.2-1.2 4.1zm0 0"/><path d="M243 277.5l2 1.7-.2 1.5.6-.5.8-4-2.7 1-.5.4zm0 0"/></g><path fill="#eee5dc" d="M18 226.3l.6 1.5L20 225l-1.4-.2zm1 .9l1-2.3h.1v.1zm-14 10l.7-.8-.6.8zm-3.5 9.6l.5-.5-.5.3zM0 245.5l.7-.3-.7.2zm0 0"/><g fill="#aad3df"><path d="M327 335.8l1 1 1.6 1.2.8.3 2-.7.6-2.2 1.4-2-.5-2.6-.7-1.3.6-2.3 2-4.5 1.2-2 1-3.1.4-1.2-.4-1.4.3-.8 1.4-.3h1.3l1.1.2 2.9 2.1 2 1 2.8.8 2.2-.4 3-1.4 2.1-1.5.6-1.2.6-1.4 1.4-1.9.7-.5.4-2.7.4-1.8 1.2-2 2.3-3.2 2.3-1.3 2.9-1.5 1.6-1.2 2.8-.1 1.5.1 1.7-.4 1.5-.8 1.2-.7 2-.6 1-.6.2-1.1 1.1-1.3.6-1 .3-1 3.6-5.5-.4-2.9 1-2.1.2-1 .3-1.3-.4-1.2.6-1.8 1.2-2 1-3.5.7-2.2h.1l1.2-1.2 1.4-1.2.5-.9.3-.3-.2-.2v-.2l-.4-.4v-.2l-.1-.4v-2.6l.3-.4.1-.6.4-.5.4-.5.5-.5.7-.4 1.3-.5 1.7-.8.8-.5.8-.4 1.3-1 1.7-1h1l.4.2.3.4.3.4 1 .4h1l1-.7 1.7-.2 1.5-.2.6-.4.6-1 .9-.4.3-.3 1-.6.6-.6.8-1 1.5-.9.8-.2h1.3l1 .5.8-.7-.2-2.1-1.4-.2-1 .1-1.2.2-3.2 1.3-2.4.3-.7.2-.2.2-3.5 1.8-6 1.5-2 .9-1.8 1.6-3 2-1.1.7-.9 1.4-1.5 3.8-.6 1.2-.7.8-1.1.6-1 2.2v1.7l-.7 3-1.8 4.1-.6 2.7-.4 3-.3 1.6-.8 1.6-2.7 3-2.5 4-2.9 2.8-2.4 1.4-1 .2-.7-.3-.4-.3-1.5.3-1.2.6-1.2 1-1.8 1.6-.8.6-1 .5-1.3.1-1 .8-1.9 1.8-.8 2.3-1.4 2.3-2.2 3.6-1 1.5-.9 2.3-1.3 2.2-1.6 1.5-1.4.5-1.6.2-1.5-.2-2-.4-2.3-.9-.4-.6-.7-1.4-.8-.6h-1.3l-1.4.1-1.7 1.3-1.7 1-1.5 2.6-1.2 1.8-.7 2-.7 1.3-.7 1.2-.2 1.1-.7 1.4-.3 1.3-.3 1.4.3.8.4 2.1-.5 1.3.4 1 .7 1.4-.3.5-1.8.3-1.3-.5zm3.4 1.6v-.1l.2-.1h.3v.1l-.1.2h-.4zm.6-10.3l.3-2.3 1.3-2.4 1.6-2.6 1.4-2.2h.1v.7l-.7 1.7-1 2-.8 2-1 2.1-.6 1.4-.3.1zm.2 5.2v-1l.4-.6.4 1.1v1h-.3zm3-13.2v-.6l.2-.5.6-.8.6-.6h.1v.4l-.7 1-.3.6-.2.4h-.2zm21-4.4l.4-.6.9-1.1 1.4-1.7h.2l-.5 1.1-.6 1.3-.7.7-.6.4zm15.8-21.2l.5-.5 1-.4 1.2-.2.7.3.3.1-.2.2h-.5l-1 .4-.4.3-1.2.1h-.2zm1.8.3l.2-.3.6-.3 1.4-.2.6-.2h.2l-.4.3-1 .5-1.2.3h-.3zm2.7 1.9v-.1l.8-.3 1.2-.6.8-.7.3-.6 1.3-1 1.9-1.2 1.6-1.4 1-.8h.3l-.1.8-1.1 1.2-.3.8-.4.9-.5.3-1.3.3-1.5.9-1.3.7-.8.5-1.2.4h-.6zm7.9-7.8v-.4l.2-.5 1-1.6 2.1-2.4 1-1.1v1.1l-.7 1-2.9 4h-.7zm24.8-37.6l.1-.2h1.2l2-.5 2.1-.3 1.4-.3v.4l-1 .6-1.6.4-1.5.4-.9.3h-1l-.6-.6zm4.2-3.5l.3-.5 1.3-.8 2-.4 2-.2.2.2-1.3.9-.9.7-1.4.3h-1.7zm0 0"/><path d="M424 242.9l.6 2.1.4-.2h.7l.3.4h.3v.1l.3.2v.2h.1v.2l.1.1v.2l.1.2v.1l.1.2v.1l.2.2v.2h.1l.3.2.2.2.2.1.2.1.2.2.3.2.1.1.2.3v.1l.2.3v.2l.2.1v.1h.1v.3l.1.1.1.2.3.2.2.1.1.1.2.1h.2l.2.2h.2l.3.3h.2l.1.1 1.4.6.9.4.8.9v2.3l-.1.9-.1.4.2.8.7 1 .3.6.1.8v.4l-.1.1h-.5l-.1.5v.4l.1.5.2.3v.2l.5.4h.8l.5-.1h.3l.1.8.3.5-.3 1 .2.8.1.4-.2.5.1.8.2.4.5.6 1 .2h.7l.7-.8.3-.3.4.1.5.8.2.3 1 .3.6.7.8 1.6.6 1.7.8 1.6-.2 1.1-1 2-.9.6-.1.5-.5 1.3-.3.8.3 1.2.6.6.9.5h1l2.1-.2h1.3l.6.4.6.8.4.5.3.1.3-.3h1l.2.3h.4l.3.3.5.6.2.6v.4l-.2-.3v-.2.9l.5.4.5.6.5.7v.5h-.5l-.5.8-.1.4v.4l-.1.2v.5l.1.5.6.5.5.3.5.1 1 .2.4.2.6.5h.2v-.4l-.8-.6-1.2-.4-.8-.2-.6-.4-.2-.8.4-.4.5-.7.3-.5.1-.4-.3-1-.2-.4-.6-.6-.2-.6v-1.3l-.5-.9-.9-.4-1-.3-.7.5-.6-.3-.4-.7-1.2-.8-1.6-.1-1.9.1-1.1-.6-.3-.8.4-1.8.8-.8.9-.9.5-1 .6-.9V273l-.6-.6-1-1.3v-.8l-.3-.5-.7-1-1.6-1.3-2.1-1.5-.3-.8-.1-.7-.5-1-.4-1.1-.2-.8-.2-1.6v-.7l1-.6.5-1.2.1-1.9-.1-1-.3-.8-.2-.6-1.2-2-.4-1.1-.3-.1-.3-.5-.1-.4-.3-.6-.5-.2h-.9l-.9.2-1.2.1-1.3-.4-.6.1-.6-.3-.3-.1-.3-.2-.2-.2-.4-.3-.2-.2-.1-.3-.2-.7v-.3l-.7-1-.2-.8-1-.4-.4-.2-1.2-.8h-2.4zm5.8 5.4l.1-.3.3.1.8.9h.6l.9.4 2.8.8 2 .6.7.5.5.4 1 1.5.5 1.2.1.5-.5 1.6v.3l-.9 1-.2-.5h-.3l-.9-.3-.9-.2-.6-.6v-.8l-.3-1.4-.2-.8-.5-1-.5-.2-.6-.6-.2-.2-1.3-.4-1.7-1-.7-.8zm5.4 7.5v-.1h.3l.2 1 .6.4 1.1.5v.1l-.4.3h-.8l-.6-.6-.4-.9zm.6 5.9l.3-1v-.5l.3-1.1v-.6l.6-.2h1.3l.2.5-.2.2-.4.4-.3 1.5-.3.6-.3.7h-1zm2.6 2.9l.2-1.4.3-.7h.1l.7.9.3.9.3 1.6h-.1l-1-.3-.6-.4zm.3 2.1l.1-.4h.4l.8.4.7.5-.4.6h-.5l-.8-.2zM404.4 9.6l.2.2.5.2 1 .2h2.5V10l.4-.1.6.1h1.2l.2.4v.3h.2l.2.2v.1h.2v-.4h.7l.5.4h.4l.1-.3h.4v-.4l.6-.3h.2v.2-.3l.2-.1v-.2l-.6-.6h-.6l-.2-.3.2-.2h.2v-.3h-.3v-.4h.5l-.3-.5v-.1l.3-.2v-.1h-.4l-.3-.3h-.3v-.1l.1-.3V6h.5l-.2-.3.1-.2.2.4.4.1h.2v.6l.2-.1h.1l.1.4.1-.1v-.4h.3l.2-.1v-.4l-.2-.4-.6-.4h-.1l-.3-.3v-.2h.4l.1.1.3.2h.2l.2-.1v-.2l-.2-.3v-.2h.2V4h-.2v-.3h-.3l.1-.6.2-.1h-.3v-.1l.1-.2h.3l.2-.1v-.4h-.3V2l-.4-.2h-.3l-.2.2h-.4l.1-.2v-.2h-.4l-.4-.2V.8h-.8l-1.8-.2h-.3l-.1-.5-.3-.1-.5-.2-.9-.2h-.8l-.6.3-.7.1-.6.3-.3.3-.1.3v1h.3l.2.4v.5l-.1.2v1.4l.1.4v.4l-.1.3.1.3V6l-.4.6-.5.6-.2.4v.2l.3.2v.4l-.5.6zm1.1-8.6h.2l.3-.3h.2V.6l.2-.1V.4h-.2l-.1.1-.3.3h-.1V.4h.1l.4-.2.8-.2h.2l-.2.3.5.2v.2h.4V.4h.3l.2.4v.3h-.3l-.5.3h-.2l-.5-.1h-.4l-.4.3-.3-.1-.2-.3zm6.3 5.4l.1-.2.2-.3v.3l-.1.2h.2l.2.3v.1l-.1.2h-.3v-.5h-.3zm.3 1.4v-.1l.4-.2.5-.2V8h-.7zm1-2.4l.1-.6.1-.6V4h.2l.1.5v.4l-.3.5-.1.1h-.1zm-.1 0"/><path d="M443.4 267.5l.6.5.8-.1 1.6.3h2.3l.7.8 1 .5.4.5.6.7.6.7v.8l-.1.4-.3.2v.5l.2.5v.9l-.6.5-.5.2h-1.1l-.4-.2-.2-.2h-.4v.2l-.2.3-.4.2h-.2l-.2-.4-.6 1 .7.2h.4l.4-.5h.9l.7.2h.5l.7-.5.5-.3.4-.4h.9l.7.2 1.2.4 1.2.2h.6l.6.1.6.3.4.2.3.6v1.5h-.5l-.4.1-.1.2-.3.2v.6l.2.4v1l-.5.8-.4.7v1.6l.5.6.8.7.8 1 .5 1 .4 1v.8l-.1.6-.4.5-.2.7v.4l.7.8.6.6.6.1.8.2h1.2l.3-.1.8-.2 1-.1.6-.1.7-.3 1.3-.1.9-.2.5.2.7.3.5.5.1.6v.7l-.3.7-.2.6v.4h-.2l-.2-1-.3-.8-.5-.8-.5-.4-.5-.2h-.6l-.2.3.3.1.9.2.6.4.5.8.1.7-.1.2v.9l-.1.8.2.5.2.8v.5l-.1.5-.1.6v.5l1.2.4-.2-.5V298l.1-1.5.4-.8.3-.9.1-.6V293l-.3-.5-.4-.5-.7-.4-.7-.2-1.2-.2h-.7l-.3-.4h-.5l-.7.8-.6.2h-1l-.3.2h-.7l-.6-.3-.5-.3-.3-.5-.3-.6-.5-.8-.3-.7v-.1l-.3-.7v-2.3l-.1-.7-.4-.5-.5-.2h-.5l-.4-.3-.3-.6-.3-.6v-.5l.1-.6.2-.2.3.2.3-.4.4-.6 1.1-.5.7-.7.5-.8v-.7l-.4-.8-.8-1.2-.8-.7-2.5-.6h-.4l-.9.3-.9-.2h-.5l-.4-.5v-.6l-.1-.7-.4-.3-.2-.4-.5-1-.5-.9-.4-.9-.6-.2-.5-.3-.5-.6-.7-.4-.8-.2-.4-.2h-1.3l-1-.1-1-.5-.5-.2h-.3v.3h-.4zm-32.1-51v.2l.2.2h.1v.4l.1.2h.4l.2.1.2.1h.2l.5.2v.4l.1.2v.2l.1.1h.3l.2-.3.3-.1v-1.1l-.3-.2h1.4l.3-.4v-.7l.2-.1h.4v-1h.1v-.4h.3v-.1l.3.1v-.1h.1v.1l-.2.1h-.1v.2h.6l.2-.3-.3-.2-.1.3h.2v.1h-.3v-.5h.4v-.2h-.4v.1h-.2v.1-.4h.2l.2-.1v-.6h-.2v-.3l-.2-.1v.3h-.2v-.3h-.2v-.2l-.1.3v.2h-.3.2v.3l-.2.2v.3-.2h-.1v-.4h-.1v-.2h-.2v-.4l.2-.1v-.2l-.2-.3h.4v-.3l-.2-.3-.1.2h-.2v.4h-.4l.2-.2h-.3v.5l-.2.1-.4.1v.1l-.3-.2v.3l-.4.2-.1.1-.3.2-.3-.1-.4.1v.2l-.1.2v.4h.4v1h-.7v.2h-.2l-.3.4-.2.2v.2l-.3.1zm5-3.3h.1v-.4l.1.4v.1h-.1zm.4.3h.3v.3h-.2v-.3zm.2.8l.1-.1h.1v.1zm-11.2-1.6h.2v.3l.1-.2.7.5v.4l.3.3.3-.2v-.2l.3.2.9.2.1-.2.6-.2v-.2l.4-.2v-.6l-.3-.9v-.9h-.3v-.6l-.2-.1-.9-.8h-.6l-.3.4v.4l-.1.1v.7l-.1.2-.4-.2h-.2l-.2-.2v.7l-.3.3v.5zm1.2.9v-.2h.3v.1l-.2.2zm89.7-187.8v.5l.2.2v1.2l.2.3h1v-.3h.6v.3h1.1v-.2h.2v-.1l.1-.2v-.2l.1-.1v-.9l.2-.3v-.2h.1v-.5h.1v-.1h.1l.1-.4v-.2l-.3-.2v-.2l-.2-.2h-.2v-.1h-.9l-.1.2h-.2l-.2.2h-.1l-.1.4h-.4v.2h-.2v.1h-.3l-.5.2-.2.1h-.1v.1h-.2v.1zm-27.9 51.9v.6h1V78h.6v.3h.2v.1l.1.1h.2v.3h-.2V80h.4v.3h.4v.1h.6v-.3h.3V80h.2l.1-.2h.1v-.3h.1v-.2l.1-.1V78l-.5-.2h-.1v-.2h-.1l-.2-.1V77h-.3v-.6h-.2v-.3h-.2l-.2-.1-.4-.2h-.2l-.3-.3H469l-.2.2v.7l.2.1v.3l-.2.2v.6zM271.3 273.2h.3v-.2l.2-.2v-.2h.7v.2l.2.2v.3h.2v.1h.1v-.8l.3-.2.2-.2h.6l.3-.2v-.3h.4v-.1h.2v1h-.2v.7l.4.2.3.3h.2l.1.1h.5l.1-.3h.2v-.8l-.3-.2h-.1l-.1-.2h-.1l-.1-.1h-.2v-.2l.3-.1.1.2h.3v.1h.9v.1h.2l.2.2h.1l.4.2h.5l.3-.2v-.2l.1-.1v-.5h-.1v-.2h-.1v-.1h-.6v-.1h-.2l-.3-.4h-.3v-.6l-.2-.1v-.1h.7l.1-.1h.2v-.1h.4v.3l.1.1v.5h.2v.2h.2v.6h.1v.1h.2v.1h.8l.1.1h.4l.2.2v.3l.2.1h.1v1.3h.2l.1.1h.4v.2-.2h-.5v-.2h-.1v-.1h-.1v-.3h-.1v-.2l.3-.2v-.4h-.5v-.6h-.7v-.4h-.2l-.3-.4v-.2h-.3v.7h-.1v-.5l-.2-.2v-.1l-.2-.3v-.3h.3l.1.2.1.3v.1h.2v-.6h-.3v-.2l-.1-.3h-.1l-.3-.2h-.4l-.1.2v.2h-.3v-.6l.3-.1v-.3h.2l.3-.2h.4v.2h.2l.1.3h.8v-.2l.2-.1.1-.1h.1v-.1h.2v-.2h.4v.4h.1l.1.2h.1v.1h.2v.2l-.4.1v.2h-.1v.2l.3.2v.2h.1l.1.1h.5l.1.1h.7v-.3h1.1v.3h.1l.1.2h.5v-.3h.3v-.5h-.1l-.2-.1v-.2h-1v-.2h-.1v-.1h-.1l-.3-.1h-.2v-.1h-.3l-.2.4h-.5l-.1-.3h-.2l-.3-.2-.2-.1v-.4h-.3v-.1h-.2l-.3.4h-.1v-.3l.3-.1v-.4h.1v-.4h1.2v-.1h.1v.2l.2.2h.6l.1.2h.7v.2h.1v.1l.1.1h.2v.3h.7l.1.1h.4v-.3h.3v-.3h.1v-.2h.1v-.6l.3-.1v-.9h.2v-.3h.5v.3h.6l.1-.5v-.1h.2v-.5h-.3v-.1h-.2v-.2h-.2v-.2h-.2v-.6l-.1-.1h-.3l-.2-.2h-.2l-.2.3h-.4v-.3h-.1l-.1-.1v-.4h.4v-.1l.2-.1.1-.1v-.3.3l-.2.1-.2.2h-.1l-.2.1v.2h-.1v.1h-.1v.2h.2v.2h.4v.1h.5v-.4h.4v.3h.3v.6l.2.2v.2h.2v.1h.2v.2l.2.1v.2h-.2v.2h-.2v.2l-.2.1h-.2v-.3h-.6v.2l-.1.2v.4h-.1v.4l-.2.1v.1l-.1.3v.3l-.3.1v.3l-.2.1h-.1l-.1.2h-.5v-.3h-.2v-.1h-.2l-.3-.2v-.3h-.4l-.1-.3h-.6v-.3l-.1-.1h-.4l-.4-.3h-.1l-.3.1h-.3v-.1h-.2v-.2.3h-.1v.7h-.3l-.2.2v.3h-.1v.4h.3v.3h-.4l-.2.2h-.3l-.1-.2-.3-.1h-.1v-.2h-.1v-.1l-.2-.1v-.1h-.3v-.1h-.1v-.3h.3v-.3h-.3v-.2 1.2l-.2.1v.1h-.2v.1h-.1v.2l-.1.2v.7h-.2v.2h-.5v.3h.3v.1h-.3v.3h.4l.1.2h.1l.2.3.2.1h.3v.2h.4v.8h-.4l-.2.2h-.5l-.3-.3-.1-.1v-.1l-.4-.3h-.1l-.2.3h-.2v-.3h-.6l-.1-.2h-.4v.5l.3.2h.2l.3.3h.2v.6h-.4v.2h-.1v.3h-.5v-.3l-.2-.1h-.1l-.2-.2h-.1l-.1-.5v-.2h.2v-.2l.2-.2v-.2l-.2-.2v-.2h-.5l-.5.3h-.7l-.1.1h-.1l-.1.4h-.2l-.2.3h-.9v.2h-.1v.3h-.2zm4.2-1.2v-.1h.3v-.2h-.1v.3h-.1zm6.5-1.7v-.2zm2-.3h.3v-.2h.3l.1.2.1.1.2.1v.4l-.3.1v-.3h-.2v-.2l-.3-.2zM476.1 61.6v.1l.3.1h.1v.2h.2v.5h.1v.1h.2v.6h.2v.1l.4.2h.4v-.4l.2-.2h.3v-.2h.2l.1-.1v-.2h.2v.3h.8l.2-.3h.2v-.2l.1-.2v-.3l-.1-.2-.2-.1v-.1l-.1-.1-.2-.2-.2-.2-.2-.1-.1-.2v-.1l-.2-.1-.2-.2h-.5v.3h-.1l-.2-.4h-1.2v.2h-.2l-.1.1-.1.2-.1.5-.2.2v.3zM407.7 208h.3v.3h-.2v.1l.2.1.2.2v.3l.1.3h.3l.4.5v.1l.5.1h1.1v-.8l.2-.2-.1-.2v-.3l.3-.3v-.2l.1-.2.3.2v-.7h-.1l-.1.2v.1h-.6v-.3l.2-.1h.2l-.3-.2-.4.1-.1-.2h.3l-.3-.2-.5-.9h-.2l-.3.3v.2l-.4.1v.3h-.2l-.4.3v.3l.1.1v.6h-.2l-.1-.2zm2.9-.2h.4zm-163 76l.1.2h.7l.1.4h1.5l.1-.4.3-.1h.3l.1-.4v-.4h.2v-.3h.7l.1.2.2.1.1.2v1l.3.1h.4l.2-.2h.4l.2.2v1.3l.1.2h.1l.2.4h.4l.2-.2v-.1l.1-.1.3-.1.3-.4.2-.1h.2v1.1l-.1.2-.1.4v1l.5.8v.5l-.3.2v.3l.3.1.2.2h1.6l.2-.2.4-.2.3-.2h.4l.3.2v.3l.2.3h.4l.2-.1.8-.3.2-.1h.5v.6h-.3l-.1.2-.1.1v.7l.4.6h.4v-.4h.6v.4h.6v.2h.1v.7h-.3l.2.1.1.1h.5l.7-.5.5-.2.4-.3v.2l.2-.1h.9l.1.3.1.1.3.3v.1-.5l-.4-.1-.2-.4h-1.1l-.3.2-.3.2h-.1l-.4.3-.3.3-.2.1h-.2l-.3-.3v-.6l.2-.2.1-.2.1-.1.1-.5v-.2l-.1-.3-.2-.1h-.4v-.5h.2v-.3l-.4-.5v-.3h.8v.1h.4v-.3l.2-.1v-.4l.3-.3.2-.2.1-.1v-.3h-.2v-.2h-.4l-.3.2h-.4l-.1-.4v-.4h.6l.1-.3v-.1h-.3v-.2h.4l.3-.2-.2-.2h-.3l-.1-.1v-.5h.1v-.2l.8-.3h.2v-.5h-.1l-.1-.2h-.8l-.3.2-.1.2h-.6l-.1-.1v-.4l.1-.3.1-.1.2-.1h.5l.2.1h.3l.1-.2v-.4l-.1-.1h-.6l-.4-.2h.2l.2-.2h.1l.2-.2v-.8h-.4l-.2.2v.6h-.4l-.1-.3-.2-.3-.1-.2v-.5l.4-.5h.1l.1-.2h.2l.2-.3v-.1h-1.1v-.2h-.3v-.1l.3-.1h.3l.3.1h.2l.3-.1v-.2l-.3-.1-.1-.2-.4-.4v-.7l.4-.3v-.3l-.2-.6v-.2l.1-.2h.4l.2.5.2.3v.6h.1v.2h.1v-.5l.2-.2v-.2l.2-.3v-.9l.2-.3h.8v-.9l-.3-.1-.2-.2h-.7v-.3l-.1-.1v-.4h-.2v.4l.3.2v.2h.7v.2h.1l.2.3v.7l-.1.2h-.8v.7l-.1.3-.3.5v.5l-.2-.2v-.6l-.1-.3-.2-.2-.2-.1h-.2l-.1.1v1.2l-.3.7v.4l.3.1v.2l.4.3v.2h-1.2v.3l.3.1.5.1h.5l-.3.3-.3.3-.3.2-.2.4v.5l.4.2.1.3.2.1.1.1h.2l.1-.3v-.5h.4v.8l-.3.2h-.2l-.1.2h-.4l-.4-.5h-.7v.5l.4.2h2.1v.5h-.5l-.1-.2h-.5l-.2.3-.1.2-.1.3v.2l.2.2.2.1h.4l.2-.3h1l.2.3v.1h-.4v.2l-.3.1-.4.2-.2.1v.3l.1.2.2.2h.3v.3h-.3l-.1-.2-.3-.2v-.1h-.2v.5h.2-.1v-.4h.3v.6l.2.2h-.5l-.2.3v.6l.3.1h1.1v.5h-.2l-.2.3h-.1l-.2.2v.3l-.2.3h-.4v-.3h-.5l-.2.1v.7l.3.2v.5h-.4v.2h.2v.2h.2l.3.1h.1l.1.1.1.2v.5l-.1.2-.2.2v.1h-.5l-.3-.2v-.3l-.2-.1h-.1l-.2.3-.1.2h-.2l-.2-.1-.1-.3-.1-.1v-.2l-.2-.2v-.2l.2-.2.4-.3v-.4l-.1-.2h-.4l-.2.1-.4.1-.3.1-.5.3h-.3v-.3h-.1v-.3l-.2-.1-.2-.2h-.2l-.3.2-.8.4h-1.5l-.2-.2-.1-.2v-.3l.1-.1v-.5l-.3-.5v-.2l-.2-.3v-1.2l.4-.4v-.8l-.3-.1-.4.1-.3.4-.2.1-.1.2-.3.1h-.3v-.2l-.3-.2v-1.4l-.1-.1v-.2l.2-.3.3-.1h.1l.3.1h.5v-.4l-.2-.4v-.2l.2-.3.1-.1h.3l.3-.3h.2l.2-.2.1-.2v-1.1l-.2-.6v-.6l.5-.3.1-.5v-.5l-.2-.4v-.3l.2-.3h.4v-.2l.5-.2v-.2l.2-.9.1-.3v-.3l-.2-.3-.3-.1-.4-.2-.2-.3-.1-.2h-.1l-.1-.5v-.1h-.2v.1l.2.2v.2l.1.3.2.2v.1l.3.1.2.1h.2v.2l.3.1v.4l-.1.4-.1.4v.4l-.3.2-.2.4h-.3l-.2.2h-.1l-.1.2v.2l.2.4v.6l-.3.3-.1.3-.1.4v1.2l.2.5v.5l-.5.2-.2.1h-.2l-.3.3-.2.1v.5l.2.4v.2l-.2.1h-.3l-.3-.3h-.2l-.3.3-.2.1v.4h-.8l-.2.2h-.2l-.2-.2v-1h-.1v-.2l-.3-.1h-.9v.6l-.2.2h-.2v.3h-.4l-.1.1h-.2l-.3.2h-.9l-.4-.3h-.1l-.4-.3v-.1h-.1zm14.3-1.5l.1-.3h.2l.3.2.2.1.3.3h.2-.3l-.2.2h-.3l-.4-.3-.1-.1zM459.6 60v.3l.2.1v.7l.1.3.1.2v.4l.2.2h.1v.1h1.5l.3-.3h.2v-.2l-.2-.2h-.1v-.9h.6v-1.3l-.2-.1-.4-.1h-.6l-.3-.2h-.1v-.2h-.5v.2h-.3l-.2.3-.3.1v.6h-.2zM-34617 260.3h.3v-.2l.1-.1v-.2h.2v-.2l-.2-.2h-.1v-.8h-.2v-.4zm35707.6-.7v.4l.2.2v.3l.1.3.3.5v.4l.2.3v.2l-.1.3-.1.2h-.2v.2l.1.3.4.1h.5l.5-.9v-.5l-.3-.3v-.6h.5v-2.8h-.8v.1l.3.1v.3l.1.1h.3l.1.7-.1.1h-.2l-.4-.3-.1-.3h-.2l-.4-.2v.3l-.5.6v-.7l.3-.2h-.2v-.1l.3-.3h.2l.2-.2h-.5v-.1h-.4v.7l-.1.2v.3zM483.8 42.2v.5h.2v.2l.3.1h.1v.2h.1v.2l-.2.6-.3.2-.2.1v.5h.2l.2.2.1.1.2.1h.4l.1.2h1l.2-.2V45h.1v-.2h.1v-.3h-.3l-.1-.4.2-.1v-1.2h-.2v-.1l-.2-.1v-.2h-.1v-.1h-.5v-.2h-.6V42h-.3.3v-.2h-.3l-.3.2v.1zM293.6 254.5l.1.3v.6h.3l.3.2h.3l.5.3h.5l.2-.3v-.1l.2-.2v-.5l-.2-.2v-.7h-.2v-.2h-.2l-.2-.2-.2-.1v-.2h.6l.2.2v.5h.2l.1-.2h.2v.3h.1v-1l.2-.1.1-.4h.2v-.1l.1-.2h1l.3.4v.4h.3l.1-.1v-.2l-.1-.3h-.1l-.2-.3H297l-.4.2v.1l-.1.2-.2.2-.3.2h-.5l-.2-.1-.1-.1h-.2l-.2.2-.2.1h-.3v.3h-.2v.1l-.4.3v.5l-.1.1zM481.7 48.4v.2h.2l.1.1v1h.2l.1.1h.1l.2.1h.2v.1h.2v-.3h.2v-.1h.6v-.2l.1-.1.1-.1v-.4l.2-.1h.1l.1-.2h.1v-.4l.3-.1v-.2h-.3v-.3l-.1-.2h-.1v-.6h-1.2l-.1.6-.1.2-.1.1h-.2v-.2h-.1l-.1.3v.1h-.1v.1h-.1v.5l-.1-.3h-.3zM253.4 259v.1l.3.3h.1v.1l.2.3h.8-.3v-.5l-.1.2v-.1h-.1l-.1-.3h-.2l.2-.1h.8v.2h.7-.3v-.4h.4v.2h.2l.1-.3v.1h.2l.2-.3v-.2l-.3-.2v-.1h.3v-.3l.3-.1-.3-.2v-.2h-.1l-.2.1h-.1v-.5l-.1.3v-.1h-.8v-.3h-.2l-.2.3-.2.2h-.3l-.3.3v.2l-.5.3v.2h-.1v.8h.5v.3h-.2v-.3zM387.1 35.6v.1l.3.1.2-.2h.4l.7-.3.3-.3h.1l.2.4h.2l.6.2h.5l.2-.4h.2v-.4l.2-.2-.1-.3v-.5l-.3-.4h-.4l-.2-.2h-.3l-.2-.2h-.5l.1.4v.2h-.3v.1l-.3.4v.2l-.7.5.3.2h-.6l-.2.1v.2h-.4zm1.3-.6l.2-.2v.2zM273 278v.3h.3l.1.1h.4v.1h-.4v.5h-.2v.2h.3-.3v-.2h.4v-.6h.2v-.1h.1v-.1h.1v.3h.2v.2h.1-.3v.1l.3.1h.3v.1h.2-.3v.2h.4v-.5h-.3v-.3h-.1v-.1h-.2v-.1h.3v-.1h.1v-.1h.2v.3h.1v.1l.2.1h.3v-.4l.3-.1h.1v-.2h.1v.2h.6v.5h-.3l-.1.1v.1h-.1v.2h-.1v.1h-.3v.2h-.1v.2h-.1v.2h-.3v-.3h-.1v.3h-.1v.2h.3v.2h.9l.1.2h.1l.1-.2h.1v-.2l.2-.2v-.1h.1v-.2h.1v-.8h.2v-.2h.2v-.1l.1-.1v-.1l-.3-.2h-.5v-.2h-.2v-.1h-.1v-.1h-.6l-.1.3h-.3v-.3h-.6v.2h-.1l-.1.3h-.1l-.1-.2v-.1l-.2-.2-.1-.1h-.1v-.1h-.2v-.1l-.3-.1h-.3v.3l-.2.1zm174.3-97.8v.2h.2v.2l.1.1.1.1h.2v1.2l.1.2h.7v.1h-.1v.2h.2v.2h.2v-.7h-.3v-.2l.3-.3v-1.6l.1-.3v-.3h.2v-.3h-.3v-.4l-.1-.4v-.2h-.7l-.2.4-.2.2v.2l-.1.1v.3l-.3.2v.4zM406.4 27.1v.2l.3.1.2.2.1.2.3.2h1l.2.1h.1l-.1-.3h.3l.1-.2h.6v.1l.3.2h.2l.3.1.3-.2V27l-.2-.1-.4-.2V26h-.3v-.3l-.1-.4v-.1l-.5-.2v-.2h-.1v.4l-.1.2v.7l.3.3-.2.4v.2l-.4.3v.2l-.4-.4v-.3l-.2-.1h-.5l-.4.1h-.6zM240.8 278.6h.5v.2l.1.2h.1-.3.3v.2h.2v.1h.1v-.3h.2v-.4h.4v.3h.2v-.3h.2v-.4h.1v-.2h.1v-.3h-.3v-.1h.3v-.1l.3.4h.1v.5h.2v.2h.4v-.3h.3v.3h.1l.1.1h-.3.3-.3v.1h-.2v-.3.4h.3l.1.1v.4h-.4v.4h-.4v.2h-.1.3v.3h-.3v.1h.3v.1h-.4v-.1h-.1v-.2l-.1-.1h-.2v.4h-.2v-.4h-.1v.5h.5v.1h.2v.1-.3h.2-.3v-.1h.7v.3h.2v.1h.1v.2h-.5v.2-.2h.8-.3l-.1-.2v-.3h.5l.2.4h.1v.1h.2v.3h-.2v-.3h-.2l.2.3h.2v.1h.1v.1h.1l.1.1v.1h.1l.1.1h.2v.4-.2h.1v-.9l-.3-.1v-.2h-.2v-.1h-.1v-.1h-.2v-.5h.3v-.1h.2v-.2l.1-.2h.2l.2-.1v-.1h-.4v.2h-.1v.2h-.2v.2l-.2.3h-.1v.2h-.2.3v.2h.2l.1.2.2.1v.2h.1v.1h-.3l-.2.1v.1l.3.1v.1h.1v-.3h-.3v-.2h.3v-.1h.1v.7h-.4v-.3l-.1-.1h-.2v-.2h-.1v-.1l-.1-.1v-.3h-.4v-.2h-.6l-.2-.1h-.2v-.4h.4v.2h.2v.1h.1v-.3h-.3l-.2-.2h-.2.4v-.2h.2v-.1h.5v-.1h.1l.1-.1h.1v-.1h-.2v-.1h-.1v-.1h-.2v.2h-.1v.2h-.2v-.7h.4v-.4h-.5v-.1h-.4v-.1h-.3v-.1h-.1v-.2h.3l-.3-.1h-.2v-.1h-.1v-.1h.2v-.2h.2v-.1h-.3.3v-.1h.2l.1.3h.2-.5v-.3l.3-.1h.1v-.4h-.3v-.1h.3v-.1h.1v-.3h.1v-.1l.2-.2h.1v-.1h.1v-.1h.4l.1.3h.2v.1h.4v-.2h.3v-.1h.2v-.1h-.3v-.1h-.1v-.1h-.2v-.1h-.2l-.1-.1v-.2.4h.3v.6h-.6v-.3h-.1v-.1h-.2v-.1h-.3v.3h-.1v-.4h-.1v-.1h-.2.2v-.1l.2-.1v-.5h-.2v.3-.3h-.2v-.1h-.3v.4h-.1v.3h.3v.1h-.4v.1h-.2v.6h-.3v-.3h-.1v-.1h-.2v.7h.5v-.3h.3v-.2h.1v.2l.2.1h.1v.2h.2v.2h-.3v.1h-.1v-.3.3h-.4v.2h.5l.1.1v.1l-.2.1h-.4v.3l-.1.1h-.3v.1l-.1.1h-.4v-.3h-.2v-.3h-.2l-.1-.1h-.2v.5h.3v-.3h.1v.4h.1v.5h-.3v-.1h-.3v-.5h.4-.5v-.3h-.1v-.1h-.2v.3h.3v.1h.1v.5h.2v.2h.1-.3l-.1-.2v.3l.3.1h.1v-.3h.3v.3h-.2v.2h-.1v-.2h-.4v.3h-.6zm.5-.6h.2zm.1-.2h.2zm2.1-1.8h.4-.5zm0 0h.2zm.2 0h.2-.3zm.3.1v-.1zm-.1-.2h.1zm1.5-.4h.2v.2zm.6 4.2v-.3h.2v.3h-.4zm13.5-14.6v.3h.2v.3h.2v.3h.1v.3h1v.3h.2v.1l.1.1h.1v-.8h.1v-.2h.1v-.1h.2v-.2h.1l.1-.1v-.6h-.2v-.1h-.1v-.1h-.1v-.1h-.2v-.2h-.2v-.3h-.2v.2-.2h.3v-.5l-.3-.1v-.1h-.3v-.1l-.1-.1v-.1h-.5v.7h-.1v.1h-.2v.2h.2v.3h-.2v.1l-.1.1-.1.1v.1l-.2.2v.1zm.7-1.9v.3zm.3-.1h.1zm.2 2.3v-.3h.2v-.1h.1v-.2h.3v-.1h.3v.9h-.8l-.1-.3zm0 .2h.2zm.3-1.9h.3zm.4 1.8h.2zM416.6 4.3h.3v.2l.3.1v.1h.1v.2h.1V5h-.3v.2h.3v.1h.6V5h.5l.2-.1h.2v-.2h.3v.5h.5V5l-.3-.2v-.4h-.2v-.1l-.1-.1h-.1l-.1-.2v-.3h.6V4h.2v-.3h-.3v-.3h.5v-.1h-.6l-.1-.3-.4-.2h-.3V3h-.2v-.2h-.1l-.2-.1h-.5V3h-.2v.8h-.1v.1h-.5l-.1.1v.2l-.1.1zm-9.9 10.1l.2.2.1.2h.2v-.3l.4-.3v-.8l.3.4.1.2v.2l.5-.2.5-.4v-.7l-.3-.3-.1-.6-.3-.4-.3-.3v-.2h-.5l-.2.4-.1.3h-.2v.8h.1v.2l-.3.9v.5l-.1.1zm-11.5 17.2v.7l.2.3v.4l.2-.2h1.4l-.2.3-.6-.1h-.6l.1.1v.1l-.2.2h1.3l.2-.2h.3l.5.1V33h.4l.2-.2h.2V32l-.5-.4h-.1l-.1.4-.2.3h-.3l.1.4h-.2l-.2-.1.2-.4V32l.1-.3v-.1l-.2-.1h-.2v.2h-.6v-.2h-.2v.1h-.2l-.1-.2v-.2l-.6.2h-.1zm2.5 1.2h.3l-.2.2zM273.3 249.6v.4l.2.1.1.2h.4v.1h.1l.2.2.2.1h.1l.1.2h.3v.1h.8v-.4h.5l.1-.1.2-.3v-.2h.1-.4v-.3h-.3v-.1l-.1-.1h-.4l-.3-.1-.3-.3v-.3l-.5-.1h-.4v.2h-.6v.4l-.2.1zM477.9 184v.5h.1v.2h.3v.9l.1.1v.2h.1v.1l.1.2h.2l.1-.2h.8v-.3h.1v-.1h.1v-.2l.1-.1v-.8h-.3v-.4l-.1-.1h-.2v-.4h-.1v-.2h.3v-.2l-.3-.1h-.2v-.1h-.6v.3h-.2l-.1.1-.1.1v.1h-.1v.3h-.2v.1zm-59.3 4.2l.1.1.3.1h.7l.5-.1h.1l.2-.3v-1h-.2v-.5l-.1-.3-.4-.5v-.4h-.7v.7h-.1l-.3.2.1.3v.3l-.1.2v.5l-.1.5zM400.7 13.8h.7l.5.2h.8v-.2l.1-.1h.1l.2.3h.2v-.6h-.4v-.2l.4-.2v-.7l-.3-.3h-.2v-.2l-.1-.2-.2-.2v.6h-.4l-.1-.6h-.5v.8l-.3.3-.2.5v.3zM278.2 252h.3v.1-.3h.2l.3.8-.2.2-.2.2v.8h.3v-.1h.1l.4.2h1.3l.3-.2v-.5l-.3-.2v-.3h-.2l-.1-.1v-.4l-.2-.2v-.6h-.5l-.4.2-.3.2h-.7zM442.4 80.3v.4l.2.3h.2v.2l.2-.3h.4v.1h-.4v.2h1.1V81l.3-.1v-.6l.2-.1v-.3h.2v-.3h.4-.4l-.1-.2v.2h-.2v-.2l-.1-.1v-.1l-.1-.2v-.3h-.5v.2h-.2l.3-.3v-.1h-.5v-.1h-.1v.6h-.3v-.4l-.2.2h-.1v.5l-.1.1v.5h.3v.1h-.5zm-41 139.7l.6.3h.3l.2-.1.3-.2h.1v.2h.9l.2-.3v-.9l-.3-.2h-.3l-.4-.5v.2l.1.2.2.4-.3.6-.1-.1v-.3l.1-.3-.4-.5-.6-.3.1-.1-.1-.3h-.2v.5l-.3.1v.9zm0 0"/><path d="M281.3 265.5v.1l.3.2h.4v.2h.4l.1.3h.4v-.3h1.1v-.3h.7l.2.3h.6v-.4l-.2-.1H284l-.2-.3v-.1h-.3v-.4h-.1v-.7h-.2l-.2-.1h-.1l-.2.1-.1.4h-.1l-.3.3v.1h-.1v.2h-.4l-.2.2h-.1v.4zm12.5 7.9v.1l.2.1.1.3h.3v.3h.7v-.2l.2-.2.2-.2v-.4h.2v.1h.5v-.3l.2-.1v-.6h-.4v-.2h-.2v-.4h-.1v-.3h-.3v.2l-.2.1-.1-.2h-.1v-.4l-.3-.1h-.4l-.2-.3h-.1v.5h.3l.2.2h.2v.3l.3.1v.6h-.1l-.3.1h-.3l-.1.2v.4h-.2v.2h-.1zm.7-.6h.3l.1-.2h.3v.4h.1v-.3h.2v.2h.5v.3h-1v-.4h-.2v.2h-.2v-.2zm.4 1.3v-.1h.1zm.2-1.4h.1zm-.1-.6v-.1h.4v.4zm.2.6h.1v-.1.2zm.3-.2h.1v.2zm-50.2 2.6h.3v.2h.2v-.3h.4l.1.3v.7h-.3v-.3h-.2v.3h.2-.2.2v.2h.2v.1h.3v-.3h-.3v-.3h.6v.5-.3h.3l.1-.2h.3l.3-.2h.4v.3h-.4v.2h.6l.1.2h.2v.1-.3h.2v-.3h.1v-.1h-.4v.4h-.1v-.3h-.1v-.1h.3v-.3h-.3.3v-.1h-.4v.4h-.1v.1h.3v.1h-.3l-.2-.3v-.1h.3v-.1h-.3v.4h-.2v-.4h.2v-.1l.2-.1v-.1h.1v.3h.1v-.3h.1v-.2h.2v-.1h-.3v-.2h-.2v.3h-.2v-.4h.4v-.1h.4v.3h.1v-.5h.1v-.1h-.6v.2h.3v.2-.3h-.3v.2h-.2v-.6h.3v-.1h.3v-.5h.1v-.1h.1v-.3h.3v-.2h.1l.1-.1v-.2h.2v.3h.3l.1-.3.2-.1v-.1h.2l.2-.2h.1v-.1h.6v-.1h.3l.3.2v.2l.4.3h.3v-.2h.1v-.7h.1v-.2h.1v-.1h.6v-.1h.1v-.5.4l-.2.1h-.6v.2h-.1v.2l-.2.3v.1l-.1.2v.1l-.1.2h-.2v-.3h-.1l-.1-.2-.2-.2h-.1l-.2-.1h-.5v.3h-.7.3v.1h-.3v.1l-.3.2v.2l-.2-.2h-.5v-.2h.6v-.2h-.3v-.1h-.1v-.2h.3v-.1h-.4.3v-.2h.3-.4v-.1l-.1.3v.1h-.1v.1h-.1v.1h-.1v-.5h.3-.3v-.2h-.1v.3h-.1.3v.1h-.6v.1h-.1v-.4h.3v-.1h-.3v.2h-.1v.1h-.1v-.3h-.4v.3h.4v.1h-.2v.2h-.2v-.4h-.3v.3h-.1v-.5h-.4v.3h.2v.3-.3h.2v-.1h.1v.5h.1v.1h-.3v.1l-.2.1v.1h.2v.2h.4v-.3h.1v-.4h-.3.5v.3-.4h.1v-.2h.3v.2h.1v.1h.3v-.3h.3v.5h.3v.1h-.3v.1h-.1v.6l-.2.1-.1.1h-.2v-.2.5h-.1v.5h-.3v.2h-.5v.1h-.1v-.3h-.2l.2-.2-.2-.2h-.1v-.1.3h-.2v.4h-.2l.3.1v.1h.4v.2h.1v.1h-.3v.2h.3v.2h-.3v-.3h-.1v-.1l-.1-.1h-.2v-.1h-.1v.3h-.2v.3l.2.1h.2v.1h.3v-.3h.2l.1.3h.1v.1h.1-.3v.2h.3v.3h-.3v.1h-.1l-.1.1h-.5v.2h-.9v-.9h-.4l-.1.3h-.3v-.6l.3-.1v-.1h.1-.3v-.2h-.1v-.5l-.1-.1v.7l.3.2v.5h-.3zm.9 1v-.1zm1.2-2.1h.2zm.2 0v-.2h.2v.2h-.3zm0-.3h.3v.3zm0 1h.3v.2h-.3zm0-2.8h.2zm.1 2.3h.1v-.2h.2v-.2h-.2v-.1h.2v-.1h.3v.9h-.3l-.2.2v.1h-.1v-.5h.3v-.1h-.2zm.2.7h.1v-.2.3h.5-.5zm.2-.1v-.2h.2v.3h-.3zm-.1.2h.3zm.2-.6h.2zm0 .6h.2zm.1-.2h.2zm.2.7h.2zm1.1-3.2h.4zm229.2-96.8v.2l.2.1v.1h.3v.1h1.2v-.2h.1l.1-.1.1-.1v-1.2h-.3v-.3l-.1-.1h-.1v-.2h-.1v-.1h-.2v-.1h-.2v-.1h-.3v.3h-.1l-.1.1h-.1v.1h-.1v.2h-.1v.8h-.2zm-186.6 99.9l.1.2v.2h.3v.2h-.2v.4h-.1v.1l.3.1.2.2v.2h.7l.1.2h.1l.3-.2v-.3l.1-.1h.1v-.3h.2v-.7h.1-.3v-.2h-.2l-.1-.2h-.3v-.1h-.1.3v-.3h-.3v-.1h-.2v.3h-.3v-.2h-.6v-.2h-.1v.4h.1v.3h-.2zm-23.2 4.4l.1-.1v-.2h.4v-.4h.4v.3h.3v.1h.8v-.4h.3v-.1h.6v-.5h-.3v.3h-.2v-.5h-.1v-.1h-.2v-.1l-.1-.1v-.2h-.2l-.1-.1v-.1h-.2v-.1h-.3v-.1h-.6v.3h-.1v.2h-.1v.3h-.1v.8l-.1.1v.4h-.1v.1h-.1zm147-62.7l.3.5v.2l.2.2h.3l.1.3h-.1v.2l.2-.1v-.2h.7l.3-.2.1-.2.1-.3v-.6l-.2-.1v-.7h-.3l-.2.2-.2.3h-.4l-.1-.2h-.3l-.3.5-.2.1zm-2.5-187.4h.1v.3h.1l.5.3h.2l.2.2h.8l.2-.3h.1l.3-.2v-.3l-.2-.2v-.2l-.1-.3-.3-.3h-.4l-.2.1h-1.1zM285.6 278l.1.2h.2v.2h.1v.1h.2l.1.2h.2v-.2h.1v-.3h.2v.2h.1v.1h.1l.2.3v.1h.4l.2.1v.3h.2l.2-.3v.4h.3v-.5h-.2 1v-.1h.3l.1.2v-.2h.2v-.6h-.3v-.1h-.2v-.1l-.1-.1h-.3v-.1h-.5v.2h-.1v.2h-.4v.1h-.3v.2h-.2v-.3l-.1-.1h-.3v.2h-.1v-.8h-.6l-.1.3v.4h-.2v-.4h-.6v.2zm134.3-81.4l.1.4.3.2h.9l.1-.2v-1.5l.4-.2v-.4l.3-.2v-.2h-.8l-.5.2-.1.2v.2l-.4.3-.2.8zm28.7-126.3v.2h.2v.2h.1v.1h.1v.2l.1.2v.1h.3v.1h.8v-.2h.2V71l.2-.1v-.8l-.3-.1h-.2v-.2h-.1v-.4h-.3v-.1h-.1l-.1-.1V69h.4v-.3h-.4v.3l-.2-.2h-.1v-.1h-.2v-.2.3h-.3v-.4.2h-.1v.7h.8v.3h-.3v.4h-.5zm12.1 4.1v.1h.3v.3h.2v.2l-.2.1.1.1v.1h-.1v.7h.2v-.3.2l.3.1v.2h.2v.9l-.3.2v.1h.2V77h.3v.4h.2V77v.1l.1.1v-.7h-.2v-.2l-.1-.3v-.3.3l.3.3v.2l.4.2v.3h.2v-.8l-.3-.2-.3-.2v-.3l-.1-.2-.1-.3v-.1l-.1-.1v-.3h-.3v-.4l-.3-.4v-.1h-.5v.1h-.1v.1h.2v.2h-.2zm.6.6v-.2h.1v.2h.2v.2h-.1V75zm1.2 1.5v-.2h.2v.2zm25.3-1.8v.5h.2v.4h.2v.1h.2v.3h.1v.2h-.2v1l.2.2v.7l.1.2h.2l.1-.2h.4V78h-.3l-.3-.1v-.5h.6v-.3h.1v-.3l-.3-.2V76l-.1-.2v-.7l.2-.1-.4-.1h-.1v-.2h-.2l-.2-.2h.3v-.3h-.3V74h-.1v.3l.3.1-.2.1-.3-.2-.2.2-.1.3zm.7 3.3v-.3l.2.3zm-63.3 99v.2l.5.3.5.1h.6l.3-.4v-.7l-.1-.3v-.4l-.4-.3v-.1l-.1.2h-.5l-.1.1v-.4l-.4.3.1.1v.9l-.5.2zm-33.6 33h.1v.6l.3.4.2.2.5-.4.2-.1v-.4l.6-.3v-.2l.1-.2v-.4l-.5-.2h-.1l-.3-.5h-.2l-.1.3v.2l-.4.2-.1.2h-.1l-.2.3zm-166.2 68h.2v.2h.2v.1h-.3v.1h.3v.1h-.3v.1h-.1v.4h.6v-.6h.2v.3h.2v.6h-.4.6v-.3h.3v-.2h.4v-.1h.1v.6h.4v-.3h.4v.2h.1v.3h.3v.3h.1l.1.1h.2v.1h.3v.2h.2v.3h.4v-.4h-.3v.3h-.1v-.3h.3v-.2h-.6v-.2h-.1v-.1h-.1v.3-.4h-.2v-.1h.4v-.2h.2v.3h.1-.3v.1h.3v-.3h.1v-.5l-.4-.1v.3h-.1v.3h-.3v.3h-.2v.1h-.1v-.6h-.1v-.1h-.1.3v-.2h-.5v.2h-.1v-.6h.2v.2-.2h-.2v-.1.3h-.2v.4h-.2l-.1-.3h-.2v-.2h-.2v-.1h-.1v-.3h.2l.1-.1h.2v-.2h-.3v-.1h-.1v-.3h-.1v-.1h.2v-.5h-.2v-.3h.3v-.1h.3v.3h.1v.2h-.3v.1h.5l.1-.2-.2-.2h-.1v-.1h-.2v-.1h1l.1.1v.2h-.3v.1h.3v.1l-.3.1h-.1v-.3.3h.3v.2h.1v.3-.3h.2-.4v-.1h.3v-.1h-.3v-.2h.3l.2.2h.1v.2-.2h-.2v-.4h.8v.4l.1.2v.1-.8h-.2v-.5h-.5.2l.2.2h.1v.2h.1v.1h-.6l-.2-.3v-.2h-.1v.8h-.1v-.6h-.1v-.2h-.5v.4h-.7l-.1.1h-.2.3v-.3h-.3.3v-.1h.1v-.1h.2v-.2h-.5v-.2h-.1v.3h-.2.8-.4.2v.1l-.2.2h-.2v.4h-.2v-.3.7h.5v.3l-.3.1v.1h-.2l.2.1h.2v.2l.1.1h.1v.1l-.2.2h-.2v.3h-.2v-.4h-.1l-.1-.1h-.1l-.2-.2v.5h-.2v.1-.4h.5l.2.2v.1h.1v.2h.1v.4h-.3v-.3h-.3v.3h-.1v-.3h-.2v-.2h-.4v-.4zm2.7-1.6h.2zm0 2.9h.3zm.4 0v.2zm25.8-11.5h.2v.2h.3v-.2h.2v-.3h.2v-.1l.1-.1h.6l.1-.2v.4h.3v.2h.2v-.5h-.3l.3-.1h.1v.3h.4v-.4h.3v-.2l-.3-.1h-.1v-.1h-.3v-.4h-.2.4v.3-.5h-.2v.2h-.6l-.3.2h-.2l-.2-.3h-.3v.5h-.4l-.1.1v.1h-.1v.6h-.2v.4zm.5-1.2h.2v.3h-.1v-.3h-.2zm1.1 0v-.2h.3-.2zm43.1-7.7v.5l.2.2h.3v.1h.3v.1h.2l.3-.3v-.1h.2l.1-.1v-.1h-.6v-.1h.3v-.1h.2v-.4h-.4v-.1h-.1v-.7h-.2v-.7h.5v-.1h.2v-.2h.5v-.3h.9v.4h.1v-.4h-.8v-.1h-.7v-.1h-.3v.3h-.1v.4h.3-.7v.3h-.2v.3h-.2v.1h-.1v.3h-.1v.2l-.1.1zm0 0"/><path d="M248 278.8h.2v.2h.2-.3.5v-.2h.1v-.2h.2v-.2h-.3v-.1h-.1v-.1h.3v-.2h.1l.1.3v.1h.2v-.3h.2l.1-.1v-.3h.2v-.1h.3v-.1h.2v-.1h-.2v-.1h-.3v-.1h.3v.3h.2v-.3l.1.3v.4h-.3v.1l.3-.3h.1v.3h.2v-.5h.1v-.2h.1v-.1h-.3v-.2h.3v-.2h.1l-.3-.3h-.1l-.2.4h-.1v.1h.4v.3h-.5v-.3h.3-.3v-.2h-.3v-.2h.6v-.1l.1-.1v-.1h-.4v-.1h.3v-.2h-.2v-.3h.3-.3v.3h-.1v-.5h-.3v.3h-.1.3v.1h.2v.1h.1v.6h-.3v-.4h-.2v-.1h-.3l-.1-.1h-.1v-.3l-.1.3h-.2.2v.2h-.2v.1h-.2v.2h-.1v-.4h-.2v.3l.3.1v.4h.1v.1h.8v-.1h.2v.5l-.3.1v.1h-.2v-.3h-.1v-.1h.4v-.1h.1-.3v-.1h-.1.3-.3v.3h-.2v.1h-.1v-.3h-.1v-.1h-.2v.4h-.1v.2h.3v-.3h.3v-.1.2h.1v.2h.1v.1h-.4l-.1-.3v.4h-.2v.4h-.2v-.5h-.2v.3h.3v.2h-.3v.1l-.1.1v.3h.4v.2h-.5v-.3h-.2zm.5.1h.1zm-.1-.6h.2zm.2.2h.2-.3zm0-.6h.1zm.1.7h.1zm.1-1.8v-.2zm0 .6h.2zm0-.8h.2zm.2 1.4v.3zm0 .2h.2zm0-1.2h.2zm.5.7v-.2h.2-.3v.3zm-.1-.4h.2zm.6-.8h.2zm.2 1h.2v-.2h.2v.3h-.4zm.1-1h.1zm44.3-7.8v.1l.3.2h.1l.1.2.1.1h.2l.2.2h.4v.2h1v-1.1h-.2v-.2h-.2l-.2-.2-.2-.1h-.5l-.2-.1h-.5v.2h-.2v.2l-.1.1h-.1zM403 27.2l.2.2h.3l.2.3.3.1.6.2h.2l.1-.5h.2l.4-.1.1-.2h.5V27h-.4l-.1-.7-.3-.2h-.1l-.2.1V26h-.4v.2h.2v.2l-.5.4-.1-.2h-.2v.4-.2h-.6v.4h-.3zM295.7 276.5h.5v-.3h.1v.5h.1l.1-.3v.2h-.3v.2h.3v.1h.1v.1h-.3v.1h.2v.2h-.4v.2l.3.3h.2v.1-.5h.1l.1-.1v.4h.2v-.5l.2.2v.4h.1v.2h.1v.1h.1l.1.2v.1h.1l-.2-.4v-.2l-.2-.1h.3l-.3-.2v-.4l-.2-.1h-.1.2v-.2.2h.2v.2h.2v-.2.6h.2v.1h.2v.1h-.4.4v.2-.4h.2v.4-.3h.1v.3h.3v-.3h.1v-.1h.3v-.1l.2-.1h.1v-.4h-.5v.1h-.2l.2-.1h-.3v-.3.6l-.1.2v-.3h-.2v.4h-.4v-.4h.2v-.2h.2v-.5l-.2-.1h-.2v-.1h-.3l.4.2v.2h-.3v.3l-.1-.2h-.3v-.2h-.2l-.2-.1h-.2v.3h-.2l.3-.3h.2l.1-.2v-.3h-.2v-.2h-.4v.2h-.3l-.1.2-.3.2zm.6 1h.2zm.2-.5h.1v.3-.3zm-.1.5h.2zm.4-.3v.2zm-.1-.4h.2zm0 .3h.2v-.1h.1v.3h-.3zm.3-.3v.2zm-.1.4h.3zm.1.1h.2v.2zm.3.2v.2h.2-.4v-.2zm.1.3v.2zm.8-.4v.1h.2v-.2.3zm.3-.3v-.1h.2zM480.9 76.5v.1h.1v.4l.3.1v.2h.2l.1.3h.9l.2.1.3.3h1v-.2h.2v-.3h-.4l-.1-.2h-.3l-.4-.3h-.4v-.2h-.2l-.2-.1-.2-.4h-.3v-.2h-.4l-.3.3zm-34.7 99l.2.5.2.2h.8l.2-.1v-1.5l-.5-.4h-.7l-.1.2zM281 251.8h.2v.6l.2.3.3.1h.5l.1-.2v-.2l.1-.1h.1l.1-.3h.1v-.7h-.1l-.1-.5h-.1l-.2-.1h-.5l-.2.3h-.1l-.1.2v.2h-.2v.3zm8.2 12.8v.2l.2.2h.6v.2l.2.2h.1l.2.1.3.1h.1v.2h-.1v.2l.2.2v.3h.3l.2-.3v.3l.1.1v.1h.3l.1.1.1-.2v-.6l-.1-.2-.4-.3v-.1l-.2-.1v-.3h-.4v-.2h-.3l-.1-.1h-.2l-.2-.2h-.5l-.2-.1h-.2v.2zm22.5 10.4v.2l.2.1h.3v.2h.2v.5h-.3l-.1.1v.4h.3v-.4h1.1v-.1h.2v-.3h.1v-.1h.1v-.1h.1v-.1h.1v-.4h-.5v-.2h-.4v-.1h-.1v-.1l-.2-.1h-.2v.3h-.3v.1h-.1v-.4h-.3v.5zM487.4 27h2v-.2h.3v-.3.3-.7h-.3v-.4h-.2v-.1h-.4v-.1h-.4l-.2.2v.2h-.2v-.2.3h-.3v.6h-.2v.3zm1.1-.7h.2zM285 279.7v.3h.3l.1.3h1.6l.1-.3v-.6h-.1v-.3h-.3v-.1h-.3v-.2h.2-.6v.2l-.4.2v.1h-.4v.2h-.2v.1zM437.7 82.9v.3h.2v.2h.1v.1l.1.1v.2h.2l.2.2h.1v.3h.4v-.7h.3v-.3l.1-.1h.2v-.4l-.3-.1-.1-.1h-.2v-.1h-.9v-.2h.6-.2v-.2h-.7v.5zM108.8 61.8l.2.2.1.4v.5l.3.2h.1v-.5h.1v-.1h.3v.3h.1v.2h.5l.1-.1v-.2l-.4-.3v-.2h-.2V61h.2l.1-.2h.5v-.2h.2v-.1h-.4v-.2h-.5l-.1.3-.2.1-.2.3h-.2v.3l-.2.1v.1h-.1v.2h-.1v.1h-.3zm1-.3v-.3zm171.8 214.7h.2v.3h.2v.2h.3v.3h.1v-.3h.1l.1-.2h.4v.5h-.1v.3l-.2.1h-.2v-.3h-.1v.4l-.1.1h-.1v.4h-.4v-.3h-.1v.7h.3v.2h.2v.1h.2v-.3h.3v-.2h.6v-.5h-.3v-.5l.4-.1v-.4h-.4v-.5h-.2v-.5h-.2v-.1h-.2v-.2h-.3v.3h-.1v.2h-.3v.1zm.2 1.7h.2zm.2-2v-.2h.4l.2.3v.1l.3.3v.1h-.3v-.4h-.3v.3h-.2v-.6zm.1.5h.2zm.2 1.4h.6v.2h-.6zm-16.9-17v.2l.1.1.2.2h.1v.1h.2v.6h.3l.1.2h.4v-.2h.2v-.6l-.1-.1h-.1v-.1h-.3l-.1-.1v-.5h-.1v-.6h.3l.1-.2v-.1l-.3-.1v-.1h-.1l-.1-.1h-.2v.3h-.2v.1h-.1v.2h-.1v.5h-.1v.1h-.1v.1h-.1v.2zM398.3 17.6v.2l.2.2.2-.2.3.2h.2v.4h.3l.5-.2.2-.2v-.2l-.2-.2v-.3l-.2-.3v-.3l-.5-.2h-.2l-.3.2-.2.2-.2.4zm1.1 0h.3v.2zM262.8 262.1v.3h.2l.1.1h.4v-.2h.2v-.2h.2l.1.3v.4h.3v.2h.7v-.8h-.4v-.2h.4l.2.3v-.3h-.2v-.3h-.5v-.1h-.3v.3h-.1v-.4h-.1v-.2h-.2v-.1h-.4v.2h-.1v.1h-.2v.1h-.1v.1h-.2v.2h-.1v.1zm1 0v-.1h.2v-.3.5h-.2zm.3-.1h.3zM478.2 51.6h1.7l.1-.2h.2v-.3l-.2-.1v-.6l-.3-.1h-.1l-.1-.2-.1-.1h-.8v.4l-.2.1v.5h.3v.4l-.3.1h-.1v.2zm-10.8-5.4l.2.1.3.1V46h.1v-.1h.1v.1h-.1v.6-.4l.4-.4v-.7h.5v-.5h-.9v.4h-.2v-.5h.2v-.4h.3V44h.6l.1-.3.1-.2.2-.2h.2v-.1h.1V43h-.3v-.2h-.1v-.4h-.2v.1l-.2.3.2-.1.1.1v.4h-.1l-.2.2v.1l-.5.3v.2h-.5v.9h-.2v.3h-.1v.6zm3.3 22.3v.3h.2v.2h.3v.2h.2l.1.1h.2V69l.2-.2.1-.1.2-.2.2-.2.1-.2v-.4l-.4-.2h-.1v-.2h-.2v-.1h-.5v.4h-.1v.1h-.1v.1h-.1v.3l-.2.1v.3zm0 0"/><path d="M289.2 263.6v.3h.4v.1h.3v.2l.1.1h.3l.1.1v.1h.1v.1h.1l.2.2h.8v-.6h-.4v-.2h-.1v-.2l-.1-.2v-.1h-.2l-.1-.2v-.1h-.4l-.1-.2h-.2l-.2.2h-.2v.2h-.3v.1h-.1l-.1.1zM415.4 18l.1.4h.2v.4h.3v-.2l-.3-.6v-.3l.3-.3h.3l.3.3.1-.1.3.3.1.1h.3v.2h.1v.3h.2-.3v.2l.3.1v.2l.7.6-.2.3-.2.2v.3l-.2.2v.1h.2l.2-.2v-.3l.2-.1.6-.2.3.1h.2v-.2l-.2-.3-.5-.2h-.3l-.3-.1v-.4l-.2.2v-.3h-.2v-.2h.2l-.3-.3-.2-.1-.1-.2-.6-.5h-.3l-.2-.2h-.6v.3h-.3v.2h.2v.3h-.1zm79.4 29.4v.1l.1.1v.4h.7v.2h.4v-.5h.4v-.1h.3-.2v-.2h.2v-.8h-.5l-.2-.1h-.3l-.1.2h-.4l-.1.2h-.1v.3l-.3.1zm.6 0h.2zm.2.3h.2-.2v-.3h.3v.6l-.3-.2zM290.4 271.2h.2v-.2h.2v.4h.2l-.4.1v.3l-.1.2h.2v.4h.3v.1h.4l-.2-.3h-.1v-.2h.3v-.3h.1v.3h.2v-.2h-.3.3v-.2h-.3.4v-.5l-.4-.3v-.3h-.2.3v.2h.3l.1-.1v-.1h-.2.2v-.3h-.5.2l.1-.1v-.1l-.1-.2h-.8v.2h-.2v.4h-.1v.3h-.1v.1h.3v.2h-.2v.2zm.2-.2l.2-.2h.1zm.1-.5h.2zm0 0h.2-.3zm.1-.4h.2l-.2.2v.1h-.1v-.3zm0 .7v-.3h.2v.4zm.2.1v-.2h.2v.3h.2-.4v-.2zm0 1.3h.2zm0-.1h.2zm0-1.6h.2zm0-.3h.3v.3-.3zM443.9 78.1v.2h.3v.3h.3v-.3l-.2-.1h-.2V78h.4l.2-.3h.2v-.1h.3v-.1h.3v.2h.1l.2-.2v-.6h-.3v-.1h-.1v-.2h-.4v-.1h-.8v.2l-.2.2V78h-.2zM424 169.5h.4v.2h.1v.3h.2v.8h.1l.2.1v.3l.2.1.5-.1.3-.5v-.4l-.2-.3h-.2l-.1-.3v-.2l-.2-.2h-.6l-.2.3v-.2l-.4-.1v.1h-.1zm12.9-157.2v.5h.1v.2h1v-.7l.2-.2v-.7h-.2l-.2-.1v-.1h-.1v-.1h-.1l-.2-.1h-.2l-.1.2h-.1l-.1.3v.4zm57.5 37v.2l.1.1v.4h.5v.2h1.1l.2-.2v-.4l-.3-.2h-.3v-.2h-.1v-.3l-.2-.3h-.4l-.3.3h-.1v.1l-.3.2zm-8.5-8.2v.2l.1.1h.2v.1h.6v-.3h.4v-.7l.1-.1v-.7h-.3v-.2h-.7v.3l-.2.2-.1.1v.9h-.2v.2zM16 217.7v.3h.2l.1.2v.2h.3v.1h.1l.2.1h.3v-.3h.1v-.1h.1v-.1h.1v-.4l.1-.1v-.3l-.3-.2-.1-.1H17v-.2l-.3-.1h-.3v.3h-.2v.2h-.1l-.1.1zm419.4 8.5v.4h.2v.2h.2l.1.1h.5l.1-.3h.1v-.1h.2v-.2h.1v-.2l-.3-.1v-.7l-.1-.2-.1-.1h-.3v-.2h-.1v-.1h-.2v.5h.2v.2h-.4v.2h-.1v.1h-.1v.3zm37-178.3v.8l.2.2v.5l-.2.1v.3h.6v-.3h.4v-.3h.1v-.1h.1V48h-.5v-.5h-.1v-.1h-.6v.3zm5.4 26.6l.2.1h.2v.4h.4l.1-.3h.3V74l.1-.2v-.2h.2v-.7l.2-.2v-.2l-.3.2h-.2v-.1h-.5v.2l-.1.2v.7h-.2v.5l-.1.4-.1-.3zm-59.3-62.3l.1.2v.7l.1.1.4.2h.1v-.1l.2-.1h.6v-.7l.3-.2v-.1l.2-.4-.3-.3.2-.5v-.2l.1-.4h-.3l-.1.1-.2.2v1l.1.9v.1h-.8v-.2l-.2-.2h-.3v-.1zM446 25.6v.2l.1.3.2.2h.1l.4.3.4-.4v-.9l-.4-.3v-.3l-.2-.2h-.2l-.4.3v.2zM291.8 250.2l.1.1h.4l.2-.2h.5l.2.5h.1v.4l.3-.2.1.1v.2h.2v-.3h.1v-.2h.6v-.3h.2v.3h.2v.1l.2-.3h.3v.4l.3.1v.4l-.5.3v.4h-.1.3v-.2l.3-.2v-.3l.2-.1.2-.2h.1v-.2h-.3v-.4h-.2l-.4-.3h-.2v.3h-.4l-.2-.2h-.2v.3h-.1l-.2.2h-.3l-.2-.2-.2-.2-.4-.5-.1-.1-.2-.2h-.1v.5h-.6l-.3.2zm6.9 15v.5h.2v.1h.1v.1h.4v.1h.3v.3h.1v.1h.2v.4h.3v-.3h-.3v-.1l-.3-.2v-.2h-.1v-1l.3-.2h.1v-.2h.9l.1.4v.2l.2.1v.3h.1v.3h.1v.1h.2v.2h.2v.1h.2-.4v-.3h-.2v-.3l-.1-.1v-.3h-.2v-.3h-.1v-.4h-.2v-.5h.2v-.5l.2-.2v-.1h.1v-.1h.1v-.2h.1v-.3h-.5v-.2h-.2v-.1h-.2v-.2h-.3v.4l.3.1.1.1.2.1h.1v.1h.4-.4v.3l-.2.1v.1h-.2v.3h-.1v.6h-.2v.1h.3v.1h-.6l-.1.2h-.2v.1l-.1.1v.4h-.1v.5-.3l-.1-.1v-.1h-.2v-.1h-.1v-.2l-.1-.1h-.4v.2zM278 254.7l.3.1v.4h.2v.1h.7v-.3h.2v.4l-.1.4h-.2v.4h.6l.1-.2.2-.1v-.9l-.3-.2h-.2l-.2-.2-.2-.2h-.1v-.3l-.3-.1h-.3l-.1.3-.1.2v.1h-.1zm166.2-1.4h.1v.2h.2v.3l-.1.2.1.3.1.1h.6v.2h.2v.1h.6v-.3h.3v-.4h-.2l-.1-.2-.3-.1h-.4v-.3h-.2l-.1-.2h-.4v-.2h-.4v.3h-.1zm-147.3 7.5h.5v-.1h.6v.5h.2v.4l.3.1v.3l.2.2v.2h.3v-.4h.4v-.2h.1v-.1h-.2v-.1h-.2v-.2h-.1v-.3l-.3-.1v-.2h.5v-.2h-.6v.4h-.3v-.1l-.3-.1v-.2l-.2-.1h.2v-.4h-.4v-.1h-.2v-.7l.3-.1h.1v-.2h.1-.2l-.3.3v1.1l-.1.1h-.3v.2h-.2zM282 273.4h.2v.1h.1v.3h.7v-.3h.4v-.2h.1v-.3h.2v-.3h.1v-.1h.4v-.3h-.5v.3h-.3v-.3h-.2v-.1h-.2v-.2.3h-.3v.1h-.1v.2h-.1v.2h-.1v.1h-.1v.1h-.1v.2h-.2v.1zm.8.2h.2zm.2 0v-.2h.2-.2zM496.4 24.7v.2h.2l.1.1h1v-.2l.2-.1h.1v-.2h.1v-.2h.2V24l-.6-.2h-.4v-.2h-.3l-.1.2-.5.8zM307 248.6v.6l.3.1v.1h.9v-.4l.2-.1v-.6l-.1-.1-.3-.2h-.4l-.1.2h-.5v.1zM244.1 261l.2.2h.1v.1l.2.2h.7v-.2h.7v.2h.2v-.5l-.2-.3v-.3h-.3v.3h-.1v.1h-.3v-.2l-.2-.1-.1-.1h-.7l-.1.1v.1h-.1v.2zm234-180.1l.5.5v.4l-.3.2.2.5h.4l.1-.1V82h.1v-1h.2v-.6l-.2-.2v-.1h-.3v.1l-.2.1v.1l-.1.1h-.2l-.3.3zm.4 1.3V82h.2v.3zm0 0"/><path d="M298 263.8v.5h1.2v-.3h.2v-.2l-.3-.2v-.1l-.1-.1v-.6l.2-.1v-.3h-.2l-.2.2h-.6v-.3.3l.5.3v.1h-.2l-.2.2-.1.1-.2.2v.2zm-34.1 2.4v.2h.8v-.4h.2v-.3h.1v-.1h.2v-.9l-.2-.1h-.7v.2h-.1v.1h-.2v1.1h-.2v.2zM395.7 211v.3l.3.4.3.2v-.1h.4v-.2l.3-.3v-.8l-.5-.3h-.4l-.3.3v.4zm-83.3 48v.3h.2v.2l.2.1.1.1h.6v-.3h.2l.1-.1v-.3h.2v-.2l-.3-.1v-.1h-.1v-.1h-.1v-.1h-.1v-.3l-.1-.1h-.2l-.1.3v.1h-.3v.2h-.2v.1h-.1zm157-210.3v.6h.9l.2-.3h.2v-.2h.1v-.3h.2v-.1h-.3v-.1l-.1-.2V48h-1.3v.7zM303.5 274.3v.2l.2.1h.6v.1h.5l.1.1h.1v.1h.2v.1h.4v-.3h.1v-.3h.1v-.2h.2v-.2h.2v-.2h.2v-.3h.2v-.1h.1v-.2h.1v-.1h.2v-.1h-.5v.3h-.1v.1h-.2v.3h-.2v.2h-.2v.1h-.1l-.2.2h-.3v.2h-.2l-.3-.3h-.1l-.1-.1h-.2l-.1-.2h-.1v-.3h-.1v-.7h.2v-.2l-.2.4h-.2v.7h.2v.3h.3v.3h-.9zm72.4-235.4v.2l.1.2v.3l.2.2v-.2h.3l.1-.1h.4v-.1h.3v-.3h-.3l-.1.2-.3-.2.6-.1.1-.2.4-.2v-.2l-.5-.4-.1-.1h-.6v.3l-.1.1.1.3v.3l-.1.1-.4-.2zm24.3-20.6l.2.3h.6v-.3h.2l.2-.1v-.4l-.1-.3v-.3l-.5-.2h-.4v.2l-.2.8zM311 253.4v.1l.2.2h.3v.3h.5v-.1h.4v-1h-.2v-.2l-.4-.2-.2.3v-.2h-.1v-.2h-.1v.3l-.4.3v.2zm-30 10v.2l.1.2h.4v.2h.2v-.3h.3v-.1l.3-.1.2-.2v-.2h.2l-.2-.1h-.2l-.2-.1h-.1v-.2l-.1-.1h-.2v-.4h-.4v.3h-.1v.4h-.2zm0 0h.2zm.4-.1v-.3h.1v.5zm-.1-.3h.2zM436.5 29l.2.3.3.1h.2l.1-.1h.2l.2-.2.2-.2.3-.2h.2v-.1l-.3-.4-.5.2v-.1h-.6v-.1h-.1v.3l-.4.1zm54.1 15h.2v.3-.3h.2v.9h-.2v.2h.2v-.3h.3v-.5h.1v-.2h.1v.3l.1.1v.5h-.3v-.3h-.1v.3h.3v.2h.1V45h.1v-.2h.1v-.3h.1v-.1h-.2v-.2l.2-.2v-.8h-.5v.2h-.1v-.3h.3V43h.1v-.2h-.3v-.2.3h-.2v-.3h-.1v.4l-.1-.2v.4h-.1v.3h-.2.3v.5h-.4v-.2zm.4-.8v.1h.3l-.3.2zm.4.5v-.3h.2v.3zm.2.3h.2v.2zM256.5 263.6v.4h.2v.2h.3v-.2h.2l.1-.1v-.3h.1v-.1h.1v-.4h.2l.2-.1.1-.3v-.2h.2-.2v-.1h-.3v-.2h-.5v.2h.4-.2l-.1.1v.3h-.1v.1h-.4l-.2.1v.4l-.2.2zM410 39v.2l.3.2.6-.2.5-.2.2-.3v-.1l-.3-.3-.3-.1h-.2l-.2-.1h-.2l-.2.1-.2.2v.3zm-15-18l.3.5v.2h1l.2-.4h.1V21l.2-.1v-.4l-.4.1h-.9l-.1.2-.1.2zM288.6 266.6v.1h.2v.2h.1l.1-.2h.4v.5h.2v.3h.1l.1.2v-.4l.2-.2h.3v.3h.2v.1l.1.1h.2v.4h.5v-.2h.2v-.3l-.1-.1h-.2v.3h-.1v.2-.9h-.3v.2h-.2v-.2h-.1v-.4h-.2v-.1h-.1v-.2h-.1v.4h-.1l.2.1h.1v-.3.4l.2.1h-.6v-.2h-.2l-.1-.1v-.1h-.2v-.1l-.2-.1-.1-.2h-.1v.3l-.3.1zm1.8.4h.3-.2zm20.1-17.8v.1h.3v.2h.2v-.5h1v-.7h-.4l-.1-.3h-.9v.7l-.1.3zM442.4 23.8l.3.3.2-.2h.1l.2-.1v-.3l.2-.3v-.5l-.4-.3V22l-.1-.1h-.1l-.2.1v1l-.1.3zm8.1 254.6v.2h1l.7-.4h.2v-.2l-.1-.1-.4-.1-.2-.1h-.2l-.2.3-.1-.2h-.6l-.1.2zm-222.8-4v.2l.3.2v.3h.3l.3.3h.1l.3.2h.5v.4h.1v-1h-.1v.1h-.4l-.1-.1-.1-.2.1.2v.3h-.3l-.3-.5h-.2v-.2h.2v-.2h.3l.1.2h.2l.1-.2v-.1l-.3-.2v-.1h-.5v.4h-.2v.2h-.1v-.4h-.2zM484 80.7l.4.1.3-.2h.1l.2-.2v-.2h.3v-.6h.1v-.3l-.4-.1h-.2v.1h-.4l-.1.4-.1.2v.4l-.2.1v.2zm-13 194v.2l.2.5h.7l.1-.3v-.2l-.1-.2v-.1l.1-.2v-.2l-.1-.2-.2-.3h-.2l-.5.6v.2zm-230.3-4.2l.3.2h.2l.1.3h.7l.2-.6.1-.1-.1-.3-.1-.1-.1-.1-.2-.1h-.5l-.2.2v.1h-.1v.4h-.4zM475.4 84.4h.4v.8h.5v.1h.4v-.1l.1-.2v-1h-.1l-.2-.1h-.3l-.2.1v.2h-.4V84h-.1v.3zm11.7-21.8l.3.4h.2l.1-.2h1l.1-.2v-.9h-.3v-.3h-.1l-.1.2v.2l-.3.4h-.4l-.2.3h-.2v.1zM294.2 256.5l.2.2v.3l-.2.3v.7h1v-1.2l-.2-.1v-.4h-.1l-.3-.3h-.1l-.1.2v.2zM466.2 81v.4h.1v.1l.2.2v.3h.8v-.3h.1v-.8h-.2v-.3h-1v.3h-.1v.1zM465 55.8v.4h.2v.2h.2v-.2h.2V56h.2v.3h.1V56h.6v-.2l-.3-.1v-.2.4h.3v.1h.3v-.3h.1v.3h.4v-.2h.2v-.1h.4v-.2h-.7.2-.4v-.1h-.2v.3h-.1v-.2h-.3v-.2h-.2v.2h-.9l-.1.2zm.6 0v-.3.3h.2-.3zm.2 0h.2v.2zm22.4-20.3h.6l.1.2h.6v.1h.3v-.4h.2v-1h-.2v.4h-.2v.2h-.2v-.3h.2v-.1h.2v-.3h-.3v-.1h-.1v.4h-.2v-.2l-.2.2v.9h-.3V35h-.4v.4zm.9-.5h.3v.2h-.4zm.3-.5h.3v.2h-.2zm-97.1-2.3l.2.1h1l.3.1.1-.1v-.5l-.4-.3-.3-.1h-.2l-.5.2v.1l-.3.3zM246.7 276.1v.2l.3.2v.3h-.2v.1h.2v.1h-.2v.6h.5v.3h.1l.1.1v.2h-.3v.4h-.1.3v.1h-.6v.3h.5v-.3h-.3v-.1h.2-.2.4-.3v.3h.4v.1h.1v-.4h.1-.3.3v-.1l.1-.1h-.4v-.3h.3-.3.4v.2h-.3.3v.2h.1v-.5h-.5v-.2h-.1v-.1h-.1.2l.2-.1.1-.1h.3v-.5h-.3v-.2h-.2v.2h-.2l-.1-.2v-.1h-.1v-.1h.3v.3h.1-.3v-.3h-.2v-.1h-.2v-.5zm.4.6v.2zm.2 2h.2zm.1-.2h.2zM423.5 11.1v.3l.2.2.3.1.3-.1h.2l.2-.5v-.5l-.3-.1h-.5l-.4.2v.3zM482 33.3v.7h1v.5l.1.1V34h-.1v-.3l-.2-.1v-.4l-.2-.1v-.5h-.1l-.3-.3h-.2v.7zm-226 222v.1h.1v.2h.8v.3h.1l.1-.3v-.4h.3v-.4l-1.2-.3-.2.2v.5zm58.9 9.7v.6h.1l.1.1h1.1v-.3h.1v-.6h-.5v-.2h-.7v.3h-.1v.1h-.2zM449.5 32.9l.1.1.4.3h.3l.2.2h.2l.1-.1.2-.2.2-.1v-.3h-.5l-.1-.4h-.4v.1h-.4l-.3.1zM441 273.1v.2l.2.3v.4h.4l.2-.2.2-.3v-.5l-.3-.4-.5-.1-.2.2zm-155.9-17.4v.2h.3v.4h.3l.1.1h.2v-.4h.1v-.2h.1l.2-.1h.1v-.2h.2v-.5h-.7v.5h-.7zm189.2-178l.2.1v.2l.1.1v.2l.2.2h.4v-.7h.2V77h-.9v.3h-.2v.3zM22 216.6v.2h.2v.1h.1v.1h.2v.2h.5v-.2h.2v-.2h.1v-1h-.6l-.1.2h-.2l-.1.2v.1h-.1l-.1.2H22zM258.9 262v.1h.4l.1.2v.2h.9v-.5h.1v-.3l-.3-.1-.1-.1h-.4l-.1-.2h-.3l-.2.4-.2.2zm.7-.3v-.2h.2v.3zm.2 0h.2zm.4.3v-.2zM493.9 66v.5h.1l.2.1h.1v.4h.3v-.3.3-.2h.4V66l-.3-.3-.3-.3h-.2l-.1.3-.3.2v.1zM255.3 276.3h.6v-.5h.1l.2-.1h.1v-.1h.5v-.1h.1v.3h.3l.1-.2v-.8h-.3v-.2h-.2v.4h-.2v.2h-.1v.2h-.1v-.3h-.4v.4h.4v.1h-.4v.1h-.3v-.3h-.1v.4h-.3zm15.5-6.4l.2.1v-.2h.4v-.4h.2v-.1h.2v-.3h-.3v-.4l.3-.1h.2v-.1l.3.4v-.3h.4l-.2-.1v-.3h-.2v-.1h-.6v-.2h-.2v.2h-.1v.4h-.1v.3h-.1v.3h-.1.4v.5h-.3l-.1.1v.1h-.3zm15.4-12.6h.2v-.2h.1v-.3h.9v.2h.2v.2h.2v.2h.2v.2h.2v-.3h.1v.7h.2v.3-.5h.3v-.3l-.5-.1h-.1v-.2h-.2v-.3l-.3-.1v-.2h-.2v-.2h-.3v.3h-.1l-.1-.3-.1-.2h-.1v.4h-.3v.3h-.2v.1l-.1.2v.2zm179.5-118l.1.1h.5v-.4l.3-.2v-.8h-.4v-.3h-.2v.3h-.2v1h-.1zm0-1l.2-.2zm.3.4v-.1l.2.4zm.2.5v-.2zM261.9 255.1h.2l.2.1h.3l.4-.4v-.8l-.2-.1h-.3l-.2.1v.2l-.2.2v.2l-.1.1-.1.3zm11.3 20.6v.1h.3v.2h.3l.1.2h.5l.2.2h.4v.2h.3v-.9l-.3-.1h-.2v-.1h-.3v.5h-.2l-.2-.1v-.2h-.1v-.2h-.6l-.1-.2h-.1v.3h-.1zM449 47v.1l.2.1v.4l.1.3h.3l.2.3v.3l.4.2h.4v-.2l-.1-.3-.5-.4h-.2l-.1-.3-.2-.3V47h-.6zm-4-20.5l.1.6.3.2h.3l.3-.5v-.7h-.6l-.1.1-.3.2zm0 0"/></g></g></svg>