<svg xmlns="http://www.w3.org/2000/svg" xmlns:xlink="http://www.w3.org/1999/xlink" viewBox="0 0 497 279" xmlns:v="https://vecta.io/nano"><style><![CDATA[.B{stroke:#fff}.C{stroke:#8d618b}.D{stroke-linejoin:bevel}]]></style><filter id="A" width="100%" height="100%" x="0%" y="0%"><feColorMatrix in="SourceGraphic" values="0 0 0 0 1 0 0 0 0 1 0 0 0 0 1 0 0 0 1 0"/></filter><mask id="B"><g filter="url(#A)"><path fill-opacity=".5" d="M0 0h497v279H0z"/></g></mask><clipPath id="C"><path d="M0 0h497v279H0z"/></clipPath><path fill="#f2efe9" d="M0 0h497v279H0z"/><g fill="#aad3df" fill-rule="evenodd"><path d="M-50.4 262.8l.2.5h.2v.4l.3.2h.2v.1l.2.2.1.1v.2h.2v.3h.2v.1l.7.1.4-.1h.9v-.1h.2v-.3h.6v-.1h.3v-.2l.4-.1.1-.4h.2l.2-.3.5-2h.1l.2.7h.1l.2.5-.1.2.3.2.2-.4v-.9h.3l.7.1v.2h.5l.9-.3 1.6-.2 5-1.4 1-.4.3-.5.3-.7h.1v-.2l1.2-.3v-.2l1.7-.5.1-.2h.2l.4-.2v-.2l.8-.1v.2h-.3v.1l-.3.1v.1h-.2l-.4.8-.2 1.3v1.5h-.1v1.3h.3l.1.2v.6h.3v.6l1.5 1v.9h.2l.3.5v.2h.1l.1.4h.2v.3h.5l1.7.4.2.9.7.6.1.5h.2v.2l1 .3v.1h.2l.3.7 1 .2h.2l.2.1v1.6h.2v.1l.1.1v.2h.8v.3l.7.3.3-.1v.2l1.3.3v-.2l.2.2h4.2l1-.3.2-.1h.4l-.1.4h.4v.1l.6.2h1.3v-.2h1.1l1.6-.1h.2l.2-.2h.4l.2-.1.4.4.1.2h.5l.5-.1.4-.2h.4l.2-.3h.3l.3-.2.8-.2h.2l1.1-.6.9-.2.5.2.2-.1H2v-.2h.3l.4-.1v-.2l1.1-.3h.3v-.1l.3.1v-.1l1.4.1h.5l1.7.6.1.2-.1.2-.2.4h.1v.4l.1-.3h.4l.1-.3h.3l1.1.4v.1h.1l.2.6-.4.9.2.1h-.2l-.6 1.7h.2v.7h.1v.7l-.1.5-.4.8-.5.3-.6.9-.4.5h-.1l-.4 1.8h.1H7v.6h.1v.3l.3.2v.6h.1v.2h-.2l-.3 1.8.3.4h.3v.1h.1v.1l.7.2h.1v-.2h.2v-.3h.2v-.3h.4v-.1h.1l.1-.2h.1l.1-.2h1.1v-.1l.6.1v-.1h.8l.6.2h.4l-.2.2h.9v.3h.3v.3l.7.2v.2l1.6.1v-.1h.3l.1-.2v-.1l.9-.3v-.2l.1.1v-.1l.6-.2.1-.2h1.9v-.2h.7v.1h.4v.4h.4-.2v-.3l.1.2h.6v.2h-.2l.4.1.1.3h.4l.2.6v1h.2l-.1.3v.4h.3v.2h.2l-.2.6h.2v.1h.7v.3l.1-.1.5.1h.2v.1h.1v.2h.3l.1.1.6.1-.1.2h.2l.4-.1v-.1h.3v.2l.1.2v.5l.1.3h.1v.2h.3v.1l1.1.3h.4v-.2l.5.3.5-.1h.2l.3.3.2.1.3.2v.1l-.1.1v.4l-.3.3v.4l-.1.1-.2.4-.2.3-.2.3v.5h-.2v1l.3.1v.8h.4v.2h.1l-.3.2v.1l-.3.2v.8l.4.3.3.2h.7l.1.2h.1v.2l.2.2v.4l-.2.2v.8h.2l.2.2h.3l.3.2h.7v.1h.3v.1h.2l.3-.2h.4l.1.1.2.3.2.1h.2v.1h.1v.2l.2.1h.3v.1h1l.4-.2.1-.2h.4v-.2h-.4l-.2.2h-.6.3v-.2H37l-.1-.1h-.4v-.3h.2v-.3h-.5v-.1h.3v.3h.3v.2h.2l.1.3h1.7l.1.1h.2v.1h.2-.7v.4l.2.1h.2v.1h.1l.1-.4h.2v-.2h.1l.2.4.2.2h.7v-.3H42l.3.3h.3v.6h.3v.3h-.1v.3h.2v.2h.3v.2l.3-.6h.2l.2-.3h.2v-.3h.8v-.5h.1l.6-.3.8-.4-.1-.6.2-.8h.2v-.2h.1v-.2h.3v-.1l.5-.2v-.5h-.1v-.2h-.1l.9.2 1.7-.6h.5v-.3h.4v-.2l.2.1.1-.2.1.1h.2v-.3h.4l.1-.3.6-.2v-.2h.5v-.8h.6v-.2h-.6l.3-.2H53v.1l-.6-.4-.4-.1v-.4h-.2l-.1.5h-.4v-.1l-.4-.3v-.1h-.5v-.3h-.9l.1-.4h-.3l-.5-.1v-.3h-.1l-.3.1-.2.2v-.1H48v.5h-.3l-.3.6-.1 1v2.5l-.5-.3v.2h-.3l-1-.1H45v.1h-.5l-.3.3h-.1l-.4 1.4h-.1v.1h-.2v.1h-.2l-.2.5h-.2v.4-.3h-.2v.3H42l-.5.4v-.5h-.1l-.2-.2v-.2l-.5-.2h-.2v-.1l-.5-.2h-.4v-.1l-.3-.1v-.3l-.3-.1v-.1l-.6-.2v-.1l-.7-.5v-.3h-.2v-.3l.3-.1.2-.2.2-.3.1-.6.1-.4.3-.5.2-.2v-.5l-.1-.3-.1-.2v-.1l-.1-.2.2-.6.2-.2v-.8l-.5-.4-.3-.2-.2-.3-.1-.1-.3-.1-.4-.4-.4-.3v-.2h-.1l-.1-.7-.1-.3h-.2l-.2-.2H36v-.3h-.2v-.2h-.1v-.5h-.2.1l-.1.4v-.2l-.5-.3h.2l-.2-.2v.3l-.3-.2v.1h-.4l.1-.1h-.1v.1H34v-.2.3l-.4-.3.2.2v.1l-.2-.1-.2-.2v.3h-.3v-.3H33l-.3.3H32v.2h-.3v.2l-1.3-.4-.4-.4-.4-.1v-.1l-1.4-.4h-1.3v.2h-.2v.2h-.2l.1-.3h-.2v-.3h.1v-.1h.5v-.5h.3v-.6h.2l.2-.8v-.1l.3-.3h.2l.2-.2h.1v-.3h.1v-.2l.4.1-.2-.3h.2v-.3h-.1.3v-.2l.1-.1h.2v-.2l.2.1v-.2h.3v-.6h.5v.4l.1-.4h.1-.3v-.2l.3-.1v.1-.2l.2-.4h.1v-.2h.2v-.4l.4-.6v-.2.2l.2-.7-.3-1.3h-.1v-.4h-.1v-.4H31l.1-.5h.4v-.4h.1v-.3h.3v-1.3h-.3v-.4l-.3-.4H31l-.6-.5v-.2h-.3v-.2h-.3v.3h-.4l-.9-.3v-.2l-.6-.3v.1l-1.3-.2v-.4l.1-.3h-.3v-.8h-.1l.1-.9v-.3l-.4-.7v-.3h-.4l-.1-.3v-.2h-.1l-.4-.7-.2-.2v-.2l-.6-.1v-.1l-.8-.2v-.3h-.6v-.2l-1.2-.2v-.3h-.8l-.3-.1h-1v-.1h-.3l-1.4-.1v-.4h-2.6v.1h-.5v.1l-.2.1v.1h-.4v.5l-.3.1h-.2l-.3.4h-.2v.2l.2.2-.6.2v.2h-.3v.1H12v.3h-1v.3h-.4v.1h-.3v.2l-.1-.2v.2H10v-.1.3l-.4.1v.3h-.3l-.1.4H9l-.2.5h-.2v.3h-.4l-.2-.4v-.8h.3v-.4l.2.1v-.7h.2l.3-1h.3v-1.5l.2-.3h.1l.2-.4h.1l.5-1.4v-.7h-.3v-.5l.3-.9h-.1l.6-2.4h-.1l.1-.5.2-.2v-.3l.5-1h.1l.2-.7h-.1l.2-.6.3-.4.7-2.9h-.2V253l-.1-.4-.2-.2v-.2l-.2-.2h-.1l-.2-.7h-.1l-.3-.1v-.2h-.1v-.2h-.2v-.1l-.3-.1h.2v-.2l-.5-.1v.2l-.7-.5h.2l.7.3v-.5h.3v-.1l.3-1.1-.5-.2v-.1h-.2v-.3l-.5-.1v.2H10v.2l-1-.3v.3h-.7l-.2.6h.1v.3h.2v.3l-1.1-.4-2.2-.8-1.1-.1-1-.2-.2.2h-.1v.2h-.2l-1.1.2H0l-.1-.1h-1.5l-.9-.3v.2h-1.3l-.2-.1h.2v-.3h.3v-.2h.2l.3-.2h.2v-.3h.2l.3-.2v-.1h.3l.6-.1h.2l1.5-.4v-.2h.6v-.3H2v-.4h.6l.4-.3.1-.1h.3v-.1l.6-.2.2-.1v-.2h.2l.5-.2h.2v-.4h.7v-.3h.4v-.3h.2l.2-.1.3-.1v-.2h.4v-.2h.2l.1-.2.3-.1v-.1h.2v-.3h.3v-.1h.3v-.2H9v-.5h.8v-.3l.5-.3h.5v-.4h.2l.5-.5h.3l.2-.6h.4l.2-.5h.3v-.8l.3-.1v-.2h.1v-.1h.1l.4-1h-.1v-1.2l.5-.3h.1v.4h.8l.6.2v-.2h.1l.5.3h.6v.1h.3l.3-.2h.2v-.1h.5v-.2h.2v.3-.2h.6l.5-.2v-.2h.4v-.2h.1l.3-.1h.1l.1-.2h.3l.2-.4h.5l.7-.1v-.2h-.1v-.2l.2.1v-.1h.2v-.3h.3l.2-1.1h-.1l-.4-1.1-.1-.1v-.2h-.2l-.5-.5h-1 .2-.2l-.3-.5-.1-.1-.4-.6-.5-.3-1-.6-.6-.3-1-.4-1.5.7-.1.3v.1H15l-.1-.1v-.5l-.1-.3h-.1l.2-.7v-.3h.5l-.3-1.5-.2.2h-.2l-.3.3H14v-.3l.2-.1.3-.3v-.3l.3-.2.2-.2v-.1l-.3-.2-.3-.1v-.2l.5-.4v-.2l.1-.2v-.6l.2-.1v-.2l-.4-.1h-.2v-.1l-.3-.3h-.5l-1-.5h-1.3l-.2-.2h-.1v-.3h-.7v-.2h-.4l.2 1.5.3.2v.2h.2l.2.3h.1l.1.3h.3v.8h.3v.1l.2.5-.6-.5-.2-.7-.2-.3-.2-.2v-.2h-.4l-.1-.4v-.1H10l-.2-1.6h-.2v-.4H9v-.2l-1.2-.8H7v-.3l-.3-.1-.3-.8-.1-.3-.4-.3-.1-.3-.1-.2-.2-.2-.2-.2h-.1l-3-1.4-2-.4h-3.5l-1.5.5-1 .3-.4.2-.6.3-.5.4-.5.5-.5.6-.4.6-.1.3v.5l.3.2v.1l-.2.2-.3.1-.3.2-1.2 1.4-.1.3v.4l-.4.2-.4.7-1.1 2-.3 1.4.3 1 .5.9h-.1v.3l-.2.1h-.2l-.2.4h-.2l-1.1 1.4-.5 1.5v.7l.3.7.6.8.3.4.3.4-.3.3v.4l.1.3-.2.5h.1l.3 1-.4.6-.3.1v.2h-.3v1.2l.2.4h.2l.1.3h.2v.2l.3-.1v.2l.4.3.6.2v.2h.3v.3h.2v.1h.5l.2.5h.3v.4l1.4.6v.1l.7.5v.4h.1l.1.7h.1v.3h.1v.2h.3v.5h.1v1.3l-.2 1.5h.2v.1l.6.2.7-.1h.3v-.2h.3l-.3.3h-1v.3l-3-1h-.5v.1h-.1v-.2l-3.1-.3v.1h-.3l-2.6.1h-1.7v.2h-.7l-4 .6h-.2v.2h-.5v-.2h-3.1v.2-.1h-.9v.2h-2.1l-.4.3h-.5l-.3.2-.7.6h-.1v.3h-.1l-.7 1.1-.2.3-.2.2-.3.5v.2l-.3.1v.1l.2.1v1l-.3.3h-.1v.1l-.4.2h-1.1l-.3.1h-.4l-.4.1-.2.2-.4.1-.5.4-.3.2-.2.3-.5 1.3.2.6-1.7-.2h-1.8v.2-.2h-.4v-.1l-.3-.1h-.7l-1-.3-.3.3-.4.2h-.1l-.2.3v.1l-1.1.2v.2h-.1l-.4.6h-.1l-.1.2h-.1l-.3.6h-.1v.2l-.2.7-.3.1v.1l-.2.1v.1l-.5.2-.3.1h-.2v.2l-.7.8zM9 249.6l.5.3h-.4zm.6.4v-.1h.2v.1zm0 0"/><path d="M24.6 239.6l.6.6 2.3.3.1-.1h.7l1-.6.7-.8.1-.7v-.3l-.4-.4h-1.1l-.8.5h-.3l-.6-.6h-.4l-.1-.1-.4.1-.3-.3h-.3l-.2.4-.2.4v.5l-.3.5zm11.5 13.1l.4.5h.3l.2-.3h.4l.3-.3.7.2.3-.5.3-.7.3-.4-.3-.5.1-.2.2-1h.2l.7-.3-.2-.2.7-.6.2.2v.9l.6-.3h.5l.8-.9.2-.5.4-.6-.4-.4-.2-.3-.2-.1h-.3l-.3-.2v.4l-.5.3-1.2.6-.7-.7-.8-.3-.2.2.1.4h.5l.3-.1.2.4h-.8v.8l.1.4-.3.7.3.5-1.4 1 .1.2h.3l.3.7-.1.5h-.8l-.2-.3-.2.3v.4h-.3l-.4-.2zm3.7-4.6l.2-.2v.1zM29 240.6l.8.4.2.4.5.6v.8l.4.2h.1l.2.2.4-.1 1.4-1.3-.3-.5-.9-.2-.3-.5-.7-.6h-1l-.1.2h-.3zm-24.7 4.5h.3l.3-.1H5l.6-.3h.5v-.2h1.1l.4-.8h.7l.5.3.1-.2v-.2l-.2-.6.3-.3v-.3l-.7.2-.2.3-.4.2-.5.4-.2.2-.7.3h-.1l-.2.2-.4.2h-.1l-.5.3h-.1l-.6.3zm42.6 5.2l.3.1.1.9.2.2h1.2l.4.1.3.2.6.2v-.3l-1-.4-.5-.7-1.3-.8H47zm-32.7-6l.1.1h.4l.3.2h.3l.4-.2.2-.4h.1l.1-.1v-.4h-.3v-.5l-.3-.2h-.3l-.4.2h-.3l-.1.2.1.2-.3.2v.2h.1zm7.5 9.6l.2.1.3-.2h.1l.1-.1.2-.2v-.2h.4l.2-.5H23v-.6l-1-.4-.2.2v.3l.1.3v.8zm-1.1-6.9l.4.3h.6l.1-.3h.1l.4-.4v-.4l-.4-.2-.3-.1-.5.4-.5.4zm-10.2-2.8h1.1l.2-.3v-.3h-.1l-.2-.4h-.1l-.3-.2h-.3l-.1.2-.2.2zm21.8 7v.1l.4.3h.3l.3-.2h.1l.4-.4-.4-.3H33l-.2-.2-.2-.1-.4.3zm127.5 164.7l25.3-1 11 .1 19.6 1.7 8.4-.3 3-.7 3.5-2 1.3-2-.4-.7.4-3.4-.5-.4.8-.5 2.9 1.3.5 1.2 16.1 5.4 35.5 8.7 3.6 1.5 3.7-.3 15.8 3 7.2-.1 13 4 14.2 3.8 26.9 8.1 3.3 1.4-.4.3-1.4-1-7-2-2-.3-2.6-1.3-1.5 1.1-4.3-2.5-.1.4-.6-.4-.2 1h-1l-3-1.1-1.7-1.5-.9.6-.2-.8-.4.4-.3-.6h-.7l-1-1-.3.4v.6l-1.2-.4-.3-.4.1-1-.5.2-1-.4v.8l.7.6-.3.4-4.8-.3-1.6-1.3-.3-1.5-1.3-1-3.5-.7-.4.5v-.5l-1-.2-1.4.7-.1-.5.2.5-.5.3-.7-.2-1.1-1 .2.8-1.4-.1-1.4-2.4h-1.7l-.8-1.1-1.5.8-.9-1.3-1.7-1-.7.3-.9 1.2-1.2-.6-.7.5-.2-.5-1.1-.2-1.9.6-1-.6-1.3.6-.5-.8-2.3-.7-1.3.5-1.2-.3h-.2l-.9-.8-.5.3.9.6 2.4.2.9.9 3.1.1.9.9 1.4.5h2.3l1.3-1h1.7l2 1.1 1.6.4 1.7 1.7 3.4.7 4.5 2.5 6.4 1.6 5.6.5 4.6 1.5 7 1.3 1.1.7 2.5.5 1.2.7 3 .2 2.4 1.4 7.6 2.2h2.7l.9.7 12.5 1.7.2.4h.8l.9.6-.2 1.1-.4.1.3.4.5-.9.1.3 2.1-1.2h1.6l.5.2.2-.6-4.3-.5-13.7-3.5 13.4 3 6.6.8 1.3-1 1.5-2.2.9-.3 1 .4 2.3-1 .3-.8-.1-1.4h-.8v-.4l.4-.6 1.3.4.2.6 1.4.4.6 1-.6 1.1.7.7 4.8 2.2 3.8.9 1-.7.3-.7h-.6l1-.3 2.4.7h1.9l2 1 .7-.1v-.7l1.3 1.7h1l.4.8h1.9l3.2 2.8v1.9l1.2 3.4-.6 1.1-1.8 1.1v.5l-1.3.4-.5 2.2-1.2.1-1 1.3v1.5l1.2.7-.3.7.9 1.4-.6 1.2 2.2 3.3 3 3.1 2.4 3.4 4.4 3.4V278.9h-279zm159.5 7.5l-.7.3-.5-.5.5-.2zm0 0"/><path d="M438.7 483.7l4 3 11.6 7.1 4.4.2 1.5 1.2.8 1.2.2 3.5-1.2 1.5-1.9.4-1.7 3.8-.3.8.9 4.2-.1 1.4 1.9 5.6.7 1 2.7 3.2 6 5.1 5.8 6.4 4 3.5 2.6 2.7v.8l1.1 1.3 2.8 2.2 10.5 6.7 1.6 1.3.1 1 .9 1 6.2 4.2h214V279H438.7zM68.4 279v.5l4 6.1 1.1 1.3.5 2.2-1.2 1.5.2 1.4 10.4 12.8 7.5 7.9.9 1.7-.5 2.3 2-.6 9.6 7.8 7.7 7.1 7.4 9.5 1.2 3.3v4.2l4.1 11.5.7 4.2-.4 1.3 1.3 7.5 2.3 4.5 2.8 7 .4 2.1.4 4.6-.8 3 .8 3.1v2.4l-.7.9.5-1.1h-.5l.1-1.2-3 3-.2-.1 1.1-1.2h-.4l1.8-1.2.8-1.8-.6.3.6-.8h-.5v-2.3l-.8-.6 1-1-.1-.9.7-1.8-.1-.7-.5 1.3-1-.7 1-.7v-.6l-.5-.2.6-.5-.5-1.5.4.4v-1l-1.1-.2h.4l.2-.5-.3.4-.5-.2.6-.3V383l-.6-.4-.3-2.2v.4l-.4-.2.3-.2-.3-1.1v1l-.5-1.6-.5-.5h.4l-.5-1.5v.9l-.2.2h-.2l.3-.2-.4-.3h.4l-.3-1.2-.1.2-.7-1-.3.2-.1-.3h-.7l.8-.5.6.3-.7-.9v.5l-.4-.3.3-.4-1.8-3 .3-.1.3.5v-1.4l-.4-.2.4-1.4-.5 1-.1-1.3h-.4l.1-.8h.4l.1 1 .2-1.8-.3.8h-.3l.3-.5.2-.4v-.7l-.3 1.2-1 .9 1.1-2.8v-1.5l-.7-.2.6-.5-.4-2.2-.3.3-.7-1.6h.3v.7l.6.2-.3-1.5-.7-.6.4-.7-.8-.8-1.5 1-3.1.3-.4.5-.9-.3v1l.8-.4-1.8.8-1.3 1.3-.5 1.3.6 1.3h-.4l.6.4-1.4.3-1 1-.4 1.6.1 1.2.5.5-.3 1.1 1.1.8.8-.2-.3.8-.5-.4.3.5-1.5 1.1-.8.8-.2 1.5.9 1.4-1.6 1.4-.3 1.3.9 1.6-1.1 1.4.4 1.3-.3.6 1 1-1.3 3.2.9 2.5-.7-1.3v1l.4.1-.4.7.8 1v.9l-.9 1.6v1.1l.7.7-.4 1.7v-1.1l-.2 1 .5 1.6-.6 1.1.3.9v.4l-.5-1.4.3-.4.2-.4-.4.8-.2.9.9 1.5-1 2.6-.3 1.7 1 1.3-.4-.3-1.2.5-.6 2.3.5 1.1-.9 1.2.6 4.7.5.5v.2l-.7-.2 1 .8-.2 2.2.6 1 .2.5v.3l-.2-.6-.2-.3.3.9-.8 2v2.2l.5 1 1.7.6 1.3 3.2.9.5.4.6v.5l-.5-1-.9 1.1-.2 3.3 1.3 1.9.3 2.3 2.5 1.5-.3 1.5.6 1.4 1.9 1 .3 1.5 1.3.9.8 3.1 3.2 2.4 4.2 2.2.8.6-1.8-.1-2.9.9-1.3 1.4-.5 1.7.7 3 2 3.6.6 2.9-.4 1.2.4 3.1 1.5 7 .1 5.2 1.4 7-.2 3.5-.5 2 1 4.3-.3 1.8-.4 1.1-.8.3.2 2-.4-.7-.7-.2.7-.6-.3-1.1.5-.8.5-.6.4-1.4-.3-3-.4-.8-3.2-1.4-2.9.2-.6 1.6-2.3.8-1.1.9-2.3 3.6-.9 3.1-1 1.2-.7.5-1-.4-1.4.3-3.9 4.7-.8.5-.8-.2-.5.4 1.5 2-.3-.4 1.3.2v.6l-.1.3-.2-.3-.6-.2.1.1-.3 1.1-.4.4-.6-.6-2.2.3-1.2 1.7v1l.3.9.6-.9h2.7l1.7 3.1 3.9 3 .1 1.2 2 1.8.1 3.6.8 1.2-1.4-.7v-.4l-1 .4-1.5 1.7-.3 1.3.7.8h2.7l.4-.3.1.3.8-.5 1.1 2.3.4-.1v-.8l.8.3 1.8-.3 1.3-1.2.5.1.3 1 3.1-.6 1.6-.7 1-1.2-.6-.8-2 .7-.6.4.3 1-.7-.3-.1.9.2-1.5.9-.7.4-.2 1.8-.3 3 .4 2.8 1.1.2 1.6.8.5 7.2 3.8 1.5 1.7 4.5 3.6 3.7 1.6 3.1.7 1 1.3 1 .7.4 4.7h6.4V427l-8.7 2-6.7.2-1.4-.2-1.7-1.3v-.7l.4.6 1.9 1 3 .4 1.2-.2 1.8-2 2-.8.6-.9 2-.8 4.5-3.1 1.1-.4v-3l-.2.2.1.8-1-.5-3.1.7v-.4l2.1-.6-5.6 1-.6.4.3.3-1.6.3-2.2 1.5v1.1l-1.4.4v.8l-5.2 2.9-5.9-1.8-.3-.5.3-.6-.5-.4.6-2.4 1.6-2 2.7-1.4 9.1-1.3 10.9-.5V279zM114 539.5l-.3-.5.5-.3.4.8zm1.9-1.1l-1.5-2.1-.9.4.2-.5.6-.2.5.3 2 3zm-9.6-13.9l-.7-.2-.1-1.3 1.5.9zm-5-2.7v-.8h.4l.3.4zm4.4-1.2l-.1-.9.8-1.6v1l.4-1.5v1l-.3.6h-.5zm21.5-125h-.5l1.6-1.2-.3.7zm-.2-1l-.3.2.5-1.5-.4-1.2.5-1.5.4 1zm9.6-73.6l-.8-.3-.5-2.2-1.7-2.8.1-1.9-1-.8-.2-1 2.3 1.5.1.4 1.1.3 2.6 2.5.1 1.4-.7.6v1.4zm-8.6 66.4l.4-1.1.4-.8-.5.1.4-.2.3.1-.2.5.5-.7zm.3.5l-1.4.6 1-2.4-.7-2.1.8-2.1.2 2.3-.2-.5-.2.8.2-.5v1.1l-.2 2.6.2-.3zm-2.7 10.1l-.3.2.1-1.9.3.3zm-2.3 22h-.5l.2-1.9.4-.3v-.3l.2-.4-.1-.8.2-.7v1.5l-.8 2.6h.6zm1.6-9l1.1-1.8-.6-.2h.6l.3.5-.2-1h-.3l.6-.8h-.5l.4-.2.4-.6-.4.4-.8.2.8-.3.2-.5-.6.1.9-.6-.6-2.4-.2 2 .4-.3v.3l-.4.4h-.4l-.3-1.8.8-.9-.7-1.1.4.6.3-2.3-.4.8.4-1.5-.7-1.6.9 1v3.6l.9 4-.2 3.9 3.4 9.4.5 7-.4 2.1-2.5 2.5h-2l-.8.3-1.7.6 1.8-.8-.6-4.4 2-2.4 1.3-2.7-.8-2.9-1.1-.8-.7-3.4-1-.4-.4.8v-.3zM-119.3 0h279.1v-279h-279zm0 0"/><path d="M-119.3 124.6l8 7.5.5 1.3 2.2.3 29.6 22 47.7 37.1 5.5 5.2.6 1.4 1-.5 3.8 1.8 19.3 11.6L10 218l2 .5h1.3l1.5-1v-.7l-.4-.1.2-.4 1.3-.3h2.3v.7h-2.3l-.3.7-.3 1.8.4 2.8-.7 3.2.4 1.5h2.5l1.5.8 7.8 7.2 9.6 7.3L65 262.3l1.2.8 2.8.2 1.2.6.2 1.3 1.8 1.4v1.1l-1.7 1-1.3-.2-1.5.9-.9 1.2v2.1l1.6 4.3v2h91.3V0h-278.9zm279 154.4h279V0H159.8zm0-279h279v-279H159.8zm279 0h279v-279H438.8zm0 279h279V0H438.8zm0 0"/></g><g fill="none" clip-path="url(#C)" mask="url(#B)" class="D"><g stroke-width=".8"><use xlink:href="#E" class="B"/><use xlink:href="#E" class="C"/><use xlink:href="#F" class="B"/><use xlink:href="#F" class="C"/><use xlink:href="#G" class="B"/><use xlink:href="#G" class="C"/><use xlink:href="#H" class="B"/><use xlink:href="#H" class="C"/></g><g stroke-width="1.2"><use xlink:href="#H" class="B"/><use xlink:href="#H" class="C"/><use xlink:href="#F" class="B"/><use xlink:href="#F" class="C"/><use xlink:href="#E" class="B"/><use xlink:href="#E" class="C"/><use xlink:href="#G" class="B"/><use xlink:href="#G" class="C"/></g><g stroke-width="2.2"><path d="M72.7 194.5l7 6.8 12 11.6 11.9 11.8 21.8 16.8 14.5 11.3" class="B"/><path d="M72.7 194.5l7 6.8 12 11.6 11.9 11.8 21.8 16.8 14.5 11.3" class="C"/><path d="M1.4 141.6l8.3 5.7 15 10.5L40.6 169l6.4 2.8 2.9 1.9 3.1 2 2.6 2.2 17 16.6" class="B"/><path d="M1.4 141.6l8.3 5.7 15 10.5L40.6 169l6.4 2.8 2.9 1.9 3.1 2 2.6 2.2 17 16.6" class="C"/><path d="M-71.7 90.6l1.5 1 20.2 14.1 24.2 17 7.4 5.1 10 7 8.7 5.9 1.1.9" class="B"/><path d="M-71.7 90.6l1.5 1 20.2 14.1 24.2 17 7.4 5.1 10 7 8.7 5.9 1.1.9" class="C"/><use xlink:href="#I" class="B"/><use xlink:href="#I" class="C"/></g></g><defs ><path id="E" d="M84.3 205.8l7.3 7.1 12.1 11.8 21.7 16.8 22 17 5.2 4.3"/><path id="F" d="M14.8 150.9l9.8 6.9L40.8 169l6 2.8 3.2 1.9 3 2 2.6 2.2 24 23.4 4.8 4.5"/><path id="G" d="M152.7 262.7l6.3 5 3 1.8 3.8 2.4 5 4.1 3.7 3.5 5.9 7.2 6.6 6.2 6.4 6.1 12.2 12 12.5 12"/><path id="H" d="M-58.3 100l8.2 5.6 24.3 17.1 7.4 4.9 10 7.2 8.7 6 9.4 6.5 5 3.7"/><path id="I" d="M139.9 252.8l7.4 5.8 11.8 9.1 2.9 1.8 3.8 2.4 5 4.1 3.7 3.5 5.9 7.2 6.6 6.2 6.4 6.1 12.2 12 .8.6"/></defs></svg>