<svg xmlns="http://www.w3.org/2000/svg" xmlns:xlink="http://www.w3.org/1999/xlink" viewBox="0 0 497 279" xmlns:v="https://vecta.io/nano"><filter id="A" width="100%" height="100%" x="0%" y="0%"><feColorMatrix in="SourceGraphic" values="0 0 0 0 1 0 0 0 0 1 0 0 0 0 1 0 0 0 1 0"/></filter><mask id="B"><g filter="url(#A)"><path fill-opacity=".5" d="M0 0h497v279H0z"/></g></mask><clipPath id="C"><path d="M0 0h497v279H0z"/></clipPath><path fill="#f2efe9" d="M0 0h497v279H0z"/><g fill="#aad3df" fill-rule="evenodd"><path d="M2.7 558h278.7l.3-1.3V279H2.7zm0 0"/><path d="M281.6 558h8l-.1-2 1.9-1.5-1.4-2.3.2-4.2 1.1 2.8 1.4 1.9 1.2 1 2 .5 1.7-1 2.1-3.7 1.6-1.2.5-1.5-.4-2.6-1.9-2.4-6-4.3-.7-.2-.8.5-1-.5 1-2.6.6-1 .4-4.3h.9l1.1-.8 1.3.5 1.5-.8.2-1.1-.4-.7h.3v-.7l-.5-1.1.6-.3-.2-.5h-.4l.1-.9h.4l.5-1.7 1.2-.6-.5-.5.8-1.4.6.2.7 3 1 .4.6-.2.4-.6v-2.2h1.4l1.6.6-.4-.5-2.4-.4-.5.6-.1 2.3-.9.1-.6-.6v-2l2.4-1.3-.6-1.3 1-.7-.1.7.8-.1.2-.6 1.7-.8.2-1 1.1.4 1.8-1.8 1.3-1.7.6-3.8 2-1 1.6-2 3.7-5.5 2-.8.7-2.4 1-.5 4.3-3.9.7-1.9 1.9-1.9 2.4-3.9 1.2-.4 1 1.4 1.2-.5 2.2-3.7.2-1.1.7-.4 4.3-7.3 1.2-2.7.2 2.2.6-.7-.4-.6.3-1-.3-1.1 1.4-1.2 1.4-3 .8-3.6-.2-2 .2-1.2-.7-2.9.5-2.1.2-5.5 3.3.5 1.6-.2 1.4-.9.6.6.5-.7.6-.2.2-1h.9l.2.4 1-.8-.7-2.1-1.4-1 .6-.8 1.2-.1-1.4-.6 1.4-.1.7.7-.2-2.2.5-1.8 1.3-.4 1.4.4-.3-.8.3-.2h.8l.9.6-.5-3-.7-.6-.4-1.6.4-2.1 1.1-1.3 1.7-.8.6-1 2-1.8 3.1-3.7 2.7-2.7h.3v.8l-.4 1.5.3.2.2-1h.8v-.4l1.5-1.1 1.3-1.8.3-.7-.2-2 1.8-3.2v.9l.9.5v-1.1l-.5-.8.9-.5v-.8l2.8-1.3.4-2 2.5-4.2 1.5-1.4 1.7-3.7 2-.7.7-1.7.9-.6 1.9-5.2.1-2 1-1 2.4-4.2.1-1.1 1.4-1.8 1.2-3 .8.4 1.8-2.1 2.9-2.3 1.3-.6-.7.4v.6h2.3l.4.7-.3 1.1-.6.3-1.4-1h-.8l-.3.5 1 .1.4.8-.1.8-1-.7v.7l1.1.7.8 1.3h.7l.7-1.2h1l-.4 1.6h.9l-.3.6 1.2 1.6.1.8-.6.4-.8-1.4-.5-.2.2.7-.7.7-2.3-3.4-1.6-.8-.2 1.3.6 1.7.8.5.5-1.3.6-.1-.2 1.3.5.2.5 2.3h1l-.1-1.2.6-.5-.3 1.3.4 1.1-.4.1.3.8.5-.3 1.6 2.1 1.5.8 1.2-.8.4-1.2-.8-3.5-.8-.9.6-.2 3 2.8 3 .7 1.2-.4 1.3.2 2.3 2.8.7 3.1-.7-.5-.5.3.6.3.5 1.4-7.1 2.1-2.7-.7-3.4-1.7-3.4-.4-1.2.3-1.6-1.5-1.1.3-1.1 1v2l1.7 1.7 1.3.2 1.7 1.6 5 2.1h2.3l1.4-1.3.5-1.7.1 2.4 1.3 1.9-1.3 1-2.9-.8-.5.5v1.1h-1.2l-1 1-4-2.6h-1.1l-1.1.8-.4 1.5 1.3 3.8 2.1 1.5 1.4 2.1-1.3 1.9v1.4l-.7.6-.7 1.3h-.7l-2.5-1.3h-1.1l-.8 1.3H402l-1.6-.5-.9-1.7-3-3.2-2.5-.9-1.2.5-.6.9-2.2.6-.4 3.4.2 1.4h-.5l-1.3-1.5-1 1-1.1-.7-.7.4-.1.9.6 1 .6-.9 2-1 .8 2h-.6l-.2-.2-.1.5-.8-.2-1 .3-.3 1-1.3.2-.3 1.1-.5-.3-1 .2-.8 1.4.3.4v-.4l.5-.4.6.7 1-.3 1.1 1-.2.4-1.1.2-.1 1.6-1 1.2.7.8 2.7.3.6.6v.9l-2 .9v1.1l.7 1.4h1l.3-1.4 1.5-.8-.3 2.2.5 1.1 1 .3h1v-.5l-.5.5-1.4-.5-.4-1.3.7-1.4-.6-.6h-1.1l-1.2 2.1-.6-.5-.3-1.2.4-.6 1.5-.7.3-.7-1.1-1.3v-.8l-.6-.9.3-2-1.1-2.1.2-1.1h.5l-.2.6 1 1.1-.3-.9.7.4 1.4-.8.2-.7-.5.3-.3-.8 2.1-.8.2-.6h.8l.9-1.1 5 1.9 3.5.1 1.4-1.5h.6l1 1.6 1.3.4h1.6l1.6-.6 2 .2 1-2.2 1-.2.5-1.2-.1-2 1.2-1.7-.1-1.5 1.9-.4 1.3-1.1 1.8-.2 1.7-1.1.3-3.9.7.3.5-.4.7-1.7 1.9-.3 2.7-1.4 2-.2 1.4-.8.1-.6 1.5 1-1.3-1.2-.7-5.8 4.4-.4.7-1 1.3 1 .5 1.4.5-.4-.9-.9 3.7 1.2 2.6-.8 2.8.7 2.2-1 1 .4.2-.3-.5-1 1.2 1.2 2 .2-.7 2.8.4-.1.9-2.4 1.5-1.6 2-1 3.2 1.1 2.9-.7 1-1.5 2.6-1.7h2l1-.6 2.1-2.2 4.4-3 .8-1.2h1l2.7-1.8 2.9-1 2.2-4.8.8.5 1-.3 1.7-2 2.9-4.2.2 1.5 1.7 2.5 1.4-.5.9-1.1 8.2-3.6 1-1.2 1.4-.1 1.7-2 2.5-1.7 2.2-2.3.6-1.2 2.2-1.3.5-1.1h1.9l2-1.9 1.5-1.5 3.1-5.2 2 1-1-1.7h-1v-.4l2.2-1.3 1.4.5-.3-.8-.6-.1.8-.3 1-1.9.9-.6.9.3 1.7-.4 3.2-3 2-3.4.6-.3.7.5 1.7-1.2 1.6-2.6 1-.6.7-.9.5-1.2-.2-.6-3.7 3.7-9.7 8.4-9.2 6.5-8.8 7v-.6l13.2-9.7 13.3-10.8 4.7-4.7.4-.5 12.3-12.8 2.2-1.8 2.2-2.6v-26.5h-279V557l.6-2.5 1.5-1.2v.7l-1.8 2.8zm2-5.2l-.2-1.3 1.2-6.7 3-12.1.4-.3-.3 1.6.5 1-1.3 1.2-2.1 9.3.1.6.8.2-.9.7-.5 1-.5 3.1.5 1.9zm104.8-174l.3-1.4 11.2-8.4.4-1.2 4.5-4.5h.7l23.9 6.3 13.6 3.1 6.3.6 6.3-.6 4.5.4 2 2 .4.7-2.9-2.1-2.2-.1-2.2.4-2.3-.5-4 .1-10.9-1.3-10.9-2.8-5.4-.9-3.3-1.5-7.2-2.1-1.4.7-1.6 1.3-1.4-.7.6-.8-.4-.4-1.6.4-.6 1-1.8.5-1.8 4.3-.9.4-1.2-.6.9-2.1-2 2-1 .5-1 1.2-1 .5-.6 1.3h-.8l-1.8 1.3-.9.3-2.2 1.9-.1 1zm75-5.4l.2-.8 1.1-.6 19.5-8.3 1.8-.4 1.3.4-2.3.1-8 3.2-5 2.7-.6 1-2.3.3-5.3 3.2h-.5zm-47.1-1.3l.3.2-.4 1-.3-.5zm-14.3.7l1-3.2 1.4-.6-1 2.3-1.1 1.7zm86.2-10.5l7.8-4 11-7.1 3.5-1.5 1.8-.5-6.8 3.7-2.3 1.7-2.4 1-5.9 3.9-4.9 2.5zM288 532l.1-1.6 3-11 1.3-4.6.6-.8h.3l-1 2.2-.3 1.8v1.3l-.5.6-1.3 3.1-1.2 5.3v3.2l-.6.8zm13.3-12.6l-.3-1 1.2.1-.5.2zM295 511h.4l-.7.5-.2.6h-.2v.2l-.4.2h.3l-.7 1 .4-1.2zm0-.3l1.4-2.5 2.6-4 .7-.4.1-.5.4-.3.2-.7.6-.3v-1h.4l-.5 1.5-1.3 1.7-.6.3-1.2 2.7-.8.3-.3.8.2.3-.6.4zm8.3-12v.4l-.9.5.2-.4zm2.5-3.4h.6l-1.1.5h.4v.3l-.4-.1v.6l-1.1.2 1.1-1.3zm5.7-8.2l2.7-5.7 11.8-18 7-14.1 3.8-9.1 4.2-5.7h1l.7.9-.7 1.2.6 1.3-.2.5-.8-1.4-.6 1.1-1.8 1-.8 2.1.9.9-.3.4h-.7l-.6.5-.6-.1-.3-1.3 3.1-4.3.1-.5-3.4 4.4.2 3.2-1.7 1.6-1.1 3v.6l1 1.4-1.7 1.4 1.7 1.1-1.7 1.5-1.3 2-1.4-.2-.8 1.2.7 2.7 1.8-.1-1 .6-2.1 3.6.5.7-2.3 1.3-1.4.2-2.6 1.9-1.3 2 .8 1.3-.6.7-1.3.3-1 1.8-.6-.5-.7 1h.6l-.3.5-1.2 1.6v-1l-.6.8-.4 1.1-1 1h1.6l.3-.5 1 .6-1 1.7-3.5 3.2-.7-.2-.1-.4-.5 1.4.5.3-.4.4 1.3-.3.5 1.5-1 2.6-1.5.7-.9-.1.7-2.2zm45-45l.3.2.8 1.2-1-.5zM296.8 528l-.3-.3-.2-.5.6.3zm59.2-86.6l.2.2.2.4h-.6zm-13.3-8.6v-1.7l3.7-8.2 7-9.7 6.4-9.8 5.6-5.7 20.2-17.2 2.2-1.1-1.2.8-.8 1.3v-.5l-.5 1h-.6l-1.5 1-.7 1.3h-.8l-7.1 6.1-.4 1.6-1 2h-2.5l-1.1.6-2.2 2.6-.2 1.4-.4-.2-2 1-2.8 2.8-1.9 1.4-1.1 4.8.6.6-3 2.7-.9 3.5-1.7 1.8-6.6 6.1-4 9 .3.7.8-.2.2.3-.7.8-.8-.1zm0 0"/><path d="M281.6 279h279.1V0h-279zm0 0"/><path d="M2.7 279h279V0H2.7zm-279 279h279V279h-279zm0-279h279V0h-279zm0-279h279v-279h-279zm279 0h279v-279H2.7zm0 0"/><path d="M281.6 0h279.1v-279h-279zm0 0"/></g><g fill="none" clip-path="url(#C)" mask="url(#B)"><g stroke-width=".8" stroke-linejoin="bevel"><use xlink:href="#E" stroke="#fff"/><use xlink:href="#E" stroke="#8d618b"/></g><g stroke-linejoin="bevel" stroke-width="2.2"><use xlink:href="#F" stroke="#fff"/><use xlink:href="#F" stroke="#8d618b"/></g></g><defs ><path id="E" d="M553.2 215.2l-.3.3-.3.4-.6.7-.3.4-.3.5-.7.8-.4.5-.3.4-.6.8-.6 1-.3.3-.3.3-.3.6-.5.6-.2.2-.6.9-.2.3-.4.5-.7.8-.2.3-.5.8-.6.4v.4l-.7.8-.6.8-.2.4-.5.6-.8.6-.2.2-.6.7-.7.7-.7.8-.7.8-.7.8-.6.8-.7.8-.6.9-.6.8-.6.9-.7.8-.8 1-.5.7-.6.9-.4.5-.3.4-.6.9-.5.9-.6.9-.5.9-.6.9-.3.4-.5 1-.4.6-.2.5-.4.5-.3.6-.3.2-.6.8-.7.8-.1.2-.2.2-.4.5-.4.4-.6.7-.7.9-.6.8-.2.2v.1l-.9.8-.2.4-.4.3v.1l-.5.5-.3.4-.1.2-.6.6-.4.5-.3.3-.8.7-.2.2-.7.8-.7.7-.2.3-.4.3v.1l-.8.8-.7.7-.7.8-.6.8-.3.3-.3.2-.8.8-.5.6-.8.7-.6.6-.1.2-.6.6-.4.4-.3.4-.7.7-.4.4-.2.3-.8.8-.7.7-.3.3-.6.7-.6.6-.3.3-.1.2-.2.1-.1.3h-.1l-.1.2-.3.2-.2.1-.4.4-.2.2-.3.4-.4.3-.7.5-.8.7-.1.1-1 .7-.6.7-.5.4-.7.6"/><path id="F" d="M533.7 239.8l-.7.7-.5.8-.6.9-.4.5-.3.4-.6.9-.5.9-.6.9-.5.9-.6.9-.3.4-.5 1-.4.6-.2.5-.4.5-.3.6-.3.2-.6.8-.7.8-.1.2-.2.2-.4.5-.4.4-.6.7-.7.9-.6.8-.2.2v.1l-.9.8-.2.4-.4.3v.1l-.5.5-.3.4-.1.2-.6.6-.4.5-.3.3-.8.7-.2.2-.7.8-.7.7-.2.3-.4.3v.1l-.8.8-.7.7-.7.8-.6.8-.3.3-.3.2-.8.8-.5.6-.8.7-.6.6-.1.2-.6.6-.4.4-.3.4-.7.7-.4.4-.2.3-.8.8-.7.7-.3.3-.6.7-.6.6-.3.3-.1.2-.2.1-.1.3h-.1l-.1.2-.3.2-.2.1-.4.4-.2.2-.3.4-.4.3-.7.5-.8.7-.1.1-1 .7-.6.7-.5.4-.8.7-.8.6-.4.3-.1.2-.6.4-.3.2-.8.6-.6.6h-.2l-.1.2-.9.6-.8.6-.5.3-.2.1-.8.6-.9.6-.8.7h-.1l-.2.3-.8.5h-.1v.3h-.3l-.4.3-.1.1-.2.1-.6.5-.2.2-.5.3v.1l-.5.3v.3h-.2l-.2.1-1.1.5-.8.6-.7.5-1 .6-.8.7-.9.5-.3.5h-.5l-.8.6-.7.3-.8.6-.8.4-.8.5-1 .6-.1.3-.6.2-.4.3-.3.2"/></defs></svg>