<svg xmlns="http://www.w3.org/2000/svg" viewBox="0 0 497 279"  xmlns:v="https://vecta.io/nano"><path fill="#f2efe9" d="M0 0h497v279H0z"/><path fill="#eee5dc" fill-rule="evenodd" d="M225.3 85.6l17.2 16.4 13-3 6.4-5.5 6.7-10.2 5.1-4.5-.7-6-3.3-3.5-11.1-2.9-7 2.5-7.1 1.7-16.8 8.6zM11.6 69l20.7-14-5.1-3.8-5.3 5.2-6.5-2.8-3 8.4zM-6.8 57L6 58.3l5-7.1-7.2 1.2-10-3.6zM3 39.6l12.3 2.5 7 .9 2.3-5.7-12.8-2-8-3.7zm23 3.3l7.6 10.8 5.7-4.4-8.3-9.8zm-11 6.4l9.4 1.8-6.8-6.1zM-15 43L.1 39l-11.6 1zM6.3 25.6l6-1.6-.6-3-5.3 3.9zM-1.9 23l.6-1zm0 0"/><path fill="none" stroke="#9cf" d="M271.7 58l6.3 9 6.5-1.7 4-4.5-5.9-.4v-7.3l-9.3.5zm0 0"/><path fill="#ddecec" fill-rule="evenodd" d="M271.7 58l6.3 9 6.5-1.7 4-4.5-5.9-.4v-7.3l-9.3.5zm0 0"/><path fill="none" stroke="#9cf" d="M256 75.1l11.5-2.6-1.7-6.6-9 4.7zm0 0"/><g fill-rule="evenodd"><path fill="#ddecec" d="M256 75.1l11.5-2.6-1.7-6.6-9 4.7zm0 0"/><g fill="#aad3df"><path d="M255.7 107.3l.3 1 1.4 2.9 2.1 2.5.7 2.1 5.8 1.2.4-.2.4-.1.4-1v-1l-.4-1 .2-1 .5-.7v-1.1l-2.7-3-1.4-3.9-.8-.6-1 .3-1 .3-1.8.3-1.9 1.2-.9.8zM-16 192.6l1.3-.2.2-.3.1-.1.2-.2.1-.1.1-.1 1-.6.6-.3h1.2l.2.3.3.4v1.3l.2 1 .3.3.2.2.4.3 1.3.5.8.5h.3l.9.4 1.5.1.3.2h.5l1.3.1 2.5.4 2 .3 1 .3.5.3.4.2.3.2.3.3.3.2.2.3-.3 1.4-.3.7v2.1H4l.3.3.1.2h.2l.2.5.4.4.1.2.3.1.5.3h1.3l.2-.5.2-.2.1-.3.2-.4v-.2l.6-1.6v-.2l.3-.2.2-.4h.3l.2-.3.3-.1 1.1.3.2.2.3.3.2.1.7.7.4.3.3.3.9.6.6.3.5.1.4.2 1 .4.4.3.4.3h.9l.5-.3h.4l.4-.1.5.3.5-.3 1-.2.6-.2h.6l1-.1.8-.4.2-.1.8-.6.1-.2.5-.3h1.5l1.4.3.2.1.1.3.2.4v.4l.4.5.2.2.1.1 1 .2h.6l.7-.5h1.8l.2.2.4-.1 1.3-.6.2-.2h.1l.6-.5h.2l.3-.3 1.1-.3 2 .5v.1l.9.3h.3l3.3 1.1 1 .4.9.1 1.2.3v.1l.3.1v.3h.6l.4-.3v-.1l.4-.4.1-.6.5-.3.5-.3.4-.3.4-.2 1.7-.3.5.1v-.1l.2-.2-.9-.2-2 .5-1.2.7-.1.2-.1.3-.3.4-.3.4-.2.2H49l-.4-.1-.2-.3-5.4-1.4v-.1h.3v-.2l-.8-.1-3-.7v-.1l.2-.1v-.1l-3.3.5.2.4-.1.1h-.3l-.1.2h.1v.2l-1.7.5-1.8-.2-.3.4-1 .4-.6-.2-.8-.4-.2-.7v-.1l-.1-.2-.1-.2-.3-.3-.2-.3-3-.3-.1.1-.1.1-.5.3-.1.1-.5.4-.3.2-.2.2-.3.2-1.1.1-1-.5h.1l-1.4-.1H20l-.7.5-.5.2-.6.3h-.4l-.4-.4h-.1l-.1-.2v-.3h.2v-.3l-.2-.1-.2-.1v-.2h.5l.2.3-.1-.2h-.2l-.2-.3H17l.2-.1h.2l.2-.1h-.4v-.8h.8v-.2h.3l.2.3v-.1l-.2-.2h-.9l-.2.2H17v.8h-.6l-.1-.2-.4-.3-.5-.2h-2.8l-.6-.5-.4-.2-.4-.3-.4-.1-.1-.4h-.4l-.7.4-.2.1-.9.7h-.2v.3h.1l-.8 2.7-.2.3-.2.3h-.9l-.3-.3-.6-.3-.2-.1v-.1l-.5-.8-.1-.2-.2-.2.2-2.1.2-.7.4-1-.2-.4-.3-.4-.3-.2-.2-.2-.8-.8-2.1-.6-2.7-.4h-1.4l-1-.1h-.5l-1.6-.3-1.8-.8-1.7-.7-.5-.3-.1-.4-.5-1.2v-1.4l-.6-.3-.5-.1h-1.3l-.5.2-.3.2-.3.2h-.2l-.2.3-.3.3-.3.4-.3.1h-.4zm29.4 9.3h1l.1.2.5.2h.1v.7h-.9l-.2-.3-.2-.1-.1-.3-.2-.3zm1.6-.2h.6l.3.2v.1h-.7v-.2H15zm1 .6l.3.3.3.1.2.3.2.3.1.5v.3l.2.1-.7-.2-.1-.3-.5-.4h.4v-.1h-.3l-.1-.2v-.2l-.2-.2zM214.7 86.8v.2l.7.6.4.4.7 1 1 .5.9.1 1.4.2.9.3 1.1.2h1l.4-.3.1-.7.3-.3.2-.5.4-.4.1-.1-.2-.3-.7-.1-.2-.1-.2-.4-.5-.1-.9.2-.6.3h-1l-.6-.5-.7-.4-.7-.6-1-.3h-1.2l-.9.1zm-42.4 88.3h.5l.5-.1h.5l1 1.3.7.2h1l.3.5.5.2.4-.2h.6v.4l.2.6.6.1h1.8l1.4.9h1.2l.4.4.3.4.2 1 .3.7h.5l.2-.5v-.5l-.4-1.5v-2.1l-.5-.2-1.9-.3h-1.5l-1.1.6h-.4l-.9-.7-.4-.9-1.5-.2h-.5l-.3-.4-.4-.4-.5-.1-.5.1h-.5l-.3-.4-.5-.2-.5.2-.4.3zm-64-53.1v1l2.1 1.1 1 1.1 1.6.1.5-.2.3-.5.8-.8v-.5l-.7-1.3-.6-.8-1-.5-.9.1-.4.4-.4.2H109zM474 184.7l.3.6.1.5.4.2.2 1v.6l.3.2v.8l-.3.3.3.1.6.6h.8l.6.2.7.2h.4l.4.1.1.4.2.3.1.1v.4l.1.1h.2l.1-.2.2-.1.3-.1h.2l.1-.3.2-.1h.4l.1-.2v-.1l-.2-.4-.3-.1-.2-.3-.4-.2v-.4l-.3-.1v-.1h.3v-.7l-.5-.3h-.3v-.2l-.5-.1h-1l-.3-.6-.5-.1-.5-.4-.6-.6-.4-.3-.6-.4zm-5.7 57.3v1l.5.7.9.5 1.3.6 1 1.5.4.1.6-.2v-1l-.4-1.7-.6-.9-.9-1.2-.3-1-.3-1-.5-.9h-.5l-.3.2.8 2.3-.3.4zm-194-96.4l.3.4.7 1-1 .4v.5l.7.3 1.4-.5 1 .3h.6l.5-.2-.4-1.5-.1-.5-1-.6v-.5l.3-.5v-.5h-2.1l-.9 1.3zM386.7 41.8l.3.4.3.6.2.7h.5l.4.1.5-.2.7-.1.2.3.3.1v.4l.1.1.5.8.3.3.5.2h.3l.2-.4v-.2l-.2-.3-.2-.3-.3-.3-.3-.3v-.1l.3-.3v-.2l-.5-.3-.2-.1-.1-.4-1.1-.9-.7-.4-.5-.5h-.8l-.4.1v.6h-.3zm37.7 167.7l.1.2v.3l.3.3-.2.2v.1h1.7l.3-.2h.5l.2.4.2.2h.1v.2l.1.1h.1l.2.3h.7v-.2l.3.3h.3v-.8l-.1-.4v-.5l-.2-.2h-.4v-.2l-.2-.1h-.4l-.6.5h-.4l-.2-.2.2-.4v-.3l.5-.2v-.3h.2l.1-.2h.2l.2-.3.1-.1h.8l.1-.2v-.1h-.5l-.3-.2h-.4v.5h-.3v-.2h-.4l-.1.2-.2.3h-.1l-.3-.3-.2-.3h-.2l-.1-.1h-.3v.2l.1.2.1.4v.2h-.3l-.2-.2h-.1l-.1.3h-.3l-.4.2-.2.1v.2zM194 135.9v.3l.3.2.1.4h.2l.1-.3-.2-.2v-.6l.3-.1.4-.2.2-.2v-.6l-.2-.1v-.4h.6l.2.3.3.3.2.5h-.2l-.3.1-.2.2-.4.2-.3.4v.3l.2.3.1.3.7.1h.7l.2.2.3.1.1.1h.6v-.6l-.3-.2v-.3l-.2-.2.2.2.3.1h.2l.3-.4.2-.1v-.6l-.2-.4-.1-.2-.2-.2h-.2v.3h-.3v.1h-.3v-.4l.3-.1v-.6l-.3-.2-.3-.1h-.4l-.3-.2h-.4l-.4.3-.6.5-.1.3v.3h-.5l-.1.2-.1.2-.2.3zm3.3-.7v-.1h.3l.1.1v1-.2h-.3v-.1l-.1-.2v-.3zM164 172.4l.5.2 1.7.4.4.2.7.9.5.3.5.2h.5l.5-.3-.8-.7-.2-.4v-.6l.2-1v-.5l-.3-.5-.3-.3-.9 1-.5.4h-.5l-.6-.2-.4-.3h-.5v.3l-.5.4zm110.7-34.8l.2.4.4.3.7.5-.3.4-.5.2-.3.4-.1.7.1.5.2.3.6.2h.4l.2-.1.7-.4v-.5h-.5l-.1-.2v-1l.3-.4.3-.3.1-.5-.7-1.8-.6.2-1 .6zm4.6 25l.2.5v.9l.9.5h.4l1 .1.5-.2.3-.4v-1.5l-.2-.4-.4-.2h-2l-.6.3zm-105.8 3.9l.2.5.4.4.6.2.5-.1 1-.4.4-.4.1-.5v-.5l-.2-.4-.8-.7-.5-.1-.5.1-.6.5-.6.9zm300.6 81.8l.5.5.2.4h-.4l-.2.6.3.3h.6l.9-.4.3.4v.5l.3.5.6 1 .5-.1.5-.4.1-.4.5-.4v-.5l-.4-.3-.4.3h-.5l-1-1.3-.4-.2zm-8.7-21.7v.5l.4.8.4.7 1 1.2.8 1v.3l.2.3.3-.2.3-.6v-.4l-.3-.4-.2-.5-.3-.8-1.2-1-.8-.9zM240 112.8l.5 1.2.5.5.6.3.5.2h.5l.3-.2.3-.2v-.4l-.5-.3-.4-.3-.3-.3-.3-.4-.1-.3-.1-.4-.1-.2v-.6h-.3l-.1.3-.8.8zm-132.7 17l.3.5 1.6.3.4.4 1 1.3.4.2v-.5l-.1-1-.5-1-1.7-1h-.5l-.9.5zm141.8 32.5h.2l.2-.1.3-.3.4.3.4.1v.4l.2.5.2.1.4.1.2-.4.4-1.2v-.4h-.5l-.2-.4-.1.1h-.5l-.3.2-.6.1zM191 125.8l.2.1.2.2.2.3h.2l.2.2h.7l.1-.2.2-.1v-1.2l-.5-.3-.1-.3h-.2l-.2-.2v-.3l-.1-.1h-.5v.3l-.3.1v.4l.3.3.2.1-.1.4-.3.1zm0 0"/><path d="M11.3 205.9l.4-.2.3-.1h.9l.1-.6v-.9h-.3l-.2-.3H12l-.3.2h-.1v.2h.1v.7l-.2.3v.1l-.2.1v.1zM190 122.4l.1.3v.3l.4.3v.2h.1v-.6l.4-.2v-.2l.2-.1v-.2h.3l.1.2.1-.2v-.9l-.1-.3.3-.1v-.2l-.4-.1h-.3v1.1h-.9v.1l-.2.2-.1.3zm54.5-41.6l.1.2.2.2h.2V81l.4-.2.1-.4V80l.4-.3v-.2l.4-.5.1-.2v-.2l-.2-.2h-.3l-.2.1v.3h-.5l-.3.3v.4l.1.3.2.2v.4l-.2.1h-.5zm-138.4 39.6l.1.6.6.8.2.4.4.3.4-.2-.1-.6-.5-1-.2-.3-.5-.4zm-94.9 40.2h.8l.3-.2.1-.4.3-.4.3-.5-.3-.1-.2-.2H12l-.5.8.1.4zm185.1-29.8v.1l.1.1.1.1h.3v-.5l.5-.2h.1l.1-.2.1-.2-.2-.2h-.2v-.2l-.2-.1v-.1l-.3-.2-.1.1.1.3-.1.4v.4l-.2.1-.1.1zm-63.2-6.3v.1l.2.2.1.3.2.2h.8v-.3l.2-.4-.1-.1h-.1v.1l-.4-.1h-.2l-.2-.3h-.3zm114.5-47.2v.4l.4.3.2.2.4-.1.1-.2.1-.4-.4-.2-.7-.4zm0 0"/></g></g></svg>