<svg xmlns="http://www.w3.org/2000/svg" xmlns:xlink="http://www.w3.org/1999/xlink" viewBox="0 0 497 279" xmlns:v="https://vecta.io/nano"><filter id="A" width="100%" height="100%" x="0%" y="0%"><feColorMatrix in="SourceGraphic" values="0 0 0 0 1 0 0 0 0 1 0 0 0 0 1 0 0 0 1 0"/></filter><mask id="B"><g filter="url(#A)"><path fill-opacity=".5" d="M0 0h497v279H0z"/></g></mask><clipPath id="C"><path d="M0 0h497v279H0z"/></clipPath><path fill="#f2efe9" d="M0 0h497v279H0z"/><g fill="#aad3df" fill-rule="evenodd"><path d="M403.6 558h279V279h-279zm0-279h279V0h-279zm0-279h279v-279h-279zm-558 279h279V0h-278.9zm0-279h279v-279h-278.9zm279 0h279v-279H124.7zm0 279h279V0H124.7zm0 0"/><path d="M124.6 488l.2 2.2.4-.4v-1.2l1.3-1.1-.3-.8-1-.3.2-1h1l1.4 1.1 1.9 4.6 1.6.1.6.8 1.5 4 1.5 1.8-.4.9.8 2v1.8l.7.7.1-1.4.4-.2.5 1 .1-.8h.9l1.6 1.5.9-.7 2.7.2.3 1.1-.5.6.4.9 1.6-.4.7-1-.2-1.4-.8-.3v-.7l.3-.2 1-1 .3-1.7 1.1-.7.1-1.5-.5-1.5.3-.3 1 1.1.5 3.5-.1 2.1 1.1 1.4v1.6l1.2.4.7-.6v-3l.4-.4 2.7-.7.2-.6.7 1-.5.3 2.3-.6v1l-.6.1-.5 2.7.2-.7.8.4h.6l-1-.6.3-.5 1.7.1.2.6-.8 1.2-.4-.7.2.9-.5 1.5.7-1.3.6.2-1.3 4.5.5-.1.4 1.2-3.4 1.5h-1l-.8 1.5.3.4 1-.5 1.9.6 1.4-1 1.2.7 1-.5v-1l-.6-1.2-.8-.4.2-3 .7-.9.3-1.6 2.8-1.6 1.5 2.1 3.5 2.7 1.5.1 1 1 2.5.6.4-.1 2.1 1.3 3.8-1.6 5.2-4 3.4-4.1 2.4-3.2 3.3-3.3 3.3-8.7 2-4 .4-3-.8-.5-.7.5 1.2-1 11.2-3 4.4-.2 1.6-.7 5.1-.3 2.5.9-.2.6h.3l.3.8-.3.5.7 4 .8 1.2 1 .1 1.8-1v-.8l.6-.2 1-1.3-.2-1.6h-.4l-.3-1.1.5-.5 11.6.5 5.8-.7 8.5-3 4.8-2.4 3.1-2.4 2.7-1.2 3.7-1 5.3.3 2.7.6 3.3-.2 5 1.3.1.3-.4 1.1v1.4l.7 1.5-.3.5v-.4h-1.2l.6-.7-.3-.4h-.7l-1.6-1.3-.6-1.4.3-1.4-2-.2-.8.6H278v1.9l-.3.3.5 2.8.6.2.6.8.4-1h.6l.7 1.2h.7l.4-.9 1.8.4.6.6v1h.6l.5.6-.2.5.4.3.4-5.5h.5l.2-.7.2.4 1-.3.8 1.8 4 2.5-.8 1.8 1.6 5.4h.6l.6-.7-.2-2.7h.4l.7 1.4 1.1.9.3.7-.5.6-2 .4-.1.6h-.9l-.3 1h1.1l1-1.2h1.6l.6 2.5.5.2.4 1.3.4-.4 1.4.4.1-1 1.6-.4.6-1-.4-1.2.2-.6 2.1 3.7 1 .5.2 1.6.3-1.1 2 .4 1.7-.3v.7l-.7.3v1l.2-1h.4l1-1.8.8-3.5.9-1.3.9-2.2.6-.4 1.3 5.1.5.3 1.1-.5-.3 4.5.3 5.5 1.1 8 2.8 11.3 1.2 4.8 2.6 3.2 2.4-.2.2.4 2.7-1.9.5-3.4.4-.4.8-9.5-1.1-14-.9-1.5-1.6-7.5-3.1-4.4 4.7-.2 1.2-.7v-.5l.9-.2 2.9 1 3.8 2.3 2.3.5 3.8 2 3.3.4 4.6 1.8 2.1 1.9.2.7-.7.2v1.6l2.2 7 1-.2.3-1.4-.3-6 2 .4 2.3 1.1 1.9 1.7v.8l.8-.8 3 1.6h1l2.6 2.7.6 1.3.6 1.4v.2l-1.4-2.6.2 5.9-5 1-3.2 1.8-1.7 2.5-2.1 5.3-.6 1h-.6l-.1.5.5-.1-1.4 3.8-.6-.3-.2-.9-.9.3.8 2.1-1.2 1.9-1.1-.7.2-1.2-.3-1-2.7-1.5-.6-.2-.5.4 1.5.2 1.9 2.3.1.5-1 1.5-2.4 1.6 1.4 1.4 1.2-.1.3 1.4.8 1-.5 1-1 .1-.6 1.8-1.4.7-1 3.1-.1-.4.3-2-.5.6-.8 2.3-2.7-.5-1.3.8.1 3.4h-1l1 .7.4 2.1-.2.3.7 1.8.1 6.3-1.1 1.3-.4 1.3-1.2.9-1-2 .7-1.4-1.7.3-1-5.7.5-.4-.5-.4-1 .7.9 4.9-.7 2.1-2.6.3-2.8 2.4 2 .8.1-1.2 1-1 .6-.5 1.1.5 1.6-.8.4.7-1.7.6-.4 2 1 1.8h2.6l.7-.7 1.7-.6 1-1.5.1-2.3h.5l1.4.9 1.7 5.2.5.7h54.9V279H124.6v148.4l2.7 3.1 7.3 9.4 1.8 3.7.9 4.9-.3.5-.4.3.4-.7-.4-3.4-.9-.3-1 .6-2.2 4-.8 6.5-.8-.4-2.5.6-1.8 1.6-.8-.4-.8.1-.3.5.3-.9h-.4v.2h.2l-.2.4v.3h.3l1.1-.3.7.4.5-.6 1.4.2.7-.4 1.7 1.3v1l-.8-.9-.2.6-.3-.9-1.5.2-.6 1 .9 2.4 1.5.2.1 1.2h.4v-.9l.7.1.4.8h.3l-.1-.8.2.2.6 6-1.3-.3-.7.8-1.4-.4-1.2 1.5-1-.2-1.3.5-1.1 1.9v6.3l1-.3 1.4-2.6h1.7v-.8l.7.1.2.9-1.4 1 .4.2.6-.7.1.4-.6.3.4.4-.2 3 .3-1.8.8-.8.6.5.8-.7-.4.8 1 .1-.5 1.9-1.5 1-1.2-.4v-.2l-1.4.5-1 1-1 2h-.8v.7l.6-.2-.2 1.8-.4.3zm18.9 14.6l-3-.4-.1-1.8-.6-1-.7-.4v-.8l.9-.1.7 2.4.9.4-.6-.9.6-1.1.4.1v.8l2 .9.1 1.3.9 1.2-.3 1-.9.6-.3-.2.5-1zm176.3-21.7l.3 1.3H319l-.2-.2zm-194 3.6l.7-1.7 1.1-1 .8-.4 1.6.8 2.5-.3-1.2 1.3-1-.6v1.3l.4.1.7-.6-.5.8-1.4.7 1-.4.3.2 1.6-1.9-.7 2.3-.6.1 1.9 1.5-1.4.9.2 1.2-.6.5-1.4-.8-2-2.5-1.9-1.1zm197.1-6.8v.3l-.6-.4-.7 1.3-1.2.7v.4l-.1-.3.1-1.9-.5 1.3.1-1 1.1-1.5zm-192.8 0l-.1-.7 1 .3v.2zm187.3.6l.1 1.6-.3.4-2.2-.3-.3-2zm-6.2-2.5l-.8.2-2.4-1-1.5-1.8 1.4-.5 1.5 2.6zm.9-1.8l-1.6-1.5-5.5-2.1-2.9-.9-3.1.5.3-.4 2.8-.2 2.2.6 6.2 2.4 1.5 1.4.6 1v.2l-.4.3.3-.6zm-4.9-2.4l.2.4-1 .3.5-.2zm0 0"/><path d="M-154.4 456.6l7.7-8 14-17.5 4.3-6.7 12.4-22.9 6.2-9.9 6.1-11.2 17.5-26.7 4.8-5.6 12.5-11.5 3.4-2 4.5-2.1 4.9-3.6 2.7-4.4-.5-1.8 1-1 1.9.7 6.7 6.2 3.2 1.7-.9.4v-.5l-2.8-1.7-4.6-4.6-1.2-.9-2 2.1-4.6 6.2-.8.5-1.1-.1-4.9 2.5-.9 3.2.1-.5-.7.4-.9-1.2-2.2 1.1-.5 1 .2 1.5 1.9.6 1-.3.5-.8v-1.6l.2-.2 3.3 1.3 1 6.9.9.4 1.6 4-.4.8-1.1.7v.5h-1.5l.3.6-1 2.1 1 .3-.5-1 .7-1.1 1.5-.5.1.5.2-1.2.8.4 1.3-1.1 1.7 1 4 1.4 1.2-.5 1-.9 2.9 6.2-.4 1.2-1.1-.4-.7.4-.4 1.6h-.5l.5.3-1.3-.3.5.7 1.2-.5.2.3 1.6.2.7-2.7h1l2.8 1.8 3.1.8 3.8-.4.6-1.2h-1.2l.6-.4 4.7 1.1 1.6.8 2.3.3 3.7 1.2 1 1.5.7.1v.8l.3-.3 2.1 1.5 2-.1 3.4 1.3-.5 3 .1-1.5-.6-.1-.4.2-.1 2.7-1 .5-.8-.3-2.2 2.3h1l.4-1 1.1-1 .6.7.9-.8.5.6h1.3l1.2 1.8 1.4.7.8 2 1.3 1.7-1.6 2.7-.4 2.9-1.4.7-.5.9h-2l-.7 1.3v2l-1.6.6-.3.6h-.8l-.7.8-.3 2-.6.2-.4-1-1 .9.9-.4.4.8 1-.3.5-2.3.4-.3-.1.4h.7l2-1.3.8.5-.1-2.1.6.4 1.2.2 2-.4.4-.8 1.7.6 1.8-.9.5-.7 1.2-.3.6-1.8 2.7-.5.8-1.3.8-4v-2.6l1-.5.8.3.6.8.9 3.1.2 3.8 1.2 2.4 1.9.3.2-1.9-1.1-1 3.6-.1 5.5-2.5.8.9 2.2.8 2.4-1 .6.6 1 2.2 1.6 1.4 3.8-1 1.8.2 2.3 1.4.2.6 2.5 1.9 1.2-.6 2.1 2.4-.5 4.4.6 4.5 5.2 11.2.4 4.5-.7 2.5-1.5 1.3v1l-1 1.7-3.6 1.7-.9 1.3-.9 3.2-1.4-1-1.2-.1-1.1 1-1.4 3-1.3 1.1h.5v1.7l-.4.3-3.1-.3-1 1-.6 1.4-.4 6.3-1.5 3.2-3.7-.9-2.4.8-1.7 5-1.6 2.4-1-2.5-2.2-.9-7.3 1.3-2.4-.1-1.7.7-2-.4-2.4 1.7-.3 1.4-1-1h-1.6l-.2-.4h-1.7l-.4.3h-.8v1.4l.9 1.8 3.6.2.4-1.2 2.5.6 1.4 5 .6 6.3-.7-.2V466l-1.5-.3-.3.4-.7-1-1.3-.4h-3.3v.3h-1.3l-.6.3-1-.3-3.1.4-2.2 1-1.6-.6-.2.7-1.8.5-2.1-1.2.5-.2 1 .3 2.1-.5-.3-2.2-1.9-.7 3.8-.9.3-2.2h1.7l.6-1.4.2-2-.6-3.7-2.2-2.7-1.6-.6-1.8 1.8-3.8 5.6-1.3.3-.3 1.5-2.3.4-.4.6.8 3 .3.3h.6l-.2 1-.6.3v1l-.7.5-.9-.5-.8-1.4 1.2-.8.1-.7-.8-1.8-1.4-.8-.9.4-.4.9.7 2.2-1.8 1.5-1.4.2-1.1.9-.2 1 3.4-1v.3l-1 .4-1.1 1.9 1.2-.9.1.7 1.4.5 1-.4.7-1.3 1.3.4 2.3-1.1.7-2.2h.6l.1 1.1 1 .2.9-.7.9 3.3.9 1h1.2l.7-.6.8.7 1.7.1-.2.5 1.2-.4v1.5l-1.4 1.5.4 1.1h.5l-.6-.9.3-.8 1.3-.8v-1.6l1-.9 3.6-.4v.8l1.6.4 2.3-.4 1.8.4 2.2 1.2-.1.5-2-.5-.6.2.3.5h-.7l-.4.6-1-1.1-2.1.3.5-1-.6.4-1.7.1-.6-.7h-.8l.6 1.3-.4.1 1.4.2-.4 1.1 1.8-.5.5 1.5.3-.8.9-.2-1 1.8-.9.2.6 2.4.8-.4.4-.8v-.6l-.9-.4.2-.5.9.3 2.3-1.1.9-1.9.9.5-.9.1-.4 1 .6.7h.6l.6-1 2.6 1 1.5-.4 1.2.4.2-.7v1.4l-.9.5-.2 1.3-1.7 2.7h.5v1.1l-2.4-1.8 1 1-.7 1 1.8.2-1.1 2.4.4 2-1 .1-.3-2.4-2.4-.2-1 2.3-1.1.3-3.3-.5-.7.2-2.1-2.2v1.3l-.7.2v1.4l-.7-.2v.3h.9l.8 1.2.8-1.6-1.1-.9v-.3l1.3.8.5 1v1.4l.4-1.4.4-.3-.1.4h.3v-.5l3.8 1.3 1.3-.4-.2.6H-10l1.5.3.5-2.1.7-.3 1.3.9.4 1 .6.1.9-.5.5-3.3 1.6-.5 1.1.7.3-.2.9 1.6 1 .3.4-.3.3 2-.3-.4-.5.2.5 1.3-.5-.2-.5-.9-1.7-.2-2.7 1-1.4 4.9-.9.6.3-1.1-.9-1-1 .7.2-1.6-.4-.3h-2.5l.2.7 2 .1-.1.6-1.5-.4-.2.3.3 1.7 1.3.5.8-1.5.7 1.6-1.7.6-2.3-.7-1.2-2.5h-.8l-2-.6-1.1.3-.6-1.2-1.3-.1-1 .6-.2 1.1-2.2.6-.1.5 2.4-.5-1 1v.7l.6.6.7.2 1-1 .3-.9 1-.5-.4 1.1v1.7h-3.9l-.8 2.8.5.1-1.5 1 .3-.2-.3.7 1.7-1.1v-2.7l2-.2 1 .4 1-.2.7-2.7 1.7-.8 2.3.6 1 2.3 1.7 1 4.3-1 1.6-1.6.1-3 .7-.4 1.6.3 2 1.5-.5 1.5-2 .5h-.9l.1-1.7-.2-.1-.5 2.8-1.7.3.3.5 1.4-.4-.8.8h.6l-.5.2v2.7l.5 1 .6.2-.3.5.5 2.2v.2l1 1.3.1 1.4.8 1 .5 1.5-1.3 2.2.2.2-1.1.2v.6l.4-.3.1 1.8-.6 1.9.2-.2.3 1.9h-.5V514l-1.1-1.4-.8-.2-.7 1.2.2 1.6-.9.3v1.6H-3l.6-1.5.8.8 2.3-1.2h.5l.4.5-.2-.7.4-.4.6.1v.8l.6-1 .4.7.8-.8.7.2v.4H6l-.3-4.4 1.2-1.4-1 .1-2.4-3.3-1-4.6-.1-.7-.9-1 .6-.2.7-1.4 1.2-.2.8-.7 1.8-4.2.4-.2 3.7.2 1.6-.6.1-.8h.8l3.8 1 6.7-1.5.4.7 1.5.5.4 1.4.8-.2.4.5.8-.8.2 1.1 1.3 1 1.2 3.7-.2.4-1.5.2-.4 1.8v.5l.2 1.6-1.3.7.3.8h.9l-.4.2-1 2.5.8.4-.6-.8 1.3-1.3v2l1.2 1.2 1.2-.4.8.2.9-3.5.4 1 .7.2 1.3-1.7-.7-.6.2-2-.7-.2-1.1.3v1.3l.4.4 1 .2-1.3.5-.9-1.9-1.1-.2-1.6 1-.4-2.4v-.2l.9-1.2.8-.2.2-1.2-.6-2.6-1.9-2 .5-1.1 1.4 3 .8.5 1.7.2 1.1-1 .2 1.6 1 .4-.7-.6-.1-1.6.8-1-.3-1 .4-1.5h.6l.2.9 1.2-.5v.9h.7l.3-.7 2.4.4.3.6-1.4.3v.2l1.4-.1.5.9 1.7.6h2l-.4 1.2-2-.5-.8.9v.6l2 2.4v1l1 .2v-.7h-.5l-.7-1.9-1-.4 1.2-.2-1.4-1.3 1.6.6 1-.8 1.3 3.5.4-.3-1.5-4 1.8 2.2v-1.5l-1.2-.8 1.2-.6-1.2.4-.4-.4h-2.4l-1.6-.6-1-2.2.8-.2v-1.1l-.4-.2h-1.6l.2.6-1.2-.4-1 .9-.4-.2-.3-.6H36l1.4-1 .6-2 1.6-.1 2.5-2.5.6-.8.3-1.4 1.5 3 .4 3.2.4.6h2.1l-.1 3h-.6l.3-.3-1-1h1l.2-.7-1.4.1-.5.9 1.8 1.3 1.5 2.7 3.4 1.7 1.2.3 2.8 1.2-.4 1.2.3 1 1.9 4.7 1.2.5 2.5-.5.8-1 .2-1.9-.5-.5.5-.1v-1.2l-.5-.1-.5-1.6 6.7.3v1l.4.5.2.1h.8l.3-.2.6-.4 2 .4h.2l.5 1.2.2 1.8.6.5-.7-1.3v-1.5l.6-.2-.7-.4-.3-.1-2.2-.7-1.2.6h-1v-1.1l-.9-1.1 1.5-.5.5-1.4 1.4-1.6.6-1.2-1.9 1.8v.8l-1.3 1.4-1 .4-2.4-.8-.4-.6-1.5-.6.4-2 1.3-2.6h.2l-.2 1.5.5.6.3.1.5-1.1.5-.1v.4l1.4.7.3 1.4.3.1.7-1-1-3.1-3.8-4.2h-.7l-1.5-1.1-1.8-.4-1.1 1.8-1.4.4-.5 1-2.9-2.1-1.6-.5-1 .1-1 .8-.6 2.1-.4-.6v-.8l-.6-.8-.5.2.6 1.5h-.4l-.4 2.2-.4-.2-.2-2.4.3-1.4-.5.2-.2-.7h-.3l-.4 2-1.1-.2-.2-1.3 1.2-1.5-.3-1.2-.5-.3-1.1.5 1-2-.3-2.2-.4-.2.5-3.4-.4-6.3-2.3-9.2-.3-2.4.5-1 4.2-.3 2.2-2 2.5-3.7 1-.9.8-2 2-1.9.5-2.6 1.1-2.5 3.7-1.7 6.6-4 4.6 10.3 1.4 1.4 1.8-.5.6-.6 1-1.6.8-7.1-1-3.7-1.2-3.1-3.1-3.1-2.8-4.7-2.6-2.5 1-3.5 1.2-2.1 2.4-2 2.8-1.3 3.5-3.4 2.7-1.2.4-.2-2.3 1.4 2.3 9 1 1.2 2.3.8.5.6.7 1.8.3 4.2.8.3-.3.8h.6l.1 1-.2 1.3.5.3v.5l-.2.2H89v-.5l-.9-.3-.3-1.4.5-.8v-2.1h.4l-.4-1.1.4-.8-.4-.9V421l-2.3-.3 1-4.7v-8l-1.7-3.5-.3-.5-1.7.5v-1.2l-.9-.9.6-.6v-.6l1.7.8 1.6-.4V400l-.8-.2-.9-1.1-.5-2.3 3.2 2.3-.3 1.5.7 2.3 3 3.2 1.2 3.7-1.9 1.2-.9 1.7-.1 1 .2 4.1 2 8.9h-.5l-.2.4.3 2.6 1 3-1.7.7-.3.8-2.2.2-.8.8.2 3 1.6 3.4-.1-1 .5-.2 1-1.4.6.7 1 .4 1.9-1.7v-4.2l-.4-1.2-1.1-.5.6-.8-.2-5.2.6.4 1.5-.2-.1 1.7.9 3.6 1.2.1.3-.3-.3-5.2-.3-.4-1.6.1.8-2.2v-4.1l1.5 5.6.6.9.7-.1 1.5.7 1.4-1.2.3-5.5-1.7-1 .2-1-1.5-2.5h-3.3l-1.3-4.7 3.2.8h.5l.4-.7.3.6.7-.5 2.7.3 1-1.6h.9l1.9 1.3.4 1.5v3.3l-.3.5.6 1.4h.6l.3-.7h1l.3.7 1.1-.1.5-1.7 1.8-.9-1.5-1.5-.8-.2.6-.1 8.1 7.2 6.6 7.2V278.9h-279zm227.9-68.2h.2l.6.4 1.7 1.5-.5.2-.1-.7zm-.5-.3l-2.8-1.6-6.4-.8-2 .1-2.1 1.2.8-1.2 3.3-.3 6.5.8zm-21.3-5.7l-.1-1.5-2.6-3-1.4-.9-3.8-.8 1.2-.8 2 1 2.3 1.6 2.4 3 .4.7v1.5l-.5.3zm-31-13.7l4-.4 4.3 1 7.7 2.8 7.1 4-3.8-1.4-3.2-2.3h-1.5l-2-1.1-4.3-1.8-2.2-.2-1 .4-.5-.3-.3.4.4.1-.4.3-.8-1 .8-.6-1.1.4-.2-.2-.9.3v.4l-.8.2.4.3-1.2-.6-2.6 1.1-.1-.5-3.5.9 1.2-.9zM-.1 353.5l1.3 2.4 1 2.6.2 3.1v.8l-.2.9.2-1.4-.1.6-.4.5-.2.2.3-.4.3-.8-.3.7-.6.3.8-1.1v-.4l-.4 1 .4-2.5-1.2-4.4-2.4-3.8-4.6-5.2-6.5-4.7-3.5-1.9-8-3.3-5.8-1.5 1.6-.2 3.7 1 10.9 5 4 2.5 3.6 2.9 3.1 3.3zm-38.3-23.4l3 .9 1.9 1.9.8 1.1v.1l-2.7-2.8-4.3-1.5h-1l1-.2zm4 133.9l1.6.4.2 1.1.6.3h1.1l1-.6-.1.4-2 1-1.7-.3-.7 1.3-1 .2-.7-.5-.3-.9 1.1-.4zm8.1-2.5l.4-.2 1.2 1.1-.7.9-1.3-.5zm-1.3 1.2l.4 1.6-.4.3-.6-.6.2-1zm50.6-6.8l2.2 1.1 3-1 1.4-1.6 1.4-2.9.3.5.6 1.8-.9 3.2.2 4.2-.6-.4v-.6h-1.4l-.5.3.3 1.4.4.4v1.2l1 1 .2.6-3.3-3.1-3-1-.9-2.3zm10.5-19.7l.6.8.7 4-.1 3-1.8-2.5-.7-2.5.6-1-.4-1.2.5-.6zm56.5-39l-8.3-5.5-5-1.3 3.1.3 2.8 1.1 10 7 11.8 8.8 4.9 5v.5l-3.6-3.9-3.3-2.5.1 2.3-1.2-3.5-1-.3-.3-.7v.7l-.3.2-.7-1.4h-.8l-1.1-1.6zm-.1.1"/></g><g fill="none" clip-path="url(#C)" mask="url(#B)"><g stroke-width=".8" stroke-linejoin="bevel"><use xlink:href="#E" stroke="#fff"/><use xlink:href="#E" stroke="#8d618b"/></g><g stroke-linejoin="bevel" stroke-width="2.2"><use xlink:href="#F" stroke="#fff"/><use xlink:href="#F" stroke="#8d618b"/></g></g><defs ><path id="E" d="M46.5 303.5l-.3-.3-.7-.8-.4-.5-.8-.9-.3-.2-.6-.6-.3-.4-.6-.5-.8-.8-.7-.7-.9-.8-.3-.2-.6-.6-.5-.3-.5-.5-.7-.6-.2-.1-.3-.3h-.1l-.9-.8-.8-.6h-.1l-.3-.5-1-.5-.1-.2-.7-.5-1-.6-.6-.4-.4-.3-.3-.2-.7-.7-.9-.6v-.1l-1.1-.7-.6-.6-.6-.4-.4-.3-1-.6-.7-.6-.8-.4-.4-.3-.9-.5-1-.6-.8-.5-.9-.6h-.4v-.2l-.3-.1-1-.5-.6-.3-.7-.4-.4-.2-.7-.3-.8-.4-.1-.1-1-.5-1-.3-1-.6-.9-.4-1-.4-1.1-.4-.7-.2-.4-.2-.3-.2h-.2l-1-.6-1-.4-.3-.1-1-.5-.5-.2-.5-.2-1-.4-1-.4H.7l-.3-.3H.3l-.8-.2-.4-.3h-.5l-.4-.2-1-.6-.8-.5-1.1-.5-.6-.4-.9-.4-1-.5-.5-.2-1-.5-.4-.2-.4-.2-.9-.4h-.2l-.8-.9-.9-.5-.9-.6-.8-.7-.6-.3-.6-.4-.8-.6-1-.6-.8-.5-1.2-.6-.9-.5-1-.5-.8-.5h-.3l-.8-.6h-.2v-.1l-1-.5-1-.3-1-.5-.7-.2-.3-.2-1.1-.4-1-.4h-.1"/><path id="F" d="M22.2 283.7l-.5-.3-1-.5-.8-.6h-.4v-.2l-.3-.1-1-.5-.6-.3-.7-.4-.4-.2-.7-.3-.8-.4-.1-.1-1-.5-1-.3-1-.6-.9-.4-1-.4-1.1-.4-.7-.2-.4-.2-.3-.2h-.2l-1-.6-1-.4-.3-.1-1-.5-.5-.2-.5-.2-1-.4-1-.4H.7l-.3-.3H.3l-.8-.2-.4-.3h-.5l-.4-.2-1-.6-.8-.5-1.1-.5-.6-.4-.9-.4-1-.5-.5-.2-1-.5-.4-.2-.4-.2-.9-.4h-.2l-.8-.9-.9-.5-.9-.6-.8-.7-.6-.3-.6-.4-.8-.6-1-.6-.8-.5-1.2-.6-.9-.5-1-.5-.8-.5h-.3l-.8-.6h-.2v-.1l-1-.5-1-.3-1-.5-.7-.2-.3-.2-1.1-.4-1-.4-1-.4-1.2-.4-.5-.2-1-.3-1.2-.3h-.1l-.9-.4-1-.2-1-.3-1.2-.2-1-.2-1.2-.2-1-.2-1.1-.2-1-.1-1.3-.1-.9-.1-1.1-.2h-8.8l-1.1.3h-1.1l-1 .2H-60"/></defs></svg>