<svg xmlns="http://www.w3.org/2000/svg" viewBox="0 0 497 279"  xmlns:v="https://vecta.io/nano"><path fill="#f2efe9" d="M0 0h497v279H0z"/><path fill="#aad3df" fill-rule="evenodd" d="M4.7 558h279V279H4.7zm0-279h279V0H4.7zm-279 0h279V0h-278.9zm0 242.8l.5-.1.1.3.5-.1.7.6.8-.8.2.8.4-.5 2.1-.4.4 1.4 1.9.5h-.3v.7l1 2 .4-.9.3.5.3-.2.3.8-.6.8.6.6h.6l1.1 1.3.1-.3-.9-2.3v-1.1l1.3.8.7-.6.2 1.4.6-.6.3.5.7-.5-.2.6h.8v.3l.7-.8 1.6.4 1.4 1.3.3.8.7-.2 1.3 1.2 2.2.7.8 1.2.4-.1-.4.2.4 1h.6l.5-.6.2 2 .7 1.2-.6 2.4.9 2-.1 2.1 2 2.1.6.2-1.5-5.9.5-3-.5-.5-.6.2.3-.7h-1l.6-1.1 1.1-.3.3-.4.5.6 2.8-.3.3 1h2l-.1 1.4h2.1l.6.7.7-.3.4.6-.4.6.6.5-.5.6.5 1.4 1.2.2v.6l.9-.6.9.8.5-.7.3.3-.3 1.3.8.3.8 1.3-.1.9.8-.3.6-.3-.2 1.4.4-.4.9 1 1-.3-1.1-1.2v-.8l.4.2.5-.4.2.5.3-.4v.9l.5-.6v.3l.4-.2-.2.8 1 .6v.8l.3-.2.2.3-.5.4-.6-.6h-1l1 1.6-.2.5h.6v-.8l.7.3 1 .6.7 1.3-.6 3.1-1 2-.3 2.5-1.3.8.4.4-.4.3h4.7l.6-1.2-.3-1.2 1-1.8.6-.4-.3-1.7h.5l.2-.3 1 .6.1 1.8h-.8v.6l1-.4 1.1.8-.9 2.5.3.7h3.3l-2.4-5.4-.4-1.8.3-1.2h.7v1.3l.7.3-.4 2.2.6.6h.6l-.4-1.7.9-1 1 .5.2.9 1-.6.6.9.3-1.4.4.1.2.9.3.1.4-1.1 1.7 1.4v-.2h.8l.1.2h.9l-.2-.4h1l.3-.6 1.5 1.2.3 1.3h.9v.6l.4.4.6-.3 1.2.2 1-.8.9.2.5-.4-.2-.8 1.6.8.2 2 .6-.3.7 1.3h.6l.1-.5 2 .7 1.4-.2.3.4-.1.2h3.9l-.3-.3-1.4-3.6-2.6-2.8-1.5-2.7-1.9-.8-3.6-3.5-1.4-.5.6-2.7-.7-2.4 3.1-3.9-.6-6.8.2-5 .8-5.3 1.6-5.7 1-1h.8l1-.9 1.1-2.1 2.4 1.4 1.5.4 3.2 2.9 2 .5 4.3 4.2 1.2.5.5 1.1 2 .3 1.2-.2.6 1.2-.4 1 .2 1.2 1.2 1.9.4 1.6.8.7.7-.2-.3-1.2.7-.5 1 1.6-.6.6-1.3.3.2.4h1l-.8.6.2.3 1.6 1 .4 1.2.8.6 1.1.6.8-.2.5.9.5-.5v-1l-3.1-3.9-.4-1.1.4-1 .9-.3 1.2.5.3.6 2 .8.8.8 1.9-.3-.5-.4-.4-1.3-2.4-3.6-1.7-5.4.1-1-.6-2.5-2-3.9-2.3-3.7-3.1-2.5-2.6-1 1.7-1.3.9-1.7 1.9-1 .2-.6-.3-2.4-2.3-1.3.1-3.6h-1.2l-1.3-1-1.2.1-.7-1-2.4-1.5.2-1.8 1.4-2.6-1.1-4.4.6-.9-.2-.5.7-1.5 1.1-.3.6-1 1.6-.5.2-.4.3.2-.2.4 1-.1 3.1 1.7.9 1-.7.5-1.4 2.5-.1 1.8 1 1.2v-1h1.2v-1.2l1.2-.7.8.1 1.7-1.2.3-1.2 1.1-.2.9-.6v-1l1 1.1 3 1 4.2 4.1h.9l1.9 1.8 3.4 1.3.3 1 2.7 2.7-.4 2.3 1.5 1.8 1.2.7 1-.6 3.4.3 1.4.7h1.1l.2.5.5-.2 1.5 2 2.8 1.7.7 1 1.1.3 1.9 1.7 1.6 3.3 1.2 1.3 4.8 2.2h2l1.1 1.4-.4 1.9-.7.5.1.6-.4.6h-.7l-1.4 1.8 2.7 4-.1.7-.3-.5-.4.8-1.1-1.1-.7-.1 1.8 2.3 1-.4.4-.9 2.9 1 1-.6-.5-.2.2-.6 1-.3.2.7-.9.7.4.8 1.3 1.5 1.7.4.5-.2-.2-.6 1 1.2v-1.5l.6.9-.3 2.8 1.1.4-.2-1.3.8-.5.4.1.8 1.3 1-.6.8.7h1v-1.3l.9.4-.2-.6.7 1 .6-.6-1-1.2v-1.1l1.4-.3v-1.7l.8.5.2.8.8-.1 2.3.7.3-.7 1 .8.2-.3 1 1.7 5.2-.1.6 1.3.8.3.6-.1.4-.4-.3-.3h1l.5.2.1 1.4 1.1.3 1.4-.7.2.4.7-.4.7.6v-.4l.3.2.3-.6.4.3 2.3.1 1.9 1.4 1-.5.4.4-.6.4.2 1.4.8 1.7 1.6.9 2.2-.2 3.7 1.4v2.3l-.5.5v.6l.7.9.3-.2 1.3 1.3 1.9-.7-.3-1.9.7-.6-.6-1.3 1-.2.7 1.6.7.4.2-.2 1.4 1.5.3 1.7-.7 1.3 1.6 1.2 1.3 1.6-3.1-1.8-1 1.7v1.1l-.7.1-.5 1 1.5 1.5.7 1.9v.8l-1.7.4 2.1 2.6v1.1l-1.5-1.9v.4l-.5-.3-.6.5 1 2.6v.5l-.9-.6-.3.3.5 1.3-.2 1.6 1 1.7H4.7V279h-279v48.6l.8.4 1.5 2h.7l-.2.6.5.7-.8.2v1l.5.4-.5.1.4.8-.2.3 1.2.1-.6.4.3.5 1.9.9.5.8-.3-.2.6 1.8h.2v.4h.1v.5l.7.8.5 2.8.4.2.1-.4.3.6.5-.3.3.3.4 4.6-.8 1.9 1.4.8.4.4.2.7-.5-1-1.6-.7-.7.5v1l.1 1.1h.9l-.2.9.7-.1-.1-.4 1.6.5-.1-1.3.6 1.4.1 3.4-.8.2v.4l-.3-.3.3 1.7-.4 2 1.2 2.1.5 3.2-2 3-.2 1 .6 1.9 1.2 1.5-.2.4 1 .7-.8 1.4-2.9 1.1-1.8.2-.8-.1-.7-.5.9.4-.7-1.3-.1.6v.1l-.2-.6h-1.1l-1 1.2.3.7-.8.9h.3l-2 1.6-.5.2-.5-1.3h-.3zm161.8-5.3l-.1-1.1.5-.4.6.7zm-93.3-6.7l1.4-.7.6.6-.3 1.1-1.1 1 .2.5-.2.3-.8-.3.5-.6-1-1.1zm-7.6-2.7l-.1-.9 1.2-2.5 2-.9.5.5-.3 2 .8 1.5-.2 1.9zm106.2 11.6l-.6-1.2 1.3-.7.5.6zm48.7 27.6l-1-1-.2-.5.9.7zm-205.2-200l-.3-.6.4-.3.2.6zm10.4-.2v-.6l1-.5h.4v1h.5l-.3.9-.5-.6-.7.9zm-.7-.3l-.3.3-.4-.5-.3.4-1.5-.8.3-1.5 2-1h.8l-.3.8h.4l.3.4zm-3.8 6.8l-.4.8-.5-.4-.2-2.5-1.1-.5h.5v-.4l-1-.7.2-2.3-.9-1.9.3-.3-.6-2 .4-.3-.6-.2v-1.7l1.5.8-.3 1 .5.5.1 2 .4-.2.2.3 1 4.5.1-.3h.6l-.4.2.4 1.8h.3l.4-1.8-.5-.2h.7l.3-1.1 1.4 2.7.1 1.6-.4 1h-.7l-.3-.6-.4.6-.7-2zm-1.9-9.2v-.8l.3-.4.2.6zm81.8 151.2l-.6-.8.5-.7.5.9zM-274.3 0h279v-279h-278.9zm279 0h279v-279H4.7zm279 0h279v-279h-279zm0 279h279V0h-279zm0 279h279V279h-279zm0 0"/></svg>