<svg xmlns="http://www.w3.org/2000/svg" xmlns:xlink="http://www.w3.org/1999/xlink" viewBox="0 0 497 279" xmlns:v="https://vecta.io/nano"><style><![CDATA[.B{stroke:#fff}.C{stroke:#8d618b}]]></style><filter id="A" width="100%" height="100%" x="0%" y="0%"><feColorMatrix in="SourceGraphic" values="0 0 0 0 1 0 0 0 0 1 0 0 0 0 1 0 0 0 1 0"/></filter><mask id="B"><g filter="url(#A)"><path fill-opacity=".5" d="M0 0h497v279H0z"/></g></mask><clipPath id="C"><path d="M0 0h497v279H0z"/></clipPath><path fill="#f2efe9" d="M0 0h497v279H0z"/><path fill="#aad3df" fill-rule="evenodd" d="M457 62.4v.4l.3.2v.1l.1.1v.4l.2.1v.1l.2.3v.5h.1l.1.2v.6h.2v1.3l-.2.3h-.1v.3h.5v.7h.4l.2.4v.3l-.3.1v.2h-.4v.4l.3.1h.6l.4.2h.2l.2.2.2.1h.1v.5l.3.1.2.2.2.2.2.2v.2l.3.3v.7l-.2.1v.2l-.2.3h-.1v1.1l.2.2.2.2h.1l.2.2h.3l.2.1v.4l.2.2v.6h.4v-.3h.2v-.1l.2-.3h.2l.2-.1h.9l.1.3.2.2.3.3h1.3l.2-.3h.4l.2.3v.6h-.2l-.1.3v.1l.1.2h.1l.2.1h.2l.1-.3v-.7l.2-.1v-.6l.2-.3v-.5h-.3l-.2-.1-.1-.2-.1-.1v-.2l-.2-.1v-.3l.4-.2h.2v.3l.2.1.1-.2v-.2l.2.2v.2h.1v.3h.3v.1l.2.1h.2V73l-.1-.1v-.7h.1V72l.2-.1v-.2l.1-.2v-.3h.1l.1-.2.3-.3v.7l.1.1.1.1h.4v-.3l.3-.3v-.1l.2-.3.3-.2.3-.1h.1v.1h.6V70h.4l.1-.1.1-.2h1.2v.3h.2v.2h.5v.2h.1l.2.4v.4l.1.3.4.1.1.1.1.3h.3v-.7h.2v-1h-.3l-.2-.2v-.2l-.3-.3-.2-.3-.1-.2h-.3l-.3-.4v-.2h-.4l-.1-.5-.5-.2-.3-.2h-.4l-.3-.4-.5-.4v-.3l-.3-.2-.3-.3-.3-.3v-.3h-.1l-.2-.2-.2-.2-.3-.3h-.3v.1h-.2v.2l-.2.1v.3l.1.1v.4l-.3.1h-.2v.3h-.2v.1h-.3v.1l-.2.1v.4h-.2v.1h-.9v.2h-.3v.4h.1l.1.2-.1.2-.2.2-.2.2h-.2l-.1.3-.1.2h-.1l-.1.4v.1l-.2.3-.1.2h-.3l-.1-.3-.3-.5-.2-.4-.3-.4-.3-.3-.2-.2-.1-.1-.2-.2-.1-.3-.5-.3-.3-.3-.5-.3-.5-.2-.4-.2-.4-.3-.6-.2-.6-.3-.3-.1-.1-.2v-.6l-.3-.7-.1-.2-.4-.2-.2-.2-.2-.2v-.6l-.2-.1-.3-.2h-.3v.3h-.5l-.1.1zM42.7 145.2l.3 1.2v4.6l.5.6.5.9.4.5h1.1v-.6l-.5-.4-.2-.7-.1-.7-.3-.4v-1.8l-.1-1.2-.4-1.4-.6-.1v-.3l-.4-.4zM463.6 82l.1.3.3.1.3-.2.1.3h.1v-.4l.3-.1.2.2.3-.1.3.4v-.2h1.1v-.7l-.5-.1v-.3l.2-.3v-.3l-.3-.3-.5-.3-.6.2-.3.1-.1.3-.4.4v.3l-.1.1-.3.1zm.6 3.2l.1.2v.4l.1.2h1l.1-.3.3-.2h-.8l.1-.2V85h.4v-.4h.1l.3-.2-.2-.1h.3l.2.4.3-.4V84h.2l-.2-.3-.1-.4-.4-.2h-.2v.4l-.3.1v.4h-.2v-.3l-.1-.2-.2.1v.3l-.1.2-.3.4-.2.2-.2.2zM65 167.2l.3.5.2.3.5.4 1 .2.7.3h.6l.3-.3-.3-.4-.9-.3-.4-.4h-.5l-.8-.5zm394.2-83.6l.1.1.3.3h.6l.3-.1.2-.2v-.3l.3-.4h.4v-.6l-.4-.2v-.4h-.7l-.3.2v.4l-.2.3-.2.1-.2.2v.2h-.2zM61.1 178.1l.5.9.6.2.6.4.2.6-.3 1 .3.7v.4h.9v-.1l-.3-.7-.7-.5.3-.7v-.6l-.2-.5-.3-.6-.4-.6-.6-.4zm-60-84.3h.2v.2h1.4v-.3h.6v-.3h1.3l.1.4h.2l.1-.3v-.2h.2V93h.3l.1-.2h.1-.4v-.1h-.8v.3h.3-.6v-.2h-.1L4 93v.2h-.5l-.1.1h-.3l-.1.1-.2-.2h-.7l-.1.2h-.2l-.1.1h-.1v.1h-.3v.1h-.1zm.5-.2h.2v.3h-.3l-.1-.3zm.8-.1h.4v-.2.3h-.3zm2.1-.4h.2v.2zm.2.1h.1V93H5v.2h-.4zm-.1.1h.2zm34.5 45.8l.2.1v.4h.1v.2h.1v.2h.1l.1.1h.1l.2.2h.2l.1-.3h.1v-.8h-.2v-.2l-.2-.1v-.3h.4v.2-.2h-.2v-.1H40l-.3.4h-.2v.1l-.5.1zm28.4-31.3v.2h.2v-.2h.1l.1-.1h.1-.3v.3h.3v.7h.1l.3.2h.2v.3l.1.1.1.1v.2h.2v-.2l-.2-.1v-.3h-.1v-.2l-.1-.3v-.2h-.2v-.3h-.2v-.2l-.1-.1v-.7l.4-.3v-.1l.2-.1v-.2h-.3v-.2.3h-.3l-.1.1h.3v-.2.4h.1-.2v.3H68v.3h-.2v-.3h-.1v.3h.5v.1H68v.1h.2l-.2.1v.1h-.6v.1zM48 256.1v.2h1.5v-.3h1.1v-.2h.2l.1-.1h.6l-.1-.1h-.2l-.1-.1h-.2v.3h-.7v.1h-.9v-.3h-.6v.3h-.2l-.1.1H48zm0 0"/><g fill="none" clip-path="url(#C)" mask="url(#B)" stroke-linejoin="bevel" stroke-width=".8"><use xlink:href="#E" class="B"/><use xlink:href="#E" class="C"/><use xlink:href="#F" class="B"/><use xlink:href="#F" class="C"/><use xlink:href="#G" class="B"/><use xlink:href="#G" class="C"/><use xlink:href="#H" class="B"/><use xlink:href="#H" class="C"/><use xlink:href="#I" class="B"/><use xlink:href="#I" class="C"/><use xlink:href="#J" class="B"/><use xlink:href="#J" class="C"/><use xlink:href="#K" class="B"/><use xlink:href="#K" class="C"/><use xlink:href="#L" class="B"/><use xlink:href="#L" class="C"/><use xlink:href="#M" class="B"/><use xlink:href="#M" class="C"/><use xlink:href="#N" class="B"/><use xlink:href="#N" class="C"/><use xlink:href="#O" class="B"/><use xlink:href="#O" class="C"/><use xlink:href="#P" class="B"/><use xlink:href="#P" class="C"/><use xlink:href="#Q" class="B"/><use xlink:href="#Q" class="C"/><use xlink:href="#R" class="B"/><use xlink:href="#R" class="C"/><use xlink:href="#S" class="B"/><use xlink:href="#S" class="C"/><use xlink:href="#T" class="B"/><use xlink:href="#T" class="C"/></g><defs ><path id="E" d="M30.2 55h.4l.2-.3h.1l.2-.2.3-.2v-.2h1.2l.4.2.4.1h.8l.3-.2h.3l.2-.1V54l.1.2v.8h.2l.2.2v.1l.3.2-.3.1v.2l.2.2v.1h.3v.3l.1.1.1.1.2.2h.1l.3.2h.2l.2.2v.1l.1.1h.3l.1.2.3.1h.3l.1-.3h.9l.3.4h.3l.3.2h.2v.3h.2v.2l.1.1v.2l.2.2.1.3v.2l-.4.1-.2.3-.1.1-.2.3v.5l.1.1.2.2.2.2.2.1.2.1h.2l.1.4h.2l.2.1h.2l.4.2h.4l.2.1v.1l.4.2.3.3h.3v.1h.3v.2l.2.2v.1l.1.1.2.1.3.3v.1l.2.1v.3h.2l.1.2.1.1.1.1v.1l.3.2.1.1v.1l.3.2.1.3h.1v.1h.2v.3h-.3v.1l-.1.1h-.1l-.3.2-.4.1-.2.2h-.2v.6l.2.2-.3.2h-.5v1.6l-.2.1v.1l-.1.1v.2h.3v.2h.2V70H46l.3-.2h2.9l.1.2h.1l.2.1v.1l.1.2.1.2.2.2v.2l.1.2h.1v.1l.3.2v.2l.2.1v.2h.2v.2l.1.3v.5h.2v.1l.2.2v.3l.3.1.1.1v.2h-.3l-.2.2-.2.1v.1l-.1.1-.3.2.1.1h.2l.1.2h.4l.2.1h.1l.2.3.2.2.2.2.2.2.2.2v.1l.2.3v1.2l.2.1.2.1h.3v-.3h.2v-.1l.1-.1.2-.3V77l.2-.1v-.1l.1-.2.1-.2.4-.2.3-.2h.4l.2-.1h.1l.2-.3h1.9l.2.2h.4l.2-.1.5-.3h.6v-.3l.2-.3h.1l.2-.1v-.1l.2-.4V74h.3v-.2h.1l.1-.1h.2v-.2h.3l.1-.3.2-.2v-.2l.3-.1v-1.4L62 71l-.1-.2h-.2v-.2h-.3v-.1l-.2-.1v-.1l.1-.1.1-.2h.1l.1-.1.1-.1.3-.1v-.2l.2-.1V69l-.2-.2v-.2l-.1-.1v-.3h.1l.2-.2v-.2h.1l.1-.3.1-.1V67l.1-.1v-.2h.2v-.3l.1-.2v-.1l.1-.1h.3l.1.1.1.1h.1l.1.2h.1v.1h.4l.2-.2h.6v-.2l.1-.1h.2l.1-.2.2.3.1.3.1.1.2.2.1.3.2.3h.1l.1.3h.1l.2.2.1.2h.3v.3l.2.1v.3h.1l.2.1v.2l.2.1v.3h.1v.2l.1-.3.2-.1.3-.2h.8v-.4h.2l.1-.2h.3v-.2h.2l.1-.2h.2l.1-.3h.2v-.1l.2-.1h.3v-.3h.5l.2.3.2.1.1.1.2.3v.1l.3.2.2.1v.1l.2.2v.3l.1.1.1.1.2.1v.1l.3.2.2.3h.2l.1.2.3.3.3.1v.1l.3.2v.6l-.3.2-.2.1-.1.1-.2.2h-.2l-.2.2-.3.1-.2.1-.1.1-.5.5-.2.1-.1.1-.1.2.2.1h.2v.3h.2v.1l.2.1v.1l.2.1v.4l.2.2v.2"/><path id="F" d="M73.7 75l-.1.3-.1.1v.4l.1.2.1.1.1.1.2.1v1h-.2v.2l-.2.4v.6l-.3.1-.2.1H73v.3l-.2.2-.1.2v.3h-.2v.3l-.2.2v.1l.2.2.2.2v.3h.3v.2l.1.3h.5l.2.2h.4v.2l.3.3v.1h.3l.1.2h.3v.3l.2.2h.1l.1.1.1.1v.1h.2v.5h.1v.2h.5l.1.1v.7l-.1.2-.3.2h-.1l-.1.3h-.3v.7h-.1v.2h-.2v.3l.3.2V88l-.3.2v.2l-.1.3v.3l.2.3v.5l-.4.2H75v.1l-.2.2-.2.3h-.2l-.1.2v.4l-.2.1v.1l-.1.1-.1.2h-.1v.1h-.3l-.2.2.1.2.1.2v.1l.2.1v.4h.1v.4h.1v.2l.1.1h.1v.2l-.3.1h-1.3l-.2-.1h-.8v.1l-.3.1v.1H71v.2h-.7V94H70l-.1-.1-.2-.2-.1-.3H69v-.3h-.5l-.2-.1-.2-.1-.1-.1h-.6l-.2.2h-.3l-.1.1-.2.1-.1.1h-1l.2.2.1.1v.1l.2.2v.1l.3.2v.2l.2.3v.3l-.2.1v.1l-.2.1v.2l-.1.1v.6l-.3.2v.1l-.2.2v.5h.1l.2.2.4.3v.1l.1.1.1.1v.2l.3.3h-.3v.2h-.2v.1H66v.2h-.3l-.3.3v.4l-.3.2H65l-.3.1h-.2l-.1.2-.2.1v.1l-.2.2-.1.1-.2.1-.1.2-.1-.2-.1-.1v-.2l-.3-.1v-.2h-1.2l-.4.2h-.1l-.1.1h-.5l-.2.3h-.2l-.2.2-.2.1v.1l-.2.1-.1.1v.2h-.4l-.1-.1-.2-.2-.2-.3-.1-.1-.1-.2-.1-.1-.1-.2-.1-.2-.1-.2-.2-.2-.1-.1-.3-.3h-.2l-.1-.1-.3-.1-.2-.2-.2-.2v-.2l-.3-.2v-.2l-.3-.1-.3.2v.3h-.2v.4l-.2.2-.1.1v.2l-.2.1-.2.1v.1l-.2.3v.3l.4.3v.2l.1.1v.3l-.3.2h-.2v.7l-.2.1v.1l-.1.1h-.1l-.2.3-.2.1v.1h-.3v.2l-.1.2-.1.1-.1.2-.2.1v.4h-.2v.1l-.1.2v.2h.3v.2l.3.1v.1h.3l.2.1.2.4v.8l.3.3h.4l.1.2.2.1v.4l.3.2.2.2v.5l.2.1v.4h.2v.2h.1v.8h-.2v.3l-.2.2v.4h.6l.1.1.2.2.1.1.1.1.1.2v.1h.2v.3l.2.2h.2l.3.1.1.2.2.2.2.1v.4h.2v.2l-.3.3.2.1.2.1.2.1.1.1.2.1v.2l.2.4h.1l.1.2v.2l.2.1.1.2v.3l.3-.2.3-.3h.7l.3-.3h.4l.3-.1h.5l.3-.1h.3l.2-.2h.9l.4-.2.3-.2.1-.2.4-.2.2-.2h.2l.3-.3h.2l.2-.1.3-.2.1-.2.1-.2.2-.2h.4l.3-.2h.3l.2-.2v-.8h.3v-.3l.3-.2.1-.2h.2l.1-.1h.2"/><path id="G" d="M69.6 110.1l.4-.3h.2l.1-.3h.2v-.1l.3-.2v-.1l.2-.2.1-.2.3-.2.2-.2.4-.1.1-.2.1-.2.1-.2.3-.1v-.2l.3-.2H74v-.1h.3l.1.1v.2l.3.2v.5l.1.2v1.3l.4.2v.9l-.4.4v1l-.1.1v.2l.3.3v.4h-.2l-.1.1-.2.2h-.1l-.2.2-.2.1v.4l.4.1v.3h.1v.3l.2.1.1.2.2.3v.1l.2.2v.1l.1.3.2.3v.3l.2.3v.2l.3.2v.2l.4.3v.1l.1.3.1.2.2.3.1.3h.2l.3.2v.1l.2.2v.1l.1.1v.3h.1v.2h.2l.1.2h.4l.2.2.3.2v.1l-.2.1-.1.2v.4l-.3.2v.1l-.2.2v.5l.4.2v1.8h-.3.4v.2h.1l.2.2h.3v.3h.2l.1.1h.1v.1h.3v-.1l.1-.1h.5l.2.2h.4l.4.2h.4l.3.1h1.5l.2-.3v-.5l.4-.2v-.2l.1-.2.1-.2h.2l.1-.2h.3v-.2l.3-.1v-.1l.4-.2h.9l.3.3h.4l.1.2h.2l.3.1h.7v.2h.2l.1.2.1.2.2.1h.7l.3-.1h1.4l.1.1.1.3h.1l.1.2h.2l.1.3h.2v.2l.3.1.1.2.2.2v.1l.2.1.1.2.4.1v.1l-.2.2-.5.1-.2.2-.3.2v.2l-.3.1v.3h-.1l-.4.2v1.9l-.1.3-.2.4-.2.3-.3.2-.4.4-.3.1-.1.2-.1.5-.1.1-.2.3v.7h1l.2.3v.1l.2.3v.1l.1.2.2.1.3.2h.5l.2.2h.9l.1.2.3.1.4.2h.9l.3.1h.3l.2.2.1.1h.3l.3.4.2.1v.3l.2.4v1.5l.2.2v.4l.2.3v1.7l.1.3v.1h.2v.2l-.2.2v.2l-.3.1v.5h-.1v.2l-.1.2-.2.1-.1.2v.1l.3.2.2.4.1.2.1.2v.1h.3v.3h1.4l.2.2v.9l.2.1v.1l.2.2.1.1v.2l.2.2.1.1v.4l.3.2v.4l-.2.3-.2.2-.1.2h.2l.1.2h.3l.3.4.2.1h.2l.1.2v.1l.2.2v.2h.2v.3h.4l.1.1.1.2h.1l.1.3v.1l.3.1v.3l.2.1v.2l.1.2.1.2v.2l-.3.1v.6l.4.1v1.1l.2.1v.3h.1v.2h.1l.1.3v.1h.2l.1.1v.2l-.2.1-.1.1h-.1l-.2.3h.4l.2.3h.2l.2.2v.1h.2v.3h.1l.2.3h.3v.2h.1"/><path id="H" d="M27.3 53.4v.2l.3.1.2.3h.2v.1l.2.1v.2l.3.2v.2l.2.1v.1l.3.1.2.1h.1l.1.2h.2l.3-.3h.1l.1-.1h.5l.2-.3h.1l.2-.2.3-.2v-.2h1.2l.4.2.4.1h.8l.3-.2h.3l.2-.1V54l.1.2v.8h.2l.2.2v.1l.3.2-.3.1v.2l.2.2v.1h.3v.3l.1.1.1.1.2.2h.1l.3.2h.2l.2.2v.1l.1.1h.3l.1.2.3.1h.3l.1-.3h.9l.3.4h.3l.3.2h.2v.3h.2v.2l.1.1v.2l.2.2.1.3v.2l-.4.1-.2.3-.1.1-.2.3v.5l.1.1.2.2.2.2.2.1.2.1h.2l.1.4h.2l.2.1h.2l.4.2h.4l.2.1v.1l.4.2.3.3h.3v.1h.3v.2l.2.2v.1l.1.1.2.1.3.3v.1l.2.1v.3h.2l.1.2.1.1.1.1v.1l.3.2.1.1v.1l.3.2.1.3h.1v.1h.2v.3h-.3v.1l-.1.1h-.1l-.3.2-.4.1-.2.2h-.2v.6l.2.2-.3.2h-.5v1.6l-.2.1v.1l-.1.1v.2h.3v.2h.2V70H46l.3-.2h2.9l.1.2h.1l.2.1v.1l.1.2.1.2.2.2v.2l.1.2h.1v.1l.3.2v.2l.2.1v.2h.2v.2l.1.3v.5h.2v.1l.2.2v.3l.3.1.1.1v.2h-.3l-.2.2-.2.1v.1l-.1.1-.3.2.1.1h.2l.1.2h.4l.2.1h.1l.2.3.2.2.2.2.2.2.2.2v.1l.2.3v1.2l.2.1.2.1h.3v-.3h.2v-.1l.1-.1.2-.3V77l.2-.1v-.1l.1-.2.1-.2.4-.2.3-.2h.4l.2-.1h.1l.2-.3h1.9l.2.2h.4l.2-.1.5-.3h.6v-.3l.2-.3h.1l.2-.1v-.1l.2-.4V74h.3v-.2h.1l.1-.1h.2v-.2h.3l.1-.3.2-.2v-.2l.3-.1v-1.4L62 71l-.1-.2h-.2v-.2h-.3v-.1l-.2-.1v-.1l.1-.1.1-.2h.1l.1-.1.1-.1.3-.1v-.2l.2-.1V69l-.2-.2v-.2l-.1-.1v-.3h.1l.2-.2v-.2h.1l.1-.3.1-.1V67l.1-.1v-.2h.2v-.3l.1-.2v-.1l.1-.1h.3l.1.1.1.1h.1l.1.2h.1v.1h.4l.2-.2h.6v-.2l.1-.1h.2l.1-.2.2.3.1.3.1.1.2.2.1.3.2.3h.1l.1.3h.1l.2.2.1.2h.3v.3l.2.1v.3h.1l.2.1v.2l.2.1v.3h.1v.2l.1-.3.2-.1.3-.2h.8v-.4h.2l.1-.2h.3v-.2h.2l.1-.2h.2l.1-.3h.2v-.1l.2-.1h.3v-.3h.5l.2.3.2.1.1.1.2.3v.1l.3.2.2.1v.1l.2.2v.3l.1.1.1.1.2.1v.1l.3.2.2.3h.2l.1.2.3.3.3.1v.1l.3.2v.6l-.3.2-.2.1-.1.1-.2.2h-.2l-.2.2h-.2"/><path id="I" d="M74 72.3h-.3l-.1.1-.1.1-.5.5-.2.1-.1.1-.1.2.2.1h.2v.3h.2v.1l.2.1v.1l.2.1v.4l.2.2v.2l-.2.3-.1.1v.4l.1.2.1.1.1.1.2.1v1h-.2v.2l-.2.4v.6l-.3.1-.2.1H73v.3l-.2.2-.1.2v.3h-.2v.3l-.2.2v.1l.2.2.2.2v.3h.3v.2l.1.3h.5l.2.2h.4v.2l.3.3v.1h.3l.1.2h.3v.3l.2.2h.1l.1.1.1.1v.1h.2v.5h.1v.2h.5l.1.1v.7l-.1.2-.3.2h-.1l-.1.3h-.3v.7h-.1v.2h-.2v.3l.3.2V88l-.3.2v.2l-.1.3v.3l.2.3v.5l-.4.2H75v.1l-.2.2-.2.3h-.2l-.1.2v.4l-.2.1v.1l-.1.1-.1.2h-.1v.1h-.3l-.2.2.1.2.1.2v.1l.2.1v.4h.1v.4h.1v.2l.1.1h.1v.2l-.3.1h-1.3l-.2-.1h-.8v.1l-.3.1v.1H71v.2h-.7V94H70l-.1-.1-.2-.2-.1-.3H69v-.3h-.5l-.2-.1-.2-.1-.1-.1h-.6l-.2.2h-.3l-.1.1-.2.1-.1.1h-1l.2.2.1.1v.1l.2.2v.1l.3.2v.2l.2.3v.3l-.2.1v.1l-.2.1v.2l-.1.1v.6l-.3.2v.1l-.2.2v.5h.1l.2.2.4.3v.1l.1.1.1.1v.2l.3.3h-.3v.2h-.2v.1H66v.2h-.3l-.3.3v.4l-.3.2H65l-.3.1h-.2l-.1.2-.2.1v.1l-.2.2-.1.1-.2.1-.1.2-.1-.2-.1-.1v-.2l-.3-.1v-.2h-1.2l-.4.2h-.1l-.1.1h-.5l-.2.3h-.2l-.2.2-.2.1v.1l-.2.1-.1.1v.2h-.4l-.1-.1-.2-.2-.2-.3-.1-.1-.1-.2-.1-.1-.1-.2-.1-.2-.1-.2-.2-.2-.1-.1-.3-.3h-.2l-.1-.1-.3-.1-.2-.2-.2-.2v-.2l-.3-.2v-.2l-.3-.1-.3.2v.3h-.2v.4l-.2.2-.1.1v.2l-.2.1-.2.1v.1l-.2.3v.3l.4.3v.2l.1.1v.3l-.3.2h-.2v.7l-.2.1v.1l-.1.1h-.1l-.2.3-.2.1v.1h-.3v.2l-.1.2-.1.1-.1.2-.2.1v.4h-.2v.1l-.1.2v.2h.3v.2l.3.1v.1h.3l.2.1.2.4v.8l.3.3h.4l.1.2.2.1v.4l.3.2.2.2v.5l.2.1v.4h.2v.2h.1v.8h-.2v.3l-.2.2v.4h.6l.1.1.2.2.1.1.1.1.1.2v.1h.2v.3l.2.2h.2l.3.1.1.2.2.2.2.1v.4h.2v.2l-.3.3.2.1.2.1.2.1.1.1.2.1v.2l.2.4h.1l.1.2v.2l.2.1.1.2v.3l.3-.2.3-.3h.7l.3-.3h.4l.3-.1h.5l.3-.1h.3l.2-.2h.9l.4-.2.3-.2.1-.2.4-.2.2-.2h.2l.3-.3h.2l.2-.1.3-.2.2-.4"/><path id="J" d="M67 112.4l.2-.2h.4l.3-.2h.3l.2-.2v-.8h.3v-.3l.3-.2.1-.2h.2l.1-.1.2-.1.4-.3h.2l.1-.3h.2v-.1l.3-.2v-.1l.2-.2.1-.2.3-.2.2-.2.4-.1.1-.2.1-.2.1-.2.3-.1v-.2l.3-.2H74v-.1h.3l.1.1v.2l.3.2v.5l.1.2v1.3l.4.2v.9l-.4.4v1l-.1.1v.2l.3.3v.4h-.2l-.1.1-.2.2h-.1l-.2.2-.2.1v.4l.4.1v.3h.1v.3l.2.1.1.2.2.3v.1l.2.2v.1l.1.3.2.3v.3l.2.3v.2l.3.2v.2l.4.3v.1l.1.3.1.2.2.3.1.3h.2l.3.2v.1l.2.2v.1l.1.1v.3h.1v.2h.2l.1.2h.4l.2.2.3.2v.1l-.2.1-.1.2v.4l-.3.2v.1l-.2.2v.5l.4.2v1.8h-.3.4v.2h.1l.2.2h.3v.3h.2l.1.1h.1v.1h.3v-.1l.1-.1h.5l.2.2h.4l.4.2h.4l.3.1h1.5l.2-.3v-.5l.4-.2v-.2l.1-.2.1-.2h.2l.1-.2h.3v-.2l.3-.1v-.1l.4-.2h.9l.3.3h.4l.1.2h.2l.3.1h.7v.2h.2l.1.2.1.2.2.1h.7l.3-.1h1.4l.1.1.1.3h.1l.1.2h.2l.1.3h.2v.2l.3.1.1.2.2.2v.1l.2.1.1.2.4.1v.1l-.2.2-.5.1-.2.2-.3.2v.2l-.3.1v.3h-.1l-.4.2v1.9l-.1.3-.2.4-.2.3-.3.2-.4.4-.3.1-.1.2-.1.5-.1.1-.2.3v.7h1l.2.3v.1l.2.3v.1l.1.2.2.1.3.2h.5l.2.2h.9l.1.2.3.1.4.2h.9l.3.1h.3l.2.2.1.1h.3l.3.4.2.1v.3l.2.4v1.5l.2.2v.4l.2.3v1.7l.1.3v.1h.2v.2l-.2.2v.2l-.3.1v.5h-.1v.2l-.1.2-.2.1-.1.2v.1l.3.2.2.4.1.2.1.2v.1h.3v.3h1.4l.2.2v.9l.2.1v.1l.2.2.1.1v.2l.2.2.1.1v.4l.3.2v.4l-.2.3-.2.2-.1.2h.2l.1.2h.3l.3.4.2.1h.2l.1.2v.1l.2.2v.2h.2v.3h.4l.1.1.1.2h.1l.1.3v.1l.3.1v.3l.2.1v.2l.1.2.1.2v.2l-.3.1v.6l.4.1v1.1l.2.1v.3h.1v.2h.1l.1.3"/><path id="K" d="M-15.7-36.5h1.2v.2h.2v.3l.1.1.2.2v.2l-.3.1v.1l-.1.1v.5l-.3.1-.1.1-.2.1v.2h-.4v.2h-.3v.3l-.1.1v.1l-.2.3v.2h-.4l-.2.2h-.2l-.2.2v.8l-.2.2-.2.3-.2.1h-.2l-.1.2h-.2l-.2.2v.2h.3l.2.2h.8l.1.2v.3l.2.1.1.2v.1l.3.1h.1l.1.3h.1l.1.1h.1v.4l.2.2v.3l-.4.3v.5l-.3.4-.2.3-.1.2v.2l-.2.1v.4l-.2.1v.1h-.8l-.2-.2h-.2l-.3.2h-.1l-.1.2-.2.3v.7h.5l.2-.2h.8l.3.3v.1h.9v.1l.2.1.2.4h.6v-.4l.2-.1h.2l.2-.4h.7l.3.3h.2l.4.1.1.2h.1l.2.3h.2v.2h.3v.3h.1l.2.3.1.2.2.1.1.2.4.4v.2l.3.1.5.5h.5l.4.2.3.2.5.6.5 1.2v.2l.1.1.1.1h.3l.1.2h.1l.3.2v.6l.3.3h.1l.2.1h.2v.1l.2.2v.1l.2.1v.1l.1.1.3.3.1.2v2.1l-.2.2v.9h-.1v.5h.2l.1.3.3.1v.1l.2.3v.3l.3.1v.5l-.3.2-.1.1v.3l-.1.2h-.2l-.1.1h-.1l-.1.1-.2.2h-.2l-.2.2-.4.1h-.1v.2h.2v.2l.1.1.3.2v.6l.1.1v.1l.2.2v.8l.2.3v.1h.1l.1.3h.9l.2-.3h.4v.3h.5l.2-.3h.4l.2-.2h.2l.1.3.2.2v.1l.2.3v.2h.3l.1.3h.7l.3.1h1.7l.2.2h1l.1.2h.1l.3.1v.1l.2.2v.2l.2.1v.1l.1.2.1.1.1.2h.1-.1v.2h-.3v.1h-.2l-.1.3h-.5l-.1.1H2v.2h-.2l-.1.1-.1.1h-.3l-.3.2-.4.2H.3v.2H0v.1h-.3v.2h-.3l-.1.2h-.5v.2h-.3l-.1.1h-.3l-.1.1V0h.2v.2H-2v.4h.7l.3.2.2.2.1.1h.1v.7l.3.2h.1v.3l.2.1V3l-.4.3-.3.4-.4.3-.3.2-.4.2-.1.1-.4.3-.2.2-.3.3v.1h-1.7l-.3.2h-1.1l-.1.2-.2.2h-1.2v.1h-.7l-.2.3-.2.2v.1h-.1v.5h-.2v.2h-.1l-.1.2-.1.2v.9l.1.2.1.1h.1v.2h.2v.1h.4L-8 9h.5v.3l.2.1v.6h.3v.2h.2l.1.1h.1l.2.2h.2l.2.1"/><path id="L" d="M-17.8-39.5l.2.2v.3h.3v.4l.3.2v.2l.3.2h.1l.2.2.1.1.1.2v.4l.2.1v.2l.2.2h.3l.1.3h.3v-.3h.6v.3h.2v.3l.1.1.2.2v.2l-.3.1v.1l-.1.1v.5l-.3.1-.1.1-.2.1v.2h-.4v.2h-.3v.3l-.1.1v.1l-.2.3v.2h-.4l-.2.2h-.2l-.2.2v.8l-.2.2-.2.3-.2.1h-.2l-.1.2h-.2l-.2.2v.2h.3l.2.2h.8l.1.2v.3l.2.1.1.2v.1l.3.1h.1l.1.3h.1l.1.1h.1v.4l.2.2v.3l-.4.3v.5l-.3.4-.2.3-.1.2v.2l-.2.1v.4l-.2.1v.1h-.8l-.2-.2h-.2l-.3.2h-.1l-.1.2-.2.3v.7h.5l.2-.2h.8l.3.3v.1h.9v.1l.2.1.2.4h.6v-.4l.2-.1h.2l.2-.4h.7l.3.3h.2l.4.1.1.2h.1l.2.3h.2v.2h.3v.3h.1l.2.3.1.2.2.1.1.2.4.4v.2l.3.1.5.5h.5l.4.2.3.2.5.6.5 1.2v.2l.1.1.1.1h.3l.1.2h.1l.3.2v.6l.3.3h.1l.2.1h.2v.1l.2.2v.1l.2.1v.1l.1.1.3.3.1.2v2.1l-.2.2v.9h-.1v.5h.2l.1.3.3.1v.1l.2.3v.3l.3.1v.5l-.3.2-.1.1v.3l-.1.2h-.2l-.1.1h-.1l-.1.1-.2.2h-.2l-.2.2-.4.1h-.1v.2h.2v.2l.1.1.3.2v.6l.1.1v.1l.2.2v.8l.2.3v.1h.1l.1.3h.9l.2-.3h.4v.3h.5l.2-.3h.4l.2-.2h.2l.1.3.2.2v.1l.2.3v.2h.3l.1.3h.7l.3.1h1.7l.2.2h1l.1.2h.1l.3.1v.1l.2.2v.2l.2.1v.1l.1.2.1.1.1.2h.1-.1v.2h-.3v.1h-.2l-.1.3h-.5l-.1.1H2v.2h-.2l-.1.1-.1.1h-.3l-.3.2-.4.2H.3v.2H0v.1h-.3v.2h-.3l-.1.2h-.5v.2h-.3l-.1.1h-.3l-.1.1V0h.2v.2H-2v.4h.7l.3.2.2.2.1.1h.1v.7l.3.2h.1v.3l.2.1V3l-.4.3-.3.4-.4.3-.3.2-.4.2-.1.1-.4.3-.2.2-.3.3v.1h-1.7l-.3.2h-1.1l-.1.2-.2.2h-1.2v.1h-.7l-.2.3-.2.2v.1h-.1v.5h-.2v.2h-.1l-.1.2-.1.2v.9l.1.2.1.1"/><path id="M" d="M-6 10.5l-.3.2h-.1l-.3.1-.2.2-.3.1-.1.1-.1.2-.2.2-.1.2v.2l-.2.1-.2.1v.4l.1.1.1.2h.1v.3h.2v1.2l.3.1v.1H-6l.1-.2h.3l.2.2.2.1h.1l.3.1h.4v-.2l.3-.3v-.1h.1V14h.3l.1-.2.1.2.1.1.1.1h.1l.2.2h.2l.1.1h.4v.1h.5v1.6h.2v.2l.2.1.2.1h.2l.3.2h.3l.2.2h.1v.7l-.2.1v1.4l-.3.2v.4l.4.2.2.1v.2h.2v.4l.1.2v.3l-.3.2-.3.4-.1.1v.6l-.1.2h-.1l-.1.1v.4l.1.1.1.1v.1l.3.2v.7h-.2v.2h-.2v.7h.3v.2h.2v.1l.1.2v.6h-.3v1.1l-.2.1v.6l.5.3v.1l.1.2.2.2h.1l.2.3h.1v.2h.2l.1.1v.1l.3.1.2.2h.7v-.2l.3-.1v-.2l.2-.1.1-.2.2-.2h.2l.5-.4h.1l.2-.2h.3l1.7-.7.3-.1h.3l.2.1H7v.3h.3l.2.1h.8v.1l.3.2v.2H9l.1.2h.2v.1h.7l.2-.3h.2l.3-.2.5-.3.2-.1.1.3h.2l.1.1h.8l.1-.2h.3v-.1h.3l.3.2v.1l.2.2.2.1.1.1-.1.2h-.1l-.1.2v.1l-.3.3-.2.2v.1l-.1.2v.1l-.1.1v.5h.3v.4l-.4.1v1.2l-.1.2-.1.3v.4l-.1.2v.2l-.3.1v.3l-.2.3v.2l-.2.1v.2h-.2v.5l-.3.3v1.5l-.2.4v.3h.3v.9h-.5l-.1.1h-.2l-.1.3h-.5v.3H10v.4h-.3v.1l-.3.2.2.1v.1l.2.2v.1l.1.1v.2l.1.1v.6h.3l.1.2h.3v.1l.1.1.2.3.2.1v.4H11l.1.4v.1l.3.2v.3l.1.1.2.2v.2l.3.1v.2h.3v.2h.3v.1l.3.1h.5l.1-.2h.6l.1.3h1.3l.3.1.2.2.3.2.3.1.2.2.1.1.1.1v.3l.3.4h.3l.2.4h.9l.3.1v.2l.2.1.1.4v.5l.2.1h1.3l.4.2h.2l.2.1h.2v.1l.2.2.1.1h.6l.3-.2h.8l.1-.2h.9v.9l-.4.4v.4h.3v.5h.1v.2h.2v.9h.2v.3h.2v.1h.2l.2-.3h1l.1.5.1.1.1.1v.2h.3v.2l.2.1.2.3h.2v.1l.2.1v.2l.3.2v.2l.2.1v.1l.3.1.2.1h.1l.1.2h.2l.3-.3h.1l.1-.1h.1"/><path id="N" d="M-8.8 9v.2h.2v.1h.4L-8 9h.5v.3l.2.1v.6h.3v.2h.2l.1.1h.1l.2.2h.2l.2.1-.3.1h-.1l-.3.1-.2.2-.3.1-.1.1-.1.2-.2.2-.1.2v.2l-.2.1-.2.1v.4l.1.1.1.2h.1v.3h.2v1.2l.3.1v.1H-6l.1-.2h.3l.2.2.2.1h.1l.3.1h.4v-.2l.3-.3v-.1h.1V14h.3l.1-.2.1.2.1.1.1.1h.1l.2.2h.2l.1.1h.4v.1h.5v1.6h.2v.2l.2.1.2.1h.2l.3.2h.3l.2.2h.1v.7l-.2.1v1.4l-.3.2v.4l.4.2.2.1v.2h.2v.4l.1.2v.3l-.3.2-.3.4-.1.1v.6l-.1.2h-.1l-.1.1v.4l.1.1.1.1v.1l.3.2v.7h-.2v.2h-.2v.7h.3v.2h.2v.1l.1.2v.6h-.3v1.1l-.2.1v.6l.5.3v.1l.1.2.2.2h.1l.2.3h.1v.2h.2l.1.1v.1l.3.1.2.2h.7v-.2l.3-.1v-.2l.2-.1.1-.2.2-.2h.2l.5-.4h.1l.2-.2h.3l1.7-.7.3-.1h.3l.2.1H7v.3h.3l.2.1h.8v.1l.3.2v.2H9l.1.2h.2v.1h.7l.2-.3h.2l.3-.2.5-.3.2-.1.1.3h.2l.1.1h.8l.1-.2h.3v-.1h.3l.3.2v.1l.2.2.2.1.1.1-.1.2h-.1l-.1.2v.1l-.3.3-.2.2v.1l-.1.2v.1l-.1.1v.5h.3v.4l-.4.1v1.2l-.1.2-.1.3v.4l-.1.2v.2l-.3.1v.3l-.2.3v.2l-.2.1v.2h-.2v.5l-.3.3v1.5l-.2.4v.3h.3v.9h-.5l-.1.1h-.2l-.1.3h-.5v.3H10v.4h-.3v.1l-.3.2.2.1v.1l.2.2v.1l.1.1v.2l.1.1v.6h.3l.1.2h.3v.1l.1.1.2.3.2.1v.4H11l.1.4v.1l.3.2v.3l.1.1.2.2v.2l.3.1v.2h.3v.2h.3v.1l.3.1h.5l.1-.2h.6l.1.3h1.3l.3.1.2.2.3.2.3.1.2.2.1.1.1.1v.3l.3.4h.3l.2.4h.9l.3.1v.2l.2.1.1.4v.5l.2.1h1.3l.4.2h.2l.2.1h.2v.1l.2.2.1.1h.6l.3-.2h.8l.1-.2h.9v.9l-.4.4v.4h.3v.5h.1v.2h.2v.9h.2v.3h.2v.1h.2l.2-.3h1l.1.5.1.1.1.1v.2h.3"/><path id="O" d="M104.3 235.3l-.2.2-.1.1-.4.2-.4.2-.2.2.3.2v.2l.1.2.2.2.4.2h.4l-.2.2-.2.4-.3.4-.2.1-.2.1-.3.2-.2.3-.2.5v.2l-.2.2-.2.3v.1l.2.3h.4v.4h.2v.4l.2-.1v.1l.3.4.2.3v.3l.3-.4v-.5l.1-.4.2-.4.3-.3.1-.1h1.6l.2.2.2.3.3.3v.2h.1l.2.2.3.1h.4l.2.2h.9l.1.1h.1l.1.2v.3l.3.2v.6l.2.2v.2l-.4.2-.3.3v.2h-.2l.2.4.2.1.2.3h.2l.1-.1.2-.1v-.1l.3-.1h.1l.1-.3h.2l.2-.2h.8v-.1h.7l.3.3.1.1.2.2.3.3.1.1h.7l.2.4.2.3.1.3h1l.3.3h.5l.3.2h1l.5-.3.3-.2h.4l.2-.3h.1l.7-.4v-.1l.3-.2v-.2l.1-.4v-.2l.5-.5.1-.3.4-.4h.2l.3-.3.3-.1.4-.1h1.1l.3.2h.8l.3.2.1.1.2.3v.6l.2.3v2.3l.3.2v.2l.3.7.3.6.1.2v.2l.1.2.1.2v.2l.2.2v.3l.3.3.1.3.1.1v.2l.1.1v.3h.4v.2l-.3.1v.2l-.3.3v.1l-.2.1v.1l-.2.1v.3l-.1.3-.2.3h-.2l-.1.2h-.2l-.2.1h-.4l-.1.3-.3.3v.1l-.2.2-.3.3-.3.1-.2.1-.1.2h-.1v.3l-.3.2h-.2v.3h-.1l-.2.2h-.2l-.1.2-.3.2v.9l-.1.3v.7l-.1.3v1.4l-.2.1v.1l-.2.2v.3h-.1v.2h-.2l-.1.1-.3.2v.4h-.1l-.4.3v.1h-.2v.2l-.1.2h-.1l-.1.3-.1.2v.3h.2v.3l.1.1v.1l.1.2v.3h.1v.2h.2v.6l.1.1.2.2.1.1v.2l.2.1v.1l.1.2v.1l.3.2v.3l-.3.2-.1.2-.1.2-.2.3-.3.3-.2.3-.3.1h-.1l-.1.2h-.3l-.4.2-.5.2h-.1l-.3.5-.2.3-.2.4-.1.1v1.1l.4.3.2.2.3.3v.2l-.3.1-.1.2-.2.1-.1.4h-.3l-.2.5-.5.3-.3.2-.2.2v.1l-.2.2v.5l-.1.2-.1.2-.2.2-.3.4-.2.2v.2l-.3.2-.1.1-.1.3h-.3l-.2.3h-.4l-.1.1v.9l.3.2v.2h.1l.1.1.1.2.2.2h.1v.2l.2.1h.1v.5l-.3.1v1.1l.2.3v.2"/><path id="P" d="M105.6 157.8l.2.4h.2l.3.3.4.3h.2l.1.2v.8l-.3.2v.1h-.2l-.1.3h-.2v.3l-.2.3v.1h-.5l-.3.2h-.6l-.2-.3v-.4l-.2-.1-.2-.4-.2-.4-.1-.2-.3-.2-.4-.2h-.6l-.2.3h-.2l-.3-.2-.1-.2-.2-.2v-.2l-.3-.2v-.2l-.1-.2-.2-.2-.2-.1-.2-.1h-.4l-.2.1-.2.1-.2.2h-.3l-.1-.2-.1-.2-.1-.3-.1-.2-.2-.1h-.1l-.2.2h-.6l-.2.2H97l-.2.3v.3h.3l.1.4.2.3.3.3v.6l-.2.2v.1l-.1.1-.1.2v.3l.2.1v.5l-.2.3v.2l-.3.2v.7l.3.2.2.3v.2H97l-.1.2h-.4l-.1.1H96v.1l-.4.1h-.2l-.1.3h-.1l-.2.2-.2.1v.1l-.2.2v1l-.1.1v.3l-.1.3v.2l-.3.2v.3h.1l.2.3.1.2.2.1.1.1.2.1.2.2h.2l.1.4.1.2h.5l.1.3h.1v1l-.3.3v.2l-.1.1-.1.3v.2l.2.4h.1l.1.1h.1v.3h.3v.2l.2.3v.5l.1.2.1.3v.5l.3.4v.3l.2.2v.2l.1.1v.1l.3.2h.1v.3h.3l.1.1v.7l.3.3v.2h-.4v.6l.2.2v.6h-.1l-.1.2-.3.4v.1h-.2l-.1.2h-.2l-.2.1-.3.1-.2.2-.2.1h-.2v.2h-.3l-.1.1h-.6l-.2-.2H95l-.2-.2h-.4v.2l-.2.2-.2.4-.3.2v.6h.3v.2l.2.1v.1l.1.2h.2l.1.1.3.1.1.2.2.2v1.3l-.2.3h-.1l-.1.2h-.2v.1l-.1.2-.1.4v.1l-.2.4v.2h.3v.3l-.3.2H94v.3h-.2l-.1.2h-.1l-.1.1H93v.1l-.4.2-.1.2-.1.2-.1.2v.4l-.3.1v.1l-.2.1-.2.2-.2.1h-1.1l-.3.2h-.6l-.4.2h-.2l-.2.3h-.2l-.1.3H88l-.3.2-.1.2h-.2l-.1.1-.5.3v-.4l-.3-.2v-.6h-.1v-.5l-.1-.1v-.2l-.2-.1v-.3H86l-.2-.1v-.1l-.2-.1-.1-.2-.2-.3-.1-.2h-.4v-.2h-.5v-.1H84l-.1-.1h-.2l-.1-.1h-.2l-.3-.2H82l-.1-.2h-1.1v.3h-.2v.8l-.2.1v.3h-.1v.4h.3v.8l-.4.2v.3l-.1.2-.1.2v.3h-.3v.2l-.1.2-.2.2-.2.1v.3h-.8l-.2.2-.2.4-.3.1h-.1v.1H77v-.3h-.1l-.3-.1h-.8v.2h-.3v.1h-.2v.1H75v.2h-.2v.2h-.3v.3l-.1.1-.1.3v.1h-.1v.3h-1.5l-.1.2v.1l-.1.2v.2l-.2.1v.2l.3.3.2.1v1.1l-.2.1h-.1v.1h-.2v.3h-.1"/><path id="Q" d="M104.2 237.4l-.2.4-.3.4-.2.1-.2.1-.3.2-.2.3-.2.5v.2l-.2.2-.2.3v.1l.2.3h.4v.4h.2v.4l.2-.1v.1l.3.4.2.3v.3l.3-.4v-.5l.1-.4.2-.4.3-.3.1-.1h1.6l.2.2.2.3.3.3v.2h.1l.2.2.3.1h.4l.2.2h.9l.1.1h.1l.1.2v.3l.3.2v.6l.2.2v.2l-.4.2-.3.3v.2h-.2l.2.4.2.1.2.3h.2l.1-.1.2-.1v-.1l.3-.1h.1l.1-.3h.2l.2-.2h.8v-.1h.7l.3.3.1.1.2.2.3.3.1.1h.7l.2.4.2.3.1.3h1l.3.3h.5l.3.2h1l.5-.3.3-.2h.4l.2-.3h.1l.7-.4v-.1l.3-.2v-.2l.1-.4v-.2l.5-.5.1-.3.4-.4h.2l.3-.3.3-.1.4-.1h1.1l.3.2h.8l.3.2.1.1.2.3v.6l.2.3v2.3l.3.2v.2l.3.7.3.6.1.2v.2l.1.2.1.2v.2l.2.2v.3l.3.3.1.3.1.1v.2l.1.1v.3h.4v.2l-.3.1v.2l-.3.3v.1l-.2.1v.1l-.2.1v.3l-.1.3-.2.3h-.2l-.1.2h-.2l-.2.1h-.4l-.1.3-.3.3v.1l-.2.2-.3.3-.3.1-.2.1-.1.2h-.1v.3l-.3.2h-.2v.3h-.1l-.2.2h-.2l-.1.2-.3.2v.9l-.1.3v.7l-.1.3v1.4l-.2.1v.1l-.2.2v.3h-.1v.2h-.2l-.1.1-.3.2v.4h-.1l-.4.3v.1h-.2v.2l-.1.2h-.1l-.1.3-.1.2v.3h.2v.3l.1.1v.1l.1.2v.3h.1v.2h.2v.6l.1.1.2.2.1.1v.2l.2.1v.1l.1.2v.1l.3.2v.3l-.3.2-.1.2-.1.2-.2.3-.3.3-.2.3-.3.1h-.1l-.1.2h-.3l-.4.2-.5.2h-.1l-.3.5-.2.3-.2.4-.1.1v1.1l.4.3.2.2.3.3v.2l-.3.1-.1.2-.2.1-.1.4h-.3l-.2.5-.5.3-.3.2-.2.2v.1l-.2.2v.5l-.1.2-.1.2-.2.2-.3.4-.2.2v.2l-.3.2-.1.1-.1.3h-.3l-.2.3h-.4l-.1.1v.9l.3.2v.2h.1l.1.1.1.2.2.2h.1v.2l.2.1h.1v.5l-.3.1v1.1l.2.3v.3l.2.2.1.3v.1l.2.3v.2l.2.3.2.2.1.2h.2l.2.2h.1l.2.2h.1v.2h.2-.3l-.1.1h-.2"/><path id="R" d="M104 155.5l.2.2h.1v.2l-.2.1-.1.1h-.1l-.2.3h.4l.2.3h.2l.2.2v.1h.2v.3h.1l.2.3h.3v.2l.1.1.2.1.2.2.3.3.4.3h.2l.1.2v.8l-.3.2v.1h-.2l-.1.3h-.2v.3l-.2.3v.1h-.5l-.3.2h-.6l-.2-.3v-.4l-.2-.1-.2-.4-.2-.4-.1-.2-.3-.2-.4-.2h-.6l-.2.3h-.2l-.3-.2-.1-.2-.2-.2v-.2l-.3-.2v-.2l-.1-.2-.2-.2-.2-.1-.2-.1h-.4l-.2.1-.2.1-.2.2h-.3l-.1-.2-.1-.2-.1-.3-.1-.2-.2-.1h-.1l-.2.2h-.6l-.2.2H97l-.2.3v.3h.3l.1.4.2.3.3.3v.6l-.2.2v.1l-.1.1-.1.2v.3l.2.1v.5l-.2.3v.2l-.3.2v.7l.3.2.2.3v.2H97l-.1.2h-.4l-.1.1H96v.1l-.4.1h-.2l-.1.3h-.1l-.2.2-.2.1v.1l-.2.2v1l-.1.1v.3l-.1.3v.2l-.3.2v.3h.1l.2.3.1.2.2.1.1.1.2.1.2.2h.2l.1.4.1.2h.5l.1.3h.1v1l-.3.3v.2l-.1.1-.1.3v.2l.2.4h.1l.1.1h.1v.3h.3v.2l.2.3v.5l.1.2.1.3v.5l.3.4v.3l.2.2v.2l.1.1v.1l.3.2h.1v.3h.3l.1.1v.7l.3.3v.2h-.4v.6l.2.2v.6h-.1l-.1.2-.3.4v.1h-.2l-.1.2h-.2l-.2.1-.3.1-.2.2-.2.1h-.2v.2h-.3l-.1.1h-.6l-.2-.2H95l-.2-.2h-.4v.2l-.2.2-.2.4-.3.2v.6h.3v.2l.2.1v.1l.1.2h.2l.1.1.3.1.1.2.2.2v1.3l-.2.3h-.1l-.1.2h-.2v.1l-.1.2-.1.4v.1l-.2.4v.2h.3v.3l-.3.2H94v.3h-.2l-.1.2h-.1l-.1.1H93v.1l-.4.2-.1.2-.1.2-.1.2v.4l-.3.1v.1l-.2.1-.2.2-.2.1h-1.1l-.3.2h-.6l-.4.2h-.2l-.2.3h-.2l-.1.3H88l-.3.2-.1.2h-.2l-.1.1-.5.3v-.4l-.3-.2v-.6h-.1v-.5l-.1-.1v-.2l-.2-.1v-.3H86l-.2-.1v-.1l-.2-.1-.1-.2-.2-.3-.1-.2h-.4v-.2h-.5v-.1H84l-.1-.1h-.2l-.1-.1h-.2l-.3-.2H82l-.1-.2h-1.1v.3h-.2v.8l-.2.1v.3h-.1v.4h.3v.8l-.4.2v.3l-.1.2-.1.2v.3h-.3v.2l-.1.2-.2.2-.2.1v.3h-.8l-.2.2-.2.4-.3.1h-.1v.1H77v-.3h-.1l-.3-.1h-.8v.2h-.3v.1h-.2v.1H75v.2h-.2v.2h-.3v.3l-.1.1-.1.3v.1h-.1v.3H73"/><path id="S" d="M73 193.3h-.3l-.1.2v.1l-.1.2v.2l-.2.1v.2l.3.3.2.1v1.1l-.2.1h-.1v.1h-.2v.3h-.1l-.2.3v.3l-.2.1v.1h-.1v.6h.3v.1h.2v.1h.4l.1.1h.3l.2.2h.1l.1.1h.7v.6l-.1-.1.2.2v.7H74v.2h-.2v.5l-.3.2-.3.3v.1H73v1h-.1v.2l-.2.2v.2h-.1v.2l-.1.1v.2l-.3.2v.4h-1l-.2.1v.2l-.2.1v.1h-.1v.2h-1v.2h-.2v.2l-.1.1v.1l-.1.3v.3l.3.2.1.1v.3l.2.1h.2v.1h2.2v.2h.3v-.3h.9l.3-.1h.4l.1-.2h.2l.2-.1h.3l.1.1h.5l.2-.1.1-.1h.2v-.3h.1l.2-.2h.3l.2-.2.5-.2v.2h.1l.1.2h.9l.1-.3h.4v-.3l.3.1.2.2h.5l.2-.3.1-.2.2.3.5.2.3.3.2.2.3.2h.2l.3.1.1.2.1.1h.1l.4.1h.4l.4-.2h.4l.4.4.4.1v.2l.2.1v.2l.3.2v.2l.2.4v.3l.2.2v.4l.3.1h.1v2.2l-.1.1-.3.2-.2.2-.1.2-.1.1v.2l-.2.3h.3l.2.4.2.2v.1l.4.2v.3l.1.2.1.1.1.2v.1l.3.1v.2l.2.1v.1l.2.1.2.2h.2v.1h.2v.5h.2v.1h.5v.1l.1.3h.2v1l.3.3.2.3v.2l.2.1.2.2.3.2h.1v.2l.2.1v.4l.1.2h.4l.2-.2h.1l.2-.3h1.1v-.1l.2-.2v-.1l.2-.3v-.8l.2-.4v-.3h.2v-.1l.3-.1.5-.3h.9v.3l.2.1v.8l.1.1v.2l.1.3v.3l.3.1v.1l.1.1v.1l.1.1.1.3h.1l.2.1h.2l.2.2h.4l.1.3h.3l.1.1.1.1v.3l-.3.2v.3l.2.1.3.2v.3l-.2.2v.8h-.2v.5h-.2l-.1.3-.3.1-.1.2v1l.1.2v.2l-.3.2-.2.4.3.1.2.2h.3v.9l.2.3.1.3.4.4.3.3.3.3h.4l.3.2h.1v.9l.3.4-.2.1-.1.2v.4l.3.2.2.2h.3l.3.3h.1v.1l.2.3v.2l.1.2v.1l.3.2v.4l.2.1.2.2v.1h.6v-.2l.1-.1v-.2l.1-.1.2-.3h.1v-.3l.3-.1v-.2l.1-.3h.1l.2.1.2.2.4.1.2.1.2.2.2.3h.2v.2l.2.1h.4v1l-.1.3v.1l-.3.3-.1.1v.3l-.2.2-.1.3v.2l-.3.2"/><path id="T" d="M72.2 196.3l-.2.3v.3l-.2.1v.1h-.1v.6h.3v.1h.2v.1h.4l.1.1h.3l.2.2h.1l.1.1h.7v.6l-.1-.1.2.2v.7H74v.2h-.2v.5l-.3.2-.3.3v.1H73v1h-.1v.2l-.2.2v.2h-.1v.2l-.1.1v.2l-.3.2v.4h-1l-.2.1v.2l-.2.1v.1h-.1v.2h-1v.2h-.2v.2l-.1.1v.1l-.1.3v.3l.3.2.1.1v.3l.2.1h.2v.1h2.2v.2h.3v-.3h.9l.3-.1h.4l.1-.2h.2l.2-.1h.3l.1.1h.5l.2-.1.1-.1h.2v-.3h.1l.2-.2h.3l.2-.2.5-.2v.2h.1l.1.2h.9l.1-.3h.4v-.3l.3.1.2.2h.5l.2-.3.1-.2.2.3.5.2.3.3.2.2.3.2h.2l.3.1.1.2.1.1h.1l.4.1h.4l.4-.2h.4l.4.4.4.1v.2l.2.1v.2l.3.2v.2l.2.4v.3l.2.2v.4l.3.1h.1v2.2l-.1.1-.3.2-.2.2-.1.2-.1.1v.2l-.2.3h.3l.2.4.2.2v.1l.4.2v.3l.1.2.1.1.1.2v.1l.3.1v.2l.2.1v.1l.2.1.2.2h.2v.1h.2v.5h.2v.1h.5v.1l.1.3h.2v1l.3.3.2.3v.2l.2.1.2.2.3.2h.1v.2l.2.1v.4l.1.2h.4l.2-.2h.1l.2-.3h1.1v-.1l.2-.2v-.1l.2-.3v-.8l.2-.4v-.3h.2v-.1l.3-.1.5-.3h.9v.3l.2.1v.8l.1.1v.2l.1.3v.3l.3.1v.1l.1.1v.1l.1.1.1.3h.1l.2.1h.2l.2.2h.4l.1.3h.3l.1.1.1.1v.3l-.3.2v.3l.2.1.3.2v.3l-.2.2v.8h-.2v.5h-.2l-.1.3-.3.1-.1.2v1l.1.2v.2l-.3.2-.2.4.3.1.2.2h.3v.9l.2.3.1.3.4.4.3.3.3.3h.4l.3.2h.1v.9l.3.4-.2.1-.1.2v.4l.3.2.2.2h.3l.3.3h.1v.1l.2.3v.2l.1.2v.1l.3.2v.4l.2.1.2.2v.1h.6v-.2l.1-.1v-.2l.1-.1.2-.3h.1v-.3l.3-.1v-.2l.1-.3h.1l.2.1.2.2.4.1.2.1.2.2.2.3h.2v.2l.2.1h.4v1l-.1.3v.1l-.3.3-.1.1v.3l-.2.2-.1.3v.2l-.3.2-.3.2v.1l-.4.2-.4.2-.2.2.3.2v.2l.1.2.2.2.4.2h.4l-.2.2"/></defs></svg>