<svg xmlns="http://www.w3.org/2000/svg" viewBox="0 0 497 279"  xmlns:v="https://vecta.io/nano"><path fill="#f2efe9" d="M0 0h497v279H0z"/><g fill="#aad3df" fill-rule="evenodd"><path d="M116.2 182.8v.4l.1.4.2.5.1.2.4.6.3.5.4.5.4.3.4.5.5.3h.5l.5.2.5.1h1.1l.3-.3h.7v.2-.1l-.1-.2v-.1l.6-.4.2-.2.1-.1.3-.3.3-.4.4-.5.3-.4.2-.3.3-.5.3-.5.2-.4.3-.5.2-.5.2-.7v-.3l.2-.2v-.7l-.2-.6V178h.3v-.5l.1-.1.1.1.3.2.8.3.1.2h.6l.1-.3.1-.4v-.4h-1.2v-.1l-.1-.1-.2-.2-.4-.2h-.3l-.3-.3h-.5l-.7.5h-.2l-.2-.2-.3-.5v-.3l.1-.3.2-.3v-.9l-.2-.2-.2-.4v-.2l-.1-.1-.3-.1v-.4l-.3-.1-.1-.1h-.9l-.2.3-.5.1v.5h-.3l-.5.5-.3.2-.4.5v.8l-.7 1-.3.7-.9.8-.6.7-.6.8-.4.4v.2l-.3.3-.2.8-.2.6v.6zm-28-28.2v.7l.1.4.3.7.4.6.2.5.2.5.3.3.3.2.8.8.2.2.4.5v.2h-.3l-.3.5v.3l.1.2h.5l.3-.2.1-.2v-.1h-.1v-.2l.6.3h.2l.1.2h.4l.6.2h.7l.6-.4.6-.3.7-.5.8-.7.5-.6.5-.7v-.3l.2-.7h.3l.1-.1h.2l.1-.2h.1l.2.2h.4l.4-.3v-.6h-.6v.3h-.2l-.2.2v.1l-.3.2h-.2l-.1.2h-.2v-1l-.5-.6-.1-.2-.3-.2h-.9l-.4-.8v-1.4l-.2-.6-.1-.2-.3-.4h-.1l-.4-.4h-.3l-.1-.2h-.1l-.2-.1H94l-.4-.1h-.2l-.4-.1h-.6l-.7.2-.7.3-.4.2-.8.8-1 .9-.5.7zm121.5 74.9v.3l.3.5.2.3.2.2.2.2h.9v-.2h.4l.5-.1h.3l.2.3.2.2h.3l.4-.2.1-.3.3-.3.3-.2.5-.2h.3v-.1l.3-.1.4-.4.2-.2.2-.2.1-.2h.2l.1-.1.2-.2v-.1h.2l.4-.3h.2v-.1h.2l.2-.1.1-.2h.1l.2-.2.5-.3h.1l.2-.2h.1v-.7l-.2-.3-.4-.4v-.4l.5-.4v-.4l-.4-.4v-.1h-.4l-.2-.3h-.1l-.2-.2h-.4l-1-.6-.4-.1-.7-.2-.3.2-.4-.1-.3-.1h-.1l-.5.1-.4-.2-.4-.2h-.1l-.7.3-.7.5-.3.7-.4.8-.2.7-.1.4-.2.7v.5l-.3.2-.2.5v.9l-.2.3zm-82-46v.7l.3.5v.3l.3.3.2.3.4.2.4.3.5.1.5.2.4.1.7.3.3.2.3.1v.2l.7.7v.2l.4.2.2.2h.3l.4.3h.8l.3-.2.4-.3.5-.5.3-.4.2-.3v-.4l-.2-.1-.1-.2-.2-.3v-.4l-.3-.3v-.7l-.3-.3v-.1l-.3-.2h-.6l-.3.2h-.2v-.1l-.1-.3-.2-.3h-.3v-.2l-.3-.1.2-.3v-.9l.2-.4v-.5l-.2-.3-.2-.3.2-.4.1-.5.2-.3.1-.3v-.4l-.1-.3-.2-.4-.2-.3-.2-.3-.3-.1v-.2l-.2-.2v-.1.1l.1.2v.1l-.3-.1v.3l-.3.2v.1l-1 .6-.3.4-.5.2v.1l-.2.2-1 1-.2.5-.3.3-.3.6-.2.3-.2.9zm-15.4-9v.6l.1.5.2.7.2.4.2.4.3.2.3.1h.4l1.2-.1.5-.1h.2l.8-.5.7-.3.9-.6.9-.3.1-.2.5-.2.2-.1.3-.3.2-.2v-.3l.3-.7v-.8l-.2-.4-.2-.6v-.2l-.1-.3-.3-.2-.3-.3h-.2l-.4-.2h-.6l-.5.2-.7.4h-.2l-.4.1h-.8l-.2-.2-.1-.1-.1-.1h-.2v-.1l-.3-.1h-.6l-.2.4-.8.5-.4.8-.6 1v.5zM83 146.7v1.1l.4.5.4.4 1 .3h.3l.3.5.3.2.6.1h.8l.7.2h.4l.4.1h.5l1 .1.6-.2.5-1 .3-.7.1-.7v-.5l-.4-.1v-.2l-.7-.5-.5-.3-.5-.5-.3-.2v-.1l-.4-.2-.1-.1-.2-.3h-.2v-.3H88l-.4-.1-.5-.3H87l-.3-.3h-1.4l-.3-.2h-.2l-.5.3-.3.3-.6.7-.1.3-.3 1zm154.6 69.2v.1l.1.1h.1l.3.2h.3l.8.5h.1l.5.2.4.3.6.7.6.2h.2v.2h.3v.2h.4l.3.1h.2l.2.1h.2l.6.3h.2l.3.2.4-.3.1-.2.4-.7.1-.3v-.6l-.3-.2-.4-.2-.6-.4-.3-.2h-.3l-.4-.1v-.3l-.1-.3-.4-.2h-.5v-.3h-.2l-.4-.2-.5-.3-.4-.3h-.3l-.4-.2h-.2l-.2.2h-.8v-.1h-.4l-.1.2-.1.3-.4 1zm-131.2-40.1v.4l.3.3h.1l.1.2.3.2.6.1.3.4.2.2h.3l.1.2h.1l.6.2h.6-.2v.2h.2l.2-.2v-.2h.1l.1-.3.1-.2-.2.2.4-.5.2-.5v-1l-.1-.4-.2-.7-.2-.5-.2-.3-.3-.3h-.9l-.4.1-.6.3-.5.3-.6.7-.4.6zm-9.1-14.1v1.3l.2.5.3.8.2.2.3.2.3.1h.3l.3-.1.3-.2.3-.2.2-.3v-1l.6-.5v-.2h.2l.2-.5.3-.5v-.7l-.1-.4-.3-.3h-.9l-1 .7-1.2.5-.4.3zm5-2.9l.2.2.3.4.2.2.4.2.5.2h.5l.2.3h.7l.2-.3v.3l-.2.2v.2l.3.3.4.2h.5l.4-.5.4-.5.1-.2v-.4l-.2-.2h-.2l-.3-.3h-.2l-.2-.3-.3-.2-.3-.2h-.2l-.1-.4h-.2l-.2-.5v-.5l-.5-.5v-.1h-.2l-.3.1-.7.4-.7.8-.2.5v.3zm-35.3-13l.3.2.1.2h.2l.2-.1.2-.1h.3v.7l-.3.2v.3l.4.2v.1h.1l.1-.1v-.6l-.3-.2.3-.3.1-.1.3.1 1 .3h.4l.8-.1.4-.5.4-.6.1-.7v-1l-.1-.3-.3-.4h-.8l-.7.3-.3.2-.6.5-.5.4-.5.4H68l-.5.2-.4.5zm33.3-4v.2l.1.1v.1l.3.1v.1h.3v.2h.3l.2.1h.3v-.3h.2v-.4h.4l.1.3h.1l.2.1.2.2.3.1h.1l.3.1.1.2h.2l.1.2h.4l.2.3h.3v.1h.3v.1h.3v-.3h.1l.1-.3v-.6l-.4-.2-.2-.2v-.1h-.2l-.2-.1h-.2l-.2-.3h-.4v-.4h-.2v-.2l-.1-.2h-.1l-.1-.1-.3-.2v-.1h-.7l-.1-.1h-.1v-.1h-.3l-.1-.1h-.2v-.3l-.2-.2h-.1v-.1h-.2l-.2.3h-.1l-.2.2-.2.2v.2l-.2.3v.3l.4.2v.2l-.3.1h-.2v.2zm-.7 1.5l.3.2.3.1.2.1.2.1h.9l.2.2h.1l.3.4.2.1h.2v.3h.2-.5l-.1.2.2.3h.1l.2.2.4.1h.3l.1.1h.1l.2.1.2.2.4.3h.2l.2.2h.3l.2.4.4.1v.3l-.1.1-.1.2-.1.1-.1.3v.3l-.2.3v.5l.4.3.1.2.2.4.3.2.1.2h.2l.2.2h.3l.2.1.2.1.3.2h1.2l.1-.2h1.2v-.1h.7v-.2l.3-.3v-.2h-.7l-.1.2-.2.1v.1l-.3.1h-.9l-.2.3h-.6l-.2-.3-.2-.1h-.2l-.2-.2-.2-.2h-.2v-.2l-.3-.2-.1-.2-.2-.4-.1-.2-.1-.3v-1.2l.2-.1v-.3l-.4-.1v-.2h-.1l-.2-.5-.2-.2-.1-.2-.2-.2h-.2l-.2-.2h-.6l-.3-.1h-.1l-.2-.3-.2-.1-.1-.1-.2-.2-.1-.1-.2-.4h-.1l-.3-.2h-.2l-.2-.1-.3-.3-.3-.1-.3-.1-.2-.2h-.7l-.1.2h-.2zm.3 0l.1-.2h.7l.2.2.3.1-.2.3h-.4l-.5-.3-.1-.1zm4.5 2.2h.4l.1.2.2.3v.2h-.4l-.2-.4v-.2zm1.9 4.1v.3h.3l.1.4v.1h-.3v-.3l-.2-.1zm3.7 15v.4l.3.2.2.3h.1l.4.2h.3l.6-.5.3-.1.8-.2.2-.2.3-.3v-1.2l.2-.6v-.4l-.5-.2-.1-.1h-.3l-.4.1-.4.3-.6.6v.3h-.3v.1l-.2.1-.7.6-.2.3zm15.3 27.4l.1.3.1.2.2.2.2.2.2.1.3.2h.7l.4-.2.3-.2.2-.3.3-.7v-1.4l-.1-.3-.3-.4-.2-.1h-.4l-.5.2-.4.3-.4.4-.4.6-.2.4v.2zm-1.9-23.8v.1l.2.2h.1l.3.3h.6l.3.2v.3l.3 1v.3l.2.2h.9l.3-.5.2-.2.2-.5v-.6h-.2v-.4l-.3-.1-.2-.2v-.5l-.3-.2h-.2l-.5-.2-.3-.2-.2-.2h-.3v-.2h-.5v.2l-.2.2-.3.5-.1.2zm-43.6-22.4l.3.5.5.3.2.1h.5l.6-.2.4-.3.2-.2.1-.5.2-.6v-.3l-.2-.6-.6-.4h-.3l-.2.1-.5.3h-.2l-.8.9v.5zm68.6 48v.2h.1l.2.2.3.2h.5l.2-.1v-.3l.2-.2.1-.1.2-.2.2-.2v-.3l.3-.3v-.4l.2-.3v-.4l-.3-.6v-.3l-.2-.2-.1-.2h-.5l-.4.4-.2.1-.4.9v.3l-.2.6-.1.6v.5zm-14.2-17.5v.2l.1.2h.2l-.1.1-.1.2v.1h.3v-.3h.2v-.1h.2v-.1.1l.1.1h.1v-.1h-.1v-.3h.2v.4h.2l.3.4h.4l-.3-.2h.4l.1-.5h.2l.4-.5v-.2l-.2-.2v-.2l.2-.1h.4l.1-.3v-.2h.3v-.2l-.4-.2v-.1l-.1-.5-.4-.4v-.1h-.6l-.2.3-.1.2-.3.3-.2 1.2v.7h.2l.3.2v.1l-.3.3v-.2l-.2-.1h-.1v-.1l-.1-.2h-.3l.2-.3-.2-.2h-.1l-.2.2v.3h-.3v.1zM77 149v.3l.3.3.4.1h1.6v.3h.9l.1-.5v-.1l.2-.1v-.2h.2-.2v-.7H80v-.1l-.3-.1-.1-.2H79v-.2h-.3v-.1h-.3v-.1h-.8l-.1.4-.5.4v.3zm61.6 42.7v.1l.4.7v.2l-.2.7v.6h.5v.4l.3.1h.2l.2-.3.1-.1v-.5h-.1l-.1-.3.3-.1h.4l.2-.1.2-.2v-.1l-.1-.4-.2-.4v-.3l-.2-.1v-.2l-.4-.4-.1-.2-.2-.1h-.9l-.1.3v.3zm-7.5 1.6v.2h.2v.3h.4v.2h.2l.1.2.1.1h.4l.1-.5.4-.3v-.2.3l.3.2.1.2.3.2.3-.2.3-.2.2-.3.2-.3v-.6l-.2-.2-.1-.2-.2-.1h-.7v-.1h-.4v.2l-.2.1v.4l.3.1v.2h-.4v-.6h-.3l-.2.2-.1.1v.3l-.2.3h-.2v-.6h.2v-.7l-.1-.3h-.4v.3h-.2l-.1.3v.9zm6.7-6.7v.2h.2l.2.2h.6l.4-.1.2-.3.2-.3.2-.6.3-.4v-.5l.3-.2v-1.3l-.4-.3h-.6l-.2.2-.2.3-.2.5v.6l-.2.4-.3.6-.3.6v.3zm-5.8-17l.1.4.4.9.5.3.3.2h.4l.2-.3.3-.3.2-.4v-.6h-.2l-.2-.4v-1l-.2-.2h-.7l-.1.4-.3-.2v.1l-.2.2-.4.6zm-24.3-11.8v.3l.3.3.5.6.5.2.4.3h.5l.4-.5.2-.3v-.7l-.3-.4-.5-.4-.5-.4-.2-.1h-.5l-.3.2-.2.4-.3.3zm21.5 32.8l.1.2v.2l.3.2.2.3h.8v.2h.4v-.3l.2-.1.2-.2.2-.3.1-.4v-1l-.2-.4h-.1v-.3h-.6l-.5.2-.3.3-.4.4-.2.4-.2.4zm101.1 21.3v.1l.3.3.6.1h.3l.2.2h.5l.4.2h1v-1.2l-.5-.4-.2-.3-.6-.1-.2-.1h-.7v-.2h-.4l-.3.5zM113.8 168v.5l.2.1v.2h.4l.1.2h.7l.4-.5h.1l.2-.2v-.3l.3-.4v-.3l-.2-.3-.2-.3-.3-.2-.2-.1h-.4l-.3.2-.2.2-.2.2-.3.4-.1.3zm-7-4v.3l.2.4.2.4.3.3.2.1.1.1h.4l.3-.4.3-.1.1-.3v-1.1l-.4-.4v-.3h-.1v-.1h-.1l-.4.1-.3.2-.4.2-.3.3v.1zM6.6 135h.3l.3-.4.4-.2.6-.7h.2l.4-.6.2-.3.4-.3.2-.7v-.5l.4-.6.1-.5v-1h.2l-.5.4-.1.2v.4l-.5.6-.5 1-.8 1.2-.9 1.3-.3.4zM129 173.7v.3l.2.1.2.3h.2l.2.2h.2v-.3h.3v-.1l.3-.5.1-.2v-.1l.2-.3h.1l.1-.7v-.1l-.1-.1-.4-.3h-.5l-.3.1-.3.3-.2.1-.2.6zm-59.7-25.2l.3.3v.2h.2v-.1.1l.2.1.2.3v.1h.8-.1l-.2.3v.2h.1v.2h.5v-.4l.3-.2v-.1l-.3-.1H71v-.1l.3-.3.1-.4v-.4l-.1-.5-.3-.3v-.1h-.3l-.5.2-.2.2-.4.2zm78.3 48.5v.6l.3.2h.1v.2h.6v-.5h.2v.2h.5v-.1h.1l.2-.4.3-.2v-.5h.1v-.5l-.3-.1h-.3l-.1-.2h-.3l-.2.2h-.3v.1l-.3.2-.2.2-.3.3zm-6.5-4l.1.2.2.2v.1h.4v-.1h.2l.2.2v.2l.4.2.4.2v.5l.3.1h.1l.1.2h.1l.2-.2v-.3l.1-.5-.2-.2.1-.2v-.4l-.4-.5-.1-.3h-.1v-.2h-.7v.6l-.1.2v.1h-.1l-.3.1-.3-.2h-.2v-.2h-.4zm20.1 11.9v.3l.2.2v.1h.6l.2.2h.6v.3h.9l.1-.2v-.3l-.2-.2h-.1v-.1h-.5v.4-.4l-.1-.2v-.3h.1v-.2h.2v-.4h-.4v.3l-.2-.2h-.4l-.2.1h-.6l-.1.1v.2l-.2.3zm-53.3-35.5v.2l.2.2.2.1.3.1h.4l.3-.3.1-.2.2-.3v-.9l-.1-.1-.3-.2h-.6l-.4.4-.2.3-.1.5zm-35.3-24l.1.3.1.1h.2v.2l.1.1h.6l.3-.1.2-.3.2-.4v-.9h-.2l-.1-.1-.1-.1h-.4l-.3.2-.2.2-.3.3-.2.3zm12.9 16.5l.2.1v.2l.6.4.4.4h.4l.2-.1v-1.2l-.1-.2h-.1l-.1-.3h-.2l-.2-.2h-.4l-.5.5-.2.3zm108.7 61.7l.3.5v.2l.3.3h.2l.4.2.7.3.3.4h.6v-.8h-.3l-.7-.4-.5-.3v-.1l-.2-.2h-.1l-.3-.4h-.4l-.2.3zm-63.4-62v.3l.1.1h.2l.1.5h.2l.6.2.1.1h.3l.1-.3.2-.2v-.9l-.2-.1h-.1l-.2.2-.3-.1-.2-.4h-.4l-.3.2zm84.5 60.4l.1.1.2.1.4.1.5.1h.2l.3-.2V221h-.1v-.6h-.7l-.2.6v.2l-.3.1v.2l-.2.1v.2l-.1.2zm-103.7-52.8v.3h.3l.1.3h.6l.2-.3.2-.1v-.1l.3-.3v-.3h-.3v-.4h-.2v-.3h-.2l-.5-.3h-.2v.1l-.1.2v.2h.2l-.3.5v.1zm-17.2-.4v.2l.6.3h-.4l.2.2.9.3.3.6h.4v-1.1H96v-.7l-.2-.1-.2-.1-.2-.1h-.1l-.9.3zM80 152.5v.7h.3v.2l.4.1v.2h.3l.4-.3.1-.3v-.7h-.2l-.1-.1v-.1l-.2-.2h-.3v-.2h-.3v-.1H80v.6zm46.3 19.9v.3l.2.3.2.2h.2l.3-.1.2-.1.2-.3.2-.7v-.5l-.4-.2h-.4l-.4.6-.2.3zm27.3 23.8l.3.3h.1l.5.3h.3v-.6h.6l.1-.2v.2-1.1h-.2v-.2l-.1-.1h-.3l-.2.2v.2l-.2.2v.9h-.1v-.7l-.3-.1h-.1l-.2.1-.2.4zm-78.3-49.6v.4h.3v.1h.4v-.1h.2v-.3h.1v-.2h.4v-.1l.3-.2v-.6h.2v-.5h-.9v.2h-.1l-.2.4-.3.3-.3.3h-.1v.3h-.1zm75.4 48.1v.1l.3.2.2.2h.3v-.2h.2v-.1l.1-.1v-.2h.2v-.5h-.2l-.1-.3h.8v-.2h.1v-.3h-.3l-.1-.3h-.7v.3h-.1v.3h-.2l-.2.1-.2.4v.4zM95 166.1v.1l.2.1v.2h.3v.2h.5l.3-.1v-.2h.1v-.1h.1v-.1l.2-.4v-.5h-.2v-.1l-.2-.2H96l-.4.2-.2.2-.2.4-.2.2zm5.7 4.4h.1l.3.3h.5l.3-.2h.4l.1-.3.1-.3v-.4l-.2-.3v.1h-.6l-.1.1-.6.3-.1.2zM72.3 152v.1h1.3l.2-.3.1-.3v-.9h-.7l-.2.4-.4.2-.2.4v.4zm60.7 13.7v.3l.3.5.1.2h.8v-.7l-.2-.3v-.4h-.2v-.3h-.1v-.1h-.1v-.1l-.1-.1v-.2h-.4v.5h.4l-.4.2zm-73.6-37v.6h.3v.2h-.2v.2l.4.1h.8l.1-.3.1-.1.1-.4v-.3l-.3-.1h-1.1zm38.8 24.9l.1.4h.2l.1.2h.6l.3-.2.1-.3v-.8l-.4-.1h-.1l-.5.2-.3.3zm54.3 47l.1.2.1.2h.3v.2h.2v-.2h.2v.2h.1v-.6h.3v-.3h.2v-.7h-.4l-.2-.2h-.4l-.3.4v.3h.3v.3h-.4zm2.8-.3l.2.3.4.3h.2-.1l.2.1h.3l.3.1.1-.1v-.3l-.2-.3v-.8h-.3v-.1h-.4l-.1.3h-.1l-.1.2h-.2zm-7.9-1.1v.1h.1v.2h.4l.1.1v.2l-.2.2-.1.2v.3h.3v.3h.1l.1.1v.2h.2l.2-.3h.1v-.3l-.1-.1v-.8l-.2-.3v-.3l-.3-.2h-.1v.2h-.6zm-41.9-44.5v.3l.2.1.1.2.3.1h.2l.3-.2.2-.2v-1h-.6l-.4.2-.2.3zm39.7 31.2v.1l.6.5.2.1.4-.3v-.3h-.2l.1-.8-.1-.1-.3-.2-.3.1-.3.3-.1.2zm.4 7.1v.2h.4v.2h.2l.1-.2h.4v-.2.2h.3v-.5h-.4l.2-.3v-.1l-.2-.3h-.2v-.4h-.4l-.2.7-.1.1zm-91.1-63.2v.2h.2v.2h.3v.4h.4v.1h.1l.3-.2v-.1h.2v-.6h-.1v-.5h-.3v-.1h-.5l-.1.3h-.3v.1l-.1.1zm47.5 25.9v.3l.2.1h.1l.2.3h.3l.2-.4h.2l.1-.2.2-.3v-.3l-.3-.2h-.9l-.1.3-.2.1zm57 46.8l.2.2h.2v-.2h.1v.3h.1v.4h.2l.1.2h.2v.1h.1l.5.2h.3l.2-.2v-.8h-.5l-.1.3v.1h-.3v-.3h-.2v-.4H159zm-61-53.1l.4.1v.3H98l.3.3v.6l.3.3h.8v-.2l.1-.2-.2-.3v-.3l-.3-.1v-.3h-.2l-.4-.2zM79.6 141l.1.3.3.2h.7v-.2l.3-.1v-.6l-.2-.2-.2-.2h-.2l-.6.2-.1.4zm137.6 78.8l.1.2.2.1.2.1h.3l.1-.2.3-.2.2-.2v-.4l-.2-.2h-.2l-.2-.2h-.2l-.4.4zM76.3 152.7v.3h.1v.3h.5v.4h.3l.2-.3.2-.2.2-.2v-.3l-.2-.1h-.4v-.2l-.2-.2h-.3v.1h-.4.1v.2h-.2v.2zm39.3 12.4v.3l.4.2h.2l.2-.1.2-.2.2-.3v-.5l-.3-.2h-.5l-.2.1-.2.3v.2zm30.8 24.4l.1.3.3.1h.2l.3-.1v-.3l.3-.2v-.5l-.2-.2v-.3h-.6l-.1.5-.2.2v.3zm-62.8-34.7l.1.2.3.2h.5l.3-.3v-.8l-.1-.2h-.4l-.1.1-.3.3-.1.1-.1.3zm79.5 51.5l.1.2v.5h.6v-.1h.2v.1h.1l.2.3h.5l.2-.3v-.2l-.8-.3v.1h-.2v-.2l-.2-.1h-.1v-.1l-.3-.2-.2.2h-.2zm-35.5-12.6l.2.1v.3h.1v.5h.5v.2h.4v-.3l.2-.1h.1v-.1h-.3l-.1-.1h-.2v-.2h.9v-.2h-.8l-.2-.1-.4-.1h-.3zm-52.1-43v.1l.3.2v.5-.5h.7v-.3h.1v-.2h.1v-.4l.1-.3v-.2h.2-.7v.2l-.1.2h-.1l-.1.2-.4.1v.4zm66.8 47.3v.2h.5l.2.3h.9v-.4l.1-.1v-.3h-.8v-.2h-.7l-.1.2v.3zm-49.4-32.7h.4l.2.3.2.1.1.1.2.2v-.5l.3-.5-.4-.5.1-.1h-.7l-.3.3v.6h-.2zm21.1-5.6v.2l.2.1h.2v.2l.1.1h.1v.1h.1v-.3h.3l.1-.1v-.4h.3v-.4H114zm-48.3-15v.1h.5v-.3h.6l.2-.3v-.6h-.5v.2h-.1v-.3h-.1l-.2.2v.3H66v.5h-.3zm13.8-1.1l.1.2.2.1h.5l.2-.3.3-.5-.3-.3h-.1l-.7.2-.2.4zM-67.6 558h279V279.8l-.9-.9H-67.7zm0-558H48.7l.4-1 .5-.3-.3.3v.3l.8-.3-.1-.6.5-.5-.2-.7-.5 1.6.1-1.3-.7-1.5.4.5-.1-1 .8-.9-.8-.6 2.3-.5.5-.5-.7-.3.8-.8 1.2 1 .2-.5-.3-.4.9.4 1.3-.4.6-1-.3-.2h.5l.3.7.2-.9-.9-.6.1-.4h-1l1-.3.2-1-.4.6-.3-.6v.7l-.7.3v-.3l.5-.5-1 .2-.4-.7.1-.7.3.2.2-.9h.7l-.1-.4-.5-.2-.2.5-.4-1.3h-1l.8-.4v-.9l-.7-.7.7-.3v-.6h-.6l-.4 1.4-.5.3 1-2.7.5.1.7-1.3 2.6-.6.3.5h-1.4l2.3 1.1 1.5-.9-.6.6.3.4.6-.3v-.6l.8-.3h-.4l.8-.3-.5-.2.3-.3 1.1.8-.6 1.7.8-.8-.1-1.4-.6-.7-1-.2-1 1h-.8l-.1.4-.5-.6-.5-1.7-1-.5.4.6H57l-.7-2.1.2-.4.2.9.1-1-.3-.4-.3.2-.4-1.8-1.1-1.8.7.9.3-.6-.9-.6 1.6.2.4-.6 1.2-.1-.2-1-.6.3-.5-.6 3.3-1.2.8.9-.8 1h.5l.5-.6.6.6h1l.8 1.2h.6l-.7-.6 1-.7-.9.3-.7-.7h-1l-.4-.3h1.3l.2.6.2-.8-.3-.4 1.4.4-1.4-1.4.3-.2 1.6 1.5-1-1.9.7.2.7-.3.9.7-.7-1.3.1.6-1.3-.6h1.2l-.3-.4 1.3.3-.6-.7-1.2-.4h.7v-.5l.9 1 .3-.4-.5-.3.5.1-.2-.4h.5l.6 1.4h1l-.7-.5-.5-1.4 1 .5.3.4v-.4l-.8-.6.7-.4-.5-.8 1.1.5 1-.5-3.1-.5 1.7.2-.5-.5 3.1-.2-1.7-1.5 1.5 1-1-1.3h.6l1.8 2.3-.5-.8 1-.4-1.3-.2-.7-.9-.9-.6.2-.2h.5l.2-.3v.8l.4-.8.6 1.3v-.6h.3l-.5-.7.4-.7.6.6 1.2-1.8-1.1-.3-.4.3-.1-.3.5-.2-.2-.3h.5l-.4-.5.7-.2-.2.5.7.6.4-.3-.1-.6-.7.1.4-1.7.2-.1.7.3.9-.6.5.3 1.5-.7-.2-1-.7-.1-.8.4-.5.9V-48l.7.3 1.6-1 .4.3-.3.1.2.5.7-.4.2 1h.8l.2-.8-.5-.3.1-.7H79l-.5.6h-.3l.6-1.1-.6-.2 1.8-.5v-1.4l.6-.1.3-.9.3.2-.2.4.9.1.6-.6.7-.1.1-.5-.5-.7-.6.5-.4-.5-.5 1 .5-1.2 1.5-.1-.5-.2-.2-.6.3-.3.1.8.5-1-.3-.1.5-.2.4 1 1-.8-.3-1h-.6l-.2.5v-1l.6.4.7-.8.7-.1v.8l.3-.3.7.5-.6-.3-.4.4 1.1 1 .6-.6v-1l1.8-.3v.5h-1v.4h.7l.3-.2.5.9h-.9v1l1.2-.3.5-1.8 1-.3.9-2.1h.2l-.1.2.7.2 1.9 2.8-.5.8.3 1.5-.4.2v.5l.6-.7L95-55l.5-.5 1.5 1.8-1.6-3.2 1.6-.7 1 .1 1-1h-.4l.4-.5.7-.2-.2-1 .3-.1h-.3l-.1 1.1-.8.2-.6 1.2-3 .2-.3-.6.5-1.1.2-1-.8 1.7-.6-1.1h-1.1l-.9-1.4v1l-1.2-2.4-1.6-.5v.8l-1-4.2.6-2.1 1.1-.5-1 1 1.1-.5.3-1.5h.5l.4-.4.1-1.3 1 .3 1.1 1.2.3-.1-.4-.2.7-.6-1.1.3.3-.4-.8-.4.1-.3H92l.2-.5-.6.4-.6-.3.5-1.3-2-.5.3.1H88l-2.3 2.2.3.3.4-.2.5.4H86l-3.6-2.4-.6.4-.7-1.9-1-.3.4-.8-.7-1.7.1 1.2-.5.5.6 1.3h.5-1l-.8-2.9-1.1-1.8-.3-1.8.5-2 .7.9 1.5 1.4.7 1.8.7-.7-.7-1.4 1.9-2.5.4-1.4.3.3 1.3-.6H86l1.8 1.3L86-86l.7-1.7-2.1.5v-2.1l-1-.2-.2.5v-1l-1.3-1.4-.4.1-.2-2-.8-.3-.1 1.1-.3-.1.3-1.1.6-1 1.8-1 .4.6 2.6 1.5-.3 1.3.3 1h2l2.5-2.2 1.3-2.5v-1.9l-.3-1.4-.3 1.3-1-4.6.1-.4 1.7-.9 1.6.3.8-.4-.4-.4 1.1-.2.2.3-.1-.4.6-.3h.8v.5l.2-.8 1.4.3-.5-.4.3-.3h-.6l-1 .2-1.5-.2-.6.4-.8-.9-1-.2-1.6.6h-.8l-.1-.6-2.1.2-.4.4v.8l1.8 1.9v.8l1 .4.1.6-.8-.4-1.9-2.4-2.1-3.7.6-1.7h.6l.7 1.2h.8l.5-.5 1-.4-.4-.9.7-.7 1.4.3-.5-1.5.4-.4h-.9l-1.9 2.9.4-.8-1.1.5 2.4-2.3 1.2-4.6-.2-3.3-1.6-4.4 1.7 3.6.4.1.4-1.2h.7v-.7l-1.4-.4-.2-.6-.3.2-.1-.8-.7-.5.8-1.1-1.4-.3-.6-1.5h-1.2l.6 1H88l-1.2-2.4h.5l-.7-.4-.4-1-.2-3-1.5-4.4v-3.8l.4-.6-.2 1.7.2-.5 1.7.4 1.3-.7.6.4-.1-.7.6-.1.4-.6 1 .5.2.6.6-.1-.4-1-.8-.7-1.9-.2v-.8h-.6v.8H86v-.8l1.2.2v-1h-.7L86-146l-.4.7-.3-1.1h-.7l-.3-.4.7 2.5-.3 1.8-.4-3.3-1.8-3.5-2.4-2.2-2.2-.5-1.7-2.4H75l.6 1.1-.6-.3-.4-3.1.3-2 1.2-2.1 1.9-1.7 1.9-1.1 2.7-.5 1.2.2 1.2.6-.2.4-1-.8.4 1.1-.9 1.2-.1 4 1.8.4 1.3-1 .8.5 1-.3-.9-1.5-1.9-1.2 2-.2 2.2 1.2 2.5.3 1 1.2.9.3 1.2-1 .2 1.1.2-.7-.2-.7h-.2l.4-1.3 4-3.2 2.1-.5h1.4l.6.2h-.6l.2 1.3-.9.7 1.5.3v-.5l1.5-1 1.2-1.6 3-1.8 2.4-.5-.1.3 1 .2.8 3.3-.4-.2v.5l-.6.5.9 1-.4-.8 1.3.1-.5-.4.2-.8.5-.3 1-.2.3.4v-.7h-.5l2.7-.8 6.9-4.2 1.1.4 1.6-.3v-.1l.8-1v-.8l.9-1.1v-.7l.3-.2-.2.8 2.7-.5.6 1.5.6.3.6-.4-.3-.5.3-.5-.6.1.8-1.2-.7.6-.7-.6 1.2-1.3-.2-.5-.4.8-.4-.3-.2-2.3-1 3 .2-1.2.8-2.3.4-.3 1.4.7 2.3-.2.4.8 1.7.3-.5-.2.6-.4.8 1.6 1.6.5.1-.3-2.6-2.2 2.1.9-.4-1 1.3.1.8-.5-.8-.5-.4-.8 1-.4-.5-.6.7.4-.2-.8 1 .2 1-.4v.4l.7-.4-.7-1-1.6-.6-1.2-2.2-1.7-.6-.4.7-.6-2-1.8-2.2-1-.5.3-.8-.4.7-.7-.4.3-.3-.2-.6-.4.2.2-1 1.4-2v-1.7h.5l-.4.4 1.1-.2.4-.8.3.2 1.5-.6.2.4 1.2-.2.4.7h.7l.8-.9h.8l.6.3v1.2l2.1.2 1.2.6 1.3-.3.2-.5-.7.4v-.2l.6-.6-.6.5-2.5-.6-.3.3-2-1.6h-2.6l-.4-.4H140v-1.3l1.3-.7.6-1.3-.2-.3-.7 1.2-.8.3-1.3 1.5-.5.6.2.6h-.3l-1.1-1.6h.5l.3-1h.5l-.2-2 .5-.6-.2-.7.4-.8-.1-.8-.9 1.7.4.6-.9.5.1 1.6-1 .4-.6 1.2-.7.6 1 .1-3 .1v.4l-.7-3.5.2.1v-1l.3-.2-.1-.7.3.2.3-1.3-1 1-1.3.2v-.7l-1.1.3 1.2.8-2.9-1-1.5-1.1-1.5-1.4-3.5-6 .2-.6.5 1 .8-1 .5-.7v-1.3l1.6-2.1.4-.2.7 1.1h.6l-.9-.5-.6-1.7-.7 1.6-1.3.2-1.5 1.1.4.5h-6l.3-1.1-.7-.3-.3-2.1v-1.7l.8-.8-1-2-.3.9.8.6v.8l-.3.2-.4 1.6h-.2l.4.6-.1 1.3h.3l-.6 3 .4 1h.5l-.8.9-2.5.8 1 .3-.3.2 1.9 1.3 1.4.2v.7l-1.8-1-3.5-2.4-6-7.3-1.9-6.3-2.9-6.6-.2-2.2v-3l1.3-3.3 1.7-1.5h.5l-1 .9 1.1.4.3.9h.6l1.8-.7.9-3.1 4.3.4-1 1-.1.9.4 2 1.5-.2v1l-1 .5v.7l1.4.8.8-.1v-.5l-.5-2.4-.9-1h-.4l.1-.9.5.9.3-.3 1 .7.1 1.5 2.6-.4.2-.6 1.2.3-.4-.3.4-1 1.2-.5-2 .3-.6-1.4 2.2-.2.8-.4-1.6.5-1.8-.5-1.5.6v.3h-.4v-.7l-1 .3-.9-.7-.5-2.3.8-1.7.2-3-.3-.8-2.8 1.4-.7-.3.1 2.7-1.4 3-1.9 1.5-2 .5 2.3-1 2-2.2.7-2.9v-5.3l.6-3.9 1.4-2.2.8-.5 2.9-.8 2.5-1.3 1-.2-.2.5 1.7.6-.6-.2-.3.6-1.2.2-1.8-.5-2.9 1.5.3-.4-1.8.4 1.8.8-1.1 1.8-.1 1.1.3.9.6.3.1 1.6.7.2.2.7 1.3-.5.6-1.3-.5-1.6-1.4-.3 1-1.7-.9-1 .3-.7 2.4-.5 1.2.5.8-1 .8-.2v-.6l.8-.3v1.1l.2.8-.2-.1-.3.4h.4v.4h.9l.4-.7h.6l.5-1.1.5.1-.4-.7.7-.5.1-1.2.7 1.3 1.3-.1v-.4l-.8.3-.7-.4v-.2l.3.2v-.3l1.2-.5.5 1.3.9.3.1-.2h-.5l.2-.8-.8-.4v-.4h.6v-.3l-.3.2h-.9v-.1h.5v-.3l.4-.1-1-2.4-5-1.6.5-.7-.2-.3v-1h.6l.7.7h.3l-1.2-1.7-1.2 1.9 1.3-3.3 1.2-1.6.6-.3-.9 1h.4l-.3.5 1-.5.8.3-.3-.8-.4.4-.3-.6 1-.3 1.1.6-.2-.5h1.4l-.3.5.4.7h.8l-.4-1.7 1.6-.4 1.1.7h.9l-1-.6-.4-.6-3.9.4-.3-.8-1.5 1.2.7-1 1.4-1 1.8-2.2.9-2h-196zm117-10l.2 1.5-1 .7v1.6l-2.1.7-1-.6-.5 1.7.3-4.4 1-1.2.7-.8 2-.7 1-1.1.6-3.6.1 1.5.5.9-.3.8-1.6 1.4-2.5 1.3 2.2-.2zm30.9-45.2l-.9 2.2-.8.4 1.6-2.7L82-57l1-.4v.2l-1 .3zm-7.1-16.9l-1 1.4h-.4l.8 1.7 2.3 1.3-2.3-1-.8-1.3-.4-1.4 1.1-2.3 1-.6 1.3.6-.3.4-1-.7-.5.2.5 1zm-2 20.5l2.3 1.8-.8 1-1.4.6v.3l.9.6-3.8-2.3-.4-.6-.2-1.5v2.9h-.4v-2.5l.8-3.7.8-1.4.4-.1.6 3.1zm48.7-213.8l.3-1.6-.4 6-.4.3zm19.9 89.3l.5.3.3.6h-.7zM82.6-87.7l.2 1.3-1.4.7-.3-.8-1.7-1.1h1.8l1.2-.7zM80-89.8l-.2 1-.8-.2-.6 1.2-1.4-1.6 1-.6-.3-.5 1.7.1zm-3-1.7v.2l.3.3h-.5l-.2 1.2-.5.5 2.3 3-.8-.6-1.2-1.7-1-2L76-93zm-10.3-55.7l-.4.5 1.7.3-.3.4-1.5-.6-.4-.7.1-.7.8-.5h1l1.3 1.2-1.6-.4.2-.3-.6-.3-.6.3.8.4zm.1 0"/><path d="M-67.6 279h278l-1.9-1.4-1-.2.3-.3-.2-.6-.3.5v-.6h-.8l.5.9-1.3-1.1-1.7-9.9-3.3-10.1-3.7-7.4-4.7-10.8-3.6-5.6-5-4.4-1.8-2.7-1.4-1.3-2.7-1.5-2.3-2.5-2.5-1.5-1.7-3-2.8-2.8-7.5-5.2-10.7-5.4-2.3-.5-1.4-.9-4-1-2.8-1.3-4.1-.4-3.7-1.8-3.3-.9-2.6-1.2-3.3-2.3-9.5-8-10-6.5-9-8.3-20.4-15.5-9.4-9.7-2.6-3-1-2.1.7-.9h.9l-1.2.9v.6l2.2 3 1.2-1.7 1.3-.1v.4-.4l1.7-.7.7-1 .7.4-.8.8-.2 1.5 1 .5.7-.2.8-1-.4-1.2-.7-.4.7-.8-.6-1-1 .6v.4l-1.2-2.6.4-.8h1l.2 1.1h1.2l.7 1.3 1.6.6-1 1.7.5 1.2 1.3 1.1 1.4.4 2.5-1 1.1-1.1-.3-2.5-1.6-.6.2-1.1 1-.5 2 .4.2 1.3 2 .4v1.2l1 .7 1.1-.4v-.6l1 .4-.9-.9-.4-.1 1.4-.8 4.2.8.2.4-2 1.2-.2 1.8.6 1.5 1.6 1.1 2.2.4 2-.4.4.8.6.2 1.3-1.1.5-2.1 1.6-.1 1.6 1.6v-1l-2.2-1.3-1.6.4.2-1.1-1.3-.8h-2.9l-1.8-1.8-1.6-.6h-1.2L85 136l-1.7.3-.6-.5-3.7-.4-.3-.8h-1.3l-1.4.9-1.4-1.2-1.2-.3-2.4.6-.3-.8h-2l-.9.6-.4-.6-1.4-.4h-2.2l-.2.6-3-.9-5.4.2-13.8 2-18 4.7-11.9 2H6.3l-1.1-.6-3.3-.4-4.3-.9-.6-.3-6.4-.8-2.6-1-.4-.7 2.6-5.3.6-.5 1.3-.2.7.6h-1.4l-1 1.1h-.2.2l.5-.7.2-.3-.4.5-.4-.1-.3.3.3.2h-.4l-1 2.1.1 1.9 1.2 1.5 6.8 1.2 1.7.6 5.6.3 1.3-1.2.8-3.7-1.4 1.5-.3 2.5-.4-.6.5-2 4.8-7 2.5-6 .4-.6.3-.4.2.3-.3.7-2.7 5h1.5l.5 1.8v-1h.7l-1.3-1.9 1.4-.7.2-.8v-1.1l-.4-.6 1.7-.6 1.2.4.9-.4v.9l.6-.2.2-.3-.6-.5-.4-.2-1 .3h-.5l-.2-2.1.5-.9 1-.6 1.2-1.2 1.1.4 1-.2-.3-.3-.7.3-1.8-.3-1-.8-.7 1.4-.5 2-1.5.9 1.2-1.4 1.5-3.7-.7-3.5.8 2.4.6-3-.2 2.7.7-1.5 1.7-1.2.3-1.2-.2-.3-.8.3.3-.5-.7-.4.4-.8-.1-1.2.4-.5.3.3.7-.7-.4-1-.5.1v-.1l.7-.2 1.6.5v-.6l.3-.4.8.2-.5-.5-.8-.1v-.6l-.2.2h-1l.6-.3-.3-.2 1-.7-.3-.3-.5.5-.3-.4-.6.4.4-.5h-.5l1-.8h-1.1l-.1.3.1-.4h.7l-.6-.2.5-.2-.5-.2.3-.3.8.8 1.7.5-.3-.5-1.3-.5v-.6l-.3.3-.6-.4 1.1-.3H19l.3-.3-.4-.9.6.6-.2-.4.8.4-.3-.6 1.2.5-.6-.3.3-.4 1.3.5-1-.7.8-.2.2.4.2-.6 1.2-.3.9-1.2-.5-.5-.6.3h-2.4l-.4-.3-.9.5-1.2-.2-.6-.7.1-1-.3-.1-.7.7-.7-4.2-1.1-1.5-1.2-.9-4-.6-.2.3.4 1.8 1.7 1.8.6.4.7-.3v.7l-2.4-1.3-1.3-1.9.2-4.4.8-1.6.2-.1-.7 1.4.2.6 1.5 1.3h.8l.4.4 1-.2.2-2.8-.9-3-.5 1.6-.3-.7h-.5l-1.1 1v-.2l2.4-2.7 2.9-5.1 1.3-1.6 3-6 1.5-5.6L20 50.3l1.2-4.6 1-1.7 1.5-.9.9-.4.4.1-1.4.3-.9 1.2.6-.4.7.5 1-.1 2.7 1.7h1.1l.8-.5.3-1.2 1.4-1.3 1.7-1h1.8l2.7-1.5v.7l-.8.2.2 1 1.3.2 2.4-.8-.6-.1.3-.4-.6.1v-.6l-.9-1.2.2-.5-.4.2.6-1.1-1 .6.3-.8.4-.2-.4-.4.8-.9-.2-.5.1.3.5-.3-.2-.8H39l.5-1.2-.5-2.3.8-1.4-.4-1.3 1-.9-.9-.8.6-.3.1-.6-2-.4-.7.7v.9l-1 .8.1 1.6-.6 1.7-2.3 2.8 1.8-3.3 1.9-10.7 1.2-4.5.8-1.3 2.7-2.3-2.7 2.8-1.1 2.5h.7v-.4l.9-.6h.6l-.1.8.5-.6-.4-.4.4-.7-.2-1 1.5-1-.1-1h1.4l-.6-1.2.8-.4.2-.9h1.4l.2.4.4-.4h-.3l.5-.2 1.4 1.1h1l1-.8.2-1-.6-.9-1-.2-.9.4.5-1.8-.5-1.2h-.6v.4l-.2-.5-.5.2L44 8.2l2.9-3.6.8-3.7 1-.9H-67.5zm87-174l-.4.6-.8-.3h.2zm-5.3.9l.5 2h.4v4.6l-1.3-7.6.3-2.2zM490.4 558h279v-64.2l-.7-.4-1-1.9-3.1-3.3-1.3-2.4-1.6-.4-.6-2.3-1.7-1.6-1.5-3-.6-.1-1.7-4.4-2.9-4.6.1-.8-.7-2-3.7-5.2-2.4-2.2-.4-1.7.2-4-.5-.5-2-.1 1.1-.5-1-.7.1-1.6-.4-.9-1 .1-1.3-1.1-.4-1.5.7-1 .1-5.6.3-.2.9.4 1.2-.9 1-3.1.4-4 .7-1.4.8-.4 1.8-2.5 2.3-1.9 1.9.2 2.6-1.2 2.6-2.6 1.3-.2 2.8-3.3.8-.5.9-1.9 1.4-1.2.8.2 1-1.1 2.7-1.3v-90l-2.8.3-2.8-.8-1-1.4-2.2-1.5-.8-.4-1.4.2-2-2.8-1.7-5.3.4-3-.6-.8h-1l-.3.5-.2-.4.4-.3-2-12 2-4.3 4.4-4.2.7-2.4.5-.3 1-2.5 1-.4.6-1.3 1.4-1.2H528.8l-9.2 10.4-6.6 5.2-9.3 4.8-13.3 5.4zm249-108l-.6-.3.4-.2-.1-1.1.6.1zm-.1 0"/></g></svg>