<svg xmlns="http://www.w3.org/2000/svg" viewBox="0 0 497 279"  xmlns:v="https://vecta.io/nano"><style><![CDATA[.B{stroke:#fff}.C{stroke:#8d618b}.D{stroke-linejoin:bevel}]]></style><filter id="A" width="100%" height="100%" x="0%" y="0%"><feColorMatrix in="SourceGraphic" values="0 0 0 0 1 0 0 0 0 1 0 0 0 0 1 0 0 0 1 0"/></filter><mask id="B"><g filter="url(#A)"><path fill-opacity=".5" d="M0 0h497v279H0z"/></g></mask><clipPath id="C"><path d="M0 0h497v279H0z"/></clipPath><path fill="#f2efe9" d="M0 0h497v279H0z"/><g fill="#aad3df" fill-rule="evenodd"><path d="M333.3 279h114.2l.9-3.3-1.4-1v.3l-.7-1-1.8-1-.5-1.4-.8-.1v-.5l1.4-.5-.4-.8.6-2.7 1.1.6.5-.5 1 .1.6-.7 1.9 2 1.5.9 4.4-1.7-1.2-4.7.6-2.3.8-1.7.2-2h1.2l.3.7.9.3 3-2.2.8-1.8-.2-2.5.8.3 1-.5.1-2.1h.9l.8-3.1 1.4-1.8h.8l2.4-1.6h1.4l.7-1.1-.5-2 .5-.9 1.5 1.6 1.3.1.9-1.2.7.3.7-1h1.1l1.4-1 .6-1.1.4.6-.1 1.5 1.4.5.8-1.2.5-.1.1-1.3.8-.4.2.7.6.1.4-1.6.6.4 3.2-.3 3-1.3 3.4.6.5-1 .5.4h3.1l1-1.5.4-3.1.9-1-.2-1 .9-.6-.2-.8 2.3-2v-.7l1.5-.1.8-.8-.2-1.1 2.5-.8.2-1.3-.9-2.5 1.5-3.4.5-2.3 1.2 1.2 1.3.8.4 1 5.2 1.1 1.6-.9 1.6-2.7 8.2 1 2.6-1.1.6.4.4 1.2h.5v-2l.7-.4.3 1.4.8.6-.3 3 .8.1.2-1.7 1.3-.5v-1.2l.7-.1 1.2-2.8h.8l1.9 1v1.1l1.6 2.6 1.4-.9h.4l-1 2.5h-.5l-.5.8h.8l.1.5-.6.7 1.1.1.2 2.3 1-.5.9 5v3.7l1.4.5.7-1-.1-1.2 1.1-1.2 1-.6.9.2 1.3-1.1 2.4 1.4.2-.8 1.1-.5 1.3.3 1.3 1 .7 1.3-.4.5 2.1 1.6-1 .8-.7 1.5-1.3-1.1.8 3 1-.2.7.9v-1.9l.4-.1.2-1.2.4 1 .5-1.2v.7h.8l.3 1.1.8.8-.3.5 1.8 1.8h.5l.9 1.2-1.2 1-1.3 2.5.2 1.6.5.5 5.8 2.7.3-.3-.5-1.6.4-.7h1.6l.8 1.2.2-.5 1-.2 1.8.4 2.1 3 2.2.9.8 2.9.5.5 2.2.2 1.2.6 1 .8.6 1.5 2 1 .2-.8 1.4 1 .6 1.5 2.4-.6 1 1.2-.3 1.6-1.6 2 .1 1.3-.4 1.1.7 4.3-.4 3.1 1.4 1.7 1.2-.1 1.2-1 3.5 1.9 1 1.5 1 .4.4 1.4-1 .2.6 3h8.4V0h-279zm256.5-28.8l-.7.3-1.4-2.2 1.3.4h-.6l1.6 1.3zm-69.6-44.3h.7l.1 1h-.7zm51 34.3l1 .8.2 1-.9-.5zm-52.3-36l.5.5-.2.6-1-.5v-.6zm-2.3-6.1h1l.8 2.5-1.4.9.4 2.3-.5.8h-1l-.8-.6v-1.2l1.2-2.6.5.6zM511 194l1.3 1h1l-1.1 2.3-.9-1zm1-2.4l.9-.2.1-.9 1.1.8-.7 1.3-.7.4zM333.3 339.8h.2l1-2.6h.5l.9-1.4 3.5-2.8 3.6-1.3 1.7-2.3 1.8-1.4.1-2 1.7-1.1.7-1.4 1-.3 3.8-3.6 3.9-1.2 3.5-.5 1.8-1 1.1-1.2 1.6.8 1.5.2 1.5-.7 1-1 .1.8 1.7-1 .5.6h.8l.8-1.3.3 1.3 2.6-.5 1.5-1.6.5.7 2.7.2.6.5 2.7-.7.5 1 5-1 .9-.4-.6-2.3 1.5-.8.6.9 1.3-1.2.3.7 1-.2-.2 1-1.6 1 .2.8h1v1.6l.8 1.3h.7l.7-.5.8.3 1.3-.8-.4-.9.4-.7.5 2h.4l.1 1.6.3-1 .8 1.1v1.5l.5.4 1.4-.2v-1l.7-1.6.8.8.3 1.2h.4l.4-1.2.4.6.8-.6.3-.7h1.4l2.8-1 1 .4.6-1.4 2.6-3.5v-.8l.9-.8h.9l.3-1h.8l.9.7 1.5-.5.5-1.6-.6-1.4 2.3-2.7.7-2 .9-.9 3.2-1.4 1.2-1.4v-.6l1.6-1.9h1.3l.8-1v.7l1.2-.3.3.7.4-.7 1.2 1.7 1-.6-.3-.8 1.5-.6.2 1.4 1.4-.9.1.7h.6l.7 1.2h.6l.4-.9 1.3.2-.8-3 .3-2.3 1.5-1.8-.4-.5.7-2.4 3-2v-3.9l.2-.8H333.3zm61.8-30.2l.5.2.4.4-.5.3-.5-.3-.2-.5zm-2.1-1l.3-.7.7.8-1 1-.4-.8zm-1.7-2.6l.8.9-.3.3-.6-.5zm1.8-1.5l.3.5-.4.7h-.3zm-4.4-2.2l2.8 1.1.1.6-.8.9h-.6zm-24.9-8.7l-.3-.3.3-.5.8-.3.3.4.7-.4.2-1 1.8-1-.6-.3.8-.7.4.5 3.2-1.3 1 .1.3-1.1 1-.1.3.4-.1.5-1.2.2-.2.9.6-.6.6.8h.9l.4-.8 1.3 1-.4 1 .4.2-.6 1.5-4.7-.3-.4.6-2.6.2-.6.6-.5-.3zM333.3 0h279v-279H333.4zm0 0"/><path d="M54.3 0h279.1v-279h-279zm0 0"/><path d="M-224.6 0h279v-279h-279zm0 279h279V0h-279zm0 0"/><path d="M54.3 279h279.1V0h-279zm0 0"/><path d="M54.3 558H140l.3-.4 1-.3.7-1.8 1.6-1.4.4-1.1 1.7-1.5 4.5-2.3.6.8h2l.3 1-.4 2.8.3.9-.2 1.3.2 2h180.4V418.8l-1-.2-3.9.1-3.5 1.3h-3.2l-3 2.4-.5 1.2-2.3.1-.2 1.3-.8.2-.8-.3-1.9 1 .2.7 1 .4-.1 1.3.3 1.6-.7-.7-2-.2-2.8-1.4-.6 1.1.2.5 2.2.2 1.7.9v1l1 .5.1.6v.4l-1.3-.8v.8l-1.2 1-.3-.8-.7.3v1.5l.9 1-.9.1-.1 1.1-.9.9.2 1.1 3 4.4 1.3 2.8-2.6-4-3-3.2-.3-2.6-3.1-6 .4 3.2-1 3.4-1 1H301l-.6 1.8-1.9 1.3-.4 2-.3-1h-.5l-1.6 4.2-1.1.5H293l-3.6-.5-.4.9-1.6 1.4-.6 1.5-1 .3-.4.6-1.7.2-1.1.6-.4 1h-1.3l-2.4 1.2-.4-.5-3.4 1.5-1.8-.1-3.9 2.3h-1.3l-.6-.9-.5.5-2.1-.2 1.3-1.2-1.4-2 .2-1.4-1.1-2h-1.2l-1-3-.9-.5.9-.9v-1l-1.3.6-1.8-5.2-.8-.6-.6-1.8h-.5l.5-1.5-.5-.5 1.3-2.5.8-.1.1-.7-.4-.5-1.1-.3-.4-2-.6 2.2-.8.7-.6-.8-.1-.8.8-.4-1-1.4-1.4-.2-.2-2-1-2 .5-.8h.8l1.6 1.5-.6-1.6-1.2-1h-1.1l.3-.7-.8-1.2.3-.5 1.8 1.2.5-.7.9.4.3-.8-.6-1.6.6-.6.7.5-.7-1.2.5-.3.9.8.2-.4h1.2l.6.9v-1h.9l.2.5.5-.7-.3-.8.5-.1.1.7 1-.9h.6l.2-1.6h.4l.3-2.7.6-.5-.4-1.2 1-1.4v-.5l-1.1.3v-2.4h.6l.1-1.1.4.4.8-.9-.5-.2-.3-.9 1.3.3.1-1h-.6l.3-1-.6-.8.3-3.7h-.4v-2l-.4-.7h.5l1.1.5 2.4 3.1h.9l-1.2-2.8-.7-.2-.5-1.8.2-.6-2.3-.3.3-.7-1-.7.3-1.1-.6-2-1.6.3.2-.8 1-.7.9.5 1.3-1 .2.8h.6l1-1.7.7.2.2-.5 1 3.7.3.5 1.1.1.7-1.1v-.7l1-1-.2-1 .7-1.4V383l-1-1 .6-1-.2-.3 1.3-1.1.5-1.6.9.6 2.3-.7-.5-2.8 1.2 2.5 1.8-.7-.2-1h1.4l.4-.4-.2-1.9.9.8 1.6-.7-.3-1-1-2 .5-.3.9 1.3.7-.3 1-1.6.7.5v1.3l1.3-.2.7.4V370l1.8-.5 1.3-1 .7-3 1-.2.4.7 3.7-2 1-1.5 3.3-2 1-1.2.6-2 .5 1.7 1.3.5 3.6-.8 1.6-3.5-.3-.7.7-1.5-.5-1.3.5-.7.4.8 1.2.2.6-.8.4 1.3 1-.3.1-.8.4.5.6-.3-.1-1.4 3.4-3.5 1-2.6.5.4v1h1l1.6-1.2 1.1-2.5 2-1.2 5.2-1 1.8-.3.2.5h1v-60.9h-279zm161.5-123l.6-.5.4-1.6-.6-.3.2-.5-1.3-1.2-1.4.3-.5-.4-.5 1.4-.8.6.4 1-.4 1.6-.9 1h-.9l.3-.6-1.5.1-.1-.6 1-.4v-.5l-.8-.5-1.6.3-.6-.3.5-.5 2.1-.2-.3-.5h-.8v-1l-1-.1-1.6 1.1-.1-.4.8-.8-.1-.8 1.4-.1.5.4.3-.5-.3-.9.9-.3-.2-.4h-1l-.9-.7h-.9l-.7.7-4.8.7-1 .7h-.6l-.2-1.9 1.5-.8 3.3-.8.5-.5 3.1-.4.4-.8.7.1.5.7h2l-.8 2.8 1.7 1.7 1.4-.3.2-1.1h.4l.5 1.2 3.8-.2.3-.3-.3-1.3.4-.4 2.3 1-.4.6.3 1.1 1.3-1.1.6.2v.7l-1.8.5v.3l1.3-.3.6 1.1-.2.9 1 .7-.3.7-.9 1.2-1.4.4h-1.3l-.3-1.1-1.3-.2-.5.8H216zm48.4-34.4l-.7-1.4.8-1.2-.4 1.3zm-31.4 54.6l1.9.2.6 1 1.7.8 2 2.8h.5v.7l1 1.5 1-.3v-1l-.6-.8V459l2.9.5 2.6 7.7-.7.1-.7-1.3-.6.4V465h-.2l-.2.5-.4-.5-.8.2-.3-1.2-1-1.1-.9.1-3.5-3.6 3.3 6.9.1 1.2-.5 1.2-1.3.8-4 .7-.3-2 1.3-.4v-1.9l.5-.5-.2-.4-1.3 1-.7-.5-.2-.7 2-2-.2-.3-.6.8-1-.5-1.2.8-.3-1 .5-.9-.2-1.1.7-.1v-1l-.6-.1v-1.1h-.7v-.9h-.7v-.7l1-.2.5.5-.5-1zm-6.4-1.1l.3-1.3 2-.2-1.2-.6.3-.6 2.9 1.5.2-.7 2.6 2-2.3 1.9-.2-.3h-.7l-.3-.3-.4.5-1.1-.8-.5-.9-.9.2zm-42.8-14.2l1.4.5 1 1 1.3-.7.3.8.4.2-.5-1.2-2.5-.9.3-.7.6.4 1.1-.9.3.6 1.2-.4.5.6.4-.3.2.5 1.7.2 1.5.8-.2.6.6 1h.6v1l.9 1 .8.3-.2-1h.7l1.4 3.5h-1.5l.3 2.2.8 1-.4 1 .2 2.1-.4.7.4.6-1.3 2 2 1.3-1.2.8-1.1.7-1-.7-.7-2.1-.8-.2.2-.6h.7l.4-.4-1-.7-.6.9-1-.6.9-.9-1.8-.9 1.3-1.1.7.4.8-.9.8.2-.6-1-.8-.1-.2-1.5h-.7l-.5-1.3-.7.3.2-1.7-1 .2-.5-.7-.4.3-2-.1-.8-1.2.2-1-1.4-.8zm64.6 8.6l1-.7h1l-1.6.9zm-37.4-7l1.2-.1.3-.5-1.6-.8.9-.6v-.8l.9-.3v.9h1.3l2.2-.5-.5 1.4-1.4.3-.5 1-2.2.8zm-1.6-1.7l.5-1.8h-.7l.9-.7 1.1-.1-.5 1.4zm-28-2.1l.7-.3 1.2.9-1.7.2zm0 .1"/><path d="M-224.6 558h279V279h-279zm0 0"/></g><g fill="none" clip-path="url(#C)" mask="url(#B)" class="D"><g stroke-width=".8"><path d="M442.3 111.1l-75 48.2" class="B"/><path d="M442.3 111.1l-75 48.2" class="C"/><path d="M367.4 159.3l-60.8 39-1.8 1.4-1.7 1.1-1.7 1.2-1.7 1.3-6.5 5.2" class="B"/><path d="M367.4 159.3l-60.8 39-1.8 1.4-1.7 1.1-1.7 1.2-1.7 1.3-6.5 5.2" class="C"/><path d="M293.2 208.5l-22 17.5-1.5 1.2-1.5 1.3-1.5 1.3-1.4 1.2-38.7 36.6" class="B"/><path d="M293.2 208.5l-22 17.5-1.5 1.2-1.5 1.3-1.5 1.3-1.4 1.2-38.7 36.6" class="C"/><path d="M517.3 62.9l-67 43-8 5.2" class="B"/><path d="M517.3 62.9l-67 43-8 5.2" class="C"/><path d="M226.6 267.6l-14 13.4-60.4 34.9" class="B"/><path d="M226.6 267.6l-14 13.4-60.4 34.9" class="C"/></g><g stroke-width="2.2"><path d="M303.7 200.4l-.7.4-1.6 1.2-1.7 1.3-28.5 22.7-1.5 1.2-1.5 1.3-1.5 1.3-1.4 1.2-29 27.5" class="B"/><path d="M303.7 200.4l-.7.4-1.6 1.2-1.7 1.3-28.5 22.7-1.5 1.2-1.5 1.3-1.5 1.3-1.4 1.2-29 27.5" class="C"/><path d="M236.2 258.5L212.6 281l-49 28.2" class="B"/><path d="M236.2 258.5L212.6 281l-49 28.2" class="C"/><path d="M528.4 55.7l-74.9 48.2" class="B"/><path d="M528.4 55.7l-74.9 48.2" class="C"/><path d="M453.5 104l-3.2 2-71.8 46" class="B"/><path d="M453.5 104l-3.2 2-71.8 46" class="C"/><path d="M378.5 152.1l-72 46.3-1.6 1.2-1.2.8" class="B"/><path d="M378.5 152.1l-72 46.3-1.6 1.2-1.2.8" class="C"/></g></g></svg>