<svg xmlns="http://www.w3.org/2000/svg" viewBox="0 0 497 279"  xmlns:v="https://vecta.io/nano"><path fill="#f2efe9" d="M0 0h497v279H0z"/><g fill="#aad3df" fill-rule="evenodd"><path d="M-224.6 0h279v-279h-279zm0 0"/><path d="M54.3 0h279.1v-279h-279zm0 0"/><path d="M333.3 0h279v-279H333.4zm0 279h279V0H333.4zm0 0"/><path d="M54.3 279h279.1V0h-279zm0 0"/><path d="M-224.6 279h279V0h-279zm0 279h279V279h-279zm0 0"/><path d="M54.3 558h279.1V279h-279zm0 0"/><path d="M333.3 558h279V279H333.4zm0 0"/></g></svg>