<svg xmlns="http://www.w3.org/2000/svg" viewBox="0 0 497 279"  xmlns:v="https://vecta.io/nano"><style><![CDATA[.B{stroke:#fff}.C{stroke:#8d618b}]]></style><filter id="A" width="100%" height="100%" x="0%" y="0%"><feColorMatrix in="SourceGraphic" values="0 0 0 0 1 0 0 0 0 1 0 0 0 0 1 0 0 0 1 0"/></filter><mask id="B"><g filter="url(#A)"><path fill-opacity=".5" d="M0 0h497v279H0z"/></g></mask><clipPath id="C"><path d="M0 0h497v279H0z"/></clipPath><path fill="#f2efe9" d="M0 0h497v279H0z"/><g fill="#aad3df" fill-rule="evenodd"><path d="M225.4 244.2v1.8h1.1l.7.6.5.2.3.4h.3v-.3l1-.5.5-.4v-.3l-.1-.7v-.5l.3-.2v-.5h.6l.6-.3.3.2h.5l.2-.5.3.3.2-.2v-.3h.6l.4-.1.1-.5 1-.9 1.5-.3.4-.4.6.2.1.3.7.1-.4.5h.8l.4-.5h.8l.2.6.6.3.3-.3h.5l.1.9h.3l.3-.3.2.5h.3v-.3l.4-.3.1-.5v-.2l-.6.2.2-.4 2.1-.5.2-.4h.7l.1.3h-.2v.3l.6.4v.4l-.8.5.2.2 1.8 1.3.7.7.5.6h.7v.6l.3.4.2.5h-.7l-.2-.3h-.2v-.4l-.4.2.2.8-.2.1.1.3-.1.4h.6l.5-.4h.7l.1-.8.3-.1-.3-.3v-.4h.5v.3l.6-.3-.2-.1v-.2l.4.3.3.4.3.1.4-.2h.4v.2l-.6.1-.2.5h-.3l-.2-.6h-.6v.2l.4.6.5.3.2.2.3.3v-.5h.4v-.5l.7-.1h.4l.2.3.4.3-.1.5.2.3h.4l.2.3.6-.1.2.4.3-.3h.8l-.1.3v.1l.2.1v.4l.4.5h1.2v.3l.1.3h.4v.2l1.2-.5v-.5h.3l.3.4h.2v-.9l.6-.2.4.2.8-.3v-.1l.2-.6-.4-.2h.5l.6.2.7-.3.4.2.4-.1.6-.2v-1.1l-.2-.5h.2l.6.5.4-.1-.7-.4-.1-1-1.3-.6v-.4h-.3l-.1.2h-.3l-.2-.7-.2-.4v-1.1l-.9-1 .2-.4.9-.4v-1h.4l.8.4.5.3.3.7-.1.3.1.2h.2v.5l.1.3.5.5.5.6h.4l.3.2h.4l.6.6 1 .2.9.6.1.5.7.7v.3l.2.3h.1v-1l-.7-1-.3-.5v-.3l.5-.3 1 .3-.2-.4-.8-.4-.3-.6h-.2l-.2-.5v-.2l-.5-.7-1.3-.1-.3-.5v-.6l-.3-1.4-.4-.5-.3-.4h-.4l-.3-.6-.5-.2-.3-.3-.2-.2v-.3h-.6l-.2.5-.5-.3v-.9l-.3-1v-1.6l.8.2h.5l.3-.7-.1-.5v-.6l.5-.4H265v-.5l.2-.2-.5-.4-.3-.9-.2.3.4 1.2-.2.1-.3-.4h-.3l-.1-.1-.3.1v.2l.5.5.5.3.2.4-.2.5.4.1v.7l-1-.1-.3-.9h-.7l.2.7-.4.1.4.5-.3.5h-.2v-1.1l-.3-.4h-.4v.4l-.3.1-.8.2.2.6v.5l.4.4v.8h-.3l-.3-.5-.4.1-.6-.3v-.5l-.5-.3-.1.2-.3-.5-.2-.2-.3.2-.4-.2-.2-.3.2-.5-.3-.4h-.9l-1.4-1.3-.3-.9.4-.6h.4l.3.5.3-.3h.4l-.2.3h-.4v.5h.8l-.4.2-.5-.1v.4h.5l.9-.5.2.7h.3v-.2l.3-.3h.4l.7-.5-.1-1-.2-.1v-.3l.1-.4.8-.1.2.8h-.7l.2.8.4.1.9.4.8.7.3-.2-.1-.6v-.5l-1-.5-.1-.8.3-.2.4.3-.1.1-.3.2.2.3h.3v-.4l.2.1h.3l-.2-.4.4-.4v-.4l-.9-.2h-.9l-.1-.3-1-.2-.5.2v-.2h-1v-.6l-.3-.3-.2-.6-.3-.1-.2-.2.4-.3.5.5.1-.4.6-.2-.1-.3.1-.5-.4-.3.2-1.4-.4.2-1.1-.7-.2-.6-.3.5-.4-.3-1.1.1-.3.4-.2.3.6 1-.3.8h-.3l-.2.1h-.4l.2-.9-.7.5-.9-1.2h-.4l-.4 1.2.4.4-.4.2.1.6-.3.6.7.3.1.4-.2.2h-1l-.6-.2-.6.2-.4-.3-.7.1v-.3h-.5l-.2-.4-.4.7-.5.2v.4l-.6.8-.5.8v1.5l-.1.3.3 1 .3.1v.8l-.5.2-.7-.3-.4.1v.4h-.5l-.3-.3-.1-.5-.4-.1-.2.3-.2-.1v-.4l-.4-.3h-.3l-.2.4-.2-.1-.5-.7.2-.2-.1-.5-.5-.5h-.2v.7h-.4l-.6-.3.3-.3-.3-.3h-.3v-.7l-.2-.2v-.6l1 .6v-.3l-.1-.3v-.5l-1-.2v-.4h-.4l-.5-.5-.5.1-.3-.4-.7.1v.3l-.4.2.1.5-.4.2v.4h-.1l-.3-.5-.1.2-.8-.8v.5l-.7-.1v.6h.3l.2.7.4-.2v.5l.4.5.4 1.1-.1 1 .5 1-.4.8-.2.2-.1.5-.3.2.3.7v.3l-.2.2.1.3h-.4l-.7 1.1-.5.1-.5.4h-.8l.3.6h1-.6v.2l.2.5-.2.4.5 1-.6.4v.3l-.1.4v.8h-.3l-.3-.3v.8l-.8.3v-.5.2h-.9l-.3.1h-.6l-.3-.3h-.7v-.9l-.1-.6v-1.2l-.4-.7.1-.4-.2-.5.1-.6h-.2l.2-.7h.5v-.1l-.5-.5v-.4l.2-.2.2-.5-.6-.2-.2-.5-.4-1.2-.3.2.4 1.3v2.5l.4 1.5.3 3.2v2.7l-.3.5-1-.7-.6.3-.4.3-.2.5zm14.2-11.2l.6-.1v-.4l.6.1.2.6-.5.3-.3-.2zm6-.1v-.3h.4l.5-.5.4-.2.1.1v.4l-.8.3v.3h.2l.7-.2.1.2h-.5v.6h.8l.1.1-.4.3.2.3.3-.1.4.5.5-.1 1.1.4.4-.1.6.1.6.5 1 1.3-.2.2-.6-.2-.1.6v.6l-.1.2h-.3l.2.7h-.4l-.2.4h-.3v.7h-.9l-.4.4-.4-1.1.2-.6v-.7l.1-.7h-.5l-.1.4v.5l-.1.4-.2-.9.2-.6-.9-.4-.1-.5v-.4l-.2-.1-.5.3-.3-.2v-.8h-.7l.5-.2v-.4l.7.1v-.5l-.9-.9zm6.4-.5v-.1l.2.1.1.2h.3l.7.5-.2.3.1.2.8.2.2.4h.3l.2.4h.6v-.1l.1-.5h.3v.6l.3.1.3.5-.1.4-.6.4v.4l.5.8h.5l.6-.2-.1-.7.3-.1-.1-.5v-.7l.6-.1.4.4.7.7v.6l-.2.4h-.5v.3h-.8l-.3.3h-.4l-.1.5h-.7l-.1-.4-.3.2-.2.2h-.2l-.3-1.1-.3-.3h-.2l-.1-.4v-.3h-.3l-.2.4-.2-.2-.2-.4h-.6l-.1-.3.1-.5.2-.1-.2-.4-.2-.2-.3-.5.2-.2-.2-.2v-.2zm.8 5.6l.3-.3v-.3l.3.1.1.3.3.4-.1.6-.4.2-.3-.2v-.3zm2.9 1.2v-.2l.3-.2h.2v.4h-.2l-.1.3h.5l.3-.4.3-.1v-.6l.5-.2.2-.3.1-.2h.2v.3h-.2v.4h.2l.3-.2v-.2l.1-.2h.4v-.4l.2-.2.1.1v.2h.4l.4-.1.1-.4h.3v.2l-.5.2v.6h.4l.2-.4.4-.1.3.1.2.3.2.1v.5h.5l.2.3.2.2h.2l.4.1v1.5l-.2.3-.1-.1-.4-.2-.2-.2-.3-.2h-.2v.8l.1.7v.5h.1l.3.3.5.3.2.2v.6l.2.4.1.3.3.3.4.2.4.2.3.3h.1v-.3l.4.2v.4l.2.4.2.4v1l-.6.2h-.2l-.2-.3v-.3l.6-.2v-.4h-2.3v1h-.4l-.2-.3-.2-.1-.4-.6-.2-.3v-.5l.4-.3v-.8l-.4-.2h-.1l-.2-.1-.1-.2h-.3l-.1-.2-.1-.1v-.2h-.3l-.1.2-.3.1-.1-.2-.3-.3-.3-.2v-.2l-.4-.1-.1.2v.2l-.3.2h-.2v-.5h-.5v-.5h-.3l-.5-.2-.1-.1v-.4l-.4-.1v-.6l-.4-1-.1-.2zm3.7 7v-.2l.4-.5.2.3v.6l.4.4-.2.2.3.5h-.5l-.4-1zm0 .1"/><path d="M257.1 240.9v.3h.2v.2h.4l.1-.3v.2l.2.1h.4v-.1l.2-.1h.1v.2l-.3.2v.2h.8l.1.1v.4h.3v-.3h.1v-.2l-.3-.1v-.3l.3-.1v.3h.2l.1.1h.3v.2h.3v-.6l-.2-.2h-.4v-.3l-.1-.4v-.4h.1v-.9h-.7v-.1h.2v.2h.2v-.4h.1l.1-.1v-.2h.1v-.4l-.4-.1h-.1l-.1.2v.4h.3v.2h-.4v-.3h-.7v.1l-.1.1v.1h.2v.8h-.2v-.3l-.1-.3h-.1l-.2.2v.3h.3v.5h-.4v.4h-.1v.1l-.2.4h-.1v.1h-.1v-.3h-.1l-.1-.1h-.3zm1.2-.6h.3v.3h-.3zm.1-.3h.3l.1.2v.1h.2l.1-.3h.1v.3h-.7v-.2zm.3 1.4h.2zm.3-.1h.2zM107-1.3v.5l.3.3h.7l.3.3.3.2h.4v.9h.7l.1.1h.2l.3-.2h.2V1l-.1.2-.1.3v.4h.2l.1.1v.1l.3.1h.1v-.7h-.2v-.2h-.1l-.1-.3V.6l-.1-.3V0l-.2-.2v-.1l-.3-.2-.2-.1-.1-.1-.2-.2-.2-.2h-.1l-.2-.1v-.5l-.1-.1h-.2l-.1-.2h-.1l-.2-.1h-.3v.3l-.4.2h-.3l-.3.1zm5.6 2.1V1h1.2l.3-.2.3-.1.3-.1h.3V.3h.3l.3-.2V0l-.2-.2V0h-.4l-.1-.3h-.2v-.1l-.3-.1-.2.1V0h-.2l-.2.3-.2.1h-.6l-.3.2-.1.1zm-1.3 4V5h1.7v.6l-.3.1-.1.1v.3h.3l.1-.2.3-.1.1-.2h.2l.1-.4.1-.2h.2v-.7l-.3.1h-.4v.2h-.5l-.2.2h-.6v-.3h-.7zm157.3 243.9l.1.1h.5v.3l.7.3.1.3.4.4.3.4h.3l.3.2.2-.1.1-.2v-.2l-.2-.2-.2-.2-.3-.1v-.2l-.7-.4-.4-.1-.4-.3v-.2h-.4v.1h-.5zM110 3v.1l.3.1.1.2h.2l.1.1h.3v-.2h.5l.2.1h.6l.1-.4h.1l.2-.2v-.3h-.8l-.3.3-.3.2-.3.1h-.6l-.2-.1zm0 0"/></g><g fill="none" clip-path="url(#C)" mask="url(#B)" stroke-linejoin="bevel" stroke-width=".8"><path d="M84.2-67.6v89.1" class="B"/><path d="M84.2-67.6v89.1" class="C"/><path d="M84.2 21.5v89.1" class="B"/><path d="M84.2 21.5v89.1" class="C"/><path d="M64.7 180.2h-89.1" class="B"/><path d="M64.7 180.2h-89.1" class="C"/><path d="M-76.3 180.2h89.1" class="B"/><path d="M-76.3 180.2h89.1" class="C"/><path d="M84.2 110.6v69.6H64.7" class="B"/><path d="M84.2 110.6v69.6H64.7" class="C"/><path d="M12.8 180.2h71.4v-17.8" class="B"/><path d="M12.8 180.2h71.4v-17.8" class="C"/><path d="M84.2 162.4V73.3" class="B"/><path d="M84.2 162.4V73.3" class="C"/><path d="M84.2 73.3v-89.1" class="B"/><path d="M84.2 73.3v-89.1" class="C"/></g></svg>