<svg xmlns="http://www.w3.org/2000/svg" xmlns:xlink="http://www.w3.org/1999/xlink" viewBox="0 0 497 279" xmlns:v="https://vecta.io/nano"><filter id="A" width="100%" height="100%" x="0%" y="0%"><feColorMatrix in="SourceGraphic" values="0 0 0 0 1 0 0 0 0 1 0 0 0 0 1 0 0 0 1 0"/></filter><mask id="B"><g filter="url(#A)"><path fill-opacity=".5" d="M0 0h497v279H0z"/></g></mask><clipPath id="C"><path d="M0 0h497v279H0z"/></clipPath><path fill="#f2efe9" d="M0 0h497v279H0z"/><g fill="#aad3df" fill-rule="evenodd"><path d="M455.3 279h279V0H698v.3l-.4 2.2.4.5-2.4 6.8-2.9-2.4-2.3-1-1.1-.2-.6-.5 1-2.4V1.5L690 0H455.2zm0 0"/><path d="M455.3 385.6l1.1.4 1.6 1.2.4 1.2 1.2 1 1.6.4.5-.8.7.8 2.5-1.1 1.9-7-.5-4.1 1.3 1.4h.6l.3 1 1.1.8.4 2 2.2 2.7 1.5 2.7 2.7 1 1.1 1 3 4.8 3 4.1 1 3.3-1.5 1.2-.5 1.2.5.5-.5 2 .5.1v1l-1 .4-1.2 3.9-1.9.3-1.1 1-2.3 7.9-1.9 3.7-1.8 2.3-.8 3.1-2.8 5.2.5 4.1-.9.7.2 1.4-2.8 4.6.2 1.4-.6 1.6-.1 5.4-.7 1.7-3.9.9-.8-.9h-.7l-.6 1.9 1.5 4.7 1.3 1.7-1.6 3.5.8.9.9-.1.4-.7 4.7.7 2.6 1.9 1.8-.7 1-1.3 2-1.1h2.6l2.8 2.4.5 1.7 2.5 2.9v1.9l-2.1 3.9 1.1 2.3h2.2l1 1 2.2.8 1.8 1 .1 2.9 2 .1.5-.8-.3-1.2 1-.4 1.1-1.9-.3-1.6.9-.4 1-1.8-.1-1.5 2.6-5.8 1-.4 1.9-2.3 2 .8 2-.1 2.1-.9.9-1.1 1.7.8.6-.5 2.8.3 1-.3.8.4.7-.6 1.5 1.8.9-.3 3 .5 1.6-.8.4-1.2-.2-1.1 1.6-1.2.6-1.4.7-.5h.9l.6-.6.7-1.2.9-4.3 1-1.4.6-.3 3.1.8.7-.4.5.7 1.3-.2 1.8-2.7 2-.8 2.4-1.7.7-1.3 2 .2 1.7 3.3.3 3.8 1.4 2-.2 1.7 1.3 3.7 1.4 10 2.5 3.8 2.3 5.2 1.1.9 1.6.4 3.7.5.9-.7 4.6 1 1.7 1.7 1.5 3 2.4 2 .5 1.4 7.3 5.7.8 1.9 1.7 1.2 4.8 8.2.8.3 4.6 8 .9 7.5-.5.9h-3.6l-1 .8-1.8 2.5-.6 2h-.7l-1.4 2.6-1 3.4.5 1-4.6 5-.4 2.2-3.2.8 1 4.3 1.6.3.1 1.9 2.2-.6.4 1.2.8.3 1.4-.5 2.2-.1 1.9-.9 1.3.8 1.5-.3.6-3.2 1-.8h1.1l1.8-1.8 1.8-.7 3.3 1 4.3 5 .1 1.7h131.3v-85.4l-1.2-5.6 1.2-2.4V278.9h-279v94.4l3.7-1.3 1.3 2.8v2.5l-1.7 1.6-1.6-.2-1.8-3.6zm0-385.6H690l.8-2.2-1-4.8-.8-1.3-2.2-1.7-2.6-3.5-.6-1.4.6-5-1.5-2-.9-.1-2 .9-2.6-1.6-1.7.5-.5-1.4-4.5-2.4H668l-1.6-1-1.4-2.3-1.5-.1-.7-1-.4-1.3H660l-1-1.6-1.6-.2-.4-1-2.5.5-1.9-1-2.8-.4-1-3.3-1.7-.3-2.9-3.6-.6-2-.1-4.4.9-3 2.6-3.6v-1l-1-1.6v-1.6l-1.4-2.2.1-3.8 1.4-1.2 2.8-1 1-1 .2-1.4-.7-.9v-.7l-1.2-1-.6-4.7.8-1v-1.5l.7-2 1.9-1.2-.1-1.4-.6-1.4-3-3-1.5-4.2-1.2-2-1.8-1.6-1.5.1-1.1-.7-2.3-5.4-2-1.2H634l-1.8-2.2-3-1-.4-.7v-2.7l.4-1-.5-1.4-1.3-.9-1.4.4-.7-1.1-1.3-.5-2.2.5-1.7-1-1.4-1.4-1.4-.6-4.5-.2-1 1.3-.5 1.9.3 1.4-3.3 1-4 3.1-.9 1.4-2.3-1.3h-1l-1.4.2v.4h1.7l.3.3-2.3 1.1-3.6-.4-2 .3-.9.7-1.2-.4-1.6.5-.7-.4-1.6.6-1.2-.5-1.6.8-7 .8-3-1.4-1.8-1.7-1.8-.7-.8-2.5-1.7-1.6-3.3-1.6-1.6-2.1 1.5-3.8v-3.8l-1.7-2.6v-1.3l-1-2.2.2-2.4 1.7-5.1-.2-1.1.8-1.3.5-.2.4.6.3-.8-1.3-2.2.3-.6-.5-1.1-.2-1.5 1.7-7 .5-15.5-2-6.1-.5-8.8.5-5.8 5.4-12.9 4.5-17.8L579-233l5.8-8.7h2.2l2.7 1.2.8-6 2.6-5.5 6.1-6.2 8.3-3.6 7.7-2.2 7.5 1.4-.4 4.5 3 6.7 3.3 3 4.8 1.6.6 3.6-1.1 2.7 1.9 3.3 5.9-1 3.8-2.8 3.2-1 3.4-.5 3.3-1.5 2.6-.2 5.5-5.2 2.9-1.7 2.5-2.9h3l3.6 4.4h1.8l1.7 1.9.6 3.2 1.9.5.2 2.4 1.2.8.3 2.3 1.3 1.2.5 1.3v1.8l.8 1.7 2.7 2.5 3.2 2.3 5 6.6 1 8.7-.4 8.1 1.4 3.7-.7 2.6 1.2 3.7 3 3.3 3.4 15.3-1.2 8.2 1.7 4.7 2.9 3 .2 3.4-1.8 4.5-2 2.5-.6 3.2 1.4 4.6-1.8 2.3-.8 3.3.6 7.5 1.7 4.5 1.1 5.6v1.2l-2 4.2v2l.2 1.7 5.3 5.7 1.5 2.4.3 2.3-.9 3.9 2 3.7.6 2.7v3.6l.2.8.2 6.7 1.2 6.4v3l-.7 2.4.6 5.1 1.2 1.6v2l-1.5 1.5-.6 2 .6 1 .3 2.9-.5 1.6-3 2.3-.8 1.7-.4 3.4-2.6 3.6 1 3.9.8 7.1-.2 2.6-3.2 4.4-2.6 6.2-1.7-2.9-1.7.2-.5 3.5.2 4.3 1 .2 1-.6-3.5 7.5.1.6h36.4v-279h-64.7l.1.6-4.1 1.8-3-2.4h-11l-1.1.5-.6 4.7 2.6 6.4-4.3 2.4-4.8-3.9-3-7 1.1-3.1H455.2zm0 0"/><path d="M300.5 279v.4l1 2.4-.7 1.5.2 1-.7 2.1.3 1.7-.3 2.5.5.6 2.4-.4 1.6.6 1.2 1.2.7 2.4.3 2-2 5.6v.4l1 1 4.2-.4 2.5 1.9.9 1.3.3 1.9-.3 1.1-1.3.6-.6 1v1.4l.9.7.4 1.3-1 2.1.7.9h2l2.3-.6.5-1h1.1v1l-.6 1.1.2 1.6.5.4v3.7l.3.7-.5.6-.4 1.7 1.5 1.9.9 3.7.8.5-.8 5-1.2 2.4-1.2 1.3-.3 2.2.5 1.5-.7 4.3-2 .5-.4.9.2 1.2 3.4 1.8.4 1.5-1.6 3-1 4.9-1 2.1-.8 10-.8 1.9-4.6 5.7-.2 1.8-1-.4-.8 1.2-2.7 7.4-.5 4.1.6 1.8 1 .8 1.6-1.3 2 1 .1-.7 1.8-.9.7-1.8 3.6-3.8 2.3-1.8 2.1-.6 1.7.6 1.5 1.8.8 3-1.7 10.7v1.7l-2.6 5.6.3 1-.5 1.8.6.6.2 1.1 1 1.5-.8 1.4.7 3-.3 1.1.4 4 1.6.3.7 2.1 1 1v5.1l2.2-1.3 1.5.8-1.3-2.5 1-2.5 1.3-2 2-.5.7-2.5 1.3-1 .3-.7-1.6-3.7.2-4.1 1.2-2 2-1.5 2.2-1 1.9-4.3-.7-1.5v-1.6l-.4-1 2.3-1.2 2.6-5.4.5-2.7v-5.6l-2.6-18.7.2-8.7.8-2.2 2.1-3.3 1.7-1 .6.9v2l.6 1.1 2.5.3.9-1.2 1-.3 1.4 1.6.3-3 1-1.5-1-2 .5-1.3 5-3.7h1l1.2 1.7 1.6 1.7 1.4.2.6-.8.9-3.8 2.5-1.4 2.2-2.7v-2.4l1.4-2.1 3-1.3 1-1v-.6l.7.2v-1.2h1.2l.5-2.5v-.7l1.4-2.7-.4-.8 2.4-3.9 3.2-2.3 2.3-.5 3.6 1.2 2.5-1 3-.2 4 1.2 3.8 2 2.5 3 3.6 2.1 3.3.7 1.5-2 2.6-.8 4.5 2.6.2 3.2-1.2 1.2.2 1.8 3 5.2 1-1.4 3 4.6.8 3.7.7 1.1 3 1.9 1.7 1.8 1 3.9-.2 2.7 1 1.3 3.6 1.6 2.8.5 1.2 1.6.1 5.3.8 2.4 3.4 1 3.4 3.8 2.5 3.9.9 3.7.6.2v-10.3l-.1-.4v-1.6h.1v-94.5zm128.2 60l-1-.6 1.8-1.3 2.5-.8 5 1.3 4.7 1.7 4.8 8.1 1.8 1.3 2 7.7-2.9-2.9-2.7-.9-1.5-1.8-2.5-1.4-1.4-2.8-6-5.4zm-136.1-60l2.4 2.4 1.7-.2 1.3.9h1.5l-.3-1.1.5-.6-2.3-1.1v-.4h-.4l-.3.4h-.7l-.5.7h-1l-.7-.3.3-.7zm0 0"/><path d="M176.3 167l3.6-.8 7.9-.2 1.7 2.8 2.5-.5 1.4 1.7 3.3 2.3 13 .7 2.4 1.3 1.6 1.6.7 3 4 7.2-.3 2.7 1 1.8 3.4 3.6 2 .7 2 1.5 3.5 4 3.3 2.9 2.1 5 4.3-4.5 1.6-.5-.3 1.7-1.2 3.1.4 2 2.8 3.8 6.4-4.5 1.6.3 3.4-2 .4-1.6 1.5 1 .6 1.7 1.2.8 1.8 4 3.7 3.2.5-1 2.9 2.6.9-.6.4-1.5 1.1-.7 1.1.4 2 1.9 1.8 2.7 1.4 5.8 1.7 1.6.4 6.5 2.2 1.6 2.4 4.2 3.2 2.4 2.2 3.9.3 3.9 3-1.7 1.1-1.5h1l.4-1.4 1.1-.9.3 2.2-.5.8.1.9.8 2-.6 2-1.2-.9-1.2.4-1-.4v-1.6l-.6-.2-1 1.2.9 1.1v1l-.9.6-.7-.5-.3.7v3.2l-.6 2.5 2.1 2 1.7 4.8 1 7.1-1 1.7.6 3.4h1.5l.2-.5.8-.4 1.9.4-.3.5h.7v-.5l2.6-.5.6.2v.8h154.6V0H176.3zm120.2 106.7l.5-1.4-.5-1.1.7-.2.4 1h.7l1.2 1-1.5.7zm-54.2-68.2l1-.2-.1 1zm13.4-3.1h.6v.6h-.6zm-28.3-9.4l.7-.4.5.9v1l-.7-.2zm62.3 44.1l.3-2.1 2-.3 1.8 1 2.3 3.7-.1.6-1.4 1.2v.8h-.6v-1.4l-2.5-2-.6-1.6zm5.5 33.9v-.9h.6v.9zM176.3 0h279v-279h-279zm-279 0h279v-279h-278.9zm0 0"/><path d="M-102.7 279H20l.5-3.3 4.1-11.6.7-9.5 3-9.8 7.7-12.5 4.2-2.6-3.4-5 1.8-4.7v-6.8l-4.1-2.1 1.2-5.1.6-7-4.7 1.3-2.8-5.9 5.7-1.3 3.3-2.5 6.2 1.7 3.2 5.7 2.4-2 7.5 1.8 4.4-1.7 2.9-8.1 4.4 4.9 6.5 1.8 12 1.9 6.7-3 2.1.4 3.6-1 3.3-2.6 4.8-.7 9.3-7.3 5.3-2.1 3.1-2.6 7 .7 3.8-3 3.1-4.2-1.2-6.4 4-3 5.4 5 7.4-4 11 6.6 3.4-3.2 5 1 2-.2V0h-279.1zm0 279h279v-66.4l-2.1-.5.9-7.3v-1.3l.4-1 .5-1.9-1.3-1.3-1.4 1.4-2 .6-2.4 4.8-1.9 2.3-2.4-.5-2.6-2.7-1-9.6 3.3-7.6.9-.8 1.1-1.7v-1.9l1.2-1.5 1-2.8 2.2-1.7 3-4.7 2.3-.9.4-.3v-58.4l-.8-.2-1 1.8-2.2-2.1 1.6-2 .4-2.1 1.3-.2.3-2-1.6-2.7-2-1.7-.4-3.3-1.8-.4-10.1-.1-1.5 2-1.4-1.1-2.2.3v2.7l-.7 2.1.3 1.5-.5 3 .7 3.9-.9 4.6-1.7.6-3.2-2.8-1.4-2.5-.7-2.4-1.2-.8-2.3 2.2-.4 1.8-1.4-.2-2.6.8-1.9 2.2-.8 2.8v2.7l1.5 2.3.2 2.3-.5 1.7-3.6 1-1 2.3-.6 5.2-1.1 2.3.8 3.2h-1.6l-1.6 2-.3 2.6-2.3 5.4.2 3.6-.9 3.1-.3 3.4-2 2.9-.2 2.6-4.6 1.4-7 6.3v3.3l-1.1 4-2 2.9-6.3 5-3.8 1.1h-2.5l-2.5-.8-1.3 3.5-.8-1.5-.7-.2-1.4 1.5-1.8 1.1-2.2-1.5-1.9-2.6-.6-3.9-1.1-.5v-1.2l.6-.4 1.1-6.7-.8-1.4.4-.8 2-1v-3.8l-1.2-5.4 2.9-.7 1.7-1.8 1.9-.8.4-2.3 2.7-2.4-.3-1.9 2.7-1.4 2-2.3-.3-2.1.7-2.5-2.3-4.8 3.6-3.2 2.5-1.4 1.4-5.1v-3l-1-4.2V403l1.5-.9 1.4.9 1.3-.8 1.5-10.4-1-1.2.2-2.3 4.6-8.4.4-3.2 2 .1.7-6.8-1-.9-.1-2.3.7-1.5-.3-2.9 1-2.4-.4-4.8-1.8-2 .2-2.4-.9-1.8-2.6-.3-2.1 1h-3.1l-6.8-2.1-6.4-7.6-2.1-.8-1.3.6-.2 2-2.3 4.3-2.2 2.5-8 5.5-4 5.6-.3-3-1.2.3-.8 2.6-2.6.6-1.9-2.3-.5 1.4-2.2 1.6-2.2-.9-2 2.4-2.6.2-4.6-1-1.1 2.2-6 .2-1.4-2h-3l-1.3-1.3-2.5-1.4L28 357l-4-3.7-1.7-3.3v-4.4l1.8-2.6-.7-2.8.6-9.1-2-7.5-.8-8.1-.8-17.9-1.4-11.4 1-7.2h-122.7zM104 394.2h1.1v1.8l-.6.2-.7-.9zm.1 0"/></g><g fill="none" clip-path="url(#C)" mask="url(#B)"><g stroke-linejoin="bevel" stroke-width=".8"><use xlink:href="#E" stroke="#fff"/><use xlink:href="#E" stroke="#8d618b"/><use xlink:href="#F" stroke="#fff"/><use xlink:href="#F" stroke="#8d618b"/></g><g stroke-linejoin="bevel" stroke-width="2.2"><use xlink:href="#G" stroke="#fff"/><use xlink:href="#G" stroke="#8d618b"/><use xlink:href="#H" stroke="#fff"/><use xlink:href="#H" stroke="#8d618b"/></g></g><defs ><path id="E" d="M1.2 51.2l-.9.8-1.9 1.5-1.8 1.6-3.8 3.1-1.9 1.7-1.9 1.5-1.8 1.6-2 1.6-3.6 3.1-5.6 4.8-1.9 1.5-2.1 1.6-1.6 1.6-.7.6-.7.2-2.2 1.3-2.1 1.2-2.1 1.1-2.2 1.2-2.1 1.1-2.3 1.2-2 1.2-2.2 1.1-2.1 1.2-2.1 1.2-8.6 4.5-2 1.3-2.2 1.1-6.5 3.5-.7.5"/><path id="F" d="M69.8-5.6l-1 .8-2 1.5L65-1.6 63 0l-1.9 1.5-2 1.5-3.6 3.2-2.1 1.6-1.8 1.5-3.9 3.2-1.9 1.5-1.8 1.6-2 1.6-2 1.6-1.7 1.6-2.1 1.5-1.7 1.6-2.1 1.6-1.7 1.6-5.8 4.7-2 1.6-1.7 1.6-3.9 3.1-3.8 3.3-1.9 1.5L9.7 44 6 47.2l-2 1.6-1.7 1.5-1.1 1"/><path id="G" d="M60.4 2l-1.2 1-3.8 3.2-2 1.6-1.8 1.5-3.9 3.2-1.9 1.5-1.8 1.6-2 1.6-2 1.6-1.7 1.6-2.1 1.5-1.7 1.6-2.1 1.6-1.7 1.6-5.8 4.7-2 1.6-1.7 1.6-3.9 3.1-3.8 3.3-1.9 1.5L9.7 44 6 47.2l-2 1.6-3.6 3.1-2 1.6-1.8 1.6-3.8 3.1-.9.8"/><path id="H" d="M129.6-54.1l-.8.6-3.8 3.2-5.9 4.7-2.1 1.5-1.9 1.6-1.8 1.5-2.1 1.6-1.8 1.6-2 1.6-2 1.5-1.8 1.7-2.1 1.5-1.8 1.5-2 1.6-2 1.6-5.7 4.7-7.8 6.3-1.9 1.5-1.9 1.6-2 1.7-1.8 1.5-2 1.5-1.9 1.6-2 1.6L67-3.3l-2.1 1.7L63 0l-1.9 1.5-.7.5"/></defs></svg>