<svg xmlns="http://www.w3.org/2000/svg" viewBox="0 0 497 279"  xmlns:v="https://vecta.io/nano"><path d="M0 0h497v279H0z" fill="#f2efe9"/><g fill="#aad3df" fill-rule="evenodd"><path d="M435.4 136.5v.7l.2 1.3v3.2h.2l-.2 2.3v.2h-.1v.1l.2.3h.2l.2.3v.1l-.2.2h.1v.8h-.2.4v-1.2l.3-.2h-.3v-.4h.1v-.2h.2v.5h.4v.1h-.2v.2l.3.3v.8h.2v.2l.3-.5v-.2h.4l.1-.1v-.3h.3v-.2l.6-.2.3.2v.2l.3.2h.2v.1l.3.2v.1h.2l-.2.8-.5-.1h-.3l-.1.2-.2.7h-.2l-.1.3-.2.8.1.1h.3v.4h.3v.2h-.3l.2.2h.2v-.1.1h.4v.3h-.3v.4l.4.2.2.2h-.1v.2h-.4v.4h.2-.3v.2h-.3v.8l.5-.9h.5v-.4h-.2v-.2l.2.3h.2v.1h.2v-.1h.1v.6h.1l.3.4h.1v.6h.2v.4h.2v-.9h.6v.3l-.1.2v.2h-.1v.1h.1v.1h.4v.3l.3.6v.6l.1.4v.1l-.3.1h.2v.2h-.1v.1l-.1.2h-.5l-.3-.3h-.2l-.1-.4-.5.2v.1h-.1v.2h-.2v.5h-.1v.4h-.4l.2.3h-.1v.5l.3.1h-.1v.6h.3v.3h.4v-.3h.7v.5h.5v-.4h.8v.9l.1.1h.4v.4h.3l.1.1h.1l.1.2v.1l.2-.4h-.3l-.2-.2h-.1v-.2l-.2-.1v-.1l-.1-.2h-.1l-.3-.4.2-.6v-.3h.1v-1.3h-.1v-.4h-.2l-.2-.5h.2v-.1h.4v.2h.1v.2l.5.2h.2v1.4h.4v.1h.6l.2.3h.3l.1-.3v.1h.5v.2l.4.1h.3v.3h.4v.6h.2v.5l.2.8.3.1v.1l.2.1v.4l.2.2.1.1h.3v.2h.2v.2l.4.2v.1h.1v.4h.3v.1h.2l.1.5v.3h.5v.3h.5l.1.3h.1v.1h.2v.5h-.1v.2l-.3.1v.2h.3v.6h-.1l-.1 1v.2h.1v-.2l.3-.1v-.2h1v.3l.3.6v.4l.2.2v.7l.1.3h-.3v.2l-.4.3v.4h-.6v.3h.6l.1.4h.5l.3-.1v-.2h.1l.1-.1h.3v.3h.3v.4h-.1v.2l-.2.3h.4v-.2h.3v.3l.2.2h-.2.9v.4l-.2.2.2.2v.4l-.3.5v.2h-.3l-.1.3-.2.5h.2v.2h.1v.3h.4v.1l.3-.2.1.1v.4l-.2.3v.8l.6.1v-.2h.1v-.1h.5l.1-.2h.2v.2h.4l.3.4v.2h-.1v.2h.3v.1l.3.2v.3h.3l.1.2h.3l.1.4-.1.2v.1-.1l.4.2h.2v.3h-.8l-.1.3.1.2v.3h.2v.3h.1v-.3h.7l.5.2.1.1.6.2v.2h.4l-.1.3v.1h-.1v.7l.7.1v.2h.8l.3-.8-.4-.7-.2-.7v-.4h-.4v-.6.3h.2v.3h.3v.4h.2v.1l.3.2v.7l.2.2.2.2v-.2h.3v.2l.3.2v.7l.4.2h-.1v.3l.4.5h.3v.3h.2v.1h.6l.1-.1h.7l.1.7h.2v.3h.6v-.2h-.4v-.3h.9v1.9h.1v.6h.3l.2.4.1.2v.1h.1l.2.6h.3v.5l.3.2.3.9h.3l.2.1v.1l.1.1v.3h.5v1.1l-.7.4h-.1v.8l.5.2v.2l-.3.1h-.1l-.3.7h-.2l-.2.1h.3v.3h.2l.2.2v.2h.2v.3h-.4l-.3.2v.2h-.2v.1l-.2.1v.1l.2.2h.1l.1.2h.3l.1.1v.2h.2l-.1.1.4.4v-.3h.1v-.2h-.2l.1-.5.3-.2v.2h.7v.4h-.1v.2l.1.2h.1v.2h-.2v.3h-.4v.3h.3v-.2h.2l.5.2v.1l.2.1h.3l.1-.2v.8l-.3.1v.1h-.4l.2.4h.5v.1l.8.4v.2h.3v.1h.3v.3h.2l.1.6.5.2v.1l.3.1h.5v-.2h-.2v-.4l.4.2v-.1h.4v.3h-.4v.7l.2.1v.5h.6v.2l.2.2.4.1v.1h-.2l-.2.2h.2-.2v.3h-.3v-.2h-.1v.3l.1.1h.3v.2l.5.3v-.2l.4.4v.4h.1v.4h.4v.6h.2v-.2l.1.1.3.7v.2h.4v.2-.2l.2.3-.2.3h.1l.3.5v.2h.1l.4.2v.2h.2v.3l.7-.2h.2l-.1-.3h.2v-.3h.2v-.1h.3v-.5h.5v.4l.2.6-.2.4-.3.1v.3l.3.1h.1v.1h.1l.1.5h.4v-.3h.2v-.1.4h.5v-.3h.4v-.4h.2v.6h-.2v.1h.2l.2 1.3.3-.2v-.1l.3-.1.2 1.2h.2l.3-.5v-.1.4l.5.1.2-.1.3.2v.6l.4 1.2.2.6.2.3.4.3h.6l.3-.2.5-.2h.2v-.1h.1v-1.6h.5l.6-.1v.5l.3.1v.3h.7v-.1l.3.2.1.5h.4v.5l.5.1v.1l.4.2h.3v.2l.2.1h.5l.3.3h.7l.1-.1v.8l-.5.2-.2.4.3.3h-.4v.4h.3v.4h.4l.3.3.2.4h.8v.5l-.2.6h-.1v.4h.6v.5l-.1.3h.3l.1.2v.4h.4l.1.3h.2v.5h-.6v.4l-.2.2h.1v.2l.5-.3v.3-.4h.2v.2l-.1.3v.2h.1l.2.3-.2.2h-.3l-.2.2.2.1v.2h.3l.1.5h-.3v.2h-.4l.3.9h-.3v.2h-.2l-.2-.1h-.3l.2.1v.4l.5.2v.1h.3l-.3.7-.3.2.1.2h-.1v.3h1v.4h-.2l-.2.2h.4v.2h-.1l.6 1.6h.2v.2h.6v-.2h.1v.4h-.5v.4h.2l.3 1.1.5.1.4-.3v-.1h.2v-.1l.3.2h-.4v.2l.3-.2v.2h-.1l.2.8.2.5h.4v.1l1.1-.2h.1l-.2-.3h-.1v-.8h.2l-.5-.5v-.1h-.1l-.3-.3h.2v-.4h.2l.6.3v-.2.2-.2h.4v-.2l-.5-.8.1-.2.3-.1.5.1v.5l.4.2.1-.2v-.4h-.1l-1.3-3h-.1v-1l-.3-1.1-.4-.8-.2-.8-.3-.3-.3-.9h-.1l-.3-.4h-.2v-.2h-.2v-.3h.1-.2v-.3h-.1l-.4-.9h.1l-.4-.5v-.4h-.2l-.1-.4h-.3v-.2l-.2-.5h-.6l-.4-.6.2-.1v-.2h-.4v-.4l-.2-.1-.2-.6h-.2l-.3-.6h-.1v-.1l-.2-.1-.2-.2v-.5h-.4v-.3h-.1v-.3h-.2l-.1.1h-.2l-.1-.6.3-.2v.3h.4l.2.2-.2-.4v-.4h-.1l-.5-.9h-.2v-.2h-.4v-.2h-.1l.1-.2h-.2v-.2h-.3v-.4h-.1l-.5-.8h.1l-.6-1.3-.5-1.5-.4-.7-.4-.2v-.1h-.1l-.2-.5h-.7v-.3h.1l-.1-.3-.5-.2-.2-.4v-1.1h-.1V200h-.1v-.1l-.2.1h-.6l-.2-.3v-.2l-1.1.2v.1l.2-.6-.1-.2h.4v-.6l-.8-.1v-.3h.2-.1l-.1-.2h-.4l-.1.2v-.2h.1v-.1l.2-.1v-.2h-.5v.1h-.1v.3h-.5l-.3-.3h-.2v-.5h-.2v-.2l-.3-.1-.1-.3-.2-.1h-.2v-.3h-.5v-.1h-.2l-.5-.2v-.2l-.4-.2v-.3h-.2v-.1h-.6l-.2-.2-.2-.3-1-.4-.3-.3h-.1v-.1h.2v-.3h-.1l-.2-.5h-.1l-.1-.1v-.1h-.3l-.2-.3-.1-.4.2-.7h.3v-.6l-.5-.2v-.2h.1l.1-.3h-.1v-.6h-.1l.4-.7h.2v-.4h-.4v.3h-.1l-.3.2h-1v-.1l-.4-.1v-.3l.3-.2v-.7l-.2-.3v-.3l.2-.2v-.3l.1-.9v-.3h-.5v.7h-.2v.1-.2h-.4l.1-.4-.3-.2v-.2l-.6-.1v-.2l.3-.8h-.3l-.2-.7h.1v-.6l-.5-.2h-.3l.2-.4h.1v-.2h.2v-.6l-.3.2-.2.3h-.3v-.1l-.2-.4-.3-.4h-.1l-.4.1v-.3h-.2l.2-.1.2-.8.1-.1v-.4h.3v-.3l.5-.2v-.2h.2l-.2-.7h-.3l-.2-.1h-.2l-.1-.5h-.7l-.7.2h-.3v.2h-.5v-.4h.4v-.6l.3.3v.1l.3.2h.5l.2-.3.4-.2.1-.2.1-.3v-.2h.1v-.5h-.2v-.1l-.2-.4-.3-.2h-.3v.1h-.2l-.7-.1v.3h-.4v-.4h.6v-.5h-.2v-.4l.1-.3h.5v-.3h.2v-.3h-.3v-.2.1l.4-.3h.3v-.2h.3v-.2l-.2-.1h-.1l-.1-.2v-.6h.4v-.3h.1v.3h.3v.3l.3.7v-.4l.2-.6v-.1h-.3v-.7h.1v.4l.2.3v-.3l.3-.3.2-.2v.2h.6v.3h-.1v-.3h.5l.1-.6h.4l.1-.4v-.3h.3v-.4h.1v-.3l.3-.1v.2h.1v-.2h.5v-.2l.4-.3h.1l.2-.2h.9v-.3h.4l.2-.4h.1l.2-.1v-.1l.4-.1v.2l.5-.1v.4l-.4.1v.2h-.2v.6h.3v.3h.1l.2.1v.7-.1h.2l.2-.9h.2v-.3h.6v.5h.2l.2.4h.2l-.2-.6v-.1h-.1v-.4l-.5-.5h-.3v-.1h-.2v1h-.3v-.5h.2v-.3h-.3v-.4h.4l.1-.2v-.7h.2v-.1l.5-.2v-.1h.2l-.2.2h1.1l.1.2.1.3v.2h.1v-.1h.1l.4.2v.2h.2v.3h.2v.4h.4v.1l.3.1-.1.6-.2.1v-.2l-1 .1v.5l-.5.2v.2h.2v-.2h.5v-.5l.4.1v-.2h.4v.3h.1v.3h.3v.2h.2l.2.2h.2v-.5l.4.1v.1l.2.6h.4v.3h.3v.1h.1v.2h.4v-.2l.3-.2.2.6h.7v.1l-.2.2h.2l-.2.2-.5 1.2-.1.3v.2h.1v.2l.3-.1.1-.4h.1l.2.4-.1.2.1-.1.3.3h.1v.3h.4v.1h.3v-.1h.2v-.3h.3l.2.3v-.3l.2-.1.2.3.2-.1.6-.2v.4l.3-.1v.1h.3v-.1h.2l.2.6-.2.2v.5h-.8l-.9.2-.2.1.3.6-.2.6h-.3l-.2.7v.3h.1v.3l.3-.8.5-.2v-.3h.2v-.3h.2l.2.3v-.4h-.4l.2-.5h.7l.5-.1h.4l.2-.3h.4v-.4l.6-.3v-.5h.6l.2-.5h-.2v-.1h-.7v-.3.2-.2h-.1v-.4.2h.3l.1-.1v.1h.1l.2-.7h.4l.2-.1.2-.2v-.4h.3v-.4l.6-.2.1.4h-.1l-.1 1.2-.3.2v.3l.2-.1v-.3h.4v-.1l.1-.3h.2v-.2h.2v-1.1h.2v.3h.1v-.2l.2.2v-.2h.3v-.5h.3l.4-.5.7-.2v-.2h.4v.5h.1l.1.4v.6l.3.8v-.4h.4v.6-.2.2l.4-.2.1.3h.3v.3l-.2.6h-.2v.4h-.2.3l-.1.3h-.4l-.1.2v.7-.2h.3-.2l.3.2v.1h.1l.1.4v.3h.2v.2h.3v-.2h.2v.3h.1v-.3h.1l.2.3h-.4v.9h-.1v.2l.8.3.1.2h-.2v.1h-.2l.1.1v.4h-.2l.3.5h-.2.1v.2h-.5v.3l.1-.2-.1.2v.2h-.4l.2.7h.1v-.2h.3l.2.1v.3h.2l-.1-.2h.2l.1.3h.2l.1.3h.2l-.3.3.6.2.2.2v-.3l.1-.1-.1-.1h.2v.2h.3v.4h.3v.2-.3l.4-.1.3.2v.2l.4.1v.2l.3-.1-.2-1-.3-.2h.5l.1-.2v.4l-.1.1.2.7h.4l.3-.5.1-.1v-.2.1h-.4v-.3h.5l.4-.1.3.2v.4h.3v-1.1h.3v.1h.3v.3-.1l.3-.1h.1v-.4h.2v-.2l-.2-.2h.1l.1-.2v-.2h-.4v-.1h-.1v-.1h.3v-.2l.4-.1v-.1h.3v-.5h.1v.2h.1l.2-.1-.2-.5h.6v-.4h.2l.2.3h-.2.3v-.1h.1v-.2h.2v-.3h.1v.4h.3l.3-.1v.3l-.3.1h.5l.1.1h.2v.3h.2v.5h.2l-.2-.2.5-.2-.1.3v.5h.2v.1h.2v.3h.4-.2v.1h.3v.1l-.2.2.5.2v-.5l.3.3v.6l.1.4h.2v.1h.4v-.1h.7l.1.2v-.2h.3v-.4h.2l.3-.1h.1v1.3h.4v.2h.1v-.1l-.1-.2v-1.1h.1v-.2h.1l.2-.4v-.7l.2-.8h.3l.1.6v.1h-.2l.2.6h.3v-.2h.3l.1.1h.3l-.1-.4h.1v-.3h.2v.6h.4l-.2-.3h.7l.5-1.1h.7v-.2h-.3v-.2h.3v-.2h.2v-.5l-.6-.1h-.2v-.2h-.2v-.2h.3v-.4l.2-.2h.3v.3h.3v.3h.1v-.2h.2v-.2l.4.3v1.4h-.2v.2h-.2l-.1.6.3.3h.2v-.4h.3v.4h.2l.4-.3v.3h.6v.5l.1-.8.3.3h.1v.3l.5-.1v.2h.2v-.3h.3v-.2h-.2v-.2l.2.2.1-.5h.2v-.3h.2l-.1 1.2.3.6h-.2l.3.8h-.1l.1.1.3-.2.1.6h.4l.2-.2v-.2l.2.3v-.4l.2-.1v.1h.2v-.6l.1.1v-.3h.5l.1-.1-.1-.3.6-.2v-.1l.8-.2v.3l.2.1v.1-.2h.2v-.3l.2.6h.2v-.4h.4v-.6h.3v-.6h.4v.3h.1v-.1l.6-.2.2-.5.3-.1.2.1.3-.1v.2l.4-.7v-.2h.1v-.4.2h-.1v-.5h.2v-.3h.3v-.4h.1v-.5h1.2v-.4h-.2v-.4h.7v-.4h.8v-.2.2h.5v.2l.1.2.2-.1h.1v.4h.1v.3h.2v.3l.1.1.3 1v.2h-.1v.4h-.1v.3l.5-.2v.4h.5v.3h.2l.2.6h.2v.7l-.1.6.4-.3.2-.3.2.6h.4v-.3h.1l.3.4h-.2l.2.4v.1l.8.2v-.1.2l.4.1h.1v.1h.2v.2l.4-.2v.2h.1l.2.3.2.1v-.5l.2-.1.2.3v.5l.4.1v.3h.1v.2h.7v.4h.1v.1l.3.2h.4v.2l.2.2 1.1.1h2v.5h-.1v-.4h-.2v.3h.1v.2h.2v.2h.2l.2.3v.2h.1v.4h.3v-.2l.1.1-.2-.3v-.4h-.3l-.3-.7h-.1l-.2-.5h-.1l-.4-.5h-.3v-.2h-.3l-.2-.5.5-.1.4.2h.5v-.6h.3v-.1l.2-.2.2-.5h.3v.1h.2v.3h.2l.1 1h.1l.2-.8h-.2l-.1-.8h-.2l-.2-.3v-.1h-.4v-.1l.5-.2v-.3h.2v-.2h.1v-.1h.1v.2h.2l.2.1v.2h.3v-.2h-.4v-.6h-.2v-.1h.3v-.3h1v-.2h-.1v-.3h-.3l-.2-.3h-.2v-.1h-.1l-.2-.1h.4v-.6h.2l.5-.4v-.3.1h.4l.1.5h.5l.1-.7-.1-.1h.4v-.6h.3v-.2l.1-.1v.2-.3h.5v-.7h-.3v-.3h.4v-.7l.2-.1-.2-.8h-.2v-.8.3h-.4v-.7l-.1-.2-.2-.2-.5.1v-.2h-.2l.2-.2v-.3h-.4v-.4h.4l.5.3v-.3l.5-.1v-.2h.3v-.1h.1v-.1h.3l.1-.8h.2l-.1-.7h-.2v-.6l.1-.4h.2-.2v-.3h.7v-.3h.2v-.1h.1l.2-.3h.2v-.6h.3v-.9l.2.2-.3-.2v-.2h-.2v-.3l.4-.1v.2h-.2v.2h.6l.1-.3h-.1l.1-.2.1.3h.5-.1v-.1l-.2-.3h.1v-.1l-.8.2.3-.3.1-.2h.1v-.2l.3-.1.2-.3v-1h.3l.7-.3h.3l.4-.1v.1h1l.1.3h.2l.1.4h.2v-.2h-.2v-.3h.2v-.1h2l.7-.4.3-.4h.3l.2-.5h.1l.1-.2h.1v-.2.1h-.1v-.2h.3l.5-.5v-.1l.9-.2v-.2h-.1l-.7.3h-.3v.2l-.8.3-.1.7v.2l-.6.2h.3-.2v.2l-.2.2h-.3l-1 .5.4-.3v-.1h-1.1l-.2-.1H562v-.3l-1.2.3-.1-.1h-1.1v-.2l-.3-.2v-.3h.1l.1-.2h-.4v-.1H558v-1.4h-.2v-.1h-.2v-.7h-.2v-.2h-.6v-.3h-.3v.2l-.5.3v-.3.1h-.8l-.3.3v.2l-.6.2v-.2h-.2v.3h-.5v.2h-.6v-.1l.3-1h.1l.2-.1h-.1v-.4h-.9v.1h-.3l-.3-.5-.4.3v.3l-.2-.4h.1l-.1-.8h-.4v.3-.2h-.3v-.3h-.5l.1-.6v-1.1h.3v-.5l.2-.1v-.7l.2-1h.2v-.7h.6v-.1h-.4v-.2h-.2.3v-1.3l.2-.4h.3v-.3h-.3.2v-.1h.1v-2.4h-.1v-.5h.2-.3v-.5l.3-.1-.1-.5v-.1l-.5-.1v-.3l-.3-.2v-.1l-.1-.3h-.2l-.3-.8-.3-.2-.1-.3h-.2l-.3-.3-.3-.5-.4-.2v-.3h-.5l-.3-.2h-.1l-.3-.2v-.2l-1-.6v-.2h-.2v-.1h-.2v-.1l-.3-.2v-.1l-.1-.3h-.1l-.3-.5h.1v-.2h.3v-.4h.2l.1-.4v-.1h.3v-2.8h.2v-.6l-.1-2h.3v-.8h.3v-.3h.3v-.3h.2v-.1h.2v-.5h.3v-.1h.1l.3-.6h.1l.2-.4.1-.1v-.2h.3v-.2h.2l-.1-.1h-.3v-.1l.4-.2v-.1h-.4l.1-.1v-.3l.1-.3h-.2l-.1.2h-.1l-.1-.1h.4v-.3l-.2-.4v-.4h-.5v-.8h.4v.4-.1l.3-.3.6-.2v-.2l-.1.1h-.3.2v-.3h.3v.1-.2h.4l-.9-2.1-.1.1.2-.3v-.3.1h-.2l-.2.3-.2.2v-.5h.2l-.2-.2h.3v-.1l.2-.2v-.4h.5-.4l-.3.1v.2h.2-.2v.3l-.3.1-.2.1v.1h-.1.2l-.1.4h-.2l-.6-.6h-1l-.5-.3v-.1h-.2v-.2l-.4-.2-.7-.2v.2l-.2-.2-.1-.2-.2-.2v-.1h.3l.3.2h.2l-.4-.3v-.1l-.1-.2.4.1.1-.4v-2h.1v-.8h.8l.2-.9h.1v.3l.3-.1h.6v-.4h.6v-.3h.4v-.3l.4-.2h.2v-.1h.1v-.2h.2v-.3h.3l.2-.5.6-1.3V109h.2l.1-.7h.2l.5-2h.1v-.6l.3-.3.3-.7v-.2h.3v-.2l.2-.4h.1l.1-.3.2-.3v-.2h.1v-.1h.1l.3-.8v-.1h.3l.2-.5.4-1.7h.1l.4-.7h.2l.1-.4h.2v-.4l.6-.3-.2-.1h.1v-.5h.3l.2-.7.1-.6h.3l-.2-.4.1-.4.2-1.4v-1.3l-.2-.7-.6-1.1h-.3v-.4h-.1v-.2h-.2v-.1l-.2-.2v-.2h-.4v-.4h-.1v-.1l-.6-.9v-.3l.1-1.7v-.2l-4 2.4v.1l-.4 1.5h-.1l-.1.5-.3.2-.2 1.1h-.2v.4h-.2v.3l-.3.7v.5l.1 1.5h-.2v.9h.2v.5h-.1l-.3 1.2-.2.8h-.2v.4h-.1l-.1.2-.3.2v.4h-.1v.4h-.3l.3.6-.2 1.9h-.1v.1l-.7.4h-.1v.1h.3v1l.7.5h.4v.3l-.5.5-1.2.4v.1h-.8l-.7.7v.2h-.1l-.4.4v.2h-.1v.2h-.2v.2h-.4v.2l-.2.6h-.1l-.3.6h-.1l-.6 1v1.2h-.3l-.2-.4v.3h-.1l-.4.3v-.3h-.3l-.3-.7h.2l-.3-1.3h-.3l.2-.2h-.1l-.2-.5.2.2.3.6h.1v-.3h.2v.2h.2v.1h.1v.3l.3-.1v.4h.1v-.2l-.3-.6-.8-.6h-.1l-.2-.8h.1v-.2h.4v-.3l.5-.3v-.1l.4-.3h.2l-.4-.8h.3l-.5-.6v-.5h-.4l-.2-.2v-.2l-.6-.2v-.1h-.1v-.1h-.4v-.3l-.3.3h-1.5l-.3-.3h-1.5l-.7-.2v-.4h-.2v-.1l-.6-.9-.5.7v.3l-.2.1v.2l.1 1-1 .3-.3.4-.3.1v.2h-.3v.2h-.2v.1l-.5.2.2.5-.2.3-.2-.1-.1.4.2.7h.3l.1-.3h.2v.2h.7v.1l.2.1h.2v-.3l.1.2v.6h.3v-.2h.3v.6l.2.5v.3-.3h.4v-.3h.1l.1.1v.2h-.1v.2h-.1v.4h-.1l.1.6h-.1l-.1.3h-.3v.3h.1l-.2.2v-.1l-.5.8-.1.3-.1.4h-.2l-.2.7v.8h-.4l-.1.1v.5l-.1.6h-.2v.7h.1l.1-.3h.1l.1.3-.2.2h.2v-.2h.3v-.3h.1v.7h.1l-.1.3v1.7l.2-.3v1.2l-.2.7v-.1l.5-.9.6-.1.3-.2.1-.5-.1.1h-.4v-.3h.2v-.5l.6-.1v.1l.5.2v.1h.5l.4-.1h.2v-.2l.4-.2v-.2l.3-.1v-.1h.2v-.2h.3v-.9h.5v-.4.2h.3v-.4h.1v-.1l.2-.1v-.3.1h-.1v.3h-.2l.4-1.6.6-.3v-.1h.2v-.1l.2-.1-.1.4h-.2v.3h-.1v.1l-.6.4v.6h.1v-.2h.2l.2-.8h.2l.3-.3v-.4h.2v-.1l1.3-.3v.2h.2l.9.1v.3h.4v.9h.2v-.4l.6.3v.7l-.1.3v.3h.4l-.1.4h-.1v-.3h-.2v-.1h-.2l.4 1.1h-.1v.3h-.3v.1h.3v.3h-.2v.2l-.6.1v1.1l-.4.2-.1.5h-.3v.3h.5v.2h.1l.4.2h.4l-.1 1.1h-.2v.2l-.5.4v.1h-.3v1.2h-.3l.3.7.2.5h.3v-.4h.1l.1.3h.1v.3l.8.2h.5v.2h.8-.4v-.2h.1v-.4h.4v-.4h.2v.2h.6l.1.5h.1v.3l-.2.3v.1h.3v.3h-.6v.3l.2.4h-.1v.2l.2-.1v.2h.6l-.2.5h-.2l.3.1v-.3l.2-.1h.3v.1h.1v.2h-.4l-.2.6h-.2l-.2-.4.1.4h-.4v.1h-.3l.2.2h-.4l-.4.4-.2.1v1.2l-.2.1v-.1.1h-.2v.4h-.3v.2h-.3v.1h-.2l-.5 1.6h-.2v-.5l-.4.3v.2l-.3-.1h-.1l-.1 1.3h-.4v.2l-.4.6h.1-.3l-.3 1h-.2v-.2l-.5.1v.4h.2v.3h-.4v.8h-.4v1.1l-.4 1.3.4.2v-.2h.4v.4h.2v.3h.3v.4h.3v.2l.3.3v.1h.1v.3l.2-.2v.6h.1v-.1h.1v-.3h.7l.1.2v1h.2v.3h.2l.2.2h.5l.3-.4v-.2l.4-.2v.2h.3v-.2h.1v.3h.4v.3l-.5.1v1h-.2v.3h-.1v.5l.4.1v-.1h.4v.2h.6-.1v.7l.5.1.3-.2h.2l.2-.2h1.1v-.4h.6l.2-.2v.2l.2-.4h.2l.4.2v1h-.2v.3h-.2v-.2l-.1-.2v.2h-.5v-.2h-.3v-.3.5h-.5l.2.2h.2l.2.4h.8v.3h.2l.2-.3v-.1h.2v1.2h-.3l-.2.2-.3.6h.3v.5h.3v.1h.3l.2.3-.6.3-.3.2v.1h.1l.3.7h.1v.3h-.1v.3h.4v-.2.2l-.2.4v.4l-.2.2h-.4v.4h.3l-.3.7-.3.1-.2.8h-.2l.1.2h.1-.3v.1h.6v.4h.1v.2h.1v.1l-.2.2h.2l.2.4v.6h-.2v1.4h-.4v.8h-.2l.1.6h-.1v.6l.3.3-.4.3v.3l-.6.2-.2-.2v.4h-.3v-.2h-.2v.5-.3.7h-.3l.3.1v.3l.1-.3.1.2-.1.3h.1v.4h.2l-.4.6h.3v.5h-.3v.5l.2-.2.1.2v.2h-.2v.1h-.1v.3h-.3l-.1.1v.3l-.4-1v-.3l.1-1h-.8v-.2h.2l-.2-.2v-.4l-.2-.1v.2l-.3.2v-.2h-.5l-.1.6-.2-.3h-.2.2v-.3h.1l-.1-.4-.5.1v-.2h-.1v.3h.2v.2l-.2.2v-.2l-.2.1h-.5v-.1l-1.3.1v.3l.1.2h.3v.1l-.6-.2v.3h-.4.2v.2h.2l.2.3h.2v.5h.2v.3l-.8.2v-.2h-.4v.2l-.3-.1v-.2.3h-.1v.4h.3v.1h-.2v.3h-.2v.7h-.2v.1h-.3v.2h.5v.2h.3l.2-.1v.2l-.3.4.4-.1v-.3h.3v.3l-.2.6h-.3v.7h-.2.5l.2-.1v.2h.2l.1-.1.1.7-.5.2v.2h-1l-.1-.1v-.7l.5-.1v-.2l-.5-.1v.2l-.1-.2h.1v-.2l.3-.2.1-.4h.2v-.3l-.9.2v-.2h-.3v.1l-1.2.3v-.2h-.5l.3.6h-.2l-.1.6h.1-.1v.3h.2l.1.4h-.4v-.1l-1 .2v-.1h-.6v.2h-.2l-.2.2h-.2v.2l-.6.2-.1.3h-.7v-.4h.2-.2l-.2.1.2-.4h-.2v-.5l-.2-.1h.2v-.2h-.2v-.1h-.2v.4h-.1v.4h-.3v.2h-.2.1v-.3l-.5.4h-.2l-.2-.2h-.4v.5h-.2v-.2h-.1v-.2l-.3-.1v.9l.1.4v.2l-.5.1h-.5l-.1-.3v.2h-.5v-.1h-.5v-.4h-.1v.1h-.3v-.1l-.6.1v.3h-.3l-.2-.3h.2v-.3h-.2l-.2-.4h.1l.6-.3v-.4h-.2l-.2.2v-.2h-.4v.4h-.6v.2h-.3v.1h-.8v-.5l.4-.2v-.2h-.3v.1h-.1l-.1.1h-.3v-.3h.5v-.3l.4-.4h.3v-.4l.2-.2h-.2v.1l-.3-.3h-.4v-.2h-.2v.2h-1.2l-.2.3v.5h-.2v-.3h-.2v.1h-.2l.1-.3-.3-.3v-.1l.1-.2-.5.1v.2-.1l-.4.1v-.1h-.4v-.4.2h-.2l-.4.4h-.3l-1.1-.2v-.2h-.1v-.2h-.2l-.2-.4h.2-.1v-.3h-.2v-1.2h-.4l.4-.1v-.2l-.2-.1h.2l.1-.2h.2l.1-.4.2-.1h.1l.4-.7h.1v-.1l.4-.3v-.3h.2v-.3h-.2l.5-.3.1-.3v-.4h.4v-.2h.1v-.3l-.1-.1v-.2l.2-.5v-.6h.1v-.8l.4-.2v-1.3h.1v-.2l-.1.1-.2 1.2h-.9l-.4.4h-.3v-.6h-.4v.3h-.2l-.2.8h-.1l-.6.2v-.2l-.2.4-.3.2h-.4v-.4h-.2v.2l-.3-.2v.4h-.3l.3-1h-.2v.2l-.4.3v-.2h-.2v.6h-.1v.3h-.3v.3l-.2-.5h.2v-.9l-.2.3h-.7v.3h.1v.4h-.3.2v.4h.1v.1h-.3v1.1l-1.3.4v.5h-.1v.1h-.3v.2l-.5.3v.1h-.2v.7h-.3v.5l-.6.3-.1.3h-.6l-.3-.4h-.2v-.1h-.5v.6l-.2.4h-.2v-.3l-.6-.4v.4l-.5.3h.2v.5h-.4v.2h-.2v.3h-.1v.1h-.2l.1.2v.3h.3v.3h-.1v.1h-.1v.2h-.3v-.2h.1l.2-.2h-.2v-.2h-.5v-.3h-.5v-.1h-1.8l-.6.6v.1h-.1v.2l-.5 1h-.1v.4h-.6v-.2h.2v-.5l-.3-.2v.1l-.3.1-.1-.2h-.3v.4h.2l.1.7-.2-.3h-.3v-.6l-.3.2v.7l-.4-.3-.1-.1v-.7h-.2v.4h-.4v.4h-.2v.1l-.7.1v-.1l-.2.1v-.1h-.1l.1-.5h.1l.3-1-1 .4v.2h-.2v.3h-.3v.1h-.4v.2l-.5.3v-.3l-.5.2v-1l-.2.6.2.1-.5.2v-.3l-.3.3h-.5l-.2-.3-.1.4v-.2h-.2v.6h-.3v-.2l-.4.2v-.1l-.2-.2h-.2v.2h-.3l-.5.3-.2-.5v-.3h-.5v-.1h-.2v.3h-.2l.1.2.3-.3h.2v.5h.1l-.2.2v.3h-.3v-.3.4h-.5v.7l-.2.1-.1-.2v.6l-.4.1h-.2v-.1h-.1v-.7h-.1l.1-.7-.2-.2-.1-1h-.1v-.3h-.1v.5h-.2v-.6h.1v-.1h-.2l-.1.1h-.5l-.1-.3-.5-.1v-.2h-.3v.4h-.4l-.3-.9h-.1l-.2-.4v-.1h-.2v-.3l-.2.3-.3-.5h-.3l-.4-.7-.2.1v.3l.2-.2-.5.5v-.5h-.3v-.5h-.2v.3-.8h.7v-.4h.3v-.4h.3V162h.2v-.4h.4v-.3h-.5v-.1h-.3v-.7l.1-.2.2.7h.3l-.3-1.8h-.1v-.2h-.3v-.2h-.2v-.8h.1l-.1-.6.2-.1.2-.7.5-1.3.3-.1v-.2h.3v-.3l-.3-.1v.1h-.6l.2-.1h-.4l.1.2h-.1v.2l-.2-.1v.2h-.2v-.3h-.4v-.2h.1v-.4h-.4l-.1.5-.1.6h-.1l-.4.1v.2h-.1v.3h-.6v.3h-.5l.2.2.1.2-.2.2v-.2h-.3v.4h-.3v-.4l-.3.2v-.2h.1l-.2-.2.1-.2.3.2v.3l.5-.1-.3-.6h.2l-.1-.4v-.2h.3l.1.2v-.3h.5v-.4h-.5l-.1.4v-.7h.2l.2-1h-.7l-.2-.4h.1l.1-1h-.5l.2.4h-.2v.1h-.2v-.3l.1-.6h.4l.3-.7h.2v-.1l.3.2h.2l-.1-.7h-.2l-.2.1-.3-.4.2-.3h.1l.1-.3h.5v-.3l-.5-.2-.4.2v-.5h-.6l.3-.2.1-.3v.1h.2l.1-.3.1.1v-.1h.3v-.4h.1v-.4h.3v-.3h.5v-.2l.2-.2v.2h.2l.1-.8-.1.1v-.1h-.1v-.3l-.3-.2v-.3h-.2l-.3-.2v-.3h-.2v-.7l.3-.3v.5h.6v.2l.2-.1v.1l.5-.1v-.3h.3l-.1-1.2h-.1v-.2l.6-.1v-.2l.7-.6v-.5h.3v-.3h.1v-.4h.2l-.1-.5h.1v-.1l.1-.3h-.4l-.1-.1.3-.2h.3l.5-.6v-.7h.1-.2v-.3h.4v-.7h.1l.2-.3h.2v-.2h.2l.2-.1v-.1h.2v-.4l.2-.1v-.2h.1v-.4h.1v-.1h.2v-.2h.4v-.1l.2-.2v-.1h.3v-.1h.5v-.3l1.2-.6.2-.1 1 .1v-1h.3v.3h.4l-.5-.5-.3.1h-.1v.9h-.3l-.8-.2v.2h-.2v.1h-.3v.3l-.4.1v-.2h-.1v.2l-.5.3-1.3.6v.1h-.2l-.3.7h-.2l-.2.5h-.3v.2h-.3v.4h-.2l-.1.4-.3.1-.2-.1.2.5h-.2l-.1 1.4h-.3v.2h-.4l-.2.9h-.3v-.5h-1.5l-.1.3v.6h-.2l.2.3h-.3v-.1h-.2v-.2h-.6l-.3.1v.2l.1.3h-.5v.5l.1.2h-.2.1-.5l.1.5h.2l.3 1h.2v.7h-.1v-.2h-.3v-.1h-.2l-.1-.6h-.2v-.1h-.3v.2h-.2v.4h.1l-.1.5h.2-.1v.4l-.8.1v.2l.3-.1.2.3h-.2.2l.1.4-1.1.3v.3h.5v.6l-.2.1v-.1h-.6v.6h-.2v.3l-.2.6h-.4v.7l.3.1-.2.2v.1h-.4v.5h-.9l-.1.6v.3h-.1v.4h-.2l-.2 1.1h-.2v.3h.2v.2h.2v.5l.2.2.1-.2.4.1v.1h.6v1h-.6v.2h-.4l.3 1.1h.7-.6l-.3.1-.2.4v.3h-.2v.2h.5v.1h-.2l-.2.2h.2v.4h-.2v-.3h-.3v1.2h.1l.4.3.3-.2v-.2h.3l.1-.1v-.3h.1v-.2h.2l.4-.2h.4v-.2h.2l.3.9-.1.2v.2h.4v.5h.1v.1h.3v-.4h.1l.2.6-.2.2v.3h-.4v-.4l-.2.3v.2h.2l-.1.6-.3.1v.2h.2-.1v.7l.3.7h-.7v.3h-.2l-.1.1v.8h-.4v.3h.3v.5h-.3l-.2.5-.2.2h-.4v-.3h-.5v-.3l-.3-.1v.4h.1v.3h-.1l-.4.5h-.1l-.2-.2v-.2h-1v.1h-.2l-.1.1v.1h-.3v.4h-.2v.1h-.2v.2h-.3l.1.1h-.3.1v-.9h.1l.3-.2v-.1l-.8.3h-.4v.2h-.9v-.2l-.1-.1h-.5l-.3.1v.2h-.1l-.3.3-.1.5-.2.6-.1-.1-.4 1.4h-.4v.1l.3.3-.3-.1v-.3h-.2v.5-.4l-.2-.1v-1.2l-.2-.2v-.2l-.5.2-.2.3h-.2v.2h-.2v.2h-.2v.2h-.2l-.1.2-.4.1v.3h-.5v-.3l.2-.1v-.1l-.5.1-.3-.2.1-.2v-.1l.2-.2.3-.5v-.2h-.3v-.2.1l-.3.2v.5l-.2.2h-.4v-.1h-.3v-.2l-.3-.1v-.1h-.2l-.1-.5.1-.8h.2l-.1-.2h-.2l-.1.4h-.2v.1h-.1l-.4.2.2-.5v-.6l.2-.3h.2l.2-.2-.1-.4-.2-.1v-.1h.1v-.7h.6v.2h.1v.2h.4l.1.2v.2h.1v-.1h.2l.1-.2-.3-.3h.2v-.2h.2l.3.2-.1.4h.5l-.1.2h.4v.4h.2v-.2h.1v-.1h.2v-.2h.1l.2-.7-.5-.2v-.6h-.1l-.2.2v-.6h.3l.1-.6h.2v-.7h-.5v-.3h.2l.1-.6-.1-.5v-.2l.2-.1h.7v-.1h.2v-.7h.3l.2-.3h-.3l-.1.2h-.2v.2l-.2.4-.4.1h-.6v.2l-.2.3h-.2v.2h-.1l-.3.2h-.2l-.3.3-.2-.4h-.7v.3h-.3l-.1.2-.3.1-.2.2h-.4v.3h-.7v-.3h-.3l-.2.3v.1h.4l-.3.3-.1.7h-.1l-.1.1h-.3v-.2l-1 .2-.1-.3h-1l.2.3v.1h-.1v.4h-1.5v-.2h-.1l.2-.3v-.4h.2l.2-.4h-.3v.2h-.1l.2-.5.3-.1v.3l.3-.2.1-.3h.5l.2-.1.1-.2.4-.3v-.5h-.3v.2l-.8.2v.2l-.3.1h-.1l-.5.2-.3-.2v-.4l-.1-.1-.1-.3h.1l.3-.2.1-.4h-.2v-.3h-.9v.2h-.1v-.2h-.3v.2h-.6v-.2l-.1-.2.2-.2v-.8h-.3v-.5l-.6-.3v.3l-.4-.1v-.2h.3v-.6.4l-.5.1v.4l-.2.2v.2l-.2.1v.1l.1.2v.5h-.5v-.2h-.3l-.3-.6v-.2h.1l.1-.2.3-.7v-.5l.2-.9h-.3v.3h-.1v.1l-.4.1h-.1l.2-.3h-.3v-.5l-.1.2-.1.3h-.2l-.4.5h-.6l-.1-.1v-.3l-.3-1v-.4h-.1v-.2l-.2-.2v-.3h-.5v.2h-.3v-.7h-.2v-1.2l.4-.3v-.2h.1v-.2h.1l.1-.1v-.2l.4-.1.1-.3h.2v-.2h.2v-.1h.1l.3-.4v-1.1h.1l.2-.3v-.4h-.6v-.2l-.1-.2.5.1v-.1h.5v-.4h-.1v-.1h-.7v-.2h-.3v.2h-.7v-.5h.1v-.1h.2l.1-.2h-.5l-.1-.2h-.1l-.1.1v-.4l.1-.4-.1-.3v-.3h.2v.2h.1v.8h.6v.6h.7l.1-.3h.7v-.3h-1 .2l.2-.5h.3v-.2h.1v-.9l.1-.3h-.4v.2h-.2v-.3h-.1l-.2.1v.2h-.2l-.1-.3h.1l.2-.1-.2-.1v.1h-.3l-.3-.6h.2l.4.3-.3-.6v-.2h-.2v-.1h-.1v-.4h.6v.3l.2-.1v.1l.2.1v-.2h.2v-.3h.4v-.1h-.6l-.3-.6h-1 .9v-.2l.2.2v-.7l-.8-.1-.2-.2v-.2h.2v-.2l-.3.2h-.1l.3-.3-.1-.2h-.2v-.1l-.2-.2h-.3l.1-.3.5-.1h.1v-.2h-.1v-.4h-.3v-.2h.1v-.2h.2v-.5h-.9l-.2.1-.1.3-.2.1h-.3v.2h-.2v.2l-.2.2-.3.6-.1.6-.1.6-.3.5v.2l-.2.1v.4h-.2v.2h-.2l-.2.2-.2.2v.2h-.2v-.4h-.2l.1-.6.3-.5h.1v-.4h-.1l.3-.7h.2v-.4h.2l.4-1.2.3-.3h-.3l.2-.2v-.2l-.3.2-.2-.2v.7h-.3v.2h-.3l-.2.8h-.4l-.2.7h-.2v.3h-.5v.4l-.3.1h-.8v-.2h-.4l-.3.3-.3.2h-.2v-.2h.1v-.6h.2v-.5h-.5v.4l-.3.1-.4.2v-.2l.4-.5v-.1h.3l.4-.6h-.4v-.2h-.4l-.6.4v-1h.3v-.1l.3-.4v-.3l.2-.2v-1.6h.2v-.2l-.3-.2h-.5l.2-.5h-.6l-.1-.3h-.3v.3h-.4v.3h-.5v-.8h.1v-.2l-.3-.1v-.1l-.4-.3-.2.2-.1.2h-.4v.3h-.1l-.3.3h-.4v.8h-.1l-.3-.1v-.2l-.3-.2v-.1h-.1l-.2-.8v-.3h-.2v-.7.3h-.4l-.6-.6-.2-.2h-.3v-.5l-.1.2v.4l.4.1v.1l.2.1.1.4h.4v.7h.1v.5h-.5v-.8h-.3v-.2h-.5l.3.2.2.2-.2.3h.1v1l-.3.2.4.9h.2v-.3h.2v-.2h.1l.2-.7h.3v.2l.4.2-.1.1h.3l.6-.2v.3l.1.2h.1l.2.2v.6l-.2.5-.7.3-.2.4h-.1l-.2 1.5h-.1l.1.8h-.2l-.2-.2v-.3l-.1-.3h-.4l-.3.7v.6l-.3-.1v-.4l-.1-.5v-.9h-.3l-.1.2-.1.6h-.2l-.4-1.1v-.7zm2 6.1h.6v.6h-.2l-.1-.4h-.2zm.4 1v-.2zm.6-2.6v-.3h.8v.3l-.2 1.1-.3.4v-.2l-.3-.3zm.7-2.3v-.2h.4v.1h-.3zm.7 10.5v-.2h.2v.2zm.2-10.9v-.5h.2v-.1h.4v.2h-.1v.4h-.2zm.8 12.7v-.3h.5v.6h-.3v-.3zm1.3-11.8h.2l-.1-.4h-.2.3v.5zm-.1-.5l.2-.2h.1v-.5h.1v.3h.4l-.5.4zm.2-1.7l.3-.6h.1l.1-.4h.1l.2.3h-.1v.2l-.2.3-.2.2h-.2zm0 15.3l.3-.3h.1v.2zm.4-14.8v.3h-.1zm-.1-3.1v-.2h.5v.5h-.5v-.4zm.3 5.2l.2-.3v.3l-.1.1v-.1zm0 14.4v-.2h.2v-.1l.3.2v.4h-.3v-.3zm.1-18.5h.1zm.1 5v-.3h.2v.2zm.4-4.7h.1zm.1 18.5v-.5h.1l.2.3h-.1v.1zm.2-9.3h.2v.1zm.1 0v-.3h.2v.3zm.2 9l.3-.2v.6l-.1.2v-.5zm1.2-3.6v-.3l.2-.1v.3h-.2zm.2 4.3h.9v1.4h-.3v.4l-.3-.1v-.8h-.2v-.6zm2.3-6.8v-.1h.1v-.2l.2.1.3.3v.1l-.2.3h-.2v-.4zm.4 1h.2zm.2.1v-.6h.4v-.2h-.2v-.2l.1-.1h.4v-.2l.2-.1.1-.4h.3v.2-.1h.3v-.4h-.1v-.2h.1l.1-.3.3-.1v-.2h.7v.4l.1-.3h.3l.1.4v.8h-.2l-.1.2v.6l-.2.3v.2h-.2l-.2.3h.2v.5h-.3l-.1.2h-.1v.2l-.6.1h-.3l-.1.2v-.4l-.2-.1v-.2l.4-.2v-.3h-.6v-.2zm2-3.7l.2-.1v.2zm1-5.1v-.2h.3v.1zm0 .8h.3v.2h-.2v-.1zm.9 3.6v-.1h.2-.1v.2zm1.1 24.2v-.3.2zm1.9 4h.2zm.5-3v-.2h.3-.2v.3zm.1-1.6h.4v.2h-.2v-.3h-.2zm.5 6.5v-.2h.4v.5h-.2zm.1-5.5h.2l.2.2-.3-.1zm.3 4.5v-.1l.3.1h.2v.1h-.2zm.3-16h.1v.1zm.6 12.8v-.2h.4v.3h.1l.1.2-.4-.1v-.3zm1.4-9.5v-.2h.1zm2 13.9l.1-.2h.2l.2.3v.1h-.2v-.3h-.2zm.2 4.8h.1zm.2-2.7v-.2l.4.3v.2l-.3-.3zm2.6-11.2l.3-.1v.1zm1.3 1.8l.1-.3h.2l.4-.2v.3l-.3.1-.1.2h-.1v-.1zm1-5.1h.3-.1v.2h-.2zm1.1 19.3h.1l.1-.2h.4l.2.2h-.2l-.3.2h-.2zm0-21v-.4l.2-.1v.4h-.1zm1.8 21.9h.1zm.3-14.9v-.1h.3v.1zm.8 2.1v-.5h.3v-.4h-.2v-.3h.2l.1.2-.2 1.1h-.2v.3zm.3 1.2v-.1h.1v-.2h.1v.2zm.2 21.4l.4-.2v.3h-.3zm.1-23.4l.3-.8.2-.3.4-.1v.9l-.3.2h-.3v.1zm.7 6.8l.1-.3h.5l.3.4.2.2-.1.1-.2-.3h-.1l-.3-.2zm.4-9.4l.2-.4.1.4v.4h-.3v-.3zm1.7 4.2v-.1h.2l.1.2v-.1zm.3 4.7v-.1zm.4-4.8l.1-.3h.2v.2h-.2zm.4 14v-.2h.6l-.2.3h-.3v-.2zm.3-2l.3-.1v.5h-.4v-.1zm1.3 1.4v-.2h.2-.1v.2zm.7-18h.2v-.4h.5v-.2l.2.1v-.4h.3v.2h.2v-.1l.3-.1v.5h-.1v.6h-.1.3v.3l-.1.3-.3.2h-.2v-.4h.1v.1h.1v-.5l-.2.2h-.1l-.2 1v.3h-.6V166h-.2zm1.6-8.8h.3v.1h-.2zm.8-7.8l.1-.4h.4v.1h-.2v.4zm1 8h.1l.2.5h.1v-.4h.3l.1-.2h.3v.3h-.3l.4.3v.5h-.3v-.1h-.7v-.3h-.1l.1-.2zm.8-7.2h.2l.2-.2v-.1h.5v-.4h.2l.1.3h-.1v.2h-.2v.5h-.8v-.2zm.4.6h.1zm.2-1.5h.1zm0 1.4l.1.3zm.4 7.3h.1l.1.1h-.2zm.3-.2v-.1l.2.1zm1.6-1.5h.2v.2h-.1zm.2 41.3h.2v.2h-.2zm.1-32.6h.1l.4.3h-.5zm.3-5.4h.2zm.2 38.4h.3v-.2h.1v.3h-.2v.2l-.1-.3zm.2-54.5v-.1h.1v.2zm.5 16.2l.3.3-.3-.2zm0 7l.8.3h.1v.3l-.2.1v-.1h-.2l-.1-.4h-.3zm.3-6.7v.3-.1zm-.1 6.2h.2l.1.4v-.2h-.4zm.5 0v-.4h.3l.1.2.2.4h.2l.3.7h-.6v-.5h-.1v-.3h-.4zm.2 39.4h.3v-.1h.2v-.2h.3l.1.1-.7.5v.1h-.2zm1.8-36.6h.3l-.2.2v-.1h-.1zm0 33.7l.5.2h.5v.1h.3l.1.3h-.4v.7h-.3l-.4-.2-.2-1zm.4 8.5v-.2h.4v.4h-.4zm.5-41.4h.3v.4h-.2v-.4zm0-1.1h.2v-.3h.2v.6h-.4v-.2zm.9.7v-.2h.1l.1.2h-.1v.2zm-.1 39.1h.2v.2l-.1-.1zm.9.6l.4-.3v-.1h.6v.8h-.1v1l-.3-.1v-.2l-.4-.6h.2l-.2-.3zm.6-37.6l.3-.1v.1zm.7-.5v.2zm0 39.6v-.2h.5l.1.6zm.4.7l.3-.1v.3h-.2zm0-2.7h.3v.1h-.2zm1 2.2l.2-.3.1.3h.7v.2h-.4l-.3-.1-.3.1zm.3-36.7h.1v.1zm.4 38.4v-.6h.3v.4l-.1.2zm.4-1.5h.2zm.6 4h.2zm.8 1.2l.1.1h-.1zm.4-.2l.3.2-.3-.1zm1.4 9.7v-.2.2l.4-.1v.3l-.4.1zm.7-57.6v-.2zm.6 52.2l.3-.3.3-.2v.3l.1.2h-.2v.4h-.4zm0-.4h.2v.1h-.1zm.9 10.1h.1v.2h-.3zm.3-1h.4v-.2h.1v-.1h.1v.2h.3v.7h-.6v-.1h-.1v-.2h-.2zm.2-2.3l.2-.3v.3h-.1zm.3.6v.1zm0 3.3l.2-.1v.1zm.3.4h.1v.2zm0-.3h.2v.3h-.2zm.3-60l.2-.1v.1l-.2.3zm0 59.6h.2zm.4-3.5l.4-.4v.3h.2v.6l-.6-.1v-.3zm1.8 1v.2zm.2-57.5l.3-.5h.1v-.4h.1l.1-.4h.2l.2-.5v.1h.3v.1h.5l-.3.2v.1h-.1v.1h-.2v.2h-.1l-.2.4-.4.3v.2h-.3zm.5-2.5v-.3h.4v-.3l.1.2h-.2l-.1.4zm1.8.4l.1-.4v-.2l.3.5-.3.1zm.4-1.3v-.4h.3v.4zm.2 10h.1v.1h-.2zm0-3.3h.2v-.8h.2v-.1h-.3l.8-.2v-.6l.3.2.2-.5h-.4v-.1h.1v-.2h.1l.5.2v-.5h.2v-.1h.2v-.4h.1v-.2h.3v-.3h.3v-.3l.3-.1v-.1h.2v-.3h.2l.1-.2.3-.2v-.2l.5-.4.2-.6.5-.2v-.2l.7-.2v-.2h.3l.2-.2h.2l.1-.4h.2l-.1-.5-.6-.1v-.2l.3-.2.1.2v.2l.2-.2-.1-.4h.2v-.1h.3v.1h.5l-.3.9h-.2v.1-.2h.5v.2l.3-.1v-.2h.2v.3h.5l.1-.2.2-.3h.2v.2h.5l.2.1h.1v.4h-.2l-.1.4-.2.6.4-.2-.1.3h.2l-.6.5h-.2v.4h-.1l.1.4h.2v.1l-.6.1-.1.7h-.1v.3h-.2l-.8.4v.2l-1.7.8v.1l-.5.3v.1l-.2.1v.2h-.5l-.3.3-.6.6h-1.4l-.1-.4h-.4v.3l-.3-.2h-.2l-.2-.1v1.5h-.8l-.2.1zm.2.7h.2v.2h-.3zm-.1-7.3h.4v.2h-.4zm.3 10.1h.2v.1h-.2zm0-.4h.2l-.1.1zm.1.6v.1zm.2.3l.2-.1zm.6 2h.4v.2h-.1zm1-14v-.1h.2v.4h-.1v-.2zm.1 13.6h.1zm.1-2.6l.2.1h-.1zm0 .4l.3-.1h.1l-.2.3v-.3zm.3-.8l.1.1zm.1 1.2v-.2l.8.1v.3h.1v.1h-.3v-.2l-.5.2v-.3zm0-1.6l.4-.3v.1l-.3.4zm.2 1.2h.1zm0 .9l.3-.2h-.2zm.2-1.1h.1zm0 .9h.2zm.1.1h.2zm.1-1h.3-.2zm2.4-11.2v.2zm.2 10.7h-.1zm1.8-11.5h.4l-.2.2zm.2.4l.2-.2h.1v.2zm.4-.1h.1zm.6-.4h.1l.1.3h-.1zm0 15.1l.3-.2v.2zm0-14.4h.3zm.4 13.8v.2zm.1-19.8v.1zm0 20.2h.1v.2h-.1zm.9-.7h.1v-.2l.1-.1v-.3h.3v1.1h-.1zm.6.4h.1zm.3-1.3v-.4h.3v-.3l.1.1h-.1v.4h-.1v.2h-.1zm1-19.3h.6l-.4.1h-.1zm1.5-.3l.1.2zm.2 1.2h.1v.1zm1.4 8.8v-.2l.2-.2-.2.3zm.8-.2v-.4h.3v-.2h.2v.2h.2v.4h-.2v-.2l-.1.3h-.4zm.8 7.6v-.2h.2l-.1.2zm.2.3h.1v.1h-.2zm1.7-5.8h.4v.3h-.3v-.3zm1.5 6.5v-.1h.2l-.2.2zm1.9 2.2v.1zm1.2-9v.2zm1.1-54.2l.1-.5h.3v.2zm.1 54.2l.1-.2.3-.2v.2l-.3.1v.2zm.3-55h.1-.2zm0-.1h.2v-.4.3h.2v.4h-.3v-.2h-.1zm0 62.8v-.2l.4.2zm0-.4h.1zm.2-59.3h.3-.2zm.8 58.4h.3l.1-.8.2.3v.6h-.5l-.1.2zm.2-64.8v.1zm.3-.6l.3.2h-.3zm.3-7.6h.1v-.4h.2l.4.8v.2l-.1.2v.1h-.2v-.2l-.2-.3h-.2zm.2 13.6v-.7h.3v-.1h.1v-.2l.8-.4.2-.4h.1v-.2l.9-.6v-.3h.4l.1.4h.2v.1h.5v.3h-.1v.1l-.2.3h-.1v.3h-.5v.2h-.2v.2h-.1v.2h-.1v.1h-.3v.7l-.4.2v.1h-.7v-.1h-.7v-.4zm.4-4h.2v-.1l.2-.4h1v.2l.5.1v.2h.3v.1h.1l.3.4-.4.2v.2h-.2l-.4.5-.7.3v-.1h-.1v-.2l-.3-.2-.2-.6h.6l.1-.6h-.2l-.2.5h-.3v-.2h-.2zm.6 58.6h.6v.2h-.6zm.5-67.2h1.4l.2.1h.6v.2l2.5.5h.2l.3.8h.3l.2.8-.3.1v.1h-.2v.2h-.3v.1h-.2l-.2.5h-.3v.7h-.3l.4 2.1v-.6h.2l.2.6h-.2v.2h.1l.2.4-.3.2v.2l-.3.6h-.1v.3h-.2v.2l.6-.3v-.1h.1-.3l.2-.3.2-.1v.3h.8v.2-.2h.7v.2h.1v.2h.5v.3h.4l.1.5h-.8l-.3-.4-.2-.3-.5-.3v.2l-.2-.2v-.1h-.5l.1.2-.1.2v-.3l-1 .6-.2-.3-.8.4h-.9l-.4-.1-.8-.3-.1-.3v.2h-.1l-.1-.4h.1v.1h.5l.1-.7h.2l.1-.3v-.1h.6l.1-.4v-.3h-.2l-.2-.5-.3-.3h-.1v-.4l-.3-.5h-.1l-.4-.5-.1-.6v-.2l-.3-1v-1.9h-.1zm.5 66.8v-.2l.3-.1-.1.1v.1zm.8-57.5l.2-.1v-.2h.1l.1.2h.2l.3-.2.1.4v.2h-.1v.5h-.7zm.4-3.5v.1zm1.8 28l.4.2-.2.4h-.2zm0 34.5h.3v.1h-.3zm.2-36.3l.3-.2v.2zm.3-.5v.1zm.1 4v-.4l.4-.4v.7zm0 33.1h.2v.4h-.1v-.2zm0-.7h.3v.1zm.3.4h.1v.2zm.5-9.7h.3-.2zm.3-28.3v-.4h.1v.1-.1h.2v-.1l.2-.1v.3l.3.1.1-.5h.1v-.3h.3v-.3h.5v.2h-.2v.9h-.3l-.3.1v.4h-.2l-.2-.5v.5l-.6-.4zm-.1 3v-.7h.1v-.2.2h.3v-.4.6h.3l-.1.3h.5v.2l.1.1-.2.8-.3.6v.1l-.3.1-.1-.7zm.3-25l.3.3h-.2zm1 29l.1.3zm.1-6.3l.1-.7.2-.2.1.2v.5l.2 1.1h-.4zm.3-2.2v-.7h.3v-.1h.2v.6l-.5.2v.1zm.3-15.7l.1.1h-.1zm0-4h.2zm0 17.9l.2-.2h.2l-.3.2zm.1 8.9h.1l.2.5-.2-.3h-.2zm.1-15.9v.1zm.2-.6l.2.2h-.2zm0-7.8v.1zm0 7.7h.3zm.3-1.5l.1.1.2.4h.3v.3h-.2l-.4-.2v-.5h-.2zm-.1 1.8l.3-.3v.2zm.2 45.5h.1zm0-53.2h.2v.1h-.2zm.2 46.7h.3v.2h-.1v.2-.1zm0-.2l.3-.1v.1h-.2zm.1.7h.1zm.1-52v-.3h.2v-.4l.3-.2h.4v.1h-.2v.3h.2v-.3h.1v-.2h.2v.5l-.3.6-.1.1v.4l-.5.2v-.6zm-.1.3h.3v.2zm.3 50.7v.1zm0-41.3h.2l.3.5v.2h.3v-.1.5l-.4.1h-.2l-.2-1.1v.3zm0 42.3l.1.1zm.1-45.3l.2-.1v.1l.1.6.4.2v.2l.2.2v.2h.2v.3h.1v-.5h.2v-.1h.2l.4.2.1.5h.1v.3l-.8.2v-.1l-.1-.1-.2-.3h-.2v-.2h-.2v-.1l-.1-.2h-.1v-.4h-.3v-.1zm.1 5h.2v.1h-.2zm.3-14.7l.3-.9h.2v.7h.5-.5v.3h-.1zm0 14.9h.2v-.2h.3v-.2.5h-.4zm.1.2h.1zm.4-15v.1h-.1zm-.1-2h.3-.2zm.1 17.4h.2zm0-17.2h.1v-.3l.8-.1v.2l.4.1v-.2h.3v.2l-.8.2v-.1l-.8.1zm0 2l.2-.1h.5v.2l-.5-.1zm0 54h.2zm0 .2h.3zm.2-37h.3-.5zm.3-11.6h.1l.1-.7h.1l.2-.3h.2v.6h-.2v.2-.2.2h.4v-.3.1h.2v.3h-.3v.3h-.8zm0-5.8l.4-.8.7-.3v.2l.4.3h.5l.1.3v.1h-.2l-.4.2v-.2l-.2.1v.1l-.4.1v.3h-.6v-.4zm.5 58.4h.3l-.3.1zm0-52l.2-.2h.1v.2zm.2 20.4v.1zm0 26.1v.1zm0-.8h.1v.2zm.1 6.3h.2zm0-4h.2v.1zm.2-35.7h.1v.4zm-.1 40.3h.3-.2zm.2-40.4h.4v-.4h.4v.2l.2.1-.5.5-.4-.1zm.4-16.7v-.3l.5-.2.1.3h-.1v.3h-.3zm0 56.8l.1-.3v.3zm0-4.5h.3v.2h-.3zm.3-19.3l.1-.5v.8zm-.1-31.7l.3-.8v.1h.1l.1-.1.1.3.2-.3v.3l-.2.1h-.2l-.2.5zm.3 55l.5-.1v.6-.3h-.6zm-.1-66.2l.4-.9v-.2h.1l.4-.3h.6l.1.9-.2.9-.2.2h-.1v.1l-.6.2v-.2h-.2zm.4 22.4h.2-.3zm-.1-19.4h.1v-.2l.2-.5h.1l.1-.3h.2v-.4h.8v.1l.3-.1h.2l.3.7h-.2l-.3 1.4-.2.7h-.1l-.1.6h-.2l-.1.5-.6-.1.2-.7-.1-.4v-.4h-.3v-.3h-.2zm0 19.6h.3-.1v.2l.1-.1v.1h-.2zm0 37.2v-.1h.2l.1.2h-.3zm.1-.3h.3-.1v.2zm0-38.2h.4v-.2h.1v.3l.3.1v-.4h-.2v-.2h.5v.3h.1v-.1h.3l.4.3-.7.1-.5.2h-.6zm.2-12h.4l.3.1h-.1v.5h-.1v.1h-.5v-.6zm.2 49.6h.5-.2v.2h.2-.5zm.5-15.5h.1v-.2l.4-.3v-.7h.4-.2l.3.6-.3-.2v.3h-.2l.1.5h-.2l-.1.6v.2l-.2.2.2-.4v-.2h-.3zm0-20.9l.7-.5.1.4-.5.3h-.3zm0 23.7l.3-.1v.3-.2l-.3.2zm.1 10.9h.2v.1zm.4-5.8l.2-.1.1.2v.2h-.3v-.2zm.1 12h.1zm0-1.3h.3v.4h.5v.1h.1l-.4.2v-.4l-.4.1zm.1.5h.2v.6h-.2v-.4zm.2 1.3v.2l-.1-.1zm0-19.5h.1v.1zm0-.5h.2zm.1 7.4l.2-.1v.1zm.1-8v-.1h.2v.4h-.3v-.1zm-.1 6.9h.3v.1h-.2zm.1 7.3h.1zm.2.5h.2-.3zm.2 4.3h.3-.2v.2zm0-21l.1-.3v.4-.2zm0 2.9h.3v-.7h.4v.2h-.3.2l.2.7-.5.1v.2h-.2zm.3.9l.1-.1v-.3l.4-.1.1-.3.3-.1v.1h-.1l.3.8h-.3v.7h-.3l-.4-.3zm-.1-50.8h1.2l.2.1h.7v.1l.5.7-.2.4h-.2v.3h-.3v.4h-.3v.2l-.6.4h-.4l-.5-2h.1zm.2 52.8h.4v.2-.2l.2-.1v.7h-.4v-.1h.2v-.2h-.3zm.7 31.8v-.2zm0-.7h.4v.1h-.3zm.1.3h.2v.1h-.3zm.9-22.6l.3-.2-.1.2v.1h-.3zm.4-.5h.1v.1zm.3 17.1h.2v.3zm.5 0h.2l-.1-.6h.1v.1h-.1v-.2h.1v-.3h.3-.2v-.2h.2l-.2-.1v-.2l.2.1h.3v.4l-.3.2v.2l-.1.6h-.2v.2h-.1zm2-2.4h.2v-.1.3h-.2zm7.8-11h.8l-.1.1h-.7zM225.7 81.2l.4.7v.7l.2.4v.4l.1.1.2.6v.3l.2.3v.5l.3.2.1-.4v-1.2l.2.2.2.2.4.4v-.5l.2.1v.3l.1.2-.1 1 .3.3v.4l.2.2v.7l.4.4v.2l-.2.1v.5h-.1v.8h-.1l-.3.2v.9h-.2V92h.2v.4l.2-.2v-.4l.3-.1.4-.4v-1.1h.3v.7l.2.2V93l.2.1v.6h.3v.5l.1.2v.6h.2v1h.1v.2l-.2.2v.6l.3.2.2-.1.2.1v.1l-.2.2v.3l.1.2h.2l.1-.2h.4l.2-.2h.9v.3h-.2v.2l.1.4v.3l.5.4h.2v.2l.1.2h.3l.1.2h.4l.2.4h.4l.2-.1.6-.9h-.1V99h.3v-.2h.2l.3-.1.2.1v.1h.1v.3h.2l.1.2v.6h.3l.2.3v.7l.3.2v.2l.5.6v.1l-.2.1h-.2v2h.2v.8h.1l.1-.1v-.8h.4v.5l.2.4v.2l-.2.2v.2l-.3.7.8.6h.2l.2.3h.2l.3.2v.3l.3.3v.3l.3.2v.1l.2.4h.1v.4l.5.5v.5l.3.1v-.3h.1l.3-.2h.2v.6h-.6l-.3.2v.8h.4v.4h.3l.1.1v.3l-.1.1.1.3v1.1l.4.3v.8h.4l.5-.2.2-.1.1-.3v-.1l-.1-.1v-.9h-.1v-1l-.3-.3-.1.2v-.1h-.3v-.1h.4l.1-.3v-.5l-.2-.4h.3l.2.2h.1v-1.7l-.2-.1v-1.3h-.3v.3l-.2-.2v-2l.2-.1.3.5v-1.5l-.1-.1v-.1h-.3v.7h-.2v-.8h-.2v-.6h.3l.3-.3v-1h-.3l.3-.1v-.6l.2-.2.2-.2v-.9l-.4-.2v-.1h.2v.1h.2v-1.6l.1-.2v-.5l.6-.7V97h.1v-.3h-.3l.3-.2v-1.3l.2-1-.2-.4v-.9l.4-.2v-.3l.2-.2.4.2h1.6l.4-.6h.2l.4-.3v-.2l.2-.3v-.1l.2-.3h.6l.2-.3h.4l.1-.3v-.3l.4-.2v.1l.4-.4h.1v-.1l.2-.5.1-.2v-.6l-.3-.1.2-.3h-.1v-.3h-.2v-.3l-.4-.4v-.8l-.5-.2v-.5l-.4-.4-.1-.2-.2-.3.3-.4h.2v-.9l-.3-.1.2-.2v-.1l-.1-.1-.4-.7V81h-.2v-1.3h.3l-.3-.2v-.1l.2-.2v-.4l-.2-.3v-1.2l-.2-.2V76l-.2-.4v-1.3l-.3-.5.1-.3-.2-1-.2-.2V72h-.5l-.3.4h-.1l-.1-.1v-1l-.2-.2.2-.4h.6l.4-.2-.3-.1.3-.2-.2-.1V69h.4l.2-.6.1-.2v-.3l-.2-.2-.3-.2v-.1l-.4-.5v-.2l-.1-.1v-.2l-.5-.4v-.2l-.1-.1v-.2l-.1-.2v-.5l-.8-.6v-.3l.3-.2h.2v-.3l-.2-.2v-.1l.1-.2v-.8l.2-.1v-.7h.3v.5h.1l.4-.3v-.7l-.2-.1v-1l.6-.3v-.5l-.2-.2v-.3l.2-.4v-.4l.1-.2v-.2l.2-.1v-1.5l.2-.2v-.5h-.3l.2-.3v-.8l-.2-.2h-.2l-.2.2V52h.2v-.2l.2-.3v-.2l.3-.5v-.9l.1-.2v-.6l-.3-.3.2-.1h.3l-.2-.4-.2.2-.1-.1V48l-.5-.5V47h-.3l-.2-.2-.3-.1h-.1l-.2-.1-.4.2v.4l-.3.4v.4h-.2v-.2h-.3v.7h-.1v.4l-.4.2h-.1l-.4.5-.1-.2h-.8v.6l-.4.1v.6l-.2.2h-.3l-.3-.4-.2.1v.8l.2.1v.8l-.2.2-.3.2v.3h-.2l-.1.3v.3l-.1.1v.6l-.8.5v.5l-.2.2-.1.5h-.2v.3l-.3.3h-.2l-.2.2-.4.4v.2l-.3.3v.2l-.3.1-.1.1-.4.2h-.5v-.1l-.3-.4-.2-.2v-.4h-.1v-.3l.2-.4v-.2h.2l.1-.1-.1-.1h-.2v-.2l-.4-.2v-.2l.7-.5v-.6l.2-.1V54h-.2v-.3h.1V53h-.6l-.1-.4v-.2l-.1-.7h-.4v.3h-.3l-.1-.2h-.3l-.2.2-.2.2-.2.3-.5.4v.8h-.3V53h-.2v.4l-.2.1h-.2l.1-.5h.1v-.4l.2-.2v-1l-.2-.2v-.1l-.2-.1.2-.3.1-.3.2-.2.1.1v.2l.1.1h.2-.1v.4h.2l.1.2v.3h.5l.1-.1V50l.2-.2h-.1v-.4h-.3v-.1l-.4-.3v-.7l.3-.6v-.5h-.2l-.3.1v.7l-.3.3h-.4v-.6l.2-.1v-.2l-.3-.2-.1-.2.3-.2.2.1.6-.6h.1l.3.3v-.3l.1-.1h.3l.2.2v.4h.3l.3.2v-1.3l-.4-.1v-.2l.6-.6.3-.2-.1-.4h-.1l-.1.5h-.3l-.4.5h-.3l-.2.1.1.2-.5.5h-.3l-.4.3h-.6l-.6.1v.7l.2.1v.8l.2.3v.2l-.5.4.2.3v.3l-.2.2h.3v.3h-.1l-.2.6.2.2h.2l.1.2-.2.3.2.2-.2.1v.7l.4.2-.5.5v.1l.3.3v1.9l-.2.2h-.6V55h-.7l-.2.2v.5l.1.1h.2l.2.2v.3l-.1.1h-.3l-.1.2v.2h-.1v.9h-.5v.5h-.3v.5l-.1.3v.1l-.1.2v.8h.1v.4l.1.2v.9h-.2l-.3-.2h-.3l-.1.4-.2.2.2.5.1.5-.2.2h-.2l-.3-.4h-.1v.4l-.1.2v.6l.1.1v.3l.3.2v.6l.1.4h.4l.5.4.1.3v.3l.2.2v.2l.1.2v.2l-.2.3h-.2l-.3-.4-.2-.5-.1-.2v-.5l-.6-.4h-.5l-.3.3v.1l.2.2-.2.2v.1l.2.4.3.4h.2l.1-.3.1-.1h.2v.8h.2v1h-.3l-.3-.2v-.4l-.3.1.1.2v2l.3-.2.1-.3.2-.2.2.2v.6l.4.4v.3l-.5.2v.5h-.5v.2l.2.2h.4v.1h-.3v.3h-.1v.8l.4.3v.8l.4.2v.2h.2V75h-.2v-.3h.2l-.1-.2v-.3l-.1-.2v-.6l-.2-.1v-.8h.1l-.2-.3V72l.3-.2h.1v.3l.3.2v.2l-.2.2v.1l.6.8v.4h.1v.2l.1.3v.4l.1.1v2.1l-.5-.1-.1.2v.8h.2v2.9l-.5.3-.1-.1v-.7l-.3-.3v-.4l.2-.2v-1l.2-.4V78h-.2v-.7h-.6v.4l-.4-.1v-.2l-.1-.2v-.8l.1-.4v-.4l.2-.2.2-.1v-.5l-.3-.3v-.1l-.4-.4h-.3v.3l-.2-.3-.2.3v.6l-.4.1.4.3v.5l.2.2v.7h.2v1.9l.1.2v.2l.2.2v1.1h-.2l-.5.3v.3l.3.1v.4l-.3.1v.2l-.2.4v.5h-.2l-.2-.2V82l-.4-.5v-.8l-.6-.5h-.4v.4l-.3.3h.1v.2zm3.6 6.5h.1v-.5h.1v.3l.3.2v.8h-.4zM230 69v-.3h.2v.3zm.2.9v-.5h.2v.2l.2.4v.2l-.1.1h-.2V70zm.1-5.2v-1.4h.3v.3l.3.4v.6l.3.4v.3l.2.7v.1l-.2.3h-.2v.4h-.4V66l-.2-.2v-1zm.3 28.9h.1v-.2h.4l.2.2v.6l-.3.3-.1.1h-.2v-.9zm1.2 3.4l.2-.1v.4-.2zm.3-38l.2-.3v-.1h.3l.2-.1h-.4V58h.5l.1-.1v.5l-.4.6h.4v.3l-.6.2v-.4h-.2zm.6 9.2V68h.5v1.4l-.1.1-.3-.4v-.6zm1.2-7.2v-.5h.5v-.1l.2-.1v.7h-.6zm.2-3.1l.1-.3h.2l.1-.1v-.6l.3-.4.2-.1.2.2h.1l.3.3v.4l-.3.3v.4l-.3.3v.1l.2.3v.3l-.3.2-.1.1v.7h-.2v-.5l-.5-.5zm.7 39.9v-.2l.2-.1v.5zm.5-52l.1-.1h.2v.3h-.3zm.1 15.9v-.1l.1-.1h.5l.2-.3h.5l.3.1-.3.4h-1.2zm.3-1.5l.1-.2v-.5l.2-.3v-.3h.1l.5.1v.4l-.4.2v.4l-.4.3zm.6 38.2l.2-.4h.1l.1.2-.2.4zm.4-1.4h.3v.2h.2v.2h-.2l-.1-.2zm.3-.3v-.1h.3v-.2h.3v.2h-.3v.3h-.3zm0 1.7v-.1l.1-.3h.1v.5zm.2-.7l.1-.3h.3l-.2.4h-.1zm0-11.3v-.2h.3v.1l-.1.4zm.5-.4l.1-.1h.2v.3zm0-10.2v-.3h.6v.5l-.3.2-.1-.2v-.1zm.5 19v-.2h.2v.2h-.1zm.2 6.4v-.2h.2-.1zm.2-5.8v-.2h.4v.4h-.2zm.4 6.6v-.2l.6.2.2-.2.2.1h.1l.1.1v.2h-1.1zm.3-1.7v-.1h.4v.3h-.4zm1 5.7v-.2l.1-.2v-.2l.3-.2h.3v.9h-.6zm0-2.5l.1-.2h.2l.1.1v1.6l-.4-.2v-1.2zm1.1-15.6v-.1h.1l-.1-.3.3-.1v.4l-.2.2zm0 17.1h.3v.3h-.2zm.2-.4v-.2.2h.2v.1zm.1 2.9l.1-.5h.2v.7zm.1-20.3l.2-.2h.1v.3h-.3zm.4 14.3l.3-.3v-.2l.1-.2.1-.3h.1l.1.2-.2.3v.6l-.2.4-.1.2h-.1v-.6zm.8 9.9v-.2h.2v.1h-.2zm0-24.4v-.3h.2l.2.5zm.3 22.5v-.7l.1-.1h.2v1.3zm0-11.9v-.5l.3-.1v-.2h.2l.3.2-.2.2v.1l-.1.2-.3.2zm.9-2.2v-.1l.1-.2.4.2-.2.4h-.2zm-.1-8h.3v.3h-.1zm.3 8.8l.1-.2h.1v.5zm.1-5.2v-.7l.2-.3v-.1l.3-.2v-.3l-.2-.1v-1l.2-.1h.2l.2.1v.3l-.4.3V91l.4.5v.5l-.3-.4v-.1l-.5-.5v-.1zm.9-6v-.3l.2-.5.1-.1v.7l.2.3-.2.4h-.1zm0-1.4V83h.3v.7h-.1zm.3 2.5v-.3h.2l.1.2v.1l-.4.3zm-.1-8.9v-1l.2-.3v-.3l.2-.2.1.1v.5l.2.3-.5.3v.6l.2.2.1.4h-.1l-.3-.2v-.2zm.4-3.5v-.1h.2l.1.2v.2h-.1zm.2-17.6l.5-.6.3-.7.2-.2v-.4h.4l-.2.2v.2l.1.1h.3v.1l-.3.4-.3.4-.2.2h-.3l-.2.2v.1l-.2.2zm2 28.4V84h.2v-.4l.1-.1h.5v.3l.2.2v.9l-.3.3v.4h-.5v-.3l-.1-.3v-.4zM-12.2 284.6v.2l.3.2.3-.2.2.4h.4v-.4l.6-.3.4.7h.5l.3-.4h.2l.5.3h.1l.2-.2v-.5l.3-.2.3.3v.8l.4.4h.2v.4h-.1l-.1.1-.3.1-.3.3v.7l.3.2h.2l.2.2-.1.7-.1.2v.2l-.2.1-.1.1h.4v.1h.2v-.7h1.3l.3.3.1.3.2.1h.1l.4-.1v-.5h.2v.5l.2.6v.1l.4.2h.1l.1.1-.1.2v.1l.4.5v.2l.1.2.3-.2.4.2-.3.5v.2l.3.2v-.3l.2-.2v.1h.1v-.4l-.1-.3v-.2l.1-.3v-.6h.9l.3.3v.6h.2v.4h-.4l-.3-.5-.1.1v.3l.5.5.1.3v.2l.3.3.1.4.1.2v.3l-.2.4-.3-.5v-.2l-.5-.3v-.3l-.3.1-.2-.3-.2.3v.1l.2.2v.2l.4.4.2.3v.5l-.4.5v.2l.5.5v.6l.4.2v.8h-.2v-.4h-.1v-.2h-.2l-.2.2v.6l.3.3v.6l.3.2v.5l.1.3h-.3l-.1.2h-.1l-.1-.1v.2h-.3v-.4l-.5.4h-.1v.6l-.3.3v.1l.2.1h.3l.3.5v.2H-3v-.5h-.5l.2.3v.1l-.3.4v.3l.1.2.1.4v1-.2l-.3-.2-.3.4v.1l.3.5h.2v-.4h.3l.6.4-.1.4v.1l-.4.2v.3l.2.1v.3h.6v-.9l.1-.1h.5l.2-.2h.3l.2-.1v-.4h.3l.4.3.2.5v.3l.1.3v.6l.5.3.1.4.1.1v.3l.3.2v1.4l.3.2.1.4.2.4v.9l.2.3.2.4v.1l.3.2v.2l.2.3v.2h-.3v.3h.2l.2.3v.4l.4 1.2v.3l.2.1h.3-.2v1l-.1.5-.2.1-.4-.2h-.3l.2.3.1.4.2.1h.1l.3.2v-.4l.5-.1V315l.1-.1.2.2h.2l.1-.1v-.3l-.6-.3v-.4l-.2-.3v-1.1h-.2v-.2L3 312v-.3l.2-.2h.4v.5l.4.3.1.3.3.3h.2l.2.1H5l.4.1v.1l.2.4v.1h.2l.3.3h.2v-.3l-.3-.2v-.5h.3l.2.1v.3l.5.2.2-.2h.2l.2.4h.2l-.2-.7v-.8l.1-.1v-.2l-.1-.2v-1.5l-.2-.4v-.4l-.2-.1v-.2h.3V308h-.3v-1l.1-.3v-.7l-.3-.2v-.2l.1-.1v-.5l.2-.2v-.4l-.1-.1v-.3l-.2-.3v-.2h.4l.2.1.2-.3.2-.5h-.8v-.3L7 302v-.3l-.3-.2v-.5l-.5-.4v-.2l-.1-.2h.1l-.1-.5-.3-.2v-.3l-.3-.4-.1-.5.2-.4-.2-.2v-.3l-.4-.2.3-1.3-.3-.2v-2.1l.4-.4.2-.4v-.7l.3-.4.2-.2v-.5l.2-.3.1-.5.2-.4.2-.2v-.5l.2-.2v-.1h.3v.6h.2l.2.2.3-.1v-.8l-.1-.2v-.9l.3-.3v-.1H8l-.2-.5-.3.6v.1l-.4-.4H7l-.1.2h-.2v-.2h-.5l.1-.3v-1l.4-.3H7l.6-.4v-.2l.2-.2h.4l.2-.3v-.9l.3-.4v-.3l.1-.3H9v-.6h-.3l-.2-.2v-.1l.3-.4.4.1.1-.2v-.2l-.4-.5v-.3h-.2v-.5l-.2-.2v-.3l.3-.3v-.7l-.1-.3v-.8l-.3-.2v-.5l-.2-.3-.3-.3-.1.1v.6l-.3.3-.4-.1v-.5l-.3-.3-.2-.3v-.4h-.4v.2l.3.2v.6H6l-.3-.1v-.7l.3-.2v-.2l-.3-.3-.1-.4.2-.4h-.2l-.2.3-.2-.3v-.3L5 273v-1.2l-.1-.2v-.2l-.3-.2v-.8l.2-.3V269l.2-.2h.2l.3.2v.3l.1.1h.2l.2-.4.3-.2v-1.1H6v-.2h.2v-.8l.4-.5V265l.3-.3h.3l.3-.1h.3l.2-.2v-.3l-.3-.2v-.2l.3-.2-.1-.1h-.2l-.3-.5h-.1v.5h-.5v-1.6l.2-.1h.1l.2-.2v-.6h.2v-.2H7l-.4.3v.4h-.1v.6l-.2.2h-.2v.3l-.6.5-.3-.4v-.4l.3-.4v-.1l.5-.4v-.5l.1-.2v-.3l-.1.3h-.3v.7l-.1.1h-.2l-.2.1H5l-.4.2v.5l-.3.3H4l-.2-.3v-.2l-.1-.1v-.9h-.2v-.2l-.1-.1v-.4l-.2-.2V259l.3-.1v-.5l.1-.4v-.5.2l-.4.3v.3l-.2.4h-.3l-.4.3h-.4l.2.5v.5h-.4l-.4-.4-.3.1.6.6.1.3v.3l.3.3v1.3l-.2.3.2.4v.3l.2.4v.4l.3.3-.3.4H2l-.2.3v.6L2 267h-.5v-.3h-.2v-.2l-.3-.3H.6l-.5-.6V264l-.3-.4v.3h-.3l-.3-.5h-.1l.2.4v.1l-.1.6-.3.2h-.3v-.4h-.2v.7h-.3v-.2l-.2-.3v-.3l-.1-.1v-.2l.2-.3.5.4v-.8l-.2-.2.1-.1h.2v-.2h.4v.3l.2-.2v-.2l-.3-.2.3-.1h.2v-.3l-.2-.6-.2-.2-.2-.2h-.1l-.1.1.1.2v.3l.2.4-.4.5H-2v.5l.2.2h-.4v.4l-.3.4v.6l.3.4v.2h.2l.1.3-.1.2v.8h-.5l-.1-.2h-.2v.4l.5.2v.7h-.3l-.4.4-.3.5v.5l.1.5.3.2v.2l.2.7v.2l.2.2v.3l.4.3v.4l.1.6v.4l-.2.3.3.3v.4l-.1.2.4.4v.2l.3.4v.4h-.3v.4l.5.7v.1l.2.5v.2l.2.2v.2l.1.2v1.2l.1.2v.5h-.1l-.1.2.3.3v.1l.1.4v.2l.1.4v.7l-.2.4.3.3.1.7-.4.3H-1l-.1-.1-.1-.2v-.1h.6l-.2-.5V282h-.3v-.3l-.6-.4v.5l.1.2v.4l-.1.1H-2l-.3.4h-.3l-.2-.3v-1.4l-.2-.2-.4-.4v.8h-.5v.8l-.1.2-.2.1v.2l-.2.2H-5l-.2-.1v-.3l-.2-.3v-.6l.1-.2-.4-.2-.2-.3h-.2l-.2.3.3.2v.6h-.3l-.2.3v.7l.1.2v.3h-.3v-.3l-.2-.2-.1-.3-.2-.2h-.2l-.6-.5v-.4l.1-.2h.3v-1.1l-.2-.3H-8l-.4.2v.4l-.5.4-.1.4-.4.4-.3-.2h-.3l-.1.4h-.4l-.5-.4v-.2l-.2-.4v-1h-.5l-.3.1v1.5l.2.2v.2l.2.4v.3l-.1.1v.9l-.1.3v.4zm5.4 1.8v-.6h.3v.1l.1.1v.5h-.4zm.5 1.6v-.2l.3.2v.3l-.4-.1v-.2zm.3-4.7v-.6l.1-.1h.3l.1.6.3.6v.5h-.5v-.1l-.1-.2v-.2l-.2-.2v-.2zm0 3.5v-.5h.3v-.9l.4.1.3.4v.2l-.3.3v1l-.3.3-.1-.1v-.2zm1.8-2.4l.2-.1.2.2h.5l.4.2v.5l.1.3v.1l-.1.1-.3-.2v-.1l-.4-.4H-4zm.1 3.2v-.4l.2-.3h.3l.2.2.2.2v-1.1h.2v.4l.5.4v.3l-.1.1H-3l-.2.4v1l-.4-.1zm2.3 12.8v-.2h.2l.2.2v.7h-.1l-.2-.1v-.4zm0-34.8v-.2l.3.2v.2zm0 8l.2-.2v-.3l.2-.1h.4v.3l.4.3v.2l.1.3.3-.1H0v.6l.1.4v.9h.4l-.2.4H0v-.3l-.4-.3v-.3l-.4-.3-.2.1v-.7l-.2-.4v-.2l-.3-.2h-.2zm.1-1.4v-.2h.2v.3h-.3zm.7-3.7v-.4l.3-.2-.2-.3v-.2h.3v.3h.2l-.1-.5v-.1l-.2-.1v-1l.2-.4h-.1l-.2.1-.1-.1v-.4h.3l.3.3v.5l.3.4.2.2v1l-.3.4.1.4v1.8l.2.2-.2.1v.5h-.4v-.5l-.3-.2v-.8h-.1l.2-.5v-.4h-.3zm0 29.3v-.4l.3-.1v.7h.1v.4l-.2-.2v-.2zm.3-11v-.2h.1l.1.1-.1.3h-.2zm-.1 8.6l.2-.9h.1l.2.1.2.4.1.5.4.2v.3l-.2.1v.9l-.6-.3v-.6l-.3-.4v-.2zm.4-18.8v.4l.4.2v.3l.2.2v.3l.4.2v.8l-.3.3h-.4v-.3l-.3-.1v-1h-.1zm-.1 8.2v-.2h.3l.1-.3H0l.2.5v1.1H0l-.2-.3v-.1l-.2-.5zm0-8.5l.1-.1.2.2v.3l-.2-.2zm.3 22.7v-.5H0l.2.1v.4H0zm.4-8.6v-.5h.3v.4l.1.2-.1.3.1.2v.3l.1.1h.4l.2.3v.2l.4.3v.2l.5.3v.1l-.3.3h-.3l-.2-.2v-.2l-.1-.2-.1.1v.9l.1.2v.3l.3.2v.5l.2.3v.3l-.1.1h-.5l-.4-.2H.6v-1h.1V293l-.2-.5-.3-.2v-.3h.2l-.1-.3.2-.3v-.5l-.3-.1v-.2zm0-19v-.3h.4v.2l.1.1v.3l-.1.1zm0-2.9l.1-.2h.3l.2.3.2.4-.1.1-.2-.1zm.2 35.7v-.4h.5v.5l-.3.1zm.4-13.9l.2-.1h.2l.3.4v.4h-.3l-.2-.4zm.2 15.5v-.2h.1v.3h.3v.2H1zm-.1-33v-.2l.2-.2v.6H1zm0-5.2v-.6h.3l.2.5v.3H1v-.3zm.1 20.9l.1-.1.4.5v.1h-.3v-.2zm.1-.4v-.1l.2-.3h.2l.2-.2H2l.4.3v.3l-.2.3h-.3l-.2.2v-.1h-.3zm0-17v-.3l.1-.2h.1l.1.1.2-.2.2-.5-.5-.5v-.3l-.1-.3.3-.6.3.3.2-.1v.1l.4.5v.5l.3.3v.3l.2.3v1.5l.2.2h.4l.2.1v.5l-.2.2-.1-.1H3v.7l-.1.2-.3-.3h-.2v1.3l.1.4h.4v.2h-.3l-.2.1v.5H2l.3 1-.3.2v.1h-.3l-.1-.1v-.5l-.2-.3v-.7l.1-.2-.1-.1v-.8l.1-.2-.1-.2v-.6l.2-.1v-.8l-.3-.3v-1zm0 35.8v-.5h.3l.2-.2.4.3.2.6v.4l-.1.1-.4-.3h-.3zm.2-1.8v-.3h.2v.2l-.3.1zm0 .4h.3v.3h-.2zm.1-15.9v-.3h.1l.5.2-.2.3h-.2zm.6 21.1v-.4l.2-.1.4.5v.2l-.3.1zm0-32.1v-.2h.3l.1.1-.1.3h-.1zm0 29.2l.3-.1.4.4.3.9-.2.3-.5.1v-.2l-.1-.2v-.7zm.6-41v-.1h.2l.1.2v.3h-.2v-.4zm.5 13.1v-.2h.3l.2-.5h.7v.4h.3v.4H5l.2.1v.3l-.2.1-.3-.2h-.4v.1l-.3.4-.2-.1v-.3l-.4.2h-.1v-.1L3 280zm.2-4.4l.1-.2.2-.5.4.2v.7l-.3.3h-.2zm.3 7.1v-1.2l.1-.1H4v.9l.4.1-.2.3v.4h.1v.7l-.1.1v.2h-.3v-1.3h-.3zm.4-10v-.5l.2.1v.2h.1l-.1.3zm.2-8.3v-.5h.4l.2.3v.2l.2.2v.9l-.2.1h-.3l-.1-.1-.2-.8v-.2zm.2 2v-.1h.3v.8H5v.3h-.5v-.7zm0 20.6l.1-.2h.3l.4.3v-.2l-.2-.2.4.1h.1l.1.9-.3.2v.2l.7.5v.7l.2.5-.4.3-.3-.2-.1-.2h-.2l-.2-.2h-.2v-1.1l-.1-.2v-.3l.1-.3v-.3zm.8-18.7v-.4l.2-.1h.1v.3l.2.2-.1.1h-.3zm.5 9v-.7l.1-.1H6l.1.5v.1l-.3.2zm.1 24.6l.1-.1h.3l-.2.3h-.2zm.4 9.6v-.4l.3-.4.3.3v.1l.2.5v.7l-.8-.6zm0-34.2l.1-.2h.1v.2zm.4 6.5v-.2l.2-.5v-.3H7l.2.1v.5l.1.7-.2.1-.1-.1h-.1zm0-5.7l.5-.5v-.6l.1.1v.2h.2l.6-.5h.2l.3.3v.6h.1v.5l.1.2-.3.1-.2.2v.2l.1.2-.3.2v.5l.5.4v.4l-.3.2h-.5l-.4-.3v-.1l.3-.3v-.3l-.4-.3v-.4l-.2-.2v-.6h-.4zm1 5.6l.2-.2.3.2v.3l-.1.1h-.3zm465.8 50.1v.3l.3.1.2.1v.7h.3l-.2.4v.7l-.3.2-.4.5.4.3h.3l1.7-.5.3-.3.4-.5v-.7h.2v.4h.4V333l.4-1.2v-.1h.1v-.4l.1-.1.3-1.2.4-2.3.3-1.3h.2v-.2l.3-.1.2-.2h.7v.2h.9l.5-.1v-.3l.4-.1.6-.2h.4v-.1l1.8-.8.1.6h-.1.4v-.3h.4l.2-.4v-.9h-.1l-.3-1.3h.2v-.2h.6l.5-.3v-.4h.1v.1h.4v.3l.4-.3.3-.1h.3l.4-.1v-.2l.3-.2v-.1h.1l.5-1.5h.1l-.2-1.1h.1v-.1h.4v-.4l-.1-.1v-.7l.5-.2.5-3.5-.2-1v-.8h-.3v-.9l-.1-.3v-.1l.1-.3.6-1.5h.1v-.2l.2-.7h.2v-.6l.2-.5h.2v-.7h.2v-.5l1-.4v-.2h.2v.3h.3l-.3-.5h.3v-.5h.4l.3-.4v-.6l.5-1.3h.1v-.4h-.4l-.2-.4-.2-.4h.6l.4.2v-.4h.2v-.2h.1l.2-.4h.1v-.6l.2-.8h.3v.1l1.1-.3v-.2h.3v-.2h.3l.1-.8v-.5h.2v.2h.2v.1h.2l.2-.5h-.2l-.1-.5v-1.6h.1v-.4h.4v-.6l-.1-.6h.4l.1-.7h.2l.5-.2.2-.5h.1v-.6l.4-.5h.1l-.2-.7.2-2.2v-.3l.4-.1.2-.8.2-.4v-.4h.2l-.2-.3.2-.5h.1l.3-.8h.2v-.2l-.2-.5h.2v-.7h.1v-.2h.2l.5-1.4h.1v-.2h.3v-.3h.2v-.1l.3-.1h.3v-.7l-.3-1h.6l.2-.3-.3-.1-.2-.4.1-.9h-.2v-.4h-.1l-.2-.5h-.3v-.2h-.2l-.2-1-.3-.4h.2l-.1-.3h-.2l-.2-.7-.2-.2h-.1v-.2l-.2-.3-.1-.4-.2-.1v-.1l-.4-.3v-.2l-.3-.1v-.2h-.1l-.5-.5v-.1h-.4v-.3h-.3v-.2l-.2-.6v-.2l-.3-.3v.3l-.5.2v-.3.1l-.2-.2h-.1v-.4h-.2l-.2-1.1h.3-.3v-.6h.5v-.3h.2l.2-.2v-.6h-.3v.1h-.4v.4l-.2-.5v-1.5l-2.3-1-.1.3v1h.2v.5h-.1l.2.5v1h.2v.4h.1v.2h.2v.1l.2.5h-.3v.3h-.3l.2.8h-.4l.3.9.2.3h.6v-.1h.1v-.4h.2v.6h.2l-.1.2h-.3l.4.6h.1v.2h.3l.2.4-.3.3v.9h-.1v.5h.7l.2-.3h.2v-.1h.1l.3-.5h.2v.4l-.3.5-.4.4h.7v.2h-.1v.2l.4-.2v-.7l.4.2v.2l.2.5v-.1h.4l.1.3h-.4.5v.3h-.1v.3-.2h.3v.2l-.2.4h.4v.2h-.2v.1l.3.5h.2v.2l.2.2.1.2h-.3v.2l.1.1.3.6h.3v-.3h.1v.3h-.1v.6l-.2.9h-.2v.2h-.2l-.1-.4v-.3l-.2.4.3 1.6-.3.8h-.2l-.1.4h-.2v.2l-.5.1v.2h-.3v.6h-.3l-.1.2-.6.5-.2.6h.1v.2l.1.4-.4.2v.1h.1l.3.3v.4l-.4.3v.5h.1v1.1l-.4.6-.3.5v1.9l.1.6v.7h-.1v.6h-.4l.2.5-.2.3v.6h-.1v.1h-.2v.3h-.1v.2l-.2.2v.6l-.2.8.2-.1.3.5h-.3l.2.7h-.1v.4h-.3l-.1.2v.1l-.5.1h-.7v.1h-.2v.2h-.1l-.3.2v.7h-.1v.7l-.5.1h-.3l-.1-.2h-.3v.5h-.1l-.1.1-.2.1v.2h-.2v.5h-.3v.2l-.1.1h-.1v.3h-.2v.2l-.3.5-.7.4v.4l-.8 2.8-.2.4h-.3v-.2l-.7.2v.6h-.3v.4h-.1l-.2.3-.4.1v.4l-.1.2v.1h-.1l-.1 1v.1l.3 1.8-.3.2.2 1h.2v.3h-.2l.1.9h-.1v1.6l-.4.2v.5h-.1v.3l-.2.9h-.1v.4h-.4l-.1.3h.2v.4h-.2v-.4l-.2.1-.3.3h.1l.2 1.2h-.5v.2h-.2v.1l-.3.6-.2.4v.6h-.4v.3l-.3.1-.1.3v.2l-.3.4h-.1v.4l-.2.2v.1h-.3l-2.2.7v.2l-.8.3-1.3.3-.4.1-.8.3h-.8v-.2l-.3-.2v-.9h-.2l-.1.3-.4.9h-.1v.1h.1v.5l-.3.1-.4 1.8h-.1l-.2.4v.7l-.3.9h-.2v1.7l-.4 1-.2.2h.4v.1h-.1v.3h-.2v.1l-.2.2v.3l-.3-.3-.2.5-.2-.3.1.3-.1.1zm24.3-68.6v.3zm.1 1.7l.2-.2v.1zm0-1.4h.2v.1h-.1zm.2 4.8v-.2h.1l.2.2v.5h-.1zm.2.8h.2v.1h-.2zm.4 17h.1zm.3-17h.3v.3l-.4-.1zm.6 1.3h.1v.1h-.1zm2.2 6.7h.2v.3h-.3zm.1-2.8h.2l.1.4h-.2v-.2zm1 1v-.2l.1-.4v-.4h.3v-.2h.1v.4h.3l.2.6h-.2v.1h-.2v.1h-.1v.5l-.5-.3zm-.1-1v-.6h.3l.1.4h-.2zm.8 1.3v.2zM250.3 71.7v.5h.3v.8l.1.2v.2l.3-.1v.4l.3.2v.1l-.3.3V77h-.2v.5l.2 1.1.2.2-.1.2v.7h.1v.3l.1.4v1l.1.2.2-.1.2.4v.5l.2.3v3.6l-.1.4v1.5h-.2v.8h.3l.3-.4-.1-.5.2-.3.2.2v.3h.4v-.7h.1v-.1l.1-.4V87h.4v.4l.2.2h.1l.1-.1v-1.1l.3-.1v.7h.2v.3l-.5.2h.9l.2-.7v-.2h-.1l-.2-.5.2-.1h.1v-1.7l-.1-.2v-1h-.5v-.4h-.4l-.1.2-.2-.2h-.2v-.9l-.2-.1V81l.2-.3v-.3l.3-.1.2.1h.1l.3-.4-.2-.2v-.3l-.1-.2v-.1l-.3-.4-.1.2h-.4l.3-.5V78l-.1-.2v-1h.6l.4.3h.3l.2.2.3.3v.4l.4-.1.2-.2v-.2l-.4-.3v-.7l.3-.5-.1-.3-.1-.7h-.2.5l.3-.2-.1-.3v-.1l.1-.2V74l-.1-.2v-.2h.2l.3.4v.3l.2.4v.3l-.1.1-.1.1h-.2v.5l.2.7v.2l.3.2v.6l.3-.3h.1l.3-.3v-.1l.1-.2v-.1l-.1-.2V76l.1-.2v-.5.2l-.3.1h-.1v-.8l.2.2h.1v-.5l.1-.1-.1-.2.2-.2v-.3h.1v-.9l-.3-.1v-1l.3.1v.5l.3.4v.2l.3.3h.2V73l-.2-.4V72l.1-.4.4-.3v-.4l.1-.3v-.2h.2l.2-.1h.4l.2-.3-.2-.1-.3-.4v-.3l.3-.2v-.1.4h.4v.7l.3.4v.6l.3.3v.5h.3v-.2l.1-.3v-1h.3v-.5l.2-.3.1-.1h.5l.5-.4.2-.3-.1-.3.1-.1.3-.3v-.6l-.1-.2.3-.2v-.5l-.4-.2.2-.2-.1-.7.3-.4.3-.4v-.4l.1-.2v-.2h.6l.1-.1-.1-.2h-1.2l-.1-.5h.6l.1-.3v-.2l.2-.1v-.1h-.3l-.2.3h-.6v-.2h-.1l-.1-.2h-.2l-.1.1h-.2v1.6l-.5.4v.3h-.2l-.2.1h-.1l-.2.3v.4h.2v1.1h.2v.1l-.2.1h-.2l-.3.3h-.1v-.8l-.2-.1.1-.2v-.4l-.1-.2.1-.1V65l-.1-.2h-.2l-.1-.2-.1.3v.1h-.1v1.4h-.4l-.1-.2h-.3V66h-.3v.5h-.1V66h-.1v-.2h-.2v.3l-.3.1-.4-.2v.3l-.3.2v.2h-.2l-.5.4-.2-.1h-.3l-.2-.3-.1.1.1.2v.1l-.3-.1-.2.1v.5l-.1.2-.1.3v1.6l-.6.2v-.1l-.4.2v.6l-.2.2.2.4h-.3v-.5h-.3v.9h.4l.2.2h.2l-.1.4-.2.1v.2l.2.3v.9l.1.1v.5h.2v.3l-.4-.4V74v.8l.2.2v.9-.2l-.3-.3v-.6l-.4-.3V74l-.2-.3v-.1l.2-.2-.2-.2v-.6l-.2-.4v-.5l-.2-.2v-.7l-.1-.2-.4.4v.5l-.2-.1v-.1l-.2-.3v-.2h-.2v-.4h-.6v-.7l-.2-.1h-.6v.8l.1.3v.9h-.3v-.5l-.2-.1-.3.2zm1.1 5.7V77l.1-.2v-1h.3v.5l.2.1v.2l-.2.2v.1l.2.2v.2l.2.7v.1h-.5l-.2-.4zm.9 4.1l.2-.1.2.1v.1h-.4zm.2 1.2l.1-.2.1-.1h.1v.3l-.1.1zm1 .4V83h.3l.2.2v.2l-.1.2v.3h-.1l-.1-.1.1-.2-.1-.3zm2.5-15.4v-.2h.2v.7h-.2v-.4zm0 4.3l.1-.4.1-.1v-.2l.3-.3.2.1-.1.2v.1l.2.3v.3l-.2.2h-.2zm.7 4v-.5l.1-.2.2.1v.2l.6.6v.4l-.1.2-.3.2-.1-.4-.1-.4h-.1zm5-10.3v-.5h.3v.5h-.1v.1l.1.6v.1h-.4v-.9zm.3.3l.2-.2h.2v.1l-.1.1zm.6-2.9h.7v.5h-.3l-.2-.4zm.8 1.5h.1v.1zm0 0"/><path d="m495 262h.6l.2.7 2.2 1 .2-.5h.1v-1.2h.3v-.3h.1v-.4h.2l.2-.2.5-.1v-.2l.4-.1v.1-.4l-.7.2-.1-.3.3.2.2-.5.5-.1.1.1v-.2.2h.4v-.4h.2v-.4h-.2v.1h-.1v.2h-.3v.4l-.1-.5-.2.2h-.1v.1l-.3.1.4-.8h-.4v-.2h.2v.1h.2v-.2l1.2-.6v-.1h-.2v-.5h.7l-.2-.6h-.2l.3-.2h.2v-.2h.4l.1-.2v-.1l.3-.2h.1v-.6h-.1v-.1h-.3.2l-.1-.3h.3l.3-.3v-.3h-.3l-.1.2v-.4.1l.4-.5v-.3h.5v-.5h.2l-.2-.2h-.3v-.2l.7-.3.2.2.1-.3h.1v-.7h.3l-.2-.5h.1v-.3h.3v-.5h.1l-.1-.3v-.2h.1v-.2h.3l-.4-.2.2-.3h.5v-.3l.1-.4h-.5l.2-1v-.5h.3v-.4l.1-.5h.1l.3-.9h.2v-.2h.1l.1-.5h.2v-.3h.6v-.5h.1v-.4l1.2.3.4-.2.1.1h.3l-.1-.5v-.5l-.6-.3h-.2v-.1l.3-.2 1.5-.4v-.3h.2v-.2h.1v-.2h.1l.3-.2.3-1.5.7-.1h.6l.2.6.3 1.8.2.6h.4v-.3l-.2-.1v-.6h.3v-.2h.1l.1-.4h.2v-.2l.8-.2v.5l.3-.5h.1v-.3h.3v-.5h.5v-.3h.1l.1-.7h.4l.1-.3h.2v-.5l.4-.2.5-2.1v-.2h.4v-.4.3h.3v-.2l.3.2.1.1v.3h1.2v-.4h.2v-.1h.2l.4-.5h.1v-.2l.4-.2v.2l.2-.1v.4l.4.3.5-.2v.2l.6-.4h.7v-.3h-.6v-.4l-.5-.1v-.1l-.2.1v-.1h-1.4v.2h-.5v.1h-.2v.3h-.3v.5h-.3v-.2l-1.3-.1v-.1h-.2l-.4-.1-.4-.4h-.4v-.3h-.4v-.4h-.2l.1.4h-.1v.1l.5.3h.1l.2.2h.1v.2h.1v.1h.3v.3h-.2v.2h-.2l-.2.8v.5h-.2l-.2.5v.2l-.7 1.1v-.6l-.4-.5h.2l.3-1.4-.6-1h-.2l.1.2.3.3v.1l.1.1.2.3-.1.1-.3 1.3.3.5v1.3l-.2.4-.3.1-.1-.3v-.7l-.5.3-.4.4v-.1l-.4.2-.3-.2-.1-1.3v.2l.4-.2h-.3v-1h.1v-.2h.4v-.3h-.5l-.2-.3v-.8h-.2v.8l.2.1h-.2l-.3.1v-.1h-.3l-.1-.7-.3-.1v1l.2.2h-.1l-.2-.3h-.5.1-.6v-.1h-.1v-.5h-.8v.8l.5-.1v.1h.1l.2.5h.3v-.3h.3-.2v-.1h.2v.1l.3-.3v.3h.5l.6 2.5-.6-.1v-.2l-.3-.1v.1h-.2l-.5-.3-.4.2.2.3-.1.2-.2.1v-.1l-.3-.4h-.2v-.4l-.3-.7-.3-.3v.5h-.5v.1h-.1v.2l.1.2h.2l.1.1h.2l.3.9h-.5l.2.1h.1l.4 1.3v.2h-.2v.3l-.3.1v.1h-.2v.3h-.4l-.6.2v-.1h-.2v-.1l-.1-.3v-.7h-.4l-.3-1.7h.2l-.2-.3h-.1v.5h-.2v-.4l-.4-.1v-.1h-.2l.2.5h-.1v.3l-.7.2-.9-.3v-.1h-.2v-.5h.2l-.1-.3-.5.2-.2-.3.1-.6h-.2l.1.3h-.4v-.2h-.1v-.3h-.1v-.2h-.2l-.2-1-.3-.3v-.1h-.2l-.1-.8h.1l-.1-.4h-.1l-.2-.3h.1v-.2.1h.1l-.3-.5.4-.1-.4-.5v-.8l-1 .3.2.4h-.2l.2.3h.1v.3l-.1.1v.5-.1.3h.1v.4h.3l.2.4.1 1h.1-.1v.2h.3v.7h.9l.1.7h-.3l.1.3-.2.1v-.1h-.3v.1l-.4.2v1.2h.4v.6l.2-.2.1.2v.2l.2-.2h.2v.6h.2l.2.5.2.1-.1.6h.2v.3h-.6v1.5h.3v.8l-.4.2-.6.2.2.3-.1.3h-.5v.5h.2v.2h.3v.3h-.3l-.2-.5-.1.5h-.1l.1.4h-.1l-.1.4v.4l-.2-.2h-.1v.2l-.2.2v.2h.3v.6l.1.4h.2v1.2h-.3v.1l-.2.1-.1 1-.3.1h.3v.3l-.7.3v.3l-.5.1v.3h-.2l-.1.5-.1.2-.6 1.2v.5h-.2l-.2 1-.3.2v.3h-.3v.3l-.2.2v.2h-.2l-.6.3v.8h.1v.2h-.3v.3h.1v.4h-.4v.5l-.3.2-.2.4v.2l-.2.1v.2h-.1v.3h-.3l-.3.8h-.1l-.1.3h-.2l-.3-.3h-.4zm1.7.2h.3v-.6h.2v-.4h.1l.3.8h-.2v-.1h-.3l.2.7-.3.2v-.3h-.2zm.5.5h.3v.3-.2h-.3zm.5-1.7h.1v-.2l.2.2v.4l-.2.4h-.1v-.5zm1.3-1.7v.2zm0-.1.3-.1v.2h-.3zm.4-.2h.1zm2.3-3.4v-.2h.3v.3h-.3zm.9-7.4h.2v.3h-.2zm1.8-8.2v-.1l.4.1zm.3 2.4v-.4h.3v-.2.3l.2-.1.3 1.3h-.3l-.2.3-.4-.6h.4zm.2 6v.1zm0-4.7h.1zm.6-2.3h.1v.1l.1.2h-.2zm1.1-2.4h.4v.2h.3v.2h.4l.1.3h.2l.2 1.3h-.4v.3l-.2.1-.1-.9-.3.2v.2l-.2-.2v.3h-.4l.4-.6v-.2h-.1l-.2-1.1zm.4 2.7v-.1h.4v.2l.3.2v.2l-.3.3-.3-.5h-.1zm.2 1h.2v.3h-.2zm5.6-3.5h.2v-.2h-.1v-.3l.1-.1.5.1.1.3-.3.1v.4h-.5zm4-2.2.1-.7.2-.1v-.1h.3v.3h-.1l-.3.6h-.1zm1-2.8h.6v.2h-.6zm1.4.3.9.2-.8.3v-.4h-.2zm-.1-.2h.7l-.2.3-.4-.3zm.9 0h-.1zm.7-.8h.1v.2zm1 0v-.2h.3v-.1.2h-.1l.1.1h.3l-.3-.3h.6l.2.3h-.2v.1l-.3-.1v.2h.3v.3h-.6v-.5zm1.2 0v.3zm0 .4v-.3h.4v.2zm-473.9-143v.1l.3.4.1.6.2.2v.6l.3.4.1.2h.5v.3l1.1 1.5.3.1v.6l.3.6v.3l-.5.2v.4l.3.5.1.4.5.8.2.7.2.2.7.2-.1.2v.3h.1v-.1l.3-.2v-1l.2-.1.1-.1v-.6l.3-.1v-.3h.4v-.3l-.1-.3v-1.2l.1-.1h.3l.1.3v.6l-.1.2v.5h.3v.6l.1.4v.1l.1.3.1.2h.1v-1.3h.2l.1-.2h.1l.1.3v.9l.2.2-.3.3v.3l.2.2-.1.1v.8l.3.3v.4l.1.2.1.4v.6l.1.2h.3v-.8l-.1-.2v-1.5l-.2-.1v-.2l.3-.1.3.2v.3l.2.1.1.1.1.2v.8l.1.2.1.2-.2.3.1.3v1h.8v.5h.3v-.3l-.1-.1v-.3l-.2-.4v-.1l.2-.1v-1l-.2-.2v-.8h.2l.1.2h.1v1.1l.3.2v-.3l.1-.1.2.2v.1l.3.2v.5h.2l.2-.3v-.3h.3l.1-.1v-.9l.1-.2h.1v.5l.3.6v.4h-.3v.2h.4v-.2h.1l.2.3h.1v.2h.3l.1-.2v-.3l-.2-.3v-.2l-.1-.2v-2.9h-.3l-.1-.2h-.1v-.2l-.3-.2-.1.2h-.3v-.2h-.3v.2h-.3l-.1-.4v-.2l-.3-.2v-.6l-.1-.2v-.3l.3-.1v-.2l.3-.1v-.2h-.2v-.3l-.3-.2.3-.1h.2v-.4l.3-.2.2-.1v-.2l.4-.2v-1.2l.3-.2v-.8h.3l.1.3v.8l.1.3.2.2v.5h.6v-.4h.2v.8h.1v.3h.2v-.8l-.2-.4v-1.2l-.3-.2-.2.2v-.6l-.3-.1v-.4l-.1-.3v-1.1h-.3l-.1.1-.1.1v.1l-.2.2v.4h-.2l-.1.3-.6.5v.7l.2 1v.7h-.5l-.1.2-.1.2-.3.2h-.1v.6h-.3l-.1.2v.2h-.6v-.2h-.3v-.5h-.1l-.1-.1v-.2l.2-.2v-1.3h-.3v-.3h.1l.2-.1v.5h.3v.2h.3v-.2l-.1-.1v-.2l-.1-.2v-.3h-.3l-.1-.4v-.2l-.1-.4-.2-.3v-.2h-.3v.1h-.2v.4l.2.1v.1h-.3v.3h.3v.1l.1.1v.1h-.5v-.1h-.1v.7h-.7v-2.2h-.2v-.4h-.2v-.1h.2l.1.3v-.4l.2-.1h.1v-.3l-.1-.1v-.4h.4l.2.2h.1v-.3l.1-.1v-.1l-.4-.3-.1-.2h-.2v-.4h-.2l-.3.3h-.2v-.7l-.1-.1h-.1l-.1-.3v.6h-.9v-.6h-.1v.3l-.2.2-.1.1v.1h-.2l-.1-.1h-.2l-.2.1v.1l-.3.1h-.5l-.2.1-.2.3v.6h.2v-.1h.2v.3l.1.1v.4l.1.1h.2v-.4h.1v-1h.2l.1.2h.3l.1-.2v-.3h.3v.3l-.2.2h-.1l.1.3v.2h.2v1l-.3.1-.2.1v.4h-.2l-.2.2-.2.5-.1.4v.6l-.2.1-.1.2v2-.1h-.4v.1l-.1.9-.1.3v.1h-.2v-1.5l.1-.1h-.4l-.3-.4-.1-.3v-.1h-.4l-.3-.7-.1-.6-.1-.2h-.2l-.1.3h-.2l-.3-.4-.1-.4v-.4l-.2-.3-.3-.5v-.5l-.2-.2zm3.4 7.3v-.2h.1v.3zm.5-.7.1-.4.1-.1.2-.2.1.1.2.2.2.3-.1.2v.6l.3.4v.2h-.3v-.1l-.2-.2h-.1l-.1-.3-.1-.1-.2-.3zm1-5.6v-.1h.4v.2l-.3.2v-.2zm.1 5.9.1-.1.2.1v.2l-.3-.1zm.1-3.6v-.2h.2v-.1h.4v.3h-.1l-.2.1h-.1zm.2-1.6v-.2l.2.1.1.1v.4l-.3-.1zm.4-.8v-.3l.3-.1v-.1h.2v.5l.2.1-.2.2h-.2l-.3-.1zm.1-2.8h.4v.8h-.3v-.6zm.2 6.5v-.2.5zm.9-5.2v-.3l.1-.3h.2l.1.2v.1h-.3v.4zm0 2.7v-.5l.3.1v.5l.2.1.1.3v.2h.6v.7l.3.2v-.2l.2-.1v-.3l-.2-.4h.1l.1.1.1.3h.3v.1h.2v-.1.8l-.2.2v.6h.3l.1.4h-.2v-.1l-.2-.1-.1.2v.3l.1.2.2.2v.3h-.7l-.1.1v.2h.4v.5l.2-.1.1-.2v-.3h.3l.2.2v.3l-.2.1h-.1l-.1-.2-.2.3v.8l.4.3v.6h-.8l-.1-.2-.1-.4v-.3h.1l.2.1h.1l.2-.1v-.1l-.2-.3-.1-.1h-.2l-.1-.2-.2-.1h-.2l-.2-.1-.1-.3v-.7h.3l.1-.2h.1v-.4h-.8l-.3-.2v-1.3h.2l.1-.1.1-.2v-.4l-.1-.3v-.1l-.3-.2-.1-.2zm0 5v-.3h.2v.3zm3-.9h.1v-.3h.1v.3l.1.1v.2l.2.1v.5l.1.2v.2l-.4-.2h-.1v-.2h-.2v-.2h.2v-.5h-.3zm.5 2.4v-.1l.2.1v.1h-.3zm.8 1.5.2-.3h.3v.3h.2v.2h-.4v.3h-.3v-.2zm412.8 188.4h.3l.3-.5h.3v-.3h.1l.1-.3h.2v-.2h.1v-.1h.2v-.2l.4-.3v-.7h.3l.1-.4.2-.1h.1v-.3h.3v-1.5h.2v-.2l.3-.1h.1v-.2h.2v-.1h.1l.3-.2h.8v.6l.3.1.4.1v.2h.1l.2.2v.1h.3l.7-.6h.7l.6-.1.3-.3h.8l.8.9v.2l.8.6 1 .6.5-.5.4.1.7-.1.2.8.5.4.8-.2v.2h.9v-.3h.2v-.2h.2v-.3h.4v-.2l.1.1v-.1l.5-.4h.3l.3-.2h.4v-.1l.3-.2.3-.8v.1-.3h.4v-.2l.1-.4h.2l.5-1v-.2l.1-.5.1.2v-.5h.1v-.2l.2-.5h.1v-.3h.2l.3-.5.1-.6.8-1.2h.1l.2-.4v-.1h.2v-.2h.1v-.6l.2.1.3-.8h.2v-.2h.2v-.4h.3v-.6h.2v-.3h.2l.3-1.1h.1v-.1h.2v-.5h.2v-.3h-.5v.7h-.2v.2l-.5.7-.2.7v.2l-.1.4h-.2l-.1.6h-.1v.3h-.3l-.1.5h-.1v.4l-.5.2v.2l-.3.4h-.1v.3h-.2v.3h-.2v.1h-.1l-.1.4-.3.3h.2l-.2.6h-.3v.6h-.4v.5l-.3.1v.4h-.2v.3l-.2.3-.1.6h.1v.4h-.3v.3h-.1l-.2.5h-.2v.5l-.4.4h-.4l-.2.4-.4.1-.6.1-.4.3-.4.3h-.6l-.3.5-.6.1-.5-.5v-.6l-.3-.4-.7.2-.7-.4-1-.1-.9-.6-.2.1-.2-.5-.9-1-.3-.1h-.9l-.1.8h-1l-.8-.8h-.3v.5h-.3v-.3h-.6v.6h-.1l-.2-.4h-.4v.2h-.3l-.2.2h-.6l-.1.2-.2.3-.2.1-.6.1v.7h-.2v.6h-.2v.2h-.3l-.1.5v.1l-.1.2h-.2l.2.1h-.2l-.4 1.3v.2h-.2l-.2.4v.2h.2v.2h-.2zm-338.6-193.8v.2h.6l.1-.3.3-.3.3-.2h.2v-.4h.3l.1-.1v-.1h.2v.3h.7l.1.2.2.1v.2h.1v.1h.2l.2.5h.1l.1.2h.3v.5h.3v-.2h.2v-.3l-.1-.4v-.2h-.6v-1.4h.2v-.2h-.1v-.4l-.1-.4v-1.5l.3.1h.1v-.6h-.2l-.2-.4v-.3h-.3v-.6h-.3l-.1-.4-.2-.3-.2.2.3.5v.1l.2.4h.1v.8l.2.5v.8l-.2.1-.1.2h-.2v.1h.3v.7h-.5v.6l-.2.3h-.1l-.1-.3h-.4v-.3h-.1v-.5h-.4v.2h-.1v-.4h-.4v-.3h-.3v.3l.4.3h.1l.1.3v.2h.4v.5h-.6l-.1.3v.3l-.4.3h-.5v.2zm-5.4 11.6h.1v.1l-.1.6v.4h.2l.2-.6v-.5l.2-.3.1-.6.2-.2h.3v-.2h.4v-.6l.1-.6v-.1l-.1-.4h-.5l-.2.3-.1-.2h-.3v.6h.2v.1h-.2v.4l-.3.1v.8l-.1.2-.1.5zm108.2-215.4.1.4.5.7.7-.3.2.9 1 .5.3 1h-.5l1.6 1.6.5 3.9.5.1.5-.6.3.3.3-1.6 1.4 1 .3.7 1.6 1.2h.5l2.7 2.2 1 1.5.8 2.3 2.8 2.6 1 3.2 1.4.8.6 1.4 2.2 1 .9 1.5.6 1.6-.2 1.4-.6 2.9-2.7-.7.5-.5-.2-.4-1.4-.7.3.7-.2.6h.5l1.5 3.5v.4l-1.3 1.1v1.9l.3.8-.3 2 .6-.7-.4-2.5.3-1 .3-.4-.1-.3 2.2.4.2.7h.8v1.1l1.1.3.8 2.7 1.6 2.6 1 5.4 1.1 1.9.3.1v.7l.7.2-.4.1.4 2.5.7.1.3.7v2.2l.9 1.3-.1.7.5.5-.3.4v.6l1.3 2v1.2l.6-.1.7 1.1v-.6l.7-.6-.4-1.2h1v3.7l-1 1.2.1.9.3-1.1h.4l.3-.7.5.1v.7l-.5.2.3.2h-.4l.1 1-2.3 2-1.2 1.5h-.4v.8l-.7 1.1.4.1.3-1 1.5-1.8.7-.2.2.5-.3-.7.8-.6.8.6-.2-1.3.7-.1-.5.7 1.6-.8-.2-.5h.7l.7-1.1-.6-1.7.6-.5-.3-.4 1 .6.8-.2v1l.7-.5 1.2.7-.1.8.4 1h1.1l.3-.5.1.8-.4.1v.5l1.1-.2.3.5.5-1v.8l.8.1.2.9h1l-.2.5 1 1.3-.5 1 .3.6h.7v.6h-.5l-.1 1-.5-.4v1.4h-.3l.1 1.3.5-.7.3.6.2.8-.4-.2v.4h.5l.1.3.2-.2.3.5-.8.9-.4-.7-1 .1v1l1.5-.1.8-.6v.6h-.6l-.3.6.4-.3 1.3 1-.1-.8h.7v.5l1.1.4 1-.5 1.3.2-.3-.4 1.5-.4v.8l-.4-.1-1.1.5 1.7.2-.3 1-.5.3-.4-.2v.2l-.6-.5-.6.1.6.4-.2 1h.3v.7l-.8-.4-2.1 1 3.1-.2.2-1.4 1.3-.3.6.1-.1.8 1 .7.1-.4-1-.7.6-.8.3.8.5.4-.4-.5.4-1h1v-.4l1.7.6.2-.3v.4l-.9.2h.4l.2.4.4-.7 1 .2-.1.5-1.3 1 1.4-.4.1.8-1 .5v.6l-1.1.3h1l.3-1 1.3-.5h1l.2 1.2-1 .2-.5.6h3.3l.5-.3 1.4 1.3 1.3-.6-.1 1.4-.7 1 1.5 1.6 1.3-.2.2 2.6.7 1.2h.6v1.7l1 .6-.6.8h.6v.6l2.1.3 1.9-1.2.3.2.2-1.4.8-.9.4.3v-.7l.4.1.4.8.7.2-.1 1.6h.6l-.2 1 1.6-.2.3.8 1.5 3.4.3 2.3.8.6.1.8-.1.4h7.7v-.3h.7v.3h3.1v-.4l1.6-.8 3.1-.2-.3-.6 1.1.2.3-.5h.8l1.2-1 1.6-.4 1.6-1.1v.3l1.6.1 1.6-2.3 2.5-1.7.8-1.2 1.1-.3.1-.4.7.2.6-.6 1.5-.4-1.6-.5-.3-.6 1.3-.9.3-1.3 1-.9 2.1.2 1 1.6.6-.3.1 1.8h1l-.6 1.8.8.9v2.2l-2.7 2-4.1 1.5-2.6 2.1-3.3 1.5h2.3l2.5-1.3 1.8-.5.6-.6 3.3-.7 2.1-1.8.1-.4 2-.8 1.3-1.4.7-2.6.6-.2-1.2-.6-1 .7.8-2v-1.9l-.5-.3 1-1-.4-1.1 1-.2v-1.8l.7-1.3.9.7h.4l.3-.5.2.8.7.5h.9l.8-.3 1.2.9 2.4.8 1.3-.4v.4l.8.4 1.6-.6.4-1-.3-.7h.5l.3 2.4-1.3 3.5 1.4-3.4.1-3.1-.4-.5h.3l.2-.7-.4-1.4-.3-.3-.7 2.4-.8-.4-2.5-2.6-.3-1.3-2.6-2-.7.9.1-1.7-.4-.2.2-1.2 1.7-1.7 2.2-3.4 1.5-5.4 1.1-1.6-.6-.6.7-.6-.3-.7h.5v-.8h.3l.8-1.5.3-1.9-.6.1-.5 1.5h-.3v.9l-1.1 2.1v.9l-1 1.4-.9.1-1.8 3.5-1 1v.7l-1.5 1.4-.5 2.2-1.3.9v-.5l-1.4.3-1.6 1.7-.7 2.1-1.4.3v.5l-.6.4-.3-.9-1.6-.8.6-.4-.2-.5.6.1v-1.2h-.2l-.2-.8.9-1.4-.5-.4.4-.4-.2-.7 3-1.7.8-1 .3-1.5 1.5-1 .3-1.1 2.9-3.8.6-1.6.5.3-.2-1.2.8-.4-.1-.5-1.1-.6-.7-1.9.6-1.4v-1.3l-1.3-.3 1.5-.3-.3-.4.7-.9-1.8-.7v-.6l-1.3-.8-1-2.9.2-3h-.2l-.3-2.3-1-.3v-1.1h-1.2l-.3-.6-2.3.1-1-1.5-.7-3.3.5-.6-1.2-2v-2.8l-.8-2.2v-1.4l-.3-1.4 1.3-2 .3-3.3-.6-2.9-.5-1-1 .3.2 5-.5 2-.7.6-.6 2.8.4 1.4-.6.7.3.4-.4.2v1.2l-.7.2v1.2l-.6-.2-.8.8-.9-.7-.8.8-.2.9-1.7.2-.4-.6-.2.5-1.3.6-.7 1-.3-1-.7.7v-.6h-.8l-1.2.5-.2 1.7-.6-.6.5-.8-.3-.4-.3.4v-1.7l-.5-.1.2 1.2-.3.3-.7-1.8-1 .4-.4-.2-.7 1.1.5.3-.9.4.3.5.4-.2.3.2-.7 1-.5-.6.3 1.1h-.4v-1.7l-.7-.4v-.7h-.5l-.2-1 .4-.7-.4-1 .8.5.1-.5-.9-.4v-1.1l-.5-.2-.1-1.6h.8l-.6-1.7-.3-.6.2-1.2-.7-.8v.5l-.7.4-.7-1.5 1.2.5.4-.2-.4-.5-.5.2-1.4-1.7-1.3-.1-.3.8-.7-.7v-1.1l.8.5v-.5l-1.6-3.3h-1l-.7-.9-.5.1.2 1.4-.2-.3-.7-1 .3-1.2-.5-.3.2-.8-.8-3h-.8l-.3.4-.7-.6h-.5l-.2.8-.6-.5-1.3-2-.1-1.6-.6-.3h-.4v1.3l-.8.2-.2-.3-.5-1.1-1.9-2.2.6-1.3-.2-1.1-1.6-2.2-1.2-4.2-.5-.1-1 .8h-1.3l.3.6v-.5l.5.3-.5.9v1.9l1.4 2-.4 1.1.3 2-2.2-3.2-.3 1.6-1.5-1v1.8l-.9-.3 1 2.1-.1 1.6 1 2-.1 1.8-2-2.4-.5.6-.4-.7-1 .3-.8-.4-2.6-3.5.1-1 1.7.6.8-2-.8.7-.4-.9-1.2-1-.7.3.6 2-.5.5-.5 1.9 1.1 3.3-.2 1.3-1.6-.5-2-2.5-1.2-1 .4-.5v-1l-.4-1.5-.8-.4-.5 2v2.5l-.5 1.7-1.6.8-.4-.4-.7.2-.3 1-1-.8-.5.2v.4l-.9.2 1 .6h-.9l.3 1-1.3-1-.3 2.6.6.1.5 1.3h-.4l.2.5h-1.8v.7h-.6v.4l-1.5-.3.8 2.7h-.6v-.8l-.6-.2v2l-.5 1-1.9-.5-.9-1.4.3-2.3.6-.5-.2-.8.7.2v-1l-1-3-.3-.4-.3-1-1-.3-.2-.7.5-3.2-.7-2.2-.5.1.2 1.3-.6 4.5 1 3.6-.2 1.2-.6-.9-.2-2.1-1.6-.2-.4 1 .4 1.6-.8-.7-.6.1v.4h.6l.4 1.8-.8 3.4-.4.2-.7-1.5-.3 3-1.5-.2-1.2 1.5.5 3.1 1 6.5-.5 3.2-1.1.4-.2 1 1.8 4-.9 4v2.4l-1.9-.9-.7-1.3-2.1-.1v-1l-2.7-3.3-.4-.2v-1.1l-2.1-3.5-.4-1 .6-2.1-.6-2.1-.6-.3h-1l.7.6.6 2.1-.8 2.9-.7-.3-1.3-2.3-.4-3.9.7-.7.2-1.1-.2-2-.2-1-1-2.4-3-4.2-1.2-1.2-1.3-2.8-1.4-1.4-3.1-5-.9-.4-1.5-2.9-2.5-2.8-.7-.8-.6.2-.1-1.3-2-1-2.1-3.2.3-1.3-1.5-4.6-1-5.9-1.6-3.8-.3-.2-.5-1.4-.4-.2v6.6l.8.4 1.2 2.3.1 1.8-1.1 1.1h-.7l-.3-.2zm91.4 19.2-1.2-1.6-.1-1.2 1.2.7zm-14.1-4-.8-.4-.3-1.5.4-.5.8 1.1zm5.7-1.1-.5-.5-.6-1.4.6.4zm-1.2-4.7-.9-1.6v-1l.3-.2zm-3 5-1.4-2.3 1.4-3 .8.7.2 1.4-.2.6-.9.4zm-76.5-12.7-.5-.8.4-.2.4.5zm61.1 27.5-1.3-.9.2-.6-.4-.3.9-.8.3.4-.7 1 1.2.8zm-18.3 40.3-.3-.3-.3-.7.5-.3zm17.9-6.8-.8-.3h.6l.5-.5zm-27.2 0-.2-.8.2-.5v.3zm92.6-4.5v-.3h-.4l1.6-.5-.3.5zm-3.8.5-.1-.2.7-.6.4.6zm-57.6-.7-.6-.4 1-.4.3.6-.4-.3zm4.4 13h-.4v-.9l.7-.1v-.8l.1-.2-.2.4.8.2zm34.4 1.7v-.3l.6-.7v.2zm1.6.3-.3-.1.1-.6h.4zm.4-.9-.5-.2v-1.2l1.1-1v.9l.8-.7-1 .8v1zm1.6.1v-.7l.3-.3.3.5zm10-2.3-.4-.2h.4l-.1-.7.4.8zm-9.3 2.7v-.7h.6l.6-1.7 1.4-1.6-1.2 2.6zm4-1-.7-.3v-1.9h1v-.5l.4 1.5v.4l-.6-.3zm-4.6-2.4h-.7l1.1-.7v.5zm21.3-.7h-.5l.1-.4 1-.6zm-13.4 1-.9-.9-.2-.9h.7zm-1.8-.3-.7-.3-.1-.3h.6v-.6l.4-.4.3.6zm14.2-.8-.5-.2.1-2.2 1-.5v-.3l.2.1v-.5l1.2-.6v-.3l.5-.1v2l-.9.4zm-3-2-.1-.2.9-.8-.3.6zm-15.6 2.4-.5-.7 1.5-1v.4zm-.8-1 .2-.6 1.2-.3-.6.7zm16.8 0v-.9l.8-.1.1.4zm-1.4-.1-.2-.5.9-.5-.1.4zm-15-.7-.2-.4.7-.2-.1.5zm4.9-.2h-.4l-.1-.6.6.4v-.4l.2.4zm7.2-.4-.6-.2-.2-.9-.4.3-.7-.8 1.4.4zm-48.1-.6.4-.8.1-.1v.7zm49.5.4-1-.8.4-1.2.5-.3.3.4 1-.8.7 1.1-.6.9zm3.5-1h-.4v-1l.6.4zm-67.3-.8.7.4v-1.6l-.5-.4-.9-3-1.4-2.1v.9l-1-.8.2-.6.8.4v-.9h.8l.2-.6 1 .6.4 1 .5-.3.4.5.1.7-.5.1.3.5-.4.2.2 2.8.4 1.4h.5l.1 1 .8.9.4 1.9-.3 1.5-.8-1.4-1.1-.5-1 .1-.2 1.1-1.1-2.3-.4-3.3h.4zm38.1 41.8-1-.4-.4-.4 1.4-.4zm-25.2-11.5v-1.9l.4 1.8zm3 .1-.6-1.6.5-.5-.1.8.5.2v.8zm28.4 8.8 1.1-.6.9.1-.9.4zm4.4-6.8 1.6-.8h.9l.4-.6-.6.8h-.7l-.6.7h-.4l-1.4 1.3-.4 1.1.8-.1v.7l.5.6-1.3 1.3-2.2.3-1 .8-1.8.3v.7l.2.3-1.1 1h-1.2l-.7-.2.7-1.1h-1.5l.2-.6 1.4-.1 2.3-2.1 2.3-.7.5.5 1-.1.3-2.1zm-.7 0v-.6l1.3-1-.7 1.3zm4.5-1.2-.4-.4.8-.1 1.3-1.5.7-.2-.3.9zm-23.7-4.8.2-.6.4-.2v.4zm28.7-.4v-.6l.4-.1-.1.7zm0 3-.4-.4v-1l1.5-.8-.3 1.5zm-2.4-.3.2-.8.4.1v.4zm-.8.1-.6-.5.1-.5 1 .3zm-2.4-.5-.5-.2v-.3l1.4-1zm.8 0 .6-1.4.8-.5.3.5zm4.2-2.5-.2-.4.7-.6-.1.2zm-65-8.6h-.9l-.2-.4 2-.4-.3.5.1.2zm-.6-.7h-.8l.2-1.7.3.4.4-.5.3.9.5.2zm2.5 0-.9-.1.1-1.3.5-.3.2 1.1.6.1zm1.3.3-.5-.2v-.4l1.1-.3 1 .2zm8.6 5.9v-1.3l.9-.4.7-.2.6.7v.3zm-1.8-1.4-.8-.3.8-.2.4-1 .4.6-.8.4zm73 1.5-.1-1 .4-.2.3.5zm-13.7 5.9-.5-.1-.1-1.9-.7.2.5-.8-.2-1h.4l.3-1-.3-1 .4-1 1 .1.6-1.4h.3l-.1 3.5.5-.3-.1-.8.8-.2.3.4-.8 1.4.2 2-1.6.4-.5-.3zm-5.6-5.1.2-1.9h.2l.3 1.3zm-8-8.3v-.2l.5.9.2-.3h-.2v-1.3l-.6-.7v-.6l.8.3.3-.6-.5-.4.2-.9-.2-.5.2-1.6.6.4v1.9h.4l.1-1.4v.3l.6-.3.8.3.3-.4.2.9-.9 1.3v1.2l-.5.2.6.2 1.4 2.7.2 1.3 1 1-.3.3-.6-.5.4 3 1 .5.6-.5.1.2.3-.6.5.4.3 1-.8.2.4.8-.5.4v.4l-.7 1.2-.8-.2-.2 1-2-.3-.5 1-1.9.2.6.5 1.9-.2.1 1-2 .6-.4.7h-1.3l-.4 2.3-1.2.5-.7.8-.3 2.1-2 .5-1.2 1.1-5 .1-.4 1.1-1.5 1.2h-.9l-.4-1.3.3-.4-1.5-1 .6-.9-1-.7-1.4-.2.4-.6-.4-.6.5-.6-.1-1.1h-1.4l-.4-.6.8-1.6-.1-.7h-.7v-.5l.2-.2.5.4.3-.5-.6-.6.9-.7h1l.7-1.4-1-1.2 1.3.2.8-.5-.9-.2 1-2.4v-.9l-2.1 1.4v.4h.3l-.3.3h-1.2l-.1.4-.8-.9.4-.2v-.6l-.8.4v-1l1.8-.7-.5-1.3 2 .2.2-.4.3.3.4-.5.4 1.3 3.6.7v.4h-.4l.5.6.3-.4 1.5-.1v.5l1 .1.5-.1.8-1.3.4.6 1-.7v2l.3-1 1-.1v-.8l-.8-.7v-.3h.5l1 2.3-.7.5-.3 1.2h.5l1-2h.5l.3 1v-1.3l-.8.2v-1h-.9l-.1-1.3-.3.3-.2-.2-.4-1.4-.2.2-.8-1v-1.6l-.3-.4.5-.3.4 1.2h1l-.7-2.8.2-1.5.7-.8.8-1.7.8.7v-.4l1.5.2.3-.3v.5l.3-.5.6.2.2 2.3-1 .5v.4zm7.5 12.5-.5-.6.4-1.6 1-1.3.3.2.6-2.2.6-.7-.6 1.7.2.5-1 1.3-.1 1.3-.7.3zm9.9-7.1h-.2l.5-1.2.8-.2v.6zm10.3.1-1.3-1.2.1-.2h.7zm-50.2 0-.4-.1-.1-.6.2-.1zm32.2.3-.5-.9.1-.7v.9l.7.2zm-17-.9-.2-.7.2-.2v.8zm14.7-5.3v-1h.5l-.2.9zm-26-.1-.5-.6 1-.1v.2zm23.1.5-.2-.8-.3-.5h.4v.3l.3.2zm19.8 6.5-1.8-.8-.8.2.4-.7-.5-.3.2-1-.3-.4 1-.5 1.6 1.2.6-.2 1.3 1.5.5-.5.5.6-.6.5-1.7-.1zm-70-2.4-.9-.5-.1-.7 1 .6zm21.6.8-.7-.1-.3-.7-.2.4-1.3-.7.4-.8.7-.3v.7l1 .3zm38.3 1.3-.5-.2.8-.5.4-1.7.3.7zm1.4-1-.3-.3.4-1.1-.6-1.4.6-.2.6.5zm-6.9.9-.8-.3-.6-4.9.7.6.3 1.1zm-1.5-1.8-.9-.5.5-.7v-1.3l.6 1.3zm-27.5 1.5v-.6l-1.2-1.7 2.2 1.2v.8zm10.7-.9h-.7l-.1-.7.5-.5.8.1.5-.6-.5 1.3-.2-.2zm-14.8-1.4-.9-.4.1-.5 1 .4zm30.4-1.3-.4-.2-.3-.8.5.1zm-18.3 1.3-.7-.2-.3-.6.8-.6h-.4v-.6l.3.2.1-.8.6.2v-.6l.8.3-.5-.6.4-.3.9-.1v.4l.6.5v1.4l-.2.4-1.1-.5-.3.4-.2-.9v1.5l-.3-.2zm-5.3-1-.2-.6.7-.3v-.7l.6-.4.4.3v.6l.5-.3.4.2-.4.7zm-2.4-.5h-.5v-.5l-.8-.4 1.5.1zm.7.1h-.2l.4-1.1 1.1.1-.4.9zm13 0-1.5-.6.2-.5.7.3v-.6l.6.1zm-3-1-.4-.3.4-.7.4 1zm-43.9-2.2h-.3l-.2-1.5.3.5h1.2l.3-.5v.7h-.6l.4.4zm33.4-3-.3-.8.4-.1-.2.4.6.3zm1.4.9-.9-.3v-1.6l.4-1h.4l.4 2.2zm25.4.3-.4-.6.9-.2-.1.4zm-12.5 0-.4-1.1v-.7l.6.5zm9.5-1.4v-.6h.2v.5zm-14.1 3.7-.5-.2.8-1 .2.7zm16.8-.9-.6-.4.9-.6v.3zm-23.4-.8h-.8v-.1l.7-.3zm20.7.7h-.1v-.9l.4-.6-.3-.2 1.2-.6-.2 1.4zm8-4.1-.3-.2 2.7-.6-.2.5-1-.1zm4.3-.4h-1.1v-.4l1.9-.7 1.2-1.1v1zm-7.9.6-.9-.3v-.5l1.8-1-1.3-.5-.3-.4.3.7-1.1 1.4.7.5.3.6-.6.6-1-.4-1.1.5.7-1-.8-.2v-1h.5l.6-1.2h-.4l.5-.3v-.6l1.1-.1-.4-.8.4-.3 1.3.6-.3-.9 1.3.7.3-.2-.1 1.1.3-.9.8-.2 1.3.7v-.6l-.4-.2.7-1v-.7l-.3.6-.7-.4.5-1h.6l2.3.7 1.7-.2v.5l-1 .3 1 1h.7l.4-1.1-.3 2.1-.8 1.1-2.8.6-1.2-1.3.3.7-.9.3-.3.3h-.4l-.4-.3.1.2-1 .1.3.6-.6-.1-.1.8h-1.1zm-3.7 0-1-.6.3-.8-.3-.9-.5 1.4-.7-.1 2.2-3.6.4 2.6zm-55.5-17.3h-.4l-.3-.7h1zm1.5-1.2-.6-.8.9-.3-.3.4.3.6zm3.5-1.6h-.4l.2-.6.3.2zm-.7-1.5v-.5l.4-.8.4.9zm-.8-.5-.6-.6 1.6-.4-.5 1-.3-.5zm-41.2-21.3.5-.3v.8l-.5-.2zm29.7 6.8h-.3l-.2-1.2h.6zm6.8 18-1.4-1.2.6.6v.8l-.4-.3-.6.5-.1-.4h-.8l-.3.2h.4v1.5l-.9-1.6-1.1-3.1-1 .1-2-.8-1.5-1.2v-.2l1.5-.3v-.5l.4.7 2.6-.5.1.6 1.9.1 2.8 1.2-.5 1.4h1.4l.3 1.2-.8.8.2.7-.1-.5-.5.5zm12.7-8.4-.7-.3-.1-.7h-.5l-.7-1.4 1 .5zm1.4 1.6-.4-1.1-1-.8-1.4-2.6 1.4.2v-.7l.6.4v-1.2h.2l1.4 1.8.4.7-.3 1.3.4-.2-.3.3h.4l.2.7-.4.8-.9-.2zm-8-6.3v.8l-.7.9-1.8.7-1.2-.8-.4-1.1-1.3-.3-.1-.8-.9-.4-.9-1-.8-.3.5 2 .7.4.1.8-1.5-1.2h-.7l-1.1-2.1-.7-.3-.3.5-1.5.1-.4-.2-.4-1.5.7-1.5.8-1.2 1.2.5-.3-1.3-1.3-1-.9-1.7.4.1-.1-.5.5.1.2-.3-.5-.9h.6l.2-.8h.5l.3-.6-.5-1.7-1.4-.4.2-1h1.6l.4-1 .2 1.2h.7l.5.6.2 1.9 1.3.2 1 2.8.9.5 4.4 3.5 1.8 4.2-.7 1 .1.7.4-.2zm3.3-11.6-.9-.9v-.2l1 .8zm.1 0"/><path d="m322.3 0-.1.3-2.6 1.2-1.6 3.3-1.3.5-.7.6v.4l.4.4.6-.2-.8-.5 2-1.4.9-2 1.2-.7-.6.1.3-.6 1.6-.4-1 .7.5-.3h2.5l2.7 1 3-1.4.5.2-.4 2.4.4 1-.2.7v1.3l.4-2.6-.5-.4.5-3.6zm8.3 0 .4.6 2 .2.7-.5v-.3zm17.9 0-2 .8-1.9 2.2-5.5 2.8-1.6 1.6-.5 1v2.4l.7 1.2.1 1.6-.4 1.4 1.8 3 2.9-.6 2.7 1.3v.6l3.5 3.3-.6-.8.8-.6 5.1 7.5 3.4.8.7 1h1l2 2.7 1 .5v2.3l1.7 1 .9 2 1.2.2 1.2-.4 1.3.5.3.6-.3 1.7.2.6-.4 1.5-.7.7-1.1-.7-1.1.6h.9v-.3l1.5.6 1.3-2.1-.6-1 .6-1.2-.2-.8-1.4-.9-1.6.3-1-.3-.5-1.6-1.9-1.3v-2.3l-1.2-.6-1.2-2-1.8-.6-.9-.9-2.9-1-5-7.1-8.9-6.7-1.9-5.5.4-1-.6.4v-.4l1-.6v.2l-.2.3.4-.1 1.2-1.6 4.6-2.4 2.5-2.2 3.3-1.6zm-7 5 .1-.2 2.2-.8-1.2.7zm108.5-5-.4 1-.2 2-2 .8-1.4-.5-.8-1.3-.3-.3-.1.3 1 1.6 2.2.4.3 1.3-2 .5-.5 5-.8 1.1v-.4l-.3.3.3.2-.2 1.5-.8-.2v-.7l.3-2.4-1.6-.5-1.1 1-.3 1.1-3.5 1.2-.8 1.5-.7.3-1.8-.3-1.5-1 1 1.5h1.5l.3.9-.3.3-.7 1.8.4-.2.4-1.6 1.9-.2.4-1 1.2.3.5-1.1v2.5l-.2.3-.3 2 .4 3.2-1.3-.2-1.2 2.2-1-1.5-.6-.1-1.3 1.4-.4 1.3-.9-.5-1 .6-.6 2-.4 1.9-.6-.3-.2-2-1-1.2-.6.6-.6 2.3-.2-1.4-1.2.5h-.2l-.3 2.7-.6.3-.1-1.8.3-.4-.2-.4-1.6 1.8v-1h.3l.4-.6-.2-1.6h1.6l-.1-2 .7.5.4.1v-.7h-.3l-.3.2v-.9h.3l.5-.4-.3-.8 1.4-1.8 2.5.3.2-.2.3-1-.7 1.1-1.6-.4-.7.1-1.1 1-.3-3.1.7-1.2.1-1.6-.7-.3v.8l-.3-.5v.5l-.4 1.3.3.7.1.3v1.6l-.3 3.1-.9-.7-.8.5-.4 2.3h-.4.3v.6l-.3-.2-.2.4-.3 2.5-1.3 1.4.3.7-1.7.7-1 2.2-.5-.4-.6.2-.4 6.7-1.3 1.6-.9 4.6v1.2l.1-.5h.5l-.4.4.4 2.2-.4 2.4.6 2.4-1.8 1.3-.6 1.1-1.3 4.6v1.9l-2.1 3.4v1.2l1.4 4.4-.2.8-1 .8-.3 1.6v1.3l1.6 2.8-.6 3.4.2.7-.5 1-.8.3-1.3 1.4-.2 2.2-1.1 1.6-.6 4.5h.4l.2-2 .4-.3-.1-1.4.9-2.1.3-2.5 1.2-1.3.9-.2.3-.7.5-4.7-1.5-3.4.3-2 1-.9.2-.9-1.5-5.6 2.3-3.4v-1.7l1.1-4.1.7-1.3 1.3-.8.3.2.4-1.3v-2l-.3-.6.3-2-.5-1.5.5-1.3 1-.5-.1-1.5.6-.9 1 .6.4-.9.6-.6.7-5.9.4.2.1 1.6h.6l.4-2.1h.3l1-2.2.4-.5-.1-.5 1-.5.2.5h.5l.4-.6.8-1.4.1-1.7.5.7.7.1.6-1.4v-1.6l.4 1 .8.4h.7v-1l1.2-2.8h.8l.4-.5.4.4 1.7-2.7 1.5 2-.4 3.1-1.6 5.3v4.2l1.5-1.7 1-2.6.5.2.6-.7-.1-1 .8.3v-.5l.7.5v-3.6l.5-.6.3.7.6-1.7h.6l.6.6-.2 3.6-.2 1.8h-.6l-1 2.9v1.6l.6-.3.6-2.2.7-.4 1.1-3.3 1-1.5.1-2.3-.5-1 .2-.7 1.7 3.1.1 1.3-.6 1.6.4 1 .8-.3-1 1.5-.5-.2-1.2.9-.1 1.3-1 .5v1l.4.6.2-.6v.6l-.4 2.2.1.9h1.9l.6-1.4.7.6.5-.6h.9l.3 5.4-.2 2-.6 1.3.3 2.4.6.8-.6-1.5.7-6.4 3.9-5.1 1 .9.8-.7.7 1.9.9-.2v2.8l1-1.1-.2 1.8h-.5l.3.4 1-1.2.7.3-.4.6.5.2v1.4l.2.6h.4l.1 1.3 1.5-2.5h.6l-.5 4.4.6 1.6-.3.4.8.1.3-.5-.8-.5-.3-1.5.5-2.2.6.2 1.5-2.5.6-.2.5-2 1.2-2 .2 1.4.5.4-.3.8.6.3 1.6-6.3.8-.1.5-2h.6l.5-.5.1-.9-1.2-.2.6-1.3.4.1v1l1.5-.7.2 1-.4 1.1.2 1.6-.5 1.6-.9 1 .1 1.3-.7 1.4.9 1.7v-1l.4-.2.1-.8.3.6.6-.1.8.8.5-1.5.3.2-.9 6-1.5-2.9-1.5 10.2-.5-.1.2-1.2-1.4 2.6-.8 4.3-1.2 1.3-1-.4-1.3 1.8 1 1.1-.2 2.8-1.2 1.5v1.2l-.9.3h.8l.3.6-1.3.6-.5-.7-.8-.5-.8.3-1 1.2-.6 2.5.4 2-.6-.2v.5l-.7.2.5 1.3.6.4-.4.3.4.2-.5.7 1 .1-.5.6 1-.2v.3h-.3l.1.9-1 1.7.6.7v.8h-.9l-.1 1-.4-.3-1.7 1.2-.8 2 .3.7h.5l-.1.9h.4v.5l-.6.9v-.3l-.8-.4.8.6-.8.6.8.6v2.2l-.5.7.6-.5v-1.8l.8-1 .6-.1.3-.8.8.5.3-.9-.5-1.2.7-.2.4.4.2-.8 1.7-.3.6 1.3.8-.7v.5h.4v.6l1.6.1 1.3-1.4.7.3v-.6l1-.8.7-2 .2.5.8-.2.3 1.1-1.4 1-.4.9.9.9.1 1.7-.6.1v.5l.6.6.5-.2.5 1 .2-.4.2.3-.7 1.9-.9 1.1-1.6 2.5v1l1.2.4-.4.4-.3.4.3.1v-.6l.7-.2.5-.8.3.7 1.6-.9 2.5-3 .2-.1h.8l.6-1.1.5.4.5-.3-.2-.4.2.2 1.1-1h.5l-.2-.3.4-.2.3-.6 1.3-1h1.1l-.2-1.1.6.2.2-1 1-.6-.9.4-.4-.1v-1.8l1-.6.3-1.5h.7l.7-1.3.5.2v-.8h.4l1.4-1.7v-.5l1.3-.7 1.1-1.9.6-.2v.3l1.3-1-2.1 3.6h-.4l.1.4h.7l-.3.6-.8-.2v1.8l-1.1.2-1.9 1.9-.5 1.2-.7.7.7-.4.9-.3 2.9-3.2 2.6-1 1.4-2.2.6.2.4-1.3 2.4-1.5.3-.9 1.1-.5 1.9-2.5v-1.3l-.4.7-.2-.3.4-1.1h.7l.7-.8h.9l.4-1.5.7.7.8-1.6.3 1.3.2-1.4-1.7.3.4-1.6 1.7-.6.6-1.2.6.3 2.4-2.1-.2-.5h-.8l-.7.4-.8-.6-.8.3.3-1.4-.9-.7.3-1.3 1-.4 1-1 .4.2.2-.3-.3 1.9-1.2 1 .5.6.5-.4 1-3.7.8-.8-1-.6 1-1.1.4-.2.6.9.7-.2v1.2l-.7.3.5.3.2 1.3 1.2.4-.4 1.7-.6-.4-.8.7.6 2.6.7-.2.4.3.9-1.4 1-.2-.3.8.9 3.1.3-.2.2 1.1-.6.9.4.4-.5.5.7 1.7 1.2-.1 1-1.7 1.1.2v-7.1l-.5-.7.1-.8.3-.2v-11.7l-.3.1.3-.6v-16.3l-.6.4-.1-.5.7-.8v-31.6h-50.5l.6.3.2.4-1.1 1.1-1.9-.7-.7.4-.2.8-.3-2-1.7-.3-2.5 2-.5 4.3-.5.4-.4-2.4-3-1-1.2-1.3.5-1.3-.3-.7h-.2l.2.9-1.3.5-.7-.2.4-.1.1-1.1zm26.6 16.7-.4-.3.2-1 .3.2zm-40.3-.9-.3-.6 1.4-.6v.7zm18.7-.6h-.8l.2-.6.8.2zm-13.6-.2-.4-.5.8-1.5v1zm39.3-11-.2-.4.2-.6.4.5zm-7 6.8-.5-.3.4-1.3.4.2zm-14.5 1.9-.2-3.2-.5.3-.1-1.1.4-1.4.4.7.5-.8-.5 1.4zm-1.5 1.9-.3-1.4.3-1.2-.1 1.1zm-2.7-.7-.3-.2.2-2.6.4-.5.2.7zm-7 3.3-.4-1.7-.6-.7-.7.5-.3-1.4.7-2.7.6.7-.1 2.6.5.2.5-.4.1.3zm3-12.6.2-.1.2.5.1 2.5.5.2.5 1.2.5.2-.6 1.2.7 1v2.1l.7.6-.8 1.2 2 1.3h-1.7l-.2 1.1-.5-.2-.4.6-.2-.4v.6l-.6-.2v-1.4l1.1-6-.9-1.6h.4l-.2-1.2-.9-.2.3-1-.4-.6zm19.3 6.1-1.1-1 .4-1 1 .8zm-20.8 2-.7-1v-.4l.2.4.3-3.5.5-1.5h.2l.2 2 .6-.2v1l-.5.1zm1.7-10v-.4l-.7-.7 1 .4zm12.1 2-.3-.3v-.8l.6.3zm-7.3 5.8h-.5l.3-1.5-.1-3.5.6-.4.3 1.7zm-7.4-5.3-.6-1.3 1.1-.5v.6zm-2.3 17-.3-1.7.6-1.2.1 1zm9.5-1h-.2l.5-3.2.3 1zm-15.8-.6-.3-.6.3-1.3.3.3zm67.8 34.8h-.6v-.4l.6-.2zm-91-1.9-.5-1.4.4-1.8-.2 1.3zm98.2-1.3-.5-.5.2-.7.6.7zm-3.5 1.5v-.7l.5-.3v.9zm-40.3-.1-.7-.1.5-1.7.3.5zm33.4-.6v-.4l.7-.6-.3 1zm2.6-.7.3-1-.4-.4.4-.6.4 1.3zm-36.4 33.9v-.5l-.8.2-.3-.6.9-.7.3.4v-.4.7l.8-.1.3-.8-.5-.6v-.8h.7l.1-1 .8-.8-1 .1-.2-.5.3-1 .4.2h.7l-.3.3 1 .1-.3 2.2-1 .8-.5 2zm10.4-4.5.2-.7 1-.4-.4.8zm-2.6 10.3-1 .5-.3-.4v-1.1l1.2-1.3.8 1.8zm-9.6-2.3v-1.1l-.4-.2 2.4-.3 1-.6v.7l-1.4 1.2.1.6-1.1.1zm27-13.4-.3-.5.3-.8v1zm-1 1.6h-.4v-.5l1.1-1.2-.3 1.4zm-3.7-.3h-.8v-.8l-.7.7.2-1.5h1.8l.5 1zm-17.2.8-.1-1.1.3-.8-.3-.2-.4.8-.6-.6.8-1.4 1 1.3zm-14-1.8-.2-1.9.5-1.4-.4-1-.3.7-.7-.2 1.2-1 .4-1.5h.3v.2h.5l.2 3 .5.5-1 .2v1l.7.5h-.8v.3zm2.8-3.5-.3-.6.6-.7v1.3zm31.9 1.7h-.4l.6-1 .3.8zm-5.1 1.2.6-1.1v-.6l.5-.5v1.5zm2.3-1.4v-.6l.2-1 .1.8.3-.4zm3-1.5-.8-.1v-.4l1-.2zm1.8-2.4h-.8v-.3l1.2-.2zm-21-.6.2-.5-.5-.4.8-.4.6 1zm27.4-3.3h-.4v-.4l-.3.2-.4-.7.7.1.4-.3zm-25.7-1.4-.7-.4.1-.7.8.7zm.5 2-.1-.6.5-.7v.5zm12.5 1.8h-.5l1-1.6h.4v.8l-.6.2zm-13.4-.9-.3-.6h-.7l.2-.7.6-.4.2.4.2-.5.2.5-.5.6zm2 3.4.1-.5.8.2v.6l1.7.2.3-.7.4.4v.6l-2.7 2.7-.9 2-.4-1.1-.3.6 1.1-2.4.2-2.1-1 .1v-.6l-.8-.1.2-.8h.5v.8l.4-.6zm4.4-.2-.6-.1.6-.4v-.6l1.5-1v.6l-1 .6zm19.2-6.5-.8-.2-.1-.9-.6.2v-.2l.6-.5h.7v1.1l.8-.5zm-19.7-.6-.6-.5.3-1 .6.4zm-4-.8h1.2l.1-1 .4.2-.1 1.5-1.8-.1v-.6zm0-2.6 1-.2-1.2 2-.1-.7h-.8l-.1-.6.5-.5.2.4zm21.3 2.7-.3-.7-.7-.5.7-.9 1.2.9v.5zm-16.8-1.2-.7-.5-.2-.5h1l.2.8zm29.7-1.4v-.6l.6-.4v.5zm-40.6 2.6-.8.3-.3 1-.2-1-.4-.1-.7 1.1-.6-.1-.1.5-1.1-1-1.4 1.2-.1-3.6 1.4-2.5-.5-1 .9-.7v.6l1.1-.4 1-1.7h.6v-.6l.9 1.9v.9l.4.2.3.6.3 3.4-.7.5zm11.7-2.7-.5-.5 1.3-1-.5 1.4zm17.2.2.2-1 1.1-.6.2-.6 1.4-.4v1h-.8l-1.2 1.4zm9.2-1.4.3-1.4 1.3.2v.4zm-12.9.3-.2-.7.5-.3.2.6zm-15.5-.4-.3-.8.3-.4.2 1zm-2.5-1.4-.1.3.8-.1-.3.8.4.4-.6.6-.6-.9.1-1-.4-.2.3-.8zm19.7 1.3-.3-.4-.7.2.1-.8h.7l-.3-.6.4.2v-.6l1 .2.6-.3v.5l-1.2 1zm10 0-.3-1 .8-.5v-.6l.3.9.5-.8v.4l-.8.8v.7zm-7.5-.1-.6-1.1.4-.5.8 1.1zm-.4-1.9v-.6l.4-.4v.8zm4.2 1h-.5l.3-1.3-1.2.7-.4-1.2-.5.2.1-.4.8-.5.6.6.7-.3v1l.7.6zm-.2-2.2v-.7l.4-.3v.6zm-6.2-.1-.2-.7.8-.1-.4.7zm15.8-6.9v-.4l.8-.7v.6zm-41 2.4-.6-1.4.4-.8-.6-.9.6.3.6-2.1.4-.3.4 3.7zm-2.3-4.5-.2-1 .3-.3zm4.1-4.3v-1.8l.3.2zm-17.2 3.2-.4-.4 1-3.4-.3-2.2.7-1.8v1.6h.2l.5-1.8.1 2.4zm-39-3.2h-.8l.5-1.8.5.7zm41.9.4h-1v-1.4l1.1-.2v-.8l.7-.5.5.3-.4.2.4.4-.4.1-.4 1.7zm12.7-2.1-.4-.3.4-2 .3.5zm-10.8.3-.2-1.4h.3l.2.3zm8-1.2-.2-.4.3-1 .4.5zm-9.1-.1-.1-.9.3-.4.1.6zm1.5.1-.1-.4v-1l.4.2zm1.8-1.1v-1.5h.2v1zm-12-1.2-.2-.2.1-1 .3.8zm18.2-3.2v-.7h.3l.7-1.5v1.6zm-50.1 2.1-.3-1.8 1-.4v1.5zm45.7-.7-.5-.3.1-1 .8-.6zm-3.3-.8h-.6v-1.2l.5.3v-.7zm-2.3.7-.3-.3.3-1.3.1 1.6zm-5 5.1-.3-1 .3.2.2-.5.4-2.2-.6.1-1 1.9-.5-.8.5-2.7 1.1-.7v1h.6v.2l.9.3.4-.4-.3 1.5zm.9-5.5-.1-1.6h.6zm-35.9-1.5-.4-2.1.9-.3.1 1.7zm33.6 2.2-.3-1.7.9-2.1.5 2 .3.3v-.7l.4-.3v1l-1.3.5zm10.7-2.7-.1-1.3.4-.5v1zm-16.3 6-1-.7-1-1.9-.3-2.5.5-.7v-1.5l-.5-1 .5-1 .5.4-.4 1.7 1.5.5.3 1.5.6.1.3 1.1h.6l-1 1-.9 1.9zm14.8-8.4-.1-.6v-1l.4.9h.4zm47.8-.4-.7-.5 1.3-.5 1 .2-1.5.4zm-53.9.2-.4-.5v-.7h.5zm-9.9-4.3-.2-.9.2-.9v1.4h.2zm1.2-3.4-.4-.5 1.2-1 .5-2 .7.4-1.1 2-.9.3zm-6.6 1.1h-.2v-1.5l.3 1.5zm4.6.2-1-1.5v-2.3l.3-1 .7 1.7h.3zm21.6 5v-.7l-.6.4v-1h.8zm-18.5-1.8-.1-1.7.3-2.4h1.1l-.7 3.9zm23.9 3.8-.5-2 .5-.2.4-1zm-3.6-.5-1-.8.6-.2.2-1 .5.7zm-24-1v-1.3l2.1-.3-.6 1.3zm6.4-.3-.6-1.6.9-1.4v1.6zm9.7 1-.2-.9.4-.7v1.4zm9-.2-.8-1.8h-.3l.6-1.1-.3-2.1 1.3 1.6-.2 2.8zm-11.6-30.8h-.2zm55.4 87.6-.8 1.8-1.8 1-1 2.9-2.3 2.8-2.2 2.9-1 .9-.4-.3-1.1.7-1.3 1.6 1-.2-.4 1.5-.4.2-.1 1-.6.5-1.7 2.6-1.4 3.5-.4.3-.1-.6.4-1.6-2 3.2-2.6 1.8-.7 1.9.8-1.1 2.7-2h.3l.1 2.1 1.1-.5-.7-.7.1-1h.9l.3 1.4 1.2-1.8.4.6.4-.3.6-1.4-.5-.5 2.8-2.3.7-1.1.8.2.5-.6v.6l.4.1 2.4-1.9 3.3-4.8 1.2-2.3.5-2.2.6.2zm-7.7 19.2h-.3l.1-.4 1-1zm.2-4.6.6-1.5h1.4l-.2.5zm3.5-.5.3-1 .4-.3-.3.9zm0 0"/><path d="m237.2-211.3.2.1-.1.7.9 1.1 1 2.8 1.2.6v1.1l1.2.7h-.4l-.2.8.5 1.7 1.7 1 1.1-.2v-.4l1 .8.8-.5v-.5l-.6-1.5.9.7.2-.5 1.1-.2-1.1-1.8.3-.8-1.7-2.4.5.4 1.1.1 1.6 2-.3 1.2h-.6l.8 1.8 3.5 4 1.2 2.7.8.1v-.9l-.8-1.8.2-.6-1.2-1.9-.2-1.1.2-.1-.4-1.2 1.8 2.8.5 1.3-.3 1.5 1.2 1.4 1.8 5 .7.7 3 1.1 1.7 2.4.2 2.1-1-.2.4 1 .7.7 1.5-.8.8 1.6 1.2.9-2.8-5.7.8.7 1-.1.6.9 1.6 1.3h.8l1 .9.3-.1-.9-2 .9-.1.4.8v-.4l-.1-.5-1.4-.2-1-2.7.4-1.1 1.4 2.1.6.1v-.5h.4l-2.8-5.6.4-.4.2 1 .3-.3 1.4 1.7-1.7-4.2 2 2.4 1.1 2.2-.5-.1v1.7l1.4 2.6 1.7 1.4v1.5l.8-.5-.4-2.5.3-.5h.5v-.4l-.3-.6-.7.9-1.6-.7.1-.6.9.2.3-.5-1-2.5 1 .8.3-.6 1.3.3 1.6 2.5.6.1.4-.5.6.8 2 .4-.9-2.3.4-.4.7.6.4-.8-3.2-4.2-.5.3.8 1.9-2.4-1-1-1.7-1 .2-1-1.6-.6-1.9.8.5.8 1.1.5-.3 1 .2v-.6l.3.9 1.9 1.5-.2-.7-1.3-1-1.7-3.4-.2-.8.7.3v-.6l-.7-1 1 1.2-.2-.7.3.1-.2-.3v-.5h.1l.4.9.6.7.1-1.1 3.3 5.6-1-2.2h1.1l-.4-1.5h.9v-.8l1-.2 1.4.3v-.7l1 1.2-1-.2.8 1.7 2.5 2.2 1.2-.5 1 .8.7 1.6-.6-2.2-1.5-2.4.1-1.4h.3v.6l1 .2v.9l2.2 1.9 1.8 4.8 1.5-1-.7-2.4 1.1.6h1l-.4-1.3h.4l.7 1.3.8.5v-.4l1.1-.1.6.9 1.2.8v-.5l-1.6-1.5h-1.5l-.9-.7v-1.2l.3-.7.4.2-1.2-2v-.8l2.3 1 1.3 2.4h.7l.4-1 .4 1.4 1 .4.7-.5.7 1 2.1-.2-.2-.8.7.3v-3.2.7l-1.1.4-.4 1.8-.4-.6-.7.6h-.7l-1.1-1.2v-1.6l-.7-1.3-.5.4.5 1.3-1.1.7-3.9-2.5-.3 1 .9 2-1-.1-.2 1-.8.8h-.6l-1.3-1.9-1-3 1.8.7v-1.1l.3-1-.1-2.1.8-.6.4.6.8-.3.4.3.8-.8 1 2 .8.3-1-2.1.1-1-.3-.7.6-1.2-.6.2v-.6l-.9-1.4 1 1.3.4.2v-.7l1.5 1 1.9.9.3.8 1 .5 1-.2h-1.3l-1.6-2.1-.7.2.3-.7-1.7-.9v-.7l-1.3.3-.5-.4-.7-1.5v-.2h1.1l-.3-1.7 1.5.3.9 1.2h.9l1.4 1.6h1l-.4.2.5.4h1.6l2.5 1.6-.6.2-.1.4 2.2 2.6.6 1.4v1.8h-.7l-.1.7.8.2v.4l.7-.1v-.3l1 .5 1 2 1.5 1.8h.6l-2.5-4.2h.3l.1-.6-.6-1.8-.9-.7.5-1.6 1.4.6.4-.1.3-.9-.6.1v-.5h-2.1l-1.9-2.9-1.5-.7-1.8-2.6-1.8.9-.2.5h-1l-1.9-2.5-.1 1.2-1.2-.9-1.5-.3v-1l-.7-.6.3-.4-.6-.9-1-.4.1-.4-.9-1 .6-.5-.5-.5-.4.4-.4-1.4.7.2-.2-.3.5-.2-.4-.5.1-1 .5-.4.7 1.3-.3-1.8.4.3v-.4l1 .1v-1.2h.2l-.4-1.2h-.9l.3 1.2-.9-.4-2.7-3.9h-.6v.6l1 .4v1l-1-.5-.3-1.1-.9-.2.2-.6.2.3-.1-.8.3.2-.1-.8h-1.6l-.7-.8v-.8l-2.2-3 .6-1-1-.7.4-.9-1-.6-2.2-2.8-.6.2v-.5h.4l-.4-.7.3-1.7.3 1h.4l.9 1.1h.8l.6-1 .6-.2-2.5-5 3.2 3.2.4.1-.3-.6h.7l-.3-.7.3-1 1.6 1 1.2 2.1.4-.7 1 .6.4-.5-.3-.4-.5.1.2-.4-1.1-1.2v-.8l-.5-.5v-1l1 .2.2-.4-1-3.3 1.2-.5.9.5.4.9-.5.7h-.7v.5l1.5 1 1.5.2v.5h-.3l.2 1.6h.7l.6.8-.4 1.7 1.5 1.5.8 1.8.4.1-1.2-2.4h.6l.8.8.1-.4h.6l-2.2-4.9 1.3.1.5.9.4-.5 1.3.3-.7-1 .6-.5-.7-1.8-1.5-.9-.6-1 3.1 1.9.8-.3.4.3 1.1 3.1 1 .1.8 3.1.6.8.4-.3-1.3-2v-.7l-1-2.8 1.2.8.6-.3.1 1 .8.9v1.5l.3 1.7 1.4.8.7 2h.3l-.6-1.3h.3v-.9l-.9-1.4.5.2v-.4l.3.6 1.3.7.8-2-.4-1 1.2.6h-.6l-.1.3 1.6.4.1.3v-.3h.6l-1.5-2.7 1.7.2 1 .8.9 2-1.6-1.1-.2.9.4-.3.2.8h-.5l-.1.2 1.8 1.4.7 1 .4-.1.3-1.2 2 2 1.8 2.4 1 2.5.7.4 1 2.2v.9l-1.1.5-1.4-.3 1.9 3.1v.6l-1.2.4-.7-1.7-1.3-.4v.6l.9.6v.6l1 1.5-.1 1.5h-.6v.5l.5.5.3-.8.2.9-.7 2 .6.9 3.5 2.1-.5 2.9h.5l.8 1.2 1.3.1v-.2l-.4-1-1-.5v-1.3l1.2-.3-1.5-.7v-1.6l1.1 1.5.4.2.2.6-.2.2 1 .6.5 1.6.6.7 1 .2v-.6l2 2.3.7-.1v-.6l.3.2 1.5 1.6.6-.3-.2-.7-1.8-2.3-.6-.8.6.3.6.2 1-.2.8.6-.5-1h-.9l-1-.9.3-1 .8.7 1.5-.4-.7-.8h-.8v.5l-1-.8v-1l.9.8.2-.2-1.2-1.5-.4-.6v-1.1l-.6-1.3-.4.6.6.5-.8 1.1-1.4-1 1 1.8.8.4.2 2-2.6-2.4-.5-2-1-.9-.4.3 1.1 1.6.7 2.4-1.1-1.4-1.7-.2-.3.4-1-.2-1.8-2.5-.3-1.3.5-.4-.4-.3-.2.3-.4-1.2.4-.3 1 .5 1.1-.1-1.5-1.4-.6-1.7-1.3-1.5 1.4.1.5 1.2 1.9 1.9-.3 1.2.7-.1-.3-1.4-.3-.4v-.6h.6v-.5l-3.1-4.9 2.8 2.4.5-.5-.9-3-1-.4-.6-1.4.3-.3.7 1.3.7.4.8 2.4.1-.5.9.3v-1.3l1.5.3.2-.6-1.6-3.7 2 1.4.6 1v-.7l-1.3-2 3.5 2.1-2.5-3.5 1.5 1.2 2 .4h.4l1.2 1.1 1.4.4-1.3-1.8-.1-.6h.2l1.6 1.3 1 1.4-.3.4 1.2.1v-.4l1.6 1 .1-.2-2.6-3.4 1.1.8 1.6 2.3.8.2.7-.7-1-1.3 1.3.2 1.7 1.6h.6l-1.3-1.4v-.7l1.9 1.2.2-.7.4.8.3-.5.5.4-.1 1 .5-.4 1.1.6 1.4-.5.5.4-.3.5h.4v-.7h.3l.7.9h.9l-.6-1.7.9.5 1.4 1.3 1.5 2.5-1.3-.6-1.9-2-.1 1.4.4.1 1.1 2.3 5.3 5.2.8.4h1.4l1.3 1.1.3 1-1.2.4v.5l-1.7-.8.4.7-.4-.2.2 1.5 1 .9.6-.7 1.2.3.8 2.3 1 1.2.6 1 .4.4.2 1.4-.3 1.8.7.6.5-.5 1.2 1.2-.5-1.8 1 .1.8.7 1 2.9 2.8 4-1.7-1.6-.9.4-2.6-3h-.4v1l-.6.3.2.5 2 1 .7 1.2 3.1 2.1 1.2 1.8.4 1.2-2-2.1-.2.9 3.3 3.5.7.2-1.2-2.6h.7l.2-1.2v-.8l-.8-.3-.1-.6.4-.2-.4-1-2.4-1.8-2-3.7 1.9 1h.5l.2-.5 1.1 1.3v1.1l2.1 2.3-.2 1 1.3 1 .8 2.5h-.4l-.2.7-1-.7 1 2-.3 1 2.3 2.9.6 1.4.7 1h.4l-.8-2.3 1.8 1.7 1.2-.3-.3-3.3 2 1.7.7 1.8-1.6.2-.1.4 1.2 2.6v.5h-.7l1 2.3.2 1.9-.5.7.5.2 1.2 1.6v.5l-.8-1 1.6 3.6-.6.2 2.6 2.8.4 1 .7-.6 2.1 4.2-.2 1.8-1.1-1.1-.5-2.6-.8-1.5-.4.4-.5-.2-1.6-3-1.9-1.3-1.4-2.7-.8.5-.8-1-1-.5-1.4-1.9h-1.8l-1.3 2.6 1-.5 1 1.8 1.1.3-.6.2 1.2 1 .7.2.5-.4.6.7v-.6l.6.1.8.7.7 1.7.4-.9.5 1 .6-.1 1.3 1.4v-.4l.6 1.1 2 1.5.5 1-.2 1.2-.6.2-1-.5-1.1-1.2h-.4v.8l-1-2.1-1.1-.4.4-.8.5.4-.9-1.5-.4.6h-.6l.4.3h-.3l.3.9-1-1.1h-.4l.9 2-.1 1.4.5 1.2.5.2-.3-2.1h.7l.7 1.1 1.9 2 1.6.6 1.2 1.5v.8l1.3.3v-.7l1.1-.2.1-.8 1 .9-1.1-2.5.3-.2 2.2 1.9h1.3l-.5.5.9-.2 1 .7.7 1.6 1-.4v-.9h-1.4l-.8-1.8-1 .2-.6-.6-1.4-2.5-.5-2.3 1.9 2.7 1.3 1.3.7.4.5-.5.2.3 2.4.5.6-1.9 1.4-.2.5-.6.7.4.8-.4 1.2.3v-1.7l-1.5-1.4v1.8l-1.9-3.5 1.1.6.3-1.1 1 .9 1.2 1.7h.4l.4 1.4h.4v-.8 1l1.6 1.8.1-1.4.6.1-.7-1.7h-1.5l-.7-.2v-.2l1.5-.4.2-.6.3.7 1 .4.2.8h.7l-.7-1.3-.9-.5v-1l.6.3 1.3 1.4.8-.5v.7l1-1.2h1.5v-.6l-.3-.7.9-1.4 1.4 2.3-.3 2.1-.5.5.5 1.4.5.4-.6.6.1.4h1l.3-.6.9 1.8 1.3 1.3h.5l1.2-1.2 1.4 1 .4-.3-.3 1.3-.7-.8-1-.1-1.4 2.6-2.7.2.2-.5-.3-.8-.9-.1-.4 1.8h-.9l-.2 1.6.6.3-.4.4 1 1v1l1.6.7.3 1.8.9-.2-.1-.6.3.6h.4l.1-.6-.6-2h-.5l-.2-2.3-1.1-1.1.2-1 .8.6.5 1.8 1.4 1 .4 2.7v1.3l.7 2.1-.7.9h-.5l-.5-.6.2.9.6.1.8 1.5.4.1.2-.4-.8-1.5 1-.1v-1.4h.6l1.6.9v.9l-.6.4-1-.1v.8l.8 1.5-.1.7-1.3-.3 1.4 1.6v1.2l.5.8.7-.4v-1.7l.6-.7.1-1.9-.7-1.5.4-.8h-.5l-1.5-2.6-1.2-.4-.4-1.8.2-.6-1.3-1.7-.1-1.7 1.5-1.8 2.2-.4 2.7-2.8.6.3.4-.5v-1.5l.4-.2 1.1-.7-.3-2.1.6-.9 4.6-3 2-1.6 3.6-4.7 1.6-.9 1.7-1.8 1.2-.2-3.2 5.2-4.3 4.7.7 2-.4.7.4 1.2h.3v.5h.7l.3.7h-1.5v1.8l-1.3 2.3.6.7 1-.2.3.7-.4 1h-.5l.2 1-.4.1.3.6-.3-.2-.3.5-.7.3-.4 1.3-.8 1 .4.3-.7 2.1.5.3-1 2 1 .5v.4l-.8.3-.1 1-.6-.2-.3 1.6-.7.5.1.6-.6.2.1.8.3-.1-.4.4h-.5l-.5.7.3.8-.4.1-.4 2.4-.5.2-1.6-.5h-1.2l-2.4.9-.5 1-.3-.5-.2 1.7-.4-.2-.2.4.5 1.8-.3.8.4.4-.6.4.3.8-.7.4.2.4-.7.4-1 1.9.7.6h.5l.8-1.3 1-.3.7.7-.4 1.1-1 .9.2.4h-1.4v.3l-.5.8h-.9l-.4.7-.8.2.1 1.9-.7 1-.7-.3-.1-1-1.6-1.7-.7.4-.7 1.3.3 3 2 1 .2 1.3-.8 1.3-.7.5-2.2-2.4-.8-.3-.4 1-1 .6h-1.4l-.6-.4-1 .3-1.3 1.7-.6.1-.1-2.2.6-1 1 .3-.5-1.8-1.6-.2.3-.4-.8-.2-.5.4.8.6.7 2-.5 1.8-1.3-.4-1.3-1.8-1.6-.3-.6-1-1-.1-1.3-2.7h-.4l-.2-1-1.3-1.5.3 1 .8.2v1.1l.7.5.7 2 2.2 2.2 1.4.8.4 1 1 .8.7 2.2.8.6.9-.4.8.4-.2 2-1.8 2.4.2 5.3 1.5 1 1.3 2.7 1.4 1.8.7.2 1.4-2h1.4l.8 5.1-.7 2.4.8-1.5v-3l1.6-1.3.8-3.7h.4v-.7l1-.2.1-1.1 1.5-.2 1.1-2.4h1l1.1-.8-.6-.5-2 .1-1.8 1.5-.2-.6.8-3.1 1-.3.8 1 .4-.4 1 .1.1 1 1.6-1-.2-1.5-1.5-1.4.2-1 1.4 1.8 1.6-.6 1-2.4 1.1.2v.4l.7 2h-.6l-.4.3v1.8l.5.5.9.1v2.5l-.2.6h.8l-.2.9.5.4.7-.6v1.2h1.7l.8-1.2-.1-1h.5l.2-3 .4-.3 1 .4.4-.5v1l1.6.6.3-.6 1.2.3.5 1.4v1l-.9.7 1.1-.8-.2-2 .8-.2v.6l.5-1.2-1.3.7-.2-.8-1.7-1-.2-1.7-1.3.5-.1-.3.2-1 .5.3.5-1.7-1.2-1.6h-.4l.6-.8-.4-.7.2-.8 1.7-2.9-.3-1.5h-3.2l-.6 1 .1 1.1-1.7.9-.1 2-2.9 1.2-.6-.1-.1-.5h.1l1.1-.9 1.2-1.4.6-1.6 1-.5.1-.9-.6-.4v-.6l.8-1.7 6-8.7 1.2-3 6.5-4.1 1.4-1.6.6-1.8h2l.4-1.9h.9l.6-1.6.2.6 1.8-.1.6-2-.4-1.9.8-.7.4.4-.5 1.1.4.9-.2.8 1.7.3 1.5-1 2.2-.8-.2-.2 2.6-.5 1.9-1.3.4-2.5.5-.4.4.4.7.2 8.3-3.4 6.9-3.5 2.6-2.2 3.4-2 .7-.6.6-2-.1-.9-1-.3.6-2.2 1.9-2 2.6-1.1.5 2.3-1 3.4-.9 1.4-3.1 2.4-1.3 2-.4 3.5-1.6 5.7-1.1 2-1.2.8-.4 1.4-2 1.5-3.1 4.5v3.8l-1.9 2.2.4 1.7-.4 1.6 1 1.6-.4.3.4.6.7.4.3-.5.1.3 1-.3.3-1.5.6-.6-.5 1.3.4.5.5-.6-.4 1v1.3l-.6 1.4h.9l-.4.8h1v-.7l.1.6.7.2-.1.9-.6.3h.4v.5l-1.4 1.2h.8l-.1.9.5-.6.5.5-1 2 .2 1.6-.3 2.9-1.2 1.7-.6 2.3-1.5 2-.3 4-1.4 2v1.9l-.6 1.9-.8.2.4-3h-.5l-.8.5-.3-.2-.3.9-.7.5.2-.1.3 1.3.5-.9.4 1.7.4-.8.5.4.2 1.1.4-1.3.3.4.4-.6.2-1.6.6.7.4-.9.5.9.1 2-.4.7-1 2.5-1.8 1.3-1 2.3-.9.5-.6 1.1.5.7h-.6l-.1.4.3 1.2.4-.3v.5l-.4.3.1.3-.5-.3-.3.5v1.3l.3-.4.2 1.6-1.2.6-1.1 2-.5 2.2-.6.2-.2.7 1 .8-.8 1.9.5.7h-.3l-.7 2.6-.5 8.3-.3.6v.8l.8 1h-.3l-.4 1.6h-.4v2.7l-2 1.4-.4 1.3-.7.8 1.3 1.2v2.2l-1.5-.3-.9.6-1 1.9 1.6.5.4 1.5-1 4.9-1.1.1 1.2.3-.1 4.4 1.3 5.8-.4 1.2.3 1.2 2 3.5h.7l.7-1.6 1.5-1.4 1.6.1-.1 1.2h-2.3l-.9 1.3-.6 2.2 1.2 1.3-.7 1.2.1 2.1-.5 1.7-1.3.7-2 2.5v2l-.3.8.2 2 .8.5-1 .4-.4 1.3.5 3.3-.5 1.4.7.9v-2.9h.6l.4-1-.1-2.9.3-.6-.9-1.7.4-1.7h.4l.5-1.8.5 1 .6.5.7-2.1.5 2.8-1 .3v2l.9-1.5.6-2.7h.3l.3-.8.4.4.4 1.6-.6 2-.8.3.3 2.3-1.1 7.2 1.7.2.3 2-.7 3-.6.2-.6 3.5-1-1.3-2.6-.6-2.7-1.7-2-.3-.7-.8-1.9-6 .2-2-.6-1h-.7l.2-.7.5.3.3-.5.7-2.3h-.8l-.8-.9v3.1h-.8l.2.5.3-.2v1.1h-.5l-1.4-1.8.2-1.8 1.2 1.2.5-.8-.4-.5-.1.6-.4-1.7-.8-.8.2-4.5-.3-.5h-.7l-2 .6-.7 7.8.7 1.3.6 3.7 1.2 2.3.3 2.5.9.8v-.9l.7-.4-1 2.5.3 3.2-1 2.7h1.2v-.2h1.3v.1h.5l-.4-.6 1-4.3.6-1h.5l.6-.5 3.3 1.4 2.4 2 2.4.3.8 1.8 1.8 1h50.3v-22.7l-2-.4v-.4l-1.1-.4-1.3.3.3-.5-.5-.3.3-.5-1-.5.7-1.3-1.1-.7v-.6l.7-.7-.4-.2v-.5l.7-.8v-.9l-.9-1.4-1.4-.2.4-1.7.5-.4-.2-1.3.4-.8.6-.2-.3-.5h.6l.9-.5.4-1.5.4.1 1.3-2.1h.4l.5-1.7.7-.5.3.4-.2-.4.3-.1v-190.2l-1.2 3.5h-.7l-.2 1.5-.6.7-.3-.9-1.3.7v.3l-.7-.3-.6.5.3-1-.4-.4-1 .9-1.1-.2.5-.6-1.5.8.2-1 1.3-1.4.3.7-.4.5.5.4.6-.9.3.2 1.8-1.7.8-1.7 2.4-1.6.4-1.2-.3-1 .9-.3v-41.5h-19.6l.8 1.4-.1 4.4.6.7-.6 1.7.1 1.6-1 1.7v1l-.8 1.2-.9-1.6-2.3-.7-1.5-1.4h.5l-.8-1.5.6-.5-.1-.7-1 .1v2l-.7.6-.5-.4-.3-1.1-1.1-.8-.5.1-.5-1-.9-.1-.2-.5-.7.1.3-1.2-1.3-.4-.8 1.5.1.5-.9.3-.1 1-.8.2.5.6h-.4l-.5 1.5-.6.3-.5 3-.4-.2-.7 1.2.1 1.7-.8 1-1.3.7v.5l-.4-.2-.3.3-.7 3-1.5 1.7-1.9 1.2-1.6 2h-1l-1-.8-1.7 1.3-1 .7-.3 1.4.2.4-.5.5-.6 2.4-4.9 3.3-1 2-1 5.3-2.5 3-1.7 2.7.7.3 1-.5h.3l-2.2 2.7-.3-.2.5-1.3-.2-1.1-1-.2-.4.4v-.4l-1.7-.6-.5 1.4-.6.1-.5 1.5v-3.5l-1.1-.3-2.1 2.6-1.8.8-.2 1-2.2 1.6-3.2.9-4.5-.2v.5l-.8-.5-.3.3-1.2-.3-.9.2-.1-.5-1.2 1h-1.5l-.7.8-2.3-.5-2.6-1.4-.7-.8.2-.2-.9-1-.6-1.9.4-.7-.6.3-.7-.8-2 .5-1 1-.6-.4-.9-.9-2-.8-.3-1.1-2.9-.9v-.6l-.8-.3-1.2-1.7-2.8-.5-.3-.5.5-.2-.6-.2-.3-.8-2-.3.5-.4-.5-.3v-.5l-2.4-.6-.3.6h-1.7l-.5.6.3-1-.8-.6-.5-1.3h-.4l-1-2-1.9-.2-.2-.6-2-.2-.1-.8-.3.4-.3-.4-2.7.3-3.2-1.6v-.7h-.7l-.7-1.8-1-.6.1-.5-.4-.7-.9-.6v-.8l-.7-.6-.8-2h-.5l.2-.8-1-.3-.2-1.2 1-.3h-.8v-.7l-1 .1v-.4h.9l-.6-.8v-.8l-1.5-.7-.8-1.8-.4.9.8.7-.3.5-1-1.4-.5.4-.3-.3-.4.6.1-1.3.5-.2-.5-1.1-.5-.3.5 1.5-.4.3v-1l-.8.3.4 2.1-.6 1.3 1 .1.2.4-1.5.4.3 1.1h.2l.3 2.6.7.2-.5 3 2 1.1-.5 1.1.8.4.4 1 .5.1-.2.8 1 .3-.7.1-.8 1.4-1 .3-.4 1.1h-.6l-.6 1.2-2.8.7-.7 1.2.5 1-6.4-1.6h.8v-.6l-.8-.6h-.9l.2-.2h-.3v.5l-1.8-2.3-2-.4v-.6l-1.8-.6h-.3l-.1.7-1.3-.8.1 2-.2-.2-2-2.4-.4 1-1.7-1.6-2.3-.9-2.5-2.6-1.1-.3-1 1.1-.1.8-1.8-.2-.4.3-.7-.4-.9.3-1.1-1-.2.5h-.6v-.4l-.6-.2.7 1.2h-.5l-.4.2-2.2-2-1.2-.2v.6l-4.6-4.1-1 .4.2-.9-.9-.7-.7.7h.4l-.1.6.3-.7h.4l-.6.7.2.6-1.5-1-1-1.5.9.7 1.3.2.3-.9-1.2-1-.8 1-.7-1.7-1 .2.1-.4-.5-.1-.3-1-1.4-1-2.2-3.3-2.2-2-.3-.6.3-.4-1.5-1.7-.2-1.3-.6-.6-.7-2-2.6-3 .3-.2-.5-.2.2-.2-.8-1.2.7.2-.5-1 .8.1-.2-.3h-6.9l1.1.9.4.9 1 .3.7.9v.4l-.4-.4-.5.4-.5-.8-3.4-2.6h-.8l.2.5-1.7-.5h-62.4zm267.6 179.3-1-.5.1-.8h-.7l-.9-.3v-.6l.9-1.5v-1.1l3.1-3.3v1.2l.9-.5-.2.4v1.5l-.7 2 .3.5-.3 1.3-1.5 1zm-25-104.5.2-1 1-.7-.5.8-.4-.1zm-11.7 50.2-.5-.2-.1-.7.2.2.8-1v1.3zm-54.3-22.5h-.5v-1.2l-.4-.5.4-1.5.6.6-.5.8zm-1.4-2.9-1.4-1.1h-.7l-1.3.8-3.3-.6-.1-4 2.4 1.3 1.1-1.1 1.2-.2 1.2 1.2.1 1 .4-.3.3.5.3 1.8zm.4-4.3-.7-.3.2-1.2-2-.2-.7-2.3.3-.5.5-.2 1.7 1.2h.4l.2 1.5 1.3-1.4v2l-.4 1zm21-5-.2-1 .3-.2.8.8zm-26.5-2.9h-.2v-.9l.7.3zm25.4 4.2v-.8l-.3-.1.2-.5.4.6zm-16.6.5-1.7-.8-.1-.6h-1.9l-.4-.7.4-1.6 1.2-.4 2.6 1 .2 2.7zm6.4-3.4h-.5l.2-.8.6.4zm53.4-21.2-.6-.4v-.4l.6.1zm-55.6 19 .1-.4h.6v.3zm56.9-22.5-.5-.4 1.4-1.6-.1.8zm-21.8-10.2 1.8-2.9 1-.3-1 2-1 .4-.5.9zm-56.3-16.6v-.8l.6 1.5h-.2zm-7.4-.4-1-1-.6-1.5.9-1 1.3 1.8.1 2.3zm4.5-1.7.1-.3 1.4.9.4 1.6zm-2.5-.1-.6-1.4-.2-1.3 1.9 2.8.6 2zm47 26.2.7-.9h.8v.4h-.8l-.8.8zm1.7-3.5h-.3l.5-.8.2.6zm-5.1-2.3v.7l-.3.8.3.6h-.3l-.4-.9zm7.2-.2.4-.1-.1.7-1 .8.2-1zm-4-.8-1.1-.2.7-.7zm2.3 5.6-.2.3.7-2h1zm-3.7-.7h-.1v-.9l.8-.3zm6.2-3.2.4.3 1.1-.6.6-2.1.4.6.7-.8h.4l-.7 1.3-2 2.5-.2 1.6-.3-.9-1.3.2zm2.2-9.6-1.1 1.9-.4 1.2 1.4-.9.8-.2v.4h.5l.4-1-.7.2-.4-.6 3-4.6.8-.3v1.2l-1.3 2.6v.8l-.5 1-1 .6-.7 1.5.6-.6.2.2-1.4 2.2-1.6.5-1-1.3-.9.9h-1.1l-.8.9-.3-.3-1.4.5-1.2-1-.6 1 .2-1h.6l-.3-1.8-.7-.2-1 1.4-.8-.6v-1.1l2.4-2.2.3-1.1 5.2-4.4 2.3-2.5-.2-.6-.5.1-.1-.3.4-1.3 2.7-1.2.8.6-1.2 2.8.1.7h.7v.7l-.5 1v1.1l-1.2 1.4-.7 1.7zm-12.3 5.1-.6.4.4-.8.8-.1zm.2-1 .3-.3h.3v.6zm-16 .3-.2-.3.2-1 .4.9zm42.3 110.9h-.3l-.2-2.1.4-1.8.6.8zm18 49.4.3-2.1.6-.8-.6 1.6.3.6zm-3.1-.6.1-1.4.9-.6v.4l-.3.4.1.4-.3.1.2.5zm-1.6-7.3-.6-.3v-1l1 1.3zm-23-2.4-.3-.9.5-.2v1zm0-1.6-1-2 1.3.8.1-1h.6l-.7 1.3h.4zm18.7-2.1.7.5.2-1.7.4-.2v.7l.3.7-.5.4v1.2l-.8-.1v.3l-.7 4.6h-.3l-.6-.9-1 .1-.7 3-.3-.2-.8-1.4 1.1-4.2-.2-3.2 1-2.3-.5-2h.6v-1.4l.7.4.7-.2.6-2.3v2.4l-.7 1.5v3.7l.1-1.5h.5zm3.4-10.5-.6-.4.4-.8-.3-1 .7.3zm-6.5-4.5-.3-.6.4-.5.1.7zm.2-2.4-.8-.7 1.6-1.8v.5l.4.2-.6 1.6zm-5.4-19.5.1-2 .6-.6.2 1.5zm22.3-15.9.1-.6 1.6-.6-.1.6.4.1zm.5-2.6v-.5l.7-.4-.2.6zm-14.2-7.5-.3-1 .5-.6v.6l-.2-.2zm15 19.5v-.7l.5-.2v.5zm-3.5-3.5-.5-.3.8-.7h.7zm-.8 1.6v-.6l1.3-.5-.2.5zm-2.6-.7-.8-.3v1l-.9 1.4-.2 1 .6.4 1-.4 2-1.7-.5.8 1.1.6-.1 1.7.3.6-2.4 1v.8l-1.7 1-.1.3.8.7-.2.6h-.6v-1.2l-1.1.3-1.3.7-1.6 1.9-.4-1.2h-1.5l-.5.8h-.8l-.2 1.3.9 1h-.6l-1.3 1.4-.2-.4h.5l.1-1-1-2.5-.5-.2-1.7.7h-1.2l-.7 1 .5 1.3v3.2l-1.6-1.5-.8-4.6 1.5-2.5 2.1-1.4 1.2-2.5 1.8-.4-.3-.6v-.4h.4v-.8l.4.3-.2 1.9h1.4l.8-1.8 2-1.1-1-.9.5-1.2.4-.3v1.8l.8-.9.1 1.1 1.7-1.2v-1.5l1.5-.2.3-.4 1.2.3.4.6 1 .1zm.7-1.8-.4-.3.6-.3v.4zm-9.3 4-.1-1.1.8-2 .3.9zm10.4-1.4h-.3l.8-1.2.6.2zm-8.9-3.7-.5-.4.5-.6-.2.5h.6zm6-2.7v-.6l1-.3-.1.9.8-.3-1.4 1.6zm-.2 2.3h-.6l-.1-.4h.6zm-2.1.4.3-2.1 1-1.1-1 3zm-205.6-193.4-1.5-1.2-.6-1.4 1 .4zm7.5 2.7-2.7-1.6-.3-1 .9-.2.5.3zm218.7-7.9-.6-.6.3-1.4.1 1.6zm-178.3-1.8-.6-.1-.2-.7.4.2zm57.4 4.7-.7-.3v-.4h.5zm-1.6-2-1-.1-.2-.4 1.2.2zm-53.8.5 1 .5v.7l-.4-.2zm-37-2.2-.7-.2-.7-1.2h.1zm13 1-1.7-1.3-.6-1 .7.2 1 .9.7.9zm3.6-.5-1.8-1v-.6h1.5l.7.6zm5.1.4-1.7-2.6 1 .1.6-.8 1.7.9.9 1.9h-1.6zm1.9 6-1.6-1.6v-.2l1.3.3.6 1.1zm-6.2-.3-1.4-.9-.8-1.2 1.7 1zm-12.5 1.2-1.3-1-.6-.9 1.3.5zm9.9.6-1.1-.6-.1.4-1.6-2.2v-.8l2.4 1.8.6.9zm-3.6-.2-2.8-1.8-2.8-4.4 2.3 1 1.5 1.5zm-12.8-4.9-.6-.3-.2-1 1.1.9.2.4zm7.4.4-1-1v-.7l1 1zm26.6-.1-.7-.6-.1.4h-.2l-.4-.6h.9zm-7.1-.5-1-.5v-.4l1 .4zm-3.6.2-1.7-1.2-1.3-2.5h.6l1.8 2.1h.9zm-12.6-4.6-1.4-1.3-.5-.8 1.3 1zm1.2-1.3-1.1-.9-.3-.5 1 1zm5.2-1.7-1.1-1.5v-.1l1.1 1zm-18-3.3-.7-.6-.4-.6.4.1zm15.8 4.5-.8-.5-.5-1.1 1.3 1.1zm12.2-9-.3-.9h1.2l-.2.7zm105.8 93.6-.1-.2.6-.4-.4.8zm-18.1 1.6-.4-1 .4.5.7 1.8zm-1.4-.4-.6-.7-.4-.8.8.4zm-5.2-2.1 1.4 1 .6 1.7-1.4-1.2zm7.9-.2 1.1 1.2 1-.2.9 2-1.9-.6-1.2-1.8zm-10.3-.3 1.1 2.3v.8l-1.8-2.7-.2-1.3zm2.3-.9-.3.5-.8-1.3-.6-.1.5 2h-.3l-1.6-2.4v-1.5l1.9.3zm110.5-6.6.6-.6 1.1-.2-.1.3zm-106 4.5-.6-.7.4-.7 1.2 1.5.6 1.6zm16-1.6-.2.4v.3l-.2-.4.6-.6zm-22.5-1.1-.5-.9.4.3.4-.7h.5l1.6 3.4-1.3-1.5-.6.2v.4zm1.3-.9v-.1l.4.2.8 1.6zm-2.2-11 1 .6.8 1.9-2.9-3.2zm-111.2 7.2-.8-.7-.2-.8.4.2zm-17 .1h-.4l-1.4-3.7.9.2 1.2 1.8.3 1.5zm2 2.6h-.4l-.5-1v-1.2l1 1 .4.8zm16.2-1.4-.4-.2-.3-1 .6.2zm111.8-2 .6.7.4 1.5-.6-.3-1.4-2zm-4.4-3.2-.3-.9v-.2l1.3 1.7zm-.2-10.6h-.8v-1.1l.7.5zm-134 3.8-.1-.4-.4-.8.3.2zm5.7-2.8-.5-.1-.3-.9h.3zm-5.1-.2-1.7-.8-1.8-2.8v-1l1.3 2.2 1.3.2zm39.1.3-1.1-.6-.2-2-.6-1.1h.7l.7 1.3 1.3.7.4 1.3-1.2-1zm4.9-1.9-.4-.5.2-.2.4.2zm-27.9 1.2-1-1.6.2-.6.4.2-.9-1.5 1.2 1.5-.4.6zm115-1.4.2.5-1.3-.7-1.5.2-2.4-3.5 1.3.7 1.9 2 .3-1zm-134.3-2.8-.4-.6-.2-1 .7.8zm3.3.4-.6-.6-.4-1 1 1zm125-.6v-.3l.5-.5v1l-.5.2zm-123.9-.2-1.4-2 .5-.6.9 1.6v.8zm7.7 3.2-.2-.2-.3-1 .5.6zm-2.8 1-1.5-3.1.3-1.5-.7-1 .4.5h1v.5h1.2l-.2 1 .4 2.3zm115.9-5.2 1 .6-.1.4h-.3zm-119.4 0-.6-.9v-.3l.6.7zm7-.1-1.6-2 .2-.5.5.5zm7-.1-1.4-1.2-.3-1.2.5.2zm-5.9 15.6-.7-.2-.4-.8-.2.8-.4-.4-.4.1-1-1.9 1 1.4h.8l.1-.5.5.6-.2-.8.5-.2 1 1.7zm1-2.8h-.2l-.9-1.4 1 .9zm-7.6-1.5-.7-.5-1-2.5.8.4.8 1.2zm17.9 0-.9-.7-.6-1.5h.5l.2.8 1 1zm-6.8 1.5-.7-1-.2-.9 1.3 1.7zm11.4-3-.4-.4-.2-.7.6.1zm-7 1h-.6l-1.4-2.7h.4zm-8.3-.4-.6-.1-.9-1-.2-1.4.5.2zm6 0-1.9-2.3-.3-1.1.5.6.4-.5.3.2 1.5 2.6zm-5.2-1-.8-.1-.3-1.5 1 .9.1.8zm3.5 12.6-2-.5-2.5-4 .1-.6 1.8 1.3-1.9-5.4.8.5.1 1 .3-.4.7 1.7 1.4.2.4.5v.5l-.4.1.4 2-1 .2zm3.8-5-2-2.9-.2-.7.6-.6-.7-2-.9-.6 1 .4.7 1.6.2-.7h.7l2 2.8-.5 1.1.2.8zm21.2-6.6-1.4-1.8-.6-1.8.7.3 1.5 2 .2 1.1zm-34.7-2-.3-.3-.5-1 .7.8zm9.1.5-1-1-.8-2h.3zm-6.6-1.5-.8-.4-.5-1.2h.7zm118.2-1.8 1.6 1.8 3.4.4 1 1.8v1l-1.2-.5-.6.5-.9-.6h-.8l-1.7-2-1.7-.4-1.7-3 1.3.9zm-96.1 2.6.7 1-.8.8-2-1.2-1.3-.1-.7-1.3-1.2.2-.8.7-.8-1.7.6.1.3.6.4-.5-1.7-3.2.7.4.3-.8.6.1.7.5 1.1 2.2.7.2.1-1 .5.1zm-25.8-1-.8-.6-.4-1.3.4.3zm33.2 2.2-1.3-.5-.5-1.5.2-.8-3-4.4.1-.7 3.7 3.7 1 1.4zm-42-13.3-1.4-1-.2-1.1h.9zm264.7-9.1-1 .5-1.3 2.4-2 .4-.2-.7-.7.5-1.2-.6 1.6-1.2.8-.2-.4.8.7-.1-.2-.3.5-.4.2.5h-.3l.7.1.8-1.9.6.3v-.5l1.4-.6.2-1.4.8.3-.5.2-.5 1 1.5-.4.5-.7-.1.9-1.3 1.2zm-265.5-7-.3-.6-.5-.4.3-.2zm5.8 2.9-.9-.5-.4-.8.6-.2zm3.3-2.1-1.1-.6v-.7l1.3.7 1.2 1.8zm194.3 10.2v-1h.3l.3.8zm-80.1-1.1-.8-1 1.3 1.5zm-106.8.3-.9-.1-.6-1 1-.3zm61 .8-.6-.4-.4-.7.6.2zm41.8-1-.5.2-.3-.7 1.2-.7.7 1.2zm-107.8-1.2-1.3-1-.5-.9v-.7l2.6.1.2 1.3zm11.8-22.8-.9-.5-.3.4-.3-.9.7-.1zm198-.5-.2-.6.4-.3.2.8zm-124.9 1.5h-.5l-2.1-2.6 1.3.5-.6-1h.5l.2 1.1h.8l1 1.6zm-24.9-.1-.5-.7.1-.2.7.3.2.5zm5.5 1.6-.9-.8-.4-.8.9.4zm-3-4.3-.5-.8 1.8 2h-.4zm-33.8 1-.5-.4.4-.8.4.7zm23.4.2-.3-.2-.4-.6.8.3zm9.7.7-2.1-.8-.9-1.5.6.5 1-.2 1.6 1.5zm2-4.8.4.6-1.2-1.1-.4-.9zm-48.4 3-.9-.8-.4-.8.7.6zm54.8-1.5.8.3.7 1.5-1.8-2.2zm-45.6 2.7-1.4-1.6h-.6v-1.3l-2-2.4 2.4 1.3 1 1.9h1.2l-.4.7.4 1zm32.5-.1 2 1.7v.9h-.8l-.2-.6-1.6-1.6v-1.2l-1.5-1.7-.4-1.1 2.4 1.8v1l-.3.5zm-36.8-1.9-1-1.2-.8-1.7 1.1.5.8 1.4.8.6zm6.9-.7h-.3v-.6h.5zm24.5 1.5-1.3-1-1.6-2.2 1.5.7zm-11.3-.1-2.4-2.3.2-1-.4-.3h.6l1.6 2.5zm-9.4-.8-2.1-2.2-1-1.6 1.1.5zm6.2-1.2h-.6l-2-3h.8l.6 1zm-24.8-2.5-1-.8-.3-.3.9.3zm3.6 2.1-2-1.9-.6-1 1.5.7 1.3 1.8zm42-2.2.3.4.2.4-1.2-1.3zm-4.6 2-1.6-.5-1.1-1.6 1.6.3 1.1 1.2zm-26.9 1.7-1.9-.1-.1-.6-1-.3-.7-1.7-.8-1.7 1-.5-.6-1.8.5.2v-.6l1.4 1.4-.3.6-.7-.8.7 2.3 2 2.6zm5.5-2.4-.8-.1-.6-1.2 1.4.8zm12.5.4v-.4l-2.2-2.4h.7l1.6 2.1.4.7zm-27.7 21.5-.6-.3-.2-.7.6.3zm90.6-1.2-.4-.1-.8-1.1.9.7zm-2.4 5.5.4.3v.4l-1-.6v-.6zm133.8.3.8-1.5 2.2-1.6.7-.2.5.5.8-.6.2.3.7-.3-3.2 2.6-.4 1.3-1 .5zm-230-1.4-.6-.5-.2-.9h.5zm13.5 1.5-1.3-.3-1-1-.8-1-.2-1 .7-.2 1.9 1 1.1 1.8zm85.3-.9-.1-.7.5.4.5 1-.6-.4-.5.7-.9-1.3zm93.4-1-.2.3-.3-.3.1-1.1zm-198.8 0-.5-1.1 1-.4.7 1-.9.8zm106.4-1 .6.4.1.4-1.2-1.4zm-79.8 1.9-1.8-1.7-.4-1-1-.3v-.5l1.8.7 1.9 2.3zm34.8-2-.3-.1v-.8l1.1-.3.1.7zm38-2v-.2l-.2-.6.9 1-.5.6zm-3.2-2.5 1.6.9v.8l-.8-.1zm-84.1 2.2-.7-.2-.6-2 .7.6zm9.3 0-.3-.6.7.2zm6.1 0-.3-1.3h-.1l-.3-.7 2.4 1.4-.4.5zm-18.7 1.4-.9-1-.5-1.1 1.2-.2 1.2 1.1.2 1.2zm89.4-5h.1l.8 1.2-.7-.4zm-78.4 1.7-.7-.7-.3-1.7 1 1.4zm75-3 .3-.5.2 1-.3-.5zm-69.2 4.3-1.8-2.1-.6.7h-1l-2.9-3.7.8-.4-.3.5h1v.6l1 .1 1 1.5 1.6.4 1.5 1.7zm-7.8-2.8-1-.5-1.1-1.9 1.4.2 1.2 1.8zm44.6-2.2h-.3l.3-.6-1-.4.4-.5 1 .5-.1.7h.1zm-57.5-.3-1.5-1.2-.4-1 1.6 1.3.5.6zm60.9-6.8 1 .8.2.6-1-.2-.6-1.4zm4.2.8.5.9v.6l-1.2-1.9zm1.8.2.5 1.3-2-2.2-.4-1 .7.2zm-61.4 3.6h-.2l.2-1 .3.9zm3.8 3.3-.7-.8-1-2.2.8.6 1.1 2.1zm78.8-1.8.2.5-1-.9v-.5zm-69.2.9-.5-.1-1-2.1.6.5.4-.3v1.1l.9.6zm40-3.2 1.9 1.2.1.7-1.2-.1-1.3-2zm-42.3 1v-.5h.3l.2.3zm-4.3.3-1.2-.5-.7-1 1.6.3-.3.5zm3.6 0-.7-.4-1.2.3-.5-1.7.6-1 .8.1v.6l.8.1.2-.2.4.4.2.4-.4.2h-1.5l1.3.4zm-11.8 0-1.8-1-1-1.6.7.3.6-.4 1.9 2.3zm85.5-3.5-.3-.4 1.5 1.7-.4-.3-.8.3-.8-.5v-.6l1.2.7zm-7.7 2.7-.3-.8h.5l.2-.4-.4.2v-1l-.4-1.5.9.7 1 1.2.5 1.5.6.2-1.8 1zm-.8-.8-.1.8h-.5v-.5l-1.3-1.3v-1.6l.7.3zm-12 0-1.3-1.9-.1-.3.4.2zm-11.3.1.4.3v.4l-.5-.6-.3.4-1.3-.2-1.9-3.5h.3l2.1 2.1 1 .3zm15.1-1.3v.5l-1.1-1.4h.3zm2.6-.2-2-2.3 1.9.7.8 1 2.1.9.8 1.2-.8-.1-1.4-1.4.3.5-.3.6zm-5.4-1.5 1.2 1.5.2.7-2-2.4zm-13.1-.4h.4l2.3 2.6-2.2-1.5-.7-.9zm5.8 1.6-.6-1.2 1.4 1v1zm-60.1 19.6-1.2-.4-1 .4-.7-1.5.9-.2v-.4l.5.2.3-1 1 1.6zm95-1.9.5.6v.3h-.3l-.5-1.2zm-90.8.1-.5-.9-.5-.4.4.2zm98.5-1.1.9 1.6-1.2-.7-1.2-2.3zm-83.9 3.2-2.6-1.2-1.7-3.3 1.4 1.2 4 1.8-.3 1.2zm6.4-2.2-.5-.2-.9-1.6-1-.3v-1l2.5 1.3.5.5-.2.9zm-1.6 1.8-2-1.5-.4-1.5.3-.7-.6-1.7.5.1v-.3l-.8-1.3v-.8l1.5 1.5.1.6-.6.4v.4l1 .5.8 1.4-.2 1.5.4.5zm-30.2-23.1.1-.7h.7l1.9 2.8-2-.9zm4.2-.1 1 1.8v.2l-.7-.8zm67.2 2.8-1-1.1-1-1.5 1.7 1.6zm-51.2 1.5-1-.5-.4-1.4.2-.6-.7-1.2.7.7v1.1l1.3.6-.5.2.7.4zm-7.4-1.8-.8-.7-.2-1 1.3 1.2zm54-.3-2.3-2.2-.8-1-.2-1 1.2.5zm-54.4-7.4v-.2l.4.3 3.6 4.1h-.3v.4l.9 1.6-.4.9.8.2-.3.9 1 .7v.3h-.6v.4l-.7.2-1.3-1.6-.5-2-.5-.3.9-.5-.4-1.4-2-2.4zm100.9 32.7 1.5 1.1.3 1.4-1.1-.7-.9-1.5zm-83.7 2.9-1.5-1.7v-.9l.7-.6 1.3.4 1.3 2.3-.4.4-1.6-1.3zm78.7-.7-1.7-2v-.3l2 1.1 1.3 2.1v.7l-.7-.1zm-85.8 2.6-1-1.6.7-1.3h1.6l2.5 1.8 1.6.7.2-.4-5-4.8-.4-1.7-.9-.3.3-.7 4.3 2.6 1.1 3 1.3.9-.3 1.4 2.8 2.7h.5l-.7-1.8-.9-1.6.4-.2.7.5 1.5 4-.8 1.9h-1.2l-2.3-2.3-1.2-2.1-2 .3zm-6.1-2.5-1.7-1-1.5-.4-.8-1.6.7-1 1.5.2 1.6 2.4 1.6.6 1 1.6 1.8.8.9 1.2 1 2.7h-.7l-1.2-1.9-1.1-.7zm2.3 7.2-.4-.6-2.3-1.2-1.4-1.4-1.2.7-1.4-.9-2.3-2.4-.2-1.2.3-.2 2.1.7 1.4 1.3 1.5-.8.2.5h.8l2.4 2.4 2.4.9 2.2 3h.9l1.3.7-.2.7-.8-.2-1.4 1v.2h.8l.2 1.1 1.5 1.5.5 1.2v2l-.4-.4-.4.4-1.8-3.7-1-1.4-.4-.2-.4-1 .3-.2-1-.5zm-19.3-7.4-1.3-1.8-.1-1 .6.2v-.7l1 .7.9 2zm-3.6-2.8h.6l.4.4.6 1.1h-.8zm12.2 3-.9-1-.9-1.4 1.2 1.2zm96.5-4 1.1 1.2.7 1.7-.7-.3-1.4-1.7-.3-.7zm2.8.3-.4-.5 1 1.2-.2-.2zm-87.8 3.9-.6-.2-1.5-2-.2-1.3.8-.8.6.4v1.1l.8 1.3zm48.4-2-.4-.8.1-.8 1-.7v.7l.2.3zm122.5-3-.7-.4-1.3.2 1-1 .8.1v-.7l1.9-.1-.3.7zm-80 2.8-1.4-1.1-.6-1.7 1 .8zm-92.5-2.2-.7-.6.2-.8.5.7zm14.4 2.2-.5-.6-1.1.4-.3-.5h-.6l-.7-1.9.2-1.2 1.7 2.6 1.7 1zm-40.2-1.8-.5-.5-.6-1.3.4.1zm18.8.7-1.1-.6-.4-.9h.4zm-22.7-1.7-.8-.7v-.4h.4zm117.3 0 .4 1-1.7-2.5.6.3zm-84 1.2-3.6-2.2-1.1-1.4-.5-1.3 1.2.5 1-.2 1 .8 1.6 2zm49.4-2.2-.8-.6-.3-.6 1 .8zm-56.4.5-1.3-.5-1.4-1.7.2-1.2 1.1-.4-1.1-3.5.7.4.7 1.1-.2.5.5.2-.1 1.3.5 1.3-.3.3.8 1.6zm0 0"/></g></svg>