<svg xmlns="http://www.w3.org/2000/svg" xmlns:xlink="http://www.w3.org/1999/xlink" viewBox="0 0 497 279" xmlns:v="https://vecta.io/nano"><style><![CDATA[.B{stroke:#fff}.C{stroke:#8d618b}.D{stroke-linejoin:bevel}]]></style><filter id="A" width="100%" height="100%" x="0%" y="0%"><feColorMatrix in="SourceGraphic" values="0 0 0 0 1 0 0 0 0 1 0 0 0 0 1 0 0 0 1 0"/></filter><mask id="B"><g filter="url(#A)"><path fill-opacity=".5" d="M0 0h497v279H0z"/></g></mask><clipPath id="C"><path d="M0 0h497v279H0z"/></clipPath><path fill="#f2efe9" d="M0 0h497v279H0z"/><g fill="#aad3df" fill-rule="evenodd"><path d="M-41.8 0h279.2v-279H-41.7zm0 279h186.4l.6-1.8 5.2-4.9 8.6-2.5 9 2.7 4.4 4.9.3 1.6h64.6V0h-279zm0 0"/><path d="M237.2 279h273.9l.6-1 4.7-3.3v-29.1l-.9 1.1-.5.4-.3 2h-.9l-.2 1-2.9 1.2.6 1.3-1.5 2-.5 2.4.3.6-5.8 2.9-2.8 2.7-1.6 1-.7 1.5-1.4-.4-3 2-.7 1.5-2.2.1-3.6 1.6-1.7-1.2-1.8-2.7-3.7-3.3-1-2.5-1.7-1.7 1.3-4.1-.9-2.5-.9-.2-.8.2-1 2.8h-1.1l-.3-.3-1.6-.2v-.8l-.9-.4h-2.5l-1.2-.6-2-1.5-1.1-.2-.2-.8.5-.5-.5-1.7-2.3-1-1.4-2.3-1-.1-.7-2-3.2-1.9-1.1-1.6-1.6-.4-.9-2.4v-2.2l.5-1.8 1.1-.6-.1-.6h-1l.6-.8-1.6-1.4-.6 1.2-.2 1.9-1.2 1.1v.8h-.9l-.1-3.2-.9-.4-.8-1.6-1-.1-2.3 1.4-2.1-3.6-1.3-3.7-1-.7-3-.9-3.9 3-2.8 1.1-1.6-.2v-5.7l.4-1.3 1.1-.8.5-2-.3-1.4-1-.6-.5-.9 1.5-5.4 2.4-1 .6-3.2h.8l2-2.7.2-.7-2.3-2.2-.4-1.4.3-1.3 2-2-.3-.7-1.1-.7h-2l-1.6.7-.6.8-1.8.8-2.2-.5-.2-1.1.8-2 .4-2.5 2-2.5.4-2.6-.3-.5-2.1.5-.7.6.3 2.2-2 1.3-.3 1 .8 2.1-.6.3-1.3-2.1-2.7-1.1-1.2 2.2-1.2.1-1-.8 2.5-8-1.8-1.5.6-2.3 3.8-5 2.6.7 1.1-.1 2.1 6 1 .7h2.1l.5.9.4-.2-.3 1.4 2.6 3.5 2 1.7.5 1.1-.3 2.2.9 1.1 1.6-1 1 1h1.3l.5-.2v-.7l-.9-2-.7.2-2.6-5.2-2.8-6.5-.1-1.3 2.7.3 1.6-.2 1 .5 1.3 1.3 1.3 3.2 2.4 4.2 2.3 2.6.9-3.1.8-.3.2-2.2-.5-1.1.2-.9 3 4.8 5.4 4.5 1.9.9 1.7-.2.3-.6 1 .6.7-.4-.4-3.3-4.8-4.9-.4-1.6-1.6-1.8-.3-2.4-.8-.6-.6-4.8 1.3-3.2 1.4-1.4 1.3-.4 5.4-3.7 3.2 3.3 2.4 1.4.7-.1-1.5-5.2.6-1 2.2-.2 4.7-1.3 1.8.1 1 1 1.3.5 1.2-.4 1.3.2 1.7-.9 1 1.1 1.9.2 1.1-.2 3.4 1.6h1.6l2.1.4 1.5 1.3.2 1.3 2.2.1.8-1 .5 1 4.1.6.6.8h.8l.5-1.3 1.7-.1.5 1.3 1.8.2.2 1.4 3 1.4 1.5 1.7 1.3.8v-26.1l-.1-.1-4.5-3.4-4.5-4.9-1.7-3.2-.7-3.6-2.8-8.8-1.6-2.7-3-2.7-2.5-1-.7-1.3-1-.2-1-1.2-.9-.6-5.5-6.7-3.2-1.8-1.6.1-2-1.4-3.3-2.6-1-1.5-.3-1.8 1.7-.7 2.9-4 1.9-.3 1.7-3h2v-.8l1.3-1.4-.2 2.5 2.4-1.8 2-.6.6-.6 1.9.2 1.9-.5.2-1.2-2-1 .3-1.4-1-1.4-1.2-.2-.5-1.3.2-1.6 1.4-1.5-1.3-1.8-.4-3-2-2.4.8-1.3 1.5-.9 2.1.2 2.7 2.1h1.2l.3 3.7.9.6.6 3.2 1 .5-1.3 2.4.5 1 1.3.3 1.7-.8.5 1 .6-.2-.2-1 .9-.7.2-2.2-.8-1.1-3.3-2.5-2-4h1l.6-1.2V65l-1-1.6-8.2-4.6-1.7-1.4-.7-2.4-2.5-2.9.7-1.3-.6-1.1-1.2-.7-1.2-3.4-1-1.8v-3.2l.7-1.3.9-.9 5.1.6 2.6-.3 4.6 1.7h1.6l2.3-.9.1 3.1 8.5.6.7-1.8.7.3 2.8-2.2 3.3.3.8.3V0h-279zm184-67.7h.8l.9 1.6-1.4-.7zm46.1-117.5l-3.9.4-2.4-.3-1.6-1.3-2-.6-.5-2 1.3-2.1.4-3.9 1-.5.8 1.8 1.2 1.5 1.5.4 2.6 2.8.6 2.4zm-8.9-13l-.4.7-.6-.1-.9-1.4-.5-2V67.8l-1-1.6 1.4-.6.9-4-.3-1.2 2.5 1.5.5.7 1.3 8 1.2 3.7-1 .4-.5.5.3 1.2H460l-1.1.6-.8 2zM237.2 0h279.1v-6.1l-3-.7-2.3.3-3 1.3-3-.5-1.7.5-2 2h-1.4l-1.6 1.1-2.1-.3-.5-.9-3-.5-5.4-2.1h-2.4L474-11.5l-4.7-4.5 5.4-6.8 8.7-6.2 6.1-1.7 9.3-1h17.5V-279h-279zm0 0"/><path d="M237.2 558h244.6l-1.2-.7v-1.5l-3.7-4.6v-1.5l1.3-1.7-.2-1.6-4.3-4-.7-1.9.7-.4-2.7-1.3-1.2-1-.8-1.4v-1.1l-1 .3-1-.6-.8-.9h-.6v-2.6l-1.1.6-.1-2.7-1-.6-.5.7-.9-.7.3-1.3-.5-1-.5-.2-1-2-.7-.2v-.5l-1-.2-.6 2.1.8 3.2 2.4.4-.4 1.5h-.5l-.3-.6-.5-.2-.4 1-1.1-1.9-.7-.5-.7-1.2.5-5 1.6-2.4v-1l-.8-1.4 1-2-.3-2.1-2.2-1.3-.2-1.8.4-1.7-.8-1.5-.1-3.2.7-2.5v-2.5l-.2-.9-2-1.8-.8-1.1-.4-1.4.8-1.5-4.5-4.4h-1.7l-2.6-7.4.3-2.8-1-.6-1.3-2.3-2-1.2-.9-.1-1.1.9-.8 3.2 1 1-.2 2.4.4.6-.4 1-1-1.4h-.7l-.9-1.2-1.6-1-3.8-.4-1.4-.4-.8-1.3v-1.1l2.5-4.8 3.1-1.4.1 1 3.5-3.1.4-1h.8l.2-1 .8-.2.5.5.3-.6 1.8.3.8-.7.8-1.5-.9-2.6-1.2-.2 1.2-.8v-.5l-.5-1-1.1-.4-1.1.1-1 1.3-1 .1-1.4 4.5-1.8-3.1-1 .2.4 3.6-.9 2-.4-.5v-2.6l-.6.8-2.4.6-3.1 1.6-2.2-.2-2-1.6-.4-1.4.8-2.7.2-4.6-1.4-1h-1.3l.2-1.4-1.5-1.5-3-.4-.6-1.8-.6-.2-.2-2 1.5-.6 3-1.8 1.4-1.4-.2-.3-1.5 1.1h-1.5l1.5-2.2-.3-.4-2.2-.1-1.3-1.2-.3-.9.5-1.4 7-1.8 1.5-.8.9.2.7 1.5 1.9 2-.2 2.5 1 .9 1.2-.1.7.7 1.1-.3.4.6.8-.6.4-1.6-1.7-1.6-1.2-2.3-1.6-5 .5-1 9-3.7 2.6-.3-.6 3.5.9.9v5.1l.6 3-.3 1.3.5 1.7.1 2.5.7 1.2 2.4-1.5.8-1.2.7-3.2.5-.4v1l1-1.4 1.6-1.3-.7-.4.4-1.5v-3l1.2.3 2.4-.3 2.1-1.1.2 1 2.1 2.2.4 1.5 1.3.6h1.6l4.2-1 .9-2.3-.8-1.7-2.4-1.5-1-2 .1-.5-1.1-1.5.8-1.5-.5-1.9-2.3-2.1-2.5-1.3-2.2-.4-1.7-1-1.2-2.7-1.4-.1-.2-.7-.3.6-1.2-1-1.4-.4-3.1.7-1.2-.9H441l-.5-.5-1-.1-1 .4-.4-.6-1.6-.1-3.8-2.4-1.3-.3-.9.4-1.5 3-1-2.9h-.8l-1.2-4.4-3.3-1.3-2.2-2.8-.9-4.8.4-5.5-1-3.9-1.8-2.3-.2-1.4.4-7-1-1.1.1-2.7-1.4-2.6.3-1.2.4-.7 2.6-.4h2.4l.9-.9h1.3l5.7-4.7 2.8-1.5-.3-.8 2-3.4-2.6-2.9 6.4 3 1.4-.3.5.7.9-1.5 1.2-.3 2.8 1.3 2-.7 2.5-3.7-1.4-1-.6.3-3.3-2-1.7-.2v.5l-1.3-1-3.5-.1-.5.5-.9-.4-.3-.7h-2.1l-4.2 1.5-1.8 2.3-.5 1 .3 2-1.2 1.4-3.3.3-3.6-.3-1.4-1v-2.4l-1-.3-.4-.9.4-1.4-.8-.7-1 .2-.7-.6-.6-1.8-1.4-1.1-.7-1.5.4-1.5-.5-1.5-3.3-5.3-2-5.9.8-1.6h.9l2.1-1-.4-1.7-.8-.6 1-1.6-1.1-1.8.3-.7-.8-1.7-.2-1.7.5-1.2-.9-4.6.6-.7-.4-2 .5-1 2.5-4.1V304l1-3v-3.2l.7-.6 1 .2 3 1.4h1.6l2.5-.2v-1.2l1 .4 5.5.2.9.5 1.2-.2 1.6 1-1.6.2-.2.5 3.2.4 2.6 1.8 1-.6 1.5.6.8-1.9h5.4l4.5 1.8 3 .9 3.2 2.3 1.4 1.9 2.2.7 1.6 3.5 1.2.6v2.2l1.4 1.2.6 2 1.5 1.8h1l.2 1.2 1.5 1v1.3l2.6 1.6-.5 1.8.4.9 1 .8h.9l2.3 2.4 1.4 3.1 3.4 4 .8 1.6.7.4 1.7-.3 1 1.4 3.2 1.2.5.6h1.4l2 1.1 1.4-.1 4 3h2l1.1.3 2 4.4 1.9 2.1 2.4.3 2.1-2.6 1.1-.3 2.8.5 1.2 1 1 1.3 1 3.2h.2l.5 1.3 1.2.3 1.6-.7v-67.7l-7-4.9-.3-.6 1.2-3.8 1-1.3H237.1zM447 515.4l.5-1 1-.8-.7 2.9-.3-.9zm1-2l-.5-1.8-.9-1 1.1-2.9v-2.4h-.7v-1.2l.8-.3 1.1-1.5.8 2.5-1.3 1.9.2.6.6.1 1.4-2.1.4-1h-.4l-.1-2.1.5-.8.6.7h1.3l.4.6-.3 2 .5-.4v1h.6l-1 1.3.5.8-1.6 1-1.3-.6-.7.7v1.4l-.6.4-1 3zm-41.5-15.6l-.8-1.4.4-1.6 1.6-1.4 1.8 1-.1 1.8-1 1.1zm18-3.2l.5-.2 1.7.5.2-1.3-.6-.3-.3-1.5 1.1-.7 1 1.1h.7l-.1 1.8 1.5-.1-1 2.1 1 2.7-.2.4-.3 2.5-.8 1-1.3.6-1.3-.8-1.3-2.1V499l1-2v-.9zm15.7-11.4l1.1-.4.7-1.7 1.3.5v1.4l.4.4-.2 2.3-1.8 3.6-1.5-.3zm0 0"/><path d="M-41.8 558h235l.6-2.3-1-4.8-.8-1.3-2.2-1.6-2.6-3.5-.6-1.5.6-5-1.5-1.8-.9-.2-2 .8-2.6-1.5-1.7.5-.5-1.5-4.5-2.2-2.5-.1-1.6-1-1.4-2.5h-1.5l-.7-1-.4-1.3H163l-1-1.5-1.6-.2-.4-1-2.5.5-1.9-1.1-2.8-.3-1-3.3-1.7-.4-2.9-3.5-.6-2-.1-4.6.9-2.7 2.6-3.7v-1l-1-1.8v-1.4l-1.4-2.2.1-3.8 1.4-1.2 2.8-1 1-.9.2-1.7-.7-.8v-.6l-1.2-1-.6-4.7.8-1v-1.6l.7-1.9 1.9-1.3-.1-1.4-.6-1.4-3-3-1.5-4.2-1.2-1.9-1.8-1.6h-1.5l-1.1-.7-2.3-5.3-2-1.3H137l-1.8-2-3-1.1-.4-.8v-2.6l.4-1-.5-1.6-1.3-.6-1.4.3-.7-1.3-1.3-.3-2.2.5-1.7-1-1.4-1.5-1.4-.6h-4.5l-1 1-.5 2.1.3 1.3-3.3 1-4 3.3-.9 1.2-2.3-1.2h-1l-1.4.2v.4l1.7-.1.3.5-2.3 1-3.7-.6-1.7.5-1.1.7-1.3-.5-1.5.6-.7-.5-1.6.6-1.2-.4-1.6.7-7 .8-3-1.3-1.8-1.7-1.8-.7-.8-2.6-1.7-1.4-3.3-1.7-1.6-2.2 1.5-3.7v-3.8l-1.7-2.6v-1.4l-1-2.1.2-2.5 1.7-5.2-.2-.8.8-1.6h.5l.4.5.3-.7-1.3-2.2.3-.7-.5-1-.2-1.6 1.7-7 .5-15.4-2-6.1-.5-8.8.5-5.9 5.4-12.8 4.5-17.9 5.1-12.7 5.8-8.9H90l2.7 1.3.8-6 2.6-5.5 6.2-6.2 8-3.6 7.9-2.2 7.5 1.3-.4 4.7 3 6.6 3.3 3 4.8 1.5.6 3.7-1.1 2.6 1.9 3.3 5.9-1 3.8-2.7 3.2-1 3.4-.5 3.3-1.4 2.6-.3 5.5-5.3 2.9-1.7 2.5-2.8h3l3.6 4.4h1.8l1.7 1.8.6 3.3 1.9.3.2 2.5 1.2.8.3 2.3 1.3 1.3.5 1.3v1.8l.8 1.7 2.7 2.5 3.2 2.2 5 6.8 1 8.6-.4 8.1 1.4 3.7-.7 2.6 1.2 3.7 3 3.1 3.4 15.5-1.2 8.2 1.7 4.7 2.9 3 .2 3.4-1.8 4.4-2 2.6-.6 3.1 1.4 4.8-1.8 2.2-.8 3.3.6 7.5 1.7 4.4 1.1 5.6v1.3l-2 4.1v2.1l.2 1.6 5.3 5.8 1.5 2.4.3 2.2-.9 3.9 2 3.8.6 2.7v3.6l.2.7.2 6.7 1.2 6.4v3l-.7 2.6.6 5 1.2 1.4v2.2l-1.5 1.5-.6 1.9.6 1.2.3 2.6-.5 1.8-3 2.3-.8 1.6-.4 3.5-2.6 3.4 1 4.2.8 7-.2 2.5-3.2 4.6-2.6 5.9-1.7-2.6-1.7.1-.5 3.3.2 4.5 1 .1 1-.4-3.5 7.3.1.7h36.4V279h-64.7l.1.4-4.1 2-3-2.5h-11l-1.1.5-.6 4.8 2.6 6.4-4.3 2.4-4.8-4-3-6.9 1.1-3.2H-41.8zm0 0"/><path d="M165.7 279l-2.7-2.2-5.6.5-3 1.7zm0 0"/></g><g fill="none" clip-path="url(#C)" mask="url(#B)" class="D"><g stroke-width=".8"><use xlink:href="#E" class="B"/><use xlink:href="#E" class="C"/><use xlink:href="#F" class="B"/><use xlink:href="#F" class="C"/><use xlink:href="#G" class="B"/><use xlink:href="#G" class="C"/><use xlink:href="#H" class="B"/><use xlink:href="#H" class="C"/><use xlink:href="#I" class="B"/><use xlink:href="#I" class="C"/></g><g stroke-width="2.2"><use xlink:href="#J" class="B"/><use xlink:href="#J" class="C"/><use xlink:href="#K" class="B"/><use xlink:href="#K" class="C"/><use xlink:href="#L" class="B"/><use xlink:href="#L" class="C"/><use xlink:href="#M" class="B"/><use xlink:href="#M" class="C"/><use xlink:href="#N" class="B"/><use xlink:href="#N" class="C"/><use xlink:href="#O" class="B"/><use xlink:href="#O" class="C"/></g></g><defs ><path id="E" d="M342.5-2.5l-.1 1.1-.8 5.4-.4 2.6-.2 2.7-.5 2.6-.4 2.7-.3 2.6-.4 2.8-.4 2.5-.4 2.7-.6 5.3-.5 2.5-.3 2.8-.4 2.6-.4 2.6-.6 2.4-.8 2.6-2 7.6-.9 2.6-.6 2.5-.7 2.6-.8 2.5-1.3 5.2-.7 2.5-.8 2.5-.6 2.5-.8 2.6-.4 1.7-2.7 1-.9.2"/><path id="F" d="M321.7 82.1l-1.4.5-5 1.9-2.5 1-2.5.7-5 2.1-2.5.7-2.5 1.1-10 3.7-2.5 1-2.5.8-2.5 1.1-2.5.8-2.5 1-2.5 1-2.5.8-2.5 1.1-2.5.8-2.5 1.1-2.5.8-2.5 1.1-2.3.8-2.6 1-2.5 1-2.5.9-7.5 2.9-2.4 1-2.1.6"/><path id="G" d="M238.4 113.5l-.4.2-5 1.9-2.5 1-2.4.8-2.5 1.1-5 1.9-2.4 1-2.5.8-5 2.1-2.4.8-2.5 1.1-2.5 1-2.3.8-2.6 1.1-2.5.9-2.4 1-2.5 1-2.5 1-2.4 1-2.5 1-2.5.8-4.9 2.1-2.4.9-2.5.9-2.5 1.1-2.4 1-2.5 1-2.4.9-2.5.9-2.4 1.1-1.2.3"/><path id="H" d="M155.4 146.1l-1.3.6-2.5 1-2.4 1-2.5.9-4.9 2-2.4 1-2.4.9-2.5 1.1-4.9 2-2.4 1-2.5 1-2.4 1-2.5 1-2.4 1-2.4 1-2.5 1-2.4 1-2.5 1-2.3 1-2.3 1-2.3 1-7 3.7-9.6 4.5-4.6 2.3-4.7 2.3-1 .6"/><path id="I" d="M73.9 182l-1.4.5-4.7 2.5-2.3 1.1-9.5 4.7-2.2 1.1-2.1 1.1-2 1.1-2.1 1.2-2 1.1-2 1.3-1.9 1.2-2 1.3-1.9 1.5-2.5 1.5-2 1.5-2.3 1.5-2 1.5-2.2 1.5-2.2 1.6-2.1 1.5-2.2 1.5-2.3 1.5-2 1.5-2.2 1.5-2.1 1.5-2.2 1.5-8.5 6-2.2 1.5-.4.2"/><path id="J" d="M360.4-77l-.4 1-1 2.5-1 2.6-2 5.2-1 2.4-1 2.7-.9 2.4-.9 2.4-.8 2.4-.7 2.5-.7 2.5-.7 2.4-.6 2.5-.5 2.6-.5 2.5-.4 2.4-.4 2.6-.4 2.7-.4 2.7-.4 2.6-.3 2.7-.4 2.7-.8 5.3-.2 2.7-.5 2.7-.5 2.6-.3 2.7-.3 2.6-.8 5.4-.4 2.6-.2 2.7v.2"/><path id="K" d="M227 117.9l-1.3.6-5.1 1.9-2.4 1-2.5.8-5 2.1-2.4.8-2.5 1.1-2.5 1-2.3.8-2.6 1.1-2.5.9-2.4 1-2.5 1-2.5 1-2.4 1-2.5 1-2.5.8-4.9 2.1-2.4.9-2.5.9-2.5 1.1-2.4 1-2.5 1-2.4.9-2.5.9-2.4 1.1-2.6 1-2.4 1-2.4 1-2.5.9-2.4 1h-.1"/><path id="L" d="M340.8 9.5l-.3 2.4-.4 2.7-.3 2.6-.4 2.8-.4 2.5-.4 2.7-.6 5.3-.5 2.5-.3 2.8-.4 2.6-.4 2.6-.6 2.4-.8 2.6-2 7.6-.9 2.6-.6 2.5-.7 2.6-.8 2.5-1.3 5.2-.7 2.5-.8 2.5-.6 2.5-.8 2.6-.4 1.7-2.7 1-7.4 2.6-2.5 1.1-2.4.7"/><path id="M" d="M310.4 86.3h-.1l-5 2-2.5.7-2.5 1.1-10 3.7-2.5 1-2.5.8-2.5 1.1-2.5.8-2.5 1-2.5 1-2.5.8-2.5 1.1-2.5.8-2.5 1.1-2.5.8-2.5 1.1-2.3.8-2.6 1-2.5 1-2.5.9-7.5 2.9-2.4 1-2.5.8-5 2-2.5 1-2.4.8-1.1.5"/><path id="N" d="M144.2 150.7l-2.4 1-2.4.9-2.4.9-2.5 1.1-4.9 2-2.4 1-2.5 1-2.4 1-2.5 1-2.4 1-2.4 1-2.5 1-2.4 1-2.5 1-2.3 1-2.3 1-2.3 1-7 3.7-9.6 4.5-4.6 2.3-4.7 2.3-7 3.6-4.8 2.3"/><path id="O" d="M63 187.3l-2.2 1.1-4.8 2.4-2.2 1.1-2.1 1.1-2 1.1-2.1 1.2-2 1.1-2 1.3-1.9 1.2-2 1.3-1.9 1.5-2.5 1.5-2 1.5-2.3 1.5-2 1.5-2.2 1.5-2.2 1.6-2.1 1.5-2.2 1.5-2.3 1.5-2 1.5-2.2 1.5-2.1 1.5-2.2 1.5-8.5 6-2.2 1.5-2.3 1.5-2 1.5-2.2 1.6-2.1 1.5-1.6 1.1"/></defs></svg>