<svg xmlns="http://www.w3.org/2000/svg" viewBox="0 0 497 279"  xmlns:v="https://vecta.io/nano"><path d="M0 0h497v279H0z" fill="#f2efe9"/><g fill="#aad3df" fill-rule="evenodd"><path d="M303.4 294.6l.2.3v.3l.4.2v.1l.2.2h.1l.2.3h.1v.7h.7-.3v.5l-.6.2v.2l-.4.1v.3h.3l.2-.3v.3h.2v-.3h.5v-.6l.2-.1v-.1.4l.3.2.1.1.2.1h.4v.3h1.5l.2-.2h.1l.2.1v.4h-.2l-.4.5h-.1l.1.2h.2v.3l-.4.1-.2.3.1.2.2.1h-.7l-.2.4h-.2l-.3.1-.2.2h.4l.3.2.2.1.1.1h.1l.2-.2.3-.3h1.3v-.1l-.3-.1h-.5l-.3-.2v-.2l.4-.1h.2l.2.1h.1l.2-.3v-.2l-.4.1v.2h-.2l-.1-.4.2-.3h.3v-.3l-.1-.3v-.4h.3v.3l.2.2.2-.2.1-.2.3-.2.2-.3v-.1h.6v-.4h-.1v-.2h-.3l.1-.3h.2v-.4l-.2-.2.2-.3h.5l.3-.4.1-.1v-.3l-.4-.2v-.3l.1-.2.1-.3h.6l.2.2h.9l.3-.2h.2v-.2h-.4l-.2.2h-.6v-.9h.3l-.2-.4h-.1v-.4h.3l.1-.1h.2v-.2l.3-.2.1-.2.2-.2h-.2l.1-.3v.1l.2-.4v-.3h-.3v-.2h.6l.2-.5v-.4h.4l.2-.4.4-.1v-.1l.3-.1v-.4l.3-.3v-.6l.4-.4h1l.1-.1h.3v.3h.2v.2h.1v-.1l.1-.3h.2v.1l.2.1h.6l.1.2v.6l-.2.2-.2.2-.2.2v.3l-.2.2h.3l.1.2.1.1h.2l.2.1v.2l-.1.4-.2.1h-.7v.5l.3.2v-.4h.4l.1.2v.3-.5l.2-.1v-.2l.4-.2v-.5h.2l.2-.2.2-.1v-.2h.3l.1-.1v-.2l-.2-.2.2-.2v-.2l-.3-.3v-.3l-.1.1-.3.2v.1l-.1-.2v-.1l.4-.2v-1.1h.7l.1-.6.1-.1.2-.1.1-.3v-.3l.3-.3v-.1l.3-.2.2-.3h.2l.3.5h.5v-.4h.8l.3-.3h.2v-.2l.3-.3h.4l.5.1h.5v.1h.3v.5l.3-.2h.1l-.1-.2h-.2l-.1-.1v-.1h.2l.1-.3h.1v-.1l.3-.2v-.3h.3v-.3h-.3.3l.1-.4h.1l.2.5.2-.3.1-.2h.8l-.3-1.4h-.6v-.2h.7v-.4h.2v-.3h-.4l-.4.3-.1-.2-.1-.3h-.6l-.1-.3h.1l-.3-.5v-.7l-.4-.2-.2-.2-.2-.4h-.5l.1-.5v-.2l-.3-.1-.1-.2h-.6l-.2.2v-.6l-.3-.2h-.2v-.4h-2.7l-.3.3-.2.1v.6h.2v.7l-.2.1v.7l-.1.4-.1.1-.1.3h-.5l-.2.3-.2.2-.2.1v-.2h-.4v.1l-.2.2h-.4l-.2.3-.2.1h-.2l-.2.3h-.2v.3l-.3.2h-.2l-.4-.2-.2.3-.3-.1v-.2l-.3-.3h-.8l-.1-.1h-.2l-.4.4h-.4l-.3.4-.5.5-.2.4-.4.3-.4.2v.5h-.2l-.2.1v.2l-.4.1-.2.3-.3.5h-.2l-.3.7-.4.5-.2.3-.1.3v.3l-.5.5v.4l-.5.4-.2.2v.2l-.3.1-.5.6-.2.3-.2.3v.7l.2.2-.3.3-.3.3h-.4v.1l-.3.5v.3l-.2.4-.3.2v.1l-.3.3-.1.2v.4l-.1.1v.8l.2.3v.6l.3.1.1.2v.3l-.1.5v.3l-.3.3v.4h-.2l-.2-.2v-.5h-.3l-.1-.3.3-.3v-.4l-.3-.2v-.2l.1-.4v-.4l-.1-.2-.2-.1v-.1l-.2.1h-.3v.4l-.2.2v.5zM117.3 281v.2l.3-.2v1l-.2.4v.3l.2.1h.2l.2-.1h.5l.1-.1h.1l.1-.2h.6v.6l.2.2h.1l.3-.2v-1.2l.1-.2h.3v-.6h.2l.2-.2h.2l.1.2v.3l.1.1.2.3h.6l.2-.3h.2l.2-.3h.4v-.1l.3-.1h.1v-.2l.4-.2v-.5h-.3l.3-.3v-.3l.2-.4.2-.2h.2l.3.2-.2.1h.2l.3.1v.2l-.2.1v.1l-.1.4v.3l.3.1v.9h-.3l-.3.5.1.2h.1l.1.2v.2h.3v.5l.3.2v.1l-.1.2v.2l-.2.4-.1.1v.2l-.2.1-.2.2v.1l-.4.3v1l-.3.2v.1l-.2.2-.3.2h-.1l-.4.5v.3l-.4.2-.1.2h-.5l-.1.1h-.2l.1-.1h.3v-.8h.5l-.2-.1h-.2v-.3l-.1-.1-.3-.1-.1-.1h-.3l-.2-.2v-.6h.1v-.1h-.1v-.3h.1l.2-.2.2.1h.2-.2v-.7h-.8l-.1.1-.1.3h-.3v-.3l-.2-.2h-.1l-.2.1v.3h-.7l-.3.1v.9l.3.3v.3l.2.3h.1v.3l.3.3v.5l.4.2v.4l.2.1.1.1.2.4h.2l.1.1h.4l.2.4h.3l.3.1v.1l.3.2v.5l.1.2v.2h.2l.3-.4v-.1h.1v.1h.1l.4-.3h.2l.2-.4.1-.3.3-.2h.8l.1-.1.2-.1v-.1l.2-.2v-.2l.4-.4h.3l.1.2h.2l.4.1h.6l.1.1h.2l.4.6.4.4h.3v.1h.1l.3.3v.2h.6l.1-.3h.6l.1-.1h.7v.7l.2.2h.4v-.2h.4v-.2h.3l.2-.2h.2l.2-.1h.2v-.5l.3-.1.2-.2v-.2l.4-.2.1-.1v-.1l.3-.2v-.3l.1-.2-.4.3v.4h-.2v.1l-.1.2h-.1l-.2.3h-.4l-.1.4h-.2l-.3-.2-.2-.2-.2-.2v-.3l-.3-.3v-.7l.4-.1v-.4l-.3-.2-.2-.2v-.1h-.3v.7h-.2v.2l-.7.7v.3h.2v.3h-.2l-.2-.3h-.4l-.1-.2-.2-.2h-.3l-.2-.3h-.1l-.2-.1v-.1l-.3-.3v-1.3l-.3-.3v-.8l.3-.1v-.4h-.3v-.2l-.1-.3-.4-.3h-.1l-.1.2-.6.1-.1-.1v-.1l-.3-.2v-.2l-.2-.2h-.8l-.1-.3h-.1l-.2-.1v-.6h.2v-.3l.2-.2v-.7l-.2-.1v-1.2l.2-.3h.3v.2h.6l.1-.4h.4l.1-.1-.2-.2-.3-.1v-.1h-.3l-.1-.1-.3-.4h-.4l-.3.4h-.2l-.4-.4h-.3v-.7l-.4-.1.2-.4.2-.3v-.2l.1-.1h.2v-.2h.3v-.2l.1-.2h.1l.3-.2h.1l.6-.6h.4l.1-.4.6-.1v.1l-.2.1v.5h.4l.1-.4h.3l.5-.4.1-.2h.2v-.3h.2v-.4l.1-.3h.2l.1-.2v-.3l-.2-.1-.2-.4-.2-.2h-.7l-.4-.3h-.4v.4l-.5.3v1.2l-.1.1h-.9l-.5.2h-.5v.3h-.3l-.2.3h-.1l-.4.2-.1.1-.3.4h-.2l-.3.2h-.5v.2h.4v.2l.2.2v.1l-.2.1-.3.5h-.2l-.2.3h-.3l-.2.2h-.1l-.5.4-.2.1h-.1v.3h-.4v.2h-.2v.2l-.3.1v.2l-.4.1h-.3l-.3.1-.3.3-.1.2-.4.4-.2.1v.3l-.5.5zm3-1.8v-.2l.1-.2.2-.1h.2v-.2h.4v-.3l.3-.2v.5l-.4.2-.1.3v.3h-.1l-.2.2h-.4v-.2zm0 9v-.4l.1-.3h.6l.1.3.2.2v.2l-.3.3h-.4l-.2-.1zm1-7.6v-.6l.1-.2v-.2l.2-.1v-.1l.2-.2.2-.3h.2v-.2.1h-.2v.1l-.3.2-.1.3v-.2l.2-.4.3-.1h.3v-.2h-.2l.2-.1h.3l.3-.2.3-.2v-.2l.3-.3h.3l.1.1.2.2v.1l-.4.4h-.1l-.2.1h-.1l-.2.3h-.4l-.1.4.1.1v.1l.2.2v.7l-.3.3v.1h-.2v-.6h-.1l-.2.3-.2.3h-.3l-.1.2h-.1l-.3-.2zm.8 7.6v-.2h.3l.3-.2v.2l-.3.3zm.6-10v-.2l.2.1-.2.2zm1.2 9.7l.2-.2v-.1l.3-.1v.5h-.3v.2h-.1zm.5-.9h.3v.2h-.1zm.7-1.3v-.5l.2-.2.2-.2h.3v.7h-.3l-.2.2zm1.3-1l.1-.2h.3l.3.2.2.2v.2h.3v.6h-.4l-.2-.2-.3-.4v-.1l-.2-.1zm5.3 4.9v-.3h.3l.2.2v.3h-.2l-.2-.2zM88 271.5v.2l.3-.1h.7v.2l.3.2h.6l.1.4.2.2h.1l.3.2.2.5h.1l.1-.2.3-.3h.3l.1.2.1.1h.8v-.6h-.3l.2-.2h.2l.2-.1.1.3-.2.2h.7l.2-.3.3-.2h.1l.5.1h.1l.1.4h.2v.1h.6l.4-.3v-.5l-.3-.2v-.3l-.3-.2-.4-.4-.2-.2-.2-.1-.3-.3v-.3h.3v-.8l.4-.2v-.6h-.3v-.3l-.2-.1v-.5l.2-.2.3-.3h1v-.4l.2-.2.2-.2V265l.1-.2v-.2l-.4-.3v-.4l.3-.3v-.3l-.3-.3v-.2l.2-.2.2-.2.1-.2.2-.2v-.3l.2-.1.1-.3h.2v-.1l.1-.2v-.2l.3-.1.1-.2v-.4l.2-.1h-.6l-.4.1-.4.2h-.4l-.2.2h-.4v.1h-.3v.2l-.3.2h-.8l-.1.1-.3-.1v-.9h.2l-.1-.1v-.7l-.3-.3-.1-.2v-.3h.1v-.5h.3l.1-.3v-.2l.2-.1v-.2l.1-.2H94l.2-.1h-.1l-.2-.3v.4l-.2.3v.1l-.2.4-.5.4v-.2l-.2-.2v-.3l-.4-.3v-.1l-.4-.3v-.8h.4v-.3h.2v-.4l.3.2h.1v-.1l-.4-.1v-.7h-.2v-.6l-.1-.1-.2-.3h-.3l-.1-.1h-.1l-.2.3.3.2.3.3v1.2l.2.2h.1l-.1.3h-.3v-.1h-.5v.5l.2.1v.4h.2v.3h.2l.3.1.2.3v.1h.1l.1.3v.2l.2.2v.8h.1v.9l-.4.2v.4l.4.3v.2h-.4v.3h-.4l-.2-.1v.2l-.3.3h-.3v.2l-.3.1v.2H91l-.1.1-.4.2v.3h-.8l-.4.4H89v-.7l-.3-.3.1-.2.2-.2-.1-.1v-.2h-.3v-.5l.4-.2h.2v-.6l-.2-.4v-.1l-.1-.5h-.7v.2l.1.1v.3l.1.2v.8l.1.1v.2h-.1v1.9l.1.2v.4l.1.3v.4l.3.3v.6h.1v.5l.3.1v.6l-.1.4v.3l-.2.4.2.1.2-.1h.3v.3h.6v-.3.7h.2v.1l.3.2v.8l-.1.1v.1l-.1.3-.1.1v.1l-.3.2-.2-.2h-.3l-.5.4h-.5v.5l-.2.2H88zm1.2-.1l.2-.1h.1v.3h-.3zm.6-6.4l.2-.3.1-.3v.4l.3-.2v-.6h.6l.1.2.1.2.2.1v.2l.2.2.2.1.2.1v.1h-.1l-.1.2-.2.1v.1l.3.1.1.3h.2l.4-.3.1-.2.5-.4v-.4h.2v.3h.3v.6h-.5v.4h-.4v.8l-.1.1.1.1v.1h-.5l-.2.1v.5l-.3-.1h-.1l-.1-.2v-.1l.1-.3h.1l.2-.1v-.2h-.8l-.2-.2v-.7l-.2-.3.2-.1h-.1l-.3.2v-.6h-.2v.2l-.2.3v-.7l-.3.2zm1.2 6.6v-.6h.2l.1-.5.3.2h.4l.2.2.4.1v.5l-.3.2h-1zm.9-8.2h.4v.2H92zm.4 5.3v-.2l.2-.1.1-.2.4-.4h.1l.1.2v.4h.1v.7h-.2l-.1.3h-.3v-.3l-.1-.1-.1-.2h-.2zm.6-8.2v-.4h.3l.2-.1v.5l-.3.1H93zm.1 6v-.3h.4v.5h-.2v.1l-.2-.1zm.2-7h.2v-.1l.1.2-.2.1zm.2 5.1v-.3l.3-.1.1-.1h.7l.2-.1h.3l.4-.3.3-.1v-.5h.3v.5l-.1.1-.3.3v.2l-.1.1v.2l-.1.3v.2l-.3.2h-.3l-.1.3-.1.2H94v-.6l-.1-.1h-.3v-.3zm1.3 2.4h.1zm12.3 8.1v.2l.8-.4.4-.4h.2l.5-.3v-.2l.6-.3.2-.2.3.2v.3l.2-.1v-.6l.4-.5h.4v-.3h.5l.3.5h.4l.3.2-.5.4h-.4l-.2.1-.3.4-.4.2-.2.2v.1l-.2.2h-.2v.7l-.5.5h-.7v.4l.1.3h.8l.3-.4.1.2v.5l-.3.2.4.2.4-.4h.3l.3-.4.2-.1.5-.3.5-.3-.1-.3-.2-.2h-.2l-.2.2-.5-.1v-.5h-.2l.2-.3h.3l.4.1h.3l.2.1h.1v-.5h-.3v-.4h1l.1-.2.5-.2h.3v.4l-.3.2.1.5.4-.3h.1l.1-.3.6-.4h.1v.3l-.1.2h.5l.4.4.2-.3h.2l.5-.3.1-.3-.1-.2v-.2h.4l.3-.1v-.4l-.1-.1v-.1l.7-.3h.3l.4-.5h.4l.4-.1v.3h.5l.1.3.1.3.1-.3h.4v-.8l.2-.1-.3-.2-.4.1h-.1v-.5h.6l.4-.2h.2l.2-.2.6-.2.3-.2.6-.6.4-.1.3-.4.1.1v.1h.1v-.3l.4-.1h1.3l.2-.4h.3l.3-.3h.7l.4.1.7-.8-.3.2h-.2l.1-.2-.1-.3h-1.7l-.2-.2h-.1l-.4.2h-.2l-.2.3h-.5l-.6-.3-.2.2h-.2l-.2.1v.3l.4.4.2.2-.6.5-.1.1h-.7l-.4.5h-.9l-.2.3h-.6l-.3-.2-.1.1v.2l-.2.3-.3.3h-.2l-.2.1-.3.1h-.2l-.5.5h-.7l-.2.1h-.8l.3-.4h.1l.4-.1.1-.1.5-.7-.1-.1.5-.4h.1l.3-.4.8-.4h.4l.3-.5.1.2h.3v-.2l.3-.1.3-.4h.2l.2-.1.1-.1v-.3l.2-.3.6-.2v-.5h-.3l.3-.2-.4-.4-.2-.1.1-.3h-.1v-.3l.4-.3h.3v-.2l.9-.7v-.1h-.1l-.3.2h-.1l.4-.6v-.2l.5-.5h.3l.2-.3.2-.2-.3-.6h-.2l-.3.2-.6.2h-.2l-.2.4.1.2v.4l-.2.4h-.2l-.3.3-.3.1-.4.3-.4.3-.2.2-.2.2-.5.4-.1-.1h-.3l-.3.2.2.1v.4l-.3.4v.5l-.3.1-.1.2v.2l-.4.1-.7.9-.2.5-.1.1h-.2l-.1.2-.1.3-.3.3h-.2l-.3.5h-.5l-.6.6-.3.2h-.3l-.5.3-.5.1-.4.4h-.5l-.1.2h-.6l-.7.3h-.5l-.7.6-.5-.1v.4l-.6.3-.2-.2h-.3l-.2-.2v.4l-.5.4-.2.6h-.2v.3l-.2.5zm9-2.8v-.3h.5l-.1-.4.3-.2h.1l.1.1h.4l-.3.5v.1l-.3.4h-.7zm1 0l.3-.2h.2v.3h-.5zm.1 0"/><path d="M106.4 281.6l.2.3h.2v.5l.6-.4.3-.1.3-.1.4-.4.6-.3h1l.6-.5v-.3l.2-.3.4.3h.1l.4-.1v-.3h.6v-.3l.2-.1-.1-.1 1-.9.4-.5h.2l-.2.2.1.1h.2l.1-.3h.8v-.2l.4-.4h.2l.3-.2.3-.4v-.1l.2-.2v-.5l.3-.3v-.2h.3v-.2h-.3l.3-.3-.2-.2v-.1l-.2-.2h-.2l.1.2.1.1h-.4l-.5.7v.2l-.2.7-.5.3.3-.5v-.2l.1-.2-.2-.2H114v.2h-1l-.4.8v.1l-.3.3h-.1l-.4.3h-.2l-.4.4-.2.2h-.3l-.4.1-.3-.1h-.4l-.8.2v.3l-.3.1v.5h-.5l-.2.4v.5l-.1.1-.3.3h-.1l-.3.2-.3.3v.2l.3.2-.1.1-.3.2h-.2zm-13.2-28.2v.2h.2v.3h.6v.2h.3v-.2h.7l.2.4-.2.2v.1h.2l.2.3v.1h-.2v.2H95v.2h-.2l-.4-.2v-.5H94v.3l.5.4v.2l-.5.1.4.3.1.3v.4h-.3v.2l.4.1v-.1l.1-.2.1-.1.4-.2.3-.1h.4v.3l.1-.3.4-.1v-.5l.2-.2v-.2h.4-.2v-.4h.2l.2.1h.1v-.3h.7l.5-.3h.5l.4-.5.2-.3v.3l.2.1.2.1v.4l.3.5.1.5v.4l-.1.1-.1.2.3.5v.3l.3.5v.3l-.2.2-.1.2v.2h.1v.3h.8l.1.1v.5l.3.1v.8h.2l.3.1.1.1v.1l.2.3.1.2.3.3v-.3h.2l.2.2v-.2h.6v-.1h-.3v-.2h.3l.1-.3v-.3l-.1-.1h-.3l.2-.3h-.3l-.1-.3v-.9l.4-.2h.1v-.4l-.2-.1h-.1l-.1-.4h.1v-.1l.3-.3h-.2v-.3h-.3l-.1.3h-.2l-.4.3h-.1l-.2-.2h-.2l-.2-.1h-.1v-.6l-.3-.4v-.8l.3-.4v-.4h-.8v-.1h-.2l-.2.3-.2-.2h-.3v-.2l-.3-.2v-.3h.2v-.3l-.2.1v.2h-.4v-.4l.4-.1v-.9l-.3-.1v-.4l-.3-.3v-.1l-.1-.1v-.3l-.2-.4-.1-.1h-.2v.3l.2.2-.2.2-.3-.2v-.2h-.1v.4h.6v.3h.1l.2.3v.2l-.3.2v.9h.4l.2-.2v.5l-.2.3h-.1l-.1-.2v.3H99v.2h-.3l-.1.2-.2.2h-.2v.2h-.4l-.2-.3H97l-.1-.1-.3.1v.4l.1.2h-.3v-.5h.3-.1l-.1-.4h-.7l-.3-.2-.4-.1h-.2l-.2-.2-.2-.4-.4.4H94l-.3-.2h-.4zm2.3 2.2v-.3l.3-.3h-.1v-.2h.3v-.1h.2v.7l.1.1H96v.2l-.3.2zm3.8-3.4v-.2l.4.2zm1.5 3l.2-.2v.4zM99.7 281v.3l.5-.3.7-.6h.3l.3-.3.4-.3h.4l.2.2h-.3l-.4.4v.4l.1.1v1l.4.4h.3l.2.2h.5l.3.3.4-.2h.2l.2.2h.5l.1-.2.4.2.3-.1.2-.4-.2-.2.3-.1h-.5l-.5-.2v-.2l-.2-.4v-.2l.2-.2v-.6l-.2-.1.3-.5h-.1l-.3-.4h-.2l-.5.1-.2-.4.2-.2v-.4l.5-.5.1-.1.7-1 .2-.1v-.2l.5-.3-.2-.2h-.2l-.2.1h-.4v.5l-1.4.7-.2.2v.2l-.9.9-.3.2h-.2l-.3.3-.4.3-.1.1-.8.9h-.2l-.3.4v.1zm-26.3-9l.1.2h.5v.5h.2l.6.1v-.4l-.4-.1h-.1v-.6h.3v-.2l.4-.1h.3v-.3h.7l.3-.1v-.2h.2l.3-.2h.4l.2.3v.1l-.3.2-.1.2-.1.3v.1l-.2.4-.1.1v.1H76v.6-.3h1.4v.3h.8-.4v-.4h-.2v-.1h-.4v-.2l.6-.3h.9v.3l.2.2v.3h.1l.2.2h.1l.2.2.2.3.3.3.2-.2v.1h.7l.1-.5h-1.2l-.1-.2v-.7h-.4l-.1.2H79l-.1-.1v-.1h.1l.2-.2.1-.1v-.2h-.2v-.6l.3-.2.3-.3v-.2l-.1-.4-.3-.3h-.1v-.2l.3-.1v-.5h-.3v-.1l.3-.1v-.1h-.2l-.1.2h-.5l-.3.1h-.6v.3h-.5l-.3-.3v-1.3h-.2v-.4l.3-.1h.2v-.4h.7v.2h.5l.1-.4h-1.2v-.1H77v-.2l.4-.1v-1.1l.1-.1h-.2v-.3l-.3-.2v-.7l-.1-.1v-.2l-.1-.4-.4.3v1l.2.2v.2h-.1l-.3.2h.4l.2.2.2.1v.5l-.3.2h-.2v.2l-.1.1-.1.2H76l-.2-.2-.1-.2-.1-.1h-.3v.3l.1.1.4.2.2.2v1.5l.5.1v.6l.1.3.2.3v.3h-.1v.3h-.2v.1h-.2v.3H76l-.1.1h-.2l-.3.1-.1.2h-.1l-.3.1-.5.2-.2.2H74l-.4.4zm4-13.9v.2l.6.4.2-.2h.2l.3.2.4-.2h.6l.3.2h.1l.4-.1.3-.3h.4l.1-.2h.2l.2-.1.1-.3v-.5h-.1v-.2l.2-.2.1-.2v-.2h.1l.5-.4.4-.1.3-.4-.6-.7-.3.2-.2.2-.2.4h-.3l-.5-.3v-.4H81v-.3l.2-.1v-.2l-.2.1-.3-.4v-.2h1.7l-.3-.3-.4-.3v-.2l-.3-.2h-.8v-.2l.4-.2-.2-.4h-1v-.3l.1-.3.3-.2.1-.2-.2-.1h-.7l-.2.5.3.3v.5l.1.2h.4l.3.4.2.4v.3l-.2.3v1.2h.5l.1.4h.3v1H81l-.2.2v.2H80l-.2-.6v-.2l.5-.5v-.2h-.7l-.8-.1-.1.1-.1-.1H78l-.3.1-.2-.1h-.1v.4l.2.1h.2l-.4.4.2.5h.1l.2-.2 1-1 .2.4v.9l-.5.7h-.2l-.2.2h-.4l-.2-.3-.2.2zm2-.9l.3-.2v.5h-.3zm1 .8v-.3h.3l-.2.3zm-10.1 2.2l.1.4.2.2h.2l.3.4h.4l.1.2.4-.3.4-.5.2-.2h.3l.3-.4.2-.4.3-.3h.5l.3.4h.1l.2-.1v-.2l-.3-.4-.5-.9-.1-.5-.3-.2v-.2l-.3-.1-.1-.3-.1-.3-.3-.2h-.3l-.3-.3v-.4l-.2-.4-.3-.7.3-.1v-.1l.1-.5h.4l.4-.4h.1l.2-.2h.3l.1.1.5-.3-.3-.2-.3-.1-.5-.3v-.1h-.4l-.6-.4v-.2l-.2-.3v.3l.2.3.1.2h.3v.8l-.4.2h-.9l-.2.2.1.2h.2l.2.1v1.3l.3.3v.1l.2.3v.3l.2.2v.2l.3.7-.5.4v.3l-.3.2v.1l-.4.5-.3.7-.2.2-.3.5zm2.5-7.4v-.1h.2v.2zm8.9 6.5l.1.3.4.6v.2l.2.3.2.2v.2l.4.3v.5h.3v.1l.3.4.4.4v.1l.1.2v.4l.2.3v.1h.6v.3l-.3.4h.5l.2.4-.3.3-.1.2.1.3v-.5l.4.3v.6h.3l.2-.3.6-.4h.1l.2-.2h.2v.1l.2-.1-.3-.4.1-.2-.5-.7v-.5l-.5-.5v-.4l-.7-.6h-.7l-.2-.4-.4-.6-.8-1-.2-.4-.8-1h-.3l-.1.1-.1.5zm-17.4 18.9l.3 1.3.6.7.2.8.4.7v.3h-.2v1.4l.2.2 1-1 .5.6.2.9v.6l.3.3v1.2l.5.5.2-.7-.3-.3v-.3l-.4-.6v-.2l.2-.2v-1.3l-.2-.2v-.4l-.4-1.2-.8-1.3h-.2l-.9-1.1-.1-.5-.4-.4zm19.4-5.4l.1.2.3.2.2.1v.1l-.1.2v.4H84v.8h-.2v.2l.3.3v.3h.2v.2l.2.2.1.1v.4l.2.3-.2.3-.2.3.2.2v.1l.2.1.2.4.2.4v.2h.2v.3l.1.1v.2l.1.2v.1h.3l.1.3h.3v-.3h.3l.2-.1.1-.1h.3l.2-.4v-.1l-.1-.2-.3-.2v-.4l-.4-.2v-.1l-.1-.3h-.6v.3l-.3-.1v-.3h.3v-.1l-.2-.2v-.8h-.1l-.3-.1v-.1h.1v-.9l-.3-.1v-.2H85l-.1-.2v-.2l-.1-.2v-.4h-.2v-.3l-.3-.3v-.1l.3-.2H84v-.1l-.2-.2v-.1zm14.7-8.1v.1l.4.3v.9l.2.1v.3l-.1.2v.3h1.4l.1-.3h.9l.1-.3.1.2.4-.2h.2l.3.1h.2v.1h.5v-.5h-.3l-.1-.1v-.1l-.4-.4h-.1l-.2-.1h-.1l-.4-.2h-.1v.3h.3v.6l.3.1-.3.1h-.1l-.1-.1h-.2l-.3.2-.3-.1v-.4l-.2-.1-.2-.3-.1-.1v-.3h-.4v-1h.2l.1-.3h.3v-.2h-.4v-.2l-.1-.5v-.7l.1-.1.1-.4h-.5l-.2.2v1.2l.1.2-.1.2h-.2v.1l-.2.1v.2l-.2.1v.1l-.2.3-.2.3zM73 247.2h.3l.2.2v-.3l-.1-.1h.1l.2.1-.2.3h.5v-.3.3l.4.2v-.1l-.4-.3v-.2h.3v.1-.4h.3l.2.3v-.5h.2v-.3l.4-.1v-.1h.2v-.3l-.3.3H75v.1h-.2v-.1l.1-.2v-.4l-.1-.2v-.3h.5v-.1h.3l.1.2v.1l.1.2h.2v-.3l.2-.2h.1l.2-.1.2-.1.2-.3v-.1l-.3-.2-.1-.1v.1h-.3l-.2.2h-.1l-.1-.2h-.3l-.2-.2v-.2h.1v-.6l-.4.4v.8l-.5.1v.2H74l-.2.2v.1l-.3.2.2.1v.2h-.4l.4.2v.1h-.4v.2h.2v.2h-.3v.8zm.4-1v-.2zm0 .3v-.2h.2v.1h.1v.3h-.4zm38.2 15l.2.5v.6h.4v-.2l.1-.4h.5l.2.3v.7h.2l.5.8h-.4v.2h.7v.3h.6l.1.1h.3l.4.3h.1l.2-.1-.7-.8h-.4l-.3-.2-.3-.3-.1-.3.1-.2.3-.3-.2-.2h-.2v.3l-.1.1-.3.1-.2-.2v-.2l-.3-.2.2-.4v-.2h.4l.2-.3h.1v-.3h.4l.3-.1v-.4l-.4.1-.2-.1v.2l-.3.3h-.3l-.1-.1-.3-.3v.4l-.4.2-.1-.2v-.2l.3-.4v-.5l-.3-.2-.2.3v.3l.1.2v.2l-.1.1h-.1l-.3.2h-.2zm8.9-3.4h.2v.3h.3v.1l.3.1.2-.3v-.1l.1.2h1.4l.4-.2h.6l.3-.1h.4v-.1h.4l.1-.2v-.3h.3v-.1l-.3-.2v-.2l-.2-.2h-.6v-.6h-.3l-.1-.2-.1.2v.1l-.1.5v.2l-.4.3-.4.1v.1l-.1.3-.2-.2-.3.1h-.2l-.2.2h-.3l-.2-.1v-.1l-.3-.1h-.2l-.3.1v.1l-.2.2zm.4.1h.3v.2h-.3zm-37.2-3v.3H85v.3h.8l.1.1h.2l.5.3.2.2h.7v-.4l-.1-.2-.4.2-.3-.5h-.4l-.5-.5v-.1l.4-.4-.1-.1h-.6l-.2-.2v-.2l.4-.4-.1-.1H85v-.3l.2-.2.1-.2-.9.7.2.8-.2.2v.3l-.3.2h-.2zm-20.4-3l.2.1h.2l.1.3v.1l.2.2h.6v.1l.4.3v1.4l.2.2v1l-.2.1v1l-.3.1v.3l-.1.3v.6h.4v-.5l.1-.1v-.2l.3-.3h.3l-.4-.2v-.6l.4-.2v-.2l.2-.2-.1-.1v-.8l-.2-.2v-.1l-.1-.3h-.1l-.1-.3v-.1h.6-.5v-.7l.1-.3v-.1H65l-.3-.2-.2-.2v-.2l-.3-.2-.1-.2v-.5l-.1-.1v-.4l-.2.2-.1.1v.7l-.2.2-.2.1zm40.5 2.8h.3v.2l.2.3.2.2h.1l.4-.3.2.3-.2.2.1.4h.2l.3-.3h.2l.2.1h.7l.3-.1-.2-.2-.2-.2h-.2l-.2.1h-.2v-.3l-.3-.2-.5-.7v-.2l.3-.3-.3.1-.2.2v.2l-.2.3-.4-.3v-.2l.5-.3.1-.4.3-.2v-.4l-.3-.3h-.3l-.4.6h-.1v.1l-.3.6v.8zm8.7 14h.2l.1.2h.3l.4-.2h.3l.2-.3 1-.2.6-.5h.4l.5-.6.6-.3h.4l.6-.6v-.3h-.1l-.3-.2h-.2l-.8.8h-.5l-.3.4-.5.2h-.1l-.3.3-.4.3-.4.3h-.8l-.7-.3-.2.2v.2h.1v.2zM62 255l.3.4v.3l.2.2v1l.2.3-.3.2v.2h.2v.4l.4-.1v-.1l.2-.2v-.6l.2-.3v-.1l.4-.1v.2h.2v-.7h-.2v-.2h-.3v-.1l-.1-.3v-.9h-.3v-.5h.4-1.1v.3h-.1v.3l-.3.1v.3zm.4.5v-.2h.1v.4h-.1zm1.2.9v-.2zm20.7-5.9h.3v.2l.4-.1.3-.2.2-.3.2.2.1.3h.3v-.5l-.3-.1v-1.2l-.1-.2v-.3l.2-.4h-.4l-.1.1h-.2l-.3-.3-.3-.1v.1l.2.3-.5.3v.1h.1v.6l.1.3v.5zM66 253.9h1v.1h.6v.2h.6v-.6l-.2-.1v-.5h.5v-.4l.1-.1h.7l.2.1.1-.1.1.1h.3l-.3-.2H69v-.4h-.2l-.4-.2h-.2v.2H68l-.5-.4v-.3l-.1-.1v.2h-.3v.3l-.1.2v.5l.3.1h.2l-.3.3v.5l-.2.2v.1l-.3.2h-.4zm1.7-.9h.2v.2zm23-9.3l.3.2h.1v.1h.2l.2-.1h.2l.1-.3h.3l.1-.2h.4l-.2-.1v-.3h.3v-.2l.1-.1v-1l.2-.1v-.2l.3-.2.1-.1v-.2h-.6l-.4.4-.3.2-.1.1-.1.1v.3l-.3.2-.2.3v.5zm-8.7.5l.1.1v.4l.3.2v.3l-.1.1v.7l.2-.2h.1v.2l-.2.3h.6v-.3h.5l.2.2h.5v-.4h.1v.4h.3v-.2l-.2-.1-.2-.2v-.1l-.2-.2-.1-.1h-.2.1v-.3l-.4-.4v-.5l.1-.2-.1-.3h-.5v.5l-.4.3h-.2zm2 1.6v-.1l.1.1zm0 0"/><path d="m59.8 257.6v.1l.2.1v.5h.2l.1.2v.5h-.2v.4l-.1.1v.6h.3l.2-.2.3-.1.2-.2v-.3h.4v-.3l.4-.1v-.2l.4-.1v-.3l.3-.4v-.2h-.5l-.2.3h-.2l-.1-.1h-.1l-.2.1v.1l-.2.3h-.2v.1h-.4v-.2l-.1-.2v-.2h-.1v-.6h-.5zm48.2 14.4.2.4.2-.4h.2l.2.2.4-.5.6-.2.2-.2h.3l.2-.1.5-.4.4-.5v-.3h-.4l-.2.3-.3.1-.2.2h-1l-.3-.4v-.3h-.2v-.1l-.1.1-.1.4v.1l.1.3v.3l-.2.2v.4l-.5.1v.1zm1.5-1 .1-.2h.1l.1.2h-.2zm-16.8-22.5.3.3.2.4v.2l.1.2.4.2h.1l.2-.1h1.3l.1-.1v-.6h-.3l-.1-.1v-.2l-.2-.2h-.3l-.2.1v.2h.2v.5l-.2.2-.3-.2-.1-.3h-.1l-.2-.3v-.4l.4-.3-.3-.3h-.4l-.3.3-.2.4h-.1zm-9.4 21.6.2.2h.2v.2h-.1l-.2.4v.2l.4-.4.1-.1.5-.5h.1l.2-.2h-.3v-.2l.8-.6v-.4l.3-.1v-.3l-.1-.2-.3.1-.1.3-.4.1-.6.6-.2.2h-.3v.1l-.2.3zm-10.9-3.8.7.5h.3v.4l.1.3.1.3.5.4h.3l.1-.2-.5-.7h-.1l-.2-.2v-.2l.3-.1.3.1-.3-.2v-.3l.3-.4v-.2l-.1-.2-.4-.6-.3.3h-.4l.5.6v.4l-.3.2-.3-.3h-.4zm36.1-10.3h.2l.3-.4v-.1l.8-.7h.6l.2-.4-.1-.1.3-.3-.1-.1h-.2l-.3-.3h-.4l-.2.2-.6.5-.1.4v.5l-.1.2-.3.3zm-21-4.2.1.4h.1v.7h.3l.1.3.1-.2v-.2l.3-.3h.1v.2l.2.2.4-.3v-1.4l-.6-.2h-.1l-.2.3h-.2l-.2.1.2.2zm15-2 .5.4v1.4l.4.5.2.2.3.2v-.8l-.1-.3-.5-.4v-.3l.2-.3.3-.2v-.2l-.3-.3-.1-.2-.4-.1h-.3l-.2.2zm7.5 13.4.2.1v.5l.1.1v.2h.3l.2-.1.1-.3v-.1l-.1-.3v-.3h-.3v-.3l.3-.4v-1h-.3v-.3h-.2l.3-.3v-.4l-.3.2v.1l-.1.1v1.1l.2.1-.4.3v.6zm-41-6.2v.2l.3.1.1.2v.3h-.1v1l-.3.2h.6v-.5l.2-.3h.2v-.4h-.4v-.6h.4v-.2h.3l.2-.2.1-.1v-.4h.3v-.5h-.1l-.5.6v.1h-.2v-.1l-.1-.2-.2.1v.1l-.1.2-.3.1h-.3zm8.5-3.5.1.5h.1l.5-.3.2.5.2.1.4-.5h.3l.1-.2v-.4h-.4l-.3-.1v-.3h-.2v-.3h-.4v.5zm31.8 14.1.3.2.3-.5v-.5h.2l.3-.2v-.1l.1-.2v-.3l-.2-.4h-.7l-.1.3v1.1l-.2.3zm-19.6 11.1v.4l.2.5.1.2v.2l.2.2v-.1h.1l.2-.2h-.1v-.3h.3l.1-.2-.1-.2h-.3v-.2l-.1-.1v-.4l.2-.2v-.8h-.5l-.3.5v.1h.5l-.2.1v.1l-.4.3zm-2.2-20.5.3.4.4-.4.3.2.6-.4v-.2h-.3v-.5l.5-.1h.1v-.5l-.3-.2-.3-.4-.1.1.2.5v.6l-.2.3h-.2l-.2-.4-.3.2v.1l-.3.2-.2.1zm-18.6 9.3v.2l.5-.1.2.2v.3l1.1.1h.5v-.4l-.3-.4-.2.3h-.5l-.1-.3h-.3l-.3-.2h-.5l-.1.1zm18.4-22.5.2.1v.2h-.2v.3l.2.2v.2l.4.2h.1v-.2l.4.3h.1l.2.2h.3l.2-.1-.3-.4h-.2l-.2-.4-.2.1-.3-.2-.1-.4h-.3l-.2-.4zm-4.5 5.9.2.1v.4h.7l.3.6.2-.3v-.2h.1v-.3h-.5v-.2h-.3l-.1-.1v-.5l.1-.4v-.2l.1-.3-.4.2v.3h-.2v.5zm-7.6 3.8v.3l.4.2v.2l-.1.5.3.2h.1l.2-.2.4-.1v-.1h-.5v-1.5h-.6v.3zm29.3-7.7v.4l.4.2h.2l.2-.1v-.2l-.3-.3v-.2l.4-.3v-.1l.5-.5v-.1h-.6l-.1.2h-.4v.3l-.2.1v.3zm347.2-526 1.5 1.3-.9 1.5.1 1.2 2.3 5.2 1.3-1.6-1.4-2.2.8-1 1.2-1.4 1.9-.5-1 1.1.5 1.2-1.4 1.2v.5h.5l2.2-1.4-.3-1.7.7-1-.8-.9v-.6l.7-.2v.6l.2-.4.8.5h1l3.1 2.4-.1.7-.4-.5-.2.5v-1.2l-.6.5.3 1-.5.2 1.1.5-1.2 2.9-2.3 2.3-1.2.6-.2-.5.6-.4-.2-.7 1.4-1.2-1-.1.5-1.1.6-.6-.9-.4-.1 1.7-.7 1-1.6 1.8-1-.1v.7l-.6-.7 1.2-1.3.5-2-.2-.4-1 .6v-.8l-.6.5v1l-1.3 1.7 1.3 1.5v.8l.6.1-.9.8.1 1.1-.5.6-.2 1.4-4.1 3.2-.5 1.4.8 2.2-1.5 1.7.2.5-.6 1.2-.7.2-1.6 2.2-1.4.6-2.1 2-1.5.2-2.4 1-.3-.6.5-.6-.2-.3-4.5 3-.7-1h-1.1l-1.1-.7-1.3.4-1.5-.7-.8 1.4h1l-.3.4-.9.7-.6-.2-1.3 1.1-1.3.2-2.1 1.7-3.5.8h-3l-1.1.7 1.9 1 2.1-.7-.5.8-1.6.4-.6.6 1.7-.1.1.6h2l.9.8 1.6.4 1.5-.5v-1l-.9.4.5-.4.9.1 1.5-1.4 2.6-.3-.4-.3.6-1.2 2-1.4 1.2-.1.8-.7.8.5 2.2-.7 3.2-.2.5.6-.7.3-.8-.3-1.8 1.6h.5l-.2.2.7-.6h.8v.8l2.2-1.2-.8.7v.6h.6v-.3h1l1-2h.8l1.3.5-1.1 1.4-.9.1.4.7-.2.8 4.8-.3-.4-.7-2.2-.8.1-.4.2.4 1-.5-1.3-2 .2-.8.8.6h1l-1-1.4.3-.5 1.2.2v-.5l.5-.3h1.3l.2-.6h1.6l1.4-.7 1.2.4-.7-.8 1.7-.4v-.4h1.3l3.5-1.6.6-1.5h-.6l.5-.3.7-.6v.4l.7-.4.8.2v-.5l.3.2-.3.5-1.7.6-.3 1.4 1.3.9 1.6-.1-1 .6.4.8.7-.2.4.3v1l-.7.7 1.9-.8 1 .9-3.6 1.5.7.8-1 1-.6 1.2 1.1-.6 1.1.2 2.5-2-2 3.2-1.2 1-.2.9 1.8-.1-.3-.6.6-.6 3-1.9-1.9 2.5-1.1.2 1 .2-.5 1.4.9.2 1-.7h1l-.3.5 1.5.5v-.4l1.2-.5-.2.6.5-.5.4.2-.4.4.5.2-.3.6 1.5-.6v-.4l-1.2.1.3-.8-.4-.6.5-.4-.2-.8.4-.2v-.2l.6-.3v-.5h1.1l1 .7.9-.4 1.7-1.7 2.7.5.3 1.4-2 2.7-5.7 3.8-.2-1.8-.5.2-1 2.4-.7.5.7-1.2-.3-.3-1 1.8-.7-.1-.1-1-.7-.1.6-.6.6-2-.4.2v.6l-.6.2-.5 1.8.3.6-.3 3.1-1 1.5-1 .4-1.2 4h-.3l.4-.9-.5-.2-1.7 1.4-1.9.8-.4 1-2 2.1-.7 1.4-1.9 2v.7l-4.3 4.7-1.8-.2-1.2 1.3v1.3h.3l.3-.5.3.4.8-.3 1.9-1.3v-.7h1.1l.5-1.4 1.4-1-.6-.1 2.3-1.6 4.6-5.8 1.2-.7h.8l.6-.6 3.3.2-1-1.1.1-.7 2.1-1.6-1.7.7.8-.6-.2-.7 2.1-1.8 1.5-3-.2-.9 1-.9 3-2.3h.5v.8l.5-.5v.5l.9-.8-.2-.5 2.6-2.1.4-.1.9 1-.2.5 2-1.7 1.4-1.9 2 .5 2.5 1.4v.6h1l-.5 1-2.3 1.8-.8 2.2-5 3.5-1.2 2-.5.3.3.5.7-.2v.7l.6-.4-.2.6 1.2-1.2v-.8l2.2-1-.8-.2 2.4-2 1.2-.4-.3-.4.2-.5h.5l-.5.6 2.7-1.7.2-1-2.7 1.7v-.6l1.2-1.4 3.3-2.5.6.5-1.9 1.7v.5l.8-.1 2-1.6h1.1l.4.4-1.2 1.7v.7l-1.4.4-.4 3-1.4 1.3 2.4-1.4v.1l1.4-.5v-.3l1.1-.2v-.7l-1.5.6-.5-.6.3-.1v-.8l2.6-2 .6.2.6 1.6-.8.1-.9 1.2.7.3.5-1.2h.6l.4.4-1 1 .4.4-1.4 2.6-.7.3-2 2.2-.9-.2.4.9-.3.5 3-.3-1.3-.7 2.5-2.4 1.1-2.7.6-.4-.5 1.3.5.3 1.6-1.3h.5v-.4l1-.6-.2-.7.9-.2v-.9l.5-.3h.5l.2 1-.9.2 1 1.2-.8 1.8 1.6-.6v-.8h.4l.1.4 1.4-.4-1-.5-.3-2.7-.6 1.7-.4-1-.5-.2.3-2.5 1.6-2.4h-.6v-.5l1-.2v.3l.7-.7-.1-1.3.4-1.2 1.3-1.6h-.4l.6-1.3.5-.4-.6-1-.3.5-.1-.2 2-2 1 .1 1.6 1.4 1.8-.1-.6 3.8-2.5 4.4-.7.4.6 1.4-.8 2.6-1 1.2.3.3-.3.8-.7.8h-.7l.2-1.9-.6-.2-.6 1.9.3 1-1 .7-1.2 2.4-2.3 2.7h.9l.9-1.1 1-.1 1-.9-.3 1h.7v.9l.3.3.7-1.3v-2l.4-1.7 2-3.4 1-.6-.8.3 1-3.6 1.1-1.9 1.3-.6h-.7l-.3-.7.5-.7h.5l.3-1-.3-.4.1-1.1 1-.1h-.8v-.7l.2-1.7.7-.6-.4-.3.6-.1 1.9 1-.7 1.2-.2 2-.8 2 2.4-1.6.6-1.2h.6l1.2-.7 3.6 2.7 1.6.4 1.3 1 .2-.4.7 1 4.4 2.6.7 1h.5l-.4 3.2-.5.9h-.6l-.1 1.3 1.5-.6v-.9l1.2-1.9.9-.1.3 1.2 1 .7-2.1 1.6-.9.1 1.4.5 1.9-1.7h.6l.4 1.1-.4 1 .4 1.8.7.7.7-.7v.8l.4.2-.3 1.2-1 1.4v.5l1.5.5 1.2-.2-.2-.8.7-1 1 .3.3-.7.5.4.2-.7.5-.1.3.8-.5.6-.8-.6-.5.4.6 1.6-1 .4.6 1.2.4-.4.3.7.4-.7.4.5h-.4l-.4.9-.1-.6-.4.6-.8-.8.3 1.1-1.2.4-.7 2h-1.5l-.7 1.3-.7-.3.2-.9-1.8.6 1-1.7v-.7l1.1-1.1-.8-.6v-1.3l-1.7-.7-.9 1.5-1.6-.3-.6 1.8-2.4 2-1.4 2.3.8.8.1-1 1-1.3-.6 2.7-.4-.2-.2.7-.9.7-.3-.6h-.7l-2.4.7-.7-.1-2 .2-.4-.4.4-.5h-.6l.5-.6 4.9-4.8.3-.9-5.1 5-1.4.6-.8-.3v-.6l-1.6.1.9-2-1.5.8.9-1h-.6l1-.9 1.4-.3-1-.4-.8-1.3.3-1.1-1.4-.6-.5.8-.5-.1-1 .5-1.7-.5-2 .6v-1l-.6-.1.3-1-1.4-.2h-1l-1.4-.6-.2.6 1.2 1.3v1l1 .4.8-.2 1.2 2h1.1l-.8 2.4 3 .2 1.1-.4v.9l1.2-.7-.8 1.7.1 1.8 1.2-.7.8.6-5.9 6-1.7.1.2 1.1-2.5 2-.9-.3.2-1.6-1.5.8-1.3-.6-.6 1.2.6.5-.7.8 1-.3v.5l.9-.7v1.4l-1.7.4-.2.8-1.8 1-1 1.2-.7.8-1.2-.6-2.1 2h-1.2l-.2.4.3.7h1.9l1.9-1.5.8.6-.9 2-1 .7-.5 1.5-.4.4-.4-.4-2 1.8-.5 2.3.3.7 1-.5-.5 2.5.7.5v1.5l1 1.9v2.4l-2 1.3.5 1 1.6.1.5 1.7-.4 2.3-1.7 2.2 1.2 1.1-.2 2.2h.4l-.7 1-5.2 2h-1l-1-.7-2 .5-1.1-2 .7-1-.3-.6 1.2-1h1.1l.6-1.2 1.1-.9h-2l-1.2 1.4-2.1.7-.9.8-1.3-.2-1 .8h-1v-.8l-.5-.6 1-2.1 1.5-.8.9-.2 1.6.7 1-.3-2.7-1-1.9-.3-.2-.4.6-.4v-1l-.6.6-.7.2.1-.4-1 .5.3-.5 1.5-1.2h5.5l-.4-.5.7-1.3-.2-.7-2.3 1.2-1-.4-2.4 1-.3-.7-.2 1.3-.4-.1-1.7 1.4-1.4-.1.1 1-4.6 3.5-1.2-.6-1.6.2-.2-.3v-.7l1.4-1-.6-.8v-1.3h-.7l-1.5 1.4h-1l3.2-2.6v-.5h.8l-.2-.5.5-.5 7.7-4 .4-.6-.2-.6-.9-.4-1.5.8 1.4-2.4-.4-1.2.3-1 3-2.8.3-.9-.4-.1-.9.6-1.3.4 1.5-.9.2-.6 3.7-3.6v-.6l-1.1.2-1.3-1-1.4 1.5-.8.4-.6-.2-.7 1.3 1.3-.5.5.1v.2l-1.5 1.3v.7h.6l-3.2 2.7-.4 2.1-1.4 1.9h-.5v.7l-.8.9-1.4.9-.9-.2-2.1 1.2v.3h1.2l-2.3 2.3-.7.1-.4-1.2-1 1.5-1.5.3-1 1-1.4.6v-.6l-1.9-.8-.6.2-.3-.6h-1v-.6l-2 .1-3.4-2.2-2-2-2.4-1.4-5.7-4.4-4.3-4.4-1.2-.4-1.6-3-.8.7v1.5l3.1 4.4h.6l1.3 1.1 3.6 3.8.7.2.9 1.5h.7l.4 1.1.6.1v.4h.7l-.2.6.6-.3v.5l.2-.2.5.7h1l1.3 1.2 1.4.6-.2.6 1 .7h-.6l-.3 1 1.3-.6-.3-.4h.6l1.1.9.2-.4 1 .5.3.3-2.5 2-.7.2-.2-.6h-.7l.2.7 1 .4h2.5l.3-.7-.5.3.2-.8h-.6l.8-1h.6l.7.4-.4.6.4.4-.8.3v.4l.5-.2v.3l1.3-.9 1 .4-.2.5.8 1 2.3-.5.5 1.8.4.2-.4.7 1 .3-.2.7.7.6-.3.7.8 1-.2.5 1 1.2 1.8.5v1.2l.6 1.8.6.1 1.8 1.8 1.4.2.8 1.7 1.2.6 2.8-.3 1.2-.6-.6 1-.2 1.6.7.9-.6.8h2l-.3 1 1.3 1 2 .7.4.6-.1.5-.3-.3-.7.5h-.8l-.4-.8.2 1.3 4 3.5 1.1 1.8 1.9 1.2-.3 1 1 1.5 7.3 4.5.4 1.1 2.1 2.1.8 1.5 1.2.9.2 1.6.7 1.3.9.8.7-.1.6 1.6.7.7 1.7.5.6 1.4 1.4-.1v.7l1 .6.2.6 1.3.2 3.3 2.8.3.9h-.9l-.4.9v1.5l-.2.5.2 1.1-.5.7 1 .6-.5.4 1.3.7-1.4 1.3-.2-.4-1.4.7-1.4 2-.7.6v.2l-.6 1.1.6 1 2 .5.4 1-.3 1 .2.9-.6.9h-2l-.1.7 1.8 2.6-.4-.2.3 1-.8.7 1.2.7.6.7 3.2-.2 1.3-.6.2-.5.2.6 1.4-.4 1.4 1.6.3 1.8.9 1 .4 2.7 2 4.5v.6l-.7.6.2.6-3.5.7.6 1.5.8.6v.6l-.3-.3-.2.3.6.7-.5.2.4.4-.2 1h.4l-.2 1.1-1.6.4.2-1-2.6 2.1h.8v.7l.6.2 1.6-.7-.3-.2.2-.5 2.1 1.2 1-.1 1.4-.8 2 .2.5 1 1.3.5 1 2.1 1.7 1 .3.4 2 .9.8 2 1 .6-.2.8 1 .9-1.1.6h-.7v1.9l-.8-.3-.6.8-1.1.2-.3.7.5.9-.7 2.5 1 .8.8-.7v-.5l1.9.1 2.2 1.7.5 1-.3 1-1.1.2-1 .8-.4-.4-.8.3-.2-.7-1-.3-.3.5h-1.2l-.9 1-.7-.6-.5-1.4h-.6l-.2.7-1.5.7-1.7 3.4-.8-.2-.6 1h-1.4l-.5 1h-.4l.2.2-1.2 2.7-.8.6v.5l1-.2 1 1.1 1-.1-.3 1h-.7v.5l2.1.4.7-1.9.7-.5-1-.3.6-.6.2-1.2 1.7-1-.2-.6.6-1 1.6-.3.3-1.3.7-.4.5.6v-.6l1.6-.4.4 1 .8.1.2-1.2.5-.6.8-.5-.5.9.3.1 1.4-1.2-.6 1.1 1.1 1.1h-.7l.2.7-.4 1-.3-1.1-1 .4-.6-.7-.2.4.3.5h1.4l.1 3.4-.5.9.4.7-.3.3.5.3-.6.9v1l.1.4.8.3-.8.9-1.9.2.6.9-.7 1.3.4 1-1.4.7 1 .2.7-.4.3 1-.4.1-.6-.3-1 1.1-1-.4v.8h-.4v-.5h-.5l.2-.4h1.6l.2-.4-.2-.4-.9.4-.8-.7.4-1h-.7l-.3 2.1.3 2-.3 1.9 1-.3-1 1.5-.6.2v-1l-.7.6-.9 3.5.4.4-.2 1.4.8.5 1.2-.4.4.3-.2.4.3.4-.5-.2-.2.5v1l-.8.4 1.1 1 .4 1.7 1 .8.7-.2.3-1.4 1.2.6-.2.7-.7.6v2.1l.3.6-.2.2v2.4l-.7 1 .5 1.9-.7 1.5-.9.8.3.4-.6.8.4 1.4-.5.4.2 1h48.4v-10.7l-1 1.9-.6-.7.3-1.4h-.5l.5-.7h1.3v-8.4h-.6l.6-.2v-1.1l-1 .7-.5-.4.2-2h-.4l-.5.7-.5-.1.7-1-1-1.9.5-2.1-.5-.2.9-1.4-.8-.3-.7.5-.2-.4 1.3-3.3.8-1.8.8.4.8-1.1-1.2-1.9.5-1.4h-.7l-.1-.4.7-1 .2-1.9.7-1.3v-7l-.3.2-.3-.5-.3 1.4-.7.6h-.8l-.2-3.8 1 .2 1.3-.7h.3v-.3l-1-.2-.2-.7v-.9l-.6.2.5-2.9 1.3-1.1v-9.8l-1 .2-.3.6-1.1.9.3 1-.5 1 .9 3.3-.6.3-.3.9h-.7v-.3l-1 1.3-.9-.6v-1l.8-1.1 1.1.9.3-.6-.6-1.2.2-.9.8-.8-.3-1.7.4-.6-1.4-.2-.3.4-.7-.1.2-.9.4.1-.2-.5-.3-.7.5-1.2 1.2-1.3-.5-.8-.3.1.4-.7.7 2 .2-.3.2.2-.4.5h.7l-.2-1.5.3-.4.1.6 1.2-1.5.7-.2v-8h-1.1l-1.6.4-.6-.4.3-3.6-.2-1 .5-.7.5 1.3 1.4 1.2-1-3.3.5-.6-.2-1.3.9-.3.1-.5.5.2v-23.4h-.9l-.7.8h-.8l.4-.4v-.5h-1.3l2.4-1.4-2.2.3-.8-.4-1-3.6-1.2-2.4v-2l-.8-1.4-.1-2.3.2-1.5.3.1-.4-.6.1-.7 1.2-1 .1 1.4.2-.9 1-1.4 2.8 2.1-.4 1.3 1 .9.2 1.8-.9 2.8h.3l.7-1.5.6-.5v-155h-101.6l-.3 1.2-.7.8-.5-.2.4-1v-.8l-.2.3.2-.3h-1.3l-1.3 3-1.8.3-2-.5-1.2-1.7h-.4l-.6-.3-.6.1-1-.7v-.2zm106 174.7-.2-.5-.2.3-.3-.3 2.2-3 .2-.7-.4.2-.3-1h.4v-1.1l1.3 2.6-.3 2.4 1.2-1.2.6.4-.3 1.8.4 1-.5.9-2.1.5-.8-.5.6-2-1 .1-.4.7zm-18.5-25.3.5-.9 1-.1.6 1.4-.6 1.6-1.4-.9zm23.4 22 .2-1.3.5.6h1.1l.6 2.3-.2.7-.5-1-.6.9h-.7zm-19.1-12.1.1-.7 1.6.4-.2-.5h-.4l.4-.3-.5-.6.5-.7 1.5.7.1 1.2-1 .3.6.9-1.2.4-.6 1.3zm24 1.4-1.5-2.2v-1.1l1.1-2h.8l.3-.3.8.7.2 1.8-.2.9-.7-.1-.1.6.1 3.1-.4 1.9.6.3h-1l.5.6-.7 1.6-.3-.7.6-.5h-.6l-.4-1.3.7-.4-.3-.6.4-.4-.3-1 .9-.4zm-24.7-13 .6-.9.6 1.2-.4 1.4-.6.6-.4-.2-.1-.8zm31.4 57.3.8-.2h.7v.2h.7l-.4 1.3.3-.3.3-.1-1.8 1.1zm-.5 23.5.3-.3.2 1.3-.6.5zm-14.7-37v-1.6l.3-.4h.5v-.5l1-.7-.1.9.2 1.2 1.2 2-.3 1.6-.5.2-1.7-1.6-.8.4zm7.5 4.2-1-.9-.7.4 1-2.8h-.6l-.2-.7.3-1.3.3.4-.2-1.2.6-.6h.2v-.4l.5-.2-.5 2.4.3 1 1.5-3-.2 1.1.7.1-.1-.9.4-.6.9.3-.2-.6 1.3.1.8-.7.4.7-.4 1.4.9.2.3-1.9 1.6-.3-.3 1.5-.8 1 .2 2.2-1 3.8-.7.3-.8-.2-.7 1-.7.2zm9.5-14 .6.2-.6.4-.3-.3zm-7.6-1.3.2-.4.6-.5-.4 1.8h-.4zm-6 5.8.6-.6.2.4v-1l1-.5.1.3.4-.8 1.3.3.4.9.7-.2-.4 1.6-.6.4-.3-.6-.2.7-.6-.3-.6.8-.6-.4v.4l-1.3.3-.4-.9.9-.6zm3-5 .2-.7-.1-.7.5-.2-.2.7.9-.5v1.6l-.5 1.3-.9.9-.9.1v.5h-.2l.1-.4h-.4l-.3-1.1-.2 1-.4.3-.3-1 1.3-.5.2.3-.3.4.7.3-.2-.9.6-.3zm5 1.6v-.8h.8l.1-.8v1.1l.4.4v-1.6l3.2.3-.8 3.4.2.2-1 1.5h-1.3l-.2-.3.3-1-.4-1.2-.4.6h-.7l.6 1.1-.2.5-1 .4-1-.1.2-1-.6-.5v-.7l.6-.2v.9h.9l-.1-1zm4.9-2.4.7-.5h.2l-.4.8h-.6zm-2.8-.7-.3-.3.3-.7 1-.5.5.6.2 1.6-.7.6-1.5-.3 1-1zm2.4-.4.1-.8 1.2-.5.2.7-.7 1.1-.6.2zm-24-23.5.3-.4.2.6.2-.5-.8-1.3-.2-2 1.2-1-.8-2.1 1-.7.3.4.4-.8-.4-.9.5-1.8-.4-.7.2-.6.3.5.1-.6.3-1.2 1 .3-.5 1v.4l.5-.4-.3 3 .2.2.4-.4-.2 1.2.6-.5-.6 1.5-.9.7.5.4.4-.7h.4l-.2.8-1.3 1-.1 2 .8-.6 1.4-2.3v2l1.1-3 .9.3.6-.3.4-.9.2.7.1-.5.4.2.6-5.4 1.5-.1 1 .3.2.7.3-.3-.3 4.9-.4.1-.2-.3.4-1.3h-.3l-.7 1.9-.4-.7-.2 1-.6-.4-.4.8.4.4.9-.3-.4 1.6.7-1.4 1.2-.1-.3 3 .6.2.8-.9 1.4 2.8-.2 3.3 1.5 4.9-1 1.1.2 1.6-1.1.5.6.6 1-.7v.4l1.1.5-.5.6h-.3l-.5 2-2-.1v-.4l-.4-.2-.8-1.2-.4 1.1h-.4l.7-2.4-.7-.5-.3.4v-.6l1.1.2v-1.1l.7.2.7-.8-1.3-1.4-.6-1.8-.5.2.3 1.6-.4.7h-1.8l-1.7 2.5-1.8-.5.5-.4h1v-.3h-.9l.6-.8h-1.7v.5l-.5.3-.8-1.3-1.1-.1-1-2.5.6-1.4-.4-1-.6-.1v-1.2l-.6-.5zm6.1-11.2 1-1.6.3 4-.1 1.7-.2.3-.6-.3.5-1.5-1.3 1-1-.6.2-1.4.5-.1zm1.3-2.6-.5-.6.6-2.1h1l1.7 1.2 1.9-.2v.3l.8.2-.1.2.7.2-.5 1.8v-.7l-.9.7h-1.7l-1.3-.8-.6.4zm-1.3-1.8.3-.9.5-.1-.4 2-.4-.5zm-26.2-7.6-.6-.8v.6h-.3v-.6l-.7.3.6-.6.2-.8 1.5-.2.9.4.8-.2.4.5-.4 2-1-.4-.6.7zm20.4-1.3.2-.5h.5l-.1-.3-.4.1.2-.4.4.5h1l.4 1.9-1 .6-1.3-1.2zm-49.5 10.4-.3-1.3 1.2-.7-.2-.4h-.4v-.5l1-.3-1-.6-.9.4-.7-1 1.5-1.6 1.4.7.6-.2 1.3.4 1.5 1h1.3l1 1.2 1.3-1.2v-.6l-.5-.3 1-.2v-.7l.9.5-1-1 1.3-.7 1.7 2.8-.4 2 .8.1-1.1 2.3 1.1-1 .5.1-1 2.3.3-.7-.9.2v.9l-1.4-1 1.3 2.8h-1.5l-.5.3h-.7l-.8 1-1.1-.4.6-1.3h.4l-.7-1-.6.5-3-.3-2.2-.8zm21.6-3.8.1-1.4 1.3 2.7-.2.8-.5-.6.1-.8h-.5zm33-6.4.9-.1-.5 2.8.5-.8.5.6v-.3l.6.3-1.3 3.4-.4-.5.2-1.4-.5-.6-.5.4v-.7l-.8-.6zm-62.3 1.7 1.4-1.2 2.3-.4.8.7 2.3.5.5.7v1.2l-1 .8-1.1-.5h-3.3l-1.3-.6v-1zm-22.5-18.3.3-.9-.8-.5.4-.8-.3-1 .3-.5.6.4.6-.6h1l1.3 1.3.2.8.9.1 1 1 1 .3-.3 1 .9-.4 1.2.5.5 1.4-1.4 1.7-2.3.7-1.4-.2-.7.4-.4-1.2-1.1-1 .4-.7-.2-.7-.9-.1zm20.8 2.6.9-1.5.8-.4.6-1 1.4-.1-1.9 3.5-1.7.5zm50-1.8.5-.5h-.8l.8-1.2-.4.4-.6-.5-.5.8-.5-.1.2-1.6.5-.4 2.2-.2 2.1 1.1.2-.5-.5-.7 1.2-.3h.4l-.1.7.5-.3-.5 1.8-.6.1.8 1.3v1l-1.7.6-.3.8-2.4-.5zm-50.5 13.3.3-1.1-.2-.8 1.1-.8 1-.1 1.3 1-2.1 1.9-1.5.7zm-7.9-4.1.7.4 1.5-.8.6.4-2.2 2.6-.6-.1v-.6l-.7-.4-1 .2 1-1v-.4zm71.4.4.8-.5-.4-.8h.4l.3-1 1.6-.9-.1-1.3.3-.4 2.6 3v.6h1l-.3-1.4-.6-.4.6-.4.3-1.5-.4-.1-1 1.1-.1-.6.5-1-.4-.6h.8v.4l.4-.5.8.8-.1-.4h.8v-.2l.4 1.3.3-.2.6.7.3-.3.3.3.6 3.4.8 2-.2 1.6-.6-.3-.4.2.8 2.8 1 .5-.3.4.6-.2v1.3l-.5-.2v1l.6.5-.2 1.4 1 1.2-.3 1.1h-.9l-1.6 1.1-1.8-1.8h-.3l-.6-3.5.7-2.9-.4-.9-.6.1-.4.8-.7-1.6-.7.3.3 1.2-.6-.6.2 2.3-.3 1.2h-.4l-.2-.5.7-1.4-.5-1.5-.3.1.2 1.6-.6.6-.5-.7.3-.9h-.7l.2-.5-.8.3v-1.2l-.6.4-1-1.1-.5-.7.3-.7h.7l.5-.5-.7-1.5-.4.5zm-53.5 5-.5-.3.2-.9.3.3.8-.4.4-1 .4.5-.4.6 1 .5.8-1h.5l.1.5 1.4.6 1.8.3.8-.4.8 2.8-.4 1-1.3.2-.4.8-1.3.7-1.8-.1-2-1.4-.8-1.1-.4.1h-.4l.5-.2-.4-1.2 1-.7zm32.1-.3.3-.6 2.5-.3 1.2-.8-.2-.7.7.6-.2 1.1h-.9l.5 1-.9 3.1-.7.9h-.2l.2-1.1h-1.8l.7-.3-.9-1.1.4-1.2zm1.2-4.8.9-.5-.3-.6-.3.3v-.2l.6-.8 1.2.7-.4 2 .8 1-.8-.3-.2 1.2-.5.4-1 .1.2-1.8-.3-1zm-50-7.1-.7-1.2.9-.1 1 1.2-.2 1.2h-.8zm-1.3 6.7-.2-.1.4-.5.7-.2.3.2v.4zm11.1-4.1 1.5-2.8 1.9-1 .6-.9 1-.3 1.4-1.2.3-.1-.2 2.6.6.7h1.3l.9-1.7.4-.1-.6 2-1 .9-.7 1.9-3 3.3-1.2.2-1.1-1.8-1.1 1h-2.1l-.1-1.1.8-.3-.3-.8zm68.5-70.7-.1-1.9.4-.5.4.6.9-.8 1.2 2.3-.2 2.4-.7.4-.9-.5-.8-.9zm-5.9-1.3.2-.9.6-.2.1 1.4-.4 2v-.7l-.7.2zm-9-1.5 1.2-2 .4 1.8.6-.3.3.8-.5 1-1-.2-.1-1.1-.2.5zm9.3-4 .3-.5-.5.3-.1-.7.8-1.3.6-.1-.4.5h.5v1l.3-.4h.3l-1 1.5h-.8zm-.8-1v-.7l.3-.1-.6 1.2zm-25.5-3.6h1.5l.5.7.7-.4.5 2.3-.9.3-.5-1-.7.4-1.6-1.1zm15.3-.9 1.2-1.7h.4v1.9l-1.2 1.1v.7l-.5.2zm-.1 6.3v-.5l-.4-.2-.3-.5.5-1.2 1-.6.2.4.5-.4h.6l.2 1.4.6-.3.2.5-.8.9-.4-.2.2-.9-.8.7v2.2l-.2.4-.5-.2-.5 1.2-1-.8zm-1.3-2.5 1-1-.4 1.5-.4.4h-.8l-.8 2.4-1 1-.6-1 .3-1.1 1.1-1.9h.8l.3.2zm-9.6.2-.6-1.6.6-.6 1-.2-2-1.1v-.5l.4-.7.7-.7-.6-.2.5-.6h.5l.6.8 1-2.9.3.2.5 1.5-.3 1.9-.5.2.4 1.5-.3.8 1 .6 2-.4.2.8.8-.6v.3l1-.2.3.8-.6.6-.2 1-2.4 2.4-1.2-.5-.5-1.5-.4.2.2-.4h-.8l.4-1.2-.5.2.1-.8zm9 0 .5-.4-.3-.3.4-.6v1zm-47.2-4.7-.4.2-.5-.1.9-.7zm-43-8.8 1-1 1.4.2-.8-.6 2.1-1.6-1.2 2 1.5-1.2.6.1-.4 2-1.5.9h-2.3zm78.4-5.6.3-.3-.3 1.3-.4-.3zm-38.3 0 .4-.6 1.5.2-.7 1.1-1.2.5v-.8l.3-.3zm56.1 11.6.4-.2 1 .6.5.8-1.6.6-.4 1h.4v.5l-1.1-.9zm-4 1 .2-.8.7-.4.1 1-.5.8h-.5zm-75.4-3.3-.2-.6 1-2.1 2.3-1.8 1.4-.4.1-.5 2.3-2.2 1-.2.5 1.7-.4.5h.3l-.4 1h-.8l-.2.2 1.6 1.1-.9 1.6-2.8.7-3.4 2.2h-1.2l.4-.9zm9.8-3.7.7-.5-.1 1.3-1.2.2zm23.4 2.6 2.4.2-.4.9 1.7-1-2 2.3.4.2-.4.2-.1 1.2-1 .4v.6l.3.4-.6 2.8-.9.5v-.8l-.7-.3-.2.9.6 1.6-.1.7-.8.3-.1-.6-.7 1.9-1 .8h-.4l-.4.8-.6-.9-1.6.3.6-1.9 1.6-1.3-1 .4-.5-.3-1.3 1.7-.6-.7.2-.6 1.8-1-.6.2.3-.5-1 .8-.6-.3 1.3-1v-.8h-.4l3-2.2.9-.7.1-.8-4.8 3.7-.8-.7 2.4-1.4v-.6l.4.2.3-.6-.5-.3.2-.5 1.3-.7.5-1 .6-.1v-.6l-1.1.2 1.6-1.6v.4l.6-.3-.2.7 1.2-1.3.2.3zm-17.4 5.2.9-1.4.4.2v1l.9-.7.7.4v-.7l1.3-1.4-.2 1.6.4.1-.3.9.3.4 1.5-1.7.7-.4.2.2.3-1.2.6-.5 1-.5.3.3v-.9l1.3-1.3-.8.4-.1-.4-1 1.3-2.8 1.3v-.9l1.4-.5v-1l2-1.4.6.2v1l1.5-1.1 1.3-.3.6-1.5-1 .8-.9-1.4 1.1-1.3 1.5.4-.3 1.6.5.1-.8.8.3 1.2-.9 1-2.2 1.6-.5.3-.6-.2.2 1 .6-.3-.3.8-.6-.3-1 .8 1-.8-.9-.1-.8 1.3-1.2.8h-.4l.7-.6.3-.6-1.6 1.4v.5l-.8.7-.4-.3.3.6-.5.7 1.3-.8v.1l-1.3 1.3 1.6-1-.4.4.3 1.4-1.5.8-.7-1.2.5-.4-1.3.4v-.7l-.9.3-1.4-.3.9-1.8-1.7 1.3v-1zm65-4.1 1.8-1.3.3 1.2.4-.3.8 2-1 .5-2.1-.5-.7-.5zm-23 3 .7-1.5h-1.3l1.8-1.8h1.3l-.3 5.1-2.3-.3-.2-1zm-6.9-2.9.5-.6 1.5 3.4-.3-.4-.4.3-.2-.7-.4.4-.5-.2-1.2-1v-.6zm2.7-2.2 1-1v1.2l.4.9.6-.7-.6-1.3.5-.4-.2-.7.3-.6.8.2.3-.4v.6h-.4l.3 2.4-1 2.2-.5-.2-.7.5-.1-.5-.8-.2-.2-1.2.5-.2zm-39-2 .6-.5h1l.4.4-.4.7-1.1.2-.5.7-1 .2-.7-.4-.2.8-1.1.3-.2-.5 1.2-.8.2-.6zm63.6-1.1.1-.7 2-1 1.3.8-1.7 3.7-.8 1-1 .2-.6-1.3zm3.5-3.7 1 .3-1.1 2-.2-1zm-10.7 3 1-1.1-1.4-.2.7-1 .5-3.5h.4l.5 3.4v2.4l.9-.2-.1-1.1 1.1-.7.3-.5-.3-.2 1-1.3.2 1h-.5l-.3.4.6.2 1.4 7.8-1.3.4-2-.4.1.7 1.8.8-1.4 1.7-.5.4v-.8h-.5l-.4 1-.7-.2-.3.5-.2-.6h-.7l-.5-1-.8.1v-2.5l1.7-.8v-.6h-.7v-.8l-.3-.3.7-.3v-1.2l.8-.8zm-51 .4 1-.4-.1 1.2-.4-.2-1.1 1.2zm-7.8.4.9-1.3.9.5-1 1.2h-.9zm-3.6-3 1.2-.8.2.3 1.6-.2.7.4-1.5 2.5-1.5-.8v-.9h-.7zm35.4 1.7-.6.1-1-.8.2-.8 1.2-1.3.4.5-.4.3h.3l1-1.2.1 1.2v-.8l.6-.2v.7l-.6.7.2.4h-.8zm24-3 .6-1.8 1.1.4-.1-.8.6-.5.5 1.8-.3 1.4h-.5v1.4l-.5-.1.4-.4-.2-.4h-1.5l.3-.5zm-59.4-14.7.4-.8 1-.2.6 1 .3-.3-.7 1.2h-1.2zm-5-1.8 1-1 .2 1-.7.5-.5-.2zm58.3 14.3.7-1 .3.4-.4 1.3.7-.3-.2.6.4.4-.5 1.8-.8-.4zm-43.7.3.2-1 .6 2.5-1.4.5-.8-1.8-.2.2-.6-.7 1.6-.3.2.6zm23.2.7 1.2-1.4 1.3 1.4-1.3 1.5-1 .2-.5-.5zm11.2 1.4-.4-.4 2-2 .5.4.3-.7-.4-.4.7-.6.2.6-.4.3.5.6-.5.8.2 1.5-.5.5-1.2.2zm-51.4-7.3.2-.5h.6l.6 1.1.2 1.7.4.3.4-.5v.4l.7-.3.3 1.1.2-.1.4.4.3-1.4-.5-.2-.7-1.2-1.3-1.2-.5-1.3.5-1.3 1-.4-.2-.5h1.4l.6 1.2 1.8.8.5.8.3 4.5-1.6 1.6.2-1.2-.5.2-.4-1-.5.3-.5 2.6-1.7 2.5.8.2 1.9-1.1h.5l-.3 1.1-2.4 2-2.6.8.9.4-2.1 2.6-1.8 1.3-1-.1-.5.8-.8.1-.4-.5v-.6l-.9.2v-.5l-.9-.8v-.5l.8-.8 2.5-.6-.4-.3 2.6-2.2-1.7.5-.9-1.1-.8 1.2.7.7-1.1.7-1.8.4-.7-.5-.4.5-1 .3-1-.6 2.1-1.4.9-.1v-1.4l-1-.3.5-.7-.8-1.2 2-1.5v-1.4l.6-.4-.3-.5.7-1.6-.1-1.5 1.3-1h1.1v1.3l-.6 1-.6-.2.1.8 1.2-.4.5-.6-.1-.8.5.7.6-.7.2.6.5-.5-.3 1 1 .2zm32.4 7.4.8-1.1-.4.4-.2-.3.8-.7h2.2l-.2.3 1 .3v-.4l-.4-.7.7-.8-.1.4h.4l.2.3-.2.8 2 2.2v1.3l-.8.7-1.1-.7-.2.4-.7.4-1.8-1.3-1 .5-1.3-.8zm27.3-1.7-.1-.5.8-.5v1.7zm-41-2.3.1-.2 1.1.6v1.1l-.2.8-.5.2-.3-.3-.5.8v-2.4zm40.2.7 1.1-.8.4 1-1.2.7.3-.3zm-69.3.5-.2-1 .4-.1.6.9-.6 1.2h-.8zm5.8-14.6.6-.3.7.9.6-.4 1.1.8-1.5 2 .5.6-.4 1 .6.2v.5l-1 .4v-.2l.4-.6-.4.2v-.4l-.9.6-.5-.4-.8.5.2.6-1 .4-1.6-.4-.5.6h-2l-.6-.7 1.2-1.7 1.3-1v-1l2.8-1.6v.5l.8-.2zm-8.3 13.3.8-.7.6.2-.5 1.5zm75 0 .7-1.6.6-.1 1-1.2v1.2l-.9 1v.3l.5-.3v1l-.6.5.6-.2-.1.3-.9.4zm-70.9-.7-.1-.3.3.6 1 .3-.9 1.6-1.4-1.2zm56.2 1.6.8-.7.3-1.6.9 1 .5-.7 1 .7-.6 1.4h-.6l-.1-.6h-.4l-.6.9-.6-.2.4-.6h-.4l-.3.8zm-1.3-1.9.3-1 .4.4.4-.5.8 1-.6 1.2-1 .2v.5zm-38-.7.7-1.6.6.7v1.9l-.8 1.3-.7-1.4zm35.2-1.4 1.3.2v1.3l-.4-.1-.2.4-.8-.3-1 1-.8-.5.3-.6 1-1 .4.3zm-20.7 1.4.4-.8 1.8-.2.2.9-1.3 2-1.3-.9zm-8 .5-1-.9 1.3-1 1.8.9-1.3 1.6zm43.3-2.6.8.3-.3-1.2.8-.8-.5-.4.2-1h.5l-.2.3.4-.1.8.8.6-.4.4-.9v1.2l1-.5.4 1.2.1-.5.3.3-.3 1.1.5-.6.5.7-1.2 2.2-.6-.4.7-1.9-.2-.8-.7 2-.4-.2v-.5l-.6.1-.5-.6-.2 1.4h-1v.4l-.7-.8-.4 1.3.1.6.7-1 1 1.8-.4.3-.9.2v-.7l-.5-.2-.1.3-.3-.3.3-1-.6.1.1-.7.1.5.3-.1zm-8.6 0 1-1.3h.3l.3 2.1-.5-.4-.5 1-.6-.7h-.7zm-57.2 1.3 1-.9-.2 1.8-.5 1-.6-1.1zm16.7-1.3v-.5h-1l-.4-.7h-.3l.3-.3.8.3v-1l1-1 3.1.9 1.5 1.8-.9 2.2-1 1.4h-.9l-.3-.8h-.3v-.6zm-9 .6-.4.3-.5-.4-.1-.4.4-.2-.6-.4.4-.7.2 1 .5-.4.4.1zm42.6 55 .5-1.3 3.2-2.5 1-.2.4.6-.1.8.2.1-2.4 1.8-1.8-.2.4.7.5.1-.8.8h-.8zm31-15.5.3-.8.5-.2-.2.7.5-.7-.5 2-.8 1.2v-1.1l-.3.3zm17.2 19 1.4-1.3 2.8-1-.3 1 .4 2-1.3 1.4h-.9l-1-.4-.4.2zm1.8-2.4.7-1.8h.9l.1.6h.5l-.1 1.1-1.4.5h-.5zm-5-5.2 1.3-1.7.2-1.5.5-.7.4.6-.4 1 .3.5-.3.9 1.4-1.3.7.6.6-.2v.7l.6-.3v2.5l-.5 1h-.7l-.2.3.6.7v1.5l-.6-.2v.4h-.5l-.4.8-.7-.3-1-2.7-.6.3-.4-.3.4-.8 1.4.5v-.4l-2.4-1.3zm-14-8.6.7-1 .6-.4-.7 4.1-.8 1.7-1-.5.5.7-.4-.3-.9.9-1-.6v1l-.6-.3-.1.7-1-.2-.3.9-2 .1v.4l-1.8 1.2 1-2.1 3.6-2.4.1-.4-.4-.2.5-.4 2 .7-.5-1.8 1.2-.8.2.3.3-1zm6.9.2.9-.9 1.2.5-.3 3.4-1.3.7v-.5h-.7l.3-1.4-.8-.6zm-23.2 26.4-.7-.9-1 .4-.4-.8.4-.7-1.1-.2.6-.7-.3-1.5.3-.7-2 2.2 1-1.7 1.8-1 1.4-2 1.5-.4.3-.6-.4-.2 1.6-1.6h.7v.6l-1.9 2 2-1.2.2.4 1-1.5.3.1v.6l1-.6.7.2 1.5-1 .5-.6h1l.5-.9-.4-.3.7-.8-.4-.4.1-.6 2.6-3.4v-.5l-1-.3-.1 1.2-1.7.3 1-.8-.4-.2h.6v-.5l.8-.5h.9v-.5l2.6-.1-.6-.7.5-.5-.1.5.6 1-.2.4-.3-.2-.2 1.4 1-1.6 2.1-1v-1l.7-1.4v-1.6l.4-.3.2 2.5.4-.4.3.7h.5l.2 1-.7-.3.3.9-.6.2.2.7-.9 2 .8-.3.8-1v.3l.5-.2.1 1.4.8-1.2v.9l.3-.2.2.5-.4 2.2.7 2.1-.1 1.2-.5 1-1.2.7.7.2 1.4-1.2h.8l.5.6.9-.8.5 1.4-.3 1-1.5-.3v.7l-1.5.3 2.5.4 2.4-1-1-1.9.4-.6-.9-2.2.4-2.4-2.4-.2v-1l-.4.4v-.7l.4-1.3-1.2.4 1-1.6.5.2-.1 1 1.4.4-1.1-1.5.1-.8 1.2-3.2 1.2-1h.7l.5 1 .2 2-.1.7-.6.4-.4.9-.5 3.3.4-.5v.7l1.3-.8.5.2 1.9 6.1-.6 1.4-1.3.1-.4-.4-.4.5.4.5-1.7.4.9.7.9-.5 1 .3-.3 1.8 1.5-1.5 1.8.5 1.1.7-1 3.1-.4.3.3 4.5-.9 1.3h-.8l-.8 2.4-1.5-.6-1.2 1.5v.6l-.8.1.6.6-.9.4.4.6-.2 1.5h-.8l-.1.8h.3l-.4.9-.2-.7-1 1.1-.6 2.4v1l-.6.6.6.5-.5 1 .4 1.4.5-.2 1 .9-.8 1-.3-.4-.3 1.3-1.3.3-1.2 2.2-1.5 1h1l1.3-1.2 1.1-.4-.1.8-.5.2v1.3l-1.4.2 1.6.6-1.2 1.1-.1-.4-.8.4v1.3l-1.1 1 .2.4-.4-.3-1.2.3-.6-.4.4-1.2-.8.7.2-1.7 1-.8.6-1.4-.4-.1-2.5 2-1.3-.2-.4-1.1-.8.3-.1.7h-1.1l-.7-.7-.6.6-.5-1.3-.6-.5-.8.2.6-.9 1 .2.2-.5-2.1-.9-.4.5.6.2-.3.4-.4-.6-1 .2.6-1-.6-.6 1-1.6-.6-.4 1.1-1.5-.1-.5-.7.4-.6-.7 1-2.7v-.6l-.2-.4-1.1.1-.2.4-.8.2v-.7l-.7-.2-1.7 1.3-.7-.2.2-1.2 1-1-.5-.4-1 .5-.9-.4.4-.7-.4-.7-1-.7-.1-2 1-1.3-1-.4-.9 1.8.2-.7-.5-.1.6-2.3.6-.7h.7l.3-.6-1.2-1.3-.4.9h.4l.2.7h-.6l-.2-.5-.8 2.4-1.4 1.2-1.4-4.2.9-1.7.5-.1.3-1 .6-.3 2.5.3-.1-.4-.8-.2v-.6zm-8 1.6 1 1 .2 1.2 1.1.8.6 1 1.4 4.8v3.2l-.3 1.8-1.1 2.2-1.3 1.3 2.1-.9.6-1-1.4 1 2-2.6-.4 1.5 1-.7 1 3.4 1.3-.3-.8-.4.1-.5.4.4.6-.6 1.4.2.5.2-.2 1 .6 1 1-.6.6 1-1.2-.2 1.3 2.1-.7.7-.7-.6-.3.8 1.7 1.2-.1 1.6-.7-.5-.2 1.5-.8-.4-.8 1.3-1.7.6 1 1-.4.4-.4-.2.3-.2-.5-.7-.5.7.4 1.1h-1.1l-.4-.6-.2.2 1.8 2.5.4-.4-.4-.3.3-.4-.3-.8.4-.4-.3-.2h.8l-.1.8 1.3-.7.4.3-.2.6 1 .2.2-.4h.4l-.8 1.5.4.3-.2.4.2-.2-.7 1.2 1.3-.9-.6 1.1h.5l.1.3-.3 1.1.3 1-1 .9-1.8-.2-.3.8-.3-.5h-.4l-.1 1.2-.7.6-.5-.1-.5.7-1-.4-.2.4 1 .6-.3 1-1.3-.3v.3h-1l-.8-1.4.3-.5-.7-.9h-.3l-.1.7.4 1v1.3l-.6.5-1-.2-.2.5.5.6-.7.8-.5-.2-.5.4-.7-.7v1h-.6l-.3-.7.6-.6-1 .6v-.6h-1.3l-1-.7v-1.2l-1.5-1.3.5-1.2.5-.2-.4-.3.4-1.2-.5-.8.6-1.5-.7-.9-.6.2.2-1-.7.3-.5-.4 1.7-3.1.1-1.1-.5-1.1h-1l-1.8 2.9-.7-.6-.8.1 1.2.6v.6l-2.7 4-.6-.1.1-1.5-1-.1.9-.8-.3-.5 1-2 .7.2-1.2-.7v-.8l2.2-2.9 2-.7-2-.2-2.4.4-.2-.3-.7.5-.3-1.7.3-.5-.8-1.8.3-1.4 3.1-4.5-.4-.1 1.2-2-.5-.2 1.1-1.4-.6-.3-.3.8h-1.1l-.3.9h-.5l.1-.3h-.7l.8-2.5 1-.8.6-2.7 1.5-1.7-.2-.4-.1.5h-.3l1.1-1.3-.2-.9.7-1v-.5l-.6.2.1.5-.5-.3 1.6-3.2-.7-.4-1.7 2.2-.4 1.6-2.7 4.4-2.8 7.6-.8.5-1.6 3-1.6 1.3-1 2-1 .9.1-2.2 1-.1-.1-1.4.9-.3-.7-.6.3-1.3-1 1-.3-.6-.6-.2.6-.8-.4-.4.4-1.4-.7-1v-1.6l-1-1.4.9-3.8 1.5-3.2 1-.7.6-.8h.4l.7-1.7 3.3-4h1.3l.4.6 1.6-.6 1.6-1.7h1l1.7-.6.7.8h1v1.8l1-.4 1.5 1.1.8 2.6.7.2.3.8zm-568.7 472-.4.8-.2 2.2-2 .8-1.4-.5-.8-1.3-.3-.3-.1.3 1 1.5 2.2.6.3 1.1-2 .6-.5 5-.8 1.1v-.4l-.3.2.3.3-.2 1.5-.8-.2v-.7l.3-2.4-1.6-.5-1.1 1-.3 1-3.5 1.2-.8 1.6-.7.3-1.8-.3-1.5-1 1 1.5h1.5l.3.9-.3.3-.7 1.8.4-.2.4-1.8h1.9l.4-1h1.2l.5-.9v2.7l-.2.1-.3 2 .4 3.3-1.3-.2-1.2 2-1-1.3-.6-.2-1.3 1.6-.4 1.2-.9-.5-1 .5-.6 2-.4 2.1-.6-.4-.2-2-1-1.2-.6.5-.6 2.4-.2-1.5-1.2.5-.2.1-.3 2.6-.6.4-.1-1.8.3-.4-.2-.4-1.6 1.8v-1.1l.3.1.4-.6-.2-1.6h1.6l-.1-2 .7.4.4.2v-.7h-.5v-.7h.2l.5-.4-.3-.8 1.4-1.8 2.5.3.2-.2.3-1-.7 1-1.6-.3h-.7l-1.1 1-.3-2.9.7-1.3.1-1.7-.7-.2v.7l-.3-.4v.5l-.4 1.3.3.6.1.4v1.6l-.3 3.1-.9-.7-.8.5-.4 2.3h-.4.3v.6l-.3-.2-.2.3-.3 2.7-1.3 1.3.3.7-1.7.7-1 2.2-.5-.4-.6.2-.4 6.7-1.3 1.6-.9 4.6v1.2l.1-.5h.5l-.4.4.4 2.2-.4 2.4.6 2.4-1.8 1.3-.6 1.1-1.3 4.5v2l-2.1 3.4v1.2l1.4 4.4-.2.7-1 .9-.3 1.6v1.2l1.5 3-.5 3.2.2.8-.5 1-.8.3-1.3 1.3-.2 2.4-1.1 1.5-.6 4.5h.4l.2-2 .4-.3-.1-1.4.9-2.3.3-2.3 1.2-1.3.9-.2.3-.8.5-4.6-1.5-3.4.3-2.1 1-.7.2-1-1.5-5.6 2.3-3.4v-1.7l1.1-4.2.7-1.2 1.3-.9.3.2.4-1.2v-2l-.3-.6.3-2-.5-1.6.5-1.2 1-.5-.1-1.5.6-1 1 .8.4-1 .6-.6.7-5.9h.4l.2 1.9h.4l.5-2.2h.3l1-2.2.4-.5-.1-.5 1-.6.2.6h.5l.4-.5.8-1.5.1-1.7.5.7.7.1.6-1.4v-1.7l.4 1 .8.6.7-.1v-1l1.2-2.8h.8l.4-.5.4.4 1.7-2.7 1.5 2-.4 3-1.6 5.3v4.3l1.5-1.7 1-2.6.5.2.6-.7-.1-1 .8.3v-.5l.7.3v-3.4l.5-.6.3.6.6-1.6.6-.1.6.8-.2 3.5-.2 1.8h-.6l-1 2.8v1.7l.6-.4.6-2.1.7-.4 1.1-3.3 1-1.5.1-2.3-.5-1.1.2-.5 1.7 2.9.1 1.4-.6 1.6.4.9.8-.1-1 1.4-.5-.2-1.2.9-.1 1.3-1 .5v1l.4.5.2-.6v.8l-.4 2.1.1.9h1.9l.6-1.4.7.6.5-.6h.9l.3 5.4-.2 2-.6 1.3.3 2.4.6.8-.6-1.5.7-6.5 3.9-5 1 .9.8-.7.7 1.9.9-.2v2.8l1-1.2-.2 2-.5-.2.3.6 1-1.3.7.3-.4.6.5.2v1.4l.2.6h.4l.1 1.3 1.5-2.5h.6l-.5 4.4.6 1.6-.3.4.8.1.3-.5-.8-.5-.3-1.5.5-2.2.6.2 1.5-2.5.6-.2.5-2.1 1.2-1.8.2 1.3.5.4-.3.8.6.3 1.6-6.3.8-.1.5-2.1.6.2.5-.6.1-.9-1.2-.2.6-1.3.4.1v1l1.5-.8.2 1.1-.4 1.1.2 1.6-.5 1.6-.9 1 .1 1.2-.7 1.5.9 1.7v-1h.4l.1-1 .3.6.6-.2.8.9.5-1.5.3.2-.9 5.9-1.5-2.7-1.5 10h-.5l.2-1.2-1.4 2.5-.8 4.5-1.2 1.1-1-.3-1.3 1.8 1 1-.2 3-1.2 1.4v1.2l-.9.3h.8l.3.5-1.3.7-.5-.8-.8-.4-.8.2-1 1.4-.6 2.4.4 2-.6-.2v.5l-.7.2.5 1.3.6.4-.4.3.4.2-.5.7h1l-.5.8 1-.3v.3h-.3l.1.9-1 1.7.6.7v.8h-.9l-.1.9-.4-.2-1.7 1.1-.8 2.1.3.8h.5l-.1.7h.4v.4l-.6 1v-.1l-.8-.5.8.6-.8.6.8.6v2.1l-.5.8.6-.5v-1.8l.8-1 .6-.2.3-.7.8.5.3-.9-.5-1.2.7-.2.4.3.2-.7 1.7-.3.6 1.3.8-.7v.5h.4v.5l1.6.2 1.3-1.4.7.3v-.6l1-.8.7-2 .2.5.8-.2.3 1-1.4 1.2-.4.7.9 1 .1 1.6-.6.2v.5l.6.6.5-.2.5 1 .2-.4.2.3-.7 1.8-.9 1.1-1.6 2.6v.9l1.2.5-.4.4-.3.4h.3v-.4l.7-.3.5-.8.3.7 1.6-.9 2.5-3.1h1l.6-1.1.5.3.5-.2-.2-.5.2.3 1-1h.6l-.2-.3.4-.2.3-.6 1.3-1h1.1l-.2-1.1h.6l.2-.7 1-.8-.9.4h-.4v-1.8l1-.7.3-1.4.7-.1.7-1h.5v-.8h.4l1.4-1.7v-.5l1.3-.7 1.1-1.9.6-.3v.4l1.3-1-2.1 3.6h-.4l.1.4h.7l-.3.5-.8-.1v1.8l-1.1.2-1.9 1.9-.5 1.2-.7.7.7-.4.9-.3 2.9-3.2 2.6-1 1.3-2.2.8.1.3-1 2.4-1.8.3-.8 1.1-.6 1.9-2.4v-1.3l-.4.7-.2-.3.4-1.2.7.2.7-1 .9-.1.4-1.2.7.5.8-1.5.3 1.2.2-1.3-1.7.3.4-1.6 1.7-.6.6-1.2.6.1 2.4-1.8-.2-.8-.8.1-.7.5-.8-.6-.8.3.3-1.5-.9-.5.3-1.4 1-.6 1-.9.4.4.2-.4-.3 1.8-1.2 1.2.5.5.5-.4 1-3.7.8-.8-1-.6 1-1.2.4-.1.6.9.7-.3v1.3l-.7.3.5.3.2 1.3 1.2.4-.4 1.7-.6-.4-.8.7.6 2.6.7-.2.4.2.9-1.3 1-.3-.3 1 .9 3 .3-.3.2 1.1-.6 1.1.4.3-.5.5.7 1.7 1.2-.1 1-1.7 1.1.2v-7.2l-.5-.6.1-.8.3-.2v-11.7l-.3.1.3-.6v-16.3l-.6.4-.1-.5.7-.8v-31.6h-50.5l.6.3.2.4-1.1 1.1-1.9-.7-.7.4-.2.8-.3-2-1.7-.3-2.5 2-.5 4.3-.5.4-.4-2.4-3-1-1.2-1.3.5-1.3-.3-.8h-.2l.2 1.1-1.3.3-.7-.1.4-.2.1-1zm26.6 16.6-.4-.2.2-1.1.3.3zm-40.3-.8-.3-.7 1.4-.5v.7zm18.7-.6h-.8l.2-.7.8.3zm-13.6-.3-.4-.5.8-1.4v1zm39.3-11-.2-.2.2-.7.4.5zm-7 7-.5-.4.4-1.3.4.2zm-14.5 1.7-.2-3.1-.5.3-.1-1.1.4-1.4.4.6.5-.8-.5 1.5zm-1.5 2-.3-1.4.3-1.2-.1 1zm-2.7-.7-.3-.2.2-2.6.4-.6.2.8zm-7 3.3-.4-1.8-.6-.6-.7.5-.3-1.4.7-2.7.6.6-.1 2.6.5.3.5-.4.1.3zm3-12.6.2-.2.2.6.1 2.5.5.2.5 1.2.5.1-.6 1.3.7 1v2.1l.7.6-.8 1.2 2 1.3h-1.7l-.2 1.1-.5-.2-.4.6-.2-.4v.6l-.6-.3v-1.3l1.1-6-.9-1.6.4-.2-.2-1-.9-.1.3-1.2-.4-.4zm19.3 6-1.1-.9.4-1 1 .7zm-20.8 2.1-.7-1v-.4l.2.4.3-3.5.4-1.5h.3l.2 2 .6-.2v1h-.5zm1.7-10v-.5l-.7-.7 1 .5zm12.1 2-.3-.3v-.8l.6.3zm-7.3 5.8h-.5l.3-1.5-.1-3.5.6-.4.3 1.7zm-7.4-5.3-.6-1.3 1.1-.5v.6zm-2.3 16.8-.3-1.4.6-1.3.1 1zm9.5-.7h-.2l.5-3.3.3 1zm-15.8-.8-.3-.4.3-1.5.3.5zm67.8 34.8h-.6v-.3l.6-.2zm-91-1.8-.5-1.5.4-1.7-.2 1.3zm98.2-1.3-.5-.5.2-.7.6.7zm-3.5 1.5v-.7l.5-.3v.9zm-40.3-.1-.7-.1.5-1.7.3.4zm33.4-.7v-.3l.7-.6-.3 1zm2.6-.6.3-1-.4-.5.4-.5.4 1.2zm-36.4 33.9v-.5l-.8.2-.3-.6.9-.7.3.4v-.4.7l.8-.3.3-.6-.5-.6v-.8h.7l.1-1 .8-.8h-1l-.2-.4.3-1.1.4.5.7-.2-.3.3h1l-.3 2.3-1 .9-.5 1.7zm10.4-4.5.2-.7 1-.4-.4.8zm-2.6 10.3-1 .5-.3-.5v-.9l1.2-1.4.8 1.8zm-9.6-2.3v-1.1l-.4-.2 2.4-.3 1-.7v.7l-1.4 1.3.1.6h-1.1zm27-13.4-.3-.5.3-.8v1zm-1 1.6h-.4v-.5l1.1-1.2-.3 1.3zm-3.7-.3h-.8v-.8l-.7.7.2-1.5h1.8l.5 1zm-17.2.7-.1-1 .3-.9-.3-.1-.4.7-.6-.5.8-1.4 1 1.3zm-14-1.7-.2-1.9.5-1.5-.4-1-.3.8-.7-.2 1.2-1 .4-1.6h.3v.4h.5l.2 2.8.5.6-1 .2v1l.7.3h-.8v.5zm2.8-3.5-.3-.6.6-.7v1.2zm31.9 1.7-.4-.1.6-.8.3.7zm-5.1 1.2.6-1.1v-.7l.5-.4v1.5zm2.3-1.4v-.6l.2-1 .1.8.3-.4zm3-1.6-.8-.1v-.4l1-.1zm1.8-2.3h-.8v-.4h1.2zm-21-.6.2-.5-.5-.4.8-.4.6 1zm27.4-3.3h-.4v-.4l-.3.2-.4-.7.7.1.4-.3zm-25.7-1.4-.7-.4.1-.7.8.7zm.5 2-.1-.7.5-.6v.5zm12.5 1.7h-.5l1-1.5h.4v.8l-.6.2zm-13.4-.8-.3-.6h-.7l.2-.7.6-.4.2.4.2-.6.2.6-.5.6zm2 3.4.1-.7.8.4v.6l1.7.1.3-.6.4.3v.6l-2.7 2.8-.9 1.8-.4-1-.3.8 1.1-2.6.2-2-1 .1v-.6l-.8-.2.2-.7h.5v.6l.4-.3zm4.4-.2-.6-.1.6-.4v-.7l1.5-.9v.6l-1 .6zm19.2-6.7h-.8l-.1-1-.6.3v-.2l.6-.5h.7v1.1l.8-.5zm-19.7-.5-.6-.3.3-1.1.6.3zm-4-.8h1.2l.1-.9.4.3-.1 1.4-1.8-.3v-.4zm0-2.4 1-.4-1.2 2.1-.1-.6h-.8l-.1-.7.5-.5.2.4zm21.3 2.5-.3-.6-.7-.5.7-.9 1.2.9v.5zm-16.8-1.1-.7-.6-.2-.4h1l.2.7zm29.7-1.4v-.6l.6-.4v.5zm-40.6 2.6-.8.3-.3 1-.2-1.1h-.4l-.7 1.1-.6-.1-.1.5-1.1-1-1.4 1.2-.1-3.6 1.4-2.5-.5-1 .9-.7v.6l1.1-.4 1-1.7h.6v-.6l.9 1.9v.9l.4.1.3.7.3 3.4-.7.5zm11.7-2.7-.5-.6 1.3-1-.5 1.6zm17.2.1.2-.9 1.1-.6.2-.6 1.4-.4v.9h-.8l-1.2 1.6zm9.2-1.3.3-1.4 1.3.2v.3zm-12.9.3-.2-.7.5-.3.2.5zm-15.5-.4-.3-.8.3-.4.2 1zm-2.5-1.4-.1.3.8-.1-.3.8.4.4-.6.6-.6-1 .1-.8-.4-.3.3-.9zm19.7 1.3-.3-.4-.7.2.1-.8h.7l-.3-.7.4.3v-.7l1 .3.6-.3v.5l-1.2.9zm10 0-.3-1.1.8-.5v-.5l.3.9.5-.8v.4l-.8.8v.6zm-7.5-.1-.6-1.2.4-.4.8 1.1zm-.4-2v-.5l.4-.4v.8zm4.2 1h-.5l.3-1.2-1.2.7-.4-1.3-.5.3.1-.4.8-.5.6.6.7-.3v1l.7.6zm-.2-2.2v-.6l.4-.3v.5zm-6.2 0-.2-.7.8-.1-.4.7zm15.8-6.9v-.4l.8-.7v.6zm-41 2.4-.6-1.4.4-.8-.6-.9.6.2.6-2 .4-.4.4 3.8zm-2.3-4.6-.2-.8.3-.5zm4.1-4.2v-1.8l.3.2zm-17.2 3.1-.4-.3 1-3.4-.3-2.2.7-1.8v1.6h.2l.5-2 .1 2.6zm-39-3-.8-.3.5-1.6.5.6zm41.9.2h-1v-1.3l1.1-.2v-1l.7-.2.5.1-.4.4.4.3-.4.1-.4 1.7zm12.7-2.1-.4-.2.4-2 .3.4zm-10.8.4-.2-1.4h.3l.2.3zm8-1.2-.2-.4.3-1 .4.4zm-9.1-.1-.1-1 .3-.3.1.6zm1.5 0-.1-.3v-1l.4.2zm1.8-.9v-1.6h.2v1zm-12-1.4h-.2l.1-1.1.3.8zm18.2-3v-1h.3l.7-1.2v1.5zm-50.1 2-.3-1.8 1-.4v1.5zm45.7-.7-.5-.5.1-.7.8-.7zm-3.3-.8h-.5l-.3-.5.2-.7.5.3v-.7zm-2.3.7-.3-.3.3-1.3.1 1.5zm-5 5.1-.3-1 .3.2.2-.5.4-2.2h-.6l-1 2.1-.5-.9.5-2.7 1.1-.7v1h.6v.2l.9.2.4-.3-.3 1.5zm.9-5.5-.1-1.6h.6zm-35.9-1.5-.4-2.1.9-.3.1 1.7zm33.6 2.2-.3-1.7.9-2.1.5 2 .3.3v-.8l.4-.1v.9l-1.3.5zm10.7-2.7-.1-1.3.4-.5v.9zm-16.3 5.9-1-.5-1-2-.3-2.5.5-.7v-1.5l-.5-1 .5-1.1.5.4-.4 1.8 1.5.5.3 1.4.6.2.3 1.1h.6l-1 1-.9 1.9zm14.8-8.2-.1-.7v-1l.4.8h.4zm47.8-.5-.7-.5 1.3-.5 1 .2-1.5.4zm-53.9.1-.4-.4v-.7h.5zm-9.9-4.1-.2-1 .2-.8v1.3l.2-.1zm1.2-3.5-.4-.5 1.2-1 .5-2 .7.4-1.1 2-.9.3zm-6.6 1.1-.2-.1v-1.3l.3 1.4zm4.6.1-1-1.4v-2.3l.3-1 .7 1.6.3.1zm21.6 5v-.5l-.6.3v-1h.8zm-18.5-1.7-.1-1.7.3-2.4h1.1l-.7 3.9zm23.9 3.8-.5-2 .5-.2.4-1zm-3.6-.5-1-.8.6-.3.2-.8.5.6zm-24-1v-1.3l2.1-.3-.6 1.3zm6.4-.3-.6-1.6.9-1.4v1.6zm9.7 1-.2-1 .4-.5v1.3zm9-.2-.8-2h-.3l.6-.9-.3-2.1 1.3 1.6-.2 2.7zm-.1 0"/><path d="m19.2 382.9.4-.6 2 .4-.2.7 1.1-1 .8 1.1 1-1.5.3.3.2-2 .8-.4 1 .1.6-.7h.6v-.5l1-1h.5l1 1 1.5-.3.4.8v-.5h.3l-.2 1.4.6 1.5 1.1-.5.4.4-.4-.4.5.2.5-.3 1.7.9.5-.7-2.2-2.6-1-.3-.9-.9-1.9-1-2-.5-1.2-.8v-1.5l1.2.4.5-.5h.6l.3-1.4h.4l.3.7 1.3.3 3.7-.4 5.1-1.4.6-1 1-.4v-1.3l.4.2v-1l-.7-.3.7-.8-.1.5.3-.2.4.6.3-.7-.1-.3.4-.3.5.8.6-.1-.4-1.2 1.1.1v.6l.5-.2v.4l-.5 2-.6.4.5.2-.4 1.1 1.7-.1.6.6h1l2.2-1.4-.6-.8 1.4.2-1.3-.8.5-.8 2 .2 6.3-4 2.1.4.8.8v1h1v.4l.6-1 1.4-.8 1-1.5 1.3-.1-.5-.8.2-1.6.4-.4h-.5l-.5-1-1.3.4-.3-.7-.5.3v-.9h-.9v-1.1l-.1-.5-1 .2.1-1.1-.6-.7-3.9-.9-1.7-1-4.2-4.8-.6-4.7-2.7-7.8-.5-.4.2-.7-.7-1 .2-4.3-.8-1.1.3-1.2-1-2.3.6-1.4-.9-3.3.5-.4-.2-1.6-1-.5-.9.7-1.6-2.3v-1.2l-.1.3v-1l1-.5v.2-.6l1.1-.6.1-2.1 1.9-.1 2.2-3 .3-1h.2v-.1l2.4-2.7-.3-1.1.6-1v-2.3l-1.1-3.1-.9-1.9-.9-3.5-2.1-1.6-4.5-6.4-1.8-1.6-1.6-2h-20.8v31.6l.5-.3-.5-.7 2.3-.6v-.6h.5l.4.2v1.1l.7.4.3.5h.6l-.3.6-.7.5-2.1-.1-.3-.4-.4.6-.8-.4-.2.1v16.5l.4-.8h.3l-.5.9-.2.3v11.7l.8-.3.1.3h-.3l.1.7-.5 1-.2-.3v7.3h.2l.3-.8h.6l.6-2.3 1.7-.7.2-1.8-.4-1.7 2-5 .3.5.5-.3.6.5.5-.8v-1.2.3h1v.8l-.7.2 2.5 2 .9 1.4v1.1l.3.2.3 1.1.6-.1.2 2.8v.4l-1.1-.4-.3.6.3.9h-.5l-.3.6-.9.2-.5.7-.3-.3.2 2.4h.9l.5 1.1-.5 1.6-1.5 1.8h-.4v1.1l.3.1.4-.6v.5l-2 1.7.4-1-.6-.3.1-.7-.5-.1-.3.7.7.4-.2 1h-1l-.3 1.9-3.5 4 .8.7-.6.3-.2.8-1.1 1.4-.2.3v8.8h.1l.2-.4.2-.9.6-.5.4 1.2h.3v1.1l-1.8 1.8v1.9-.2l.3 1.6h-.3zm5.4-3v-.8l.7-.2v.3zm-2.5-8.7-.3-1 2-3.3v1.5zm1.8 5-.9-.5-.3-.7.7-1v-1h.8l-.7.7.3.6 1.3.5v.5l.9-.3v.4zm20.1-9.6v-.6h.3l.1.4zm10.4-2.3-.2-.7.8-.4 1 .2-.8.8zm-22.9-17.8v-1.2h.7l1.2-1.5.6 1-.5.6-.5.6-.4-.5v.6zm-11.1-1.7-.2-.5.3-.4v.7zm11.8-1.3-.7-1.2v-.5l.9.6zm-10.7-1.5v-.5l.2-.5v.2zm-1-10h-.4l.2-1.9-.3-.1.7-.7.3.7zm18.7-5.5-.7-.5.7-.6.2.6zm-10.3 6.8h-.4l.1-.7.7-.1zm3 .2-.1-1.5h.2l.4.7zm1.3-.8-.5-.2.3-1.3.4.4zm-13-7-.4-.5 1.2-.2-.3.4zm3.5-.1-.4-.6.3-.2v.4zm-.4-5.1-.3-.7.5-.3v.9zm0-3.1h-.4v-1.3h.5zm-1.7-9.2-.6-.5.1-.2.6.3zm-1.4 33-.2-.7.6-.3v.3zm22.1-4.4.1-.8.2-.5.7-.1-.5 1.2zm-.3 3.1-.2-.9 1.1-1.9.1 1.1zm-11.1-1.9-.2-.5v-.5h.4zm-2.9-1.4h-.6l.6-.7-.2-.9h.9v1zm-.1.1"/><path d="M19.2 279h21l-.8-.9-.1-1.1-.5-.4.5-.6-.6-2.6-.6-.4h-1.5l.8-.7v-1L36 271l-.3.2-.2-.4.2-.4-.7-.7.4-.7-.2-1.4-2.2-1.1-1.8.4-.2.6-.2-.4-1-.3-.3.7-.5-.3-.5.5.3-.5-.6.3.3-.9-1 .2v-.5l-.5-.4.7-.6v-.4l-.8-.2v-.7l-.9-.1.6-2.4-.2-.1v-1.1l-1.1-1-2.2-1.3h-1.5l-.7 1v-.5l-1-.1.7-.5-.9-1.5h-.5zM252.6 0l3.3-2 .8-1 2.7-1.3 5-1-2.8-.1-3.3 1.3-2.8 2-2.4 1.3-1 .8zM19.2 0h190.3l.3-.3h.4L210-1l.2-5.3-.5-.1 1-2.1-.4-.5v-.6l2.1-2.4v-.7l-.4-.5 1-.2v-1l-.7-1.8-.8-.4 2.4-2.4 1.1.5v-.8l-1.7-.2-.4-1.8.6.1-.1-.3-.5-1.2h-1.2l-.4-.9h-.4l-.1-2.4h.4l.1-1.3 1.2-.4.3-.6 2.5-.5.7-.6v.4l-1.8 1.1.5 1.9-.4.4h.2l2-2.6-.9-.4.9-.2.1-.8.3.1.6-.8-.1-.2-1 .4.2-.9h1l.4-1-.8.1-.6-.9-.2.3h-.5l-.5-.7 2-.6.2-.7.5-.5h.5l-.4-.3h.5l.3-.9-.2-.7-1 .3-.1-.6-.7.1.1-.9 2.5-3.5.7-.1.3-1 .6-.3.1-.6-.6-.2.8-.5-.3-.4 1-1.6-.5-.1.7-.3-.2-.8.8-1.6-.5-.2.6.1v-.5h.4l.3-.2-1-1.4.5-.7-.4-.8h.4l.4-1.6-.9-1-.1-.9h-.7l.3-1-.7.2.5-1.2-1.4-.2-2.4-2.2V-63l-.7-1.4v-2.2l-.3-.4-.2.5v-1l-.9-1.2h.6l.2-.7.5-.3-.4-.3-.2-1.7h-.7l-.2-.8.3-.7-.3-.1.7-.8-1-.5.8.1.1-.5.8-.4-1-.6h.8v-.2L216-77l.9.2.4-1.7-.7.6.6-.8-.3-.3-2.1 1-.2-.7.7-.3-.7-.7.9.4-.3-.9.6.4.2-.6v-1.2l.8-.8.2.2-.2-.8.7-.3v-.9l.5-.8-.3-.2 1-.5-1.7.7-.3-.2-1 1.7.3-2.8.4-1.2-.2-.5 2-.9-2.2.8-.2-.3-.2 1-.6-.5.2-.3h-.5v-.8l-1 .3-.5.7-.5-.2v.6l-.7-.4-1.4 2.1-.8-.4-.8 1.5h-.6l-.2-.2 1-.9.1-1.3 2.3-1.6-.3-.5v.5l-.8.3.2-1-.7-.6.1.7-.3-.6-.3.5-.2-.3-.7.3.1.5-.6.7h-1v-.1h.3l-.1-.6h-.5l-1 1-.7.2-.3.7-.5.1.7-.5-.5-.2-.9 1-.9.3.8-1.8-.5-.3-2.4 2.1-1.3.1v.7h-.4l-.3.3.8.9-.7.1-1.2-.7-.6.5-.2-1.6-.7.5.4-.7-.9.1.7-.2 1-2-.2-1.8 1.3-1.8.2-2-2 3.6-.6.6-.5-.2.5-1.5 2.3-3.7.2-1-.6.2.2-.5.6.3-.3-2.1-.5-.2-.6.3-4.7 5.5-.9-.6 2.6-3.1 1.2-2.3-.5-1.1-3.2 2.9.2.5-.7 1.5.3.7-.7.2v.9l.8.4-.4.7.4.5-3.9 6.2v1.3l1 .8-1.1 1.3v.5h.6l1-1 .2.2.4-.2-.1.5h-.8l-.8 1.1-1.1-.4-.3.8-1.1.9.1 2.9-2.4 1.6.5.6-.3.7-1-1-.9.2v.5H180l-2.3 3.6-.2 1.4-1.2 1.1-1 1.9-.6.2.3 1.2-.3-.4-.6 1.8.1 1 .6.4-1 1 .2 1.2.8.6-.2.5 1.4-.3 1-.7h1l1.7-2.4.7.4-.6.7v.9h-.2l-1.1 1.5-1.9 1.1-1.8 2.3v.6h.2l.2.1-.4.3.6.6 1.6.1v-.7h-1.3v-.4l1.9-1 .3.6.4-.2-.8 1.4h.7l-.2.3-1 .3v1.5h1v-.5l1.8.3.3-.5.2.7-.8.7v1.6l1.5-.9.8-.9-.2-.4 1-.8-.4-.8-1.2.3.2-.6 2 .3v-.5l2-2.2.8-1.3 2-2 1-1.5 1-.6v-1.2h1v.7l-.2 1.2.2.2h-.3v-.4l-.7.3-.4 1.1.4.5h-.7l-.7 1.5v.6l.6-.6.3.2-.4 1.5.4.5h-.9v.4l-.9.2-.5 1h.4l.4-.6h.7l.5-.9.7.1.3-.6-.4-.2.5-.4.3.2v-1l.4.2.5-1.2 1.8-1-.2-.7 1-.5.9.5v-.7l.5.4.6-.4 1.5-2.6 2.2-2.3.1-.8-.9-.5 1.2.4.5-.4 1.5.4-.8 1.5.2 1.2-.4-1-1 .2-3.6 6.9-1.1 1-.1 1.5-.6 1.3h-1l1.4-2.6v-.7l-2.3 2.3-.4-.2.5-.3-.2-1.3-.4-.3-.7 1.5.4.3-.6-.2-1 .6-.1.7-1.1.2-.3 1 1.3-.1.7.3v.6l.2-.2-.2 1.3-4.8 6.3-2 2-.9.2-.3 1-.5-.3-.6.4.3.3-.5-.3-1 .4-1.1.9-.8 1-1 .2-1.2 1.6-.1 1.1h.7l.5-.4.8-.2-2.5 2.1-.5.8.3 1-1.8 1.5-.4.5.3.8-.8 1.2-.5.4-1.7-.7-2.9.5-2.8-.4.2.6.7-.3.7.7 1.7-.4.5.3-4.8 2.3h-1l-1 .9-2.2.5h-.4l-.2-.7.4-.3-.8-3h-.8l-.4-.7-.7-.1-.4.3-.2-.4-.8.2-1.3 1.7v.4l-1.4 1.4-2.5 1.2-3.8 1.4h-.7l-.3-.8-1.7.1-.8.8 1.1.1-.9.8-1 2.7-1.1 1-1.7-.1.5-3-.7-.1-.6-1.3-1.1-.2-.7-1.3-.8.1-.4 1-.2-.2-2.6 1.7-1.1.3-.5-1.5-.4.1.6-.4v-.2l-1.7-1.5.5-.3h-.3l-.2-.8h.4v-.9l-.7-.2.1-1-1-1.1-1.1.4-1 2.2-1 .6-.4-.2-.2-.4 1-.6.7-1 .5.1v-1l-1.2-.9h-1l-.5 1.1h-1.2l-.9.5-1 .3-2.3 2.4.4-1.7 1.5-1.6-.3-.7 1-.6.5-1.1-.9-1.6 1-.9-.9-1.3 1-.5-.4-1.7h.8l.2-.8-.4-2.2-.5-.4 1.5-2.4v-1.6l-.4-.6-1.2-.4-.2-1.4 1.4-1.8h.8l1.2-3h.4l1.2-2.2.4-2.3-.2-.2.9-1.2-1.3-.8.2-3 .9-.9.1-1.2 1.2-1.4-.8-.7-.8.2-.2-.3.1.5-.5.1-.4-3h-.7l-.3 1.9h-1l.4-1.5h-.6v-1.2l.8-1.9-.1-.5.5-.5-1.4.5v-.8l.7-1.4.1 1.4h1.1l.3-2.2-.5-1 .6-1.3-.6-.5.4-.9-.2-1-1.3-.7h-1l-.6-.4-.3-2.5h-1l1.1-2.1v-1l-.6-.7.4-1.4.4-.6.4.6.8-.6.2 1.1 1.1.7v-.8l.5.1 1.7-2.2 1 .1.5 1.3.8.2.7-.6.3-1 .6-.3-.4 2.7-.8 1.5 1.3-.2.6-2 1.2-1-.5 1.9.5-.4 1.9 1-.6.9-.3-.7h-.8l.6 2.6 2-.2.7-.5-.2 1.1-1.4.5.6 2.6h1l.2.4h.6l.2-.4v-.7l.7-1.3h.7l-.4 1.7 1.2-.2.6-1-.4-.5.3-.5h.7l.4-.4v-1.3l1.2.2.5-.5-.5-2 1.7-1.2.3-2.6 1-.8v-.9l-.7 1v-.6l-.5-.1.2-2.4 1-1.3 1.2-.5.2.6.4-.4v-1l-1 .7v-.2l1.2-3.3.7-.1.4-1.1-.3-.6.7-.3.9-1.5v-1.2l-.7-.5.5-1 1.9-1.3h1.2v.9l1.3-.6.9.7-.1-.6.6-.4.3.3-.6.1.4.8-.4.5 1-.6-.2-.4 1.4-.3-.3.8-.2-.4-.3.2.9.8 1-1.1-.7 1 .2.5h.5l.6-.9.4 1.2.4-.2.8.7.8-.3v-.6h.7l.5-1.5 2.4-3 .7 1.1.1-.3.4.1 1-2.7-.2-.3.7-1-.3-.5h.3l.3-.8-.5-.1.2-.5-.2-.2.2-.2.1.3.3-.4h-.4l.1-.7-.3-.1-1.2.3-.9-.8-.7.3-.4-.5h-.4v-2.1l1.5-3 .4.1-.4-.3.3-.5h-.7l.1-1.8 2.1-3.1.8-.1.6.5 1-.9.1-.4-.9-.3.3-.5 1.6-.6v.4l-1 1 .2 1 1.2-1.9 2.3-2.3.3.4-.3.8-1.3 1.9-1.6 4 .3-.3 2-3 .3-.3-.7.2.9-2 1.3-1.7-.3 1.4 2.7-4 1.5-1.1 2.1-2.9.8-.4-.8-.4.6-2-.4 1.1-.4-.5-1.2 2-4.2 3.2-.8 1.3-1.5-.9-3.8 3-1.5-1.1-3 .6-1 .6-1 1.6-.6.2v-.4l-1.1-.3-2.5 2 .2-1.8-.5-2-1.2-1-1.4-2.5h-.7l-.3-.7.4-.3-1.3.2-.3-.4-.7.5-.8-1.4v-1.1h-.8l.9-.6-1.8-1v-.4l1-.4-.5-.4 1.7-3.1-.5-2.1 1.2-5.3 1.3-2.5v-1.7l.8-3.3h-.4l.4-1.2h-.6v-1.9l-1.9-.4 3.1-5.7.9-3.2-.5-1.7h-.9l-.2-.4-1.4.7.5-1-.1-.7-.4.4.3-1.2-.4-.9h-.9l-.3.5 1.7-5.5-.3-2.4 3.2-2.1 1.4-1.6.4.1.9-.8-.3 1.2 1.1-.5.4.2 1.4-.6.7-1.2.3.7 1.2-.3.2-.6 2.6-1.7.7.2 1.7-.9.5 1 .6-.4v.9l.4.1 1.1-.6-.2-.3.7-.5.3-1h.6l.2-.5.8.2.5-.7.2 1 1 .5 1.6-2.1.8.2.2-.6-.6-.4.5-.5 1 .4.3 1 .9-.4-.4-.7h1.3l.5-.8 2.7.2.5-.7h1.8l.2.1-.3.6h.3l.2-.3.5.2.7-.7.9-.2-.1.5h.6l-.3.6.3.3.2-.7h.6l.8-1 .3 2.4.8.3-.5 1.5.4.4 1-1.5.5.1-1.2 2.7 1.2-.4 1.1.5 1.5-1.4 3-4.1-.4 1.3-1.5 3.1.4.4 2-2.6-.8 2 2.4-1.4 1.2-1.4 2.4-5 .3-1.6 5-7.2 1.2-1v-.2l-.4.1.3-.4 1-.3.2-.8.6.7 1.4-.5.9-1.4 1-.5.8-1.4h.6l1.5-1.4.4.8.6-.8.1.7 1.6-.8 2.4-2.6-.4 1 .4.8 1.7-1.2-.8 2 .4.9 1.4-1.7v-.6l.6-.5-2 5.3-3.3 5.1-.9.7v-1.3h-.2l-2.8 4.9-1.4 3.9-3 5.7-.9 1.5v-.8l-1.7 1.8.1-1.3-.7.1-.8 2.1-.9.7.3.3-1.5 2.9-2.3 3.2-.4-.3.3-.3.1-1.6-5.6 5.4.2.6h.6l-1.7 2.9v.8l1.6-2.5.8-.1-.3.8 2.2-2.7-3 5-1.5 1.5-1.6.1-.9 2 .4.3-.6 1-1.6 1v1.6h-.2v-.3l-.2-.3-1 .8v.8h.4v1l.8-.4-1.1 2.2 1.1-.2-.8 1.3h.4l-.5 1.4.6-1 .3.3.2-.6h-.3l1-.8 3.5-5.2 1.4-1-5.6 10-1.4 1-1 2.7v.4l.4-.5v.7l.5-.3 1.4-1.6-.8 3.3.5-.2.2.7h.5l1-1 1-.8.5.4.9-1.3h.5v.5l1.7-1-2.1 4.3-1.1 1.7h-.4l-.4 2.2-2.4 5.1.4.2.4-.1-.3.7.3.6-.5.3.4.2-.2 2 1.5-1.9-.4 1.2.5.3-.1.5.4-.3.1-.7.8-.2 1-1.5-.8.4.5-1.4 2.5-3 .5.4.4-.6v-1.6l.6-1.2 1-1v.8l1.2.2.4-.6.1.5 2-3.7 4.2-3.5.6-1.5-.4.4v-.2l2.7-3.5-.7 1.4.2.3 1.5-2.5-.4-.1.2-.8.3-.3.1.8 1.7-2h.5l1.3-2.3.8-.3.5-1.3h1l-.3-.6.3-.6 2.1-2.2v-.5l1.2-1.9.2-1.1h.4v-.4l.8-.6-.3-1-3.3 5.1-1.2 1 .8-2.3-5 6.5v-.6l2.9-4.4 3.6-4.8.5-1.5h.4l1.2-1.2.1.3.3-.2 1.4-2-.4 1.3.3-.2-.3.5 1.6-1.2 1.3-.4.1-.4-.5-.1.4-.3h.9l.5-.6.8.2v-.5l1 .3.6-1 1.1-.6.2-.9h.5l.3-.2h-.7v-.5l.4-.2.8-.6-.3-.6-.5.5-.3-.1.3-.3.4-.6-.2-.3.7-.6.3-1h-.4l.7-1h-.4l.7-1.3-.3-.2-.5 1.4v-.5l-.5.3-.3-.3 1.7-3.5.6-.3v.8l.5.3 1.1-1.2.2 1-1.5.9 1-.4v.5h.6l-.4-.5.9-.2v-.7l1.8-1-.2-.9 1.2-.6v-1h.4l-.2-.6.6-.1 1-1.5v-1.4l1 .2.7-.8h.9l.2-.6-2.3 1.2.3-.6h-.3l-1 1.1.1.6-.5.4-.6-.1.3-.9-1-.2v.4l.7.3-1.6 1.4-.5-.4.1-.2.7-.2.5-1-1 .4-.2.6-1.1.4-.5 1.6-.9.2.2.6-.7.8.2.4h-1.2v.3l-.3-.3.5-.6-1.4-.3-.2.5-.5-.2 1-1.4v-.3l.9-.7h.7l-.2-2.6-2 2.4-.3 1.2-.2.7-.2.4-.3-.2-.4 1 .4.3.1-.8.2 1.3.2-.1 1-1.2.5.3-.1.4-1.4 1.4-.5.4.3.7-.6-.4-2 2-1-.2v-.6l2.8-6.4-3.9 6.3-1.8 1.5-.5-.3v-.4l2.7-5.2-2 2 1.4-3.1-2.7 3.1v-1.5l-1 .7.3-2.7-.4.5v-.5h-.4l.5-1.9-3.5 4.5-.5.4-1-.3v-.7l4-6.4v-.4l-.7.4.3-1.2 2.6-7.5 2.3-3.9.2 1.5h.6l2.1-3.9-.3-.6.5-.4-.1-.3.6-.4-.6-1.2.6-1.3-.8-.3 1-.8-.2-1.8.6.2v-.9l.8-.3-.2-.2-.7.3-.3-.2 1-.6v-1.2h.7l-.2.6v.1l.5-.4-.1.4.5.2 1-1-.2-1.2-1.2-.3-.4.7h-.9l-.7 1-.5.2-.4-.7.5-.8h-.6l-.1-.4-.4.4-.2-1.2.4-.5-.4-.5v.6l-.6.4.9-1.6h.6l-.3-.9.6-1.5-2.5-1.8-3-4-1 .2.5-1.7-.9-.4-.4.4 1.1-2.9-1.2.8-.2-.2.1.9-.4-.2-.8 1.1-.2-1.1-.6.3.2-1.1h-1.5l-.6.9-1.1-1v3.5l-.2-1.1.2-2.4-.5-.7-.8.5-.4-.4.1 1.5-.8-.7-.3 1.3-.3-.6-.6.2.3.5-.4.4.1.5h-.4l-1.2 1.2h-.4l.3-1.1h-.9l-.1.7h-.4l.8-1.3-1.1-.2-.1.8-.6-.3-.6 1.3-.8-.7v1l-1-.2-.8.7v.4l-.1-.5-.9.6.4.5h-.4l-.1.3-.3-.3-.2.6-.4.1v1.3H208l-.1 3.5-.7-.3v-.9h-.8l.8 1.4.4.1-1 .5.7.2-.3 1-1.1-.9.4.8-.3.9.1.8-.4-.5-.7 1.2-.3-.5-.6-.1v.7l.6.4-.2.5-.8-.3-.3.7-.1-1.4-2.1.7v-3.3l-.4-1.3H199l-1 .8.5.1-.1.3-.8.1-1.3 3.3-.5.3-.2-.6-.6 1.8 1 4.6.7-.1-1.9 3.2-.8.2-2.4 2.2-2.2.6h-2.7l-.2-.3-1.8-.8-1.7.4-.6-.6-1 .2-1.5-.4-2.9.7-.8-.3-.5-.7-2-.5-2.5.8-.5-.5-1 .3-.8-.3-.5.4H167l-.6-.9-.2.4.7 1 1.2.6v.4l-.8.6-.3-.3-.2.7-.6.2-.2-.6-.4.6-.2-.3.4-.6-1.1.4v-.9h-.8l.2-.7-1.1.5.3-.5h-.6l-1-.7-1 .6v-.7l-.9-.2-1.4.7-.1.7-1.1 1.3h-1l-.4-.7.2-.8.5.3 2.5-1.8-.2-.7-1.2-.2v.7l-1.2.5.4.3h-.7l.3.4H154l-.3.5h-.7l.2-.5-.7.2-.2-1 .5-.4-.8-.7h.9l-.1-.3-.8-.4.3.4-.8.6-.9-1.2.8.1-.4-1h.6l-.7-.7-.2.1.3.2h-.5l-.7-1.1h-.7l-1.5-1.5-.2-2.7-.5-1.4-.7-.2.5-.4-.8-.5.3-1.7-.8-.3.2-.7-.6-1.3.2-.3-.4-.3v.3h-.3l.2-.6-.7-.8-1.7-1.1h-2l-1-1.5-1.2-.5-.4-1.8h1v-1.2l.3.6v-.8l-.5-.3v-1l-1.2-1.3-.3-.5.5-.4-1.2-.4-.3-1h-.8l-.4-1.4-.7.1.2-1-1.3-.3 1.1-.1.5-.7h-2.1l-.1-1.3-.7-.4-.2-4.1-1-3v-1.5l-.9-1.5.2-1.4-1.4-2.4-.2-2-.8-.5.2-1.1-.8-.7.2-1.1-.6-.3.6-.4-.5-.3v-1l.6-.5-.5-1.2.4.1v-.4l-.6-1 .4-.7-.7.1v.6l-.4-.2.9-1-.5-1.3.4-.5h-.1l-.4.3-1.5 3.9-1.3 2.1-1.2 1-.6-.4-.5.6-.3-.3.4-2.4-.2-.5-.3.5v-.5h-.5l.4-.6-.1-1.2-.7 1.5-.4-.7 1.2-3.1-.4.3.6-.5h-15.3l.4.9-1.2.5.5.9.7-.3-.4 1h1l.2 1.1 1.1.9 1.4 1.9h.7v.7l-.8-.6.8 2.1.2-.1-.4 2.5.7 1-.2.9.3.6-.3 1h-.6l-.7.4v1l-.5-.2-1 1.3-.6 1.9-4.1 5.6-1.6 2-1.8.2-2-.2-1.8-1-4.2-3.3-1.1-2-1.3.3v-.5l-1 .5-.3-1.1-.7-.4.3-2-.1-.6-.4.1-.2-2.6-.8 1-1 .2.1-1.4-.6.7v1.1l-1 .5-.1.8.1-1.9-1.8-1.9.8-1.3v-1l-.4-.4h.4v-.8h-.8l-.3.5.3 1-2 1-.2-.5h-.6l-.4-.5v.5h-.9l-.4.7-.7-.5.4-.2-.3-.5h-1.6v-1.3l-1 .3.2 3-1.2.4.4.6-.3.7-.9-3.5-.6-1.1v-2.1l-1.3.2-.1-.4-.3.7-1.3-2.6-.2.3.3.2-.9.1h-.6l-.7-.9-.8.5.5-.5-.3-.2.2-.6.7.8h1v-.5l.9-.1-.3-.6h-.6l-.6.5-.4-.4.7-.4-.3-.4-.3.3-.8-.2-.3.7-.4-1.1H64l-.4-1.1-.4.4-.6-.2-.6.8-.6-.1.1-.7H61l-.8-1.2h-1.4l-.7.5.3-.5-.4-1.5-.7.2-.1.7-.4-.4-.2.2-.6-1H19.2v15l1.2 1.1.6-.5-.5-.9.5-.2.2.3.5-.8h.5l.4 1.3.9.3v-1.2l-.6-1h.6l.4-.4-1.2-2v-.5l2.1 3 .5.5.7 1.2.9.8 1.6 2.1.9.3.6 2.2.7.6.1 1.8h1.3l-.3-2.2-.8-.7.7-.9.7 2.7 1.8.9 1.1-1.1.4 1 .9.8v1.2l.9.5.4-.2 1.2 1.3-.1.4-.6-.3-.1 1.6 3 1.9.9 2 1.2 1.1.5 1.8 1.2.7 1 2 .9-1.2-.6-1.1 1 .2.2-.4-.4 2 2 3.2.3 1.3-.5.8.5 1.1-.5-.2v1.3l-1.8-.5-.2.8-.9.6 1 1.2 1.4-.6-1 1.5v.7l-.6.7v1.3H46l-.9-.9.9-1-.5-.6-1.1 1.7 1 2.2-1.9 2.4.1.3 2.4-.6.6.5v.8l-1.2 2.4-.4 4-.8 1.2-.2 1.8v2.2l.8 2.7v2.2l-3.3 4.2-.2 1.1-2.1-.6-.8.3L36-204l-4-.9-.6-.4-3.9-.7.2.3-.7.2 3.8 1.5 3.5.4 3.7 2 .7 1.6-.1 1.9h.3l-1 1.3-1.1.7.5.5.2 1.8-.9.7v.8l-.2-.5-.4 1.5-.4.3v-1l-.7 1h-1.3l-.3.3.7 1-1.2 1.7 1.4 1-.2 1 .4.2-.7.2v.8l-1 .5-.3-1 .3-.2v.5l.6-.2.4-2h-.9l.3-.6-.7-.2-.4.6-1.3-.6v-.6l-.8-.6.4-.8-.8-.2 1-.2v-1.6l-1.1.6v.8l-.9.1-.5 1.7.4.8h-.5l-.4.3-.8 1.7.3.3-.3 1.3-.8.4-1.9-1-.5-1 .4-.3-.6-.4.3-.4h-1.4v-.7l-1.5.6.5.4h1l-.2.6-.4-.4-1.3.6-.5-.4-.6-1.2v4.4l.2.6 1.1-.2.2.4 1.2-.2v.4l.3.4h1.1l.5 1 .3-.2.9 1.8-.4.8-.4.5.3-.7-.8.3.3.3-1 .3-.2.7-.8.1.2.4-1-.2-.8.7.7.2h-.4l.1.7H20l-.2-1-.6-.3v125.7l1.2-.9-.3 1.3 1.7-1 .2.6h.6v-.5l.4.6.6-.3v.5l1.4.2 3.8-.8.6.2 3-1.2v-1.1l1.3-1.1-.4.7 1-.5-.3-1.1 1.5-2.5 1.7-1.1 1.8-2.8 1.8-1.3 1.3-1.6 3.3-2.3 4.2-2.1 1.8-.5 2.2.3 4 2.3v2.1l2.2 3.6 2.7 1.4h2.7l.4 2-.5 1.2-2.2.2-1.1.5-1.2 1.2L60-53v1.4l.5.3.5-.3-.1.6-.5.1L60-49l-.8.9.1 2.1-.6.2.1 2-.8 2.2-3 1-1 .7-.4 1.1H53l-1.5 2.4H51l-.9 2.4-2 3-.7.3-1.5 1.8-.9.2-.3-3.7-1.1.2-1.3 3.5-.5.3-.9 1.7v1l-.9.9-.5 2.7-.7-.5-.8 1-.4 1.5.2.5-.5-.2-.6 1v1.6l-2.5 2.6v.6l-.9 1.7L31.7-8l-2.3 3.3-.6-.1-.4-1.2.6-3.6-.5-1.4 1.8-5-.3-.3v-1.2l1-2.1-.5-1.4-1-.3.2-.4-.2-1.1-1.3-.3v-.5h-.9l.8-1.5h-.4l-.3-.6.6.3v-.5l1-.6v-.3h.2l.2-.5v-1l-.4-1.4-1-.4v-.5l-3.8-1.6H23l-.5 2.1h-.9l-.3.3-.7-.3-1.4 1.3zm2-52l-.2-.6-.4.2-.6-.6.8-.6h.4l-.2.7.4-.3zM43.3-.6l.4-1.7.7-.3-.4.3zM20.5-17.4l.3-1.3h-.4l-.1-.9 1.2-.4.7.4L22-18zm2.3-1.1l.2-.8.9.2.1.1zm-.9-7.2h-.3v-.7l1.1-.2zm2.9 4h-.4l1.2-.6.7.2zM191.4-52l.2-1 .7-.3v.8zm-70.9 19.2l-.5-.7.4-.3.4 1zm95.9-1.2h-.2l.3-.7 1.5-1.1-.7 1.5zm-54.7 12.6l.3-.4 1-.8-.4.6zm-48-1.5l-.2-.9-.8-.4.6-3.6-1-.2h1.5l.7-.4-.5 3.4.8.4.5-.6h1.7l-.3 1.1-.9.3h-1.1zm22.1 2.3l-.6-.6 1-.8.2.4zm-39.2-47l-1.5-.6.6-.3zm29 8.8h-.6v-.4l.8-.2zm-1.7 1.8v1.3l.7.2-.1.3-1.7-.1-.8.7-1.7-1.8-.5-1.6 2-3.3 1.7-.2.8-1.5 1.1.5.2-1.7 1.2-.6.4 1.2h-.3v1.4l-.9.1v1.4l-.9-.4-.4 1.5-.8.3.5 1.9zm15-28.5l.3.5-.5 1.4.4.5-1 1.4-.3-1 .8-.7-.2-.3-.3.6h-.3l.5-.9-.3-.5zm41.5 32.3l-.1-.4.2-.8.4-.4zM177.2-213l.2.3-.4-1.1-1 .5v-.5l1.5-1.2-2.5 1-.2-.4.9-.5 1.3-.1.2-.4 2.1.1 1.1-.4 1.7.7.8-.7h-.6l.3-.8.8-.1.6.2v.4l.4-.1.2.7.7-.3.2.7.1 2-.4.6-.8.3-1-1-1.4-.3v1.1l-1.2.5v.9l-.8.3h-.6v-.3l.9-.6-1.8.5.7-1.7-.4.4-2-.2zm47.6-11.8v-.2l.7-.1v.4zm-180.1-23l.3-.4.5.7-.2.2zm-7.2-13.7l.9.7 1.6 2.7-1.6-1.3zm3 4.6l.8-1.1.8 1.5.4-.2-.6-1.3.3-.8 1.4 1.2 1.4-.3-.2-.6L46-256l-.1.8 2.4 1.1 1 1.1 1 3-.9 2.2-1.4.8.6 1-1-.3v-1.3l-1.6-.9v-.9l-.5.6.1.6-1.1-.7-1.7.1.5-.7.3-1.8-1-2.4-1.4-1.4v-.9zm0 0"/><path d="M19.2 235.2l1-.5 1.2 1.3.7-1 .9-.2-.2-1.5-1.5-1.2v-.6l-.8-.8v-.5l1.4-.4.4-.7-.4-1h-.4l-.2-.4.9.3v.3l.2-.1v.6h.6v.6l.9-.4-.4.4h.6l.2.5 1-.2 1-1v-.9l2.1-1.4H28l.4-.4-.7-1.6.4-.4h.7l.3-2 1.6-1.5.6-2.2-.5-.7 1.6-2.7-.6-.9 1-2-.5-.2-.6.1.6-2.2-.5-2-.9-.8.6-2V202h-.7l-.5-1.6-1-.4-1.8 1h-1l-.1-.7 3.3-2.2L31 196h.5l.9-1.1-.6-.6 1.5-3.4.2-1.6.5-.5v-.8h.5l-.1-.6 1.4-2.8h.6v-.6l.6.5.6-.9-.3-.2.7-.4-1-.7 1.3-1.3-.2-.5 1.2.1.7-.9.3.4 1.2.3-1-.4.2-2.6-1.3-.2.6-1-.4-.2.4.1.6-.6v-1.2l-.3-.1.7-.3-.3-.8 1.3-1 .3-1.7-.9-1.6-1.4.2-.3-.4-.3-2.5.8-.5V164l-1.2-1.3.2-.8-1.4-.5-1.4 1-.3-1 .3-.4-1.4-1.1.4-.9.2.4h1l-.2.5.6.6 1.6-1 .4.5.5-1 .9.5.5-.9 1.5-.8v.4l.6-.1 1 .6-.2 1.6h1.3l.5-.1-.4-1.2 2.2-1.7-.7-1 1-.7-.1.8.4.1v-.5l1 .1.7.7h.9l.1.8 1.6-.2 1.7.3 1-.5-.8 1 1 .9 1-.8v-.7h-.3l-.1-.4 1-.6.5-1.2 2.5-1 .4 1-1.6 2.3v.3l.8-.1-.4 1.1-.6-.2-.2.4.5.3-1.4.3-.8 1.4.5.8h1.3l.2 1.7-.9.3.4-1h-.4v.4l-1.4.6-1.9 2.5-.5.1-.5 1.4v.7l.5.2 2.4-1.3 4.2-.4 1-2.2 1.3-1.3 1.3-3 2.2-1.7.3-1.1 1-1 1.9-1.4v-.6l2.4-.9v-.3l1.8-2.1-.1 1.5.5.9-.3.9.1.4h.7l-.5 1.1 1.3 1.4 1.7.5v.4l1 .3.3 1h-.5l.2 1.4 2.4 1-1 1 1.4 1.1 2.2.2.5-.7h.9l.4-.4h.5l1.1-.9.4-1.7h.2v.6l.6.1-.1-.4.7-.3-.2 1 .3.7.1-1.2.7-.4h.3l.2.9.5-.2.7-2.1h.4l-.4.9.8-.6.4 1 .6-.5-.3 1.5-.3.3v1l-.8.4v2.3l2.3.6-.2.4.5-.3 1.7.1v.4l1.1-.2-.6.7-1.6.9 3.1-1.5.5.8-2.7 5.8.3.7-.2-.4 1.7-2.3v-.3l-.3.2.2-1.3.8-.5-.6 1.6h.1l1-1.6.3-1.8 1.1-1.4 3.8-1-.2.1v.6l.9-1.1.7.1.1-.5 1.4-.3-.1-.5.5.2 1.6-.6V162l.6-.5h.7l.7.6.2-.4h1.2l-.4-.5V160l.6-.6v-.7l.7-.9.1.7.9-.3-.2-2-.9.2v-1.1l1-.6.4.6.6-.3-.3-1.2h.7l-.2-1.3-.6-.1v-.8h-.4l.5-2.2 1.6-1.9v-1.2l1.3-.9.2-.6h.8l.3-.8h.5l.8-.7.2-1.3h.5l-.1-.4 1.3-.8v-1l1-.8.3-1-.5-.3v-.7l1.5-1h1.4l.4-1.2.6-.4v.4l.6-.2.6-.8.8.3.4-.5.2 1 .3-1.1.3.7.8-.2 2.4-1.3.6-1-.3-.4-.4.4-.4-.8 2.3-.3-.1-.7.5-.1v-.5h.7v-.9l.1.5.4-.6 1.8-3.8 2-1.2.6-.7.7-.2 1.3-1.6.7-.1 1.4-2.7 1.6-.3.3-1.3.1.3.3-.1-.1-.6-1.2-.4.6-.3v-.3h-.3l.3-.2-.3-.6.7.2.1.7 1-.6.3.5 1 .2.9-.5-.1-.5 1.1-.6-.2-.6h.4l.3-.1-.3-.4 1-1 1.2-.3v-.6l.6-.2 2-.3v-1.3h1l.1-1 .4.5.7-.3.2-.9h1.6l1.3-.8.3-.7h.6l.8 1-.4 1.7.4.5.1-2.4-.8-1.4 1.7-1.9.5-1.3.5-.3-.2-.4.6-.4-.6-.7.2-1.3-.4-.2v-.4l-1-.5.2-1-.6-.6.5-.6v-2l-.2-1h-1.4V92h-.5l.8-.2.3-2v-1l-.5-.5-1-.3-.2-.5.8-.6.4-1.5-.5-1.2.3-3-.8-1.7.3-3 .9-1.9.6-.1 1.3-1.3 1.2-.2.8-1.3h.4v-.6L168 70l.3-.8 1-.9.4-3.1.3-.5 1.3-1.3 2.7-2.9.2.2 1.3-1.8h.6l.4-.9h1l.3-.2-.3-.6 1-.6-.3-.3v-.7l1.3-1-.9-.1v-.3l1.2-.2v.7l.9.3.2-.7-.6-.6.3-.5h1l.1.8h.6l.7-1-1.2-.3 1.1-.6.3.3v-.5l1.1-.6.3-1 1.4.4v-.6h.5l-.2-.5 1.6-.3.1.3.4-.5-.4-.5.8.6-.4.6.6.2-.2.8.5.1.6-1.3h-.7l-.6-.8.4.2.7-.1 1.3-.9v.4l.5-.8.5-.2.1-.8 1 .4v-.4l.7-.1.2 1.4h1.6l3-1.7v-.5l.9.3-.5-1.5 1.2-.4.1.9h1l.4-.8 2.8-3h.3l.4.5 2.2-.4.4-.9-1-.7.7-.7v-.8l.5-.2v-1.2l.8-.3-.4-.4.6-.4.5.3-.2.7 1.3-.1.4-.6h.7l1 .9.3-.5-.6-.7 1.4-.5-.3-.3.5-.7.6.3.3-.5.6 1.8 1.3.4-.6-1.8.5-1.2-1-.6.3-.6.5.2.2-.2.5.8.2-1.3.6.2V31l1-.7-.5-.8.7-.1.3.6.8-.6h1.1l-.2-.4h.4v-.3l-.5-.7.5-.2-.1-.3-.8-.2-.1-.3h1.4l-.4-.9h4l1 .5-.6.1 2 1 4.2.3 1.5-1.5-.4.1.2-.6h.5l1.5-1.6h.7l.3.6v.4l-.2.3h.2l.5.3.8.9 2.7.9-.1-.5-2-.3-.8-.7-1.1-2-.1-.2h-.9l-1.4 1.3-1.1.4.2.2-1.2 1.2-1.6.2-3.4-1-1-.9 2.4.6 1.5-.1-.6-.5.6-.2h.4l-.3.3 2-.2 1 .4-.2-.6h-7.1v-.7l-2.9-.9.7-.6 1.8 1.3-.3-.3 1.4-.3H225l-1.1-1.1 1.8-.3.8.5 2-.7h2.4l.7-.6 1.1.2 1-.5.3.8-.1-1h1.1l1.5 1.6.2.3-.2-.7-.2-.3-1.1-.7.2-.1 1 .2v.2l.3.3.1 1.2.5.7h-.3.4l.4 1.7-.8-3.1.3.4h1.7v1l.5-1.1.8.2 1 2h1l-.3.2.2 1.2h.2l-.3-1 .4.3.5-.6-1-.4v-.7l-1-1-2.3-1.5-.1-1.5-1.8-3-.3-.3-3-.9-1-1-.5-.9 3-1.4h-.4l.1-1.1.3.7-.1-.7 1.6-1h.5l1.5-1.1.1.5 1.8-1.3 1.6-.5.4-.8 3.8-2.4 1.8-.1-.6-.2 1.3-.6 3.2-3.2.8-.5h-.5l-3.7 3.4-3.2 1.2-4.5 3-2.4 1-.2.4-1.7.7-.2.1.2-.4.1-.3 1.8-.7v-.5L236.3 9l-.4 1-3.9 1.4.4-.2-.2.5-1 .2-1.6-.5-1 .6-.3-.6-3.6 1.2.5-.6-.5-.3.3-.2h-1l.8-1-1.3.3v.3l-.7-.8h-.8V9.2h-.5l.6-.2-.2-1h-1l-2.3 1v-.5l.9-.3v-.7l.4-.3-1-.2-.1-.6-1.4.3-.4-.5-1 .8-.3 1-1.3.7-.3-.4-.7.1-.8 1.6-1.3.5-3.3-.5-1 .9-1.3.1.7-.6h1v-.7l.4.3.2-.6h-.4l1.4-.7-1.1-1.9 1-.3.2-1.6-.6-.4h.5l.2-2-.4-.1.6-1-.6-.2.8-1.2H19.2v41.4l1.4-.7v-.4h-.4l.2-.4h.8l-.1-.6.5.3 1.2-1.3H24l-.2.9-1.3 1.1v.6l.6-.4v.3l-2.1 1-.1.8.4.4.7-1.3.4-.2-.4 1 .3.2-2 1.3-.1.5h-.7l-.3.9zm17.3-54.5l-1.2-.3-.2-.7 1.5-.4zm-10.8 47.4l-.3-.4.2-.3h.4zm9.2-44.9h-.7l-.1-.4 1.2-.8-.2.6.5.5zm2.5-19.2l-.4-.4 1.4-1.3v.8l-.4.4-.4-.2zm52.2-4l-.3-.2.7-.5v.6zm94.2-110.2v-.3l.7-.3v.5zM39 158.8v-.2l.7-.4v.4zm-4.6-.9l-.4-.5.4-.8.2.7h.5l-.3.4-.4-.3zm21.6-8.6h-.6v-.4h.6zm-16.3 8.9l.3-1.2.8.3-.4.7zM64 133.3l-.5-.7.2-.6.5.2.2 1zM210.8 34l-.5-.2 1-.3v.3zm2.4.3l-.2-.7.5-1h.4v1zm10.7-8.9l-1-.2v-.1l1.1-.2zm1.6.3l-1.3-.3-.1-.7.8.2zm1-3v-.6l-2.8-.1.7-.7 2.2.7-1.6-.6-1-.1.7-.5-.4.2h-.2l.6-1.6.6.1.7 1-1 .3 3.3.6v.4h-1l.4.2zm2.3-.9v-.4l.8.2 1.4-.6-.4 1zm1.6-.8l-4.4-.9-.9-1.4.7-.4.2-1 1.4-.3 1.5 1.6 1.7.9.3 1.1-.7.1h.6v.3zm-53.9-8.3l-.4.6-.6-.7 1-1-.3 1.1zm55.5 1.5l-1-.4.2.4-.7-.2.5-.5h.7zm-6.5 0l.5-.8.5.1-.1.5zm4.9-.5l-.4-.2.9-.6.1.4zm2.5 7.2l-1.4-.2-.5-1.2h.6l-.1-.3.5.2-5-3.1.4-1 .6-.5 3.4-.6.8 1 .6.6 2.4.4 1.2.8 1.9 2.6.5 2.4h-.8l-2.2-1.6h-2.2l-1.5-.8-.1.1 1 .9zm-4.2-6.3l.9-.7-.1.2.8-.1v.2zm-11-6.6l.5-.4.8-.2v.2zm9.2 5.7l.1-.7h.7l1.2-.7h.5l-.3.3h1.4l-.7.6zm5.1-1l-1-.3 4-1.9.2.3-1.2 1.3zM19.3-28.9l-.6.6-.4 1-.9.7.2 1.2-1.2 1.8-.4-.2.6-.7-.2-.5h-1.2v.3l-.6.5-.6-.2-.3.4-1.6-.5-.1.6-.4-.1v1.2l-2-.5v.8l.9-.2.4.7v.5H9.5v.2l.7.7.2 1.3-.5-.8-.7-.1v-3.9l.5.4v-1.6l.4-.2-.1-.4-.8-.1-.4.5-.2-1.5-.4-.5-.8-.7-1.5.2L7-26.8l-1.4 2 .4 1 .8.3-.1 2.5-.1-1.8-1.7.8v1.7l-.4.8.2 1.3h-.3l-.6.5.2 1.1 1 .4-.2-.7h1l-.3.9-.4-.3-.1.3v.7l.3-.3.3.7-.6.4-.6-.2-.2 2.5-.8-.2-.8 1.2h-.4l-.5 1.8.1 1.4h.4L2-7 .8-5.8l-1 2.9-.4-.2-.4.5.2 1.6.6 1h19.5zM2.9-9l-.1-.6h1l-.6.7zm3.5-8v-.6l.2-.7.2 1.1zm5.3-1.7h-.2l-.4-1.8.6 1.3zm7.3-5h-.4l.4-.5zm-.9-1.5v-1h.4v.8zm-.1 0"/><path d="m-259.8 67.6.2.2-.1.7.9 1.1 1 2.8 1.2.6v1l1.2.8h-.4l-.2.8.5 1.7 1.7 1 1.1-.2v-.4l1 .8.8-.5v-.6l-.6-1.4.9.7.2-.5 1.1-.2-1.1-1.8.3-.8-1.7-2.6.5.5 1.1.2 1.6 2-.3 1.1-.6.2.8 1.7 3.5 4 1.2 2.7.8.1v-.9l-.8-1.8.2-.6-1.2-2-.2-1 .2-.2-.4-1.1 1.8 2.7.5 1.3-.3 1.6 1.2 1.3 1.8 5 .7.8 3 1 1.7 2.6.2 2-1-.2.4 1 .7.6 1.5-.7.8 1.6 1.2.8-2.8-5.6.8.7 1-.2.6 1 1.6 1.4h.8l1 .8.3-.1-.9-2.1h.9l.4.7v-.3l-.1-.5-1.4-.3-1-2.6.4-1 1.4 2h.6v-.3h.4l-2.8-5.7.4-.5.2 1h.3l1.4 1.5-1.7-4.2 2 2.4 1.1 2.2-.5-.2v2.1l1.4 2.2 1.7 1.5v1.4l.8-.4-.4-2.5.3-.6.5.1v-.4l-.3-.6-.7.9-1.6-.7.1-.6.9.2.3-.5-1-2.5 1 .8.3-.6 1.3.3 1.6 2.4.6.3.4-.6.6.8 2 .4-.9-2.3.4-.4.7.5.4-.7-3.2-4.2-.5.3.8 1.8-2.4-.9-1-1.7-1 .2-1-1.6-.6-1.9.8.4.8 1.2.5-.3 1 .1v-.5l.3.9 1.9 1.5-.2-.7-1.3-1-1.7-3.4-.2-.8.7.2v-.5l-.7-1 1 1.2-.2-.7h.3l-.2-.3v-.4l.1-.1.4 1.2.6.3.1-1 3.3 5.8-1-2.3h1.1l-.4-1.5h.9v-.8l1-.2 1.4.3v-.7l1 1.2-1-.3.8 1.8 2.5 2.2 1.2-.5 1 .8.7 1.5-.6-2.2-1.5-2.3.1-1.5.3.1v.6l1 .2v.8l2.2 2 1.8 4.7 1.5-1-.7-2.3 1.1.6 1-.2-.4-1.1h.4l.7 1.3.8.5v-.5h1.1l.6.9 1.2.8v-.5l-1.6-1.5h-1.5l-.9-.8v-1.1l.3-.8.4.3-1.2-2v-.8l2.3 1 1.3 2.4h.7l.4-1 .4 1.4 1 .3.7-.4.7 1 2.1-.2-.2-.8.7.3v-3.2.6l-1.1.5-.4 1.8-.4-.6-.7.6h-.7l-1.1-1.2v-1.6l-.7-1.3-.5.4.5 1.2-1.1.8-3.9-2.5-.3 1 .9 2-1-.1-.2 1-.8.8h-.6l-1.3-1.9-1-3 1.8.6v-1l.4-1-.2-2.1.8-.6.4.6.8-.3.4.2.8-.7 1 2 .8.2-1-2 .1-1.1-.3-.6.6-1.2-.6.1v-.6l-.9-1.2 1 1.2.4.2v-.7l1.5 1 1.9.9.3.8 1 .5 1-.2h-1.3l-1.6-2.2-.7.4.3-.8-1.7-.9v-.8l-1.3.5-.5-.6-.7-1.3v-.3h1.1l-.3-1.8 1.5.4.9 1.2h.9l1.4 1.5h1l-.4.1.5.6h1.6l2.5 1.6-.6.2-.1.4 2.2 2.6.6 1.3v1.8h-.7l-.1.8.8.2v.4l.7-.1v-.4l1 .5 1 2 1.5 2.1h.6l-2.5-4.5h.3l.1-.5-.6-1.9-.9-.6.5-1.6 1.4.6.4-.1.3-1-.6.3v-.6l-1-.1-1.1.2-1.9-3-1.5-.8-1.8-2.5-1.8.9-.2.4-1 .1-1.9-2.7-.1 1.4-1.2-.9-1.5-.4v-.9l-.7-.6.3-.5-.6-.8-1-.4.1-.4-.9-1 .6-.5-.5-.5-.4.4-.4-1.4.7.2-.2-.3.5-.2-.4-.5.1-1.1.5-.2.7 1.2-.3-1.8.4.3v-.4l1 .1v-1.2h.2l-.4-1.4-.9.2.3 1h-.9l-2.7-4.2h-.6v.7l1 .3v1.1l-1-.7-.3-1h-.9l.2-.7.2.1-.1-.6.3.2-.1-.8-1.6-.1-.7-.6v-.9l-2.2-3 .6-1-1-.7.4-1-1-.5-2.2-2.8-.6.2v-.5h.4l-.4-.7.3-1.7.3 1h.4l.9 1.1h.8l.6-1 .6-.2-2.5-5 3.2 3.1.4.2-.3-.6.7-.1-.3-.5.3-1.1 1.6 1 1.2 2 .4-.5 1 .5.4-.6-.3-.3-.5.1.2-.4-1.1-1.2v-.8l-.5-.5v-1l1 .2.2-.4-1-3.3 1.2-.5.9.5.4.9-.5.7h-.7v.5l1.5 1 1.5.2v.4h-.3l.2 1.8h.7l.6.7-.4 1.7 1.5 1.5.8 1.6.4.3-1.2-2.4h.6l.8.8.1-.4h.6l-2.2-5 1.3.3.5.7.4-.3 1.3.2-.7-1.2.6-.2-.7-2-1.5-.8-.6-1 3.1 1.8.8-.2.4.3 1.1 2.9 1 .4.8 3 .6.8.4-.3-1.3-2v-.8l-1-2.7 1.2.7.6-.2.1 1 .8.9v1.5l.3 1.6 1.4.9.7 2h.3l-.6-1.3h.3v-.9l-.9-1.4.5.2v-.5l.3.7 1.3.7.8-2.1-.4-.9 1.2.5h-.6l-.1.4 1.6.3.1.4v-.4l.6.1-1.5-2.7 1.7.2 1 .7.9 2-1.6-.9-.2.7.4-.2.2.8-.5-.2-.1.4 1.8 1.3.7 1.1.4-.1.3-1.2 2 2 1.8 2.3 1 2.6.7.4 1 2.2v.9l-1.1.5-1.4-.3 1.9 3.1v.6l-1.2.4-.7-1.7-1.3-.4v.6l.9.6v.6l1 1.5-.1 1.5h-.6v.5l.5.5.3-.8.2.8-.7 2 .6 1 3.5 2.3-.5 2.5h.5l.8 1.3 1.3.2v-.2l-.4-1-1-.5v-1.3l1.2-.3-1.5-.7v-1.7l1.1 1.7h.4l.2.7-.2.2 1 .6.5 1.5.6.7 1 .3v-.6l2 2.3.7-.1v-.6l.3.2 1.5 1.5.6-.2-.2-.7-1.8-2.3-.6-.8.6.3.6.2 1-.2.8.6-.5-1h-.9l-1-.9.3-1 .8.7 1.5-.4-.7-.8h-.8v.5l-1-.9v-1l.9 1 .2-.3-1.2-1.5-.4-.7v-1l-.6-1.3-.4.6.6.4-.8 1-1.4-.8 1 1.8.8.4.2 1.9-2.6-2.3-.5-2-1-1-.4.5 1.1 1.5.7 2.4-1.1-1.4-1.7-.2-.3.4-1-.3-1.8-2.4-.3-1.3.5-.4-.4-.3-.2.3-.4-1.2.4-.4 1 .7 1.1-.2-1.5-1.4-.6-1.7-1.3-1.6 1.4.2.5 1.2 1.9 1.8-.3 1.3.7-.1-.3-1.4-.3-.5v-.5h.6v-.5l-3.1-4.9 2.8 2.2.5-.3-.9-3-1-.5-.6-1.4.3-.2.7 1.3.7.4.8 2.3.1-.3.9.2v-1.3l1.5.3.2-.6-1.6-3.7 2 1.4.6 1v-.7l-1.3-2 3.5 2-2.5-3.4 1.5 1.2 2 .4h.4l1.2 1.1 1.4.4-1.3-1.8-.1-.6h.2l1.6 1.2 1 1.5-.3.3 1.2.2v-.4l1.6 1 .1-.2-2.6-3.4 1.1.8 1.6 2.3.8.2.7-.7-1-1.3 1.3.2 1.7 1.6h.6l-1.3-1.5v-.6l1.9 1.1.2-.6.3.8.5-.6.4.5-.1 1 .5-.4 1.1.6 1.4-.5.5.4-.3.3h.4v-.4h.3l.7.8h.6l.3-.1-.6-1.5.9.4 1.4 1.3 1.5 2.5-1.3-.6-1.9-2-.1 1.4.4.1 1.1 2.3 5.3 5.2.8.4h1.4l1.3.9.3 1.3-1.2.3v.5l-1.7-.9.4.7-.4-.1.2 1.5 1 .8.6-.7 1.2.4.8 2.2 1 1.3.6 1 .4.4.2 1.4-.3 1.8.7.6.5-.5 1.2 1.2-.5-1.8 1 .1.8.7 1 2.9 2.8 4-1.7-1.6-.9.3-2.6-2.9h-.4v1l-.6.3.2.5 2 .9.7 1.4 3.1 2 1.2 1.8.4 1.2-2-2.1-.2.9 3.3 3.5.7.2-1.2-2.7.7.1.2-1.2v-.8l-.8-.3-.1-.7h.4l-.4-1.1-2.4-2-2-3.5 1.9 1h.5l.2-.5 1.1 1.3v1.1l2.1 2.2-.2 1 1.3 1.1.8 2.4h-.4l-.2.9-1-.8 1 2-.3.9 2.3 3 .6 1.4.7.9h.4l-.8-2.1 1.8 1.4h1.2l-.3-3.4 2 1.7.7 1.8-1.6.2-.1.4 1.2 2.6v.4h-.7l1 2.5.3 1.7-.7.8.6.1 1.2 1.7v.5l-.8-1 1.6 3.6-.6.2 2.6 2.8.4.9.7-.5 2.1 4.2-.2 1.8-1.1-1.1-.5-2.6-.8-1.5-.4.4-.5-.3-1.6-2.9-1.9-1.3-1.4-2.7-.8.5-.8-1-1-.5-1.4-2h-1.8l-1.3 2.7 1-.5 1 1.8 1.1.3-.6.2 1.2 1 .7.2.5-.4.6.7v-.7l.6.2.8.6.7 1.9.4-1 .5 1 .6-.2 1.3 1.5v-.4l.6 1 2 1.7.5.8-.2 1.4-.6.1-1-.5-1.1-1.4-.4.2v.6l-1-2-1.1-.2.4-.9.5.4-.9-1.5-.4.6-.6-.2.4.6h-.3l.3.8-1-1.1h-.4l.9 1.9-.1 1.5.5 1.2.5.2-.3-2.1h.7l.7 1.1 1.9 2 1.6.6 1.2 1.3v1.1l1.3.1v-.6l1.1-.2.1-.8 1 .9-1.1-2.5.3-.2 2.2 1.9h1.3l-.5.5.9-.2 1 .7.7 1.5 1-.2v-1.1h-1.4l-.8-1.7h-1l-.6-.3-1.4-2.6-.5-2.4 1.9 2.8 1.3 1.2.7.4.5-.3.2.2 2.4.5.6-1.9 1.4-.2.5-.6.7.4.8-.4 1.2.3v-1.7l-1.5-1.4v1.7l-1.9-3.4 1.1.6.3-1.1 1 .9 1.2 1.6h.4l.4 1.5h.4v-.8.9l1.6 1.9.1-1.4h.6l-.7-1.6h-1.5l-.7-.2v-.3l1.5-.3.2-.6.3.7 1 .3.2.9h.7l-.7-1.3-.9-.5v-1l.6.2 1.3 1.5.8-.5v.7l1-1.2h1.5v-.6l-.3-.7.9-1.5 1.4 2.5-.3 2-.5.4.5 1.5.5.4-.6.6.1.4h1l.3-.6.9 1.7 1.3 1.5h.5l1.2-1.3 1.4 1 .4-.3-.3 1.2-.7-.6-1-.2-1.4 2.6-2.7.2.2-.5-.3-.9h-.9l-.4 1.8h-.9l-.2 1.7.6.2-.4.4 1 1v1l1.6.7.3 1.7.9-.1-.2-.6.5.6h.3l.1-.6-.6-2h-.5l-.2-2.3-1.1-1.1.2-1 .8.4.5 2 1.4 1 .4 2.7v1.3l.7 2.1-.7.9h-.5l-.5-.6.2.9h.6l.8 1.7h.4l.2-.4-.8-1.5 1-.1v-1.5h.6l1.6 1.1v.7l-.6.5-1-.1v.8l.8 1.4-.1.7-1.3-.2 1.3 1.5.1 1.3.5.8.7-.4v-1.7l.6-.7.1-2-.7-1.3.4-.9h-.5l-1.5-2.6-1.2-.4-.4-1.8.2-.6-1.3-1.7-.1-1.8 1.5-1.7 2.2-.4 2.7-2.8.6.3.4-.5v-1.5l.4-.2 1.1-.7-.3-2.1.6-.9 4.6-3 2-1.6 3.6-4.7 1.6-.9 1.7-1.8 1.2-.2-3.2 5.2-4.3 4.7.7 2-.4.7.4 1h.3v.7h.7l.3.6h-1.5v1.9l-1.3 2.3.6.7 1-.2.3.7-.4 1h-.5l.2.9-.4.2.3.6-.3-.2-.3.5-.7.3-.4 1.3-.8 1 .4.1-.7 2.3.5.3-1 2 1 .5v.4l-.8.1-.1 1.1h-.6l-.3 1.4-.7.5.1.7-.6.1.1.9.3-.2-.4.6-.5-.2-.5.7.3.9h-.4l-.4 2.5-.5.2-1.6-.5h-1.2l-2.4.9-.5.9-.3-.3-.2 1.6-.4-.2-.2.4.5 1.7-.3.8.4.5-.6.4.3.8-.7.4.2.4-.7.4-1 1.8.7.8h.5l.8-1.4 1-.3.7.7-.4 1.1-1 .9.2.3h-1.4v.5l-.5.7h-.9l-.4.7-.8.2.1 1.8-.7 1-.7-.1-.1-1.1-1.6-1.8-.7.5-.7 1.3.3 3 2 1 .2 1.3-.8 1.3-.7.4-2.2-2.4-.8-.2-.4 1-1 .6h-1.4l-.6-.5-1 .5-1.3 1.6-.6.1-.1-2.2.6-1 1 .1-.5-1.5-1.6-.3.3-.4-.8-.2-.5.4.8.5.7 2.1-.5 1.7-1.3-.3-1.3-1.8-1.6-.3-.6-1-1-.2-1.4-2.6h-.3l-.2-1.1-1.3-1.4.3.8.8.5v1l.7.5.7 2 2.2 2.1 1.4.9.4 1 1 .8.7 2.2.8.5.9-.3.8.3-.2 2-1.8 2.5.2 5.3 1.5 1 1.3 2.7 1.4 1.8.7.1 1.5-1.9h1.2l.9 5.1-.7 2.3.8-1.4v-3l1.6-1.4.8-3.6h.4v-.7l1-.3.1-1 1.5-.2 1.1-2.4h1l1.1-.8-.6-.5-2 .1-1.8 1.5-.2-.7.8-3 1-.3.8 1 .4-.5 1 .2.1 1 1.6-1-.2-1.5-1.5-1.4.2-1 1.4 1.8 1.6-.6 1-2.4 1.1.2v.3l.7 2-.6.2-.4.1v1.9l.5.4.9.2v2.5l-.2.6h.8l-.2.9.5.3.7-.6v1.3l1.7-.1.8-1-.1-1.2h.5l.2-2.9.4-.3 1 .4.4-.5v1l1.6.6.3-.6 1.2.3.5 1.4v1l-.9.7 1.1-.8-.2-2 .8-.2v.6l.5-1.3-1.3.8-.2-.8-1.7-1-.2-1.7-1.3.5-.1-.3.2-1 .5.3.5-1.7-1.2-1.6h-.4l.6-.8-.4-.7.2-.8 1.7-3.1-.3-1.2-3.2-.1-.6 1 .1 1.1-1.7 1-.1 1.9-2.9 1.2-.6-.1-.1-.6h.1l1.1-.7 1.2-1.6.6-1.4 1-.7.1-.8-.6-.4v-.6l.8-1.8 6-8.6 1.2-3 6.5-4.1 1.4-1.6.6-1.8h2l.4-2h.9l.6-1.4.2.5 1.8-.2.6-1.8-.4-2 .8-.8.4.5-.5 1.1.4.8-.2 1 1.7.1 1.5-.9 2.2-.8-.2-.2 2.6-.5 1.9-1.3.4-2.5.5-.5.4.5.7.1 8.3-3.3 6.9-3.5 2.6-2.3 3.4-2 .7-.5.6-2-.1-.8-1-.5.6-2.1 1.9-2 2.6-1.2.5 2.4-1 3.3-.9 1.5-3.1 2.4-1.3 2-.4 3.5-1.6 5.6-1.1 2-1.2 1-.4 1.3-2 1.4-3.1 4.6v3.8l-1.9 2.2.4 1.6-.4 1.7 1 1.6-.4.3.4.6.7.4.3-.5.1.3 1-.4.3-1.4.6-.6-.5 1.3.4.5.5-.6-.4.9v1.4l-.6 1.5h.9l-.4.6h1v-.6l.1.6.7.1-.1 1-.6.5h.4v.3l-1.4 1.1.8.1-.1.8.5-.5.5.5-1 2 .2 1.6-.3 2.9-1.2 1.7-.6 2.3-1.5 2-.3 4-1.4 2v1.9l-.6 1.8-.8.2.4-2.8-.5-.1-.8.5-.3-.3-.3 1-.7.5.2-.1.3 1.3.5-.9.4 1.7.4-.8.5.4.2 1 .4-1.1.3.3.4-.6.2-1.6.6.7.4-.9.5.8.1 2.1-.4.6-1 2.6-1.8 1.2-1 2.4-.9.5-.6 1 .5.9-.6-.2-.1.6.3 1 .4-.1v.4l-.4.3.1.2-.5-.3-.3.6v1.3l.3-.4.2 1.6-1.2.6-1.1 2-.5 2-.6.4-.2.7 1 .8-.8 1.9.5.7h-.3l-.7 2.4-.5 8.5-.3.6v.8l.8 1-.3-.1-.4 1.7-.4.1v2.5l-2 1.5-.4 1.3-.7.7 1.3 1.3v2.2l-1.5-.3-.9.6-1 1.9 1.6.5.4 1.4-1 5-1.1.1 1.2.3-.1 4.3 1.3 5.9-.4 1.1.3 1.4 2 3.4h.7l.7-1.7 1.5-1.3 1.6.1-.1 1.1-2.3.1-.9 1.3-.6 2 1.2 1.5-.7 1.2.1 2.1-.5 1.6-1.3.8-2 2.5v2l-.3.6.2 2.2.8.5-1 .4-.4 1.2.5 3.5-.5 1.3.7.9v-2.9h.6l.4-1-.1-2.9.3-.6-.9-1.7.5-1.7h.2l.6-1.8.5 1 .6.4.7-2 .5 2.8-1 .3v2l.9-1.5.6-2.9.3.3.3-.9.4.4.4 1.6-.6 2-.8.3.3 2.2-1.1 7.3 1.7.2.3 2-.7 3-.6.2-.6 3.4-1-1.2-2.6-.7-2.7-1.6-2-.4-.7-.7-1.9-6 .2-2-.6-1h-.7l.2-.6.5.2.3-.5.7-2.3h-.8l-.8-1v3.3h-.8l.2.3.3-.1v1.1h-.5l-1.4-1.8.2-1.8 1.2 1.2.5-.9-.4-.3-.1.4-.4-1.6-.8-.8.2-4.5-.3-.5h-.7l-2 .7-.7 7.7.7 1.3.6 3.7 1.2 2.3.3 2.5.9.7v-.9l.7-.3-1 2.5.3 3.2-1 2.6h1.2l1.3-.3v.3h.5l-.4-.6 1-4.3.6-1.1h.5l.6-.3 3.3 1.3 2.4 1.9 2.4.4.8 1.8 1.8.9h50.3v-22.8l-2-.1v-.5l-1.1-.6-1.3.5.3-.5-.5-.3.3-.5-1-.5.7-1.3-1.1-.7v-.7l.7-.7h-.4v-.7l.7-.8v-.8l-.9-1.4-1.4-.2.4-1.8.5-.3-.2-1.3.4-1h.6l-.3-.6h.6l.9-.4.4-1.5.4.1 1.3-2.1h.4l.5-1.7.7-.5.3.4-.2-.4.3-.3v-189.9l-1.2 3.3h-.7l-.2 1.8-.6.5-.3-.9-1.3.6v.4l-.7-.4-.6.7.3-1.1-.4-.5-1 1-1.1-.3.5-.5-1.5.8.2-1 1.3-1.4.3.7-.4.5.5.4.6-.9.3.2 1.8-1.7.8-1.7 2.4-1.6.4-1.2-.3-1 .9-.4v-41.4h-19.6l.8 1.4-.1 4.4.6.7-.6 1.7.1 1.5-1 1.8v1l-.8 1.1-.9-1.5-2.3-.7-1.5-1.4h.5l-.8-1.5.6-.5-.1-.7-1 .1v2l-.7.6-.5-.4-.3-1.1-1.1-.8h-.5l-.5-.8-.9-.3-.2-.4h-.7l.3-1-1.3-.5-.8 1.5.1.5-.9.3-.1 1-.8.3.5.5h-.4l-.5 1.5-.6.3-.5 2.9h-.4l-.7 1.1.1 1.7-.8 1-1.3.7v.5l-.4-.2-.3.3-.7 2.9-1.5 1.9-1.9 1.1-1.6 2h-1l-1-.8-1.7 1.1-1 .9-.3 1.4.2.4-.5.4-.6 2.5-4.9 3.3-1 2-1 5.3-2.5 3-1.7 2.6.7.4 1-.5h.3l-2.2 2.7-.3-.3.5-1.2-.2-1.2-1-.1-.4.4v-.4l-1.7-.6-.5 1.4-.6.1-.5 1.5v-3.5l-1.1-.3-2.1 2.6-1.8.8-.2 1-2.2 1.6-3.2.9-4.5-.3v.6l-.8-.5-.3.3-1.2-.3-.9.2-.1-.5-1.2 1h-1.5l-.7.8-2.3-.5-2.6-1.4-.7-.8.2-.3-.9-.9-.6-1.9.4-.7-.6.3-.7-.8-2 .5-1 1-.6-.5-.9-.7-2-1-.3-1-2.9-.9v-.6l-.8-.3-1.2-1.7-2.8-.6-.3-.3.5-.3-.6-.2-.3-.8-2-.3.5-.4-.5-.3v-.5l-2.4-.6-.3.5h-1.7l-.5.7.3-1.1-.8-.4-.5-1.4h-.4l-1-2-1.9-.2-.2-.6-2-.2v-.8l-.4.4-.3-.4-2.7.3-3.2-1.7v-.6h-.7l-.7-1.8-1-.6.1-.6-.4-.6-.9-.7v-.7l-.7-.6-.8-2h-.5l.2-.8-1-.3-.2-1.2 1-.3h-.8v-.7l-1 .1v-.5h.9l-.6-.6v-.9l-1.5-.7-.8-1.8-.4.8.8.8-.3.4-1-1.3-.5.4-.3-.3-.4.6.1-1.3.5-.2-.5-1.1-.5-.3.5 1.5-.4.3v-1l-.8.2.4 2.2-.6 1.3 1 .1.2.4-1.5.4.3 1 .2.2.3 2.5.7.2-.5 3 2 1-.5 1.1.8.5.4 1h.5l-.2.9 1 .2-.7.2-.8 1.4-1 .3-.4 1.1h-.6l-.6 1.2-2.8.7-.7 1.1.5 1.2-6.4-1.8h.8v-.6l-.8-.5h-.9l.2-.3h-.3v.7l-1.8-2.4-2-.5v-.4l-1.8-.8h-.3l-.1.8-1.3-.8.1 1.8h-.2l-2-2.4-.4 1-1.7-1.6-2.3-.9-2.5-2.7-1.1-.2-1 1.1-.1.8-1.8-.3-.4.4-.7-.5-.9.5-1.1-1.1-.2.5h-.6v-.4l-.6-.2.7 1.2-.5-.1-.4.3-2.2-2-1.2-.2v.6l-4.6-4.1-1 .4.2-.9-.9-.8-.7 1h.4l-.1.2.3-.5h.4l-.6.7.2.4-1.5-.9-1-1.3.9.5 1.3.3.3-1-1.2-.8-.8.8-.7-1.6-1 .1.1-.3-.5-.1-.3-1-1.4-1-2.2-3.4-2.2-2-.3-.5.3-.4-1.5-1.7-.2-1.4-.6-.5-.7-2-2.6-3.1.3-.2-.5-.2.2-.2-.8-1.1.7.2-.5-1 .8.1-.2-.3h-6.9l1.1.8.4 1 1 .3.7.9v.3l-.4-.3-.5.4-.5-.8-3.4-2.6h-.8l.2.5-1.7-.5h-62.4zm267.6 179.5-1-.6.1-.9-.7.1-.9-.5v-.4l.9-1.5v-1.1l3.1-3.3v1.1l.9-.4-.2.3v1.6l-.7 2 .3.3-.3 1.5-1.5 1zm-25-104.6.2-1 1-.8-.5.8h-.4zm-11.7 50.2-.5-.2-.1-.7.2.2.8-1v1.3zm-54.3-22.5-.5-.2v-1l-.4-.6.4-1.3.6.5-.5.8zm-1.4-2.9-1.4-1.1h-.7l-1.3.8-3.3-.6-.1-4 2.4 1.3 1.1-1.1 1.2-.2 1.2 1.2.1 1 .4-.3.3.5.3 1.7zm.4-4.5h-.7l.2-1.4-2-.1-.7-2.4.3-.4.5-.2 1.7 1.2h.4l.2 1.5 1.3-1.5v2.1l-.4.9zm21-4.8-.2-1 .3-.3.8.9zm-26.5-2.9-.2-.1v-.7l.7.2zm25.4 4.2v-.9h-.3l.2-.5.4.6zm-16.6.5-1.7-.8-.1-.6h-1.9l-.4-.7.4-1.6 1.2-.5 2.6 1 .2 2.9zm6.4-3.4h-.5l.2-.8.5.3zm53.4-21.2-.6-.4v-.5l.6.2zm-55.6 19 .1-.4h.6v.3zm56.9-22.5-.5-.4 1.4-1.6-.1.8zm-21.8-10.2 1.8-2.9 1-.3-1 2-1 .3-.5.9zm-56.3-16.6v-.9l.6 1.6h-.2zm-7.4-.4-1-1-.6-1.5.9-1 1.3 1.8.1 2.3zm4.5-1.7.1-.3 1.5.8.2 1.7zm-2.5-.2-.6-1.3-.2-1.3 1.9 2.8.6 2zm47 26.4.7-1h.8v.4h-.8l-.8.7zm1.7-3.6h-.3l.5-.8.2.4zm-5.1-2.3v.7l-.3.7.3.7h-.3l-.4-.9zm7.2-.2.4-.1-.1.6-1.1.9.3-1zm-4-.9h-1.1v-.2l.7-.5zm2.3 5.7-.2.3.7-2.2 1 .2zm-3.7-.7h-.1v-1l.8-.3zm6.2-3.2.5.2.9-.5.6-2.1.5.6.7-.8.4-.2-.7 1.6-2 2.3-.2 1.7-.3-1-1.3.4zm2.2-9.6-1.1 1.9-.4 1.2 1.4-1h.8v.2h.5l.4-1-.7.4-.4-.7 3-4.6.8-.3v1.2l-1.3 2.6v.8l-.5 1-1 .5-.7 1.6.6-.6.2.2-1.4 2.2-1.6.5-1-1.3-.9.8h-1.1l-.8 1-.3-.2-1.4.4-1.2-.9-.6.9.2-.9.6-.1-.3-1.8-.7-.2-1 1.4-.8-.7v-1l2.4-2.3.3-1.1 5.2-4.3 2.3-2.5-.2-.7-.5.3-.1-.4.4-1.3 2.7-1.4.8.8-1.2 2.8.1.7h.7v.7l-.5 1v1.1l-1.2 1.4-.7 1.7zm-12.3 5-.6.5.4-.7.8-.2zm.2-.8.3-.4h.3v.6zm-16 .1-.2-.2.2-1 .4.9zm42.3 111h-.3l-.2-2.1.4-1.8.6.8zm18 49.3.3-2 .6-.8-.6 1.6.3.5zm-3.1-.5.1-1.4.9-.6v.4l-.3.4.1.4-.3.1.2.5zm-1.6-7.3-.6-.3v-1l1 1.3zm-23-2.5-.3-.8.5-.2v1zm0-1.4-1-2.1 1.3.7.1-.8.6-.2-.7 1.5h.4zm18.7-2.2.7.5.2-1.7.4-.3v.8l.3.7-.5.4v1.1h-.8v.2l-.7 4.6-.3.1-.6-.9-1 .1-.7 2.9h-.3l-.8-1.5 1.1-4.2-.2-3.2 1-2.4-.5-1.8h.6v-1.6l.7.5.7-.2.6-2.3v2.3l-.7 1.5v3.8l.1-1.5h.5zm3.4-10.6-.6-.3.4-.8-.3-1.2.7.6zm-6.5-4.3-.3-.7.4-.5.1.7zm.2-2.5-.8-.7 1.6-1.9v.6l.4.1-.6 1.7zm-5.4-19.5.1-2 .6-.7.2 1.7zm22.3-15.9.1-.7 1.6-.6-.1.7.4.1zm.5-2.7v-.4l.7-.4-.2.6zm-14.2-7.3-.3-1.1.5-.5v.4l-.2-.1zm15 19.4v-.8h.5v.3zm-3.5-3.6-.5-.2.8-.7h.7zm-.8 1.6v-.4l1.3-.6-.2.5zm-2.6-.5-.8-.4v1l-.9 1.4-.2 1 .6.4 1-.5 2-1.6-.5.8 1.1.5-.2 1.8.5.5-2.5 1.1v.8l-1.7 1-.1.3.8.7-.2.6h-.6v-1.2l-1.1.3-1.3.7-1.6 1.8-.4-1.1h-1.5l-.5.8h-.8l-.2 1.3.9 1h-.6l-1.3 1.4-.2-.4h.5l.1-1.2-1-2.4-.5-.1-1.7.7-1.2-.1-.7 1.1.5 1.2v3.3l-1.6-1.7-.8-4.4 1.5-2.5 2.1-1.4 1.2-2.5 1.8-.4-.3-.6v-.4h.4v-.8l.4.2-.2 2.1h1.4l.8-1.9 2-1.1-1-1 .5-1.1.4-.3v1.8l.8-.9.1 1.1 1.7-1.3v-1.3l1.5-.3.3-.5 1.2.4.4.6h1zm.7-1.9-.4-.3.6-.3v.4zm-9.3 4-.1-1.1.8-2 .3.9zm10.4-1.4h-.3l.8-1.2.6.2zm-8.9-3.7-.5-.4.5-.6-.2.5h.6zm6-2.7v-.6l1-.3-.1.9.8-.3-1.4 1.6zm-.2 2.3h-.6l-.1-.5h.6zm-2.1.3.3-2 1-1.1-1 2.9zm-205.6-193.3-1.5-1.2-.6-1.4 1 .4zm7.5 2.7-2.7-1.6-.3-1 .9-.2.5.3zm218.7-7.9-.6-.6.3-1.4.1 1.6zm-178.3-1.8-.6-.2-.2-.7.4.3zm57.4 4.7-.7-.3v-.4h.5zm-1.6-2-1-.1-.2-.4 1.2.2zm-53.8.5 1 .5v.7l-.4-.3zm-37-2.3-.7-.1-.7-1.2.1-.2zm13 1.1-1.7-1.3-.6-1h.7l1 1.2.7.7zm3.6-.5-1.8-1.1v-.4h1.4l.8.4zm5.1.4-1.7-2.6 1 .1.6-1 1.7 1.2.9 1.8-1.6-.1zm1.9 6-1.6-1.6v-.3l1.3.4.6 1.1zm-6.2-.3-1.4-1-.8-1 1.7.8zm-12.5 1.2-1.3-1-.6-1 1.3.6zm9.9.6-1.1-.6-.1.4-1.6-2.3v-.7l2.4 1.8.6.9zm-3.6-.2-2.8-1.8-2.8-4.5 2.3 1.1 1.5 1.4zm-12.8-4.9-.6-.3-.2-1 1.2.8v.5zm7.4.4-1-1v-.7l1 1zm26.6-.1-.7-.7-.1.5h-.2l-.4-.6h.9zm-7.1-.5-1-.5v-.4l1 .4zm-3.6.2-1.7-1.2-1.3-2.6.6.1 1.9 2h.8zm-12.6-4.6-1.4-1.3-.5-.8 1.3 1zm1.2-1.3-1.1-.9-.3-.5 1 1zm5.2-1.7-1.1-1.5v-.2l1.1 1zm-18-3.3-.7-.6-.4-.6.4.1zm15.8 4.5-.8-.5-.5-1.2 1.3 1.3zm12.2-9.1-.3-.7 1.2-.1-.2.7zm105.8 93.8-.1-.4.5-.4-.2 1zm-18.1 1.5-.4-1 .4.4.7 1.8zm-1.4-.4-.6-.8-.4-.7.8.2zm-5.2-2.1 1.4 1 .6 1.7-1.4-1.2zm7.9-.2 1.1 1.2 1-.2.9 2-1.9-.7-1.2-1.7zm-10.3-.3 1.1 2.3v.8l-1.8-2.8-.2-1.3zm2.3-1-.3.6-.8-1.1-.6-.3.5 2h-.3l-1.6-2.4v-1.5l1.9.3zm110.5-6.4.6-.7 1.1-.2-.1.3zm-106 4.4-.6-.8.3-.6 1.3 1.5.6 1.6zm16-1.7-.2.5v.3l-.2-.4.6-.6zm-22.5-.9-.5-1 .4.2.4-.6h.5l1.6 3.4-1.3-1.5-.6.1v.5zm1.3-1v-.3l.4.4.8 1.6zm-2.2-11 1 .6.8 1.9-2.9-3.2zm-111.2 7.2-.8-.8-.2-.7.4.2zm-17 .1h-.4l-1.4-3.8.9.3 1.2 1.8.3 1.3zm2 2.6h-.4l-.5-1v-1.2l1 1 .4.7zm16.2-1.4-.3-.2-.6-1.1.8.4zm111.8-2 .6.7.4 1.4-.6-.2-1.4-2zm-4.4-3.2-.3-.9v-.2l1.3 1.6zm-.2-10.6-.8-.1v-.9l.7.4zm-134 3.8-.1-.4-.4-.8.3.1zm5.7-2.8-.5-.3-.3-.7h.3zm-5.1-.3-1.7-.7-1.8-2.8v-1l1.3 2.1 1.3.3zm39.1.3-1.1-.5-.2-2-.6-1.1h.7l.7 1.3 1.3.6.4 1.4-1.2-1zm4.9-1.8-.4-.6.2-.2.4.3zm-27.9 1.1-1-1.6.2-.4.4.1-.9-1.5 1.2 1.3-.4.8zm115-1.3.2.5-1.3-.7-1.5.2-2.4-3.5 1.3.7 1.9 2 .3-1.2zm-134.3-2.8-.4-.6-.2-1 .7.8zm3.3.4-.6-.6-.4-1 1 1zm125-.6v-.3l.5-.5v1l-.5.2zm-123.9-.3-1.4-2 .5-.4.9 1.5v.8zm7.7 3.2-.2-.1-.3-1 .5.6zm-2.8 1-1.5-3 .3-1.5-.7-1 .4.5h1v.4l1.3.2-.5.9.6 2.3zm115.9-5.2 1 .7-.1.4h-.3zm-119.4 0-.6-.7v-.4l.6.7zm7 .1-1.6-2.1.2-.5.5.5zm7-.2-1.4-1.2-.3-1.2.5.2zm-5.9 15.6-.7-.2-.4-.8-.2.8-.4-.5-.4.2-1-2 1 1.5h.8l.1-.4.5.5-.2-.8.5-.2 1 1.7zm1-2.8h-.2l-.9-1.4 1 .9zm-7.6-1.5-.7-.7-1-2.3.8.4.8 1.1zm17.9 0-.9-.7-.6-1.6.5.1.2.8 1 1zm-6.8 1.4-.7-1-.2-.7 1.3 1.6zm11.4-3-.4-.2-.2-.9.6.2zm-7 1.1h-.6l-1.4-2.7h.4zm-8.3-.4-.6-.1-.9-1-.2-1.4.5.2zm6-.1-1.9-2-.3-1.4.5.7.4-.5.3.2 1.5 2.6zm-5.2-.8-.8-.2-.3-1.5 1 .8.1 1zm3.5 12.5-2-.5-2.5-4 .1-.6 1.8 1.3-1.9-5.4.8.5v1l.4-.4.7 1.6 1.4.3.4.5v.5l-.4.1.4 2-1 .1zm3.8-5.1-2-2.7-.2-.8.6-.6-.7-2-.9-.7 1 .5.7 1.6.2-.7h.7l2 2.7-.5 1.1.2 1zm21.2-6.4-1.4-2-.6-1.6.7.2 1.5 2 .2 1.1zm-34.7-2.1-.3-.3-.5-1 .7.8zm9.1.5-1-1-.8-2h.3zm-6.6-1.5-.8-.5-.5-1.1h.7zm118.2-1.9 1.6 1.9 3.4.4 1 1.8v1l-1.2-.6-.6.7-.9-.7h-.8l-1.7-2-1.7-.4-1.7-3 1.3.8zm-96.1 2.7.7 1-.8.7-2-1.1-1.3-.1-.7-1.3-1.2.1-.8.8-.8-1.7h.6l.3.8.4-.6-1.7-3.2.7.4.3-.8.6.1.7.5 1.1 2.2.7.2.1-1 .5.1zm-25.8-1-.8-.6-.4-1.3.4.2zm33.2 2.2-1.3-.5-.5-1.5.2-.9-3-4.4.1-.5 3.7 3.6 1 1.4zm-42-13.3-1.4-1.1-.2-.8h.9zm264.7-9.1-1 .5-1.3 2.4-2 .4-.2-.7-.7.4-1.2-.4 1.6-1.4h.8l-.4.5h.7l-.2-.3.5-.3.2.3-.3.2.7.1.8-1.9.6.3v-.5l1.4-.6.2-1.4.8.3-.5.2-.5 1 1.5-.4.5-.7-.1.9-1.3 1.1zm-265.5-7-.3-.6-.5-.4.3-.2zm5.8 2.9-.9-.5-.4-.8.6-.2zm3.3-2.1-1.1-.6v-.7l1.3.7 1.2 1.7zm194.3 10.1v-.9h.3l.3.8zm-80.1-1-.8-1 1.3 1.5zm-106.8.2h-.9l-.6-1 1-.3zm61 .9-.6-.4-.4-.7.6.2zm41.8-1-.5.2-.3-.7 1.2-.7.7 1.2zm-107.8-1.2-1.3-1-.5-.9v-.7l2.6.1.2 1.3zm11.8-22.8-.9-.5-.3.4-.3-1h.7zm198-.5-.2-.6.4-.3.2.8zm-124.9 1.5h-.5l-2.1-2.6 1.3.5-.6-1h.5l.2 1 .8.2 1 1.3zm-24.9-.1-.5-.7.1-.2.7.2.2.5zm5.5 1.6-.9-.8-.4-.8.9.4zm-3-4.3-.5-.8 1.8 2h-.4zm-33.8 1-.5-.4.4-.8.4.7zm23.4.2-.3-.2-.4-.6.8.3zm9.7.6-2.1-.7-.9-1.5.6.5 1-.2 1.6 1.4zm2-4.7.4.6-1.2-1.1-.4-.9zm-48.4 3-.9-.9-.4-.6.7.5zm54.8-1.5.8.3.7 1.5-1.8-2.2zm-45.6 2.7-1.4-1.6h-.6v-1.3l-2-2.4 2.4 1.3 1 1.9h1.2l-.4.5.4 1.1zm32.5-.2 2 1.8v.9h-.8l-.2-.7-1.6-1.5v-1.2l-1.5-1.7-.4-1.1 2.4 1.8v1l-.3.5zm-36.8-1.7-1-1.3-.8-1.7 1.1.4.8 1.6.8.5zm6.9-.8h-.3v-.7h.5zm24.5 1.5-1.3-1-1.6-2.2 1.5.7zm-11.3-.2-2.4-2.2.2-1-.4-.3h.6l1.6 2.4zm-9.4-.7-2.1-2.2-1-1.7 1.1.6zm6.2-1.2-.6-.1-2-2.8h.8l.6.9zm-24.8-2.5-1-.8-.3-.3.9.2zm3.6 2.1-2-1.9-.6-1 1.5.7 1.3 1.7zm42-2.2.3.4.2.4-1.2-1.4zm-4.6 2.1-1.6-.6-1.1-1.6 1.6.3 1.1 1.2zm-26.9 1.6-1.9-.2-.1-.5-1-.3-.7-1.7-.8-1.7 1-.5-.6-1.8.5.2v-.6l1.4 1.4-.3.6-.7-.8.7 2.3 2 2.6zm5.5-2.5h-.8l-.6-1.2 1.4.8zm12.5.6v-.6l-2.2-2.2h.7l1.6 2 .4.7zm-27.7 21.3-.6-.1-.2-.8.6.3zm90.6-1-.4-.2-.8-1.1.9.6zm-2.4 5.4.4.3v.4l-1-.6v-.6zm133.8.3.8-1.5 2.2-1.6.7-.3.5.6.8-.6.2.3.7-.3-3.2 2.6-.4 1.2-1 .6zm-230-1.5-.6-.3-.2-1h.5zm13.5 1.7-1.3-.4-1-1.1-.8-.8-.2-1.1.7-.2 1.9 1 1.1 1.8zm85.3-1.1-.1-.5.5.2.5 1-.6-.2-.5.6-.9-1.3zm93.4-.7h-.2l-.3-.2.1-1.1zm-198.8-.2-.5-1.3 1-.2.7 1-.9.8zm106.4-1.2.6.6.1.4-1.2-1.4zm-79.8 2.1-1.8-1.7-.4-1-1-.3v-.5l1.8.7 1.9 2.3zm34.8-2-.3-.1v-.8l1.1-.3.1.7zm38-2v-.3l-.2-.6.9 1-.5.7zm-3.2-2.6 1.6 1v.8l-.8-.2zm-84.1 2.3-.7-.2-.6-2 .7.6zm9.3 0-.3-.6v-.1l.7.1zm6.1 0-.3-1.3h-.1l-.3-.7 2.4 1.4-.4.4zm-18.7 1.4-.9-1-.5-1.1 1.2-.2 1.2 1 .2 1.3zm89.4-5h.1l.8 1.2-.7-.4zm-78.4 1.7-.7-.7-.3-1.7 1 1.4zm75-3.1.3-.4.2.9-.3-.3zm-69.2 4.4-1.8-2.1-.6.7h-1l-2.9-3.8.8-.3-.3.5h1v.6l1 .1 1 1.5 1.6.4 1.5 1.7zm-7.8-3-1-.3-1.1-2 1.4.3 1.2 1.8zm44.6-1.9-.3-.3.3-.4-1-.4.4-.5 1 .5-.1.6h.1zm-57.5-.6-1.5-.9-.4-1.1 1.6 1 .5 1zm60.9-6.5 1 .7.2.6-1-.3-.6-1.4zm4.2.7.5.9v.6l-1.2-1.9zm1.8.1.5 1.4-2-2.2-.4-1 .7.2zm-61.4 3.7h-.2l.2-1 .3.9zm3.8 3.3-.7-.8-1-2.3.8.8 1.1 2zm78.8-1.8.2.5-1-.9v-.5zm-69.2 1-.5-.2-1-2.1.6.5.4-.3v.9l.9.8zm40-3.4 1.9 1.4.1.6-1.2-.2-1.3-2zm-42.3 1.1v-.5h.3l.2.2zm-4.3.1-1.2-.4-.7-1 1.6.4-.3.4zm3.6.3-.7-.6-1.2.5-.5-1.8.6-1h.8v.7l.8.2.2-.3.4.2.2.6-.4.2h-1.5l1.3.4zm-11.8-.1-1.8-1-1-1.6.7.2.6-.4 1.9 2.4zm85.5-3.4-.3-.6 1.5 1.8-.4-.3-.8.3-.8-.5v-.6l1.2.7zm-7.7 2.6-.3-.8h.5l.2-.6-.4.4v-1l-.4-1.6.9.8 1 1.2.5 1.4.6.3-1.8.9zm-.8-.8-.1.8h-.5v-.6l-1.3-1.3v-1.5l.7.2zm-12 0-1.3-1.9-.1-.3.4.2zm-11.3 0 .4.4v.3l-.5-.5-.3.4-1.3-.2-2-3.5h.4l2.1 2.1 1 .3zm15.1-1.2v.5l-1.1-1.5.3.1zm2.6-.2-2-2.3 1.9.7.8 1 2.1.8.8 1.2h-.8l-1.4-1.4.3.5-.3.5zm-5.4-1.5 1.2 1.5.2.7-2-2.4zm-13.1-.4h.4l2.3 2.4-2.2-1.3-.7-.9zm5.8 1.5-.6-1 1.4.9v1zm-60.1 19.7-1.2-.4-1 .4-.7-1.5.9-.2v-.4l.5.2.3-1 1 1.6zm95-2 .5.7v.3h-.3l-.5-1.3zm-90.8.3-.5-1-.5-.4.4.2zm98.5-1.2.9 1.6-1.2-.7-1.2-2.3zm-83.9 3.2-2.6-1.2-1.7-3.4 1.4 1.3 4 1.8-.3 1.1zm6.4-2.2-.5-.2-.9-1.7-1-.2v-1l2.5 1.3.5.5-.2.9zm-1.6 1.8-2-1.5-.4-1.5.3-.8-.6-1.6.5.1v-.3l-.8-1.3v-.8l1.5 1.5.1.6-.6.3v.4l1 .7.8 1.3-.2 1.5.4.5zm-30.2-23.2.1-.7.7.2 1.9 2.5-2-.7zm4.2 0 1 1.7v.3l-.7-.8zm67.2 2.8-1-1.1-1-1.5 1.7 1.5zm-51.2 1.4-1-.4-.4-1.4.2-.6-.7-1.2.7.6v1.2l1.3.6-.5.2.7.4zm-7.4-1.7-.8-.7-.2-1 1.3 1.2zm54-.3-2.3-2.2-.8-1-.2-1.1 1.2.7zm-54.4-7.4v-.2l.4.2 3.6 4.3h-.3v.2l.9 1.6-.4 1 .8.2-.3.9 1 .7v.3h-.6v.4l-.7.2-1.3-1.6-.5-2.1-.5-.1.9-.6-.4-1.4-2-2.4zm100.9 32.7 1.5 1.1.3 1.4-1.1-.7-.9-1.6zm-83.7 2.9-1.5-1.7v-.9l.7-.6 1.3.4 1.3 2.3-.4.4-1.6-1.4zm78.7-.7-1.7-2v-.3l2 1.1 1.3 2.1v.7l-.7-.3zm-85.8 2.6-1-1.6.7-1.3h1.6l2.5 1.7 1.6.9.2-.5-5-4.8-.4-1.8-.9-.2.3-.7 4.3 2.6 1.1 3 1.3.9-.3 1.4 2.8 2.7h.5l-.7-1.9-.9-1.5.4-.2.7.4 1.5 4.1-.8 1.8-1.2.1-2.3-2.3-1.2-2.1-2 .3zm-6.1-2.5-1.7-1-1.5-.4-.8-1.6.7-1 1.5.2 1.6 2.4 1.6.6 1 1.5 1.8.9.9 1.2 1 2.7h-.7l-1.2-2-1.1-.6zm2.3 7.2-.4-.6-2.3-1.2-1.4-1.4-1.2.7-1.4-.9-2.3-2.4-.2-1.2.3-.2 2.1.7 1.4 1.3 1.5-.8.2.5h.8l2.4 2.4 2.4.9 2.2 3h.9l1.3.7-.2.7-.8-.2-1.4.9v.2h.8l.2 1.1 1.5 1.7.5 1v2.1l-.4-.4-.4.3-1.8-3.7-1-1.2-.4-.3-.4-1 .3-.3-1-.3zm-19.3-7.5-1.3-1.7-.1-1h.6v-.5l1 .7.9 2zm-3.6-2.7h.6l.4.4.6 1.1h-.8zm12.2 3-.9-1-.9-1.6 1.2 1.4zm96.5-4 1.1 1.2.7 1.7-.7-.4-1.4-1.6-.3-.7zm2.8.3-.4-.5 1 1.2-.2-.2zm-87.8 3.9-.5-.2-1.6-2-.2-1.3.8-.8.6.4v1.1l.8 1.3zm48.5-2-.5-.8.1-.9 1-.6v.7l.2.3zm122.4-3-.7-.4-1.3.2 1-1h.8v-.5l1.9-.3-.3.8zm-80 2.8-1.4-1.2-.6-1.6 1 .8zm-92.5-2.2-.7-.6.2-.8.5.7zm14.4 2.2-.5-.7-1.1.5-.3-.5h-.6l-.7-1.9.2-1.2 1.7 2.5 1.7 1.1zm-40.2-2-.5-.2-.6-1.4.4.1zm18.8 1-1.1-.7-.4-.9.4-.1zm-22.7-1.8-.8-.7v-.5h.4zm117.3 0 .4 1-1.7-2.5.6.3zm-84 1-3.6-2-1.1-1.4-.5-1.3 1.2.5 1-.2 1 .7 1.6 2zm49.4-1.9-.8-.7-.3-.7 1 .9zm-56.4.4-1.3-.5-1.4-1.7.2-1.3 1.1-.3-1.1-3.5.7.3.7 1.2-.2.4.5.3-.1 1.3.5 1.3-.3.3.8 1.6zm0 0"/></g></svg>