<svg xmlns="http://www.w3.org/2000/svg" viewBox="0 0 497 279"  xmlns:v="https://vecta.io/nano"><path fill="#f2efe9" d="M0 0h497v279H0z"/><g fill="#aad3df" fill-rule="evenodd"><path d="M344.6 279h279V0H344.7zm0-279h279v-279H344.7zm0 0"/><path d="M65.6 0h279.1v-279h-279zm0 0"/><path d="M-213.3 0h279v-279h-279zm0 279h279V0h-279zm0 0"/><path d="M65.6 279h279.1V0h-279zm0 279h279.1V279h-279zm0 0"/><path d="M-213.3 460.5v-.5l1.5 1.2.6-.2v.7l.7-.3.5.4v2.3l.8-.6.4.7.3-.6.9-.3v.8l.3-.1v.4l-.9.2 1.1 1h-.9l-.2.8h1.5l-.3.6.4.3.2 1.7.4-1.1h1l-.3 1.3 1.7-1.2.2.8.7.3v.5l1.1-.3.6.7.6-.4.1.4h1l-.3 1 1.2.6.5-.2v.3l.9.6.3.7 1 .2-2.8 1-.3.8-1 .2.8 1.3.9-.5-.5 1 2-.5 1.3.7-.2-.6h1.5l.4.7 1 .4-.4.2.2.1 1.3-.6-.7 1.2v3.6h.6l.3-1.2.6-.5v.3l1.3.4-.3.8h1l-.3.4 2 3.4-.4 2.3h.6l-.7.9h-1.2l-2.5.8 2.6-.5 1.1.4 1.1-.3.3-1-.5-.4-.2-1.9 1.4-.8h.5l.2.7 1.1-.4 1.3 1.4.6-.5-.3 1.1.6.4.3-.6v.5l.8.1-1.4.7-.7-.1v.8l1.6-.4 1.3.2-.9 1.3 1.2-.5 1.3.7.7.8-.2 1 .4.4.4-.3-.2-.4.8.1.7-.7.5 1h.8v.4h.4l.9.5-.3 1.1.7.4.5-.6.1 1 .8.2-.1 1.1.8-.1 1.2 1.4h1l1 .8-1 1.2-.5.5.2.8.5-.5.6.2.6-.7.9.2.4-1 .9 1h.3l-.4.5.9.6.4-.3.2.5v.8l-.9-.2.6.6-.7.7.2.4 1.3-.3 1.6 1-.3-1 .4-.5.2.7.6-.2.4.6.2 1.4-.6.2.1 1 .9 1h.4l.6-1.1.6.4.7-.6 1.3 1.5.4-.9 1.5 1.7.8-.5.6.9.8-.4 1.5 3.1.6-.1 1 2.3h.4v1.1l.6-.4-.1.9h.6l.2.9-.6.4.6.5-.2 1.5 1-.1v.9l1.9-1.4.7.8.1-.4.6.3.5 1.7.5-1.3 1 .9.6-.4-.2.5.7.3-.1.8.7.9 1.5.1.6.4-.4.2 1.4.4.1 1.2h.7l-.1 1.6.3-.3 1 .7v-1.5l1.3 1 .2-.5h.4l.2.4-.7.3.3 1 1.1.3.1.6h.6l.7 1.6.2-.2v.6l.6.4v1l.6-.2-.1 1.2.3.5.5-.5.3.3v1.5l1.3 1.5.9.5.4-.5.5.5.5-.5.9 1h1.1l-.2.4.9.1.1 1 2.6-.3-.2.3 1.5 1.5.3-.3.4.2-.2-1.2 1-.2.7.2v1h.6l.5 1.9.7-.2-.2 1h-1.6l1 1.3v.6l.3-.1.2.3-.2.7-.5.2.2.6-.7 1.9v2l.9-1.7.6-3.3 1.1-2.8 1.6 2.3-.3.4 1.3 1.3h.4l.3-.9.6.5.7 1.2-.4 2.7h.5l.6-1.8.6-.3h.4l.3 1 1-.2.3.9 1 .6-.4.9.7.3-.2 1 .5.7.6.5.8-.5.6.2.5.7-.4.7h1.8l.6 1v2.4H65.7V279h-279zm120 87.8h-.7l-.6-1h.6zm-27.5-11.3h-.4l-.3-.6.8.1zm22.2 11.8l-1-.7-.5-1.3.9-.8 1.4 1.1-.2-1.8 1 .1.6 1.5.1-.5.3.6.5-.5.5.5-.1 1h-2.2l-.1.3zm-18.6-13.3l-.8-.2v-.9l.9.8zm-1.4-6.2l-3.4-1.6-2-2.8v-.5h.6l.7 1.2h.5l-.2.6 1 .2.4.6.6-.3v.3h.8l.7.5.2-.2v.7h1.3l.4 1zm-7.1-6.3l-1-.5v-.7l1 .1zm-1.7-1l-1-.3-.8-.8.9-.3 1 .8zm-59.4-38h-.6v-.6h.7zm47.5 32.8l-1-2.1.8-2.7.1.8.7.2.6 1.2h.3v-.8h.5l2 2.2.5-.9h.3l1 2 1.2 1.2-3.3.7-1-1.1zM344.6 558H452l.2-1 .8.3.6-.8-.1-.8.5-.3 5.6-.4 2.1.4 4.3-1h1.7l1 .8h1.6l2.2.6 1.3 1.9 1.7.3h148.2V279h-279zm0 0"/></g></svg>