<svg xmlns="http://www.w3.org/2000/svg" viewBox="0 0 497 279"  xmlns:v="https://vecta.io/nano"><path fill="#f2efe9" d="M0 0h497v279H0z"/><g fill="#aad3df" fill-rule="evenodd"><path d="M117.6 269.3h.1v.2h.3l.2.1h.1v.2h.2v.2h.2l-.1.1h-.2l-.3.2h-.1v.1h1.4v.1l.2.1.2-.2.1.4.1.1h.3l.2.1v-.3h.3v.3h3.3l.2.1h.1l.2.2h1.4v-.2h.3l.2-.1h.2l.3.5h.3l.1-.4h.3l.1-.1h1.8v.3h.5v.1h2.2l.2.1v.5h-.2v.3h.3l.1.3v.1h.2v.1h.1v.2h.1v.4h-.5l-.1-.3-.2-.1h-.1v.3l-.1.1h-.1l-.4.2h-.3v.1h-.1l-.1.1v.2h.4v.5h.8v-.3h.2v-.2h.8v.3h.9l.1-.3h.2l.2-.1h.1v-.2h1.4l-.2.3h-.6v.2h-.6v.1h-.1l-.2.1h-.3v.1h1.4l.1-.2h2.5l.2.3h.9v.1h1.1v-.3h.1l.1-.1v-.2h.4l.2.3h.6v.1l.2.1v.2h.4l.1.2h3.2v.2h.2v.2h-.6v.1h-.1v.2l-.2.1v.2h.8v-.4h.4v-.1h.3l.1.1v.4h.2l.2.1v.3h-.3v.2h-.2v.1h-.1v.3h-.1v.3h-.2v.5h.5l.2-.3h.2v-.5h.6l.1-.2.3-.1h1.3l.1.2.2.1h.6l.1.2h.4l.1.2h.2l.3.2h.2l.2.1v.1h.1l.1.1v.1h.3l.1.2h.2l.1.1h.4v.3h.2l.2.2.1.2h.3l.2.2h.4l.3.2h.3l.1.2h.2v.1h.2v.1h.3v.2h.1v.2h.1-.5l-.2.2v.2h.4l.2.2h.5v-.1l.2-.1.1-.2h.9l.2.4h.1v.2h.1v.3h-.3v.1h-.1l.1.2h.5l.1-.2v-.1h.1v-.2h.2l.1-.1h.4l.1.2h.5l.3.2h.1l.1.1h.2v.1h.3l.1.1h.2l.1.3h.3v.8h.4v-.5h.7v.2h.3l.1.1h.3l.1.1v.1l.3.2v.1l.1.2v.3l.2.1v.3h-.3v.2h.2l.2.2.1.2h.1v.2h.2v.4h.1v1.8h.1v.8h.1v-.5l.1-.3v-.6h.1v-.1h.4v-.3l-.3-.1-.2-.3-.2-.1v-.5h.2v-.2h.2l.1.2h.3l.1.2h.1v.1l.1.2h.1v.1h.2v.1h.2v.2l.3.3h.3l.2.1v.3h-.4v.8h-.2l-.1-.3v-.1h.3v-.2h-.6l-.2-.1v.3h.2v.3h.3v.1l.1.1v.2h-.2v.6h-.2v.1h-.6v-.3h-.1v.4h-.2l.3.1h.1v.1l.3.1h.2v.2h.3l.2.2.3.1.1.1h.3l.1.2.3.1.2.1h.1v.2h.1v.2h.4v.1h.1l.3.2h.2v.1h.2l.1.1h.1l.1.2h.4l.1.1.2.1.1.1.2.2.1.1.2.2h.2l.2.3h.3v.2h.2l.1.2h.5l.2.2h.2v.4h.7-.4v.4h.5l.1-.2v-.2h.2l.1.2.4.2h.5l.4.3h.2v.3h.1v.3l.3.1v.4l-.2.1h-.1v.1l-.2.1v.5h-.3v.9h.3l.2-.3v-.2l.1-.1v-.1l.2-.2v-.3l.1-.1v-.3h.1v-.3l.2-.2h.5v-.2h.3l.3.3h.3l.3.1h.1l.3.3v.5h-.2v.3h.2-.3v.2l.3.1h.1v.1h.3l.1.4.3.1.1.1.2.1.1.2h.2v.4l.3.1v.3h.3l.1.2h.1l.3.3h.6l.1.1.4.1.1.2h.3l.2.3h.1l.2.3v.4l.2.1.1.2h.1v.5h-.3l.1.2h.4l.1.3h-.8v-.1h-.4l-.3-.1h-.2l-.2-.1h-.2v.3l.5.2.1.2v.3h.2l.2.1.2.2.2.2v.1l.2.1v1.1l.3.1h.6l.1.3.2.3.1.4v.4l-.1.3h-.2v.2h-.5l-.3-.3-.2-.2-.2-.1v-.1l-.3-.3h-.4l-.1.2v.3l-.2.1v.1l-.2.1v.3l-.3.2v.2l-.1.2.4-.2.1-.3v-.1l.1-.1.2-.2v-.2h.3v-.1h.5v.1h.2v.4l.2.5.2.1.2.2v.3l.1.2v.4l-.1.3v.4l-.2.2.4.3.2.1.2.3v.1l.1.1.2.3.2.2.3.2.3.1h.2l.2.2h.3l.2.3h.1v.2l.3.1.1.2v.2h.7v-.3h.3l.1-.1h.2l.1-.2h.3l.1-.2.3-.1-.3-.1v-.2h-.2v-.2h-.1l-.2-.1v-.4l-.2-.1v-.2h.2l.2.2h.3l.5.1.5.1.3.2h.5v-.2l-.5-.2-.5-.2h-.2l-.3-.4h-.3l-.4-.3-.1-.1h-.3l-.2-.3-.2-.1v-.2l-.3-.2v-.2l-.2-.3-.1-.2-.2-.3v-.3l-.1-.3-.2-.2h-.1l-.1-.2v-.1l.1-.1v-.2l-.1-.2-.1-.1h-.1l-.1-.2v-.1h.3v-.2l-.8-.4-.2-.2v-.4l-.3-.5v-.9h-.2v-.1h.4v-.2l.1-.1h.4v-.4h-.2v-.3h-.2l-.4-.3-.2-.2-.2-.4h-.3v-.2h-.2v-.4h-.3v-.3h-.1v-.7l-.3-.4v-.2l-.2-.1-.1-.1-.2-.2h-.1l-.1-.2v-.1l.3.3h.4l.2-.2h.5v-.4h-.4l-.2.2-.1.2h-.3l-.2-.2-.7-.6h-.3l.5.5v.2l-.4-.3-.2-.1-.2-.3h.3v-.3l-.5-.1v-.6l.3-.2v-.4l-.3-.2-.2-.2h-.4v-.2h-.3l-.1-.3-.4-.3-.1-.2h-.1l-.1-.2h-.3l-.1.3h-.1l-.3-.1h-.2v-.2h-.7v-.1l-.1-.1h-.1v-.1l-.2-.1-.1-.1v-.2l-.1-.1v-.7h.3v-.3h-.3v-.2l-.2-.1-.2-.3h-.2v-.1h-.7v-.1h-.3v-.2h-.4v-.2h-.1v-.1h-.2v-.4h-.1v-.1l.3-.2h-.3v-.2h-.3v-.1l-.3-.1-.2-.1h-.2l-.2-.3h-.7l-.1-.1h-.3v.5h-.8l.2-.3v-.1h-.2v-.1h-.2v-.1h-.3v-.4l-.1-.1h-.3v.1h-.4l-.1-.1-.1-.2h-.2v-.1h-.1v-.2l-.2-.1h-.2v-.2h-.1v-.2l.3-.2v-.3h-1.2v-.2h-.5v-.2h-.1v-.1l-.3-.2v-.1h.5l.1-.2h.2l.3.4h.3v.1l.2.1h.1l.1.1h.2l.1.2h.1v.1h.2l.2.2h1v.2h.2l.2.1h.1l.2.1h.3l.3.2h.4v-.2l-.1-.1h-.1l-.2-.1h-.1l-.2-.1h-.1v-.1h-.1l-.3-.2h-.2v-.2h-.3l-.1-.1h-.7v-.1l-.2-.1-.3-.2h-.1v-.2h-.2l-.2-.1-.2-.2v-.2l-.3-.3h-.1l-.1.3h-.2v-.3h-.1v-.1l-.1-.1h.6l-.4-.1v-.4h.4v-.1h-.4v-.2h-.2v-.5h-.1l-.2-.3v.4h-.1l-.1-.4-.2-.1v-.4l-.2-.3h-.1l-.1-.2v-.3h-.2v-.2l-.2-.2v-.3h-.1l-.1-.2-.1-.1v-.6l-.1-.2v-.8h-.1v-1.1l-.1-.2v-1l-.1-.3v-.2l-.2-.2-.1-.1v-.1l-.2-.2v-.2h-.3v-.1l-.1-.2v-.3l-.3-.1-.2-.2v-.1l-.2-.1v-.2l-.3-.1v-.1h-.6l-.1-.2-.3-.1h-1.4v-.1h-.3v-.1h-.3l-.2-.1h-.5l-.2.3h-.6l-.1-.2-.3-.2h-.1l.4-.3h.3v-.2l.2-.1h.1v-.1h.3l.2-.1h1.8v-.3h-.3v-.1h-.7l-.1-.1h-1v-.1h-.4v-.2h-.3l-.1-.1h-1l-.3.3h-.5l-.1-.3-.3-.1v-.1h-.4v.1l-.1.2-.3-.2v-.3l-.2-.1v-.1h-.2v-.1h-.4l-.2-.2h-.2v-.2l-.2-.1-.2-.2h-.1l-.2-.1h-.3v-.2h-.1l-.2-.1h-.2v-.1l-.2-.2-.1-.2h.5v-.2h.3l.2-.1h.3l.1-.2v-.1h-.7v-.1h-.1v.2h-.1v.3l-.1.1h-.2v.1h-.2v-.3h-.3v-.2l.3-.1-.3-.2h-.3v-.2h-.6v.4h-.2l-.2.3v.4h-.3v-.4h-.5l-.2-.2v-.4l-.1-.1h-.2v.2h-.3v.2h-.3v-.2l-.1-.2-.2-.1h-.2l-.1-.2h-.1.1v-.2h.2v-.2h.2v-.5h-.3v-.1h-.1l-.1-.1h-.2l-.2-.3-.1.3h-.3v-.2h-.3l-.1-.1h-.2v-.1h-.3l-.2.1-.1.2v.1l.2.1v.2h-.4v.2h.6l.1-.3h.3v.3h.1v.1l.2.3h.1v.3h.3v.1h.2v.1h.4l.1.1v.3h-.2v.1h-.4v.3h-.5v.3h-.5v-.3h.2v-.1h.3l.1-.1h-.4v-.2h-.2v.3h-.1v.1h-1v.4h-.1l.3.2v.3h-.3v.1h.4v.1h.6v-.4h.2l.1-.1v-.1h.1l.2-.1h.2v.5h.2v.1h-.2v.2h.3v.6h.2v.1h-.3v.2h-.2v.3h-.4v.4h.2v.2l-.2.1h-.4v.1h-.3v.2h.4v.2h.4v.1H147v-.3h-.6l-.2-.1v-.3h-.2v.9h-.1l-.1.1h-.5v-.2h-.3v-.2h-.2l-.2-.2h-.3l-.1-.3h-.2v-.2l-.2-.1-.1-.1h-.1l-.2-.1h-.1l-.1-.2h-.2l-.1-.2h-.4l-.1-.1-.1-.1h-.3v-.1h.2l.2-.1v-.2h-.4v-.2h-.6v.2h-.4v-.2l-.2-.1-.3-.3v-.1h-.1v-.1h-.1l-.1-.2h-.2l-.2-.2h-.5v.3h.6l.1.1.1.1v.5h.2v.3h-1.5l-.1-.3h-.2v.5h.3v.4h.4v.1h.1v.2h.3v-.2h.4v-.2h.8v-.1h.2l.1-.1h.4v.2h.2v.4h.8v.1h.5v.1h.2v.2h.2v.1l-.4.1v.1h.3v.1h.4v.3h-.4v.2h-1.1v-.3h-.2l-.1-.2h-.7v.2h-.6v-.2l-.1-.2h-.2v.5h.4v.1h.3v.2h-.4v.2l.3.1v.2h-.5v-.1h-.4l-.2-.1h-.2v-.3h-.4v-.1h-.4v-.3h-.3v-.4l-.2-.1v-.2h-.7v-.1h-.2l-.2-.1h-.4l-.1-.2h-.1v-.1h.4v-.4h.2l.2-.2v-.3h.1v-.1h1-.3l-.2-.2h-.2v-.1h-.2v-.3h-.2v-.4h-.3l-.1-.1-.3-.2v-.1h-.1v-.2h-.1v-.2h-.4v.2h-.3v.2h-.1l-.2.2v.1h-.1v.1h-.3v.5h-.1v.2h-.2v.1l-.1.1v.1l-.1.2h-.3l-.3.3h-.2l-.2.1H132v-.4h-.5l-.1-.2h-.2v.3h-.1v.2h-.1v.1h-.4v-.4h-.2v-.2h-.3v-.1h-.1l-.2.3h-.5v.2h.3l-.1.2h-.3v-.3h-.1v.3h-.3v.1h-.8l-.2.1h-.7l-.1.1h-.8l-.2.1h-1v-.2h-.3v-.2h-2v.3h-.9l-.1-.3h-.3v-.1h-.8v-.2h-.3v-.1h-.2v-.2h-.7l-.2-.2v-.1h-.4l-.2-.1v-.2h-.4v-.1h-.2v-.1h-.5zm22.4 4.2l.2-.3h1.4v-.2h.1l.2-.2v-.2h.5v.3h.1v.1l.1.1h.4l.2-.1h.2v.1h.1v.2h.5l.2.1h.4l.1.2h.6v.1h.4l.2.1h-.3v.2h-.1v.1h.4v.2h.4v.1h.4v.1h-.3l-.1.2h-.7l-.2-.3h-.4v.2h-.4v.1h-.6l-.3-.3-.3-.1h-.2l-.2-.1h-.4v-.2h-1.2l-.1-.2h-.2l-.1-.1h-.4v-.2h-.6v-.1zm7 .5l.2-.2h.1v-.1h.3v-.1h.3v-.1l.1-.1-.2-.1h-.2v-.3h-.4.5v-.2h.2l.1-.2h.2-.2l-.3-.1v-.1h.6v-.1h.4v-.1h.3l.1-.2h.3l.6-.3.5-.1h.1l.4-.3h.1v-.1h.5l.1-.1h.5v.3h1l.1.1v.3h.2l.3.2v.2h.2l.1.3h.3l.3.3h.3v-.4h.3v-.1h.1v-.1h.1v.3h.2l.3.2.2.1h.4v.2h1.1v-.2h.9v-.2l.2-.2v-.1h-.2l-.2-.1h-.1v-.1h-.2l-.1-.1-.2-.2v-.2h.5v-.1h1v.3h.3l.2.1v.1h-.3l-.1.3h-.1l-.1.2h-.3v.1l-.1.2v.2l.2.2h.1l.1.2h.1v.4h.7l.3-.1h1.6v.2h.5l.1.1.2.1h.1l.2.2v.1h.3v.2h.2l.1.1h.1l.1.1.1.2v.2h.3l.1.2.3.2.1.1v.1h.1l.2.2v.5l.1.2v.3l.3.3v.7l-.3.4v.6h-.5v.4l.3.1h.3v.2l.1.1v.5h-.2v.5h.2v.7h.1v.1h-.4v-.1.4h-.4l-.1-.3v-.1h-.2v-.3l-.3-.2v-.2l-.3-.2v-.2h-.1v-.1h-.2l-.2-.1h-.2l-.1.3v.4l.1.1v.2h-.2v.2h-.3v.1h-.4v-.3h-.1v-.2h-.3l-.2-.4h-.1v-.2h-.1v-.2h-.1l-.2-.2v-.3h.3-.3l-.1-.1-.3-.1h-.3l-.1-.1v-.2h-.2v.3h-.5v.8h-.4v-.3h-.3v.3h-.1l-.1.1h-.5l-.1-.3v-.1h-.4v-.2h-.4l-.2-.1h-.2v-.1h-.1v-.1h-.4v-.2l-.2-.1v-.2h-1.5v-.2h-.2l-.4-.3-.3-.2-.3-.2-.3-.1h-.1v-.2h-.5v-.3h-.2v-.2h-.3v-.2h-.4l-.1-.1h-.2l-.1-.3h-.2v-.1h-.1l-.1-.2-.4-.1v-.2l-.2-.1-.2-.3h-.1v-.1h-.2v-.1h.3v-.4h-.5v-.1h-.1v.3h-.8l-.1-.3h-.5v-.2h-.4l-.2-.1v-.1h-.2v-.1h-.1v-.4h-.1zm1.7-2.4v-.3h.4l.2-.2h.1l.1-.1h1.5v.3h-.3l-.2.1-.1.1-.1.1h-.7l-.1.2h-.9zm.9 4v-.2h.2v.3zm.1 1h.3l.3.2h.1v.2h-.4v-.3h-.3zm.6-6.6h.3v.3h-.3l-.1-.3zm0 .3h.3zm.3.1h.1zm.1 0h.1v-.2h1.2v.4h-.7v.1h-.3v-.3h-.2l-.2-.1zm1.3-.1h.4l-.3.3v.1h-.1zm.5-1.3h.7l-.2.2h-.4zm.5.2h-.2zm1.4 1.6h.6v.2h-.5v-.1h-.2v-.2zm1.8 1.8h.2zm11.2 16.1h.6v.2h.2v.1h.1-.3l-.2-.2h-.3l-.2-.2zm.2-.7h.4v-.2h.2l.1.2.1.5v.1h-.3l-.1.1-.2-.3v-.1l-.2-.1v-.1h-.1zm.4 1.7v-.2h.3-.3zm.1 0h.2v.2zm.2-1.9h.4v.2h.2l.1.2v.5h-.3v-.3l-.1-.2v-.1h-.1v-.1zm.2 2.1h.2v-.3h.2l.1-.1h.1v.3l.2.1.3.1h.2v.2h.2l.2.1h.2v.2h.4v-.2l-.4-.2v-.1h.3v-.2h-.2v-.1h-1.1v-.2h1.1v.3h.5l.2.2h.3v.2h.3v.1h-.3v.2h.4v.1h.1v.1h-.6l.2.1h.2v.1l.2.1h-.5v-.3h-.9v.3h.2v.2l-.3.1h-.1l-.3-.3-.1-.2-.1-.1h.1v-.3l-.3-.1-.1-.1-.3-.2h-.8zm2.7 1.1h.2-.3zm.2.1v-.1h.1l.5.1.1.2h.1l.1.1h.4l.1.1h.2v.1l.3.2v.4h-.3v.2h-.8v-.4h-.2l-.3-.4-.2-.1-.1-.1v-.1zm1.3-.5h.2-.3zm.2.2v-.2h.1l.4.3v.1h-.4l-.2-.2zm.5-.1h.3v.2h-.2zm0-.4h.3v.2h-.2zm.2 2.7h.1zm.2-2.2v-.2h.3v.4h.2v.1h.1v.1h-.4l-.1-.2v-.3zm2.6.3v-.2h.4v.4h-.4l-.1-.1zm.6 1.7h.5v.2h.2l.3.2v.3l-.2.1h-.4v-.4h-.2v-.2h-.1zm.6 1l.3-.2h.1v.3h.1l.1.1h.4v.2h-.6l-.2-.2v-.2h-.3zm.7-.1h.4v.3h-.3l-.2-.3zm.7.6h.3zm4.2 7l.4.1v.2zm.6-.7h.2zm0 7.7l.2-.2h.3l.4.3.3.2v.2h-.7l-.1-.4-.3-.1zm.5-4.8h.1zm.8-169.3l.2.4v.6h.2v.1l-.2.1v.3h.2v.3h.1v.2h.1v.1h.2l.1.4h.3v.3h.1v.2h.6v2.3h-.2v.3h-.1v.2h.2v.1h.3v1.2h.2v.3h.1v.4h.4l.1.2v.1h.3v.3h.3v.2h.2l.2.2.3-.1h.1l.1.1h.3v.4l-.2.3h.4v.2h.2v.1h-.2v.2h.3v.1h.3l-.3.1h-.1v-.2h-.6v.1l-.2.1-.1.1v.2h.2v-.2h.7v.2h.6v.6l.2-.3h.2l.1.3h.4v.2h.3v.5h.6v.3h.2v.1h.3v.2h.2v-.2h.7v.2h.2v.4-.2l.1-.1v-.6l-.3-.1h-.1v-.3h-.2v-.2h.3v-.2h.5v-.2h.1v-.5l.2-.1v-1h.2v-.3l.2-.2v-.3h.1v-.2h.1v-.2h.1v-.3h.2v-.3l-.3-.1-.1-.1.2-.3h.2v-.2l.1-.2v-.1l-.1-.4v-.1l-.1-.2v-.6h.3l.1-.2h.1v-.2h.1l.1-.1h.1v-.1h.2v-.4l.2-.4v-.4h.1v-.6l.1-.3v-.5h.2v-.2h.1v-.4h.3l.1-.2v-.1h.1l.2-.2.2-.2v-.3l.1-.2h.8v-.2h.4v-.2h.3v-.3l.1-.3h.3v-.1h.3v-.1l.1-.2v-.3l-.3-.1v-.2l-.2-.1-.1-.1v-.2h-.3v-.2h-.1l-.4-.3h-.8v-.2h-.7v-.3h-.7v-.2l-.2-.1h-.1v-.6h-.2v-.1h-.3v.2h-.9v-.2h-.7l-.1.1h-.5v.3h-.2v1.3l.2.3v.2h-.5v.1h-.2v.4l-.1.1h-.2v.2h-.2l-.1.2-.3.3h-.1v.1h-.8v.3h-.2v.3h.6v.5h-.6v.3h-.3v.8l-.3.2v1.1l-.1.2v.1l-.1.3h-.2v.1h-.1v.1l-.1.1h-.1v.2h-.2v.3h-.2v.1h-.3v.2h-.4v-.2h-.7v-.3h-.5v-.3h-.1l-.2-.2v-.3h-.3.3v-.3h.6v-.2h1.1v-.2l-.1-.3-.1-.3h-.1v-.5l-.3-.3v-.8l.1-.1h.2v-.3h.2v-.2l-.3-.3v.3h-1.5v-.3h-.6v.2h-.2v-.2l-.1-.3h-.8v.2h-.1l-.1.2-.3.2v.2zm-36.7 16.4v.3h.4v.1h.4l.1.2h.4l.1.2h.5l.2-.1v-.1h.3v-.2h.6v-.3h.3l.1-.1v-.1h.2v-.3h.4v-.2h.2l.1-.5v-.1l.3-.4v-.3h.3v-.1l.1-.2h.2v-.5h.3v-.8h.1v-.4h.1v-.3h.3v-.2h.1v-.2h.1v-.1h.3v-.3h.2v-.3h.4v-.2h.1l.1-.1h.4v-.4h.6v-.2h.3v-.1h.2v-.1h.1l.1-.2h.1l-.1.2h-.2l-.1.2h-.1v.2h-.3v.2h.3v.2l.1-.3h.2v-.2h.3v-.4h.2v-.1h.3v-.2h.2l.1-.1h.1v-.6h.1v-.2l.2-.3v-.1l.1-.1v-.4h.3v-.1h-.2.2v-.3h-.2l-.2-.2v-.6l.2-.2.2-.1.1-.3v-.5h.7l.2-.3h.3v-.3h.4l.1-.1.2-.2h.1v-.3l-.1-.1-.2-.2v-.4l.3-.1h.4v-.4h.3v-.2h.5v-.1h-.2v-.3h.4v.3-.3h.3l.1-.3h.2v-.3h.6l.1-.1h.9l.1-.2v-.1h-.3v-.3h-.1v-.1h-.3v-.2h-.1l-.3-.4v-.3h-.2v-.4h-.1v-.6h.3v-.7h.3v-.1h.1v-.3h.2l.1-.2.1-.1v-.1h.2v-.1h.1v-.4h.2l.1-.1v-.3.2h.3v-.2h.2v-.3h.2v-.2l.2-.2v-.3l.2-.1v-.4h.1l.1-.2v-.1l.1-.2v-.8h-.3v-.2h-.1v-.2h-.1v-1.1l.3-.1.1-.1v-.3l-.3-.2h-.2v-.8l-.1-.2-.3.2v.3h-.5v.4h-.4v.4h.2v.5l-.2.2-.2.3v.1h-.1l-.1.3v.1h-.3v.2h-.1v.4h-.2v.1h-.1v.1l-.1.1v.3h.4v.6l-.3.1h-.1v.1h-.3v.2h-.2v.1h-.1v.2l-.2.1v.1l-.2.1v.1l-.1.1v.2l.1.2h-.5v.3h-.5v.3h-.2v.2l-.2.2h.2v.1h.2v.2h.2-.3v.3h-.4v-.2h-.6v.2h-.8v.2h-1v-.1h-.2v.1h-.1l-.2-.4H157l-.2.4v1.3h.2v.1h.2v.3l.1.3-.3.4v.1h-.2v.7h-.2v.2h-.2v.2h-.2v.2l-.2.2v1.1l-.4.3-.1.1v.2h-.2v.1h-.2l-.1.1v.1h-.1l-.1.3h-.1l-.2.2v.1h-.1v.2h-.2v.3h-.2v.3l-.2.1v.2h-.3l-.1.3-.1.1h-.1v.3l-.2.1v.1l-.2.4v.5h-.1v.5h-.1v.8l-.1.1v.8l-.3.3v.2l-.2.2v.1h-.1v.3h-.2v.2h-.1v.2h-.2v.1h-.2v.2-.1.2h-.1v.4h-.1v.2l-.2.3v.2h-.4v.2l-.1.1v.1l-.2.1h-.1v.3h-.2v.3h-.4l-.2.1v.3h-.2v.1h-.1l-.2.3v.1h-.1v.1h-.1v.4l-.1.2v.1zM274 168h.4v-.2h.7v.2h.2v.3h.4l.3.2h.3v.3h.9v.5l.3-.3h.4v.4h.6v.2h.2v.1h.4v.1h.2v.2h.5v.1h.4l.1.4v.2h.6v.2h.1v.2h.6v.1h.3v.2h.1v.3l-.3.3v.1l.3-.1h.2v-.3h1-.5v.3h1.6l.1.1h.5l.1.4h.2l.2-.2h.2v.2h.4v.3h.4l.2-.2h.6l.2.2h.5v.2h.3v.3h.1v-.4h.3v.1h-.3v.3h.3l.1-.3h.2v-.3h.5v-.1h.1v-.3h.5v.2h-.3v.4h.3v.1h1.3v-.3h.3l.1-.1h.5v-.3h.4v-.3h.4v.2h.1v-.2h1.9v.2h1.1l.1-.2h.3v.2h2.1v-.2h.8v.1h.5v.1h1.1v-.1h.9v.1h.2v-.2h-.1v-.2l-.2-.3h-.8v-.4l.2-.2.1-.1v-.2h.1v-.3h-.3v-.1h-.1v-.2h-.2l-.1-.1h-.2v-.6h-.1v-.2h-.7v.2h-.1v.3h.2-.9v-.2h-.7v-.3h-.3v-.1h.1v-.1h.4v-.2h.1v.1h.7v-.2h.4v.2h.8v-.4h-.2v-.1h-1.1v.2h-.4l-.2-.2h-1.1v-.2h-.4v-.1h-.3v-.2h-1.2.1v.2h.7v.3h.8l.2.2h.2v.3h.5v.2h-1.3v-.1h-.4v-.3h-.8v-.4h-.3v-.9h.2v-.4h-1.1v.3h-.9v-.2h-.6v-.3h-.4v.3h.2v.3h.2v.2h.3v.1l-.1.1v.3h-.3v-.2h-.4v.2h-.5l-.2-.2h-.6v-.6h-.3v.3h-.4v-.7h-.3v-.2h-.5v-.3h.8v.2h.4v-.2l-.3-.1h-.2v-.2h-.2v-.1h-1.4v-.2l-.1.2-.2.3v.1h.2v-.1h.2v.3h-.4v.1h-.5v.1h-2.1v.2h-.3v-.2l-.1.1v.2h-.2v.2h.3l.1.3h.5v.3h-.4v.2h-.9v.2h-.5l-.1.1h-.1.3v-.3h.3v-.3h-.4l-.2.3h-1.7v.2h-.3v-.3h-.1l-.2.1v.4h-.2v.1h-.1v.3h-.3v-.2h-.7.2v-.4h.4-.1v-.2h-.6v.3h-.8v-.2h-.3v-.3h-.5.1v-.3h-1.3l-.2-.1v-.1h-.7v-.3h-.5v-.3l-1 .3h-.6v.2h-.2v.1h-.2v.5h-.1zm-77.3.8l.1.4v.2h.2v.2l.2.3v.1l.2.2h.2v.2h1v-.2h.4l.3-.2v-.1h.5v-.3h.8v-.2h.4l.1-.1h.3v-.2h.2v-.1h.3l.1-.1h.2l.2-.3v.2h.1l.1-.2h.3l.1-.3h1.2l.2-.2.1-.1h.5v-.2h1.1l.3.1v.4l-.4.2v.5h-.3v.7l-.2.3-.2.3v1l.2.3h.1v.1h1.1l.1-.1v-.1l.2-.2v-.1h.2v-.2h.1v-.1h.1v-.2h.1l.1-.1v-.3h.2v-.2h.2v-.3h.1v-.1l.2-.5v-.2h.2v-.5l.3-.2v-.1l-.2-.2v-.6h.4v-.1l.1-.3v-.2h.2v-.4h-.3v-.2h-.3v-.2h-.2v-.3h-.1v-.2h-.3l-.1-.1h-1v-.3h-.2v-.1h.2v-.3h.4v-.1h.1v-.3h.1v-.5h-.3v-.3l-.2-.1v-.2h-.2l-.1-.2h-.3l-.2-.3h-.5v-.2h-.4v-.2h-.2v-.9h-.2v-.3l-.2-.1h-.2v-.1l-.1-.2h-.2l-.1-.2h-.2v-.2h-.2v-.1h-.1v-.3.1h-1.4v.3h-.5v.2h-.4v.3h-.6v-.2h-.5v-.3h-.3v-.2h-.2v-.1h-.2v.6h.3l.1.3v1.7h-.3v.1h-.1l-.1.3h-.2v.3h-.3v.3h-.2v.4h-.2l-.1.5h-.3v.3h-.2v.2l-.2.2v.1h-.2v.3h-.1l-.1.2v.2l-.2.1v.4h-.1v.8l-.1.1v.5h-.2v.3l-.1.1-.1.2v.2zm110.9 24.7h.4v-.1h.6v.2h1.6v.2h1.1v.2h.2v-.1h.2v.1h.8v.1h-.8v.3h1.3v.2h.7v-.2h.3l.2.1v.1h.4v.3h.8v.1h.2v-.1l.2-.2v.3h.1l.1-.1h.2v.1h.2v.1h.8v.3h.5l.1-.2v-.2.1h-.6v-.1h-.2v-.1h-.8v-.2h-.2v-.3h-.2v-.4h.2v-.1h.6v.1h.1v.3h.1-.3v.4h.4l.1.2v-.2h.2v.2h.4v.1h.2v.1h.6v.3h.6v.3h-.2v.2h.8v.1h.2v.1h.5v.1h-.3v.2h.9v.3h.3v.1h.4l.1.2h.3v.3h.5v.2h.1v-.3h.2v-.2h-.4v-.2h-.2v-.2h-.4v.1h-.4v-.2h-.1v-.1h-.5v-.2h-.3l.2-.2h.3v-.6h.3v-.2h.2v.2h.3v-.1h-.3v-.3h-.3v.1h-.4l.1-.3h.1v-.4h.6v-.1h.1v-.9h-.4v-.3h.1v-.1h.3v-.2h-.5v.2h-.2v-.2h.2v-.2h-.7v-.4h-.2v-.2h-.1v-.3l-.1-.1v-.1h-.4v-.3h-.2.3v-.2.2h.2v.3h.5v-.5h-.5 1l.2.2h.3v-.3l-.2-.1h-.2l-.1-.3h-.1v.2h-.2l.2-.3h.1l.1-.4v-.8h-.3v-.2h-.4v-.6l-.3.2v-.3h-.1v-.3h-.5v-.1h-.3v-.3h-1.3v-.3l-.2-.1h-.1v-.2h-.3v.3h-.6l-.1-.3v.2l-.1.1h-.5v.2h-2v-.3h-1v-.1h-.2v.2l-.2-.4h-.4v-.2l-.2-.1v-.2h.2v-.4h-.5v-.2h-.1v-.2h-.6v.4h.2v.3l-.4.5.2.2h.2v.3h.3v.6h-.4v.1h-.5v.2l.2.1h.6v.3h.3v.3h.2v.7h-.6v-.3.1h-.5v.6h.2v.2l-.1.1v.2h-.3v1l-.2.1-.1.2h-.1v.7h-.2v.3h-.2v.2h.2-.2v.3l-.3-.3h-.5v-.2h-.3l-.2.2-.2.3h-.5l-.2.3zm11.5-2.4v-.1h.4v.1h-.3zm-158.3-42.7l.1.6v.5h.1v.2h.2v.4h.2v.3l.1.2.2.1h.1v.5l-.3.1-.2.2h-.1v.3l.2.2.2.2h.2v.3h.4v.3h1v.2h.1v.1h.4v.2h.3v.3h.9v-.2h.6v-.4h.2v-.3h-.5v-.1h-.2v-.6h.4l.1.1v.1h1.2v-.2h.5v-.5h.1v-.2l-.2-.1v-.5h-.1v-.2l.2-.2v-.1h.1v-.2l.2.1v-.5h.2v.2-.8h-.2v-1.3h.3v-.2l.1-.1.1-.2v-.2h.2v-.2h.1v-.1h.3v-.3h.8v.2-.5h-.4v.2l.2-.3h.3v-.4h.4v-.2h.1v-.4h.2v-.1l.1-.1.2-.2v-.3h.1v-.5l-.3-.2v-.3h-.7l-.2-.1.1-.2.2-.2v-.3l.2-.2-.2-.1v-.3l-.2-.2v-.6h-.1v-.1h-.3l-.1-.3v.3l-.2-.3h-.4v-.2h-.4l-.2.2h-.6v.2h-.2v.1h-.3l-.2.2h-.9v-.2h-.9v.2h-.4v.3h-.1l-.2.5v.5h-.2v.1l.1.2v.2l.1.1v.3h.1v.1h.2v.2h.1v.2h-.4v-.3h-.1v-.3h-.3l-.1.3h.2l.2.2h.1v.2-.1.5l.1-.4v.2h.3v.2h.2v.2h.1v.4h.1v.3h.2l-.2.1v.1h-.5v.3h-.2v-.2l-.1.1-.2.3h-.4v.1h-.4l-.2.1-.1.2-.2.2-.2.2v.2h-.3v.3-.1h-.1v.1h-.2v1.1h-.1v.1h-.6v-.2h-.2zm-44.3-2.8v.3l.3.3v.5l.4.2v.1l.1.1v.3h.2v.3h.1v.2h.4v-.2h.4v-.2h.1v.3h.1v-.2l.1-.2v-.4h.5v-.2l-.2-.1v-.3h-.2v-.3l.2-.1v-.3h.2v-.1h.3v-.3h.5v-.2h.1v-.1h.5l.1.3.1-.3h.6v-.2h.1v-.2.1h-.5v-.2h.2v-.1h.1l.1-.3v-.1h.2v-.8h-.6v-.2h.3v-.1h.6v.3h.6l.1-.2v-.2h.4v-.3h.9l.1-.1h.3v-.2h-.3l.2-.2h-.2v-.2h.2v-.4h.4v-.2h.1v-.2l.1-.2h.2v-.4h.2v-.1l.2-.3v-.2h.2l.1-.2v-.2l.2-.2h.1v-.4h.2l.1-.2h.2v-.4l.1-.2v-.4h.2v-.4h.1v-.2h.1v-.1l.2-.4.2-.3v-.2h-.4v-.3h-.2v-.1h-.3v-.2h-.5v-.1h-.2v-.3h-.7v.3h-.5v-.3h-.8v.3h-.4v-.3l-.1.2-.2.1h-.3v.3h-.4v.3h-.3v.1h-.1v.1h-.5v.3h-.1v.2h-.4l-.2.2v.2h-.2l-.3.1v.4h-.3v.1l-.2.1v.3h-.2v.1h-.2v.1h-.1v.3h-.1v1.4l.3.1v.1h.1v.4h.1v.2h.6v.6h-.3v.4h.2v.1h-.6v-.3h-.6v.2h-.1v.3h-.5v.2h-.1v.2l-.1-.1-.2.2v.2h-.2v.1l-.2.2v.2l-.2.1-.1.2v.2l-.2.2v.2h-.1v.1l-.3.4v.3h-.1v.3h-.1v.3zM228 163.4v.6h.2v.5h-.2v.8h.5v.3h.2l.3-.2v-.3h.7v-.1h.3v-.4h.6v-.1l.1-.2h.1v-.3h.5v-.2h.2v-.1h.3v-.2h.8v-.2h.2l.2-.1h.2v-.2h.2l.2-.2v-.2h.1v-.2h.2v-.2h.1v-.2l-.2-.2-.2-.2v-.3h.7v-.2h.2v-.1h1v.3h.1v.1h.2v.2h.2l.2.3h.4v.1h.9l.1-.4.2-.1v-.1h.2v-.2h-.4v-.2h-.1.5v-.4h-.8v-.3h-.4l-.3-.2h-.1l-.2-.3h-.2v-.3h-.6v-.2h-.5v-.3h-1v-.3l-.3.3h-.5l-.1-.4h-.3v-.1h-.4v-.3h-.1v-.3h.4v.3l.1.1h.4v-.3h.3v-.3h2.4v.3h.5v-.3h.2v.3h.7v-.3h.4v-.3h.2v-.4h-.5l-.1-.2h-.2v-.2h-.6v-.2h-.1v-.1h-.3l-.1-.2v-.1h-.3v-.2h-.5v.2h-1.4v-.4h-.6v.2h-.1v-.2h-.2l-.1-.4h-.1l-.2.3h-.1v-.3h-.1v.3h-.4l-.1-.3h-.2l-.2.1v.2h-.2l-.1.4v.5h.3v.2h.2v.3h.2v.9l-.2.1h-.7v-.2h-.1v.3h-.2l-.2-.3h-.4v.3h-.3l-.1.4-.1.2h-.1v.4h.1v.7l-.3.3-.1.2v.1h-.2v.2h-.2v.3l-.2.2v.1h-.1v.3l-.1.1v.5h-.1v.4h-.1v.8zm-82.5 86.9l.2.2v.1h.3v-.1h.3l.3.2h1v.2h1v.1h.1l-.3.2v.2l.2.3h.6l.4.1h.4l.3.2h.2l.2.2h1.3v.2h.4l.4.1h.2l.1.2h.3l.1.3h.4v.2l.1.1v.1l.2.1.2.3h.1l.2.2v.1l.3.3v.5h.2v.1h.5v.2h.3l.2-.2v-.1h.5l.1.1h.2l.2.3h.8v-.3h.2l.1-.1h.6l.3.2h.1v.2h.1v.2l.3.2h.1l.2.2.3.1h1v.1l.1.1h.8v-.2l-.2-.2h-.2v-.2l.2-.2h.4v-.2l-.4-.2h-.3v-.2h-.1v-.3l-.3-.1v-.3h-.2l-.1-.1-.1-.2h-.1v-.2h-.3l-.2-.2v-.2h-.5l-.1-.2h-.2v-.1h-.1v-.2l-.3-.3v-.2h.3l.1-.2v-.6l-.4.1-.1.1v.1h-.2v.3h-.4l-.3-.3h-.5l-.1-.1h-.3l-.2-.2h-.2v-.1h-.6v-.2l-.1-.1h-.1l-.2-.3h-.2v-.2h-.2v-.1h-.2v-.2h-.2v.4h.1l.2.3h.2l.2.1h.1l.2.2v.4h-.2v.1h.2l.2.1h.1l.3.2h-.6v-.2h-.3l-.2-.2-.2-.2h-.1v-.2h-.7l-.1-.2h-.4l-.1-.2h-.3l-.1-.1h-.1l-.1-.1h-.3v-.2h-.2v-.1h-.1l-.1-.1v-.2h-.3v-.2h-.3l-.2-.2h-.6l-.1-.1-.2-.1h-.2l-.3-.4-.4-.2-.3-.1v.6h.3v.3h-.4l-.1-.3h-.5l-.1-.2h-.4l-.1-.1h-.6l-.2-.2h-.3l-.1-.2h-.3v.3l.1.1.2.2h.5v.2h.3v.1h.4l.4.1h.1l.2.2h.6l.3.2h.1l.1.1.3.2h.1v.2l-.3.1h-.7l-.3.3-.3-.3h-.3l-.3-.2h-.3v-.1h-.1l-.2-.1h-.9v-.1h-.4v-.1l-.3-.3-.2-.1v-.1h-.2v-.3.6l-.1.2v.1l-.1.1h-.1zm3.5.9v-.2h.2v.3zm1.4-.4v-.2h.3v.4h-.4v-.2zm.2-.1h.2zm7.2 1.6v-.2h.3v.4h-.2zm0-.3h.2zM145 111.1v.3h.2v.1h.1l.1.3h.3v.9h.2v.2h.1v.3h-.2v.5l.2.1.1.2v.3h-.1v.2h.6v.3h1v.2h.3v.2h.1l.1.1h.3v.3h.3v.1l-.1.3v.2l-.4.1v.1h.1v.2h.3v-.1h.3v.2-.2h.9v-.3h.5v-.2h1l.1-.2h.1v-.1h.1v-.3h.3v.2h.4l.1-.3.2-.3h.1l.2-.1-.3-.2v-.1l-.2-.2h-.1v-.1h.1v-.3h1v-.3h.2v-.2h.4v-.3h.3v-.5h-.3v-.2l-.3-.1h-.2v-.3h-.3v-.1h-.2v-.6l-.1.1h-.5v-.2h-.2v.2h-.2l-.2-.2v-.1h-.1v-.2h-.4l-.2-.2h-.1v-.2h-.1v-.1h-.5v-.3.2l-.2-.2h-.3l-.1.2h-.5v.3h-.2v-.2h-.6v-.3h-.6v-.2l-.2.1h-.2v-.1h-.2v-.1l-.3.2v.3h-.2v-.2h-.4l-.2.2h-.4v.3h.5v.2l.2.1h.3v.5h.4-.8v-.2h-.9v-.3h-.6zM226.4 274l.1.4.2.4v.6l.3.5v.1l.1.3.1.2.3.4.1.1.2.2.4.2.1.2.3.3v.3l.3.2.1.2.1.2.1.2.2.3.2.2v.3l.2.2v.2l.1.1v.5h-1.1v-.3l-.1-.3-.1-.2h-.2v.8l.2.2h.2l.1.2.2.3.1.5h.1l.1.3.5.2.3.2v.8h.1v.8h.2l.1.1.3.2.2.2h.1l.2.2.1.5.1.1h.2v-.2l.2.1v.2h.4l.1.2.2.1h.1v.1l.4.2v.2l-.3-.2-.2-.1-.1-.2h-.3v.3l.3.3v.2h.2v.2l.3.3.5.3.3.1.1.1h.1l.6.5h.2l.3.3.3.4h.3l.2.2v.2h.2l.1.2.1.2h.2l.1.2h.6l.1.2h.1v-.4h-.2v-.3h.4v-.2h-.2l-.1-.1.1-.2h.2l.3.4h-.2v.1l.2.1.2.3.2.1h.6l.1.3v.1h-.1v.2h-.5l-.3-.2h-.2v.2h.2l.2.3h.3l.1-.2h.3l.2-.3h.2v.6l.2.1v.2l.2.2.2.1v.2h.5l.1-.2h.2l.1.4v.4h.3v.1l.2.3.1.2h.3l.1.1h.3v-.1h.3v.3h-.4v.1l.4.1h.2l.3.4h.2l.1.1.3-.1h.1v-.2l-.5-.6h-.1v-.1l-.5-.2h-.2v-.1l-.1-.3-.2-.1-.4-.5-.4-.3h-.1l-.3-.3h-.1l-.3-.2h-.5v-.5h-.1l-.2-.2-.2-.2h-.2l-.2-.3-.1-.3-.4-.3-.3-.4-.4-.3v-.2l-.3-.3-.3-.3-.4-.3-.5-.6-.3-.3-.2-.3-.3-.2-.4-.4-.3-.2-.4-.4-.2-.2v-.2l-.4-.2-.2-.4-.2-.3-.1-.1v-.1h-.2l-.3-.3-.3-.1-.1-.1-.3-.2-.2-.3-.3-.4-.2-.2-.3-.4-.2-.3v-.1l-.1-.1-.2-.3-.2-.3-.1-.2h-.1l-.1-.2-.4-.5-.2-.5-.2-.2-.1-.1-.1-.2-.3-.2v-.6l-.2-.1-.1-.3h-.1l-.4-.5-.2-.1v-.2h-.3v-.2l-.2-.1v-.2h-.2v-.3l-.3-.6v-.7l-.1-.2-.1-.2h-.2v-.2h-.1zm5.8 11.4h.3v.1h-.1v-.2zm2.2 1.6h.1l.1.2h-.1zm2.3 2v-.5h.2l.1.3v.2h-.2zm.3 0h.2v.2h-.2zm-61.4-119.6l.4-.1v-.3h.3l.1-.2v-.1h.2v-.2h.4v-.2h.4v-.1h.3v-.8h.5v-.2h.1v-.2h.2v-.3h.4l.1-.2v-.3h.1v-.4l.2-.2h.2v-.3h.2v-.2h.1v-.4h.2v.1h.2l.1-.2h.5v-.3h-.4.3v-.2h.3v.2h.3v.2h.7v-.5l.2-.3.1-.4h.3v-.3l.2-.2v-.4h.2v-.1l.1-.1h.1v-.6l.1-.1v-.3h-.3v-.2h.8l.2-.3v-.2h.2v-.5l.1-.2h.3l.2-.3v-.5h.2v-.3h.3v.3h.1v-.3h-.3v-.4l.3-.3v-.2h-.3v-.1h.2v-.4h.3v-.1l.1-.2h.3v-.1l.2-.2v.3-.1h.4v-.2h-.4v-.1h.4v.2h.2v-.4h-.1v-.1h.1v-.2h.2v-.1h.6v.3h.1v-.1h.4v-.4h.5v-.2h.1v.1h.3v.3h.5v-.2h.1v-.4h.2v-.1h.7v-.3.2h.5v-.1h.3v-.2h.5v.3h.6v-.5h-1l-.2-.3v-.2h-2.8v.2h-1.6v.3h-.3v-.2.1h-.1v.1h-.2v.3h-.8v.2-.2h-.4v.2h-.3l-.1.2h-.1l-.2.1h-.1l-.1.2v.3h-.3l-.1.2v.1h-.3v.3h-.1v.1l-.2.1v.6l-.1.4v.5l-.2.1v.3h-.1v.1l-.1.2v.6l-.2.1v.3h-.2v.4h-.2v.3l-.2.3h-.2l-.1.2v.4l-.3.2v.2h-.2v.3h-.2v.1h-.1v.3h-.2l-.1.1-.2.1v.2h-.1v.2h-.1v.1l-.2.2h-.2v.3h-.3v.3l-.3.1v.2h-.4v.3h-.3l-.2.3v.5h.4v-.2l-.2.2v.1l-.2.2v.3l-.1.2h-.2l-.1.3h-.1v.1l-.2.2v.2h-.1v.2h-.3v.1h-.4v.8h-.2v.2h-.2v.3l-.2.2h-.2l-.3.2zm12.9 101.4l.1.1h.1l.2.3.3.1.3.1.2.1.6.2h.1l.7.3.5.2h.2l.2.3.5.1.3.2h1.2v.2h.2l.3.2h.5l.4.3.3.2h.8l.3-.2h.6l.3.3.3.2.5.3h.1l.4.3.3.2.2.5h.1l.5.3v.1l.6.2.1.2h.2l.3.1.6.3h.2l.3.4 1 .7h.3l.2.2.3.2.3.2.5.2.4.2.1.1v.1l.3.2.1.2h.1v.2l.3.1.5.5h.2l.2.4h.3l.2.2v.1l.3.3v.2l.3.1v.3l.3.1.4.2.2.1v.2h.1v.3h.6v-.3l-.3-.2h-.2v-.4h-.2v-.2h.3v-.2l-.2-.2-.1-.1h-.2v-.3h-.3v-.2h-.4v-.1h-.3l-.2-.2h-.1l-.2-.2-.5-.3v-.3h-.3l-.2-.2-.1-.1-.4-.4-.3-.3-.4-.3-.3-.3-.2-.1h-.1l-.2-.3-.2-.1-.3-.2-.1-.2v-.2h-.9v-.4h.2v-.2l-.2-.1v-.1h-.4l-.5-.4h-.6l-.3-.2-.3-.2-.3-.2-.2-.4-.2-.1v-.2h.5v-.2h.1l.2-.3v-.3l-.3-.2h-.2l-.1-.1-.2-.2v-.3h.2v-.3l-.3-.2v-.3l-.2-.1v-.1h.4v-.8h.1v-.1l-.4-.1v-.2l-.1-.2v-.2l.3-.4h-.6v-.1h-.4v.1l.1.4v.3h-.8l-.2-.2h-.5v.1l.6.3v.2l.2.3v.8l-.3.1v.2h-.5l-.3-.4-.2-.1-.3-.2h-.4l-.4-.2-.1-.1-.2-.2-.3-.2h-.1l-.3.2-.2.2v.7h-.5v.1H192v-.4h-.5l-.3-.1h-.2l-.3-.3h-.2l-.2-.2-.3-.1h-.2l-.1-.2h-1.1zm10.5 1.3h.2v.2zm-45.7-10.6l.1.2h.3v.1h.2v.2h-.2v.2l.3.1h.3v.1h.2v.2h.1v.1h.1l.1.2h.2v.1h1l.3-.1.2-.2.1-.2h.2l.2-.1h.3v-.1h.5v-.1h.6v-.1h.3v-.1h1.3l.3.3h.3l.1.1h.6l.1.1h1l.3.2h.2l.4.2h.2v.1h.6l.2.1h.5l.2.2h.6l.1.1h.7v.1h1.1l.1.2h.1l.2.1h.1l.1.1h1.3l.2.1h.7v.2h1.3l.2.2h.9l.1.2h.4l.2.1h.2l.2.1h1.2v.2h.2v.7l.2-.2v-.4h.6l.3.3h.3l.1.1.3.1h.2l.3.3h1v.1h.2l.4.2.4.2.2.1h.5l.1-.2v-.2l-.3-.1-.2-.1-.4-.3h-.1l-.2-.3-.4-.2-.3-.1h-.2l-.2-.4h-.8l-.3-.1-.1-.1h-.2v-.2h-.6l-.1-.1-.3-.1h-.1l-.3-.2h-.2l-.3-.1h-.2l-.2-.2h-.8v-.1h-.1l-.2-.1-.2-.1h-2.3v-.2h-.9l-.2-.2v-.1h-.5l-.1-.1h-.2v-.1h-.4v-.1h-.6l-.2-.1h-.5l-.1-.1h-1v-.2h-1l-.1-.2h-.2l-.2-.1h-.3l-.2-.2h-.4l-.1-.2h-.7v-.2h-.4l-.3-.1h-.2l-.2-.2h-1.2l-.3-.1v-.1h-2.5v.3h-.2v.1h-.2v.2h-.1v.2h-.2v.5h-1.9l-.1.1h-.5l-.3-.3h-.1l-.1-.2h-.2l-.2-.1h-.3zM356.8 135l.2.3v.2h.2v.2h-.2v.3h-.2v.2h.4v-.4h.3v-.2h.2v-.2h.2v-.2h.1v-.2h.2v-.1l.1-.1h.1v-.3h.2v-.3h.2v-.2h.2v-.9h.2v-.3l.2-.2v-.7h.2v-.6l.1-.3v-.6l-.4-.2v-.2h-.2v-.4h-.1v-.3l.4-.1v-.2l.1-.1v-.4h.1v-.2h.4v-.3h.4l.3-.3h.1v-.2h.1v-.2l.1-.1.1-.2h.2v-.8h.2v-.4l.1-.3v-.4h-.3v-.4h-.1v-.3l-.1-.1v-.3l.3-.6v-.4l.2-.5.2-.4v-.3h.1v-.2h.1v-.4l.2-.2h.1v-1l.1-.4h.3v-.4h.1v-.2h.2l.2-.3h.2v-.1h.2l.1-.2h.1l.2-.3v-.3l.2-.1.1-.2v-.3h.2l.1-.2h.1v-.2h.5v-.3.2h.4v-.1h.3v.2-.1h.1v-.2h.6l.1-.2h.3v-.1h.2v-.2h.1v-.5l-.2-.1v-.3.2h-.1v-.1l-.2-.2h-1.2v.4H364l-.2.1h-.1v.1h-.4v.4h-.1v.1h-.1l-.1.3v.8l-.2.2h-.1v.1h-.1l-.2.3h-.4v.2h-.1l-.1.2-.2.2-.1.1v.1h-.1l-.2.5v.5h-.2v.6l-.2.1v.8h-.1v.3h-.3v1l-.2.2v.7l-.1.2v1.1l.3.2v.2l.1.2.1.4v.3l-.2.1v.2l-.2.1v.2h-.2v.2l-.2.1h-.2v.2h-.3v.1h-.2l-.1.3h-.3v.3h-.3v.3h-.2v.1h-.1v.2h-.1v1.1h.1v.4l.2.1v.3l.1.1v.1l.1.2v.5l-.2.4v.8h-.2v.1l-.1.3v.3h-.1v.1l-.2.4v.2h-.2v.2h-.1l-.1.3-.1.1v.2h-.2v.5zm-149 5.6v.2l.3.3v.1h.3v.2h.3v.1h.2v.2h1.1v.1l.3.1v.1h.7v.3l.1-.3h.2v.4h.6v.2h1.9v.2h.9v-.2h.3v.2h1.2v-.2h.3v.2h1l.2.2.2.1h.3v-.3h.1v-.2l-.2-.1-.1-.1-.2-.2-.3-.3v-.2h-.2l-.3-.3v-.1h-.2l-.1-.3h-.3l-.1-.3h-.3l-.1-.2v-.1h-.2l-.1-.2h-1v-.2h-.7l-.1-.2h-.4v-.1h-.2v-.3h-.5l-.2-.2v-.2h-.3v-.1h-.4v-.1h-.2v-.3h-.1v-.2h-.2l-.2-.3h-.2v-.2h-.4l-.1-.3h-.2l-.2.2v.6h-.2v.2h-.1v.5h.3v.7h-.3v1.2h-.8l-.2-.2h-.4v-.2h-.5zM196 265h.4l.2.3.2.1.2.1.3.2.2.1h.2l.4.3h.4l.1.2.7.3.2-.1h.2l.3.3v.2l.2.1.2.2v.1h.1v.9l.2.1v.5h.3v.3h.1v.5h.5l.2-.2.1-.2h.1v-.1h.4l.6.6h.2v-.3l-.2-.1-.2-.2-.3-.4v-.5l-.3-.2h.4v-.1h.2v-.1l.2-.2.3.3h.1l.1.2h.3l.5.5v.5h.4l.2.2h.3l-.2-.4v-.7l-.3-.1v-.9h.1l.2.1h.2l.1-.1v-.3l-.3-.1-.2-.3v-.4l.4-.2v-.4h-.5v.1h-.5l-.2-.4-.3-.2-.1-.1h-.4v-.1l.2-.3.4-.1v-.2h-.8v-.2l-.1.3h-.2v.2h-.2l-.1-.4-.2-.1h-.2v.5h.3v.5h-1.2l-.2-.3-.1-.1h-.2l-.1-.4-.2-.1-.2-.2-.3-.4-.1-.1-.2-.2h-.7l-.5-.1-.2-.4-.2-.1h-.2v.3h-.4v-.4h-.3v-.2h-.3v-.2h.5v-.2h-.8v.4h-.3l.3.1h.1l.1.2h.2l.1.3h.2l.3.2.2.1h.4l.1.4h.1l.6.3.8.2.1.3v.2h.2l.1.3.1.2v.3h-.3l-.5-.5h-.1v-.2h-.4v.5l.4.2H198l-.1-.3h-.4l-.4-.2h-.9zm2.4.7h.5v.2h-.5l-.2-.2zm.6 0v.2l.3.1h-.3v-.1zm.5.3h.9l.2.3v.2l.3.1v.1h.1l.2.3v.3h-.3l-.4-.3-.2-.3-.3-.1v-.2l-.3-.2h-.1v-.2zm4 0h.2v.2zm1.5 1.1v.2h-.2zm-68.7-135.9l.2.2v.1l.2.2h.2l.1.3h.3-.5v.3l.2.1h.3v.1h.3v.3h.1v-.2h.3v.2h.2v-.4l.1.1h1.3v-.5h-.2l-.1-.2h-.6v-.4h.2v-.1h.1v-.3h.3v-.5.1h-.3v-.3h.4v-.1h.1v-.2h.2v-.4h.3l.2-.3h.2v-.3h.1l.2-.2h.7v-.3h.6v-.3l.2-.2h.6v-.3h.4v-.6l-.2-.1-.3-.5v-.1h-.2v-.4h-.3v-.2h-.6l-.1-.3h-.2v.2h-.3v.3h-.4l-.1-.3-.2-.3h-.1v-.1h-1.1v.2h-.1v.5l-.4.3v.3h-.2v.4h-.3v1.4l-.1.1v.2h-.3v.3h-.3v.3h-.2v.3h-.1l-.1.1v.1h-.2v.2h-.1v.4h1l.1.2h.2v.6h.6v.3h-.2l-.2.1-.1.1h-.9v-.2h.3-.2v-.2h-.3l-.2-.3h-.5zm55.6 144.9v.3l.1.4h.1l.4.2h.5l1 .7.6.3.1.2.3.3.1.1.2.4.1.2v.4l-.2.1h-.2v.2l.2.3h.2v.5h-.4l-.3-.2h-.1v.5l.4.2v.2l.3.2.1.2.4.2h-.2l-.1.3v.2h.3v.2l.2.1v.4l.3.1.1.3v.2l.2.4.2.2v1.1l.1.3.3.1.4.4.1.1.3.2h-.3v.3h-.1v.1h-.2v.3l.2.1v.1l-.2.1v.1h-.2l-.2-.3h-.3l.2.4h.1l.1.1h.3l.1.1h.3l.2-.3.2-.1v-.2h.2l.2-.2v-.4l-.4-.1-.2-.3v-.3l-.1-.3v-.1l-.1-.7-.4-.6-.2-.2v-.2h-.2v-.3h-.2v-.4l-.1-.1-.2-.2-.3-.6-.2-.4h.2l.4.3.8.3.6.2.2.2.6.3h.8l.2.3h.2l.3.2.2.1h.3l.2.2.3.3.3.1.2.1.3.2h.2l.3.2h.4l.4.3h.1v.3l.1.1h.1l.3.3h1.1l.2-.4h.1l.1-.1h.5l.3.1.1.1v.2l.3.1h.1l.2.1.2.3v.2h.8v.3h.5v.1h.2l.1.3.3.1.2.2.2.1.3.3h.2l.2.1.1.1.3.1v-.1l-.3-.2-.3-.4-.2-.2-.1-.2h-.2v-.2h-.3.3v-.2h-.4v-.1l-.2-.1h-.2l-.1-.3h-.2l-.2-.2h-.5l-.1-.5h-.3l-.2-.1h-.6l-.3-.1h-.2l-.2-.2h-.1l-.6-.2h-.9l-.2-.1h-.2l-.2-.2h-1l-.3-.3h-.3v-.3h-.3l-.2-.1-.1-.2-.3-.3H200l-.2-.5h-.2v-.2l-.3-.3-.2-.2-.2.2h-.9l-.2-.3-.3-.2-.4-.2-.2-.1-.3-.3h-.2l-.2-.2v-.2l-.2-.2v-1.5l-.2-.2v-.5l-.1-.1-.1-.1v-.2l-.1-.2h-.1l-.6-.4-.1-.1-.1-.2-1-.6-.5-.2-.1-.2v-.3h-.9l-.2.2zm17.1 11h.2zm-43.7-128.7l.1.3h.2v.2l.1.1.1.1.1.3h.1v.6h.4v.3-.3h.6v.3h1.1v.2h.3l.1-.3v-.1h.3v-.2h.1v-.1h.1v-.2h.3v-.6h-.3v-1.7l-.2-.1v-.2h-.1v-.7l-.1-.1v-.4h-.1v-1.3h-.2l-.2-.3h-.1v-.2.1h-.5l-.3.5v.1l-.2.3v.3h-.3v.2h-.1l-.2.3v.2h-.3l-.1.2v.1h-.3v.4h-.2v.2l-.2.1v.4h-.1v.9zm-30.9 96.7v.2h.8v-.3h.8v.3h-.1v.2h-.3v.1h-.4v.1h-.4v-.3l-.2.2v.1l.2.3h.5v.2h.6l.1-.2h.1v-.2h.2v-.2h.2v-.1h.3l-.3.4h.9v.1h.4-.4.3v.2h.2v.3h-.9.7l.1.1h.2l.2.1h.2l.2.2.1.1h.2v.2h.1v-.2h.4v-.1h.2v.5h-.3v.1h.2-.4l-.1.2h-.4v-.3h-.6v.3h.7l.2.1h-.3v.1h.7l.1.1h.5v-.3h.6l.1.3h.4v-.3h1v.3h.8l-.3-.3v-.1h-.2v-.1h-.7l-.1-.2h-.5l-.3-.2h-.3l-.2-.1h-.5v-.2h-.1l-.1-.1v-.1h-.9l-.1-.1v-.1h3v.1h.5l.3-.2h.2v.3h.2v-.3l.2-.1v-.2h-.3l-.1-.2v-.2l-.1-.1v-.2h-.3v-.1h-.1v-.2h-1.2v-.2h-.2l-.2-.1h-.3l-.1-.1h-.8v-.1h-.5l-.2-.1h-.2v-.1h-1.2l-.1-.1v.3h.3v.1l-.3.1h-.2v-.3h-.3v.3h-.3l-.1.1h-.3l-.1.1h-1.2l-.1.1zm1.9 0h.1l.1-.1h.3v.1l-.4.2h-.2zm1.3-.4v-.1h1v.2h-.4v.1h-.5zm.5 1.8h.3-.4zm1.4.9h.3v.1h-.3zm.3 0h.2-.1zm.3.2l.2-.1v.3h-.3zm1.6-2.3l.2-.2zm69.9-98.9v.1l.4.5v.1l.2.2h.1v.2l.2.1h.1v.3l.2.1v.1h.2v.3h.3v.3h.1v.1l.2.2v.2l.2.3h.5v.3h.2v.2h.1l.1.2.1.1h.4v.2h.4v-.2h.4v-.2h.2v-.1h.4v.4-.5h-.2v-.1h-.2v-.7l.2-.1h.1v-.3h1.3v.2h.4v.1h.2v-.3l-.1-.1h-.2v-.2h-.1l-.2-.2h-2.1v-.2h-.1v-.2h-.3v-.1h-.3v-.4l-.2-.1v-.3l-.1-.3h-.2v-.3h-.4l-.1-.3h-.2v-.2h-1.6v.2h-.5v.4zm-92.3 109.8v.3l.2.2v.1l.1.1h.4v.1h.6l.1-.3h.3v-.1h.8l.5-.2h.5v-.1h.9l.3-.1.2-.2h.8l.1-.3h.4v-.1h.1v-.1h.3l.1-.2h.2l.2-.1h1.6v-.2h.5l.3-.1.2-.2h.2l.1-.1h.2l.1-.1h.1l.2-.1v-1h-.9l-.2.3h-.2v.1h-.2v.1h-.2v.1h-.5v.2h-.1v-.2h-1.2l-.1.2h-.6v.2h-.2v.1l-.2.1h-.3v.2h-.6v.1h-.2v.1h-1.1l-.2.2h-.4v.2l-.3.2-.2.1h-.8l-.2.1h-.4l-.3.1h-.2v.1h-.4l-.1.1h-.2v.2zm38.9-20.2l.3.4h.5v.9h1l.2-.3.5.2.1.1v-.2h.2l.2.4h.2l.1.1.3.1h.1v.1l.3.2h.8l.2.1.1.1.4.2h.5l.3.2h2l.2.2.3.2h1.5v-.2h.3v-.3h.4v-.1h.1v.3l.1.1.2.2h.6v-.7h-.2l-.1-.1h-.5l-.4-.2h-1.5l-.3-.2-.5-.1h-.4l-.3-.3-.3-.1h-.5l-.2-.3h-.3l-.1.1-.3.3h-.1l-.2.1h-.2l-.3-.1-.3-.1h-.2l-.2-.2h-.2v-.1h-.5v-.2h-.2v-.1h-.8v-.1h-.1l-.2-.2h-.3v-.1h-.5l-.3-.3h-.2l-.3-.2h-1zm14.7 26.1l.1.1h.1v.2h.2v.1h.1v.2h.3v.2h.2l.1.1h.3v.2l.2.1.1.1h.1v.2h.1l.1.1h.1v.1h.1l.2.1h.1v.1h.1v.2h.2v.1l.1.1h.1v.3h.1v.1l.1.1h.4v.1h.8v.2h.4v.1h.8l.3.2h.2l.7.2h.3l.3.2.4.1.6.1h.4l.1.2h.2v-.3h-.4l-.3-.3h-.1l-.2-.2.3-.4.1-.1h.8l.4-.1h.2l.2-.1-.4-.4h-.2l-.1-.1-.2-.1h-.2v-.2h-.3v-.2l-.7-.5-.3-.2-.1-.2h-.1l-.2.1v.1l.3.1.1.1.4.3.1.2v.2l-.1.3v.2h-.2v.1l.2.2-.1.2h-.4l-.1.1h-.5l-.2-.1h-.5l-.2-.2h-.2l-.2-.1h-.4v-.6h-.1v-.3l.2-.1.3-.1.1-.1h.6v-.1l-.3-.2v-.2h-1l-.1-.1h-.6v-.1h-.2v.2h.4v.3h.1v.1h.1v.1l-.3.2v.1h-.6v-.2l-.1-.1v-.2h-.1v-.1h-.4v-.1h-.4v.3h.2v.1h.3l.1.1.1.1.2.1h.1v.2h.2v.4h-.4l-.2-.3-.2-.1v-.1h-.1v-.1l-.1-.1h-.2v-.3h-.1v-.3l-.1-.1h-.1v-.3h-.2v-.1h-.2v.4h-.1v-.2h-.2v-.1l-.3-.1v-.2h-.3l-.1-.3h-.4v-.1h-.3v-.2h-.4v.2h-.2zm4.4 2.5h.2l.3.2v.1h-.5v-.3h-.1zm2.9.8v-.2l.3.3h-.3zm-43.1-38.7v.3h.3l.2.3h.4l.1.3h.3v.1l.3.1h.1l.2.2h.3l.1.1.2.1.4.1.1.1h.1v.2h.5l.3.2.4.2h.3v.2h.3l.2.3h.3l.2.2h.3l.2.1h.2v-.2l.2-.2v-.2h-.3v-.2l-.2-.1-.1-.1-.2-.2-.2-.1v-.2l-.6-.3v-.2l-.3-.2h-.3l-.1-.1-.2-.2h-.1l-.3-.3-.1-.1v-.1h-.2v-.2h-.2l-.2-.1h-.1l-.2-.1h-.4l-.1-.3-.1-.2h-.1l-.3-.1h-.2v-.1l-.1-.1h-.4l-.2-.3v.7h-.4l-.1.1v.2h-.2v.5zm33.3 22.1v.2h1l.1.2h.5l.2.2h1.1l.3.1v.1h.3l.1.1.3.1v.2h.2l.1.2h.1l.2.2h.1v.1h.2v-.8h-.2v-.3h-.2v-.4l.2-.2v-.2l.2-.1v-.3l.1-.1h1.1v-.1h.1v-.2l.2-.1v-.1l.1-.2v-.2h.2v-.8h-.3l-.1-.1h-.3v.3h-.1v.1h-.4v.1h-1.4v.5h-.4l-.2.3h-.2l-.1.1h-.2l-.2.2-.1.1v.2h-.2v.2h-.1v.1h-.3l-.1.1h-.9v-.2h-.1v-.2h-.3l-.1.3h-.3v.2h-.2zm3.2-.4v-.3h.2v.3h-.3zm34.6 16v.2h.3v.1h.2l.2.1v.6l.1.2v.2l.4.2v.2h.1l.1-.2v-.3l-.3-.1v-.1h.6v.1h.3v-.3l.3.2.2.2h.3v.1h.4l.1.2h.1v-.2l-.2-.4-.1-.1-.3-.2-.2-.1v-.3l-.3-.3v-.3l.2-.1h.3v.2l-.1.3v.1h.4l.2-.4v-.2h-.3l-.2-.3v-.1h.2v-.1h.6v-.1l.1-.1v-.1l-.4-.2h.4v-.2l.1-.3v-.1l-.2-.4-.4-.3h-.4v.6h.3l-.2.2h-.4l-.1-.2v-.1l.2-.3h.2v-.4l-.2-.1-.2-.3-.3.4-.1.1-.2.1v.1h-.1v.7h-.4v.1h-.2v.4l.1.1v.1l.2.1v.2l-.1.1v.2h-.1l-.4.4h-.7v.1h-.2zm2.1-2v-.2h.3v.3h-.4zm36.9 2v.1l.4.3h.1l.4.2h.3l.4.2h.7l.5.2.3.1h.2l.2.1.3.1.6.3h.3l.1.2.1.1h.3l.2.3.3.2v.2l.4.3v.3l.2.1v.3h.9l.2.1.1.1.3.2.3.3h.2v-.4l-.4-.1v-.4l-.1-.3-.1-.3v-.2h-.2v-.3l-.2-.1-.1-.4h-.2l-.2-.1h-.1l-.1.3h-.2v.4h-.4l-.2-.4-.2-.1-.4-.1-.2-.2.2-.2h.6v-.8h-.3v-.2l-.2-.1h-.5l-.3-.2h-.1v-.1h-.6v.1l-.3.1v.4h-.7l-.2-.1h-.4l-.3-.3-.1-.1h-.3v-.3h-1.5zm6.7 2.7h.1zM131 226.7l.5.3h.2v.1l.3.2.1.1.1.2h.1l.2.1v.1h.2v.5h.2v.1l.1.1h.2l.2.2.3.1.1.2.2.2h.3l.4.2.2.1.1.2h.3v.1h.3v.1h.1v.1l.1.1h.2v.3h.4v.3l.3.1v.2h.5v.2h.2v.2h.3v.1h.6v-.3h.5v-.2l-.2-.2h-.2l-.1-.1h-.3v-.2h-.3v-.5h-.4l-.1-.3h-.1l-.1-.1h-.1l-.2-.3h-.1l-.1-.2h-.5v-.1l-.4-.2h-.2v-.3h-.4v-.2h-.2l-.1-.1h-.3l-.2-.1-.2-.1h-1.2v-.1h.4v-.2h.2v-.2l-.4-.2-.2-.1-.2-.2-.4-.3v-.1h-.3v-.3h-.2v-.2h-.5l.2.2.2.1h.1v.2h-.7v.2zm1.7 1.3h.1v.2-.2zm.1-.2h.2zm40.2 38.8h.2l.1.1h.2v.3h.5v.2h.2l.1.1.2.1.1.2h.1v.4h.3v.1h.1v.3l.3.1v.1h.3v.2h.2v.2l.1.1v.2l.3.1h.2v-.2h.2v-.2h.2v-.2h.1v-.4l.2-.1v-.1l.1-.1h.7v.7h.6l.4.1.2.2h.2v-.3h-.1l-.3-.1h-.1l-.3-.4h-.1l-.1-.1-.2-.2-.2-.2h-.2v-.2h-.2l-.1-.1h-.2v-.1h-.3v-.1h-.4l-.2-.1h-.2v-.2h-.5l-.2-.2h-.2v-.5l-.2-.1h-.1v.3h-.2v.2h-.6l-.2-.2h-.2l-.3-.1h-.5zm2.4.6h.6l.1.3v.2h-.5l-.2-.3h-.1v-.2zm-.1 0"/><path d="M142.5 265l.3.2v.3h-.2v.3h.4v.1h.3v.1h.2v.2h.4v.2l.1.1v.8l-.2.2v.2h-.1v.5l-.1.2v.2h.2l.2-.4h.5l.1.2h.2v-.4l-.3-.3v-.3l.3-.2v-.2h-.3l.2-.4v-.1h.2v-.5l-.3-.1v-.2h.4v-.1h.7l.2-.1h.6v-.2h.1v-.3h.7l.2-.1h-.5v-.2h-.5v.3h-.3v.2h-.1l-.1.1h-1.1v-.3h-.4l-.1-.1h-.2v-.5h.3v-.1h.2v-.3h.1v-.2h-.4v-.1.3h-.4v.5l-.2.2h-.5v-.2h-.3v.3h-.5zm1.4 3.2h.1zm.1 0v-.2zm40.2 8.6v.3h.2v.2l.6.1.1.1.2.2.2.2h.3l.2.1h.2l.3.3h.1l.4.2.3.2.3.3.3.2.3.3.2.2v.3l.1.2.1.2h.2l.3.2h.2l.3.4h.2l.2.4h.1l.2.3h.2l.2.3.3.2h.1l.2.4.1.2.2.1.4.3.3.3.3.2h.1l.3.3.2.1v.2h.3v-.3l-.5-.1v-.1l-.2-.2v-.2l-.1-.3-.2-.1h-.2l-.1-.3-.5-.4v-.2l-.7-.4v-.2l-.3-.3h-.2l-.1-.2-.2-.1-.1-.1-.2-.1-.1-.1h-.1l-.2-.4-.3-.2-.2-.1-.1-.1-.2-.3-.4-.2-.2-.3h-.2l-.2-.4-.3-.1h-.1l-.3-.3-.3-.2v-.3l-.1-.1v-.1l-.4-.2-.1-.2v-.1h-.1l-.3-.1v-.1l-.3.2h-.4l-.2-.2zM132.3 231v.2h.1v.2h.1l.1.2.4.1.1.3h.2l.2.2.5.3v.2h.3v.3h.2v.2l.2.1v.2h.2l.2.1h.2v.1h.2l.3.3.2.2h.4v.2h.2v-.3h.1v-.3l-.3-.1v-.1l-.1-.1v-.3h-.1v-.3l-.1-.1h-.1v-.3h.2v-.9h-.2v-.1h-.2l-.1.3v.5h.3v.1l-.3.2v.3l-.1-.2-.3-.4-.3-.2-.1-.1-.1-.1-.1-.1-.1-.1h-.1l-.1-.2-.2-.1h-.3v-.2h-.2v-.2h-.3v-.2h-1zm11 7.3v.2h.2v.5h.1v.2l.1.1.1.2v.4h.3l.2.1.6.4h.5l.1.2h.4v-.1l.1-.2.2.2h.1v-.7h-.3v-.3h-.2l-.2-.1v-.3h.1v-.3l-.2-.2-.1-.1h-.1v-.1h-.1v-.2l-.4-.2v-.2h-.1l-.3-.2v-.1h-.4v.3h-.2l-.1-.3h-.1v.4h-.2v.3zm1.4-.3h.2zm-4.7 22.8h.2v.2h1.2l.2-.2h.8l.2-.1h.7l.1-.1h1v.2h.3v.2h1l.3-.2h1.8l.2.2h.1l.2.1h.7v.2h.6v.1h.7l.1-.3v-.1h-.6v-.1h-.3v-.2h-.4v-.1l.2-.2H148l-.2-.1h-1.7l-.1-.2h-.9l-.1.3h-.8l-.2.2h-2.7l-.2.1h-.6v-.3h-.2l-.3.3zm.3 0v-.2h.3-.4zm.3-.1v-.1h.2v.3zm5-.3v-.1zm133.1 20.7v.3h.6v-.1l.2-.3h.1v-.2h.3v-.1h.8l.2.5h.1v.1h.2l.2.3h.5v-.3h-.1l-.4-.3-.3-.4-.1-.2v-.4h.6v.2l.2.2h-.2v.3h.3v.3h.5l.2.2h.2v-.2h.3v-.1h.3l.2.1v.2h.3v-.3h-.4v-.1h-.2v-.3h.3v-.5h-.4v.4H282l-.2-.3-.2-.1-.1-.1-.2-.1h-.4v-.3l-.2-.2-.4-.1-.3-.2-.2-.2v-.1l.2-.1.2-.1h.1v-.1h-.1l-.2-.2h-.5l-.3-.1v.3h.2v.6l.2.2.1.1.2.2h.1l.1.3v.2l.2.2.1.1.1.1v.1H279l-.1.1v.4h-.2v.2zm-16.9-1.7h.2l.1.3h.7v.1l.1.2h.1v.3l.5.1v.4l.1.2h.1v.2h.1v.1l-.2.2h-.1l-.1.2v.3l.3.1v.3h-.3v.4l.2.4h.8l.1-.2v-.3h.2v-.2h.3l.1-.2h.1v-.5h-.2v-.3l-.2-.3v-.2l-.2-.1v-.2l-.2-.3-.4-.1-.1-.3h-.4l-.3-.2-.1-.2v-.2h-.1l-.2-.1v-.1l-.6-.2v-.1h-.2v.4zm-54.3-23.8h.2l.1.1.2.1v.2h.3v1l.2.1.3.4h.3l.3.4h.1l.1.1.4.1h.2v.3l.5.2v-.4l-.2-.3h-.1l-.1-.2v.3h-.3v-.5h.3l.1.2h.3v-.3h-.4l-.2-.2-.1-.2.5.2h.1l.2.1h.2v-.2l-.2-.1-.2-.1-.1-.1v-.1h.1l.2-.1v-.4h-.3v-.2h-.5v-.2h-.8v.2h.1l.2.1h-.5v-.1h-.2v-.3l-.2-.1h-.3.2v.4h-.3v-.3h-.2l-.3-.3h-.2zm2.2.7v-.2h.3l.2.5h-.3l-.1-.3zm.6.3h.2zm.2.4h.2zm-47.5 6.8v.2h.3v.2h.2v.1h-.5v.1h.2l.1.1v.5h1.4l.1.2h.3l.1.1h.2v.1h1.5l.1.2h.8v.1h.2l.1.1h.4v.1h.4l.2.1h1.4l.1.2h.3v-.2h-.4v-.2h-.1l-.2-.1h-1.1l-.1-.2h-.1l-.1-.1v-.3h-.2v-.1h-.6v.3h-.2v.1h-.4v-.3h-1l-.1-.1h-.1v-.2h-.5v.2h-.6v-.4h-.1l-.2-.1-.1-.2v-.1h-.3.3v-.4l-.3-.2h-.9v.2h.3v.1h-.8zm4.7 4.3l.3.3v.3h.3v.2h.3v.1h.2l.2.2.2.1h.1v.1h.4v.3l.3.2.1.1h.3l.3.2h.2l.1.3h.2v.1h.1l.1.2h.3v.2h.1v.2h.1v.1h.1v.3h.2v.1l.2.1h.1l.2.2v-.2l-.3-.2v-.1l-.1-.1v-.2h.3v-.2l-.2-.2h-.1l-.1-.2-.2-.1v-.1l-.2-.1v-.2l-.1-.1h-.1l-.2-.2h-.2v-.3l.2-.1h.6v-.1h.3v-.1h-.5l-.1-.2H170v-.2h-.8l-.1-.1h-.1l-.3-.1-.1-.1h-.2l-.2-.2-.2-.1-.2-.1zm-29.3-15.6h1-.2v.3h.5v.1h.2v.1h.8v.2h.6v.1h1.2l.2.1h1.1v.1h.2l.2.1h.8v-.3h-.8v-.2h-.4v-.1h-.3v-.2l-.2-.1h-.2v-.1h-.1v-.2h-.3v.3h-.9v-.4h-.2v-.1h-.3v.3h-.2l-.1-.2h-.1l-.1-.1h-.3v-.1h-1.2v-.1l.3-.2h.2-.3l-.2-.1h-.3v.5l-.3.1h-.4v.2zm1.4-.1v-.2h.2v.3h-.1zm-6.8 24.4v.2l.4.4h.1v.1h.2v.1l.1.1.2.1.2.2.1.1h.2v.2h.1v.2h.1v.3l.2.1h.1v.3h.2l.1.1v.1h.5l.1-.3h.4v.3h.2v.4l.2.1h.1l.1.1h.1l.1.2h.7v.2h.1l.2.1v-.5h-.4l-.1-.2h-.2l-.1-.1h-.3v-.3l-.3-.1v-.3h.6l.2.3h.3l.1.1h.7v-.1l-.6-.3-.4-.2h-.5l-.1-.2h-.3v-.1h-.1v.4h-.2v.1h-.4v-.4h-.2v-.2h-.2v-.1h-.2l-.1-.3-.3-.2h-.3v-.2h-.3v-.1h-.2v-.1h-.2v-.1l-.2-.1h-.3v-.2h-.3l-.2-.2zm-7.4-37.8l.3.3v.1l.1.1v.2h.3v.3h.2v.2l.2.2v.2l.2.1.1.1h.5l.2.4h.1l.2.1v.2l-.2.1h-.1l-.3-.3h-.4v.3h1.6l.1.3h.3v.1l.3.2v.1h.4v.3h.2l.1.1h.2v.1h1l.2.2h.5l-.2-.3h-.5l-.2-.2-.3-.1h-.6v-.2h-.2l-.2-.4-.2-.1v-.2h-.2v-.2h-.8v-.2h-.4l.1-.1h-.3l-.4-.4v-.5h-.2v-.1h-.6v-.2h.6v.2h.3l.1.3h.3v-.4h-.2l-.2-.1-.2-.2h-.4l-.2-.2h-.1l-.2-.1-.2-.3h-.5v-.2h-.2zm90.2 40.3l.2.1.3.4h.2l.1.1h.1v-.4l.3.2v.3l.1.1.1.1.2.1.1.3.1.1h.2v.5l.1.2.2.2.1.2v-.2l.2-.1v-.2l-.4-.2h.4v-.1h.9l.2.4h.2l-.3-.4v-.2h.3l.1.5h.2v-.9h-1.2l-.2-.2v-.2h.4l-.3-.3h-.4l-.3-.1-.3-.1-.2-.2-.2-.1-.2-.2h-.2l-.1.1h-.1l-.4-.1h-.3l-.3.3zm2.7 1.1h.2zm.2.1v.2zm.3.2h.3zm-30.3-11.1l.1.3.3.1h.3l.2.2h.4l.4-.2.2-.1.2-.2h.2l.3-.3v-.1h.2l.2-.3v-.2h.3l.2-.3v-.2l-.4-.1v-.9l-.1-.1v-.2h-.3v.5h.4v.3h-.6l-.2.2h-.2v.4l-.2.2v.1l-.1.1-.1.2h-.1v.2h-.2l-.1.2h-1l-.2.1zm-30.4-5.9v.1l.3.2v.2h.3v.1h.1v.3h.9l.1.1h.3l.3.1h.2l.3.2h.3v.2h.3v.1h.3v.1h.4v.1h.8v.2h.1v.1h.2l.3.2h.2v.2h.2l.1.2.1.2.2.1h.2v.2l.2.1h.6v-.2h-.2v-.1h-.1v-.2h-.3l-.2-.5h-.6l-.1-.2h-.2v-.2h-.3v-.1h-.2l-.2-.2-.2-.2h-.2v-.1h-.4l-.1-.3h-.3v-.1h-.6l-.1-.2h-.3l-.1-.1h-.2l-.3-.2h-.2l-.1-.1h-.3v.3h-.2l-.1-.3h-.5v-.2h-.2l-.1-.1h-.1l-.2-.1zM288 275.2h.1l.4.3v.2h-.2.2v.3h-.3v.3h-.1v.1h-.1v.2h.4l.1.2h.3v.5h-.1v.3h.4l.1-.3V276l-.2-.3h.3l.2.3h.2v.2h.1l-.2-.5h-.1l-.2-.1-.1-.2v-.2h.2l.2.3h.4v-.2h.2l-.2-.3v-.2h-.2l-.3-.4-.1-.4h-.1l-.4-.3v-.2h.3v-.1h-.5l-.1.4h.4v.4l.2.1v.2h-.2l-.2-.2v.1l-.4.2h-.1v.3h.2v.3l-.3-.2h-.2zm.9.5v.2zm.1-1h.4v.2h-.2v-.2zM112.8 261v.2h.4l.1.2h.5l.2.1h.4v.1h.2v.2h.2v.4h-.3l-.2.1h-.9l-.2.2v.2h.3l.1.1h2.8l.3.1h.5l.2.1h.4v-.4h-.3v-.1h-.4l-.1-.1h-.3l-.5-.3h-.2.4v-.1h-1.1l-.1-.2h-.3v-.2l.1-.1h.3v-.1h-.6v-.2h-.6v-.2h.3-.8l-.3-.2h-.5zm149.8 14.9l.3.1h.1l.2-.1h.8v.1l.1.1h.2v.3h.2v.3l.3.1.2.1.3.2h.2v-.7l-.3-.1v-.1l-.2-.2h-.1l-.2-.3h-.1l-.1-.1v-.3l.1-.2v-.1l-.3-.1v-.1h-.3l-.3-.1v-.2l.3-.1.2-.3h-.7l-.1.4.1.2v.3h-.3l-.1.1v.1l-.6.4zm2.2.2h.2zm-109-6.8v.2h1.2v.4h-.8l-.1-.3-.1.4v.2h.3v-.2h.5v.2h.1v.1h.1v.3h.2v-.2h.1v-.3h.1v-.1h.6v-.4h-.4v-.3h-.3v-.6h.3v-.7h.1v-.2l.1-.1.2-.3v-.7h-.3v.3h-.2v.3l-.2.1-.2.1h-.1v.5h.2v.2h-.2v.2h-.3v.3h-.2v.1h.3v.2h-.3v.2h-.2l-.1.1h-.5zm148.6 6.3h.3v.3h.3v.7l.2.1h-.4v.6h.6v.3l.2.1-.2.2h-.6v.1h.5v.1l.2.2.2.2h.8v.2h.3l.2-.2v-.3l-.5-.1h-.2l-.1-.1h-.2v-.2h-.1v-.1l-.3-.4v-.5h-.1v-.2h-.3v-.4h.5v.4-.9l.2-.2v-.2h-.3v-.3h-.1v.3l-.1.2h-.2l-.2-.2-.1-.1h-.2l-.1-.1h-.2v.3zm.6.3v-.2h.2v.3zm.3 2h.2zm-96.6-8.2l.3.3v.1l.6.1h.4l.2.2.4.3h.3v-.3h.3v-.2h.6l.2.3h.3l.1-.4.2-.2v-.2h-.1l-.3.3h-.5l-.1-.2-.1-.3h-.5v.3h-.7l-.2-.5-.3-.1h-.2l-.1.2h-.1v.2h-.7zm-74-4.9v.1h.2l.1.1v.1l.2.2v.5h.3l.1.2.1.2v.4h-.2v.4h.3v-.3h.7v.2l.1.1v.5h.1l.1.1h.2v.1l.1.2v.1h.2v.3h.4l-.2-.3-.2-.2v-.2l.3-.1h.2v-.3l.2-.1v-.6l-.2-.3v-.2h-.3v.3h-.2v.3l-.1.1h-.4v-.2h-.2v-.1h-.2l-.2-.2v-.1l-.2-.1v-.3h-.2v-.2l-.2-.1v-.2h-.2v-.1h-.1v-.1h-.1v-.2h-.4l-.1-.2h-.1zm-1-11.3h.7v.2h.4v-.2h.1l.1-.2h.3l.2-.3h.6l.2-.2.2-.1h.1v-.1h.2l.2-.1h.2v-.4h.1v-.4l-.3-.1v-.3h-.4l-.1-.3h-.2l-.2.2v.2h.2v.6h-.3v.3h-.1l-.2-.1h.1v.4l-.2.1h-.1l-.2-.4v-.1h-.3v1h-.5l-.1.1h-.5l-.1.1v.1zm-20.5-22.4v.2h.1l.1.2.2.3h.2v.2h.2v.3l.2.2h.1v.1h.4l.1.2h.2l.3.2.2.1h.1l.2.3h.2l.1.2h.3v-.6l.3-.1v-.4h-.5l-.2-.2v-.1h-.2l-.2-.1-.3-.3h-.8v.2h-.2v-.4h-.3l-.2-.3h-.3l-.1-.3h-.2zm1.5 1h.3v.2h-.2zm85.6 46.1v.2h.1l.3.2h.9l.1.2.2.2v.5h-.6l-.2-.3h-.1l-.4-.2h-.2v.3l.5.3v.1l.2.1.2.2h1.3v-.3l-.1-.2v-.4h.5v-.4l-.1-.2h-.3v.3h-.2v-.2l-.2-.1v-.3h-1l-.2-.2-.2-.2h-.2l-.3.3zM161 238.8v.2h.3l.1.3.4.1.2.1v.1l.2.2h.2l.1.1h.1l.1.1.5.1.5.1v.1h.3v-.3h.4l.1-.1h-.3v-.2h-.4l-.1-.2h-.3l-.2-.1-.3-.3-.1-.1-.1-.1-.1-.1h-.2l-.1-.1h-.3v-.2h-.9l-.1.2zm13 32v.2h.2l.2.3v.3h.1l.1.1v.2h.1v.1h.3v.2h.2v-.8h.1l.1-.2v-.2h.4v-.2h.2v-.3l.2-.1h.3v-.3h-.2l-.1-.1v.1h-.7v.2h-.1v.2h-1v.2h-.2v.1zm-44.8-32l.3.2.2.1.1.1h1.6v-.2h.5l.1.2v.1h-.1v.2h-.3v.2h-.1v.2l-.1.1h1.6l.2.2h.2v-.4h-.2v-.1l-.2-.1v-.2l-.3-.3h-.2v-.1h-.5v-.3h-1.5l-.2.3h-.3v-.3h-.8zm9.8 9.1v1.1l.2.3h.5v.3h.2v-.2h.1v-.4l-.1-.3h.8-.3v-.2h-.2.1v-.1h.3l.1.2h.5v-.6h-.9l-.1-.2-.2-.1h-.1l-.1-.2h-.2l-.2.3.4.1h.1v.1h-.5v-.4h-.4zm0 1h.4-.2zm1.2-.6h.2zM254.7 272h.3l.2.2h.5l.3-.2h.2l.3.3h.2l.2-.3h.3l.3.2.2.2.3.3h.1v-.3l-.2-.2-.1-.1-.4-.3-.1-.2h-.3v-.7l-.2-.2-.2.3-.2.2h-.2v-.2h-.2l-.2-.5v.5h-.2v.4l-.1.2-.5.4zm1.5-.6h.5v.3l-.4-.2zm.5 0v-.2zm-106.9-32l.2.3.2.1h.2l.1.2h.2l.3.1h.2l.2.2h.2l.2.1h.2l.1.3h.2l.4.1h.2v-.2l.1-.1h.2v-.2h-.4v-.2l-.1-.1h-.2l-.1-.1v-.2h-.4v-.1l-.4-.1-.2-.2h-.4l-.2-.1h-1zm41 23.4l.2.2h.3l.4.3h.1v.1h.4v.2h.6l-.5-.2h.2l.2-.1v-.3h.3l.5.4h.1v-.4h-.3l-.1-.2h-.2l-.2-.4h-.2v-.1h-.5l-.1-.3h-.8v.3h-.2v.3h-.1v.2zm1.4-.2h.2v.2h-.3zM299 273v.3h.3l.4.2h.1l.2.1h.3l.1-.3v-.1h.1l.3-.1h.2l.1-.1h.2l.2-.3.3-.1v-.2h.2v-.4h-.4v.2h-.2l-.1.1-.1.1-.2.1h-.2v-.1h-.3v.2h-.8l-.1-.2h-.1l-.2-.1h-.2v.3l-.1.1zm-9.9-1v.4l.4.1h.2l.1-.3h.1v.3h-.3v.1h.3v.1h.1v.1l.2.1h.1v.8l.1.1v.1h-.5l-.2-.4-.1-.2v-.1h-.3v.3h.1v.2h.2v.2h.1v.1l.1.1.2.2v.1l.2.3v.3l.2.2.2.3.1.2h.1v.2h.2v-.3l-.1-.2v-.1l-.2-.1-.1-.2v-.1l-.2-.1v-.2l-.2-.2h-.1v-.2h.3l.2-.1v-.1h.2v-.4h.2v-.4l-.4-.2-.3-.5-.3-.2v-.3h-.2l-.3-.2v.3h-.5zm0 0"/><path d="M131.8 243l.2.1.2.2.2.1h.1l.3.1.2.2h.5v.1h.2l.1.1h.1l.3.1h.2l.3.3h.3l.3.2v.1h.3l.1.2h.2v.2h.5-.2l-.2-.3-.1-.1-.3-.3-.2-.2-.1-.1-.3-.2-.2-.1-.2-.1-.3-.2-.1-.2h-.3l-.2-.2h-.2l-.2-.1h-.3l-.2-.1v.3h-.7l-.1-.1zm1.2.1v-.1h.3v.2l.2.1h-.5zm152 34.6v.5l.1.2h.1v.6l.3.3v.4l.1.1v.2h.1l.3.2h.2v.3h.2v.2h.2v.1-.3l-.2-.2v-.2h-.1v-.2h.2v-.5h.3l.2.3v-.3l-.3-.1-.2-.3h-.2l-.3-.6h-.1l-.3-.3v.5h-.1zm.8 2h.2v.1zm.2-.2h.4v.3h-.4zm22.3-5.2v.4h.4v.2h.8v.1h.9l.2.3h.2l.2.3h.2l.2-.2.2-.2v-.7l-.3-.3-.1.2-.2.3h-.5v-.2h-.8l-.1-.2-.1-.1v-.2h-.3l-.2.3v.2h-.2l-.2-.2-.1-.1h-.2zM123 232.8v.2h.1l.1.2h.6l.2.4h.3v-.4h.6l.1-.1h.3v-.3h.1l-.1-.2h-.3l-.2-.2-.2-.2h-.4v.3h-.6l-.2-.2h-.2v.3h-.2zm22.5 3.3v.1l.2.1v.2l.2.1.1.3h.1l.1.1h.1l.2.2.1.2.2.1h.3v-.3l-.3-.2h1l.2.2v-.2l-.2-.2-.1-.2h-.3l-.1-.3h-.3v-.1h-.2v-.1l-.2-.1h-.6v-.2h-.4v.2zm39.1 36.8h.4v.1l.3.2.1.2.1.1.2.2.3.5h.2l.2.1h.1l.5.4h.3l.2.2h.2v.1h.3v-.1h.6v.1l.4.2.3.2.3-.2h.1v-.4h-.6l-.1-.1h-.2l-.2-.1-.1-.1-.5-.3v.4h-.9l-.1-.4h-.3l-.1-.2h-.1l-.2-.2-.6-.4-.3-.4-.4-.2h-.4zm6.4-8.6h.1l.4.5h.1v.1l.3.1.3.1h.1l.2.3.5.3h.5l.1.2h.2l-.2-.5h-.2v.2h-.2v-.4l-.2-.2v-.3h.4l-.2-.2h-.1l-.3-.1h-.2l-.2-.1h-.3l-.2-.3h-.8zm1.5.4l.1-.2h.1l.1.2v.2h-.3zm-25-19.5h.8v.3h.1l.2.2h.4v.2h.3v.1h.3l.1.1h.5v-.1l-.2-.2v-.2h.5v-.2h-.2l-.3-.3h-.1l-.1-.1h-1.1v-.2h-1.1v.2h-.1zm118.4 32.1h.3v.2h.5l.2.1h.1l.2.1v.1h.3v.4h.4v.2l.1.2h.1v.1l.2.1.1.2v.3l.1.2h.2v.3h.2l.1.4v.1l.1.2h.2l.1-.2h.2v-.1h.2l-.4-.3v-.2h-.1v-.2h.3l.1-.1v-.1h-.4v-.1l-.2-.2h-.1v-.1l-.2-.1v-.1h-.5l-.2-.3v-.2l-.3-.4h-.2v-.1l-.3-.1-.3-.2h-.2v-.1l-.4-.2h-.4zm3 1.8h.1zm.1.3h.1v.5l-.1-.2zm.2.3v.2zM149.5 242l.2.4v.1h.3v.1h.4v.4h-.2v.3h.6v.3h.2v.1h.3v-.2h.3v-.3l.3-.2-.4-.1v-.3h-.2v-.2h-.2l-.1-.1-.2-.2h-.1l-.1-.1h-.9l-.2-.2zm27.3 10h.2v.3h.1v.1h.1l.1.1v.1l.2.1h.1v.1h.6v.2h.8v-.7l-.1-.1h-.1l-.5-.2h-.1l-.1-.1h-.3l-.1-.1h-.8zm10.9 26.2v.1h.1v.2h.5l.2.2h.2l.3.1.3.2.7.3.3.1.2.1.2.2h.2v-.3l-.1-.1h.2l.2.2h.6v.2h.2l-.2-.4h-.1l-.1-.1v-.2h-.4l-.4-.3.2.3h-.5l-.1-.2h-.7l-.3-.2h-.2l-.3-.2h-.3l-.1-.2h-.1l-.2-.2h-.2v.1zm32.9-1.4v.2l.3.2.4.3.4.3h.2l.1.2v.1h.3l.2.2.1.2.2.1v-.2h.5v-.1l.2-.3-.3-.2-.1-.1-.1-.1-.2-.2v-.2h.2v-.2l-.3-.1h-.4l-.1.3.1.3.2.1v.2h-.2l-.1-.1v-.3l-.2-.1h-.2l-.1.2h-.4l-.1-.4h-.2v-.1h-.2l-.2-.4zm1.9.2l.3.1zm96.8-4.6l.2.3h.1l.1.1v.1l.1.2v.1h.2l.4.2v.2h.3l.2.2h.3l.2.1h.2-.2l-.2-.4-.2-.1h-.2l-.1-.3-.2-.1.3-.2v-.2h-.3.5v-.2l-.4-.1-.2-.1v-.2l-.2-.2h-.4v.2h-.3v.3zm.7.5l.2.1h-.2zm-82-107.3v.2l.2.1.2.2.2.1.1.3h.3v.1l.2.1h.2l.1-.3v-.4l-.4-.4v-.5l-.1-.1h-.7v.1l-.2.3zm-72.7 90.2v.4h.2v.1h.2v.3l.2.2h.1v.2h.4v.3h.2v.1h.2v.3h.2v-.6l.2-.1.1-.2h.4l.1-.3h-.6v.3h-.5v-.3h-.2v-.2l-.1-.1h-.1l-.1-.2h-.2v-.3h-.3v-.1h-.4v.3zM120.9 279l.1.2v.1h.2l.1.1v.1h.1v.2l.1.1v.5h-.3v.5h.3v.2h.2v.4h.3v-.2h.2v-.1h.1v-.5h.1v-.5h-.4v-.1h-.2v-.2l-.1-.2v-.4h-.2v-.2h.2v-.2h-.9zm.6 1.4h.3v.2h-.3zm173.2-7.2l.1.3.2.1v.1l.2.2v.4l.2.3.1.2v.2h.5l-.3-.5-.1-.3-.2-.2h-.1v-.8l-.3-.2h1l.4-.2h.2v-.2h-.2l-.1-.1h-.3v-.1h-.2v.2h-.1l-.2-.3v.3h-.7v.1l-.1.2v.2zm-16.2 3.2v.2h.9v-.2h.3v-.1h.7v-.3h-.2v-.2h.4l.1.2v-.7l-.5-.3h-.2v-.2h-.2v.2h-.2v.2l.2.1h.2v.3l.2.2v.1H279v.4h-.4zm-105.9-25.6l.4.2h.6v.4h.4l.2.2h.6l.1-.3h.6v-.5h-.6v.2h-.6v-.2l-.3-.1.1-.4h-.9v.3h-.4v.2zm-16.2 24.8v.4l.2.3v.5h.2v.2h.1v.3l.1.1v.2-.3h.2l.1-.3v-.1l-.2-.3v-1.3l-.1-.1v-.2h-.4l-.1-.2v.7zm-4.1-11.3v.1l.1.2h1.4v-.2h.2v-.1l.1-.1h.1v-.2l.2-.1v-.4h-.4v.3h-1v-.3h-.3v.3h-.1v.4h-.1v.2h-.3zm104.5 11.3l.3.3h.4l.4.1.1.1h1.2l.5.2h.2l-.4-.3h-.3v-.4l-.2-.1v-.1l.3-.1h.2l.1.3.3.1h.3v-.2h-.4l-.2-.3h-.5l-.2-.1-.1.2v.5h-.2l-.2-.3h-1.2v.2h-.2zm1.7.3v-.2zm-43.5-3.7v.1l.1.2h.2l.3.4v.1h.2l.2.1v.2l.3.3h.4v-.6l-.1-.3-.2-.1v-.2l-.2-.1h-.3l-.2-.2h-.3l-.1-.1h-.3zm-77.8-24.3l.2.4v.4h.1l.1.2h.2v.7h.2v.3h.2v.1h.1v.2h.2l.2.1h-.3v.4h1.2v-.2h-.4v-.1h-.2l-.3-.1h-.1v-.3h-.2v-.2h-.2v-.2h.3l.2-.2v-.1h-.5v-.2l-.2-.1h.5v-.3l-.4-.1-.1-.1-.3-.2v-.1l-.2-.1-.2-.3zm1 1.5h.2zm.5 1.1h.1zm0 .1"/><path d="M153 275v.2h1v-.2h1l.2-.2h1.3l-.3-.2h-.2v-.1l-.5-.2h-.5l-.2.2h-.5v.2h-.2l-.4.2h-.3v.1h-.6zm-7.9-12.5h.6l.1.3.2.1v.1h.2v.3l.1.1h.2v.1h.1v.2h.2v.2h.2v.1h.2v.1h.3v.4l.3.1v.2h.2l.1-.2v-.6h-.4l-.2-.3h-.2l-.2-.2h-.3l-.1-.2-.3-.1v-.5l-.4-.1v-.2h-.1l-.2-.2h-.1l-.1-.1h-.2v.4zm67.5 14.2v.3h.3v.1l.3.3v.2h-.4v.4h.5v-.2h.1v-.2h.1l.3.4h.7v-.2l-.1-.1h-.2l-.2-.2v-.3h-.2l-.4-.4h-.1l-.3-.3h-.4zm91.7-2.9v.5h.2v-.1h.3v-.2h.6v.3h.1v.3h.2l.1.1h.2v-.6l-.3-.1-.2-.2-.3-.2-.2-.4-.2-.5h-.2v.3l-.1.1v.3l-.2.2h-.1zm17.2 1v.2h.9l.2.2v.1l.4.3h.2v.2h.7l.1-.3h.2l-.1-.2h-.3l-.5-.3h-.2l-.2-.3-.1-.1h-.2v-.2h-.2v.3h.2l-.1.2h-.2l-.5-.2h-.3zm-125.2-16.3v.1l.4.5v.1l.1.2.2.2h.5l.2-.2h.1v-.4h-.2l-.1-.4-.1-.1h-.1v-.4h-.3l-.2.2-.1.2h-.3zm86 15.6v.1h.3v.2h.4v.1l.2.2v.3h.2v.3l.2.2h.6v-.1l-.5-.2v-.2h-.1l-.1-.2v-.2h.5v-.2h-.6v-.2l-.1-.1-.3-.1v-.1l-.2-.2-.3-.2h-.1v.6zm-88.8-12.5l.2.2h.8l.5.2h.2l.5.2h.3v-.2l-.4-.2-.2-.1h-.2l-.3-.3h-.3l-.4-.4h-.5v.1h-.2v.6zm-72-26.4l.3.4h.3l.3.4h.1l.5.2v.1h.6v-.2h.5v-.1h.2v-.2h-.6l-.2-.2h-.4v-.1h-.4v-.1h-.7l-.3-.3h-.2zm17 28.9l.1.4.2.1h.1v.3h.1v-.5h-.2v-.1h.4v.1h.3l.2.1h.3l.1.2.4.1v.2h-.2v.3h1v-.3h-.3v-.2h.5v-.1h-.3v-.1h-.2v-.1h-.3v-.3h-1.2l-.1-.2h-.1v.3h-.4l-.1-.3h-.4zM312.3 279l.2.2.3.2h.6l.6.1.4.1.2.2h1.2l-.2-.3h-.3v-.1h-.7l-.2-.2h-.1l-.7-.2h-1v-.2h-.3zm-190.2-51.4h.4l.1.2.2.2h.3l.3.2h.4l.2-.2h.3l.3.3h.6l.1-.3-.1-.2h-1.1v-.1l-.1-.1h-.6l-.2-.2h-1zm54.9 43h.2v.2h.2v.2h.2l.2.1v.2h.2v.1h-.5v.3h.5l.1.1h.6l.4.3.2.2h.1v-.2l-.2-.1-.2-.2-.4-.3-.2-.1v-.1h-.2v-.2l-.1-.1-.1-.1v-.4h.2v-.3h-.9v.3h-.1l-.1.2h-.1zm82.7 1.9h.4v.4l.2.1.1.3h.2l.1.2v-.2h.2v-.8l.3-.1v-.4h-.9l-.1.1h-.2l-.1.3zm-53.1-.8v.3h.3l.1.2h.1v.5l.5.1.2.2h.2v-.3h-.3v-.3h-.2v-.1h-.1v-.5l-.1-.1v-.4l.2-.1v-.1l-.2-.1v-.1h-.3v.1l-.2.2v.1l-.1.1-.2.3zm-50.4 7.2l.3.1h.7v-.2l.4-.2.3-.2h.1v-.1h.2v-.1h-.3l-.2-.1h-.7v-.3h-.2v.3l-.2.1-.2.2v.4h-.1v.1zm49.8-9.4v.5h.1l.4.6h.9v-.4h.3v-.2h-.3l-.4-.2h-.5l-.2-.3zm.3.6h.2zm-66.9-2.8l.1.2.2.1h.1v.1h.1v.1l.1.2v.5h.6l.1.2v-.3l-.3-.2v-.2h.4v.3h.2v.1h1.3v-.2h.1v-.1h-.4v-.1h-1.2l-.2-.1-.3-.2-.3-.2-.3-.2-.2-.2zm13.6-1.8v.1h.2v.7h.2v.2h.3v-.3h.1v-.2h.2v-.3h.2v-.1l.1-.2.1-.1h.2v-.1l.3-.1v-.1h-.4v.2h-.5v.1l-.4-.2-.2.3h-.3v.1zm98.2 14.1l.1.2h.1l.1.2h.5l.1-.4h.5v.1h.3l-.3-.2-.2-.3h.2v-.2h-.3l-.1-.2h-.6v.5l-.5.1zm-14.1-5.9v.3h.3v.2l.2.1v.2l.2.2h.2l.2-.1v-.4l-.1-.1v-.1l-.3-.1v-.2l.2-.1v-.6h-.4v.2l-.1.2-.3.1zm.4 0v-.2h.2zm-98.2-46.8h.2v.3h.3v.1h.2v.1h.3l.2.1.2.2h.2l.2.3h.2v-.4h.2v-.1h.2v-.1h-.5l-.2-.1h-.2l-.2-.2h-.1l-.1-.1-.2-.1-.2-.2h-.1v-.2h-.2l-.1.2v.3h-.3zm44.6 32.3h.2l.3.2v-.4h.5l.2.4v.2h.3l.1.2h.3l.3.2.2.1.4.3h.2v-.1h.1v-.3h-.2l-.4-.2h-.4l-.1-.3h-.1l-.1-.1-.2-.1h-.3v-.3h-.2v-.2l-.2-.1-.3.2h-.2l-.1.1h-.2v.2zm0 0"/><path d="M-137.8 279h165v-.4l.5-.2.6.6.7-.5-.5-1.5 1-2.2-.6-2.2.7-1.8H29l.4-.9 1.6-.8.5.4v1.3l1 .6.4 1.9h-.7l-1-1-1 .5 1.1.4 1 2.2.8.3 1.3-.8-.7-1.7.6-3.1.9-1.1 1.8.3.6-.4-.2-1.7-.8-.8.1-1.9 1.5-2.5.8-.3.1-.5-.4-.3.3-.8.4-.2.4.3.3-.6V258H38v1.7l-.8.4V259l-.7-.6.4-.5 1.2.1.1-.4-1.5-1.1-.1-1.3-1.7-2.8-1.2.6-1.4-.8-1.7.4-.8-.9-.1-1.4 1-1.2-.4-1 .4-1.4.7-.6-.6-1 .8.4 1-.5-.4.8.2.7.6.8h.7l.2-1.5.4-.3.3.6 1.2-1.1 1.4-2.4 1.2-.6 1-1.3 1 .1v-1l1.5.2.1 1-.8.4-.1.7 1 .9.3-1.7 1-.1.4 2.3-.5.6.4 1.2-.5.9.3 1.8h-.7v1.5l-.3.5-.2-1.7.3-.3-.8-.4-.4 2.7-.7 1.3-.7.4.8 1.2-.3 1 .6.1.9-.3 1.8-2.3.5-.2 1-1.8h.5l-.5-.5.7-1.2.4-.3.6.5.9-.3v1.2l1.1-1.3v-.8l1-.8 1.1-1.7.8-.8.8-.2.3.5.6-.4.1-1-3.2 1.4-1.8 2-.5-.3-.2-1.4-1.4-2.1-.2-3.2.3-.7 1.2-.4 3.5 1.5.2-.4-1.4-.6-.4-.8-3.3-1-.2-4.8-.3.5-.5-.6-1.3.3-2.4-2-.8.2-.5 1.3-.8-1-.7.1.3.6-.9.8v-.5l-1.1-.8-1.1.6-2.2.2-2.5 1-3.7-.5-6.3.9-.4-1.5.2-2.4 1.2-2.8.6-.6 1-2.8-.3-.5.9-.8-.5-.5.4-.2.1.3.7-.6.2.7.4-.2.5 3h.6l.2-.5-.2-.2.3-2h.6l.3.4-.3.7.7.1 1.3-1.4 1.4 1.2 2-.6.4 1.3.9 1.1.9-.3.7 1.4-.3.6h.7l.3.2.7-.8v-1l1.3.7-.2-.9.4-.6 2.8-.3.6.5-.4.4.5.3-.3.7 1.7-.5v1h.2l.2.4-.6.7 1.1-1 2 .8v.5l.4-.3.4.8h1.1l.3 1 1.6.3-.2.2.5.2.6 1.2 1.5.2.5.5-.4 1 1.5.5-1 .2 2 .1 1.4 1.2-.4.7-1 .2-.5-.3-.9.7-.4-.3-.4.4.3.6.4.1.1-.3h1l.5-.8H57l.3.7.4-.4.7 1.1h.4l-.2.3h.7l-.5.5.7.1-.5 1 .7-.8 1.5.7-1.6.5.1.5 1.3-.4-.6.2.4.4.6-.5 1.6.8v.4l.3-.2.7.9 1.8.5.5 1h.7l-1.1.5h2.8l.3.3-.2.5.6-.2 2.3 1 .6.3v.8l1.7.7-.2-.4 1.7 1.7-3 .5-.2.6 1.1-.4v.5h.4l1-.6.9.5.6-.6.7.6-.3 1h-.4l-.5.7.6.1.8-.6v-.4l.1.4.5-.1-.4-.7 1.6.8.7-.1-4.1-4.3.4-.7v-.4l-.7 1-1.7-1.8.4-2.4 1-.4.4.3.6-1.2 1.2-.4-.5-1.3h.6l.7 1 .8-.9.4.2.2-.6h.6l.2-.9 2.5 1.7h1l.9-.8.9.3.7-.6h-.7l.6-.3H85v-.2l-.4.4H84v-.6l.8-.3 1-1.7 1-.6v-.5l-.8-.2.7-.5v-.9l2.2 2.5 2.5 1.9h.6v-1l.7 1 1.1-.7-.4-1.7 1.4-.7-.6-.1.4-.9 1.2-.3v-.1h-1.3v-1.4l-.9-.4.4-1.1-.7-.8 1.3-.3.9.2.8-.8-1-.7-1.3.6-2.4-.5-.6-2.2.2-2.6h.6l3.4 2 4.4.7 2.1.8.4.4-1.1.7 2.2.6.9 1V227l.5-.2 2.1.8 2 .2.3-.3.4.3-.4-.5.8-.7-.6-.4.2-.3h1.1l1-1.1 3-.9 8.7.2-.4-.9 1 .2-.5.7 1.2.4h1.6l-.3-.5-2.4-1-2-1.5 1.4-1.4h.9v-.6l2.5.5 4.4 1 1.2.5 1.4 1.5 1.7.3.5 1 .1-1-3-2.3v-.5l.7.4.6-.9 2 .4.9-.2 3.2 1 1.3.8v-39.6l-1.7-1.4.5-.3-2.1-.9-2.5-2h-1.1l-.7-.3-1.4.1-2.5-.7-1.7.3-1.9-.2-1.8.2v.9l1.7.8.6 1-3-.9-4.8-.5-5.5.1-2.7-1.4-2.6-.2-.2-.6-1.2-.4-1.2-1.7-6-2.3-.5-.7-.9-.3-2.5-3.9.4-1.5-.4-1.2.1-1.8-.3-1.4-1.6-2V158l.8-1.3 1.3-.4 4.7-4.2.4-2 .5-.4h-.5l.5-1.4-.5.2-.4-.9-.3.1v-1.6l-.2 1.6-.7.4-2.6.3-2.8 3-2.9 4.4-2 2.4-3.6 2.6H84l-2.1-1.4h-3l-2.7-.8-.9-1-2.5-.9.2-.5-.3-.8-.5.8v-.6l-2.2-1.1-.7.5-.2-.5-.1.7h-1.5l-.3.2-2.2-2.3-4.2-.4-5.5 1.2-7.5-5.4-1.3.3-2-.4-3.8.6-1.1 1.8-1-.8.6 1-1.7.6-1.7-.3-12.3-.4-.6-.6-7.2-1.6-4.1-.1-1.6 1.1-2.2.5-3.6-1.2-1.5 1-2.5.8-.4.7-2.5 1.5-4 .5-1 1.2.2.3.7-.3.2-.7.6.7-.3 2.4 1.4 3.6-.5 3.3.4 2.6 1.6.4.7-.4 2.3-3.4 1.4-.8 4-3.4 6.9-1.1 3.6-1.8 2.7.4 1.2.5v.4l.4-.2-.2.6-.8.2v-.5h-.6l.1.6-2-.1-.6.4 1.7-.2 3.1.8 3 1.8 1.7 1.7-.8-1 .3-.6-.7.3-.6-1-2.6-1.6-.5-1h.3l2 1 3.5 3.2 3.1.2 2.7.7 6 4.5 3.1.9-1.1.1-1.3 1.3 1.3-.7 2.3.3 6.6 6.2-1.2-2-1-.3-3.8-4.1h.4l3 2.5 4.4 4.9.4 1.4-1 1.2 1.2-.9 1.6 1.8-.4.5.6-.2.7.5 1.2 1.8 1.2.4.3 1-1 .5-2.4-.1-.5-.2.2-.5-1.2.4-.5-.5-4.9-1.2 2-.8 1-3.4-2.9 3.1-.9-.1-1.1 1.1-1.8-1.8-1.9.1-1.5-1h-1.4l-2-.9h-1.2l-1-.8h-.8l-2.8-1.3-1.8-.2-2-.9-4.6.5v-1l-.4-.5-.4.1-.6 1.4-1.1.3-1.2 1-1 .4-2.2-.7-1 .5-.5.5.8 1-2 .5-.7.6H9.8l-1.1-1.1-.7.2.2 1.2h-.7l-.8-.2.3-.6H4.7l-4.3-1.6-2.8-.2-1.8-.8-3.4-2.6-5.2-6-2.4-2-2-3.3-2.3-.9h-3.4l-4.1-2-2.3-1.8-2-.4-1.4-1.6-2-1.1-2.4-2.9-1.5-.6.1-.3-.1.2-2.2-2-4-1.7-5.5-5.2-1.2-2.6h-.6l-.1-.4-.3.2.3-1.7-1.8-2.5.3-.6-1.2-.6-1.6.1-.7-1.8-4.3-4.2-1.3-2.6-4.3-4.5-.4-1.9.5-1.4.5-.1-.1-.5-.6.3-1.2-1.8h-1v-.3l-.8.3-.9-2-3-2-1.9-2.1.8-.9.4-9.5 1.3-3.5v-1.9l.6-.8-1.2-2.7-3.3-1-.2-.4 1.6-.8 1.3-1.4-.4-2.2.8-1-.4-3.8.7-1.9-3.8-4-1.1.7-.6-.3 4-5.8-.4-2.5.4-.8.5-.1.3-1.5-.6-.5.7-.8h.4l6.6-6.8 2-.7 1.6-2h1.3l.5-1 3.4-2.9 2-.2 2.3-2.2h.8l.8-1.3 2.5-1.6 1-1.4-.3-1.2.8-1.2-.3-3.4-1.4-3.4-2.9-3.2-1-2.5-1.7-1-.3-.8-.7.1.2-.6-.4.3-.3-.5-.8-.2-.3.4v1.5l3.2 6 2.3 2.9.4 1-.3 2.3-5.4 4.9-2.2 1.3-1.7.3.8.3.7-.3v.4l.4-.6.4.2-.1.6.7-.2-.5.7.1.5-.1-.2-1.3 1.5-.4-.4-.9.7-.1-.3-.1.5-.4-.2-.2.7-1.3-.2-.2.6-.7.4.1.6-.7.2-.1.5h-2.2l1-1.4-1.3.7-.6 1-.9.1-.2.8-1.6 1.4-.7 1.3-3.6 2.2-.5-.2v-.5l-1.3-.5-2.2.7-.9 1.3 2.2 2.3-.3 1 .5.1v.8l-2 1.6-1.6-.4-.1 3.8-1.3 2.2-2-1-.8 1.8-2.4-.2-.3.3.2.9h1.3l1.6 1.1-.3 3.1 1.5 6.9-.6 2.7 1 1.8h-.8l-2.3-1.6-1.1-.3-1.3-1.7-.2-1-1-.6-2.4.6-1.7 1.8-2 1-3.4.1-1.3-.7-.7.3-.6 1.2-2.7-.1-1-2.5.8-.6-.2-.6-1-.1.2-.6-2-1.6-.5.2.1-.6.2.3v-2.8l.7-1.7 1-1.2 1.8-.8 2.3-.1 1.8-.7 1.4.3.7-1.5V71l-.5-.3v-.2l1.1.5 1-.7 2.4-.1 2.2 1.3 1-2-.5-2.1-1.2-2.2-2-.4-1.7-1.6-1.1.5-.9 1.8-3 .7.2.3.2 3-.8.2-.7.6h-.7l-1.3-1h-2l-1.7-1.4-2.5-.3-1.5-2 .4-2.3-.4-1.6h1l.2-.7h1.1l2.7 1 1.1-.6h.9l1.1-2.8-.8-1-1.1-.6-1.2 1-1.3.4-.6-1.1-.2-1.3-1.2 1.4-1.5-.6-2 1.4-1-.8V55l-.2-.3-.5.3-.1-.8 1.8-4.5.3-.2 1 1.5 1.8-.7 2.3.8.2-.6-.8-1v-3.1l-1.9-1.6-.8-1.4-1.4-.4-.1.4-.3-.1.1.9-1.1.2-.6-1-1-.6-1 .7-.9 2-1.8-1.1-.9.6-2.2 2.4-2.5 1h-1.9v.8l-1.4.2 1.5.4-2.6 2.4.5 1.7 1 .8v.5l-1.5 3.8-.7 3.5 5.3.8 1.9.8 4.2 4.3.4 3.3h.7l1 1 2.2.1.4 2-1 2.5V79l.7.3v.9l-.4-.2-1.1 2.5 1.9 7.3-.2.6-1.6.2-.6.8 1.8 2 .6 1.4.1 1.2-.2-.8-.1.8-.2-.4-.3.7h-.3v.7l-5.9-1-.7-.5h-1l-2.3-.5h-1.4l-2.2-1.2-3.2-1.1.1-.1h-3.5l-.4-.6v55.5h.5l2.8-.9.2-1.1-.2.1v-.6h.8l-.2-.5.7.4 1.6-.9.9.5.2-1 .5-.1.5.4.8-.3.7 1.1.7-.3.3-.2-.4-.4-.1-1.5h-1l-.3.6-.1-.8h.4l-.2-.8.4-.5-.8-.9h-.6l-.3-1.1v.2-.5l-.5.2-.5-.7-.5-1.6.6-.9 1.5-.2 1.9 1.3v-1l1.2-1.3.9.3.6 1.5 1.8 2.3 3.8 2 .1.7-.7.4-.3.8.4.8-.6 2 .6.6 2 1.4 1.8.6 5.5.2 2 1.2.4-.1h.2l-.5.3.3.3 2.7-.1 1.3.3.4.5v-.6l3.4 2.3 1.6 2.6 1.2.3.2-.8 2.2-1.4.6-1.3 1.7-1.3.7-2.3 1.4-.9h1.2l2.7-1.2.8-1.3 1.5-.3 1.9.3 3.7 1.7 2.5 3.3 2 4.7.5 2-1.1 1.2.4 1 2.2 2.3 3 5.5-1.2 3.8v1.7l.5.1.8 2.4 1.2 1.2 1 .4.3-1.2 1.3.8.8 2.3-.4 1.8-.4.1-.6-1h-.8l.3 2.7-1.2 1.5-5 1.4-.1.6-1.2-.2-3.6 1-2-.4-4.9 2-3.3-.3-3.6.3-1.3-.6-1 .4-.2 1.2-.5.2-2.5-1.2-.1.4-3.3-1.4-.7.2-3-2h-4.8l.2-.5-1-.5-1.6-.2-1.6-1.3-1.3-2.6-.2-1.4-1.2-1.1.5-2-2.3-1.5h-.9l.2-.4-1.3.3-.6-.6 1.9 2.9-1 1.2-2.1 1-.6 1.1.4 1-1.1 1.2-2.2 1.2-2-.6-.9.3-1.8-.7-.1-.3h-1.6v.3l-1.2-.4-3.6-3.8-1.2-.4-.5-.8.5.4-.2-1.4-.6-.6v.4l.4.3.2.8-.6-.9zm169.5-21.5l-.5-.4.3-.4 1.1-.1.5-.6-.3-.5h.5l1.3 1.8-.3 1.5 1.5 1-.2 1.5-.9-.1-1.9.2-1.4-.8-1.2-.2.3-1zm68.9-35.3h.9l1 .8-.2.5-1.2-.2-1-.7zM-121.5 52.5l-1.3-1.6v-1.3h1.2v-.7l.9-.9v2h.7l.5-.6 1.5 2.8-1.7 4-1.3-1.8zm240.4 169.1v-.3l1.9-.4-1.2 1.1h-1.1zm-4.1-2.3l-1.2.9-.5-.3-1 .5-.1.6-1.1-.3 1-1.6 3.1-1.3.4.9zm-71-1.3l.7-1.5.9 1 .6-1.1h1.3v.6l.5-.6h.9l-.7 2.3.2.1-1.4 1.3h-1.5l-1.2-1.5zm-15.6 61h.3zm0 0"/><path d="M-137.8 558H11.8l.2-1.6-.5-1.4.5-.2.7-1.6.3-1.4-.6-.6.9-1-.3-1 1.5-1.1 1.6-4.1-.6-1.6V540l2.2-2.8.1-1.3.9-1.1 1.3-.3v.3l1 .7-.5-.5 1.9.6 1.1 1.4-.4.2.1.3.9-.1.5.5-.3.5 1-.1v.6l.8.4.9-.4.3-.9-1.6-2 2 .1.6-.8 1.1-.5 1.2.5.6.8-.2-1.1.3-.2.2-1.2h1.7l.7-.5 1.4.2 1.4-4.7-.3-2H35l-.7 1.7-1.2.7-1.2-.7-.1-.6-2.2-.7-1-1.7-1.4-1-.2-.6 1-1.1 3.2.3 1.4-.4 1 .5 1.4-.1.4 1.5.6.5.7-1.3h1.5l-.5-.3.7-.3v.6l1.3 1.7 1.3 1 .8 1.5 1.8-1 2.8 1.2-.7.7.8 1.8-1.7 2-1.5.2-1.4.7-.2 1.1 1.5.6h1.2l.4.9.2-.6.2 1.1h1.1l.4.6.6-.1.4-.7 1.3.2.3.5-.2.6.8-.2.6 1.2 1.7 1 .8-.4-1-1.2h-1v-.4l1.2-.7 1.3.5.2-.4.7.2 1.5 1v.5l1.8 2 1.6.3.6 1 .2-.1 2.2 1.1h.3l-.2-.4.6-.6.5.5-.3-.8-.5.2.7-1.1-1.2-.5-1.4.1v.2l.2.2v.1l-.5-.2-2.1-2 .4-.4-1-.3v-1l-1.2-.6v-.7l-.7-.7.6-.2.5-1h1.4l-.4-1h-1.2l-1.4.8-2-.3-1-1 .1-.6.7-.2v-.3l-1-.2-.2-.8h.7l1-.5.5.3h-.6l1.1 1-.6.5h.7l-.4.4h.6v.8h.6l.6-.7-.2-.7.7.1-.2.6.8-.2-2.8-2.4 2.5-.2.3-1 2.3-.4-.2 1 2-.7-.1.5 2.1.2 1 1.2 2.6-.6.1.6-1.6 1.2.4.6-.4.8.6-.4 1.2.4.8-.4 1.2.1.7.4v1l2-.1-1.2-2.1-.8-.2.3-.8h2.5v-.5l1.2.3-.1 1.7.7-.4.4.3-.7.8-1.3.6v.7l2.8-1.3 1.1-1.5 1.1.5h.9l-.6-1.3h.8l.2 1.1.5-1.1h1.6l1.1 1.1.5-.1-.3-.7.5-.3 1.9.2.4.8 1.3-.7 1.2.6.8 1.5.8.5.8 1.7.8-.4.8.2.5-.7 1-.1.5.6v-.4l1.6.6 1.9-.3 2 1 2.2.2 1.3.9-1.7.2h2l1 .6.2.6.5-.2-.2.2h.5l1.7.7 1.5-.4-.2-.4.7-.3-2.3-.4-.4-1-1.3-1.2-1 .3-1.4-.3-1-.8 2.1-1 .1-1.3 1.2.3-.1.3h2.1l-1.3-.1-.3-.7-.4.1-.6-.6.9-.9v-1.6l.2-.9h1.1l-.3-1.2-.5-.1.2-1.6-.8-.5-1 .6-2-1-.5-2.5-2.1.3 1-1.7 1.4-.5-.8-1.3.6-.3-.1-.5-2.7-2-.7.4-.3.8h-.3l-.8-1.9-.4.5.3.5-.8.3-.3-.4v-1.4l1.1.1v-.2l-2.9-1.6-.1-.5-2.5.7.4.4-.2.9-.3-.8-1 .7-.4-.4-2.2.8-.8-.4v.4l-1 .6h-1.5l-.5-.6-.3 1.6h-.4l-.1-.7-.4-.3-1 1.8-.9-.3-.5.5H79l-1.3-1.3h-1l.5-.7-.4-.2-.8.2v.6l-1.2-1.1-1.8-.6v-1l-.8-.3.6-1.1.3.5.4-1 1-.2.4-1.2-.6-.6-.5.4-.6-.4-.9 2.4-2 1.8-2.5.4-.8-.2v-.8l-1.4.4-1.4-.8.2-1.6.5.4.9-.3.9.4.3-.4-1-.9-1.7-.2-.1-.6.6-.8-1.4-1.7-.6-2.2-1-.3-.7.5-.2-1-.7-1 .5-.4.4.5h.6l1.5-4.5 1 .6 1.3-.6.7.6 1.2-.8 2.6.3.4-.4 1.2.1.8.4-.2.4 1.1.3 1.2 1h.8l-.3.2.4.5h-.7l.3.3-.2.5 1.6.6-.8-1.1 1.5.2.1.5H77l1.2.5 2 1.8-.5.4.8.1v-.5l-1.8-1.7-.5-1.1h-.6l-.8-.8v-1l-1.1-.1.3-.9-1.3-.9-.5-.5.2-.6.6-.2.9.8 1.1-.6 1.1 1-.8.3 1 .5.2.8 1.5-1.2.8 1h.5l-.3.6h.8l-.3-1.3-1.4-2 1.8.3-1.3-.5-.4-.6.2-.3 1.4-.2-.2-.3.4-.2.3 1.2.5.2.4-.4-.2-.7.3-.2 1.7.3v-.4l1.8-.5v1.4l1.3.1-.9-.3.6-.6v-1l1.6.3-.1-.4h-.7l-1.3-2.3-1.4-.5-.6.3 1.7.5.6 1.5-.5.2-.1-.6h-.8l-.7-.7v1.3l.5.2-.8.7h-.8l-.1-1H83l-.3-.5H82l-1.4 1h-1.4l-.6-.9.2-2.7-1 1.2.5.8-.3 1.7h-1.8l.4-.7-.4-1.4-1-.7-.5-1.2.3-2.5.7-.1.3.8 1.5.1.2-.5 1.3.7-.7 1 .6.2-.2.5.3-.4.7.2-.3-.8.2-.3.7.1-.4-1 .6-.5v-1.3l.5.1-.2-.7 2.1.1-1.7-.6 1-1-.2-.5.6-.1-.5-1.2.3-.5-.8.1v1.3l-1.6 1.8-.5-.5.3-.5-.7-.1-1.3-1.4v.8l.8.5-.4 1.7-.2.7-.3-.4-1 .7-.2-.5H76v-.7h-1.4v-.5l-.6-.5v-1h-.2l-.4-.4h-.5l.2.6-1.1.3-2-.2v-.4h-.4l-1.1-.7-1.2-1.6.5-.7h1l.2-.7-1-.4-.8-1 .5-.4h1l-.3-.4h-.6v-.8l-.4-.5-1 .3-.3 1.2h-.8l-.1-1.7.6-.1.1-.8.7.6.4-.3 1.6.8v.5h.7l-.4.8.5.5.5-1-.6-1.3 1-.3.7.6 1-.8 1.2-.2 3.3 1.6v-.9h1l.9 1.5 1.4-.2 1.2.7 1.6-.6.4.2.2-.4-1.2-.7 1.4-.2.8.5-.4.8 1.1-.2.3.4-.2.7.6-.2 1 1.2.7-.2 1.2.8v.4l.5-1.1 1.2.6-.2-.8h.5l-.1-.4 1.6.2.4.4 1.3-.1.3 1.3h1l-.3 1.1.9-.3.4.5.2-.4 1.2.6v-.4l1.1.3-.5.3 2.6 2v1l-.6.2 3 1 2.7 2.2-.7-1-1.7-1.7-.3-.7-1.6-.8-.7-1.3-2-1.5-.7-1.4.8-.3.2.5 2.3 1.6 1.7 1.6v.4l-1.4.2 2 .2v-.5l-2.7-3.3.1-1.3-1.4-.2-.5-.5.6-1.3 1.4-.4 1.8 1-.3.5.7-.1.7.6-.2-.7.2.2h.8v-.2l-3.5-1.8.3-1h-.6l-.5-.5h-.6l.1-1.2h-.8l-.4-.8-.4.5.3.3-.6.3-.5-.8-.7-.3-.2.5-1.3-1-1.7.3-1.2-.6v-.6l-1.8.4-1.9-.7.2-.4 2.6-.1v-.5l1.1-.2-2.6-.7v.8l-1.7.3-1.4-2h-.3l.7-.3.6.5.8-.3-1.4-1.6.4-.6-.3-.6.4-.6 1.4-.5v-.4h-1.4l1.6-.2-.3-.6h-.7l.2-.3.7.2v-.6l-1.5-.7-.6.7h-.6l-1.3-.6 1 .7-.2.5-1.3 1.1-.8-.7-1.1.4v.3l-1.7-1.2 1.2-2.1 2.5.7-.6-1.5 2.1-.8v-.5l-1-.1.9-.9.6.2-.4.8 1.4-.3.1.4-1.4 1.7-.3 1.2 2.4-.7.3-.4 1.7 1 .9-1.1 1-.1.1.7.8.3-.6.6h.8l.1-1.5 1.6-.6.5.9h1.3l.1 1.2.6-.2.4.5.3-.7h1l.2-.8-1-1.3-1.1-.5v-1l-.8-.7-.9 1-1.1-.6 1.4-1 1.7.2-.3-.5h.4l-.2-.8.4-.6-.5-.2.8-.8.6.2v.3l1.7.1 3.3 1.8.5 2-.2 1.1 2 1 .1.5 1.1-1.1.7.3.5 1.6 2.6-.3 1.1.5.1-.4-.5-.1v-.7l-.9-.3-.2-.9 1.7-.3 4.1 2.7.9 1.5h.9l1 .5.1.6 3.3 1.2-.2.4.7.2.2-.4-.3-.7.4-2.5h1.5l1 .6 1.5-.3-.6-.2.4-2.5-.8-1.2-1.8-1-1.4-1.2-1.5.5-1.5 1.5-2.3-1.8-.7.5.2.4-.8-.2v.7l-2-.4-.7-1.2.2-1.1-1-.8h-1l.5-.6.8.3-.1-1-.9-1-.2.7.6.6-1-.2-1.1-1.7-2.9 3-1.7-2-1.5-.1 3.5 2.7-.1 1-1.9-.6-.7-1.2h-.8l-1.2-1v-.4l.7-.4v-.6l.4-1.2-1.5-2.2 2.7.4.7-2.6v-1.3l.7-.9-1.2-1.2v-1.4l-.9.5-.6-.6-1.1.5v-.5l-.7.2-1.1-.5-1.5 1.4h-.6l-1.8-1 .2 1.1-1.8-1.1-1.3-.2-.7 2-1.6.5-1.3-1.4-1.3.4-1.7-1.2-.9.2-3.8-.9.7-.8-.5-.2 1.1-.5.8 1 1.7-3.1v-.7l-1.7-1.7.4-1.4 1-.9v-.8l-1-.1-1.1 2.2-1.6-.2-1.4-.9-1 .2-.2.8-1.7-.7-1.4.8-.5-.3 1.8-1 1-1.9 1.3-.1.4-.6-.5-.5v-.4l1.7-.3.2-.4-.5-.5 1.3-.5-.3-1.6-2.3-2.6h-.4l-.4 1-.7.3-.7 1.3h-1l-1 .9-1.1.1-.3 1-.8.1.3 1.4-.9 1.1-.4.1.2-1.4-1 .4-.5 1-.7.2v.6l-.8.1.1.7-1 1-.5-.1.3-.5-1 .2-.6-.6-.9.3.8-1v-2.6l.3.3.3-.8h-1v.4l-.3-.4v-.4h-1.5l-.5-1.4 1 .2v1l.6-.5 1.6-.1v-.5l-.6.3-.6-.4 1-.3.7.3-.8-.5.6-.7h.8l.3-.5 1.4-.7.1-.4-1.3-.6.4-.7-.5-1.3.8-.9.4.3-.3-.4.8-.5v-.8H74l-.1 1.1 1.1-.5-.2-.5h.3l.3.6 2.6 1.3-1.3-.9 2.3-.5 1 .4.2-.7 1.4-.7.5.1.5-.6 1 .1-.8-.2v-.7l-1-1-.2.5-.3-.7h-1l-2-.6-.5 1h-.6l-.6.8h-1.2l-1-.6.8-.8-1.1-.4-2.5 2.6-1.4.3-1.2-.7-.3.5-1.8-.2-.4-1-1.1.9-.2-.6.6-.5-.5-.8-.5.8-1.4.4-.5 1.9-1.6.1.5.6-1.9-1h-.2l-.1 1.1h-.7l.9.2.2-.4 1 .7v.3h.6l.8.6.4 2-.8 2.3-1 .4 1.5-.3.8.2v.4l-.3.4-1.1-.4-1.6 2.6-1-.6-3.1-.3-2-1.3-.9-2.1-2.9-.7-.4-1-.7-.4-.8-1.2.7-1-.5.2v-.9l1.5-1 .6-1.3.5 1 1.2-1-.3-.2h.8l1.2-.8.2.5h.6l-.2-.7-1.4-.6h.8l.8-.6.9.1v1l1.1-.3v.9l.3-.6-.3-.3.1-.2 1 1-.2-.9-.7-.3.1-.5h1.1v.5l1 .2.1 1 .5-.2.8-.8-.6-1 .2-1 .8-.2-.8-.6.6-1.2-.4-.9h-2.1l-.2.7-2.3-1.4-1.4 1.2-.3 1.2-1.3.2-1 .8-1.2-1-.8.5-2-1v-.7l-.6-.8-1.5-.5-.9-2-1 .1-2.3-.8-.9-1.4h-.4l.3-1H42l.6-.7v-1.2h-1.2l.6-1.3.7.4.7 1v1.1l.3-.2.3.5h.5l.5-.8.4-.3v.6l1-.5-.9-.2-.2-1.5-.5.2v-.7l-.9.2-3.3-2-1.3-2-1.5-1.7-.2-1.2.2-.8.3.2v-2.3l.5-1 .4.2-.2-.4 1.2-.8v-.5h-.8l.3-.5.2.4.4-.3.1.5 1.2-.6v-.4l.8.6.3-.4h.5l-.3.2 1.2.2.4.6-.3-.6.4.3.3-.4-1.5-.3.2-.5.6.3.3-.7-1.4-.1-.6-.5 1-.6.3.7 1.8-1v-.4l-.4-.2-.7 1-.1-1.1-.4.5-1.4-.2-.1-.2.7.1.6-.5 2.4-.4-.4-.4-.6.2v-.4l-.7.4-.1-.4-.4.4-1-.4-1.8 1.6h-.4v-.4l-.2-.3-1.7 1-.2-.5-2-.3-.5.5-.6-.4-1.5-2.7.1-1.4-2.3-2-1-4.7 1.1-.7 1 .6 2.2.1 1.1-.4.3.3.8-.1.4.9 1.4-.1.7 1.6-.2 1 .2-.4v.3l.8-.4.2.2-.7.9h-.7l.1 1.1 2.6-.4.4.5.6-.2 1 1.7v-.5l.3-.1.3.3.4-.2.2.4.8-.6v.4h1.3l-.3.3.3-.1.4.8.3-.4v.4l.1-.3-.1-.7.5-.5-.3-.3.5-.3-.9.3.2-1-.9-.9-2.1-.3.5-.5-.3-.2 1 .2.6-.7-.8.3-.4-.5h-1.7v-.8l1.1-1-.4-.7-.8-.2-.2-1.1-.5.1-.1-.3-.7.6H42l.4-.4-.4-.3h.4v-1.3L41 370l-.1.6-.5-.6v1.8l.4.2v-1.4.4l.7-.2-.6 1 .6.3-1.5-.1-1.6.8-1.4-.8-.3-1.2.3-1h.3l-2.3-5v-1.1l.8-1.5.5.3.7-.3 1 .8.1-.2.7.2-.4.3.2 1-.6-.5v-.8 1l-.6-.4.2 1-.4 1.6.8-1.1.9.6-.6.6.7-.3v-.4h1.5l.5-.8-1.9-.4.8-.4.3.4.3-.5.3.5 1.9-1.4.6.2-.2-.6-1.2-.3.4-1.3-.3-.2v-.4l-.5.3v-.3l-2 1.4h-1.6l-3.1-.7-.7-.6.3.2v-.3l-.8-.4-1.9-3.3.6-2.3-.8-1 .2-.9-.7-2 .5-.9-.5-.7.6-1.1 1.2-.5.4.5.2-.5 1.7.7-.5-.5 1.2-.1v-.4l1.2.3.4.4.2-.3-.2-.4-.2.3v-.3h1.1l-.6.5 1.3.1v.4-.4l.5.4.5-.3.4 1.3.8-.2v.6h.4L43 351l.4-.3-.4-2.1 1 .1 2.4 1.4v-.8l-2-.5v-.3h.6l-.2-.2-1.4.2.3-.3-.7-.4.3-.6-1-1.2.9-.4-.2-.6.4-.7 1.8.2 1-.5-.6.1-1.3-1h-1l-1-1.3-.9.2-.2-.4h.5l-2.5-1.1.4-.4 1 .3v-.4.3l.2-.3 1 .3.4-.5-.7-.4-.1.3h-1.2l.5-.2-1-1.5 1-.2.2-.6h.4l-.2.6 1 .4-.1.4 1.2.1-.2.3 1 .3-.3.7.6-.5h.4l.4-.9.5.2v.7l-1 .3-.2-.3v.6l.6-.1 1.1 1h.5v.5l.6-.5 1 .3.1.4v-.4l.5.2v-.7l1.1-.8-.4-.2-.7.4-.5-.9.7.1.3-.4-1 .2-1-1-1.4.3-.9-.7-1.9-.4.4-.9-.5-1.3-.7-.3-.9.2-.7-.6-1 .2.6 1.7-1.9 1.1-.2 1.5-3.8 1.6-2-.1-.9-.9.3-1.4.8-.2h-.8l-.3-.6v1-1.2h.5v-.8l-2.4-3.5-.4-2.6 1.1-.7-.3-.3-.9.3-.6-.4-.3-1-.6-.2-.3-1.2 1.2-.5.2.4v-.5l.5-.6v-.6l-.8-.9.3-1.1h.3l-.3-.2.1-1-.5-.8.7-.8v-.9l-.8-1.2-.2.1v-.8l.6-.7-.3-.3.6-.1 1.4-4 1.7-.3 1.9-2.4 2.8-.4-.4.4 2-.5h-1.1v-.5l-1.6-.6h-1.1l-1.6-2-.3-1.6H34l.9.6 1.1-1.1 1 .7 1.3.4-.2-.4.4-.4-1 .4-1.1-1.3 2.2-.4 2.2 1.5.5-.3 3.1.5.7-.2-.3-1.5-.9-.3-.8.4-.5-.6.5.2.9-1.6.6.4 1-.4-1.6-.3-1.2.5-.3 1.1-1.1-.1-.8-.6-.9-1.8 2.3.2v-.3l-3.9-1.2.9-.5-1.8-.5-.4-1.7.4-.1v-.5l-2.7-.6-1.8-1.4-.3-.6 1-.9.1.2.5-.9-.4-.4-.3.2-1-1.3-1.3-.6.3-1.3.7-.7-1-.9.5-.2v-.5l-.5.3-1.2-.5-.6-.9.4-.4-1.8-.5-.8-1-.2-2.5.4-.9h-165zm184.2-80l-.9-.5v-1l.1-.9 1.4-.5v-.5l.7.2.3 1-.4 1.3-.8.6 1-.3-.4.4.5-.2v.4h.5l-.8.9zM38 462.3v-1.5l1.2.1-.3.3.6-.4.6.7-.1-.6.7.3.1.6.7.2-.4.5-.7-.1-.8.5 2.4.3-.8-.5.5-.7 1.8.6.6 1v-.7h1l.2.8-.4.3.6-.2-.4.5.1 1.8.5.7-.9 1.7-1.1-.5.3-.3-.4-.8-1.4.8-2-2-.9-.4zm15 8v-.4.4l.4-.3-.4-.3.1-.7h-1.4l.1-.8h.4l.5-.6.8.8.5-.4.5.1 2.1-.4-.5.6-.2 1.4h.4l.6 1.6.9-1.2h1.9l-1.9 1.4.2.7 1.5.6-.2.7-1 .2-.3.7-.8-1-.8.6h-1.3l-1.4-.8-.2-1-1.1-.9zm-5-5.8l.9-.3.6-.9.4.3 2.1-.2 1 .6-1.1.5.7.4-.2.6-.7-.2-1 2h-.9l-.5.9-.8-1.2.3-1.4zm47 61.2l-.2-.7-.8.2-.2-.4-1.8.5.3-.7-2.4-1.2-1.5-1.4.3-.6-1.7-.3.7-.5-1.6-.6v-.6l.9-.2-.5-.7h1.2l.6.2h-.5l-.5.9 2.2-.3.2-.5 1 1.5 1.1-.3-1.6-1.1-1.6-2.3 2.4.8-.5-1.2 2.2-1.4 1-1.4h.5l2.5 5h1.4l.1.4-.9 2.5.7 1-1 .7-.1-.5-.5.2-1 1.5.4 1.3 1.2-.6 1.9.3v1.7l1.1.3-1.3 1.8h-.5l-1.2-1-.6-1.3-1.7-.6zm-52.3-9.3v-.7l-.6-.1.5-.4 2.9.6.4.7h.4l-.7.6-1 .3zm5.5 9.2l-.4-1 .2-1.2 1.5.3.5-.4 1.6 1 .4 1 .6.2-.3-.5h1l.6 1.2-1.1 1.4.7 1.4-.5.4-2.7-1zm12.8-3.4l-1.3-1.2.3-1.4 2 .4h1.3l1.5 1.2h.7v-.8h.7l.7.6h1.3l.2.7 1.4.6v1l1.1-.6.7 1.5-.3.8 1 .8-2.1.2-.9-1-.9.6-1.4-.2v-.3l-1 .2-.7-.7.2-2-.5-.6h-.5l-.4 1.3-.8.4zm-26.5-10.5l-.1-1.5.6.3.4-.5h1.2l.4.2-.2.3h1l.6 2.1-1.4.7zm21.2-1.8l.3-1.5 1.5-.2.2-.5.5.3v.7l1.6.4v.9H59v1l-1 .2-.2.5-.4-.5-1.4.1.4-.3zm7.1-21.3l-.3-.5.4-.6 1.4-.4h2l2 .6.7.8h1v.3l1.1.5.9 1.3-.2.7.4.9 1-.3-.4 3-.7.5-1-.4-1.1-1.9-.3.5.4.6h-.3l-1.6-1.6-3.7-2.1zm-22 25.4l.4-.6-.4-.3h1l.2.4.5-.1.4 1.1-1.3.5.1-.2zM35 387.5l.2-2.6 1.2.8-1 1 1.4-.2.7-1.3.7.4.2.7.4-.3h-.2l-.3-.4 1 .5.3.9-1.2 1.1.2.6.1-.4.4.3-.6.4-.5-.2.3-.3-.3-.5v-.5l-.5.5-.4-.5-.6.5v2.5l.5-.5v-.8l.6.4.7-.4.1.6-.2.8-.3-.4v.6l-.9-.5-1.2 1.7-1.3-.7zm3.1-87.6l-.2-.4.9-.1 1.1 1.8-.9-.2zm28 158.8l-.3-.2.5-.3-.3-.5-.4-.3.8-1.4v-1.5l-1.7-.2-.9-1h.6l.3.2.9-.9-.3-1h.5l-.8-.9.3-1-.7-.9.8-1.5 1.3-.8 3.3 2.2-.3.2-1-.6-.5.4.1-.6-.7-.3-1.9.9.2.9.4.1.8-.6.7.4.4-.5.5.7.7-.3 2 .2 1 1.2 2.3-.1v1.3l.7.4-.3 1.4-.6.2.2 1.3-2.5 2.7.7.2-.2.6h-1l.3-.2-.2-.2-2.9 1.4v.7l-.8.3-.1-.3.7-.1v-.4h-1.1zm-19.3-8l-.8-1.2 1.4-1.1 2.4-.3.8-.5.6.2v-.4l1.2.4-.2.5.8.3.1.5-.3.3-.6-.4-.3 1 .5.3-.5.7h.4l.7 2-.6 1 .4.2-.3.5H51l-.8-.9v-.5l-1.1-.3-.5-.6.4-.5 1.3.3-.4-.5.5-.1v-.6l-1.8.2-.9-1.1-.2.5.8.6-.9.3 1.1-.2-.5.5h-1zm37.6-2.5l-.9-.7.2-.5 1-.3v.3l.6.5-.3-1.5.7-.1.3.4 1-.3v-1.5h.9l.9-.7.4.2v.8h1.6l-.4.2.6 1-.6.3.6.3.8-1.1 1-.5.9.4-.7.2.6 1-.6.4v2l-2 1.3-1.7.1L87 452l-1.8-1.1L87 449h.6v-.5h-1.2l.2.5-.6.8-1 .2-.3-.6.8-.4-.5-.6zM61.9 446v-1.1l-1.3.8-1.5-.7.7-.3-.3-.5.5-.4.3.6 1-.2-.2-.4.5-.3v.5h.8l-.5 1 1.5-.5 2 1.4v.8l-1.4-.3.3.3-.3-.1-.3.6.6 1.3h-.8l-.7 1v.7l.6-.2.4 1.2.3-.2.6.2-.1 1-2.6-.9.7-1.2-1 .9-1.5-.4.2-1.2.8-1.4 1.5-1.1zm-27.2-2l1-.7 1 .1-.2-.7.5-.1 1.2.7 1.8-.1v.6h-.8l.2.6.6 1.3 1.5.9 1 2.7-.3 1.3-1.5.4-1.2-1h-1l-.3-.7-.9.1-.6-.9-1.4-.2-1.4-2.5-1.4-.8 1 .3.8-.2zm21 1.6l1.6-.6-.6 1 .4.5 2-.5h.8l-.1.3.6-.3v.5l-1 .7-.7 1.4.1 1 .4-1.1h.5l.3.8-.4.8-1.1-.7-.5.3-1.4-1-.6.1 1.3 1v.9l.7-.4-.4.5.7.2v1.2l1.3-1.2 1 .7-.6 1.6-1-.3-2.4 2H56l-.4 1.2-.9-.9.3-.7.7-.2-.4-.7 2 .3v-.5l-1.4-1.8-1.7.3-.4-1.2.5-.2H54l.1-.6.7-1h.5v-1.2l.7.4zm-4.7.2l.8-.2h-.4l.2-.3 1.4.2v-.6l-.1.3-.8-.1 1.3-.3v-.4l.8.1.1-.5.4.2-.6 1 .7 1-1-.1 1 .9-.5.8-1.7-1-1.6.2 1-.3zm24.5-2.7l-.4-.8.6-.4.4-1.2-1.3-1 .8-.2-.1-1.1 1.5.5v.4h.3l.7-.7 2-.4.2-.7 1.2.2.9 1.3 1 .8-.1.9.4.4-.3.2 2 .4.5.5-1 1 .7.9-2.3.4.4.5-1.2.6-1.4-.3-1-.7-1 .4h-1.5l.3.6-.6-.6 1.2-2 .6-.4.5.6-.4.3 1.8.3-.5-.8 1.3-.6.4-.9-1.6 1-1-.5-2.9 1.5zm-17.1 0l.4-.2.2.4-1.2 1.5-2-.6v-.4l.8.4.3-.4.2.5.4-.8zm-14.7-1.4v-1.5l-.9-3H44l-.6-.5 1.2.5-.8-1.4.2-.4.9-.4 1.1.6.2.4 1-.2.8.6-.3.4.6-.2-.7-.7 1 .8.7-.4v-.9h.6l1.1-1.2.7.1.3-.4h-.8l.4-.4 1 .2-.2.4.6-.3 1.2.8-.2.6.2.5.9-.3.9 1 1.3.5.4.3v1.1l.6.1-.3.5.3.5-.3.3-.7-.2.1.8-.6 2-1.8 1.2-2.7.3.5.4-.8.1-.7-.3h1l-.5-.7-.4.2-.9-.5v.3h-.3v-1h-.8v1.1l-.4-.2v.3l1.4.3-.4.2.6 1-.8.9-2.6.1-.7-.2v-.9l-1.2.3-.7-.9-.3-1.7zm199-162.7l1 .3.5-.3zm87.5 0l1.4.2.7 1.1-.3-.8 4.3 1.7 3.6.6 1.1.6.4.9.4-.8 1.4.4.2.7h.8l-.2-.7.4-.4 3.2.6.9-.5 1.3.1-.5-.4 1.7-.2 1 .5-1 .7.3 1.2 1.2-.3 3 .8-2.9 1.3h-1.5l-.8.7-.5-.8-.4 1.1-1.4.3v.4l-.5-.4.6-.3H347v.4l-.2-.9-.8 1 .5-.4.2.7-.7.7.5.6-.8.6-.7-.4-.1-1.3-1.6-.3v-.8l-.5-.2h-.4l-.3-.3.2-1.8-1.6 4.4-3-4.9-.4.6 1 1-.3 1.5.7 2.6-.6 2.1-2-1.5-1.1-2.7.6-.3.9.4-2-2.4h.8l-.3-.7.4-.2 1.4 1v-.3l-2-1.4h-.6l-.3-.3.4-.1-1-1 .4 1h-.4l-.9-3.2-.1.7-.5-.2.2 1v.5l-1.1-.8-.5.9-2.4.4-1-.8v.6l-1.3-.6-.7-.4-.2-1.4-1-.4v1.8l-2.4-1.1v.3l-.4-.8-.3.9-.8-.8-2.5-.3.3.8h.5l.7 2.8-1 .6-1.2-.1 2.6 1.4v.3h-.9v.9l-.9-.2 1.1.5h-.3l.2.6-.8-.4v.3h-.4l-1.3-1.4-.8-.1 1.3 1-.5.6-.9-.6-1.4-.8-.5-1.9v1.3l-1.2 1 3.3 1.9-.4.4.1.7-.7-.2v.6h-.7l-.1.5 2 1.1-1.3-1.2h.5v-.5l2 2.1 3 1.2 5.8 3.5.3.3-.5 1.3-.8.4-2.1-1.2-.1.7-.6.1-2.4-.7 2.3 1.4-.4.4.5.5 2.5.8v.6h-1l-2.5-1.3-.7.4-1-.5h-2.3l-1-.7h-1l-.5.8-1-.4-2.2.4-2 1-1.7-.4-.5.4-1.6.2-1.3 1.1h-3l.8.6.7-.3 1.9.4 2.3-.5 4.7 1 2.7-.8 3.3.7 1.5-.3 3.4 1.2-.3.6.3.7-1.2.1v1.3l.5.3-.7.1 2 2.1h-1l-1-1.5-1.1-.8-.5.3 1.4.8.6 1.3-1.5-.1 1.3.3.3.6.3-.5 4.2.6.2 3-.7 1.5.5 3 .6.4.6-.9v.4l2.2.3 1 .6h-.2l.8.9.3 2.6 1.2 1.3-1 .1-5.3-1.7-.2-2h-.8l.5-1-1.1.7.1.6-1 .3.5.8-.8-.4-1.7.5 5.9 1.5.8-.1-.2.1 2.3 1.6 2.7.9v.3l-1.3-.4h-.6l-.4.6h-1.4l-.3-.6-2.6-.9-1.8-1.5-1-.2 1.1.8-2.4-.6-1.6-1.3.3-.3h-1.7v.2l-1-.6-1.9-.1v-.9h-.8l-.2.7-.9.1-.8.7 1.9.1.4.6-1-.1-.7.4-1.4-1.7.5-.6-1.2.4.4.4-.6 1-1.9.4-1.3-.4-.9.2-.1-.2h-1.5l-.5-.4.2-.6-.2-.2-.6.5.8.5v.4l-4-.2-1.3-.4-.1-.7-.8-.3-1 .4h-.8l-.5-.7.2-.4-.5-.3-.5.3.3.6-.6.4-5.2-.9h-2.8l-2-.9-8.3-.4-8.7-4.7-3.8-2.4-.1-.6-1.9-.6.1.3-.7.3-2.2-.5-5.4-3.7-1.2.2-.7-.4-.9.4.2 1-.4-.3.4.8-.1.3-.7-.4.3.8-.4.1.8.5h-1l.5.7-.4-.2.4 1.4h-.4l.9.6h-.7l.5 1 1.1.4.8-.3.6.5v2.2l.2 1.2-.5.4.3.3.6-.5v-3.3l.7-.7-.8-1.9h-.3l.6-.6-.8-.7.5-.3-.2-.4.9.8 2.7.6 2 1.6 1.4-.1.9.7v.5l.7-.3.9.6v.5l-.9.2.2.4h1.1l.2 1 .6-.1 3.4 2.4.7-.1-.3.4.4.6 1.9-.3.1-.5h1v-.5l6.4 3.4 4-1 1.4 1 4.8 1.5 3.9 2.1 1-.1-1.3-.6v.7l-.7-.7h.6l-.5-.7.7.4v-.5l1.3.1v.7l.7.5 1 .2v-.3l1.5 1 2.5.3-2-1.2.1-.2-.4-.6h.6l2.5 1.7 1 .1-.3.3 1 .2h-.7v.2l1.8.8v.6l2.4-.2.5.5 3.6 1 .8-.2.6.8 1.3-.2 1.2.4 3.2 2.6 1.4.3 1.4 1.3 4.3 2 9.2 4.1h1l-.1.4 1 .5.4-.4h-.6 1.8l-.1.4-.5-.2v.5l2.8 1.5 1.1 1-1.3.4-2.6-1.1-.4.3.5.4 20.2 9.7-2.8-.7-.7.2-.1.5h-1.2l-2-.5-1.4.2v1.1l4.3 1.6.6.6-.2 1-1.7-.9h-1.7l-.7.7-1.1-.5-.6-1-2-.5-.2-.6.3-.2-.7-.8-3.1-.9-3.8-2-.4.6 3.6 2.4 1.4.5 2.2 2 .5 1-2.2-.5-.5.4v.8l1 .6v.7l3.4 1.9 2.8 4 2.2.8 8.8 8.2.8 1.6.5 2.2 2.5 4.1-.5 1-2.5 1.7-1.2-.7h-1.9l-2.3-1.6-4.7-1.5.5 1.6 1.7 1.2v1.4l2 1.6-.5.4v.9h-.6v.7h-.6l-3.1 1.4-.4-.1h-.2l.5.5-.4 1.5.8 1.2-.3.2.7 1.4-.3 1.2 1.7-.2v.6l1.5.8h1.7l1.2-.5-.8-1.3.2-.2h.6l.3.2H357l.9.9-.1.8.7 1.1 1 .5h-.3l.6.5 2.2-.8-.3-1 1.3-.2-.6-1.1 1-.2v-1l1 1 1.8.9.6-.1h.2l-.3.1.2.2 3.5-1.3.7.3 1-.2v.3l.7-.4-.2.4.3.1v-.4l.3.3 1.8-.2.5-1-.2-.5 1 .5-.7-.7.9.3.3-.3.2-1.8-.3-.4h-1l-1-1.2-.4-.1 1.1-2.3 1.2-1 5.2.5 5.1-.2 13.5 3.6 1.7-.6 1.4-1.4 2-.6 4.5.7 3.4 2.4 4.4 3.9 2.2 1.1.2.4V369l-1.8-.5-5.4.5-4.6-2.4-1.4-1.9.4-1.2 1-.8 1.2-.2 1.4-1.7-.4-1.7-3.7-3.5-4.9-2.7-4.4-3.7-2.6-1.2-.5.5v1l4.5 5 1.3 1.9.5 1.8-.3.3-2-.3-.3.5v-.4l-.7-.1-.8 1.5 1.1 3.8 1.7 2.8v.9l-.8 1.2-2.3.5-6.2-.6-.4-.7-2.4-1.6-1.1-1.7-2.3-1.7 6 1.3.6-.8-.2-.9-1.3-1.2-.8-3.2-2.7-1.6-2.6-2.8.5-.3-.2-.6h-.6l.4-.3.7.7 1.5-.4 3.7 1.1 1 .8.6-.2.4-1-.2-1.5-2.3-1.7-1.1-1.5-.2-.8-.7-.5 1.5-2.3 1 .3.6-.4 1.6.9v-.9l-2.2-1.7-.6-.7 4.6 3.1 4.7.2 4 2.1 2.1.3 2.3-2.1 2.9.6.8-.1 5.5 3.8 4 1.4 1.1-.2v-19l-1.6-1-.9-.3v.3l-1.7-.8-.1-1.1-3.2-1-1.2-1.3-.9-.1-6.6-3.5-1.7-1.9v-.5l.5.2v-1h3.3l3.2-2.5.6-.8-.1-1.5 1-.5.5-.2 2.3 1.4.3 1.3-.6 2.4.6 1.7.9 1.8h.7l.6 1.8 1.3.9.4 1.3 1.3 1.2 1 .5V279h-56.1l-.2.2.7.4-.4.8h.3l-.8.6 1.6-.4-.2.6.7.2-.7.2-.3-.6-1.1.3-.1-.3-1.5.5.8 1.2-1.3.6H360l-.2.4-1.4-.4-2.6.4-1-.5-2.2.5.2-1.2-.8-.6 1.6-.1 1.4 1 .5-1.7-1.3.4-.2-.3.8-.7 2.5-.2 3.7.8-2.5-.7-.5-.6 1-.6 1.2-.3h-16.5l1.1.6-.6.5-1.7-1zm31 118.5l-.2-.5-1.4-.4.5-1.7.4-.2.8.7v1l.7.6zm16-39.2l-.5-1 1.6 2.1h-1l-1-.9zm-1.6-9l-.4-.3-.3-.7.4.2zm25.4-3.7l-1.8-1-.4-1.1 1-.2 2.9.7 2.1 1.2-1.2.2-.4.5zm-58.9-3.3h-.6l-.3-.3h.9zm30-1l.1.9.1-.8 1 .6-.2 1.5-1.3-1.5.2 1.1-.6-.2-.6.4-.4-.4.2-.6-1-.8h.7l-2.6-1.1 2.7.1zm-25.8 1.2l-.3-.5h-.8l.4-.8 1 .3-.5.2.5.5zm-11.2-3.1l3 .6 1.8.8v.8l-.4-.4-.5.2-.6-.5.6-.1-1.2-.8-1.3.3-.5-.1v-.4l-.9.2-.8-.4zm5.2 1.3l-.6-.1-.5-.6h.8zm23.8-3.7h-.6l-1.3-.8 1.1.1zm-10.1-.2l-.3-.3.5-.3.1.3zm-1.4-.3l-1.1-.4-1.2-.8 3 .6zm-3-.3l-.9-.4v-.3l1.1.2zm-12.5 3.2h-.9l-.2-.4h1.2zm25.6-1.4l1.9.2.9 1h-.5zm-22 .6l-2.9-.7-.5-.3 2.5.2zm4.7.7l-.4-.3-.2-.2.9.2zm-2.4 2.2l-.6-.4v-.5l-1-.2 1.6.1-.5-.3-3-.5 1.8-.3 1 .6.2-.4-1.6-.8h1.7l1.4 1.5-.4 1zm1.7-2.4h-.3l-.6-.6.8.2zM335 335h-.8l-.4-.7 1 .1zm13.7.7l-1.8-1v-.2l1.1.5zm5.8-.9l-.3-.1-.6-.4.9.1zm4.1.2h-.3l-.9-1.2 1.3.8zm-29.5-.8l-.2-.2-1.3-.2 1.3-.3 1 .2zm14.2.8l-1.4-.7-.1-.3 1.2.3zm1.4-.2l-.3-.1-.7-.8 1.4.6zm11.7 0l-.7-.2.5-1 .8.4v.6zm-6.8 5.3l-3-1.5-.6.4-3.7-1.3-3.3-.7-.2.6-1.3-.6-1.5-1-.2-.3.4-.3-1-.7 1-.3-1.5-.6 1.3.4-.2-.6-1.7-.2-.5-.9-.7.5-2.5-.8v.4h-.7l.6.3-.6.1-1.5-1.2 1 .1.2.4 1.1-.4-.3-.2h1.2l1.9.5h2.7l3.6.9.8 1.4 1.5 1 2.3.7-1-.8.9.2 1.4.8-.2.4.5.4 3.7 1.3.6.7zm20-.5l-1.8-1h1.2v-.9l-.7.5-2.3-.8-2.3-1.7.3-.5-3.3-1.4 2.1.2 1.2.5.1.3-.5.2 3.4.9 2.8 1.7 2.2.6-3.9-2.8-1.4-.4-1.9-1.4h1.5l-.3-.4-1.3-.5.3.4h-.3l-.7-.7-.6-.1.7.3-.5.6-.7-.2-.5-1.1-1-.9-.4.1 1.2 1-.2.5 2.3 1.1.4.6-2.7-.9h-1.9L354 330l-2.4-2.3-.7.2-1.7-.7-.6-.7-2-.7-1.2-1h-1l-.7-.6 6.7-.8 2 .2.4.6h.7l.4-.2-.3-.2.4-.1 1.4 1.2.9-.2 1 .5v-.2l3.1.3-1.6-.5 1-.1 7.7 4.2-.2 1.5-2.3-1.3.7 1.5 4.5 2.6-.4.2 1-.1-.8-.9.4-.5-.6-1.3-.3.7.5.6-1-.3.2-.4-1-.4 1-.3-.2-.8 4 1.6 1.4 1.7.6-.4.7.4 1 1.1.9.2-.3.6.9.7.2.4h-.4l.6 1v-.5l.2-.5.3 1.3-1.1.1v.7l2.4.5.6 1.5 1 .2-.3.3-1.4-.4.4.7-.9-.4.5 1h-1.5v.7h1l.9.4v1.1l-.9.5.8.8-.4-.3-1.5 1.3.3.8h-.4l-.1 1.2-1.5-.7-.6.7-2.5-1.4-.7-1 .4-.5-.3-1 .5-.8h-.6l.1-.9.4.4.3-.6h.4l1.9.8-.8-1-1.5-.9-.3-.7-1 .1-1.7-1.3h-1v.2zm7.2-6.2l-.6-.2-.9-1 1.7.4zm-19.6 0l-1-.6v-.2l.8.1zm-21-4h-.6l-.4-.4h.5zm-14.2 1.4h-.7l-.5-.8 1.5.3.1.4zm11.8-.8l.5.6-.3.2 1 .5-2.4-.1-.9-.4v-.4h1l-.2-.3 1 .5-.5-.6zm2.8-.3l1.2.3.2.5-.4.2.5.6-1.5-.7-.6-.8zm-12 3.3h-1.2l-.4-.3 1.3-.2zm1.2-.8l-.4-.2h1.2l-.2.2zm12.8-.7h1l.7 1.2h-.9l-1.4-1zm-15.4.7l-1.6-.2-.2-.2.3-.1zm22 .8l-.3.4-2-.4-.8-1-1.1.3-2-1.8 2-.6v-.3h.8l.5.7-.3.9.2.6zm-21.9-1.3l-1.5-.4.7-.3 2.2.2-.7-.5-1.4.2.4-.6 3 .7v.4zm36.2 2.3l-1-.5-.5.3-.5-.5.9-.3.8.4zm-28 0l-.5-.4v-.6l1.1.5zm1.9-.2h-.4l-.9-.8 1.4.4zm20-.2l-2.7-1.8.3-.5-.4-.6.8-1.1 1.4.2 3.2 1.7v1l-.6 1.8zm-49.8-7.3l-2.2-1-.6-.5 2.4.8-.3.2.4.2-.5-.1zM364 325l-1-.7-.2-.2 1.2.3.3.4zm-62.2-.6h-.3l-.5-.5h.7l.4.4zm4.7 2.7l-.3-.1-.4-.4h.6zm28.6.6l1 .5v.4l-.5-.3zm-16.1 1.8l-1-.5h-.6l.9-.5zm15.3-.4l-.3-.3-.6-.6h.9l.5.6zm-1.5.3l-.8.3-1-.6h.4v-.7h.7l-.2-.4-1.4.4-.5-.4v.8l1.4 1-1.4-1v.8l-1-.4v-1.4l-.3 1-1.2-.7-.2-.6 1.1-.2-.8-.7 1.8.4-.2-.4h.3l.8.4.2.5.5-.3.3.2.3-.5 1.7.5.3.3-.6.3.6 1zm-7-2.2h-.3L322 325l2.5.5 1.4 1zm-.8-2.2l-.6-.3-.2-.4h.6zm21.5-12.3h-.7v-.6l.9.3zm-11.3-2l-.7.3-.1-.9h.8zm-11.3-11l-.9-.2-1-.6 1.4.4zm1.4 5.3l-.5-.4-.3-.4.8.4zm46.7-13.3v1h.6l-1.4.8-.4.8.5.3-2-.4.3-1.2h.8l.6-.5-.2-.3zm-30.6 2.9l-.8-.8v-1h1.1l.3-.6-.4-.2 1.8-.4zM338 293l-.2-.3v-.5l.3.2zm-12.9-.4l-.3.2-.4-.6.6.3zm9.3-6.7l-.3-.2-.5-.5h.6zm-14.7-4.1l-.2-.5 1 .1.7 1zm52.8-1l1.4-.8 1.8.5-.9 1h-.9l1.1-.8-1.3.3-.3.4.3.4-.8.6-.9-.5.8-.7zm4.5 0l.3-.6.5.4-.3.4zm-13.8 1.2h-.2l-.4-.2h1zm-22.2-1.4l.2.3-1.4-1.1.7.3zm-18.7 2.2l1 .2 1.1 1.4-2.6-.7-.5-.7 1 .2zm39.5 2l1.7-1.3h1.6l3.9 2.3-1.4.6-1.4-.1-1.6.7h-1.2l-2.2-.8zm-14.3-2.1l-.7-.2h1.2zm-5.5-3.5l1.3.5v.6l-.8.2-.5-.7-2.3-.8h1.3l.8.6-.1-.3zm-2 12.4v-1l.3-.3-.3-.7.2-.1.8.5-.6 1.6zm36.8-1h-.8l.2-1.2.6-.1-.8-.7v-.6l.3.7.9.3v.6l3 .2.5.6h-.3v.9l-1.4.5v-.3l-.6.1v-.3l-1.6-.3 1.4-1zm-33.4-1.6l.1-.6.8.3-.3.5-.2-.4zm-12.5 2l-.5-.2-.7-.5 1.1.2zm-6.2-.7l-.4-.3 1.5 1-.6-.3zm3 3.3l-.7-.6.5-.4-.4-.6v.3l-.2.1-2.5-1.4 1.6.6h.7l-.4-.6.7.3 1 .7h-.6l.5 1zM375 287v-.5l1.4-.6 1.6.6-.7 2-1.3-.9-.7-.9zm-4.1 4.4h-.4l-.8-1.4.8-.8-.7-1.5-1.1-.4.5-1.3 1.3.5-1 .2 1.4.3.3.9-.3.5 1.2.4-.4.6.5.8v.8zm-28.2-3.8l-.2.4-.3.2.1-.7.3-.2zm13.7 36l-1.1-.5h1.5zm-12.4 3l-.5.2.2.5 2 .5.2-.3-.8-.3 1.3-.7 2 .3v.6l1.5 1 .2 1.1-1.5.1.6 1.2 1.1.7v.4l-1.3-.3v1.3l.4.4-2.2-.5-.6.5-3.7-2h.5l-2.2-2.5 2.5.2.5-.4-.7-1.2-4.2.2.4.8-.8.3.4 1-.7.1-2.6-2.4-1.5-.6.3-.9.8-.4 1.4.4 2-.4-1.4-.1-.6-.4.3-.2-2.2.1-.1.3-1-.5.7-.5 1.1.6.6-.2.3-.3-.8-.5 1.1-.4 3.2 1.2 2.2-.3 1 .7-3.6.8h2.4v-.2h.6l3 .7-.8.6zm-4.6-2.9h.8l.2.3-.5.3-1.4-.6h.3l-.2-.4zm-31.1-.7l-.7-.2 1.4-.2.4.3zm25.8-11l-1.7 2.8-.6-.6-.8 1.5-.5.3.3.2-.8 1.2-.6-.4-.2-.3.5-.5-.6.2.2-.5-1.8-.6v-.5l1.1-.3h-.8l-1.2-1.2-.2-2.9-.3-.7H325l1.6-1.4-.6-1.9 2 .3-1.4-.8-.6-.9 1.3-.4.7.1.8 1.3v1l3 .7.8 1.1-1.4.4 2.8 1-.6 1.1 1 .1zm-.5 11.7l-.1-.6 1 .3v.2zm33.9-1.1l-1.3-.8-.4-.8 1.8.5-.3.1.5.8zm-9.6-2.4h-.3l-.5-.6.9.4zm-3.9-.6l-.4-.2-.3-.3 1.6.3zm2 .6l-.6-.3-.1-.1 1.6.2zm-21.4-8l.4-.5 1 .1 1.4-.9 4.9.7 3.3 1.4h2.5l.2.8-1.9 1 .4.4h.8l-.1-.6h.7l.6-.8 4 .9 1.4 2.2.8.4v.7l-.7.1 1.7.9h-2l-2.7-.8.4.8-.3.7 1 .5-.3.4.7.6 3.9 1.5-1.4.2-1.7-1-.3.4.7.2-1.8-.3-.5.3-2.7-1.7h-.8l.3.5-.2.3 1.5 1-.2.4h-3.7l-.7.4h-4l-2.4-.7-.3-1-2-.6v.6l-.8-.3-3 .2.3.6h-1.1v-2.5l-.9-1.8h.7l.1-1.5h.6zm0 .1"/><path d="M360.4 279l.4.1.9-.1zm59.7 218.4h.2l.3.2v2.8l.7 3.8-.9 1.7.2 3.3.7 1.2.1 1.2 1 1.2 3-3.3.9-4.3 2.1-4 .6.6h1.6l1.4 1.4.6-.4.8.1 1-.8 1.4-2.1v-3.2l-.8-1 2.1 2.7 3.2.6-.1-.6-2.6-2 1.1.5 1.6 1.5 1.1 1.8 2.4 1.5 1.8 2.1 3 7.6.1 2.9.6-.4v-1l1.2.8.2 3.8 2.3 3.4 2.3 4.9.6.3-.5.1.1.8-.6 1.2.8 1.5v1.7l-2.4 1.3-1.3-1.6v.4h-.4l-.2.6 1.9 8.8.3 3.9-.5 2.8.8 3v1l-.8.9.7 2.4-.4 3.1h230v-.9l.1-.5.5.6-.6.7h1.4l3-3.2h1.6l.6.4.3-1 1 .4.6.4.8-.4.2.6.7.3.6-.1v-.5l2.6.8.8-.3.8.5v-.5h.9v-83.6h-.4l-.7.3-.4 1.6.5 1-2.7 1.5-.3 1.1h-.5l-.5 1-.7.3-.3 1.1-.3-.3-.4.2h.4l-.6 1 .4 1-.5.4.7.9-.4 1.6.5 1-.3 1.1-1.5.4-.3-.7v.8h-.5l-.4.5-.6-.2v.6l-1 1-1.5-1.2-.5.8h.5l-.1.2-.5.4-1-.8-.6.3-1-.7h-.5v.4l-.6-.4-.5.3v.6l-.7.4.4 1.6-.4.9-2 .6-.3 1.4h-1.6l-2.4-1-.6.5H673l-1.6 1.3h-.7l-1.5 1.1h-.5l.3-.1v-.4l-1 .8-.6-.3v.7l-.4-.8h-.6l-1.2 1v1h-.4l-.1.8h-.7l-1.3 1.6-.9-1-2.7.5.3.4-1.4.1-.6-.4-.3 2.1h-.7v.5l-.8-.4-.6.8.3 1 1 1.4.3 1h-.9l-2.7 2-2.6.4-2.1-.6-2-2.5-1.3-.6-1.3-1.5-2 .4-1.4-.8-1-1.6h-.3l.2.3h-1l-1.5-3.5-.6-.2.9-.8-1.1-2.1.9-.7-.5-2h.5l-.2-2.3-.3-.7-.9-.2 1.6-.2.8-1.8-.8-1.7-2.9-1-.7 1.1.4-.2.2.8-.4-.2-.4-.9.9-1.4 2.7-.5 1-2.9 2.5-3 .5-1.6 1-.9v-1l1.7-1.9.9-3.7.7-1.4.7-6.2.9-1.6 1.3-4.8 2-3.4v-.6l.3-1.9-.1 2.6-.5 1 .7-1.3.9-3.4-.4-.1-.3 1-.3.2 1-3.1-.1 1.3.5-1 .1-1.6-.3 1.5-.3-.2.5-2.4.1.6.6-1.7-.1-.3-.6 1.3.7-3.2 1.3-2.3h1.3l1.2-.4v-.6l.8.6h1.1l1.3 1.4 1-.4 1.8-2.6.7 1.4v1.8h1.1l.2.4 1.7-1.9h1.5l.8-.4.8-1.3v-.8h.3l.8-.9.2-1-.6-.4h1.1l1.6-1.7 1.8 1.1h.6l1.1 1.2 2.6 1.3.8-.1v-.8l1.2-.3 1-1.4-.3-1.3.5-1.5 1.3-1.4.8-2.6 1.2-.1 1.4.4 1.4-3 .2 1.4v-.6l2-1.3v-2.6l-1-1.4.2-2.9-.6-2.5 1-2.3-.4-3.6 2-2.7 2-4 1.1-.6 2-4.1 1.1-1-.4-1.5 2-2.2v-1.6h.3v-58.6l-3.1 1.4v1.3l-.9.2-1.8 2.5-.5.1-2.2-1.1-1.5-2-.8-2.4.1-6.3 1-3.1 1.6-2.2 3.1-.6 2.5-2 2.4-4.9V279h-71.5l-.5.4-1.7 2-1.3.3-1.4 1-1.6 2.6-.8.7h-.6l.1.1-1.7 1.4-2.2.4-1.7 1.7h-1.7l-1.6 2-1.4-1.1-.6.3.2-.6h-.4l.2.3h-.7l.4-.3-.4-.4-.2.8-.9-.6-.6.2-1.8-.6-3 .2-.2.4-1.3-.4-1 .5-2.8-2.1-.7 1.1-2.8-.3-1.3 1.2v-.8l-.6.3.4.6-.5.7-3.1.5-1.3-.7h-.8l-2.6 1h-1l-.2-.3.3-.5-1.7-2.4-.6-3.1-.9-.5-.7.2-.9-.9-.5.2-1-1.4-1.9-.8-1.3-1.8-.8-.3.2-.2-1.3.1-.6.6 1-1.3 1.7.2v-.7h-2.4l-.5.4-.3.9-1 .5v.5l.5-.5.9.2-1.5.7-.5 1.1-.4 2.5 1.2 2.6 1.7 1 .9 3.7 1 .1-.4 2.9 1.5 2.2v1.1h.4l.4.4-.1 1.2h.4v1l1 1.1h.8l.7 1.9v1.2l.7 1 .4.8 1.2.6 2.1 2.7 1 .5-.3.5h.4l.3 1.3.9 1.7.5 1.7-.3.6-2.1 1.1-3.2 3.9-2.4 1.4-1.6 1.5h-.5l.2.6h-.4v.5l-.8.5.9-2-.3-1v.7l-1.3-1-.7.3-1-.3.1-1h-.3l-.1-.2.3-.3-2.8-.7-.1-.6.3.1.3-.5-1.5-.7.1-.7-1 .4v-.4l.3-.3-.3-.3-.2.4-1-.4v.4l-.3.1-1-.6-1.2-1.8.6-1.1-.4.4-.4-.4-.1.3-.7-.5-.5.2-.1-1-1-.4-.2.5-.6.1.6-.6-.8-.1v.4l-.7-.6h-1l-1 1.1-.7.2.1.4-.5-.2-.5 1.7.3-2v-.5l-1 2-.5-.8-.3.4.5-.8-.3-1 .6-2.2-.5-.6-.4.1V308h-.8l-.3 1.1h.5l.3.3h-.6l-.4 1.2-.8.7.3-1.2.5-.1.2-1.8 1-.5v-1.2l-.9.2.9-.7-.6-2.5.6-1.3-.4-.3 2-6.6v-2l.4-2 .6-4.5-.7-.5.3-.8-.2-1.1-.4-.2-.3.7-.6.1-.7 2.5-.4.1-.6 1.3h-.4l-.4.6-1 6.2-.8 1.3-1.8 4.6-1 4.1-.7.9h-1.1l-2.8-2.1-.3-2.2.8-7.2-.5-2.2-.9-1.6v-.7l-.8-.6-.3-1.2v-.5l-.2-.6-1-.1-.3-.9-.4.3-.6-.9-1.3-.1-.1-.4-1.1.4-.6-.4-.2.6h-.4l-.2-1 .3-.5-.5-1-.2.2-.4-.5.2-.6-.3.1-.5-.8-.3.3.3-.6-.7-1.4.1-1.4H420.1v50.3l2.4 1.3.8-.6h2l1.7 1h2l2.4 1.4 1.5 1.4.2.7-.4.7.4 1-.8 1.3v1.8l-1.8 1.3-.6-.3-.4.7-1.7-1.5-1.2-.1-.8-1.2-.5.2-2.3-1.3-1.3-1.6 1.2-.2-.4-1.1-2.5-1.7v19l2.8-.5.2-1 .8-1.1-.7-1.2-.8-.3.4-2 .7-.3.6-1.2 1.3.3.7.7-.3 1 .4.5 1.9.9 1-.5-.3 2.6.8 1.2-.1.4.6.4v.6l.3-.3-.3-.6.4.5-.1.3-.5.2-2.8-.7-.7.6-1.7-1-.9 1.4 1.8 2.6 1 .7.8 2.4-.1-.5.3.2.2 2.4 1.1 1.5.5.9-1.3-1.9 1.5 4v2.3l.6-.4-.4-1.3.5 1-.1.7-1.4 1.3-1.7.4-1.4-.2-.3.6-1.6.3 2-.4-1.5.6-4-.8v28.6l1.9 3.4 3.9 3.5.4 1.2.9.8 3 .8 1.3 1.2 1.1.1 1.6-.5 2.8-2.6 1.9-.3 4.6 2.8 1.4 2.3.8 10.8 1.5 6.6 2.5 6 2.8 4.5-.4 1.8-.6.8-1.7.5-1.4-.1-1-2.5-2.2-2.1-.6-.1-1.3.7v.4l-1-.2-.4.4-.7 1-2.4-.1-1.1.7v1.3l-.4 1 .4 2-.3.5-4.5-.5-2.4.5-1.5 2-.9 3.6-.4 5-1 3.3-2.4 4.6-2 1.5-1.8 3-.6.3zm151.4 27.5l-.5-.4h.8l.2-.3v.2zm-109.7-57.6h.9l.5-.8-1-.4.1-1.6 1-.3 1.2.7-.3.4-.7-.3-.3.3.5 1-.3.5.8.6-.6 1.7-.5.6h-.6l.3.3-.4.4-.6-.2zM459 463l-.3.4-.8-1.2h-.6l-.2-.6h.3v-.6l.6 1 .9-.3.5.6zm200.6 44l.8-.4.7.7-.4.2-.4-.7-1 .6-1.7-.5 1.6.4zm8.7-8.7l-.5-.3-.5-.9 1.8.3-.5.1.4.5-.6-.2zM560.6 351.9l1.7 1 2.3-.3 1.4.5 1.5 1 .8 2.1v2.4l-.5 1.9-3.6 4-2-.3-1.5-1.4-1.9-3-1.5-3.6-1.3-5 1-2.2v-3.6l-.8-1.1.8.4 1.7 2.5v1l.5 1.1-.1 1.7zM492 309l2.9 1.3 1.1.7h-2.2l-3.3-1.8zm41-23l-.4-.6.8-.3.1.1zm13 35.4l-1.4-.6-.2-.8 1.4-3 1-1 .4-3.2.8-.5.3 2-.9 1.1.6.8-1 .5.9.3.1.6-.5-.4-.7.5v.6h-.6l.4 2.3zm-1.4 6.8l-.6-.3-.4-1.4 1-1.5.4.3.4-.4.2 2.3zm-.2 5.7l-.8-.6.3-2.1 1 .1v-.3l1.1-.3-.5.6-.2 1.5zm10.7 5.2v-.3l.4-.1.5-2.7-1.4-11.3.7.6 1.5 9.9-.5 3.7zm-.1 0"/><path d="M420.1 279h111.4l-.5-.2v-.5l-.6.2v-.6l.6.1.2-.5-.8-.5-1.2.4-.2-.7h.6l-.7-.8h-.7l.5.1-.6.6-.4-1 .5-1.2-1.3-.5.1-.7h-.4l-.4 1.6-.9.5v.4l-.7.3v-.6l-.8-.3.7-.3-1.2.2-1.1-.8-1.2.3-1.4-.3-.3.4-.6-.7-1.4.2-.5 1.3-1-1.2.2 1-.7.3-.3-1h-1v.3l-1.6-.8-.9.6-2-.6-.7.7-.7.1-.2.9-.5-.5-.1.4-1.3-.2.3.5-.8-.4-.2.4v-.4l-1-.3-3 1.1-.9-.7-.8-1.3-.6.3-.4-1.2-1.5-.5-.3-1.5-.6-.4-1 .3-.7-1.3v-1.7l-.3-.3.6-.2v-1.2h.5l1.5-1.8.4-1.6.9-.3-.7-1.2.4-.3 1 .3.4-1 1.1.7 1.2-1.4-.6-1 1.3-.6.3-.6h.5l-.7-1.4h.3l-.2-1.6.6-.6.8.3.7-.8.4.3 1.1-2.8.8.2-.3 1 .2 1.1h.3l.6 1.2 1 .7 1-.4.1-1.4.9-.6.3.7 1.3-1.6.8.3 2.4 3.3 2.6.3.8 1.3.7-.1 1.4 1.2 2.1 1h.9l.1-.5 1.3.5.5-.2-.8-.6-.5.4-.5-.7.7-.3-.4-.5.7.2.2-.7.8-.1 1 .1.5.8-.6.8.2.2-.6.4 1-.2.9.4 1.1 1.2 1.3.5-.2.5.7 1.8-.6 1 .6-.4v.4l-1.6 1-.5 1.2 2 4.9 2.8 2.2 1 1.7-.1-1.4 1.6.5v-.5l.3.2.9-2.3h.3l-.9-2.4.8-.1-.5-.4-.1-1.3-1.3.5-.7-1.2-.7-.2-.2-2.5-.3-.3.5-.3.1-1.6 4.9.7 4.4 1.4 1.7-.2-.1-.5h-.9v-.3h-1.3l-2.6-1.4-1.4.1-.9-.6-1.3.4-1.3-1.2-1.2.5-.7-.9-1.9.2.3-.8h-.8l.2-.8-.4-.3.6.1v-.5l-1-.8-.3.5-.4-.6-.8.3-1.1-1.4-1-.7.3-2.6-2.2-4.5.3-3.5 1.7-4.2 4.8-2.5 1.5-.2 1.2 1.3h1.4l4.8-2.5.8 4.4-1 3.4.4.4.7-.5v1h.5l.6-.3.1.3 1.9-4 1.5-1.6.1-.9.3.3 1.6-1.3h1l.9-.6 1.8-.6 2.5.9 2.8-.6-.3.8.6 2 1-.1-.3.6.4.6h1l.5.5 1.5 5.7.9 1 .5-.3 1 1.4.8-.5-.6.6-1.8.1-.6.5.4.6-.9 2.7v1.4l-1.1 1.5-.2 1.7 1 .6v1.3l.5-.4.6-2 .8-.2.4-1.4-.3-.9 1.1-1.9 1-.6 4.6-.8 2 2.3 1.2.5 3 .5.3 1.1.4 3.3.9.5.4.6.6-.2.4-1.1 1.8-2.1.8-1.4h.5v-.4l-.8-.5.3-.8.5-.2.7 1.1 1 .5 2.9-.5 3.9-4 1.4-3.8 1.1.2 2.2 3.7.9.3.4-2 .7-1 .3.4.5-.4.5.3.5-.6-.8-7.5 1.3-.7 1 .2.2-.7.4 1 .5-.2.6 1 .7-.1-.1-.7h.4l.5-.3-.8-.5.4-1 1 .4-.5-.9v-.7l.7.3-.2-.7.4.2v-1h.7l1.1-.5.6-.8.1-.7.8-.2-1-.1-1.5 1.9-1.3-.4-.3-.7 1 .5 1.2-.7 1.2-2.1.2-.5.2.5h1v.3h-.9v.9h1.4l.8-.8.3 1.3 1 .3.1-1.4.2.7 2.3 1 .1-1.3.3.9 1.8 2.1h.8l.2-.5 1.7 3.5.8.3.1-.3h-.5l-.1-.3h1l.1.5h1.4l.5-1.5-.6-1.1h-.3l.2-.3h-.4v-.7l-.5.2-.2-.5 2.2-.5.3.2.7-.6.7.3.8-.5 2.4.6 2 1.3 1.1 1.9h.5l1.5 5.2.8.4.2 1.4 1.4 2-.9 1.7 1.2 1.4-.1 1.2-.6.1-.3-1-.4-.4-.8.8.8 4.6 1.8 1.2h.9v-.6l-1.7-1 1-2.3 2 1.8v1.5l.9 1.1 1.1-.1.3-1h1.4l.2 2.1-.5-.2-.3.7.8 1.5-.6.2-.3 1.6.3 1.1h.3l.3.2-.6-.2.4 1.4h-.3l-.4.4-.8 2.5-1.5 1.3-1 2.4-1 2 .4-1.5.6-.7-1.6-.7-.6 1.3-.4-.4.1.7-1.1.6-.8 1v1l-.9.7-1.1-.2-1.7 2.8h-.7l-.5 1h-.7l-.4.4h71.6v-77.4l-2.3 1-.9 1.6-.5 2.5-.9 1 .2.4-.6 1.9.5 2.5h-1l-3.5-1.1-1.3-1.4-1.2-.2h-.7l-1.5 1h-1.3l-1-.7-3.4.3-1 .2-1.5 1.2-.3-.3-1.2.5h-3l-3 .6-1.5-.3-3.3.3-3.5-1-2.2 1.1-.6-.5.4-.4-.8.4-.9-.9-.4.3-.6-.6-.6.4v.4l-4.8-1v.5l-2 .2-1.8 1-2-1.3-.2.4-2.4-.2-1.6-.6-1.3-1-.7-.2-.5.6-1-.2v.3l-.5-.3-.5.6-2.5-1.1-2.6 1-.9-.1v.5h-2.1L627 212l-.5-.4-2.5 1.6-.4.8-2.5.3-1.4 2.4-.3-.3-2.4 1.6-.7 2-.4-.2.3-.6-1-.2v.7l-.7.2-.2-.6h-.7l-.2.9-1.5.6.2.5-2.1-1.3h-1.7v.3l-.3-.1-1 .7-.6-.6.2-.8-1.2-.5-.9.3-.1-.6.3.3v-.6l-.2-1.6.5.8h.2l-.4-.6.6-.5-.7.2-.2-.5-.9-.2.4 1.3-.8.2.8.9-.4.9-1.7-1.3.5-.6v-1.1l-.5.1v-1.3l-.5-.6v-1.3l-1.7 2.3-1.1.8 1.4-4.3-.6-.2v1.2l-.4.2-.2-1-1.2-.4.9-1.7-.5-.3-1 .4-.3-.7.8-1.5-.5-.6-.7.6v.6l-.8-1.8v-4.2l-.9-1.8.4-1.7-.6-.5-.4-1-1-4.9-1.1 2.3.1-3.7-1.4 3.2.1-2.8-.8 2.3v-1.6l-1.1.7.3-2.1h-.5l-.3-1.2v-2.7l-.9-.1v1.5l-.4.2-.4-2 .3-2.5-.6-1.3-.7 1.3-.4-1.4-.9.4-1.7 3.5-1.2.7-.7 2.8-1.4 1-.6-.1-.2.4-.8-.4-1.4 1.2v-.7l-.8.2-1 1.3.3.5.8-.3-.1 1.3H574l-.5.5.1.7-1-.6-.4.7-.4-.2v-2l.2-.7.8-.8h1.4l.8-1.2-.1-1-1.4-.8-.5-1-1.8-.5-.6.6-.2-1.1-1 .5.6-.5-.2-1.2.5-1 .4-3.2 1.5-.4 1.3-1.6 1.4.6 2 .1 1.7 1.3.6 1.2 1.5-1 .5 2.7h.5l-.4.3.5.5 1-1.5h1l.5-1.2-.8-2.5.8-1.3-.5-2-.8.1.3-1.5-.9-.4.2.8h-.5l-.1.8.1.9h.5l-.6 1.4.1-.9h-.5l.2-1.2h-.5v-.6l.5-.1v-1.6l.2.6.4-.3-.6-1h-.6v-.3l-2.1-.7-.3.5-.3-.2-1 2-3.2-.6-.5-.5-.5.3.5.3-.8.5.2.5-.4.8-.8.1h-.4l-.8-1.9-.2 1 .9 1.6h.4l.4 1.9-1 .4h-1.5v-1l-.6-.2h-2l.4-.9-.3-.6-1.4 3-.8-.7.6-1.1h-1l-1.4-1.5h-.6l-.5.8-1.4-1.3h-1l-.3.4v-.6l-2.2.1-.5-1.1-1.8-.4-.9-1.4-1.4-.7v.7l.9.7-.6.7.4.9-.5-.2-.3.7.2.7-1.4.3-.4-1h-.5l-2 .1.7.4.2 1-.2 1.2H548l.2 1.1h.4l-.2.5-.3.3-1.4-.1v.5l-.7.4 1 .6-.9 1-.6-.7-1 1.3-.6.2v-.6l-1.2.5-1.7-1.8.3-.4-.5-.2v-.8h-.8l.1-.6-.4-1.1-.7.5-.7-.1.2-.4-.5.2v-.5l-2.1.2-1-.4v-.3l-1-.6-.3.6-2.6-.3.9-.7-.9-1.1-.8-.3.3-1.1-.3-1.1h-1l-.2-.4-.6-.2v-2.4l-.3-.3-.5.2.8-1.1-.4-.2-.2.2-.2-.5-.2.5-.4-.6-.5.9-1 .2v-.7h-.9l.5-.4v-.6h-1.7l.4.3h-.4l-.8-.1-.3-.6-.3.4.2-.6-1.2-.4-.5-.6.5-1-.3-.3-.3.9h-.4l.3-.2-.6-1.6-1.3-.2.2.4h-.4l-.3-.4-1 1v-.6l-1 1.7-1.4-1.7v.6l-.9-.3-.9.5-.5.8.1.7-.5-.2.2-.3-.2-.6-.8.9-2.2.3-.6-1.1-.5.5.4-1.6-.8-1-1.7-.5-1-1.3-1.5.2-.3-.5-.2.3h-.2l-.1-.6-2.6.4-.4.4-.3-.5h-.8l-.5.8.3.5-.4 1 .6.2-.5.7-1.2-.3-.6-1.4h-.4l-.3.7h-.5l-.2-.5-1.3 1.5-.2-2 .4-.1-.5-.2v-.4l.4-1.1-.3-.9.1-.2.2.4v-.9l-.5.3v-.4l-.7-.2 1-.4-.8-.1-.3-.7-.7.4-.4-1-.3 1-.4-.2-.3-1-.5.5.6.5-.7-.2-.3.8h-1.3l-.5.6-.5-1-1 .5v.7l-.4-.5-1.5.5v-.4l-.1.6.2.4-.5.2-.2-.2-.6.3-.2-.3-.4.4v-.4l-.7.4-1.1 1.8-1.1-.8.4-.4h-.5l-.8-.8-1-.2v.6l.4.4-1.3-.1v-.5l.7-.2-.3-.3-.7.7-.6-.3-2 .8 1.8-1.2h-.6l-.2-.6-1.7.5v-.4h-.2l.1-.6-.6.5v-.7l-.6.8-.8-.2 1.1-2 .5-.2v-.4l-1.2-.2.3-.8-.6.4-.3-.3.8-1.3-.7-.4 1-3.2-1.5.1-.2 1.1-.8.5-.6-.5-.4.9-1.5-2.2h-.5l1.2 2.3-1.3 1-.9 1 .2.5-.8.7v-.5l-.5.3v-1.6l-.7-.3-.4-1.1-1.4-.2.6-1.5-.8.8v.7l-1-.1.4.8-.9.2h.7v.6h-.8v-.6l-.4.3-.5-.3.6-.2-.5-.5 1.2.2-.2-.8-.6.1-.2-1-1 1.1-.5-.2-1.4.3.2-.5h.8l.6-.5-.2-.4-.5.7-.3-.4-.1.4-.3-.4-.8.4.5-1-1 .2-.5-.3-.1 1.1-.5.1-.2-.5.5-.2-.7-.1-.3-1 .8-.8-1 .5-.8-1.3.9 2.9-1.7.7-1-.3.7-.9-1.5.9v-.5h-.3l.1-.5-.5.1-.9-.8-.5.9-1.3.4h-.4l.2-.4-1 .3-1.6-.7.6 1.5-1-.5v-.4l-.6.6 1 .2H442l-.7-.6.2.7-1.4-.5-.2.2.5.3h-.4l-2.1-.9v-.4l-.5-.9-.5.2.5.5h-.4l1 1.3-.2.5-1.5-1.1v.5h-.6l-.7-1.1v.4l-1-.1-.1-.2v-.3l.4.1-.3-.6-1.1-.5.6.1-.3-.8-.7-.5v.7l-.4-.4-.1-.2.2-.2.3-.3h-1l.3.7-.9-.3-.3.7h-.9l.1-.6-.7.1.3-.7-.7.3.2-.4-1.2-.4-.5.3-.3-.6 1 .2v-.4h-1.6l-.5-1.4h-.6l.3.4-.2.7-1.8-.7v-.3l-.8.6-.9-.3.9 1.2-.9-.3-.4-.7h-.7l-.4-.5.2.8h-.4v14.3l3 2.1 2.9 1.2 2.2 4.3 3.8 3.1.2.3 1.2 1.5v1.1l-1.2.2-.7.8.7.3 1.2.5-.6.8.2.6-.5.8h.3l-.6.6-1.2 1 .2.8 1-.4.2-.1 3-4 .7-.3 1.8 1-.5-.7.4-2.7 1-.1 1.9 1.8h.9l.7-2.3.6-.3-.7-1-.2-1.7h1l-.1-1.1.5-.3.4.8 2.2-.4 1.7 1.1 2.6 3.4 1.6 1.5 1.6.6.8 1.8 4.9 5.1-.3 1 2.1 3v1.7l1.5 2v.8l-.8.4v1.6h.6l-.7 1 .7 1-.3.6 1 1v1.1l.7.9 1.1 1 .6 1.2 2.5 2 3.1 4.1 5 3.7 1.8 2.4 2 1.5.5 1.5 1.4 1.4.8 2h.4l2.8 2.8.3 1.8 1 1.6h.6l-.4.4.7 1 3.1 2.6.6 1.7-.3.5 1.9.6 1.2 3.6 1.2.6 1.1 1.7 1 .6.3 2.3 1.4 1.5.4 2.7.4.6h1l-.8 3-1.4 1.2-2.1 3.8-2.3 1.6.7 1-.5.7-1.2.7-3.6.4-1.1.6-2.7.4-.9.6.5 1-1.3-.1-1 .5h-1.2l-1-.8.6-.8-.5-.5 1.4-.8.1-.9-.6-1.5-2.1-1.1-2.4-1-.2-.3-.5.3-5.7-4.1-1.7-2.5-.9-1.9-1.3-1.2h-.7l-.3-.7h-.5v-.6h-1l.6-.5 1.3-.3.1-1.1-.6-.8h-.4l.3-1.3-1.7-1-.4-1h-.9l.3-.5-1-.4.3-.8h.8l-.7-.9-1.2-.1 1.2-.5v-.4l-.7-.6h-.8l.7-.4-1-.5.4-.7-1-1.2-1.9-1-.5.3-.5-1-1 .4-.9-.5-1.3-.2v-.4l.5-.2-.7-.7-3 .4v-.8l-1.3-.3v-.6l-1.2-1.7-2.8-.7v-.4l2.3.2.2-.3-2-1.5-2.2-2.6.7-1.5-.2-.8h.7V215l-6.2-1.9-1.6.1-1.1-.2-.7-1.2 1.2-2.4-1.8-2.4v-1.2l-.4.7-.6.3-1-1.4-1.1-.4-.1.7-.4-.3.4-.9h1.9l-1.8-.9-.3-.2.3-.9.4-1-.3-.5-.1.2-.9 1.2-.1 1.4-1.7.1-.2-.3 1.4-1.7.2-1.9-2.9.5-.4-.8.1-1.6-.6.2-1.1 1.6-.5-1.5.4-.6-.3-.5h-1l.5 1.6-1.2-1.4.8 2.2-.5.1-.7-1.5-.5.4.6.3-.3 1.1h-1.7l1.1.9h-.8l-.3.3-.7-1 .7-1-.6-1-.9.3zm223-26h-.2l.6-2.4h1.3l.4.6-1.6.5zm6.1-4l.8.4v1l-1-.6-1 .2.1-.6-1 1-1.3.3-.9-.2.2-.5.6.6 1.5-.7-.7-.3-1 .5-.3-.3v-.7l-.4.1.2-.4-.8-.2-.8.4.2-.8-.5.4.4-.8-.3-.1.2-1.2-.4-2.8 1-.4 1.1.4.2.8 2.1 1.7v.5l1.3.9zm-153.9 16.5v-.5h.6v.3zm36.5-2.8h.8l-.3.6-.5.3-.4-.6zm111.6-6.7h-.6l.1-1.2 1.2-.2.1 1zm-22.5-18.9l-.9-.9.2-.2h.5zm-17.5.8l-.2-.3.5-.7.2.7zm-97.2 12.7l.1-.9 1.3.4.3.7-.3.2zm24 7.7l.7-.3v1.3l-.7-.5zm-73.9-25l.5-.2v.5l-.8.2zm47.4 9.1l1.4-1 1.1-.1 1.5.2 1.1 1-1.5 1.1h-1.1l-1.7-.6v-.5zm98.9-4.4v-2h.3l.3.4zm.7-4l-.8 2.1h-.7l.5-1.4.5-.2.3-.8zm-180.2-87.8l1 .2.2.5h-.8zM601.5 221l-.2.2.6-2.4.2 1.6.5.3-.1 1.1-.4.2v-1zm-165-3.6l.3-.7.8.9-.8-.6.2.7zm160.7-2.4v-.7l.8-.3.3.6zm-158.9 3.6l.4-.5.6.7-.9.2zm2.5 1.8l-.3-.6 1.2.4v1zm1.1-.6l.4-1-.2-.5.8.4.3 1.3zm-11.5-10h-.6l-.2.5-.3-.9-.6.1-.1-.9-1.6.2-.3-.5V207l.9-1.5.4-.3 2.3.6v-1l.3.3.2-.4.3 1 .7.1.6.7.3-.4.3.7 1 .5.3.8-.3.9.3.6-.8-.8-.3.5.3.7h.5l.6 1-.2-1.4h.4l.5 2.8h-.6l-.5.9-1.2-.9-.7.6.3-.7-.4-1h-.9l-.4.3v-.6l.2-.3zm153-8.2v-.9l-1.8-.7h-.6l-.3 1.2-.7-.6-.1-.2.9-.1.2-.8-.4-.7h.4v-.7l-.2-.9h-.8l.6-.4.6-2.3 2.5-.7v.4l1.3.4.4 1 .7.1.2 1.1h.3l.8 1.4-.4 1.3h-1l-1 1.4-1.4.1zm-11.4-5.1l-.3.5-2 1.1h-.6l-.3-.6zm6 1.4l-.5-2.2 1.3-.3.7 1.6-.6.5.1.3-.8-.5zm-1.4-1.7l-.2-.7.6-.1v.8zm3.5-4.1l-.3-.5.5-.4v.7zm2.7-12.1v-.7l.5-.8-.2 1.3zm-.9 3.4l.3-1.8h.3v.8zM569 185v.5h.7l-.5 1 .2 2.2-.9-.4-1 1.5-.6-.2-.2-.6h-1.3l-.2-.3-.5.2.1.3-.5-.2-1.5-1.8-.5-1.5-.7-.3.5-.6v-.5l-.7.2v-.2l.7-.6-.6-.2 1-.8h-.8l-.7-1.7.3-.3 1.7 1 2-.3.9 1.9 1.9-.8h1.2zm-9.3-4.6l.3-.4.5.4-.7 1.1-.5-.7zm21.6-.9l-.5 2-.5.3.4-.4zm-96.3.8l1-1.4 2.3-.5-.3 2.5-1.1 1.2v-.3l-1.7.1zm71-.5l-.2-.2.3-.8.5.2zm7.6-.2l-.3-.5v-.1l.7.1zm15-4.1l-.5-.7.4-.3.4.5zm-.1.5l.6-.2.5.7-.4.2zm-2.5 0l.2-.5h1.4l.8.5zm2.9-1.6v-.6l.3-.5v1zm0 0"/><path d="M420.2 146.5l-.8-.1.6-.2-.4-.4h.4v-.5l-1.7.7-1.6-1.1.3.3-.8.2-1.2-.4-.2-.4h-1.4l-.5-.3.4-.1-.3-.4-1-.1v.3l-.4-.5.4-.2-1.5-.3-1.3-.9-.2.9-1.4-1.2.1-.4-.6-.2v.6l-.6-.3.6-.8-1.5-.2.7-1-1.3 1.1-.8-.2v-1.2l-.3-.5h.9l1-1-2 .5-.2-.4-.6.8 1 .4-.3 1.5.9.2.1.5.8-.1v.5l-.8-.3-.7 1.2-1-2-.5.2.6-.5-.9-.4-.2.5h.4l.1.8-.5.4.5.8-.5.3-.5-.5-.6.5.4 1-.6-.5-.2.4.6.5.3 1.4.9.6.4-.4.2.2-.9 3 1.3-.2-.2.4 1 .5h.3l-.4-.6h.4l.6.3-.5.3 1 .7-.3.7h-.6l-.4-.3v.4l-.8-.2.4.8-.1.4.2-.2.6 1 1.5.9-.2 2.7.4 1 .4.1h3.4l4.8 1.9.7.6 2.5-.7 2.2 1.5zm-.1 51.4l.3-.4-.4-.3zm0 0"/><path d="M141.1 222l2.9 1.5v-.2l1.2.1.2-.4 1.9.3 1.7 1 .2.9-.5.3-.1-.5h-.7l-.4.5v.9l2.5 2.4v.9l-.5.3 3.9 2 .6-.2-3.2-2 5.3 1.5 1 .2.9-.5-2-1h-1l-1.2-.6-1-1.4v-1l7.2 4.2.7-.2 2.7.8 1.2 1h1.7l2.1 1.8v.6l-.4.2 1.2 1.4v1.4l.5.3-3.3-.1-1.2.8 2.3 1.7 1.8.5-1.4.2.7 1.4 3.7 1.2.1.5 1.5.5v.5l2.4 1.3.5.8-2-1-.5.7.4.5-2.4-.2-.2.6 8.3 2.2 2.3 1.3-.1.5 9.6 2.9 4.2 1.7 1.5 1.2 2.9 1.3.8 1.2 3.2 1.9L215 267l1.8 1.5 4.3.9 2.4 1.6 1.2-1.4v-.7l2.9 1.3h1l1.5 1.5 1.1.3.4.8.3.6 6.5 3.6 4.6 2h1l.3-.3-2.8-2.3-2.7-.6-.6-.9-1.6.1-3.6-2.8-1.4-.2-.4-.8h.8l-.4-.6-.3-.4h1l-.3-.7 2.1 1.2-.4-.7h.3l2.8 2.3 3 .5 1 1.1.3-.1-3.1-3.3 3.8.9v.4l1.2-.2.2.5 2.3.9.9-.3-1-.6.6-.7 2.5 1.6-1.7-1.9.9.2-.4-.6h.3l1.1.5-.2-.6-1.2-.2-.5-.6v-1l.7.2-.2-1 .5-.3-.4-.8 1 .2-.2-1.1 1 1-.2-1 1-1.3h3l4.5.6 3.7 1.5 2.6.5.3.7 2.4 1h.5l.5-.7.9.4.3-.8h1.3l4.2.9.5-.4 2.3.6 4 1.8-1-1.5.3-.3 1.7.6 3.4-.3 2.7.5-2.6-1.2-3.2-.2-.6-1 .2-1h2l.5 1.4 1-.5 7 2.3h.6l.3-.6 1.7.6-2.1 1 14.5.6 6.2.9-1.3-.8.4-.1 2 .5.3.9 1 .4 1.6.3-.9-.8.3-.4-1.6-1.4.6-.1-6-4.6h.7l-1-.7-.2-1 7 1.7 4.2.1 2.7.9-.5 1.5h-.6l1.7 1.2-2.8-.6-.5.2.3.8.8.9-.2.3 1.3.3v.7l1.8.9 2.1 1.8.2 1.2-2-.2 2.7 1.2v.6l-.3-.2-.6.4 3.7 1h9.5-.3 2.8l-.2-.2h1.2l.4.2h17.5l1.2-.3h1.8l-.2.3h56v-80.5h-.4l.2 1.5h-.4l.1-2.4.4.4.1-.3v-.4l-.6-.6-.3 1.3-.7-.3.4 1.7-.5-1.2-.7.3-.4-1-.6-.2.4-.3-.3-1h1.1l-.5-1-.9.3-.2.5-.8-.5h-1.5v-.7l.9-.2.2-1.5 1-.2-.6-1v-1.5l.4-.2.4-1.2 1.3-.3 1.4-1.5-.3-.8-.6-.1-.2.6-.7-.2-.4.5-2.3-.3-1 1.1-1.3-.6-.6.8.6.4-.3.4 1-.2-.2.5h-1.3l-1-1.1-.7.4-1.9-.4-2.4-1h-4.1l-.4-.6h1v-1l-1 .2-1.6-.3.3.4h-.7l-.2-1.2-1-.5.2-.4h.7l.6-1.3h-2.7l.4-.9-.8.4-.5-.1.3-1h-.7l.5-.5v-.8l-1.5-1 .5-.8-.5-.9-1.3.3.3 1-.6.3-.1-2.8-.7.5-.4-1.3-.3.6-.6-.7h-.7l-.1-.9-1-1.3-.2.8-.6-.2-.2.4-.4-1.5-1.3-.9-.9-1.3.2-1.1-.8.2-.7-.6-.3.3.3.7h-.3l-.6-.9h-.4l.1-.3.6.3-.3-.7-1.8-.8 1.3-.2-.4-.8-1-.5-.6-.7.3 1-.5-.1-.8-1.1v-.7l.7-.3-.2-.6.5-.2-.1-1 .6-1.1 1.4-.7-.4-.9-.3-.2-1.7 1h-2l-1.3-1.7v-.4l-.7-.2.2-2-2.5-.8-.9-.8-.3-1.1-.6.2v.7l-.5-.3-.6-1.9-.8-.6v-1.1l-1.2.6-.7-1.9-1.1-.6-.2-1.3-.4-.1-.7.8-1-.2-.7-2-1.7.2-.7-.5h-1l-.3-.5.3-.7-2.2-.2-2-2.3-.6-.1-.1.5-.2-.7h-.6l-.2-.5.3.4-.1-.8h.4l-1.2-.6.1-1 1.3-2.2h.7v-.8l-1.7-.2-1.5.3-1.6 3-1 .5-2.1-1.3-.5-.7h-1l-.4-.8-4.2-2.5-2-2-3.5-1.7-.1-.6-1.2-.2-2-1.3-1 .4-.9-.7-2.1-.1-3.7-1.7-1-1.2-1.8.3-1.2-.4-1.1-1.3-1-.2-.9-1.5-1.3-.4-1.2-2.6-2-.5-.3-.6-1.3-.7.2-.7-2.1-.5-.1-.8-.8-.4.2-.8-.4-.7-1 .8-1.2.3-3.8-2.6.5-2.1-.1-3 1-1.1v-.7l1.6-1.2-3.2 2.5.2.5-.7.6-.1 2.7-1 .9-3.4-2.4-4.3-2-2.4-1.6-1.9-1.9-2.2-3.2-6.1-7-.3-.6-3.4-2.5-.6-.2-1.5.6-.5-.4-.1-1-.3.7-.8-.4.6.7-1.4-.3-1.2-.7 1 1 1.6.5.4 1h.5l-.5.3.5.7 1.5 1 4 3.5.2 1 4.8 6.6 8 7 1 .8v.8l1.4 1.4v.4l-.2 1.3-1.5.3-.5.5.2.5.8-.1 1 1 2.2.3.8.2.8-.5h1.5l3.7 2.6 5.8 1.5.5.8 5.1 2.8.7.9 3.3 2.1 3.2 1.6 5.8 2 3.4 2 .9 1.2 3 1.3 1.9 2 2 1.2.5 1v1.5l.8.7 1.5.1 3.7 2.4 3.3.8 1.4 1.1 2.6 2.9 1.8 3.2 3.4 4.1 1-.3 1.4.3v.5l1.3.2v.5l.7-.5.7.8.8-.1.6.7.1-.3 2.4 1-1.1.6.3.3-.4.5.8.3.4.8-1 .4-.2 1.3 1.8-.4.6-.3v-.6l.5.8 1.2.2 1.9 2-.1 1 .8.8 1 2.8 1.4.7-.7.1.2.4 1.3 1 .9 1.5-.5.4 1 .9-.8.4.4 2.1.7.8 1.3.6.7 1.4.5-.3-.3.4 1 1.3.3 1.2 1 .5.6 1.5 2.7 1.4 2.8-.4 1.8 1 1.7.3.8.7 1.2-.1 1.8 1.4.3-.2 1.6 1.9.6-.3 3 2.6 1.1.4.3 2.7.9 1v.8h-.9l-.4.7-.3-.2-.3-1-.7-.7.4 1.2H401l-.8.5-.2.8-.6.4-1-.3v.4l.2-.2.5.2h-.4v.3l-.9-.3 1.8 1 .5 1.3v2.2l-.6.5-.2-1-.1.9-.4.1.2.7h-1v.5l.3-.2-.1.5-2.3 1-.2.7 1.2.3 1.1-1 .3.8-.3.6.3.2 1.1-1.6.2 3.6.6-1.6v-.9l.2.4.3.6-.4.4.7 1.7-.8 1-.2-.4-.6.2-.4 1 .4.8.3-.8.3.2.6 2.5h-.7l-.3-1.1-.3.4-.3-.2-1 .3.2-2.3-.5-.3.3-.3v-.6l-.3-.5-1.2 1.4.3-1.7-1-.8-.4-2.4-.4-.6-.8.6-1 2-.2 1.9-.5-.1-.7-2-.8.2-1-.6-.3.3.4.6-.3.5.7.7-.7-.5v.4l.8 1.8-.6.2 1.2.8-.2.2.5.6-.2 2.4h.5l-.2 1.4.4.4-.5.2.1.5-1-.1-.2.5-1.2-.3-.7-1.2-.5.7.1 1.3h-1l.4.5-1.1-.2-.6-1.2-1.2.2.2.5-1.1.8.3.5-1.3-.6h-1.4l-1.3 2v-4.5l-1.4-.6-.2-.4h-.9V217l-.9-.5-1.2-1.7.5.3.7-.4-1.2-.5-1.6-1.7-.2.9-.6.1-.4-.4-.6.3.6.8 1.4.3.2 1-1.3-.3-.4-.5.5.1v-.3l-.6-.5-.7.3.4.5-.8.2-.9 2.2 1.1.4-.2 1.3-.5.3.4.4h-.5l-.5-.6-1 .2-.2-.5-.5.3-.7 1.3.1.8.7-.3.6.9-.2.6.5-.3.2.5-1.7-.3.3.6h.8l.1.2-1.5 1.1h-.3v-.5h-.8l-.2.7.2-.2.6.5-1 .5-.6 2.6-1.3.3-.8-1.3-1.3-.4v.4h.5l-.7.3-.7-1.4-.4.3-.5-.4.1 1 1.9 1.2-.4 1 2 1-1.2 5.6.7 3h-.5l.8 1v1.3h-.5l-.4-.5-1.6-.9-.3-.6.3-.5-.7-.9v2.5l-1.5-.7-.3-1.1-.7 1.9-.7-2.6-.1 1.2-1.3-.5.3.5-.2 1.4h-.6l-.7-2.3-.6.2-1.1-.7-.3-.6h.6l.2-.5-1.3-1.3.1-.6-.4-.4-.8.2-.5-.8-.4.1.2.3-.6 1 .8 1.1-.7 1.1-1-.3.5-1.5-1.3-.5v1.1l.8-.2-.2.8h-.6l.5.8h-.8l.5.2-.7 1.1h.6l-.8.2-.5-1.4h.5l.5-.7-.8.6.1-.4-.3-.3.7-.5.4.4v-.4l-1.1-.4 1-.3-.7-.4-1.3-2.8h.8l-.1-.5 1-.7-.5-1 .5-.4h1v.4h-.5l.2.8-.4.2.7.5-.3.5h.7l-.1-1.8 1.2-.6.6 2.2-.1 1.7 1-.2v-.3h-.5v-2.1l-.8-1.7h.6v-.4l1.6.3-.1-.4-2.2-.5-.3.7-1.2-.6-.8.5-1.5-.2v.6l-1-.1-.1.6h-1.1l.3.6-1 .7-.3-1 .7-.7-.8-.2-.1-.6h2l-.1-.5-1.1-.1 1.3-2-.4-.1.2-.7 1.5.1-.3.7h1.4l-.4-.6.7-.5h1.1l.2.7h.6l-.3.3.5.5.7-.9h1l.6 1-.7.9.4.8.9.6V227h.7l1.2 2.4v-.5l.4.3.2-.2-.3-1-.9-.6.3-.2-.5-.7 1.2.5.8-.1.3.8.2-.7 3 .7-1.5-1.2-3.6-1.4-.4-1.7h-.5l-.2 1.1-1.1-.7v-.9h-1l-.8-.9-1 .2-1.1-1.7 1.2-1.6h-1l.5-.1v-.7l-.7-.1-1.3-2.2v.6l-.7.2 1 .7v1.1l-1.8.6-1-.3-.5.5-3-1-2.7-1.8v.6l-.7-.2 2.2 2 .3.6-.5.3-1.8-.7-.3.2-.4-1 .3-1.2-1.3-1.9.1 1.1-1.4-.8-.3 1h1.6l.4 1.3-.7.3h.7l-.5.4 1 .3-.1.5h-.9l-.3-1-1-1.1.6 2-.2.6.6.3h-.5l.3.7-2-.4-1.5-1.2-.3.9-.7.2.7 1.1.9-.3 2.3.9.3.3-.2.6h1l.1 1-1.8.2-1-.7-2.6-.6-.2-.7.6.2.1-.6-1-.3v-1h.4l-1.1-1.2-.6-.1-.5.5v.7l-.7.5-1-1.5.3-.2.2.4v-.5l-.8-.8-.8.1-8.7-3.7-1.4-1.5-2.5-.1-.8-1.2h1.1l-.3-.5.8-2.4-1.8-.3v.8h-.2l-.8-.5-.4-1 .7-.5 1 .2v.5l.2-.4.7.2 3 1.7-.9-.7.5-.9h-1.5l-1-1.3-2.1-1.3-1.2-1.8-1-.5-1-1.6-.5-.4-.4-1.2h-.9l-2.8-2.8.3 1.7-.6.3v.5l.3.8 1 .9-1.2-.7-1.6.5 2.6 4-2.2-1.2-3-2.8-.3-1.2-1.1-.5-1.6-2.2-2-1.2-2-2.4-1.5-.5-2.2.7-3.6-.2-.7-1.2 3.2-1 .4-.5-.4-.9-2-1.3-2.2-2.2-3-1-.2-.4h.5v-.4l-1.5-1-1.1-1.6-.3.3-1.8-.3-1.2-.9.3-.4-.7-.2-.3.5-.9.2-1.3-.1-.2-.8.5-.4 2.9.2 4.5.9-.2-.4h-1.3l-1.5-.9h.5l1.3.5h1.3v.5l1.5-.1-.1.3.5-.2.7.4 1.1-.1.7.3.4-.5-.7-.5-2.4-.1-.6-.6-.4.4-.9-.8h-.3l.2.6h-.3l-.1-.8-1.9-.5-.2.3v-.6l-1.7.1-.8-.6-1.7-.3-.5-.4.2-.6 1-.4-2-1h-4l.2.4 1.5.7h-2.2l-.7 1.2-1-.3-2.1.4-2.1-.9 1.2-1.9h-3.4l-1.4.9h-1.2l-.6.7h-1l-.2.7-.6.4-.4 1h-.5l.9.7v.4l-.4-.4-.3.7-.4-.2.7-.5-.5-.4-2.2.4-.5.8h-.5l.4-2-.7-.5.4-.3.6.4.4-1.7 2-2.5-1.2-.3-1 .5-.1.9-.7.2-1.1 1.7-.6-.2-.3.8.3-.6.4.3-1.3 1.7-1 2.8-2.8 3.4-1.3.9-1-.5.8-.8-.5.2-1.1-1-.9-.2-2.3 1.2-1.4 1.2-4.2.9-2.1 1.7-.6-.3-.3.5-3.4.7-3 1.5-5.6.9-2.3.9-9.2-.4-5.6-.8-.4-.3-.9.3-2-.7-2.2.4-.5-.9-2-.5-2.4-.3-1-.4-2.6.2.2-.8-.2-.5-.9-.1-1.2.5-2.5-.4v-.5h-.9l.3-1-.5-.9H174v-.5l.5-.2-.6-.4-.2.6-.9-.4v.3h-.6l.6-.9v-.8l-.5.2.1-.3-.5-.3-.5.3.2.3.1-.4v.7h-.3l.5.4.4-.5-.6.7.6-.1v.4l-1.7-.8-.9.2-.7-.2v-.4.3l-.7-.3-1.7.5-.8-.3.2.6-.4-.4.2.5-.8.3-1-.4-.5-.7-1.5-.4h-1l-1.5 1-1.8-.1-2 .4-5.1-.4-1.6.6-5-1.4h-2.1l-.8-.5zm219.3 54l-.5-.2.3-.3 1 .3zm-43.5-3l-.9-.3-.7-.4h.5zm-13.5-4.4l-.6-.2v-.2l1.2.5zm-5.7 1.6l-.7-.4-1.1-2 2.8-.2 1.7 2.6zm3.9.1l-.9-.2-1.1-2.7 1.7 1.2.1-.6.6.5zm-63.6-1.7l-.7-.2-.8-1.8 2.2.9.3.7zm56 .1l-.4-.2v-.5l2.2 1-.8.4-.3-.6zm-75.6-18.4l-.4-.3-.5-.9h.3zm139-1.3l-.1-.3-.3.7-.6-.1-.4-.6.3-.7 1.3.5zm-6.2-.5h.5l.1 1-1-.3.5-.4-.5-.4zm-2.1.6v-.3l1.2.2-.7.5zm-13.8 5.4l-.3.8-1.2-.3-.3-.8v-.2l.8-.3-.6-.6.2-.3 1.1-.5-.4-.9 1.9.4.6.5-.1.7h-.5v.8l-.7-.2zm-1.9-3l-.3-.7h.4l.5 1zm1.6-.3v-.4h.9l.4.7zm3.2-.2l-.8.3-.1-.4-1 .7.7-.6-.7-.3-.1-.7.7-.2.1-1.5h2l1.5.5-.2 1.3-.3.1v-.5l-.4.2-.2-.9-.2 1.2zm-5.2.3l-1.8-1.2 1-.2-.2-1.3.8-.5-.4-1.4.5-.3.4 2 .4-.4.3.6v1l-.6.6-.5-.8zm1.6-2.9l1 .6-.3.4.7.6v.7l-1-1v-.4zm.3-1.4h1.3l1.2 1-.7-.7-.7.7-.7-.8v.8h-.8v-1zm3.5 0l1-.5.6.6-.6-.1.2.7-1.2-.2zm-26.7 11l-.6-1.3 1.5-.2.7.8-.3 1zm25.7-10.8l-1.3-.5-.5-.7h2l-.4.8zm-165.3-4.7l-1.1-.1-1.5-.6 1.3.2zm151.6-.3h.3v.5l-.5.1.5.5-1.8.6-1.1-.3-1.1-1.2 3.3-.7zm-72.4-60h-.7l.4-.8v-.2h.5l-.5.8.6-.6zm24 6.5l.7-.7h.6l.2-.7-.6-.3.2 1-.4-1-.5-.3-2.3-.3-.4.3.3-.5-1.1-.7-.3-.7.6-1 .9.2.2 1.2 5 .7 2 1 .8 2.5-.3 1.5-.4.1-2-.4h-1.7v-.6zm-1-4.3l-.3-.1-.2-.4 1 .1zm115.5 38.1l-.8-.1-.2-1 .4-.5zm6.9-8.7l.7-.1.3.4-1.3 2.4.2-1.7.4-.5zm-90.9-6l-.2-.3-.3-1 .7.5.2 1zm97.4-1.3l-.6-.3-1.5.2-.7-.9.3-.1-.1-1 1.1-1.4.8 1 1 .3.2-.3.3.3v.5l-.6-.4.2 1zm1.6-1.2l-.8-1v-.7l1 .4zm-17.8 21v-.7l.2-.3.2.8zm-45-4.4l-.5-.7h1.1l-.6.2.5.3zm-2.4-2l.8.3-.1.3-1 .2-.3-.7zm7 .5l-1.9-.2v-.2l2.5-.9.8.9zm26.4-.6h-1.1l-.3-.7.6-.3-.2-.3.4-.2 1.4.7h-.6l.4.5zm3.5-1.2l-.7-.3v-.7h-.6l-.6-1h-.8l.2 1.1-.7.1v.5l-.3-.5-1.2-.4v-.5l2.2-.9.4.6.6-.1 2 1.2zm-2.9 3.4l-1-.2v-.4l-1.6.4-.7-1.3h2.5l1.6 1zm-31.6-1.2l-1-.2-.2-.6 1-.2.3.6h.6zm-39.8 27.5L300 247l-.1-1.2h-1.1l-1.5-2.2h-.6l.2.6-.2.3h-1.2l-.2-.6-2-1.2.5 1.5-.8.1-4.5-3-.2-.5.9.3v-.3l1.3.1-.5.2.2.2 1.3-.3 1.2 1.2-1.1-2-.8-.4-.4.4.4.4-1.7-.4-1.1-.5v-.5l3.1.6-.1-.5.6.6v-.4l-1-.9 2.4.6.3-.5.6.5.7-.4v.5l1.4-.4-2.6-1.1.8-.4.3.6.5-.3.6-1-1.6.4h-2l-1.6-.8-.2-.9h1.2l-.2-.5h.4l1.4.3 1.5-.1.7.5-.4-1 1-.3 3.2.7-.4-.5.6.3 1-.5 1.2.7v-.5l1.4.4.7.9-1.4.1-.1-.3v.3l-.8.2.5-.3-.3-.4-1.2.8-.4-.2-.2 1 .7-.5 5.7-.5-.3-.4 1.2.6v-.6l.6.4v-.3l3.7.4 2 1 .5-.1.6.4.3-.4.9.3 1 1.6.9-.1-.4-1 .4.7 1.2.9-.3-1.4.4.4v-.4l1.7 1.8.8-.3 1.4.7.4 1.2-.5.3-3.3.3-2.2-.5 1.8.8.2.7 1.4 1-.4.2.3.5.3-.7.8.4-.8.3 1.6.1 2-.5-.2.7h.5l-.7.3.3.3-.7 1 1-.9.7.5.4-.8-.7-.7.7-.1.7.7 1.4.2 1 1.7-.4-1.6-.8-.6 1-.5 1.6.3.4.5.9-.1.4 2.5-.5.8.6.8-1 .3v.3l-.6-.1-.6-1.8-1.1-.7-.1-.3-2.2.8 2.2-.3.6 1v1.2l2.7 6.1-.6 1.2.6.5-.7.5 1 2.6-.8.4-1-.6.4-.7-.3-.5-.3.8h-.6l-.5.5-.2-.8-.4.3v1.4l.4 1.4-.7.2-4.2-3.3-.3.1.5.8h-.5v.5l-.5.4v-.4l-1.5-.9 1-.8-.7-.4h-.8l.4-1.1-1.7.5-1 1.3-3.5-1-.5-.2.3-.8 1.8.9v.4h1l.2-.3-1.7-1.1h-1v-.7l-.6-.3-.4-1.4 1-.8-.2-.5-4 1.3-1.1-.8-2.7.5-3.8-3.1 2-.2.8-.6 3.5.6 1.9-.4 2.8.2 1.6 1.3h4.4l.2-.7-.7.4h-2.5l-2.2-1.2h1-.5l.4-.5-2-.3-.6-.6-.4.6-1.3.2-.6-.4.2-.5h1l.3-1-1.9.9-2.2-.4v.6l-.4.2-.6-1h-.5l-.2.3.6.1-.3.6-2.3-.8-.8-.7v.5h-1.1zm54-5.2l-.6-.2v-2.8l.8.2-.4.3.4.4-.4 1.6zM354 241h.5v.6l-.5-.1zm-1.5-3.6l-1-.1.3-.4-.8-.5 1.4.6zm1 .5l.4.4v-.3l.8.9-1.5-.6zm-10.4 2.9l-1.1-.2-.6-.4h1.5zm3.8-1h.3l.3.9-.8-.3zm7.5.1v.4h-.5v-.7zm-7.4-1.1l.4-.3.6 1.2-.7-.4zm-140 13.6l1.1 1 2.5 1.3 3.8 2.9-.8.7.2 1.3.5.4-.4 1.2.4.9-4.2-2.7-.6-.7h-.5l-.6.6h-1l-5.2-3.5-4.2-1.6-3.1-2.4-.4-1-2.3-.3 1-.2v-.5l-2.6-1.7-2.2-3.6.3-.4 1 .3.3-.4-.6-1.1.2-1.7-1-1.7h.9l.3-1.1-.5-.6.7-.2.8-1.6-.5-3 2.5-1 3.7-.6.7-.6h.9l9.4 3.2 11 3 4.5 2.3 2.2 1.9.3.8-.8.4-5.3-.7-2-.7-.5.6 1.3 1.6-2 1.5.1 2h-.3l.5.9-.8-.6v.8l-1.1-.6-3.8-.7-4.6.9-1 2.3 1.2 1.2.2 1.2zm72-5.6l1.8.7.2.7-3.4-.1v.3h-.3l-.6-.3-1.4.7v1l-1.3.8 1 .3-.5.3.3.4-.7.2-1-.5-.1-.5-.6.3-.9-.1h-.4l-.3 1-.3-.5-1 1-2.3-.5-1.1.3-4.1-1.5-5.1-2.3-2.1-1.8-4.3-1.7-.3-.3h.8l-.2-.5h.8l-.1-.5-4.7-1.7 1.2-1 1 .5.5-.8h1l.7.9.8-.8 1.3.8 1.3.3.4-.3 2.8 1.2 1-.1 7.9 3 2.3 1.3.7-.1-.2-.6 4.3.5.2-.6.8.7v-.9h1l.3-.7zm55.7-9.9l.7.2-.4.4h.4l.4 1.4-1-.3zm-6 3.6v.3l1.6-.3.7.8-.9-.2-.6.5-.8-.7-.1.4-1.4-.2-.2-.5-1-.1-.4-.7-1.4-.8 4.1.6zm8.5.5l.2.3h-.6l-1-.7.5.2.3-.3-.3-.5h.7zm-85.9 0l-.6-.5-.5-.9v-.6zm-2.2-1.2l-1.1-.8.8-.6.6.6zm87.3-3.5h.5l-.3.5.3.2h-.7zm7-1.9l.2-1.3.7.1.2 1.3 1 .5-2-.2zm1.3 2.6l-1-1 .7-.8 1.1.2v1.6h1l.3-.7v1.3l-.8.4zm-7.5-1.2l-.7-.1-.6-.6 1 .2.3-.4zm-36.5-3.1l3.3-.7.7.4-.2.6h1.8l-.2.6.7.4.4-.6.3.8h-1.7l-1-.8-.6.7zm8.7-1.2l-.4-1.1 1.3.2 1.6-.6.9.4v-.4l1-.2.9.8-.7.4 1.2.2-1 .5.8.5 1.1-1.2.1.4 1 .1 1.4 2.7-.6.5 1.3.7v.3l-.9.5h-2.2l-.5-.4.5-.5h-1.4l-.4-.8-.4.4-2.8-.9-1.4-.9-.2-.8-.6-.2zm34 1.2l.5-.6h.5l-.1.9zm-43.6-1.6l.2-.1h1l.4.5-.8.1zm39.5.4l-.5-.3-.1-.6.8.4zm-1 3l-1.5-.9-.7 1.2H335l.4-1.3-.4-1h-1l.6-1 1.1-.6.5.1-.2.4 1.7.3.5 1-.6.8zm-4.5-3.3l-.2-1.2 1 .3v.5zm17.5-7.3h-.4v-.9l.8.4zm-19.5 3.5l.7.7-1.2-.7-.8-1.4 1.1.4-.2.4zm1.8.9l.2-.4.5.1v.4l.7.3.6-.3-.6-.7-1.9-.3-.5-.6.6-.3-.3-.9 1.9-.1.4.4-.3.2.7.7h1v.4l.8.3-.2 1.7 1.2 1.2-.4-.2-.1.5-1 .3-1.1-.2-2.1-1.8zm-16.3 2.5l.5-.6-2.8-2.6-.1-.9-2.4-1-.8-1.1.5-.4 2.4.8h2.2l.4-.5-3-.2-.9.3-.6-.8-1.9-.8h1.2v-.4l-2.8-1-1-1 .3-.5-.5-1 1.3-.2-1-.9h.7l-.7-.6v-.8h.8l.1-.6-.6-.4.3-.5-.3-.3h.9l1.5.9v-1l-.4-.5v-.8l.7.6.6-.2 1.6 2.2v.4l3.8-.1v.6l.7-.4.3.5h2l-.3.4 1-.2 2.5 1.3.8 1.2 1 .1 2 1.7.7 2.5-1.8-.7-1 .6-2.6-.5-.8.6h1l1.2 1-1.8-.5-.6.3-1.9-.5-1.7.1 2 .2.3.4 2.1-.1 1.3.5h2.8l1.3.6.2.7.8.3.3.4.8.1.1.9h1.3l1.6 1.3 1 3.3v1.3h-.3l.1.7h-.3l.6.3.3 2.4-.4 2.9.4-.2v.8l-4.6-1.9-2.9-.5-.8-.5.2-.5-.4-.2v-.3h.3l-.7-.8-.7.4.6.4-.4.4-1.7-.7-.2-.5.7-.5-.3-.2-1.4-.1.3 1-.4-.1-.9-.8-1.1-2-1.3-.3zm22.4-3.7l-.4-.2.2-.5-.8-1.4h2.1l.8 1.6-.2 1h-.9zm-14.8-2.1h-.4l-1-1 1.6.2.8.4zm20.1-1.6h-.8l-.4-.6 1-.1zm2.2-.7l-.4-.7-2.2-1.2h3.6l-.1 1h-.3l-.2.8zm-2.9-.7l-1.1-.4.2-.5-.4-.3 1.8.2-.2.6h-1zm0 0"/></g></svg>