<svg xmlns="http://www.w3.org/2000/svg" viewBox="0 0 497 279"  xmlns:v="https://vecta.io/nano"><path fill="#f2efe9" d="M0 0h497v279H0z"/><path fill="#aad3df" fill-rule="evenodd" d="M96.7 39.2v.2l.3.2h.2v.3h.1v.1l.2.2.1.2.2.1h.1l.1.2h.3l.3.3.2.2.2.1h.4l.6.1h.8l.4-.3.5-.1h.2l.3-.1.3-.1.2-.2h.3l.1-.1.2-.2.4-.1v-.1l.1-.1.2-.2v-.1h.2v-.3h.3v.6h.2v.3l.2-.3h-.2.3v-.6l-.2-.4h-.1l-.1-.2h-.2l-.2-.2h-.4l-.3-.2h-.6l.1-.2v-1h-.2V37h-.2v-.1l-.2-.3v-.2l-.2-.2V36l.3-.1v-.6h.1l.1.1h.6v-.2l-.3-.1v-.5h-.3v-.1h-.4v-.2h.7v-.2l.1-.1v-.1h-.2v-.1h-.1v-.2h-.4v-.4h-.7l-.2-.2v-.1h-.2v-.3h-.5v.3h.2v.2h-.2l-.3.3h-.2l-.1-.3h-.2V33h-.8v.2l-.2.1v.7l.3.2v.3l.1.2v.2h.4l.1.1h.4l.2-.2v.5l-.2.2v.3l-.1.2h-.8v.4h-.3l-.1.2v.4l.2.1v.1h.4V37h.1v.5l-.3.2-.2.1-.2.1h-.2v-.7l-.3-.2h-.7l-.3.3-.2.2-.3.3v.4l-.2.2v.3l-.2.3zm37.6 24.7h.1l.1.3h.1l.1.1.1.2v.2h.2v.3h.3l.1.2h.2l.2.1h.2V65h.2v-.3h1.3l.1-.1.1-.2h.3v-.3h.1V64l.2-.1v-.3l.2-.2h.5l.2-.1h.1l.2-.1.1-.2v-.4h-.3l-.3-.3v-.1l.4-.2.1-.2v-.6h-.5l-.1-.2h-.2v-.2h-.5l-.2-.1v-.3h-.8l-.2.3h-.4v.1h-.4v.1h-.7v.1h-.2l-.1.1v.1l-.2.4v.8h.5l-.3.2v.1l-.2.5v.3h-.3v.2l-.1.1zm-8 5.5v.3l.2.2.1.1h.2l.4-.2.2-.2.2-.3.1-.1v-.4l.1-.1v-.3l.4-.2V68l.1-.3v-.2h.7V67l.1-.2v-.3h.5l.3-.2.1-.1.3-.2h.7v.2h.2v-.7l.2-.1v-.2l.2-.2v-.2l.2-.2v-.3h-1l-.3.3-.1-.2-.4-.3-.3-.3h-.3l-.2.3-.2.3v.8l.4.2v.1l-.4.2-.1.3-.1-.1h-.5l-.3.2v.2l-.3.2v.7l-.3.2h-.2v.2l-.2.2h-.5l-.1.2v.2l.1.1.2.3.1.1v.3l-.4.1-.1.1zm18.2-4v.1l.4.1h.1v.2l.2.2v.2l.4.3v.3l.1.2h.1l.2.4h.2l.2.1.1.2.3.1h.2v-.2h.3V67l-.3-.1v-.3h.3v.3h.3v-.3l-.3-.1v-.2l.3.2.3.2h.1v-.4l-.2-.1V66h-.2l-.3-.3h-.4l-.2-.3h-.2l-.1-.3-.1-.1h-.7l-.2-.3-.2-.2-.2-.1h-.3l-.1.1v.6l-.2.2zm-22.5-8l.2.1.1.6.2.4v.1h.5v.8l.3.1.2.3.3.2h.4v-.3l.1-.3v-.3h-.2l-.1-.1-.2-.1v-.1l-.2-.2h-.2V58l-.4-.3v-.2h-.2V57h-.4l-.1.2zm4.6 12.6v.5l.3.2v.1l-.3.1v.4h.4v.5h.4l.4.4h.2v.4l-.2.2v.4l.5.4.1.3.2-.2v-.2l-.1-.1-.2-.5-.1-.2v-.2l.1-.2V72l-.3-.4v-.2l-.2-.1v-.5h-.1l-.1-.3h-.2l-.1-.1h-.4V70zm207.9 99.8l.2.2.3-.2v.2h.4v.1h-.3v.3l.2.1v.2l.1.2v.1l.5.1.1.1h.3l.1.2.2-.1.4.1.1-.2v-.2l-.6-.4-.1.1h-1v-.7h.6l.1-.3v-.7h-.5v.2l.2.2v.2h-1.3v.1zM120.4 54.9v.1h.2v.3h.4v.2h.2v.2h-.1l-.1.2v.3l.4.3v.3l.3.2h.1l.2-.2.2-.3V56h-.2l-.1-.2v-.1h-.5v-.3h-.1v-.1l-.1-.1V55h-.2v-.2h-.6zM92.7 29v.2l.2.1v1l.1.2h.2v.3l.1.1h.2v-1.6l-.2-.2h-.2v-.3h-.5zM481-55.3h.4l1.3.2v.5l1.7-.4v-.4l1.1.4 1.5-.4 3.4-2.7 1-.1.8.8.4-.2-1.3-1.4 1-1.3h3l-.2-.7.8-.9.7-.1-.5-1.8 1.5-2.1 2.5-6.1 1.5-7.9 2.5-3.7-.3-.6 1.2-.6v-.6l.2.1 3-4.7 2.6-4.3.6-.3v-.7l1.1-2 .5-3.1-.7-3.4-.9-2.4v-2.8l1-1.7 4.3-4.6 2.3-3.8.4-1.4.6-3.1-1-8.8v-2.3l.3-.4-.3-.2-.2-1.7.2-.4v-1.8l1.2-2.1.5-2.3 4.4-5.6.9.9 2.3 1.2.4-.3-.6-1 1 1 1.4.4v-.7l-.9-.7 1.9.5-.6.3v.4h1l1.1-.8.7.1.6-.6 1-.2 2.2-1.6 1-1.4 1.3-.2 1.7.8h1.3l1.6-1.4 6-2.7-.1-.8 1 .6.8-.2.2-.8h.7v-1.7h1.2l2.8-2.5v-1.1l2.4-3 2-6.8.7-6.1 1.9-6.4 2-2.9 2.9.4 1.1-.2.3-.5.5.2.2-.4 1 .1-.5-.9h1.6v-.5h.6l1.1-1.8-1-1 4.9.7 6.5 3.8.1-.7.8.8 2.3.7 1-.2v.4l5.4 1.2 2.6 1 .6.2 1.2-.6.9 1 4.6.9 4 1.4 1.9.1 2.4.9v-.7l2 .8 1.6.2 3.7-.4 2 1.2 1.4.3 3.3-.3 1.6-.8 2.7 1.3 3.9 1.1 7.8.4.2-.5.8.4 1 1.5 2.5.3 1.5-.3v-.7h.7l.1.6-.6.5.2 1.6.6.4v.6l1.6.4.4 1h.5l.2 2.6-.4.4v.7l1.4 3.6 3 6.8.3 1.1-.5 1.2 1.3 3-.4.4v.9l.3-1h.3l3 7.7.6 5-.6 1.8-.4.2-1 3-.8.6-1.6 3.2-1 3-2.2 1.3-1.2 2.8h.2v2.3l1 2.5 2.3 1.9.4.7.3 2.8-1.4 6.1-.4.5-1-.1.9.4-.6 2.2-1.9-.7.4.8 1.1-.1.1.8-.7 1h-.4l-.6 1.3h-1.3l.8.7-.8-.3-.2.5.6.4.4-.4.1.5-1.6 3-.8.4-1.5 1.5-1.2.4-.5-.3-.7.9h-1l-.6.6h-1.5l.3.9-1.6 1.5h-1l-.9-.9v.9l-1.2.4-1.6-.4-.7.7-.8.1.3.3-.5.4-3 1-.2.5-2.3 1-3.2-1-1-1-1.6-2.4-.7-2.4.7-1.3-.1-.9-.9-1-1.9.4-.4.2-.4 1.4-2.5 1.5.5 1.6 2.4 2.4.3 1.3-.4 1.6-.9 1-2.2 1.5-3 1.5h-1.5l-.7 1.9-.4-.5-1.9 1.5-.3.9-.4-.3-.5.3-1.1 2.5-.5-.3-.3.3-.9 2.7-.6.3.4 1.5-1 1.3.5.5-.5.8-.9.4.2.6-.4-.1-.7 1.2-2.3-.5-.1-1-.9-.5-2 1.2-2.4.6h-3.5l-1.3 1.3-.6 2-6 8.2h-1l-1.6-.8-2.3-2.4-3-1.4-.1-.6-1.4-.7-6-1-.2.1-.4-.4-1.2.3-1.4-.5-.8 1.4-.2-.7h-.6l-.8.8-.2-.3-2.7.7-.8.8-1.9.5-.3.7-1.8.6-.5 1.5-2.7 1.2-2.2.4-.8-.4-.7.3-.5-.3h-5.2l-.5 1-1.1.7-1.4-.7-.3.5v1.4l-1.7 4.4-3 2.3.7.9h1.5l1-1.5 1.2-.3 3-3 11.3-.6 1.9-.6 1.6-1.5h1.3l2-2.2 3.8-1.2 3.4-.3 6.5 1 3 3 .8.3.4 1.4-1.3-.4-1.5 1-1.7-.3-.2 2.2.2.5 1-.6.6 1.1 1.2.4 2-1.6 1.4 1.5.8-.2 1.3.6 1-.3.3 1.8-1.7 2.4-.4 1.9-1.7 1.4-2 .9-.8-.3-1.3 2-.2 1.2-1.2 1.3-7 2.5-1.8 1.4-.7 1.2-2.2 1.6-.4 1-1.8.2L557-24l-1.8 3 .2 1.5-1 5.6-.4-.2-2.7 1.1-.3.5-1.3.2-.2 1.3-4.2 1-2 3.2-3.5 1.8-3.4 4-.4 1h8.5l5.7-3.6.9-1.1 1.9-.6.9.8-.1-1.8 1.4.1 2-1 1.2-1.7-.4 1.2.2.5 2.4-.2.4-.7-.7-.3.7-.2.5-1.4 1-.7-1.1-.8.2-1.3h-.3l1-5.6.9 1.6 1.4-.3v.4h.5v.7l.5-.4 1.8.7-.6-.6V-18l-.3.2-.3-.6 1.3-.4-.2 1.3 1-.2-.3-.7 1.5.2.8.6-.7-3 1.2 1v-1l1.5.4-1-.7v-.7l3 .5-.1-1.2 1-.4-.2-.8.6-.1-.3-.9h.4l.3-.5-.7-.4.2-.3 1.5.1.5-.4h1l-.5-.9 1.9-1 .1.3 1-.7.5.3-.1-.6 1.5.5 1.4-.1.7.4 1.9-.4-.9-.6-.3-1.2.6-1 .5.2.7-1 .5-1.4h.6v1.6l.5-1 1.3-.7.3.6h1.4v-.6l-2-1.7.5-.3.6.5-.3-1.2-1.3-.9v-2.5l.8-2 .6-.4v1.5l1.5.4-.2-.8-1-.2.8-.6.9.3v1.8l.7-1.3 1.3.4.3-1.2 1.7-1.2-3.2-2.7 1.1-2.5 1.4-1.3 1 .1v-.7h1.6l-.5.8h.9l.1.8-.2.8-1.1 1 2.3.2-.2-.4.5-.2v.4l2-1 .5 1 .3-.6-.5-.5.9.3-.3-.6.4-.2.4.4.6-2h1l.2-2.1h.3l.8-1.3 1.5 3.8-.2.4.4.8.3-.3 3.1 6.3-1 5.2-1.9 2.8-.7.6-.6-.3.2 1.8h-.6l.5 1.4-.4 1.5-1.7 4-3 5.6-2 1.8-2.2.6-.7.8-1.3-.6-2 5.8-1.2.3-1.3 2-.5-.2-.6.3-1.3 1.8h-1v.3l-1.5.5-5.3-.3-4.8.5-.2.3-1.3-.1-3.6 1.8-1.6 1.7-1 .5-.4 1.7h30.5l-.1-1.6 1.2-2.3v2l.3-.9 1.8-1.5 1.7.3 1.1-.5-2.8-1.2 1.4-1.7.8-.2 1.3 1.4.5-.5-1.3-1.7.6-.4 1.5.1.7.8h.7L608-9.6l1.5-1.1-.2-.6.7-.4.6 2.2 1.4 2.6 1.6-.7-.6-2.8.4-.1-.2-2.6.3-1.3 1.2-2.2 1-.4v-.5l2.1-3.2.2-.5h1l.4-.6-.8-.8-.4-1.6.6-.8v-1.8l1.2-.2.7.8-.7-2.8h.7l.8 1 .5-.6-.5-.9 4 .7-.9-1.4-1.3-.3-1.5-1.5-.7.1.2-1.4-.5-.7-.3-1.9-.4-.5.4-.6-.1-1.9.5-1.1 1.1-.6-.2-.6 1-2 .4-.5 1.1.3-1.5 2.4-.2 2.4h.8l-.4.2v.6l1.6.4-.4-.6.8.4-.6-1.3.4-.5h2l-1.1-1.4 1.3-.4-.2-.3.7-.5.4.6.6-.6 1.5-1-.8-1 .6-.6 1-.2.4.5.5-.3 1 1 .3-.1-.3-.5.3-.4 1 .6-.1-.7 2.3 1.7.7-.8-1.3-2.1.9-1.1.5.7.2.8.7.1-.5-1 1 .8 2.6.8v-1l-1.4-2-1.5-1.1 1.5-.8 1.4.5.3-.4.9.2-1.4-1.3 1.6-3 1.5-7.3v-1.9l1-1.1-.9 4 1-1 1 .7-.7-1 1.2.1.1-.2-1-1 .4-.6v-.5l1 .2 2.1-2.1.9-.1.2-.3h-1l.3-1.2.6.5h.9l1.1-.7 1.4.2 2.5 1.4 1.5-.9 1-.1 2.6 1-1.1-1.5 1.3-1.9 2.3 1 .5 1.4-1.6 3.9-1 7.7-.2.3.3.3-.1 1.4.3-.2.2.5-1.6.3v.9h1.2l.1.5h-.4l-.6 3.6-1.3 4.4v1l-.4 1v1.4l-2.6.4-.9 1.2h-2.4l-2.4 1.8-.8 1.2.4.8-.3 1-1.4 1.2.2.7-.8.5-.2 3.2.2 1.7.2-.3v1l1 1.2 1.2-.6L649-23l.3.6-1.3.6.4 2.5 1 1.3 1.5 3 1.6 2 .5 1.7.8 1.3.2 1.4 1.7 3.2 1 1v.8l1.3.3 1.3 1.3.4-.2-.4-.4.1-.6 1.9 1.9h1.2l.5-.8-3-2.8-3.3-7-4.5-8.1-.3-1 .1-2.1-.6-.9.5-1.9-.4-3.2 1.5-2.5v-1.2l4.1-2.2v-.7l2.2-.1.7-.9.6.2 2.5-2.5 3.6-8-.2-.7h-.7l.6-.5.4-1.6-.6.3.4-1 .7-.2.4-1.7 1.5-7.8-.6-1.4 1-.4.7-.3v-.5l.6-.2 2.3-4 2.5-6 1.6-2 1.1-.6 2 1.1 1.6-.1 1.8-1.1-.8-.7 2.1-.9h3.3v.5l1.2.8h.6l.3-.6-.5-1.2 1.7-.8 1 .1-.3.3h.6l-.3.4 1-.2-.4.7.6-.3.7.6 1.4-.7 1 .4 1.3-1h.9l.1.1v-.4l1.2.4-1.5-1h.4l3 .6 1 .7.8.7.3 1.2.8.4-.6 1 .6.9-.3 1.7.3.5h.4l-.8.5-.4 1 .2 2.1-.9 1.5-.1 4.4-.5 1.1.2.5h1l-.2.4 1.1-.1.8-1.9v-2.7l2.1-9.1.4-.8-.1-1.1 2-3.3.1.7.9-.3.8.8.2-.4.4.2-.1-1.2.5.3.5 4-1.5.3 1.3.2.1-.3v3.7l-1.1.9-.1 3.2-1 .5.4.3.6-.3-.5.6.4 1.5-.7 2.3-2 3-2.7 3.2-1.4.2-.8 1.2h-1l-3.2 2.2-.4 1.4-1.6.6-.8.8-4.5 6.1-.5 4.9.4 2 1 1.4v.6l-.8.4.3.3-.4-.3-.9.3.3.7h.7l-.1 1-1.3 1-1.4-1h-2.2l-.4.4-.8.1.1 1.2-.7-.1-1.3.9-.8 4.2v3.4l-.5.7 1 1.2-.9.4v.6l1.2 1-.3.2-1.4-.3-2 3.2v1h-.3l-1.6 4-3 2.1-1.9-.3-.6.7-1.4.1-2.8 1.9-.3 1-1.5.4-.5.6.3.8-.6.8.3.5 1 .4 3.3-3.2 3.5-1.7v-.5l1.5 1-.6 2.9.5 1.4-.7 1H687l.3-.5.7-3.5 4.1-2.6 1.5-1.6 1.3-2.3 1-4.9.7-1.5-.2.7.6.2 1.1-.9h.9l.4.7.6-.6-.5-1.5-1.7-.4.4-2 .8-.1 2.5-.2.4-.5v1l.7.2v-.4l.5.1v-.6l1-.1.4-.7h1.1v.4l.8-.4 5.6 6.2 2.2.5.8 3.6 1.5 3.3.2 2.4-.9 2.2-2.7 3.9h23.2l.3-.4V0h1l.2-.1.6.1-.4-.7 1.1.6-.3-.7 1.6-.7 1.2.3-.7-.7L742-2l-.4-.9 1.6-.7 2.2.9-.9-1.3.3-.5 1.3.2 2.3-.5.4.5 1-.2-1-.5v-.4l1.6.8-.6-.8.7-.6.1.5h1.5l-1.3-1.3 1.2.8 1-.7-.6-1.4-1.4-.5 1.4-2.6 1.4 1.2 1.2.4-.5-1 2.3-.2-.3-.7.3-.3.4.7h.8l-.1-1.1.8.2.3-1 1 2.3V-279H562.4v.5l1.6 7.3 3 6.1 1.4 6.2 2.8 4.9-.7.3.6.5v-.5l.4.3 7.4 13.2 1 3.9-.9-.7h-.5l-.1.7 1.4 1.1h.5l-.3.4 1 .2.3.7.2-.5.1.4.5 2.3-.6 2.1-4.9 4.2-1.3 2.4-3 9.2-1.7 3.2-4.8 4.7-3.8 2.6-1 2.4-4.6 3.6-.6.7v.6l-.2-.1-1.7 2.5-.9 3 .1 1.6-2 1-1.3.7-.4-.6-1.8.1-9.6-6.4-3.1-1-3.6-2.3-3.6-1.1-1.7-.1-1.4.5.5.4-.3.2-.5-.4-.4.7-2.7-.8-10 .4-1.1.6-4.2.8-.4.5-.7-.5-1.3 1.2-.2-.4-8.9 4.5-.4.8-1.7.3-.6 1-5.9 3 .3.6h-1.5l-.2 1.1-.8-.3-2.5 1.8v14h.5l1.3.1.4 1.2 1.7-1.5-2.3-2.4-.7-3.3 1 1 1.7-.2.3.6h2l.8-2.5-.9-.3h2l.1-.5 1.6 1.2-.6-2.9 1.2-.6-.3-1.6.9.6 2.9.5-.4.3.7.5.7-1.3-1.1-1.4.4-.6 2-.1 1.8-1.6-.6-.9.7.4.4-1.6 1.3.6.8 1.4 1.2.9.7-.4.3.3 1.7-.2-.5-1.1.7.6.5-.5-2.1-2.5 3.1 2 .8-.7-.8-1.3.7.4 1.3-.5 2-3.4 1.3 2 1.1 1 1.2-.2.4-1.6 1.1-.9 1.6 2.8.7-.6 3.9.5 1-.8.9.3 1.2-.5 2.8 1h-1l1.3 1 .6-.5 1.7-.2-.8-1.3 2-.5 1.4 1.6 1-.4 1 1.3-.2.5-.5.2.3.9 2.2 2.2v.7l-.5.5 1.1.1.6 1.7h3.2v.2l-.9.6h1.7l-.4 1 5 .8 1.8.2-.6-1 .6-.5.4 1.3 1-.1.8-1.3v.8l1.3.2.7 2.1-2 6.6-1 1.8-3.4 3-1.4 1-5 1.6-9.2 1.9-.8.5-1.2-.1-6.5 2.4v1l-2.1 1.2-.8 2.2-.6-.1-.3.9-3 3-2.1 4.2-.6 3-.6 6.8.9 1.2-.5.6.8 3.7.2 6.2-2.2 3.7-4.3 4.8-.4.8 1.1.5.2.5-1 .2.5.3-.7 2-1 1 .5.4-1 .1.6 2.8 1.2 2 .4 4.4-5.2 8.8-1 1.7L499-86l-1.8 5.6-1.2 7.8-1.4 3.5-1.1 1.7-2.6 2.2-.3 1.2-.6-.2-.9.6-.4-.2L487-62l-3.2 2-2.4.4-.3-.2zM719.8-30v-1l.7-.3-.9-1 1-.1.2.4.6.4v.6l.6.6-.6.8 1-.2-.1-.5.5-.2v-.7l.5.2.3-.5.7.3-1.6 3.2-1.9 1.9-.3 1 .8.4-1 1.7-.8-.5-.3-.8.2-1.4.6-.5v-1.1l-1.3-.7.8-.1zm13.9 2.9l-.6-.6 1.9.7-.8-1.4h-.5l.4-.2.3.3.1-.7-1.2-.6-.4.2v-2l.7-.4.7.3.2-1 .5-.7v.6l.7-.4.8.2-.5-.9 1.3.8v-.5l-1.1-.7.6-.4 2.3.5v-.3l-1-.7v-.3h-.4l1.3-.1-.8-.6-.7.2.3-1.3.3.3h.8l-.9-.3.4-.2-.4-.2.2-1.5.2-.2-.2.5.3.1v-.4l1.1 1v-1.2h.4l.4-.3-.3-.5h.5l-1.2-.8 1 .5.5-.2-.7-.6.7-.1-.1-.4h-1.3l1.5-.1-.4-.5h1l-.4-.6 1.3-.3v-1.2l1.9-2.1.7-1.7.2-3.2 1 .3-.2-.7h.7l-.5-.4h.7l-.7-.3h2l.5-.3-.3-.3h1.3l.2-.6.8-.3h1.2v.7l1.3.2 2.2-.7-.1.4.6.6.6-.9.6 1.4-.5.2h.6l-.8 1h.7v-.7l.5.2.6 2.6v1.9l-1.3 1h-2.5l-2.2 1-2 1-2.8 3-1.2 1.9-2.5 6-.3 3.6-1.9 6.3-.8 5 .2 2.3-.9.9.4-.3.5 1.6-.5.4-2.5.4-.9 1.5-1.5 1.1-.8-.7.2-.6-.6.3.1.7.5.2v1.2l-1-.1-.7-1.3-2.1-.4-.5-.7-1.7-7 .3-.7-.3-3.1 1 .2.4-.4-.3-.3h1.3l-.4-.8 1.3-.2-.6-.6 1 .4.7-.7.4-.4h-.6v-.3l-.6-.3 2.1-.5zM697.1-17l.3-.5-.4-.2v-.6l.4-.1v.7l.5-.5.1.3zM583-217.6l.2.1h1.2l-.8.1h-.6zm21.6 15.6l1-1.5 1.4-1.2-.2 1-1.2 1.7 1.2-.2-.2-.9.6.2 1-.6.2-.4 2.2-1.2v-.4l1.4-.3 2.1.3v-.8l.3-.2.4.6-.7.6 1-.1.2.3-.4 1.2-4.5 4.6-5.8.2-1-.7zm-21.8-15.4l.7.6 1.8-.8-.3-.4 1.7-.5.4-1 3.6-1.8.3-.6h1.2l-.4-.3h.7l-.2-.5.5-.2-.6-.3 1.4-.8.1.3.8-.8.5.2v-.3l.2.2v-.3l.5.4h2.3l.7-.3h-.5l-.2-.8 2.2 1.2 1-.3-1-1 4.2-.3.7.3.9 1.4-1.1 3.5-.9.8-3 7.1-2.1 2.6-1.5 2.8-1.2 1.7-4 2.4-5.6-.6-1.9-1-1.2.1-1.1-1-3.4-1.1v-.8h.5l-.5-.3.2-.9.3-.2v.8l.7.1-.2-.4 1-.3.7-.9-.2-.9-.7-.3zm12.5 167l.1-1 .7-.7v1.1l.7-1.6 1.4-1.4h2l-1.7 2.3-1 .8zm26.2-10.2l-.8-3 .4-1.4h.5l-1-1-.3-1 .7-.3 1-.2.5 1.5.5.3-.4 1.5h-.5l.2.8-.7-.2 1.1 1.3-.1-.7.9-1 3.2-1.3 2.3-.4.7.4 1.2-.4-.4 1.2.5-.3v-.5l1.7.3-.6-1.2.9.2-.2-.4 2.6-2.2 1-.4-.3.6-2.4 2.4-.7 3.1v2.8l-.9 1.7-2.1.4-.7-.4-5.8.1-1.1-.3zm0 0"/></svg>