<svg xmlns="http://www.w3.org/2000/svg" xmlns:xlink="http://www.w3.org/1999/xlink" viewBox="0 0 497 279" xmlns:v="https://vecta.io/nano"><style><![CDATA[.B{stroke:#fff}.C{stroke:#8d618b}.D{stroke-linejoin:bevel}]]></style><filter id="A" width="100%" height="100%" x="0%" y="0%"><feColorMatrix in="SourceGraphic" values="0 0 0 0 1 0 0 0 0 1 0 0 0 0 1 0 0 0 1 0"/></filter><mask id="B"><g filter="url(#A)"><path fill-opacity=".5" d="M0 0h497v279H0z"/></g></mask><clipPath id="C"><path d="M0 0h497v279H0z"/></clipPath><path fill="#f2efe9" d="M0 0h497v279H0z"/><g fill="#aad3df" fill-rule="evenodd"><path d="M481 0h279.3v-279H507l2.5 2.8 1.3.2.8.9v.7l-.8.5-.1.9.4.6-.8 1.4.9.6-.6 1.2.3 1.3-.3 1.2-2.2 1.7-.1 1.2h.5v.3l-5.6 5.1-2.8 3.8-2.9 2.6-2.5 3.8-4.7 10.6-.9 6.4-.8 1.4-3 .8-.9-1.3v-1.8l.6-1.9-.1-1.8-3.6-2.8-.6-.1zm0 279h279.3V0H481zm0 279h279.3V335.7h-.9l-.4-.4-1.2.3-.9-.6-.2-1-.7.4v-.7l-1-1-.7.3-.2.6H753l-1.6-2.5-1-.6-.4-1-2.6-3.7 1.3-1.3-1-1 .3-1.1h1.3l.8.7v-1l2.6.6-.1-.7 2 .4.4-.9.6.8.2-.4h.2l.4.8-.2-1.5.7-.6.3.7 1.1.7.7 2 .8 1h.4v-46H481zm268-236.6l-1-.1.7-.4-.3-.4.8.5zm0 0"/><path d="M202.1 558h279V279H296.4l1.8 1 4 6.6.4 3.8-.3 1.6-.8.6-.5 3.6-.5-.7-1.9.7-1 1.8-.5 2.2.2 4-.6 6.8.1 1 1 1.2.5 1.6-1 2.6.7 2.9.8 1.9v1.8l1 .8.2 1-.3.8-1.7 1-1.6 6-3.3 6.5-.6 2.7.4 1.3 2.6.5-.5 3.1.7 2 1.3.4.4.9v1.8l-.9 2.4v2.8l-.7 3-1.2 2-2.7 3-2.9 1-3 2.3h-3.1l-9.2-3.9v2.2l-.5 1-2.5 2.1-.1 3.3-.7 2.2-.7.8-3.2 1.5-1.6 2.6-.1.7.7 1.2 1 2.3-1.3 3.3-6.1 4.6-1.6 2.8-.7 3 .3 1h-2.1l-1.2.8-.9 1.5-3.4 2.7h-3l-3 6 .7 1 .5 5.6 1.2 1.4.2 1.1 1.2.8 1 2.5-1.6 1-1.4-.4-1.4-1.4-1.3 1.2-.2 1.7.6 1.6-.4 1.8-2.9 1.2-.5.9-.3 3.8.8 5.5-1.5 3.9-2.6-1.4-1.3-.1-1.6 1.4v2.9l-2.2-.6-1.8-1-.5-.8-.5-2.8-1.5-.7-2.5.5-.5 1-1.2-.6 1-1.7-.7-5.4-1.3-2.2-1.6-4.2-1-.4-.9.9-.1 1.4-1.4-1.2 2.3-2.7v-5.2l-.5-1.6 1.3-.3.2-1.8-1.8-5.8-1.8-1-.3-7.3 1.6-1 2.5-3.2 1-4.3-14.7-5.1-1.9 2.3-1.3 3zm-279-438l.2-.7 1.5-.9 1.7.6 7-5.3 1.2-6.4 1.5-1.2 2-1.2h5.4l1.2-1.2 1.7-3.5 2-1.2 1.3-4 2.1-.2.7 1 1.8.5 2.3-.9 5.5-7.2 5.1-6 2.7-1.6 2.4-.1.6 1.4 5.2 4.3 2.4.8 2-1h2.1l2.7 1.5 2.1-1.8 2 .5.9 2 .6 2.6 1 1.2 1.5.3 7.5-.6 1.3.5 2.7.1 3 1 2 1.6 1 2.1 3.6.4 3 2.6 2 .2 5.5 3.5 2.1.8h11l1.4 4.1 4.1.8 4.9 4.3 1.4-.9 2.7.2 5.3 4.3 2.3 1.5 2.3-1 5.2-.3 2.6.9.6 2.1-7.6 7.8-2.3 1.7-.5 2.5-1.6 2.7-3.3 1.5-1 3.5-.1 2.2-1.6 1.9-1.4.9 1.8 1.8v3.9l-.6 1.8-3.8-.2-5.2 10-3.4 3.5-3.1 5.3-.3 2.1 1.4 1.1 4.3 2 4.4-5.5 13.1-13.8.4-3.2 3.1-10.8 3-4.4 3.8-3.6 1.4-3.2 3.5-3.8 2.2-3.4 2-4 3-4.8 3.4-2.7 10.1-4.5.5-1 1.2-.4 3.4-1.8 4.5-4.6.4.7 1.1-.1.4-1 1.4-1.5 3.6-.3 2.2 1.6 1.4-.4.3 1 .8.1 3.7 4.9 1.6.6 3.7.2 1.7-.8h2l2.9-1 .6 1.2.4-.2.2.6.7-.3 1.2 1.4.8 2.1-.2 1.5 1.7.4 3 1.9 4-1 1.1-1.8 1.4-.5 4 4.6 3.9 3 2.1 2 3.2 1.4-.6.9.1 1 3 1.7.3.5v.7l-.6 1 .6.6-.6.9.4 3.4.3.5 1.1-.6h1.6l-.9 1.3.1.6 1.8.7v1.5l.8 1.1 2 .1.3.4v3l.8 2.4.5.3-.2.7-1.6 1.5-.3 1.7-.4.5-2.9 1.3-.2 1.6.3 1 3.4.4 2.6 3 .8 1.4 2 5.8-.5 5.8-.1 1.4-1.3 2.6-1.4 1.5-4.2 2-2 .3-.7.8-.4 1.2-.1 7.9-3.8 5.7-3.4 2.8-5 5.7-.8 1.7v.8l1 .9-1.5 5.5-1.8 1.2-1.5.4-1.7 2.4.4 1-2.1 2.3-2.7 2-1 1.7-1 1-.7 1.6-1.2 1.7-1 5.4-3 7 .5 3.5 1.1 3 .8.8 2.7.7 3.3-.5 2.2-1.5 1-.1 1.4 1.9 1.2-1.3 1.7-.8 3-.5 1.1-4 .4-.9h.8l2 5.5 5.8 3.3 3.7-.2 3-1.8 1.7-2 .4-1.2.3-4.4 2-1.3 1.2-.1 1.1.3.6 2.7 1.6 1.7 3.4 1.5 3-.1 1.1-.8.8 1.1v3.5l-.7 3-.8.6-.6 7-2.5 5.4.2 7.5-1.5 3.7-1.1 1.3.4 1.7 1.2 1.7-.2 1-1.2 1 2 .6h18.1v-37l-.1.7-2.2 6.8-1.2 2.2.1-1 1.6-3.7-.3-7.2-.7-3.3-1.6-3.3-2.6-4.1-1.9-2.2.5-2 .7-.6 2-2.1 3.3-.2 1.5-2.5.9-.3v-149l-4 1.6-5.9.6-.1-1.4.6-1 1.5-.7 1.5-1.5 1.4-7 2.3-6.8 2.7-6.2V36.5l-1.6-.4-2.8.5-5 5.4-3.3 2.4-2.2 2.2-2 4-3 9.4-5.3 7.7-2.9 2.6-3.5 4.9-2.5 1.3-3.3 1.8-4.2 1.6-8 .1-6.4-2.2-2-1.3-3.2-1.9h-3.7L135 73l-7.2.1-5-.4-2.3-3-9.5-1.9-3.6 1.1-5.6.3-5.7 4-3.9 3.3-1 1-4 .5-6.6 7.4-2 1.4-5.7-.3-7.3-5-9.4-1.9-3.2-3.1-.4-.3-8.4.2-.2.1-3.5 1.7-4.1-1.7-6.5-2.5-.2-1-3.4-1.4-2.2-.2-1.3-1.4-3.4-1.2-3.7-2.8-1.2-2L9 62.1l-4 .3-3.4-4-3.1-1.8-2-.6-1.4-2.2h-2.5V51l-4.8-3.4-1.8-1.8.7-1.6-.7-2.3-2.9-2.2-6.1-8.2-.7-2-1.7-1.1-2-.1-3.3-3.7-2.1-1.6h-2.3l-1.5 1h-3.5l-.7-1.7-3-1.8-.9-2.4-5.9-.4-.6-1.4.7-.4.2-1.9-.5-2.5.5-.4L-51.6.2l-.2-.2h-25v35.5l1.6 2.3 1.1.7h1.5l2 2 1.9 1.2h3.4l1.5.8 2.3.1 1.1-1h2.1l5 2.6 3.7.3 1-.5 1.1.3 4.8.2.7-1.4 3.8 6.9 1 2.4.2 4.6 2.3 2.4v2.3l-2.1 1.7-1.5 2-.7 2-1-1.8-1.9-.7-2 .2-1.5 1.9-5.8 1-2.7 2.5-4.9 2.3-11.2 3.7-.7.2-.2-.2-.7-.4 1.6-2 .2-.9-.7-.7-2.2 2h-1.8l-1.4-.6h-1zm267.2 133.6l1.1-.7.8 1.3v1.4l-1.2 1.6-1-1.1V254zm-6.5 25.4l4 1.1 1.2-.4h1.4l.6.5.8 2.6 2.2 2.5.7.1 2-.7h1.9l1.8.8 1.6 1.3.2-.4V279zm0 0"/><path d="M202.1 286.5v-.1l.7.3-.2 2.6 1.2 3.2 1-6.5 1.4-3.4.9-3.7H202zm.1-62.4l-.8 1.6-.1 2.9.9 2.6zm0 0"/><path d="M202.1 279h5l.6-2.6 1.6-1.2 2.7.5 2-.7.8-2 3.8-3 1-1.7-1-2.9v-2.3l-2-3.2-.2-1 .6-2.5.8-.4 2.4-.7.3-.5-.8-5.8-.9-3.2-1-2.4v-1l2.2-3.6.6-2.8 1.8-.9 1.1-3.7 1.9-1.4 1.6-.7 2.7.1 2.3-1 1.6-.9 3.2-3.5.8-1.6-.2-.8-2-1.6.3-6.5 2.7-3.2 2.3-3.5 5.2-1.3 1.3-1 11.6-4.4 5 .9h1.2l1.3-1.3h1.6l2.9 7.3 1 1.8 1 .3.2.9-.2 1.1-.8.5-.1 1 3 .4 1.3 1.4 1.1 3.6-.5 1.3 2.4 1.4.1 1 2 1.3 1.7 3 .5 2.1-.3 1.1.8 1.3 1.5.5 1.3 3.1-.5 2 1 1.5.2.9-2 3 .8.5.1 1.4-1.6 2.1v1.2l.9 1 .8 3.5 1.7 1.2h1l.5.9h.5l.8 1 1.7 5.6-.8 3.8-1.7.8-1.6 2-1.3.3-.3.5-.4 1.8.4 2.6 1.5-.2 1.7.7-.4.1v1.3l1.9 3 .9.1.1.5-.4.2 3 .3.7 1.1.5.2h184.7V0H268.7l-1.4.4-7.1 6-8 2.8-2.4 5.6-2.2 4-6.7 4.5-6 5.3-4.7 8.6-3.2 9-6 7.6v3.6l-1 1.6h-2.6l-8.9 8.3-6.4 2.9v149l1-.2.6 3.3-1.3 1.5-.4.5v6.7l.4.7.5 3.6-.1 2.8-.8 4.5zm0-231l2.3-5.3.6-3.3v-2.1l-3-.8zm279.1-286.7l-5.4-1.4-3.5-.3-2.1-1.2-4.2-9.2-.7-2.8-1.6-2-1.4-1h-.7l-.7 1.6h-1.1l.1.2-1 .9h-.8l1.4-1.1h-2.2l-2.3-.8-1.8-3.4-4.4 3.7-4.6 5-.7 1.2.4.8 2.1-.1 1.8-1h.8l.5-.8 2-1 1.6-.2v1.3h-.9l-3 1.4-2.2 2.1-1.1.4-6 1.4h-2.7l-2.1.9-1.2-.3-3.1.4-.9 2.7-.9.3v1l.4.3-.4.3.2.5h.9l-.8 1.8.9.1-.3.5-1.2-.5-.7.2.8.6v.5l-.7 1.4-.1.7.4.3-.8 1.1.3 2-5.3 7.4-1.2 2.8-2.3 2.6-6.7 1.3-8.2-2.3-3 3.2-2.9 10.6-5.4 4-4.5-.4-13.6-7.8-4-.4-2.5-8-7.1-4.8-8.9-.2-4.1-.7-4.8 4.7h-12.7l-2-5.5-6.3-1.8-3.5 1.3-8-2-7.5.6-11-3.4-2.4 3.3-6.1-.6-7-5.3-2.6-.3-3.6-2.5-7-3.4-6.6 1.5h-8.6l-5.1.8-4.1 4.7v12l-3.7 2-1.8 5.8 2 10.9 3.2.7 5 9.4-.4 3.6 7.3 2.5 6.8 4.3 5.4-.6.4 3.2-3.1 3.4 3.1 4.4 5.5 2 4.9 2.9 4.7 4.1 4.1 14.3-.3 12.4-3.4 6.7-6.4 4.1 3 6.5-2.2 6.7-6.4 4 4.2 9.3 4.4 5.9 5.5-3.5 7.4 2.3-.2 5.6 6 1.1-2.6 13 3 5 2.8.5 4.6-4.9 4.4 4.2-4 6.7-12.9 17.6-2.6.2-3.3-1.5-2.4 1.7-5.5 2.8 4.8 3-1.6 5 1.6 6.5.5 12-4.6 1.3-2.3 9.9-5.4 1.8h212.8zm0 0"/></g><g fill="none" clip-path="url(#C)" mask="url(#B)" class="D"><g stroke-width=".8"><use xlink:href="#E" class="B"/><use xlink:href="#E" class="C"/><use xlink:href="#F" class="B"/><use xlink:href="#F" class="C"/><use xlink:href="#G" class="B"/><use xlink:href="#G" class="C"/><use xlink:href="#H" class="B"/><use xlink:href="#H" class="C"/></g><g stroke-width="2.2"><use xlink:href="#I" class="B"/><use xlink:href="#I" class="C"/><use xlink:href="#J" class="B"/><use xlink:href="#J" class="C"/><use xlink:href="#K" class="B"/><use xlink:href="#K" class="C"/><use xlink:href="#L" class="B"/><use xlink:href="#L" class="C"/></g></g><defs ><path id="E" d="M385 318.6l.4-1.6.3-1.3.4-1.5.3-1.5.2-1.5.4-1.4v-1.5l.3-1.5.2-1.5v-1.5l.3-1.3.1-1 .1-1.5.3-1.5.2-1.5.2-1.5.1-1.5.2-1.5V291l.1-1.5v-7.6l-.3-1.5V279l-.1-1.6-.2-1.5-.2-1.5-.3-1.5-.2-1.5-.3-1.5-.3-1.5-.3-1.4-.4-1.5-.4-1.5-.4-1.5-.4-1.4-.5-1.5-.5-1.4-.5-1.4-.5-1.4-.6-1.5-.6-1.4-.6-1.4-.5-1.3-.8-1.4-.7-1.4-.7-1.3-.4-.8-.1-.8-.3-1.5-.3-1.6-.4-1.4-.3-1.5-.4-1.5-.4-1.4-.4-1.5-.5-1.4v-.3"/><path id="F" d="M375.3 232v-.1l-.1-1.6-.2-1.5v-1.6l-.2-1.5-.2-1.5-.2-1.5-.2-1.5-.3-1.5-.2-1.5-.3-1.5-.4-1.5-.3-1.5-.4-1.5-.4-1.5-.5-1.4-.4-1.5-.5-1.4-.6-1.5-.5-1.4-.6-1.5-.6-1.4-.6-1.4-.6-1.4-.7-1.3-.7-1.5-.6-1.3-.8-1.3-.2-1-.1-2-.5-3.7-.2-2.1-.2-2-.2-2-.2-1.8-.6-4v-2l-.3-2-.2-1.8-.2-2-.3-2-.1-2-.3-2-.2-2-.2-1.8-.2-2.1-.2-2-.2-1.8-.3-2.1-.2-2-.1-.9"/><path id="G" d="M359 145.2v-.9l-.4-2-.1-2-.5-3.8-.2-2.1-.8-7.9-.3-2-.2-1.9-.2-2-.4-3.9-.3-2.1-.2-1.9-.4-3.9-.2-2.1-.3-2-.2-2-.2-1.9-.2-2-.2-2-.3-1.9-.2-2.1-.2-2-.2-2-.2-2-.3-2-.9-7.9-.2-2-1-9.9-.4-2-.1-2-.5-4v-.4"/><path id="H" d="M349.2 56.6l-.2-1.7v-.7l.6-1.2 1.1-1.3.7-1.3.9-1.4.8-1.3.9-1.4.7-1.3.7-1.4.8-1.4.7-1.4.6-1.5.7-1.3.6-1.5.6-1.5.6-1.5.5-1.5.6-1.4.2-.6.4-1 .7-1.3.7-1.5.7-1.4.6-1.5.6-1.3.6-1.6.4-1.5.6-1.5.5-1.5.5-1.5.5-1.5.4-1.6.4-1.5.3-1.5.4-1.6.1-.7 1.4-1.3 1.4-1.4 3-2.8L377-1l3-2.7 1.3-1.4 4.5-4.2 1.5-1.4 1.5-1.3 1.5-1.4 1.5-1.4 1.5-1.4 1-1"/><path id="I" d="M387.3 306.7l.2-1.4v-1.5l.3-1.3.1-1 .1-1.5.3-1.5.2-1.5.2-1.5.1-1.5.2-1.5V291l.1-1.5v-7.6l-.3-1.5V279l-.1-1.6-.2-1.5-.2-1.5-.3-1.5-.2-1.5-.3-1.5-.3-1.5-.3-1.4-.4-1.5-.4-1.5-.4-1.5-.4-1.4-.5-1.5-.5-1.4-.5-1.4-.5-1.4-.6-1.5-.6-1.4-.6-1.4-.5-1.3-.8-1.4-.7-1.4-.7-1.3-.4-.8-.1-.8-.3-1.5-.3-1.6-.4-1.4-.3-1.5-.4-1.5-.4-1.4-.4-1.5-.5-1.4v-.5l-.1-1.5-.2-1.5v-1.6l-.2-1.5-.2-1.5-.2-1.5-.2-1.5-.2-1.2"/><path id="J" d="M374 220v-.3l-.4-1.5-.2-1.5-.4-1.5-.3-1.5-.4-1.5-.4-1.5-.5-1.4-.4-1.5-.5-1.4-.6-1.5-.5-1.4-.6-1.5-.6-1.4-.6-1.4-.6-1.4-.7-1.3-.7-1.5-.6-1.3-.8-1.3-.2-1-.1-2-.5-3.7-.2-2.1-.2-2-.2-2-.2-1.8-.6-4v-2l-.3-2-.2-1.8-.2-2-.3-2-.1-2-.3-2-.2-2-.2-1.8-.2-2.1-.2-2-.2-1.8-.3-2.1-.2-2-.1-1.8-.3-2.1-.2-2-.5-3.8-.2-2.1-.1-1.3"/><path id="K" d="M357.7 133.1v-.6l-.9-6-.1-2-.2-1.9-.2-2-.4-3.9-.3-2.1-.2-1.9-.4-3.9-.2-2.1-.3-2-.2-2-.2-1.9-.2-2-.2-2-.3-1.9-.2-2.1-.2-2-.2-2-.2-2-.3-2-.9-7.9-.2-2-1-9.9-.4-2-.1-2-.7-6v-.8l.6-1.2 1.1-1.3.7-1.3.9-1.4.8-1.3.9-1.4.1-.3"/><path id="L" d="M354.1 46l.6-1 .7-1.4.8-1.4.7-1.4.6-1.5.7-1.3.6-1.5.6-1.5.6-1.5.5-1.5.6-1.4.2-.6.4-1 .7-1.3.7-1.5.7-1.4.6-1.5.6-1.3.6-1.6.4-1.5.6-1.5.5-1.5.5-1.5.5-1.5.4-1.6.4-1.5.3-1.5.4-1.6.1-.7 1.4-1.3 1.4-1.4 3-2.8L377-1l3-2.7 1.3-1.4 4.5-4.2 1.5-1.4 1.5-1.3 1.5-1.4 1.5-1.4 1.5-1.4 1.4-1.4 1.5-1.4 1.5-1.4 1.5-1.4 1.5-1.4 1.5-1.4 1-1"/></defs></svg>