<svg xmlns="http://www.w3.org/2000/svg" viewBox="0 0 497 279"  xmlns:v="https://vecta.io/nano"><path fill="#f2efe9" d="M0 0h497v279H0z"/><g fill="#aad3df" fill-rule="evenodd"><path d="M-76.9 419.2l6.9-2 3-1.8 2.8.2 9-1.6 9.2-3h3.3l5.9-2.4 2-2.2 3.8-.4 12.5-5.1 8.5-2.5 3.6-5.2 2.6-1.6 2.8.6 1.9 1 2.7.1 2.1-.7 2 1.6 2.6-.9 2.7-2.2 2-2.7 6.2-1.7 6.5.7 5.1 3.3 4.3-.7 2.9.8 2.7-.4 1.5-1.3h2.1l1.6-6.1 1.9-1.8L52 380l-.1-2.5-5.7-1 2.6-1.1-.4-2-6.6-3.5-2-2.9 3-.8 2.9-2.2 1.5-3 2.6-3.3 3.3-2.2.7-3 2.7-2.3 4.7-1.2 1.8 1 4-1.6h7.3l4.4-.8 3.7.9 3.4-1.2 2.9.7 4.6-1.2L95 348l4.2.3 2.1-1 2.2-1.9 4-2 5.4-.4 2.3.7 1.8-1 3 .3 2.3-2 4.8.4 4.7-.8 9.3-4.6 6-2.5h8.5l4.4-1.1 15.1 1 7.6-.4 4.7-.7h3.5l11.3-1.6v-32.1h-2.8l-4.7 2.2-5.5-2.3-5.2-.7h-6.3L173 296l-7.7 1.2-11.7 4.3-14.2 3.3-9.6 2.9-3.8-2-3.1-.3-2.4 1.6-1.6 2.3-9.9-2-2.2-3-2.4-.9-4.8-.7-2.6.2-1 .7-5.2-.4-4.3-1-5 .2-2-2.1-.2-1.7 2.7-1.3 3.5-.8 2.9-2.3 1.9-2.6.9-2.4 3-3.5 6.1-3.3 2.3-1.6 2.6-.8 1.2-1H-26.3l-1.8 1-4.6 3.3-5.8 3.3-3 .6-9.1 4.6-5.5 3.5-7.5 3.1-13.3 6.7zM97 305.3h2l.8.5v.8l-1.6.2-1.2-.5zm105.1-91.6h.1l1.4-1.2 2-.6 3.8-4.4 2.3-.5 1-2.7 4.8-1.7 2.4-2.1 6.7-3.2 2.2.4L239 192l14-5.4.9-1.8h1.4l1.4-1.9 6.8-.9 1.7-1.9 4.7-1.5 3.1-2 4.6-.8 4.4-2.3 2.2.3 5.8-2.8h3.3l4-2 4.4-.7 2.7-1.3 3.6.4 2-1.4 6.8.2 2.9-1.2 4.4-1.1 3.3-2.6 5.2 2.1 12-.3 6.4-.8 2.6-1.3 3.7.4 4.7-.2 6.2 1.3 5.2-1.5 4.6.9 4.1-1.5 5 1 3.7-1.4 2.7.6 2.9-1.2 4.6 1.6 11.6-3.5 4.7-2 2 .3 2.1-3.5 4.6-2.8 2 1 1.2-1.2-3-5.9 4.2-4 1.3-1.7-5.7-2.2-2.7-1-1.3-4.2-6.6-.8-1.6-4.3-5.5 3-16.7 2.3-5 1.8-4.8-.3-3.5-1.2-5-.6-3.6.1-10.4-1.3h-3.2l-10.6-3.3-1.9-1.7v-1.3l-.9-1.3-12.7-2.2-2.7-2.1-2.6-1.4-1.7-2.7-1.8-.6-3.5 1.3-3.7 5.1-4.7 1.4-4.7-.2-6.6-3.5-8.7.3-6 1.2-31.3 10.1-3 1.7-1 2.2-1.8.6-3.1-1.1-3.5 1.2-10.8 4.6-1.3 1.3-9.2 2.5-1.9 1.9-1.6-.5-4 .9-8.7 5zm0 0"/><path d="M173.3 0l1.1 2.8-.6 1.9-.1 4.8-1.7 2.1-5 1.9-4.5 2.4-4.1 3-.4 2.3-1.7.7-1.7 2.1.6 1.6-3 3.8-.2 2.8-1.4.7-.8 3.1-.2 3.5-3.6 7-.1 2.3-1.5 2.1-.3 2.4-1.4 2.6v1.8l-.9 2-1.3 5.1v2.1l1 1.9 4.9.5 4.5-2.1h5.5l2.6.5 1 2.1 1.1 9.7-.9.7-3.1 6.8-1.7 2.6-.8 2.7.4 1.7-.8 2 .1 2.4-1 3.3-.9 2.3-1.2-.6 1 2-1.2.6-1.4 1.7-1.9.8-1.5-1.5-6.2.5-2.6 2.2-.7 4.6.1 4.3-1.8 2.2-.4 2.7-1.2 3.9 1.2 3.9.7 9.7-1.4 2.8.3 3.2-2.8 5.8-.3 2.2-6.3 4.5-2 2-.9 2.8-3.2 2.2-1.9 2 .2 2.5-1.3 2.7-1.4.7-1.5 1.5-4.1-.3-3.7 1.6-4.5 5.5-5.3 4.3v6.2l-2 1.8-3.1 1h-3l-2.1 2.3-1.3 2.8-.2 2.1-3.5-.6-2.5 1.8-2.5 3.2-1.6.1-.7 1.3-3.9 3-1.6 2.7h-1.3L62 218h-1.3l-4.3 3.2-1.5.4-11.8 7.4-4.9 2.5-2.1 2.3h-1.2l-3.3 2.6-6.6 3.8-1 4.2-5.7.3-3.5 3.2-2.3 3.8-2.5-.7-11.7 8.7-2.5 3.7-2.7.6-2.9 3-2.2 4.2-4.8 3.2-5.7 2.4-4 2.2h132.9l10.8-10 1.3-2.8 3-1.9 2.5-3.3 4.1-2.3 4.5-1.5 4.3-3.2 4-3.7 1.4-2.8.8-.1 2.3-2.5.9-1.7.2-1.8h1.6l1.2-1.8 21.9-9.3 4.4-3.2 1.6-.7.8-1 1.2-.4.8-1.8 1.2.2 1-1 3.2-1.1 2.1-2 7-3.4 2.9-.9.9-1.6 3.9.3v-65.3l-3.6 2-6.1 2-5.8.1-2.7-.8.8-3.1-1-2.4-.2-6.4-2.8-3.3.2-6 4.1-1.5 2.3-1.6v-2l2.1-.7.5-1.9-.5-1.6.5-2.1-.7-2.5 1.5-3.4-1-4.6v-4l1.5-5.1-.3-2.3.5-3.4-1.7-9.4-1-1.5-2.6-1.5-1.2-2.1 1.1-3-3.2-1.7-1.6-3.5 2-.7 1.5-4.4 2.2-3.2 1.1-2.8 3.2-1.5 3.1-2.5 1-1.3.9-3 1.5-.3-.3-1.6 2.3-1 1.6-3-.2-1.8 1-.6V0zm-29.2 129l1.6-1 .2-1.6-.4-1.4 2.5-1.5 3.2 1.8-1.2 2.9-2.5 1.3-2.5.3zm0 0"/><path d="M202.2-13l-4.7 4.7-3.5 2.7-2.9 1L189-5l-1.4-1.9-1.6-.3-.6-3 1.2-2.7-5.5-2.4-1.8-2.2-2.1-1.4-2.8-.4.3-1.4-3.3-2.7-1.9-.2-4.4-1.8-.4-1.2-4.7-2.2-1.3-1.9-4.1-3.6-.8-3.1-2.2-3.3.2-1.7-3.8-6-2.9-6.6-1.8-2.2-4.7-8.3-1.2-1.1-1.4.6-3 2.6-2 3.2 4 6.8-.3 2.2 3.3 3.3 2.5 5.9 2 1.4 2.4 5.6 3.4 4.1 4 6 1.2 2.4v3.4l2.2.3.2 1-.6 1.7.9 1.4 3.5.3.7.5 1 5.2 1.6 2.4 7.3 4 3 2.3h29zm0 0"/><path d="M202.1 0h32.3l2.3-7.1.8-.4.8-1.7-.4-1.8.9-.9.7-5.2-.2-3.9 1.8-2.6.3-3 2.9-6.4-1.2-3.1-.4-2.6-2.6-.5-2.1-1.4-1.8-.2-1.5 1.4-.3-1 .1-2.6-.5-.5 2.4-2.3 3-1.6 3.1-.6 4.5-3.9 4.5-2.7 1.3-1.7 4.3-2.2 1.5-3.1 3.4-.6 2.5-4.5 2.2-1 1.4-3.3 2.6-2.9 2.2-4.4 1.1-3.5V-83l.8-1.3v-2.5l.8-2.7 4.1-2-.2-2.3-1.2-4.8 1-1v-2.9l1.5-1.9 3.2-2.1 2.2-.5 1.4-1.3 2.5-.4 1.9-2.7.3-4.6-.4-1 2.6-2.4 3-3.9 7.7-7.7 10.4-7.7 1.2-2.5 3-1.5 5.3-5.9-4.2 2-4.9 1.6-1.1-1.5-1.6 1-1.8-.3v-1.8l13.5-6.7 8.1-2 2-1 .7-1.2 4.2-.8 1.6-1 .5-.7 6.2.5 2.2-1 1.5-2.5.6-2.4-.3-1.6 2.5-3.7 1.9-.3 1.3.8 2.4.5 5-4.8 4-6.6 1.6-.3 2-2.4 4.6-1.2v-2.3l-1.5-.3 2.6-2.6 3.6-2 5-5-1.1-5.3-1-2.8-.2-3 .4-3 1.7-3.6 2.5-1.9 4.1-1.1 3 .4.7 1.7 1.8-.5.4-1.2 2.4-.8 1.7-5-.4-3.4-2.3-2.5-4.6-2.2-3.6-3-2-.3-1.6.2-.8 3-7 3.7-3.4 2.7-1.7 3-3 .1-2.1 3.2-4.5 2-5.4 3.5-2.9 3.3-2.7 4.6-3 1.1-3.6 2-6 5.6-2.6 3.3-.9 2.7-2.2 2.8-.6 1.9-2.6 1-2.6 2.3-7.7 3.2-5.5 3-2 2-2.9.2-4.1 3.6-2.9 1.6-3.5 3.5-3 .5-4 3.4-2.5.9-4.5 4.8-5 2.2-3 3-7.5 5.4-12.6 11.3-3.1-2.2-.6 2.5-3 .2-1 1.4-1.2-.7-1.3 3.4 1 3.5h1.7l-1.4.8-1.4-1.4h-1l-1.1 3.1v2.7l-1.5 2-1.4 3.5-.6 6 .5 5.3-3.3 3-1.8 5-3 4.7-1.9 1.3-2.5 4.5-4 5.5-8.6 9v3.2l-1 2.4-2.7.6-2.7 1.3-2.3 6.3-.2 2-1.8 2.8-.4 6.4.3 1.6-.6 2.1 1.1 4.3-.3 3.2-.8 2.1-1.2 1-2.3 6.5v1.9l-.9.6-.8 2.7 1.2.7 2.4-1.9h4.6l3.3.4 1.2 2.6-13 5-1.3 1.4zm0 43.4l.5-.3 1.7-3.1 1.4-6.1.7-.2 2.7-2.4.4-1.8 2.9-.6 1.2-2.6 2.2-1.3-.4-1.4 1-2h2.1l9.5-8.8 3.2-3.8 2.8-4.6.6-2.8-.3-1.4V0h-32.1zm0 0"/></g></svg>