<svg xmlns="http://www.w3.org/2000/svg" xmlns:xlink="http://www.w3.org/1999/xlink" viewBox="0 0 497 279" xmlns:v="https://vecta.io/nano"><style><![CDATA[.B{fill:none}.C{stroke:#9cf}.D{fill:#ddecec}.E{fill-rule:evenodd}.F{fill:#aad3df}]]></style><defs><clipPath id="A"><path d="M0 0h32v32H0z"/></clipPath><g id="B" clip-path="url(#A)"><use xlink:href="#B"/></g><pattern id="C" width="32" height="32" patternTransform="translate(-18.3 -7)" patternUnits="userSpaceOnUse"><use xlink:href="#B"/></pattern><clipPath id="D"><path d="M0 0h32v32H0z"/></clipPath><pattern id="E" width="32" height="32" patternTransform="translate(-18.3 -7)" patternUnits="userSpaceOnUse"><g clip-path="url(#D)"><use xlink:href="#F"/></g></pattern><clipPath id="F"><path d="M0 0h32v32H0z"/></clipPath><pattern id="G" width="32" height="32" patternTransform="translate(-18.3 -7)" patternUnits="userSpaceOnUse"><g clip-path="url(#F)"><use xlink:href="#E"/></g></pattern><path id="H" d="M276.6 121l7.6-2.3 1.6-2.5 5-.4-.7 3.6 102.7 1.6 1.6-4 4.8-1.7 4.8 2.9 35.4 2.8-2.3-5.1.2-4.2 3.1-3-4.4-4.1-.7-2.7 3-.9 5.1 3.1.8-4.7 3.8 2.1-1.3 6 4 4.2v6.1l21.7 3.2 2.5-175.5H276.6l.6 5.8 3 4.2-3.1-.6-.5 53.3 3.4 3-.4 5.8-3 36 2-1.7 3.3 1.7-.6 5.7-2 4-1.1-4.6-1.6-2.8zm5.6-107.4l.8-2.5 3.5-1.6h3.5l4.8.5 4.2 2.5-3.5 3.6-5.8 1.3-.4-1.2-5.4.2-1.5-2.4zm.9 29.4l3.1-.6 5.9-2.6 5.8-.5 6.1-.5.2 2.1 1.8 3.4-.4 1.7-1-.9-.8-2-5 1.9-1.8.2 5 2.6 4.3 3.2 5.5-1-4.4 3.6-5.9-.5L297 50l-5.8-1.4-4.9-3-3.2-2.4zm.6 14.7l.5-2 1.8 1.8-2 1.5-.2-1zm3.6 1.6l1.3-4.2v5.2l-1.3-.7zm3.2 53l2-1.8 2.3-2.1.5-.8 1.4 3.4-2.7.8-3.1.2zm.9-52.9l.6-.2 2.8-2.6-.2 4.8-3-1.4-.1-.2zm4.5-53.2l1.5 2.9-1.4-2.2zm1.6-34.2l1-2.5 1.4 1.3-2.2 1.5zm1 89.3l.8-2.2.3 4-1-1.5zm1.8-53.8l2.4-.5 3.8-3 3.2-.5 2.7.9 1.6-.2 2.6-2 2 5.3-5.2 3.5-5.5.6-4.5 2-3-4-.2-2.1zm5.2 97.9l4 .1 1.3.6-2.1 3.3-2.2-1.4-.3-1.2-.6-1zm1.4-66.2l3.1-1.6 5 1-3 4.8-1.9 4.1-2.2-4.6-1-3.3zm.5 25.8l.1-1.5 1.5.7-1.4 1zm.9-71.7l2.2-2-1 4-1-1.9zm4-15l1.4-2.9 1-1.4 1.8 2-3.5 2.2-.5.4zm.2 72l3.3-4.6.8-4.7 2.6 3.4-3.5 4.8-3 1.2-.3-.2zm0-65.7l2.7.2h-2.6zm1.4 123.1l.5-.7 3-1.8-1.6 2.1-2 .9zm3.1-115l2.2-.5 5.2-1.2.9-1.3 3.6-3 2.1-.8 3.9-2.9 5.1-1.5-.5 4.5-3.5 4.6-4.8 2-3.5 4.4-4 3.7-4.3-3.9-2.1-2.8zm3.6 43.2l2.2-.2 5 1.7 3.1 3.8 5.3 2.4 5.4 1.8-1.7 3L343 51l-2.2 2.6-3.6-3.9L333 47l-5.4-3.3-4.1-4-2.7-3.7zM335 12.8l.6-.9 3.6.1 5.4 2 5.4.8-1.2 6.1-3.6 2.4 1 5 5.1-1 4.6 1.9-4.7 2.1-5.7-3-4-3.8-3-3.7.5-1.2 5 2.8.2-1-4.3-1.2-3.6-3.4-1.4-3.3zm3.3-41.6l.3-1.6 3.4 1.7 3.3-1.1-1.3 5.1-4.7-2.4-1-1.5zm1.1 36.9l3.4.8-2.4 2.6-.7-3.2zm3-2.9l1.5-1.5 2.8 5-2.5-1-1.7-2.4zm1.1-46.1l2.9-.7 4 3-4.9-1.7-2-.5zm2.1 97.5l1-1.2 2.8-3.8-1.2 4.5-2.5 1zm2.6-57.4l2.4-.6 2.7-4 2.6 1.9L358-.7l.7 3.2-5.6-.5-4.8-2.5zm3.4 68.8v-.5l3.7-.5-1.4 2.6-2.3-1.3zm.7-9.6l.7-1.2 3 1.4h-3.6zM356 51l.9-1 3.7-1.3-1.6 2.2.4 3.6-3.1-1.5-.3-1.7zm2.5-65.7l2.2-2.4 3 .3-1.8 2.1h-3.2zm.9 44.6l1.1-2 3.5-.9 2.6-2.6-.6 6-5 .2-1.3-.3zm3.8 17.8l3.6.5-2.5 1.6-1-2zm0-90.3l1.8-2.7 3-2-3.4 4.4-1.3.5zM364 72l3.1-1.6-.2 1.6-3 .4zm.2-101.2l1.1-.5 4-1.1 3.2 1-4.3 2-3.9-1zm.6 15.2l1-1 6 .1-.3 1.2-5.1-.5-1.6.4zm6.4 43l.8-4.1 1.5-2.5.4 4.1h4.7l3.6 3.2-4.6.3-5.4-.2-1-.6zm2-57l4-.9-1.5 2.5-2.5-1.5zm4.4 81.6l1.6-1.6 5-2.8-3.7 3-2.8 1.8zm6 3.5l1.2-.1 1.2 1.7-2.2-1zm4.7-31.8L390 22l4.5-1 .3 4.1-3.5 2.9-2.9-2.1zm1.7 38.3l1-1.2 4.2.4 3.8-.4-3 3.6-3-2.7-3 .5zm4.4-35l.9-1.4 3.6-2.4-2.6 5.1-1.9-1zm.8 81.7l2.8-1.3 3.9 3-5.7-.9-.9-.8zm.4-5l4.4-1.6-.6 2.6zm0-47.7l1.3-.5 3.9.9-3.4.9-1.7-1zm31.1-46.9l1-2.7h1.4l-2.4 2.8zm.9 67.8l4.4 1.6 2.7 3.1h-4.5l-2.1-4-.4-.6zm3.4-8.7l4-1-2 1.9-1.9-.7zm4.3-33.3l.3-2.5 4 1.8 1.2 3.4-4.4-1.3-1.1-.9zm3 7.9l3.2 1.6 3.3 2.3-4.7-.3-1.7-3.5zm.8 38.8l.4-1 2.5 1.6-2.3-.4h-.1zm10.1 9.3l4.2-2.1 1.9 4.4-5.1-1-.8-1.2zm1-50.5l2 .7-2-.4zm3 64l1.6-1.2 1 .9-2 3-.6-2zm3-86.4l3.7.9-2.1 2.5 1.3-2.2-2.8-1zm1 59l.5-2.6 4.1 1.3-4 1.9-.7-.5zm.3 14l1.9-2.8 2-.2v-.4h.1l.2-.2h.1l.2-.3h.3l.2-.2v-.2l-.2-.3v-.2h.7v.9l-.2.4v.7l-.2.3-.3.5-.3.2v.7l-.2.2v.3l-.2.3v.7l-.2 1v.1l-.7.9v.3l-.2.1v.2l-.3.3v.1h-1.1l-.1-.1-.2-.3-.2-.2-.5-.4-.1-.3-.3-.4-.1-.7-.1-.8zm7-54.2V38l.3-.6.2-.4v-.2l.3-.2.2-.6.4-.2h.1l.2.1v1.9l-.2.3-.4.1-.3.2h-.6zm0 0"/><path id="I" d="M78.2 97.2l6-2.8 5.3-1.8 5.8-2L102 89l.3.9-1.6 5.7 2.6 5.4 1 6.3 1.7 5.8-1 5 72.6 2.9 6.9-.6 5.4-3.2 3.4-1 5.3 2.6 26.1 2.2-3.7-5-4.5-4.8-2.8-5 1.8-4.2 2-6.8L222 92l5.8-1.7-1.2 6-1 5.4-.4 6 2.8 4.7 3.6 3.9 5.1-1.9 5.8-2.3 4.5-3.4-1.5 3.3-4.5 3.8-4.2 4 5.5 1.2 3.3-.7 1.8-4 1.3.8 1.5 3.6 26.4.3V55.8l-.6 5-3.5-4.4 1-5.4 1.2-1.4 1.9-30.2-5.3.6-4 4-4.5-1.8-2 3.7-5.8 1.4-4.8 3-5-1.7-4.1-1.1-5.1-.8-5-1.9-5.5-1.5 3.2-5.5 3.8-4.4L235 8l2.5-5.3 3.7.3 4.3 4.2 1.2 5.8-.7 5.3 1 1 4.5-.3 4.6-2-1.7-3.9-4.1-.1-3.3 2.2 3.7-5.2 3.7-1.4 5.6.7 4.8-2 4.2-1.1 4.3-1.5-3.8 5.3 4.8 2.8 1-4.5 1.2-54.3-2.9-.6 3.1-7.9h-61.1l-4.2 4.3-3-.7-2.8-1-25.8-2.6 5 1.8 4.6 2 2 1.4v1.1l5.6 1.3 5.2.9.6 3.6-3.6 1-4.2-1.2-1.6 3.5 4.2-.2.4 5.3-1.6 4.8-2.7 5.1-.3 5.5-3.8 5.1L187-19l.8-6-2-5.8-3.4-5.2-3.7-5.9-3.5-3.8-3.5-1.6-5-.4 2.3-2.6-47-4.2 5.7 2.8 4.6 3 3.6 3.5 4.6 4.1 5 4.1 3.7-1.4 3.3 2.6 2.6 5.1 5.2 5 4.5 3.5 2 5.6 1.1 5.6 1.6 5.7-.7 3.7 1 4.4-2 5-1.1 5.7-2.1 3.7-.3 5.1-4.9-3-2.9-2.5.9-5.3 2.6-2.3-2.6.4-2.5-5.6 1-3.6 6.6.7-.5-1.8-5.2-2-6.2-1.9-3.2-5 4.7-2.3 4.7 2.6 2.8-2.5-3.6-3.5-4.3-2.7.3-5-4 .2-3.8-3-5.5 2.4.6 4 3.3 2.9 2.2 3.1-5.5-.6 3.7 3 3 4 1 4.5-5.6-.2-4 1.5 2.1 3.5 1.1-1.3 2.3 1.4.9.6-1.5 5.1 4.9 3.4-.2 5.2 3.3 4 4.7 3.8 1.8 2.2 4-1.7h5.2l4-3.7 4.3 3.2 5.3-2 .1-3.5-5 2.1-5.1-3.3 1.1-5.8.7-6.2 2.6-5 1.3 4.8 4.6 4.9 4.6 4 4.3 3.8 2.9 4 4.2 4.4 4.6 3.6 6 2.4 1.5 2.2 2 4.5 1.6 4.6 2.4 2.4 4.8 3.2 4.4 2.5 1.3-3.6 4.9 3 5.8 2.3 4.8 3.3 5.7-.3.3 4.9-4.2-.8-4 4.5-2 6.6 2.4 4.9 4.8 3.3 1 5.3 1.3.7-2.7 3-5.8-1.3-3.1-5.7-4.1-3-6 2.8-5 4.4-3.6 5.2-2.3 5.6-3.7 4.7-6-.5-5.3-2-5.5-5.9-4.4-3.7.5 1.3-4.5-2.8-4-4.3-3.5-3.7-4.4-3.7-4.2-2.6-1.3-2.2-2-3.5-3.5-4.2-2.4 3.6-.2 6 2 1.6 4.1 5.5.4 1.7-1.2-.3 3.2 5 2.9 5 1.6 2 .4 5 4 4.4 4.3 4 4.5 4.4 2.1 4.1-5.2 1.4-5.8-.3-5.4 2.2-5.3.6-5.1-3h3.9l4.8-3.3 2.3-4.2-.5-3.8-4.2-4.2-4.6-.5-2.4-4.8-3.3-3.5-5.2-2.3-4.6-4.8-2-5.6-1 1.3-2 5.7-3.5 3.3-.8 4.7-3.2 5.1-4.2 2.1-5.7.6-4.5-1.1 4.6 4.2-4.7 1.1-2.3 2-.4 2.5-3.8 1-3.2-5.2-2.5-5.4-2.8-5.2 1.3-6L110 88l6-2 6-2.6 5.8-2.9 3.7-5.3L135 72l4.6-3.5 5 1.5 3.4-1.6 2.1 1.4 1 2.8 2.9-1 2.8 1.1-1.3-5.7-4.8-3-5.7-1.9-1.2-5.1.2-5.9.5-6.1-3.8-4.4-1.7-5.3-3.2-4.7-3.4-3.6-5.2 1-5.7.9-6.3-.9 2.3 5.3 2.2 7 2 9.5 1.5 6 2.2 6.6 2.2 6.3-3.6 4-5.4 2.3-5.6 1.6-5.6 2-6.6.8-6.8 1.2-6.4 1.7-6.5 2.7-3 1.2zm62.2-5.4l.9-2.7 3.7-1.7 2.7 4.7-3.3.6-4-.5zm5.4 7.6l.4-2 1.5 1.2-1.2.5zM148 5.1l1.2-4.2 2.3 1.9-3.3 2.9zm2 95.6l3.3-3.7-2.3 4.2zm21.4-10.8l3.3 2.5 3 2-4.8-1.7-1.2-1.9zm22.7-91.3v-3.8l1.9-5.3 1.5-6.3 2.7-4.5 3.6 4.1 1.4-.8 3.2 4 2.4 4-1.5 5-4 4.3 1.6.2 4.1-3.1 3.3 3.2 4.2 2.7 2-4.3L225-.6l2.5 5-3.9 5.9-4.6 3-5.8-2.4-5-3.4-5.2-3.2-5-1.8-3.7-3.2zm5-22.4l.3-.8 2.8-5.4 4.3 1.5 3.7 3.8-.6 3.7-5.5-1.5-4.6-1zm8.7-14.8l.4-1.8 5-2 3.3 1.4-6 2.4-2.5.3zM222-10l1.2-3h4.1l-2.8-4 2.3-3.5 1-5h5l4.6 1.2.6 5-4 2-3.6 3.3 3.1 3.5-2.3 5.5L228-.9l-3.3-5-2.5-2.8-.1-.8zm7.2-19.5l5.3-.7L236-29l-5 .2zm4.5-10.4L235-41l4.4-2-5.3 3.2zm.1 1.8l4.7-.6 3.8 3.2 1.2 1.8-2 3.7-1.9-2.5-4.2-3.2L234-37zm5 38.1l2.9-6.3 5.5-.7 1.4 3.5-.4 5.3-4-1.5-4.9-.3zm3.5 103.4l.7-1.1 5.4-2.3 5.7-1.5-1.1 2.9-5.7 2.1h-3.9zm4-47.1l1.8.2 2.3-2.6h5.8l5 .8.7 5.3-5-2.5L252 55l.2 1.8-1 3.2-1.2 1.2-3.4-3.9zm1.6-74.3l3.2-4.6 2.1-4.8 4.9-1.5 2.2 2.3 3.2 1.6 4.3-2.1-2.2 5.2-5.5 3-5.7.5-5.7.8-.3.4zm3.5 9.3l4.2-1.5 2.8 3.4-4 4.3-2.3-4-.7-2.1zm6.2-37.7l3.1-2.2 5 1.6-2.7 4.8-3.5-2.8-1.6-1zm.2-5.1l2-1.9-1.5 2.4zm5 104.5l3.5 1.6 3.7-1.8-2.7 2.8-2.6 2.4-1.9-3 .2-1.7zm0-64.2l3.7 1.2-.1.4-.2.7V-7l-.8-.2-.3-.1-.1-.5-.5-.7-.5-.8-.4-1zm5.1-27.4l.4-.4v-1.1l.3-.7.2-.9.4-.6.6-1 .1-.2h.2l.2.2.3 1.2v1.4l.2.9-.2.5-.6.3-.4.3-.3.1-1 .3-.1.1zm.1 0"/><path id="J" d="M-120.2 83.3l5 .6 3.7 3.8 4.8-2.3 1-6.4 4.1-3 3.4 2 3.9-2.9-.8 4.1 3.2.8.3-3 .2-3.2 4.6-3 5.5.7 3.1-3.9 3.2-2.4 3.3 3.5-.7 6.3-3.6 3.8-5 2.2-5.3 1.7-5.3 2.7-4.4 3.2-.2 5.1 1 5.4 2.2 5.9 4 4 2.8 4.6-4.2 3.4 4.1-.2-1.3 2.6 30.9 1.6 2.1-2.4 5-2.6 4.9-1.8-1.6-2 .3-4.9 1.2-3 1.5 5.9V121l4.3-3 4.4.7 5.7.3 4 1.5 6.7.5 1-4.7 1.3-5-3.3-3.3-3.1 2.1-4 .3 4.7-2.6 3.8-1.2 4.8 2.4 3-2.2 3.5-.7v4.7l-4.3 2.6-.8 2.6 1.8-.8 5-.5 6.1-2.2 4.7-.4-4.2 2.9-5.2 2.5-6.2 2.1-5.8 1 45.7.4 3.5-4.2 2.8-1.3 3.1 4.3 4 .4.8-2.2-4-3.2 5.1-2.4 4.4-2.6 3 5.5 5.4 3.7 19.8 2-1.2-5.4-5-3-5-2.8.5-4.8 1.6-4.7-4.5 4.6-1.8-1.5 5.4-4.1 6.8-1.5 3.2-11.6-6.2 2-6.4 2.3 2.1-5.7 3.7-4.8 1-.6-2-4v-3.6l4.6 2.4 3.2-3.4-3.7-4L78.2 54H75v-6l2.5-5.1 5.3-1.3 5.7-1 4.6-2.6 4.5-4 2.7-3.7-5.5.7-3.6 4-5 3h-5.5l-4.4-.9-5.4-.1-2.8-4.5-3.6-3.3 3.8-.5 4.7-1.9 4.6-3.5 2.7-3.7 3-5-.3-3.2-2.7-5.1-.8 4.7-.5 4.9h-2.2l-3-4.9-1.6-5.5L74.6.6l2-4.4-.6-2.9L73-2l-3.9 4-3.6 3.8-.5 4.9-5.2 1.5 1.3-2.8-5.6 1.3-3.7-1.2-4.5.6-4.3.7-6-1-3.5-4.1L36 3.3l5-.3 2 1.4-1.3 1L43 8l6.1-.8 5.7 1.1 2.2-2V2.6l5.2-3.7 2-3.9 3.4-4.1-6 1.5-4.1 3.4-4.7-.8-5.2.7-3.2-.4 3.6-3 4.5-2.1 2-5.6 6 .4 3.3-4-3.5-3.9-2.6-5.5-.7-5.9 3.8-3.5-5 2-4.7 4.8-4.3 3.4-3.6 2-1 2.9 1.8 2.6 1.6 2h-5.4l-4.3-1.6-5.2-2L31-26l4-4.4 3.4-5 3.2-5.6 5-3.3-1.8-3.7-4.4-1-3.9 3.3-.2 4.7-4 4.2-4.4 4.4-5 3.5-4.5 4.4-3.8 3.4-1.6 4.6.2 5.2L10-8.7l4.9 2.4-3 4.7L6.5.2.8.4-.1 0 4-3.5l1.2-4.3L.6-5-2 0-6.9 1.7-13 3.8-18.9 1-24.7.8l-5.9 2.5-6 3.5-5.2 3.1 5.7.4 5.6-2 1.7 3.9-.6 6-3 1.8-1-6-.6 3.1-.5 6.1-5 3.3-2.3-2.1.5 3.6 3.4 1.4-1.8 1.3 5.4-2 4.3-2.4 6-1.7 5-2.6.6 2-4.1.7-2.8 4.5-4.3 3.8-3.4 4-5.5.2-5.5-1-5.5.5-1.9-6.4 1.4-6-3-4-5.6.5-4.1 4-2.3 5.4-1 5.5-1.2 6.2-2.4 5.1-6 .8-5.2-.2-4.8-2.5-4.4.3-3.2 1.6-1-2.2-2.9 2-3.7 3.2-3.5 1.2-2-.6-5.5 1.6-.1 1.2 6.3 2.4 5 .2-3.4 2.4-5.1 1.7-5.7-1.6-5.4 1.1.5 6.7.7 5.7-1.2 3.7zm10-15l1-1 4.6-3 4.6 1.6.9.9-3.9 4.1h-5l-2.2-2.5zM-93 53.7l1.4-2 4.7-1.6 5.3-.5-5.2 2.7-5.2.7-1 1.2zm1.8 39.7l1.2-2 4-.6 3.2 3.5 5.2 1.7 4.6 3.1 2.5 5.1 2.7 5.2 3.1 5-3.7.6-2.6-4.4-3.7-2.4-4.7.6-5-2.6-4.4-4.4-2.2-6-.1-1.9zm4.2-34.5l3.9-.5 4.5-3.4 1.4-4.7 6-1.1 2.2 1.5-1.6 5.2-.7 6.1-3 1.8-6.1.8-5.8.1 1.7-4.5-1.8-1-.5-.4zm6.2-3.7l2.2-4.9-1.4 4.2zm3.4 59h.8l1.2 2.8-2-2.6zm.6-22.2l.9-1.4 4.3-.2 6.6-.4 4.8 3 2 5.2-1.9 4.8 2.5 5 2.9 2.6-4 .2-4.1-3-3-5.1-3.5-6.3-6.1-3.5-1.2-.6zm20.2-28.3l.6-4.7 1.1-5.1 1.4-6 .8-6.4 3.9 5.2 4.1 4-1.6 4.4 3.6 2.9-5.3.7 3 4 5.3-2.7 2.1 2.8-5.1-.5-3.3 4.9-2.2 2h5.2v-2l3.5-1 4-2.2 5.5-2.8-.8-4.4 3.1 3.4 1.7 3.4.7 1.4 3.7 3.8-.2-5.1 4 4.6 3.3 1.4 1.8 5.3-5.7.4h-11l-3.4-1-4.7-1.6-3.5 3-5-.5h-6l-4.3-.4.4-6.1-.7-4.5zm.3 35.7l1.2-4.9 4.7 3.6 3.1 4.9-2.2 2.5-2.5.2-4-4.5-.2-1.2zm5.7-58.8l5-.2 6.1.7 3.8 2.9.1 5.1-4.4-.1 5 3.4-3.1.8-3.6-1.2-3-4.6-4.3-4-1.4-2.7zm3.6 54l2.9.4 6.1.6 5.6-.2 5.9.2 5.3.7 4.6 1.2 5.8 2.2 6 4.1-2.8.6h-5.7l-5.1-2.4-4.9.7-2.6-4.5-2.6 3.8-6-.8-5.5 1-5-2.8-1.8-4.7zm6 9.6h.9l4.8 2.7.5 4.1.9 1.4-4.8 2-.5-5.7-1.7-4.3zm5.8-61l.2-1.2 3.9 2-1.9 4.6-.1-2.3-2-2.7zm6-4.5l1.5-1.2 4.8-.3 4.9 2.2 5.6 1.4-5.2 2.1-4.3-1.3-4.8-1.6-1.6-.6zM-28 7.1h5l1.1 5.5-2.9 4.6-2-4.5-.9-5.6zm7.7.2l4.8 3.4v5l.3 3.6-1.7-2.3-2.7-5-.4-4zm1.1 22.3l.5-.9 5.6.9-.7.9-5.2-.8zm3.4 14.4h4l-4.1.1zm4.3-32l.2-.3 2.1-3.6 2.6 4.1 4.3 3.5-5.3 2.8-.7-1-.1-1.5 3.3-.7-5.9-.8-.4-1.8zm.3 50.5l3-1.2 3 3.7 1.2 5.6-3.3 4.4-1.8-3.6-.9-5.4 3.2 3.5-.7-5.1-3.6-2zm3.8-36.1l.3-.4 1.7 1.7-2-1.2zm.8-17.7l2.8-1.1-1 3.6L-6.5 9zm2.1 9.3l2.4-1.2 4.4 4-3-1.4-3.5-1.4zm2.1 39.9l1-.9-.6 1.6-.3-.2zm2 3.3l4.1-2.3L7 63.4l.5 5.5-1.9 4.6-2.7.3L1 69.7l.2-5-1.5-3.1zM.7 7.7L2.6 7 1.5 8.7.7 7.8zm5.1 80.1l3-1 4.1 2 1.1-2.4 2.6 2.9 1-4.5 3.2.8 5.2-1h5.9L36 84l-2.6 3-4.3 1.6-4.7-1.3-3 3-3.4 1.1-3 3.1-5.9-2.1-3-4.4h-.3zM6 8.7l3.6-2L7 8.4h-.4zm.6 15.9l5.4-1 5.3-2.1-1.8 1.9-5.2 1.8-3.6-.4zm3.2 34.8l1.7-.6-1.6.8zm.6 5l.6-1.3 5 .5-1 4.3-4 .2-.5-3.3zm2-58.8l1.9-2.2 4-1.1 2 5.3 1 5.3-6.6 1.8 4.3-2.8-3.5-1.5-.7-3.8-2.4-.9zm5.8 28.7l1.4-.5 4 1.3-3.7.1-1.3-.9zm1.6-5.3l1.3-3.3 1 2.9-1.9.3zm.2 26.5l2-1.4 1.7 5.5 4 1-1.7 2.7-3.9-1-1.6-5.5-.5-.8zm.4 44.5l1.7-2.4 4.5-.6 1.3-3 3.3.7 3.4-1.4 5.1-2.7 4.8-3.2 5-2.3 5.1 1.6 2.8.4-1.5-1.1-3.2-4.3 5.2-2.3 5.6-1.5 3.5 2.6-2.9 4.8L64 91l-6.6 1.2-7.2 1.6-3.5 3.7-3.8-1.3-5 .7-4.6 2.7-1.5 1.7 3.5.3-6 1.1-5.6-.7-3.1-1.4zm.9-80.8l1-2.2-1 2.5zm2.4-31L24-13l1.8-4.2 2.2-4.4 4.1 1.8 4 3.8v1.4l.5 2.6-2.2 3L33-4l-3.7 2.2-3.2-3-2.3-5.1V-11zm4.8 88h4l3.8 1.8-1.7 1.9-4.7-2.2-1.1-1.2zM31 10.8l2.8 3.2 2.5 5-1 2.3-2.3-4.4-2-5.4V11zm2.6-15.2L37-6.6l3.6-3.9 4-3.3 5.1-2.8 3.1 1-5.1-.4-3 4-2.3 4.5-4 4.5-4.4-.8-.3-.4zm2.7-12.4L39-15l-2.6-1.6zm.4 98.8l2-2-1.2 1.9zm1.8-58.8l1-2.2 4.5 2-5.4.3zM44.7 50l4-4.4-.7 4-3.2 1.1v-.3zm2.7-60L50-9l-2.1-1zM50-25.4l1.5-3 3.5-2.5 2.2 5.6-2.3 4.3 1.6-5.3-3.5 3.6-2-.2-.8-2.3zm2 70.8l1.8-2.3 1.4 1.5-3 1.7zm3.5-23l.8-.6.6.1-1.4.6zm4.7 19.3l3-1.2-2.6 1.6zm1.2-4.5l5.2-1 2 2.3-5.6.2-1.5-1.1zm2.2 14.2l3-1.4 4-1.8-.9 4.1-4.1-1.1-2 .4zm.3-35l1.5-2.7 1.5 3.3-2.3 3.6-.6-4zM68.6 9l.4-.9 2-3 1 6.3.9 5.6-.9 4.7-1.7-6.1-1.4-5zm1.1 54.3"/><path id="K" d="M186.3 64.6l2.1 5.4 3.9 1.8 2.4 4 3.7 3.1 2.4 4.9 5-.1 5.9 1.5-.5-2.5-3-5.3 2.8-3.2 4.3-3.7 6-1.8 5-3.3 2.1-5.5-1.1-5.9-5-.3 1.5 4.9v5.7l-6.3 1.7h-6.8l-6 1.7 1.7-5.6-1.9-5.6-.5 7-3.3-4 .7-5.3 5.3-2.2-3-2-3.1-2.9-1.4 5.9-3.2 4.6-5.6 3.1-1.6 2.1-2.3 1.8zm0 0"/><path id="L" d="M78.2 77l5.3-3.6 4.7-2.4 4.7-.8 3.4-4.6 4.1-4.4 5.6-2 5.3-2.2 5-3 4.7-1.6-3-5.2-.6 1-3 4.1-5.8 2.5L103 57l-5.5 2.1-4.2 3.7-5 .2-4.4-2.8v-3.3L82.3 54l-4.1 10.5 4.2 2 4.3.5-4.9 2.6-3.6 1.2zm0 0"/><path id="M" d="M78.2 121h24.2l-2.4-2.5 2.4-1.6-.4-3.4-1.5-5.6-.5-6.3-4.1 3.4-5.3-2.3-3.1-1-3.6 3.6-4 2.6.4 3.4.5 5.6-2.6-.3zm6.2-11.2l1.3-2 4.3 2.5 3.4-1.3 3.7-1.3.6 3-2.2 4h-3.8l-4.3-.7-2.4-3.6zm2.3 7.4l1.1-.5 4 .6-1.2 2.3-3-2.4-.1.1h-.2l-.4.2zm0 0"/><path id="N" d="M81 49.2l3.2 1 1.6 5.5 4.4-2.3 4-.2V48l-5-.7-6.5.8-1.6.9zm0 0"/><path id="O" d="M168.4 72.6l4.6 3.7 4.6 3.2 4.2 4.3 2.7 2.2-2.8-5.6-3.7-4.8-5.7-2.2-3.8-1zm0 0"/><path id="P" d="M442 116.5l4.2 2 1-5.1-4 .4-1.2 2.4zm0 0"/><path id="Q" d="M114 33.5l2.4 5.5-2.4 4.9 3.5 1.1.8-1.3L117 37l-2.8-3.6zm0 0"/><path id="R" d="M170.6 46.7l5-.3 3.7-2.6-4.5.6-3.5 2zm0 0"/><path id="S" d="M111.7 104.9l3.3-1.9-1-2.3-2.2 3.5zm0 0"/><path id="T" d="M197.5 88.7l6.5-.6-4.8-1.2-1.4 1.7zm0 0"/></defs><path fill="#f2efe9" d="M0 0h497v279H0z"/><use xlink:href="#H" class="B C"/><use xlink:href="#H" class="D E"/><use xlink:href="#I" class="B C"/><use xlink:href="#I" class="D E"/><use xlink:href="#J" class="B C"/><use xlink:href="#J" class="D E"/><use xlink:href="#K" class="B C"/><use xlink:href="#K" class="D E"/><use xlink:href="#L" class="B C"/><use xlink:href="#L" class="D E"/><use xlink:href="#M" class="B C"/><use xlink:href="#M" class="D E"/><use xlink:href="#N" class="B C"/><use xlink:href="#N" class="D E"/><use xlink:href="#O" class="B C"/><use xlink:href="#O" class="D E"/><use xlink:href="#P" class="B C"/><use xlink:href="#P" class="D E"/><path d="M127.2 95l1 6.2 3.1-3.6-3.9-3.3zm0 0" class="B C"/><path d="M127.2 95l1 6.2 3.1-3.6-3.9-3.3zm0 0" class="D E"/><use xlink:href="#Q" class="B C"/><use xlink:href="#Q" class="D E"/><use xlink:href="#R" class="B C"/><use xlink:href="#R" class="D E"/><use xlink:href="#S" class="B C"/><use xlink:href="#S" class="D E"/><path d="M172.6 15.8l4.8 3.4-1.7-4-3 .4zm0 0" class="B C"/><path d="M172.6 15.8l4.8 3.4-1.7-4-3 .4zm0 0" class="D E"/><use xlink:href="#T" class="B C"/><use xlink:href="#T" class="D E"/><path d="M106.4 66.7l5.2.3-1.6-2-3.2 1.6zm0 0" class="B C"/><path d="M106.4 66.7l5.2.3-1.6-2-3.2 1.6zm0 0" class="D E"/><path d="M190.7 51.4l3.7-1.7-3.5 1.3zm0 0" class="B C"/><path d="M190.7 51.4l3.7-1.7-3.5 1.3zm0 0" class="D E"/><path d="M53.3 121l.3-3.5-.2 3.3zm0 0" class="B C"/><path d="M53.3 121l.3-3.5-.2 3.3zm0 0" class="D E"/><path d="M244.3-2.3L247 .2l-2-4-.7 1.2zm0 0" class="B C"/><path d="M244.3-2.3L247 .2l-2-4-.7 1.2zm0 0" class="D E"/><path d="M34.2 120.1l1.3-1.3-1.3 1zm0 0" class="B C"/><path d="M34.2 120.1l1.3-1.3-1.3 1zm0 0" class="D E"/><path d="M292 45.5l3-1.8-2 1.7h-.7zm0 0" class="B C"/><path d="M292 45.5l3-1.8-2 1.7h-.7zm0 0" class="D E"/><path d="M156.2 51.8l5-1.3-5 .8zm0 0" class="B C"/><path d="M156.2 51.8l5-1.3-5 .8zm0 0" class="D E"/><path d="M185 48.5l1-1.8-.7 1.1zm0 0" class="B C"/><path d="M185 48.5l1-1.8-.7 1.1zm0 0" class="D E"/><path d="M79 104.3l.1-.3zm0 0" class="B C"/><path d="M79 104.3l.1-.3zm0 0" class="D E"/><path d="M184.7 121l.6-.3zm0 0" class="B C"/><g class="E"><path d="M184.7 121l.6-.3zm0 0" class="D"/><path d="M163.9 65.2h.4v.2l.4.6.1.3v.5l.2.5.2.2.4.3.4.2h.8l.2-.3.4.2.2.2.4.3v.6l.3.2v.1l.2.3.1.3v.7l.3.3v.4l.1.6h.3l.2-.3.3-.1h.3l.9.1h.7l.5-.3V71h-.3l.2-.2h.2l.6.6.1.1.3.1.2.4v.1l-.5.3-.2.3v.3l.3-.3h.4l.3-.3.4.2.8-.4h-.4l-.6-.2v-.4l.5-.2-.2-.1h-.3l-.2-.1-.4-.3-.5-.5-.3-.4-.1-.7-.1-.5-.4-.4v-.2l-.4-.3-.6-.4-.4-.2-.4-.5h-.4l-.5-.1h-.7l-.7.6h-.3l-.3-.2h-.2l-.1-.1h-.7l-.4-.5-.6-1-.2-.2-.3-.3-.3-.3-.4-.1h-.1v.4zm43.8-21.1v.3l.3.1.3.3.4.2.3.1.2.2h.2l.3.3h.8l.2.2.1.2v.2l-.3.2-.2.2v.4l-.3.5V49l-.1.3v.1l.3-.2v.6h.3l.5-.2.3-.3.3-.3.2-.4.2-.3.6-.5.4-.3V47l.5-.3h.2l.3-.3-.2-.4h-1.3l-.1-.4.2-.1.4-.1h.6v-.3l-.5-.6-.3-.5h-.5l-.5-.2h-.3l-.2-.3-.3-.5-.3-.4-.4-.2h-.3l-.6-.3-.2-.1h-.2v.3l-.3.1-.2.6-.1.2v.2l-.3.2h-.1l-.2.1v.2zm0 0" class="F"/><path fill="url(#C)" d="M103 27.4l4.9 2.6-1.9-3.7-2.8 1zm0 0"/><path d="M230.3 78.8l.2.2.4.1.5.3h1.1l.5.5.3.2v.9l.1.3.2.2h.6l.1-.2.1-.2.3-.7V79l.3-.4v-.8l-.3-.2-.2-.1h-.1l-.8.4h-.4l-.2.1-.5.2h-.4l-.5.1-.4.2-.5.2zM243.2 26h.1v.4l.1.2h.2l.2.4v.1l.2.2h.2l.1.2v.3h.4l.3.4v.3h.2l.2-.1h.1l.5.2h.1l.1-.1.2-.3.2.1v-1.2l-.5-.5-.6-1-.1-.3h-.1l-.3-.1h-.5l-.3.1-.2.1h-.2l-.2.1-.3.2zm136.4 22.9v.1l.3.4.3.2h.3l.4.2h1.9l.2-.3h.1l.1-.1.1-.4-.2-.4-.1-.1-.3-.2-.9-.2-.1-.1-.5-.2-.3-.3-.5-.2h-.1l-.1.1v.6l-.5.4zM261.5 21.4l.3.9h.1l.1-.3h.4l.3.3.3-.5h.5l.3.2.1.2.3-.2h.3l.2-.1v-.5l-.3-.4-.1-.3v-.3l-.5-.4h-.1l-.3-.3h-.3l-.3.3h-.5l-.4.3-.2.2v.5zm1.3 31.6l.1.3.2.1v.4l.1.1v.2l.2.1h.4l.2-.5v-.1l.3-.2.1-.2h.3l.2.2.3.4.2.3.3.3.3.2h.3l.1-.2.1-.3v-.7l-.4-1h-.9l-.5.1-.5-.2-.6.2-.4.3h-.3zm83.9-3.5v.3l.3.2v.5l.3.5.2.2.2.3.3.1.1.4h.3l.6-.4h.4V51l-.2-.2-.2-.4v.6l-.2.2h-.5l-.3-.2-.2-.5-.3-.6v-.5l.2-.5h.9v.4l.2.1h.5v-1.1l-.6-.3h-.9l-.3-.2h-.5l.2.4v.3l-.2.2-.1.2-.1.3zm36.9-2.3v.6l.3.2v.2l.3.2.2.1h.8l.6-.2h.2l.1-.2h.1v-.3h.3l.1-.3V47l-.3-.1h-.2l-.1-.2h-1.4l-.2.1v.2h-.1l-.4.2h-.2zM146.1 76.3l.2.4v.3l-.1.2.1.3h.5l.2.1.2.2h.4l.1.1h.3v-.4l.2-.2-.2-.2-.1-.5-.2-.2-.2-.5-.3-.3-.2-.3v-.6l-.5-.1h-.1l-.2.2V76zM348 45.2v.3l1 1.1.5.4h.3l.2.2h.7l.3-.3.2-.1v-.1l.2-.1v-.2l-.4-.2-.2-.2-.4-.2-.6-.3-.7-.2-.1-.1h-.3l-.5-.2h-.1zm0 0" class="F"/><path fill="url(#E)" d="M123.7 85l3 2-2.5-2.1zm0 0"/><path fill="url(#G)" d="M114.7 41.7L116 40l-1.1 1.4zm0 0"/><path d="M428.8 82.8v.2l.2.3.2.8v.3l.1.3V86l.2.2h.1v-1.6h.2v.4h.7v-.2l.2-.2h.3v-.2l-.1-.2-.3-.2v-.4l-.2-.2-.2-.3V83h-.4l-.1-.2v-.1h-.2v-.2h-.3v.2l-.2.1zm-273.5-4l.2.4h.3l.6.1h1l.1-.2.5-.1h.5l.3.1.1.3v.2h.1l.2.2h.6l.2.2h.4l.4.5.2.1.6.1.2.3h.3-.1l-.1-.2v-.3l-.4-.1h-.1v-.2l-.9-.3-.2-.2-.4-.2-.3-.2-.6-.4-.3-.2-.4-.1H157l-.2.2-.4.2h-.3l-.4-.1zm79.1-54v.4l.4.3.2.2.2.1.1.2.3.2.2.2.2.3h.3v-.4h.7l.1-.1v-.3l-.5-.5v-.2h-.3l-.6-.5-.7-.1h-.3zM166.6-.5V0l.4.2.3.3h.4l.3-.5.3-.5v-1l-.1-.1h-.4l-.8.4-.3.2zM355 48h.3l.2-.3h.5l.2.3.3.6h.4l.2-.2h.2l.4-.2.2-.2v-.3l-.1-.2h-.2v-.1h-.9l-.2-.2h-1.4v.4l-.3.2zm-120.7 8l.2.2.3.2h.4l.3.4h.3l.2.2h.3v-.3l-.3-.5V55h-.3v-.5l-.7.6-.2.2-.4.5zM424 65.5l.4.1h.6l.2-.3.2-.3h.2v-.3l-.2-.5v-.3h-.2l-.2-.4h-.5v.5l-.3.3-.1.2v.7h-.1zM190.9 24.8h.1l.1.2.3.2h.2l.4-.2.7.3.3-.3h.1v-.3h-.2l-.1-.2-.2-.2-.1-.3h-.2l-.1-.2-.3-.2h-.6l-.2.4-.2.4zM277 50.7l.2.1v.4l.3.1h.1v.2h.4l.1.2v.1l.3.3v.2h.5v.2h.4l.1.1h.2l.1-.4.1-.1h.2v-.4h-.5v-.2h-.2v-.1h-.3v-.1h-.3l-.1-.2h-.6l-.4-.1-.2-.3-.4-.1zm82.5-17.1h.7l.1-.2h.1l.4-.3.3-.1.1-.2h.1l.1-.3v-.2l-.4-.2V32h-1.2v1.3l-.1.1zM337.7 9v.2h.3l.4-.2h.2l.2-.2h.4l.4.2h.2v-.7h-.1l-.3-.2h-.1l-.1-.1-.4-.1-.1-.1v-.1l-.2-.1v-.1h-.5V8h.4v.5l-.6.2zM260 23.9v.6l.2.3h.1l.2.1v.3l.3.1.2.3.2.2.1.2v-1l-.2-.3-.1-.5-.1-.3-.2-.3-.1-.2-.2-.1-.2-.3h-.1l-.1.4v.2zm137.5 41.8v.4l.2.2.2.1v.2l.1.4h.2v-.5l.2-.2v-.1l.1-.2.2-.3v-1.2l-.2.2-.6.1-.3.4zM339.8 6.4h.2l.4.2.6-.4V6h.5v-.3l.1-.3.2-.1v-.1h.2v.1l.2.2V6l-.2.1v.3h.2v.2h.5v-1l-.3-.2v-.5h-.2l-.5.1-.5.3-.6.4-.4.3-.2.2zm-48 8.6l.2.2.2.1.3.3h.2l.1.1h.2l.5.3h.3l.2-.3v-.4l-.4-.1v-.1l-.3-.3h-.3v-.1h-.1l-.4-.3h-.5l-.2.4v.1zm53.1 11l.1.4.3.1.1.1.3.4h.1l.2.1h.1l.2-.1h.2l.4.2.1.1h.4v-.1l.3-.2v-.3h-1l-.2-.2-.3-.2-.4-.3h-1zM329 19.3h.1v-.2l.3-.1h.1l.4-.4.7-1h.2l.2-.3V17h-1v.2l-.6.4v.6l-.2.6-.2.3zM273.6 51v.1l.2.3h.4l.3.1h.5l.3.4.3-.3v-.4l-.3-.4-.1-.2h-.2l-.3.1h-.1l-.9-.1zm128.8 43.5l.3.4.3.1.3.1.3.1.3.2.2.1.2.1h.4v-.2l-.5-.2-.2-.4-.6-.4v-.2l-.3-.2-.1-.2h-.2l-.1.2h-.2v.3zm24.3 14.1v.3l.2.3h.1v-.2l.2-.1v-.3l.2-.1.3-.3.2-.2.2-.2.2-.2v-.3h-.5l-.7.5-.3.3-.1.4zm-26.2-74.5l.5.7v.1l.3.2v.1h.4v-1.5l-.1-.1h-.4l-.7.6zm53 75.9h.2l.2.3h.4l.2-.3v-.2h.3v-.2l-.3-.2-.1-.1-.1-.3h-.3v-.2l-.3-.2h-.1v.8zm18-23.6h.4l.1-.4.6-.4.4-.2.1-.1V85h-.9l-.2.4h-.2l-.1.3v.3l-.3.3zM354.8 31.7v.1h.7l.5-.2v-.2h.2V31h-.2v.2h-.4l-.2-.4-.4-.2h-.2v.9zM-76.9-139.1l2.2 1.5-.1.7-1 .9 1.8 3 1.5.4.4-.8 1.1-.1h1.4l1.5.7 3.1 2 .7 1.2 1.3 1 2.8 1.2.2.7 2.5 1.7v.7l1.1-.3 1.7 2.4.6.2.5-.3.3.7 1.1.6 3 .6.8 1 3.4 2 .3 1.6-1.3 1.3.3 1.7 2.6.8 1.7-.2 1.8 1 2.1 5 3.5 3.9 1.3 2.5 3.5 2.2 2.2 2.5 1.4 2.2 1.6.2 1.5 1.9.5-.2 2 2.6 1.1.6.9-.2.5.9.5-.2 1.3 1.4 4.1 1.4.6 1.5 1.2 1 1.3 2 1.5 1.4v2.4l1 .5.2 1.1 2.7 1.2 1.8 2.6 1.2.6.3 1 1 1.4 1.2 1v.6l1.4.1v.6l1 .5.2 1 3 3.1 2.3-.1.7.5 1 2.8 1.7 1.4 2 .7 1.3 1.1h3.3l4.1 4 2.3.9 2.8-.2.2.3 6.1-1.7 3.4 1.3 1.2.9 1.6-.6 2.3 1.6-.3.4 1-.4.2.5 1.2.3.3.6.5-.2.2.7-.6.4-.4 1.2 2.8 1.5 1.6-.4.8.4 3.4-.7.6 1 3.4 1.9 2.1-1.3 1.6-2.1 2.2-.2.7.4-.3 1 2.2 2.2.2 1.8.5.6 1.5.4 3-1.4h1l2.3 2.8-1.5 4.3.6 2h.5l.4.2-.9 1.5 2.6 3.2v3l1.1 2.4 1.2 4.5.9 1.5 2.4.5 1.3.8 1 2.6-.2 2.5 1.5 3.5.7 2.8 1 1.3h33.1l-1.2-.3-.6-1.4-.2-2.9-.5-.7L116-7l-4.7-4.5-.6-1.1-1.4-.8-.6-2 1.3-2-.8-.7v-1.7h-.5l-.7-1.9-1-.3-.2-.5-.1-2.5-.8-1.3-.9-4.3-1.8-1.5.2-1.6-.8-2.3-2-2 .3-1-1.8-1.7L95-49l-1.1-1.6-.7.2-1-.7 1.4-2.2-.4-.4 1.8-1.4.2-1 2-.4 3.3-2h1.5l2.6-4 .1-1.4-.7-.6-.8-1.9.4-1.8-.4-1 .4-.6-3.8-1.2-.4.4-2.2.1-.5-.4-.1.3-1.9-2.2-1.4-.1-.3.4-3.6-.3-1.5-.5-.2-.7-.9-.5-2.9-.6-2.6.1-2.2.8-2.3-.8-1.2.5-2.5-.5-2.1.4-.6-.4-2.6 1.3-2 .1-1.9-1.8-1.5-2.3-3.1-1L55-79l-2.1-.5-.7-1-1.6-.7h-1.7l-1.3.4-2.2-1.1-4.3-.1-1.6-1.5-.3-1.2-7.4-2.8h-1l-1.4.7-1.8.1-1.5-2-.3-3-2-1.3-1.4-1.8-1.5-.4-.6.2-3.6-2.2-1.4-2 .3-.8-.3-1-2.5-1.2-1.2-1.3-.4-1-.6-.5-.6-2.5-3.4-2.7-4.3-2.3-1.3-2.9-3-2.3-1.1-1.5h-1.4l-.5-.6-3-.8-1.9-1 .9-2.6-1.4-2.2.2-1.4-1.6-2.6v-1l-.6-1-1.7-1.7-.1-2.9-1-3.5.4-1 2-1.3 5.2-1.6-.7-.8-1 .4-1-.2h-.6l-.3-.2.2-4.1-.5-1.2.5-1-1.6.5-.3-.3v-.9l.6-1-.2-.6.4-.3-1-2.8.5-.1.6.6 2.6-4.7 2.2-1.3.5.3.3-1.2 1 .5.4-.6.3.3h1.2l5.6-2.2-1.6-1.8 1-1.2-1.9-.8-3.2 1.1-1.7-.2-.8 1-1.7.8-1-.4-.9-1-4.3.6-4.4-1.1-5.6.5-3-.6-1.8.3-2.2-.4-2.2 1-.6-.2-.8-.5h-1.3l-.6-1-1.2-.2-4.6-3.4-2.4.4-3.8-3.6-5.5-2-1.8-1.5-2.7-1.3-2.2-2.6-1.3-.5-.3-1-.8-.1-2.3-2.3-5.9-3.2-3.1-4v-1.8l-1.1-2-1.4-1.9zM88.5 0l3.2 4.5 1.3-.3 2.5.8 3.2 3.2.5 3.8.4.8 1.4.8.5 1.4-.1 1.1.8.9v3.2l.6 1.1 4.9 4.7.3 1.3v2.6l.3.8 2.3.9 1.4 1 1.5.2.5.7 1.3-.7.6-1.8v-.6l-1.5-1.6.8-.8 5 1.2 4-1.4 5-.3.1.3.4-.4 4-.7.3.4.5-1.3-2.4-7.8.6-1.9-.3-2.4-1.8-1.4-2-4-3.2-3.6-.1-1.4-2-2.8-1.7-.5zm0 0" class="F"/></g></svg>