<svg xmlns="http://www.w3.org/2000/svg" viewBox="0 0 497 279"  xmlns:v="https://vecta.io/nano"><style><![CDATA[.B{stroke:#fff}.C{stroke:#8d618b}.D{stroke-linejoin:bevel}]]></style><filter id="A" width="100%" height="100%" x="0%" y="0%"><feColorMatrix in="SourceGraphic" values="0 0 0 0 1 0 0 0 0 1 0 0 0 0 1 0 0 0 1 0"/></filter><mask id="B"><g filter="url(#A)"><path fill-opacity=".5" d="M0 0h497v279H0z"/></g></mask><clipPath id="C"><path d="M0 0h497v279H0z"/></clipPath><path fill="#f2efe9" d="M0 0h497v279H0z"/><g fill="#aad3df" fill-rule="evenodd"><path d="M-5.3 38.5l.3.3.5.2h.1l.4.2 1.5 1.5h.5v.3h.2l.1 1-.1-.2-.4.2h.3v.2l-.5.1.4.3.2-.2 1 .1v.2h.1l1.5.7.2.5v.1h.5v-.3h.4L2 43h.2l.1-.5.2.1v-.2h.1l.8-1 .2-1.2.6.4v.2h.3v.2l.9.2.2-.3.4-1 .1.4L8 40l.7.2.1.2.6-.1v-.1h.5v-.4h.1v-.3l.3.1.2 1-.1.7h.1l.2 1v-.2l.3-.1v.8l.4.5v.2h.2l.3.5v-.3h.2l-.4-.2-.2-.5v-.8l.1-.2-.5-1.2v-.6l-.5-.2.3-.2h-.3v-.2h.2v-.4l1.3.8h1.1l.3.3V40h.5v.1l.4-.2v-.1h.1v.2l1.5-.1v-.1l.2-.8h.2l.2-.5h.2l.3-.5v-.2l.1-.3v-.8l.3-1.3h.5v-.5h-.1v-.3h-.4V34l-.3-1h-.3l-.1-.4h-.6l-.1-.6.8-.2v-.2H18v-.3h.6v-.2l2.1-.5v-.2l.4-.1v-.7h.5v-.2h.1l.2-.4v-1.7l.3-.3.2-1.1-.2-.7.2-.4h.2v-.6h-.1l-.1-.8h-.2V23l-.2-.3-1.4-3.1v-.2l-.2-.1-.3-.3v-.2H20l-.7-1.5h-.1V17H19l.1-.4h.1v-.1l.2-.5v-.4l.3-.3-.1-.5v-.1h-.2v-.5l-.4.4-.3.4-.5.2h.2v.1l-.4.1v.1h.2v.5h-.1v-.3l-.1.1v-.2h-.5v-.4.2h-.2l.1.4h-.2l-.2.2h-.3.1l-.4.2.3.4v-.2h.1v.1l.7-.2.3-.3v2.6l-.2-.5-.3.3v-.2l-.2.5H17v.1h.6v.2H16l.2.3H16l-.2-.1.2-.2-.3.1.2.6h.2v-.3h.1v-.1h.5l.3-.1h.5l-.5.2-.1.2h-.2v1.1h.3l-.7 1.3v1l-.2.5H16v.3h-.5l-.4.2-.4 1v.2l-.1.2H14v.2l-.5.2.1-.3h.2-.4l-.4-.9v.1l.2 1.2H13v.1h.3v.2H13l-.2.6V28l-.2.4h-.3v.4l-.2.3-.2 1.5h-.2l-.3 2-.4.7-.5.2v1.6l.2.3v1.2l-.8.4v-.2l.5-.2v-.1l-.8-.1-.2.1h.2l-.1.4h-.2l-.3-.1h-.1v-.2h-.3v-.1.1l-.3-.1-.1.5h-.4v-.2h-.3l-.4.2h-.5v.2H7h-.4l-.4.1v.2l-.5.2v.1l-.2.2.4 1h-.1v-.2H5l-.1-.7-.4-.1h-.7v.2h-.3V38l-.4.3-.1.4h-.2v-.5.3h-.3v-.2h-.2v-.1h-.2V38l-.7-.3v.1H1h.3v-.3l-.9.2v.1h.2v.2H0v.5l-.4-.2v.4h-.4v-.4H-1v-.2h-.1v.2h-.2v.2h.2l.1.8v.4h-.1v-.2h-.5v.2l.7.3v.5h-.6l.2.1-.8-.2V40l-.4.2V40l-.2.1V40l-.7-.4v-.3h-.2l-.4-.6h-.5v-.1zm5.3.1v-.2l.4-.4v.3H0zm.3-.6h.1v.2zm.7-.3v.1zm6.8 1h.1l.1.3h-.2zm.5-1.7l.2-.3h.2v.3zm2.2 3.8h.2l.3.3h-.2v.2h-.1v-.2l-.3-.1zm2.7-15.3h.2l-.1.4v-.3h.1-.2zM194 206.7v.5l.2.5.3.3.2.2v.2l.5.4h.5l.3.5.6.3.3.2.5.1h.5l.3.3h3.2l.6.2h.3l.1-.2h.6v.3h.2l.4.2v.3l.4.3 1 .3v.1l.3.1.8.6.7.3h.3v-.3h.5v-.4l-.2-.6h.4v-.1h.2l.5-.1h.9l.6.3h.3l.2-.1v-.2l-.5-.2-.2-.3-.7-.7h1.1l.2-.6-.6-.4h-.6v-.6h-.2l-.3-.2-.5-.1v-.9l-.4-.4v-.2l-.6-.4-.2-.3-.8-.6-.2-.5-.3-.3-.3-.3-.4-.1-.1-.2-1.2-.5v-.6l-.3-.4v-.7l-.1-.2-.1-.1-.5-.2-.5-.2h-.2v-.4l.2-.3v-.3l-.2-.5-.3-.2-.4-.1h-1v.7l-.1.1h-.4l-.3-.2h-1.3l-.6.7-.1.3v.2l.3.4.4.6-.2.2-.2.2-.1.1-.7.2-.3-.3-.1-.1v-.3l-.2-.2v-.4l-.2-.1-.4-.1-.3-.2h-.3v-.7h-.2v.5h-.5v.2l.3.2v2l-.1.3v.4h.3l.3.4.4.1.6.1.3.1.2.2.1.2h.3l.2-.3-.2-.3-.4-.4h.3l.2.2.3.2h.8l.8.8.6.1v.4l.2.4 1.1.6.7.3.5.4h.1l.4.3v.3h-.4l-.1.2v.4l-.1.2v.2h-.2v-.1l-.1-.2.1-.1v-.4l-.2-.3v-.4l-.5-.5-.3-.3h-1.5l-.3-.4-.6-.1-.6-.2v.2l.4.2.2.1.2.2v.3l.2.1.4.2h.4l.2.3v.1h-.2l-1.3-.3h-.2l-.4-.2-.8-.4-.7-.4h-.1l-.4-.2h-.2l-.2-.2-.5-.2v-.2l-.3-.1h-.3l-.2.1-.1.4zM363 244l1 .3.2.4.5.5-.3.5.6.6-.7.2v.4l.7.1.5.3v.4l.3.5.2.2h.6l.5.2.7-.2.2.5-.7.3.8.6.2-.2v-.4l.4-.2.3-.4v.5l.4.5-.2.7-.2.4-.2.7.4.5v-.2l.3-.5.3-.2.4.3.1-.4h.7l.2.2h.1l.7.4v.7l.4-.3.3.1.1.6.2.5.4.5.4.4.2.2v.1l.2-.1-.2-.2v-.8l.4-.2.6-1.3.3-.7h-.3l-.4.3-.3-.1.3-.4h.2v-.2l-.4-.6-.4-.8-.4-.5-.6.3-.2-.5v-.7l-.7-.1-.1-.2v-.5h-.1v-.4h-.5v.5h-.3l-.5-.3-.3-.5-1-2.2v-.5h-1.1l-.6-.3-.5.3-.9.6-.3.1-.6-.2-.9-.5-.4-.4h-.5l-.5.3zm4.3 3.2v-.3l.5.1.5-.2 1 .8v.6h-.3l-.4.4h-.2l-.4-1h-.4zm3.7 3.5l.4-1-.2-.5.4-.3.6.1v.5l.5.6-.1.1h-.6l-.1.8v.4zm-62.8-9.8l.3.1 3.8 2.8.9 1 .6.2h.4l1.1-.4.3-.2v-.4l-.1-.3-1.4-1.2-.5-.6.1-.3.6-.3.3-.4-.1-.4-.5-.5-.2-.2-1.1-.6-.3-.1-3.4-.9-.3.4-.1.3.6 1-1 .5zM174-2.3v.4l.3.4h.4v.2h.4v.2h.9v-.3h.3v.6l-.3.2v.5h-.4l-.1.2v.6l.1.3h.8l.6.5h1.2l.5-.1V.9l.3-.2.2-.7h.5l.3.8.5 1 .5 1.1.7.1.6-.1.1-.3.6-.3.6-.3 1-.1h1l.9.2.2.8.3.4.4-.3.7.3.5.2.8-.9.6-.6.6-.8.6-.4.6-.2.4-.6-.3-.4-.7-.6-.6-.3-.5-.7v-.4l.2-.6.6-.4.4-.6h.4l.7-.4.6-.1.4-.3v-1.4l.2-.3.8-.3.6-.4.3-.5v-.8l.3-.4.4-.6.5-.2.6-.1.2-.4v-.2l-.2-.1v-.2h-.5l-.1-.2h-.2v-.1h-.2l-.1-.2v-.1h-.2l-.2-.1h-.2v.3h-.1v.1h-.5l-.1.2v.1h-.1v.2l-.1.3-.2.8v1l.1.6h-1l-.4.4V-5h-.7l-.8.5-.4.3-.4.3-.7.9-.4.4v1l.5.6.9.4.5.4v.5l-.3.2-.6.2-.5.4-.4.6-.5.6-.2.5-.6.3h-.4l-.3-.9-.4-.2-.1-.7h-.3l-.3.2-.4.2h-1.5l-1-.2-.6.2-.7.3-.6.3-.4.2-.3-.2-.1-.4-.4-.7-.3-.6V0l-.6-.4-.2-.1-.5.1V0l-.3.4-.2.4-.5.2h-.6l-.5-.1-.4-.3h-.4l-.2-.4h.1l.3-.2v-.1h.3v-.5h.1v-.6l-.4-.7-.3-.1v.4l-.4-.1V-2l-.3.2h-.7V-2h-.3l-.2-.3zM39.5 58.4v.3l.7.6.4.5.7.2h.7l.2-1 1.1-.5v-.7l.3.3.7.3.7-.3v-.2l-.2-.3.3-.2.1-.4v-.7l-.4-.3-.4-.6V55l-.4-.6h-.3l-.5-.4-.5-.2h-1.3v.9l-.4-.2-.1.3-.3.2v1.2l-.4.5H40zm89.6 157.2h.1v.3l.2.1.4 1.2v1.4l-.2.4.2.5.3.1h1.5l.4.4h.3v.3l.1 1.1v.3l.1.9.3.1.6.6.6.5.4.6.2.8.5 1h.2l.3-.2.4.2.2.5.3.8.5.2.2.6.2.4.1.6.2.5.3.5v1.1l.3.3-.3.3v.9l-.2.1h-2.4l-1 .2.3.8.9-.2.7-.3h1l.5-.1h.8l.2-.4-.2-1-.2-.5.2-.5v-.4l-.4-.8-.2-.6v-.5l-.6-.5-.2-.6-.4-.3-.2-.3-.3-.8-.4-.4h-.4l-.5-.8v-1l-.4-.3-.6-.7-.4-.3-.6-.4-.1-.6v-.5h-.1l-.1-2-.3-.2-.4-.9h-.2l-.1-.3h-.3v-.3h-.2l-.7-1.4h-.1l.2.7h-.2v-.3h-.2l-.1-.5h-.4l-.1-.2v-.5l.7-.5v-.1h.2l.3-1.3h.2V212h-.1v-.3h-.2l-.1-.7v-.6h.1l.3-.4.8-.5.2-.7.4-.1v-.1l-.7.3v.1h-.2l.2.1v.5h-.6v-.2h.1v-.5h-.2.3v.1h.2v-.5h-.3l.2-.5h.1l.2-.4h.1v-.1h.2l.3-.5h.2v-.9l1-1 .2-.2h.3v-.3h.3v-.1h.1l-.1-.1-.7.2v.2h-.2v.1l-.7.4-.5 1.5h-.2v.2-.8h-.4v.9l-.2.6h-.1l-.1.3-.3.2v.6l-.3.7h-.1l-.2.3v.2l-.1-.3-.2.1v2l.4.2.2.4-.1.7v1.1h-.3v-.2l.1-.5-.2.1v.7l-.1.2v.1l-.3.5-.3.2-.1-.3v.4zm-81.9-98.1v.2h.2v.2l.4.1v.1h.4l.5.2v.1h.3v.2h.2l.5.2v.4h.3v.2l.2.2.2.3.3.3.4.3v1.2l-.1.5h-.2v1.2h1.5l.5.3h.7l.6-.1h.6l.5-.3h.8l.2.3.5.2.5.3.5.2.5.2v.2h.4v.1h.3v.4h.2l.3.5.1 1h-.1v.1l-.4.2v.2l-1.4.3h-.2v.1l-.3.1-.1.4h-.2v1.3h.2v.3h.5v-.1l.2.4h.3v-.4h.4l.3.1.9-.2v-.5l-.4.3h-.3v-.6h.1v-.4l-.3-.2-.1-.1.1-.4h.5l.1.2h.5l.5-.2.5-.3.4-.3H61l.2-.4H61v-.2l-.1-1v-.7l-.2-.4-1.2-.3v-.3h-.2v-.2h-.6v-.3h-1.3v-.2l-1-.2v.2l-.5-.2h-.2v.2h-.4l-.5-.3h-.4l-.4.4h-.4l-.2.2-.7-.3-.3-.1-.4-.1h-.7l.1-.1-.1-.3v-.1l.2-1 .1-.3.1-.6-.1-.2-.2-.3h-.2v-.2l-.7-.3v-.8h-.2v-.1H50v-.3l-1.7-.5v-.2h-.5v-.4l-.4.1zm29.3 99.7v.8l.3 1.8.2.9-.1.3v.7l.3.1.1.8v-.2h-.1v.2H77v.3l.6 1.8.4.5v.1l.2 1.3v.1l.4 1.6h.1l.3-.3v-.3l.8-.5-.3-.8-.5-1v-.4l-.2-.4.4-.2.2-.1v-.5l-.1-.6-.7-1-.4-.8v-.9l.3-.4-.5-.6v-1.8l-.2-.4v-.3h.2l.1-.2h.2v-.2l.3-.1.4-.5h.2v-.4l-.4-.6h-.1l-.3-.4v-.6l-.2-.2.1-.5v-.7h.9l.2-.2v-.2l.3-.2v-.3l-.2-.1v-.4l.5-.2.1-.1.1-.2h.4v-.3l-.4.2-.9.5h-.1l-.2.4v.2l.2.5v.2h-.7l-.5.3v.1h-.1l.1.9-.3.3-.5.3.4 1 .4.2.3.5h.2l-.3.4h-.1l-.2.5h-.1v.1h-.3l-.1-.3h-.8v.3zM28.3 31.3l.1.3.8.6.2.2.3.4.2.3h.7l.1-.3v-.4l-.2-.4v-.8l.5-.5v-.6l.3.1h.4l-.1-.5-.2-.7v-.4l.1-.2.2-.4-.2-.4-.6-1.6-.2-.7h-.2V27h-.2l-.2.2-.1.8-.1.3h-.6l-.4.2v1.8l-.5.6zm0 0"/><path d="M59.6 129v.4h.5l.2.2h-.1.2l.6.4.4-.5.2-.3.4-.2.5-.1.4.1h.5l.4-.1.7-.3.6.1v.2-.2l.9.1v.4l.2.7h.2l.2.3h.4v.4h.5l-.1-.4h1.3l.3 1.1h-.1v.5l.1.7.1.2.2.3.4.6.3.2.4.3.3.3.3.9.3.1.3.6h-.3l-.5-.1v.1l.8.2h.3l.1-.2h.4l.4-.1.5-.1.3.2.4.9h.2v.7l-.2.1-.3.3v.5h.1l.2.5h.2l.3.7h.2v.3h.3l.2-.2-.2-.3-.2-.3-.3-.3-.2-.3v-.3l.3-.4v-1.2l-.5-.3v-.4h.2l-.3-.4-.1-.1-.2-.1H73v-.2h-.2l-.2.2-.2.3h-.1v.1H72l.1-.3h-.5v-.1l-.2-.4-.4-.3v-.3l-.2-.2-.1-.3-.2-.3-.3-.2-.2-.4-.2-.4-.3-.2v-.8h-.1v.3h-.2v-.5l.1-.6h-.1v-.2h.2l-.4-.4-1.8-.4v-.2l-.4-.1v-.2h-.1l-.2-.3h-.1v-.2H66v-.2l-.3-.2h-1.6v-.2h-.4v-.2h.1v-.3l-.5-.3h-.4l-1.2.2-.2.7h.1v.6h-.2v.2h-.1v.2l-.6.1-.2-.1v-.3h-.7zm6.9.9h.2v.1h-.1zm.2.1h.3v.1h-.3zm.3 0h.5v.1H67zm5.7 5.7v-.2h.5v.1h-.1v.1zm-12-11.4l.2.4.1-.1.2-.7h.6l.2.5.1.1.3 1 .2.1h.6-.7l-.1-1.3h.1l.6-.2.2-.5h.2v-.2l.8-.6v-.2h.5v-.3l1.8-.5v-.2h-.2l.6-.5h.2l.1-.3h.3v-.2l.3-.5.3-.4.3-.3v-.2h.2v-.2l2.1-.4.5-.2.8-.2v-.2h.9-.2.1l.1.4h.6v-.3h.2l.2-.2h.7l.2.2.3-.2.2.1h.4v.5h.2v.2h.7l.1.2h.2v-.3h-.8v-.2l-.2-.1-.1-.4-.5-.3-.8-.1h-.7l-.1.3-.6.3v-.2l-.5-.2-1.2.2v.2l-.4.2-1.7.3v.1h-.6l-1.4 1h-.2v.6l-.4.1h-.4l-.4.3-.6.3-1 .7v.1l-3.1 1.3-.1.3H61v.9zM151.4-9.5l.3.7 1-.3v.4h.1-.1l.3 1h.3v-.2l.3-.1.2 1 .4.3v.3l-.3-.1v.1h.4v.4h-.3v-.2h-.2v.2h.1l-.1.4v.4l.3.2.1-.1h.2v-.2h.6-.2v.3l.1-.1v.1l-.3.3-.1.4h-.2v.3h-.3v.6l.9.4v.2h.2l.2.5h.3l.2.3h.2v.2h.2v.3h.1l.2.5h-.1l.2.1.1.3.7-.1h.1-.1v.4l1-.3-.3-.1h.6v-.1h.4V-1h.4l1-.8v.2h.1l.7.1v.2h.3l.2.3h-.1v.4h.3v.1l.3.3.1.7h.2V.4h.3v.1h.1v.4l.2.1.1.3h.2v.4l.4.4h.1v.3h.4v.3h.3v-.2l.3-.1h.4v.1l.1.2h.1v.2l.5-.2v-.4h.5l.1-.3h-.1l.8-.3.6-1 .5-.3h.3l.3.1h.9V.2l.5.4 1.2-.2V.3h.3V0l.6-.5v-.1h.4l.7-.8h.1l.2-.1h.2l-.1-.5-.8.4v.2l-1.3.8v.2l-1.7.6h-.5V0h-.3l-.7.3V.2h-.8v.1h-.2v.4h-.4v.7h-.2.2v.1l-.1.1h-.1v.2l-.6-.1v.2l-.6.1v.2l-.1.2h-.5v-.1l-.3-.3-.7.4v-.3l-.6-.3v-.2h-.2v-.4l-.2-.4-.3-.4h-.1l-.3-.6h.1l-.1-.3h-.3v-.3h-.3V-1h-.1v-.4h-.3l-.3-.2h-.1l-.4-.1V-2h-.7l-.2.3h-.1l-.7.5h-.5l-.5.2v.1h-.6V-1h-.6v.3h-.2v-.5h-.3v-.1l-.1-.6h-.4v-.4l-.2-.1h-.2v-.3h-.1v-.1h-.2V-3l-1.1-.4v-.4l.5-.2v-.2h.1v-.2h.2v-.3l.5-.3-.3-.1v-.3h-.2v-.2h-.7l-.1.3h-.2v-.3h.2v-.3l.5-.1v-.2h-.1v-.2l-.1-.2v-.1h-.2l-.1-.2V-7h-.1l-.3-1.1-.5-.2v.3h-.2v-.5h-.1v-.4h-.1v-.4h-.8l-.1.2-.4-.2v-.3zm-9.2 263.3l.1.2v.3h.1v.2h.3l.1.2h.3v-.2h.7l.3-.3.5-.2.1-.2h.1v-.3h.2v-.2l.2-.1v-.2l.2.3v.1h.1l.5.1h.4l.3-.3.3-.3v-.5l.2-.4v-.2h-.2v-.6l-.2-.2h-.6v.3l-.2.2-.1-.2-.9.1v.6h-.3v.3h.1v.1l-.3.4h-.1l-.2-.1v-.1h-.2v-.3h-.2v-.1h-.3v.1h-.2v.3l-.5.4-.2.3h-.1zm77.8 6.1l.4.6v.3h.1l.3.9h.2v.1l.3.5v.2h.2v-.1h.1l.1.2h-.2l.3.3v.1l.2-.1v.1l.2.2v.3h.2l.2.2v-.1h.1v.1h.3v.1h.1v.2h.3l.4.3.3.4.2.3v.4l.2.4.3.2.4.2.3.2h.3v.4h.2v.2l.4.1.2.4h.2l.2.2.2.3.4-.5-.2-.2-.3-.1-.2-.3-.2-.1-.3-.2v-.8h.2l.1.1.1-.2-.2-.3-.1-.4h-.2v.3l-.3.3-.2.1h-.2l-.3-.4-.1-.4-.3-.3-.2-.2-.2-.4h-.2v.3h-.1v-.2l-.2-.3-.2-.3-.2-.2h-.3v-.1l-.1-.2h-.3l-.1-.3.2-.3v-.7l-.4-.3-.3-.1h-.5v-.3h-.1v.3h-.2v-.2h-.2l-.1.2h-.2l-.1.2v-.2h-.2v-.3l-.3-.6.5-1.4zm1.3 1.5h.5l.1.3h-.1v.1l.2.2.2.1.2.5.3.2h-.4v-.3l-.3-.1h-.3v-.2h-.2v-.2h-.4zM22.6 20.2l.2.3.2.5v.3l.3.2.1.5 1.2.9.2-.1.3-.8h-.2v-.6l.4.2.2-.2v-.1l-.1-.5V20l-.4-.4-.5-.6-.5-.2-.2.1-.1.4-.3.3zM16 109.7v.3l.3.3v.1l.2.2v.1l.3.3v.2l.1.2.1.1.2.2v.1l.2.2h.4l.2.4.1-.1v.6h.9l.2-.4.2-.1v-.4l-.4-.3-.1-.2v-.2l-.2-.1-.1-.2h-.3l-.1-.1-.2-.2v-.1h-.6v-.5l.2-.1.1-.1.2-.2.1-.1v-.3h-.3v-.1h-.1l-.1-.2h-1.1l-.1.2-.2.1H16zm333 158l.3.5.3.2.8.3h.6l.4-.3-.1-.4-.3-.2v-.2l.2-.3.3-.2v-.5l-.3-.1-.4-.2h-1.1l-.4.5-.1.2-.2.3zm-33.6-19.6v.4l1.7 1.3.6-.3 1.4.2-1.1-1.3-1.8-.8h-.3l-.4.1zm29.8-1.3l1.2-.5h.8l.8-.5.2-.3.1-.6.2-.3v-.2l-.1-.1-.6-.2-.3.1-.3.3-.5.8-.9.5-.4.3-.2.3zM23.4 157.1v.4h.3v.5l-.2.4h.2v.4l.6.2.3.6.2.3.2.4h.2v.2h.1l.1.5h.2-.1l.4.2.1.8v.5h.4l.1.4h.3v.1h.4v-.2l-.7-.3-.3-1h-.1v-.3l-.1-.3v-.1l-.3-.5-.3-.3-.2-.4v-.4l-.4-.3v-.1h-.2v-.2l.1-.3h-.4v-.8l.2-.3h-.3v.2H24l-.1-.4h.4l-.3-.3-.3.1-.1.2h-.1zm13-96.2l.2.1v.3l.2.3.2.4h.6l.4-.2.3-.1h.3l.1-.2.3-.3-.2-1-.2-.2-.2.2h-1.6l-.2.4zm282.2 181.4l.1.1.7.3 1 .3 1 .2.6-.5v-.5l-.7-.2v-.3h-.3l-.1-.2h-1.3zm47.4 32l.5.4.9.4v-.5l-.4-.7.6-.5.6-1-.2-.6-.3.4-.2.5-.5-.7-.4.2v.8l-.3.7zm-202.5-34.5v.2h.3l.1.1h.8v.2l-.2.3h.3l.2.3v.3l.7.3.1-.3.1.3v.1l-.1.2h-.1v.7h.3v.3h.8l.4-.2-.2-.4.3-.2h.3l.2-.3h.1v-.7l-.2.2-.2.1v.4h-.9l-.2-.4v-.2l-.2-.2h-.5l-.2.1-.2-.1-.1-.2-.2-.1-.2-.4-.3-.4h-.5l-.5-.2.2.2zM32.5 39.3l.5.5h.4l-.1-.4.4-.3.3-.2.4-.1.3-.4.3-.6-.5-.3h-.3l-.2.4-.1.1-.4-.2-.3-.3-.4-.3.1.7v.7zm.4 23.3v.6l.1.3v.5l.3.3h.4l.6-.4.3-.5V63l-.4-.6-.3-.1-.6-.3-.3.4zM51 53l.6.3.3.4.7.4.4-.2.2-.6-.2-.5v-.2l.2-.4-.2-.2-.4.3h-.5l-.3.1-.6.2zm324.7 194.6v.4h.3l.4.2v1l.3.1.1-.1.6-.5.5-.3v-.7l-.3-.1-.2-.2-.2-.2-.4-.2v.4l.3.1v.5h-.1l-.5-.3h-.3l-.2-.5h-.3v.2zm-44.3 6.5l.6.4h.4l.6-.2v-.7l-.2-.6h-.6l-.6.5zM378 245v.5l.7.3.8.8.3.1h.2v-.3l-.1-.2-1-.6v-.4l.7-.5.4-.3v-.2l-.4-.1h-.6l.2.5-.2.1h-.9zm-175.2 14.5v.5l.2-.2v.2l.6.2v.5l-.3.3v-.5h-.3v.3h-.1v.4l.2.3.2.1v.1h.3l.2-.4-.1-.1h.2v-.2l.3-.4v-1.2l.2.1h.3v-.1h-.3.2v-.3h-.4v-.1l-.2-.1.1-.9-.4 2h-.3v-.3l-.4.3v-.3h-.2zm-68.5-55.2l.3.1v-.6h.2v-.1l.7-.2.3-.2.2-.2.1-.1.2-.2.2-.4v-.4h-.3v-.5h-.2v-.1l-.8-.4v-.4h.3l.4-.4.3-.4v-.2h.2l.3-.2v-.1h.3v-.3l.6-.2v-.3h-.3l.1.2h-.4v.4h-.4v.3l-.8.4-.1.7h-.5l-.1.2v.5l.6.2v.1l.3.1v.2h.2v.7h-.2l-.3.7-1.3.5v.4zM373 244v.2l.2.2h.1l.2.2h.1l.1.2v.2h1.2v-.3h-.5v-1h-.1v-.2h-.3l-.2-.1-.2.5h-.3zm7.3 3.1v.3l.5.3.1.2.1.2v.6h.3l.3-.2h.4l.2.2.1.1h.2v-.5h-.3l-.3-.3.1-.4v-.2l-.3.2h-.4v-.1h-.3l-.2-.3-.1-.2h-.3zm-5.1-3.8l.2.3h.2l.2.4.2.2 1 .5.4-.3.2-.3.1-.4v-.1l-.1-.2-.4-.1h-.2l-.2.7h-.5l-.6-.5-.5-.5zm2-3.5v.5l.5.2-.2.2.2.6h.2l.2.8v.5l.5.1.4.6h.4l-.4-.3-.8-1.3-.2-1-.5-1zm-50.7 16.9l.8.6h.6l.1-.3v-.4l-.4-.1-.3-.2-.6.1zM37.8 35.2v.2l.1.2.3.1h.8l.1-.3-.3-.5-.6-.2zM248.5 558h279.1v-60.8l-.6-1.2-.7-.5-1 .3-1.8-1.2-2-4-.7-5.1-1.4-3.7-2.7-2.6-2.7-1.3-1.5-1.9-3-1.3-2.9-2.9-1.5-.2-1.1-1.2-2.7-1.2-.3-1.5-2-2.1-.7-3-1-1.1h-.6l-.6-1.7-.8-.3-.6-2.4-.7-.7h-1.2l-1.2-2.6-1.6-1.4-1.4-3.6-.8-.6-2.8-6.2-1.8-.6-.5-.7-.6-2 1.1-.2-.4-.6h.6l-.5-1.5.8-1.2 1.3-.9-.3-2 .3-1.3.4-.3 1.6.9.6-.7-3.8-4.9-1 .4v2.6l-1.1-.4.3-.9-.8-2-.7-.5.5 1.6h-.5l-.2.3 1.5 2.5.2.4h-.4l-1.4-1.7-.5-2-1.5-1.3.1-1.8.5-.1 2.2 1.6 1-.5.7.3.9-.6.6.4 1-.4.9.7.9-.6.8-1.4-3.2-3.3-3-1-.6-.5-.2-1.5.2-.7 1-.1v1h1l-.2-2h.5l2.7 2.2.4-.2-1.7-1.2.2-1.5-.5-.6-1.4.5-.7 1-1.1.5 1-.8.3-1 1.1-.8.6-1.4-.6-1.5-1.6-1.4v-1.8l-.4-.4-.4.9.8 3.4-.5.6-2.1-.8.7 1.5-.5.4.4.9h-.7l-.6-1.5-.4.3.7 1.7 1.2.7.6 1.6-1.3-.4-.3.5H478l-1.6-1.3-.2-1.5.8-.1.2-.6-.3-1.4h-.6v-2l-.7-1-.4-.3.4-.3-.5-.6.2-.3.5.4 1-.4.6-1.5-.3.7H476l-.2.3-.4-.2-1 1.2-.9.2.1 1.7.8.5-.4.6h-.6v-.6l-.7-.2-.3.8-.5-.1.2-.6-.6-.3h-.5l-.2-1-.8-.3-.3-1.7h-.5l-.1.9h-.4v-1l.7-.3-.7-1.1.5-.3 2.3.6.2.7.5.1.4-.3v-1l.4-.3v-1.4l1.7-.6.3-.6.3.2 1.5-.6 1.6.3.1.5.9.2-.4-.2.2-1-.4-.8-1.2.3-.6-.3-1-1.7h-.3v.7h-.7l-.5-1.1v-1.6l-.8-.6-.7.2v1.8l-.5.4v.8h-.7v-.9l.5-.6-1-.4v-1.1l-.5-1.9.7-.6-.5-.7-.8.5-.2.8.8 2-1 1 .7 1.9 1-.3-.3 1.4.4 1.2-.7.8v-1.4l-.6-.6.1-.8-.8-2-.9-.2-.3 1.4-1.4-2v-.9l.3.5.3-.7-.6-1 .9.4 1.1-.8v-.7l-.7-.2v-1.6l-1.1-.4.1 1.1-1.5.3-1-.2-.2.3-1.4-.7-.8-1.2.9.3.7-.6.6.3.8-.8v-.8l-.9-.5-.5-2 .3-1.2-.3-1 .2-.7.3 1.1 1 .4.4 2.7 1.1 1.2h1.3l1.1-1.1-.2-1.6-1-.3-.7-1.4.5-.2.8 1.2.9-.3v-.7l.6.5.6-.2-.1.6.5.4 1.7-.1 1 .8.9-.2.4.9 2.1 1.4.2 1.4.6.3 1-.2 1.1-.8v-.6l1.1 1 1.4-.8 2.8 3.5 1.8-.5.4 1.1 1.7.6v1.4l1 1.9 2.2 2 1.3-.2.8.9 1.4.3 1.6 1.8 2.1-.9 1.6.5.8-.5.7.2 1.6-1-1.4 1.2 3.6 2.5 1.2 1.2 1.9.6-2.9-1.8-.5-3.3.5-1.3-1.3-1.3-.4 2.4-.5.2v1.2h-.5l-.2-.7.6-.8.7-2.6-2.2-3.8.5-1-.6-2-2.1-1-1.4.2-1.7-.7h-1.6l-.7-1.3-.8-.2-.4-.6v-1l.3-1.3-1.1-.9v-2.2l-1.7-2.6-2-1.6-.3.4.4.7-.9.6-2.3-2.2-2-2.4h-.4l-.3-.6-.8-.4-.4-.7-.8-.4-1 .7-1.1-2-1-.3-2-2-1 .5-1.1-.7 1.2.4.5-.7-.2-.9-1.9-.8-.5-1.3-1.2-.7.7-.2.5-1.6-1-1.4 1 .4 1-.5v-.7h.5l.7 1.2h1.2l1.2 1.6 3.8 2.3 1 .1.6-.3v.5l.7.3v.7l1.3 1.4 2-.7 1-1.3-1-2.2.6-.3.6-1-1.2-1.1.5-1.1-.5-1.7 2 .5.3-.7.6.7 2.1.8 1.2-.9v-1.9l1.3-.7 1.2.2 1.4-1.5 1.4-2.4 1.8-6.7-1-1-.6-2.4-1.7-.9v-1.6l1.4-1.4v-.8h1.2l.4-.4v-3.3l1.5.4 2-.9 5 1.1 1.7-.1 2-.8h1.8l2.6-1.8.7-2.7 2.6-1.6.8-1 2.3-.4.3-1 .3.5h1.4l.4-.4.1-1.4-.7-1.9 1.8.2v-44H367.1v.2l.7 1.3-1 1 2.1 1 .1-1.5.5.5-.2 1 1 1-.4.5.3 1.2-1.2-.3-.5-1.4-1.7-1.8h-1.7l-1.5-1.4-1.8.9-.8.2 2.3-1-.7-.8-2-.2-2 1.2v.9l1.4 1.4 3 1.3.1-.5-1.6-.5-.1-.5.6-.6.5.3 1 1-.2 1.2 2 1.2.6 1-.7-.2-2.2-2-1.5.3-2.7-1.5-1.4.2-.1-1-1.8-1.2-1.9-.7-1-1.2-1.4-.5h-15.1l1.6.2.3.2.2 1 2.3.6v3l2 1.9.2 1.4 5.1 3.4.2 1.3 2 1.3 3.5 1.2 1.3 2.2-.6-.3-.6.3-.1.7.4.9-.6-.8v.5h-.4l.7.6.4-.3-.3.7 1 .9-1.8-.8-2.8-.4-.8-1h-1l-2.7-1.2v-.5l-2.6-.9-2 .3-.6.7-2.2-.4-.1.3.5.4-.3.6-2-.6.4 1h-.4l-1.3-.7-1.7.2-.7-1.4.2-.5.2.8 1.3.2 2.2.3.5-.4-.4-.4-3.6-.6-1-1-.1-1.1-3.7-1.5-2.2 1.1-.9-1.2-1.6-.5v.4h.5l.2.9-.7.4-.2-2-2.8-2.4-.3-1-1.6.2-.3.8 1.6 2 2.8 1.6-.2.5-2-.9-1.2-2-2.5-1.2-.5.1.2-.7-2.5-2.1-.5.1.5.2-.2.7 1.1 1.5.5.4h.3l.3-.2h.1l-.4.3.4 1.1-2.5-1.4h-.6v-.6l-2.2-1.8h1.7l-1.4-.9-1.6-.3-.1-.6h.4v-.5l-.8-1-1-.5.2 1-.4.6h-.9l-2.3-3-1.8-1v-.5H299l-.1.3-.6-.2h-7.1l1.1.3-.9.6-1-1h-21l-.8.2v.6l1 .8-1.4.6v.5l1.5.8 1.4-1h1.1l1.3-.4 3.5 1.3.7 1.7 1.9 1.2h-.8l-.2.2-2.6-1.1-2.8-.2-1-1.1-1.3.1.6 1.4 1.4.9.7-.8.8.6 1.4-.2 4.4 1.3v.5l3.1 1.7-.3.5 1.9 1.5v.5l1.5.5 1.3-.1.3.6h-1l-.2.8 1.4.9-.8.1-.5-.5-1.6-.4v-.3h.7v-.4l-2.5-.6.1.5-.6.2.1.5 1.7.4 1.5 1-1-.2-.3.3h-.7v-.3l.6.3.4-.4-3.3.2-.5-.4-3-.4 2.5-1v-.4l-1.5-.3v-.3l-.2-.1.6-.5 1.1.3.5-1h-1l-.5-.4h-1l.4-.6h-.7v-.4h-2.1l.7-1-1-.8-1.3.9v.9l.4.3-.4.7-2.3 1.5-1.2.2-1.5-1.3-.6.7-1.5-.4-.9.4-.4.9-2.7.3 1.1.7-.6.5-5.3-2.1 1.8.5 1.4-.6 1 .4 1-.1-.3-.8-1.4-1H261l-1.7-.9-1.2.9h-.6l-1.1-1.1H255l-1.2-.6-.8-.7-.1-.8-.7-1-1.3-.8v-.9h-.7.5l-.2-.9-2-.8zm229.2-131.5l-.7-.7v-1.6l.9 1zm-6.2-22.7l-.2-.3.7-.9v.4zm1.3-2l-.3-.3.2-.4.3.5zm-4.5 2.6l-.6-1-1.7-1 1.1-.4.3.6.9.4.3-.3-1.2-1.6v-.6l1.5 1.2v.8l1.1.6-.8.6-.6-.1zm1-3.3l-1-.9v-.4l1.1.6zm-3.1-.5l-1.1-.3-.1-.5-1-.8-.3-1.3h.4l1.2 1.2zm-10.1-3.2h-.5l.4-.7 1.3-.1-.6.8zm-.6-2.6l.2-.6.6.4-.4.4zm2.7-1.1l-1.2-1.2.3-.5 1 .3.2.6zM457 392l-1.2-.7.2-.8.7.8.5-.3.2.6zm1.8-2.7l-.5-.6v-1l.7.5zm-179.5-60.1l-1.3-.6.7-.9 1.6.5-.1.8zm54.4-7.5l.7.2.8 1-1.3-.7-.9.1v-.5zm-76.9-11.5l.6.6 2-.4v.6l-2.2 1 .2 1.2-.5.2v.4l-.8-1.4-1.2-.4-.3-.7v-1.2l.5-.1v-.6l.4.2.8-.4zm14.3-3v.8l-2.7-1.5 1.3.4 1.7-.4zm55.2 12.8l-1-.5.7-.1.2-.7.7-.2.8 1.8zm30-.9l-.6-1.1h-1.6v-.6l-1.1-.8-.4-.8-.7.1-.3-1.3 2.4 1.4 1.3 1.7 2 .5-.2.8zm-89.7-1.4l.4-1-1.4-2.7-.7-.8h-1.2l.2-.7-.9-1.8h.5l.3-.5 1.4.6 1.2-.3v1l2.4 4.2v1l1.2 1.3-1 .2v.5l-.4-.3-1.1.4zm38.1-5l-.7.3v.6l-1.3-.5.5-1.1 1-.4h.4zm1.5-2l.8.4-.4.2-.1.5-1.5-.5.2-.7zm149 76.4l-.2-.4-.2-.7.6.6zm3.1.1l-.3-.7.5-1 .5 1.1zm29.2-7.7l-.5-.5-.9-.9.9.6h.6zm-15.6-3.4l-1.3-.6-.1-.2.8.2zm-3.9-10.5l-.9-.5-.4-.4 1.2.3zm-1.3-1l-1.2-.6v-.2l.7.3zm3.7-1.3l-.2-.7 1 .6-.5.1zm15.6-1.1l-1-.6.2-.6.9.6zm-19.3-3.8l-1-.4-1.1-1.2 1.7.1.7 1.1v.4zm8.4-1.7l-1.2-.4-1.5-1.8.7-.3 1.1.4.3-.8h.4l.6.9-.6.3zm-12.2-1.7l-1.6-1.2 1 .2.1-.3-1.1-1.5 2.3 1.4-.8.4zm26.5-25l-1.2-.8 1-1 .4-1.8-.3-1-1-1 1.6.8.8-.4.8.3.1-.3 2 1.7-1.4 1.8-1-.6-1.3.6zm-2-5.6l.1-.2-.5-.7.8.5zM281.6 286h-.7l.1-.6h.5zm5.7-5.3l-1-.4-.2-.6 1 .4-.1-.6 2.1-.2 1.9 1.2 1.4-.2.3-.6h.3v.6l.8.4-.5.4-1-.5-.2 1 1.3 1 .9-.5 1.6.1.7 1-1.2.8-1.3-.2-.1.6 1.5.9-2.8-.1-.9-.6-.7.1-.8 1.3-1.7-1.3 1.3.1v-1l1.1-.2 1 .1.2-.6-2.1-.1-1.3-3h-.6v.8zm.7 1.3v-.5h.8l.2 1.1zm-2.7-2h.2l1.3 2-1.4.2-.4-.7zm-2.1-.3l.5.1v.3l-.4.1zm-32.7 17.7l-.5-1.4.3-.7.3-.3.8.2.4-.2-.2-.9.4.2.3-.7.5.2.8 3.2h-.6v.5l-.6-.6-.6.1-.4 1-.7-.2zm96.5 9l-.7-.4-.6-.8.9.5zm-77.5-1.6h.5l-.4.7h-1l.4-1zm93.3 4l-1-.5v-.7l-1-.9-.8-.4h-1.3v.5l-.7-.3-2.3-1.5-.2-.6-2.2-1-.1-.5.6-.5 3.4 1 1 .3.4.9 1.5.6.1.8 1 .4.6-.6 5.4 2.7h1l.6 1.2-.7-.4-.9.4-.5-.9-.8 1-1.3-.1-.2.4.5.2h-.3l-2-.9zm-74.3 3.9l.2.7-2-.7-1.5 1h-2.5l.5-.7-1-.4.8-.6-1-1.1 1-1.4v-1l2-1.2 1.9.2-.4-1.5 3-1.2.5-.6v-.7l2-1.7v-.6l1 .3.9-.5 2.7.2.4-.4.6.6 1.4.2.2 1.4h-4.9l-.6.2-.1.6.8.8v.8l2.1 1.2-3.7-1.2-1 .8-.1 1-3.2-.5-1 .5v1l1.3.2.4.9 1-.1 1.4.5.4 1.1-2-.3-.7-.7-.5 1.2 1.7 1-1.3-.1.4 1.1zm47 8.7l-2.1-.8-1-1.6h-.7l.7 1h-.2l-1.2-1h-1.5l-.8-.8-.3.4-1-.6.1-2h-.9l.4-.7-.7-.7h-.7l-.5.2.3.4h-.7l-2.5-1.2-.6-1-.4.5-.4-.2-.6.7h-.3l-.9-1 .5-.8-4-2.1-.2-1.1-2.3-2.2-1.5-3.8-.8-.4.6-.6-1.8-1.3 1.8.9 1.7 1.4 1.5.2.6-.9-.7-1h.4v-.4l-1.3-.3-3.6-1.5h.6l-.3-.7.4-.1 2.6.2.9-1.3.8.2.8-.5 1 .3.6-.9-1.7-1-.7-.9.1-.6v-.5l-1-.6-.5.7 1.5.7-.8.6 2.3 1.8-1-.2-1.1-1-1.3.3-.4-.6.3-.6-1.9-.7.1-.7-.4-.2-1.2 1 .4.9-5.5-.7v-.3l.8.3.2-.5-.6-.8.3-.7h1v-.3l-1.5-1.3.5-.7-.5-.7.7.3.3-.4-.3-1-1-.3-.4-1.3h1.7l3.3 1.9 1.8.2.2.6 1.3.7.7.9 2.8 1.8h.7l.3.8 1.3.2 2.6 1.6-.4.4.2.9 2.4.7.8-.2 1.3 1.4 1.3-.6 2 1.2.2.2h-1.1v.9l1.2 1.5h-.5l-.6.5 1.2.6 2 1.8 1-.4.9.3.6.8-.5.3v.5l2.3 1.8.3-.2.1-1-.8-1.5-2.8-1.3-2.3-2.8h-.9l1.1-1 4.6 2.9h1l1.7 1.1 4 3.4v.8l2.9 2.8.9 1.7-.6-.5-.3 1-.9-.3-.7.5 1.1 1.3v1.5l-.8-.3-.5.3-2.6-1.4-6.5-4.6h-1.2l-.2 1-2.5-2.5-2-1.2-.8.7v1l1.1 1v1l.9 1.2 3.4 3 2.9 2.1.2.7 1.2 1.2-.5.8.3 1.1zm27.3-30.1l-1.3-.6.1-.3 1.1.6zm-1.9-1l-.9-.1-2.8-1.8 2.3.6zm-68.5.1l.8 1.3-4-3.3.2-1.1-.8-1.3 1.7.2.5 1 .7-.2-.2.4-.3-.1.2.4h.4l.1.6 2.1 1.6.4 1.3zm18.8-2.2l-.3-.2-1.1-1 1 .6zm40.8-.2l.3-1 1.7.4-.7.6zm1.6-1.3h-1.7l-.3.6h-1.2l.6-2.3h2.3v1.1l1 1.1zm17.4 13l-1.3-1.1-.4-.4 2 .7zm-30.3-1.9l-.3-.2-.1-.2 1.1.4zm-82.7-4.9h-.7l-.3-.9 2.2.7zm21.5 9.4l.3 1.1-3.4-.6.4 1-.5.5.6 1.3-.2.4-.5-.3-1.2.5-1.3-.4-.9-.8-1.3-.2-1-1.1h-1.1l.3-.4-.3-.6-2.2-.1-1.3-1.6-2.7-.8-.5.3-.7-2-3.1-4.5.8-.3 3.7.6 7.6 3.5.6-.4.8.6-.3.7 2 1.3.7.2-1.3-1.8 4.7 2.6.3-.6-2.3-1.4.4-.2v-.6h.4v-.5l-2.5-.2-2-1.4.8.2.1-.3-2.2-1.3-.4.3 1.6 1.1-1.5.5-1.7-.8.2-1-1.4-.2.6-.4.4-1 3.5.8.7-.4 1 .7h1.3l1.2.4 3.4-.1 1.3.6 1-.4 3.4.3 1 .6-.4.3v.5l-1.6-.3-.2.8.3.4-.8.2-.1.5 1.6.9-1.2.5-1 .2-1.6-.8-3.6-.6-.2.7 3.2 1.3-.8.6 1.3.9zm49.8-6.7v-.6h.6l.5-.5h.5l-.9 1.2zm-3.2-1.8l1.4-.1.5.5h-2.3l-.7-.6zm34.8 10.9l-4.4-2-.5-1.7-.6-.5h1l-.9-.9 1 .4v1.3l4.4 2.6.3.5zm-18.8-3l-1.3-1.1-.2-.8.9-.9.9.6 4.1.4v.6l2.3.7.2.6h-1.4l-.4 1.2.7 1.2 1.5 1h-1l-.2-.7-.9-.5h-.3l1.3 1.2-.3.1-1.3-1.4-1.1-.1-.8-1.5-1.3-.6-.1.3.5.5-.4.2zm7.8-2.1h-1.3v-.9l.7.7zm-83.9-6.8l-.8-.5 1.3.2.5-.7h.4l-.2.4.6.4.8-.4.8.2-.7.6-.9-.3-.1.5zm53-1.1l.3.7-1.1-.6.6-.1zm0 .1"/><path d="M302.8 279v-.2l-1.1-.7-2.2.1-.5.8zm14.2 0l6.6 2.3h2.3l2.1-.7.4 1.5 1.9.2.8-.4-.1-.5 1.7-1.4 2.6-1.1zm0 0"/><path d="M351.4 279l-1.2-.5-1 .5-2.2-1.9-1.8-1.1-3-.4-1.4-1.4-1-.4-.8-1.2h-.7l-.3-.9-1-.4-.8.3v-1l-.8-.6-1.9-.9-1.3.3-1-1-4.5-2h-1.3l-1.1-1-2.3-.2-.9.8.4 1.8 2.5 1.7-2.5-.5-1.5-1h-1.6l-.7.9v.5l.9.8 1 .4 1.3-.2 1.1 2.2-.3.3-.3-.4-1.4-.3-.8-.9-1.1.1-1.6-1.3-3-.2-3.2-2-.7.1.1 1-1-1-1.4.5.3-1-.3-2 .4-1.5-1.5-2-4.2-2.8-2.4 1.7.7 2.9 2.1 2 .5 1.2 3.1 2.5.3 3-.7.9 1 .9 2.2-.8 2.2 1.6 4.2 1.9 1.7 1.9.3.1h19.5zm-11-1.7v.3h-.7l-3.3-1.6h2.4zm-8.6-2.6l3.1 1.6.5.7.9.3-.6.8-1.3-.2-2.6-1.7-.3-1zm-1.5-1.6l-1.9-1 .1-.3 2 .8.2.3zm-13.1-1.1l-.2-.7.8.3-.6 1 .3.5-.7-.1zm-18.7 7l-.8-.3-.9-2-1-.2-.3-1.3-1.6-.5-.6-1 .3-.6-.5-.2.1-.5-.8-1.2-1.7-.2-.6-1.4-2.1-.8-1.1-.8-.2-.4 1-.4-.2-.6-1.3-1.7-1.4-.5-1.4.6 1.2.6-.4.7.5 1-1.7-1.6h-1.5l-1 1.3-2-1-.5.5 4 1.8.3 1.2 1.2 1.2 1.5.4 1 1 .4.9 1.6.4v.5l-1.1.4-.3.5-.6-.4-1 .6-.2.6.4.4 3.1 1 .4-.5-1.1-.3-.6-1 .7-.6 1.6.6 1.1 1.5 1 .7-.9.4.1 1 .9.2zm-50-169.6l.7.5 2.8 3.3v1l2 1.6v.8l1 2 2.1 2.4 2.4.8h.6l.1-.5h1.1l3.6 3.8.7 1.6 2.6 3.3 3 6.3 2.8 2.7 2.2 3.3 4.4 3.5.6.9-.2 1 2.9 6.3 2.7 3.4 1.7 1.3v.6l2 2.7.9 1 2.7 1 1 .9v1.4l1.2 1.4 3.2 1.3 1 1.5v2l3.9 4.9 3.4 2 5.2 4.5-.1 2.1 3.7 5.4 1 3.3 5.6 6.6 1.1.7.9 2.6 1.2 1.1 3.1 2.3 7 3.6 2.6.4h2.9l1 .7 2.6 3.3 2.1 1.7 1.5 1.8 5.4 3.7 2.6 1h2.7l1.9-1.2h1l.6-.8 1.7.8 3.6 3.5.3.9-.5 1.4.9 1.7 2.7 3 4.1 2.9 1.2 1.2 1.7 4.8 2.1 2.3 1.8 3 1 2.4-.5.8-.8-.3-1.2-1.6-2.3-1-1.2.4-1.7 1.8-1.5 2.4-.6 1.9.1 1.8 2 1.3h-.7l-.9 1.1.5 2.5-1.3 1v.6l-1-.4-.2.3-.7 1.3h-1.7l-.9 1.6-.1 1.1 1.9 1.8.8 1.7-.5.1v.9h-.6l-.2 1 .5 1.6-.3-.6-1.5-.1-.6-.5-1 1.1-.2.7 1 .9.2.7-1.4 1.5-.1 1.5h160.5V0h-279zm122 167.6l-.5-.2-.5-1.1 1 .5zM248.5 0h279.1v-279h-279zm0 0"/><path d="M173-279l.5.4-.2 2.3.7 2-.9 6.5-.7 1 .1 2.4-2 2.1-.5.9v.9l1 1.9-1.4.6-.9 2.2-.7.3-1 1.9v2.6l-1.4 1-.3 1.2-1.7-.2-1.6 1.4-.5 2.4-.8.5-.2 1.4.6 1 1.1.3.6-.7 1 .7 1.5 3 .7.8 2.2.1 1 .6h.8l1 .8 1.8 3.8 2.3 2 .9 2.9 1.7.6 1.7 1.5-.3.5-1.3-.3-.8-.8-2.3.2-.4 1 .5 1 .9.2 1.3 2.3-.3 3.3 1.7 2.9 1 .6.9 2 1.1 3.5.3 3-.7 1.3-.2 1.6-1.6 1.6-.2 1-1-.4-1.3.4-.9 1.3-2 1.8-1.3 2.4-2.4 1.3-1.8 4-.2 1.2.3.9-.6 1.2-.5 3 .2 1.3-1.8-.3-.7 1.1.5 1.8.7.3-.3 1 .3 2.1.6.7.8.2.4 1.3-.4.3-1.1-.4-.6 1 .1 1.5 1 1.3.6.4 1-.1.8-.7.8 2.6-.4.4-.8-.2-.8.9.2 2.1-.6 1.6v.6l-.4 2.7-.9.6-1.1-.3-.9 1.4v2.1l1 1.7-.9-.2-.9.5-.9 2.2.6 4.1-.8 2 .7 2h-.6l-1.2-.7-1 .9 3.4 4.9-.3.5-1.5.3.2 1.9.7.8 1-.3 1 .8 2.4 5.7-1.4.8-1.1-1-.7.6-1.5-.4-1.2-1.7-2 .2-1.5-1.4-1.4.6-2.6-3h-.8l-1.3 2.7 2.3 1.7.6 1 1.9 3.2 2.7.2 2.3 2.5 1.4.1.6-.6 1.6-.2.3-.5 4.4.4.3 2 1 .8 2 2.8 3.2 5.8-.3.9.2 1-1 .4-.4 1.5.5 1.1h1l1.3 4.4 1.6 2.3-1.3.3-.6.8v.9l.5 1-1.4 1.7v1l1 1.4v1.6l-.6 2.9.6 2.8-.6 3.5 3.5 5 1.1 2.6-.9 1.4 1 4.2-.5.7-.9.2-.2 1.3 1 1.4.9.3.6-.6.4.9-1.2 1.4.6 2.9.8 1-.7.4-.5.9.1 1.4.6.6-.2 2.1 1.2 1.8 1.4.4v1l1.3 1.7 1.2.7-1.2 2.8.6 1.9 1.5 1.6v1l-1.1.9v1.2l1.5 1.7h1.8l-.7 1.1.4.8-.4 1.4.6 1.4-1 1.3v1l1.8 2.9 1.6 1.1-.1 1.2 1.5 6.4 3.6 4-1.2.7-.2 3 1.5 3.7 5.2 7 .9 1.6h44.4v-279zm-7.8 140l.1.7-.8-1.6-.8-.6-.3-1 .4-.5.5.2zm1.3-108.3l.9.6.5 1-.3-.3zM-30.4 204.6l2-2.1v-.6h1.3l.1.8 1.4.1.4.6 1.1.4 1.7 2.3 1.4.3 2.8-1.6-1.5-3.8 2 1.3.7-.4.8-1.6-.8-1.2.2-.7 3.7 1.9 2.1-.3 2 2.7.2 1-.3.7.1-1.1-1.4-.9-.8-2.1-1 .3 1.5 1.4.2 1.4L-9 205l.4 1.7 2 2.8-.1.6.4 1.7 1.5 2.2h.6l-.2 1 1.2 2.8 2 2h1l1.2-.6-.5-1.8-.5-1.8-.9-.6-1.1-3.8-1-.2-.5-2-1.4-1.3.3-1.1-.7-2-.8-5.3 1.5-2.5v-1l2.6-.8 1.4-1.5-.4-3 .9-.7 1.6-2.1L3 185l.4-2.3-.7-2.7-2.1-4.4-.1-1.3-2.7-5-1.5-.9-2.3-3.9-2.3-1.8-.7-1.3-.8-.2-2-3-1-.5-1.9-3.8-3.9-2.9-.4-2.7-2.4-2.3.3-.4-.4-1.1 1.8 1.1 1.5-1.4-1.7-4.7-1.1-1.3-1.4-.7-.8-2 1 .5.2.8 2.1 1.8.9 2 1.1.4 1.1 1.5.6 2 1 .9 2.1.3 2.1 2.6.8.1-.4.3.3.8.7-1.6-1.5-2.8V144l1.2-.2 1.6.6.7-.7.5-1.3-.5-.3-.6-.5-1.1-1.3-.3-1.2 1 .4 1.5 1.8.3.5.6.2h-.6l-.2-.5-.3.5-.5-.2.2.3 1.6.6v-.2h.6l.4-.1h.3l-.7.2.2.2.6-.5.9.7.4-.7 1 .2.4.5-.3.5 1 .5v.5l1.4.3.2-.4.4.1v-1.2l-.8-.2-1-.8h-.6l-1.1-1-.6.2-.2-.5H-4l-1.6-3.4 1.6-1.1 3.6 2.5 4 4.8 1.7 1 2-.3.7 1.4 4.1 4.1 4.2 2.2 2.8 3.7h1l1.3-.9-1.1 1.2 1.4 1.4.9-.4v-.7l.8.5.7-.9-1.6-1.4-.8.3.9-1-.4-2-1.8-1.8v-1l-1.5-2h-.6l-.3-1-1-.7.4-.7-.7-2.5.3-1.4-1-.9.5-.6 1.5 1.2 3.2.9 1.5-.8.7-1.8 1.6.6.7 1.5.1-1.4 1.4.2 1.3-1 2.5-.1 2.4 1.9 2.2-.9h1l2.7 1.3 1.1-1.3 2.3 1.1 1.3-.7v-1.3h.5l1-1.3 4.8-2 1.4-2v-.5l-1.7-3.3-2.4-2H47l-1.9.6-.1 2.1-2 .3-.4 1.8-1.7 1.5-1.9-.2v-.4l-1-.5-.3-1.3-3.1-3.5-3.8-2.7-4.3-5 .2-.7 2-.4 1.2-1.3.9.1 1-.7.2-1.2-.5-2 1.3-.9-.4-2.2.6-.4 7 2.2 1.6 1 2.7 3.3 2.9.3.5-.4-.6-1.5-1.3-1.6-3.2-1.6-1.3-.2-3.5-3.2.8-.9-1.6-2.7V104l2-1.2 1 1v1.2l1.3 1.6 4.2 3.1v1.3l.5 1 1 .5.8-.7-.1-1-1-1.2-.7-.6-1-1.7-1.9-1.3-3.1-5.2-1.4-.6-1.1-1.5-1.5-.4-.4-1-2.8.3-1.8-1.1-1.5.8-1 3.4 1 3.3 1 2.3.7.4-.7.9.1.8-.8.3-1.1-.5-1.2.2-1.1-1-.1-1 .5-1.1 1.3.7.6-.4.4-1-.4-1.1-1.9 1.2-1.2-.5-.6.3-.3 1.5.5.6-.5.4-.3 2.7.3 2.2H24l.1 1.7-.9.6-1.2-.4.3 1.4-.8-.2-1 .4-4.9-3.2-3-3.9.5-1.3v-1.4l-.2-.2h.3v-.3l-.8-.6-2.3 1.1-2.8-2.5-1.1.8v1l1.5.6 1.9 4.3-.3 2.5 1 3.7.3 3.5-.3 1-1 .7-4.7-2.4H4v.5l-.6-.2.4-.3-.2-.6-1.2-.4-2.1-1.9-2.3-1.3-.3-1.1.5-.4 1 .6L.5 112v-1l-1.3-1.6-.4-1.2.5-.7v-1l.7.1-.3-.6-.2.4-1-.4.3.6-1.5 1.4-2-.3-.7.5v.5l-.8-.2-1.5-3-.3-.9.8-1-.2-.9-.6-.7h-1l-.5.7-1.2-1.5-.5 1.6-1 .7.2 1-.9.1v.8l-1.8.6-1.3-2-3.2-2-2.4-5-1-1.3-.4-1.2.5-1.5-2.7-4.2V88l-2.6-4.6 1.5-.1 1-1.3 2.7-.6.8.4.8 1.8 1.5.6-.3-1.1-1.5-1.8.8-1.3 1-.5v-1.9l.4-.3-.6.2v1.9l-1.1.4-.3.6-1.8-1-1.1 2.3-2.5-4.1.4.2.3-.5-1-1.7-.4.6.4 1.1-1 .5-1.2-1.1h-.5l-.4.7v1.2l-.5-1zm3-64.7l-.2.1-.4-.7.5.2zm-2.2-1.5l.6-.1v-1l.8 1.7-.5.1-.8 1.3.1-1-.5-1.3zm2.2-31.9l.4.5-.3.2-1-.4-1.5-2zm.7-26.2h-1l-.4-.9 1.2.5zm.2 107l1.5 1 1.9 2.7 4.8 4.2-.2 1 .5 1.3-.6.2-1.8-1.5-1-1.9-1.1-.8-.9-2.3-2-1.7h-.6l-.1-1.5zm3.4-31.3l.5-.2.4 2.1-.8-.4-.5-1.4zm34.3-13.6l.6.2-.2.6-.3-.2zm-5.3-2.5l.1 1.4h-.3L4.2 139H5l.5.8.7-.3zm19.4 0l-.2-.5 1-.1zM33 137l.2.4-.8-.2zm-8.8-1.7l.2.7-1.4-.3-.2.6-.8-1.8v.4l-.7-.3.2-1h1.6l1.9.6 2.2-.9.7.7 1 .6.3-.3.8 1.7-1.4.3-2.4-.4-1.1-1.4h-.8zm-8.4-8.3l1.6-1.2 2.5.6 1.4-.4 5.7 1.2.6 1.2.4-1.4 1.4.8 6 5.5 1.1.3v.9l1.2 2.4-1.7-.9-.7.3-1-.4-.9-1.2-.7.2-1-1.3-1.2-.6-.3-.4.5.2-1.8-2.6-.4-1.1-1.1-.1-.2.3 1.8 1.9.2.6-.8.2-.2-.4-3.5-1h-2l-1.5-.9-2.5-.5-.7.1-.6 1.2 1.6 2.1.3 4.8-.8-.4-.3.3-4.1-.7-.2.4 1.3 2v.4l-2.1-1.4v-1.5l-2-1.7-.5-1 .7-2.4 1.7.6h2.3l.2-1.5-.6-.5.6-.8-.3-.9zm-6.5 3.3H7.9l-.1-1.8-.8-1.2 2.5 2 1.5.3.4.6-1.6-.4zm-33.6-6.2l2 .9h1.3l.1.5 1.6 1.5 1-.4.6.4 1.2 2.4.7-2.2 1.8 2.5h1l.4-1.6-1.2-1.5-.3-1.3-.7-1.1-1.5-.9-1.2-3.2-1.8-1.3.6-.5v-.6l-1 .3v-1.3l.8-1.7-.6-2.1 2-1.8 1.6 4.5 1.6 1.4 5.6 9.3-.1.7h-1l-.4.3-1.8-1.4-.7-.2 2.2 3 .8 1.8-.3 1-.9.5-1.2-1.6-.6.2.8 2.4-.3 1.6-1.5.4-.3.7h-1.5l.1 1.6-1.5-.5-.9-1.9-.1-3.3.3-.5h-1l.2-.9-.6-.3-.8-1.5h-.4l.6 1.6-1.2-.5.4.6-.8-.1.7.9-.1.6-.5.7-1.4.2-1.9-1.2-2.9-3.8-.7-1.8.5-.6.6.6-.1-.7h.2l.5-1.6-.7-2.1 1.1 1 .4.8-.7.7 1.2.9.2-.7zm15.2-13.5l1.4-.9.4.7-.5 1.3-1 .3zM-26 105l.7-.2.3.5-.2.7-1-.6zm60.6 3.7l-1.6-1-.2-1.6.7-.7-1.3-3 1.4-1.8.1-.8.7.8.8 2.8 1 1.3 1.1 3.6-.3.3-1.3-1.6-.7.4zm0 0"/><path d="M-30.4 279H123l.3-.3h.9v-1.3l-2.5-1.9.3-.5-1-1h-1.7l-.3 1.2h-1.3l-2-.8-1.2-1.2-.2-1.6-1.3-.7.5-.6h.5v-1l-2.4-2-1.3.5-1 .9-.2.9-1.5.1v1l-1.1-.3.9-.7-.1-.7-5.3-5.1-.7-1.8-.7.3-.8-1h-.6l.5-1.6-.8-1.1-.1-1.2-2.5-2.6-1.2-3.4-.7-1 .5-1.6-.5-.9v-1.4l-.4-1.5-1.1-.8 1.7.9 2.6-.6v.4h.3l1-.5-.2-1-.8-.8v.7l-.1.5v-1.3l-.7-1-2.6-2.3-.6-.1-1 .8-1.8-1.1-2 .3-3.2-3.8-.8-1.6-2.1-1-.6-1.5-2.6-1.9-.4-1.3-.8.2-.1 2 .8 2.1 1.4.9.7 1.6.8.1.1 1-1 1.2.8 1.1-.4.7H81l-.3-.8.3-1.2-1.3-1-.1-.9-1.4-.7-.7-.6-1.7-1.8 1-1.5-.7-2.7-.7.5v2.2l.6.8-1.3-.1-.7-.8-2.4-.7.4.7.5.2v-.4l1 2.3.6 1 .5-.2.7 4.5 1 2.1-1.1 1.3-.4-.4-.5.6-.3-.8-.3.6-.6.1-.5 1.5-.6-.4-.4.4.2 1.3-1.1-.9-1.1.6v-1.4l-.8.2v-.6h-.6l-.2.4.9.3.4 1-.5.9.9.3-.2.8 1.6.1.3-.8.8-.3v.5l-.8.7.5.3.4 1-1.4-.4-.6.4.2.6v.1H70l-.4.3.6-.2.7.6.4-.8.7.8h1l-.5-1.2 1.2-.2.5-.7-.6-1.4h-.8l1-.1 2 4 1.7.3 2.5.3 2.2 4.8 3 2 4.8 1.4 1.3 3.4-2.7-1.9h-1.5v-.8l-.9-1.6-2.5.2-.6.5-1.1-.6-.2 1.2.3.8 2.3 1 1.2 1.7.9-.3.5-2.1.3 3 .9.4 1.4-.4.4 1.1.9.2v1l1 .7h.7l.8-.9 1 .6 3.6.4 5 4.8.8 1.6-.3.8-4-1-.5-.8-2-1-2.4-2.4-.9.3v1.1l-1.7-.6h-.9l-.5 1.4-.8.4-.5-.8h-.5l-1-.6h-.9l-1.1-1-.3-1-2.7-1.5-1.4-1.6-.5-.1-1.3-2.4h-1.3l-.8-.6.4-.4 1.4-.4-.3-1.6 2 .4.7-.7.5-2-1.2-1.1.2-.6-.6-1-.6-.2-1 .5-1.5-.4-1.3-.3h-1.8l-3-1-2.6-3.2.7-.6-.6-.6V246l-1.8-.5-.7.3.6.8-1.1-.4-1.5-2-4.2-2.6-.4-.8-1.1-.2-.2-.6.7-.2.3-1-.2-1.1-1.6-2.4-2-1.3-3.6-.5-.5.5.2.6-.8.4-.8 1.5 1 1.8 2.2 2.2.6 2 1.7 2-1.3-.8-2.2-.2-1 .5-1 1.2.8.8-.3.5.5.7-2.2-.7-.8.9.2.6-2.4-.3-.3-.4.5-.5v-.8l-1.7-1.8-8.6-4-1.5.8-.4 1.3 2 2.6 1.6 1.3-.9.8-5.6-2-1.1.8-.8-.6.3-.7-1-.8-2.9-.5-.2-.8-1.3-1.1 1.3-.4v-1l-.7-1-1.4-.3-.7-1.2-.3-2.5-1.3-2-.2-1.9-3.2-4.3-1.4-.7-.4-.7.4-.2h-.6v-2.6l-.9-2.5.6-1.2.7-.5-1.1.2-.9.7.2 1.5-.6 1.3-1.6.7-1.4-.5-.5 1.5.7-.7 1.7 1.6.8-.2 2.6 1.4.3 1.4 1.7 2.1v.3l-.7-.7-1 .3-1.2 2.1 1 1.4-.7 2h-1.9l-.7-.2.7-.4-.1-1.4-.8-1.5-1-.8-.1-.8-.7.4-2.7-1.8-.8.4-1.4-1.3-1.6 1.6 1 1.7-1.5.1-2.2-1.3-3-3.2-3.8-.7.3-3.4-.7-1.8-1.2-1-.8-1.6-1.5-.5v-.4l-1.5-1-1-2.1-1.1-.5-.2.5 2.4 2.8.2 2 .7 1.1-3.4-.4-1.4-1.2-.1-.7-1.9-.7-2.8-.4-1.9.3 1.1-.3h1.1l-1.8-1.1-1.2 1.2.1.3.5-.1-.4 2 .5 1.3 1.3.6.5.9 2.4 1.6-.5 1.1v1.2l1.8 1-1.8.4-.4.8-.7-.2-.6-1 .7.5.6-.7.1-1.4-.4-1.3-1.4-1.3-1.8-.6-1 .2v1.2l-.9.3.1.6-1.2-.2-1.1-.8v-1.2l-.7-.7.3-.6-1.2-.4.4-.2-.9-1v-1.3l-1.3-2.7-1.1-.8-.3-.6zm141-7.7l.6.3h-1l-.5-.8h.7zm-52.3-22h.2l.2.5h-.6l-.1-.5zM204.1 0l.6 1 .5 3.3 1.8 1 .7 3.9-.3.3V13l2 4.2 2.2 1v1.2l-1.1.3-.2.9-.2 1.4.5 1.3 1.3 2 2 4.9.9.6 1.8.5.7.6.6 3.4 2.7 5.1.8 4.6 2.1 5 3 4 .5 2.5 1 .8-.6 1.1.5 1.7-.2 1.3-.7 2.6.5 4 1 3.2 2.3 2.5 1.9 2.1 1.8 7.8 3.3 4.2.2 2.2 1 2.2 1.6 1.8 1.5 4 1.6 2.6 1.2 4.8 2.1 2.8 1.6 1.2V0zm5.9 279l-.2-.6-1.4-1-2.5-3v1.3l-.7-.1v-.6l-.4.2-.3-2-1.6-1.6v-.9l-1.3-.4v-1.1l-1-.6.3-.4-.9-1.5.8-1.5-2.1-1.2-.7-1 1.1-1.8-.4-1.7-1.8-.7-3.4-2.9-3.7-4.9-2-.4-.4-.5.6-1.5-1-.8h-1v-.8l-.8-1.4h-1.5l-1 1.4 1.3 3.1-.6 1.5.3 1 1.1.9 1 1.7 1.2.8 2.2.2 1.2 1.4 1.3.6 2.8 5.1 2.8 4 1.4 1 1-.2-.1 1.3.7 1.2 1.7 1.4 2 3h-1l2 2.4v.6l-3.1-.9-1.8-1.5-.6.4-.2-1.4-1-.5V273l-2.1-2.9-2.5-2.1-4.1-4.6-.9-.9h-.6v-.5l-1.1-1.1-.6-.4-.7.2-.7-.7h-.3l-3.5-3.4-2.2.3 2.4 1.4-.6 1.2-.8.2-.5-1-1.1-.3-2.9-.5-.7-1.3-2.8-1.6-2-2.7 1.6-2.5-.2-1.4-2.1-3.8-1.5-1.6-1.7-.2-.2.5-.7-.3-.4.4.9 1.8.5.1.6-.7-.6.8.6 2-1.5 1.9-3.6-2.8-2 1.5-.4 2h-.6v.9l2.6 5.9-.8.7h-.8l-1.7-1.4-2.7-3.9-1.4-.4-1.2 1.1-.5-.5-.8-1.3-1-.5-1.4.2-1.4-1-6.6-6.6-1.8-.9h-.4l-.4.7-1-.8-2-3-.6.2-.8-1.4.9-.7-1.1-2.8 1-.5-.5-.8-1.9.3-1 2.9-2.4 1.5-1-1.7h-1l-1-1-3.1-2.2-1.7.4-.9 1.2-.6-.5-.5.3-1-1.6H117l-1.7 1.4.5 1.3 1.5 1.1 6.3 2.2h.8l6.7 4.3 4.3.5 1.8 2.7 6.3 1.7 1 1.8 1.7 1.2 1 .2.2-.6.6-.1 2.9 1.1 1.7 1.6 1.6-.5 1.1 2.2 1 .4 3.9 3.7.5-.3.1-1.3.9-.1v-.9l2.7.4 1.3 3.3.9 1.2 1.1.5.3 1.3 1.5 2 2.2 5.9v.9l.6 1.1-.8-.3-2.2-1.8-2-4h.3l1.8 1.8.4-.4-.6-1.7-1-.3-3.3-4.7-.6-.6-.5.2.2 1.2-1.5-.5-.2.6.5.5.2 1.5.7.4 1.1 3 .8-.4-2.3-3.9 1-.6 1.2.6-.3 2.1 1.8 2.3-.3.4.3 1 3.2 3.2-.3 1.7.6 1-.6-.3-1 .6.1 2-.3-.3-1.3-1.9-.6-2.3.4-1.2.4-.2v-1l-1.4-2.4-1.1-.3-.2.7-1.6-2-1.3-.2-.9-1.2-1.9-.5-.7-1.6-2.5-2.4.3-1.6-.4-1.2-2.9-.4-1.6.8-.6 2.4 1.1 3.1-.3 1.1-.8.2-2-1.7-.9.7-.9 1.1.3 1.8-1.3-.3-.4-.8-.6-.2v.2l.8 1 1.6.6.1 1.4 1.8 2.6.9 2.7 2.6 2.2v1.3l1 1.2h38.1l-1.8-2.2.2-.2.7.7h.2l-.7-2.1-.7.1.2.9-.6.1-.9-1.6-.7-.2-.6-1.1-.3.1-.2.3 2.2 2.7-3.7-3.5v-.6l1.2 1.2.8-.4.4-1-.8-.5v-.5l.5.2 2.3 2 5 5.6h1.4l-.7-.7-.7-.7-.3.2-.3-1.7-.9-1.8-2.5-2.7-2.2-.9-.8-1 .8-.3-1-1.3-.5-.4-.7.3-5-5.1-.3-1.1v-2.1l1.1-.2-.8-.5.3-.3 2 1.3 5.2 6.4 1.3.3.2 1.3 2.1 2.5.7.2.2.8 1.1 1 1.3 2 1.4.8.5-.3h.3l-.4.5 1.3 1.1.7.1v.4h-.7v.5l1.3 1.4h1.6l-.1-.4.5.4zm-36.9-3.7l-.6-1 .6-.6.7 1.1zm-16.1-2.6l.7.3-.1.5-.8-.3-.2-.7zm24-2l.2-.7-1.1-.4-.2-.8-1.7-.8H177l-.4-.9h1.8l2.1 1.1 3.5 3 .1.4-1-.5-1.4.4.1.5h-.4v-.9l-.4.4zm67.6-1l-.2.6-.5.1-.6-.4-2.8-.1-.5-1-.9-.4.3-.9-.8-.1h-3l.7.7h1.1v-.6l1.6 1.1.3.6 1 .5-.7.9.7.6-.3-1 .5-.3-.1 1.4.7.7h1.1l.2.7-2.8-1H240l-.8-.9-.7.3.1.6h-1l-.4-1-4.9-1-1-1.2.6-1 1.1.7 1.6-1 1.4.3.4-.6.9.7v-.7l1.2-.5-.1-.4-4.4 1.2-2.6-.4-.6.4.2.5v.4h-.2l-1.5-1.1H228l-1 .8 2.2 3.3-2.2.2-.6 1-3.5-.4.8 1.5-.5.1-1.5-.9h-1.2l-1.4-1.2-.7-1.3-1.2-.2-1-1.6V267l-2.5-1.9-1.4-.2-2.9-1.6-2-.3-.6-1.1-1-.9-2.1.3-.1.4 1 .4v.6l-.1.4h-1v.6l3.5.7 2.4 3.2.6 1.8-.8.6-1-.3-1 1.2.6 2.3 1.9.3 6 5.5h4.2l-2.6-1.8-.1-.5-1-.4v-.6l3.4 2.3h1.4l1 1h7.6l-.6-.6-1-.6-.8.2-2.8-2.3.1-1.1-.4-.6.9.6 2 .3 1.6-1 2.4.4.4-.5.4.4.7-.2v-.7l.8-.2.7.3 3 3.4 1.4.9 1.1 1.3h9.1v-.3l-.4-.5.4-.2v-.6l-2.9.2-.1-1.6-3.1-.3v-.7l-1.9-.4-.6-1.2.4-.3.8.4.8-.3.8.7.4-.6 2-.3.8.7 2.6.3zm-36.9 1l3.1 2.7v1.2l-4.8-4 .8.4zm36.9-15.3l-1 .6-.9-.6-.7.3-.2-1.5-1.4-1v-.4l-1.4.4.9 1.5-.5.6-1.2-.1-.4.6.3 1.2-.4.9.3 1.6 5 3 1.5.3v-6.2l-.1.4-.3-.4.1-.3.4.1zm0-13.4l-.6-1.2h-1.5l-.8.7v1.5l-2.5 3v1.5h2.1v1l1.7 1-.3 1.5.7.9 1.2.5zm0 0"/><path d="M248.5 274l3 .1 5.2 1.9.9-1.2 1-.5-1 .7.4 1 .4.3 1.2-.6 2 .1 1.6-1.1.5-1.3 1-.1.1-.9.2.7.6.3 1.9-.2.4-.5-.3-.5-1.3.8-3-1.6h-1l-2-1.7h-2l-.5-.5.8-1.3-1-1.3.4-1-.6-.6.5-1 2.5-.3 2.3.2 1.3.9h1l1.2-.8-.2-.8.6-.2v.7l.7.6-.3.7 2 2.8v1.3l.8 1.2h.7l.2 1.9-.6.3 1.1.9.5-.4v.7l2.1.7-.4.6.6.3.7-.2.3.5.8-.2.9.4-.9.4-.3 1.5-1.3-.2-.2-.5-1-.6-1.5.8-2.4-.7-.9.5-.2.2 1.5.7-.6.3.4.7-.2.1h21.4l-1-.8.8.4v-.6l-.8-.4-.6.4h-3.4l-1.4-.4-.3-1.2h-.5l.3-.9h.6v-.5l-.9-.3-2.8-1.9.7-.3-.2-1.3-1-.2-.2-.6-1.5.1-2.6-2.3-1.4-2-.4-1.5.8.3.6.6.5-.4-.5.8 1.4 1.4.8-.8-1.6-1.2.7-.7.2-.6-.3-.4.7-.5.3-1.2-1-1 .6-.5-.7-1h.6v-.5l-1-2.2 1.3-.2-.2-.8.4-.5-1.8-3-1-.6 2.1-1-.4-1h-.8l.6-.3-.1-.9.8.2-.2.3.4.5 2.3-.1 1.1-.6 1.5 1.2 1.2-1 1.3-.2 1-1.4-2.1-2.6-2.2-1.2-1.7.5.2-1.6-.7-.8-1.4-.2-.5.5v-.8l-2.1-.7-1.7.1.4 1.6-4.4 2.6-.3 1.3.5 1.5-1.2 1.9.3.7-1 1.2v1l-.5.2.2.7-.4.4-1.8.3-.5-.3.2-.3 1-.4.8.3.4-.5-.8-2.4-1.5.2-1.7-.5-.7.6.3 1.1-1 .7-.6.3-1.9-.4-2.1-2-.6-1.6-2.2-1.4-2.8-.4-1.1-.7-.9-2.3.1-.8-1-1.4v10.6l.5.2 4 .4v.5l2.1.7-.1 1 1 .4-1.7 1.1-2.7-.5-.6.7-.6.1-1-1.3-.8-.4v7.6l.9.1 2 2.7 4.2 1.5-.7 1v1l-1.4-.1-.4-1.1.4.6.4-.8-.6-.2-.4.4.3.1-.7-.1-1 .7h-2.2l-.6.6-.3.7zm27.3-26l-.6.7-.3-1.2.4-.6.5.3zm3.5-3l.6-.1.5.8-.8-.2zm-6.8-.8l-.1-.5.6-.1.4 1.1-.6.7-1-.4-.9.1.7-.6.7.1zM262 255.4h.6l.1.5-.8.1-.4-.4v-.4zm9.8 13.1v-.5l1.2-.4.4 1.2-1.2.3zm-.4-6.2v-.3l1.3.1.3.9-.8.4zm-14.2 12.1l-.2.2-1-.8 1.2.4zm-8.7 3.6l.2-.2-.2-.4zm0 1.5l.5-.5h-.6zm0-.5h.3l-.2-.4zm-46.6 0l1.6 1.2 1.3-.6.3.7h1.5l1.5-1h.8l.5.2.6-.4v-.2zm-1.9 0l.2.3h1.5l-.1-.4zm-5.5 0l.5.3.3 1.1-.8-.1-.3.3 1 1.4h1.4l1.1 1.4.9-.6-2.8-3.9zm0 0"/><path d="M-30.4 558h279V279.6l-.1-.1.1-.2v-.3h-9.2l.4.4 1.6 1 .8 1.3v.4l-.5.4-.5-.6H240v.7l1.9 1.9v1.1l-.7-.1.5 1-1.5-.4-.6.9.5.8-.1.6-.5.4-.5-.2-1.5-1.9-1.4-1-1.1-2.5-1.7-.7-.2-.4-1 .2-1.9-1.9-.3-1.1-.4-.4H222l.3 1.4-.5.1-2-1.5h-4.2v.1l1.9 1 .1 1 3.7 1.9 3 2.1h.5l1.2 1.8-1.1 1.4-1.3-.7-1.1 1.1 2.4 3.1 2 4-.5-.7h-.6l-.3.6-.5-1.1h-1.3v-.3l-1.1-.4-1.8-1.5-.6-1.4-1.4-.8-.3-1.4-.8.3-1.2-1-2 .1-2.3 1.2-.2.6.8 1.3-.5.5.4 1h-.5L211 291l-1-2.5.2-1-.8-.5-.5.3-2.3-1.9.7-.4-.4-1 .9-.6-.8-1.4.4-.5-.5-.5-1.7-.6-2.3.3-.1.8-1.2 1 1.4 2.5-1-.3-1.7-1.7h-.7l-1.4.3.3 1.7-1.5-1.6h-1.2l-1.2-.7-2.9-3.8h-37.9l.7.8.8 1.6.1 1 .7.4-.4 1.2-2-1.2-.9.7-.7.9 1.1.9-.2 2-2 2.5 1.8 3.7.9.7-.5.4-1.4-1.5-1.5-.5-.7-1.6-1.6-.5-2 .3-1.3 1-1.3 2 2.1 3.3-.8 1 .2.3-.2.5-1.7-.6-.5.8-1-.4-.2.4-.6-.7h-.7l-1-1-.5-1.2-1.5-1.4-2.4-1.7-1.7-.6-1.6-1.8v-1.2l-.6-.8-1.7-.9v-1l-2.6-2.2.2-1.2-.6-1.3-.6-.3-.7.2-.8-.9v-1.2l-1.1-.7.2-.1H-30.4zm184.7-261.4h-.2l-.3-1h.6zm51.4-2.5l-.3-.4.4-.4.6 1.4zm-15.2-3.8v.3l.5 1.3-1.2-.3-.8-1.8 1-.3zm1.2 3.7l-.6-1.7h.2l1.3 1.7.6 2.2-.2 1-1.2-2.2zm1.9-3l-1.2-.7-.7-.9.7-.3.6-.9 1 1.3.2.5-.7.3zm-2.3-5.5l-1.2-.9-.1-.4.4-.2zm-10.8-4.2l.5 1.2h.4l.3.8-2.2-2-.3-1.3.8.3zm47.1 2.4l3.7 3.3v.8l-1-.3-2-2.4-1.6-.4-1.6-1.4-.7.1.4-.7-2-1.3-.4-.8 1.5.6 2.7 2.3 1-.2zm0 0"/></g><g fill="none" clip-path="url(#C)" mask="url(#B)" class="D"><g stroke-width=".8"><path d="M474.2 272.8l32.4-29.1L475 224l-7.2-4.3" class="B"/><path d="M474.2 272.8l32.4-29.1L475 224l-7.2-4.3" class="C"/><path d="M392.3 172.5l-20-12.7L355 140l-20.8-23.5-4.6-6.3" class="B"/><path d="M392.3 172.5l-20-12.7L355 140l-20.8-23.5-4.6-6.3" class="C"/><path d="M285.4 34.2L285 33l-3.3-7.2-3.7-9.9-20.4-51.5-3.4-13.5" class="B"/><path d="M285.4 34.2L285 33l-3.3-7.2-3.7-9.9-20.4-51.5-3.4-13.5" class="C"/><path d="M467.8 219.7l-13-8.2-20.3-12.5-21.5-13.4-20.7-13.1" class="B"/><path d="M467.8 219.7l-13-8.2-20.3-12.5-21.5-13.4-20.7-13.1" class="C"/><path d="M464 281.9l10.2-9.1" class="B"/><path d="M464 281.9l10.2-9.1" class="C"/><path d="M329.6 110.2l-4-5.5-11.5-15.9-7.9-10.7-5.6-7.8-8.6-11.9-1.7-6.6-2.2-9.2-2.7-8.4" class="B"/><path d="M329.6 110.2l-4-5.5-11.5-15.9-7.9-10.7-5.6-7.8-8.6-11.9-1.7-6.6-2.2-9.2-2.7-8.4" class="C"/><path d="M474.2 272.8l32.4-29.1 20.3 11.8 18.8 10.8.4.1" class="B"/><path d="M474.2 272.8l32.4-29.1 20.3 11.8 18.8 10.8.4.1" class="C"/><path d="M441.7 301.8l1-.8 31.6-28.2" class="B"/><path d="M441.7 301.8l1-.8 31.6-28.2" class="C"/></g><g stroke-width="1.2"><path d="M291.8 57.7l-1.5-5.9-2.2-9.2L285 33l-3.3-7.2-3.7-9.9-16.6-41.8" class="B"/><path d="M291.8 57.7l-1.5-5.9-2.2-9.2L285 33l-3.3-7.2-3.7-9.9-16.6-41.8" class="C"/><path d="M565.6 276.8l-2-1.6-2.3-1.7-5.3-3-7.2-3.2-3.1-1-18.8-10.8-20.3-11.8-18-11.2" class="B"/><path d="M565.6 276.8l-2-1.6-2.3-1.7-5.3-3-7.2-3.2-3.1-1-18.8-10.8-20.3-11.8-18-11.2" class="C"/><path d="M412.8 185.5L394.7 174l-22.3-14.2-17.5-19.8-9.9-11" class="B"/><path d="M412.8 185.5L394.7 174l-22.3-14.2-17.5-19.8-9.9-11" class="C"/><path d="M488.5 232.5l-13.5-8.4-20.3-12.6-20-12.5-21.9-13.4v-.1" class="B"/><path d="M488.5 232.5l-13.5-8.4-20.3-12.6-20-12.5-21.9-13.4v-.1" class="C"/><path d="M345.1 129l-11-12.6-8.4-11.7-11.6-15.9-7.9-10.7-5.6-7.8-8.6-11.9-.2-.7" class="B"/><path d="M345.1 129l-11-12.6-8.4-11.7-11.6-15.9-7.9-10.7-5.6-7.8-8.6-11.9-.2-.7" class="C"/></g><g stroke-width="2.2"><path d="M516.1 249.2l-9.5-5.5L475 224l-20.3-12.5-14.5-9" class="B"/><path d="M516.1 249.2l-9.5-5.5L475 224l-20.3-12.5-14.5-9" class="C"/><path d="M310.5 84l-4.3-6-5.6-7.6-8.6-12-1.7-6.6-2.2-9.2L285 33l-3.3-7.2-3.7-9.9-4.8-11.8" class="B"/><path d="M310.5 84l-4.3-6-5.6-7.6-8.6-12-1.7-6.6-2.2-9.2L285 33l-3.3-7.2-3.7-9.9-4.8-11.8" class="C"/><path d="M440.2 202.5l-5.6-3.5-21.6-13.4-18.3-11.6-22.3-14.2-6-6.7" class="B"/><path d="M440.2 202.5l-5.6-3.5-21.6-13.4-18.3-11.6-22.3-14.2-6-6.7" class="C"/><path d="M366.5 153.1L354.9 140l-20.7-23.5-8.6-11.8-11.5-15.9-3.6-4.8" class="B"/><path d="M366.5 153.1L354.9 140l-20.7-23.5-8.6-11.8-11.5-15.9-3.6-4.8" class="C"/><path d="M273.2 4.1l-15.6-39.7-11.2-45" class="B"/><path d="M273.2 4.1l-15.6-39.7-11.2-45" class="C"/></g></g></svg>