<svg xmlns="http://www.w3.org/2000/svg" xmlns:xlink="http://www.w3.org/1999/xlink" viewBox="0 0 497 279" xmlns:v="https://vecta.io/nano"><style><![CDATA[.B{fill:#eef0d5}.C{stroke:#fff}.D{stroke:#8d618b}.E{fill:#f5e9c6}.F{fill:#cdebb0}.G{fill:#aad3df}.H{fill:#d6d99f}.I{fill:#add19e}.J{stroke-linejoin:bevel}]]></style><defs><clipPath id="A"><path d="M0 0h32v32H0z"/></clipPath><g id="B" clip-path="url(#A)"><use xlink:href="#B"/></g><pattern id="C" width="32" height="32" patternTransform="translate(-36 -2.3)" patternUnits="userSpaceOnUse"><use xlink:href="#B"/></pattern><clipPath id="D"><path d="M0 0h32v32H0z"/></clipPath><pattern id="E" width="32" height="32" patternTransform="translate(-36 -2.3)" patternUnits="userSpaceOnUse"><g clip-path="url(#D)"><use xlink:href="#F"/></g></pattern><clipPath id="F"><path d="M0 0h32v32H0z"/></clipPath><pattern id="G" width="32" height="32" patternTransform="translate(-36 -2.3)" patternUnits="userSpaceOnUse"><g clip-path="url(#F)"><use xlink:href="#I"/></g></pattern><clipPath id="H"><path d="M0 0h32v32H0z"/></clipPath><g id="I" clip-path="url(#H)"><use xlink:href="#M"/></g><pattern id="J" width="32" height="32" patternTransform="translate(-36 -2.3)" patternUnits="userSpaceOnUse"><use xlink:href="#I"/></pattern><clipPath id="K"><path d="M0 0h32v32H0z"/></clipPath><pattern id="L" width="32" height="32" patternTransform="translate(-36 -2.3)" patternUnits="userSpaceOnUse"><g clip-path="url(#K)"><use xlink:href="#P"/></g></pattern><clipPath id="M"><path d="M0 0h32v32H0z"/></clipPath><pattern id="N" width="32" height="32" patternTransform="translate(-36 -2.3)" patternUnits="userSpaceOnUse"><g clip-path="url(#M)"><use xlink:href="#T"/></g></pattern><clipPath id="O"><path d="M0 0h32v32H0z"/></clipPath><g id="P" clip-path="url(#O)"><use xlink:href="#W"/></g><pattern id="Q" width="32" height="32" patternTransform="translate(-36 -2.3)" patternUnits="userSpaceOnUse"><use xlink:href="#P"/></pattern><clipPath id="R"><path d="M0 0h32v32H0z"/></clipPath><pattern id="S" width="32" height="32" patternTransform="translate(-36 -2.3)" patternUnits="userSpaceOnUse"><g clip-path="url(#R)"><use xlink:href="#a"/></g></pattern><clipPath id="T"><path d="M0 0h32v32H0z"/></clipPath><pattern id="U" width="32" height="32" patternTransform="translate(-36 -2.3)" patternUnits="userSpaceOnUse"><g clip-path="url(#T)"><use xlink:href="#d"/></g></pattern><clipPath id="V"><path d="M0 0h32v32H0z"/></clipPath><g id="W" clip-path="url(#V)"><use xlink:href="#h"/></g><pattern id="X" width="32" height="32" patternTransform="translate(-36 -2.3)" patternUnits="userSpaceOnUse"><use xlink:href="#W"/></pattern><clipPath id="Y"><path d="M0 0h32v32H0z"/></clipPath><pattern id="Z" width="32" height="32" patternTransform="translate(-36 -2.3)" patternUnits="userSpaceOnUse"><g clip-path="url(#Y)"><use xlink:href="#k"/></g></pattern><clipPath id="a"><path d="M0 0h32v32H0z"/></clipPath><pattern id="b" width="32" height="32" patternTransform="translate(-36 -2.3)" patternUnits="userSpaceOnUse"><g clip-path="url(#a)"><use xlink:href="#o"/></g></pattern><clipPath id="c"><path d="M0 0h32v32H0z"/></clipPath><g id="d" clip-path="url(#c)"><use xlink:href="#r"/></g><pattern id="e" width="32" height="32" patternTransform="translate(-36 -2.3)" patternUnits="userSpaceOnUse"><use xlink:href="#d"/></pattern><clipPath id="f"><path d="M0 0h32v32H0z"/></clipPath><pattern id="g" width="32" height="32" patternTransform="translate(-36 -2.3)" patternUnits="userSpaceOnUse"><g clip-path="url(#f)"><use xlink:href="#v"/></g></pattern><clipPath id="h"><path d="M0 0h32v32H0z"/></clipPath><pattern id="i" width="32" height="32" patternTransform="translate(-36 -2.3)" patternUnits="userSpaceOnUse"><g clip-path="url(#h)"><use xlink:href="#z"/></g></pattern><clipPath id="j"><path d="M0 0h32v32H0z"/></clipPath><g id="k" clip-path="url(#j)"><use xlink:href="#G"/></g><pattern id="l" width="32" height="32" patternTransform="translate(-36 -2.3)" patternUnits="userSpaceOnUse"><use xlink:href="#k"/></pattern><clipPath id="m"><path d="M0 0h32v32H0z"/></clipPath><pattern id="n" width="32" height="32" patternTransform="translate(-36 -2.3)" patternUnits="userSpaceOnUse"><g clip-path="url(#m)"><use xlink:href="#N"/></g></pattern><clipPath id="o"><path d="M0 0h32v32H0z"/></clipPath><pattern id="p" width="32" height="32" patternTransform="translate(-36 -2.3)" patternUnits="userSpaceOnUse"><g clip-path="url(#o)"><use xlink:href="#U"/></g></pattern><clipPath id="q"><path d="M0 0h32v32H0z"/></clipPath><g id="r" clip-path="url(#q)"><use xlink:href="#b"/></g><pattern id="s" width="32" height="32" patternTransform="translate(-36 -2.3)" patternUnits="userSpaceOnUse"><use xlink:href="#r"/></pattern><clipPath id="t"><path d="M0 0h32v32H0z"/></clipPath><pattern id="u" width="32" height="32" patternTransform="translate(-36 -2.3)" patternUnits="userSpaceOnUse"><g clip-path="url(#t)"><use xlink:href="#i"/></g></pattern><clipPath id="v"><path d="M0 0h32v32H0z"/></clipPath><pattern id="w" width="32" height="32" patternTransform="translate(-36 -2.3)" patternUnits="userSpaceOnUse"><g clip-path="url(#v)"><use xlink:href="#p"/></g></pattern><filter id="x" width="100%" height="100%" x="0%" y="0%"><feColorMatrix in="SourceGraphic" values="0 0 0 0 1 0 0 0 0 1 0 0 0 0 1 0 0 0 1 0"/></filter><mask id="y"><g filter="url(#x)"><path fill-opacity=".5" d="M0 0h497v279H0z"/></g></mask><clipPath id="z"><path d="M0 0h497v279H0z"/></clipPath><path id="AA" d="M320.9 351.2v-.2l5.5-15.2 20.2-38.1 3.2-6 10.7-20.3"/><path id="AB" d="M120.2 16.5l.8.5 75.9 45"/><path id="AC" d="M360.5 271.5l6.8-12.9 2.6-5-10.4-2.6-7.2-1.8-3.6-1-26.4-28.8 8.2-.4"/><path id="AD" d="M199 64l13.7 16.7L223.4 93l6 7.3 4.1 1.4 2.8 18.7 11.5 12.4 1.2 1.4"/><path id="AE" d="M369 255.4l-1.8 3.2-17.4 33-3.2 6-19.4 36.7"/><path id="AF" d="M43.2-28.2L74.5-10l45.7 26.5"/><path id="AG" d="M196.9 62l.5.3 15.4 18.3L223.4 93l6 7.3 4.1 1.4 2.8 18.7L247 132"/><path id="AH" d="M247 132l.8.8 17.1 18.9 40.5 47.6"/><path id="AI" d="M305.4 199.3l9.4 11 7.5 9.3 26.4 28.5 3.6 1 7.2 2.1 10.5 2.3-1.1 1.9"/><path id="AJ" d="M307.3 201.6l7.5 8.8 7.5 9.1 23.7-1.8 41.4-6.7"/><path id="AK" d="M289.1 180.2l25.7 30.2 7.5 9.1 23.7-1.8 13.7-2.3"/><path id="AL" d="M305.4 199.3l9.4 11 7.5 9.3 23.7-1.9 38.5-6.3"/><path id="AM" d="M175.3 49.2l22.1 13 15.4 18.5L223.4 93l6 7.3 4.1 1.4 1.3 9.4"/><path id="AN" d="M234.9 111.1l1.5 9.3 11.4 12.4 17.1 18.9 24.2 28.5"/><path id="AO" d="M21.5-41l1.9 1.6 10.8 6.1 40.3 23.2 24 14"/></defs><path fill="#f2efe9" d="M0 0h497v279H0z"/><g fill-rule="evenodd"><path d="M73.6 176.8h4.8l4.2 3.7 6.4.3 3.8 4.9 2.2 5.9 3.1 5 4 1.1.2 1.7 3.4 1.6.5-2.9.9 5.7-2.2 2.5 6.6 1.7 2.2-3.8.3-5.2v-5.7l2.7-4.3 4.5 1-.2-4.6 2.4 4.7-2.9 4.7v3l-2.1 5.8.3 4.1.8 1.6.5 3.5 3 2 2.8-2.1v-3.9l1-5.4 2.4-3.9-2.5-5.2.8-4.9-1.5-2.8-2.4-3.6 1.9-4.5-3.3-2.2-2.2-2.6-4.2 2.2-3.8-2.7-3.3-2.7 2-4.4 3.8-4.2.5-6.5.2-7h-5.8l3.2 3.9-5 2.6-2 4.1 1.4-3.9-4.3-3.9 1.9 4-3.3 2.3-.3 2.9-4.4 3.4-4.6 2.6-.7 2.9-4.3-3-2.2-5.6 2.5-6-3.8-1.3-3 3-2.5 3.4-1.6 5.5.4 6-3 5.1zm0 0" class="F"/><path d="M25 25.7l4.5-3.4L31 17l2.9-7 4.4-5.4 6 .6 4.4 4.4 7.3 2.2-2.5 4.3-1.3 5.3-3.6 4.6-.3 2.5 3.5-2.7 1-2.7 1.6-5.5 3.6-3.7 2.2-7.2 2.2-8 1.2-9.1.3-6-1.7-4.1-5.2 2.2-4.5 2.3-4.1 1-1.8-6.9-.8-6.1-2.6-8.8-2.8-4.6.4-10.4-1-9-4.1-5.2-2.5 16.7 1 10.2L36.4-27l5.4 6.6 2.6 6.2 5.3 3.7.8 5.1-4.9 3.5-3.5-4.6.2-4.9-2 .3L38.2-6l-4 6.7-1.5 6-3.7 3.9-1.5 6.4-2.5 7.9zm0 0" class="E"/><path d="M92 220.3l2.2 6 5.9-.6-2.1 1.1-1.4 4.8-1.4 3.4 2.5 5.1 1.3-3.7 1.4-1.5 4.5 1.6 3-4.8 1-.7 4.4-4 2.3 1.7 1.2-3.6v-6.3L112 217l-1.9-.4-4.4 2.4-1.7-2.6-6-.4-5.4 3.6zm0 0" class="F"/><path d="M33.6 5l4.6-1.4 6 .2L42.8.5l5.4.3L50.4 3l-5 .9 2.4 3.5L53 8.6l4.3 3.8 2.1-4.5 1.9-6.2 1.4-7 .5-6.4-1 5.7L61 .7l-4 .6-.1-5.2L58-8.4l-.7-2.4-.6-6-3.5 4.5-1.8 6.4-5.7 4.5L41.1 1l-2.7-3.9-3.1 5.1-1.5 2.3zm26.3 264l1.8 2 2.4.3 1.4 1.3 3.3-.4 4.8-1.4 3.8-4.4 2.2 3.4 1-2.6 3.3 2.4 2.1-2-.3-4.4-4.1-2.1-4 1.9-1.4 1-4.6.6-4.1-1-4.4 2.4-3 2.7zm0 0" class="E"/><path d="M8 175.8l.3 2.2 1.2 6.5 4.3 1.5 4.8.5 3.8 2.8 3.1-3 .5-5.3-5.1-3-6.4-1.7h-3.3zm9 1.2l2.1.4 3.1 1.8" class="F"/><path d="M9.8 79.9l2.1 7.4-1.9 6.9 3.8-3.5 1.1-6.3 5.1-3.6-2 .3-1.6-6.7 1.2-5.7 5.1-3-4.4 3 6.9-1.2 1.6-3.4-.5-8.1-1-6.5-1.5-5.1 1.2 6.9v7.3l-5.2 2.7-4 4.8-1.6 6.9v7.4l-4.2-.8zm87.3 187.9l3.6 1.3 3.6.9 3.1-4.4-2-5.8-6 1 .1 4.1-.7 1.1-1.6 1.4zm-72.8 1l3.6 3.7 3.2-2.2-.3-3.6 1.4 4.2 2.5-1.5-1.8-5.4h-3.4l-4 .7-1.3 3.9zm0 0" class="E"/><path d="M6.6 257l1 3.8 2.9-3.4 1.7-3.4 2.2-3.8-.8-4.9-4.7-1 1.3 3.5-.2 2.2-1.2 3zM29 189.1l3.7 3.6.3 3.7 2.9-1.9 5.3.2 3.8-3.3-6 .4-.7-1.3-1.4-2-3.6.9-2.3-1.2-2 .5zm61.1 28.6l4.9-.8-2.6-8.3-.7-5.7 4.6-4.9 4.7 6.4 1.4 1-1.4-3.8-1.8-3.2-4.9-1.6-1 2.2-1.7 3.4-.7 5.3 1.5 5.1-1.5 3.7-.7 1zm0 0" class="F"/><path d="M158 189.6l1.6 1.4.9 2.1.7 1 1.7 2 .9 2.5.6.6.4 2.1 1-5-.5-2.7 2.7-3.3-2.2-1.3-.8 1.6-1.7-.8-2-.8-1.7-.6-1.6 1.1zm0 0" class="H"/><path d="M31 24l2.5-4.4 4.5-1.4-1.3-4.6-3.2 2.7-2.2 6.4zm0 0" class="E"/><path d="M24 219.7l3.3-1 .9-3.7.3-2 .9-3.4-3.2-.5-.1 3.6-1.1 3.7-.9 3.1zm3.8-7.7l1.2-1.6" class="F"/><path d="M152.5 149.7l4-3.4 4.5-9.2-2.9 3.2-4.1 5.2-1.3 2.5zm0 0" class="E"/><path d="M170.1 139.8l2.4 6.1-.7 6 3 4.4 1.7 5.6-.6 5.3 1-4.8-1.5-5.3-2.2-4.1-.3-6 .1-5.7-1.9-5.3-.5 3.7zm0 0" class="H"/><path d="M217.2 96.3l1.5 7 3.2.5 1.1.4-1.2-6.9-3.6-1.6zm0 0" class="E"/><path d="M10.2 186.6l3.8 2 7.5 4.6.9-3.9-4-2.3-4.4-1-3.7.6zm0 0" class="F"/><path d="M154.6 196.4l1.8-1.6 2.6.2-.9 5h3.5l1-1-.7-1.6-2-.2-.7-1.4-1.1-3-.7-2.2-2.8 4.6zm0 0" class="H"/><path d="M-11.5 270.4l6.3 4.8L.7 278l-4.6-4.1-6.9-4.5zM30 251.9l1.5 5.5 4 4.7-1-5.1-2.5-4.3-1.9-1.5zm0 0" class="B"/><path d="M214.5 72.1l1.3 1.5 4-6.3 5.4-5.4-9.5 7.7zM16.4 175.8l5.5 2.3 4.8 2.3 2.3 2.8-1-4.1-2-1.2-3.3-1.1-.7-.3-3.4-.2-1.5-2.6zm0 0" class="E"/><path d="M49.3 212l2.9 4 .7-3.3 1.6-2.2-4.2.8-1 .5zm0 0" class="H"/><path d="M-1 272l4.9 1.3 3.7-.3-5.3-2.9-2.8 1zm0 0" class="B"/><path d="M160.5 217.4l2-.1.7.7 1-.4 2-4.6-3.3 1-2.3 2.7zm0 0" class="E"/><path d="M30.3 182.7l3.9 1.1 5-2.3-1.6 3.5 2.6-1.7-3.3-1.7-3.3-.8-2.6 1.5zm0 0" class="F"/><path d="M236.8 57l9.2-1.8 8.4-.8-11.9.6zm0 0" class="E"/><path d="M165.7 199l1.9-2.5-.6 4.5 1.9-1.5 1.7-.8-1.6-.7-1.1-.2 2-5-1.8-.5-.9 2.5-1.2 3.3zm-6 22.2l4.3-.2 1.2-3.2 2.4-5.8-3 4-1.8 4-.8-3.9-.5 1.1-1.1 3.3zm0 0" class="H"/><path d="M100.7 250.2l2.5 5.3 1.8-1.2-1-3.7-3-.6zm0 0" class="E"/><path d="M42 202.3l3 .7 1.3-4.3-2.8 2-1.4 1.3zm0 0" class="F"/><path d="M-4 273.6l5.4 2.5L.3 273l-3.7.4zm0 0" class="B"/><path d="M35.6 199.3l4.6.3.8-2-1.9-.2-3.1 1-.4.8zm0 0" class="F"/><path d="M164.2 211.2l1.9-1 .9-1.8.9-3-.4-.4-1.7.7-1.2 5.2zm0 0" class="H"/><path d="M193.1 136.8h4.7l-.2-4.6-2.2 3.9-2 .7zm0 0" class="E"/><path d="M43.2 250l3.9-.3-2.3-2-1.5 2zM1.4 277.1l2.6.4h2.6l1-3.8-4.6 2.5-1.4.8zm0 0" class="B"/><path d="M161.3 188.2l2.7 1.3.9-2.7-1.9-.6-1.1 1.8zm0 0" class="E"/><path d="M74.9 279l6.4 2.8-5.4-4.2zm0 0" class="B"/><path d="M193.7 104.9l1-1.4 1.7-7.2-2.4 5.4zm0 0" class="E"/><path d="M20.3 208.8l1.7-.1zm0 0" class="B"/><path fill="#c8d7ab" d="M48.3 254.8l3.5 1.1-2.5-3.2-.6.3zm0 0"/><path d="M44 247.5l4.8-1.1h-3.7l-1.1.6zm0 0" class="B"/><path d="M26.3 189.4l4.8 2-1.1-3.2-3.3.2zm0 0" class="F"/><path fill="#c8d7ab" d="M50.1 256.9l3.2 2.3-1.5-1.9-1.8-.5zm0 0"/><path d="M111.5 207.1l4 1.6-3.7-2.2-.3.3zM8.9 175l5.6.9-1.4-1.1-2.7-1.1zM158 201.7l1.3 4.4 1.3-5.1-2.3-.3zm12.8-72.7l2.8-5.1-2.1 2.8zm0 0" class="E"/><path d="M22.3 210.2l1.1 1.5-1-2zm64 66.1l2.2-.5-2.2.2zm0 0" class="B"/><path d="M43 40l2.2-4.6-2 3.7zm0 0" class="E"/><path d="M83.5 278.9l1.7-5.2-1.4 4.3zm0 0" class="B"/><path d="M162.7 205.9l1.5-.7-1.2-.2zm-11.5-5.1l1.7-3.3-1.6 2.9zm4.1 1.8l1.9-2-1.7.7zm9.7-.9l2.6 1.3-2.5-1.8zm0 0" class="E"/><path d="M-3 270.9l1.5-1.6zm74.1 9.5l.2-.8zm-41.7-87l3.6 1.3-3.3-1.7zm0 0" class="B"/><path d="M51.7 217.9l3.7-2-.9.3-2.7 1.4zm0 0" class="H"/><path d="M.9 273l3.1 1.8-2.5-2.3zm0 0" class="B"/><path d="M158.5 198.5l1.6-5-1.4 4.4zm-2.4 18.9l1.9-.2-1.9-.2zm0 0" class="E"/><path d="M83.3 279.6l1.4.2-1.3-.5zm0 0" class="B"/><path d="M160.3 213.3l2-4.7-2 4.4zm.4-15.9l1-2.2-1 1.3zm1.3 6.9l1.5-3.3-1.2 2.5zm0 0" class="E"/><path d="M27.1 206.3l.7-.5zM85.3 273l2 1.3zm-84 5.2l2.8.8-2.7-1zm0 0" class="B"/><path d="M152.5 204.5l1.8-2.5-1.7 2zm0 0" class="E"/><path d="M76 277.5l.3-.5zm72.6 2.5l1.8.7v-1.9l-1.4-.3zm-62-46.5l.6-1zm0 0" class="B"/><path d="M40 196.4l4.4-3-2.2 1.3-2.2 1.6zm0 0" class="F"/><path d="M26.2 208.3l.4-.7zm0 0" class="B"/><path d="M157.1 208l.9-2.7-.4 1.8zm-10.5-19.3l1.7-.6-1.3.1zm0 0" class="E"/><path d="M85.9 234.6l.3-.5zm0 0" class="B"/><path d="M170.9 190.7l1.2-4-1.1 3.1zm0 0" class="H"/><path d="M89 272.6h.5zm-1.1 7.4v-1.4zm-14.1-1.8L75 277zm11.5 1.8v-.8zm.7-.4l1-1.1-.9.5zm0 0" class="B"/><path d="M54.7 261.3v-.2zm0 0" class="E"/><path d="M169.6 190.2l.8-3-.4 2.2zm0 0" class="H"/><path d="M87.3 274.6l.4-.7zm0 0" class="B"/><path d="M216.9 118.5v-.7zm-143 153.3l.2-.5-.1.3zm0 0" class="E"/><path d="M47.7 251.6l1-1.6-.9 1.4zm25.2 29.3v-1.1zm12.4-7.9l.4-.8zm0 0" class="B"/><path d="M37.3 262.1l1.2-2.4-1.2 2zm0 0" class="I"/><path d="M217.7 107.4v-.4zm0 0" class="E"/><path d="M73 281l.5-1.1zm16.1-6.2h1zm0 0" class="B"/><path d="M92.6 272.8l.3-.2zm0 0" class="I"/><path d="M87.7 235.2l.3-1zm-7.4 1.2v-.6zm0 0" class="B"/><path d="M159.6 207.8l.3-.4zm-5.6-2l.3-.6zm59-85.1v-.4zm0 0" class="E"/><path d="M24 188.7l1.2-.6-1.1.5zm0 0" class="F"/><path d="M83.8 233.7l.8-.2zm5.2-.8l.9-.1zm0 0" class="B"/><path d="M166.6 199l.3-1zm0 0" class="E"/><path d="M90.4 259.8v-.1zm0 0" class="B"/><path d="M151.5 207.7l.2-1zm0 0" class="E"/><path d="M85.4 278.1v-.7zm0 0" class="B"/><path d="M39 255v-.5zm3-3.4l1.4-1-1.4.9zm0 0" class="I"/><path d="M33.7 208.7h.3zM4 278.8l.2-.1zm0 0" class="B"/><path d="M53.7 265.3l.1-.1zm0 0" class="E"/><path d="M49.4 251l.2-.4zM81 237.5l.2-.2zm8.4 41.1v-.9zm-.9-41.6l.1-1.4zm-58.8 3.6v-.1zm55.6-7.5l.7-.3zm-1.9 3.9v-.3zm-1-1.2h.2zM22.8 207l.2-.2zm-.6-2.4l.5-.2zm67.7 54.7l.1-.2zm0 0" class="B"/><path d="M155.4 211.8v-.5zm0 0" class="E"/><path d="M33.6 210.5l4.8 1.2zm.1-.1h.4" class="I"/><path d="M27.6 205.2h.1zm24.5 47v-.2zm-24-43.6l.4-.6zm61.4 51.6v-.2zM4.6 277.9v-.1zm30.6-68.1v-.4zM85 235.9v-.3zm-.6-1.3h.2zm-34 16.7h.2zm0 0" class="B"/><path d="M29 212.3v-.1zm0 0" class="I"/><path d="M30.7 192h.2zm0 0" class="F"/><path d="M85 235.2v-.2zm0 0" class="B"/><path d="M92.1 273.3v-.3zm0 0" class="I"/><path d="M84.7 236.3l.1-.2zm0 0" class="B"/><path d="M30 210.5l.1-.2zm0 0" class="I"/><path d="M155.2 213.8l.3-.2zm0 0" class="E"/><path d="M85.8 235.3v-.3zm0 0" class="B"/><path d="M39.3 212v-.1zm0 0" class="I"/><path d="M83.6 238.6l.3-.3zm0 0" class="B"/><path d="M28.8 213v-.4zm0 0" class="I"/><path d="M52.1 252.6l.2.2.2-.2-.2-.2zm31.2-14.1l.2.5.2-.2-.3-.3zm0 0" class="B"/><path d="M220.6 100.7v-.3zm0 0" class="E"/><path d="M120.8 264.9v-.1zm-.5.8v-.2zm0 0" class="B"/><path d="M26 184.3l.3-.3zm0 0" class="F"/><path d="M51.8 252.4h.2v-.2zm0 0" class="B"/><path d="M-53 32.2l.2 2.8.5 4.4.4 2.6.2 1.3.8 2.5.9 3.2.8 1.6.8 1.9.3.8.3.6.2.6.4.5.2.5.2.5.3.3.3.8.1.3.1.1v.2l.4.3.1.5v.2l.4.6v.4l.1.2.1.3.2.4.1.3.1.3.1.2.1.3v.3l.3.2v.8l.3.2v.4l.1.4v.4l.3 1.2v1h.2v1.2l.1.5v1.8l-.3 1.3-.7 1.5-.2.4-.4.5-.4.2h-.2l-.3-.2-.3-.2h-.3l-.4-.4h-.8l-.5.3h-.2l-.3.2-.2.2-.6.6-.4.5-.9 2-.6 1.5-.3.9-.2 1.4v.4l-.2.8v5l.7 2.1.3.9.3.3h.1l.4.5.7.2.4.3 1 .4h1.5l2.5-.8 1-.2 1.4-.4.9-.3 1.8-.6 1.3-.7.7-.4.5-.3.2-.1.3-.1.7-.4.4-.2.3-.5 1.1-.7.7-1.5 1.2-1.5.6-.8 1.5-2.5 2.3-4.9 1.4-4.2.8-3.2 1-11 .2-1.7.1-.9.4-2.8.2-.7.1-1 .3-1.3v-1.2l.3-1.4v-1.2l.1-.4v-.2l-.1-.3V43l.3-.2v-.2l.1-.1.4-.3.8-1.7.7-2.5.4-1.9v-1.3l-.6-1.1-.9-.8V29l-.6-.8-.2-.5-.3-.3-.4-.5-.1-.8.3-1 .6-1.1.2-.6 1-1.4.4-1.6.4-2.3-.4-1.5-.7-.8-.8-.4-.6.2-.4-.4-.5-.2-.4.3-.2.2v1h-.4l-.1-.4v-.7l.1-.7.5-1.3.5-1 .4-1 .7-.5.4-.5.5-.7.3-.5.1-.2.6-.6.2-.6.7-.7.4-.6.9-.8.8-1.5 2-1.7.8-1.4 1.6-2 1-1.4.8-1.2 1-2.8v-.6l.6-3.4-.5-1.7-.6-1.1-.3-.6-1-1-.5-1.5-.4-.8-.6-.5-.2.2h-.2v-.2l-.5-.2v-.3l-.3-.5-.2-.3-.1-.2v-.3l-.3-.3v-.8l-.1-.2v-1.9l.4-.4.1-1 .2-.9.1-.5.2-.5v-2l-.5-.2.3-1v-.4l.2-.6.1-1 .1-.1v-.3l.3-.8v-.2l.3-1.6-.3-.7-.1-.4h-.2l-.2-.1.2-1.3.4-1.4v-3.4l.4-.9.3-.5v-.9l.2-.8.2-.9v-.4l.3-.5-.3-.5-.3-.3h-.2v-.2l.3-.5.2-.6.5-.4.5-.8.6-1.4.4-.8.3-1 .6-.8.4-.5.8-1 .8-.8.7-.2.7-.6.3-.2.3-.4.5-.6.4-.7.4-1 .4-1.1.2-.4.1-.6.4-.3.7-1.3.3-1.4 1-2.4 1-2.4.3-.3.2-.3.5-.4.5-.4.5-.4.8-.4h.6l.6-.1.6-.3h.5l.4-.3.4-.4.4-.5.3-.4.5-.7.8-1.2.7-1.5.5-.9.2-.4.3-.9.3-.8.1-1 .3-1 .1-.7.2-.6.4-.5V-86l.3-.7v-.7l.1-.8v-.4l.1-.4v-1.8l.4-1v-2.1l-.3-.3-.1-.5v-.3l.2-.3.8-.7.5-1.1v-.8l.3-.5v-.6l.4-.2.3-.8v-1.9l.3-.2.1-.4.3-.5.3-.6.2-.4.4-.1h.5l1 .3.4-.2.2-.2.3-.2.2-.2.4-.2.7-.2.7-.2.4-.4.3-.4.5-.7.3-1 .1-.6v-1.9l.4-.7 1.1-1.1 1-.7.3-.1v-.9l-.1-.3h.7l.4.3h4.9l.4.3.3.1h.5l.5-.2.4-.3.3-.2.3-.5.1-.4v-.5l.3-.2.3-.2h.3l.8.2.8.5.7.4 1 .2 1 .5 1.1.6h1l.6-.3 1.1-.3h1.5l1.8.9h1.3l.5-.3.5-.2.7-.5 1.2-1.3 1.5-2.1 1.4-2.3.8-1.5 1-2.7.4-2 .3-1v-1l-.2-.5-.5-.7-.5-.3-.4-.3-.4-.1h-1l-.8.2-1.9.7-.7.5-.6.6-.6.9-.4.6-.3.4-.3.5-1.4 1-.5.8-.4.5-.4.5-.3.9v.1l-.1.1v.4h-.2l-.1.2v.3l-.2.7v.6l-.2.5-.3.5v.1h-.2v-.3H42l-.2-.3v-.3l-.2-.4v-.4l-.2-.2-.2-.3-.3-.2-.4-.2-.5-.1-.2-.1-.6-.2-.9-.3h-.4l-.2-.2h-.4l-.2-.1h-1.9l-.4.1-.6.2H34l-.2.1h-.5l-.3.3h-.4l-.2.1-.2.2-.2.2v.2l-.3.2v.3l-.2.3v1.7l-.1.7v1.4l.4 1-.4.5-.4.2h-.7l-.3.2h-.4l-.3.2h-1.7l-.6-.2h-.7l-.3-.2-.3-.2-.1-.1-.3-.1h-1.1l-.4.3h-.5l-.7-.3H22l-.4-.3-.3-.1-.3-.2-.6-.3h-2.7l-.7-.2h-1l-.6-.2h-1.1l-1-.1-.7-.1h-.4l-.4-.7-.4-.2-.6-.5-.5-.1-.5.2-.5.2-1 .7-1.5 1.5-.3.6v1.2l-.1.7v1.3l.5.9.5 1.2 1 1.4.9.9.2.5v1l-.2.3-.4.4h-.6l-.8-.2-.7-.5-.4-.3-.6-.2-.3-.2-.5-.1-.3-.3-.4-.1-.3-.1h-.5l-.6.1-.4.3-.3.7-.5.4-.7.6H.8L0-105l-.4-.3-.4-.3-.1-.4v-1.1l-.3-.3h-.7l-.4.4-.4.1-.4.4-.3.2-.2.3-.4.3-.3.3-.4.6-.3.5-.3.4-.2.4-.3.5v.3l-.5.6-.1.4v.1l-.2.2v.2l-.2.4-.1.4-.1.2-.1.2-.1.4-.1.2v.4l-.2.1v.4h-.2v.3l-.2.1v.4l-.1.2v.4l-.2.1v.4l-.1.6-.1.4v.3l-.2.6v2.5l-.3.2v.2l-.3.6-.6.9-.3.7v.6l-.4 2.3v1.3l-.2.5v1.9l-.2.2v.8l-.1.7-.2.8-.1.5v.4l-.2.1v.5l-.1.3v.5l-.2.2v2.1l.3.3v.4l.1.9v2.8l-.3.8v.2l-.1.1-.4.2h-.8l-.2.2h-.5l-.4.3h-.1l-.3.3h-.2l-.1.3-.3.5-.2.6-.1.8-.1.6-.1.4-.1.4-.3.2v.3l-.3.6-.1.2-.3.3-.3.5-.4.3-.3.4-.3.5-.1.3-.1.2v.8l-.2.1v1l-.1.3v1.6h-.2v.6l-.1.2v.1l-.2.5v.8h-.3v.3l-.2.4v.1l-.2.2v.4l-.3.2v1.4l-.2 2.5v1.2l-.3 1.8v2.5l-.1.2v.2l-.2.2-.1.2-.7.5-.8.5-.5.6-.6 1-.5.4-.6 1.2-.4.7-.5.3-.7.6-.3.3-.5.5-.7.4-.3.6-.6.6-.2.6-.8 1v.4l-2.5 3.5-1.2 2.5-.4 1.1-.3 2-.5 1.9v1l.1.7v.1l.4.8v.2l-.4.2-.1.4-.5.7-.4.9-.8 1.1-.4.9-.3 1.3-.1.9-.5 3.6-.3 2.8-.2.9-.8 2.4-.5 1.1-.4.8-.3.5v.2l-.2.2h-.2l-.6.9-.5.4-.8 1.1-.5.8-.3.5-.2.5-1 2.1-.4 1.1-.2 1.1-.2.8v1.4l-.3.2v1l-.1.4-.5 1-.3 1.1-.3 1-.1 1-.1.9-.3 1.2-.3.6-.4 1-1.7 2.5-1.2 2.5-.8 1.9-.5 1.6v.2l-.2.8-.4.8-.2.9zM-4.2-74.3l.2-.7.4-1 .6-.6.7-.2 1 .3v.5h.5l.2.8.4.2v.3l.4.5.1.2-.3.6v.4l.3-.3-.3.5-.2.6-.2.3v.4l-.3.1-.1-.1-.6.3v.2h-.9l-.7-.4-.6-.8-.1-.8-.4-.8zm.5-18.5l.2-.4v-.5l.2-.7-.2-.3v-1l.5-.2.9-.4.7-.2h1l-.6.3h-.5l-.2.4-.3.4-.3.4v.7l-.3.3-.2.6v1.5l-.3-.3v-.2l-.4-.3h-.2zm1.2 3.4v-.4l.1-.7.4-.5h.5v.4h.2v.1h.3v.2l.4-.1.2.2h.2v.3l.5.3v.2h-1.8l-.2.2-.1.2v-.1l-.6.1v-.3zM2-86.7l.2-.3h.1l.1.2v.4l.3.2.3.5-.3-.3h-.2l-.2-.3zm1.5-14.7l.1-.3v.5zm10.7-7.7v-.8l.2-.1v-1h.2l.2-.5.4-.6.6-.7.5-.4.4-.2h.7l.1.4v.2l.3.3.4.3.7.2h.3l.3-.3h.2l.3.3v.6l-.4.3v.4l.4 1-.2.7-.4.3-.7.5-.7.5-.3.4-.2.2-.1.2-.4.5-.2.2-.2-.3.2-.5v-.3l-.2-.2-.2-.1H16v.1h-1l-.3-.5-.3-.3-.1-.2v-.3zm4.5-3.9v-.6l.1-.1h.2l.4-.3h.4v.3l-.3.5-.2.2h-.4zm0-.2" class="G"/><path fill="url(#C)" d="M91 205l2.4 7.3 2.7 4.7 6.1.2 1.8 2 5.3-.9 3.9-3.1 3 2.6-.9-5.5-5.2-4.7-5.3-1.2-4.4-4.8-5.4-3.1-3.5 5-.4 1zm0 0"/><path fill="url(#E)" d="M28.8 214.4l4.8.8v1.8h5.7l2.4-.2 3.6-2.6 3.7-2.6-2.2-3.2-2.5 2.8.3 1-4.3.6-3.1-1-5-1.4-.5 2.8-2.7.8zm0 0"/><path d="M29 183.9h.3v.4l.2.2v.2l.5.5v.2l.2.3.2.4.1.3.1.2.4-.1h.2l.2.2v.7l.2.2.2.2.5.4 1 .7h.2l.4.6.9.4.2-.2v-.2h.2l.2-.2.4-.1h.6l.1.4.1.2h.1l.3-.2v-2.7l-.2-.4.2-.4.4-.7.3-.4h.7v.4l.3.1h.5l.2-.3.3-.2v-.7l-.5-1.7v-1.1h-.5l-.7-.5-1.6 1-.2.3h-.4l-.3.5v.2l-.4.2h-.2l-.3.2-.3.1-.1.3-1 .3v.1h-.4l-.3-.1-.2-.1H32l-.1.4-.3.1h-.1l-.2-.5h-.1l.1-.3.3-.1.1-.2v-.2H31l-.2.3v.1h-.2l-.1-.2v-.4h-.2v-.3l-.2.1-.1.2-.5.4-.2.3H29zm129 77.6h.2l.2.3h.6l.3-.4.1-.2.1-.1h.6v.2h.2l.1.3.2.1h.1v.3-.2h.1v-.6l.2-.2v-.2l.3-.2.1-.2.1-.4v-.6l.2-.2.3-.5h.2v-.2l.5-.2v-.5l.2-.6v-.8l-.2-.4-.1-.2-.2-.2-.1-.1-.1-.4v-.1l.1-.4.2-.4v-.3l.2-.2v-1.1l-.2-.2-.2-.6v-1.1l-.3-.5v-.8l.2-.4h.2v-.5l.1-.3v-.4l-.2-.2-.3-.2v-.4h-.8v1l-.2.1v.5-.2h.2v.1l-.2.4-.1.2-.3.4v.2l-.1.2-.2.2-.2.3v1.3l-.1 1.3-.3.4-.2 1.1v.6l-.3.2v.3l-.1.3v1.8l.2.7v.9l-.3 1v.3l-.2.1-.1.3-.2.2h-.3v.2h-.1v.1zm0 0" class="G"/><path fill="url(#G)" d="M36.5 202.3l5.8-1.7 4-2.9-.3-2.2-3-1-1.6 3.2-1.7 2-3 2.2-.1.3zm0 0"/><path fill="url(#J)" d="M29.8 222l4-.6-1-3.9-2.5 1.8.1 2-.4.3zm0 0"/><path fill="url(#L)" d="M40.3 221.5l2.2 6.3 4.1-.7-2.9-3.1-3.3-2.9zm0 0"/><path fill="url(#N)" d="M52.2 216.8l4.9-2.2-1.9-4-1.5 3.2-1.3 2.9zm1-4.1l1.1.1h-1.1zm1.2 1.2l.6-.2-.3.3h-.3zm.1.1"/><path d="M150.5 262.1v.2h.2v-.3h.3v.4l-.2.2v.4h-.2v1l.1.1h.1V263v.4h.2v-.3h.1v-1l.2-.1v-.4.3h.1v-.4h.7v-.3h-.3v-.7l.2-.5h.1v-.8l.2-.2v.2h.2v-.7.3h.1v-.2l.1-.1v-.2l.1-.3h.1v-.4.1h.1v-.1l.2-.2v-.1h-.2v.2h-.3v.1l-.1.2v.2l-.1.2v.4h-.1v-1l.4-.1v-.5l.2-.2v-.4h.3l.1-.2v-.7h.2v-.5h.2v-.7l.2-.3v-.6l.2-.3v-.2h.1v.2h.1l.2-.3v-.2l-.3-.1v-.5.3h.3v-.9l.2-.1v-.6h.2v-.6.3h.2v.1h.1l-.2.2h-.1v.3h.1v-.3h.4v-.4l.1-.3.3-.2v-.3l.1-.1-.1-.2h-.4v-.2l.2-.1v-1.2h-.2l-.2.2-.2.1-.1.2v.2l-.3.2v-.8l.3-.3v-.4l-.3.1-.2.2v.3l-.1.2v.1h-.2v.5l-.2.1v.7h.2v-.3h.1v-.2.6l.2-.2v-.2l.1-.2h-.2v-.1h.4v.3l-.3.1v.5-.2l.3-.1v.2-.6l.2-.2v.5h-.2v.7l-.1.2v.5l-.1.1v.2l-.2.1h.3v.4l-.3.2v.2h-.1v.4h-.1v-.2.5h-.1v.2h-.1v.3l-.2.3v.3-.3h.2v-.1.4h-.1v.4l-.1.2-.2.1v.5l-.2.1v.2l-.1.2v.3l-.1.1v.8h-.2v-.7l.2-.1v-.3h.1v-.6h.2v-.8l.2-.2v-.8h.2-.4v.1l-.1.2v.4l-.2.1v.3l-.2.2v.1l-.2.3v.3l-.1.5v.4h-.2v.2h-.1v.2l-.2.2-.2.2v.3l-.1.2-.1.2v.2l-.2.2-.2.2v.3l-.1.1v.6l-.3.1-.2.1v.5l-.1.3-.1.4v.9l.2.3v.2l-.2.2zm0 0" class="G"/><path fill="url(#Q)" d="M55 190.2l3.2 3.6 1 2 .1-3.1-3.7-2.9-.6.2zm0 0"/><path fill="url(#S)" d="M51.6 253.1l2.5 3-.1-2.3.4-2.5-2.3-.5-.4 2.2zm0 0"/><path fill="url(#U)" d="M8.2 178.1l1.4 5.6 2.4-2.4-2.2-1.1zm0 0"/><path fill="url(#X)" d="M24.9 218l2.2-.2-.7-2.6-1.3.1-.1 2.4zm0 0"/><path fill="url(#Z)" d="M49 219.9l.8-1.2-.8 1.1zm0 0"/><path d="M7 256.2h.3l.1.1v.4h-.2v.1h.2l.2.1v.1h.3v.2h.3l.2.1.2.1H9v-.4l.2-.1h.1v-.2h.2v-.3h.3v-.1h.2l-.3-.2.3-.1v-.3h-.2l-.1.1h-.2v-.3l.2-.1h.2l.1-.1v-.1h.2l.1-.2-.3.2v-.3l.2-.1v-.2H10v.4h-.3l-.1.2v.1h-.1v.4h-.2v.1l-.2.2v.3h.3v.4h-.3v-.4H9v.3h.2v.3H9v.1h-.6v-.3h-.2l-.1-.2h.2v-.1h.3v-.1l.1-.1v-.3h.1v-.3H9v-.2h-.2v-.1h-.1v-.1H9v-.2H8l.1-.1v-.2l.3-.1h.2v-.3h-.3v-.2h-.1v-.1h-.1v.3h.3v.1H8v.3h-.5v.3h.2v.2h-.4l-.1.1v.4h.2v.2h.2v.1h.2v.2h-.6v-.2H7v.1zm.9.8l.1-.2v-.1.3zm-.1-2.1v-.1H8v-.2h.2v.3H8v.1h-.2zm.7.5h.2v-.4.4h.1v.2h-.4v-.2zm.7.6h.3v.2h-.3zm0 0" class="G"/><path fill="url(#b)" d="M27 187.4l2-1.7-1.4 1.3-.6.3zm0 0"/><path d="M44.2 193.2l.2.2v.2h.2l.1.2h.3l.2.2v.1h.8l.2-.2.2-.2v-.2l.2-.1.2-.2-.3-.2-.1-.2H46l-.2-.2h-.2l-.2-.2-.2-.1v-.3H45l-.4.2-.2.1-.2.2v.5zm7 55.6v.1h.4l.1-.2h.3v-.2l.2-.2v-.3H52v-.3l-.2-.1.2-.3v.4h.5l.1.1h.2v.2l.2.1v.3h.4v.2h.3l.1.2h.2v-.6h.3v-.7l-.2-.3H54v-.2h-.2v.3h-.3v.2h-.3l-.2.1-.1-.3v-.1h.1v-.2l-.1-.2h-.7l-.6 1-.3.3v.3h.3v.2l-.2.1h-.1zM161.5 203h.2v.3h.1v.1l.1-.2v-.2l.1-.2v.4h.2v-.7l.2-.1v-.3h-.3v-.1h.3v-.2h.1l.1-.1v-.2l.2-.2.2-.1.1-.2v-.2l.2-.2.2-.3v-.3l.2-.3v-.2l.1-.1v-.8l.2-.2-.2-.2v-.2h.2v-.8h-.3v.8l-.2.2-.1.2-.1.1v.3h-.1v.5h-.2v.4l-.2.1v.2l-.1.1-.1.2v.1h-.1v.4l-.1.2-.2.1v.2h-.1v.6l-.1.3v.3h-.3v.1l-.3.2v.2zM12.4 251.8v.4l.3.4h-.2v.2h.3v.2l.2.2v.2-.3l.2.3h.3l.3-.4h.1v-.3l.1-.3.1-.3v-.5l-.1-.1v-.3h-.2l-.2-.1-.6.3-.4.1-.2.2zm79.9-31.6v.1l.1.2.2.3v.8l.4.2.2.2v.2l.3.2.1.1.2.3v.2h.2v-.5l-.4-.2v-.2h.2v-.1l.2-.1v-.3l-.3-.1v-.9l.3-.3v-.2l.2-.2v-.9h-.6v.3h-.2l.2.3-.4.2v1.2l-.2.1h-.2v-.2l-.2-.1v-.2l-.2-.2-.1-.3zm0 0" class="G"/><path fill="url(#e)" d="M238.8 166l.1-.5zm0 0"/><path fill="url(#g)" d="M52.1 225.3l1.9 1.3-1.9-1.4zm0 0"/><path fill="url(#i)" d="M26 209.7l1.7 1.2-1.4-1.4H26zm0 0"/><path d="M49.1 212.2h.2v-.4h.3v-.2l.4-.4h.5l.5-.2.5-.8v-.1h-.2v-.4h-.5v.3l-.1.2h-.1v.4h-.3v.1H50l-.1.1v-.5h.1l.2-.1v-.4H50l-.3.4v.2h-.3v-.2l-.1.3v.8l-.1.1v.4zm0 0" class="G"/><path fill="url(#l)" d="M247 173l1 3.7-1-3.9zm0 0"/><path fill="url(#n)" d="M27.7 212l.6-1-.6.9zm0 0"/><path fill="url(#p)" d="M79.5 267l.3-.2zm0 0"/><path d="M97.6 227.8v.2l.4.2v.4l-.3.1-.1.3h.7v-.1l.1-.1v-.1h.1v-.5l.2-.2h-.6v-.3H98v-.2h.2v-.3h.2v-.2h.1v-.2h.6v-.1l.2-.2.1-.3h.2l.1-.1v-.1h-.3l-.2.2-.2.1-.1.2v.2l-.4.1H98l-.2.4v.1h-.2v.4zm-49.4-8.1v.2h.3v-.7h.1v.5-.2l.1-.1v-.4l.1-.1.4-.3.4-.3h.7l.4-.3.4-.1.3-.2h.1l.5-.5-.3-.2-.5.4-.2.2-.3.2-.4.1h-.5l-.3.1-.2.1-.3.3-.3.2-.2.4v.5l-.2.1-.1.2h-.1zM438.3 25.6l.5.4h.4v-.7l.3-.3h-.5v-.2l-.2-.5-.2-.1h-.3v1.1zm-388.6 188l.1.4.2.4v1l-.3.2v.1h.3v.5l.3.1.2.1h.8v-.4h-.7l-.3-.2H50v-.2l.3-.2.1-.2v-.9l-.4-.3v-.3l-.1-.3zm0 0" class="G"/><path fill="url(#s)" d="M170.9 281.3l4.8-.5 1.9-3-3.7 3.6-2.9-.4zm0 0"/><path d="M155.1 263.4h.4v-.2h.5l-.2.4-.2.1v.3-.1.3h.2v-.5l.2-.1v-.1.1l-.2.2h.2v-.3h.2v-.1h.1v-.1.4-.4l.3-.3v-.2l.1-.2v-.5h-.2v.4h-.2v.1l-.1.1v.3l-.1.1-.1.1v-.2l.2-.2-.2.1v.3h-.7v-.2h.3v-.3l.2-.1v-.2h.1v.3-.8l.1-.1v-.6h.2v-.1h.1v-.1h-.3v.4h-.2v.1h-.1v.3l-.1.2v.3h-.2v.4h-.1v.3h-.2v.3zm0 0" class="G"/><path fill="url(#u)" d="M26.7 213v-.2zm0 0"/><path d="M17 177h.8l.4.3h.2l.2.1.4.1.2.1h.2l.3.3h.3l.3.1h.1l.2.1h.1l.3.3h.1v.1h.3v.2h.2l.2.1v.2h.2l.2.3h.2v.1h.1v.2h.5v.1h.2v-.4h-.9v-.2h-.1v-.1l-.4-.1v-.1h-.1l-.1-.2h-.1l-.7-.6-.1-.1-.2-.1-.2-.1-.3-.1h-.3l-.5-.3-.5-.1-1-.2-.7-.3zm0 0" class="G"/><path fill="url(#w)" d="M224.2 187.4v-.2zm0 0"/><path d="M159.6 244.4h.2v-.2.3h.1v-.3.4h.1v-.2.3h-.2v.1h.2v-.3h.2v.5h-.2l-.2.2v.1h.2v-.3h.3v-.3.4h-.3v.3l.3-.2.1-.2v-.1h.1v-.2.3l-.3.2v.1h-.1v.2h.3v-.3h.1v-.1.3h-.3v.2l-.1.1h.3v-.4h.1l.1-.1v-.3.1l.2.4v.2h.1v-.2l-.3-.2v-.6l.2-.1v.5-.7h.1l.1-.1v-.1h-.3v.3h-.1v-.4.2-.4.2h-.1v-.2h-.1l-.1.2h-.2v-.2h-.1v-.1.3h.1l.1.2.3.5v.3-.3h-.2v-.3l-.1-.2v-.1l-.1-.1h-.1v.3h-.4zm-120.4 9l.1.2h.2v-.2h.2l.3-.1h.3l.4-.2h.3l.2-.3.2-.2.2-.3.1-.2.3-.3v-.3l.1-.2v-.3h.4l.2-.3.3-.1.3-.1h.5l.2.1h.2l.2.3.4.3.1.2v-.2l-.1-.2-.3-.2-.2-.2-.3-.1-.3-.1H43l-.4.3-.4.3-.2.1v.2h-.2v.2l-.2.3v.2h-.1l-.2.6-.2.2-.2.1-.2.1h-.3l-.2.2H40l-.1.1h-.4l-.2.1zM428.8 26.3v.2h.2v.3h.4v.2l.3.3.2.1v.6l.1.1v.2l.2.2.3.2h.1v.4l.2.1v.3h.1v.1h.1v.1h.3v-.3l.1-.1h.3l.1.3v.2l.1.2h.1v.3h.2v.1h.1v.2h.1v.4h.1v.4h.2v.1h.4l.1-.2h.4v.2h.2v.1h.4v-.3l.1-.1v-.1h.1v-.3l.1-.1h.2v-.1l.1-.1v-.2.4h-.5v.1h-.1v.4h-.1v.2h-.1v.1h-.4v-.3l-.1-.1h-.4v.3h-.1v.1h-.4v-.3h-.1V31h-.1v-.6h-.2v-.2l-.2-.2-.3-.3v-.2l-.1-.2-.1-.1h-.3l-.1.2v.2h-.3v-.4h-.1v-.4h-.1l-.3-.4h-.1l-.2-.3v-.7h-.3v-.1l-.2-.3v-.1l-.2-.1h-.1l-.2-.2-.2-.2v-.8.2l-.1.2v.2zm2 3.2h.2zm.2.1h.2v.1zm9 5v.1h.2v.2h.2v.1h.1v.3h-.3v.4h.5l.1.1h.2v-.4.3h-.4v-.4l.3-.1h.4l.1.4h1-.3v-.3h.7v.4-.4h-.5v-.5l.3-.1v-.3h.1v-.1h.1v-.2h-.3.2v.4l-.3.1v.3h-.1v.1h-.1v.4h-.1v.1h-1v-.3h-.5l-.1.3v.2h-.2v-.9l-.1-.1h-.1v-.2zm0 0" class="G"/></g><g fill="none" clip-path="url(#z)" mask="url(#y)" class="J"><g stroke-width=".8"><path d="M249 134.2l16 17.5 42.2 49.9" class="C"/><path d="M249 134.2l16 17.5 42.2 49.9" class="D"/><use xlink:href="#AA" class="C"/><use xlink:href="#AA" class="D"/><path d="M330.5 218.9l15.5-1.2 72.6-12" class="C"/><path d="M330.5 218.9l15.5-1.2 72.6-12" class="D"/><path d="M418.6 205.8l37.2-6.2 50.4 7h.5" class="C"/><path d="M418.6 205.8l37.2-6.2 50.4 7h.5" class="D"/><use xlink:href="#AB" class="C"/><use xlink:href="#AB" class="D"/><use xlink:href="#AC" class="C"/><use xlink:href="#AC" class="D"/><path d="M45.7-26.7L74.5-10 121 16.9l1.8 1.1" class="C"/><path d="M45.7-26.7L74.5-10 121 16.9l1.8 1.1" class="D"/><path d="M122.8 18l74.6 44.3L199 64" class="C"/><path d="M122.8 18l74.6 44.3L199 64" class="D"/><use xlink:href="#AD" class="C"/><use xlink:href="#AD" class="D"/><path d="M387.4 210.9l68.4-11.3 19.6 2.8" class="C"/><path d="M387.4 210.9l68.4-11.3 19.6 2.8" class="D"/><use xlink:href="#AE" class="C"/><use xlink:href="#AE" class="D"/><use xlink:href="#AF" class="C"/><use xlink:href="#AF" class="D"/><path d="M475.4 202.4l30.8 4.3 58 3.3" class="C"/><path d="M475.4 202.4l30.8 4.3 58 3.3" class="D"/><use xlink:href="#AG" class="C"/><use xlink:href="#AG" class="D"/><use xlink:href="#AH" class="C"/><use xlink:href="#AH" class="D"/><use xlink:href="#AI" class="C"/><use xlink:href="#AI" class="D"/><use xlink:href="#AJ" class="C"/><use xlink:href="#AJ" class="D"/></g><g stroke-width="2.2"><path d="M472.5 202l33.7 4.7 55 3.2" class="C"/><path d="M472.5 202l33.7 4.7 55 3.2" class="D"/><path d="M98.5 3.9l22.5 13 54.3 32.4" class="C"/><path d="M98.5 3.9l22.5 13 54.3 32.4" class="D"/><use xlink:href="#AK" class="C"/><use xlink:href="#AK" class="D"/><path d="M359.7 215.4l88-14.4" class="C"/><path d="M359.7 215.4l88-14.4" class="D"/><path d="M447.6 201l8.2-1.4 50.4 7 29.9 1.9" class="C"/><path d="M447.6 201l8.2-1.4 50.4 7 29.9 1.9" class="D"/><use xlink:href="#AL" class="C"/><use xlink:href="#AL" class="D"/><path d="M384.5 211.4l71.3-11.8 16.7 2.4" class="C"/><path d="M384.5 211.4l71.3-11.8 16.7 2.4" class="D"/><use xlink:href="#AM" class="C"/><use xlink:href="#AM" class="D"/><use xlink:href="#AB" class="C"/><use xlink:href="#AB" class="D"/><use xlink:href="#AH" class="C"/><use xlink:href="#AH" class="D"/><use xlink:href="#AN" class="C"/><use xlink:href="#AN" class="D"/><use xlink:href="#AF" class="C"/><use xlink:href="#AF" class="D"/><use xlink:href="#AG" class="C"/><use xlink:href="#AG" class="D"/><use xlink:href="#AO" class="C"/><use xlink:href="#AO" class="D"/></g></g></svg>