<svg xmlns="http://www.w3.org/2000/svg" xmlns:xlink="http://www.w3.org/1999/xlink" viewBox="0 0 497 279" xmlns:v="https://vecta.io/nano"><style><![CDATA[.B{stroke:#fff}.C{stroke:#8d618b}.D{stroke-linejoin:bevel}]]></style><filter id="A" width="100%" height="100%" x="0%" y="0%"><feColorMatrix in="SourceGraphic" values="0 0 0 0 1 0 0 0 0 1 0 0 0 0 1 0 0 0 1 0"/></filter><mask id="B"><g filter="url(#A)"><path fill-opacity=".5" d="M0 0h497v279H0z"/></g></mask><clipPath id="C"><path d="M0 0h497v279H0z"/></clipPath><path fill="#f2efe9" d="M0 0h497v279H0z"/><g fill="#aad3df" fill-rule="evenodd"><path d="M309.5 279h279V0H309.6zm0 253.3l6.3.7 3.2-.7 2.4 1.6v.7l.5.4 6.2.7 41.2 2 15.7 1.7 9.7 1.3 8.8 2 17.6 4.8 1.3-.2 12 3.9 9.9 4.2 7.1 2.6h137.1V279h-279zm-558 25.7H30.6v-60.8L30 496l-.7-.5-1 .3-1.8-1.2-2-4-.7-5.1-1.4-3.7-2.7-2.6-2.7-1.3-1.5-1.9-3-1.3-2.9-2.9-1.5-.2-1.1-1.2-2.7-1.2-.3-1.5-2-2.1-.7-3-1-1.1h-.6l-.6-1.7-.8-.3-.6-2.4-.7-.7h-1.2l-1.2-2.6-1.6-1.4-1.4-3.6-.8-.6-2.8-6.2-1.8-.6-.5-.7-.6-2 1.1-.2-.4-.6h.6l-.5-1.5.8-1.2 1.3-.9-.3-2 .3-1.3.4-.3 1.6.9.6-.7-3.8-4.9-1 .4v2.6l-1.1-.4.3-.9-.8-2-.7-.5.5 1.6h-.5l-.2.3 1.5 2.5.2.4h-.4l-1.4-1.7-.5-2-1.5-1.3.1-1.8.5-.1 2.2 1.6 1-.5.7.3.9-.6.6.4 1-.4.9.7.9-.6.8-1.4-3.2-3.3-3-1-.6-.5-.2-1.5.2-.7 1-.1v1h1l-.2-2h.5l2.7 2.2.4-.2-1.7-1.2.2-1.5-.5-.6-1.4.5-.7 1-1.1.5 1-.8.3-1 1.1-.8.6-1.4-.6-1.5-1.6-1.4v-1.8l-.4-.4-.4.9.8 3.4-.5.6-2.1-.8.7 1.5-.5.4.4.9h-.7l-.6-1.5-.4.3.7 1.7 1.2.7.6 1.6-1.3-.4-.3.5H-19l-1.6-1.3-.2-1.5.8-.1.2-.6-.3-1.4h-.6v-2l-.7-1-.4-.3.4-.3-.5-.6.2-.3.5.4 1-.4.6-1.5-.3.7H-21l-.2.3-.4-.2-1 1.2-.9.2.1 1.7.8.5-.4.6h-.6v-.6l-.7-.2-.3.8-.5-.1.2-.6-.6-.3h-.5l-.2-1-.8-.3-.3-1.7h-.5l-.1.9h-.4v-1l.7-.3-.7-1.1.5-.3 2.3.6.2.7.5.1.4-.3v-1l.4-.3v-1.4l1.7-.6.3-.6.3.2 1.5-.6 1.6.3.1.5.9.2-.4-.2.2-1-.4-.8-1.2.3-.6-.3-1-1.7h-.3v.7h-.7l-.5-1.1v-1.6l-.8-.6-.7.2v1.8l-.5.4v.8h-.7v-.9l.5-.6-1-.4v-1.1l-.5-1.9.7-.6-.5-.7-.8.5-.2.8.8 2-1 1 .7 1.9 1-.3-.3 1.4.4 1.2-.7.8v-1.4l-.6-.6.1-.8-.8-2-.9-.2-.3 1.4-1.4-2v-.9l.3.5.3-.7-.6-1 .9.4 1.1-.8v-.7l-.7-.2v-1.6l-1.1-.4.1 1.1-1.5.3-1-.2-.2.3-1.4-.7-.8-1.2.9.3.7-.6.6.3.8-.8v-.8l-.9-.5-.5-2 .3-1.2-.3-1 .2-.7.3 1.1 1 .4.4 2.7 1.1 1.2h1.3l1.1-1.1-.2-1.6-1-.3-.7-1.4.5-.2.8 1.2.9-.3v-.7l.6.5.6-.2-.1.6.5.4 1.7-.1 1 .8.9-.2.4.9 2.1 1.4.2 1.4.6.3 1-.2 1.1-.8v-.6l1.1 1 1.4-.8 2.8 3.5 1.8-.5.4 1.1 1.7.6v1.4l1 1.9 2.2 2 1.3-.2.8.9 1.4.3 1.6 1.8 2.1-.9 1.6.5.8-.5.7.2 1.6-1-1.4 1.2 3.6 2.5L11 405l1.9.6-2.9-1.8-.5-3.3.5-1.3-1.3-1.3-.4 2.4-.5.2v1.2h-.5l-.2-.7.6-.8.7-2.6-2.2-3.8.5-1-.6-2-2.1-1-1.4.2-1.7-.7H-.7l-.7-1.3-.8-.2-.4-.6v-1l.3-1.3-1.1-.9v-2.2l-1.7-2.6-2-1.6-.3.4.4.7-.9.6-2.3-2.2-2-2.4h-.4l-.3-.6-.8-.4-.4-.7-.8-.4-1 .7-1.1-2-1-.3-2-2-1 .5-1.1-.7 1.2.4.5-.7-.2-.9-1.9-.8-.5-1.3-1.2-.7.7-.2.5-1.6-1-1.4 1 .4 1-.5v-.7h.5l.7 1.2h1.2l1.2 1.6 3.8 2.3 1 .1.6-.3v.5l.7.3v.7l1.3 1.4 2-.7 1-1.3-1-2.2.6-.3.6-1L-9 362l.5-1.1-.5-1.7 2 .5.3-.7.6.7 2.1.8 1.2-.9v-1.9l1.3-.7 1.2.2 1.4-1.5 1.4-2.4 1.8-6.7-1-1-.6-2.4-1.7-.9v-1.6l1.4-1.4v-.8h1.2l.4-.4v-3.3l1.5.4 2-.9 5 1.1 1.7-.1 2-.8H18l2.6-1.8.7-2.7 2.6-1.6.8-1 2.3-.4.3-1 .3.5H29l.4-.4.1-1.4-.7-1.9 1.8.2v-44h-160.5v.2l.7 1.3-1 1 2.1 1 .1-1.5.5.5-.2 1 1 1-.4.5.3 1.2-1.2-.3-.5-1.4-1.7-1.8h-1.7l-1.5-1.4-1.8.9-.8.2 2.3-1-.7-.8-2-.2-2 1.2v.9l1.4 1.4 3 1.3.1-.5-1.6-.5-.1-.5.6-.6.5.3 1 1-.2 1.2 2 1.2.6 1-.7-.2-2.2-2-1.5.3-2.7-1.5-1.4.2-.1-1-1.8-1.2-1.9-.7-1-1.2-1.4-.5h-15.1l1.6.2.3.2.2 1 2.3.6v3l2 1.9.2 1.4 5.1 3.4.2 1.3 2 1.3 3.5 1.2 1.3 2.2-.6-.3-.6.3-.1.7.4.9-.7-.8v.5h-.2l.6.6.4-.3-.3.7 1 .9-1.8-.8-2.8-.4-.8-1h-1l-2.7-1.2v-.5l-2.6-.9-2 .3-.6.7-2.2-.4-.1.3.5.4-.3.6-2-.6.4 1h-.4l-1.3-.7-1.7.2-.7-1.4.2-.5.2.8 1.3.2 2.2.3.5-.4-.4-.4-3.6-.6-1-1-.1-1.1-3.7-1.5-2.2 1.1-.9-1.2-1.6-.5v.4h.5l.2.9-.7.4-.2-2-2.8-2.4-.3-1-1.6.2-.3.8 1.6 2 2.8 1.6-.2.5-2-.9-1.2-2-2.5-1.2-.6.1.3-.7-2.5-2.1-.5.1.5.2-.2.7 1.1 1.5.5.4h.3l.3-.2h.1l-.4.3.4 1.1-2.5-1.4h-.6v-.6l-2.2-1.8h1.7l-1.4-.9-1.6-.3-.1-.6h.4v-.5l-.8-1-1-.5.2 1-.4.6h-.9l-2.3-3-1.8-1v-.5h-3.8l-.1.3-.6-.2h-7.1l1.1.3-.9.6-1-1h-21l-.8.2v.6l1 .8-1.4.6v.5l1.5.8 1.4-1h1.1l1.3-.4 3.5 1.3.7 1.7 1.9 1.2h-.8l-.2.2-2.6-1.1-2.8-.2-1-1.1-1.3.1.6 1.4 1.4.9.7-.8.8.6 1.4-.2 4.4 1.3v.5l3.1 1.7-.3.5 1.9 1.5v.5l1.5.5 1.3-.1.3.6h-1l-.2.8 1.4.9-.8.1-.5-.5-1.6-.4v-.3h.7v-.4l-2.5-.6.1.5-.6.2.1.5 1.7.4 1.5 1-1-.2-.3.3h-.7v-.3l.6.3.4-.4-3.3.2-.5-.4-3-.4 2.5-1v-.4l-1.5-.3v-.3l-.2-.1.6-.5 1.1.3.5-1h-1l-.5-.4h-1l.4-.6h-.7v-.4h-2.1l.7-1-1-.8-1.3.9v.9l.4.3-.4.7-2.3 1.5-1.2.2-1.5-1.3-.6.7-1.5-.4-.9.4-.4.9-2.7.3 1.1.7-.6.5-5.3-2.1 1.8.5 1.4-.6 1 .4 1-.1-.3-.8-1.4-1h-1.6l-1.7-.9-1.2.9h-.6l-1.1-1.1h-1.4l-1.2-.6-.8-.7-.1-.8-.7-1-1.3-.8v-.9h-.7.5l-.2-.9-2-.8zm229.2-131.5l-.7-.7v-1.6l.9 1zm-6.2-22.7l-.2-.3.7-.9v.4zm1.3-2l-.3-.3.2-.4.3.5zm-4.5 2.6l-.6-1-1.7-1 1.1-.4.3.6.9.4.3-.3-1.2-1.6v-.6l1.5 1.2v.8l1.1.6-.8.6-.6-.1zm1-3.3l-1-.9v-.4l1.1.6zm-3.1-.5l-1.1-.3-.1-.5-1-.8-.3-1.3h.4l1.2 1.2zm-10.1-3.2h-.5l.4-.7 1.3-.1-.6.8zm-.6-2.6l.2-.6.6.4-.4.4zm2.7-1.1l-1.2-1.2.3-.5 1 .3.2.6zM-40 392l-1.2-.7.2-.8.7.8.5-.3.2.6zm1.8-2.7l-.5-.6v-1l.7.5zm-179.5-60.1l-1.3-.6.7-.9 1.6.5-.1.8zm54.4-7.5l.7.2.8 1-1.3-.7-.9.1v-.5zm-77-11.5l.7.6 2-.4v.6l-2.2 1 .2 1.2-.5.2v.4l-.8-1.4-1.2-.4-.3-.7v-1.2l.5-.1v-.6l.4.2.8-.4zm14.5-3v.8l-2.8-1.5 1.3.4 1.7-.4zm55.1 12.8l-1-.5.7-.1.2-.7.7-.2.8 1.8zm30-.9l-.6-1.1h-1.6v-.6l-1.1-.8-.4-.8-.7.1-.3-1.3 2.4 1.4 1.3 1.7 2 .5-.2.8zm-89.7-1.4l.4-1-1.4-2.7-.7-.8h-1.2l.2-.7-.9-1.8h.5l.3-.5 1.4.6 1.2-.3v1l2.4 4.2v1l1.2 1.3-1 .2v.5l-.4-.3-1.1.4zm38.1-5l-.7.3v.6l-1.3-.5.5-1.1 1-.4h.4zm1.5-2l.8.4-.4.2-.1.5-1.5-.5.2-.7zm149 76.4l-.2-.4-.2-.7.6.6zm3.1.1l-.3-.7.5-1 .5 1.1zm29.2-7.7l-.5-.5-.9-.9.9.6h.6zm-15.6-3.4l-1.3-.6-.1-.2.8.2zm-3.9-10.5l-.9-.5-.4-.4 1.2.3zm-1.3-1l-1.2-.6v-.2l.7.3zm3.7-1.3l-.2-.7 1 .6-.5.1zm15.6-1.1l-1-.6.2-.6.9.6zm-19.3-3.8l-1-.4-1.1-1.2 1.7.1.7 1.1v.4zm8.4-1.7l-1.2-.4-1.5-1.8.7-.3 1.1.4.3-.8h.4l.6.9-.6.3zm-12.2-1.7l-1.6-1.2 1 .2.1-.3-1.1-1.5 2.3 1.4-.8.4zm26.5-25l-1.2-.8 1-1 .4-1.8-.3-1-1-1 1.6.8.8-.4.8.3.1-.3 2 1.7-1.4 1.8-1-.6-1.3.6zm-2-5.6l.1-.2-.5-.7.8.5zM-215.4 286h-.7l.1-.6h.5zm5.7-5.3l-1-.4-.2-.6 1 .4-.1-.6 2.1-.2 1.9 1.2 1.4-.2.3-.6h.3v.6l.8.4-.5.4-1-.5-.2 1 1.3 1 .9-.5 1.6.1.7 1-1.2.8-1.3-.2-.1.6 1.5.9-2.8-.1-.9-.6-.7.1-.8 1.3-1.7-1.3 1.3.1v-1l1.1-.2 1 .1.2-.6-2.1-.1-1.3-3h-.6v.8zm.7 1.3v-.5h.8l.2 1.1zm-2.7-2h.2l1.3 2-1.4.2-.4-.7zm-2.1-.3l.5.1v.3l-.4.1zm-32.7 17.7l-.5-1.4.3-.7.3-.3.8.2.4-.2-.2-.9.4.2.3-.7.5.2.8 3.2h-.6v.5l-.6-.6-.6.1-.4 1-.7-.2zm96.5 9l-.7-.4-.6-.8.9.5zm-77.5-1.6h.5l-.4.7h-1l.4-1zm93.3 4l-1-.5v-.7l-1-.9-.8-.4h-1.3v.5l-.7-.3-2.3-1.5-.2-.6-2.2-1-.1-.5.6-.5 3.4 1 1 .3.4.9 1.5.6.1.8 1 .4.6-.6 5.4 2.7h1l.6 1.2-.7-.4-.9.4-.5-.9-.8 1-1.3-.1-.2.4.5.2h-.3l-2-.9zm-74.3 3.9l.2.7-2-.7-1.5 1h-2.5l.5-.7-1-.4.8-.6-1-1.1 1-1.4v-1l2-1.2 1.9.2-.4-1.5 3-1.2.5-.6v-.7l2-1.7v-.6l1 .3.9-.5 2.7.2.4-.4.6.6 1.4.2.2 1.4h-4.9l-.6.2-.1.6.8.8v.8l2.1 1.2-3.7-1.2-1 .8-.1 1-3.2-.5-1 .5v1l1.3.2.4.9 1-.1 1.4.5.4 1.1-2-.3-.7-.7-.5 1.2 1.7 1-1.3-.1.4 1.1zm47 8.7l-2.1-.8-1-1.6h-.7l.7 1h-.2l-1.2-1h-1.5l-.8-.8-.3.4-1-.6.1-2h-.9l.4-.7-.7-.7h-.7l-.5.2.3.4h-.7l-2.5-1.2-.6-1-.4.5-.4-.2-.6.7h-.4l-.8-1 .5-.8-4-2.1-.2-1.1-2.3-2.2-1.5-3.8-.8-.4.6-.6-1.8-1.3 1.8.9 1.7 1.4 1.5.2.6-.9-.7-1h.4v-.4l-1.3-.3-3.6-1.5h.6l-.3-.7.4-.1 2.6.2.9-1.3.8.2.8-.5 1 .3.6-.9-1.7-1-.7-.9.1-.6v-.5l-1-.6-.5.7 1.5.7-.8.6 2.3 1.8-1-.2-1.1-1-1.3.3-.4-.6.3-.6-1.9-.7.1-.7-.4-.2-1.2 1 .4.9-5.5-.7v-.3l.8.3.2-.5-.6-.8.3-.7h1v-.3l-1.5-1.3.5-.7-.5-.7.7.3.3-.4-.3-1-1-.3-.4-1.3h1.8l3.2 1.9 1.8.2.2.6 1.3.7.7.9 2.8 1.8h.7l.3.8 1.3.2 2.6 1.6-.4.4.2.9 2.4.7.8-.2 1.3 1.4 1.3-.6 2 1.2.2.2h-1.1v.9l1.2 1.5h-.5l-.6.5 1.2.6 2 1.8 1-.4.9.3.6.8-.5.3v.5l2.3 1.8.3-.2.1-1-.8-1.5-2.8-1.3-2.3-2.8h-.9l1.1-1 4.6 2.9h1l1.7 1.1 4 3.4v.8l2.9 2.8.9 1.7-.6-.5-.3 1-.9-.3-.7.5 1.1 1.3v1.5l-.8-.3-.5.3-2.6-1.4-6.5-4.6h-1.2l-.2 1-2.5-2.5-2-1.2-.8.7v1l1.1 1v1l.9 1.2 3.4 3 2.9 2.1.2.7 1.2 1.2-.5.8.3 1.1zm27.3-30.1l-1.3-.6.1-.3 1.1.6zm-1.9-1l-.9-.1-2.8-1.8 2.3.6zm-68.5.1l.8 1.3-4-3.3.2-1.1-.8-1.3 1.7.2.5 1 .7-.2-.2.4-.3-.1.2.4h.4l.1.6 2.1 1.6.4 1.3zm18.8-2.2l-.3-.2-1.1-1 1 .6zm40.8-.2l.3-1 1.7.4-.7.6zm1.6-1.3h-1.7l-.3.6h-1.2l.6-2.3h2.3v1.1l1 1.1zm17.4 13l-1.3-1.1-.4-.4 2 .7zm-30.3-1.9l-.3-.2-.1-.2 1.1.4zm-82.7-4.9h-.7l-.3-.9 2.2.7zm21.5 9.4l.3 1.1-3.4-.6.4 1-.5.5.6 1.3-.2.4-.5-.3-1.2.5-1.3-.4-.9-.8-1.3-.2-1-1.1h-1.1l.3-.4-.3-.6-2.2-.1-1.3-1.6-2.7-.8-.5.3-.7-2-3.1-4.5.8-.3 3.7.6 7.6 3.5.6-.4.8.6-.3.7 2 1.3.7.2-1.3-1.8 4.7 2.6.3-.6-2.3-1.4.4-.2v-.6h.4v-.5l-2.5-.2-2-1.4.8.2.1-.3-2.2-1.3-.4.3 1.6 1.1-1.5.5-1.7-.8.2-1-1.4-.2.6-.4.4-1 3.5.8.7-.4 1 .7h1.3l1.2.4 3.4-.1 1.3.6 1-.4 3.4.3 1 .6-.4.3v.5l-1.6-.3-.2.8.3.4-.8.2-.1.5 1.6.9-1.2.5-1 .2-1.6-.8-3.6-.6-.2.7 3.2 1.3-.8.6 1.3.9zm49.8-6.7v-.6h.6l.5-.5h.5l-.9 1.2zm-3.2-1.8l1.4-.1.5.5h-2.3l-.7-.6zm34.8 10.9l-4.4-2-.5-1.7-.6-.5h1l-.9-.9 1 .4v1.3l4.4 2.6.3.5zm-18.8-3l-1.3-1.1-.2-.8.9-.9.9.6 4.1.4v.6l2.3.7.2.6h-1.4l-.4 1.2.7 1.2 1.5 1h-1l-.2-.7-.9-.5h-.3l1.3 1.2-.3.1-1.3-1.4-1.1-.1-.8-1.5-1.3-.6-.1.3.5.5-.4.2zm7.8-2.1h-1.3v-.9l.7.7zm-83.9-6.8l-.8-.5 1.3.2.5-.7h.4l-.2.4.6.4.8-.4.8.2-.7.6-.9-.3-.1.5zm53-1.1l.3.7-1.1-.6.6-.1zm0 .1"/><path d="M30.5 327.8l.8 1.2 1.7 1 .3-1-.5-.4-.3-1.6.5.3.5-.4.7 2.4-1 .4.1 3.1 2.5 2.2 2 .5.9 1.7h1v.8l.5 1 1.6 1.6 1.4.6 3.2 4.8.5.5h1.2l1.5 1.3.4-.1 1.6 3 1.4 1.8 3.8 2 2.4 2.4 1.4 2.1 2.2 1v1.5l-.6.8-.1 1.3.5 1.8 3.6 4.3 1.5 3.7 3 3.4 2.1 1.2 1.4 3 .4 1.7 2 1.8 1.4 3-.3 2.2 3.4 4.6.3 1.7 1.3 2.2-.3 1.3.8.9h1.5l3.5 1.2 1 1.3 6.2 5.3 1.5 2 2.4 1 3.4 3 2.3 5.4-.3.7.5 1-1 .6-.4 1.3-.8.5-.3 1.6-1.7.8 2.4-.5-.2-1 .6-1 1.3 1.1 4.1-.1v1.2l1.6 1.6.2.6 1.9 2.5 4 2.5 6.8.8 2-1.5.3-1.3 2 1.4 1 1.8v.8l-1 1.5.3 1.2h.4v2.6l.6 1.1 5.2 6.9 2 1.7 2.5 3.1h1l.2 2.3 1.1 1.6 3.2 2.5 2.5 4 3.5 3 1 1.7 3 1.2 2.7 3.5v3.1l.8 1.3-.6.2v.7l-.9 1.4.2 1.4.6-.2-.6-.6.6-1 1-.5-.3-1 2.7-.2 1.5-1.2 1-1.3.3.6.5 2.6.7.8 1.6.5.7-.4 1.6.9 1 4.3.9 1.1-.5.8h1l.3 1.1-.6 1.3-1.6 1-.1 1.4h-.8l-.3 1.5 2.7 4.1.3 2.5-.3 2.5 1.7 2.8 3.1 2.4 1.1 1.6 1.3 2.6h-.5l-.1.7.7 3.3.7 1.7 1 1.2-.6 1.6-1 .5-2.2.5-1.4 1.6-1 4.4-1.5 2.3-.4 1.8-.9.8.4 1.6 1.4 2.7.5 2.4.8 1 1.3.9-.5 1.9-1-.8 1-1.1-.5-.5-1-.7-1 1.2-1.2.6-.8 1 1.1.8.7-1.1h.2v-.2l.2-.1h.4-.4l.7 1h-.4v.7l1 .3-.7.5.2.8-2.9-2.5-2 .5-1.9-1-3.4-3-.6-2.9-1-1.7.2 1.8-1 2.2v1.3l1.7 1 .2-.4-.8 3.4 1.2 1.6h1l.7-1.9-.8 2.3-.6.6-2.2.4-3.5-.7-2 .3-1.1 1.3.7 2.1-.9 1.2-.6.3-3.4.7.2 1.8-4.2-.3-1.7 1.3.7 1.6-1.7-.6-.7-1.6-2.5-3.4.9-.7-1-1.3-4.5-1.7h-1.3l-.9-1.3h-1l-.7.3-1-1.6h-.6l-.2-.7-1.5-1.3-1.9-1-1.4.3-1 .6v1.4l1.6.9v.6l1.4 1.5v2.4l1.3 1.2.5 1.4h-.7l-2-2.2-1.4-2.3-.9-.7-1.3-.3-2.5 1.2.7 2.1 1 1 .2.8.8.4.3 2.3.5 1-.3.5.4 1.4-1.3 1-.1.8h33.2l.7-.8h.8l2.6-1.6h1.5l3.4 2.4h22.2l.2-.3 2 .3 5.7-5v-4.1l-1.1-.9h-1.2l-.1-.3.4-5.3 1.8-2 1.7.6 3.4-.6 1.3-1.8-3.1-13.4-1.3-2.9.2-1.3-.4-3.4-.9-1.3.2-2.4 1.4-.8 2.5-4.4 1-.7 1.1-3.6 2.6 2 1.8-.4 1.4-1.6.4-3.4.4-.2.6.6v1.2l.6.4 1.8-.5v-1.7h1.7l2.3 1.6 1.4-.2 1 .4.3.7 1-.3 2.6 1.2 1.1-.2.3.6 1 .3.9 1.6 2.2 1.4.2 1 1 .4h1l1.2-1.3v-.7l1 .3 1-1.2-.2-1 1.3-1.1-.3-2.6h-.5l-.2-.9.1-1 .6-.2 2.5 5.6.3 1.2-.5 2 4.2 2.6 1 2.2 1.9-.2.3-.5.7.8 2.3-1.5-.3-1 .6.6h2.1l.4.6.4-.3.7 1.3 1.6-.8 1 .1v.5l1.3.5 2.5 3 1.8.7-.8.6v2.1l-.2.1.7 1.2 3.3 2 7.7 2.3 8.5 1.5 9.7 1 4-1 .7-.6h2l.6-1 2.8.8 3.6 4 3.2 1.5 2.8.5 3.2.4V278.9h-279V323h.9l.5.7-.6.4.4 1.7-1.3 1zm143.3 211.7l-.2 1.3h-.1l-.5-.9.5.1zm12 11l-.7-.3-.7-2.2.6 1 2 .2v.8l-.3.1-.3-.6-1-.2zm62.7-43.5l-.9.2-.3.8-.7-.6-.4.2-.5-.4-.5.3-1-.8-.4-1.8-2-2.7-.8-2.6-1-.7v-.6l.5-.1 2.5 1.5 2.3.7.6 1.8 1.6.8.5 1 .8.6.3.7-.6.1.5 1.1zm-51.5 2l-.8-1.4.2-.5.3.9.7.5zm0 0"/><path d="M30.5 279h279V0H30.6zm0 0"/><path d="M-248.5 109.4l.7.5 2.8 3.3v1l2 1.6v.8l1 2 2.1 2.4 2.4.8h.6l.2-.5h.9l3.7 3.8.7 1.6 2.6 3.3 3 6.3 2.8 2.7 2.2 3.3 4.4 3.5.6.9-.2 1 2.9 6.3 2.7 3.4 1.7 1.3v.6l2 2.7.9 1 2.7 1 1 .9v1.4l1.2 1.4 3.2 1.3 1 1.5v2l3.9 4.9 3.4 2 5.2 4.5-.1 2.1 3.7 5.4 1 3.3 5.6 6.6 1.1.7.9 2.6 1.2 1.1 3.1 2.3 7 3.6 2.6.4h2.9l1 .7 2.6 3.3 2.1 1.7 1.5 1.8 5.4 3.7 2.6 1h2.7l1.9-1.2h1l.6-.8 1.7.8 3.6 3.5.3.9-.5 1.4.9 1.7 2.7 3 4.1 2.9 1.2 1.2 1.7 4.8 2.1 2.3 1.8 3 1 2.4-.5.8-.8-.3-1.2-1.6-2.3-1-1.2.4-1.7 1.8-1.5 2.4-.6 1.9.1 1.8 2 1.3h-.7l-.9 1.1.5 2.5-1.3 1v.6l-1-.4-.2.3-.7 1.3h-1.7l-.9 1.6-.1 1.1 1.9 1.8.9 1.7-.7.1v.9h-.5l-.2 1 .5 1.6-.3-.6-1.5-.1-.6-.5-1 1.1-.2.7 1 .9.2.7-1.4 1.5-.1 1.5H30.6V0h-279zm122 167.6l-.5-.2-.5-1.1 1 .5zm-122-277H30.6v-279h-279zm0 0"/><path d="M30.5 0h279v-279H30.6zm279 0h279v-279H309.6zm0 0"/></g><g fill="none" clip-path="url(#C)" mask="url(#B)" class="D"><g stroke-width=".8"><use xlink:href="#E" class="B"/><use xlink:href="#E" class="C"/><path d="M-22.8 272.8l32.4-29.1L-22 224l-7.2-4.3" class="B"/><path d="M-22.8 272.8l32.4-29.1L-22 224l-7.2-4.3" class="C"/><path d="M-22.8 272.8l32.4-29.1 20.3 11.8 18.8 10.8.4.1" class="B"/><path d="M-22.8 272.8l32.4-29.1 20.3 11.8 18.8 10.8.4.1" class="C"/></g><g stroke-width="1.2"><path d="M68.6 276.8l-2-1.6-2.3-1.7-5.3-3-7.2-3.2-3.1-1-18.8-10.8-20.3-11.8-18-11.2" class="B"/><path d="M68.6 276.8l-2-1.6-2.3-1.7-5.3-3-7.2-3.2-3.1-1-18.8-10.8-20.3-11.8-18-11.2" class="C"/><use xlink:href="#F" class="B"/><use xlink:href="#F" class="C"/></g><g stroke-width="2.2"><use xlink:href="#G" class="B"/><use xlink:href="#G" class="C"/><path d="M19.1 249.2l-9.5-5.5L-22 224l-20.3-12.5-14.5-9" class="B"/><path d="M19.1 249.2l-9.5-5.5L-22 224l-20.3-12.5-14.5-9" class="C"/></g></g><defs ><path id="E" d="M49 266.4l2.9 1 7.1 2.9 5.2 3.3 2.5 1.6 4.6 3.8 4.2 4.2.9.6 9.8 11.1L92 306l3.7 4.2 12 11.4 3.8 5.7"/><path id="F" d="M122.3 346.7l-3.5-5L114 331l-6.4-9.4-12-11.4-3.6-4.3-5.8-10.9-9.8-11.2-.9-.6-4.2-4.2-2.7-2.2"/><path id="G" d="M89.4 301.1l-3.2-6.1-9.8-11.2-.9-.6-4.2-4.2-4.6-3.8-2.5-1.7-5.2-3-7.2-3.2-3.1-1-18.8-10.8-10.8-6.3"/></defs></svg>