<svg xmlns="http://www.w3.org/2000/svg" xmlns:xlink="http://www.w3.org/1999/xlink" viewBox="0 0 497 279" xmlns:v="https://vecta.io/nano"><style><![CDATA[.B{stroke:#fff}.C{stroke:#8d618b}.D{fill-rule:evenodd}.E{stroke-linejoin:bevel}]]></style><filter id="A" width="100%" height="100%" x="0%" y="0%"><feColorMatrix in="SourceGraphic" values="0 0 0 0 1 0 0 0 0 1 0 0 0 0 1 0 0 0 1 0"/></filter><mask id="B"><g filter="url(#A)"><path fill-opacity=".5" d="M0 0h497v279H0z"/></g></mask><clipPath id="C"><path d="M0 0h497v279H0z"/></clipPath><path fill="#f2efe9" d="M0 0h497v279H0z"/><path fill="#c8d7ab" d="M32.3 274h.2zm-.1-.2h.1zm.2.6h.1zm0 0" class="D"/><path fill="none" stroke="#9cf" d="M226.9 233.2l1-2.9-.7 2.4zm0 0"/><path fill="#ddecec" d="M226.9 233.2l1-2.9-.7 2.4zm0 0" class="D"/><path fill="none" stroke="#9cf" d="M228.7 240.9v-.2zm0 0"/><g class="D"><path fill="#ddecec" d="M228.7 240.9v-.2zm0 0"/><g fill="#aad3df"><path d="M233.4 14.3l.3.4.1.6.9.4h.8l.7.6.3-.1h1l.4-.3.9.3.2-.2.6-.7h.4l.1-.1.3.3h.3l.1.1.2-.1h.2l.6-.8v-.3l.3-.4v-.6l.3-.6V11l-.4-1-.4-.2-.4-.9-1-.9.1-1V5.7l-.3-.1v-.4l.3-.6.2-1 .4-.6.3-.7v-.5l-.4-.4-.2.2-.4-.4V1l-1-1h-2.9l-.3.5-.1.6-.6.8v1.2l.3.5v.2l.3.3v2.4l-.3.5-.8.6V8l.6.5.6.5.4.4-1 1.1v.3l-.4.8-.4.4h-.3l-.4.4v.3l-.2.2.2.6-.5.4zm3.5-1l.2-.3h.5l.6 1v.2l-.2.3h-.2l-.6-.5v-.4zm7.3 181.5l.2.1.4.6.4.7h.3l.3.6v.4l.5.2.5.2v.6h.3l.2.6.7.7.4.9.2.4.4.6.1.2v.5l.2.2v.7l.4.2.2.2v.2l.1.1.3.1.2.2.2.3.1.3h.2v.6l.2.1v.8l.4.5h.4v.3h.1l.2.2v.1l.3.4.3.4v.5l.1.3v.2l.3.4v.6l.3.4.7.7.5.7v.2l.4.7h.4l.2.3v.2l.2.5.4.7.8 1.1.3.6.7 1 .5.9.3.8.3.2.2.2v.4l.4.3.2-.1-.1-.3-.3-.7v-.1l-.2-.3-.1-.5v-.3l.2-.6-.1-.5-.3-.8-.1-.3-.3-.8-.3-.6-.2-.2-.3-.5v-.7l-.3-.6v-.3l-.2-.2-.1-.5v-.1h-.6l-.2-.2v-.7l-.2-.4-.1-.4-.3-.6-.4-.3-.4-1-.4-.7-.6-.9-.5-.7-.4-.4v-.6h-.3v-.5l-.1-.2-.2-.3h-.3l-.2-.4v-.4l-.1-.2-.4-.2-.2-.4v-.2h-.3l-.1-.2-.1.2h-.3v-.4l-.2-.4v-.4l-.1-.2-.2-.8-.1-.2-.4-.6-.2-.3-.5-.3-.5-.9v-.7l-.2-.4h-.3v-.2l-.2-.4v-.2h-.3l-.2-.1-.3-.3v-.4l.3-.6-.3-.3-.2-.2-.3-.3h-.1l-.2-.2h-.3l-.4.3-.5.7-.4.5-.2.5-.2.3zM397 267.5l.2.5.8.7 1.2.7 1 .6v.5l.4.2h.9l2-.4 1.5-.9 1.4-1.4.5-1v-.6l-.5-.4h-.1l-1-.6-1-.4-2.3-.3h-1l-1.5.3-1.5.8h-.4l-.3.6v.6zM-9.5 139l.2.2v.8h.7l.4.6.2.1v.5l.1.3.3.3h.4l.2.2.3.2v.2l-.4.4v.8l.1.1-.3.3-.4.4-.3-.2h-.4l-.1.3-.4.3v.3l.7.4.3-.1v-.4h.3l.2.2h.2l.2-.2v-.1l.5.6h.1l.5.5h.4l.3.1.2.3v.4l.2.2h1v.1l.4.3.1.1h.3l.2.2h.2l.4.4h.1l.2.2h.7v.1h.7l.3-.5.3-.2v-.4l-.4-.1-.3-.2-.3-.1h-.3l-.2-.3h-.9l-.2-.2v-.5l-.6-.8-.2-.8-.2-.3v-.2l-.5-.6-.5-.6-.5-.1-.2-.2.1-.1v-.2l.3-.3.1-.3v-.1l.2-.3v-1l-.5-.6-.2-.4v-.2l-.4-.5.3-.3-.1-.3H-6l-.4-.6h-.4l-.2-.3h-.9v.3l-.6.2-.2.3-.2.1-.1.2v.1l-.4.3v.3zm436.5 6.8l.1 1.5.4.7.2.3h.4l.4 1.1.4.1.2.7v.5l.3.2 1.9-.2 1.7-.5 1.3-.9.1-.3-.3-.6-.4-.7-.7-.5-.3-.4v-.4l.3-.4v-1l-.5-.8-.5-.5-1.1-.3h-.7l-2 .6-1 .6zM4.6 316.9v.1H5v-.1.9l.3.2.1.2.1.1.3.3.1.1.2.3h.3v.1l.2.1v.1l.1.1v.2h.2v.2l.1.2v.5l-.1.1-.1.1-.1.1h-.1l-.1.2h-.1v.2h-.3v.1l-.1.1v.4h-.2v.8l.3-.6v-.3l.2-.2.1-.1v-.1l.1-.1h.1v-.1h.2v-.1H7v-.3h.2v-.3l.1-.1v-.4l-.3-.3v-.5h-.2v-.1l-.3-.3-.3-.2H6v-.2l-.3-.1v-.2l-.1-.1-.1-.1v-.3h-.2v-.8h1.4v.3h.9l.3-.2.1-.1v-.2h.2v-.1h.1v-.4H8v-.5h-.2v-1.1l.2-.1.2-.1.2-.2v-.2l.2-.1.1-.1h.1v-.2H9l.2-.2.2-.1.1-.1h.3v-.2l.2-.1v-.2h.9l.1.4v.1h.3v.2l.2.1.1.2.1.2h.2v.2h.1v.1h1l.1-.2h1.6l.2.2h1v-.2h.1v-.2l.2-.1v-1l.1-.1v-1.7.3h.1v-.4h.1v-.1h.4v-.2H18v-.1h.3l.2-.2h.3v-.2l.1-.1v-.2h.1v-.8h-.2l-.1-.1h-.1v-.4h-.1v.4h-.1v-.4l-.1-.1-.3-.1v-.3h-.3v-.2h-.2v-.2l-.1-.1v-.4h-.1v-1.3h.3v-.1l.1-.1v-.1h.1l.1-.1h.5l.2.3h1.1v.2h.6v.1h.9l.1-.3v-.1h.1v-.2h.1v-.1h.5l.3.2h.1v.4h.2v.1h.1v.1h.1v.1h.1v.1h.4v.3l.1.2.1.2h.2v.2H26v-.3l.1-.1.2-.1.1-.1.1-.1.1-.2h.2l.1-.2.1-.2v-.3l.2-.1v-.8H27v-.4h-.3v-.3h-.1l-.1-.1v-.5l-.2-.1v-.9l.3-.1v-.3h.1v-.3l.1-.2h.1v-.2l.1-.3v-.7h-.3l-.1-.1v-.2l-.1-.1v-.6l.3-.2.1-.1v-.1h.1v-.1l.2-.1.1-.1.1-.1h.1v-.2h.2l.2-.2.1-.2v-.4h.2v-.2h.1l.1-.4v-.3l-.3-.3h-.3v-.2h-.1v-.1h-.2l-.1-.1-.2-.1-.2-.1-.2-.3v-.1h.4v.3h.1v-.6H27v-.2h-.2v.3h-.1v-.3h.3v-.5h.1v-.2h.2v-.1l.4-.1h.1l.1-.3h.1v-2.2l.1-.1.2-.2-.3-.1v-.2.2h.3v-.3h.1v-.1h.1v-.1h1.3v-.1h.4v-.1h1.3l.1-.2h.2v-.1h.2v-.2l.2-.1v-.1h.1v-.3h.2l.1-.2v-.1h.1v-.2h.2v-.1l.1-.1v-.1h.1v-.2h.2v-.3H33v-.1l-.2-.1-.2-.1h-1.1v-.1h-.3v-.1H31v-.2h-.2l-.1-.2h-.1v-.5h-.1v-.1l-.1-.2h.4-.5v-.2l-.2-.1v-.1l-.1-.2v-.2l-.2-.2v-.1l-.2-.1v-.2h-.1v-.2h-.1v-.2l.3.2v-1.2l.1-.2v.3-.3h-.4v.2h-.1v-.5l.3-.1h.1v-.1l.2-.1v-.2h.1v-.4h.2l.1-.1.1-.1v-.1h.1l.2-.1v-.3h.2l.1-.1h.2v-.3l.3-.1v-.1h.1v-.1h.1v-.2l.3-.2v-.3l.2-.2.1-.2.1-.2v-.6l-.2-.3-.2-.2h-.1v-.3l-.4-.1h-.1l-.1-.2H31v-.1h-.2l-.1-.2-.2-.1v-.1l-.1-.1-.1-.2v-.5l.2-.2v-.5h.1v-.2l-.2-.1h-.2l-.2-.1h-.1v-.3.3h-.2l-.2-.4-.1-.1-.2-.2-.2-.3v-1.7.1-.2l-.2-.1v-.1l-.1-.2.2-.3v-.1l.4-.2.3-.2.1-.4v-.1l.3-.1v-.1h.1v-.2h.3v-.1h.1l.3-.1h.8v-.6h.2v-.7h-.2l.1-.2.1.3.2-.3h.2l.1-.1h.3l.2.3h.3v.2h.3l.2.1h2l.1.1h.2l.2.2.2.1H36v-.2h-.2l-.2-.1h-.3l-.3-.2.5.2h.2l.2.3h.1l.4.1h1.1l.3-.2.4-.1.3-.2.5-.3v-.1l.3-.1h.3v.2h.2l.2.6v.3l.2.2.1.2.3.4v-.3h-.2l-.3-.5v-.1l-.2-.7v-.3h-.1l-.3-.3h-.3l-.3.4-.4.1-.5.2h-.5l-.3-.1h-1.9l-.3-.2-.4-.1h-1.2l-.4-.2-.4-.2h-.4l-.3.5h-.4v.9l-.2.1v.1h-.6l-.2.1h-.1v.2l-.2.1h-.5v.2h-.2v.2l-.1.2-.1.2-.3.2-.3.3-.3.2v.3l.2.1v.2l.1.3v.1l-.2.1v.2h.2v.6l-.2.2-.2.1v.3-.4h.3l.1.2v.2h-.6v-.2H27h.8l.4.4h.5l.3.6.2.1.1.1.1.1h.2v.2h.3l.1.1.1.1.2.3v.2H30v.2l-.3.1v.1h-.1v.3h.4v.3h.2v.3l.3.1.2.2.3.1.1.1h.2v.1l.3.1h.1v.2h.3v.2l.1.1v.1l.2.4v.3H32v.2l-.1.2-.2.3v.1h-.2l-.1.1v.3h-.3l-.1.2v.1l-.2.2h-.1l-.3.3-.2.1v.2H30v.4l-.3.1-.1.2v.1h-.4v.2H29v1.4l.2.1v.2h.1v.3h.2v.2h.1v.2h.2v.5h.2v.3h.2v.2h.1l-.3-.1v.3l.2.2.2.2v.1h-.3v.2h.3v.1h.1v-.3.3l.2.2v.3h.3l.1.1h.3v.1h1.2v.1h.1l.2.2v.5h-.5l-.1.3v.2h-.2l-.1.2v.1h-.1l-.2.2-.2.1-.1.1h-.2v.1H30l-.1-.2h-.6l-.1-.2H29l-.5.2v.1h-.2v.2H28v.1h-.3v.2h-.3v.1h-.2v.1l-.1.1H27v.5-.4h-.3v.4H26v.2h.2v.1h.2v-.3h.6v.3l.2.2v.3l.1.2v.6l-.3.1v.3l-.3.2v.3h-.1v.1l-.1.2v.1h-.2v1.3l.2.2.2.2.1.2h.2l.1.2h.3l.3.1h.1v.2h.2v.8l-.2.1v.1l-.1.1-.1.2-.1.2v.1h-.3v.3l-.5.2v.2h-.2v.2l-.1.1-.2.2v.7h.3l.1.5v1h-.2v.2h-.1v.5l-.2.2v.3l-.1.2v.7h.3v.3l.1.3h.1l.1.1v.2l.2.1v.1h.1v.9l-.2.2h-.1v.3h-.2l-.1.1v.1H26l-.1.4h-2l-.3-.4-.1-.1-.2-.3v-.1h-.1v-.1H23v-.1l-.2-.1h-.3v-.3h-.2l-.1-.3H22v-.1h-.5v.3h-.3v.3H21l-.1.2H20v-.2l-.1-.1-.4-.1v-.2H19v-.1h-.1l-.1-.1h-1.3v.2h-.1v.1h-.1v.1h-.1v.4h-.1v.4l-.1.2v1l.3.2v.2l.1.3v.1l.2.2.2.2v.2h.1l.1.1.3.2.1.1v.1h.1v.1h.2v.2h.1v.4l-.3.1-.1.2-.2.1h-.5v.2h-.4l-.1-.2h-.1l-.2-.2h-.6l-.2.2-.1.2h-.1v.1h-.2v.1l-.1.2v.4l.3.2h.1v1.7l-.2.1v.5l-.1.3h-.1l-.3.1h-.6l-.2-.3h-.6l-.2-.1H13v.2h-.1l-.1.2h-.6l-.1-.2-.1-.1-.3-.3v-.2h-.2v-.1l-.2-.1v-.3h-.2v-.3h-.4v-.1H10v.4h-.2l-.2.1h-.3l-.1.3-.3.2-.2.2h-.2v.2h-.2l-.3.1-.1.2h-.2v.3h-.1v1.2l.2.1v.3l.2.2v.4l-.3.1-.3.3h-.7l-.3-.3h-.2v-.4H6l-.1-.1h-.4l-.2.4h-.1v.1l-.1.1v.2H5v.1h-.2v.1h-.2v-.3h-.1zm.8-.5l.1-.3H6v.3zm10.7-6v-.2h.2v-.2h.7l.2.2h-.5v-.2h-.2v.3h-.2l-.2.1v.3H16zm10.4-16.1v-.3h.2v-.2h.1v-.1l.2-.1v-.2l.3-.2v.3H27v.2l-.2.1v.2h-.3zm0-.3h.2v-.3h.1v-.1l.1-.1.1-.1v-.4h.3v.2l-.3.1.3-.3v.3l-.3.1-.1.1v.2h-.2v.2h-.2zm.1 0h.1zm.1.1v-.1zm-.1-.1h.2zm.2-.1h.2l-.3.1zm-.1.1h.2v-.3h.1v-.2l.2-.1v-.1h.1v-.1l.1-.1.1-.1v-.2h.1v-.1h.1v.7h-.5v.3H27h.3l.1-.3v-.1h.2v-.1.3l-.4.1h-.1v.2H27zm.2-.2v-.1h.1l.1-.1h.3l-.3.2H27v.1zm.5-1.1v-.1h.2v.3zm.1 0h.4v.3h-.3v-.4zm.1 0h.1v.2zm.1-.7v-.1h.1v.4zm-.1.5h.2zm.2-.2h.1zm7.9-23.4h.9l.1-.2h.5l.1.3h.9l-.4.2-.2.1h-.3l-.3.2h-.2l-.4-.2h-.1l-.2-.3h-.4zm129.1-162.3l1.4.7-.2 1.2.2.6.7.5.5.4.4.5h.9l.3-.5.5-1.6.2-.7.3-.3.3-.6-.7-1 .1-1 .3-.2v-.7l-.4-.5-.4-.1-1 .4-.5-.2-.7 1h-.6l-.6-.3-.4.4.4 1.3zM-4.3 166.3l.3.3.3.7.6-.1.1-.2h.3l.2-.1.2-.2.3-.2.5-.2.2-.1.3-.4h.8l.6-.1H1l.4.3h.2l.2.3.2-.2.2-.5H1l-.2-.1v-.1l.4-.4h.1l.3-.4v-.9l-.4-.2H1l-.3-.2v-.4h.7v-.3h-.2l-.2-.2-.2-.4-.3-.4-.5-.2h-.4l-.6.3h-.4l.2-.3.2-.1.1-.3.1-.5.3-.2.2-.5h-.2l-.5.4v-.4h-1.1l-.4.2-.2.5v1.3l.3.2v1l.4.2.1.2-.1.5h-.4l-.3.2-.1.4v.3l-.2.4h-.8l-.5.3.1.5zm236.7 51.3l.2.4v.1l.8 1.2.5.7h.3l.2.3.2.1.3.4v.2l.3.7.3.3.4 1 .4.6.7.5v.6l.3.5.2.2v.1l.4.3v.4l.7.8.4.7.4.5.3.4.2.8.3.3v.3h.2l.1.3.1.1.4.1.4.3.3.4h.1l.3-.2-.1-.2-.2-.4-.1-.7-.3-.4-.4-.6-.2-.7v-.2h-.3v-.4l-.5-.3-.5-.6-.3-.4v-.5l-.1-.2-.3-.7-.4-.7-.4-.3h-.4l-.1-.3v-.1l.1-.1.1-.3h.1v-.3l-.3-.4h-.1l-.4.2h-.1v-.8l.3-.2h-.7l-.2-.3v-.3l-.3-.3.2-.7v-.2l-.3-.3-.4-.1h-.3l-.2-.3-.5-.6-.2-.6-.2-.1-.2-.3h-.1l-.6-.4-.5.1v.2l-.3.2zm106.3 35.5h.6v-.1h.2l.2-.2.1-.1h.1v-.2h.1v-.1l.2-.1h.1v-.1h.1l.2-.1h.3v-.1h.2v-.2h.2v-.1h.1v-.2l.2-.2v-.1l.1-.2.1-.3v-.2h.1v-.3h.1v-.3l.2-.2v-.1l.1-.2.1-.1.1-.1v-.1l.1-.1.1-.1.1-.3.1-.1.1-.1v-.1l.2-.1v-.3h.2v-.2h.2v-.3l.1-.3.2-.1v-.4h.1v-1h.5v-.1h.1v-.1h.1v-.3h.1v-.1h.1v-.3h.1v-.2l.2-.1v-.1h-.2v-.1h-.2v-.1h-.3v.3h-.1v.1h-.1v.1h-.1v.2h-.2v.4h-.2v.1h-.1v.3h.3v.1h-.6v.1h-.3v.1h-.3v.1h-.3v.1h-.1v.2h-.7v-.3h-.7v.3h-.2v.2h-.1v.1h-.2v.4h-.2v.5h-.1v.1l-.2.1v.1h-.4v.1h-.2v.1h-.4v.4h-.2v.6l.2.1v.3h.2v.6h-.2l-.3.2v1.2h.3v.3h.2v.2h.1v.5h-.3v.3l-.2.2v.1h-.1v.2zM127.8 64.8v.1l.2.2v.3l.2.4v.3l.1.2-.1.1v.6h.1l.2.3v.4h.3l.2.3.3.3h.7l.1.4.5.1.4.3v.2l.4.3h.1l.3.2v.2h-.4v.4h.3l-.1.1-.1.2v.6l.3.2.3.2.2.2h.5l.4-.3.3-.2V71l.1-.1-.2-.2-.2-.2h.4l.1-.4.4-.2.1-.4V69l-.4-.3-.1-.4V67l-.1-.2-.4-.4v-.3l.2-.2-.1-.3h-1.6v.7h-.2l.1.2-1.1-.4-.1-.2h-.4l-.1.1h-.1l-.3-.1-.2-.2-.2-.1-.3-.1-.1.1v.2h-.2l-.2-.4v-.3l-.2-.2zM379.2 270h.7l.1.4h-.5l-.2.3v.4h.2v-.1l.3.1v.1l-.3.1v.3l.3.1h.9l.3-.2h.3v-.5h.5l.2-.2.2-.3.3-.2.2-.1v-.3l-.3-.1v-.4l.3-.2h.1v.1h.6l.5.4h.9v-.7l.4-.1h1l.2-.4h.2l.1-.2.1-.5v-.6l-.1-.2h-.3v-.3l-.5-.2-.6-.2h-1.5l-.2.1-.1.3v1h-.2l-.2.3h-.3v.3h-.7l-.4-.3h-.7v-1h-.2l-.1-.2-.1.2-.1.2v.2h-.2l-.1.1h-.1v.3l-.2.1-.1.2v.5l-.2-.1v-.2h-.4v.2l.3.3v.1h.2v.3h-.2v.1l.1.2v.3h-.5zm.6 1v-.3h.5v.3zm0-1.9v-.2l.2-.2.2-.2v.9h-.4zm.5-.9v-.2h.4-.2v.3h-.3zm.2 2.5h.4v.4h-.2v-.3zm.7-.3v-.1h.2l.2.3h-.3v.2l-.1.1v-.2zm-3.2-7.1v.5l.2.2.4-.1.6.1v.7h.8l.2-.1.3-.2.4.2.3.4h.7l.9.5.2.5h.7l.8-.6.7-.8.2-.6.2-.4-.1-.2-.6-.5-.5-.5-.4-.1-.9-.3h-1.9l-1.2.2-1.7.6zM196.2 13.8l1 1.6-.2.7.2.3.3.2h.3l.5-.3.7-.7.5-.1.9-1h.2l.4-.3v-1.4l.3-.3v-.2l-.5-.8.2-.9v-.4l-.4-.2-.2.2v.4l.2.2-.1.2-.1-.2h-.9l-.2-.1-.6-.7h-.4l-.2.2v.3l.3.7-.4.4v.4l.5.5-.1.3.3.6h-.2l-.6-.7-.5-.2h-.4l-.7.5zM444 139.1l.5.9 1.4-1h.4l1.1.6h.2l-.6.2v.1h.8l.5-.3v-.1h-.2.1l.1-.4h.1v.2h.1v-2.1l-.5-1.4.7-1.1h.1l.8-1.9h.1l.3-1 1.4-1.1-.8-.3-1-.6-.2-.4v-.4h-.4l-2.2 1.4v.1h-.2v.3l-.5.1v.2h-.3v.3h-.1l-.5.9v1.5h.3l1.5 2.6.4 1.6-.3.4-1.9.5zm2-6.6l.1-.6.5-.3v-.1h.1v-.3h.3l1.3-.6h.5v.4l.2.3h.1l.5-.1v.8l-.6 2-.3.6h-.2v.1h-.2l-.1.3h-.2l-.1.8h-.2v-.1h-.2v-.2h-.1zM128.5 246h.6v.6l.2.1v-.1h.9v.6H129l-.4.3v.2l.2-.3h.3v-.1h.9v.6h1.2v.3h.4l.1.2-.1.3h-.2v.1l.4-.1.2.1v.2h-.3l.3.4h.2v.2l.2.4h.5l.1-.4.4-.6.2-.5h-.1l-.1-.2.2-.1-.3-.2h-.8l-.1-.4.2-.1v-.3l.1-.2h.3v-.1h-.2l-.2-.1v-.2h.4v-.4l-.2-.2h.2l-.2-.3h.2l.1-.3-.3-.4-.1.2-.1-.2v-.2h.2l.1-.1v-.3h-.3l-.2.2v.4h-.3l.3-.2-.2-.2v-.6l.5-.2v.2h.4l.2.4h.2l.5-1v-.3h.2l.1-.3v-.4l-.3-.3.3-.1-.4-.5-.2.3h-.2v.2l-.2-.2v-.4l-.3.1h-.1l-.4-.3-.2.1.2.3h.3v.7l-.2.2v1.1h-.3l-.3-.6v-.5l-.2-.2h-.1v.7l.2.1v.4h-.2v.2l-.2-.2h.1v-.3h-.6l.3.3-.1.2v-.3l-.4-.1v-.2.3l-.2.3v-.1h-.2v-.3h-.3v.2h-.3v.2h-.3v.3l-.2-.3h-.3v.1l.3.3v.6h.4l.3-.3v.4h-.3.2l.1.2h.2l.3.2v.1l.2-.1v.2h.1v.3h-.3v.2l-.4-.1-.1.2-.3.3-.3-.3v-.2l.1-.2h.2v-.6h.3l-.5-.1.1.2-.3.2v-.2l-.1-.3-.2.2h-.2v-.2h-.4l.2.2.1.3-.2.2v.3zm.3-.5h.3v-.2h.1v.7zm1.2-1.5h.1l.1.3h-.2zm-.1 3.5h.8v-.5h.3v.3l.3-.3v-.2l.2-.2h.1l.2-.2h.2l.4.3-.1.3.3.3-.3.3-.1.2.2.2v.2l-.4-.2h-.3v.2h-.1l-.2-.1.1-.3h.4v-.2l-.2-.1.1-.3h.4l-.1-.3h.2l-.1-.3h-.2l-.1.2v.3h-.4l-.2.1-.3.3h.4l-.2.3h-.2l-.2-.2-.1.1h-.7zm.4-3.7h.1l.1.2h-.3zm.1 2.8h.3v-.9l.1-.1h.3v.4l.3.2v.2h-.2l-.2.2v.6h-.1v-.6zm.9-1h.3l.1.2v.5h-.2v-.3h-.2l.1-.2zm.6.7v-.3h.9v.4l-.1.1h-.2l-.3-.2h-.2zm0-.6v-.3h.3l.2-.2.3.2v.5h-.1l-.1-.1h-.2l-.2-.1zm1.8-3.4v-.2h.3v.4h-.3zm245.7 38.3l.6.4.9.2 1.5-.2 1.6-.6.6-.4.2-.7.1-.7 1.1-.1V277h-1.5v.7l-.5.3h-.9l-1.8-.3-.9.1-.4.2-.5 1v1zm0 0"/><path d="M438.5 158.4l.3.2h1l.5-.3.6-.4.3-.2.2-.5.1-.8-.3-.5-.2-.1-.4-.2-.1-.3-.3-.4-.2-.9.4-.8.1-.4.2-.2.5-.7.5-.4.9-.5.3-.2 1.2-.4 1.9.2.5.3.7.1h1.2l.3-.3.3-.4-.1-.3-.1-.3v-.4l-.3-.3-.2-.2v-.1l-.7-.8-.2-.4-.4-.4-.5-.3h-.8l-.2.3-.2.2-.2.3-.6.4-.3.3-.7.2-.4.1-.3-.2-.2-.1-.1-.3h-.3l-.1-.3-.4-.3-.5-.4h-.1l-.3-.4-.4-.3-.4-1 .6-.5.7-.1.1-.2.3-.1.3-.4.1-.2.3-.3.1-.3.3-.4.2-.2.4-1 .3-.4.5-1.2h.2v-.1l-.4-.9v.5l-.2-.1-1.3 3.3-.2.2-.3.4v.1l-.8.6h-.2l-.3.4-.4.3-.8.3-.1.3v.6l.3.3.1.4.7.7.5.3 1 .7.3.2.3.2.5.2h1.3l.2-.3.1-.2.6-.4.5-.9h.3l.1.3.2.1.4.4.3.1.2.1.2.2.4.7.5.5.2.5v.4h-.8l-2.5-.2h-1l-1 .1-1.5.5-.1.2h-.2l-.3.4-.4.4-.2.2-.2.3-.6 1.4-.1 1 .4.7.3.4.7.4v.6l-.1.6-.2.2-.6.4-.1.1-.3.1-.2.1v.1l-.9-.2zM218.4 277.8l.3.5.4.4.6.3h.3v.2l.3.2.4.1.9.7.9.3.3-.2 1 .2.2.7.8-.2.5.4 1-.2h1.9l.2-.7.6-.2.5-.4-.3-.4h-1.4l-.3.3-.5.2-1 .2-1-.2-.6-.5-.6.3-.6-.4-.4-.2h-.8l-.3-.2v-.7h-.4l-.3-.3h-.4l-.2-.2v-.4l-.4-.6v-.1l-1 .3-.2.4-.4.2zm1 .3l.1-.1h.1v.3h-.2zM178.6 5.4V6l.1.6.3.2.4.7h.3v1.2l-.4.3v.5l.2.5.3.7.5.5.8.1h.4l.2-.3.3-.3.2-.2v-.8l.5-.1h.1l.2-.1v-1l-.4-.3-.4-.2h-.7l-.3-.4V7h-.2l-.2-.6-.6-1-.5-.1-.3-.3-.4.2zM8.5 136.6l.3.3v.5l.4.3v.3l.3.4v.1l.7.8h.2v.2h.6v.1h.4l.5-.2.1-.1h.2v-.7h.2v-2.4h-.2v-.2l-.2-.2v-.2l-.1-.2-.1-.4h-.3l-.1-.2h-.2l-.5-.2h-.2l-.2.2H10l-.5.5h-.1l-.2.1-.5.6v.2l-.2.2zm478.3 110.7v.2h.2l.2.2h.1v-.4l.2-.1v1h.5l.7.2h.7l.6-.2 1.1-.2.5-.4.5-.3v-.3l.5-.5v-.2l-.2-.3v-.2l-.1-.2-.3-.2h-.2l-.4-.3-.1-.1-.4-.2-.8-.2h-.7l-.3.4v.2l-.2.3-.3.2-.4.5-.2.2v.4h-.1v.2h-.6v-.1h-.3v.3h-.2zM57.6 24.7l.4.1v-.2l.6.5v.3h.3l.1.3.6-.1.1-.1v-.3h.3v.2l.3.2-.4.4.3.3v-.1h.8l.4-.2v-.4l.2-.1V25l-.2-.6-.1-.4-.3-.3v-.5h.8V23l.1-.3v-.4h.1V22l-.3-.4-.5-.4-.2-.2h-.6l-.2.2v.1l-.2.3-.7.4v.8l-.5.5-.2-.2h-.2l-.4.3-.3.4.1.2v.3l.2.2-.1.1zm1.4.6h.1v.1H59zm171.2 120.9l.3.1.5.2v.5h.2l.1-.5v-.2l.1-.1.3-.2v-.1h.3v-.2l.2-.3.2-.2.1-.2h.2l.3-.4.7-1 .1-.3.5-.3h.2l.5-.8h.2l.4-.3.2-.4v-.2l.4-.2.1-.1.1-.4.3-.7.1-.2.3-.3.1-.2.1-.2.1-.2.1-.1v-.1h-.3l-.4.2-.3-.2h-.2l-.2.4-.5.6-.3.3-.1.1-.2.3-.3.3-.3.3-.2.1-.3.5v.2l-.3.1v.2l-.2.2-.4.1v.2l-.1.3v.3l-.3.2-.3.2-.2.1v.6l-.4.3h-.2v.5h-.2l-.2.1-.3.4-.3.2-.2.3zM73.8 130.4l.2.2v-.5h.3v.6l.1.1.2-.2.3-.2h.3v.3h.3v-.6h.3v.3l-.2.2v.4l-.2.2-.4.2v.6h.3v.2l.3.3h.1l.2.2.1.1h1.2v-.3l.3-.1h.5v-.3l.4-.1.1-.1.2-.3h.1v-.6h.2v-.5l-.4-.2-.2-.4H78l-.2-.1h-.6v-.3l-.2-.3h-.6l-.1.3v.2h-.1l-.2.3v.2l-.2-.3v-.6h-.3l-.1-.2-.2-.1h-.5l-.2.3h-.3v.7H74l-.1.3zM204.3 146l.1.3v.2l.1.1.1.4.2.2v.3l.1.2.1.2.1.3.2.2v.6l.2.2v.3l.1.1.1.2v.3h.3v.6l.3.1v.5l.2.2v.2l.3.4.2.2h.1v.3l-.3.2v.1h.3v.1h.2l.4-.3v-.1h.6v-.8l-.3-.2h-.2v-.4l-.1-.2v-.7l-.3-.1h-.1l-.3-1v-.1l.3-.1-.3-.2-.2-.4v-.2l-.1-.2-.1-.2v-.1h-.1v-.4l-.3-.1-.1-.2-.1-.3v-.2l-.2-.2v-.1l-.3-.2v-.3l-.1-.3-.2-.4-.2-.3v-.3l-.3-.1v.5l-.1.4v.2l-.2.2v.2zm0 0"/><path d="M424.8 173.6v.4h1.6l.6-.7v-.6l.5-.4v-.3l.5-.7.1-.1.3-.8.1-.8.2-.3 1.3-.6 1-.2v-.5l-.2-.3-.2-.1h-.1l-.5-.1v-.3l-.3-.2-.1-.2-.4-.8-.2-1 .3-1 .2-.2v-.2l.3-.1 1.4-.2.3-.3.2-.4.1-.3-.1-.3-.2-.3-.2-.1-.5-.1h-.8l-.8.2-.7-.2-.2-.4-.1-.1v-1.1l.3-1h.2l.1-.4h.1l.2-.3.2-.1.4-.6.3-.3.3-.2.2-.4 1.5-.6.9-.7 1.1-.5h.7l.6.5.1.2.3.3.2.2.6.5.7.4.2.3h.1l.1.2v.3l.3.1.3.4.3.2.2-.2-.4-.5-.3-.2v-.1l-.1-.4h-.3l-.5-.6-.5-.3-.5-.4v-.2l-.7-.4-.4-.4-.8-.3-1 .1-.1.2-1.4.6h.5v.1l-.8.2h-.1l-.2.2-.6.5-.1.1-.4.6-.3.2-.2.3-.2.1-.3.4-.3.4-.2.2-.4.7-.1.7v1l.3.6.3.2.7.2 1.9-.2.2.2v.7l-.6.4h-1l-.6.5-.2.4-.2 1 .2 1.3.4.9.1.1.3.2.6.3h.3v.5h-.7l-.5.4h-.2l-1 .5-.1 1-.3.6-.6 1-.1.2-.3.5v.1l-.3.5v.2l-.3.2-.7.1zM211 286h.7l.1-.2v-.1h.2v-.3l.2-.2v-.1h1.8l.1-.5v-.8l.3-.1v-.5l.1-.2.1-.3h-.1v-.6l-.1-.1v-.3l.3-.1v-.7l.1-.1v-.4l.2-.1v-.4h-.1l.1-.2v-.4h.2v-.3l.1-.5.3-.3.1-.1.3-.2h.3v-.4l-.6-.3-.2-.2-.5.5-.4.6h-.6l-.3-.2h-.2l-.1.3v.2l-.3.3v.4l.2.2.1.2v1.2l.1.3.2.2.3.1.2.3.1.2v.5l-.3.3h-.2v.6h-.6v.8l-.4.2-.2.2v.1h-.3v-.1h-.2v.2l-.1.1h-.3l-.2.3v.4l-.3.4zm170.7-13.9v.2h.3v.3l.2.1h.3v-.2h.2l.1.1h.6l.1.5.7.3.6.2.2.1h.5l.5.1v.2h.2v.1l.6-.1.4-.3.3-.5.3-.2.2-.3v-.3l-.2-.1-.2-.1-.2-.2-.4-.4h-.3l-.4-.3h-.3l-.2.1-.1.1H384l-.3-.3h-.3l-.4.4v.2l-.3.2-.1.3h-.1l-.3-.1-.2-.2h-.3zM1.6 163v.4l.3.3.2.5.3.2.4.4.2.2v.3l-.2.2.2.3.1.4v.1l.3.3h.4l.3.2h.7l.2-.2.2-.2.1-.3.1-.3v-1l-.6-.3-.2-.3-.4-.3-.4-.3v-.6l-.4-.2h.3l.3.1h.2l.1-.2v-.3h-.5l-.1-.2h-.4v.3H3l-.2.1H2zM253.8 55.6l.2.3h.2v.1h.5l.1-.2h.2v-.2h.2v-.3h.1v-.1l.2-.2.3-.3.1-.1v-.1h.1l.2-.1v-.2l.1-.1V54h.1v-.3h.1v-.2h.1v-.1h.1l.1-.2h.2v-.1h.2V53h.3l.1-.2v-.1h.1V52h.2v-.4h.1l.2-.1V51h-.2v-.3h-.3v-.1h-.1v-.1h-1v-.1h-.4l-.1.3h-.1v1h.1l.1.1h.2v.1h.2v.1h.4-.9l-.1.2-.2.1v.2h-.1l-.1.1v.1h-.1v.1h-.3v.1l-.2.1v.2l-.2.1v.1h-.1v.2h-.2v.2h-.1v.2l-.1.3h-.1v.1l-.2.1v.1l-.2.1v.5h.2v.3h-.3zM476.7 108l1.8.2.3.2.2.2.6.4.2.3h.2l.3.2h.2l.5.3.3.2v.2h.2v-.1h.2l.7 1.4v.4h.1l.4 1.1.4.7-.3.2h-.1v.2l-.2.1v.1l-.9.4v.1l-.4.2h-.2v.3l-.5.2v.1h-.2v.4l-.7.2-.1.8v.3h.3v.1l.4.1 1-.2h.5l.3.4.3 1.3.8.4.3-.1.7-.4v-.1l.5-.1v-.1l.8-.4 1.8-.1v.7h-.3v.2h-.2v.3h-.1v1h.1v.2h.2v.1h.1v.2h.3v-.2h-.2v-.3h-.3v-1.1h.2v-.2h.1l.3-.6v-.6l-2.1.2-1.7.8h-1.3v-1l-.2-.2-.3-.6h-2.2v-.6h.2v.1-.2l.1.1v-.2h.2v-.1l.4-.3h.1l1-.6.2-.2v-.1h.5l.3-.2.7-1.2h.1v-.2.1h-.4l-.2-.4-.3-1.7v-.1h-.2v-.2l-.5-.8-.3-.2v-.2h-.3l-.1-.3h-.1l-.2-.5-.3-.2-.2-.2h-.2l-.1-.3-.4-.1-.3-.1-.2-.2-2-.8-.3.4zm0 0"/><path d="M487.3 120.8l.2.2.2.2h.2l.2-.2.1-.1.1-.3.2-.4.2-.5.2-.4v-.3l.3-.2.2.2.2.1.4.1.4.1.9.5.5.2.4.4.3.3.3.7.2.5.2.7.2.4.2.6.1.4.3.2.7.1.5-.1.5-.3.2-.2.1-.2h.3l1.1.1 1.7.5 1.2-.1 1.3-.1 1-.3 1.1-.2.4-.1.5.1.4.6v1.2l-.2.5v.5l.4.2h.9l.7-.3 1.7-.9.6-.2.7-.3.8-.4.9-.5.7-.3-.2-.5-.5.3-.5.5-.6.4-.4.3h-.7l-.7.5-1.6.9-1.1.1h-.9v-.3l.2-.1v-.4l.1-.6v-.5l-.3-.5-.4-.4-.4-.1h-.5l-.5.1-.6.1-1.6.3-.8.1h-1.9l-.7-.2-.6-.3h-.6l-.4.2-.3.2-.3.3-.4.1h-1l-.2-.3v-.3l-.3-.9-.2-1-.3-.9-.4-.3-.6-.3-.7-.5-.7-.5-.6-.2-.5-.2-.5.2-.3.4-.2.4-.2.6-.3.3v.5h-.4v-.2l-.3-.2zM4.7 139l.3.3.4-.1v.1l-.1.2.2.3h.6l.6.5v.4h.1v-.4l.4.4h.1l.2.3H8l.2.4h.3l-.1-.1v-.3l-.1-.1.1-.1v.1l.4.3v-.2l-.2-.4h.3l-.1-.1v-1l-.2-.5h-.2l-.4-.4v-.4l-.2-.2v-.3l-.1-.1-.2-.1H7v.2l-.3-.3h-.5v.3h-.5l-.1.1.3.4v.2h-.2l-.1-.4v.3l-.2.2H5l-.3.3zm1 .6v-.1h.1l-.1-.4v-.2l.1-.3h.3l-.1.3h.4l.3-.5H7v.3h-.3l-.1.1v.4l-.1.3h-.3l-.2-.2-.2.2v.1zM127.9 54l.4.6.3.4h.8-.5l.2.5h.4l.2.5.2.1.1-.2h.3l-.1-.4h.4l-.3.4-.2.2v.3l-.3.6.4.5h.3l.1-.3v.3l.4.1.1-.1-.1-.5h.4l.2-.2-.4-.5-.4-.3-.2.2-.2-.2v-.1l.1-.1h.2l.3-.1V55h-.5v.3l.1-.3v-1.4l-.2-.7-.8-.4-.6-.2-.4.7-.3.4h-.3zM262.3 0l.4.4-.1.3.2.3h.2V.4l.2-.2.5-.2.3.2.3-.2v-1h-.2l-.3.4-.2-.2-.2-1h.3l.3-.2-.2-.6h.5l.2-.4v-.3l.2-.5-.5-.7.1-.7h-.2l-.3.2h-.2l-1 1.5-.3.5.7 1.1-.2.1v.4l-.5.7zm-105 141v.2l.1.2.2.1.3.1.1.1.5.1.1.2h.4l.1-.4h.2v-.1h.2v-.2h.2l.2-.2h.1v-.4l.2-.3v-.1h.1v-.3h.1v-.6h.1v-.4h-.4v-.2h-.1l-.2-.1h-.2v-.2h-.2l-.2-.1h-.2l-.3-.1h-.4l-.2.3v.4l-.1.1v.3l-.2.1v.2l-.2.1v.4h-.1v.4h-.1v.1h-.1l.3.2v.1-.2h-.2v.2h-.2zm268.3-43.3v.4h.4l.2-.1.1-.1.5-.2h.2l.4.3.2.2v.6h-.2l-.1.2-.2.1-.2.1-.1.1-.1.2v.6l.3.5.4.2.6.2h.6l.2-.3h.1l.2-.1.2-.2.1-.2.4-1.5.4-.3h.5l.3.2v1.1h-.1l-.1.3h-.2v1h.2l.2.1h.3l.4-.7.1-.1.1-.1.2-.2h.4l.2.4h.1l.2.1h.3l1-.2.4.2.3.1v.1l.2.3v.3l.2.3.4.2h.5l.4-.3.3.2.3.1.3.4.4-.4.4-.2-.4-.2-.3-.2h-1.3l-.2.1-.3.1h-.1l-.1-.2h-.1v-.2h-.1l-.3-.6-.3-.2-.2-.2h-.4l-1 .2-.3-.2h-.1l-.4-.5h-.5l-.3.5-.2.5-.2.2h-.2l-.1-.4v-.3l.3-.2.1-.4v-.8l-.4-.3-.3-.1h-.7l-.2.1-.1.1v.1h-.3v.4l-.2 1.1-.2.4-.5.2h-.8l-.4-.2-.1-.1-.2-.1v-.7l.3-.2.3-.1.4-.3v-.6l-.4-.3-.2-.4h-.4l-.2-.2h-.3l-.5.4v.2h-.3v-.3l.3-.2-.3-.3v.3zM1.5 75v.3h.2v.2l.1.1.2.1v.3l.3.2h.3v.1h.7v.7l.2.1v.1h.3l.1.3.4.2.2.1h.1l.2-.2v-.3h-.1V77l-.4-.1v-.1l-.2-.3v-.2l-.3-.3v-.1l-.1-.1h-.3l-.2-.3H3v-.7l.2-.2v-.1l.1-.3V74l.3-.2v-1.2l-.3-.2v-.2H3l-.2-.2h-.4l-.2.4h.1v.2l.2.4h-.4v.5l-.1.2h-.1v.5l-.3.2-.1.2zm14.7 58l.6.4v.2h.2l.2.3h.3v.3l.7.3v.1l.2.4h.6l.3-.5v-.3l.3-.2v-1l-.3-.3-.1-.3-.3.2h-.3l-.6-.8h-.3v-.1h-1.1l-.1.2-.2.2v.3zM172.3.6v.7l.3.7.2.5h.2l.6.4h.4l.6-.5.3-.4.2-.4v-1l.3-.2V0h-.2l-.3.1V0l-.6.1v.2h-.3l-.4-.1-.2-.3-.4-.1h-.3l-.2.2zM11 141h.2v.3l.2.2v.1l.1.2v.2h.2v.5l.6.4.2-.1.2.1.5-.2h.1l.6-.6v-.3l.1-.1v-.8l-.3-.3-.4-.2v-.4H13l-.1-.2h-1v-.1h-.2v.1l.1.2-.7.5v.2zm28.3-8l.4.4v.2l.3.2.3.3h-.1v.2h.1v.3l.2.1h.3l.3.1v-.1l.9-.1v-.2h.3v-.3l.3-.3v-.4l-.6-.2v-.4l-.2-.2-.3-.2h-.2l-.2-.4h-.3l.3-.8v-.2l-.1-.2-.3.3h-.2l-.4.4-.1.2v.2l.2.1v.1l-.8.9zm-19.5 36.3v.3l.2.1v.3h.1l.1.2h.1l.2.2h.1l.4.2v.2h.5v-.2l.3-.1v-.1l.2-.2v-.2h.2l.2-.2v-.7h.6l-.1.2h.1v-.7h.5v.3h.1v.1h-.3l.2.3.4-.3v-.2l-.4-.1v-.3.1h-.3v-.7h-.1v-.4l-.1-.1v-.1l-.1-.2h-.3l-.3.3-.1.3v.2l-.2.2v.1l-.2.3v.3l.2.1v.2h-.2v-.2h-.3v-.1h-.1l-.2-.1h-.1v-.1h-.8l-.1.3h-.1l-.2.1-.1.3zM38.4 109l.3.5.3.3.5.7h.2l.3.5h.4l.4-.2h.2l.2-.2.2-.3v-.3h-.1v-1.3l-.3-.2-.3-.2v-.1l-.4-.4h-.6l-.3.2-.2.1-.2.1-.2.1v.1zm385 47v.6l.5.9.1.4.6.1.4.2h.3l.7-.6.3-.3.2-.3v-.4l-.2-.6-.5-.2-.8-.2h-1.3zM155 224h.8l.1-.4h.3v-.1l.2-.1h-1.1v-.8l.4.1.1.1h.6l.1-.1.2-.3-.1-.4.2-.2v-.2l-.1-.4h.1l.1-.7.3-.2v-.2l-.2-.3-.3-.3-.4-.1h-.2v.3l-.7.1-.4.6v1.9l.3.3v.6l-.4.6zm18.3-210.4v.3l.2.3.1.6.1.3.4.4.4.2.2.6.3.5.3.2h.3l.6-.5v-1l-.2-.5h-.8v-.4l-.4-.3v-.6l-.4-.3-.1-.4-.3-.3h-.4l-.1.4zm47.2 232.5v.1l.3.1v.1l.2.1.1.2v.3l.2.2v.2h.5l.4-.1h1.7l.1-.2.5-.2h.8l.3-.1h.2l.2-.3v-.3h-.4l-.1-.2h-.4l-.2-.3-.5.1h-.6l-.1.1-.2.2h-.3l-.1.2-.2.1h-.6l-.1-.4-.2-.1h-.3l-.2-.3h-.6v.4h-.3zm-100.7-177l.2.3.1.3.2.4.1.5v.2l.3.3.3.4.2.3.3-.1h.1l.1-.3.1-.2.2-.4.2-.1.3-.4.2-.2v-.6l-.3-.3-.1-.2-.3-.3h-.3l-.3.1h-1.3zM37.5 92.6h.1v.2h.4v-.5h.2l.1-.1.1-.2h.1v-.3h.3v-.1l.1-.1h.1v.7h-.2v.2l-.4.2v.1h-.1v.3h-.8v.1l.2.2.1.2h.5v.2h.3v-.6h.7v.6h.1l.1.1h.4v-.3h.1v.2h.3l.2.2v-.3h.3v-.5l-.2-.1v-.2h-.2v-.3h-.1l-.2-.1v-.2H40l-.2-.2v-.2h-.1l-.1-.1-.1-.2.3-.1v-.2h.1V91h.1v-.1h-.2v-.4h-.7v.1h-.4l-.2-.2-.1.2v.1l.3.1h-.6v1h.3v.2H38l-.3.2-.2.2zm1.8-1.3v-.2h.2v.4h-.1zm15.3-73.2l.2.3v.1l.2.2v.3l.5.3.3.3h.2l.2-.1h.4l.3-.3.1-.2v-1.4l-.3-.3h-.3l-.2-.2H56l-.5-.6H55l-.4.7v.1l.1.2v.2l-.1.3zM177 178.8h.2v.3l.2.2v.1l-.2.2v.1l.1.3.2.4v.1h.2l.3.3v.3l.2.2h.4l.1.3v.1h.5l.1.3v.3l.2.2h.2l.2.2h.5v.1h.3l.2.2.1.3.2.1h.2v-.1h.6v-.6l.2-.1-.2-.3h-.5v.4h-.5v-.3h-.5l-.2-.4v-.1l-.1-.1v-.2l-.2-.1-.2-.2-.2-.2v-.1h-.4v-.3l-.4-.1v-.3l-.3-.2-.2-.3-.3-.3v-.2h-.2l-.1-.3h-.2l-.3-.3h-.2zm307.6-82.1h.1v.3h.3v.1h.2v.1l.3.3.6.5 1.9-.5v.3h.2l.5.9.7.3h.8l1-.1.6.1.3.3.3 1h.1v.4h.3l1.3.4v.1h.2v.3l.2.1v.8h-.1v-.3h-.3v.3l.3.1h.1v.1h.1l.4.7.1 1.5h.2v.4h.2v.2h.1v.1h.1v.1l.8.5.8.2v.1h.2v.3h.5l-.3-.2h-.2v-.4l-1.4-.3v-.2h-.2l-.1-.3h-.1v-.2h-.2l-.3-.8v-1.4h-.2v-.1h-.2l-.3-1.5-.2-.3h-.3v-.3l-1-.2-.9-1.5-.7-.4h-2.2v-.1h-.1v-.2l-.5-.2-.4-1h-.1v-.2h-.1v-.1h-.3v-.3l-1-.1.4.2.7.2v.2h.2l.2.5h-.2v-.2h-1.3v.2l-.6.1h-.3v-.3h-.2v-.2h-.2v-.2h-.2v-.3h-.2v-.2l-.4.1zm-224.5 89.9h.2l.2-.2.5-.1.4-.1.4-.2h.1l.2-.1.2-.2.2-.1.1-.2h.4v-.2l.4-.4.2-.3v-.5h.1v-.7l-.2-.3h-.3l-.2.1-.7.9-.2.2h-.2l-.3.3h-.1v.5l-.3.2-.2.2-.2.2-.3.5-.3.3zm149.7 80.2h.2v.5h.3v.2h.4v-.3h.1l.6.2.8.2h.8l.2-.3h.3v-.2l.3-.1v-.5h-.6l-.1-.2h-.1v-.1h-.1v-.2l-.2-.1h-.1v-.2h-.1v-.2l-.2-.1h-.3l-.2.2-.3.1-.1.3-.4.4-.2.3h-.4v.1h-.3l-.1-.3h-.2v.2zM8.3 167v.2l.3.2.1.1H9l.3.3h.4v.2l.2.1h.1v.3h.4v-.6H10v-.1l.1-.1h.2l.1-.2.2-.1h.1l.1-.3h.2v-.1h.2v-.3h.1v-.3H11l-.1-.2-.2-.1h-.2v-.2H9.4l-.3-.1v.3h-.4l-.1.3h-.3zm416.1-62l.1.2v.1l.2.2-.3.2v.1h.5v.2l.1.2.2.2.3.2v.2l.1.2h.4v-.1l.2-.1h.1l.1-.3.3-.2v-.2h.1v-.1h-.4v-.2h-.1v-.3l.2.4h.5v-.4h.2l.1-.2v-.2h-.3v-.1h-.2v-.4h.2v-.1h-.3v-.1h-.4v.4h-.3v.4h-.3v-.6h-.1v-.2h-.2v.3h-.1l-.2-.3h-.5l-.1.4zm1.9 0v-.2l.3.2zM123.4 71.3v.2l.1.1v.5l.3.6v.3l.2.1v.3h.1l.2.3h-.1l.2.5h.6l.3-.1v.7h.4l.3-.4V74l-.3-.4h-.3v-.3h-.1l-.3-.3v-.3l-.2-.3v-.5l-.2-.2h-.1v-.3l-.1-.2-.2-.2h-.7zm260.1 30.5l1.4.9.7 1 .2.3v.7l-.7 1 .3.5h.6l.5-.4v-.6l-.6-2.6-.9-.8h-.5l-.5-.4-.5.1zM50.6 126.3l.5.6.4.1h.2l.3.3.2.2h.5v-.3l.1-.2.1-.2v-.3l-.4-.5v-.3l-.2-.4v-.6h.2v-.3h-.2v.2h-.1l-.5.4-.4-.1H51v.8l-.2.3zm87.9 145.5v.3h.3l.3.5h.1l.2.1v.5h.1l.2.3v-.2h.3v-.3h.2l.2-.3.1-.1h.2v-.3h-.1l.1-.2v-.4l-.2-.1v-.3l-.1-.1-.2-.2-.4-.3v-.1h-.8l-.1.2v.2l-.3.3v.5zM71.2 26.4v.3l.3.3v.3h.1v.4l.4.6.3-.3h.2l.5-.2h.4l.4-.1.2.1v-.3l.1-.1H74v-.9h-.5l-.2.2h-.4l-.5-.5-.2-.1h-.6l-.3.2zm58.4 190.9h.3l.1.1h.3l.3-.1h.7v-.3l.1.1h.2l-.1-.2h-.1l-.4-.2v-.5l.4-.2h-.2l-.2-.1v-.2h.3v-.3l-.3-.3h-.4v-.1h.2l.2-.2h.4v.1-.2h-.4l-.2-.2-.3-.2h-.4v-.3h.4l-.2-.3-.2.1-.3.2v.1l.2.1v.3l.3.3-.3.6v.6h-.4v.4h.3v.3l-.4.2zm-114.2-32v.2l.2.1v.1l.2.2v.1h.1v.2h.1v.4h.2v.2h.2v.2l.1.2.1.1.1.1h.1v.1h.1v.1h.1v.1h.3v-.3h.1v-.1h.2V186h-.3v-.2h-.1v-.1H17v-.1h-.4v.3h-.2l-.1-.3v-1.1h-.1v-.1h-.1v-.1H16v-.6h-.3l-.2.3h-.1v.7h.3v.2h.2v.1h-.4v.2zM159 121.8v.2h.7v-.7h.1v-.3h.5v-.2h.3v.2h.1l.2.2h.1v-.2l.2-.3.2-.1h.3v-.9h.1v-.5l-.3-.1v-.6h.3v-.4h.2v-.5h.2v-.2h.1v-.2h-.2l-.1.2h-.3l-.1.2v.3l-.1.1v.5h-.2v.1h-.2v.2h-.1v.4h-.2v.1h-.1v.1h-.1v.3l-.3.3v.2h-.3v.3h-.2v.1h-.1v.1h-.1v.2l-.2.1h-.1v.6h-.2v.1l-.1.1v.1zm87 32.7v.5l.4.4h.5l.3-.2.1-.2v-.5l.3-.2h.2v-.3l-.2-.7-.2-.1h-.2l-.2-.4v-.5h-.2v-.6l-.3-.1v-.3.9l-.2.2.3.2.1.3v.3h-.3l-.2.3v.2l-.1.3zM147.5 239l.1.2v.2l.4.6v.2h-.1v.5l.1.4h.5v-.3l.2-.1h.1v.3h.1v-.5h.1l.1-.2.3-.3v-.8h-.4v-.2h-.3v-.5l-.2-.3h-.6l-.2.3v.2zM12 177.2l.1.3.1.1h.1l.2.4.3.1.2.1h.3l.2-.2v-.2h.2l.1-.1h.2l.1-.2v-.1l.2-.2v-.3h.1v-.3l-.3-.2-.1-.1h-.2l-.3-.2h-.9l-.2.3h-.2l-.2.2v.2zm34.7-57.5l.1.1v.2l.2.1h.2l.3-.1.4-.3v-.7h.2l.4.8.1.6h.4v-.2l.4-.2.2-.4v-.6h-1l-.2-.2v-.4l-.2-.2h-.1v.4h-.5v-.6h-.4l-.5.8v.2h.1zM110 250.5v1l.2.1v.1h.3v.2h.8v.1h.4v.2h.3v-.6l-.2-.1v-.8h-.1v-.1l-.1-.1v-.1h-.2v-.1h-.1v-.1l-.1-.1v-.1h-.1v-.2h-.1v-.1h-.5l-.1.3h-.3l-.1.2zM62 65.4l.3.2v.2h.1v.2l.3.4.1.3v.3l.4.3h.3l.1-.2.2-.1h.5v-.7l-.1-.2-.2-.1-.5-.5V65h-.2v-.2h-.7v.5h-.2v-.2h-.3v.2zm.9 0v-.2h.1v.3zm-12.2 82.3l.1.3.2.2v.3l.2.1-.2.1v.5l.5.2v.3l.1.2.3.1h.1v-.2l.3-.2v-.1l.2-.1v-.1l.2-.2v-.1l-.3-.2v-.2h-.1l-.2-.2-.2-.2v-.4h.2v-.3l.2-.1v-.1l-.3-.4h-.4v.4l-.3.1h-.4l-.3.2zm163.8-6.3l.1.1.2.2.2.3.2.3v.4l.2.2.1.3v.6l.2.2.1.3.2.2h.3l.1-.2h.1V143h-.3v-1l-.2-.2v-.2h-.1l-.3-.3h-.8l-.2-.1zm51.1-119.3l.2.1v.2h.4v.4l.1.3.2.2h1v.1h.5v-.6l-.5-.4v-.2l-.4-.2-.1-.5-.6-.4h-.2l-.1.2-.1.2-.3.2v.1zM56.3 149.5l.3-.1v.2h.4v.2h.2v.2h.1v-.5h.3v-.1h-.2l.1-.3.2-.1h.6l.2-.4v-.1l.1-.2h-.1v-.1l.4-.2v-.3l-.2-.4h-.2l-.4.4h-1.3l.2.2v.2l-.2-.3-.2.2h.3v.4h.7-.2l-.4.2-.1-.2h-.1l-.3-.1v.2h.2v.7h-.4v.2zm1.5-1.5l.1-.2h.4v.2h-.6zm-28.2-13.9l.4.5v-.3l.3.2v.2l.1.2h.2l.3.1.3-.2.4-.5v-1.1l-.8-.4h-.4v.2l-.4.3-.2.3v.4zM8 106.8h.2l.1.2h.3v.2l-.3.2v.2h.2l.3.4h.3l.3.3v.4h-.2v.4h.1l.1.3h.3l.3-.4.1.1h.2v.1h.2l.2-.2v-.2h-.1v-.3h-.1v-.3l-.7-.2h.4v-.5H10v-.2l-.4-.1.2-.2h-.2v-.2h-.4v.3l.2.2H9v-.3h-.3v-.1h-.2l-.2-.3H8zM70.8 84v.1h.2v.3h.2l-.2.1v.1h.2v.1h.1v.1h.2v-.2l-.2-.1v-.2h.3v.5l.1.1.2.1v.1l.1.1h.1v.2h.7v.1h.2V85h.2v-.3h.3l-.3-.1h.3v-.4l-.3-.1V84l-.2-.2v-.3h-.1l-.3-.2v.3h-.1v-.2H72v.4h-.2l-.1.2h-.2v.4h-.4V84zm348.5 9.5h.1l.1.2.3.1h.4v.1h.2l.1.1h.3v.6h-.1l-.3.1-.1.2v.1l.3.2h.4v-.5h.2v-.2l.2-.3v-.1h.2V94l.1-.2v-.4l-.3-.1h-.1l-.3-.2V93h-.6l-.2-.2h-.2v-.3h-.4l-.1.4-.2.1v.3h-.1v.3zm75.7-8.4l.4.6.6.6h.3l.3-.3.4-.5v-.9l-.4-.1-.4-.2h-.4l-.7.7zM67 140.2v.4h.2v.2h.1l.2-.2h.3v-.3h.1v-.1l.1-.2v-.2h.3v.2h.1l.1.2h.3v-.2h.4v-.3H69v-.3l-.2-.1-.2-.2v-.2l-.3-.2-.1-.1h-.5l-.2.2h-.3v.7l-.2.2zm7.9-77.1v.1l.3.3h.1l.1.1h.2v.3h.3v.1l.1.1v.2h.1l.1-.1h-.1V64h.3v.1l.2.1h.1l.3.3v.1h-.2v.4h-.1v.5h.2v.1l.1.3v.1h.3v.3l.2.2h.1l.2-.2.2-.1V66l-.3-.3-.2-.2V65l-.2-.5-.3-.1h-.1l-.2-.4h.3v.4l.2-.2.1-.2h.3v-.3l-.2.2v-.3h-.3l-.1.2h.3v.3H77l-.1-.2h-.1v-.2l.2-.1v-.2l-.5.4v.2h-.1l-.1-.1-.1-.1-.2-.2-.1-.2h.3v-.2H76V63h-.1l-.1.2h-.1l-.1-.2v-.3h-.4v-.1H75v.4zm2.4 2.7h.3v.2zm294.6 192.5v.4h.1l.1.3h.2l.1.1h.2l.1.1v.1h.2v.2h.1v.1l.2.1v.3h.2v.6l-.3.2-.1.2v.1l-.1.3v.1h-.2v.1h-.1l-.1.2h-.1v.2h-.2v.2h.4v.2h.4l.1.1h.2l.1.1h.3l.1.1h.2v.2l.3.1.2.1v.3l-.4.1-.1.1h-.5v.1h-.3v1h.2v-.2l.2-.2v-.5h.2l.2-.2.2-.1h.2l.1-.2.2-.2v-.3h-.4v-.3h-.5v-.1h-.4l-.1-.3h-.8v-.4h.5v-.3h.2v-.3l.2-.1.1-.2v-.9l-.1-.2h-.1l-.3-.3v-.1l-.2-.1v-.2h-.2l-.2-.1-.1-.1-.2-.2-.1-.3v-.2l.2-.1h.8l.5.3h.1l.1.1h.7l.2-.4v-.4h.2v-.4h-.3v.8h-.2l-.2.3h-.5l-.2-.3h-.3v-.2h-1l-.1.2-.2.3zM67.3 127.4l.3.3.2.1h.2l.3.2v-.2h.4l.1-.1v-.4h.5v-.5l-.3-.2v-.1h-.4v-.2H68v-.2l.2-.1h.2l.2.3h.2v-.6h-.6l-.2.3h-.3v.3l-.2.2v.3h.1v.2l-.3.3zM-2 98.5l.2.2h.3l.1.2-.3.4.1.1v.2h-.1v.3h.1l.1.4h.3l.1.2h.6l.3.3.1.1h.3v-.4l.2-.2H0v-.2h-.3v-.3l-.1-.2-.1-.1v-.2h-.4L-1 99v-1h-.2l-.1.1h-.4v.2zm195.4 56.8v.3l.3.3.3.3v.8h.5v-.1l-.2-.5-.1-.3v-.6l.1-.3.3-.1.2-.4v-.3l-.2-.4h-.4l-.3-.3-.2-.1-.1.2v.9l-.2.2zm-129.8.4v.4l.4.3.1-.1h.1v.3h1.2l.2-.4.2-.2v-.2l.2-.3v-.3h-1.4l-.2.2h-.3l-.3.2h-.1zm-.7-43.9l.5.6.4-.1h.8l.1-.3.4-.2-.1-.2v-.5l-.2-.3h-1.2l-.1.2v.2l-.3.2v.1zm112.9-92.2v.7l.2.4.2.3h.6v-.3l.2-.2h.4l.2-.4V20h-.2v-.4l-.4-.4h-.3l-.3-.2h-.2l-.3.4zM28.4 142.8v.5l.2.3v.4l.4.4.1.1h.3l.6-.9v-.8l-.4-.2h-1.1zM191.7 97l.1.4.1.2h.7l.3.3h.6v-.3l.2-.2h.5V97h-1v-.4l.2-.1v-.2h-.4l-.1.2h-.3l-.2-.1-.4.2zM213 27h.3v.2h.8l.2.2h.4l.2-.4h.3l.3.2.3-.2.3-.4v-.1l-.2-.2v-.4l-.2-.2h-.3l-.2.3-.2.2-.5.3h-.7l-.2.2-.5.2zM43 127.9v.1h1.5v-.3h.4v-.3l-.1-.1h-.3l-.2-.1v-.3h.2l.2.1h.2v-.2h-.1l-.3-.1.3-.3-.1-.4h-.2l-.6.4h-.4l-.1.6h.5l.1.2v.2h-1v.3zM172.7 4.2v.2l.3.2h.2V5l.7.5.3.5.2-.1.2-.1V6l-.2.1v.2l.2.1v.3l.4.3.2-.4h.2v-.7h-.4l-.3-.2v-.2l-1-1-.2-.4-.1-.1h-.4zM256.3 19l.3.2.4.2h.2v-.1l.4-.3h.1l.3.4h.3l.2.1v.5l.1.3.4.1.2.4h.8V20l-.1-.2-.1.2v.2l-.1.1h-.4l-.3-.3v-.2h.3v-.3l-.1-.1h-.5l-.3-.4-.1-.2h-.1l-.3-.3-.4-.1h-.3l-.3.3v.3h-.2l-.3-.1zm-212 58.3l.1.1h.2v.4l.3.2h.3v-.2h.2v.2l.1.1h.5l.1-.3v-.4l-.1-.2v-.1h.2v-.4.3h-.3l-.1-.3-.2-.2h-.3v-.4l.4-.1v-.4l-.2-.2h-.2l-.3.5v.2l.2.1v.1h.1v.2l-.3.1v-.2l-.2-.1h-.2v-.2h-.1v.2l.3.2.2.2h.3l.1.2h.1v.3h-.2l-.2-.3h-.5v.1h-.2v.2h-.2zM79.4 54l.1.2v.2l.3.1v.4H81v.2h.2V55l.3-.3v-.6l-.3-.1h-.1l-.1-.1v-.1l-.4-.3h-.1l-.3.2h-.3l-.1-.2h-.1l-.4.2zm-23.2 56.9l.2.1.4.2v1h.2l.7-.4.1-.2.2-.6.3-.2v-.3l-.3-.1v.1h-.2v-.3l-.1-.2-.5.3h-.1l-.3.3h-.4l-.3.3zM210.9 142h.1l.2.3h.4l.2-.2.4-.3.3-.3.2-.2.2-.3h1.1v-.4l.3-.2v-.2h-.3v-.2h-.1v-.2h-.5v.2l-.2.3-.2.1-.3.1v.3h-.3l-.1.1v.1h.4v.1h-.4v-.1h-.2l-.2.2-.4.2-.2.2-.3.1zm1.8-1v-.1l.2.1zm-177.9 5l.2.2h.3v-.7h.5v.4h-.4.3v.2H35v.5l.3-.1v.3-.5h.2v.6H35v-.3l-.1.1v.1h.1l.1.4h.2v-.2h.3-.2v.1h.2v.1h-.2v.4l.3-.2.2.2v-.3h.1l.1-.3h-.5v-.3h.4v-.1h-.4.4l.1-.2h-.3l.2-.1h.1v-.2h-.3v-.1h.2v-.2h.3v.2h.1v.1h.3v-.3h.3v-.5.2l-.3.1h-.2l.1.2-.3-.4v.3h-.5v-.3h.4v-.4h.3v.1h.4v.1l.1-.1h.1v-.3h-.2l-.1.2h-.2l-.2-.2h-.3l-.3.2h-.2v.2h-.4l-.1.3h-.2v.2h.2v.2l-.1.1zm1 1.3v-.1.2zm88.8-77h.1v.4l.3.3.2-.1h.4V70h-.3v-.4h.1v-.3l-.1-.1.1-.2v-.2h.4v.2h.2v-.9l-.2-.1h-.3v.3h-.2l-.1.2-.2.1v.2h-.3l.1.4h.4v.3h-.5l-.1.3zm-81.3 63.1l.5.6h.9l.3-.5h.1l.2-.1-.1-.2v-.4l-.2-.2v-.2h-.8l-.2.3-.8.7zm175.7 2.9v.2h.2l.4-.1.6-.4.5-.3.2-.3-.3-.3-.1-.2-.2-.1h-.3v-.4l-.2.4-.2.2-.2.2-.1.2-.3.4v.3zm36.8-88.4v.3h.2l.3.1v.6h.1v.1h.1v.2h.3v.1h.4v.1h.4V49h.1v-.3h-.3v-.1h-.1l-.3-.1-.1-.2v-.6h.1l.2-.2v-.1l-.2-.1h-.5v-.2l-.1-.1h-.4v.7l-.2.1zM28.1 246.5v.2l.4.3v.6h.3v-.4l-.2-.2v-.2l-.3-.5v-.6l.3-.1h.4v.2h.2l.2.2h.5l.4-.2.4-.1h.3v-.3h.6v.3h-.4 1.4l.4-.3h.4l.3.4.3-.3-.2-.2h-.5l-.7-.2H31l-.1.4h-.2l-.7.2-.4.1h-.3l-.3-.4h-.2v-.1h-.4l-.1.1-.1.3v.2l-.2.3zm17.5-132.7l.2.3.3-.1.3.2.1-.1v-.3h.4l.3-.3-.1-.2v-.3l.1-.1h.3l.1.1.2-.3v-.2l-.1-.2-.4.1-.3.2h-.5l-.3-.1v.2l-.3.3v.6zm4.3-19.6h.1V94h.5v.3h.2V94l.2.3.1.1v.1h.2v.1l.2.2.2.3v.2h.1l.2.1h.3v.2-.3l-.2-.1V95h.2v-.3h.4v-.1h.3v-.1h.1v-1h-.2v-.3l-.1-.1h-.5L52 93h-.8l-.2.2-.2.1h-.2v.1h-.1v.4h-.4v.2H50l-.2.2zm1-.4v-.3l.1-.1.3-.1h1.1v.2l.4.2v.7h-.4v.1h-.1l-.2.1H52l-.1.1v.4h-.2V95l-.1-.1v-.3h-.2v-.2h-.1v-.2l-.1-.2-.2-.2zm.6 29.7v.3h.3l.2.2h.2v-.3h.7v-.4l.3-.1v-.7l-.2-.5v-.1h-.4l-.3.3-.3.6-.4.4zm129.3-98.9l.2.2.3.4v.1l.1.3h.4l.1-.2h.1l.4.5v-.5h.2v.4h.1l.1-.2v-.2l-.2-.1v-.5l-.3-.4V24h-1.1l-.2.6zM18.3 116l.1.2h.4v-.2h.3v.3h.3v.2h.5l.1-.2v-.3h.2v-.7H20v-.3h-.6v-.2h-.2l-.2.2-.4.2v.5l-.4.3zm19.3-56.6h.1l.2.2v-.2l.2-.1v-.1l.1-.2h.2l.2.3h-.3v.2H38v.2h.3v-.2h.1v-.1h.3v-.2h-.2v-.1h.3v.2h.2-.2V59h-.5v-.3h.4v-.1l.2-.3h.3l.2-.3h.2v-.3h.1V57h-1.1v.6l-.2.3v.3h-.2v.2h-.1v.3H38v.2l-.4.2zm401 176.6v.2h.2l.1.1h.1v.1l.2.1h.4v-.3h.6l.1-.1h.2v-.1h.1v-.1h-.3v-.8h.5v-.4h-.2v-.2h-.1v-.1h-.1v.3h-.2v.1h-.6v.4l-.1.1.2.1v.3h-1.1zM11.1 74h.4v.3h.1l.3.1v.6l.4.6v.1h.4v-.3h-.2l-.1-.3v-.5l-.2-.2-.2-.2v-1.5l-.3-.2h-.3l-.3.4v.4h.3v.1l-.3.3zm173.2 185.4l.1.1h.7v-.3h1l.1-.2-.1-.6h-.5v-.3l-.3-.1h-.3l-.4.3h-.2v1zM35 156.5v.1h.4l.3.2h.2l.1.2h.3v-.3l.2-.2.4-.2v-1l-.4-.1h.5v-.2h-.4v.1h-.5l.3.3h-.2v.2h-.4v.2h-.3v.1l-.1.1h-.1v.3H35v.1zM90.8 36.8l.2.2h1.1l.3.5.2-.5v-.2h.1l-.4-.5v-.1l-.5-.3h-.6l-.4.6zM56.2 152.2h.1l.2.2h.1l.2-.4h.2l.1-.3h.1v.2h.3v.1h.3v.3h-.1v.2l-.3.1v.4l-.2.2h-.1v.1h.3v.6l-.3.1h.4v-.4h.1v-.4l.3-.2h-.3v.2l-.1.1h-.1v-.1l.1-.2h.3v-.2h.2l.3-.3v-.1h.3v.4h.1v-.8h-.3v-.4l-.3-.1h-.4l-.8.2-.3.3h-.3l-.1.1zM24.8 279.5l.4.5 1.8-.7v-.4l-.9-.7zm183.7-90.1v.4h.2v.2h.2l.1-.2h.8l.2-.3v-.7l-.3-.5-.2-.1h-.2l-.1-.2-.3.3v.7h-.4zM77.4 98.8h.3v.2l.1.1.1.3h.1v.2h.2v.1h.5v-.3h.3l.2-.2h.1v-.6l-.3-.2-.1-.3h-.6l-.1.3H78l-.3.2h-.1v.1h-.2zM41 129.5l.4.5h.2l.3-.1v-.1l.1-.1h.1l.2-.2h.2l.2-.3.3-.3-.2-.3h-.5v-.1l-.3.1-.3.4h-.1l-.2-.3-.4-.1v.8zm0 0"/><path d="M412.4 268v.2h.2v.2h.4l.2.1v.1h.2v.1h.1l.1.1v.1h.1v.1h.5v-.3h.1v-.1h.1v-.6h-.3v-.4h-.1v-.2h-.9l-.3.4-.3.1zM172.5 19.6l.1.2h.2l.5.3h.2l.2.1h.3l.2-.4v-.6l-.4-.4h-.5l-.3.2h-.4l-.1.3zM53.4 139.3h.3v.2h.3v-.5l.3-.3v-.3l.2-.2v-.5h.3v-.2h-.2l-.2-.2h-.1l-.3.3-.3.2-.2.1h-.1v1.3zm33.2-93.9v.3l.4.2h.3l.1.1.2.1h.3v-.6l.1-.2h.3v.1h.4v-.6h-.4v-.2h-.1v-.2H88v.5h-.8l-.2.1v.2h-.2zM7 132.6l.2.3v.4h.1l.2.1H8v.4l-.3.1v.3l.3.1h.2l.2-.1h.4l.2-.2v-.8l-.4-.2h-.2v.2h-.6v-.2l-.4-.4h-.1v.2h-.1v-.1l-.2-.2zm137.8 136.9h.2v1.2l-.2.1v.3h.3l.1.3h.3l.1-.3h.2v.1h.2v.4l.1-.4h.1l.1-.2v-.6l-.2-.4v-.1h.2v-.4l-.1-.2-.2.1v-.2l-.3.2.3.2v.2l-.3.1v.1l.3.1v.2l-.2.7h-.3l-.2-.4h-.1v-.4l.2-.5.2-.2h.2l-.3-.1h-.2v.3h-.1v-.4h-.5zM71 44.6v.3l.3.1v.2l.1.3.3.4h.5l.2.1v.1l.2-.1v-.2l-.1-.1v-.4l-.3-.2V45l-.2-.2-.3-.4-.2-.2h-.2L71 44v.3zm114-18.3v.2l.6.4h.2l.2.4.4.3h.3l.2-.3v-.2l-.1-.1h-.5l-.1-.4h-.3v-.2h.2l-.3-.2-.1-.2-.2-.3-.3-.1.3-.3v-.7h-.1l-.1.2v.5l-.3.2v.2l.2.2-.2.1zM.3 125.9l.1.1h.4l.1-.1v-.2h.4v.3h.2l.1.1H2v.2h.3l.2-.3v-.2l.3-.2v-.1h-.5l-.1-.2.1-.1v-.2h.1l.3-.3.1.3v-.3h-.3l-.2-.2-.2.1h-.4.3l.1.3v.3l-.1.2h-.1l-.2-.2-.1.2h-.3v-.2H.9l-.1.2v.1l-.1.1-.5.2zm88.3-79l.4.1v.2h.1l.3.5v.1h.6l.2-.1v-.2h.1l.1-.2v-.7l-.3-.2h-.2l-.2-.2-.2.2v.6h-.3v-.2h-.6zM66.4 75.8v.3h.3v.2h.2V76l.1-.4h.2v-.5h.1V75h.1v-.3l.2-.2h.1V74h-.4l-.1-.1v-.4h-.5v.5h.3v.4h-.3v.6h-.2v.2l-.1.1v.5h-.1zm-55.2 28.8v.2h.1l.1.2h.1l.3.3h.2l.2.1h.2v.1h.3v.1h.3l.2-.4-.2-.2-.2-.1v-.2h-.3l-.1-.2v-.2H12v-.1h-.3v-.1h-.2l-.2.3zm30.4-91v.2l.7.8.1-.3v-.2l.2-.3v-1.5l-.3-.1V12h-.4v.3l.1.1.1.2-.4.4v.2zm.2.1v-.1h.2v.2zm-36 149.9h.5v.8h-.2v.6l.4.2v.2-.1h.2l.1-.2.2-.4v-.1h-.1l-.2-.3v-.7l.1-.1h.4l.1.3.2-.2v-.2l-.2-.3-.1-.1h-.8l-.2.3-.2.1h-.1zm259-159.7v.3l.2.2.2-.1.8.7.3-.2h.2v-.3l-.6-.6v-.5l-.2-.2-.4.2h-.3v.2zM24.6 279.2l.2.4 1.4-1.4-.4-.5-1 .3h-.1zM171 26l.2.2.6.4h.4l.3-.1V26l-.5-.4v-.3l-.3-.1h-.4l-.3.3zm0 0"/><path d="M6.5 135l.2.2h.9l.2-.2H8l.1.2h.3v-.6l-.4-.2v.1h-.2v.1l-.3-.1v-.1l-.1-.4-.1-.1h-.1l-.4.4-.3.3v.1l-.1.1zm148.1 103.7l.4.3-.1.2v.9-.4l.5-.3v-.9l.2-.3v-.8l-.2-.2h-.3l-.3.6v.2h-.2v.3l.1.1zM18.5 91.3v.1l.3.2h.5l.3-.2.4-.1V90h-.3v.4h-.2l-.3.1h-.3v.4l-.3.1-.2-.1zm239.2-41.8l.2.2.1.1h.5v-.3h.3v-.1h.7l.1.3h.1l.3.1v-.4h-.2v-.2h-.2l-.1-.1-.1-.1h-.2v-.4h-.1v.3h-.1v-.5h-.7v.3h-.1v.5l-.2.1h-.2v.1h-.1zM26.3 83.2v.3l.2.1v.4h.3v.7h.1l.1.1v.2h1v-.9l.3-.1-.3-.2h-.4v.4h-.2l-.1-.3h-.6l-.1-.3v-.3l-.2-.1zM3.4 150.8l.8.7.3.2h.2l.2-.2.1.2h.4l-.2-.3v-.5h-.8v-.5l-.1-.2H4l-.1.2h-.2l-.3.3zm8.4-50.5v.1h.5l.1.4h.6v-.5l-.1-.3v-.1l-.2-.1v-1.2h-.4v.2l-.2.2v.3l-.1.2v.2l-.1.2v.3zm205 58.5v.3l.5.3.1.3.3.3.4.3h.2v-1l-.4-.3h-.2l-.1-.3v-.2h-.6zM5.4 184v.3h.1v.4h.3v.1h.1v.2h.6v.3l.1.4.3.1v-.3l-.5-.1v-1l-.1-.4v-.6h-.6l-.1.2v.2zm13.2-74.4v.1l.2.3h.1l.1-.2.2-.2v-.1l.4-.2.1-.1h.1l.3-.4h.2l-.3.1-.3.1h-.6v-.2l.3-.3.1-.1h.1v-.2l.4-.1v-.3h.3l.2-.1-.2-.2-.3-.5h-.3l.3.2v.2h-.3v-.3h-.1v.7l-.2.4h-.1v.2H19v.6l-.2.1-.1.1.1.2h-.2zm17.4-1.4v.2h.6v-.4h.3l.1-.2.4-.2v-.1l-.2-.5-.2-.1h-.5l-.2.1-.1.3v.1l-.2.2zM256 7.4l.2.1.3.5h.5l.6.4h.1l.3-.4v-.2l-.3-.4v-.2l-.4-.2h-.1l-.2.4h-.2l-.5-.5h-.1l-.2.3zm-32.4 153.4h.2l.2.2h.1v-.8l.1-.1h.1l.1-.2.2-.3.1-.1v-.9h.2l.1-.3.1-.3h-.4v.4h-.3v.4l-.1.2-.3.4-.1.2-.2.7zM13.8 97.2h.2l.1-.2h.1v.5h-.1v.5h.3l.2-.3v-.2l.2-.2v.5l.2.2v.2h.3V98l-.3-.1.1-.3-.1-.2v-.2l.2-.2H15l-.2.3h-.1V97l.1-.5h.2v-.4l-.2.1h-.9v.8zm10 179.8v.2l.5.2 1.6-.1v-.6h-.3l-.1-.2-.5-.1zM261 19.1l.3.9v.4l.4-.1v-.1l.3-.4v-.4l-.1-.4v-.3l.1-.3v-.2h-.7l-.1.2v.3zM218.5 25l.2.2.1.2h.3l.3.4h.2l.1-.1.3-.8v-.1h-.8l-.1-.3.1-.2-.2-.3-.4.2v.4zM203.8 9.7l.3.5v.2l.4.3.2-.1.2.3.2-.1.1-.2h.1l.1-.2h-.7v-.9l-.3-.1h-.2V9h.3l.1-.2-.1-.2h-.5v.7l-.2.2zm-18-2.7v.4l.2.1h.3l.2-.2v-.2l.3-.1.2-.2v-.7h.2l.2-.5.2-.1v-.2l-.2-.3h-.1l-.1.6h-.3l-.1.1-.2.3-.3.7-.2.2h-.2zM69.7 81v.2l.3.2h.4l.1.1h.4v-.2h.5v.2h.2v-.4l.2-.1v-.2h.2l.2-.1v-.1h-.4l-.2-.1h-.8v.4h-.5v.1h.3v.3h-.4V81zM238 24.5h.3v.3l.8.5.6-.3-.3-.6V24h-.1l-.3-.1-.3.1h-.6v.4h-.1zM15 77.9l.5-.2.1-.1h.9l.1.1h.2l.2-.3v-.3h-.4v.2h-.1V77l.2-.3v-.2l-.2-.3h-.2l-.6.4v.2l.1.2h.2v.3l-.3.3H15zM247.5 15h.8v-.2h.4l.1.2h.1l.4-.3v-.2l-.6-.7-.1-.1h-.2l-.2.2-.2.3v.5h-.6l.2.3zM-.8 153.4h.2l.2.3v.3l.4.2h.1l.3-.2.3-.5.4-.5-.1-.1H.6l-.3.1h-.4l-.2.5-.3-.4v-.1h-.2zm42-61.7l.2.2v.4l.3.1h.8V92h.2v-.3l-.2-.1v-.1l-.1-.2H42v-.1h-.7v.6zm17.2 21l.1.4v.1h1l.2-.4h.3v-.5l-.4-.3h-.8zm-38.7 40.9l.1.2v.4l.2.3.2-.2v-.2h.1l.1-.1h.3-.1v-.2l.1-.3h.4l.1-.3v-.2H21v-.1h-.7l-.2.1-.3.6zM243.1.1l.2.2h.3v.3h-.1V1h.3l.2-.2V.5h.4l.1-.2h.1l.1-.2-.1-.1h-.1l-.2-.5h-.8l-.3.3V0zM33.4 78l.2-.2h.5v.2h1.1l.1-.3v-.1h-.2v-.1l-.1-.3-.3-.3H34v-.1.2h.1v.2l-.1.1v.1l-.2.3h-.4v.2zM3.9 125.6h.4v.2l.3.2h.2v-.2h.8v-.2H6l.1-.3v-.1l-.1-.1-.1-.3h-.3l-.2.1h-.3l-.1.1v.3h-.4v.3h-.3v-.2h-.5zM271.5 23.4l.2.1h.1l.5.2h.5l.2.1.2.2h.6l-.1-.3v-.1l-.5-.3-.6-.3h-.6zM199 8.5h.3V9l.1.2.2-.2h.7l.3.3v.1h.1v-.3l.1.3v-.2l.4-.2v-.1h-.2l-.2.1v-.2l-.2-.1-.3-.3h-.2l-.1-.1h-.3l-.1-.3v.3h-.6zM63.7 77.2l.1.2.2.1h.4v-.8h.2V76l-.3-.1v-.3H64v.4h-.1v.2h-.1v.6l-.1.2zm171.7-56.9v.5l.4.2-.3.3v.2l.2.1.4.1v-.2l.6-.5v-.6l-.3-.2-.3.2v.2h-.2l-.2.2.3-.7h-.5zM228-.7v.8l.5.3.1.1V.2l.4-.2.3-.2-.3-.4-.2-.5h-.3l-.2.4zm49.4 195.9h.5l.1-.2.2-.5v-.3l.4-.2.1-.3.3-.3v-.2h-.8l-.2.4v.2l-.2.2v.4l-.2.2-.2.2zM55.8 140v.3h.2v.2l.1.1h.2v.1h-.2v.2h.3v.1h.3v-.5l-.4-.2v-.3l.2-.3h.5v-.4h-.2l-.4-.3H56v.6h-.2v.2zm-29.3-28.6l.1.1v1l.2.2.2.3.3.2h.1v.3h.2l-.2-.5v-.1l-.3-.2v-.2l-.4-.5v-.7l.3-.3h.2l.1.2h.2v.3l.4.2v.5l.1.2-.1.3v.7h.1v-.7l.3-.1v-.4H28v-.4l-.1-.1-.1-.2v-.2l-.1-.3h-.3v-.2l-.4.2h-.3v.2h-.1l-.1.1zM60 110h.3l.1.2h.8l.4-.2.3-.3v-.1l-.2-.2h-1.2l-.2.2-.3.2zm107 24.5h.2v.2h.1v.1h.3v.1h.1v.1h.3v-.5h.5v.4h.3v-.3h.1v-.1l-.4-.1v-.1h-.1v-.6h-.1v-.1h-.3v.3h-.3v.1h-.3l-.1.2h-.1v.2h-.2zm0-.1h.2zM44.2 151h.4v.1h.2l.2.3v-.1l.3.5h.5l.4-.1v-.3l-.2-.4v-.3l-.4-.1v-.2l-.2.1v.4l-.4.2-.3-.2h-.5zm-.9-9.3v.3l.2.2v.1h.7l.2.3h.1v-.3l.3-.3v-.3l-.3-.2-.2-.2v.4l-.4-.2h-.2l.2-.4h-.3l-.2.3v.3zm28.6-10.4l.1.2v.2h.2l.2.1v.3h.6v-.4l.1-.3.2-.1v-.3l-.2-.2H73l-.1-.2-.1.4h-.6v.2H72zm128.7 8.7v.2l.1.2v.2l.2.2.1.2v.1l.3.2.2.1h.1v-.3l.3.3h.1v-.1l-.1-.2-.2-.2v-.2l-.2-.2-.2-.1v-.4l-.1-.2h-.2v-.1h-.2l-.1.3zm-7.1 104h.2l-.1.4v.2h.3l.2-.3h-.1l.2-.1.1-.3h-.1v-.3h.2l.3-.3v-.3l-.2-.2h-.4l-.4.6-.2.4zm-180-115.4l.1.2v.1l.3.1v.1l.1.2.1-.1h.1l.2-.1.3-.2v-.1l.3-.1v-.4l-.5-.3h-.2v.1H14l-.2.2zM.7 63.3v.1l.3.3v.1h.4v.5l-.4.2v.3-.3h.6v-.3H2v-.1l-.2-.2-.2-.4v-.3l-.1-.2h-.3v-.3H1l-.3.4zm3.3 54h.1l.2.1.1.1h.2v.2h.2v.1H5v-.1h.2l.1-.1h.2l.2-.2v-.4h-.3v.2H5v-.1h-.3v-.1h-.2l-.2-.3.1-.4v-.1h-.3l-.1.7zm59.1-27.4h.3v-.2l.1-.1v-.1h.2v.3h.2v.2h.1l.1.2v-.4h.2v-.2l.1.4v-.3h.1v.5h.2v.2h-.6.3v.3h-.3v.1H64v.2h.3v-.3h.2v-.3h.5v-.1h-.3V90h-.2v-.2h.4v-.5l.1-.1V89v.1h-.4V89h-.2v-.1h.3v-.2h-.3v-.2h-.3v.3h.4l-.2.2h.2v.2h.3l.1.1h-.5.3v.2h.1-.5v-.2h-.1v-.1h-.1v.2l-.1.1v.4l-.1-.2v-.2h.2v-.2h-.4v-.1h-.5v.2l-.1.1v.3zm1.3-.1l.2-.1.1.1zm172.8-68.7v.1l.6.2.2.2.2-.2v-.2l.3-.2.2-.1v-.5l-.2-.1h-.2l-.3.4h-.5l-.3.2zM17.6 153.3l.3.3h.5l.2-.3v-.3h.2l.2-.1v-.4h-.3v-.2H18l-.2.2v.3l-.2.3zm50.3.6v.1h.1l.1.2h.6l.1-.2.2-.1v-.2h.3v-.3h.2v-.3l-.3-.1H69v.1h-.5l-.1.3-.3.4H68zm-5.4-22.7h.2v.4l.1.1h.4v.2h-.3v.1h.2v.2h.3v-.6h.2v-.1h.1v-.5h-.3v-.4.2h-.2l-.2-.3v-.1l-.3-.2h-.2.1l.2.4v.1l-.2.2v.1zm.2 0h.3v.1h-.3zm-18.9-23.8l.4.4.1.2.3-.1v-.4l-.2-.1v-.2l.2-.2.4-.4v-.6l-.5-.1.1.5-.5.2-.1.1v.4zM167 130.9l.1.1v.2h.3v.1h.4v.1h.2v-.9h.2v-.4h.1v-.1h-.8v.3h-.1v.2h-.1v.1h-.1v-.3h-.1v.3h-.1zM5.8 82.8v.2h.4v.6h.4l.2.2H7v-.2l.1-.2h.2v.3h.2v-.5h-.4V83h-.3v-.2h-.1v-.4H6l-.1.2v.1zm149.3 151.3v.4l.4.2v.3h.3l.1-.7h.1l.2-.1v-.5l-.2-.2-.1-.1v.1h-.7l-.1.3zM1 235h.2v.4l.1.1.2.4.2.1h.2l.3.2h.1l.3.2v.4l.2.4v.4H3v.4h.2v.1l.2.1v-.4h-.3v-.6L3 237l-.3-.4h-.2v-.4l-.3-.4v-.1l-.2-.2-.2-.1-.5-.3-.3-.1v-.2zM38.4 38.2l.3.4v.3l.5.2h.2v-.3h.1v-.6l.1-.2v-.2H39l-.2.1h-.1l-.3.1zm2.3 37.6v.2l.3.1.1.1h.1v.1h.8v-.2l.2-.1h.2v-.3h-.2v-.3l-.2-.1v-.1h-.2v.2l-.2.3-.1.1h-.2v-.3h-.6v.2h-.1zM3.6 97.4l.1.1H4v.3h.1l.1.2h.3l.2-.6v-.3h.2v-.3h-.4v-.3H4v.3h-.3v.5zm63.3-49.7v.2l.2.1.1.2h.2l.2-.2h.2v-.2h.2v-.1l.1.1h.1v-.3l-.2-.1-.2-.2v-.8l-.2.1v.5h-.1v.4h-.3v.1h-.4zM35.1 131h.2v.3l.3.3v.1h.2v.2h.4v-.3h.1v-.2h.2v-.7l-.1-.1H36v.2h-.3v.2h-.3v-.3h-.1v.3zm96.1 91.7l.1.1.3.2v-.5h.5v.1h-.3v.3h.2l.2.1v.1h.1v-.3l.3-.2h.1-.3v-.3h-.1v-.5l-.3-.1-.2-.2-.3.1v.4l-.3.2zm-109.6-64h.1v.3h.3v.3h.2v-.3h.1v.5l.2-.2v-.3h.3v.3h.1v-.3h.3-.3v-.3h-.4v-.3h.2v-.2H22v-.2h-.2v.4l-.2.2zM23.5 98l.2.1h.3V98h.3l.2-.4-.2-.2V97h.2v-.3h-.2l-.1-.3h-.3v.4l-.1.1v.2h-.3v.5l.1.4zm-1.1 55v.3h.2v.3h.1v.1h.1v.2h.2v-.2l.2-.3v-.1H23v-.2.2h.1v.2-.4h.2v.2h.1v.6h.1v.1h-.3.5v-.5l.1-.1.2.1v-.3h.2v-.2h-.6l-.1.2h-.2v-.2zm.9.6h.2zm9.9-8.6v.2h.4l.3.2h.1l.1-.3h.1l.2-.1h.1l.2-.3v-.2h-.2v-.3l-.3.3-.1-.3h-.3v-.2h-.1v.4l-.1.1v.1l-.3.1v.3zm-28.4 4.5v.1l.2.1v.5h.2l.3.2h.1v-.2H6v-.8h-.4v-.2h-.9v.3zm17.4-11.6h.3v-.3h.3v.1h.4l.1-.2.2-.3-.1-.2h-.3v-.4H23v-.2h-.5v.9h-.2l-.2.1v.5zm.2-.4v-.2h.2v.3zM2 99.8v.5l.3.3v.7h.4l-.2-.3v-.4h.1l.2.1v.1l.2.2h.2v.4h.3v-.4l-.1-.4h-.1v-.3h-.8v.3h-.2v-.9l-.2-.1H2zm124-34l.3.1h.7v-.5l-.1-.1v-.2l.1-.1v-.5h-.5l-.2.5v.4h-.2zM3.4 147.3h.2v-.1h.2v-.3h.1l.1.1v.7h.3l.1-.3v-.1h.1v-.3h.1v-.5h.1l.1.1h.5l.3.1v.3h.8l.1-.2h.1v-.1h.1v-.2l.2-.1h-.4v.4h-.2v.2h-.6l-.2-.2v-.1l-.2-.2h-.7v-.2h-.3.2H4v.2h-.2v.2h-.1v.1h-.3v.5h-.1zM370.5 0h145l2.9-14 1.2-2.3.9-5.4 1.9-5.5L524-34l3.1-5.4 1.8-1.8 1.7.2 1-1-.6-1.5 1-3.5-2.4-4.2v-2l.9-2-2.3.8-.7-.3-1.5-1.5-.7-1.3-3.3-.8-1.8-.7-3-2-.3-1.1 1.2-2.1 3.3-1.4 1.4-.2 3.1.5.9.8 1-1.1 4.6-2 1.1-1.2 1.6-.2.3-1-.3-.7-1.2-.6-.1-.8.2-.6 1.8-1-.2-5.5-1-.8h-3l-.9-2.1v.5l-2.3.3-1.5 1.1-1.5 2.5-8.3.9-1.5 1.5-5.1 1.5-.8 1.2-1.3.8-.2 1-2.3.2-.6 3-.8.5-4.2-.7-2-.9.4.9-1.1.6-11.4-4-4.7-2.8-9.2-7.3-3-3.4-2.3-3.4-3.3-5.7-1.1-3.7-.7-.5-4.3-14.3-3.6-6.7-10.5-16.5-10.2-17.5-4.3-10.4-1.6-5 .1-1.2.9-.4.5-1.1 2.8-.5.7-.6-.4-.2.5-.3h-.7v-.3l1-.4-.5-.2 1.7-.4-3.1.5-2.2 2 .1-.9.7-.5-.6-1.1.5-.2 1 .8.7-1.3-1.3-.3-.3.7h-.4l-1.1-1.2-.5-2.4-1 .4.3 1.3.5.4.3-.5.1.9 1.3 1-.4.8.7.6-.6.5-.7 2.2-.3.3-1-2.5-2.6-10.8-.8-5.9.7-1.4 3.1-1.4 1.7-1.6v-1.2l1-.8.2.2v-.3l.9-1.6.7-2.7-.6-.7-.3 1.3-.7.4-1-2.2.4-.4.8 1.1.3-1.5-.4-.7 1.6-2.5-.7-.5.8-1-.5-.4 2.2-2.9-1 .6-.5-.2 1-3.4 1.1-1.4.9.5 1.5-.2 1.5 1.1-1.2-1.3-1.4-.2-.4-1.3 1-.4h-2l-.6-1.2-.2-1.8 1-1.4-.5-1.3.6-.5.1-.8-1.8-7.5.8-4.2-.8-7.9.1-1.8-.3-.4-1.2-.2-1.2.5-2.9 2.3-3.9 1.5-.8.9.2 1.4-1.4 1.5-.2 1.7 1.5 3.4 2.8 1.8.2-.6.5.2v1.2l-.6 1.2-2 1.5-1.3.5-1-.1-.9-.7-2.7.4-1.5-1-2.4-4-.6.1-.4-.7-1.2-.4-.4-.7-.4.4-1.1-.4-.8.7-1.8.3-2.1-.8h-1.1l-2.2-1.6-1.8-4.8-1.5-1.7-5.2-3.6-.4.1-1.3-1.2-1.6-2.3-.2-1.2 1.7-3v-.6l-.7.3v-.3l2.4-1-1.7-1.5-.4-1.3-2.1-1-2.4.1-3.8-.3-4.7-1.5-2.5-1.8-.6.3-2-1.6-.6-1.2-.5-.4-.2-2.2-1-.1zm62.8-214.2l-.8-.4.5-1 1-.4zm102 135.9l-.6 1.4L530-75l-2.3 1.3-3.2.3-1-.3.5-1 2.4-1.9-.6-.7 1-2.1 1.7-1.7 2.3-.2 1 1.5 3.4.5zM381.4-225.5l-.6-.9h-1.3l-.7-.5.2-1.1 1-.8h2.2l.5.8.3 2.8-.9.8zm9-30.8h-.5l-.2-.4.7.1zM359 0l1.9 3 4.4 5 3.3 3.1.8 1.8 1.2.9V0zm0 0"/><path d="M370.5 13.8l4.5 4.5 7.7 6 7.7 9.1.8 3.3-.5.3.3 1-2.5-4.5-3.5-3.1-.6-1.2-1.1-.4-1.1-1.5-.2-1-.3-.3.3 1.4 1 1.6 1.3.6.3.8 3.4 3.1 1.3 1.8.9 1.8.1 2.2 3 2.3 8.5 4.6 3.2 4.6v.5l-.8-1.3-.3.5-.5-.3-1.6-1.2-.6-1.2-1.2-.3-.9-1.3-3.6-1.9h-1.7l-.4 1.2-1 1.3.5 1.1 2.8 1.4 2.2 4.4 2.1 1.7.1.6 1-.2 1 .7 1.3-1.4 1.3-.1 2.8.6 3.9 1.6 7.3 4 7.1 4.8 8.6 4.3 2 1.7 3 3.2 1.3 3.1-.6 2.1 4.3 5.9.2 2 1.8 4.1-2 2.1-1.5-.9v.5l-1.1-.6-1.6.5-.8-.6.6.7 1.8-.1 1.8 1.8.2.9-1.2 1.9h-1.3l.3 1.4-.7.3-.3.7-1 .7-1.2-.1-.8.6 1.1 3.4-1 4.4-.7 1.3.4 2.2-.2 1.7 2 2.8 4.2-.2 2.3 1.8 1.1 1.4.9 2.8 1.1 1.8.9 4.2 1.7 1 2.1-1.5 1.3-5.1 7.4-5.2.4-1.5 1.4-2.1 1.7-.1 2.7-2.3 1.6-.1.9-2.5 2.3-2 3.5-.5.6-.8-2.6-1.1-.6-2 .5-2 3.3-5.5 1.2-.7 2.9-.4.6-1.5.4-.1 1.6 2.8.4-.3-.4-1.6-1-1-2.1-.1-4.3-1.8-.2-3.2.6-6.6 7-14.3 1.6-3.9 1.4-1.6.8-2.5L500.9 37l4.5-9 6.5-16 3-9.3.6-2.7h-145zm-279-215.2l4.7 4 15.5 15.4 2.7 2.2-.8.4-2.2-1.8 1.4 3.6 1.5 7 2.1 4.9.8-.2 3.8.3 2.7-.7 2 .3 2.6-1 3.5.3 3.3 2.7 2.6 4-1.5.2-.5-1.7-.5.4-1.2-.3-.6.5.2.6 5.4 3.7 3.8 4.2 20.6 11.5 26.6 10 14.4 4.7 9.2 4.2 5.6 1.5.5.5-.1.5-2.8-.5-.8.2-2-.7h-2.3l-4.1-2.5-3.3.1-.3-1.4-.5-.6.5 1.9 1 .7-1 3.3-.9.6-.4-1.5-1.7-1.9-.3.2.1.7-1.7 1.1.5 1.4h-.8l-.6-1.7 1.3-2.6-.4-.3-.4 1.3-.2-.5h-.5l.5-1.1-.2-1.2.6-.6 1.1.6.4-.7-.2-1.1-.3.3v-.5l-.4.5-1.4-.4-.6 1-.3-.4v.4l-.3.2.1.7-1.9-.5-.5-.8.7 1.4-.2.1-1.4-.9-1-.1.1.3h-.8l-.5-1-.3.2-.6-.8-.4.2-.4-.4-.3.4h-1.6l1.2 1.4-1.6-.2-.5.6-2-1-.1-1.9v.5l-.4-1-.1.5v-1.5h-.4l.1.6-1-2h-.5l.7.8-.4.4.4.2-1.3-.7-.6-2.3.4-.7-.3-.3-.2 1.5-.6.1.6.2.3 1-.6-.5.5.7-1.7-2 .6 1.7-1.1-1.4-.6-.1.3-1-.2.3-.5-.3.2.7-.6-.6-.7.7.6 1 1.6.6-.1.9 1.2-.1 2.8 1.4 1.3 3 2 1 1.8-.2 1.6.3 1 2.4-.8.7 1.1.6v-.6l1 .5 1.4 1.3-.7 2 .5 1.2-.5.4.4 1.4 2.6 1.4.2.2-.2.6 1.7-1.3 3 4.2v.8l1.4.4 1.9-.7.6.5.7-1h-.3v-.5l.8.3-.5-.7 1-.2.6.6 1.1-.2.7-.5.4-.7h1l1.9 1.2 1.2 2.1 1 .5 2.8.8 2.9 1.1.6.4-2.7-.9-1.3.1v.5l.7.5 4 1.6h.7v-.4l1.9.5 1 1.3 2.7-.7 3 .5.3.5-.4-.3v.7l-.9-.6-.3 1.4 2.3.8.2-.2-1-.7.6-1.1 1 2.1h1.3l.4 1.1 2.8 1.9 1.1 1.2 1.4.1.5 2.1 1.2.1.4 1.6 2 1.7 2.1.7.1-.8L247-91l.8-.2.9.4.3-1 1.7 1.2 1.3 1.9-.4 1.8-1 1.3v1.6l3.1 4.5 1.4.5-.1 1 .5 1 2.3 1.5h1.2l1.5 1 2.1-.5 1.4.3 2 2 7.4 3.8 4.6 3.4 10 5 8.9 3.2 15.7 3.7 3.7 2 9 2.9 7.3 3.1 5.8 1.7.2.4-.6.3-3.4.5-2.1.9-1.8-1h-2l-1 1-1.3 3 1.3 4.8-.4 5.3 2.2 2.1 3.2.2 1.2.6.5 2 2 2.8.7 1.6.4 4 .9 3 2.5 2 3.1 4.3 2.4 1.6 1.6.5h5.6l1.7.5 3.3 2.7.5.8h11.5v-266.5h-.9l-5.3.9-1.6 1-1.4-.4-2.4 1-3-2-2.7-3.4-3.7-1.2-1.3-1.5-3-1.6.2-.7-.8-.2.3-.3v-1.3l-1-1.5-2.6-1.3h-2l-.7.3-.5-.3H322l.3.7.7.2-.2 1.9 1 1.9-.2.6-3.9 2.7-6 2.8-2.9 1.8-.7-.1-.2-.5 1.1-1.2 1-2.8-.7-.7h-.9l-.5.7v1.2l-1.4 2.6v1.4l-.8 1.2-2 .1 2.8.2.4 2.3-.7 2.4.4 1.4 1.4 3.7 2.6 1.8.9 1.3-.2.5h.7v2l1.3 2.2-.6 1.5.3 1.2-1.1 1h.7l.9-.7 1 2.1-1 .6-2.2 5.2-.3 2.2-.8 1.4.4 1.5 2.4 3.8v.7l-.2.6-.8.4h-1l-.5-.5-6.3-17.1-1.6-6-1-8.3-1-22H91.5zM353.3-28.7l1.4 1.7-3.7-3.8-2.3-.8-2.7-4.6-3.7-2.8-1.1-2.2-.8-.2-1.4-2v-.6l1.1-.4 9.1.7 4.4 1.9 4.3 3.6 2.9 4.4.7 2.4-.3 2.4-1.2 2-1.3-.6-1.3-1.5-1.8-.7-2.6.4zm-17.2-13.8l1.5-.4-.9.7h-1.4zm-127.8-70.4l-.5-.3-.3-.8.8.1.9.9zm9.7.3h-1.3v-2.3l.7.3 1 2.3zm-2-5.1l.8 1.1 2.3.7.9 2.2v1.2l-.5.2-1-.5-.8-1.7-1.8-2-.4-.9zm9.9 4l-1.4-1.1-.8.7-.7-.4 1.2-2.6-.2 1.1.5.9 3.1 1.9zm-9.5-.5l-.5.7-.2-.5-1.7-.7-.3.3-1.4-1-.5-.9.4-1.7 1.8-.2 1.1.4zm107-115.6l-.1 3.4-.3.5-1.7-1.3-.4-.8.1-.6zm15.8-22l2.3-1.6 2.7-1.6 9.6-2.7 1.4.4-.2 4.3 2 4.9.9 4.8.9 1.4-.6.9v4.1l-.5 1.9-2.2 2.3-.9 1.8-1.5 1.2-.5 1.4.1 1 .7.7-1.4-.4-.5 1.1 1 .2-.2.8-.6-.7-.5-.1-.2 2.3h-.2l.4 1.9h.3l.1.8 1.2.5v.4l-3.6 3.5-3.1 1-1.8-.2-1.3.3-4.5-1.8-4-.8-2.5-1.6-1.1-.4-1.2-1.2-2.4-.9-3.4-4.4.2-2.6 2.1-4 1.8-2.3 1.4-.6 1.9-2 1.6-5.2 2.7-4.3zm-99.5 141.4l-1.1-2.1-2-.8-.9-1.1.3 1.5-2.6-1.7v1.2l-1.4-.2 1.4.8-1.4-.2-3-1 .1.5-1-.8-2-.2-1.3-.7-.5-.9.1-1.3-1 .8-.5 1-1.3-.4.4.6-.4.2v.6l.6.2-.6.1-1.4-1.3-1-2.2h-.3l-1.4.6-.8-.4 3.1-1.4.6-1.1 1-.3 8.2 1 3 1.2 2.9 2 5.5 1.9 4.4 3 3.1 3.3 3.5 5.1 4.7 4.5 4.3 2.7 2 2 3.5 6.9 8.1 11 2.1 4.2.4 2.4h-.9l-.2-1.6-.8-1.1-1-.4-.4.7h.4l-.2.2-.5-.2-.1-1-1.2-1.2-.7-2.7-1.5-3-5-5.5-3.2-6-1.8-1.2-2-2.6-3-1-4.2-2.7-3.1-4-.9-.4-.3-.8-2-1.3zm-35.6-8.2l.3-.2.4 1.8-.8-.5-.5.4v-1zm6.2.6l-.3 1.2-2.4-1.2.6-.4zm-3.3 2.2l-.5-.1-.7-2-.6-.2.2-1.6-.8-.1 2.8-2.7 2.6 1.7-1.2 1.3-.2-.8-.7.1-.9 1-.4 1.4.5 1.5zm2.8-4.6l1.2.2 1 .6-1.7 1.2zm-16.4-.1l-1.7-1.5-.5-.9 2.2-.8 1.6.7-.5.8.2 1.1zm-47.6-30.7l-1.5-1.1-.1-.3 1.7 1.6zm-2.2-1.7l-.9-.7-1.5-1.8 1.3 1.2zm.1-2.1l-.7-.2-2.8-4.5-1.3-1.1h.6l1.5 2zm-7.5-9l-2.1-2-2.1-1-2.5-1h-2v-.2l2.9-.3 1.3.3 6.5 5.6.6 1zm-16.7-11.2l-2.5-1.4.3-.4h.4zm219.1-35.4l.2 1 .7.4v1.3l-.8.3v.6l.7 2.9-1 2.4.5.4-1.1 1.1-.4 5-2.8-.2-2.2-.7-1.4-1v-.9l-1.6-1.2-3.2-1.7v1.4l1.5 1.1.4 1 .9.4v.4l-5.3-4-1.7-2-2.5-3.9-5.5-12.9-.2-2.6.3-.3.6 3 1.3 2.9.6-.2v-1.1l-.9-2.9.3-.1v1l1 1.8.7-2.1-.3-1.1 1-1.9.6-.3 2 3-2.1.7h.5l-.2.2 2.8-.6.1.8h-1l-.1.6 1.8 1.7 12.3 3 .2.7h-.8v.4l4.2 1.3 1.1.9zm0 0"/></g></g><g fill="none" clip-path="url(#C)" mask="url(#B)" class="E"><g stroke-width=".8"><use xlink:href="#E" class="B"/><use xlink:href="#E" class="C"/><use xlink:href="#F" class="B"/><use xlink:href="#F" class="C"/><use xlink:href="#G" class="B"/><use xlink:href="#G" class="C"/><use xlink:href="#H" class="B"/><use xlink:href="#H" class="C"/><use xlink:href="#I" class="B"/><use xlink:href="#I" class="C"/><use xlink:href="#J" class="B"/><use xlink:href="#J" class="C"/><use xlink:href="#K" class="B"/><use xlink:href="#K" class="C"/><use xlink:href="#L" class="B"/><use xlink:href="#L" class="C"/><use xlink:href="#M" class="B"/><use xlink:href="#M" class="C"/><use xlink:href="#N" class="B"/><use xlink:href="#N" class="C"/><use xlink:href="#O" class="B"/><use xlink:href="#O" class="C"/><use xlink:href="#P" class="B"/><use xlink:href="#P" class="C"/><use xlink:href="#Q" class="B"/><use xlink:href="#Q" class="C"/><use xlink:href="#R" class="B"/><use xlink:href="#R" class="C"/><use xlink:href="#S" class="B"/><use xlink:href="#S" class="C"/><use xlink:href="#T" class="B"/><use xlink:href="#T" class="C"/><use xlink:href="#U" class="B"/><use xlink:href="#U" class="C"/><use xlink:href="#V" class="B"/><use xlink:href="#V" class="C"/><use xlink:href="#W" class="B"/><use xlink:href="#W" class="C"/><use xlink:href="#X" class="B"/><use xlink:href="#X" class="C"/><use xlink:href="#Y" class="B"/><use xlink:href="#Y" class="C"/><use xlink:href="#Z" class="B"/><use xlink:href="#Z" class="C"/><use xlink:href="#a" class="B"/><use xlink:href="#a" class="C"/><use xlink:href="#b" class="B"/><use xlink:href="#b" class="C"/><use xlink:href="#c" class="B"/><use xlink:href="#c" class="C"/><use xlink:href="#d" class="B"/><use xlink:href="#d" class="C"/></g><g stroke-width="1.2"><use xlink:href="#e" class="B"/><use xlink:href="#e" class="C"/><use xlink:href="#f" class="B"/><use xlink:href="#f" class="C"/><use xlink:href="#g" class="B"/><use xlink:href="#g" class="C"/><use xlink:href="#h" class="B"/><use xlink:href="#h" class="C"/><use xlink:href="#i" class="B"/><use xlink:href="#i" class="C"/><use xlink:href="#j" class="B"/><use xlink:href="#j" class="C"/><use xlink:href="#k" class="B"/><use xlink:href="#k" class="C"/><use xlink:href="#l" class="B"/><use xlink:href="#l" class="C"/><use xlink:href="#m" class="B"/><use xlink:href="#m" class="C"/><use xlink:href="#n" class="B"/><use xlink:href="#n" class="C"/><use xlink:href="#o" class="B"/><use xlink:href="#o" class="C"/><use xlink:href="#p" class="B"/><use xlink:href="#p" class="C"/><use xlink:href="#q" class="B"/><use xlink:href="#q" class="C"/><use xlink:href="#r" class="B"/><use xlink:href="#r" class="C"/></g></g><defs ><path id="E" d="M158.7-19v.2h.3l.2.2.3.1.3.3.1.2.1.3.2.3h.1l.2.2h.5l.4-.5.6-.1.3-.2.2-.2.3-.3.2-.2.3-.3.5-.4.2-.2.4-.2.1-.1.2-.3v-1.2l.1-.1.2-.3h.1l.3-.2h.9l.2.3.2.1.3.3v.5l.2.5v1.5l-.2.3v.6l.2.3.3.5.3.3.2.3.1.2v.5l.3.3v.3l.3.2.1.2.2.2v.5l-.3.7v.3l-.2.3v2.2l-.2.2h-.1l-.2.3h-.4l-.3.1h-1.4l-.1-.3v-.4l-.4-.3h-.8l-.2.3v.7l-.1.1-.1.1v.6l-.2.2-.4.2-.5.5-.1.2-.3.3-.1.3-.1.3v.8l.2.3.3.7.4.4.3.3h.5l.2-.1.2-.3.4-.2v-.2h.7l.1.3.2.2v.6l-.5.2-.1.2-.2.3-.1.2-.2.4v.1l-.2.3v2l.3.7.2.8.2.5.2.3v.6l.3.5v.2l.2.3.3.3h.7l.2-.2V3h.6l.3.3.3.3.2.4.3.1.2.1h.6l.4.2h.3l.3.2.4.2.3.3.5.4.3.7.1.3.6 1.6.4 1.2.4 1.1.3.6.2.2.7.5.4.3.4.3h.6l.8.2h.2l.4.2.4.5.2.4.1.3v.6l-.2.5-.2.3-.1.3v.4l-.3.6v.6l.3.3.2.5.3.2.3.1.4.1h1.5l.2-.2h.2l.4.4.3.4.2.3v.6l.3.2v.2l.2.1h.5l.2-.3.3-.1.4-.4.4-.3h1l.5.3h.2l.3.2h.3l.6.2.4.1.2.2V22l.4.5.1.5.2.2.1.3.1.5.3.7v1l-.1.2h-.2v.6l-.2.2v.5l.4.3"/><path id="F" d="M157.1 159.7v.6l-.1.2-.3.2-.2.2-.2.1-.1.2-.4.4-.2.2-.2.2v1.7l-.1.2v.2l-.3.2v.9l-.3.2v.3l.3.1.1.3.2.3v1l-.3.3v2.3l-.2.4-.1.3-.1.2-.2.4-.1.5v.1l-.1.2v1.2l.3.2.2.2.3.3.2.3.1.3.1.4v.3l-.1.2-.3.3v1.7l.1.4.3.3h.5l.2.1v.2l.1.3v.4l-.2.4v.8l.1.2.3.2.3.2h.4l.4.4.2.2v.4l.2.2v.3l-.5.1-.2.2-.2.2-.2.2-.2.3v1.1l.4.4.3.6.2.2.2.2.1.3v.2l-.1.2-.2.4-.1.4v.5l.2.3v.3l.1.4.3.3v.2l.2.1h.5l.3.2.5.2h.2l.3.3.4.4.1.3v.8l-.3.2-.2.3v1.3l.4.3v.4l.2.4.2.5v.2l.4.2.2.1.3.1.4.2h.3l.1.3h.1v.5l.2.4v.3l.2.3.3.3.3.5.1.3.3.1.3.4.2.1.5.2.2.3.2.3h.3l.3-.2h.4l.1-.1h.2l.2-.2.1-.2h.1l.1-.2h.2l.2-.1h.2v-.9h-.2l-.1-.3v-.3h.7v.2h.3l.1.2h.8l.1-.4h.2v-.1l.3-.1h1l.1-.2.1-.1h.1l.2-.3v-.1l.3-.2v-.3l.1-.2h.2l.4-.2.3-.2.3-.2.3-.2.2-.2.2-.1h.9v-.3h.3l.3-.2h.2l.2-.1h.1l.2-.2h.5l.3-.2h.9v.3h.5l.1.1h.5l.1.2h.5l.1-.4h.5l.3.4h.3l.4.2h.6l.2-.3h1.3l.1.3h.4l.3-.4h.4l.2.4h.2l.3.1h1.8l.2.2h.6l.3-.2h.4l.2.2h.3l.2.2.2.1.3.3h.1l.2.2h.4v-.3h.3v-.4h.3l.2-.2h.3v.2l.4.1h.3l.3.2h.2l.1.2.2.2h.2v.2l.1.2.1.2h.8l.2.3.2.1h1l.2.3.2.1.2.3h.5l.1.3.2.1h.1l.2-.1.1-.1.3-.2h.1l.4-.3h.2l.3-.2.5-.4"/><path id="G" d="M-10.8 246.7v-.2h.2v-.2h.3v-.3h.3v.2h.3v.1h.1v-.7h.5v.3h.1v.1h.5v-.3h-.2v-.1h-.2v-.1H-9v-.2l.3-.2h.7v.3h.1l.2.1h.2l.3.2v.5l.1.1.1.3v.2h.3v.1h.2v-.3h.2v-.1h.1l.1-.2v-.3h-.3l-.1-.2v-.4h.3v-.2h.5v.4l.1.2h.1l.1.2h.4v-.4h.2l.1-.1h.4v.2l.1.1v.9l.2.1h.1v.2h.2v1.2h.2v.3l.2.1.3.3h.7v.1l.3.2v.5l.2-.1h.4l.1-.3h.3v-.2l.3-.1h.1v-.3h.1v-.2h-.3v-.1l-.2-.1v-.6h.2v-.2h.2v-.5l-.3-.1v-.2l-.1-.1h-.4v-.6h.3l.1-.2v-.1l.2-.1v-.3h.2v-.2l-.2-.1H-1v-.3H.7v-.9H.5v-.2l.3-.1v-.2h.1v-.1H1v-.2H-.2l-.2.3v.3h-.3v.1h-.1l-.2.1h-.2l-.3-.3h-.1v-.3l.3-.1.3-.1h.2v-.2h.2v-.1h.1v-.3h-.4l-.1-.1v-.3h.3v-.3l-.3-.1-.1-.1-.2-.2-.1-.2-.2-.1h-.6l-.2.2-.3.2h-.6l-.2-.3v-.4h.3v-.1h.1v-.3h-.4v-.1h-.2l-.1-.1-.2-.1-.2-.2v-.1l-.2-.2-.2-.2-.1-.1v-.2h-.8v-.2h-.3v-.1h-.1v-.4h.3v-.1l.2-.1h.1v-.5l-.3-.1h-.2v-.1h-.1l-.1-.1-.1-.1h-.1l-.3-.2h-.1v-.2h-.1v-.4h-.1v-.2l-.1-.1-.1-.1h-.1l-.2-.3v-.5h.3v-.2h.8v-1.2l-.3-.2v-.2h.5l.3-.2v-.1h.1V232l-.3-.1v-.4h.3v-.2l.3-.3.2-.1v-.3H-6v.1h-.3v-.4l.3-.2h.9l.1-.1h.1l.1-.2h.2v-.3h-.3l-.1-.2v-.2h-.1l-.1-.3-.2-.2v-.1l-.1-.2-.1-.2v-.2h-.3v-.6h.9l.2-.1.2-.2.2-.2.1-.2.3-.2.1-.2h.1l.2-.4h.2l.4-.1v-.1h.2v-.3h.4l.2-.1.1-.1.2-.1h.3l.2.1v.2l.2.2v.3h-.2l-.1.2h-.3v.7h.4l.1.3.3.2.2.1.2.2v.8l.1.1.1.2v.3h.1v.1H0l.1-.1v-.1l.4-.3v-.3l.1-.1v-.2l.1-.1v-.3h.2l.1-.2v-.6H.4v-.2H.3l-.1-.1-.2-.1v-.5h.3l.1-.3v-.3l-.2-.2v-.3h.3v-.2h.1l.2-.2v-.3H1v-.2h.2v-.1l.2-.2v-.2l.1-.1.1-.2.1-.1h.4v-.2h.2v-.3l.1-.1v-.1l.1-.2H3l.1-.3.2-.1v-.3h.5v.2l.2.1v1h.2v.3h.1v.1h.3v.2h.1v.3h.2v.1H5l.3-.2v-.2h.4v-.2h.1l.2-.3v-.3l.3-.2.3-.2H7l.1.4h.1v.2h.2v.1l.1.1v.2h.7v-.4l.2-.1.1-.1h.1l.1-.2H10l.1-.1h.3v-.1"/><path id="H" d="M11.4 166.8h1.2l.2.2v.3h.4l.2-.3h.1v-.4h-.3v-.3l.2-.3h1.8l.3-.1.2-.1.1-.2v-.3h-.2v-.3h.4v.2h.6l.2-.2.2.2h.3l.2-.2v-.2l.1-.1h.4v-.3l.2-.1h.1v.1l.1.3.2.1h1l.2-.1v-.2l-.1-.1h-.1l-.2-.2h-.2l-.2-.1h-.2v-.5l.2-.1.2-.1.2-.2h.3l.2.4h.1l.2.1h.3l.1-.1h.2l.2-.2v-.4h.2v-.2l-.4-.2v-.2l.2-.1h.3l.2-.2v-.3l.1-.2v-.1l.2-.2.2-.1h.4l.1.3.1.1.1.1.3.1h.3l.3-.2.2-.1h.4l.2-.4v.1l.1-.2h.2v.1l.3.2v.1l.1.2h.2v.2h.7v-.3h.4l.2-.3h.1v-.2h.3v-.4l.2-.2h.1v-.1l.3-.1.2-.2.1-.1.1-.1v-.8h.2v-.1l-.2-.1v-.4l.2-.1h.3l.1.2h.2l.1-.4h.5v.2l.3.1.1.1h.6l.3-.4h.3l.1-.2v-.9l.3-.2.2-.2.2-.1h.7l.1-.1v-.2l-.1-.2-.2-.1-.1-.1H32l-.3-.3h-.3l-.2-.1-.2-.1v-.2l-.3-.3v-.8l.3-.2.1-.2.2-.2h.4l.2.1.3.2.4.4.3.3.4.2.3.1h.6l.1-.4v-.3H34l-.2-.3-.3-.2H33l-.2-.2-.5-.1-.2-.1H32l-.4-.1h-.1l-.2-.6.1-.2.1-.2.2-.1.3-.1.1-.1h.4l.2.2.2.1h.6v-.4l.3-.2h.1l.2.2.2.4v.2l.3.2h.4l.4-.1.2-.3.4-.2.3-.2h.4l.3-.3h.7l.2-.1h.4l.4.1.3.2v.2h.4v-.5l.1-.2v-.3l.2-.2v-.3l.2-.2.1-.2h.7l.3-.1v-.5l-.4-.2-.1-.2-.4-.4-.1-.2-.1-.2v-.5l.1-.3h.7l.2.2.1.4.2.2.2.2.3.2.6.2.4.1h.3l.2-.3v-.4l.1-.1.4-.2.2-.1.2-.2v-.2l.2-.3.3-.4.2-.3h.7l.3.2.4.4.6.3.6.2h.7l.9-.3.3-.3.2-.5.1-.6v-.3l.1-.5.3-.2h.5l.2.4.3.4.5.1.5.3.4.2.4.3.5.1h.5l.4-.4.4-.4.2-.8.2-.6.2-.2.2-.4.3-.1h.5l.4.1h.5v-.3l-.1-.4-.2-.5v-.4"/><path id="I" d="M56.8 142v-.1l.2-.3.4-.2h.4l.4.3.3.3.3.3.4.4h.3l.3-.2.3-.8.3-1 .1-.5v-.4l-.2-.2-.3-.3v-.7l.1-.4.2-.6.2-.4.3-.4.2-.3.4-.2.1-.4.3-.4.5-.6.1-.3.3-.6v-.5l-.3-.2H62l-.4.2-.1.2-.2.3v.3l-.2.2H61l-.3.2h-1.8l-.3-.4h-.2l-.2-.3v-.6l.2-.4h1.9l.2-.4v-.2l-.2-.2-.3-.1v-.4l.2-.3.4-.4.2-.2v-.5l-.3-.1v-.8l.2-.2h.3l.6-.2h1.6l.2-.1v-.3l.3-.2v-.1l.1-.4.3-.3.4-.2.3-.4h.3l.3-.2v-.5l.2-.3v-.1l.4-.2.4-.2.2-.2.1-.2.3-.3v-.3l.3-.5.2-.3.2-.4.4-.3.5-.2H70l.3.2.3.2.4.3h.3l.7-.3h.7l.3.1.1.2v2.2l.2.5.2.2.2.2h.5l.6-.2.4-.2.5-.4.3-.3.4-.3h.4l.2-.2.2-.2.3-.2.3-.3v-.4h.3l.4.1.2.2.4.3.3.1.3.4h.3l.5-.2.2-.2.3-.3v-.6l.1-.3.1-.2v-.6l-.2-.2-.2-.2-.3-.2h-.3l-.2-.3-.4-.1-.4-.2-.2-.4v-.2h.4l.2-.2h.2l.3.3v-.2l.2-.2v-.2l.3-.3v-.1l-.2-.2v-.2l.1-.3v-1.5l-.3-.1v-.6l-.2-.1v-1.4l-.1-.5-.1-.3-.1-.3v-.6l.1-.5.3-.7v-1l.3-.3.1-.3v-.5l-.5-.5h-.1l-.3-.4-.2-.3-.2-.3-.1-.3.1-.3.4-.4.4-.8.7-.9v-.1l.3-.2v-.3l-.5-.5-.1-.2-.4-.2-.2-.2h-.4l-.3-.6v-.4l.4-.2.2-.2v-.3l-.2-.1h-.6l-.3.2-.2.1-.2.2-.2.1h-.5l-.2-.2v-.3l-.3-.2-.2-.2-.4-.3-.3-.3-.3-.2v-1l-.1-.3V99"/><path id="J" d="M165.7 73.1v.6l-.3.3v.2l-.2.3-.1.2v.3l-.1.3v.2l.3.3.5.6.4.6v1.6l-.2.5-.2.2h-1.9l-.2.2-.2.1-.2.2v.9l-.2.5v.2l.2.2v.8l-.1.3-.2.5V86h-.3v.7l-.1.3h-.2l-.1.2v.2l-.3.2v.2l-.1.3v1.1l-.2.5-.1.3-.1.5v.2l-.3.3v.2l-.2.2v.2l-.1.2-.2.3-.1.2h-.4l-.3.3h-.2l-.1.3-.2.3-.1.4-.1.3v.1l-.2.4v.3l-.2.3-.1.2-.1.1v.7l.4.3v1l-.3.2v1.8l-.3.5v.7l.2.5v.4l-.2.6-.1.2-.3.6-.1.5-.3.4-.3.3-.3.1h-1.3v-.2l-.3-.2v-1.2h-.4l-.1.4-.1.1-.1.4v1.4l-.2.2h-.2l-.3.3v.1l-.1.2v.4l-.3.1-.2.3-.1.2-.1.4-.2.2v.5l-.1.3v.2l-.3.1.1.2-.3.2-.2.1-.2.2v.6h.2l.1.2.1.2h.1l.1.3v1.1l-.4.2-.1.2-.3.2-.2.1-.3.2-.1.1-.2.3v.2h-.3l-.1.1h-.1l-.1.3-.5.3v.2l-.2.1v.5l.3.2.1.1h.1l.2.3.2.2.1.3v.4l-.1.3-.2.2-.2.3-.1.3v.3l.2.2.1.2.2.3v1.4l-.3.3v.6l-.1.3-.2.2v.9l.4.3.2.3v.4l-.1.2v.3l-.2.1v.6l.4.1v.2l.2.3.2.2.3.2.2.2.5.1.3.2.3.1h.5l.1-.3h.2l.2.4-.4.2h-.1l-.2.2-.5.1h-.2l-.1.2-.2.1v.9h.5l.1-.3h.2l.2-.2h.5l.3.3v.6l-.1.3-.2.3v.7l-.1.3v1l-.1.2-.3.4-.3.5-.2.4-.2.3-.1.4-.2.3v1.3l-.2.2v.2l-.2.2-.2.3-.2.2v.4l.1.1h.1l.1-.2.2-.1.1-.1h.5l.2.4.3.3v.5l-.4.2v1.2l.2.7v.4l.2.1.2.6.1.4"/><path id="K" d="M175.1 194.8l.2-.1h.2l.2-.2h.1l.2-.2h.5l.3-.2h.9v.3h.5l.1.1h.5l.1.2h.5l.1-.4h.5l.3.4h.3l.4.2h.6l.2-.3h1.3l.1.3h.4l.3-.4h.4l.2.4h.2l.3.1h1.8l.2.2h.6l.3-.2h.4l.2.2h.3l.2.2.2.1.3.3h.1l.2.2h.4v-.3h.3v-.4h.3l.2-.2h.3v.2l.4.1h.3l.3.2h.2l.1.2.2.2h.2v.2l.1.2.1.2h.8l.2.3.2.1h1l.2.3.2.1.2.3h.5l.1.3.2.1h.1l.2-.1.1-.1.3-.2h.1l.4-.3h.2l.3-.2.5-.4 1-1 .3-.2.9-1 .8-.6.7-.7.6-.7 2.2-1.8 1-1 1.9-1.8 1.3-.6 1.9-.7.5-.1h1.4l.3.1.4.3.5.2.3.2.3.2.3.4.2.3v.4l.3.5.2.4.3.1.4.3.3.2 1.1.4h.3l.3.3h.6l.3.1h.3l.3.1.1.1v.1l.4.7.3.3.3.2.4.1 1 .6.4.4.2.4.2.2h.1l.2-.2 1-.2.4-.2.8-.2.4-.2 1.1-.2h.4l.6-.4h.5l.3.2.4.7.5.7.3.4h.5l.6.2.4.2h.2l.2.4.6 1.2.7.9 1 1.4v.2l-.3.5v.8l-.3.3-.4.7v.1l-.4.6v.5l.4 1.4v.7l-.2.7-.2.4v.4h-.6l-.3.3h-.3v.1l-.1.2-.3.1-.2.1h-1.1l-.2-.2h-.2l-.1-.1h-.2v.3l-.3.1h-.5l-.2.2-.4.1-.2.2-.2.1-.6.3-.2.2v.3l-.2.4v.5"/><path id="L" d="M227.1 209.4v.2l-.1.9-.2.3-.2.5v.5l-.3.2.2.3h.7l.1.2.3.2.1.2v1.5l.2.4.3.3.9.3.4.3.2.3v1.4l-.4.3v.2l-.1.3v.4l.3.3v.1l-.3.4v.4l-.2.4v.8l-.2.2v.2l-.2.2-.3.2h-.1l-.1.2-.3.1-.1.2-.2.2v.3l-.4.2-.1.6v.2l-.3.2-.1.1-.2.2h-.4v.3l-.2.1-.2.1-.1.2-.1.2-.2.2-.2.2-.2.1-.3.3h-.3l-.1.1-.2.2v.7l.1.1.2.3v.2l.3.3.1.1v.2h.4l.6.2h.4l.2.1.8.7.6.3h.4v1.4l-.3.5v.3l-.1.2v.1l-.1.1v.2l-.1.2v.2l-.1.2v.3h-.3v.3h.3l.1.2.6.4.5.2.8.2h.7l.8-.3h.5l1.4-.5h.2l.6.2.3.2h.2l1 .3.5.2h.4l.8.6 1.3 1 .3.6.4.6.3.6 1 1.9.3.1.1.2.3.2.4.1.2.2h1.1l1.3.3h.3l.2.3.7.8.3.5.2.6.1.2.2.3.3.4.3 1.2.4 1.1-.1.3-.2.1-.2.3-.4.5-.4.4-.2.3-.4.7-.3.4-.1.1v.1l-.3.4-.1.5v2.4l.3.4v2.3l-.4.6-.2.8v2.3l-.3.1-.6 1.2-.8 1.4-.6 1-.4.5-.4.5-.4.7-.9 1.3-1 1.7-.4.6-.2.2h-1l-1 .3-1.7.2h-.6l-.2-.1-1-1.3"/><path id="M" d="M160.2 65l.3.4v.6l-.2.4v.3l-.4.5-.2.1-.3-.1-.1-.5-.3-.5-.1-.1h-.6l-.1-.2-.2-.1h-.2l-.4.2v.3l-.4.2v.2l-.3.8-.1.1-.1.4-.2.1v.9l-.3.3-.2.1-.2.6h-.9l-.1.3-.2.2v.2l-.3.1h-.8l-.8.2h-.4l-.1-.3-.2-.4v-.5l.1-.2v-.3h-.3l-.3.3v-.9l-.3-.2-.3-.1v-.1l-.3-.3v-.3h-.2l-.6.1-.2.2v-.2h-.2v.2l-.2.2h-.5l-.2.2-.3.3v.7l-.3.2v.6l-.3.2.2.3v.2l-.4.1h-.2v-.5h-.4l-.3-.5h-.5l-.3-.2-.4-.5h-.3l-.2-.3h-.3l-.1.1H143l-1.7-.3-.4-.2h-.3l-.6-.3h-.5v.3h-.4v.2h-.2v-.4l.3-.3.3-.2-.1-.4h-.8l-.1.1h-.5l-.3.4h-.7v-.1l-.2-.2-.4-.2v-.8l-.4-.5h-.2l-.2-.2-.1-.1-.2-.2h-.7l-.3-.3h-.6l-.3.5L128 69v1h-.3v.2l.3.1v.5l.1.2.1.2v.6h.2l.1.3.1.3v.6l-.1.2h-.5v-.4l-.2-.1h-.2l-.3-.1-.5.1-1.2 1 .4.3v.2l-.1.3-.2.2h-.4V74l-.3.2h-.6l-.2-.5h-1l-.6-.3-.6-.4-.5-.3-.2-.4v-.5l-.5-.3-.2-.4-.1-.3v-.2l-.3-.6-.2-.3v-.6l-.5-.3-.1-.1h-.2v.3l-.2.2h-1.2l-.2-.2v-.7l-.4.1-.6.1-.4.5-.2.5-.2.4-.2.2-.6.2v.4l-.1.3-.3-.3-.3-.2h-.3v.3l-.4.2-.3.1-.7.3-.4.2h-.4l-.3.4-.3.3h-.2l-.4-.3h-.4v-.4l.3-.3V71l-.3-.1v-.6h-.2v-.6h-.2v-.6l.2-.1v-.4l.3-.2v-.1h-.7l-.2.2-.4.2-.1.2"/><path id="N" d="M108.9 69h-.1l-.3.5-.2.3-.4.1h-.4l-.2-.3-.3-.8-.5-.7-1-.6-.3-.3h-2.3l-.4.1-.5.7-.4.4-.5.2-.4.2-.2.4-.2.3v1.3l.3.2v.2l-.5.2-.1.3-.1.3-.5.3-.3.2h-.6l-.5.5-.7.3h-.7l-.4-.1-.2-.2-.4-.6-.3-.4-.2-.5-.5-.1-.5-.4h-.5l-.4-.1-.4-.3-.4.1-.4.1-.3.2-.2.2v.3l-.4.2-.1.3-.4.2-.2.3-.2.3v.2l-.4.3-.4.1-.2.3-.2.3v1.3l.1.2.1.2v.2l-.2.2v.4l-.1.3v.7l-.3.3v.2l-.4.4-.4.6h-.4l-1 .3H86l-.7-.3H85l-.3.2-.2.3-.3.2h-.4l-.3-.1-.5.2v.2l-.4.4-.4.4-.6.2-.3.2-.3.3-.2.2v.3l-.2.4v.5l.3.4v.7h.1l.2.3v.5l-.2.4-.4.3h-.2l-.4-.1-.5-.2-.5-.2h-.9l-.3.2-.4.3-.2.2-.2.3v.4l.4.3.2.2h.4l.3.2.2.1v.8h-.2l-.6.5-.5.1-.5-.1h-.2l-.5.5-.1.2-.2.3v.9l.3.4v.2l.1.3.2.2.1.4v.4l.2.6v.4l.2.1v.4l.1.2v.4l-.3.4-.3.4-.2.2-.1.4-.2.1v.3l.2.2.1.2v1.6l-.3.4-.1.4v1.7l.2.4v.6l.2.3.3.2.4.3.2.2.3.2v.3l.2.2h.7l.2-.4h.2l.4-.3h.6v.2l.1.3-.2.2-.3.2v.4l.1.5.1.1h.4l.2.2.4.2.2.2.2.5v.5l-.1.1-.7 1-.4.5-.4.6-.1.3.1.3.2.3.2.3.4.4h.1l.4.5v.5l-.2.3-.1.3v1l-.5.7v1.4l.3.4v.3"/><path id="O" d="M80 115.4v.5l.2.2v.8l.1.2v.5l.1.1v.5l.2.4v.6l-.2.3v.4l.2.1-.2.3-.3.2v.2l-.1.1h-.2l-.2-.1H79v.4l.2.3.4.2.4.2.2.1.3.1.3.2.2.2.1.2.1.4v.2l-.1.2-.2.3v.6l-.2.3-.2.2-.5.2h-.3l-.3-.4H79l-.3-.5-.2-.1h-.7v.4l-.3.2-.3.2-.2.2h-.2l-.4.2-.4.3-.3.3-.5.4-.4.2-.6.2h-.5l-.2-.2-.2-.2-.2-.5v-2.2l-.2-.2-.2-.1H72l-.7.3H71l-.4-.2-.3-.3-.4-.2h-1.3l-.5.2-.4.3-.2.4-.2.3-.3.5v.3l-.3.2-.1.3-.2.2-.4.2-.4.2-.1.2v.4l-.1.3-.4.2h-.2l-.3.4-.5.2-.2.4-.2.3v.1l-.1.3v.1h-.1l-.2.2h-1l-.6.2H61l-.3.1-.2.1v.5l.1.3.1.1.1.2v.3l-.2.2-.3.4-.3.3v.2l.2.1.1.2.2.2v.2l-.2.3-.2.1h-1.7l-.2.4v.6l.2.3.2.1.3.1.5.1H61l.2-.1v-.2l.1-.3.2-.3.1-.2.4-.2h.4l.3.2v.5l-.3.6-.1.3-.5.6-.3.4-.1.4-.4.2-.2.3-.3.4-.2.4-.3.6v1.1l.3.3.2.2v.9l-.5 1-.2.8-.3.2h-.3l-.4-.4-.3-.2-.3-.4-.4-.3h-.4l-.4.2-.3.3.1.5.2.6v.6h-.4l-.4-.1h-.5l-.3.1-.2.4-.2.2-.2.6-.2.8-.4.4-.4.3-.5.1h-.5l-.4-.4-.4-.2-.5-.3-.5-.1-.3-.4-.2-.3-.3-.1H50l-.3.2v.8l-.3.6-.1.5-.4.4-.9.1h-1.2l-.6-.4-.4-.4-.3-.2h-.7l-.2.3-.3.4-.2.3v.2l-.2.2h-.2l-.4.4-.1.1v.4l-.2.1-.3.1-.4-.1"/><path id="P" d="M42.3 148.6l-.6-.2-.3-.2-.2-.2-.2-.2v-.4l-.3-.2H40v1l.2.2.3.4.2.2.3.2v.5h-1.1v.3l-.2.2v.3l-.2.2v.3l-.2.3v.4H39v-.2l-.3-.2-.4-.1h-.6l-.4.3h-.6l-.4.1-.3.2-.4.2-.2.3-.4.1h-.5l-.1-.2-.1-.2-.3-.4-.1-.2h-.2l-.1.2-.1.3-.2.1h-.6l-.2-.3h-.4l-.2.1h-.2l-.2.2v.2l-.3.3.3.4h.1l.4.1.1.1.2.1.5.2h.7l.3.4.3.1.1.1.1.2v.4l-.3.1h-.7l-.4-.4-.3-.2-.4-.4-.2-.2-.4-.1h-.3l-.3.2v.4h-.3v.8l.3.3v.2l.2.1.2.2h.3l.3.1h.2l.1.3h.2l.1.1v.4h-1.1l-.1.4h-.1l-.1.1-.2.3v.6l-.1.1-.2.2-.3.2-.4.2h-.2l-.2-.3h-.2l-.1-.2H29l-.3.2-.1.1-.4-.1H28v.7h.1v.2H28v.7h-.1l-.1.1h-.2v.2h-.3v.3H27v.5h-.3l-.1.3-.2.1H26l-.1.4h-.6l-.3-.2-.1-.2-.1-.4h-.4v.4l-.2-.1h-.1l-.3.3h-.2l-.3.2h-.6v-.3l-.3-.1v-.1l-.3-.1H22l-.3.1v.2l-.1.1v.4l-.2.2h-.1l-.3.1h-.1v.5h.1l.2.2v.3l-.2.2h-.2l-.2.1v.1H20v-.3l-.4-.1h-.4l-.2.3-.2.1v.5h.6l.2.2h.3v.3l-.3.2h-1l-.2-.2v-.3H18v.3h-.5v.3l-.2.2H17l-.1-.2h-.1l-.3.2h-.4l-.1-.1-.1-.2h-.2v.7h.2l-.2.2h-.2l-.3.2h-.4l-.4.2h-1.2v.4h.3v.4h-.2l-.1.2-.2.2h-.1v-.1l-.2-.4h-.9l-.2-.2h-.4l-.2.3v.1h-.2v.2h-.3l-.1.1v.2h-.3l.3.2h.6l.1.2h.2v.6l-.1.2 1.7 7.4H14l.2.3.1.1.1.2v.2h-.2v.3l-.1.1-.1.2-.1.1v.1h-.5l-.1.2v.3H13v.1h.4v.4h.1v1h.1v.1h.1v.1h.6v-.2h.3v.2l.1.2h-.3v.2h.3v.3h.1v.3h-.3v.4l.3.1h.1l.1.1v.1l-.3.2-.1.1-.2.3v.2"/><path id="Q" d="M14.5 182.5v.3l.2.2h.1l.2.2h.3v.1h.1v.1h.3v.1h.2v.2l.1.1v.2h.2v.5h.1v.1h.1v.2l.1.1v.9h.1v.1h.3v-.3h.4v.4h.2v1.3h.1v.1h-.3v.1h-.1v.1h-.1v.2h-.5v.4h.4v.2h-.4v.4h-.1v.1h-.3l-.1.1h.3v.2h.1v.1h.1l.1.1h.5v.2H17v.2h.1v.1h.3v.1h.1v.3l.2.2h.5v.1h.1v.1h.1v.3l-.3.2H18v.8h-.2l-.1.2v.1h-.2l-.1-.3h-.2l-.2.3v.2l-.2.1v.2h-.1v.1h-.3v.1h-.2v.4h.3v.1l.1.2v.1h-.4v.2h-.1v.3H16v.2h-.4v.5h.3v.2h.1v.1h.2v.3l.1.1v.3l.2.2h.2v.6l-.3.2v.4l.3.3.3.3.1.1v.1l.3.1v.2h.1l.1.2h.1l.1.1.2.1.3.1.1.1.2.1h.1l.3.3.1.1v.4h.2v.3h.1v.2h.1v.2l.3.3.1.1h.1v.2h.8l.2-.3h.6l.1.2.2.1v.1l.1.2v.2h.2v.1l.2.1h.2l.1.1v.1h.3v.2h.2v.2l.1.2v.2l-.3.2v1.7h-.1l-.1.1h-.7v.2h-1.9v.1H20l-.2-.3h-.2l-.1-.2h-.3l-.2.4h-.2l-.2.1-.1.2v.2l.1.1v.1l.2.1h.1v.7l.1.1v.9l-.3.1-.1.5v.2l-.3.1v.7l-.1.2v.5l-.1.1h-.7v-.1l-.2-.1-.2-.3h-.1l-.1-.1h-.4l-.1.4H16v.7h.4v.2l.2.2v.5h-.3v.2h-.1v.1h-.1l-.1.2h-.5v.2h-.1v.1H15v.9h.3v.1h.1l.2.1v.1l.1.3v.4h-.3v.1h-.2l-.2.1v.1h-.2l-.2.1h-.1v.4l.3.2h.1l.1.1h.3l.1.2.1.1h.1l.3.1h.1v1l-.2.3-.1.2H15v-.2h-.3v-.2h-.2v.2l-.2.1v1.4l-.2.2-.1.1h-.5v-.2h-.1l-.1-.2h-.4v.2l-.3.1v.3h-.1v.2h-.2l-.1.1-.2.2v.5l-.3.1v.2h-.2v.2h-.3l-.2.1-.3.2-.1.1h-.2v.3h-.2v.9l-.2.2H8.5l-.2.3-.1.1v.3H8v.2h-.5v-.4h-.2v-.3h-.1v-.2l-.2-.1-.2-.2h-.5l-.2.3-.1.1-.2.4v.1l-.2.1v.1h-.1l-.2.3h-.2l-.1.2h-.3v-.5h-.2v-.1h-.1v-.2h-.1l-.3-.1v-1.1h-.2v-.3h-.6v.2l-.1.3-.1.1-.1.1h-.4l-.2.1v.6h-.2l-.1.2h-.1l-.2.1v.1h-.3v.3l-.2.1v.3l-.2.1v.1l-.2.1v.2l-.2.2-.3.3v.2H.2v.3l.3.2v.2H.1l-.1.3v.3l.3.2.2.2h.2l.1.2H1v.6H.7v.2l-.2.3v.2H.4v.2l-.1.1-.1.3H0l-.1.2h-.1v-.1l-.3-.1v-.4l-.2-.1v-.6"/><path id="R" d="M159.3-37h.1l.3-.1.2-.1.1-.1.5-.2.5-.1h.3l.3.1.3.1.1.2.2.2v1h-.2l-.2.3-.1.3v.8l.3.3v1.1l-.3.3-.2.3-.2.2-.3.2-.2.2-.1.4-.1.6-.2.8-.2.3-.1.2-.2.3v.4l-.3.5-.4.8-.2.5-.3.4-.2.4v.3l-.2.5-.1.7-.2.4-.2.5-.2.2v.2l-.2.2v.4l.5.3.1.7v.7l-.3.3v.4l-.2.3-.1.3v.6l.1.2h.2l.3.2h.3l.4.1h.3l.2.3.3.1.3.3.1.2.1.3.2.3h.1l.2.2h.5l.4-.5.6-.1.3-.2.2-.2.3-.3.2-.2.3-.3.5-.4.2-.2.4-.2.1-.1.2-.3v-1.2l.1-.1.2-.3h.1l.3-.2h.9l.2.3.2.1.3.3v.5l.2.5v1.5l-.2.3v.6l.2.3.3.5.3.3.2.3.1.2v.5l.3.3v.3l.3.2.1.2.2.2v.5l-.3.7v.3l-.2.3v2.2l-.2.2h-.1l-.2.3h-.4l-.3.1h-1.4l-.1-.3v-.4l-.4-.3h-.8l-.2.3v.7l-.1.1-.1.1v.6l-.2.2-.4.2-.5.5-.1.2-.3.3-.1.3-.1.3v.8l.2.3.3.7.4.4.3.3h.5l.2-.1.2-.3.4-.2v-.2h.7l.1.3.2.2v.6l-.5.2-.1.2-.2.3-.1.2-.2.4v.1l-.2.3v2l.3.7.2.8.2.5.2.3v.6l.3.5v.2l.2.3.3.3h.7l.2-.2V3h.6l.3.3.3.3.2.4.3.1.2.1h.6l.4.2h.3l.3.2.4.2.3.3.5.4.3.7.1.3.6 1.6.4 1.2.4 1.1.3.6.2.2.7.5.4.3.4.3h.6l.8.2h.2l.4.2.4.5v.2"/><path id="S" d="M188.8 27.5v.8l-.4.1-.2.2-.2.2-.2.4-.2.2v.7l.2.4.1.3v.8l-.1.2-.3.1h-.3l-.4.1h-.2l-.2.1-.1.2-.3.1-.3.2-.4.4-.3.1-.1.2-.1.2v.4l-.2.4v.3l-.2.2-.3.2-.1.1-.3.1-.1.2-.2.3-.1.2-.1.4-.2.4-.5.3-.3.5-.5.4-.2.3-.1.1-.1.3v.8l.1.6v.4l.3.4.1.2.2.2.2.3v.2l.2.2v.8l.3.3v1.5l.3.5v.5l-.2.2-.2.2-.3.2-.3.2h-.4l-.2.2h-.6l-.3-.4h-1l-.6.2-.3.2h-1l-.3.1-.2.2-.3.3-.4.5-.2.2v.2l-.2.2v.2l.3.4.1.4v1.2l-.2.3v.1l-.3.3-.4.2-.5.3-.3.1h-.8l-.2.3-.3.4v1.2l-.1.2-.1.3-.2.3v.6l.2.2.2.1v.2l.2.3v.5l-.4.2-.1.5-.1.3v.7l.3.5v1l.2.6v.4l-.5.2-.5.1h-.6l-.6.2-.5.3-.2.2-.2.2-.3.1-.3.2-.3.2-.3.2-.3.2v.4l.1.7.3.2.2.2v2.3l-.2.6-.3.4-.2.6-.2.2-.2.4-.4.2-.2.2-.3.2-.3.2-.4.5-.3.4-.3.2-.2.5-.2.3-.1.4-.1.2v.8l.2.2v.8l-.4.3v.2l-.2.3-.1.2v.3l-.1.3v.2l.3.3.5.6.4.6v1.6l-.2.5-.2.2h-1.9l-.2.2-.2.1-.2.2v.9l-.2.5v.2l.2.2v.8l-.1.3-.2.5V86h-.3v.7l-.1.3h-.2l-.1.2v.2l-.3.2v.2l-.1.3v1.1l-.2.5-.1.3-.1.5v.2l-.3.3v.2l-.2.2v.2l-.1.2-.2.3-.1.2h-.4l-.3.3h-.2l-.1.3-.2.3-.1.4-.1.3v.1l-.2.4v.3l-.2.3-.1.2-.1.1v.3"/><path id="T" d="M158.6 95.6v.4l.4.3v1l-.3.2v1.8l-.3.5v.7l.2.5v.4l-.2.6-.1.2-.3.6-.1.5-.3.4-.3.3-.3.1h-1.3v-.2l-.3-.2v-1.2h-.4l-.1.4-.1.1-.1.4v1.4l-.2.2h-.2l-.3.3v.1l-.1.2v.4l-.3.1-.2.3-.1.2-.1.4-.2.2v.5l-.1.3v.2l-.3.1.1.2-.3.2-.2.1-.2.2v.6h.2l.1.2.1.2h.1l.1.3v1.1l-.4.2-.1.2-.3.2-.2.1-.3.2-.1.1-.2.3v.2h-.3l-.1.1h-.1l-.1.3-.5.3v.2l-.2.1v.5l.3.2.1.1h.1l.2.3.2.2.1.3v.4l-.1.3-.2.2-.2.3-.1.3v.3l.2.2.1.2.2.3v1.4l-.3.3v.6l-.1.3-.2.2v.9l.4.3.2.3v.4l-.1.2v.3l-.2.1v.6l.4.1v.2l.2.3.2.2.3.2.2.2.5.1.3.2.3.1h.5l.1-.3h.2l.2.4-.4.2h-.1l-.2.2-.5.1h-.2l-.1.2-.2.1v.9h.5l.1-.3h.2l.2-.2h.5l.3.3v.6l-.1.3-.2.3v.7l-.1.3v1l-.1.2-.3.4-.3.5-.2.4-.2.3-.1.4-.2.3v1.3l-.2.2v.2l-.2.2-.2.3-.2.2v.4l.1.1h.1l.1-.2.2-.1.1-.1h.5l.2.4.3.3v.5l-.4.2v1.2l.2.7v.4l.2.1.2.6.2.7.2.5.2.5v.4l.3.4v1l.1.3.3.4.1.5.1.2v1.4l-.3.5v.4l.4.1.1.3.3.2h.2l.2.2h.1l.5-.3v-.2h1.3l.2.5v.2h-.2l-.2.3h-.4l-.2.1-.3.2-.2.2-.2.3v.3l.2.2.1.2h.7l.3.2.2.1.2.3v.4l-.3.1-.2.2-.5.4-.2.2v.1l-.3.3v2.5l.1.1.3.2.2.2.4.3v.3l-.1.4-.3.1-.2.2-.4.3v.1l-.1.3v.4l.2.2.2.2.3.3.1.2v.4l.3.3.1.4v.2"/><path id="U" d="M199 196.8l1-1 .2-.2 1-1 .8-.6.7-.7.6-.7 2.2-1.8 1-1 1.9-1.8 1.3-.6 1.9-.7.5-.1h1.4l.3.1.4.3.5.2.3.2.3.2.3.4.2.3v.4l.3.5.2.4.3.1.4.3.3.2 1.1.4h.3l.3.3h.6l.3.1h.3l.3.1.1.1v.1l.4.7.3.3.3.2.4.1 1 .6.4.4.2.4.2.2h.1l.2-.2 1-.2.4-.2.8-.2.4-.2 1.1-.2h.4l.6-.4h.5l.3.2.4.7.5.7.3.4h.5l.6.2.4.2h.2l.2.4.6 1.2.7.9 1 1.4v.2l-.3.5v.8l-.3.3-.4.7v.1l-.4.6v.5l.4 1.4v.7l-.2.7-.2.4v.4h-.6l-.3.3h-.3v.1l-.1.2-.3.1-.2.1h-1.1l-.2-.2h-.2l-.1-.1h-.2v.3l-.3.1h-.5l-.2.2-.4.1-.2.2-.2.1-.6.3-.2.2v.3l-.2.4v.7l-.4.9v.3l-.2.5v.5l-.3.2.2.3h.7l.1.2.3.2.1.2v1.5l.2.4.3.3.9.3.4.3.2.3v1.4l-.4.3v.2l-.1.3v.4l.3.3v.1l-.3.4v.4l-.2.4v.8l-.2.2v.2l-.2.2-.3.2h-.1l-.1.2-.3.1-.1.2-.2.2v.3l-.4.2-.1.6v.2l-.3.2-.1.1-.2.2h-.4v.3l-.2.1-.2.1-.1.2-.1.2-.2.2-.2.2-.2.1-.3.3h-.3l-.1.1-.2.2v.7l.1.1.2.3v.2l.3.3.1.1v.2h.4l.6.2h.4l.2.1.8.7.4.3"/><path id="V" d="M227.4 229.4h.7v.5l-.1.6v.4l-.3.5v.3l-.1.2v.1l-.1.1v.2l-.1.2v.2l-.1.2v.3h-.3v.3h.3l.1.2.6.4.5.2.8.2h.7l.8-.3h.5l1.4-.5h.2l.6.2.3.2h.2l1 .3.5.2h.4l.8.6 1.3 1 .3.6.4.6.3.6 1 1.9.3.1.1.2.3.2.4.1.2.2h1.1l1.3.3h.3l.2.3.7.8.3.5.2.6.1.2.2.3.3.4.3 1.2.4 1.1-.1.3-.2.1-.2.3-.4.5-.4.4-.2.3-.4.7-.3.4-.1.1v.1l-.3.4-.1.5v2.4l.3.4v2.3l-.4.6-.2.8v2.3l-.3.1-.6 1.2-.8 1.4-.6 1-.4.5-.4.5-.4.7-.9 1.3-1 1.7-.4.6-.2.2h-1l-1 .3-1.7.2h-.6l-.2-.1-1.5-1.7-.5-.5-.4-.7-.5-.3-.6-.7-1-1-.5-.1-.8-.9-1-.9-.3-.1h-.3l-.5-.3h-.9l-.4-.1h-.3l-.5-.1h-.3l-.7-.2h-1.8l-.4.2v.2l-.6.6v.2l-.4 1v1l.4.9v.5l-.6.3-.4.6-.4.4v.2l-.4-.1-.1-.3-.3-.2-.9-.8-.5-.1-.4-.3-1-.3-.9-.3-.4-.3"/><path id="W" d="M10.3 222v-1l.2-.2h.1v-.1h.2l.2-.1h.2l.3-.3.2-.1.3-.4v-.3l.2-.2.2-.2v-.1l.3-.1v-.2h.2l.1-.3h.3l.3.2v.2h.4l.1-.2h.1v-.2l.3-.1V217h.2v-.2h.2l.1.4h.7l.2-.2.1-.3v-1h-.3v-.2l-.3-.1h-.1l-.1-.1h-.1l-.1-.1-.3-.2h-.1l-.1-.2v-.3h.5v-.2h.1l.2-.1h.1v-.1h.2v-.1l.1-.1v-.4h-.3v-.3h-.1v-.1h-.2v-.1H15v-.7h.2l.3-.2h.1v-.1h.4l.2-.2h.1v-.2l.1-.1.1-.1v-.2l.1-.1v-.3l-.4-.2-.2-.2v-.5h.3v-.2h.2l.1-.2h.4v.3h.2v.2h.2v.2h.9v-.4h.1v-.9l.1-.1v-.4l.1-.1.2-.5.2-.2v-.8l-.2-.2v-.2l-.1-.2v-.2l-.1-.3h-.1v-.1h-.1v-.2l.3-.1h.1l.2-.2v-.1h.3l.2-.2h.3v.4h.7v-.2h2.2l.3-.2v-1.6l.2-.2.1-.3v-.3H23l-.2-.2-.1-.2h-.3l-.1-.1h-.1v-.2H22v-.1h-.2v-.2h-.1v-.3l-.2-.1h-.6l-.1.2h-.3l-.1.1H20l-.3-.3-.1-.2-.1-.1v-.2h-.2v-.3h-.1v-.2h-.1v-.4H19l-.2-.3-.3-.2h-.1l-.1-.1H18v-.1l-.2-.1-.3-.3h-.2v-.2h-.1v-.2H17v-.1h-.2v-.2h-.2v-.3h-.1v-.2h-.1v-.6h.3v-.6h-.2l-.2-.1h-.2v-.7l-.1-.1v-.1h-.2l-.1-.1v-.3l-.1-.1v-.2h.4v-.2h.2v-.2h.1v-.2h.2v-.1h.1v-.4h-.3v-.3h-.1.3v-.2h.3v-.1h.1v-.2l.1-.1v-.2h.2v-.1h.2l.1-.1h.1l.1.3h.1l.1-.3h.1v-.9h.2l.1-.1h.1v-.5h-.3v-.1H18l-.2-.1h-.4v-.1h-.1v-.4h-.2l-.1-.1v-.4h.2v-.1h-.8v-.1h-.1v-.1h-.2v-.2l.3-.1h.3v-.4h.3v-.3h-.4v-.3h.3v-.1h.4v-.1h.1v-.2h.2V186h-.3v-.2h-.1v-.1H17v-.1h-.4v.3h-.2l-.1-.3v-1.1h-.1v-.1h-.1v-.1H16v-.6h-.1v-.3h-.2v-.1h-.4v-.1h-.1v-.1h-.1v-.1h-.6v-.4h-.1v-.6l.4-.1v-.1l.1-.1v-.1h.1v-.2h-.3l-.1-.1v-.3h-.1v-.2h.3v-.5h-.3v-.1h-.1v-.1h.3v-.1h-.4v-.2h-.2v.2h-.5v-.2h-.1v-.1h-.1v-.2h-.1v-.9h-.1v-.3h-.1v-.1h.4v-.4h.2l.1-.1h.2l.1-.2v-.1l.2-.2v-.3h.1v-.3l-.3-.2-.1-.1h-.2l-.3-.2H13l-1.8-7.3v-.2h.2v-.6l-.4-.2v-.1h-.9l.2-.1.1-.2.2-.1h.1l.1-.3h.2v-.1h.2v-.3l.3.2"/><path id="X" d="M153 140.1l.3.3.1.5.2.5v.4l.3.4v1l.1.3.3.4.1.5.1.2v1.4l-.3.5v.4l.4.1.1.3.3.2h.2l.2.2h.1l.5-.3v-.2h1.3l.2.5v.2h-.2l-.2.3h-.4l-.2.1-.3.2-.2.2-.2.3v.3l.2.2.1.2h.7l.3.2.2.1.2.3v.4l-.3.1-.2.2-.5.4-.2.2v.1l-.3.3v2.5l.1.1.3.2.2.2.4.3v.3l-.1.4-.3.1-.2.2-.4.3v.1l-.1.3v.4l.2.2.2.2.3.3.1.2v.4l.3.3.1.4v.9l-.1.2-.3.2-.2.2-.2.1-.1.2-.4.4-.2.2-.2.2v1.7l-.1.2v.2l-.3.2v.9l-.3.2v.3l.3.1.1.3.2.3v1l-.3.3v2.3l-.2.4-.1.3-.1.2-.2.4-.1.5v.1l-.1.2v1.2l.3.2.2.2.3.3.2.3.1.3.1.4v.3l-.1.2-.3.3v1.7l.1.4.3.3h.5l.2.1v.2l.1.3v.4l-.2.4v.8l.1.2.3.2.3.2h.4l.4.4.2.2v.4l.2.2v.3l-.5.1-.2.2-.2.2-.2.2-.2.3v1.1l.4.4.3.6.2.2.2.2.1.3v.2l-.1.2-.2.4-.1.4v.5l.2.3v.3l.1.4.3.3v.2l.2.1h.5l.3.2.5.2h.2l.3.3.4.4.1.3v.8l-.3.2-.2.3v1.3l.4.3v.4l.2.4.2.5v.2l.4.2.2.1.3.1.4.2h.3l.1.3h.1v.5l.2.4v.3l.2.3.3.3.3.5.1.3.3.1.3.4.2.1.5.2.2.3.2.3h.3l.3-.2h.4l.1-.1h.2l.2-.2.1-.2h.1l.1-.2h.2l.2-.1h.2v-.9h-.2l-.1-.3v-.3h.7v.2h.3l.1.2h.8l.1-.4h.2v-.1l.3-.1h1l.1-.2.1-.1h.1l.2-.3v-.1l.3-.2v-.3l.1-.2h.2l.4-.2.3-.2.3-.2.3-.2.2-.2.2-.1h.9v-.3h.3l.1-.1"/><path id="Y" d="M213.1 264.7l-.6-.7h-.5l-.3-.2h-.7l-.7.5h-.7l-.6-.3-.3-.2h-.3l-.3-.4H207l-.3.2-.2.1-.3.5-.1.6-.4.7-.8 1-.7.8-.7.5-.4.3-2.1 1.7-.3.2v.3l-.3.1v.9l.5.4.4.5.3.2.4.6h.2l.3.5.7 1 .2.2v2.4l.2.1.1.1.3.3.3.1.1.3.2.3.2.2v.5l.3.4v.3l.3.7.1.6-.1.4-.1.1-.5.3-.8 1-.7.5-.4.6-.4.4-.8 1.2-.4 1-.6 1.1-.1.4v1.2l.1.4.2.5.3 1 .2.2.2.8.2.5.2.9.5 1 .2.5.2.3.4.7.6 1.1.2.3h.9l1.4-.3h1l.4-.1h.2l.3-.3.3-.1h.4v-.2h.6l.4-.4.3-.5.1-.2.1-.3v-.4l.3-.6.1-.2.1-.2h.6l.8-.2h.4l.2-.1.3-.3h.7l.6-.2 1-.2.4-.2.8-.2h.5l.4-.2h.7l.4-.3.9-.7.1-.1.2-.2.3-.4.3-.3h.2l.2-.2h.5l.3-.1.2-.3.8-.8.6-.4.3-.3.4-.3.6-.4 1.2-.6.3-.1h.5v.1l.3.2.1.3.1.4.2 1.3.3 1.6v6.4l.3.4.3 1 .3.4.4.7.3.7.1.5.3.5"/><path id="Z" d="M75.7 99l.1-.5.3-.3v-1.8l-.4-.2v-.4l.5-.4.1-.2.3-.4.3-.4V94l-.2-.2v-.5l-.1-.4-.2-.6v-.4l-.1-.4-.2-.2-.1-.3v-.2l-.3-.4v-.9l.3-.3v-.3l.5-.3.2-.1.5.1h.5l.6-.6h.2v-.8l-.2-.1-.3-.2h-.4l-.2-.2-.4-.3v-.7l.5-.2.3-.3.2-.2h1l.5.2.5.2h.6l.4-.1.2-.5v-.5L81 84h-.2v-1.3l-.2-.3v-.5l.2-.2.2-.2.3-.3.3-.2.6-.2.4-.4.4-.3v-.3l.5-.3.3.2h.4l.3-.2.2-.3.3-.1h.3l.7.1.4.1 1-.2.4-.1.4-.6.4-.4.1-.2.1-.3v-.7l.2-.3v-.4l.2-.1v-.5l-.2-.2v-1.2l.2-.4.2-.3.5-.1.2-.3.1-.2.2-.3.2-.3.4-.3.2-.2.2-.2.1-.3.2-.2.3-.2.4-.1h.4l.4.1.4.3h.5l.5.3.5.1.2.5.3.4.4.6.2.2h1.1l.7-.2.5-.5h.6l.3-.2.6-.3v-.6l.5-.2v-1l-.3-.4v-.3l.3-.3.2-.4.4-.2.5-.2.4-.4.5-.6.4-.4h.1l.5.3.7-.3h.5l.3.3.6.2.9.6.5.7.3.8.2.3h.5l.3-.1.2-.4.3-.3.2-.4.3-.3h.3l.2-.1h.3l.2.1-.2.2-.1.1v.3l-.1.2v.2l-.2.2v.1h.3v.6h.2v.7h.3v.3l-.4.3v.4h.3l.2.1.4.2h.2l.3-.4.3-.2.4-.1.4-.2.7-.3h.3l.3-.5h.1l.3-.1.3.2.3.3.2-.3v-.4l.5-.3h.2l.2-.5.2-.5.4-.5h.7l.2-.3.1.4v.4h.2l.5.2h.8v-.5h.6l.1.5.2.2.1.3.2.4.1.5v.2l.3.3.3.4.2.3"/><path id="a" d="M121.2 71.8v.5l.4.4.5.3.6.4.3.3h1.2l.2.5h.6l.3-.1v.7h.4l.3-.4V74l-.3-.4 1.1-.9.6-.1.1.1h.3l.2.1v.2l.2.1h.4v-.8l-.1-.3-.1-.2h-.2V71l-.2-.2v-.5l-.2-.2v-.5l.2-.4V69l5.4-3.2.3-.2.2-.1h.4l.3.1h.7l.2.4h.3l.2.3.4.4v.8l.4.2h.1l.2.5h.2l.2-.2.2-.1.3-.2h.5v-.3h1v.5l-.3.3-.2.1-.1.1v.4h.2l.2-.3h.1v-.2h.6l.6.3h.4l.3.3 1.7.1.3.1h1.3l.2.1h.2l.5.6.5.3h.3l.3.3h.4v.6h.6v-.4l-.1-.2.1-.2.1-.1v-.4l.3-.4v-.2l.2-.4.1-.3.2-.2h.5l.1-.2.1-.2h.2v.1h.2l.6-.3h.2l.1.4.1.3h.1l.3.3.3.1v.8h.3l.3-.1v.2l-.1.2v.5l.1.5.2.1.2.1h.2l.8-.2.5-.1.3.1.3-.1v-.2l.2-.2.1-.3h.7l.2-.1.2-.5.2-.1.4-.4-.1-.3v-.5l.2-.1v-.4l.3-.1.2-.8v-.2l.5-.2V66l.3-.2h.4v.4h.8l.3.5.1.5.3.1.2-.1.4-.5v-.6l.2-.1v-.6l-.2-.4-.1-.2v-.4l.3-.2.3-.1h.2l.5-.5h.3l.4.4h.8v.1l.2.3h.1l.3-.1h.2l.3-.3.1-.5h.4l.2.2.2.3h1.4l.2.3.4.2.2.1.8.5v.6l.3-.2h.2l.2-.1.2-.4h.3l.3-.3v1.7l-.2.6-.3.4-.2.6-.2.2-.2.4-.4.2-.2.2-.3.2-.3.2-.4.5-.3.4-.3.2-.2.5-.2.3-.1.4-.1.2v.8l.2.2v.2"/><path id="b" d="M232.1 267.6l-.4-.4-.5-.5-.4-.7-.5-.3-.6-.7-1-1-.5-.1-.8-.9-1-.9-.3-.1h-.3l-.5-.3h-.9l-.4-.1h-.3l-.5-.1h-.3l-.7-.2h-1.8l-.4.2v.2l-.6.6v.2l-.4 1v1l.4.9v.5l-.6.3-.4.6-.4.4v.2l-.4-.1-.1-.3-.3-.2-.9-.8-.5-.1-.4-.3-1-.3-.9-.3-.4-.4-.6-.5-.3-.1h-.2l-.3-.2h-.7l-.7.5h-.7l-.6-.3-.3-.2h-.3l-.3-.4H207l-.3.2-.2.1-.3.5-.1.6-.4.7-.8 1-.7.8-.7.5-.4.3-2.1 1.7-.3.2v.3l-.3.1v.9l.5.4.4.5.3.2.4.6h.2l.3.5.7 1 .2.2v2.4l.2.1.1.1.3.3.3.1.1.3.2.3.2.2v.5l.3.4v.3l.3.7.1.6-.1.4-.1.1-.5.3-.8 1-.7.5-.4.6-.4.4-.8 1.2-.4 1-.6 1.1-.1.4v1.2l.1.4.2.5.3 1 .2.2.2.8.2.5.2.9.5 1 .2.5.2.3.4.7.6 1.1.2.3h.9l1.4-.3h1l.4-.1h.2l.3-.3.3-.1h.4v-.2h.6l.4-.4.3-.5.1-.2.1-.3v-.4l.3-.6.1-.2.1-.2h.6l.8-.2h.4l.2-.1.3-.3h.7l.6-.2 1-.2.4-.2.8-.2h.2"/><path id="c" d="M178.3 13.4l.1.2.1.3v.6l-.2.5-.2.3-.1.3v.4l-.3.6v.6l.3.3.2.5.3.2.3.1.4.1h1.5l.2-.2h.2l.4.4.3.4.2.3v.6l.3.2v.2l.2.1h.5l.2-.3.3-.1.4-.4.4-.3h1l.5.3h.2l.3.2h.3l.6.2.4.1.2.2V22l.4.5.1.5.2.2.1.3.1.5.3.7v1l-.1.2h-.2v.6l-.2.2v.5l.4.3v.8l-.5.1-.2.2-.2.2-.2.4-.2.2v.7l.2.4.1.3v.8l-.1.2-.3.1h-.3l-.4.1h-.2l-.2.1-.1.2-.3.1-.3.2-.4.4-.3.1-.1.2-.1.2v.4l-.2.4v.3l-.2.2-.3.2-.1.1-.3.1-.1.2-.2.3-.1.2-.1.4-.2.4-.5.3-.3.5-.5.4-.2.3-.1.1-.1.3v.8l.1.6v.4l.3.4.1.2.2.2.2.3v.2l.2.2v.8l.3.3v1.5l.3.5v.5l-.2.2-.2.2-.3.2-.3.2h-.4l-.2.2h-.6l-.3-.4h-1l-.6.2-.3.2h-1l-.3.1-.2.2-.3.3-.4.5-.2.2v.2l-.2.2v.2l.3.4.1.4v1.2l-.2.3v.1l-.3.3-.4.2-.5.3-.3.1h-.8l-.2.3-.3.4v1.2l-.1.2-.1.3-.2.3v.6l.2.2.2.1v.2l.2.3v.5l-.4.2-.1.5-.1.3v.7l.3.5v1l.2.6v.4l-.5.2-.5.1h-.6l-.6.2-.5.3-.2.2-.2.2-.3.1-.3.2-.3.2-.3.2-.3.2v.4l.1.7.3.2.2.2v.6l-.3.3h-.2l-.3.4-.2.1h-.4l-.1.2V65l-.8-.4h-.1l-.2-.2-.3-.1-.2-.3h-.7l-.2-.1h-.5l-.2-.2-.2-.2h-.4l-.1.5h-.5l-.3.6v-.2l-.3-.3V64h-.8l-.4-.3h-.3l-.5.3h-.2l-.3.3-.3.1v.6"/><path id="d" d="M-.6 227.6v-.1l-.2-.2-.2-.1-.3-.2-.2-.2-.1-.1-.1-.2v-.5h.1l.3-.1v-.1l.1-.2v-.3l-.2-.3h-.8v.3h-.2l-.2.2H-3v.1h-.1l-.3.3h-.2l-.2.2-.1.1-.2.2-.2.2-.1.2-.2.2-.2.2-.2.2h-.8v.5l.1.1.1.1.2.2v.4l.2.1v.2h.2v.1l.2.2v.2h.1v.1l.1.1v.3H-5v.1h-1v.2h-.1v.1h-.2v.4h.4v-.3h.7l.1.2v.3l-.4.1v.2h-.3v.5l-.1.2v.5h.3v.7h-.3l-.1.2h-.3l-.1.1h-.1v.3h.3v1.4h-1v.2h-.1v.6h.3v.2h.1l.1.1h.2v.6h.1v.1h.2v.2l.3.2v.1h.2l.1.1h.3v.2h.1v.4l-.3.1-.1.1v.1l-.2.1v.3h.4v.1h.7v.3h.3l.1.3.2.1.1.1.1.2.3.1.1.2h.1l.1.1h.1l.1.1v.2h-.2v.3h-.1v.4h1.2l.3-.4h.7v.3h.1l.2.2.2.2v.1h.1v.4H-1v.2l.2.2h.3v.3l-.3.1H-1v.2h-.3v.1h-.3v.3l.3.1h.1v.1h.6v-.3h.2v-.1l.1-.1.1-.2H0v-.1h1v.4H.7v.1H.6v.2l-.1.2v.1l.3.3v.4h-2v.3h.5v.2l.1.1v.1l-.2.1-.2.2v.2l-.3.1v.3l-.1.2v.2h.6v.5l.2.1v.3H-1v.7l.2.2v.1h.2v.1h.1v.3h-.4l-.1.3h-.2v.2h-.6v.1H-2v.2h-.2v-.8l-.2-.2h-.1l-.1-.1h-.7l-.2-.4-.1-.1-.1-.2-.1-.1v-.9l-.2-.1h-.1l-.1-.3h-.1v-1h-.1l-.1-.1h-.3l-.2.3-.1.2h-.5v-.3l-.2-.1v-.3h-.1l-.1-.1h-.3v.4h-.2v.4h.3l.1.2v.4h-.3v.1h-.1v.1h-.2v.1H-7v-.5h-.2l-.1-.3v-.6h-.4l-.2-.2H-8v-.1h-.3l-.2-.1h-.3v.3H-9v.3h.6v.3H-9v-.2h-.2v-.1h-.1l-.1-.1h-.3v.3h-.1v.3h-.2v-.2h-.5v.5h-.2v.1h-.1v.1h-.6v-.3h-.4.3v-.1l.1-.1v-.2h-.3v.3h-.1v-.3h-.2v.3h-.8v.1l-.1.1h-.1v.1h-.2v.1h-.1v.1h-.4v.1h-.9l-.1.1h-.6v-.4h-.6v-.3h-.1v-.3h-.2v-.2h-.2l-.1-.1h-.3v-.2h-.1l-.1-.1h-.4v-.1h-.1v-.1h-.4v.2h-.3v-.3h-.1v.3h-1.1v-.3h-.1v-.1l-.1-.2v-.2h-.1v-.1h-.2l-.1-.1v-.2h-.2v-.1h-.2v.3h-.2v.2h-.1l-.1.2v.4l-.2.1v1.3h-.3v-.2h-.1l-.1-.2h-.1l-.2-.2h-.2v-.4l-.4-.1-.2-.2-.3-.1v-.2"/><path id="e" d="M229 299.3h-.2l-.2-.6-.3-.7-.4-.8-.2-.4v-6.4l-.3-1.6-.2-1.3-.1-.4-.2-.3-.1-.2h-.1l-.2-.2h-.6l-1.2.9-.7.3-.3.4-.3.2-.6.4-.7.8-.3.3h-.3l-.5.2h-.2l-.2.1-.3.3-.3.4-.2.2-.1.1-.9.7-.4.2-.7.1-.4.2h-.5l-.8.2-.4.2-1 .2-.6.1-.7.2-.3.2h-.6l-.8.4h-.5l-.1.1-.3.2-.1.6v.4l-.3.3v.2l-.3.5-.5.4-.3.1h-.6l-.3.3-.3.2h-.2l-.4.2h-1l-1.4.2h-1v-.2l-.7-1.1-.4-.9-.2-.3-.2-.4-.5-1-.2-1-.2-.3-.2-.8-.2-.4-.2-.9-.3-.5-.1-.4V288l.2-.4.4-1v-.2l.7-1 .5-1 .6-.5.3-.5.8-.7.7-.9.5-.3v-.1l.3-.4-.3-.6-.1-.7-.2-.3-.1-.4-.2-.5v-.2l-.3-.4-.1-.2-.3-.1-.3-.3-.2-.1v-2l-.2-.4-.1-.4-.7-1-.3-.2-.2-.2-.4-.6-.3-.2-.5-.5-.2-.4-.1-.3v-.7l.1-.3.6-.2 1.8-1.8.5-.2.7-.5.7-.8.8-1 .3-.7.3-.7.1-.3.4-.3h.2l.4-.1h.6l.4.3.3.1.3.2.6.2h.7l.8-.2h.3l.3-.2h.5l.3.4.5.4.5.4 1.2.4"/><path id="f" d="M164.6-20.1v-1.3l.2-.1.2-.3h.1l.3-.2h.9l.2.3.2.1.3.3v.5l.2.5v1.5l-.2.3v.6l.2.3.3.5.3.3.2.3.1.2v.5l.3.3v.3l.3.2.1.2.2.2v.5l-.3.7v.3l-.2.3v2.2l-.2.2h-.1l-.2.3h-.4l-.3.1h-1.4l-.1-.3v-.4l-.4-.3h-.8l-.2.3v.7l-.1.1-.1.1v.6l-.2.2-.4.2-.5.5-.1.2-.3.3-.1.3-.1.3v.8l.2.3.3.7.4.4.3.3h.5l.2-.1.2-.3.4-.2v-.2h.7l.1.3.2.2v.6l-.5.2-.1.2-.2.3-.1.2-.2.4v.1l-.2.3v2l.3.7.2.8.2.5.2.3v.6l.3.5v.2l.2.3.3.3h.7l.2-.2V3h.6l.3.3.3.3.2.4.3.1.2.1h.6l.4.2h.3l.3.2.4.2.3.3.5.4.3.7.1.3.6 1.6.4 1.2.4 1.1.3.6.2.2.7.5.4.3.4.3h.6l.8.2h.2l.4.2.4.5.2.4.1.3v.6l-.2.5-.2.3-.1.3v.4l-.3.6v.6l.3.3.2.5.3.2.3.1.4.1h1.5l.2-.2h.2l.4.4.3.4.2.3v.6l.3.2v.2l.2.1h.5l.2-.3.3-.1.4-.4.4-.3h1l.5.3h.2l.3.2h.3l.6.2.4.1.2.2V22l.4.5.1.5.2.2.1.3.1.5.3.7v1l-.1.2h-.2v.6l-.2.2v.5l.4.3v.8l-.5.1-.2.2-.2.2-.2.4-.2.2v.7l.2.4.1.3v.8l-.1.2-.3.1h-.3l-.4.1h-.2l-.2.1-.1.2-.3.1-.3.2-.4.4"/><path id="g" d="M206.3 264.2l-.2.6-.4.7-.8 1-.7.8-.7.5-.4.3-2.1 1.7-.3.2v.3l-.3.1v.9l.5.4.4.5.3.2.4.6h.2l.3.5.7 1 .2.2v2.4l.2.1.1.1.3.3.3.1.1.3.2.3.2.2v.5l.3.4v.3l.3.7.1.6-.1.4-.1.1-.5.3-.8 1-.7.5-.4.6-.4.4-.8 1.2-.4 1-.6 1.1-.1.4v1.2l.1.4.2.5.3 1 .2.2.2.8.2.5.2.9.5 1 .2.5.2.3.4.7.6 1.1.2.3h.9l1.4-.3h1l.4-.1h.2l.3-.3.3-.1h.4v-.2h.6l.4-.4.3-.5.1-.2.1-.3v-.4l.3-.6.1-.2.1-.2h.6l.8-.2h.4l.2-.1.3-.3h.7l.6-.2 1-.2.4-.2.8-.2h.5l.4-.2h.7l.4-.3.9-.7.1-.1.2-.2.3-.4.3-.3h.2l.2-.2h.5l.3-.1.2-.3.8-.8.6-.4.3-.3.4-.3.6-.4 1.2-.6.3-.1h.5v.1l.3.2.1.3.1.4.2 1.3.3 1.6v6.4l.3.4.3 1 .3.4.4.7.3.7.1.5.4.7.2.5.2.3.3.6.1.6.2.5v2.6l.2 1.3v.8"/><path id="h" d="M185.3 32.9l-.3.2-.1.2-.1.2v.4l-.2.4v.3l-.2.2-.3.2-.1.1-.3.1-.1.2-.2.3-.1.2-.1.4-.2.4-.5.3-.3.5-.5.4-.2.3-.1.1-.1.3v.8l.1.6v.4l.3.4.1.2.2.2.2.3v.2l.2.2v.8l.3.3v1.5l.3.5v.5l-.2.2-.2.2-.3.2-.3.2h-.4l-.2.2h-.6l-.3-.4h-1l-.6.2-.3.2h-1l-.3.1-.2.2-.3.3-.4.5-.2.2v.2l-.2.2v.2l.3.4.1.4v1.2l-.2.3v.1l-.3.3-.4.2-.5.3-.3.1h-.8l-.2.3-.3.4v1.2l-.1.2-.1.3-.2.3v.6l.2.2.2.1v.2l.2.3v.5l-.4.2-.1.5-.1.3v.7l.3.5v1l.2.6v.4l-.5.2-.5.1h-.6l-.6.2-.5.3-.2.2-.2.2-.3.1-.3.2-.3.2-.3.2-.3.2v.4l.1.7.3.2.2.2v2.3l-.2.6-.3.4-.2.6-.2.2-.2.4-.4.2-.2.2-.3.2-.3.2-.4.5-.3.4-.3.2-.2.5-.2.3-.1.4-.1.2v.8l.2.2v.8l-.4.3v.2l-.2.3-.1.2v.3l-.1.3v.2l.3.3.5.6.4.6v1.6l-.2.5-.2.2h-1.9l-.2.2-.2.1-.2.2v.9l-.2.5v.2l.2.2v.8l-.1.3-.2.5V86h-.3v.7l-.1.3h-.2l-.1.2v.2l-.3.2v.2l-.1.3v1.1l-.2.5-.1.3-.1.5v.2l-.3.3v.2l-.2.2v.2l-.1.2-.2.3-.1.2h-.4l-.3.3h-.2l-.1.3-.2.3-.1.4-.1.3v.1l-.2.4v.3l-.2.3-.1.2-.1.1v.7l.4.3v1l-.3.2v1.8l-.3.5v.7l.2.5v.4l-.2.6-.4.8"/><path id="i" d="M158 102.9v.4l-.4.4-.3.3-.3.1h-1.3v-.2l-.3-.2v-1.2h-.4l-.1.4-.1.1-.1.4v1.4l-.2.2h-.2l-.3.3v.1l-.1.2v.4l-.3.1-.2.3-.1.2-.1.4-.2.2v.5l-.1.3v.2l-.3.1.1.2-.3.2-.2.1-.2.2v.6h.2l.1.2.1.2h.1l.1.3v1.1l-.4.2-.1.2-.3.2-.2.1-.3.2-.1.1-.2.3v.2h-.3l-.1.1h-.1l-.1.3-.5.3v.2l-.2.1v.5l.3.2.1.1h.1l.2.3.2.2.1.3v.4l-.1.3-.2.2-.2.3-.1.3v.3l.2.2.1.2.2.3v1.4l-.3.3v.6l-.1.3-.2.2v.9l.4.3.2.3v.4l-.1.2v.3l-.2.1v.6l.4.1v.2l.2.3.2.2.3.2.2.2.5.1.3.2.3.1h.5l.1-.3h.2l.2.4-.4.2h-.1l-.2.2-.5.1h-.2l-.1.2-.2.1v.9h.5l.1-.3h.2l.2-.2h.5l.3.3v.6l-.1.3-.2.3v.7l-.1.3v1l-.1.2-.3.4-.3.5-.2.4-.2.3-.1.4-.2.3v1.3l-.2.2v.2l-.2.2-.2.3-.2.2v.4l.1.1h.1l.1-.2.2-.1.1-.1h.5l.2.4.3.3v.5l-.4.2v1.2l.2.7v.4l.2.1.2.6.2.7.2.5.2.5v.4l.3.4v1l.1.3.3.4.1.5.1.2v1.4l-.3.5v.4l.4.1.1.3.3.2h.2l.2.2h.1l.5-.3v-.2h1.3l.2.5v.2h-.2l-.2.3h-.4l-.2.1-.3.2-.2.2-.2.3v.3l.2.2.1.2h.7l.3.2.2.1.2.3v.4l-.3.1-.2.2-.5.4-.2.2v.1l-.3.3v2.5l.1.1.3.2.2.2.4.3v.3l-.1.4-.3.1-.2.2-.4.3v.1l-.1.3v.4l.2.2.2.2.3.3.1.2v.4l.3.3.1.4v.9l-.1.2-.3.2-.2.2-.2.1-.1.2-.4.4-.2.2-.2.2v1.7l-.1.2v.2l-.3.2v.9l-.3.2v.3l.3.1.1.3.2.3"/><path id="j" d="M155.3 166.4v1l-.3.3v2.3l-.2.4-.1.3-.1.2-.2.4-.1.5v.1l-.1.2v1.2l.3.2.2.2.3.3.2.3.1.3.1.4v.3l-.1.2-.3.3v1.7l.1.4.3.3h.5l.2.1v.2l.1.3v.4l-.2.4v.8l.1.2.3.2.3.2h.4l.4.4.2.2v.4l.2.2v.3l-.5.1-.2.2-.2.2-.2.2-.2.3v1.1l.4.4.3.6.2.2.2.2.1.3v.2l-.1.2-.2.4-.1.4v.5l.2.3v.3l.1.4.3.3v.2l.2.1h.5l.3.2.5.2h.2l.3.3.4.4.1.3v.8l-.3.2-.2.3v1.3l.4.3v.4l.2.4.2.5v.2l.4.2.2.1.3.1.4.2h.3l.1.3h.1v.5l.2.4v.3l.2.3.3.3.3.5.1.3.3.1.3.4.2.1.5.2.2.3.2.3h.3l.3-.2h.4l.1-.1h.2l.2-.2.1-.2h.1l.1-.2h.2l.2-.1h.2v-.9h-.2l-.1-.3v-.3h.7v.2h.3l.1.2h.8l.1-.4h.2v-.1l.3-.1h1l.1-.2.1-.1h.1l.2-.3v-.1l.3-.2v-.3l.1-.2h.2l.4-.2.3-.2.3-.2.3-.2.2-.2.2-.1h.9v-.3h.3l.3-.2h.2l.2-.1h.1l.2-.2h.5l.3-.2h.9v.3h.5l.1.1h.5l.1.2h.5l.1-.4h.5l.3.4h.3l.4.2h.6l.2-.3h1.3l.1.3h.4l.3-.4h.4l.2.4h.2l.3.1h1.8l.2.2h.6l.3-.2h.4l.2.2h.3l.2.2.2.1.3.3h.1l.2.2h.4v-.3h.3v-.4h.3l.2-.2h.3v.2l.4.1h.3l.3.2h.2l.1.2.2.2h.2v.2l.1.2.1.2h.8l.2.3.2.1h1l.2.3.2.1.2.3h.5l.1.3.2.1h.1l.2-.1.1-.1.3-.2h.1l.4-.3h.2l.3-.2.5-.4 1-1 .3-.2.9-1 .8-.6.7-.7.6-.7 1.3-1"/><path id="k" d="M229.6 234.5h.4l.8-.3h.5l1.4-.5h.2l.6.2.3.2h.2l1 .3.5.2h.4l.8.6 1.3 1 .3.6.4.6.3.6 1 1.9.3.1.1.2.3.2.4.1.2.2h1.1l1.3.3h.3l.2.3.7.8.3.5.2.6.1.2.2.3.3.4.3 1.2.4 1.1-.1.3-.2.1-.2.3-.4.5-.4.4-.2.3-.4.7-.3.4-.1.1v.1l-.3.4-.1.5v2.4l.3.4v2.3l-.4.6-.2.8v2.3l-.3.1-.6 1.2-.8 1.4-.6 1-.4.5-.4.5-.4.7-.9 1.3-1 1.7-.4.6-.2.2h-1l-1 .3-1.7.2h-.6l-.2-.1-1.5-1.7-.5-.5-.4-.7-.5-.3-.6-.7-1-1-.5-.1-.8-.9-1-.9-.3-.1h-.3l-.5-.3h-.9l-.4-.1h-.3l-.5-.1h-.3l-.7-.2h-1.8l-.4.2v.2l-.6.6v.2l-.4 1v1l.4.9v.5l-.6.3-.4.6-.4.4v.2l-.4-.1-.1-.3-.3-.2-.9-.8-.5-.1-.4-.3-1-.3-.9-.3-.4-.4-.6-.5-.3-.1h-.2l-.3-.2h-.7l-.7.5h-.7l-.6-.3-.3-.2h-.3l-.3-.4H207l-.3.2-.2.1-.3.5"/><path id="l" d="M226 228.4h-.5l-.6-.2h-.2l-.1-.2h-.2l-.1-.4-.1-.2-.2-.3v-.1l-.2-.2v-.5l.3-.2h.1l.3-.3.3-.1.2-.1.2-.2.2-.2v-.2h.3l.1-.4.2-.1v-.1h.5v-.2l.1-.2h.2l.1-.3.1-.1.2-.6.2-.2.1-.3.2-.2.1-.2.3-.1h.1l.2-.4h.2l.2-.3.1-.1.1-.1v-.7l.2-.4v-.6l.2-.3v-.5l-.1-.2v-.5l.1-.2.2-.3.1-.2v-1.3l-.2-.2-.4-.3-.9-.4-.2-.2-.3-.4v-1.5l-.1-.2-.3-.3h-.6l-.2-.1v-.7l.2-.3.1-.5v-.3l.4-1v-.2l.2-.3v-.8l.3-.2.5-.3.2-.1.2-.2.4-.2h.7l.2-.2h.2v-.3h.5l.1.3h.2l.1.2h.8l.3-.4h.2v-.2h.2l.1-.3h.8l.1-.2.1-.3.2-.4.3-.7v-.6l-.5-1.5v-.6l.4-.5v-.1l.5-.7.1-.3.1-.3v-.5l.3-.5v-.2l-1-1.4-.7-.9-.6-1.2-.2-.4h-.2l-.4-.3h-.9l-.3-.1-.1-.4-.6-.7-.5-.7-.1-.2h-.7l-.5.3-.4.1-1 .2-.6.2-.7.2-.4.2-1.1.2v.1h-.2l-.2-.1-.2-.4-.4-.4-1-.6-.4-.1-.3-.2-.3-.4-.3-.6-.3-.3h-.2l-.2-.2h-.4l-.6-.1h-.6l-1.1-.6-.3-.2-.4-.2-.3-.1-.3-.4-.1-.5-.2-.4v-.4l-.4-.3-.3-.2-.3-.2-.5-.2-.4-.3-.3-.1H212l-.4.1-1.8.7-1.4.6-2 1.8-.9 1-2.2 1.8-.6.7-.7.6-.8.8-1 1h-.2l-1 1.2-.6.3-.2.3h-.2l-.4.1"/><path id="m" d="M197.5 197.7l-.3.3h-.1l-.2.2h-.3v-.5h-.8v-.4l-.3-.1h-.9l-.2-.2-.2-.2-.2-.1h-.8v-.4l-.2-.1v-.2h-.2l-.2-.3h-.2l-.2-.2-.1-.1h-.7l-.1-.3h-.6l-.2.4-.1.1-.1.2h-.1l-.2.2h-.4l-.1-.2-.3-.3-.2-.1-.2-.2h-.3l-.2-.2h-.7l-.2.2h-.4l-.2-.2h-.6l-.2-.1h-1.5l-.3-.3h-.8l-.2.3h-.2l-.3-.3h-1.4l-.1.3h-.6l-.4-.4h-.1l-.1-.1h-.5l-.2.1h-.1l-.2.2h-.5l-.2-.4h-.5l-.2-.1-.1-.1h-1.2l-.3.4h-.3l-.2.2h-.2l-.3.2-.2.1h-.1l-.1.1h-.9l-.1.1-.2.2-.4.2-.2.2-.3.2-.5.2-.2.2v.1l-.2.2v.2l-.1.2-.2.1-.1.1-.1.2h-.3l-.2.2h-.8l-.1.2h-.2l-.1.1-.2.1h-.9l-.1-.3-.2-.2h-.3l-.1.4h-.1v.3h.2v.9l-.1.3h-.4v.1h-.2v.3l-.3.1h-.2v.2h-.5l-.3.1h-.3l-.2-.3-.3-.3-.4-.2-.2-.1-.3-.4h-.3l-.1-.4-.3-.5-.3-.3-.2-.3v-.3l-.2-.5v-.2l-.1-.1v-.1l-.1-.3h-.4l-.3-.2-.3-.1-.4-.1v-.2l-.2-.2-.3-.5-.1-.4-.1-.4-.1-.3v-.8l-.2-.2v-.3l.3-.3.1-.3h.1v-.7l-.1-.3-.4-.4-.3-.3-.2-.1-.4-.2h-.7l-.2-.2h-.2v-.3l-.3-.2v-.4l-.2-.3-.1-.3v-.9l.4-.4v-.4l-.1-.3-.2-.2-.2-.2-.3-.6-.3-.4-.2-.4v-.4l.2-.3.1-.3.2-.2.2-.3h.3l.2-.3v-.1l.2-.1v-.3l-.2-.3-.2-.3-.5-.2-.3-.1-.3-.2-.3-.2v-.2l-.1-.2v-.6l.1-.4.1-.2v-.5l-.2-.2h-.1l-.1-.3h-.6v-.1l-.2-.4v-1.7l.4-.3v-.2l.1-.4v-.3l-.4-.3-.1-.3-.3-.3-.3-.2-.1-.2v-.4l-.2-.4v-.6l.2-.1.1-.5.2-.3v-.3l.4-.3v-.6l.2-.2v-.6l-.2-.1v-1.2l.3-.3v-1l-.3-.4v-.5h-.3v-.4l.3-.1.1-.7.1-.2.1-.1v-1.8l.2-.2.1-.2.2-.2.4-.4.1-.2h.2l.2-.3.3-.2v-.2l.2-.1v-.8l-.3-.4-.1-.3-.1-.4-.1-.2h-.1"/><path id="n" d="M204.6 191.6l.9-.8 1-1 1.9-1.8 1.3-.6 1.9-.7.5-.1h1.4l.3.1.4.3.5.2.3.2.3.2.3.4.2.3v.4l.3.5.2.4.3.1.4.3.3.2 1.1.4h.3l.3.3h.6l.3.1h.3l.3.1.1.1v.1l.4.7.3.3.3.2.4.1 1 .6.4.4.2.4.2.2h.1l.2-.2 1-.2.4-.2.8-.2.4-.2 1.1-.2h.4l.6-.4h.5l.3.2.4.7.5.7.3.4h.5l.6.2.4.2h.2l.2.4.6 1.2.7.9 1 1.4v.2l-.3.5v.8l-.3.3-.4.7v.1l-.4.6v.5l.4 1.4v.7l-.2.7-.2.4v.4h-.6l-.3.3h-.3v.1l-.1.2-.3.1-.2.1h-1.1l-.2-.2h-.2l-.1-.1h-.2v.3l-.3.1h-.5l-.2.2-.4.1-.2.2-.2.1-.6.3-.2.2v.3l-.2.4v.7l-.4.9v.3l-.2.5v.5l-.3.2.2.3h.7l.1.2.3.2.1.2v1.5l.2.4.3.3.9.3.4.3.2.3v1.4l-.4.3v.2l-.1.3v.4l.3.3v.1l-.3.4v.4l-.2.4v.8l-.2.2v.2l-.2.2-.3.2h-.1l-.1.2-.3.1-.1.2-.2.2v.3l-.4.2-.1.6v.2l-.3.2-.1.1-.2.2h-.4v.3l-.2.1-.2.1-.1.2-.1.2-.2.2-.2.2-.2.1-.3.3h-.3l-.1.1-.2.2v.7l.1.1.2.3v.2l.3.3.1.1v.2h.4l.6.2h.4l.2.1.8.7.6.3h.4v1.4l-.3.5v.3l-.1.2v.1l-.1.1v.2l-.1.2v.2l-.1.2v.3h-.3v.3h.3l.1.2.6.4.5.2.8.2h.3"/><path id="o" d="M214.7 265.4l.7.2.5.4h.4l1 .8.1.2.3.3h.2l.5-.6.6-.5.3-.4.1-.2v-.1l-.4-1.1v-.8l.4-1.1v-.2l.6-.6v-.2l.4-.2h1.8l.8.3h.2l.5.1h.3l.4.1h.9l.5.2h.3l.3.2 1 .8.9 1h.3l1 1 .8.7.4.4.4.6.5.5 1.5 1.6.2.2h.2l.4-.1 1.6-.2 1-.1h1.2l.2-.4.3-.5 1-1.7.9-1.3.4-.6.4-.6.4-.5.5-1 1.1-1.3.4-1.3.2-.1v-1.8l.2-.4.2-1.1.2-.3v-2.3l-.2-.6v-2.3l.2-.6.1-.3.3-.3.2-.4.4-.6.2-.3.4-.4.4-.5.2-.3.2-.1v-.3l-.2-1.1-.4-1.2-.3-.4-.2-.3-.1-.2-.2-.6-.4-.5-.5-.8v-.1l-.5-.1h-.1l-1.3-.4h-1.1l-.2-.2-.4-.1-.3-.2-.2-.2h-.1l-1.1-2-.4-.6-.3-.6-.3-.6-1.3-1-.7-.6h-.5l-.5-.3-1-.2h-.1l-.4-.2-.6-.1h-.2l-1.4.2h-.5l-.8.6h-.7l-.8-.3-.5-.2-.5-.4-.3-.2v-.1l-.2-.1v-.3h.4v-.1l.1-.2v-.2l.1-.2v-.3h.1v-.2l.1-.1v-.3l.2-.5v-.4l.1-.7v-.3h-.1l-.4-.2h-.6v-.1l-.8-.7h-.2"/><path id="p" d="M156.5 158l-.2-.2-.2-.2-.2-.2v-.7l.3-.1.2-.3.2-.2.3-.2.1-.2v-.3l-.1-.1-.3-.3-.2-.2-.4-.2V152l.2-.3.1-.1.2-.2.5-.4.2-.2.2-.1v-.7h-.1l-.2-.2h-.9l-.1-.2-.2-.1v-.2l-.2-.2v-.1l.3-.3.2-.2.3-.2h.2l.4-.3.2-.1.2-.1v-.2l-.2-.3-.1-.1H156v.2l-.5.2h-.5l-.3-.4-.2-.2-.1-.1v-.9l.1-.2v-1.4l-.3-.5-.2-.4v-.3l-.2-.6v-.4l-.1-.4-.1-.4-.2-.5-.2-.5-.3-.7-.2-.6-.1-.6-.2-.5v-1l.1-.3.1-.2v-.8l-.1-.1-.2-.2-.1-.2h-.4l-.1.3h-.2v.2h-.3l-.1-.3v-.1l.3-.3.2-.3.2-.2v-.2l.2-.3v-.4l.2-.4v-.7l.2-.4.1-.3.2-.4.3-.4.3-.5v-1.2l.3-.3v-.7l.1-.3.2-.3v-.6l-.5-.3h-.4l-.2.1-.2.2-.1.2h-.5l-.2-.1v-.5l.2-.3.2-.2h.1l.2-.2.5-.1h.2l.2-.1.1-.2.2-.2h-.2l-.1-.2-.4.2h-.1l-.1.2h-.4l-.3-.5h-.5l-.2-.3-.3-.1-.1-.2-.3-.3-.1-.2h-.1l-.1-.3v-.8l.3-.2v-.4l-.3-.3-.4-.3v-1.1l.4-.3v-.6l.1-.3v-.4l.2-.4v-.6l-.3-.3-.1-.2-.3-.2v-.3l.2-.3.2-.3.2-.2.1-.3v-.4l-.1-.3-.2-.2-.2-.2-.1-.1h-.2v-.4l-.2-.2v-.3l.3-.2.4-.4v-.2h.4l.1-.1.1-.2.2-.3.1-.1.3-.3.2-.1h.2l.3-.4.2-.1.2-.4v-.7l-.2-.3-.3-.3h-.2v-.5l.1-.2v-.2l.4-.1.1-.2.2-.2v-.3l.2-.3v-.5l.2-.2.2-.4v-.2l.3-.3.1-.1v-.3l.2-.1.1-.2v-.1l.2-.3h.2l.2-.2v-1.7l.3-.3v-.2l.2-.2h.3v1.3l.1.2.1.2h1.3l.3-.1.3-.3.4-.4v-.5l.3-.6.1-.2.2-.6v-.9l-.2-.4v-.3l.2-.5V99l.3-.3v-1.2l.1-.2v-1.1l-.4-.2v-.7l.1-.1.3-.2v-.3l.1-.2V94"/><path id="q" d="M159.2 94v-.5l.3-.3.1-.4.1-.2.3-.1.2-.1h.2l.2-.2.1-.2.3-.2.1-.2v-.2l.1-.2.1-.2.1-.2v-.3l.3-.5.1-.3V88l.2-.2v-.2l.2-.2v-.2l.3-.2.1-.1v-.2h.3v-.6l.1-.1v-2.8l.3-.5v-.3l.1-.4v-.6l-.3-.2v-1.1l.3-.3.1-.2.2-.2h.2l.6-.1h1.3l.2-.3v-.4l.2-.4V77l-.4-.6-.6-.6-.1-.3-.1-.2V75l.1-.3.1-.2.2-.3v-.1l.3-.4v-1.3l-.1-.2v-.5l.3-.4.1-.3.2-.5.3-.2.3-.4.4-.5.3-.2.3-.2.3-.2.3-.2.2-.4.2-.2.2-.6.3-.4.2-.6V64l-.2-.1-.3-.2-.2-.7v-.2l.2-.2.2-.2.3-.2.3-.2.2-.2h.4l.2-.4.2-.1.5-.3.6-.2h1.1l.3-.4v-1.5l-.1-.4-.2-.5v-1.1l.3-.3.2-.4v-.7l-.1-.2h-.2l-.2-.3v-.6l.2-.4.1-.2.2-.2v-1.2l.1-.4.1-.1.3-.1h.7l.3-.3.5-.2.5-.2.2-.3v-.1l.2-.3v-1.6l-.4-.4V48l.2-.2.2-.2.4-.5.3-.3.2-.2h1.1l.2-.2.4-.1.5-.2h.8l.2.1.3.1.2.1h.6l.4-.1.3-.3h.3l.2-.3.1-.2V45l-.2-.5-.1-.6v-.8l-.1-.4v-.5l-.3-.2v-.6l-.2-.1-.2-.3-.2-.2-.1-.4v-.5l-.3-.5v-1.1l.4-.1.1-.3.5-.4.3-.5.5-.3.2-.4v-.4l.3-.2.1-.3.1-.2h.3V35l.4-.2.2-.2v-.3l.2-.4v-.4l.2-.2V33h.3l.4-.4.3-.2.3-.1.1-.3h1l.4-.3.1-.1v-.8l-.1-.3-.2-.5v-.6l.2-.2.2-.4.2-.2.3-.2.2-.1.1-.1v-.7l-.1-.3-.1-.2v-1h.2v-.1"/><path id="r" d="M188.8 25.9l.2-.2v-1l-.4-.7v-.5l-.2-.3-.1-.3-.2-.4-.2-.5-.1-.3v-1.4l-.2-.2-.4-.1h-.6l-.3-.3-.3-.1-.2-.1-.5-.1-.5-.2-.5.1-.3.3-.5.4-.3.2-.2.1-.2.1h-.4l-.1-.1-.1-.3h-.2v-.7l-.2-.3-.3-.4-.4-.3h-.4l-.3.1h-1.6l-.3-.3-.3-.1-.2-.5-.2-.3v-.6l.2-.6v-.7l.4-.3.1-.5v-.9l-.4-.4-.3-.5-.4-.2h-.2l-.8-.2h-.6l-.4-.3-.5-.3-.6-.5-.2-.3-.3-.5-.4-1.1L173 8l-.6-1.5-.1-.3-.4-.7-.4-.4-.3-.3-.4-.2-.3-.2h-.3l-.4-.2h-.6L169 4h-.3l-.2-.4-.3-.3-.4-.3h-.4l-.1.3-.3.2h-.6l-.3-.3-.1-.2-.2-.3-.1-.5v-.3l-.2-.3-.1-.3-.2-.5-.2-.8-.2-.7V-3l.4-.5v-.2l.2-.3.2-.2.2-.2.2-.2v-.7l-.4-.1-.1-.1h-.5v.2l-.4.3-.2.2-.2.1h-.5l-.3-.3-.4-.4-.3-.7-.2-.3v-1.1l.3-.3.2-.2.1-.3.5-.5.4-.3v-.2l.3-.3v-.4l.1-.1v-.6l.2-.3.2-.1h.2l.4.1.4.3v.4l.1.3h1.7l.3-.2.3-.1.2-.1.1-.2v-.4h.2v-2.4l.3-.7v-.5l-.2-.2-.2-.2-.2-.2-.1-.3-.1-.3v-.2l-.2-.3v-.2l-.3-.3-.2-.2-.3-.6v-.4l-.2-.3v-.5l.2-.4v-1.6l-.2-.2-.1-.3-.2-.3-.2-.2-.2-.1-.3-.1h-.6l-.4.1v.1l-.3.3v.1l-.1.2v1.3l-.3.1-.3.2-.2.2-.5.4-.3.3-.2.2-.3.3-.2.2-.3.2-.6.2-.4.2-.4.1h-.4v-.1l-.2-.3v-.3l-.2-.2-.3-.3-.3-.2-.2-.1-.3-.2h-.7l-.3-.1-.2-.1-.1-.2v-.3"/></defs></svg>