<svg xmlns="http://www.w3.org/2000/svg" xmlns:xlink="http://www.w3.org/1999/xlink" viewBox="0 0 497 279" xmlns:v="https://vecta.io/nano"><style><![CDATA[.B{fill:#aad3df}.C{stroke:#fff}.D{stroke:#8d618b}]]></style><defs><clipPath id="A"><path d="M0 0h32v32H0z"/></clipPath><g id="B" clip-path="url(#A)"><use xlink:href="#B"/></g><pattern id="C" width="32" height="32" patternTransform="translate(-53 -29.4)" patternUnits="userSpaceOnUse"><use xlink:href="#B"/></pattern><clipPath id="D"><path d="M0 0h32v32H0z"/></clipPath><pattern id="E" width="32" height="32" patternTransform="translate(-53 -29.4)" patternUnits="userSpaceOnUse"><g clip-path="url(#D)"><use xlink:href="#F"/></g></pattern><clipPath id="F"><path d="M0 0h32v32H0z"/></clipPath><pattern id="G" width="32" height="32" patternTransform="translate(-53 -29.4)" patternUnits="userSpaceOnUse"><g clip-path="url(#F)"><use xlink:href="#I"/></g></pattern><clipPath id="H"><path d="M0 0h32v32H0z"/></clipPath><g id="I" clip-path="url(#H)"><use xlink:href="#M"/></g><pattern id="J" width="32" height="32" patternTransform="translate(-53 -29.4)" patternUnits="userSpaceOnUse"><use xlink:href="#I"/></pattern><clipPath id="K"><path d="M0 0h32v32H0z"/></clipPath><pattern id="L" width="32" height="32" patternTransform="translate(-53 -29.4)" patternUnits="userSpaceOnUse"><g clip-path="url(#K)"><use xlink:href="#P"/></g></pattern><clipPath id="M"><path d="M0 0h32v32H0z"/></clipPath><pattern id="N" width="32" height="32" patternTransform="translate(-53 -29.4)" patternUnits="userSpaceOnUse"><g clip-path="url(#M)"><use xlink:href="#T"/></g></pattern><clipPath id="O"><path d="M0 0h32v32H0z"/></clipPath><g id="P" clip-path="url(#O)"><use xlink:href="#W"/></g><pattern id="Q" width="32" height="32" patternTransform="translate(-53 -29.4)" patternUnits="userSpaceOnUse"><use xlink:href="#P"/></pattern><clipPath id="R"><path d="M0 0h32v32H0z"/></clipPath><pattern id="S" width="32" height="32" patternTransform="translate(-53 -29.4)" patternUnits="userSpaceOnUse"><g clip-path="url(#R)"><use xlink:href="#a"/></g></pattern><clipPath id="T"><path d="M0 0h32v32H0z"/></clipPath><pattern id="U" width="32" height="32" patternTransform="translate(-53 -29.4)" patternUnits="userSpaceOnUse"><g clip-path="url(#T)"><use xlink:href="#d"/></g></pattern><clipPath id="V"><path d="M0 0h32v32H0z"/></clipPath><g id="W" clip-path="url(#V)"><use xlink:href="#h"/></g><pattern id="X" width="32" height="32" patternTransform="translate(-53 -29.4)" patternUnits="userSpaceOnUse"><use xlink:href="#W"/></pattern><clipPath id="Y"><path d="M0 0h32v32H0z"/></clipPath><pattern id="Z" width="32" height="32" patternTransform="translate(-53 -29.4)" patternUnits="userSpaceOnUse"><g clip-path="url(#Y)"><use xlink:href="#k"/></g></pattern><clipPath id="a"><path d="M0 0h32v32H0z"/></clipPath><pattern id="b" width="32" height="32" patternTransform="translate(-53 -29.4)" patternUnits="userSpaceOnUse"><g clip-path="url(#a)"><use xlink:href="#o"/></g></pattern><clipPath id="c"><path d="M0 0h32v32H0z"/></clipPath><g id="d" clip-path="url(#c)"><use xlink:href="#r"/></g><pattern id="e" width="32" height="32" patternTransform="translate(-53 -29.4)" patternUnits="userSpaceOnUse"><use xlink:href="#d"/></pattern><clipPath id="f"><path d="M0 0h32v32H0z"/></clipPath><pattern id="g" width="32" height="32" patternTransform="translate(-53 -29.4)" patternUnits="userSpaceOnUse"><g clip-path="url(#f)"><use xlink:href="#v"/></g></pattern><clipPath id="h"><path d="M0 0h32v32H0z"/></clipPath><pattern id="i" width="32" height="32" patternTransform="translate(-53 -29.4)" patternUnits="userSpaceOnUse"><g clip-path="url(#h)"><use xlink:href="#y"/></g></pattern><clipPath id="j"><path d="M0 0h32v32H0z"/></clipPath><g id="k" clip-path="url(#j)"><use xlink:href="#AC"/></g><pattern id="l" width="32" height="32" patternTransform="translate(-53 -29.4)" patternUnits="userSpaceOnUse"><use xlink:href="#k"/></pattern><clipPath id="m"><path d="M0 0h32v32H0z"/></clipPath><pattern id="n" width="32" height="32" patternTransform="translate(-53 -29.4)" patternUnits="userSpaceOnUse"><g clip-path="url(#m)"><use xlink:href="#AF"/></g></pattern><clipPath id="o"><path d="M0 0h32v32H0z"/></clipPath><pattern id="p" width="32" height="32" patternTransform="translate(-53 -29.4)" patternUnits="userSpaceOnUse"><g clip-path="url(#o)"><use xlink:href="#AJ"/></g></pattern><clipPath id="q"><path d="M0 0h32v32H0z"/></clipPath><g id="r" clip-path="url(#q)"><use xlink:href="#AM"/></g><pattern id="s" width="32" height="32" patternTransform="translate(-53 -29.4)" patternUnits="userSpaceOnUse"><use xlink:href="#r"/></pattern><clipPath id="t"><path d="M0 0h32v32H0z"/></clipPath><pattern id="u" width="32" height="32" patternTransform="translate(-53 -29.4)" patternUnits="userSpaceOnUse"><g clip-path="url(#t)"><use xlink:href="#AQ"/></g></pattern><clipPath id="v"><path d="M0 0h32v32H0z"/></clipPath><pattern id="w" width="32" height="32" patternTransform="translate(-53 -29.4)" patternUnits="userSpaceOnUse"><g clip-path="url(#v)"><use xlink:href="#AT"/></g></pattern><clipPath id="x"><path d="M0 0h32v32H0z"/></clipPath><g id="y" clip-path="url(#x)"><use xlink:href="#AV"/></g><pattern id="z" width="32" height="32" patternTransform="translate(-53 -29.4)" patternUnits="userSpaceOnUse"><use xlink:href="#y"/></pattern><clipPath id="AA"><path d="M0 0h32v32H0z"/></clipPath><pattern id="AB" width="32" height="32" patternTransform="translate(-53 -29.4)" patternUnits="userSpaceOnUse"><g clip-path="url(#AA)"><use xlink:href="#AY"/></g></pattern><clipPath id="AC"><path d="M0 0h32v32H0z"/></clipPath><pattern id="AD" width="32" height="32" patternTransform="translate(-53 -29.4)" patternUnits="userSpaceOnUse"><g clip-path="url(#AC)"><use xlink:href="#Aa"/></g></pattern><clipPath id="AE"><path d="M0 0h32v32H0z"/></clipPath><g id="AF" clip-path="url(#AE)"><use xlink:href="#Ad"/></g><pattern id="AG" width="32" height="32" patternTransform="translate(-53 -29.4)" patternUnits="userSpaceOnUse"><use xlink:href="#AF"/></pattern><clipPath id="AH"><path d="M0 0h32v32H0z"/></clipPath><pattern id="AI" width="32" height="32" patternTransform="translate(-53 -29.4)" patternUnits="userSpaceOnUse"><g clip-path="url(#AH)"><use xlink:href="#Ah"/></g></pattern><clipPath id="AJ"><path d="M0 0h32v32H0z"/></clipPath><pattern id="AK" width="32" height="32" patternTransform="translate(-53 -29.4)" patternUnits="userSpaceOnUse"><g clip-path="url(#AJ)"><use xlink:href="#Ak"/></g></pattern><clipPath id="AL"><path d="M0 0h32v32H0z"/></clipPath><g id="AM" clip-path="url(#AL)"><use xlink:href="#Ao"/></g><pattern id="AN" width="32" height="32" patternTransform="translate(-53 -29.4)" patternUnits="userSpaceOnUse"><use xlink:href="#AM"/></pattern><clipPath id="AO"><path d="M0 0h32v32H0z"/></clipPath><pattern id="AP" width="32" height="32" patternTransform="translate(-53 -29.4)" patternUnits="userSpaceOnUse"><g clip-path="url(#AO)"><use xlink:href="#Ar"/></g></pattern><clipPath id="AQ"><path d="M0 0h32v32H0z"/></clipPath><pattern id="AR" width="32" height="32" patternTransform="translate(-53 -29.4)" patternUnits="userSpaceOnUse"><g clip-path="url(#AQ)"><use xlink:href="#At"/></g></pattern><clipPath id="AS"><path d="M0 0h32v32H0z"/></clipPath><g id="AT" clip-path="url(#AS)"><use xlink:href="#Aw"/></g><pattern id="AU" width="32" height="32" patternTransform="translate(-53 -29.4)" patternUnits="userSpaceOnUse"><use xlink:href="#AT"/></pattern><clipPath id="AV"><path d="M0 0h32v32H0z"/></clipPath><pattern id="AW" width="32" height="32" patternTransform="translate(-53 -29.4)" patternUnits="userSpaceOnUse"><g clip-path="url(#AV)"><use xlink:href="#BB"/></g></pattern><clipPath id="AX"><path d="M0 0h32v32H0z"/></clipPath><g id="AY" clip-path="url(#AX)"><use xlink:href="#BF"/></g><pattern id="AZ" width="32" height="32" patternTransform="translate(-53 -29.4)" patternUnits="userSpaceOnUse"><use xlink:href="#AY"/></pattern><clipPath id="Aa"><path d="M0 0h32v32H0z"/></clipPath><pattern id="Ab" width="32" height="32" patternTransform="translate(-53 -29.4)" patternUnits="userSpaceOnUse"><g clip-path="url(#Aa)"><use xlink:href="#BH"/></g></pattern><clipPath id="Ac"><path d="M0 0h32v32H0z"/></clipPath><g id="Ad" clip-path="url(#Ac)"><use xlink:href="#BK"/></g><pattern id="Ae" width="32" height="32" patternTransform="translate(-53 -29.4)" patternUnits="userSpaceOnUse"><use xlink:href="#Ad"/></pattern><clipPath id="Af"><path d="M0 0h32v32H0z"/></clipPath><pattern id="Ag" width="32" height="32" patternTransform="translate(-53 -29.4)" patternUnits="userSpaceOnUse"><g clip-path="url(#Af)"><use xlink:href="#BM"/></g></pattern><clipPath id="Ah"><path d="M0 0h32v32H0z"/></clipPath><pattern id="Ai" width="32" height="32" patternTransform="translate(-53 -29.4)" patternUnits="userSpaceOnUse"><g clip-path="url(#Ah)"><use xlink:href="#BP"/></g></pattern><clipPath id="Aj"><path d="M0 0h32v32H0z"/></clipPath><g id="Ak" clip-path="url(#Aj)"><use xlink:href="#BR"/></g><pattern id="Al" width="32" height="32" patternTransform="translate(-53 -29.4)" patternUnits="userSpaceOnUse"><use xlink:href="#Ak"/></pattern><clipPath id="Am"><path d="M0 0h32v32H0z"/></clipPath><pattern id="An" width="32" height="32" patternTransform="translate(-53 -29.4)" patternUnits="userSpaceOnUse"><g clip-path="url(#Am)"><use xlink:href="#BU"/></g></pattern><clipPath id="Ao"><path d="M0 0h32v32H0z"/></clipPath><pattern id="Ap" width="32" height="32" patternTransform="translate(-53 -29.4)" patternUnits="userSpaceOnUse"><g clip-path="url(#Ao)"><use xlink:href="#BW"/></g></pattern><clipPath id="Aq"><path d="M0 0h32v32H0z"/></clipPath><g id="Ar" clip-path="url(#Aq)"><use xlink:href="#BZ"/></g><pattern id="As" width="32" height="32" patternTransform="translate(-53 -29.4)" patternUnits="userSpaceOnUse"><use xlink:href="#Ar"/></pattern><clipPath id="At"><path d="M0 0h32v32H0z"/></clipPath><pattern id="Au" width="32" height="32" patternTransform="translate(-53 -29.4)" patternUnits="userSpaceOnUse"><g clip-path="url(#At)"><use xlink:href="#Bc"/></g></pattern><clipPath id="Av"><path d="M0 0h32v32H0z"/></clipPath><g id="Aw" clip-path="url(#Av)"><use xlink:href="#Be"/></g><pattern id="Ax" width="32" height="32" patternTransform="translate(-53 -29.4)" patternUnits="userSpaceOnUse"><use xlink:href="#Aw"/></pattern><clipPath id="Ay"><path d="M0 0h32v32H0z"/></clipPath><pattern id="Az" width="32" height="32" patternTransform="translate(-53 -29.4)" patternUnits="userSpaceOnUse"><g clip-path="url(#Ay)"><g clip-path="url(#Bg)"><use xlink:href="#e"/></g></g></pattern><clipPath id="BA"><path d="M0 0h32v32H0z"/></clipPath><g id="BB" clip-path="url(#BA)"><use xlink:href="#Bi"/></g><pattern id="BC" width="32" height="32" patternTransform="translate(-53 -29.4)" patternUnits="userSpaceOnUse"><use xlink:href="#BB"/></pattern><clipPath id="BD"><path d="M0 0h32v32H0z"/></clipPath><pattern id="BE" width="32" height="32" patternTransform="translate(-53 -29.4)" patternUnits="userSpaceOnUse"><g clip-path="url(#BD)"><use xlink:href="#Bm"/></g></pattern><clipPath id="BF"><path d="M0 0h32v32H0z"/></clipPath><pattern id="BG" width="32" height="32" patternTransform="translate(-53 -29.4)" patternUnits="userSpaceOnUse"><g clip-path="url(#BF)"><use xlink:href="#Bp"/></g></pattern><clipPath id="BH"><path d="M0 0h32v32H0z"/></clipPath><pattern id="BI" width="32" height="32" patternTransform="translate(-53 -29.4)" patternUnits="userSpaceOnUse"><g clip-path="url(#BH)"><use xlink:href="#Bv"/></g></pattern><clipPath id="BJ"><path d="M0 0h32v32H0z"/></clipPath><g id="BK" clip-path="url(#BJ)"><use xlink:href="#By"/></g><pattern id="BL" width="32" height="32" patternTransform="translate(-53 -29.4)" patternUnits="userSpaceOnUse"><use xlink:href="#BK"/></pattern><clipPath id="BM"><path d="M0 0h32v32H0z"/></clipPath><pattern id="BN" width="32" height="32" patternTransform="translate(-53 -29.4)" patternUnits="userSpaceOnUse"><g clip-path="url(#BM)"><use xlink:href="#CD"/></g></pattern><clipPath id="BO"><path d="M0 0h32v32H0z"/></clipPath><g id="BP" clip-path="url(#BO)"><use xlink:href="#CH"/></g><pattern id="BQ" width="32" height="32" patternTransform="translate(-53 -29.4)" patternUnits="userSpaceOnUse"><use xlink:href="#BP"/></pattern><clipPath id="BR"><path d="M0 0h32v32H0z"/></clipPath><pattern id="BS" width="32" height="32" patternTransform="translate(-53 -29.4)" patternUnits="userSpaceOnUse"><g clip-path="url(#BR)"><use xlink:href="#CL"/></g></pattern><clipPath id="BT"><path d="M0 0h32v32H0z"/></clipPath><g id="BU" clip-path="url(#BT)"><use xlink:href="#CO"/></g><pattern id="BV" width="32" height="32" patternTransform="translate(-53 -29.4)" patternUnits="userSpaceOnUse"><use xlink:href="#BU"/></pattern><clipPath id="BW"><path d="M0 0h32v32H0z"/></clipPath><pattern id="BX" width="32" height="32" patternTransform="translate(-53 -29.4)" patternUnits="userSpaceOnUse"><g clip-path="url(#BW)"><g clip-path="url(#CQ)"><use xlink:href="#CE"/></g></g></pattern><clipPath id="BY"><path d="M0 0h32v32H0z"/></clipPath><g id="BZ" clip-path="url(#BY)"><use xlink:href="#CT"/></g><pattern id="Ba" width="32" height="32" patternTransform="translate(-53 -29.4)" patternUnits="userSpaceOnUse"><use xlink:href="#BZ"/></pattern><clipPath id="Bb"><path d="M0 0h32v32H0z"/></clipPath><g id="Bc" clip-path="url(#Bb)"><use xlink:href="#J"/></g><pattern id="Bd" width="32" height="32" patternTransform="translate(-53 -29.4)" patternUnits="userSpaceOnUse"><use xlink:href="#Bc"/></pattern><clipPath id="Be"><path d="M0 0h32v32H0z"/></clipPath><pattern id="Bf" width="32" height="32" patternTransform="translate(-53 -29.4)" patternUnits="userSpaceOnUse"><g clip-path="url(#Be)"><use xlink:href="#X"/></g></pattern><clipPath id="Bg"><path d="M0 0h32v32H0z"/></clipPath><clipPath id="Bh"><path d="M0 0h32v32H0z"/></clipPath><g id="Bi" clip-path="url(#Bh)"><use xlink:href="#z"/></g><pattern id="Bj" width="32" height="32" patternTransform="translate(-53 -29.4)" patternUnits="userSpaceOnUse"><use xlink:href="#Bi"/></pattern><clipPath id="Bk"><path d="M0 0h32v32H0z"/></clipPath><pattern id="Bl" width="32" height="32" patternTransform="translate(-53 -29.4)" patternUnits="userSpaceOnUse"><g clip-path="url(#Bk)"><use xlink:href="#AG"/></g></pattern><clipPath id="Bm"><path d="M0 0h32v32H0z"/></clipPath><pattern id="Bn" width="32" height="32" patternTransform="translate(-53 -29.4)" patternUnits="userSpaceOnUse"><g clip-path="url(#Bm)"><use xlink:href="#AN"/></g></pattern><clipPath id="Bo"><path d="M0 0h32v32H0z"/></clipPath><g id="Bp" clip-path="url(#Bo)"><use xlink:href="#AU"/></g><pattern id="Bq" width="32" height="32" patternTransform="translate(-53 -29.4)" patternUnits="userSpaceOnUse"><use xlink:href="#Bp"/></pattern><clipPath id="Br"><path d="M0 0h32v32H0z"/></clipPath><pattern id="Bs" width="32" height="32" patternTransform="translate(-53 -29.4)" patternUnits="userSpaceOnUse"><g clip-path="url(#Br)"><use xlink:href="#AZ"/></g></pattern><clipPath id="Bt"><path d="M0 0h32v32H0z"/></clipPath><pattern id="Bu" width="32" height="32" patternTransform="translate(-53 -29.4)" patternUnits="userSpaceOnUse"><g clip-path="url(#Bt)"><use xlink:href="#As"/></g></pattern><clipPath id="Bv"><path d="M0 0h32v32H0z"/></clipPath><pattern id="Bw" width="32" height="32" patternTransform="translate(-53 -29.4)" patternUnits="userSpaceOnUse"><g clip-path="url(#Bv)"><use xlink:href="#Ax"/></g></pattern><clipPath id="Bx"><path d="M0 0h32v32H0z"/></clipPath><g id="By" clip-path="url(#Bx)"><use xlink:href="#BC"/></g><pattern id="Bz" width="32" height="32" patternTransform="translate(-53 -29.4)" patternUnits="userSpaceOnUse"><use xlink:href="#By"/></pattern><clipPath id="CA"><path d="M0 0h32v32H0z"/></clipPath><pattern id="CB" width="32" height="32" patternTransform="translate(-53 -29.4)" patternUnits="userSpaceOnUse"><g clip-path="url(#CA)"><use xlink:href="#BL"/></g></pattern><clipPath id="CC"><path d="M0 0h32v32H0z"/></clipPath><g id="CD" clip-path="url(#CC)"><use xlink:href="#BQ"/></g><pattern id="CE" width="32" height="32" patternTransform="translate(-53 -29.4)" patternUnits="userSpaceOnUse"><use xlink:href="#CD"/></pattern><clipPath id="CF"><path d="M0 0h32v32H0z"/></clipPath><pattern id="CG" width="32" height="32" patternTransform="translate(-53 -29.4)" patternUnits="userSpaceOnUse"><g clip-path="url(#CF)"><use xlink:href="#BV"/></g></pattern><clipPath id="CH"><path d="M0 0h32v32H0z"/></clipPath><pattern id="CI" width="32" height="32" patternTransform="translate(-53 -29.4)" patternUnits="userSpaceOnUse"><g clip-path="url(#CH)"><use xlink:href="#Ba"/></g></pattern><clipPath id="CJ"><path d="M0 0h32v32H0z"/></clipPath><pattern id="CK" width="32" height="32" patternTransform="translate(-53 -29.4)" patternUnits="userSpaceOnUse"><g clip-path="url(#CJ)"><use xlink:href="#Bd"/></g></pattern><clipPath id="CL"><path d="M0 0h32v32H0z"/></clipPath><pattern id="CM" width="32" height="32" patternTransform="translate(-53 -29.4)" patternUnits="userSpaceOnUse"><g clip-path="url(#CL)"><use xlink:href="#Bj"/></g></pattern><clipPath id="CN"><path d="M0 0h32v32H0z"/></clipPath><g id="CO" clip-path="url(#CN)"><use xlink:href="#Bq"/></g><pattern id="CP" width="32" height="32" patternTransform="translate(-53 -29.4)" patternUnits="userSpaceOnUse"><use xlink:href="#CO"/></pattern><clipPath id="CQ"><path d="M0 0h32v32H0z"/></clipPath><clipPath id="CR"><path d="M0 0h32v32H0z"/></clipPath><pattern id="CS" width="32" height="32" patternTransform="translate(-53 -29.4)" patternUnits="userSpaceOnUse"><g clip-path="url(#CR)"><use xlink:href="#CK"/></g></pattern><clipPath id="CT"><path d="M0 0h32v32H0z"/></clipPath><pattern id="CU" width="32" height="32" patternTransform="translate(-53 -29.4)" patternUnits="userSpaceOnUse"><g clip-path="url(#CT)"><use xlink:href="#CP"/></g></pattern><filter id="CV" width="100%" height="100%" x="0%" y="0%"><feColorMatrix in="SourceGraphic" values="0 0 0 0 1 0 0 0 0 1 0 0 0 0 1 0 0 0 1 0"/></filter><mask id="CW"><g filter="url(#CV)"><path fill-opacity=".5" d="M0 0h497v279H0z"/></g></mask><clipPath id="CX"><path d="M0 0h497v279H0z"/></clipPath><path id="CY" d="M228.2-23.4l-.4.4 2.6 1.8-.3 6.6.9.6.2-.1.6.5-1 1.3 2.5 1.6-.7 1 2.3 1.7 2.3-3.5 2.2 1.5 2.3-3.9 1.7.4 2.2-.8L253 8l11.7-4 6.2 6 7.3 3.5"/><path id="CZ" d="M278.2 13.6l7 3.5 2.6-1.3 5.8 3.8 4.4-1.9h.2l7.8-3.5 3.3-.6 10.7-1.3 11.9 5.6-1.5 11.9-3 2.4 4.1 14.2"/><path id="Ca" d="M331.5 46.4l.2.6 2.3 8 18.2-7 18.3-7 5.5-1.9.9-.9 2.7.4 1.4.9 4.5.3 3.4-.8 4 .5 2.2-.7 3.4.5 5.6-2.3 2.6-2.6 1.6-.8"/><path id="Cb" d="M389.9 77l-6.5 1-3 2 .6 5.4-3 4 6.2 6.8-23.7 31.4-2.5-3.6-9.4 12.6"/><path id="Cc" d="M348.6 136.6l-19 25.5-3.1 3.7-1.5 3-3 1.9-1.1.6-16.1 8-18.6 18.6v.1"/><path id="Cd" d="M499.3 2.3l.3-12.2-28.7-.7-3.4 4.2.4 1.6-.4.8-1.7.6-3 .4-2.4 1.4L457-.4l-1 1.2-3.1 1.3-.3 1.8-7.1 8.5-3.8 1.1-.7 1.3-3.4 1.2-1.8 1.3"/><path id="Ce" d="M319.6 171.9l-14.9 7.4-18.4 18.6-5.3 20.2-5.5 8.2-12.9 4.4-1.3 1.5"/><path id="Cf" d="M536 77.9l-.4.7-1.1 8.4-4.5-3-2.6.5v2.3l-3-1.7-8.7 2.2-11.1-4.5-2.6.5-3.6-3-3.9 1.1.2-3.9-3.7-.7h-4l1.6-5 3.9-4.1.4-10.9"/><path id="Cg" d="M493 56.7l.1-7.3 2.4-7.9-1-6.5 2.2-5.5 2-2 .9-37.3-20.8-.6"/><path id="Ch" d="M478.8-10.4l-7.8-.2-3.5 4.2.4 1.6-.4.8-1.7.6-3 .4-2.4 1.4L457-.4l-1 1.2-3.1 1.3-.3 1.8-7.1 8.5-3.8 1.1-.7 1.3-3.4 1.2-3.1 2.4h-2.9l-3.4-1.8-3.5-4.8-1.7.9-4.1-.8-4 1.1-3.1-.5h-2.6l1.1.3.4.3v.3l-.4.6"/><path id="Ci" d="M300.8 16.5l-2.6 1.1-.2.1-4.4 1.9-5.8-3.8-2.6 1.2-14.3-7-6.2-5.9L253 8l-7.4-22.3-2.2.8-1.7-.4-2.3 4-2-1.6"/><path id="Cj" d="M232.7 264.2l-3.7 4.1-25.6 1-4 .7-.3 1.7-1.9 12.7v.2l-.3.3h-.3l-.3-.2-.2.1.2.5-.1.3-.6.5-.4.1h-.2l-.3-.2v-.2l-.2-.3h-.2l-.3.1-.6.2h-1.9l-.5.2-.4.3h-.4l-.3-.1-.2-.3h-.7l-.3.1h-.1l-.2.5-.2.1H187l-.3.4h-.6l-.3.3-.8.4.2.3-14.5 5.2-8.3-1.9"/><path id="Ck" d="M261.3 232.2l-9.8 11.3-22.5 24.8-25.6 1-4 .7-.3 1.7-1.3 9.1"/><path id="Cl" d="M117.3 281.2l-20-4.5-4.7 39.5-22.8.1 3 5.4"/><path id="Cm" d="M408.3 33.6l1.9-1 2-1.4.3-1.4 1.5-1.1 7 2.3-1.8 4 10 7.4-.1 3.9-7.3 7.3v4.2l-5.2 7.6-2.2.6-8.2 2.4-11.2 7.8-5.1.8"/><path id="Cn" d="M286.3 198l-5.3 20-5.5 8.4-12.9 4.3-11.1 12.8-18.8 20.7"/><path id="Co" d="M421.8 53.7v4.1l-5.2 7.6-2.2.6-8.2 2.4-11.2 7.8-11.6 1.8-3 2 .6 5.4-3 4 6.2 6.8-9.9 13"/><path id="Cp" d="M374.3 109.3l-13.8 18.2-2.5-3.5-28.5 38-2.8 3.8-1.7 3-3 1.9-1.1.6-1.3.6"/><path id="Cq" d="M410.3 14v.3l.7.7h.5l.2.3.1.3-.1.6.1.3.3.3.2.2v.5l-.6.6v.4l1.3.5.3.5.3.2v.2l.3.9.4.4.1.4v.4l-.4.7v1l-.2.2-.1.1-.2.5.5.5v.4l-.4.3-.1.3v1l.4 1.2.1.5-1.5 1.1-.3 1.3-2 1.6-3.5 1.7L404 37l-5.5 2.3-3.3-.5-2.4.7-4-.5-3.2 1-4.7-.7-1.3-.8-2.6-.3-1 1-5.5 1.8-18.3 7.1-2.8.9"/><path id="Cr" d="M349.4 49.1l-15.4 6-2.3-8.2-4.3-14.7 3-2.4 1.5-11.9-11.9-5.6-10.7 1.3-3.3.7-5.2 2.2"/><path id="Cs" d="M544 66.7l-.5 1.4 4.9-.5 1 8.9-4.4 1.7-4.5-.4-2.9-3.5-2 4.3-1.1 8.4-4.5-3-2.6.5v2.3l-3-1.7-8.7 2.2-11.1-4.5-2.6.5-3.6-3-3.9 1.1v-.6"/><path id="Ct" d="M494.6 80.8v-3.3l-3.4-.7H487l1.6-5 3.9-4.1.7-18.3 2.3-7.9-1-6.5 2.2-5.5 2-2 .6-25.1"/><path id="Cu" d="M435.8 17.3l-1.3 1.1h-2.9l-3.4-1.8-3.5-4.8-1.7.9-4.1-.8-4 1.1-3.1-.5h-2.6l1.1.3.4.3v.3l-.4.6v.3l.7.7h.5l.2.3.1.3-.1.6.1.3.3.3.2.2v.5l-.6.6v.4l1.3.5.3.5.3.2v.2l.3.9.4.4.1.4v.4l-.4.7v1l-.2.2-.1.1-.2.5.5.5v.4l-.4.3-.1.3v1l.4 1.2.1.5 7 2.3-1.8 4 10 7.4-.1 3.9-7.3 7.3"/></defs><path fill="#f2efe9" d="M0 0h497v279H0z"/><g fill-rule="evenodd"><path fill="#f5e9c6" d="M45.7 233.8l11.7-2.4L63 225l4-4 5.8-4.3 5.8-2.2 4.8-2.5 4.2-3-3.6-2.9-13.3 5.9-7.3 3.6-5.5 5-11.1 7.3-1 4.2zm0 0"/><path d="M291.7 90l5.3 5h3.5l4.3 2.7h6l-.8-2.9-2.7-2.8-2-5.5-5.5-2.1-2.3-4-1.6 3.2-1 1.5-2.7 2.7-.5 1.8zm8.2 11.9l4.9-4-4.4-2.4-.4 5.8zm9.4-8.3l3.8 3-1.4-1.6-2.3-1.7zM297.4 95l2.4.4zm0 0" fill="#eef0d5"/><path fill="#cdebb0" d="M363 73.9l2-1.9-1.8 1.7zm0 0"/><path fill="#eef0d5" d="M299.8 98v-2.5zm4.7 3.2v-.2zm-14.3-16.8h.1zm0 0"/><path d="M483.6 75.3h.5l.2-.1h.2v.2h-.3l-.4.3h.7l.1-.4-.1.3-.1.2.2.2h.5v.1h.3l.3.1h.3l.2.3v-.2h.4l.2.2.2-.1h.3v.1h.5l-.2.2h.2l.1-.1.3-.1.1-.5h.6l1.1.2h.7v.2h.5v-.2.3h.2v-.3h.2v-.1h-.3l.2-.2-.1-.2v-.4h-.3v-.1h-.4V75h-.5v-.1h-.2v-.4l.4-.1h.1l.2-.4.2-.3v-.9l-.3-.3v-.4l.4.2v.2l.5.6h.1v.2h.1v.2h.2v.1h.1v.3l.2.1v.2l.2.1.4.5v.2l.6.6.2.4.6.4.1.2h.1l.2.2.1.2h.1l.5.4h.2l.1.1v.1h.3l.1.4v.3l-.1.3v.1l.2.3-.2.4v.1h-.2v-.3l.1-.2v-.3l-.2-.1h-.5l-.2.4.1.1v.7l-.4.4.2.3h.2v-.3h.8V80h.6l.4-.2v-.1h.2l.2-.3h.2l.2-.1.4.1.4.3h.3l.5.3h.8v.2h.1v.2h.6v.2h.3v.2h.5v1h-.4l.3.1.2.2.4.2h.5l.3-.1V82h.8l.1-.2h.6l.3.2h.4l.1.3h.2l.2.1h.2v.1h.3v.1l.7.3 1.3.4h.5l.5.3h.2v.1h.6l.2.3h.3l.3.3h.2l.2-.1.3.2h.1v.2h.3l.3.2.4.2h.2l.2.3h.3l.2.3h.3v.1h.1l.7.3h.6v.1l.5.1h.6l.3-.1.3.1h.5v.1h.4v.1h1.4l.2-.2.4-.1.2-.2h.2l.1-.2h.4l.2-.4.4-.1h.3l.3-.2.5-.3h.3l.1-.2h.4l.7-.4h2l.3.4v.5l.4.5.3.2.1-.1v-.5l-.3-.1-.2-.6-.3-.1V84l.3-.2h.1l.1-.1h.2l.1-.2.3-.1h.2l.4-.2h.9l.2.1h.4l.3-.3h.3l.2-.1h.8l.5.3v.1h.1v.5l.3.2.4.5.4.2h.3l.2-.4v-.6h-.3.3l.2-.4V83h.1l.1-.4.1-.2.3-.1.2-.4h.1l.2-.4v-.8l-.3-.5h-.2l-.1-.2v.1h-.2v-.5l.5-.1v-.1h.3v-.2l.2-.2h.1l.4-.6v-.8l-.2-.4V77h-.2v-.4l-.3-.1v-.1h-.1l-.2-.3-.3-.1-.3-.5-.4-.7h-.1l-.2-.5-1-.1-.5-.4-.2-.2-.1-.2-.1-.4-.4-.5-.4-.5-.5-.5V71l.3-.1.4-.2h.5l.5.3.5.4v.1l.8.5.4.6v.2l.7.9.8.8v-.1l.1.1h.2v.3l.1.2h.2l-.1-.4.3-.2.3-.2.3-.4.5-.8.2-.3.6-.3h.5l.7.3.2.2v.7h-.2l-.3.4v-.2l-.2.2v.5l.2.3-.1.3-.1.2v.3l-.3.1.2.3v.2l-.2.1.2.3.1-.1v.2l.2.3v-.3h.8l.2.3.5.3h.5V77h.7l.4-.3h.1l.2-.1.2-.3h.2V76h.4l.1-.2v-.1h.1v-.1h.3v-.4h-.4.2-.1v-.4l.4-.2.2-.4.3-.4h.4l.2.2h.1l.2.1h.1v.3h.3v.6h.2v-.2.4l.2.3-.3.4.2-.1v.7l-.2.1.3.2.1-.2h.3l.1-.3h.1l.2-.1-.2-.1h-.1l.2-.2h.1v-.4h.3-.2v-.2h-.2V75l.2-.2v-.1h-.4l.2-.2v-.3h.5V74h.1v-.5h-.1.5v-.3h-.1V73h-.3.1l-.2-.2h-.5v-.2l.1.2v-.3l.5-.1v-.2l-.3.1h.1l-.1-.3v.3h-.2v-1.2l-.1.1V71l-.2-.5h-.2l-.3-.1h-1l-.3.4h.3l.7-.4h.3l.2.5.1.1.1.1v.2h.1v.3l-.2.1.1.3-.2-.3h-.2v.2h-.1l-.4.1v.3h-.2l.2-.3h-.3l-.2.2h-.4l-.2.3v.1h.2v-.1.3l-.3.2v.1h-.2v.1h-.1v.2l-.3.3-.3.3-.3.2v.1h-.3v.1l-.5.1-.1-.2h-.5v-.1h-.2V73h-.2v-.5h-1l-1-1.1-.4-.3-.1-.2h-.1v-.3h-.3l-.1.2h-.2v.3h.1v.4l-.2.2h-.6l-.2-.4.2-.2.1-.1h.2v-.1h-.4l-.2.3-.2.3-.3.1h-.3v.2h-.2l-.3.2-.4-.2V71h-.2v-1.3l.2-.3.4-.1v-.1l-.1-.2v-.4l-.1-.6v-.1l-.3-.7h-.1l-.3-.2v-.1h-.1l-.5-.7-.3-.4-.3-.8-.2-.4-.1-.3-.2-.3v-.3h.3l.1-.3h.2l.3-.4h.1v.3l.1.3 2.3 1.8h.4l.2-.1.6-.3h.1l.2-.2h.3-.1l-.3.2-.1.1v.2l-.2.3v1.5l-.2.3-.1.4v.4l.8.7.2.4.4.2.6.3.2.1.2.3.4.3.6.2.2.3h.2v-.8l.3-.2-.3-.3.1-.3v-.1l-.2-.3v-.3l-.3-.4-.1-.3v-.3l-.5-.5v-.3l-.1-.4V65l-.1-.3h-.4v-.2h-.5l-.3-.2-.3-.4-.1-.2v-.2l-.4-.2V63h-.2v-.1l-.1-.1-.8-.2h-.5v-.3h-1v-.2H533l.2-.4v-1.2h.2V60l-.2-.1v-.5h.3V59h.1l.4-.3.2-.1.1-.1.3-.1h.2l.2.2.2.4h.1v-.3l.3.3v.4h.1l-.1-.5v-.6l-.4-.2-.1-.1v-.2l-.5-.2-.4.1-.5.3h-.4l-.4.5h.1v.3l-.3.1h.3v2.4l-.2.1.2.3-.1.1v.2h-.1v-.4h-.3v.7h-.5l-.2.4v.3l-.2.2v.2h-.1v.2h-.1v.8l-.4.6-.2.3h-.2v.3h.4-.5l-.2.3h-.2l-.1.1-.3.2v.4h-.3V68l-.4.6-.4.3h-.2l-.1-.1-.2-.3v-.9l.1-.5v-.3l.2-.3v-.3l.2-.5.4-.7v-1.5l-.5-.5-.1-.2-.2-.1-.3-.4h-.2l.1.5.3.4h.3l.1.5-.5.2h-.4l-.1-.3-.5-.2-.8-.7-.4-.7-.3-.3v-.2l-.3-.2v-.2l-.3-.7v-.3l-.5-.4-.4-.7-.3-.1-.2-.6v-.6l-.1-.3-.1-.4-.1-.3v-.5l-.2-.4-.7-.1-.3-.7-.3-.3-.5.5-.7.4h-.5v-.3h-1l-.2.7v1l.2.3.2.1v.6l.1.5h.2l.1.5v.7l-.4.7v.2l-.2.2v.7l.2.2v.2l.3 1.9.5 1.2v.4l-.2.6v.2h-.1v.8l-.5 1v.4l.3.4v.2l.1.3v.1l.2.6h-.2.1v.2h.2l.1-.1h.4v.2h.4v.3l-.2.3h-.6v-.4h-.5l-.3-.3-.3-.6V69h.1v-.3h-.4v-1.2l.3-.4v-.5l.1.1h.1v-.1l-.3-.1v-1.7h-.1v-.5h-.1V64l-.1-.3v-.1l-.5-1h-.5l-.5-.5.5.3h.2l.1-.1V62h.2v-.1l.3-.4v-.2l.3-.4v-1.3l-.2-.1v-1l-.1-.2V58l-.3-.5v-.3l-.2-.2v-.7l.2-.3v-.2l.3-.1v-.5l.3-.4v-.1l.4-.2V54h.3v-1l.1-.4v-.7l.1-1 .1-.3.1-.3v-.7l.3-.4v-.4l.2-.4V48l.4-.2.2-.3v-.2h.2v-.5h.2l.3-.2v-.2l.2-.2V46l.3-.5v-.4h.1l.1-.1.3-.4.2-.1h.3l.2-.4h1.4l.3-.1h.3l.3-.3h.2l.3.3-.2.5-.3.1h-.4l-.4.3h-.7l-.6.3h-.2l-.2.2-.7.8-.2.4v.3h-.1l-.2.5h-.1v.1h-.1l-.2.7v.2l-.1.2v.8h.3v.3l.1.3.5.4.4.4v.2h.1v.3h.1l.2.2v.2l.1.3.3.2v.4l-.1.4h-.3v.1l-.3.2-.3-.1h-.1.2v.5h.1v.1h.2l.2.1h.3l.3.3h.3l.3.1.3.3.5.4.5.4.4.6.1.4v.3l-.5.6-.2.3v.9l.1.2h.1v-.4l-.3-.3h.2v-.3l.3-.4.3-.5h.3l.2-.3-.1-.1v-.2l-.2-.2v-.6l.1.1v-.1h.2l.5.2 1 .4.2.5.2-.1v-.1h.3v-.1h-.2.6-.2l-.2-.2h-.2l-.6-.4v-.1l-.7-.3-.1-.2-.4-.3-.3-.1-.2-.1v-.2l-.2-.1-.2-.2-.5-.3h-.1l-.3-.3-.3-.2-.2-.3v-.3l.2-.3.6-.4h.2v-.2h.4l.2.2v.5l.2.4h.4l.4.1h.1l.6.3.3.2v-.2l-.2-.2.3.1h.3l-.2-.1v-.1h.1v.2h.3v.2h.1v-.2h.1v-.4h-.1v-.1l-.3-.1v-.3l.3-.1v-.9l-.1-.3-.4-.1h-.2l-.2.2v.3h-.1v-.7h-.1l-.1-.3h.3l-.2-.1V50l-.2.3v-.1l-.1-.2v-.3l-.3-.7-.4.2h-.2l-.4.1-.2.3h-.2l-.1.2-.2-.2-.1-.2v-.3h-.2v-1.8h1.5l-.3-.3v-1l.2-.3.2-.2h.2v-.2h.2l.2.1-.2-.2v-.1l.3.2v-.6l.2-.2v-.2l.3-.3h-.2v-.4l.4-.4.1-.2.4-.3h.4l.5.2-.5-.3h-.6l-.2.2-.2.4h-.1l-.3.4-.2-.2v-1.3h.2v-.5l.1-.3.3-.7v-.2l.1-.1h.1l.3-.5.3-.4.3-.4v-.3l.2-.3v-.3l.2-.1.3-1 .3-.4v-.2l.2-.2v-.7h.1v-.2l.2-.5v-.5l.5-.6v-.5h.1v-.3l.6-.7V32h.3v-.2l.4-.2h.1v-.2h.3l.2.2v.6l.2.3v.2l-.2.5-.7.5-.3.3v.7h.3l.1.3v.6l-.3.1v.3l-.1.3v.4l-.6.8v.8l-.2.4-.4.5-.2.1v.3h-.2v.2l-.1.1v.3h-.3v.6h-.1v.2l-.2.4v.2l.3.2v.4h.2v.5h-.3v.3h-.5l.3.1-.2.2-.3.1-.3.1-.2.3.6 1 .9-.6h.4l.4-.2.4.1.2-.1.1-.3h.1l.3-.6v-.2l.3-.1v-1.5l-.3-.3-.6-.2h-.5l-.2.2v-.6l-.2-.3.2-.1v-.3l.2-.4.5-.3h.1v-.3h.1l.3-.1v-.4h.2l-.1.6h.1v.2h.3v-.3h.1v-.4h.4V38v.2l.1.3V38v.3-.1h.5v-.4l.4-.6.1-.2v.2l.4-.4.5-.2v-.2l-.2.1v-.3h.1v.3l.5-.5.3-.1v-.2l.2-.3v-.1l.1-.3v-.3l.3-.5.3-.2h.4v-.2h.2l.5-.1v-.1h-.4.4v.2-.1h.3l.3.3h.2v.7l.1.3h.2v.6l.2-.1v.9h.1v-1l-.1-.2v-.4.1h-.4v-.3h.4v-.3l.2.4h.2v-.8h-.4l.4-.2h-.2l.1-.3v-.1h-.3.1l-.1-.1h.1l-.1-.2h.3l.1.1v.1h.1l.3.2.2.2-.2.1v.5h.2l.1-.1h.2v-.6h-.3l-.1-.3h-.2l-.1-.2h.1v-.2l-.3-.1v.2h-.2l-.2-.3-.1-.3V31l-.3-.6v-.1l-.2-.3-.3-.4-.1-.4.2-.4v-.3h.2V28l.2-.1v-.4h-.2V27l-.3-.4-.2-.4h-.3l-.4-.9-.2-.3v-.5l.4-.4.4-.2 1 .5.9.1h.8l.2-.4.1-.1h.3l.2-.5.3-.1.1-.4.2-.3v-.2l.1-.2v-.4l.4-.2v-.3l.6-.3.3-.2h.3l.2-.3.4.2.3.2h.3l.2.3h1l.4-.4.4-.2h.3v-.2h.4l.2-.3h.2l.3-.2.5-.4h.3l.2-.3 1.5-1.3.3-.4.1-.2v-.2l.2-.1v.2l.1-.2v-.3h.1v-.3h-.3.4v-.2h-.1l.1-.1.1-.3h.1v-.7h-.1l-.2-.2v-.4h-.1v-.2h-.4V14h-.3l-.4-.3v-1.5l.2-.3.8-1 .1-.1h.1l.1-.6h.1V10l.3-.3.1-.2.3-.1v-.1l-.2-.1-.1-.3-.2-.2v-.3l.1-.4.1-.2.2-.1.4-.1.3.1.2.4v.2l.3.3v.3l.1.1v.1l.2.3h.2v.3h.3l.4.1h1.7l.8.3v.1h.4l.1.1h.6l.1-.1h1.6l.3.1h.2l.9.3.6.1v.1h1l1 .2.6.3.6.1.1.1.8.2.5.3-.6.1-.3.2-.3.3h-.1l-.7.7v.1h-.2l-.1.2-1 .8-.7.7v.4l-.2.5v1.8l-.2.2v.6l-.2.4v.1l-.3.6-.2.5-.2.1v.2h.4l.3.5-.3.2.3.2h-.1v.1l.1.2h.4l.2.5.4.1.6.3h.4l.4-.1h.3l.4.1.3.2h.2l.4.2h.4l.9-.3.5-.5h.5l.3-.2h.2l.6-.2.6-.2.8-.4.5-.1 1.3-.8.4-.3.4-.5.9-1.2.3-.3.1-.2.3-.3.4-.6v-.4l-.2-.8-.2-.3-.1-.1v-.1l-.3-.4-.3-.1-.4-.5-.2-.4v-.4l-.2-.2h.2l.2.1h.3l.2.3.4.2h.7l.5-1.6.4-.3.4-.2.2-.2v-.2l.2-.1v-.6l-.3.3v.2l-.3-.2.3-.1-.1-.2h-.3l-.2.2-.2-.2v.2l-.1-.1v-.2h.6l-.1-.5H575v-.3l-.3-.3v-.2l-.3-.2v-.3l-.1-.4-.3-.3-.2-.6-.3-.2V7h-.2v-.1h-.1l-.2-.2h-.1v-.3h-.9v-.3h-.5V6h-.4l-.6-.1h-3.1l-.4-.1-.3-.2h-.2l-.2-.3-.4-.2-.2-.1h-.4l-.2-.4-.5-.1h-1.8l-.4-.1h-.2v.2h-.2l-.2.1-.2.2-.2.3-.7.6v.9l-.1.1h-.1l-.6-.4h-.2l-.7.3h-.1l-.3-.6V6l-.6-.3v-.3l-.6-.2-1.1-.2h-.9l-.4.2h-.6l-.7-.2h-.5v-.2h-1.3v-.1h-.4l-.5-.3-.3.3h-.3l-.2.2h-.8l-.2.2h-.4v.3h-.4l-.4-.1-.2.3-.2.2-.2.2h-.1v.2l-.3.1V7l-.3.5-.1.1v-.1h-.1l-.1.1.2.1h.1-.3l-.1.2.1.1v.4h-.1.4l-.3.1v.1h.1l-.1.4h.1v-.4l.5-.1v.4-.1l.2.1h.2v.2h.4v.2l.2.1v.4l-.1-.2v.1l.3.3.2-.1h.1v.1h.4v-.3h-.2v-.1h.5v.4-.3h.1v.2h.2l.1.2v-.4h.4v.3l.2-.3h-.1v-.2h.3v.4h.4l.2.1v.6l-.3.4-.2.3-.5.4v.6h-.2v1l.2.3h.1v.2l.1.1v-.1l.3.4h.2v.3h.2v.1h.1l.1.2v.2l.2.3v.5h-.1v.4h-.2v.4l-.2.2h-.2v.2h-.5l-.2.1v.2h-.4l-.2.3h-.1l-.4.4-1.8.7h-.3l-.2-.3h-.3l-.2-.2-.4-.6v-.3l-.3-.3-.3-.4-.1-.1h-.3l-.2-.2-.4.1-.1.2h-.3l-.3.1-.2.3-.5.2v.1h-.3v.3l-.3.1v.1h-.2l-.3.7-.2.6-.5.7-.7.2h-.6l-.6.6-.2.2v.2h-.1v.2l-.1.4h-.1v.1l-.1.1-.1.2-.7.7-.2.1-.7.2-.3.3h-.5l-.2.4h-2.2l-.7.3h-.7v.3-.1h-.3l-.2.3h-.3l-.2.1-.3.1v.1h-.2l-.1.2v.3h-.1.6v.2l-.2.3-.5.2v.2h-.2l-.1.3-.3.1-1 .1h-1.2l-.1.3h-1.5l-.3-.5v-.3h-.3v-.1h-.2l-.1-.6v-.6l-.4-.3h-.3l-.6-.2h-.6l-.3.2-.3.2h-1l-.1.3-.3.2v.5l-.3.2v.4l.3.3v1.1l.3.2.4.1h.5l.2-.4h.8v.5h-.2l-.2.2-.5.3-.5.3-.3-.2-.1.1h-.2l-.2-.1h-.3l-.2-.2h-.2l-.5-.2-.1-.1-.6-.3h-.3l-.6-.4-.2-.3-1.2-.7-.6-.4-.6-.2-.3-.3h-.1l-.2-.1h-.1l-.1-.3v.2h-.4v.1h-.7l-.3.2-.2.2h-.4v.1h-1.5l-.1.1h-.6l-.3-.1h-1v.2l-.3-.1h-.3V26l-.3-.1h-.1v-.2l-.1-.2v-.8l.1-.5v-.8l.6-.4.1-.2.4-1h.5v-.3l-.6.3-.3 1-.3.2-.3.1-.1.3v.6l-.1.4-.3.6v.1l.2.2v.4h-.1v.3l-.2-.2h.2v.2h-.5l.3-.3-.1-.1h-.2l-.3.4h-.5v.2l-.1-.2h-1.1l-.3.3-.2.1h-.2l-.1.1h-.1l-.3.4h-.3l-.4.4-.2.1-.2.3h-.6v.3h.4l-.1.1h-.1l-.2.2-.5.3h-.5v-.2l-.2-.2.6-.4h.4l-.1-.3h-.8l-.2.3v.1l-.3.2h.3-.3l-.3-.1h-.3l-.2.2-.2.2.4.2.2.4v.1l-.1.1-.1.3-.4.1-.1.4h-.2l-.6.1-.1.3v.2h-.4l-.3.4-.3.2-.3.7-.2.4v.8l.2.2v.4l.3.4v.9-.3.3h.3v.1h.3v.2h.1v-.2l.1-.2v-.1l.2-.4v.6l-.1.4-.2.1h.3l.1.5v1l.2.1-.3.3v.6l-.3.3-.1.2v.3l-.2.2h.1v.6l-.2.1.3.6v.2l.1.3v-.2l.3.5v.1h-.3v.2l.5-.1v-1l.2-.3h.2l.1.1v.5l.3.1v.3h-.2v.7h-.3l-.2-.3-.1-.1h-.2l.2.2v.3-.3l.3.2-.3.1.1.2-.2.2h-.1v.1h-.2v.4l.3.3v.2l-.7.2-.4.7.3-.1.4-.6h.1l.3-.1v.4l.1.1v.3l.2.4h.1v.5h-.5v.4h-.2v.5h.5l.3-.3v.1l-.3.2v.1h-.1l-.2.3v.1l-.2.2h-.1l-.3.2-.4.2-.2-.3h-.3v-1.3h-.5l-.3.2-.2.1-.3.4-.2.2v.7h.2l-.2.7v.1h-.3v.5h.3l-.2.1v.3h-.3l-.1.3v.6l-.3.3v.5l-.1.2h-.1l-.1.2-.3.2-.2.4-.3.1v.1l-.2.6-.2.2-.4.4-.2.2h-.3l-.2.5v.5l-.1.1.1.3v.3h-.1v.7l.2.3v.2l.2.5v.6l-.1.3h.2v.6h-.1v.5l.2.2v.9h.2v.7h-.5l-.1.1h-.1l-.1-.1h-.4v.7l.2.1v.1l-.2.2v1.4h.3v.7h-.3v.1l.2.7v.3h.2v.5h-.4v.3l.2.1v.9-.3.2h.2v.5h.1v.7l-.1.2v.2l-.1.2v.4l.4.1v.2h-.8l-.4.3h-.3l-.2.2h-.1l-.2.2-.6.5v.3l-.3.2v.2l.2-.6h-.3v-.1h-.3v-.3l-.1.2v.6l.2.3v.3l.1.2h.2l.2-.3v.2h.2l.2.3-.4-.2v.7l-.4-.1-.2.2-.2.1h-.2v.1l-.3.1-.3.3-.3 1-.4.8v.2l-.2.2v.6l.4.2v.4l-.4-.4v-.3l-.5-.3h-.4v-.4l-.4-.1-.2-.1h-.7v-.3h-.2V74h-.2l-.2.1-.2.2-.3.5v.2h-.4v.2h-.2zM521.1 61l.1-.4.2-.2.1.4.1.4.5.8.4.5v.5h-.3l-.2-.3v-.4l-.8-1zm.1-2.8v-.4l.3-.6h.2l.3.1v.4l-.4.4v.5h-.5zm.4 7.4v-.3h.9l.1.1.2.5.5.1v.7l-.3.3-.4.7h-.3l-.3-.6-.3-1.2zm1-5.2v-.9l.4-.4.1.1-.2.3v1.2h-.2zm1.1 3.9V64l.3-.3v-.1h.3l.4.3.3.3h.1l.3.3v.5l-.2.3v.5l.1.4.1.2v.3l.2.2v.7l.2.2v.2l.3.6.3.4h.1l.2.3.3.1v.2l.4.6.3.2v.1h.3v.3h.1l.3.4.2.6v.6l.1.6.1.2v.4l-.2.4-.6.2h-.3l-.4-.5v-.2h-.1v-.3l-.3-.4h-.2l-.5-.3-.2-.3-.5-.5-.1-.3h-.1v-.3l-.2-.3v-1.4l-.1-.1V69h-.3v-.4l-.2-.5-.1-.5-.1-.4V67l-.4-.8V66l-.2-.1v-.2l.4-.4V65h.2v-.4l-.3-.1h-.2zm5.3 10.2v-.2l.2-.1V74l.1-.2.2-.1h.4l.7 1 .3.2v.3l.1.2v.1h.5v.3l.8.3.7.9.3.2v.2h.3v.3l.2.1h.1v.2h.2l.1.2v.4l-.2.2-.1.2h-.7l-.2-.1-.1.1h.1v.1l-.5.1h-.5v.3l-.2.4v.3l-.3.2h-.2l-.1-.2V80l.1-.7v-.5l.3-.1-.2-.4-.4-.5-.1-.5-.3-.3-.1-.3-.5-.2-.1-.5h-.2v-.3h-.3l-.1-.6-.2-.4zm2-47.7v-.1l.6-.4h.8l.2.3.7.2h.2v.2h.1l.2.1.8.7.2.2.4.2h1.5l.3-.2h.4l.1-.2.2.2-.4.4v.6l-.2.3v1.2l-.2.3-1.1 1-.3.2v.2h-.1l-.1.6-.3.2-.4.6-.8.4-.1.3v.2l-.2.2-.3.3v.4h-.2v-.1l-.3-.6v-.1l-.2-.2h-.1l.2-.5.3-.3.4-.4v-.9h-.3v-.8l.6-.2h.2l.1-.1 1-.3.1-.2v-1.1l-.1-.4-.2-.3-.2-.3-.3-.2v-.1l-.6-.5-.2-.1h-.2l-.2-.2h-1.2v-.3h-.5l-.2-.2zm.9 42v-.2l.2-.5.2-.1h.4v.3l.2.2.1.2v.3l-.7.1h-.3zM22.2 106.4l.1.6.2.2h.5l.2-.5.2-.9v-.4l.4-.2.8-.4.4-.1.6.1h.2l.3-.4.3-.1v-.3l.2-.2.8-.3.3-.2h-.3l-.3-.3-.6.3v-.3l.3-.2.3-.5.3-.2.3-.5h.4l.3-.2.5-.3h.1l.3.3h.4l.1-.2.3-.3h.3l.7.2v.3l.2.3-.3.3-.3.6-.4.4-.8.5-.2.5-.2.2-.2.2v.6l-.5.2-.4.4v.3l-.5.2-1.3.4-.2.3v.5l-.1.2-.3.2-.4.3-.3.6-.9 1-.3.6-.6 1-.7 1.2-.1.8.2.4.7-.1.2.4h.3l.7-.2.6-.7.6.3.4.7v.5l-.4.8h.6l.4-.5.4-.9.2-.9v-2.5l.8-1.2 1-1.3.3-.5h1.4l-.7.5-.5 1-.5 1-.2.6v.9l.2.9.4.8.5.4.6.4.5.2h.7l.6-.4.7-.3.7-.7.8-1.2.6-.6.6-.7 1-.7.8-.7.2-.4v-.9l-.6-.6-.3-.2-.6.2-.7.3-.9.7-1 1.2-.1.3-.3-.2-.3-.2V108h.4l.2-.1 1-.9.1-.6.7-.2.7-.2.4-.3v-.5l.5-.2h-.1l-.3-.5.5-.3.2-.2h.4l.2-.5.4-.5h.4l.3-.4v.2l.1.2v1l-.5.3-.2.3h.4l.3-.4h.3l-.3-.5v-.4l.4-.1v-.4l.1-.2v-.3l.8-.4.1-.3.2-.3.4-.2.4-.3v-.2l-.1-.3-.3-.2-.1-.3v-.7l.3-.3.3-.6.5-.5h.5v-.9l-.5.3-.5-.5-.7-.2-.2-.3h-.3l-.4.4v.8l.3.7-.3.3h-.5v1.3l.1.6 1 .8v.3H40l-.6-.5v.2l.4.5.4.1-.3.2-.3.3h-.3l-.3.3-.4.2-.5.2-.6.2-.2-.4.1-.4v-.2l-.4-.6-.3-.8.7-.8.6-.5.7-.5.2-.6-.6-.8-.3-.4-.4.2V97l.4-.8-.3-.2-.1-.7.2-.7.2-.3v-.4l.5.2v-.3l-.3-.1-.2-.5v-.6h.5l.6-.4V92l-.3-.3h-.3l-.5-.3-.3.6-.4.2-.1-.1h-.4l-.1.4v.3l.2.4.9.6v.1h-.7v.3h-.7l-.3.3v.3l-.1.2-.5.5-.1.3h-.2v.5l-.2.2-.4.7-.3.5-.6.2v.3l-.3.1-.2-.1v-.4l.2-.5.5-1 .1-.3v-1.8l-.2.2v.6l-.3-.1v-.5l-.1.1V94l.2-.4.8-1 .2-.2.5-1 .4-.2V91h.1v-.3l.3-.1v-.4l.1-.2.7-.4.3-.5.5-.3.3-.2.4-.4v-1.6l.3.1.1.3h.3l.4-.2.3-.2v-1l.4-.3-.2-.1h.2v.8l.3.1v.3l-.3.3-.1.5h.5l.3-.2v-1.1l.2-.9-.1-.2h-.2l-.2.3h-.3l-.1-.2-.5.1-.2-.5v-.3l.2-.1.3.2H41l.3-.3v-.4L41 83l.4-.3h.1v.3l.3.7-.3.3.1.2.4.1.7-.2.3-.3v-.6l.1-.5h.2v1.1h.2l.6-.4.2-.3.2-.9v-.4l.2-.1.5.1v-.4l.6-.3.1-.4v-.4h-.1l-.1.2h-.1l-.2-.4h-.2v.3l-.2.3-.4.3h-.3l-.2.2H44v-.5l.2-.2V80h.3v-.8l.2-.4h.3l.1-.1.5.5V79l-.2-.3v-.2l-.4-.2v-.4l-.3-.1-.2-1-.3-.5-.2-1v-1h.3v-.4h-.4l-.5-.3h-.2l-.2.4h-.2v-1l.2-.3.5-.2H43l-.4.5v.4l-.4.1-.2.3v.4h-.6v-.4l-.2.4v.2l-.2.2-.3-.6v-1.3l.3-.3h.1v-.3h1.1l.3-.5.5-1.2.2-.8.2-.8v-.7l-.4-1v-.3l-.3-.1v-.3l.3-.1h.4l.4.4.2-.4.3-.2.4-.4.7-.4.2-.5.3-.5.7-.3.3-.6.2-.7-.1-1.1v-.4l.4-.5v-.8l-.1-.4-.3-.5v-.1l.3-.4h.4l-.1.3-.3.3.1.1h.3l.2-.2h.4l.3.2h.6l.2-.4v-.2h.7v-.3l-.3-.3-.4-.2h-.8l-.3-.4-.3.2v.5l-.3.1V58l.1-.7.7-.6v-.4l.5-.3v-.5l.2-.5h.8l-.3.6v.1h.3l.3.1.2-.2-.1.6-.1.5.4-.3.2-.1.2-.3.3-.5.2-.6.6-.1v-.3l-.3-.1-.6.2-.1.3h-.3v-.3l.2-.4.7-.2.5-.4.2-.4-.1-.2h.5l.6-.4-.3.5-.2.2h.3l.4-.6.3-.4.4-.2v-.4l-.2-.5V51l.3-.4V50l.2-.3-.2-.4h-.7v-.2h-.7v.3l-.3.8-.2-.2v-.6h.2l.2-.4v-.4l.2-.3.6-.1.2-.7-.2-.3h.2l-.4-1.2-.3.5.1.7-.4.8-.2.4v-1l-.2.4h-.4v-.4l.4-.2.1-.2v-.6l.7-.4.2-.3-.2-.6-.6-1h-1l-.2.4-.4.1-.1.4-.2-.9.2-.6.3-.6.4-.8-.2-.4-.5.9-1.1 1v.5l.2.9-.5.3h-.2v-.5H49l-.6.3-.4.7h-.6v.5l.2.7.2-.1h.6l.2.3.9.3.1.8-.3.7h-.5l-.6-.8h-.6l-.6.4v-1.3l-1 .7h-1l-.2-.2-.7-.4V47l.7.2h.4v-.4l.2-.2v-.3l-.2-.2-.6.1-.3-.5-.5-.7-.8-.6-.3.1v.2l.5.6.5.7-.1.2-.2.4h-.1l-.3-.5-.2-.5-.5-.5-.7-.1v-.6l.2-.2.2-.2-.2-.4.4-.2v-.2L42 43h-.4l-.3.2v1.5h-.6l-.3.1-.3.3h-.9l-.6-.1-.3-.3v-.4l-.6-.3-.5.4-.3-.5.1-.2.3.3.3-.3v-.3l.3-.4-.1-.2-.3-.1-.3.3-.6.6-.1.4-.1.2v.2l.2.3.5.4v.3l.5.5.6.8-.4.3-.1.3v.3h.3v.4l-.2 1-.2 1.1-.1.9-.6.8-.3.7-.2.2-.4 1-.3.3-.2.2h-.2l-.2.3h-.3l-.2.3v.3l.4.2.2-.4h.2l-.4.4-.4.4-.2.5h-.3v-1.5l.1-.5.2-.2.6-.5.5-.3.2-.2.6-1.3.2-.7v-.7l.3-.3v-.5l.2-.2.2-1.3v-.6l-.2-.6-.4-.5-.2-.3-.4-.5-.6-.5-.4-.4h-1l-.1.3.1.1v.4l-.3.2-.7.1-.2-.2h-.2v.3l-.6.2h-.2l-.4-.4-.1.4-.4-.2-.2.2v.4l-.2.3.2.3v.7l-.2.2h-.1v-.3h-.1l-.1.2-.4.3v.1h.3l-.2.3.3.3-.1.6-.4 1.2-.1-.3.1-.6v-1.4h-.4l-.3.2-.2-.2-.1.2h-.4v.1l.2.4-.5.1h-.2l-.1.2h.1v1.1h-.4v.6h.3v.9h.1l.2.4h-.3l-.1.4-.2.2-.2.4-.2.5v.5h-.2v.3h-.3v.4l-.5.1-.2-.1-.1.4-.2.1v.5h-.3.4l.1.5.3.4.2.4.4.1h.3l.2-.4h.2v.2h.4v.1l-.1.1-.1.1-.1.2v.1h.3l.1-.3.3-.2.4.2v-.3h-.1l-.3-.2v-.2l.1-.2.3-.3h.7v-.7l-.2-.3V55l.4-1v.7l.3 1 .2.3.3-.3.3-.3.1-.2.3-.3.1-.1h.3v.2l-.3.2-.1.2v.3l.2.4.4.5-.3.4v.5l-.2.5-.4-.2-.1-.6-.2-.2h-.5l-.3.5-.5.5-.4 1.2-.4.6 1.2 1.1 1.1.7.7.2.3.2h.3l.5-.3-.3 1.4v.4l.5.5.1.3-.4.5-.2.1-1 1.1-.2.6v.3l.5.6v.8l-.3.4v.9l.3.4v.9l-.3.3v.8l-.3.1-.8.5-.4.4h-.8l-.4.3-.3.1-.1.6-.4.3-.5.7v.3-.3h.6v.4l-.4.4v1.7l.3.2h.8l.4-.2.4-.7.2-.4.7-.6.2-.5.8-.8 1-.9v-.2l.4-.4.1-.2 1-.8.3-.2.2-.5V71l-.1-.3-.2-.2.1-1 .2-.9.1-.2.2-.3.1-.2v-.2l.5-.4v-.4l.1-.5-.2-.4v-.4l.2-.6.4-.4.4-.4.2-.1.1-.3.5-.3.3-.2.4.2v.3l-.5.2-.1.2-.1.2v.7l-.1.1v.6l-.5.4-.4.4-.2.4v.3l.5.1h.1l.5-.4.5-.4.4-.2h.6l-.3.2-.2.1v.3h-.1v.4H37l-.3.2-.6.4-.5.4-.4.4-.2.2v.8l.7.5.3.7.3.2v.1H36l-.2.4-.2.3v.1h-.2l-.4.1-.1.2h-.5l-.5.4-.5.2-.4.7-.2.5v.2l-.2.2-.2.4H32l-1 1.1-.2.4-.6.7-.6.7v.6l-.3.5v.4h.3v.6h-.1v.5l.6.5.4.4.5.3.6.2h.6l.4-.1.5-.5.4-.6.7-1.7.1-.4.4-.3v-.4l1-.9.3-.5.4-.5v-.6h.1l1-.4.5-.5.4-.5.1-.2v-1h.1v.4l.4.2.4-.7.1-.7.2-.3V71l-.1-1-.3-1 .4-1 .7-.4.1-.3.2-.7v-.2l.3-.4v-.1h.9l.5-.5.6-.4v-.4l.2-.5.1-.4.1-.2.7-.1v.3l-.1.2v.4l-.5.7-.2.4-.5.4-.4.4v.5H42l-.6.3-.4.2-.1.4-.2.4-.5.5v.7l.3.8.2.6v.7l-.2.3.2.4v.5l-.2.3v.4l.1.3v.5l.2.7v.2l-.3.3-.6.5-.5.6v.5l.3.3H41l.5-.4v.1l-.3.4-.6.5-.2.5-.4.2V78h-.8v-.4h-.7l.3-.5-.1-.1v-.3l-.2.2v.4l-.2.2-.4.3-.9.2-.6.5v.8l.1.3h-.4v.1l.2.5.1.3v.2l-.2.3-.2.8-.2.5-.6.8-.4.7-.3.2.1-.2.2-.5v-.5l.4-.1v-.2L35 82h-.5l-.2-.1v.7l-.3.5-.3.3-.2.3-.1.5-.4.1h-.3l-.1.3-.1.7-.3.6-.9.5-.2-.2-.2-.3h-.3l-.4-.1H30l-.4.2-.3.5-.7.2.1.1.4.3.2.3-.2.3v.3l.2.7v.3l-.5.3.2.1.2.8.5.5v.3l-.3.3-.4.7h-.2l-.1-.3-.2-.2V91h-.4v.8l-.2.2v.2l.4.2v.3h-.6l-.1.2-.2-.2-.1-.5H27l-.3.2v.3l.3.3.2.4.4.3h.6l.3.3h-.8l-.1.2h-.2l-.1-.3h-.1v.1h-.9v.4h.6l-.2.1h-.3l-.2-.3-.4.2v1l.2.2.5.2-.2.5-.2.5-.4.5.2.6h-1l-.3.5v.3l.4.6v1l.6.4.4 1v.3l-.6.7-.4 1-.2.2-1.1.4-.4-.3-.8.4-.2.6zm15-40.5l.4-.3.4-.4.2-.7v-.3l-.2-.4-.4-.2v-.2h.2l.4-.4.4-.3.2-.7v-.2l-.2-.2-.3.4-.3-.2v-.3l.4-.3.2-.3.6-.7h.3l-.1.2-.2.1v.5l1.1.2v.4l-.3.2-.5.6-.3.9.4.3v.4l-.3.1-.1.4-.2.2v1.1l-.3.2-.5-.3H38zm3.3-3.2v-.2l.3-.5.1-.4.6-1 .3-.3V60l.4-.2-.2.9-.4.5-.3.8-.3.6zm1.8-3.2v-.1l.4-.4h.1l.2-.3.3-.5v-.4h.5l.2-.2h.4v.4l-.2.5-.2.3-.7.3-1 .5zm408.7 35l1-.2 1 .3 1.4.2 1.1.5.7.3 1.4.4h1l1 .4 1.1.4v.8l-.4-.3-.7-.2-.3.1h-.6l-.3.1h.3l.7.1h.4l.3.1.7.7.6.2v.4l-.6-.2-.4.1-.1.8.6.5h.7l.7-.3.5-.2.8.3.9 1 1.4-1.8-.9.4h-1l-.2-.8.4-1v-2.9l-.4-1.2v-.6l-.3-1.4-.5-1-.5-1-.3-1-.4-1.5v-1l-.6-.9-.4-.7h-.3l-1.7 1.3-1.1.6-1 .4-.5-.3-.3-.2-.3-.1h-1.2l-.2.4v.2l-.2.9.1.3.6-.2.4.1.3 1.2-.4.2V91l.4 1.1-.7-.2-1.1-.3-1 .8-.9.7v.6zM5.6 117.2v.3l.2.2.3.3h.6l.3-.4v-.3h-.3v-.1l.1-.3.8-.5.4-.4v-.3l-.4-.3-.4-.5v-.1h.4l.9 1 .3.2H9l-.4.5-.2.1h-.6l-.3.2v.2l.2.5v1.8l.3.4.3.3h.5l.3-.2.3-.4v-1.8l-.6-.5v-.2l-.2-.2.4-.1.2.2v.2l.1.1h.2l.5-.4.2-.2.8-.3.4-.2.2-.7.5-.3.9-.3.6.4-2.2 1.4-.2.3v.7l-.4.7v.4l.6.4v.4l-.3.2-.8 1.8-.3 1.6-.5.4v.4l.1.2h.7l.4-.5 1.2-1 .6-.9.5-.6.4-1.1.1-.4.2-.3v-.7l-.2-.2-.1-.1v-.2l.3-.3.2-.7.2-.2.7-.8.2-.3v-.5l-.4-.7-.3-.1-.4.2h-.1v-.9h.2l.5-.1.5-.6.1-.4.3-.6.4-.4.4-.2.3-.6v-.2l.1-.1h.5l.3-.3.2-.2.2-.4.2-.2.6-.4.1-.3.1-.4v-1l.2-.5-.1-.3-1-.3-1 .3h-.2l-.2.4h-.1l-.4-.3v-.2l-.2-.2v-.3l-.2-.2v.2l-.2.2-.3.4-.1.8-.4.5v.2l-.2.3-.1.4v.3l-.7.4h-.3l-.3-.2h-.2l-.7.3H12l-.5.1-.3.1-.3-.1h-.2l-.3.4-.6.7-.5.9-.7.4-.5 1.1-1 1-.2.5v.1l-.1.2-.3.1-.5.5v.5zm344.7-71.6v.6l.3.3.2.2.2.3h.7l.3.3h.4l.1-.3.1-.2.1-.2h.3v-.2l.1-.2V46l.1-.4h.9v-.1h.3v.2h.1l.5-.2.2-.2.3-.4h.2l.2-.4.3-.4v-.4l-.3-.4-.5-.2-.2-.1v-.3l.2-.3.2-.4.1-.3v-.5l-.3-.2h-.2l-.2-.2.1-.3.4-.2.2-.3h-1.3l-.4-.1-.6-.2-.4-.2h-.8l-.2.2-.4.3-.2.4-.5.4-.3.4-.1.4v.5l.1.5v.9l-.3.4v.4l-.1.4v.6zm-6.7 4.5l.1.1v.2l.1.1v.5l.2.1h.1v.4l.3.3v.2h.1l.1.2h1.9l1-.3.5-.2.4-.3.4-.4.4-.5.3-.5.2-.2v-.2l.2-.3v-.8l-.2-.5-.3-.5-.2-.3-.2-.4-.3-.4-.5-.2h-.2l-.3-.2h-.3l-.3.2-.3.1-.2.1-.2.1-.2.2h-.2v.3h-.5l-.2.3-.3.3-.3.4h-.1l-.2.1-.1.3-.2.2v.5l-.3.3-.1.2-.1.4zM116.8 135v.2l.2.1v.1h.2v.2h.7v.2l-.3.2-.1.2v.3h.3v-.5l.2-.2v-.2l.3-.2.1-.2h.6v.4h.5l.3-.2v-.2h1.9l.6-.4.8-.1.1-.1.2-.1.3-.2.2-.3v-.3l.1-.2v-.5l-.3-.1v-1l-.2-.1h-.5v-.2l-.2-.1h-.2l-.3.3-.3.2-.5.2-.4.2h-.1v-.8l-.1-.1h-.7v-.2l-.1-.1-.1-.1v-.1h-.1l-.2-.2h-.8l-.2.2h-.2l-.2.2h-.2l-.1.3v.1h-.2v.3h-.1v.9h-.1v.2h-.3l-.1.1-.2.1v1.4l-.2.1v.2zm228.6 83.8l.1.4.3.2v1.4l.6.8.7.7 1.3.2.4.2.6.2.7-.4.4-1v-.7l-.3-.5.5-.3v-1.9l-.9-1h-.8l-1 .1-1.5.8-.9.3zm0 0" class="B"/><path fill="url(#C)" d="M180.5 189.9l4.7 1-2.6-3.7-.4-3-1.6 5.6zm0 0"/><path fill="url(#E)" d="M152.3 115.6l4.2.4-2.2-3.9-2 3.4zm0 0"/><path d="M4 187.4v.1h.5v.4-.5h.1v.4l.2.1h.1v.1l.4-.3.2-.1h.1l.2-.2h.4l.3-.4h.4l.1-.2h.2l.2-.1.3-.2H8v-.1h.2v-.4h.3l.2-.2v-.1l.3-.2.3-.4.1-.2.1-.2h.1v-.3h.2v-.1l.2-.3v-.1l.1-.1.2-.2.2-.2.1-.2.2-.2.2-.2.1-.4h.1l.1-.3h.1l.1-.3v-.1h.1v-.1l-.1.1h-.2v.2h-.1l-.2.1v.2h-.2l-.1.3h-.3l-.1.2h-.6l-.3.1-.1.2-.3.4v.1h-.2v.3h-.5l-.2.2-.1.1h-.1v.3h-.4l-.2.2h-1l-.1.2H6v.2l-.3.2v.1l-.2.3h-.1l-.4.4v.1h-.1v.2h-.2v.2h-.2v.4h-.3v.1zM336.8 37.3l.2.3v.6l.4.4.4.4.7.1 1-.1.5-.1 1-.5.3-.4.1-.8.1-.4-.1-.3-.4-.5-.3-.2h-.3l-.6-.2h-1.6l-.6.4-.5.4-.1.6zm0 0" class="B"/><path fill="url(#G)" d="M11.4 236.2l3.5-.5-2.9-1.3-.6 1.6zm0 0"/><path d="M347.5 85v.2l.5.2.5.2 2.2-.8 1.4-.8.4-.3.1-.3V83l-.1-.5-.5-.8-.4-.6h-.6l-.3.4.1.1-.2.2-.6.2h-.3l-.3.3-.3.4-.1.3h-.2l-.3.4-.2.6-.5.4zM33.1 178.3l.1.1.1.2h.5l.1-.2.3-.1h.1l.2.4v.1h.1v.4l.2.1v.2h.2v.3l.2.2v.5h-.8l-.2.4-.2.1v.1l-.2.2v.1l-.1.2v.4l.2.1v.3h.1v.1h.6l.1.2h.3v-.5l.3-.2.2-.3v-.1l.1-.2.2-.2.2-.4v-.1l.3-.3v-.4h.1v-.3l.3-.2v-.4l.2-.2v-.2l.1-.4v-1l-.2-.3-.2-.1v-.2h-.3v-.2h-.1v-.2l.2-.2v-.1l-.1.2h-.1l-.2.4v.1h.3v.1H36l-.3-.2h-.6v.2H35l-.2.1v.1l-.2.1v.1h-.3v.2h-.8v.3l-.3.2v.1h-.1v.4zm121.3-16.8v.3l.3.2v.1h.3v.2l.1.1.1.1.1.1.3.4.3.2.1.1v.2h.5l.2.2.5-.2h.4l.5-.2h.1l.2-.3.4-.2h.4l.3-.3v-.1h.1l.2-.4.1-.2.2-.3v-.2h-.9l-.2-.3h-2.3l-.1-.1h-1.8v.1h-.2v.1h-.1v.3zm0 0" class="B"/><path fill="url(#J)" d="M371.1 66.3l3.9-.7h-3.6l-.3.4zm0 0"/><path fill="url(#L)" d="M23.1 190l4.5-1-3.6-1zm0 0"/><path fill="url(#N)" d="M155.1 195l2.6.7.3-3.7zm0 0"/><path fill="url(#Q)" d="M184 134.8l2.9 1 .9-2.4zm0 0"/><path fill="url(#S)" d="M35.1 173.2l4.6-2.5-1-1.4-3.7 3.9zm0 0"/><path fill="url(#U)" d="M197.4 115h3.1l-3-.6v.5zm0 0"/><path d="M138.4 172.3v.7h.3v.2h.3l.3-.4.5-.2.2-.2v-.2l.3-.2h.3l.4-.4.2-.6.2-.1.2-.3.2-.4v-.5l-.1-.1-.4-.4v-.2h-.7l-.3.4h-.2l-.2.1-.2.1-.2.4-.3.2-.5 1-.1.2-.2.7zm186.4 14.9l.2.8.4 1 .2.8.6.1 1-.2.5-.7v-1.3l-.3-.7-1.2-.8-1 .3zm0 0" class="B"/><path fill="url(#X)" d="M168.4 195.1l1.9 2-.8-2.9-1 .8zm0 0"/><path fill="url(#Z)" d="M19.2 156.7l4.6-.3-1-1.4-3.4 1.3zm0 0"/><path d="M212.7 171l.3.2v.5l.1.1.1.2.4.6v.6l.3.2v.6h-.1v.2h.4v.2l.2-.2v.2h.2l.1-.2h.1v-.2h.2v-.2h.3v-.2l.2-.2v-.2l.3-.2v-.8l-.2-.2v-.7h-.2l-.2-.2v-.1h-.7v-.4l-.2-.2-.5.4-.2-.4v-.1h-.5v.2h-.2v-.1h-.2v.4zm0 0" class="B"/><path fill="url(#b)" d="M31.6 257.7l3.6-2.3zm0 0"/><path d="M159 98.9v.3l.2.1v.3l.1.2v.1h.1v.1l.1.1.1.1h.4v.2l.3.1.2.1h1.1l.1.3h.4v-.4h.2v-.1h.1v-.2h.4-.3v-.4h-.2v-.3l-.2-.1v-.3l-.1-.1-.2-.2v-.2l-.2-.2h-.1v-.1h-.2l-.2-.2h-.1l-.3-.1h-.3v-.2h-.2v-.4l-.2.4h-.4v.2h-.1l-.1.2h-.2l-.1.1v.5h-.1zm0 0" class="B"/><path fill="url(#e)" d="M-1 225.9l2.5-.7-2.4.6zm0 0"/><path fill="url(#g)" d="M159 144.2l2.4-1.2-2.4.8zm0 0"/><path fill="url(#i)" d="M162 196.4l3.2-4-2.2 1.1-1 2.7zm0 0"/><path d="M136 113.4l.2.2.1.3h.1l.2.1h.4l.3-.3.1-.2h.1l.2-.4.3-.1.1-.3.4-.2.1-.3h.1v-.2h.1l.2-.3.1-.2h.2v-.1h.2v-.2l.1-.1h.3l.1-.3.3-.2v-.2h.1v-.1l.2-.1v-.1h.2v-.2h.2v-.2h-.2v.3-.4.2h-.2v-.1h-.1v.2h-.5v.3h-.3l.3.2h-1.1l-.2.4-.1.2.4.2h-1.3l-.2.2h-.2l-.3.2v.3l-.1.1h-.2v.3l-.4.2-.1.3v.2l-.2.1zm4.3-3.4l.2-.3v.5zm13.7 60.6l.3-.2.2-.1v.2l.1.3v.3l.2.2h.3l.2.2.4.2v.1h1.3l.1-.2v-.1l.2-.2h.2v-.1l.1-.4.2-.2v-.8h-.8l-.1-.1h-.3v-.2l-.3-.1v-.2h-.6l-.1.3h-.2l-.3.2h-.1l-.2.3h-.4v.3l-.4.1zm-62.2 47.7v.4l.4.2.5.4.7.1.5-.1.4-.3.2-.2-.1-.5h.1v-.7l-.5-.8-.3-.2h-.4l-.2-.1-.3.1-.6 1.2zm299.3 4.1l.6.2.4.1h.7l.5.3.9.4 1-.4.2-.8-.7-.8h-.8l-.6-.4-.7.5-.6.5h-.4zm0 0" class="B"/><path fill="url(#l)" d="M155.5 210.5l3.3-2.4-3.2 2.1zm0 0"/><path d="M384.2 222.5l.6.7h1.2l-.1.5-.2 1.3h.1l.6-.3.8-.3.7-1.2-.4-.6-1-.1-1.5-.2zM1.4 238.2v.4l.3.2.3.3.1.2.4.2v.1l.4.4.1.2h.3l.4-.2.1-.1v-1h-.2l-.1-.2v-.3h.1v-.3.2h-.2v.2h-.1v-.4h-.1v-.1h-.1v-.2l.3.4h.1v-.2h.2-.4v-.3h-.1v-.2l-.1-.2v-.2h-.2l-.1.2h-.3l-.3.1h-.3v.1l-.4.3-.1.2zm0 0" class="B"/><path fill="url(#n)" d="M187 167.2l.8-2-.7 1.7zm0 0"/><path d="M148.9 194v.4l.1.2v.1l.1.3.1.2v1h.2v1.2h-.2v-.3.7l.3-.3h.5v-.1h.3l.1-.4.4-.4.2-.2v-.3l-.3-.3-.1-.2-.2-.4-.4-.4v-.1l-.3-.1v-.1l.3-.2v-.7h-.5l-.1.3v.1h-.4v-.1h-.1zm0 0" class="B"/><path fill="url(#p)" d="M171.8 172l2-1-2.1 1zm0 0"/><path d="M140.7 179.2v.1l.3.4.4.3h1.1l.1-.3.4-.1.4-.4h.3v-.1h.3v-.3h.2l.2-.3v-.1h.2-.3v.2h-.6v.2h.3v.2h-.5v.2h-.1v-.2l-.1-.2-.1-.4-.2-.4h-.8l-.4.2h-.7l-.1.1v.3l-.3.1v.3zM277 33.5l.6 1 .4-.1v-.5l.7-.2.4-.7.6-.1v-1h.3l.8-.5.2.3 1.1-1.2-1.1.8-.5-.2-1.6.6-.4.6-.5.1v.4l-.3.4h-.4zm0 0" class="B"/><path fill="url(#s)" d="M150.2 152.8l2.1-.6-2 .5zm0 0"/><path fill="url(#u)" d="M20.5 177.1l1.4-1-1.3 1zm0 0"/><path fill="url(#w)" d="M175.8 195.7l.7-1.5-.7 1.3zm0 0"/><path d="M181.3 218.2l.3.4h.7l.9-.5.4-.1v-.7h-.2l-.4-.5v-.3l.3-.2v-.2l-.3-.2h-.6l-.3.5-.3.6-.4.6zm0 0" class="B"/><path fill="url(#z)" d="M175.3 147.9l2.8.4-2.8-.5zm0 0"/><path fill="url(#AB)" d="M116.3 166.6l1.4-1.7-1.3 1.6zm0 0"/><path fill="url(#AD)" d="M160 133.8l1-3.1-1 3zm0 0"/><path fill="url(#AG)" d="M138.6 155.2l2 .9-2-1.1zm0 0"/><path fill="url(#AI)" d="M188.1 191.8l1-1.8-1.1 1.3zm0 0"/><path d="M360.8 31.4h.3l.3.2.3.1.3.3h.4l.3-.5h.3l.3-.5.2-.6V30l.2-.2-.3-.2-.4-.1h-.4l-.2.1-.1.4-.3.3-.2.3-.5.2-.3.3zM154.1 125l.2.4v.1l.2.1v.1l.1.2.2.1h.3l.3.2h.2l.1.1h.5l.3-.3h.3v-.5h.2v-.2h.1l-.1.3-.2.2h.6v.2h.4v-.6h.1v-.1l-.3.2v.2h-.2l-.2-.4h-.2l-.1-.2h-.9v.3h-.2l-.2-.2v-.2l-.3-.2v-.2l-.1-.1v-.1h-.1v-.2h-.7v-.1h-.2l-.1.3v.3zm0 0" class="B"/><path fill="url(#AK)" d="M131.2 176.2l1-2-1 2.1zm0 0"/><path fill="url(#AN)" d="M192.6 177l.4-1-.4.6zm0 0"/><path d="M19.2 183h.3v.2h-.3l.3.2h.7v-.4h.2v-.2h.2v-.3h.2l.1-.2h.1v-.2h.2v-.3h.6l.2-.2.4-.2h.2l.1-.3h.3v-.3h.2v-.2h.2v-.9h.1v.3l.1-.3h-.8v-.2l-.1.3h-.1v.1h-.1v.1h-.3l-.1.3h-.2l-.1.3v.1h-.2v.3l-.3.2-.1.4-.2.2v.2h-.3v.2h-.1v.1h-.1v.1h-.1l-.1.1H20l-.3.1h-.1v.2h-.2v.2h-.3zm0 0" class="B"/><path fill="url(#AP)" d="M162.7 181.2l.4-1zm0 0"/><path fill="url(#AR)" d="M124.4 199.8l2-4.3zm0 0"/><path fill="url(#AU)" d="M186.5 159.7l1-1.8-1.1 1.5zm0 0"/><path fill="url(#AW)" d="M9.4 180.6l4-3.2-2.7 1.4-1.3 1.7zm0 0"/><path d="M181.9 213.4l.2.6h.3l.9-.4.5-.6.2-.5-.3-.5-.8-.2-.6.2-.4.6zm0 0" class="B"/><path fill="url(#AZ)" d="M187.9 152.7l2.6-2.9-2.5 2.8zm0 0"/><path d="M.7 258.1l.3.3h2.2v-.4h.3v-.4h.2v-.8l-.2-.3h-.3v-.1h-.4l-.1.3-.1.1-.2.2-.1.2-.3.3h-.1l-.2.2h-.4l-.2.2H.8v.1zM185 163.3h.3v.4h.5l.1.2h.8l.1-.3h.2l.2-.1.1-.3v-.8l-.2-.2h-.2l-.2-.2h-.7l-.3.3h-.1v.2l-.2.1v.1l-.3.3-.1.1zm0 0" class="B"/><path fill="url(#Ab)" d="M22.2 225.3l.5-.6-.5.5zm0 0"/><path fill="url(#Ae)" d="M169.4 188.5l.3-1-.3.8zm0 0"/><path d="M132 183.3v.2l.3.2v.3h.2v.2l.5-.2h.2l.2-.3.1-.1h.1l.2-.4h.1l.1-.4v-.2l-.1-.3v-.2h-.1l-.5-.1h-.5v.2h-.3l-.1.3-.3.2v.2zm-12.2-34.9v-.1l.2-.1v-.2h.2v.2l.2.1h.4l.2.2.3.2.3.2h.4v-.7l.2-.4v-.3l-.2-.2h-.4l-.3-.3h-.9l-.2.2-.2.2v.5l-.2.1v.2zm120.1-9.5h.3v.2l.1.1h.2v-.2h.1l.1-.3h.2l.1.1v.2l-.2.2v.2h-.2.5v.2h.5v-.1l.2-.1v-1l-.2-.1v-.4h.3v-.2l-.2-.1v-.3h-.2v-.1l-.1-.4v-.2h-.2v.4h-.2l-.3.3-.1.2v.5h-.2l-.2.3v.2h-.2v.1zm0 0" class="B"/><path fill="url(#Ag)" d="M153.3 150.2l1.7.3-1.7-.5zm0 0"/><path d="M181.3 56.5l.3.1v.4l-.2.2v.6l.1.2.3.5.1.2h.2l.2.2h.3l.2-.2h.4v-1l-.2-.2-.1-.1-.2-.4h-.1l-.3-.2h-.1v-.1l.1-.2-.2.1v.1h-.5l-.3-.3zm0 0" class="B"/><path fill="url(#Ai)" d="M-1 236.6l2-.8zm0 0"/><path fill="url(#Al)" d="M173 182.9l.3-.3h-.3zm0 0"/><path fill="url(#An)" d="M146 165.3l2.5-1-2.5.8zm0 0"/><path d="M178.5 174.7h.1l.2.3h.4l.2.3h.2l.2.2v.2h.4v.1l-.2-.5v-1.1l-.2-.2v-1.1l.4-.1h-.7l-.3.2-.1.3-.2.3v.1l-.3.3-.1.3v.1zm0 0" class="B"/><path fill="url(#Ap)" d="M175.5 133.8h.5zm0 0"/><path fill="url(#As)" d="M173 152l1.5-1.3-1.5 1zm0 0"/><path fill="url(#Au)" d="M19.2 234.5l3 .5-2.9-.6zm0 0"/><path fill="url(#Ax)" d="M124.3 157.6l.7-.9-.6.6zm0 0"/><path fill="url(#Az)" d="M130.1 163.4v-.2zm0 0"/><path d="M96.6 217l.1.3v.2l.5.4h.2l.2-.4v-.2l-.1.1v-.2h.2l.1-.2v-.4l-.2-.6v-.2l.1-.2v-.4l-.4-.5-.1-.3h-.4v.8l.2.4v.9l-.3.3v.2zm99.2-58.5v-.1h.2l.2-.1h.2l.2-.1h.2v.2l.2.1h.4l.2-.2.2-.3.2-.1v-.3l-.1-.2-.2-.2-.2-.2v-.4h-.3l-.1-.3h-.3v.6h.3v.1h-.4l-.2.3-.1-.3h-.2v.6l.3.4v.2h-.3l-.2-.4v.6h-.2zM21.1 185.2h.3l.2-.2.3-.1h.1v.2l-.3.2-.1.2-.1.1v.1h.3v-.1l.2-.1v-.2l.1-.1h.1l.2-.4h.1l.2-.2.3-.2v-.1h.2v-.3h.2l.1-.2.3-.2v-.2l.2-.1v-.3l.2-.2v-.3H24l-.2.5h-.2v.2l-.3.1-.1.1H23l-.2.2h-.1l-.2.1-.2.1-.1.2-.2.1-.2.1h-.1l-.2.3-.1.2-.1.1-.1.4zm0 0" class="B"/><path fill="url(#BC)" d="M172.2 178l.4-1zm0 0"/><path fill="url(#BE)" d="M136.4 191.2l.4-1.2-.4 1zm0 0"/><path fill="url(#BG)" d="M179.1 143.8l.3-.5-.2.3zm0 0"/><path d="M112.7 174.1l.1.1v.6l.1.2.4.4h.3l.2-.2h.4v-.9l-.2-.3-.2-.3-.1-.2h-.7l-.2.3zm0 0" class="B"/><path fill="url(#BI)" d="M16.3 169.6l2.5-2.4zm0 0"/><path fill="url(#BL)" d="M2 158.2l.3-1.2v1zm0 0"/><path fill="url(#BN)" d="M159 117.4l.2-.2zm0 0"/><path fill="url(#BQ)" d="M199.9 128.7v-.3zm0 0"/><path fill="url(#BS)" d="M153.5 142l.1-.2zm0 0"/><path fill="url(#BV)" d="M151 176l1.5-1.3-1.5 1.1zm0 0"/><path fill="url(#BX)" d="M140.1 190.2l.2-.6-.3.4zm0 0"/><path fill="url(#Ba)" d="M160 189.6l.2-.6-.1.4zm0 0"/><path d="M139.3 193.5h.3l.2.4v.1h.8l.2-.4.2-.3.2-.2.1-.1v-.2l-.1-.3v-.2h-.6l-.7.7v.2l-.3.2h-.1zM489.9 278l1 1 .9-.9 1.6-.3v-.2l-1.8.4-.8-.4zm0 0" class="B"/><path fill="url(#Bd)" d="M154.2 177.6v-.1zm0 0"/><path d="M303.6 67.2l.2 1.1 1.4-.3-.3-1.4h-.1l-1.1.6zM34 184.4v.2l.3.3h.1v-.4h.2l.2-.2h.2v-.3h.2v-.2H35v-.1h.5l.1-.2v-.2l-.1-.3h-.6.1v-.3h-.2v-.1h-.1l-.1.3v.1l-.2.1-.2.3v.3l-.1.1v.3zm-10.2 12.8l.2-.2h.5v-.1h.3l.1-.1h.1v-.2h.2l.2-.2v-.4h.2-.3l-.2-.2v-.3H25v-.2h-.6l-.2.3-.1.1-.1.1v.5l.3.2.1.2.1.1v.2h-.7zM-2.4 273v.1l.1.2h.7l.2.2h.3v.1h.4l.1.2h.3v-.4H0v-.1h-.3v-.2h-.1v-.5H0v.2l.3.2h.4l-.2-.2h.4v-.1H1 .6v-.1h.6l.1-.1v.3l.1.1v.1h.2-.2v-.4l-.3-.2H1l-.2.2H.5v.3H.1l-.1-.3v-.1l-.3-.1-.1.3v.8H-1v-.3l-.2-.2h-.1v-.1l.2-.1v-.3l-.3-.2h-.2v.1h-.3l-.1.2h-.3v.1h-.2v.1zm0 0" class="B"/><path fill="url(#Bf)" d="M136.6 197.7v-.1zm0 0"/><path d="M179.2 230.7l.2.5h.4l.8-.1.4-.4v-.4l-1-.3-.6.2zm0 0" class="B"/><path fill="url(#Bj)" d="M160 167.9v-.2zm0 0"/><path fill="url(#Bl)" d="M185.3 202.6v-.1zm0 0"/><path fill="url(#Bn)" d="M144.1 191v-.4zm0 0"/><path fill="url(#Bq)" d="M-1 269l1.8-.9zm0 0"/><path fill="url(#Bs)" d="M178.4 162.1l.9-.8-.9.7zm0 0"/><path fill="url(#Bu)" d="M7 166v-.2zm0 0"/><path fill="url(#Bw)" d="M16.5 188.2l2.5-2.3-2.5 2.1zm0 0"/><path fill="url(#Bz)" d="M123.3 185.8v-.1zm0 0"/><path d="M-.5 205.8v.2l.2.1.1.1v.1h.4l.1-.3h.3l.1-.4.1-.1v-.8H.1v.3H0l-.3.3v.2l-.1.2zm0 0" class="B"/><path fill="url(#CB)" d="M91.2 185.4v-.2zm0 0"/><path fill="url(#CE)" d="M19.7 151.3v-.5zm0 0"/><path fill="url(#CG)" d="M13 145.1l.1-.1zm0 0"/><path fill="url(#CI)" d="M95.3 179.6v-.1zm0 0"/><path fill="url(#CK)" d="M123.6 161l.4-.6-.4.4zm0 0"/><path fill="url(#CM)" d="M164.3 173.9l.2-.6-.1.3zm0 0"/><path fill="url(#CP)" d="M162.2 216l.1-.1zm0 0"/><path d="M23.4 175.8v.3h.2v-.1h.1l.3-.2v-.1h.2v-.2h.1v-.1h.5v-.4h.1l.1-.2v-.2l.2-.3h.1v-.4l-.1.2-.2.2-.1.1h-.2v.1h-.3v.1l-.2.2v.2l-.2.2-.2.2zm0 0" class="B"/><path fill="url(#CS)" d="M6.3 175.6v-.2zm0 0"/><path fill="url(#CU)" d="M135.3 179.5l.2-.2zm0 0"/></g><g fill="none" clip-path="url(#CX)" mask="url(#CW)" stroke-linejoin="bevel" stroke-width=".8"><use xlink:href="#CY" class="C"/><use xlink:href="#CY" class="D"/><use xlink:href="#CZ" class="C"/><use xlink:href="#CZ" class="D"/><use xlink:href="#Ca" class="C"/><use xlink:href="#Ca" class="D"/><use xlink:href="#Cb" class="C"/><use xlink:href="#Cb" class="D"/><use xlink:href="#Cc" class="C"/><use xlink:href="#Cc" class="D"/><use xlink:href="#Cd" class="C"/><use xlink:href="#Cd" class="D"/><use xlink:href="#Ce" class="C"/><use xlink:href="#Ce" class="D"/><use xlink:href="#Cf" class="C"/><use xlink:href="#Cf" class="D"/><use xlink:href="#Cg" class="C"/><use xlink:href="#Cg" class="D"/><use xlink:href="#Ch" class="C"/><use xlink:href="#Ch" class="D"/><use xlink:href="#Ci" class="C"/><use xlink:href="#Ci" class="D"/><use xlink:href="#Cj" class="C"/><use xlink:href="#Cj" class="D"/><use xlink:href="#Ck" class="C"/><use xlink:href="#Ck" class="D"/><use xlink:href="#Cl" class="C"/><use xlink:href="#Cl" class="D"/><use xlink:href="#Cm" class="C"/><use xlink:href="#Cm" class="D"/><use xlink:href="#Cn" class="C"/><use xlink:href="#Cn" class="D"/><use xlink:href="#Co" class="C"/><use xlink:href="#Co" class="D"/><use xlink:href="#Cp" class="C"/><use xlink:href="#Cp" class="D"/><use xlink:href="#Cq" class="C"/><use xlink:href="#Cq" class="D"/><use xlink:href="#Cr" class="C"/><use xlink:href="#Cr" class="D"/><use xlink:href="#Cs" class="C"/><use xlink:href="#Cs" class="D"/><use xlink:href="#Ct" class="C"/><use xlink:href="#Ct" class="D"/><use xlink:href="#Cu" class="C"/><use xlink:href="#Cu" class="D"/><path d="M162.4 291.3l-65-14.6-2.9 22.3" class="C"/><path d="M162.4 291.3l-65-14.6-2.9 22.3" class="D"/></g></svg>