<svg xmlns="http://www.w3.org/2000/svg" xmlns:xlink="http://www.w3.org/1999/xlink" viewBox="0 0 497 279"> <defs>  <path d="M3.8 2A1.7 1.7 0 1 1 .3 2a1.7 1.7 0 0 1 3.5 0zm0 0" style="fill:#fdfdfa;fill-opacity:1;fill-rule:nonzero;stroke:#3f3f35;stroke-width:.5;stroke-linecap:butt;stroke-linejoin:miter;stroke-miterlimit:4;stroke-opacity:1" id="reuse-0"/>  <path d="M3.7 2C3.7 3 3 3.7 2 3.7A1.7 1.7 0 1 1 3.7 2zm0 0" style="fill:#fdfdfa;fill-opacity:1;fill-rule:nonzero;stroke:#3f3f35;stroke-width:.5;stroke-linecap:butt;stroke-linejoin:miter;stroke-miterlimit:4;stroke-opacity:1" id="reuse-1"/> </defs> <defs overflow="visible" style="stroke:none">  <path id="W" d="M1-7.1h2c1 0 1.6.1 2 .4.5.2.7.7.7 1.3 0 .5-.1.8-.3 1-.4.4-.6.6-1 .7l.8.3c.2 0 .4.2.5.5.3.2.3.5.3.9 0 .6-.3 1-.7 1.5-.5.3-1 .5-1.8.5H1Zm.9 3h1.3c.6.1 1 .1 1.3-.3.2-.2.3-.5.3-.9s-.1-.6-.4-.7c-.4-.3-.8-.4-1.4-.4H2Zm0 .8v2.5h1.4c.7 0 1 0 1.3-.2.4-.4.4-.7.4-1.1s-.1-.7-.4-.9c-.2-.2-.6-.3-1.4-.3Zm0 0"/>  <path id="V" d="M3.4-5.5c.7 0 1.2.2 1.6.5.2.3.4.8.4 1.5V0h-.9v-3.4c0-.9-.4-1.3-1.2-1.3-.6 0-1 .1-1.2.5-.3.2-.4.8-.4 1.4V0H.8v-5.4h.8v.8h.2c.2-.4.3-.5.7-.7l1-.2Zm0 0"/>  <path id="U" d="M5.3-5.4V0h-.7l-.1-.7c-.3.3-.5.5-.9.6l-.9.2C2.1 0 1.6-.1 1.3-.4 1-.7.8-1.2.8-1.8v-3.6h.9v3.5c0 .8.3 1.3 1.2 1.3.6 0 1-.2 1.1-.5.3-.4.5-.9.5-1.5v-2.8Zm0 0"/>  <path id="T" d="M1.7-7.6v2.9l.7-.5c.2-.2.6-.3 1-.3.6 0 1.2.3 1.6.8.4.4.6 1.1.6 1.9C5.6-1.7 5.4-1 5-.6c-.4.6-1 .7-1.6.7-.4-.1-.8-.1-1-.2l-.7-.6-.2.7H.8v-7.6Zm1.5 2.9c-.5 0-1 .1-1.1.5-.3.2-.4.8-.4 1.5s.1 1.2.3 1.5c.3.4.7.6 1.3.6.4 0 .7-.2 1-.6.3-.3.4-.8.4-1.5 0-1.3-.5-2-1.5-2Zm0 0"/>  <path id="S" d="M0-5.4h1l1 3 .4 1 .2.6.2-.7c0-.3.2-.5.2-.8l1-3h1.2L2.8.6c-.2.6-.4 1.1-.7 1.4-.3.3-.7.4-1.3.4H.1v-.9h.6c.3.2.6.2.7 0L2 .7l.2-.7Zm0 0"/>  <path id="R" d="M3.2 0h-.9v-6.3H.1v-.8h5.4v.8H3.2Zm0 0"/>  <path id="Q" d="M5.5-2.7c0 .9-.2 1.7-.7 2-.4.7-1 .9-1.8.9-.5-.2-.9-.2-1.3-.4-.3-.2-.6-.6-.7-1C.6-1.6.5-2 .5-2.7c0-.9.3-1.6.7-2 .5-.5 1-.8 1.8-.8.5 0 1 .2 1.3.5.4 0 .7.4.9.9.2.2.3.7.3 1.3Zm-4 0c0 .7 0 1.2.3 1.5.3.4.7.6 1.2.6.6 0 1-.2 1.2-.6.3-.3.4-.8.4-1.5s-.1-1.1-.4-1.5c-.2-.3-.6-.5-1.2-.5-.5 0-1 .2-1.2.5-.2.4-.3.9-.3 1.5Zm3-5v.1L4-7l-.5.5-.5.4h-.6a16.2 16.2 0 0 0 .7-1.1l.3-.6Zm-.1 0"/>  <path id="P" d="M1.7-7.6v4.8L2-3v-.3l.4-.2L4-5.4h1L2.9-3l2.4 3H4.2L2.3-2.5l-.6.5v2H.8v-7.6Zm0 0"/>  <path id="O" d="M3.3-5.5H4l-.1 1.1-.3-.3h-.3c-.3 0-.5 0-.8.2l-.5.7-.3 1V0H.8v-5.4h.8v1h.2l.6-.6c.3-.3.6-.5 1-.5Zm0 0"/>  <path id="N" d="M2.9-7.1c.9 0 1.6.1 2 .5.4.4.6.9.6 1.6 0 .4 0 .7-.2 1-.3.5-.5.8-1 1l-1.5.1h-.9V0h-1v-7.1Zm-.1.7h-1v2.9h.9c.6 0 1.1-.2 1.3-.5.4 0 .6-.5.6-1s-.1-.8-.4-1c-.3-.3-.8-.4-1.4-.4Zm0 0"/>  <path id="M" d="M1.7 0H.8v-7.6h1Zm0 0"/>  <path id="L" d="M1.3-7.4c.1 0 .3 0 .4.2l.1.4-.1.4-.4.2-.4-.3-.1-.3.1-.4.4-.2Zm.4 2V0H.8v-5.4Zm0 0"/>  <path id="K" d="M5-2c0 .8-.2 1.3-.7 1.7-.3.2-1 .3-1.8.3H1.4a3 3 0 0 1-.9-.2v-.9a5 5 0 0 0 1 .3l.9.1c.6 0 1.1 0 1.3-.3.3-.2.4-.5.4-.8L4-2.4 3.5-3a7.2 7.2 0 0 0-1-.3c-.8-.2-1.2-.5-1.5-.8C.7-4.4.6-5 .6-5.4s0-.7.3-1a2 2 0 0 1 .8-.6 3 3 0 0 1 1.2-.2h1a5 5 0 0 1 1.1.5l-.5.6a4.5 4.5 0 0 0-.7-.2l-1-.2c-.3 0-.6.1-.9.3-.3.2-.4.5-.4.8 0 .2 0 .4.2.6 0 .2.2.3.3.4l1.1.4.9.5.8.7.2.8Zm0 0"/>  <path id="J" d="M.8 0v-2.8l-.5.3-.4-.6.9-.6v-3.9h.9v3.3l.6-.4.4.7-1 .6V0Zm0 0"/>  <path id="I" d="M3-5.5c.3 0 .7.1 1 .3a2 2 0 0 1 1 .9v1.8H1.5c0 .5.1 1 .4 1.4.3.3.7.4 1.3.4H4l.9-.3v.8L4 0a5 5 0 0 1-1 0 3 3 0 0 1-1.2-.1 2.2 2.2 0 0 1-1-1.1c0-.2-.2-.8-.2-1.3-.1-.7 0-1.2.2-1.6.2-.5.5-.9.9-1 .3-.2.7-.4 1.2-.4Zm0 .8c-.6 0-.9.1-1 .4-.4.2-.6.6-.6 1.1h2.8c0-.5-.1-.8-.3-1.1-.2-.3-.5-.4-1-.4Zm0 0"/>  <path id="H" d="M6.7-5.5c.6 0 1 .2 1.4.5.3.3.4.8.4 1.5V0h-.8v-3.5c0-.8-.4-1.2-1.1-1.2-.6 0-1 .1-1.1.4C5.2-4 5-3.5 5-3v3h-.7v-3.5c0-.8-.4-1.2-1.1-1.2-.6 0-1 .1-1.2.5-.2.2-.3.8-.3 1.4V0H.8v-5.4h.8v.8h.2l.6-.7 1-.2c.7 0 1.2.3 1.6 1 .2-.5.4-.7.7-.8.3-.1.7-.2 1-.2Zm0 0"/>  <path id="G" d="M2.8 0C2 0 1.4 0 1-.5.7-1 .5-1.8.5-2.6c0-1.1.3-1.8.7-2.2.4-.5.8-.7 1.6-.7.4 0 .7.1 1 .3a2 2 0 0 1 .6.5v-2.8h.9V0h-.7l-.1-.7a2 2 0 0 1-.8.6l-.9.1Zm0-.5c.8-.1 1.1-.3 1.4-.6.1-.3.2-.8.2-1.4v-.2c0-.6 0-1.1-.3-1.5-.2-.4-.6-.5-1.2-.5-.5 0-.9.2-1 .5-.4.4-.5 1-.5 1.5.1.7.1 1.2.4 1.5.3.4.6.6 1 .6Zm.1-.1"/>  <path id="F" d="M3-7.1c.7 0 1.4.1 2 .5.2.3.4.8.4 1.5.1.4.1.7-.1 1l-.5.5-.7.4 2 3.2H5L3.2-3H1.9v3h-1v-7.1Zm-.2.7h-.9v2.7h1c.6 0 1.1-.1 1.3-.3.3-.3.4-.6.4-1 0-.6-.1-1-.4-1-.3-.4-.7-.5-1.3-.5Zm.1 0"/>  <path id="E" d="M2.9-5.5c.6 0 1.1.2 1.4.5.3.3.5.7.5 1.3V0h-.6L4-.8c-.3.3-.5.6-.8.8h-1c-.5 0-1 0-1.3-.3C.6-.5.5-.9.5-1.5c0-.5.2-1 .5-1.2.5-.3 1-.5 2-.5h.8v-.3c.2-.5.2-.8-.2-1l-.8-.2H2l-.7.5L1-5l1-.3.9-.2Zm1 2.9h-.8c-.6 0-1 .1-1.4.3-.1.3-.3.5-.3.8 0 .3 0 .5.2.7l.7.2c.5 0 .9-.1 1.2-.4.3-.2.4-.6.4-1Zm.1 0"/>  <path id="D" d="m5.2 0-.9-3A18 18 0 0 1 4-4.5 34.3 34.3 0 0 1 3.5-3l-1 3h-.9L.2-5.4h.9l.6 2.9A40 40 0 0 1 2-1l.3-.3.1-.5a6 6 0 0 1 .1-.5l1-3h1l.7 2.9.3.8.2.6.3-.6v-1l.8-2.7h1L6.3 0Zm0 0"/>  <path id="C" d="M1.7-7.6v3c.3-.4.4-.5.7-.6.3-.2.7-.3 1-.3.7 0 1.2.2 1.6.5.2.3.4.8.4 1.5V0h-.9v-3.4c0-.9-.4-1.3-1.2-1.3-.6 0-1 .2-1.2.5-.3.3-.4.8-.4 1.4V0H.8v-7.6Zm0 0"/>  <path id="B" d="M3 0c-.5 0-.9 0-1.3-.1-.3-.3-.6-.6-.7-.9-.4-.5-.5-1-.5-1.7 0-.6.2-1.1.5-1.5 0-.6.4-.8.8-1.1.2-.1.8-.2 1.2-.2l.8.1.7.2-.3.8-.6-.2H3c-1-.1-1.5.6-1.5 1.9 0 .7 0 1 .3 1.4.3.5.7.6 1.2.6h.8l.6-.3v.8a2 2 0 0 1-.6.2H3Zm0 0"/>  <path id="A" d="M5.5-2.7c0 .9-.2 1.7-.7 2-.4.7-1 .9-1.8.9-.5-.2-.9-.2-1.3-.4-.3-.2-.6-.6-.7-1C.6-1.6.5-2 .5-2.7c0-.9.3-1.6.7-2 .5-.5 1-.8 1.8-.8.5 0 1 .2 1.3.5.4 0 .7.4.9.9.2.2.3.7.3 1.3Zm-4 0c0 .7 0 1.2.3 1.5.3.4.7.6 1.2.6.6 0 1-.2 1.2-.6.3-.3.4-.8.4-1.5s-.1-1.1-.4-1.5c-.2-.3-.6-.5-1.2-.5-.5 0-1 .2-1.2.5-.2.4-.3.9-.3 1.5Zm0 0"/>  <path id="z" d="M2.6-.6H3l.4-.2v.7L3 0H1.7l-.6-.5-.1-1v-3.3H.2V-5l.7-.5.4-1h.5v1h1.5v.8H1.8v3.1c0 .3 0 .6.2.7l.6.3Zm0 0"/>  <path id="y" d="M4.3-1.5c0 .5-.2 1-.5 1.2-.4.3-1 .4-1.6.4l-1-.1-.7-.2V-1l.8.3h1.8l.4-.7-.1-.4L3-2a7.5 7.5 0 0 0-.8-.4 7.5 7.5 0 0 1-1-.4l-.4-.5L.5-4c0-.5.2-.8.6-1 .3-.4.8-.6 1.4-.6l1 .2a4 4 0 0 1 .6.4l-.1.6-.8-.2-.7-.1-.9.1c-.2.2-.3.3-.3.6s0 .2.2.3l.4.3.8.3.9.4.4.5c.3.2.3.4.3.7Zm0 0"/>  <path id="x" d="M3.9 1.2c0 .3.1.4.4.4h.5V2h-.3l-.3.3c-.4-.1-.6-.1-.8-.3l-.2-.7c0-.3 0-.5.2-.7l.4-.5h-.7a3 3 0 0 1-1.3-.3 2.2 2.2 0 0 1-1-1c0-.2-.2-.8-.2-1.3-.1-.7 0-1.2.2-1.6.2-.5.5-.9.9-1 .3-.2.7-.4 1.2-.4s.9.1 1.2.3a2 2 0 0 1 .8.9L5-3v.5H1.5c0 .5.1 1 .4 1.4.3.3.7.4 1.3.4H4l.9-.3v.8l-.6.5C4 .5 4 .6 4 .8l-.1.3Zm-1-6c-.4.1-.7.3-.9.6-.3.1-.5.5-.5 1h2.7c0-.5-.1-.8-.3-1.1-.2-.3-.5-.4-1-.4Zm.1.1"/>  <path id="w" d="M4.3 0h-4v-.6l3.1-4H.6v-.9h3.6v.8l-2.8 4h3Zm0 0"/>  <path id="v" d="M4-6.5c-.7 0-1.3.3-1.8.8-.4.5-.6 1.2-.6 2.1 0 1 .2 1.6.6 2.1.4.6 1 .8 1.8.8h1l.6-.3v.8L5 0H4c-.8 0-1.4 0-2-.2a2.8 2.8 0 0 1-1-1.4c-.3-.6-.4-1.2-.4-2 0-.7.1-1.3.4-1.9a3 3 0 0 1 1.2-1.3c.5-.2 1.1-.4 1.8-.4.8 0 1.5.1 2 .4l-.3.7-.8-.2a3 3 0 0 0-.9-.2Zm0 0"/>  <path d="M1 0v-7.1h4V0Zm.4-.5h3.1v-6.1h-3ZM1.7.1.7 0 .2-.3v-.9c0 .2.3.3.6.4a3 3 0 0 0 .9.1c.3 0 .7 0 1-.2.2-.2.3-.4.3-.7 0-.2 0-.4-.2-.5L2-2.7a3.8 3.8 0 0 1-1-.7c0-.2-.2-.6-.2-1s.2-.7.6-1c.3-.4.7-.6 1.3-.6l1.1.1.7.3-.3.8-.6-.3h-.9L2-5l-.3.6c0 .2 0 .4.3.5 0 .2.3.3.7.5l.7.5.4.5.2.7c0 .6-.2 1-.6 1.4-.4.3-1 .3-1.7.3Zm.8-6.8v-.1l.4-.5.4-.6a15 15 0 0 0 .4-.5h1.1l-.5.7-.6.5-.6.5Zm0 0"/>  <path id="u" d="M.3 0 1-3.1l-.6.3-.4-.6L1.2-4 2-8.4h1l-.8 3.7.7-.4.3.6-1.1.7L1.3 0Zm0 0"/>  <path id="t" d="M2.3-6.9 2-7l-.2-.4c0-.2 0-.3.2-.5l.5-.1c.3 0 .5.1.5.4l-.2.6c-.2.1-.3.1-.5.1ZM.3 0l1.3-5.9h1L1.2 0Zm0 0"/>  <path id="s" d="m.3 0 1.8-8.4H3L2.2-5a20 20 0 0 1-.4 2l2.8-3h1.2L3.3-3.4 4.8 0h-1L2.5-2.8l-.8.8-.4 2Zm0 0"/>  <path id="r" d="M1.7.1.7 0 .2-.3v-.9c0 .2.3.3.6.4a3 3 0 0 0 .9.1c.3 0 .7 0 1-.2.2-.2.3-.4.3-.7 0-.2 0-.4-.2-.5L2-2.7a3.8 3.8 0 0 1-1-.7c0-.2-.2-.6-.2-1s.2-.7.6-1c.3-.4.7-.6 1.3-.6l1.1.1.7.3-.3.8-.6-.3h-.9L2-5l-.3.6c0 .2 0 .4.3.5 0 .2.3.3.7.5l.7.5.4.5.2.7c0 .6-.2 1-.6 1.4-.4.3-1 .3-1.7.3Zm0 0"/>  <path id="q" d="M3 .1c-.4 0-.8 0-1-.3a1.9 1.9 0 0 1-.5-.7h-.1L1 0H.3l1.8-8.4H3l-.5 2v.8l-.2.6v.2l.7-.8c.4-.4.8-.4 1.2-.4.5 0 .9.2 1.2.5.3.5.4.8.4 1.5 0 .5 0 1-.2 1.5L5.1-1A3 3 0 0 1 4-.2c-.1.2-.5.2-1 .2Zm-.1-.8c.3 0 .5 0 .8-.3l.6-.7.4-1.1.1-1.2c0-.8-.3-1.2-.8-1.2-.3 0-.6.2-.8.3a3 3 0 0 0-.7.7c-.3.3-.5.7-.5 1-.2.6-.2 1-.2 1.4s0 .6.2.8c.2.2.5.3 1 .3Zm0 0"/>  <path id="p" d="M2 .1c-.3 0-.6-.1-1-.4-.3-.2-.4-.6-.4-1a3 3 0 0 1 0-.6l.1-.4.8-3.6h1l-.8 3.7-.1.7c0 .3 0 .5.2.6l.6.2c.2 0 .5 0 .8-.3l.8-.8.5-1.6.6-2.5H6L4.7 0H4l.1-1c-.2 0-.3.2-.5.4l-.7.5-.8.2Zm0 0"/>  <path id="o" d="m.3 0 1.8-8.4H3L1.2 0Zm0 0"/>  <path id="n" d="M2 .1c-.4 0-.7 0-1-.3-.2-.2-.4-.5-.4-1L.7-2l.7-3.2h-1l.3-.4.9-.4.6-1.2h.7L2.5-6H4l-.2.8H2.4L1.7-2v.4l-.2.3.2.4c.1.2.3.2.5.2h.4L3-.8v.7l-.5.1-.5.1Zm0 0"/>  <path id="m" d="M-.2 0 0-.7l3.6-4.5H1.1l.1-.7h3.6l-.1.9L1-.7h2.9l-.2.7Zm0 0"/>  <path id="l" d="M2.1.1C1.7.1 1.3 0 1-.4.7-.7.5-1.2.5-1.9c0-.5 0-1.1.2-1.6.3-.4.3-.9.6-1.3a3 3 0 0 1 1-.9c.2-.2.7-.3 1-.3.5 0 .8.1 1.1.3l.5.7a40.6 40.6 0 0 1 .4-1.4l.3-2h1L4.8 0H4l.1-1-.9.7c-.3.3-.7.3-1 .3Zm.4-.8c.2 0 .4 0 .7-.3l.7-.7.5-1L4.6-4c0-.4-.1-.6-.3-.9-.2-.1-.3-.3-.8-.3-.3 0-.6.2-.8.3-.3.2-.5.4-.7.7A4 4 0 0 0 1.7-3l-.2 1.1c0 .9.3 1.2 1 1.2Zm0 0"/>  <path id="k" d="M2.7 0C2 0 1.5 0 1.1-.4.7-1 .5-1.5.5-2.2a5 5 0 0 1 .2-1.3c.1-.5.3-.9.6-1.3a3 3 0 0 1 .9-.7C2.6-6 3-6 3.5-6c.7 0 1.2.2 1.5.6.5.4.7 1 .7 1.7 0 .4 0 .9-.2 1.3-.1.5-.3.9-.6 1.4a3 3 0 0 1-.9.8c-.4.2-.8.2-1.3.2Zm0-.6c.5-.1.9-.2 1.1-.5.2-.2.5-.6.6-.9.2-.6.3-1.1.3-1.8l-.1-.7-.4-.5-.7-.2c-.5 0-.8.2-1 .5-.5.2-.7.5-.9.9L1.5-2c0 .3.1.7.3.9.3.3.6.4 1 .4Zm.5-6.1v-.1l.3-.5.5-.6a15 15 0 0 0 .4-.5h1c.1.3-.1.4-.4.7l-.6.5-.7.5Zm-.1 0"/>  <path id="j" d="M2.7.1C2 .1 1.5 0 1-.5.7-.9.5-1.5.5-2a4.9 4.9 0 0 1 .8-2.7 3 3 0 0 1 1-1.1c.2-.1.7-.2 1.2-.2s1 .1 1.2.4c.3.2.5.5.5 1 0 .3-.2.6-.4 1-.2.3-.6.6-1.1.8-.5.2-1.2.3-2 .3h-.2v.4c0 .4.1.8.3 1 .3.3.6.4 1 .4l.8-.1c.4 0 .5-.2.8-.3v.8l-.8.3-1 .1Zm-1-3.4L3-3.4l.9-.4c.1-.2.3-.5.3-.7 0-.2 0-.5-.2-.5l-.6-.2c-.3 0-.7.2-1 .5-.4.3-.6.8-.7 1.4Zm0 0"/>  <path id="i" d="M2.3-6.9 2-7l-.2-.4c0-.2 0-.3.2-.5l.5-.1c.3 0 .5.1.5.4 0 .2-.1.4-.3.6.1.1-.2.1-.3.1Zm-3 9.5a2 2 0 0 1-.7 0v-1l.4.2h.3c.4 0 .7-.3.9-1L1.6-6h1L1 .8c0 .6-.2 1-.5 1.4-.3.3-.7.4-1.2.4Zm0 0"/>  <path id="h" d="M2.7 0C2 0 1.5 0 1.1-.4.7-1 .5-1.5.5-2.2a5 5 0 0 1 .2-1.3c.1-.5.3-.9.6-1.3a3 3 0 0 1 .9-.7C2.6-6 3-6 3.5-6c.7 0 1.2.2 1.5.6.5.4.7 1 .7 1.7 0 .4 0 .9-.2 1.3-.1.5-.3.9-.6 1.4a3 3 0 0 1-.9.8c-.4.2-.8.2-1.3.2Zm0-.6c.5-.1.9-.2 1.1-.5.2-.2.5-.6.6-.9.2-.6.3-1.1.3-1.8l-.1-.7-.4-.5-.7-.2c-.5 0-.8.2-1 .5-.5.2-.7.5-.9.9L1.5-2c0 .3.1.7.3.9.3.3.6.4 1 .4Zm.1-.1"/>  <path id="g" d="M.9 0 .6-5.9h1v5.1A16.6 16.6 0 0 1 2.2-2l.2-.6 1.5-3.3H5l.3 3.2a32 32 0 0 1-.1 1.9A26 26 0 0 1 6-3l1.4-2.9h.9L5.7 0H4.5l-.2-3.2V-5l-.3.8-.5.9L2 0Zm0 0"/>  <path d="M1 0v-7.9h4.6V0Zm.6-.6H5v-6.7H1.6Zm0 0"/>  <path id="f" d="M6.3 0 5.2-3.6l-.3-1-.2-.7-.2.7-.3 1L3.1 0H1.9L0-6.4h1.2l1 3.4a18.6 18.6 0 0 1 .2 2l.4-.7v-.5l.2-.6 1.2-3.6h1.1l1.1 3.6.3.8.1.9a72 72 0 0 1 .5-2l1-3.2h1L7.5 0Zm0 0"/>  <path id="e" d="M5.2 0H.5v-.7l3.4-5H.7v-.6H5v.7L1.7-.8h3.5Zm0 0"/>  <path id="d" d="M5.2-1.8c0 .6-.2 1.1-.7 1.4-.5.4-1 .5-1.9.5H1.5L.6-.4v-.9a7 7 0 0 0 1 .5 4 4 0 0 0 .9.1c.8 0 1.2-.1 1.4-.3.2-.2.3-.4.3-.7 0-.1 0-.3-.2-.3l-.4-.5a6.9 6.9 0 0 0-1-.4l-1-.5L.7-4l-.1-.8c0-.6.2-1 .7-1.3.4-.3 1-.4 1.7-.4h1.1l1 .5-.4.7a6 6 0 0 0-.7-.3H2l-.3.7c-.1.2-.1.3.1.4 0 .2.2.3.5.5l1 .3 1 .5.7.6.2.8Zm0 0"/>  <path id="c" d="M4-6.5h.8l-.2 1H4c-.4-.1-.7-.1-1 .1a2 2 0 0 0-.7.8l-.2 1.2V0H1v-6.4h.8L2-5.2l.8-1.1L4-6.5Zm0 0"/>  <path id="b" d="M3.5-6.5c.7 0 1.3.1 1.7.5.4.3.6.9.6 1.6V0H5l-.2-1c-.4.5-.7.8-1.1 1H2.6C2 .1 1.6 0 1-.3.7-.6.5-1.1.5-1.8c0-.6.3-1.1.8-1.5.5-.3 1.3-.5 2.3-.5h1.1v-.6c0-.4 0-.8-.3-.9-.4-.4-.6-.5-1-.5a3 3 0 0 0-1 .3c-.3 0-.6.2-.8.3L1.3-6l1-.4 1.2-.1Zm1.2 3.4h-1c-.7 0-1.2.1-1.5.4-.4.2-.6.5-.6 1 0 .2.1.5.4.7.2.2.5.3.8.3.6 0 1-.3 1.4-.5.3-.3.5-.7.5-1.4Zm0 0"/>  <path id="a" d="M11-8.6 8.7 0h-1L6-5.6l-.2-.7a11.9 11.9 0 0 1-.3-1v.7l-.5 1L3.5 0h-1L0-8.6h1.3l1.3 5.3.2 1 .2 1a13.8 13.8 0 0 1 .5-2L5-8.7h1l1.8 5.3c-.1.4.1.8.2 1.1v1l.3-1 .3-1 1.3-5.3Zm0 0"/>  <path d="M1.1 0v-8.6h5V0Zm.6-.6h3.8V-8H1.7Zm0 0"/> </defs> <image xlink:href="svg/8/0_6.jpg" width="497" height="279"/> <path d="M7.5 4a3.5 3.5 0 1 1-7 0 3.5 3.5 0 0 1 7 0zm0 0" style="fill:#fdfdfa;fill-opacity:1;fill-rule:nonzero;stroke:#515142;stroke-width:1;stroke-linecap:butt;stroke-linejoin:miter;stroke-miterlimit:4;stroke-opacity:1" transform="translate(227.66682,36.746786)"/> <path d="M233.2 40.7a1.5 1.5 0 1 1-3 0 1.5 1.5 0 0 1 3 0zm0 0" style="fill:#515142;fill-opacity:1;fill-rule:nonzero;stroke:none"/> <path d="m214.2 47.6-2.2 8.6h-1l-1.9-5.6-.1-.7a11.9 11.9 0 0 1-.2-1l-.2.7c0 .3-.1.7-.3 1l-1.6 5.6h-1l-2.4-8.6h1.1l1.5 5.4.2.9.1 1.1a13.9 13.9 0 0 1 .5-2.2l1.5-5.2h1.1l1.7 5.2.2 1.2.2 1 .1-1.1.3-.9 1.2-5.4zm3.4 2c.8 0 1.4.2 1.7.6.4.3.7.8.7 1.6v4.4h-.9l-.1-1c-.4.5-.7.8-1.1 1l-1.1.1c-.7 0-1.1-.1-1.5-.3-.4-.4-.6-1-.6-1.6 0-.6.2-1.1.7-1.4.6-.4 1.3-.6 2.4-.6h1v-.6c.1-.4.1-.8-.2-.8-.3-.5-.6-.6-1.1-.6a3 3 0 0 0-1 .3l-.7.3-.4-.8 1-.4 1.2-.2zm1.3 3.5h-1c-.8-.1-1.4.1-1.7.4-.2.2-.4.5-.4 1 0 .2 0 .5.2.6.3.3.6.4 1 .4.5 0 1-.2 1.3-.5.4-.3.7-.7.7-1.4zm6-3.5h.4l.4.2-.2.9h-.3l-.4-.2-1 .4a2 2 0 0 0-.5.7c-.3.4-.4.7-.4 1.2v3.4h-.9v-6.4h.8v1.1h.2l.7-.9c.3-.2.7-.4 1.3-.4zm6.1 4.8c0 .6-.2 1.1-.7 1.4-.3.4-1 .5-1.8.5h-1.2l-.8-.5V55a7 7 0 0 0 .9.3 4 4 0 0 0 1 .2c.6 0 1.1-.1 1.4-.3.1-.2.2-.4.2-.7v-.4l-.6-.4a6.9 6.9 0 0 0-1-.4l-1-.5-.7-.6c-.2-.2-.3-.5-.3-.8 0-.6.3-1 .7-1.4.4-.2.9-.4 1.8-.4.3 0 .7 0 1 .2.4 0 .7.1 1.1.2l-.5.9a6 6 0 0 0-.8-.3h-1.9l-.2.7v.4l.5.4 1 .4 1 .5c.3 0 .5.3.7.6.2.2.2.4.2.8zm5.8 1.8H232v-.7l3.5-5h-3.3v-.6h4.6v.7l-3.5 4.8h3.4Zm3.9-6.6c.8 0 1.3.2 1.7.6.4.3.6.8.6 1.6v4.4h-.8l-.2-1c-.3.5-.6.8-1 1l-1.1.1c-.7 0-1.1-.1-1.6-.3-.3-.4-.5-1-.5-1.6 0-.6.2-1.1.7-1.4.5-.4 1.3-.6 2.5-.6h.9v-.6c.1-.4.1-.8-.2-.8-.3-.5-.7-.6-1.1-.6a3 3 0 0 0-1 .3l-.7.3-.4-.8 1-.4 1.2-.2zm1.2 3.5h-.9c-.7-.1-1.3.1-1.6.4-.4.2-.4.5-.4 1-.1.2-.1.5.2.6.2.3.5.4.8.4.6 0 1-.2 1.4-.5.4-.3.5-.7.5-1.4zM250.2 56.2l-1-3.6-.5-1v-.7l-.3.7-.2 1-1.2 3.6h-1.2l-1.7-6.4h.9l1.2 3.4a18.6 18.6 0 0 1 .3 1.8l.1-.4.2-.6.2-.6 1-3.6h1.2l1.2 3.6.2.9.2.7a71.7 71.7 0 0 1 .4-2l1.1-3.1h.9l-1.7 6.3zm6.6-6.6c.8 0 1.4.2 1.8.6.3.3.4.8.4 1.6v4.4h-.6l-.2-1-1.1 1-1.1.1c-.6 0-1.1-.1-1.5-.3-.4-.4-.6-1-.6-1.6.1-.6.3-1.1.8-1.4.5-.4 1.3-.6 2.3-.6h1.1v-.6c0-.4-.1-.8-.3-.8-.3-.5-.6-.6-1-.6a3 3 0 0 0-1 .3c-.3 0-.6.2-.8.3l-.4-.8 1-.4 1.2-.2zm1.3 3.5h-1c-.8-.1-1.3.1-1.6.4-.3.2-.5.5-.5 1 0 .2.1.5.3.6.3.3.5.4.9.4.5 0 1-.2 1.4-.5.3-.3.4-.7.4-1.4zm0-.1" style="fill:none;stroke:#fff;stroke-width:3;stroke-linecap:butt;stroke-linejoin:round;stroke-miterlimit:10;stroke-opacity:.6" transform=" rotate(  340 235.168 40.7461) "/> <g style="fill:#212121;fill-opacity:1" transform=" rotate(  340 235.168 40.7461) ">  <use xlink:href="#a" x="203.2" y="56.2"/>  <use xlink:href="#b" x="214.1" y="56.2"/>  <use xlink:href="#c" x="220.9" y="56.2"/>  <use xlink:href="#d" x="225.8" y="56.2"/>  <use xlink:href="#e" x="231.6" y="56.2"/>  <use xlink:href="#b" x="237.2" y="56.2"/>  <use xlink:href="#f" x="243.9" y="56.2"/>  <use xlink:href="#b" x="253.4" y="56.2"/> </g> <path d="m375 191.7-.1-5.9h.9v5a16.6 16.6 0 0 1 .6-1.2l.2-.4 1.4-3.4h1.1l.4 3.2a31.4 31.4 0 0 1-.1 1.8l.4-1a26 26 0 0 1 .5-1l1.3-3h1l-2.7 5.9h-1.2l-.2-3.2v-1.8l-.3.8-.4.9-1.6 3.3zm9.9.1c-.7 0-1.2-.2-1.6-.6-.4-.4-.6-1-.6-1.7a5 5 0 0 1 .2-1.3l.5-1.3a3 3 0 0 1 1-.8c.3-.3.8-.4 1.2-.4.7 0 1.4.3 1.7.6.3.4.5 1 .5 1.7l-.1 1.3-.7 1.3a3 3 0 0 1-1 .9c-.1.2-.5.3-1 .3zm0-.8c.4 0 .7-.1 1.1-.4.2-.2.4-.6.6-1 .2-.6.3-1 .3-1.7 0-.2 0-.5-.2-.7 0-.2-.2-.2-.3-.5l-.7-.2c-.5 0-.8.2-1.1.5l-.7 1c-.2.5-.2 1-.2 1.6 0 .4 0 .7.3 1 .2.2.5.4 1 .4zm5.8-6.2-.4-.1-.1-.4.1-.5.5-.2c.4 0 .5.2.5.5 0 .2 0 .4-.2.5-.1.2-.3.2-.4.2zm-3 9.5a2 2 0 0 1-.7 0v-1h.3l.3.3c.5-.1.8-.4 1-1.1l1.2-6.7h1.2l-1.5 6.7-.6 1.3c-.3.4-.7.5-1.2.5zm6.2-2.5c-.7 0-1.2-.2-1.6-.6-.4-.4-.6-1-.6-1.6a4.9 4.9 0 0 1 .8-2.7 3 3 0 0 1 1-.9c.2-.2.6-.3 1.1-.3s1.1.1 1.3.3c.3.3.5.6.5 1s-.2.8-.4 1c-.2.4-.6.7-1.1 1h-2.2v.6c0 .4.1.8.3 1 .3.4.6.4 1 .4l.8-.1.8-.3v.8l-.8.3-1 .1zm-1-3.4 1.3-.1.8-.4c.3-.2.4-.5.4-.9 0 0 0-.2-.2-.3l-.6-.2c-.3 0-.6.2-1 .5-.3.3-.6.8-.7 1.4zm4.4 3.3-.2-5.9h.9v5a16.6 16.6 0 0 1 .6-1.2l.2-.4 1.6-3.4h1l.2 3.2a31.4 31.4 0 0 1 0 1.8c.3-.2.4-.6.4-1a26 26 0 0 1 .5-1l1.3-3h1l-2.7 5.9H401l-.2-3.2v-1.8l-.5.8-.3.9-1.5 3.3zm9.9.1c-.7 0-1.3-.2-1.7-.6-.4-.4-.5-1-.5-1.7a5 5 0 0 1 0-1.3c.3-.5.4-.9.7-1.3a3 3 0 0 1 1-.8c.3-.3.6-.4 1.1-.4.8 0 1.2.3 1.7.6.5.4.6 1 .6 1.7-.1.4-.1.9-.2 1.3-.1.5-.3.9-.6 1.3a3 3 0 0 1-.9.9c-.3.2-.8.3-1.2.3zm0-.8c.4 0 .7-.1 1-.4.2-.2.5-.6.6-1 .2-.6.3-1 .3-1.7l-.1-.7c0-.2-.2-.2-.4-.5l-.6-.2c-.5 0-.9.2-1 .5-.5.2-.8.6-.9 1-.1.5-.2 1-.2 1.6.1.4.1.7.4 1 .2.2.5.4.9.4zm.3-6 .5-.6.4-.6a15 15 0 0 0 .4-.5h1c.1.3-.1.5-.3.7l-.7.5-.6.5zm5.2 6.8c-.4 0-.7-.2-1.1-.5-.3-.3-.6-.8-.6-1.5l.3-1.6.7-1.2a3 3 0 0 1 1-1c.1-.2.5-.3 1-.3.4 0 .8.1 1 .3l.5.7a40.6 40.6 0 0 1 .4-1.4l.3-2h1l-1.8 8.4h-.8l.1-1.1-.9.9c-.3.2-.7.3-1 .3zm.4-.8c.2 0 .5 0 .7-.3.3-.1.5-.4.7-.7l.5-1 .2-1.4c0-.3 0-.6-.2-.8-.2-.2-.5-.3-.9-.3-.3 0-.6.1-.8.3l-.6.7a4 4 0 0 0-.4 1.1l-.3 1.2c.1.8.4 1.2 1.1 1.2zM416.8 191.7l.2-.7 3.6-4.5h-2.5l.1-.7h3.6l-.1.8-3.7 4.4h2.9l-.2.7zm7.2.1c-.6 0-.9 0-1-.3-.5-.2-.6-.5-.6-1l.2-.8.7-3.2h-1l.3-.4.9-.4.5-1.2h.7l-.3 1.3h1.5l-.2.7h-1.4l-.7 3.2-.1.4v.3l.1.4.5.2h.3l.4-.1v.7l-.4.1-.4.1zm2.4-.1-.2-5.9h1v5a16.6 16.6 0 0 1 .5-1.2l.2-.4 1.6-3.4h1l.2 3.2a31.4 31.4 0 0 1 0 1.8l.4-1a26 26 0 0 1 .5-1l1.3-3h1l-2.7 5.9H430l-.2-3.2v-1.8l-.3.8-.5.9-1.5 3.3zm9.8.1c-.7 0-1.2-.2-1.6-.6-.4-.4-.6-1-.6-1.7a5 5 0 0 1 .2-1.3c.1-.5.3-.9.6-1.3a3 3 0 0 1 .8-.8c.4-.3.9-.4 1.4-.4.6 0 1.2.3 1.6.6.4.4.6 1 .6 1.7l-.2 1.3c-.2.5-.3.9-.6 1.3a3 3 0 0 1-.9.9c-.4.2-.8.3-1.3.3zm0-.8c.5 0 .8-.1 1.1-.4.2-.2.4-.6.7-1 .1-.6.2-1 .2-1.7 0-.2 0-.5-.2-.7 0-.2-.2-.2-.3-.5l-.7-.2c-.4 0-.8.2-1 .5-.5.2-.7.6-.9 1l-.1 1.6c0 .4 0 .7.3 1 .2.2.7.4 1 .4zM386 205l1.8-8.2h1l-1.8 8.3Zm4.6.2c-.4 0-.8-.2-1-.4-.3-.2-.4-.6-.4-1a3 3 0 0 1 0-.7v-.3l1-3.6h.8l-.8 3.7-.2.7.3.6.7.2c.2 0 .4-.1.7-.4.3 0 .6-.3.8-.7.3-.4.5-1 .6-1.6l.6-2.5h1l-1.4 5.8h-.7l.1-1-.7.5-.5.5-.9.2zm7.3 0c-.4 0-.7-.2-1-.3a1.9 1.9 0 0 1-.5-.7l-.4.8h-.7l1.7-8.3h1l-.4 2-.2.7-.2.6v.3l.9-.9c.3-.2.6-.3.9-.3.7-.1 1.2.1 1.4.5.2.3.4.8.4 1.4l-.2 1.6c-.2.5-.3 1-.6 1.4a3 3 0 0 1-.9 1l-1.2.2zm0-.8c.1 0 .4-.1.6-.4.5 0 .6-.3.7-.6.2-.4.4-.7.4-1.1l.2-1.3c0-.7-.3-1.1-1-1.1-.2 0-.4 0-.7.3a3 3 0 0 0-.7.7l-.5 1-.2 1.3c0 .3 0 .6.3.9.2.2.4.3.8.3zM404 205.2c-.7 0-1.2-.2-1.6-.6-.4-.4-.6-1-.6-1.6a4.9 4.9 0 0 1 .8-2.7 3 3 0 0 1 1-.9c.3-.2.7-.3 1.2-.3s1 .1 1.2.3c.3.3.5.6.5 1s-.2.8-.5 1.1c0 .3-.5.6-1 .7-.5.2-1.2.3-2 .3h-.2v.5c0 .4.2.7.3 1 .3.3.6.4 1 .4l.9-.1.7-.4v.9l-.7.2h-1zm-1-3.5h1.4c.3-.2.6-.4.8-.6.2 0 .3-.3.3-.6 0-.2 0-.3-.2-.4-.1-.2-.3-.2-.6-.2s-.7.1-1 .5c-.3.3-.6.8-.7 1.3zm4 3.3 2-8.2h.9l-1.9 8.3zm4.3.2-.9-.2c-.3 0-.5-.1-.7-.2v-.8l.7.2a3 3 0 0 0 1 .2c.2 0 .6-.1.8-.4.3 0 .4-.3.4-.5s0-.5-.2-.6l-.7-.5a3.8 3.8 0 0 1-1-.7c-.2-.3-.3-.7-.3-1 0-.5.2-.9.5-1.2.4-.3.9-.4 1.5-.4l1 .1c.3 0 .5.2.8.3l-.3.7-.7-.2-.8-.1c-.4 0-.6 0-.8.1-.2.3-.2.5-.2.7l.1.5.8.5.7.5.5.5.1.7c0 .6-.2 1-.6 1.3-.4.3-1 .5-1.7.5zm3.4-.2 1.7-8.2h1l-.7 3.2a20 20 0 0 1-.5 2l2.8-2.8h1.2l-2.6 2.5 1.6 3.4h-1l-1.4-2.8-.7.7-.4 2.1zm7.5-6.8-.4-.1-.2-.4.2-.5.5-.2c.3 0 .5 0 .5.5 0 .2 0 .4-.2.5l-.4.2zm-2 6.9 1.1-6.1h1.1l-1.4 6.2zM425.3 205.2c-.7 0-1.2-.2-1.5-.6-.4-.4-.7-1-.7-1.6a4.9 4.9 0 0 1 .9-2.7 3 3 0 0 1 1-.9c.2-.2.6-.3 1-.3.7-.1 1.1.1 1.4.3.3.3.4.6.4 1s0 .8-.3 1.1c-.3.3-.6.6-1.2.7-.5.2-1.1.3-2 .3v.5c-.1.4-.1.7.2 1 .2.3.6.4 1 .4l.8-.1.8-.4v.9c-.3 0-.5.2-.8.2h-1zm-1-3.5h1.3l1-.6c.1 0 .2-.3.2-.6.1-.2.1-.3-.1-.4-.1-.2-.3-.2-.7-.2-.3 0-.6.1-1 .5-.3.3-.5.8-.7 1.3zm0 0" style="fill:none;stroke:#fff;stroke-width:3;stroke-linecap:butt;stroke-linejoin:round;stroke-miterlimit:10;stroke-opacity:.6" transform=" rotate(  340 406.724 195.384) "/> <g style="fill:#7d577d;fill-opacity:1" transform=" rotate(  340 406.724 195.384) ">  <use xlink:href="#g" x="374.2" y="191.7"/>  <use xlink:href="#h" x="382.2" y="191.7"/>  <use xlink:href="#i" x="388.4" y="191.7"/>  <use xlink:href="#j" x="391.2" y="191.7"/>  <use xlink:href="#g" x="396.5" y="191.7"/>  <use xlink:href="#k" x="404.4" y="191.7"/>  <use xlink:href="#l" x="410.6" y="191.7"/>  <use xlink:href="#m" x="417" y="191.7"/>  <use xlink:href="#n" x="421.9" y="191.7"/>  <use xlink:href="#g" x="425.5" y="191.7"/>  <use xlink:href="#h" x="433.5" y="191.7"/>  <use xlink:href="#o" x="385.7" y="205.1"/>  <use xlink:href="#p" x="388.6" y="205.1"/>  <use xlink:href="#q" x="394.9" y="205.1"/>  <use xlink:href="#j" x="401.3" y="205.1"/>  <use xlink:href="#o" x="406.8" y="205.1"/>  <use xlink:href="#r" x="409.6" y="205.1"/>  <use xlink:href="#s" x="414.4" y="205.1"/>  <use xlink:href="#t" x="419.8" y="205.1"/>  <use xlink:href="#j" x="422.7" y="205.1"/> </g> <path d="m39.4 137-.2-6h1v5.1a16.6 16.6 0 0 1 .5-1.2l.2-.5 1.6-3.4h1l.2 3.2a32 32 0 0 1 0 1.8 26 26 0 0 1 .9-2.1L46 131h.9l-2.7 6H43v-5h-.3l-.2.7-.4 1-1.5 3.1zm9.8 0c-.7 0-1.2-.2-1.6-.6-.4-.4-.6-1-.6-1.7a5 5 0 0 1 .2-1.3c.1-.5.3-.9.6-1.2a3 3 0 0 1 .9-1c.3 0 .8-.2 1.3-.2.7 0 1.2.2 1.6.6.4.4.6 1 .6 1.6 0 .5 0 1-.2 1.4l-.6 1.2a3 3 0 0 1-.9.9c-.4.2-.8.3-1.3.3zm0-.8c.5 0 .8-.1 1.1-.4.2-.2.4-.6.7-1 .1-.5.2-1 .2-1.8l-.2-.5-.3-.6-.7-.2c-.4 0-.8.3-1 .5-.5.2-.7.6-.9 1l-.1 1.7c0 .3.1.7.3.9.3.3.7.4 1 .4zM55 130h-.4l-.1-.5c0-.2 0-.3.2-.5 0 0 .2-.2.5-.2s.4.2.4.5c0 .2 0 .4-.2.7H55zm-3 9.6a2 2 0 0 1-.7-.2v-.8l.3.1h.4c.4.1.7-.2 1-.9l1.2-6.8h1.1l-1.6 6.8c0 .5-.2 1-.5 1.2-.3.4-.7.6-1.2.6zm6.2-2.6c-.7 0-1.2-.2-1.6-.6-.4-.4-.5-1-.5-1.6a4.9 4.9 0 0 1 .7-2.6 3 3 0 0 1 1-1c.2-.2.7-.2 1.2-.2.6 0 1 0 1.3.3.2.2.4.6.4 1s-.1.7-.4 1c-.2.4-.6.7-1.1.8-.5.2-1.2.3-2 .3h-.1v.4c-.1.4-.1.8.2 1 .3.3.6.4 1.1.4h.8l.8-.5v.9l-.8.4h-1zm-1-3.4 1.4-.1c.3-.1.6-.2.8-.5.2-.1.3-.3.3-.6 0-.2 0-.4-.2-.5l-.5-.2c-.4 0-.7.3-1 .5-.4.3-.6.8-.8 1.4zm4.5 3.4-.3-6h1v5.1a16.6 16.6 0 0 1 .6-1.2l.2-.5 1.5-3.4h1l.3 3.2a32 32 0 0 1 0 1.8 26 26 0 0 1 .8-2.1l1.4-2.9h.9l-2.6 6h-1.2l-.3-3.4V132l-.3.7-.4 1-1.5 3.1zm9.8 0c-.7 0-1.2-.2-1.6-.6-.4-.4-.6-1-.6-1.7a5 5 0 0 1 .2-1.3c0-.5.3-.9.5-1.2a3 3 0 0 1 1-1c.2 0 .6-.2 1.1-.2.9 0 1.4.2 1.7.6.4.4.6 1 .6 1.6 0 .5 0 1-.2 1.4 0 .4-.2.8-.5 1.2a3 3 0 0 1-1 .9c-.2.2-.7.3-1.1.3zm0-.8c.5 0 .7-.1 1-.4.3-.2.5-.6.7-1l.2-1.8v-.5l-.6-.6-.6-.2c-.4 0-.7.3-1 .5-.3.2-.6.6-.7 1-.2.6-.3 1.1-.3 1.7 0 .3.2.7.4.9.2.3.4.4 1 .4zm.5-6 .3-.7.4-.5a15 15 0 0 0 .4-.5h1.1v.1l-.5.5-.6.6c-.1.3-.4.4-.6.5zm5 6.8c-.3 0-.7 0-1-.5-.5-.3-.6-.8-.6-1.5.1-.5.1-1 .3-1.5l.5-1.3a3 3 0 0 1 1-1c.3-.2.7-.2 1.2-.2.4 0 .6 0 1 .2l.4.8a40.6 40.6 0 0 1 .3-1.5l.5-2h1l-2 8.5H79l.1-1-1.1.6c-.2.3-.5.4-.9.4zm.5-.8c.1 0 .4 0 .6-.2l.7-.8.5-1c.2-.4.2-.8.2-1.3 0-.3 0-.6-.2-.8-.3-.3-.5-.4-.9-.4-.3 0-.4.1-.8.3l-.6.8a4 4 0 0 0-.4 1l-.1 1.2c0 .8.3 1.2.9 1.2zm3.6.8.2-.8 3.6-4.5h-2.5l.2-.7H86v.8l-3.6 4.4h2.8l-.2.7zm7.1 0c-.4 0-.7 0-1-.3-.2-.1-.4-.5-.4-1l.2-.7.6-3.2h-1l.3-.5.9-.3.7-1.3h.5l-.3 1.3h1.5l-.1.8h-1.5l-.7 3.2v.3l-.2.3.2.5.5.1h.4l.4-.1v.7l-.4.2h-.6zm2.5 0-.2-6h1v5.1a16.6 16.6 0 0 1 .5-1.2l.2-.5 1.6-3.4h1l.2 3.2a32 32 0 0 1 0 1.8 26 26 0 0 1 .9-2.1l1.4-2.9h.9l-2.7 6h-1.2l-.1-3.4V132l-.5.7-.3 1-1.4 3.1zm9.8 0c-.5 0-1.2-.2-1.5-.6-.5-.4-.7-1-.7-1.7a5 5 0 0 1 .2-1.3c.2-.5.3-.9.6-1.2a3 3 0 0 1 .9-1c.4 0 .8-.2 1.3-.2.7 0 1.2.2 1.6.6.4.4.6 1 .6 1.6 0 .5 0 1-.2 1.4l-.6 1.2a3 3 0 0 1-.9.9c-.3.2-.8.3-1.3.3zm0-.8c.5 0 .9-.1 1.1-.4.2-.2.5-.6.6-1 .2-.5.3-1 .3-1.8l-.1-.5-.4-.6-.7-.2c-.4 0-.8.3-1 .5-.5.2-.7.6-.9 1l-.1 1.7c0 .3.1.7.3.9.4.3.6.4 1 .4zm-46 14.1.7-3.1-.6.3-.3-.5 1.1-.8 1-4.2h.8l-.7 3.6.7-.4.3.6-1.2.7-.8 3.8zm5.3.1c-.7 0-1.2-.2-1.6-.6-.4-.4-.6-1-.6-1.8a5 5 0 0 1 .2-1.2l.5-1.2a3 3 0 0 1 1-1l1.2-.2c.7-.1 1.3.1 1.7.6.4.4.5 1 .5 1.6l-.1 1.3-.6 1.3a3 3 0 0 1-1 .8c-.2.3-.6.4-1.1.4zm0-.8c.5 0 .8-.1 1.1-.4.2-.2.4-.6.6-1 .2-.5.3-1 .3-1.7 0-.2 0-.5-.2-.6 0-.3-.2-.4-.3-.6l-.7-.2c-.4 0-.8.2-1.1.5-.3.2-.5.6-.7 1l-.2 1.6c0 .4 0 .8.3 1 .2.3.6.4 1.1.4zm.5-6v-.1l.3-.5.5-.6a15 15 0 0 0 .3-.4h1.1c0 .2-.2.4-.4.6l-.7.5-.6.5zM65.4 150.4c-.5 0-.9-.1-1.2-.4-.2-.4-.4-.9-.4-1.6 0-.5 0-1 .2-1.5 0-.5.3-1 .6-1.3a3 3 0 0 1 .9-1c.3-.2.7-.3 1.2-.3.4 0 .7.1 1 .3l.4.7a40.6 40.6 0 0 1 .4-1.3l.4-2.1h1l-1.9 8.4h-.7l.1-1-1 .7c-.1.3-.5.4-.9.4zm.3-.8c.3 0 .5 0 .8-.2l.5-.8c.4-.3.5-.6.7-1l.2-1.3-.3-.9c-.2-.2-.5-.3-.8-.3-.3 0-.6.1-.8.3l-.7.7a4 4 0 0 0-.3 1.1l-.2 1.2c0 .8.2 1.2 1 1.2zm3.8.7.1-.7 3.7-4.5h-2.6l.3-.7h3.5l-.2.8-3.6 4.4h2.8l-.1.7zm5.3 0 1.8-8.4h1l-.7 3.4a20 20 0 0 1-.6 2l3-2.9h1l-2.5 2.6 1.5 3.3h-1l-1.3-2.8-.7.7-.5 2.1zm7.5-6.9-.3-.1-.2-.4c0-.2 0-.3.2-.5l.4-.2c.4 0 .6.2.6.5s0 .4-.3.5c0 .2-.2.2-.4.2zm-2 6.9 1.2-5.9h1l-1.2 5.9zm5.2.1c-.7 0-1.2-.2-1.6-.6-.4-.4-.5-1-.5-1.6a4.9 4.9 0 0 1 .6-2.6 3 3 0 0 1 1.1-1c.3-.2.7-.3 1.2-.3.6 0 1 .1 1.3.4.2.2.4.5.4 1 0 .3-.1.7-.4 1-.2.3-.6.6-1.1.8-.5.2-1.2.3-2 .3h-.1v.4c-.1.4-.1.8.1 1 .5.3.7.4 1.1.4l.9-.1.8-.3v.8l-.9.3-1 .1zm-1-3.4 1.4-.1c.3-.1.6-.2.8-.4.2-.2.3-.5.3-.7 0-.2 0-.4-.2-.5l-.6-.3c-.2.1-.7.3-1 .6-.2.3-.6.8-.7 1.4zm0 0" style="fill:none;stroke:#fff;stroke-width:3;stroke-linecap:butt;stroke-linejoin:round;stroke-miterlimit:10;stroke-opacity:.6" transform="rotate(  340 47.2284 104.247) translate(-23.824405,-36.363565)"/> <g style="fill:#7d577d;fill-opacity:1" transform=" rotate(  340 47.2284 104.247) ">  <use xlink:href="#g" x="14.7" y="100.6"/>  <use xlink:href="#h" x="22.7" y="100.6"/>  <use xlink:href="#i" x="28.9" y="100.6"/>  <use xlink:href="#j" x="31.7" y="100.6"/>  <use xlink:href="#g" x="37" y="100.6"/>  <use xlink:href="#k" x="44.9" y="100.6"/>  <use xlink:href="#l" x="51.1" y="100.6"/>  <use xlink:href="#m" x="57.5" y="100.6"/>  <use xlink:href="#n" x="62.4" y="100.6"/>  <use xlink:href="#g" x="66" y="100.6"/>  <use xlink:href="#h" x="74" y="100.6"/>  <use xlink:href="#u" x="30.4" y="113.9"/>  <use xlink:href="#k" x="33.3" y="113.9"/>  <use xlink:href="#l" x="39.4" y="113.9"/>  <use xlink:href="#m" x="45.8" y="113.9"/>  <use xlink:href="#s" x="50.7" y="113.9"/>  <use xlink:href="#t" x="56.2" y="113.9"/>  <use xlink:href="#j" x="59" y="113.9"/> </g> <use style="fill:#fdfdfa;fill-opacity:1;fill-rule:nonzero;stroke:#3f3f35;stroke-width:.5;stroke-linecap:butt;stroke-linejoin:miter;stroke-miterlimit:4;stroke-opacity:1" transform="translate(50.619827,240.05561)" xlink:href="#reuse-0"/> <path d="M17.2 256.7c-.8 0-1.4.2-1.8.8-.5.5-.7 1.2-.7 2 0 1.1.2 1.8.6 2.3.4.4 1 .6 1.9.6h.8l1-.2v.7l-1 .2-1 .1c-.7 0-1.3-.1-1.8-.4a2.8 2.8 0 0 1-1-1.3c-.4-.5-.6-1.2-.6-2 .1-.6.4-1.2.5-1.8a3 3 0 0 1 1.2-1.3c.5-.4 1.1-.5 1.9-.5.7 0 1.4.1 2 .4l-.4.8-.8-.3a3 3 0 0 0-.8-.1zm6.6 6.4h-4v-.5l3-4.2H20v-.6h3.7v.6l-2.8 4h2.9zm4.2 1.2c0 .3.2.4.5.4h.5v.5l-.3.1h-.3c-.4 0-.7 0-.8-.2-.2-.2-.3-.4-.3-.7 0-.2 0-.5.2-.7l.5-.5h-.7a3 3 0 0 1-1.4-.2 2.2 2.2 0 0 1-.9-1c-.2-.4-.3-1-.3-1.5 0-.6.1-1 .3-1.5.2-.4.5-.8.8-1 .4-.2.8-.3 1.3-.3.4 0 .8 0 1.1.3a2 2 0 0 1 .8.8c.2.4.3.8.3 1.3v.5h-3.7c0 .6.2 1.1.5 1.4.3.3.7.5 1.2.5l1-.1.7-.4v1l-.6.4-.3.6v.3zm-1-5.9c-.3 0-.6.1-1 .4l-.3 1.1h2.7c0-.4-.1-.8-.4-.9-.2-.6-.5-.7-1-.7zm7.1 3.2c0 .6-.1 1-.5 1.2-.4.3-1 .4-1.6.4h-1l-.7-.4v-.7l.8.3.9.1c.4 0 .7 0 1-.2.2-.1.3-.3.3-.6l-.1-.3-.4-.4a7.5 7.5 0 0 0-.8-.3 7.5 7.5 0 0 1-1-.4l-.4-.5-.3-.7c0-.5.2-.8.7-1.1.2-.2.7-.3 1.3-.3h1a4 4 0 0 1 .7.3l-.3.7-.7-.2-.8-.1c-.2 0-.6 0-.8.2-.2 0-.3.2-.3.4s0 .3.2.4l.4.3.8.4.9.4c.2 0 .4.3.5.4.2.2.2.5.2.7zm3.1.9h.4l.4-.1v.7h-.4l-.6.2-.7-.2-.6-.5-.2-1v-3.2h-.8v-.4l.8-.3.5-1.2h.4v1.3h1.5v.6h-1.5v3.2c0 .3 0 .4.2.7l.6.2zm6.5-2.1c0 1-.2 1.6-.7 2.1-.4.5-1 .7-1.8.7-.5 0-.9 0-1.2-.2-.4-.3-.7-.6-.9-1-.3-.4-.4-1-.4-1.5 0-.9.3-1.5.7-2.1.6-.5 1-.7 1.8-.7.5 0 1 0 1.3.3.5.2.7.5.9 1 .2.3.3.8.3 1.3zm-4 0c0 .7 0 1.2.3 1.6.3.3.7.5 1.2.5.6 0 1-.2 1.2-.5.3-.4.4-1 .4-1.6 0-.6-.1-1-.4-1.4-.2-.4-.6-.6-1.2-.6-.5 0-1 .2-1.2.6-.2.3-.3.8-.3 1.4zm7.5 2.8c-.4 0-.8 0-1.2-.2-.4-.2-.7-.6-1-1 0-.4-.2-.9-.2-1.5 0-.7.1-1.2.2-1.6.3-.4.6-.7 1.1-1l1.1-.1h.9l.6.2-.3.7-.4-.2h-.7c-1-.1-1.6.5-1.6 1.9 0 .6.1 1.2.4 1.6.2.3.6.5 1.1.5l.8-.1.6-.2v.7a2 2 0 0 1-.6.2l-.8.1zm3.6-7.7v3c.2-.3.4-.5.7-.5l1-.3c.5 0 1.1.1 1.4.3.4.5.5 1 .5 1.6v3.5h-.9v-3.4c0-.9-.4-1.3-1.2-1.3-.5 0-1 .2-1.2.6-.1.3-.3.7-.3 1.4v2.6h-1v-7.5zm9.9 4.9c0 1-.2 1.6-.6 2.1-.5.5-1.1.7-1.9.7-.4 0-.9 0-1.2-.2-.4-.3-.7-.6-1-1l-.1-1.5c-.1-.9.1-1.5.5-2.1.6-.5 1.1-.7 1.9-.7.5 0 .9 0 1.2.3.5.2.7.5 1 1l.1 1.3zm-4 0c0 .7.1 1.2.3 1.6.3.3.7.5 1.3.5.5 0 .9-.2 1.1-.5.3-.4.4-1 .4-1.6 0-.6-.1-1-.4-1.4-.2-.4-.6-.6-1.2-.6-.5 0-.9.2-1.1.6-.3.3-.4.8-.4 1.4zm9.6 2.7-1-3a18 18 0 0 1-.3-1.4 34.3 34.3 0 0 1-.4 1.3l-1 3.1h-.9l-1.4-5.3h.7l.8 2.8.2.9.2.7.1-.4.1-.5a6 6 0 0 1 .2-.5l1-3h.8l1.1 3v.7l.3.7c0-.2 0-.4.2-.7l.2-.9.7-2.8H69l-1.8 5.2zm5.5-5.4c.7 0 1.2.1 1.5.3.3.4.4 1 .4 1.5v3.5h-.6l-.2-.6c-.3.3-.5.5-.9.6 0 .2-.5.2-.9.2-.5 0-.9-.1-1.2-.2-.3-.4-.5-.8-.5-1.4 0-.5.2-.9.6-1.2.4-.3 1-.4 2-.4h.9v-.4c0-.6-.1-.8-.3-1l-.8-.1H71l-.8.3-.2-.7.8-.3 1-.1zm1 2.8h-.6c-.8 0-1.3.2-1.5.5-.3 0-.4.3-.4.6 0 .4.1.6.3.7.2.2.4.2.7.2.4 0 .7-.1 1.1-.4.3-.1.6-.6.6-1.1zm.1 0" style="fill:none;stroke:#fff;stroke-width:3;stroke-linecap:butt;stroke-linejoin:round;stroke-miterlimit:10;stroke-opacity:.6" transform="rotate(  340 54.3712 242.054) translate(8.7774124,-25.07832)"/> <g style="fill:#212121;fill-opacity:1" transform=" rotate(  340 54.3712 242.054) ">  <use xlink:href="#v" x="21.9" y="238.1"/>  <use xlink:href="#w" x="28.2" y="238.1"/>  <use xlink:href="#x" x="32.9" y="238.1"/>  <use xlink:href="#y" x="38.6" y="238.1"/>  <use xlink:href="#z" x="43.4" y="238.1"/>  <use xlink:href="#A" x="47" y="238.1"/>  <use xlink:href="#B" x="53" y="238.1"/>  <use xlink:href="#C" x="57.8" y="238.1"/>  <use xlink:href="#A" x="64" y="238.1"/>  <use xlink:href="#D" x="69.9" y="238.1"/>  <use xlink:href="#E" x="77.7" y="238.1"/> </g> <use style="fill:#fdfdfa;fill-opacity:1;fill-rule:nonzero;stroke:#3f3f35;stroke-width:.5;stroke-linecap:butt;stroke-linejoin:miter;stroke-miterlimit:4;stroke-opacity:1" transform="translate(244.29092,171.8878)" xlink:href="#reuse-1"/> <path d="M232.5 178.4c1 0 1.6.2 2 .6.5.3.6.8.6 1.5 0 .3 0 .7-.1 1l-.6.5-.7.4 2 3.2h-1l-1.9-3h-1.3v3h-1v-7.2zm0 .8h-1v2.8h1c.6-.1 1-.3 1.3-.5.3-.2.4-.5.4-1s-.1-.8-.4-1c-.3-.2-.8-.3-1.3-.3zm6.2.9c.7 0 1.1.2 1.4.5.4.2.5.7.5 1.3v3.7h-.6l-.2-.8-.8.7-1 .2c-.5 0-1-.2-1.2-.4-.4-.3-.5-.7-.5-1.3 0-.5.2-1 .6-1.2.4-.2 1-.4 2-.4h.9v-.4c0-.4-.1-.7-.3-.9-.2-.2-.5-.3-.9-.3-.2 0-.5 0-.6.2l-1 .2v-.6c0-.2.4-.3.7-.3l1-.3zm1 2.9h-.7c-.7 0-1.2.2-1.4.4-.3.1-.4.3-.4.7 0 .3 0 .5.3.7l.7.2c.4 0 .8-.2 1.1-.4.3-.3.5-.7.5-1.2zm4.5 2.7c-.7 0-1.2-.3-1.6-.7-.4-.5-.6-1.2-.6-2.1 0-1 .2-1.6.6-2 .4-.7 1-.9 1.6-.9.4.1.7.1 1 .3a2 2 0 0 1 .7.7v-3h.8v7.6h-.7v-.8a2 2 0 0 1-.8.6c-.2.2-.6.3-1 .3zm.1-.8c.7.1 1-.1 1.2-.4.2-.3.5-.8.5-1.5v-.1c-.1-.7-.3-1.2-.5-1.5-.2-.4-.5-.6-1.2-.6-.5 0-.8.2-1 .6-.3.4-.5.9-.5 1.6.1.6.2 1.1.4 1.4.3.4.6.6 1.1.6zm8.8-2c0 .9-.2 1.6-.7 2-.4.5-1 .8-1.8.8-.5 0-1-.1-1.3-.4-.3-.2-.6-.5-.9-1-.2-.3-.3-.7-.3-1.3 0-1 .3-1.7.7-2.1.4-.6 1-.9 1.8-.9.5.1 1 .2 1.4.4.3.3.6.6.8 1 .2.4.2.9.2 1.5zm-4 0c-.1.6-.1 1.1.2 1.5.4.4.8.5 1.3.5.6.1 1-.1 1.2-.5.3-.4.4-.9.4-1.5 0-.7-.2-1.2-.4-1.5-.2-.4-.7-.6-1.2-.6s-1 .2-1.2.6c-.2.3-.4.8-.4 1.5zm11.3-2.8c.6 0 1 .2 1.3.5.3.3.5.8.5 1.4v3.6h-.9V182c0-.7-.4-1.2-1-1.2s-1.1.2-1.3.5c-.1.3-.2.7-.2 1.3v3h-.9V182c0-.7-.4-1.2-1.1-1.2-.6 0-1 .2-1.1.5-.2.4-.3.9-.3 1.5v2.8h-1v-5.4h.9v.8l.7-.7 1-.2c.7 0 1.2.3 1.5.9l.9-.7 1-.2zm0 0" style="fill:none;stroke:#fff;stroke-width:3;stroke-linecap:butt;stroke-linejoin:round;stroke-miterlimit:10;stroke-opacity:.6" transform=" rotate(  340 248.039 173.887) "/> <g style="fill:#212121;fill-opacity:1" transform=" rotate(  340 248.039 173.887) ">  <use xlink:href="#F" x="229.6" y="185.6"/>  <use xlink:href="#E" x="235.8" y="185.6"/>  <use xlink:href="#G" x="241.4" y="185.6"/>  <use xlink:href="#A" x="247.6" y="185.6"/>  <use xlink:href="#H" x="253.6" y="185.6"/> </g> <path d="M3.7 2A1.7 1.7 0 1 1 .2 2a1.7 1.7 0 0 1 3.5 0zm0 0" style="fill:#fdfdfa;fill-opacity:1;fill-rule:nonzero;stroke:#3f3f35;stroke-width:.5;stroke-linecap:butt;stroke-linejoin:miter;stroke-miterlimit:4;stroke-opacity:1" transform="translate(474.12269,214.42906)"/> <path d="M465.1 221.7c-.8 0-1.4.2-1.8.7-.4.6-.7 1.3-.7 2.1 0 1 .4 1.6.7 2.2.4.5 1 .7 1.7.7h1l.8-.4v1l-.8.1-1 .1c-.8 0-1.4-.1-2-.4a2.8 2.8 0 0 1-.9-1.3c-.3-.6-.4-1.2-.4-2 0-.7.1-1.3.4-1.9a3 3 0 0 1 1.2-1.3c.5-.3 1-.3 1.7-.3s1.5 0 2.1.3l-.4.7-.7-.2a3 3 0 0 0-1-.1zm4-1.2v3l.7-.6c.3-.2.7-.2 1-.2.7 0 1.2.1 1.5.3.3.4.5 1 .5 1.6v3.5h-.9v-3.4c.1-.9-.4-1.3-1.2-1.3-.6 0-1 .2-1.2.5-.3.3-.5.8-.5 1.4v2.8h-.8v-7.6zm7.4 2.2c.5 0 .9 0 1.2.3a2 2 0 0 1 .7.8c.2.4.3.8.3 1.3v.5H475c0 .6.2 1 .5 1.4.3.3.7.5 1.3.5l.9-.1.8-.4v.9l-.8.1a5 5 0 0 1-1 .2 3 3 0 0 1-1.3-.3 2.2 2.2 0 0 1-1-.9c-.1-.3-.2-.8-.2-1.4-.1-.7 0-1.2.2-1.6.2-.5.6-.8.9-1 .3-.2.7-.3 1.2-.3zm0 .7c-.5 0-.8.1-1 .4-.2.2-.5.6-.5 1.1h2.8c0-.5-.1-.8-.3-1.1-.2-.3-.6-.4-1-.4zm3.5 4.7v-2.8l-.5.3-.5-.6 1.1-.6v-3.9h.7v3.5l.7-.6.5.6-1.1.7v3.3zm8.5-5.4c.6 0 1.1.1 1.5.3.2.4.4 1 .4 1.6v3.5h-1v-3.4c.1-.9-.2-1.3-.9-1.3-.6 0-1.1.1-1.2.4-.3.3-.4.8-.4 1.4v3h-.8v-3.6c-.1-.8-.4-1.2-1.1-1.2-.6 0-1 .2-1.2.5-.2.3-.3.8-.3 1.4v2.8h-.8v-5.3h.7l.1.6c.2-.2.5-.4.7-.5.3-.2.6-.2 1-.2.8 0 1.2.3 1.5.8.3-.3.5-.5.8-.5.5-.3.7-.3 1-.3zm0 0" style="fill:none;stroke:#fff;stroke-width:3;stroke-linecap:butt;stroke-linejoin:round;stroke-miterlimit:10;stroke-opacity:.6" transform=" rotate(  340 477.871 216.43) "/> <g style="fill:#212121;fill-opacity:1" transform=" rotate(  340 477.871 216.43) ">  <use xlink:href="#v" x="461.1" y="228.1"/>  <use xlink:href="#C" x="467.4" y="228.1"/>  <use xlink:href="#I" x="473.6" y="228.1"/>  <use xlink:href="#J" x="479.2" y="228.1"/>  <use xlink:href="#H" x="481.8" y="228.1"/> </g> <use style="fill:#fdfdfa;fill-opacity:1;fill-rule:nonzero;stroke:#3f3f35;stroke-width:.5;stroke-linecap:butt;stroke-linejoin:miter;stroke-miterlimit:4;stroke-opacity:1" transform="translate(355.62185,49.360628)" xlink:href="#reuse-1"/> <path d="M346.2 61.1c0 .7-.2 1.2-.7 1.5-.4.4-1 .5-1.8.5h-1.2a3 3 0 0 1-.8-.4v-.8a5 5 0 0 0 .9.3l1.1.2c.5 0 1-.1 1.2-.4.3-.2.4-.4.4-.8l-.1-.6-.6-.4a7.2 7.2 0 0 0-1-.5c-.6-.2-1-.4-1.4-.7-.2-.4-.4-.8-.4-1.4 0-.4 0-.6.2-1a2 2 0 0 1 .9-.6 3 3 0 0 1 1.1-.2l1 .1a5 5 0 0 1 1.1.3l-.5.8a4.5 4.5 0 0 0-.6-.3l-1-.1c-.4 0-.7 0-1 .3-.2.1-.3.4-.3.7l.1.6.5.5c.3 0 .7.2 1 .3l.9.6c.4.1.6.4.8.6l.2 1zm1.8-5.4.3.1.2.4c0 .2 0 .4-.2.4l-.3.2c-.2 0-.3 0-.4-.2l-.1-.4v-.4l.5-.1zm.4 2V63h-.9v-5.3zm3.8-.1c.4 0 .8 0 1.1.3a2 2 0 0 1 .8.8c.2.4.3.8.3 1.3v.5h-3.7c0 .6.2 1.1.5 1.5.3.2.7.4 1.2.4l1-.1.6-.3v.8l-.7.2a5 5 0 0 1-1 0 3 3 0 0 1-1.3-.2 2.2 2.2 0 0 1-.9-.8c-.1-.5-.3-1-.3-1.6 0-.6 0-1 .3-1.5.2-.4.5-.8.8-1 .4-.2.8-.3 1.3-.3zm0 .7c-.5 0-.8.1-1 .4-.3.3-.4.6-.5 1.1h2.8c0-.4-.2-.8-.5-1 0-.5-.4-.6-.9-.6zm5.4 4.8c-.6 0-1.2-.1-1.6-.7-.4-.4-.6-1.1-.6-2 0-1 .2-1.6.6-2.1.5-.5 1-.7 1.7-.7.3 0 .7 0 1 .2a2 2 0 0 1 .6.6v-3h.9V63h-.7l-.2-.7a2 2 0 0 1-.6.7c-.3.1-.7.1-1 .1zm.2-.7c.5 0 1-.1 1.2-.4.2-.4.3-.8.3-1.5v-.1c0-.7 0-1.2-.3-1.5-.2-.4-.6-.6-1.2-.6-.5 0-.9.2-1.1.6-.2.4-.4.9-.4 1.5s.2 1.1.4 1.5c.2.3.6.5 1 .5zm5 .6h-1v-7.6h1.1zm3.8.1c-.4 0-.9 0-1.2-.1-.4-.3-.7-.6-1-1.1l-.1-1.5c-.1-.7-.1-1.2.2-1.6.2-.4.5-.8.9-1l1.3-.1h.8l.5.3-.2.6-.6-.2h-.5c-1 0-1.7.6-1.7 2 0 .6.2 1.1.5 1.5.2.3.5.5 1.1.5l.8-.1.6-.3v.9a2 2 0 0 1-.6.1h-.8zm4.7-5.5c.5 0 .9 0 1.2.3a2 2 0 0 1 .8.8c.2.4.2.8.2 1.3v.5H370c-.1.6 0 1.1.3 1.5.3.2.8.4 1.3.4l.9-.1c.3 0 .5-.3.8-.3v.8l-.8.2a5 5 0 0 1-1 0 3 3 0 0 1-1.3-.2 2.2 2.2 0 0 1-.9-.8c-.2-.5-.3-1-.3-1.6 0-.6 0-1 .3-1.5.2-.4.4-.8.7-1 .4-.2.9-.3 1.3-.3zm0 .7c-.3 0-.7.1-1 .4-.2.3-.3.6-.3 1.1h2.6c0-.4 0-.8-.3-1-.2-.5-.5-.6-1-.6zm0 0" style="fill:none;stroke:#fff;stroke-width:3;stroke-linecap:butt;stroke-linejoin:round;stroke-miterlimit:10;stroke-opacity:.6" transform=" rotate(  340 359.371 51.3594) "/> <g style="fill:#212121;fill-opacity:1" transform=" rotate(  340 359.371 51.3594) ">  <use xlink:href="#K" x="341.2" y="63"/>  <use xlink:href="#L" x="346.7" y="63"/>  <use xlink:href="#I" x="349.3" y="63"/>  <use xlink:href="#G" x="354.9" y="63"/>  <use xlink:href="#M" x="361" y="63"/>  <use xlink:href="#B" x="363.6" y="63"/>  <use xlink:href="#I" x="368.4" y="63"/> </g> <path d="M3.8 2C3.8 3 3 3.8 2 3.8S.3 3 .3 2a1.7 1.7 0 1 1 3.5 0zm0 0" style="fill:#fdfdfa;fill-opacity:1;fill-rule:nonzero;stroke:#3f3f35;stroke-width:.5;stroke-linecap:butt;stroke-linejoin:miter;stroke-miterlimit:4;stroke-opacity:1" transform="translate(99.667766,170.93264)"/> <path d="M83.8 177.5c1 0 1.6.2 2 .5.5.4.7 1 .7 1.6 0 .4-.1.7-.3 1-.2.4-.5.8-.9 1.1h-2.5v2.9H82v-7.1zm0 .7h-1.1v2.9h.8c.7-.1 1.2-.1 1.5-.4.4-.2.5-.6.5-1 0-.6-.1-1-.4-1.2-.3-.1-.8-.3-1.4-.3zm4.5-1c.1 0 .2 0 .3.2l.2.4c0 .2 0 .3-.2.4l-.3.2c-.3 0-.3 0-.4-.2l-.1-.4.1-.4.4-.2zm.4 2v5.5h-.9v-5.4zM95 182c0 .7-.1 1.4-.5 2-.6.5-1.1.7-1.9.7-.6 0-1 0-1.3-.3-.4-.2-.7-.5-.9-1-.2-.4-.3-.9-.3-1.4 0-1 .2-1.6.7-2 .4-.6 1-.8 1.8-.8.5 0 1 0 1.4.3.2.2.5.5.7 1 .3.2.5.7.5 1.3zm-4 0c0 .5.1 1 .4 1.3.2.5.6.7 1.2.7.4 0 1-.2 1.2-.6.2-.3.4-.8.4-1.4 0-.7-.2-1.2-.4-1.6-.3-.3-.8-.4-1.2-.4-.6-.1-1 0-1.2.4-.4.4-.4.9-.4 1.6zm7.3 2h.4l.3-.1v.7h-.4l-.5.2-.8-.2-.5-.6c-.2-.2-.3-.5-.3-1v-3.1h-.7v-.4l.8-.3.3-1.2h.5v1.3H99v.6h-1.6v3.1c0 .4 0 .6.2.8l.7.2zm4.3-4.8h.6l-.1.8h-.6c-.3 0-.5 0-.8.2-.2.1-.4.3-.5.6-.2.3-.2.6-.2 1v2.8h-1v-5.3h.9v1h.1c.1-.5.3-.7.6-.9.3-.1.6-.2 1-.2zm2.4-2.2v4.8c.2 0 .3 0 .3-.2l.2-.3.2-.2 1.7-1.8h1l-2.1 2.3 2.3 3h-1l-2.1-2.5-.3.5v2h-1V177zm9.2 5c0 .7-.2 1.4-.7 2-.4.5-1 .7-1.8.7-.5 0-.9 0-1.3-.3-.3-.2-.6-.5-.8-1-.3-.4-.4-.9-.4-1.4 0-1 .3-1.6.8-2 .4-.6 1-.8 1.7-.8.5 0 1 0 1.3.3.4.2.7.5.9 1 .1.2.3.7.3 1.3zm-4 0c-.1.5-.1 1 .2 1.3.4.5.8.7 1.3.7.6 0 1-.2 1.3-.6.2-.3.3-.8.3-1.4 0-.7-.1-1.2-.4-1.6-.2-.3-.6-.4-1.2-.4-.5-.1-1 0-1.2.4-.2.4-.4.9-.4 1.6zm2.9-5-.4.6-.5.5-.5.5h-.6v-.2a16.4 16.4 0 0 0 .7-1l.2-.4zm6.7 7.6-1-3a18 18 0 0 1-.2-1.4 33.6 33.6 0 0 1-.6 1.4l-1 3h-.9l-1.4-5.4h.9l.7 2.9.2.9.2.7v-.4l.3-.5a6 6 0 0 1 .1-.5l.9-3h1l.9 2.9.1.8.2.7.3-.7.1-.9.8-2.9h.9l-1.5 5.4zm-41.8 12h-.8v-6.4H75v-.8h5.3v.8H78zm5.2-5.5h.8l-.2.9h-.3l-.3-.2c-.3.1-.6.1-.8.2l-.6.8-.2.9v2.9h-.9v-5.4h.7l.2 1 .7-.8c.2-.2.6-.3 1-.3zm.8.1h1l1 3 .4.8.2.7.2-.6.2-.9 1-3h1.2l-2.4 6c-.2.7-.4 1.1-.7 1.4-.3.2-.7.4-1.2.4h-.5l-.3-.2v-.6h.6c.3 0 .6 0 .7-.2l.6-.7.2-.7zm6.8-2.2v2.9l.7-.6 1-.2c.7 0 1.2.2 1.6.7.4.5.6 1.1.6 2 0 1.1-.2 1.8-.6 2.2-.4.4-1.1.6-1.6.6-.4 0-.8 0-1-.2l-.7-.4-.2.6H90V189zm1.5 2.8c-.5 0-1 .2-1.1.5-.2.4-.4.9-.4 1.5 0 .8.2 1.2.4 1.7.2.2.6.4 1.2.4.5.1.8-.2 1-.5.3-.4.4-.9.4-1.5 0-1.4-.5-2-1.5-2zm8.3-.6v5.4h-.7l-.2-.8-.7.7-1 .1c-.7 0-1.1-.1-1.5-.4-.3-.3-.4-.8-.4-1.5v-3.5h.8v3.4c.1.9.4 1.4 1.2 1.4.6 0 1-.2 1.3-.6.2-.3.3-.8.3-1.4v-2.8zm4.3-.1c.6 0 1 .2 1.4.5.3.3.5.8.5 1.4v3.6h-.8V193c0-.7-.5-1.2-1.3-1.2-.6 0-1 .2-1.2.5-.2.4-.3.8-.3 1.5v2.8h-1v-5.4h.8l.1.7c.3-.3.6-.5.9-.6l.9-.2zm5.6 0c.5 0 1.1.1 1.4.4.4.3.5.8.5 1.5v3.6h-.6l-.2-.8c-.3.2-.6.5-.8.6-.2.2-.6.2-1 .2-.5 0-1 0-1.2-.3-.4-.3-.6-.7-.6-1.3 0-.5.3-1 .7-1.2.4-.3 1-.4 2-.5h.8v-.3c.1-.4 0-.7-.2-1l-.9-.1-.8.1-.6.2-.3-.6.8-.4 1-.1zm1 2.8h-.6c-.9.1-1.3.3-1.5.5-.4.1-.4.3-.4.6 0 .4 0 .6.3.7.1.3.4.3.7.3.4 0 .8 0 1-.4.4-.3.6-.7.6-1.2zm3.5 2.7h-1V189h1zm5.2-1.6c0 .7-.2 1-.6 1.4-.4.1-1 .2-1.6.2h-1l-.7-.3v-.8l.8.3 1 .2c.3 0 .6 0 .9-.3.2-.1.3-.3.3-.6l-.1-.3-.4-.3a7.5 7.5 0 0 0-.8-.5 7.5 7.5 0 0 1-1-.3l-.4-.5-.3-.7c0-.4.2-.8.7-1 .2-.3.7-.5 1.3-.5h1a4 4 0 0 1 .7.6l-.3.4h-2.3c-.2.2-.2.4-.2.6v.2l.6.3.7.4c.5.1.7.2.9.4l.5.5c.2.2.3.4.3.6zm2.1-6v4.8l.2-.2.2-.3.3-.3 1.7-1.8h1l-2.2 2.3 2.3 3h-1l-1.9-2.3-.6.4v2h-.9V189zm4.9.2.4.1.2.4-.3.5-.3.1-.2-.1-.3-.5c0-.1 0-.3.3-.4l.2-.1zm.5 2v5.4h-1v-5.4zm0 0" style="fill:none;stroke:#fff;stroke-width:3;stroke-linecap:butt;stroke-linejoin:round;stroke-miterlimit:10;stroke-opacity:.6" transform=" rotate(  340 103.418 172.934) "/> <g style="fill:#212121;fill-opacity:1" transform=" rotate(  340 103.418 172.934) ">  <use xlink:href="#N" x="80.9" y="184.6"/>  <use xlink:href="#L" x="87" y="184.6"/>  <use xlink:href="#A" x="89.6" y="184.6"/>  <use xlink:href="#z" x="95.6" y="184.6"/>  <use xlink:href="#O" x="99.2" y="184.6"/>  <use xlink:href="#P" x="103.4" y="184.6"/>  <use xlink:href="#Q" x="108.7" y="184.6"/>  <use xlink:href="#D" x="114.5" y="184.6"/>  <use xlink:href="#R" x="74.8" y="196.6"/>  <use xlink:href="#O" x="79.9" y="196.6"/>  <use xlink:href="#S" x="84" y="196.6"/>  <use xlink:href="#T" x="89.1" y="196.6"/>  <use xlink:href="#U" x="95.3" y="196.6"/>  <use xlink:href="#V" x="101.4" y="196.6"/>  <use xlink:href="#E" x="107.6" y="196.6"/>  <use xlink:href="#M" x="113.2" y="196.6"/>  <use xlink:href="#y" x="115.8" y="196.6"/>  <use xlink:href="#P" x="120.6" y="196.6"/>  <use xlink:href="#L" x="125.9" y="196.6"/> </g> <use style="fill:#fdfdfa;fill-opacity:1;fill-rule:nonzero;stroke:#3f3f35;stroke-width:.5;stroke-linecap:butt;stroke-linejoin:miter;stroke-miterlimit:4;stroke-opacity:1" transform="translate(439.23032,70.762248)" xlink:href="#reuse-0"/> <path d="M408.4 61.6h2c.9 0 1.6.2 2 .4.6.3.7.7.7 1.4 0 .4-.1.8-.3 1-.3.3-.6.6-1 .6.2 0 .5.2.8.3l.4.5c.3.3.4.6.4 1 0 .5-.4.9-.7 1.3-.5.5-1 .7-1.8.7h-2.5zm.9 3h1.3c.6.1 1 .1 1.3-.1.1-.3.3-.6.3-1s-.1-.7-.4-.8c-.3-.2-.8-.3-1.4-.3h-1.1zm0 .9V68h1.4c.6 0 1-.1 1.3-.4.3-.2.4-.5.4-1 0-.2-.1-.6-.4-.7-.2-.4-.7-.5-1.4-.5zm5.9-4.1.4.1.1.5-.1.4-.4.1-.4-.1-.1-.5.1-.4.4-.1zm.4 2v5.4h-.9v-5.4zm3.8-.1c.6 0 1.1.2 1.4.4.3.3.5.8.5 1.4v3.7h-.7l-.1-.8-.9.7-.9.2c-.7 0-1.1-.2-1.4-.4-.2-.3-.3-.7-.3-1.2 0-.6.1-1 .6-1.3.4-.2 1-.4 2-.4h.7v-.5c.1-.3.1-.6-.2-.9l-.8-.2c-.3 0-.5 0-.8.2l-.7.2-.3-.6.9-.4h1zm1 2.8h-.8c-.6.2-1.1.3-1.4.5-.2.1-.2.3-.2.7-.1.3-.1.5 0 .6.3.2.5.3.8.3.5 0 .9-.2 1.2-.4.3-.3.4-.8.4-1.2zm2.5 2.7v-2.9l-.5.3-.4-.6.9-.5V61h.8v3.6l.7-.5.4.6-1 .6v3.5zm4.6-5.5c.7 0 1.2.2 1.5.4.3.3.5.8.5 1.4v3.7h-.7l-.1-.8-.9.7-.9.2c-.7 0-1.1-.2-1.4-.4-.2-.3-.4-.7-.4-1.2 0-.6.2-1 .7-1.3.4-.2 1-.4 1.9-.4h1v-.5c-.1-.3-.3-.6-.5-.9l-.7-.2c-.3 0-.5 0-.8.2l-.7.2-.3-.6.8-.4h1zm1.1 2.8h-.8c-.7.2-1.1.3-1.4.5-.2.1-.4.3-.4.7 0 .3.1.5.3.6.2.2.4.3.7.3.5 0 1-.2 1.2-.4.3-.3.4-.8.4-1.2zm7.1-4.5c1 0 1.7.2 2 .6.6.3.8.8.8 1.5-.1.4-.1.8-.3 1.1-.2.4-.5.6-1 .9-.2.2-.9.3-1.5.3h-.9v2.8h-1v-7.2zm0 .8h-1v2.8h.9c.4 0 1.1 0 1.4-.2.3-.3.5-.7.5-1.2s-.2-.8-.5-1c-.2-.4-.7-.5-1.3-.5zm8.7 3.6c0 1-.2 1.7-.6 2.2-.5.4-1.1.8-1.9.8-.4-.1-.9-.2-1.2-.5-.4-.2-.7-.5-1-1l-.1-1.3c-.1-1.2.1-1.7.4-2.2.6-.5 1.2-.8 2-.8.5.1.9.2 1.2.4.4.2.8.6 1 1l.1 1.4zm-4 0c0 .8.1 1.3.4 1.7.2.3.6.3 1.2.3.5.1.9 0 1-.4.4-.4.5-.9.5-1.6 0-.6-.1-1.1-.4-1.4-.1-.4-.6-.6-1.1-.6-.6 0-1 .2-1.2.6-.3.3-.4.8-.4 1.4zm7.3 2.9c-.6 0-1.2-.3-1.6-.7-.4-.5-.6-1.2-.6-2.2 0-1 .2-1.5.6-2 .4-.6 1-.8 1.6-.8.5.1.8.1 1 .3a2 2 0 0 1 .7.6v-2.9h.9v7.6h-.7l-.2-.8a2 2 0 0 1-.6.6c-.3.2-.8.4-1 .4zm.3-.9c.4.1.9 0 1-.3.3-.3.4-.8.4-1.4V66c0-.6-.1-1-.3-1.4-.2-.4-.7-.6-1.2-.6s-.9.2-1.1.6c-.2.4-.4.9-.4 1.5 0 .7.2 1.2.4 1.5.2.4.6.5 1 .5zM452.9 68.8h-1v-7.6h1.1zm3.7-5.5c.6 0 1.1.2 1.4.4.4.3.5.8.5 1.4v3.7h-.5l-.3-.8-.8.7-.9.2c-.6 0-1.1-.2-1.4-.4-.3-.3-.4-.7-.4-1.2 0-.6.2-1 .6-1.3.4-.2 1-.4 2-.4h.7v-.5c.1-.3.1-.6-.1-.9l-.9-.2c-.2 0-.5 0-.8.2l-.7.2-.2-.6.8-.4h1zm1 2.8h-.6c-.8.2-1.3.3-1.5.5-.3.1-.5.3-.5.7 0 .3 0 .5.4.6.1.2.4.3.6.3.5 0 .9-.2 1.2-.4.3-.3.4-.8.4-1.2zm6.1 1.2c0 .5-.2.9-.7 1.2-.3.2-1 .4-1.5.4l-1-.1-.6-.3v-.8l.7.3 1 .2c.4 0 .6-.2.9-.3l.2-.5V67l-.4-.3a7.5 7.5 0 0 0-.8-.4 7.5 7.5 0 0 1-.9-.3l-.6-.6-.2-.7c0-.4.2-.7.6-1 .4-.3.8-.4 1.4-.4l1 .1a4 4 0 0 1 .8.3l-.3.7-.8-.4h-.7l-.9.1-.2.6v.3l.6.4.8.3.8.4c.3.1.4.3.6.5l.2.7zm2.1-6.1V66l.2-.2.3-.3.1-.3 1.8-1.8h1l-2.2 2.3 2.4 3h-1.1l-1.9-2.3-.6.4v2h-.8v-7.6zm6.5 2.1c.7 0 1.2.2 1.5.4.2.3.4.8.4 1.4v3.7h-.6l-.2-.8-.7.7-1 .2c-.7 0-1.1-.2-1.4-.4-.3-.3-.4-.7-.4-1.2 0-.6.2-1 .6-1.3.5-.2 1.1-.4 2-.4h.9v-.5c0-.3-.1-.6-.4-.9l-.7-.2c-.3 0-.6 0-.8.2l-.7.2-.3-.6.8-.4h1zm1 2.8h-.6c-.8.2-1.2.3-1.5.5-.3.1-.4.3-.4.7 0 .3.2.5.3.6.2.2.4.3.7.3.5 0 .8-.2 1.1-.4.3-.3.5-.8.5-1.2zm.1 0" style="fill:none;stroke:#fff;stroke-width:3;stroke-linecap:butt;stroke-linejoin:round;stroke-miterlimit:10;stroke-opacity:.6" transform=" rotate(  340 442.98 72.7617) "/> <g style="fill:#212121;fill-opacity:1" transform=" rotate(  340 442.98 72.7617) ">  <use xlink:href="#W" x="407.4" y="68.8"/>  <use xlink:href="#L" x="413.9" y="68.8"/>  <use xlink:href="#E" x="416.5" y="68.8"/>  <use xlink:href="#J" x="422.1" y="68.8"/>  <use xlink:href="#E" x="424.7" y="68.8"/>  <use xlink:href="#glyph2-29" x="430.3" y="68.8"/>  <use xlink:href="#N" x="432.9" y="68.8"/>  <use xlink:href="#A" x="438.9" y="68.8"/>  <use xlink:href="#G" x="445" y="68.8"/>  <use xlink:href="#M" x="451.1" y="68.8"/>  <use xlink:href="#E" x="453.7" y="68.8"/>  <use xlink:href="#y" x="459.3" y="68.8"/>  <use xlink:href="#P" x="464.1" y="68.8"/>  <use xlink:href="#E" x="469.5" y="68.8"/> </g> <path d="M3.8 2C3.8 3 3 3.8 2 3.8A1.7 1.7 0 1 1 3.8 2zm0 0" style="fill:#fdfdfa;fill-opacity:1;fill-rule:nonzero;stroke:#3f3f35;stroke-width:.5;stroke-linecap:butt;stroke-linejoin:miter;stroke-miterlimit:4;stroke-opacity:1" transform="translate(143.99121,83.164058)"/> <path d="M121.9 79.3c0 .6-.3 1-.7 1.4-.5.4-1 .6-1.9.6l-1-.1a3 3 0 0 1-1.1-.3v-.8a5 5 0 0 0 1.2.3h.9c.7.1 1.1.1 1.4-.1.1-.3.3-.6.3-1 0-.2 0-.3-.2-.6 0-.1-.2-.3-.5-.4a7.2 7.2 0 0 0-1-.4l-1.4-.9c-.3-.3-.4-.7-.4-1.3 0-.3 0-.7.3-1a2 2 0 0 1 .7-.5 3 3 0 0 1 1.2-.2h1.1a5 5 0 0 1 .9.3l-.3.8a4.5 4.5 0 0 0-.8-.3h-.9c-.4-.1-.7-.1-1 .2-.2.2-.3.4-.3.8l.1.6.5.4 1 .4 1 .5.6.6c.2.3.4.7.4 1zm2.1-5.7v4.8l.3-.2.2-.3.2-.3 1.7-1.8h1l-2.1 2.3 2.3 3h-1l-2.1-2.3-.3.4v2h-1v-7.6zm5 .2.3.1.2.5c0 .1 0 .3-.2.4l-.3.1-.4-.1-.1-.4.1-.5.4-.1zm.4 2v5.4h-.9v-5.4zm3.8-.1 1.2.3a2 2 0 0 1 .6 1c.3.2.4.6.4 1v.6h-3.7c0 .7.3 1.1.5 1.4.3.4.7.5 1.2.5h1l.7-.5v1l-.8.2a5 5 0 0 1-1 0 3 3 0 0 1-1.1-.2 2.2 2.2 0 0 1-1.2-1c0-.4-.2-.9-.2-1.5s.2-1 .3-1.5l.9-1c.3-.1.7-.2 1.2-.2zm0 .7c-.4 0-.8.2-1 .4-.3.3-.4.7-.4 1.2h2.7c0-.5-.1-1-.3-1.1-.3-.3-.6-.5-1-.5zm6.1-.7h.6l-.1 1h-.6l-.8-.1-.6.8-.2.9v2.9h-.8v-5.4h.7v1h.2l.6-.8c.3-.2.6-.3 1-.3zm4.2 0c.5 0 1 .3 1.4.5.3.3.5.8.5 1.5v3.5h-.9v-3.5c0-.7-.4-1.3-1.2-1.3-.6 0-1 .2-1.2.6-.1.3-.3.8-.3 1.4v2.8h-1v-5.4h.9v.7l.9-.5.9-.3zm4-1.9.5.1v.9l-.5.1-.4-.1-.1-.4.1-.5.4-.1zm.5 2v5.4h-1v-5.4zm3.7-.1c.5 0 .9.1 1.3.3a2 2 0 0 1 .7 1l.2 1v.6h-3.6c0 .7.1 1.1.4 1.4.3.4.7.5 1.3.5h.9l.8-.5v1l-.8.2a5 5 0 0 1-1 0 3 3 0 0 1-1.3-.2 2.2 2.2 0 0 1-1-1c0-.4-.2-.9-.2-1.5s0-1 .2-1.5c.2-.4.5-.7.9-1 .3-.1.7-.2 1.2-.2zm0 .7c-.4 0-.7.2-1 .4-.2.3-.4.7-.4 1.2h2.7c0-.5-.1-1-.3-1.1-.2-.3-.5-.5-1-.5zm7.8 4.7-1-3a18 18 0 0 1-.2-1.4 33.6 33.6 0 0 1-.6 1.4l-.9 3h-1l-1.4-5.3h.9l.7 2.8.2 1 .2.6v-.4l.3-.5a6 6 0 0 1 .1-.5l.9-3h1l.9 3 .2.8.1.6.3-.6.1-1 .8-2.8h.9l-1.5 5.2zm3.9-7.3.4.1.1.5-.1.4-.4.1-.4-.1v-.9l.4-.1zm.4 2v5.4h-.8v-5.4zm3.9 5.5c-.5 0-1-.1-1.3-.3-.4-.2-.6-.5-.9-1-.2-.2-.3-.8-.3-1.4s.1-1.3.4-1.6c.2-.5.4-.8.8-1 .4-.2.9-.3 1.3-.3h.8l.6.3-.1.7-.7-.1-.6-.1c-1 0-1.6.7-1.6 2 0 .7.2 1.1.4 1.5.3.3.7.5 1.2.5h.7l.7-.4v.9a2 2 0 0 1-.6.2h-.8zm4.7-5.6c.5 0 .9.1 1.2.3a2 2 0 0 1 .7 1c.2.2.3.6.3 1v.6H171c0 .7.1 1.1.4 1.4.3.4.7.5 1.3.5h.9l.8-.5v1l-.8.2a5 5 0 0 1-1 0 3 3 0 0 1-1.3-.2 2.2 2.2 0 0 1-1-1c-.1-.4-.3-.9-.3-1.5s.1-1 .3-1.5c.2-.4.5-.7.9-1 .3-.1.7-.2 1.2-.2zm0 .7c-.4 0-.8.2-1 .4-.4.3-.4.7-.4 1.2h2.7c0-.5-.1-1-.3-1.1-.2-.3-.6-.5-1-.5zm0 0" style="fill:none;stroke:#fff;stroke-width:3;stroke-linecap:butt;stroke-linejoin:round;stroke-miterlimit:10;stroke-opacity:.6" transform=" rotate(  340 147.742 85.1641) "/> <g style="fill:#212121;fill-opacity:1" transform=" rotate(  340 147.742 85.1641) ">  <use xlink:href="#K" x="116.9" y="81.2"/>  <use xlink:href="#P" x="122.4" y="81.2"/>  <use xlink:href="#L" x="127.7" y="81.2"/>  <use xlink:href="#I" x="130.3" y="81.2"/>  <use xlink:href="#O" x="135.9" y="81.2"/>  <use xlink:href="#V" x="140" y="81.2"/>  <use xlink:href="#L" x="146.2" y="81.2"/>  <use xlink:href="#I" x="148.8" y="81.2"/>  <use xlink:href="#D" x="154.2" y="81.2"/>  <use xlink:href="#L" x="162.1" y="81.2"/>  <use xlink:href="#B" x="164.7" y="81.2"/>  <use xlink:href="#I" x="169.5" y="81.2"/> </g></svg>