<svg xmlns="http://www.w3.org/2000/svg" xmlns:xlink="http://www.w3.org/1999/xlink" viewBox="0 0 497 279"> <defs overflow="visible" style="stroke:none">  <path id="h" d="M0-5.4h1l1 3 .4 1 .2.6.2-.7c0-.3.2-.5.2-.8l1-3h1.2L2.8.6c-.2.6-.4 1.1-.7 1.4-.3.3-.7.4-1.3.4H.1v-.9h.6c.3.2.6.2.7 0L2 .7l.2-.7Zm0 0"/>  <path id="g" d="M2.9-5.5c.6 0 1.1.2 1.4.5.3.3.5.7.5 1.3V0h-.6L4-.8c-.3.3-.5.6-.8.8h-1c-.5 0-1 0-1.3-.3C.6-.5.5-.9.5-1.5c0-.5.2-1 .5-1.2.5-.3 1-.5 2-.5h.8v-.3c.2-.5.2-.8-.2-1l-.8-.2H2l-.7.5L1-5l1-.3.9-.2Zm1 2.9h-.8c-.6 0-1 .1-1.4.3-.1.3-.3.5-.3.8 0 .3 0 .5.2.7l.7.2c.5 0 .9-.1 1.2-.4.3-.2.4-.6.4-1Zm.1 0"/>  <path id="f" d="M4.5-4.6H2.8V0h-.9v-4.6H.2v-.8h4.3Zm0 0"/>  <path id="e" d="M3-5.5c.3 0 .7.1 1 .3a2 2 0 0 1 1 .9v1.8H1.5c0 .5.1 1 .4 1.4.3.3.7.4 1.3.4H4l.9-.3v.8L4 0a5 5 0 0 1-1 0 3 3 0 0 1-1.2-.1 2.2 2.2 0 0 1-1-1.1c0-.2-.2-.8-.2-1.3-.1-.7 0-1.2.2-1.6.2-.5.5-.9.9-1 .3-.2.7-.4 1.2-.4Zm0 .8c-.6 0-.9.1-1 .4-.4.2-.6.6-.6 1.1h2.8c0-.5-.1-.8-.3-1.1-.2-.3-.5-.4-1-.4Zm0 0"/>  <path id="d" d="M8.1-5.4V0H.8v-5.4h1v4.7H4v-4.7h1v4.7h2.1v-4.7Zm0 0"/>  <path id="c" d="M4-5.4h1L2.7-2.8 5.2 0h-1L1.7-2.7V0H.8v-5.4h1v2.6Zm0 0"/>  <path id="b" d="M5.5-2.7c0 .9-.2 1.7-.7 2-.4.7-1 .9-1.8.9-.5-.2-.9-.2-1.3-.4-.3-.2-.6-.6-.7-1C.6-1.6.5-2 .5-2.7c0-.9.3-1.6.7-2 .5-.5 1-.8 1.8-.8.5 0 1 .2 1.3.5.4 0 .7.4.9.9.2.2.3.7.3 1.3Zm-4 0c0 .7 0 1.2.3 1.5.3.4.7.6 1.2.6.6 0 1-.2 1.2-.6.3-.3.4-.8.4-1.5s-.1-1.1-.4-1.5c-.2-.3-.6-.5-1.2-.5-.5 0-1 .2-1.2.5-.2.4-.3.9-.3 1.5Zm0 0"/>  <path id="a" d="M6.2 0H5L1.9-3.6V0h-1v-7.1H2v3.4L5-7h1L3-3.7Zm0 0"/>  <path d="M1 0v-7.1h4V0Zm.4-.5h3.1v-6.1h-3Zm.1 0"/> </defs> <image xlink:href="svg/8/10_7.jpg" width="497" height="279"/> <path d="M3.8 2C3.8 3 3 3.8 2 3.8A1.7 1.7 0 1 1 3.8 2zm0 0" style="fill:#fdfdfa;fill-opacity:1;fill-rule:nonzero;stroke:#3f3f35;stroke-width:.5;stroke-linecap:butt;stroke-linejoin:miter;stroke-miterlimit:4;stroke-opacity:1" transform="translate(60.643265,139.43869)"/> <path d="M42.5 158.8h-1l-3.4-3.8v3.8h-.8v-7.2h1v3.5l2.9-3.5h1.1l-2.9 3.5zM48 156c0 1-.2 1.7-.7 2.2-.3.4-1 .8-1.8.8-.5-.1-.9-.2-1.3-.5-.2-.2-.6-.5-.8-1-.2-.2-.4-.7-.4-1.3 0-1.2.3-1.7.7-2.2.5-.5 1-.8 1.9-.8.4.1.9.2 1.2.4.4.2.7.6.9 1 .2.4.3.9.3 1.4zm-4 0c0 .8 0 1.3.3 1.7.3.3.7.3 1.2.3.6.1 1 0 1.2-.4.3-.4.4-.9.4-1.6 0-.6-.1-1.1-.4-1.4-.2-.4-.6-.6-1.2-.6-.5 0-1 .2-1.2.6-.2.3-.3.8-.3 1.4zm8.6-2.6h1l-2.5 2.6 2.6 2.8h-1l-2.4-2.8v2.8h-.9v-5.4h.9v2.6zm9.4 0v5.4h-7.3v-5.4h.9v4.6h2.3v-4.6h.9v4.6H61v-4.6zm3.8-.1c.4 0 .8.1 1.1.3a2 2 0 0 1 .8.8c.2.4.3.8.3 1.3v.5h-3.7c0 .8.2 1.1.5 1.4.2.4.7.5 1.2.5h1l.6-.5v.9l-.6.3a5 5 0 0 1-1 0 3 3 0 0 1-1.3-.1 2.2 2.2 0 0 1-1-1.1c-.2-.4-.3-.9-.3-1.5s0-1 .3-1.5c.2-.4.3-.6.8-1 .4-.1.8-.2 1.3-.2zm0 .7c-.6 0-.8.2-1.1.4-.3.3-.4.7-.5 1.2H67c0-.6 0-.9-.3-1.2-.2-.2-.5-.4-1-.4zm7.2.1h-1.7v4.7h-.9V154h-1.7v-.6H73zm3.1-.8c.7 0 1.1.2 1.5.4.3.3.4.8.4 1.4v3.7h-.6l-.2-.8-.8.7-1 .2c-.5 0-1-.2-1.2-.4-.4-.3-.5-.7-.5-1.2 0-.6.2-1 .6-1.3.4-.2 1-.4 2-.4h.9v-.5c0-.3-.2-.6-.3-.9l-.9-.2c-.2 0-.5 0-.7.2l-.8.2-.2-.6.7-.4h1.1zm1 2.8h-.6c-.8.2-1.3.3-1.5.5-.3.1-.4.3-.4.7 0 .3 0 .5.4.6 0 .2.3.3.6.3.4 0 .8-.2 1.1-.4.3-.3.5-.8.5-1.2zm1.8-2.7h.9l1.1 3 .3.8.2.8.2-.7.4-.9 1-3h1l-2.5 6.1c-.1.5-.3 1-.5 1.2-.4.3-.8.5-1.3.5h-.5l-.2-.2v-.6h.5c.3 0 .6 0 .8-.2l.4-.7.3-.7zm0 0" style="fill:none;stroke:#fff;stroke-width:3;stroke-linecap:butt;stroke-linejoin:round;stroke-miterlimit:10;stroke-opacity:.6" transform="rotate(  340 64.3946 141.439) translate(2.5078321,-5.6426222)"/> <g style="fill:#212121;fill-opacity:1" transform=" rotate(  340 64.3946 141.439) ">  <use xlink:href="#a" x="38.8" y="153.1"/>  <use xlink:href="#b" x="45" y="153.1"/>  <use xlink:href="#c" x="51.1" y="153.1"/>  <use xlink:href="#d" x="56.4" y="153.1"/>  <use xlink:href="#e" x="65.3" y="153.1"/>  <use xlink:href="#f" x="71" y="153.1"/>  <use xlink:href="#g" x="75.7" y="153.1"/>  <use xlink:href="#h" x="81.3" y="153.1"/> </g></svg>