<svg xmlns="http://www.w3.org/2000/svg" xmlns:xlink="http://www.w3.org/1999/xlink" viewBox="0 0 497 279"> <defs overflow="visible" style="stroke:none">  <path id="k" d="M2.9.1C2 .1 1.6 0 1.2-.6.8-1 .6-1.7.6-2.6a9.5 9.5 0 0 1 1-4c.2-.6.4-1.1.9-1.3.3-.3.7-.5 1.1-.6A15.9 15.9 0 0 1 5.2-9h1.5l.3.6a22.2 22.2 0 0 0-3 .7c-.4.1-.9.5-1.2 1A5.6 5.6 0 0 0 2-5l.9-.6C3.2-6 3.7-6 4-6c.7 0 1.1.2 1.5.6.3.4.4.9.4 1.6l-.1 1.4c-.2.5-.3 1-.6 1.4-.2.3-.5.6-1 .8C4 0 3.5.1 3 .1Zm0-.8c.5-.1.8-.1 1.1-.3l.4-.8.4-1v-.9c.1-.5.1-.8-.1-1-.3-.3-.5-.5-.7-.5-.4.2-.7.2-1 .3l-.7.5-.5.6-.1.6v.6c0 .6 0 1 .3 1.4 0 .2.5.4 1 .4ZM3-.8"/>  <path id="j" d="M-.3 2.9a3 3 0 0 1-.5 0l-.2-.2v-.8h.2l.4.1c.4 0 .6 0 .9-.3L1 .8l.5-.7-1-6.5h1.2L2-3.2l.1.7v1l.2.5a19 19 0 0 1 1-1.9L5-6.4h1.2L2 1c-.2.7-.6 1-1 1.4-.3.3-.7.6-1.3.6Zm0 0"/>  <path id="i" d="M2.4.1a3 3 0 0 1-1-.1 1.7 1.7 0 0 1-.9-.6C.4-.8.3-1 .3-1.6c0-.2.1-.6.3-.9l.8-.6a7 7 0 0 1 1-.6c.6-.1 1.1-.3 1.3-.5.3-.2.4-.5.4-.8-.1-.2-.1-.4-.2-.5l-.7-.2c-.2 0-.6 0-.9.2-.3 0-.6.1-.8.3l-.3-1 1-.2 1-.1c.8 0 1.1 0 1.4.3.4.2.6.6.6 1.2l-.3.9c-.2.1-.5.5-.9.6l-.9.5-.9.4c-.3 0-.5.2-.6.4-.2.1-.2.2-.2.6s0 .6.3.6c.1.2.3.3.8.3l1-.3.9-.2v.9l-1 .3-.9.1Zm0 0"/>  <path id="h" d="M.3 0h-.6v-.8H0C.3-.8.4-.8.6-1l.4-.8.5-.7c.1-.2.4-.3.5-.4-.2-.1-.5-.3-.7-.6a1.6 1.6 0 0 1-.3-.9c0-.6.2-1 .7-1.4.3-.4 1-.6 1.9-.6H6L4.7 0h-1l.4-2.5h-.7c-.4 0-.7 0-.9.3l-.5.8a6 6 0 0 1-.5.8L1-.1.2.1Zm3-3.3h1l.5-2.2H3.4c-.4 0-.8 0-1 .3-.2.2-.3.5-.3.8-.1.4-.1.6.3.8l.9.2Zm0-.1"/>  <path id="g" d="m.3 0 1.4-6.4h1l-.6 3L5-6.3h1.4L3.2-3.2 5.4 0H4L2.1-3.2 1.4 0Zm0 0"/>  <path id="f" d="M3 .1C2.2.1 1.7 0 1.2-.5.8-.9.6-1.5.6-2.3c0-.6 0-1 .2-1.6l.7-1.4a3 3 0 0 1 1-.9L4-6.5h.8c.2 0 .5.2.7.3l-.3.8-.5-.2H4c-.5-.1-1 0-1.3.3A3 3 0 0 0 2-4l-.3 1.7c0 .5 0 .9.3 1.1.3.3.6.4 1 .4h1a9 9 0 0 0 .6-.5v1.1L4 0 2.9.1Zm0 0"/>  <path id="e" d="M3.1.1c-.9 0-1.5-.1-2-.7-.2-.4-.4-1.1-.4-2A5 5 0 0 1 1-4.5c.2-.7.6-1.1 1-1.5.6-.4 1.3-.5 2-.5s1.2 0 1.6.4C6-6 6-5.4 6-5s0 .9-.3 1.2c-.3.3-.7.4-1.2.5l.9.6c.2.1.3.4.3.9 0 .1 0 .4-.2.8s-.5.6-.8.8c-.4.2-1 .3-1.7.3ZM1.8-3.6H3l1-.1.8-.5c.2-.1.3-.3.3-.6l-.3-.6c-.1-.2-.4-.3-.8-.3-.6 0-1 .2-1.4.7-.4.2-.7.7-.8 1.4ZM3.2-.7c.5-.1.8-.3 1.1-.4.3-.2.4-.5.4-.8 0-.3-.1-.5-.4-.6-.2-.2-.6-.3-1.1-.3H1.6v.3c0 .6.2 1 .5 1.3.2.3.6.4.9.4Zm0-.1"/>  <path id="d" d="M3 0c-.8 0-1.4 0-1.8-.5C.8-1 .6-1.6.6-2.4c0-.5 0-1 .2-1.4.1-.5.2-1 .6-1.4.2-.4.6-.7 1-1 .4-.1.9-.2 1.4-.2.7-.1 1.3.1 1.7.6.5.4.7 1 .7 1.8 0 .5 0 1-.2 1.4l-.6 1.4-1 1C4 0 3.5 0 3 0Zm0-.7c.4-.1.8-.2 1-.5.5-.2.7-.6.9-1.1a5.3 5.3 0 0 0 .2-1.9 2 2 0 0 0-.1-.7l-.4-.5c-.2-.2-.6-.2-.8-.2-.4 0-.8.1-1.1.4-.4.3-.7.7-.8 1.2-.2.5-.3 1-.3 1.7 0 .5.2.8.4 1.1.3.3.6.4 1 .4Zm0-.1"/>  <path id="c" d="M1.8.1.8 0C.5 0 .2-.2 0-.3v-1a5 5 0 0 0 .8.4l1.1.2C2.4-.8 3-1 3.1-1.1c.3-.2.5-.5.5-.8 0-.3-.1-.5-.3-.7-.1-.2-.5-.4-1-.4h-.7l.1-.8H3l.7-.5c.2 0 .3-.3.3-.6l-.3-.6-.7-.2a3 3 0 0 0-1 .2l-.7.3-.3-1 1-.2 1-.1c.8 0 1.3 0 1.6.3.2.3.4.7.4 1.2 0 .4-.1.8-.4 1-.3.3-.6.5-1.1.6l.8.6c.2.1.3.4.3.9s-.2.9-.7 1.3C3.5 0 2.8.1 2 .1Zm0 0"/>  <path id="b" d="M2.3.1c-.5 0-1-.1-1.2-.5-.4-.4-.5-1-.5-1.7 0-.6 0-1.1.2-1.7l.7-1.4 1-1c.3-.2.8-.3 1.2-.3.5 0 .8 0 1 .3l.8.8.3-1h.8L5.2 0h-.8l.1-1.2-1 1a2 2 0 0 1-1.2.2Zm.4-.8c.3-.1.5-.3.8-.4.3-.2.6-.5.8-.9l.5-1.2.2-.6v-.6c0-.3-.1-.6-.3-.9-.2-.2-.5-.4-.9-.4-.3 0-.6.1-.8.3l-.7.8-.5 1.2L1.7-2c0 .4 0 .7.2 1 .2 0 .4.2.8.2Zm0-.1"/>  <path id="a" d="m1.8 0 1.6-7.6H1.1l.2-1H7l-.1 1H4.5L3 0Zm0 0"/>  <path d="M1.1 0v-8.6h5V0Zm.6-.6h3.8V-8H1.7Zm0 0"/> </defs> <image xlink:href="svg/8/11_18.jpg" width="497" height="279"/> <path d="m352.5 68.3 1.6-7.8h-2.3l.2-.9h5.8l-.2 1.1h-2.4l-1.6 7.5Zm6.5.1c-.5 0-1-.2-1.2-.6-.4-.4-.5-1-.5-1.6 0-.6 0-1.2.2-1.7l.7-1.5 1-1c.3-.1.8-.2 1.2-.2.6-.1.8 0 1 .2l.8.8.3-1h.8l-1.4 6.5h-.8l.2-1.3-1.1 1a2 2 0 0 1-1.2.4Zm.4-.9c.3 0 .6-.1.8-.3.3-.2.6-.5.8-.9l.6-1.2v-1.2c.1-.4.1-.7-.1-1-.3-.1-.6-.2-.9-.2-.4-.1-.7 0-1 .2l-.6.8-.5 1.1-.1 1.4c0 .4 0 .8.2 1 .2.2.5.3.8.3Zm6 .9c-.4 0-.7 0-1-.2l-1-.2v-1a5 5 0 0 0 .9.3l1.1.2c.6 0 1-.1 1.2-.3.4-.2.5-.5.5-.9 0-.3 0-.5-.2-.7-.2-.2-.5-.2-1-.2h-1l.4-1h1.3l.6-.4c.2-.1.3-.3.3-.6 0-.4-.1-.5-.3-.6l-.7-.2a3 3 0 0 0-.8.1l-.9.3-.3-.8 1-.4 1.1-.1c.6 0 1 .1 1.4.4.4.3.5.6.5 1.1 0 .4-.1.8-.4 1-.1.5-.6.7-1 .8.2 0 .4.1.6.4.3.2.4.5.4.9 0 .6-.2 1-.7 1.5-.4.4-1.1.6-2 .6Zm6.4-.1c-.7 0-1.3-.2-1.7-.6-.5-.5-.7-1-.7-1.8l.2-1.5.6-1.3 1-1.1c.4 0 1-.3 1.4-.3.8 0 1.4.3 1.8.7.4.4.6 1 .6 1.8 0 .5 0 1-.2 1.5-.1.5-.3 1-.6 1.3-.2.4-.6.7-1 1-.4.2-.8.3-1.4.3Zm0-.8c.6 0 .9-.2 1.2-.5.2-.2.5-.6.7-1.1a5.3 5.3 0 0 0 .3-1.8 2 2 0 0 0-.2-.7c0-.2-.2-.4-.4-.6l-.8-.2c-.4 0-.8.2-1 .5-.5.3-.8.7-.9 1.2-.1.5-.2 1-.2 1.6 0 .5.1.9.4 1.2.1.2.5.4 1 .4ZM378.7 68.4c-.9 0-1.5-.4-2-.7-.2-.5-.4-1.2-.4-2a5 5 0 0 1 .3-2c.2-.7.6-1 1.1-1.5.6-.2 1.3-.4 1.9-.4s1.2 0 1.6.3c.4.3.5.7.5 1.2s-.1.9-.4 1.2l-1.3.5c.5.1.8.3 1 .5.2.2.3.5.3.9 0 .3 0 .6-.2.9l-.8.8c-.4.2-1 .3-1.6.3Zm-1.3-3.8h1.3l1-.1c.3 0 .5-.2.7-.4.2-.1.3-.4.3-.6 0-.3 0-.5-.3-.7l-.8-.2c-.6 0-1 .2-1.4.4-.4.5-.7 1-.8 1.6Zm1.4 2.9c.5 0 .9-.1 1.1-.3.3-.3.4-.5.4-.8 0-.4-.1-.5-.3-.7-.3-.2-.7-.2-1.2-.2h-1.6v.3c0 .5.2 1 .5 1.2.2.4.6.5 1 .5Zm6.2.9c-.6 0-1.1-.2-1.6-.6-.4-.4-.7-1-.7-1.8 0-.6 0-1.1.2-1.7.2-.5.4-1 .7-1.3a3 3 0 0 1 1-1l1.4-.3h1l.6.3-.3 1-.5-.3-.8-.1c-.4 0-1 .1-1.2.4a3 3 0 0 0-.8 1.3c-.2.5-.2 1-.2 1.7 0 .4 0 .8.2 1 .4.5.7.6 1.1.6l.9-.2a9 9 0 0 0 .7-.4v1l-.7.3h-1Zm2.9-.1 1.3-6.5h1l-.5 3.2 2.9-3h1.4l-3.2 3 2 3.3h-1.1l-2.1-3.3-.7 3.3Zm7.8.1c-.5 0-1-.2-1.3-.6-.3-.4-.4-1-.4-1.6 0-.6 0-1.2.2-1.7.1-.6.4-1 .6-1.5l1-1c.4-.1.8-.2 1.3-.2.4-.1.8 0 1 .2.3.3.5.5.6.8l.6-1h.7l-1.4 6.5h-.8l.1-1.3-1 1a2 2 0 0 1-1.2.4Zm.3-.9 1-.3.7-.9.5-1.2.1-.7V64c.1-.5.1-.8-.3-1.1-.2-.1-.4-.2-.8-.2l-.9.2c-.2.1-.5.4-.7.8l-.4 1.1-.2 1.4c0 .4.1.8.3 1 .2.2.4.3.7.3Zm4.4.8h-.4v-1h.2c.3.2.4.2.6 0l.4-.8.5-.7.6-.5c-.3 0-.6-.3-.8-.5a1.6 1.6 0 0 1-.3-1c0-.4.2-.9.6-1.3.5-.5 1.2-.7 2-.7h2.3l-1.3 6.5h-1l.5-2.6h-.7c-.4 0-.7.1-.9.3l-.5.8a6 6 0 0 1-.5.8c-.1.4-.3.4-.5.6l-.8.1Zm3-3.5h1.2l.4-2h-1.4c-.4-.1-.8-.1-1 .2-.2.2-.4.5-.4 1 0 .2.2.5.4.6l.9.2ZM368.8 83a3 3 0 0 1-1-.4 1.7 1.7 0 0 1-.8-.4c-.2-.2-.3-.5-.3-1 0-.2.1-.6.3-.9.2-.3.5-.6.8-.7a7 7 0 0 1 1-.6c.6 0 1.1-.2 1.2-.4.3-.2.5-.6.5-.8 0-.2 0-.4-.2-.5l-.7-.2c-.3 0-.6 0-.9.2l-.8.2-.3-.8 1-.3 1-.2c.7 0 1.1.2 1.4.4.4.2.6.6.6 1.1 0 .4-.1.7-.3 1l-.8.6-1 .5-.9.2-.6.6c-.2.1-.2.3-.2.6 0 .2 0 .4.2.6.2.2.5.2.9.2h1.1l.8-.5v1l-1 .3-.9.1Zm2.8 2.7a3 3 0 0 1-.5 0l-.3-.3v-.7h.2l.5.2c.5-.1.6-.2.9-.4l.6-.9.5-.6-1-6.7h1l.5 3.2v1.8l.2.6a19 19 0 0 1 1-1.9l1.8-3.7h1l-4 7.7c-.3.5-.7.9-1 1.2-.4.3-.8.5-1.4.5Zm8.8-2.7c-.7 0-1.4-.4-1.7-.9-.4-.4-.6-1-.6-1.9a9.5 9.5 0 0 1 1-4.2c.2-.4.5-.7.9-1.1l1-.7a15.8 15.8 0 0 1 1.7-.2l1-.3.5-.1.3.9a22.2 22.2 0 0 0-2.9.5c-.5.2-1 .5-1.3 1a5.6 5.6 0 0 0-.8 2c.2-.4.5-.6.9-.8.3-.3.8-.4 1.2-.4.6 0 1.1.2 1.4.6.3.3.4.9.4 1.6l-.1 1.4c-.1.6-.3.9-.6 1.3-.2.3-.5.7-1 .9-.2.2-.7.3-1.2.3Zm0-1c.5 0 .8 0 1.1-.3l.4-.7.4-1v-1c.1-.3.1-.7-.1-1-.2-.2-.5-.3-.8-.3-.4 0-.6 0-.9.2l-.7.5-.5.6-.1.6v.6c0 .6 0 1 .3 1.3.2.5.5.5 1 .5Zm6 1c-.5 0-1-.4-1.4-.8-.2-.2-.4-.8-.4-1.5 0-.6.1-1.2.4-1.7 0-.5.2-1 .5-1.4.3-.4.6-.8 1-1 .4-.2.8-.4 1.3-.4.4 0 .8.2 1 .4l.6.7.5-1h.7l-1.3 6.5h-.9l.2-1.2-1 1a2 2 0 0 1-1.2.2Zm.3-1c.3 0 .6 0 .9-.3.3-.2.4-.5.7-.9.3-.3.5-.8.7-1.2v-1.2c0-.4 0-.7-.3-1-.2-.1-.5-.2-.7-.2l-1 .2-.7.8-.3 1.2-.3 1.3c0 .5 0 .8.3 1 0 .2.4.3.7.3Zm0 0" style="fill:none;stroke-width:2;stroke-linecap:butt;stroke-linejoin:round;stroke:#fff;stroke-opacity:.6;stroke-miterlimit:10" transform=" rotate(  340 378.211 72.5157) "/> <g style="fill:#4d80b3;fill-opacity:1" transform=" rotate(  340 378.211 72.5157) ">  <use xlink:href="#a" x="350.7" y="68.3"/>  <use xlink:href="#b" x="356.7" y="68.3"/>  <use xlink:href="#c" x="363.5" y="68.3"/>  <use xlink:href="#d" x="368.9" y="68.3"/>  <use xlink:href="#e" x="375.6" y="68.3"/>  <use xlink:href="#f" x="382.1" y="68.3"/>  <use xlink:href="#g" x="387.5" y="68.3"/>  <use xlink:href="#b" x="393.4" y="68.3"/>  <use xlink:href="#h" x="400.2" y="68.3"/>  <use xlink:href="#i" x="366.4" y="82.8"/>  <use xlink:href="#j" x="371.9" y="82.8"/>  <use xlink:href="#k" x="377.5" y="82.8"/>  <use xlink:href="#b" x="384" y="82.8"/> </g></svg>