<svg xmlns="http://www.w3.org/2000/svg" xmlns:xlink="http://www.w3.org/1999/xlink" viewBox="0 0 497 279"> <defs overflow="visible" style="stroke:none">  <path id="c" d="M2.9-3.9h4.4v1.1H2.9Zm4.4-3.3v1H2.9v-1ZM2.9-5.5h4.4v1H2.9Zm6.5 3.4v-.7H8v-5H2.2v4.9H.6v.8h2.8L2-.6l-.8.3a4 4 0 0 1 .2.9C1.8.3 2.4.3 8 0l.5.8.7-.4a17.3 17.3 0 0 0-2.4-2.3l-.8.2L7.3-.5l-4.8.2a14 14 0 0 0 1.9-1.8Zm0 0"/>  <path id="b" d="M7 0c-.4 0-.5-.2-.5-.5V-3h3v-.7H5.3v-1h3.2v-.4H5.3v-1.2H9v-.5H6.8l1-1.4-.8-.2-1 1.5h.3-2.7l.3-.1a5.2 5.2 0 0 0-1-1.4l-.5.4a6 6 0 0 1 .8 1.2H1v.6h3.6v1h-3v.5h3v1.1h-4v.6H3C3-1.5 2.5-.4.5.1l.4.7C3.1 0 3.7-1.2 4-3h1.8v2.6c0 .8.2 1 1 1h1.7c.8 0 1-.3 1-1.8L9-1.5C9-.3 8.8 0 8.4 0Zm0 0"/>  <path id="a" d="M2.9-5.7h.7v-1h2.8v1H7v-1h2.4v-.7H7v-1h-.6v1H3.6v-1H3v1H.7v.7h2.2Zm5 5.3H3.2v-1.9h4.6Zm1.4-3.9V-5H4.6L5-6h-.7l-.5 1H.6v.7h2.9a7.6 7.6 0 0 1-3.1 3l.5.6A8.4 8.4 0 0 0 2.6-2V.8h.7V.3h4.5v.4h.8v-3.6H3.5l.8-1.4Zm.1 0"/>  <path d="M1 1.2h8v-10H1Zm4-5.4L1.8-8.3h6.4Zm.3.4 3.2-4v8ZM1.8.7l3.2-4L8.2.6Zm-.3-8.6 3.2 4.1L1.5.3Zm0 0"/> </defs> <image xlink:href="svg/8/13_0.jpg" width="497" height="279"/> <path d="M3.7 2C3.7 3 3 3.7 2 3.7A1.7 1.7 0 1 1 3.7 2zm0 0" style="fill:#fdfdfa;fill-opacity:1;fill-rule:nonzero;stroke:#3f3f35;stroke-width:.5;stroke-linecap:butt;stroke-linejoin:miter;stroke-miterlimit:4;stroke-opacity:1" transform="translate(430.42229,242.61776)"/> <path d="M420.3 243.7h.7v-1h2.8v1h.7v-1h2.3v-.7h-2.3v-1h-.7v1H421v-1h-.7v1h-2.2v.7h2.2zm5 5.3h-4.7v-1.9h4.7Zm1.6-3.9v-.7H422l.4-1-.7-.1-.4 1.1H418v.7h3a7.6 7.6 0 0 1-3.3 3l.6.6a8.4 8.4 0 0 0 1.7-1.3v2.7h.7v-.4h4.6v.3h.7v-3.5h-5.1l.8-1.5zm7.5 4.2c-.4 0-.4 0-.4-.3v-2.6h3v-.7h-4.2v-1h3v-.5h-2.9v-1h3.5v-.6h-2.2l1-1.4-.8-.2-1 1.5h.4-2.8.3a5.2 5.2 0 0 0-1-1.5l-.5.3a6 6 0 0 1 .8 1.3h-2.1v.6h3.5v1h-3v.5h3v1.1h-4v.5h2.5c-.1 1.7-.5 2.7-2.5 3.2l.3.7c2.2-.7 2.8-2 3-3.8h1.9v2.6c0 .8.2 1 1.1 1h1.7c.7 0 .9-.4 1-1.8l-.7-.3c0 1.2-.1 1.4-.5 1.4zm5.9-3.8h4.4v1.1h-4.4zm4.4-3.3v1h-4.4v-1zm-4.4 1.6h4.4v1h-4.4zm6.5 3.5v-.7h-1.4v-5.1h-5.8v5.1H438v.7h2.8l-1.5 1.5-.7.2a4 4 0 0 1 .4 1c.2-.3.8-.3 6.3-.6l.7.8.6-.4a17.3 17.3 0 0 0-2.4-2.3l-.7.2 1.3 1.1-4.8.3a14 14 0 0 0 1.8-1.8zm0 0" style="fill:none;stroke:#fff;stroke-width:3;stroke-linecap:butt;stroke-linejoin:round;stroke-miterlimit:10;stroke-opacity:.6" transform="rotate(  340 434.172 244.617) translate(0,-8.7774124)"/> <g style="fill:#212121;fill-opacity:1" transform=" rotate(  340 434.172 244.617) ">  <use xlink:href="#a" x="417.4" y="240.6"/>  <use xlink:href="#b" x="427.4" y="240.6"/>  <use xlink:href="#c" x="437.4" y="240.6"/> </g></svg>