<svg xmlns="http://www.w3.org/2000/svg" xmlns:xlink="http://www.w3.org/1999/xlink" viewBox="0 0 497 279"> <defs>  <path d="M3.7 2C3.7 3 3 3.7 2 3.7A1.7 1.7 0 1 1 3.7 2zm0 0" style="fill:#fdfdfa;fill-opacity:1;fill-rule:nonzero;stroke:#3f3f35;stroke-width:.5;stroke-linecap:butt;stroke-linejoin:miter;stroke-miterlimit:4;stroke-opacity:1" id="reuse-0"/> </defs> <defs overflow="visible" style="stroke:none">  <path id="o" d="M7.4-2.8v2.4H2.6v-2.4ZM1.8.8h.8V.3h4.8v.4h.8v-4.2H1.8Zm4.4-7.6 1.3 1.2a279 279 0 0 1-4.5.2 26 26 0 0 0 1.7-2.7l-.9-.3c-.4 1-1 2.2-1.6 3H.7v.9l7.5-.4.7.9.6-.4c-.5-.8-1.7-2-2.7-2.8Zm0 0"/>  <path id="n" d="M4.2-2.3 3-2.1v-1.4h1V-4H3v-1.7h-.7V-4h-.8l.7-2.5H4v-.7H2.4a20 20 0 0 0 .2-1L2-8.4c0 .4 0 .8-.3 1.2H.5v.7h1l-.3 1.7c-.3.5-.4.8-.6.8l.2.7.7-.2h.8V-2l-1.9.3.2.7 1.7-.3v2H3v-2.1l1.2-.3ZM6.4-.2c-.4 0-.6 0-.6-.4V-2c1-.4 2-1 2.9-1.7l-.5-.6-2.4 1.5v-1.9h-.7v4.1C5.1.3 5.4.5 6.3.5H8c1 0 1.1-.4 1.2-1.8l-.7-.2c0 1.1 0 1.3-.5 1.3Zm0-8.2a8.3 8.3 0 0 1-2.7 3.7 2 2 0 0 1 .6.5C5.3-5 6-6 6.7-7.2 7.3-6 8.2-4.9 9-4.2a3 3 0 0 1 .6-.6c-1-.7-2-2-2.6-3.2l.2-.2Zm0 0"/>  <path id="m" d="M9-8.3h-.8v3.9H6.9l.3.6h1.4c.3-.2.4-.5.4-.8ZM6.8-8h-.7v3.2h.7ZM2.7-3.8h.7v-1.6l1.2 1 .4-.4L3.4-6h2v-.7h-2v-.8L5.1-8l-.6-.3-3.8.5.3.5 1.7-.2v.8H.6v.7h1.8a6 6 0 0 1-2 1.6l.6.5c.5-.3 1.2-1 1.7-1.6Zm6.7 2.3h-4v-1h3.1V-3H5.4v-1h-.8v1H2.8l.3-.6-.7-.2A5.4 5.4 0 0 1 1-1.9c.1-.1.4.3.5.4l.9-1h2.2v1.1h-4v.6h4V.8h.8V-.8h4Zm0 0"/>  <path id="l" d="M4.8-7.3v1.2h-3v-1.2Zm-3 1.8h3.6V-8H1.1v3.6C1-3 1-1.2.3 0c.2.1.5.4.7.5.6-1.5.7-3.5.7-5ZM5.2-4v-.8h-3v.8ZM2.3-2.1a4.3 4.3 0 0 1-.8 1.8L2 0c.4-.5.7-1.3 1-2Zm3.3-.6v-.6H1.8v.6h1.6V.1h-1l.2.8L3.8.7C4 .6 4 .4 4 0v-2.7Zm-1 .7.7 1.8.7-.2a7.7 7.7 0 0 0-.9-1.8Zm2.8 0a8.3 8.3 0 0 0-.9-2.4l-.5.2c.3.8.7 1.7.8 2.3Zm2.2-4.1h-1v-2.1H8V-6H5.7v.7H8v5.1C8 0 8 0 7.7.1H6.5l.2.5h1.5c.4-.1.6-.3.6-.8v-5.1h.8Zm0 .1"/>  <path d="M2.8-7.2c-.3-.4-1-.8-1.5-1l-.5.4c.6.3 1.3.8 1.6 1.1Zm-.3 2.5a6.9 6.9 0 0 0-1.7-.9L.4-5c.6.2 1.3.6 1.7 1ZM1.3.7l1.3-3.2L2-3 .6.3Zm3.9-3.9v2H3.6v-2Zm.6 2.6v-3.2h-1v-1.8H6v-.7H4.8v-1.8H4v1.8H2.6v.7H4v1.8H2.9v4h.7v-.8Zm1.3-2.6V-5h1.6v1.8Zm1.5-4.1v1.7H7.2v-1.7Zm.7-.7H6.5v4c0 1.5-.1 3.2-1.2 4.4l.5.4c.9-1 1.2-2.2 1.3-3.3h1.5v2.3c0 .2 0 .2-.2.2h-1l.2.7c.7 0 1 0 1.3-.2.3 0 .4-.3.4-.5ZM3.5-5v-.7H2.4v-2.7h-.7v2.7H.4v.7h1.3V.8h.7V-5Zm.7 3.8L5.4.1 6-.3 4.7-1.6Zm.4-3H6v.7H4.6Zm0-1.3H6v.8H4.6Zm3.8 0v.8H6.8v-.8Zm0 2H6.8v-.7h1.6Zm1.2 1.2H8.1V-3H9v-3H6.8v-.6h2.7v-.6h-.7l.3-.3a7.6 7.6 0 0 0-1.4-.9l-.4.4 1.2.8H6.8v-1.2h-.7v1.2H3.4v.6H6v.6H3.9v3h3.5v.7H3v.6h4.4V0H6c.2.3.2.6.3.8L7.7.7c.3-.2.4-.3.4-.7v-1.7h1.5Zm0 0"/>  <path id="j" d="M6.8-8.3a9.5 9.5 0 0 1-1 1.8l.7.3 1-2ZM4.1-6.6a7.1 7.1 0 0 0-1-1.7l-.6.5 1 1.6ZM8.3-3v-.7h-3v-1.7H8v-.7H2.1v.7h2.5v1.7H1.7v.7h2.8c-.2 1.1-.8 2.3-3 3.2-.1.2.2.4.3.6 2.2-.8 2.9-2 3.3-3C5.7-.8 6.6.2 8 .8a3 3 0 0 1 .4-.8C7-.4 6-1.5 5.5-3Zm0 0"/>  <path id="i" d="M9-7H5.3v-1.4h-.7V-7H1V.8h.8v-7.1h2.8v2h.7v-2h3v6.1c-.1.2-.2.2-.3.2H6.6l.2.8c.9 0 1.4 0 1.7-.2.3-.1.5-.3.5-.8Zm0 0"/>  <path id="h" d="M4.3-6.5v-.7H2.2l.3-1H2C1.5-7.4.9-6.5.4-6l.3.8c.4-.4.8-.8 1-1.3Zm-1.5 6v-2.4h1.5v-.5H2.8v-1.4H4v-.7H1.1v.7h1v1.4H.6v.6h1.5v2.1c0 .4-.1.7-.4.8l.3.6L4.3-.6l-.1-.6Zm6.7-2.8V-4H7.3v-2h2v-.6h-2v-1.7h-.7v1.7h-1l.2-1.3h-.6c-.2 1-.5 2.2-1 2.9l.6.5a7 7 0 0 0 .6-1.4h1.2v2H4.5v.7h2C6.2-2 5.6-.7 4 .2l.6.6c1.4-1 2-2 2.4-3.1C7.4-1 8 0 9 .7l.7-.6C8.5-.5 7.8-1.7 7.4-3.2Zm0 .1"/>  <path d="M9.5-2.6c0-1-.4-2.7-.8-4l-.7.3c.5 1.1.8 2.8.9 3.9ZM7.8-8.2h-.6v6.8c0 .1 0 .2-.2.2H6l.1.6 1.4-.1c.2-.1.3-.3.3-.7ZM6.2-6.5c-.2 1.5-.5 3-1 4l.6.3c.4-1 .8-2.6 1-4.2ZM4-4.6l-1.3.4.3.6L4-4v2.6l-.2.1H3l.3.6 1-.1c.4-.1.5-.3.5-.6v-2.8l.9-.4-.3-.6-.7.3V-6c.3-.6 1-1.1 1.2-1.7L5.5-8H3v.7h2l-1 1ZM2.7-6.4 1.2-8l-.5.4L2.2-6Zm-.2 1.6h-2v.7h1.3V-1L.4 0l.6.8c.4-.8.9-1.3 1.3-1.3.2 0 .5.3.8.6.8.4 1.6.5 2.8.5L9.4.5l.2-.8C8.6 0 7 0 6 0S4 0 3.4-.5L2.5-1Zm0-.2h5v1.8h-5ZM7 0c-.5 0-.6 0-.6-.4v-2.2h1.8v-3H5.3v-1h4v-.9h-4v-.9h-.7v1H.7v.7h3.9v1.1H1.8v3h1.6C3.2-1.2 2.7-.3.4 0l.6.8C3.3.2 4-.9 4.2-2.6h1.5v2.2c0 .8.2 1 1.1 1h1.6c.8.1 1-.2 1.2-1.7-.3-.1-.6-.3-.7-.4C8.9-.2 8.8 0 8.3 0ZM3.8-4l-1.2.3v-2h1.2v-.7H2.6v-2h-.8v2H.5v.7h1.3v2.2L.4-3l.2.6 1.2-.4v2.7c0 .1 0 .1-.2.1h-1l.2.7C1.5.7 2 .7 2.2.5c.3 0 .4-.3.4-.7V-3a61 61 0 0 0 1.3-.4ZM7.3-.1c-.5 0-.5-.1-.5-.5v-3L9.5-4v-.7l-2.8.4V-7c.9-.2 1.6-.4 2.1-.7l-.6-.5c-1 .4-2.7.8-4.2 1l.3.8L6-7v2.8L4-4v.8l2.1-.3v2.9c0 1 .2 1.2 1 1.2h1.5c.7 0 .9-.6.9-2L9-1.7C8.9-.4 8.8-.1 8.5-.1Zm0 0"/>  <path id="k" d="M9.5-6.3V-7H5.4v-1.4h-.8V-7h-4v.7h3.9v1.4H1.6v4.4h.7v-3.7h2.3v5h.7v-5h2.5v2.8c0 .1 0 .2-.2.2H6l.4.7L8-.6c.5-.2.6-.4.6-.8V-5H5.3v-1.3Zm0 0"/>  <path d="M1.5-4.2h1.1V-3H1.5Zm3 1.2H3.3v-1.2h1.2ZM2.2-6.8h1.5v.8H2.2ZM5.4-1v-.7h-2v-.8H5v-2.2H3.3v-.7h1v-1.4h1.1v-.6H4.3v-1h-.5v1.1H2.2v-1.1h-.6v1.1h-1v.5h.9v1.4h1.1v.7H.8v2.2h1.8v.8H.5v.7h2.1V.8h.7V-1Zm3.9-5H7.2v-2.4h-.7v2.3H5.1v.7h1.4C6.4-3 6-1 4.5.2l.3.6C6.6-.6 7-2.8 7.2-5.4h1.4C8.5-1.7 8.4-.4 8 0H6.6l.2.7h1.3c.3 0 .5-.1.7-.4.2-.3.4-1.8.5-6ZM2.7-4.2C2.2-3 1.4-1.9.6-1.2l.6.5C2-1.5 3-2.7 3.4-4Zm5.7-1.7a6.7 6.7 0 0 1-.8 1.5l.6.2c.5-.5 1-1.5 1.3-2.3l-.6-.2H3l.8-1.4-.8-.3c-.6 1.5-1.6 3-2.6 4L1-4l1.6-2h2.1v5.9c0 .1 0 .1-.2.1H2.9c.1.2.3.5.3.8.9 0 1.5 0 1.8-.2.3-.1.5-.3.5-.8v-5.7ZM6.7-3.8c.8 1 1.6 2.3 2 3.1l.7-.4C9-1.9 8.1-3 7.4-4Zm2.8-2.9v-.7H6a4.2 4.2 0 0 0-.6-1l-.7.2.5.8h-4v2.9C1.2-3 1.2-1 .4.4l.6.4c.8-1.5 1-3.7 1-5.3v-2.2Zm0 5.2H6.7v-1h2.1v-.9H6.7v-.9h-.8v1H4l1-1.5h4v-.7H5.4l.2-.7-.8-.3-.4 1H2.6v.7h1.5c-.1.5-.4.9-.6 1-.2.4-.3.6-.5.6l.3.7h2.5v.9H2.3v.8H6V.8h.7V-.8h2.8Zm0 0"/>  <path id="g" d="M2.9-3.9h4.4v1.1H2.9Zm4.4-3.3v1H2.9v-1ZM2.9-5.5h4.4v1H2.9Zm6.5 3.4v-.7H8v-5H2.2v4.9H.6v.8h2.8L2-.6l-.8.3a4 4 0 0 1 .2.9C1.8.3 2.4.3 8 0l.5.8.7-.4a17.3 17.3 0 0 0-2.4-2.3l-.8.2L7.3-.5l-4.8.2a14 14 0 0 0 1.9-1.8Zm0 0"/>  <path id="f" d="M3.3-7.3a7.3 7.3 0 0 0-2-1l-.3.6c.6.2 1.4.7 1.8 1Zm-.5 2.6a8.7 8.7 0 0 0-2-1L.4-5c.7.2 1.6.6 2 1ZM1.4.6C2-.3 2.7-1.5 3.2-2.6L2.6-3A29.3 29.3 0 0 1 .7.1ZM8-2.5v2.2H4.6v-2.2ZM3.9.8h.7V.3H8v.4h.7v-4H4Zm3-7.3L8-5.1l-3.2.2a36 36 0 0 0 1.4-3.3l-.9-.2C5-7.4 4.5-5.9 4-4.9H3l.1.9 5.4-.4.5.8.6-.4c-.4-.8-1.3-2-2-2.8Zm.1 0"/>  <path id="e" d="M2.4-.5V-2h5.3v1.5ZM7.7-4v1.3H2.4V-4Zm0-2.3v1.5H2.4v-1.5ZM5-7a13 13 0 0 0 .4-1.3h-.8L4.2-7H1.7V.8h.7V.2h5.3v.5h.8V-7Zm0 0"/>  <path id="d" d="M9.5-6.4V-7H5.9l.4-1.2-.7-.2c-.3 1.2-.8 2.2-1.5 3 .2-.1.5.1.6.4l.9-1.4ZM2.2-4.6 2.4-6h2.1v-.7H3v-1.6h-.7v1.6H.5v.7h1c.1 2.4.1 5-1.1 6.3.1 0 .4.3.6.5C1.7-.3 2-2.1 2.2-4h1.3c0 2.8-.2 3.7-.4 4H1.9l.2.8h1c.3 0 .4-.1.6-.5.3-.2.4-1.3.5-4.6v-.3Zm7.4 2.3v-.6H7.5v-1.5h1.7v-.7h-3l.3-.9-.7-.2c-.2 1-.6 2-1.1 2.5l.5.4.8-1.1h.7V-3H4.6v.7h2C6.4-1.4 6-.5 4.3.2l.5.6c1.4-.8 2-1.6 2.4-2.4.4 1 1.1 1.9 2 2.4l.5-.6c-1-.4-1.8-1.4-2.1-2.5Zm-.1 0"/>  <path id="c" d="M6.2-2.7H3.8V-5h2.4ZM3-5.7V-2h4v-3.7ZM1.6-.5v-6.7h6.8v6.7ZM1-8V.8h.6V.2h6.8v.6h.8V-8ZM.9-8"/>  <path id="b" d="M7.6-2v.5h-5v-.6Zm-5 1.7v-.6h4.9v.7ZM1.7.8h.8V.4h5v.3h1v-3.2H1.8Zm3-7v-1H7l-1.2.9Zm4.8.4v-.5H7l2-1.5-.6-.2-1.2.9v-.5H4.7v-.8H4v.8H1.4v.5H4v.8H.6v.6h4A24.4 24.4 0 0 1 .5-4a4 4 0 0 1 .5.5l2-.8v.3c0 .7.4.9 1.7.9h2.8c1 0 1.2-.3 1.3-1.2l-.6-.2c-.2.7-.2.8-.8.8H4.7c-.8 0-.9 0-.9-.3v-.2c1.6-.1 3.4-.3 4.6-.6l-.6-.5c-.8.3-2.4.5-3.8.6l2-1Zm0 .1"/>  <path id="a" d="M1 .7c.7-.4 1-1.2 1.1-2l-.6-.2C1.4-.8 1.1 0 .5.3Zm2-1.9L3.1.5 4 .4a7.7 7.7 0 0 0-.5-1.7Zm1.4 0c.4.4.6 1 .7 1.4l.6-.1L5-1.4Zm4.9-3.3V-5h-4v-.9h3v-.6H5.4v-.7h3.7v-.6H1v.6h3.6V-5H3v-1.7h-.8v1.6H.7v.6h1.6l-.5 2.8.7.1v-.3h6C8.3-.6 8.2 0 8 .1H6.7l.2.6H8c.3 0 .5 0 .6-.2.4-.3.4-1 .5-2.7v-.3H2.7l.1-.7h5.9v-.6H3v-.7Zm-2 4a5 5 0 0 0-.6-.9l-.6-.1a6 6 0 0 1 .7 1.3Zm.1.1"/>  <path d="M1 1.2h8v-10H1Zm4-5.4L1.8-8.3h6.4Zm.3.4 3.2-4v8ZM1.8.7l3.2-4L8.2.6Zm-.3-8.6 3.2 4.1L1.5.3Zm0 0"/> </defs> <image xlink:href="svg/8/13_1.jpg" width="497" height="279"/> <path d="M3.8 2C3.8 3 3 3.8 2 3.8A1.7 1.7 0 1 1 3.8 2zm0 0" style="fill:#fdfdfa;fill-opacity:1;fill-rule:nonzero;stroke:#3f3f35;stroke-width:.5;stroke-linecap:butt;stroke-linejoin:miter;stroke-miterlimit:4;stroke-opacity:1" transform="translate(272.36685,134.12847)"/> <path d="M255.4 119.6c.6-.4 1-1.2 1-2l-.4-.1c-.3.5-.6 1.3-1.1 1.7zm1.9-1.9.3 1.7.6-.1a7.7 7.7 0 0 0-.2-1.7zm1.6 0 .6 1.5.5-.2-.5-1.5zm4.8-3.3v-.6h-4v-.8h3v-.5h-3v-.8h3.8v-.6h-8.1v.6h3.6v2.1h-1.7v-1.6h-.7v1.6H255v.6h1.7l-.5 2.9h.7v-.2h5.9c-.1 1.2-.3 1.7-.4 1.9H261l.2.6h1.2c.2 0 .4 0 .6-.2.2-.4.4-1 .5-2.7v-.2H257l.2-.8h5.8v-.6h-5.7l.1-.7zm-2 4a5 5 0 0 0-.7-.9l-.5-.1a6 6 0 0 1 .7 1.3zM272 116.8v.7h-5v-.7zm-5 2v-.8h5v.8zm-.9.9h.8v-.4h5.1v.4h.8v-3.4h-6.6zm2.9-7v-1h2.4l-1.2.9zm4.8.4v-.5h-2.4l2-1.5-.8-.3-1.1 1v-.5h-2.4v-.8h-.8v.8h-2.5v.5h2.5v.8H265v.6h4.1a24.4 24.4 0 0 1-4.3 1.6 4 4 0 0 1 .4.6l2.2-.8v.4c0 .6.4.8 1.7.8h2.8c1 0 1.1-.3 1.3-1.2l-.7-.2c0 .6-.1.8-.7.8h-2.7c-.8 0-1.1 0-1.1-.2v-.2c1.8-.2 3.6-.4 4.8-.8l-.6-.4c-.9.4-2.4.5-3.9.7l2.1-1zm6.8 3.1H278V114h2.6zm-3.2-3v3.8h3.9v-3.7zm-1.4 5.3v-6.8h6.7v6.7zm-.8-7.5v8.7h.8v-.7h6.7v.7h.8V111zm18.6 1.5v-.7h-3.5l.4-1.1-.7-.2c-.3 1.2-.9 2.3-1.5 3l.5.4.9-1.4zm-7.2 1.8v-1.4h2.4v-.7h-1.6v-1.6h-.8v1.6h-1.8v.8h1.2c0 2.3-.2 4.9-1.3 6.2l.5.5c1-1.1 1.2-2.9 1.4-4.7h1.3c-.1 2.7-.2 3.6-.4 3.9l-.3.1h-1c.3.2.4.5.4.7h.9c.2 0 .4-.1.5-.4.4-.3.5-1.3.6-4.7v-.3zm7.2 2.3v-.6h-2v-1.5h1.9v-.7h-3.1l.2-.8-.6-.2c-.3 1-.6 1.8-1.2 2.5l.6.3.7-1.1h.7v1.5h-2v.6h2c-.2.9-.7 1.8-2.3 2.6.1 0 .3.3.3.5 1.6-.7 2.2-1.7 2.5-2.4.5 1 1.2 2 2.1 2.4l.5-.7c-1.1-.3-1.8-1.2-2.2-2.4zm-32 15v-1.4h5.2v1.4zm5.2-3.6v1.5h-5.2V128zm.1-2.2v1.5h-5.3v-1.5zm-2.8-.7a13 13 0 0 0 .5-1.1l-.9-.2-.4 1.2H261v8h.8v-.7h5.2v.7h.9v-8zm8.3-.2a7.3 7.3 0 0 0-1.9-1l-.4.4 2 1.1zm-.5 2.5a8.7 8.7 0 0 0-1.9-.9l-.4.6c.7.2 1.5.7 2 .9zm-1.4 5.4 1.8-3.3-.5-.4a29.3 29.3 0 0 1-2 3.2zm6.7-3.2v2.2H274v-2.2zm-4.2 3.3h.8v-.4h3.4v.4h.6v-4h-4.8zm3-7.3 1.3 1.4-3.4.2a36 36 0 0 0 1.5-3.2l-.9-.2c-.3 1-.7 2.4-1.3 3.4h-1v.8l5.6-.3.3.8.7-.4c-.4-.8-1.3-2-2-2.8zm6 2.6h4.4v1.1h-4.4zm4.4-3.2v.9h-4.4v-.9zm-4.4 1.6h4.4v1h-4.4zm6.6 3.4v-.7h-1.4v-5h-5.9v4.9H280v.8h2.8l-1.5 1.5-.7.4a4 4 0 0 1 .2.7l6.5-.4.6.7.6-.3a17.3 17.3 0 0 0-2.4-2.4l-.6.3 1.2 1-4.7.4a14 14 0 0 0 1.7-1.9zm0 0" style="fill:none;stroke:#fff;stroke-width:3;stroke-linecap:butt;stroke-linejoin:round;stroke-miterlimit:10;stroke-opacity:.6" transform=" rotate(  340 276.117 136.129) "/> <g style="fill:#212121;fill-opacity:1" transform=" rotate(  340 276.117 136.129) ">  <use xlink:href="#a" x="254.4" y="118.9"/>  <use xlink:href="#b" x="264.4" y="118.9"/>  <use xlink:href="#c" x="274.4" y="118.9"/>  <use xlink:href="#d" x="284.4" y="118.9"/>  <use xlink:href="#e" x="259.4" y="132.1"/>  <use xlink:href="#f" x="269.4" y="132.1"/>  <use xlink:href="#g" x="279.4" y="132.1"/> </g> <path d="M3.8 2A1.7 1.7 0 1 1 .3 2a1.7 1.7 0 0 1 3.5 0zm0 0" style="fill:#fdfdfa;fill-opacity:1;fill-rule:nonzero;stroke:#3f3f35;stroke-width:.5;stroke-linecap:butt;stroke-linejoin:miter;stroke-miterlimit:4;stroke-opacity:1" transform="translate(182.67921,160.189)"/> <path d="M169 151.6v-.6h-2.2l.4-1-.6-.2c-.4 1-1 1.9-1.6 2.4l.4.8 1-1.4zm-1.5 6v-2.2h1.5v-.7h-1.5v-1.3h1.2v-.7h-2.9v.7h1v1.3h-1.5v.7h1.5v2.1c0 .4-.3.6-.4.8l.3.5 2.3-1.2-.1-.6zm6.7-2.6v-.7H172v-2h2v-.7h-2V150h-.7v1.6h-1l.2-1.3h-.7c-.1.9-.4 2.2-.8 2.9l.5.5a7 7 0 0 0 .6-1.4h1.2v2H169v.7h2.1c-.1 1.2-.8 2.5-2.3 3.4l.5.6c1.3-1 2-2 2.3-3.1.5 1.3 1.1 2.4 2.2 3l.5-.6c-1.1-.6-1.9-1.8-2.3-3.3zm9.4-3.8H180v-1.4h-.7v1.4h-3.6v7.7h.7V152h2.9v1.9h.7V152h2.9v5.9c0 .4 0 .4-.2.4h-1.4l.2.7c.9 0 1.5 0 1.7-.2.3-.1.4-.3.4-.8zm7.9-1.4a9.5 9.5 0 0 1-1 1.9l.6.2c.4-.4.9-1.2 1.2-1.8zm-2.7 1.8a7.1 7.1 0 0 0-1-1.6l-.6.2 1 1.8zm4.2 3.6v-.7h-3v-1.7h2.6v-.8h-5.8v.8h2.4v1.7h-2.8v.7h2.8c-.2 1.1-.8 2.3-3.1 3.2l.5.6c2-.8 2.8-2 3.2-3 .6 1.4 1.5 2.4 3 3a3 3 0 0 1 .3-.7c-1.4-.5-2.4-1.6-2.9-3.1zm11.2-3.2v-.9H200v-1.3h-.7v1.4h-4v.7h3.9v1.4h-2.9v4.4h.7V154h2.3v5h.7v-5h2.5v2.8c0 .1 0 .2-.3.2h-1.4l.3.7c.8 0 1.4 0 1.7-.2.3 0 .4-.3.4-.7v-3.5H200v-1.4zm0 0" style="fill:none;stroke:#fff;stroke-width:3;stroke-linecap:butt;stroke-linejoin:round;stroke-miterlimit:10;stroke-opacity:.6" transform=" rotate(  340 186.43 162.188) "/> <g style="fill:#212121;fill-opacity:1" transform=" rotate(  340 186.43 162.188) ">  <use xlink:href="#h" x="164.7" y="158.2"/>  <use xlink:href="#i" x="174.7" y="158.2"/>  <use xlink:href="#j" x="184.7" y="158.2"/>  <use xlink:href="#k" x="194.7" y="158.2"/> </g> <use style="fill:#fdfdfa;fill-opacity:1;fill-rule:nonzero;stroke:#3f3f35;stroke-width:.5;stroke-linecap:butt;stroke-linejoin:miter;stroke-miterlimit:4;stroke-opacity:1" transform="translate(241.15411,229.20068)" xlink:href="#reuse-0"/> <path d="M233 219.9v1.2h-3.1V220zm-3.1 1.8h3.8v-2.5h-4.5v3.6c0 1.4 0 3.2-.7 4.5.2 0 .4.3.5.4.8-1.4.9-3.5.9-5zm3.5 1.4v-.7h-3v.7zm-3 1.9a4.3 4.3 0 0 1-.7 1.9c.1 0 .3.1.4.3.4-.5.9-1.3 1-2zm3.5-.5v-.5H230v.5h1.6v2.8h-1l.2.7 1.1-.1c.3-.1.3-.3.3-.6v-2.8zm-1.1.7.6 1.8.6-.2a7.7 7.7 0 0 0-.7-1.8zm2.7-.1a8.3 8.3 0 0 0-.9-2.3l-.6.2 1 2.3zm2.2-4.1h-.9v-2h-.7v2.2h-2.2v.7h2.1v5.1c0 .2 0 .2-.1.3h-1.3l.4.5h1.4c.3-.1.4-.3.4-.8v-5h1zM247.1 218.9h-.7v3.8l-.2.1h-1.1l.2.6h1.4c.3-.3.4-.4.4-.8zm-2.1.3h-.7v3.2h.7zm-4.2 4.2h.8v-1.6l1.1 1 .4-.4-1.5-1.3h2v-.6h-2.1v-.8l1.7-.4-.5-.3-3.8.4.1.5 1.8-.2v.8h-2v.6h1.7a6 6 0 0 1-1.9 1.7l.5.5c.6-.3 1.2-1 1.7-1.6zm6.8 2.3h-4v-1h2.9v-.4h-2.8v-1.1h-1v1H241l.3-.6-.7-.2a5.4 5.4 0 0 1-1.6 1.9l.7.4.8-1h2.3v1.1h-4v.6h3.9v1.6h.8v-1.6h4zm3.4-2.4h4.4v1.1H251zm4.4-3.3v1H251v-1zm-4.4 1.7h4.4v1H251zm6.6 3.3v-.6h-1.4v-5h-5.9v4.9h-1.5v.8h2.8l-1.6 1.5-.6.3a4 4 0 0 1 .2.8c.4-.2.9-.2 6.4-.5l.7.8.6-.4a17.3 17.3 0 0 0-2.3-2.3l-.7.2 1.2 1.2-4.8.2a14 14 0 0 0 1.8-1.9zm0 0" style="fill:none;stroke:#fff;stroke-width:3;stroke-linecap:butt;stroke-linejoin:round;stroke-miterlimit:10;stroke-opacity:.6" transform=" rotate(  340 244.902 231.199) "/> <g style="fill:#212121;fill-opacity:1" transform=" rotate(  340 244.902 231.199) ">  <use xlink:href="#l" x="228.2" y="227.2"/>  <use xlink:href="#m" x="238.2" y="227.2"/>  <use xlink:href="#g" x="248.2" y="227.2"/> </g> <use style="fill:#fdfdfa;fill-opacity:1;fill-rule:nonzero;stroke:#3f3f35;stroke-width:.5;stroke-linecap:butt;stroke-linejoin:miter;stroke-miterlimit:4;stroke-opacity:1" transform="translate(41.996542,171.80232)" xlink:href="#reuse-0"/> <path d="m33.2 167.5-1.2.2v-1.4h1v-.6h-1V164h-.7v1.7h-.9l.8-2.4H33v-.7h-1.6a20 20 0 0 0 .2-1l-.6-.2c0 .4 0 .8-.3 1.2h-1.2v.7h1l-.3 1.7c-.3.5-.4.8-.6.8l.2.7.7-.2h.8v1.5l-1.9.3.2.7 1.7-.3v2h.7v-2.1l1.2-.4zm2.2 2.1c-.5 0-.6 0-.6-.4v-1.4c1-.4 2-1 2.9-1.7l-.5-.6-2.4 1.5v-1.9h-.7v4.1c0 .9.3 1.1 1.2 1.1H37c1 0 1.1-.4 1.2-1.8l-.7-.2c0 1.1-.1 1.3-.5 1.3zm0-8.2a8.3 8.3 0 0 1-2.7 3.7 2 2 0 0 1 .6.5c1-.8 1.7-1.9 2.4-3 .6 1.2 1.5 2.4 2.3 3a3 3 0 0 1 .6-.6c-1-.7-2-2-2.6-3.1l.2-.3zm11 5.6v2.4h-4.8V167zm-5.6 3.6h.8v-.6h4.8v.5h.8v-4.2h-6.4zm4.4-7.6 1.3 1.2-4.5.2a26 26 0 0 0 1.7-2.7l-.9-.3c-.4 1-1 2.2-1.6 3h-1.5v.9l7.5-.3.7.9.6-.5c-.5-.8-1.7-2-2.7-2.8zm6.7 3h4.4v1h-4.4zm4.4-3.5v1.1h-4.4v-1zm-4.4 1.8h4.4v1h-4.4zm6.5 3.4v-.7H57v-5h-5.8v5h-1.6v.7h2.8l-1.5 1.5-.7.4a4 4 0 0 1 .2.7c.4-.3 1-.3 6.6-.5l.5.8.7-.4a17.3 17.3 0 0 0-2.5-2.2h-.6l1.2 1.3-4.8.2a14 14 0 0 0 1.9-1.8zm0 0" style="fill:none;stroke:#fff;stroke-width:3;stroke-linecap:butt;stroke-linejoin:round;stroke-miterlimit:10;stroke-opacity:.6" transform=" rotate(  340 45.7461 173.801) "/> <g style="fill:#212121;fill-opacity:1" transform=" rotate(  340 45.7461 173.801) ">  <use xlink:href="#n" x="29" y="169.8"/>  <use xlink:href="#o" x="39" y="169.8"/>  <use xlink:href="#g" x="49" y="169.8"/> </g></svg>