<svg xmlns="http://www.w3.org/2000/svg" xmlns:xlink="http://www.w3.org/1999/xlink" viewBox="0 0 497 279"> <defs overflow="visible" style="stroke:none">  <path id="f" d="M2.6-4.5a19.2 19.2 0 0 0-1.8-1L.3-5a17 17 0 0 1 1.9 1.1ZM1.3.6 3-2.6 2.5-3A25.7 25.7 0 0 1 .6.1ZM6.2-5v2.3H4.4V-5Zm.6 3v-3.6H3.7v4.3h.7V-2Zm2.8-5.7H3v.5a27.1 27.1 0 0 0-1.8-1l-.4.5 1.9 1.1.3-.6v.2h5.1v6.7C8-.1 8 0 7.8 0h-2l.3.7L8.3.6c.4-.1.5-.4.5-1V-7h.8Zm0 0"/>  <path id="e" d="M2.8-1.4v-.7h4.5v.7Zm4.5-2v.7H2.8v-.7Zm.8-.5H2V.8h.6V-.9h4.7V0l-.2.2H5.7a3 3 0 0 1 .3.5c.8.1 1.3.1 1.7-.1C8 .6 8 .4 8 0ZM5.3-5.2v-.7h3.1v-.6h-3V-7h3.3v-.7H5.3v-.7h-.7v.7H1.3v.6h3.3v.6h-3v.6h3v.7h-4v.6h8.8v-.6Zm0 0"/>  <path id="g" d="M2.9-3.9h4.4v1.1H2.9Zm4.4-3.3v1H2.9v-1ZM2.9-5.5h4.4v1H2.9Zm6.5 3.4v-.7H8v-5H2.2v4.9H.6v.8h2.8L2-.6l-.8.3a4 4 0 0 1 .2.9C1.8.3 2.4.3 8 0l.5.8.7-.4a17.3 17.3 0 0 0-2.4-2.3l-.8.2L7.3-.5l-4.8.2a14 14 0 0 0 1.9-1.8Zm0 0"/>  <path d="M3-6.3h.7v-.8h2.6v.8H7v-.8h2.4v-.6H7v-.7h-.7v.7H3.7v-.7H3v.7H.6v.6H3Zm2.5 2h2.7v.8H5.5Zm0-1.2h2.7v.7H5.5ZM4.8-3h4v-3h-4ZM2-2.2c.8-.7 1.6-1.6 2.3-2.5l-.6-.4L3-4H1.6A13 13 0 0 0 3-6l-.6-.3a12 12 0 0 1-1.3 2c-.3.2-.4.3-.6.3l.2.8 1.8-.3-1 1c-.5.5-.7.7-.9.7l.3.6c.1-.2.5-.2 3.1-.8v-.5ZM4-1 .6-.2l.1.7 3.4-.8Zm1.1-1H6v2h-.9Zm2 0v2h-.6v-2Zm1.5 0v2h-.9v-2ZM9 0v-2.6H4.5V0h-.7v.5h5.8V0ZM4.6-2.3v.9H2.3v-.9Zm3.2.9H5.3v-.9h2.5ZM5.3 0v-1h2.5v.9Zm-3-1h2.3v.9H2.3ZM1.6.8h.7V.4h5.5v.3h.6v-3.5H1.5Zm6.3-7.2H2.2v.4h5.7Zm-5 1.7h4.2v.7H3ZM8-3.5v-1.8H2.1v2ZM5.2-7.7v-.7h-.6v.7H.8v1.9h.7v-1.3h7v1.3h.7v-1.9ZM1 1.2h8v-10H1Zm4-5.4L1.8-8.3h6.4Zm.3.4 3.2-4v8ZM1.8.7l3.2-4L8.2.6Zm-.3-8.6 3.2 4.1L1.5.3Zm0 0"/>  <path id="d" d="M2.5.1C1.8.1 1.3 0 1-.5.7-.9.5-1.4.5-2c0-.4 0-1 .2-1.3a4 4 0 0 1 .5-1.2c.3-.3.5-.5.9-.8.3-.2.7-.3 1.2-.3.4 0 .7 0 1 .2l.5.7V-5c0-1 0-1.6-.3-2-.3-.5-.6-.7-1.1-.7l-.6.1-.6.2-.2-.7.7-.3h.8c.8-.1 1.4.1 1.8.7.3.7.5 1.5.5 2.7l-.1 1.3c0 .5-.2 1-.4 1.4A5 5 0 0 1 4.7-1c-.3.3-.7.6-1 .8-.3.2-.7.3-1.2.3Zm0-.8c.5 0 .9-.1 1.1-.4l.6-1.1.5-1.5a2.1 2.1 0 0 0-.5-.8C4-4.8 3.7-5 3.4-5c-.4.1-.7.2-1 .5-.2.3-.4.6-.6 1A4 4 0 0 0 1.4-2c.1.3.1.7.4 1 .1.1.3.2.7.2Zm.1 0"/>  <path id="c" d="M2.8.1C2 .1 1.5 0 1.1-.5.7-1 .5-1.5.5-2.3c0-.7.1-1.3.5-1.9 0-.5.5-1 .9-1.3C2.5-5.8 3-6 3.8-6c.5 0 .9.1 1.2.4.5.2.6.6.6 1.1 0 .4-.1.8-.4 1-.3.3-.6.5-1 .5l.6.4c.3.2.4.6.4.9.1.3.1.5-.2.8 0 .3-.4.5-.7.7-.4.2-.9.3-1.5.3ZM1.6-3.3h1.2l1-.1c.2 0 .3-.2.5-.4.3-.1.4-.2.4-.6L4.4-5l-.7-.2c-.7 0-1 .2-1.3.5-.4.3-.6.8-.8 1.4ZM3-.7c.4 0 .8 0 1-.3.3-.2.4-.4.4-.7-.1-.3-.2-.5-.4-.6-.3-.2-.6-.2-1.1-.2H1.5v.2c0 .6.1 1 .4 1.3.1.2.6.3 1 .3Zm0 0"/>  <path id="b" d="M2.7 0C2 0 1.5 0 1.1-.4.7-1 .5-1.5.5-2.2a5 5 0 0 1 .2-1.3c.1-.5.3-.9.6-1.3a3 3 0 0 1 .9-.7C2.6-6 3-6 3.5-6c.7 0 1.2.2 1.5.6.5.4.7 1 .7 1.7 0 .4 0 .9-.2 1.3-.1.5-.3.9-.6 1.4a3 3 0 0 1-.9.8c-.4.2-.8.2-1.3.2Zm0-.6c.5-.1.9-.2 1.1-.5.2-.2.5-.6.6-.9.2-.6.3-1.1.3-1.8l-.1-.7-.4-.5-.7-.2c-.5 0-.8.2-1 .5-.5.2-.7.5-.9.9L1.5-2c0 .3.1.7.3.9.3.3.6.4 1 .4Zm.1-.1"/>  <path id="a" d="m-.6 0 3.2-4.2-1.4-3.7h1l1 3 2.5-2.9h1L3.7-4l1.5 4h-1L3-3.4.5 0Zm0 0"/>  <path d="M1 0v-7.9h4.6V0Zm.6-.6H5v-6.7H1.6Zm0 0"/> </defs> <image xlink:href="svg/8/14_3.jpg" width="497" height="279"/> <path d="m381.4 5.7 3.2-4.2-1.4-3.7h1l1 3 2.4-3h1l-2.9 3.7 1.6 4.2h-1.1L385 2.2l-2.6 3.6zm9.1.1c-.7 0-1.2-.3-1.6-.8-.4-.3-.6-.9-.6-1.5a5 5 0 0 1 .2-1.5c0-.3.3-.7.5-1a3 3 0 0 1 1-1c.2-.2.6-.3 1.1-.3.9 0 1.4.2 1.7.6.4.4.6 1 .6 1.7 0 .4 0 .9-.2 1.3 0 .4-.2.9-.5 1.2a3 3 0 0 1-1 1c-.2 0-.7.2-1.1.2Zm0-1c.5.2.7.2 1-.2l.7-1 .2-1.9v-.5l-.6-.5-.6-.2c-.4 0-.7.1-1 .4-.3.3-.6.6-.7 1.1l-.3 1.5c0 .5.2.8.4 1 .2.4.4.5 1 .5zm6.3 1c-.8 0-1.4-.3-1.8-.8-.3-.3-.5-.9-.5-1.7 0-.7 0-1.3.3-1.8.3-.6.6-1 1-1.3.7-.4 1.2-.5 1.9-.5.5 0 1 0 1.4.3.3.3.5.7.5 1.2 0 .4-.2.7-.6 1l-.9.5c.3 0 .6.2.8.4.1.2.3.5.3.9 0 .2 0 .5-.2.8-.2.2-.4.5-.8.7-.2.2-.8.3-1.4.3zm-1.2-3.5h2.1l.6-.5.3-.5c0-.3 0-.5-.2-.6-.2-.2-.4-.2-.8-.2-.5 0-1 .1-1.3.5-.4.3-.6.7-.7 1.3zm1.3 2.7c.4 0 .8-.1 1-.3.2-.3.4-.5.4-.8 0-.2-.3-.5-.4-.6l-.9-.2h-1.7v.3c.1.5.3 1 .5 1.2.3.2.6.4 1 .4zm5.5.8c-.7 0-1.2-.2-1.5-.6-.3-.4-.5-1-.5-1.6 0-.4 0-.8.2-1.2a4 4 0 0 1 .4-1.2c.3-.4.6-.6 1-.9.3-.2.7-.3 1.2-.3.4 0 .7.1 1 .3l.5.7V.6c0-.9 0-1.5-.3-2-.4-.4-.6-.6-1.1-.6h-.6l-.7.3v-.8l.6-.2.8-.1c.8 0 1.4.3 1.8.8.3.6.5 1.5.5 2.6l-.1 1.4c0 .4-.2 1-.4 1.4a5 5 0 0 1-.6 1.2l-1 .9-1.2.3zm0-.8c.5 0 .8-.2 1.1-.5l.6-1 .5-1.5a2.1 2.1 0 0 0-.6-.9c-.1-.1-.4-.3-.8-.3-.2 0-.6.1-.8.4-.4.2-.6.5-.8 1a4 4 0 0 0-.2 1.4c0 .4 0 .7.2 1 .2.2.5.4.9.4zm.1 0" style="fill:none;stroke:#fff;stroke-width:3;stroke-linecap:butt;stroke-linejoin:round;stroke-miterlimit:10;stroke-opacity:.6" transform="rotate(  340 413.881 130.974) translate(20.062657,128.31741)"/> <g style="fill:#7d577d;fill-opacity:1" transform=" rotate(  340 413.881 130.974) ">  <use xlink:href="#a" x="402" y="134"/>  <use xlink:href="#b" x="407.8" y="134"/>  <use xlink:href="#c" x="414" y="134"/>  <use xlink:href="#d" x="420" y="134"/> </g> <path d="M3.8 2C3.8 3 3 3.8 2 3.8A1.7 1.7 0 1 1 3.8 2zm0 0" style="fill:#fdfdfa;fill-opacity:1;fill-rule:nonzero;stroke:#3f3f35;stroke-width:.5;stroke-linecap:butt;stroke-linejoin:miter;stroke-miterlimit:4;stroke-opacity:1" transform="translate(152.35,50.647102)"/> <path d="M142.1 64.8v-.7h4.6v.7zm4.6-2v.9H142v-.8zm.7-.4h-6V67h.6v-1.6h4.7v.8c0 .1 0 .2-.3.2h-1.3a3 3 0 0 1 .2.6l1.7-.1c.3-.1.4-.3.4-.7zm-2.7-1.3v-.7h3v-.6h-2.9V59h3.4v-.5h-3.5V58h-.7v.5h-3.4v.6h3.4v.7h-3v.6h3v.6h-4v.7h8.7V61zm7.3.6a19.2 19.2 0 0 0-2-1l-.3.6a17 17 0 0 1 1.8 1zm-1.5 5.3 1.9-3.3-.4-.5a25.7 25.7 0 0 1-2.1 3.2zm5.1-5.7v2.3h-2v-2.3zm.5 3v-3.8h-3V65h.6v-.8zm2.8-5.9h-6.4v.7a27.1 27.1 0 0 0-2-1.1l-.2.5 1.7 1.1.5-.4h5V66c-.1.2-.2.2-.5.2h-1.9c.2.2.3.6.3.8 1.1 0 1.9 0 2.2-.2.4 0 .6-.3.6-.8v-6.8h.7zM162.2 62.4h4.4v1h-4.4zm4.4-3.4v1h-4.4v-1zm-4.4 1.7h4.4v1h-4.4zm6.6 3.4v-.7h-1.4v-5h-5.9v5H160v.7h2.8l-1.5 1.5-.7.4a4 4 0 0 1 .2.7l6.4-.4.8.7.5-.3a17.3 17.3 0 0 0-2.4-2.4l-.6.3 1.2 1.1-4.8.2a14 14 0 0 0 1.8-1.8zm0 0" style="fill:none;stroke:#fff;stroke-width:3;stroke-linecap:butt;stroke-linejoin:round;stroke-miterlimit:10;stroke-opacity:.6" transform=" rotate(  340 156.102 52.6484) "/> <g style="fill:#212121;fill-opacity:1" transform=" rotate(  340 156.102 52.6484) ">  <use xlink:href="#e" x="139.4" y="66.2"/>  <use xlink:href="#f" x="149.4" y="66.2"/>  <use xlink:href="#g" x="159.4" y="66.2"/> </g></svg>