<svg xmlns="http://www.w3.org/2000/svg" xmlns:xlink="http://www.w3.org/1999/xlink" viewBox="0 0 497 279"> <defs overflow="visible" style="stroke:none">  <path id="q" d="M1.7-5.4V-3h3v-2.4h.7V0h-.8v-2.4H1.7V0H.8v-5.4Zm0 0"/>  <path id="p" d="M4-5.4h1L2.7-2.8 5.2 0h-1L1.7-2.7V0H.8v-5.4h1v2.6Zm0 0"/>  <path id="o" d="M2.9-5.5c.6 0 1.1.2 1.4.5.3.3.5.7.5 1.3V0h-.6L4-.8c-.3.3-.5.6-.8.8h-1c-.5 0-1 0-1.3-.3C.6-.5.5-.9.5-1.5c0-.5.2-1 .5-1.2.5-.3 1-.5 2-.5h.8v-.3c.2-.5.2-.8-.2-1l-.8-.2H2l-.7.5L1-5l1-.3.9-.2Zm1 2.9h-.8c-.6 0-1 .1-1.4.3-.1.3-.3.5-.3.8 0 .3 0 .5.2.7l.7.2c.5 0 .9-.1 1.2-.4.3-.2.4-.6.4-1Zm.1 0"/>  <path id="n" d="M.6-3.2C.6-4.4.7-5.3 1-6c.4-.6 1-1 1.8-1.2l1.3-.3c.4 0 .8 0 1.1-.2l.2.8-.8.2a31.4 31.4 0 0 0-1.6.2c-.4.1-.8.5-1 .7-.3.4-.4 1-.5 1.8l.5-.5c0-.1.3-.3.6-.3a2 2 0 0 1 .7-.2c.7 0 1.3.2 1.7.7.3.3.5 1 .5 1.7C5.5-2 5.3-1.5 5-1l-.7 1H3c-.7 0-1.3-.2-1.8-.7C.8-1.4.6-2.1.6-3.3ZM3-.6c.5 0 .8-.2 1-.4.4-.3.5-.8.5-1.5 0-.5 0-1-.3-1.3-.2-.2-.5-.5-1-.5l-.8.3-.6.4c-.2.1-.3.3-.3.4v1c0 .2.2.4.3.8 0 .2.2.4.5.6l.7.2Zm0 0"/>  <path id="m" d="m5.5 0-1-2.2H1.9L.9 0H0l2.8-7.2h.8L6.4 0ZM4.3-3l-.8-2.2v-.3l-.3-.4v-.3l-.2.6a8 8 0 0 1 0 .4L2-3Zm0 0"/>  <path d="M1 0v-7.1h4V0Zm.4-.5h3.1v-6.1h-3Zm.1 0"/>  <path id="l" d="M.2 0h-.4v-.8h.7l.5-.8a3 3 0 0 1 .3-.6l.7-.6c-.4.1-.6-.1-.8-.4C1-3.4.9-3.7.9-4c.1-.6.2-1 .6-1.4.5-.3 1-.5 1.8-.5h2.2L4.3 0h-1l.5-2.3h-.7c-.4 0-.6 0-.8.2l-.5.8-.4.7L1 0 .2.1ZM3-3h1l.4-2.1H3c-.3.1-.6.1-.8.3-.2.2-.3.4-.3.8 0 .3.1.5.3.7l.8.2Zm0-.1"/>  <path id="k" d="m-.6 0 3.2-4.2-1.4-3.7h1l1 3 2.5-2.9h1L3.7-4l1.5 4h-1L3-3.4.5 0Zm0 0"/>  <path id="j" d="M2.1.1C1.7.1 1.3 0 1-.4.7-.7.5-1.2.5-1.9l.2-1.6.6-1.3c.3-.4.7-.7 1-.9.2-.2.7-.3 1.1-.3.4 0 .7.1 1 .3l.5.7.5-.9H6L4.8 0H4l.2-1a4 4 0 0 1-1.1.7c-.1.3-.6.3-.9.3Zm.3-.8c.3 0 .6 0 .8-.3a3 3 0 0 0 .8-.8 5 5 0 0 0 .4-1.1l.1-.6V-4c.1-.4.1-.6-.1-1-.4 0-.6-.2-.9-.2-.3 0-.5.2-.8.3l-.6.7-.4 1-.2 1.4c0 .3 0 .6.3.9l.6.1Zm0 0"/>  <path id="i" d="m.3 0 1.2-5.9h1L2-3l2.7-2.9h1.2l-3 3L5 0H3.8l-2-3-.4 3Zm0 0"/>  <path id="h" d="M2 .1c-.3 0-.6-.1-1-.4-.3-.2-.4-.6-.4-1a3 3 0 0 1 0-.6l.1-.4.8-3.6h1l-.8 3.7-.1.7c0 .3 0 .5.2.6l.6.2c.2 0 .5 0 .8-.3l.8-.8.5-1.6.6-2.5H6L4.7 0H4l.1-1c-.2 0-.3.2-.5.4l-.7.5-.8.2Zm0 0"/>  <path id="g" d="M0 0h-.5v-.8H0S.3-.8.5-1l.5-.7.5-1.4.5-1.2.5-1 .7-.4 1-.3H5l.6.3L4.4 0h-1l1.1-5-.2-.2h-.2c-.3.1-.5.1-.7.2-.2.2-.4.5-.5.8l-.6 1.5-.6 1.5-.7 1C.7 0 .4 0 0 0Zm0 0"/>  <path id="f" d="M2.6.1C2 .1 1.5 0 1.1-.5.7-1 .5-1.5.5-2.4A9 9 0 0 1 1-4.9L1.5-6a4 4 0 0 1 .8-1.1c.2-.5.6-.7 1-.8L4-8a19.9 19.9 0 0 1 2.3-.4v.8l-.6.1-1.1.2-.8.2c-.5.2-1 .5-1.2.9-.4.4-.6 1-.8 1.7l.8-.7 1.2-.3c.5 0 1 .2 1.2.5.3.4.4 1 .4 1.5l-.1 1.3L4.8-1c-.2.3-.5.6-.9.8-.3.2-.8.3-1.3.3Zm.1-.8c.4 0 .6 0 .8-.3.3 0 .5-.4.6-.7l.3-.8v-1c.1-.2.1-.6-.1-.8-.2-.3-.5-.4-.8-.4l-.8.2-.6.5-.5.5v1.2c-.1.3-.1.8.1 1.2.3.3.6.4 1.1.4Zm0 0"/>  <path id="e" d="M-.3 2.6h-.4a4 4 0 0 1-.3 0v-1l.3.3h.4c.3-.1.5-.1.7-.3L1 .8l.4-.8-.9-6h1l.4 3.1v.6A34.2 34.2 0 0 1 2-.8l.4-.5a22.7 22.7 0 0 1 .5-1.4l1.7-3.2h1L2 1c-.4.5-.7 1-1 1.2-.2.3-.7.4-1.2.4Zm0 0"/>  <path id="d" d="m.3 0 1.2-6h.9l-.1 1.3.5-.7.6-.4c.3-.2.6-.2.9-.2.4 0 .7 0 1 .4.4.2.6.6.6 1v.6l-.3.4L4.9 0h-1l.6-3.7.2-.4a2 2 0 0 0 0-.4c.1-.4-.2-.7-.7-.7l-.8.3-.8.8-.6 1.6L1.3 0Zm0 0"/>  <path id="c" d="M2.7.1C2.1.1 1.5 0 1.1-.4.7-.8.5-1.4.5-2.1l.2-1.5c.3-.4.4-.9.7-1.2a3 3 0 0 1 1-.9c.2-.2.6-.3 1.1-.3h.9l.6.4-.2.6a4 4 0 0 0-.5-.1h-.7c-.4-.1-.8-.1-1 .2-.5.4-.6.9-.9 1.3-.1.4-.2 1-.2 1.5 0 .4.1.8.5 1.1 0 .2.4.3.9.3l.5-.1c.4 0 .6-.2.8-.3v.9l-.7.2a3 3 0 0 1-.8.1Zm0 0"/>  <path id="b" d="M2.7.1C2 .1 1.5 0 1-.5.7-.9.5-1.5.5-2a4.9 4.9 0 0 1 .8-2.7 3 3 0 0 1 1-1.1c.2-.1.7-.2 1.2-.2s1 .1 1.2.4c.3.2.5.5.5 1 0 .3-.2.6-.4 1-.2.3-.6.6-1.1.8-.5.2-1.2.3-2 .3h-.2v.4c0 .4.1.8.3 1 .3.3.6.4 1 .4l.8-.1c.4 0 .5-.2.8-.3v.8l-.8.3-1 .1Zm-1-3.4L3-3.4l.9-.4c.1-.2.3-.5.3-.7 0-.2 0-.5-.2-.5l-.6-.2c-.3 0-.7.2-1 .5-.4.3-.6.8-.7 1.4Zm0 0"/>  <path id="a" d="M.5 0 2-7.9h2c.7 0 1.3.2 1.7.6.3.4.5.9.5 1.5 0 .8-.2 1.6-.8 2-.6.5-1.5.8-2.6.8H2l-.6 3Zm1.8-3.9h.6c.7 0 1.3-.1 1.7-.4.4-.4.6-.8.6-1.5 0-.4 0-.7-.2-.9-.4-.2-.8-.3-1.3-.3H3Zm0 0"/>  <path d="M1 0v-7.9h4.6V0Zm.6-.6H5v-6.7H1.6Zm0 0"/> </defs> <image xlink:href="svg/8/14_7.jpg" width="497" height="279"/> <path d="m123.7 123.8 1.7-7.9h1.8c.8 0 1.4.2 1.8.6.3.4.5.8.5 1.4 0 1.1-.3 1.6-.9 2.1-.5.6-1.4.8-2.5.8h-.7l-.7 2.9zm1.8-4h.7c.8.1 1.3.1 1.8-.3.3-.4.5-.9.5-1.5 0-.4-.1-.8-.4-1l-1-.1h-1zm6.7 4.1c-.7 0-1.2-.2-1.6-.6-.4-.4-.6-1-.6-1.7a4.9 4.9 0 0 1 .8-2.6 3 3 0 0 1 1-.9c.2-.2.7-.3 1.2-.3s1 0 1.3.2c.1.4.4.7.4 1.1s-.1.9-.4 1c-.2.5-.6.7-1.1.9-.5.1-1.2.2-2 .2h-.2v.4c0 .5.1.8.3 1 .3.4.7.6 1 .6.4-.2.7-.2.9-.3l.8-.3v.8l-1 .4h-.9zm-1-3.5h1.4l.8-.6c.2-.1.3-.3.3-.6 0-.2 0-.2-.2-.5l-.5-.1c-.4 0-.8.1-1 .4-.4.4-.7.8-.8 1.4zm6.5 3.5c-.6 0-1.2-.2-1.6-.6-.4-.3-.6-.9-.6-1.6l.2-1.5c.3-.5.4-1 .7-1.3a3 3 0 0 1 1-.8c.2-.2.6-.3 1.1-.3h.9l.6.2-.2.8a4 4 0 0 0-.5-.1l-.7-.1c-.4 0-.8.1-1 .4-.5.3-.6.6-.9 1-.1.6-.2 1.1-.2 1.7 0 .3.1.7.5 1 0 .2.4.4.9.4l.6-.1.7-.3v.8l-.6.3a3 3 0 0 1-.9 0zm2.6-.1 1.2-6h.9l-.1 1.2.5-.6.6-.5.9-.2c.4 0 .7.3 1 .4.4.3.6.6.6 1.1v.5l-.3.5-.7 3.6h-1l.6-3.8.2-.4a2 2 0 0 0 0-.3c0-.5-.2-.7-.7-.7-.3 0-.5 0-.8.3-.2.1-.5.4-.8.8l-.6 1.5-.5 2.6zm5.7 2.6h-.2a4 4 0 0 1-.5-.1v-.8h.4l.3.2c.3-.1.6-.1.8-.4l.6-.8.4-.5-1-6.1h1.1l.4 2.9v.8a34.3 34.3 0 0 1 0 1.4h.2l.1-.6a22.7 22.7 0 0 1 .7-1.3l1.7-3.2h1l-3.7 6.8c-.3.6-.6 1-1 1.3-.3.3-.7.4-1.2.4zm8.1-2.5c-.6 0-1.1-.2-1.5-.7-.4-.4-.6-1-.6-1.8a9 9 0 0 1 .4-2.5l.6-1.3a4 4 0 0 1 .7-1l1.1-.7.6-.1a19.9 19.9 0 0 1 2.4-.5v.8l-.6.2c-.5 0-.8 0-1.2.2l-.7.2c-.5.1-1 .3-1.3.9-.3.4-.5 1-.7 1.7l.8-.7c.4-.2.7-.3 1.2-.3s1 .2 1.2.5c.3.3.5.8.5 1.5l-.2 1.3-.5 1.1c-.3.4-.5.7-.9.9-.3.2-.8.3-1.3.3zm.1-.9c.4 0 .6 0 .8-.2l.6-.7.3-.9v-.8c.1-.5.1-.8-.2-1-.1-.2-.4-.3-.7-.3-.2-.1-.5-.1-.8.2l-.6.5-.6.5v1.1c0 .6 0 .9.2 1.2.3.4.6.5 1.1.5zm3.3.8h-.5v-.9h1l.5-.9.5-1.3.4-1.3.6-.9.7-.5 1-.2h.9l.4.2-1 5.8h-1.1l1.1-5.1h-1.1c-.2.3-.4.5-.5.9l-.6 1.4-.6 1.6-.7 1-1 .1zm8.1.1c-.6 0-.9-.2-1.1-.4-.3-.3-.5-.6-.5-1.1a3 3 0 0 1 0-.5v-.4l1-3.6h1l-.9 3.7-.1.7.2.6.6.1c.3 0 .5 0 .8-.2l.8-.8c.3-.4.6-1 .6-1.6l.6-2.5h1l-1.4 5.9h-.7l.1-1.1-.6.5-.6.5-.8.2zm4.6-.1 1.2-6h1l-.6 3 2.6-2.9h1.3l-2.9 2.9 2 3h-1.2l-1.9-3-.6 3zm7.1.1c-.5 0-.8-.2-1.1-.5-.3-.4-.5-.9-.5-1.5s0-1.1.3-1.6l.5-1.3 1-1 1-.1c.5-.1.8-.1 1.1.1l.4.8.6-1h.6l-1.2 6.1h-.8l.2-1.2a4 4 0 0 1-1.1.8c-.2.2-.6.5-.9.5zm.3-.9c.4 0 .6 0 .8-.2a3 3 0 0 0 .7-.8 5 5 0 0 0 .5-1.2l.1-.6v-.5c.1-.3.1-.6-.1-.7-.3-.3-.6-.4-.9-.4-.3 0-.5 0-.8.2l-.6.8-.5 1-.1 1.4c0 .3 0 .6.2.8.2.2.4.2.7.2zm-46.2 14.1 3.2-4.1-1.4-3.7h1l1 3 2.4-3h1l-3 3.7 1.7 4.1h-1.1l-1.2-3.4-2.6 3.4zm8.5.2c-.5 0-.9-.3-1.2-.6-.3-.3-.4-.7-.4-1.4 0-.6 0-1.1.2-1.6.1-.5.3-1 .5-1.3.3-.4.6-.7 1-1 .3-.1.7-.2 1.2-.2.3-.1.7 0 .8.3l.6.7h.1l.3-1h.8l-1.3 6.1h-.7l.1-1.3a4 4 0 0 1-1 1c-.2 0-.5.3-.9.3zm.3-.9.8-.2a3 3 0 0 0 .7-.8 5 5 0 0 0 .5-1.2v-.6l.2-.5c-.1-.3-.1-.6-.4-.8-.2-.3-.4-.3-.8-.3-.2 0-.5 0-.7.2-.3.2-.5.4-.7.8l-.4 1-.2 1.3c0 .4.1.7.3.9.1.2.4.3.7.3zm4.1.7 1.2-5.8h1l-.6 2.7 2.7-2.7h1.2l-2.8 2.9 2 3h-1.3l-1.7-3.1-.7 3.1zm7.2.2c-.5 0-.9-.3-1.2-.6-.3-.3-.4-.7-.4-1.4 0-.6 0-1.1.1-1.6.2-.5.4-1 .7-1.3.2-.4.5-.7.9-1 .3-.1.7-.2 1.2-.2.2-.1.5 0 .9.3l.5.7h.1l.3-1h.8l-1.4 6.1h-.6l.1-1.3a4 4 0 0 1-1 1c-.2 0-.5.3-.9.3zm.3-.9.8-.2a3 3 0 0 0 .7-.8 5 5 0 0 0 .5-1.2v-.6l.2-.5c0-.3-.2-.6-.4-.8-.2-.3-.4-.3-.8-.3-.2 0-.5 0-.8.2l-.6.8-.4 1-.2 1.3c0 .4.2.7.3.9.1.2.4.3.7.3zm6.5.9c-.7 0-1.3-.3-1.6-.6-.4-.4-.6-1-.6-1.7 0-.5 0-1 .2-1.4l.7-1.3a3 3 0 0 1 1-.8c.3-.3.7-.5 1.2-.5l.7.2.8.2-.3.8a4 4 0 0 0-.6-.2h-.6c-.4 0-.8 0-1.1.4-.3.3-.6.6-.7 1.1l-.4 1.5c0 .5.2.8.4 1 .3.4.6.6 1 .6.2-.1.5-.1.6-.3l.8-.2v.8l-.7.2a3 3 0 0 1-.8.2zm4.3 0c-.4 0-.8-.3-1-.5-.3-.2-.4-.5-.4-1a3 3 0 0 1 0-.5v-.5l1-3.6h.8l-.9 3.8v.7l.1.6.8.1c.2.1.4 0 .7-.2.3-.2.6-.5.8-.9.3-.3.5-.9.6-1.5l.6-2.6h1l-1.4 6.1h-.7V136l-.5.6-.6.4-.9.3zm4.6-.1h-.5v-.9h.3c.2.1.3.1.5-.1l.4-.7a3 3 0 0 1 .4-.5c.1-.3.3-.4.6-.5-.4-.1-.6-.3-.9-.5v-1c-.1-.4 0-.9.4-1.2.4-.4 1-.6 1.8-.6h2.2l-1.2 6h-1l.5-2.5h-.7c-.3.1-.6.3-.7.4-.3.1-.4.4-.5.7l-.5.8c0 .2-.2.3-.3.4l-.8.2zm2.7-3.2h1.1l.3-2H170c-.4 0-.7.3-.9.4-.1.1-.3.4-.3.7 0 .3.2.6.3.7l.9.2zm.1 0" style="fill:none;stroke:#fff;stroke-width:3;stroke-linecap:butt;stroke-linejoin:round;stroke-miterlimit:10;stroke-opacity:.6" transform="rotate(  340 171.568 142.914) translate(19.226713,15.464965)"/> <g style="fill:#7d577d;fill-opacity:1" transform=" rotate(  340 171.568 142.914) ">  <use xlink:href="#a" x="142.5" y="139.2"/>  <use xlink:href="#b" x="148.7" y="139.2"/>  <use xlink:href="#c" x="154.2" y="139.2"/>  <use xlink:href="#d" x="159.2" y="139.2"/>  <use xlink:href="#e" x="165.6" y="139.2"/>  <use xlink:href="#f" x="170.7" y="139.2"/>  <use xlink:href="#g" x="176.7" y="139.2"/>  <use xlink:href="#h" x="182.7" y="139.2"/>  <use xlink:href="#i" x="189.1" y="139.2"/>  <use xlink:href="#j" x="194.4" y="139.2"/>  <use xlink:href="#k" x="151.2" y="152.6"/>  <use xlink:href="#j" x="157" y="152.6"/>  <use xlink:href="#i" x="163.2" y="152.6"/>  <use xlink:href="#j" x="168.6" y="152.6"/>  <use xlink:href="#c" x="174.8" y="152.6"/>  <use xlink:href="#h" x="179.8" y="152.6"/>  <use xlink:href="#l" x="186.2" y="152.6"/> </g> <path d="M3.8 2C3.8 3 3 3.8 2 3.8A1.7 1.7 0 1 1 3.8 2zm0 0" style="fill:#fdfdfa;fill-opacity:1;fill-rule:nonzero;stroke:#3f3f35;stroke-width:.5;stroke-linecap:butt;stroke-linejoin:miter;stroke-miterlimit:4;stroke-opacity:1" transform="translate(258.23762,72.460034)"/> <path d="m248 86.1-.7-2.1h-2.9l-.9 2.1h-.9l2.8-7.1h.8l2.8 7zm-1-3-1-2.1v-.3l-.2-.5V80l-.2.5a8 8 0 0 1-.1.5l-.8 2zm2.6-.1c0-1.4.1-2.3.4-2.9.4-.6 1-.9 1.8-1.2l1.3-.2 1.1-.2.2.8h-.8a31.4 31.4 0 0 0-1.6.5c-.4-.1-.8.2-1 .6-.4.3-.5.9-.6 1.6l.6-.4.6-.3a2 2 0 0 1 .7-.1c.7 0 1.3.2 1.7.6.3.5.4 1 .4 1.8 0 .6 0 1-.3 1.4-.1.5-.5.8-.8 1l-1.3.2c-.7 0-1.3-.2-1.8-.8-.4-.6-.6-1.4-.6-2.5zm2.4 2.4c.5.1.8 0 1-.3.4-.3.5-.8.5-1.4 0-.7 0-1-.3-1.3-.2-.4-.5-.5-1-.5-.3 0-.6 0-.8.1l-.6.5-.3.5v1c0 .2.2.5.3.7 0 .3.2.5.5.6l.7.2zm5.9-4.7c.6 0 1.1.1 1.4.3.3.4.5 1 .5 1.5V86h-.8v-.6l-.9.6c-.2.2-.5.2-.9.2-.6 0-1.1 0-1.4-.2-.2-.4-.4-.8-.4-1.3 0-.7.2-1 .7-1.3.4-.3.9-.4 1.9-.4h.8v-.4c.2-.6.2-.8-.2-1l-.8-.1h-.8l-.7.3-.3-.6 1-.4.9-.1zm1 2.8h-.8c-.6 0-1.1.2-1.4.5-.2 0-.3.3-.3.7 0 .3 0 .5.2.6.2.2.5.2.7.2.5 0 .9 0 1.2-.3.3-.3.4-.7.4-1.2zM264.6 80.8h1l-2.3 2.6 2.5 2.6h-1l-2.5-2.6v2.7h-.9v-5.3h1v2.6Zm4.2-.1c.6 0 1.1.1 1.4.3.3.4.5 1 .5 1.5V86h-.7v-.6l-1 .6c-.2.2-.5.2-1 .2s-1 0-1.3-.2c-.2-.4-.4-.8-.4-1.3 0-.7.2-1 .7-1.3.4-.3 1-.4 2-.4h.7v-.4c.1-.6.1-.8-.2-1l-.8-.1h-.7l-.8.3-.3-.6.9-.4 1-.1zm1 2.8h-.8c-.6 0-1 .2-1.4.5-.2 0-.3.3-.3.7 0 .3 0 .5.2.6.2.2.5.2.7.2.5 0 .9 0 1.2-.3.3-.3.4-.7.4-1.2zm3.4-2.7V83h3v-2.2h.8V86h-.9v-2.2h-2.9V86h-.9v-5.2Zm0 0" style="fill:none;stroke:#fff;stroke-width:3;stroke-linecap:butt;stroke-linejoin:round;stroke-miterlimit:10;stroke-opacity:.6" transform=" rotate(  340 261.988 74.4609) "/> <g style="fill:#212121;fill-opacity:1" transform=" rotate(  340 261.988 74.4609) ">  <use xlink:href="#m" x="242.6" y="86.1"/>  <use xlink:href="#n" x="249" y="86.1"/>  <use xlink:href="#o" x="255" y="86.1"/>  <use xlink:href="#p" x="260.6" y="86.1"/>  <use xlink:href="#o" x="265.9" y="86.1"/>  <use xlink:href="#q" x="271.5" y="86.1"/> </g></svg>