<svg xmlns="http://www.w3.org/2000/svg" xmlns:xlink="http://www.w3.org/1999/xlink" viewBox="0 0 497 279"> <defs overflow="visible" style="stroke:none">  <path id="f" d="m-.3 2.9 2-9.3h.9l-.2 1.2a5 5 0 0 1 1.1-1 2 2 0 0 1 1.1-.3c.5 0 1 .1 1.4.5.2.4.4 1 .4 1.7 0 .5-.1 1.1-.4 1.6 0 .7-.2 1-.5 1.5l-1 1c-.4.2-.8.2-1.3.2-.4.1-.8.1-1-.2a2.3 2.3 0 0 1-.6-.8A12.4 12.4 0 0 1 1.3.1L.8 3ZM3.1-.7c.4-.1.7-.3 1-.4l.5-.8.5-1.1.2-1.4c0-.8-.4-1.3-1-1.3l-.9.3-.7.8L2-3.4V-2c0 .3 0 .7.2.9.2.1.5.4 1 .4Zm0-.1"/>  <path id="e" d="M2.8.1C2.2.1 1.7 0 1.3-.3 1-.6.7-1.1.7-1.7a5 5 0 0 1 .1-.6l.2-.6.6-3.5h1.1l-.6 2.8.6-.1h.7c.6-.1 1.1-.1 1.4.3.4.3.5.8.5 1.3 0 .4 0 .8-.2 1.1a2 2 0 0 1-.8.8c-.4.2-.9.3-1.5.3ZM6 0l1.3-6.4h1L7 0ZM2.9-.8c.5 0 .9 0 1-.2.4-.4.5-.7.5-1-.1-.3-.2-.6-.4-.7C3.8-3 3.5-3 3-3a6 6 0 0 0-.4 0 7 7 0 0 0-.7.2v.6l-.2.4c.1.3.1.6.3.8.2.2.5.3 1 .3Zm0 0"/>  <path id="d" d="m.3 0 1.4-6.4h1.4l.6 5 3-4.9H8L6.7 0h-1l.9-3.7A27.2 27.2 0 0 1 7-5.4L4 0H3l-.5-5.4-.4.8-.1 1L1.3 0Zm0 0"/>  <path id="c" d="M4.3-7.3c-.7 0-1.2-.1-1.3-.4-.4-.2-.6-.6-.6-1v-.4h1.1v.3c-.1.2-.1.4.1.6l.8.2c.3 0 .6-.1.9-.3.2 0 .4-.4.5-.7h1c-.1.4-.4.9-.7 1.2-.4.4-1.1.5-1.8.5ZM2.3.1C1.8.1 1.3 0 1-.3.8-.6.7-1 .7-1.5V-2l.1-.5.8-4h1.1l-.9 4.2a4 4 0 0 0 0 .7v.6c.3.2.5.3.8.3l.8-.3c.4-.2.7-.5 1-1L5-3.7l.6-2.7h1L5.2 0h-.8l.1-1.2-.7.6-.6.6a2 2 0 0 1-1 .1Zm0 0"/>  <path id="b" d="M2.3.1c-.5 0-1-.1-1.2-.5-.4-.4-.5-1-.5-1.7 0-.6 0-1.1.2-1.7l.7-1.4 1-1c.3-.2.8-.3 1.2-.3.5 0 .8 0 1 .3l.8.8.3-1h.8L5.2 0h-.8l.1-1.2-1 1a2 2 0 0 1-1.2.2Zm.4-.8c.3-.1.5-.3.8-.4.3-.2.6-.5.8-.9l.5-1.2.2-.6v-.6c0-.3-.1-.6-.3-.9-.2-.2-.5-.4-.9-.4-.3 0-.6.1-.8.3l-.7.8-.5 1.2L1.7-2c0 .4 0 .7.2 1 .2 0 .4.2.8.2Zm0-.1"/>  <path id="a" d="m1.8 0 1.6-7.6H1.1l.2-1H7l-.1 1H4.5L3 0Zm0 0"/>  <path d="M1.1 0v-8.6h5V0Zm.6-.6h3.8V-8H1.7Zm0 0"/> </defs> <image xlink:href="svg/8/16_25.jpg" width="497" height="279"/> <path d="m179.2 110.7 1.6-7.6h-2.3l.2-1h5.8l-.2 1.1h-2.4l-1.6 7.5Zm6.5.2c-.5 0-.9-.2-1.2-.6-.3-.4-.5-1-.5-1.6 0-.7 0-1.2.2-1.7l.8-1.5.9-1c.4-.2.8-.3 1.3-.3.4 0 .7.1 1 .3l.6.8.4-1h.8l-1.3 6.4h-.9l.2-1.2-1 1a2 2 0 0 1-1.3.4Zm.4-1c.3.1.6.1.9-.1l.7-1.1.6-1.1v-.6l.2-.6c-.1-.4-.2-.7-.4-1-.2-.2-.5-.3-.8-.3-.3-.1-.6-.1-1 .3l-.5.8-.6 1.1-.1 1.4c-.1.3-.1.7.2 1 .2.2.5.3.8.3Zm8.5-6.4c-.7 0-1.2-.2-1.6-.5-.2-.2-.3-.6-.3-1v-.5h1l-.2.5c.1.2.1.4.3.5l.8.2c.4 0 .7 0 1-.2.1-.2.2-.5.4-.9h1c0 .6-.3 1-.7 1.4-.4.3-1 .5-1.7.5Zm-2.1 7.4c-.5 0-.9-.2-1.2-.4-.3-.3-.3-.7-.3-1.2v-1.1l1-3.9h.9l-.8 4a4 4 0 0 0-.1.9c0 .2 0 .4.2.6l.6.2.9-.3c.3-.2.6-.5.9-1 .2-.3.4-.9.6-1.5l.6-2.9h1l-1.3 6.4h-.9l.1-1.2-.7.6-.6.6a2 2 0 0 1-.9.2Zm5-.2 1.5-6.4h1.3l.6 5.1 2.9-5h1.4l-1.2 6.2h-1.1l.8-3.6a27.2 27.2 0 0 1 .5-1.7l-3.1 5.4h-1l-.5-5.4-.2.8-.2 1-.8 3.6Zm10.9.2c-.6 0-1.1-.2-1.5-.5-.4-.3-.6-.8-.6-1.4a5 5 0 0 1 0-.5l.2-.6.7-3.6h1l-.4 2.8.5-.1h.7c.6 0 1 0 1.4.4.3.3.6.6.6 1.2 0 .4 0 .8-.4 1.2a2 2 0 0 1-.8.7c-.3.3-.8.4-1.4.4Zm3.1-.2 1.5-6.4h.9l-1.2 6.4Zm-3-.7c.5 0 .8-.1 1-.4.3-.2.5-.5.5-.8-.1-.5-.2-.6-.4-.8l-1-.2a6 6 0 0 0-.4 0 7 7 0 0 0-.7.2l-.1.5v.5c0 .2 0 .5.2.7.2.2.5.3.9.3Zm5.5 3.6 2-9.3h1l-.3 1.2a5 5 0 0 1 1.1-1 2 2 0 0 1 1.2-.2c.5-.1 1 .1 1.2.4.3.5.5 1.1.5 1.8 0 .5-.1 1-.3 1.5-.1.6-.3 1-.6 1.5-.2.5-.6.8-1 1-.3.2-.8.4-1.3.4-.4 0-.8-.2-1-.4a2.3 2.3 0 0 1-.6-.8 12.4 12.4 0 0 1-.3 1.1l-.6 2.8Zm3.4-3.6c.4 0 .7-.1 1-.3l.6-.9.4-1.1.2-1.3c0-.9-.3-1.4-1-1.4-.3 0-.6 0-.9.4-.2.2-.5.4-.7.8l-.6 1.1-.2 1.4c0 .3.1.7.3 1 .2.1.5.3 1 .3Zm0 0" style="fill:none;stroke-width:2;stroke-linecap:butt;stroke-linejoin:round;stroke:#fff;stroke-opacity:.6;stroke-miterlimit:10" transform=" rotate(  340 198.865 107.733) "/> <g style="fill:#4d80b3;fill-opacity:1" transform=" rotate(  340 198.865 107.733) ">  <use xlink:href="#a" x="177.4" y="110.7"/>  <use xlink:href="#b" x="183.4" y="110.7"/>  <use xlink:href="#c" x="190.2" y="110.7"/>  <use xlink:href="#d" x="197.2" y="110.7"/>  <use xlink:href="#e" x="205.6" y="110.7"/>  <use xlink:href="#f" x="214.3" y="110.7"/> </g></svg>