<svg xmlns="http://www.w3.org/2000/svg" xmlns:xlink="http://www.w3.org/1999/xlink" viewBox="0 0 497 279"> <defs overflow="visible" style="stroke:none">  <path id="i" d="m-.2 2.4 1.6-7.8h.7v1l.7-.6c.3-.3.7-.5 1-.5.5 0 .8.2 1 .5.5.3.6.8.6 1.4-.1.5-.1 1-.3 1.4L4.6-1l-.8.8a2 2 0 0 1-1.1.3C2.3 0 2 0 1.8-.2a2 2 0 0 1-.5-.6v.4L1 .1.7 2.4Zm2.8-3c.4 0 .5-.1.7-.4.3 0 .5-.3.7-.6a4 4 0 0 0 .3-1 5 5 0 0 0 .1-.9c0-.9-.3-1.2-.9-1.2-.2 0-.4 0-.5.2l-.8.7-.4 1c-.2.3-.2.7-.2 1.1 0 .3 0 .6.2.8.2.2.5.3.8.3Zm0 0"/>  <path id="h" d="M-.3 2.4h-.3l-.4-.1v-.7h.7c.3.1.5.1.7-.1.2-.2.4-.5.5-.8l.4-.6-.8-5.5h.9l.3 2.7v.7l.2.7v.6A28.4 28.4 0 0 1 2.5-2c-.1 0 .1-.3.2-.4l1.5-3h1L1.7 1c-.1.4-.4.8-.7 1-.4.3-.8.4-1.2.4Zm0 0"/>  <path id="g" d="m.3 0 1.1-5.4h.9L1.8-3h2.5l.5-2.4h.9L4.6 0h-1l.7-2.4H1.7L1.2 0Zm0 0"/>  <path id="f" d="M0 0h-.4v-.8l.3.1C0-.7.3-.7.4-.9l.6-.7.3-1.2.5-1.1.4-.9.8-.5h1a4.5 4.5 0 0 1 1 .1L4 0h-.9l1-4.6h-1l-.5.8-.5 1.3L1.5-1c-.1.3-.3.6-.5.8C.7 0 .4 0 0 0Zm0 0"/>  <path id="e" d="M2 0H1L.5-.5C.3-.7.2-.9.2-1.3c.1-.3.1-.6.4-.7l.6-.7L2-3a6 6 0 0 0 1-.5c.3-.2.4-.5.4-.7l-.1-.4-.7-.1a3 3 0 0 0-.7 0c-.2.3-.5.3-.7.4L1-5l.8-.3 1-.2c.4 0 .8.1 1 .3.4.2.6.6.6 1-.1.3-.1.6-.4.8a2 2 0 0 1-.6.4l-.8.5c-.3 0-.5.2-.8.3l-.5.4-.2.5c0 .2.1.3.3.5l.6.2c.4 0 .6 0 1-.2l.6-.2v.7L3 0a4 4 0 0 1-1.1 0Zm0 0"/>  <path id="d" d="M2.5 0C1.9 0 1.4 0 1-.3.7-.7.5-1.2.5-2c0-.4 0-1 .2-1.3l.5-1c.3-.5.6-.7 1-1 .2-.1.6-.2.9-.2l.9.1.6.2-.2.7-.5-.1-.6-.1c-.4 0-.7.1-1 .4-.3.2-.5.6-.7 1A4 4 0 0 0 1.4-2c0 .5 0 .8.3 1 .2.2.5.3.9.3h.6a7 7 0 0 0 .6-.3v.8l-.6.2h-.7Zm0 0"/>  <path id="c" d="M2.6 0C1.9 0 1.3 0 1-.4.6-.9.5-1.5.5-2.1c0-.6 0-1.2.3-1.7.2-.5.6-1 1-1.2.4-.3 1-.5 1.5-.5.7 0 1 .2 1.4.5.3 0 .3.5.3.9s0 .7-.3 1.1l-1 .2c.5.1.7.3.9.5.1.2.2.3.2.8l-.2.7c-.2.3-.4.5-.7.6-.3.2-.9.3-1.3.3ZM1.5-3h1l1-.1.5-.3c.2-.2.2-.4.2-.6 0-.2 0-.4-.2-.5l-.7-.2c-.3 0-.8.1-1.2.4-.3.3-.5.7-.6 1.3ZM2.7-.6c.3 0 .7-.1 1-.4l.1-.6C4-1.8 4-2 3.6-2l-1-.3H1.4v.2c0 .5 0 .9.3 1.1.3.3.6.4 1 .4Zm0 0"/>  <path id="b" d="M2.5 0C1.9 0 1.4 0 1-.4.7-.8.5-1.3.5-2l.1-1.2a4 4 0 0 1 .5-1.1c.3-.3.5-.7.9-.8.3-.2.7-.3 1.2-.3.6 0 1.1.2 1.5.4.3.5.5 1 .5 1.6 0 .4 0 .8-.2 1.2a4 4 0 0 1-.5 1.1c-.2.4-.5.7-.8.9L2.5 0Zm-1-3h2.8v-.5L4-4.4c-.2-.2-.5-.3-.8-.3-.4 0-.8.1-1 .5-.4.2-.6.6-.8.9Zm1 2.4c.5 0 .7-.2 1-.5.3-.3.5-.7.7-1.3H1.4v.5c0 .4 0 .7.3.9.2.1.5.3.8.3Zm0 0"/>  <path id="a" d="m-.5 0 2.9-3.8L1-7h1.1L3-4.4l2-2.7h1.1L3.4-3.7 4.7 0h-.9l-1-3L.5 0Zm0 0"/>  <path d="M1 0v-7.1h4V0Zm.4-.5h3.1v-6.1h-3Zm.1 0"/> </defs> <image xlink:href="svg/8/16_6.jpg" width="497" height="279"/> <path d="m144 231.3 2.9-3.8-1.3-3.4h1l.8 2.9 2.2-3h1l-2.7 3.5 1.3 3.8h-.9l-1-3.1-2.3 3Zm8.3.1c-.7 0-1.3-.2-1.5-.6-.4-.4-.5-.8-.5-1.5l.1-1.3a4 4 0 0 1 .6-1c.1-.4.4-.6.8-.8.2-.3.7-.4 1.1-.4.7 0 1.2.2 1.5.6.4.4.6.9.6 1.4l-.2 1.3a4 4 0 0 1-.5 1.1c-.3.4-.5.6-.9.8-.3.3-.7.4-1.1.4Zm-1-3.2h2.7v-.4c0-.4 0-.7-.1-.8-.3-.3-.6-.4-1-.4s-.7.1-.9.4c-.4.3-.6.7-.7 1.2Zm1 2.4c.4 0 .7-.1 1-.4.3-.3.5-.8.6-1.3h-2.7v.4c-.1.4-.1.8.1 1 .3.2.7.3 1 .3Zm5.7.8c-.8 0-1.3-.2-1.6-.6-.4-.4-.5-1-.5-1.6 0-.7 0-1.2.3-1.7.2-.5.6-1 1-1.2.4-.3 1-.5 1.5-.5.6 0 1 .2 1.4.4.3.2.4.5.4 1 0 .4-.1.7-.4 1l-1 .3c.5.1.7.3.9.5 0 0 .2.4.2.7l-.2.8c-.2.2-.4.5-.7.5-.3.3-.8.4-1.3.4Zm-1.1-3.2h1.9l.6-.3c.2-.2.2-.4.2-.6 0-.3 0-.4-.2-.5-.1-.2-.4-.2-.7-.2-.4 0-.7.1-1.2.4-.3.3-.5.7-.5 1.2Zm1.1 2.5c.5 0 .8-.1 1-.3l.2-.7c.1-.2.1-.4-.2-.5-.2-.2-.5-.2-1-.2h-1.2v.2c0 .5 0 .9.2 1.1.3.2.7.4 1.1.4Zm5.3.7c-.6 0-1.1-.2-1.5-.5-.3-.4-.5-.9-.5-1.5 0-.5 0-1 .2-1.4l.5-1 1-1c.2 0 .6-.2 1-.2l.9.2.5.1-.2.7-.5-.2h-.7c-.3 0-.6 0-.9.3l-.7 1.1a4 4 0 0 0-.2 1.5c0 .3 0 .5.3.9.2 0 .5.2.9.2h.6a7 7 0 0 0 .7-.3v.8l-.7.2h-.7Zm4 0c-.3 0-.6 0-.8-.2-.3 0-.5-.2-.7-.4l-.2-.8c0-.3 0-.6.3-.8.1-.3.4-.4.6-.6l.9-.4a6 6 0 0 0 1-.4c.2-.2.3-.4.3-.8l-.1-.3-.6-.1a3 3 0 0 0-.8 0l-.7.4-.2-.8.8-.2h1c.5-.2.9-.2 1.1 0 .3.3.4.6.4 1.1 0 .3 0 .5-.2.8a2 2 0 0 1-.6.5l-.8.3-.8.4c-.3-.1-.4.2-.5.3-.2.2-.2.3-.2.6 0 .2 0 .3.2.5l.7.2c.3 0 .6 0 .8-.2.3 0 .5-.2.8-.3v.8l-.8.3a4 4 0 0 1-.9 0Zm5.1 0c-.6 0-1-.2-1.4-.6-.4-.4-.6-.8-.6-1.5 0-.4 0-.8.2-1.3a4 4 0 0 1 .4-1c.3-.4.6-.6.9-.8.4-.3.7-.4 1.2-.4.7 0 1.2.2 1.5.6.3.4.5.9.5 1.4 0 .4 0 .9-.1 1.3a4 4 0 0 1-.6 1.1c-.2.4-.4.6-.8.8-.3.3-.7.4-1.2.4Zm-1-3.2h2.9v-.4c-.1-.4-.1-.7-.3-.8-.3-.3-.5-.4-.9-.4s-.7.1-1 .4c-.3.3-.5.7-.6 1.2Zm1.1 2.4c.4 0 .8-.1 1-.4.4-.3.5-.8.7-1.3h-2.9v.4c0 .4.1.8.3 1 .2.2.5.3.9.3Zm3 .7h-.4v-.8H176l.4-.8.6-1.2.3-1.2.5-.8.7-.5h1a4.5 4.5 0 0 1 1.1 0l-1 5.3h-1l1.1-4.6h-1.1l-.4.8-.5 1.3-.7 1.4-.5.8-1 .3Zm-23 11.9 1.1-5.2h.9l-.5 2h2.5l.5-2.1h1l-1.2 5.3h-1l.7-2.4h-2.6l-.6 2.4Zm5.5 2.4h-.8v-.9h.4l.3.3c.3 0 .5 0 .7-.3l.4-.8.5-.6-.8-5.4h.9l.3 2.6v.7l.1.8v.5a28.4 28.4 0 0 1 .7-1.1l.1-.6 1.6-3h1l-3.6 6.4c-.1.4-.4.8-.7 1.1-.3.1-.7.3-1.2.3Zm4.6 0h-.6v-.9h.2l.4.3c.2 0 .4 0 .7-.3l.5-.8.4-.6-.9-5.4h1l.2 2.6v1.5l.3.5a28.4 28.4 0 0 1 .4-1.1l.3-.6 1.6-3h.9l-3.5 6.4-.7 1.1c-.4.1-.8.3-1.2.3Zm4.7 0 1.7-7.6h.7l-.2.9 1-.9c.2-.1.5-.2.9-.2s.8.1 1 .4c.3.3.4.8.4 1.4 0 .4 0 1-.2 1.4 0 .4-.2.9-.5 1.2l-.8.8a2 2 0 0 1-1 .3c-.5 0-.8 0-1.1-.3a2 2 0 0 1-.4-.6v.4l-.1.5-.5 2.3Zm2.9-3c.2 0 .5 0 .7-.3l.6-.6a4 4 0 0 0 .3-1 5 5 0 0 0 .2-1.1c0-.7-.4-1.1-.9-1.1-.2 0-.5 0-.7.3l-.6.5-.5 1.1-.2 1.1c0 .3.1.6.3.8.1.2.4.3.8.3Zm0 0" style="fill:none;stroke-width:2;stroke-linecap:butt;stroke-linejoin:round;stroke:#fff;stroke-opacity:.6;stroke-miterlimit:10" transform=" rotate(  340 162.763 234.247) "/> <g style="fill:#4d80b3;fill-opacity:1" transform=" rotate(  340 162.763 234.247) ">  <use xlink:href="#a" x="144.5" y="231.3"/>  <use xlink:href="#b" x="149.8" y="231.3"/>  <use xlink:href="#c" x="155.4" y="231.3"/>  <use xlink:href="#d" x="160.8" y="231.3"/>  <use xlink:href="#e" x="165.3" y="231.3"/>  <use xlink:href="#b" x="169.9" y="231.3"/>  <use xlink:href="#f" x="175.6" y="231.3"/>  <use xlink:href="#g" x="152.2" y="243.2"/>  <use xlink:href="#h" x="158.2" y="243.2"/>  <use xlink:href="#h" x="162.9" y="243.2"/>  <use xlink:href="#i" x="167.5" y="243.2"/> </g></svg>