<svg xmlns="http://www.w3.org/2000/svg" xmlns:xlink="http://www.w3.org/1999/xlink" viewBox="0 0 497 279"> <defs>  <path d="M3.8 2C3.8 3 3 3.8 2 3.8A1.7 1.7 0 1 1 3.8 2zm0 0" style="fill:#fdfdfa;fill-opacity:1;fill-rule:nonzero;stroke:#3f3f35;stroke-width:.5;stroke-linecap:butt;stroke-linejoin:miter;stroke-miterlimit:4;stroke-opacity:1" id="reuse-0"/> </defs> <defs overflow="visible" style="stroke:none">  <path d="M3.5-.9C3-.5 1.6 0 .6.2l.5.6C2.1.5 3.4 0 4.2-.5ZM6-.4C7 0 8.2.4 9 .8l.3-.5C8.7-.1 7.4-.5 6.4-1ZM3.8-6.8h2.4v1H3.8ZM7.7-4v1H5.4v-1Zm0 2.4H5.4v-1h2.3Zm-5.3-1h2.2v1.1H2.4Zm0-1.2h2.2v.8H2.4ZM7-6v-.9h1.8v-.5H7v-1h-.8v1H3.8v-1.1h-.7v1.1H1.3v.5h1.8v1.1H.6v.5h4v.8h-3V-1h6.9v-3.5H5.4v-.7h4v-.7ZM9.5-7.6H7l-.3-.8-.7.1.4.7H3.8v.6h5.7Zm-6 1.1v-.7H2l.3-1-.7-.1C1.4-7.4 1-6.5.4-6l.3.7c.3-.3.7-.7.9-1.2ZM6-2.9h1.4v.6H5.9Zm-.1-1h1.5v.5H5.9ZM4.7-6.2h1.1v.8h-1Zm2.8 0h1v.8h-.9ZM9-1.7 7.8-1a4.7 4.7 0 0 1-.5-.8h2.2v-.5H8V-3h1.2v-.4H8v-.5h1.3v-.5H8V-5h1.2v-1.6H6.9V-5h.5v.6H5.9V-5h.5v-1.6H4.2V-5h1v.6H4v.4h1.2v.6h-1v.5h1v.6H3.7v.5h2c-.6.4-1.4.7-2.2 1v-.4l-1.1.4v-1.9h1.1v-.9h-.9v-1.2h.9v-.7H1v.7h.8v1.3H.6v.7h1.2v2c0 .6-.2.8-.4 1l.3.4L3.6-.7l.2.4L5-.8v.3a1 1 0 0 1-.4.8l.4.5 2-.6v-.6L5.6 0v-1l1-.8C7.2-.6 8 .3 9.3.7l.3-.5a4 4 0 0 1-1.4-.8c.4-.2.8-.4 1.2-.7ZM1.6-7.8v3.3C1.6-2.7 1.5-1 .3.3l.7.5C2.2-.6 2.4-2.5 2.4-4.4v-3.4Zm3.2.4v7.3h.7v-7.3ZM8-7.8V.8h1v-8.6ZM9.2-6.8 7.7-8.2l-.5.4c.5.4 1.2 1 1.5 1.5Zm-4-1H1.4v.8h3.8Zm-1.3 5h1.8v-.7H3.9V-5h-.7v4.4L2-.4v-3.8h-.6v4h-1l.3.9L6-.4V-1L4-.7Zm5.5-2.5V-6H6.7v-2.3H6V-6H.6v.8H6c.3 3.3 1 6 2.5 6 .7 0 1-.5 1.1-2.2L9-1.8C9-.5 8.8 0 8.6 0 7.6 0 7-2 6.8-5.3ZM3.6-8H.9V.8h.7v-8.1H3L2.1-5c.9.8 1.2 1.4 1.2 2 0 .3 0 .5-.3.7H1.8c.2.3.2.5.2.7h1s.2 0 .4-.2C3.8-2 4-2.4 4-3s-.3-1.3-1.2-2l1.3-2.7ZM5.3-.8v-2.9h3v3Zm3-6.2v2.6h-3V-7Zm-3.7-.8V.7h.7v-.8h3v.7H9v-8.4Zm1.9 5.9H3.6v-1.4h2.9ZM7.8-5v-.6H5.4v-1.2h-.7v1.2H2.3v.6h2.4v1H2.9v2.7h4.3v-2.6H5.4V-5ZM1.7-.4v-6.8h6.6v6.8ZM.9-7.9V.8h.8V.3h6.6v.5h.8v-8.7ZM1-8"/>  <path id="w" d="M2.9-3.9h4.4v1.1H2.9Zm4.4-3.3v1H2.9v-1ZM2.9-5.5h4.4v1H2.9Zm6.5 3.4v-.7H8v-5H2.2v4.9H.6v.8h2.8L2-.6l-.8.3a4 4 0 0 1 .2.9C1.8.3 2.4.3 8 0l.5.8.7-.4a17.3 17.3 0 0 0-2.4-2.3l-.8.2L7.3-.5l-4.8.2a14 14 0 0 0 1.9-1.8Zm0 0"/>  <path id="v" d="M3.2-5.3v-1.2h1.1l-.8 1.2Zm1.2 3.2H2.2v-1h2.2ZM2.2-.5v-1h2.2v1ZM5.1-8a14 14 0 0 1-.7 1.3v-.5H3.2v-1h-.7v.9H.9v.8h1.6v1.2h-2v.6h2.3A9.5 9.5 0 0 1 .3-2.8l.4.6.8-.5V.7h.7V.1h2.2v.5h.8v-4.3H2.8l1-1h1.8v-.6H4.3a12 12 0 0 0 1.5-2.5Zm3.9.2H6V.8h.8v-7.9h1.8L7.4-4.4c1 .9 1.3 1.6 1.3 2.4.1.2.1.5-.1.7a1 1 0 0 1-.6 0H7l.4.9h.9c.2-.1.5-.2.7-.4.3-.2.5-.7.5-1.2 0-.8-.3-1.5-1.3-2.5l1.4-3Zm0 0"/>  <path id="u" d="M6.3-2.2v1.3H3.8v-1.3Zm.5 1.9v-2.5H3.2V.4h.6v-.7ZM4-5.7a6 6 0 0 0-.6-1h3.1c0 .3-.3.7-.5 1Zm5.3-1v-.7h-4v-1h-.7v1H.7v.7h2l.3 1H1V.8h.8V-5h1.8c0 .9-.4 1.3-1.6 1.6l.3.5c1.4-.3 1.9-1 2-2.1h1.2v1c0 .6.2.7.9.7h1c.5 0 .6-.2.8-1-.2 0-.5 0-.6-.2 0 .6 0 .7-.3.7h-.9c-.2 0-.2 0-.2-.2v-1h2v4.8c0 .2 0 .2-.2.2H6.6l.2.8c.9 0 1.4 0 1.7-.2.5 0 .5-.3.5-.8v-5.5H6.8l.6-1Zm0 0"/>  <path id="t" d="M5.4-.4v-3h3.2v-.9H5.4V-7h3.5v-.7H1.1v.7h3.5v2.8H1.5v.7h3.1v3h-4v.9h8.9v-.8Zm0 0"/>  <path id="s" d="M9.5-4h-4v-1a15.7 15.7 0 0 0 3.1-2.2L8-7.7H1.5v.7h5.7a13 13 0 0 1-2 1.5h-.7V-4H.6v.8h3.9v3c.1.2.1.2-.1.2H2.6a4 4 0 0 1 .4.8l2-.1c.3-.2.4-.4.4-.9v-3h4.1Zm0 0"/>  <path id="r" d="M1.7-1v-5.6h1.8c0 1.6-.3 3.1-1.7 3.9a3 3 0 0 1 .5.5c1.5-.8 1.9-2.4 2-4.5h1.3V-4c0 .7 0 1 .2 1.1h2l.2-.4.2-1c-.2 0-.4-.2-.5-.3l-.1.9c0 .1 0 .2-.2.2h-1l-.1-.3v-3h2v6ZM.9-7.4V.5h.8v-.7h6.6v.6h.8v-7.9Zm.1-.1"/>  <path id="q" d="M4.5-2.1c.5.4 1 1.1 1.2 1.6l.6-.5a7.4 7.4 0 0 0-1.2-1.5Zm5-2.6v-.6H7.1v-1.3H9v-.7H7v-1h-.7v.9H4.4v.8h2v1.3H3.7v.6h3.9v1.2H4.2L4-4l-1.1.3v-2H4v-.6H3v-2h-.7v1.9h-.9l.3-1.3-.7-.1C1-6.6.7-5.3.3-4.5l.7.3.3-1.5h1v2.2L.3-3l.4.7 1.5-.5V.8H3V-3l1-.3v.5h3.7v2.6c-.1.2-.1.2-.3.2H6l.3.8c.8 0 1.3 0 1.6-.2.3 0 .4-.3.4-.8v-2.6h1.2v-.7H8.3v-1.2Zm0 0"/>  <path id="p" d="M7.8-7.2v1.5H2.5v-1.6ZM8.6-5v-2.9H1.7v2.7c0 1.7 0 4-1 5.6l.5.4C2.3-1 2.5-3.3 2.5-5.1ZM5-.3c-.6 0-.7-.1-.7-.5v-1c1.4-.5 3-1 4.1-1.6L8-4 4.2-2.5v-2h-.7v3.6C3.5.2 4 .3 5.1.3h2.6C8.8.3 9 0 9.2-1.5c-.2 0-.5-.1-.7-.3 0 1.2-.2 1.5-.8 1.5Zm.1 0"/>  <path id="o" d="M3-5.6h.5v-1.1h2.9v1H7v-.9h2.4v-.8H7v-1h-.6v1.1H3.6v-1.1H3v1.1H.7v.6h2.2Zm-.9 2.4c-.2.6-.8 1.5-1.3 2l.6.4 1.4-2.1Zm2.8-1.5v-1h-.6v.9h-3v.8h2.8C3.9-2.2 3-.6.8.2c.2.1.4.4.4.6C3.8-.2 4.6-2 4.8-4H7c-.2 2.6-.3 3.7-.5 4H4.9l.1.7h1.4c.3 0 .6-.1.8-.4.3-.3.4-1.3.5-4.7v-.3ZM7.8-3c.4.7.9 1.6 1 2.2l.7-.3a11.3 11.3 0 0 0-1.1-2.2Zm0 0"/>  <path d="M9.5-.5H1.7V-7h7.5v-.8H1V.8h.7V.2h7.8ZM8.2-1.9a15.2 15.2 0 0 0-1.9-2l1.4-2.6-.6-.2a14 14 0 0 1-1.6 2.3A27.8 27.8 0 0 0 3.2-6l-.4.5c.7.5 1.5 1 2.3 1.7-.9.8-1.8 1.7-2.8 2.3A7 7 0 0 1 3-1c1-.6 1.8-1.4 2.6-2.3.9.7 1.6 1.3 2 2Zm-4.9.7H1.9v-3h1.4Zm.7.7v-4.3H1.9l.6-2.4h1.7v-.6H.5v.6h1.3c-.3 1.6-.8 3-1.5 4 .2 0 .3.4.4.6l.5-.7V.3H2v-.8ZM9.5-7h-2l.3-.2A8.5 8.5 0 0 0 7-8.4l-.7.3.7 1H4.8v2.8C4.8-3 4.7-1.1 3.6.3a3 3 0 0 1 .7.4c1-1.4 1.2-3.6 1.2-5.1v-2h4Zm-6 2v-.7H2.4v-2.7h-.7v2.7H.4v.7h1.3V.8h.7V-5Zm.7 3.8L5.4.1 6-.3 4.7-1.6Zm.4-3H6v.7H4.6Zm0-1.3H6v.8H4.6Zm3.8 0v.8H6.8v-.8Zm0 2H6.8v-.7h1.6Zm1.2 1.2H8.1V-3H9v-3H6.8v-.6h2.7v-.6h-.7l.3-.3a7.6 7.6 0 0 0-1.4-.9l-.4.4 1.2.8H6.8v-1.2h-.7v1.2H3.4v.6H6v.6H3.9v3h3.5v.7H3v.6h4.4V0H6c.2.3.2.6.3.8L7.7.7c.3-.2.4-.3.4-.7v-1.7h1.5ZM5-6H4v-1.3h1Zm.6-1.8H3.4v2.4h2.2ZM1-4.1h4.2v-.6h-4ZM2.3-6h-1v-1.3h1Zm.6-1.8H.8v2.4h2Zm-2.5 5h1.4l-.7 1.6H2v-.1h2.4C4.2-.5 4-.1 3.9 0l-.4.1H2.3l.2.6h1.3c.3.1.5.1.7-.1.3-.4.5-.9.5-2.3V-2H2.3l.2-.8h3.4v-.6H.4Zm8.7-5H6.2V.8h.6v-8h1.9l-1 2.8c.7.9.9 1.6.9 2.2.2.4.2.7 0 .8l-.5.1h-.7l.2.7h.8c.2 0 .4 0 .6-.2.3-.2.5-.7.5-1.3 0-.7-.3-1.5-1.2-2.4l1.3-3ZM8.4-7.6H1.7v.6h6.7Zm1 3.6v-.6H.6v.6h3L2.3-.6H.7v.9L8.3 0l.4.8.7-.4A15.1 15.1 0 0 0 7-3l-.7.4L7.7-.8l-4.6.2 1.5-3.3ZM2.2-.7V-3h5.6v2.3ZM7.8-6v2.2H2.2V-6Zm-3-.8.5-1.4-.9-.2c.1.4-.2 1.1-.4 1.6H1.5V.8h.7V0h5.6v.7h.7v-7.5ZM8-2.8v2.4H3.8v-2.4ZM3 .8h.8V.2H8v.6h.7v-4.3H3.1Zm-.7-6.4v-1.2C4.5-7 7-7.3 8.8-7.7L8-8.3c-1.2.4-3.6.7-5.7.8h-.8v2.6c0 1.6 0 3.7-1.2 5.1l.7.7C2.1-1 2.3-3.2 2.3-4.8v-.1h7.3v-.7Zm0 0"/>  <path id="n" d="M5.4-3.2v-2.7h2.8v2.7Zm-3.7 0v-2.7h2.9v2.7Zm3.7-3.4v-1.8h-.8v1.8H1v4.7h.7v-.6h2.9V.8h.8v-3.3h2.8v.6H9v-4.7Zm0 0"/>  <path id="m" d="M5.5-7.2c.3.2.8.5 1 .8l.5-.4a5 5 0 0 0-1-.7h2.3v1.6h-.1c-.2.2-.4.2-.8.1a2 2 0 0 1 .2.6h1.1c.3-.4.3-.5.3-.8v-2H5v.5h.8Zm2.3.5L5-6l.2.6A442 442 0 0 1 8-6.2Zm-6.6-.5a6 6 0 0 1 1 .8l.4-.4a6.7 6.7 0 0 0-1-.7h2.2v1.6H3l.2.7h1c.3-.4.3-.5.3-.8v-2H.7v.5h.8Zm2.2.5-2.8.8.4.5a106 106 0 0 0 2.5-.8Zm.4 5h2.4v.5H3.8Zm0-1h2.4v.5H3.8Zm-1.5-1h2.3v.4H2.3Zm0-1.1h2.3v.5H2.3Zm5.4.5H5.3v-.5h2.4Zm0 1.1H5.3v-.6h2.4ZM9.4-.6v-.6H7v-.5h2v-.5H7v-.5h1.4v-2.5H1.6v2.5h1.5v.5H1v.5h2v.5H.7v.6h2.7c-.7.3-1.9.6-3 .9.4 0 .6.4.6.5C2 .5 3.3.1 4.1-.4l-.6-.2h2.8l-.5.3a17 17 0 0 1 3 1l.5-.3A21.5 21.5 0 0 0 6.4-.7Zm0 0"/>  <path id="l" d="M7.9-3.1v2.6H3.4v-2.6Zm1.4-2.7v-.7H4.4L5-8.2l-.9-.2-.5 1.9h-3v.7h2.9c-.8 1.6-1.7 3-3.1 4l.4.6A8.7 8.7 0 0 0 2.7-3V.8h.7V.2H8v.5h.6v-4.5H3.2l1-2Zm0 0"/>  <path id="k" d="M8.2-2.7v2.3H5v-2.3ZM4.3.8h.8V.3H8v.4h1v-4H4.3Zm.7-6v.7h3.2v-.7ZM3-2.7H1.5v-4h1.4Zm3.2-5.5a7.7 7.7 0 0 1-2.6 3v-2.1H.8V-1h.7v-1h2v-3l.5.6a9 9 0 0 0 2.6-3.1c.6 1 1.6 2.3 2.7 3l.4-.7c-1-.6-2.1-1.8-2.8-3Zm0 0"/>  <path id="j" d="M3-1.5C2.3-1 1.3-.3.4 0l.6.6a8 8 0 0 0 2.6-1.9Zm3.2.4L8.9.6l.5-.6a22.2 22.2 0 0 0-2.6-1.5ZM2.8-3.8a8.8 8.8 0 0 0-1.2-.9l.6-.3 1 .8-.5.3ZM4-5.6c0 .3-.2.7-.5 1a6.8 6.8 0 0 0-1-.9l.2-.1ZM8.5-6h.7v-1.6H5.3v-.8h-.7v.8H.8V-6h.6v-1h7.1v1l-.1-.1H6.2v.6h1.5c-.1.4-.4.8-.7 1.1a5.8 5.8 0 0 1-1.6-2.3l-.4.2c.2 1 .9 2 1.6 2.7h-3c.6-.6 1-1.3 1.4-2.2l-.5-.1H3l.4-.5-.6-.1C2.4-6 1.6-5.2.5-4.6l.4.4a8 8 0 0 0 .3-.2l1.2 1a6.9 6.9 0 0 1-2 .7l.4.7.8-.4v.6h3V0l-.1.2H3.3l.2.6L5 .7c.3-.1.3-.3.3-.7v-1.8h3v-.6H1.7a7 7 0 0 0 1.7-1.2v.4h3.4v-.5c.6.7 1.4 1 2.4 1.3 0-.2.2-.6.4-.6a6 6 0 0 1-2.2-1l1.4-1.8Zm0 0"/>  <path id="i" d="M6-2.5h2v.8H6ZM8-5v.8H6V-5ZM6-3.7h2v.7H6Zm-1.6 2v.6h5.2v-.6h-1V-5h.8v-.6h-.8v-.7H8v.7H6.1v-.7h-.7v.7h-.9v.6h1v3.3Zm-.4-3H2.3v-1.5H4l.6.6.7-1.1h4.2v-.6H5.7l.3-.9-.7-.2a5.4 5.4 0 0 1-1 2v-.3H2.8v-1.6h-.7v1.6H.5v.5h1.2v1.9C1.7-3 1.5-1.1.3.3a4 4 0 0 1 .5.5C2.1-.7 2.3-2.5 2.3-4.1h1.1c0 2.8-.1 3.8-.3 4.1 0 .2-.1.2-.3.2h-.7l.2.4h.9c.2.1.4.1.5-.2.3-.4.3-1.5.4-4.8ZM5.9-1C5.5-.6 4.7 0 4 .3l.6.5 2-1.6Zm1.6.3L9 .8l.7-.4L8-1Zm0 0"/>  <path id="h" d="M7.3-2.5v2.2H2.7v-2.2ZM2 .8h.7V.4h4.6v.4h.8v-4H2Zm.5-6v.8h5V-5Zm2-3c-.6 1.1-2.3 2.7-4 3.5l.3.7C2.5-5 4.2-6.4 5-7.6 6-6.3 7.7-5 9.2-4.1l.5-.7a12 12 0 0 1-4.4-3.5Zm.1-.1"/>  <path id="g" d="m6.5-6.7-1-1.5-.6.3 1 1.5ZM1.7-3.2h1.5v1.4l-1.5.3Zm1.5-4V-6H1.7v-1.3ZM1.7-5.3h1.5v1.5H1.7Zm3 3.9L4.5-2l-.7.1v-5.4h.4v-.6H.5v.6H1v5.9H.4l.2.7L3.2-1V.8h.6v-2ZM9.4-3v-.8H7.1v-1.8H9v-.7H7.8l1-1.7-.7-.2A12 12 0 0 1 7-6.3H4.5v.7h1.8v1.8h-2v.7h2C6-2 5.5-.7 3.9.3l.6.7c1.3-1.1 2-2.1 2.3-3.1C7.3-.7 8 .3 9 .9l.6-.9C8.4-.4 7.5-1.6 7-3Zm.1-.1"/>  <path id="f" d="M1.6-6.6h6.8v1.4h.8v-2.1H5.4v-1h-.8v.9H.9v2.2h.7ZM6.8-4C6.5-2.9 6-2 5.3-1.5A31 31 0 0 0 3-2.3l1-1.6Zm2.5.1v-.7H4.2L5-6l-.8-.2-.8 1.6H.6v.7H3c-.4 1-1 1.9-1.3 2.4l.8.2.2-.4 2 .7c-1 .6-2.3 1-3.9 1a3 3 0 0 1 .5.8C3 .5 4.4 0 5.5-.7 6.7-.2 7.7.3 8.4.8l.5-.6c-.7-.5-1.7-1-2.8-1.4C6.8-2 7.3-2.7 7.6-4Zm.1 0"/>  <path id="e" d="M3.4-7v1.7H1.5V-7ZM1.5-2.6v-1.9h2v2Zm2.6.8v-6H.8v7h.7V-2Zm1.6-1.3v-1.7h2.8v1.7Zm2.8-4.1v1.7H5.7v-1.7Zm.7-.8H5v3.6C5-2.8 4.8-1 3.2.3l.5.5c1.1-.8 1.6-2 1.9-3.2h3v2.2c-.1.2-.2.2-.4.2H6.8l.3.7h1.7c.3-.3.4-.5.4-1.1Zm0 0"/>  <path id="d" d="M2.9-5.8h.7v-1h2.7v1H7v-1.1h2.4v-.6H7v-.9h-.7v1H3.6v-1.1H3v1.1H.7v.5h2.2Zm5 2a5.9 5.9 0 0 1-1.5 2 9 9 0 0 1-.7-2.3h3.7v-.7h-.9l.5-.4-1.4-1-.4.4 1.2 1H5.6V-6h-.9v1.2H1.6v1.4C1.5-2.3 1.3-.8.4.3l.6.5c1-1.2 1.2-3 1.2-4.1v-.8H5l.8 2.7C5-.7 3.8-.2 2.5.1l.5.6A11 11 0 0 0 6.2-.8C6.8.2 7.5.8 8.4.8c.8 0 1-.4 1.2-1.8L9-1.3C9-.3 8.8 0 8.5 0c-.7 0-1.3-.4-1.8-1.2a7.4 7.4 0 0 0 2.1-2.4Zm.1 0"/>  <path id="c" d="M1.6-7.2h2C3.3-5.9 3-5.4 1-5.2l.3.6c2.3-.3 2.8-1 3-2.6h1.2v1.5c0 .7.2.9 1 .9H8c.5 0 .7-.2.8-.9L8.2-6c0 .5-.2.6-.4.6H6.7c-.4 0-.5 0-.5-.3v-1.5h2.2V-6h.8v-1.8H.9v1.9h.7Zm7.8 5h-4v-1.3h3.3v-.7H1.4v.7h3.2v1.3h-4v.7h4.1V.8h.6v-2.3h4Zm0 0"/>  <path id="b" d="M2.7-4.2C2.2-3 1.4-1.9.6-1.2l.6.5C2-1.5 3-2.7 3.4-4Zm5.7-1.7a6.7 6.7 0 0 1-.8 1.5l.6.2c.5-.5 1-1.5 1.3-2.3l-.6-.2H3l.8-1.4-.8-.3c-.6 1.5-1.6 3-2.6 4L1-4l1.6-2h2.1v5.9c0 .1 0 .1-.2.1H2.9c.1.2.3.5.3.8.9 0 1.5 0 1.8-.2.3-.1.5-.3.5-.8v-5.7ZM6.7-3.8c.8 1 1.6 2.3 2 3.1l.7-.4C9-1.9 8.1-3 7.4-4Zm0 0"/>  <path id="a" d="M3.1-6v.7h2.5c-.2 1.8-.8 3.1-2.6 4 .2-.1.4.3.5.4 1.6-.7 2.3-1.9 2.7-3.4C6.7-2.6 7.5-1.5 9-.8l.5-.7C7.8-2 7-3.4 6.6-5.3h2.7V-6H6.4l.1-2.3h-.7L5.7-6Zm0-1c-.2-.4-.9-1-1.5-1.2l-.6.4 1.7 1.3ZM3-5c-.5-.5-1.3-1-2-1.2l-.4.4 1.8 1.3Zm-.3 1.3H.5v.6H2v1.9A15 15 0 0 1 .4-.1l.4.8L2.3-.6C3 .2 4 .5 5.2.6h4.2a4 4 0 0 1 .2-.9H5.2c-1.2.2-2-.1-2.5-.8Zm0-.1"/>  <path d="M1 1.2h8v-10H1Zm4-5.4L1.8-8.3h6.4Zm.3.4 3.2-4v8ZM1.8.7l3.2-4L8.2.6Zm-.3-8.6 3.2 4.1L1.5.3Zm9.9.4v-.9h-5V-10h-.9v1.6H.6v.9h5V-6H1.8v5.4h1V-5h2.7v6h1v-6h2.7v3.3c.1.2.1.2-.1.2H7.3l.4.9c1 0 1.6 0 2-.2.6-.1.6-.4.6-.9v-4.2H6.4v-1.6Zm-.1.2v-.9H5c.4-.6.6-1 .7-1.6l-.9-.2-.6 1.8H.8v.9h3c-.8 1.5-2 3-3.4 4l.6.7L2.7-4v3.9h.9v-4.3H6V.9h1.1v-5.2h2.5v3c.1.1.1.2-.2.2H7.8l.3.8c.9 0 1.7 0 1.9-.2.5 0 .6-.3.6-.8v-3.9H7v-1.6h-.9v1.6H3.5c.5-.6 1-1.4 1.3-2.1ZM3.5-1.8C2.9-1.1 1.7-.4.6 0a4 4 0 0 1 .6.7C2.3.2 3.5-.6 4.3-1.5Zm4 .5a25 25 0 0 1 3.2 2l.6-.6C10.4-.4 9.2-1.3 8-1.8ZM3.4-4.6a9.7 9.7 0 0 0-1.4-1l.6-.4c.4.2 1 .6 1.2 1l-.5.3Zm1.5-2-.6.9A10 10 0 0 0 3-6.5l.2-.2Zm5.4-.7h.7v-1.9H6.4v-.8h-.9v.9H1v1.9h.7v-1.2h8.6v1.2l-.3-.1H7.3v.7h2c-.1.6-.5 1-.9 1.3A6.9 6.9 0 0 1 6.5-8l-.7.2A7.7 7.7 0 0 0 8-4.6H4.3A6.8 6.8 0 0 0 6-7l-.6-.3H3.7l.4-.6-.8-.1C3-7.2 2-6.2.6-5.5L1-5l.5-.3 1.3 1.1A8.8 8.8 0 0 1 .5-3l.5.5a8 8 0 0 0 1-.3v.7h3.5V0c.1.1.1.2-.2.2H4l.2.7L6 .8c.3-.1.4-.3.4-.8v-2h3.7v-1H2a9 9 0 0 0 2-1.3v.4h4.1v-.5C9-3.7 10-3.2 11-3c0 0 .3-.4.5-.6A7.8 7.8 0 0 1 9-4.8 9.7 9.7 0 0 0 10.6-7ZM4.7-8a10 10 0 0 0-1.4-2l-.7.4L4-7.5Zm6.1.8H8C8.5-8 9-9 9.5-9.8l-1-.2c-.2.8-.9 2-1.5 2.7H1.2v.8h9.6Zm-.8 4V-4H1.8v1ZM.7-.6v1h10.6V-.7ZM9-2.4H.8v.8h8.3Zm2-2.1H3.2V-8h5.7c-.1 1-.2 1.6-.4 1.7l-.4.3-1.4-.2.2.7h1.6c.3.1.5.1.8-.1.2-.4.4-1.1.5-2.8v-.4H5.6l.5-1.2h-.9l-.5 1.2H2.3v5.1h7.8C10-1.3 9.8-.3 9.6-.1L9 0H7.4l.2.8h1.8c.4 0 .7 0 1-.3.2-.5.3-1.6.6-4.6ZM1.2 1.4h9.6v-12H1.2ZM6-5l-3.8-5h7.6Zm.4.4 3.8-4.9V.3ZM2.2.8 6-4l3.8 5ZM1.8-9.5l3.8 5L1.8.2Zm0 0"/> </defs> <image xlink:href="svg/8/18_1.jpg" width="497" height="279"/> <path d="M3.7 2C3.7 3 3 3.7 2 3.7A1.7 1.7 0 1 1 3.7 2zm0 0" style="fill:#fdfdfa;fill-opacity:1;fill-rule:nonzero;stroke:#3f3f35;stroke-width:.5;stroke-linecap:butt;stroke-linejoin:miter;stroke-miterlimit:4;stroke-opacity:1" transform="translate(153.6692,182.25471)"/> <path d="M138.8 147.8v.7h2.5c-.3 1.8-.8 3.1-2.6 4 .2-.1.3.2.5.5 1.6-.7 2.3-2 2.7-3.5.4 1.7 1.3 2.9 2.8 3.5l.5-.7c-1.7-.5-2.5-1.9-3-3.8h2.8v-.7h-3l.3-2.3h-.9v2.3zm0-1c-.2-.4-.9-1-1.5-1.2l-.6.4 1.6 1.3zm-.2 2c-.4-.4-1.2-1-1.8-1.2l-.5.4c.6.4 1.4.9 1.7 1.3zm-.2 1.2h-2.2v.8h1.4v1.8a15 15 0 0 1-1.5 1.2l.4.7 1.5-1.3c.7.8 1.5 1.1 3 1.2h4a4 4 0 0 1 .3-.8h-4.5c-1.1.1-2-.2-2.4-.9zm9.9-.3c-.3 1.1-1.2 2.2-2 3l.5.3c.9-.7 1.7-1.9 2.3-3zm5.8-1.8a6.7 6.7 0 0 1-.9 1.5l.8.3c.3-.7.9-1.5 1.2-2.4l-.6-.2h-5.9l.7-1.3-.8-.4c-.5 1.6-1.5 3-2.5 4l.7.4c.5-.5 1-1.1 1.5-1.8h2v5.6c.1.2.1.2-.1.2h-1.6l.4.8c.8 0 1.3 0 1.7-.2.3 0 .3-.3.3-.8V148zm-1.7 2.1 2 3.1.6-.3c-.3-.9-1.2-2.1-2-3zm4.9-3.3h1.9c-.1 1.2-.6 1.7-2.5 2l.3.6c2.2-.4 2.8-1 3-2.6h1.1v1.3c.1.8.3 1 1.1 1h1.4c.6 0 .8-.2.9-.9l-.6-.1c0 .3-.1.4-.4.4h-1.2c-.3 0-.3 0-.3-.4v-1.3h2v1h.8V146h-8.2v2h.7zm7.7 4.9h-4v-1.3h3.5v-.7H157v.7h3.2v1.3h-3.9v.7h4v2.3h.7v-2.3h4zm3.6-3.6h.7v-1h2.7v1h.7v-1h2.3v-.7h-2.3v-.8h-.7v.8h-2.7v-.8h-.7v.8h-2.3v.7h2.3zm5 2a5.9 5.9 0 0 1-1.6 2 9 9 0 0 1-.6-2.2h3.6v-.8h-.8l.4-.3-1.3-1-.5.3c.5.3 1 .8 1.3 1h-2.8l-.1-1.2h-.8l.2 1.2H167v1.5c.1 1 0 2.5-.9 3.5l.5.6c1.1-1.2 1.3-3 1.3-4.1v-.7h2.8c.1 1 .3 1.9.8 2.6-1 .7-2 1.2-3.3 1.6l.5.6a11 11 0 0 0 3.1-1.6c.6 1 1.4 1.6 2.3 1.6.7 0 .9-.4 1.1-1.8l-.6-.3c0 1-.2 1.4-.5 1.4-.6 0-1.1-.5-1.7-1.3a7.4 7.4 0 0 0 1.9-2.4zM139 160v1.8h-1.7V160zm-1.7 4.5v-2h1.8v2zm2.5.7v-6h-3.3v7.1h.7v-1.2zm1.5-1.2.1-1.4v-.4h2.8v1.7zm2.9-4.2v1.7h-2.8v-1.7zm.7-.7h-4.2v3.5c0 1.6-.2 3.5-1.9 4.7l.6.7c1.1-1.1 1.6-2.2 1.8-3.4h3v2.2c0 .2 0 .3-.3.3h-1.4l.3.7c.8 0 1.4 0 1.7-.2.3 0 .4-.3.4-.8zm2.4 1.3h6.8v1.4h.7v-2H151v-1.2h-.7v1.1h-3.7v2.1h.7zm5.1 2.8c-.2 1-.7 1.7-1.4 2.3a31 31 0 0 0-2.3-.8l.9-1.5zm2.7 0v-.7h-5.2l.7-1.5h-.6l-1 1.5h-2.7v.7h2.4l-1.3 2.4.8.1.2-.4 2 .7c-1 .6-2.4 1-3.9 1.1a3 3 0 0 1 .4.7c1.8-.3 3.2-.7 4.3-1.5 1.1.5 2.2 1 2.8 1.5l.6-.6c-.6-.4-1.6-1-2.8-1.4.7-.6 1.2-1.5 1.5-2.6zm7-2.9-1-1.5-.6.3 1 1.6zm-4.7 3.5h1.4v1.5l-1.4.2zm1.4-4v1.4h-1.4v-1.4zm-1.4 2h1.4v1.4h-1.4zm2.9 3.9v-.7l-.9.2v-5.4h.5v-.8h-3.7v.8h.5v5.8h-.6l.1.9 2.6-.6v1.9h.7v-2zm4.9-1.8v-.7h-2.5v-1.8h2.2v-.7h-1.4l1-1.6-.8-.3a12 12 0 0 1-1 2h-2.5v.5h1.8v1.9h-2v.8h2c-.3 1.1-.9 2.3-2.5 3.4.3 0 .5.3.7.5 1.2-.9 1.8-1.9 2.2-2.9.6 1.3 1.3 2.2 2.4 2.8l.5-.6c-1.3-.6-2.1-1.8-2.6-3.3zm7.8.6v2.2h-4.6v-2.2zm-5.3 3.3h.7v-.4h4.6v.4h.7v-4h-6zm.5-5.9v.7h5v-.7zm2-3.2c-.8 1.3-2.4 2.8-4.2 3.7l.5.6c1.7-1 3.3-2.4 4.2-3.6.9 1.3 2.6 2.7 4.2 3.6l.5-.7a12 12 0 0 1-4.4-3.6zm-13.4 19.1h1.8v.8h-1.8zm1.8-2.5v.7h-1.8v-.7zm-1.8 1.2h1.8v.8h-1.8zm-1.9 2v.8h5.4v-.7h-1v-3.3h.7v-.6h-.7v-.7h-.7v.7h-1.8v-.7h-.8v.7h-.8v.6h.9v3.3zm-.1-2.9H153v-1.4h1.7l.6.4.7-1h4.2v-.7h-3.9l.4-.8-.7-.2a5.4 5.4 0 0 1-1 2v-.4h-1.5v-1.6h-.7v1.6h-1.7v.7h1.2v1.7c0 1.4-.1 3.2-1.3 4.7a4 4 0 0 1 .5.4c1.2-1.5 1.5-3.3 1.5-4.8h1c0 2.8 0 3.8-.1 4l-.4.1h-.8c.3.2.3.5.3.7h1s.1-.1.3-.4c.3-.3.4-1.4.5-4.8zm1.7 3.6c-.3.5-1 1-1.8 1.4.3 0 .4.3.5.4.8-.3 1.5-.9 2-1.4zm1.6.4c.6.4 1.3 1 1.7 1.5l.5-.4-1.6-1.4zm0 0" style="fill:none;stroke:#fff;stroke-width:3;stroke-linecap:butt;stroke-linejoin:round;stroke-miterlimit:10;stroke-opacity:.6" transform=" rotate(  340 157.418 184.254) "/> <g style="fill:#212121;fill-opacity:1" transform=" rotate(  340 157.418 184.254) ">  <use xlink:href="#a" x="135.7" y="153.8"/>  <use xlink:href="#b" x="145.7" y="153.8"/>  <use xlink:href="#c" x="155.7" y="153.8"/>  <use xlink:href="#d" x="165.7" y="153.8"/>  <use xlink:href="#e" x="135.7" y="167"/>  <use xlink:href="#f" x="145.7" y="167"/>  <use xlink:href="#g" x="155.7" y="167"/>  <use xlink:href="#h" x="165.7" y="167"/>  <use xlink:href="#i" x="150.7" y="180.3"/> </g> <use style="fill:#fdfdfa;fill-opacity:1;fill-rule:nonzero;stroke:#3f3f35;stroke-width:.5;stroke-linecap:butt;stroke-linejoin:miter;stroke-miterlimit:4;stroke-opacity:1" transform="translate(372.19384,237.68991)" xlink:href="#reuse-0"/> <path d="M357.1 221c-.5.6-1.5 1.2-2.4 1.5l.5.5a8 8 0 0 0 2.6-1.8zm3.4.4 2.5 1.6.6-.5a22.2 22.2 0 0 0-2.6-1.5zm-3.6-2.8a8.8 8.8 0 0 0-.9-.8l.4-.4 1 .8-.5.4zm1.4-1.6-.6 1a6.8 6.8 0 0 0-1-1l.2-.1zm4.4-.5h.7v-1.6h-3.9v-.9h-.7v1H355v1.5h.6v-1h7.1v1l-.1-.2h-2.2v.7h1.6c-.2.4-.5.8-.9 1a5.8 5.8 0 0 1-1.5-2.1h-.5c.3 1.1.9 2.1 1.7 2.8h-3c.6-.7 1-1.3 1.3-2.1l-.4-.2h-1.4l.3-.5-.6-.1c-.4.7-1.2 1.5-2.3 2l.3.6a8 8 0 0 0 .4-.3l1 .9a6.9 6.9 0 0 1-1.7 1c.1 0 .3.2.3.3.3.1.5-.1.8-.2v.6h3v1.8l-.2.1h-1.1l.2.6h1.5c.3-.2.3-.4.3-.8v-1.7h3v-.6h-6.6a7 7 0 0 0 1.7-1.2v.4h3.4v-.5c.6.6 1.4 1 2.4 1.3 0-.2.2-.5.4-.6a6 6 0 0 1-2.2-1c.5-.5 1-1.2 1.4-1.9zm9.7 3.3v2.2h-3.1v-2.2zm-3.9 3.4h.8v-.4h3v.4h.9v-4h-4.7zm.6-5.9v.7h3.3v-.7zm-2 2.5h-1.5v-4h1.5zm3.3-5.5a7.7 7.7 0 0 1-2.6 3V215H365v6.4h.6v-1h2.2v-2.8l.2.4a9 9 0 0 0 2.8-3c.6 1 1.6 2.3 2.7 3l.4-.7c-1-.6-2.1-1.8-2.8-3zm6.5 4c-.5 1.2-1.3 2.3-2.1 3l.6.5c.8-.8 1.7-2 2.2-3.3zm5.7-1.7a6.7 6.7 0 0 1-.8 1.4l.6.3c.5-.6 1-1.5 1.3-2.3l-.7-.2h-5.8l.8-1.5-1-.2c-.4 1.5-1.4 2.9-2.4 3.9l.7.4 1.5-1.9h2.1v5.9s0 .1-.3.1h-1.5l.3.7 1.8-.1c.3-.1.4-.3.4-.8v-5.7zm-1.7 2c.8 1.1 1.6 2.4 2 3.3l.7-.5c-.4-.8-1.3-2-2-3zm11.1.7v2.7h-4.3v-2.7zm1.6-2.6v-.7h-5l.5-1.8-.8-.1-.5 1.9h-3v.7h2.9c-.8 1.6-1.7 3-3.1 4l.4.6a8.7 8.7 0 0 0 2-1.9v3.8h.6v-.4h4.5v.4h.7v-4.6h-5.4l1-2zM364.7 228.5c.3.2.8.5 1 .8l.4-.4a5 5 0 0 0-1-.7h2.4v1.6h-.9a2 2 0 0 1 .2.7h1.1c.2-.4.3-.5.3-.8v-2.1h-4v.6h.8zm2.3.5-2.8.7.2.6 2.7-.8zm-6.6-.5a6 6 0 0 1 1 .8l.4-.4a6.7 6.7 0 0 0-1-.7h2.2v1.6h-.9l.3.7h1c.2-.4.3-.5.3-.8v-2.1H360v.6h.7zm2.2.5-2.8.8.3.5a106 106 0 0 0 2.6-.8zm.4 5h2.4v.5H363zm0-1h2.4v.5H363zm-1.5-1h2.3v.4h-2.3zm0-1h2.3v.4h-2.3zm5.5.4h-2.5v-.5h2.5zm-.1 1.1h-2.4v-.6h2.5zm1.7 2.5v-.5h-2.5v-.5h2.1v-.5h-2.1v-.5h1.5v-2.5h-6.8v2.5h1.5v.5h-2.1v.5h2v.5h-2.3v.6h2.7c-.7.3-1.9.7-3 .9.4 0 .6.3.7.5.9-.3 2.2-.7 3-1.2l-.6-.2h2.8l-.5.3a17 17 0 0 1 3 1l.5-.4a21.5 21.5 0 0 0-2.9-1zm6-2.5v-2.7h2.8v2.7zm-3.7 0v-2.7h2.9v2.7zm3.7-3.5v-1.7h-.8v1.8h-3.6v4.7h.7v-.6h2.9v3.3h.8v-3.3h2.8v.6h.8V229zM385.3 233.2h1.7v.8h-1.7zm1.7-2.5v.7h-1.7v-.7zm-1.7 1.3h1.7v.7h-1.7zm-1.8 2v.6h5.3v-.6h-1v-3.3h.8v-.6h-.8v-.7h-.7v.7h-1.8v-.7h-.7v.7h-.9v.6h.9v3.3zm-.2-3h-1.8v-1.5h1.7l.6.5.7-1h4.2v-.6H385l.2-1h-.7a5.4 5.4 0 0 1-1 1.9v-.5H382v-1.5h-.7v1.7h-1.6v.6h1.2v1.8c0 1.4-.2 3.2-1.4 4.6a4 4 0 0 1 .5.5c1.3-1.5 1.5-3.3 1.5-4.9h1.1c0 2.8-.1 3.8-.3 4 0 .2-.1.2-.3.2h-.7l.2.5h.9c.2.1.4.1.5-.3.2-.3.3-1.4.4-4.7zm1.7 3.6c-.3.4-1.1 1.1-1.7 1.4l.5.4 2-1.4zm1.6.4c.6.5 1.4 1.1 1.7 1.5l.6-.5-1.7-1.3zm0 0" style="fill:none;stroke:#fff;stroke-width:3;stroke-linecap:butt;stroke-linejoin:round;stroke-miterlimit:10;stroke-opacity:.6" transform=" rotate(  340 375.945 239.691) "/> <g style="fill:#212121;fill-opacity:1" transform=" rotate(  340 375.945 239.691) ">  <use xlink:href="#j" x="354.2" y="222.5"/>  <use xlink:href="#k" x="364.2" y="222.5"/>  <use xlink:href="#b" x="374.2" y="222.5"/>  <use xlink:href="#l" x="384.2" y="222.5"/>  <use xlink:href="#m" x="359.2" y="235.7"/>  <use xlink:href="#n" x="369.2" y="235.7"/>  <use xlink:href="#i" x="379.2" y="235.7"/> </g> <path d="M3.7 2A1.7 1.7 0 1 1 .2 2a1.7 1.7 0 0 1 3.5 0zm0 0" style="fill:#fdfdfa;fill-opacity:1;fill-rule:nonzero;stroke:#3f3f35;stroke-width:.5;stroke-linecap:butt;stroke-linejoin:miter;stroke-miterlimit:4;stroke-opacity:1" transform="translate(372.62592,42.432163)"/> <path d="M357.5 21.6h.8v-1h2.7v.9h.7v-.9h2.3v-.9h-2.3v-.9h-.7v1.1h-2.8v-1.1h-.6v1.1h-2.3v.6h2.2zm-.7 2.4c-.3.6-.8 1.5-1.4 2l.6.4c.6-.4 1-1.4 1.4-2.1zm2.7-1.5.1-1h-.6v.9h-3.2v.8h3c-.3 1.8-1 3.4-3.4 4.2l.6.6c2.4-1 3.2-2.7 3.5-4.8h2c.1 2.6-.1 3.7-.3 4h-1.7l.2.8h1.3c.4-.1.6-.2.8-.4.2-.4.4-1.6.6-4.8v-.3zm3 1.7.9 2.2.6-.3a11.3 11.3 0 0 0-1-2.1zm10-4.2v1.5H367V20zm.7 2.1v-2.8h-6.8v2.8c0 1.6-.1 3.9-1.2 5.5l.8.4c.9-1.7 1-4.1 1-6zm-3.5 4.9c-.7-.1-.7-.2-.7-.6v-1c1.3-.4 2.9-1 4-1.6l-.3-.6-3.8 1.6v-2.2h-.9v3.8c.1 1 .5 1.2 1.7 1.2h2.6c1.1 0 1.4-.4 1.5-1.9-.2 0-.5-.1-.7-.3-.1 1.2-.2 1.6-.8 1.6zm9.4-2 1.3 1.8.6-.5a7.4 7.4 0 0 0-1.3-1.6zm5-2.3v-.8h-2.3v-1.3h1.9v-.7h-2V19h-.7v.8h-2v.8h2v1.3h-2.6v.7h3.8v1.2h-3.4v-.6l-1.3.3v-2h1.1V21h-1v-2.1h-.7v2h-.9l.3-1.4-.7-.1c0 1.2-.3 2.5-.6 3.3l.5.3.5-1.4h.9v2.1l-1.9.6.2.6 1.8-.5V28h.6v-3.8l1-.2v.4h3.6v2.7l-.2.1h-1.3l.2.8 1.6-.1c.3-.2.5-.4.5-.9v-2.6h1.1v-.6H383v-1.2zM392.5 24v2.8H388v-2.7zm1.5-2.5v-.8h-5l.5-1.7-.8-.2c.1.7-.1 1.3-.3 1.9h-3.1v.7h2.7c-.6 1.6-1.6 3-3 4l.5.6a8.7 8.7 0 0 0 1.8-1.8V28h.8v-.6h4.4v.6h.8v-4.6h-5.4l.9-2zM375.7 38h1.9v.7h-1.9zm1.9-2.6v.8h-1.9v-.8zm-1.9 1.3h1.9v.7h-1.9zm-1.7 2v.6h5.2v-.6h-1v-3.3h.9V35h-.9v-.8h-.6v.7h-1.9v-.7h-.7v.7h-.8v.5h.8v3.3zm-.3-3H372v-1.3h1.7l.4.4.9-1h4.2V33h-3.9l.3-.8-.6-.1a5.4 5.4 0 0 1-1 1.9v-.3h-1.6V32h-.6v1.7H370v.7h1.3V36c0 1.5-.3 3.3-1.4 4.7a4 4 0 0 1 .6.5c1.2-1.5 1.4-3.3 1.4-4.9h1.1c0 2.9 0 3.9-.2 4-.1.3-.2.3-.3.3h-.8l.2.6h.9c.2-.1.4-.2.5-.5.3-.2.4-1.3.4-4.7zm1.8 3.7c-.4.5-1.1 1-1.8 1.3l.5.5c.7-.3 1.4-1 2-1.5zm1.6.4c.6.4 1.3 1 1.6 1.4l.6-.2-1.7-1.6zm-.1 0" style="fill:none;stroke:#fff;stroke-width:3;stroke-linecap:butt;stroke-linejoin:round;stroke-miterlimit:10;stroke-opacity:.6" transform=" rotate(  340 376.375 44.4336) "/> <g style="fill:#212121;fill-opacity:1" transform=" rotate(  340 376.375 44.4336) ">  <use xlink:href="#o" x="354.6" y="27.2"/>  <use xlink:href="#p" x="364.6" y="27.2"/>  <use xlink:href="#q" x="374.6" y="27.2"/>  <use xlink:href="#l" x="384.6" y="27.2"/>  <use xlink:href="#i" x="369.6" y="40.4"/> </g> <path d="M3.8 2A1.7 1.7 0 1 1 .3 2a1.7 1.7 0 0 1 3.5 0zm0 0" style="fill:#fdfdfa;fill-opacity:1;fill-rule:nonzero;stroke:#3f3f35;stroke-width:.5;stroke-linecap:butt;stroke-linejoin:miter;stroke-miterlimit:4;stroke-opacity:1" transform="translate(278.99056,204.38346)"/> <path d="M262.7 201.4v-5.8h1.8c0 1.9-.3 3.4-1.7 4a3 3 0 0 1 .5.6c1.5-.9 1.7-2.5 2-4.6h1.3v3c0 .4 0 .6.2.7l.7.3h.5l.8-.1.2-.5.2-.9-.6-.3v.9c0 .1 0 .2-.2.2h-1l-.1-.3v-3h2v5.8zm-.8-6.4v8h.8v-1h6.6v.8h.8v-7.9zm18.6 3.4h-4.1v-1a15.7 15.7 0 0 0 3.3-2.2l-.7-.5h-6.5v.7h5.7a13 13 0 0 1-2.2 1.6h-.4v1.4h-4v.8h3.9v3c.1.2.1.2-.1.2h-1.8a4 4 0 0 1 .3.8c1.1 0 1.6 0 2.1-.2.3 0 .4-.3.4-.8v-3h4.1zm5.9 3.6v-3.1h3.2v-.7h-3.2v-2.8h3.5v-.7h-7.8v.7h3.5v2.8h-3.1v.7h3.1v3h-4v.9h8.8v-.8zm10.6-2h2v.6h-2zm2-2.7v.8h-2v-.7zm-2 1.3h2v.8h-2zm-1.6 2v.8h5.2v-.7h-1v-3.3h.8v-.6h-.8v-.7h-.6v.7h-1.9v-.7h-.7v.7h-.9v.6h.9v3.3zm-.4-2.9h-1.7v-1.4h1.7l.6.4.7-1h4.2v-.6h-3.8l.3-1.1h-.7a5.4 5.4 0 0 1-1 2v-.5h-1.5V194h-.7v1.6h-1.6v.7h1.1v1.8c0 1.4-.1 3.1-1.3 4.6a4 4 0 0 1 .5.4c1.3-1.5 1.5-3.1 1.5-4.8h1.1c0 2.7-.1 3.7-.3 4 0 .1-.1.2-.3.2h-.7l.2.5h.7c.4 0 .6 0 .7-.2.3-.4.3-1.5.4-4.9zm1.9 3.7c-.4.4-1.2 1-1.9 1.3l.6.3 2-1.3zm1.5.3c.6.4 1.4 1 1.7 1.5l.5-.4c-.3-.4-1-1-1.6-1.4zm0 0" style="fill:none;stroke:#fff;stroke-width:3;stroke-linecap:butt;stroke-linejoin:round;stroke-miterlimit:10;stroke-opacity:.6" transform=" rotate(  340 282.742 206.383) "/> <g style="fill:#212121;fill-opacity:1" transform=" rotate(  340 282.742 206.383) ">  <use xlink:href="#r" x="261" y="202.4"/>  <use xlink:href="#s" x="271" y="202.4"/>  <use xlink:href="#t" x="281" y="202.4"/>  <use xlink:href="#i" x="291" y="202.4"/> </g> <use style="fill:#fdfdfa;fill-opacity:1;fill-rule:nonzero;stroke:#3f3f35;stroke-width:.5;stroke-linecap:butt;stroke-linejoin:miter;stroke-miterlimit:4;stroke-opacity:1" transform="translate(463.92043,200.51109)" xlink:href="#reuse-0"/> <path d="M457.2 214v1.1h-2.5V214zm.7 1.7v-2.3H454v3h.7v-.6zm-3-5.3a6 6 0 0 0-.6-1h3.1c.1.3-.2.6-.4 1zm5.2-1v-.7h-3.9v-1h-.6v1.1h-4v.6h2l.4 1h-2v6.6h.9v-6h1.6c0 1-.4 1.5-1.7 1.7l.4.5c1.5-.2 2-1 2-2.1h1.2v.9c0 .7.2.8.9.8h1c.5 0 .7-.1.8-1-.2 0-.5 0-.6-.2 0 .6 0 .7-.3.7h-.8c-.4 0-.4 0-.4-.3v-1h2v5c.2 0 .2.2 0 .2h-1.5l.3.7c.8 0 1.2 0 1.7-.2.3.1.4-.3.4-.7v-5.6h-2.1l.5-1zm3.9 1.4v-1.2h1.3l-.9 1.2zm1.5 3.2H463v-1h2.4zm-2.5 1.6v-1h2.4v1zm3.1-7.5a14 14 0 0 1-.9 1.4v-.6h-1.1v-.9h-.7v.8h-1.6v.8h1.6v1.2h-2v.6h2.4a9.5 9.5 0 0 1-2.6 1.9l.4.6.8-.5v3.4h.7v-.6h2.3v.5h.6v-4.3h-2.3l1-1h1.8v-.6h-1.3a12 12 0 0 0 1.5-2.5zm3.9.2h-3.1v8.7h.8v-8h1.8l-1.2 2.7c1 .9 1.4 1.6 1.4 2.3 0 .3 0 .6-.3.8a1 1 0 0 1-.5 0 4 4 0 0 1-.8.1l.2.8h1l.5-.4c.5-.2.6-.6.6-1.3 0-.7-.4-1.4-1.4-2.4l1.5-3zm3.8 3.9h4.4v1.1h-4.4zm4.4-3.2v.9h-4.4v-.9zm-4.4 1.6h4.4v1h-4.4zm6.5 3.4v-.7H479v-5h-5.9v4.9h-1.6v.8h2.8l-1.5 1.5-.7.4a4 4 0 0 1 .3.7c.3-.1.9-.2 6.4-.4l.6.7.7-.4a17.3 17.3 0 0 0-2.4-2.3l-.7.3 1.3 1-4.8.4a14 14 0 0 0 1.8-1.9zm0 0" style="fill:none;stroke:#fff;stroke-width:3;stroke-linecap:butt;stroke-linejoin:round;stroke-miterlimit:10;stroke-opacity:.6" transform=" rotate(  340 467.672 202.512) "/> <g style="fill:#212121;fill-opacity:1" transform=" rotate(  340 467.672 202.512) ">  <use xlink:href="#u" x="450.9" y="216.1"/>  <use xlink:href="#v" x="460.9" y="216.1"/>  <use xlink:href="#w" x="470.9" y="216.1"/> </g></svg>