<svg xmlns="http://www.w3.org/2000/svg" xmlns:xlink="http://www.w3.org/1999/xlink" viewBox="0 0 497 279"> <defs overflow="visible" style="stroke:none">  <path id="k" d="M2 0c-.6 0-.9 0-1.2-.3C.6-.7.5-1 .5-1.7c0-.5 0-1 .2-1.4 0-.5.3-.9.5-1.2.2-.4.5-.7.8-.8a2 2 0 0 1 1.1-.4c.4 0 .7.1.9.3l.5.7a35.3 35.3 0 0 1 .2-1.3l.4-1.8H6L4.4 0h-.8l.1-1-.8.8c-.3.2-.6.2-.9.2Zm.1-.5c.4-.1.6-.2.9-.5l.5-.5.5-1 .2-1.1c0-.4-.2-.6-.3-.8-.1-.2-.4-.3-.7-.3-.3 0-.5 0-.8.2l-.4.7-.5 1-.1 1.1c0 .7.3 1 .8 1Zm.1-.1"/>  <path id="j" d="M2.1-6.3h-.3l-.1-.5.1-.4.4-.2c.3 0 .5.2.5.5 0 .2 0 .4-.2.5l-.4.2ZM-.6 2.4l-.7-.1v-.7h.6c.4.1.7-.2.8-.9l1.3-6h.9L1 .8.5 2c-.3.3-.6.4-1.1.4Zm0 0"/>  <path id="i" d="M-.5 2.4h-.3l-.3-.1v-.7h.5c.3.1.6.1.6-.1l.3-1 1.1-5.2h-1L.7-5l.9-.4v-.5l.6-1c0-.3.2-.5.4-.6a2 2 0 0 1 .9-.2l.5.1.4.1-.2.7h-.3L3.5-7c-.2 0-.4 0-.5.3l-.5.8v.5h.9v.7H2.3L1.2.6C1 1.2.9 1.6.6 2c-.2.2-.6.4-1 .4Zm0 0"/>  <path id="h" d="M2.4 0c-.6 0-1 0-1.4-.3C.6-.8.5-1.3.5-2c0-.3 0-.8.2-1.2 0-.4.3-.8.5-1.1.2-.4.5-.7.8-.8a2 2 0 0 1 1.2-.4c.5 0 .8.2 1.1.5.3 0 .4.4.4.8 0 .3-.1.7-.3 1-.4.2-.6.4-1 .6-.6.2-1.2.3-1.9.3h-.1v.3c0 .5 0 .8.3 1 .2.3.5.4.9.4l.7-.1A5 5 0 0 0 4-1v.7a6 6 0 0 1-.7.3h-.9Zm-.9-3 1.3-.1.7-.4c.2-.1.3-.4.3-.5l-.1-.6-.7-.1c-.2 0-.5.1-.9.4L1.6-3Zm0 0"/>  <path id="g" d="m1.9 2.4-1-.1-.6-.2v-.9c.2.2.5.2.7.4a3 3 0 0 0 .8.1c.4 0 .8-.1 1-.3.3-.2.5-.6.6-1l.1-.4.1-.5.1-.5-.8.8c-.3.2-.6.2-.9.2s-.8-.1-1-.4C.6-.7.5-1 .5-1.7c0-.5 0-1 .2-1.4 0-.5.3-.9.5-1.2.2-.4.5-.7.8-.8a2 2 0 0 1 1.1-.4c.4 0 .7.1.9.3l.5.7.3-.9h.7L4.3.3c-.2.8-.5 1.3-.9 1.7-.4.2-1 .4-1.4.4Zm.3-3c.3 0 .5-.1.8-.4l.5-.5.5-1 .2-1.1c0-.4-.2-.6-.3-.8-.1-.2-.4-.3-.7-.3-.3 0-.5 0-.7.2-.3.2-.5.5-.6.7l-.4 1-.1 1.1c0 .7.3 1 .8 1Zm0 0"/>  <path id="f" d="m.2 0 1.2-5.4h.8l-.2 1 .5-.6a2 2 0 0 1 .6-.3l.9-.2c.3 0 .6.1.9.5.1 0 .4.4.4.9v.4l-.2.5L4.4 0h-.9l.7-3.4v-.4l.2-.2c-.1-.5-.3-.7-.8-.7-.2 0-.4 0-.6.2-.3.2-.6.5-.8.8-.2.3-.4.8-.5 1.4L1.2 0Zm0 0"/>  <path id="e" d="M2 0c-.6 0-.9 0-1.2-.3C.6-.7.5-1 .5-1.7c0-.5 0-1 .2-1.5l.5-1.1c.2-.4.5-.7.8-.9a2 2 0 0 1 1.1-.3c.4 0 .6.1.9.3l.5.7.3-.9h.7L4.4 0h-.7l.1-1c-.3.3-.5.6-.9.8-.3.2-.6.2-.9.2Zm.1-.5c.4-.1.6-.2.9-.5l.6-.6a4 4 0 0 0 .4-1 3 3 0 0 0 .1-.7 4 4 0 0 0 0-.4c.1-.3.1-.5-.1-.7-.3-.2-.5-.3-.8-.3-.3 0-.5 0-.7.2a2 2 0 0 0-.6.7l-.4 1-.1 1.1c0 .4 0 .6.2.8.1.2.3.3.6.3Zm.1-.1"/>  <path id="d" d="M1.5 0H.7L0-.2V-1l.7.3h.8c.5.1.7.1 1-.1l.1-.7c.1-.1.1-.3-.1-.4 0-.2-.3-.3-.7-.5L1-3.1c-.2-.2-.3-.5-.3-.8 0-.5.1-.9.5-1.1.3-.3.7-.5 1.3-.5.3 0 .6 0 .9.2l.6.2-.2.7-.5-.2-.8-.1c-.3 0-.5 0-.7.2-.2.1-.2.3-.2.5l.1.5.7.5c.3 0 .6.2.6.4.2 0 .4.2.5.4l.1.7c0 .5-.2 1-.5 1.2C2.7 0 2 0 1.5 0Zm0 0"/>  <path id="c" d="m.3 0 1.1-5.4h.7v1l.4-.5.5-.4.7-.2H4l.3.2-.2.7h-.5c-.3-.1-.6-.1-.9.2l-.7.9-.3 1L1.2 0Zm0 0"/>  <path id="b" d="M2.5 0C1.9 0 1.4 0 1-.4.7-.8.5-1.3.5-2l.1-1.2a4 4 0 0 1 .5-1.1c.3-.3.5-.7.9-.8.3-.2.7-.3 1.2-.3.6 0 1 .2 1.4.4.4.5.6 1.1.6 1.6L5-2a4 4 0 0 1-.5.9c-.2.5-.5.8-.8 1L2.5 0Zm0-.6c.5-.1.6-.1 1-.4.1-.2.3-.5.5-1 .2-.3.3-.8.3-1.4L4.2-4a1 1 0 0 0-.4-.5l-.6-.2c-.4 0-.7.1-1 .4-.2.2-.5.6-.6 1A4 4 0 0 0 1.4-2c0 .5 0 .8.3 1 .2.2.5.3.8.3Zm0-.1"/>  <path id="a" d="M.4 0 2-7.1h1.5c.8 0 1.3.1 1.7.5.3.3.5.8.5 1.3 0 .8-.3 1.5-.8 1.9-.6.4-1.3.6-2.4.6H2L1.3 0ZM2-3.5h.7c.6 0 1.1-.2 1.5-.5.4-.2.6-.7.6-1.3 0-.2-.2-.5-.4-.7-.2-.3-.4-.4-1-.4h-.7Zm0 0"/>  <path d="M1 0v-7.1h4V0Zm.4-.5h3.1v-6.1h-3Zm.1 0"/> </defs> <image xlink:href="svg/8/1_20.jpg" width="497" height="279"/> <path d="m129 42.5 1.7-7.2h1.5c.8 0 1.3.2 1.8.5.2.4.4.8.4 1.4 0 .8-.4 1.4-.9 1.8-.5.5-1.3.7-2.3.7h-.6l-.6 2.8zm1.8-3.6h.6c.6.1 1.1-.1 1.5-.4.4-.3.6-.7.6-1.3 0-.4-.2-.7-.5-.8 0-.2-.4-.4-.9-.4h-.8zm6 3.7c-.6 0-1-.2-1.4-.6-.4-.4-.6-.9-.6-1.5 0-.5 0-.8.2-1.2a4 4 0 0 1 .5-1.1c.2-.4.5-.6.8-.9l1.2-.3c.6 0 1.1.2 1.5.6.3.4.5.9.5 1.5 0 .4 0 .9-.2 1.2a4 4 0 0 1-.5 1.1c-.2.4-.5.6-.8.9-.3.2-.7.3-1.2.3zm0-.8c.5 0 .8 0 1.1-.3l.5-1 .2-1.5v-.6a1 1 0 0 0-.5-.4c-.1-.2-.3-.2-.6-.2s-.7 0-1 .2l-.5 1.1a4 4 0 0 0-.3 1.4c0 .5.1.8.3 1 .2.2.5.3 1 .3zm3.5.7 1.1-5.5h.7v1.1l.4-.5.5-.4.7-.2h.6l-.3 1h-.4c-.4-.2-.7-.2-1 0l-.6 1-.3 1-.7 2.5zm5.2.1-.8-.1c-.3 0-.5-.2-.7-.3v-.8l.7.3.8.1c.4 0 .7 0 .9-.2.2-.1.3-.3.3-.6 0-.2 0-.3-.2-.5l-.7-.5-.9-.6c-.2-.2-.2-.5-.2-.9s.1-.8.3-1c.5-.4 1-.5 1.5-.5l.9.1.6.3-.2.6-.6-.1-.7-.1c-.3 0-.6 0-.7.2-.2 0-.3.3-.3.5s0 .3.2.4c.1.2.4.3.7.5l.6.4.4.5.2.6c0 .6-.2 1.1-.6 1.3-.3.2-.9.4-1.5.4zm4.7 0c-.4 0-.8-.2-1-.6-.3-.2-.4-.7-.4-1.3 0-.5 0-1 .2-1.4 0-.3.3-.8.5-1.2l.8-.8a2 2 0 0 1 1.1-.3l.9.3.4.6h.1l.3-.8h.7l-1.2 5.4h-.6l.1-1-1 .8c-.1.2-.5.3-.9.3zm.3-.8c.3 0 .5 0 .7-.2.3-.2.5-.4.8-.8a4 4 0 0 0 .3-1 3 3 0 0 0 .1-.5 4 4 0 0 0 0-.5c0-.3 0-.5-.2-.7-.2-.2-.4-.3-.7-.3-.3 0-.5 0-.7.2a2 2 0 0 0-.6.7l-.4 1-.1.9c0 .6 0 .9.2 1.1.1.1.3.1.6.1zm3.7.7 1.2-5.5h.6v1c0-.1.2-.3.4-.4a2 2 0 0 1 .6-.4c.3-.2.6-.2.8-.2.5 0 .8 0 1 .3.4.3.5.7.5 1v.9l-1 3.3h-.9l.9-3.5v-.6c0-.4-.1-.6-.6-.6-.3 0-.6 0-.7.2-.4.2-.6.4-.8.8-.2.2-.4.8-.5 1.4l-.5 2.3zm7.4 2.4-.9-.1c-.3 0-.5-.2-.7-.3v-.8l.7.3a3 3 0 0 0 .9.1c.4 0 .7 0 1-.3.3-.2.5-.5.6-1v-.3l.3-.5v-.5l-.8.8c-.3.2-.6.3-1 .3s-.8-.2-1-.6c-.4-.2-.6-.7-.6-1.3l.3-1.4.6-1.1c.2-.4.4-.7.8-.9a2 2 0 0 1 1-.3c.5 0 .8.1 1.1.3l.2.6.6-.8h.6l-1.3 5.7c-.1.7-.4 1.2-1 1.6-.1.3-.7.5-1.3.5zm.4-3 .7-.4.6-.6.4-.9c.3-.3.3-.7.3-1 0-.6 0-.8-.3-1-.2-.1-.4-.2-.8-.2-.2 0-.5 0-.7.2l-.6.7-.3 1-.3 1c.1.9.4 1.2 1 1.2zM168 42.6c-.7 0-1.1-.2-1.5-.6-.3-.3-.5-.8-.5-1.4 0-.6 0-.9.2-1.3l.5-1.3.9-.7a2 2 0 0 1 1.1-.3c.5 0 .9.1 1.1.3.3.3.4.7.4 1 0 .3 0 .6-.2 1l-1 .5c-.6.3-1.1.4-2 .4v.3c0 .5 0 .8.2 1 .2.2.5.3 1 .3h.5a5 5 0 0 0 .9-.5v.9a6 6 0 0 1-.8.3h-.8zm-1-3.2h1.3c.3-.2.7-.3.8-.4.2-.2.3-.4.3-.7 0-.1 0-.3-.2-.3l-.5-.3c-.4 0-.7.3-1 .5-.3.3-.5.7-.6 1.2zm3.8 3.1L172 37h.7l-.1 1.1.5-.5.5-.4.6-.2h.6l-.2 1h-.5c-.3-.2-.6-.2-.9 0l-.6 1-.4 1-.5 2.5zm3.2 2.4h-.3l-.3-.2V44l.3.1h.3c.2 0 .4 0 .5-.3.2-.2.3-.4.3-.8l1.2-5.2h-1v-.4l1-.3.3-.5c-.1-.5.1-.8.3-1 .1-.4.3-.6.6-.6a2 2 0 0 1 .8-.2h.5l.5.2-.3.7-.3-.1h-.3c-.3-.1-.5-.1-.7.1l-.3.9-.1.5h1v.7h-1.2l-1 5.2c-.3.6-.5 1.1-.8 1.4 0 .3-.5.5-.9.5zm5.8-8.7-.3-.1-.1-.3.1-.5.4-.2c.3 0 .5.2.5.5 0 .2 0 .3-.2.4l-.4.2zm-2.7 8.8-.7-.2V44l.3.1h.3c.4 0 .7-.3.8-1l1.3-5.9h.9l-1.3 6c-.1.5-.3 1-.5 1.2-.3.3-.6.6-1.2.6zm5.7-2.4c-.8 0-1.2-.2-1.5-.6-.4-.4-.5-.9-.5-1.5l.1-1.2a4 4 0 0 1 .5-1.1c.2-.4.6-.6.9-.9.3-.2.7-.3 1.1-.3.7 0 1.1.2 1.6.6.3.4.4.9.4 1.5l-.1 1.2a4 4 0 0 1-.5 1.1l-.9.9c-.3.2-.7.3-1.1.3zm0-.8c.3 0 .6 0 .9-.3.2-.2.5-.5.6-1 .2-.4.2-.9.2-1.5v-.6a1 1 0 0 0-.5-.4c-.1-.2-.3-.2-.6-.2s-.6 0-.9.2c-.3.4-.5.7-.6 1.1a4 4 0 0 0-.2 1.4c0 .5 0 .8.2 1 .3.2.5.3 1.1.3zm3.4.7 1.1-5.5h.8l-.2 1.1.6-.5.5-.4.6-.2h.6l-.2 1h-.5c-.3-.2-.6-.2-.9 0-.2.4-.5.6-.6 1l-.4 1-.5 2.5zm5.4.1c-.4 0-.8-.2-1-.6-.3-.2-.4-.6-.4-1.3l.1-1.4c.2-.3.3-.8.7-1.1 0-.4.4-.7.7-.9a2 2 0 0 1 1.1-.3c.4 0 .6.1.9.3l.3.6h.2a35.3 35.3 0 0 1 .2-1.3l.4-1.6h.9l-1.7 7.5h-.7l.1-1-.8.8c-.3.2-.6.3-1 .3zm.4-.8c.1 0 .4 0 .6-.2l.6-.7.5-.9.2-1c0-.6-.1-.8-.3-1-.1-.1-.4-.2-.6-.2-.4 0-.7 0-1 .2l-.4.7-.4 1-.2 1c0 .9.3 1.2.9 1.2zm5.9.8c-.6 0-1.1-.2-1.4-.6-.5-.3-.5-.8-.5-1.4v-1.3l.7-1.3.8-.7a2 2 0 0 1 1.1-.3c.5 0 1 .1 1.2.3.2.3.4.7.4 1 0 .3-.2.6-.4 1l-1 .5c-.4.3-1 .4-1.8.4v.3c-.1.5-.1.8 0 1 .3.2.6.3 1.1.3h.7a5 5 0 0 0 .7-.5v.9a6 6 0 0 1-.7.3h-.9zm-1-3.2h1.3c.4-.2.7-.3.8-.4.2-.2.3-.4.3-.7 0-.1 0-.3-.2-.3l-.5-.3c-.3 0-.7.3-1 .5-.2.3-.5.7-.6 1.2zM200.7 42.5l1.2-5.5h.7v1c-.1-.1.1-.3.4-.4a2 2 0 0 1 .6-.4c.2-.2.4-.2.7-.2.5 0 .8 0 1 .3.4.3.5.7.5 1v.9l-1 3.3h-.8l.8-3.5v-.6c0-.4-.1-.6-.6-.6-.2 0-.6 0-.8.2-.4.2-.5.4-.7.8-.2.2-.4.8-.5 1.4l-.5 2.3zm0 0" style="fill:none;stroke:#fff;stroke-width:2;stroke-linecap:butt;stroke-linejoin:round;stroke-miterlimit:10;stroke-opacity:.6" transform="rotate(  340 155.292 107.185) translate(-12.121188,67.711467)"/> <g style="fill:#4c7fb3;fill-opacity:1" transform=" rotate(  340 155.292 107.185) ">  <use xlink:href="#a" x="116.6" y="110.2"/>  <use xlink:href="#b" x="122.2" y="110.2"/>  <use xlink:href="#c" x="127.9" y="110.2"/>  <use xlink:href="#d" x="131.8" y="110.2"/>  <use xlink:href="#e" x="136.2" y="110.2"/>  <use xlink:href="#f" x="141.8" y="110.2"/>  <use xlink:href="#g" x="147.6" y="110.2"/>  <use xlink:href="#h" x="153.4" y="110.2"/>  <use xlink:href="#c" x="158.4" y="110.2"/>  <use xlink:href="#i" x="162.4" y="110.2"/>  <use xlink:href="#j" x="165.6" y="110.2"/>  <use xlink:href="#b" x="168.2" y="110.2"/>  <use xlink:href="#c" x="173.8" y="110.2"/>  <use xlink:href="#k" x="177.6" y="110.2"/>  <use xlink:href="#h" x="183.4" y="110.2"/>  <use xlink:href="#f" x="188.3" y="110.2"/> </g></svg>