<svg xmlns="http://www.w3.org/2000/svg" xmlns:xlink="http://www.w3.org/1999/xlink" viewBox="0 0 497 279"> <defs overflow="visible" style="stroke:none">  <path id="k" d="M4-6.5v-.7H2.1l.4-1h-.7C1.5-7.4 1-6.5.4-6l.4.8 1-1.3Zm-1.3 6v-2.4H4v-.5H2.7v-1.4h1.1v-.7H1.1v.7h1v1.4H.5v.6H2v2.1c0 .5-.3.7-.5.9l.5.5c0-.2.3-.3 2-1.3v-.6ZM5.9-1C5.5-.6 4.7 0 4 .3l.5.5 2-1.4Zm1.3.4L9 .8l.5-.5C9-.1 8.3-.7 7.7-1ZM5.4-2.4h2.8v.6H5.4Zm2.8-3.2v.6H5.4v-.6Zm0 1.6H5.4v-.5h2.8Zm-2.8.5h2.8v.6H5.4ZM9-1.7v-4.6H6.8l.2-.5h2.3v-.6H7.1l.2-.9h-.8l-.1.9h-2v.6h1.8l-.2.6H4.7v4.5H4v.6h5.5v-.6Zm0-.1"/>  <path id="j" d="M8.8-7.7h-5v.7h5ZM6.8-5v3.1c-.1.7 0 .9.7.9h1.1c.6 0 .8-.4.8-1.7l-.6-.2c0 1 0 1.2-.3 1.2h-.8c-.2 0-.3 0-.3-.3v-2.9h2v-.6H3.1v.5h1.7c0 2-.4 3-1.8 3.6a2 2 0 0 1 .3.6c1.8-.7 2.1-2 2.2-4Zm-4-1.6a32.6 32.6 0 0 0-1.7-1.2l-.4.5L2.4-6Zm-.3 1.7h-2v.7h1.3V-1L.4 0l.6.8C1.4 0 2-.5 2.2-.5c.3 0 .6.3 1 .6.7.4 1.5.5 2.8.5h3.4l.2-.9L6 0C4.9 0 4-.1 3.4-.5l-.9-.6Zm0 0"/>  <path id="i" d="m3.6-4-1.2.2v-1.9h1.2v-.7H2.4v-2h-.7v2H.5v.7h1.2v2.2L.3-3l.2.7 1.2-.4v2.5c0 .2 0 .2-.2.2a9 9 0 0 1-1 0c.3.2.4.5.4.7L2 .6c.3-.1.4-.3.4-.8V-3c.4 0 .9-.2 1.3-.4Zm4 3.7c-.3.1-.3.1-.3-.2v-3.7h2.3v-.7H6.4L6.5-7h2.4v-.8H4v.8h1.8c0 .6 0 1.4-.3 2.1H3.6v.7h2C5.2-2.4 4.5-.7 2.7.3c.3 0 .5.3.6.5 2-1.1 2.7-3 3-5h.2v3.7c0 .8.2 1 1 1h1.2c.7 0 .9-.3 1-1.4-.3-.1-.5-.2-.7-.3 0 .9 0 1-.3 1Zm0 .1"/>  <path d="M1 1.2h8v-10H1Zm4-5.4L1.8-8.3h6.4Zm.3.4 3.2-4v8ZM1.8.7l3.2-4L8.2.6Zm-.3-8.6 3.2 4.1L1.5.3Zm0 0"/>  <path id="h" d="M4.8-6.4H6l-2.8 3 3 3.4H5L2-3.3V0H1v-6.4h1v3Zm0 0"/>  <path id="g" d="M3.6.1C3 .1 2.6.1 2-.2s-.7-.6-1-1.1C.7-1.8.6-2.4.6-3.2c.1-.8.1-1.4.4-2 .3-.3.7-.8 1.1-.9.5-.3 1-.4 1.6-.4h1a3 3 0 0 1 .6.4l-.3.8a7 7 0 0 0-.6-.2 3 3 0 0 0-.8-.1c-1.2 0-1.9.8-1.9 2.4.1.8.3 1.4.6 1.8.2.4.7.6 1.3.6l1-.1.6-.3v1l-.7.2-1 .1Zm0 0"/>  <path id="f" d="M6.2-4.8c0 .4-.2.7-.4 1l-.8.3c.3.1.7.3 1 .6.3.2.5.5.5.9-.1.7-.3 1.1-.7 1.5-.4.3-1 .5-2 .5H1v-6.4h2.8l1.2.1c.4.1.7.3 1 .5 0 .3.2.6.2 1Zm-1 .1c-.1-.3-.2-.5-.5-.6-.1-.2-.5-.3-.9-.3H2v1.8h1.5c1 0 1.6-.3 1.6-.9Zm0 2.8c.1-.4 0-.6-.3-.8l-1.3-.2H2.1V-1h1.6c.5.1.9.1 1.2 0 .3-.2.4-.5.4-.9Zm.1 0"/>  <path id="e" d="M6.6-3.2c0 1-.3 1.9-.8 2.5-.5.4-1.3.7-2.2.7a3 3 0 0 1-1.5-.3A2.7 2.7 0 0 1 1-1.4C.7-2 .6-2.5.6-3.2c.1-1.1.3-2 .9-2.5.5-.6 1.2-.8 2.1-.8.6 0 1.1 0 1.6.3.4.3.8.7 1 1.2.3.5.4 1 .4 1.8Zm-4.8 0c0 .7.1 1.2.3 1.8.4.4.9.6 1.5.6.7 0 1.2-.2 1.5-.6.3-.6.4-1 .4-1.8S5.4-4.6 5.1-5c-.3-.4-.8-.7-1.5-.7-.6 0-1.1.3-1.4.7-.3.4-.5 1-.5 1.8Zm0 0"/>  <path id="d" d="M4-6.5c1 0 1.6.2 2 .8.5.5.7 1.4.7 2.5 0 1-.2 2-.7 2.5-.5.5-1.1.7-2 .7-.3.1-.7.1-1.1-.2a2.5 2.5 0 0 1-.8-.6H2v3.7H1v-9.3h1v.8l.9-.7 1.2-.2Zm0 .8c-.8 0-1.2.2-1.5.7-.3.3-.4.9-.4 1.6v.2c-.1.8.1 1.4.4 1.8.2.4.7.6 1.4.6.4 0 .7 0 1.1-.2 0-.3.3-.6.4-1a4 4 0 0 0 .2-1.2c0-.8-.1-1.4-.4-1.8-.3-.4-.7-.7-1.3-.7Zm-.1 0"/>  <path id="c" d="M.7-3.9c0-1.4.2-2.5.6-3.3.4-.7 1.1-1.2 2-1.4a36.8 36.8 0 0 1 3.1-.6l.1 1h-1a182.5 182.5 0 0 0-2 .5 2 2 0 0 0-1.1.9C2-6.5 2-6 1.8-5H2a2.7 2.7 0 0 1 1.1-1H4c.7 0 1.4.2 1.8.7.5.7.7 1.4.7 2.3 0 .6 0 1.2-.3 1.7s-.6.8-1 1c-.6.3-1.1.5-1.7.5C2.7.1 2-.2 1.5-.9c-.6-.7-.8-1.7-.8-3Zm3 3.1c.5 0 1 0 1.2-.3.4-.5.5-1.2.5-1.9 0-.6-.1-1.2-.4-1.5-.2-.5-.6-.6-1-.6a2 2 0 0 0-1.1.1l-.7.7c-.2.2-.4.3-.4.5v1.1l.3 1 .6.7c.3.2.6.3 1 .3Zm0 0"/>  <path id="b" d="M3.5-6.5c.7 0 1.3.1 1.7.5.4.3.6.9.6 1.6V0H5l-.2-1c-.4.5-.7.8-1.1 1H2.6C2 .1 1.6 0 1-.3.7-.6.5-1.1.5-1.8c0-.6.3-1.1.8-1.5.5-.3 1.3-.5 2.3-.5h1.1v-.6c0-.4 0-.8-.3-.9-.4-.4-.6-.5-1-.5a3 3 0 0 0-1 .3c-.3 0-.6.2-.8.3L1.3-6l1-.4 1.2-.1Zm1.2 3.4h-1c-.7 0-1.2.1-1.5.4-.4.2-.6.5-.6 1 0 .2.1.5.4.7.2.2.5.3.8.3.6 0 1-.3 1.4-.5.3-.3.5-.7.5-1.4Zm0 0"/>  <path id="a" d="M7 0H5.8L3.5-3.7 1.2 0H0l3-4.5-2.8-4h1.2l2.1 3.2 2.1-3.3h1.2L4-4.5Zm0 0"/>  <path d="M1.1 0v-8.6h5V0Zm.6-.6h3.8V-8H1.7Zm0 0"/> </defs> <image xlink:href="svg/8/23_4.jpg" width="497" height="279"/> <path d="M5.6 3A2.6 2.6 0 1 1 .4 3a2.6 2.6 0 0 1 5.2 0zm0 0" style="fill:#f8f8f5;fill-opacity:1;fill-rule:nonzero;stroke:#6e6e59;stroke-width:.8;stroke-linecap:butt;stroke-linejoin:miter;stroke-miterlimit:4;stroke-opacity:1" transform="translate(112.71042,63.305731)"/> <path d="M92 61.3h-1.2l-2.3-3.7-2.3 3.7h-1.1l2.8-4.5-2.6-4h1.2l2 3.2 2.3-3.3h1l-2.6 4.1zm3.5-6.5c.8 0 1.5.1 1.8.5.3.3.5.9.5 1.6v4.4h-.7l-.2-.9h-.1l-.9.8-1.3.2c-.5 0-1-.1-1.4-.4-.4-.3-.6-.8-.6-1.5 0-.5.4-1.1.8-1.5.5-.3 1.3-.5 2.3-.5h1.1V57c0-.5-.1-.9-.4-1-.2-.4-.4-.5-1-.5a3 3 0 0 0-.8.3l-1 .2-.3-.7 1-.3 1.2-.2zm1.3 3.4h-1c-.8 0-1.3.2-1.6.4-.3.2-.5.4-.5 1 0 .2.1.5.3.6.3.3.5.4 1 .4.4 0 .9-.2 1.2-.6.4-.2.6-.6.6-1.3zm2.7-.8c0-1.4.2-2.4.5-3.3.5-.7 1.2-1.1 2.1-1.4a36.8 36.8 0 0 1 3.1-.7l.1 1.1-1 .1a182.5 182.5 0 0 0-2 .4 2 2 0 0 0-1.1.8c-.4.4-.5 1-.6 2h.1a2.7 2.7 0 0 1 1.3-1h.9c.6-.1 1.3.1 1.7.6.5.7.7 1.4.7 2.2 0 .8 0 1.3-.3 1.8s-.6.8-1 1c-.6.4-1 .5-1.7.5-.8-.1-1.5-.4-2-1.1-.6-.7-.8-1.7-.8-3zm3 3.2c.5 0 1-.2 1.2-.6.4-.3.5-1 .5-1.7 0-.6-.1-1.2-.4-1.5-.2-.4-.6-.6-1.1-.6a2 2 0 0 0-1 .2l-.7.6c-.2.2-.4.3-.4.5v1.1l.4 1 .5.7c.3.2.6.3 1 .3zm6.9-5.8c.8 0 1.4.1 1.8.5.4.3.6.9.6 1.6v4.4h-.8l-.2-.9-1.1.8-1.1.2c-.6 0-1.1-.1-1.6-.4-.3-.3-.5-.8-.5-1.5 0-.5.3-1.1.8-1.5.5-.3 1.3-.5 2.3-.5h1.1V57c0-.5 0-.9-.3-1-.4-.4-.6-.5-1-.5a3 3 0 0 0-1 .3c-.3 0-.6.2-.8.2l-.3-.7 1-.3 1-.2zm1.3 3.4h-1c-.7 0-1.2.2-1.5.4-.4.2-.6.4-.6 1 0 .2.1.5.4.6.2.3.5.4.8.4.6 0 1-.2 1.4-.6.3-.2.5-.6.5-1.3zm6.1-3.4c.8 0 1.4.2 2 .8.3.4.5 1.4.5 2.4.1 1-.1 2-.6 2.6-.5.4-1.1.8-2 .8-.3 0-.7 0-1-.3a2.5 2.5 0 0 1-.9-.6v3.7h-1v-9.3h.7l.3.8c.2-.2.4-.5.8-.6.3-.2.7-.3 1.2-.3zm-.2.8c-.6 0-1.1.2-1.4.6-.2.4-.4 1-.4 1.7v.1c0 .9.1 1.5.4 1.9.2.4.7.7 1.4.7.4 0 .7-.2 1-.4l.6-.8a4 4 0 0 0 .1-1.4c0-.7 0-1.3-.3-1.7-.4-.4-.8-.7-1.4-.7zm10.1 2.4c0 1.2-.3 2-.7 2.7-.6.3-1.4.7-2.3.7a3 3 0 0 1-1.5-.4 2.7 2.7 0 0 1-1-1c-.4-.6-.5-1.2-.5-1.9.1-1.1.3-2.1.9-2.5.4-.6 1.2-.8 2.1-.8.6 0 1.3 0 1.6.2.4.4.7.8 1 1.3.3.5.4 1 .4 1.7zm-4.7 0c-.1.9 0 1.5.3 2 .3.3.8.6 1.4.6.7 0 1.3-.3 1.5-.7.3-.5.4-1 .4-1.9s-.1-1.3-.4-1.7c-.3-.4-.8-.7-1.5-.7-.6 0-1.1.4-1.4.7-.3.4-.4 1-.4 1.7zm11.6-1.5c0 .4-.2.7-.4 1l-1 .3c.6.2.8.3 1.2.6.2.2.4.5.4 1 0 .6-.2 1-.8 1.4-.3.2-.9.5-1.9.5h-2.6v-6.4h2.5l1.4.1.8.5c.2.3.4.6.4 1zm-1.1.1c0-.3-.1-.5-.3-.6-.3-.2-.6-.3-1.2-.3h-1.6v1.8h1.6c.9 0 1.5-.3 1.5-.9zm.2 2.8c0-.3-.2-.6-.5-.8l-1.2-.2h-1.6v2h1.6c.6 0 1 0 1.2-.2.3-.1.5-.4.5-.8zm5.2 2c-.6 0-1.1 0-1.5-.3-.5-.3-.8-.6-1.1-1.1-.2-.5-.4-1.1-.4-2 .1-.7.2-1.3.4-1.8.3-.5.7-.9 1.1-1.1l1.5-.3h1.1a3 3 0 0 1 .6.4l-.3.8a7 7 0 0 0-.7-.2 3 3 0 0 0-.6-.1c-1.3 0-2 .8-2 2.3 0 1 .2 1.5.5 2 .3.3.8.5 1.4.5l.9-.1c.2 0 .5-.2.7-.3v1l-.7.2-1 .1zm7-6.5h1.1l-2.7 3 3 3.5H145l-2.9-3.4v3.3h-1v-6.4h.9v3zm0 0" style="fill:none;stroke:#fff;stroke-width:3;stroke-linecap:butt;stroke-linejoin:round;stroke-miterlimit:10;stroke-opacity:.6" transform=" rotate(  340 118.309 66.3047) "/> <g style="fill:#212121;fill-opacity:1" transform=" rotate(  340 118.309 66.3047) ">  <use xlink:href="#a" x="85" y="61.3"/>  <use xlink:href="#b" x="92.1" y="61.3"/>  <use xlink:href="#c" x="98.8" y="61.3"/>  <use xlink:href="#b" x="106" y="61.3"/>  <use xlink:href="#d" x="112.7" y="61.3"/>  <use xlink:href="#e" x="120.1" y="61.3"/>  <use xlink:href="#f" x="127.4" y="61.3"/>  <use xlink:href="#g" x="134.3" y="61.3"/>  <use xlink:href="#h" x="140" y="61.3"/> </g> <path d="M3.8 2A1.7 1.7 0 1 1 .3 2a1.7 1.7 0 0 1 3.5 0zm0 0" style="fill:#fdfdfa;fill-opacity:1;fill-rule:nonzero;stroke:#3f3f35;stroke-width:.5;stroke-linecap:butt;stroke-linejoin:miter;stroke-miterlimit:4;stroke-opacity:1" transform="translate(40.581708,104.36078)"/> <path d="M26.2 94.6 25 95v-2h1.2v-.7H25v-2h-.7v2H23v.7h1.3v2.2l-1.4.4.1.7 1.3-.4v2.6c0 .1 0 .2-.3.2a9 9 0 0 1-1 0l.4.7c.6 0 1 0 1.2-.2.4-.1.4-.2.4-.7v-2.8l1.3-.4zm4 3.9c-.3 0-.4 0-.4-.3v-3.7h2.3v-.7H29l.1-2.2h2.3v-.7h-4.8v.7h1.7l-.1 2.2h-2v.7h2c-.5 1.7-1.1 3.4-2.9 4.4l.6.5c1.9-1 2.6-3 3.1-5v3.9c.1.6.3.9 1.1.9h1.2c.6 0 .8-.4 1-1.5-.3 0-.7-.2-.8-.3.1 1 0 1-.3 1zM41.4 91h-5v.5h4.9zm-2.1 2.7v3.1c0 .5.2.8.9.8h1c.4.1.6-.3.8-1.6l-.6-.2c0 1-.1 1.2-.4 1.2h-.7c-.3 0-.3 0-.3-.3v-3h2v-.5h-6.3v.6h1.7c-.1 1.8-.4 2.8-2 3.4a2 2 0 0 1 .6.6c1.6-.7 2-2 2.1-4zM35.5 92a32.6 32.6 0 0 0-1.8-1.2l-.5.5 1.8 1.3zm-.5 1.8h-1.9v.6h1.2v3.2c-.3.2-.9.6-1.3 1.2l.5.6c.5-.7 1-1.2 1.3-1.2l1 .5c.7.5 1.5.6 2.7.6l3.5-.1c0-.2 0-.6.2-.8l-3.7.2c-1 0-1.9 0-2.5-.5l-.9-.5zm11.6-1.7v-.7h-2l.6-.9-.8-.2c-.4 1-.8 1.8-1.5 2.4l.4.7c.4-.3.7-.8 1-1.3zm-1.3 6v-2.2h1.3v-.7h-1.3v-1.4h1.1v-.6h-2.7v.6h.9v1.4h-1.4v.8h1.4v1.9c0 .5-.3.8-.6 1.1l.5.2 2.1-1.1-.1-.7zm3.2-.5c-.5.4-1.2 1-1.9 1.3l.5.5L49 98zm1.2.5 1.8 1.3.6-.4-1.9-1.4zM48 96.2h2.8v.8H48zm2.8-3.2v.6H48V93zm0 1.7H48V94h2.8zM48 95h2.8v.8H48zm3.5 2v-4.5h-2.1c0-.2 0-.5.2-.7h2.3v-.6h-2.2l.2-.9H49l-.1 1H47v.4h1.9l-.3.8h-1.3v4.4h-.7v.7H52v-.7zm0-.1" style="fill:none;stroke:#fff;stroke-width:3;stroke-linecap:butt;stroke-linejoin:round;stroke-miterlimit:10;stroke-opacity:.6" transform="rotate(  340 44.3321 106.36) translate(5.0156642,21.316573)"/> <g style="fill:#212121;fill-opacity:1" transform=" rotate(  340 44.3321 106.36) ">  <use xlink:href="#i" x="27.6" y="120"/>  <use xlink:href="#j" x="37.6" y="120"/>  <use xlink:href="#k" x="47.6" y="120"/> </g></svg>