<svg xmlns="http://www.w3.org/2000/svg" xmlns:xlink="http://www.w3.org/1999/xlink" viewBox="0 0 497 279"> <defs overflow="visible" style="stroke:none">  <path id="l" d="M3.6.2c-.8 0-1.5-.2-2-.6-.4-.4-.6-1-.6-1.8v-.6l.2-.8L2-8h1.3l-.7 3.5a9.3 9.3 0 0 1 1.8-.2c.9 0 1.5.2 2 .6.2.4.4.9.4 1.5.2.6 0 1-.3 1.4-.2.4-.5.7-1 1C5 0 4.3.2 3.6.2ZM3.7-1c.7 0 1.3-.1 1.5-.4.3-.3.4-.6.4-1 0-.5-.1-.8-.3-1.1H4a8 8 0 0 0-1-.1l-.5.1-.2.7v.5c-.1.4-.1.7.1 1 .4.2.7.3 1.3.3Zm0 0"/>  <path id="k" d="M3.6.2C2.6.2 2-.1 1.5-.7 1-1.3.7-2.1.7-3.2c0-.5 0-1 .3-1.6-.1-.6 0-1.2.3-1.8A10 10 0 0 1 2-8.3l1-1.5c.6-.4 1-.7 1.7-.9l.6-.2a45.4 45.4 0 0 1 3.2-.6l.2 1.1a37.6 37.6 0 0 0-3.7.7c-.5.2-1 .7-1.5 1.2a6.8 6.8 0 0 0-1 2.5l1-1.1a3 3 0 0 1 1.8-.3c.6-.1 1.2.2 1.6.7.3.4.5.9.5 1.9 0 .5 0 1.1-.2 1.8a5.3 5.3 0 0 1-.7 1.6c-.3.5-.7.9-1.2 1.1-.3.3-1 .5-1.7.5ZM3.7-1c.5 0 .8-.1 1.1-.3.3-.3.6-.7.7-1A5 5 0 0 0 6-3.5v-1.1c0-.6 0-1-.2-1.4-.3-.2-.5-.4-1-.4s-.7.1-1 .4a4 4 0 0 0-1 .5l-.5.7v.8l-.3.8c0 .7 0 1.2.4 1.6.3.6.7.7 1.3.7Zm0 0"/>  <path id="j" d="M2.8.2c-.6 0-1-.2-1.4-.6C1-.7.8-1.2.8-1.8v-.7l.2-.6 1-5h1.4L2.3-3a5 5 0 0 0-.1 1c0 .3 0 .6.2.8.2.2.4.2.8.2.3 0 .7-.1 1.1-.3.4-.2.8-.6 1.1-1.2.3-.5.6-1.2.8-2L6.9-8h1.3L6.5 0h-1l.1-1.5a8 8 0 0 1-.8.8L4-.1c-.3.2-.7.3-1.2.3Zm0 0"/>  <path id="i" d="M4.9.2C3.7.2 2.8-.2 2-1c-.6-.7-1-1.7-1-3 0-.6 0-1.2.3-2A8 8 0 0 1 2-7.8a6 6 0 0 1 1-1.5c.6-.5 1.1-.9 1.8-1.2a5.3 5.3 0 0 1 2-.4c1.1 0 2.1.2 2.8.6l-.7 1.1a6.7 6.7 0 0 0-.9-.3 4 4 0 0 0-1-.2c-1 0-1.5.2-2.1.5-.5.4-.9.8-1.3 1.4A6.4 6.4 0 0 0 2.8-6a7.8 7.8 0 0 0-.3 2c0 1 .2 1.7.7 2.2.5.5 1.1.8 2 .8.2 0 .6 0 1-.2l1.3-.3v1.2a7.2 7.2 0 0 1-2.6.5Zm0 0"/>  <path id="h" d="M.3 0h-.6v-1h.4c.2 0 .5 0 .6-.3.3-.1.4-.5.6-1l.5-.7c.3-.3.5-.5.9-.6-.5-.2-.9-.4-1-.7a2 2 0 0 1-.5-1.2c.1-.7.3-1.3.8-1.8.6-.5 1.4-.7 2.5-.7h3L5.8 0H4.5l.7-3.2h-1c-.5 0-.8.2-1 .4l-.7 1-.6 1c-.1.3-.4.5-.6.8h-1Zm3.8-4.2h1.3L6-6.9H4.2c-.4-.1-.8.1-1.2.4-.3.2-.4.5-.4 1s.1.8.4 1l1.1.2Zm0-.1"/>  <path id="g" d="M2.9.2c-.6 0-1.2-.3-1.6-.7C1-1 .7-1.7.7-2.5s.1-1.7.3-2.3a6.3 6.3 0 0 1 .8-1.7 4 4 0 0 1 1.3-1.2 3 3 0 0 1 1.6-.5c.5 0 1 .2 1.3.4l.7 1L7.3-8h1L6.5 0h-1l.2-1.5A6 6 0 0 1 4.3-.3C4 0 3.4.2 3 .2ZM3.3-1c.4 0 .8-.1 1.1-.3a4 4 0 0 0 1-1.1 6 6 0 0 0 .8-2.4v-.7c0-.4-.1-.8-.4-1.1-.2-.4-.6-.5-1-.5s-.7.1-1 .4c-.5.2-.8.6-1.1 1l-.4 1.5c-.3.4-.3.9-.3 1.6 0 .6 0 1 .4 1.3.2.2.5.3 1 .3Zm0 0"/>  <path id="f" d="M.6 0 3-10.7h1.2l-1 4.5H8l1-4.5h1.2L8 0H6.7l1-5H3L2 0Zm0 0"/>  <path id="e" d="M3.9.2c-1.1 0-2-.3-2.4-1C1-1.4.7-2.1.7-3.1S1-5 1.2-5.7a4.1 4.1 0 0 1 1.5-1.8c.6-.4 1.3-.7 2.3-.7.8 0 1.5.2 2 .5.4.4.7.9.7 1.7 0 .5-.2.9-.7 1.2-.3.5-.7.6-1.3.8l1 .6c.3.2.5.6.5 1.1 0 .3-.2.7-.4 1.1-.2.4-.5.7-1 1-.5.2-1.1.4-2 .4ZM2.2-4.5h1.6c.5 0 .9 0 1.3-.2.4 0 .7-.2.9-.3.2-.3.4-.6.4-1a1 1 0 0 0-.4-.8C5.8-7 5.5-7 5-7c-.7 0-1.3.1-1.8.6-.5.4-.8 1-1 1.9ZM4-1c.6 0 1-.1 1.4-.4.3-.2.6-.6.6-1-.1-.2-.3-.6-.6-.7-.3-.3-.8-.4-1.4-.4H2.1v.5c-.1.6.1 1.2.5 1.5.3.5.8.6 1.4.6Zm0 0"/>  <path id="d" d="M-.3 3.6 2-8h1.2L3-6.5c.5-.5.9-.9 1.4-1.2.3-.3.9-.5 1.4-.5.6 0 1.1.3 1.5.7.5.5.7 1.2.7 2S7.9-4 7.7-3.2a6.3 6.3 0 0 1-.8 1.7C6.6-1 6-.6 5.7-.3A3 3 0 0 1 4 .2C3.5.2 3 0 2.7-.3a2.8 2.8 0 0 1-.7-1A10.7 10.7 0 0 1 1.6.2L1 3.6ZM3.9-1c.4 0 .8-.1 1.1-.3l1-1 .4-1.5.2-1.7c0-1-.4-1.5-1.3-1.5-.3 0-.6 0-1 .3l-1 1a5.4 5.4 0 0 0-.8 3.1c-.1.6 0 1 .3 1.2.2.4.6.5 1.1.5ZM4-1"/>  <path id="c" d="m.4 0 1.7-8h1.1L3-6.6h.1l.6-.7c.3-.3.6-.5 1.1-.7 0-.1.4-.2.8-.2.7 0 1.1.2 1.4.5.3.3.5.7.5 1.3l.9-.9.8-.6c.3-.2.7-.3 1.1-.3.7 0 1.1.2 1.5.5.2.4.5.9.5 1.5v.7L12-5l-.9 5H9.8l1-5 .2-.6v-.5c0-.3 0-.5-.2-.7-.2-.2-.5-.3-.8-.3-.4.1-.7.1-1 .4-.4.2-.8.6-1 1.1a6 6 0 0 0-.8 2L6.4 0H5.1L6-5l.4-1c-.1-.4-.2-.6-.4-.8 0-.2-.3-.3-.7-.3-.3.1-.7.1-1 .4-.4.2-.7.6-1 1.1a7.4 7.4 0 0 0-.9 2.1L1.7 0Zm0 0"/>  <path id="b" d="M3.7.2c-.9 0-1.6-.3-2.2-.8C1-1 .7-1.8.7-2.8c0-.8.1-1.5.3-2a5.5 5.5 0 0 1 1-1.9 4 4 0 0 1 1.2-1.1 3.5 3.5 0 0 1 1.7-.4L6-8c.4 0 .7.1 1 .2l-.5 1.1-.7-.3A3 3 0 0 0 5-7c-.6 0-1 0-1.6.4-.4.5-.7 1-1 1.6a5.8 5.8 0 0 0-.3 2.1c-.1.6.1 1.1.4 1.5.5.3.8.4 1.3.4.4 0 .7 0 1-.1l1-.3v1l-1 .4-1.1.2Zm0 0"/>  <path id="a" d="M3.7.1c-1 0-1.6-.1-2.2-.8C1-1.3.7-2 .7-3L1-4.8a5.9 5.9 0 0 1 .7-1.7A4 4 0 0 1 3-7.7C3.5-8 4-8 4.7-8c1-.1 1.7 0 2.3.7.5.5.7 1.3.7 2.3 0 .6 0 1.2-.2 1.8a5.5 5.5 0 0 1-.8 1.7C6.4-1 6-.6 5.5-.3 5 0 4.4 0 3.7 0Zm.1-1c.5-.1 1-.3 1.3-.7.4-.2.7-.7.9-1.3a6.4 6.4 0 0 0 .3-2.3c.1-.3.1-.6-.1-.8a1.5 1.5 0 0 0-.5-.8c-.2-.2-.5-.2-1-.2a2 2 0 0 0-1.3.5C3-6 2.6-5.6 2.3-5a6.2 6.2 0 0 0-.1 2c-.2.8 0 1.3.3 1.6.3.4.7.4 1.3.4Zm0-.1"/>  <path d="M1.4 0v-10.7h6.2V0Zm.8-.8h4.6v-9.1H2.2Zm0 0"/> </defs> <image xlink:href="svg/8/25_26.jpg" width="497" height="279"/> <path d="M411.8 118.2c-.8 0-1.6-.2-2.2-.8-.5-.6-.8-1.4-.8-2.4l.3-1.7a5.9 5.9 0 0 1 .8-1.7 4 4 0 0 1 1.1-1.2c.6-.3 1.2-.4 2-.4s1.5.2 2 .8c.6.5.9 1.2.9 2.2l-.3 1.9a5.5 5.5 0 0 1-.8 1.7c-.3.4-.7.9-1.2 1.2-.6.2-1.1.4-1.8.4zm.2-1c.4-.1 1-.2 1.2-.7.4-.2.8-.7 1-1.3a6.4 6.4 0 0 0 .3-2.3l-.1-.9a1.5 1.5 0 0 0-.6-.7c-.2-.2-.5-.2-1-.2a2 2 0 0 0-1.3.5c-.5.4-.8.9-1 1.5a6.2 6.2 0 0 0-.3 2c0 .8.1 1.3.4 1.6.4.3.8.4 1.4.4zM420.3 118.3c-1 0-1.6-.3-2.3-.8-.4-.5-.7-1.2-.7-2.2 0-.8 0-1.5.3-2a5.5 5.5 0 0 1 .8-1.9 4 4 0 0 1 1.3-1.1 3.5 3.5 0 0 1 1.8-.3h1c.5 0 .7.2 1 .3l-.5 1c0 .1-.3.1-.6-.1a3 3 0 0 0-.9-.1c-.6-.1-1 0-1.5.4-.4.5-.8 1-1 1.6a5.8 5.8 0 0 0-.4 2.1c0 .6.2 1.1.5 1.5.3.3.8.5 1.3.5.4 0 .7 0 1-.2l1-.3v1l-1.1.5-1 .1zm3.5-.2 1.7-8h1v1.4l.5-.7c.4-.3.6-.5 1-.6.3-.2.7-.3 1-.3.7.1 1 .2 1.4.5.2.3.4.6.6 1.3l.6-.9c.4-.2.6-.5 1-.6.3-.2.7-.3 1-.3.8.1 1.3.2 1.6.5.3.4.4.8.4 1.6v.6l-.1.6-1 4.9H433l1.1-5 .3-.6v-.5c-.1-.3-.1-.5-.3-.7-.2-.3-.5-.3-.8-.3-.3 0-.7.1-1 .4-.4.2-.7.6-1 1.1a6 6 0 0 0-.9 2l-.6 3.5h-1.4l1.1-4.9.1-1.1c0-.3 0-.5-.2-.7-.1-.2-.4-.3-.7-.3-.4 0-.7.1-1 .4-.5.2-.9.6-1.2 1.1a7.4 7.4 0 0 0-.7 2.1l-.7 3.5zm12.4 3.6 2.4-11.7h1v1.6c.3-.6.7-.9 1.1-1.2.6-.3 1.1-.4 1.7-.4.5 0 1 .2 1.4.6.4.5.6 1.2.6 2s0 1.6-.2 2.3a6.3 6.3 0 0 1-.8 1.7c-.4.4-.8.9-1.4 1.2a3 3 0 0 1-1.5.5c-.5 0-1-.3-1.3-.5a2.8 2.8 0 0 1-.7-1h-.1a10.7 10.7 0 0 1-.2 1.5l-.7 3.4zm4.2-4.5c.4 0 .8-.2 1.1-.4l.8-1 .7-1.5v-1.7c0-1-.3-1.6-1.2-1.6-.3 0-.7.1-1 .4l-1 1a5.4 5.4 0 0 0-1 3.1c.1.5.2 1 .6 1.2.1.3.5.5 1 .5zm8.5 1c-1 0-1.7-.2-2.2-.8-.5-.6-.8-1.4-.8-2.4 0-.5 0-1 .1-1.7a5.9 5.9 0 0 1 1-1.7 4 4 0 0 1 1.2-1.2c.5-.3 1-.4 1.7-.4 1.1 0 1.7.2 2.2.8.5.5.9 1.2.9 2.2 0 .7 0 1.3-.3 1.9a5.5 5.5 0 0 1-.8 1.7c-.3.4-.9.9-1.3 1.2-.5.2-1 .4-1.6.4zm0-1c.6-.1 1.1-.2 1.5-.7.3-.2.6-.7.8-1.3a6.4 6.4 0 0 0 .4-2.3c0-.3 0-.6-.2-.9a1.5 1.5 0 0 0-.4-.7c-.4-.2-.7-.2-1.1-.2a2 2 0 0 0-1.4.5c-.4.4-.7.9-1 1.5a6.2 6.2 0 0 0-.2 2c-.1.8.1 1.3.4 1.6.3.3.7.4 1.3.4zM457.5 118.3c-1.1 0-2-.3-2.4-1-.5-.6-.8-1.3-.8-2.3s.2-1.9.5-2.6a4.1 4.1 0 0 1 1.5-1.8c.6-.4 1.4-.7 2.3-.7.9.1 1.5.2 2 .5.4.4.7.9.7 1.6 0 .6-.2 1-.6 1.3-.3.4-.7.7-1.4.7l1 .7c.4.3.6.5.6 1.1l-.4 1.1c-.2.4-.6.7-1 1.1-.7 0-1.3.3-2.1.3zm-1.7-4.7h1.7c.4 0 .8 0 1.2-.2.4 0 .7-.2 1-.4.1-.2.3-.5.3-1a1 1 0 0 0-.3-.7c-.2-.2-.7-.3-1-.3-.9 0-1.5.2-2 .7-.4.3-.7 1-.9 1.9zm1.8 3.6c.6 0 1.1-.2 1.4-.5.3-.2.5-.6.5-1 0-.2-.2-.5-.5-.7-.3-.3-.8-.4-1.4-.4h-2v.4c.1.7.4 1.3.7 1.6.2.4.7.6 1.3.6zM414 136l2.1-10.7h1.4l-1 4.5h4.9l.9-4.5h1.2l-2.2 10.7H420l1-5h-4.7l-1 5zm13.2.1c-1 0-1.6-.1-2.2-.8-.5-.6-.8-1.3-.8-2.3l.3-1.8a5.9 5.9 0 0 1 .7-1.7 4 4 0 0 1 1.3-1.2c.5-.3 1-.3 1.7-.3 1-.1 1.8 0 2.2.7.6.6.8 1.3.8 2.3 0 .6 0 1.2-.2 1.8a5.5 5.5 0 0 1-.8 1.7c-.2.5-.7.9-1.2 1.2-.5.3-1.1.3-1.8.3zm0-1c.7-.1 1.1-.3 1.5-.7.3-.2.6-.7.9-1.3a6.4 6.4 0 0 0 .2-2.3c.1-.3.1-.6-.1-.8a1.5 1.5 0 0 0-.5-.8l-1-.2a2 2 0 0 0-1.4.5c-.4.5-.7.9-1 1.5a6.2 6.2 0 0 0-.1 2c-.1.8 0 1.3.3 1.6.3.4.7.4 1.3.4zM435.8 136.2c-1 0-1.8-.3-2.4-1-.4-.5-.7-1.3-.7-2.3 0-.9.1-1.8.5-2.6a4.1 4.1 0 0 1 1.4-1.8c.6-.4 1.4-.7 2.4-.7.8 0 1.4.2 2 .6.4.3.6.8.6 1.5 0 .6-.2 1-.5 1.4-.4.3-1.1.5-1.5.6l1 .7c.4.2.6.6.6 1.1-.1.3-.2.7-.4 1.1-.2.4-.6.7-1 1-.5.2-1.2.4-2 .4zm-1.7-4.7h1.7c.4 0 .8 0 1.2-.2.4 0 .7-.2 1-.3.1-.3.2-.6.2-1a1 1 0 0 0-.2-.8c-.2-.2-.6-.2-1-.2-.9 0-1.5.1-2 .6-.3.4-.7 1-.9 1.9zm1.9 3.5c.6 0 1.1-.1 1.4-.4.3-.2.4-.6.4-1 0-.2-.1-.6-.5-.7-.3-.3-.7-.4-1.3-.4h-2v.5c0 .7.2 1.2.5 1.6.5.3.8.4 1.5.4zm7 1.2c-.8 0-1.3-.3-1.7-.7-.3-.5-.5-1.2-.5-2s0-1.5.2-2.3a6.3 6.3 0 0 1 .9-1.7 4 4 0 0 1 1.1-1.2 3 3 0 0 1 1.7-.5c.5 0 1 .2 1.3.4.3.3.6.6.7 1h.1l.5-1.2h1l-1.7 8h-1v-1.5a6 6 0 0 1-1.1 1.2c-.5.3-1 .5-1.6.5zm.3-1.2c.5 0 .7-.1 1.1-.3a4 4 0 0 0 1.1-1.1 6 6 0 0 0 .8-2.4v-.7c0-.4-.1-.8-.4-1.1-.3-.4-.6-.5-1-.5s-.9.2-1.1.4c-.4.2-.8.6-.9 1-.3.4-.4 1-.6 1.5l-.2 1.6c0 .6.1 1 .3 1.3.3.2.6.3 1 .3zm5.6 1.1h-.6V135h.4c.2 0 .3 0 .6-.3.2-.1.4-.4.6-1l.5-.7.8-.6c-.4-.2-.8-.4-1-.7a2 2 0 0 1-.3-1.2c0-.7.1-1.3.7-1.8s1.4-.7 2.4-.7h3l-1.5 8H453l.8-3.2h-1c-.5 0-.8.2-1 .4-.4.2-.6.6-.8 1l-.5 1-.5.8h-1.1zm3.8-4.4h1.3l.6-2.6h-1.8c-.5-.1-1 .1-1.2.4-.3.2-.4.5-.4 1s.1.8.4 1l1 .2zM414.4 154c-1.2 0-2.1-.2-2.8-1-.7-.8-1-1.8-1-3 0-.7 0-1.3.2-2a8 8 0 0 1 .7-1.8 6 6 0 0 1 1.1-1.6c.5-.6 1-.9 1.6-1.1a5.3 5.3 0 0 1 2.2-.5c1 0 1.8.3 2.6.7l-.6 1a6.7 6.7 0 0 0-.9-.2 4 4 0 0 0-1.1-.3c-.8 0-1.4.2-2 .5-.4.4-1 .8-1.4 1.4a6.4 6.4 0 0 0-.7 1.8 7.8 7.8 0 0 0-.3 2.1c0 1 .2 1.6.7 2.1.5.5 1.1.9 2 .9l1-.2 1.3-.4v1.2a7.2 7.2 0 0 1-2.6.5zm6.7 0c-.6 0-1 0-1.4-.3-.4-.5-.7-1-.7-1.7v-.6l.4-.6.9-5h1.4l-1.1 5.2a5 5 0 0 0-.2 1c0 .3.1.5.3.7.2.2.4.3.8.3.3 0 .7-.1 1.1-.4.4-.2.8-.6 1.1-1.1.3-.6.6-1.3.8-2.2l.7-3.3h1.3l-1.7 7.9h-1v-1.5a8 8 0 0 1-.7.8l-.9.6c-.2.2-.5.3-.9.3zm9.5 0c-1 0-1.6-.1-2.1-.7-.5-.7-.8-1.5-.8-2.6l.1-1.7.4-1.7a10 10 0 0 1 .8-1.7l1-1.6 1.5-.8c.2 0 .5 0 .8-.2a45.5 45.5 0 0 1 3.2-.6l.2 1.1a37.7 37.7 0 0 0-3.7.8c-.5.2-1 .6-1.5 1.2a6.8 6.8 0 0 0-1 2.3l1-1a3 3 0 0 1 1.7-.3c.8-.1 1.3.2 1.6.7.4.4.6 1.1.6 2 0 .6 0 1.2-.2 1.7a5.3 5.3 0 0 1-.7 1.6c-.3.5-.7.9-1.2 1.2-.5.2-1 .3-1.7.3zm.1-1c.4 0 .8-.1 1.1-.4.3-.2.5-.6.7-1a5 5 0 0 0 .5-1.1l.1-1.2c-.1-.6-.2-1-.4-1.3-.2-.3-.5-.5-1-.5l-.9.3a4 4 0 0 0-1 .7l-.6.7-.1.8v.7c-.1.7-.1 1.3.2 1.7.4.4.8.6 1.4.6zm7.3 1c-.6 0-1.1 0-1.5-.3-.3-.5-.5-1-.5-1.7v-.6l.1-.6 1.1-5h1.3l-1 5.2a5 5 0 0 0-.3 1c.1.3.1.5.4.7.1.2.4.3.8.3.3 0 .6-.1 1-.4.6-.2.9-.6 1.3-1.1.2-.6.5-1.3.7-2.2l.6-3.3h1.4l-1.7 7.9h-1v-1.5a8 8 0 0 1-.7.8l-.8.6-1.2.3zm5.5 3.5L446 146h1v1.4l1.1-1.2c.4-.2 1-.5 1.5-.5.7 0 1.2.3 1.6.7.4.6.6 1.2.6 2s-.1 1.6-.3 2.3a6.3 6.3 0 0 1-.8 1.7c-.3.5-.7 1-1.2 1.2a3 3 0 0 1-1.6.5c-.6-.1-1-.2-1.3-.4a2.8 2.8 0 0 1-.8-1 10.7 10.7 0 0 1-.4 1.3l-.6 3.5zm4.3-4.5c.4 0 .7-.1 1-.4.5-.3.8-.6 1-1l.4-1.6c.2-.4.2-.9.2-1.5 0-1.1-.4-1.7-1.2-1.7-.4 0-.7.2-1 .4l-1.1 1a5.4 5.4 0 0 0-.9 3.2c0 .4.2.8.4 1.1.4.3.6.5 1.2.5zm8.3 1c-.8 0-1.5 0-2-.4-.3-.5-.5-1.1-.5-1.9V150.4l1-4.5h1.3l-.9 3.5a9.3 9.3 0 0 1 2-.2c.9 0 1.5.2 1.9.6.2.4.4.9.4 1.5.1.5.1 1-.2 1.4-.3.3-.6.7-1.1 1-.5.2-1.1.4-2 .4zm.2-1c.6 0 1-.2 1.4-.5.3-.3.3-.5.3-1s.1-.8-.2-1.1h-1.2a8 8 0 0 0-1-.1l-.6.1-.2.7v.5c0 .4 0 .7.2 1 .3.4.7.4 1.3.4zm0 0" style="fill:none;stroke:#fff;stroke-width:2;stroke-linecap:butt;stroke-linejoin:round;stroke-miterlimit:10;stroke-opacity:.6" transform="rotate(  340 355.45 133.008) translate(-79.798729)"/> <g style="fill:#000;fill-opacity:1" transform=" rotate(  340 355.45 133.008) ">  <use xlink:href="#a" x="328.3" y="118.1"/>  <use xlink:href="#b" x="336.8" y="118.1"/>  <use xlink:href="#c" x="343.6" y="118.1"/>  <use xlink:href="#d" x="356.7" y="118.1"/>  <use xlink:href="#a" x="365.4" y="118.1"/>  <use xlink:href="#e" x="373.8" y="118.1"/>  <use xlink:href="#f" x="333.5" y="136"/>  <use xlink:href="#a" x="343.7" y="136"/>  <use xlink:href="#e" x="352.1" y="136"/>  <use xlink:href="#g" x="360.3" y="136"/>  <use xlink:href="#h" x="368.8" y="136"/>  <use xlink:href="#i" x="329.7" y="153.9"/>  <use xlink:href="#j" x="338.5" y="153.9"/>  <use xlink:href="#k" x="347.2" y="153.9"/>  <use xlink:href="#j" x="355.4" y="153.9"/>  <use xlink:href="#d" x="364" y="153.9"/>  <use xlink:href="#l" x="372.7" y="153.9"/> </g></svg>