<svg xmlns="http://www.w3.org/2000/svg" xmlns:xlink="http://www.w3.org/1999/xlink" viewBox="0 0 497 279"> <defs overflow="visible" style="stroke:none">  <path id="r" d="M1.7-5.4V-3h3v-2.4h.7V0h-.8v-2.4H1.7V0H.8v-5.4Zm0 0"/>  <path id="q" d="M1.7-5.4v3.7a18.9 18.9 0 0 0 0 .7l2.7-4.4h1.1V0h-.7v-4.1l.1-.4-3 4.5H1v-5.4Zm0 0"/>  <path id="p" d="M5.4-5.4V0h-.9v-4.6H1.7V0H.8v-5.4Zm0 0"/>  <path id="o" d="M5 0H4v-4.6H2.5L2-2 1.5-.4c-.3.3-.6.4-1 .4H0v-.7h.4c.3.1.6-.3.8-.9.2-1 .4-2.2.5-3.9h3.2Zm0 0"/>  <path id="n" d="M5.5-2.7c0 .9-.2 1.7-.7 2-.4.7-1 .9-1.8.9-.5-.2-.9-.2-1.3-.4-.3-.2-.6-.6-.7-1C.6-1.6.5-2 .5-2.7c0-.9.3-1.6.7-2 .5-.5 1-.8 1.8-.8.5 0 1 .2 1.3.5.4 0 .7.4.9.9.2.2.3.7.3 1.3Zm-4 0c0 .7 0 1.2.3 1.5.3.4.7.6 1.2.6.6 0 1-.2 1.2-.6.3-.3.4-.8.4-1.5s-.1-1.1-.4-1.5c-.2-.3-.6-.5-1.2-.5-.5 0-1 .2-1.2.5-.2.4-.3.9-.3 1.5Zm0 0"/>  <path id="m" d="M6.2 0H5L1.9-3.6V0h-1v-7.1H2v3.4L5-7h1L3-3.7Zm0 0"/>  <path d="M1 0v-7.1h4V0Zm.4-.5h3.1v-6.1h-3Zm.1 0"/>  <path id="l" d="m2.2.1-1-.1a1.5 1.5 0 0 1-.7-.5l-.2-.9c0-.4 0-.6.3-1l.7-.4 1-.6 1-.5c.3-.1.5-.4.5-.7L3.5-5 3-5.2 2-5l-.6.2-.3-.8.8-.3A4 4 0 0 1 3-6c.5 0 1 .1 1.3.3.2.2.4.7.4 1s0 .7-.2 1.1l-.7.3-1 .5-.8.4-.5.4c-.2 0-.3.3-.3.5.1.3.2.5.4.6l.7.2.9-.1a7 7 0 0 0 .8-.3v.8l-.8.3-1 .1Zm0 0"/>  <path id="k" d="M-.3 2.6h-.4a4 4 0 0 1-.3 0v-1l.3.3h.4c.3-.1.5-.1.7-.3L1 .8l.4-.8-.9-6h1l.4 3.1v.6A34.2 34.2 0 0 1 2-.8l.4-.5a22.7 22.7 0 0 1 .5-1.4l1.7-3.2h1L2 1c-.4.5-.7 1-1 1.2-.2.3-.7.4-1.2.4Zm0 0"/>  <path id="j" d="M2.6.1C2 .1 1.5 0 1.1-.5.7-1 .5-1.5.5-2.4A9 9 0 0 1 1-4.9L1.5-6a4 4 0 0 1 .8-1.1c.2-.5.6-.7 1-.8L4-8a19.9 19.9 0 0 1 2.3-.4v.8l-.6.1-1.1.2-.8.2c-.5.2-1 .5-1.2.9-.4.4-.6 1-.8 1.7l.8-.7 1.2-.3c.5 0 1 .2 1.2.5.3.4.4 1 .4 1.5l-.1 1.3L4.8-1c-.2.3-.5.6-.9.8-.3.2-.8.3-1.3.3Zm.1-.8c.4 0 .6 0 .8-.3.3 0 .5-.4.6-.7l.3-.8v-1c.1-.2.1-.6-.1-.8-.2-.3-.5-.4-.8-.4l-.8.2-.6.5-.5.5v1.2c-.1.3-.1.8.1 1.2.3.3.6.4 1.1.4Zm0 0"/>  <path id="i" d="m-.2 2.6 1.8-8.5h.8l-.2 1.1 1.1-.8c.1-.4.4-.4.8-.4.6 0 1 .2 1.3.5.3.5.4.9.4 1.5s0 1-.2 1.6l-.5 1.3A3 3 0 0 1 4-.2c-.1.2-.5.2-1 .2-.4.1-.8.1-1-.2a2 2 0 0 1-.5-.7h-.1v.5l-.2.4-.5 2.6Zm3-3.3c.5 0 .7 0 1-.3l.5-.7.4-1.1.1-1.2c0-.8-.3-1.2-.8-1.2-.3 0-.6.2-.8.3a3 3 0 0 0-.7.7c-.3.3-.5.7-.5 1-.2.6-.2 1-.2 1.4s0 .6.2.8c.2.2.5.3 1 .3Zm.1 0"/>  <path id="h" d="M2.7.1C2 .1 1.5 0 1-.5.7-.9.5-1.5.5-2a4.9 4.9 0 0 1 .8-2.7 3 3 0 0 1 1-1.1c.2-.1.7-.2 1.2-.2s1 .1 1.2.4c.3.2.5.5.5 1 0 .3-.2.6-.4 1-.2.3-.6.6-1.1.8-.5.2-1.2.3-2 .3h-.2v.4c0 .4.1.8.3 1 .3.3.6.4 1 .4l.8-.1c.4 0 .5-.2.8-.3v.8l-.8.3-1 .1Zm-1-3.4L3-3.4l.9-.4c.1-.2.3-.5.3-.7 0-.2 0-.5-.2-.5l-.6-.2c-.3 0-.7.2-1 .5-.4.3-.6.8-.7 1.4Zm0 0"/>  <path id="g" d="M.5 0 2-7.9h5.5L6 0H4.9l1.5-7H2.9L1.4 0Zm0 0"/>  <path id="f" d="m.3-2.5.2-.9H3l-.1.9Zm0 0"/>  <path id="e" d="m.3 0 1.3-5.9h.8l-.2 1c.3.1.5-.2.6-.3l.7-.6.7-.2c.4 0 .7.1 1 .3 0 .3.2.7.2 1a4 4 0 0 1 .8-.6l.6-.5.7-.2c.5 0 .9.1 1.1.4.4.2.4.6.4 1v.6l-.1.4L8 0h-.9L8-3.7v-.4a2 2 0 0 0 0-.4V-5l-.7-.2-.8.3c-.2.2-.5.4-.7.8-.2.4-.4.8-.5 1.4L4.7 0h-1l.8-3.7.1-.7c0-.3 0-.4-.2-.6L4-5.2l-1 .3c0 .1-.4.4-.6.8C2-3.7 2-3 1.8-2.5L1.3 0Zm0 0"/>  <path id="d" d="m.3 0 1.2-5.9h1L2-3l2.7-2.9h1.2l-3 3L5 0H3.8l-2-3-.4 3Zm0 0"/>  <path id="c" d="m.3 0 1.3-5.9h1L2-3.4h2.8L5.3-6h1L5 0H4l.7-2.6H1.8L1.3 0Zm0 0"/>  <path id="b" d="M2.1.1C1.7.1 1.3 0 1-.4.7-.7.5-1.2.5-1.9l.2-1.6.6-1.3c.3-.4.7-.7 1-.9.2-.2.7-.3 1.1-.3.4 0 .7.1 1 .3l.5.7.5-.9H6L4.8 0H4l.2-1a4 4 0 0 1-1.1.7c-.1.3-.6.3-.9.3Zm.3-.8c.3 0 .6 0 .8-.3a3 3 0 0 0 .8-.8 5 5 0 0 0 .4-1.1l.1-.6V-4c.1-.4.1-.6-.1-1-.4 0-.6-.2-.9-.2-.3 0-.5.2-.8.3l-.6.7-.4 1-.2 1.4c0 .3 0 .6.3.9l.6.1Zm0 0"/>  <path id="a" d="M3.6.1c-.9 0-1.6-.3-2-.8C1-1.2.7-2 .7-2.9c.1-.5.1-1 .3-1.4a6 6 0 0 1 .5-1.4l.8-1.2c.3-.3.7-.6 1.2-.8L5-8c.8 0 1.4.2 2 .5l-.4.8a4 4 0 0 0-.7-.3H5c-.5 0-1 0-1.4.2-.4.3-.6.6-1 1.1-.3.4-.4.7-.6 1.2a6 6 0 0 0-.2 1.6c0 .7.2 1.2.5 1.6.4.3.9.5 1.5.5h.8l.9-.3v.9l-.9.2a5 5 0 0 1-1 .1Zm0 0"/>  <path d="M1 0v-7.9h4.6V0Zm.6-.6H5v-6.7H1.6Zm0 0"/> </defs> <image xlink:href="svg/8/2_11.jpg" width="497" height="279"/> <path d="M93 63.7c-.7 0-1.4-.3-2-.7s-.7-1.4-.7-2.3l.1-1.4a6 6 0 0 1 .6-1.4l.8-1.2c.2-.3.7-.6 1.2-.7.4-.3 1-.4 1.5-.4.8 0 1.5.2 2 .5l-.5.8a4 4 0 0 0-.6-.3h-.9c-.5-.1-1-.1-1.4.2-.4.2-.7.6-1 1.1-.3.4-.5.8-.6 1.3a6 6 0 0 0-.2 1.5c0 .7.2 1.2.5 1.6.4.4.8.5 1.5.5h.7l1-.3v.9l-1 .2a5 5 0 0 1-.9.1zm5 0c-.3 0-.7-.1-1-.5-.5-.2-.6-.8-.6-1.5.1-.6.1-1 .3-1.6.1-.5.3-.9.6-1.3.2-.4.6-.6.9-.8.3-.3.7-.4 1.2-.4.3 0 .6.1.9.4l.6.6.4-.9h.7l-1.3 6h-.7v-1.3a4 4 0 0 1-1 1c-.1.2-.4.3-.8.3zm.5-.7c.2 0 .4 0 .7-.4a3 3 0 0 0 .7-.8 5 5 0 0 0 .5-1.1V60l.2-.4c-.1-.4-.1-.6-.4-.9-.2-.2-.4-.3-.7-.3-.3 0-.6.1-.8.3l-.7.7-.4 1-.1 1.4c0 .3 0 .6.2.9l.7.1zM102.5 63.6l1.3-5.9h1l-.7 2.5h2.9l.5-2.5h1l-1.3 6h-1l.7-2.7H104l-.5 2.6zm6.6 0 1.3-5.9h1l-.8 2.8 2.9-2.8h1.2l-3 3 2.1 2.9h-1.2l-1.9-3-.6 3.1zm5.4 0 1.2-5.9h.8l-.1 1c.2.1.3-.2.6-.3l.5-.6.8-.2c.4 0 .7.1 1 .4l.4 1a4 4 0 0 1 .5-.7l.8-.5.7-.2c.5 0 .8.1 1 .4.3.2.6.6.6 1v.6l-.3.4-.7 3.6h-1l.8-3.6v-.5a2 2 0 0 0 .2-.5c-.1 0-.1-.3-.3-.4l-.6-.2c-.2 0-.4.1-.7.3l-.8.8-.5 1.5-.4 2.6h-1.1l.8-3.6v-1.4l-.7-.2-.7.3-.8.8-.5 1.6-.6 2.5zm9.5-2.5.4-.9h2.5l-.3 1zm3.7 2.5 1.6-7.9h5.4l-1.5 8H132l1.6-7.1H130l-1.3 7zm9.7.1c-.7 0-1.2-.2-1.6-.6-.4-.4-.6-1-.6-1.6a4.9 4.9 0 0 1 .8-2.6 3 3 0 0 1 1-1c.2-.2.6-.3 1.1-.3s1.1.1 1.3.4c.3.2.6.5.6 1-.1.4-.3.7-.5 1-.2.3-.6.6-1.1.8-.5.2-1.2.2-2 .2h-.2v.5c0 .4.1.8.3 1 .3.3.6.5 1 .5l.8-.2c.3 0 .5-.2.8-.3v.8l-.8.3-1 .1zm-1-3.4 1.3-.1.9-.4c.2-.2.3-.4.3-.8.1-.1.1-.3-.2-.4l-.6-.2c-.3 0-.7.2-1 .5-.3.3-.6.8-.7 1.4zm4.1 3.3 1.3-5.9h.6v1l.5-.3.7-.6.8-.2c.4 0 .6.1.9.4l.4 1a4 4 0 0 1 .7-.7l.5-.5.9-.2c.4 0 .8.1 1 .4.3.2.4.6.4 1v.6l-.2.4-.7 3.6h-1l.8-3.6.1-.5a2 2 0 0 0 0-.5s0-.3-.2-.4l-.5-.2c-.3 0-.5.1-.8.3-.2.2-.5.3-.7.8-.3.5-.4.9-.5 1.5l-.6 2.6h-1l.8-3.6.1-.8c0-.3 0-.4-.2-.6l-.5-.2c-.3 0-.5.1-.8.3-.2.2-.5.3-.7.8-.3.5-.6 1-.6 1.6l-.5 2.5zm12 .1c-.7 0-1.2-.2-1.6-.6-.4-.4-.6-1-.6-1.6a4.9 4.9 0 0 1 .8-2.6 3 3 0 0 1 1-1c.3-.2.7-.3 1.2-.3s1 .1 1.2.4c.3.2.5.5.5 1 0 .4-.2.7-.4 1-.2.3-.6.6-1.1.8-.5.2-1.2.2-2 .2h-.2v.5c0 .4.1.8.3 1 .4.3.6.5 1 .5l.9-.2.8-.3v.8l-.9.3-1 .1zm-1-3.4 1.4-.1c.3-.2.6-.2.8-.4.2-.2.3-.4.3-.8 0-.1 0-.3-.2-.4l-.6-.2c-.2 0-.7.2-1 .5-.3.3-.6.8-.7 1.4zm3.5 5.9 2-8.5h.7l-.2 1.1 1.1-.8c.1-.3.4-.4.8-.4.6 0 1 .2 1.3.5.3.4.3.9.3 1.5s.1 1 0 1.6l-.6 1.3a3 3 0 0 1-1 .9c-.2.2-.6.3-1 .3-.5 0-.9 0-1.1-.3a2 2 0 0 1-.5-.7h-.1v.5l-.2.5-.5 2.5zm3.3-3.2c.2 0 .4 0 .7-.4l.6-.6.4-1.1.1-1.4c0-.7-.3-1.1-.9-1.1-.2 0-.5.1-.7.3a3 3 0 0 0-.7.7c-.3.3-.4.7-.5 1-.3.6-.3 1-.3 1.4s0 .6.3.8c.2.2.5.3.9.3zm6 .7c-.7 0-1.2-.2-1.6-.6-.3-.4-.4-1.1-.4-1.9a9 9 0 0 1 .3-2.5l.4-1.1a4 4 0 0 1 1-1.1c.2-.5.6-.7 1-.8l.6-.1a19.9 19.9 0 0 1 2.3-.4l.1.8h-.8l-1 .3-.7.2-1.3.9c-.2.4-.5 1-.7 1.7l.8-.7c.3-.2.7-.3 1.2-.3s1 .2 1.2.6c.3.3.4.8.4 1.3l-.1 1.4-.5 1.2-1 .8c-.2.2-.6.3-1.1.3zm.1-.7c.3 0 .6 0 .8-.3l.5-.8c.3-.2.3-.5.3-.8l.1-.9c0-.4 0-.8-.1-1-.3-.2-.5-.2-.8-.2l-.8.1-.6.5-.5.5v.6l-.2.6c.1.5.1.9.4 1.2.1.3.5.4 1 .4zm3 3.2h-.4a4 4 0 0 1-.4 0v-.9h.7c.3.1.7.1.8-.1l.6-.8.4-.7-.9-6h1l.3 3 .1.6a34.3 34.3 0 0 1 .1 1.5l.3-.5a22.7 22.7 0 0 1 .6-1.4l1.7-3.2h1l-3.7 6.9c-.3.4-.6 1-1 1.2-.3.3-.6.4-1.2.4zm5.2 0 1.8-8.5h.8l-.2 1.1 1-.8c.2-.3.5-.4 1-.4s1 .2 1.2.5c.3.4.4.9.4 1.5s0 1-.2 1.6l-.4 1.3a3 3 0 0 1-1.1.9c-.2.2-.6.3-1 .3-.5 0-.9 0-1.1-.3a2 2 0 0 1-.5-.7h-.1v.5l-.2.5-.5 2.5zm3-3.2c.4 0 .7 0 1-.4l.4-.6.5-1.1.1-1.4c0-.7-.3-1.1-.9-1.1-.2 0-.5.1-.7.3a3 3 0 0 0-.7.7c-.3.3-.4.7-.5 1-.2.6-.2 1-.2 1.4s0 .6.2.8c.2.2.5.3.9.3zM181.3 63.7l-.9-.1a1.5 1.5 0 0 1-.7-.6c-.2-.1-.2-.4-.2-.8s0-.7.3-1c0-.2.4-.3.6-.4l1.1-.6.9-.5c.4-.1.5-.4.5-.7l-.1-.4-.8-.2-.7.1-.8.3-.3-.8 1-.3a4 4 0 0 1 .9 0c.6-.1 1.1-.1 1.3.1.3.3.6.7.6 1.2s0 .7-.4 1l-.6.3c-.3.3-.6.4-1 .5l-.8.4-.6.4-.2.4c0 .4.1.6.3.7.1.3.3.3.8.3l.9-.2a7 7 0 0 0 .8-.3v.8l-.9.3-1 .1zm0 0" style="fill:none;stroke:#fff;stroke-width:3;stroke-linecap:butt;stroke-linejoin:round;stroke-miterlimit:10;stroke-opacity:.6" transform="rotate(  340 129.617 60.6074) translate(-7.9414683)"/> <g style="fill:#7d577d;fill-opacity:1" transform=" rotate(  340 129.617 60.6074) ">  <use xlink:href="#a" x="81.5" y="63.6"/>  <use xlink:href="#b" x="88" y="63.6"/>  <use xlink:href="#c" x="94.3" y="63.6"/>  <use xlink:href="#d" x="100.9" y="63.6"/>  <use xlink:href="#e" x="106.2" y="63.6"/>  <use xlink:href="#f" x="115.8" y="63.6"/>  <use xlink:href="#g" x="119.3" y="63.6"/>  <use xlink:href="#h" x="126.8" y="63.6"/>  <use xlink:href="#e" x="132.2" y="63.6"/>  <use xlink:href="#h" x="141.9" y="63.6"/>  <use xlink:href="#i" x="147.4" y="63.6"/>  <use xlink:href="#j" x="153.7" y="63.6"/>  <use xlink:href="#k" x="159.7" y="63.6"/>  <use xlink:href="#i" x="164.9" y="63.6"/>  <use xlink:href="#l" x="171.2" y="63.6"/> </g> <path d="M3.7 2C3.7 3 3 3.8 2 3.8S.2 3 .2 2a1.7 1.7 0 1 1 3.5 0zm0 0" style="fill:#fdfdfa;fill-opacity:1;fill-rule:nonzero;stroke:#3f3f35;stroke-width:.5;stroke-linecap:butt;stroke-linejoin:miter;stroke-miterlimit:4;stroke-opacity:1" transform="translate(187.70335,95.474723)"/> <path d="M174.3 108.5h-1L170 105v3.5h-.9v-7.1h1v3.4l2.9-3.4h1.3l-3.2 3.4zm5.5-2.7c0 1-.2 1.6-.6 2-.5.7-1 .9-1.9.9-.3-.1-.9-.1-1.2-.4-.4-.2-.7-.5-1.1-1v-1.5c-.1-.8 0-1.5.6-2 .4-.5 1-.8 1.8-.8.5 0 .9 0 1.2.4.4.2.7.5 1 1l.1 1.3zm-4 0c0 .7.1 1.2.4 1.5.2.4.6.7 1.2.7.5-.1.9-.3 1.2-.7.2-.3.3-.8.3-1.5.1-.6-.1-1.1-.3-1.5-.3-.3-.7-.5-1.3-.5-.5 0-.9.2-1.1.5-.3.4-.4.9-.4 1.5zm9.5 2.7h-.9V104h-1.6c0 1-.2 1.9-.3 2.6l-.6 1.5c-.3.3-.6.5-1 .5h-.5v-.8h.3c.4.1.7-.3.9-1.1.2-.7.4-2 .4-3.5h3.3zm6.2-5.3v5.3h-.8V104h-2.8v4.5h-.9v-5.3zm2.5 0v4.4l3-4.4h.9v5.3h-.6V104l-3 4.5h-1v-5.3zm6.6 0v2.2h2.9v-2.2h.8v5.3h-.8v-2.4h-3v2.4h-.7v-5.3zm10.1 2.6c0 1-.2 1.6-.7 2-.4.7-1 .9-1.8.9-.5-.1-.9-.1-1.2-.4-.4-.2-.7-.5-.9-1-.2-.3-.3-.9-.3-1.5 0-.8.2-1.5.5-2 .7-.5 1.1-.8 2-.8.4 0 .7 0 1.1.4.6.2.8.5 1 1 .2.2.3.7.3 1.3zm-4 0c0 .7 0 1.2.3 1.5.3.4.7.7 1.2.7.6-.1 1-.3 1.2-.7.3-.3.4-.8.4-1.5 0-.6-.1-1.1-.4-1.5-.2-.3-.6-.5-1.2-.5-.5 0-1 .2-1.2.5-.2.4-.3.9-.3 1.5zm0 0" style="fill:none;stroke:#fff;stroke-width:3;stroke-linecap:butt;stroke-linejoin:round;stroke-miterlimit:10;stroke-opacity:.6" transform=" rotate(  340 191.453 97.4766) "/> <g style="fill:#212121;fill-opacity:1" transform=" rotate(  340 191.453 97.4766) ">  <use xlink:href="#m" x="168.2" y="108.5"/>  <use xlink:href="#n" x="174.3" y="108.5"/>  <use xlink:href="#o" x="180.4" y="108.5"/>  <use xlink:href="#p" x="186.2" y="108.5"/>  <use xlink:href="#q" x="192.4" y="108.5"/>  <use xlink:href="#r" x="198.8" y="108.5"/>  <use xlink:href="#n" x="205.2" y="108.5"/> </g></svg>