<svg xmlns="http://www.w3.org/2000/svg" xmlns:xlink="http://www.w3.org/1999/xlink" viewBox="0 0 497 279"> <defs>  <path id="H" d="M3 0c-.5 0-.9 0-1.3-.1-.3-.3-.6-.6-.7-.9-.4-.5-.5-1-.5-1.7 0-.6.2-1.1.5-1.5 0-.6.4-.8.8-1.1.2-.1.8-.2 1.2-.2l.8.1.7.2-.3.8-.6-.2H3c-1-.1-1.5.6-1.5 1.9 0 .7 0 1 .3 1.4.3.5.7.6 1.2.6h.8l.6-.3v.8a2 2 0 0 1-.6.2H3Zm0 0"/>  <path id="G" d="M2.9-5.5c.6 0 1.1.2 1.4.5.3.3.5.7.5 1.3V0h-.6L4-.8c-.3.3-.5.6-.8.8h-1c-.5 0-1 0-1.3-.3C.6-.5.5-.9.5-1.5c0-.5.2-1 .5-1.2.5-.3 1-.5 2-.5h.8v-.3c.2-.5.2-.8-.2-1l-.8-.2H2l-.7.5L1-5l1-.3.9-.2Zm1 2.9h-.8c-.6 0-1 .1-1.4.3-.1.3-.3.5-.3.8 0 .3 0 .5.2.7l.7.2c.5 0 .9-.1 1.2-.4.3-.2.4-.6.4-1Zm.1 0"/>  <path id="D" d="M3.2 0h-.9v-6.3H.1v-.8h5.4v.8H3.2Zm0 0"/>  <path d="M5.6 3A2.6 2.6 0 1 1 .4 3a2.6 2.6 0 0 1 5.2 0zm0 0" style="fill:#f8f8f5;fill-opacity:1;fill-rule:nonzero;stroke:#6e6e59;stroke-width:.8;stroke-linecap:butt;stroke-linejoin:miter;stroke-miterlimit:4;stroke-opacity:1" id="reuse-0"/>  <path d="M3.7 2A1.7 1.7 0 1 1 .2 2a1.7 1.7 0 0 1 3.5 0zm0 0" style="fill:#fdfdfa;fill-opacity:1;fill-rule:nonzero;stroke:#3f3f35;stroke-width:.5;stroke-linecap:butt;stroke-linejoin:miter;stroke-miterlimit:4;stroke-opacity:1" id="reuse-1"/> </defs> <defs overflow="visible" style="stroke:none">  <path id="P" d="M1.2 0h-1l1.5-2.3c-.2 0-.4 0-.7-.2A1.5 1.5 0 0 1 .6-3l-.2-.8c0-.5.2-.9.6-1.2.3-.2.8-.4 1.3-.4h2.4V0H4v-2.1H2.6Zm.1-3.8c0 .3.1.6.3.8.4.1.6.1 1 .1h1.3v-1.7H2.4c-.4 0-.7 0-.9.2l-.2.6Zm0 0"/>  <path id="O" d="M4.5-4.6H2.8V0h-.9v-4.6H.2v-.8h4.3Zm0 0"/>  <path id="N" d="M5.2-4c0 .3-.2.6-.3.8l-.9.4 1 .3c.2.2.3.5.3 1 0 .3-.1.7-.5.9-.3.6-.8.6-1.6.6H.8v-5.4h2.4c.3 0 .7 0 1 .2.3 0 .5.2.7.4.1.2.3.5.3.8Zm-1 0c.1-.1.1-.2-.2-.4l-1-.2H1.8v1.4H3c1 0 1.3-.2 1.3-.7Zm.3 2.5c-.1-.4-.2-.5-.4-.7-.3-.2-.6-.2-1.1-.2H1.6v1.7h1.5c.4 0 .7 0 .9-.2.3-.1.4-.3.4-.7Zm-.1-.1"/>  <path id="M" d="M5 0H1v-7.1h4v.8H1.9v2.2h2.9v.8h-3v2.5H5Zm0 0"/>  <path id="L" d="M1.7-3.2h1.6c1.4 0 2.1.6 2.1 1.6 0 .5-.2.9-.4 1.2-.4.3-1 .4-1.7.4H.8v-5.4h1Zm2.8 1.6c0-.3 0-.4-.3-.6-.2-.3-.6-.3-1-.3H1.7v1.8h1.5c.4 0 .8 0 1-.2.2-.1.3-.4.3-.7Zm0 0"/>  <path id="K" d="M5 0H4v-4.6H2.5L2-2 1.5-.4c-.3.3-.6.4-1 .4H0v-.7h.4c.3.1.6-.3.8-.9.2-1 .4-2.2.5-3.9h3.2Zm0 0"/>  <path id="J" d="M5.5-2.7c0 .9-.2 1.7-.7 2-.4.7-1 .9-1.8.9-.5-.2-.9-.2-1.3-.4-.3-.2-.6-.6-.7-1C.6-1.6.5-2 .5-2.7c0-.9.3-1.6.7-2 .5-.5 1-.8 1.8-.8.5 0 1 .2 1.3.5.4 0 .7.4.9.9.2.2.3.7.3 1.3Zm-4 0c0 .7 0 1.2.3 1.5.3.4.7.6 1.2.6.6 0 1-.2 1.2-.6.3-.3.4-.8.4-1.5s-.1-1.1-.4-1.5c-.2-.3-.6-.5-1.2-.5-.5 0-1 .2-1.2.5-.2.4-.3.9-.3 1.5Zm0 0"/>  <path id="I" d="M5.4-5.4V0h-.9v-4.6H1.7V0H.8v-5.4Zm0 0"/>  <use xlink:href="#H"/>  <use xlink:href="#G"/>  <path id="F" d="M3.4-5.5c.7 0 1.2.3 1.6.7.4.5.6 1.2.6 2.1 0 1-.2 1.7-.6 2-.4.7-1 .9-1.6.9-.4-.2-.8-.2-1-.3l-.7-.6v3.1H.8v-7.8h.8v.8h.2c.2-.4.3-.5.6-.6.2-.2.6-.3 1-.3Zm-.2.8c-.5 0-.9.1-1.1.5-.2.2-.4.7-.4 1.2v.3c0 .7.1 1.2.3 1.5.3.4.7.6 1.3.6.3 0 .6-.1.7-.4l.5-.6.2-1.1c0-.6-.1-1.1-.4-1.5-.2-.3-.6-.5-1-.5Zm0 0"/>  <path id="E" d="M1.7-5.4v3.7a18.9 18.9 0 0 0 0 .7l2.7-4.4h1.1V0h-.7v-4.1l.1-.4-3 4.5H1v-5.4Zm0 0"/>  <use xlink:href="#D"/>  <use id="C" xlink:href="#G"/>  <path id="B" d="M3-5.5c.3 0 .7.1 1 .3a2 2 0 0 1 1 .9v1.8H1.5c0 .5.1 1 .4 1.4.3.3.7.4 1.3.4H4l.9-.3v.8L4 0a5 5 0 0 1-1 0 3 3 0 0 1-1.2-.1 2.2 2.2 0 0 1-1-1.1c0-.2-.2-.8-.2-1.3-.1-.7 0-1.2.2-1.6.2-.5.5-.9.9-1 .3-.2.7-.4 1.2-.4Zm0 .8c-.6 0-.9.1-1 .4-.4.2-.6.6-.6 1.1h2.8c0-.5-.1-.8-.3-1.1-.2-.3-.5-.4-1-.4Zm0 0"/>  <use id="A" xlink:href="#H"/>  <path id="z" d="M1.7 0H.8v-7.6h1Zm0 0"/>  <path id="y" d="M5.3-5.4V0h-.7l-.1-.7c-.3.3-.5.5-.9.6l-.9.2C2.1 0 1.6-.1 1.3-.4 1-.7.8-1.2.8-1.8v-3.6h.9v3.5c0 .8.3 1.3 1.2 1.3.6 0 1-.2 1.1-.5.3-.4.5-.9.5-1.5v-2.8Zm0 0"/>  <use id="x" xlink:href="#D"/>  <path d="M1 0v-7.1h4V0Zm.4-.5h3.1v-6.1h-3Zm.1 0"/>  <path id="w" d="M2-6.4v2.7h3.7v-2.8h.9V0h-1v-2.9H2V0H1v-6.4Zm0 0"/>  <path id="u" d="M4-6.5c1 0 1.6.2 2 .8.5.5.7 1.4.7 2.5 0 1-.2 2-.7 2.5-.5.5-1.1.7-2 .7-.3.1-.7.1-1.1-.2a2.5 2.5 0 0 1-.8-.6H2v3.7H1v-9.3h1v.8l.9-.7 1.2-.2Zm0 .8c-.8 0-1.2.2-1.5.7-.3.3-.4.9-.4 1.6v.2c-.1.8.1 1.4.4 1.8.2.4.7.6 1.4.6.4 0 .7 0 1.1-.2 0-.3.3-.6.4-1a4 4 0 0 0 .2-1.2c0-.8-.1-1.4-.4-1.8-.3-.4-.7-.7-1.3-.7Zm-.1 0"/>  <path id="t" d="M7 0H5.8L3.5-3.7 1.2 0H0l3-4.5-2.8-4h1.2l2.1 3.2 2.1-3.3h1.2L4-4.5Zm0 0"/>  <path d="M6.2-4.8c0 .4-.2.7-.4 1l-.8.3c.3.1.7.3 1 .6.3.2.5.5.5.9-.1.7-.3 1.1-.7 1.5-.4.3-1 .5-2 .5H1v-6.4h2.8l1.2.1c.4.1.7.3 1 .5 0 .3.2.6.2 1Zm-1 .1c-.1-.3-.2-.5-.5-.6-.1-.2-.5-.3-.9-.3H2v1.8h1.5c1 0 1.6-.3 1.6-.9Zm0 2.8c.1-.4 0-.6-.3-.8l-1.3-.2H2.1V-1h1.6c.5.1.9.1 1.2 0 .3-.2.4-.5.4-.9ZM2 0H1v-6.4h1ZM-.1-8.2l.1-.4.4-.2c.2 0 .3 0 .4.2l.2.4c0 .2 0 .4-.2.5a.6.6 0 0 1-.4.1L0-7.7l-.2-.5Zm2.2 0c0-.2 0-.3.2-.4l.4-.2c.1 0 .2 0 .3.2.2 0 .2.2.2.4s0 .4-.2.5l-.3.1-.4-.1-.3-.5ZM6 0H4.7v-5.6H3a24 24 0 0 1-.5 3.3c-.2.8-.4 1.4-.7 1.8C1.5 0 1 .1.6.1A4 4 0 0 1 .3 0H.1v-.8h.3c.4 0 .8-.3 1-1.2.4-1.1.6-2.5.6-4.4h4Zm0 0"/>  <path id="v" d="M6.6-3.2c0 1-.3 1.9-.8 2.5-.5.4-1.3.7-2.2.7a3 3 0 0 1-1.5-.3A2.7 2.7 0 0 1 1-1.4C.7-2 .6-2.5.6-3.2c.1-1.1.3-2 .9-2.5.5-.6 1.2-.8 2.1-.8.6 0 1.1 0 1.6.3.4.3.8.7 1 1.2.3.5.4 1 .4 1.8Zm-4.8 0c0 .7.1 1.2.3 1.8.4.4.9.6 1.5.6.7 0 1.2-.2 1.5-.6.3-.6.4-1 .4-1.8S5.4-4.6 5.1-5c-.3-.4-.8-.7-1.5-.7-.6 0-1.1.3-1.4.7-.3.4-.5 1-.5 1.8Zm0 0"/>  <path d="M4.8-6.4H6l-2.8 3 3 3.4H5L2-3.3V0H1v-6.4h1v3ZM2-6.4V-1l3.3-5.4h1.4V0h-1v-5.4L2.4 0H1v-6.4ZM5 0 2-7.5V0h-.8v-8.6h1.7l2.5 7 2.8-6.9h1.5V0h-1v-7.5L5.8 0Zm0 0"/>  <path id="s" d="M3.5-6.5c.7 0 1.3.1 1.7.5.4.3.6.9.6 1.6V0H5l-.2-1c-.4.5-.7.8-1.1 1H2.6C2 .1 1.6 0 1-.3.7-.6.5-1.1.5-1.8c0-.6.3-1.1.8-1.5.5-.3 1.3-.5 2.3-.5h1.1v-.6c0-.4 0-.8-.3-.9-.4-.4-.6-.5-1-.5a3 3 0 0 0-1 .3c-.3 0-.6.2-.8.3L1.3-6l1-.4 1.2-.1Zm1.2 3.4h-1c-.7 0-1.2.1-1.5.4-.4.2-.6.5-.6 1 0 .2.1.5.4.7.2.2.5.3.8.3.6 0 1-.3 1.4-.5.3-.3.5-.7.5-1.4Zm0 0"/>  <path id="r" d="M3.6.1C3 .1 2.6.1 2-.2s-.7-.6-1-1.1C.7-1.8.6-2.4.6-3.2c.1-.8.1-1.4.4-2 .3-.3.7-.8 1.1-.9.5-.3 1-.4 1.6-.4h1a3 3 0 0 1 .6.4l-.3.8a7 7 0 0 0-.6-.2 3 3 0 0 0-.8-.1c-1.2 0-1.9.8-1.9 2.4.1.8.3 1.4.6 1.8.2.4.7.6 1.3.6l1-.1.6-.3v1l-.7.2-1 .1Zm0 0"/>  <path id="q" d="M3.5-6.5c.6 0 1 0 1.4.3l1.1 1c0 .5.1 1 .1 1.6v.6H1.7c.1.7.3 1.3.7 1.7.3.3.8.5 1.4.5h1l1.1-.5v1c-.3.2-.6.3-1 .3l-1 .1A3.4 3.4 0 0 1 2-.2a2.6 2.6 0 0 1-.9-1.2c-.4-.4-.5-1-.5-1.8.1-.7.1-1.3.4-1.8s.6-.9 1-1c.4-.4 1-.5 1.5-.5Zm0 .8c-.5 0-1 .2-1.2.5-.3.3-.5.8-.5 1.3H5c0-.5 0-1-.3-1.3-.3-.3-.7-.5-1.2-.5Zm0 0"/>  <path id="p" d="M5.8-6.4V-1h1v3.2H5.7V0H1.1v2.2H.2v-3h.6c.5-.9 1-1.8 1.2-2.8.3-.9.4-1.9.4-2.9Zm-1 .8H3.3a10.2 10.2 0 0 1-.7 3.3c-.2.7-.6 1-.8 1.4h3Zm0 0"/>  <path id="o" d="M8.6-4.3c0 .9-.1 1.7-.4 2.3A3.6 3.6 0 0 1 6.9-.4c-.6.3-1.3.4-2.2.4C3.8.1 3 0 2.5-.4A3.4 3.4 0 0 1 1.2-2a6 6 0 0 1-.5-2.3c0-.9.3-1.7.5-2.3a3.4 3.4 0 0 1 1.3-1.5c.5-.4 1.3-.6 2.2-.6.9 0 1.6.2 2.2.5.5.4 1 1 1.3 1.6.3.6.4 1.4.4 2.3ZM2-4.3c-.1 1 0 2 .5 2.6.5.6 1.2.9 2.2.9 1 0 1.7-.3 2.1-1 .5-.5.7-1.3.7-2.4 0-1.1-.2-2.1-.7-2.6-.4-.6-1.1-1-2.1-1s-1.7.5-2.1 1c-.6.6-.7 1.4-.7 2.5Zm-.1 0"/>  <path d="M1.1 0v-8.6h5V0Zm.6-.6h3.8V-8H1.7ZM.2 0h-.4v-.8h.7l.5-.8a3 3 0 0 1 .3-.6l.7-.6c-.4.1-.6-.1-.8-.4C1-3.4.9-3.7.9-4c.1-.6.2-1 .6-1.4.5-.3 1-.5 1.8-.5h2.2L4.3 0h-1l.5-2.3h-.7c-.4 0-.6 0-.8.2l-.5.8-.4.7L1 0 .2.1ZM3-3h1l.4-2.1H3c-.3.1-.6.1-.8.3-.2.2-.3.4-.3.8 0 .3.1.5.3.7l.8.2ZM2 .1c-.3 0-.6-.1-1-.4-.3-.2-.4-.6-.4-1a3 3 0 0 1 0-.6l.1-.4.8-3.6h1l-.8 3.7-.1.7c0 .3 0 .5.2.6l.6.2c.2 0 .5 0 .8-.3l.8-.8.5-1.6.6-2.5H6L4.7 0H4l.1-1c-.2 0-.3.2-.5.4l-.7.5-.8.2Zm-.3 0L.7 0C.5 0 .3-.1 0-.3v-.9a5 5 0 0 0 .7.4l1 .1c.6 0 1 0 1.3-.3 0-.2.3-.4.3-.8L3-2.4c0-.2-.4-.3-.8-.3h-.8l.1-.8h1.3l.6-.3.2-.7c0-.2 0-.4-.2-.5l-.7-.2L2-5a5 5 0 0 0-.8.2l-.3-.8L2-5.9l.8-.1c.5 0 1 .1 1.2.4.4.2.6.5.6 1 0 .4-.1.6-.4 1l-1 .5c.3.1.6.3.7.5.2.2.3.4.3.8 0 .5-.2 1-.6 1.4-.4.3-1 .4-2 .4Zm-2 2.5h-.4a4 4 0 0 1-.3 0v-1l.3.3h.4c.3-.1.5-.1.7-.3L1 .8l.4-.8-.9-6h1l.4 3.1v.6A34.2 34.2 0 0 1 2-.8l.4-.5a22.7 22.7 0 0 1 .5-1.4l1.7-3.2h1L2 1c-.4.5-.7 1-1 1.2-.2.3-.7.4-1.2.4ZM2.2.1l-1-.1a1.5 1.5 0 0 1-.7-.5l-.2-.9c0-.4 0-.6.3-1l.7-.4 1-.6 1-.5c.3-.1.5-.4.5-.7L3.5-5 3-5.2 2-5l-.6.2-.3-.8.8-.3A4 4 0 0 1 3-6c.5 0 1 .1 1.3.3.2.2.4.7.4 1s0 .7-.2 1.1l-.7.3-1 .5-.8.4-.5.4c-.2 0-.3.3-.3.5.1.3.2.5.4.6l.7.2.9-.1a7 7 0 0 0 .8-.3v.8l-.8.3-1 .1ZM-.3 2.6h-.4a4 4 0 0 1-.3 0v-1l.3.3h.4c.3-.1.5-.1.7-.3L1 .8l.4-.8-.9-6h1l.4 3.1v.6A34.2 34.2 0 0 1 2-.8l.4-.5a22.7 22.7 0 0 1 .5-1.4l1.7-3.2h1L2 1c-.4.5-.7 1-1 1.2-.2.3-.7.4-1.2.4ZM-.5 0l4.4-7.9h1L.4 0Zm2.6.1C1.7.1 1.3 0 1-.4.7-.7.5-1.2.5-1.9l.2-1.6.6-1.3c.3-.4.7-.7 1-.9.2-.2.7-.3 1.1-.3.4 0 .7.1 1 .3l.5.7.5-.9H6L4.8 0H4l.2-1a4 4 0 0 1-1.1.7c-.1.3-.6.3-.9.3Zm.3-.8c.3 0 .6 0 .8-.3a3 3 0 0 0 .8-.8 5 5 0 0 0 .4-1.1l.1-.6V-4c.1-.4.1-.6-.1-1-.4 0-.6-.2-.9-.2-.3 0-.5.2-.8.3l-.6.7-.4 1-.2 1.4c0 .3 0 .6.3.9l.6.1Zm-.1-6.2L2-7l-.2-.4c0-.2 0-.3.2-.5l.5-.1c.3 0 .5.1.5.4l-.2.6c-.2.1-.3.1-.5.1ZM.3 0l1.3-5.9h1L1.2 0Zm-.5 0L0-.7l3.6-4.5H1.1l.1-.7h3.6l-.1.9L1-.7h2.9l-.2.7ZM2 .1c-.3 0-.6-.1-1-.4-.3-.2-.4-.6-.4-1a3 3 0 0 1 0-.6l.1-.4.8-3.6h1l-.8 3.7-.1.7c0 .3 0 .5.2.6l.6.2c.2 0 .5 0 .8-.3l.8-.8.5-1.6.6-2.5H6L4.7 0H4l.1-1c-.2 0-.3.2-.5.4l-.7.5-.8.2Zm.1 0C1.7.1 1.3 0 1-.4.7-.7.5-1.2.5-1.9l.2-1.6.6-1.3c.3-.4.7-.7 1-.9.2-.2.7-.3 1.1-.3.4 0 .7.1 1 .3l.5.7.5-.9H6L4.8 0H4l.2-1a4 4 0 0 1-1.1.7c-.1.3-.6.3-.9.3Zm.3-.8c.3 0 .6 0 .8-.3a3 3 0 0 0 .8-.8 5 5 0 0 0 .4-1.1l.1-.6V-4c.1-.4.1-.6-.1-1-.4 0-.6-.2-.9-.2-.3 0-.5.2-.8.3l-.6.7-.4 1-.2 1.4c0 .3 0 .6.3.9l.6.1Zm1.6-6c-.5 0-1 0-1.1-.3-.3-.2-.4-.5-.4-.9V-8h.6c-.1 0-.1.2.2.4l.7.1.7-.1a.9.9 0 0 0 .4-.5h.6c-.1.5-.4.9-.7 1.1-.3.2-.7.3-1 .3ZM2 2.6H1l-.7-.4v-.9l.7.5h1c.5 0 .8 0 1.1-.3.3-.2.5-.6.6-1l.2-.5a16.6 16.6 0 0 1 .2-1l-.9.7c-.2.3-.7.3-1 .3C1.6.1 1.1 0 1-.4.7-.7.5-1.2.5-1.9c0-.5 0-1.1.2-1.5s.3-1 .6-1.4a3 3 0 0 1 1-.9c.2-.2.7-.3 1-.3.5 0 .8.1 1.1.3a2 2 0 0 1 .5.7l.5-.9h.7L4.7.3c-.2.9-.5 1.5-1 1.8-.3.4-.9.5-1.7.5Zm.5-3.3c.2 0 .5 0 .7-.3l.7-.7A4.2 4.2 0 0 0 4.6-4c0-.4-.1-.6-.3-.9-.1-.1-.3-.3-.8-.3-.3 0-.6.2-.8.3-.3.2-.5.4-.7.7A4 4 0 0 0 1.7-3l-.2 1.1c0 .9.3 1.2 1 1.2Zm0 0"/>  <path id="n" d="m.3 0 1.3-5.9h1L2-3.4h2.8L5.3-6h1L5 0H4l.7-2.6H1.8L1.3 0Zm0 0"/>  <path id="m" d="m-.2 2.6 1.8-8.5h.8l-.2 1.1 1.1-.8c.1-.4.4-.4.8-.4.6 0 1 .2 1.3.5.3.5.4.9.4 1.5s0 1-.2 1.6l-.5 1.3A3 3 0 0 1 4-.2c-.1.2-.5.2-1 .2-.4.1-.8.1-1-.2a2 2 0 0 1-.5-.7h-.1v.5l-.2.4-.5 2.6Zm3-3.3c.5 0 .7 0 1-.3l.5-.7.4-1.1.1-1.2c0-.8-.3-1.2-.8-1.2-.3 0-.6.2-.8.3a3 3 0 0 0-.7.7c-.3.3-.5.7-.5 1-.2.6-.2 1-.2 1.4s0 .6.2.8c.2.2.5.3 1 .3Zm.1 0"/>  <path id="l" d="m-.6 0 3.2-4.2-1.4-3.7h1l1 3 2.5-2.9h1L3.7-4l1.5 4h-1L3-3.4.5 0Zm0 0"/>  <path id="k" d="m.3 0 1.3-5.9h.8l-.2 1c.3.1.5-.2.6-.3l.7-.6.7-.2c.4 0 .7.1 1 .3 0 .3.2.7.2 1a4 4 0 0 1 .8-.6l.6-.5.7-.2c.5 0 .9.1 1.1.4.4.2.4.6.4 1v.6l-.1.4L8 0h-.9L8-3.7v-.4a2 2 0 0 0 0-.4V-5l-.7-.2-.8.3c-.2.2-.5.4-.7.8-.2.4-.4.8-.5 1.4L4.7 0h-1l.8-3.7.1-.7c0-.3 0-.4-.2-.6L4-5.2l-1 .3c0 .1-.4.4-.6.8C2-3.7 2-3 1.8-2.5L1.3 0Zm0 0"/>  <path id="j" d="M0 0h-.5v-.8H0S.3-.8.5-1l.5-.7.5-1.4.5-1.2.5-1 .7-.4 1-.3H5l.6.3L4.4 0h-1l1.1-5-.2-.2h-.2c-.3.1-.5.1-.7.2-.2.2-.4.5-.5.8l-.6 1.5-.6 1.5-.7 1C.7 0 .4 0 0 0Zm0 0"/>  <path id="i" d="M2.6.1C2 .1 1.5 0 1.1-.5.7-1 .5-1.5.5-2.4A9 9 0 0 1 1-4.9L1.5-6a4 4 0 0 1 .8-1.1c.2-.5.6-.7 1-.8L4-8a19.9 19.9 0 0 1 2.3-.4v.8l-.6.1-1.1.2-.8.2c-.5.2-1 .5-1.2.9-.4.4-.6 1-.8 1.7l.8-.7 1.2-.3c.5 0 1 .2 1.2.5.3.4.4 1 .4 1.5l-.1 1.3L4.8-1c-.2.3-.5.6-.9.8-.3.2-.8.3-1.3.3Zm.1-.8c.4 0 .6 0 .8-.3.3 0 .5-.4.6-.7l.3-.8v-1c.1-.2.1-.6-.1-.8-.2-.3-.5-.4-.8-.4l-.8.2-.6.5-.5.5v1.2c-.1.3-.1.8.1 1.2.3.3.6.4 1.1.4Zm0 0"/>  <path id="h" d="M2.7 0C2 0 1.5 0 1.1-.4.7-1 .5-1.5.5-2.2a5 5 0 0 1 .2-1.3c.1-.5.3-.9.6-1.3a3 3 0 0 1 .9-.7C2.6-6 3-6 3.5-6c.7 0 1.2.2 1.5.6.5.4.7 1 .7 1.7 0 .4 0 .9-.2 1.3-.1.5-.3.9-.6 1.4a3 3 0 0 1-.9.8c-.4.2-.8.2-1.3.2Zm0-.6c.5-.1.9-.2 1.1-.5.2-.2.5-.6.6-.9.2-.6.3-1.1.3-1.8l-.1-.7-.4-.5-.7-.2c-.5 0-.8.2-1 .5-.5.2-.7.5-.9.9L1.5-2c0 .3.1.7.3.9.3.3.6.4 1 .4Zm.1-.1"/>  <path id="g" d="M2.1.1C1.7.1 1.3 0 1-.4.7-.7.5-1.2.5-1.9l.2-1.6.6-1.3c.3-.4.7-.7 1-.9.2-.2.7-.3 1.1-.3.4 0 .7.1 1 .3l.5.7.5-.9H6L4.8 0H4l.2-1a4 4 0 0 1-1.1.7c-.1.3-.6.3-.9.3Zm.3-.8c.3 0 .6 0 .8-.3a3 3 0 0 0 .8-.8 5 5 0 0 0 .4-1.1l.1-.6V-4c.1-.4.1-.6-.1-1-.4 0-.6-.2-.9-.2-.3 0-.5.2-.8.3l-.6.7-.4 1-.2 1.4c0 .3 0 .6.3.9l.6.1Zm0 0"/>  <path id="f" d="m.3 0 1.2-5.9h1L2-3l2.7-2.9h1.2l-3 3L5 0H3.8l-2-3-.4 3Zm0 0"/>  <path id="e" d="M2.7.1C2 .1 1.5 0 1.2-.3.9-.6.7-1 .7-1.6a4 4 0 0 1 0-.4l.1-.6.7-3.4h1l-.6 2.7.6-.1h.7c.8-.1 1.2-.1 1.4.4.4.3.5.6.5 1-.1.6-.1.9-.3 1-.2.5-.4.7-.8.9-.4.1-.8.2-1.3.2Zm0-.8c.5 0 .9-.1 1-.3.3-.2.5-.5.5-.8-.1-.3-.1-.5-.2-.6-.3-.2-.6-.3-1.1-.3a7 7 0 0 0-1 .1l-.2.6v.3c-.1.3-.1.5.1.7.2.2.5.3.9.3Zm0 0"/>  <path id="d" d="M2.7.1C2.1.1 1.5 0 1.1-.4.7-.8.5-1.4.5-2.1l.2-1.5c.3-.4.4-.9.7-1.2a3 3 0 0 1 1-.9c.2-.2.6-.3 1.1-.3h.9l.6.4-.2.6a4 4 0 0 0-.5-.1h-.7c-.4-.1-.8-.1-1 .2-.5.4-.6.9-.9 1.3-.1.4-.2 1-.2 1.5 0 .4.1.8.5 1.1 0 .2.4.3.9.3l.5-.1c.4 0 .6-.2.8-.3v.9l-.7.2a3 3 0 0 1-.8.1Zm0 0"/>  <path id="c" d="M2.7.1C2 .1 1.5 0 1-.5.7-.9.5-1.5.5-2a4.9 4.9 0 0 1 .8-2.7 3 3 0 0 1 1-1.1c.2-.1.7-.2 1.2-.2s1 .1 1.2.4c.3.2.5.5.5 1 0 .3-.2.6-.4 1-.2.3-.6.6-1.1.8-.5.2-1.2.3-2 .3h-.2v.4c0 .4.1.8.3 1 .3.3.6.4 1 .4l.8-.1c.4 0 .5-.2.8-.3v.8l-.8.3-1 .1Zm-1-3.4L3-3.4l.9-.4c.1-.2.3-.5.3-.7 0-.2 0-.5-.2-.5l-.6-.2c-.3 0-.7.2-1 .5-.4.3-.6.8-.7 1.4Zm0 0"/>  <path id="b" d="M2.5.1C1.8.1 1.3 0 1-.5.7-.9.5-1.4.5-2c0-.4 0-1 .2-1.3a4 4 0 0 1 .5-1.2c.3-.3.5-.5.9-.8.3-.2.7-.3 1.2-.3.4 0 .7 0 1 .2l.5.7V-5c0-1 0-1.6-.3-2-.3-.5-.6-.7-1.1-.7l-.6.1-.6.2-.2-.7.7-.3h.8c.8-.1 1.4.1 1.8.7.3.7.5 1.5.5 2.7l-.1 1.3c0 .5-.2 1-.4 1.4A5 5 0 0 1 4.7-1c-.3.3-.7.6-1 .8-.3.2-.7.3-1.2.3Zm0-.8c.5 0 .9-.1 1.1-.4l.6-1.1.5-1.5a2.1 2.1 0 0 0-.5-.8C4-4.8 3.7-5 3.4-5c-.4.1-.7.2-1 .5-.2.3-.4.6-.6 1A4 4 0 0 0 1.4-2c.1.3.1.7.4 1 .1.1.3.2.7.2Zm.1 0"/>  <path id="a" d="M3.7.1C2.7.1 2-.2 1.5-.7 1-1.3.8-2 .8-2.9c0-.7 0-1.4.3-2.1a5 5 0 0 1 .7-1.5c.4-.4.8-.8 1.3-1 .5-.4.9-.5 1.7-.5.9 0 1.6.3 2 1 .5.4.8 1.2.8 2s0 1.4-.3 2.1a5 5 0 0 1-.7 1.4c-.3.6-.7.9-1.2 1.2-.5.3-1 .4-1.7.4Zm0-.9c.5 0 .9 0 1.3-.2.3-.3.6-.6.8-1l.5-1.3c.2-.5.2-1 .2-1.7 0-.6-.1-1.1-.5-1.5-.3-.5-.7-.6-1.3-.6l-1.2.3a3 3 0 0 0-.9 1L2-4.7 1.8-3c0 .7.2 1.3.5 1.7.4.3.8.5 1.4.5Zm0 0"/>  <path d="M1 0v-7.9h4.6V0Zm.6-.6H5v-6.7H1.6ZM3.8-7c.7 0 1.4 0 1.7.4.5.5.7 1.1.7 1.9V0h-.8l-.2-1-1.1 1H2.8c-.6.1-1.2 0-1.6-.4C.8-.7.6-1.2.6-1.9s.3-1.3.8-1.6C2-4 2.8-4.1 4-4.2h1.1v-.4c0-.6-.1-1-.3-1.2-.3-.2-.8-.4-1.2-.4l-.9.2-1.1.4-.2-.9A5.2 5.2 0 0 1 3.8-7ZM5-3.5h-.9c-.9.1-1.5.3-1.8.5-.4.3-.5.6-.5 1 0 .6.1.9.2 1l1.1.1c.5.1.9-.1 1.4-.4.5-.3.6-.7.6-1.5ZM2.6 0 0-7h1.2l1.5 4.1.2.7.2.7.2.5a9 9 0 0 1 .2-.6l.2-.6.2-.8 1.5-3.9h1.2L4 0Zm1 .1C2.7.1 2-.2 1.5-.8 1-1.4.7-2.3.7-3.5c0-1.2.3-2 .8-2.7.5-.6 1.2-.8 2-.8.7 0 1.1 0 1.5.2l.7.7h.1a21.7 21.7 0 0 1 0-.9v-2.9h1V0H6l-.2-1c-.3.5-.5.7-1 .9-.2.1-.7.2-1.2.2Zm.1-1c.8.1 1.3-.1 1.6-.4.3-.5.5-1.1.5-2v-.2c0-.8-.2-1.5-.5-2-.3-.4-.8-.7-1.5-.7s-1.2.3-1.4.8c-.4.4-.5 1.1-.5 2 0 .8.1 1.4.5 1.9.3.5.6.7 1.4.7ZM2.3 0H1v-9.9h1.2Zm4.9-3.5c0 1.2-.3 2-1 2.7-.4.6-1.2 1-2.2 1a3.2 3.2 0 0 1-1.7-.6A3 3 0 0 1 1-1.5c0-.6-.3-1.2-.3-2 0-1.1.3-2 .9-2.7C2.2-6.8 3-7 4-7c.6 0 1 0 1.6.3a3 3 0 0 1 1.2 1.2c.2.6.4 1.2.4 2Zm-5.3 0c0 .8.1 1.5.5 2 .3.4.8.7 1.5.7s1.2-.3 1.6-.7c.3-.5.5-1.2.5-2s-.2-1.5-.5-2C5-5.8 4.6-6 3.9-6c-.7-.1-1.2 0-1.5.6-.4.4-.5 1-.5 1.9ZM1.2 0v-9.3h5.4V0ZM2-.7h3.9v-8H2Zm-.1 0"/> </defs> <image xlink:href="svg/8/2_3.jpg" width="497" height="279"/> <path d="M169.1 52c-1 0-1.6-.1-2.1-.6-.5-.7-.8-1.4-.8-2.4 0-.7 0-1.3.3-1.9a5 5 0 0 1 .8-1.6c.3-.5.7-.8 1.2-1.1.5-.3 1-.4 1.7-.4.8 0 1.6.3 2 .8.7.6.8 1.3.8 2.3 0 .7 0 1.3-.2 1.9a5 5 0 0 1-.8 1.5c-.3.5-.7.9-1.2 1.1-.5.4-1 .6-1.8.6zm0-.7c.5-.1.9-.2 1.2-.4l1-1 .4-1.2.3-1.6c0-.7-.2-1.3-.5-1.7-.5-.4-.8-.4-1.5-.4-.3-.1-.7-.1-1 .2a3 3 0 0 0-1 .8l-.6 1.4-.1 1.6c0 .7.1 1.2.5 1.6.2.4.8.6 1.2.6zM175.8 52c-.6 0-1.1 0-1.4-.4-.4-.6-.5-1.1-.5-1.7l.1-1.2a4 4 0 0 1 .6-1.2c.2-.5.4-.6.8-.9l1.2-.3c.4 0 .8.1 1 .3l.6.7v-.4c0-.9-.2-1.5-.4-1.9-.2-.5-.6-.7-1-.7h-.8l-.4.3-.3-.8.7-.2.8-.1c.8 0 1.4.3 1.8.9.4.5.6 1.4.6 2.5 0 .4 0 .9-.2 1.4 0 .5-.2 1-.3 1.4a5 5 0 0 1-.7 1.2c-.2.4-.6.6-1 .9-.2.2-.6.2-1.1.2zm.2-.6c.3-.1.6-.4 1-.6.2-.2.4-.6.6-1l.4-1.6a2.1 2.1 0 0 0-.5-.8c-.2-.2-.5-.3-.8-.3-.3-.1-.6.1-1 .4l-.5 1a4 4 0 0 0-.4 1.4c0 .4.2.7.3 1.1.2 0 .4.3.8.3zm6.2.6c-.7 0-1.2 0-1.6-.4-.3-.6-.5-1.1-.5-1.7a4.9 4.9 0 0 1 .8-2.7 3 3 0 0 1 1-.9c.2-.2.6-.3 1.1-.3.6 0 1 0 1.3.3.3.3.4.7.4 1s0 .8-.3 1c-.4.5-.7.7-1.2.9-.5.1-1.1.2-2 .2v.4c-.2.5-.2.8.2 1 .2.4.6.6 1 .6.3-.1.6-.1.8-.4l.8-.2v.8l-.8.4h-1zm-1-3.3h1.3l1-.7c.1 0 .2-.3.2-.6.1-.2.1-.3-.1-.4l-.6-.2c-.4 0-.7.1-1 .5-.4.3-.6.7-.8 1.3zm6.6 3.3c-.8 0-1.2 0-1.6-.4-.4-.4-.6-1-.6-1.6 0-.7 0-1.1.2-1.6.1-.5.2-1 .6-1.4a3 3 0 0 1 1-.7c.4-.3.8-.3 1.3-.3h.7l.7.2-.1.8a4 4 0 0 0-.7 0l-.6-.2c-.4 0-.8.1-1.1.4l-.8 1.1-.2 1.7c0 .3 0 .6.3.9.3.2.6.4 1.1.4l.6-.1.7-.3v.8l-.7.3a3 3 0 0 1-.8 0zm4.9 0c-.6 0-1.1 0-1.5-.2-.2-.4-.5-.8-.5-1.4a4 4 0 0 1 0-.5l.2-.6.6-3.2h1l-.5 2.5h.6l.7-.2c.6.1 1.1.2 1.4.5.3.3.3.7.3 1.2.1.3.1.7-.2.9-.1.4-.4.6-.8.8-.3.2-.8.2-1.3.2zm0-.6c.7-.1 1.1-.2 1.2-.5.1-.2.2-.5.2-.8 0-.1 0-.4-.1-.6l-1-.2a7 7 0 0 0-1.2.1l-.1.5v.4c0 .3 0 .5.2.7.2.2.4.3.9.3zm3.4.6 1.2-6h1l-.6 3 2.7-2.9h1.3l-3 2.9 2 3h-1.1l-2-3-.4 3zm7.2 0c-.5 0-.9 0-1.3-.3-.2-.5-.3-1-.3-1.7s0-1 .2-1.5c.1-.5.3-1 .6-1.3.2-.4.5-.7.9-1l1.2-.2c.3 0 .7 0 .9.3.3.2.4.4.5.7h.1l.4-1h.7l-1.3 6h-.7l.1-1.1a4 4 0 0 1-1 .8c-.3.3-.5.4-.9.4zm.3-.6.8-.4a3 3 0 0 0 .6-.8 5 5 0 0 0 .6-1.2v-.6l.2-.4c-.1-.4-.1-.7-.4-.9-.2-.2-.4-.3-.7-.3-.3 0-.7 0-.8.2l-.7.8-.4 1-.1 1.3c0 .4 0 .7.2.9.1.2.4.3.7.3zm-36.9 14c-.6 0-1.2-.2-1.6-.6-.4-.4-.6-1-.6-1.6a5 5 0 0 1 .2-1.4l.6-1.2a3 3 0 0 1 .9-.9c.4-.2.8-.3 1.3-.3.7 0 1.2.2 1.5.6.5.4.7 1 .7 1.6 0 .5 0 1-.2 1.4l-.6 1.2a3 3 0 0 1-.9 1l-1.3.1zm0-.8c.5 0 .9 0 1.1-.3.2-.3.5-.6.6-1.1.2-.5.3-1 .3-1.7l-.1-.5-.4-.6c-.2-.2-.4-.2-.7-.2-.5 0-.8.1-1 .4-.5.3-.7.6-.9 1l-.1 1.7c0 .4.1.7.3.9.3.3.6.5 1 .5zm6.1.9c-.6 0-1.1-.3-1.5-.7-.4-.4-.6-1-.6-1.8a9 9 0 0 1 .4-2.5c.2-.4.3-.9.6-1.3a4 4 0 0 1 .8-1c.3-.3.5-.6 1-.7l.6-.1a19.9 19.9 0 0 1 2.4-.5v.8l-.6.3h-1.1l-.8.3c-.5.1-1 .4-1.2.7-.4.6-.6 1.1-.8 1.8l.8-.5 1.2-.4c.5 0 1 .1 1.2.5.3.3.4.8.4 1.4l-.1 1.4-.5 1.1c-.2.4-.5.7-1 .9-.2.2-.7.3-1.2.3zm.2-.8c.3 0 .5-.1.7-.3l.6-.7.3-.9v-.9c.1-.4.1-.7-.1-.9l-.8-.2c-.2-.1-.5-.1-.7.1l-.7.4-.5.5V63c-.1.5-.1.9.2 1.2.2.3.5.5 1 .5zm3.2.7h-.5v-1h.4c.2.2.4.2.6 0l.5-.8.5-1.3.3-1.3.7-.9.7-.5 1-.2h.9l.5.2-1.2 5.7h-1l1.1-5h-.2l-.2-.2c-.3.1-.5.1-.7.3-.2.2-.4.4-.6.8l-.5 1.4-.5 1.5c-.3.5-.5.9-.8 1-.2.2-.6.3-1 .3zm8.1.1c-.5 0-.9-.2-1.2-.5-.1-.4-.4-1-.4-1.6 0-.4 0-1 .3-1.4l.5-1.4 1-1c.2 0 .6-.2 1-.2.5-.1.8 0 1.1.3l.4.7.5-1h.7l-1.2 6.1h-.8l.2-1.4h-.1a4 4 0 0 1-.9 1.1c-.3.1-.7.3-1.1.3zm.3-.8c.4 0 .6-.1.8-.3a3 3 0 0 0 .7-.8 5 5 0 0 0 .5-1.2l.1-.6v-.5c.1-.3.1-.6-.1-.8-.3-.2-.6-.3-.9-.3-.3 0-.6 0-.8.2-.2.2-.5.4-.6.8l-.5 1-.1 1.3c0 .4 0 .7.2.9.2.2.4.3.7.3zm6.5.8c-.6 0-1.1-.2-1.5-.6-.4-.4-.6-.9-.6-1.7 0-.4 0-.9.2-1.3.1-.6.3-1.1.6-1.4a3 3 0 0 1 1-.8c.2-.3.8-.4 1.2-.4l.8.1.7.2-.3.8a4 4 0 0 0-.5-.1l-.6-.1c-.5 0-.8.1-1.2.4l-.7 1.1c-.2.5-.2 1-.2 1.6 0 .4.1.7.3 1 .2.2.5.4 1 .4.1 0 .3 0 .7-.2l.7-.2v.7l-.7.3a3 3 0 0 1-1 .2zm2.6-.2 1.3-5.8h.8l-.2 1h.1l.5-.5.6-.5.8-.2c.4 0 .7.2 1 .4 0 .2.2.5.2 1a4 4 0 0 1 .8-.7l.6-.5.8-.2c.4 0 .8.2 1 .4.4.3.5.6.5 1.1v.5l-.2.5-.8 3.5h-1l1-3.7v-.4a2 2 0 0 0-.1-.2v-.6c-.4-.2-.4-.2-.7-.2-.2 0-.5 0-.7.2l-.8.9c-.2.2-.4.7-.5 1.3l-.7 2.7h-.9l.9-3.7v-1.2c-.3-.2-.4-.2-.7-.2-.2 0-.5 0-.7.2-.3.2-.6.6-.8.9l-.6 1.5-.5 2.5zm12 .2c-.6 0-1.1-.2-1.5-.5-.2-.2-.5-.7-.5-1.3a4 4 0 0 1 0-.4l.2-.5.6-3.3h1L205 62h.6l.7-.2c.6.1 1.1.2 1.4.5.3.3.3.7.3 1.1.1.4.1.7-.2 1-.1.3-.4.6-.8.8-.3.2-.8.3-1.3.3zm0-.8c.7 0 1.1-.2 1.2-.4.1-.2.2-.5.2-.8 0-.2 0-.4-.1-.5l-1-.3a7 7 0 0 0-1.2 0l-.1.7v.3c0 .3 0 .5.2.7.2.2.4.3.9.3zm.1 0" style="fill:none;stroke:#fff;stroke-width:3;stroke-linecap:butt;stroke-linejoin:round;stroke-miterlimit:10;stroke-opacity:.6" transform="rotate(  340 82.8554 166.414) translate(-104.07503,110.76258)"/> <g style="fill:#7d577d;fill-opacity:1" transform=" rotate(  340 82.8554 166.414) ">  <use xlink:href="#a" x="61.3" y="162.7"/>  <use xlink:href="#b" x="69.3" y="162.7"/>  <use xlink:href="#c" x="75.5" y="162.7"/>  <use xlink:href="#d" x="81" y="162.7"/>  <use xlink:href="#e" x="86" y="162.7"/>  <use xlink:href="#f" x="91.7" y="162.7"/>  <use xlink:href="#g" x="97.1" y="162.7"/>  <use xlink:href="#h" x="59.9" y="176.1"/>  <use xlink:href="#i" x="66.1" y="176.1"/>  <use xlink:href="#j" x="72.1" y="176.1"/>  <use xlink:href="#g" x="78.1" y="176.1"/>  <use xlink:href="#d" x="84.4" y="176.1"/>  <use xlink:href="#k" x="89.3" y="176.1"/>  <use xlink:href="#e" x="99" y="176.1"/> </g> <path d="m436 49 3.2-4.2-1.4-3.7h1l1 3 2.4-3h1l-3 3.9 1.7 3.9h-1.1l-1.3-3.2L437 49zm9 0c-.7 0-1.2 0-1.6-.4-.3-.6-.4-1.1-.4-1.7a4.9 4.9 0 0 1 .7-2.7 3 3 0 0 1 .9-.9l1.2-.3c.6 0 1 0 1.3.3.3.3.4.7.4 1s-.1.9-.4 1.2c-.1.2-.6.5-1 .6-.7.2-1.3.3-2.1.3h-.1v.4c-.1.5-.1.8.2 1.2.3.2.6.3 1.1.3l.8-.1.8-.4v.9c-.3 0-.6.2-.8.3h-1zm-1-3.3h1.4l.9-.7s.2-.3.2-.6l-.1-.4c-.2-.2-.4-.2-.6-.2-.4 0-.8.1-1 .5-.5.3-.7.7-.8 1.3zm3.6 5.9 1.8-8.5h.8l-.2.9 1-.6c.3-.3.7-.4 1-.4.6 0 1 0 1.3.5.2.3.4.8.4 1.5l-.2 1.5-.6 1.5a3 3 0 0 1-1 .8c-.2.2-.6.2-1 .2-.5 0-.9 0-1.1-.2a2 2 0 0 1-.5-.8l-.2.6-.1.4-.4 2.6zm3.1-3.3c.3 0 .6-.1.8-.3.3-.2.5-.4.6-.7l.4-1.1.2-1.2c0-.8-.3-1.2-1-1.2-.2 0-.5 0-.7.2a3 3 0 0 0-.7.8l-.5 1-.2 1.3c0 .3 0 .6.3.9.1.2.4.3.8.3zm6.3.7c-.8 0-1.4 0-1.8-.4-.2-.4-.5-1-.5-1.6l.3-1.6.6-1.3a3 3 0 0 1 1-.8c.2-.3.6-.3 1.1-.3h.9l.7.4-.3.6a4 4 0 0 0-.5-.1l-.7-.1c-.4 0-.8.1-1 .4-.5.3-.7.8-.8 1.1-.2.5-.3 1-.3 1.7 0 .3.1.7.4.9.2.3.5.4.9.4l.6-.1c.4 0 .6-.2.8-.3v.8l-.7.3a3 3 0 0 1-.7 0zm5 0c-.9 0-1.4 0-1.8-.4-.3-.6-.5-1.1-.5-1.8a5 5 0 0 1 .3-1.4l.4-1.2a3 3 0 0 1 1-.8c.3-.4.8-.4 1.3-.4.6 0 1.2.2 1.6.6.4.4.6 1 .6 1.7l-.2 1.3c-.2.5-.3.9-.7 1.4a3 3 0 0 1-.8.7c-.4.3-.8.4-1.3.4zm0-.6c.3-.1.6-.4 1-.5l.5-1c.3-.6.5-1.1.5-1.8-.1-.2-.1-.4-.3-.6 0-.2-.2-.4-.3-.5l-.7-.2c-.4 0-.8.1-1 .4-.5.3-.7.8-.9 1.1l-.1 1.5c0 .5 0 .8.3 1 .2.4.6.6 1 .6zm3.7.6 1.2-6h1.1l-.6 2.6h2.8l.5-2.5h1l-1.3 5.9h-1l.6-2.7h-2.8l-.5 2.7zm9 0c-.6 0-1.2 0-1.6-.4-.4-.4-.6-1-.6-1.6 0-.6 0-1.1.2-1.6l.6-1.3a3 3 0 0 1 1-.8c.4-.3.8-.3 1.3-.3h.8l.6.4-.2.6a4 4 0 0 0-.5-.1l-.7-.1c-.4 0-.8.1-1.1.4-.3.3-.6.8-.7 1.1-.2.5-.3 1-.3 1.7 0 .3.1.7.3.9.3.3.6.4 1 .4l.7-.1c.3 0 .5-.2.7-.3v.8l-.7.3a3 3 0 0 1-.8 0zm4.9 0c-.6 0-1 0-1.4-.2-.4-.4-.5-.8-.5-1.4a4 4 0 0 1 0-.5v-.5l.9-3.4h.9l-.7 2.6h1.4c.7-.1 1.1-.1 1.4.4.4.3.4.6.4 1s0 .9-.2 1c-.2.5-.5.7-.8.9-.4.1-.8.2-1.4.2zm.1-.6c.5-.1.8-.2 1-.4.3-.3.4-.5.4-1l-.3-.5-.8-.2a7 7 0 0 0-1.3.1V48c.3.2.6.3 1 .3zm3.3.6 1.3-6h1l-.8 3 2.9-3h1.2l-3 3 2.1 3h-1.2l-1.9-3-.6 3zm7.2 0c-.5 0-.9 0-1.2-.3-.3-.5-.4-1-.4-1.7s0-1 .2-1.5c.1-.5.4-1 .6-1.3.3-.4.6-.7 1-.9.2-.2.6-.3.9-.3.7 0 1 0 1.2.3.2.2.5.4.5.7l.4-1h.6l-1 6h-1l.2-1.1a4 4 0 0 1-.9.8c-.3.3-.7.4-1.1.4zm.3-.6c.3-.1.5-.2.8-.4a3 3 0 0 0 .7-.8 5 5 0 0 0 .5-1.1l.1-.6V45c0-.4 0-.7-.2-1-.2 0-.5-.2-.8-.2-.3 0-.6 0-.8.2-.3.2-.5.5-.8.8l-.3 1-.1 1.4c0 .3 0 .6.2.8.2.2.4.3.7.3zm-44.7 14.1c-.8 0-1.3-.3-1.8-.7-.2-.4-.4-1-.4-1.6a5 5 0 0 1 .2-1.4c0-.4.2-.8.5-1.2a3 3 0 0 1 1-.9c.2-.2.7-.3 1.1-.3.8 0 1.3.2 1.7.6.4.4.6 1 .6 1.7 0 .3 0 .9-.2 1.3l-.5 1.2a3 3 0 0 1-1 1c-.2 0-.6.2-1.1.2zm0-.9c.4 0 .7 0 1-.3l.7-1 .2-1.9-.1-.4c0-.3-.2-.5-.4-.6l-.7-.2c-.4 0-.7.1-1 .4-.3.4-.6.6-.7 1.1l-.3 1.5c0 .5.1.8.5 1 0 .4.4.5.9.5zm6.1.9c-.7 0-1.2-.2-1.6-.7-.3-.4-.5-1-.5-1.8a9 9 0 0 1 .4-2.5l.5-1.3a4 4 0 0 1 .8-1l1-.7.8-.1a19.9 19.9 0 0 1 2.2-.5l.1.8-.8.3c-.3-.1-.6-.1-1 0l-.8.3c-.5.1-.9.4-1.2.9-.3.4-.6 1-.8 1.7l1-.7c.2-.2.6-.3 1-.3.6 0 1 .1 1.3.5.2.4.4.8.4 1.6 0 .3 0 .7-.2 1.2 0 .4-.3.8-.5 1.1-.2.4-.5.7-.8.9-.4.2-.8.3-1.3.3zm0-.8c.5 0 .8-.1 1-.3l.4-.7.3-.9V58c-.3-.2-.6-.3-.8-.3-.3 0-.6 0-.8.2l-.7.5-.3.5-.2.6v.5c0 .5 0 1 .2 1.2.2.3.5.5 1 .5zM455.2 62.4h-.5v-.9h1l.5-.9.5-1.3.5-1.3.5-.9.7-.5 1-.2h.9l.7.3-1.4 5.7h-1l1.2-5.1h-1.2l-.5.9-.5 1.4-.7 1.6-.7 1-1 .1zm8.1.1c-.3 0-.8-.2-1.1-.5-.3-.4-.5-1-.5-1.5l.3-1.6c.1-.5.3-1 .6-1.3.2-.4.4-.7.9-1l1.1-.1c.4-.1.7-.1 1 .2l.4.7.6-1h.7l-1.3 6.1h-.8l.2-1.2a4 4 0 0 1-1.1.7c-.2.4-.6.5-.9.5zm.3-.8c.4 0 .6-.1.8-.3a3 3 0 0 0 .7-.8 5 5 0 0 0 .5-1.2l.2-.6v-.5c0-.3-.1-.6-.3-.8-.2-.2-.5-.3-.8-.3-.3 0-.5 0-.7.2l-.7.8-.4 1-.2 1.3c0 .4.1.7.3.9 0 .2.4.3.6.3zm6.6.8c-.7 0-1.2-.2-1.6-.6-.4-.3-.6-.9-.6-1.6 0-.6 0-1 .2-1.5.1-.5.3-1 .6-1.3a3 3 0 0 1 1-.8c.4-.2.8-.3 1.2-.3h.8l.7.2-.2.8a4 4 0 0 0-.6-.1l-.6-.1c-.4 0-.8.1-1.1.4l-.8 1.1-.2 1.6c0 .4 0 .7.3 1 .3.2.7.4 1 .4l.7-.1.7-.3v.8l-.7.3a3 3 0 0 1-.8 0zm2.6-.1 1.2-6h.8l-.1 1.2.5-.6.6-.5.8-.1c.4 0 .7 0 1 .3.2.2.3.5.4 1a4 4 0 0 1 .5-.7l.7-.5.8-.1c.5 0 .8 0 1 .3.4.3.6.6.6 1.1v.5l-.4.5-.6 3.6h-1l.8-3.7v-.5a2 2 0 0 0 .1-.2l-.1-.6c-.2-.2-.4-.2-.7-.2-.2 0-.5 0-.7.2l-.8.9c-.2.3-.4.7-.5 1.4l-.6 2.7h-1l.9-3.7v-1.3c-.2-.2-.4-.2-.7-.2-.2 0-.3 0-.7.2l-.8.9-.5 1.5-.6 2.6zm11.9.1c-.6 0-1-.2-1.4-.5-.4-.2-.5-.6-.5-1.2a4 4 0 0 1 0-.5v-.6l.9-3.2h.9L484 59h.6l.7-.2c.6.1 1.1.2 1.4.5.3.3.4.7.4 1.2 0 .3 0 .7-.1 1l-1 .7c-.3.2-.7.3-1.3.3zm.1-.8c.5 0 .8-.1 1-.4.3-.2.4-.5.4-.8l-.3-.5-.8-.3a7 7 0 0 0-1.3.1v1.6c.3.2.6.3 1 .3zm0 0" style="fill:none;stroke:#fff;stroke-width:3;stroke-linecap:butt;stroke-linejoin:round;stroke-miterlimit:10;stroke-opacity:.6" transform="rotate(  340 434.08 120.796) translate(-31.347901,68.129439)"/> <g style="fill:#7d577d;fill-opacity:1" transform=" rotate(  340 434.08 120.796) ">  <use xlink:href="#l" x="405.2" y="117.1"/>  <use xlink:href="#c" x="411" y="117.1"/>  <use xlink:href="#m" x="416.5" y="117.1"/>  <use xlink:href="#d" x="422.9" y="117.1"/>  <use xlink:href="#h" x="427.8" y="117.1"/>  <use xlink:href="#n" x="434" y="117.1"/>  <use xlink:href="#d" x="440.6" y="117.1"/>  <use xlink:href="#e" x="445.6" y="117.1"/>  <use xlink:href="#f" x="451.4" y="117.1"/>  <use xlink:href="#g" x="456.7" y="117.1"/>  <use xlink:href="#h" x="411.7" y="130.5"/>  <use xlink:href="#i" x="417.9" y="130.5"/>  <use xlink:href="#j" x="423.9" y="130.5"/>  <use xlink:href="#g" x="429.9" y="130.5"/>  <use xlink:href="#d" x="436.1" y="130.5"/>  <use xlink:href="#k" x="441.1" y="130.5"/>  <use xlink:href="#e" x="450.7" y="130.5"/> </g> <use style="fill:#f8f8f5;fill-opacity:1;fill-rule:nonzero;stroke:#6e6e59;stroke-width:.8;stroke-linecap:butt;stroke-linejoin:miter;stroke-miterlimit:4;stroke-opacity:1" transform="translate(200.07451,77.068064)" xlink:href="#reuse-0"/> <path d="M194 90c0 .9-.2 1.7-.5 2.3a3.6 3.6 0 0 1-1.3 1.7c-.6.2-1.3.4-2.2.4-.9 0-1.6-.2-2.2-.4a3.4 3.4 0 0 1-1.3-1.7 6 6 0 0 1-.5-2.3c0-1 .2-1.7.5-2.3a3.4 3.4 0 0 1 1.3-1.7c.6-.2 1.3-.4 2.2-.4 1 0 1.6.2 2.2.4.6.5 1 1.1 1.3 1.7.3.6.5 1.3.5 2.3zm-6.8 0c0 1 .2 2 .8 2.6.3.6 1 .9 2 .9s1.7-.3 2.2-1c.4-.5.6-1.3.6-2.5 0-1-.2-2-.6-2.5-.5-.7-1.2-1-2.2-1-1 0-1.6.3-2 1-.6.5-.8 1.4-.8 2.5zm13.2-2.2v5.6h1v3.1h-1.2v-2.2h-4.4v2.2h-1v-3.1h.5c.7-.8 1-1.6 1.3-2.6.3-1 .4-2 .4-3zm-1 .9h-1.5a10.2 10.2 0 0 1-.8 3.3l-.7 1.4h3zm5.6-1c.7 0 1 .3 1.6.4.3.2.6.6.8 1 .2.4.3 1 .3 1.5v.7h-4.4c0 .7.2 1.3.6 1.6.3.4.8.6 1.5.6l1-.1c.4 0 .7-.2 1-.4v1l-1 .3-1.1.1a3.4 3.4 0 0 1-1.6-.4 2.6 2.6 0 0 1-1.1-1c-.3-.7-.4-1.3-.4-2s.1-1.2.4-1.7c.2-.5.4-.9 1-1.2.4-.1.9-.4 1.4-.4zm0 .9c-.5 0-.9.2-1 .5-.4.3-.6.8-.7 1.3h3.3c0-.4-.1-1-.4-1.3-.2-.3-.6-.5-1.2-.5zm7 5.8c-.7 0-1.3-.1-1.7-.3-.3-.3-.7-.6-.9-1.1-.4-.5-.4-1.1-.4-2 0-.7 0-1.3.4-1.9.2-.3.6-.7 1-.9.6-.3 1-.5 1.6-.5l1 .1a3 3 0 0 1 .6.3l-.2.9a7 7 0 0 0-.7-.2 3 3 0 0 0-.7-.1c-1.3 0-2 .8-2 2.3 0 .9.3 1.5.6 1.9.2.4.7.6 1.4.6l1-.1.5-.4v1.1l-.6.2-1 .1zm5.5-6.7c.8 0 1.5.3 1.8.6.4.3.6.9.6 1.6v4.4h-.9l-.1-1-1.1 1-1.1.1c-.7 0-1.1-.1-1.5-.4-.4-.4-.6-.8-.6-1.5 0-.6.4-1.1.8-1.5.5-.3 1.3-.5 2.3-.6h1.1V90c0-.5-.1-.9-.3-1-.3-.4-.6-.5-1-.5a3 3 0 0 0-1 .3c-.3 0-.5.2-.8.2l-.3-.7c.2-.2.6-.3 1-.4l1-.2zm1.3 3.4h-1c-.8.2-1.2.3-1.5.6-.4.1-.6.3-.6.8s.1.6.4.8c.2.2.5.3.8.3.5 0 1-.2 1.4-.6.3-.2.5-.7.5-1.3zm0 0" style="fill:none;stroke:#fff;stroke-width:3;stroke-linecap:butt;stroke-linejoin:round;stroke-miterlimit:10;stroke-opacity:.6" transform=" rotate(  340 205.676 80.0664) "/> <g style="fill:#212121;fill-opacity:1" transform=" rotate(  340 205.676 80.0664) ">  <use xlink:href="#o" x="185.3" y="94.3"/>  <use xlink:href="#p" x="194.6" y="94.3"/>  <use xlink:href="#q" x="201.6" y="94.3"/>  <use xlink:href="#r" x="208.3" y="94.3"/>  <use xlink:href="#s" x="214.1" y="94.3"/> </g> <use style="fill:#f8f8f5;fill-opacity:1;fill-rule:nonzero;stroke:#6e6e59;stroke-width:.8;stroke-linecap:butt;stroke-linejoin:miter;stroke-miterlimit:4;stroke-opacity:1" transform="translate(387.20501,54.857907)" xlink:href="#reuse-0"/> <path d="M376.3 52.9H375l-2.2-3.9-2.3 4h-1.2l2.9-4.6-2.7-4.1h1.2l2.1 3.4 2.2-3.4h1.1l-2.7 4Zm3.5-6.6c.6 0 1 .1 1.4.4.4.2.8.5 1 1 .1.3.2 1 .2 1.5v.6H378c0 .8.3 1.3.6 1.7.4.5.9.6 1.5.6l1.1-.1 1-.4v1l-1 .3h-1.1a3.4 3.4 0 0 1-1.6-.2 2.6 2.6 0 0 1-1.1-1.2c-.4-.5-.4-1-.4-1.8 0-.7 0-1.3.3-1.8s.7-1 1-1.2c.5-.3 1-.4 1.5-.4zm0 .9c-.5 0-.9.1-1.2.5-.3.3-.5.7-.5 1.3h3.3c0-.5-.2-1-.4-1.3-.3-.4-.7-.5-1.2-.5zm7.4-.9c.7 0 1.4.3 1.8.8.6.6.8 1.4.8 2.5s-.2 2-.7 2.5c-.5.6-1.2.9-2.1.9-.3 0-.8-.1-1-.3a2.5 2.5 0 0 1-.8-.7h-.2v3.7h-.8v-9.3h.8v.9l1-.7c.2-.2.6-.3 1.2-.3zm-.2.9c-.7 0-1.1.2-1.4.5-.3.4-.4 1.1-.4 1.8v.1c0 .8 0 1.4.4 1.9.2.4.7.5 1.4.5.4.1.7 0 1-.2.2-.2.4-.5.5-.9a4 4 0 0 0 .2-1.3c0-.6-.1-1.3-.4-1.6-.3-.6-.7-.8-1.3-.8zm7 5.8c-.4 0-1-.1-1.4-.4-.5-.2-.8-.6-1.1-1-.3-.6-.4-1.3-.4-2.1 0-.5.1-1.2.4-1.7.3-.5.6-.8 1-1 .5-.4 1.1-.5 1.7-.5l.9.1a3 3 0 0 1 .7.3l-.3.8a7 7 0 0 0-.7-.2 3 3 0 0 0-.7 0c-1.3-.1-1.9.7-1.9 2.3 0 .8.2 1.4.5 1.9.3.4.7.5 1.3.5h1l.7-.3v1l-.7.1h-1zm8.8-3.4c0 1.1-.2 2-.8 2.5-.5.6-1.3.9-2.2.9a3 3 0 0 1-1.5-.4 2.7 2.7 0 0 1-1-1.1c-.3-.5-.4-1.2-.4-1.9 0-1 .1-1.9.8-2.4.5-.6 1.2-.9 2.2-.9.6 0 1 .1 1.5.4.6.3.8.6 1 1.1.4.5.5 1.2.5 1.8zm-4.8 0c0 .8 0 1.4.4 1.8.3.6.8.7 1.6.7.5 0 .9-.1 1.3-.7.3-.4.4-1 .4-1.8 0-.6-.1-1.3-.4-1.8-.3-.4-.8-.6-1.5-.6-.6 0-1 .2-1.4.6-.3.5-.4 1-.4 1.8zm7.6-3.2v2.7h3.4v-2.7h1.1V53h-1v-3.1h-3.6V53h-1v-6.6zm0 0" style="fill:none;stroke:#fff;stroke-width:3;stroke-linecap:butt;stroke-linejoin:round;stroke-miterlimit:10;stroke-opacity:.6" transform=" rotate(  340 392.805 57.8594) "/> <g style="fill:#212121;fill-opacity:1" transform=" rotate(  340 392.805 57.8594) ">  <use xlink:href="#t" x="369.3" y="52.9"/>  <use xlink:href="#q" x="376.3" y="52.9"/>  <use xlink:href="#u" x="383.1" y="52.9"/>  <use xlink:href="#r" x="390.5" y="52.9"/>  <use xlink:href="#v" x="396.2" y="52.9"/>  <use xlink:href="#w" x="403.5" y="52.9"/> </g> <use style="fill:#fdfdfa;fill-opacity:1;fill-rule:nonzero;stroke:#3f3f35;stroke-width:.5;stroke-linecap:butt;stroke-linejoin:miter;stroke-miterlimit:4;stroke-opacity:1" transform="translate(17.650011,254.51841)" xlink:href="#reuse-1"/> <path d="M-.8 262.6h-1v-6.4H-4v-.8h5.4v.8H-.8zm7.1-5.4v5.4h-.7l-.1-.8-.9.7-.9.1c-.6 0-1.1-.1-1.4-.4-.3-.3-.5-.8-.5-1.5v-3.5h.9v3.4c0 .9.3 1.4 1.2 1.4.6 0 1-.2 1.1-.6.3-.3.4-.8.4-1.4v-2.8zm2.7 5.4H8V255h1zm3.8 0c-.5 0-1 0-1.3-.2-.5-.2-.7-.5-.9-1-.2-.2-.3-.8-.3-1.4 0-.8.1-1.3.3-1.7.4-.4.5-.7 1-1l1.1-.1h.9l.6.3-.2.5h-1.2c-1-.1-1.6.5-1.6 1.9 0 .6.1 1.1.4 1.5.3.3.6.5 1.1.5l.8-.1.6-.2v.8a2 2 0 0 1-.6.2h-.7zm4.7-5.5 1.2.3a2 2 0 0 1 .7.8c.2.4.3.8.3 1.3v.5H16c0 .7.2 1.1.5 1.4.3.3.7.6 1.2.6l1-.2c.1 0 .4-.1.6-.3v.8l-.7.3a5 5 0 0 1-1 0 3 3 0 0 1-1.2-.3 2.2 2.2 0 0 1-1-.9c-.2-.4-.3-.9-.3-1.4s.1-1 .3-1.6l.8-1c.4-.2.8-.3 1.3-.3zm0 .7c-.5 0-.8.2-1 .4-.3.3-.5.8-.5 1.1h2.8c0-.3-.1-.8-.4-1-.2-.3-.4-.6-1-.6zm5.5-.7c.8 0 1.3.1 1.6.4.2.3.4.8.4 1.5v3.6h-.6l-.2-.8c-.3.2-.5.5-.8.6-.2.2-.6.2-1 .2-.5 0-1 0-1.4-.3-.2-.3-.3-.7-.3-1.3 0-.5.2-1 .6-1.2.4-.3 1-.4 2-.5h.7v-.3c.1-.4.1-.7-.2-1l-.8-.1-.8.1-.7.2-.3-.6.9-.4.9-.1zm1.2 2.8h-.9c-.6.1-1 .3-1.3.5-.3.1-.4.3-.4.6 0 .4 0 .6.2.7.2.3.5.3.7.3.5 0 .9 0 1.2-.4.3-.3.3-.7.3-1.2zm-.1.1" style="fill:none;stroke:#fff;stroke-width:3;stroke-linecap:butt;stroke-linejoin:round;stroke-miterlimit:10;stroke-opacity:.6" transform="rotate(  340 21.3985 256.519) translate(8.7774124,-10.031328)"/> <g style="fill:#212121;fill-opacity:1" transform=" rotate(  340 21.3985 256.519) ">  <use xlink:href="#x" x="4.7" y="252.5"/>  <use xlink:href="#y" x="9.8" y="252.5"/>  <use xlink:href="#z" x="16" y="252.5"/>  <use xlink:href="#A" x="18.5" y="252.5"/>  <use xlink:href="#B" x="23.3" y="252.5"/>  <use xlink:href="#C" x="29" y="252.5"/> </g> <path d="M3.7 2C3.7 3 3 3.8 2 3.8S.2 3 .2 2a1.7 1.7 0 1 1 3.5 0zm0 0" style="fill:#fdfdfa;fill-opacity:1;fill-rule:nonzero;stroke:#3f3f35;stroke-width:.5;stroke-linecap:butt;stroke-linejoin:miter;stroke-miterlimit:4;stroke-opacity:1" transform="translate(89.1564,27.511013)"/> <path d="M68.4 41.2h-1v-6.4h-2.1v-.7h5.3v.7h-2.2zm3.5-5.4v4.5l2.7-4.5h1.1v5.4H75v-4.5l-2.8 4.5h-1.1v-5.4zm8.1-.1c.7 0 1.2.3 1.6.7.4.6.6 1.2.6 2.1 0 1-.2 1.6-.6 2-.4.7-1 .9-1.6.9-.4-.1-.8-.1-1-.4l-.6-.5h-.1v3.1h-.7v-7.8h.6l.1.8c.3-.3.5-.6.7-.6.2-.2.6-.3 1-.3zm0 .8c-.7 0-1.1.1-1.3.4-.2.3-.3.8-.3 1.4v.2c0 .7 0 1.2.3 1.5.2.4.6.6 1.2.6.3 0 .6-.1.8-.3l.3-.7c.3-.3.3-.7.3-1.1 0-.6-.1-1.1-.4-1.5-.2-.3-.5-.5-.9-.5zM85.6 35.7c.7 0 1.2.3 1.5.5.3.3.5.7.5 1.3v3.7h-.7l-.2-.8-.7.7-1 .2c-.7 0-1-.1-1.4-.4-.2-.2-.4-.6-.4-1.2 0-.5.2-1 .6-1.2.5-.3 1.2-.5 2-.5h.9v-.4c0-.4-.1-.6-.3-.9-.2-.2-.4-.2-.8-.2h-.8l-.7.5-.3-.8.8-.2 1-.3zm1.1 2.9h-.8c-.7 0-1.1.1-1.4.3-.2.2-.4.5-.4.8 0 .3.1.5.3.7l.7.2c.5 0 .9-.1 1.2-.4.2-.2.4-.6.4-1.1zm4.7 2.7c-.5 0-1-.1-1.4-.3-.3-.2-.5-.5-.8-.9-.2-.4-.2-1-.2-1.6 0-.5 0-1.2.2-1.5.3-.5.6-.8 1.1-1 .1-.2.7-.3 1-.3l.9.1.6.2-.2.8-.6-.2-.6-.1c-1 0-1.6.7-1.6 2 0 .7.2 1.2.4 1.5.3.4.8.5 1.2.5h.6l.8-.4v.9a2 2 0 0 1-.6.2h-.8zm7.2-5.5v5.4h-1v-4.6H95v4.6h-1v-5.4zm6.4 2.7c0 .9-.4 1.6-.9 2-.3.5-.9.9-1.7.9-.4-.1-.9-.2-1.2-.4-.4-.2-.7-.6-1-1l-.2-1.5c0-.9.2-1.6.6-2 .5-.5 1-.8 1.9-.8.4 0 .9.1 1.2.4.4.2.7.5 1 .9l.1 1.5zm-4.2 0c.1.6.2 1.1.4 1.5.3.4.8.6 1.2.6.6 0 1-.2 1.2-.6.4-.4.4-.9.4-1.5s0-1.1-.4-1.5c-.2-.3-.6-.5-1.2-.5-.4 0-.9.2-1.2.5-.2.4-.2 1-.2 1.5zm9.6 2.7h-.9v-4.6H108c0 1-.3 2-.4 2.7-.2.7-.4 1.2-.7 1.5-.2.2-.5.5-.9.5h-.3l-.2-.2v-.6h.3c.4.1.6-.2.9-.9.2-1 .3-2.2.5-3.9h3.2zM113 38h1.6c1.4 0 2 .5 2 1.6.1.4 0 .9-.4 1.2-.4.2-.9.4-1.7.4h-2.4v-5.4h.9zm2.8 1.6c0-.3-.1-.5-.4-.7l-1-.1H113v1.7h1.5c.4 0 .7 0 .9-.2.3-.1.4-.4.4-.7zm0 0" style="fill:none;stroke:#fff;stroke-width:3;stroke-linecap:butt;stroke-linejoin:round;stroke-miterlimit:10;stroke-opacity:.6" transform=" rotate(  340 92.9063 29.5117) "/> <g style="fill:#212121;fill-opacity:1" transform=" rotate(  340 92.9063 29.5117) ">  <use xlink:href="#D" x="65.1" y="41.2"/>  <use xlink:href="#E" x="70.2" y="41.2"/>  <use xlink:href="#F" x="76.6" y="41.2"/>  <use xlink:href="#G" x="82.8" y="41.2"/>  <use xlink:href="#H" x="88.4" y="41.2"/>  <use xlink:href="#I" x="93.2" y="41.2"/>  <use xlink:href="#J" x="99.4" y="41.2"/>  <use xlink:href="#K" x="105.5" y="41.2"/>  <use xlink:href="#L" x="111.2" y="41.2"/> </g> <use style="fill:#fdfdfa;fill-opacity:1;fill-rule:nonzero;stroke:#3f3f35;stroke-width:.5;stroke-linecap:butt;stroke-linejoin:miter;stroke-miterlimit:4;stroke-opacity:1" transform="translate(461.22662,248.53761)" xlink:href="#reuse-1"/> <path d="M442.7 260.7h-4v-7.2h4.1v.8h-3.1v2.3h2.9v.7h-3v2.7h3.2zm5.8-4c0 .3 0 .6-.3.8-.2.1-.4.3-.8.3.4.2.7.2.9.5.3.1.4.4.4.9 0 .3-.2.6-.5.9-.4.4-1 .6-1.7.6h-2.3v-5.4h2.3c.5 0 .7 0 1 .2.3 0 .6.2.7.4.2.1.3.4.3.8zm-.9 0c0-.1 0-.2-.3-.4l-.9-.2h-1.3v1.4h1.2c.9 0 1.3-.2 1.3-.7zm.2 2.5c0-.4-.1-.6-.4-.7-.2-.2-.6-.2-1-.2h-1.3v1.7h1.3c.6 0 .8 0 1-.2.3-.1.4-.4.4-.7zm6.7-3.9v5.4h-.9V256h-2.8v4.7h-.8v-5.4zm3.7-.1c.8 0 1.2.2 1.5.5.3.3.3.7.3 1.3v3.7h-.5l-.2-.8-.7.7-1 .2c-.6 0-1.1-.1-1.4-.4-.2-.3-.4-.7-.4-1.2s.2-1 .6-1.2c.6-.3 1.1-.5 2-.5h.9v-.5c0-.3-.1-.6-.3-.8-.2-.2-.5-.2-.8-.2h-.8l-.7.5-.3-.8.8-.3 1-.2zm1 2.9h-.6c-.8-.1-1.2.1-1.6.3-.1.2-.3.6-.3.8 0 .3.1.5.3.7l.7.1c.5 0 .8 0 1.1-.3.3-.2.5-.6.5-1.2zm6.3-2.1h-1.7v4.8h-.9V256h-1.7v-.7h4.3zm5.6 2c0 .9-.1 1.6-.7 2-.4.6-1 .9-1.8.9-.4-.1-.9-.2-1.2-.4l-1-1-.1-1.5c-.1-.9.1-1.6.5-2 .5-.5 1-.8 1.9-.8.3 0 .9.1 1.2.4.4.2.7.4 1.1.9v1.5zm-4 0c-.1.6.1 1.1.3 1.5.3.5.7.6 1.3.6.5-.1.9-.2 1.1-.6.3-.4.4-.9.4-1.5s-.1-1.1-.4-1.5c-.2-.3-.6-.5-1.2-.5-.5 0-.9.2-1.2.5-.2.5-.3.9-.3 1.5zm7.9-2.8c.8 0 1.4.3 1.8.8.2.4.5 1.1.5 2 0 1-.3 1.6-.6 2-.4.6-1 .9-1.7.9-.4-.1-.7-.2-1-.4l-.7-.5v3.1h-.8v-7.8h.7l.2.8.6-.6c.3-.2.6-.3 1-.3zm0 .8c-.7 0-1 0-1.4.4 0 .3-.2.8-.2 1.4v.2c0 .7.1 1.2.3 1.5.3.5.6.6 1.3.6.3-.1.5-.1.7-.3l.5-.7.2-1.1c0-.6-.2-1.1-.4-1.5-.2-.3-.6-.5-1-.5zm4.5-.7v4.5l2.7-4.5h1.1v5.4h-.6v-4.5l-2.9 4.5h-1.1v-5.4zm5.9 5.4h-1l1.6-2.3-.7-.2a1.5 1.5 0 0 1-.3-.5c-.3-.2-.3-.5-.3-.8 0-.5.2-.9.5-1.2.4-.2.8-.4 1.4-.4h2.4v5.4h-1v-2.1h-1.2zm.2-3.8c0 .3 0 .6.3.7.1.2.5.2 1 .2h1.1v-1.7h-1.3c-.4-.1-.7-.1-.9.2-.2.2-.2.4-.2.6zm0 .1" style="fill:none;stroke:#fff;stroke-width:3;stroke-linecap:butt;stroke-linejoin:round;stroke-miterlimit:10;stroke-opacity:.6" transform="rotate(  340 464.975 250.539) translate(-0.5911017,-14.148036)"/> <g style="fill:#212121;fill-opacity:1" transform=" rotate(  340 464.975 250.539) ">  <use xlink:href="#M" x="437.2" y="246.5"/>  <use xlink:href="#N" x="442.8" y="246.5"/>  <use xlink:href="#I" x="448.5" y="246.5"/>  <use xlink:href="#G" x="454.8" y="246.5"/>  <use xlink:href="#O" x="460.4" y="246.5"/>  <use xlink:href="#J" x="465" y="246.5"/>  <use xlink:href="#F" x="471.1" y="246.5"/>  <use xlink:href="#E" x="477.2" y="246.5"/>  <use xlink:href="#P" x="483.7" y="246.5"/> </g></svg>