<svg xmlns="http://www.w3.org/2000/svg" xmlns:xlink="http://www.w3.org/1999/xlink" viewBox="0 0 497 279"> <defs overflow="visible" style="stroke:none">  <path id="g" d="M2.3.1c-.5 0-1-.1-1.2-.5-.4-.4-.5-1-.5-1.7 0-.6 0-1.1.2-1.7l.7-1.4 1-1c.3-.2.8-.3 1.2-.3.5 0 .8 0 1 .3l.8.8.3-1h.8L5.2 0h-.8l.1-1.2-1 1a2 2 0 0 1-1.2.2Zm.4-.8c.3-.1.5-.3.8-.4.3-.2.6-.5.8-.9l.5-1.2.2-.6v-.6c0-.3-.1-.6-.3-.9-.2-.2-.5-.4-.9-.4-.3 0-.6.1-.8.3l-.7.8-.5 1.2L1.7-2c0 .4 0 .7.2 1 .2 0 .4.2.8.2Zm0-.1"/>  <path id="f" d="M-.3 2.9a3 3 0 0 1-.5 0l-.2-.2v-.8h.2l.4.1c.4 0 .6 0 .9-.3L1 .8l.5-.7-1-6.5h1.2L2-3.2l.1.7v1l.2.5a19 19 0 0 1 1-1.9L5-6.4h1.2L2 1c-.2.7-.6 1-1 1.4-.3.3-.7.6-1.3.6Zm0 0"/>  <path id="e" d="M1 .5.3 0 1-.8c-.3-.4-.4-1-.4-1.6 0-.5 0-1 .2-1.4.1-.5.3-1 .6-1.4l1-1c.4-.1.9-.2 1.4-.2.6-.1 1 0 1.5.3l.5-.9.7.6-.7.8.3.6v.9L6-2.6l-.6 1.3c-.4.4-.6.8-1 1C4 0 3.5.1 3 .1 2.4 0 2 0 1.6-.3Zm.7-2.2 3-3.7-.4-.2h-.5c-.4-.1-.8 0-1.2.3-.3.4-.5.8-.6 1.3l-.4 1.5.1.8ZM3-.7c.4-.1.8-.3 1-.4.5-.3.8-.7 1-1.2v-2.4L2-1l.5.2H3Zm0-.1"/>  <path id="d" d="M2.2.1c-.4 0-.8 0-1-.3-.5-.2-.6-.6-.6-1l.2-1.1.7-3.2h-1l.1-.6 1.1-.5.8-1.3H3l-.3 1.5h1.8l-.3.8H2.6l-.8 3.5V-1l.7.3h.3l.4-.3v.9l-.4.1-.6.1Zm0 0"/>  <path id="c" d="M2.6-7.5 2-7.6v-.5c0-.2 0-.3.2-.5.1-.2.3-.2.5-.2.3 0 .5.2.5.5s0 .5-.2.6l-.4.2ZM.3 0l1.4-6.4h1L1.5 0Zm0 0"/>  <path id="b" d="M1.3 0 .6-6.4h1L2-3v1l.2.7v.5l.4-.7.2-.8.4-.6L5-6.4h1.2L2.7 0Zm0 0"/>  <path id="a" d="m.5 0 1.8-8.6h1l-.7 4.2.6-.8 3.3-3.4h1.3L4.1-4.8 6 0H5L3.3-4.2l-1 .8L1.6 0Zm0 0"/>  <path d="M1.1 0v-8.6h5V0Zm.6-.6h3.8V-8H1.7Zm0 0"/> </defs> <image xlink:href="svg/8/2_34.jpg" width="497" height="279"/> <path d="m361.9 5.4 1.8-8.6h1L364 1l.6-.8 3.4-3.4h1.2L365.5.6l2 4.8h-1.2l-1.6-4.2-1 .8-.8 3.4zm7.5 0-.7-6.5h1l.4 3.6v.8l.2.7v.6l.4-.7.3-.8.3-.6 1.9-3.6h1.1l-3.5 6.5zm6.9-7.5c-.3 0-.3 0-.4-.2l-.2-.4c0-.2 0-.3.3-.5 0-.2.2-.2.4-.2.4 0 .6.1.6.4l-.3.7-.4.2zM374 5.4l1.4-6.5h1l-1.2 6.5zm5 .1c-.4 0-.7-.1-1-.3-.4-.2-.6-.6-.6-1.1l.2-.9.8-3.4h-1v-.5l1.1-.5.8-1.3h.6l-.3 1.4h1.6l-.2.9h-1.6l-.7 3.5-.1.3V4l.1.4c.1.2.3.2.5.2h.4l.5-.1v.8l-.5.1-.6.1zm2.8.3-.6-.4.6-.9c-.3-.4-.4-.9-.4-1.5 0-.5 0-1 .2-1.5.1-.4.4-.9.6-1.3l1-1c.4-.2.9-.2 1.4-.2.6-.1 1 0 1.5.3l.6-.8.6.5-.7.7.4.7v.9l-.1 1.4-.7 1.4c-.3.4-.6.9-1 1-.4.3-.9.4-1.4.4-.6 0-1-.1-1.4-.5zm.7-2.1 3-3.7-.5-.2h-.4c-.4-.1-.8-.1-1.2.3-.3.4-.4.8-.7 1.3-.2.4-.3 1-.3 1.5l.1.8zm1.3 1c.4-.1.8-.3 1.2-.6.2-.1.5-.5.7-1 .2-.5.2-1 .2-1.7V.7l-3 3.7.4.2h.5zm3.2 3.6a3 3 0 0 1-.4 0l-.4-.3v-.7h.4l.4.2c.3-.1.6-.2.8-.4l.6-.9.6-.7-1.1-6.6h1l.5 3.2V3l.2.9v.6a19 19 0 0 1 1-2l1.8-3.6h1.1l-4 7.6c-.5.5-.8 1-1.2 1.3-.3.3-.7.5-1.3.5zm8.2-2.8c-.5 0-.9-.2-1.2-.5-.3-.4-.5-1-.5-1.7 0-.6 0-1.2.2-1.7l.7-1.4c.3-.4.6-.8 1-1 .4-.2.8-.4 1.3-.4.3 0 .7.2 1 .4l.6.7.4-.9h.8l-1.3 6.4h-.9l.2-1.2-1.1 1a2 2 0 0 1-1.2.2zm.4-.9c.3 0 .6 0 .9-.3l.7-.9.6-1.2v-.6l.2-.6c0-.4-.2-.7-.4-1-.2-.1-.5-.2-.8-.2l-1 .2-.5.8-.6 1.2-.1 1.3c0 .5 0 .8.2 1 .2.2.5.3.8.3zm0 0" style="fill:none;stroke:#fff;stroke-width:2;stroke-linecap:butt;stroke-linejoin:round;stroke-miterlimit:10;stroke-opacity:.6" transform="rotate(  340 324.961 34.3017) translate(-55.563559,31.919492)"/> <g style="fill:#000;fill-opacity:1" transform=" rotate(  340 324.961 34.3017) ">  <use xlink:href="#a" x="305.8" y="37.3"/>  <use xlink:href="#b" x="312.6" y="37.3"/>  <use xlink:href="#c" x="318.2" y="37.3"/>  <use xlink:href="#d" x="321.3" y="37.3"/>  <use xlink:href="#e" x="325.2" y="37.3"/>  <use xlink:href="#f" x="331.8" y="37.3"/>  <use xlink:href="#g" x="337.4" y="37.3"/> </g></svg>