<svg xmlns="http://www.w3.org/2000/svg" xmlns:xlink="http://www.w3.org/1999/xlink" viewBox="0 0 497 279"> <defs>  <path d="M1 0v-7.1h4V0Zm.4-.5h3.1v-6.1h-3Zm.1 0" id="reuse-0"/> </defs> <defs overflow="visible" style="stroke:none">  <path id="o" d="m.3 0 1.1-5.4h.7v1l.4-.5.6-.4.7-.2c.4 0 .7.2.9.5.2 0 .3.4.3.7l.5-.5.6-.5.9-.2c.3 0 .6.2.9.5.1 0 .2.4.2.9v.4l-.1.4L7.4 0h-.9l.7-3.4v-.4l.2-.2c-.1-.3-.1-.4-.3-.5 0-.2-.1-.2-.5-.2-.2 0-.4 0-.6.2l-.7.8c-.3.3-.4.7-.5 1.3L4.3 0h-1l.9-3.4v-1.1c-.4-.2-.5-.2-.8-.2-.1 0-.3 0-.6.2l-.6.8c-.3.3-.4.7-.5 1.4L1.2 0Zm0 0"/>  <path id="n" d="M2 0c-.6 0-.9 0-1.2-.3C.6-.7.5-1 .5-1.7c0-.5 0-1 .2-1.4 0-.5.3-.9.5-1.2.2-.4.5-.7.8-.8a2 2 0 0 1 1.1-.4c.4 0 .7.1.9.3l.5.7a35.3 35.3 0 0 1 .2-1.3l.4-1.8H6L4.4 0h-.8l.1-1-.8.8c-.3.2-.6.2-.9.2Zm.1-.5c.4-.1.6-.2.9-.5l.5-.5.5-1 .2-1.1c0-.4-.2-.6-.3-.8-.1-.2-.4-.3-.7-.3-.3 0-.5 0-.8.2l-.4.7-.5 1-.1 1.1c0 .7.3 1 .8 1Zm.1-.1"/>  <path id="m" d="m-.2 0 .1-.5.8-.2L2-6.5l-.8-.1.1-.5h2.5l-.1.5-.9.1L1.6-.7l.8.2-.1.5Zm0 0"/>  <path id="l" d="m.3 0 1.6-7.6h.9l-.8 3c.1.6 0 1-.2 1.3l-.1.5 2.5-2.6h1L3-3l1.4 3h-1L2.3-2.5l-.7.5-.4 2Zm0 0"/>  <path id="k" d="M1.5 0H.7L0-.2V-1l.7.3h.8c.5.1.7.1 1-.1l.1-.7c.1-.1.1-.3-.1-.4 0-.2-.3-.3-.7-.5L1-3.1c-.2-.2-.3-.5-.3-.8 0-.5.1-.9.5-1.1.3-.3.7-.5 1.3-.5.3 0 .6 0 .9.2l.6.2-.2.7-.5-.2-.8-.1c-.3 0-.5 0-.7.2-.2.1-.2.3-.2.5l.1.5.7.5c.3 0 .6.2.6.4.2 0 .4.2.5.4l.1.7c0 .5-.2 1-.5 1.2C2.7 0 2 0 1.5 0Zm0 0"/>  <path id="j" d="m.3 0 1.6-7.6h.9L1.2 0Zm0 0"/>  <path id="i" d="M2 0c-.6 0-.9 0-1.2-.3C.6-.7.5-1 .5-1.7c0-.5 0-1 .2-1.5l.5-1.1c.2-.4.5-.7.8-.9a2 2 0 0 1 1.1-.3c.4 0 .6.1.9.3l.5.7.3-.9h.7L4.4 0h-.7l.1-1c-.3.3-.5.6-.9.8-.3.2-.6.2-.9.2Zm.1-.5c.4-.1.6-.2.9-.5l.6-.6a4 4 0 0 0 .4-1 3 3 0 0 0 .1-.7 4 4 0 0 0 0-.4c.1-.3.1-.5-.1-.7-.3-.2-.5-.3-.8-.3-.3 0-.5 0-.7.2a2 2 0 0 0-.6.7l-.4 1-.1 1.1c0 .4 0 .6.2.8.1.2.3.3.6.3Zm.1-.1"/>  <path id="h" d="m.2 0 1.2-5.4h.8l-.2 1 .5-.6a2 2 0 0 1 .6-.3l.9-.2c.3 0 .6.1.9.5.1 0 .4.4.4.9v.4l-.2.5L4.4 0h-.9l.7-3.4v-.4l.2-.2c-.1-.5-.3-.7-.8-.7-.2 0-.4 0-.6.2-.3.2-.6.5-.8.8-.2.3-.4.8-.5 1.4L1.2 0Zm0 0"/>  <path id="g" d="M3 0c-.8 0-1.3 0-1.7-.3C1-.8.8-1.2.8-2a6 6 0 0 1 0-.3l.2-.5 1-4.3h.6l-.8 4.3-.1.5v.4c0 .4.1.7.3.9.3.2.6.3 1 .3.6 0 1-.1 1.4-.3.3-.5.5-1 .6-1.5l1-4.6h.9l-1 4.7-.5 1.3c-.4.4-.6.7-1 .9-.2.2-.7.3-1.4.3Zm0 0"/>  <use xlink:href="#reuse-0"/>  <path id="f" d="M1.7-7.6v4.8L2-3v-.3l.4-.2L4-5.4h1L2.9-3l2.4 3H4.2L2.3-2.5l-.6.5v2H.8v-7.6Zm0 0"/>  <path id="e" d="M4.3-1.5c0 .5-.2 1-.5 1.2-.4.3-1 .4-1.6.4l-1-.1-.7-.2V-1l.8.3h1.8l.4-.7-.1-.4L3-2a7.5 7.5 0 0 0-.8-.4 7.5 7.5 0 0 1-1-.4l-.4-.5L.5-4c0-.5.2-.8.6-1 .3-.4.8-.6 1.4-.6l1 .2a4 4 0 0 1 .6.4l-.1.6-.8-.2-.7-.1-.9.1c-.2.2-.3.3-.3.6s0 .2.2.3l.4.3.8.3.9.4.4.5c.3.2.3.4.3.7Zm0 0"/>  <path id="d" d="M1.7 0H.8v-7.6h1Zm0 0"/>  <path id="c" d="M2.9-5.5c.6 0 1.1.2 1.4.5.3.3.5.7.5 1.3V0h-.6L4-.8c-.3.3-.5.6-.8.8h-1c-.5 0-1 0-1.3-.3C.6-.5.5-.9.5-1.5c0-.5.2-1 .5-1.2.5-.3 1-.5 2-.5h.8v-.3c.2-.5.2-.8-.2-1l-.8-.2H2l-.7.5L1-5l1-.3.9-.2Zm1 2.9h-.8c-.6 0-1 .1-1.4.3-.1.3-.3.5-.3.8 0 .3 0 .5.2.7l.7.2c.5 0 .9-.1 1.2-.4.3-.2.4-.6.4-1Zm.1 0"/>  <path id="b" d="M3.4-5.5c.7 0 1.2.2 1.6.5.2.3.4.8.4 1.5V0h-.9v-3.4c0-.9-.4-1.3-1.2-1.3-.6 0-1 .1-1.2.5-.3.2-.4.8-.4 1.4V0H.8v-5.4h.8v.8h.2c.2-.4.3-.5.7-.7l1-.2Zm0 0"/>  <path id="a" d="M6.4-7.1v4.6c0 .5-.1 1-.3 1.3-.2.4-.5.7-1.1 1-.1.2-.6.2-1.3.2-1 0-1.6-.1-2.1-.6-.6-.5-.7-1.1-.7-2V-7h.9v4.5c0 .5.2 1 .5 1.3.3.4.7.5 1.4.5.6 0 1-.2 1.3-.5.4-.3.5-.8.5-1.3v-4.6Zm0 0"/>  <use xlink:href="#reuse-0"/> </defs> <image xlink:href="svg/8/34_7.jpg" width="497" height="279"/> <path d="M3.7 2A1.7 1.7 0 1 1 .2 2a1.7 1.7 0 0 1 3.5 0zm0 0" style="fill:#fdfdfa;fill-opacity:1;fill-rule:nonzero;stroke:#3f3f35;stroke-width:.5;stroke-linecap:butt;stroke-linejoin:miter;stroke-miterlimit:4;stroke-opacity:1" transform="translate(439.2084,46.99506)"/> <path d="M426.1 53.5v4.7c0 .5-.1.8-.3 1.3-.2.4-.5.7-1 1-.2.1-.8.2-1.4.2-1 .1-1.6-.2-2.1-.7-.5-.4-.7-1.1-.7-2v-4.5h.9v4.7c0 .5.1 1 .5 1.3.3.3.7.5 1.4.5.6 0 1-.2 1.4-.5.2-.5.4-.8.4-1.3v-4.7zm4.3 1.7c.7 0 1.2.2 1.6.5.2.3.4.8.4 1.5v3.5h-.9v-3.5c0-.8-.4-1.2-1.2-1.2-.6 0-1 0-1.2.5-.3.3-.4.8-.4 1.4v2.8h-.9v-5.4h.8v.8h.2l.7-.7 1-.2zm5.6 0c.8 0 1.3.2 1.6.5.2.2.4.7.4 1.3v3.7h-.7l-.1-.8-.9.7-.9.2c-.7 0-1.1-.2-1.4-.4-.2-.4-.4-.7-.4-1.2s.2-1 .7-1.2c.4-.3 1-.5 2-.5h.7V57c.1-.3.1-.6-.2-.8-.2-.2-.4-.2-.8-.2-.3 0-.5 0-.8.1l-.7.2-.3-.6c.3-.1.5-.3.9-.3l.9-.2zm1.2 2.9h-.9c-.6-.1-1.1.1-1.3.3-.3.2-.4.6-.4.8 0 .3 0 .5.2.7l.7.1c.5 0 .9-.1 1.2-.3.3-.3.3-.7.3-1.2zm3.3 2.6h-.9V53h1zm3.8-5.5c.6 0 1 .2 1.3.5.4.2.6.7.6 1.3v3.7h-.7l-.1-.8-.9.7-.9.2c-.6 0-1.1-.2-1.4-.4-.2-.4-.4-.7-.4-1.2s.2-1 .7-1.2c.4-.3 1-.5 2-.5h.7V57c.1-.3.1-.6-.2-.8-.2-.2-.4-.2-.8-.2-.3 0-.5 0-.8.1l-.7.2-.3-.6c.3-.1.6-.3.9-.3l1-.2zm1 2.9h-.8c-.7-.1-1.1.1-1.4.3-.1.2-.4.6-.4.8.1.3.2.5.3.7l.7.1c.5 0 .9-.1 1.3-.3.2-.3.3-.7.3-1.2zM451.3 59.2c0 .5-.2 1-.5 1.2-.4.2-1 .4-1.7.4l-.9-.1c-.2 0-.5-.2-.7-.3v-.8l.8.4.9.1c.4-.1.8-.1 1-.3.2-.1.3-.3.3-.5l-.1-.4-.4-.3a7.5 7.5 0 0 0-.8-.4 7.5 7.5 0 0 1-1-.4l-.4-.4-.3-.8c0-.4.2-.8.5-1 .4-.3 1-.4 1.5-.4l1 .1a4 4 0 0 1 .6.3l-.1.7-.8-.3h-1.6c-.2.2-.3.4-.3.6 0 .1 0 .3.2.4l.4.3.8.3.9.4.4.5c.3.2.3.4.3.7zm2.2-6.2v5l.2-.3.2-.3.2-.4 1.7-1.7h1l-1.9 2.3 2.1 3h-1l-2-2.3-.5.4v2h-.9V53zm6.5 2.2c.6 0 1 .2 1.4.5.4.2.6.7.6 1.3v3.7h-.7l-.3-.8-.7.7-1 .2c-.5 0-1-.2-1.3-.4-.3-.4-.4-.7-.4-1.2s.2-1 .6-1.2c.4-.3 1-.5 2-.5h.8V57c0-.3-.1-.6-.2-.8-.2-.2-.5-.2-.9-.2-.2 0-.5 0-.8.1l-.7.2-.2-.6c.2-.1.5-.3.8-.3l1-.2zm1 2.9h-.6c-.8-.1-1.4.1-1.5.3-.3.2-.4.6-.4.8 0 .3 0 .5.3.7l.7.1c.4 0 .8-.1 1.1-.3.3-.3.5-.7.5-1.2zm0-.1" style="fill:none;stroke:#fff;stroke-width:3;stroke-linecap:butt;stroke-linejoin:round;stroke-miterlimit:10;stroke-opacity:.6" transform=" rotate(  340 442.957 48.9961) "/> <g style="fill:#212121;fill-opacity:1" transform=" rotate(  340 442.957 48.9961) ">  <use xlink:href="#a" x="419.7" y="60.7"/>  <use xlink:href="#b" x="427" y="60.7"/>  <use xlink:href="#c" x="433.2" y="60.7"/>  <use xlink:href="#d" x="438.8" y="60.7"/>  <use xlink:href="#c" x="441.4" y="60.7"/>  <use xlink:href="#e" x="447" y="60.7"/>  <use xlink:href="#f" x="451.8" y="60.7"/>  <use xlink:href="#c" x="457.1" y="60.7"/> </g> <path d="M410.3 87.6c-.7 0-1.3-.2-1.6-.5-.4-.3-.7-.8-.7-1.5v-.4l.2-.5 1-4.3h.8l-1 4.3v.9c0 .4 0 .7.3 1l1.1.1c.6.1 1 0 1.3-.3.3-.4.5-.8.6-1.4l1-4.6h1l-1.1 4.6-.6 1.4c-.1.4-.4.7-.9 1l-1.3.1zm4-.1 1.2-5.4h.8l-.1 1 .4-.5a2 2 0 0 1 .6-.4l.8-.2c.4 0 .8.2 1 .4.2.2.4.5.4 1v.4l-.2.5-.7 3.2h-.9l.7-3.4v-.3l.2-.3c-.1-.5-.3-.7-.8-.7l-.7.3-.7.7c-.2.4-.3.8-.5 1.4l-.5 2.3zm7.5.1c-.4 0-.7-.1-1-.4-.3-.4-.4-.8-.4-1.4 0-.5 0-1 .2-1.4l.4-1.2c.3-.4.6-.6 1-.8a2 2 0 0 1 1-.4c.4 0 .6 0 .9.3l.4.7h.1l.3-.8h.7l-1.1 5.3h-.7v-1l-.8.8c-.3.2-.6.3-1 .3zm.3-.6c.3-.1.5-.2.7-.4l.7-.6a4 4 0 0 0 .4-1.1 3 3 0 0 0 .1-.6 4 4 0 0 0 0-.3c0-.5 0-.7-.1-1-.3-.1-.5-.2-.9-.2-.2 0-.4 0-.6.2a2 2 0 0 0-.6.7l-.4 1-.1 1.1c0 .4 0 .6.2.8.1.2.3.4.5.4zm3.7.5 1.7-7.5h.8l-1.6 7.5zm4.2.1c-.2 0-.6-.1-1-.4-.2-.4-.4-.8-.4-1.4l.2-1.4c.2-.5.3-.9.6-1.2.2-.4.5-.6.8-.8a2 2 0 0 1 1-.4c.5 0 .8 0 1.1.3l.2.7.5-.8h.7l-1.2 5.3h-.7l.2-1-1 .8c-.1.2-.4.3-1 .3zm.5-.6c.1-.1.4-.2.5-.4l.7-.6a4 4 0 0 0 .5-1.1 3 3 0 0 0 0-.6 4 4 0 0 0 .2-.3c-.1-.5-.1-.7-.4-1 0-.1-.4-.2-.6-.2-.4 0-.5 0-.8.2a2 2 0 0 0-.5.7l-.4 1-.2 1.1.2.8c.3.2.4.4.7.4zm4.9.6h-.9l-.5-.4v-.7l.5.3h1.8l.3-.8-.2-.4-.7-.6c-.4-.1-.7-.3-.9-.6-.2-.2-.3-.4-.3-.8 0-.6.2-.8.5-1.1.3-.3.8-.5 1.3-.5h1l.7.5-.3.6-.7-.1-.7-.2c-.3 0-.5 0-.7.2l-.2.5c0 .2 0 .5.2.5l.7.5.6.4.4.4.2.7c0 .5-.2 1-.6 1.2-.4.3-.9.4-1.5.4zm3-.1L440 80h1l-.8 3-.2 1.2-.2.5 2.6-2.4h1l-2.3 2.2 1.4 3h-1l-.9-2.5-1 .6-.3 2zm6.6.1c-.4 0-.7-.1-1-.4-.3-.4-.4-.8-.4-1.4 0-.5 0-1 .2-1.4l.5-1.2c.3-.4.5-.6.9-.8a2 2 0 0 1 1-.4c.4 0 .8 0 .9.3l.5.7.4-.8h.6l-1.1 5.3h-.7l.1-1c-.3.3-.5.6-.9.8-.3.2-.6.3-1 .3zm.3-.6c.3-.1.5-.2.7-.4l.7-.6a4 4 0 0 0 .3-1.1 3 3 0 0 0 .2-.6 4 4 0 0 0 0-.3c.1-.5.1-.7-.2-1-.2-.1-.4-.2-.7-.2-.3 0-.5 0-.7.2a2 2 0 0 0-.6.7l-.4 1-.1 1.1c0 .4 0 .6.2.8.1.2.4.4.6.4zm-31.1 12.5V99l1.1-.2.9-5.8-.6-.2v-.5h2.7l-.3.5-.8.2-1.2 5.8.8.2-.1.5zm4.9.1-.8-.1-.7-.3v-.8l.7.3.8.1c.4 0 .7 0 1-.2l.1-.6c.1-.2.1-.4-.1-.5l-.7-.5-.8-.6c-.2-.4-.3-.5-.3-.9s.1-.8.5-1c.2-.5.7-.5 1.2-.5l1 .1c.3 0 .5.2.7.3l-.3.6-.4-.2h-1.6c-.2.3-.2.5-.2.7l.1.4c.1.2.4.3.7.5l.6.4.5.5.1.6c0 .6-.2 1.1-.5 1.2-.4.3-1 .5-1.7.5zm3.1-.1 1.6-7.6h.9l-1.7 7.6zm4.2.1c-.4 0-.7-.2-1-.6-.4-.2-.4-.7-.4-1.3 0-.5 0-1 .2-1.4l.5-1.2.8-.8a2 2 0 0 1 1.1-.3c.4 0 .6.1.9.3l.5.6.3-.8h.7l-1.1 5.4h-.7l.1-1-.9.7c-.3.2-.6.4-1 .4zm.3-.8c.3 0 .5 0 .7-.2l.7-.8a4 4 0 0 0 .4-1 3 3 0 0 0 .1-.5 4 4 0 0 0 0-.5c.1-.3.1-.6-.1-.8-.3-.2-.5-.3-.8-.3-.3 0-.5.1-.7.3a2 2 0 0 0-.6.7c-.2.2-.3.6-.4 1v.9c-.1.6-.1.9 0 1.1l.7.1zm3.7.7 1.2-5.5h.8l-.2 1 .5-.4a2 2 0 0 1 .6-.6h.7c.5 0 .8 0 1 .3.3.3.4.7.4 1v.9l-.9 3.3h-.9l.9-3.5v-.6c0-.4-.1-.6-.6-.6-.3 0-.5 0-.8.2-.2.2-.5.4-.7.8l-.5 1.2-.5 2.5zm7.6.1c-.6 0-1-.2-1.2-.6-.2-.2-.3-.7-.3-1.3l.1-1.4.6-1.2.8-.8a2 2 0 0 1 1-.3c.5 0 .8.1 1 .3l.3.6a35.3 35.3 0 0 1 .5-1.3l.3-1.6h.8l-1.6 7.5h-.7l.1-1-.8.7c-.3.2-.6.4-1 .4zm.1-.8c.3 0 .5 0 .9-.2l.5-.7.5-.9v-1c.1-.6.1-.9 0-1-.2-.2-.5-.3-.9-.3-.1 0-.5.1-.7.3l-.6.7-.3 1-.2 1c0 .9.3 1.2 1 1.2zm.1 0" style="fill:none;stroke:#fff;stroke-width:2;stroke-linecap:butt;stroke-linejoin:round;stroke-miterlimit:10;stroke-opacity:.6" transform="rotate(  340 380.047 117.236) translate(-47.64881,26.750209)"/> <g style="fill:#000;fill-opacity:1" transform=" rotate(  340 380.047 117.236) ">  <use xlink:href="#g" x="359.7" y="114.3"/>  <use xlink:href="#h" x="366.5" y="114.3"/>  <use xlink:href="#i" x="372.2" y="114.3"/>  <use xlink:href="#j" x="377.9" y="114.3"/>  <use xlink:href="#i" x="380.5" y="114.3"/>  <use xlink:href="#k" x="386.2" y="114.3"/>  <use xlink:href="#l" x="390.5" y="114.3"/>  <use xlink:href="#i" x="395.5" y="114.3"/>  <use xlink:href="#m" x="366.7" y="126.2"/>  <use xlink:href="#k" x="370" y="126.2"/>  <use xlink:href="#j" x="374.3" y="126.2"/>  <use xlink:href="#i" x="376.9" y="126.2"/>  <use xlink:href="#h" x="382.5" y="126.2"/>  <use xlink:href="#n" x="388.3" y="126.2"/> </g> <path d="M229.8 160c-.7 0-1.3-.2-1.6-.6-.4-.3-.6-.8-.6-1.4v-.4l.2-.6.9-4.3h.9l-1 4.4v.9c-.1.3-.1.6.2.9.2.1.6.3 1.1.3.6 0 1-.2 1.3-.5.3-.3.5-.7.6-1.3l1-4.7h1l-1.1 4.7-.6 1.4c-.1.4-.4.7-.8.9-.4.2-.9.3-1.5.3zm4.1-.1 1.1-5.4h.8l-.2 1 .6-.5.5-.4.7-.2c.4 0 .7.1.9.3.2.3.3.5.3.9l.6-.6.6-.4.7-.2c.4 0 .7.1 1 .4.2.2.3.5.3 1v.3l-.1.5-.7 3.3h-.9l.7-3.4v-.4l.2-.3-.2-.5-.6-.2-.6.3-.7.6-.5 1.4-.5 2.6h-.9l.7-3.5.1-.7c0-.2 0-.3-.2-.5l-.4-.2c-.3 0-.5.1-.7.3-.3.1-.5.4-.7.6l-.5 1.6-.5 2.3zm8.7 0 1.2-5.4h.7v1c-.1-.2.1-.5.3-.5a2 2 0 0 1 .7-.4c.2-.2.5-.2.7-.2.5 0 .8.1 1 .3.4.3.5.6.5 1v.9l-1 3.4h-.9l.9-3.5v-.7c0-.4-.2-.6-.7-.6-.2 0-.5 0-.7.2-.3.2-.5.4-.7.8-.3.3-.4.8-.6 1.4l-.4 2.3zm7.4.1c-.2 0-.6-.2-1-.5-.2-.3-.4-.8-.4-1.4l.2-1.4.6-1.2.8-.8a2 2 0 0 1 1-.3c.5 0 .8.1 1.1.3l.2.6.5-.8h.7l-1.2 5.4h-.7l.2-1-.9.7c-.3.4-.6.4-1.1.4zm.5-.8c.1 0 .4 0 .5-.2l.7-.8a4 4 0 0 0 .5-1 3 3 0 0 0 0-.5 4 4 0 0 0 .2-.5c-.1-.2-.1-.6-.4-.8 0-.2-.4-.3-.6-.3-.4 0-.5.1-.8.3a2 2 0 0 0-.5.6c-.2.3-.3.7-.4 1l-.2 1 .2 1c.3.2.4.2.7.2zm3.6.7 1.6-7.6h.9l-.6 3-.3 1.2-.2.6 2.5-2.6h1l-2.1 2.3 1.3 3h-1l-1-2.4-.9.6-.3 2zM229 171.8v-.5l1-.2 1-5.7-.7-.2.1-.5h2.6v.5l-1.2.2-1 5.6.7.3v.5zm4.9.1-.9-.1-.6-.2v-.8l.7.2h.8c.4.2.7.2.9 0 .2-.2.2-.4.2-.6s0-.4-.1-.5c-.1-.2-.4-.3-.7-.5l-.9-.7c-.2-.2-.3-.5-.3-.7 0-.6.2-1 .5-1.2.5-.3.8-.4 1.5-.4h.7l.8.4-.3.6-.6-.2-.7-.1c-.3-.1-.6-.1-.7.2-.2.1-.3.3-.3.5s.1.3.2.5l.7.5c.2 0 .4.2.6.4.2 0 .3.2.4.4l.2.7c0 .5-.2 1-.6 1.2-.4.3-.9.4-1.4.4zm3.1-.1 1.5-7.6h.9l-1.6 7.6zm4.2.1c-.4 0-.8-.2-1-.5-.4-.3-.6-.7-.6-1.3l.4-1.5c.1-.4.2-.8.5-1.1.2-.5.5-.7.8-.9a2 2 0 0 1 1-.2c.5 0 .7 0 1.1.2l.2.7.6-.9h.6l-1.2 5.4h-.6l.1-1h-.1l-.8.8c-.3.2-.6.3-1 .3zm.3-.7c.2 0 .5-.2.7-.3l.6-.7a4 4 0 0 0 .5-1 3 3 0 0 0 0-.7 4 4 0 0 0 .2-.4c-.1-.3-.1-.5-.4-.7-.1-.2-.4-.4-.6-.4-.3 0-.5 0-.8.3a2 2 0 0 0-.5.7l-.4 1-.2 1 .2.9c.2.2.4.3.7.3zm3.7.6 1.1-5.4h.8l-.1 1 .4-.5a2 2 0 0 1 .6-.4l.8-.2c.4 0 .8.1 1 .4.3.2.4.5.4 1v.3l-.2.6-.6 3.2h-1l.8-3.4v-.6c0-.5-.2-.8-.6-.8-.2.1-.6.2-.7.4-.3.1-.5.4-.9.6 0 .4-.3.9-.4 1.5l-.5 2.3zm7.5.1c-.5 0-.8-.2-1-.5-.5-.3-.6-.7-.6-1.3.1-.5.1-1.1.3-1.4l.5-1.2c.2-.5.5-.6.8-.8a2 2 0 0 1 1.1-.3c.4 0 .7 0 .9.2l.5.7a35.3 35.3 0 0 1 .3-1.3l.3-1.8h.9l-1.7 7.6h-.6v-1l-.8.8c-.3.2-.6.3-1 .3zm.3-.7.6-.3.6-.6.5-1 .3-1.1c-.1-.4-.1-.6-.3-.8-.2-.2-.5-.4-.8-.4-.3 0-.5 0-.7.4-.3.1-.4.4-.6.6l-.4 1-.1 1.1c0 .7.3 1 .9 1zm0 0" style="fill:none;stroke:#fff;stroke-width:2;stroke-linecap:butt;stroke-linejoin:round;stroke-miterlimit:10;stroke-opacity:.6" transform=" rotate(  340 242.63 162.834) "/> <g style="fill:#000;fill-opacity:1" transform=" rotate(  340 242.63 162.834) ">  <use xlink:href="#g" x="226.8" y="159.9"/>  <use xlink:href="#o" x="233.6" y="159.9"/>  <use xlink:href="#h" x="242.4" y="159.9"/>  <use xlink:href="#i" x="248.2" y="159.9"/>  <use xlink:href="#l" x="253.8" y="159.9"/>  <use xlink:href="#m" x="229.1" y="171.8"/>  <use xlink:href="#k" x="232.4" y="171.8"/>  <use xlink:href="#j" x="236.7" y="171.8"/>  <use xlink:href="#i" x="239.3" y="171.8"/>  <use xlink:href="#h" x="244.9" y="171.8"/>  <use xlink:href="#n" x="250.7" y="171.8"/> </g></svg>