<svg xmlns="http://www.w3.org/2000/svg" xmlns:xlink="http://www.w3.org/1999/xlink" viewBox="0 0 497 279"> <defs overflow="visible" style="stroke:none">  <path d="M5.3-5.4V0h-.7l-.1-.7c-.3.3-.5.5-.9.6l-.9.2C2.1 0 1.6-.1 1.3-.4 1-.7.8-1.2.8-1.8v-3.6h.9v3.5c0 .8.3 1.3 1.2 1.3.6 0 1-.2 1.1-.5.3-.4.5-.9.5-1.5v-2.8Zm1.4-.1c.6 0 1 .2 1.4.5.3.3.4.8.4 1.5V0h-.8v-3.5c0-.8-.4-1.2-1.1-1.2-.6 0-1 .1-1.1.4C5.2-4 5-3.5 5-3v3h-.7v-3.5c0-.8-.4-1.2-1.1-1.2-.6 0-1 .1-1.2.5-.2.2-.3.8-.3 1.4V0H.8v-5.4h.8v.8h.2l.6-.7 1-.2c.7 0 1.2.3 1.6 1 .2-.5.4-.7.7-.8.3-.1.7-.2 1-.2Zm-3.8 0c.6 0 1.1.2 1.4.5.3.3.5.7.5 1.3V0h-.6L4-.8c-.3.3-.5.6-.8.8h-1c-.5 0-1 0-1.3-.3C.6-.5.5-.9.5-1.5c0-.5.2-1 .5-1.2.5-.3 1-.5 2-.5h.8v-.3c.2-.5.2-.8-.2-1l-.8-.2H2l-.7.5L1-5l1-.3.9-.2Zm1 2.9h-.8c-.6 0-1 .1-1.4.3-.1.3-.3.5-.3.8 0 .3 0 .5.2.7l.7.2c.5 0 .9-.1 1.2-.4.3-.2.4-.6.4-1ZM2.6-.6H3l.4-.2v.7L3 0H1.7l-.6-.5-.1-1v-3.3H.2V-5l.7-.5.4-1h.5v1h1.5v.8H1.8v3.1c0 .3 0 .6.2.7l.6.3Zm0 0"/>  <path id="n" d="M3.4-5.5c.7 0 1.2.3 1.6.7.4.5.6 1.2.6 2.1 0 1-.2 1.7-.6 2-.4.7-1 .9-1.6.9-.4-.2-.8-.2-1-.3l-.7-.6v3.1H.8v-7.8h.8v.8h.2c.2-.4.3-.5.6-.6.2-.2.6-.3 1-.3Zm-.2.8c-.5 0-.9.1-1.1.5-.2.2-.4.7-.4 1.2v.3c0 .7.1 1.2.3 1.5.3.4.7.6 1.3.6.3 0 .6-.1.7-.4l.5-.6.2-1.1c0-.6-.1-1.1-.4-1.5-.2-.3-.6-.5-1-.5Zm0 0"/>  <path id="m" d="M5.5-2.7c0 .9-.2 1.7-.7 2-.4.7-1 .9-1.8.9-.5-.2-.9-.2-1.3-.4-.3-.2-.6-.6-.7-1C.6-1.6.5-2 .5-2.7c0-.9.3-1.6.7-2 .5-.5 1-.8 1.8-.8.5 0 1 .2 1.3.5.4 0 .7.4.9.9.2.2.3.7.3 1.3Zm-4 0c0 .7 0 1.2.3 1.5.3.4.7.6 1.2.6.6 0 1-.2 1.2-.6.3-.3.4-.8.4-1.5s-.1-1.1-.4-1.5c-.2-.3-.6-.5-1.2-.5-.5 0-1 .2-1.2.5-.2.4-.3.9-.3 1.5Zm0 0"/>  <path id="l" d="M3.4-5.5c.7 0 1.2.2 1.6.5.2.3.4.8.4 1.5V0h-.9v-3.4c0-.9-.4-1.3-1.2-1.3-.6 0-1 .1-1.2.5-.3.2-.4.8-.4 1.4V0H.8v-5.4h.8v.8h.2c.2-.4.3-.5.7-.7l1-.2Zm0 0"/>  <path id="k" d="M1.3-7.4c.1 0 .3 0 .4.2l.1.4-.1.4-.4.2-.4-.3-.1-.3.1-.4.4-.2Zm.4 2V0H.8v-5.4Zm0 0"/>  <path id="j" d="M5-2c0 .8-.2 1.3-.7 1.7-.3.2-1 .3-1.8.3H1.4a3 3 0 0 1-.9-.2v-.9a5 5 0 0 0 1 .3l.9.1c.6 0 1.1 0 1.3-.3.3-.2.4-.5.4-.8L4-2.4 3.5-3a7.2 7.2 0 0 0-1-.3c-.8-.2-1.2-.5-1.5-.8C.7-4.4.6-5 .6-5.4s0-.7.3-1a2 2 0 0 1 .8-.6 3 3 0 0 1 1.2-.2h1a5 5 0 0 1 1.1.5l-.5.6a4.5 4.5 0 0 0-.7-.2l-1-.2c-.3 0-.6.1-.9.3-.3.2-.4.5-.4.8 0 .2 0 .4.2.6 0 .2.2.3.3.4l1.1.4.9.5.8.7.2.8Zm0 0"/>  <path d="M1 0v-7.1h4V0Zm.4-.5h3.1v-6.1h-3Zm.1 0"/>  <path id="i" d="m-.2 2.6 1.8-8.5h.8l-.2 1.1 1.1-.8c.1-.4.4-.4.8-.4.6 0 1 .2 1.3.5.3.5.4.9.4 1.5s0 1-.2 1.6l-.5 1.3A3 3 0 0 1 4-.2c-.1.2-.5.2-1 .2-.4.1-.8.1-1-.2a2 2 0 0 1-.5-.7h-.1v.5l-.2.4-.5 2.6Zm3-3.3c.5 0 .7 0 1-.3l.5-.7.4-1.1.1-1.2c0-.8-.3-1.2-.8-1.2-.3 0-.6.2-.8.3a3 3 0 0 0-.7.7c-.3.3-.5.7-.5 1-.2.6-.2 1-.2 1.4s0 .6.2.8c.2.2.5.3 1 .3Zm.1 0"/>  <path id="g" d="M2.3-6.9 2-7l-.2-.4c0-.2 0-.3.2-.5l.5-.1c.3 0 .5.1.5.4l-.2.6c-.2.1-.3.1-.5.1ZM.3 0l1.3-5.9h1L1.2 0Zm0 0"/>  <path id="d" d="M1.7.1.7 0 .2-.3v-.9c0 .2.3.3.6.4a3 3 0 0 0 .9.1c.3 0 .7 0 1-.2.2-.2.3-.4.3-.7 0-.2 0-.4-.2-.5L2-2.7a3.8 3.8 0 0 1-1-.7c0-.2-.2-.6-.2-1s.2-.7.6-1c.3-.4.7-.6 1.3-.6l1.1.1.7.3-.3.8-.6-.3h-.9L2-5l-.3.6c0 .2 0 .4.3.5 0 .2.3.3.7.5l.7.5.4.5.2.7c0 .6-.2 1-.6 1.4-.4.3-1 .3-1.7.3Zm0 0"/>  <path id="a" d="M2 .1H1L.2-.3v-.9l.8.3 1 .2L3-1l.6-.4c.2-.2.4-.5.4-.8a1 1 0 0 0-.4-.8l-1-.7a6 6 0 0 1-.8-.5 2.1 2.1 0 0 1-.5-.6l-.1-.9c0-.5 0-.9.3-1.2.2-.4.6-.6 1-.8.2-.2.7-.3 1.1-.3.5 0 .9 0 1.2.2l.9.3-.4.8-.7-.3h-.9c-.4 0-.7 0-1 .2-.5.3-.6.6-.6 1.1l.2.4c0 .3.2.4.4.5l.6.4.9.6a2 2 0 0 1 .5.6c.3.3.3.6.3 1 0 .6-.3 1.2-.9 1.6-.5.6-1.1.7-2 .7Zm0 0"/>  <path id="e" d="M2 .1c-.3 0-.6-.1-1-.4-.3-.2-.4-.6-.4-1a3 3 0 0 1 0-.6l.1-.4.8-3.6h1l-.8 3.7-.1.7c0 .3 0 .5.2.6l.6.2c.2 0 .5 0 .8-.3l.8-.8.5-1.6.6-2.5H6L4.7 0H4l.1-1c-.2 0-.3.2-.5.4l-.7.5-.8.2Zm0 0"/>  <path id="f" d="m.3 0 1.2-6h.9l-.1 1.3.5-.7.6-.4c.3-.2.6-.2.9-.2.4 0 .7 0 1 .4.4.2.6.6.6 1v.6l-.3.4L4.9 0h-1l.6-3.7.2-.4a2 2 0 0 0 0-.4c.1-.4-.2-.7-.7-.7l-.8.3-.8.8-.6 1.6L1.3 0Zm0 0"/>  <path id="h" d="M2.7 0C2 0 1.5 0 1.1-.4.7-1 .5-1.5.5-2.2a5 5 0 0 1 .2-1.3c.1-.5.3-.9.6-1.3a3 3 0 0 1 .9-.7C2.6-6 3-6 3.5-6c.7 0 1.2.2 1.5.6.5.4.7 1 .7 1.7 0 .4 0 .9-.2 1.3-.1.5-.3.9-.6 1.4a3 3 0 0 1-.9.8c-.4.2-.8.2-1.3.2Zm0-.6c.5-.1.9-.2 1.1-.5.2-.2.5-.6.6-.9.2-.6.3-1.1.3-1.8l-.1-.7-.4-.5-.7-.2c-.5 0-.8.2-1 .5-.5.2-.7.5-.9.9L1.5-2c0 .3.1.7.3.9.3.3.6.4 1 .4Zm.1-.1"/>  <path id="c" d="m.3 0 1.3-5.9h.8l-.2 1c.3.1.5-.2.6-.3l.7-.6.7-.2c.4 0 .7.1 1 .3 0 .3.2.7.2 1a4 4 0 0 1 .8-.6l.6-.5.7-.2c.5 0 .9.1 1.1.4.4.2.4.6.4 1v.6l-.1.4L8 0h-.9L8-3.7v-.4a2 2 0 0 0 0-.4V-5l-.7-.2-.8.3c-.2.2-.5.4-.7.8-.2.4-.4.8-.5 1.4L4.7 0h-1l.8-3.7.1-.7c0-.3 0-.4-.2-.6L4-5.2l-1 .3c0 .1-.4.4-.6.8C2-3.7 2-3 1.8-2.5L1.3 0Zm0 0"/>  <path id="b" d="M2.1.1C1.7.1 1.3 0 1-.4.7-.7.5-1.2.5-1.9l.2-1.6.6-1.3c.3-.4.7-.7 1-.9.2-.2.7-.3 1.1-.3.4 0 .7.1 1 .3l.5.7.5-.9H6L4.8 0H4l.2-1a4 4 0 0 1-1.1.7c-.1.3-.6.3-.9.3Zm.3-.8c.3 0 .6 0 .8-.3a3 3 0 0 0 .8-.8 5 5 0 0 0 .4-1.1l.1-.6V-4c.1-.4.1-.6-.1-1-.4 0-.6-.2-.9-.2-.3 0-.5.2-.8.3l-.6.7-.4 1-.2 1.4c0 .3 0 .6.3.9l.6.1Zm0 0"/>  <path d="M2 .1c-.4 0-.7 0-1-.3-.2-.2-.4-.5-.4-1L.7-2l.7-3.2h-1l.3-.4.9-.4.6-1.2h.7L2.5-6H4l-.2.8H2.4L1.7-2v.4l-.2.3.2.4c.1.2.3.2.5.2h.4L3-.8v.7l-.5.1-.5.1ZM1 0v-7.9h4.6V0Zm.6-.6H5v-6.7H1.6Zm0 0"/> </defs> <image xlink:href="svg/8/3_1.jpg" width="497" height="279"/> <path d="M244.6 230.5h-1l-.8-.4v-.9l.8.3 1 .2 1-.2.5-.5c.3-.2.4-.5.4-.8a1 1 0 0 0-.3-.8l-1-.7a6 6 0 0 1-.8-.5 2.1 2.1 0 0 1-.4-.6l-.3-.9c0-.5.3-.9.4-1.2.2-.5.5-.6.9-.8.3-.2.7-.3 1.2-.3s.9 0 1.2.2l.9.3-.4.8-.7-.3h-.9c-.3-.1-.8-.1-1 .2-.5.3-.6.6-.6 1.1v.5l.7.4.5.4.8.6a2 2 0 0 1 .6.6l.2 1c0 .6-.3 1.2-.8 1.6-.5.5-1.2.7-2 .7zm5.7 0c-.5 0-.9-.2-1.3-.5-.2-.3-.3-.8-.3-1.5 0-.6 0-1 .2-1.6.1-.5.3-.9.6-1.3.2-.4.5-.6.9-.9.3-.2.6-.3 1.2-.3.3 0 .7.1.9.3l.5.7h.1l.3-.9h.8l-1.3 5.9h-.7l.1-1a4 4 0 0 1-1 .7c-.3.3-.5.4-.9.4zm.3-.8c.2 0 .4 0 .8-.3a3 3 0 0 0 .6-.8 5 5 0 0 0 .6-1.1v-.6l.2-.5c-.1-.4-.1-.6-.4-.9-.2-.2-.4-.3-.7-.3-.3 0-.7.1-.8.3l-.7.7-.4 1-.1 1.4c0 .4 0 .6.2.9l.7.1zm4.1.7 1.2-5.9h.8v1l.3-.3.8-.6.8-.2c.4 0 .7.1.9.3l.4 1a4 4 0 0 1 .6-.6l.5-.5 1-.2c.4 0 .8.1 1 .4.3.2.4.6.4 1v.6l-.1.4-.8 3.6h-1l.8-3.7.1-.4a2 2 0 0 0 0-.4c0-.2 0-.4-.2-.5l-.5-.2c-.3 0-.5.1-.8.3-.2.2-.5.4-.7.8-.3.4-.4.9-.5 1.4l-.7 2.7h-1l1-3.7v-.7c0-.3 0-.4-.2-.6l-.5-.2c-.3 0-.5.1-.8.3-.2.1-.5.4-.7.8-.3.4-.5 1-.6 1.7l-.5 2.4zm11 .1-1-.1-.5-.3v-.9l.6.4a3 3 0 0 0 .9.1c.3 0 .7 0 1-.2.2-.2.3-.5.3-.7 0-.2 0-.4-.2-.5-.1-.3-.4-.4-.8-.6a3.8 3.8 0 0 1-1-.7l-.1-1c-.1-.3 0-.7.4-1 .4-.4.9-.6 1.5-.6l1 .1.6.3-.2.8-.6-.3H266l-.3.7c0 .2 0 .4.3.5 0 .2.3.3.7.5l.7.5.4.5c.2.2.2.4.2.7 0 .6-.2 1-.6 1.4-.4.3-1 .4-1.7.4zm5.1 0c-.4 0-.8-.1-1-.4-.3-.1-.4-.6-.4-1a3 3 0 0 1 0-.6v-.5l1-3.5h.9l-1 3.7v.8l.1.5.7.2c.3 0 .5 0 .9-.3.2-.1.5-.4.7-.8.3-.4.5-1 .6-1.6l.7-2.5h.9l-1.4 5.9h-.7v-1l-.5.4-.6.5-.9.2zm4.6-.1 1.3-6h.8l-.1 1.3.6-.7.6-.4c.2-.2.4-.2.8-.2.5 0 .8.1 1.1.4.3.2.5.6.5 1v.7l-.2.3-.8 3.6h-1l.8-3.7v-.4a2 2 0 0 0 .1-.4c0-.4-.2-.7-.7-.7-.2 0-.6.1-.8.3-.4.2-.6.4-.8.8-.3.4-.6 1-.6 1.7l-.6 2.4zm0 0" style="fill:none;stroke:#fff;stroke-width:3;stroke-linecap:butt;stroke-linejoin:round;stroke-miterlimit:10;stroke-opacity:.6" transform=" rotate(  340 261.635 227.401) "/> <g style="fill:#7d577d;fill-opacity:1" transform=" rotate(  340 261.635 227.401) ">  <use xlink:href="#a" x="242.6" y="230.4"/>  <use xlink:href="#b" x="248.1" y="230.4"/>  <use xlink:href="#c" x="254.4" y="230.4"/>  <use xlink:href="#d" x="264" y="230.4"/>  <use xlink:href="#e" x="268.8" y="230.4"/>  <use xlink:href="#f" x="275.1" y="230.4"/> </g> <path d="M103.5 181.5h-1l-.9-.4v-.9l.8.3 1 .2c.5 0 .8 0 1.1-.2.2 0 .4-.2.6-.4l.2-.9a1 1 0 0 0-.3-.7c-.2-.2-.5-.5-1-.7a6 6 0 0 1-.7-.6 2.1 2.1 0 0 1-.5-.6l-.2-.9.3-1.2 1.1-.8 1.2-.2h1l1.1.5-.6.8-.7-.3-1-.2c-.2 0-.5.2-.8.4-.4.2-.6.6-.6 1 0 .2 0 .3.2.5 0 .2.2.3.2.5l.8.3.8.6a2 2 0 0 1 .6.7l.2.9c0 .7-.4 1.3-.8 1.7-.6.4-1.2.6-2.1.6zm5.8-6.9c-.1 0-.2 0-.3-.2l-.2-.4s0-.3.2-.4c0-.2.3-.3.5-.3.3 0 .5.2.5.5l-.2.6-.5.2zm-2 6.8 1.3-5.9h1l-1.4 6zm2.8 0 1.3-5.9h.8v1l.3-.5.8-.4.7-.2c.6 0 1 .1 1.2.4.3.2.4.6.4 1v1.2l-1 3.4h-.9l.8-3.7v-.4a2 2 0 0 0 .1-.3c0-.5-.2-.7-.7-.7-.3 0-.6 0-.8.2-.3.2-.6.5-.8.9-.3.3-.5.8-.6 1.5l-.7 2.5zm8.9.1c-.8 0-1.4-.2-1.8-.5-.2-.5-.5-1-.5-1.7a5 5 0 0 1 .3-1.4l.5-1.2a3 3 0 0 1 .9-.9c.4-.2.8-.3 1.3-.3.7 0 1.2.2 1.6.5.4.5.6 1 .6 1.7 0 .5 0 1-.2 1.4l-.7 1.2a3 3 0 0 1-.8.9c-.2.2-.8.3-1.2.3zm0-.8c.3 0 .7-.1 1-.3.1-.4.4-.6.5-1.1.3-.5.5-1 .5-1.7l-.2-.6-.4-.5c-.2-.2-.4-.2-.7-.2-.4 0-.8.1-1 .4-.5.3-.7.6-.9 1l-.1 1.7c0 .3.1.6.3.9.3.3.6.4 1 .4zm3.2 3.3 1.8-8.4h.8l-.2 1 1.1-.8c.1-.2.4-.4.8-.4.6 0 1 .2 1.3.6.2.3.4.8.4 1.4s0 1.1-.2 1.6l-.5 1.3a3 3 0 0 1-1 1l-1 .1c-.5.1-.9.1-1.1-.2a2 2 0 0 1-.5-.7h-.1v.5l-.3.5-.4 2.6zm3-3.2c.5-.1.7-.1 1-.3l.5-.8.4-1 .1-1.4c0-.7-.2-1.1-.9-1.1-.2 0-.5.1-.7.3a3 3 0 0 0-.7.7l-.5 1c-.2.6-.2 1.1-.2 1.5 0 .2 0 .5.2.7.2.2.6.3.9.3zm.1-.1" style="fill:none;stroke:#fff;stroke-width:3;stroke-linecap:butt;stroke-linejoin:round;stroke-miterlimit:10;stroke-opacity:.6" transform="rotate(  340 114.7 218.139) translate(0,39.707342)"/> <g style="fill:#7d577d;fill-opacity:1" transform=" rotate(  340 114.7 218.139) ">  <use xlink:href="#a" x="101.4" y="221.1"/>  <use xlink:href="#g" x="107" y="221.1"/>  <use xlink:href="#f" x="109.8" y="221.1"/>  <use xlink:href="#h" x="116.2" y="221.1"/>  <use xlink:href="#i" x="122.4" y="221.1"/> </g> <path d="M5.6 3A2.6 2.6 0 1 1 .4 3a2.6 2.6 0 0 1 5.2 0zm0 0" style="fill:#f8f8f5;fill-opacity:1;fill-rule:nonzero;stroke:#6e6e59;stroke-width:.8;stroke-linecap:butt;stroke-linejoin:miter;stroke-miterlimit:4;stroke-opacity:1" transform="translate(411.77688,275.90803)"/> <path d="M3.7 2A1.7 1.7 0 1 1 .2 2a1.7 1.7 0 0 1 3.5 0zm0 0" style="fill:#fdfdfa;fill-opacity:1;fill-rule:nonzero;stroke:#3f3f35;stroke-width:.5;stroke-linecap:butt;stroke-linejoin:miter;stroke-miterlimit:4;stroke-opacity:1" transform="translate(141.65739,138.34192)"/> <path d="M135.4 150.1c0 .7-.2 1.1-.6 1.5-.5.3-1.1.5-1.9.5h-1.1a3 3 0 0 1-.9-.4v-.8a5 5 0 0 0 1.1.3l.8.1c.7 0 1.2 0 1.4-.3.2-.2.4-.4.4-.8l-.2-.6-.5-.4a7.2 7.2 0 0 0-1-.5c-.6-.2-1-.5-1.4-.7-.3-.4-.5-.8-.5-1.4 0-.4.1-.7.3-1a2 2 0 0 1 .8-.6 3 3 0 0 1 1.2-.2l1 .1a5 5 0 0 1 1.1.3l-.4.8a4.5 4.5 0 0 0-.8-.3l-1-.1c-.3 0-.6 0-.9.3-.1.1-.3.4-.3.7l.1.6c-.1.2.3.3.5.4l.9.5 1 .5c.4.1.7.3.8.6.1.2.1.5.1 1zm1.8-5.5.4.2.1.4-.1.4-.4.2c-.1 0-.2 0-.4-.2l-.1-.4.1-.4.4-.2zm.5 2v5.4h-1v-5.3zm4.3 0c.5 0 1 .1 1.3.4.4.3.6.8.6 1.5v3.5h-.9v-3.4c0-.9-.4-1.3-1.2-1.3-.6 0-1 .2-1.2.5-.3.3-.4.8-.4 1.4v2.8h-.9v-5.3h.8v.7h.2c.1-.3.4-.5.7-.6.3-.2.6-.2 1-.2zm8.2 2.7c0 1-.2 1.7-.7 2.1-.4.5-1 .7-1.8.7-.5 0-1 0-1.3-.3-.3-.2-.6-.5-.9-1-.2-.3-.3-.8-.3-1.4 0-.9.3-1.6.8-2.1.3-.5.9-.7 1.7-.7.5 0 1 0 1.3.3.4.2.7.5.9 1 .1.2.3.7.3 1.3zm-4 0c-.1.7-.1 1.2.2 1.7.4.2.8.4 1.3.4.6 0 1-.2 1.3-.5.2-.4.3-1 .3-1.6 0-.6-.1-1-.4-1.3-.2-.5-.6-.7-1.2-.7-.5 0-1 .2-1.2.6-.2.3-.4.8-.4 1.4zm7.9-2.7c.7 0 1.2.2 1.6.7.4.4.6 1.1.6 2 0 1-.2 1.7-.6 2.1-.4.6-1 .7-1.6.7-.4 0-.7 0-1-.1l-.6-.7h-.1v3.1h-.7v-7.7h.6l.1.7.8-.6c.1-.2.5-.2.8-.2zm-.1.7c-.6 0-1 .2-1.2.5-.2.2-.3.7-.3 1.4v.1c0 .7 0 1.2.3 1.7.2.2.6.4 1.2.4.3 0 .6 0 .8-.3l.5-.7.1-1c0-.8-.1-1.3-.3-1.6-.3-.3-.6-.5-1.1-.5zm0 0" style="fill:none;stroke:#fff;stroke-width:3;stroke-linecap:butt;stroke-linejoin:round;stroke-miterlimit:10;stroke-opacity:.6" transform=" rotate(  340 145.406 140.344) "/> <g style="fill:#212121;fill-opacity:1" transform=" rotate(  340 145.406 140.344) ">  <use xlink:href="#j" x="130.4" y="152"/>  <use xlink:href="#k" x="135.9" y="152"/>  <use xlink:href="#l" x="138.5" y="152"/>  <use xlink:href="#m" x="144.7" y="152"/>  <use xlink:href="#n" x="150.7" y="152"/> </g></svg>