<svg xmlns="http://www.w3.org/2000/svg" xmlns:xlink="http://www.w3.org/1999/xlink" viewBox="0 0 497 279"> <defs overflow="visible" style="stroke:none">  <path id="j" d="M2.6-.6H3l.4-.2v.7L3 0H1.7l-.6-.5-.1-1v-3.3H.2V-5l.7-.5.4-1h.5v1h1.5v.8H1.8v3.1c0 .3 0 .6.2.7l.6.3Zm0 0"/>  <path id="i" d="M3.4-5.5c.7 0 1.2.3 1.6.7.4.5.6 1.2.6 2.1 0 1-.2 1.7-.6 2-.4.7-1 .9-1.6.9-.4-.2-.8-.2-1-.3l-.7-.6v3.1H.8v-7.8h.8v.8h.2c.2-.4.3-.5.6-.6.2-.2.6-.3 1-.3Zm-.2.8c-.5 0-.9.1-1.1.5-.2.2-.4.7-.4 1.2v.3c0 .7.1 1.2.3 1.5.3.4.7.6 1.3.6.3 0 .6-.1.7-.4l.5-.6.2-1.1c0-.6-.1-1.1-.4-1.5-.2-.3-.6-.5-1-.5Zm0 0"/>  <path id="h" d="M5.3-5.4V0h-.7l-.1-.7c-.3.3-.5.5-.9.6l-.9.2C2.1 0 1.6-.1 1.3-.4 1-.7.8-1.2.8-1.8v-3.6h.9v3.5c0 .8.3 1.3 1.2 1.3.6 0 1-.2 1.1-.5.3-.4.5-.9.5-1.5v-2.8Zm0 0"/>  <path id="g" d="M3-7.1c.7 0 1.4.1 2 .5.2.3.4.8.4 1.5.1.4.1.7-.1 1l-.5.5-.7.4 2 3.2H5L3.2-3H1.9v3h-1v-7.1Zm-.2.7h-.9v2.7h1c.6 0 1.1-.1 1.3-.3.3-.3.4-.6.4-1 0-.6-.1-1-.4-1-.3-.4-.7-.5-1.3-.5Zm.1 0"/>  <path id="f" d="M3-5.5c.3 0 .7.1 1 .3a2 2 0 0 1 1 .9v1.8H1.5c0 .5.1 1 .4 1.4.3.3.7.4 1.3.4H4l.9-.3v.8L4 0a5 5 0 0 1-1 0 3 3 0 0 1-1.2-.1 2.2 2.2 0 0 1-1-1.1c0-.2-.2-.8-.2-1.3-.1-.7 0-1.2.2-1.6.2-.5.5-.9.9-1 .3-.2.7-.4 1.2-.4Zm0 .8c-.6 0-.9.1-1 .4-.4.2-.6.6-.6 1.1h2.8c0-.5-.1-.8-.3-1.1-.2-.3-.5-.4-1-.4Zm0 0"/>  <path id="e" d="M3 0c-.5 0-.9 0-1.3-.1-.3-.3-.6-.6-.7-.9-.4-.5-.5-1-.5-1.7 0-.6.2-1.1.5-1.5 0-.6.4-.8.8-1.1.2-.1.8-.2 1.2-.2l.8.1.7.2-.3.8-.6-.2H3c-1-.1-1.5.6-1.5 1.9 0 .7 0 1 .3 1.4.3.5.7.6 1.2.6h.8l.6-.3v.8a2 2 0 0 1-.6.2H3Zm0 0"/>  <path id="d" d="M3.4-5.5c.7 0 1.2.2 1.6.5.2.3.4.8.4 1.5V0h-.9v-3.4c0-.9-.4-1.3-1.2-1.3-.6 0-1 .1-1.2.5-.3.2-.4.8-.4 1.4V0H.8v-5.4h.8v.8h.2c.2-.4.3-.5.7-.7l1-.2Zm0 0"/>  <path id="c" d="M1.3-7.4c.1 0 .3 0 .4.2l.1.4-.1.4-.4.2-.4-.3-.1-.3.1-.4.4-.2Zm.4 2V0H.8v-5.4Zm0 0"/>  <path id="b" d="M3.3-5.5H4l-.1 1.1-.3-.3h-.3c-.3 0-.5 0-.8.2l-.5.7-.3 1V0H.8v-5.4h.8v1h.2l.6-.6c.3-.3.6-.5 1-.5Zm0 0"/>  <path id="a" d="M2.9-7.1c.9 0 1.6.1 2 .5.4.4.6.9.6 1.6 0 .4 0 .7-.2 1-.3.5-.5.8-1 1l-1.5.1h-.9V0h-1v-7.1Zm-.1.7h-1v2.9h.9c.6 0 1.1-.2 1.3-.5.4 0 .6-.5.6-1s-.1-.8-.4-1c-.3-.3-.8-.4-1.4-.4Zm0 0"/>  <path d="M1 0v-7.1h4V0Zm.4-.5h3.1v-6.1h-3Zm.1 0"/> </defs> <image xlink:href="svg/8/42_8.jpg" width="497" height="279"/> <path d="M3.7 2C3.7 3 3 3.7 2 3.7A1.7 1.7 0 1 1 3.7 2zm0 0" style="fill:#fdfdfa;fill-opacity:1;fill-rule:nonzero;stroke:#3f3f35;stroke-width:.5;stroke-linecap:butt;stroke-linejoin:miter;stroke-miterlimit:4;stroke-opacity:1" transform="translate(59.207394,248.9861)"/> <path d="M44.4 230.4c.9 0 1.6.2 2 .6.4.3.6.8.6 1.5 0 .5 0 .8-.2 1.1-.2.4-.5.6-1 .9-.2.2-.8.3-1.5.3h-.9v2.8h-1v-7.2zm-.1.8h-1v2.8h.9c.6 0 1.1 0 1.4-.3.4-.2.5-.7.5-1.1 0-.6-.1-.8-.4-1-.3-.4-.8-.5-1.4-.5zm6.6.9h.6v.9H51l-.2-.2c-.2.1-.5.1-.7.3-.3.2-.5.4-.6.7l-.2.9v2.9h-1v-5.4h.9v1l.8-.8c.2-.2.5-.3 1-.3zm2.1-1.9.3.1.2.4c0 .3 0 .4-.2.5l-.3.1-.4-.1-.1-.5.1-.4.4-.1zm.4 2v5.4h-.9v-5.4zm4.3-.1c.6 0 1.1.2 1.4.5.4.3.5.8.5 1.4v3.6h-.8V234c0-.7-.4-1.2-1.2-1.2-.6 0-1 .2-1.3.5-.2.4-.3.8-.3 1.5v2.8h-.9v-5.4h.7l.2.7c.2-.3.4-.5.7-.6l1-.2zm5.7 5.5c-.4 0-.8 0-1.2-.2-.4-.2-.7-.5-.9-1-.2-.2-.3-.8-.3-1.4 0-.8 0-1.3.3-1.7.2-.4.5-.7 1-.9.2-.2.7-.3 1.1-.3h.9l.6.4-.3.5h-1.1c-1-.1-1.6.5-1.6 1.9 0 .6.1 1.1.4 1.5.2.3.6.5 1.1.5l.8-.1.6-.2v.8a2 2 0 0 1-.6.2h-.8zm4.8-5.5c.4 0 .8.1 1.1.3a2 2 0 0 1 .8.8c.2.4.3.8.3 1.3v.5h-3.7c0 .7.2 1.1.5 1.4.3.3.7.6 1.2.6l1-.2c.1 0 .4-.1.6-.3v.8l-.7.3a5 5 0 0 1-1 0 3 3 0 0 1-1.3-.2 2.2 2.2 0 0 1-.9-1c-.1-.4-.3-.9-.3-1.4s0-1 .2-1.6l.9-1c.4-.2.8-.3 1.3-.3zm0 .7c-.6 0-.9.2-1.1.4-.3.3-.4.8-.5 1.2h2.8c0-.5 0-.9-.3-1.2-.1-.2-.5-.4-1-.4zm-25 9.6c.8 0 1.5.1 2 .5.3.3.5.8.5 1.5l-.1 1-.6.4-.7.5 2 3.2h-1l-1.9-3h-1.3v3h-.9v-7.1zm0 .6H42v2.8h1.1c.7 0 1.1-.1 1.4-.4.2-.2.3-.4.3-1 0-.4-.1-.8-.4-1-.3-.2-.7-.3-1.3-.3zm8.6 1.1v5.4H51l-.1-.7c-.2.2-.4.5-.7.6l-1 .2c-.7 0-1.2-.2-1.5-.6-.3-.2-.5-.7-.5-1.4v-3.5h1v3.5c-.1.8.2 1.3 1 1.3s1.1-.2 1.4-.5c.2-.4.3-.8.3-1.5v-2.8zm4.2-.1c.7 0 1.2.3 1.6.7.4.5.6 1.3.6 2.1 0 1-.2 1.6-.6 2-.4.7-1 .9-1.6.9-.4-.1-.7-.1-1-.3l-.6-.6h-.1v3.1h-.7v-7.8h.6l.1.9c.3-.4.5-.6.7-.7.2-.3.6-.3 1-.3zm0 .8c-.7 0-1.1.1-1.3.4-.2.3-.3.8-.3 1.4v.2c0 .7 0 1.2.3 1.5.2.4.6.7 1.2.7.3-.1.6-.2.8-.4l.5-.7.1-1.1c0-.6-.1-1.1-.3-1.5-.3-.3-.6-.5-1.1-.5zm5.7-.8c.5 0 .8.1 1.2.3a2 2 0 0 1 .7.9c.2.3.4.8.4 1.2v.6h-3.8c0 .6.2 1 .5 1.4.3.3.7.4 1.2.4H63l.7-.4v.8l-.8.3a5 5 0 0 1-1 0 3 3 0 0 1-1.3-.1 2.2 2.2 0 0 1-1-1.1c-.1-.3-.2-.8-.2-1.3-.1-.7 0-1.2.2-1.6.2-.5.5-.8.8-1 .4-.2.8-.4 1.3-.4zm0 .8c-.4 0-.8 0-1 .4-.3.2-.4.6-.4 1H63c0-.3-.1-.6-.3-.9-.2-.4-.7-.5-1-.5zm6.1-.8h.6l-.1 1h-.6c-.3-.2-.5-.2-.7 0-.3.2-.5.4-.6.7-.2.3-.2.6-.2 1v2.7h-1V244h.8v1.1h.2l.6-.7c.2-.4.6-.4 1-.4zm3.4 4.9h.4l.3-.2v.7l-.4.1h-1.3c-.2-.2-.4-.4-.4-.7-.3-.1-.3-.4-.3-.8v-3.2h-.8v-.4l.8-.4.3-1h.5v1.1H72v.7h-1.7v3.1c0 .3.1.6.3.7.1.2.3.4.6.4zm0 0" style="fill:none;stroke:#fff;stroke-width:3;stroke-linecap:butt;stroke-linejoin:round;stroke-miterlimit:10;stroke-opacity:.6" transform="rotate(  340 62.9571 250.984) translate(5.0156642,-2.5078321)"/> <g style="fill:#212121;fill-opacity:1" transform=" rotate(  340 62.9571 250.984) ">  <use xlink:href="#a" x="46.5" y="235"/>  <use xlink:href="#b" x="52.6" y="235"/>  <use xlink:href="#c" x="56.7" y="235"/>  <use xlink:href="#d" x="59.3" y="235"/>  <use xlink:href="#e" x="65.5" y="235"/>  <use xlink:href="#f" x="70.3" y="235"/>  <use xlink:href="#g" x="45.2" y="247"/>  <use xlink:href="#h" x="51.5" y="247"/>  <use xlink:href="#i" x="57.6" y="247"/>  <use xlink:href="#f" x="63.8" y="247"/>  <use xlink:href="#b" x="69.4" y="247"/>  <use xlink:href="#j" x="73.6" y="247"/> </g></svg>