<svg xmlns="http://www.w3.org/2000/svg" xmlns:xlink="http://www.w3.org/1999/xlink" viewBox="0 0 497 279"> <defs overflow="visible" style="stroke:none">  <path id="h" d="M2.4 0c-.6 0-1 0-1.4-.3C.6-.8.5-1.3.5-2c0-.3 0-.8.2-1.2 0-.4.3-.8.5-1.1.2-.4.5-.7.8-.8a2 2 0 0 1 1.2-.4c.5 0 .8.2 1.1.5.3 0 .4.4.4.8 0 .3-.1.7-.3 1-.4.2-.6.4-1 .6-.6.2-1.2.3-1.9.3h-.1v.3c0 .5 0 .8.3 1 .2.3.5.4.9.4l.7-.1A5 5 0 0 0 4-1v.7a6 6 0 0 1-.7.3h-.9Zm-.9-3 1.3-.1.7-.4c.2-.1.3-.4.3-.5l-.1-.6-.7-.1c-.2 0-.5.1-.9.4L1.6-3Zm0 0"/>  <path id="g" d="m.3 0 1.6-7.6h.9l-.8 3c.1.6 0 1-.2 1.3l-.1.5 2.5-2.6h1L3-3l1.4 3h-1L2.3-2.5l-.7.5-.4 2Zm0 0"/>  <path id="f" d="M.4 0 2-7.1h1L1.4-.8h2.8L4 0Zm0 0"/>  <path id="e" d="m.3 0 1.6-7.6h.9l-.5 2-.1.6-.2.6.6-.5.5-.4.9-.2c.3 0 .6.2.9.5.1 0 .3.5.3.9v.8L4.3 0h-.8l.8-3.4V-4l-.1-.5c-.2-.2-.3-.2-.6-.2-.2 0-.4 0-.6.2-.4.2-.6.5-.8.8-.2.3-.4.7-.5 1.4L1.2 0Zm0 0"/>  <path id="d" d="M2 0c-.6 0-.9 0-1.2-.3C.6-.7.5-1 .5-1.7c0-.5 0-1 .2-1.5l.5-1.1c.2-.4.5-.7.8-.9a2 2 0 0 1 1.1-.3c.4 0 .6.1.9.3l.5.7.3-.9h.7L4.4 0h-.7l.1-1c-.3.3-.5.6-.9.8-.3.2-.6.2-.9.2Zm.1-.5c.4-.1.6-.2.9-.5l.6-.6a4 4 0 0 0 .4-1 3 3 0 0 0 .1-.7 4 4 0 0 0 0-.4c.1-.3.1-.5-.1-.7-.3-.2-.5-.3-.8-.3-.3 0-.5 0-.7.2a2 2 0 0 0-.6.7l-.4 1-.1 1.1c0 .4 0 .6.2.8.1.2.3.3.6.3Zm.1-.1"/>  <path id="c" d="M1.8 0c-.3 0-.6 0-.8-.1C.7-.3.6-.6.6-1v-.8l.8-2.9h-1L.5-5l1-.5.5-1h.6l-.3 1h1.3l-.1.8H2.2l-.7 3v.8l.5.3h.3l.4-.3V0h-.9Zm0 0"/>  <path id="b" d="M2.5 0C1.9 0 1.4 0 1-.4.7-.8.5-1.3.5-2l.1-1.2a4 4 0 0 1 .5-1.1c.3-.3.5-.7.9-.8.3-.2.7-.3 1.2-.3.6 0 1 .2 1.4.4.4.5.6 1.1.6 1.6L5-2a4 4 0 0 1-.5.9c-.2.5-.5.8-.8 1L2.5 0Zm0-.6c.5-.1.6-.1 1-.4.1-.2.3-.5.5-1 .2-.3.3-.8.3-1.4L4.2-4a1 1 0 0 0-.4-.5l-.6-.2c-.4 0-.7.1-1 .4-.2.2-.5.6-.6 1A4 4 0 0 0 1.4-2c0 .5 0 .8.3 1 .2.2.5.3.8.3Zm0-.1"/>  <path id="a" d="M.4 0 2-7.1h1l-.9 3h3.2l.7-3h.8L5.3 0h-.8l.7-3.3H2L1.3 0Zm0 0"/>  <path d="M1 0v-7.1h4V0Zm.4-.5h3.1v-6.1h-3Zm.1 0"/> </defs> <image xlink:href="svg/8/44_15.jpg" width="497" height="279"/> <path d="m209.1 36.6 1.5-7.1h1l-.8 3h3.2l.7-3h.8l-1.5 7.1h-.8l.7-3.3h-3.2l-.7 3.3Zm8.9.1c-.6 0-1.1-.2-1.5-.5-.3-.4-.5-1-.5-1.5v-1.3a4 4 0 0 1 .6-1c.4-.4.5-.8.9-1 .3-.1.7-.2 1.2-.2.6 0 1 .2 1.3.6.5.2.7.8.7 1.5l-.2 1.2a4 4 0 0 1-.5 1.1l-.8.8-1.2.3Zm0-.7c.4 0 .6-.1 1-.3l.4-1c.3-.4.4-1 .4-1.5l-.1-.6a1 1 0 0 0-.4-.6h-.6c-.4 0-.7.1-1 .3-.3.3-.5.7-.6 1a4 4 0 0 0-.2 1.4c0 .3 0 .7.3 1 .2.2.5.3.8.3Zm5 .7c-.4 0-.7 0-1-.2-.1-.2-.2-.5-.2-1V35l.7-3.1h-.9v-.4l1-.3.6-1.2h.5l-.3 1.3h1.4l-.2.6h-1.3l-.6 3.1v.2l-.2.3.2.4.4.1h.4l.3-.1v.7h-.4l-.4.2Zm3.3 0c-.4 0-.7 0-1-.2-.1-.2-.3-.5-.3-1l.1-.5.6-3.1h-.7v-.4l1-.3.5-1.2h.5l-.3 1.3h1.4l-.2.6h-1.3L226 35v.2l-.2.3.2.4.4.1h.4l.2-.1v.7h-.2l-.5.2Zm3.4 0c-.4 0-.7-.1-1-.4-.3-.3-.4-.8-.4-1.4l.1-1.4.6-1.2c.2-.4.5-.6.8-.8a2 2 0 0 1 1-.3c.5 0 .8 0 1.1.3.1.1.1.4.2.5l.6-.7h.6l-1.3 5.3h-.6l.2-1-1 .9c-.2.1-.5.2-.9.2Zm.3-.7c.2 0 .5 0 .7-.3.3-.1.5-.4.6-.7a4 4 0 0 0 .5-1 3 3 0 0 0 0-.6 4 4 0 0 0 .2-.4c0-.3 0-.6-.3-.8-.2-.2-.4-.2-.7-.2-.3 0-.5 0-.7.2a2 2 0 0 0-.6.6l-.4 1-.3 1.2c.1.3.2.6.4.7.1.3.3.3.6.3Zm3.7.6 1.6-7.6h1l-.6 2-.1.6-.1.7.5-.5c0-.2.3-.3.6-.4.2-.2.4-.2.7-.2.4 0 .8.1 1 .3.3.3.4.6.4 1v.5l-.1.4-.7 3.2h-.9l.7-3.3V32h-.7c-.1 0-.4 0-.6.2-.4.1-.6.4-.8.7-.2.4-.4.8-.5 1.4l-.5 2.3Zm-19.4 12 1.5-7.2h.9l-1.4 6.4h2.8l-.2.8Zm6.3.1c-.4 0-.8-.2-1-.5-.4-.2-.6-.8-.6-1.4l.3-1.4.7-1.2.7-.8a2 2 0 0 1 1-.3c.5 0 .8.1 1.1.3l.2.6.6-.8h.6l-1.2 5.4h-.7l.1-1-.8.8c-.3.2-.6.3-1 .3Zm.3-.7c.1 0 .5-.1.7-.3l.6-.7a4 4 0 0 0 .5-1 3 3 0 0 0 0-.7 4 4 0 0 0 .2-.4c-.1-.3-.1-.5-.4-.7-.1-.2-.4-.3-.5-.3-.4 0-.6 0-1 .1a2 2 0 0 0-.4.8l-.4 1-.2 1 .2 1c.2.1.4.2.8.2Zm3.7.6 1.6-7.6h.9l-.6 3-.3 1.2-.2.6 2.5-2.6h1l-2.1 2.3 1.3 3h-1l-1-2.3-.9.4-.3 2Zm6.9.1c-.6 0-1.1-.2-1.4-.7-.4-.2-.5-.7-.5-1.3l.1-1.3c.3-.4.3-.8.6-1.1.2-.4.5-.8.7-.9a2 2 0 0 1 1.2-.3c.5 0 1 .1 1.2.4.2.2.4.5.4.9 0 .3-.1.6-.4 1l-1 .6c-.4.2-1 .3-1.8.3h-.1v.3c0 .4 0 .8.3 1 .1.2.5.4.9.4.2 0 .3 0 .7-.2a5 5 0 0 0 .6-.3v.8a6 6 0 0 1-.6.3h-.9Zm-.9-3.2h1.3l.7-.5c.2-.1.3-.3.3-.6.1-.1.1-.3-.2-.4l-.5-.2c-.3 0-.6.2-1 .5-.2.3-.4.7-.5 1.2Zm0 0" style="fill:none;stroke-width:2;stroke-linecap:butt;stroke-linejoin:round;stroke:#fff;stroke-opacity:.6;stroke-miterlimit:10" transform=" rotate(  340 224.171 39.6075) "/> <g style="fill:#4d80b3;fill-opacity:1" transform=" rotate(  340 224.171 39.6075) ">  <use xlink:href="#a" x="208.7" y="36.6"/>  <use xlink:href="#b" x="215.5" y="36.6"/>  <use xlink:href="#c" x="221.1" y="36.6"/>  <use xlink:href="#c" x="224.5" y="36.6"/>  <use xlink:href="#d" x="227.8" y="36.6"/>  <use xlink:href="#e" x="233.5" y="36.6"/>  <use xlink:href="#f" x="213.9" y="48.6"/>  <use xlink:href="#d" x="218.7" y="48.6"/>  <use xlink:href="#g" x="224.3" y="48.6"/>  <use xlink:href="#h" x="229.1" y="48.6"/> </g></svg>