<svg xmlns="http://www.w3.org/2000/svg" xmlns:xlink="http://www.w3.org/1999/xlink" viewBox="0 0 497 279"> <defs overflow="visible" style="stroke:none">  <path id="k" d="M5.5-2.7c0 .9-.2 1.7-.7 2-.4.7-1 .9-1.8.9-.5-.2-.9-.2-1.3-.4-.3-.2-.6-.6-.7-1C.6-1.6.5-2 .5-2.7c0-.9.3-1.6.7-2 .5-.5 1-.8 1.8-.8.5 0 1 .2 1.3.5.4 0 .7.4.9.9.2.2.3.7.3 1.3Zm-4 0c0 .7 0 1.2.3 1.5.3.4.7.6 1.2.6.6 0 1-.2 1.2-.6.3-.3.4-.8.4-1.5s-.1-1.1-.4-1.5c-.2-.3-.6-.5-1.2-.5-.5 0-1 .2-1.2.5-.2.4-.3.9-.3 1.5Zm0 0"/>  <path id="j" d="M1.3-7.4c.1 0 .3 0 .4.2l.1.4-.1.4-.4.2-.4-.3-.1-.3.1-.4.4-.2Zm.4 2V0H.8v-5.4Zm0 0"/>  <path id="i" d="M2.6-.6H3l.4-.2v.7L3 0H1.7l-.6-.5-.1-1v-3.3H.2V-5l.7-.5.4-1h.5v1h1.5v.8H1.8v3.1c0 .3 0 .6.2.7l.6.3Zm0 0"/>  <path id="h" d="M3 0c-.5 0-.9 0-1.3-.1-.3-.3-.6-.6-.7-.9-.4-.5-.5-1-.5-1.7 0-.6.2-1.1.5-1.5 0-.6.4-.8.8-1.1.2-.1.8-.2 1.2-.2l.8.1.7.2-.3.8-.6-.2H3c-1-.1-1.5.6-1.5 1.9 0 .7 0 1 .3 1.4.3.5.7.6 1.2.6h.8l.6-.3v.8a2 2 0 0 1-.6.2H3Zm0 0"/>  <path id="g" d="M5.3-5.4V0h-.7l-.1-.7c-.3.3-.5.5-.9.6l-.9.2C2.1 0 1.6-.1 1.3-.4 1-.7.8-1.2.8-1.8v-3.6h.9v3.5c0 .8.3 1.3 1.2 1.3.6 0 1-.2 1.1-.5.3-.4.5-.9.5-1.5v-2.8Zm0 0"/>  <path id="f" d="m0 2-.5-.2h-.3V1h.4l.3.2.5-.2C.6 1 .7.8.8.7L.9 0v-7.1H2v7c-.2.7-.5 1.1-.8 1.5C1 1.7.5 2 0 2Zm0 0"/>  <path id="e" d="M2.8 0C2 0 1.4 0 1-.5.7-1 .5-1.8.5-2.6c0-1.1.3-1.8.7-2.2.4-.5.8-.7 1.6-.7.4 0 .7.1 1 .3a2 2 0 0 1 .6.5v-2.8h.9V0h-.7l-.1-.7a2 2 0 0 1-.8.6l-.9.1Zm0-.5c.8-.1 1.1-.3 1.4-.6.1-.3.2-.8.2-1.4v-.2c0-.6 0-1.1-.3-1.5-.2-.4-.6-.5-1.2-.5-.5 0-.9.2-1 .5-.4.4-.5 1-.5 1.5.1.7.1 1.2.4 1.5.3.4.6.6 1 .6Zm.1-.1"/>  <path id="d" d="M3.4-5.5c.7 0 1.2.2 1.6.5.2.3.4.8.4 1.5V0h-.9v-3.4c0-.9-.4-1.3-1.2-1.3-.6 0-1 .1-1.2.5-.3.2-.4.8-.4 1.4V0H.8v-5.4h.8v.8h.2c.2-.4.3-.5.7-.7l1-.2Zm0 0"/>  <path id="c" d="M2.9-5.5c.6 0 1.1.2 1.4.5.3.3.5.7.5 1.3V0h-.6L4-.8c-.3.3-.5.6-.8.8h-1c-.5 0-1 0-1.3-.3C.6-.5.5-.9.5-1.5c0-.5.2-1 .5-1.2.5-.3 1-.5 2-.5h.8v-.3c.2-.5.2-.8-.2-1l-.8-.2H2l-.7.5L1-5l1-.3.9-.2Zm1 2.9h-.8c-.6 0-1 .1-1.4.3-.1.3-.3.5-.3.8 0 .3 0 .5.2.7l.7.2c.5 0 .9-.1 1.2-.4.3-.2.4-.6.4-1Zm.1 0"/>  <path id="b" d="M3.3-5.5H4l-.1 1.1-.3-.3h-.3c-.3 0-.5 0-.8.2l-.5.7-.3 1V0H.8v-5.4h.8v1h.2l.6-.6c.3-.3.6-.5 1-.5Zm0 0"/>  <path id="a" d="M4-3.8h2.6v3.5A8.4 8.4 0 0 1 4 .1C3.3 0 2.7-.1 2.2-.3A3 3 0 0 1 1-1.6c-.3-.6-.4-1.2-.4-2 0-.7.2-1.4.4-1.9a3 3 0 0 1 1.3-1.3c.7-.2 1.2-.4 2-.4h1.1a5 5 0 0 1 1 .5l-.3.7a7.4 7.4 0 0 0-.9-.3l-1-.2c-.7 0-1.4.3-1.9.8-.4.5-.7 1.2-.7 2.1-.1.6 0 1.1.2 1.6.2.4.5.7.9 1 .3.3.9.4 1.5.4a5.8 5.8 0 0 0 1.4-.2V-3H4.1Zm0 0"/>  <path d="M1 0v-7.1h4V0Zm.4-.5h3.1v-6.1h-3Zm.1 0"/> </defs> <image xlink:href="svg/8/46_0.jpg" width="497" height="279"/> <path d="M3.7 2C3.7 3 3 3.7 2 3.7A1.7 1.7 0 1 1 3.7 2zm0 0" style="fill:#fdfdfa;fill-opacity:1;fill-rule:nonzero;stroke:#3f3f35;stroke-width:.5;stroke-linecap:butt;stroke-linejoin:miter;stroke-miterlimit:4;stroke-opacity:1" transform="translate(218.1686,237.43086)"/> <path d="M217.6 228.5h2.5v3.5a8.4 8.4 0 0 1-2.5.4c-.8 0-1.4-.2-2-.5a3 3 0 0 1-.9-1.2c-.5-.7-.7-1.2-.7-2 .1-.7.3-1.4.6-2a3 3 0 0 1 1.2-1.1c.6-.4 1.3-.6 2-.6l1.2.1a5 5 0 0 1 1 .4l-.4.7a7.4 7.4 0 0 0-.8-.2h-1c-.9-.2-1.5 0-2 .5-.5.6-.7 1.3-.7 2.2-.1.6-.1 1 .2 1.5.2.4.5.8 1 1 .2.3.7.4 1.4.4a5.7 5.7 0 0 0 1.5-.2v-2.1h-1.6zm6.6-1.7h.6l-.1 1h-.7l-.7-.1-.5.8c-.2.2-.2.5-.2 1v2.7h-1v-5.3h.9v1.1h.1l.6-1c.3 0 .6-.2 1-.2zm3.4 0c.7 0 1.2.2 1.5.5.3.2.4.7.4 1.3v3.7h-.5l-.3-.8-.8.7-.9.2c-.6 0-1-.2-1.3-.4-.3-.3-.5-.7-.5-1.2 0-.6.2-1 .6-1.2.5-.3 1.2-.6 2-.6h.9v-.4c0-.3-.1-.6-.3-.8-.2-.2-.5-.3-.8-.3-.3 0-.6 0-.8.2l-.8.2-.2-.6c.2-.1.5-.3.8-.3l1-.2zm1 2.8h-.6c-.8.2-1.2.3-1.5.4-.3.2-.4.5-.4.8 0 .2.1.5.3.7l.6.2c.5 0 .9-.2 1.2-.4.3-.3.5-.6.5-1.3zM233.8 226.8c.6 0 1.1.2 1.4.5.4.3.5.7.5 1.5v3.5h-.7v-3.5c-.1-.8-.5-1.2-1.3-1.2-.7 0-1 .1-1.3.4-.2.4-.3.9-.3 1.5v2.8h-.9v-5.4h.7l.1.7.9-.6.9-.2zm5.5 5.6c-.7 0-1.3-.4-1.6-.7-.4-.5-.7-1.2-.7-2.1 0-1 .3-1.6.7-2 .3-.6 1-.9 1.6-.9.4.1.7.1 1 .4a2 2 0 0 1 .7.5v-2.9h.8v7.6h-.7l-.1-.7a2 2 0 0 1-.7.4c-.3.3-.6.4-1 .4zm.1-.8c.6 0 1-.1 1.2-.4.4-.3.4-.8.4-1.4v-.2c0-.6-.1-1.2-.4-1.5-.2-.4-.6-.6-1.2-.6-.4 0-.8.2-1 .6-.4.4-.4.9-.4 1.5 0 .7 0 1.2.3 1.5.3.4.7.5 1.1.5zM209 246.1h-.6l-.2-.1v-.8h.3l.5.2h.4l.3-.6.3-.6V237h.8v7c0 .8-.2 1.3-.5 1.6-.5.4-.9.5-1.5.5zm8-7.3v5.4h-.7l-.1-.7c-.2.3-.6.5-.9.6l-.9.2c-.6 0-1.1-.1-1.4-.5-.4-.3-.5-.8-.5-1.4v-3.6h.9v3.5c0 .9.4 1.3 1.2 1.3.6 0 1-.2 1.2-.6.2-.2.2-.7.2-1.4v-2.8zm4.3 0c.6 0 1.1.1 1.4.4.4.3.5.8.5 1.5v3.5h-.8v-3.4c0-.9-.4-1.3-1.2-1.3-.6 0-1 .2-1.3.5-.2.3-.3.8-.3 1.4v2.8h-.9v-5.4h.7l.2.8c.2-.3.4-.6.7-.6.3-.2.7-.2 1-.2zm5.7 5.5c-.4 0-.8 0-1.2-.3-.4-.2-.8-.5-.9-.9-.2-.4-.3-1-.3-1.5 0-.7.1-1.2.3-1.6.2-.5.5-.8 1.1-1l1-.1h1l.5.1-.2.8-.6-.2h-.7c-1-.1-1.5.5-1.5 1.9 0 .7.1 1.1.4 1.5.1.4.6.6 1.1.6l.8-.1.6-.3v.8a2 2 0 0 1-.6.2l-.8.1zm4.5-.7h.4l.3-.1v.5l-.4.3h-.5l-.8-.1-.5-.5c-.2-.3-.2-.7-.2-1v-3.3h-.8v-.3l.8-.3.2-1.2h.6v1.2h1.6v.7h-1.6v3.1c0 .4.1.6.4.7 0 .2.2.3.5.3zm2.3-6.8s.2 0 .2.2l.3.4c0 .2 0 .3-.3.4l-.2.2c-.2 0-.4 0-.5-.2l-.1-.4c0-.2 0-.4.2-.4l.3-.2zm.4 2v5.4h-.9v-5.4zm6.4 2.7c0 1-.3 1.6-.7 2-.5.7-1 .9-1.9.9-.4-.1-1-.2-1.2-.4-.4-.2-.8-.5-1-1l-.1-1.5c-.1-.9.1-1.5.6-2 .4-.5 1-.7 1.7-.7.6 0 1 0 1.3.2.4.3.7.6 1 1 0 .3.2.8.2 1.4zm-4.1 0c0 .7.1 1.2.4 1.5.1.4.6.6 1.1.6.6 0 1-.2 1.3-.6.2-.3.3-.8.3-1.5 0-.5-.1-1.1-.3-1.5-.3-.3-.7-.5-1.3-.5-.5 0-1 .2-1.1.5-.3.4-.4 1-.4 1.5zm8-2.7c.7 0 1.1.1 1.5.4.3.3.5.8.5 1.5v3.5h-1v-3.4c.1-.9-.2-1.3-1-1.3-.7 0-1.1.2-1.5.5 0 .3-.2.8-.2 1.4v2.8h-.8v-5.4h.6l.2.8c.2-.3.4-.6.7-.6.5-.2.7-.2 1-.2zm0 0" style="fill:none;stroke:#fff;stroke-width:3;stroke-linecap:butt;stroke-linejoin:round;stroke-miterlimit:10;stroke-opacity:.6" transform="rotate(  340 221.918 239.43) translate(-7.9414683,-8.7774124)"/> <g style="fill:#212121;fill-opacity:1" transform=" rotate(  340 221.918 239.43) ">  <use xlink:href="#a" x="205.6" y="223.5"/>  <use xlink:href="#b" x="212.9" y="223.5"/>  <use xlink:href="#c" x="216.8" y="223.5"/>  <use xlink:href="#d" x="222.4" y="223.5"/>  <use xlink:href="#e" x="228.6" y="223.5"/>  <use xlink:href="#f" x="201" y="235.4"/>  <use xlink:href="#g" x="203.7" y="235.4"/>  <use xlink:href="#d" x="209.9" y="235.4"/>  <use xlink:href="#h" x="216.1" y="235.4"/>  <use xlink:href="#i" x="220.9" y="235.4"/>  <use xlink:href="#j" x="224.5" y="235.4"/>  <use xlink:href="#k" x="227.1" y="235.4"/>  <use xlink:href="#d" x="233.1" y="235.4"/> </g></svg>