<svg xmlns="http://www.w3.org/2000/svg" xmlns:xlink="http://www.w3.org/1999/xlink" viewBox="0 0 497 279"> <defs overflow="visible" style="stroke:none">  <path id="f" d="m.3 0 1.6-7.6h.9l-.8 3c.1.6 0 1-.2 1.3l-.1.5 2.5-2.6h1L3-3l1.4 3h-1L2.3-2.5l-.7.5-.4 2Zm0 0"/>  <path id="e" d="M2 0c-.6 0-.9 0-1.2-.3C.6-.7.5-1 .5-1.7c0-.5 0-1 .2-1.5l.5-1.1c.2-.4.5-.7.8-.9a2 2 0 0 1 1.1-.3c.4 0 .6.1.9.3l.5.7.3-.9h.7L4.4 0h-.7l.1-1c-.3.3-.5.6-.9.8-.3.2-.6.2-.9.2Zm.1-.5c.4-.1.6-.2.9-.5l.6-.6a4 4 0 0 0 .4-1 3 3 0 0 0 .1-.7 4 4 0 0 0 0-.4c.1-.3.1-.5-.1-.7-.3-.2-.5-.3-.8-.3-.3 0-.5 0-.7.2a2 2 0 0 0-.6.7l-.4 1-.1 1.1c0 .4 0 .6.2.8.1.2.3.3.6.3Zm.1-.1"/>  <path id="d" d="M.4 0 2-7.1h1L1.4-.8h2.8L4 0Zm0 0"/>  <path id="c" d="M2.4 0c-.6 0-1 0-1.4-.3C.6-.8.5-1.3.5-2c0-.3 0-.8.2-1.2 0-.4.3-.8.5-1.1.2-.4.5-.7.8-.8a2 2 0 0 1 1.2-.4c.5 0 .8.2 1.1.5.3 0 .4.4.4.8 0 .3-.1.7-.3 1-.4.2-.6.4-1 .6-.6.2-1.2.3-1.9.3h-.1v.3c0 .5 0 .8.3 1 .2.3.5.4.9.4l.7-.1A5 5 0 0 0 4-1v.7a6 6 0 0 1-.7.3h-.9Zm-.9-3 1.3-.1.7-.4c.2-.1.3-.4.3-.5l-.1-.6-.7-.1c-.2 0-.5.1-.9.4L1.6-3Zm0 0"/>  <path id="b" d="m.3 0 1.1-5.4h.7v1l.4-.5.5-.4.7-.2H4l.3.2-.2.7h-.5c-.3-.1-.6-.1-.9.2l-.7.9-.3 1L1.2 0Zm0 0"/>  <path id="a" d="M3.3 0c-.8 0-1.5 0-2-.5C1-1.1.8-1.8.8-2.6.7-3.1.7-3.5 1-4c-.1-.4 0-.8.3-1.2l.8-1L3-7l1.7-.2c.5 0 1.1.1 1.6.4l-.3.7a4 4 0 0 0-.7-.2l-.7-.2c-.6 0-1 .2-1.3.5-.4 0-.7.4-1 .8A4 4 0 0 0 1.9-4l-.2 1.3c0 .7.1 1.1.3 1.5.4.3 1 .5 1.4.5h.8L5-1v.8l-.8.2a5 5 0 0 1-1 0Zm0 0"/>  <path d="M1 0v-7.1h4V0Zm.4-.5h3.1v-6.1h-3Zm.1 0"/> </defs> <image xlink:href="svg/8/46_10.jpg" width="497" height="279"/> <path d="M434.7 257.4c-.7 0-1.4-.2-1.7-.7-.6-.5-.8-1.2-.8-2l.1-1.3.5-1.4.8-.9 1-.8 1.6-.2c.5-.1 1.1.1 1.6.4l-.4.7a4 4 0 0 0-.6-.2l-.7-.1c-.5 0-1.1 0-1.3.3-.4.2-.8.5-1 .9a4 4 0 0 0-.4 1.2l-.2 1.3c0 .7.1 1.2.4 1.5.4.3.7.5 1.4.5h.7l.8-.4v.9l-.8.2a5 5 0 0 1-1 .1Zm2.9-.1 1.2-5.4h.7l-.1 1.1.6-.6.4-.4h1.2l-.2.7h-.4c-.4-.1-.7-.1-.9.3l-.7.8-.4 1-.5 2.6Zm6 .1c-.7 0-1.2-.2-1.6-.5-.2-.4-.4-.9-.4-1.5 0-.4 0-.9.2-1.4l.5-1c.3-.4.5-.6.9-.8a2 2 0 0 1 1-.3c.7 0 1.1 0 1.3.3.2.2.3.5.3.8 0 .4 0 .8-.3 1.1-.2.2-.6.5-1 .6-.5.3-1 .3-1.8.3h-.2v.4c0 .4.1.6.3 1 .2.1.5.2 1 .2h.5a5 5 0 0 0 .9-.3v.7a6 6 0 0 1-.8.3l-.8.1Zm-1-3.1h.1l1.1-.1c.4 0 .6-.2.8-.4.4-.1.4-.4.4-.6l-.2-.5-.6-.1c-.2 0-.6.1-.9.4-.3.3-.5.7-.7 1.3Zm5.9 3.1c-.5 0-1-.2-1.4-.5-.3-.4-.5-.9-.5-1.5 0-.4 0-.9.2-1.4l.5-1c.2-.4.5-.6.9-.8a2 2 0 0 1 1-.3c.7 0 1.1 0 1.3.3.2.2.3.5.3.8 0 .4-.1.8-.3 1.1-.2.2-.6.5-1 .6-.5.3-1 .3-1.8.3h-.2v.4c0 .4 0 .6.3 1 .2.1.5.2.9.2h.7a5 5 0 0 0 .8-.3v.7a6 6 0 0 1-.8.3l-.9.1Zm-.9-3.1h.1l1.1-.1c.4 0 .6-.2.8-.4.2-.1.4-.4.4-.6l-.2-.5-.6-.1c-.2 0-.6.1-1 .4l-.5 1.3Zm6.5 3 1.5-7.1h1l-1.5 6.3h2.8l-.2.8Zm6.3.1c-.4 0-.7-.1-1-.5-.4-.3-.4-.7-.4-1.3 0-.6 0-1 .2-1.6l.5-1c.3-.4.5-.7.8-1a2 2 0 0 1 1.1 0c.4-.1.6-.1.9 0l.4.8h.1l.3-.9h.7l-1.1 5.4h-.9l.3-1-1 .8c-.2.2-.5.3-.9.3Zm.3-.7c.3 0 .5-.1.7-.3l.7-.7a4 4 0 0 0 .4-1 3 3 0 0 0 .1-.7 4 4 0 0 0 0-.4c0-.3 0-.5-.2-.6-.2-.3-.4-.4-.7-.4-.3 0-.5 0-.7.2a2 2 0 0 0-.6.7l-.4 1v1.1c-.1.4-.1.6 0 .8.2.2.4.3.7.3Zm3.7.6 1.6-7.6h1l-.8 3-.2 1.3c0 .3-.1.4-.2.5l2.6-2.5h1l-2.3 2.2 1.4 3.1h-1l-.9-2.5-.9.6-.4 1.9Zm6.9.1c-.6 0-1-.2-1.3-.5-.4-.4-.6-.9-.6-1.5 0-.4 0-.9.2-1.4l.4-1c.3-.4.6-.6 1-.8a2 2 0 0 1 1-.3c.7 0 1 0 1.3.3.2.2.3.5.3.8 0 .4-.1.8-.3 1.1-.3.2-.6.5-1 .6-.5.3-1 .3-1.8.3h-.2v.4c0 .4 0 .6.3 1 .2.1.4.2.9.2h.7a5 5 0 0 0 .8-.3v.7a6 6 0 0 1-.8.3l-.9.1Zm-.9-3.1h.1l1.1-.1c.4 0 .6-.2.8-.4.2-.1.4-.4.4-.6l-.2-.5-.6-.1c-.3 0-.6.1-1 .4l-.5 1.3Zm0 0" style="fill:none;stroke-width:2;stroke-linecap:butt;stroke-linejoin:round;stroke:#fff;stroke-opacity:.6;stroke-miterlimit:10" transform=" rotate(  340 453.136 254.307) "/> <g style="fill:#4d80b3;fill-opacity:1" transform=" rotate(  340 453.136 254.307) ">  <use xlink:href="#a" x="431.5" y="257.3"/>  <use xlink:href="#b" x="437.4" y="257.3"/>  <use xlink:href="#c" x="441.1" y="257.3"/>  <use xlink:href="#c" x="446.1" y="257.3"/>  <use xlink:href="#glyph0-4" x="451.1" y="257.3"/>  <use xlink:href="#d" x="453.7" y="257.3"/>  <use xlink:href="#e" x="458.5" y="257.3"/>  <use xlink:href="#f" x="464.2" y="257.3"/>  <use xlink:href="#c" x="468.9" y="257.3"/> </g></svg>