<svg xmlns="http://www.w3.org/2000/svg" xmlns:xlink="http://www.w3.org/1999/xlink" viewBox="0 0 497 279"> <defs overflow="visible" style="stroke:none">  <path id="t" d="M3.3-4.7H2V0H1v-4.7H.3V-5l.7-.4v-.3c0-.7.2-1.2.5-1.5.5-.3.8-.5 1.3-.5l.6.1.6.1-.4.7h-.3L2.8-7c-.2 0-.5 0-.6.4-.2.2-.2.5-.2.9v.3h1.3Zm0 0"/>  <path id="s" d="M1-7.1h2c1 0 1.6.1 2 .4.5.2.7.7.7 1.3 0 .5-.1.8-.3 1-.4.4-.6.6-1 .7l.8.3c.2 0 .4.2.5.5.3.2.3.5.3.9 0 .6-.3 1-.7 1.5-.5.3-1 .5-1.8.5H1Zm.9 3h1.3c.6.1 1 .1 1.3-.3.2-.2.3-.5.3-.9s-.1-.6-.4-.7c-.4-.3-.8-.4-1.4-.4H2Zm0 .8v2.5h1.4c.7 0 1 0 1.3-.2.4-.4.4-.7.4-1.1s-.1-.7-.4-.9c-.2-.2-.6-.3-1.4-.3Zm0 0"/>  <path id="r" d="M1.7-7.6v3c.3-.4.4-.5.7-.6.3-.2.7-.3 1-.3.7 0 1.2.2 1.6.5.2.3.4.8.4 1.5V0h-.9v-3.4c0-.9-.4-1.3-1.2-1.3-.6 0-1 .2-1.2.5-.3.3-.4.8-.4 1.4V0H.8v-7.6Zm0 0"/>  <path id="q" d="M6.6 0h-1L1.8-6v6H1v-7.1h1l3.8 5.9v-5.9h.8Zm0 0"/>  <path id="p" d="M1.7-7.6v4.8L2-3v-.3l.4-.2L4-5.4h1L2.9-3l2.4 3H4.2L2.3-2.5l-.6.5v2H.8v-7.6Zm0 0"/>  <path id="o" d="m5.2 0-.9-3A18 18 0 0 1 4-4.5 34.3 34.3 0 0 1 3.5-3l-1 3h-.9L.2-5.4h.9l.6 2.9A40 40 0 0 1 2-1l.3-.3.1-.5a6 6 0 0 1 .1-.5l1-3h1l.7 2.9.3.8.2.6.3-.6v-1l.8-2.7h1L6.3 0Zm0 0"/>  <path id="n" d="M2.9-5.5c.6 0 1.1.2 1.4.5.3.3.5.7.5 1.3V0h-.6L4-.8c-.3.3-.5.6-.8.8h-1c-.5 0-1 0-1.3-.3C.6-.5.5-.9.5-1.5c0-.5.2-1 .5-1.2.5-.3 1-.5 2-.5h.8v-.3c.2-.5.2-.8-.2-1l-.8-.2H2l-.7.5L1-5l1-.3.9-.2Zm1 2.9h-.8c-.6 0-1 .1-1.4.3-.1.3-.3.5-.3.8 0 .3 0 .5.2.7l.7.2c.5 0 .9-.1 1.2-.4.3-.2.4-.6.4-1Zm.1 0"/>  <path id="m" d="M4.1 0 1.8-6.3V0H1v-7.1h1.3l2.2 5.8 2.3-5.8H8V0h-.8v-6.2L5 0Zm0 0"/>  <path id="l" d="M3.3-5.5H4l-.1 1.1-.3-.3h-.3c-.3 0-.5 0-.8.2l-.5.7-.3 1V0H.8v-5.4h.8v1h.2l.6-.6c.3-.3.6-.5 1-.5Zm0 0"/>  <path id="k" d="M3-5.5c.3 0 .7.1 1 .3a2 2 0 0 1 1 .9v1.8H1.5c0 .5.1 1 .4 1.4.3.3.7.4 1.3.4H4l.9-.3v.8L4 0a5 5 0 0 1-1 0 3 3 0 0 1-1.2-.1 2.2 2.2 0 0 1-1-1.1c0-.2-.2-.8-.2-1.3-.1-.7 0-1.2.2-1.6.2-.5.5-.9.9-1 .3-.2.7-.4 1.2-.4Zm0 .8c-.6 0-.9.1-1 .4-.4.2-.6.6-.6 1.1h2.8c0-.5-.1-.8-.3-1.1-.2-.3-.5-.4-1-.4Zm0 0"/>  <path id="j" d="M2.6-.6H3l.4-.2v.7L3 0H1.7l-.6-.5-.1-1v-3.3H.2V-5l.7-.5.4-1h.5v1h1.5v.8H1.8v3.1c0 .3 0 .6.2.7l.6.3Zm0 0"/>  <path id="i" d="M4.3-1.5c0 .5-.2 1-.5 1.2-.4.3-1 .4-1.6.4l-1-.1-.7-.2V-1l.8.3h1.8l.4-.7-.1-.4L3-2a7.5 7.5 0 0 0-.8-.4 7.5 7.5 0 0 1-1-.4l-.4-.5L.5-4c0-.5.2-.8.6-1 .3-.4.8-.6 1.4-.6l1 .2a4 4 0 0 1 .6.4l-.1.6-.8-.2-.7-.1-.9.1c-.2.2-.3.3-.3.6s0 .2.2.3l.4.3.8.3.9.4.4.5c.3.2.3.4.3.7Zm0 0"/>  <path id="h" d="M3.4-5.5c.7 0 1.2.2 1.6.5.2.3.4.8.4 1.5V0h-.9v-3.4c0-.9-.4-1.3-1.2-1.3-.6 0-1 .1-1.2.5-.3.2-.4.8-.4 1.4V0H.8v-5.4h.8v.8h.2c.2-.4.3-.5.7-.7l1-.2Zm0 0"/>  <path id="g" d="M1.3-7.4c.1 0 .3 0 .4.2l.1.4-.1.4-.4.2-.4-.3-.1-.3.1-.4.4-.2Zm.4 2V0H.8v-5.4Zm0 0"/>  <path id="f" d="M6.7-5.5c.6 0 1 .2 1.4.5.3.3.4.8.4 1.5V0h-.8v-3.5c0-.8-.4-1.2-1.1-1.2-.6 0-1 .1-1.1.4C5.2-4 5-3.5 5-3v3h-.7v-3.5c0-.8-.4-1.2-1.1-1.2-.6 0-1 .1-1.2.5-.2.2-.3.8-.3 1.4V0H.8v-5.4h.8v.8h.2l.6-.7 1-.2c.7 0 1.2.3 1.6 1 .2-.5.4-.7.7-.8.3-.1.7-.2 1-.2Zm0 0"/>  <path id="e" d="M2.8 0C2 0 1.4 0 1-.5.7-1 .5-1.8.5-2.6c0-1.1.3-1.8.7-2.2.4-.5.8-.7 1.6-.7.4 0 .7.1 1 .3a2 2 0 0 1 .6.5v-2.8h.9V0h-.7l-.1-.7a2 2 0 0 1-.8.6l-.9.1Zm0-.5c.8-.1 1.1-.3 1.4-.6.1-.3.2-.8.2-1.4v-.2c0-.6 0-1.1-.3-1.5-.2-.4-.6-.5-1.2-.5-.5 0-.9.2-1 .5-.4.4-.5 1-.5 1.5.1.7.1 1.2.4 1.5.3.4.6.6 1 .6Zm.1-.1"/>  <path id="d" d="M0-5.4h1l1 3 .4 1 .2.6.2-.7c0-.3.2-.5.2-.8l1-3h1.2L2.8.6c-.2.6-.4 1.1-.7 1.4-.3.3-.7.4-1.3.4H.1v-.9h.6c.3.2.6.2.7 0L2 .7l.2-.7Zm0 0"/>  <path id="c" d="M5.5-2.7c0 .9-.2 1.7-.7 2-.4.7-1 .9-1.8.9-.5-.2-.9-.2-1.3-.4-.3-.2-.6-.6-.7-1C.6-1.6.5-2 .5-2.7c0-.9.3-1.6.7-2 .5-.5 1-.8 1.8-.8.5 0 1 .2 1.3.5.4 0 .7.4.9.9.2.2.3.7.3 1.3Zm-4 0c0 .7 0 1.2.3 1.5.3.4.7.6 1.2.6.6 0 1-.2 1.2-.6.3-.3.4-.8.4-1.5s-.1-1.1-.4-1.5c-.2-.3-.6-.5-1.2-.5-.5 0-1 .2-1.2.5-.2.4-.3.9-.3 1.5Zm0 0"/>  <path id="b" d="M1.7 0H.8v-7.6h1Zm0 0"/>  <path id="a" d="M1 0v-7.1h.9v6.3h3V0Zm0 0"/>  <path d="M1 0v-7.1h4V0Zm.4-.5h3.1v-6.1h-3Zm.1 0"/> </defs> <image xlink:href="svg/8/46_7.jpg" width="497" height="279"/> <path d="M3.7 2C3.7 3 3 3.7 2 3.7A1.7 1.7 0 1 1 3.7 2zm0 0" style="fill:#fdfdfa;fill-opacity:1;fill-rule:nonzero;stroke:#3f3f35;stroke-width:.5;stroke-linecap:butt;stroke-linejoin:miter;stroke-miterlimit:4;stroke-opacity:1" transform="translate(81.473959,145.94578)"/> <path d="M53.8 144v-7.3h1v6.4h3v.9zm6 0H59v-7.7h.8zm6.4-2.7c0 .7-.2 1.5-.7 2-.4.5-1 .7-1.8.7-.5 0-.9 0-1.3-.3-.3-.2-.6-.5-.8-1-.3-.2-.4-.7-.4-1.3 0-1.1.3-1.7.8-2.1.4-.7 1-.9 1.7-.9.5.1 1 .2 1.3.4.4.2.7.5 1 1 0 .4.2.9.2 1.5zm-4 0c-.1.6-.1 1.1.2 1.5.4.2.8.5 1.3.5.6 0 1-.2 1.3-.5.2-.4.3-1 .3-1.5 0-.7-.1-1.3-.4-1.5-.2-.4-.6-.6-1.2-.6-.5 0-1 .2-1.2.6-.2.2-.4.8-.4 1.5zm4.4-2.7h.9l1.2 3 .2.8.2.7.2-.7.3-.8 1.1-3h1l-2.5 6c0 .7-.2 1.1-.6 1.4-.3.2-.6.4-1.2.4h-.5l-.2-.2v-.6h.5c.3 0 .6 0 .8-.2l.4-.7.3-.7zm7.8 5.4c-.7 0-1.2-.2-1.6-.6-.4-.5-.6-1.2-.6-2.1 0-1 .2-1.6.6-2.1.4-.5 1-.7 1.6-.7.4 0 .7 0 1 .2a2 2 0 0 1 .7.6v-2.9h.8v7.5h-.7l-.1-.7a2 2 0 0 1-.7.6c-.2.2-.6.2-1 .2zm.1-.7c.6 0 1-.1 1.2-.3.3-.5.4-1 .4-1.6v-.1c-.1-.7-.1-1.3-.4-1.5-.2-.4-.6-.6-1.2-.6-.4 0-.8.2-1 .6-.3.4-.5.9-.5 1.5s.2 1.1.5 1.5c.2.2.5.5 1 .5zm10-4.8c.6 0 1 .1 1.5.5.2.3.3.8.3 1.5v3.4h-.8v-3.4c0-.9-.5-1.3-1.1-1.3-.6 0-1 .2-1.2.5-.2.3-.2.7-.2 1.3v3h-.9v-3.6c-.1-.8-.4-1.2-1.2-1.2-.5 0-.9.2-.9.5-.5.4-.6.8-.6 1.5v2.7h-.8v-5.3h.8v.7h.2c.1-.3.4-.5.6-.6l1-.2c.6 0 1.2.3 1.4.9h.2l.7-.7 1-.2zm3.9-1.9.4.1.2.4-.2.5-.4.1-.3-.1-.2-.6c.1 0 .1-.2.2-.3l.3-.1zm.6 2v5.3h-1.1v-5.3zm4.2-.1c.6 0 1 .1 1.4.5.3.3.5.8.5 1.5v3.4h-.9v-3.4c0-.8-.4-1.3-1.2-1.3-.6 0-1 .2-1.2.5-.2.4-.3.8-.3 1.5v2.7h-1v-5.3h.9v.7c.3-.3.6-.5.9-.6l.9-.2zm7 4c0 .5-.1.9-.5 1.1-.4.4-1 .4-1.7.4h-.9l-.7-.4v-.6l.8.2 1 .1c.3 0 .6 0 .8-.2.3-.1.4-.3.4-.6l-.1-.3-.4-.3a7.5 7.5 0 0 0-.9-.4 7.5 7.5 0 0 1-1-.4l-.3-.5-.3-.6c0-.5.2-.9.6-1.1.3-.3.8-.4 1.4-.4h1a4 4 0 0 1 .6.5l-.2.5-.7-.2h-1.6l-.3.7.2.2.4.3.8.5c.4 0 .7 0 .9.3l.5.5c.2.1.2.4.2.7zm3.1.8h.8v.5h-.4l-.5.2h-.8l-.6-.6-.2-1v-3.1h-.6v-.4l.6-.4.4-1.1h.5v1.2h1.5v.7h-1.5v3c0 .5 0 .7.2.9l.6.1zm3.9-4.8c.5 0 .9 0 1.2.3a2 2 0 0 1 .8.8l.2 1.4v.4h-3.6c0 .6.1 1.1.4 1.4.3.3.8.5 1.3.5l.9-.1.8-.3v.8l-.8.3a5 5 0 0 1-1 0 3 3 0 0 1-1.3-.3 2.2 2.2 0 0 1-1.1-.9v-1.5c-.1-.6-.1-1 0-1.5.3-.4.6-.7 1-1 .3-.2.7-.3 1.2-.3zm0 .7c-.4 0-.7.1-1 .4-.2.4-.4.7-.4 1.1h2.7c0-.4-.1-.7-.3-1-.2-.4-.5-.6-1-.6zm6.1-.7h.6v.9l-.5-.1h-.2c-.2 0-.5 0-.7.2l-.6.6c-.2.3-.2.6-.2 1v2.8h-1v-5.3h.9v1l.7-.8c.3-.2.7-.3 1-.3zm0 0" style="fill:none;stroke:#fff;stroke-width:3;stroke-linecap:butt;stroke-linejoin:round;stroke-miterlimit:10;stroke-opacity:.6" transform=" rotate(  340 85.2227 147.945) "/> <g style="fill:#212121;fill-opacity:1" transform=" rotate(  340 85.2227 147.945) ">  <use xlink:href="#a" x="52.9" y="143.9"/>  <use xlink:href="#b" x="58.1" y="143.9"/>  <use xlink:href="#c" x="60.7" y="143.9"/>  <use xlink:href="#d" x="66.5" y="143.9"/>  <use xlink:href="#e" x="71.6" y="143.9"/>  <use xlink:href="#f" x="77.8" y="143.9"/>  <use xlink:href="#g" x="87.1" y="143.9"/>  <use xlink:href="#h" x="89.7" y="143.9"/>  <use xlink:href="#i" x="95.9" y="143.9"/>  <use xlink:href="#j" x="100.7" y="143.9"/>  <use xlink:href="#k" x="104.3" y="143.9"/>  <use xlink:href="#l" x="109.9" y="143.9"/> </g> <path d="M3.8 2A1.7 1.7 0 1 1 .3 2a1.7 1.7 0 0 1 3.5 0zm0 0" style="fill:#fdfdfa;fill-opacity:1;fill-rule:nonzero;stroke:#3f3f35;stroke-width:.5;stroke-linecap:butt;stroke-linejoin:miter;stroke-miterlimit:4;stroke-opacity:1" transform="translate(237.58408,42.174837)"/> <path d="m223.6 17.1-2.3-6.1v6h-.8v-7h1.3l2.2 5.8 2.3-5.8h1.3v7.1h-.9V11l-2.3 6zm7.9-5.4c.4 0 .8 0 1.2.3a2 2 0 0 1 .7.8c.2.4.3.8.3 1.3v.5H230c0 .6.2 1.1.5 1.4.3.3.7.5 1.2.5l1-.1.7-.4v1l-.8.2a5 5 0 0 1-1 0 3 3 0 0 1-1.2-.2 2.2 2.2 0 0 1-1-1c-.2-.4-.3-1-.3-1.5 0-.6.1-1 .3-1.5.2-.4.6-.8.8-1 .4-.2.8-.3 1.3-.3zm0 .7c-.5 0-.8.1-1 .4-.3.3-.5.6-.5 1.2h2.8c0-.5-.1-.9-.3-1-.3-.6-.6-.7-1-.7zm5.5-.7c.8 0 1.3.1 1.6.3.2.4.4 1 .4 1.5V17h-.6l-.2-.6c-.3.3-.5.5-.8.6-.2.2-.6.2-1 .2-.5 0-1 0-1.4-.2-.2-.4-.3-.8-.3-1.3 0-.7.2-1 .6-1.3.4-.3 1-.4 2-.4h.7v-.4c.1-.6.1-.8-.2-1l-.8-.1h-.8l-.7.3-.3-.6 1-.4.8-.1zm1.2 2.8h-.9c-.6 0-1 .2-1.3.5-.3 0-.4.3-.4.7 0 .3 0 .5.2.6.2.2.5.2.7.2.5 0 .9-.1 1.2-.3.3-.3.3-.7.3-1.2zm4.4 2.7c-.7 0-1.2-.2-1.6-.7-.4-.4-.6-1.1-.6-2 0-1 .2-1.6.6-2.1.4-.5 1-.7 1.6-.7.4 0 .7 0 1 .2a2 2 0 0 1 .6.6h.1v-3h.7v7.6h-.6l-.1-.7a2 2 0 0 1-.8.6c-.2.2-.5.2-.9.2zm.1-.7c.6 0 1-.1 1.2-.5.1-.3.4-.7.4-1.4v-.1c0-.7-.3-1.2-.5-1.6-.1-.3-.5-.5-1.1-.5-.5 0-.8.2-1 .6-.4.4-.5.9-.5 1.5s.1 1.1.4 1.5c.4.3.6.5 1.1.5zm8.8-2.1c0 1-.3 1.6-.7 2.1-.5.5-1 .7-1.8.7-.5 0-1 0-1.3-.2-.4-.3-.7-.6-.9-1-.2-.3-.3-1-.3-1.5 0-.9.2-1.5.7-2.1.4-.5 1-.7 1.8-.7.5 0 1 0 1.3.3.4.2.6.5.9 1 .2.3.3.8.3 1.3zm-4 0c-.1.7-.1 1.2.2 1.6.3.3.7.5 1.3.5.5 0 1-.2 1.2-.5.2-.4.4-1 .4-1.6 0-.6-.2-1-.4-1.4-.3-.4-.7-.6-1.2-.6-.6 0-1 .2-1.2.6-.3.3-.4.8-.4 1.4zm9.5 2.7-.9-3a18 18 0 0 1-.4-1.4 33.6 33.6 0 0 1-.3 1.3l-1 3.1h-1l-1.5-5.3h1.1l.5 2.8.3.9.1.7.1-.4.2-.5a6 6 0 0 1 .1-.5l1-3h1l.8 3 .3.7.1.7.2-.7.2-.9.8-2.8h.9L258 17zM229.6 29v-7h1v6.2h2.9v.8zm7.2-5.4c.6 0 1.1.2 1.4.5.4.2.5.7.5 1.3v3.7h-.6l-.2-.8-.9.7-.9.2c-.5 0-1.1-.2-1.3-.4-.3-.3-.4-.7-.4-1.2s.2-1 .6-1.2c.4-.4 1-.5 2-.5h.7v-.5c.1-.3.1-.6-.1-.8-.2-.2-.6-.3-.9-.3-.2 0-.5 0-.7.2-.3 0-.6.1-.8.3l-.2-.8.8-.2 1-.2zm1 2.9h-.7c-.7 0-1.2.1-1.4.3-.3.2-.4.5-.4.8 0 .3 0 .4.3.7l.7.2c.4 0 .7-.2 1-.5.5-.2.6-.5.6-1.1zm3.4-5v4.8l.2-.2.3-.3.2-.3 1.7-1.8h1l-2.1 2.3 2.3 3h-1l-2.1-2.3-.5.3v2.1h-.8v-7.6zm6.6 2.1 1.2.4a2 2 0 0 1 .7.8c.3.2.3.8.3 1.2v.6h-3.7c0 .6.2 1 .5 1.4.2.3.7.4 1.2.4h1l.7-.4v.8l-.9.3a5 5 0 0 1-.8-.1 3 3 0 0 1-1.3 0 2.2 2.2 0 0 1-1-1.1c-.2-.3-.3-.9-.3-1.4l.3-1.5.8-1c.5-.2.8-.3 1.3-.3zm0 .7c-.5 0-.8.2-1 .4-.3.3-.4.7-.5 1.3h2.8c-.1-.6-.1-1-.3-1.2-.3-.3-.6-.5-1-.5zm0 0" style="fill:none;stroke:#fff;stroke-width:3;stroke-linecap:butt;stroke-linejoin:round;stroke-miterlimit:10;stroke-opacity:.6" transform="rotate(  340 241.336 44.1742) translate(0,38.717161)"/> <g style="fill:#212121;fill-opacity:1" transform=" rotate(  340 241.336 44.1742) ">  <use xlink:href="#m" x="219.5" y="55.9"/>  <use xlink:href="#k" x="228.6" y="55.9"/>  <use xlink:href="#n" x="234.2" y="55.9"/>  <use xlink:href="#e" x="239.8" y="55.9"/>  <use xlink:href="#c" x="246" y="55.9"/>  <use xlink:href="#o" x="251.8" y="55.9"/>  <use xlink:href="#a" x="228.7" y="67.8"/>  <use xlink:href="#n" x="233.9" y="67.8"/>  <use xlink:href="#p" x="239.5" y="67.8"/>  <use xlink:href="#k" x="244.9" y="67.8"/> </g> <path d="M3.7 2A1.7 1.7 0 1 1 .3 2a1.7 1.7 0 0 1 3.4 0zm0 0" style="fill:#fdfdfa;fill-opacity:1;fill-rule:nonzero;stroke:#3f3f35;stroke-width:.5;stroke-linecap:butt;stroke-linejoin:miter;stroke-miterlimit:4;stroke-opacity:1" transform="translate(250.93386,229.04097)"/> <path d="M245.8 215.1h-1l-4-6v6.1h-.7V208h1l3.9 5.9V208h.7zm6.5-2.7c0 .9-.3 1.6-.7 2-.6.6-1 .9-1.8.9-.5-.1-1-.2-1.3-.4-.5-.2-.7-.6-.9-1-.2-.4-.3-.9-.3-1.5 0-.9.2-1.6.7-2 .4-.5 1-.8 1.8-.8.5 0 .9.2 1.3.4.3.2.6.5.8 1 .3.2.4.7.4 1.3zm-4.1 0c0 .7.1 1.2.4 1.6.2.3.6.5 1.2.5.5 0 1-.2 1.2-.6.2-.3.3-.8.3-1.5 0-.6 0-1.1-.3-1.4-.3-.4-.7-.6-1.2-.6-.6 0-1 .2-1.2.5-.3.4-.4.9-.4 1.5zm7.9-2.8h.4l.3.2-.1.7h-.7c-.2-.1-.4-.1-.7.1l-.6.7-.2 1v2.7h-.9v-5.3h.8v1h.2l.6-.7c.3-.2.6-.4 1-.4zm3.5 4.9h.4l.3-.2v.7l-.3.1-.6.1-.8-.1-.5-.5c-.2-.3-.2-.6-.2-1v-3.3h-.9v-.3l.9-.4.3-1h.5v1h1.6v.8h-1.6v3.1c0 .3.1.6.3.7 0 .2.3.3.6.3zm2.7-7v3c.1-.3.4-.5.7-.6.3-.2.6-.3 1-.3.5 0 1 .2 1.3.5.4.3.7.9.7 1.5v3.5h-1v-3.4c0-.9-.4-1.3-1.2-1.3-.6 0-1 .2-1.2.5-.2.3-.3.8-.3 1.4v2.8h-1v-7.6zm-32 12.4h2c1.1 0 1.7.1 2.2.4.5.3.6.7.6 1.4-.1.3-.1.7-.4 1-.2.3-.5.5-1 .5v.1c.3 0 .6.1.8.3.3 0 .5.3.6.4.2.3.2.6.2 1.1 0 .5-.2.9-.6 1.3-.5.6-1 .6-1.8.6h-2.6zm1 3h1.3c.6.1 1 .1 1.2-.3.3-.1.4-.4.4-.8s-.2-.8-.4-.9l-1.5-.2h-1.1Zm0 .8v2.6h1.4c.6 0 1-.1 1.3-.4.3-.2.4-.6.4-.9 0-.4-.2-.7-.4-1-.3-.2-.7-.3-1.4-.3zm7.5-2.1c.5 0 1 .1 1.4.4.3.3.5.8.5 1.4v3.6h-.7v-.7l-1 .6c-.2.2-.5.2-1 .2-.6 0-1 0-1.3-.3-.2-.3-.4-.8-.4-1.2 0-.6.2-1 .7-1.3.4-.3 1-.3 2-.5h.7v-.3c.1-.5.1-.8-.2-1l-.8-.1h-.8l-.7.3-.3-.6.9-.4 1-.1zm1 2.8h-.8c-.7 0-1 .2-1.4.4-.2.2-.3.4-.3.8 0 .3 0 .4.1.6.3.2.6.2.8.2.5 0 .9-.1 1.2-.3.3-.3.4-.7.4-1.2zm4.3 2h.4l.5-.1v.7h-.5l-.5.2-.8-.2-.6-.5-.2-1v-3.1h-.8v-.5l.8-.3.4-1.2h.5v1.3h1.5v.7h-1.5v3c0 .5 0 .6.2.9l.6.1zm3.6 0h.4l.4-.1v.7h-.5l-.4.2-.8-.2-.6-.5-.2-1v-3.1h-.8v-.5l.8-.3.4-1.2h.5v1.3h1.5v.7H247v3c-.1.5-.1.6 0 .9l.7.1zm2.7.6h-.9v-7.6h1zm3.8-5.4c.5 0 .9 0 1.2.3a2 2 0 0 1 .6.8c.3.4.4.8.4 1.3v.5h-3.7c0 .6.3 1.1.5 1.5.3.2.8.4 1.3.4l.9-.1.8-.3v.8l-.8.2a5 5 0 0 1-1 0 3 3 0 0 1-1.3-.2 2.2 2.2 0 0 1-1.1-.8c0-.5-.1-1-.1-1.6-.1-.6.1-1 .2-1.5.2-.4.5-.8.9-1 .3-.2.7-.3 1.2-.3zm0 .7c-.4 0-.8.1-1 .4-.3.3-.4.6-.4 1.1h2.7c0-.4-.1-.8-.3-1-.2-.5-.6-.6-1-.6zm6 .1H259v4.6h-1v-4.6h-1v-.5l1-.3v-.3c0-.7.2-1.1.5-1.3.3-.5.7-.6 1.3-.6h.5l.5.2-.2.7-.4-.1-.4-.2c-.3.1-.5.2-.8.4v1.2h1.2zm5.7 2c0 .8-.3 1.5-.7 2-.5.6-1 .7-1.8.7-.5 0-1 0-1.4-.3-.3-.2-.6-.5-.8-1-.2-.2-.2-.8-.2-1.3 0-1.1.1-1.7.6-2.2.4-.5 1-.7 1.8-.7.6 0 1 .1 1.3.3.3.2.6.5.9 1.1.2.3.3.8.3 1.4zm-4 0c-.1.6-.1 1 .2 1.5.3.3.7.5 1.3.5.5 0 1-.2 1.2-.4.2-.5.4-1.1.4-1.6 0-.7-.2-1.2-.4-1.5-.3-.4-.7-.6-1.2-.6-.6 0-1 .2-1.2.7-.3.2-.4.7-.4 1.4zm7.9-2.8h.6l-.1.8h-.6c-.3 0-.5 0-.7.2l-.6.6c-.2.3-.4.6-.4 1v2.8h-.7v-5.3h.7v1h.2l.6-.8c.2-.2.6-.3 1-.3zm3.2 5.5c-.5 0-1-.1-1.4-.7-.6-.4-.7-1.1-.7-2 0-1 .1-1.6.6-2.1.4-.5 1-.7 1.6-.7.4 0 .7 0 1 .2a2 2 0 0 1 .7.6v-3h.8v7.6h-.6l-.2-.7a2 2 0 0 1-.8.7c0 .1-.5.1-.9.1zm.3-.7c.5 0 .9-.1 1.1-.4.3-.4.4-.8.4-1.5v-.1c0-.7-.1-1.2-.4-1.5-.2-.4-.6-.6-1.2-.6-.4 0-.8.2-1 .6-.3.4-.4.9-.4 1.5s.1 1.1.4 1.5c.2.3.6.5 1 .5zm-.1 0" style="fill:none;stroke:#fff;stroke-width:3;stroke-linecap:butt;stroke-linejoin:round;stroke-miterlimit:10;stroke-opacity:.6" transform=" rotate(  340 254.684 231.039) "/> <g style="fill:#212121;fill-opacity:1" transform=" rotate(  340 254.684 231.039) ">  <use xlink:href="#q" x="239.1" y="215.1"/>  <use xlink:href="#c" x="246.7" y="215.1"/>  <use xlink:href="#l" x="252.8" y="215.1"/>  <use xlink:href="#j" x="256.9" y="215.1"/>  <use xlink:href="#r" x="260.5" y="215.1"/>  <use xlink:href="#s" x="229.4" y="227"/>  <use xlink:href="#n" x="235.9" y="227"/>  <use xlink:href="#j" x="241.5" y="227"/>  <use xlink:href="#j" x="245.1" y="227"/>  <use xlink:href="#b" x="248.7" y="227"/>  <use xlink:href="#k" x="251.3" y="227"/>  <use xlink:href="#t" x="256.9" y="227"/>  <use xlink:href="#c" x="260.4" y="227"/>  <use xlink:href="#l" x="266.4" y="227"/>  <use xlink:href="#e" x="270.3" y="227"/> </g></svg>