<svg xmlns="http://www.w3.org/2000/svg" xmlns:xlink="http://www.w3.org/1999/xlink" viewBox="0 0 497 279"> <defs overflow="visible" style="stroke:none">  <path id="k" d="M3-5.5c.3 0 .7.1 1 .3a2 2 0 0 1 1 .9v1.8H1.5c0 .5.1 1 .4 1.4.3.3.7.4 1.3.4H4l.9-.3v.8L4 0a5 5 0 0 1-1 0 3 3 0 0 1-1.2-.1 2.2 2.2 0 0 1-1-1.1c0-.2-.2-.8-.2-1.3-.1-.7 0-1.2.2-1.6.2-.5.5-.9.9-1 .3-.2.7-.4 1.2-.4Zm0 .8c-.6 0-.9.1-1 .4-.4.2-.6.6-.6 1.1h2.8c0-.5-.1-.8-.3-1.1-.2-.3-.5-.4-1-.4Zm0 0"/>  <path id="j" d="M1.7 0H.8v-7.6h1Zm0 0"/>  <path id="i" d="M4-3.8h2.6v3.5A8.4 8.4 0 0 1 4 .1C3.3 0 2.7-.1 2.2-.3A3 3 0 0 1 1-1.6c-.3-.6-.4-1.2-.4-2 0-.7.2-1.4.4-1.9a3 3 0 0 1 1.3-1.3c.7-.2 1.2-.4 2-.4h1.1a5 5 0 0 1 1 .5l-.3.7a7.4 7.4 0 0 0-.9-.3l-1-.2c-.7 0-1.4.3-1.9.8-.4.5-.7 1.2-.7 2.1-.1.6 0 1.1.2 1.6.2.4.5.7.9 1 .3.3.9.4 1.5.4a5.8 5.8 0 0 0 1.4-.2V-3H4.1Zm0 0"/>  <path id="h" d="M0-5.4h1l1 3 .4 1 .2.6.2-.7c0-.3.2-.5.2-.8l1-3h1.2L2.8.6c-.2.6-.4 1.1-.7 1.4-.3.3-.7.4-1.3.4H.1v-.9h.6c.3.2.6.2.7 0L2 .7l.2-.7Zm0 0"/>  <path id="g" d="M2.6-.6H3l.4-.2v.7L3 0H1.7l-.6-.5-.1-1v-3.3H.2V-5l.7-.5.4-1h.5v1h1.5v.8H1.8v3.1c0 .3 0 .6.2.7l.6.3Zm0 0"/>  <path id="f" d="M4-6.5c-.7 0-1.3.3-1.8.8-.4.5-.6 1.2-.6 2.1 0 1 .2 1.6.6 2.1.4.6 1 .8 1.8.8h1l.6-.3v.8L5 0H4c-.8 0-1.4 0-2-.2a2.8 2.8 0 0 1-1-1.4c-.3-.6-.4-1.2-.4-2 0-.7.1-1.3.4-1.9a3 3 0 0 1 1.2-1.3c.5-.2 1.1-.4 1.8-.4.8 0 1.5.1 2 .4l-.3.7-.8-.2a3 3 0 0 0-.9-.2Zm0 0"/>  <path id="e" d="M2.8 0C2 0 1.4 0 1-.5.7-1 .5-1.8.5-2.6c0-1.1.3-1.8.7-2.2.4-.5.8-.7 1.6-.7.4 0 .7.1 1 .3a2 2 0 0 1 .6.5v-2.8h.9V0h-.7l-.1-.7a2 2 0 0 1-.8.6l-.9.1Zm0-.5c.8-.1 1.1-.3 1.4-.6.1-.3.2-.8.2-1.4v-.2c0-.6 0-1.1-.3-1.5-.2-.4-.6-.5-1.2-.5-.5 0-.9.2-1 .5-.4.4-.5 1-.5 1.5.1.7.1 1.2.4 1.5.3.4.6.6 1 .6Zm.1-.1"/>  <path id="d" d="M1.3-7.4c.1 0 .3 0 .4.2l.1.4-.1.4-.4.2-.4-.3-.1-.3.1-.4.4-.2Zm.4 2V0H.8v-5.4Zm0 0"/>  <path id="c" d="M3.4-5.5c.7 0 1.2.3 1.6.7.4.5.6 1.2.6 2.1 0 1-.2 1.7-.6 2-.4.7-1 .9-1.6.9-.4-.2-.8-.2-1-.3l-.7-.6v3.1H.8v-7.8h.8v.8h.2c.2-.4.3-.5.6-.6.2-.2.6-.3 1-.3Zm-.2.8c-.5 0-.9.1-1.1.5-.2.2-.4.7-.4 1.2v.3c0 .7.1 1.2.3 1.5.3.4.7.6 1.3.6.3 0 .6-.1.7-.4l.5-.6.2-1.1c0-.6-.1-1.1-.4-1.5-.2-.3-.6-.5-1-.5Zm0 0"/>  <path id="b" d="M2.9-5.5c.6 0 1.1.2 1.4.5.3.3.5.7.5 1.3V0h-.6L4-.8c-.3.3-.5.6-.8.8h-1c-.5 0-1 0-1.3-.3C.6-.5.5-.9.5-1.5c0-.5.2-1 .5-1.2.5-.3 1-.5 2-.5h.8v-.3c.2-.5.2-.8-.2-1l-.8-.2H2l-.7.5L1-5l1-.3.9-.2Zm1 2.9h-.8c-.6 0-1 .1-1.4.3-.1.3-.3.5-.3.8 0 .3 0 .5.2.7l.7.2c.5 0 .9-.1 1.2-.4.3-.2.4-.6.4-1Zm.1 0"/>  <path id="a" d="M3-7.1c.7 0 1.4.1 2 .5.2.3.4.8.4 1.5.1.4.1.7-.1 1l-.5.5-.7.4 2 3.2H5L3.2-3H1.9v3h-1v-7.1Zm-.2.7h-.9v2.7h1c.6 0 1.1-.1 1.3-.3.3-.3.4-.6.4-1 0-.6-.1-1-.4-1-.3-.4-.7-.5-1.3-.5Zm.1 0"/>  <path d="M1 0v-7.1h4V0Zm.4-.5h3.1v-6.1h-3Zm.1 0"/> </defs> <image xlink:href="svg/8/47_2.jpg" width="497" height="279"/> <path d="M3.7 2A1.7 1.7 0 1 1 .2 2a1.7 1.7 0 0 1 3.5 0zm0 0" style="fill:#fdfdfa;fill-opacity:1;fill-rule:nonzero;stroke:#3f3f35;stroke-width:.5;stroke-linecap:butt;stroke-linejoin:miter;stroke-miterlimit:4;stroke-opacity:1" transform="translate(257.14615,137.5901)"/> <path d="M238.6 128.4c1 0 1.6.2 2 .6.4.3.6.8.6 1.5 0 .4 0 .7-.2 1l-.5.5-.7.4 2 3.2h-1.1l-1.7-3h-1.4v3h-1v-7.2zm0 .8h-1v2.8h1c.6-.1 1-.2 1.4-.5.2-.2.3-.5.3-1 0-.4-.1-.8-.4-1-.3-.2-.7-.3-1.3-.3zm6.2.9c.6 0 1.1.2 1.4.5.3.3.5.7.5 1.3v3.7h-.6l-.2-.8-.9.7-.9.2c-.5 0-1.1-.1-1.3-.4-.3-.2-.4-.7-.4-1.2s.2-1 .6-1.1c.4-.4 1-.6 2-.6h.7v-.4c.1-.4.1-.7-.2-.9-.1-.1-.4-.1-.8-.1h-.7l-.8.4-.2-.8.8-.3 1-.3zm1 2.9h-.8c-.6 0-1 .1-1.3.3-.3.2-.4.5-.4.8 0 .3 0 .5.2.7l.8.2c.4 0 .7-.1 1-.4.5-.2.6-.6.6-1.2zm5.2-2.9c.5 0 1 .3 1.4.7.5.5.7 1.2.7 2.2 0 .9-.1 1.5-.6 1.9-.4.6-1 .9-1.6.9-.4-.1-.8-.1-.9-.4l-.8-.4v3h-.8v-7.8h.6l.2.8c.2-.3.4-.5.8-.6 0-.2.5-.4.9-.4zm-.3.9c-.5-.1-.9 0-1.1.3-.2.3-.3.8-.3 1.4v.3c0 .6 0 1.1.3 1.4.2.4.6.6 1.2.6.2 0 .6-.1.8-.3l.4-.7.2-1.1c0-.6-.1-1.1-.4-1.5-.2-.3-.6-.4-1-.4zM255 128.2s.2 0 .3.2l.2.4c0 .2 0 .2-.2.4l-.3.1-.4-.1-.2-.4.2-.4.4-.2zm.4 2v5.4h-.9v-5.4zm3.6 5.5c-.7 0-1.2-.2-1.6-.7-.4-.5-.6-1.2-.6-2 0-1 .2-1.8.6-2.3.4-.3 1-.6 1.6-.6.4 0 .7.1 1 .3a2 2 0 0 1 .7.5V128h.8v7.6h-.7l-.1-.7a2 2 0 0 1-.7.5c-.2.2-.6.3-1 .3zm.1-.7c.6 0 1-.2 1.2-.5.3-.3.4-.8.4-1.4v-.2c0-.6-.1-1.1-.4-1.5-.2-.4-.6-.5-1.2-.5-.4 0-.8.1-1 .5-.3.4-.4 1-.4 1.6 0 .6.1 1.1.4 1.4.2.4.6.6.9.6zm9.9-5.9c-.7 0-1.3.3-1.8.9-.4.4-.6 1.1-.6 2 0 1 .2 1.6.6 2.1.4.5 1 .9 1.8.9h1l.7-.5v.9l-.7.2h-1.1c-.7.1-1.4.1-1.9-.3a2.8 2.8 0 0 1-1-1.3c-.3-.6-.4-1.2-.4-2 0-.7.1-1.3.4-1.9a3 3 0 0 1 1.2-1.3c.5-.3 1.1-.4 1.8-.4.8 0 1.4.1 2 .4l-.3.7-.8-.2a3 3 0 0 0-.9-.3zm3.6-.9c.1 0 .4 0 .4.2v.8l-.4.1-.4-.1-.1-.4.1-.4.4-.2zm.5 2v5.4H272v-5.4zm3.4 4.8h.5l.3-.2v.7l-.4.1h-1.3l-.6-.6-.2-1v-3h-.7v-.5l.7-.4.4-1.1h.5v1.2h1.5v.8h-1.5v3c0 .3 0 .6.2.7l.6.3zm1-4.8h1l1.1 3 .4.8v.7l.3-.6c0-.3.2-.5.3-.8l1-3h1.1l-2.4 5.9c-.2.6-.4 1.1-.7 1.3-.3.3-.7.5-1.2.5h-.5l-.3-.1v-.7h.6c.3.1.6.1.8-.2l.4-.7.3-.7zm0 0" style="fill:none;stroke:#fff;stroke-width:3;stroke-linecap:butt;stroke-linejoin:round;stroke-miterlimit:10;stroke-opacity:.6" transform=" rotate(  340 260.895 139.59) "/> <g style="fill:#212121;fill-opacity:1" transform=" rotate(  340 260.895 139.59) ">  <use xlink:href="#a" x="235.7" y="135.6"/>  <use xlink:href="#b" x="241.9" y="135.6"/>  <use xlink:href="#c" x="247.5" y="135.6"/>  <use xlink:href="#d" x="253.7" y="135.6"/>  <use xlink:href="#e" x="256.2" y="135.6"/>  <use xlink:href="#glyph0-6" x="262.4" y="135.6"/>  <use xlink:href="#f" x="265" y="135.6"/>  <use xlink:href="#d" x="271.3" y="135.6"/>  <use xlink:href="#g" x="273.9" y="135.6"/>  <use xlink:href="#h" x="277.5" y="135.6"/> </g> <path d="M3.8 2A1.7 1.7 0 1 1 .3 2a1.7 1.7 0 0 1 3.5 0zm0 0" style="fill:#fdfdfa;fill-opacity:1;fill-rule:nonzero;stroke:#3f3f35;stroke-width:.5;stroke-linecap:butt;stroke-linejoin:miter;stroke-miterlimit:4;stroke-opacity:1" transform="translate(43.240499,109.41066)"/> <path d="M20.8 103.6h2.5v3.5a8.4 8.4 0 0 1-2.5.4c-.7 0-1.4-.1-1.8-.4a3 3 0 0 1-1.2-1.3c-.3-.6-.4-1.2-.4-2 0-.7.1-1.3.4-1.8a3 3 0 0 1 1.3-1.4c.5-.3 1.2-.4 1.9-.4h1.2a5 5 0 0 1 1 .5l-.2.7a7.4 7.4 0 0 0-1-.4h-1c-.8 0-1.5.2-2 .7-.4.5-.7 1.3-.7 2.1 0 .6.1 1.2.3 1.5.2.5.4.8.9 1 .4.4.9.5 1.5.5a5.7 5.7 0 0 0 1.4-.2v-2.2h-1.6zm4.6-3.6s.2 0 .3.2l.3.4c-.1.2-.1.3-.3.4l-.3.2c-.2 0-.4 0-.4-.2l-.2-.4c0-.2 0-.3.2-.4l.4-.2zm.4 2v5.5h-.9v-5.4zm2.6 5.4h-1v-7.6h1.1zm2.6 0h-1v-7.6h1zm3.7-5.4c.5 0 .9 0 1.3.3a2 2 0 0 1 .7.7l.2 1.4v.5h-3.6c0 .6.1 1 .3 1.4.4.3.8.5 1.4.5l.9-.1.8-.3v.8l-.8.2a5 5 0 0 1-1 .1 3 3 0 0 1-1.3-.3 2.2 2.2 0 0 1-1-1c0-.2-.2-.7-.2-1.3-.1-.7 0-1.2.2-1.6.2-.5.5-.8.9-1 .3-.2.7-.3 1.2-.3zm0 .7c-.4 0-.7.1-1 .3-.2.3-.4.7-.4 1.2H36c0-.4-.1-.8-.3-1.1-.2-.3-.7-.4-1-.4zm5.3 4.1h.6l.2-.1v.6l-.4.2H40l-.9-.1-.5-.5c-.2-.3-.2-.6-.2-1v-3.3h-.8v-.3l.8-.3.3-1.2h.5v1.3h1.6v.6h-1.6v3.1c0 .4.1.6.3.8l.5.2zm3.7 0h.3l.4-.1v.6l-.4.2h-.5l-.8-.1-.4-.5c-.3-.3-.3-.6-.3-1v-3.3h-.8v-.3l.8-.3.3-1.2h.5v1.3h1.6v.6h-1.6v3.1c0 .4.2.6.3.8l.6.2zm3.9-4.8c.4 0 .8 0 1.1.3a2 2 0 0 1 .8.7c.2.5.3.9.3 1.4v.5H46c.1.6.3 1 .6 1.4.3.3.7.5 1.2.5l1-.1.6-.3v.8l-.7.2a5 5 0 0 1-1 .1 3 3 0 0 1-1.2-.3 2.2 2.2 0 0 1-1-1c-.2-.2-.3-.7-.3-1.3 0-.7.1-1.2.3-1.6.2-.5.5-.8.8-1 .4-.2.8-.3 1.3-.3zm0 .7c-.6 0-.8.1-1 .3-.3.3-.4.7-.6 1.2h3c-.1-.4-.2-.8-.5-1.1-.2-.3-.5-.4-1-.4zm0 0" style="fill:none;stroke:#fff;stroke-width:3;stroke-linecap:butt;stroke-linejoin:round;stroke-miterlimit:10;stroke-opacity:.6" transform="rotate(  340 46.9923 111.41) translate(11.703216)"/> <g style="fill:#212121;fill-opacity:1" transform=" rotate(  340 46.9923 111.41) ">  <use xlink:href="#i" x="28.5" y="107.4"/>  <use xlink:href="#d" x="35.8" y="107.4"/>  <use xlink:href="#j" x="38.3" y="107.4"/>  <use xlink:href="#j" x="40.9" y="107.4"/>  <use xlink:href="#k" x="43.5" y="107.4"/>  <use xlink:href="#g" x="49.1" y="107.4"/>  <use xlink:href="#g" x="52.8" y="107.4"/>  <use xlink:href="#k" x="56.4" y="107.4"/> </g></svg>