<svg xmlns="http://www.w3.org/2000/svg" xmlns:xlink="http://www.w3.org/1999/xlink" viewBox="0 0 497 279"> <defs>  <path d="M3.8 2C3.8 3 3 3.8 2 3.8A1.7 1.7 0 1 1 3.8 2zm0 0" style="fill:#fdfdfa;fill-opacity:1;fill-rule:nonzero;stroke:#3f3f35;stroke-width:.5;stroke-linecap:butt;stroke-linejoin:miter;stroke-miterlimit:4;stroke-opacity:1" id="reuse-0"/> </defs> <defs overflow="visible" style="stroke:none">  <path id="r" d="M3.3-5.5H4l-.1 1.1-.3-.3h-.3c-.3 0-.5 0-.8.2l-.5.7-.3 1V0H.8v-5.4h.8v1h.2l.6-.6c.3-.3.6-.5 1-.5Zm0 0"/>  <path id="q" d="M5.3-5.4V0h-.7l-.1-.7c-.3.3-.5.5-.9.6l-.9.2C2.1 0 1.6-.1 1.3-.4 1-.7.8-1.2.8-1.8v-3.6h.9v3.5c0 .8.3 1.3 1.2 1.3.6 0 1-.2 1.1-.5.3-.4.5-.9.5-1.5v-2.8Zm0 0"/>  <path id="p" d="M1.7-7.6v2.9l.7-.5c.2-.2.6-.3 1-.3.6 0 1.2.3 1.6.8.4.4.6 1.1.6 1.9C5.6-1.7 5.4-1 5-.6c-.4.6-1 .7-1.6.7-.4-.1-.8-.1-1-.2l-.7-.6-.2.7H.8v-7.6Zm1.5 2.9c-.5 0-1 .1-1.1.5-.3.2-.4.8-.4 1.5s.1 1.2.3 1.5c.3.4.7.6 1.3.6.4 0 .7-.2 1-.6.3-.3.4-.8.4-1.5 0-1.3-.5-2-1.5-2Zm0 0"/>  <path id="o" d="M0-5.4h1l1 3 .4 1 .2.6.2-.7c0-.3.2-.5.2-.8l1-3h1.2L2.8.6c-.2.6-.4 1.1-.7 1.4-.3.3-.7.4-1.3.4H.1v-.9h.6c.3.2.6.2.7 0L2 .7l.2-.7Zm0 0"/>  <path id="n" d="M9.2-7.1 7.2 0h-.7L5-4.7a30.2 30.2 0 0 1-.3-1v-.5l-.3.7-.1.8L2.9 0H2L.1-7.1h1L2-2.8c.4.3.4.6.5 1v.6A10.5 10.5 0 0 1 3-2.8l1.2-4.3H5l1.4 4.3.2 1 .2.6.1-.7.2-.9 1.1-4.3Zm0 0"/>  <path id="m" d="M3.4-5.5c.7 0 1.2.2 1.6.5.2.3.4.8.4 1.5V0h-.9v-3.4c0-.9-.4-1.3-1.2-1.3-.6 0-1 .1-1.2.5-.3.2-.4.8-.4 1.4V0H.8v-5.4h.8v.8h.2c.2-.4.3-.5.7-.7l1-.2Zm0 0"/>  <path id="k" d="M2 0 0-5.4h1l1 3.2.4.5v.5l.1.4.2-.4a16 16 0 0 1 .3-1l1.1-3.2h1L3 0Zm0 0"/>  <path id="i" d="M2.6-.6H3l.4-.2v.7L3 0H1.7l-.6-.5-.1-1v-3.3H.2V-5l.7-.5.4-1h.5v1h1.5v.8H1.8v3.1c0 .3 0 .6.2.7l.6.3Zm0 0"/>  <path id="g" d="M5 0H1v-7.1h4v.8H1.9v2.2h2.9v.8h-3v2.5H5Zm0 0"/>  <path d="m5.2 0-.9-3A18 18 0 0 1 4-4.5 34.3 34.3 0 0 1 3.5-3l-1 3h-.9L.2-5.4h.9l.6 2.9A40 40 0 0 1 2-1l.3-.3.1-.5a6 6 0 0 1 .1-.5l1-3h1l.7 2.9.3.8.2.6.3-.6v-1l.8-2.7h1L6.3 0Zm0 0"/>  <path id="l" d="M2.9-5.5c.6 0 1.1.2 1.4.5.3.3.5.7.5 1.3V0h-.6L4-.8c-.3.3-.5.6-.8.8h-1c-.5 0-1 0-1.3-.3C.6-.5.5-.9.5-1.5c0-.5.2-1 .5-1.2.5-.3 1-.5 2-.5h.8v-.3c.2-.5.2-.8-.2-1l-.8-.2H2l-.7.5L1-5l1-.3.9-.2Zm1 2.9h-.8c-.6 0-1 .1-1.4.3-.1.3-.3.5-.3.8 0 .3 0 .5.2.7l.7.2c.5 0 .9-.1 1.2-.4.3-.2.4-.6.4-1Zm.1 0"/>  <path d="m0 2-.5-.2h-.3V1h.4l.3.2.5-.2C.6 1 .7.8.8.7L.9 0v-7.1H2v7c-.2.7-.5 1.1-.8 1.5C1 1.7.5 2 0 2Zm0 0"/>  <path id="j" d="M3-5.5c.3 0 .7.1 1 .3a2 2 0 0 1 1 .9v1.8H1.5c0 .5.1 1 .4 1.4.3.3.7.4 1.3.4H4l.9-.3v.8L4 0a5 5 0 0 1-1 0 3 3 0 0 1-1.2-.1 2.2 2.2 0 0 1-1-1.1c0-.2-.2-.8-.2-1.3-.1-.7 0-1.2.2-1.6.2-.5.5-.9.9-1 .3-.2.7-.4 1.2-.4Zm0 .8c-.6 0-.9.1-1 .4-.4.2-.6.6-.6 1.1h2.8c0-.5-.1-.8-.3-1.1-.2-.3-.5-.4-1-.4Zm0 0"/>  <path id="h" d="M4.3-1.5c0 .5-.2 1-.5 1.2-.4.3-1 .4-1.6.4l-1-.1-.7-.2V-1l.8.3h1.8l.4-.7-.1-.4L3-2a7.5 7.5 0 0 0-.8-.4 7.5 7.5 0 0 1-1-.4l-.4-.5L.5-4c0-.5.2-.8.6-1 .3-.4.8-.6 1.4-.6l1 .2a4 4 0 0 1 .6.4l-.1.6-.8-.2-.7-.1-.9.1c-.2.2-.3.3-.3.6s0 .2.2.3l.4.3.8.3.9.4.4.5c.3.2.3.4.3.7Zm0 0"/>  <path d="M5.5-2.7c0 .9-.2 1.7-.7 2-.4.7-1 .9-1.8.9-.5-.2-.9-.2-1.3-.4-.3-.2-.6-.6-.7-1C.6-1.6.5-2 .5-2.7c0-.9.3-1.6.7-2 .5-.5 1-.8 1.8-.8.5 0 1 .2 1.3.5.4 0 .7.4.9.9.2.2.3.7.3 1.3Zm-4 0c0 .7 0 1.2.3 1.5.3.4.7.6 1.2.6.6 0 1-.2 1.2-.6.3-.3.4-.8.4-1.5s-.1-1.1-.4-1.5c-.2-.3-.6-.5-1.2-.5-.5 0-1 .2-1.2.5-.2.4-.3.9-.3 1.5ZM4.1 0 1.8-6.3V0H1v-7.1h1.3l2.2 5.8 2.3-5.8H8V0h-.8v-6.2L5 0ZM1 0v-7.1h4V0Zm.4-.5h3.1v-6.1h-3Zm.1 0"/>  <path id="f" d="M3.5-6.5c.7 0 1.3.1 1.7.5.4.3.6.9.6 1.6V0H5l-.2-1c-.4.5-.7.8-1.1 1H2.6C2 .1 1.6 0 1-.3.7-.6.5-1.1.5-1.8c0-.6.3-1.1.8-1.5.5-.3 1.3-.5 2.3-.5h1.1v-.6c0-.4 0-.8-.3-.9-.4-.4-.6-.5-1-.5a3 3 0 0 0-1 .3c-.3 0-.6.2-.8.3L1.3-6l1-.4 1.2-.1Zm1.2 3.4h-1c-.7 0-1.2.1-1.5.4-.4.2-.6.5-.6 1 0 .2.1.5.4.7.2.2.5.3.8.3.6 0 1-.3 1.4-.5.3-.3.5-.7.5-1.4Zm0 0"/>  <path id="e" d="M4.1-6.5c.9 0 1.4.1 1.7.5.4.4.6 1 .6 1.8V0h-1v-4.1c0-1-.4-1.6-1.4-1.6-.8 0-1.2.2-1.5.7-.3.3-.5 1-.5 1.7V0H1v-6.4h.8l.2.8 1-.7c.3-.2.7-.2 1-.2Zm0 0"/>  <path id="d" d="m1.6-8.8.4.1.2.5c0 .2 0 .4-.2.5l-.4.2c-.2 0-.4 0-.6-.2v-.5c0-.2 0-.4.1-.5l.5-.1ZM2-6.4V0H1v-6.4Zm0 0"/>  <path id="c" d="M3.3-6.5c.4 0 .8 0 1.1.2.4.1.7.3 1 .7l.1-.8h.9V0c0 1.1-.4 1.7-.7 2.1-.5.6-1.2.9-2.2.9-1-.1-1.7-.3-2.3-.5v-1c.6.3 1.4.5 2.3.5.6 0 1-.2 1.3-.5.4-.3.5-.8.5-1.3V-1c-.4.8-1 1.1-2 1.1-.8 0-1.5-.3-2-.8C1-1.4.8-2.1.8-3.3c-.1-.9.1-1.7.6-2.3.4-.6 1-1 1.9-1Zm.1.8c-.4 0-1 .3-1.2.7-.3.4-.5 1-.5 1.8s.3 1.4.6 1.8c.2.4.6.6 1.2.6.5 0 1 0 1.4-.5.3-.3.4-.9.4-1.7v-.2c0-.9-.1-1.5-.3-1.9-.4-.4-1-.6-1.6-.6Zm0 0"/>  <path id="b" d="M3.5-6.5c.6 0 1 0 1.4.3l1.1 1c0 .5.1 1 .1 1.6v.6H1.7c.1.7.3 1.3.7 1.7.3.3.8.5 1.4.5h1l1.1-.5v1c-.3.2-.6.3-1 .3l-1 .1A3.4 3.4 0 0 1 2-.2a2.6 2.6 0 0 1-.9-1.2c-.4-.4-.5-1-.5-1.8.1-.7.1-1.3.4-1.8s.6-.9 1-1c.4-.4 1-.5 1.5-.5Zm0 .8c-.5 0-1 .2-1.2.5-.3.3-.5.8-.5 1.3H5c0-.5 0-1-.3-1.3-.3-.3-.7-.5-1.2-.5Zm0 0"/>  <path id="a" d="M3.5-8.6c1 0 1.9.2 2.5.6.4.4.6 1 .6 2 0 .3 0 .7-.2 1a2 2 0 0 1-.7.7l-.7.5L7.3 0H6L4-3.5H2.2V0h-.9v-8.6Zm0 1H2.2v3.1h1.3c.7 0 1.2 0 1.5-.4.4-.1.5-.6.5-1.1 0-.6-.1-1-.5-1.3-.3-.2-.8-.3-1.5-.3Zm0 0"/>  <path d="M1.1 0v-8.6h5V0Zm.6-.6h3.8V-8H1.7Zm0 0"/> </defs> <image xlink:href="svg/8/47_5.jpg" width="497" height="279"/> <path d="M5.6 3A2.6 2.6 0 1 1 .4 3a2.6 2.6 0 0 1 5.2 0zm0 0" style="fill:#f8f8f5;fill-opacity:1;fill-rule:nonzero;stroke:#6e6e59;stroke-width:.8;stroke-linecap:butt;stroke-linejoin:miter;stroke-miterlimit:4;stroke-opacity:1" transform="translate(118.28064,41.962074)"/> <path d="M105.4 31.4c1 0 1.8.2 2.3.6.5.4.8 1 .8 1.8 0 .5 0 .9-.3 1.2a2 2 0 0 1-.6.7l-.8.4L109 40h-1l-2.2-3.6h-1.7V40h-1v-8.6zm0 1H104v3h1.4c.6.1 1.2 0 1.5-.3.3-.3.5-.7.5-1.2 0-.6-.2-1-.5-1.2-.4-.2-.9-.4-1.6-.4zm7.4 1c.6 0 1 .1 1.4.4.4.2.8.6 1 1 .1.4.2 1 .2 1.5v.7H111c0 .7.3 1.2.6 1.6.4.4.9.6 1.5.6l1.1-.2 1-.3v1l-1 .3h-1.1a3.4 3.4 0 0 1-1.6-.2 2.6 2.6 0 0 1-1.1-1.2c-.4-.5-.4-1-.4-1.8s0-1.3.3-1.8.7-1 1-1.2c.5-.2 1-.4 1.5-.4zm0 .9c-.5 0-.9.1-1.2.5-.3.2-.5.7-.5 1.2h3.3c0-.4-.2-.9-.4-1.2-.3-.4-.7-.5-1.2-.5zm6.6-.9c.4 0 .8 0 1.1.2.5.2.7.5.9.8l.3-.9h.7v6.6c0 .9-.2 1.6-.7 1.9-.4.6-1.2.8-2.1.8-1 0-1.8-.1-2.4-.4v-1c.8.5 1.5.6 2.4.6.6 0 1-.2 1.4-.5.2-.3.4-.8.4-1.5v-.9c-.4.7-1.1 1-2 1-.8-.1-1.5-.3-2-.9-.4-.6-.7-1.4-.7-2.4s.3-1.9.7-2.5c.6-.6 1.2-.9 2-.9zm.1.9c-.5 0-1 .2-1.2.6-.3.5-.5 1.1-.5 1.9 0 .8.2 1.4.5 1.8.3.4.7.6 1.3.6.6 0 1-.2 1.4-.5.3-.3.4-1 .4-1.7v-.2c0-1-.1-1.6-.4-2-.3-.2-.8-.4-1.5-.4zm5.5-3.2c.2 0 .3 0 .4.2.2 0 .2.3.2.5s0 .4-.2.5l-.4.2c-.2 0-.3 0-.4-.2l-.2-.5c0-.2 0-.4.2-.5l.4-.3zm.5 2.4V40h-1v-6.5zm5.2-.1c.7 0 1.3.2 1.7.6.4.3.6 1 .6 1.8V40h-1v-4.1c0-1-.5-1.6-1.5-1.6-.7 0-1.2.2-1.5.6-.2.4-.4 1-.4 1.7V40h-1v-6.5h.8l.2.9c.4-.3.6-.6 1.1-.7.1-.2.5-.3.8-.3zm6.7 0c.8 0 1.4.2 1.8.6.3.3.5 1 .5 1.6V40h-.7l-.2-1c-.5.5-.8.8-1.1.9-.2.1-.6.2-1.1.2-.6-.1-1.1-.2-1.6-.5-.3-.3-.5-.8-.5-1.4 0-.7.3-1.2.8-1.5.5-.4 1.3-.6 2.3-.6h1.1v-.4c0-.5-.1-.9-.3-1.1-.4-.2-.6-.3-1-.3a3 3 0 0 0-1 .1l-.8.4-.4-.8 1-.4 1.2-.2zm1.3 3.4h-1c-.7.1-1.3.2-1.6.5-.3.2-.5.5-.5.9 0 .3.1.6.4.8l.8.2c.5 0 1-.1 1.2-.4.5-.3.7-.8.7-1.4zm0 0" style="fill:none;stroke:#fff;stroke-width:3;stroke-linecap:butt;stroke-linejoin:round;stroke-miterlimit:10;stroke-opacity:.6" transform=" rotate(  340 123.879 44.9609) "/> <g style="fill:#212121;fill-opacity:1" transform=" rotate(  340 123.879 44.9609) ">  <use xlink:href="#a" x="101.9" y="40"/>  <use xlink:href="#b" x="109.3" y="40"/>  <use xlink:href="#c" x="116.1" y="40"/>  <use xlink:href="#d" x="123.5" y="40"/>  <use xlink:href="#e" x="126.6" y="40"/>  <use xlink:href="#f" x="134" y="40"/> </g> <use style="fill:#fdfdfa;fill-opacity:1;fill-rule:nonzero;stroke:#3f3f35;stroke-width:.5;stroke-linecap:butt;stroke-linejoin:miter;stroke-miterlimit:4;stroke-opacity:1" transform="translate(280.59285,237.80774)" xlink:href="#reuse-0"/> <path d="M269.4 256.7h-4v-7.1h4v.8h-3v2.2h2.7v.8h-2.8v2.5h3.1zm5-1.5c0 .5-.2 1-.6 1.2-.4.3-1 .4-1.6.4l-1-.1-.6-.2v-.8c.2 0 .4.2.7.3h1.9l.2-.7v-.4l-.4-.3a7.6 7.6 0 0 0-.8-.3 7.5 7.5 0 0 1-.9-.4l-.6-.5-.2-.7c0-.5.2-.8.6-1 .4-.4.8-.6 1.4-.6l1 .2a4 4 0 0 1 .8.3l-.3.7-.8-.3h-1.6l-.2.6v.4c.3 0 .4.2.6.3l.8.3.8.4.6.5.2.7zm3 .8h.8v.6l-.4.1h-1.3l-.5-.5-.3-1V252h-.7v-.4l.7-.4.4-1h.5v1h1.6v.8h-1.6v3.1c0 .3 0 .6.2.7l.6.3zm3.9-4.8c.5 0 .9.1 1.2.3a2 2 0 0 1 .8.9c.2.4.2.8.2 1.3v.5H280c-.1.6 0 1 .3 1.4.3.3.8.4 1.3.4h.9l.8-.4v.8c-.3.2-.5.3-.8.3a5 5 0 0 1-1 0 3 3 0 0 1-1.3-.1 2.2 2.2 0 0 1-1-1.1l-.2-1.3c0-.7 0-1.2.3-1.6.2-.6.4-.8.7-1 .4-.2.9-.4 1.3-.4zm0 .8c-.3 0-.7 0-1 .4-.2.2-.3.6-.3 1.1h2.6c0-.5 0-.8-.3-1.1-.2-.4-.5-.4-1-.4zm4.6 4.7-2-5.4h.9l1.1 3.2.2.5.2.5v.5h.2v-.5a16 16 0 0 1 .5-1l1-3.2h1l-2 5.4zm5.9-5.5c.7 0 1.2.2 1.5.5.3.3.4.7.4 1.3v3.7h-.6l-.2-.8c-.3.3-.5.6-.9.7l-.9.2c-.5 0-.9-.1-1.2-.4-.3-.2-.5-.6-.5-1.2 0-.5.2-1 .6-1.2.4-.3 1-.5 2-.5h.9v-.3c0-.5-.1-.8-.3-1l-.8-.2h-.8l-.7.5-.3-.8.8-.3 1-.2zm1 2.9h-.6c-.8 0-1.3.1-1.5.3-.3.2-.4.6-.4.8 0 .3.1.5.3.8h.7c.4 0 .7 0 1.1-.3.3-.2.6-.6.6-1.1zM298 251.2c.6 0 1 .2 1.4.5.4.3.6.8.6 1.5v3.5h-1v-3.4c0-.9-.4-1.3-1.2-1.3-.6 0-1 0-1.2.5-.2.3-.3.8-.3 1.4v2.8h-1v-5.4h.9v.8l.8-.7 1-.2zm0 0" style="fill:none;stroke:#fff;stroke-width:3;stroke-linecap:butt;stroke-linejoin:round;stroke-miterlimit:10;stroke-opacity:.6" transform="rotate(  340 284.344 239.809) translate(0,-5.8516082)"/> <g style="fill:#212121;fill-opacity:1" transform=" rotate(  340 284.344 239.809) ">  <use xlink:href="#g" x="264.5" y="250.8"/>  <use xlink:href="#h" x="270" y="250.8"/>  <use xlink:href="#i" x="274.8" y="250.8"/>  <use xlink:href="#j" x="278.4" y="250.8"/>  <use xlink:href="#k" x="283.9" y="250.8"/>  <use xlink:href="#l" x="288.9" y="250.8"/>  <use xlink:href="#m" x="294.5" y="250.8"/> </g> <use style="fill:#fdfdfa;fill-opacity:1;fill-rule:nonzero;stroke:#3f3f35;stroke-width:.5;stroke-linecap:butt;stroke-linejoin:miter;stroke-miterlimit:4;stroke-opacity:1" transform="translate(195.29245,163.38217)" xlink:href="#reuse-0"/> <path d="m185.3 154.2-1.9 7.2h-.9l-1.4-4.7-.1-.6-.2-.5v-.3l-.1.6-.3.8-1.3 4.7H178l-1.6-7.2h.9l.9 4.4.3 1 .2.6a10.5 10.5 0 0 1 .3-1.6l1.3-4.4h1l1.1 4.4.4.9.1.8.2-.8.2-1 1-4.2zm2.9 1.8c.4 0 .8 0 1.1.1a2 2 0 0 1 .8 1c.2.3.3.8.3 1.2v.7h-3.7c0 .5.3.9.5 1.3.3.3.7.4 1.2.4h1l.6-.4v.7c0 .3-.4.3-.7.4a5 5 0 0 1-1 0 3 3 0 0 1-1.3-.1 2.2 2.2 0 0 1-.9-1.1c-.1-.3-.3-.8-.3-1.4l.3-1.6.8-1c.4-.2.8-.2 1.3-.2zm0 .5c-.5.1-.8.3-1 .6-.3.2-.4.6-.5.9h2.8c0-.2-.1-.5-.5-.8 0-.4-.4-.6-.9-.6zm2.5-.5h1l1 3 .4.9.2.6.2-.5c0-.4.2-.7.3-1l1-3h1l-2.3 6c-.2.6-.5 1.1-.7 1.3-.3.3-.8.5-1.3.5h-.4l-.3-.1v-.7h.6c.3 0 .5 0 .6-.1l.6-.8.3-.7zm6.8-2.2v2.9l.7-.5c.2-.2.6-.3 1-.3.6.1 1.2.3 1.6.7.4.5.6 1.2.6 2.1 0 1-.2 1.6-.6 2-.4.7-1 .9-1.6.9l-1-.3-.7-.6-.3.7h-.6v-7.6zm1.5 2.9c-.5 0-1 .1-1 .5-.4.3-.5.8-.5 1.5s.1 1.3.3 1.5c.3.4.7.6 1.3.6.4 0 .8-.2.9-.6.4-.2.5-.8.5-1.5 0-1.4-.5-2-1.5-2zm8.3-.7v5.4h-.7l-.2-.7c-.2.3-.4.5-.7.6l-1 .2c-.7 0-1.2-.2-1.5-.5-.2-.3-.5-.8-.5-1.5V156h1v3.5c-.1.8.3 1.3 1 1.3s1.1-.2 1.4-.5c.2-.4.3-.9.3-1.5V156zm4.2 0h.5v.8h-.6c-.3-.1-.4-.1-.8.2-.2 0-.4.3-.5.6-.2.2-.2.6-.2 1v2.7h-1V156h.9v1h.1l.6-.7c.3-.3.6-.4 1-.4zm4.2 0c.6 0 1.1 0 1.3.3.5.4.6.9.6 1.6v3.5h-.8v-3.5c0-.8-.4-1.2-1.2-1.2-.6 0-1 .1-1.3.5-.2.3-.3.8-.3 1.4v2.8h-1V156h.8l.2.8.8-.8h.9zm0 0" style="fill:none;stroke:#fff;stroke-width:3;stroke-linecap:butt;stroke-linejoin:round;stroke-miterlimit:10;stroke-opacity:.6" transform=" rotate(  340 199.043 165.383) "/> <g style="fill:#212121;fill-opacity:1" transform=" rotate(  340 199.043 165.383) ">  <use xlink:href="#n" x="176.2" y="161.4"/>  <use xlink:href="#j" x="185.3" y="161.4"/>  <use xlink:href="#o" x="190.7" y="161.4"/>  <use xlink:href="#p" x="195.8" y="161.4"/>  <use xlink:href="#q" x="201.9" y="161.4"/>  <use xlink:href="#r" x="208.1" y="161.4"/>  <use xlink:href="#m" x="212.3" y="161.4"/> </g></svg>