<svg xmlns="http://www.w3.org/2000/svg" xmlns:xlink="http://www.w3.org/1999/xlink" viewBox="0 0 497 279"> <defs>  <path d="M1 0v-7.1h4V0Zm.4-.5h3.1v-6.1h-3Zm.1 0" id="reuse-0"/> </defs> <defs overflow="visible" style="stroke:none">  <path id="m" d="M2.4 0c-.6 0-1 0-1.4-.3C.6-.8.5-1.3.5-2c0-.3 0-.8.2-1.2 0-.4.3-.8.5-1.1.2-.4.5-.7.8-.8a2 2 0 0 1 1.2-.4c.5 0 .8.2 1.1.5.3 0 .4.4.4.8 0 .3-.1.7-.3 1-.4.2-.6.4-1 .6-.6.2-1.2.3-1.9.3h-.1v.3c0 .5 0 .8.3 1 .2.3.5.4.9.4l.7-.1A5 5 0 0 0 4-1v.7a6 6 0 0 1-.7.3h-.9Zm-.9-3 1.3-.1.7-.4c.2-.1.3-.4.3-.5l-.1-.6-.7-.1c-.2 0-.5.1-.9.4L1.6-3Zm0 0"/>  <path id="l" d="m1.9 2.4-1-.1-.6-.2v-.9c.2.2.5.2.7.4a3 3 0 0 0 .8.1c.4 0 .8-.1 1-.3.3-.2.5-.6.6-1l.1-.4.1-.5.1-.5-.8.8c-.3.2-.6.2-.9.2s-.8-.1-1-.4C.6-.7.5-1 .5-1.7c0-.5 0-1 .2-1.4 0-.5.3-.9.5-1.2.2-.4.5-.7.8-.8a2 2 0 0 1 1.1-.4c.4 0 .7.1.9.3l.5.7.3-.9h.7L4.3.3c-.2.8-.5 1.3-.9 1.7-.4.2-1 .4-1.4.4Zm.3-3c.3 0 .5-.1.8-.4l.5-.5.5-1 .2-1.1c0-.4-.2-.6-.3-.8-.1-.2-.4-.3-.7-.3-.3 0-.5 0-.7.2-.3.2-.5.5-.6.7l-.4 1-.1 1.1c0 .7.3 1 .8 1Zm0 0"/>  <path id="k" d="m.2 0 1.2-5.4h.8l-.2 1 .5-.6a2 2 0 0 1 .6-.3l.9-.2c.3 0 .6.1.9.5.1 0 .4.4.4.9v.4l-.2.5L4.4 0h-.9l.7-3.4v-.4l.2-.2c-.1-.5-.3-.7-.8-.7-.2 0-.4 0-.6.2-.3.2-.6.5-.8.8-.2.3-.4.8-.5 1.4L1.2 0Zm0 0"/>  <path id="j" d="M2.5 0C1.9 0 1.4 0 1-.4.7-.8.5-1.3.5-2l.1-1.2a4 4 0 0 1 .5-1.1c.3-.3.5-.7.9-.8.3-.2.7-.3 1.2-.3.6 0 1 .2 1.4.4.4.5.6 1.1.6 1.6L5-2a4 4 0 0 1-.5.9c-.2.5-.5.8-.8 1L2.5 0Zm0-.6c.5-.1.6-.1 1-.4.1-.2.3-.5.5-1 .2-.3.3-.8.3-1.4L4.2-4a1 1 0 0 0-.4-.5l-.6-.2c-.4 0-.7.1-1 .4-.2.2-.5.6-.6 1A4 4 0 0 0 1.4-2c0 .5 0 .8.3 1 .2.2.5.3.8.3Zm0-.1"/>  <path id="i" d="M.4 0 2-7.1h1.5c1.5 0 2.2.6 2.2 1.8 0 .5-.1 1-.4 1.3-.3.4-.7.7-1.4.8L5.1 0H4l-.9-3H1.9l-.6 3Zm1.7-3.7h.8c.6 0 1.1-.1 1.4-.4.3-.3.5-.7.5-1.2 0-.4-.2-.7-.4-.7-.2-.3-.4-.4-1-.4h-.7Zm-.1 0"/>  <path id="h" d="M2.5 0C1.9 0 1.4 0 1-.3.7-.7.5-1.2.5-2c0-.4 0-1 .2-1.3l.5-1c.3-.5.6-.7 1-1 .2-.1.6-.2.9-.2l.9.1.6.2-.2.7-.5-.1-.6-.1c-.4 0-.7.1-1 .4-.3.2-.5.6-.7 1A4 4 0 0 0 1.4-2c0 .5 0 .8.3 1 .2.2.5.3.9.3h.6a7 7 0 0 0 .6-.3v.8l-.6.2h-.7Zm0 0"/>  <path id="g" d="M2 0c-.6 0-.9 0-1.2-.3C.6-.7.5-1 .5-1.7c0-.5 0-1 .2-1.5l.5-1.1c.2-.4.5-.7.8-.9a2 2 0 0 1 1.1-.3c.4 0 .6.1.9.3l.5.7.3-.9h.7L4.4 0h-.7l.1-1c-.3.3-.5.6-.9.8-.3.2-.6.2-.9.2Zm.1-.5c.4-.1.6-.2.9-.5l.6-.6a4 4 0 0 0 .4-1 3 3 0 0 0 .1-.7 4 4 0 0 0 0-.4c.1-.3.1-.5-.1-.7-.3-.2-.5-.3-.8-.3-.3 0-.5 0-.7.2a2 2 0 0 0-.6.7l-.4 1-.1 1.1c0 .4 0 .6.2.8.1.2.3.3.6.3Zm.1-.1"/>  <path id="f" d="M.4 0 2-7.1h1L1.4-.8h2.8L4 0Zm0 0"/>  <use xlink:href="#reuse-0"/>  <path id="e" d="M5.5-2.7c0 .9-.2 1.7-.7 2-.4.7-1 .9-1.8.9-.5-.2-.9-.2-1.3-.4-.3-.2-.6-.6-.7-1C.6-1.6.5-2 .5-2.7c0-.9.3-1.6.7-2 .5-.5 1-.8 1.8-.8.5 0 1 .2 1.3.5.4 0 .7.4.9.9.2.2.3.7.3 1.3Zm-4 0c0 .7 0 1.2.3 1.5.3.4.7.6 1.2.6.6 0 1-.2 1.2-.6.3-.3.4-.8.4-1.5s-.1-1.1-.4-1.5c-.2-.3-.6-.5-1.2-.5-.5 0-1 .2-1.2.5-.2.4-.3.9-.3 1.5Zm0 0"/>  <path id="d" d="M3.4-5.5c.7 0 1.2.2 1.6.5.2.3.4.8.4 1.5V0h-.9v-3.4c0-.9-.4-1.3-1.2-1.3-.6 0-1 .1-1.2.5-.3.2-.4.8-.4 1.4V0H.8v-5.4h.8v.8h.2c.2-.4.3-.5.7-.7l1-.2Zm0 0"/>  <path id="c" d="M1.3-7.4c.1 0 .3 0 .4.2l.1.4-.1.4-.4.2-.4-.3-.1-.3.1-.4.4-.2Zm.4 2V0H.8v-5.4Zm0 0"/>  <path id="b" d="M1.7 0H.8v-7.6h1Zm0 0"/>  <path id="a" d="M1.9 0h-1v-7.1H5v.8H2v2.5h2.8v.8h-3Zm0 0"/>  <use xlink:href="#reuse-0"/> </defs> <image xlink:href="svg/8/47_8.jpg" width="497" height="279"/> <path d="M3.7 2A1.7 1.7 0 1 1 .3 2a1.7 1.7 0 0 1 3.4 0zm0 0" style="fill:#fdfdfa;fill-opacity:1;fill-rule:nonzero;stroke:#3f3f35;stroke-width:.5;stroke-linecap:butt;stroke-linejoin:miter;stroke-miterlimit:4;stroke-opacity:1" transform="translate(390.90695,173.3263)"/> <path d="M375.2 171.3h-.9v-7.1h4v.8h-3v2.5h2.7v.8h-2.8zm5.1 0h-1v-7.6h1.1zm2.1-7.3h.4l.1.6-.1.4-.4.1c-.1-.1-.3-.1-.4-.2v-.8l.4-.1zm.4 2v5.3h-.8V166zm4.3-.1c.7 0 1.1.1 1.5.4.3.3.4.8.4 1.5v3.5h-1V168c.2-1-.1-1.4-1-1.4-.6 0-1 .2-1.2.5-.3.3-.4.9-.4 1.4v2.8h-.9V166h.8v.7h.2c.1-.3.3-.5.6-.6.4-.2.7-.2 1-.2zm7.2 5.4h-.9v-7.1h4v.8h-3v2.5h2.7v.8h-2.8zm5.1 0h-.9v-7.6h.9zm6.4-2.7c0 1-.3 1.6-.8 2.1-.4.5-1 .7-1.7.7-.5 0-1 0-1.3-.3-.4-.1-.7-.5-1-1-.1-.3-.2-.8-.2-1.4 0-.9.2-1.6.7-2.1.4-.6 1-.7 1.8-.7.5 0 .9 0 1.3.3.3.2.6.5.8 1 .2.2.4.8.4 1.3zm-4.1 0c0 .7.1 1.2.4 1.6.2.3.6.5 1.2.5.5 0 1-.2 1.2-.5.2-.4.3-1 .3-1.6 0-.6 0-1-.3-1.4-.3-.4-.7-.6-1.2-.6-.6 0-1 .2-1.3.6-.2.3-.3.8-.3 1.4zm8-2.7c.7 0 1.1.1 1.5.4.3.3.5.8.5 1.5v3.5h-1V168c.1-1-.2-1.4-1-1.4-.7 0-1.1.2-1.3.5-.4.3-.4.9-.4 1.4v2.8h-.9V166h.9v.7c.2-.3.4-.5.7-.6.4-.2.7-.2 1-.2zm0 0" style="fill:none;stroke:#fff;stroke-width:3;stroke-linecap:butt;stroke-linejoin:round;stroke-miterlimit:10;stroke-opacity:.6" transform=" rotate(  340 394.656 175.328) "/> <g style="fill:#212121;fill-opacity:1" transform=" rotate(  340 394.656 175.328) ">  <use xlink:href="#a" x="373.3" y="171.3"/>  <use xlink:href="#b" x="378.5" y="171.3"/>  <use xlink:href="#c" x="381.1" y="171.3"/>  <use xlink:href="#d" x="383.7" y="171.3"/>  <use xlink:href="#glyph0-5" x="389.9" y="171.3"/>  <use xlink:href="#a" x="392.5" y="171.3"/>  <use xlink:href="#b" x="397.7" y="171.3"/>  <use xlink:href="#e" x="400.2" y="171.3"/>  <use xlink:href="#d" x="406.3" y="171.3"/> </g> <path d="m72.5 113.5 1.6-7.1h.8l-1.3 6.3h2.7l-.1.8zm6.3.1c-.4 0-.7-.1-1-.5-.3-.3-.4-.7-.4-1.3 0-.5 0-1 .2-1.4l.4-1.2c.4-.4.6-.6 1-.8a2 2 0 0 1 1-.4c.4 0 .7 0 1 .3l.4.7.3-1h.7l-1.1 5.5h-.7l.1-1c-.3.3-.5.6-.9.8-.3.2-.6.3-1 .3zm.3-.7c.3 0 .5-.1.7-.3l.7-.6a4 4 0 0 0 .4-1.1 3 3 0 0 0 .1-.6 4 4 0 0 0 0-.3c0-.5 0-.7-.1-1-.3-.1-.5-.2-.8-.2-.1 0-.5 0-.7.2a2 2 0 0 0-.6.7l-.4 1-.1 1.1c0 .4 0 .6.2.8.1.2.4.4.6.4zm5.9.7c-.4 0-1-.2-1.3-.5-.4-.3-.6-.8-.6-1.5-.1-.5-.1-1 .2-1.4 0-.4.3-.8.5-1l.9-1c.4-.1.7-.1 1.2-.1h.7l.6.2-.3.7h-.4l-.6-.2c-.4 0-.7.1-1 .4-.3.2-.5.6-.7 1a4 4 0 0 0-.2 1.4c0 .4 0 .7.3 1 .2.2.5.3.9.3l.6-.1a7 7 0 0 0 .6-.2v.7l-.6.2-.7.1zm5.1-.1 1.5-7.1h1l-1.5 6.3h2.8l-.1.8zm6.3.1c-.4 0-.7-.1-1-.5-.4-.3-.4-.7-.4-1.3 0-.5 0-1 .2-1.4l.5-1.2c.3-.4.5-.6.8-.8a2 2 0 0 1 1.1-.4c.4 0 .7 0 .9.3l.5.7.3-1h.7l-1.1 5.5h-.7l.1-1c-.3.3-.5.6-1 .8-.2.2-.5.3-.9.3zm.3-.7c.3 0 .5-.1.7-.3l.7-.6a4 4 0 0 0 .4-1.1 3 3 0 0 0 .1-.6 4 4 0 0 0 0-.3c.1-.5.1-.7-.1-1-.3-.1-.5-.2-.8-.2-.3 0-.5 0-.7.2a2 2 0 0 0-.6.7l-.4 1v1.1c-.1.4-.1.6 0 .8.2.2.4.4.7.4zm-24.1 12.5 1.5-7h1.6c1.3-.1 2.2.4 2.2 1.6 0 .6-.2 1.1-.4 1.5-.3.3-.8.5-1.5.8l1.3 3.1h-1l-1-2.9H74l-.5 3zm1.7-3.7h.7c.7 0 1.2-.1 1.5-.4.3-.3.5-.7.5-1.1 0-.4-.2-.7-.4-.9l-1-.2h-.8zm6.1 3.8c-.6 0-1.1-.2-1.4-.5-.4-.4-.6-1-.6-1.5s0-.8.2-1.3a4 4 0 0 1 .4-1c.3-.5.6-.8.9-1 .3-.1.7-.2 1.2-.2.6 0 .9.2 1.4.6.5.3.6.9.6 1.4-.1.5-.1.9-.2 1.3a4 4 0 0 1-.5 1.1c-.2.4-.4.6-.8.8-.4.2-.7.3-1.2.3zm0-.7c.5 0 .8-.1 1.1-.3l.5-1 .2-1.5-.2-.6a1 1 0 0 0-.3-.5l-.6-.2c-.4 0-.7.3-1.1.4l-.5 1a4 4 0 0 0-.2 1.4c0 .4 0 .7.3 1 .2.2.4.3.9.3zm3.4.6 1.1-5.3h.8v.9c-.1-.2.1-.4.3-.6a2 2 0 0 1 .7-.3l.7-.1c.6 0 .8 0 1 .3.3.3.4.7.4 1v.9l-.8 3.2h-1l.9-3.3v-.7c0-.4-.2-.6-.6-.6-.3 0-.6 0-.8.2-.3.1-.5.4-.7.7-.3.4-.4.9-.6 1.4l-.5 2.3zm7.4 2.5c-.3 0-.6 0-1-.2-.2 0-.3 0-.5-.2v-.8l.6.3a3 3 0 0 0 .9 0c.4.1.7.1 1-.2.3-.2.4-.5.5-1l.1-.4.2-.4v-.5l-.7.7c-.3.2-.6.3-1 .3-.5 0-.8-.1-1-.4-.3-.3-.6-.8-.6-1.4.1-.5.1-1 .3-1.4l.5-1.2c.3-.3.5-.6.9-.8a2 2 0 0 1 1-.3c.4 0 .7 0 1 .3l.3.6.6-.8h.6l-1.3 5.7c-.1.7-.4 1.2-.8 1.6-.4.3-1 .5-1.6.5zm.4-3 .6-.4.8-.6.3-1 .2-.9c0-.6 0-.9-.2-1-.3-.2-.4-.3-.8-.3-.2 0-.5.1-.7.3l-.6.7-.4 1v1c-.1.8.2 1.1.7 1.1zm6 .6c-.7 0-1.2-.1-1.6-.5-.2-.4-.4-.8-.4-1.5 0-.4 0-.8.2-1.2l.5-1.3c.3-.2.5-.5.9-.7a2 2 0 0 1 1-.3c.7 0 1.1.1 1.3.3.2.2.3.7.3 1 0 .2 0 .5-.3.8-.2.4-.6.6-1 .8-.5.1-1 .1-1.8.1h-.2v.5c0 .4.1.7.3 1 .2.2.5.3 1 .3h.5a5 5 0 0 0 .9-.5v.9a6 6 0 0 1-.8.2l-.8.1zm-1-3h.1l1.1-.3c.4.1.6-.1.8-.2.4-.2.4-.4.4-.7l-.2-.3-.6-.3c-.2 0-.6.3-.9.5-.3.3-.5.7-.7 1.2zm0-.1" style="fill:none;stroke:#fff;stroke-width:2;stroke-linecap:butt;stroke-linejoin:round;stroke-miterlimit:10;stroke-opacity:.6" transform="rotate(  340 79.0229 124.753) translate(-7.0932203,8.2754237)"/> <g style="fill:#4c7fb3;fill-opacity:1" transform=" rotate(  340 79.0229 124.753) ">  <use xlink:href="#f" x="65" y="121.8"/>  <use xlink:href="#g" x="69.8" y="121.8"/>  <use xlink:href="#h" x="75.5" y="121.8"/>  <use xlink:href="#glyph1-4" x="80" y="121.8"/>  <use xlink:href="#f" x="82.6" y="121.8"/>  <use xlink:href="#g" x="87.4" y="121.8"/>  <use xlink:href="#i" x="65.1" y="133.7"/>  <use xlink:href="#j" x="70.8" y="133.7"/>  <use xlink:href="#k" x="76.5" y="133.7"/>  <use xlink:href="#l" x="82.2" y="133.7"/>  <use xlink:href="#m" x="88" y="133.7"/> </g></svg>