<svg xmlns="http://www.w3.org/2000/svg" xmlns:xlink="http://www.w3.org/1999/xlink" viewBox="0 0 497 279"> <defs>  <path d="M3.7 2A1.7 1.7 0 1 1 .2 2a1.7 1.7 0 0 1 3.5 0zm0 0" style="fill:#fdfdfa;fill-opacity:1;fill-rule:nonzero;stroke:#3f3f35;stroke-width:.5;stroke-linecap:butt;stroke-linejoin:miter;stroke-miterlimit:4;stroke-opacity:1" id="reuse-0"/>  <path d="M3.8 2C3.8 3 3 3.8 2 3.8A1.7 1.7 0 1 1 3.8 2zm0 0" style="fill:#fdfdfa;fill-opacity:1;fill-rule:nonzero;stroke:#3f3f35;stroke-width:.5;stroke-linecap:butt;stroke-linejoin:miter;stroke-miterlimit:4;stroke-opacity:1" id="reuse-1"/> </defs> <defs overflow="visible" style="stroke:none">  <path id="r" d="M5.5-2.7c0 .9-.2 1.7-.7 2-.4.7-1 .9-1.8.9-.5-.2-.9-.2-1.3-.4-.3-.2-.6-.6-.7-1C.6-1.6.5-2 .5-2.7c0-.9.3-1.6.7-2 .5-.5 1-.8 1.8-.8.5 0 1 .2 1.3.5.4 0 .7.4.9.9.2.2.3.7.3 1.3Zm-4 0c0 .7 0 1.2.3 1.5.3.4.7.6 1.2.6.6 0 1-.2 1.2-.6.3-.3.4-.8.4-1.5s-.1-1.1-.4-1.5c-.2-.3-.6-.5-1.2-.5-.5 0-1 .2-1.2.5-.2.4-.3.9-.3 1.5Zm0 0"/>  <path id="q" d="M2.1-2.7.3-5.4h1l1.4 2L4-5.3h1L3.2-2.7l2 2.7H4.1L2.6-2.1 1.2 0h-1Zm0 0"/>  <path id="p" d="M1 0v-7.1h.9v6.3h3V0Zm0 0"/>  <path id="o" d="M3 0c-.5 0-.9 0-1.3-.1-.3-.3-.6-.6-.7-.9-.4-.5-.5-1-.5-1.7 0-.6.2-1.1.5-1.5 0-.6.4-.8.8-1.1.2-.1.8-.2 1.2-.2l.8.1.7.2-.3.8-.6-.2H3c-1-.1-1.5.6-1.5 1.9 0 .7 0 1 .3 1.4.3.5.7.6 1.2.6h.8l.6-.3v.8a2 2 0 0 1-.6.2H3Zm0 0"/>  <path id="n" d="M1-7.1h2c1 0 1.6.1 2 .4.5.2.7.7.7 1.3 0 .5-.1.8-.3 1-.4.4-.6.6-1 .7l.8.3c.2 0 .4.2.5.5.3.2.3.5.3.9 0 .6-.3 1-.7 1.5-.5.3-1 .5-1.8.5H1Zm.9 3h1.3c.6.1 1 .1 1.3-.3.2-.2.3-.5.3-.9s-.1-.6-.4-.7c-.4-.3-.8-.4-1.4-.4H2Zm0 .8v2.5h1.4c.7 0 1 0 1.3-.2.4-.4.4-.7.4-1.1s-.1-.7-.4-.9c-.2-.2-.6-.3-1.4-.3Zm0 0"/>  <path id="m" d="m2.8-5.5.8.3a2 2 0 0 1 .8.4l.3-.6h.6V.1c0 .8-.2 1.3-.6 1.7-.4.4-1 .6-1.8.6S1.5 2.3 1 2.1v-.9c.6.4 1.3.6 2 .6.5-.1.9-.3 1-.5.3-.3.4-.7.4-1.1v-.9c-.3.5-.9.8-1.6.8C2 0 1.5-.1 1-.6c-.3-.5-.5-1.2-.5-2 0-1.1.2-1.7.6-2.2.4-.4 1-.7 1.6-.7Zm0 .8c-.3 0-.6.2-.9.5-.3.4-.4.9-.4 1.5 0 .7 0 1.2.3 1.7.3.2.6.4 1 .4.7 0 1.1-.2 1.4-.4.1-.3.2-.8.2-1.5v-.2c0-.7 0-1.2-.3-1.5-.3-.4-.7-.5-1.2-.5Zm.1 0"/>  <path id="j" d="M6.4 0h-.9v-3.3H2V0H.9v-7.1H2v3h3.5v-3h1Zm0 0"/>  <path id="i" d="M0-5.4h1l1 3 .4 1 .2.6.2-.7c0-.3.2-.5.2-.8l1-3h1.2L2.8.6c-.2.6-.4 1.1-.7 1.4-.3.3-.7.4-1.3.4H.1v-.9h.6c.3.2.6.2.7 0L2 .7l.2-.7Zm0 0"/>  <path id="g" d="M3-5.5c.3 0 .7.1 1 .3a2 2 0 0 1 1 .9v1.8H1.5c0 .5.1 1 .4 1.4.3.3.7.4 1.3.4H4l.9-.3v.8L4 0a5 5 0 0 1-1 0 3 3 0 0 1-1.2-.1 2.2 2.2 0 0 1-1-1.1c0-.2-.2-.8-.2-1.3-.1-.7 0-1.2.2-1.6.2-.5.5-.9.9-1 .3-.2.7-.4 1.2-.4Zm0 .8c-.6 0-.9.1-1 .4-.4.2-.6.6-.6 1.1h2.8c0-.5-.1-.8-.3-1.1-.2-.3-.5-.4-1-.4Zm0 0"/>  <path id="f" d="M6.2 0h-1L2.5-3.4l-.6.6V0h-1v-7.1H2v3.5A74 74 0 0 1 3-5l2-2h1L3.3-4.1Zm0 0"/>  <path id="k" d="M4.3-1.5c0 .5-.2 1-.5 1.2-.4.3-1 .4-1.6.4l-1-.1-.7-.2V-1l.8.3h1.8l.4-.7-.1-.4L3-2a7.5 7.5 0 0 0-.8-.4 7.5 7.5 0 0 1-1-.4l-.4-.5L.5-4c0-.5.2-.8.6-1 .3-.4.8-.6 1.4-.6l1 .2a4 4 0 0 1 .6.4l-.1.6-.8-.2-.7-.1-.9.1c-.2.2-.3.3-.3.6s0 .2.2.3l.4.3.8.3.9.4.4.5c.3.2.3.4.3.7Zm0 0"/>  <path d="M3 0H.4v-.5l.8-.2v-5.7l-.8-.2v-.5H3v.5l-1 .2v5.7l1 .2Zm-.2 0C2 0 1.4 0 1-.5.7-1 .5-1.8.5-2.6c0-1.1.3-1.8.7-2.2.4-.5.8-.7 1.6-.7.4 0 .7.1 1 .3a2 2 0 0 1 .6.5v-2.8h.9V0h-.7l-.1-.7a2 2 0 0 1-.8.6l-.9.1Zm0-.5c.8-.1 1.1-.3 1.4-.6.1-.3.2-.8.2-1.4v-.2c0-.6 0-1.1-.3-1.5-.2-.4-.6-.5-1.2-.5-.5 0-.9.2-1 .5-.4.4-.5 1-.5 1.5.1.7.1 1.2.4 1.5.3.4.6.6 1 .6Zm.1-.1"/>  <path id="h" d="M3.3-5.5H4l-.1 1.1-.3-.3h-.3c-.3 0-.5 0-.8.2l-.5.7-.3 1V0H.8v-5.4h.8v1h.2l.6-.6c.3-.3.6-.5 1-.5Zm0 0"/>  <path d="M4-3.8h2.6v3.5A8.4 8.4 0 0 1 4 .1C3.3 0 2.7-.1 2.2-.3A3 3 0 0 1 1-1.6c-.3-.6-.4-1.2-.4-2 0-.7.2-1.4.4-1.9a3 3 0 0 1 1.3-1.3c.7-.2 1.2-.4 2-.4h1.1a5 5 0 0 1 1 .5l-.3.7a7.4 7.4 0 0 0-.9-.3l-1-.2c-.7 0-1.4.3-1.9.8-.4.5-.7 1.2-.7 2.1-.1.6 0 1.1.2 1.6.2.4.5.7.9 1 .3.3.9.4 1.5.4a5.8 5.8 0 0 0 1.4-.2V-3H4.1Zm0 0"/>  <path id="l" d="M1.3-7.4c.1 0 .3 0 .4.2l.1.4-.1.4-.4.2-.4-.3-.1-.3.1-.4.4-.2Zm.4 2V0H.8v-5.4Zm0 0"/>  <path d="M1.7 0H.8v-7.6h1ZM5-2c0 .8-.2 1.3-.7 1.7-.3.2-1 .3-1.8.3H1.4a3 3 0 0 1-.9-.2v-.9a5 5 0 0 0 1 .3l.9.1c.6 0 1.1 0 1.3-.3.3-.2.4-.5.4-.8L4-2.4 3.5-3a7.2 7.2 0 0 0-1-.3c-.8-.2-1.2-.5-1.5-.8C.7-4.4.6-5 .6-5.4s0-.7.3-1a2 2 0 0 1 .8-.6 3 3 0 0 1 1.2-.2h1a5 5 0 0 1 1.1.5l-.5.6a4.5 4.5 0 0 0-.7-.2l-1-.2c-.3 0-.6.1-.9.3-.3.2-.4.5-.4.8 0 .2 0 .4.2.6 0 .2.2.3.3.4l1.1.4.9.5.8.7.2.8Zm0 0"/>  <path id="e" d="M2.6-.6H3l.4-.2v.7L3 0H1.7l-.6-.5-.1-1v-3.3H.2V-5l.7-.5.4-1h.5v1h1.5v.8H1.8v3.1c0 .3 0 .6.2.7l.6.3Zm0 0"/>  <path id="d" d="M1.7-7.6v3c.3-.4.4-.5.7-.6.3-.2.7-.3 1-.3.7 0 1.2.2 1.6.5.2.3.4.8.4 1.5V0h-.9v-3.4c0-.9-.4-1.3-1.2-1.3-.6 0-1 .2-1.2.5-.3.3-.4.8-.4 1.4V0H.8v-7.6Zm0 0"/>  <path id="c" d="M3.4-5.5c.7 0 1.2.2 1.6.5.2.3.4.8.4 1.5V0h-.9v-3.4c0-.9-.4-1.3-1.2-1.3-.6 0-1 .1-1.2.5-.3.2-.4.8-.4 1.4V0H.8v-5.4h.8v.8h.2c.2-.4.3-.5.7-.7l1-.2Zm0 0"/>  <path id="b" d="M2.9-5.5c.6 0 1.1.2 1.4.5.3.3.5.7.5 1.3V0h-.6L4-.8c-.3.3-.5.6-.8.8h-1c-.5 0-1 0-1.3-.3C.6-.5.5-.9.5-1.5c0-.5.2-1 .5-1.2.5-.3 1-.5 2-.5h.8v-.3c.2-.5.2-.8-.2-1l-.8-.2H2l-.7.5L1-5l1-.3.9-.2Zm1 2.9h-.8c-.6 0-1 .1-1.4.3-.1.3-.3.5-.3.8 0 .3 0 .5.2.7l.7.2c.5 0 .9-.1 1.2-.4.3-.2.4-.6.4-1Zm.1 0"/>  <path id="a" d="M4.1 0 1.8-6.3V0H1v-7.1h1.3l2.2 5.8 2.3-5.8H8V0h-.8v-6.2L5 0Zm0 0"/>  <path d="M1 0v-7.1h4V0Zm.4-.5h3.1v-6.1h-3ZM2 0H1v-9.1h1Zm4.6-3.2c0 1-.3 1.9-.8 2.5-.5.4-1.3.7-2.2.7a3 3 0 0 1-1.5-.3A2.7 2.7 0 0 1 1-1.4C.7-2 .6-2.5.6-3.2c.1-1.1.3-2 .9-2.5.5-.6 1.2-.8 2.1-.8.6 0 1.1 0 1.6.3.4.3.8.7 1 1.2.3.5.4 1 .4 1.8Zm-4.8 0c0 .7.1 1.2.3 1.8.4.4.9.6 1.5.6.7 0 1.2-.2 1.5-.6.3-.6.4-1 .4-1.8S5.4-4.6 5.1-5c-.3-.4-.8-.7-1.5-.7-.6 0-1.1.3-1.4.7-.3.4-.5 1-.5 1.8ZM3.6.1C3 .1 2.6.1 2-.2s-.7-.6-1-1.1C.7-1.8.6-2.4.6-3.2c.1-.8.1-1.4.4-2 .3-.3.7-.8 1.1-.9.5-.3 1-.4 1.6-.4h1a3 3 0 0 1 .6.4l-.3.8a7 7 0 0 0-.6-.2 3 3 0 0 0-.8-.1c-1.2 0-1.9.8-1.9 2.4.1.8.3 1.4.6 1.8.2.4.7.6 1.3.6l1-.1.6-.3v1l-.7.2-1 .1Zm.5-6.6c.9 0 1.4.1 1.7.5.4.4.6 1 .6 1.8V0h-1v-4.1c0-1-.4-1.6-1.4-1.6-.8 0-1.2.2-1.5.7-.3.3-.5 1-.5 1.7V0H1v-6.4h.8l.2.8 1-.7c.3-.2.7-.2 1-.2ZM1.6-8.8l.4.1.2.5c0 .2 0 .4-.2.5l-.4.2c-.2 0-.4 0-.6-.2v-.5c0-.2 0-.4.1-.5l.5-.1ZM2-6.4V0H1v-6.4ZM1.2 0v-8.6h1V-1H6v1Zm-.1 0v-8.6h5V0Zm.6-.6h3.8V-8H1.7Zm0 0"/> </defs> <image xlink:href="svg/8/48_0.jpg" width="497" height="279"/> <use style="fill:#fdfdfa;fill-opacity:1;fill-rule:nonzero;stroke:#3f3f35;stroke-width:.5;stroke-linecap:butt;stroke-linejoin:miter;stroke-miterlimit:4;stroke-opacity:1" transform="translate(420.35731,230.90924)" xlink:href="#reuse-0"/> <path d="m400.7 229-2.4-6.5v6.5h-.8v-7.2h1.3l2.2 5.8 2.4-5.8h1.2v7.1h-.9v-5.4l.2-.8-2.5 6.2zm7.8-5.5c.5 0 1.1.1 1.4.4.3.3.5.7.5 1.4v3.6h-.6l-.2-.8c-.3.3-.6.6-.8.7l-1 .2c-.5 0-1-.1-1.3-.4-.3-.2-.4-.6-.4-1.2-.1-.4.2-1 .6-1.2.3-.3 1-.5 2-.5h.7v-.3c.1-.5.1-.8-.2-1l-.8-.2-.8.1-.6.3-.4-.7.9-.3 1-.1zm1 2.8h-.8c-.6 0-1 .2-1.4.3-.2.2-.3.5-.3.8 0 .3 0 .6.2.7l.8.2c.4 0 .8-.1 1.1-.4.3-.2.4-.6.4-1.1zm5.1-2.8c.7 0 1.2.1 1.5.4.3.3.5.8.5 1.5v3.6h-.9v-3.5c0-.9-.4-1.3-1.2-1.3-.6 0-1 .2-1.2.5-.3.3-.4.8-.4 1.3v3h-.8v-5.4h.7v.7h.2c.1-.3.4-.5.7-.6.3-.2.6-.2 1-.2zm4.5-2.2v3c.2-.3.4-.5.7-.6.3-.2.6-.2 1-.2.6 0 1.1.1 1.5.4.3.3.5.8.5 1.5v3.6h-1v-3.5c.1-.9-.2-1.3-1-1.3s-1.1.2-1.4.5c-.2.3-.3.8-.3 1.4v2.9h-.9v-7.7zm7.3 2.2c.7 0 1.2.1 1.6.4.2.3.4.7.4 1.4v3.6h-.7l-.1-.8-.9.7-.9.2c-.7 0-1.1-.1-1.4-.4-.2-.2-.4-.6-.4-1.2 0-.4.2-1 .6-1.2.5-.3 1.1-.5 2-.5h.9v-.3c0-.5-.1-.8-.3-1l-.8-.2-.8.1c-.3 0-.5.2-.7.3l-.3-.7.8-.3 1-.1zm1.1 2.8h-.8c-.7 0-1.1.2-1.4.3-.2.2-.3.5-.3.8 0 .3 0 .6.2.7l.8.2c.4 0 .7-.1 1.1-.4.3-.2.4-.6.4-1.1zm4.3 2h.4l.4-.1v.6l-.4.2h-.5l-.8-.1c-.3-.1-.4-.3-.6-.5l-.2-1v-3.3h-.8v-.3l.8-.3.4-1.2h.5v1.3h1.5v.6H431v3.1c0 .4 0 .7.2.8l.6.2zm3.6 0h.4l.4-.1v.6l-.4.2h-.5l-.8-.1-.6-.5-.2-1v-3.3h-.7v-.3l.7-.3.4-1.2h.5v1.3h1.4v.6h-1.4v3.1c0 .4 0 .7.2.8l.6.2zm3.9-4.8c.6 0 1.1.1 1.4.4.3.3.5.7.5 1.4v3.6h-.6l-.2-.8c-.4.3-.5.6-.8.7l-1 .2c-.6 0-1-.1-1.3-.4-.3-.2-.3-.6-.3-1.2-.1-.4 0-1 .5-1.2.4-.3 1-.5 2-.5h.7v-.3c.1-.5.1-.8-.2-1l-.8-.2-.8.1-.7.3-.3-.7.9-.3 1-.1zm1 2.8h-.8c-.5 0-1 .2-1.4.3-.1.2-.3.5-.3.8 0 .3 0 .6.2.7l.7.2c.5 0 .9-.1 1.3-.4.2-.2.3-.6.3-1.1zm5.1-2.8c.7 0 1.2.1 1.6.4.2.3.4.8.4 1.5v3.6h-.9v-3.5c0-.9-.4-1.3-1.2-1.3-.6 0-1 .2-1.2.5-.2.3-.4.8-.4 1.3v3h-.7v-5.4h.6l.1.7c.3-.3.5-.5.8-.6.3-.2.5-.2 1-.2zm0 0" style="fill:none;stroke:#fff;stroke-width:3;stroke-linecap:butt;stroke-linejoin:round;stroke-miterlimit:10;stroke-opacity:.6" transform=" rotate(  340 424.105 232.91) "/> <g style="fill:#212121;fill-opacity:1" transform=" rotate(  340 424.105 232.91) ">  <use xlink:href="#a" x="396.5" y="228.9"/>  <use xlink:href="#b" x="405.6" y="228.9"/>  <use xlink:href="#c" x="411.2" y="228.9"/>  <use xlink:href="#d" x="417.4" y="228.9"/>  <use xlink:href="#b" x="423.6" y="228.9"/>  <use xlink:href="#e" x="429.2" y="228.9"/>  <use xlink:href="#e" x="432.8" y="228.9"/>  <use xlink:href="#b" x="436.4" y="228.9"/>  <use xlink:href="#c" x="442" y="228.9"/> </g> <use style="fill:#fdfdfa;fill-opacity:1;fill-rule:nonzero;stroke:#3f3f35;stroke-width:.5;stroke-linecap:butt;stroke-linejoin:miter;stroke-miterlimit:4;stroke-opacity:1" transform="translate(171.36248,34.776124)" xlink:href="#reuse-1"/> <path d="M160.4 32.8h-1l-2.7-3.4-.6.6v2.8H155v-7.2h1.2v3.6a74.2 74.2 0 0 1 1.1-1.4l2-2.2h1l-2.8 3.1zm2.9-5.5c.5 0 .9.1 1.2.3a2 2 0 0 1 .8.9l.2 1.2v.6H162c-.1.6 0 1 .3 1.4.3.3.7.3 1.3.3h.9l.8-.3v.8l-.8.3a5 5 0 0 1-1 0 3 3 0 0 1-1.3-.1 2.2 2.2 0 0 1-1-1.1l-.2-1.4c0-.6 0-1.1.3-1.6 0-.4.4-.6.7-1 .4-.1.8-.2 1.3-.2zm0 .7c-.3 0-.7.2-1 .4-.2.3-.3.7-.3 1.2h2.6c0-.6-.1-.9-.3-1.1-.2-.3-.5-.5-1-.5zm5.7-.7c.5 0 1 .2 1.3.5.4.2.5.7.5 1.2v3.8h-.6l-.2-.8-.8.7-.9.2c-.6 0-1-.2-1.3-.4-.3-.3-.5-.7-.5-1.2s.2-1 .6-1.3c.5-.2 1.1-.4 2-.4h.9v-.5c0-.3-.1-.6-.3-.8-.2-.2-.5-.3-.8-.3-.3 0-.6 0-.9.2l-.6.2-.4-.6.9-.3 1.1-.2zm1 2.9h-.8c-.7 0-1.2.1-1.4.3-.3.2-.4.5-.4.8 0 .3.1.5.3.7l.7.2c.4 0 .8-.2 1.1-.4.3-.3.5-.6.5-1.2zm5-2.9h.6v1h-.6c-.3-.2-.6-.2-.8 0-.3.2-.5.4-.6.7l-.2 1v2.7h-.9v-5.3h.7l.1 1 .7-.7c.3-.3.6-.4 1-.4zm4.2 0c.8 0 1.1.2 1.5.5.3.2.5.8.5 1.5v3.5h-1v-3.5c.1-.8-.2-1.2-1-1.2-.7-.1-1.2.1-1.3.5-.3.3-.4.8-.4 1.4v2.8h-.9v-5.4h.8v.8h.2l.6-.7 1-.2zm5.7 0 1.1.3a2 2 0 0 1 .8.9c.2.3.3.8.3 1.2v.6h-3.7c0 .6.2 1 .6 1.4.2.3.6.3 1 .3h1.1l.7-.3v.8l-.8.3a5 5 0 0 1-1 0 3 3 0 0 1-1.2-.1 2.2 2.2 0 0 1-1-1.1c-.2-.3-.3-.8-.3-1.4l.3-1.6.8-1c.4-.1.8-.2 1.4-.2zm0 .7c-.4 0-.9.2-1 .4-.3.3-.4.7-.4 1.2h2.7c0-.6-.2-.9-.3-1.1-.3-.3-.6-.5-1-.5zm2.5-.6h1l1.1 3 .3.9.2.7.2-.7c0-.3.2-.6.3-.8l1-3h1.1l-2.4 5.9c-.2.6-.4 1.1-.7 1.3-.3.3-.7.5-1.3.5h-.4l-.3-.2v-.6h.6c.3.1.6.1.7-.1l.5-.8.3-.7zm0 0" style="fill:none;stroke:#fff;stroke-width:3;stroke-linecap:butt;stroke-linejoin:round;stroke-miterlimit:10;stroke-opacity:.6" transform=" rotate(  340 175.113 36.7773) "/> <g style="fill:#212121;fill-opacity:1" transform=" rotate(  340 175.113 36.7773) ">  <use xlink:href="#f" x="154.2" y="32.8"/>  <use xlink:href="#g" x="160.4" y="32.8"/>  <use xlink:href="#b" x="166" y="32.8"/>  <use xlink:href="#h" x="171.7" y="32.8"/>  <use xlink:href="#c" x="175.8" y="32.8"/>  <use xlink:href="#g" x="182" y="32.8"/>  <use xlink:href="#i" x="187.4" y="32.8"/> </g> <use style="fill:#fdfdfa;fill-opacity:1;fill-rule:nonzero;stroke:#3f3f35;stroke-width:.5;stroke-linecap:butt;stroke-linejoin:miter;stroke-miterlimit:4;stroke-opacity:1" transform="translate(240.00149,49.593486)" xlink:href="#reuse-0"/> <path d="M227.9 63.3h-1v-3.4h-3.5v3.4h-1V56h1v3.1h3.6v-3h.9zm3.8-5.5c.7 0 1.3.2 1.5.5.3.2.4.7.4 1.3v3.7h-.6l-.2-.8-.7.7-1.1.2c-.6 0-1-.2-1.3-.4-.2-.3-.4-.7-.4-1.2s.2-1 .6-1.2c.5-.3 1.1-.6 2.1-.6h.8v-.4c0-.3-.1-.6-.3-.8-.2-.2-.5-.3-.8-.3-.3 0-.7 0-.8.2l-.7.2-.3-.6c.2-.1.5-.3.8-.3l1-.2zm1 2.8h-.7c-.7.2-1.1.3-1.4.4-.2.2-.4.5-.4.8 0 .2.1.5.3.7l.7.2c.5 0 .8-.2 1.1-.4.3-.3.5-.6.5-1.3zm6.1 1.2c0 .5-.2 1-.6 1.2-.4.2-.9.4-1.5.4l-1-.1c-.3 0-.5-.3-.7-.3v-.8l.8.3.9.2c.3 0 .7-.1 1-.3l.1-.4v-.5l-.5-.3a7.5 7.5 0 0 0-.7-.4 7.5 7.5 0 0 1-.9-.4l-.5-.4c-.2-.2-.2-.5-.2-.8 0-.4.2-.8.5-1 .5-.3.9-.4 1.5-.4l.9.2a4 4 0 0 1 .8.2l-.3.7-.7-.3h-1.6c-.2.2-.3.4-.3.6l.1.4.5.3.8.3.9.4.5.5.2.7zm3.1.8h.7v.5l-.4.2H241c-.3-.3-.5-.3-.6-.7-.2-.1-.2-.5-.2-.9v-3.1h-.8v-.4l.8-.4.3-1.1h.5v1.2h1.6v.7H241v3.1c0 .3.1.6.3.7.1.2.3.2.6.2zm2.3-6.7.3.1.2.5c0 .1 0 .3-.2.4l-.3.1h-.4l-.2-.5c0-.2 0-.5.2-.5h.4zm.4 2v5.4h-.9v-5.4zm4.3-.1c.6 0 1 .2 1.4.5.3.3.5.7.5 1.5v3.5h-.8v-3.5c0-.8-.5-1.2-1.3-1.2-.6 0-1 .1-1.2.4-.2.4-.3.9-.3 1.5v2.8h-1v-5.4h.8l.1.7.9-.6.9-.2zm5.5 0c.3 0 .6 0 1 .2a2 2 0 0 1 .6.6l.2-.6h.8v5.4c0 .6-.3 1.3-.7 1.6-.3.5-1 .7-1.8.7s-1.4-.1-2-.4v-.8c.7.3 1.4.5 2.1.5.4 0 .9 0 1.2-.5.1-.2.2-.5.2-1v-1c-.4.5-1 .9-1.7.9s-1.3-.4-1.6-.8c-.3-.4-.5-1.1-.5-2 0-.9.2-1.5.5-2 .4-.6 1-.8 1.7-.8zm.1.8c-.5 0-.8.1-1 .4-.4.4-.5 1-.5 1.6 0 .7 0 1.2.4 1.5.3.4.6.5 1.1.5.6 0 1 0 1.2-.4.2-.2.3-.7.3-1.4v-.2c0-.7-.1-1.2-.3-1.6-.3-.3-.7-.4-1.2-.4zm7.6 3.2c0 .5-.1 1-.6 1.2-.3.2-.9.4-1.5.4l-1-.1c-.3 0-.5-.3-.7-.3v-.8l.7.3 1 .2c.4 0 .8-.1 1-.3.2-.1.3-.3.3-.4s0-.4-.3-.5l-.2-.3a7.5 7.5 0 0 0-.9-.4 7.5 7.5 0 0 1-.8-.4l-.6-.4-.2-.8c0-.4.2-.8.5-1 .4-.3.9-.4 1.5-.4l1 .2a4 4 0 0 1 .7.2l-.3.7-.7-.3h-1.6c-.2.2-.3.4-.3.6l.1.4.5.3.8.3.9.4.5.5.2.7zm0 0" style="fill:none;stroke:#fff;stroke-width:3;stroke-linecap:butt;stroke-linejoin:round;stroke-miterlimit:10;stroke-opacity:.6" transform=" rotate(  340 243.75 51.5938) "/> <g style="fill:#212121;fill-opacity:1" transform=" rotate(  340 243.75 51.5938) ">  <use xlink:href="#j" x="221.4" y="63.3"/>  <use xlink:href="#b" x="228.9" y="63.3"/>  <use xlink:href="#k" x="234.5" y="63.3"/>  <use xlink:href="#e" x="239.3" y="63.3"/>  <use xlink:href="#l" x="242.9" y="63.3"/>  <use xlink:href="#c" x="245.4" y="63.3"/>  <use xlink:href="#m" x="251.6" y="63.3"/>  <use xlink:href="#k" x="257.8" y="63.3"/> </g> <use style="fill:#fdfdfa;fill-opacity:1;fill-rule:nonzero;stroke:#3f3f35;stroke-width:.5;stroke-linecap:butt;stroke-linejoin:miter;stroke-miterlimit:4;stroke-opacity:1" transform="translate(402.92902,91.252618)" xlink:href="#reuse-1"/> <path d="M386.6 82.1h2c1.1 0 1.7.2 2.2.4.4.3.6.7.6 1.5 0 .3-.1.7-.4.9-.2.3-.5.5-1 .6.3 0 .6.1.8.3.3 0 .5.2.6.5.2.2.2.5.2 1s-.2.9-.6 1.3c-.5.5-1 .7-1.8.7h-2.6zm1 3h1.3c.6.1 1 .1 1.1-.1.4-.3.5-.6.5-1.1 0-.2-.2-.5-.5-.7l-1.3-.2h-1.1zm0 .9v2.5h1.4c.6 0 1-.1 1.3-.5.3 0 .4-.4.4-.9 0-.2-.2-.5-.4-.7-.3-.4-.7-.5-1.4-.5zm7.5-2.2c.5 0 .8.1 1.2.3a2 2 0 0 1 .7.8c.2.4.3.8.3 1.3v.5h-3.7c0 .7.2 1.1.5 1.4.3.3.7.5 1.2.5l1-.1.7-.3v.8l-.7.3a5 5 0 0 1-1 0 3 3 0 0 1-1.3-.2 2.2 2.2 0 0 1-1-1.1c-.1-.3-.2-.8-.2-1.4s0-1 .2-1.5l.8-1c.4-.1.8-.3 1.3-.3zm0 .7c-.4 0-.8.2-1.1.5-.2.2-.3.6-.3 1.1h2.7c0-.5-.1-.9-.4-1.2-.1-.2-.5-.4-1-.4zM400.7 83.8c.6 0 1.1.1 1.3.4.5.3.6.8.6 1.4v3.7h-.6l-.2-.8c-.3.3-.5.5-.8.5-.2.3-.6.3-1 .3-.5 0-1 0-1.2-.3-.4-.3-.5-.7-.5-1.2 0-.6.2-1 .6-1.3.4-.3 1-.4 2-.4h.8v-.5c.1-.3-.1-.6-.2-.9l-.9-.1h-.8l-.7.4-.1-.7.7-.4 1-.1zm1 2.8h-.7c-.7.1-1.2.3-1.4.4-.3.2-.4.4-.4.8 0 .2 0 .5.3.6.1.2.4.2.7.2.4 0 .8 0 1.1-.3.3-.3.5-.7.5-1.3zm4.3 2h.9v.5l-.5.2h-1.3l-.5-.7c-.2-.1-.3-.5-.3-.9v-3.1h-.7v-.4l.8-.4.3-1.1h.5v1.2h1.6v.7h-1.6v3c0 .4.1.7.3.9.1.1.3.1.5.1zm4.4-4.8h.6v.9h-.5l-.2-.2c-.2.1-.5.1-.7.3-.3.2-.6.4-.6.7-.2.2-.2.5-.2.9v2.9h-1v-5.4h.9v1l.7-.9c.3 0 .6-.2 1-.2zm2.1-1.9.3.1.2.4c0 .2 0 .4-.2.6h-.3l-.5-.1-.1-.5c.1-.1.1-.3.2-.4h.4zm.4 2v5.4h-.9v-5.4zm3.8 5.4c-.4 0-.7 0-1.2-.2s-.7-.5-.9-1.1c-.2-.1-.3-.7-.3-1.3 0-.8.1-1.3.3-1.7.2-.4.5-.7 1-.9.2-.2.6-.3 1.1-.3h.9l.6.4-.2.6-.6-.2h-.6c-1 0-1.6.6-1.6 2 0 .6.1 1.1.4 1.5.2.3.6.5 1.1.5l.8-.1.6-.2v.7a2 2 0 0 1-.6.3h-.8zm4.8-5.5c.4 0 .8.1 1.1.3a2 2 0 0 1 .8.8c.2.4.3.8.3 1.3v.5H420c0 .7.2 1.1.5 1.4.3.3.7.5 1.2.5l1-.1c.1 0 .4-.1.6-.3v.8l-.7.3a5 5 0 0 1-1 0 3 3 0 0 1-1.2-.2 2.2 2.2 0 0 1-1-1.1c-.2-.3-.3-.8-.3-1.4s-.1-1 .3-1.5l.8-1c.4-.1.8-.3 1.3-.3zm0 .7c-.5 0-.9.2-1.1.5-.3.2-.4.6-.4 1.1h2.7c0-.5 0-.9-.3-1.2-.2-.2-.4-.4-1-.4zm-.1 0" style="fill:none;stroke:#fff;stroke-width:3;stroke-linecap:butt;stroke-linejoin:round;stroke-miterlimit:10;stroke-opacity:.6" transform=" rotate(  340 406.68 93.2539) "/> <g style="fill:#212121;fill-opacity:1" transform=" rotate(  340 406.68 93.2539) ">  <use xlink:href="#n" x="385.7" y="89.3"/>  <use xlink:href="#g" x="392.2" y="89.3"/>  <use xlink:href="#b" x="397.8" y="89.3"/>  <use xlink:href="#e" x="403.4" y="89.3"/>  <use xlink:href="#h" x="407" y="89.3"/>  <use xlink:href="#l" x="411.2" y="89.3"/>  <use xlink:href="#o" x="413.7" y="89.3"/>  <use xlink:href="#g" x="418.5" y="89.3"/> </g> <use style="fill:#fdfdfa;fill-opacity:1;fill-rule:nonzero;stroke:#3f3f35;stroke-width:.5;stroke-linecap:butt;stroke-linejoin:miter;stroke-miterlimit:4;stroke-opacity:1" transform="translate(105.93146,24.385226)" xlink:href="#reuse-0"/> <path d="M85.5 38v-7h1v6.2h2.9v.8zm7.2-5.4c.5 0 .9.1 1.3.4a2 2 0 0 1 .7.8l.2 1.2v.6h-3.6c0 .6.1 1 .4 1.3.3.4.8.5 1.3.5h.9l.8-.4v.8l-.8.3a5 5 0 0 1-1-.1 3 3 0 0 1-1.3 0 2.2 2.2 0 0 1-1-1.1l-.1-1.5c-.1-.6-.1-1 .2-1.4.2-.5.3-.8.8-1 .3-.2.8-.3 1.2-.3zm0 .7c-.4 0-.7.2-1 .4-.2.3-.4.7-.4 1.3H94c0-.6 0-1-.3-1.2-.2-.3-.5-.5-1-.5zm4.7 2-1.9-2.6h1l1.5 2 1.3-2h1l-1.9 2.6 2 2.8h-1l-1.5-2.2-1.5 2.2h-1Zm4.4-4.6.4.1.2.5-.2.4-.4.1-.3-.1-.2-.4c0-.3 0-.4.2-.5l.3-.1zm.5 2v5.4h-1v-5.4zm4.3-.1c.6 0 1 .2 1.4.5.3.3.5.8.5 1.5V38h-.9v-3.4c0-.8-.4-1.3-1.2-1.3-.6 0-1 .2-1.2.5-.2.4-.3.9-.3 1.5V38h-1v-5.3h.9v.7l.9-.6.9-.2zm5.4 0c.5 0 .8 0 1 .2a2 2 0 0 1 .7.6l.3-.7h.6v5.5c0 .7-.2 1.3-.6 1.7-.4.4-1 .6-1.8.6s-1.4-.1-2-.5v-.7c.7.3 1.4.4 2.1.4.5 0 .9-.1 1.1-.4.2-.2.3-.6.3-1v-1c-.3.6-.9.9-1.6.9-.7 0-1.3-.3-1.7-.8-.4-.4-.6-1.1-.6-2 0-.9.2-1.5.6-2 .4-.5 1-.8 1.7-.8zm.3.7c-.6 0-.9.2-1.1.7-.4.2-.5.7-.5 1.4s.1 1.2.3 1.6c.4.3.7.4 1.1.4.7 0 1.1-.1 1.4-.4.1-.3.2-.7.2-1.4v-.2c0-.7 0-1.4-.3-1.6-.4-.3-.7-.5-1.2-.5zm5.7 4.1h.9v.6l-.5.1h-1.2c-.3-.3-.5-.4-.6-.7-.2-.1-.2-.4-.2-.9v-3.1h-.8V33l.8-.4.3-1.1h.5v1.2h1.6v.7h-1.5v3c0 .5 0 .8.2.9.1.1.3.1.5.1zm6.6-2c0 .9-.3 1.6-.7 2-.5.6-1 .8-1.9.8-.4 0-1-.2-1.2-.4-.4-.2-.7-.5-.9-1-.2-.2-.3-.8-.3-1.3 0-1 .2-1.7.7-2.1.4-.6 1-.9 1.7-.9.6.1 1.1.2 1.4.5l.8 1c.3.3.5.8.5 1.4zm-4 0c-.1.6-.1 1.1.2 1.5.2.4.7.5 1.2.5.6 0 1-.1 1.3-.4.2-.5.4-1 .4-1.6 0-.7-.2-1.1-.4-1.5-.3-.4-.7-.6-1.3-.6-.5 0-1 .2-1.1.7-.3.3-.4.7-.4 1.4zm8-2.8c.6 0 1 .2 1.4.5.3.3.5.8.5 1.5V38h-.9v-3.4c0-.8-.4-1.3-1.2-1.3-.6 0-1 .2-1.2.5-.2.4-.4.9-.4 1.5V38h-.8v-5.3h.7l.1.7.8-.6 1-.2zm0 0" style="fill:none;stroke:#fff;stroke-width:3;stroke-linecap:butt;stroke-linejoin:round;stroke-miterlimit:10;stroke-opacity:.6" transform=" rotate(  340 109.68 26.3867) "/> <g style="fill:#212121;fill-opacity:1" transform=" rotate(  340 109.68 26.3867) ">  <use xlink:href="#p" x="84.6" y="38.1"/>  <use xlink:href="#g" x="89.8" y="38.1"/>  <use xlink:href="#q" x="95.3" y="38.1"/>  <use xlink:href="#l" x="100.5" y="38.1"/>  <use xlink:href="#c" x="103.1" y="38.1"/>  <use xlink:href="#m" x="109.3" y="38.1"/>  <use xlink:href="#e" x="115.5" y="38.1"/>  <use xlink:href="#r" x="119.1" y="38.1"/>  <use xlink:href="#c" x="125.1" y="38.1"/> </g></svg>