<svg xmlns="http://www.w3.org/2000/svg" xmlns:xlink="http://www.w3.org/1999/xlink" viewBox="0 0 497 279"> <defs>  <path d="M3.7 2C3.7 3 3 3.7 2 3.7A1.7 1.7 0 1 1 3.7 2zm0 0" style="fill:#fdfdfa;fill-opacity:1;fill-rule:nonzero;stroke:#3f3f35;stroke-width:.5;stroke-linecap:butt;stroke-linejoin:miter;stroke-miterlimit:4;stroke-opacity:1" id="reuse-0"/> </defs> <defs overflow="visible" style="stroke:none">  <path id="z" d="M6.4 0h-.9v-3.3H2V0H.9v-7.1H2v3h3.5v-3h1Zm0 0"/>  <path d="M2.8 0C2 0 1.4 0 1-.5.7-1 .5-1.8.5-2.6c0-1.1.3-1.8.7-2.2.4-.5.8-.7 1.6-.7.4 0 .7.1 1 .3a2 2 0 0 1 .6.5v-2.8h.9V0h-.7l-.1-.7a2 2 0 0 1-.8.6l-.9.1Zm0-.5c.8-.1 1.1-.3 1.4-.6.1-.3.2-.8.2-1.4v-.2c0-.6 0-1.1-.3-1.5-.2-.4-.6-.5-1.2-.5-.5 0-.9.2-1 .5-.4.4-.5 1-.5 1.5.1.7.1 1.2.4 1.5.3.4.6.6 1 .6ZM4-3.8h2.6v3.5A8.4 8.4 0 0 1 4 .1C3.3 0 2.7-.1 2.2-.3A3 3 0 0 1 1-1.6c-.3-.6-.4-1.2-.4-2 0-.7.2-1.4.4-1.9a3 3 0 0 1 1.3-1.3c.7-.2 1.2-.4 2-.4h1.1a5 5 0 0 1 1 .5l-.3.7a7.4 7.4 0 0 0-.9-.3l-1-.2c-.7 0-1.4.3-1.9.8-.4.5-.7 1.2-.7 2.1-.1.6 0 1.1.2 1.6.2.4.5.7.9 1 .3.3.9.4 1.5.4a5.8 5.8 0 0 0 1.4-.2V-3H4.1Zm-.7-1.7H4l-.1 1.1-.3-.3h-.3c-.3 0-.5 0-.8.2l-.5.7-.3 1V0H.8v-5.4h.8v1h.2l.6-.6c.3-.3.6-.5 1-.5ZM5.2 0l-.9-3A18 18 0 0 1 4-4.5 34.3 34.3 0 0 1 3.5-3l-1 3h-.9L.2-5.4h.9l.6 2.9A40 40 0 0 1 2-1l.3-.3.1-.5a6 6 0 0 1 .1-.5l1-3h1l.7 2.9.3.8.2.6.3-.6v-1l.8-2.7h1L6.3 0ZM2 0 0-5.4h1l1 3.2.4.5v.5l.1.4.2-.4a16 16 0 0 1 .3-1l1.1-3.2h1L3 0ZM1 0v-7.1h.9v6.3h3V0Zm0 0"/>  <path id="y" d="M0-5.4h1l1 3 .4 1 .2.6.2-.7c0-.3.2-.5.2-.8l1-3h1.2L2.8.6c-.2.6-.4 1.1-.7 1.4-.3.3-.7.4-1.3.4H.1v-.9h.6c.3.2.6.2.7 0L2 .7l.2-.7Zm0 0"/>  <path id="x" d="M3 0c-.5 0-.9 0-1.3-.1-.3-.3-.6-.6-.7-.9-.4-.5-.5-1-.5-1.7 0-.6.2-1.1.5-1.5 0-.6.4-.8.8-1.1.2-.1.8-.2 1.2-.2l.8.1.7.2-.3.8-.6-.2H3c-1-.1-1.5.6-1.5 1.9 0 .7 0 1 .3 1.4.3.5.7.6 1.2.6h.8l.6-.3v.8a2 2 0 0 1-.6.2H3Zm0 0"/>  <path id="v" d="M7.2-3.6c0 .9-.2 1.6-.5 2.3-.4.6-.9 1-1.7 1.2l1.8 1.8H5.5L4.2.1H4C3.1 0 2.5-.1 2-.4a2.7 2.7 0 0 1-1-1.2 4.9 4.9 0 0 1-.4-2c0-.7.1-1.4.4-1.9.2-.6.6-1 1-1.3.7-.2 1.3-.5 2-.5.5 0 1.1.3 1.6.5s1 .7 1.2 1.3c.3.5.4 1.2.4 2Zm-5.6 0c0 1 .1 1.6.4 2.1.5.6 1.1.8 2 .8s1.3-.2 1.7-.8c.3-.5.5-1.2.5-2 .1-1.1 0-1.8-.4-2.3-.5-.4-1.1-.7-1.9-.7s-1.4.3-1.8.8c-.4.5-.5 1.2-.5 2.1Zm0 0"/>  <path id="t" d="M4.3-1.5c0 .5-.2 1-.5 1.2-.4.3-1 .4-1.6.4l-1-.1-.7-.2V-1l.8.3h1.8l.4-.7-.1-.4L3-2a7.5 7.5 0 0 0-.8-.4 7.5 7.5 0 0 1-1-.4l-.4-.5L.5-4c0-.5.2-.8.6-1 .3-.4.8-.6 1.4-.6l1 .2a4 4 0 0 1 .6.4l-.1.6-.8-.2-.7-.1-.9.1c-.2.2-.3.3-.3.6s0 .2.2.3l.4.3.8.3.9.4.4.5c.3.2.3.4.3.7Zm0 0"/>  <path id="s" d="m0 2-.5-.2h-.3V1h.4l.3.2.5-.2C.6 1 .7.8.8.7L.9 0v-7.1H2v7c-.2.7-.5 1.1-.8 1.5C1 1.7.5 2 0 2Zm0 0"/>  <path id="q" d="M3.4-5.5c.7 0 1.2.2 1.6.5.2.3.4.8.4 1.5V0h-.9v-3.4c0-.9-.4-1.3-1.2-1.3-.6 0-1 .1-1.2.5-.3.2-.4.8-.4 1.4V0H.8v-5.4h.8v.8h.2c.2-.4.3-.5.7-.7l1-.2Zm0 0"/>  <path id="o" d="M5-2c0 .8-.2 1.3-.7 1.7-.3.2-1 .3-1.8.3H1.4a3 3 0 0 1-.9-.2v-.9a5 5 0 0 0 1 .3l.9.1c.6 0 1.1 0 1.3-.3.3-.2.4-.5.4-.8L4-2.4 3.5-3a7.2 7.2 0 0 0-1-.3c-.8-.2-1.2-.5-1.5-.8C.7-4.4.6-5 .6-5.4s0-.7.3-1a2 2 0 0 1 .8-.6 3 3 0 0 1 1.2-.2h1a5 5 0 0 1 1.1.5l-.5.6a4.5 4.5 0 0 0-.7-.2l-1-.2c-.3 0-.6.1-.9.3-.3.2-.4.5-.4.8 0 .2 0 .4.2.6 0 .2.2.3.3.4l1.1.4.9.5.8.7.2.8Zm0 0"/>  <path id="p" d="M1.3-7.4c.1 0 .3 0 .4.2l.1.4-.1.4-.4.2-.4-.3-.1-.3.1-.4.4-.2Zm.4 2V0H.8v-5.4Zm0 0"/>  <path id="A" d="M1.7-7.6v2.9l.7-.5c.2-.2.6-.3 1-.3.6 0 1.2.3 1.6.8.4.4.6 1.1.6 1.9C5.6-1.7 5.4-1 5-.6c-.4.6-1 .7-1.6.7-.4-.1-.8-.1-1-.2l-.7-.6-.2.7H.8v-7.6Zm1.5 2.9c-.5 0-1 .1-1.1.5-.3.2-.4.8-.4 1.5s.1 1.2.3 1.5c.3.4.7.6 1.3.6.4 0 .7-.2 1-.6.3-.3.4-.8.4-1.5 0-1.3-.5-2-1.5-2Zm0 0"/>  <path d="M6.7-5.5c.6 0 1 .2 1.4.5.3.3.4.8.4 1.5V0h-.8v-3.5c0-.8-.4-1.2-1.1-1.2-.6 0-1 .1-1.1.4C5.2-4 5-3.5 5-3v3h-.7v-3.5c0-.8-.4-1.2-1.1-1.2-.6 0-1 .1-1.2.5-.2.2-.3.8-.3 1.4V0H.8v-5.4h.8v.8h.2l.6-.7 1-.2c.7 0 1.2.3 1.6 1 .2-.5.4-.7.7-.8.3-.1.7-.2 1-.2Zm0 0"/>  <path id="w" d="M5.3-5.4V0h-.7l-.1-.7c-.3.3-.5.5-.9.6l-.9.2C2.1 0 1.6-.1 1.3-.4 1-.7.8-1.2.8-1.8v-3.6h.9v3.5c0 .8.3 1.3 1.2 1.3.6 0 1-.2 1.1-.5.3-.4.5-.9.5-1.5v-2.8Zm0 0"/>  <path d="M4-6.5c-.7 0-1.3.3-1.8.8-.4.5-.6 1.2-.6 2.1 0 1 .2 1.6.6 2.1.4.6 1 .8 1.8.8h1l.6-.3v.8L5 0H4c-.8 0-1.4 0-2-.2a2.8 2.8 0 0 1-1-1.4c-.3-.6-.4-1.2-.4-2 0-.7.1-1.3.4-1.9a3 3 0 0 1 1.2-1.3c.5-.2 1.1-.4 1.8-.4.8 0 1.5.1 2 .4l-.3.7-.8-.2a3 3 0 0 0-.9-.2Zm0 0"/>  <path id="u" d="M1.7-7.6v3c.3-.4.4-.5.7-.6.3-.2.7-.3 1-.3.7 0 1.2.2 1.6.5.2.3.4.8.4 1.5V0h-.9v-3.4c0-.9-.4-1.3-1.2-1.3-.6 0-1 .2-1.2.5-.3.3-.4.8-.4 1.4V0H.8v-7.6Zm0 0"/>  <path id="r" d="M2.6-.6H3l.4-.2v.7L3 0H1.7l-.6-.5-.1-1v-3.3H.2V-5l.7-.5.4-1h.5v1h1.5v.8H1.8v3.1c0 .3 0 .6.2.7l.6.3Zm0 0"/>  <path id="B" d="M1.7 0H.8v-7.6h1Zm0 0"/>  <path d="M7.2-3.6c0 .8-.1 1.4-.4 2-.2.5-.6 1-1 1.2-.7.4-1.3.5-2 .5S2.6-.1 2.1-.4A2.7 2.7 0 0 1 1-1.6a4.9 4.9 0 0 1-.4-2c0-.7.1-1.4.4-1.9.2-.6.6-1 1-1.3.7-.2 1.3-.5 2-.5.5 0 1.1.3 1.6.5s1 .7 1.2 1.3c.3.5.4 1.2.4 2Zm-5.6 0c0 1 .1 1.6.4 2.1.5.6 1.1.8 2 .8s1.3-.2 1.7-.8c.3-.5.5-1.2.5-2 .1-1.1 0-1.8-.4-2.3-.5-.4-1.1-.7-1.9-.7s-1.4.3-1.8.8c-.4.5-.5 1.2-.5 2.1Zm0 0"/>  <path id="n" d="M2.9-5.5c.6 0 1.1.2 1.4.5.3.3.5.7.5 1.3V0h-.6L4-.8c-.3.3-.5.6-.8.8h-1c-.5 0-1 0-1.3-.3C.6-.5.5-.9.5-1.5c0-.5.2-1 .5-1.2.5-.3 1-.5 2-.5h.8v-.3c.2-.5.2-.8-.2-1l-.8-.2H2l-.7.5L1-5l1-.3.9-.2Zm1 2.9h-.8c-.6 0-1 .1-1.4.3-.1.3-.3.5-.3.8 0 .3 0 .5.2.7l.7.2c.5 0 .9-.1 1.2-.4.3-.2.4-.6.4-1Zm.1 0"/>  <path id="m" d="M1.7-7.6v4.8L2-3v-.3l.4-.2L4-5.4h1L2.9-3l2.4 3H4.2L2.3-2.5l-.6.5v2H.8v-7.6Zm0 0"/>  <path id="l" d="M3-5.5c.3 0 .7.1 1 .3a2 2 0 0 1 1 .9v1.8H1.5c0 .5.1 1 .4 1.4.3.3.7.4 1.3.4H4l.9-.3v.8L4 0a5 5 0 0 1-1 0 3 3 0 0 1-1.2-.1 2.2 2.2 0 0 1-1-1.1c0-.2-.2-.8-.2-1.3-.1-.7 0-1.2.2-1.6.2-.5.5-.9.9-1 .3-.2.7-.4 1.2-.4Zm0 .8c-.6 0-.9.1-1 .4-.4.2-.6.6-.6 1.1h2.8c0-.5-.1-.8-.3-1.1-.2-.3-.5-.4-1-.4Zm0 0"/>  <path id="k" d="M3.4-5.5c.7 0 1.2.3 1.6.7.4.5.6 1.2.6 2.1 0 1-.2 1.7-.6 2-.4.7-1 .9-1.6.9-.4-.2-.8-.2-1-.3l-.7-.6v3.1H.8v-7.8h.8v.8h.2c.2-.4.3-.5.6-.6.2-.2.6-.3 1-.3Zm-.2.8c-.5 0-.9.1-1.1.5-.2.2-.4.7-.4 1.2v.3c0 .7.1 1.2.3 1.5.3.4.7.6 1.3.6.3 0 .6-.1.7-.4l.5-.6.2-1.1c0-.6-.1-1.1-.4-1.5-.2-.3-.6-.5-1-.5Zm0 0"/>  <path id="j" d="M5.5-2.7c0 .9-.2 1.7-.7 2-.4.7-1 .9-1.8.9-.5-.2-.9-.2-1.3-.4-.3-.2-.6-.6-.7-1C.6-1.6.5-2 .5-2.7c0-.9.3-1.6.7-2 .5-.5 1-.8 1.8-.8.5 0 1 .2 1.3.5.4 0 .7.4.9.9.2.2.3.7.3 1.3Zm-4 0c0 .7 0 1.2.3 1.5.3.4.7.6 1.2.6.6 0 1-.2 1.2-.6.3-.3.4-.8.4-1.5s-.1-1.1-.4-1.5c-.2-.3-.6-.5-1.2-.5-.5 0-1 .2-1.2.5-.2.4-.3.9-.3 1.5Zm0 0"/>  <path id="i" d="M3.2 0h-.9v-6.3H.1v-.8h5.4v.8H3.2Zm0 0"/>  <path d="M1 0v-7.1h4V0Zm.4-.5h3.1v-6.1h-3Zm.1 0"/>  <path id="h" d="M0-6.4h1.1l1.4 3.6.5 1A8 8 0 0 1 3-1l.3-.8.4-1L5-6.4h1L3.3.9c-.2.6-.5 1-.8 1.4-.5.4-.9.7-1.5.7H.5l-.4-.3v-.8h.4l.3.1c.4 0 .7 0 1-.3a2 2 0 0 0 .4-.8l.4-.9Zm0 0"/>  <path id="g" d="M3.2-.8H4v.6l-.4.3H3L2 0a1.5 1.5 0 0 1-.6-.7C1.2-.9 1-1.4 1-1.9v-3.7H.1v-.5l1.1-.4.3-1.5h.7v1.6H4v.8H2.2V-2c0 .5 0 .8.2 1 .2.2.6.3.8.3Zm0 0"/>  <path id="f" d="m1.6-8.8.4.1.2.5c0 .2 0 .4-.2.5l-.4.2c-.2 0-.4 0-.6-.2v-.5c0-.2 0-.4.1-.5l.5-.1ZM2-6.4V0H1v-6.4Zm0 0"/>  <path id="e" d="M4.8-7.7c-.8 0-1.6.3-2.1.9-.7.6-.8 1.4-.8 2.5 0 1 .1 2 .7 2.5.5.8 1.2 1 2.2 1l1-.2c.5 0 .9-.1 1.1-.2v1l-1 .2-1.1.1C3.8.1 3 0 2.5-.4A3.3 3.3 0 0 1 1.2-2a5.8 5.8 0 0 1-.5-2.3c0-.9.3-1.6.5-2.3A3.6 3.6 0 0 1 2.6-8c.6-.5 1.4-.7 2.2-.7 1 0 1.7.2 2.4.5l-.4 1a5.6 5.6 0 0 0-1-.5h-.9Zm0 0"/>  <path id="d" d="M5.2-1.8c0 .6-.2 1.1-.7 1.4-.5.4-1 .5-1.9.5H1.5L.6-.4v-.9a7 7 0 0 0 1 .5 4 4 0 0 0 .9.1c.8 0 1.2-.1 1.4-.3.2-.2.3-.4.3-.7 0-.1 0-.3-.2-.3l-.4-.5a6.9 6.9 0 0 0-1-.4l-1-.5L.7-4l-.1-.8c0-.6.2-1 .7-1.3.4-.3 1-.4 1.7-.4h1.1l1 .5-.4.7a6 6 0 0 0-.7-.3H2l-.3.7c-.1.2-.1.3.1.4 0 .2.2.3.5.5l1 .3 1 .5.7.6.2.8Zm0 0"/>  <path id="c" d="M4.1-6.5c.9 0 1.4.1 1.7.5.4.4.6 1 .6 1.8V0h-1v-4.1c0-1-.4-1.6-1.4-1.6-.8 0-1.2.2-1.5.7-.3.3-.5 1-.5 1.7V0H1v-6.4h.8l.2.8 1-.7c.3-.2.7-.2 1-.2Zm0 0"/>  <path id="b" d="M3.5-6.5c.7 0 1.3.1 1.7.5.4.3.6.9.6 1.6V0H5l-.2-1c-.4.5-.7.8-1.1 1H2.6C2 .1 1.6 0 1-.3.7-.6.5-1.1.5-1.8c0-.6.3-1.1.8-1.5.5-.3 1.3-.5 2.3-.5h1.1v-.6c0-.4 0-.8-.3-.9-.4-.4-.6-.5-1-.5a3 3 0 0 0-1 .3c-.3 0-.6.2-.8.3L1.3-6l1-.4 1.2-.1Zm1.2 3.4h-1c-.7 0-1.2.1-1.5.4-.4.2-.6.5-.6 1 0 .2.1.5.4.7.2.2.5.3.8.3.6 0 1-.3 1.4-.5.3-.3.5-.7.5-1.4Zm0 0"/>  <path id="a" d="M7.4 0H6.2l-3-4-1.1.6V0h-.8v-8.6h.9v4.3l.8-.9.7-.8L6-8.6h1.3L3.9-4.8Zm0 0"/>  <path d="M1.1 0v-8.6h5V0Zm.6-.6h3.8V-8H1.7Zm0 0"/> </defs> <image xlink:href="svg/8/49_0.jpg" width="497" height="279"/> <path d="M5.6 3A2.6 2.6 0 1 1 .4 3a2.6 2.6 0 0 1 5.2 0zm0 0" style="fill:#f8f8f5;fill-opacity:1;fill-rule:nonzero;stroke:#6e6e59;stroke-width:.8;stroke-linecap:butt;stroke-linejoin:miter;stroke-miterlimit:4;stroke-opacity:1" transform="translate(120.10267,240.58891)"/> <path d="M98.5 257.8h-1.3l-3-4-.9.6v3.4h-1v-8.6h.9v4.3l.8-.9.8-.8 2.2-2.6h1.4L95 253zm3.5-6.5c.7 0 1.3.1 1.7.5.3.2.6.9.6 1.6v4.4h-.8l-.2-.9-1.1.8-1.1.2c-.6.1-1.1-.1-1.5-.4-.4-.3-.5-.8-.5-1.5-.1-.6.2-1 .7-1.5.5-.3 1.3-.5 2.3-.5h1.1v-.6c0-.4 0-.8-.2-.9-.4-.4-.7-.5-1.1-.5a3 3 0 0 0-1 .3c-.3 0-.5.2-.8.3l-.3-.8 1-.4 1.2-.1zm1.2 3.4h-1c-.6 0-1.2.2-1.5.4-.4.2-.6.5-.6.9 0 .3.2.6.4.7.2.3.5.4.8.4.7-.1 1-.2 1.4-.5.3-.3.5-.6.5-1.4zm6.1-3.4c.8 0 1.4.1 1.8.5.4.4.6 1 .6 1.8v4.2h-1v-4.1c-.1-1-.6-1.6-1.6-1.6-.6 0-1.1.2-1.4.6-.3.4-.4 1-.4 1.8v3.3h-1v-6.4h.7l.3.8c.2-.2.5-.5.9-.7.4-.2.7-.2 1.1-.2zm8.6 4.7c0 .6-.3 1.1-.7 1.4-.5.4-1.2.6-2 .6h-.9l-1.2-.6v-.9a7 7 0 0 0 1.2.5 4 4 0 0 0 1 .1c.5-.1 1-.1 1.2-.3.2-.2.3-.4.3-.7l-.1-.4c0-.1-.2-.3-.5-.4a6.9 6.9 0 0 0-1-.3l-.9-.6-.8-.6c-.2-.2-.2-.5-.2-.8 0-.6.2-1 .6-1.3.5-.3 1.1-.4 1.8-.4h1l1.1.5-.4.7a6 6 0 0 0-.9-.3h-1.9l-.3.8.1.4.6.3 1 .4 1 .5c.4.2.6.4.7.6.1.2.3.5.3.8zm4-4.7c.7 0 1.3.1 1.7.5.4.2.6.9.6 1.6v4.4h-.8l-.2-.9-1.1.8-1.1.2c-.6.1-1-.1-1.5-.4-.4-.3-.5-.8-.5-1.5 0-.6.2-1 .7-1.5.5-.3 1.3-.5 2.3-.5h1.1v-.6c0-.4 0-.8-.3-.9-.3-.4-.6-.5-1-.5a3 3 0 0 0-1 .3c-.3 0-.6.2-.8.3l-.3-.8 1-.4 1.1-.1zm1.1 3.4h-.9c-.6 0-1.2.2-1.5.4-.4.2-.6.5-.6.9 0 .3.1.6.4.7.2.3.5.4.8.4.6-.1 1-.2 1.4-.5.3-.3.4-.6.4-1.4zm7.3 1.3c0 .6-.2 1.1-.7 1.4-.4.4-1 .6-1.8.6h-1.2l-.8-.6v-.9a7 7 0 0 0 .9.5 4 4 0 0 0 1 .1c.7-.1 1.1-.1 1.3-.3.2-.2.3-.4.3-.7l-.1-.4-.5-.4a6.9 6.9 0 0 0-1-.3l-1-.6c-.3-.2-.7-.3-.7-.6-.2-.2-.3-.5-.3-.8 0-.6.3-1 .7-1.3.4-.3 1-.4 1.8-.4h1l1 .5-.4.7a6 6 0 0 0-.8-.3h-2l-.1.8v.4l.5.3 1 .4 1 .5.7.6c.2.2.2.5.2.8zm8.5-6c-.8 0-1.6.5-2.1 1-.7.6-.8 1.5-.8 2.5s.1 2 .7 2.6c.5.6 1.2.9 2.2.9l1-.1c.5 0 .9-.2 1.1-.3v1l-1 .2-1.1.2c-1 0-1.8-.2-2.3-.6a3.3 3.3 0 0 1-1.3-1.5 5.8 5.8 0 0 1-.5-2.4c0-.9.3-1.5.5-2.3a3.6 3.6 0 0 1 1.4-1.5c.6-.4 1.4-.7 2.2-.7 1 .1 1.7.3 2.4.6l-.4 1a5.6 5.6 0 0 0-1-.5h-.9zm4.3-1h.5l.2.6c0 .4-.1.4-.2.5-.2.2-.3.2-.6.2 0 0-.2 0-.3-.2-.1 0-.2-.1-.2-.5 0-.2 0-.4.2-.5l.3-.1zm.6 2.4v6.4h-1.1v-6.4zm4.2 5.6h.8v.6l-.4.4h-.6l-1-.2a1.5 1.5 0 0 1-.7-.8l-.2-1v-3.8h-1v-.5l1.1-.4.3-1.4h.6v1.5h1.9v.8h-1.9v3.7c0 .4.2.7.3.9.2.2.4.2.9.2zm1.1-5.6h1.2l1.3 3.6.5 1a8 8 0 0 1 0 .7l.4-.7.3-1 1.3-3.6h1.1l-2.7 7.3c-.4.6-.6 1-1 1.4-.2.4-.7.6-1.4.6h-.5l-.4-.2v-.8h.4l.4.2c.3-.1.6-.1.8-.4a2 2 0 0 0 .6-.8l.3-.9zm0 0" style="fill:none;stroke:#fff;stroke-width:3;stroke-linecap:butt;stroke-linejoin:round;stroke-miterlimit:10;stroke-opacity:.6" transform=" rotate(  340 125.703 243.59) "/> <g style="fill:#212121;fill-opacity:1" transform=" rotate(  340 125.703 243.59) ">  <use xlink:href="#a" x="91.1" y="257.8"/>  <use xlink:href="#b" x="98.5" y="257.8"/>  <use xlink:href="#c" x="105.2" y="257.8"/>  <use xlink:href="#d" x="112.7" y="257.8"/>  <use xlink:href="#b" x="118.4" y="257.8"/>  <use xlink:href="#d" x="125.1" y="257.8"/>  <use xlink:href="#glyph0-5" x="130.9" y="257.8"/>  <use xlink:href="#e" x="134" y="257.8"/>  <use xlink:href="#f" x="141.6" y="257.8"/>  <use xlink:href="#g" x="144.7" y="257.8"/>  <use xlink:href="#h" x="149" y="257.8"/> </g> <path d="M3.7 2A1.7 1.7 0 1 1 .2 2a1.7 1.7 0 0 1 3.5 0zm0 0" style="fill:#fdfdfa;fill-opacity:1;fill-rule:nonzero;stroke:#3f3f35;stroke-width:.5;stroke-linecap:butt;stroke-linejoin:miter;stroke-miterlimit:4;stroke-opacity:1" transform="translate(28.76659,248.11735)"/> <path d="M.5 246.1h-1v-6.3h-2.1v-.8h5.3v.8H.5zm7.1-2.7c0 1-.2 1.6-.7 2-.4.6-.9.9-1.8.9-.5-.1-1-.1-1.3-.3-.4-.3-.6-.6-.8-1.1-.3-.4-.4-.9-.4-1.5 0-.9.4-1.4.7-2 .4-.5 1-.7 1.8-.7.5 0 1 0 1.3.3.4.2.6.5.9 1 .2.2.3.7.3 1.3zm-4 0c-.1.7-.1 1.2.2 1.6.4.3.8.5 1.3.5.6 0 1-.2 1.2-.6.3-.3.4-.8.4-1.5 0-.6-.1-1.1-.4-1.4-.2-.4-.7-.6-1.2-.6s-1 .2-1.2.5c-.2.4-.4.9-.4 1.5zm7.9-2.7c.7 0 1.2.2 1.6.7.4.4.6 1.1.6 2 0 1-.2 1.6-.6 2.1-.4.5-1 .7-1.6.7-.4 0-.7 0-1-.2l-.6-.6h-.1v3.1H9v-7.7h.7l.1.7.8-.6c.1-.2.4-.2.9-.2zm-.1.7c-.6 0-1 .2-1.2.5-.2.3-.2.7-.2 1.4v.1c-.1.7-.1 1.2.2 1.6.2.3.6.5 1.2.5.3 0 .6 0 .8-.3l.5-.7.1-1c0-.8-.1-1.3-.3-1.7-.3-.2-.6-.4-1.1-.4zm5.8-.7c.5 0 .9 0 1.2.3a2 2 0 0 1 .6.8c.3.4.4.8.4 1.3v.5h-3.7c0 .6.3 1 .5 1.4.3.3.7.5 1.3.5l.9-.1.8-.4v.9l-.8.1a5 5 0 0 1-1 .2 3 3 0 0 1-1.3-.2 2.2 2.2 0 0 1-1.1-1c0-.3-.1-.8-.1-1.4-.1-.7.1-1.2.2-1.6.2-.4.5-.8.9-1 .3-.2.7-.3 1.2-.3zm0 .7c-.4 0-.8.1-1 .4-.3.2-.4.6-.4 1.1h2.7c0-.4-.1-.8-.3-1.1-.2-.3-.6-.4-1-.4zm4.4-2.9v4.9l.2-.4.3-.2.2-.2 1.7-1.8h1l-2 2.2 2.2 3h-1l-2.1-2.4-.5.5v2h-.8v-7.6zm6.5 2.2c.7 0 1.2.1 1.5.3.3.4.4.8.4 1.5v3.5h-.6l-.2-.6-.7.6-1 .2c-.7 0-1.1-.1-1.4-.4-.2-.2-.4-.6-.4-1.2 0-.5.3-1 .6-1.2.5-.3 1.1-.5 2-.5h.9v-.3c0-.6-.1-.8-.3-1l-.8-.2-.8.1c-.3 0-.5.2-.7.3l-.3-.8.8-.2 1-.1zm1.1 2.8h-.8c-.7 0-1.1.2-1.4.5-.2 0-.4.3-.4.6 0 .4.1.6.4.7l.6.2c.5 0 .8-.1 1.1-.4.3-.1.5-.6.5-1.1zm0 0" style="fill:none;stroke:#fff;stroke-width:3;stroke-linecap:butt;stroke-linejoin:round;stroke-miterlimit:10;stroke-opacity:.6" transform="rotate(  340 32.5158 250.117) translate(16.718881)"/> <g style="fill:#212121;fill-opacity:1" transform=" rotate(  340 32.5158 250.117) ">  <use xlink:href="#i" x="13.9" y="246.1"/>  <use xlink:href="#j" x="18.8" y="246.1"/>  <use xlink:href="#k" x="24.9" y="246.1"/>  <use xlink:href="#l" x="31" y="246.1"/>  <use xlink:href="#m" x="36.6" y="246.1"/>  <use xlink:href="#n" x="42" y="246.1"/> </g> <use style="fill:#fdfdfa;fill-opacity:1;fill-rule:nonzero;stroke:#3f3f35;stroke-width:.5;stroke-linecap:butt;stroke-linejoin:miter;stroke-miterlimit:4;stroke-opacity:1" transform="translate(94.470097,155.73189)" xlink:href="#reuse-0"/> <path d="M72.7 151.8c0 .7-.3 1.2-.7 1.5-.5.4-1 .5-2 .5h-.9a3 3 0 0 1-1.1-.4v-.8a5 5 0 0 0 1.2.4h.8c.8 0 1.2 0 1.5-.3.2-.2.3-.4.3-.7 0-.3 0-.5-.2-.7 0-.1-.2-.3-.5-.3a7.2 7.2 0 0 0-1-.6c-.6-.2-1-.4-1.4-.8-.3-.3-.4-.6-.4-1.3 0-.3 0-.7.3-1a2 2 0 0 1 .8-.6 3 3 0 0 1 1.1-.2l1.1.1a5 5 0 0 1 1 .4l-.5.7a4.5 4.5 0 0 0-.7-.3l-.9-.1c-.4 0-.8 0-1 .3-.2.2-.3.4-.3.7l.1.7.5.4 1 .4.9.5c.3.1.6.4.7.6.2.2.3.5.3 1zm3.3-3.5c.7 0 1.2.1 1.5.4.3.3.5.7.5 1.4v3.6h-.7l-.2-.7-.7.6c-.4.2-.6.2-1 .2-.7 0-1.1-.1-1.4-.4-.2-.2-.4-.6-.4-1.2 0-.5.2-1 .6-1.2.5-.3 1.1-.4 2-.5h.8v-.3c0-.5 0-.8-.2-1l-.8-.2-.8.1-.7.3-.3-.7.8-.3 1-.1zm1 2.7h-.6c-.8.1-1.2.3-1.5.5-.2.2-.4.4-.4.7 0 .4.1.6.3.8.2.1.4.1.7.1.5 0 .8-.1 1.1-.4.4-.2.5-.6.5-1.1zM80 146.4l.5.1.1.4c0 .2 0 .3-.2.4l-.3.2c-.2 0-.3 0-.4-.2l-.2-.3c0-.3 0-.4.2-.5l.3-.1zm.6 2v5.3h-1v-5.3zm4.2-.1c.6 0 1 .1 1.4.4.4.4.5.9.5 1.5v3.5h-.9v-3.4c0-.9-.4-1.3-1.2-1.3-.6 0-1 .2-1.2.5-.2.3-.3.8-.3 1.5v2.7H82v-5.3h1v.6c.4-.2.6-.4.9-.5.2-.2.5-.2.9-.2zm5.4 4.8h.4l.3-.1v.7h-.4l-.5.2-.8-.2-.5-.5c-.2-.3-.3-.6-.3-1V149h-.7v-.4l.8-.3.3-1.3h.5v1.4H91v.6h-1.7v3.2c0 .3.1.5.3.7l.6.1zm3.5 2.5h-.4l-.3-.1v-.8l.3.1h.8l.4-.5.2-.6v-7.1h.8v7c0 .7-.1 1.2-.5 1.5-.3.4-.8.5-1.3.5zm8.3-4.6c0 1-.3 1.6-.7 2.1-.5.5-1 .7-1.8.7-.5 0-1 0-1.3-.3-.4-.2-.7-.5-.9-1-.2-.3-.3-.8-.3-1.5 0-.8.2-1.5.7-2 .3-.5 1-.7 1.8-.7.5 0 1 0 1.3.3.4.2.6.5.9 1 .2.2.3.7.3 1.4zm-4 0c0 .7 0 1.2.2 1.6.3.3.7.4 1.3.4.5.1 1 0 1.2-.4.2-.4.3-1 .3-1.6 0-.6-.1-1-.3-1.4-.3-.4-.7-.6-1.2-.6-.6 0-1 .2-1.2.6-.3.3-.4.8-.4 1.4zm8.9 1.2c0 .6-.2 1-.6 1.2-.4.3-1 .4-1.6.4h-1l-.7-.4v-.7l.8.3 1 .1c.3 0 .6 0 .8-.1.3-.2.4-.4.4-.7l-.1-.3-.4-.3a7.6 7.6 0 0 0-.8-.4 7.5 7.5 0 0 1-.9-.4c-.3-.1-.4-.3-.6-.5l-.2-.7c0-.5.2-.8.6-1 .4-.3.8-.4 1.4-.4h1a4 4 0 0 1 .8.4l-.3.6-.8-.2-.7-.1c-.4 0-.7 0-1 .2v.8l.5.3.7.4c.5 0 .8.2 1.1.3l.3.5.3.7zm3.3-3.9c.5 0 .9 0 1.2.3a2 2 0 0 1 .8.8l.2 1.3v.5h-3.6c0 .6.1 1 .4 1.4.3.4.8.5 1.3.5l.9-.1.8-.3v.8l-.8.2a5 5 0 0 1-1 .1 3 3 0 0 1-1.3-.3 2.2 2.2 0 0 1-1.1-.9v-1.5c-.1-.6-.1-1.1 0-1.5.3-.4.6-.8 1-1 .3-.2.7-.3 1.2-.3zm0 .7c-.4 0-.7.1-1 .4-.2.3-.4.6-.4 1.1h2.7c0-.4-.1-.8-.3-1-.2-.5-.5-.5-1-.5zm6.2-.7c.6 0 1.1.2 1.5.7.4.4.6 1 .6 2s-.2 1.7-.5 2.1c-.5.5-1 .7-1.7.7-.3 0-.7 0-1-.2-.3-.2-.5-.3-.6-.6v3.1h-1v-7.7h.9v.6l.8-.5.9-.2zm-.2.7c-.6 0-1 .2-1.2.5-.2.3-.3.7-.3 1.4v.1c0 .7 0 1.2.3 1.6.2.3.6.4 1.2.4.3.1.6.1.8-.2.2-.1.4-.4.5-.7l.1-1c0-.8 0-1.3-.3-1.6-.3-.3-.6-.5-1.1-.5zm4.6-2.9v3c.2-.3.4-.5.7-.6l1-.2c.7 0 1.1.1 1.5.4.3.4.5.9.5 1.5v3.5h-1v-3.4c.1-.9-.2-1.3-1-1.3-.7 0-1.1.2-1.3.5-.3.5-.4.8-.4 1.5v2.7h-.8v-7.6zm0 0" style="fill:none;stroke:#fff;stroke-width:3;stroke-linecap:butt;stroke-linejoin:round;stroke-miterlimit:10;stroke-opacity:.6" transform=" rotate(  340 98.2188 157.73) "/> <g style="fill:#212121;fill-opacity:1" transform=" rotate(  340 98.2188 157.73) ">  <use xlink:href="#o" x="67.7" y="153.7"/>  <use xlink:href="#n" x="73.2" y="153.7"/>  <use xlink:href="#p" x="78.8" y="153.7"/>  <use xlink:href="#q" x="81.3" y="153.7"/>  <use xlink:href="#r" x="87.5" y="153.7"/>  <use xlink:href="#glyph1-18" x="91.1" y="153.7"/>  <use xlink:href="#s" x="93.7" y="153.7"/>  <use xlink:href="#j" x="96.5" y="153.7"/>  <use xlink:href="#t" x="102.5" y="153.7"/>  <use xlink:href="#l" x="107.3" y="153.7"/>  <use xlink:href="#k" x="112.9" y="153.7"/>  <use xlink:href="#u" x="119.1" y="153.7"/> </g> <path d="M3.8 2C3.8 3 3 3.8 2 3.8S.3 3 .3 2a1.7 1.7 0 1 1 3.5 0zm0 0" style="fill:#fdfdfa;fill-opacity:1;fill-rule:nonzero;stroke:#3f3f35;stroke-width:.5;stroke-linecap:butt;stroke-linejoin:miter;stroke-miterlimit:4;stroke-opacity:1" transform="translate(423.25372,108.65823)"/> <path d="M428.3 128.6c0 .9-.3 1.6-.6 2.2-.3.6-.7 1-1.5 1.3l1.7 1.8h-1.3l-1.4-1.7h-.2c-.8.1-1.4 0-2-.4a2.7 2.7 0 0 1-.9-1.3 4.9 4.9 0 0 1-.5-2c.1-.6.1-1.2.4-1.7.3-.8.6-1.1 1.1-1.4.5-.4 1.1-.5 1.9-.5.7.1 1.3.2 1.8.5s.8.6 1 1.2c.4.6.6 1.2.6 2zm-5.7 0c0 .9.2 1.6.6 2.1.4.5 1 .8 1.8.8s1.4-.3 1.7-.8c.4-.5.6-1.2.6-2.1 0-1-.2-1.6-.6-2.1-.3-.5-1-.8-1.7-.8-.8 0-1.4.3-1.8.8-.4.5-.6 1.2-.6 2zm11.6-1.8v5.4h-.7l-.2-.7-.7.5-1 .3c-.7 0-1.1-.3-1.6-.5-.2-.3-.3-.8-.3-1.5v-3.5h.8v3.5c0 .7.5 1.1 1.2 1.1.6.1 1 0 1.3-.4.2-.3.3-.8.3-1.4v-2.8zm2.1-2 .4.1.2.4-.2.5-.4.1-.3-.1-.2-.5c0-.1 0-.3.2-.3l.3-.2zm.5 2v5.4h-1v-5.4zm4.2-.1c.8 0 1.3.2 1.6.5.2.3.4.8.4 1.5v3.5h-.9v-3.5c0-.7-.4-1.3-1.1-1.3-.7 0-1 .2-1.3.6-.2.3-.3.7-.3 1.4v2.8h-1v-5.4h.9v.7c.3-.3.6-.5.9-.5l.8-.3zm5.8 5.6c-.5 0-.9-.1-1.3-.3-.3-.2-.5-.5-.8-1-.3-.2-.4-.8-.4-1.4 0-.8.2-1.3.4-1.7.2-.4.5-.7.9-.9.3-.2.8-.3 1.3-.3h.7l.7.3-.3.7-.6-.2h-.6c-1 0-1.5.5-1.5 2 0 .6 0 1.1.3 1.5.4.3.7.5 1.2.5h.8l.6-.4v.9a2 2 0 0 1-.6.2h-.8zm1.8-5.5h1l1.1 3 .3.8.2.7.2-.6.3-.9 1-3h1.1l-2.4 6c-.2.7-.4 1.1-.7 1.4-.3.2-.7.4-1.3.4h-.4l-.3-.2v-.6h.6c.3 0 .6 0 .7-.2l.5-.7.3-.7zm0 0" style="fill:none;stroke:#fff;stroke-width:3;stroke-linecap:butt;stroke-linejoin:round;stroke-miterlimit:10;stroke-opacity:.6" transform="rotate(  340 427.004 110.66) translate(-12.121188,-25.496293)"/> <g style="fill:#212121;fill-opacity:1" transform=" rotate(  340 427.004 110.66) ">  <use xlink:href="#v" x="408.9" y="106.7"/>  <use xlink:href="#w" x="416.7" y="106.7"/>  <use xlink:href="#p" x="422.9" y="106.7"/>  <use xlink:href="#q" x="425.5" y="106.7"/>  <use xlink:href="#x" x="431.7" y="106.7"/>  <use xlink:href="#y" x="436.5" y="106.7"/> </g> <use style="fill:#fdfdfa;fill-opacity:1;fill-rule:nonzero;stroke:#3f3f35;stroke-width:.5;stroke-linecap:butt;stroke-linejoin:miter;stroke-miterlimit:4;stroke-opacity:1" transform="translate(440.44682,163.5175)" xlink:href="#reuse-0"/> <path d="M427.7 161.5h-.9v-3.3h-3.6v3.3h-1v-7.1h1.1v3h3.5v-3h1zm3.9-5.5c.6 0 1.1.3 1.4.6.3.2.5.6.5 1.3v3.6h-.6l-.2-.8c-.3.5-.5.6-.8.7l-.9.2c-.6 0-1.1-.1-1.4-.4-.3-.2-.4-.6-.4-1.2 0-.5.2-1 .6-1.2.4-.3 1-.5 2-.5h.7v-.3c.1-.5.1-.8-.2-1l-.8-.2-.8.1-.7.3-.2-.7.8-.3 1-.1zm1 3h-.8c-.6 0-1 .1-1.3.2-.3.2-.5.5-.5.8 0 .3 0 .6.3.7l.8.2c.4.1.8-.1.9-.4.6-.2.7-.5.7-1.1zm5.2-3c.6 0 1 .3 1.4.6.3.2.5.7.5 1.4v3.5h-.9v-3.4c0-.9-.4-1.3-1.2-1.3-.6 0-1 .2-1.2.5-.2.3-.4.8-.4 1.4v2.8h-1v-5.3h1v.7c.3-.3.6-.5.9-.6.1-.3.5-.3.9-.3zm6.2 0c.5 0 1 .3 1.3.6.4.2.6.7.6 1.4v3.5h-.9v-3.4c0-.9-.4-1.3-1.2-1.3-.6 0-1 .2-1.2.5-.3.3-.4.8-.4 1.4v2.8h-.9v-5.3h.8v.7h.2c.1-.3.3-.5.7-.6.3-.3.6-.3 1-.3zm4-1.9s.2 0 .3.2l.2.4c0 .2 0 .3-.2.4l-.3.2c-.2 0-.3 0-.4-.3l-.1-.3.1-.4.4-.3zm.4 2v5.5h-.9v-5.4zm2.6-2.1v2.8c0-.2.3-.3.6-.5.4-.2.6-.2 1-.2.7-.1 1.2.2 1.6.7.4.4.8 1.1.8 2-.1 1-.4 1.7-.8 2.2-.4.4-.9.6-1.6.6-.4 0-.6 0-1-.2l-.6-.6-.4.7h-.5V154zm1.5 2.7c-.6.1-1 .3-1.2.6-.2.3-.3.8-.3 1.5s0 1.2.3 1.6c.2.3.6.5 1.2.5.5 0 .9-.2 1-.5.4-.4.5-.9.5-1.6 0-1.3-.5-2-1.5-2zM458.3 156c.6 0 1.1.3 1.4.6.3.2.5.6.5 1.3v3.6h-.6l-.2-.8c-.4.5-.5.6-.8.7l-1 .2c-.6 0-1-.1-1.3-.4-.3-.2-.3-.6-.3-1.2-.1-.5 0-1 .5-1.2.4-.3 1-.5 2-.5h.7v-.3c.1-.5.1-.8-.2-1l-.8-.2-.8.1-.7.3-.2-.7.8-.3 1-.1zm1 3h-.8c-.5 0-1 .1-1.3.2-.3.2-.4.5-.4.8 0 .3 0 .6.2.7l.8.2c.3.1.8-.1 1-.4.5-.2.6-.5.6-1.1zm3.5 2.5h-1V154h1.1Zm0 0" style="fill:none;stroke:#fff;stroke-width:3;stroke-linecap:butt;stroke-linejoin:round;stroke-miterlimit:10;stroke-opacity:.6" transform=" rotate(  340 444.195 165.516) "/> <g style="fill:#212121;fill-opacity:1" transform=" rotate(  340 444.195 165.516) ">  <use xlink:href="#z" x="421.3" y="161.5"/>  <use xlink:href="#n" x="428.7" y="161.5"/>  <use xlink:href="#q" x="434.3" y="161.5"/>  <use xlink:href="#q" x="440.5" y="161.5"/>  <use xlink:href="#p" x="446.7" y="161.5"/>  <use xlink:href="#A" x="449.3" y="161.5"/>  <use xlink:href="#n" x="455.4" y="161.5"/>  <use xlink:href="#B" x="461" y="161.5"/> </g></svg>