<svg xmlns="http://www.w3.org/2000/svg" xmlns:xlink="http://www.w3.org/1999/xlink" viewBox="0 0 497 279"> <defs>  <path d="M3.8 2A1.7 1.7 0 1 1 .3 2a1.7 1.7 0 0 1 3.5 0zm0 0" style="fill:#fdfdfa;fill-opacity:1;fill-rule:nonzero;stroke:#3f3f35;stroke-width:.5;stroke-linecap:butt;stroke-linejoin:miter;stroke-miterlimit:4;stroke-opacity:1" id="reuse-0"/> </defs> <defs overflow="visible" style="stroke:none">  <path id="C" d="M.4 0 2-8h1.2l-.1 1.3a7 7 0 0 1 .7-.6c.2-.3.5-.5.9-.7l1.1-.2c.7 0 1.2.1 1.5.5.4.4.7.9.7 1.5v.7l-.4.6L6.7 0H5.2l1.1-5a9 9 0 0 0 .1-.7v-.4c.1-.6-.2-.9-.9-.9-.3 0-.6.2-1 .4s-.9.6-1.1 1c-.4.6-.8 1.3-1 2.1L1.8 0Zm0 0"/>  <path id="B" d="m2.8 3.6-1.4-.1-1-.5V1.9l1 .4 1.4.2c.6 0 1-.2 1.5-.5.4-.2.7-.7.7-1.4l.3-.6a21.2 21.2 0 0 1 .2-1.5L4.4-.3C4 0 3.4.2 3 .2c-.7 0-1.3-.3-1.7-.7C1-1 .7-1.7.7-2.5A8 8 0 0 1 1-4.8a6.3 6.3 0 0 1 .8-1.7A4 4 0 0 1 3-7.7a3 3 0 0 1 1.7-.5c.5 0 1 .2 1.3.4l.7 1L7.4-8h.9L6.4.5c-.2 1-.6 1.9-1.2 2.4-.7.5-1.4.7-2.4.7ZM3.3-1c.4 0 .7-.1 1-.3l1.1-1L6-3.8a5.7 5.7 0 0 0 .2-1.7c0-.4 0-.8-.2-1.1-.3-.4-.7-.5-1.2-.5-.4.1-.8.2-1.1.4l-.9 1-.5 1.5c-.3.5-.3 1-.3 1.6 0 1.1.5 1.7 1.3 1.7Zm0 0"/>  <path id="A" d="m.4 0 2.4-11.4h1.4l-.7 3-.2.9-.3 1h.1l.7-.8c.2-.2.5-.5.9-.6.3-.2.7-.3 1.1-.3.6 0 1.2.2 1.5.5.4.4.5.9.5 1.7v.5l-.1.5-1 5H5.2l1.1-5 .3-1c-.1-.4-.1-.6-.3-.8-.3-.2-.5-.3-.8-.3-.5.1-.7.1-1.1.4-.4.2-.8.6-1.1 1.1-.4.6-.6 1.3-.8 2.1L1.7 0Zm0 0"/>  <path id="z" d="M3.7.2c-.9 0-1.6-.3-2.2-.8C1-1 .7-1.8.7-2.8c0-.8.1-1.5.3-2a5.5 5.5 0 0 1 1-1.9 4 4 0 0 1 1.2-1.1 3.5 3.5 0 0 1 1.7-.4L6-8c.4 0 .7.1 1 .2l-.5 1.1-.7-.3A3 3 0 0 0 5-7c-.6 0-1 0-1.6.4-.4.5-.7 1-1 1.6a5.8 5.8 0 0 0-.3 2.1c-.1.6.1 1.1.4 1.5.5.3.8.4 1.3.4.4 0 .7 0 1-.1l1-.3v1l-1 .4-1.1.2Zm0 0"/>  <path id="y" d="M3.2-9.4c-.2 0-.4 0-.5-.2-.2 0-.2-.3-.2-.4s0-.6.2-.8l.7-.2c.4 0 .6.2.6.6 0 .4 0 .6-.2.8l-.6.2ZM.4 0l1.7-8h1.4L1.7 0Zm0 0"/>  <path id="x" d="m.6 0 2.3-10.7h1.9l1 8.7 4.8-8.7h2L10.5 0H9.1l1.3-6.4a171.5 171.5 0 0 1 .8-3L6 0H5L3.7-9.4a28.1 28.1 0 0 1-.3 1.9l-.2 1L2 0Zm0 0"/>  <path id="w" d="M3.6.2C2.7.2 2-.1 1.5-.7 1-1.2.7-1.9.7-2.9a6.6 6.6 0 0 1 1.1-3.6c.3-.5.8-1 1.3-1.2a3 3 0 0 1 1.6-.5c.8 0 1.4.2 1.8.5.3.3.5.8.5 1.4 0 .5 0 1-.5 1.3-.3.5-.8 1-1.5 1.1-.7.3-1.6.4-2.7.4h-.2v.6c-.1.6.1.9.4 1.4.3.5.8.6 1.4.6.4-.1.7-.1 1-.2l1.2-.5v1.2L4.9 0 3.6.2ZM2.3-4.5 4-4.7c.6-.1 1-.3 1.3-.5.3-.3.5-.6.5-1 0-.3-.1-.5-.3-.6-.2-.2-.5-.3-.8-.3-.5.1-1 .2-1.4.7-.5.4-.8 1-1 1.9Zm0 0"/>  <path id="v" d="m.4 0 2.4-11.4h1.4L3.2-7a35.4 35.4 0 0 1-.7 2.8L6.3-8H8L4.4-4.6 6.6 0H5L3.4-3.8l-1 .9L1.6 0Zm0 0"/>  <path id="u" d="M2.9.2c-.6 0-1.2-.3-1.6-.7C1-1 .7-1.7.7-2.5s.1-1.7.3-2.3a6.3 6.3 0 0 1 .8-1.7 4 4 0 0 1 1.3-1.2 3 3 0 0 1 1.6-.5c.5 0 1 .2 1.3.4l.7 1L7.3-8h1L6.5 0h-1l.2-1.5A6 6 0 0 1 4.3-.3C4 0 3.4.2 3 .2ZM3.3-1c.4 0 .8-.1 1.1-.3a4 4 0 0 0 1-1.1 6 6 0 0 0 .8-2.4v-.7c0-.4-.1-.8-.4-1.1-.2-.4-.6-.5-1-.5s-.7.1-1 .4c-.5.2-.8.6-1.1 1l-.4 1.5c-.3.4-.3.9-.3 1.6 0 .6 0 1 .4 1.3.2.2.5.3 1 .3Zm0 0"/>  <path id="t" d="M.6 0 3-10.7h1.2l-2 9.5h4.1L6 0Zm0 0"/>  <path d="M1.4 0v-10.7h6.2V0Zm.8-.8h4.6v-9.1H2.2Zm0 0"/>  <path id="r" d="M9.2-7.1 7.2 0h-.7L5-4.7a30.2 30.2 0 0 1-.3-1v-.5l-.3.7-.1.8L2.9 0H2L.1-7.1h1L2-2.8c.4.3.4.6.5 1v.6A10.5 10.5 0 0 1 3-2.8l1.2-4.3H5l1.4 4.3.2 1 .2.6.1-.7.2-.9 1.1-4.3Zm0 0"/>  <path id="q" d="M3 0c-.5 0-.9 0-1.3-.1-.3-.3-.6-.6-.7-.9-.4-.5-.5-1-.5-1.7 0-.6.2-1.1.5-1.5 0-.6.4-.8.8-1.1.2-.1.8-.2 1.2-.2l.8.1.7.2-.3.8-.6-.2H3c-1-.1-1.5.6-1.5 1.9 0 .7 0 1 .3 1.4.3.5.7.6 1.2.6h.8l.6-.3v.8a2 2 0 0 1-.6.2H3Zm0 0"/>  <path id="p" d="M1 0v-7.1h.9v6.3h3V0Zm0 0"/>  <path id="o" d="M5.3-5.4V0h-.7l-.1-.7c-.3.3-.5.5-.9.6l-.9.2C2.1 0 1.6-.1 1.3-.4 1-.7.8-1.2.8-1.8v-3.6h.9v3.5c0 .8.3 1.3 1.2 1.3.6 0 1-.2 1.1-.5.3-.4.5-.9.5-1.5v-2.8Zm0 0"/>  <path id="n" d="M2.8 0C2 0 1.4 0 1-.5.7-1 .5-1.8.5-2.6c0-1.1.3-1.8.7-2.2.4-.5.8-.7 1.6-.7.4 0 .7.1 1 .3a2 2 0 0 1 .6.5v-2.8h.9V0h-.7l-.1-.7a2 2 0 0 1-.8.6l-.9.1Zm0-.5c.8-.1 1.1-.3 1.4-.6.1-.3.2-.8.2-1.4v-.2c0-.6 0-1.1-.3-1.5-.2-.4-.6-.5-1.2-.5-.5 0-.9.2-1 .5-.4.4-.5 1-.5 1.5.1.7.1 1.2.4 1.5.3.4.6.6 1 .6Zm.1-.1"/>  <path id="m" d="M1.9 0h-1v-7.1H5v.8H2v2.5h2.8v.8h-3Zm0 0"/>  <path d="m2.8-5.5.8.3a2 2 0 0 1 .8.4l.3-.6h.6V.1c0 .8-.2 1.3-.6 1.7-.4.4-1 .6-1.8.6S1.5 2.3 1 2.1v-.9c.6.4 1.3.6 2 .6.5-.1.9-.3 1-.5.3-.3.4-.7.4-1.1v-.9c-.3.5-.9.8-1.6.8C2 0 1.5-.1 1-.6c-.3-.5-.5-1.2-.5-2 0-1.1.2-1.7.6-2.2.4-.4 1-.7 1.6-.7Zm0 .8c-.3 0-.6.2-.9.5-.3.4-.4.9-.4 1.5 0 .7 0 1.2.3 1.7.3.2.6.4 1 .4.7 0 1.1-.2 1.4-.4.1-.3.2-.8.2-1.5v-.2c0-.7 0-1.2-.3-1.5-.3-.4-.7-.5-1.2-.5ZM1.7-7.6v2.9l.7-.5c.2-.2.6-.3 1-.3.6 0 1.2.3 1.6.8.4.4.6 1.1.6 1.9C5.6-1.7 5.4-1 5-.6c-.4.6-1 .7-1.6.7-.4-.1-.8-.1-1-.2l-.7-.6-.2.7H.8v-7.6Zm1.5 2.9c-.5 0-1 .1-1.1.5-.3.2-.4.8-.4 1.5s.1 1.2.3 1.5c.3.4.7.6 1.3.6.4 0 .7-.2 1-.6.3-.3.4-.8.4-1.5 0-1.3-.5-2-1.5-2ZM5-2c0 .8-.2 1.3-.7 1.7-.3.2-1 .3-1.8.3H1.4a3 3 0 0 1-.9-.2v-.9a5 5 0 0 0 1 .3l.9.1c.6 0 1.1 0 1.3-.3.3-.2.4-.5.4-.8L4-2.4 3.5-3a7.2 7.2 0 0 0-1-.3c-.8-.2-1.2-.5-1.5-.8C.7-4.4.6-5 .6-5.4s0-.7.3-1a2 2 0 0 1 .8-.6 3 3 0 0 1 1.2-.2h1a5 5 0 0 1 1.1.5l-.5.6a4.5 4.5 0 0 0-.7-.2l-1-.2c-.3 0-.6.1-.9.3-.3.2-.4.5-.4.8 0 .2 0 .4.2.6 0 .2.2.3.3.4l1.1.4.9.5.8.7.2.8ZM1.7-7.6v4.8L2-3v-.3l.4-.2L4-5.4h1L2.9-3l2.4 3H4.2L2.3-2.5l-.6.5v2H.8v-7.6Zm0 0v3c.3-.4.4-.5.7-.6.3-.2.7-.3 1-.3.7 0 1.2.2 1.6.5.2.3.4.8.4 1.5V0h-.9v-3.4c0-.9-.4-1.3-1.2-1.3-.6 0-1 .2-1.2.5-.3.3-.4.8-.4 1.4V0H.8v-7.6Zm0 0"/>  <path id="s" d="M4.3-1.5c0 .5-.2 1-.5 1.2-.4.3-1 .4-1.6.4l-1-.1-.7-.2V-1l.8.3h1.8l.4-.7-.1-.4L3-2a7.5 7.5 0 0 0-.8-.4 7.5 7.5 0 0 1-1-.4l-.4-.5L.5-4c0-.5.2-.8.6-1 .3-.4.8-.6 1.4-.6l1 .2a4 4 0 0 1 .6.4l-.1.6-.8-.2-.7-.1-.9.1c-.2.2-.3.3-.3.6s0 .2.2.3l.4.3.8.3.9.4.4.5c.3.2.3.4.3.7Zm0 0"/>  <path d="M7.2-3.6c0 .8-.1 1.4-.4 2-.2.5-.6 1-1 1.2-.7.4-1.3.5-2 .5S2.6-.1 2.1-.4A2.7 2.7 0 0 1 1-1.6a4.9 4.9 0 0 1-.4-2c0-.7.1-1.4.4-1.9.2-.6.6-1 1-1.3.7-.2 1.3-.5 2-.5.5 0 1.1.3 1.6.5s1 .7 1.2 1.3c.3.5.4 1.2.4 2Zm-5.6 0c0 1 .1 1.6.4 2.1.5.6 1.1.8 2 .8s1.3-.2 1.7-.8c.3-.5.5-1.2.5-2 .1-1.1 0-1.8-.4-2.3-.5-.4-1.1-.7-1.9-.7s-1.4.3-1.8.8c-.4.5-.5 1.2-.5 2.1Zm0 0"/>  <path id="l" d="M5.5-2.7c0 .9-.2 1.7-.7 2-.4.7-1 .9-1.8.9-.5-.2-.9-.2-1.3-.4-.3-.2-.6-.6-.7-1C.6-1.6.5-2 .5-2.7c0-.9.3-1.6.7-2 .5-.5 1-.8 1.8-.8.5 0 1 .2 1.3.5.4 0 .7.4.9.9.2.2.3.7.3 1.3Zm-4 0c0 .7 0 1.2.3 1.5.3.4.7.6 1.2.6.6 0 1-.2 1.2-.6.3-.3.4-.8.4-1.5s-.1-1.1-.4-1.5c-.2-.3-.6-.5-1.2-.5-.5 0-1 .2-1.2.5-.2.4-.3.9-.3 1.5Zm0 0"/>  <path id="k" d="M2.6-.6H3l.4-.2v.7L3 0H1.7l-.6-.5-.1-1v-3.3H.2V-5l.7-.5.4-1h.5v1h1.5v.8H1.8v3.1c0 .3 0 .6.2.7l.6.3Zm0 0"/>  <path id="j" d="M1.7 0H.8v-7.6h1Zm0 0"/>  <path id="i" d="M3.4-5.5c.7 0 1.2.3 1.6.7.4.5.6 1.2.6 2.1 0 1-.2 1.7-.6 2-.4.7-1 .9-1.6.9-.4-.2-.8-.2-1-.3l-.7-.6v3.1H.8v-7.8h.8v.8h.2c.2-.4.3-.5.6-.6.2-.2.6-.3 1-.3Zm-.2.8c-.5 0-.9.1-1.1.5-.2.2-.4.7-.4 1.2v.3c0 .7.1 1.2.3 1.5.3.4.7.6 1.3.6.3 0 .6-.1.7-.4l.5-.6.2-1.1c0-.6-.1-1.1-.4-1.5-.2-.3-.6-.5-1-.5Zm0 0"/>  <path id="h" d="m5.5 0-1-2.2H1.9L.9 0H0l2.8-7.2h.8L6.4 0ZM4.3-3l-.8-2.2v-.3l-.3-.4v-.3l-.2.6a8 8 0 0 1 0 .4L2-3Zm0 0"/>  <path id="g" d="M0-5.4h1l1 3 .4 1 .2.6.2-.7c0-.3.2-.5.2-.8l1-3h1.2L2.8.6c-.2.6-.4 1.1-.7 1.4-.3.3-.7.4-1.3.4H.1v-.9h.6c.3.2.6.2.7 0L2 .7l.2-.7Zm0 0"/>  <path id="f" d="M2.9-5.5c.6 0 1.1.2 1.4.5.3.3.5.7.5 1.3V0h-.6L4-.8c-.3.3-.5.6-.8.8h-1c-.5 0-1 0-1.3-.3C.6-.5.5-.9.5-1.5c0-.5.2-1 .5-1.2.5-.3 1-.5 2-.5h.8v-.3c.2-.5.2-.8-.2-1l-.8-.2H2l-.7.5L1-5l1-.3.9-.2Zm1 2.9h-.8c-.6 0-1 .1-1.4.3-.1.3-.3.5-.3.8 0 .3 0 .5.2.7l.7.2c.5 0 .9-.1 1.2-.4.3-.2.4-.6.4-1Zm.1 0"/>  <path id="e" d="M1-7.1h2c1 0 1.6.1 2 .4.5.2.7.7.7 1.3 0 .5-.1.8-.3 1-.4.4-.6.6-1 .7l.8.3c.2 0 .4.2.5.5.3.2.3.5.3.9 0 .6-.3 1-.7 1.5-.5.3-1 .5-1.8.5H1Zm.9 3h1.3c.6.1 1 .1 1.3-.3.2-.2.3-.5.3-.9s-.1-.6-.4-.7c-.4-.3-.8-.4-1.4-.4H2Zm0 .8v2.5h1.4c.7 0 1 0 1.3-.2.4-.4.4-.7.4-1.1s-.1-.7-.4-.9c-.2-.2-.6-.3-1.4-.3Zm0 0"/>  <path id="d" d="M3.4-5.5c.7 0 1.2.2 1.6.5.2.3.4.8.4 1.5V0h-.9v-3.4c0-.9-.4-1.3-1.2-1.3-.6 0-1 .1-1.2.5-.3.2-.4.8-.4 1.4V0H.8v-5.4h.8v.8h.2c.2-.4.3-.5.7-.7l1-.2Zm0 0"/>  <path id="c" d="M3-5.5c.3 0 .7.1 1 .3a2 2 0 0 1 1 .9v1.8H1.5c0 .5.1 1 .4 1.4.3.3.7.4 1.3.4H4l.9-.3v.8L4 0a5 5 0 0 1-1 0 3 3 0 0 1-1.2-.1 2.2 2.2 0 0 1-1-1.1c0-.2-.2-.8-.2-1.3-.1-.7 0-1.2.2-1.6.2-.5.5-.9.9-1 .3-.2.7-.4 1.2-.4Zm0 .8c-.6 0-.9.1-1 .4-.4.2-.6.6-.6 1.1h2.8c0-.5-.1-.8-.3-1.1-.2-.3-.5-.4-1-.4Zm0 0"/>  <path id="b" d="M3.3-5.5H4l-.1 1.1-.3-.3h-.3c-.3 0-.5 0-.8.2l-.5.7-.3 1V0H.8v-5.4h.8v1h.2l.6-.6c.3-.3.6-.5 1-.5Zm0 0"/>  <path id="a" d="M4-3.8h2.6v3.5A8.4 8.4 0 0 1 4 .1C3.3 0 2.7-.1 2.2-.3A3 3 0 0 1 1-1.6c-.3-.6-.4-1.2-.4-2 0-.7.2-1.4.4-1.9a3 3 0 0 1 1.3-1.3c.7-.2 1.2-.4 2-.4h1.1a5 5 0 0 1 1 .5l-.3.7a7.4 7.4 0 0 0-.9-.3l-1-.2c-.7 0-1.4.3-1.9.8-.4.5-.7 1.2-.7 2.1-.1.6 0 1.1.2 1.6.2.4.5.7.9 1 .3.3.9.4 1.5.4a5.8 5.8 0 0 0 1.4-.2V-3H4.1Zm0 0"/>  <path d="M1 0v-7.1h4V0Zm.4-.5h3.1v-6.1h-3Zm.1 0"/> </defs> <image xlink:href="svg/8/50_2.jpg" width="497" height="279"/> <path d="M3.7 2A1.7 1.7 0 1 1 .2 2a1.7 1.7 0 0 1 3.5 0zm0 0" style="fill:#fdfdfa;fill-opacity:1;fill-rule:nonzero;stroke:#3f3f35;stroke-width:.5;stroke-linecap:butt;stroke-linejoin:miter;stroke-miterlimit:4;stroke-opacity:1" transform="translate(275.36492,78.588007)"/> <path d="M267 88.5h2.7V92a8.4 8.4 0 0 1-2.7.4c-.7 0-1.3-.2-2-.5a3 3 0 0 1-.8-1.2c-.5-.7-.7-1.2-.7-2 .1-.7.3-1.4.6-2a3 3 0 0 1 1.2-1.1c.7-.4 1.3-.6 2-.6l1.2.1a5 5 0 0 1 1 .4l-.5.7a7.4 7.4 0 0 0-.7-.2h-1c-.9-.2-1.5 0-2 .5-.5.6-.7 1.3-.7 2.2 0 .6 0 1 .2 1.5.2.4.5.8 1 1 .2.3.7.4 1.4.4a5.8 5.8 0 0 0 1.5-.2v-2.1H267zm6.7-1.7h.6l-.1 1h-.6l-.8-.1-.6.8-.2 1v2.7h-.8v-5.3h.7V88h.1l.7-1c.3 0 .6-.2 1-.2zm3.5 0c.4 0 .8.2 1.1.3a2 2 0 0 1 .8.9c.2.3.3.7.3 1.2v.6h-3.7c0 .6.2 1 .5 1.2.3.5.7.6 1.2.6h1l.6-.4v.8l-.7.3a5 5 0 0 1-1 0 3 3 0 0 1-1.3-.1 2.2 2.2 0 0 1-.9-1.2c-.1-.3-.3-.8-.3-1.4s0-1 .2-1.5l.9-1c.4-.1.8-.2 1.3-.2zm0 .7c-.6 0-.9.2-1.1.5-.3.2-.4.6-.5 1.1h2.8c0-.5 0-.9-.3-1.1-.1-.3-.5-.5-1-.5zM282.8 86.8c.5 0 .8.2 1.2.3a2 2 0 0 1 .7.9c.3.3.3.7.3 1.2v.6h-3.7c0 .6.2 1 .5 1.2.3.5.7.6 1.3.6h.9l.8-.4v.8l-.8.3a5 5 0 0 1-1 0 3 3 0 0 1-1.3-.1 2.2 2.2 0 0 1-1-1.2c-.1-.3-.2-.8-.2-1.4s0-1 .2-1.5c.3-.4.5-.7.9-1 .3-.1.7-.2 1.2-.2zm0 .7c-.4 0-.8.2-1 .5-.3.2-.4.6-.4 1.1h2.6c0-.5 0-.9-.2-1.1-.2-.3-.6-.5-1-.5zm6.2-.7c.6 0 1 .2 1.4.5.3.3.5.7.5 1.5v3.5h-.9v-3.5c0-.8-.4-1.2-1.2-1.2-.6 0-1 .1-1.2.4-.2.4-.3.9-.3 1.5v2.8h-1v-5.4h.9v.7l.8-.6 1-.2zM269.7 97h2c1.1 0 1.7.3 2.1.6.6.1.8.6.8 1.2-.1.5-.2.8-.6 1 0 .5-.4.6-.9.7l.9.3c.2 0 .4.2.5.5l.2.9c0 .6-.2 1.1-.7 1.5-.4.3-1 .5-1.8.5h-2.5zm1 3.2h1.1c.8-.1 1.2-.1 1.4-.4.2-.2.4-.5.4-.8s-.2-.7-.6-.9c0-.2-.6-.3-1.2-.3h-1.2zm-.1.8v2.4h1.4c.7 0 1 0 1.4-.3.2-.3.4-.6.4-1.1s-.2-.6-.4-.8c-.4-.2-.7-.2-1.4-.2zm7.5-2.2c.7 0 1.2.1 1.5.4.3.3.4.7.4 1.4v3.6h-.6l-.2-.8-.7.7-1 .2c-.7 0-1.1-.1-1.4-.4-.2-.2-.4-.6-.4-1.2 0-.5.3-1 .6-1.2.5-.3 1.1-.5 2-.5h.9v-.3c0-.5-.1-.8-.3-1l-.8-.2-.8.1c-.3 0-.5.2-.7.3l-.3-.7.8-.2 1-.2zm1.1 2.8h-.8c-.7 0-1.1.2-1.4.4-.2.1-.4.4-.4.7 0 .3.1.5.4.7l.6.2c.5 0 .8-.1 1.1-.4.3-.2.5-.6.5-1.1zm1.7-2.8h1l.9 3 .5 1 .1.6.4-.7.1-.7 1.1-3.1h1l-2.3 5.9-.8 1.4c-.3.3-.7.4-1.2.4h-.7v-.9h.6c.3.2.4.2.7 0l.5-.7.2-.8zm0 0" style="fill:none;stroke:#fff;stroke-width:3;stroke-linecap:butt;stroke-linejoin:round;stroke-miterlimit:10;stroke-opacity:.6" transform=" rotate(  340 279.113 80.5898) "/> <g style="fill:#212121;fill-opacity:1" transform=" rotate(  340 279.113 80.5898) ">  <use xlink:href="#a" x="263" y="92.3"/>  <use xlink:href="#b" x="270.3" y="92.3"/>  <use xlink:href="#c" x="274.2" y="92.3"/>  <use xlink:href="#c" x="279.9" y="92.3"/>  <use xlink:href="#d" x="285.5" y="92.3"/>  <use xlink:href="#e" x="268.8" y="104.2"/>  <use xlink:href="#f" x="275.3" y="104.2"/>  <use xlink:href="#g" x="280.9" y="104.2"/> </g> <use style="fill:#fdfdfa;fill-opacity:1;fill-rule:nonzero;stroke:#3f3f35;stroke-width:.5;stroke-linecap:butt;stroke-linejoin:miter;stroke-miterlimit:4;stroke-opacity:1" transform="translate(236.26466,113.4978)" xlink:href="#reuse-0"/> <path d="m222.3 127.2-.8-2.2h-2.8l-.9 2.2h-1l3-7.2h.7l2.8 7.2zm-1.1-3-.8-2.2-.1-.3-.1-.4-.2-.4-.1.6a8 8 0 0 1-.1.5l-.8 2.2zm5.5-2.5c.6 0 1.2.3 1.6.7.4.6.6 1.2.6 2 0 1.1-.2 1.8-.6 2.3-.4.3-1 .6-1.6.6-.4 0-.8-.1-1-.3l-.7-.5v3.1h-.9v-7.8h.7l.2.8.6-.6c.4-.2.7-.3 1-.3zm-.2.8c-.5 0-1 .1-1.1.4-.4.3-.4.8-.4 1.4v.2c0 .5.1 1.2.3 1.5.2.4.7.6 1.2.6s.6-.1.8-.3c.3-.3.4-.4.5-.7l.2-1.1c0-.6-.2-1.1-.4-1.5-.2-.4-.6-.5-1-.5zm6.3-.8c.7 0 1.2.3 1.6.7.4.6.6 1.2.6 2 0 1.1-.2 1.8-.6 2.3-.4.3-1 .6-1.6.6-.4 0-.7-.1-1-.3-.3 0-.5-.3-.6-.5h-.2v3.1h-.6v-7.8h.6v.8c.4-.3.6-.6.9-.6.1-.2.5-.3.9-.3zm-.1.8c-.7 0-1 .1-1.2.4-.2.3-.3.8-.3 1.4v.2c0 .5 0 1.2.3 1.5.2.4.5.6 1.2.6.3 0 .6-.1.8-.3l.5-.7v-1.1c.1-.6 0-1.1-.2-1.5-.3-.4-.6-.5-1.1-.5zm4.6 4.7h-.9v-7.6h1zm3.7-5.5c.6 0 1 .1 1.4.3a2 2 0 0 1 .6 1c.2.2.3.7.3 1v.7h-3.7c0 .6.2 1 .5 1.3.3.4.7.5 1.2.5h1l.7-.4v.8l-.8.3a5 5 0 0 1-1 0 3 3 0 0 1-1.2-.2 2.2 2.2 0 0 1-1-1c-.2-.3-.3-.8-.3-1.4l.3-1.6.8-1c.4-.1.8-.2 1.3-.2zm0 .7c-.3 0-.6.2-1 .6-.1 0-.2.5-.3.9h2.7c0-.3-.1-.7-.4-.9-.2-.4-.5-.6-1-.6zm5.4 4.2h.4l.4-.3v.8l-.4.1h-1.3l-.6-.7-.2-.9v-3.1h-.7v-.5l.7-.3.4-1.1h.5v1.2h1.5v.7h-1.5v3.1c0 .3 0 .6.2.7l.6.3zm6.6-2.1c0 .9-.4 1.5-.9 2-.3.5-.9.9-1.7.9-.4-.1-.9-.2-1.3-.4l-.8-1c-.3-.4-.3-1-.3-1.5 0-.9.2-1.6.6-2 .5-.5 1-.9 1.9-.9.4.1.9.2 1.2.5.4.2.7.5.9.9.2.4.3.9.3 1.5zm-4.2 0c.1.5.1 1.1.4 1.5.3.4.8.6 1.2.6.6 0 1-.2 1.2-.6.4-.4.4-.9.4-1.5s-.1-1.1-.4-1.5c-.2-.4-.6-.5-1.2-.5-.4 0-1 .1-1.2.5-.2.4-.2 1-.2 1.5zm8.1-2.8c.6 0 1.1.3 1.4.5.4.3.5.8.5 1.5v3.5h-.8v-3.5c0-.7-.4-1.2-1.2-1.2-.6 0-1 .1-1.3.5-.2.3-.3.8-.3 1.4v2.8h-.9v-5.4h.7l.1.8h.1l.7-.7 1.1-.2zm0 0" style="fill:none;stroke:#fff;stroke-width:3;stroke-linecap:butt;stroke-linejoin:round;stroke-miterlimit:10;stroke-opacity:.6" transform=" rotate(  340 240.016 115.496) "/> <g style="fill:#212121;fill-opacity:1" transform=" rotate(  340 240.016 115.496) ">  <use xlink:href="#h" x="216.9" y="127.2"/>  <use xlink:href="#i" x="223.3" y="127.2"/>  <use xlink:href="#i" x="229.4" y="127.2"/>  <use xlink:href="#j" x="235.6" y="127.2"/>  <use xlink:href="#c" x="238.2" y="127.2"/>  <use xlink:href="#k" x="243.8" y="127.2"/>  <use xlink:href="#l" x="247.4" y="127.2"/>  <use xlink:href="#d" x="253.5" y="127.2"/> </g> <path d="M3.7 2C3.7 3 3 3.7 2 3.7A1.7 1.7 0 1 1 3.7 2zm0 0" style="fill:#fdfdfa;fill-opacity:1;fill-rule:nonzero;stroke:#3f3f35;stroke-width:.5;stroke-linecap:butt;stroke-linejoin:miter;stroke-miterlimit:4;stroke-opacity:1" transform="translate(232.39185,180.57141)"/> <path d="M217 166.6h-.9v-7.1h4v.8H217v2.5h2.8v.8H217zm8.8-2.6c0 .7-.2 1.4-.6 2-.5.5-1 .7-1.9.7-.3 0-.9 0-1.2-.3-.4-.2-.7-.4-1.1-1V164c-.1-.9 0-1.6.6-2 .4-.6 1-.8 1.8-.8.5 0 .9 0 1.2.3.4.2.7.5 1 1l.1 1.3zm-4 0c0 .5.1 1 .4 1.4.2.4.6.6 1.2.6.5 0 .9-.2 1.2-.5.2-.5.3-1 .3-1.6.1-.6-.1-.9-.3-1.4-.3-.5-.7-.6-1.3-.6-.5.1-.9.2-1.1.6-.3.3-.4.8-.4 1.4zm8-2.8c.7 0 1.2.1 1.5.4.3.4.5.9.5 1.5v3.5h-1v-3.4c.1-.9-.2-1.3-1-1.3-.8.1-1.1.2-1.4.5-.2.4-.3.8-.3 1.6v2.6h-.9v-5.3h.8l.1.7c.2-.3.4-.5.7-.6l1-.2zm5.5 5.5c-.7 0-1.2-.2-1.6-.7-.4-.4-.6-1-.6-2s.2-1.6.6-2.1c.4-.5 1-.7 1.6-.7.4 0 .8 0 1 .2a2 2 0 0 1 .7.6v-3h.9v7.6h-.7l-.2-.6a2 2 0 0 1-.7.5l-1 .2zm.2-.7c.5 0 1 0 1.1-.5.4-.3.4-.7.4-1.4v-.1c0-.7-.1-1.2-.3-1.6-.3-.3-.7-.4-1.3-.4-.4-.1-.8.1-1 .5-.4.4-.4.9-.4 1.5s.1 1 .4 1.5c.2.3.6.5 1 .5zm8.5.7c-.5 0-1-.2-1.4-.7-.6-.4-.7-1-.7-2s.1-1.6.6-2.1c.4-.5 1-.7 1.5-.7s.8 0 1 .2a2 2 0 0 1 .7.6h.1v-3h.7v7.6h-.5l-.2-.6a2 2 0 0 1-.8.5l-1 .2zm.3-.7c.5 0 .9 0 1.1-.5.2-.3.4-.7.4-1.4v-.1c0-.7-.2-1.2-.5-1.6-.1-.3-.5-.4-1.1-.4-.5-.1-.8.1-1 .5-.4.4-.5.9-.5 1.5s.1 1 .3 1.5c.4.3.7.5 1.2.5zm8.5-4.7v5.3h-.8l-.1-.6c-.2.2-.4.4-.7.5-.3.2-.7.2-1 .2-.7 0-1.1-.1-1.5-.4-.3-.3-.4-.8-.4-1.5v-3.5h.7v3.4c.1.9.5 1.3 1.3 1.3.7 0 1-.2 1.3-.5.2-.3.3-.8.3-1.4v-2.8zm-25.3 17.3v-7.2h1v6.4h2.9v.8zm7.2-5.5c.6 0 1.1.2 1.3.5.4.2.6.7.6 1.3v3.7h-.6l-.2-.8-.8.7-1 .2c-.5 0-1-.2-1.3-.4-.3-.3-.4-.7-.4-1.3 0-.5.2-1 .6-1.1.4-.3 1-.5 2-.5h.7v-.4c.1-.4.1-.7-.2-.9-.1-.2-.4-.3-.8-.3-.2 0-.5 0-.8.2l-.7.2-.1-.6c0-.1.4-.3.7-.3l1-.3zm1 2.9h-.7c-.7 0-1 .2-1.4.4-.3.1-.4.4-.4.7 0 .3 0 .5.2.7l.8.2c.4 0 .8-.2 1-.4.5-.3.6-.6.6-1.2zm4.7 2.7c-.4 0-.9-.1-1.2-.3-.4-.2-.7-.5-1-1l-.2-1.4c0-.7 0-1.3.3-1.7.2-.3.5-.7.9-.9.4-.2.8-.3 1.3-.3l.8.1.6.2-.3.7-.6-.1-.5-.1c-1.1 0-1.6.7-1.6 2 0 .7.1 1.2.4 1.5.2.3.6.5 1.1.5h.8l.6-.4v.9a2 2 0 0 1-.6.2h-.8zm0 0" style="fill:none;stroke:#fff;stroke-width:3;stroke-linecap:butt;stroke-linejoin:round;stroke-miterlimit:10;stroke-opacity:.6" transform=" rotate(  340 236.141 182.57) "/> <g style="fill:#212121;fill-opacity:1" transform=" rotate(  340 236.141 182.57) ">  <use xlink:href="#m" x="215.1" y="166.6"/>  <use xlink:href="#l" x="220.3" y="166.6"/>  <use xlink:href="#d" x="226.4" y="166.6"/>  <use xlink:href="#n" x="232.6" y="166.6"/>  <use xlink:href="#glyph0-22" x="238.7" y="166.6"/>  <use xlink:href="#n" x="241.3" y="166.6"/>  <use xlink:href="#o" x="247.5" y="166.6"/>  <use xlink:href="#p" x="226.6" y="178.6"/>  <use xlink:href="#f" x="231.8" y="178.6"/>  <use xlink:href="#q" x="237.4" y="178.6"/> </g> <use style="fill:#fdfdfa;fill-opacity:1;fill-rule:nonzero;stroke:#3f3f35;stroke-width:.5;stroke-linecap:butt;stroke-linejoin:miter;stroke-miterlimit:4;stroke-opacity:1" transform="translate(114.9445,16.173778)" xlink:href="#reuse-0"/> <path d="m107.4 22-2 7.3h-.7l-1.5-4.8-.2-.5V23.1l-.4.6-.1.9-1.5 4.6h-.8l-1.9-7.1h1l1 4.3c.3.3.3.7.4 1v.6a10.5 10.5 0 0 1 .4-1.6l1.3-4.4h.9l1.3 4.4.2 1 .2.6v-.7l.3-.9 1.1-4.3zm2.8 1.8c.6 0 1.1.1 1.4.4.4.3.5.7.5 1.4v3.6h-.6l-.2-.8c-.3.4-.5.6-.8.7l-1 .2c-.5 0-1-.1-1.3-.3-.2-.3-.4-.7-.4-1.3 0-.5.2-1 .6-1.2.4-.3 1-.5 2-.5h.7v-.3c.1-.5.1-.8-.1-1l-.9-.2-.8.1-.7.4-.2-.8.8-.2 1-.2zm1 2.8h-.8c-.6 0-1 .2-1.3.4-.3.1-.4.4-.4.7 0 .3 0 .6.2.7l.8.2c.3 0 .8-.1 1-.4.5-.2.6-.6.6-1.1zm7-2.7v5.3h-.7l-.1-.7c-.2.3-.5.5-.8.6l-1 .2c-.6 0-.9-.1-1.3-.3-.4-.5-.6-1-.6-1.6v-3.5h1v3.4c-.1.9.3 1.3.9 1.3s1.3-.2 1.4-.6c.3-.2.4-.7.4-1.3v-2.8zm5.2 3.8c0 .6-.2 1-.4 1.3-.5.2-1.1.3-1.7.3h-1l-.7-.3v-.8l.8.3 1 .1c.3 0 .6 0 .8-.2.3-.2.4-.4.4-.6l-.1-.3-.5-.5a7.5 7.5 0 0 0-.7-.2 7.5 7.5 0 0 1-1-.4l-.4-.5-.3-.7c0-.5.2-.8.6-1 .3-.4.8-.5 1.4-.5h1a4 4 0 0 1 .6.5l-.2.6-.7-.2-.7-.1c-.4 0-.7 0-.9.2-.2 0-.3.2-.3.3s0 .4.2.5l.4.3.8.4c.4 0 .6.2.9.3l.5.5c.2.2.2.4.2.7zm3.4-3.9c.6 0 1.1.1 1.4.4.3.3.5.7.5 1.4v3.6h-.7v-.8c-.5.4-.7.6-1 .7l-1 .2c-.5 0-1-.1-1.3-.3-.2-.3-.4-.7-.4-1.3 0-.5.3-1 .7-1.2.4-.3 1-.5 2-.5h.7v-.3c.1-.5.1-.8-.2-1l-.8-.2-.7.1-.8.4-.3-.8.9-.2 1-.2zm1 2.8h-.8c-.6 0-1 .2-1.4.4-.2.1-.3.4-.3.7 0 .3 0 .6.2.7l.7.2c.5 0 .9-.1 1.2-.4.3-.2.4-.6.4-1.1zm7-2.7v5.3h-.7l-.1-.7c-.3.3-.6.5-.9.6l-.9.2c-.6 0-1.1-.1-1.4-.3-.3-.5-.5-1-.5-1.6v-3.5h.9v3.4c0 .9.4 1.3 1.2 1.3.6 0 1-.2 1.2-.6.2-.2.4-.7.4-1.3v-2.8zm0 0" style="fill:none;stroke:#fff;stroke-width:3;stroke-linecap:butt;stroke-linejoin:round;stroke-miterlimit:10;stroke-opacity:.6" transform=" rotate(  340 118.695 18.1719) "/> <g style="fill:#212121;fill-opacity:1" transform=" rotate(  340 118.695 18.1719) ">  <use xlink:href="#r" x="98.2" y="29.2"/>  <use xlink:href="#f" x="107.3" y="29.2"/>  <use xlink:href="#o" x="112.9" y="29.2"/>  <use xlink:href="#s" x="119.1" y="29.2"/>  <use xlink:href="#f" x="123.9" y="29.2"/>  <use xlink:href="#o" x="129.5" y="29.2"/> </g> <path d="m321.7 171.5 2.2-10.7h1.4l-2 9.5h4l-.1 1.2zm9.4.1c-.6 0-1.1-.2-1.5-.6-.4-.5-.6-1.2-.6-2 0-1 0-1.6.3-2.3a6.3 6.3 0 0 1 .7-1.7 4 4 0 0 1 1.3-1.3 3 3 0 0 1 1.7-.4c.4 0 1 .1 1.2.4.3.3.6.6.7 1h.1l.5-1.3h1l-1.7 8h-1V170a6 6 0 0 1-1.1 1c-.5.5-1 .6-1.7.6zm.5-1c.3-.1.7-.3 1-.6a4 4 0 0 0 1.1-.9 6 6 0 0 0 .7-2.5v-.6c.1-.5.1-.9-.2-1.2-.4-.3-.7-.4-1.2-.4s-.8.1-1 .4c-.4.2-.7.5-1 1l-.4 1.4-.3 1.8c0 .4.1 1 .3 1.1.4.3.6.4 1 .4zm5.6.9 2.4-11.5h1.3l-.9 4.6a35.4 35.4 0 0 1-.8 2.7l4-3.9h1.4l-3.4 3.6 2.1 4.5H342l-1.8-3.8-1.2.9-.5 2.9zm10.3.1c-1 0-1.5-.2-2.1-.8-.5-.5-.8-1.3-.8-2.2a6.6 6.6 0 0 1 1-3.6c.4-.5 1-1 1.4-1.2a3 3 0 0 1 1.6-.5c.8 0 1.4.1 1.7.5.4.2.7.8.7 1.4 0 .5-.2 1-.6 1.4-.3.4-.8.8-1.4 1-.8.4-1.7.4-2.8.4h-.2v.5c0 .7 0 1.1.3 1.5.4.4.7.5 1.5.5l1-.1 1.2-.5v1.1l-1 .5-1.6.1zm-1.3-4.6 1.8-.2 1.2-.5c.3-.3.4-.6.4-1 0-.3 0-.5-.2-.7l-.8-.2c-.6 0-1 .2-1.6.6-.3.5-.6 1.1-.9 2zm9.7 4.5 2.1-10.7h2.1l.9 8.7 5-8.7h1.9l-2.2 10.7h-1.3l1.3-6.5a171.7 171.7 0 0 1 .7-2.9l-5.2 9.4h-1L359 162a28 28 0 0 1-.3 2l-.2 1-1.5 6.5zM371 162h-.3c-.3-.3-.3-.5-.3-.7 0-.3 0-.4.2-.6.1-.2.4-.3.6-.3.5 0 .8.3.8.7 0 .3 0 .6-.3.7l-.7.3zm-2.6 9.6 1.6-8.1h1.3l-1.7 7.9zM375.5 171.6c-1 0-1.7-.2-2.2-.6-.6-.6-.8-1.4-.8-2.4 0-.6 0-1.4.3-2a5.5 5.5 0 0 1 .8-1.7 4 4 0 0 1 1.4-1.2 3.5 3.5 0 0 1 1.7-.4h1l1 .5-.4.9-.7-.1a3 3 0 0 0-1-.2c-.4 0-.9.2-1.3.6-.5.4-.9.9-1.1 1.5a5.8 5.8 0 0 0-.4 2.1c0 .6.2 1 .5 1.4.3.4.7.5 1.3.5l1-.1 1-.4v1.1l-1.1.4-1 .1zm3.5-.1 2.4-11.5h1.3l-.6 3-.3 1-.2 1 .8-.9.9-.6.9-.2c.8 0 1.4.2 1.7.5.3.4.5.9.5 1.5v.7l-.3.6-.9 4.9h-1.3l1-5 .2-1.1c-.1-.4-.1-.6-.3-.8-.2-.1-.4-.2-.8-.2-.3 0-.7.1-1 .4-.6.2-1 .5-1.3 1-.2.7-.5 1.4-.7 2.2l-.7 3.5zm11.4-9.5h-.4l-.3-.7c0-.3 0-.4.2-.6.2-.2.4-.3.7-.3.4 0 .7.3.7.7 0 .3-.1.6-.3.7l-.6.3zm-2.7 9.6 1.7-8.1h1.3l-1.7 7.9zm6.2 3.4h-1.4l-1-.5v-1.2l1 .5 1.5.2c.5 0 .9-.2 1.4-.5.4-.3.6-.8.8-1.5l.2-.5a21.2 21.2 0 0 1 .3-1.5l-1.2 1c-.4.5-1 .6-1.5.6-.6 0-1.2-.2-1.6-.6-.4-.5-.6-1.2-.6-2a8 8 0 0 1 .3-2.2 6.3 6.3 0 0 1 .8-1.8 4 4 0 0 1 1.1-1.3 3 3 0 0 1 1.8-.4c.5 0 1 .1 1.2.4l.8 1 .7-1.3h.9l-1.9 8.6c-.2 1.1-.5 2-1.2 2.3-.7.5-1.4.8-2.4.8zm.5-4.4c.4-.1.7-.1 1-.4l1.1-1 .6-1.6a5.7 5.7 0 0 0 .2-1.6c0-.5 0-.9-.3-1.2-.2-.3-.6-.4-1.1-.4-.4 0-.9.1-1.1.4-.4.2-.6.6-.9 1l-.5 1.5c-.2.5-.2 1-.2 1.5 0 1.2.4 1.7 1.2 1.7zm8.3 1c-.7 0-1.2-.2-1.7-.6-.3-.5-.5-1.2-.5-2 0-1 .1-1.6.3-2.3a6.3 6.3 0 0 1 .8-1.7 4 4 0 0 1 1.4-1.3 3 3 0 0 1 1.5-.4c.5 0 .9.1 1.2.4.4.3.6.6.8 1l.5-1.3h1l-1.7 8h-1l.2-1.4a6 6 0 0 1-1.4 1c-.4.5-.9.6-1.4.6zm.3-1c.5-.1 1-.3 1.2-.6a4 4 0 0 0 1-.9 6 6 0 0 0 .8-2.5v-.6c0-.5 0-.9-.4-1.2-.2-.3-.6-.4-1-.4s-.8.1-1.1.4c-.3.2-.6.5-.9 1l-.5 1.4c-.2.6-.3 1.1-.3 1.8 0 .4.2 1 .4 1.1.2.3.5.4 1 .4zM408.7 171.5l1.7-8.1h1.2l-.2 1.5a7 7 0 0 1 .7-.9l.9-.5c.3-.2.7-.3 1-.3.8 0 1.3.2 1.6.6.4.2.6.8.6 1.5v.7l-.2.6-1 4.9h-1.4l1-5a9 9 0 0 0 .1-.8v-.3c.1-.6-.2-1-.9-1-.3 0-.6.2-1 .4s-.9.6-1.1 1.1c-.5.5-.7 1.2-1 2.1l-.6 3.5zm0 0" style="fill:none;stroke:#fff;stroke-width:2;stroke-linecap:butt;stroke-linejoin:round;stroke-miterlimit:10;stroke-opacity:.6" transform=" rotate(  340 368.271 168.47) "/> <g style="fill:#4c7fb3;fill-opacity:1" transform=" rotate(  340 368.271 168.47) ">  <use xlink:href="#t" x="321.1" y="171.5"/>  <use xlink:href="#u" x="328.2" y="171.5"/>  <use xlink:href="#v" x="336.8" y="171.5"/>  <use xlink:href="#w" x="343.9" y="171.5"/>  <use xlink:href="#glyph1-5" x="351.4" y="171.5"/>  <use xlink:href="#x" x="355.3" y="171.5"/>  <use xlink:href="#y" x="367.9" y="171.5"/>  <use xlink:href="#z" x="371.8" y="171.5"/>  <use xlink:href="#A" x="378.5" y="171.5"/>  <use xlink:href="#y" x="387.2" y="171.5"/>  <use xlink:href="#B" x="391.1" y="171.5"/>  <use xlink:href="#u" x="399.8" y="171.5"/>  <use xlink:href="#C" x="408.3" y="171.5"/> </g></svg>