<svg xmlns="http://www.w3.org/2000/svg" xmlns:xlink="http://www.w3.org/1999/xlink" viewBox="0 0 497 279"> <defs>  <path d="M5.6 3A2.6 2.6 0 1 1 .4 3a2.6 2.6 0 0 1 5.2 0zm0 0" style="fill:#f8f8f5;fill-opacity:1;fill-rule:nonzero;stroke:#6e6e59;stroke-width:.8;stroke-linecap:butt;stroke-linejoin:miter;stroke-miterlimit:4;stroke-opacity:1" id="reuse-0"/>  <path d="M3.7 2A1.7 1.7 0 1 1 .3 2a1.7 1.7 0 0 1 3.4 0zm0 0" style="fill:#fdfdfa;fill-opacity:1;fill-rule:nonzero;stroke:#3f3f35;stroke-width:.5;stroke-linecap:butt;stroke-linejoin:miter;stroke-miterlimit:4;stroke-opacity:1" id="reuse-1"/> </defs> <defs overflow="visible" style="stroke:none">  <path d="M1.7-7.6v3c.3-.4.4-.5.7-.6.3-.2.7-.3 1-.3.7 0 1.2.2 1.6.5.2.3.4.8.4 1.5V0h-.9v-3.4c0-.9-.4-1.3-1.2-1.3-.6 0-1 .2-1.2.5-.3.3-.4.8-.4 1.4V0H.8v-7.6ZM1 0v-7.1h.9v6.3h3V0Zm0 0"/>  <path id="N" d="M0-5.4h1l1 3 .4 1 .2.6.2-.7c0-.3.2-.5.2-.8l1-3h1.2L2.8.6c-.2.6-.4 1.1-.7 1.4-.3.3-.7.4-1.3.4H.1v-.9h.6c.3.2.6.2.7 0L2 .7l.2-.7Zm0 0"/>  <path id="M" d="M4-6.5c-.7 0-1.3.3-1.8.8-.4.5-.6 1.2-.6 2.1 0 1 .2 1.6.6 2.1.4.6 1 .8 1.8.8h1l.6-.3v.8L5 0H4c-.8 0-1.4 0-2-.2a2.8 2.8 0 0 1-1-1.4c-.3-.6-.4-1.2-.4-2 0-.7.1-1.3.4-1.9a3 3 0 0 1 1.2-1.3c.5-.2 1.1-.4 1.8-.4.8 0 1.5.1 2 .4l-.3.7-.8-.2a3 3 0 0 0-.9-.2Zm0 0"/>  <path id="L" d="M3 0c-.5 0-.9 0-1.3-.1-.3-.3-.6-.6-.7-.9-.4-.5-.5-1-.5-1.7 0-.6.2-1.1.5-1.5 0-.6.4-.8.8-1.1.2-.1.8-.2 1.2-.2l.8.1.7.2-.3.8-.6-.2H3c-1-.1-1.5.6-1.5 1.9 0 .7 0 1 .3 1.4.3.5.7.6 1.2.6h.8l.6-.3v.8a2 2 0 0 1-.6.2H3Zm0 0"/>  <path d="M1-7.1h2c1 0 1.6.1 2 .4.5.2.7.7.7 1.3 0 .5-.1.8-.3 1-.4.4-.6.6-1 .7l.8.3c.2 0 .4.2.5.5.3.2.3.5.3.9 0 .6-.3 1-.7 1.5-.5.3-1 .5-1.8.5H1Zm.9 3h1.3c.6.1 1 .1 1.3-.3.2-.2.3-.5.3-.9s-.1-.6-.4-.7c-.4-.3-.8-.4-1.4-.4H2Zm0 .8v2.5h1.4c.7 0 1 0 1.3-.2.4-.4.4-.7.4-1.1s-.1-.7-.4-.9c-.2-.2-.6-.3-1.4-.3ZM6.6 0h-1L1.8-6v6H1v-7.1h1l3.8 5.9v-5.9h.8ZM2.8 0C2 0 1.4 0 1-.5.7-1 .5-1.8.5-2.6c0-1.1.3-1.8.7-2.2.4-.5.8-.7 1.6-.7.4 0 .7.1 1 .3a2 2 0 0 1 .6.5v-2.8h.9V0h-.7l-.1-.7a2 2 0 0 1-.8.6l-.9.1Zm0-.5c.8-.1 1.1-.3 1.4-.6.1-.3.2-.8.2-1.4v-.2c0-.6 0-1.1-.3-1.5-.2-.4-.6-.5-1.2-.5-.5 0-.9.2-1 .5-.4.4-.5 1-.5 1.5.1.7.1 1.2.4 1.5.3.4.6.6 1 .6Zm.1-.1"/>  <path id="K" d="M2.9-5.5c.6 0 1.1.2 1.4.5.3.3.5.7.5 1.3V0h-.6L4-.8c-.3.3-.5.6-.8.8h-1c-.5 0-1 0-1.3-.3C.6-.5.5-.9.5-1.5c0-.5.2-1 .5-1.2.5-.3 1-.5 2-.5h.8v-.3c.2-.5.2-.8-.2-1l-.8-.2H2l-.7.5L1-5l1-.3.9-.2Zm1 2.9h-.8c-.6 0-1 .1-1.4.3-.1.3-.3.5-.3.8 0 .3 0 .5.2.7l.7.2c.5 0 .9-.1 1.2-.4.3-.2.4-.6.4-1Zm.1 0"/>  <path d="M6-7.1 3.5 0h-1L0-7.1h1l1.4 4.5A16.5 16.5 0 0 1 3-1l.2-.7.3-.9L5-7Zm3.2 0L7.2 0h-.7L5-4.7a30.2 30.2 0 0 1-.3-1v-.5l-.3.7-.1.8L2.9 0H2L.1-7.1h1L2-2.8c.4.3.4.6.5 1v.6A10.5 10.5 0 0 1 3-2.8l1.2-4.3H5l1.4 4.3.2 1 .2.6.1-.7.2-.9 1.1-4.3Zm0 0"/>  <path id="I" d="M2 0 0-5.4h1l1 3.2.4.5v.5l.1.4.2-.4a16 16 0 0 1 .3-1l1.1-3.2h1L3 0Zm0 0"/>  <path id="H" d="M3-7.1c.7 0 1.4.1 2 .5.2.3.4.8.4 1.5.1.4.1.7-.1 1l-.5.5-.7.4 2 3.2H5L3.2-3H1.9v3h-1v-7.1Zm-.2.7h-.9v2.7h1c.6 0 1.1-.1 1.3-.3.3-.3.4-.6.4-1 0-.6-.1-1-.4-1-.3-.4-.7-.5-1.3-.5Zm.1 0"/>  <path id="G" d="M6.7-5.5c.6 0 1 .2 1.4.5.3.3.4.8.4 1.5V0h-.8v-3.5c0-.8-.4-1.2-1.1-1.2-.6 0-1 .1-1.1.4C5.2-4 5-3.5 5-3v3h-.7v-3.5c0-.8-.4-1.2-1.1-1.2-.6 0-1 .1-1.2.5-.2.2-.3.8-.3 1.4V0H.8v-5.4h.8v.8h.2l.6-.7 1-.2c.7 0 1.2.3 1.6 1 .2-.5.4-.7.7-.8.3-.1.7-.2 1-.2Zm0 0"/>  <path id="E" d="m5.2 0-.9-3A18 18 0 0 1 4-4.5 34.3 34.3 0 0 1 3.5-3l-1 3h-.9L.2-5.4h.9l.6 2.9A40 40 0 0 1 2-1l.3-.3.1-.5a6 6 0 0 1 .1-.5l1-3h1l.7 2.9.3.8.2.6.3-.6v-1l.8-2.7h1L6.3 0Zm0 0"/>  <path id="z" d="m5.5 0-1-2.2H1.9L.9 0H0l2.8-7.2h.8L6.4 0ZM4.3-3l-.8-2.2v-.3l-.3-.4v-.3l-.2.6a8 8 0 0 1 0 .4L2-3Zm0 0"/>  <path id="F" d="M3.2 0h-.9v-6.3H.1v-.8h5.4v.8H3.2Zm0 0"/>  <path d="m2.8-5.5.8.3a2 2 0 0 1 .8.4l.3-.6h.6V.1c0 .8-.2 1.3-.6 1.7-.4.4-1 .6-1.8.6S1.5 2.3 1 2.1v-.9c.6.4 1.3.6 2 .6.5-.1.9-.3 1-.5.3-.3.4-.7.4-1.1v-.9c-.3.5-.9.8-1.6.8C2 0 1.5-.1 1-.6c-.3-.5-.5-1.2-.5-2 0-1.1.2-1.7.6-2.2.4-.4 1-.7 1.6-.7Zm0 .8c-.3 0-.6.2-.9.5-.3.4-.4.9-.4 1.5 0 .7 0 1.2.3 1.7.3.2.6.4 1 .4.7 0 1.1-.2 1.4-.4.1-.3.2-.8.2-1.5v-.2c0-.7 0-1.2-.3-1.5-.3-.4-.7-.5-1.2-.5Zm.1 0"/>  <path id="C" d="M2.6-.6H3l.4-.2v.7L3 0H1.7l-.6-.5-.1-1v-3.3H.2V-5l.7-.5.4-1h.5v1h1.5v.8H1.8v3.1c0 .3 0 .6.2.7l.6.3Zm0 0"/>  <path d="M5.3-5.4V0h-.7l-.1-.7c-.3.3-.5.5-.9.6l-.9.2C2.1 0 1.6-.1 1.3-.4 1-.7.8-1.2.8-1.8v-3.6h.9v3.5c0 .8.3 1.3 1.2 1.3.6 0 1-.2 1.1-.5.3-.4.5-.9.5-1.5v-2.8ZM6.4 0h-.9v-3.3H2V0H.9v-7.1H2v3h3.5v-3h1Zm0 0"/>  <path id="J" d="M3.3-5.5H4l-.1 1.1-.3-.3h-.3c-.3 0-.5 0-.8.2l-.5.7-.3 1V0H.8v-5.4h.8v1h.2l.6-.6c.3-.3.6-.5 1-.5Zm0 0"/>  <path id="A" d="M3-5.5c.3 0 .7.1 1 .3a2 2 0 0 1 1 .9v1.8H1.5c0 .5.1 1 .4 1.4.3.3.7.4 1.3.4H4l.9-.3v.8L4 0a5 5 0 0 1-1 0 3 3 0 0 1-1.2-.1 2.2 2.2 0 0 1-1-1.1c0-.2-.2-.8-.2-1.3-.1-.7 0-1.2.2-1.6.2-.5.5-.9.9-1 .3-.2.7-.4 1.2-.4Zm0 .8c-.6 0-.9.1-1 .4-.4.2-.6.6-.6 1.1h2.8c0-.5-.1-.8-.3-1.1-.2-.3-.5-.4-1-.4Zm0 0"/>  <path d="M1.7-7.6v4.8L2-3v-.3l.4-.2L4-5.4h1L2.9-3l2.4 3H4.2L2.3-2.5l-.6.5v2H.8v-7.6Zm0 0"/>  <path id="B" d="M3.4-5.5c.7 0 1.2.2 1.6.5.2.3.4.8.4 1.5V0h-.9v-3.4c0-.9-.4-1.3-1.2-1.3-.6 0-1 .1-1.2.5-.3.2-.4.8-.4 1.4V0H.8v-5.4h.8v.8h.2c.2-.4.3-.5.7-.7l1-.2Zm0 0"/>  <path id="D" d="M5.5-2.7c0 .9-.2 1.7-.7 2-.4.7-1 .9-1.8.9-.5-.2-.9-.2-1.3-.4-.3-.2-.6-.6-.7-1C.6-1.6.5-2 .5-2.7c0-.9.3-1.6.7-2 .5-.5 1-.8 1.8-.8.5 0 1 .2 1.3.5.4 0 .7.4.9.9.2.2.3.7.3 1.3Zm-4 0c0 .7 0 1.2.3 1.5.3.4.7.6 1.2.6.6 0 1-.2 1.2-.6.3-.3.4-.8.4-1.5s-.1-1.1-.4-1.5c-.2-.3-.6-.5-1.2-.5-.5 0-1 .2-1.2.5-.2.4-.3.9-.3 1.5Zm0 0"/>  <path d="m2.8-3.6 1.9-3.5h1L3.3-2.8V0h-1v-2.7L0-7.1h1Zm0 0"/>  <path id="y" d="M3.4-5.5c.7 0 1.2.3 1.6.7.4.5.6 1.2.6 2.1 0 1-.2 1.7-.6 2-.4.7-1 .9-1.6.9-.4-.2-.8-.2-1-.3l-.7-.6v3.1H.8v-7.8h.8v.8h.2c.2-.4.3-.5.6-.6.2-.2.6-.3 1-.3Zm-.2.8c-.5 0-.9.1-1.1.5-.2.2-.4.7-.4 1.2v.3c0 .7.1 1.2.3 1.5.3.4.7.6 1.3.6.3 0 .6-.1.7-.4l.5-.6.2-1.1c0-.6-.1-1.1-.4-1.5-.2-.3-.6-.5-1-.5Zm0 0"/>  <path id="x" d="M1.3-7.4c.1 0 .3 0 .4.2l.1.4-.1.4-.4.2-.4-.3-.1-.3.1-.4.4-.2Zm.4 2V0H.8v-5.4Zm0 0"/>  <path id="w" d="M1.7 0H.8v-7.6h1Zm0 0"/>  <path id="v" d="M4.3-1.5c0 .5-.2 1-.5 1.2-.4.3-1 .4-1.6.4l-1-.1-.7-.2V-1l.8.3h1.8l.4-.7-.1-.4L3-2a7.5 7.5 0 0 0-.8-.4 7.5 7.5 0 0 1-1-.4l-.4-.5L.5-4c0-.5.2-.8.6-1 .3-.4.8-.6 1.4-.6l1 .2a4 4 0 0 1 .6.4l-.1.6-.8-.2-.7-.1-.9.1c-.2.2-.3.3-.3.6s0 .2.2.3l.4.3.8.3.9.4.4.5c.3.2.3.4.3.7Zm0 0"/>  <path id="u" d="M3 0H.4v-.5l.8-.2v-5.7l-.8-.2v-.5H3v.5l-1 .2v5.7l1 .2Zm0 0"/>  <path d="M1 0v-7.1h4V0Zm.4-.5h3.1v-6.1h-3Zm.1 0"/>  <path id="t" d="M4-6.5c1 0 1.6.2 2 .8.5.5.7 1.4.7 2.5 0 1-.2 2-.7 2.5-.5.5-1.1.7-2 .7-.3.1-.7.1-1.1-.2a2.5 2.5 0 0 1-.8-.6H2v3.7H1v-9.3h1v.8l.9-.7 1.2-.2Zm0 .8c-.8 0-1.2.2-1.5.7-.3.3-.4.9-.4 1.6v.2c-.1.8.1 1.4.4 1.8.2.4.7.6 1.4.6.4 0 .7 0 1.1-.2 0-.3.3-.6.4-1a4 4 0 0 0 .2-1.2c0-.8-.1-1.4-.4-1.8-.3-.4-.7-.7-1.3-.7Zm-.1 0"/>  <path id="s" d="M3.3.1c-.8 0-1.4-.1-2-.8C1-1.3.8-2.1.8-3.2s.1-2 .6-2.5c.5-.6 1.1-.8 2-.8.3 0 .7 0 1 .2l.9.7a29.6 29.6 0 0 1 .1-1V-9h.9v9h-.7l-.2-.9h-.1c-.2.3-.4.5-.8.7-.3.2-.7.3-1.2.3Zm.2-.8C4-.8 4.6-1 4.9-1.4c.3-.3.4-.9.4-1.6v-.2C5.3-4 5.2-4.6 5-5c-.3-.5-.8-.7-1.5-.7-.6 0-1 .3-1.3.7-.3.5-.5 1-.5 1.8s.3 1.4.6 1.8c.2.4.6.6 1.2.6Zm0-.1"/>  <path id="r" d="M3.5-6.5c.7 0 1.3.1 1.7.5.4.3.6.9.6 1.6V0H5l-.2-1c-.4.5-.7.8-1.1 1H2.6C2 .1 1.6 0 1-.3.7-.6.5-1.1.5-1.8c0-.6.3-1.1.8-1.5.5-.3 1.3-.5 2.3-.5h1.1v-.6c0-.4 0-.8-.3-.9-.4-.4-.6-.5-1-.5a3 3 0 0 0-1 .3c-.3 0-.6.2-.8.3L1.3-6l1-.4 1.2-.1Zm1.2 3.4h-1c-.7 0-1.2.1-1.5.4-.4.2-.6.5-.6 1 0 .2.1.5.4.7.2.2.5.3.8.3.6 0 1-.3 1.4-.5.3-.3.5-.7.5-1.4Zm0 0"/>  <path id="q" d="M2 0H1v-9.1h1Zm0 0"/>  <path id="p" d="m1.6-8.8.4.1.2.5c0 .2 0 .4-.2.5l-.4.2c-.2 0-.4 0-.6-.2v-.5c0-.2 0-.4.1-.5l.5-.1ZM2-6.4V0H1v-6.4Zm0 0"/>  <path id="o" d="M2-9.1v3.6a2 2 0 0 1 1-.8c.2-.2.6-.2 1-.2 1 0 1.6.1 1.9.5.3.4.5 1 .5 1.8V0h-1v-4.1c0-1-.4-1.6-1.4-1.6-.8 0-1.3.2-1.5.7-.3.4-.5 1-.5 1.7V0H1v-9.1Zm0 0"/>  <path id="n" d="M3.4-8.6c1.2 0 2 .3 2.6.7.4.4.6.9.6 1.9a3 3 0 0 1-.3 1.3c-.2.4-.5.7-1 1-.5.2-1.3.4-2 .4H2.2V0H1.1v-8.6Zm0 1H2.2v3.3H3c1 0 1.5 0 2-.4.3-.2.5-.7.5-1.3 0-.6-.1-1-.5-1.2-.4-.3-1-.4-1.7-.4Zm-.1 0"/>  <path id="m" d="M2-9.1v5.8l.4-.3.2-.4.2-.3 2-2.1h1.4L3.5-3.7 6.3 0H5L2.8-3l-.7.6V0H1v-9.1Zm0 0"/>  <path id="l" d="M4-6.5h.8l-.2 1H4c-.4-.1-.7-.1-1 .1a2 2 0 0 0-.7.8l-.2 1.2V0H1v-6.4h.8L2-5.2l.8-1.1L4-6.5Zm0 0"/>  <path id="k" d="M6.6-3.2c0 1-.3 1.9-.8 2.5-.5.4-1.3.7-2.2.7a3 3 0 0 1-1.5-.3A2.7 2.7 0 0 1 1-1.4C.7-2 .6-2.5.6-3.2c.1-1.1.3-2 .9-2.5.5-.6 1.2-.8 2.1-.8.6 0 1.1 0 1.6.3.4.3.8.7 1 1.2.3.5.4 1 .4 1.8Zm-4.8 0c0 .7.1 1.2.3 1.8.4.4.9.6 1.5.6.7 0 1.2-.2 1.5-.6.3-.6.4-1 .4-1.8S5.4-4.6 5.1-5c-.3-.4-.8-.7-1.5-.7-.6 0-1.1.3-1.4.7-.3.4-.5 1-.5 1.8Zm0 0"/>  <path id="j" d="m3.4-4.4 2.2-4.2h1.2L3.9-3.3V0H3v-3.3L0-8.6h1.2Zm0 0"/>  <path id="i" d="M6.3 0 5.2-3.6l-.3-1-.2-.7-.2.7-.3 1L3.1 0H1.9L0-6.4h1.2l1 3.4a18.6 18.6 0 0 1 .2 2l.4-.7v-.5l.2-.6 1.2-3.6h1.1l1.1 3.6.3.8.1.9a72 72 0 0 1 .5-2l1-3.2h1L7.5 0Zm0 0"/>  <path id="h" d="M3.5-6.5c.6 0 1 0 1.4.3l1.1 1c0 .5.1 1 .1 1.6v.6H1.7c.1.7.3 1.3.7 1.7.3.3.8.5 1.4.5h1l1.1-.5v1c-.3.2-.6.3-1 .3l-1 .1A3.4 3.4 0 0 1 2-.2a2.6 2.6 0 0 1-.9-1.2c-.4-.4-.5-1-.5-1.8.1-.7.1-1.3.4-1.8s.6-.9 1-1c.4-.4 1-.5 1.5-.5Zm0 .8c-.5 0-1 .2-1.2.5-.3.3-.5.8-.5 1.3H5c0-.5 0-1-.3-1.3-.3-.3-.7-.5-1.2-.5Zm0 0"/>  <path id="g" d="M8 0H6.7L2.1-7.1A76.4 76.4 0 0 1 2-4.8V0h-.8v-8.6h1.3L7-1.5V-2a42 42 0 0 1 0-1.7v-4.9h1Zm0 0"/>  <path d="M1.1 0v-8.6h5V0Zm.6-.6h3.8V-8H1.7Zm0 0"/>  <path id="d" d="M2.1.1C1.7.1 1.3 0 1-.4.7-.7.5-1.2.5-1.9l.2-1.6.6-1.3c.3-.4.7-.7 1-.9.2-.2.7-.3 1.1-.3.4 0 .7.1 1 .3l.5.7.5-.9H6L4.8 0H4l.2-1a4 4 0 0 1-1.1.7c-.1.3-.6.3-.9.3Zm.3-.8c.3 0 .6 0 .8-.3a3 3 0 0 0 .8-.8 5 5 0 0 0 .4-1.1l.1-.6V-4c.1-.4.1-.6-.1-1-.4 0-.6-.2-.9-.2-.3 0-.5.2-.8.3l-.6.7-.4 1-.2 1.4c0 .3 0 .6.3.9l.6.1Zm0 0"/>  <path id="c" d="m.3 0 1.8-8.4H3L1.2 0Zm0 0"/>  <path id="a" d="M.5 0 2-7.9h2c1 0 1.7.3 2.2.9.5.4.8 1.2.8 2.3 0 .9-.2 1.7-.5 2.4A4 4 0 0 1 4.9-.6c-.7.4-1.5.6-2.5.6Zm1.1-.8h.8c.8 0 1.4-.2 2-.6.5-.3.9-.8 1.1-1.4a4.6 4.6 0 0 0 .5-2c0-.6-.2-1.2-.6-1.6-.4-.4-1-.6-1.6-.6H3Zm0 0"/>  <path d="M-.3 2.6h-.4a4 4 0 0 1-.3 0v-1l.3.3h.4c.3-.1.5-.1.7-.3L1 .8l.4-.8-.9-6h1l.4 3.1v.6A34.2 34.2 0 0 1 2-.8l.4-.5a22.7 22.7 0 0 1 .5-1.4l1.7-3.2h1L2 1c-.4.5-.7 1-1 1.2-.2.3-.7.4-1.2.4Zm2-2.5L.7 0 .2-.3v-.9c0 .2.3.3.6.4a3 3 0 0 0 .9.1c.3 0 .7 0 1-.2.2-.2.3-.4.3-.7 0-.2 0-.4-.2-.5L2-2.7a3.8 3.8 0 0 1-1-.7c0-.2-.2-.6-.2-1s.2-.7.6-1c.3-.4.7-.6 1.3-.6l1.1.1.7.3-.3.8-.6-.3h-.9L2-5l-.3.6c0 .2 0 .4.3.5 0 .2.3.3.7.5l.7.5.4.5.2.7c0 .6-.2 1-.6 1.4-.4.3-1 .3-1.7.3Zm0 0"/>  <path id="f" d="m.3 0 1.3-5.9h.8l-.2 1 .7-.4.4-.5.8-.2h.6l-.2 1a3 3 0 0 0-.5-.2c-.4.1-.7.2-1 .4a3 3 0 0 0-.8 1l-.3 1.1L1.3 0Zm0 0"/>  <path d="M-.9 2h-.8V1h.4l.3.3c.4-.1.7-.1 1-.3C.2.7.4.4.5 0L2-7.9h1.1L1.4.1C1.3.7 1 1.2.6 1.5c-.4.5-.9.6-1.6.6Zm0 0"/>  <path id="e" d="M.9 0 .6-5.9h1v5.1A16.6 16.6 0 0 1 2.2-2l.2-.6 1.5-3.3H5l.3 3.2a32 32 0 0 1-.1 1.9A26 26 0 0 1 6-3l1.4-2.9h.9L5.7 0H4.5l-.2-3.2V-5l-.3.8-.5.9L2 0Zm0 0"/>  <path id="b" d="M2.7.1C2 .1 1.5 0 1-.5.7-.9.5-1.5.5-2a4.9 4.9 0 0 1 .8-2.7 3 3 0 0 1 1-1.1c.2-.1.7-.2 1.2-.2s1 .1 1.2.4c.3.2.5.5.5 1 0 .3-.2.6-.4 1-.2.3-.6.6-1.1.8-.5.2-1.2.3-2 .3h-.2v.4c0 .4.1.8.3 1 .3.3.6.4 1 .4l.8-.1c.4 0 .5-.2.8-.3v.8l-.8.3-1 .1Zm-1-3.4L3-3.4l.9-.4c.1-.2.3-.5.3-.7 0-.2 0-.5-.2-.5l-.6-.2c-.3 0-.7.2-1 .5-.4.3-.6.8-.7 1.4Zm0 0"/>  <path d="m.4 0 1.7-7.9H3l2.6 6.5c0-.2 0-.6.2-1 0-.4 0-.8.2-1.1L6.9-8h1L6.1 0h-.9L2.6-6.5v.5l-.2.9-.1.8-1 4.3ZM1 0v-7.9h4.6V0Zm.6-.6H5v-6.7H1.6Zm0 0"/> </defs> <image xlink:href="svg/8/53_0.jpg" width="497" height="279"/> <path d="m5.5 241.1 1.7-7.9H9c1 0 1.7.3 2.3.8.5.5.7 1.3.7 2.4 0 .9-.1 1.6-.5 2.4a4 4 0 0 1-1.5 1.7c-.7.4-1.5.5-2.5.5zm1.2-.8h.8c.8 0 1.5-.3 2-.6s.7-.7 1-1.4a4.6 4.6 0 0 0 .5-2c0-.6-.2-1.3-.5-1.6-.5-.4-1-.6-1.6-.6H8Zm8.3.9c-.5 0-1-.2-1.4-.6-.6-.4-.7-1-.7-1.6a4.9 4.9 0 0 1 .8-2.7 3 3 0 0 1 1-.9c.3-.2.7-.3 1.2-.3s1 .1 1.1.4c.4.2.6.5.6 1 0 .3-.2.7-.4 1-.2.3-.6.6-1.1.8-.5.2-1.2.3-2.1.3v.4c0 .4 0 .8.2 1 .3.3.6.4 1 .4l.8-.1.8-.3v.8l-.8.2-1 .2zm-1-3.4h.3l1.1-.1.9-.4c.2-.3.3-.5.3-.7 0-.2 0-.4-.2-.6l-.6-.1c-.3 0-.7.1-1 .5-.3.3-.6.8-.7 1.4zm4.2 3.3 1.8-8.4h1l-1.9 8.4zm4.7.1c-.5 0-.9-.2-1.2-.5-.3-.3-.4-.7-.4-1.5 0-.6 0-1 .2-1.6.1-.5.3-1 .5-1.3.3-.3.6-.7 1-.9.3-.2.7-.3 1.2-.3.3 0 .7.1.8.3l.6.7h.1l.4-.9h.7l-1.3 5.9h-.7l.1-1.1a4 4 0 0 1-1 .8c-.2.3-.5.4-.9.4zm.3-.8c.2 0 .5 0 .8-.3a3 3 0 0 0 .7-.8 5 5 0 0 0 .5-1.1v-.6l.2-.6c-.1-.3-.1-.5-.4-.8-.2-.2-.4-.2-.7-.2-.3 0-.6 0-.8.2l-.7.7-.4 1.1-.1 1.3c0 .3 0 .7.2.9l.7.1zm4.7.7-.3-5.9h1v5.1a16.6 16.6 0 0 1 .5-1.3l.3-.5 1.5-3.3H32l.2 3.2a32 32 0 0 1-.1 1.9h.2a26 26 0 0 1 .7-2.3l1.3-2.8h1l-2.6 5.9h-1.2l-.2-3.2v-1.8l-.5.9-.3.8-1.5 3.3Zm9.1.1c-.3 0-.7-.2-1-.5-.5-.3-.6-.7-.6-1.5.1-.6.1-1 .3-1.6.1-.5.3-1 .6-1.3.2-.3.5-.7.9-.9.3-.2.7-.3 1.2-.3.3 0 .6.1.9.3l.5.7h.2l.3-.9h.7l-1.3 5.9H39V240a4 4 0 0 1-1 .8c-.1.3-.4.4-.8.4zm.5-.8c.1 0 .4 0 .7-.3a3 3 0 0 0 .7-.8 5 5 0 0 0 .5-1.1v-.6l.2-.6c-.1-.3-.1-.5-.4-.8-.2-.2-.4-.2-.7-.2-.3 0-.6 0-.8.2l-.7.7-.4 1.1-.1 1.3c0 .3 0 .7.2.9l.7.1zM41.5 241.1l1.3-5.9h.7v1l.5-.4.5-.5.8-.3h.6l-.2 1.2a3 3 0 0 0-.6-.2c-.3 0-.7 0-1 .3a3 3 0 0 0-.6 1l-.5 1.1-.5 2.7zm6.5.1c-.7 0-1.2-.2-1.6-.6-.3-.4-.4-1-.4-1.6a4.9 4.9 0 0 1 .7-2.7 3 3 0 0 1 .9-.9l1.2-.3c.6 0 1 .1 1.3.4.3.2.4.5.4 1 0 .3-.1.7-.4 1-.1.3-.6.6-1 .8-.7.2-1.3.3-2.1.3h-.1v.4c-.1.4-.1.8.2 1 .3.3.6.4 1.1.4l.8-.1.8-.3v.8l-.8.2-1 .2zm-1-3.4 1.4-.1.9-.4.2-.7-.1-.6-.6-.1c-.4 0-.8.1-1 .5-.5.3-.7.8-.8 1.4zm0 0" style="fill:none;stroke:#fff;stroke-width:3;stroke-linecap:butt;stroke-linejoin:round;stroke-miterlimit:10;stroke-opacity:.6" transform=" rotate(  340 28.877 238.097) "/> <g style="fill:#7d577d;fill-opacity:1" transform=" rotate(  340 28.877 238.097) ">  <use xlink:href="#a" x="5.1" y="241.1"/>  <use xlink:href="#b" x="12.4" y="241.1"/>  <use xlink:href="#c" x="17.9" y="241.1"/>  <use xlink:href="#d" x="20.7" y="241.1"/>  <use xlink:href="#e" x="27" y="241.1"/>  <use xlink:href="#d" x="34.9" y="241.1"/>  <use xlink:href="#f" x="41.2" y="241.1"/>  <use xlink:href="#b" x="45.3" y="241.1"/> </g> <use style="fill:#f8f8f5;fill-opacity:1;fill-rule:nonzero;stroke:#6e6e59;stroke-width:.8;stroke-linecap:butt;stroke-linejoin:miter;stroke-miterlimit:4;stroke-opacity:1" transform="translate(172.72753,32.042332)" xlink:href="#reuse-0"/> <path d="M157.2 48.5h-1.3l-4.6-7.1a76.3 76.3 0 0 1 0 2.3v4.8h-.9v-8.6h1.3l4.5 7.1v-.6a42.1 42.1 0 0 1 0-1.6v-4.9h1zm4.6-6.5c.6 0 1 0 1.5.2.4.3.7.7.9 1.1.2.5.3 1 .3 1.7v.5h-4.4c-.1.7.2 1.3.6 1.5.3.5.8.7 1.3.7l1.2-.1 1-.3v.9l-1 .3-1.1.1a3.4 3.4 0 0 1-1.6-.4 2.6 2.6 0 0 1-1.1-1c-.4-.7-.4-1.2-.4-2s.1-1.2.4-1.7c.2-.5.5-.9 1-1.1.4-.4.9-.5 1.4-.5zm0 .7c-.5.1-.8.3-1.2.6-.3.3-.4.7-.5 1.3h3.3c0-.5-.1-1-.4-1.3-.2-.3-.6-.5-1.2-.5zm9.3 5.8-1-3.6-.4-1-.1-.8-.2.9-.4.9-1 3.6h-1.2L165 42h1l1 3.5a18.6 18.6 0 0 1 .4 1.9l.2-.5.1-.6.3-.6 1-3.7h1.2l1 3.7c.3.3.4.5.4.9l.1.8a71.7 71.7 0 0 1 .5-2l1-3.2h.8l-1.5 6.3zm9.7-4.4L183 40h1.2l-2.8 5.2v3.3h-1.1v-3.3l-2.9-5.2h1.2zm9.4 1.2c0 1-.2 1.9-.8 2.4-.4.6-1.3 1-2.2 1a3 3 0 0 1-1.5-.6 2.7 2.7 0 0 1-1-1c-.4-.5-.5-1.1-.5-1.8.1-1.1.3-2 .8-2.5.6-.6 1.3-.9 2.3-.9.5.1 1 .2 1.5.4.4.3.8.7 1 1.2.3.5.4 1 .4 1.8zm-4.8 0c0 .7.1 1.3.4 1.7.3.5.8.7 1.5.7.6 0 1-.2 1.4-.6.3-.5.3-1.1.3-1.8s0-1.4-.3-1.8c-.3-.5-.8-.7-1.5-.7-.6 0-1.1.3-1.4.7-.3.4-.4 1-.4 1.8zm9.5-3.3h.8l-.2 1h-.3l-.4-.2c-.3.1-.6.1-1 .4a2 2 0 0 0-.5.7c-.3.4-.4.7-.4 1.2v3.4h-.9V42h.8v1.2h.2l.7-.9c.3-.2.7-.3 1.3-.3zm3-2.6v5.8l.1-.3.4-.4.3-.3 2-2.1h1.3l-2.7 2.7 2.8 3.7H201l-2.4-3-.6.5v2.5h-1.1v-9.1zm0 0" style="fill:none;stroke:#fff;stroke-width:3;stroke-linecap:butt;stroke-linejoin:round;stroke-miterlimit:10;stroke-opacity:.6" transform=" rotate(  340 178.328 35.043) "/> <g style="fill:#212121;fill-opacity:1" transform=" rotate(  340 178.328 35.043) ">  <use xlink:href="#g" x="149.2" y="48.5"/>  <use xlink:href="#h" x="158.3" y="48.5"/>  <use xlink:href="#i" x="164.9" y="48.5"/>  <use xlink:href="#glyph1-4" x="174.3" y="48.5"/>  <use xlink:href="#j" x="177.4" y="48.5"/>  <use xlink:href="#k" x="183.6" y="48.5"/>  <use xlink:href="#l" x="190.9" y="48.5"/>  <use xlink:href="#m" x="195.8" y="48.5"/> </g> <use style="fill:#f8f8f5;fill-opacity:1;fill-rule:nonzero;stroke:#6e6e59;stroke-width:.8;stroke-linecap:butt;stroke-linejoin:miter;stroke-miterlimit:4;stroke-opacity:1" transform="translate(57.909758,130.93923)" xlink:href="#reuse-0"/> <path d="M29.6 139.6c1.1 0 2 .2 2.5.7.5.4.7 1 .7 1.7a3 3 0 0 1-.3 1.4c-.2.4-.6.8-1 1-.7.3-1.3.4-2.1.4h-1v3.4h-1.2v-8.6zm0 1h-1.3v3.2h1c.7.1 1.4 0 1.7-.3.5-.3.7-.7.7-1.3 0-.6-.2-1-.5-1.3-.4-.2-1-.4-1.7-.4zm5.9-1.6v3.7a2 2 0 0 1 .9-.9c.3-.1.6-.2 1.1-.2.8 0 1.5.2 1.8.6.4.3.6 1 .6 1.8v4.2h-1V144c-.1-1-.6-1.5-1.6-1.5-.6 0-1.1.2-1.4.6-.3.4-.4 1-.4 1.7v3.4h-1V139zm6.9.3c.2 0 .3 0 .4.2.2 0 .2.3.2.5s0 .4-.2.5l-.4.2-.4-.2c-.2-.1-.2-.3-.2-.5s0-.4.2-.5l.4-.2zm.6 2.4v6.5h-1v-6.5zm3 6.5h-1V139h1zm4.5-6.6c.8 0 1.4.2 1.7.5.4.4.6 1 .6 1.7v4.4H52l-.2-1c-.3.5-.6.8-1 .8-.1.2-.5.3-1.1.3s-1.1-.3-1.5-.5c-.4-.3-.6-.8-.6-1.4 0-.7.2-1.2.7-1.5.5-.4 1.3-.6 2.4-.6h1v-.4c.1-.5.1-1-.2-1.1-.3-.2-.5-.3-1.1-.3a3 3 0 0 0-1 .1l-.7.4-.4-.8 1-.4 1.2-.2zm1.3 3.4h-1c-.8 0-1.4.2-1.7.4-.3.3-.4.6-.4 1 0 .3 0 .6.3.8l1 .2c.4 0 .9-.1 1.2-.4.4-.3.6-.8.6-1.4zm5.2 3.3c-.6 0-1.3-.3-1.7-.8-.6-.6-.9-1.5-.9-2.5s.3-2 .8-2.5c.4-.6 1-.9 1.8-.9.6 0 1 .1 1.3.4l.8.5a29.6 29.6 0 0 1 .1-.9V139h.8v9.2h-.7l-.3-.9-.7.7c-.3.2-.7.3-1.2.3zm.3-.9c.7 0 1.1-.2 1.4-.6.2-.3.3-.8.3-1.6v-.2c0-.8 0-1.4-.3-2-.3-.3-.8-.5-1.5-.5-.5 0-1 .2-1.2.7-.3.4-.5 1-.5 1.8 0 .7.2 1.3.5 1.8.2.4.7.6 1.2.6zm7.4-5.8c.5 0 1 .1 1.3.4.5.2.8.5 1 1 .2.4.3 1 .3 1.5v.6H63c0 .9.1 1.3.5 1.7.3.4.8.6 1.5.6l1-.1 1-.4v1.1l-1 .2h-1a3.4 3.4 0 0 1-1.8-.2 2.6 2.6 0 0 1-1-1.2c-.3-.5-.4-1.1-.4-1.8s.2-1.3.4-1.8.5-1 1-1.2c.4-.3.8-.4 1.5-.4zm0 .9c-.7 0-1.1.1-1.3.5-.2.3-.4.7-.5 1.3h3.3c0-.5-.1-1-.4-1.3-.2-.4-.6-.5-1.2-.5zM70 148.2h-1V139h1Zm5.1-6.6c.8 0 1.4.4 1.9.8.5.6.7 1.4.7 2.6s-.2 2-.7 2.4c-.5.6-1.1.9-2 .9-.3 0-.7-.1-1-.3a2.5 2.5 0 0 1-1-.7v3.7h-.9v-9.3h.7l.3.9.7-.7c.4-.2.8-.3 1.3-.3zm-.2.9c-.6 0-1.1.2-1.4.5-.3.4-.4 1-.4 1.7v.3c0 .7.1 1.3.4 1.8.2.4.7.6 1.4.6.4 0 .7-.1 1.1-.3l.5-.9a4 4 0 0 0 .1-1.3c0-.7-.1-1.3-.4-1.7-.2-.5-.7-.7-1.2-.7zm5.6-3.5v3.7a2 2 0 0 1 .8-.9l1.2-.2c.8 0 1.4.2 1.7.6.4.3.6 1 .6 1.8v4.2h-1V144c0-1-.5-1.5-1.4-1.5-.8 0-1.4.2-1.5.6-.3.4-.4 1-.4 1.7v3.4h-1V139zm6.9.3c.1 0 .3 0 .4.2l.2.5c0 .2 0 .4-.2.5l-.4.2-.5-.2-.1-.5.1-.5.5-.2zm.5 2.4v6.5h-1v-6.5zm4.5-.1c.6 0 1.3.2 1.6.5.5.4.7 1 .7 1.7v4.4h-.8l-.2-1c-.4.5-.7.8-1.1.8-.1.2-.6.3-1 .3-.7 0-1.1-.3-1.6-.5-.4-.3-.5-.8-.5-1.4 0-.7.2-1.2.7-1.5.5-.4 1.3-.6 2.4-.6h1v-.4c0-.5 0-1-.3-1.1-.3-.2-.6-.3-1-.3a3 3 0 0 0-1 .1l-.8.4-.3-.8 1-.4 1.2-.2zm1.2 3.4h-1c-.6 0-1.2.2-1.6.4-.3.3-.4.6-.4 1 0 .3 0 .6.3.8l.8.2c.6 0 1-.1 1.4-.4.3-.3.5-.8.5-1.4zm0 0" style="fill:none;stroke:#fff;stroke-width:3;stroke-linecap:butt;stroke-linejoin:round;stroke-miterlimit:10;stroke-opacity:.6" transform=" rotate(  340 63.5078 133.938) "/> <g style="fill:#212121;fill-opacity:1" transform=" rotate(  340 63.5078 133.938) ">  <use xlink:href="#n" x="26.2" y="148.2"/>  <use xlink:href="#o" x="33.4" y="148.2"/>  <use xlink:href="#p" x="40.9" y="148.2"/>  <use xlink:href="#q" x="43.9" y="148.2"/>  <use xlink:href="#r" x="47" y="148.2"/>  <use xlink:href="#s" x="53.8" y="148.2"/>  <use xlink:href="#h" x="61.2" y="148.2"/>  <use xlink:href="#q" x="67.9" y="148.2"/>  <use xlink:href="#t" x="71" y="148.2"/>  <use xlink:href="#o" x="78.4" y="148.2"/>  <use xlink:href="#p" x="85.8" y="148.2"/>  <use xlink:href="#r" x="88.9" y="148.2"/> </g> <path d="M3.7 2C3.7 3 3 3.8 2 3.8S.2 3 .2 2a1.7 1.7 0 1 1 3.5 0zm0 0" style="fill:#fdfdfa;fill-opacity:1;fill-rule:nonzero;stroke:#3f3f35;stroke-width:.5;stroke-linecap:butt;stroke-linejoin:miter;stroke-miterlimit:4;stroke-opacity:1" transform="translate(252.60172,30.725336)"/> <path d="M247.8 44.4h-2.5V44l.7-.3V38l-.7-.2v-.5h2.5v.5l-.8.2v5.7l.8.2zm4.8-1.4c0 .3-.2.7-.6 1-.4.4-.9.5-1.6.5h-1l-.5-.4v-.7l.6.3 1 .1c.4 0 .7 0 1-.2l.1-.6v-.3l-.5-.4a7.5 7.5 0 0 0-.7-.3 7.5 7.5 0 0 1-.9-.4l-.5-.6-.2-.6c0-.5.1-.8.5-1 .4-.4.9-.4 1.5-.4h.9a4 4 0 0 1 .8.3l-.3.7-.7-.2-.8-.1-.8.1c-.2.2-.3.3-.3.5l.1.4.5.3.8.3.8.4.6.5.2.8zm2.2 1.4h-1v-7.6h1.1zM257 37s.1 0 .2.2l.2.4-.1.4-.4.2c-.1 0-.3 0-.4-.2l-.1-.4.1-.4.5-.2zm.3 2v5.4h-.9V39zm4.3 0c.7 0 1.2.2 1.6.6.4.5.6 1.2.6 2.1 0 1-.2 1.6-.6 2.1-.4.5-1 .7-1.6.7-.4 0-.8 0-1-.2l-.7-.6v3.1h-.9V39h.8v.8h.2c.1-.3.3-.5.6-.6.2-.2.6-.2 1-.2zm-.2.7c-.4 0-.9.1-1.1.5-.3.3-.4.7-.4 1.3v.2c.1.7.1 1.3.3 1.5.3.4.8.7 1.3.7.3-.1.5-.2.8-.4l.4-.7.3-1.1c-.1-.6-.2-1.1-.5-1.5-.2-.2-.5-.5-1-.5zm0 0" style="fill:none;stroke:#fff;stroke-width:3;stroke-linecap:butt;stroke-linejoin:round;stroke-miterlimit:10;stroke-opacity:.6" transform=" rotate(  340 256.352 32.7266) "/> <g style="fill:#212121;fill-opacity:1" transform=" rotate(  340 256.352 32.7266) ">  <use xlink:href="#u" x="244.9" y="44.4"/>  <use xlink:href="#v" x="248.2" y="44.4"/>  <use xlink:href="#w" x="253" y="44.4"/>  <use xlink:href="#x" x="255.6" y="44.4"/>  <use xlink:href="#y" x="258.2" y="44.4"/> </g> <path d="M3.8 2A1.7 1.7 0 1 1 .3 2a1.7 1.7 0 0 1 3.5 0zm0 0" style="fill:#fdfdfa;fill-opacity:1;fill-rule:nonzero;stroke:#3f3f35;stroke-width:.5;stroke-linecap:butt;stroke-linejoin:miter;stroke-miterlimit:4;stroke-opacity:1" transform="translate(28.382587,47.493749)"/> <path d="m12.4 45.5-.9-2.2H8.7L8 45.5H6.9l2.8-7.2h.8l2.8 7.2zm-1.1-3-.8-2.2-.1-.3-.2-.4v-.3l-.2.6a8 8 0 0 1-.2.4L9 42.5zm3.7 3h-.7v-7.6h.7zm2.7 0h-1v-7.6h1.1zm3.7-5.5c.6 0 .9.1 1.2.3a2 2 0 0 1 .8.9l.2 1.2v.6H20c0 .6.1 1 .4 1.4.3.3.7.4 1.3.4h.9l.8-.4v.8l-.8.3a5 5 0 0 1-1 0 3 3 0 0 1-1.3-.1 2.2 2.2 0 0 1-1-1.1c0-.3-.3-.8-.3-1.3 0-.7.1-1.2.3-1.6.2-.5.5-.8.9-1 .3-.2.7-.4 1.2-.4zm0 .8c-.4 0-.7 0-1 .4-.2.2-.4.6-.4 1h2.7c0-.3-.1-.6-.3-.9-.2-.4-.6-.5-1-.5zm6.2-.8c.6 0 1 .2 1.4.5.3.3.5.8.5 1.5v3.5h-.9V42c0-.8-.4-1.2-1.2-1.2-.6 0-1 .1-1.2.5-.2.3-.3.7-.3 1.4v2.8h-1V40h.9v1l.9-.8.9-.2zm5.4 4.9h.4l.3-.2v.7l-.4.1H32c-.2-.2-.4-.4-.5-.7-.2-.1-.3-.4-.3-.8v-3.2h-.7v-.4l.8-.4.3-1h.5v1.1h1.6v.7H32v3.1c.1.3.1.6.3.7.2.2.4.4.7.4zm6.4-2.1c0 .9-.2 1.6-.6 2-.5.6-1.1.9-1.9.9-.4-.1-.9-.2-1.2-.4-.4-.3-.7-.6-1-1l-.1-1.5c-.1-.9.1-1.6.4-2 .6-.5 1.2-.8 2-.8.4 0 .9.1 1.2.4.4.2.8.5 1 .9l.1 1.5zm-4 0c0 .6.1 1.1.4 1.5.2.4.6.7 1.2.7.5-.1.9-.3 1-.7.4-.3.5-.9.5-1.5s-.1-1.1-.4-1.5c-.1-.3-.6-.5-1.1-.5-.6 0-1 .2-1.2.5-.3.4-.4.9-.4 1.5zm9.6 2.7-1-3a18 18 0 0 1-.2-1.5 34.3 34.3 0 0 1-.5 1.5l-1 3h-.9L40 40h.8l.7 3 .2.9.3.7v-.4l.1-.6a6 6 0 0 1 .2-.5l1-3h.8l1.1 3v.9l.3.6c0-.2 0-.4.2-.7l.2-1 .7-2.7h1L46 45.5zm6-5.5c.8 0 1.3.2 1.6.5.2.3.4.8.4 1.5v3.5h-.9V42c0-.8-.4-1.2-1.1-1.2-.7 0-1 .1-1.3.5-.2.3-.3.7-.3 1.4v2.8h-1V40h.9v1l.9-.8.8-.2zm0 0" style="fill:none;stroke:#fff;stroke-width:3;stroke-linecap:butt;stroke-linejoin:round;stroke-miterlimit:10;stroke-opacity:.6" transform=" rotate(  340 32.1328 49.4922) "/> <g style="fill:#212121;fill-opacity:1" transform=" rotate(  340 32.1328 49.4922) ">  <use xlink:href="#z" x="6.9" y="45.5"/>  <use xlink:href="#w" x="13.3" y="45.5"/>  <use xlink:href="#w" x="15.9" y="45.5"/>  <use xlink:href="#A" x="18.5" y="45.5"/>  <use xlink:href="#B" x="24.1" y="45.5"/>  <use xlink:href="#C" x="30.3" y="45.5"/>  <use xlink:href="#D" x="33.9" y="45.5"/>  <use xlink:href="#E" x="39.8" y="45.5"/>  <use xlink:href="#B" x="47.6" y="45.5"/> </g> <use style="fill:#fdfdfa;fill-opacity:1;fill-rule:nonzero;stroke:#3f3f35;stroke-width:.5;stroke-linecap:butt;stroke-linejoin:miter;stroke-miterlimit:4;stroke-opacity:1" transform="translate(154.68806,131.80825)" xlink:href="#reuse-1"/> <path d="M134.3 144.8h-1v-6.3h-2.1v-.8h5.3v.8h-2.2zm7.1-2.6c0 .8-.2 1.5-.7 2-.4.5-1 .8-1.7.8-.6 0-1 0-1.4-.4-.3-.2-.6-.5-.8-1-.3-.2-.4-.7-.4-1.3 0-1.1.3-1.7.7-2.1.5-.7 1-.9 1.9-.9.4.1 1 .2 1.2.4.4.3.8.5.9 1 .2.3.3.9.3 1.5zm-4 0c0 .6 0 1.1.3 1.5.3.3.7.5 1.3.5.5 0 1-.2 1.1-.5.3-.4.4-.9.4-1.5 0-.7-.1-1.2-.5-1.5 0-.4-.5-.7-1-.7-.6.1-1 .3-1.3.7-.2.3-.3.8-.3 1.5zm11.3-2.8c.6 0 1 .2 1.3.5.3.3.5.8.5 1.5v3.4h-.9v-3.4c0-.8-.3-1.4-1-1.4-.6.1-1.1.3-1.3.6-.1.3-.2.7-.2 1.3v3h-.9v-3.6c0-.7-.4-1.3-1-1.3s-1.1.3-1.2.6c-.2.4-.3.8-.3 1.5v2.7h-1v-5.3h.9v.7c.3-.2.6-.5.9-.6l.8-.2c.7 0 1.4.3 1.6.9l.9-.7.9-.2zm6.9 4c0 .5-.2.9-.5 1.2-.4.2-1.1.3-1.6.3h-1l-.7-.4v-.7l.8.3 1 .1c.4 0 .6 0 .8-.2.3 0 .4-.3.4-.6l-.1-.3-.4-.3a7.5 7.5 0 0 0-.8-.4 7.5 7.5 0 0 1-1-.4l-.5-.5-.2-.7c0-.4.2-.8.6-1 .3-.3.8-.4 1.4-.4h1a4 4 0 0 1 .6.5l-.2.5-.7-.2H153l-.4.7s0 .1.2.1l.4.4.8.4 1 .4.4.5c.2.1.2.3.2.7zm6-5.7c1 0 1.6.3 2 .5.4.4.6.9.6 1.5 0 .4 0 .7-.2 1l-.5.6-.7.3 2 3.2h-1.1l-1.7-3h-1.4v3.1h-1v-7.1zm0 .8h-1v2.5h1c.6.1 1 .1 1.4-.2.2-.2.3-.6.3-1 0-.5-.1-.8-.4-1-.3-.2-.7-.3-1.3-.3zm4.6-1 .4.1.1.4-.1.5-.4.1-.4-.1-.1-.5.1-.4.4-.1zm.4 2v5.3h-.8v-5.3zm2.9 5.3-2-5.3h1l.9 3.1.4.5.2.6v.3l.1-.4a16 16 0 0 1 .4-1l1.1-3.1h1l-2 5.3zm6-5.4 1.2.3a2 2 0 0 1 .7.8c.2.5.3.8.3 1.3v.5H174c0 .7.2 1.1.5 1.4.3.3.7.5 1.2.5l1-.2.7-.2v.8l-.8.3a5 5 0 0 1-1 0 3 3 0 0 1-1.2-.3 2.2 2.2 0 0 1-1-.9c-.2-.4-.3-.9-.3-1.5s.1-1 .3-1.5l.8-1c.4-.2.8-.3 1.3-.3zm0 .6c-.5.1-.8.3-1 .5-.3.3-.5.7-.5 1.1h2.8c0-.4-.1-.8-.3-1-.3-.4-.6-.6-1-.6zm6.1-.6h.6l-.2.9h-.2l-.3-.2c-.3.1-.5.1-.8.3l-.6.7-.1.9v2.8h-.9v-5.3h.7v1h.2l.6-.8c.3-.2.6-.3 1-.3zm0 0" style="fill:none;stroke:#fff;stroke-width:3;stroke-linecap:butt;stroke-linejoin:round;stroke-miterlimit:10;stroke-opacity:.6" transform=" rotate(  340 158.438 133.809) "/> <g style="fill:#212121;fill-opacity:1" transform=" rotate(  340 158.438 133.809) ">  <use xlink:href="#F" x="131" y="144.8"/>  <use xlink:href="#D" x="135.9" y="144.8"/>  <use xlink:href="#G" x="141.9" y="144.8"/>  <use xlink:href="#v" x="151.3" y="144.8"/>  <use xlink:href="#glyph2-20" x="156.1" y="144.8"/>  <use xlink:href="#H" x="158.7" y="144.8"/>  <use xlink:href="#x" x="164.9" y="144.8"/>  <use xlink:href="#I" x="167.5" y="144.8"/>  <use xlink:href="#A" x="172.6" y="144.8"/>  <use xlink:href="#J" x="178.2" y="144.8"/> </g> <use style="fill:#fdfdfa;fill-opacity:1;fill-rule:nonzero;stroke:#3f3f35;stroke-width:.5;stroke-linecap:butt;stroke-linejoin:miter;stroke-miterlimit:4;stroke-opacity:1" transform="translate(132.37171,207.758)" xlink:href="#reuse-1"/> <path d="m122.1 220.8-.8-2.2h-2.8l-.9 2.2h-1l3-7.2h.7l2.7 7.2zm-1.1-3-.8-2.2-.1-.3-.1-.3-.1-.4-.2.6a8 8 0 0 1-.1.4l-.8 2.2zm4.7 2.4h.4l.4-.2v.7l-.5.1h-1.2l-.6-.5-.2-1V216h-.8v-.3l.8-.4.4-1.1h.5v1.2h1.5v.7H125v3.1c-.1.3-.1.6 0 .8l.7.2zm2.7.6h-.9v-7.6h1zm3.7-5.5c.7 0 1.2.2 1.5.5.3.2.5.7.5 1.2v3.8h-.7l-.1-.8-.9.7-.9.2c-.7 0-1.1-.1-1.4-.4-.1-.2-.4-.5-.4-1.2 0-.5.3-1 .7-1.2.4-.3 1-.5 1.9-.5h1v-.3c-.1-.5-.3-.9-.5-1l-.7-.2h-.8l-.7.5-.3-.8.8-.3 1-.2zm1.1 2.9h-.8c-.7 0-1.1.1-1.4.3-.2.2-.4.5-.4.8 0 .3.1.5.4.7l.6.2c.5 0 .9-.2 1.2-.4.2-.2.4-.6.4-1.1zm5.1-2.9c.7 0 1.1.2 1.5.5.2.3.5.8.5 1.5v3.5h-1v-3.4c.1-.9-.3-1.4-1-1.4s-1.1.2-1.4.6c-.2.3-.3.8-.3 1.4v2.8h-.9v-5.4h.7l.2.8.7-.7 1-.2zm5.4 4.9h.4l.4-.2v.7l-.5.1h-1.2c-.3-.1-.5-.3-.6-.5l-.2-1V216h-.8v-.3l.8-.4.3-1.1h.7v1.2h1.4v.7H143v3.1c-.1.3-.1.6 0 .8l.7.2zm2.3-6.8s.2 0 .3.2l.2.4c0 .2 0 .3-.2.4l-.3.1h-.4l-.1-.5v-.4l.5-.2zm.4 2v5.4h-.9v-5.4zm3.9 5.5c-.5 0-1-.1-1.3-.3-.4-.2-.7-.5-1-.9 0-.4-.2-1-.2-1.6 0-.6.1-1.1.3-1.6.2-.4.5-.7 1-.9.2-.2.6-.3 1.1-.3l.9.1.6.2-.2.8-.6-.2h-.6c-1-.1-1.6.5-1.6 1.9 0 .6.1 1 .4 1.4.3.5.6.6 1.1.6h.8l.6-.4v.9a2 2 0 0 1-.6.2h-.8zm-20.7 5.4c-.8 0-1.4.2-1.8.7-.5.6-.8 1.3-.8 2 .1 1.2.3 1.9.7 2.4.5.4 1 .6 1.9.6h.9l.8-.2v.8l-.8.2h-1c-.8 0-1.5-.1-1.9-.4a2.8 2.8 0 0 1-1-1.4c-.4-.4-.5-1-.5-1.9.1-.6.2-1.2.5-1.7a3 3 0 0 1 1.1-1.4c.5-.3 1.3-.5 2-.5.6 0 1.3.1 1.8.4l-.3.8-.7-.3a3 3 0 0 0-.9-.1zm3.6-.9.3.1.2.4c0 .2 0 .4-.2.4l-.3.2c-.2 0-.3 0-.4-.2l-.1-.3.1-.5.4-.1zm.4 2v5.3h-.9v-5.3zm3.5 4.7h.4l.5-.1v.7h-.6l-.4.2-.8-.2c-.3-.1-.4-.3-.6-.5l-.2-1V228h-.8v-.4l.8-.3.3-1.3h.6v1.4h1.5v.6h-1.5v3c0 .6 0 .8.2 1h.6zm.9-4.7h1l1.2 3c0 .3.2.6.3.8l.1.7.4-.7v-.8l1.2-3h1l-2.3 6c-.2.6-.5 1.1-.9 1.4-.2.2-.6.2-1 .2h-.8v-.6h.6c.2 0 .5 0 .7-.2l.5-.7.2-.7zm0 0" style="fill:none;stroke:#fff;stroke-width:3;stroke-linecap:butt;stroke-linejoin:round;stroke-miterlimit:10;stroke-opacity:.6" transform=" rotate(  340 136.121 209.758) "/> <g style="fill:#212121;fill-opacity:1" transform=" rotate(  340 136.121 209.758) ">  <use xlink:href="#z" x="116.7" y="220.8"/>  <use xlink:href="#C" x="123.1" y="220.8"/>  <use xlink:href="#w" x="126.7" y="220.8"/>  <use xlink:href="#K" x="129.3" y="220.8"/>  <use xlink:href="#B" x="134.9" y="220.8"/>  <use xlink:href="#C" x="141.1" y="220.8"/>  <use xlink:href="#x" x="144.7" y="220.8"/>  <use xlink:href="#L" x="147.3" y="220.8"/>  <use xlink:href="#M" x="125.6" y="232.7"/>  <use xlink:href="#x" x="131.9" y="232.7"/>  <use xlink:href="#C" x="134.5" y="232.7"/>  <use xlink:href="#N" x="138.1" y="232.7"/> </g></svg>