<svg xmlns="http://www.w3.org/2000/svg" xmlns:xlink="http://www.w3.org/1999/xlink" viewBox="0 0 497 279"> <defs>  <path d="M1 0v-7.1h4V0Zm.4-.5h3.1v-6.1h-3Zm.1 0" id="reuse-0"/> </defs> <defs overflow="visible" style="stroke:none">  <path id="j" d="M4.4 2.4V-.7l-.6.6-1 .1C2 0 1.5-.1 1.1-.6.8-1 .5-1.8.5-2.6c0-1.1.3-1.8.7-2.2.4-.5 1-.7 1.6-.7.4 0 .7.1 1 .3a2 2 0 0 1 .6.6l.3-.8h.6v7.8ZM3-.6c.5 0 1-.2 1.1-.5.2-.3.3-.8.3-1.4v-.2c0-.6 0-1.2-.3-1.5-.2-.4-.6-.5-1.2-.5-.5 0-.9.2-1.1.5-.2.4-.3 1-.3 1.5 0 .7 0 1.2.3 1.5.3.4.6.6 1.2.6Zm0 0"/>  <path id="i" d="M2.9-5.5c.6 0 1.1.2 1.4.5.3.3.5.7.5 1.3V0h-.6L4-.8c-.3.3-.5.6-.8.8h-1c-.5 0-1 0-1.3-.3C.6-.5.5-.9.5-1.5c0-.5.2-1 .5-1.2.5-.3 1-.5 2-.5h.8v-.3c.2-.5.2-.8-.2-1l-.8-.2H2l-.7.5L1-5l1-.3.9-.2Zm1 2.9h-.8c-.6 0-1 .1-1.4.3-.1.3-.3.5-.3.8 0 .3 0 .5.2.7l.7.2c.5 0 .9-.1 1.2-.4.3-.2.4-.6.4-1Zm.1 0"/>  <path id="h" d="m.8-6.8.1-.4.4-.2c.1 0 .3 0 .4.2l.1.4-.1.4-.4.2-.4-.3-.1-.3ZM.2 2.4h-.4l-.3-.1v-.7H.6c.2-.2.2-.6.2-.8v-6.2h1V.8c-.1.5-.3.9-.5 1.2-.3.3-.5.4-1.1.4Zm0 0"/>  <path id="g" d="M5.3-5.4V0h-.7l-.1-.7c-.3.3-.5.5-.9.6l-.9.2C2.1 0 1.6-.1 1.3-.4 1-.7.8-1.2.8-1.8v-3.6h.9v3.5c0 .8.3 1.3 1.2 1.3.6 0 1-.2 1.1-.5.3-.4.5-.9.5-1.5v-2.8Zm0 0"/>  <path id="f" d="M6.2 0h-1L2.5-3.4l-.6.6V0h-1v-7.1H2v3.5A74 74 0 0 1 3-5l2-2h1L3.3-4.1Zm0 0"/>  <use xlink:href="#reuse-0"/>  <path id="e" d="M2.2-3.4v-1.3h-.3c-.5 0-.8 0-1.1-.3-.3-.2-.4-.5-.4-1 0-.2.1-.5.4-.7.2-.3.6-.4 1.1-.4H3v.6H2c-.3 0-.5 0-.6.2l-.3.3c0 .3 0 .4.2.5.1.1.3.2.7.2h1v1.9Zm3 0c-.5.1-.9.1-1.2-.3-.2-.3-.3-.8-.3-1.3v-2.1h.8V-6l.7-.1c.4.1.8.1 1 .4.3.2.4.6.4 1l-.1.7-.6.5-.7.2Zm0-.6c.2 0 .4 0 .5-.2l.2-.5c0-.5-.3-.7-.7-.7-.2 0-.4 0-.5.2-.2-.1-.2.2-.2.4l.1.5.6.3Zm0 0"/>  <path id="d" d="M6.5 0 .4-3.4v-.2l6.1-3.6h.1V0Zm-.7-1.1V-6L1.7-3.6Zm0-.1"/>  <path id="c" d="M4 .1.3-4.2v-.3h4V-7H5v3.2H1.7L4.5-.3Zm0 0"/>  <path id="b" d="m1.2-3.3-.6-.4 1.2-1.4H.5v-2h.7v1.3H3v.3Zm0 0"/>  <path id="a" d="m4.8-8-.4-.3-.2-.4.2-.3.4-.2.4.1.2.4c0 .2 0 .4-.2.5l-.4.1ZM3 0c-.8.1-1.4 0-1.8-.5-.4-.5-.6-1.1-.6-2 0-.6.2-1.2.6-1.7.4-.6 1-.8 1.8-.8l.7.1c.3 0 .5.2.8.4v-2.6h.7v4.6c0 .8-.2 1.5-.6 2-.4.4-1 .5-1.6.5Zm0-.6c.2 0 .5 0 .7-.2.3-.1.4-.3.5-.6.3-.2.3-.5.3-.8v-.5c0-.3-.1-.6-.3-.8a1.4 1.4 0 0 0-.4-.6 1.3 1.3 0 0 0-.8-.2c-.5 0-1 .2-1.2.5-.3.3-.4.8-.4 1.4 0 .6.1 1 .4 1.4.2.3.6.4 1.1.4Zm0 0"/>  <use xlink:href="#reuse-0"/> </defs> <image xlink:href="svg/8/54_10.jpg" width="497" height="279"/> <path d="M3.8 2C3.8 3 3 3.8 2 3.8A1.7 1.7 0 1 1 3.8 2Zm0 0" style="fill-rule:nonzero;comp-op:darken;fill:#fdfdfc;fill-opacity:1;stroke-width:.5;stroke-linecap:butt;stroke-linejoin:miter;stroke:#424236;stroke-opacity:1;stroke-miterlimit:4" transform="matrix(1,0,0,1,232.424139,132.093198)"/> <path d="m224.6 139.6-.6-.1v-.9l.6-.1.4.1.2.4-.2.5-.4.1Zm-2 8.2c-.6 0-1.2-.2-1.6-.6-.5-.5-.7-1.2-.7-2 0-.6.3-1.2.7-1.7.4-.6 1-.8 1.7-.8l.8.1.7.3v-2.5h.8v4.4c0 1.1-.2 1.7-.6 2.1-.4.5-1 .7-1.7.7Zm.1-.7c.3 0 .6 0 .9-.2.1-.2.3-.3.4-.6l.2-.8v-.5c0-.3 0-.6-.2-.8a1.4 1.4 0 0 0-.5-.6 1.3 1.3 0 0 0-.7-.2c-.6 0-1 .2-1.2.5-.3.3-.6.8-.6 1.4.1.7.3 1 .5 1.3.3.4.7.5 1.2.5Zm4.1-2.7-.5-.4 1.2-1.4h-1.3v-2h.7v1.3h1.8v.3Zm6.2 3.4-3.5-4.3v-.3h3.9v-2.6h.6v3.3h-3.2l2.8 3.5Zm8.3 0-6.3-3.6v-.2l6.3-3.6v7.4Zm-.7-1.3v-4.8l-4.2 2.4Zm3.6-2.2V143h-.2c-.5 0-1 0-1.2-.3-.2-.2-.4-.5-.4-1 0-.2.2-.5.4-.7.3-.3.7-.4 1.2-.4h1v.6h-1c-.3 0-.5 0-.6.2-.2 0-.2.2-.2.4s0 .2.2.4l.6.2h1v1.9Zm3 0c-.5 0-.8-.1-1-.3-.4-.4-.5-.8-.5-1.3v-2.1h.8v1.2l.7-.2c.5 0 .8.1 1 .4.5.2.6.6.6 1-.1.2-.1.5-.3.7l-.5.5-.8.1Zm0-.6c.2 0 .4 0 .5-.2.3-.1.3-.3.3-.5 0-.5-.3-.7-.8-.7l-.5.1-.2.6c0 .2 0 .4.2.5l.5.2Zm-27.4 15.9h-1l-2.7-3.4-.6.8v2.6h-1v-7.1h1.1v3.5a74 74 0 0 1 1.1-1.4l2-2.1h.9l-2.8 3.1Zm5.3-5.3v5.3h-.7l-.1-.6c-.3.2-.6.4-.9.5-.2.2-.4.2-.9.2s-1.1-.1-1.4-.4c-.4-.3-.5-.8-.5-1.5v-3.5h.9v3.4c0 .9.4 1.3 1.2 1.3.6 0 1-.2 1.2-.5.2-.3.3-.8.3-1.4v-2.8Zm6.2 0v5.3h-.7l-.1-.6c-.4.2-.5.4-.9.5-.2.2-.6.2-.9.2-.6 0-1.1-.1-1.4-.4-.5-.3-.5-.8-.5-1.5v-3.5h.9v3.4c0 .9.3 1.3 1.1 1.3.6 0 1-.2 1.3-.5.2-.3.3-.8.3-1.4v-2.8Zm1.7-1.5v-.4l.5-.1.3.1.2.4c0 .2 0 .3-.2.4l-.4.2c-.1 0-.2 0-.3-.2l-.2-.4Zm-.7 9.2h-.7v-.9h.3l.4.3c.2-.1.4-.1.5-.3l.2-.6v-6.2h.9v6.1c0 .6-.1 1-.4 1.2-.2.3-.5.4-1.1.4Zm3.2-9.2c0-.2 0-.3.2-.4l.3-.1.4.1.1.4-.1.4-.4.2s-.2 0-.3-.2l-.2-.4Zm-.5 9.2h-.8v-.9h.3l.3.3c.3-.1.4-.1.6-.3l.2-.6v-6.2h.9v6.1c0 .6-.2 1-.5 1.2 0 .3-.5.4-1 .4Zm7.6-7.7v5.3h-.6l-.2-.6c-.3.2-.6.4-.8.5-.3.2-.6.2-1 .2-.6 0-1-.1-1.4-.4-.3-.3-.6-.8-.6-1.5v-3.5h1v3.4c0 .9.4 1.3 1.2 1.3.6 0 1-.2 1.2-.5.2-.3.4-.8.4-1.4v-2.8Zm3.8-.1c.6 0 1.1.1 1.4.4.3.4.5.8.5 1.4v3.6h-.7l-.1-.6-.9.5c-.2.2-.6.2-.9.2-.6 0-1.1-.1-1.4-.3-.2-.4-.3-.7-.3-1.4 0-.4.1-.8.6-1 .4-.4 1-.5 2-.6h.7v-.3c.1-.5.1-.8-.2-1.1h-1.6l-.7.3-.3-.7.9-.3 1-.1Zm1 2.8h-.8c-.6 0-1.1.2-1.4.4-.2.2-.2.4-.2.6-.1.5-.1.7 0 .8.3.2.6.2.8.2.5 0 .9 0 1.2-.4.3-.2.4-.6.4-1.1Zm6.1 5v-3l-.6.5-1 .2c-.8 0-1.3-.2-1.7-.7-.4-.4-.6-1-.6-2s.2-1.6.7-2.1c.4-.5 1-.7 1.6-.7.4 0 .7 0 1 .2a2 2 0 0 1 .6.6l.3-.7h.6v7.7Zm-1.5-3c.6 0 1 0 1.2-.4.2-.4.3-.8.3-1.6 0-.7 0-1.2-.3-1.6-.2-.3-.6-.4-1.2-.4-.5-.1-1 .1-1.1.5-.2.4-.3.9-.3 1.5s0 1 .3 1.5c.2.3.6.5 1.1.5Zm0 0" style="fill:none;stroke-width:3;stroke-linecap:butt;stroke-linejoin:round;stroke:#fff;stroke-opacity:.6;stroke-miterlimit:10" transform=" rotate(  340 234.154 150.663) "/> <g style="fill:#222;fill-opacity:1" transform=" rotate(  340 234.154 150.663) ">  <use xlink:href="#a" x="219.8" y="147.7"/>  <use xlink:href="#b" x="225.7" y="147.7"/>  <use xlink:href="#c" x="229.1" y="147.7"/>  <use xlink:href="#d" x="234.7" y="147.7"/>  <use xlink:href="#e" x="242.1" y="147.7"/>  <use xlink:href="#f" x="213.6" y="159.6"/>  <use xlink:href="#g" x="219.8" y="159.6"/>  <use xlink:href="#g" x="226" y="159.6"/>  <use xlink:href="#h" x="232.1" y="159.6"/>  <use xlink:href="#h" x="234.7" y="159.6"/>  <use xlink:href="#g" x="237.3" y="159.6"/>  <use xlink:href="#i" x="243.5" y="159.6"/>  <use xlink:href="#j" x="249.1" y="159.6"/> </g></svg>