<svg xmlns="http://www.w3.org/2000/svg" xmlns:xlink="http://www.w3.org/1999/xlink" viewBox="0 0 497 279"> <defs overflow="visible" style="stroke:none">  <path id="v" d="M1.7-3.2h1.6c1.4 0 2.1.6 2.1 1.6 0 .5-.2.9-.4 1.2-.4.3-1 .4-1.7.4H.8v-5.4h1Zm2.8 1.6c0-.3 0-.4-.3-.6-.2-.3-.6-.3-1-.3H1.7v1.8h1.5c.4 0 .8 0 1-.2.2-.1.3-.4.3-.7Zm0 0"/>  <path id="u" d="M1.7-5.4V-3h3v-2.4h.7V0h-.8v-2.4H1.7V0H.8v-5.4Zm0 0"/>  <path id="t" d="M2.9-5.5c.6 0 1.1.2 1.4.5.3.3.5.7.5 1.3V0h-.6L4-.8c-.3.3-.5.6-.8.8h-1c-.5 0-1 0-1.3-.3C.6-.5.5-.9.5-1.5c0-.5.2-1 .5-1.2.5-.3 1-.5 2-.5h.8v-.3c.2-.5.2-.8-.2-1l-.8-.2H2l-.7.5L1-5l1-.3.9-.2Zm1 2.9h-.8c-.6 0-1 .1-1.4.3-.1.3-.3.5-.3.8 0 .3 0 .5.2.7l.7.2c.5 0 .9-.1 1.2-.4.3-.2.4-.6.4-1Zm.1 0"/>  <path id="s" d="M3.4-5.5c.7 0 1.2.3 1.6.7.4.5.6 1.2.6 2.1 0 1-.2 1.7-.6 2-.4.7-1 .9-1.6.9-.4-.2-.8-.2-1-.3l-.7-.6v3.1H.8v-7.8h.8v.8h.2c.2-.4.3-.5.6-.6.2-.2.6-.3 1-.3Zm-.2.8c-.5 0-.9.1-1.1.5-.2.2-.4.7-.4 1.2v.3c0 .7.1 1.2.3 1.5.3.4.7.6 1.3.6.3 0 .6-.1.7-.4l.5-.6.2-1.1c0-.6-.1-1.1-.4-1.5-.2-.3-.6-.5-1-.5Zm0 0"/>  <path id="r" d="M2.3-5.5c.6 0 1 .2 1.4.5.4.1.6.5.6 1s-.1.6-.3.8c-.2.2-.4.3-.7.3a2 2 0 0 1 .5.4l.5.5.2.5c0 .5-.2.8-.6 1.1-.4.4-1 .5-1.7.5l-1-.1a3 3 0 0 1-1-.3V-1a4 4 0 0 0 2 .4c.4 0 .7 0 1-.2.2-.2.4-.4.4-.7 0-.6-.6-1-1.6-1h-.7v-.6H2l1-.2c.3-.2.4-.4.4-.7 0-.2 0-.4-.3-.5-.1-.2-.5-.2-.9-.2a3 3 0 0 0-.8 0l-.7.4L.4-5a4.8 4.8 0 0 1 1.9-.5Zm0 0"/>  <path id="q" d="M.8 0v-5.4h1v2.2H3c.8 0 1.3.2 1.7.4.3.3.5.8.5 1.2S5-.7 4.7-.4c-.4.3-.9.4-1.7.4ZM6 0v-5.4h1V0ZM1.7-.7H3c.4 0 .7 0 1-.2.1-.1.2-.4.2-.7.1-.3 0-.4-.2-.6-.3-.3-.6-.3-1-.3H1.7Zm0 0"/>  <path id="p" d="M4-6.5c-.7 0-1.3.3-1.8.8-.4.5-.6 1.2-.6 2.1 0 1 .2 1.6.6 2.1.4.6 1 .8 1.8.8h1l.6-.3v.8L5 0H4c-.8 0-1.4 0-2-.2a2.8 2.8 0 0 1-1-1.4c-.3-.6-.4-1.2-.4-2 0-.7.1-1.3.4-1.9a3 3 0 0 1 1.2-1.3c.5-.2 1.1-.4 1.8-.4.8 0 1.5.1 2 .4l-.3.7-.8-.2a3 3 0 0 0-.9-.2Zm0 0"/>  <path d="M1 0v-7.1h4V0Zm.4-.5h3.1v-6.1h-3Zm.1 0"/>  <path id="o" d="M2.8.1C2 .1 1.5 0 1.1-.5.7-1 .5-1.5.5-2.3c0-.7.1-1.3.5-1.9 0-.5.5-1 .9-1.3C2.5-5.8 3-6 3.8-6c.5 0 .9.1 1.2.4.5.2.6.6.6 1.1 0 .4-.1.8-.4 1-.3.3-.6.5-1 .5l.6.4c.3.2.4.6.4.9.1.3.1.5-.2.8 0 .3-.4.5-.7.7-.4.2-.9.3-1.5.3ZM1.6-3.3h1.2l1-.1c.2 0 .3-.2.5-.4.3-.1.4-.2.4-.6L4.4-5l-.7-.2c-.7 0-1 .2-1.3.5-.4.3-.6.8-.8 1.4ZM3-.7c.4 0 .8 0 1-.3.3-.2.4-.4.4-.7-.1-.3-.2-.5-.4-.6-.3-.2-.6-.2-1.1-.2H1.5v.2c0 .6.1 1 .4 1.3.1.2.6.3 1 .3Zm0 0"/>  <path id="n" d="M1 .1H.3A2 2 0 0 1 0 0v-1a2 2 0 0 0 .4.2H1c.3 0 .6-.1.9-.3l.9-1.1L1-8h1.1l1 3.6.2.7.1.8a24.4 24.4 0 0 1 .7-1.3l2.1-3.7h1.1l-3.6 6a7 7 0 0 1-.9 1c-.3.6-.6.7-.8.9L1 .1Zm0 0"/>  <path id="m" d="M2.7.1C2 .1 1.5 0 1.2-.3.9-.6.7-1 .7-1.6a4 4 0 0 1 0-.4l.1-.6.7-3.4h1l-.6 2.7.6-.1h.7c.8-.1 1.2-.1 1.4.4.4.3.5.6.5 1-.1.6-.1.9-.3 1-.2.5-.4.7-.8.9-.4.1-.8.2-1.3.2Zm0-.8c.5 0 .9-.1 1-.3.3-.2.5-.5.5-.8-.1-.3-.1-.5-.2-.6-.3-.2-.6-.3-1.1-.3a7 7 0 0 0-1 .1l-.2.6v.3c-.1.3-.1.5.1.7.2.2.5.3.9.3Zm0 0"/>  <path id="l" d="m.3 0 1.3-5.9h.8l-.2 1c.3.1.5-.2.6-.3l.7-.6.7-.2c.4 0 .7.1 1 .3 0 .3.2.7.2 1a4 4 0 0 1 .8-.6l.6-.5.7-.2c.5 0 .9.1 1.1.4.4.2.4.6.4 1v.6l-.1.4L8 0h-.9L8-3.7v-.4a2 2 0 0 0 0-.4V-5l-.7-.2-.8.3c-.2.2-.5.4-.7.8-.2.4-.4.8-.5 1.4L4.7 0h-1l.8-3.7.1-.7c0-.3 0-.4-.2-.6L4-5.2l-1 .3c0 .1-.4.4-.6.8C2-3.7 2-3 1.8-2.5L1.3 0Zm0 0"/>  <path id="k" d="M0 0h-.5v-.8H0S.3-.8.5-1l.5-.7.5-1.4.5-1.2.5-1 .7-.4 1-.3H5l.6.3L4.4 0h-1l1.1-5-.2-.2h-.2c-.3.1-.5.1-.7.2-.2.2-.4.5-.5.8l-.6 1.5-.6 1.5-.7 1C.7 0 .4 0 0 0Zm0 0"/>  <path id="j" d="M2.6.1C2 .1 1.5 0 1.1-.5.7-1 .5-1.5.5-2.4A9 9 0 0 1 1-4.9L1.5-6a4 4 0 0 1 .8-1.1c.2-.5.6-.7 1-.8L4-8a19.9 19.9 0 0 1 2.3-.4v.8l-.6.1-1.1.2-.8.2c-.5.2-1 .5-1.2.9-.4.4-.6 1-.8 1.7l.8-.7 1.2-.3c.5 0 1 .2 1.2.5.3.4.4 1 .4 1.5l-.1 1.3L4.8-1c-.2.3-.5.6-.9.8-.3.2-.8.3-1.3.3Zm.1-.8c.4 0 .6 0 .8-.3.3 0 .5-.4.6-.7l.3-.8v-1c.1-.2.1-.6-.1-.8-.2-.3-.5-.4-.8-.4l-.8.2-.6.5-.5.5v1.2c-.1.3-.1.8.1 1.2.3.3.6.4 1.1.4Zm0 0"/>  <path id="i" d="M2.7 0C2 0 1.5 0 1.1-.4.7-1 .5-1.5.5-2.2a5 5 0 0 1 .2-1.3c.1-.5.3-.9.6-1.3a3 3 0 0 1 .9-.7C2.6-6 3-6 3.5-6c.7 0 1.2.2 1.5.6.5.4.7 1 .7 1.7 0 .4 0 .9-.2 1.3-.1.5-.3.9-.6 1.4a3 3 0 0 1-.9.8c-.4.2-.8.2-1.3.2Zm0-.6c.5-.1.9-.2 1.1-.5.2-.2.5-.6.6-.9.2-.6.3-1.1.3-1.8l-.1-.7-.4-.5-.7-.2c-.5 0-.8.2-1 .5-.5.2-.7.5-.9.9L1.5-2c0 .3.1.7.3.9.3.3.6.4 1 .4Zm.1-.1"/>  <path id="h" d="M.2 0h-.4v-.8h.7l.5-.8a3 3 0 0 1 .3-.6l.7-.6c-.4.1-.6-.1-.8-.4C1-3.4.9-3.7.9-4c.1-.6.2-1 .6-1.4.5-.3 1-.5 1.8-.5h2.2L4.3 0h-1l.5-2.3h-.7c-.4 0-.6 0-.8.2l-.5.8-.4.7L1 0 .2.1ZM3-3h1l.4-2.1H3c-.3.1-.6.1-.8.3-.2.2-.3.4-.3.8 0 .3.1.5.3.7l.8.2Zm0-.1"/>  <path id="g" d="M2.1.1C1.7.1 1.3 0 1-.4.7-.7.5-1.2.5-1.9l.2-1.6.6-1.3c.3-.4.7-.7 1-.9.2-.2.7-.3 1.1-.3.4 0 .7.1 1 .3l.5.7.5-.9H6L4.8 0H4l.2-1a4 4 0 0 1-1.1.7c-.1.3-.6.3-.9.3Zm.3-.8c.3 0 .6 0 .8-.3a3 3 0 0 0 .8-.8 5 5 0 0 0 .4-1.1l.1-.6V-4c.1-.4.1-.6-.1-1-.4 0-.6-.2-.9-.2-.3 0-.5.2-.8.3l-.6.7-.4 1-.2 1.4c0 .3 0 .6.3.9l.6.1Zm0 0"/>  <path id="f" d="m.3 0 1.2-5.9h1L2-3l2.7-2.9h1.2l-3 3L5 0H3.8l-2-3-.4 3Zm0 0"/>  <path id="e" d="M2.7.1C2.1.1 1.5 0 1.1-.4.7-.8.5-1.4.5-2.1l.2-1.5c.3-.4.4-.9.7-1.2a3 3 0 0 1 1-.9c.2-.2.6-.3 1.1-.3h.9l.6.4-.2.6a4 4 0 0 0-.5-.1h-.7c-.4-.1-.8-.1-1 .2-.5.4-.6.9-.9 1.3-.1.4-.2 1-.2 1.5 0 .4.1.8.5 1.1 0 .2.4.3.9.3l.5-.1c.4 0 .6-.2.8-.3v.9l-.7.2a3 3 0 0 1-.8.1Zm0 0"/>  <path id="d" d="M1.7.1.7 0C.5 0 .3-.1 0-.3v-.9a5 5 0 0 0 .7.4l1 .1c.6 0 1 0 1.3-.3 0-.2.3-.4.3-.8L3-2.4c0-.2-.4-.3-.8-.3h-.8l.1-.8h1.3l.6-.3.2-.7c0-.2 0-.4-.2-.5l-.7-.2L2-5a5 5 0 0 0-.8.2l-.3-.8L2-5.9l.8-.1c.5 0 1 .1 1.2.4.4.2.6.5.6 1 0 .4-.1.6-.4 1l-1 .5c.3.1.6.3.7.5.2.2.3.4.3.8 0 .5-.2 1-.6 1.4-.4.3-1 .4-2 .4Zm0 0"/>  <path id="c" d="m.3 0 1.3-5.9h1L2-3.4h2.8L5.3-6h1L5 0H4l.7-2.6H1.8L1.3 0Zm0 0"/>  <path id="b" d="M2.7.1C2 .1 1.5 0 1-.5.7-.9.5-1.5.5-2a4.9 4.9 0 0 1 .8-2.7 3 3 0 0 1 1-1.1c.2-.1.7-.2 1.2-.2s1 .1 1.2.4c.3.2.5.5.5 1 0 .3-.2.6-.4 1-.2.3-.6.6-1.1.8-.5.2-1.2.3-2 .3h-.2v.4c0 .4.1.8.3 1 .3.3.6.4 1 .4l.8-.1c.4 0 .5-.2.8-.3v.8l-.8.3-1 .1Zm-1-3.4L3-3.4l.9-.4c.1-.2.3-.5.3-.7 0-.2 0-.5-.2-.5l-.6-.2c-.3 0-.7.2-1 .5-.4.3-.6.8-.7 1.4Zm0 0"/>  <path id="a" d="M.5 0 2-7.9h5.5L6 0H4.9l1.5-7H2.9L1.4 0Zm0 0"/>  <path d="M1 0v-7.9h4.6V0Zm.6-.6H5v-6.7H1.6Zm0 0"/> </defs> <image xlink:href="svg/8/5_7.jpg" width="497" height="279"/> <path d="m67 163.6 1.8-7.9h5.4l-1.7 7.9h-1l1.5-7h-3.5l-1.4 7zm9.8.1c-.8 0-1.2-.2-1.6-.6-.4-.4-.6-1-.6-1.6a4.9 4.9 0 0 1 .8-2.7 3 3 0 0 1 1-.8c.3-.3.6-.4 1.2-.4s1 .1 1.3.4c.1.2.4.5.4 1 0 .3-.1.7-.4 1-.2.3-.6.6-1.1.8-.5.2-1.2.2-2 .2h-.2v.5c0 .4.1.8.4 1 .2.3.5.5 1 .5l.8-.2.8-.3v.8l-.9.3-1 .1zm-1-3.4 1.4-.1.8-.4c.2-.2.3-.5.3-.8 0 0 0-.3-.2-.4l-.6-.2c-.3 0-.7.2-1 .5-.3.3-.5.8-.7 1.4zm4.2 3.3 1.1-5.9h1.1l-.7 2.5h2.9l.5-2.5H86l-1.4 5.9h-1l.7-2.6h-2.9l-.4 2.6zm8 .1-1-.1c-.3 0-.6-.2-.8-.3v-.9a5 5 0 0 0 .7.3c.3.3.7.3 1.1.3.5 0 .9 0 1.2-.4.2-.2.3-.5.3-.8 0-.2 0-.5-.2-.6-.3-.2-.5-.3-1-.3h-.6l.1-.8H89l.6-.4c.2-.1.2-.3.2-.7 0 0 0-.3-.2-.4l-.6-.2-.8.1a5 5 0 0 0-.8.3l-.3-.8 1-.3.9-.1c.6 0 1 .1 1.3.4.4.2.5.5.5 1 0 .4-.1.7-.3 1l-1 .5c.1.1.5.2.6.5l.3.8c0 .5-.2 1-.6 1.4-.4.3-1 .5-1.9.5zm5.8 0c-.8 0-1.2-.2-1.6-.6-.4-.4-.6-1-.6-1.6a4.9 4.9 0 0 1 .8-2.7 3 3 0 0 1 1-.8c.3-.3.6-.4 1.2-.4s1 .1 1.2.4c.3.2.5.5.5 1 0 .3-.3.7-.4 1-.2.3-.6.6-1.1.8-.5.2-1.2.2-2 .2h-.2v.5c0 .4.1.8.3 1 .3.3.6.5 1.1.5l.7-.2.8-.3v.8l-.8.3-1 .1zm-1-3.4 1.4-.1.8-.4c.2-.2.3-.5.3-.8 0 0 0-.3-.2-.4l-.6-.2c-.3 0-.7.2-1 .5-.3.3-.6.8-.7 1.4zm4.1 3.3 1.3-5.9h1l-.7 2.5h2.9l.5-2.5h1l-1.3 5.9h-1l.7-2.6h-2.9l-.4 2.6zm9.1.1c-.8 0-1.4-.2-1.8-.5-.2-.4-.5-1-.5-1.7l.3-1.5c.1-.5.3-.9.6-1.2a3 3 0 0 1 1-.9c.2-.2.6-.3 1.1-.3h.9l.7.4-.3.7a4 4 0 0 0-.5-.2h-.7c-.4-.1-.8-.1-1 .2-.5.4-.7.8-.8 1.3-.2.4-.3 1-.3 1.5 0 .4.1.8.4 1 .2.3.5.5.9.5l.7-.2.6-.3v.9l-.6.2a3 3 0 0 1-.7.1zm2.5-.1 1.2-5.9h1l-.6 2.8 2.7-2.8h1.2l-2.9 3 2 2.8H112l-1.9-2.9-.6 3.1zm7.2.1c-.5 0-.9-.2-1.2-.5-.3-.3-.4-.8-.4-1.5-.1-.7-.1-1 .2-1.7.1-.4.3-.9.6-1.2.1-.4.5-.7.9-.8.2-.3.7-.4 1.2-.4l.9.3.5.7h.1l.3-.9h.8l-1.3 5.9h-.7l.1-1.1a4 4 0 0 1-1 .8c-.2.3-.5.4-.9.4zm.3-.8c.2.1.5.1.8-.3a3 3 0 0 0 .7-.8 5 5 0 0 0 .5-1.1v-.7l.2-.4c-.1-.4-.1-.6-.4-.9-.2-.2-.4-.3-.8-.3l-.8.3-.6.7-.4 1-.2 1.4c0 .3.1.6.3.9l.7.1zM120 163.7h-.2l-.2-.2v-.7h.7l.4-.8a3 3 0 0 1 .4-.7l.6-.3c-.3 0-.6-.4-.7-.6-.2-.2-.3-.4-.3-.8 0-.6.3-1 .6-1.4.4-.2 1-.5 1.7-.5h2.3l-1.3 5.9h-1l.7-2.3h-.8c-.4 0-.6 0-.9.2l-.4.8-.4.7-.5.5-.7.2zm2.8-3.2h1l.4-2h-1.3c-.4 0-.7.1-1 .3l-.1.8c-.1.3-.1.4.2.7l.8.2zM76.5 177c-.7 0-1.3 0-1.6-.4-.4-.6-.6-1.1-.6-1.8a5 5 0 0 1 .2-1.4c0-.4.3-.8.5-1.2a3 3 0 0 1 1-.8c.2-.4.6-.4 1.1-.4.9 0 1.3.2 1.7.6.4.4.6 1 .6 1.7 0 .4 0 .9-.2 1.3l-.5 1.4a3 3 0 0 1-1 .7c-.2.3-.7.4-1.1.4zm0-.6c.5-.1.7-.4 1-.5l.7-1 .2-1.8-.1-.6c0-.2-.2-.4-.4-.5l-.7-.2c-.4 0-.7.1-1 .4-.3.3-.6.8-.7 1.1l-.3 1.5c0 .5.2.8.4 1 .2.4.4.6 1 .6zm6.1.6c-.7 0-1.2 0-1.6-.4-.4-.6-.5-1.1-.5-2a9 9 0 0 1 .4-2.5l.5-1.1a4 4 0 0 1 .8-1.2l1-.8h.8a19.9 19.9 0 0 1 2.2-.5l.1.9h-.8l-1 .4-.8.1c-.5.1-.9.4-1.2.9-.3.4-.6 1-.8 1.7l1-.7c.2-.2.6-.3 1-.3.6 0 1 .2 1.3.5.2.4.4 1 .4 1.5 0 .4 0 .9-.2 1.3 0 .4-.2.8-.5 1.2l-.7.8c-.5.2-1 .2-1.4.2zm0-.6c.4-.1.8-.2 1-.4l.4-.7.3-.9v-1.8c-.3-.2-.5-.3-.8-.3-.3 0-.6 0-.8.2l-.7.5-.4.5-.1.5v.6c0 .5 0 1 .2 1.2.3.3.5.5 1 .5zM85.9 177h-.5v-1l.4.2c.2 0 .4 0 .6-.2l.6-.8.4-1.2.5-1.4.5-.9.7-.5 1.1-.2h.7l.7.3-1.3 5.7h-1l1.3-5.1H90c-.3-.1-.5-.1-.7.1-.2.2-.3.4-.5.8l-.5 1.4-.7 1.6-.6 1c-.3 0-.7.2-1 .2zm8.1 0c-.4 0-.8 0-1-.3-.4-.5-.6-1-.6-1.7l.2-1.5c.2-.5.4-1 .7-1.3.2-.4.5-.7.9-.9.3-.2.7-.3 1.1-.3.4 0 .7 0 1 .3l.5.7.5-1h.7l-1.3 6H96l.1-1.1a4 4 0 0 1-1.1.8c-.2.3-.6.4-.9.4zm.4-.6c.2-.1.5-.2.6-.4a3 3 0 0 0 1-.8 5 5 0 0 0 .4-1.1V173c.1-.4.1-.7-.1-1-.3 0-.6-.2-.9-.2-.3 0-.4 0-.8.2l-.6.8-.4 1-.2 1.4c0 .3.1.6.3.8.1.2.3.3.7.3zm6.5.6c-.7 0-1.2 0-1.6-.4-.4-.4-.6-1-.6-1.6 0-.6 0-1.1.2-1.6.1-.5.3-.9.6-1.3a3 3 0 0 1 1-.8c.4-.3.8-.3 1.3-.3h.7l.7.4-.2.6a4 4 0 0 0-.6-.1l-.6-.1c-.4 0-.8.1-1.1.4l-.8 1.1-.2 1.7c0 .3 0 .7.3.9.3.3.6.4 1 .4l.7-.1.7-.3v.8l-.7.3a3 3 0 0 1-.7 0zm2.6 0 1.2-6h.8l-.1 1.3.6-.7.5-.4c.3-.2.5-.2.8-.2.4 0 .7 0 1 .3l.4 1a4 4 0 0 1 .5-.7l.8-.4c.1-.2.4-.2.7-.2.5 0 .8 0 1 .4.3.2.6.6.6 1v.6l-.3.4-.7 3.6h-1l.8-3.7v-.4a2 2 0 0 0 .2-.4c-.1-.2-.1-.4-.3-.5l-.6-.2c-.2 0-.4 0-.7.2-.3.2-.5.5-.8.9-.2.4-.4.8-.5 1.4l-.4 2.7h-1.1l.8-3.7V172l-.7-.2c-.2 0-.4 0-.7.2-.3.2-.5.5-.8.9l-.5 1.5-.6 2.6zm11.9 0c-.6 0-1 0-1.4-.2-.4-.4-.5-.8-.5-1.4a4 4 0 0 1 0-.5v-.5l.9-3.4h.9l-.7 2.6h1.4c.7-.1 1-.1 1.4.4.3.3.6.6.6 1s-.2.9-.4 1c-.2.5-.6.7-.8.9-.4.1-.8.2-1.4.2zm.1-.6c.5-.1.8-.2 1-.4.4-.3.5-.5.5-1l-.4-.5-.8-.2a7 7 0 0 0-1.3.1v1.6c.3.2.6.3 1.1.3zm0-.1" style="fill:none;stroke:#fff;stroke-width:3;stroke-linecap:butt;stroke-linejoin:round;stroke-miterlimit:10;stroke-opacity:.6" transform=" rotate(  340 96.6511 167.286) "/> <g style="fill:#7d577d;fill-opacity:1" transform=" rotate(  340 96.6511 167.286) ">  <use xlink:href="#a" x="66.6" y="163.6"/>  <use xlink:href="#b" x="74.1" y="163.6"/>  <use xlink:href="#c" x="79.6" y="163.6"/>  <use xlink:href="#d" x="86.2" y="163.6"/>  <use xlink:href="#b" x="91.1" y="163.6"/>  <use xlink:href="#c" x="96.6" y="163.6"/>  <use xlink:href="#e" x="103.2" y="163.6"/>  <use xlink:href="#f" x="108.2" y="163.6"/>  <use xlink:href="#g" x="113.5" y="163.6"/>  <use xlink:href="#h" x="119.8" y="163.6"/>  <use xlink:href="#i" x="73.7" y="177"/>  <use xlink:href="#j" x="79.9" y="177"/>  <use xlink:href="#k" x="85.9" y="177"/>  <use xlink:href="#g" x="91.9" y="177"/>  <use xlink:href="#e" x="98.2" y="177"/>  <use xlink:href="#l" x="103.1" y="177"/>  <use xlink:href="#m" x="112.8" y="177"/> </g> <path d="M335.4 70.8h-.5a2 2 0 0 1-.4-.3v-.9a2 2 0 0 0 .4.3h.5c.3 0 .6 0 1-.3l.8-1.1-1.6-5.8h1l1 3.6v.7l.4.7a24.4 24.4 0 0 1 .5-1.2l2.2-3.7h1l-3.4 6a7 7 0 0 1-1.1 1l-.7.8-1.1.2zm4.9-.1h-.3v-.9l.2.2c.3-.1.5-.1.6-.3.2-.2.4-.4.5-.8l.5-1.3.5-1.3.5-.9.7-.4 1.1-.3h.7l.7.3-1.3 5.7h-1l1.3-5.1H343.7l-.5.9-.5 1.4-.7 1.6c0 .4-.4.7-.6 1l-1 .1zm8.7.1c-.6 0-1.1-.2-1.5-.4-.3-.4-.5-.7-.5-1.4a4 4 0 0 1 0-.4l.1-.6.7-3.2h1l-.6 2.5h.8l.5-.2c.7.1 1.2.3 1.5.6.3.2.4.6.4 1s0 .9-.3 1.1c-.1.4-.4.6-.8.8-.3.1-.8.2-1.3.2zm0-.8c.6 0 1-.1 1.2-.3.1-.3.2-.5.2-.9 0-.2 0-.4-.2-.6l-.9-.2a7 7 0 0 0-1.2.1l-.1.5v.4c0 .3 0 .5.2.7.1.2.4.3.8.3zm3.3.7h-.3v-.8c.3.1.5.1.6-.2.1 0 .4-.3.4-.7a3 3 0 0 1 .4-.6l.6-.4c-.3-.1-.6-.3-.7-.5-.3-.3-.3-.5-.3-.9 0-.5.2-1 .6-1.3.4-.3 1-.5 1.7-.5h2.3l-1.3 5.9h-1l.7-2.4h-.8c-.4 0-.6.1-.8.3l-.4.8-.5.6-.5.6-.7.1zm2.8-3.2h.9l.5-2h-1.3c-.4.1-.7.3-1 .5l-.2.6c0 .4 0 .6.3.7.2.2.5.2.8.2zm3.1 3.2 1.3-6h1l-.7 2.6h2.9l.5-2.5h1l-1.2 5.9h-1l.5-2.7h-2.7l-.6 2.7zm9.1.1c-.7 0-1.3-.2-1.7-.6-.3-.5-.5-1-.5-1.7a5 5 0 0 1 .2-1.4c0-.4.3-.8.5-1.1a3 3 0 0 1 1-1c.2-.2.6-.3 1.2-.3.7 0 1.2.2 1.6.6.4.4.6 1 .6 1.7 0 .4 0 .9-.2 1.3l-.5 1.2a3 3 0 0 1-1 1c-.2.1-.6.2-1.1.2zm0-.9c.4.1.7.1 1-.3l.7-1 .2-1.8-.1-.6c0-.2-.2-.4-.4-.5l-.7-.2c-.4 0-.7.1-1 .4-.3.3-.6.7-.7 1.1l-.3 1.5c0 .5.1.8.4 1 .2.4.5.5 1 .5zm6.3.9c-.8 0-1.4-.2-1.8-.8-.4-.3-.5-.9-.5-1.7 0-.6 0-1.3.3-1.8.4-.6.6-1 1-1.3.7-.4 1.2-.5 1.9-.5.5 0 1 0 1.3.3.4.3.6.7.6 1.2 0 .4-.2.7-.5 1l-.9.5c.2 0 .5.3.7.4.2.2.3.5.3.9l-.3.8c-.1.2-.4.5-.7.7-.4.2-.8.3-1.4.3zm-1.3-3.5h2.2c.1-.2.5-.3.5-.5l.4-.5c0-.3 0-.4-.2-.6l-.8-.2c-.5 0-1 .1-1.4.5-.3.3-.5.7-.7 1.3zm1.4 2.7c.3 0 .8-.1 1-.3.2-.2.3-.5.3-.8 0-.2 0-.4-.3-.6l-1-.2h-1.6v.3c.1.5.3 1 .5 1.2.4.4.6.4 1 .4zm5.7.8c-.7 0-1.2-.2-1.6-.6-.4-.2-.6-.9-.6-1.6 0-.6 0-1 .2-1.6l.6-1.2a3 3 0 0 1 1-.8c.4-.2.8-.3 1.3-.3h.7l.8.3-.3.7a4 4 0 0 0-.6-.1l-.6-.1c-.3 0-.8.1-1.1.4-.3.3-.6.7-.7 1.1-.2.5-.3 1-.3 1.6 0 .4.1.8.3 1 .3.4.6.4 1 .4l.7-.1.8-.3v.8l-.8.3a3 3 0 0 1-.8 0zm2.6-.1 1.2-6h1l-.6 3.1 2.7-3.2h1.2l-2.9 3.2 2 2.9h-1.2l-1.8-3-.7 3zm7.1.1c-.4 0-.8-.2-1.1-.5-.3-.4-.5-.9-.5-1.5l.2-1.6c.3-.5.4-1 .7-1.3.2-.4.5-.7.9-.9.3-.2.7-.3 1.1-.3.4 0 .7 0 1 .3l.5.7.5-1h.7l-1.3 6.1h-.8l.2-1.2a4 4 0 0 1-1.1.8c-.1.3-.6.4-.9.4zm.3-.8c.3 0 .6-.1.8-.3a3 3 0 0 0 .8-.8 5 5 0 0 0 .4-1.2l.2-.5v-.5c0-.4-.1-.7-.3-.9-.3-.2-.5-.3-.8-.3-.3 0-.5 0-.8.2l-.6.8-.4 1-.2 1.3c0 .4.1.7.3.9.1.2.4.3.6.3zm4.1.7h-.5v-.8h.3c.2.1.4.1.5-.2.1 0 .2-.3.4-.7a3 3 0 0 1 .4-.6l.6-.4-.8-.5-.2-.9c0-.5.2-1 .6-1.3.4-.3 1-.5 1.7-.5h2.3l-1.3 5.9h-1l.7-2.4h-.8c-.4 0-.6.1-.8.3l-.6.8-.3.6-.5.6-.7.1zm2.8-3.2h1l.3-2h-1.2c-.4.1-.7.3-1 .5l-.1.6c-.1.4-.1.6.2.7.2.2.5.2.8.2zm-49.2 16.6c-.7 0-1.1-.1-1.6-.6-.4-.4-.5-1-.5-1.5a5 5 0 0 1 .1-1.5l.6-1.2a3 3 0 0 1 .9-.9c.4-.2.8-.3 1.3-.3.7-.1 1.1.2 1.6.6.4.3.5 1 .5 1.6 0 .5 0 1-.1 1.4-.1.3-.3.9-.6 1.2a3 3 0 0 1-.9 1.1h-1.3zm0-.8c.5 0 .9 0 1.1-.3.2-.3.5-.6.6-1 .2-.7.3-1.2.3-1.9l-.1-.5-.4-.5c-.2-.2-.4-.2-.7-.2-.4 0-.9.1-1 .4-.5.3-.7.6-.9 1V82c-.1.4 0 .7.2 1 .3.3.6.4 1 .4zm6.1.9c-.6 0-1.2-.2-1.5-.7-.4-.4-.7-1-.7-1.8a9 9 0 0 1 .5-2.5l.5-1.2a4 4 0 0 1 .8-1c.4-.4.7-.7 1.2-.8l.5-.1a19.9 19.9 0 0 1 2.5-.5v.8l-.7.2c-.5 0-.8 0-1.1.2l-.8.2c-.5 0-1 .4-1.2.8-.4.5-.6 1-.8 1.8l.8-.7c.4-.2.8-.3 1.2-.3s1 .1 1.2.4c.4.4.4.9.4 1.6v1.3l-.6 1.1c-.2.4-.5.7-.9 1-.3 0-.8.2-1.3.2zm.1-.8c.3 0 .7-.1.8-.4l.6-.6.2-.9.1-.9c0-.4 0-.6-.2-1l-.7-.1c-.3-.1-.5-.1-.8.1l-.6.4-.5.6v1.1c-.1.5-.1.9.1 1.3.3.2.6.4 1.1.4zm3.3.7h-.6v-.9h1l.6-.9.4-1.3.5-1.3.6-.9c.1-.2.4-.4.7-.5l1-.3h.9l.5.3L361 84h-1l1.1-5H360c-.2.3-.4.5-.5 1l-.6 1.3-.6 1.5c-.3.5-.4.8-.7 1-.3.2-.6.3-1 .3zm8.1.1c-.5 0-.9-.2-1.2-.5-.3-.4-.4-.9-.4-1.7 0-.4 0-.9.2-1.4.1-.6.4-1 .6-1.3l1.1-1 .8-.1c.7-.2 1-.2 1.2.2.2.2.4.4.5.6l.5-1h.6l-1.2 6.2h-.8l.1-1.2a4 4 0 0 1-.9.8c-.3.2-.7.4-1.1.4zm.3-.8c.3 0 .5-.1.8-.4a3 3 0 0 0 .7-.7 5 5 0 0 0 .5-1.3l.1-.5V80c0-.3 0-.6-.1-.8-.3-.2-.6-.3-1-.3-.2 0-.5 0-.7.1l-.7 1-.4.9-.1 1.3c-.1.4-.1.7.2.8.2.3.4.4.7.4zm6.5.8c-.5 0-1.1-.2-1.5-.6-.5-.3-.6-.9-.6-1.6 0-.6 0-1 .2-1.5.1-.5.3-1 .6-1.3a3 3 0 0 1 1-.8c.2-.2.8-.4 1.1-.4h.9l.7.3-.3.8a4 4 0 0 0-.5-.1l-.7-.1c-.4 0-.8.1-1 .4-.4.3-.7.6-.9 1.1-.1.6-.2 1-.2 1.6 0 .4.1.7.4 1 .2.2.5.4 1 .4l.6-.1.7-.3v.8l-.6.3a3 3 0 0 1-.9-.1zm2.6-.2 1.3-5.7h.8l-.2.9.7-.5.5-.5.8-.1c.4-.1.7-.1 1 .3 0 .2.2.5.2 1a4 4 0 0 1 .8-.8l.6-.4.8-.1c.4-.1.8-.1 1 .3.3.3.4.6.4 1.1v.5l-.1.5-.8 3.5h-.9l.8-3.7V80a2 2 0 0 0 0-.4l-.1-.6c-.2-.1-.4-.1-.7-.1-.1 0-.4 0-.7.1l-.7 1c-.2.3-.4.8-.6 1.4l-.5 2.6h-1l.8-3.7.1-.7c0-.2 0-.4-.2-.5 0-.2-.2-.2-.5-.2s-.5 0-.8.1l-.7 1c-.3.3-.4.9-.6 1.5l-.5 2.6zm11.9.2c-.4 0-1-.2-1.3-.4-.4-.3-.6-.8-.6-1.3a4 4 0 0 1 0-.5l.1-.6.8-3.2h1l-.7 2.5h.7l.6-.2c.7.1 1.2.2 1.5.5.3.3.4.7.4 1.1 0 .4 0 .7-.3 1-.2.3-.4.6-.8.9-.3 0-.8.2-1.3.2zm.3-.8c.3 0 .7-.1.9-.4.2-.2.3-.5.3-.8 0-.2 0-.4-.2-.6l-.9-.2a7 7 0 0 0-1.2 0l-.2.6v.4c0 .3 0 .5.3.6.1.3.4.4.9.4zm-.1 0" style="fill:none;stroke:#fff;stroke-width:3;stroke-linecap:butt;stroke-linejoin:round;stroke-miterlimit:10;stroke-opacity:.6" transform="rotate(  340 366.904 81.8816) translate(0,7.5234963)"/> <g style="fill:#7d577d;fill-opacity:1" transform=" rotate(  340 366.904 81.8816) ">  <use xlink:href="#n" x="334.5" y="78.2"/>  <use xlink:href="#k" x="340.3" y="78.2"/>  <use xlink:href="#m" x="346.3" y="78.2"/>  <use xlink:href="#h" x="352.1" y="78.2"/>  <use xlink:href="#c" x="357.9" y="78.2"/>  <use xlink:href="#i" x="364.5" y="78.2"/>  <use xlink:href="#o" x="370.7" y="78.2"/>  <use xlink:href="#e" x="376.7" y="78.2"/>  <use xlink:href="#f" x="381.7" y="78.2"/>  <use xlink:href="#g" x="387" y="78.2"/>  <use xlink:href="#h" x="393.3" y="78.2"/>  <use xlink:href="#i" x="344.4" y="91.6"/>  <use xlink:href="#j" x="350.6" y="91.6"/>  <use xlink:href="#k" x="356.6" y="91.6"/>  <use xlink:href="#g" x="362.6" y="91.6"/>  <use xlink:href="#e" x="368.8" y="91.6"/>  <use xlink:href="#l" x="373.8" y="91.6"/>  <use xlink:href="#m" x="383.4" y="91.6"/> </g> <path d="M3.7 2A1.7 1.7 0 1 1 .2 2a1.7 1.7 0 0 1 3.5 0zm0 0" style="fill:#fdfdfa;fill-opacity:1;fill-rule:nonzero;stroke:#3f3f35;stroke-width:.5;stroke-linecap:butt;stroke-linejoin:miter;stroke-miterlimit:4;stroke-opacity:1" transform="translate(469.25884,166.58959)"/> <path d="M453.8 158.1c-.8 0-1.4.3-1.9.9-.4.4-.6 1.1-.6 2 0 1 .2 1.6.6 2.1.4.5 1 .9 1.8.9h1l.7-.5v.9l-.8.2h-1c-.6.1-1.3.1-1.8-.3a2.8 2.8 0 0 1-1.1-1.3c-.3-.6-.4-1.2-.4-2 0-.7.2-1.3.4-1.9a3 3 0 0 1 1.3-1.3c.4-.3 1-.4 1.8-.4.7 0 1.4.1 2 .4l-.5.7-.7-.2a3 3 0 0 0-.8-.3zm3.1 6.5v-5.4h.9v2.2h1.4c.7 0 1.2.2 1.5.4.3.3.5.6.5 1.2 0 .4-.2 1-.5 1.2-.3.2-.7.4-1.6.4zm5.1 0v-5.4h1v5.4zm-4.2-.7h1.2c.4 0 .7 0 1-.2.2-.1.3-.4.3-.7 0-.3 0-.5-.3-.7l-1-.1h-1.1zm8.2-4.8c.8 0 1.3.2 1.6.4.4.2.5.6.5 1s-.1.6-.3.8l-.7.4a2 2 0 0 1 .6.3l.3.4.3.7c0 .5-.3.9-.6 1.1-.4.3-1 .5-1.7.5l-1-.1a3 3 0 0 1-.9-.3v-.8a4 4 0 0 0 1.9.5l1-.2c.3-.2.4-.4.4-.8 0-.5-.5-1-1.5-1h-.7v-.5h.5l1.1-.2c.3-.3.5-.4.5-.7 0-.2-.1-.4-.4-.5-.2-.2-.5-.2-.9-.2a3 3 0 0 0-.8 0l-.7.3-.3-.7a4.8 4.8 0 0 1 1.9-.4zm6.1 0c.7 0 1.2.3 1.6.7.4.5.6 1.2.6 2.2 0 .9-.2 1.5-.6 1.9-.4.6-1 .9-1.6.9-.4-.1-.7-.1-1-.4-.3-.1-.5-.3-.6-.4h-.1v3h-.7v-7.8h.6l.1.8c.3-.3.5-.5.8-.6.1-.2.5-.4.8-.4zm-.1.9c-.6-.1-1 0-1.2.3-.2.3-.3.8-.3 1.4v.3c0 .6 0 1.1.3 1.4.2.4.6.6 1.2.6.3 0 .6-.1.8-.3l.5-.7.1-1.1c0-.6-.1-1.1-.3-1.5-.3-.3-.6-.4-1.1-.4zm5.8-.9c.6 0 1 .2 1.3.5.4.3.6.7.6 1.3v3.7h-.7v-.8l-1 .7-1 .2c-.6 0-1-.1-1.3-.4-.2-.2-.4-.7-.4-1.2s.2-1 .7-1.1c.4-.4 1-.6 2-.6h.7v-.4c.1-.4.1-.7-.2-.9-.2-.1-.4-.1-.8-.1h-.8l-.7.4-.3-.8.9-.3 1-.3zm1 2.9h-.8c-.7 0-1 .1-1.4.3-.2.2-.4.5-.4.8.1.3.2.5.4.7l.6.2c.5 0 .9-.1 1.2-.4.3-.2.4-.6.4-1.2zm3.4-2.8v2.3h3v-2.3h.8v5.4h-.9v-2.4h-2.9v2.4h-.9v-5.4zm6.4 2.2h1.6c1.4 0 2 .6 2 1.6.1.4 0 1-.4 1.2-.4.2-.8.4-1.7.4h-2.4v-5.4h.9zm2.8 1.6c0-.3-.1-.5-.4-.7l-1-.1h-1.3v1.7h1.3c.5 0 .8 0 1-.2.2-.1.3-.4.3-.7zm0 0" style="fill:none;stroke:#fff;stroke-width:3;stroke-linecap:butt;stroke-linejoin:round;stroke-miterlimit:10;stroke-opacity:.6" transform=" rotate(  340 473.008 168.59) "/> <g style="fill:#212121;fill-opacity:1" transform=" rotate(  340 473.008 168.59) ">  <use xlink:href="#p" x="449.7" y="164.6"/>  <use xlink:href="#q" x="456" y="164.6"/>  <use xlink:href="#r" x="463.8" y="164.6"/>  <use xlink:href="#s" x="468.7" y="164.6"/>  <use xlink:href="#t" x="474.9" y="164.6"/>  <use xlink:href="#u" x="480.5" y="164.6"/>  <use xlink:href="#v" x="486.9" y="164.6"/> </g></svg>