<svg xmlns="http://www.w3.org/2000/svg" xmlns:xlink="http://www.w3.org/1999/xlink" viewBox="0 0 497 279"> <defs overflow="visible" style="stroke:none">  <path id="e" d="M5.2-4c0 .3-.2.6-.3.8l-.9.4 1 .3c.2.2.3.5.3 1 0 .3-.1.7-.5.9-.3.6-.8.6-1.6.6H.8v-5.4h2.4c.3 0 .7 0 1 .2.3 0 .5.2.7.4.1.2.3.5.3.8Zm-1 0c.1-.1.1-.2-.2-.4l-1-.2H1.8v1.4H3c1 0 1.3-.2 1.3-.7Zm.3 2.5c-.1-.4-.2-.5-.4-.7-.3-.2-.6-.2-1.1-.2H1.6v1.7h1.5c.4 0 .7 0 .9-.2.3-.1.4-.3.4-.7Zm-.1-.1"/>  <path id="d" d="M5.5-2.7c0 .9-.2 1.7-.7 2-.4.7-1 .9-1.8.9-.5-.2-.9-.2-1.3-.4-.3-.2-.6-.6-.7-1C.6-1.6.5-2 .5-2.7c0-.9.3-1.6.7-2 .5-.5 1-.8 1.8-.8.5 0 1 .2 1.3.5.4 0 .7.4.9.9.2.2.3.7.3 1.3Zm-4 0c0 .7 0 1.2.3 1.5.3.4.7.6 1.2.6.6 0 1-.2 1.2-.6.3-.3.4-.8.4-1.5s-.1-1.1-.4-1.5c-.2-.3-.6-.5-1.2-.5-.5 0-1 .2-1.2.5-.2.4-.3.9-.3 1.5Zm0 0"/>  <path id="c" d="M3.4-5.5c.7 0 1.2.3 1.6.7.4.5.6 1.2.6 2.1 0 1-.2 1.7-.6 2-.4.7-1 .9-1.6.9-.4-.2-.8-.2-1-.3l-.7-.6v3.1H.8v-7.8h.8v.8h.2c.2-.4.3-.5.6-.6.2-.2.6-.3 1-.3Zm-.2.8c-.5 0-.9.1-1.1.5-.2.2-.4.7-.4 1.2v.3c0 .7.1 1.2.3 1.5.3.4.7.6 1.3.6.3 0 .6-.1.7-.4l.5-.6.2-1.1c0-.6-.1-1.1-.4-1.5-.2-.3-.6-.5-1-.5Zm0 0"/>  <path id="b" d="M3-5.5c.3 0 .7.1 1 .3a2 2 0 0 1 1 .9v1.8H1.5c0 .5.1 1 .4 1.4.3.3.7.4 1.3.4H4l.9-.3v.8L4 0a5 5 0 0 1-1 0 3 3 0 0 1-1.2-.1 2.2 2.2 0 0 1-1-1.1c0-.2-.2-.8-.2-1.3-.1-.7 0-1.2.2-1.6.2-.5.5-.9.9-1 .3-.2.7-.4 1.2-.4Zm0 .8c-.6 0-.9.1-1 .4-.4.2-.6.6-.6 1.1h2.8c0-.5-.1-.8-.3-1.1-.2-.3-.5-.4-1-.4Zm0 0"/>  <path id="a" d="M4-6.5c-.7 0-1.3.3-1.8.8-.4.5-.6 1.2-.6 2.1 0 1 .2 1.6.6 2.1.4.6 1 .8 1.8.8h1l.6-.3v.8L5 0H4c-.8 0-1.4 0-2-.2a2.8 2.8 0 0 1-1-1.4c-.3-.6-.4-1.2-.4-2 0-.7.1-1.3.4-1.9a3 3 0 0 1 1.2-1.3c.5-.2 1.1-.4 1.8-.4.8 0 1.5.1 2 .4l-.3.7-.8-.2a3 3 0 0 0-.9-.2Zm0 0"/>  <path d="M1 0v-7.1h4V0Zm.4-.5h3.1v-6.1h-3Zm.1 0"/> </defs> <image xlink:href="svg/8/8_11.jpg" width="497" height="279"/> <path d="M3.8 2C3.8 3 3 3.8 2 3.8A1.7 1.7 0 1 1 3.8 2zm0 0" style="fill:#fdfdfa;fill-opacity:1;fill-rule:nonzero;stroke:#3f3f35;stroke-width:.5;stroke-linecap:butt;stroke-linejoin:miter;stroke-miterlimit:4;stroke-opacity:1" transform="translate(169.92617,123.61993)"/> <path d="M169.6 115.2c-.8 0-1.4.2-1.8.7-.5.6-.8 1.3-.8 2.2.1.8.3 1.5.7 1.9.4.8 1 1 1.9 1h.8l.9-.3v.7l-.9.2-1 .1c-.7 0-1.3-.1-1.8-.4a2.8 2.8 0 0 1-1.1-1.3c-.2-.6-.4-1.2-.4-2 0-.7.2-1.3.4-1.9a3 3 0 0 1 1.2-1.1c.5-.5 1.1-.6 1.9-.6.7 0 1.4.1 2 .4l-.4.8-.8-.3a3 3 0 0 0-.8-.1zm5.2 1c.4 0 .8 0 1.1.3a2 2 0 0 1 .8.8c.3.4.3.8.3 1.3v.4h-3.7c0 .7.2 1.1.5 1.5.2.3.7.5 1.2.5l1-.1.6-.3v.8l-.6.2a5 5 0 0 1-1 .1 3 3 0 0 1-1.3-.3 2.2 2.2 0 0 1-1-.9c-.2-.4-.3-1-.3-1.5 0-.6.1-1.1.3-1.5.2-.5.5-.8.8-1 .5-.2.8-.3 1.3-.3zm0 .7c-.5 0-.8.1-1 .4-.3.3-.4.6-.5 1.1h2.8c-.1-.4-.1-.8-.4-1-.2-.4-.5-.6-1-.6zm6.1-.7c.7 0 1.2.2 1.6.7.4.4.5 1.1.5 2 0 1.1-.1 1.6-.5 2.1-.5.5-1 .7-1.6.7-.4 0-.9 0-1-.2l-.7-.6v3.1h-.9v-7.7h.8v.7h.2l.7-.6c0-.2.5-.2.9-.2zm-.2.7c-.5 0-.9.2-1.1.5-.2.3-.4.6-.4 1.4v.1c0 .7.1 1.2.3 1.6.3.3.7.5 1.3.5.2 0 .5 0 .8-.3l.4-.7.2-1c0-.8-.2-1.3-.4-1.7-.2-.2-.6-.3-1-.3zm8.5 2.1c0 .7-.3 1.4-.7 2-.5.5-1 .7-1.8.7-.5 0-1 0-1.3-.3-.4-.2-.7-.5-.9-1-.2-.4-.3-.9-.3-1.4 0-.9.2-1.6.7-2 .4-.6 1-.8 1.8-.8.5 0 .9 0 1.3.3.3.2.6.5.8 1 .3.2.4.7.4 1.3zm-4.2 0c.1.5.2 1 .5 1.3.2.5.5.7 1.2.7.5 0 1-.2 1.2-.6.1-.3.3-.8.3-1.4 0-.7 0-1.2-.2-1.6-.4-.3-.8-.4-1.3-.4-.7-.1-1 .1-1.2.4-.3.4-.5.9-.5 1.6zm9.9-1.4c0 .4-.1.6-.3.8l-.8.4c.2 0 .6.2.8.4.4.2.4.5.4.8s0 .9-.5 1c-.3.6-.9.7-1.5.7h-2.5v-5.4h3.5l.6.6c.2.1.3.4.3.7zm-1 .1c.1-.2.1-.4-.1-.5l-1.1-.2h-1.2v1.5h1.1c1 0 1.4-.3 1.4-.8zm.3 2.4c-.1-.4-.2-.6-.4-.7l-1-.2h-1.5v1.7h1.5c.4.1.7.1 1-.2.2-.1.2-.3.2-.6zm-.1-.1" style="fill:none;stroke:#fff;stroke-width:3;stroke-linecap:butt;stroke-linejoin:round;stroke-miterlimit:10;stroke-opacity:.6" transform="rotate(  340 173.678 125.621) translate(-8.5684264)"/> <g style="fill:#212121;fill-opacity:1" transform=" rotate(  340 173.678 125.621) ">  <use xlink:href="#a" x="157" y="121.6"/>  <use xlink:href="#b" x="163.3" y="121.6"/>  <use xlink:href="#c" x="168.9" y="121.6"/>  <use xlink:href="#d" x="175.1" y="121.6"/>  <use xlink:href="#e" x="181.1" y="121.6"/> </g></svg>