<svg xmlns="http://www.w3.org/2000/svg" xmlns:xlink="http://www.w3.org/1999/xlink" viewBox="0 0 497 279"> <defs overflow="visible" style="stroke:none">  <path id="d" d="m.3 0 1.6-7.6h.9L1.2 0Zm0 0"/>  <path id="c" d="M2 0c-.6 0-.9 0-1.2-.3C.6-.7.5-1 .5-1.7c0-.5 0-1 .2-1.5l.5-1.1c.2-.4.5-.7.8-.9a2 2 0 0 1 1.1-.3c.4 0 .6.1.9.3l.5.7.3-.9h.7L4.4 0h-.7l.1-1c-.3.3-.5.6-.9.8-.3.2-.6.2-.9.2Zm.1-.5c.4-.1.6-.2.9-.5l.6-.6a4 4 0 0 0 .4-1 3 3 0 0 0 .1-.7 4 4 0 0 0 0-.4c.1-.3.1-.5-.1-.7-.3-.2-.5-.3-.8-.3-.3 0-.5 0-.7.2a2 2 0 0 0-.6.7l-.4 1-.1 1.1c0 .4 0 .6.2.8.1.2.3.3.6.3Zm.1-.1"/>  <path id="b" d="m.3 0 1.1-5.4h.7v1l.4-.5.5-.4.7-.2H4l.3.2-.2.7h-.5c-.3-.1-.6-.1-.9.2l-.7.9-.3 1L1.2 0Zm0 0"/>  <path id="a" d="m-.6 0 4-7.1h.8L5 0h-.7L4-2.2H1.6L.4 0ZM2-3h1.9l-.2-1.5v-1.7h-.2a14 14 0 0 1-.3.8l-.4 1Zm0 0"/>  <path d="M1 0v-7.1h4V0Zm.4-.5h3.1v-6.1h-3Zm.1 0"/> </defs> <image xlink:href="svg/8/8_3.jpg" width="497" height="279"/> <path d="m177 90.8 3.7-7.1h1.1l.7 7.1h-.8l-.2-2.2H179l-1 2.2Zm2.4-3h2l-.2-1.5v-.8l-.2-.9a14 14 0 0 1-.3.9l-.5.8Zm4 3 1.1-5.3h.7v1l.4-.7.5-.3.7-.1h.6l-.2.8h-.5c-.3 0-.7 0-.9.3l-.7.8-.3 1-.5 2.6Zm5.4.2c-.4 0-.8-.3-1-.6-.3-.4-.4-.7-.4-1.4 0-.4 0-1 .2-1.3 0-.5.3-.9.4-1.2.3-.5.6-.6.9-.8a2 2 0 0 1 1.1-.3c.4 0 .7 0 1 .2l.2.7.6-.8h.6l-1.2 5.3h-.7l.2-1-1 .8c-.2.2-.5.3-.9.3Zm.3-.9c.2.1.5-.1.7-.2l.7-.7a4 4 0 0 0 .4-1 3 3 0 0 0 .1-.6 4 4 0 0 0 0-.4c0-.4 0-.6-.2-.8-.2-.2-.4-.4-.8-.4-.2 0-.4 0-.6.3a2 2 0 0 0-.6.7l-.4 1-.1 1c0 .5 0 .7.2 1 .1.1.3.2.5.2Zm3.7.7 1.6-7.6h1l-1.8 7.6Zm0 0" style="fill:none;stroke-width:2;stroke-linecap:butt;stroke-linejoin:round;stroke:#fff;stroke-opacity:.6;stroke-miterlimit:10" transform=" rotate(  340 187.828 87.8114) "/> <g style="fill:#4d80b3;fill-opacity:1" transform=" rotate(  340 187.828 87.8114) ">  <use xlink:href="#a" x="177.5" y="90.8"/>  <use xlink:href="#b" x="183.1" y="90.8"/>  <use xlink:href="#c" x="186.9" y="90.8"/>  <use xlink:href="#d" x="192.6" y="90.8"/> </g></svg>