<svg xmlns="http://www.w3.org/2000/svg" xmlns:xlink="http://www.w3.org/1999/xlink" viewBox="0 0 497 279"> <defs overflow="visible" style="stroke:none">  <path id="r" d="M1.7-5.4v3.7a18.9 18.9 0 0 0 0 .7l2.7-4.4h1.1V0h-.7v-4.1l.1-.4-3 4.5H1v-5.4Zm0 0"/>  <path id="q" d="M4.1 0 1.8-6.3V0H1v-7.1h1.3l2.2 5.8 2.3-5.8H8V0h-.8v-6.2L5 0Zm0 0"/>  <path id="p" d="M3 0c-.5 0-.9 0-1.3-.1-.3-.3-.6-.6-.7-.9-.4-.5-.5-1-.5-1.7 0-.6.2-1.1.5-1.5 0-.6.4-.8.8-1.1.2-.1.8-.2 1.2-.2l.8.1.7.2-.3.8-.6-.2H3c-1-.1-1.5.6-1.5 1.9 0 .7 0 1 .3 1.4.3.5.7.6 1.2.6h.8l.6-.3v.8a2 2 0 0 1-.6.2H3Zm0 0"/>  <path id="o" d="M0-5.4h1l1 3 .4 1 .2.6.2-.7c0-.3.2-.5.2-.8l1-3h1.2L2.8.6c-.2.6-.4 1.1-.7 1.4-.3.3-.7.4-1.3.4H.1v-.9h.6c.3.2.6.2.7 0L2 .7l.2-.7Zm0 0"/>  <path id="n" d="M5.5-2.7c0 .9-.2 1.7-.7 2-.4.7-1 .9-1.8.9-.5-.2-.9-.2-1.3-.4-.3-.2-.6-.6-.7-1C.6-1.6.5-2 .5-2.7c0-.9.3-1.6.7-2 .5-.5 1-.8 1.8-.8.5 0 1 .2 1.3.5.4 0 .7.4.9.9.2.2.3.7.3 1.3Zm-4 0c0 .7 0 1.2.3 1.5.3.4.7.6 1.2.6.6 0 1-.2 1.2-.6.3-.3.4-.8.4-1.5s-.1-1.1-.4-1.5c-.2-.3-.6-.5-1.2-.5-.5 0-1 .2-1.2.5-.2.4-.3.9-.3 1.5Zm0 0"/>  <path id="m" d="M4.5-4.6H2.8V0h-.9v-4.6H.2v-.8h4.3Zm0 0"/>  <path id="l" d="M2.9-5.5c.6 0 1.1.2 1.4.5.3.3.5.7.5 1.3V0h-.6L4-.8c-.3.3-.5.6-.8.8h-1c-.5 0-1 0-1.3-.3C.6-.5.5-.9.5-1.5c0-.5.2-1 .5-1.2.5-.3 1-.5 2-.5h.8v-.3c.2-.5.2-.8-.2-1l-.8-.2H2l-.7.5L1-5l1-.3.9-.2Zm1 2.9h-.8c-.6 0-1 .1-1.4.3-.1.3-.3.5-.3.8 0 .3 0 .5.2.7l.7.2c.5 0 .9-.1 1.2-.4.3-.2.4-.6.4-1Zm.1 0"/>  <path id="k" d="M5 0H4v-4.6H2.5L2-2 1.5-.4c-.3.3-.6.4-1 .4H0v-.7h.4c.3.1.6-.3.8-.9.2-1 .4-2.2.5-3.9h3.2Zm0 0"/>  <path id="j" d="M5.2-5.5c0 .5-.2 1-.5 1.2-.3.3-.7.5-1.2.5.6.3 1 .4 1.4.7.3.2.4.6.4 1.1 0 .6-.2 1-.7 1.5-.5.5-1.2.6-2.1.6H1.3a3 3 0 0 1-1-.5v-.7l1.1.3 1.2.2c.4 0 .9-.2 1.3-.4.3-.2.5-.6.5-1 0-.5-.2-.8-.6-1-.4-.2-1-.3-1.6-.3h-1v-.8h1c.7.1 1.2.1 1.5-.3.4-.3.6-.6.6-1 0-.3-.3-.6-.4-.8-.3-.2-.7-.3-1-.3-.6 0-.9 0-1.3.2-.2 0-.5.2-.8.3l-.4-.5 1-.5c.6-.2 1-.2 1.4-.2.8 0 1.4.1 1.8.5.4.3.6.7.6 1.2Zm0 0"/>  <path d="M1 0v-7.1h4V0Zm.4-.5h3.1v-6.1h-3Zm.1 0"/>  <path id="i" d="M4.8-6.4H6l-2.8 3 3 3.4H5L2-3.3V0H1v-6.4h1v3Zm0 0"/>  <path id="h" d="M3.6.1C3 .1 2.6.1 2-.2s-.7-.6-1-1.1C.7-1.8.6-2.4.6-3.2c.1-.8.1-1.4.4-2 .3-.3.7-.8 1.1-.9.5-.3 1-.4 1.6-.4h1a3 3 0 0 1 .6.4l-.3.8a7 7 0 0 0-.6-.2 3 3 0 0 0-.8-.1c-1.2 0-1.9.8-1.9 2.4.1.8.3 1.4.6 1.8.2.4.7.6 1.3.6l1-.1.6-.3v1l-.7.2-1 .1Zm0 0"/>  <path id="g" d="M2-6.4v2.7h3.7v-2.8h.9V0h-1v-2.9H2V0H1v-6.4Zm0 0"/>  <path id="f" d="M2-6.4V-1l3.3-5.4h1.4V0h-1v-5.4L2.4 0H1v-6.4Zm0 0"/>  <path id="e" d="M.7-3.9c0-1.4.2-2.5.6-3.3.4-.7 1.1-1.2 2-1.4a36.8 36.8 0 0 1 3.1-.6l.1 1h-1a182.5 182.5 0 0 0-2 .5 2 2 0 0 0-1.1.9C2-6.5 2-6 1.8-5H2a2.7 2.7 0 0 1 1.1-1H4c.7 0 1.4.2 1.8.7.5.7.7 1.4.7 2.3 0 .6 0 1.2-.3 1.7s-.6.8-1 1c-.6.3-1.1.5-1.7.5C2.7.1 2-.2 1.5-.9c-.6-.7-.8-1.7-.8-3Zm3 3.1c.5 0 1 0 1.2-.3.4-.5.5-1.2.5-1.9 0-.6-.1-1.2-.4-1.5-.2-.5-.6-.6-1-.6a2 2 0 0 0-1.1.1l-.7.7c-.2.2-.4.3-.4.5v1.1l.3 1 .6.7c.3.2.6.3 1 .3Zm0 0"/>  <path id="d" d="M1.4 0H.2L2-2.7 1.3-3a1.7 1.7 0 0 1-.6-.6l-.2-1c0-.4.2-.9.7-1.2.4-.5 1-.6 1.6-.6h2.9V0h-1v-2.6H3Zm.1-4.5c0 .3.2.5.5.8.2.2.6.3 1 .3h1.6v-2.2H3c-.6 0-.9.1-1 .3-.4.3-.5.5-.5.8Zm0 0"/>  <path id="c" d="M6 0H4.7v-5.6H3a24 24 0 0 1-.5 3.3c-.2.8-.4 1.4-.7 1.8C1.5 0 1 .1.6.1A4 4 0 0 1 .3 0H.1v-.8h.3c.4 0 .8-.3 1-1.2.4-1.1.6-2.5.6-4.4h4Zm0 0"/>  <path id="b" d="M3.5-6.5c.6 0 1 0 1.4.3l1.1 1c0 .5.1 1 .1 1.6v.6H1.7c.1.7.3 1.3.7 1.7.3.3.8.5 1.4.5h1l1.1-.5v1c-.3.2-.6.3-1 .3l-1 .1A3.4 3.4 0 0 1 2-.2a2.6 2.6 0 0 1-.9-1.2c-.4-.4-.5-1-.5-1.8.1-.7.1-1.3.4-1.8s.6-.9 1-1c.4-.4 1-.5 1.5-.5Zm0 .8c-.5 0-1 .2-1.2.5-.3.3-.5.8-.5 1.3H5c0-.5 0-1-.3-1.3-.3-.3-.7-.5-1.2-.5Zm0 0"/>  <path id="a" d="M7.2 0h-1v-3.5l-1.5.4-1.2.1c-.8 0-1.5-.2-1.9-.5-.4-.5-.6-1-.6-1.6v-3.5h1v3.3c0 .5.2.8.4 1 .2.3.6.4 1.2.4L4.9-4 6-4.4v-4.2h1.2Zm0 0"/>  <path d="M1.1 0v-8.6h5V0Zm.6-.6h3.8V-8H1.7Zm0 0"/> </defs> <image xlink:href="svg/8/8_8.jpg" width="497" height="279"/> <path d="M5.6 3A2.6 2.6 0 1 1 .4 3a2.6 2.6 0 0 1 5.2 0zm0 0" style="fill:#f8f8f5;fill-opacity:1;fill-rule:nonzero;stroke:#6e6e59;stroke-width:.8;stroke-linecap:butt;stroke-linejoin:miter;stroke-miterlimit:4;stroke-opacity:1" transform="translate(259.67772,104.93167)"/> <path d="M238.2 122.1H237v-3.5l-1.2.4-1.4.2c-.8 0-1.4-.2-1.8-.6-.6-.4-.7-.9-.7-1.6v-3.4h1.1v3.3c0 .4.1.8.4 1 .2.1.6.3 1.2.3l1.2-.1c.4 0 .8-.2 1.3-.4v-4.1h.9zm4.6-6.5c.6 0 1 .1 1.5.4.3.2.6.5.9 1 .2.4.3 1 .3 1.5v.6H241c0 .9.3 1.3.6 1.7.4.4.9.6 1.5.6l1.1-.1 1-.4v1.1l-1 .2h-1.1a3.4 3.4 0 0 1-1.6-.2 2.6 2.6 0 0 1-1.1-1.2c-.4-.5-.4-1.1-.4-1.8s0-1.3.3-1.8.7-1 1-1.2c.5-.3 1-.4 1.5-.4zm0 .9c-.5 0-.8.1-1.2.4-.3.4-.4.8-.5 1.4h3.3c0-.5-.1-1-.4-1.3-.2-.4-.6-.5-1.2-.5zm9.2 5.6h-1v-5.5h-2a24 24 0 0 1-.3 3.3c-.3.8-.5 1.4-.7 1.8-.4.3-.8.5-1.3.5h-.5v-.9h.3c.5.1.8-.4 1-1.3.4-.9.5-2.3.7-4.3h3.9zm2.5 0h-1.3l1.9-2.7c-.3 0-.5-.1-.8-.3a1.7 1.7 0 0 1-.5-.5c-.2-.3-.2-.6-.2-1 0-.6.2-1 .6-1.4.4-.2 1-.5 1.6-.5h3v6.4h-1.2v-2.5H256zm0-4.5c.1.4.3.7.5.8.3.2.7.3 1.2.3h1.5v-2.1H256c-.5 0-1 0-1.1.3-.2.1-.3.4-.3.7zM260.4 118.3c0-1.4.2-2.5.7-3.3.4-.8.9-1.3 1.9-1.5a36.8 36.8 0 0 1 3.1-.5v.9l-.9.1a182.5 182.5 0 0 0-1.8.4 2 2 0 0 0-1.3.8c-.3.4-.5 1.1-.5 2a2.7 2.7 0 0 1 1.2-.9l1-.1c.8 0 1.4.2 1.8.8.5.5.7 1.2.7 2s-.1 1.5-.4 1.9c-.2.4-.6.8-.9 1.1-.6.2-1.1.3-1.7.3-.9 0-1.6-.4-2-1-.7-.7-1-1.7-1-3zm3 3.1c.6 0 1-.2 1.3-.5.3-.3.5-1 .5-1.7s-.2-1.2-.4-1.6c-.3-.4-.6-.6-1.2-.6a2 2 0 0 0-1 .3l-.6.5-.5.5v1.2l.5 1c0 .1.2.5.5.5.2.3.5.4 1 .4zm5.6-5.7v4.4l-.2.5v.5l3.5-5.4h1.3v6.4h-1v-5.3l-3.2 5.2h-1.5v-6.3zm7.7 0v2.7h3.5v-2.7h1v6.4h-.9v-2.8h-3.6v2.7h-1v-6.3zm9.2 6.6c-.6 0-1-.1-1.5-.4-.5-.2-.8-.6-1-.9-.4-.8-.6-1.4-.6-2.2.2-.5.3-1.2.5-1.8.3-.5.7-.8 1.1-1 .6-.4 1-.5 1.6-.5l.9.2a3 3 0 0 1 .8.3l-.4 1a7 7 0 0 0-.6-.5 3 3 0 0 0-.8.1c-1.2-.1-1.9.6-1.9 2.4 0 .7.2 1.3.5 1.7.3.4.8.7 1.4.7.3 0 .6 0 1-.2l.5-.2v1l-.6.1h-1zm7-6.6h1.1l-2.7 3.1 3 3.3H293l-2.9-3.1v3h-1v-6.3h.9v3.1zm0 0" style="fill:none;stroke:#fff;stroke-width:3;stroke-linecap:butt;stroke-linejoin:round;stroke-miterlimit:10;stroke-opacity:.6" transform=" rotate(  340 265.277 107.934) "/> <g style="fill:#212121;fill-opacity:1" transform=" rotate(  340 265.277 107.934) ">  <use xlink:href="#a" x="231" y="122.1"/>  <use xlink:href="#b" x="239.3" y="122.1"/>  <use xlink:href="#c" x="246.1" y="122.1"/>  <use xlink:href="#d" x="253" y="122.1"/>  <use xlink:href="#e" x="259.7" y="122.1"/>  <use xlink:href="#f" x="266.9" y="122.1"/>  <use xlink:href="#g" x="274.6" y="122.1"/>  <use xlink:href="#h" x="282.3" y="122.1"/>  <use xlink:href="#i" x="288.1" y="122.1"/> </g> <path d="M3.8 2C3.8 3 3 3.8 2 3.8S.3 3 .3 2a1.7 1.7 0 1 1 3.5 0zm0 0" style="fill:#fdfdfa;fill-opacity:1;fill-rule:nonzero;stroke:#3f3f35;stroke-width:.5;stroke-linecap:butt;stroke-linejoin:miter;stroke-miterlimit:4;stroke-opacity:1" transform="translate(68.753922,111.41301)"/> <path d="M75.7 112.8c0 .5-.2.9-.5 1.2-.3.3-.7.4-1.2.5.6.2 1 .4 1.3.7.4.2.5.6.5 1.1 0 .6-.2 1.1-.7 1.5-.5.4-1.2.6-2.2.6H72a3 3 0 0 1-1.2-.4v-.8l1 .3 1.1.2c.7 0 1.1-.2 1.5-.4.3-.2.5-.6.5-1 0-.5-.2-.8-.6-1-.4-.2-1-.3-1.6-.3h-1v-.8h1c.5 0 1 0 1.4-.2.5-.4.6-.7.6-1.1 0-.3-.1-.6-.4-.8-.2-.2-.6-.3-1-.3-.5 0-.8 0-1.1.2-.3 0-.6.2-.9.4l-.3-.6.9-.5c.4-.3.9-.3 1.4-.3.8 0 1.3.2 1.7.6.5.3.7.7.7 1.2zm5.6 5.5h-1v-4.6h-1.4c-.1 1.1-.3 2-.5 2.7-.1.6-.3 1.2-.6 1.5-.2.3-.5.5-1 .5h-.1l-.3-.2v-.6h.3c.3.1.6-.2.9-.9l.4-3.9h3.3zm3.7-5.5c.7 0 1.1.2 1.5.5.3.3.4.7.4 1.3v3.7h-.6l-.3-.8c-.2.3-.4.6-.7.7l-1 .2c-.5 0-1-.1-1.3-.4-.3-.2-.4-.6-.4-1.2 0-.5.2-1 .6-1.2.4-.3 1-.6 2-.6h.8v-.2c0-.5 0-.8-.2-1l-.8-.2h-.8l-.8.4-.2-.7.8-.3 1-.2zm1 2.9h-.6c-.8 0-1.4.1-1.5.3-.3.2-.4.5-.4.8 0 .3 0 .5.3.7l.7.2c.4 0 .8-.1 1.1-.4.4-.2.5-.6.5-1.1zm6.3-2h-1.8v4.6h-.8v-4.6h-1.8v-.8h4.4zm5.7 1.9c0 .9-.4 1.6-.9 2-.3.7-.9.9-1.7.9-.4-.1-.9-.2-1.3-.5-.3-.1-.6-.5-.8-1-.3-.3-.4-.8-.4-1.4.1-.9.3-1.6.7-2 .5-.6 1-.8 1.8-.8.6 0 1 .2 1.3.4.4.2.7.5.9 1 .2.2.3.8.3 1.3zm-4.2 0c.1.6.1 1.2.4 1.5.3.4.8.6 1.2.6.6 0 1-.2 1.2-.7.4-.2.4-.8.4-1.4s-.1-1.1-.4-1.5c-.2-.3-.6-.5-1.2-.5-.4 0-1 .2-1.2.4-.2.5-.2 1-.2 1.6zm4.6-2.6h.9l1.2 3 .2.8.3.7.1-.7.3-.8 1.1-3h1l-2.5 6c0 .5-.3 1-.6 1.3-.3.2-.7.4-1.2.4h-.7v-.9h.5c.4.2.6.2.8 0l.4-.8.3-.7zm8 5.4-1.2-.4c-.4 0-.7-.4-.9-.8-.2-.4-.3-1-.3-1.6 0-.6.1-1.1.3-1.6.2-.4.5-.7 1-.9.2-.1.7-.3 1.1-.3l.9.2.6.1-.2.9-.7-.3h-.5c-1-.1-1.6.5-1.6 1.9 0 .6.1 1 .4 1.4.3.5.6.6 1.1.6h.8l.6-.4v.9a2 2 0 0 1-.6.2h-.8zm6.4-4.7H111v4.6h-.8v-4.6h-1.8v-.8h4.4zm0 0" style="fill:none;stroke:#fff;stroke-width:3;stroke-linecap:butt;stroke-linejoin:round;stroke-miterlimit:10;stroke-opacity:.6" transform="rotate(  340 72.5042 113.415) translate(-20.98411,6.7976695)"/> <g style="fill:#212121;fill-opacity:1" transform=" rotate(  340 72.5042 113.415) ">  <use xlink:href="#j" x="49.5" y="125.1"/>  <use xlink:href="#k" x="55.4" y="125.1"/>  <use xlink:href="#l" x="61.1" y="125.1"/>  <use xlink:href="#m" x="66.8" y="125.1"/>  <use xlink:href="#n" x="71.4" y="125.1"/>  <use xlink:href="#o" x="77.4" y="125.1"/>  <use xlink:href="#p" x="82.5" y="125.1"/>  <use xlink:href="#m" x="87.3" y="125.1"/> </g> <path d="M3.8 2C3.8 3 3 3.8 2 3.8A1.7 1.7 0 1 1 3.8 2zm0 0" style="fill:#fdfdfa;fill-opacity:1;fill-rule:nonzero;stroke:#3f3f35;stroke-width:.5;stroke-linecap:butt;stroke-linejoin:miter;stroke-miterlimit:4;stroke-opacity:1" transform="translate(132.29951,122.32681)"/> <path d="m123 135.4-2.2-6.4v6.4h-.8v-7.2h1.2l2.2 5.9 2.4-5.9h1.2v7.2h-.9V130l.2-1-2.5 6.4zm6.7-5.4v4.5l2.7-4.5h1.1v5.4h-.6v-4.5l-2.9 4.5h-1.1V130zm7.6 0c.7 0 1.2 0 1.5.3.2.3.4.7.4 1.4v3.7h-.6l-.2-.8-.8.7-1 .2c-.5 0-.9-.2-1.2-.5-.4-.2-.5-.6-.5-1.1 0-.6.2-1 .6-1.3.5-.2 1.1-.4 2-.4h.9v-.5c0-.3-.1-.6-.4-.7-.1-.3-.4-.4-.7-.4-.3 0-.6 0-.8.2l-.7.2-.3-.6c.2-.1.5-.4.8-.4l1-.1zm1 2.6h-.6c-.8.3-1.2.4-1.5.6-.3.1-.4.4-.4.7 0 .3.2.5.3.7l.7.2c.4 0 .8-.2 1.1-.4.3-.4.5-.7.5-1.2zM143 135.5l-1.1-.3c-.5-.2-.9-.5-1-1-.2-.2-.3-.8-.3-1.4s.1-1.3.3-1.7c.2-.4.5-.7 1.1-.9.1-.2.5-.2 1-.2h1l.5.3-.2.6-.6-.1-.7-.1c-.9 0-1.5.7-1.5 2 0 .7.1 1.3.5 1.5.2.3.5.5 1 .5h.8l.6-.4v.9a2 2 0 0 1-.6.2h-.7zm4.9 0c-.5 0-1-.1-1.3-.3-.4-.2-.7-.5-.9-1-.2-.2-.3-.8-.3-1.4s.1-1.3.3-1.7c.3-.4.5-.7 1-.9.3-.2.6-.2 1.1-.2h.9l.6.3-.2.6-.6-.1-.6-.1c-1 0-1.6.7-1.6 2 0 .7.1 1.3.4 1.5.3.3.6.5 1.1.5h.8l.6-.4v.9a2 2 0 0 1-.6.2h-.6zm0 0" style="fill:none;stroke:#fff;stroke-width:3;stroke-linecap:butt;stroke-linejoin:round;stroke-miterlimit:10;stroke-opacity:.6" transform=" rotate(  340 136.051 124.328) "/> <g style="fill:#212121;fill-opacity:1" transform=" rotate(  340 136.051 124.328) ">  <use xlink:href="#q" x="118.9" y="135.4"/>  <use xlink:href="#r" x="128" y="135.4"/>  <use xlink:href="#l" x="134.4" y="135.4"/>  <use xlink:href="#p" x="140.1" y="135.4"/>  <use xlink:href="#p" x="144.9" y="135.4"/> </g></svg>