<svg xmlns="http://www.w3.org/2000/svg" xmlns:xlink="http://www.w3.org/1999/xlink" viewBox="0 0 497 279"> <defs overflow="visible" style="stroke:none">  <path id="h" d="M0 .1h-.4L-.7 0v-1.1h.5c.3.1.6.1.9-.2l.6-1.1c.2-.4.5-1 .7-1.8l.7-1.7c.2-.5.3-1.1.7-1.2.2-.4.6-.6 1-.9h2.4l.9.2L6 0H4.7l1.5-7h-.6c-.4 0-.6.1-1 .3-.2.2-.5.5-.6 1l-.8 2a23 23 0 0 1-.9 2c-.2.7-.5 1.1-1 1.5C1 0 .6 0 0 0Zm0 0"/>  <path id="g" d="M.6 0 3-10.7h5.3l-.2 1.2H4l-.7 3.3h1c.9 0 1.5.2 2 .4s.8.5 1 1a3 3 0 0 1 .3 1.2c0 .9-.2 1.5-.6 2.1-.3.5-.8.9-1.4 1.1a6 6 0 0 1-2.2.4Zm1.6-1.1h1.4c1.7 0 2.6-.9 2.6-2.3 0-.6-.2-1-.5-1.3-.3-.2-.8-.3-1.4-.3H3Zm0 0"/>  <path id="f" d="m.4-3.4.3-1.2h3.5l-.3 1.2Zm0 0"/>  <path id="e" d="m.4 0 1.7-8h1.7l.9 6.3L8.2-8h1.9L8.4 0H7.2l1-4.6c0-.4.2-.8.3-1.1l.2-1.1L4.9 0H4L2.9-6.8a56.3 56.3 0 0 1-.4 2.2L1.5 0Zm0 0"/>  <path id="d" d="M2 .2c-.4 0-.8 0-1-.2L.1-.2v-1.2L1-1h1c.7 0 1.3-.2 1.8-.6.4-.5.7-1.1.9-2H1.2l.3-1h3.3V-5c0-.7-.1-1.2-.4-1.6C4-6.9 3.6-7 3-7h-.9l-.8.3-.4-1 1-.3a5 5 0 0 1 1.3-.2c1 0 1.7.3 2.2.9.6.6.8 1.3.8 2.3l-.3 2a4.8 4.8 0 0 1-.7 1.6c-.3.4-.7.8-1.3 1.1-.5.3-1.1.5-1.9.5Zm0 0"/>  <path id="c" d="M3.6.2C2.7.2 2-.1 1.5-.7 1-1.2.7-1.9.7-2.9a6.6 6.6 0 0 1 1.1-3.6c.3-.5.8-1 1.3-1.2a3 3 0 0 1 1.6-.5c.8 0 1.4.2 1.8.5.3.3.5.8.5 1.4 0 .5 0 1-.5 1.3-.3.5-.8 1-1.5 1.1-.7.3-1.6.4-2.7.4h-.2v.6c-.1.6.1.9.4 1.4.3.5.8.6 1.4.6.4-.1.7-.1 1-.2l1.2-.5v1.2L4.9 0 3.6.2ZM2.3-4.5 4-4.7c.6-.1 1-.3 1.3-.5.3-.3.5-.6.5-1 0-.3-.1-.5-.3-.6-.2-.2-.5-.3-.8-.3-.5.1-1 .2-1.4.7-.5.4-.8 1-1 1.9Zm0 0"/>  <path id="b" d="M-.3 3.6 2-8h1.2L3-6.5c.5-.5.9-.9 1.4-1.2.3-.3.9-.5 1.4-.5.6 0 1.1.3 1.5.7.5.5.7 1.2.7 2S7.9-4 7.7-3.2a6.3 6.3 0 0 1-.8 1.7C6.6-1 6-.6 5.7-.3A3 3 0 0 1 4 .2C3.5.2 3 0 2.7-.3a2.8 2.8 0 0 1-.7-1A10.7 10.7 0 0 1 1.6.2L1 3.6ZM3.9-1c.4 0 .8-.1 1.1-.3l1-1 .4-1.5.2-1.7c0-1-.4-1.5-1.3-1.5-.3 0-.6 0-1 .3l-1 1a5.4 5.4 0 0 0-.8 3.1c-.1.6 0 1 .3 1.2.2.4.6.5 1.1.5ZM4-1"/>  <path id="a" d="M.6 0 3-10.7h5.3l-.2 1.2H4L2 0Zm0 0"/>  <path d="M1.4 0v-10.7h6.2V0Zm.8-.8h4.6v-9.1H2.2Zm0 0"/> </defs> <image xlink:href="svg/8/9_36.jpg" width="497" height="279"/> <path d="m8 115.1 2.3-10.7h5.4l-.2 1.2h-4.2l-2 9.5zm5.5 3.6 2.4-11.6H17l-.2 1.5h.2c.2-.6.6-.8 1.1-1.2.4-.3.9-.4 1.5-.4s1.2.2 1.6.6c.4.5.6 1.2.6 2s-.1 1.6-.3 2.3a6.3 6.3 0 0 1-.8 1.7c-.3.5-.7 1-1.2 1.2a3 3 0 0 1-1.7.5c-.5 0-1-.3-1.3-.4a2.8 2.8 0 0 1-.7-1 10.7 10.7 0 0 1-.4 1.4l-.6 3.4zm4.2-4.5c.4 0 .8-.2 1.1-.4.4-.2.6-.6.9-1l.5-1.5.2-1.6c0-1.1-.4-1.7-1.3-1.7-.3 0-.6 0-1 .4l-1 1a5.4 5.4 0 0 0-.8 3.2c-.1.4 0 .8.3 1.1.2.3.6.5 1.1.5zm8.4 1.1c-1 0-1.6-.3-2.1-.8-.5-.6-.8-1.3-.8-2.2a6.6 6.6 0 0 1 1-3.7c.5-.5 1-.9 1.5-1.2a3 3 0 0 1 1.5-.4c.8 0 1.4.1 1.8.4.3.4.5.8.5 1.4 0 .5-.1 1-.5 1.4-.3.5-.8.8-1.5 1-.7.4-1.5.5-2.7.5h-.2v.5c0 .6.1 1.1.4 1.5.3.3.8.5 1.4.5.3 0 .6 0 1-.2.4 0 .8-.2 1.2-.4v1c-.4.4-.8.4-1.2.6l-1.3.1zm-1.3-4.7c.8 0 1.2 0 1.8-.2.5 0 .9-.2 1.2-.4.2-.3.4-.7.4-1 0-.3 0-.5-.2-.7-.2-.3-.5-.3-.8-.3-.5 0-1 .3-1.4.7-.5.4-.8 1-1 1.9zm7.2 4.7-1-.1-1-.3v-1.2l1.1.4h.9c.6.1 1.2-.1 1.6-.5.6-.6.9-1.2 1.1-2.1h-3.5l.2-.9h3.4v-.5c0-.6-.2-1.1-.5-1.5-.3-.4-.7-.6-1.3-.6h-1l-.6.6-.5-1.1 1-.5a5 5 0 0 1 1.3 0c1 0 1.7.2 2.2.8.5.6.7 1.4.7 2.4 0 .6 0 1.3-.1 1.8a4.8 4.8 0 0 1-.8 1.7c-.3.5-.8.9-1.3 1.3-.5 0-1.1.3-1.9.3zm5.3-.2 1.7-8h1.7l.8 6.4 3.7-6.5h1.7l-1.6 8.1H44l1-4.6.2-1.1.4-1-3.9 6.6h-.9l-1.1-6.7a56.3 56.3 0 0 1-.3 2.3l-1 4.4zm10.4-3.4.3-1.2h3.5l-.2 1.2zm5 3.4 2.2-10.7h5.4l-.2 1.2H56l-.8 3.3h1.1c1 .1 1.7.2 2.1.4.4.3.7.7.9 1a3 3 0 0 1 .3 1.3c0 .8-.2 1.5-.5 2-.4.5-.9.9-1.5 1.2a6 6 0 0 1-2.2.2zm1.5-1.1h1.4c1.8 0 2.6-.8 2.6-2.3 0-.6-.1-1-.5-1.2-.3-.3-.7-.5-1.3-.5H55zm10 1.3c-1 0-1.7-.3-2.2-.8-.5-.6-.7-1.3-.7-2.2a6.6 6.6 0 0 1 1-3.7c.4-.5.8-.9 1.3-1.2a3 3 0 0 1 1.7-.4c.7 0 1.3.1 1.7.4.4.4.6.8.6 1.4 0 .5-.2 1-.6 1.4-.2.5-.8.8-1.4 1-.7.4-1.6.5-2.7.5h-.3v.5c0 .6.1 1.1.4 1.5.3.3.8.5 1.4.5.4 0 .7 0 1-.2.5 0 .9-.2 1.3-.4v1c-.5.4-.9.4-1.2.6l-1.3.1zm-1.4-4.7h.2c.5 0 1.1 0 1.6-.2.4 0 .9-.2 1.2-.4.3-.3.5-.7.5-1l-.3-.7c-.2-.3-.4-.3-.8-.3-.5 0-1 .3-1.4.7-.4.4-.8 1-1 1.9zm5.2 4.6h-.6V114h.4c.4 0 .6 0 .9-.1l.6-1.1c.3-.5.5-1.1.7-1.9l.7-1.7c.2-.5.3-.9.7-1.2.3-.3.6-.6 1-.7.4-.3.9-.3 1.4-.3h1l1 .4L74 115h-1.3l1.5-6.9h-.6c-.4 0-.6.1-1 .3-.2.2-.5.6-.6 1l-.8 2a23 23 0 0 1-.9 2c-.2.8-.5 1.2-.9 1.5-.4.2-.8.3-1.4.3zm8.1 0h-.6V114h.5c.3 0 .6 0 .8-.1.3-.3.5-.7.7-1.1l.7-1.9.7-1.7c.1-.5.4-.9.7-1.2.2-.3.6-.6 1-.7.2-.3.7-.3 1.4-.3h1l.9.4-1.7 7.6h-1.3l1.5-6.9h-.6c-.4 0-.8.1-1 .3-.3.2-.5.6-.8 1-.1.6-.4 1.1-.6 2a23 23 0 0 1-.9 2c-.3.8-.5 1.2-1 1.5-.2.2-.7.3-1.3.3zm0 0" style="fill:none;stroke:#fff;stroke-width:2;stroke-linecap:butt;stroke-linejoin:round;stroke-miterlimit:10;stroke-opacity:.6" transform="rotate(  340 69.8218 112.129) translate(24.826271)"/> <g style="fill:#000;fill-opacity:1" transform=" rotate(  340 69.8218 112.129) ">  <use xlink:href="#a" x="32.2" y="115.1"/>  <use xlink:href="#b" x="38.6" y="115.1"/>  <use xlink:href="#c" x="47.3" y="115.1"/>  <use xlink:href="#d" x="54.8" y="115.1"/>  <use xlink:href="#e" x="61.7" y="115.1"/>  <use xlink:href="#f" x="72.2" y="115.1"/>  <use xlink:href="#g" x="76.9" y="115.1"/>  <use xlink:href="#c" x="85.4" y="115.1"/>  <use xlink:href="#h" x="92.8" y="115.1"/>  <use xlink:href="#h" x="101" y="115.1"/> </g></svg>